<svg width="24" height="24" viewBox="0 0 24 24" fill="none" xmlns="http://www.w3.org/2000/svg"><path d="M6.641 2.643 C 5.957 2.791,5.455 3.039,5.023 3.443 C 4.563 3.873,4.271 4.444,3.994 5.450 L 3.865 5.920 3.433 5.920 L 3.000 5.920 3.000 6.480 L 3.000 7.040 3.420 7.040 L 3.840 7.040 3.840 7.480 L 3.840 7.920 3.420 7.920 L 3.000 7.920 3.000 8.495 L 3.000 9.069 3.403 9.089 C 3.675 9.102,3.822 9.126,3.857 9.164 C 3.886 9.195,3.958 9.417,4.017 9.658 C 4.236 10.548,4.499 11.064,4.977 11.542 C 5.352 11.916,5.595 12.064,6.119 12.239 C 6.838 12.478,7.838 12.547,8.707 12.418 C 10.273 12.185,10.986 11.561,10.521 10.828 C 10.314 10.501,10.039 10.455,9.186 10.606 C 8.532 10.722,7.682 10.731,7.338 10.626 C 7.014 10.527,6.749 10.328,6.600 10.070 C 6.475 9.853,6.331 9.430,6.311 9.220 L 6.300 9.100 7.540 9.080 L 8.780 9.060 8.791 8.516 L 8.802 7.972 8.291 7.946 C 8.010 7.932,7.434 7.920,7.010 7.920 L 6.240 7.920 6.240 7.481 L 6.240 7.041 7.510 7.031 L 8.780 7.020 8.791 6.470 L 8.802 5.920 7.560 5.920 C 6.538 5.920,6.314 5.910,6.296 5.865 C 6.285 5.834,6.322 5.668,6.380 5.495 C 6.575 4.911,6.818 4.596,7.210 4.417 C 7.439 4.313,7.508 4.302,8.020 4.288 C 8.443 4.276,8.724 4.292,9.172 4.356 C 9.911 4.461,10.037 4.439,10.320 4.156 C 10.540 3.937,10.620 3.742,10.581 3.529 C 10.521 3.214,10.340 3.005,9.980 2.835 C 9.545 2.631,9.280 2.595,8.100 2.577 C 7.125 2.563,6.983 2.569,6.641 2.643 M12.860 13.201 C 12.420 13.237,12.059 13.349,11.731 13.549 C 11.165 13.895,10.710 14.422,10.461 15.021 C 10.397 15.174,10.342 15.305,10.338 15.311 C 10.335 15.316,9.812 15.137,9.176 14.912 L 8.020 14.504 7.373 14.488 C 6.562 14.469,6.394 14.503,5.793 14.808 C 5.076 15.172,4.568 15.687,4.345 16.275 C 4.222 16.601,4.227 17.430,4.355 17.780 C 4.469 18.092,4.664 18.383,4.947 18.662 C 5.139 18.851,5.296 18.945,5.938 19.259 C 6.357 19.464,7.123 19.824,7.640 20.060 C 9.521 20.918,10.200 21.167,11.184 21.361 C 11.748 21.472,13.243 21.516,16.500 21.517 C 19.045 21.518,20.229 21.479,20.449 21.387 C 20.700 21.282,20.947 20.902,20.988 20.557 C 21.008 20.389,20.993 20.322,20.883 20.100 C 20.747 19.825,20.577 19.663,20.354 19.597 C 20.275 19.574,18.710 19.542,16.520 19.519 C 14.485 19.497,12.532 19.462,12.180 19.440 C 11.485 19.396,11.106 19.321,10.520 19.108 C 9.635 18.788,7.392 17.776,6.570 17.326 C 6.281 17.168,6.240 17.132,6.240 17.036 C 6.240 16.890,6.438 16.696,6.720 16.563 C 6.905 16.476,6.994 16.461,7.280 16.463 C 7.616 16.466,7.640 16.474,9.321 17.089 C 11.253 17.796,11.796 17.974,12.282 18.057 C 12.471 18.089,13.155 18.146,13.802 18.183 C 15.225 18.265,15.338 18.252,15.621 17.977 C 15.943 17.664,16.034 17.311,15.897 16.909 C 15.829 16.711,15.561 16.429,15.371 16.357 C 15.228 16.302,14.797 16.252,14.020 16.201 C 12.420 16.095,12.292 16.066,12.333 15.814 C 12.368 15.600,12.500 15.423,12.714 15.307 C 12.891 15.211,12.963 15.198,13.485 15.176 C 14.179 15.146,15.661 15.215,16.090 15.297 C 16.449 15.366,17.015 15.581,17.425 15.804 C 17.727 15.969,18.025 16.185,18.960 16.918 C 19.279 17.168,19.602 17.398,19.678 17.430 C 19.769 17.468,19.910 17.483,20.086 17.473 C 20.309 17.460,20.384 17.437,20.524 17.335 C 20.617 17.268,20.749 17.136,20.816 17.043 C 20.924 16.894,20.942 16.833,20.954 16.562 C 20.977 16.052,20.845 15.876,19.820 15.051 C 18.508 13.996,17.566 13.535,16.234 13.298 C 15.597 13.185,13.723 13.131,12.860 13.201 " fill="#1A1C1F" stroke="none" fill-rule="evenodd"></path></svg>