<svg width="14" height="14" viewBox="0 0 14 14" fill="none" xmlns="http://www.w3.org/2000/svg"><path d="M4.152 1.425 C 3.710 1.472,3.367 1.611,3.118 1.844 C 2.863 2.083,2.737 2.315,2.590 2.823 L 2.525 3.045 2.313 3.052 L 2.100 3.058 2.100 3.338 L 2.100 3.617 2.310 3.617 L 2.520 3.617 2.520 3.838 L 2.520 4.060 2.310 4.060 L 2.100 4.060 2.100 4.340 L 2.100 4.620 2.319 4.620 L 2.537 4.620 2.553 4.740 C 2.576 4.915,2.698 5.283,2.796 5.472 C 2.902 5.678,3.175 5.957,3.372 6.059 C 3.449 6.099,3.604 6.165,3.718 6.204 C 3.923 6.276,3.925 6.277,4.420 6.277 C 4.839 6.277,4.944 6.269,5.100 6.230 C 5.582 6.108,5.800 5.956,5.846 5.711 C 5.876 5.547,5.691 5.320,5.526 5.320 C 5.483 5.320,5.349 5.337,5.227 5.357 C 4.357 5.500,4.016 5.416,3.809 5.005 C 3.769 4.924,3.710 4.710,3.710 4.642 C 3.710 4.629,3.949 4.620,4.317 4.620 L 4.923 4.620 4.923 4.340 L 4.923 4.060 4.305 4.060 L 3.687 4.060 3.687 3.838 L 3.687 3.617 4.305 3.617 L 4.923 3.617 4.923 3.337 L 4.923 3.057 4.377 3.057 C 4.074 3.057,3.803 3.046,3.769 3.034 C 3.700 3.007,3.703 2.967,3.794 2.760 C 3.939 2.428,4.083 2.323,4.448 2.282 C 4.611 2.263,4.724 2.264,4.894 2.285 C 5.019 2.301,5.211 2.319,5.320 2.326 C 5.513 2.337,5.521 2.336,5.617 2.266 C 5.932 2.036,5.841 1.671,5.434 1.532 C 5.289 1.483,5.098 1.452,4.772 1.424 C 4.461 1.398,4.407 1.398,4.152 1.425 M7.572 7.022 C 7.244 7.046,7.131 7.075,6.868 7.200 C 6.616 7.320,6.340 7.532,6.210 7.705 C 6.081 7.876,5.959 8.084,5.912 8.211 C 5.890 8.270,5.859 8.352,5.843 8.393 L 5.813 8.468 5.596 8.409 C 5.476 8.376,5.137 8.278,4.841 8.190 C 3.930 7.918,3.971 7.926,3.501 7.940 C 3.062 7.953,2.954 7.974,2.656 8.099 C 2.240 8.275,1.729 8.720,1.577 9.037 C 1.443 9.318,1.412 9.453,1.413 9.753 C 1.414 9.969,1.425 10.051,1.467 10.173 C 1.545 10.398,1.680 10.610,1.866 10.801 C 2.071 11.011,2.177 11.063,3.215 11.467 C 5.202 12.239,5.703 12.409,6.312 12.518 C 6.630 12.575,7.641 12.598,9.975 12.598 C 12.334 12.599,12.135 12.616,12.370 12.397 C 12.528 12.250,12.580 12.132,12.581 11.914 C 12.582 11.627,12.444 11.405,12.182 11.271 C 12.088 11.223,12.056 11.222,9.491 11.200 C 8.057 11.188,6.798 11.167,6.678 11.154 C 6.371 11.120,6.064 11.037,5.497 10.835 C 4.434 10.454,2.922 9.855,2.841 9.783 C 2.818 9.763,2.800 9.733,2.800 9.718 C 2.800 9.665,3.033 9.472,3.179 9.402 C 3.314 9.339,3.345 9.333,3.586 9.333 L 3.847 9.333 4.589 9.568 C 5.704 9.921,6.569 10.187,6.778 10.242 C 7.049 10.313,8.051 10.427,8.963 10.490 C 9.249 10.509,9.397 10.471,9.550 10.336 C 9.859 10.065,9.870 9.581,9.574 9.309 C 9.394 9.142,9.374 9.138,8.167 9.017 C 7.711 8.971,7.312 8.921,7.280 8.906 C 7.203 8.869,7.194 8.779,7.255 8.660 C 7.371 8.433,7.522 8.395,8.307 8.397 C 9.302 8.399,9.736 8.474,10.255 8.732 C 10.601 8.905,10.809 9.057,11.364 9.541 C 11.586 9.734,11.700 9.784,11.912 9.783 C 12.117 9.782,12.229 9.736,12.375 9.595 C 12.532 9.443,12.579 9.330,12.580 9.100 C 12.582 8.848,12.534 8.757,12.255 8.479 C 11.438 7.666,10.414 7.169,9.304 7.048 C 9.003 7.015,7.896 6.999,7.572 7.022 " fill="#1A1C1F" stroke="none" fill-rule="evenodd"></path></svg>