<svg width="28" height="28" viewBox="0 0 28 28" fill="none" xmlns="http://www.w3.org/2000/svg"><path d="M8.727 2.225 C 7.589 2.408,6.982 2.593,6.204 2.993 C 3.696 4.284,2.214 6.902,2.426 9.672 C 2.548 11.271,3.070 12.530,4.122 13.759 C 5.280 15.112,7.051 16.023,8.758 16.145 C 9.873 16.225,10.940 16.080,11.824 15.729 C 13.829 14.933,15.246 13.490,15.951 11.527 C 16.329 10.474,16.387 10.030,16.328 8.633 C 16.296 7.868,16.185 7.377,15.865 6.593 C 14.979 4.422,12.947 2.727,10.788 2.359 C 10.140 2.249,9.029 2.176,8.727 2.225 M10.309 4.065 C 11.867 4.252,13.489 5.521,14.165 7.085 C 14.741 8.416,14.731 10.067,14.140 11.371 C 13.790 12.143,12.995 13.078,12.292 13.545 C 10.630 14.648,8.431 14.708,6.729 13.697 C 5.641 13.049,4.848 12.033,4.376 10.681 L 4.223 10.243 4.223 9.217 C 4.223 8.283,4.233 8.156,4.331 7.817 C 4.743 6.391,5.752 5.181,7.093 4.505 C 8.070 4.012,8.908 3.897,10.309 4.065 M8.773 5.826 C 7.859 6.083,7.385 6.606,7.084 7.689 L 6.977 8.073 6.662 8.073 L 6.347 8.073 6.347 8.470 L 6.347 8.867 6.650 8.867 L 6.953 8.867 6.953 9.170 L 6.953 9.473 6.650 9.473 L 6.347 9.473 6.347 9.868 L 6.347 10.262 6.658 10.276 L 6.969 10.290 7.071 10.697 C 7.322 11.700,7.789 12.240,8.655 12.531 C 9.784 12.910,11.576 12.547,11.694 11.916 C 11.737 11.688,11.620 11.454,11.412 11.355 C 11.262 11.283,11.212 11.283,10.700 11.356 C 10.046 11.448,9.670 11.454,9.409 11.376 C 9.133 11.294,8.844 10.987,8.753 10.683 C 8.620 10.236,8.562 10.267,9.543 10.267 L 10.407 10.267 10.407 9.870 L 10.407 9.473 9.520 9.473 L 8.633 9.473 8.633 9.170 L 8.633 8.867 9.520 8.867 L 10.407 8.867 10.407 8.470 L 10.407 8.073 9.622 8.073 C 8.665 8.073,8.620 8.056,8.744 7.733 C 8.874 7.393,9.082 7.143,9.324 7.036 C 9.525 6.947,9.594 6.942,10.265 6.973 C 10.664 6.992,11.050 7.005,11.123 7.002 C 11.625 6.985,11.831 6.401,11.452 6.069 C 11.186 5.835,10.905 5.777,9.940 5.758 C 9.208 5.743,9.031 5.753,8.773 5.826 M15.237 16.305 C 14.620 16.456,13.723 17.109,13.366 17.667 C 13.184 17.951,12.982 18.434,12.943 18.678 C 12.927 18.774,12.903 18.853,12.889 18.853 C 12.875 18.853,12.316 18.645,11.647 18.390 C 10.218 17.845,9.751 17.703,9.181 17.639 C 8.002 17.505,6.549 17.951,5.749 18.691 C 5.563 18.863,5.357 19.096,5.291 19.208 C 4.924 19.835,4.968 20.679,5.404 21.353 C 5.722 21.844,5.819 21.892,8.610 22.937 C 11.667 24.082,13.580 24.740,14.095 24.824 C 14.497 24.890,16.288 24.954,18.713 24.990 L 20.697 25.019 22.587 25.395 C 23.626 25.602,24.592 25.774,24.733 25.778 C 24.951 25.782,25.022 25.761,25.203 25.635 C 25.480 25.443,25.593 25.201,25.564 24.860 C 25.539 24.558,25.406 24.349,25.156 24.221 C 24.962 24.122,23.405 23.779,21.677 23.453 L 20.557 23.243 17.617 23.195 C 15.418 23.159,14.600 23.130,14.373 23.081 C 13.589 22.911,7.292 20.658,6.941 20.422 C 6.740 20.286,6.733 20.201,6.908 20.002 C 7.228 19.638,7.955 19.398,8.750 19.395 C 9.242 19.393,9.290 19.402,9.893 19.610 C 10.240 19.729,11.267 20.123,12.176 20.486 C 13.085 20.848,14.001 21.195,14.211 21.256 C 14.844 21.439,15.392 21.477,17.136 21.460 C 18.710 21.444,18.740 21.441,18.961 21.333 C 19.551 21.042,19.626 20.228,19.097 19.865 L 18.923 19.746 16.961 19.708 C 14.759 19.665,14.800 19.671,14.696 19.326 C 14.590 18.970,14.881 18.443,15.349 18.146 L 15.558 18.013 17.771 18.013 L 19.983 18.013 20.480 18.157 C 21.408 18.426,21.908 18.705,23.473 19.832 C 23.948 20.174,24.408 20.484,24.496 20.521 C 25.051 20.754,25.758 20.077,25.570 19.493 C 25.410 18.995,23.838 17.795,22.353 17.038 C 21.439 16.571,20.736 16.361,19.848 16.287 C 19.037 16.220,15.529 16.234,15.237 16.305 " fill="#1A1C1F" stroke="none" fill-rule="evenodd"></path></svg>