<svg width="20" height="20" viewBox="0 0 20 20" fill="none" xmlns="http://www.w3.org/2000/svg"><path d="M5.567 2.096 C 5.009 2.220,4.651 2.413,4.324 2.766 C 4.207 2.893,4.063 3.095,4.003 3.216 C 3.879 3.467,3.685 4.026,3.651 4.229 L 3.627 4.367 3.314 4.367 L 3.000 4.367 3.000 4.767 L 3.000 5.167 3.300 5.167 L 3.600 5.167 3.600 5.483 L 3.600 5.800 3.300 5.800 L 3.000 5.800 3.000 6.200 L 3.000 6.600 3.312 6.600 L 3.625 6.600 3.647 6.769 C 3.678 7.003,3.877 7.596,4.007 7.844 C 4.156 8.130,4.553 8.520,4.851 8.674 C 5.349 8.932,6.021 9.040,6.725 8.974 C 7.618 8.890,8.172 8.653,8.316 8.293 C 8.413 8.049,8.313 7.802,8.055 7.651 L 7.905 7.563 7.544 7.631 C 6.263 7.873,5.745 7.754,5.442 7.150 C 5.384 7.035,5.300 6.728,5.300 6.632 C 5.300 6.612,5.641 6.600,6.167 6.600 L 7.033 6.600 7.033 6.200 L 7.033 5.800 6.150 5.800 L 5.267 5.800 5.267 5.483 L 5.267 5.167 6.150 5.167 L 7.033 5.167 7.033 4.767 L 7.033 4.367 6.252 4.367 C 5.823 4.367,5.433 4.352,5.387 4.335 L 5.303 4.303 5.355 4.126 C 5.473 3.728,5.628 3.515,5.909 3.363 L 6.117 3.251 6.583 3.253 C 6.868 3.254,7.182 3.278,7.389 3.313 C 7.726 3.371,7.730 3.371,7.889 3.301 C 8.098 3.209,8.186 3.123,8.254 2.945 C 8.358 2.671,8.265 2.459,7.962 2.276 C 7.706 2.123,7.331 2.063,6.517 2.047 C 5.952 2.036,5.807 2.043,5.567 2.096 M10.800 10.033 C 10.269 10.067,9.933 10.170,9.535 10.425 C 9.033 10.745,8.565 11.320,8.417 11.797 C 8.403 11.841,8.372 11.927,8.347 11.987 L 8.301 12.096 7.992 12.012 C 7.822 11.966,7.338 11.825,6.916 11.700 C 5.614 11.312,5.673 11.323,5.002 11.343 C 4.311 11.364,4.164 11.397,3.649 11.651 C 2.780 12.078,2.185 12.767,2.044 13.507 C 1.909 14.220,2.135 14.910,2.680 15.452 C 2.934 15.703,2.976 15.731,3.357 15.892 C 4.154 16.228,6.996 17.304,7.900 17.610 C 8.941 17.964,9.494 17.998,14.183 17.999 C 17.547 18.000,17.332 18.017,17.652 17.726 C 18.167 17.256,18.073 16.460,17.463 16.134 C 17.294 16.044,17.033 16.036,13.200 15.998 C 11.376 15.981,9.734 15.951,9.553 15.933 C 8.981 15.877,8.483 15.721,6.567 15.000 C 5.635 14.649,4.315 14.127,4.157 14.045 C 3.969 13.949,3.970 13.894,4.163 13.689 C 4.419 13.416,4.913 13.263,5.323 13.329 C 5.433 13.347,6.257 13.589,7.153 13.867 C 9.281 14.528,9.700 14.647,10.200 14.730 C 10.758 14.822,12.386 14.973,12.883 14.979 C 13.343 14.984,13.440 14.954,13.678 14.735 C 14.230 14.226,13.997 13.263,13.274 13.069 C 13.200 13.049,12.624 12.981,11.994 12.917 C 10.175 12.735,10.300 12.759,10.301 12.592 C 10.301 12.438,10.426 12.237,10.595 12.118 L 10.739 12.017 11.411 12.006 C 11.781 12.000,12.406 12.010,12.800 12.028 C 13.611 12.066,13.821 12.112,14.455 12.390 C 15.036 12.644,15.363 12.869,16.150 13.552 C 16.556 13.906,16.706 13.981,17.000 13.981 C 17.278 13.980,17.504 13.882,17.710 13.673 C 17.912 13.467,17.970 13.319,17.970 13.012 C 17.970 12.635,17.878 12.462,17.451 12.046 C 16.297 10.920,14.726 10.184,13.231 10.069 C 12.656 10.025,11.262 10.004,10.800 10.033 " fill="#1A1C1F" stroke="none" fill-rule="evenodd"></path></svg>