<svg width="32" height="32" viewBox="0 0 32 32" fill="none" xmlns="http://www.w3.org/2000/svg"><path d="M9.973 2.543 C 8.673 2.752,7.979 2.963,7.090 3.421 C 4.660 4.671,3.007 7.097,2.776 9.749 C 2.650 11.208,2.928 12.742,3.550 14.005 C 4.765 16.474,7.361 18.262,10.009 18.451 C 12.478 18.628,14.582 17.864,16.312 16.162 C 17.371 15.119,17.952 14.144,18.440 12.587 L 18.632 11.973 18.655 10.766 C 18.680 9.389,18.643 9.059,18.368 8.195 C 17.574 5.699,15.636 3.715,13.211 2.913 C 12.633 2.722,12.055 2.626,11.102 2.562 C 10.272 2.506,10.209 2.505,9.973 2.543 M11.786 4.646 C 13.265 4.824,14.893 5.916,15.775 7.323 C 16.400 8.320,16.659 9.263,16.657 10.533 C 16.654 12.045,16.246 13.191,15.303 14.334 C 13.798 16.157,11.336 16.903,9.025 16.234 C 7.040 15.661,5.428 13.949,4.905 11.859 C 4.799 11.435,4.790 11.298,4.814 10.350 C 4.844 9.159,4.908 8.857,5.306 8.014 C 5.899 6.759,6.859 5.778,8.107 5.148 C 9.224 4.584,10.181 4.454,11.786 4.646 M10.068 6.643 C 9.046 6.891,8.441 7.549,8.095 8.787 L 7.973 9.226 7.613 9.226 L 7.253 9.227 7.253 9.680 L 7.253 10.133 7.600 10.133 L 7.947 10.133 7.947 10.480 L 7.947 10.827 7.600 10.827 L 7.253 10.827 7.253 11.278 L 7.253 11.728 7.610 11.744 L 7.966 11.760 8.058 12.133 C 8.278 13.024,8.629 13.608,9.171 13.986 C 9.746 14.387,10.674 14.565,11.633 14.458 C 12.572 14.354,13.115 14.119,13.302 13.737 C 13.395 13.548,13.397 13.509,13.329 13.314 C 13.278 13.169,13.194 13.064,13.072 12.993 C 12.895 12.890,12.877 12.890,12.219 12.979 C 11.042 13.137,10.685 13.087,10.310 12.713 C 10.158 12.561,10.060 12.400,10.004 12.209 C 9.852 11.698,9.785 11.733,10.907 11.733 L 11.893 11.733 11.893 11.280 L 11.893 10.827 10.880 10.827 L 9.867 10.827 9.867 10.480 L 9.867 10.133 10.880 10.133 L 11.893 10.133 11.893 9.683 L 11.893 9.233 10.938 9.217 C 10.412 9.208,9.966 9.184,9.947 9.165 C 9.886 9.103,10.024 8.709,10.201 8.445 C 10.467 8.046,10.730 7.939,11.439 7.942 C 11.751 7.944,12.026 7.957,12.050 7.972 C 12.074 7.986,12.259 8.003,12.460 8.008 C 12.915 8.020,13.148 7.914,13.261 7.644 C 13.398 7.316,13.251 6.980,12.890 6.792 C 12.462 6.569,10.746 6.479,10.068 6.643 M17.413 18.632 C 16.796 18.788,15.926 19.366,15.454 19.934 C 15.190 20.250,14.852 20.970,14.793 21.340 C 14.775 21.453,14.754 21.547,14.748 21.547 C 14.742 21.547,14.095 21.306,13.311 21.012 C 11.107 20.185,11.139 20.193,10.000 20.195 C 9.472 20.196,8.899 20.225,8.726 20.258 C 8.057 20.388,6.943 20.969,6.446 21.447 C 6.092 21.788,5.910 22.133,5.782 22.708 C 5.703 23.062,5.703 23.127,5.779 23.466 C 5.930 24.131,6.312 24.737,6.737 24.981 C 7.525 25.436,15.271 28.238,16.107 28.372 C 16.582 28.448,18.622 28.520,21.360 28.559 L 23.653 28.592 25.813 29.023 C 27.001 29.260,28.107 29.456,28.271 29.460 C 28.515 29.465,28.606 29.440,28.778 29.321 C 29.088 29.104,29.247 28.840,29.246 28.542 C 29.245 28.154,28.979 27.748,28.640 27.616 C 28.460 27.546,26.347 27.103,24.773 26.805 L 23.493 26.563 20.160 26.507 C 18.327 26.476,16.682 26.427,16.505 26.399 C 16.001 26.319,13.040 25.294,9.576 24.001 C 8.284 23.519,7.818 23.304,7.766 23.168 C 7.687 22.963,8.081 22.618,8.680 22.368 C 9.014 22.228,9.101 22.216,9.904 22.198 L 10.768 22.178 11.264 22.364 C 11.537 22.466,12.660 22.909,13.760 23.348 C 14.860 23.787,16.000 24.226,16.293 24.323 L 16.827 24.500 19.067 24.502 C 21.430 24.505,21.597 24.490,21.893 24.257 C 22.081 24.110,22.237 23.766,22.239 23.497 C 22.240 23.208,22.062 22.865,21.825 22.703 L 21.627 22.568 19.382 22.522 C 16.866 22.471,16.913 22.479,16.796 22.087 C 16.672 21.674,17.038 21.031,17.575 20.716 L 17.807 20.580 20.410 20.599 L 23.013 20.619 23.493 20.767 C 24.463 21.067,25.110 21.432,26.713 22.583 C 28.109 23.584,28.182 23.617,28.614 23.421 C 29.074 23.211,29.351 22.692,29.228 22.269 C 29.021 21.557,26.148 19.581,24.464 18.992 C 23.387 18.615,23.242 18.601,20.320 18.581 C 18.314 18.568,17.616 18.580,17.413 18.632 " fill="#1A1C1F" stroke="none" fill-rule="evenodd"></path></svg>