<svg width="16" height="16" viewBox="0 0 16 16" fill="none" xmlns="http://www.w3.org/2000/svg"><path d="M4.640 1.653 C 3.733 1.743,3.163 2.305,2.932 3.340 L 2.898 3.493 2.649 3.493 L 2.400 3.493 2.400 3.813 L 2.400 4.133 2.640 4.133 L 2.880 4.133 2.880 4.387 L 2.880 4.640 2.640 4.640 L 2.400 4.640 2.400 4.960 L 2.400 5.280 2.650 5.280 L 2.900 5.280 2.918 5.415 C 2.943 5.602,3.101 6.077,3.205 6.276 C 3.308 6.472,3.637 6.813,3.823 6.915 C 4.175 7.109,4.543 7.186,5.107 7.185 C 5.909 7.183,6.480 6.984,6.641 6.651 C 6.741 6.444,6.669 6.253,6.440 6.119 L 6.324 6.051 6.035 6.105 C 5.410 6.223,4.989 6.228,4.735 6.122 C 4.619 6.074,4.444 5.899,4.374 5.762 C 4.322 5.659,4.240 5.386,4.240 5.314 C 4.240 5.287,4.385 5.280,4.933 5.280 L 5.627 5.280 5.627 4.960 L 5.627 4.640 4.920 4.640 L 4.213 4.640 4.213 4.387 L 4.213 4.133 4.920 4.133 L 5.627 4.133 5.627 3.813 L 5.627 3.493 4.985 3.493 C 4.606 3.493,4.323 3.482,4.293 3.467 C 4.245 3.441,4.245 3.433,4.284 3.300 C 4.385 2.961,4.546 2.761,4.797 2.662 C 4.925 2.612,4.997 2.604,5.293 2.605 C 5.486 2.605,5.754 2.625,5.897 2.649 C 6.127 2.688,6.167 2.688,6.288 2.653 C 6.586 2.564,6.736 2.189,6.561 1.967 C 6.490 1.877,6.228 1.743,6.024 1.692 C 5.823 1.642,4.993 1.618,4.640 1.653 M8.680 8.027 C 8.308 8.049,8.085 8.102,7.830 8.230 C 7.313 8.489,6.960 8.880,6.728 9.451 C 6.652 9.638,6.633 9.666,6.580 9.659 C 6.547 9.655,6.177 9.551,5.759 9.428 C 4.437 9.039,4.287 9.011,3.812 9.065 C 3.463 9.105,3.345 9.134,3.090 9.240 C 2.418 9.522,1.894 10.021,1.694 10.570 C 1.624 10.762,1.621 10.785,1.632 11.178 C 1.641 11.498,1.655 11.613,1.694 11.707 C 1.793 11.944,1.930 12.143,2.143 12.358 C 2.391 12.608,2.301 12.564,3.600 13.073 C 5.591 13.854,6.361 14.127,6.920 14.252 C 7.474 14.376,7.640 14.381,10.813 14.384 L 13.800 14.387 13.926 14.324 C 14.088 14.244,14.247 14.084,14.324 13.925 C 14.453 13.660,14.384 13.284,14.165 13.058 C 14.028 12.917,13.928 12.862,13.773 12.841 C 13.700 12.832,12.344 12.813,10.760 12.799 C 9.158 12.786,7.773 12.763,7.640 12.747 C 7.305 12.709,6.816 12.583,6.353 12.414 C 5.571 12.130,3.571 11.351,3.300 11.225 C 3.184 11.172,3.192 11.094,3.329 10.951 C 3.538 10.732,3.931 10.611,4.259 10.663 C 4.348 10.678,4.929 10.848,5.550 11.041 C 7.961 11.792,7.909 11.780,9.413 11.922 C 10.152 11.991,10.562 12.000,10.705 11.949 C 11.042 11.831,11.259 11.381,11.160 11.004 C 11.108 10.803,10.988 10.632,10.840 10.545 C 10.686 10.455,10.483 10.422,9.480 10.321 C 8.456 10.218,8.317 10.197,8.271 10.139 C 8.185 10.027,8.322 9.768,8.522 9.667 C 8.621 9.616,8.679 9.613,9.573 9.613 C 10.624 9.613,10.750 9.626,11.200 9.775 C 11.783 9.969,12.226 10.230,12.721 10.672 C 13.233 11.128,13.328 11.181,13.626 11.180 C 13.849 11.178,13.978 11.125,14.143 10.965 C 14.326 10.788,14.372 10.676,14.373 10.402 C 14.374 10.103,14.326 10.009,14.010 9.694 C 13.154 8.837,12.139 8.304,10.987 8.104 C 10.463 8.014,9.474 7.981,8.680 8.027 " fill="#1A1C1F" stroke="none" fill-rule="evenodd"></path></svg>