<svg width="12" height="12" viewBox="0 0 12 12" fill="none" xmlns="http://www.w3.org/2000/svg"><path d="M3.440 1.240 C 3.025 1.294,2.657 1.517,2.455 1.840 C 2.356 1.997,2.215 2.369,2.187 2.545 L 2.175 2.620 1.987 2.620 L 1.800 2.620 1.800 2.860 L 1.800 3.100 1.980 3.100 L 2.160 3.100 2.160 3.290 L 2.160 3.480 1.980 3.480 L 1.800 3.480 1.800 3.720 L 1.800 3.960 1.987 3.960 L 2.175 3.960 2.189 4.063 C 2.209 4.218,2.314 4.530,2.404 4.704 C 2.513 4.916,2.716 5.108,2.948 5.220 C 3.192 5.338,3.414 5.380,3.800 5.381 C 4.505 5.382,4.956 5.206,5.012 4.908 C 5.031 4.804,4.953 4.665,4.835 4.592 L 4.740 4.534 4.525 4.577 C 3.773 4.726,3.447 4.652,3.265 4.290 C 3.230 4.221,3.180 4.037,3.180 3.979 C 3.180 3.967,3.385 3.960,3.700 3.960 L 4.220 3.960 4.220 3.720 L 4.220 3.480 3.690 3.480 L 3.160 3.480 3.160 3.290 L 3.160 3.100 3.690 3.100 L 4.220 3.100 4.220 2.861 L 4.220 2.622 3.721 2.616 C 3.404 2.612,3.214 2.602,3.201 2.589 C 3.186 2.574,3.191 2.535,3.217 2.458 C 3.299 2.219,3.401 2.090,3.580 1.998 C 3.663 1.955,3.694 1.952,3.960 1.953 C 4.120 1.955,4.329 1.969,4.426 1.985 C 4.659 2.024,4.753 2.005,4.870 1.893 C 4.970 1.797,5.002 1.676,4.960 1.551 C 4.924 1.439,4.753 1.330,4.529 1.273 C 4.387 1.237,3.637 1.214,3.440 1.240 M6.480 6.020 C 6.232 6.035,6.136 6.056,5.951 6.134 C 5.537 6.307,5.229 6.634,5.047 7.089 C 4.990 7.232,4.978 7.249,4.937 7.243 C 4.886 7.235,4.508 7.128,3.910 6.951 C 3.376 6.793,3.234 6.771,2.920 6.799 C 2.602 6.827,2.465 6.860,2.253 6.957 C 1.900 7.121,1.594 7.372,1.411 7.649 C 1.236 7.915,1.166 8.269,1.229 8.581 C 1.282 8.848,1.392 9.053,1.589 9.253 C 1.789 9.456,1.820 9.471,2.770 9.836 C 4.530 10.512,4.805 10.608,5.260 10.701 C 5.532 10.757,5.595 10.762,6.260 10.781 C 6.651 10.793,7.731 10.799,8.660 10.796 L 10.350 10.790 10.449 10.741 C 10.569 10.681,10.678 10.576,10.730 10.469 C 10.784 10.359,10.794 10.114,10.751 9.983 C 10.714 9.871,10.580 9.732,10.442 9.661 C 10.359 9.619,10.346 9.618,8.134 9.600 C 6.881 9.589,5.827 9.572,5.720 9.560 C 5.365 9.521,4.994 9.404,3.890 8.980 C 2.573 8.475,2.400 8.400,2.400 8.331 C 2.400 8.285,2.597 8.119,2.725 8.059 C 2.840 8.005,2.868 8.000,3.073 8.000 L 3.296 8.000 4.123 8.261 C 5.445 8.679,5.857 8.800,6.060 8.830 C 6.558 8.905,7.780 9.010,7.919 8.990 C 8.153 8.956,8.352 8.740,8.390 8.477 C 8.421 8.268,8.304 8.011,8.131 7.910 C 8.014 7.841,7.864 7.816,7.110 7.740 C 6.337 7.663,6.237 7.648,6.204 7.604 C 6.142 7.524,6.236 7.336,6.382 7.250 C 6.445 7.213,6.493 7.210,7.040 7.203 C 7.696 7.196,7.986 7.217,8.278 7.293 C 8.762 7.418,9.151 7.647,9.650 8.099 C 9.897 8.323,10.009 8.383,10.184 8.384 C 10.366 8.385,10.469 8.347,10.591 8.235 C 10.737 8.102,10.783 8.000,10.785 7.803 C 10.787 7.592,10.743 7.505,10.512 7.272 C 9.820 6.573,8.855 6.112,7.939 6.041 C 7.594 6.015,6.757 6.003,6.480 6.020 " fill="#1A1C1F" stroke="none" fill-rule="evenodd"></path></svg>