<svg width="32" height="32" viewBox="0 0 32 32" fill="none" xmlns="http://www.w3.org/2000/svg"><path d="M7.440 6.082 C 5.113 6.105,4.130 6.133,3.988 6.180 C 3.692 6.276,3.023 6.743,2.771 7.029 C 2.475 7.365,2.322 7.634,2.129 8.163 L 1.968 8.605 1.984 16.076 L 2.000 23.547 2.145 23.908 C 2.535 24.882,3.426 25.697,4.351 25.927 C 4.736 26.023,27.267 26.022,27.653 25.927 C 28.427 25.734,29.303 25.024,29.666 24.293 C 30.073 23.475,30.043 24.199,30.011 16.087 C 29.992 11.192,29.964 8.705,29.924 8.453 C 29.892 8.248,29.791 7.928,29.700 7.741 C 29.409 7.146,28.611 6.417,28.000 6.188 C 27.637 6.052,16.218 5.993,7.440 6.082 M27.655 8.337 L 27.929 8.620 27.964 9.150 C 27.984 9.441,28.000 10.202,28.000 10.840 L 28.000 12.000 15.993 12.000 L 3.986 12.000 4.011 10.349 L 4.036 8.698 4.187 8.479 C 4.357 8.235,4.436 8.181,4.730 8.112 C 4.846 8.085,9.748 8.062,16.157 8.059 L 27.381 8.053 27.655 8.337 M28.000 18.603 L 28.000 23.179 27.838 23.434 C 27.749 23.574,27.600 23.759,27.506 23.845 L 27.336 24.000 17.201 23.995 C 11.627 23.992,6.494 23.974,5.794 23.955 L 4.521 23.920 4.296 23.671 L 4.071 23.422 4.035 20.898 C 4.016 19.509,4.000 17.395,4.000 16.200 L 4.000 14.027 16.000 14.027 L 28.000 14.027 28.000 18.603 M7.695 19.091 C 7.279 19.191,7.039 19.529,7.041 20.011 C 7.042 20.411,7.205 20.683,7.547 20.853 L 7.813 20.987 12.018 21.002 L 16.222 21.018 16.456 20.881 C 17.097 20.506,17.158 19.598,16.569 19.209 L 16.355 19.067 12.111 19.058 C 9.776 19.053,7.789 19.068,7.695 19.091 " fill="#1A1C1F" stroke="none" fill-rule="evenodd"></path></svg>