<svg width="24" height="24" viewBox="0 0 24 24" fill="none" xmlns="http://www.w3.org/2000/svg"><path d="M3.960 5.078 C 3.542 5.114,3.163 5.317,2.760 5.721 C 2.438 6.043,2.274 6.312,2.101 6.803 L 1.995 7.106 2.010 12.063 C 2.024 16.609,2.030 17.040,2.094 17.257 C 2.203 17.633,2.356 17.876,2.700 18.221 C 3.043 18.564,3.298 18.721,3.802 18.899 L 4.105 19.005 12.042 18.988 C 17.826 18.976,20.034 18.959,20.180 18.926 C 20.545 18.842,20.876 18.647,21.201 18.324 C 21.536 17.992,21.730 17.678,21.899 17.197 L 22.006 16.894 21.990 11.937 C 21.976 7.396,21.969 6.960,21.906 6.743 C 21.703 6.044,21.133 5.474,20.310 5.147 L 20.039 5.040 12.150 5.046 C 7.810 5.049,4.125 5.064,3.960 5.078 M19.720 7.066 C 19.925 7.107,19.956 7.237,19.986 8.178 L 20.013 9.000 12.006 9.000 L 4.000 9.000 4.003 8.430 C 4.006 7.743,4.052 7.212,4.114 7.150 C 4.140 7.124,4.246 7.092,4.350 7.077 C 4.597 7.043,19.549 7.032,19.720 7.066 M19.990 13.855 C 19.975 15.836,19.954 16.736,19.924 16.793 C 19.823 16.981,20.030 16.976,11.918 16.990 C 4.334 17.003,4.255 17.003,4.184 16.925 C 4.145 16.881,4.095 16.777,4.072 16.693 C 4.048 16.601,4.024 15.439,4.011 13.770 L 3.991 11.000 12.002 11.000 L 20.012 11.000 19.990 13.855 M7.320 13.040 C 6.886 13.052,6.588 13.078,6.537 13.108 C 6.423 13.173,6.179 13.448,6.102 13.597 C 5.866 14.052,6.095 14.662,6.597 14.918 C 6.752 14.998,6.820 15.000,9.031 15.000 L 11.304 15.000 11.488 14.884 C 11.722 14.735,11.912 14.459,11.970 14.181 C 12.029 13.902,11.945 13.610,11.736 13.367 C 11.524 13.119,11.407 13.073,10.943 13.056 C 10.205 13.029,8.029 13.019,7.320 13.040 " fill="#1A1C1F" stroke="none" fill-rule="evenodd"></path></svg>