<svg width="20" height="20" viewBox="0 0 20 20" fill="none" xmlns="http://www.w3.org/2000/svg"><path d="M3.527 4.067 C 3.254 4.114,2.910 4.321,2.615 4.615 C 2.335 4.896,2.192 5.125,2.070 5.491 C 2.000 5.696,2.000 5.727,2.000 10.017 L 2.000 14.335 2.101 14.598 C 2.352 15.248,2.773 15.663,3.419 15.897 L 3.703 16.000 10.000 16.000 L 16.297 16.000 16.581 15.897 C 17.241 15.658,17.658 15.240,17.900 14.574 L 18.006 14.283 17.991 9.967 C 17.977 5.997,17.971 5.635,17.918 5.467 C 17.696 4.757,17.008 4.140,16.356 4.064 C 16.052 4.029,3.737 4.032,3.527 4.067 M16.000 7.000 L 16.000 8.000 10.000 8.000 L 4.000 8.000 4.000 7.000 L 4.000 6.000 10.000 6.000 L 16.000 6.000 16.000 7.000 M9.000 12.000 L 9.000 13.000 6.500 13.000 L 4.000 13.000 4.000 12.000 L 4.000 11.000 6.500 11.000 L 9.000 11.000 9.000 12.000 " fill="#1A1C1F" stroke="none" fill-rule="evenodd"></path></svg>