<svg width="16" height="16" viewBox="0 0 16 16" fill="none" xmlns="http://www.w3.org/2000/svg"><path d="M2.959 3.252 C 2.732 3.268,2.684 3.281,2.507 3.375 C 2.106 3.587,1.736 4.042,1.653 4.427 C 1.629 4.534,1.617 5.496,1.608 8.021 L 1.595 11.469 1.681 11.683 C 1.890 12.202,2.212 12.523,2.722 12.719 L 2.932 12.800 8.000 12.800 L 13.068 12.800 13.275 12.720 C 13.786 12.523,14.124 12.184,14.322 11.671 L 14.406 11.454 14.394 7.974 C 14.382 4.504,14.381 4.493,14.325 4.338 C 14.230 4.077,14.107 3.890,13.892 3.676 C 13.638 3.424,13.374 3.285,13.083 3.251 C 12.861 3.225,3.335 3.227,2.959 3.252 M12.800 5.600 L 12.800 6.400 8.000 6.400 L 3.200 6.400 3.200 5.600 L 3.200 4.800 8.000 4.800 L 12.800 4.800 12.800 5.600 M7.200 9.600 L 7.200 10.400 5.200 10.400 L 3.200 10.400 3.200 9.600 L 3.200 8.800 5.200 8.800 L 7.200 8.800 7.200 9.600 " fill="#1A1C1F" stroke="none" fill-rule="evenodd"></path></svg>