<svg width="14" height="14" viewBox="0 0 14 14" fill="none" xmlns="http://www.w3.org/2000/svg"><path d="M6.596 1.272 C 6.340 1.342,6.233 1.419,5.838 1.813 C 5.398 2.253,5.437 2.238,5.048 2.129 C 4.839 2.071,4.784 2.065,4.433 2.066 L 4.048 2.067 3.885 2.151 C 3.658 2.267,3.486 2.400,3.342 2.572 C 3.122 2.832,3.068 2.994,2.987 3.640 C 2.960 3.852,2.926 4.036,2.910 4.051 C 2.894 4.065,2.745 4.133,2.578 4.201 C 2.184 4.361,2.054 4.436,1.877 4.601 C 1.702 4.765,1.562 4.975,1.491 5.180 C 1.447 5.307,1.439 5.381,1.439 5.635 C 1.439 5.999,1.462 6.069,1.765 6.616 C 1.872 6.810,1.960 6.985,1.960 7.005 C 1.960 7.026,1.869 7.188,1.757 7.366 C 1.438 7.873,1.353 8.191,1.433 8.584 C 1.481 8.821,1.554 8.990,1.691 9.182 C 1.853 9.408,1.958 9.483,2.463 9.733 L 2.931 9.964 2.972 10.377 C 3.033 10.998,3.118 11.215,3.418 11.517 C 3.611 11.710,3.737 11.789,3.998 11.880 C 4.273 11.975,4.512 11.972,5.005 11.865 C 5.210 11.820,5.395 11.784,5.416 11.784 C 5.436 11.783,5.568 11.916,5.708 12.078 C 6.064 12.492,6.227 12.618,6.557 12.731 C 6.657 12.765,6.750 12.775,6.977 12.774 C 7.512 12.772,7.697 12.676,8.223 12.129 L 8.560 11.778 8.906 11.861 C 9.096 11.906,9.325 11.949,9.415 11.957 C 9.909 11.999,10.384 11.791,10.677 11.403 C 10.896 11.114,10.965 10.898,11.024 10.327 C 11.050 10.075,11.067 9.993,11.100 9.961 C 11.123 9.939,11.273 9.866,11.433 9.799 C 11.863 9.621,11.942 9.576,12.116 9.407 C 12.312 9.218,12.426 9.049,12.503 8.834 C 12.554 8.690,12.562 8.629,12.562 8.377 C 12.562 8.000,12.527 7.894,12.236 7.386 L 12.014 6.999 12.199 6.702 C 12.505 6.209,12.571 6.050,12.593 5.752 C 12.616 5.423,12.483 5.034,12.259 4.778 C 12.029 4.517,11.820 4.382,11.305 4.163 C 11.190 4.114,11.089 4.065,11.081 4.053 C 11.073 4.042,11.054 3.889,11.038 3.714 C 10.989 3.152,10.926 2.931,10.741 2.668 C 10.536 2.375,10.199 2.158,9.836 2.084 C 9.610 2.039,9.329 2.063,8.858 2.169 L 8.557 2.236 8.496 2.163 C 8.170 1.770,7.946 1.538,7.813 1.455 C 7.637 1.346,7.516 1.292,7.373 1.261 C 7.224 1.228,6.730 1.235,6.596 1.272 M7.245 2.861 C 7.616 3.299,7.827 3.473,8.106 3.571 C 8.409 3.678,8.664 3.672,9.225 3.547 C 9.397 3.508,9.548 3.477,9.562 3.477 C 9.575 3.477,9.592 3.542,9.601 3.623 C 9.706 4.614,9.749 4.738,10.100 5.079 C 10.262 5.236,10.517 5.381,10.889 5.528 C 11.127 5.622,11.163 5.648,11.144 5.709 C 11.136 5.734,11.061 5.870,10.977 6.010 C 10.489 6.826,10.474 7.166,10.893 7.896 C 11.137 8.322,11.158 8.367,11.121 8.397 C 11.105 8.411,10.940 8.486,10.755 8.564 C 10.335 8.741,10.245 8.793,10.063 8.968 C 9.747 9.269,9.654 9.531,9.592 10.286 C 9.580 10.431,9.566 10.555,9.560 10.561 C 9.554 10.567,9.407 10.536,9.234 10.491 C 8.687 10.350,8.222 10.353,7.920 10.500 C 7.703 10.606,7.588 10.705,7.308 11.031 C 7.166 11.196,7.035 11.344,7.016 11.360 C 6.986 11.385,6.934 11.336,6.681 11.048 C 6.345 10.664,6.149 10.511,5.886 10.430 C 5.568 10.332,5.261 10.344,4.723 10.475 C 4.570 10.513,4.436 10.535,4.426 10.525 C 4.415 10.514,4.392 10.345,4.373 10.147 C 4.314 9.502,4.226 9.253,3.966 8.986 C 3.777 8.793,3.628 8.701,3.197 8.514 C 2.999 8.428,2.833 8.348,2.829 8.337 C 2.826 8.325,2.922 8.151,3.043 7.949 C 3.322 7.484,3.393 7.287,3.394 6.977 C 3.395 6.671,3.340 6.512,3.069 6.040 C 2.947 5.827,2.847 5.642,2.847 5.631 C 2.847 5.619,2.970 5.558,3.121 5.496 C 3.623 5.288,3.751 5.213,3.955 5.006 C 4.246 4.711,4.333 4.491,4.386 3.908 C 4.426 3.466,4.429 3.453,4.492 3.453 C 4.523 3.453,4.698 3.491,4.881 3.536 C 5.303 3.641,5.553 3.660,5.775 3.605 C 6.145 3.514,6.361 3.359,6.759 2.900 C 6.895 2.742,7.014 2.613,7.022 2.613 C 7.030 2.613,7.130 2.725,7.245 2.861 M5.308 4.963 C 5.094 5.078,4.960 5.256,4.918 5.480 C 4.896 5.600,4.898 5.645,4.933 5.769 C 4.994 5.989,5.105 6.121,5.310 6.220 C 5.478 6.300,5.612 6.313,5.774 6.266 C 6.029 6.192,6.189 6.035,6.262 5.788 C 6.310 5.629,6.309 5.579,6.261 5.403 C 6.228 5.285,6.198 5.238,6.080 5.121 C 5.985 5.026,5.907 4.970,5.842 4.951 C 5.702 4.910,5.394 4.917,5.308 4.963 M6.498 6.510 L 4.958 8.050 5.454 8.546 L 5.950 9.042 7.496 7.496 L 9.041 5.950 8.552 5.460 C 8.282 5.191,8.057 4.970,8.050 4.970 C 8.044 4.970,7.345 5.663,6.498 6.510 M8.103 7.772 C 7.980 7.833,7.828 7.983,7.764 8.107 C 7.702 8.226,7.700 8.480,7.759 8.658 C 7.807 8.803,7.943 8.950,8.099 9.025 C 8.239 9.093,8.551 9.097,8.693 9.033 C 8.827 8.972,8.949 8.858,9.005 8.742 C 9.199 8.341,9.034 7.898,8.640 7.757 C 8.498 7.706,8.220 7.714,8.103 7.772 " fill="#1A1C1F" stroke="none" fill-rule="evenodd"></path></svg>