<svg width="20" height="20" viewBox="0 0 20 20" fill="none" xmlns="http://www.w3.org/2000/svg"><path d="M9.582 1.780 C 9.068 1.878,8.770 2.089,8.073 2.849 L 7.768 3.181 7.309 3.068 C 6.788 2.939,6.218 2.897,5.895 2.964 C 5.311 3.086,4.687 3.607,4.471 4.156 C 4.394 4.351,4.321 4.730,4.265 5.217 C 4.198 5.803,4.218 5.770,3.825 5.933 C 3.134 6.219,2.854 6.384,2.584 6.662 C 2.193 7.065,2.061 7.410,2.058 8.033 C 2.055 8.556,2.095 8.681,2.502 9.415 C 2.666 9.711,2.800 9.976,2.800 10.005 C 2.800 10.034,2.669 10.266,2.510 10.520 C 2.054 11.247,1.927 11.737,2.046 12.299 C 2.136 12.721,2.294 13.003,2.626 13.335 C 2.931 13.639,2.987 13.672,3.937 14.109 L 4.190 14.225 4.213 14.488 C 4.260 15.028,4.339 15.552,4.402 15.730 C 4.551 16.153,4.999 16.650,5.412 16.849 C 5.919 17.093,6.350 17.119,7.150 16.956 C 7.869 16.809,7.737 16.771,8.143 17.243 C 8.819 18.027,9.143 18.221,9.837 18.257 C 10.251 18.279,10.564 18.222,10.901 18.065 C 11.086 17.979,11.197 17.882,11.672 17.394 L 12.226 16.823 12.647 16.929 C 13.373 17.111,13.960 17.127,14.344 16.976 C 14.772 16.808,15.269 16.352,15.476 15.938 C 15.617 15.658,15.682 15.380,15.751 14.767 C 15.779 14.519,15.809 14.292,15.819 14.261 C 15.829 14.227,16.016 14.132,16.303 14.014 C 16.912 13.764,17.126 13.634,17.399 13.347 C 17.801 12.923,17.995 12.396,17.956 11.836 C 17.923 11.380,17.838 11.158,17.410 10.423 L 17.162 9.997 17.410 9.607 C 17.736 9.093,17.858 8.846,17.936 8.541 C 18.012 8.241,18.016 8.031,17.950 7.718 C 17.850 7.248,17.538 6.756,17.157 6.470 C 16.968 6.327,16.619 6.146,16.150 5.948 C 15.985 5.878,15.841 5.807,15.830 5.792 C 15.819 5.776,15.785 5.515,15.753 5.211 C 15.658 4.304,15.556 4.014,15.193 3.618 C 14.724 3.105,14.135 2.887,13.437 2.966 C 13.279 2.984,12.951 3.038,12.707 3.086 C 12.464 3.134,12.244 3.165,12.220 3.156 C 12.195 3.146,12.028 2.963,11.849 2.749 C 11.358 2.164,10.995 1.894,10.581 1.806 C 10.289 1.744,9.834 1.732,9.582 1.780 M7.933 6.675 C 8.421 6.823,8.693 7.418,8.513 7.945 C 8.440 8.161,8.174 8.446,7.975 8.522 C 7.600 8.665,7.169 8.571,6.881 8.283 C 6.709 8.110,6.633 7.897,6.633 7.580 C 6.633 7.204,6.745 6.992,7.054 6.779 C 7.304 6.607,7.597 6.572,7.933 6.675 M12.733 7.317 L 13.416 8.000 10.708 10.708 L 8.000 13.417 7.301 12.717 L 6.602 12.017 9.110 9.493 C 11.455 7.132,11.964 6.633,12.026 6.633 C 12.039 6.633,12.358 6.941,12.733 7.317 M12.861 11.536 C 13.224 11.717,13.367 11.975,13.367 12.451 C 13.367 12.710,13.360 12.733,13.239 12.920 C 12.892 13.457,12.226 13.557,11.765 13.142 C 11.525 12.926,11.434 12.723,11.434 12.400 C 11.434 12.101,11.522 11.883,11.721 11.693 C 11.917 11.506,12.105 11.435,12.403 11.434 C 12.620 11.433,12.686 11.448,12.861 11.536 " fill="#1A1C1F" stroke="none" fill-rule="evenodd"></path></svg>