<svg width="14" height="14" viewBox="0 0 14 14" fill="none" xmlns="http://www.w3.org/2000/svg"><path d="M6.743 1.237 C 6.363 1.298,6.084 1.496,5.598 2.052 L 5.446 2.226 5.120 2.145 C 4.821 2.071,4.767 2.065,4.445 2.066 C 4.138 2.066,4.079 2.073,3.963 2.119 C 3.668 2.237,3.343 2.509,3.200 2.759 C 3.103 2.928,3.045 3.167,2.990 3.625 C 2.955 3.915,2.936 4.004,2.902 4.038 C 2.878 4.061,2.717 4.140,2.543 4.213 C 2.169 4.372,1.968 4.497,1.804 4.672 C 1.526 4.968,1.443 5.186,1.440 5.623 C 1.439 5.990,1.467 6.079,1.752 6.590 C 1.866 6.795,1.960 6.981,1.960 7.002 C 1.960 7.023,1.869 7.186,1.757 7.364 C 1.480 7.806,1.413 7.997,1.414 8.342 C 1.416 8.780,1.544 9.062,1.889 9.387 C 2.077 9.564,2.231 9.653,2.601 9.800 C 2.702 9.840,2.814 9.893,2.849 9.918 C 2.927 9.974,2.952 10.077,2.988 10.488 C 3.018 10.836,3.084 11.065,3.211 11.264 C 3.385 11.536,3.690 11.779,3.986 11.881 C 4.200 11.955,4.620 11.954,4.958 11.878 C 5.277 11.806,5.422 11.793,5.478 11.833 C 5.502 11.851,5.618 11.976,5.735 12.111 C 6.045 12.469,6.274 12.643,6.568 12.743 C 6.696 12.786,7.230 12.786,7.385 12.742 C 7.680 12.659,7.940 12.451,8.402 11.930 L 8.552 11.761 8.808 11.831 C 9.384 11.987,9.691 12.003,9.992 11.893 C 10.221 11.810,10.393 11.699,10.570 11.522 C 10.848 11.244,10.949 10.978,11.026 10.325 C 11.047 10.145,11.073 9.983,11.083 9.963 C 11.094 9.944,11.242 9.873,11.414 9.806 C 11.819 9.647,11.986 9.546,12.184 9.337 C 12.463 9.044,12.597 8.678,12.569 8.285 C 12.546 7.965,12.484 7.805,12.187 7.298 L 12.012 7.001 12.202 6.699 C 12.528 6.181,12.624 5.907,12.591 5.589 C 12.528 4.974,12.207 4.561,11.573 4.280 C 11.216 4.122,11.111 4.065,11.083 4.014 C 11.070 3.988,11.043 3.807,11.024 3.611 C 10.963 2.999,10.881 2.785,10.591 2.492 C 10.445 2.344,10.375 2.292,10.194 2.206 C 9.832 2.031,9.538 2.020,8.897 2.159 C 8.750 2.191,8.610 2.217,8.586 2.217 C 8.559 2.217,8.442 2.099,8.277 1.908 C 7.822 1.378,7.609 1.257,7.080 1.228 C 6.965 1.221,6.814 1.225,6.743 1.237 M5.600 4.692 C 5.736 4.753,5.846 4.860,5.923 5.005 C 5.976 5.106,5.985 5.150,5.985 5.332 C 5.985 5.518,5.978 5.554,5.922 5.649 C 5.847 5.776,5.696 5.918,5.587 5.964 C 5.469 6.013,5.144 6.006,5.028 5.952 C 4.905 5.895,4.751 5.732,4.690 5.594 C 4.572 5.327,4.613 5.081,4.810 4.865 C 4.980 4.680,5.055 4.646,5.297 4.645 C 5.447 4.644,5.520 4.656,5.600 4.692 M8.937 5.144 L 9.391 5.600 7.496 7.496 L 5.600 9.392 5.111 8.902 L 4.622 8.412 6.377 6.645 C 7.342 5.674,8.192 4.826,8.267 4.761 C 8.373 4.667,8.410 4.647,8.442 4.665 C 8.464 4.677,8.686 4.892,8.937 5.144 M8.960 8.052 C 9.095 8.113,9.229 8.243,9.300 8.382 C 9.374 8.525,9.380 8.825,9.312 8.975 C 9.251 9.110,9.116 9.251,8.992 9.311 C 8.840 9.385,8.522 9.386,8.383 9.314 C 8.251 9.246,8.139 9.129,8.071 8.992 C 7.993 8.833,7.991 8.506,8.067 8.362 C 8.132 8.239,8.306 8.086,8.431 8.042 C 8.578 7.990,8.833 7.994,8.960 8.052 " fill="#1A1C1F" stroke="none" fill-rule="evenodd"></path></svg>