<svg width="24" height="24" viewBox="0 0 24 24" fill="none" xmlns="http://www.w3.org/2000/svg"><path d="M11.520 2.215 C 11.263 2.271,10.869 2.473,10.649 2.662 C 10.564 2.734,10.254 3.074,9.960 3.417 C 9.666 3.760,9.410 4.040,9.391 4.040 C 9.371 4.040,9.145 3.987,8.888 3.923 C 7.562 3.593,7.109 3.578,6.560 3.846 C 6.201 4.022,5.723 4.500,5.561 4.846 C 5.411 5.165,5.377 5.353,5.301 6.265 C 5.268 6.664,5.231 7.018,5.218 7.052 C 5.204 7.086,4.966 7.206,4.687 7.319 C 3.784 7.683,3.364 7.908,3.120 8.157 C 2.878 8.404,2.667 8.790,2.598 9.114 C 2.573 9.229,2.559 9.507,2.566 9.731 C 2.579 10.104,2.593 10.167,2.724 10.442 C 2.803 10.608,3.042 11.026,3.255 11.372 L 3.643 12.000 3.255 12.628 C 3.042 12.974,2.803 13.392,2.724 13.558 C 2.590 13.840,2.579 13.890,2.567 14.308 C 2.547 14.969,2.689 15.375,3.097 15.827 C 3.338 16.094,3.581 16.229,4.460 16.583 C 4.878 16.751,5.225 16.893,5.232 16.899 C 5.238 16.905,5.262 17.196,5.284 17.545 C 5.363 18.788,5.500 19.243,5.929 19.685 C 6.489 20.262,7.130 20.460,7.924 20.303 C 8.194 20.250,9.061 20.030,9.363 19.938 C 9.407 19.925,9.560 20.081,9.855 20.439 C 10.677 21.437,10.913 21.628,11.519 21.783 C 12.065 21.923,12.770 21.781,13.217 21.441 C 13.349 21.342,13.700 20.978,13.998 20.633 C 14.296 20.287,14.551 19.995,14.564 19.982 C 14.577 19.969,14.919 20.041,15.324 20.141 C 16.783 20.502,17.315 20.416,18.023 19.705 C 18.524 19.201,18.597 18.981,18.699 17.679 C 18.732 17.255,18.764 16.903,18.770 16.897 C 18.775 16.892,19.104 16.758,19.500 16.600 C 20.401 16.241,20.558 16.156,20.844 15.869 C 21.256 15.458,21.518 14.761,21.467 14.214 C 21.434 13.867,21.282 13.526,20.805 12.733 C 20.582 12.362,20.400 12.032,20.400 12.000 C 20.400 11.968,20.580 11.642,20.799 11.277 C 21.491 10.126,21.576 9.827,21.401 9.144 C 21.236 8.499,20.863 8.023,20.307 7.750 C 20.140 7.667,19.723 7.490,19.381 7.357 C 19.039 7.223,18.760 7.102,18.760 7.087 C 18.760 6.896,18.628 5.485,18.595 5.320 C 18.466 4.686,18.033 4.145,17.420 3.855 C 16.866 3.593,16.459 3.598,15.285 3.882 C 14.925 3.969,14.618 4.040,14.602 4.040 C 14.586 4.040,14.386 3.820,14.157 3.550 C 13.570 2.860,13.258 2.560,12.971 2.408 C 12.543 2.182,12.001 2.110,11.520 2.215 M12.503 4.710 C 13.266 5.601,13.539 5.819,14.100 5.980 C 14.492 6.093,14.823 6.050,16.544 5.661 C 16.624 5.642,16.629 5.665,16.678 6.291 C 16.777 7.571,16.865 7.902,17.210 8.312 C 17.532 8.695,17.759 8.838,18.622 9.203 C 19.054 9.386,19.417 9.557,19.427 9.584 C 19.438 9.612,19.285 9.901,19.088 10.227 C 18.441 11.297,18.335 11.575,18.372 12.101 C 18.403 12.538,18.523 12.837,18.952 13.549 C 19.427 14.336,19.456 14.393,19.401 14.459 C 19.376 14.489,19.164 14.589,18.928 14.682 C 18.098 15.011,17.690 15.232,17.394 15.511 C 16.911 15.967,16.775 16.368,16.680 17.620 C 16.657 17.928,16.628 18.212,16.616 18.250 C 16.586 18.349,16.487 18.340,15.776 18.178 C 14.936 17.987,14.590 17.947,14.253 18.001 C 13.672 18.094,13.256 18.405,12.458 19.344 C 12.170 19.682,12.019 19.830,11.978 19.814 C 11.945 19.801,11.732 19.572,11.503 19.305 C 10.513 18.148,10.195 17.967,9.232 18.010 C 8.900 18.025,8.623 18.070,8.185 18.178 C 7.858 18.258,7.543 18.319,7.485 18.312 C 7.366 18.298,7.363 18.285,7.282 17.280 C 7.232 16.652,7.159 16.309,7.016 16.024 C 6.761 15.518,6.441 15.277,5.410 14.816 C 5.043 14.652,4.702 14.491,4.651 14.458 C 4.540 14.385,4.510 14.454,5.045 13.555 C 5.540 12.724,5.609 12.540,5.615 12.040 C 5.622 11.493,5.532 11.245,5.021 10.398 C 4.790 10.015,4.600 9.671,4.600 9.635 C 4.600 9.535,4.655 9.504,5.378 9.202 C 6.205 8.857,6.346 8.775,6.645 8.471 C 6.946 8.166,7.061 7.969,7.157 7.591 C 7.222 7.339,7.360 6.082,7.360 5.748 L 7.360 5.649 7.630 5.702 C 7.779 5.731,8.143 5.809,8.440 5.876 C 9.383 6.088,9.757 6.081,10.272 5.840 C 10.576 5.698,10.907 5.390,11.530 4.670 C 11.772 4.389,11.984 4.160,12.001 4.160 C 12.018 4.160,12.244 4.407,12.503 4.710 M8.718 8.974 C 8.354 9.073,8.088 9.371,7.997 9.778 C 7.907 10.179,8.129 10.644,8.509 10.850 C 8.781 10.998,9.012 11.026,9.296 10.943 C 9.559 10.867,9.803 10.667,9.932 10.423 C 9.998 10.299,10.018 10.189,10.019 9.960 C 10.020 9.703,10.004 9.633,9.909 9.471 C 9.679 9.079,9.145 8.856,8.718 8.974 M13.769 9.038 C 13.537 9.095,13.321 9.281,12.185 10.400 C 10.521 12.040,9.166 13.459,9.077 13.654 C 8.921 13.997,9.009 14.406,9.301 14.699 C 9.593 14.990,10.003 15.079,10.344 14.924 C 10.550 14.830,12.190 13.250,13.765 11.628 C 14.788 10.574,14.912 10.432,14.954 10.268 C 15.051 9.883,14.976 9.582,14.721 9.328 C 14.475 9.081,14.081 8.961,13.769 9.038 M14.687 13.080 C 14.145 13.310,13.886 13.900,14.107 14.400 C 14.277 14.783,14.583 14.978,15.020 14.979 C 15.255 14.980,15.330 14.962,15.489 14.869 C 15.694 14.749,15.879 14.510,15.959 14.264 C 16.086 13.874,15.862 13.355,15.483 13.161 C 15.310 13.073,14.821 13.023,14.687 13.080 " fill="#1A1C1F" stroke="none" fill-rule="evenodd"></path></svg>