<svg width="16" height="16" viewBox="0 0 16 16" fill="none" xmlns="http://www.w3.org/2000/svg"><path d="M7.493 1.476 C 7.115 1.611,6.991 1.701,6.603 2.131 C 6.429 2.324,6.263 2.494,6.236 2.509 C 6.199 2.529,6.094 2.513,5.833 2.448 C 5.511 2.368,5.445 2.360,5.080 2.361 C 4.615 2.361,4.511 2.391,4.173 2.617 C 3.928 2.781,3.734 2.997,3.612 3.240 C 3.530 3.405,3.510 3.490,3.439 3.972 C 3.395 4.271,3.352 4.543,3.344 4.575 C 3.328 4.640,3.314 4.647,2.880 4.827 C 2.464 4.999,2.283 5.111,2.093 5.311 C 1.893 5.520,1.782 5.695,1.704 5.920 C 1.654 6.065,1.644 6.151,1.644 6.440 C 1.643 6.760,1.649 6.801,1.719 6.973 C 1.761 7.076,1.895 7.341,2.018 7.562 C 2.140 7.782,2.240 7.981,2.240 8.003 C 2.240 8.025,2.136 8.211,2.008 8.415 C 1.864 8.646,1.748 8.869,1.701 9.005 C 1.556 9.423,1.579 9.825,1.771 10.222 C 1.977 10.648,2.257 10.885,2.883 11.161 C 3.077 11.247,3.263 11.342,3.296 11.372 C 3.349 11.421,3.360 11.476,3.399 11.880 C 3.468 12.579,3.566 12.822,3.925 13.179 C 4.075 13.328,4.184 13.409,4.326 13.477 C 4.746 13.679,5.043 13.700,5.653 13.572 C 6.293 13.437,6.177 13.403,6.556 13.836 C 7.010 14.357,7.197 14.483,7.657 14.576 C 8.082 14.662,8.590 14.565,8.898 14.338 C 8.983 14.275,9.218 14.050,9.420 13.839 L 9.787 13.455 10.140 13.541 C 10.641 13.661,10.836 13.689,11.051 13.671 C 11.491 13.634,11.935 13.386,12.204 13.029 C 12.446 12.708,12.519 12.495,12.587 11.925 C 12.616 11.680,12.640 11.468,12.640 11.453 C 12.642 11.388,12.707 11.349,13.087 11.190 C 13.573 10.986,13.706 10.904,13.927 10.670 C 14.209 10.370,14.334 10.081,14.364 9.655 C 14.392 9.264,14.314 9.023,13.963 8.400 C 13.852 8.202,13.760 8.021,13.760 7.997 C 13.760 7.973,13.864 7.787,13.992 7.584 C 14.302 7.088,14.383 6.861,14.385 6.480 C 14.386 6.131,14.314 5.889,14.127 5.608 C 13.885 5.247,13.591 5.041,12.912 4.758 C 12.731 4.682,12.662 4.640,12.654 4.601 C 12.648 4.571,12.624 4.361,12.601 4.133 C 12.530 3.430,12.433 3.178,12.108 2.851 C 11.898 2.640,11.673 2.497,11.413 2.410 C 11.176 2.331,10.746 2.345,10.251 2.449 C 10.030 2.495,9.826 2.532,9.798 2.531 C 9.766 2.530,9.635 2.396,9.453 2.179 C 9.140 1.805,8.994 1.678,8.736 1.552 C 8.513 1.444,8.344 1.413,7.979 1.414 C 7.722 1.414,7.636 1.425,7.493 1.476 M8.273 3.260 C 9.006 4.143,9.429 4.298,10.480 4.067 C 10.713 4.015,10.915 3.973,10.929 3.973 C 10.943 3.973,10.963 4.048,10.972 4.140 C 11.076 5.118,11.121 5.296,11.332 5.576 C 11.569 5.890,11.866 6.088,12.444 6.318 C 12.564 6.365,12.684 6.420,12.711 6.440 C 12.757 6.474,12.757 6.478,12.711 6.577 C 12.684 6.634,12.592 6.794,12.506 6.933 C 12.159 7.497,12.076 7.791,12.132 8.247 C 12.164 8.500,12.255 8.707,12.557 9.211 C 12.661 9.386,12.747 9.544,12.747 9.562 C 12.747 9.580,12.545 9.680,12.299 9.784 C 12.053 9.888,11.792 10.014,11.719 10.064 C 11.502 10.210,11.282 10.467,11.171 10.707 C 11.054 10.960,11.023 11.093,10.987 11.513 C 10.942 12.038,10.938 12.053,10.871 12.053 C 10.839 12.053,10.662 12.016,10.479 11.971 C 9.915 11.832,9.398 11.838,9.068 11.989 C 8.839 12.093,8.659 12.249,8.347 12.613 C 8.188 12.798,8.040 12.965,8.018 12.983 C 7.985 13.010,7.931 12.961,7.680 12.674 C 7.254 12.187,7.062 12.034,6.731 11.919 C 6.404 11.805,6.019 11.825,5.262 11.997 L 5.044 12.047 5.027 11.870 C 4.923 10.795,4.853 10.579,4.495 10.229 C 4.299 10.038,4.116 9.929,3.655 9.731 C 3.428 9.634,3.239 9.544,3.234 9.530 C 3.230 9.516,3.339 9.315,3.478 9.085 C 3.802 8.544,3.879 8.328,3.879 7.960 C 3.879 7.581,3.820 7.422,3.443 6.789 C 3.339 6.614,3.253 6.457,3.253 6.440 C 3.253 6.404,3.298 6.382,3.667 6.235 C 4.143 6.045,4.324 5.936,4.542 5.708 C 4.865 5.370,4.950 5.130,5.026 4.349 C 5.048 4.123,5.070 3.934,5.076 3.929 C 5.081 3.923,5.306 3.974,5.576 4.041 C 6.025 4.154,6.086 4.163,6.293 4.149 C 6.739 4.120,7.059 3.993,7.320 3.741 C 7.409 3.656,7.605 3.452,7.756 3.287 C 7.907 3.122,8.034 2.987,8.038 2.987 C 8.042 2.987,8.148 3.110,8.273 3.260 M6.229 5.631 C 6.061 5.656,5.854 5.797,5.741 5.966 C 5.469 6.370,5.643 6.947,6.094 7.135 C 6.244 7.198,6.573 7.194,6.724 7.127 C 7.190 6.921,7.336 6.268,7.003 5.875 C 6.854 5.699,6.509 5.590,6.229 5.631 M7.427 7.440 L 5.667 9.200 6.233 9.767 L 6.800 10.333 8.567 8.567 L 10.333 6.800 9.773 6.240 C 9.466 5.932,9.208 5.680,9.200 5.680 C 9.193 5.680,8.395 6.472,7.427 7.440 M9.262 8.877 C 9.115 8.946,8.959 9.105,8.880 9.268 C 8.785 9.461,8.788 9.748,8.885 9.934 C 8.967 10.091,9.161 10.280,9.302 10.339 C 9.432 10.393,9.769 10.393,9.899 10.338 C 10.041 10.279,10.266 10.060,10.328 9.921 C 10.396 9.767,10.401 9.446,10.336 9.293 C 10.280 9.161,10.131 9.005,9.975 8.912 C 9.812 8.816,9.432 8.797,9.262 8.877 " fill="#1A1C1F" stroke="none" fill-rule="evenodd"></path></svg>