<svg width="12" height="12" viewBox="0 0 12 12" fill="none" xmlns="http://www.w3.org/2000/svg"><path d="M5.654 1.089 C 5.391 1.164,5.229 1.283,4.931 1.616 C 4.814 1.747,4.695 1.865,4.667 1.878 C 4.624 1.897,4.576 1.891,4.373 1.836 C 4.148 1.776,4.107 1.771,3.820 1.771 C 3.545 1.771,3.497 1.776,3.397 1.816 C 3.071 1.947,2.773 2.237,2.660 2.536 C 2.639 2.592,2.598 2.811,2.570 3.024 C 2.542 3.236,2.514 3.424,2.509 3.442 C 2.498 3.478,2.477 3.489,2.160 3.620 C 1.838 3.754,1.706 3.837,1.547 4.006 C 1.335 4.234,1.252 4.429,1.227 4.760 C 1.206 5.054,1.261 5.226,1.528 5.700 C 1.611 5.849,1.680 5.985,1.680 6.003 C 1.680 6.022,1.602 6.161,1.506 6.313 C 1.224 6.762,1.153 7.051,1.237 7.405 C 1.300 7.666,1.377 7.802,1.578 8.002 C 1.758 8.183,1.793 8.204,2.361 8.465 L 2.512 8.534 2.549 8.898 C 2.604 9.446,2.691 9.656,2.975 9.921 C 3.130 10.066,3.323 10.166,3.541 10.212 C 3.739 10.254,3.986 10.239,4.360 10.161 C 4.519 10.128,4.656 10.100,4.663 10.100 C 4.670 10.100,4.768 10.209,4.882 10.342 C 5.137 10.641,5.274 10.765,5.435 10.842 C 5.786 11.010,6.275 10.995,6.597 10.807 C 6.692 10.751,6.982 10.473,7.203 10.225 L 7.332 10.080 7.471 10.121 C 8.100 10.303,8.446 10.294,8.798 10.086 C 8.990 9.972,9.184 9.767,9.278 9.579 C 9.370 9.396,9.408 9.235,9.451 8.860 C 9.467 8.711,9.485 8.576,9.491 8.558 C 9.502 8.522,9.529 8.508,9.810 8.396 C 10.149 8.261,10.264 8.191,10.429 8.019 C 10.679 7.757,10.769 7.529,10.768 7.160 C 10.767 6.844,10.719 6.717,10.405 6.185 L 10.296 6.001 10.448 5.761 C 10.710 5.348,10.772 5.200,10.792 4.940 C 10.818 4.609,10.683 4.267,10.424 4.003 C 10.294 3.871,10.236 3.830,10.050 3.736 C 9.929 3.676,9.760 3.596,9.673 3.559 C 9.587 3.522,9.509 3.478,9.500 3.461 C 9.491 3.444,9.470 3.290,9.452 3.118 C 9.413 2.740,9.383 2.618,9.280 2.408 C 9.219 2.282,9.169 2.216,9.061 2.113 C 8.696 1.769,8.381 1.708,7.675 1.843 L 7.333 1.909 7.232 1.791 C 6.916 1.426,6.835 1.343,6.709 1.256 C 6.477 1.098,6.397 1.075,6.050 1.068 C 5.837 1.063,5.722 1.069,5.654 1.089 M4.800 4.023 C 4.909 4.070,5.028 4.182,5.086 4.290 C 5.150 4.410,5.148 4.695,5.083 4.820 C 4.947 5.083,4.663 5.210,4.390 5.131 C 4.295 5.103,4.250 5.074,4.148 4.972 C 4.000 4.824,3.973 4.748,3.983 4.509 C 3.989 4.370,3.999 4.333,4.050 4.250 C 4.121 4.134,4.270 4.022,4.398 3.987 C 4.512 3.956,4.679 3.971,4.800 4.023 M7.640 4.390 L 8.050 4.800 6.425 6.425 L 4.800 8.050 4.381 7.630 L 3.961 7.210 5.466 5.696 C 6.873 4.279,7.178 3.980,7.215 3.980 C 7.224 3.980,7.415 4.165,7.640 4.390 M7.645 6.892 C 7.770 6.934,7.915 7.066,7.973 7.189 C 8.063 7.382,8.027 7.664,7.891 7.830 C 7.785 7.959,7.628 8.030,7.450 8.029 C 7.373 8.029,7.275 8.017,7.232 8.002 C 7.122 7.964,6.987 7.832,6.918 7.696 C 6.813 7.489,6.847 7.228,7.002 7.053 C 7.115 6.924,7.254 6.860,7.420 6.860 C 7.493 6.860,7.594 6.874,7.645 6.892 " fill="#1A1C1F" stroke="none" fill-rule="evenodd"></path></svg>