<svg width="16" height="16" viewBox="0 0 16 16" fill="none" xmlns="http://www.w3.org/2000/svg"><path d="M7.490 1.464 C 7.171 1.566,6.860 1.817,6.397 2.345 L 6.223 2.544 5.852 2.452 C 5.510 2.367,5.448 2.360,5.080 2.361 C 4.629 2.361,4.522 2.389,4.219 2.585 C 3.991 2.732,3.862 2.856,3.722 3.061 C 3.550 3.314,3.502 3.477,3.429 4.055 C 3.382 4.431,3.354 4.576,3.320 4.614 C 3.295 4.641,3.182 4.702,3.070 4.748 C 2.492 4.986,2.333 5.075,2.110 5.289 C 1.922 5.469,1.772 5.701,1.704 5.918 C 1.660 6.056,1.648 6.165,1.647 6.427 C 1.645 6.846,1.678 6.948,2.002 7.532 C 2.133 7.769,2.240 7.982,2.240 8.007 C 2.240 8.032,2.165 8.169,2.072 8.313 C 1.818 8.708,1.768 8.802,1.694 9.024 C 1.501 9.598,1.626 10.155,2.051 10.617 C 2.288 10.874,2.451 10.982,2.860 11.153 C 3.040 11.228,3.218 11.311,3.257 11.338 C 3.339 11.394,3.375 11.524,3.400 11.853 C 3.441 12.378,3.505 12.612,3.685 12.898 C 3.901 13.241,4.283 13.513,4.693 13.616 C 4.917 13.673,5.283 13.655,5.720 13.565 C 6.295 13.447,6.190 13.417,6.515 13.794 C 7.055 14.422,7.315 14.578,7.867 14.605 C 8.203 14.621,8.466 14.574,8.715 14.451 C 8.890 14.365,9.241 14.042,9.603 13.634 L 9.773 13.442 10.067 13.521 C 10.434 13.620,10.769 13.680,10.961 13.680 C 11.314 13.680,11.705 13.509,12.015 13.220 C 12.416 12.846,12.508 12.609,12.615 11.685 C 12.632 11.534,12.662 11.395,12.681 11.376 C 12.701 11.356,12.846 11.289,13.005 11.226 C 13.511 11.026,13.683 10.924,13.899 10.698 C 14.244 10.336,14.360 10.047,14.358 9.547 C 14.357 9.269,14.349 9.219,14.272 9.016 C 14.225 8.893,14.085 8.613,13.960 8.395 L 13.732 7.998 13.942 7.659 C 14.188 7.263,14.255 7.136,14.324 6.936 C 14.443 6.590,14.404 6.176,14.215 5.771 C 14.025 5.364,13.687 5.083,13.080 4.826 C 12.933 4.763,12.782 4.690,12.743 4.663 C 12.656 4.603,12.627 4.483,12.586 4.033 C 12.549 3.624,12.507 3.461,12.370 3.197 C 12.089 2.657,11.432 2.301,10.827 2.362 C 10.731 2.371,10.469 2.414,10.244 2.456 C 10.019 2.499,9.819 2.533,9.798 2.533 C 9.778 2.533,9.634 2.384,9.479 2.202 C 9.055 1.704,8.784 1.506,8.441 1.442 C 8.189 1.396,7.666 1.408,7.490 1.464 M6.399 5.364 C 6.688 5.489,6.813 5.680,6.843 6.044 C 6.859 6.239,6.854 6.275,6.798 6.391 C 6.697 6.601,6.510 6.763,6.291 6.829 C 5.980 6.924,5.727 6.851,5.499 6.601 C 5.348 6.435,5.306 6.317,5.307 6.050 C 5.308 5.826,5.356 5.694,5.494 5.537 C 5.700 5.302,6.084 5.229,6.399 5.364 M10.187 5.853 L 10.733 6.400 8.567 8.567 L 6.400 10.733 5.841 10.173 L 5.282 9.613 7.288 7.594 C 9.164 5.706,9.571 5.307,9.621 5.307 C 9.632 5.307,9.886 5.553,10.187 5.853 M10.267 9.225 C 10.557 9.372,10.672 9.559,10.686 9.907 C 10.696 10.138,10.693 10.152,10.606 10.307 C 10.459 10.567,10.198 10.720,9.903 10.720 C 9.510 10.720,9.146 10.346,9.147 9.943 C 9.147 9.597,9.272 9.373,9.547 9.231 C 9.710 9.147,9.732 9.142,9.933 9.153 C 10.085 9.161,10.181 9.182,10.267 9.225 " fill="#1A1C1F" stroke="none" fill-rule="evenodd"></path></svg>