<svg width="32" height="32" viewBox="0 0 32 32" fill="none" xmlns="http://www.w3.org/2000/svg"><path d="M15.102 2.541 C 14.778 2.659,14.301 3.125,13.370 4.232 C 12.930 4.755,12.516 5.208,12.450 5.238 C 12.356 5.281,12.060 5.223,11.059 4.969 C 9.477 4.566,9.218 4.524,8.789 4.593 C 8.369 4.660,7.800 4.957,7.494 5.267 C 7.029 5.739,6.934 6.128,6.802 8.105 C 6.756 8.793,6.700 9.372,6.679 9.390 C 6.658 9.408,5.992 9.679,5.200 9.992 C 3.684 10.591,3.383 10.758,3.087 11.161 C 2.767 11.594,2.700 11.812,2.701 12.410 C 2.703 13.059,2.751 13.176,3.526 14.400 C 4.138 15.366,4.480 15.937,4.480 15.992 C 4.480 16.016,4.224 16.441,3.912 16.937 C 2.701 18.863,2.631 19.017,2.684 19.646 C 2.726 20.142,2.831 20.433,3.095 20.782 C 3.460 21.265,3.746 21.432,5.185 21.996 C 5.910 22.281,6.553 22.554,6.614 22.603 C 6.715 22.685,6.732 22.795,6.803 23.840 C 6.926 25.648,7.017 26.093,7.357 26.543 C 7.756 27.071,8.249 27.333,8.960 27.396 C 9.358 27.431,9.620 27.382,11.138 26.988 C 11.705 26.840,12.249 26.720,12.347 26.720 C 12.513 26.720,12.588 26.795,13.472 27.847 C 13.993 28.466,14.535 29.064,14.675 29.175 C 15.050 29.471,15.390 29.571,16.027 29.572 C 16.493 29.573,16.598 29.555,16.863 29.431 C 17.276 29.238,17.522 28.999,18.598 27.747 C 19.108 27.153,19.548 26.667,19.575 26.667 C 19.602 26.667,20.284 26.835,21.090 27.040 C 22.664 27.441,22.939 27.475,23.495 27.332 C 24.053 27.188,24.667 26.662,24.885 26.141 C 25.012 25.835,25.110 25.121,25.200 23.843 C 25.246 23.184,25.289 22.641,25.295 22.636 C 25.377 22.571,25.897 22.353,26.943 21.945 C 28.327 21.406,28.488 21.309,28.884 20.784 C 29.257 20.291,29.300 20.161,29.301 19.539 C 29.301 19.022,29.293 18.979,29.106 18.605 C 28.999 18.390,28.589 17.721,28.195 17.120 L 27.479 16.027 27.561 15.867 C 27.606 15.779,27.953 15.220,28.332 14.624 C 28.711 14.029,29.080 13.414,29.152 13.256 C 29.493 12.512,29.312 11.550,28.721 10.958 C 28.424 10.661,28.039 10.471,26.560 9.893 C 25.900 9.635,25.342 9.408,25.321 9.390 C 25.300 9.372,25.244 8.793,25.198 8.105 C 25.066 6.120,24.972 5.740,24.499 5.259 C 24.055 4.810,23.190 4.487,22.643 4.567 C 22.524 4.584,21.863 4.737,21.173 4.907 C 20.484 5.076,19.831 5.228,19.722 5.244 L 19.524 5.273 18.728 4.330 C 17.783 3.211,17.328 2.762,16.978 2.604 C 16.633 2.448,15.465 2.409,15.102 2.541 M16.939 5.333 C 17.854 6.420,18.315 6.882,18.649 7.046 C 18.880 7.160,18.977 7.173,19.600 7.173 C 20.259 7.173,20.349 7.159,21.427 6.890 C 22.051 6.734,22.662 6.602,22.785 6.597 C 23.006 6.587,23.008 6.589,23.044 6.800 C 23.064 6.917,23.108 7.445,23.142 7.973 C 23.249 9.670,23.323 10.027,23.665 10.523 C 23.956 10.944,24.248 11.110,25.750 11.704 C 26.533 12.014,27.208 12.289,27.250 12.316 C 27.352 12.382,27.164 12.741,26.443 13.853 C 26.144 14.315,25.806 14.873,25.692 15.092 C 25.487 15.485,25.484 15.497,25.502 15.998 C 25.525 16.633,25.575 16.746,26.466 18.166 C 27.310 19.512,27.337 19.566,27.245 19.657 C 27.205 19.696,26.669 19.922,26.053 20.160 C 24.675 20.692,24.229 20.908,23.893 21.210 C 23.385 21.667,23.250 22.153,23.150 23.893 C 23.076 25.164,23.047 25.387,22.953 25.424 C 22.912 25.439,22.318 25.317,21.633 25.152 C 19.753 24.699,19.203 24.650,18.724 24.888 C 18.326 25.086,17.891 25.511,16.933 26.640 C 16.476 27.177,16.068 27.630,16.026 27.646 C 15.975 27.666,15.658 27.335,15.074 26.651 C 14.059 25.465,13.668 25.071,13.333 24.898 C 13.123 24.789,13.020 24.774,12.507 24.776 C 11.981 24.779,11.792 24.811,10.693 25.079 C 9.049 25.481,9.089 25.474,9.018 25.341 C 8.985 25.281,8.923 24.721,8.879 24.096 C 8.742 22.160,8.656 21.801,8.209 21.312 C 7.893 20.966,7.543 20.787,5.964 20.162 C 5.358 19.921,4.822 19.680,4.772 19.625 C 4.670 19.512,4.633 19.581,5.722 17.853 C 6.392 16.791,6.507 16.517,6.507 15.978 C 6.507 15.364,6.458 15.265,5.160 13.228 C 4.678 12.471,4.642 12.397,4.728 12.334 C 4.779 12.297,5.369 12.050,6.037 11.787 C 7.556 11.189,7.819 11.056,8.151 10.719 C 8.681 10.180,8.710 10.054,8.907 7.454 C 8.938 7.051,8.977 6.685,8.994 6.641 C 9.043 6.513,9.245 6.541,10.499 6.849 C 12.413 7.320,12.679 7.335,13.355 7.020 C 13.751 6.835,13.985 6.610,14.872 5.558 C 15.310 5.038,15.747 4.534,15.843 4.437 C 16.051 4.228,15.917 4.119,16.939 5.333 M19.707 11.143 C 19.513 11.222,17.761 12.893,13.569 16.993 C 11.447 19.070,11.079 19.470,11.016 19.769 C 10.892 20.354,11.506 20.926,12.162 20.838 C 12.331 20.816,12.460 20.735,12.762 20.465 C 13.547 19.762,16.257 17.130,18.541 14.853 C 21.129 12.274,21.105 12.303,20.965 11.837 C 20.813 11.329,20.149 10.963,19.707 11.143 M11.794 11.229 C 11.322 11.434,10.778 11.989,10.662 12.385 C 10.634 12.481,10.609 12.779,10.607 13.047 C 10.604 13.429,10.627 13.588,10.713 13.782 C 10.865 14.126,11.367 14.636,11.728 14.813 C 11.997 14.946,12.080 14.959,12.569 14.955 C 13.040 14.951,13.149 14.932,13.398 14.810 C 14.004 14.513,14.471 13.852,14.540 13.191 C 14.624 12.383,14.059 11.497,13.283 11.219 C 13.015 11.123,12.022 11.130,11.794 11.229 M19.375 17.034 C 19.014 17.152,18.700 17.362,18.412 17.677 C 18.069 18.052,17.950 18.385,17.952 18.965 C 17.953 19.327,17.977 19.446,18.099 19.697 C 18.602 20.724,19.821 21.129,20.853 20.612 C 21.160 20.458,21.628 19.965,21.768 19.647 C 21.893 19.366,21.919 18.684,21.819 18.315 C 21.685 17.818,21.157 17.295,20.586 17.093 C 20.248 16.974,19.648 16.944,19.375 17.034 " fill="#1A1C1F" stroke="none" fill-rule="evenodd"></path></svg>