<svg width="28" height="28" viewBox="0 0 28 28" fill="none" xmlns="http://www.w3.org/2000/svg"><path d="M13.215 2.223 C 12.930 2.327,12.512 2.735,11.699 3.703 C 11.314 4.161,10.952 4.557,10.894 4.583 C 10.812 4.620,10.530 4.564,9.566 4.319 C 8.568 4.065,8.274 4.008,7.979 4.008 C 7.338 4.010,6.821 4.265,6.406 4.783 C 6.136 5.122,6.058 5.491,5.975 6.837 C 5.949 7.247,5.916 7.723,5.900 7.894 L 5.871 8.206 5.642 8.304 C 5.515 8.359,5.081 8.530,4.678 8.685 C 3.178 9.259,2.782 9.510,2.523 10.051 C 2.360 10.394,2.314 10.738,2.376 11.171 C 2.426 11.528,2.534 11.734,3.289 12.927 C 3.525 13.299,3.766 13.691,3.825 13.797 L 3.932 13.991 3.754 14.287 C 3.656 14.450,3.373 14.898,3.124 15.283 C 2.550 16.172,2.442 16.389,2.378 16.783 C 2.272 17.439,2.431 17.921,2.911 18.407 C 3.230 18.729,3.308 18.770,4.365 19.179 C 5.553 19.638,5.759 19.732,5.829 19.844 C 5.874 19.915,5.915 20.255,5.957 20.883 C 6.058 22.431,6.141 22.833,6.437 23.225 C 6.646 23.501,7.003 23.775,7.280 23.873 C 7.396 23.914,7.658 23.958,7.863 23.971 C 8.207 23.993,8.327 23.972,9.378 23.707 C 10.006 23.549,10.609 23.403,10.718 23.383 L 10.917 23.346 11.513 24.049 C 12.859 25.634,12.919 25.688,13.488 25.834 C 13.865 25.931,14.333 25.902,14.723 25.758 C 15.063 25.633,15.466 25.242,16.441 24.091 C 16.978 23.459,17.102 23.336,17.187 23.355 C 17.244 23.367,17.843 23.515,18.518 23.682 C 19.320 23.881,19.839 23.986,20.012 23.986 C 20.568 23.983,20.983 23.813,21.372 23.430 C 21.863 22.945,21.899 22.792,22.073 20.487 C 22.116 19.919,22.131 19.849,22.225 19.777 C 22.318 19.705,23.236 19.327,24.355 18.898 C 24.686 18.771,24.794 18.701,25.047 18.448 C 25.553 17.942,25.749 17.354,25.620 16.729 C 25.545 16.364,25.483 16.248,24.781 15.143 C 24.454 14.630,24.155 14.147,24.116 14.070 L 24.046 13.930 24.672 12.973 C 25.399 11.864,25.502 11.676,25.603 11.281 C 25.711 10.860,25.665 10.470,25.456 10.048 C 25.152 9.431,24.853 9.259,22.587 8.399 C 22.369 8.316,22.175 8.235,22.157 8.219 C 22.138 8.202,22.101 7.885,22.074 7.513 C 21.904 5.185,21.872 5.040,21.412 4.583 C 20.977 4.151,20.299 3.919,19.739 4.010 C 19.598 4.033,18.983 4.179,18.372 4.336 C 17.761 4.492,17.229 4.620,17.189 4.620 C 17.101 4.620,16.972 4.483,16.195 3.570 C 15.506 2.760,15.173 2.434,14.883 2.283 C 14.702 2.188,14.599 2.173,14.047 2.162 C 13.562 2.152,13.370 2.166,13.215 2.223 M14.721 4.555 C 15.917 5.962,16.058 6.088,16.629 6.261 C 17.025 6.382,17.252 6.364,18.223 6.134 C 19.585 5.812,20.066 5.720,20.117 5.772 C 20.144 5.798,20.186 6.112,20.210 6.469 C 20.347 8.479,20.384 8.690,20.682 9.158 C 20.946 9.573,21.227 9.736,22.540 10.241 C 23.573 10.638,23.893 10.780,23.893 10.841 C 23.893 10.916,23.642 11.343,23.141 12.119 C 22.323 13.385,22.192 13.716,22.302 14.246 C 22.378 14.613,22.526 14.902,23.117 15.830 C 23.835 16.958,23.920 17.120,23.841 17.198 C 23.806 17.233,23.336 17.432,22.797 17.640 C 21.590 18.105,21.201 18.295,20.906 18.559 C 20.469 18.953,20.345 19.385,20.257 20.837 C 20.191 21.922,20.163 22.153,20.088 22.215 C 20.043 22.253,19.840 22.222,19.312 22.097 C 17.793 21.738,17.602 21.701,17.141 21.671 C 16.685 21.641,16.654 21.645,16.402 21.769 C 16.040 21.946,15.667 22.309,14.816 23.310 C 14.417 23.780,14.060 24.176,14.023 24.190 C 13.978 24.207,13.701 23.918,13.189 23.320 C 12.302 22.282,11.959 21.937,11.667 21.785 C 11.483 21.690,11.393 21.677,10.943 21.679 C 10.483 21.682,10.318 21.709,9.357 21.944 C 7.917 22.296,7.953 22.290,7.890 22.174 C 7.862 22.121,7.808 21.631,7.769 21.084 C 7.649 19.390,7.574 19.076,7.183 18.648 C 6.905 18.344,6.591 18.183,5.219 17.641 C 4.689 17.431,4.219 17.220,4.175 17.172 C 4.088 17.075,4.076 17.095,5.125 15.433 C 5.624 14.642,5.706 14.418,5.686 13.907 C 5.666 13.410,5.632 13.338,4.736 11.924 C 4.147 10.994,4.066 10.844,4.130 10.797 C 4.171 10.768,4.691 10.550,5.287 10.313 C 6.880 9.679,7.103 9.550,7.357 9.115 C 7.617 8.672,7.657 8.430,7.790 6.469 C 7.814 6.112,7.856 5.798,7.883 5.772 C 7.935 5.720,8.464 5.822,9.800 6.142 C 10.978 6.425,11.486 6.372,12.056 5.907 C 12.188 5.799,12.586 5.367,12.939 4.945 C 13.292 4.524,13.680 4.077,13.800 3.951 L 14.019 3.723 14.115 3.838 C 14.167 3.902,14.440 4.224,14.721 4.555 M10.561 9.753 C 10.182 9.833,9.760 10.138,9.495 10.523 C 9.311 10.791,9.310 10.792,9.294 11.316 C 9.279 11.768,9.290 11.872,9.373 12.059 C 9.507 12.360,9.945 12.806,10.262 12.962 C 10.498 13.077,10.570 13.090,10.998 13.086 C 11.412 13.082,11.505 13.065,11.726 12.957 C 12.243 12.704,12.677 12.085,12.727 11.529 C 12.777 10.979,12.457 10.318,12.003 10.029 C 11.616 9.784,10.987 9.663,10.561 9.753 M17.195 9.800 C 17.092 9.851,16.651 10.233,16.215 10.649 C 14.474 12.312,10.097 16.606,9.891 16.853 C 9.642 17.153,9.582 17.362,9.665 17.639 C 9.783 18.033,10.202 18.287,10.634 18.228 C 10.801 18.205,10.901 18.145,11.171 17.903 C 11.826 17.317,14.292 14.921,16.269 12.950 C 18.483 10.744,18.467 10.764,18.345 10.357 C 18.242 10.013,17.834 9.708,17.477 9.707 C 17.425 9.707,17.299 9.749,17.195 9.800 M17.057 14.884 C 16.616 14.960,16.054 15.408,15.833 15.859 C 15.724 16.083,15.706 16.178,15.705 16.541 C 15.704 16.916,15.719 16.995,15.841 17.243 C 16.551 18.690,18.674 18.511,19.113 16.967 C 19.214 16.610,19.182 16.238,19.019 15.881 C 18.804 15.410,18.295 14.982,17.871 14.916 C 17.538 14.865,17.237 14.853,17.057 14.884 " fill="#1A1C1F" stroke="none" fill-rule="evenodd"></path></svg>