<svg width="20" height="20" viewBox="0 0 20 20" fill="none" xmlns="http://www.w3.org/2000/svg"><path d="M9.679 1.768 C 9.163 1.832,8.904 1.996,8.250 2.675 L 7.766 3.177 7.341 3.071 C 6.744 2.924,6.113 2.892,5.780 2.994 C 5.465 3.090,5.164 3.275,4.901 3.533 C 4.499 3.928,4.385 4.226,4.270 5.182 C 4.195 5.806,4.205 5.791,3.763 5.966 C 2.996 6.270,2.615 6.533,2.354 6.941 C 2.174 7.223,2.102 7.438,2.060 7.818 C 1.996 8.410,2.086 8.701,2.621 9.625 L 2.838 10.000 2.583 10.403 C 2.202 11.004,2.073 11.292,2.031 11.639 C 1.965 12.175,2.092 12.663,2.413 13.113 C 2.647 13.441,2.795 13.547,3.520 13.905 L 4.190 14.235 4.230 14.673 C 4.293 15.359,4.353 15.654,4.488 15.929 C 4.625 16.211,4.942 16.556,5.233 16.740 C 5.795 17.096,6.212 17.143,7.132 16.953 C 7.452 16.887,7.732 16.833,7.753 16.833 C 7.774 16.833,7.955 17.023,8.154 17.255 C 8.663 17.846,8.896 18.026,9.367 18.187 C 9.509 18.236,9.642 18.250,9.967 18.249 C 10.732 18.246,10.996 18.109,11.748 17.327 L 12.230 16.824 12.649 16.929 C 13.373 17.111,13.961 17.127,14.344 16.976 C 14.772 16.808,15.269 16.352,15.476 15.938 C 15.617 15.658,15.682 15.380,15.751 14.767 C 15.779 14.519,15.809 14.292,15.819 14.261 C 15.829 14.228,16.003 14.138,16.260 14.033 C 16.868 13.784,17.053 13.678,17.316 13.428 C 17.575 13.182,17.732 12.946,17.860 12.608 C 17.934 12.414,17.946 12.329,17.947 11.983 C 17.949 11.450,17.890 11.267,17.482 10.557 L 17.161 9.998 17.409 9.607 C 17.546 9.392,17.705 9.121,17.764 9.005 C 17.894 8.747,18.000 8.349,17.999 8.120 C 17.998 7.614,17.764 7.066,17.389 6.691 C 17.112 6.412,16.896 6.280,16.289 6.014 C 16.048 5.908,15.845 5.818,15.838 5.813 C 15.832 5.808,15.814 5.680,15.797 5.527 C 15.781 5.375,15.751 5.100,15.731 4.917 C 15.692 4.553,15.591 4.211,15.446 3.950 C 15.298 3.682,14.924 3.334,14.617 3.177 C 14.076 2.902,13.630 2.881,12.709 3.087 C 12.499 3.134,12.296 3.164,12.256 3.154 C 12.216 3.144,12.000 2.927,11.776 2.672 C 11.372 2.211,11.158 2.032,10.858 1.903 C 10.562 1.777,10.070 1.720,9.679 1.768 M10.351 4.087 C 10.708 4.510,11.039 4.828,11.248 4.951 C 11.724 5.230,12.242 5.274,13.012 5.102 C 13.648 4.960,13.658 4.959,13.683 5.000 C 13.696 5.020,13.727 5.257,13.753 5.527 C 13.834 6.361,13.913 6.636,14.176 6.984 C 14.443 7.337,14.742 7.552,15.283 7.781 C 15.850 8.020,15.933 8.062,15.933 8.115 C 15.933 8.144,15.821 8.354,15.684 8.583 C 15.273 9.270,15.194 9.462,15.151 9.883 C 15.101 10.363,15.220 10.718,15.696 11.514 C 15.941 11.924,15.963 11.980,15.892 12.011 C 15.869 12.020,15.622 12.125,15.344 12.243 C 15.066 12.360,14.763 12.505,14.670 12.564 C 14.429 12.719,14.117 13.068,13.985 13.330 C 13.834 13.629,13.778 13.865,13.735 14.367 C 13.678 15.046,13.674 15.067,13.589 15.067 C 13.548 15.067,13.328 15.019,13.099 14.961 C 12.723 14.864,12.634 14.854,12.167 14.852 L 11.650 14.850 11.367 14.989 C 11.011 15.164,10.764 15.377,10.329 15.881 L 9.986 16.278 9.769 16.031 C 9.650 15.895,9.402 15.632,9.218 15.447 C 8.834 15.060,8.553 14.898,8.143 14.828 C 7.851 14.778,7.329 14.825,6.800 14.950 C 6.437 15.035,6.300 15.051,6.299 15.008 C 6.296 14.890,6.193 13.981,6.166 13.830 C 6.066 13.280,5.844 12.920,5.415 12.615 C 5.232 12.483,4.937 12.333,4.245 12.017 C 4.088 11.946,4.044 11.911,4.059 11.870 C 4.070 11.841,4.212 11.592,4.374 11.317 C 4.819 10.562,4.935 10.112,4.820 9.593 C 4.755 9.299,4.629 9.030,4.304 8.486 C 4.174 8.267,4.067 8.070,4.067 8.047 C 4.067 8.025,4.183 7.958,4.325 7.900 C 4.890 7.668,5.205 7.522,5.347 7.428 C 5.574 7.278,5.870 6.941,6.010 6.674 C 6.160 6.389,6.210 6.165,6.283 5.451 C 6.312 5.158,6.341 4.915,6.346 4.910 C 6.351 4.905,6.534 4.944,6.752 4.998 C 7.620 5.209,7.921 5.240,8.265 5.150 C 8.779 5.017,9.083 4.801,9.619 4.188 C 9.837 3.938,10.023 3.733,10.033 3.733 C 10.043 3.733,10.186 3.893,10.351 4.087 M7.576 7.068 C 7.389 7.163,7.189 7.368,7.094 7.560 C 6.986 7.779,6.987 8.217,7.095 8.426 C 7.324 8.868,7.816 9.087,8.276 8.954 C 8.501 8.888,8.832 8.603,8.909 8.408 C 9.104 7.917,8.928 7.360,8.501 7.121 C 8.343 7.032,8.280 7.018,8.018 7.008 C 7.761 6.998,7.696 7.007,7.576 7.068 M9.283 9.300 L 7.084 11.500 7.792 12.208 L 8.500 12.917 10.708 10.708 L 12.916 8.500 12.217 7.800 C 11.832 7.415,11.510 7.100,11.500 7.100 C 11.491 7.100,10.493 8.090,9.283 9.300 M11.768 11.037 C 11.507 11.087,11.237 11.308,11.081 11.600 C 10.982 11.787,10.998 12.210,11.114 12.448 C 11.380 12.990,12.098 13.152,12.605 12.783 C 12.943 12.538,13.087 11.969,12.906 11.596 C 12.707 11.186,12.226 10.950,11.768 11.037 " fill="#1A1C1F" stroke="none" fill-rule="evenodd"></path></svg>