<svg width="12" height="12" viewBox="0 0 12 12" fill="none" xmlns="http://www.w3.org/2000/svg"><path d="M5.672 1.081 C 5.457 1.135,5.341 1.216,5.004 1.554 C 4.628 1.930,4.659 1.917,4.336 1.829 C 4.109 1.766,3.714 1.742,3.535 1.779 C 3.173 1.854,2.782 2.197,2.660 2.546 C 2.637 2.610,2.597 2.833,2.571 3.042 C 2.536 3.321,2.514 3.433,2.490 3.460 C 2.471 3.481,2.356 3.540,2.233 3.591 C 1.925 3.719,1.727 3.825,1.616 3.920 C 1.488 4.030,1.354 4.239,1.287 4.431 C 1.239 4.571,1.232 4.620,1.231 4.840 C 1.231 5.073,1.235 5.100,1.291 5.240 C 1.325 5.322,1.426 5.520,1.516 5.679 C 1.606 5.839,1.680 5.984,1.680 6.003 C 1.680 6.021,1.616 6.137,1.538 6.260 C 1.355 6.549,1.267 6.735,1.228 6.921 C 1.134 7.364,1.346 7.886,1.725 8.143 C 1.791 8.188,1.932 8.265,2.038 8.314 C 2.143 8.364,2.294 8.434,2.373 8.470 L 2.516 8.536 2.530 8.713 C 2.573 9.265,2.631 9.488,2.790 9.711 C 2.955 9.943,3.148 10.086,3.427 10.183 C 3.662 10.264,3.843 10.261,4.306 10.167 L 4.666 10.093 4.718 10.153 C 5.079 10.567,5.191 10.684,5.298 10.756 C 5.654 10.994,6.151 11.026,6.540 10.837 C 6.645 10.786,6.733 10.711,7.006 10.442 C 7.190 10.259,7.344 10.107,7.349 10.104 C 7.353 10.100,7.491 10.130,7.657 10.169 C 8.163 10.290,8.379 10.286,8.673 10.150 C 9.040 9.981,9.286 9.686,9.381 9.302 C 9.401 9.219,9.432 9.022,9.450 8.865 C 9.467 8.708,9.486 8.568,9.491 8.554 C 9.497 8.539,9.584 8.493,9.686 8.451 C 10.151 8.258,10.261 8.194,10.421 8.027 C 10.656 7.781,10.750 7.572,10.773 7.241 C 10.794 6.943,10.737 6.767,10.466 6.294 L 10.297 5.998 10.446 5.764 C 10.641 5.456,10.715 5.308,10.761 5.125 C 10.830 4.856,10.798 4.607,10.659 4.324 C 10.597 4.198,10.539 4.119,10.421 4.000 C 10.262 3.839,10.208 3.807,9.638 3.542 C 9.489 3.473,9.482 3.459,9.459 3.158 C 9.430 2.793,9.395 2.640,9.297 2.441 C 9.179 2.200,8.990 2.016,8.727 1.886 L 8.533 1.790 8.202 1.791 C 7.899 1.791,7.847 1.797,7.601 1.856 C 7.453 1.891,7.326 1.913,7.319 1.905 C 6.840 1.331,6.734 1.234,6.473 1.124 C 6.362 1.078,6.321 1.072,6.050 1.067 C 5.885 1.064,5.715 1.071,5.672 1.081 M6.171 2.405 C 6.476 2.777,6.669 2.946,6.898 3.042 C 7.173 3.158,7.400 3.157,7.907 3.038 C 8.093 2.995,8.189 2.981,8.203 2.995 C 8.214 3.006,8.236 3.149,8.252 3.312 C 8.309 3.905,8.370 4.070,8.634 4.333 C 8.775 4.474,8.906 4.557,9.152 4.661 C 9.511 4.812,9.560 4.837,9.560 4.869 C 9.560 4.886,9.491 5.015,9.407 5.155 C 9.149 5.584,9.093 5.739,9.092 6.020 C 9.092 6.306,9.143 6.447,9.418 6.909 C 9.496 7.040,9.560 7.158,9.560 7.171 C 9.560 7.196,9.440 7.254,9.170 7.360 C 8.836 7.491,8.635 7.638,8.471 7.868 C 8.322 8.077,8.277 8.240,8.231 8.727 C 8.216 8.891,8.196 9.032,8.187 9.041 C 8.177 9.051,8.050 9.027,7.903 8.989 C 7.705 8.938,7.575 8.917,7.394 8.908 C 7.105 8.893,6.965 8.915,6.793 9.002 C 6.597 9.101,6.491 9.193,6.247 9.475 C 6.121 9.621,6.005 9.740,5.990 9.740 C 5.974 9.740,5.862 9.625,5.741 9.485 C 5.477 9.180,5.308 9.042,5.090 8.956 C 4.940 8.896,4.914 8.892,4.690 8.893 C 4.519 8.893,4.392 8.906,4.250 8.938 C 3.938 9.007,3.802 9.029,3.787 9.014 C 3.779 9.006,3.761 8.854,3.746 8.675 C 3.706 8.197,3.642 7.990,3.464 7.767 C 3.322 7.588,3.162 7.491,2.547 7.210 C 2.453 7.168,2.426 7.146,2.435 7.122 C 2.442 7.104,2.514 6.978,2.597 6.840 C 2.782 6.530,2.829 6.428,2.880 6.230 C 2.930 6.034,2.930 5.907,2.881 5.715 C 2.836 5.537,2.771 5.405,2.570 5.076 C 2.488 4.941,2.427 4.825,2.435 4.817 C 2.443 4.809,2.580 4.747,2.739 4.680 C 3.134 4.514,3.269 4.436,3.414 4.285 C 3.633 4.060,3.716 3.825,3.769 3.272 C 3.785 3.097,3.802 2.951,3.806 2.947 C 3.810 2.943,3.961 2.976,4.142 3.020 C 4.554 3.121,4.742 3.138,4.942 3.091 C 5.275 3.012,5.420 2.907,5.827 2.455 C 5.924 2.348,6.014 2.260,6.028 2.260 C 6.041 2.260,6.106 2.325,6.171 2.405 M4.546 4.261 C 4.431 4.319,4.302 4.451,4.254 4.559 C 4.196 4.689,4.199 4.925,4.261 5.052 C 4.367 5.271,4.554 5.387,4.800 5.387 C 4.983 5.387,5.099 5.341,5.220 5.220 C 5.342 5.098,5.388 4.983,5.388 4.800 C 5.388 4.676,5.378 4.632,5.334 4.546 C 5.217 4.320,5.080 4.236,4.810 4.225 C 4.656 4.219,4.618 4.224,4.546 4.261 M5.570 5.580 L 4.250 6.900 4.675 7.325 L 5.100 7.750 6.425 6.425 L 7.750 5.100 7.330 4.680 C 7.099 4.449,6.906 4.260,6.900 4.260 C 6.894 4.260,6.296 4.854,5.570 5.580 M7.026 6.629 C 6.787 6.704,6.600 6.955,6.600 7.201 C 6.600 7.401,6.760 7.648,6.949 7.740 C 7.062 7.794,7.273 7.799,7.421 7.750 C 7.541 7.710,7.674 7.590,7.739 7.463 C 7.790 7.363,7.797 7.079,7.751 6.969 C 7.677 6.791,7.500 6.664,7.271 6.622 C 7.130 6.596,7.132 6.596,7.026 6.629 " fill="#1A1C1F" stroke="none" fill-rule="evenodd"></path></svg>