<svg width="12" height="12" viewBox="0 0 12 12" fill="none" xmlns="http://www.w3.org/2000/svg"><path d="M2.230 2.439 C 2.048 2.451,2.016 2.459,1.880 2.531 C 1.579 2.690,1.302 3.032,1.240 3.320 C 1.222 3.400,1.213 4.125,1.206 6.011 L 1.196 8.592 1.259 8.754 C 1.409 9.142,1.656 9.391,2.041 9.539 L 2.199 9.600 6.000 9.600 L 9.801 9.600 9.959 9.539 C 10.344 9.391,10.591 9.142,10.741 8.753 L 10.804 8.590 10.795 5.990 C 10.786 3.591,10.783 3.381,10.751 3.280 C 10.688 3.082,10.597 2.936,10.430 2.769 C 10.226 2.564,10.032 2.462,9.803 2.438 C 9.623 2.419,2.524 2.420,2.230 2.439 M9.600 4.200 L 9.600 4.800 6.000 4.800 L 2.400 4.800 2.400 4.200 L 2.400 3.600 6.000 3.600 L 9.600 3.600 9.600 4.200 M9.600 7.200 L 9.600 8.400 6.000 8.400 L 2.400 8.400 2.400 7.200 L 2.400 6.000 6.000 6.000 L 9.600 6.000 9.600 7.200 " fill="#1A1C1F" stroke="none" fill-rule="evenodd"></path></svg>