<svg width="28" height="28" viewBox="0 0 28 28" fill="none" xmlns="http://www.w3.org/2000/svg"><path d="M6.557 5.322 C 4.482 5.342,3.614 5.366,3.489 5.407 C 3.230 5.492,2.645 5.900,2.424 6.150 C 2.165 6.444,2.032 6.680,1.864 7.140 L 1.724 7.524 1.737 14.064 L 1.750 20.603 1.877 20.920 C 2.218 21.772,2.997 22.485,3.807 22.687 C 4.144 22.771,23.859 22.770,24.197 22.686 C 24.874 22.517,25.640 21.896,25.958 21.257 C 26.314 20.540,26.287 21.174,26.260 14.076 C 26.243 9.793,26.218 7.617,26.184 7.397 C 26.105 6.896,25.901 6.526,25.461 6.086 C 25.173 5.798,24.995 5.665,24.713 5.526 L 24.342 5.344 21.539 5.313 C 18.237 5.276,10.650 5.281,6.557 5.322 M24.055 7.145 C 24.134 7.199,24.259 7.328,24.334 7.432 L 24.469 7.620 24.491 9.060 L 24.513 10.500 14.000 10.500 L 3.488 10.500 3.508 9.062 C 3.528 7.659,3.532 7.619,3.636 7.449 C 3.769 7.234,3.896 7.149,4.159 7.097 C 4.271 7.075,8.762 7.055,14.137 7.052 L 23.911 7.047 24.055 7.145 M24.500 16.278 L 24.500 20.282 24.358 20.505 C 24.281 20.628,24.150 20.789,24.068 20.864 L 23.919 21.000 15.098 20.995 C 10.246 20.992,5.755 20.976,5.118 20.960 L 3.960 20.930 3.761 20.719 L 3.562 20.509 3.531 18.363 C 3.514 17.182,3.500 15.329,3.500 14.245 L 3.500 12.273 14.000 12.273 L 24.500 12.273 24.500 16.278 " fill="#1A1C1F" stroke="none" fill-rule="evenodd"></path></svg>