<svg width="14" height="14" viewBox="0 0 14 14" fill="none" xmlns="http://www.w3.org/2000/svg"><path d="M2.601 2.846 C 2.389 2.859,2.352 2.869,2.193 2.953 C 2.075 3.015,1.957 3.106,1.829 3.232 C 1.627 3.431,1.536 3.580,1.446 3.860 L 1.395 4.017 1.405 7.043 L 1.415 10.068 1.491 10.260 C 1.578 10.482,1.712 10.674,1.890 10.834 C 2.047 10.975,2.173 11.049,2.386 11.125 L 2.555 11.186 6.977 11.195 L 11.398 11.204 11.602 11.130 C 12.069 10.960,12.360 10.670,12.530 10.202 L 12.604 9.998 12.594 6.977 C 12.584 4.203,12.580 3.944,12.543 3.827 C 12.388 3.331,11.905 2.898,11.449 2.845 C 11.256 2.822,2.952 2.823,2.601 2.846 M11.200 4.900 L 11.200 5.600 7.000 5.600 L 2.800 5.600 2.800 4.900 L 2.800 4.200 7.000 4.200 L 11.200 4.200 11.200 4.900 " fill="#1A1C1F" stroke="none" fill-rule="evenodd"></path></svg>