<svg width="24" height="24" viewBox="0 0 24 24" fill="none" xmlns="http://www.w3.org/2000/svg"><path d="M8.660 2.561 C 7.798 2.656,6.786 3.320,6.242 4.149 C 5.830 4.777,5.689 5.380,5.734 6.320 C 5.752 6.688,5.781 6.852,5.878 7.138 C 5.945 7.334,6.000 7.501,6.000 7.508 C 6.000 7.514,5.780 7.520,5.510 7.521 C 4.671 7.522,3.920 7.585,3.698 7.673 C 2.948 7.968,2.422 8.496,2.119 9.256 L 1.992 9.572 2.008 14.516 L 2.023 19.460 2.129 19.753 C 2.273 20.154,2.455 20.443,2.746 20.734 C 3.042 21.030,3.329 21.209,3.793 21.385 L 4.140 21.517 12.000 21.517 L 19.860 21.517 20.207 21.385 C 21.075 21.055,21.578 20.555,21.883 19.719 L 22.000 19.398 22.000 14.476 L 22.000 9.553 21.881 9.257 C 21.586 8.518,21.090 8.004,20.390 7.710 C 20.110 7.593,20.073 7.588,19.061 7.537 C 18.488 7.509,18.017 7.484,18.014 7.483 C 18.004 7.478,18.068 7.226,18.183 6.820 C 18.406 6.032,18.322 5.279,17.920 4.460 C 17.621 3.850,17.208 3.418,16.538 3.012 C 15.888 2.618,15.510 2.537,14.505 2.574 L 13.871 2.598 13.451 2.799 C 12.965 3.031,12.621 3.267,12.234 3.631 L 11.960 3.890 11.681 3.604 C 11.528 3.447,11.237 3.212,11.035 3.081 C 10.526 2.752,10.128 2.614,9.533 2.562 C 9.273 2.540,9.033 2.523,9.000 2.526 C 8.967 2.529,8.814 2.545,8.660 2.561 M9.750 4.648 C 10.014 4.746,10.346 5.046,10.502 5.326 C 10.614 5.528,10.620 5.565,10.620 6.000 C 10.620 6.548,10.582 6.648,10.229 7.026 C 9.887 7.391,9.662 7.491,9.180 7.491 C 8.854 7.491,8.774 7.477,8.588 7.386 C 8.323 7.256,7.947 6.871,7.831 6.611 C 7.763 6.458,7.746 6.337,7.743 6.000 C 7.740 5.595,7.745 5.571,7.877 5.327 C 8.082 4.950,8.477 4.634,8.840 4.556 C 9.047 4.512,9.510 4.558,9.750 4.648 M15.020 4.562 C 15.388 4.615,15.575 4.711,15.850 4.986 C 16.141 5.277,16.243 5.494,16.270 5.881 C 16.306 6.416,16.113 6.846,15.683 7.186 C 14.942 7.772,13.917 7.529,13.468 6.662 C 13.351 6.437,13.342 6.391,13.341 6.000 C 13.340 5.651,13.355 5.548,13.427 5.391 C 13.608 4.999,14.051 4.641,14.454 4.562 C 14.683 4.516,14.703 4.516,15.020 4.562 M11.000 10.480 L 11.000 11.480 7.494 11.480 L 3.988 11.480 4.010 10.670 C 4.033 9.830,4.057 9.701,4.213 9.599 C 4.326 9.524,5.391 9.497,8.590 9.487 L 11.000 9.480 11.000 10.480 M19.734 9.575 C 19.827 9.614,19.896 9.677,19.923 9.748 C 19.947 9.810,19.976 10.225,19.989 10.670 L 20.012 11.480 16.506 11.480 L 13.000 11.480 13.000 10.474 L 13.000 9.467 16.294 9.491 C 19.120 9.511,19.609 9.523,19.734 9.575 M11.000 16.504 L 11.000 19.529 7.690 19.513 C 4.693 19.498,4.368 19.490,4.255 19.430 C 4.186 19.393,4.116 19.331,4.099 19.291 C 4.046 19.168,4.006 17.576,4.003 15.490 L 4.000 13.480 7.500 13.480 L 11.000 13.480 11.000 16.504 M19.985 16.348 C 19.955 19.540,19.978 19.298,19.680 19.436 C 19.556 19.493,19.176 19.501,16.270 19.512 L 13.000 19.525 13.000 16.502 L 13.000 13.480 16.507 13.480 L 20.013 13.480 19.985 16.348 " fill="#1A1C1F" stroke="none" fill-rule="evenodd"></path></svg>