<svg width="32" height="32" viewBox="0 0 32 32" fill="none" xmlns="http://www.w3.org/2000/svg"><path d="M18.533 3.139 C 17.577 3.413,16.619 4.082,16.171 4.787 C 16.091 4.911,16.015 5.012,16.000 5.010 C 15.985 5.009,15.873 4.867,15.750 4.695 C 15.293 4.054,14.238 3.351,13.459 3.169 C 12.885 3.035,11.776 3.084,11.264 3.266 C 10.446 3.557,9.622 4.192,9.178 4.873 C 8.740 5.546,8.487 6.544,8.550 7.357 C 8.580 7.747,8.783 8.507,8.938 8.808 C 9.001 8.931,9.000 8.954,8.928 8.981 C 8.882 8.999,8.073 9.014,7.129 9.014 C 5.179 9.014,4.343 9.070,3.945 9.227 C 3.066 9.574,2.423 10.283,2.077 11.288 C 1.976 11.582,1.973 11.796,1.973 19.012 L 1.973 26.435 2.158 26.905 C 2.552 27.908,3.151 28.508,4.111 28.858 L 4.536 29.013 15.993 29.013 C 27.027 29.013,27.461 29.010,27.739 28.914 C 28.861 28.528,29.514 27.858,29.927 26.672 C 30.023 26.395,30.027 26.095,30.023 19.258 C 30.021 15.340,30.001 11.937,29.978 11.697 C 29.906 10.946,29.437 10.127,28.807 9.654 C 28.460 9.393,28.029 9.188,27.667 9.112 C 27.506 9.078,26.468 9.038,25.227 9.020 C 22.727 8.981,22.976 9.073,23.257 8.293 C 23.405 7.882,23.433 7.722,23.455 7.172 C 23.476 6.637,23.461 6.455,23.367 6.078 C 23.159 5.247,22.683 4.472,22.063 3.957 C 21.701 3.655,20.819 3.230,20.336 3.124 C 19.826 3.012,18.951 3.020,18.533 3.139 M13.307 5.226 C 13.665 5.399,14.078 5.823,14.270 6.213 C 14.410 6.499,14.427 6.587,14.427 7.040 C 14.427 7.515,14.415 7.567,14.245 7.882 C 14.016 8.303,13.522 8.772,13.212 8.861 C 13.088 8.897,12.747 8.927,12.453 8.929 C 11.993 8.931,11.883 8.914,11.653 8.802 C 11.296 8.627,10.940 8.251,10.731 7.828 C 10.576 7.513,10.560 7.434,10.560 6.990 C 10.560 6.566,10.580 6.459,10.706 6.197 C 10.901 5.791,11.378 5.322,11.743 5.178 C 12.150 5.018,12.925 5.041,13.307 5.226 M20.225 5.172 C 20.587 5.308,20.990 5.664,21.227 6.058 C 21.411 6.366,21.413 6.376,21.413 6.985 C 21.413 7.583,21.409 7.608,21.238 7.903 C 20.556 9.083,19.115 9.335,18.175 8.438 C 18.007 8.278,17.809 8.025,17.735 7.876 C 17.614 7.635,17.600 7.541,17.600 7.001 C 17.600 6.490,17.618 6.361,17.713 6.171 C 17.960 5.681,18.364 5.303,18.811 5.144 C 19.127 5.031,19.888 5.046,20.225 5.172 M14.987 12.987 L 14.987 14.987 9.486 14.987 L 3.984 14.987 4.012 13.337 C 4.039 11.762,4.045 11.679,4.156 11.500 C 4.220 11.397,4.361 11.257,4.469 11.189 C 4.655 11.074,4.736 11.065,5.813 11.038 C 6.444 11.021,8.766 11.003,10.973 10.998 L 14.987 10.987 14.987 12.987 M24.889 11.032 C 27.652 11.071,27.447 11.039,27.806 11.483 L 27.964 11.679 27.989 13.333 L 28.014 14.987 22.514 14.987 L 17.013 14.987 17.013 12.987 L 17.013 10.987 19.720 10.992 C 21.209 10.995,23.535 11.013,24.889 11.032 M14.987 22.004 L 14.987 26.995 9.933 26.972 C 6.530 26.956,4.810 26.929,4.667 26.890 C 4.538 26.855,4.378 26.751,4.262 26.628 L 4.071 26.423 4.036 24.452 C 4.016 23.367,4.000 21.250,4.000 19.747 L 4.000 17.013 9.493 17.013 L 14.987 17.013 14.987 22.004 M28.000 19.618 C 28.000 21.050,27.984 23.168,27.964 24.323 L 27.929 26.423 27.738 26.628 C 27.622 26.751,27.462 26.855,27.333 26.890 C 27.190 26.929,25.470 26.956,22.067 26.972 L 17.013 26.995 17.013 22.004 L 17.013 17.013 22.507 17.013 L 28.000 17.013 28.000 19.618 M7.356 22.077 C 6.602 22.106,6.572 22.111,6.377 22.260 C 5.930 22.601,5.912 23.251,6.336 23.698 C 6.632 24.009,6.533 24.000,9.507 24.000 L 12.246 24.000 12.488 23.846 C 12.762 23.673,12.934 23.428,12.988 23.133 C 13.040 22.854,12.820 22.409,12.520 22.189 L 12.299 22.027 10.216 22.037 C 9.071 22.042,7.783 22.060,7.356 22.077 " fill="#1A1C1F" stroke="none" fill-rule="evenodd"></path></svg>