<svg width="14" height="14" viewBox="0 0 14 14" fill="none" xmlns="http://www.w3.org/2000/svg"><path d="M5.761 1.776 C 5.460 1.807,5.075 2.020,4.888 2.258 C 4.672 2.533,4.573 2.823,4.573 3.181 C 4.573 3.387,4.612 3.574,4.706 3.819 C 4.716 3.844,4.627 3.850,4.243 3.851 C 3.982 3.852,3.511 3.861,3.197 3.872 C 2.566 3.894,2.482 3.910,2.227 4.061 C 2.050 4.166,1.750 4.450,1.636 4.622 C 1.586 4.696,1.513 4.848,1.473 4.958 L 1.400 5.159 1.400 8.035 L 1.400 10.912 1.457 11.079 C 1.560 11.382,1.675 11.569,1.889 11.784 C 2.049 11.944,2.128 12.003,2.287 12.081 C 2.398 12.135,2.557 12.191,2.648 12.208 C 2.778 12.232,3.678 12.238,7.070 12.238 C 11.138 12.238,11.335 12.236,11.468 12.195 C 11.728 12.116,11.922 11.997,12.122 11.796 C 12.322 11.595,12.429 11.419,12.539 11.111 L 12.600 10.941 12.600 8.062 L 12.600 5.183 12.539 5.012 C 12.359 4.513,12.093 4.208,11.650 3.996 C 11.438 3.895,11.280 3.880,10.134 3.855 C 9.682 3.845,9.306 3.830,9.298 3.822 C 9.290 3.814,9.309 3.735,9.341 3.645 C 9.545 3.082,9.409 2.529,8.969 2.126 C 8.795 1.967,8.538 1.831,8.340 1.794 C 8.261 1.779,8.096 1.773,7.957 1.780 C 7.625 1.797,7.398 1.891,7.112 2.128 L 7.001 2.220 6.861 2.106 C 6.538 1.845,6.168 1.734,5.761 1.776 M6.300 5.950 L 6.300 6.650 4.550 6.650 L 2.800 6.650 2.800 5.950 L 2.800 5.250 4.550 5.250 L 6.300 5.250 6.300 5.950 M11.200 5.950 L 11.200 6.650 9.450 6.650 L 7.700 6.650 7.700 5.950 L 7.700 5.250 9.450 5.250 L 11.200 5.250 11.200 5.950 M6.300 9.450 L 6.300 10.850 4.550 10.850 L 2.800 10.850 2.800 9.450 L 2.800 8.050 4.550 8.050 L 6.300 8.050 6.300 9.450 M11.200 9.450 L 11.200 10.850 9.450 10.850 L 7.700 10.850 7.700 9.450 L 7.700 8.050 9.450 8.050 L 11.200 8.050 11.200 9.450 " fill="#1A1C1F" stroke="none" fill-rule="evenodd"></path></svg>