<svg width="12" height="12" viewBox="0 0 12 12" fill="none" xmlns="http://www.w3.org/2000/svg"><path d="M4.924 1.520 C 4.832 1.530,4.745 1.560,4.604 1.630 C 4.245 1.808,4.006 2.119,3.927 2.509 C 3.889 2.696,3.908 2.879,3.991 3.123 C 4.018 3.202,4.035 3.272,4.029 3.278 C 4.023 3.284,3.674 3.296,3.254 3.304 C 2.294 3.324,2.200 3.334,1.990 3.439 C 1.667 3.602,1.488 3.787,1.314 4.140 L 1.210 4.350 1.210 6.820 C 1.211 8.653,1.217 9.324,1.235 9.420 C 1.248 9.494,1.299 9.631,1.352 9.738 C 1.516 10.070,1.795 10.306,2.186 10.445 L 2.343 10.500 6.026 10.499 L 9.710 10.499 9.884 10.433 C 10.125 10.341,10.262 10.253,10.417 10.090 C 10.559 9.941,10.662 9.764,10.748 9.524 L 10.800 9.378 10.799 6.904 L 10.799 4.430 10.733 4.256 C 10.639 4.009,10.552 3.872,10.379 3.700 C 10.260 3.581,10.188 3.529,10.039 3.454 C 9.804 3.337,9.723 3.327,8.900 3.310 C 8.139 3.296,7.980 3.285,7.980 3.249 C 7.980 3.233,8.003 3.142,8.031 3.045 C 8.094 2.828,8.102 2.585,8.051 2.409 C 7.939 2.022,7.642 1.700,7.284 1.576 C 7.090 1.509,6.710 1.509,6.516 1.576 C 6.375 1.625,6.198 1.730,6.075 1.838 L 6.001 1.903 5.906 1.823 C 5.622 1.586,5.282 1.482,4.924 1.520 M5.400 5.100 L 5.400 5.700 3.900 5.700 L 2.400 5.700 2.400 5.100 L 2.400 4.500 3.900 4.500 L 5.400 4.500 5.400 5.100 M9.600 5.100 L 9.600 5.700 8.100 5.700 L 6.600 5.700 6.600 5.100 L 6.600 4.500 8.100 4.500 L 9.600 4.500 9.600 5.100 M5.400 8.100 L 5.400 9.300 3.900 9.300 L 2.400 9.300 2.400 8.100 L 2.400 6.900 3.900 6.900 L 5.400 6.900 5.400 8.100 M9.600 8.100 L 9.600 9.300 8.100 9.300 L 6.600 9.300 6.600 8.100 L 6.600 6.900 8.100 6.900 L 9.600 6.900 9.600 8.100 " fill="#1A1C1F" stroke="none" fill-rule="evenodd"></path></svg>