<svg width="28" height="28" viewBox="0 0 28 28" fill="none" xmlns="http://www.w3.org/2000/svg"><path d="M16.216 2.747 C 15.399 2.981,14.547 3.579,14.130 4.213 L 14.014 4.388 13.746 4.068 C 13.214 3.429,12.510 2.965,11.785 2.778 C 11.458 2.694,10.534 2.682,10.164 2.757 C 10.028 2.785,9.697 2.913,9.429 3.043 C 8.997 3.251,8.891 3.327,8.519 3.704 C 8.039 4.189,7.776 4.630,7.600 5.250 C 7.514 5.551,7.494 5.737,7.495 6.207 C 7.496 6.717,7.512 6.839,7.627 7.187 C 7.699 7.405,7.786 7.639,7.821 7.707 C 7.876 7.815,7.875 7.835,7.812 7.859 C 7.772 7.874,7.064 7.887,6.238 7.887 C 4.532 7.888,3.800 7.937,3.452 8.074 C 2.696 8.372,2.150 8.959,1.847 9.800 L 1.727 10.132 1.727 16.631 L 1.727 23.131 1.890 23.546 C 2.245 24.450,2.800 24.980,3.725 25.298 C 3.973 25.384,4.294 25.387,14.000 25.387 C 23.649 25.387,24.028 25.383,24.271 25.300 C 25.205 24.979,25.798 24.399,26.134 23.480 L 26.273 23.097 26.270 16.857 C 26.269 13.425,26.251 10.442,26.230 10.229 C 26.162 9.512,25.677 8.737,25.041 8.331 C 24.434 7.942,24.034 7.887,21.817 7.886 C 20.995 7.886,20.279 7.873,20.224 7.859 C 20.126 7.832,20.126 7.831,20.263 7.506 C 20.854 6.098,20.458 4.421,19.305 3.462 C 18.988 3.198,18.217 2.826,17.794 2.734 C 17.348 2.636,16.582 2.642,16.216 2.747 M11.457 4.507 C 11.914 4.637,12.356 5.075,12.557 5.600 C 12.708 5.993,12.670 6.505,12.461 6.897 C 12.265 7.265,11.834 7.675,11.561 7.754 C 11.262 7.839,10.468 7.828,10.255 7.734 C 9.991 7.619,9.575 7.200,9.420 6.893 C 9.236 6.529,9.186 6.238,9.244 5.872 C 9.307 5.475,9.445 5.203,9.728 4.921 C 10.213 4.436,10.749 4.308,11.457 4.507 M17.788 4.565 C 18.094 4.714,18.383 4.985,18.571 5.298 C 18.718 5.542,18.735 5.607,18.751 5.992 C 18.774 6.500,18.722 6.718,18.499 7.052 C 18.160 7.561,17.632 7.840,17.007 7.840 C 16.408 7.840,15.822 7.466,15.537 6.900 C 15.410 6.649,15.400 6.591,15.400 6.113 C 15.400 5.658,15.414 5.570,15.514 5.372 C 15.672 5.061,15.846 4.865,16.122 4.690 C 16.479 4.463,16.595 4.435,17.103 4.447 C 17.477 4.457,17.613 4.480,17.788 4.565 M13.113 11.363 L 13.113 13.113 8.300 13.113 L 3.486 13.113 3.511 11.670 C 3.534 10.292,3.540 10.219,3.637 10.062 C 3.692 9.972,3.816 9.850,3.911 9.791 C 4.072 9.690,4.147 9.682,5.040 9.658 C 5.566 9.644,7.598 9.628,9.555 9.623 L 13.113 9.613 13.113 11.363 M23.816 9.704 C 23.993 9.732,24.084 9.782,24.235 9.933 C 24.422 10.120,24.430 10.139,24.461 10.512 C 24.478 10.723,24.494 11.395,24.496 12.005 L 24.500 13.113 19.693 13.113 L 14.887 13.113 14.887 11.356 L 14.887 9.598 19.238 9.633 C 21.632 9.652,23.692 9.684,23.816 9.704 M13.113 19.254 L 13.113 23.621 8.692 23.600 C 5.714 23.586,4.209 23.563,4.083 23.529 C 3.970 23.498,3.831 23.407,3.729 23.299 L 3.562 23.120 3.531 21.422 C 3.514 20.489,3.500 18.636,3.500 17.306 L 3.500 14.887 8.307 14.887 L 13.113 14.887 13.113 19.254 M24.500 17.166 C 24.500 18.419,24.486 20.272,24.469 21.282 L 24.438 23.120 24.271 23.299 C 24.169 23.407,24.030 23.498,23.917 23.529 C 23.791 23.563,22.286 23.586,19.308 23.600 L 14.887 23.621 14.887 19.254 L 14.887 14.887 19.693 14.887 L 24.500 14.887 24.500 17.166 M6.460 19.317 C 5.774 19.343,5.751 19.347,5.580 19.478 C 5.189 19.776,5.173 20.345,5.544 20.736 C 5.803 21.008,5.716 21.000,8.319 21.000 L 10.715 21.000 10.927 20.866 C 11.513 20.494,11.516 19.844,10.933 19.402 L 10.763 19.273 8.963 19.282 C 7.973 19.287,6.847 19.303,6.460 19.317 " fill="#1A1C1F" stroke="none" fill-rule="evenodd"></path></svg>