<svg width="16" height="16" viewBox="0 0 16 16" fill="none" xmlns="http://www.w3.org/2000/svg"><path d="M6.598 2.030 C 6.246 2.062,5.806 2.302,5.587 2.580 C 5.340 2.895,5.227 3.226,5.227 3.636 C 5.227 3.870,5.271 4.085,5.377 4.360 C 5.386 4.384,5.097 4.396,4.249 4.410 C 3.622 4.420,3.055 4.441,2.988 4.456 C 2.921 4.470,2.765 4.532,2.640 4.593 C 2.455 4.684,2.367 4.751,2.158 4.959 C 1.892 5.224,1.825 5.323,1.684 5.661 L 1.600 5.863 1.601 8.831 C 1.602 11.913,1.617 12.533,1.693 12.757 C 1.822 13.134,2.207 13.589,2.547 13.765 C 2.649 13.818,2.810 13.893,2.905 13.931 L 3.076 14.000 8.003 14.000 L 12.930 14.000 13.125 13.930 C 13.770 13.698,14.087 13.375,14.330 12.698 L 14.400 12.503 14.400 9.202 L 14.400 5.900 14.333 5.722 C 14.119 5.152,13.814 4.807,13.317 4.568 C 13.070 4.450,12.910 4.435,11.720 4.414 C 10.662 4.396,10.600 4.391,10.628 4.325 C 10.686 4.193,10.778 3.833,10.791 3.693 C 10.810 3.475,10.744 3.184,10.613 2.910 C 10.381 2.427,9.847 2.058,9.308 2.011 C 8.960 1.980,8.475 2.147,8.152 2.411 L 7.997 2.536 7.872 2.431 C 7.498 2.118,7.080 1.987,6.598 2.030 M7.200 6.800 L 7.200 7.600 5.200 7.600 L 3.200 7.600 3.200 6.800 L 3.200 6.000 5.200 6.000 L 7.200 6.000 7.200 6.800 M12.800 6.800 L 12.800 7.600 10.800 7.600 L 8.800 7.600 8.800 6.800 L 8.800 6.000 10.800 6.000 L 12.800 6.000 12.800 6.800 M7.200 10.800 L 7.200 12.400 5.200 12.400 L 3.200 12.400 3.200 10.800 L 3.200 9.200 5.200 9.200 L 7.200 9.200 7.200 10.800 M12.800 10.800 L 12.800 12.400 10.800 12.400 L 8.800 12.400 8.800 10.800 L 8.800 9.200 10.800 9.200 L 12.800 9.200 12.800 10.800 " fill="#1A1C1F" stroke="none" fill-rule="evenodd"></path></svg>