<svg width="20" height="20" viewBox="0 0 20 20" fill="none" xmlns="http://www.w3.org/2000/svg"><path d="M11.134 2.552 C 10.848 2.614,10.428 2.819,10.191 3.012 L 10.001 3.167 9.798 3.003 C 9.402 2.685,8.977 2.533,8.477 2.533 C 7.862 2.533,7.347 2.779,6.974 3.250 C 6.554 3.781,6.423 4.450,6.613 5.100 C 6.658 5.256,6.705 5.407,6.716 5.437 C 6.735 5.485,6.604 5.492,5.393 5.513 C 4.654 5.526,3.945 5.551,3.817 5.568 C 3.423 5.621,3.083 5.815,2.680 6.215 C 2.332 6.562,2.219 6.741,2.065 7.189 C 2.002 7.371,2.000 7.507,2.000 11.483 L 2.000 15.588 2.081 15.827 C 2.231 16.267,2.390 16.528,2.698 16.834 C 2.925 17.061,3.041 17.147,3.267 17.258 C 3.422 17.334,3.632 17.414,3.733 17.436 C 3.871 17.466,5.444 17.480,10.031 17.490 L 16.146 17.504 16.398 17.416 C 16.795 17.276,17.060 17.113,17.335 16.836 C 17.607 16.563,17.760 16.306,17.918 15.857 L 18.009 15.598 17.991 11.457 C 17.974 7.382,17.973 7.313,17.904 7.100 C 17.711 6.494,17.169 5.930,16.517 5.655 C 16.294 5.561,16.253 5.555,15.600 5.530 C 15.224 5.516,14.545 5.503,14.092 5.502 C 13.485 5.501,13.267 5.490,13.267 5.461 C 13.267 5.439,13.306 5.323,13.355 5.203 C 13.427 5.023,13.446 4.912,13.459 4.591 C 13.475 4.228,13.469 4.177,13.383 3.914 C 13.333 3.758,13.236 3.544,13.168 3.440 C 12.895 3.018,12.367 2.653,11.879 2.550 C 11.599 2.490,11.416 2.491,11.134 2.552 M9.000 8.500 L 9.000 9.500 6.500 9.500 L 4.000 9.500 4.000 8.500 L 4.000 7.500 6.500 7.500 L 9.000 7.500 9.000 8.500 M16.000 8.500 L 16.000 9.500 13.500 9.500 L 11.000 9.500 11.000 8.500 L 11.000 7.500 13.500 7.500 L 16.000 7.500 16.000 8.500 M9.000 13.500 L 9.000 15.500 6.500 15.500 L 4.000 15.500 4.000 13.500 L 4.000 11.500 6.500 11.500 L 9.000 11.500 9.000 13.500 M16.000 13.500 L 16.000 15.500 13.500 15.500 L 11.000 15.500 11.000 13.500 L 11.000 11.500 13.500 11.500 L 16.000 11.500 16.000 13.500 " fill="#1A1C1F" stroke="none" fill-rule="evenodd"></path></svg>