<svg width="24" height="24" viewBox="0 0 24 24" fill="none" xmlns="http://www.w3.org/2000/svg"><path d="M11.860 4.083 C 11.462 4.130,10.914 4.298,10.562 4.481 C 9.993 4.777,9.590 5.190,9.339 5.734 C 9.155 6.132,9.082 6.450,9.054 6.980 C 9.025 7.509,9.078 7.893,9.244 8.360 C 9.311 8.547,9.368 8.726,9.373 8.758 C 9.377 8.789,9.227 8.937,9.040 9.086 C 8.645 9.401,8.505 9.553,8.243 9.945 C 7.866 10.511,7.712 11.188,7.797 11.909 C 7.909 12.856,8.418 13.584,9.342 14.114 C 9.495 14.202,10.070 14.466,10.620 14.700 C 11.890 15.240,12.273 15.441,12.582 15.729 C 12.884 16.010,13.034 16.315,13.068 16.715 C 13.145 17.637,12.553 18.094,11.280 18.096 C 10.860 18.097,10.656 18.073,10.003 17.944 C 9.095 17.766,8.849 17.763,8.630 17.930 C 8.239 18.228,8.236 18.804,8.622 19.234 C 9.378 20.075,11.882 20.262,13.331 19.587 C 14.124 19.217,14.698 18.521,14.922 17.658 C 14.989 17.399,15.004 17.214,15.005 16.660 C 15.006 15.876,14.976 15.724,14.700 15.134 C 14.562 14.838,14.531 14.738,14.569 14.712 C 14.597 14.694,14.718 14.622,14.837 14.552 C 15.353 14.252,15.891 13.600,16.083 13.040 C 16.194 12.718,16.238 11.875,16.162 11.524 C 16.091 11.196,15.837 10.697,15.588 10.398 C 15.147 9.865,14.592 9.524,13.095 8.864 C 11.872 8.325,11.658 8.205,11.353 7.893 C 11.039 7.570,10.944 7.371,10.944 7.037 C 10.944 6.536,11.217 6.204,11.773 6.032 C 12.180 5.905,12.919 5.907,13.768 6.037 C 14.502 6.150,14.628 6.132,14.879 5.881 C 15.158 5.602,15.191 5.050,14.951 4.693 C 14.831 4.515,14.516 4.301,14.227 4.199 C 13.819 4.056,12.600 3.996,11.860 4.083 M11.156 10.204 C 11.816 10.495,13.245 11.202,13.604 11.415 C 13.771 11.514,13.992 11.688,14.094 11.802 L 14.280 12.009 14.280 12.314 C 14.279 12.724,14.167 12.969,13.874 13.202 C 13.651 13.379,13.228 13.600,13.113 13.600 C 12.931 13.600,11.548 13.019,10.720 12.596 C 10.097 12.277,9.839 12.074,9.694 11.788 C 9.602 11.607,9.594 11.554,9.616 11.322 C 9.651 10.975,9.733 10.740,9.897 10.516 C 10.045 10.315,10.480 10.000,10.611 10.000 C 10.656 10.000,10.902 10.092,11.156 10.204 " fill="#1A1C1F" stroke="none" fill-rule="evenodd"></path></svg>