<svg width="20" height="20" viewBox="0 0 20 20" fill="none" xmlns="http://www.w3.org/2000/svg"><path d="M9.650 3.097 C 9.078 3.217,8.617 3.415,8.213 3.717 C 7.286 4.410,6.965 5.996,7.513 7.182 C 7.577 7.321,7.661 7.478,7.699 7.532 L 7.769 7.630 7.676 7.687 C 7.035 8.078,6.714 8.411,6.468 8.942 C 6.101 9.734,6.136 10.500,6.569 11.147 C 6.946 11.711,7.479 12.042,9.003 12.662 C 10.128 13.119,10.421 13.288,10.673 13.621 C 10.815 13.809,10.817 13.815,10.828 14.122 C 10.838 14.386,10.829 14.454,10.768 14.580 C 10.686 14.750,10.545 14.868,10.279 14.989 C 9.895 15.166,8.948 15.157,8.074 14.969 C 7.812 14.913,7.515 14.867,7.414 14.867 C 6.723 14.867,6.459 15.734,6.972 16.318 C 7.140 16.509,7.339 16.626,7.706 16.749 C 8.244 16.929,8.554 16.971,9.333 16.973 C 10.091 16.975,10.379 16.937,10.875 16.770 C 11.820 16.450,12.391 15.875,12.649 14.982 C 12.882 14.178,12.790 13.217,12.419 12.594 L 12.306 12.405 12.522 12.279 C 12.773 12.132,13.181 11.740,13.366 11.468 C 13.785 10.851,13.902 9.950,13.647 9.312 C 13.299 8.442,12.743 8.024,10.925 7.265 C 9.983 6.872,9.706 6.728,9.456 6.498 C 9.178 6.243,9.066 6.029,9.067 5.752 C 9.069 5.386,9.215 5.188,9.600 5.030 C 9.876 4.917,10.824 4.902,11.643 4.997 C 12.186 5.061,12.246 5.062,12.359 5.015 C 12.652 4.893,12.817 4.598,12.811 4.207 C 12.803 3.683,12.409 3.286,11.727 3.114 C 11.574 3.075,11.304 3.057,10.733 3.048 C 10.062 3.037,9.907 3.044,9.650 3.097 M9.738 8.870 C 10.942 9.355,11.547 9.652,11.759 9.865 C 11.875 9.980,11.900 10.083,11.900 10.434 L 11.900 10.694 11.725 10.852 C 11.531 11.028,11.230 11.232,11.065 11.301 C 10.936 11.354,10.934 11.353,9.967 10.967 C 8.473 10.370,8.159 10.179,8.034 9.788 C 7.953 9.536,8.066 9.225,8.313 9.026 C 8.417 8.942,9.006 8.607,9.060 8.601 C 9.065 8.600,9.370 8.721,9.738 8.870 " fill="#1A1C1F" stroke="none" fill-rule="evenodd"></path></svg>