<svg width="16" height="16" viewBox="0 0 16 16" fill="none" xmlns="http://www.w3.org/2000/svg"><path d="M7.773 2.468 C 7.470 2.524,7.171 2.627,6.893 2.770 C 6.705 2.867,6.601 2.945,6.410 3.133 C 6.199 3.341,6.150 3.407,6.045 3.627 C 5.864 4.007,5.805 4.279,5.806 4.733 C 5.807 4.982,5.821 5.168,5.850 5.289 C 5.903 5.509,6.027 5.815,6.132 5.981 L 6.209 6.102 5.977 6.249 C 5.494 6.556,5.124 7.074,5.010 7.603 C 4.967 7.805,4.995 8.344,5.060 8.547 C 5.159 8.859,5.433 9.203,5.766 9.433 C 6.036 9.619,6.412 9.802,7.131 10.098 C 8.150 10.518,8.422 10.680,8.588 10.970 C 8.659 11.094,8.666 11.130,8.666 11.349 C 8.667 11.576,8.661 11.599,8.588 11.700 C 8.435 11.912,8.210 12.027,7.847 12.079 C 7.481 12.132,7.174 12.107,6.420 11.960 C 6.233 11.923,6.013 11.893,5.932 11.893 C 5.465 11.893,5.220 12.392,5.453 12.869 C 5.641 13.252,6.157 13.485,7.009 13.572 C 8.188 13.692,9.224 13.374,9.738 12.736 C 10.063 12.332,10.218 11.846,10.216 11.230 C 10.215 10.777,10.120 10.386,9.935 10.075 L 9.845 9.924 10.014 9.825 C 10.200 9.717,10.567 9.363,10.709 9.157 C 10.912 8.862,11.063 8.291,11.028 7.947 C 10.962 7.284,10.628 6.788,9.987 6.401 C 9.687 6.221,9.576 6.168,8.860 5.863 C 8.512 5.715,8.108 5.534,7.962 5.461 C 7.501 5.230,7.253 4.926,7.254 4.595 C 7.255 4.309,7.374 4.149,7.680 4.024 C 7.901 3.933,8.659 3.921,9.316 3.998 C 9.780 4.052,9.794 4.052,9.902 4.005 C 10.133 3.903,10.251 3.684,10.248 3.365 C 10.243 2.947,9.928 2.629,9.382 2.491 C 9.136 2.429,8.065 2.414,7.773 2.468 M7.791 7.096 C 8.758 7.485,9.238 7.722,9.410 7.894 C 9.503 7.987,9.535 8.134,9.513 8.375 C 9.495 8.566,9.441 8.648,9.220 8.814 C 8.984 8.992,8.809 9.075,8.714 9.056 C 8.478 9.009,6.976 8.369,6.752 8.220 C 6.338 7.945,6.296 7.489,6.658 7.211 C 6.737 7.150,7.211 6.885,7.248 6.881 C 7.252 6.880,7.496 6.977,7.791 7.096 " fill="#1A1C1F" stroke="none" fill-rule="evenodd"></path></svg>