<svg width="28" height="28" viewBox="0 0 28 28" fill="none" xmlns="http://www.w3.org/2000/svg"><path d="M13.790 3.599 C 12.419 3.771,11.150 4.592,10.640 5.638 C 10.023 6.903,10.165 8.534,10.986 9.613 L 11.194 9.886 10.696 10.158 C 9.865 10.612,9.378 11.046,8.995 11.675 C 8.627 12.281,8.508 12.897,8.587 13.796 C 8.659 14.608,8.939 15.189,9.550 15.795 C 10.170 16.409,10.742 16.764,12.973 17.921 C 14.526 18.725,14.856 18.923,15.102 19.197 C 15.548 19.691,15.747 20.388,15.645 21.091 C 15.579 21.545,15.429 21.852,15.146 22.112 C 14.894 22.345,14.633 22.466,14.117 22.590 C 13.154 22.821,12.409 22.747,10.947 22.278 C 10.622 22.173,10.301 22.105,10.059 22.088 L 9.681 22.061 9.524 22.239 C 9.215 22.591,9.172 22.852,9.360 23.229 C 9.617 23.745,10.459 24.147,11.783 24.388 C 12.134 24.451,12.483 24.472,13.183 24.472 C 14.199 24.472,14.706 24.397,15.402 24.146 C 17.103 23.532,18.018 21.935,17.829 19.907 C 17.767 19.241,17.561 18.619,17.261 18.193 C 17.213 18.125,17.173 18.049,17.173 18.024 C 17.173 18.000,17.305 17.910,17.465 17.826 C 18.174 17.451,18.790 16.887,19.072 16.355 C 19.351 15.828,19.434 15.423,19.431 14.607 C 19.428 13.959,19.415 13.840,19.301 13.465 C 19.092 12.775,18.896 12.451,18.365 11.923 C 17.794 11.356,17.538 11.200,15.330 10.069 C 14.457 9.622,13.603 9.168,13.431 9.059 C 13.060 8.825,12.655 8.402,12.501 8.089 C 12.399 7.883,12.390 7.805,12.390 7.183 L 12.390 6.502 12.558 6.226 C 12.855 5.739,13.383 5.459,14.185 5.359 C 14.630 5.304,15.674 5.369,16.193 5.484 C 16.825 5.623,17.187 5.660,17.389 5.605 C 18.058 5.424,18.163 4.696,17.595 4.183 C 17.258 3.879,16.718 3.695,15.868 3.594 C 15.402 3.538,14.254 3.541,13.790 3.599 M14.490 11.995 C 16.342 12.919,16.799 13.204,17.023 13.580 C 17.267 13.987,17.328 14.265,17.302 14.836 C 17.276 15.389,17.187 15.658,16.919 15.982 C 16.614 16.352,15.755 16.745,15.380 16.686 C 15.002 16.627,12.286 15.354,11.667 14.946 C 10.983 14.496,10.638 14.010,10.550 13.376 C 10.479 12.868,10.577 12.475,10.869 12.090 C 11.218 11.630,12.293 11.115,12.763 11.183 C 12.840 11.194,13.617 11.559,14.490 11.995 " fill="#1A1C1F" stroke="none" fill-rule="evenodd"></path></svg>