<svg width="12" height="12" viewBox="0 0 12 12" fill="none" xmlns="http://www.w3.org/2000/svg"><path d="M6.044 1.821 C 5.617 1.863,5.239 2.000,4.935 2.224 C 4.524 2.527,4.292 3.136,4.357 3.745 C 4.384 4.000,4.431 4.157,4.556 4.402 L 4.653 4.593 4.524 4.661 C 4.452 4.699,4.327 4.792,4.245 4.868 C 4.020 5.078,3.893 5.283,3.789 5.600 C 3.742 5.745,3.734 5.804,3.733 6.000 C 3.733 6.198,3.740 6.251,3.785 6.377 C 3.857 6.580,3.946 6.719,4.110 6.885 C 4.355 7.132,4.579 7.258,5.280 7.543 C 6.090 7.872,6.340 8.024,6.454 8.256 C 6.572 8.496,6.506 8.786,6.302 8.921 C 6.029 9.102,5.624 9.122,4.916 8.989 C 4.420 8.896,4.303 8.903,4.159 9.034 C 4.007 9.170,3.979 9.452,4.094 9.664 C 4.162 9.788,4.308 9.922,4.451 9.989 C 4.577 10.049,4.863 10.127,5.090 10.163 C 5.331 10.201,5.927 10.195,6.169 10.151 C 6.934 10.014,7.392 9.640,7.593 8.989 C 7.645 8.821,7.648 8.787,7.649 8.430 C 7.650 8.051,7.650 8.049,7.584 7.860 C 7.548 7.755,7.488 7.619,7.451 7.557 L 7.384 7.443 7.510 7.369 C 7.646 7.290,7.926 7.022,8.025 6.878 C 8.186 6.643,8.260 6.378,8.260 6.040 C 8.260 5.767,8.235 5.666,8.106 5.415 C 7.895 5.005,7.580 4.795,6.463 4.318 C 5.892 4.075,5.694 3.962,5.579 3.816 C 5.358 3.537,5.408 3.174,5.686 3.044 C 5.901 2.943,6.480 2.922,6.983 2.997 C 7.280 3.041,7.303 3.042,7.406 3.012 C 7.603 2.955,7.688 2.806,7.684 2.523 C 7.679 2.113,7.352 1.884,6.682 1.820 C 6.445 1.798,6.288 1.798,6.044 1.821 M5.843 5.322 C 6.569 5.614,6.928 5.791,7.057 5.920 C 7.164 6.027,7.172 6.338,7.071 6.470 C 6.986 6.581,6.655 6.800,6.571 6.800 C 6.529 6.800,5.932 6.569,5.543 6.401 C 5.195 6.252,4.976 6.121,4.895 6.015 C 4.743 5.814,4.786 5.575,5.005 5.408 C 5.083 5.349,5.405 5.164,5.436 5.161 C 5.439 5.160,5.622 5.233,5.843 5.322 " fill="#1A1C1F" stroke="none" fill-rule="evenodd"></path></svg>