<svg width="32" height="32" viewBox="0 0 32 32" fill="none" xmlns="http://www.w3.org/2000/svg"><path d="M8.027 2.078 C 5.154 2.107,5.146 2.107,4.897 2.230 C 3.948 2.697,3.311 3.416,3.091 4.267 C 3.047 4.439,3.022 6.192,3.002 10.443 L 2.975 16.379 3.094 16.710 C 3.456 17.709,3.946 18.282,4.799 18.703 L 5.200 18.900 7.013 18.946 C 9.591 19.010,26.110 18.959,26.587 18.886 C 27.604 18.728,28.549 17.830,28.929 16.660 C 29.010 16.410,29.016 15.868,29.001 10.420 C 28.982 3.755,29.012 4.264,28.597 3.577 C 28.312 3.105,27.816 2.628,27.323 2.349 L 26.907 2.114 23.893 2.074 C 20.594 2.032,12.563 2.034,8.027 2.078 M26.510 4.187 C 26.972 4.513,26.929 4.013,26.963 9.387 C 26.980 12.012,26.974 14.665,26.950 15.282 C 26.901 16.532,26.902 16.530,26.467 16.859 L 26.267 17.010 16.000 17.010 L 5.733 17.010 5.533 16.859 C 5.098 16.530,5.099 16.532,5.050 15.282 C 5.026 14.665,5.019 12.014,5.036 9.391 C 5.069 4.124,5.040 4.522,5.421 4.230 C 5.606 4.089,5.658 4.078,6.289 4.049 C 6.658 4.032,11.308 4.020,16.622 4.022 L 26.284 4.027 26.510 4.187 M22.763 6.074 C 22.502 6.129,22.223 6.349,22.109 6.590 C 22.050 6.714,22.006 6.973,21.988 7.299 C 21.939 8.200,22.165 8.742,22.663 8.919 C 22.965 9.026,24.197 9.010,24.405 8.896 C 24.619 8.779,24.894 8.465,24.946 8.279 C 24.999 8.088,24.998 7.015,24.945 6.762 C 24.896 6.533,24.693 6.270,24.481 6.160 C 24.309 6.072,23.067 6.009,22.763 6.074 M7.663 13.105 C 7.444 13.138,7.126 13.481,7.044 13.772 C 6.989 13.968,6.989 14.059,7.041 14.222 C 7.128 14.495,7.315 14.737,7.550 14.882 L 7.742 15.001 13.007 14.977 C 18.072 14.953,18.280 14.948,18.482 14.850 C 19.006 14.593,19.133 13.855,18.734 13.382 C 18.456 13.051,18.733 13.066,13.028 13.075 C 10.160 13.079,7.746 13.093,7.663 13.105 M10.744 21.057 C 10.403 21.104,10.230 21.217,10.102 21.476 C 10.007 21.668,10.000 21.877,9.982 25.152 C 9.963 28.780,9.989 29.397,10.172 29.648 C 10.390 29.947,10.556 29.981,11.935 30.013 C 12.631 30.029,13.483 30.024,13.829 30.002 C 14.537 29.958,14.678 29.889,14.882 29.489 C 15.012 29.234,15.013 29.049,14.883 28.764 C 14.713 28.390,14.645 28.374,13.046 28.336 L 11.641 28.303 11.607 27.904 C 11.589 27.684,11.573 27.210,11.573 26.851 L 11.573 26.198 12.600 26.175 C 13.174 26.162,13.689 26.125,13.768 26.092 C 14.164 25.927,14.342 25.364,14.134 24.936 C 13.954 24.564,13.873 24.540,12.644 24.499 L 11.573 24.463 11.573 23.595 L 11.573 22.727 12.893 22.710 C 14.112 22.695,14.228 22.685,14.400 22.584 C 14.953 22.259,14.982 21.420,14.449 21.145 C 14.307 21.071,14.030 21.055,12.647 21.039 C 11.749 21.029,10.892 21.037,10.744 21.057 M16.773 21.061 C 16.479 21.098,16.352 21.170,16.139 21.423 L 15.997 21.593 16.012 25.512 C 16.026 29.376,16.028 29.434,16.137 29.579 C 16.340 29.852,16.513 29.943,16.826 29.943 C 17.060 29.943,17.142 29.918,17.256 29.811 C 17.563 29.525,17.571 29.478,17.591 27.940 L 17.609 26.521 18.418 26.492 C 19.531 26.452,19.760 26.379,20.217 25.923 C 20.786 25.355,20.961 24.854,20.959 23.790 C 20.957 22.789,20.743 22.125,20.269 21.651 C 19.911 21.292,19.537 21.126,18.948 21.065 C 18.437 21.011,17.197 21.009,16.773 21.061 M24.427 21.051 C 24.206 21.095,24.004 21.276,23.862 21.556 C 23.703 21.869,23.398 22.658,22.210 25.821 C 21.157 28.626,21.054 28.926,21.046 29.200 C 21.030 29.757,21.810 30.162,22.345 29.875 C 22.588 29.745,22.801 29.352,23.178 28.341 L 23.478 27.535 23.881 27.501 C 24.102 27.482,24.577 27.467,24.936 27.467 L 25.589 27.467 25.922 28.456 C 26.297 29.567,26.448 29.830,26.758 29.917 C 27.208 30.042,27.574 29.945,27.806 29.641 C 28.081 29.280,28.053 29.168,26.615 24.853 C 25.592 21.785,25.399 21.289,25.186 21.163 C 25.024 21.067,24.632 21.009,24.427 21.051 M5.447 21.214 C 5.065 21.405,4.634 21.839,4.447 22.221 C 4.302 22.516,4.293 22.571,4.293 23.227 C 4.293 23.898,4.299 23.931,4.467 24.286 C 4.681 24.740,5.183 25.269,6.187 26.104 C 7.215 26.958,7.360 27.141,7.360 27.582 C 7.360 27.859,7.209 28.070,6.933 28.181 C 6.575 28.324,6.206 28.291,5.552 28.058 C 4.711 27.757,4.573 27.756,4.274 28.040 C 3.862 28.432,3.946 29.038,4.463 29.393 C 5.154 29.869,6.378 30.099,7.140 29.896 C 8.591 29.510,9.339 28.105,8.851 26.686 C 8.639 26.072,8.342 25.734,7.086 24.684 C 6.598 24.276,6.135 23.851,6.058 23.739 C 5.974 23.618,5.904 23.430,5.886 23.272 C 5.858 23.041,5.871 22.987,5.988 22.852 L 6.121 22.697 6.594 22.758 C 6.854 22.791,7.277 22.885,7.535 22.965 L 8.003 23.112 8.250 23.009 C 8.532 22.892,8.692 22.647,8.730 22.277 C 8.767 21.909,8.630 21.721,8.133 21.457 C 7.575 21.160,7.147 21.066,6.363 21.069 C 5.788 21.070,5.708 21.083,5.447 21.214 M19.115 22.845 C 19.190 22.894,19.269 23.000,19.291 23.081 C 19.343 23.274,19.344 24.308,19.293 24.492 C 19.226 24.732,18.997 24.809,18.258 24.840 L 17.600 24.869 17.600 23.787 L 17.600 22.706 18.289 22.731 C 18.813 22.750,19.011 22.777,19.115 22.845 M24.783 25.053 C 24.848 25.231,24.916 25.463,24.936 25.568 L 24.972 25.760 24.593 25.760 C 24.325 25.760,24.213 25.740,24.213 25.693 C 24.212 25.552,24.560 24.693,24.612 24.710 C 24.642 24.720,24.719 24.874,24.783 25.053 " fill="#1A1C1F" stroke="none" fill-rule="evenodd"></path></svg>