<svg width="20" height="20" viewBox="0 0 20 20" fill="none" xmlns="http://www.w3.org/2000/svg"><path d="M5.503 2.069 C 5.294 2.111,4.889 2.351,4.646 2.576 C 4.398 2.807,4.261 3.012,4.123 3.359 L 4.021 3.617 4.008 6.433 L 3.994 9.250 4.100 9.550 C 4.238 9.940,4.348 10.108,4.660 10.405 C 4.949 10.680,5.157 10.805,5.470 10.891 C 5.669 10.946,5.976 10.950,10.000 10.950 C 14.024 10.950,14.331 10.946,14.530 10.891 C 15.151 10.720,15.614 10.267,15.887 9.563 L 16.009 9.250 15.988 6.483 C 15.975 4.888,15.952 3.647,15.933 3.553 C 15.824 3.012,15.352 2.465,14.745 2.175 L 14.483 2.050 10.067 2.045 C 7.638 2.042,5.584 2.053,5.503 2.069 M14.000 6.500 L 14.000 9.000 10.000 9.000 L 6.000 9.000 6.000 6.500 L 6.000 4.000 10.000 4.000 L 14.000 4.000 14.000 6.500 M7.000 7.500 L 7.000 8.000 9.000 8.000 L 11.000 8.000 11.000 7.500 L 11.000 7.000 9.000 7.000 L 7.000 7.000 7.000 7.500 M4.267 13.047 C 3.599 13.197,3.233 13.671,3.275 14.331 C 3.301 14.734,3.397 14.939,3.698 15.233 C 3.839 15.371,4.109 15.596,4.299 15.733 C 4.978 16.226,5.146 16.373,5.199 16.525 C 5.244 16.656,5.243 16.671,5.179 16.758 C 4.986 17.017,4.619 17.054,4.063 16.872 C 3.693 16.750,3.465 16.737,3.314 16.830 C 3.197 16.901,3.100 17.080,3.100 17.225 C 3.100 17.540,3.632 17.860,4.337 17.970 C 4.906 18.058,5.520 17.874,5.873 17.510 C 6.207 17.165,6.324 16.540,6.134 16.110 C 5.981 15.763,5.786 15.573,5.033 15.034 C 4.459 14.623,4.267 14.419,4.267 14.223 C 4.267 14.180,4.294 14.119,4.328 14.088 C 4.422 14.004,4.814 14.017,5.233 14.119 C 5.638 14.217,5.745 14.208,5.894 14.063 C 6.050 13.909,6.091 13.741,6.018 13.549 C 5.922 13.296,5.605 13.141,5.000 13.049 C 4.627 12.992,4.513 12.992,4.267 13.047 M7.157 13.030 C 6.955 13.053,6.917 13.070,6.799 13.185 L 6.667 13.314 6.667 15.504 L 6.667 17.695 6.775 17.810 C 6.945 17.990,7.097 18.008,8.368 17.995 C 9.406 17.984,9.466 17.980,9.553 17.916 C 9.686 17.816,9.767 17.642,9.767 17.454 C 9.767 17.307,9.753 17.277,9.638 17.167 L 9.509 17.044 8.929 17.022 C 8.611 17.010,8.196 17.000,8.008 17.000 L 7.667 17.000 7.667 16.453 L 7.667 15.906 8.325 15.894 C 9.064 15.881,9.149 15.859,9.246 15.654 C 9.377 15.377,9.328 15.164,9.097 15.011 C 8.977 14.931,8.943 14.927,8.319 14.909 L 7.667 14.890 7.667 14.448 L 7.667 14.007 8.508 13.994 C 9.426 13.981,9.437 13.979,9.588 13.780 C 9.752 13.565,9.699 13.265,9.468 13.101 C 9.385 13.042,9.297 13.035,8.380 13.020 C 7.832 13.012,7.282 13.016,7.157 13.030 M14.947 13.023 C 14.908 13.030,14.829 13.077,14.771 13.127 C 14.650 13.230,14.566 13.428,13.880 15.230 C 13.282 16.800,13.054 17.477,13.080 17.606 C 13.111 17.764,13.222 17.890,13.383 17.952 C 13.548 18.015,13.682 18.002,13.822 17.910 C 13.921 17.845,14.115 17.453,14.302 16.942 L 14.415 16.633 14.999 16.633 L 15.583 16.633 15.744 17.109 C 15.920 17.634,16.007 17.812,16.134 17.906 C 16.363 18.076,16.705 17.981,16.836 17.712 C 16.908 17.563,16.908 17.560,16.849 17.339 C 16.742 16.939,15.595 13.521,15.505 13.333 C 15.434 13.187,15.387 13.135,15.268 13.075 C 15.122 13.001,15.086 12.995,14.947 13.023 M10.429 13.115 C 10.211 13.263,10.217 13.194,10.217 15.535 C 10.217 17.933,10.195 17.747,10.498 17.912 C 10.703 18.024,10.839 18.014,11.004 17.875 C 11.185 17.722,11.200 17.644,11.200 16.834 L 11.200 16.100 11.509 16.100 C 12.255 16.100,12.662 15.979,12.965 15.668 C 13.246 15.380,13.363 14.890,13.299 14.269 C 13.245 13.749,13.103 13.485,12.751 13.252 C 12.474 13.068,12.256 13.035,11.333 13.034 C 10.557 13.033,10.548 13.034,10.429 13.115 M12.159 14.062 C 12.265 14.119,12.317 14.294,12.315 14.591 C 12.315 14.814,12.302 14.882,12.246 14.957 C 12.155 15.078,12.089 15.093,11.608 15.097 L 11.200 15.100 11.200 14.545 L 11.200 13.990 11.647 14.009 C 11.892 14.019,12.123 14.043,12.159 14.062 M15.131 15.285 C 15.242 15.581,15.234 15.600,15.002 15.600 L 14.805 15.600 14.888 15.392 C 15.007 15.094,15.004 15.100,15.035 15.100 C 15.050 15.100,15.093 15.183,15.131 15.285 " fill="#1A1C1F" stroke="none" fill-rule="evenodd"></path></svg>