<svg width="28" height="28" viewBox="0 0 28 28" fill="none" xmlns="http://www.w3.org/2000/svg"><path d="M7.047 1.818 L 4.457 1.843 4.083 2.053 C 3.368 2.456,2.854 3.097,2.698 3.784 C 2.655 3.975,2.640 5.306,2.639 9.263 L 2.637 14.490 2.791 14.848 C 3.152 15.683,3.621 16.142,4.460 16.478 L 4.814 16.619 13.875 16.598 C 20.120 16.583,23.038 16.561,23.263 16.526 C 24.155 16.386,24.981 15.601,25.313 14.577 C 25.384 14.359,25.389 13.884,25.376 9.117 C 25.359 3.285,25.386 3.731,25.023 3.130 C 24.774 2.719,24.341 2.301,23.908 2.054 L 23.543 1.846 20.860 1.814 C 17.884 1.778,11.037 1.780,7.047 1.818 M23.197 3.663 C 23.601 3.949,23.563 3.512,23.593 8.213 C 23.608 10.511,23.603 12.832,23.581 13.372 C 23.538 14.465,23.539 14.463,23.159 14.751 L 22.983 14.884 14.000 14.884 L 5.017 14.884 4.841 14.751 C 4.460 14.462,4.461 14.468,4.419 13.348 C 4.398 12.795,4.392 10.476,4.407 8.194 C 4.436 3.611,4.410 3.956,4.743 3.701 C 4.905 3.578,4.951 3.568,5.503 3.543 C 5.826 3.528,9.894 3.517,14.544 3.519 L 22.999 3.523 23.197 3.663 M19.923 5.314 C 19.673 5.367,19.460 5.542,19.352 5.782 C 19.272 5.961,19.255 6.095,19.253 6.580 C 19.250 7.231,19.312 7.427,19.599 7.669 C 19.789 7.828,19.979 7.864,20.650 7.862 C 21.084 7.862,21.242 7.844,21.355 7.783 C 21.541 7.682,21.782 7.408,21.828 7.244 C 21.874 7.077,21.874 6.138,21.826 5.916 C 21.784 5.717,21.607 5.486,21.421 5.390 C 21.271 5.313,20.184 5.257,19.923 5.314 M6.705 11.467 C 6.513 11.496,6.235 11.796,6.163 12.051 C 6.116 12.222,6.115 12.301,6.161 12.444 C 6.236 12.680,6.400 12.895,6.598 13.017 L 6.758 13.116 11.347 13.103 L 15.937 13.090 16.169 12.973 C 16.465 12.825,16.571 12.647,16.576 12.285 C 16.581 11.943,16.477 11.714,16.246 11.554 L 16.072 11.433 11.454 11.440 C 8.915 11.444,6.777 11.456,6.705 11.467 M9.425 18.429 C 9.108 18.463,8.954 18.558,8.839 18.792 C 8.756 18.960,8.750 19.143,8.735 22.008 C 8.725 23.860,8.736 25.197,8.765 25.433 C 8.818 25.875,8.899 26.017,9.173 26.157 C 9.346 26.245,9.449 26.250,10.975 26.250 C 12.544 26.250,12.597 26.247,12.725 26.152 C 13.058 25.906,13.177 25.545,13.037 25.208 C 12.884 24.839,12.842 24.828,11.421 24.794 L 10.186 24.765 10.156 24.416 C 10.140 24.223,10.127 23.809,10.127 23.495 L 10.127 22.924 11.025 22.904 C 12.093 22.879,12.225 22.842,12.367 22.530 C 12.482 22.278,12.482 22.057,12.369 21.808 C 12.230 21.500,12.139 21.475,11.066 21.438 L 10.127 21.405 10.127 20.646 L 10.127 19.886 11.282 19.871 C 12.584 19.855,12.640 19.842,12.862 19.506 C 13.154 19.066,12.889 18.504,12.355 18.428 C 12.067 18.387,9.801 18.388,9.425 18.429 M14.622 18.429 C 14.364 18.461,14.242 18.543,14.090 18.788 C 13.999 18.936,13.997 19.009,14.010 22.346 C 14.023 25.704,14.025 25.755,14.120 25.882 C 14.297 26.120,14.449 26.200,14.723 26.200 C 14.928 26.200,15.000 26.178,15.099 26.085 C 15.368 25.834,15.375 25.794,15.392 24.442 L 15.408 23.193 15.929 23.193 C 16.216 23.193,16.568 23.173,16.712 23.150 C 17.267 23.059,17.363 23.014,17.688 22.687 C 18.193 22.180,18.340 21.758,18.340 20.819 C 18.340 19.924,18.159 19.368,17.728 18.937 C 17.407 18.616,17.087 18.480,16.529 18.430 C 16.022 18.385,14.990 18.384,14.622 18.429 M21.373 18.419 C 21.166 18.460,20.961 18.660,20.820 18.959 C 20.680 19.254,19.574 22.190,18.828 24.243 C 18.599 24.874,18.419 25.445,18.416 25.550 C 18.401 26.037,19.083 26.392,19.552 26.141 C 19.764 26.027,19.951 25.683,20.281 24.798 L 20.544 24.093 20.896 24.063 C 21.089 24.047,21.505 24.033,21.819 24.033 L 22.390 24.033 22.682 24.899 C 23.009 25.871,23.142 26.102,23.413 26.177 C 23.807 26.286,24.127 26.202,24.331 25.936 C 24.488 25.729,24.489 25.523,24.335 24.984 C 24.171 24.409,23.061 21.020,22.695 19.973 C 22.279 18.784,22.190 18.595,22.007 18.508 C 21.835 18.426,21.542 18.385,21.373 18.419 M4.766 18.562 C 4.432 18.730,4.055 19.109,3.891 19.444 C 3.764 19.702,3.757 19.750,3.757 20.323 C 3.757 20.911,3.761 20.940,3.908 21.250 C 4.090 21.633,4.537 22.113,5.297 22.740 C 6.295 23.563,6.440 23.736,6.440 24.100 C 6.440 24.388,6.362 24.513,6.101 24.646 C 5.820 24.789,5.340 24.748,4.783 24.532 C 4.152 24.288,3.981 24.288,3.732 24.537 C 3.598 24.671,3.547 24.766,3.523 24.932 C 3.438 25.498,3.992 25.947,5.038 26.159 C 6.272 26.409,7.344 25.887,7.751 24.837 C 7.901 24.451,7.902 23.801,7.754 23.368 C 7.562 22.810,7.278 22.492,6.084 21.499 C 5.339 20.880,5.190 20.698,5.150 20.363 C 5.126 20.161,5.137 20.114,5.239 19.995 L 5.356 19.860 5.770 19.913 C 5.997 19.942,6.360 20.022,6.577 20.091 C 7.024 20.233,7.215 20.212,7.431 19.996 C 7.678 19.749,7.710 19.233,7.492 19.015 C 7.334 18.856,6.764 18.583,6.428 18.504 C 6.254 18.462,5.911 18.435,5.577 18.436 C 5.063 18.437,4.996 18.447,4.766 18.562 M16.726 19.990 C 16.791 20.033,16.861 20.125,16.880 20.196 C 16.926 20.367,16.926 21.270,16.880 21.435 C 16.825 21.634,16.592 21.709,15.948 21.736 L 15.400 21.759 15.400 20.814 L 15.400 19.868 16.003 19.889 C 16.461 19.906,16.635 19.930,16.726 19.990 M21.719 22.017 C 21.785 22.230,21.840 22.435,21.840 22.472 C 21.840 22.525,21.767 22.540,21.513 22.540 C 21.256 22.540,21.187 22.525,21.187 22.471 C 21.187 22.411,21.266 22.186,21.464 21.681 C 21.534 21.501,21.573 21.552,21.719 22.017 " fill="#1A1C1F" stroke="none" fill-rule="evenodd"></path></svg>