<svg width="16" height="16" viewBox="0 0 16 16" fill="none" xmlns="http://www.w3.org/2000/svg"><path d="M4.480 1.656 C 4.135 1.700,3.708 1.991,3.477 2.340 C 3.422 2.423,3.341 2.581,3.297 2.692 L 3.216 2.893 3.205 5.160 L 3.194 7.427 3.278 7.644 C 3.390 7.935,3.526 8.138,3.753 8.351 C 3.959 8.544,4.242 8.701,4.467 8.748 C 4.648 8.785,10.143 8.812,10.960 8.779 C 11.564 8.755,11.592 8.752,11.747 8.680 C 12.247 8.448,12.523 8.152,12.719 7.637 L 12.802 7.421 12.794 5.157 L 12.787 2.893 12.697 2.671 C 12.532 2.261,12.251 1.970,11.804 1.745 L 11.568 1.627 8.111 1.630 C 6.209 1.632,4.575 1.643,4.480 1.656 M11.200 5.200 L 11.200 7.200 8.000 7.200 L 4.800 7.200 4.800 5.200 L 4.800 3.200 8.000 3.200 L 11.200 3.200 11.200 5.200 M5.600 6.000 L 5.600 6.400 7.200 6.400 L 8.800 6.400 8.800 6.000 L 8.800 5.600 7.200 5.600 L 5.600 5.600 5.600 6.000 M5.617 10.437 C 5.560 10.459,5.473 10.515,5.423 10.563 L 5.333 10.650 5.333 12.400 L 5.333 14.150 5.421 14.245 C 5.556 14.393,5.671 14.406,6.694 14.396 C 7.525 14.387,7.573 14.384,7.642 14.332 C 7.749 14.253,7.813 14.114,7.813 13.963 C 7.813 13.845,7.803 13.822,7.710 13.734 L 7.607 13.635 7.159 13.618 C 6.913 13.608,6.581 13.600,6.422 13.600 L 6.133 13.600 6.133 13.163 L 6.133 12.726 6.647 12.714 C 7.227 12.701,7.326 12.677,7.401 12.531 C 7.461 12.415,7.444 12.159,7.372 12.077 C 7.272 11.965,7.164 11.943,6.635 11.927 L 6.133 11.912 6.133 11.556 L 6.133 11.200 6.713 11.198 C 7.440 11.196,7.530 11.183,7.642 11.060 C 7.811 10.876,7.779 10.626,7.569 10.487 L 7.466 10.419 6.593 10.409 C 5.875 10.400,5.702 10.405,5.617 10.437 M11.887 10.455 C 11.825 10.488,11.766 10.549,11.731 10.617 C 11.602 10.870,10.690 13.257,10.519 13.789 C 10.435 14.050,10.441 14.114,10.562 14.251 C 10.719 14.430,10.945 14.441,11.104 14.278 C 11.185 14.194,11.337 13.857,11.495 13.407 L 11.531 13.307 11.999 13.307 L 12.468 13.307 12.584 13.660 C 12.761 14.197,12.821 14.299,13.008 14.373 C 13.126 14.419,13.272 14.375,13.399 14.256 C 13.563 14.101,13.554 14.060,13.036 12.485 C 12.615 11.203,12.400 10.605,12.338 10.537 C 12.271 10.463,12.135 10.399,12.048 10.401 C 12.014 10.402,11.942 10.426,11.887 10.455 M3.333 10.452 C 3.066 10.534,2.804 10.747,2.692 10.974 C 2.634 11.091,2.627 11.142,2.627 11.413 C 2.627 11.679,2.635 11.736,2.688 11.845 C 2.773 12.017,3.222 12.441,3.615 12.719 C 4.138 13.091,4.233 13.214,4.143 13.404 C 4.046 13.608,3.678 13.644,3.219 13.495 C 3.075 13.448,2.912 13.409,2.857 13.409 C 2.454 13.403,2.353 13.906,2.712 14.134 C 2.972 14.299,3.531 14.422,3.863 14.387 C 4.202 14.350,4.521 14.200,4.721 13.981 C 5.059 13.611,5.069 12.992,4.741 12.617 C 4.615 12.472,4.397 12.291,4.061 12.052 C 3.575 11.706,3.413 11.538,3.413 11.379 C 3.413 11.344,3.438 11.293,3.467 11.266 C 3.544 11.196,3.818 11.207,4.154 11.292 C 4.468 11.371,4.528 11.375,4.646 11.318 C 4.771 11.257,4.835 11.158,4.847 11.002 C 4.856 10.892,4.846 10.849,4.795 10.774 C 4.659 10.574,4.172 10.426,3.667 10.429 C 3.520 10.430,3.370 10.440,3.333 10.452 M8.363 10.478 C 8.320 10.506,8.260 10.569,8.229 10.617 C 8.175 10.704,8.173 10.736,8.165 12.106 C 8.160 12.877,8.164 13.655,8.174 13.837 C 8.192 14.163,8.194 14.168,8.281 14.264 C 8.367 14.358,8.374 14.360,8.568 14.360 C 8.730 14.360,8.779 14.350,8.828 14.307 C 8.947 14.200,8.960 14.120,8.960 13.481 L 8.960 12.880 9.207 12.880 C 9.802 12.880,10.117 12.787,10.366 12.538 C 10.596 12.308,10.691 11.919,10.639 11.415 C 10.604 11.080,10.529 10.897,10.358 10.730 C 10.084 10.462,9.931 10.427,9.053 10.427 C 8.495 10.427,8.433 10.432,8.363 10.478 M9.727 11.250 C 9.812 11.295,9.853 11.435,9.852 11.673 C 9.852 11.851,9.841 11.906,9.797 11.965 C 9.724 12.063,9.671 12.074,9.287 12.077 L 8.960 12.080 8.960 11.636 L 8.960 11.192 9.317 11.207 C 9.514 11.215,9.698 11.235,9.727 11.250 " fill="#1A1C1F" stroke="none" fill-rule="evenodd"></path></svg>