<svg width="20" height="20" viewBox="0 0 20 20" fill="none" xmlns="http://www.w3.org/2000/svg"><path d="M6.800 2.032 C 5.344 2.052,5.438 2.038,5.021 2.290 C 4.578 2.557,4.227 2.982,4.091 3.415 C 4.017 3.650,4.017 3.652,4.017 6.467 C 4.017 9.070,4.021 9.300,4.076 9.500 C 4.237 10.084,4.774 10.647,5.386 10.874 L 5.583 10.948 9.950 10.949 C 14.886 10.950,14.526 10.969,14.987 10.682 C 15.409 10.419,15.737 10.009,15.904 9.533 L 15.980 9.317 15.982 6.533 C 15.983 3.982,15.978 3.732,15.924 3.537 C 15.771 2.978,15.382 2.509,14.830 2.218 L 14.517 2.052 13.250 2.029 C 11.836 2.003,8.802 2.005,6.800 2.032 M11.000 8.000 L 11.000 9.000 8.500 9.000 L 6.000 9.000 6.000 8.000 L 6.000 7.000 8.500 7.000 L 11.000 7.000 11.000 8.000 M4.267 13.047 C 3.599 13.197,3.233 13.671,3.275 14.331 C 3.301 14.734,3.397 14.939,3.698 15.233 C 3.839 15.371,4.109 15.596,4.298 15.733 C 5.266 16.436,5.358 16.556,5.130 16.815 C 4.937 17.035,4.628 17.050,4.058 16.867 C 3.533 16.699,3.248 16.753,3.139 17.041 C 3.000 17.404,3.303 17.702,4.017 17.905 C 4.388 18.010,4.924 18.009,5.233 17.903 C 5.904 17.672,6.283 17.124,6.222 16.473 C 6.175 15.970,5.936 15.677,5.067 15.059 C 4.469 14.633,4.267 14.422,4.267 14.223 C 4.267 14.180,4.294 14.119,4.328 14.088 C 4.422 14.004,4.814 14.017,5.233 14.119 C 5.638 14.217,5.745 14.208,5.894 14.063 C 6.050 13.909,6.091 13.741,6.018 13.549 C 5.922 13.296,5.605 13.141,5.000 13.049 C 4.627 12.992,4.513 12.992,4.267 13.047 M7.157 13.030 C 6.955 13.053,6.917 13.070,6.799 13.185 L 6.667 13.314 6.667 15.504 L 6.667 17.695 6.775 17.810 C 6.945 17.990,7.097 18.008,8.368 17.995 C 9.406 17.984,9.466 17.980,9.553 17.916 C 9.686 17.816,9.767 17.642,9.767 17.454 C 9.767 17.307,9.753 17.277,9.638 17.167 L 9.509 17.044 8.929 17.022 C 8.611 17.010,8.196 17.000,8.008 17.000 L 7.667 17.000 7.667 16.453 L 7.667 15.906 8.325 15.894 C 9.064 15.881,9.149 15.859,9.246 15.654 C 9.377 15.377,9.328 15.164,9.097 15.011 C 8.977 14.931,8.943 14.927,8.319 14.909 L 7.667 14.890 7.667 14.448 L 7.667 14.007 8.508 13.994 C 9.426 13.981,9.437 13.979,9.588 13.780 C 9.752 13.565,9.699 13.265,9.468 13.101 C 9.385 13.042,9.297 13.035,8.380 13.020 C 7.832 13.012,7.282 13.016,7.157 13.030 M14.947 13.023 C 14.908 13.030,14.829 13.077,14.771 13.127 C 14.650 13.230,14.566 13.428,13.880 15.230 C 13.282 16.800,13.054 17.477,13.080 17.606 C 13.111 17.764,13.222 17.890,13.383 17.952 C 13.548 18.015,13.682 18.002,13.822 17.910 C 13.921 17.845,14.115 17.453,14.302 16.942 L 14.415 16.633 14.999 16.633 L 15.583 16.633 15.744 17.109 C 15.920 17.634,16.007 17.812,16.134 17.906 C 16.363 18.076,16.705 17.981,16.836 17.712 C 16.908 17.563,16.908 17.560,16.849 17.339 C 16.742 16.939,15.595 13.521,15.505 13.333 C 15.434 13.187,15.387 13.135,15.268 13.075 C 15.122 13.001,15.086 12.995,14.947 13.023 M10.429 13.115 C 10.211 13.263,10.217 13.194,10.217 15.535 C 10.217 17.933,10.195 17.747,10.498 17.912 C 10.703 18.024,10.839 18.014,11.004 17.875 C 11.185 17.722,11.200 17.644,11.200 16.834 L 11.200 16.100 11.509 16.100 C 12.255 16.100,12.662 15.979,12.965 15.668 C 13.246 15.380,13.363 14.890,13.299 14.269 C 13.245 13.749,13.103 13.485,12.751 13.252 C 12.474 13.068,12.256 13.035,11.333 13.034 C 10.557 13.033,10.548 13.034,10.429 13.115 M12.159 14.062 C 12.265 14.119,12.317 14.294,12.315 14.591 C 12.315 14.814,12.302 14.882,12.246 14.957 C 12.155 15.078,12.089 15.093,11.608 15.097 L 11.200 15.100 11.200 14.545 L 11.200 13.990 11.647 14.009 C 11.892 14.019,12.123 14.043,12.159 14.062 M15.131 15.285 C 15.242 15.581,15.234 15.600,15.002 15.600 L 14.805 15.600 14.888 15.392 C 15.007 15.094,15.004 15.100,15.035 15.100 C 15.050 15.100,15.093 15.183,15.131 15.285 " fill="#1A1C1F" stroke="none" fill-rule="evenodd"></path></svg>