<svg width="14" height="14" viewBox="0 0 14 14" fill="none" xmlns="http://www.w3.org/2000/svg"><path d="M3.920 1.446 C 3.695 1.469,3.466 1.597,3.231 1.831 C 3.034 2.027,2.935 2.185,2.849 2.443 C 2.801 2.586,2.800 2.623,2.800 4.543 L 2.801 6.498 2.869 6.692 C 2.950 6.920,3.089 7.124,3.295 7.316 C 3.469 7.478,3.622 7.566,3.829 7.624 C 3.968 7.662,4.185 7.665,7.047 7.665 L 10.115 7.665 10.348 7.551 C 10.778 7.342,11.085 6.956,11.158 6.533 C 11.202 6.278,11.202 2.765,11.158 2.532 C 11.101 2.230,10.945 1.985,10.646 1.724 C 10.447 1.550,10.283 1.475,10.043 1.448 C 9.811 1.421,4.176 1.419,3.920 1.446 M7.700 5.600 L 7.700 6.300 5.950 6.300 L 4.200 6.300 4.200 5.600 L 4.200 4.900 5.950 4.900 L 7.700 4.900 7.700 5.600 M4.958 9.122 C 4.861 9.145,4.806 9.178,4.730 9.258 L 4.665 9.326 4.672 10.856 L 4.678 12.387 4.746 12.458 C 4.882 12.600,4.925 12.605,5.817 12.596 C 6.585 12.589,6.626 12.586,6.687 12.541 C 6.780 12.471,6.837 12.350,6.837 12.218 C 6.837 12.115,6.827 12.094,6.746 12.017 C 6.659 11.934,6.648 11.930,6.439 11.915 C 6.320 11.907,6.030 11.900,5.795 11.900 L 5.367 11.900 5.367 11.517 L 5.367 11.134 5.828 11.126 C 6.367 11.116,6.414 11.102,6.491 10.927 C 6.547 10.801,6.537 10.697,6.461 10.590 C 6.376 10.471,6.292 10.451,5.806 10.436 L 5.367 10.423 5.367 10.113 L 5.367 9.803 5.948 9.796 L 6.529 9.788 6.631 9.717 C 6.814 9.588,6.833 9.376,6.674 9.217 L 6.588 9.131 6.195 9.115 C 5.704 9.096,5.051 9.099,4.958 9.122 M2.755 9.209 C 2.567 9.316,2.414 9.466,2.350 9.609 C 2.310 9.698,2.301 9.766,2.300 9.975 C 2.298 10.213,2.303 10.242,2.367 10.372 C 2.458 10.557,2.713 10.807,3.070 11.059 C 3.537 11.389,3.646 11.498,3.646 11.635 C 3.646 11.802,3.511 11.884,3.232 11.884 C 3.077 11.884,3.001 11.869,2.786 11.795 C 2.480 11.691,2.400 11.694,2.276 11.819 C 2.132 11.963,2.144 12.158,2.305 12.299 C 2.468 12.443,2.804 12.560,3.139 12.591 C 3.615 12.634,4.094 12.392,4.278 12.014 C 4.335 11.899,4.342 11.857,4.342 11.655 C 4.342 11.300,4.305 11.208,4.062 10.965 C 3.952 10.855,3.714 10.658,3.533 10.528 C 3.076 10.200,2.957 10.062,2.996 9.907 C 3.027 9.782,3.322 9.778,3.707 9.898 C 3.919 9.964,4.013 9.960,4.114 9.884 C 4.332 9.717,4.315 9.459,4.077 9.315 C 4.010 9.275,3.909 9.226,3.854 9.206 C 3.738 9.166,3.340 9.123,3.080 9.124 C 2.922 9.124,2.890 9.132,2.755 9.209 M7.308 9.173 C 7.147 9.277,7.152 9.228,7.145 10.652 C 7.138 11.964,7.154 12.348,7.220 12.450 C 7.314 12.593,7.564 12.632,7.705 12.525 C 7.823 12.435,7.840 12.338,7.840 11.765 L 7.840 11.277 8.173 11.263 C 8.661 11.242,8.869 11.177,9.053 10.989 C 9.213 10.827,9.286 10.656,9.315 10.380 C 9.382 9.741,9.161 9.317,8.684 9.169 C 8.553 9.129,8.467 9.123,7.960 9.124 C 7.416 9.124,7.381 9.127,7.308 9.173 M10.344 9.188 C 10.292 9.234,10.235 9.341,10.142 9.567 C 9.847 10.288,9.298 11.756,9.192 12.107 C 9.148 12.253,9.145 12.291,9.168 12.368 C 9.237 12.599,9.595 12.673,9.730 12.484 C 9.792 12.396,9.910 12.134,10.011 11.859 L 10.090 11.643 10.500 11.643 L 10.910 11.643 10.977 11.848 C 11.090 12.196,11.179 12.413,11.239 12.484 C 11.363 12.631,11.599 12.625,11.732 12.473 C 11.850 12.339,11.847 12.307,11.681 11.769 C 11.535 11.301,10.981 9.652,10.875 9.375 C 10.803 9.188,10.720 9.123,10.550 9.123 C 10.438 9.123,10.405 9.133,10.344 9.188 M8.511 9.844 C 8.585 9.883,8.622 10.006,8.622 10.212 C 8.622 10.370,8.613 10.415,8.573 10.469 C 8.508 10.555,8.463 10.565,8.126 10.568 L 7.840 10.570 7.840 10.182 L 7.840 9.793 8.153 9.806 C 8.325 9.813,8.486 9.830,8.511 9.844 " fill="#1A1C1F" stroke="none" fill-rule="evenodd"></path></svg>