<svg width="24" height="24" viewBox="0 0 24 24" fill="none" xmlns="http://www.w3.org/2000/svg"><path d="M5.540 2.080 C 4.994 2.121,4.469 2.370,3.958 2.829 C 3.550 3.196,3.167 3.865,3.079 4.363 C 3.016 4.715,2.981 10.392,3.032 11.700 C 3.068 12.607,3.081 12.725,3.170 12.968 C 3.320 13.377,3.584 13.788,3.897 14.101 C 4.226 14.429,4.512 14.610,5.040 14.825 L 5.420 14.980 12.020 14.977 L 18.620 14.973 19.000 14.816 C 19.483 14.615,19.792 14.412,20.125 14.077 C 20.450 13.750,20.680 13.372,20.867 12.854 L 21.009 12.460 20.988 8.460 C 20.968 4.478,20.968 4.459,20.880 4.180 C 20.609 3.319,20.057 2.696,19.206 2.289 C 18.872 2.130,18.787 2.107,18.426 2.077 C 17.946 2.037,6.064 2.040,5.540 2.080 M18.570 4.210 C 18.671 4.293,18.795 4.428,18.847 4.510 L 18.940 4.660 18.940 8.500 L 18.940 12.340 18.830 12.527 C 18.692 12.761,18.549 12.865,18.275 12.929 C 17.959 13.004,6.041 13.003,5.718 12.929 C 5.584 12.898,5.435 12.828,5.343 12.752 C 5.042 12.504,5.061 12.773,5.049 8.589 C 5.041 6.034,5.051 4.788,5.080 4.681 C 5.104 4.589,5.201 4.438,5.311 4.318 C 5.480 4.135,5.524 4.110,5.720 4.081 C 5.841 4.064,8.741 4.052,12.164 4.055 L 18.387 4.060 18.570 4.210 M16.482 5.170 C 15.766 5.604,15.916 6.673,16.730 6.943 C 17.227 7.109,17.787 6.789,17.945 6.249 C 18.046 5.902,17.948 5.555,17.674 5.292 C 17.484 5.111,17.287 5.040,16.970 5.040 C 16.732 5.040,16.668 5.057,16.482 5.170 M7.700 9.077 C 7.513 9.122,7.421 9.184,7.249 9.380 C 7.101 9.548,7.000 9.795,7.000 9.990 C 7.000 10.195,7.135 10.499,7.307 10.683 C 7.592 10.988,7.487 10.979,11.000 10.979 C 14.464 10.979,14.402 10.984,14.671 10.709 C 14.762 10.616,14.866 10.470,14.901 10.384 C 14.989 10.173,14.983 9.804,14.888 9.590 C 14.794 9.377,14.533 9.138,14.333 9.083 C 14.158 9.034,7.900 9.029,7.700 9.077 M9.113 17.027 C 8.868 17.042,8.835 17.055,8.726 17.180 C 8.639 17.279,8.599 17.373,8.580 17.530 C 8.565 17.648,8.559 18.616,8.567 19.682 C 8.582 21.806,8.581 21.799,8.820 21.920 C 8.918 21.969,9.170 21.982,10.165 21.992 L 11.391 22.004 11.515 21.853 C 11.681 21.651,11.714 21.465,11.616 21.282 C 11.495 21.057,11.416 21.039,10.441 21.012 L 9.560 20.987 9.560 20.458 L 9.560 19.930 10.190 19.910 C 10.898 19.888,11.053 19.849,11.147 19.667 C 11.253 19.461,11.236 19.267,11.095 19.093 L 10.971 18.940 10.266 18.929 L 9.560 18.918 9.560 18.459 L 9.560 18.000 10.310 18.000 C 11.124 18.000,11.320 17.968,11.464 17.812 C 11.657 17.603,11.604 17.226,11.365 17.102 C 11.256 17.046,9.668 16.993,9.113 17.027 M12.740 17.028 C 12.449 17.047,12.380 17.068,12.243 17.184 L 12.120 17.287 12.120 19.500 L 12.120 21.713 12.242 21.815 C 12.433 21.976,12.639 22.023,12.806 21.944 C 13.069 21.819,13.098 21.715,13.114 20.850 L 13.127 20.080 13.554 20.079 C 14.398 20.078,14.806 19.878,15.104 19.320 C 15.164 19.207,15.181 19.070,15.193 18.612 C 15.207 18.067,15.203 18.034,15.102 17.812 C 14.898 17.366,14.521 17.091,14.068 17.059 C 13.671 17.031,12.957 17.015,12.740 17.028 M16.748 17.071 C 16.598 17.163,16.467 17.447,15.909 18.900 C 15.274 20.553,14.992 21.354,14.986 21.523 C 14.974 21.911,15.492 22.146,15.751 21.869 C 15.858 21.755,16.034 21.396,16.202 20.950 L 16.334 20.600 16.904 20.600 L 17.473 20.600 17.603 20.990 C 17.849 21.735,17.968 21.924,18.226 21.978 C 18.373 22.009,18.584 21.932,18.696 21.806 C 18.843 21.641,18.776 21.356,18.128 19.418 C 17.797 18.427,17.481 17.514,17.426 17.389 C 17.271 17.040,17.004 16.914,16.748 17.071 M6.050 17.082 C 5.763 17.139,5.424 17.421,5.236 17.760 C 5.149 17.917,5.164 18.580,5.259 18.775 C 5.381 19.027,5.731 19.371,6.317 19.816 C 7.116 20.423,7.226 20.575,7.038 20.814 C 6.869 21.029,6.498 21.043,5.930 20.858 C 5.512 20.722,5.319 20.727,5.166 20.880 C 5.015 21.031,4.978 21.191,5.053 21.371 C 5.165 21.637,5.632 21.873,6.228 21.963 C 6.988 22.079,7.720 21.754,8.000 21.178 C 8.079 21.015,8.096 20.916,8.098 20.620 C 8.102 19.990,7.964 19.799,6.969 19.053 C 6.320 18.567,6.131 18.360,6.176 18.183 C 6.194 18.111,6.243 18.070,6.350 18.038 C 6.475 18.001,6.582 18.010,6.996 18.096 C 7.618 18.224,7.757 18.196,7.904 17.912 C 8.088 17.556,7.794 17.231,7.166 17.098 C 6.877 17.037,6.321 17.029,6.050 17.082 M14.040 18.080 C 14.157 18.143,14.200 18.281,14.200 18.598 C 14.200 19.025,14.160 19.056,13.584 19.074 L 13.120 19.089 13.120 18.538 L 13.120 17.988 13.538 18.012 C 13.768 18.025,13.994 18.055,14.040 18.080 M17.070 19.450 L 17.091 19.600 16.905 19.600 C 16.803 19.600,16.720 19.592,16.720 19.581 C 16.720 19.566,16.774 19.420,16.898 19.100 C 16.926 19.029,16.936 19.035,16.990 19.160 C 17.022 19.237,17.059 19.367,17.070 19.450 " fill="#1A1C1F" stroke="none" fill-rule="evenodd"></path></svg>