<svg width="12" height="12" viewBox="0 0 12 12" fill="none" xmlns="http://www.w3.org/2000/svg"><path d="M3.372 1.241 C 2.920 1.294,2.474 1.762,2.416 2.246 C 2.403 2.347,2.399 3.015,2.404 4.000 L 2.412 5.590 2.465 5.737 C 2.541 5.950,2.631 6.086,2.801 6.247 C 2.952 6.389,3.152 6.507,3.331 6.559 C 3.389 6.576,4.106 6.580,6.042 6.576 L 8.674 6.570 8.867 6.474 C 9.201 6.308,9.414 6.071,9.538 5.729 L 9.600 5.558 9.600 3.884 L 9.599 2.210 9.533 2.046 C 9.438 1.811,9.348 1.673,9.200 1.533 C 9.008 1.352,8.820 1.263,8.579 1.239 C 8.349 1.217,3.566 1.219,3.372 1.241 M6.600 4.800 L 6.600 5.400 5.100 5.400 L 3.600 5.400 3.600 4.800 L 3.600 4.200 5.100 4.200 L 6.600 4.200 6.600 4.800 M4.290 7.818 C 4.223 7.826,4.146 7.849,4.117 7.868 C 4.011 7.937,4.012 7.930,4.011 9.289 C 4.010 10.714,4.007 10.678,4.150 10.750 C 4.225 10.788,4.270 10.790,4.930 10.790 C 5.590 10.790,5.635 10.788,5.709 10.750 C 5.860 10.674,5.916 10.475,5.823 10.345 C 5.734 10.219,5.706 10.213,5.125 10.204 L 4.600 10.195 4.600 9.870 L 4.600 9.544 4.995 9.537 C 5.458 9.529,5.502 9.515,5.567 9.356 C 5.617 9.237,5.599 9.141,5.511 9.044 C 5.450 8.978,5.433 8.971,5.297 8.957 C 5.216 8.949,5.026 8.942,4.875 8.941 L 4.600 8.940 4.600 8.672 L 4.600 8.404 5.095 8.396 C 5.663 8.386,5.709 8.376,5.770 8.247 C 5.843 8.092,5.797 7.902,5.674 7.851 C 5.599 7.820,4.486 7.794,4.290 7.818 M6.429 7.818 C 6.290 7.832,6.215 7.874,6.166 7.965 C 6.135 8.024,6.131 8.147,6.124 9.284 L 6.115 10.539 6.168 10.629 C 6.232 10.737,6.306 10.780,6.430 10.780 C 6.549 10.780,6.625 10.740,6.683 10.645 C 6.728 10.573,6.730 10.551,6.737 10.115 L 6.744 9.660 6.957 9.660 C 7.427 9.660,7.651 9.573,7.845 9.316 C 7.953 9.173,8.000 9.001,8.000 8.752 C 8.000 8.176,7.747 7.871,7.229 7.820 C 7.016 7.800,6.627 7.799,6.429 7.818 M8.930 7.836 C 8.836 7.896,8.803 7.943,8.721 8.133 C 8.618 8.371,8.046 9.900,7.928 10.250 C 7.837 10.523,7.835 10.532,7.865 10.602 C 7.942 10.784,8.173 10.851,8.301 10.730 C 8.380 10.654,8.422 10.573,8.550 10.250 L 8.652 9.990 8.761 9.977 C 8.821 9.970,8.978 9.963,9.111 9.962 L 9.352 9.960 9.398 10.105 C 9.488 10.386,9.585 10.631,9.633 10.694 C 9.734 10.829,9.927 10.827,10.060 10.690 C 10.144 10.603,10.145 10.545,10.069 10.265 C 9.987 9.964,9.372 8.125,9.310 7.994 C 9.250 7.869,9.197 7.829,9.067 7.810 C 9.011 7.801,8.974 7.808,8.930 7.836 M2.505 7.840 C 2.385 7.865,2.261 7.944,2.142 8.070 C 1.997 8.224,1.974 8.286,1.972 8.550 C 1.970 8.752,1.975 8.779,2.025 8.882 C 2.099 9.032,2.361 9.283,2.670 9.500 C 3.115 9.813,3.210 9.957,3.071 10.107 C 2.964 10.222,2.772 10.223,2.422 10.110 C 2.135 10.017,2.065 10.018,1.963 10.115 C 1.880 10.194,1.845 10.296,1.868 10.388 C 1.892 10.483,1.986 10.566,2.170 10.652 C 2.396 10.758,2.504 10.780,2.789 10.780 C 3.126 10.780,3.331 10.706,3.514 10.517 C 3.741 10.281,3.801 9.901,3.657 9.605 C 3.592 9.470,3.428 9.317,3.034 9.023 C 2.675 8.755,2.589 8.671,2.569 8.568 C 2.549 8.466,2.592 8.435,2.772 8.425 C 2.897 8.417,2.976 8.427,3.149 8.468 C 3.391 8.527,3.445 8.524,3.528 8.446 C 3.646 8.337,3.667 8.165,3.576 8.050 C 3.526 7.986,3.384 7.913,3.229 7.871 C 3.089 7.834,2.627 7.813,2.505 7.840 M7.312 8.449 C 7.375 8.491,7.407 8.621,7.394 8.784 C 7.374 9.025,7.344 9.045,6.995 9.056 L 6.740 9.065 6.740 8.729 L 6.740 8.394 7.003 8.406 C 7.187 8.415,7.279 8.428,7.312 8.449 " fill="#1A1C1F" stroke="none" fill-rule="evenodd"></path></svg>