<svg width="16" height="16" viewBox="0 0 16 16" fill="none" xmlns="http://www.w3.org/2000/svg"><path d="M7.293 1.681 C 6.857 1.773,6.552 1.899,6.170 2.147 C 5.770 2.407,5.365 2.848,5.167 3.239 C 4.982 3.605,4.800 4.300,4.800 4.641 L 4.800 4.800 4.487 4.800 C 4.314 4.800,4.000 4.808,3.789 4.818 L 3.405 4.835 3.243 4.944 C 2.999 5.109,2.934 5.232,2.891 5.620 C 2.847 6.009,2.778 7.036,2.641 9.360 C 2.476 12.139,2.428 13.050,2.422 13.430 C 2.418 13.763,2.421 13.788,2.490 13.929 C 2.571 14.094,2.730 14.249,2.913 14.340 L 3.033 14.400 8.030 14.394 L 13.027 14.387 13.187 14.279 C 13.293 14.207,13.385 14.114,13.460 14.003 L 13.573 13.835 13.573 13.537 C 13.573 12.652,13.177 6.023,13.091 5.470 C 13.076 5.376,13.046 5.265,13.024 5.222 C 12.974 5.124,12.788 4.942,12.684 4.889 C 12.592 4.841,12.103 4.802,11.571 4.801 L 11.208 4.800 11.191 4.565 C 11.137 3.797,10.839 3.127,10.317 2.593 C 9.834 2.101,9.236 1.783,8.576 1.668 C 8.239 1.609,7.604 1.616,7.293 1.681 M8.447 3.267 C 8.903 3.374,9.309 3.723,9.474 4.149 C 9.523 4.275,9.600 4.633,9.600 4.732 L 9.600 4.800 7.997 4.800 L 6.395 4.800 6.414 4.633 C 6.474 4.110,6.680 3.738,7.041 3.497 C 7.208 3.385,7.432 3.290,7.613 3.254 C 7.795 3.217,8.269 3.225,8.447 3.267 M6.408 7.620 C 6.434 8.336,6.600 8.817,6.942 9.168 C 7.115 9.345,7.271 9.446,7.493 9.523 C 7.734 9.606,8.252 9.609,8.500 9.527 C 9.203 9.296,9.600 8.551,9.600 7.461 L 9.600 7.200 10.400 7.200 L 11.200 7.200 11.200 7.407 C 11.199 7.729,11.151 8.338,11.106 8.579 C 10.881 9.791,9.994 10.772,8.843 11.082 C 7.763 11.372,6.586 11.079,5.834 10.333 C 5.349 9.853,5.038 9.286,4.910 8.653 C 4.854 8.379,4.801 7.772,4.800 7.407 L 4.800 7.200 5.596 7.200 L 6.392 7.200 6.408 7.620 " fill="#1A1C1F" stroke="none" fill-rule="evenodd"></path></svg>