<svg width="24" height="24" viewBox="0 0 24 24" fill="none" xmlns="http://www.w3.org/2000/svg"><path d="M11.020 2.617 C 10.029 2.844,9.077 3.536,8.555 4.406 C 8.261 4.897,8.001 5.805,8.000 6.345 L 8.000 6.509 6.842 6.528 L 5.684 6.546 5.497 6.663 C 5.255 6.814,5.091 7.047,5.042 7.308 C 4.964 7.722,4.092 18.495,4.016 19.983 C 4.001 20.270,4.001 20.590,4.017 20.692 C 4.053 20.935,4.291 21.239,4.571 21.399 L 4.780 21.519 11.992 21.520 L 19.203 21.520 19.368 21.436 C 19.591 21.322,19.902 20.996,19.962 20.812 C 20.028 20.613,20.001 20.057,19.799 17.512 C 19.381 12.227,18.988 7.681,18.919 7.314 C 18.859 7.000,18.771 6.858,18.538 6.697 L 18.323 6.548 17.207 6.524 C 16.403 6.507,16.075 6.486,16.032 6.450 C 15.992 6.417,15.962 6.290,15.945 6.084 C 15.897 5.507,15.665 4.790,15.369 4.302 C 15.171 3.976,14.701 3.492,14.341 3.243 C 13.989 3.000,13.465 2.744,13.160 2.666 C 12.827 2.581,11.327 2.547,11.020 2.617 M12.645 4.639 C 13.283 4.837,13.754 5.375,13.902 6.073 C 13.933 6.220,13.959 6.380,13.959 6.430 L 13.960 6.520 11.980 6.520 L 10.000 6.520 10.000 6.409 C 10.000 6.243,10.149 5.740,10.267 5.507 C 10.471 5.104,10.966 4.715,11.444 4.581 C 11.715 4.505,12.308 4.534,12.645 4.639 M15.640 8.555 L 17.060 8.580 17.228 10.720 C 17.515 14.376,17.835 18.559,17.863 19.026 L 17.890 19.473 17.635 19.499 C 17.318 19.531,6.136 19.509,6.103 19.476 C 6.090 19.463,6.161 18.365,6.260 17.036 C 6.558 13.077,6.878 8.955,6.904 8.730 L 6.929 8.520 10.575 8.525 C 12.580 8.528,14.859 8.542,15.640 8.555 M8.748 10.562 C 8.541 10.598,8.284 10.792,8.140 11.022 C 8.024 11.208,8.020 11.230,8.026 11.657 C 8.032 12.141,8.101 12.465,8.318 13.030 C 8.695 14.006,9.708 14.960,10.707 15.280 C 11.233 15.449,11.579 15.493,12.160 15.468 C 13.157 15.425,13.996 15.064,14.735 14.360 C 15.114 13.999,15.343 13.687,15.558 13.237 C 15.830 12.671,16.009 11.789,15.943 11.348 C 15.858 10.780,15.227 10.397,14.673 10.578 C 14.245 10.718,14.088 10.924,13.980 11.483 C 13.945 11.669,13.898 11.907,13.878 12.013 C 13.822 12.296,13.647 12.626,13.422 12.872 C 13.174 13.144,13.002 13.253,12.624 13.380 C 11.908 13.620,11.113 13.434,10.580 12.902 C 10.251 12.573,10.107 12.270,9.999 11.680 C 9.952 11.427,9.882 11.147,9.843 11.059 C 9.681 10.689,9.220 10.480,8.748 10.562 " fill="#1A1C1F" stroke="none" fill-rule="evenodd"></path></svg>