<svg width="32" height="32" viewBox="0 0 32 32" fill="none" xmlns="http://www.w3.org/2000/svg"><path d="M14.800 2.610 C 14.375 2.664,13.554 2.893,13.063 3.095 C 11.242 3.844,9.670 5.324,8.851 7.062 C 8.410 7.996,8.053 9.373,8.053 10.140 C 8.053 10.327,8.027 10.464,7.987 10.490 C 7.950 10.513,6.942 10.548,5.748 10.568 L 3.575 10.604 3.289 10.768 C 2.916 10.982,2.534 11.394,2.362 11.769 C 2.111 12.318,2.094 12.207,3.657 20.419 L 4.644 25.611 3.664 26.609 C 2.161 28.141,2.023 28.375,2.307 28.907 C 2.597 29.449,3.209 29.633,3.668 29.315 C 3.943 29.124,20.941 12.187,25.092 7.968 C 26.797 6.234,28.305 4.666,28.443 4.483 C 28.712 4.124,28.747 3.965,28.621 3.665 C 28.484 3.337,27.978 2.988,27.638 2.987 C 27.354 2.986,26.940 3.350,24.743 5.532 L 23.220 7.046 22.895 6.496 C 21.887 4.795,20.317 3.517,18.488 2.906 C 18.190 2.807,17.791 2.702,17.600 2.674 C 17.133 2.604,15.198 2.561,14.800 2.610 M17.502 4.715 C 18.695 5.020,19.828 5.756,20.620 6.743 C 20.992 7.207,21.422 7.923,21.575 8.337 L 21.671 8.595 20.689 9.577 L 19.708 10.560 14.886 10.560 L 10.065 10.560 10.102 10.071 C 10.218 8.533,10.847 7.210,11.971 6.142 C 12.851 5.306,14.040 4.725,15.147 4.589 C 15.804 4.508,16.927 4.568,17.502 4.715 M24.382 11.533 L 23.405 12.517 25.547 12.547 C 26.725 12.564,27.704 12.593,27.722 12.610 C 27.762 12.651,27.526 13.998,26.687 18.533 C 25.573 24.555,25.324 25.799,25.172 26.083 C 25.140 26.142,25.016 26.261,24.896 26.348 L 24.677 26.507 17.045 26.507 L 9.412 26.507 8.399 27.522 L 7.387 28.538 16.133 28.517 C 22.520 28.502,24.952 28.479,25.147 28.434 C 25.610 28.326,25.975 28.108,26.403 27.684 C 26.627 27.462,26.874 27.170,26.952 27.035 C 27.171 26.656,27.468 25.235,28.742 18.451 C 29.893 12.322,29.885 12.381,29.646 11.805 C 29.486 11.420,29.348 11.240,28.995 10.962 C 28.581 10.635,28.480 10.617,26.839 10.581 L 25.360 10.549 24.382 11.533 M12.056 18.201 L 6.379 23.867 6.311 23.547 C 6.273 23.371,5.797 20.875,5.252 18.000 C 4.707 15.125,4.248 12.719,4.231 12.653 L 4.202 12.533 10.968 12.534 L 17.733 12.535 12.056 18.201 " fill="#1A1C1F" stroke="none" fill-rule="evenodd"></path></svg>