<svg width="20" height="20" viewBox="0 0 20 20" fill="none" xmlns="http://www.w3.org/2000/svg"><path d="M3.175 2.034 C 3.011 2.052,2.888 2.087,2.787 2.146 C 2.070 2.566,2.112 3.541,2.862 3.906 C 2.984 3.965,3.095 3.980,3.553 3.998 C 3.853 4.010,4.105 4.027,4.114 4.036 C 4.122 4.045,4.302 5.019,4.514 6.201 C 5.160 9.811,5.731 12.930,5.820 13.333 C 5.937 13.865,6.022 14.027,6.364 14.370 C 6.663 14.670,6.962 14.850,7.300 14.933 C 7.403 14.958,8.630 14.976,11.188 14.990 L 14.926 15.009 15.088 14.931 C 15.286 14.835,15.535 14.592,15.634 14.399 C 15.735 14.200,15.755 13.926,15.685 13.686 C 15.621 13.463,15.407 13.222,15.163 13.098 L 15.017 13.023 11.397 13.007 L 7.777 12.991 7.721 12.670 C 7.625 12.111,7.619 12.033,7.671 12.033 C 7.876 12.033,14.496 11.381,14.967 11.314 C 15.430 11.249,15.762 11.092,16.062 10.794 C 16.353 10.506,16.452 10.352,16.563 10.010 C 16.662 9.708,17.244 7.320,17.536 6.017 C 17.789 4.891,17.789 4.727,17.536 4.408 C 17.375 4.204,17.188 4.079,17.000 4.048 C 16.918 4.035,14.444 4.015,11.503 4.004 L 6.157 3.983 6.078 3.683 C 6.035 3.518,5.938 3.257,5.862 3.102 C 5.602 2.572,5.058 2.144,4.550 2.069 C 4.255 2.025,3.452 2.005,3.175 2.034 M15.410 6.048 C 15.484 6.081,15.510 5.948,15.099 7.620 C 14.659 9.413,14.688 9.322,14.557 9.347 C 14.403 9.375,12.110 9.604,10.033 9.797 C 7.331 10.049,7.334 10.049,7.282 9.996 C 7.215 9.927,6.511 6.109,6.558 6.062 C 6.573 6.047,6.915 6.030,7.318 6.023 C 8.723 6.001,15.350 6.022,15.410 6.048 M6.975 15.630 C 6.722 15.752,6.502 15.971,6.377 16.226 C 6.293 16.397,6.284 16.451,6.285 16.750 C 6.286 17.160,6.347 17.314,6.618 17.599 C 6.923 17.919,7.287 18.045,7.691 17.970 C 7.970 17.919,8.136 17.833,8.352 17.629 C 8.648 17.348,8.791 16.922,8.714 16.545 C 8.631 16.140,8.395 15.828,8.033 15.645 C 7.877 15.566,7.801 15.551,7.517 15.541 C 7.202 15.530,7.171 15.535,6.975 15.630 M13.850 15.575 C 13.570 15.675,13.252 15.970,13.110 16.261 C 13.033 16.417,13.021 16.484,13.021 16.750 C 13.021 17.015,13.033 17.083,13.109 17.238 C 13.222 17.468,13.532 17.778,13.762 17.891 C 13.917 17.967,13.985 17.979,14.250 17.979 C 14.516 17.979,14.583 17.967,14.740 17.890 C 14.966 17.779,15.310 17.428,15.406 17.211 C 15.486 17.029,15.502 16.615,15.438 16.381 C 15.349 16.058,15.017 15.726,14.655 15.599 C 14.447 15.526,14.021 15.513,13.850 15.575 " fill="#1A1C1F" stroke="none" fill-rule="evenodd"></path></svg>