<svg width="20" height="20" viewBox="0 0 20 20" fill="none" xmlns="http://www.w3.org/2000/svg"><path d="M9.133 3.081 C 7.866 3.349,6.810 4.213,6.332 5.375 C 6.134 5.855,6.002 6.439,6.001 6.842 L 6.000 7.000 5.075 7.002 C 3.677 7.006,2.707 7.046,2.567 7.107 C 2.409 7.175,2.120 7.489,2.067 7.648 C 1.976 7.923,2.060 8.439,2.786 12.083 C 3.640 16.364,3.677 16.517,3.909 16.718 C 3.987 16.785,4.121 16.876,4.209 16.920 L 4.368 17.002 10.026 16.992 C 16.328 16.982,15.767 17.005,16.059 16.751 C 16.285 16.554,16.350 16.406,16.483 15.783 C 16.809 14.268,17.848 8.931,17.945 8.280 C 17.975 8.075,17.985 7.898,17.969 7.830 C 17.899 7.526,17.730 7.293,17.470 7.141 C 17.321 7.053,17.297 7.050,16.633 7.028 C 16.258 7.016,15.511 7.005,14.975 7.003 L 14.000 7.000 14.000 6.814 C 14.000 6.406,13.782 5.594,13.547 5.126 C 13.035 4.110,12.067 3.366,10.933 3.118 C 10.585 3.042,9.431 3.018,9.133 3.081 M10.550 5.087 C 11.084 5.214,11.536 5.581,11.763 6.071 C 11.888 6.340,12.000 6.738,12.000 6.915 L 12.000 7.000 10.000 7.000 L 7.999 7.000 8.018 6.858 C 8.098 6.266,8.259 5.886,8.559 5.575 C 9.038 5.081,9.772 4.901,10.550 5.087 M15.750 9.075 C 15.740 9.116,15.479 10.463,15.171 12.067 L 14.611 14.983 10.014 14.992 L 5.416 15.000 5.171 13.742 C 4.398 9.776,4.268 9.085,4.292 9.061 C 4.325 9.028,5.666 9.018,11.376 9.008 L 15.768 9.000 15.750 9.075 " fill="#1A1C1F" stroke="none" fill-rule="evenodd"></path></svg>