<svg width="24" height="24" viewBox="0 0 24 24" fill="none" xmlns="http://www.w3.org/2000/svg"><path d="M11.140 2.081 C 10.216 2.181,9.072 2.688,8.213 3.378 C 6.941 4.400,6.120 5.984,6.013 7.622 L 5.988 8.000 5.144 8.003 C 4.680 8.004,3.966 8.019,3.557 8.035 L 2.814 8.065 2.630 8.197 C 2.303 8.432,2.113 8.720,2.048 9.078 C 1.995 9.370,2.049 9.804,2.418 12.000 C 3.291 17.201,3.796 20.022,3.920 20.380 C 4.127 20.982,4.766 21.619,5.434 21.889 L 5.660 21.980 11.936 21.991 C 18.906 22.003,18.288 22.026,18.900 21.737 C 19.379 21.511,19.902 20.957,20.081 20.486 C 20.212 20.143,20.479 18.651,21.356 13.380 C 22.087 8.985,22.059 9.243,21.860 8.824 C 21.747 8.584,21.418 8.252,21.170 8.125 C 21.014 8.046,20.921 8.039,19.508 8.014 L 18.011 7.987 17.988 7.624 C 17.843 5.334,16.332 3.274,14.173 2.423 C 13.557 2.180,13.252 2.119,12.460 2.079 C 11.650 2.038,11.535 2.038,11.140 2.081 M12.660 4.081 C 13.255 4.166,13.997 4.502,14.540 4.933 C 15.290 5.528,15.876 6.658,15.980 7.710 L 16.008 8.000 12.000 8.000 L 7.992 8.000 8.020 7.710 C 8.115 6.752,8.540 5.831,9.185 5.185 C 9.759 4.611,10.599 4.176,11.320 4.080 C 11.651 4.036,12.344 4.036,12.660 4.081 M19.863 10.110 C 19.850 10.171,19.605 11.606,19.318 13.300 C 18.475 18.282,18.250 19.536,18.156 19.767 C 18.132 19.828,18.057 19.897,17.986 19.926 C 17.886 19.967,16.639 19.980,11.945 19.991 L 6.030 20.005 5.936 19.916 C 5.885 19.868,5.824 19.772,5.802 19.704 C 5.758 19.567,5.523 18.228,4.940 14.800 C 4.332 11.226,4.161 10.228,4.137 10.110 L 4.114 10.000 12.000 10.000 L 19.886 10.000 19.863 10.110 " fill="#1A1C1F" stroke="none" fill-rule="evenodd"></path></svg>