<svg width="16" height="16" viewBox="0 0 16 16" fill="none" xmlns="http://www.w3.org/2000/svg"><path d="M2.346 1.624 C 2.033 1.658,1.794 1.833,1.659 2.129 C 1.603 2.251,1.596 2.297,1.610 2.432 C 1.631 2.638,1.701 2.793,1.840 2.943 C 2.028 3.148,2.127 3.180,2.629 3.198 C 2.867 3.206,3.069 3.220,3.078 3.229 C 3.100 3.251,3.196 3.770,3.828 7.293 L 4.398 10.467 3.709 11.160 C 3.330 11.541,2.893 11.990,2.738 12.157 C 2.479 12.435,2.453 12.473,2.425 12.610 C 2.385 12.802,2.406 13.028,2.477 13.168 C 2.613 13.434,2.897 13.608,3.202 13.611 C 3.378 13.613,3.380 13.612,3.589 13.453 C 3.868 13.242,6.523 10.620,10.320 6.809 C 13.504 3.612,14.257 2.840,14.336 2.688 C 14.393 2.581,14.400 2.297,14.350 2.153 C 14.299 2.006,14.126 1.800,13.981 1.715 C 13.865 1.647,13.830 1.640,13.597 1.640 C 13.341 1.640,13.339 1.640,13.185 1.747 C 13.099 1.805,12.721 2.156,12.345 2.527 L 11.660 3.200 8.195 3.200 L 4.731 3.200 4.658 2.940 C 4.538 2.511,4.430 2.315,4.179 2.068 C 3.931 1.824,3.696 1.691,3.447 1.654 C 3.224 1.621,2.549 1.603,2.346 1.624 M8.505 6.362 L 6.943 7.924 6.308 7.986 C 5.959 8.021,5.658 8.043,5.640 8.036 C 5.621 8.029,5.600 7.985,5.592 7.938 C 5.583 7.892,5.515 7.535,5.440 7.147 C 5.321 6.527,5.013 4.864,5.013 4.837 C 5.013 4.823,5.995 4.813,8.133 4.806 L 10.067 4.800 8.505 6.362 M12.016 7.361 C 10.578 8.802,10.320 9.076,10.320 9.164 C 10.320 9.214,10.444 9.211,11.067 9.146 C 12.025 9.046,12.206 8.995,12.580 8.712 C 12.843 8.514,12.965 8.293,13.132 7.710 C 13.254 7.287,13.581 5.865,13.561 5.846 C 13.552 5.837,12.857 6.519,12.016 7.361 M8.200 11.198 L 7.400 12.001 9.600 11.994 L 11.800 11.987 11.920 11.916 C 12.274 11.707,12.458 11.336,12.365 11.021 C 12.307 10.827,12.257 10.742,12.136 10.632 C 11.900 10.419,11.987 10.430,10.409 10.411 L 9.000 10.394 8.200 11.198 M10.877 12.462 C 10.723 12.520,10.603 12.603,10.470 12.746 C 10.099 13.143,10.128 13.739,10.538 14.122 C 10.740 14.311,10.925 14.384,11.200 14.384 C 11.389 14.384,11.452 14.372,11.580 14.314 C 11.780 14.221,11.998 14.013,12.095 13.820 C 12.166 13.681,12.173 13.642,12.173 13.400 C 12.173 13.158,12.166 13.119,12.095 12.980 C 12.003 12.797,11.781 12.578,11.614 12.504 C 11.456 12.434,11.016 12.409,10.877 12.462 M6.435 12.984 C 6.172 13.205,5.221 14.182,5.233 14.219 C 5.256 14.289,5.575 14.382,5.800 14.384 C 5.985 14.385,6.036 14.375,6.187 14.304 C 6.507 14.153,6.758 13.814,6.791 13.488 C 6.812 13.285,6.691 12.853,6.614 12.853 C 6.601 12.853,6.520 12.912,6.435 12.984 " fill="#1A1C1F" stroke="none" fill-rule="evenodd"></path></svg>