<svg width="16" height="16" viewBox="0 0 16 16" fill="none" xmlns="http://www.w3.org/2000/svg"><path d="M7.467 1.645 C 5.971 1.893,4.912 3.052,4.809 4.553 L 4.792 4.800 4.483 4.800 C 4.313 4.800,4.000 4.808,3.789 4.818 L 3.405 4.835 3.243 4.944 C 2.999 5.109,2.934 5.232,2.891 5.620 C 2.847 6.009,2.778 7.036,2.641 9.360 C 2.476 12.139,2.428 13.050,2.422 13.430 C 2.418 13.763,2.421 13.788,2.490 13.929 C 2.571 14.094,2.730 14.249,2.913 14.340 L 3.033 14.400 8.030 14.394 L 13.027 14.387 13.187 14.279 C 13.293 14.207,13.385 14.114,13.460 14.003 L 13.573 13.835 13.573 13.537 C 13.573 12.652,13.177 6.023,13.091 5.470 C 13.076 5.376,13.046 5.265,13.024 5.222 C 12.974 5.124,12.788 4.942,12.684 4.889 C 12.592 4.841,12.103 4.802,11.567 4.801 L 11.200 4.800 11.200 4.683 C 11.200 4.385,11.052 3.782,10.882 3.387 C 10.496 2.489,9.555 1.799,8.522 1.655 C 8.327 1.628,7.610 1.621,7.467 1.645 M8.639 3.305 C 9.171 3.487,9.508 3.960,9.586 4.633 L 9.605 4.800 8.000 4.800 L 6.395 4.800 6.414 4.633 C 6.483 4.034,6.758 3.599,7.208 3.377 C 7.457 3.254,7.625 3.228,8.093 3.238 C 8.393 3.245,8.501 3.258,8.639 3.305 M11.543 6.448 C 11.567 6.487,11.575 6.606,11.773 9.969 C 11.853 11.328,11.926 12.521,11.935 12.620 L 11.952 12.800 8.000 12.800 L 4.048 12.800 4.065 12.620 C 4.081 12.443,4.427 6.587,4.427 6.482 C 4.427 6.435,4.448 6.428,4.620 6.419 C 4.726 6.413,6.323 6.410,8.168 6.411 C 10.877 6.413,11.526 6.420,11.543 6.448 M5.607 8.580 C 5.625 9.222,5.661 9.462,5.788 9.759 C 6.108 10.510,6.653 10.968,7.427 11.135 C 7.685 11.191,8.262 11.199,8.493 11.150 C 8.891 11.066,9.233 10.918,9.512 10.709 C 9.835 10.466,10.139 10.012,10.291 9.549 C 10.355 9.353,10.400 8.855,10.400 8.340 L 10.400 8.000 9.604 8.000 L 8.808 8.000 8.790 8.500 C 8.769 9.066,8.736 9.185,8.547 9.368 C 8.382 9.528,8.242 9.581,7.988 9.580 C 7.729 9.579,7.618 9.532,7.451 9.356 C 7.237 9.129,7.233 9.114,7.211 8.526 L 7.192 8.000 6.392 8.000 L 5.592 8.000 5.607 8.580 " fill="#1A1C1F" stroke="none" fill-rule="evenodd"></path></svg>