<svg width="16" height="16" viewBox="0 0 16 16" fill="none" xmlns="http://www.w3.org/2000/svg"><path d="M7.280 2.477 C 6.575 2.634,6.031 2.958,5.555 3.504 C 5.147 3.971,4.873 4.656,4.812 5.361 L 4.793 5.573 4.083 5.576 C 3.693 5.577,3.103 5.586,2.773 5.596 C 2.186 5.613,2.171 5.615,2.053 5.685 C 1.774 5.850,1.613 6.110,1.619 6.387 C 1.623 6.574,1.751 7.256,2.297 10.000 C 2.923 13.149,2.928 13.170,3.110 13.351 C 3.172 13.413,3.283 13.494,3.357 13.532 L 3.492 13.600 7.994 13.600 L 12.496 13.600 12.630 13.533 C 12.704 13.497,12.811 13.426,12.869 13.376 C 13.078 13.198,13.096 13.138,13.385 11.690 C 13.982 8.700,14.376 6.599,14.381 6.387 C 14.387 6.110,14.226 5.850,13.947 5.685 C 13.829 5.615,13.814 5.613,13.227 5.596 C 12.897 5.586,12.307 5.577,11.917 5.576 L 11.207 5.573 11.189 5.367 C 11.167 5.122,11.089 4.748,11.009 4.507 C 10.674 3.492,9.911 2.805,8.787 2.504 C 8.473 2.420,7.606 2.405,7.280 2.477 M8.440 4.069 C 8.850 4.167,9.240 4.475,9.412 4.837 C 9.500 5.021,9.622 5.533,9.588 5.568 C 9.577 5.578,8.856 5.590,7.984 5.594 C 6.461 5.601,6.400 5.599,6.400 5.552 C 6.400 5.458,6.456 5.186,6.510 5.022 C 6.757 4.260,7.566 3.861,8.440 4.069 " fill="#1A1C1F" stroke="none" fill-rule="evenodd"></path></svg>