<svg width="16" height="16" viewBox="0 0 16 16" fill="none" xmlns="http://www.w3.org/2000/svg"><path d="M7.313 2.480 C 6.447 2.669,5.799 3.095,5.346 3.774 C 5.045 4.226,4.844 4.823,4.807 5.380 L 4.792 5.600 4.096 5.602 C 3.011 5.604,2.164 5.639,2.053 5.686 C 2.002 5.707,1.892 5.799,1.808 5.889 C 1.685 6.022,1.653 6.076,1.638 6.175 C 1.599 6.437,1.677 6.895,2.242 9.733 C 2.912 13.094,2.941 13.214,3.127 13.374 C 3.189 13.428,3.297 13.500,3.366 13.536 L 3.492 13.600 7.994 13.600 L 12.496 13.600 12.630 13.533 C 12.818 13.440,12.963 13.308,13.047 13.154 C 13.124 13.013,13.291 12.212,13.877 9.173 C 14.440 6.259,14.433 6.313,14.302 6.058 C 14.215 5.887,14.002 5.698,13.847 5.655 C 13.788 5.638,13.230 5.619,12.473 5.609 L 11.200 5.591 11.200 5.433 C 11.200 5.102,11.034 4.493,10.836 4.096 C 10.695 3.815,10.567 3.635,10.334 3.391 C 10.066 3.110,9.841 2.941,9.520 2.776 C 9.025 2.523,8.716 2.452,8.040 2.437 C 7.632 2.428,7.523 2.435,7.313 2.480 M8.440 4.069 C 8.846 4.167,9.213 4.455,9.397 4.820 C 9.493 5.011,9.599 5.383,9.600 5.527 L 9.600 5.600 8.013 5.600 L 6.427 5.600 6.427 5.487 C 6.429 5.005,6.733 4.458,7.124 4.230 C 7.493 4.015,7.974 3.956,8.440 4.069 M12.600 7.260 C 12.592 7.293,12.384 8.370,12.137 9.653 L 11.690 11.987 8.011 11.993 L 4.333 12.000 4.137 10.993 C 3.518 7.820,3.414 7.268,3.434 7.249 C 3.460 7.223,4.533 7.215,9.101 7.206 L 12.614 7.200 12.600 7.260 " fill="#1A1C1F" stroke="none" fill-rule="evenodd"></path></svg>