<svg width="14" height="14" viewBox="0 0 14 14" fill="none" xmlns="http://www.w3.org/2000/svg"><path d="M6.218 1.502 C 5.345 1.752,4.677 2.354,4.384 3.153 C 4.288 3.415,4.227 3.698,4.209 3.969 L 4.193 4.193 3.643 4.209 C 3.340 4.217,3.052 4.234,3.003 4.245 C 2.818 4.288,2.616 4.483,2.566 4.668 C 2.522 4.833,2.435 6.024,2.299 8.330 C 2.181 10.327,2.141 11.152,2.138 11.632 C 2.135 12.066,2.140 12.131,2.178 12.200 C 2.242 12.317,2.408 12.473,2.541 12.540 L 2.658 12.600 7.000 12.600 L 11.342 12.600 11.440 12.550 C 11.602 12.468,11.693 12.386,11.790 12.238 L 11.882 12.098 11.868 11.583 C 11.840 10.557,11.594 6.355,11.491 5.149 C 11.471 4.921,11.442 4.694,11.425 4.646 C 11.362 4.462,11.174 4.286,10.997 4.245 C 10.948 4.234,10.659 4.217,10.354 4.209 L 9.800 4.193 9.800 4.100 C 9.800 3.927,9.728 3.521,9.660 3.314 C 9.523 2.894,9.290 2.518,8.978 2.212 C 8.689 1.928,8.293 1.694,7.833 1.534 L 7.618 1.459 7.012 1.454 C 6.440 1.449,6.394 1.452,6.218 1.502 M7.391 2.858 C 7.570 2.901,7.769 2.999,7.926 3.123 C 8.052 3.223,8.227 3.468,8.294 3.640 C 8.337 3.752,8.400 4.050,8.400 4.144 L 8.400 4.200 6.997 4.200 L 5.594 4.200 5.609 4.063 C 5.630 3.883,5.701 3.638,5.779 3.479 C 5.911 3.209,6.253 2.952,6.603 2.860 C 6.774 2.815,7.205 2.815,7.391 2.858 M5.607 6.668 C 5.630 7.294,5.775 7.715,6.074 8.022 C 6.225 8.177,6.362 8.265,6.557 8.332 C 6.683 8.376,6.758 8.385,7.000 8.385 C 7.242 8.385,7.317 8.376,7.443 8.332 C 8.062 8.117,8.400 7.480,8.400 6.528 L 8.400 6.300 9.104 6.300 L 9.807 6.300 9.791 6.703 C 9.756 7.583,9.625 8.063,9.276 8.587 C 8.865 9.204,8.219 9.627,7.490 9.755 C 7.262 9.795,6.732 9.796,6.510 9.756 C 5.814 9.631,5.223 9.265,4.793 8.692 C 4.407 8.176,4.239 7.609,4.207 6.714 L 4.193 6.300 4.893 6.300 L 5.593 6.300 5.607 6.668 " fill="#1A1C1F" stroke="none" fill-rule="evenodd"></path></svg>