<svg width="20" height="20" viewBox="0 0 20 20" fill="none" xmlns="http://www.w3.org/2000/svg"><path d="M9.500 2.035 C 8.597 2.146,7.750 2.547,7.149 3.149 C 6.707 3.590,6.412 4.064,6.219 4.640 C 6.121 4.932,6.000 5.593,6.000 5.837 L 6.000 6.000 5.639 6.000 C 5.440 6.000,5.048 6.010,4.767 6.022 L 4.256 6.044 4.054 6.180 C 3.796 6.354,3.680 6.539,3.635 6.850 C 3.523 7.614,3.032 15.837,3.034 16.900 C 3.035 17.172,3.049 17.281,3.098 17.390 C 3.182 17.574,3.419 17.808,3.629 17.915 L 3.798 18.000 10.000 18.000 L 16.202 18.000 16.373 17.913 C 16.615 17.791,16.848 17.541,16.919 17.327 C 16.969 17.174,16.974 17.068,16.955 16.485 C 16.891 14.505,16.459 7.447,16.364 6.837 C 16.346 6.721,16.308 6.581,16.280 6.527 C 16.217 6.405,15.985 6.178,15.855 6.111 C 15.740 6.051,15.128 6.003,14.458 6.001 L 14.000 6.000 14.000 5.829 C 14.000 5.621,13.859 4.909,13.762 4.624 C 13.723 4.510,13.631 4.297,13.558 4.150 C 13.011 3.053,11.989 2.300,10.756 2.085 C 10.387 2.021,9.804 1.998,9.500 2.035 M10.378 4.065 C 10.696 4.089,10.768 4.107,10.988 4.216 C 11.567 4.502,11.891 5.020,11.985 5.808 L 12.008 6.000 10.001 6.000 L 7.993 6.000 8.018 5.792 C 8.104 5.042,8.447 4.499,9.011 4.221 C 9.390 4.033,9.625 4.007,10.378 4.065 M14.427 8.049 C 14.453 8.075,14.498 8.759,14.715 12.450 C 14.816 14.173,14.909 15.677,14.920 15.792 L 14.941 16.000 10.001 16.000 L 5.060 16.000 5.081 15.775 C 5.093 15.651,5.191 14.012,5.300 12.133 C 5.409 10.254,5.508 8.564,5.520 8.377 L 5.541 8.036 5.729 8.022 C 6.005 8.000,14.405 8.027,14.427 8.049 M7.001 10.442 C 7.002 11.012,7.053 11.662,7.112 11.862 C 7.228 12.253,7.445 12.661,7.719 13.004 C 8.504 13.985,10.191 14.291,11.417 13.675 C 12.173 13.295,12.750 12.529,12.919 11.683 C 12.945 11.555,12.976 11.124,12.988 10.725 L 13.011 10.000 12.010 10.000 L 11.010 10.000 10.987 10.625 C 10.966 11.178,10.955 11.269,10.887 11.419 C 10.794 11.620,10.613 11.805,10.412 11.902 C 10.228 11.991,9.809 11.999,9.611 11.917 C 9.467 11.857,9.187 11.598,9.112 11.456 C 9.057 11.352,9.001 10.779,9.001 10.308 L 9.000 10.000 8.000 10.000 L 7.000 10.000 7.001 10.442 " fill="#1A1C1F" stroke="none" fill-rule="evenodd"></path></svg>