<svg width="12" height="12" viewBox="0 0 12 12" fill="none" xmlns="http://www.w3.org/2000/svg"><path d="M5.740 1.221 C 4.916 1.300,4.225 1.760,3.867 2.467 C 3.723 2.752,3.600 3.217,3.600 3.482 L 3.600 3.594 3.114 3.607 C 2.847 3.615,2.596 3.630,2.555 3.641 C 2.473 3.664,2.274 3.835,2.229 3.922 C 2.163 4.050,2.077 5.198,1.911 8.180 C 1.803 10.116,1.799 10.327,1.868 10.458 C 1.920 10.556,2.075 10.703,2.182 10.755 L 2.274 10.800 5.998 10.800 L 9.721 10.800 9.822 10.749 C 9.944 10.687,10.082 10.554,10.139 10.443 C 10.173 10.376,10.180 10.325,10.180 10.146 C 10.180 9.482,9.883 4.518,9.818 4.102 C 9.807 4.032,9.785 3.949,9.768 3.916 C 9.730 3.843,9.591 3.707,9.514 3.667 C 9.443 3.630,9.082 3.601,8.685 3.601 L 8.400 3.600 8.400 3.492 C 8.400 3.276,8.280 2.805,8.149 2.510 C 8.030 2.241,7.735 1.884,7.463 1.680 C 7.306 1.563,7.041 1.422,6.845 1.352 C 6.530 1.240,6.086 1.187,5.740 1.221 M6.479 2.479 C 6.878 2.615,7.131 2.970,7.189 3.475 L 7.204 3.600 6.002 3.600 L 4.800 3.600 4.801 3.555 C 4.802 3.463,4.857 3.206,4.899 3.095 C 5.021 2.773,5.283 2.541,5.630 2.448 C 5.792 2.404,6.315 2.423,6.479 2.479 M8.666 4.820 C 8.672 4.825,8.736 5.851,8.808 7.100 C 8.881 8.348,8.946 9.422,8.953 9.485 L 8.965 9.600 6.000 9.600 L 3.035 9.600 3.047 9.485 C 3.054 9.422,3.119 8.353,3.191 7.110 C 3.264 5.867,3.328 4.846,3.333 4.840 C 3.361 4.812,8.639 4.792,8.666 4.820 M4.206 6.435 C 4.219 6.918,4.247 7.102,4.344 7.336 C 4.411 7.497,4.556 7.725,4.674 7.853 C 5.214 8.440,6.239 8.571,6.966 8.145 C 7.114 8.058,7.361 7.825,7.460 7.680 C 7.718 7.300,7.799 6.972,7.800 6.315 L 7.800 6.000 7.203 6.000 L 6.606 6.000 6.592 6.375 C 6.576 6.800,6.552 6.888,6.410 7.026 C 6.290 7.143,6.181 7.185,6.002 7.185 C 5.815 7.185,5.707 7.143,5.586 7.022 C 5.438 6.873,5.423 6.821,5.408 6.385 L 5.394 6.000 4.794 6.000 L 4.194 6.000 4.206 6.435 " fill="#1A1C1F" stroke="none" fill-rule="evenodd"></path></svg>