<svg width="14" height="14" viewBox="0 0 14 14" fill="none" xmlns="http://www.w3.org/2000/svg"><path d="M6.382 1.821 C 6.111 1.878,5.946 1.938,5.660 2.084 C 5.154 2.342,4.801 2.690,4.531 3.197 C 4.363 3.511,4.200 4.116,4.200 4.424 L 4.200 4.542 3.053 4.558 L 1.905 4.573 1.803 4.633 C 1.639 4.729,1.546 4.824,1.477 4.966 C 1.367 5.190,1.348 5.065,2.007 8.398 L 2.378 10.274 1.964 10.699 C 1.469 11.209,1.414 11.293,1.415 11.549 C 1.416 11.763,1.454 11.860,1.598 12.014 C 1.743 12.169,1.900 12.237,2.113 12.237 C 2.252 12.237,2.295 12.226,2.392 12.169 C 2.526 12.091,4.739 9.909,7.982 6.658 C 10.655 3.978,11.393 3.223,11.474 3.084 C 11.526 2.996,11.537 2.949,11.537 2.813 C 11.538 2.451,11.285 2.161,10.942 2.129 C 10.614 2.100,10.554 2.136,9.905 2.751 C 9.674 2.970,9.480 3.149,9.473 3.149 C 9.467 3.149,9.400 3.061,9.325 2.952 C 8.981 2.456,8.411 2.048,7.825 1.878 C 7.444 1.768,6.763 1.741,6.382 1.821 M7.394 3.209 C 7.612 3.260,7.807 3.373,7.981 3.546 C 8.150 3.713,8.248 3.872,8.332 4.112 L 8.388 4.269 8.249 4.410 L 8.110 4.550 6.855 4.550 C 5.675 4.550,5.600 4.548,5.600 4.509 C 5.601 4.398,5.698 4.017,5.758 3.889 C 5.918 3.550,6.204 3.313,6.580 3.207 C 6.730 3.165,7.212 3.166,7.394 3.209 M11.584 5.046 L 11.111 5.518 10.710 7.618 C 10.489 8.773,10.290 9.813,10.268 9.928 L 10.228 10.138 8.351 10.144 L 6.474 10.150 5.775 10.850 L 5.075 11.550 8.029 11.550 L 10.983 11.550 11.121 11.461 C 11.279 11.359,11.376 11.253,11.435 11.118 C 11.493 10.986,11.828 9.341,12.293 6.895 C 12.630 5.122,12.615 5.224,12.569 5.078 C 12.547 5.009,12.499 4.911,12.462 4.860 C 12.399 4.773,12.134 4.573,12.081 4.573 C 12.069 4.573,11.845 4.786,11.584 5.046 M5.163 7.495 C 4.139 8.519,3.610 9.033,3.595 9.017 C 3.576 8.999,3.013 6.260,2.983 6.043 L 2.975 5.985 3.325 5.972 C 3.518 5.965,4.357 5.958,5.192 5.955 L 6.708 5.950 5.163 7.495 " fill="#1A1C1F" stroke="none" fill-rule="evenodd"></path></svg>