<svg width="12" height="12" viewBox="0 0 12 12" fill="none" xmlns="http://www.w3.org/2000/svg"><path d="M5.610 1.831 C 4.899 1.963,4.363 2.297,4.006 2.830 C 3.791 3.150,3.634 3.616,3.607 4.012 L 3.594 4.194 2.614 4.207 L 1.634 4.220 1.532 4.277 C 1.398 4.352,1.270 4.510,1.229 4.650 C 1.199 4.752,1.200 4.774,1.239 5.004 C 1.340 5.598,2.061 9.225,2.153 9.600 C 2.181 9.716,2.223 9.849,2.245 9.896 C 2.289 9.989,2.401 10.090,2.534 10.158 L 2.618 10.200 6.017 10.200 L 9.415 10.200 9.538 10.118 C 9.700 10.010,9.773 9.917,9.820 9.760 C 9.904 9.478,10.694 5.476,10.779 4.897 C 10.800 4.760,10.798 4.733,10.762 4.630 C 10.695 4.439,10.546 4.286,10.382 4.240 C 10.341 4.228,9.898 4.214,9.355 4.207 L 8.400 4.193 8.400 4.118 C 8.400 3.884,8.306 3.473,8.191 3.199 C 7.940 2.604,7.361 2.099,6.715 1.912 C 6.416 1.825,5.860 1.785,5.610 1.831 M6.337 3.052 C 6.658 3.134,6.922 3.351,7.059 3.644 C 7.133 3.804,7.200 4.043,7.200 4.149 L 7.200 4.200 6.000 4.200 L 4.801 4.200 4.812 4.105 C 4.888 3.490,5.216 3.120,5.774 3.020 C 5.896 2.998,6.191 3.015,6.337 3.052 M9.450 5.445 C 9.444 5.470,9.288 6.277,9.103 7.240 L 8.767 8.990 6.008 8.995 L 3.250 9.000 3.023 7.840 C 2.616 5.756,2.559 5.453,2.576 5.436 C 2.595 5.417,3.403 5.411,6.825 5.405 L 9.461 5.400 9.450 5.445 " fill="#1A1C1F" stroke="none" fill-rule="evenodd"></path></svg>