<svg width="20" height="20" viewBox="0 0 20 20" fill="none" xmlns="http://www.w3.org/2000/svg"><path d="M9.117 2.101 C 8.507 2.229,8.014 2.451,7.528 2.816 C 7.213 3.053,6.861 3.414,6.667 3.700 C 6.314 4.219,6.057 5.006,6.010 5.708 L 5.990 6.000 5.634 6.000 C 5.438 6.000,5.048 6.010,4.767 6.022 L 4.256 6.044 4.054 6.180 C 3.796 6.354,3.680 6.539,3.635 6.850 C 3.523 7.614,3.032 15.837,3.034 16.900 C 3.035 17.172,3.049 17.281,3.098 17.390 C 3.182 17.574,3.419 17.808,3.629 17.915 L 3.798 18.000 10.000 18.000 L 16.202 18.000 16.373 17.913 C 16.615 17.791,16.848 17.541,16.919 17.327 C 16.969 17.174,16.974 17.068,16.955 16.485 C 16.891 14.505,16.459 7.447,16.364 6.837 C 16.346 6.721,16.308 6.581,16.280 6.527 C 16.217 6.405,15.985 6.178,15.855 6.111 C 15.740 6.051,15.128 6.003,14.458 6.001 L 14.000 6.000 14.000 5.825 C 14.000 5.616,13.927 5.186,13.833 4.837 C 13.749 4.527,13.454 3.915,13.269 3.667 C 12.629 2.810,11.635 2.210,10.619 2.069 C 10.209 2.012,9.464 2.028,9.117 2.101 M10.559 4.084 C 10.815 4.144,11.099 4.284,11.322 4.461 C 11.503 4.604,11.753 4.955,11.848 5.200 C 11.910 5.360,12.000 5.786,12.000 5.920 L 12.000 6.000 9.995 6.000 L 7.991 6.000 8.013 5.808 C 8.101 5.064,8.442 4.531,9.011 4.250 C 9.150 4.181,9.344 4.105,9.441 4.082 C 9.685 4.022,10.304 4.023,10.559 4.084 M8.010 9.492 C 8.047 10.406,8.249 11.016,8.657 11.439 C 8.913 11.704,9.056 11.797,9.367 11.899 C 10.046 12.123,10.856 11.944,11.335 11.465 C 11.759 11.041,12.000 10.244,12.000 9.268 L 12.000 9.000 13.005 9.000 L 14.010 9.000 13.987 9.584 C 13.936 10.839,13.750 11.516,13.248 12.274 C 12.684 13.124,11.880 13.668,10.844 13.903 C 10.376 14.009,9.621 14.008,9.150 13.902 C 8.527 13.761,8.128 13.584,7.683 13.251 C 7.140 12.845,6.656 12.234,6.392 11.624 C 6.153 11.069,6.050 10.513,6.013 9.575 L 5.990 9.000 6.990 9.000 L 7.990 9.000 8.010 9.492 " fill="#1A1C1F" stroke="none" fill-rule="evenodd"></path></svg>