<svg width="24" height="24" viewBox="0 0 24 24" fill="none" xmlns="http://www.w3.org/2000/svg"><path d="M10.960 2.104 C 10.240 2.235,9.288 2.617,8.702 3.010 C 7.804 3.613,7.023 4.511,6.577 5.456 C 6.264 6.120,6.000 7.166,6.000 7.747 L 6.000 8.000 4.830 8.001 C 3.523 8.002,2.956 8.043,2.708 8.153 C 2.401 8.289,2.138 8.664,2.039 9.105 C 1.977 9.382,2.122 10.329,3.139 16.274 L 3.600 18.968 2.898 19.693 C 2.084 20.536,1.975 20.705,2.012 21.067 C 2.073 21.659,2.651 22.083,3.229 21.959 C 3.432 21.915,3.479 21.870,7.507 17.883 C 12.334 13.105,20.073 5.345,20.847 4.507 C 21.147 4.181,21.424 3.850,21.462 3.771 C 21.621 3.436,21.443 2.913,21.086 2.661 C 20.934 2.554,20.874 2.538,20.582 2.526 C 20.336 2.516,20.219 2.529,20.128 2.576 C 19.969 2.658,19.492 3.105,18.299 4.288 L 17.338 5.242 17.183 4.978 C 16.367 3.582,14.863 2.500,13.260 2.153 C 12.756 2.044,11.441 2.016,10.960 2.104 M12.680 4.082 C 13.962 4.284,15.185 5.280,15.717 6.556 L 15.807 6.772 15.194 7.386 L 14.581 8.000 11.286 8.000 L 7.992 8.000 8.019 7.710 C 8.110 6.737,8.485 5.917,9.156 5.226 C 9.671 4.695,10.305 4.325,11.020 4.138 C 11.424 4.032,12.201 4.006,12.680 4.082 M19.705 11.045 C 18.959 15.497,18.408 18.724,18.317 19.172 C 18.220 19.653,18.137 19.868,18.025 19.930 C 17.961 19.965,16.715 19.981,13.075 19.993 L 8.210 20.009 7.215 21.005 L 6.220 22.001 12.280 21.990 L 18.340 21.980 18.620 21.864 C 19.036 21.691,19.370 21.465,19.634 21.177 C 19.977 20.803,20.104 20.513,20.263 19.737 C 20.408 19.038,21.723 11.195,21.901 9.970 C 22.005 9.255,22.006 9.235,21.938 9.018 C 21.836 8.695,21.617 8.403,21.359 8.249 C 21.093 8.090,20.956 8.051,20.538 8.016 L 20.216 7.990 19.705 11.045 M9.120 13.452 C 5.943 16.619,5.386 17.160,5.343 17.116 C 5.334 17.107,5.227 16.515,5.105 15.800 C 4.819 14.133,4.171 10.291,4.153 10.160 L 4.140 10.060 4.740 10.038 C 5.070 10.026,6.969 10.014,8.960 10.010 L 12.580 10.003 9.120 13.452 " fill="#1A1C1F" stroke="none" fill-rule="evenodd"></path></svg>