<svg width="14" height="14" viewBox="0 0 14 14" fill="none" xmlns="http://www.w3.org/2000/svg"><path d="M6.654 1.424 C 5.760 1.536,5.011 2.014,4.573 2.752 C 4.391 3.057,4.237 3.579,4.208 3.987 L 4.194 4.193 3.643 4.209 C 3.340 4.217,3.052 4.234,3.003 4.245 C 2.818 4.288,2.616 4.483,2.566 4.668 C 2.522 4.833,2.435 6.024,2.299 8.330 C 2.181 10.327,2.141 11.152,2.138 11.632 C 2.135 12.066,2.140 12.131,2.178 12.200 C 2.242 12.317,2.408 12.473,2.541 12.540 L 2.658 12.600 7.000 12.600 L 11.342 12.600 11.440 12.550 C 11.602 12.468,11.693 12.386,11.790 12.238 L 11.882 12.098 11.868 11.583 C 11.840 10.557,11.594 6.355,11.491 5.149 C 11.471 4.921,11.442 4.694,11.425 4.646 C 11.362 4.462,11.174 4.286,10.997 4.245 C 10.948 4.234,10.659 4.217,10.354 4.209 L 9.800 4.193 9.800 4.097 C 9.800 3.800,9.640 3.201,9.473 2.870 C 9.097 2.126,8.382 1.609,7.522 1.458 C 7.262 1.413,6.867 1.398,6.654 1.424 M7.559 2.893 C 8.024 3.050,8.320 3.465,8.388 4.054 L 8.405 4.200 7.000 4.200 L 5.595 4.200 5.611 4.066 C 5.674 3.535,5.919 3.143,6.307 2.952 C 6.520 2.847,6.674 2.824,7.082 2.834 C 7.341 2.840,7.439 2.852,7.559 2.893 M10.106 5.652 C 10.113 5.663,10.126 5.785,10.134 5.922 C 10.291 8.589,10.432 10.919,10.443 11.043 L 10.458 11.200 7.000 11.200 L 3.542 11.200 3.557 11.043 C 3.571 10.887,3.873 5.765,3.873 5.672 C 3.873 5.625,3.886 5.624,4.393 5.617 C 5.426 5.601,10.092 5.630,10.106 5.652 M4.900 7.298 C 4.900 7.777,4.939 8.182,5.002 8.367 C 5.264 9.130,5.761 9.582,6.510 9.741 C 7.023 9.850,7.575 9.782,8.031 9.553 C 8.529 9.302,8.923 8.776,9.041 8.202 C 9.066 8.080,9.085 7.838,9.094 7.508 L 9.107 7.000 8.407 7.000 L 7.707 7.000 7.691 7.427 C 7.683 7.662,7.665 7.893,7.652 7.940 C 7.620 8.053,7.421 8.267,7.286 8.333 C 7.199 8.375,7.137 8.386,6.989 8.385 C 6.768 8.385,6.667 8.342,6.519 8.186 C 6.332 7.988,6.328 7.975,6.310 7.461 L 6.293 7.000 5.597 7.000 L 4.900 7.000 4.900 7.298 " fill="#1A1C1F" stroke="none" fill-rule="evenodd"></path></svg>