<svg width="28" height="28" viewBox="0 0 28 28" fill="none" xmlns="http://www.w3.org/2000/svg"><path d="M13.067 2.704 C 12.188 2.797,11.050 3.223,10.220 3.769 C 9.785 4.056,9.229 4.551,8.780 5.053 C 7.778 6.174,7.164 7.648,7.064 9.180 L 7.033 9.649 5.185 9.672 C 3.769 9.691,3.280 9.712,3.094 9.764 C 2.649 9.888,2.206 10.355,2.006 10.910 C 1.906 11.187,1.903 11.226,1.956 11.610 C 2.053 12.302,3.238 18.610,3.879 21.840 C 4.287 23.892,4.376 24.124,4.971 24.680 C 5.307 24.995,5.726 25.219,6.137 25.305 C 6.354 25.350,8.132 25.363,14.093 25.363 C 21.321 25.363,21.788 25.358,22.073 25.280 C 22.828 25.072,23.515 24.396,23.753 23.628 C 23.882 23.210,24.594 19.550,25.550 14.397 C 26.138 11.230,26.144 11.163,25.923 10.713 C 25.766 10.392,25.349 9.949,25.091 9.829 C 24.872 9.727,23.758 9.664,22.115 9.662 L 21.014 9.660 20.984 9.205 C 20.950 8.708,20.789 7.935,20.597 7.350 C 19.875 5.151,17.886 3.350,15.593 2.817 C 15.189 2.724,14.940 2.699,14.257 2.684 C 13.795 2.675,13.259 2.683,13.067 2.704 M15.467 4.592 C 16.825 5.001,18.015 6.015,18.664 7.315 C 18.979 7.947,19.142 8.538,19.206 9.275 L 19.239 9.660 14.204 9.659 C 11.435 9.659,9.091 9.646,8.995 9.630 C 8.821 9.601,8.820 9.599,8.820 9.380 C 8.820 9.078,8.942 8.394,9.061 8.027 C 9.629 6.276,11.127 4.894,12.880 4.503 C 13.105 4.453,13.423 4.440,14.117 4.451 C 14.969 4.466,15.086 4.478,15.467 4.592 M24.253 11.450 C 24.268 11.465,24.254 11.641,24.222 11.840 C 24.149 12.302,23.062 18.189,22.629 20.463 C 22.104 23.225,22.089 23.276,21.738 23.508 L 21.544 23.637 15.170 23.649 C 11.665 23.655,8.270 23.645,7.627 23.625 L 6.456 23.590 6.263 23.462 C 6.156 23.391,6.038 23.273,5.999 23.198 C 5.929 23.063,5.716 22.020,4.973 18.177 C 4.651 16.509,3.808 12.085,3.713 11.563 L 3.690 11.436 4.306 11.418 C 5.283 11.389,24.222 11.420,24.253 11.450 " fill="#1A1C1F" stroke="none" fill-rule="evenodd"></path></svg>