<svg width="14" height="14" viewBox="0 0 14 14" fill="none" xmlns="http://www.w3.org/2000/svg"><path d="M6.510 2.145 C 6.058 2.200,5.518 2.444,5.173 2.749 C 4.878 3.010,4.656 3.288,4.509 3.582 C 4.369 3.862,4.242 4.333,4.210 4.696 L 4.194 4.877 3.386 4.877 C 2.386 4.877,1.945 4.904,1.805 4.972 C 1.668 5.038,1.506 5.224,1.457 5.371 C 1.383 5.594,1.392 5.651,1.963 8.517 C 2.538 11.408,2.574 11.558,2.729 11.698 C 2.780 11.744,2.874 11.808,2.938 11.841 L 3.055 11.900 7.020 11.900 L 10.985 11.900 11.127 11.805 C 11.300 11.690,11.398 11.575,11.445 11.434 C 11.525 11.189,12.411 6.735,12.565 5.796 C 12.607 5.543,12.596 5.449,12.506 5.272 C 12.457 5.177,12.291 5.016,12.177 4.955 C 12.086 4.907,11.526 4.882,10.436 4.879 L 9.800 4.877 9.800 4.801 C 9.800 4.661,9.733 4.284,9.671 4.072 C 9.443 3.287,8.972 2.733,8.231 2.380 C 7.865 2.205,7.595 2.148,7.082 2.136 C 6.851 2.131,6.593 2.135,6.510 2.145 M7.501 3.590 C 7.996 3.770,8.307 4.186,8.388 4.777 L 8.404 4.900 7.002 4.900 C 5.831 4.900,5.600 4.895,5.600 4.868 C 5.600 4.850,5.616 4.743,5.636 4.630 C 5.716 4.172,5.957 3.844,6.356 3.652 C 6.594 3.537,6.667 3.525,7.035 3.533 C 7.299 3.539,7.389 3.550,7.501 3.590 " fill="#1A1C1F" stroke="none" fill-rule="evenodd"></path></svg>