<svg width="14" height="14" viewBox="0 0 14 14" fill="none" xmlns="http://www.w3.org/2000/svg"><path d="M6.405 2.160 C 5.562 2.348,4.869 2.868,4.509 3.582 C 4.359 3.880,4.232 4.348,4.208 4.696 L 4.193 4.900 3.304 4.900 C 2.306 4.901,1.941 4.922,1.791 4.988 C 1.679 5.038,1.542 5.179,1.471 5.318 C 1.372 5.512,1.394 5.656,1.937 8.388 C 2.541 11.426,2.572 11.556,2.729 11.698 C 2.780 11.744,2.874 11.808,2.938 11.841 L 3.055 11.900 7.020 11.900 L 10.985 11.900 11.127 11.805 C 11.316 11.678,11.402 11.570,11.457 11.387 C 11.557 11.054,12.435 6.613,12.542 5.898 C 12.610 5.450,12.586 5.327,12.394 5.136 C 12.173 4.914,12.246 4.926,10.947 4.908 L 9.806 4.892 9.791 4.695 C 9.734 3.948,9.387 3.230,8.875 2.797 C 8.503 2.483,8.077 2.269,7.642 2.178 C 7.391 2.126,6.610 2.115,6.405 2.160 M7.355 3.549 C 7.725 3.626,8.073 3.903,8.234 4.250 C 8.322 4.438,8.400 4.717,8.400 4.840 L 8.400 4.900 7.000 4.900 L 5.599 4.900 5.614 4.801 C 5.676 4.370,5.785 4.110,5.992 3.901 C 6.143 3.747,6.286 3.661,6.522 3.580 C 6.657 3.534,6.732 3.524,6.958 3.524 C 7.108 3.524,7.287 3.535,7.355 3.549 M11.025 6.353 C 11.018 6.381,10.836 7.324,10.620 8.447 L 10.228 10.488 7.008 10.494 L 3.788 10.500 3.753 10.308 C 3.734 10.202,3.552 9.272,3.349 8.242 C 3.146 7.212,2.988 6.361,2.997 6.352 C 3.022 6.326,4.672 6.311,8.021 6.305 L 11.038 6.300 11.025 6.353 " fill="#1A1C1F" stroke="none" fill-rule="evenodd"></path></svg>