<svg width="14" height="14" viewBox="0 0 14 14" fill="none" xmlns="http://www.w3.org/2000/svg"><path d="M2.223 1.424 C 2.022 1.445,1.891 1.514,1.756 1.667 C 1.454 2.010,1.590 2.564,2.019 2.743 C 2.080 2.769,2.231 2.788,2.482 2.801 C 2.686 2.812,2.862 2.829,2.872 2.840 C 2.882 2.850,2.980 3.362,3.091 3.978 C 3.589 6.745,4.060 9.281,4.119 9.508 C 4.167 9.697,4.250 9.859,4.364 9.992 C 4.485 10.132,4.841 10.371,4.999 10.418 C 5.225 10.485,5.763 10.499,8.118 10.500 L 10.462 10.500 10.568 10.448 C 10.701 10.384,10.876 10.212,10.944 10.078 C 11.022 9.926,11.030 9.727,10.966 9.557 C 10.906 9.400,10.771 9.240,10.647 9.181 C 10.521 9.121,9.787 9.103,7.453 9.101 L 5.444 9.100 5.406 8.884 C 5.342 8.519,5.334 8.423,5.366 8.423 C 5.424 8.423,9.337 8.047,9.861 7.991 C 10.854 7.885,10.927 7.861,11.260 7.527 C 11.497 7.289,11.540 7.214,11.642 6.849 C 11.728 6.543,12.199 4.569,12.322 3.998 C 12.423 3.529,12.431 3.420,12.376 3.258 C 12.331 3.126,12.162 2.944,12.015 2.869 L 11.912 2.816 8.111 2.802 L 4.310 2.788 4.255 2.578 C 4.225 2.463,4.156 2.280,4.103 2.171 C 3.921 1.801,3.541 1.501,3.185 1.448 C 2.978 1.418,2.417 1.404,2.223 1.424 M9.363 4.223 L 10.803 4.223 10.803 4.273 C 10.803 4.375,10.311 6.438,10.272 6.502 C 10.243 6.548,9.755 6.602,7.152 6.847 C 5.172 7.033,5.136 7.036,5.098 6.997 C 5.050 6.949,4.557 4.277,4.590 4.244 C 4.617 4.217,5.563 4.205,6.860 4.215 C 7.444 4.220,8.570 4.223,9.363 4.223 M4.958 10.900 C 4.730 10.987,4.456 11.266,4.417 11.452 C 4.407 11.500,4.399 11.634,4.400 11.751 C 4.401 11.934,4.411 11.982,4.465 12.094 C 4.670 12.513,5.127 12.691,5.572 12.525 C 5.737 12.464,5.952 12.263,6.037 12.091 C 6.094 11.973,6.101 11.933,6.101 11.725 C 6.101 11.516,6.094 11.477,6.036 11.358 C 5.957 11.196,5.813 11.048,5.652 10.960 C 5.549 10.904,5.501 10.894,5.281 10.885 C 5.122 10.878,5.002 10.883,4.958 10.900 M9.695 10.902 C 9.500 10.972,9.277 11.179,9.178 11.381 C 9.096 11.548,9.090 11.876,9.166 12.048 C 9.233 12.199,9.467 12.437,9.628 12.519 C 9.744 12.577,9.784 12.585,9.972 12.585 C 10.241 12.585,10.354 12.538,10.556 12.344 C 10.763 12.146,10.834 11.992,10.833 11.748 C 10.833 11.646,10.821 11.519,10.807 11.467 C 10.744 11.238,10.481 10.981,10.237 10.909 C 10.101 10.868,9.799 10.865,9.695 10.902 " fill="#1A1C1F" stroke="none" fill-rule="evenodd"></path></svg>