<svg width="28" height="28" viewBox="0 0 28 28" fill="none" xmlns="http://www.w3.org/2000/svg"><path d="M2.926 2.569 C 2.272 2.679,1.989 3.419,2.410 3.920 C 2.629 4.179,2.749 4.212,3.645 4.250 C 4.491 4.287,4.706 4.333,4.863 4.510 C 5.087 4.762,5.156 5.046,6.132 9.730 C 6.662 12.276,7.682 17.239,7.934 18.498 L 8.035 19.005 7.807 19.244 C 7.682 19.376,7.055 20.019,6.413 20.673 C 5.180 21.932,4.873 22.291,4.824 22.533 C 4.779 22.760,4.919 23.068,5.165 23.285 C 5.496 23.576,5.765 23.589,6.136 23.334 C 6.386 23.162,18.860 10.733,22.639 6.892 C 24.224 5.280,25.588 3.862,25.668 3.742 C 25.795 3.552,25.811 3.496,25.787 3.315 C 25.729 2.877,25.370 2.550,24.942 2.546 C 24.730 2.544,24.672 2.566,24.427 2.752 C 24.275 2.866,23.645 3.459,23.026 4.070 L 21.900 5.180 14.742 5.174 C 10.805 5.171,7.438 5.155,7.261 5.139 L 6.939 5.110 6.829 4.690 C 6.577 3.723,6.149 3.155,5.404 2.800 C 5.099 2.654,4.928 2.605,4.597 2.568 C 4.112 2.513,3.252 2.514,2.926 2.569 M24.189 7.857 L 23.064 8.970 22.776 10.097 C 22.293 11.988,22.032 12.920,21.931 13.118 C 21.769 13.435,21.488 13.501,19.476 13.700 L 18.223 13.823 17.462 14.577 C 17.043 14.991,16.614 15.432,16.509 15.556 L 16.317 15.783 16.617 15.754 C 19.576 15.471,21.574 15.241,21.963 15.140 C 22.284 15.056,22.521 14.925,22.886 14.627 C 23.335 14.261,23.494 14.018,23.701 13.380 C 24.038 12.342,24.849 9.232,25.223 7.543 C 25.432 6.595,25.477 6.581,24.189 7.857 M16.426 10.664 L 12.669 14.421 10.813 14.613 C 9.792 14.719,8.949 14.798,8.940 14.788 C 8.924 14.771,7.381 7.354,7.337 7.084 L 7.317 6.957 7.707 6.941 C 7.921 6.933,10.816 6.921,14.140 6.916 L 20.183 6.907 16.426 10.664 M10.593 16.464 C 10.593 16.539,9.616 17.462,9.557 17.443 C 9.501 17.425,9.308 16.623,9.349 16.582 C 9.375 16.556,10.215 16.437,10.418 16.432 C 10.515 16.429,10.593 16.444,10.593 16.464 M12.017 20.016 L 11.130 20.909 16.178 20.896 L 21.225 20.883 21.428 20.743 C 21.814 20.474,21.959 19.931,21.734 19.597 C 21.676 19.511,21.545 19.382,21.443 19.311 L 21.257 19.182 17.080 19.153 L 12.903 19.123 12.017 20.016 M9.753 22.721 C 9.404 22.836,9.097 23.109,8.907 23.473 C 8.751 23.773,8.750 24.386,8.904 24.677 C 9.043 24.938,9.330 25.214,9.604 25.349 C 9.926 25.507,10.436 25.500,10.758 25.332 C 11.050 25.179,11.400 24.810,11.483 24.567 C 11.584 24.272,11.565 23.673,11.447 23.450 C 11.313 23.195,11.046 22.939,10.788 22.818 C 10.554 22.708,9.961 22.652,9.753 22.721 M19.790 22.731 C 19.197 22.913,18.752 23.617,18.834 24.243 C 18.956 25.171,19.990 25.735,20.821 25.327 C 21.453 25.016,21.773 24.329,21.586 23.685 C 21.495 23.374,21.149 22.968,20.841 22.810 C 20.626 22.700,20.036 22.656,19.790 22.731 " fill="#1A1C1F" stroke="none" fill-rule="evenodd"></path></svg>