<svg width="32" height="32" viewBox="0 0 32 32" fill="none" xmlns="http://www.w3.org/2000/svg"><path d="M3.359 2.924 C 2.936 2.991,2.612 3.314,2.531 3.749 C 2.483 4.012,2.610 4.351,2.843 4.577 C 3.059 4.786,3.298 4.832,4.400 4.880 C 4.840 4.899,5.258 4.942,5.328 4.977 C 5.582 5.101,5.762 5.405,5.894 5.927 C 6.143 6.915,7.031 11.165,8.695 19.327 L 9.183 21.720 8.947 21.967 C 8.818 22.102,8.061 22.881,7.267 23.697 C 6.473 24.513,5.759 25.273,5.680 25.386 C 5.602 25.500,5.525 25.688,5.509 25.806 C 5.451 26.236,5.870 26.772,6.331 26.859 C 6.755 26.939,6.746 26.947,9.714 24.018 C 17.161 16.671,28.567 5.214,29.241 4.404 C 29.492 4.103,29.504 4.074,29.480 3.832 C 29.435 3.361,29.084 3.001,28.578 2.906 C 28.437 2.880,28.330 2.900,28.170 2.982 C 27.915 3.112,26.971 3.976,25.841 5.115 L 25.041 5.920 16.881 5.913 C 12.392 5.909,8.541 5.891,8.322 5.873 L 7.924 5.840 7.877 5.627 C 7.696 4.789,7.399 4.188,6.939 3.729 C 6.554 3.344,6.102 3.095,5.600 2.990 C 5.248 2.916,3.698 2.871,3.359 2.924 M27.644 8.979 L 26.359 10.251 25.975 11.752 C 25.449 13.812,25.180 14.763,25.058 15.004 C 24.878 15.358,24.578 15.428,22.293 15.655 L 20.827 15.800 19.721 16.898 C 19.113 17.503,18.633 18.013,18.654 18.032 C 18.718 18.089,24.506 17.443,25.013 17.322 C 25.572 17.189,26.295 16.697,26.689 16.182 C 26.908 15.894,27.141 15.218,27.597 13.547 C 27.941 12.282,28.686 9.291,28.854 8.497 C 29.052 7.558,29.095 7.541,27.644 8.979 M18.773 12.187 L 14.479 16.481 12.358 16.701 C 11.191 16.822,10.228 16.912,10.218 16.900 C 10.208 16.889,9.811 14.996,9.335 12.693 C 8.859 10.391,8.438 8.369,8.400 8.200 L 8.329 7.893 15.698 7.893 L 23.067 7.893 18.773 12.187 M12.107 18.817 C 12.107 18.902,10.990 19.957,10.922 19.935 C 10.859 19.914,10.637 18.998,10.684 18.951 C 10.715 18.921,11.675 18.786,11.907 18.779 C 12.017 18.776,12.107 18.793,12.107 18.817 M13.733 22.875 L 12.720 23.896 18.489 23.881 L 24.258 23.867 24.489 23.706 C 24.930 23.399,25.096 22.778,24.839 22.397 C 24.773 22.298,24.623 22.151,24.506 22.070 L 24.293 21.922 19.520 21.889 L 14.747 21.855 13.733 22.875 M11.077 25.993 C 10.370 26.258,9.963 26.937,10.043 27.715 C 10.080 28.079,10.204 28.329,10.487 28.612 C 10.840 28.965,11.146 29.094,11.627 29.092 C 11.953 29.091,12.076 29.065,12.294 28.951 C 12.629 28.776,13.029 28.354,13.123 28.077 C 13.239 27.738,13.214 27.104,13.074 26.814 C 12.934 26.526,12.555 26.159,12.278 26.043 C 11.999 25.927,11.329 25.899,11.077 25.993 M22.617 25.979 C 21.940 26.186,21.431 26.991,21.525 27.707 C 21.664 28.769,22.843 29.410,23.797 28.944 C 24.517 28.591,24.883 27.804,24.670 27.069 C 24.566 26.713,24.171 26.249,23.818 26.069 C 23.572 25.943,22.898 25.893,22.617 25.979 " fill="#1A1C1F" stroke="none" fill-rule="evenodd"></path></svg>