<svg width="12" height="12" viewBox="0 0 12 12" fill="none" xmlns="http://www.w3.org/2000/svg"><path d="M1.940 1.220 C 1.697 1.239,1.518 1.350,1.416 1.546 C 1.381 1.614,1.372 1.665,1.372 1.810 C 1.371 2.018,1.393 2.074,1.533 2.214 C 1.674 2.356,1.751 2.380,2.123 2.400 C 2.300 2.409,2.452 2.424,2.461 2.433 C 2.470 2.443,2.600 3.130,2.750 3.960 C 3.128 6.052,3.450 7.797,3.497 8.010 C 3.564 8.314,3.608 8.407,3.767 8.576 C 3.942 8.760,4.088 8.857,4.311 8.938 L 4.482 9.000 6.725 9.000 L 8.967 9.000 9.059 8.956 C 9.172 8.901,9.322 8.753,9.381 8.638 C 9.515 8.375,9.398 8.023,9.126 7.875 L 9.028 7.822 6.847 7.808 L 4.666 7.794 4.620 7.526 C 4.593 7.369,4.582 7.250,4.592 7.240 C 4.602 7.231,5.002 7.186,5.480 7.141 C 6.881 7.009,8.546 6.841,8.874 6.799 C 9.301 6.745,9.400 6.700,9.663 6.445 C 9.899 6.216,9.925 6.141,10.269 4.690 C 10.541 3.546,10.640 3.086,10.640 2.975 C 10.640 2.771,10.503 2.565,10.298 2.458 L 10.210 2.413 6.952 2.401 L 3.694 2.390 3.647 2.210 C 3.621 2.111,3.563 1.954,3.517 1.861 C 3.359 1.538,3.033 1.285,2.720 1.241 C 2.549 1.217,2.128 1.205,1.940 1.220 M9.276 3.631 C 9.292 3.644,8.859 5.416,8.812 5.528 C 8.795 5.569,8.766 5.599,8.737 5.607 C 8.576 5.647,4.391 6.037,4.368 6.014 C 4.341 5.988,3.914 3.684,3.929 3.647 C 3.936 3.626,4.060 3.619,4.484 3.615 C 5.110 3.609,9.267 3.622,9.276 3.631 M4.184 9.380 C 4.029 9.459,3.884 9.598,3.820 9.730 C 3.756 9.863,3.750 10.157,3.808 10.310 C 3.922 10.611,4.174 10.782,4.510 10.786 C 4.643 10.787,4.689 10.779,4.785 10.735 C 5.127 10.578,5.311 10.196,5.211 9.851 C 5.169 9.705,5.111 9.613,4.992 9.504 C 4.853 9.376,4.746 9.337,4.510 9.326 C 4.316 9.317,4.306 9.319,4.184 9.380 M8.310 9.344 C 8.139 9.408,7.951 9.583,7.867 9.754 C 7.823 9.844,7.816 9.886,7.817 10.035 C 7.817 10.141,7.830 10.245,7.849 10.298 C 7.914 10.480,8.120 10.686,8.302 10.751 C 8.355 10.770,8.459 10.783,8.565 10.783 C 8.715 10.784,8.756 10.777,8.847 10.732 C 8.979 10.668,9.187 10.456,9.244 10.326 C 9.303 10.193,9.301 9.937,9.240 9.773 C 9.185 9.628,9.031 9.468,8.868 9.388 C 8.768 9.339,8.723 9.330,8.561 9.326 C 8.454 9.323,8.344 9.331,8.310 9.344 " fill="#1A1C1F" stroke="none" fill-rule="evenodd"></path></svg>