<svg width="12" height="12" viewBox="0 0 12 12" fill="none" xmlns="http://www.w3.org/2000/svg"><path d="M5.480 1.550 C 5.300 1.590,5.017 1.691,4.861 1.770 C 4.417 1.995,4.004 2.432,3.822 2.868 C 3.707 3.145,3.600 3.594,3.600 3.805 L 3.600 3.880 3.005 3.882 C 2.678 3.882,2.239 3.890,2.029 3.898 C 1.694 3.911,1.638 3.918,1.556 3.957 C 1.442 4.012,1.310 4.152,1.256 4.275 C 1.178 4.451,1.165 4.369,1.673 6.927 L 2.046 8.804 1.776 9.077 C 1.218 9.643,1.173 9.719,1.220 10.010 C 1.259 10.247,1.448 10.436,1.687 10.478 C 1.892 10.514,1.999 10.484,2.156 10.346 C 2.477 10.064,3.961 8.595,6.568 5.978 C 9.368 3.169,9.737 2.789,9.835 2.624 C 9.880 2.546,9.884 2.522,9.874 2.399 C 9.853 2.153,9.743 1.979,9.550 1.888 C 9.420 1.826,9.173 1.821,9.050 1.878 C 8.959 1.919,8.788 2.071,8.399 2.454 L 8.128 2.721 8.011 2.548 C 7.873 2.346,7.667 2.129,7.470 1.981 C 7.275 1.835,6.893 1.651,6.650 1.588 C 6.471 1.541,6.405 1.534,6.030 1.528 C 5.713 1.523,5.578 1.528,5.480 1.550 M6.325 2.749 C 6.699 2.829,7.010 3.125,7.142 3.526 L 7.186 3.662 7.069 3.781 L 6.951 3.900 5.876 3.900 L 4.801 3.900 4.812 3.805 C 4.849 3.503,4.984 3.191,5.150 3.029 C 5.254 2.928,5.481 2.794,5.629 2.748 C 5.740 2.713,6.159 2.714,6.325 2.749 M9.937 4.327 C 9.702 4.552,8.349 5.899,6.930 7.320 L 4.350 9.903 6.860 9.894 C 8.650 9.887,9.391 9.877,9.444 9.861 C 9.601 9.813,9.792 9.612,9.840 9.444 C 9.872 9.330,10.071 8.333,10.368 6.790 C 10.837 4.358,10.823 4.448,10.743 4.270 C 10.698 4.171,10.597 4.050,10.500 3.981 C 10.382 3.897,10.395 3.889,9.937 4.327 " fill="#1A1C1F" stroke="none" fill-rule="evenodd"></path></svg>