<svg width="14" height="14" viewBox="0 0 14 14" fill="none" xmlns="http://www.w3.org/2000/svg"><path d="M6.497 1.795 C 5.898 1.901,5.403 2.154,4.992 2.565 C 4.788 2.769,4.560 3.104,4.459 3.346 C 4.325 3.667,4.200 4.193,4.200 4.435 L 4.200 4.519 3.069 4.534 C 1.976 4.548,1.935 4.550,1.841 4.598 C 1.704 4.668,1.518 4.847,1.467 4.958 C 1.372 5.166,1.395 5.314,1.972 8.212 L 2.381 10.270 1.966 10.698 C 1.469 11.209,1.414 11.293,1.415 11.549 C 1.416 11.763,1.454 11.860,1.598 12.014 C 1.743 12.169,1.900 12.237,2.113 12.237 C 2.252 12.237,2.295 12.226,2.393 12.169 C 2.466 12.126,3.170 11.446,4.316 10.312 C 6.612 8.040,10.901 3.738,11.229 3.377 C 11.442 3.143,11.485 3.082,11.517 2.970 C 11.631 2.578,11.349 2.166,10.942 2.129 C 10.615 2.100,10.556 2.135,9.905 2.750 C 9.674 2.968,9.478 3.141,9.470 3.136 C 9.461 3.131,9.394 3.041,9.321 2.937 C 9.057 2.561,8.672 2.240,8.237 2.033 C 7.939 1.891,7.685 1.827,7.254 1.786 C 6.799 1.743,6.794 1.743,6.497 1.795 M7.355 3.199 C 7.793 3.290,8.178 3.647,8.320 4.093 L 8.379 4.278 8.244 4.414 L 8.110 4.550 6.853 4.550 L 5.596 4.550 5.611 4.428 C 5.693 3.793,6.005 3.394,6.556 3.217 C 6.708 3.169,7.158 3.158,7.355 3.199 M12.023 4.641 C 11.973 4.678,10.389 6.247,8.503 8.128 L 5.075 11.548 8.030 11.549 L 10.985 11.550 11.127 11.455 C 11.316 11.328,11.402 11.220,11.457 11.037 C 11.513 10.851,11.743 9.726,12.084 7.980 C 12.479 5.957,12.583 5.391,12.585 5.238 C 12.589 4.998,12.424 4.734,12.200 4.618 L 12.115 4.575 12.023 4.641 " fill="#1A1C1F" stroke="none" fill-rule="evenodd"></path></svg>