<svg width="20" height="20" viewBox="0 0 20 20" fill="none" xmlns="http://www.w3.org/2000/svg"><path d="M2.683 2.074 C 2.405 2.174,2.149 2.446,2.044 2.754 C 1.906 3.157,2.165 3.697,2.595 3.906 C 2.724 3.968,2.816 3.981,3.215 3.991 C 3.784 4.006,3.828 4.014,3.866 4.114 C 3.896 4.193,4.403 6.971,5.114 10.949 L 5.495 13.080 4.389 14.200 C 3.781 14.816,3.223 15.407,3.150 15.514 C 3.020 15.704,3.017 15.715,3.017 15.996 C 3.017 16.337,3.072 16.474,3.299 16.701 C 3.487 16.889,3.653 16.969,3.903 16.991 C 4.242 17.022,4.352 16.969,4.807 16.554 C 5.350 16.061,13.552 7.883,15.921 5.474 C 16.997 4.379,17.837 3.498,17.890 3.409 C 18.068 3.104,17.993 2.620,17.723 2.339 C 17.530 2.137,17.353 2.057,17.066 2.040 C 16.842 2.027,16.783 2.036,16.628 2.107 C 16.421 2.202,15.957 2.618,15.134 3.447 L 14.584 4.000 10.249 4.000 L 5.913 4.000 5.823 3.675 C 5.683 3.169,5.532 2.892,5.236 2.598 C 4.936 2.298,4.686 2.148,4.377 2.083 C 4.104 2.025,2.840 2.018,2.683 2.074 M10.631 7.952 L 8.679 9.905 7.885 9.983 C 7.448 10.026,7.072 10.054,7.049 10.045 C 7.023 10.035,6.953 9.751,6.871 9.323 C 6.748 8.686,6.267 6.074,6.267 6.046 C 6.267 6.027,7.386 6.015,10.033 6.008 L 12.583 6.000 10.631 7.952 M14.853 9.365 C 13.697 10.519,12.763 11.474,12.776 11.488 C 12.803 11.514,13.630 11.457,14.317 11.380 C 15.085 11.295,15.532 11.104,15.909 10.702 C 16.241 10.347,16.327 10.099,16.748 8.299 C 16.870 7.777,16.976 7.331,16.984 7.308 C 16.992 7.285,16.988 7.267,16.976 7.267 C 16.964 7.267,16.009 8.211,14.853 9.365 M10.217 13.997 L 9.217 15.001 11.985 14.992 L 14.753 14.983 14.946 14.867 C 15.143 14.748,15.274 14.609,15.387 14.400 C 15.482 14.224,15.476 13.733,15.377 13.548 C 15.292 13.388,15.089 13.196,14.907 13.104 C 14.785 13.041,14.680 13.037,12.997 13.016 L 11.217 12.993 10.217 13.997 M13.594 15.581 C 13.527 15.607,13.388 15.682,13.285 15.747 C 12.919 15.982,12.684 16.519,12.769 16.930 C 12.855 17.346,13.118 17.689,13.491 17.873 C 13.689 17.970,13.739 17.981,13.999 17.979 C 14.238 17.978,14.320 17.962,14.483 17.888 C 14.760 17.761,14.939 17.602,15.056 17.378 C 15.266 16.979,15.282 16.594,15.104 16.215 C 14.983 15.957,14.808 15.785,14.533 15.655 C 14.350 15.568,14.271 15.551,14.017 15.543 C 13.819 15.537,13.675 15.550,13.594 15.581 M7.526 16.708 C 6.660 17.609,6.567 17.713,6.567 17.774 C 6.567 17.880,7.107 18.019,7.382 17.985 C 7.779 17.935,8.188 17.633,8.384 17.245 C 8.471 17.074,8.482 17.018,8.482 16.749 C 8.482 16.473,8.472 16.425,8.372 16.223 C 8.312 16.100,8.250 16.000,8.235 16.000 C 8.219 16.000,7.900 16.319,7.526 16.708 " fill="#1A1C1F" stroke="none" fill-rule="evenodd"></path></svg>