<svg width="24" height="24" viewBox="0 0 24 24" fill="none" xmlns="http://www.w3.org/2000/svg"><path d="M20.321 2.366 C 20.205 2.425,19.715 2.879,18.936 3.649 L 17.731 4.840 12.489 4.840 L 7.246 4.840 7.219 4.715 C 7.172 4.502,6.972 4.051,6.834 3.851 C 6.544 3.428,6.049 3.080,5.480 2.897 C 5.155 2.793,3.032 2.761,2.846 2.857 C 2.210 3.186,2.075 3.880,2.539 4.432 C 2.749 4.681,2.903 4.720,3.867 4.765 C 4.811 4.809,4.850 4.819,5.088 5.067 C 5.327 5.317,5.249 4.926,6.816 13.778 L 7.113 15.456 5.825 16.764 C 5.116 17.483,4.486 18.145,4.424 18.234 C 4.214 18.538,4.205 18.860,4.398 19.235 C 4.604 19.637,5.062 19.809,5.586 19.683 C 5.790 19.634,5.882 19.544,13.187 12.227 C 20.424 4.977,21.528 3.853,21.667 3.590 C 21.814 3.311,21.713 2.844,21.449 2.580 C 21.166 2.297,20.649 2.199,20.321 2.366 M21.208 7.037 C 20.951 7.277,20.324 7.893,19.815 8.407 L 18.889 9.340 18.763 9.871 C 18.623 10.458,18.531 10.704,18.411 10.811 C 18.335 10.879,17.660 10.997,17.336 10.999 C 17.226 11.000,17.083 11.130,16.146 12.080 C 15.560 12.673,15.080 13.186,15.080 13.220 C 15.080 13.253,15.107 13.280,15.141 13.280 C 15.416 13.280,18.358 12.931,18.840 12.841 C 19.500 12.718,20.289 12.066,20.555 11.424 C 20.672 11.143,21.187 9.153,21.534 7.640 C 21.776 6.587,21.774 6.600,21.722 6.600 C 21.697 6.600,21.466 6.796,21.208 7.037 M13.306 9.274 L 10.832 11.748 9.806 11.858 C 9.242 11.918,8.717 11.961,8.641 11.954 L 8.502 11.940 8.273 10.740 C 8.030 9.465,7.560 6.914,7.560 6.870 C 7.560 6.821,7.992 6.815,11.880 6.807 L 15.780 6.800 13.306 9.274 M11.509 16.715 C 11.009 17.220,10.600 17.652,10.600 17.674 C 10.600 17.697,10.685 17.728,10.789 17.743 C 11.106 17.791,18.077 17.732,18.253 17.680 C 18.439 17.625,18.701 17.371,18.803 17.146 C 18.885 16.965,18.905 16.591,18.842 16.425 C 18.784 16.273,18.526 16.005,18.343 15.907 C 18.181 15.820,18.171 15.820,15.299 15.808 L 12.417 15.796 11.509 16.715 M8.370 19.849 C 7.703 20.518,7.712 20.502,7.821 20.872 C 7.898 21.129,8.242 21.515,8.509 21.644 C 9.064 21.913,9.855 21.592,10.125 20.988 C 10.247 20.714,10.250 20.265,10.132 20.000 C 9.985 19.673,9.516 19.331,9.120 19.261 C 8.983 19.237,8.967 19.249,8.370 19.849 M17.064 19.343 C 16.785 19.432,16.438 19.785,16.339 20.080 C 16.090 20.818,16.526 21.554,17.312 21.722 C 17.570 21.777,17.926 21.695,18.178 21.521 C 18.967 20.979,18.871 19.772,18.009 19.391 C 17.770 19.285,17.316 19.262,17.064 19.343 " fill="#1A1C1F" stroke="none" fill-rule="evenodd"></path></svg>