<svg width="32" height="32" viewBox="0 0 32 32" fill="none" xmlns="http://www.w3.org/2000/svg"><path d="M3.760 2.933 C 3.249 2.972,3.029 3.117,2.856 3.532 C 2.718 3.863,2.780 4.247,3.019 4.530 C 3.202 4.748,3.402 4.794,4.438 4.855 C 4.928 4.884,5.419 4.938,5.529 4.974 C 5.820 5.070,6.046 5.395,6.156 5.875 C 6.312 6.558,7.006 9.865,7.894 14.160 C 9.516 22.009,9.557 22.180,9.957 22.731 C 10.146 22.991,10.649 23.401,10.999 23.579 C 11.552 23.862,11.370 23.854,18.187 23.861 C 24.061 23.866,24.518 23.860,24.674 23.775 C 25.039 23.575,25.259 23.154,25.213 22.745 C 25.182 22.469,25.039 22.256,24.751 22.057 L 24.537 21.908 18.246 21.874 C 11.970 21.840,11.954 21.840,11.804 21.728 C 11.567 21.553,11.430 21.252,11.254 20.525 C 11.089 19.846,10.922 18.980,10.950 18.952 C 10.980 18.922,12.391 18.764,17.760 18.189 C 25.144 17.398,25.416 17.361,25.940 17.079 C 26.287 16.893,27.031 16.150,27.185 15.837 C 27.349 15.503,28.045 12.893,28.998 9.040 C 29.226 8.115,29.246 7.634,29.072 7.187 C 28.923 6.803,28.519 6.354,28.116 6.123 L 27.813 5.949 18.005 5.921 L 8.197 5.893 8.076 5.440 C 7.891 4.743,7.739 4.372,7.516 4.072 C 7.161 3.595,6.549 3.178,5.973 3.021 C 5.658 2.936,4.399 2.886,3.760 2.933 M27.167 7.949 C 27.215 7.998,25.825 13.437,25.513 14.423 C 25.251 15.250,25.210 15.289,24.507 15.409 C 23.713 15.544,10.519 16.940,10.477 16.893 C 10.451 16.864,8.640 8.100,8.640 8.002 C 8.640 7.973,8.880 7.942,9.187 7.931 C 10.081 7.900,27.135 7.917,27.167 7.949 M11.380 25.968 C 10.958 26.076,10.507 26.569,10.337 27.105 C 10.245 27.398,10.240 27.477,10.295 27.733 C 10.434 28.384,10.869 28.876,11.454 29.046 C 12.493 29.348,13.596 28.433,13.472 27.372 C 13.403 26.788,13.057 26.294,12.563 26.076 C 12.316 25.967,11.628 25.904,11.380 25.968 M22.844 25.988 C 22.549 26.102,22.191 26.390,22.031 26.642 C 21.760 27.068,21.711 27.822,21.926 28.225 C 22.036 28.431,22.472 28.861,22.677 28.965 C 22.910 29.084,23.617 29.106,23.957 29.004 C 24.409 28.869,24.904 28.222,24.989 27.656 C 25.053 27.228,24.781 26.564,24.437 26.310 C 24.093 26.055,23.819 25.956,23.413 25.939 C 23.181 25.929,22.942 25.949,22.844 25.988 " fill="#1A1C1F" stroke="none" fill-rule="evenodd"></path></svg>