<svg width="12" height="12" viewBox="0 0 12 12" fill="none" xmlns="http://www.w3.org/2000/svg"><path d="M1.770 1.220 C 1.264 1.266,1.027 1.816,1.356 2.182 C 1.506 2.350,1.588 2.379,1.966 2.400 C 2.212 2.414,2.295 2.426,2.311 2.448 C 2.336 2.482,2.307 2.327,2.871 5.470 L 3.297 7.850 2.683 8.470 C 1.829 9.333,1.812 9.354,1.812 9.590 C 1.812 9.777,1.847 9.868,1.964 9.992 C 2.095 10.131,2.227 10.189,2.410 10.188 C 2.582 10.187,2.620 10.168,2.841 9.975 C 3.077 9.767,8.492 4.369,9.694 3.143 C 10.236 2.589,10.703 2.097,10.732 2.049 C 10.882 1.792,10.761 1.436,10.472 1.284 C 10.383 1.238,10.346 1.231,10.188 1.230 C 10.007 1.230,10.004 1.231,9.890 1.309 C 9.826 1.353,9.543 1.616,9.259 1.894 L 8.744 2.400 6.146 2.400 L 3.548 2.400 3.494 2.205 C 3.403 1.883,3.323 1.736,3.134 1.551 C 2.946 1.366,2.766 1.266,2.572 1.239 C 2.404 1.216,1.940 1.205,1.770 1.220 M6.380 4.770 L 5.210 5.940 4.943 5.969 C 4.795 5.985,4.573 6.005,4.448 6.012 L 4.221 6.026 4.202 5.975 C 4.191 5.947,4.092 5.430,3.981 4.827 C 3.870 4.224,3.774 3.705,3.768 3.675 L 3.757 3.621 4.223 3.615 C 4.480 3.612,5.333 3.607,6.120 3.605 L 7.550 3.600 6.380 4.770 M8.904 5.630 C 7.454 7.087,7.553 6.925,8.149 6.870 C 8.694 6.820,8.948 6.784,9.075 6.737 C 9.338 6.639,9.605 6.410,9.706 6.196 C 9.804 5.990,9.886 5.693,10.080 4.843 C 10.136 4.597,10.177 4.390,10.170 4.383 C 10.163 4.376,9.593 4.938,8.904 5.630 M6.130 8.400 L 5.530 9.000 7.176 9.000 C 8.806 9.000,8.822 9.000,8.904 8.958 C 9.015 8.901,9.175 8.748,9.225 8.650 C 9.289 8.527,9.295 8.319,9.240 8.173 C 9.194 8.050,9.083 7.924,8.971 7.865 C 8.898 7.826,8.347 7.804,7.360 7.802 L 6.730 7.800 6.130 8.400 M8.085 9.371 C 7.876 9.476,7.715 9.696,7.657 9.954 C 7.637 10.044,7.639 10.079,7.667 10.182 C 7.765 10.533,7.969 10.729,8.290 10.780 C 8.618 10.832,8.928 10.661,9.076 10.344 C 9.122 10.246,9.130 10.204,9.130 10.050 C 9.129 9.898,9.121 9.852,9.076 9.756 C 9.006 9.605,8.869 9.461,8.726 9.389 C 8.624 9.337,8.585 9.330,8.400 9.324 C 8.205 9.318,8.182 9.321,8.085 9.371 M4.428 10.103 C 4.158 10.371,3.928 10.605,3.918 10.624 C 3.903 10.652,3.914 10.666,3.976 10.698 C 4.103 10.763,4.299 10.805,4.416 10.793 C 4.650 10.770,4.916 10.583,5.021 10.370 C 5.064 10.281,5.070 10.244,5.070 10.040 C 5.070 9.832,5.065 9.802,5.020 9.721 C 4.992 9.673,4.958 9.629,4.944 9.625 C 4.930 9.620,4.698 9.835,4.428 10.103 " fill="#1A1C1F" stroke="none" fill-rule="evenodd"></path></svg>