<svg width="12" height="12" viewBox="0 0 12 12" fill="none" xmlns="http://www.w3.org/2000/svg"><path d="M5.612 1.831 C 5.080 1.916,4.655 2.128,4.290 2.490 C 4.016 2.761,3.827 3.086,3.711 3.489 C 3.655 3.682,3.600 3.985,3.600 4.102 L 3.600 4.173 2.630 4.186 C 1.696 4.199,1.657 4.201,1.577 4.242 C 1.461 4.300,1.309 4.448,1.261 4.548 C 1.203 4.667,1.208 4.791,1.291 5.275 C 1.381 5.806,2.085 9.337,2.161 9.637 C 2.234 9.927,2.314 10.040,2.520 10.144 L 2.610 10.190 5.990 10.196 C 7.849 10.199,9.389 10.197,9.412 10.191 C 9.483 10.173,9.696 10.006,9.749 9.925 C 9.819 9.819,9.850 9.688,10.120 8.340 C 10.593 5.980,10.754 5.114,10.774 4.827 C 10.784 4.665,10.781 4.634,10.742 4.554 C 10.691 4.449,10.541 4.302,10.423 4.242 C 10.343 4.201,10.304 4.199,9.374 4.186 L 8.407 4.174 8.384 3.962 C 8.325 3.440,8.138 2.984,7.833 2.618 C 7.564 2.297,7.099 2.010,6.672 1.901 C 6.369 1.823,5.866 1.790,5.612 1.831 M6.356 3.062 C 6.558 3.113,6.687 3.187,6.842 3.340 C 7.031 3.527,7.146 3.776,7.189 4.095 L 7.204 4.200 5.999 4.200 L 4.795 4.200 4.808 4.095 C 4.866 3.653,5.070 3.324,5.390 3.157 C 5.690 3.000,5.994 2.970,6.356 3.062 " fill="#1A1C1F" stroke="none" fill-rule="evenodd"></path></svg>