<svg width="14" height="14" viewBox="0 0 14 14" fill="none" xmlns="http://www.w3.org/2000/svg"><path d="M2.039 1.422 C 1.757 1.456,1.512 1.663,1.432 1.934 C 1.367 2.155,1.430 2.380,1.614 2.580 C 1.771 2.752,1.853 2.778,2.299 2.797 C 2.509 2.806,2.686 2.818,2.692 2.825 C 2.712 2.844,2.870 3.700,3.371 6.498 L 3.847 9.158 3.130 9.882 C 2.221 10.799,2.151 10.883,2.115 11.083 C 2.096 11.187,2.132 11.407,2.185 11.520 C 2.243 11.640,2.387 11.779,2.517 11.837 C 2.665 11.903,2.973 11.906,3.071 11.842 C 3.213 11.749,4.650 10.331,8.144 6.837 C 11.745 3.236,12.467 2.500,12.545 2.352 C 12.606 2.235,12.601 1.979,12.534 1.832 C 12.470 1.692,12.342 1.554,12.215 1.488 C 12.141 1.449,12.076 1.439,11.897 1.437 L 11.673 1.435 11.537 1.528 C 11.462 1.580,11.131 1.887,10.802 2.211 L 10.202 2.800 7.171 2.800 L 4.139 2.800 4.076 2.573 C 3.971 2.197,3.877 2.025,3.656 1.809 C 3.440 1.596,3.234 1.480,3.016 1.447 C 2.820 1.418,2.205 1.402,2.039 1.422 M7.443 5.565 L 6.078 6.930 5.522 6.987 C 5.216 7.018,4.952 7.038,4.935 7.032 C 4.916 7.024,4.869 6.835,4.810 6.526 C 4.724 6.080,4.387 4.252,4.387 4.232 C 4.387 4.218,5.144 4.211,7.000 4.205 L 8.808 4.200 7.443 5.565 M10.619 6.348 C 8.960 7.995,8.911 8.050,9.119 8.050 C 9.238 8.050,10.103 7.962,10.278 7.932 C 10.594 7.878,10.826 7.776,11.054 7.591 C 11.318 7.377,11.424 7.093,11.724 5.810 C 11.809 5.444,11.883 5.132,11.889 5.116 C 11.894 5.100,11.896 5.087,11.893 5.088 C 11.891 5.088,11.317 5.656,10.619 6.348 M7.152 9.798 L 6.452 10.501 8.388 10.495 L 10.325 10.488 10.436 10.423 C 10.968 10.111,10.967 9.444,10.435 9.172 C 10.345 9.127,10.288 9.124,9.096 9.110 L 7.852 9.095 7.152 9.798 M9.517 10.904 C 9.382 10.955,9.278 11.028,9.160 11.154 C 9.034 11.289,8.976 11.408,8.936 11.610 C 8.886 11.868,8.989 12.140,9.215 12.352 C 9.399 12.523,9.558 12.586,9.801 12.585 C 9.966 12.584,10.024 12.574,10.134 12.523 C 10.319 12.439,10.502 12.259,10.585 12.080 C 10.643 11.953,10.652 11.909,10.650 11.725 C 10.649 11.547,10.639 11.494,10.585 11.375 C 10.509 11.209,10.371 11.060,10.203 10.964 C 10.095 10.902,10.054 10.893,9.842 10.883 C 9.672 10.875,9.577 10.881,9.517 10.904 M5.260 11.719 C 4.711 12.273,4.597 12.398,4.597 12.446 C 4.597 12.503,4.888 12.587,5.087 12.588 C 5.309 12.588,5.488 12.510,5.665 12.336 C 5.899 12.107,5.970 11.903,5.926 11.589 C 5.903 11.433,5.825 11.247,5.775 11.231 C 5.762 11.227,5.530 11.446,5.260 11.719 " fill="#1A1C1F" stroke="none" fill-rule="evenodd"></path></svg>