<svg width="20" height="20" viewBox="0 0 20 20" fill="none" xmlns="http://www.w3.org/2000/svg"><path d="M9.283 2.569 C 8.821 2.621,8.357 2.790,7.883 3.078 C 7.023 3.602,6.408 4.421,6.166 5.367 C 6.083 5.687,6.000 6.174,6.000 6.332 L 6.000 6.456 4.381 6.477 L 2.762 6.498 2.590 6.597 C 2.230 6.804,2.069 7.034,2.042 7.381 C 2.020 7.665,2.110 8.175,2.804 11.661 L 3.402 14.672 2.843 15.247 C 2.258 15.846,2.123 16.012,2.048 16.223 C 1.846 16.790,2.311 17.432,2.965 17.491 C 3.215 17.514,3.322 17.463,3.701 17.146 C 4.084 16.825,15.189 5.736,15.896 4.969 C 16.430 4.388,16.466 4.328,16.466 4.017 C 16.466 3.648,16.328 3.394,16.020 3.194 C 15.825 3.068,15.819 3.067,15.493 3.067 C 15.275 3.067,15.133 3.083,15.073 3.113 C 14.988 3.157,14.662 3.449,13.868 4.194 L 13.536 4.505 13.376 4.280 C 12.787 3.453,12.093 2.947,11.183 2.684 C 10.707 2.546,9.910 2.498,9.283 2.569 M10.486 4.569 C 11.115 4.683,11.679 5.199,11.885 5.848 L 11.969 6.112 11.777 6.306 L 11.585 6.500 9.790 6.500 L 7.994 6.500 8.016 6.325 C 8.088 5.767,8.255 5.389,8.567 5.078 C 8.782 4.863,9.125 4.661,9.402 4.586 C 9.619 4.528,10.208 4.519,10.486 4.569 M15.289 8.481 C 14.222 9.534,11.978 11.769,10.300 13.449 L 7.250 16.502 11.450 16.491 C 14.768 16.483,15.677 16.471,15.779 16.437 C 15.934 16.386,16.216 16.131,16.299 15.967 C 16.388 15.793,16.821 13.705,17.497 10.200 C 18.054 7.310,18.055 7.303,17.808 6.927 C 17.711 6.780,17.414 6.567,17.305 6.567 C 17.247 6.567,16.734 7.053,15.289 8.481 " fill="#1A1C1F" stroke="none" fill-rule="evenodd"></path></svg>