<svg width="16" height="16" viewBox="0 0 16 16" fill="none" xmlns="http://www.w3.org/2000/svg"><path d="M7.427 2.051 C 6.466 2.174,5.529 2.880,5.104 3.801 C 4.984 4.059,4.861 4.538,4.820 4.900 L 4.789 5.173 4.081 5.176 C 3.692 5.177,3.103 5.186,2.773 5.197 C 2.104 5.218,2.092 5.221,1.875 5.421 C 1.746 5.540,1.676 5.656,1.629 5.833 C 1.583 6.001,1.610 6.152,2.336 9.794 L 2.723 11.735 2.245 12.229 C 1.962 12.521,1.736 12.779,1.690 12.861 C 1.443 13.309,1.789 13.929,2.321 13.992 C 2.507 14.014,2.657 13.963,2.867 13.806 C 3.077 13.648,12.443 4.301,12.850 3.842 C 13.129 3.529,13.200 3.395,13.200 3.187 C 13.200 2.923,13.003 2.626,12.741 2.495 C 12.519 2.385,12.171 2.406,11.980 2.543 C 11.928 2.580,11.653 2.829,11.368 3.098 C 11.083 3.367,10.842 3.589,10.832 3.592 C 10.822 3.595,10.749 3.503,10.671 3.386 C 10.238 2.742,9.389 2.183,8.693 2.084 C 8.428 2.046,7.627 2.026,7.427 2.051 M8.388 3.655 C 8.892 3.747,9.343 4.159,9.508 4.678 L 9.575 4.890 9.422 5.045 L 9.268 5.200 7.831 5.200 L 6.394 5.200 6.413 5.050 C 6.485 4.471,6.759 4.033,7.190 3.807 C 7.294 3.752,7.444 3.690,7.523 3.669 C 7.695 3.623,8.167 3.615,8.388 3.655 M9.798 9.202 L 5.800 13.200 9.157 13.200 L 12.514 13.200 12.637 13.140 C 12.787 13.067,12.990 12.871,13.061 12.730 C 13.125 12.606,13.195 12.274,13.650 9.947 C 14.435 5.939,14.439 5.912,14.299 5.638 C 14.234 5.511,14.047 5.332,13.901 5.257 L 13.796 5.204 9.798 9.202 " fill="#1A1C1F" stroke="none" fill-rule="evenodd"></path></svg>