<svg width="32" height="32" viewBox="0 0 32 32" fill="none" xmlns="http://www.w3.org/2000/svg"><path d="M14.877 3.089 C 13.003 3.413,11.545 4.171,10.291 5.472 C 9.002 6.809,8.186 8.645,8.073 10.458 L 8.038 11.023 5.825 11.059 L 3.611 11.095 3.345 11.240 C 2.970 11.444,2.597 11.817,2.425 12.160 C 2.233 12.542,2.202 12.982,2.316 13.707 C 2.535 15.101,3.962 22.663,4.533 25.455 C 4.911 27.302,5.003 27.528,5.625 28.133 C 6.030 28.527,6.426 28.766,6.880 28.891 C 7.206 28.981,7.740 28.987,16.000 28.987 C 24.201 28.987,24.799 28.981,25.173 28.892 C 25.855 28.732,26.400 28.333,26.837 27.675 C 27.183 27.152,27.259 26.810,28.581 19.760 C 29.888 12.793,29.876 12.878,29.652 12.294 C 29.498 11.893,29.065 11.449,28.613 11.231 L 28.293 11.076 26.147 11.051 L 24.000 11.025 24.000 10.746 C 24.000 10.279,23.788 9.183,23.569 8.514 C 22.955 6.642,21.672 5.066,19.927 4.040 C 19.119 3.566,17.971 3.191,17.040 3.099 C 15.943 2.989,15.465 2.987,14.877 3.089 M17.600 5.223 C 18.425 5.463,19.411 6.023,20.093 6.637 C 21.093 7.539,21.973 9.478,21.973 10.780 L 21.973 11.040 15.995 11.040 L 10.017 11.040 10.051 10.760 C 10.200 9.569,10.430 8.783,10.841 8.065 C 11.678 6.601,12.947 5.627,14.578 5.195 C 15.034 5.074,15.138 5.067,16.133 5.086 C 17.031 5.104,17.263 5.125,17.600 5.223 M27.752 13.067 C 27.767 13.083,27.710 13.467,27.626 13.921 C 25.738 24.094,25.330 26.200,25.196 26.465 C 25.069 26.715,24.963 26.823,24.723 26.945 C 24.515 27.052,24.444 27.052,15.971 27.032 L 7.429 27.011 7.209 26.865 C 7.088 26.785,6.943 26.630,6.887 26.520 C 6.723 26.197,6.500 25.091,4.957 16.960 C 4.576 14.951,4.253 13.254,4.238 13.189 C 4.213 13.073,4.226 13.070,4.759 13.053 C 5.658 13.023,27.722 13.038,27.752 13.067 " fill="#1A1C1F" stroke="none" fill-rule="evenodd"></path></svg>