<svg width="16" height="16" viewBox="0 0 16 16" fill="none" xmlns="http://www.w3.org/2000/svg"><path d="M7.480 2.041 C 7.144 2.094,6.850 2.191,6.514 2.359 C 5.921 2.655,5.540 3.016,5.213 3.588 C 5.005 3.952,4.800 4.683,4.800 5.060 L 4.800 5.200 4.100 5.202 C 3.715 5.204,3.118 5.213,2.773 5.223 C 2.153 5.241,2.144 5.242,2.022 5.314 C 1.885 5.394,1.733 5.557,1.668 5.694 C 1.569 5.902,1.604 6.118,2.253 9.382 L 2.721 11.738 2.247 12.224 C 1.679 12.807,1.616 12.905,1.618 13.199 C 1.619 13.444,1.662 13.555,1.826 13.730 C 1.991 13.906,2.171 13.984,2.413 13.986 C 2.573 13.987,2.619 13.975,2.733 13.908 C 2.818 13.858,3.622 13.082,4.960 11.758 C 7.724 9.022,12.503 4.226,12.848 3.842 C 13.129 3.528,13.200 3.396,13.200 3.187 C 13.200 2.923,13.003 2.626,12.741 2.495 C 12.520 2.386,12.171 2.406,11.983 2.541 C 11.933 2.576,11.658 2.826,11.371 3.096 C 11.085 3.366,10.843 3.589,10.832 3.592 C 10.822 3.596,10.759 3.518,10.693 3.419 C 10.542 3.194,10.061 2.707,9.863 2.578 C 9.413 2.287,8.993 2.125,8.538 2.068 C 8.067 2.008,7.742 2.000,7.480 2.041 M8.451 3.668 C 8.707 3.728,8.923 3.854,9.134 4.066 C 9.324 4.256,9.474 4.511,9.549 4.768 L 9.583 4.882 9.425 5.041 L 9.268 5.200 7.834 5.200 C 6.486 5.200,6.400 5.197,6.400 5.153 C 6.401 5.005,6.517 4.576,6.603 4.403 C 6.775 4.055,7.121 3.774,7.508 3.668 C 7.692 3.617,8.237 3.617,8.451 3.668 M13.705 5.332 C 13.640 5.375,13.389 5.609,13.147 5.852 L 12.707 6.293 12.198 8.940 L 11.688 11.587 9.544 11.593 L 7.399 11.600 6.600 12.400 L 5.800 13.200 9.158 13.200 C 12.488 13.200,12.517 13.200,12.629 13.145 C 12.801 13.062,12.976 12.894,13.051 12.739 C 13.121 12.597,13.543 10.543,14.064 7.813 C 14.386 6.129,14.407 6.002,14.388 5.885 C 14.369 5.762,14.295 5.612,14.201 5.499 C 14.127 5.411,13.904 5.253,13.853 5.253 C 13.836 5.253,13.769 5.289,13.705 5.332 M5.899 8.564 C 4.927 9.534,4.126 10.322,4.119 10.315 C 4.095 10.290,3.387 6.904,3.387 6.811 C 3.387 6.805,4.350 6.800,5.527 6.801 L 7.667 6.801 5.899 8.564 " fill="#1A1C1F" stroke="none" fill-rule="evenodd"></path></svg>