<svg width="28" height="28" viewBox="0 0 28 28" fill="none" xmlns="http://www.w3.org/2000/svg"><path d="M12.932 2.312 C 11.523 2.618,10.191 3.577,9.475 4.804 C 9.119 5.414,8.838 6.308,8.748 7.122 L 8.716 7.408 7.380 7.433 C 6.604 7.448,5.971 7.481,5.870 7.511 C 5.441 7.641,5.289 7.924,5.222 8.723 C 5.176 9.274,4.729 17.732,4.495 22.484 L 4.366 25.111 4.480 25.326 C 4.553 25.463,4.671 25.591,4.803 25.674 L 5.012 25.807 13.988 25.807 C 21.805 25.807,22.982 25.798,23.098 25.738 C 23.287 25.640,23.560 25.304,23.593 25.129 C 23.621 24.983,23.577 24.034,23.169 15.960 C 22.899 10.608,22.778 8.488,22.731 8.233 C 22.681 7.970,22.489 7.678,22.301 7.580 C 22.094 7.473,21.458 7.423,20.295 7.421 L 19.287 7.420 19.231 7.012 C 19.155 6.453,18.974 5.754,18.798 5.329 C 18.165 3.809,16.448 2.491,14.841 2.290 C 14.300 2.222,13.293 2.234,12.932 2.312 M14.880 4.079 C 15.184 4.162,15.750 4.427,16.018 4.612 C 16.542 4.973,17.020 5.616,17.262 6.282 C 17.404 6.673,17.531 7.311,17.478 7.365 C 17.460 7.382,15.880 7.402,13.966 7.409 L 10.487 7.422 10.514 7.188 C 10.626 6.245,11.060 5.402,11.737 4.810 C 12.116 4.479,12.840 4.126,13.323 4.037 C 13.761 3.957,14.504 3.977,14.880 4.079 M21.047 9.359 C 21.047 9.449,21.193 12.332,21.372 15.764 C 21.818 24.305,21.803 23.992,21.769 24.026 C 21.732 24.063,6.272 24.068,6.235 24.031 C 6.199 23.994,6.258 22.735,6.629 15.688 C 6.807 12.291,6.953 9.440,6.953 9.353 L 6.953 9.193 14.000 9.193 L 21.047 9.193 21.047 9.359 M9.357 10.998 C 9.186 11.046,9.008 11.204,8.879 11.425 C 8.766 11.616,8.751 11.688,8.758 11.993 C 8.789 13.447,9.569 14.956,10.795 15.937 C 11.798 16.740,13.310 17.192,14.467 17.035 C 15.788 16.855,16.769 16.393,17.639 15.540 C 18.496 14.699,18.988 13.764,19.158 12.647 C 19.300 11.721,19.235 11.392,18.861 11.131 C 18.689 11.011,18.616 10.990,18.371 10.990 C 17.811 10.991,17.592 11.250,17.474 12.052 C 17.270 13.446,16.626 14.395,15.517 14.933 C 13.778 15.777,11.745 15.086,10.920 13.372 C 10.702 12.918,10.601 12.563,10.498 11.875 C 10.437 11.470,10.296 11.212,10.074 11.098 C 9.898 11.006,9.517 10.954,9.357 10.998 " fill="#1A1C1F" stroke="none" fill-rule="evenodd"></path></svg>