<svg width="12" height="12" viewBox="0 0 12 12" fill="none" xmlns="http://www.w3.org/2000/svg"><path d="M5.560 1.539 C 4.805 1.676,4.207 2.111,3.872 2.767 C 3.721 3.062,3.601 3.527,3.600 3.812 L 3.600 3.894 2.643 3.907 C 2.112 3.915,1.654 3.930,1.614 3.941 C 1.457 3.985,1.266 4.188,1.220 4.361 C 1.188 4.478,1.221 4.663,1.654 6.837 L 2.046 8.803 1.777 9.077 C 1.218 9.643,1.173 9.719,1.220 10.010 C 1.259 10.247,1.448 10.436,1.687 10.478 C 1.892 10.514,1.999 10.484,2.156 10.346 C 2.477 10.064,3.961 8.595,6.568 5.978 C 9.357 3.180,9.713 2.814,9.823 2.641 C 9.963 2.422,9.832 2.033,9.573 1.894 C 9.502 1.857,9.458 1.850,9.280 1.850 C 9.073 1.850,9.067 1.851,8.980 1.916 C 8.931 1.952,8.721 2.141,8.514 2.336 C 8.307 2.530,8.131 2.692,8.124 2.694 C 8.116 2.697,8.057 2.622,7.992 2.529 C 7.849 2.324,7.563 2.044,7.360 1.911 C 7.065 1.718,6.694 1.577,6.380 1.540 C 6.040 1.500,5.778 1.500,5.560 1.539 M6.536 2.822 C 6.830 2.965,7.049 3.218,7.143 3.527 L 7.185 3.664 7.068 3.782 L 6.951 3.900 5.883 3.900 L 4.814 3.900 4.826 3.745 C 4.857 3.350,5.083 3.005,5.423 2.833 C 5.611 2.737,5.724 2.720,6.090 2.733 C 6.368 2.742,6.371 2.743,6.536 2.822 M10.268 3.998 C 10.225 4.030,10.042 4.205,9.860 4.388 L 9.531 4.720 9.150 6.705 L 8.769 8.690 7.154 8.700 L 5.540 8.710 4.945 9.305 L 4.350 9.900 6.800 9.900 C 8.271 9.900,9.297 9.892,9.367 9.881 C 9.455 9.866,9.511 9.841,9.591 9.781 C 9.753 9.659,9.800 9.585,9.853 9.364 C 9.921 9.084,10.543 5.931,10.698 5.080 C 10.822 4.397,10.822 4.344,10.694 4.176 C 10.613 4.070,10.444 3.940,10.388 3.940 C 10.365 3.940,10.311 3.966,10.268 3.998 M4.423 6.422 C 3.694 7.149,3.093 7.739,3.088 7.734 C 3.059 7.705,2.553 5.187,2.568 5.147 C 2.581 5.114,2.765 5.110,4.450 5.105 L 5.750 5.101 4.423 6.422 " fill="#1A1C1F" stroke="none" fill-rule="evenodd"></path></svg>