<svg width="12" height="12" viewBox="0 0 12 12" fill="none" xmlns="http://www.w3.org/2000/svg"><path d="M5.360 1.278 C 4.837 1.418,4.373 1.727,4.058 2.146 C 3.800 2.489,3.639 2.936,3.608 3.402 L 3.594 3.594 3.097 3.607 C 2.731 3.616,2.582 3.627,2.531 3.648 C 2.447 3.683,2.268 3.846,2.228 3.924 C 2.163 4.050,2.076 5.210,1.911 8.180 C 1.803 10.116,1.799 10.327,1.868 10.458 C 1.920 10.556,2.075 10.703,2.182 10.755 L 2.274 10.800 5.998 10.800 L 9.721 10.800 9.822 10.749 C 9.944 10.687,10.082 10.554,10.139 10.443 C 10.173 10.376,10.180 10.325,10.180 10.146 C 10.180 9.482,9.883 4.518,9.818 4.102 C 9.807 4.032,9.785 3.949,9.768 3.916 C 9.730 3.843,9.591 3.707,9.514 3.667 C 9.443 3.630,9.082 3.601,8.685 3.601 L 8.400 3.600 8.400 3.488 C 8.400 3.231,8.261 2.732,8.110 2.445 C 7.817 1.890,7.235 1.442,6.601 1.283 C 6.451 1.245,6.379 1.240,5.961 1.242 C 5.581 1.243,5.465 1.250,5.360 1.278 M6.335 2.450 C 6.670 2.529,6.988 2.800,7.100 3.100 C 7.146 3.224,7.199 3.462,7.200 3.545 L 7.200 3.600 5.998 3.600 L 4.796 3.600 4.811 3.475 C 4.856 3.083,5.010 2.804,5.281 2.623 C 5.406 2.539,5.574 2.468,5.710 2.440 C 5.846 2.413,6.202 2.419,6.335 2.450 M4.800 5.605 C 4.800 5.965,4.880 6.358,5.005 6.613 C 5.212 7.039,5.740 7.278,6.240 7.172 C 6.669 7.082,6.974 6.786,7.099 6.340 C 7.161 6.120,7.200 5.838,7.200 5.605 L 7.200 5.400 7.800 5.400 L 8.400 5.400 8.400 5.555 C 8.400 5.797,8.363 6.253,8.329 6.435 C 8.267 6.770,8.079 7.199,7.877 7.467 C 7.658 7.758,7.291 8.057,6.993 8.188 C 6.700 8.317,6.321 8.400,6.023 8.400 C 5.678 8.400,5.224 8.293,4.920 8.139 C 4.359 7.856,3.911 7.308,3.728 6.681 C 3.661 6.454,3.624 6.165,3.607 5.745 L 3.594 5.400 4.197 5.400 L 4.800 5.400 4.800 5.605 " fill="#1A1C1F" stroke="none" fill-rule="evenodd"></path></svg>