<svg width="16" height="16" viewBox="0 0 16 16" fill="none" xmlns="http://www.w3.org/2000/svg"><path d="M2.559 1.624 C 2.331 1.649,2.162 1.734,2.018 1.894 C 1.663 2.288,1.794 2.884,2.287 3.123 C 2.380 3.168,2.480 3.183,2.830 3.200 C 3.066 3.212,3.269 3.232,3.280 3.244 C 3.292 3.257,3.478 4.239,3.693 5.427 C 4.276 8.646,4.634 10.574,4.694 10.813 C 4.767 11.105,4.858 11.274,5.045 11.464 C 5.237 11.657,5.426 11.786,5.686 11.900 L 5.880 11.985 8.913 11.995 L 11.946 12.005 12.073 11.944 C 12.223 11.872,12.450 11.650,12.522 11.504 C 12.597 11.351,12.593 11.012,12.514 10.864 C 12.428 10.702,12.330 10.595,12.194 10.515 C 12.075 10.445,12.065 10.444,11.377 10.424 C 10.994 10.412,9.677 10.402,8.451 10.402 L 6.223 10.400 6.165 10.070 C 6.098 9.689,6.094 9.627,6.140 9.627 C 6.158 9.627,7.115 9.537,8.267 9.427 C 12.234 9.048,12.282 9.042,12.557 8.875 C 12.685 8.797,13.001 8.493,13.092 8.360 C 13.227 8.164,13.348 7.726,13.797 5.813 C 14.139 4.358,14.198 4.060,14.178 3.873 C 14.153 3.632,13.977 3.404,13.707 3.265 C 13.618 3.220,13.382 3.217,9.269 3.202 L 4.925 3.187 4.862 2.947 C 4.678 2.254,4.269 1.802,3.704 1.667 C 3.507 1.621,2.817 1.594,2.559 1.624 M12.365 4.837 C 12.389 4.854,11.819 7.205,11.751 7.366 C 11.727 7.424,11.688 7.465,11.649 7.475 C 11.434 7.529,5.854 8.050,5.823 8.019 C 5.788 7.984,5.219 4.912,5.238 4.862 C 5.248 4.835,5.404 4.826,5.926 4.820 C 6.534 4.814,12.353 4.829,12.365 4.837 M5.613 12.489 C 5.195 12.690,4.990 13.033,5.019 13.479 C 5.064 14.161,5.826 14.600,6.430 14.292 C 6.612 14.199,6.811 13.991,6.896 13.806 C 6.962 13.661,6.972 13.608,6.973 13.387 C 6.973 13.159,6.966 13.118,6.895 12.979 C 6.808 12.806,6.638 12.635,6.440 12.518 C 6.319 12.448,6.280 12.440,6.027 12.432 C 5.776 12.425,5.733 12.431,5.613 12.489 M11.080 12.460 C 10.855 12.540,10.602 12.776,10.487 13.012 C 10.424 13.138,10.415 13.192,10.415 13.400 C 10.415 13.710,10.485 13.866,10.732 14.103 C 10.967 14.329,11.095 14.382,11.403 14.383 C 11.613 14.383,11.666 14.373,11.792 14.312 C 11.973 14.223,12.248 13.943,12.325 13.768 C 12.389 13.623,12.402 13.292,12.350 13.105 C 12.279 12.844,11.979 12.550,11.699 12.467 C 11.545 12.421,11.199 12.417,11.080 12.460 " fill="#1A1C1F" stroke="none" fill-rule="evenodd"></path></svg>