<svg width="20" height="20" viewBox="0 0 20 20" fill="none" xmlns="http://www.w3.org/2000/svg"><path d="M9.282 2.564 C 8.851 2.640,8.564 2.735,8.150 2.936 C 7.516 3.245,7.005 3.703,6.627 4.304 C 6.268 4.873,6.003 5.732,6.001 6.336 L 6.000 6.489 4.363 6.512 C 2.814 6.534,2.720 6.539,2.595 6.602 C 2.390 6.707,2.210 6.889,2.109 7.095 C 1.949 7.422,1.915 7.200,2.836 11.827 L 3.403 14.671 2.810 15.280 C 2.099 16.009,2.021 16.131,2.022 16.499 C 2.023 16.805,2.078 16.943,2.283 17.162 C 2.488 17.383,2.713 17.480,3.017 17.482 C 3.216 17.483,3.274 17.469,3.416 17.386 C 3.610 17.272,6.756 14.169,11.420 9.494 C 15.230 5.674,16.275 4.605,16.391 4.406 C 16.568 4.104,16.492 3.619,16.223 3.339 C 16.025 3.132,15.853 3.056,15.547 3.040 C 15.125 3.018,15.108 3.029,13.883 4.180 C 13.690 4.361,13.527 4.504,13.522 4.496 C 13.517 4.489,13.443 4.384,13.357 4.262 C 13.163 3.985,12.758 3.553,12.523 3.372 C 12.100 3.045,11.548 2.770,11.073 2.649 C 10.887 2.602,9.922 2.497,9.720 2.503 C 9.663 2.504,9.466 2.532,9.282 2.564 M10.507 4.570 C 10.823 4.635,11.162 4.822,11.402 5.063 C 11.648 5.310,11.790 5.543,11.902 5.877 L 11.977 6.104 11.781 6.302 L 11.585 6.500 9.792 6.500 L 7.998 6.500 8.020 6.325 C 8.055 6.049,8.155 5.688,8.245 5.510 C 8.475 5.055,8.884 4.727,9.400 4.582 C 9.588 4.529,10.272 4.521,10.507 4.570 M17.131 6.665 C 17.050 6.719,16.736 7.012,16.433 7.315 L 15.883 7.867 15.247 11.175 L 14.611 14.483 11.930 14.492 L 9.249 14.500 8.250 15.500 L 7.250 16.500 10.934 16.498 C 14.592 16.497,15.658 16.476,15.850 16.401 C 15.979 16.352,16.222 16.116,16.299 15.967 C 16.407 15.756,16.545 15.101,17.280 11.317 C 18.066 7.267,18.049 7.378,17.909 7.113 C 17.869 7.037,17.798 6.930,17.751 6.874 C 17.658 6.764,17.380 6.567,17.317 6.567 C 17.295 6.567,17.212 6.611,17.131 6.665 M7.380 10.700 C 6.169 11.910,5.162 12.900,5.143 12.900 C 5.123 12.900,4.922 11.957,4.686 10.758 C 4.453 9.580,4.256 8.590,4.246 8.558 C 4.230 8.503,4.372 8.500,6.906 8.500 L 9.583 8.501 7.380 10.700 " fill="#1A1C1F" stroke="none" fill-rule="evenodd"></path></svg>