<svg width="28" height="28" viewBox="0 0 28 28" fill="none" xmlns="http://www.w3.org/2000/svg"><path d="M13.440 2.224 C 12.041 2.363,10.889 2.822,9.736 3.700 C 8.819 4.398,8.105 5.328,7.634 6.440 C 7.271 7.295,7.047 8.240,7.047 8.917 L 7.047 9.225 5.079 9.256 L 3.112 9.287 2.898 9.412 C 2.407 9.700,2.068 10.134,1.960 10.615 C 1.885 10.953,1.983 11.527,3.334 18.616 L 4.058 22.415 3.204 23.286 C 2.124 24.386,1.937 24.627,1.937 24.916 C 1.937 25.359,2.281 25.736,2.734 25.790 L 2.971 25.818 3.308 25.528 C 3.971 24.957,9.058 19.913,16.374 12.573 C 20.465 8.468,24.098 4.808,24.447 4.439 L 25.083 3.767 25.082 3.505 C 25.079 2.967,24.774 2.662,24.239 2.661 C 23.999 2.660,23.925 2.681,23.772 2.793 C 23.672 2.866,22.851 3.654,21.947 4.545 L 20.304 6.165 20.189 5.937 C 19.776 5.123,18.861 4.088,18.047 3.515 C 17.579 3.186,16.795 2.774,16.298 2.596 C 15.800 2.418,15.140 2.297,14.373 2.242 C 14.001 2.216,13.676 2.197,13.650 2.201 C 13.624 2.205,13.530 2.216,13.440 2.224 M15.081 4.079 C 16.357 4.325,17.597 5.188,18.365 6.366 C 18.637 6.783,18.900 7.303,18.900 7.423 C 18.900 7.528,18.648 7.819,17.901 8.575 L 17.245 9.240 14.024 9.240 C 12.253 9.240,10.346 9.226,9.787 9.209 L 8.770 9.178 8.802 8.894 C 8.868 8.289,9.046 7.563,9.227 7.152 C 9.881 5.671,11.208 4.520,12.717 4.127 C 13.076 4.034,13.253 4.018,13.938 4.016 C 14.444 4.014,14.864 4.038,15.081 4.079 M21.377 10.055 C 20.754 10.689,20.580 10.891,20.631 10.923 C 20.667 10.946,21.499 10.966,22.479 10.966 C 23.459 10.966,24.271 10.982,24.283 11.002 C 24.304 11.036,24.012 12.640,23.003 18.037 C 22.095 22.890,22.116 22.801,21.811 23.033 L 21.620 23.178 20.135 23.209 C 19.319 23.226,16.297 23.240,13.420 23.240 L 8.189 23.240 7.326 24.105 L 6.463 24.971 14.140 24.955 C 21.247 24.939,21.837 24.932,22.093 24.858 C 22.477 24.746,22.843 24.511,23.177 24.163 C 23.675 23.645,23.717 23.516,24.215 21.000 C 24.880 17.637,25.919 12.074,26.042 11.211 C 26.093 10.854,26.090 10.800,25.996 10.507 C 25.819 9.957,25.326 9.441,24.875 9.332 C 24.758 9.304,24.107 9.270,23.427 9.255 L 22.190 9.229 21.377 10.055 M10.587 15.891 C 7.876 18.598,5.637 20.813,5.611 20.813 C 5.585 20.813,5.511 20.535,5.445 20.195 C 4.833 17.003,3.738 11.246,3.726 11.153 L 3.710 11.037 5.227 11.012 C 6.061 10.999,8.717 10.984,11.130 10.978 L 15.517 10.968 10.587 15.891 " fill="#1A1C1F" stroke="none" fill-rule="evenodd"></path></svg>