<svg width="24" height="24" viewBox="0 0 24 24" fill="none" xmlns="http://www.w3.org/2000/svg"><path d="M2.820 2.608 C 2.222 3.034,2.093 3.523,2.440 4.047 C 2.506 4.147,2.631 4.278,2.717 4.338 C 2.888 4.457,3.129 4.489,4.256 4.542 L 4.811 4.569 4.992 4.734 C 5.317 5.033,5.257 4.773,6.122 9.616 C 7.123 15.222,7.232 15.785,7.383 16.100 C 7.664 16.689,8.244 17.165,9.000 17.424 C 9.211 17.497,9.411 17.500,13.680 17.500 L 18.140 17.500 18.325 17.392 C 18.684 17.180,18.881 16.866,18.879 16.505 C 18.878 16.242,18.775 16.018,18.569 15.832 C 18.240 15.536,18.630 15.562,13.830 15.522 C 10.957 15.498,9.463 15.472,9.389 15.444 C 9.328 15.421,9.260 15.353,9.238 15.295 C 9.175 15.128,8.961 14.036,8.960 13.878 L 8.960 13.735 9.730 13.648 C 10.154 13.600,11.949 13.398,13.720 13.200 C 17.553 12.770,18.738 12.621,19.059 12.531 C 19.362 12.446,19.934 12.067,20.180 11.789 C 20.539 11.381,20.645 11.057,21.301 8.360 C 21.759 6.476,21.781 6.355,21.722 6.071 C 21.607 5.516,21.223 5.022,20.713 4.771 L 20.450 4.642 13.851 4.614 L 7.252 4.587 7.161 4.303 C 6.955 3.653,6.555 3.152,6.020 2.873 C 5.565 2.636,5.384 2.599,4.480 2.559 C 3.177 2.501,2.961 2.507,2.820 2.608 M16.754 6.547 L 19.488 6.573 19.462 6.737 C 19.435 6.913,18.884 9.130,18.681 9.880 C 18.613 10.133,18.525 10.385,18.485 10.439 C 18.353 10.620,18.002 10.680,15.240 10.997 C 10.979 11.487,8.568 11.741,8.532 11.705 C 8.504 11.678,8.358 10.932,7.941 8.700 C 7.732 7.578,7.553 6.629,7.544 6.590 C 7.528 6.524,7.702 6.520,10.774 6.520 C 12.559 6.520,15.250 6.532,16.754 6.547 M17.229 19.043 C 17.006 19.096,16.851 19.187,16.635 19.389 C 16.391 19.617,16.280 19.894,16.280 20.278 C 16.280 21.111,17.141 21.695,17.932 21.400 C 18.227 21.289,18.452 21.084,18.597 20.793 C 18.928 20.132,18.579 19.304,17.880 19.089 C 17.662 19.023,17.395 19.004,17.229 19.043 M8.489 19.143 C 8.215 19.280,7.906 19.622,7.818 19.885 C 7.731 20.149,7.758 20.481,7.890 20.768 C 8.094 21.211,8.494 21.460,9.000 21.459 C 9.363 21.458,9.618 21.356,9.868 21.112 C 10.358 20.632,10.336 19.807,9.821 19.348 C 9.776 19.308,9.632 19.223,9.500 19.158 C 9.173 18.997,8.793 18.992,8.489 19.143 " fill="#1A1C1F" stroke="none" fill-rule="evenodd"></path></svg>