<svg width="20" height="20" viewBox="0 0 20 20" fill="none" xmlns="http://www.w3.org/2000/svg"><path d="M9.300 3.064 C 8.654 3.143,7.882 3.493,7.383 3.934 C 6.969 4.299,6.651 4.699,6.442 5.117 C 6.242 5.517,6.063 6.185,6.013 6.720 L 5.991 6.956 4.380 6.977 C 2.554 7.000,2.656 6.985,2.330 7.290 C 2.121 7.486,2.033 7.668,2.033 7.910 C 2.033 8.200,2.216 9.213,2.767 11.983 C 3.637 16.354,3.676 16.516,3.909 16.718 C 3.987 16.785,4.121 16.875,4.207 16.920 L 4.364 17.000 10.026 17.000 L 15.687 17.000 15.852 16.897 C 16.070 16.760,16.225 16.610,16.301 16.464 C 16.371 16.327,16.490 15.791,16.867 13.900 C 17.404 11.206,17.873 8.760,17.948 8.257 C 17.994 7.949,17.993 7.919,17.932 7.719 C 17.854 7.466,17.640 7.208,17.421 7.102 C 17.223 7.006,16.584 6.968,15.146 6.967 L 14.009 6.967 13.986 6.711 C 13.938 6.185,13.749 5.490,13.548 5.100 C 13.055 4.144,12.129 3.424,11.036 3.145 C 10.771 3.078,10.614 3.062,10.117 3.051 C 9.787 3.044,9.419 3.050,9.300 3.064 M10.551 5.084 C 11.055 5.212,11.549 5.601,11.758 6.033 C 11.843 6.210,12.000 6.813,12.000 6.964 C 12.000 6.990,11.424 7.000,9.997 7.000 L 7.994 7.000 8.016 6.825 C 8.088 6.267,8.255 5.889,8.567 5.578 C 8.782 5.363,9.125 5.161,9.402 5.086 C 9.649 5.020,10.296 5.019,10.551 5.084 " fill="#1A1C1F" stroke="none" fill-rule="evenodd"></path></svg>