<svg width="28" height="28" viewBox="0 0 28 28" fill="none" xmlns="http://www.w3.org/2000/svg"><path d="M2.843 2.673 C 2.424 2.955,2.311 3.475,2.580 3.880 C 2.758 4.148,2.930 4.198,3.834 4.250 C 4.741 4.302,4.933 4.339,5.073 4.491 C 5.347 4.791,5.293 4.564,6.580 10.803 C 8.001 17.690,8.197 18.607,8.379 19.211 C 8.586 19.899,9.095 20.421,9.859 20.728 L 10.243 20.883 15.741 20.896 C 19.525 20.905,21.296 20.893,21.423 20.859 C 21.823 20.752,22.109 20.325,22.062 19.908 C 22.035 19.661,21.911 19.475,21.659 19.300 L 21.472 19.171 15.966 19.140 C 10.502 19.110,10.459 19.109,10.331 19.014 C 10.103 18.843,10.035 18.701,9.872 18.055 C 9.698 17.365,9.548 16.616,9.578 16.586 C 9.608 16.557,10.860 16.416,15.563 15.913 C 21.947 15.230,22.156 15.202,22.610 14.979 C 22.964 14.806,23.369 14.448,23.637 14.072 C 23.887 13.721,23.955 13.500,24.709 10.547 C 25.642 6.893,25.653 6.831,25.439 6.288 C 25.314 5.972,24.954 5.558,24.645 5.377 L 24.430 5.250 22.330 5.220 C 21.175 5.204,17.297 5.188,13.712 5.185 L 7.193 5.180 7.119 4.912 C 6.947 4.286,6.799 3.883,6.665 3.674 C 6.482 3.388,6.084 3.034,5.743 2.852 C 5.283 2.607,5.032 2.567,3.964 2.567 C 3.039 2.567,2.994 2.571,2.843 2.673 M23.771 6.956 C 23.814 6.999,22.546 11.957,22.303 12.693 C 22.079 13.374,22.059 13.390,21.257 13.508 C 20.310 13.648,9.201 14.819,9.167 14.782 C 9.145 14.756,7.560 7.087,7.560 7.002 C 7.560 6.977,7.770 6.949,8.038 6.940 C 8.818 6.913,23.743 6.928,23.771 6.956 M9.926 22.744 C 9.353 22.958,9.006 23.470,9.007 24.098 C 9.008 24.611,9.329 25.099,9.827 25.344 C 10.162 25.509,10.664 25.503,10.995 25.330 C 11.848 24.884,12.048 23.883,11.432 23.137 C 11.135 22.776,10.372 22.578,9.926 22.744 M19.997 22.739 C 19.375 22.996,19.075 23.430,19.073 24.077 C 19.072 24.510,19.146 24.698,19.446 25.019 C 19.746 25.343,19.994 25.450,20.440 25.449 C 20.981 25.447,21.334 25.258,21.632 24.810 C 21.859 24.468,21.918 24.135,21.820 23.752 C 21.658 23.119,21.160 22.725,20.487 22.696 C 20.280 22.688,20.079 22.705,19.997 22.739 " fill="#1A1C1F" stroke="none" fill-rule="evenodd"></path></svg>