<svg width="16" height="16" viewBox="0 0 16 16" fill="none" xmlns="http://www.w3.org/2000/svg"><path d="M6.999 1.651 C 6.862 1.673,6.726 1.758,6.600 1.897 C 6.462 2.050,6.417 2.168,6.417 2.387 C 6.416 2.621,6.487 2.789,6.661 2.970 C 6.883 3.199,6.613 3.180,9.887 3.194 L 12.800 3.207 12.800 4.879 C 12.800 5.799,12.792 7.235,12.782 8.072 L 12.765 9.592 12.296 9.609 C 12.038 9.619,11.779 9.640,11.720 9.656 C 11.576 9.695,11.304 9.971,11.259 10.123 C 11.214 10.274,11.218 10.526,11.268 10.672 C 11.320 10.825,11.462 10.993,11.615 11.082 C 11.768 11.172,12.161 11.212,12.693 11.191 C 13.278 11.168,13.565 11.056,13.908 10.718 C 14.105 10.524,14.225 10.331,14.325 10.049 L 14.400 9.836 14.400 6.384 L 14.400 2.932 14.319 2.722 C 14.209 2.436,14.071 2.231,13.853 2.032 C 13.623 1.821,13.353 1.684,13.104 1.652 C 12.894 1.625,7.163 1.624,6.999 1.651 M2.853 4.853 C 2.680 4.875,2.388 5.016,2.191 5.173 C 2.010 5.316,1.810 5.587,1.700 5.840 L 1.613 6.040 1.606 9.213 C 1.597 12.549,1.610 13.070,1.704 13.340 C 1.851 13.762,2.267 14.165,2.720 14.322 L 2.893 14.383 5.575 14.394 L 8.256 14.406 8.461 14.324 C 8.988 14.113,9.313 13.788,9.523 13.264 L 9.605 13.058 9.592 9.616 C 9.583 7.408,9.568 6.123,9.550 6.032 C 9.473 5.634,9.122 5.200,8.696 4.977 C 8.553 4.902,8.465 4.876,8.278 4.854 C 8.007 4.823,3.089 4.822,2.853 4.853 M8.000 9.627 L 8.000 12.827 5.600 12.827 L 3.200 12.827 3.200 9.627 L 3.200 6.427 5.600 6.427 L 8.000 6.427 8.000 9.627 M4.400 10.400 L 4.400 11.200 4.800 11.200 L 5.200 11.200 5.200 10.400 L 5.200 9.600 4.800 9.600 L 4.400 9.600 4.400 10.400 M6.000 10.400 L 6.000 11.200 6.400 11.200 L 6.800 11.200 6.800 10.400 L 6.800 9.600 6.400 9.600 L 6.000 9.600 6.000 10.400 " fill="#1A1C1F" stroke="none" fill-rule="evenodd"></path></svg>