<svg width="28" height="28" viewBox="0 0 28 28" fill="none" xmlns="http://www.w3.org/2000/svg"><path d="M9.543 1.822 C 7.894 1.843,7.110 1.869,6.989 1.908 C 6.733 1.990,6.146 2.399,5.928 2.646 C 5.684 2.923,5.501 3.249,5.348 3.678 L 5.227 4.019 5.227 13.995 C 5.227 23.794,5.228 23.977,5.318 24.239 C 5.674 25.271,6.275 25.862,7.312 26.200 C 7.535 26.273,8.060 26.278,14.078 26.264 L 20.603 26.249 20.883 26.137 C 21.625 25.841,22.186 25.318,22.534 24.598 L 22.750 24.151 22.745 14.234 C 22.741 7.722,22.723 4.194,22.692 3.959 C 22.621 3.434,22.415 3.049,21.957 2.584 C 21.686 2.308,21.488 2.156,21.233 2.025 L 20.883 1.846 18.713 1.815 C 16.174 1.778,12.881 1.780,9.543 1.822 M20.578 3.631 C 20.643 3.679,20.760 3.808,20.837 3.917 L 20.977 4.115 20.977 13.806 C 20.977 19.136,20.959 23.620,20.938 23.771 C 20.906 23.994,20.866 24.080,20.728 24.228 C 20.565 24.400,20.537 24.412,20.160 24.454 C 19.646 24.513,8.428 24.513,7.863 24.455 L 7.443 24.412 7.245 24.195 L 7.047 23.978 7.047 14.002 C 7.047 4.026,7.047 4.026,7.142 3.905 C 7.328 3.669,7.519 3.572,7.863 3.539 C 8.043 3.522,10.950 3.515,14.324 3.525 C 20.253 3.542,20.463 3.545,20.578 3.631 M9.450 19.306 C 8.920 19.366,8.617 20.017,8.878 20.535 C 8.959 20.694,9.038 20.771,9.217 20.860 C 9.432 20.968,9.500 20.977,10.103 20.977 C 10.707 20.977,10.770 20.968,10.932 20.868 C 11.174 20.717,11.358 20.391,11.358 20.113 C 11.358 19.833,11.171 19.501,10.957 19.401 C 10.797 19.326,9.813 19.264,9.450 19.306 M13.406 19.314 C 13.217 19.339,13.125 19.382,12.992 19.508 C 12.611 19.871,12.600 20.339,12.965 20.727 C 13.113 20.884,13.178 20.916,13.440 20.959 C 13.832 21.024,14.665 20.974,14.876 20.874 C 14.964 20.833,15.089 20.718,15.154 20.619 C 15.252 20.471,15.274 20.380,15.276 20.118 C 15.279 19.835,15.264 19.777,15.147 19.624 C 15.074 19.528,14.949 19.423,14.869 19.390 C 14.695 19.318,13.749 19.269,13.406 19.314 M17.383 19.301 C 17.332 19.313,17.243 19.334,17.186 19.346 C 16.855 19.416,16.564 19.944,16.660 20.301 C 16.730 20.562,16.894 20.771,17.122 20.892 C 17.303 20.987,17.392 21.000,17.846 20.998 C 18.537 20.995,18.731 20.953,18.926 20.764 C 19.254 20.447,19.315 19.949,19.067 19.624 C 18.861 19.354,18.717 19.306,18.060 19.291 C 17.739 19.284,17.435 19.288,17.383 19.301 " fill="#1A1C1F" stroke="none" fill-rule="evenodd"></path></svg>