<svg width="24" height="24" viewBox="0 0 24 24" fill="none" xmlns="http://www.w3.org/2000/svg"><path d="M12.580 2.038 C 11.582 2.068,11.503 2.087,11.269 2.360 C 10.897 2.795,10.932 3.348,11.355 3.730 C 11.660 4.007,11.381 3.987,15.360 4.015 C 17.351 4.030,19.084 4.058,19.212 4.078 C 19.490 4.121,19.660 4.239,19.835 4.512 L 19.961 4.709 19.951 10.004 L 19.940 15.300 19.831 15.486 C 19.715 15.682,19.524 15.865,19.375 15.922 C 19.325 15.941,18.982 15.975,18.612 15.999 C 17.679 16.058,17.549 16.089,17.341 16.297 C 16.872 16.766,16.974 17.530,17.551 17.869 L 17.740 17.980 18.580 17.979 C 19.245 17.978,19.478 17.963,19.699 17.907 C 20.716 17.651,21.543 16.845,21.881 15.780 L 21.970 15.500 21.989 10.020 L 22.008 4.540 21.879 4.180 C 21.809 3.982,21.710 3.739,21.660 3.639 C 21.393 3.112,20.829 2.582,20.209 2.275 L 19.877 2.110 19.229 2.079 C 18.336 2.035,13.657 2.007,12.580 2.038 M4.520 6.077 C 4.186 6.102,4.099 6.126,3.798 6.273 C 3.400 6.468,2.894 6.860,2.646 7.165 C 2.434 7.426,2.247 7.792,2.105 8.221 L 1.999 8.543 2.010 14.061 L 2.020 19.580 2.163 19.947 C 2.365 20.464,2.531 20.721,2.905 21.095 C 3.279 21.469,3.536 21.635,4.053 21.837 L 4.420 21.980 8.445 21.991 L 12.470 22.001 12.825 21.877 C 13.294 21.712,13.568 21.563,13.865 21.309 C 14.379 20.870,14.649 20.476,14.876 19.827 L 15.000 19.474 15.000 14.000 L 15.000 8.526 14.876 8.173 C 14.808 7.979,14.698 7.718,14.632 7.593 C 14.289 6.944,13.552 6.343,12.840 6.133 C 12.645 6.075,12.187 6.067,8.760 6.058 C 6.637 6.053,4.729 6.062,4.520 6.077 M12.486 8.169 C 12.719 8.306,12.866 8.479,12.920 8.679 C 12.948 8.785,12.958 10.519,12.951 14.089 L 12.940 19.343 12.798 19.541 C 12.715 19.657,12.566 19.794,12.440 19.870 L 12.224 20.000 8.502 20.000 L 4.780 19.999 4.572 19.880 C 4.286 19.716,4.092 19.453,4.061 19.188 C 4.047 19.073,4.041 16.657,4.048 13.817 L 4.060 8.654 4.168 8.490 C 4.340 8.231,4.526 8.112,4.812 8.078 C 4.948 8.062,6.689 8.051,8.680 8.054 L 12.300 8.060 12.486 8.169 M9.800 16.038 C 9.606 16.076,9.442 16.170,9.294 16.327 C 9.028 16.610,8.955 16.903,9.059 17.265 C 9.151 17.585,9.452 17.886,9.752 17.958 C 10.254 18.078,10.753 17.782,10.942 17.252 C 11.014 17.052,11.013 16.932,10.939 16.715 C 10.781 16.250,10.268 15.946,9.800 16.038 M6.569 16.122 C 6.249 16.285,6.000 16.684,6.000 17.034 C 6.000 17.375,6.380 17.837,6.749 17.944 C 7.091 18.044,7.454 17.941,7.706 17.673 C 7.907 17.459,7.975 17.290,7.976 16.998 C 7.976 16.778,7.956 16.700,7.854 16.518 C 7.676 16.202,7.452 16.071,7.048 16.051 C 6.790 16.038,6.712 16.049,6.569 16.122 " fill="#1A1C1F" stroke="none" fill-rule="evenodd"></path></svg>