<svg width="28" height="28" viewBox="0 0 28 28" fill="none" xmlns="http://www.w3.org/2000/svg"><path d="M12.343 2.237 C 12.009 2.258,11.893 2.285,11.775 2.369 C 11.389 2.644,11.288 3.178,11.550 3.550 C 11.627 3.659,11.774 3.792,11.877 3.845 C 12.062 3.941,12.114 3.942,17.547 3.969 C 21.495 3.989,23.057 4.011,23.127 4.049 C 23.181 4.078,23.298 4.183,23.388 4.282 L 23.551 4.463 23.582 6.537 C 23.625 9.383,23.617 18.379,23.571 19.303 C 23.513 20.471,23.512 20.472,21.914 20.539 C 20.975 20.578,20.811 20.596,20.635 20.681 C 20.183 20.899,20.034 21.480,20.324 21.892 C 20.586 22.264,20.648 22.281,21.827 22.299 C 23.068 22.319,23.383 22.276,23.892 22.022 C 24.167 21.884,24.334 21.756,24.586 21.492 C 24.938 21.121,25.099 20.849,25.277 20.327 L 25.387 20.004 25.387 12.240 C 25.387 4.524,25.386 4.475,25.290 4.192 C 25.015 3.374,24.530 2.805,23.818 2.462 L 23.403 2.263 21.047 2.234 C 18.187 2.198,12.922 2.200,12.343 2.237 M6.436 5.738 L 4.541 5.763 4.172 5.950 C 3.469 6.306,2.999 6.863,2.727 7.662 L 2.613 7.996 2.613 15.780 L 2.613 23.565 2.724 23.859 C 2.930 24.406,3.088 24.658,3.448 25.018 C 3.717 25.286,3.892 25.416,4.169 25.548 C 4.510 25.712,4.574 25.726,5.149 25.763 C 5.487 25.785,7.895 25.803,10.500 25.803 C 13.105 25.803,15.513 25.785,15.851 25.763 C 16.426 25.726,16.490 25.712,16.831 25.548 C 17.357 25.296,17.855 24.793,18.104 24.260 C 18.204 24.045,18.312 23.768,18.343 23.644 C 18.387 23.470,18.394 21.662,18.373 15.664 C 18.344 7.196,18.363 7.726,18.075 7.146 C 17.889 6.768,17.332 6.226,16.870 5.970 L 16.497 5.763 14.373 5.733 C 11.998 5.699,9.265 5.701,6.436 5.738 M13.067 7.463 C 16.336 7.504,16.230 7.492,16.447 7.836 L 16.567 8.025 16.567 15.762 L 16.567 23.498 16.449 23.671 C 16.384 23.766,16.286 23.869,16.230 23.899 C 16.053 23.993,14.487 24.029,10.500 24.029 C 6.513 24.029,4.947 23.993,4.770 23.899 C 4.714 23.869,4.616 23.766,4.551 23.671 L 4.433 23.498 4.433 15.756 C 4.433 8.032,4.434 8.014,4.529 7.860 C 4.582 7.774,4.702 7.656,4.797 7.597 C 4.958 7.498,5.036 7.488,5.880 7.464 C 7.308 7.424,9.894 7.424,13.067 7.463 M20.622 15.415 C 20.265 15.604,20.064 16.023,20.160 16.381 C 20.268 16.783,20.704 17.078,21.097 17.015 C 21.513 16.948,21.755 16.729,21.845 16.339 C 21.925 15.987,21.684 15.566,21.304 15.394 C 21.052 15.280,20.869 15.285,20.622 15.415 M6.599 19.809 C 6.390 19.934,6.173 20.225,6.130 20.437 C 6.070 20.737,6.332 21.189,6.649 21.333 C 7.156 21.563,7.688 21.284,7.844 20.706 C 7.884 20.555,7.879 20.480,7.816 20.316 C 7.612 19.780,7.042 19.543,6.599 19.809 M10.099 19.809 C 9.890 19.934,9.673 20.225,9.630 20.437 C 9.570 20.737,9.832 21.189,10.149 21.333 C 10.656 21.563,11.188 21.284,11.344 20.706 C 11.384 20.555,11.379 20.480,11.316 20.316 C 11.112 19.780,10.542 19.543,10.099 19.809 M13.649 19.778 C 13.434 19.879,13.247 20.104,13.161 20.364 C 12.996 20.870,13.524 21.464,14.090 21.410 C 14.690 21.352,15.067 20.607,14.736 20.133 C 14.468 19.748,14.022 19.603,13.649 19.778 " fill="#1A1C1F" stroke="none" fill-rule="evenodd"></path></svg>