<svg width="32" height="32" viewBox="0 0 32 32" fill="none" xmlns="http://www.w3.org/2000/svg"><path d="M10.827 2.082 C 9.009 2.106,8.125 2.136,7.988 2.180 C 7.693 2.275,7.024 2.742,6.771 3.029 C 6.475 3.364,6.322 3.634,6.132 4.155 L 5.973 4.590 5.973 15.993 C 5.973 27.193,5.975 27.402,6.078 27.701 C 6.480 28.869,7.131 29.520,8.299 29.922 C 8.596 30.024,8.784 30.027,16.000 30.027 C 23.216 30.027,23.404 30.024,23.701 29.922 C 24.862 29.523,25.451 28.939,25.900 27.746 L 26.027 27.411 26.027 16.002 L 26.027 4.593 25.888 4.203 C 25.575 3.323,25.023 2.688,24.222 2.288 L 23.867 2.111 21.280 2.074 C 18.276 2.031,14.565 2.034,10.827 2.082 M23.693 4.311 L 23.947 4.556 23.947 15.980 L 23.947 27.403 23.720 27.651 L 23.493 27.899 23.013 27.949 C 22.385 28.013,9.615 28.013,8.987 27.949 L 8.507 27.899 8.280 27.651 L 8.053 27.403 8.053 16.007 L 8.053 4.611 8.221 4.408 C 8.313 4.296,8.451 4.179,8.527 4.147 C 8.758 4.052,12.125 4.014,17.973 4.040 L 23.440 4.065 23.693 4.311 M10.773 22.066 C 10.527 22.095,10.266 22.300,10.127 22.572 C 9.897 23.023,10.114 23.693,10.550 23.878 C 10.804 23.986,11.940 24.036,12.247 23.953 C 12.520 23.878,12.877 23.508,12.955 23.218 C 13.091 22.707,12.745 22.180,12.206 22.076 C 11.971 22.031,11.118 22.025,10.773 22.066 M15.322 22.073 C 15.105 22.101,15.000 22.151,14.849 22.295 C 14.412 22.710,14.400 23.243,14.818 23.689 C 14.992 23.876,15.053 23.904,15.387 23.953 C 15.859 24.023,16.766 23.968,17.004 23.855 C 17.102 23.808,17.244 23.677,17.319 23.564 C 17.431 23.395,17.456 23.292,17.459 22.992 C 17.462 22.669,17.444 22.602,17.311 22.427 C 17.227 22.318,17.084 22.198,16.993 22.160 C 16.794 22.078,15.713 22.021,15.322 22.073 M19.770 22.075 C 19.343 22.165,19.084 22.473,19.051 22.931 C 19.031 23.202,19.048 23.284,19.164 23.483 C 19.240 23.611,19.385 23.780,19.487 23.858 C 19.665 23.994,19.699 24.000,20.330 23.998 C 21.186 23.995,21.403 23.950,21.630 23.730 C 22.129 23.246,22.052 22.450,21.477 22.151 C 21.285 22.051,20.130 21.999,19.770 22.075 " fill="#1A1C1F" stroke="none" fill-rule="evenodd"></path></svg>