<svg width="12" height="12" viewBox="0 0 12 12" fill="none" xmlns="http://www.w3.org/2000/svg"><path d="M4.180 1.217 L 3.290 1.230 3.157 1.293 C 2.977 1.378,2.893 1.437,2.743 1.585 C 2.594 1.732,2.544 1.812,2.461 2.036 L 2.400 2.203 2.400 6.002 L 2.400 9.801 2.461 9.959 C 2.608 10.342,2.858 10.592,3.241 10.739 L 3.399 10.800 6.000 10.800 L 8.601 10.800 8.759 10.739 C 9.144 10.591,9.391 10.342,9.541 9.953 L 9.604 9.791 9.594 6.050 C 9.587 3.497,9.577 2.263,9.562 2.163 C 9.513 1.832,9.267 1.514,8.918 1.330 C 8.801 1.269,8.747 1.254,8.594 1.239 C 8.351 1.216,5.310 1.201,4.180 1.217 M8.400 6.000 L 8.400 9.600 6.000 9.600 L 3.600 9.600 3.600 6.000 L 3.600 2.400 6.000 2.400 L 8.400 2.400 8.400 6.000 M7.059 7.228 C 6.888 7.272,6.749 7.389,6.656 7.566 C 6.622 7.630,6.611 7.684,6.611 7.790 C 6.612 7.963,6.667 8.088,6.802 8.224 C 6.877 8.299,6.924 8.326,7.039 8.361 C 7.178 8.403,7.188 8.404,7.314 8.373 C 7.481 8.332,7.612 8.238,7.694 8.102 C 7.818 7.895,7.821 7.684,7.701 7.495 C 7.576 7.297,7.275 7.173,7.059 7.228 M4.549 7.267 C 4.408 7.333,4.290 7.474,4.240 7.635 C 4.193 7.788,4.191 7.820,4.229 7.943 C 4.269 8.076,4.306 8.140,4.393 8.224 C 4.547 8.373,4.756 8.426,4.962 8.368 C 5.069 8.338,5.109 8.314,5.206 8.217 C 5.269 8.154,5.334 8.070,5.351 8.032 C 5.389 7.939,5.389 7.661,5.351 7.569 C 5.301 7.450,5.122 7.288,4.999 7.252 C 4.842 7.205,4.671 7.211,4.549 7.267 " fill="#1A1C1F" stroke="none" fill-rule="evenodd"></path></svg>