<svg width="14" height="14" viewBox="0 0 14 14" fill="none" xmlns="http://www.w3.org/2000/svg"><path d="M4.840 1.420 L 3.835 1.435 3.638 1.533 C 3.367 1.667,3.076 1.928,2.970 2.132 C 2.950 2.171,2.904 2.292,2.867 2.401 L 2.800 2.599 2.800 7.003 L 2.800 11.406 2.866 11.601 C 2.951 11.850,3.025 11.966,3.229 12.171 C 3.429 12.370,3.545 12.446,3.786 12.533 L 3.968 12.600 7.001 12.600 L 10.035 12.600 10.218 12.529 C 10.674 12.354,10.964 12.059,11.128 11.607 L 11.200 11.408 11.200 6.988 L 11.200 2.568 11.131 2.378 C 11.032 2.109,10.972 2.017,10.762 1.816 C 10.512 1.578,10.309 1.476,10.021 1.446 C 9.755 1.419,6.166 1.401,4.840 1.420 M9.800 7.000 L 9.800 11.200 7.000 11.200 L 4.200 11.200 4.200 7.000 L 4.200 2.800 7.000 2.800 L 9.800 2.800 9.800 7.000 M5.306 8.479 C 5.052 8.598,4.914 8.811,4.914 9.088 C 4.914 9.287,4.969 9.423,5.114 9.580 C 5.253 9.731,5.376 9.783,5.600 9.782 C 5.811 9.781,5.899 9.748,6.048 9.616 C 6.363 9.336,6.366 8.865,6.055 8.591 C 5.861 8.421,5.536 8.372,5.306 8.479 M8.129 8.471 C 7.907 8.581,7.738 8.798,7.709 9.012 C 7.684 9.194,7.769 9.419,7.931 9.599 C 8.079 9.763,8.392 9.824,8.646 9.738 C 8.889 9.655,9.081 9.362,9.083 9.073 C 9.085 8.812,8.889 8.557,8.611 8.459 C 8.466 8.407,8.246 8.413,8.129 8.471 " fill="#1A1C1F" stroke="none" fill-rule="evenodd"></path></svg>