<svg width="14" height="14" viewBox="0 0 14 14" fill="none" xmlns="http://www.w3.org/2000/svg"><path d="M6.918 1.420 C 5.991 1.437,5.975 1.440,5.802 1.633 C 5.626 1.827,5.568 2.050,5.634 2.276 C 5.689 2.465,5.791 2.602,5.956 2.709 L 6.097 2.800 8.637 2.800 L 11.177 2.800 11.177 5.600 L 11.177 8.400 10.949 8.401 C 10.824 8.402,10.612 8.411,10.479 8.422 C 10.248 8.441,10.230 8.447,10.106 8.534 C 10.006 8.605,9.957 8.661,9.897 8.776 C 9.824 8.915,9.820 8.937,9.828 9.112 C 9.838 9.335,9.880 9.433,10.036 9.593 C 10.201 9.762,10.254 9.777,10.718 9.792 C 11.496 9.817,11.791 9.737,12.136 9.409 C 12.335 9.219,12.441 9.055,12.534 8.793 L 12.600 8.607 12.600 5.598 C 12.600 2.609,12.600 2.588,12.551 2.443 C 12.465 2.187,12.366 2.027,12.169 1.831 C 11.913 1.574,11.728 1.478,11.430 1.448 C 11.156 1.420,8.012 1.401,6.918 1.420 M2.495 4.246 C 2.413 4.257,2.294 4.300,2.169 4.365 C 1.784 4.564,1.481 4.966,1.420 5.356 C 1.385 5.579,1.408 11.290,1.444 11.512 C 1.483 11.750,1.586 11.923,1.831 12.169 C 2.060 12.397,2.198 12.484,2.429 12.545 C 2.563 12.581,2.806 12.585,4.826 12.594 C 6.271 12.600,7.127 12.595,7.225 12.580 C 7.314 12.566,7.455 12.518,7.567 12.463 C 7.905 12.299,8.168 12.014,8.311 11.660 L 8.388 11.468 8.387 8.458 C 8.386 6.329,8.377 5.406,8.359 5.302 C 8.315 5.061,8.205 4.868,7.980 4.640 C 7.722 4.378,7.530 4.276,7.236 4.245 C 7.002 4.221,2.687 4.221,2.495 4.246 M7.000 8.423 L 7.000 11.223 4.900 11.223 L 2.800 11.223 2.800 8.423 L 2.800 5.623 4.900 5.623 L 7.000 5.623 7.000 8.423 M3.850 9.100 L 3.850 9.800 4.200 9.800 L 4.550 9.800 4.550 9.100 L 4.550 8.400 4.200 8.400 L 3.850 8.400 3.850 9.100 M5.250 9.100 L 5.250 9.800 5.600 9.800 L 5.950 9.800 5.950 9.100 L 5.950 8.400 5.600 8.400 L 5.250 8.400 5.250 9.100 " fill="#1A1C1F" stroke="none" fill-rule="evenodd"></path></svg>