<svg width="16" height="16" viewBox="0 0 16 16" fill="none" xmlns="http://www.w3.org/2000/svg"><path d="M5.611 1.623 L 4.383 1.640 4.157 1.752 C 3.927 1.866,3.691 2.052,3.528 2.246 C 3.415 2.381,3.380 2.449,3.279 2.722 L 3.200 2.937 3.200 8.015 L 3.200 13.092 3.301 13.326 C 3.519 13.832,3.821 14.126,4.322 14.319 L 4.532 14.400 8.000 14.400 L 11.468 14.400 11.678 14.319 C 12.184 14.124,12.524 13.783,12.720 13.275 L 12.800 13.068 12.800 8.008 L 12.800 2.947 12.707 2.697 C 12.585 2.370,12.547 2.312,12.297 2.074 C 12.018 1.807,11.780 1.687,11.465 1.655 C 11.163 1.623,7.163 1.602,5.611 1.623 M11.200 8.000 L 11.200 12.800 8.000 12.800 L 4.800 12.800 4.800 8.000 L 4.800 3.200 8.000 3.200 L 11.200 3.200 11.200 8.000 M6.064 9.691 C 5.894 9.770,5.743 9.918,5.671 10.078 C 5.596 10.246,5.596 10.528,5.672 10.698 C 5.746 10.861,5.932 11.062,6.067 11.123 C 6.224 11.195,6.584 11.192,6.738 11.118 C 6.873 11.052,7.040 10.872,7.125 10.698 C 7.263 10.419,7.172 10.041,6.915 9.814 C 6.696 9.621,6.327 9.568,6.064 9.691 M9.290 9.681 C 8.916 9.866,8.723 10.262,8.838 10.608 C 8.932 10.890,9.146 11.087,9.444 11.163 C 9.598 11.202,9.623 11.202,9.769 11.162 C 9.966 11.107,10.136 10.992,10.235 10.846 C 10.342 10.689,10.373 10.580,10.373 10.372 C 10.373 10.227,10.359 10.165,10.299 10.050 C 10.214 9.887,10.026 9.730,9.842 9.667 C 9.671 9.609,9.424 9.615,9.290 9.681 " fill="#1A1C1F" stroke="none" fill-rule="evenodd"></path></svg>