<svg width="20" height="20" viewBox="0 0 20 20" fill="none" xmlns="http://www.w3.org/2000/svg"><path d="M7.047 2.029 L 5.478 2.050 5.197 2.189 C 4.809 2.382,4.394 2.754,4.243 3.046 C 4.215 3.102,4.148 3.275,4.096 3.430 L 4.000 3.713 4.000 10.024 L 4.000 16.335 4.101 16.598 C 4.347 17.236,4.764 17.653,5.402 17.899 L 5.665 18.000 10.000 18.000 L 14.335 18.000 14.598 17.899 C 15.248 17.648,15.663 17.227,15.897 16.581 L 16.000 16.297 16.000 9.983 L 16.000 3.669 15.901 3.397 C 15.761 3.013,15.674 2.881,15.374 2.594 C 15.009 2.246,14.725 2.107,14.298 2.067 C 13.880 2.028,9.026 2.002,7.047 2.029 M14.000 10.000 L 14.000 16.000 10.000 16.000 L 6.000 16.000 6.000 10.000 L 6.000 4.000 10.000 4.000 L 14.000 4.000 14.000 10.000 M11.797 12.033 C 11.535 12.080,11.248 12.315,11.093 12.609 C 10.988 12.808,10.988 13.158,11.092 13.369 C 11.202 13.594,11.370 13.773,11.571 13.883 C 11.917 14.072,12.372 13.994,12.672 13.694 C 13.034 13.332,13.086 12.832,12.801 12.445 C 12.587 12.154,12.140 11.971,11.797 12.033 M7.583 12.113 C 7.378 12.209,7.195 12.390,7.095 12.595 C 6.992 12.806,6.990 13.153,7.090 13.373 C 7.183 13.577,7.416 13.828,7.583 13.904 C 7.741 13.976,8.137 13.988,8.346 13.926 C 8.510 13.878,8.791 13.612,8.904 13.397 C 9.082 13.061,8.964 12.550,8.643 12.268 C 8.370 12.027,7.908 11.960,7.583 12.113 " fill="#1A1C1F" stroke="none" fill-rule="evenodd"></path></svg>