<svg width="24" height="24" viewBox="0 0 24 24" fill="none" xmlns="http://www.w3.org/2000/svg"><path d="M7.402 2.082 C 6.910 2.149,6.163 2.589,5.766 3.046 C 5.414 3.451,5.165 3.934,5.077 4.384 C 5.016 4.692,4.978 17.254,5.033 18.700 C 5.069 19.632,5.079 19.719,5.176 19.976 C 5.528 20.903,6.194 21.525,7.232 21.896 L 7.525 22.000 11.995 22.000 L 16.466 22.000 16.743 21.904 C 17.394 21.680,17.724 21.473,18.163 21.014 C 18.479 20.685,18.667 20.373,18.858 19.863 L 19.001 19.482 18.990 11.951 L 18.980 4.420 18.809 3.996 C 18.619 3.523,18.468 3.290,18.130 2.946 C 17.769 2.577,17.307 2.288,16.840 2.138 C 16.636 2.072,16.300 2.067,12.140 2.057 C 9.676 2.051,7.544 2.062,7.402 2.082 M16.528 4.188 C 16.609 4.243,16.740 4.381,16.818 4.494 L 16.960 4.701 16.960 12.021 C 16.960 18.757,16.955 19.350,16.894 19.441 C 16.771 19.626,16.541 19.847,16.390 19.924 C 16.244 20.000,16.127 20.001,12.010 19.991 L 7.780 19.980 7.548 19.866 C 7.369 19.778,7.283 19.703,7.176 19.541 L 7.036 19.330 7.028 12.029 L 7.020 4.728 7.180 4.496 C 7.464 4.084,7.369 4.103,9.280 4.080 C 10.193 4.069,12.164 4.067,13.660 4.074 L 16.380 4.089 16.528 4.188 M8.668 16.081 C 8.497 16.132,8.209 16.387,8.111 16.573 C 8.050 16.690,8.023 16.812,8.023 16.980 C 8.021 17.423,8.319 17.800,8.787 17.948 C 8.965 18.004,9.023 18.006,9.168 17.963 C 9.759 17.790,10.088 17.294,9.962 16.769 C 9.837 16.246,9.216 15.916,8.668 16.081 M11.580 16.106 C 11.382 16.210,11.125 16.485,11.055 16.668 C 10.860 17.179,11.199 17.773,11.783 17.942 C 11.980 18.000,12.020 18.000,12.213 17.944 C 12.592 17.834,12.924 17.466,12.982 17.094 C 13.032 16.770,12.766 16.310,12.433 16.144 C 12.185 16.020,11.778 16.002,11.580 16.106 M14.500 16.154 C 14.046 16.420,13.879 16.941,14.103 17.391 C 14.275 17.736,14.632 17.968,14.996 17.970 C 15.280 17.972,15.471 17.890,15.674 17.681 C 16.101 17.242,16.031 16.536,15.526 16.181 C 15.373 16.074,15.316 16.059,15.027 16.048 C 14.727 16.037,14.684 16.046,14.500 16.154 " fill="#1A1C1F" stroke="none" fill-rule="evenodd"></path></svg>