<svg width="20" height="20" viewBox="0 0 20 20" fill="none" xmlns="http://www.w3.org/2000/svg"><path d="M8.763 2.067 C 8.555 2.102,8.435 2.170,8.285 2.335 C 8.093 2.548,8.018 2.741,8.020 3.017 C 8.021 3.201,8.039 3.285,8.108 3.417 C 8.211 3.615,8.430 3.833,8.624 3.930 C 8.764 4.000,8.771 4.000,12.365 4.000 L 15.967 4.000 15.967 7.995 L 15.967 11.990 15.342 12.013 C 14.805 12.033,14.696 12.046,14.571 12.106 C 14.086 12.340,13.890 12.936,14.136 13.427 C 14.242 13.641,14.424 13.823,14.626 13.919 C 14.778 13.991,15.771 14.024,16.225 13.972 C 16.659 13.922,17.005 13.757,17.337 13.441 C 17.622 13.170,17.773 12.935,17.906 12.561 L 18.000 12.295 18.000 8.003 C 18.000 3.739,18.000 3.710,17.930 3.497 C 17.809 3.126,17.669 2.899,17.383 2.613 C 17.055 2.285,16.736 2.111,16.380 2.065 C 16.099 2.029,8.978 2.031,8.763 2.067 M3.565 6.066 C 3.274 6.103,2.864 6.334,2.581 6.619 C 2.296 6.906,2.080 7.308,2.032 7.639 C 1.993 7.909,1.993 15.471,2.032 16.050 C 2.065 16.539,2.130 16.767,2.316 17.047 C 2.578 17.441,2.976 17.755,3.400 17.903 L 3.617 17.978 6.783 17.992 C 8.769 18.001,10.061 17.994,10.247 17.973 C 10.493 17.946,10.594 17.915,10.831 17.795 C 11.330 17.543,11.740 17.069,11.921 16.533 C 11.981 16.358,11.983 16.161,11.982 12.100 C 11.980 9.165,11.968 7.776,11.943 7.610 C 11.886 7.242,11.735 6.968,11.400 6.629 C 11.031 6.255,10.756 6.109,10.338 6.065 C 10.002 6.030,3.839 6.031,3.565 6.066 M10.000 12.033 L 10.000 16.033 7.000 16.033 L 4.000 16.033 4.000 12.033 L 4.000 8.033 7.000 8.033 L 10.000 8.033 10.000 12.033 M5.500 13.000 L 5.500 14.000 6.000 14.000 L 6.500 14.000 6.500 13.000 L 6.500 12.000 6.000 12.000 L 5.500 12.000 5.500 13.000 M7.500 13.000 L 7.500 14.000 8.000 14.000 L 8.500 14.000 8.500 13.000 L 8.500 12.000 8.000 12.000 L 7.500 12.000 7.500 13.000 " fill="#1A1C1F" stroke="none" fill-rule="evenodd"></path></svg>