<svg width="12" height="12" viewBox="0 0 12 12" fill="none" xmlns="http://www.w3.org/2000/svg"><path d="M5.940 1.217 C 5.234 1.230,5.229 1.230,5.130 1.280 C 4.931 1.380,4.779 1.650,4.808 1.855 C 4.834 2.049,4.951 2.221,5.139 2.343 L 5.228 2.400 7.404 2.400 L 9.580 2.400 9.580 4.797 L 9.580 7.194 9.198 7.207 C 8.842 7.220,8.809 7.225,8.733 7.270 C 8.369 7.483,8.307 7.919,8.597 8.217 C 8.749 8.373,8.823 8.390,9.350 8.390 C 9.718 8.389,9.809 8.383,9.909 8.353 C 10.313 8.229,10.612 7.934,10.749 7.523 L 10.800 7.370 10.800 4.796 L 10.800 2.223 10.743 2.063 C 10.665 1.840,10.573 1.698,10.407 1.540 C 10.213 1.355,10.028 1.265,9.797 1.241 C 9.573 1.218,6.859 1.201,5.940 1.217 M2.139 3.640 C 1.964 3.662,1.718 3.800,1.549 3.971 C 1.378 4.144,1.248 4.385,1.219 4.583 C 1.196 4.745,1.196 9.257,1.219 9.620 C 1.239 9.925,1.276 10.057,1.390 10.229 C 1.549 10.468,1.783 10.653,2.040 10.741 L 2.170 10.786 4.070 10.795 C 5.260 10.801,6.036 10.796,6.147 10.784 C 6.291 10.768,6.357 10.748,6.493 10.681 C 6.789 10.534,6.998 10.301,7.135 9.965 L 7.204 9.795 7.194 7.213 C 7.187 5.580,7.176 4.591,7.163 4.525 C 7.126 4.335,7.026 4.165,6.840 3.979 C 6.616 3.754,6.459 3.669,6.208 3.641 C 6.006 3.618,2.318 3.616,2.139 3.640 M6.000 7.220 L 6.000 9.620 4.200 9.620 L 2.400 9.620 2.400 7.220 L 2.400 4.820 4.200 4.820 L 6.000 4.820 6.000 7.220 M3.300 7.800 L 3.300 8.400 3.600 8.400 L 3.900 8.400 3.900 7.800 L 3.900 7.200 3.600 7.200 L 3.300 7.200 3.300 7.800 M4.500 7.800 L 4.500 8.400 4.800 8.400 L 5.100 8.400 5.100 7.800 L 5.100 7.200 4.800 7.200 L 4.500 7.200 4.500 7.800 " fill="#1A1C1F" stroke="none" fill-rule="evenodd"></path></svg>