<svg width="32" height="32" viewBox="0 0 32 32" fill="none" xmlns="http://www.w3.org/2000/svg"><path d="M13.600 2.619 C 13.258 2.824,13.128 2.986,13.066 3.284 C 12.983 3.681,13.066 3.948,13.360 4.243 C 13.488 4.371,13.649 4.488,13.717 4.502 C 13.785 4.515,16.660 4.547,20.107 4.572 C 27.070 4.622,26.605 4.594,26.812 4.974 C 26.901 5.137,26.907 5.652,26.921 13.996 L 26.935 22.846 26.797 23.054 C 26.579 23.384,26.432 23.419,25.041 23.474 C 23.967 23.517,23.784 23.537,23.583 23.635 C 23.067 23.885,22.896 24.548,23.227 25.020 C 23.527 25.446,23.596 25.464,24.953 25.484 C 25.689 25.494,26.286 25.477,26.510 25.439 C 27.089 25.342,27.577 25.076,28.054 24.598 C 28.487 24.165,28.675 23.857,28.888 23.231 L 29.013 22.861 29.013 13.965 L 29.013 5.069 28.887 4.733 C 28.655 4.118,28.470 3.818,28.079 3.427 C 27.778 3.126,27.591 2.992,27.220 2.814 L 26.747 2.587 24.160 2.552 C 22.737 2.534,19.821 2.516,17.680 2.513 C 13.816 2.507,13.785 2.508,13.600 2.619 M7.840 6.558 L 5.147 6.587 4.720 6.823 C 4.192 7.115,3.556 7.735,3.342 8.167 C 3.012 8.834,3.034 8.210,3.002 17.960 L 2.973 26.881 3.093 27.214 C 3.324 27.852,3.523 28.175,3.941 28.592 C 4.246 28.897,4.449 29.047,4.759 29.195 C 5.148 29.382,5.212 29.395,5.932 29.442 C 6.351 29.469,9.081 29.491,12.000 29.491 C 14.919 29.491,17.649 29.469,18.068 29.442 C 18.788 29.395,18.852 29.382,19.241 29.195 C 19.551 29.047,19.754 28.897,20.059 28.592 C 20.477 28.175,20.676 27.852,20.907 27.213 L 21.028 26.879 20.998 17.960 C 20.966 8.223,20.987 8.840,20.661 8.167 C 20.454 7.740,19.816 7.119,19.280 6.823 L 18.853 6.587 16.800 6.552 C 14.499 6.513,11.826 6.515,7.840 6.558 M14.853 8.528 C 18.713 8.573,18.517 8.552,18.790 8.946 L 18.933 9.152 18.933 18.004 L 18.933 26.855 18.799 27.053 C 18.725 27.162,18.612 27.279,18.547 27.314 C 18.349 27.420,16.522 27.461,12.000 27.461 C 7.478 27.461,5.651 27.420,5.453 27.314 C 5.388 27.279,5.275 27.162,5.201 27.053 L 5.067 26.855 5.067 18.000 L 5.067 9.145 5.202 8.946 C 5.444 8.590,5.544 8.564,6.800 8.530 C 8.530 8.485,11.062 8.484,14.853 8.528 M23.722 17.544 C 23.240 17.697,22.924 18.232,23.046 18.690 C 23.156 19.107,23.566 19.462,23.940 19.465 C 24.565 19.471,25.109 18.833,24.955 18.275 C 24.893 18.047,24.638 17.736,24.424 17.625 C 24.230 17.525,23.901 17.487,23.722 17.544 M7.542 22.639 C 7.303 22.782,7.054 23.115,7.006 23.356 C 6.937 23.703,7.230 24.213,7.594 24.378 C 8.178 24.643,8.786 24.327,8.964 23.664 C 9.011 23.492,9.005 23.406,8.933 23.218 C 8.699 22.606,8.048 22.335,7.542 22.639 M11.542 22.639 C 11.303 22.782,11.054 23.115,11.006 23.356 C 10.937 23.703,11.230 24.213,11.594 24.378 C 12.178 24.643,12.786 24.327,12.964 23.664 C 13.011 23.492,13.005 23.406,12.933 23.218 C 12.699 22.606,12.048 22.335,11.542 22.639 M15.587 22.608 C 15.347 22.721,15.075 23.079,15.012 23.366 C 14.937 23.708,15.220 24.189,15.608 24.377 C 15.905 24.521,16.281 24.499,16.526 24.325 C 16.775 24.148,16.978 23.766,16.983 23.468 C 16.993 22.813,16.197 22.323,15.587 22.608 " fill="#1A1C1F" stroke="none" fill-rule="evenodd"></path></svg>