<svg width="16" height="16" viewBox="0 0 16 16" fill="none" xmlns="http://www.w3.org/2000/svg"><path d="M4.213 3.226 L 2.840 3.242 2.675 3.312 C 2.207 3.510,1.856 3.890,1.676 4.393 C 1.626 4.531,1.619 4.625,1.607 5.347 C 1.591 6.305,1.618 6.650,1.718 6.801 C 1.864 7.023,2.019 7.114,2.394 7.202 C 2.957 7.333,3.173 7.552,3.173 7.993 C 3.173 8.215,3.125 8.360,3.007 8.494 C 2.871 8.649,2.697 8.737,2.395 8.802 C 2.029 8.882,1.842 8.995,1.705 9.216 C 1.625 9.346,1.601 9.656,1.600 10.583 C 1.600 11.386,1.601 11.395,1.668 11.583 C 1.877 12.161,2.210 12.503,2.769 12.716 L 2.991 12.800 7.992 12.800 L 12.994 12.800 13.183 12.732 C 13.504 12.616,13.682 12.506,13.894 12.294 C 14.106 12.082,14.216 11.904,14.332 11.583 L 14.400 11.394 14.399 10.410 C 14.399 9.307,14.401 9.319,14.198 9.094 C 14.064 8.946,13.898 8.866,13.582 8.798 C 13.180 8.710,13.052 8.627,12.915 8.361 C 12.831 8.199,12.805 7.946,12.853 7.773 C 12.941 7.460,13.148 7.300,13.590 7.204 C 13.971 7.120,14.134 7.026,14.283 6.801 C 14.376 6.660,14.398 6.390,14.399 5.392 L 14.400 4.585 14.320 4.378 C 14.157 3.954,13.930 3.668,13.587 3.453 C 13.264 3.251,13.259 3.251,11.680 3.226 C 10.137 3.202,6.352 3.202,4.213 3.226 M12.759 4.852 C 12.768 4.866,12.782 5.069,12.791 5.303 L 12.808 5.729 12.568 5.849 C 12.020 6.125,11.569 6.608,11.364 7.141 C 11.242 7.458,11.220 7.623,11.233 8.097 C 11.244 8.487,11.251 8.539,11.329 8.759 C 11.545 9.374,12.022 9.896,12.647 10.203 L 12.800 10.278 12.800 10.535 C 12.800 10.676,12.792 10.884,12.783 10.996 L 12.766 11.200 8.000 11.200 L 3.234 11.200 3.217 11.036 C 3.208 10.946,3.200 10.738,3.200 10.575 L 3.200 10.278 3.353 10.203 C 3.633 10.065,3.878 9.889,4.109 9.657 C 4.416 9.348,4.604 9.015,4.724 8.569 C 4.795 8.299,4.803 7.754,4.739 7.491 C 4.559 6.754,4.109 6.189,3.430 5.848 L 3.194 5.730 3.204 5.311 C 3.210 5.082,3.224 4.878,3.236 4.860 C 3.252 4.834,4.234 4.827,8.000 4.827 C 10.947 4.827,12.749 4.836,12.759 4.852 M6.067 5.682 C 5.717 5.868,5.538 6.252,5.639 6.599 C 5.728 6.906,5.910 7.084,6.220 7.165 C 6.368 7.204,6.410 7.205,6.556 7.174 C 6.778 7.127,6.971 6.987,7.092 6.786 C 7.178 6.643,7.184 6.618,7.183 6.412 C 7.180 6.064,7.056 5.852,6.763 5.700 C 6.598 5.615,6.213 5.605,6.067 5.682 M7.427 7.440 L 5.667 9.200 6.233 9.767 L 6.800 10.333 8.567 8.567 L 10.333 6.800 9.773 6.240 C 9.466 5.932,9.208 5.680,9.200 5.680 C 9.193 5.680,8.395 6.472,7.427 7.440 M9.261 8.881 C 8.970 9.029,8.820 9.274,8.820 9.600 C 8.820 9.848,8.877 9.990,9.043 10.156 C 9.224 10.336,9.319 10.373,9.592 10.373 C 9.877 10.372,9.987 10.328,10.165 10.143 C 10.330 9.973,10.376 9.857,10.378 9.603 C 10.380 9.280,10.258 9.063,9.995 8.920 C 9.875 8.854,9.818 8.841,9.613 8.833 C 9.409 8.825,9.357 8.832,9.261 8.881 " fill="#1A1C1F" stroke="none" fill-rule="evenodd"></path></svg>