<svg width="16" height="16" viewBox="0 0 16 16" fill="none" xmlns="http://www.w3.org/2000/svg"><path d="M4.213 3.226 L 2.840 3.242 2.675 3.312 C 2.207 3.510,1.856 3.890,1.676 4.393 C 1.626 4.531,1.619 4.625,1.607 5.347 C 1.591 6.305,1.618 6.650,1.718 6.801 C 1.864 7.023,2.019 7.114,2.394 7.202 C 2.957 7.333,3.173 7.552,3.173 7.993 C 3.173 8.215,3.125 8.360,3.007 8.494 C 2.871 8.649,2.697 8.737,2.395 8.802 C 2.029 8.882,1.842 8.995,1.705 9.216 C 1.625 9.346,1.601 9.656,1.600 10.583 C 1.600 11.386,1.601 11.395,1.668 11.583 C 1.877 12.161,2.210 12.503,2.769 12.716 L 2.991 12.800 7.992 12.800 L 12.994 12.800 13.183 12.732 C 13.504 12.616,13.682 12.506,13.894 12.294 C 14.106 12.082,14.216 11.904,14.332 11.583 L 14.400 11.394 14.399 10.410 C 14.399 9.307,14.401 9.319,14.198 9.094 C 14.064 8.946,13.898 8.866,13.582 8.798 C 13.180 8.710,13.052 8.627,12.915 8.361 C 12.831 8.199,12.805 7.946,12.853 7.773 C 12.941 7.460,13.148 7.300,13.590 7.204 C 13.971 7.120,14.134 7.026,14.283 6.801 C 14.376 6.660,14.398 6.390,14.399 5.392 L 14.400 4.585 14.320 4.378 C 14.157 3.954,13.930 3.668,13.587 3.453 C 13.264 3.251,13.259 3.251,11.680 3.226 C 10.137 3.202,6.352 3.202,4.213 3.226 M6.521 5.629 C 6.736 5.669,6.851 5.733,6.996 5.894 C 7.136 6.051,7.173 6.155,7.173 6.400 C 7.173 6.671,7.136 6.763,6.951 6.947 C 6.811 7.086,6.761 7.117,6.615 7.158 C 6.326 7.238,6.053 7.167,5.842 6.956 C 5.664 6.778,5.620 6.654,5.631 6.363 C 5.639 6.129,5.646 6.105,5.733 5.977 C 5.835 5.828,6.006 5.691,6.157 5.637 C 6.277 5.594,6.325 5.593,6.521 5.629 M9.773 6.240 L 10.333 6.800 8.567 8.567 L 6.800 10.333 6.233 9.767 L 5.667 9.200 7.427 7.440 C 8.395 6.472,9.193 5.680,9.200 5.680 C 9.208 5.680,9.466 5.932,9.773 6.240 M9.920 8.882 C 10.066 8.948,10.225 9.097,10.302 9.240 C 10.386 9.394,10.386 9.805,10.302 9.961 C 10.225 10.106,10.007 10.305,9.879 10.347 C 9.712 10.402,9.421 10.393,9.278 10.329 C 9.129 10.262,8.964 10.095,8.881 9.929 C 8.826 9.820,8.821 9.780,8.833 9.557 C 8.844 9.340,8.856 9.289,8.924 9.180 C 9.005 9.048,9.200 8.897,9.343 8.856 C 9.500 8.810,9.790 8.823,9.920 8.882 " fill="#1A1C1F" stroke="none" fill-rule="evenodd"></path></svg>