<svg width="12" height="12" viewBox="0 0 12 12" fill="none" xmlns="http://www.w3.org/2000/svg"><path d="M3.140 2.418 L 2.130 2.430 2.000 2.489 C 1.659 2.643,1.423 2.883,1.282 3.218 C 1.214 3.378,1.196 3.646,1.205 4.326 C 1.214 5.005,1.219 5.030,1.354 5.180 C 1.456 5.294,1.562 5.347,1.795 5.401 C 2.218 5.499,2.380 5.664,2.380 5.995 C 2.380 6.162,2.344 6.270,2.255 6.371 C 2.153 6.487,2.023 6.552,1.796 6.602 C 1.499 6.667,1.336 6.774,1.253 6.960 C 1.216 7.044,1.212 7.102,1.204 7.795 L 1.195 8.540 1.249 8.695 C 1.324 8.907,1.404 9.041,1.544 9.191 C 1.694 9.352,1.845 9.452,2.060 9.534 L 2.230 9.599 5.981 9.599 L 9.733 9.600 9.876 9.551 C 10.294 9.409,10.562 9.158,10.732 8.750 L 10.790 8.610 10.789 7.830 C 10.788 7.088,10.786 7.046,10.747 6.960 C 10.661 6.770,10.501 6.666,10.186 6.598 C 9.875 6.531,9.783 6.468,9.678 6.250 C 9.585 6.057,9.603 5.828,9.728 5.639 C 9.792 5.543,9.967 5.454,10.194 5.403 C 10.484 5.337,10.600 5.269,10.712 5.100 C 10.782 4.995,10.798 4.789,10.799 4.030 L 10.799 3.430 10.733 3.266 C 10.697 3.177,10.636 3.052,10.598 2.989 C 10.499 2.824,10.286 2.635,10.092 2.539 C 9.954 2.471,9.901 2.456,9.730 2.440 C 9.487 2.416,4.567 2.399,3.140 2.418 M9.569 3.638 C 9.575 3.648,9.586 3.799,9.593 3.974 L 9.606 4.292 9.395 4.408 C 9.010 4.618,8.773 4.858,8.598 5.210 C 8.462 5.487,8.419 5.669,8.417 5.980 C 8.416 6.274,8.442 6.433,8.523 6.644 C 8.680 7.052,9.067 7.459,9.472 7.642 L 9.600 7.700 9.600 7.897 C 9.600 8.005,9.594 8.163,9.587 8.247 L 9.574 8.400 6.000 8.400 L 2.426 8.400 2.413 8.247 C 2.406 8.163,2.400 8.008,2.400 7.902 L 2.400 7.710 2.553 7.631 C 2.855 7.477,3.136 7.231,3.307 6.973 C 3.618 6.504,3.676 5.883,3.461 5.325 C 3.316 4.949,2.985 4.600,2.573 4.387 L 2.395 4.295 2.404 3.982 C 2.409 3.809,2.420 3.657,2.428 3.644 C 2.446 3.615,9.551 3.609,9.569 3.638 M4.690 4.220 C 4.505 4.249,4.328 4.394,4.262 4.570 C 4.194 4.752,4.190 4.820,4.241 4.973 C 4.324 5.223,4.556 5.400,4.800 5.400 C 5.014 5.400,5.250 5.242,5.342 5.035 C 5.399 4.906,5.405 4.692,5.354 4.573 C 5.246 4.324,4.971 4.177,4.690 4.220 M5.570 5.580 L 4.250 6.900 4.675 7.325 L 5.100 7.750 6.425 6.425 L 7.750 5.100 7.330 4.680 C 7.099 4.449,6.906 4.260,6.900 4.260 C 6.894 4.260,6.296 4.854,5.570 5.580 M6.946 6.661 C 6.831 6.719,6.702 6.851,6.654 6.959 C 6.596 7.089,6.599 7.325,6.661 7.452 C 6.767 7.671,6.954 7.787,7.200 7.787 C 7.381 7.787,7.499 7.741,7.615 7.625 C 7.738 7.502,7.785 7.385,7.785 7.203 C 7.785 6.961,7.693 6.797,7.496 6.690 C 7.406 6.640,7.363 6.631,7.210 6.625 C 7.056 6.619,7.018 6.624,6.946 6.661 " fill="#1A1C1F" stroke="none" fill-rule="evenodd"></path></svg>