<svg width="20" height="20" viewBox="0 0 20 20" fill="none" xmlns="http://www.w3.org/2000/svg"><path d="M5.317 4.029 L 3.550 4.050 3.333 4.148 C 2.709 4.429,2.307 4.875,2.081 5.539 C 2.002 5.772,2.000 5.806,2.001 6.764 C 2.002 7.987,2.030 8.325,2.147 8.501 C 2.332 8.781,2.526 8.895,3.010 9.005 C 3.692 9.161,3.967 9.444,3.967 9.991 C 3.967 10.269,3.907 10.450,3.759 10.618 C 3.588 10.811,3.371 10.921,2.994 11.003 C 2.536 11.103,2.302 11.243,2.131 11.521 C 2.032 11.681,2.002 12.076,2.001 13.236 C 2.000 14.194,2.002 14.228,2.081 14.461 C 2.216 14.857,2.362 15.098,2.632 15.368 C 2.902 15.638,3.143 15.784,3.539 15.919 L 3.778 16.000 10.000 16.000 L 16.222 16.000 16.461 15.919 C 16.857 15.784,17.098 15.638,17.368 15.368 C 17.638 15.098,17.784 14.857,17.919 14.461 C 17.998 14.229,18.000 14.194,17.999 13.252 C 17.997 12.082,17.967 11.680,17.870 11.522 C 17.694 11.238,17.464 11.102,16.977 10.997 C 16.474 10.888,16.315 10.783,16.143 10.451 C 16.039 10.249,16.006 9.933,16.067 9.717 C 16.176 9.326,16.435 9.125,16.988 9.004 C 17.465 8.900,17.667 8.782,17.854 8.500 C 17.970 8.325,17.997 7.981,17.998 6.717 L 17.999 5.717 17.888 5.444 C 17.648 4.851,17.321 4.479,16.827 4.235 C 16.589 4.118,16.503 4.094,16.217 4.066 C 15.812 4.026,7.818 3.999,5.317 4.029 M15.978 6.358 C 15.990 6.537,16.000 6.792,16.000 6.924 L 16.000 7.165 15.731 7.299 C 15.358 7.485,15.190 7.606,14.896 7.898 C 14.610 8.182,14.372 8.529,14.237 8.860 C 14.066 9.276,14.050 9.378,14.050 10.017 C 14.050 10.660,14.071 10.774,14.282 11.251 C 14.543 11.840,15.180 12.465,15.826 12.764 L 16.000 12.845 16.000 13.167 C 16.000 13.345,15.990 13.605,15.978 13.745 L 15.957 14.000 10.000 14.000 L 4.043 14.000 4.022 13.745 C 4.010 13.605,4.000 13.345,4.000 13.169 L 4.000 12.847 4.192 12.754 C 4.689 12.510,5.219 12.064,5.485 11.664 C 5.944 10.974,6.104 10.033,5.893 9.265 C 5.779 8.852,5.675 8.621,5.467 8.320 C 5.171 7.892,4.766 7.551,4.237 7.285 L 3.991 7.161 4.006 6.637 C 4.015 6.349,4.033 6.095,4.046 6.073 C 4.065 6.043,5.456 6.033,10.014 6.033 L 15.957 6.033 15.978 6.358 M7.787 7.039 C 7.451 7.088,7.108 7.432,7.031 7.796 C 6.875 8.528,7.557 9.163,8.275 8.954 C 8.410 8.915,8.514 8.852,8.649 8.728 C 8.915 8.485,8.979 8.347,8.978 8.016 C 8.976 7.590,8.819 7.313,8.485 7.149 C 8.274 7.046,8.015 7.005,7.787 7.039 M9.283 9.300 L 7.084 11.500 7.792 12.208 L 8.500 12.917 10.708 10.708 L 12.916 8.500 12.217 7.800 C 11.832 7.415,11.510 7.100,11.500 7.100 C 11.491 7.100,10.493 8.090,9.283 9.300 M11.568 11.139 C 10.856 11.572,10.908 12.540,11.663 12.906 C 11.841 12.993,12.257 13.000,12.449 12.919 C 12.629 12.844,12.915 12.536,12.979 12.347 C 13.045 12.153,13.050 11.769,12.987 11.624 C 12.919 11.464,12.715 11.245,12.540 11.142 C 12.407 11.064,12.341 11.050,12.068 11.040 C 11.757 11.029,11.746 11.031,11.568 11.139 " fill="#1A1C1F" stroke="none" fill-rule="evenodd"></path></svg>