<svg width="32" height="32" viewBox="0 0 32 32" fill="none" xmlns="http://www.w3.org/2000/svg"><path d="M7.360 6.082 C 5.099 6.105,4.130 6.134,3.988 6.180 C 3.682 6.279,3.018 6.748,2.746 7.056 C 2.474 7.364,2.189 7.913,2.051 8.397 C 1.970 8.679,1.962 8.961,1.983 10.996 L 2.006 13.278 2.170 13.506 C 2.389 13.809,2.547 13.893,3.136 14.022 C 3.975 14.204,4.467 14.541,4.771 15.143 C 4.892 15.381,4.907 15.474,4.907 16.000 C 4.907 16.517,4.891 16.621,4.779 16.842 C 4.454 17.480,3.936 17.837,3.093 18.003 C 2.543 18.111,2.396 18.182,2.204 18.434 C 2.068 18.612,2.053 18.679,2.019 19.274 C 1.999 19.629,1.980 20.712,1.978 21.680 C 1.974 23.323,1.981 23.459,2.081 23.724 C 2.538 24.925,3.142 25.524,4.299 25.922 C 4.598 26.025,4.807 26.027,16.000 26.027 C 27.193 26.027,27.402 26.025,27.701 25.922 C 28.301 25.716,28.712 25.475,29.070 25.120 C 29.453 24.741,29.612 24.486,29.872 23.836 L 30.042 23.408 30.014 21.099 C 29.978 18.153,30.032 18.299,28.875 17.991 C 28.504 17.893,28.120 17.774,28.023 17.728 C 27.784 17.614,27.399 17.194,27.231 16.862 C 27.108 16.618,27.093 16.529,27.093 16.000 C 27.093 15.474,27.108 15.381,27.229 15.143 C 27.533 14.541,28.025 14.204,28.864 14.022 C 29.452 13.894,29.611 13.809,29.828 13.509 L 29.989 13.284 30.015 10.945 C 30.041 8.628,30.040 8.603,29.923 8.289 C 29.573 7.353,29.092 6.763,28.346 6.353 L 27.920 6.119 24.613 6.077 C 20.891 6.029,12.143 6.032,7.360 6.082 M27.658 8.339 L 27.935 8.626 27.971 9.393 C 27.991 9.815,27.999 10.601,27.990 11.140 L 27.973 12.119 27.717 12.220 C 27.161 12.438,26.589 12.817,26.151 13.256 C 25.779 13.629,25.676 13.775,25.450 14.247 C 25.144 14.884,25.078 15.125,25.033 15.772 C 24.915 17.467,25.928 19.032,27.599 19.735 L 27.920 19.870 27.963 20.482 C 27.987 20.818,27.995 21.595,27.980 22.208 L 27.955 23.322 27.797 23.539 C 27.711 23.659,27.547 23.805,27.433 23.865 C 27.228 23.973,27.166 23.973,16.000 23.991 L 4.773 24.008 4.533 23.846 C 4.401 23.757,4.233 23.595,4.160 23.486 L 4.027 23.288 4.028 21.711 C 4.029 20.843,4.046 20.073,4.066 19.999 C 4.093 19.899,4.189 19.828,4.453 19.713 C 5.592 19.217,6.389 18.366,6.782 17.227 C 6.945 16.753,6.957 16.675,6.954 16.027 C 6.951 15.029,6.774 14.471,6.210 13.675 C 5.792 13.085,5.042 12.518,4.283 12.220 L 4.027 12.119 4.030 10.410 L 4.033 8.702 4.186 8.481 C 4.357 8.235,4.436 8.181,4.730 8.112 C 4.846 8.085,9.748 8.062,16.157 8.059 L 27.381 8.053 27.658 8.339 M19.700 11.146 C 19.638 11.171,19.386 11.378,19.140 11.606 C 18.307 12.378,14.114 16.446,12.604 17.947 C 11.305 19.238,11.094 19.470,11.043 19.664 C 10.914 20.155,11.206 20.660,11.700 20.798 C 12.126 20.917,12.327 20.854,12.762 20.465 C 13.547 19.762,16.257 17.130,18.541 14.853 C 21.129 12.274,21.105 12.303,20.965 11.837 C 20.812 11.325,20.150 10.964,19.700 11.146 M11.789 11.231 C 11.470 11.369,11.070 11.708,10.851 12.026 C 10.641 12.332,10.640 12.333,10.621 12.933 C 10.605 13.449,10.618 13.567,10.712 13.781 C 10.865 14.126,11.366 14.636,11.728 14.813 C 11.997 14.946,12.080 14.959,12.569 14.955 C 13.040 14.951,13.149 14.932,13.398 14.810 C 14.004 14.513,14.471 13.852,14.540 13.191 C 14.624 12.383,14.059 11.497,13.283 11.219 C 13.011 11.122,12.022 11.130,11.789 11.231 M19.410 17.030 C 19.055 17.130,18.725 17.340,18.434 17.651 C 18.057 18.054,17.953 18.325,17.951 18.908 C 17.949 19.531,18.093 19.850,18.584 20.310 C 19.015 20.713,19.307 20.820,19.975 20.823 C 20.396 20.824,20.494 20.806,20.762 20.674 C 21.140 20.490,21.539 20.108,21.697 19.780 C 21.972 19.211,21.964 18.490,21.679 18.003 C 21.475 17.656,21.012 17.254,20.665 17.124 C 20.286 16.982,19.726 16.940,19.410 17.030 " fill="#1A1C1F" stroke="none" fill-rule="evenodd"></path></svg>