<svg width="14" height="14" viewBox="0 0 14 14" fill="none" xmlns="http://www.w3.org/2000/svg"><path d="M3.698 2.823 L 2.485 2.837 2.338 2.899 C 2.034 3.027,1.734 3.296,1.588 3.572 C 1.425 3.876,1.420 3.910,1.407 4.667 C 1.393 5.503,1.416 5.820,1.503 5.950 C 1.631 6.145,1.767 6.225,2.095 6.301 C 2.587 6.416,2.777 6.608,2.777 6.994 C 2.777 7.189,2.735 7.315,2.631 7.433 C 2.512 7.568,2.360 7.645,2.096 7.702 C 1.775 7.772,1.612 7.870,1.491 8.065 C 1.422 8.177,1.401 8.453,1.401 9.265 C 1.400 9.936,1.402 9.960,1.457 10.122 C 1.551 10.400,1.654 10.568,1.843 10.757 C 2.032 10.946,2.200 11.049,2.478 11.143 L 2.645 11.200 7.000 11.200 L 11.355 11.200 11.522 11.143 C 11.800 11.049,11.968 10.946,12.157 10.757 C 12.346 10.568,12.449 10.400,12.543 10.122 C 12.599 9.957,12.600 9.945,12.600 9.099 L 12.600 8.244 12.540 8.129 C 12.410 7.882,12.250 7.777,11.884 7.698 C 11.621 7.641,11.521 7.596,11.418 7.486 C 11.194 7.248,11.161 6.877,11.339 6.597 C 11.421 6.467,11.610 6.368,11.893 6.303 C 12.231 6.227,12.367 6.147,12.498 5.950 C 12.579 5.828,12.598 5.588,12.599 4.707 L 12.600 4.012 12.530 3.830 C 12.387 3.460,12.188 3.209,11.888 3.021 C 11.605 2.844,11.607 2.844,10.173 2.823 C 8.774 2.801,5.591 2.802,3.698 2.823 M11.164 4.245 C 11.172 4.257,11.184 4.435,11.192 4.640 L 11.207 5.012 11.058 5.087 C 10.636 5.298,10.303 5.595,10.100 5.941 C 9.866 6.340,9.811 6.584,9.830 7.128 C 9.843 7.512,9.868 7.613,10.024 7.921 C 10.242 8.350,10.629 8.725,11.051 8.916 L 11.200 8.984 11.200 9.213 C 11.200 9.340,11.193 9.523,11.185 9.621 L 11.170 9.800 7.000 9.800 L 2.830 9.800 2.815 9.643 C 2.807 9.556,2.800 9.374,2.800 9.239 L 2.800 8.993 2.934 8.927 C 3.409 8.695,3.839 8.263,4.018 7.837 C 4.192 7.423,4.235 6.911,4.132 6.498 C 3.986 5.913,3.594 5.429,3.025 5.131 L 2.794 5.010 2.805 4.645 C 2.810 4.443,2.823 4.266,2.832 4.251 C 2.854 4.216,11.142 4.210,11.164 4.245 M5.281 4.972 C 5.162 5.031,4.980 5.220,4.930 5.338 C 4.873 5.472,4.880 5.726,4.945 5.873 C 5.006 6.012,5.183 6.190,5.315 6.246 C 5.418 6.290,5.765 6.297,5.864 6.257 C 5.958 6.218,6.180 6.001,6.237 5.892 C 6.307 5.755,6.306 5.465,6.233 5.314 C 6.166 5.176,5.962 4.988,5.840 4.951 C 5.685 4.905,5.394 4.915,5.281 4.972 M6.498 6.510 L 4.958 8.050 5.454 8.546 L 5.950 9.042 7.496 7.496 L 9.041 5.950 8.552 5.460 C 8.282 5.191,8.057 4.970,8.050 4.970 C 8.044 4.970,7.345 5.663,6.498 6.510 M8.132 7.768 C 7.862 7.906,7.744 8.097,7.740 8.405 C 7.737 8.630,7.763 8.694,7.929 8.873 C 8.086 9.040,8.181 9.081,8.410 9.082 C 8.534 9.083,8.630 9.070,8.690 9.044 C 9.013 8.908,9.189 8.543,9.092 8.210 C 9.038 8.023,8.945 7.910,8.771 7.817 C 8.641 7.748,8.595 7.736,8.423 7.729 C 8.259 7.722,8.209 7.729,8.132 7.768 " fill="#1A1C1F" stroke="none" fill-rule="evenodd"></path></svg>