<svg width="12" height="12" viewBox="0 0 12 12" fill="none" xmlns="http://www.w3.org/2000/svg"><path d="M3.140 2.418 L 2.130 2.430 2.000 2.489 C 1.659 2.643,1.423 2.883,1.282 3.218 C 1.214 3.378,1.196 3.646,1.205 4.326 C 1.214 5.005,1.219 5.030,1.354 5.180 C 1.456 5.294,1.562 5.347,1.795 5.401 C 2.218 5.499,2.380 5.664,2.380 5.995 C 2.380 6.162,2.344 6.270,2.255 6.371 C 2.153 6.487,2.023 6.552,1.796 6.602 C 1.499 6.667,1.336 6.774,1.253 6.960 C 1.216 7.044,1.212 7.102,1.204 7.795 L 1.195 8.540 1.249 8.695 C 1.324 8.907,1.404 9.041,1.544 9.191 C 1.694 9.352,1.845 9.452,2.060 9.534 L 2.230 9.599 5.981 9.599 L 9.733 9.600 9.876 9.551 C 10.294 9.409,10.562 9.158,10.732 8.750 L 10.790 8.610 10.789 7.830 C 10.788 7.088,10.786 7.046,10.747 6.960 C 10.661 6.770,10.501 6.666,10.186 6.598 C 9.875 6.531,9.783 6.468,9.678 6.250 C 9.585 6.057,9.603 5.828,9.728 5.639 C 9.792 5.543,9.967 5.454,10.194 5.403 C 10.484 5.337,10.600 5.269,10.712 5.100 C 10.782 4.995,10.798 4.789,10.799 4.030 L 10.799 3.430 10.733 3.266 C 10.697 3.177,10.636 3.052,10.598 2.989 C 10.499 2.824,10.286 2.635,10.092 2.539 C 9.954 2.471,9.901 2.456,9.730 2.440 C 9.487 2.416,4.567 2.399,3.140 2.418 M5.040 4.262 C 5.150 4.311,5.268 4.422,5.327 4.530 C 5.389 4.645,5.388 4.953,5.325 5.072 C 5.259 5.198,5.095 5.334,4.964 5.372 C 4.695 5.451,4.384 5.306,4.257 5.043 C 4.221 4.969,4.216 4.931,4.224 4.773 C 4.238 4.507,4.318 4.377,4.529 4.277 C 4.684 4.204,4.898 4.198,5.040 4.262 M7.330 4.680 L 7.750 5.100 6.425 6.425 L 5.100 7.750 4.675 7.325 L 4.250 6.900 5.570 5.580 C 6.296 4.854,6.894 4.260,6.900 4.260 C 6.906 4.260,7.099 4.449,7.330 4.680 M7.440 6.662 C 7.550 6.711,7.668 6.822,7.727 6.930 C 7.762 6.996,7.770 7.043,7.770 7.200 C 7.770 7.425,7.739 7.499,7.586 7.643 C 7.466 7.755,7.375 7.787,7.180 7.787 C 6.963 7.787,6.843 7.717,6.696 7.505 C 6.631 7.412,6.630 7.406,6.631 7.200 C 6.631 6.975,6.646 6.927,6.753 6.800 C 6.784 6.764,6.863 6.709,6.929 6.677 C 7.084 6.604,7.298 6.598,7.440 6.662 " fill="#1A1C1F" stroke="none" fill-rule="evenodd"></path></svg>