<svg width="14" height="14" viewBox="0 0 14 14" fill="none" xmlns="http://www.w3.org/2000/svg"><path d="M3.698 2.823 L 2.485 2.837 2.338 2.899 C 2.034 3.027,1.734 3.296,1.588 3.572 C 1.425 3.876,1.420 3.910,1.407 4.667 C 1.393 5.503,1.416 5.820,1.503 5.950 C 1.631 6.145,1.767 6.225,2.095 6.301 C 2.587 6.416,2.777 6.608,2.777 6.994 C 2.777 7.189,2.735 7.315,2.631 7.433 C 2.512 7.568,2.360 7.645,2.096 7.702 C 1.775 7.772,1.612 7.870,1.491 8.065 C 1.422 8.177,1.401 8.453,1.401 9.265 C 1.400 9.936,1.402 9.960,1.457 10.122 C 1.551 10.400,1.654 10.568,1.843 10.757 C 2.032 10.946,2.200 11.049,2.478 11.143 L 2.645 11.200 7.000 11.200 L 11.355 11.200 11.522 11.143 C 11.800 11.049,11.968 10.946,12.157 10.757 C 12.346 10.568,12.449 10.400,12.543 10.122 C 12.599 9.957,12.600 9.945,12.600 9.099 L 12.600 8.244 12.540 8.129 C 12.410 7.882,12.250 7.777,11.884 7.698 C 11.621 7.641,11.521 7.596,11.418 7.486 C 11.194 7.248,11.161 6.877,11.339 6.597 C 11.421 6.467,11.610 6.368,11.893 6.303 C 12.231 6.227,12.367 6.147,12.498 5.950 C 12.579 5.828,12.598 5.588,12.599 4.707 L 12.600 4.012 12.530 3.830 C 12.387 3.460,12.188 3.209,11.888 3.021 C 11.605 2.844,11.607 2.844,10.173 2.823 C 8.774 2.801,5.591 2.802,3.698 2.823 M5.721 4.926 C 5.953 4.975,6.123 5.105,6.231 5.315 C 6.276 5.402,6.281 5.442,6.273 5.634 C 6.264 5.838,6.257 5.861,6.182 5.972 C 5.926 6.348,5.427 6.401,5.112 6.086 C 4.955 5.930,4.916 5.820,4.928 5.570 C 4.939 5.322,4.971 5.246,5.125 5.097 C 5.230 4.994,5.421 4.903,5.535 4.901 C 5.569 4.901,5.653 4.912,5.721 4.926 M8.552 5.460 L 9.041 5.950 7.496 7.496 L 5.950 9.042 5.454 8.546 L 4.958 8.050 6.498 6.510 C 7.345 5.663,8.044 4.970,8.050 4.970 C 8.057 4.970,8.282 5.191,8.552 5.460 M8.682 7.774 C 8.805 7.826,8.956 7.972,9.028 8.108 C 9.066 8.181,9.077 8.243,9.077 8.398 C 9.077 8.630,9.036 8.734,8.887 8.884 C 8.554 9.221,8.018 9.145,7.798 8.732 C 7.733 8.611,7.723 8.569,7.723 8.420 C 7.724 8.326,7.734 8.210,7.747 8.164 C 7.773 8.072,7.916 7.895,8.033 7.812 C 8.197 7.695,8.462 7.679,8.682 7.774 " fill="#1A1C1F" stroke="none" fill-rule="evenodd"></path></svg>