<svg width="20" height="20" viewBox="0 0 20 20" fill="none" xmlns="http://www.w3.org/2000/svg"><path d="M5.317 4.029 L 3.550 4.050 3.333 4.148 C 2.709 4.429,2.307 4.875,2.081 5.539 C 2.002 5.772,2.000 5.806,2.001 6.764 C 2.002 7.987,2.030 8.325,2.147 8.501 C 2.332 8.781,2.526 8.895,3.010 9.005 C 3.692 9.161,3.967 9.444,3.967 9.991 C 3.967 10.269,3.907 10.450,3.759 10.618 C 3.588 10.811,3.371 10.921,2.994 11.003 C 2.536 11.103,2.302 11.243,2.131 11.521 C 2.032 11.681,2.002 12.076,2.001 13.236 C 2.000 14.194,2.002 14.228,2.081 14.461 C 2.216 14.857,2.362 15.098,2.632 15.368 C 2.902 15.638,3.143 15.784,3.539 15.919 L 3.778 16.000 10.000 16.000 L 16.222 16.000 16.461 15.919 C 16.857 15.784,17.098 15.638,17.368 15.368 C 17.638 15.098,17.784 14.857,17.919 14.461 C 17.998 14.229,18.000 14.194,17.999 13.252 C 17.997 12.082,17.967 11.680,17.870 11.522 C 17.694 11.238,17.464 11.102,16.977 10.997 C 16.474 10.888,16.315 10.783,16.143 10.451 C 16.039 10.249,16.006 9.933,16.067 9.717 C 16.176 9.326,16.435 9.125,16.988 9.004 C 17.465 8.900,17.667 8.782,17.854 8.500 C 17.970 8.325,17.997 7.981,17.998 6.717 L 17.999 5.717 17.888 5.444 C 17.648 4.851,17.321 4.479,16.827 4.235 C 16.589 4.118,16.503 4.094,16.217 4.066 C 15.812 4.026,7.818 3.999,5.317 4.029 M8.451 7.124 C 8.590 7.196,8.827 7.430,8.900 7.567 C 8.959 7.677,8.982 8.156,8.936 8.323 C 8.891 8.490,8.614 8.808,8.433 8.900 C 8.147 9.046,7.702 9.013,7.424 8.825 C 7.336 8.765,7.210 8.638,7.144 8.543 C 7.038 8.390,7.021 8.337,7.008 8.121 C 6.976 7.634,7.134 7.322,7.506 7.134 C 7.705 7.034,7.733 7.029,8.017 7.041 C 8.237 7.051,8.352 7.073,8.451 7.124 M12.217 7.800 L 12.916 8.500 10.708 10.708 L 8.500 12.917 7.792 12.208 L 7.084 11.500 9.283 9.300 C 10.493 8.090,11.491 7.100,11.500 7.100 C 11.510 7.100,11.832 7.415,12.217 7.800 M12.389 11.100 C 12.579 11.183,12.803 11.396,12.897 11.584 C 12.965 11.721,12.973 11.775,12.961 12.051 C 12.948 12.347,12.941 12.372,12.822 12.545 C 12.615 12.845,12.357 12.978,11.980 12.979 C 11.683 12.979,11.503 12.898,11.289 12.667 C 11.076 12.437,11.016 12.252,11.041 11.905 C 11.073 11.458,11.325 11.151,11.744 11.047 C 11.948 10.996,12.196 11.017,12.389 11.100 " fill="#1A1C1F" stroke="none" fill-rule="evenodd"></path></svg>