<svg width="28" height="28" viewBox="0 0 28 28" fill="none" xmlns="http://www.w3.org/2000/svg"><path d="M6.347 5.322 C 4.446 5.342,3.613 5.367,3.489 5.407 C 3.222 5.494,2.641 5.904,2.402 6.174 C 2.165 6.443,1.916 6.924,1.794 7.347 C 1.723 7.594,1.717 7.841,1.735 9.621 L 1.755 11.618 1.899 11.817 C 2.090 12.083,2.229 12.157,2.744 12.269 C 3.478 12.429,3.908 12.724,4.175 13.250 C 4.280 13.458,4.293 13.540,4.293 14.000 C 4.293 14.592,4.227 14.779,3.873 15.180 C 3.621 15.466,3.428 15.562,2.767 15.731 C 2.132 15.894,2.095 15.911,1.928 16.130 C 1.810 16.286,1.797 16.345,1.767 16.865 C 1.749 17.176,1.733 18.126,1.730 18.976 L 1.727 20.522 1.871 20.880 C 2.095 21.434,2.232 21.652,2.564 21.980 C 2.877 22.290,3.237 22.501,3.761 22.682 C 4.023 22.772,4.206 22.773,14.000 22.773 C 23.794 22.773,23.977 22.772,24.239 22.682 C 25.066 22.397,25.608 21.956,25.934 21.303 C 26.302 20.566,26.290 20.666,26.262 18.429 C 26.239 16.676,26.227 16.417,26.156 16.268 C 26.024 15.991,25.862 15.892,25.312 15.754 C 25.035 15.685,24.708 15.585,24.586 15.532 C 24.321 15.418,23.994 15.083,23.827 14.754 C 23.719 14.541,23.707 14.463,23.707 14.000 C 23.707 13.540,23.720 13.458,23.825 13.250 C 24.092 12.724,24.522 12.429,25.256 12.269 C 25.770 12.157,25.910 12.083,26.099 11.820 L 26.241 11.624 26.264 9.577 C 26.286 7.550,26.285 7.527,26.183 7.253 C 25.876 6.434,25.456 5.917,24.803 5.559 L 24.430 5.354 21.653 5.317 C 18.516 5.276,10.380 5.278,6.347 5.322 M24.055 7.145 C 24.134 7.199,24.260 7.329,24.334 7.432 L 24.470 7.621 24.491 9.106 C 24.512 10.530,24.509 10.593,24.425 10.621 C 24.178 10.703,23.463 11.088,23.217 11.271 C 22.676 11.674,22.231 12.351,22.019 13.093 C 21.933 13.391,21.913 13.577,21.915 14.047 C 21.916 14.583,21.929 14.667,22.073 15.091 C 22.388 16.022,23.007 16.712,23.921 17.155 L 24.444 17.408 24.478 18.142 C 24.497 18.546,24.500 19.223,24.483 19.647 C 24.454 20.399,24.450 20.421,24.319 20.602 C 24.245 20.704,24.104 20.830,24.004 20.882 C 23.824 20.976,23.785 20.977,14.000 20.977 C 4.215 20.977,4.176 20.976,3.996 20.882 C 3.896 20.830,3.754 20.703,3.679 20.599 C 3.544 20.413,3.543 20.408,3.515 19.551 C 3.500 19.077,3.502 18.402,3.521 18.049 L 3.556 17.408 4.097 17.147 C 4.585 16.910,4.678 16.843,5.062 16.457 C 5.543 15.973,5.801 15.538,5.981 14.907 C 6.133 14.374,6.132 13.557,5.980 13.068 C 5.773 12.404,5.396 11.812,4.925 11.409 C 4.594 11.126,3.983 10.763,3.709 10.686 L 3.488 10.625 3.508 9.125 C 3.527 7.655,3.530 7.621,3.636 7.450 C 3.769 7.234,3.896 7.149,4.159 7.097 C 4.271 7.075,8.762 7.055,14.137 7.052 L 23.911 7.047 24.055 7.145 M10.561 9.753 C 10.182 9.833,9.760 10.138,9.495 10.523 C 9.311 10.791,9.310 10.792,9.294 11.316 C 9.279 11.768,9.290 11.872,9.373 12.059 C 9.507 12.360,9.945 12.806,10.262 12.962 C 10.498 13.077,10.570 13.090,10.998 13.086 C 11.412 13.082,11.505 13.065,11.726 12.957 C 12.243 12.704,12.677 12.085,12.727 11.529 C 12.777 10.979,12.457 10.318,12.003 10.029 C 11.616 9.784,10.987 9.663,10.561 9.753 M17.195 9.800 C 17.092 9.851,16.651 10.233,16.215 10.649 C 14.620 12.172,10.125 16.578,9.917 16.821 C 9.652 17.131,9.594 17.309,9.663 17.601 C 9.762 18.021,10.179 18.291,10.634 18.228 C 10.801 18.205,10.901 18.145,11.171 17.903 C 11.826 17.317,14.292 14.921,16.269 12.950 C 18.483 10.744,18.467 10.764,18.345 10.357 C 18.242 10.013,17.834 9.708,17.477 9.707 C 17.425 9.707,17.299 9.749,17.195 9.800 M17.057 14.884 C 16.616 14.960,16.054 15.408,15.833 15.859 C 15.724 16.083,15.706 16.178,15.705 16.541 C 15.704 16.916,15.719 16.995,15.841 17.243 C 16.015 17.599,16.328 17.912,16.684 18.086 C 16.934 18.208,17.010 18.222,17.407 18.221 C 17.786 18.220,17.888 18.202,18.117 18.097 C 18.488 17.925,18.823 17.597,19.005 17.226 C 19.138 16.956,19.157 16.873,19.156 16.544 C 19.155 16.223,19.135 16.127,19.010 15.867 C 18.776 15.377,18.304 14.983,17.871 14.916 C 17.538 14.865,17.237 14.853,17.057 14.884 " fill="#1A1C1F" stroke="none" fill-rule="evenodd"></path></svg>