<svg width="12" height="12" viewBox="0 0 12 12" fill="none" xmlns="http://www.w3.org/2000/svg"><path d="M5.375 2.461 C 4.794 2.551,4.150 2.808,3.600 3.168 C 2.904 3.624,2.118 4.457,1.460 5.437 C 1.199 5.826,1.161 5.954,1.242 6.170 C 1.343 6.441,2.042 7.382,2.512 7.880 C 3.430 8.853,4.317 9.370,5.370 9.543 C 5.613 9.583,6.459 9.578,6.690 9.535 C 7.449 9.394,8.225 9.021,8.849 8.497 C 9.376 8.056,9.988 7.349,10.544 6.540 C 10.879 6.054,10.878 5.952,10.538 5.441 C 10.012 4.650,9.371 3.917,8.819 3.475 C 8.217 2.993,7.476 2.629,6.830 2.499 C 6.640 2.460,6.534 2.454,6.050 2.448 C 5.742 2.445,5.438 2.451,5.375 2.461 M6.459 3.663 C 6.922 3.714,7.413 3.931,7.920 4.307 C 8.300 4.588,8.945 5.283,9.359 5.855 L 9.463 6.000 9.358 6.145 C 8.755 6.969,8.221 7.522,7.680 7.883 C 7.384 8.080,6.911 8.278,6.530 8.363 C 6.343 8.404,5.655 8.399,5.443 8.354 C 4.965 8.252,4.491 8.028,4.066 7.704 C 3.851 7.541,3.453 7.155,3.226 6.891 C 3.059 6.697,2.715 6.255,2.582 6.065 L 2.537 5.999 2.686 5.795 C 3.090 5.242,3.769 4.522,4.115 4.279 C 4.652 3.903,5.165 3.689,5.640 3.642 C 5.847 3.622,6.162 3.630,6.459 3.663 M5.594 4.888 C 5.310 5.007,5.094 5.187,4.973 5.404 C 4.765 5.779,4.751 6.168,4.933 6.540 C 4.988 6.653,5.045 6.729,5.168 6.850 C 5.354 7.034,5.474 7.105,5.692 7.160 C 6.110 7.267,6.528 7.152,6.840 6.843 C 7.085 6.601,7.188 6.359,7.188 6.030 C 7.188 5.620,7.008 5.273,6.675 5.039 C 6.448 4.880,6.360 4.854,6.010 4.846 C 5.728 4.839,5.703 4.842,5.594 4.888 " fill="#1A1C1F" stroke="none" fill-rule="evenodd"></path></svg>