<svg width="20" height="20" viewBox="0 0 20 20" fill="none" xmlns="http://www.w3.org/2000/svg"><path d="M15.694 3.071 C 15.554 3.110,14.951 3.656,14.103 4.511 L 13.589 5.028 13.170 4.819 C 12.159 4.314,11.378 4.107,10.267 4.048 C 9.627 4.015,8.743 4.114,8.133 4.288 C 7.190 4.557,6.139 5.113,5.311 5.781 C 4.986 6.043,4.119 6.898,3.754 7.317 C 3.219 7.930,2.306 9.194,2.111 9.592 C 1.989 9.841,1.977 10.015,2.064 10.276 C 2.242 10.809,3.410 12.360,4.406 13.385 L 4.797 13.787 4.378 14.202 C 3.769 14.806,3.222 15.413,3.121 15.598 C 2.947 15.917,2.980 16.246,3.219 16.575 C 3.366 16.777,3.529 16.883,3.804 16.955 C 4.065 17.024,4.189 16.999,4.452 16.826 C 4.814 16.588,16.285 5.122,16.759 4.525 C 16.992 4.231,17.024 4.126,16.966 3.845 C 16.894 3.496,16.738 3.286,16.433 3.128 C 16.264 3.041,15.903 3.013,15.694 3.071 M11.004 6.152 C 11.373 6.222,11.981 6.438,11.993 6.503 C 11.999 6.536,11.720 6.847,11.283 7.293 L 10.564 8.029 10.004 8.039 L 9.445 8.050 9.164 8.191 C 9.010 8.268,8.796 8.409,8.689 8.504 C 8.453 8.714,8.194 9.075,8.097 9.329 C 8.007 9.566,7.975 10.051,8.032 10.338 L 8.072 10.544 7.150 11.464 L 6.229 12.383 5.893 12.033 C 5.709 11.841,5.416 11.518,5.242 11.317 C 4.913 10.935,4.233 10.048,4.233 10.000 C 4.233 9.985,4.356 9.810,4.505 9.611 C 5.686 8.041,6.643 7.147,7.725 6.604 C 8.307 6.312,8.833 6.143,9.297 6.101 C 9.696 6.064,10.699 6.094,11.004 6.152 M15.843 8.408 L 15.136 9.117 15.455 9.561 L 15.774 10.006 15.655 10.178 C 15.285 10.712,14.332 11.832,13.892 12.251 C 13.538 12.587,12.960 13.036,12.610 13.246 C 12.093 13.555,11.405 13.814,10.783 13.933 C 10.582 13.971,10.357 14.028,10.283 14.058 C 10.191 14.097,9.888 14.373,9.301 14.955 C 8.833 15.417,8.459 15.803,8.468 15.812 C 8.477 15.821,8.642 15.863,8.834 15.905 C 9.143 15.972,9.275 15.981,9.967 15.981 C 10.815 15.980,11.066 15.954,11.671 15.800 C 12.672 15.546,13.708 15.015,14.633 14.281 C 15.086 13.922,16.109 12.872,16.565 12.300 C 17.009 11.743,17.484 11.086,17.771 10.634 C 17.945 10.358,17.950 10.344,17.962 10.073 C 17.971 9.870,17.959 9.755,17.918 9.649 C 17.841 9.448,16.630 7.701,16.566 7.700 C 16.557 7.700,16.231 8.019,15.843 8.408 " fill="#1A1C1F" stroke="none" fill-rule="evenodd"></path></svg>