<svg width="12" height="12" viewBox="0 0 12 12" fill="none" xmlns="http://www.w3.org/2000/svg"><path d="M9.420 1.843 C 9.328 1.870,9.214 1.969,8.721 2.449 C 8.495 2.669,8.272 2.884,8.226 2.928 L 8.141 3.007 7.896 2.886 C 7.313 2.599,6.942 2.493,6.320 2.438 C 5.903 2.401,5.370 2.448,4.933 2.559 C 4.367 2.702,3.738 3.031,3.188 3.471 C 2.660 3.893,1.962 4.687,1.468 5.425 C 1.199 5.829,1.164 5.941,1.239 6.166 C 1.344 6.484,2.047 7.416,2.644 8.031 L 2.878 8.272 2.627 8.521 C 2.256 8.889,1.933 9.248,1.868 9.366 C 1.683 9.702,1.942 10.134,2.365 10.192 C 2.494 10.210,2.628 10.143,2.848 9.949 C 3.135 9.697,9.741 3.081,9.952 2.834 C 10.194 2.552,10.208 2.524,10.192 2.381 C 10.171 2.204,10.138 2.122,10.049 2.023 C 9.931 1.892,9.804 1.832,9.630 1.826 C 9.553 1.824,9.459 1.831,9.420 1.843 M6.250 3.660 C 6.550 3.675,6.619 3.686,6.836 3.748 C 7.109 3.828,7.200 3.868,7.200 3.909 C 7.200 3.924,7.006 4.135,6.768 4.378 L 6.336 4.820 6.062 4.820 C 5.753 4.820,5.618 4.847,5.437 4.943 C 5.197 5.071,4.948 5.357,4.857 5.610 C 4.804 5.759,4.786 6.035,4.819 6.204 L 4.843 6.327 4.290 6.878 L 3.737 7.430 3.517 7.200 C 3.396 7.074,3.213 6.871,3.111 6.750 C 2.908 6.510,2.540 6.027,2.540 6.000 C 2.540 5.979,2.818 5.610,3.045 5.330 C 3.663 4.567,4.279 4.080,4.957 3.818 C 5.380 3.655,5.613 3.627,6.250 3.660 M9.506 5.045 L 9.082 5.470 9.270 5.730 C 9.373 5.873,9.458 5.996,9.459 6.004 C 9.461 6.028,9.111 6.487,8.919 6.711 C 8.648 7.027,8.176 7.505,7.990 7.650 C 7.494 8.037,7.055 8.242,6.465 8.359 C 6.308 8.390,6.158 8.430,6.132 8.447 C 6.032 8.512,5.079 9.467,5.096 9.484 C 5.106 9.494,5.203 9.521,5.312 9.545 C 5.484 9.583,5.572 9.589,5.980 9.589 C 6.486 9.588,6.627 9.573,7.000 9.479 C 7.606 9.327,8.234 9.005,8.780 8.567 C 9.018 8.376,9.506 7.894,9.747 7.613 C 10.101 7.199,10.698 6.373,10.759 6.213 C 10.795 6.117,10.784 5.861,10.739 5.762 C 10.679 5.629,9.973 4.621,9.940 4.620 C 9.934 4.620,9.739 4.811,9.506 5.045 " fill="#1A1C1F" stroke="none" fill-rule="evenodd"></path></svg>