<svg width="14" height="14" viewBox="0 0 14 14" fill="none" xmlns="http://www.w3.org/2000/svg"><path d="M10.986 2.151 C 10.888 2.177,10.471 2.554,9.872 3.157 L 9.513 3.519 9.271 3.395 C 8.503 2.999,7.854 2.840,7.000 2.838 C 6.562 2.837,6.326 2.860,5.930 2.944 C 5.231 3.092,4.375 3.519,3.718 4.047 C 3.491 4.229,2.885 4.827,2.628 5.122 C 2.253 5.551,1.614 6.436,1.478 6.715 C 1.392 6.888,1.384 7.010,1.445 7.193 C 1.569 7.566,2.389 8.655,3.083 9.368 L 3.355 9.647 2.845 10.168 C 2.163 10.865,2.064 11.019,2.120 11.291 C 2.195 11.656,2.455 11.879,2.813 11.886 C 2.990 11.889,3.038 11.859,3.421 11.512 C 4.130 10.868,11.463 3.505,11.731 3.167 C 11.894 2.961,11.917 2.888,11.876 2.692 C 11.837 2.504,11.781 2.402,11.653 2.289 C 11.483 2.140,11.226 2.087,10.986 2.151 M7.653 4.296 C 7.879 4.332,8.387 4.507,8.395 4.552 C 8.399 4.575,8.202 4.794,7.897 5.107 L 7.392 5.623 7.060 5.623 C 6.684 5.623,6.563 5.649,6.323 5.781 C 6.130 5.887,5.846 6.172,5.747 6.360 C 5.608 6.622,5.562 6.962,5.626 7.259 L 5.652 7.380 5.006 8.024 L 4.360 8.668 4.125 8.423 C 3.741 8.023,3.324 7.521,3.035 7.113 L 2.958 7.004 3.035 6.891 C 3.460 6.264,4.096 5.556,4.600 5.148 C 5.183 4.676,5.906 4.340,6.487 4.271 C 6.678 4.248,7.452 4.265,7.653 4.296 M11.090 5.885 L 10.596 6.382 10.819 6.691 L 11.042 7.000 10.905 7.189 C 10.544 7.692,9.996 8.326,9.662 8.629 C 8.938 9.286,8.367 9.589,7.542 9.756 C 7.357 9.794,7.183 9.836,7.155 9.851 C 7.100 9.880,5.927 11.035,5.927 11.060 C 5.927 11.083,6.254 11.148,6.521 11.179 C 6.809 11.213,7.490 11.194,7.782 11.144 C 8.480 11.024,9.141 10.758,9.753 10.349 C 10.181 10.063,10.395 9.884,10.841 9.440 C 11.374 8.908,11.831 8.350,12.294 7.665 C 12.684 7.089,12.689 6.933,12.336 6.410 C 12.106 6.070,11.726 5.545,11.644 5.454 L 11.585 5.388 11.090 5.885 " fill="#1A1C1F" stroke="none" fill-rule="evenodd"></path></svg>