<svg width="28" height="28" viewBox="0 0 28 28" fill="none" xmlns="http://www.w3.org/2000/svg"><path d="M23.123 3.693 C 22.995 3.777,22.113 4.627,21.163 5.582 L 19.437 7.317 19.121 7.185 C 17.694 6.585,16.181 6.239,14.662 6.167 C 11.659 6.024,9.139 6.748,6.645 8.469 C 5.157 9.495,3.417 11.311,2.155 13.153 C 1.658 13.879,1.654 14.103,2.131 14.807 C 3.319 16.558,4.836 18.141,6.578 19.445 L 6.994 19.757 5.386 21.386 C 4.502 22.282,3.721 23.090,3.651 23.182 C 3.544 23.323,3.523 23.396,3.523 23.637 C 3.523 23.881,3.545 23.956,3.663 24.126 C 3.814 24.344,4.084 24.498,4.317 24.498 C 4.663 24.498,4.759 24.410,8.760 20.446 C 16.373 12.906,24.089 5.129,24.360 4.724 C 24.527 4.475,24.533 4.266,24.384 3.952 C 24.255 3.680,24.067 3.573,23.684 3.555 C 23.380 3.540,23.340 3.550,23.123 3.693 M15.325 7.981 C 15.994 8.036,16.583 8.147,17.296 8.355 C 17.847 8.516,18.013 8.583,18.013 8.644 C 18.013 8.667,17.656 9.061,17.219 9.520 L 16.425 10.353 15.924 10.104 C 15.168 9.728,15.065 9.707,13.988 9.707 C 13.115 9.707,13.039 9.714,12.702 9.827 C 11.333 10.286,10.286 11.337,9.821 12.717 C 9.719 13.020,9.691 13.204,9.671 13.702 C 9.633 14.684,9.785 15.390,10.192 16.119 L 10.355 16.409 9.309 17.454 L 8.264 18.499 7.933 18.273 C 6.542 17.323,5.278 16.088,4.089 14.520 L 3.688 13.990 3.791 13.843 C 4.262 13.177,5.362 11.912,6.053 11.241 C 7.978 9.375,10.197 8.236,12.390 7.988 C 12.918 7.928,14.623 7.924,15.325 7.981 M21.816 9.894 L 21.217 10.494 22.015 11.313 C 23.214 12.543,24.220 13.749,24.220 13.957 C 24.220 14.267,22.552 16.233,21.497 17.165 C 19.658 18.792,17.762 19.701,15.583 20.001 C 14.821 20.107,13.034 20.109,12.297 20.005 L 11.783 19.933 11.095 20.617 C 10.716 20.994,10.407 21.316,10.407 21.334 C 10.407 21.377,11.284 21.582,12.017 21.710 C 12.556 21.804,12.774 21.816,13.977 21.814 C 15.497 21.811,15.924 21.766,17.042 21.484 C 18.892 21.020,20.502 20.239,21.857 19.150 C 23.003 18.229,24.126 17.080,25.075 15.860 C 26.109 14.531,26.300 14.170,26.185 13.762 C 26.119 13.525,25.561 12.710,24.883 11.860 C 24.406 11.262,23.008 9.779,22.625 9.465 L 22.416 9.293 21.816 9.894 M14.339 11.434 C 14.564 11.460,14.833 11.515,14.938 11.557 L 15.129 11.634 13.410 13.354 C 12.464 14.299,11.675 15.073,11.657 15.073 C 11.639 15.073,11.580 14.932,11.526 14.758 C 11.390 14.320,11.388 13.625,11.521 13.207 C 11.796 12.345,12.707 11.538,13.524 11.433 C 13.911 11.383,13.894 11.383,14.339 11.434 M15.901 15.817 C 14.566 17.165,13.500 18.277,13.517 18.304 C 13.568 18.387,14.715 18.312,15.117 18.199 C 16.900 17.699,18.155 16.195,18.350 14.327 C 18.383 14.015,18.386 13.753,18.359 13.608 L 18.317 13.380 15.901 15.817 " fill="#1A1C1F" stroke="none" fill-rule="evenodd"></path></svg>