<svg width="24" height="24" viewBox="0 0 24 24" fill="none" xmlns="http://www.w3.org/2000/svg"><path d="M11.060 5.060 C 9.933 5.215,9.286 5.411,8.300 5.897 C 7.240 6.420,6.285 7.095,5.196 8.091 C 4.298 8.912,2.257 11.215,2.096 11.589 C 2.064 11.663,2.040 11.852,2.040 12.036 L 2.040 12.355 2.276 12.668 C 2.943 13.550,4.041 14.746,5.257 15.917 C 6.049 16.679,6.543 17.084,7.240 17.543 C 8.339 18.266,9.389 18.685,10.662 18.907 C 11.214 19.003,12.729 19.002,13.300 18.906 C 15.917 18.462,18.105 16.954,20.941 13.640 C 21.893 12.527,22.057 12.237,21.964 11.822 C 21.900 11.536,21.729 11.286,21.058 10.500 C 19.021 8.114,17.459 6.769,15.720 5.904 C 14.469 5.282,13.647 5.090,11.960 5.024 C 11.647 5.012,11.310 5.025,11.060 5.060 M12.860 7.103 C 14.248 7.302,15.527 7.928,16.870 9.065 C 17.339 9.461,18.847 10.983,19.374 11.591 L 19.728 12.000 19.317 12.470 C 18.702 13.173,17.120 14.737,16.620 15.136 C 14.524 16.807,12.610 17.324,10.515 16.784 C 9.456 16.511,8.630 16.100,7.620 15.343 C 7.096 14.951,5.276 13.169,4.624 12.410 L 4.272 12.001 4.561 11.670 C 6.377 9.597,7.794 8.379,9.180 7.699 C 10.447 7.078,11.498 6.908,12.860 7.103 M11.295 9.094 C 11.040 9.159,10.542 9.393,10.290 9.566 C 9.394 10.182,8.902 11.286,9.036 12.380 C 9.196 13.691,10.368 14.856,11.627 14.956 C 12.054 14.990,12.608 14.947,12.860 14.860 C 13.385 14.680,13.724 14.474,14.076 14.120 C 14.464 13.729,14.645 13.452,14.802 13.007 C 15.091 12.187,15.051 11.470,14.672 10.680 C 14.532 10.389,14.447 10.279,14.084 9.918 C 13.728 9.563,13.606 9.469,13.320 9.329 C 13.133 9.238,12.899 9.144,12.800 9.120 C 12.507 9.050,11.532 9.033,11.295 9.094 M12.525 11.181 C 12.620 11.248,12.752 11.380,12.819 11.475 C 12.933 11.637,12.940 11.670,12.939 12.014 C 12.939 12.359,12.931 12.391,12.813 12.562 C 12.557 12.933,12.140 13.083,11.705 12.961 C 11.313 12.852,11.035 12.462,11.033 12.020 C 11.030 11.636,11.178 11.373,11.520 11.151 C 11.687 11.043,11.723 11.035,12.027 11.047 C 12.315 11.058,12.374 11.074,12.525 11.181 " fill="#1A1C1F" stroke="none" fill-rule="evenodd"></path></svg>