<svg width="16" height="16" viewBox="0 0 16 16" fill="none" xmlns="http://www.w3.org/2000/svg"><path d="M12.555 2.457 C 12.444 2.488,11.961 2.925,11.282 3.609 L 10.871 4.023 10.631 3.902 C 9.794 3.482,9.221 3.314,8.413 3.252 C 7.994 3.219,7.633 3.232,7.187 3.294 C 6.179 3.433,5.174 3.891,4.240 4.633 C 3.936 4.875,3.219 5.591,2.911 5.960 C 2.360 6.621,1.714 7.555,1.635 7.806 C 1.556 8.055,1.642 8.311,1.964 8.790 C 2.388 9.420,2.968 10.134,3.499 10.681 L 3.837 11.030 3.503 11.362 C 3.018 11.841,2.592 12.313,2.504 12.467 C 2.402 12.646,2.384 12.784,2.440 12.976 C 2.520 13.251,2.695 13.449,2.935 13.534 C 3.089 13.589,3.355 13.591,3.457 13.539 C 3.624 13.452,4.578 12.517,8.494 8.601 C 12.487 4.607,13.373 3.704,13.526 3.467 C 13.597 3.358,13.603 3.332,13.589 3.190 C 13.565 2.949,13.520 2.832,13.398 2.697 C 13.241 2.522,13.072 2.443,12.840 2.436 C 12.737 2.432,12.609 2.442,12.555 2.457 M8.803 4.922 C 9.098 4.977,9.585 5.150,9.594 5.203 C 9.599 5.229,9.375 5.478,9.025 5.836 L 8.448 6.427 8.083 6.427 C 7.670 6.427,7.491 6.462,7.248 6.591 C 6.924 6.765,6.600 7.138,6.475 7.483 C 6.405 7.678,6.381 8.048,6.426 8.272 L 6.458 8.435 5.721 9.171 L 4.984 9.907 4.760 9.674 C 4.274 9.168,3.861 8.674,3.509 8.179 L 3.381 7.999 3.481 7.853 C 3.648 7.611,4.255 6.861,4.498 6.596 C 5.367 5.649,6.493 4.987,7.411 4.881 C 7.671 4.852,8.570 4.878,8.803 4.922 M12.674 6.727 L 12.109 7.293 12.364 7.649 L 12.619 8.005 12.531 8.129 C 12.219 8.572,11.588 9.321,11.212 9.695 C 10.339 10.562,9.611 10.960,8.510 11.172 C 8.358 11.201,8.202 11.245,8.163 11.269 C 8.125 11.293,7.793 11.614,7.427 11.981 L 6.760 12.649 7.013 12.714 C 7.251 12.776,7.311 12.780,7.987 12.780 C 8.661 12.781,8.727 12.777,9.032 12.712 C 9.957 12.516,10.780 12.129,11.613 11.498 C 11.998 11.206,12.857 10.337,13.252 9.840 C 13.608 9.393,13.988 8.867,14.216 8.507 C 14.356 8.287,14.360 8.275,14.369 8.058 C 14.376 7.896,14.367 7.804,14.334 7.719 C 14.273 7.558,13.304 6.161,13.253 6.160 C 13.246 6.160,12.985 6.415,12.674 6.727 " fill="#1A1C1F" stroke="none" fill-rule="evenodd"></path></svg>