<svg width="28" height="28" viewBox="0 0 28 28" fill="none" xmlns="http://www.w3.org/2000/svg"><path d="M12.608 6.208 C 11.079 6.355,9.679 6.759,8.330 7.441 C 6.927 8.151,5.985 8.852,4.664 10.172 C 3.751 11.083,2.982 11.989,2.273 12.990 C 1.578 13.972,1.592 14.100,2.545 15.383 C 3.769 17.033,5.290 18.586,6.595 19.522 C 8.254 20.711,9.988 21.421,11.993 21.733 C 12.765 21.853,15.178 21.853,15.983 21.733 C 19.312 21.238,21.901 19.650,24.594 16.450 C 25.735 15.094,26.227 14.359,26.227 14.010 C 26.227 13.688,25.836 13.067,24.915 11.923 C 23.651 10.355,22.295 9.066,21.009 8.211 C 19.431 7.161,17.796 6.546,15.865 6.276 C 15.233 6.187,13.253 6.146,12.608 6.208 M14.817 7.979 C 15.949 8.016,16.069 8.028,16.613 8.164 C 18.253 8.575,19.693 9.281,20.930 10.281 C 21.794 10.980,23.325 12.655,24.125 13.778 L 24.282 14.000 24.126 14.222 C 23.252 15.460,21.640 17.200,20.690 17.930 C 19.289 19.007,17.375 19.813,15.727 20.019 C 15.059 20.103,13.379 20.133,12.833 20.071 C 9.526 19.693,6.948 18.078,4.237 14.685 L 3.684 13.993 3.997 13.588 C 5.337 11.854,6.717 10.500,8.027 9.637 C 9.169 8.884,10.402 8.375,11.761 8.096 C 12.546 7.935,12.974 7.918,14.817 7.979 M13.242 9.705 C 11.953 9.940,10.674 10.897,10.091 12.063 C 9.266 13.713,9.582 15.673,10.892 17.026 C 12.151 18.327,14.039 18.715,15.690 18.012 C 16.643 17.607,17.548 16.727,17.969 15.798 C 18.964 13.606,18.002 11.071,15.788 10.048 C 15.236 9.793,14.809 9.701,14.093 9.682 C 13.747 9.672,13.364 9.683,13.242 9.705 M14.583 11.486 C 15.261 11.604,15.905 12.096,16.299 12.798 L 16.520 13.191 16.521 13.981 L 16.521 14.770 16.346 15.119 C 16.099 15.609,15.590 16.121,15.120 16.350 C 14.451 16.677,13.566 16.679,12.886 16.356 C 12.421 16.135,11.903 15.615,11.654 15.120 L 11.479 14.770 11.479 13.993 L 11.480 13.216 11.654 12.873 C 11.992 12.204,12.797 11.560,13.447 11.439 C 13.681 11.395,14.177 11.416,14.583 11.486 " fill="#1A1C1F" stroke="none" fill-rule="evenodd"></path></svg>