<svg width="32" height="32" viewBox="0 0 32 32" fill="none" xmlns="http://www.w3.org/2000/svg"><path d="M14.720 7.075 C 12.579 7.280,11.089 7.696,9.387 8.563 C 7.979 9.279,6.792 10.169,5.408 11.546 C 4.395 12.555,3.784 13.260,2.890 14.453 C 1.788 15.923,1.782 16.042,2.757 17.375 C 3.783 18.779,5.356 20.521,6.424 21.436 C 8.587 23.290,10.935 24.396,13.627 24.829 C 14.350 24.946,16.334 24.988,17.464 24.912 C 19.846 24.750,22.299 23.852,24.360 22.388 C 25.993 21.227,27.871 19.274,29.426 17.120 C 30.117 16.162,30.129 15.922,29.530 15.031 C 28.505 13.506,26.716 11.529,25.248 10.298 C 22.644 8.115,19.462 7.016,15.840 7.049 C 15.327 7.053,14.823 7.065,14.720 7.075 M16.987 9.118 C 18.307 9.161,18.328 9.163,19.147 9.376 C 20.861 9.822,22.182 10.447,23.539 11.456 C 24.121 11.889,25.702 13.411,26.292 14.107 C 26.722 14.614,27.733 15.943,27.733 16.001 C 27.733 16.055,26.878 17.191,26.429 17.733 C 25.986 18.268,24.531 19.747,24.000 20.202 C 22.697 21.317,20.798 22.263,19.013 22.684 C 18.189 22.878,17.690 22.932,16.347 22.969 C 15.407 22.995,15.032 22.983,14.465 22.911 C 10.755 22.435,7.801 20.537,4.727 16.652 L 4.209 15.997 4.651 15.425 C 5.377 14.486,6.001 13.776,6.795 12.986 C 8.870 10.923,10.922 9.770,13.441 9.252 C 14.334 9.069,14.876 9.048,16.987 9.118 M15.040 11.118 C 13.407 11.469,11.992 12.634,11.387 14.123 C 10.885 15.357,10.908 16.787,11.447 18.012 C 11.807 18.830,12.604 19.738,13.387 20.224 C 15.677 21.645,18.639 20.985,20.158 18.715 C 21.272 17.049,21.242 14.767,20.084 13.151 C 19.429 12.237,18.358 11.498,17.252 11.199 C 16.702 11.051,15.549 11.008,15.040 11.118 M16.667 13.126 C 17.443 13.263,18.178 13.825,18.627 14.626 L 18.880 15.076 18.880 15.986 L 18.880 16.896 18.681 17.288 C 18.403 17.837,17.816 18.423,17.280 18.685 C 16.508 19.063,15.492 19.063,14.720 18.685 C 14.184 18.423,13.597 17.837,13.319 17.288 L 13.120 16.896 13.120 16.000 L 13.120 15.104 13.319 14.712 C 13.603 14.150,14.186 13.573,14.735 13.310 C 15.323 13.028,15.835 12.979,16.667 13.126 " fill="#1A1C1F" stroke="none" fill-rule="evenodd"></path></svg>