<svg width="14" height="14" viewBox="0 0 14 14" fill="none" xmlns="http://www.w3.org/2000/svg"><path d="M6.229 2.882 C 5.599 2.980,4.915 3.246,4.305 3.629 C 3.472 4.152,2.630 5.018,1.780 6.226 C 1.307 6.898,1.296 7.026,1.664 7.578 C 2.685 9.106,3.678 10.076,4.824 10.665 C 6.129 11.336,7.763 11.350,9.101 10.703 C 9.701 10.413,10.189 10.062,10.730 9.532 C 11.307 8.968,11.712 8.482,12.231 7.733 C 12.598 7.202,12.659 7.016,12.547 6.767 C 12.433 6.512,11.904 5.762,11.461 5.227 C 11.183 4.891,10.582 4.291,10.290 4.058 C 9.439 3.379,8.533 2.969,7.665 2.871 C 7.369 2.837,6.471 2.845,6.229 2.882 M7.256 4.249 C 7.505 4.265,7.715 4.293,7.853 4.328 C 8.856 4.583,9.803 5.343,10.837 6.725 L 11.041 6.998 10.898 7.197 C 10.112 8.285,9.317 9.049,8.593 9.412 C 8.083 9.668,7.687 9.769,7.105 9.791 C 6.673 9.808,6.335 9.763,5.953 9.638 C 4.983 9.320,4.069 8.539,3.106 7.205 L 2.959 7.001 3.067 6.849 C 3.389 6.398,3.801 5.911,4.191 5.521 C 4.597 5.115,4.994 4.827,5.482 4.583 C 5.930 4.360,6.265 4.271,6.825 4.227 C 6.851 4.225,7.044 4.235,7.256 4.249 M6.600 5.669 C 6.492 5.702,6.221 5.854,6.112 5.943 C 5.961 6.067,5.822 6.245,5.740 6.421 C 5.493 6.949,5.590 7.540,5.992 7.952 C 6.275 8.243,6.525 8.368,6.870 8.393 C 7.648 8.448,8.335 7.872,8.392 7.119 C 8.408 6.905,8.345 6.608,8.238 6.396 C 8.065 6.054,7.686 5.743,7.355 5.673 C 7.216 5.643,6.694 5.641,6.600 5.669 " fill="#1A1C1F" stroke="none" fill-rule="evenodd"></path></svg>