<svg width="20" height="20" viewBox="0 0 20 20" fill="none" xmlns="http://www.w3.org/2000/svg"><path d="M9.323 4.067 C 8.252 4.163,7.260 4.509,6.211 5.151 C 4.992 5.898,3.785 7.129,2.543 8.894 C 1.868 9.853,1.853 10.039,2.386 10.837 C 3.170 12.011,4.045 13.058,4.927 13.878 C 6.037 14.911,7.473 15.645,8.850 15.884 C 9.261 15.956,10.365 15.986,10.767 15.936 C 13.342 15.619,15.444 14.055,17.600 10.852 C 18.127 10.070,18.126 9.917,17.584 9.095 C 16.954 8.139,16.283 7.310,15.553 6.582 C 14.120 5.154,12.668 4.358,11.067 4.121 C 10.625 4.056,9.750 4.029,9.323 4.067 M10.333 6.068 C 11.343 6.140,11.981 6.359,12.833 6.925 C 13.711 7.508,14.731 8.550,15.579 9.729 L 15.774 10.001 15.599 10.242 C 14.888 11.223,13.982 12.229,13.366 12.724 C 12.605 13.335,11.784 13.739,10.928 13.923 C 10.505 14.015,9.472 14.005,9.010 13.906 C 7.448 13.570,6.133 12.552,4.568 10.465 C 4.384 10.220,4.233 10.010,4.233 10.000 C 4.233 9.965,4.955 9.022,5.216 8.717 C 5.601 8.265,6.316 7.551,6.616 7.316 C 7.226 6.842,7.933 6.451,8.548 6.250 C 8.898 6.135,9.182 6.087,9.783 6.039 C 9.820 6.036,10.067 6.049,10.333 6.068 M9.433 8.098 C 9.128 8.192,8.694 8.484,8.473 8.746 C 8.201 9.069,7.999 9.623,8.001 10.045 C 8.002 10.276,8.093 10.634,8.218 10.897 C 8.372 11.222,8.781 11.638,9.101 11.795 C 9.652 12.065,10.307 12.059,10.900 11.776 C 11.247 11.610,11.620 11.239,11.783 10.895 C 12.021 10.395,12.052 9.920,11.882 9.407 C 11.682 8.801,11.132 8.270,10.549 8.118 C 10.341 8.064,9.589 8.050,9.433 8.098 " fill="#1A1C1F" stroke="none" fill-rule="evenodd"></path></svg>