<svg width="32" height="32" viewBox="0 0 32 32" fill="none" xmlns="http://www.w3.org/2000/svg"><path d="M26.422 4.225 C 26.278 4.319,25.272 5.289,24.187 6.380 L 22.213 8.364 21.973 8.259 C 20.453 7.590,18.511 7.138,16.773 7.047 C 12.899 6.844,9.579 7.971,6.469 10.543 C 5.074 11.698,2.745 14.388,2.186 15.489 C 1.907 16.040,1.983 16.309,2.707 17.317 C 4.078 19.226,5.782 20.953,7.638 22.315 L 7.995 22.577 6.153 24.445 C 5.140 25.472,4.247 26.396,4.169 26.499 C 4.050 26.654,4.027 26.740,4.027 27.016 C 4.027 27.284,4.052 27.382,4.162 27.537 C 4.357 27.811,4.560 27.953,4.802 27.986 C 5.307 28.053,4.962 28.371,12.263 21.109 C 21.144 12.275,27.935 5.423,27.978 5.253 C 28.014 5.111,27.978 4.835,27.885 4.542 C 27.796 4.261,27.425 4.053,27.012 4.053 C 26.734 4.053,26.646 4.079,26.422 4.225 M17.680 9.122 C 18.562 9.224,20.198 9.617,20.469 9.792 L 20.590 9.872 20.478 10.016 C 20.416 10.095,20.007 10.536,19.569 10.995 L 18.774 11.830 18.254 11.568 C 17.380 11.127,17.218 11.093,15.990 11.093 C 14.989 11.093,14.901 11.102,14.516 11.230 C 13.390 11.606,12.425 12.351,11.793 13.333 C 11.520 13.757,11.220 14.482,11.124 14.950 C 11.004 15.529,11.013 16.552,11.143 17.093 C 11.259 17.576,11.553 18.307,11.734 18.561 L 11.855 18.731 10.650 19.937 L 9.444 21.142 9.066 20.884 C 7.803 20.020,6.451 18.778,5.378 17.493 C 4.795 16.796,4.214 15.983,4.257 15.926 C 4.282 15.893,4.456 15.663,4.643 15.413 C 5.570 14.180,6.970 12.688,7.893 11.949 C 9.794 10.427,11.853 9.474,13.934 9.153 C 14.531 9.061,16.969 9.041,17.680 9.122 M24.930 11.310 L 24.242 12.000 24.937 12.707 C 26.246 14.036,26.941 14.824,27.545 15.669 L 27.746 15.951 27.508 16.309 C 26.857 17.289,25.108 19.192,24.027 20.098 C 22.299 21.545,20.021 22.558,17.812 22.860 C 16.913 22.983,14.881 22.983,14.054 22.860 L 13.468 22.772 12.670 23.571 C 12.231 24.010,11.884 24.382,11.901 24.398 C 11.949 24.446,13.287 24.742,13.850 24.829 C 14.594 24.944,16.734 24.992,17.496 24.911 C 18.654 24.787,19.950 24.483,21.060 24.074 C 21.741 23.824,23.161 23.124,23.760 22.745 C 25.678 21.531,27.819 19.391,29.455 17.055 C 30.110 16.119,30.117 15.871,29.510 14.991 C 29.020 14.280,28.210 13.233,27.824 12.809 C 27.316 12.251,26.132 11.054,25.863 10.826 L 25.619 10.619 24.930 11.310 M16.387 13.068 C 16.644 13.097,16.952 13.161,17.072 13.208 L 17.290 13.296 15.325 15.261 C 14.245 16.342,13.343 17.227,13.322 17.227 C 13.301 17.227,13.234 17.065,13.173 16.867 C 13.017 16.366,13.015 15.571,13.167 15.093 C 13.491 14.077,14.522 13.184,15.503 13.070 C 15.703 13.046,15.879 13.024,15.893 13.021 C 15.908 13.017,16.130 13.038,16.387 13.068 M18.147 18.093 C 16.614 19.626,15.360 20.901,15.360 20.927 C 15.360 21.020,16.804 20.924,17.253 20.802 C 17.816 20.648,18.484 20.332,18.867 20.036 C 19.332 19.679,20.075 18.872,20.314 18.466 C 20.810 17.622,21.128 16.155,20.967 15.453 C 20.935 15.313,20.790 15.448,18.147 18.093 " fill="#1A1C1F" stroke="none" fill-rule="evenodd"></path></svg>