<svg width="16" height="16" viewBox="0 0 16 16" fill="none" xmlns="http://www.w3.org/2000/svg"><path d="M7.431 3.256 C 6.626 3.322,5.799 3.613,4.969 4.121 C 3.993 4.718,3.028 5.703,2.034 7.115 C 1.492 7.885,1.480 8.029,1.906 8.667 C 3.341 10.817,4.854 12.108,6.480 12.571 C 7.756 12.934,9.213 12.807,10.410 12.228 C 11.124 11.883,11.661 11.489,12.336 10.815 C 13.009 10.144,13.485 9.565,14.058 8.720 C 14.507 8.058,14.505 7.921,14.035 7.222 C 13.149 5.906,12.169 4.875,11.173 4.209 C 10.821 3.974,10.130 3.634,9.747 3.508 C 9.037 3.274,8.249 3.188,7.431 3.256 M8.602 4.881 C 9.193 4.941,9.868 5.234,10.512 5.708 C 11.088 6.132,11.878 6.973,12.470 7.794 L 12.619 8.001 12.451 8.234 C 11.567 9.459,10.648 10.340,9.817 10.758 C 9.189 11.074,8.706 11.187,7.973 11.187 C 7.554 11.187,7.438 11.177,7.200 11.124 C 6.544 10.978,5.903 10.660,5.321 10.190 C 5.035 9.960,4.379 9.298,4.142 9.000 C 3.880 8.672,3.387 8.018,3.387 8.000 C 3.387 7.993,3.509 7.825,3.658 7.627 C 4.661 6.289,5.500 5.553,6.514 5.121 C 7.137 4.856,7.708 4.790,8.602 4.881 M7.543 6.479 C 7.207 6.581,6.747 6.962,6.593 7.267 C 6.352 7.746,6.345 8.235,6.574 8.718 C 6.648 8.873,6.718 8.965,6.888 9.132 C 7.139 9.379,7.299 9.473,7.589 9.547 C 7.973 9.645,8.402 9.594,8.755 9.407 C 8.973 9.292,9.297 8.969,9.408 8.755 C 9.512 8.557,9.600 8.229,9.600 8.042 C 9.600 7.841,9.505 7.483,9.398 7.281 C 9.312 7.117,9.066 6.840,8.880 6.698 C 8.766 6.611,8.553 6.515,8.405 6.483 C 8.246 6.450,7.651 6.447,7.543 6.479 " fill="#1A1C1F" stroke="none" fill-rule="evenodd"></path></svg>