<svg width="24" height="24" viewBox="0 0 24 24" fill="none" xmlns="http://www.w3.org/2000/svg"><path d="M19.539 3.156 C 19.412 3.229,18.779 3.823,17.833 4.756 L 16.328 6.240 15.721 5.943 C 14.468 5.329,13.253 5.040,11.931 5.040 C 10.650 5.040,9.516 5.328,8.192 5.989 C 6.343 6.913,4.505 8.537,2.531 10.992 C 2.087 11.543,2.030 11.657,2.030 11.986 C 2.030 12.398,2.203 12.674,3.156 13.780 C 3.549 14.236,5.083 15.789,5.618 16.272 L 5.976 16.595 4.916 17.667 C 3.284 19.319,3.131 19.490,3.055 19.750 C 2.890 20.318,3.285 20.902,3.890 20.985 C 4.234 21.032,4.351 20.965,5.031 20.328 C 5.947 19.469,14.232 11.206,17.823 7.569 L 20.915 4.439 20.959 4.226 C 21.032 3.872,20.919 3.508,20.671 3.299 C 20.331 3.011,19.889 2.955,19.539 3.156 M12.460 7.079 C 12.884 7.104,13.177 7.145,13.458 7.219 C 13.925 7.342,14.653 7.619,14.719 7.699 C 14.775 7.766,14.397 8.193,13.429 9.154 L 12.811 9.768 12.576 9.719 C 12.255 9.652,11.632 9.662,11.342 9.740 C 11.211 9.775,11.004 9.859,10.882 9.928 C 10.569 10.104,10.008 10.682,9.867 10.973 C 9.647 11.428,9.579 12.093,9.703 12.571 L 9.766 12.814 8.586 13.994 L 7.406 15.174 6.944 14.764 C 6.056 13.975,4.300 12.141,4.300 12.001 C 4.300 11.837,6.682 9.409,7.360 8.882 C 8.387 8.085,9.596 7.450,10.566 7.197 C 11.157 7.042,11.500 7.021,12.460 7.079 M18.780 9.453 L 18.060 10.153 18.303 10.406 C 18.548 10.663,19.014 11.181,19.475 11.709 L 19.727 11.998 19.413 12.369 C 18.678 13.239,17.132 14.761,16.496 15.241 C 15.793 15.772,14.896 16.283,14.160 16.572 C 13.431 16.859,12.642 17.000,11.768 17.000 L 11.259 17.000 10.444 17.816 L 9.629 18.631 9.865 18.700 C 12.154 19.372,14.634 18.892,16.990 17.321 C 18.346 16.417,19.396 15.443,20.873 13.720 C 21.507 12.980,21.867 12.521,21.919 12.383 C 21.982 12.216,21.969 11.732,21.898 11.580 C 21.792 11.357,20.509 9.826,19.776 9.047 L 19.500 8.753 18.780 9.453 " fill="#1A1C1F" stroke="none" fill-rule="evenodd"></path></svg>