<svg width="16" height="16" viewBox="0 0 16 16" fill="none" xmlns="http://www.w3.org/2000/svg"><path d="M6.667 2.029 C 5.736 2.112,4.927 2.345,4.079 2.775 C 3.414 3.112,2.934 3.466,2.328 4.066 C 1.888 4.501,1.810 4.629,1.808 4.918 C 1.807 5.160,1.873 5.336,2.022 5.488 C 2.183 5.652,2.317 5.715,2.536 5.728 C 2.822 5.746,2.869 5.716,3.564 5.082 C 4.400 4.319,5.239 3.907,6.373 3.703 C 6.504 3.680,6.791 3.667,7.200 3.667 C 7.781 3.667,7.858 3.672,8.253 3.746 C 8.488 3.789,8.719 3.823,8.768 3.821 C 9.023 3.810,9.289 3.629,9.415 3.383 C 9.489 3.239,9.512 2.964,9.467 2.777 C 9.382 2.422,9.100 2.244,8.453 2.136 C 7.850 2.036,7.097 1.991,6.667 2.029 M11.047 3.673 C 10.714 3.811,10.554 4.041,10.537 4.407 C 10.529 4.588,10.536 4.632,10.597 4.754 C 10.635 4.831,10.770 5.007,10.897 5.147 C 11.024 5.286,11.225 5.520,11.342 5.667 C 12.411 7.001,12.806 8.537,12.548 10.358 C 12.487 10.785,12.493 10.997,12.571 11.163 C 12.688 11.414,12.922 11.585,13.194 11.618 C 13.487 11.652,13.819 11.455,13.956 11.165 C 14.132 10.793,14.257 9.525,14.189 8.800 C 14.009 6.887,13.326 5.373,12.063 4.090 C 11.706 3.728,11.581 3.650,11.338 3.636 C 11.210 3.629,11.128 3.640,11.047 3.673 M6.547 5.467 C 5.165 5.716,3.951 6.798,3.497 8.187 C 3.347 8.648,3.329 8.755,3.315 9.320 C 3.290 10.295,3.370 10.838,3.669 11.727 C 4.034 12.807,4.366 13.362,4.717 13.479 C 5.009 13.576,5.318 13.493,5.520 13.262 C 5.643 13.123,5.698 12.979,5.719 12.747 C 5.736 12.548,5.735 12.545,5.613 12.295 C 5.272 11.597,5.082 11.091,4.957 10.547 C 4.901 10.305,4.895 10.217,4.896 9.600 C 4.897 8.827,4.900 8.810,5.123 8.373 C 5.418 7.793,5.865 7.390,6.455 7.169 C 6.663 7.091,6.711 7.084,7.093 7.073 C 7.674 7.056,7.884 7.105,8.326 7.358 C 8.791 7.624,9.060 7.933,9.359 8.547 C 9.652 9.147,9.807 9.288,10.167 9.286 C 10.472 9.284,10.732 9.116,10.880 8.826 C 11.001 8.590,10.969 8.311,10.770 7.841 C 10.555 7.333,10.286 6.945,9.868 6.537 C 9.362 6.044,8.780 5.702,8.173 5.543 C 7.869 5.463,7.826 5.459,7.267 5.451 C 6.944 5.447,6.620 5.454,6.547 5.467 M6.828 8.725 C 6.647 8.834,6.495 9.043,6.450 9.244 C 6.422 9.370,6.425 9.426,6.475 9.676 C 6.626 10.442,7.034 11.312,7.597 12.066 C 8.077 12.710,9.159 13.638,9.747 13.911 C 10.119 14.084,10.522 13.949,10.739 13.579 C 10.794 13.486,10.812 13.414,10.821 13.250 C 10.845 12.846,10.768 12.723,10.276 12.375 C 9.028 11.492,8.497 10.811,8.040 9.507 C 7.859 8.992,7.775 8.849,7.589 8.734 C 7.472 8.662,7.431 8.652,7.216 8.645 C 6.982 8.637,6.968 8.640,6.828 8.725 " fill="#1A1C1F" stroke="none" fill-rule="evenodd"></path></svg>