<svg width="24" height="24" viewBox="0 0 24 24" fill="none" xmlns="http://www.w3.org/2000/svg"><path d="M10.980 2.067 C 9.190 2.295,8.117 2.554,6.933 3.044 C 6.373 3.276,5.452 3.739,5.235 3.898 C 5.010 4.063,4.880 4.313,4.851 4.639 C 4.832 4.843,4.845 4.909,4.937 5.097 C 5.072 5.373,5.315 5.585,5.588 5.664 C 5.777 5.719,5.822 5.719,6.043 5.662 C 6.177 5.628,6.560 5.472,6.894 5.315 C 7.227 5.159,7.698 4.953,7.940 4.859 C 8.766 4.535,9.970 4.240,10.790 4.160 C 11.399 4.101,13.310 4.112,13.800 4.178 C 15.008 4.340,16.046 4.661,17.502 5.321 C 18.394 5.725,18.481 5.748,18.786 5.660 C 18.971 5.607,19.062 5.550,19.221 5.387 C 19.536 5.062,19.609 4.653,19.423 4.253 C 19.296 3.980,19.101 3.840,18.300 3.444 C 16.677 2.641,14.982 2.176,13.322 2.079 C 12.720 2.044,11.224 2.036,10.980 2.067 M11.072 5.964 C 10.031 6.044,8.683 6.440,7.620 6.977 C 6.607 7.489,5.859 8.023,5.099 8.780 C 3.549 10.322,2.527 12.429,2.277 14.600 C 2.212 15.159,2.274 15.398,2.558 15.682 C 2.900 16.024,3.352 16.085,3.777 15.846 C 4.113 15.657,4.178 15.510,4.384 14.477 C 4.582 13.484,4.708 13.071,4.993 12.469 C 6.075 10.189,8.028 8.651,10.520 8.118 C 10.884 8.040,11.106 8.025,12.180 8.004 L 13.420 7.980 13.606 7.871 C 13.828 7.740,14.013 7.501,14.104 7.228 C 14.262 6.751,13.916 6.189,13.376 6.045 C 12.957 5.933,11.943 5.897,11.072 5.964 M16.656 7.521 C 16.499 7.569,16.178 7.850,16.091 8.015 C 16.044 8.102,16.024 8.243,16.022 8.483 C 16.020 8.790,16.031 8.842,16.128 8.989 C 16.188 9.080,16.440 9.323,16.688 9.530 C 17.771 10.433,18.429 11.241,18.944 12.303 C 19.176 12.782,19.478 13.640,19.583 14.120 C 19.680 14.567,19.676 15.060,19.572 15.260 C 19.275 15.830,18.645 15.993,18.108 15.637 C 17.867 15.478,17.752 15.243,17.582 14.569 C 17.417 13.912,17.317 13.632,17.085 13.170 C 16.519 12.044,15.663 11.196,14.513 10.620 C 13.709 10.218,13.033 10.066,12.040 10.067 C 11.294 10.067,10.799 10.138,10.220 10.326 C 8.854 10.771,7.647 11.798,6.987 13.076 C 6.722 13.590,6.596 13.934,6.473 14.483 C 6.393 14.843,6.380 15.006,6.381 15.680 C 6.383 16.509,6.422 16.808,6.623 17.510 C 7.054 19.020,7.964 20.451,9.180 21.531 C 9.605 21.909,9.725 21.967,10.082 21.967 C 10.399 21.967,10.603 21.879,10.799 21.655 C 10.983 21.445,11.047 21.266,11.049 20.955 C 11.052 20.603,10.978 20.479,10.398 19.860 C 9.802 19.224,9.570 18.932,9.282 18.459 C 8.823 17.707,8.531 16.869,8.440 16.043 C 8.358 15.295,8.465 14.738,8.825 14.033 C 9.251 13.201,10.028 12.553,10.984 12.232 C 11.233 12.149,11.332 12.140,12.000 12.140 C 12.846 12.141,12.982 12.169,13.584 12.466 C 14.058 12.700,14.434 12.990,14.773 13.381 C 15.133 13.797,15.349 14.250,15.556 15.020 C 15.849 16.112,15.991 16.420,16.400 16.855 C 16.810 17.291,17.233 17.568,17.800 17.770 C 18.124 17.885,18.889 17.912,19.305 17.822 C 20.427 17.580,21.362 16.682,21.663 15.558 C 21.762 15.185,21.753 14.386,21.643 13.849 C 21.344 12.398,20.731 11.033,19.824 9.800 C 19.309 9.101,17.983 7.854,17.486 7.603 C 17.290 7.503,16.852 7.460,16.656 7.521 M11.702 14.387 C 11.421 14.467,11.122 14.801,11.033 15.135 C 10.966 15.383,11.029 15.740,11.263 16.440 C 11.858 18.224,13.075 19.732,14.700 20.702 C 15.380 21.107,16.111 21.383,16.373 21.332 C 16.779 21.253,17.112 20.959,17.221 20.582 C 17.296 20.325,17.276 20.111,17.155 19.853 C 17.054 19.640,16.936 19.553,16.300 19.219 C 15.388 18.741,14.859 18.352,14.394 17.819 C 13.804 17.141,13.479 16.554,13.137 15.548 C 13.016 15.192,12.875 14.837,12.824 14.759 C 12.685 14.549,12.379 14.399,12.050 14.380 C 11.902 14.371,11.745 14.374,11.702 14.387 " fill="#1A1C1F" stroke="none" fill-rule="evenodd"></path></svg>