<svg width="14" height="14" viewBox="0 0 14 14" fill="none" xmlns="http://www.w3.org/2000/svg"><path d="M5.787 1.775 C 4.327 1.913,2.981 2.571,1.930 3.659 C 1.650 3.949,1.587 4.068,1.587 4.307 C 1.587 4.535,1.637 4.668,1.782 4.816 C 1.919 4.956,2.062 5.017,2.257 5.017 C 2.476 5.017,2.556 4.966,3.007 4.544 C 3.701 3.895,4.412 3.499,5.218 3.315 C 5.924 3.154,6.496 3.147,7.279 3.288 C 7.636 3.353,7.664 3.355,7.789 3.323 C 7.954 3.280,8.086 3.188,8.184 3.045 C 8.283 2.902,8.314 2.777,8.301 2.585 C 8.278 2.267,8.110 2.059,7.795 1.960 C 7.354 1.820,6.314 1.725,5.787 1.775 M9.596 3.255 C 9.335 3.386,9.217 3.585,9.217 3.892 C 9.217 4.103,9.277 4.219,9.535 4.503 C 10.255 5.298,10.628 5.930,10.862 6.754 C 11.051 7.420,11.094 8.262,10.980 9.063 C 10.922 9.468,10.930 9.625,11.015 9.797 C 11.126 10.019,11.370 10.173,11.608 10.173 C 11.923 10.173,12.202 9.916,12.293 9.541 C 12.398 9.109,12.458 8.239,12.417 7.743 C 12.280 6.078,11.668 4.710,10.555 3.579 C 10.245 3.264,10.134 3.194,9.921 3.180 C 9.777 3.170,9.752 3.176,9.596 3.255 M5.670 4.795 C 4.516 5.013,3.475 5.947,3.070 7.125 C 2.973 7.408,2.915 7.706,2.895 8.030 C 2.876 8.344,2.897 8.898,2.941 9.190 C 3.061 10.005,3.535 11.258,3.857 11.611 C 4.183 11.969,4.753 11.871,4.948 11.423 C 4.971 11.371,4.996 11.250,5.005 11.153 C 5.020 10.980,5.019 10.977,4.912 10.758 C 4.536 9.991,4.351 9.445,4.291 8.923 C 4.274 8.777,4.270 8.522,4.279 8.234 C 4.295 7.732,4.310 7.663,4.466 7.351 C 4.697 6.890,5.002 6.584,5.442 6.368 C 5.772 6.207,5.940 6.175,6.389 6.189 C 6.796 6.202,6.879 6.223,7.204 6.392 C 7.660 6.630,7.927 6.927,8.203 7.504 C 8.315 7.738,8.401 7.886,8.459 7.945 C 8.716 8.201,9.098 8.194,9.365 7.926 C 9.636 7.655,9.650 7.394,9.424 6.861 C 9.235 6.417,9.000 6.077,8.635 5.720 C 8.192 5.288,7.682 4.990,7.152 4.850 C 6.886 4.781,6.846 4.777,6.358 4.769 C 5.984 4.764,5.798 4.770,5.670 4.795 M6.067 7.577 C 5.977 7.611,5.830 7.733,5.754 7.836 C 5.580 8.074,5.588 8.313,5.791 8.932 C 6.171 10.087,6.929 11.082,8.024 11.862 C 8.647 12.306,8.932 12.349,9.263 12.049 C 9.406 11.920,9.473 11.762,9.473 11.554 C 9.473 11.213,9.414 11.126,8.956 10.802 C 7.880 10.040,7.437 9.467,7.032 8.312 C 6.963 8.115,6.892 7.925,6.873 7.889 C 6.756 7.663,6.571 7.560,6.288 7.562 C 6.186 7.563,6.086 7.570,6.067 7.577 " fill="#1A1C1F" stroke="none" fill-rule="evenodd"></path></svg>