<svg width="20" height="20" viewBox="0 0 20 20" fill="none" xmlns="http://www.w3.org/2000/svg"><path d="M8.303 2.536 C 7.601 2.600,6.716 2.795,6.109 3.018 C 5.661 3.183,4.840 3.585,4.449 3.831 C 3.943 4.149,3.460 4.540,2.927 5.067 C 2.360 5.625,2.262 5.783,2.261 6.142 C 2.259 6.428,2.313 6.601,2.462 6.790 C 2.637 7.011,2.881 7.138,3.171 7.159 C 3.486 7.182,3.650 7.095,4.133 6.645 C 4.947 5.888,5.302 5.625,5.958 5.289 C 6.807 4.855,7.552 4.650,8.578 4.568 C 9.086 4.527,9.543 4.560,10.378 4.697 C 10.909 4.785,10.963 4.788,11.133 4.745 C 11.362 4.686,11.552 4.552,11.691 4.351 C 11.821 4.162,11.866 4.010,11.866 3.762 C 11.867 3.179,11.521 2.851,10.746 2.701 C 10.015 2.560,8.881 2.483,8.303 2.536 M13.708 4.649 C 13.336 4.837,13.167 5.122,13.167 5.560 C 13.167 5.862,13.253 6.028,13.621 6.433 C 13.779 6.607,14.029 6.900,14.176 7.083 C 15.514 8.745,16.000 10.637,15.682 12.950 C 15.607 13.497,15.627 13.801,15.752 14.031 C 15.909 14.320,16.263 14.533,16.586 14.533 C 16.911 14.533,17.294 14.276,17.445 13.957 C 17.666 13.491,17.822 11.906,17.736 11.000 C 17.511 8.603,16.653 6.704,15.074 5.109 C 14.630 4.660,14.475 4.563,14.173 4.542 C 13.968 4.528,13.931 4.537,13.708 4.649 M8.183 6.834 C 6.444 7.147,4.940 8.494,4.370 10.250 C 4.156 10.908,4.150 10.955,4.151 11.983 C 4.151 13.033,4.174 13.215,4.406 14.067 C 4.675 15.051,5.185 16.227,5.487 16.564 C 5.683 16.782,5.922 16.900,6.167 16.900 C 6.713 16.900,7.101 16.519,7.150 15.933 C 7.171 15.686,7.170 15.680,7.017 15.369 C 6.594 14.506,6.353 13.865,6.196 13.183 C 6.126 12.881,6.119 12.771,6.120 12.000 C 6.121 11.045,6.126 11.018,6.384 10.500 C 6.738 9.794,7.307 9.256,7.976 8.998 C 8.335 8.860,8.504 8.833,9.020 8.833 C 9.574 8.833,9.733 8.866,10.150 9.066 C 10.541 9.253,10.739 9.390,11.028 9.675 C 11.304 9.948,11.483 10.221,11.744 10.771 C 11.883 11.066,12.001 11.265,12.084 11.348 C 12.455 11.720,13.004 11.705,13.384 11.314 C 13.767 10.920,13.786 10.563,13.463 9.801 C 13.194 9.167,12.867 8.695,12.338 8.176 C 11.710 7.559,10.978 7.129,10.217 6.929 C 9.836 6.829,9.782 6.824,9.083 6.814 C 8.680 6.808,8.275 6.817,8.183 6.834 M8.610 10.849 C 8.455 10.917,8.206 11.179,8.125 11.360 C 7.845 11.988,8.485 13.727,9.495 15.082 C 10.104 15.899,11.440 17.044,12.188 17.391 C 12.665 17.612,13.212 17.406,13.452 16.915 C 13.532 16.753,13.539 16.707,13.528 16.421 C 13.511 15.952,13.508 15.948,12.447 15.176 C 11.241 14.299,10.584 13.398,10.053 11.891 C 9.951 11.602,9.838 11.307,9.801 11.236 C 9.722 11.080,9.483 10.876,9.328 10.832 C 9.165 10.785,8.733 10.795,8.610 10.849 " fill="#1A1C1F" stroke="none" fill-rule="evenodd"></path></svg>