<svg width="32" height="32" viewBox="0 0 32 32" fill="none" xmlns="http://www.w3.org/2000/svg"><path d="M14.693 2.562 C 13.693 2.624,12.319 2.885,11.147 3.236 C 9.243 3.807,6.215 5.468,5.685 6.233 C 5.470 6.543,5.453 6.769,5.618 7.108 C 5.774 7.426,5.959 7.586,6.283 7.683 C 6.584 7.773,6.782 7.691,7.787 7.061 C 9.349 6.081,10.347 5.595,11.656 5.176 C 13.234 4.671,14.589 4.503,16.720 4.550 C 18.145 4.581,18.785 4.666,19.973 4.982 C 21.617 5.419,22.800 5.951,24.453 6.998 C 25.536 7.683,25.676 7.751,25.911 7.707 C 26.380 7.619,26.663 7.363,26.781 6.919 C 26.920 6.399,26.717 6.112,25.734 5.444 C 24.141 4.360,22.234 3.493,20.435 3.034 C 19.256 2.733,18.472 2.619,17.173 2.560 C 15.920 2.503,15.648 2.503,14.693 2.562 M15.333 6.513 C 13.449 6.674,11.999 7.067,10.422 7.845 C 7.316 9.376,4.940 12.101,3.846 15.387 C 3.336 16.920,3.205 17.824,3.202 19.829 C 3.200 20.968,3.227 21.085,3.571 21.422 C 4.037 21.877,4.817 21.718,5.112 21.109 C 5.218 20.892,5.225 20.794,5.221 19.731 C 5.215 18.313,5.290 17.651,5.577 16.597 C 6.269 14.051,7.924 11.759,10.111 10.319 C 11.094 9.671,12.345 9.108,13.381 8.846 C 14.397 8.589,15.118 8.520,16.480 8.547 C 17.607 8.569,17.738 8.583,18.640 8.769 C 19.211 8.887,19.673 8.956,19.781 8.939 C 20.263 8.864,20.627 8.377,20.569 7.885 C 20.522 7.490,20.369 7.284,19.983 7.097 C 19.193 6.715,16.674 6.399,15.333 6.513 M22.757 8.694 C 22.330 8.822,21.988 9.313,22.043 9.720 C 22.084 10.022,22.234 10.205,22.987 10.866 C 24.658 12.332,25.567 13.530,26.293 15.221 C 26.771 16.334,26.889 17.010,26.669 17.371 C 26.401 17.811,25.789 17.972,25.371 17.713 C 25.124 17.561,24.984 17.322,24.664 16.507 C 24.095 15.056,23.493 14.102,22.561 13.173 C 22.222 12.836,21.718 12.399,21.439 12.202 C 20.421 11.480,18.993 10.857,17.872 10.644 C 17.177 10.512,15.092 10.526,14.400 10.667 C 12.016 11.153,9.817 12.691,8.493 14.800 C 8.025 15.547,7.496 16.909,7.329 17.800 C 7.163 18.688,7.360 19.134,7.994 19.305 C 8.321 19.393,8.700 19.296,8.931 19.066 C 9.065 18.931,9.132 18.788,9.222 18.446 C 9.515 17.323,9.619 17.007,9.845 16.533 C 9.979 16.255,10.216 15.835,10.372 15.600 C 10.677 15.142,11.621 14.168,12.118 13.799 C 12.881 13.232,14.172 12.697,15.039 12.589 C 15.606 12.519,16.684 12.518,17.289 12.587 C 18.720 12.751,20.492 13.749,21.475 14.945 C 22.126 15.737,22.383 16.189,22.855 17.381 C 23.017 17.791,23.214 18.241,23.292 18.383 C 23.625 18.987,24.446 19.585,25.179 19.758 C 26.894 20.162,28.585 18.925,28.825 17.088 C 28.942 16.197,28.086 13.962,26.995 12.310 C 26.466 11.510,26.079 11.048,25.275 10.254 C 24.441 9.431,23.937 9.018,23.498 8.798 C 23.176 8.636,23.021 8.615,22.757 8.694 M15.274 14.556 C 14.166 14.734,13.037 15.408,12.295 16.334 C 11.485 17.345,11.150 18.446,11.227 19.840 C 11.320 21.505,12.378 24.088,13.689 25.850 C 14.621 27.103,16.483 28.887,17.359 29.368 C 17.898 29.664,18.415 29.499,18.692 28.943 C 18.838 28.650,18.858 28.464,18.770 28.230 C 18.693 28.027,18.603 27.936,17.680 27.121 C 16.727 26.280,15.880 25.412,15.420 24.809 C 14.308 23.347,13.408 21.290,13.224 19.783 C 13.040 18.285,14.093 16.859,15.614 16.549 C 15.955 16.479,16.112 16.474,16.520 16.522 C 17.083 16.587,17.440 16.730,17.948 17.092 C 18.521 17.501,18.766 17.906,19.206 19.170 C 19.796 20.863,20.411 21.712,21.612 22.491 C 22.052 22.776,22.470 22.957,23.490 23.302 C 23.921 23.448,24.383 23.632,24.517 23.710 C 24.651 23.788,25.029 24.110,25.358 24.424 C 25.985 25.025,26.116 25.096,26.457 25.018 C 26.996 24.896,27.305 24.525,27.306 23.997 C 27.307 23.756,27.039 23.315,26.625 22.875 C 25.905 22.109,25.426 21.832,24.016 21.364 C 22.994 21.025,22.646 20.833,22.145 20.332 C 21.570 19.757,21.443 19.520,21.005 18.215 C 20.857 17.774,20.653 17.263,20.552 17.080 C 19.944 15.980,18.725 15.002,17.545 14.667 C 17.101 14.542,15.771 14.476,15.274 14.556 M15.873 18.530 C 15.589 18.634,15.316 18.913,15.247 19.171 C 15.164 19.477,15.224 19.860,15.474 20.632 C 16.479 23.731,18.737 25.966,21.893 26.986 C 22.973 27.335,23.442 27.294,23.787 26.818 C 24.077 26.417,24.039 25.959,23.684 25.604 C 23.509 25.429,23.361 25.360,22.633 25.118 C 21.107 24.611,20.101 24.003,19.162 23.020 C 18.276 22.094,17.751 21.176,17.308 19.776 C 17.172 19.345,17.011 18.931,16.952 18.855 C 16.718 18.557,16.214 18.406,15.873 18.530 M8.192 21.229 C 7.853 21.330,7.573 21.732,7.573 22.119 C 7.573 22.756,8.431 24.804,9.167 25.922 C 9.663 26.677,10.172 27.023,10.578 26.882 C 11.024 26.726,11.360 26.316,11.360 25.928 C 11.360 25.734,11.302 25.612,10.716 24.557 C 10.273 23.762,9.837 22.835,9.615 22.216 C 9.379 21.559,9.303 21.446,8.997 21.303 C 8.712 21.171,8.463 21.148,8.192 21.229 " fill="#1A1C1F" stroke="none" fill-rule="evenodd"></path></svg>