<svg width="12" height="12" viewBox="0 0 12 12" fill="none" xmlns="http://www.w3.org/2000/svg"><path d="M4.980 1.522 C 3.919 1.623,2.904 2.039,2.120 2.696 C 1.811 2.955,1.467 3.319,1.406 3.452 C 1.329 3.622,1.333 3.796,1.418 3.969 C 1.526 4.188,1.703 4.300,1.939 4.300 C 2.126 4.299,2.186 4.260,2.646 3.837 C 3.017 3.496,3.235 3.343,3.632 3.144 C 4.110 2.905,4.550 2.788,5.147 2.740 C 5.452 2.716,5.727 2.736,6.227 2.818 C 6.545 2.871,6.578 2.873,6.680 2.847 C 6.817 2.812,6.931 2.731,7.014 2.611 C 7.092 2.498,7.120 2.406,7.120 2.259 C 7.120 1.905,6.916 1.711,6.448 1.621 C 6.006 1.535,5.326 1.490,4.980 1.522 M8.319 2.739 C 8.172 2.783,8.032 2.898,7.966 3.027 C 7.925 3.106,7.911 3.169,7.904 3.295 C 7.896 3.442,7.900 3.470,7.947 3.565 C 7.976 3.623,8.085 3.764,8.190 3.880 C 8.735 4.479,9.041 4.977,9.248 5.600 C 9.342 5.883,9.403 6.149,9.441 6.450 C 9.478 6.735,9.468 7.321,9.421 7.686 C 9.363 8.129,9.366 8.241,9.438 8.393 C 9.528 8.582,9.743 8.720,9.950 8.720 C 10.116 8.720,10.316 8.615,10.410 8.480 C 10.521 8.320,10.605 7.915,10.643 7.358 C 10.733 6.034,10.307 4.623,9.506 3.590 C 9.129 3.105,8.784 2.781,8.600 2.742 C 8.485 2.717,8.394 2.716,8.319 2.739 M4.832 4.120 C 4.239 4.245,3.749 4.522,3.317 4.976 C 2.920 5.393,2.610 6.009,2.507 6.586 C 2.455 6.875,2.461 7.535,2.518 7.865 C 2.603 8.356,2.721 8.773,2.884 9.160 C 3.017 9.476,3.237 9.888,3.316 9.969 C 3.525 10.186,3.860 10.198,4.088 9.998 C 4.197 9.902,4.279 9.743,4.294 9.597 C 4.307 9.467,4.267 9.347,4.072 8.925 C 3.914 8.583,3.803 8.268,3.727 7.947 C 3.673 7.719,3.671 7.690,3.671 7.200 C 3.672 6.621,3.674 6.609,3.842 6.280 C 4.063 5.846,4.395 5.546,4.841 5.376 C 5.009 5.312,5.011 5.311,5.390 5.311 C 5.812 5.310,5.866 5.320,6.130 5.454 C 6.324 5.552,6.428 5.626,6.587 5.779 C 6.781 5.965,6.848 6.063,7.040 6.449 C 7.203 6.776,7.215 6.793,7.320 6.865 C 7.544 7.018,7.772 7.007,7.985 6.833 C 8.208 6.651,8.264 6.401,8.153 6.075 C 8.090 5.889,7.928 5.560,7.810 5.380 C 7.642 5.121,7.229 4.709,6.959 4.531 C 6.659 4.333,6.255 4.171,5.912 4.111 C 5.653 4.066,5.067 4.071,4.832 4.120 M5.164 6.512 C 5.071 6.553,4.924 6.706,4.878 6.809 C 4.791 7.006,4.812 7.190,4.974 7.685 C 5.229 8.462,5.739 9.216,6.396 9.785 C 6.783 10.122,7.220 10.416,7.417 10.473 C 7.652 10.541,7.915 10.422,8.055 10.183 C 8.100 10.106,8.110 10.063,8.117 9.907 C 8.130 9.609,8.083 9.545,7.610 9.210 C 6.754 8.604,6.368 8.095,6.028 7.125 C 5.969 6.957,5.903 6.785,5.881 6.742 C 5.833 6.648,5.690 6.526,5.597 6.499 C 5.499 6.471,5.240 6.479,5.164 6.512 " fill="#1A1C1F" stroke="none" fill-rule="evenodd"></path></svg>