<svg width="28" height="28" viewBox="0 0 28 28" fill="none" xmlns="http://www.w3.org/2000/svg"><path d="M12.833 2.243 C 11.977 2.299,10.719 2.539,9.757 2.829 C 8.411 3.236,6.494 4.208,5.420 5.029 C 4.835 5.475,4.704 5.786,4.916 6.219 C 5.052 6.498,5.214 6.638,5.498 6.723 C 5.760 6.802,5.935 6.730,6.802 6.186 C 7.743 5.596,8.245 5.317,8.873 5.037 C 10.077 4.498,11.603 4.096,12.763 4.011 C 13.525 3.955,14.985 3.956,15.610 4.014 C 17.502 4.188,19.451 4.893,21.333 6.082 C 22.537 6.843,22.537 6.843,22.941 6.655 C 23.213 6.528,23.352 6.359,23.434 6.054 C 23.555 5.599,23.377 5.347,22.517 4.764 C 20.731 3.552,18.643 2.712,16.586 2.378 C 15.658 2.227,13.988 2.167,12.833 2.243 M12.763 5.763 C 11.369 5.962,10.320 6.279,9.118 6.864 C 5.999 8.382,3.696 11.360,3.011 14.759 C 2.849 15.563,2.803 16.095,2.801 17.177 C 2.800 18.223,2.845 18.463,3.090 18.701 C 3.521 19.117,4.094 19.059,4.420 18.567 L 4.550 18.370 4.555 17.433 C 4.557 16.918,4.575 16.318,4.594 16.100 C 4.778 13.994,5.740 11.920,7.253 10.367 C 8.083 9.514,8.866 8.943,9.914 8.427 C 11.450 7.670,12.596 7.433,14.503 7.478 C 15.386 7.498,15.543 7.515,16.310 7.674 C 17.228 7.863,17.367 7.863,17.651 7.675 C 18.003 7.442,18.103 6.971,17.889 6.548 C 17.731 6.236,17.064 5.992,15.867 5.808 C 15.176 5.702,13.377 5.676,12.763 5.763 M19.903 7.610 C 19.678 7.676,19.428 7.914,19.339 8.149 C 19.269 8.333,19.265 8.394,19.313 8.575 C 19.384 8.840,19.484 8.963,19.950 9.358 C 21.567 10.731,22.618 12.167,23.212 13.816 C 23.420 14.395,23.487 14.757,23.427 14.978 C 23.334 15.326,22.835 15.671,22.504 15.617 C 22.103 15.552,21.893 15.292,21.602 14.499 C 20.733 12.132,18.986 10.396,16.667 9.594 C 15.804 9.295,15.414 9.240,14.163 9.240 C 12.911 9.240,12.520 9.295,11.660 9.594 C 9.899 10.206,8.414 11.384,7.432 12.950 C 7.026 13.597,6.564 14.778,6.409 15.566 C 6.283 16.212,6.414 16.638,6.801 16.829 C 7.194 17.023,7.756 16.868,7.936 16.515 C 7.983 16.422,8.087 16.090,8.166 15.777 C 8.464 14.596,8.845 13.847,9.553 13.056 C 10.414 12.093,11.475 11.417,12.596 11.118 C 13.013 11.007,13.117 10.999,14.140 10.996 C 15.377 10.993,15.546 11.020,16.356 11.344 C 17.177 11.674,17.772 12.064,18.429 12.706 C 19.162 13.423,19.483 13.934,19.992 15.202 C 20.157 15.613,20.349 16.039,20.417 16.147 C 20.728 16.639,21.203 17.014,21.765 17.209 C 22.162 17.347,22.884 17.377,23.263 17.272 C 23.590 17.181,24.063 16.927,24.322 16.705 C 24.835 16.265,25.211 15.449,25.213 14.770 C 25.217 13.630,24.208 11.429,22.977 9.893 C 22.294 9.042,21.128 7.982,20.561 7.698 C 20.277 7.556,20.146 7.538,19.903 7.610 M13.364 12.737 C 11.841 12.981,10.503 14.163,9.987 15.722 C 9.754 16.425,9.755 17.521,9.991 18.421 C 10.449 20.176,11.283 21.813,12.408 23.165 C 13.325 24.267,14.941 25.670,15.451 25.808 C 15.975 25.949,16.559 25.366,16.454 24.807 C 16.412 24.584,16.292 24.453,15.475 23.733 C 14.640 22.998,13.897 22.239,13.493 21.708 C 12.518 20.427,11.748 18.666,11.572 17.313 C 11.403 16.009,12.332 14.752,13.665 14.479 C 13.960 14.419,14.099 14.415,14.455 14.456 C 14.949 14.514,15.260 14.639,15.709 14.959 C 16.222 15.325,16.433 15.679,16.821 16.823 C 17.179 17.883,17.528 18.463,18.183 19.090 C 18.795 19.676,19.438 20.030,20.510 20.371 C 20.869 20.486,21.271 20.642,21.403 20.718 C 21.535 20.794,21.884 21.085,22.178 21.364 C 22.739 21.897,22.853 21.958,23.150 21.891 C 23.499 21.812,23.699 21.654,23.822 21.361 C 23.987 20.965,23.843 20.596,23.297 20.015 C 22.667 19.345,22.248 19.103,21.014 18.694 C 20.122 18.398,19.835 18.239,19.386 17.796 C 18.877 17.293,18.764 17.086,18.380 15.939 C 18.250 15.553,18.072 15.105,17.983 14.945 C 17.451 13.982,16.385 13.127,15.352 12.834 C 14.963 12.724,13.799 12.667,13.364 12.737 M13.889 16.214 C 13.641 16.304,13.402 16.549,13.341 16.775 C 13.312 16.880,13.303 17.077,13.320 17.220 C 13.358 17.545,13.708 18.598,13.950 19.114 C 14.957 21.263,16.792 22.848,19.157 23.613 C 20.101 23.919,20.512 23.882,20.814 23.466 C 21.066 23.117,21.034 22.714,20.727 22.407 C 20.580 22.260,20.439 22.194,19.816 21.984 C 18.929 21.684,18.466 21.465,17.861 21.063 C 16.500 20.159,15.621 18.908,15.076 17.098 C 14.917 16.574,14.820 16.419,14.565 16.289 C 14.316 16.162,14.097 16.138,13.889 16.214 M7.117 18.615 C 6.792 18.765,6.627 19.016,6.627 19.359 C 6.627 20.098,7.779 22.559,8.430 23.209 C 8.785 23.564,9.045 23.627,9.408 23.450 C 9.711 23.302,9.894 23.059,9.927 22.759 C 9.953 22.530,9.940 22.499,9.394 21.521 C 9.013 20.838,8.603 19.967,8.416 19.446 C 8.213 18.881,8.142 18.773,7.887 18.644 C 7.614 18.505,7.374 18.496,7.117 18.615 " fill="#1A1C1F" stroke="none" fill-rule="evenodd"></path></svg>