<svg width="24" height="24" viewBox="0 0 24 24" fill="none" xmlns="http://www.w3.org/2000/svg"><path d="M17.567 2.120 C 17.368 2.211,16.791 2.771,12.700 6.847 L 9.940 9.596 9.660 9.529 C 9.431 9.473,9.189 9.462,8.320 9.465 C 7.185 9.469,7.040 9.486,6.426 9.688 C 5.359 10.038,4.291 10.734,3.596 11.531 C 2.440 12.856,1.899 14.481,2.038 16.210 C 2.105 17.044,2.298 17.720,2.700 18.529 C 3.019 19.170,3.280 19.523,3.879 20.121 C 4.672 20.914,5.323 21.324,6.320 21.657 C 7.082 21.911,7.468 21.970,8.360 21.970 C 8.969 21.969,9.174 21.953,9.518 21.881 C 10.399 21.694,11.332 21.280,12.020 20.771 C 12.218 20.625,12.560 20.322,12.780 20.099 C 13.633 19.235,14.121 18.351,14.448 17.080 C 14.564 16.631,14.567 16.597,14.563 15.680 C 14.561 14.936,14.545 14.669,14.488 14.400 L 14.416 14.060 15.513 12.940 C 16.117 12.324,16.636 11.766,16.667 11.700 C 16.697 11.634,16.792 11.294,16.877 10.945 C 16.963 10.595,17.054 10.296,17.080 10.280 C 17.106 10.264,17.320 10.209,17.554 10.158 C 18.423 9.970,18.748 9.810,18.881 9.504 C 18.920 9.414,19.020 9.050,19.104 8.695 L 19.255 8.050 19.838 7.922 C 20.158 7.851,20.512 7.752,20.625 7.701 C 20.833 7.608,21.444 7.038,21.777 6.628 C 21.930 6.440,21.934 6.427,21.970 5.988 C 21.990 5.742,21.999 4.919,21.990 4.160 C 21.976 2.936,21.966 2.763,21.902 2.629 C 21.808 2.432,21.472 2.133,21.287 2.081 C 21.197 2.056,20.474 2.041,19.440 2.041 C 17.837 2.042,17.730 2.046,17.567 2.120 M20.000 4.813 L 20.000 5.625 19.888 5.732 C 19.737 5.877,19.566 5.929,18.540 6.141 C 18.056 6.241,17.632 6.331,17.598 6.341 C 17.558 6.354,17.514 6.472,17.469 6.690 C 17.431 6.872,17.344 7.283,17.276 7.604 L 17.151 8.188 16.245 8.380 C 15.747 8.486,15.335 8.576,15.329 8.580 C 15.323 8.585,15.217 9.073,15.094 9.664 L 14.869 10.740 13.530 12.092 C 12.311 13.324,12.193 13.454,12.214 13.552 C 12.226 13.612,12.300 13.929,12.378 14.259 C 12.579 15.111,12.627 15.583,12.568 16.114 C 12.503 16.693,12.397 17.059,12.140 17.580 C 11.597 18.684,10.747 19.414,9.544 19.808 L 9.140 19.940 8.300 19.939 L 7.460 19.939 7.060 19.805 C 6.276 19.543,5.827 19.259,5.235 18.653 C 4.689 18.094,4.360 17.515,4.149 16.743 C 4.071 16.461,4.060 16.325,4.062 15.660 C 4.064 14.950,4.071 14.876,4.173 14.540 C 4.546 13.313,5.353 12.354,6.460 11.822 C 7.056 11.535,7.516 11.433,8.220 11.432 C 8.811 11.431,9.265 11.496,10.025 11.693 L 10.551 11.829 14.465 7.915 L 18.380 4.000 19.190 4.000 L 20.000 4.000 20.000 4.813 M8.011 14.162 C 7.724 14.219,7.488 14.347,7.245 14.578 C 6.609 15.185,6.570 16.065,7.151 16.720 C 7.493 17.105,8.078 17.332,8.519 17.250 C 9.029 17.155,9.525 16.783,9.748 16.327 C 9.849 16.123,9.860 16.059,9.858 15.697 C 9.856 15.339,9.844 15.268,9.744 15.064 C 9.613 14.796,9.284 14.444,9.058 14.330 C 8.896 14.248,8.381 14.117,8.252 14.124 C 8.212 14.127,8.104 14.144,8.011 14.162 " fill="#1A1C1F" stroke="none" fill-rule="evenodd"></path></svg>