<svg width="20" height="20" viewBox="0 0 20 20" fill="none" xmlns="http://www.w3.org/2000/svg"><path d="M13.068 2.156 C 13.005 2.165,12.907 2.203,12.851 2.242 C 12.625 2.399,11.948 3.052,9.883 5.104 L 7.717 7.257 7.229 7.279 C 6.690 7.302,6.075 7.395,5.717 7.508 C 5.588 7.548,5.266 7.689,5.000 7.820 C 4.084 8.274,3.493 8.788,2.907 9.643 C 2.510 10.223,2.196 10.986,2.084 11.646 C 2.014 12.056,2.015 13.162,2.086 13.534 C 2.211 14.198,2.577 15.058,2.972 15.616 C 3.234 15.988,3.894 16.652,4.257 16.910 C 4.967 17.415,5.852 17.747,6.799 17.865 C 7.964 18.010,9.387 17.622,10.431 16.875 C 10.834 16.588,11.354 16.067,11.642 15.665 C 12.032 15.120,12.360 14.382,12.502 13.731 C 12.634 13.128,12.648 12.131,12.534 11.534 L 12.499 11.352 13.023 10.827 C 13.531 10.318,13.553 10.301,13.732 10.265 C 14.434 10.125,15.033 9.987,15.181 9.931 C 15.391 9.853,15.605 9.677,15.679 9.522 C 15.762 9.347,15.826 9.062,15.901 8.533 C 15.946 8.218,15.986 8.037,16.018 8.013 C 16.044 7.993,16.227 7.958,16.425 7.935 C 16.937 7.876,17.294 7.804,17.431 7.734 C 17.595 7.650,17.819 7.416,17.909 7.235 C 17.977 7.096,17.983 7.040,17.977 6.583 C 17.966 5.615,17.807 3.224,17.730 2.864 C 17.684 2.653,17.436 2.347,17.218 2.235 L 17.052 2.150 15.118 2.145 C 14.054 2.143,13.131 2.147,13.068 2.156 M15.847 4.458 C 15.886 5.076,15.929 5.949,15.921 5.956 C 15.918 5.960,15.523 6.012,15.044 6.070 L 14.173 6.178 14.138 6.414 C 14.118 6.544,14.063 6.980,14.014 7.383 C 13.965 7.787,13.921 8.133,13.916 8.153 C 13.910 8.174,13.608 8.248,13.245 8.318 L 12.583 8.446 11.441 9.581 L 10.300 10.717 10.396 11.167 C 10.580 12.024,10.611 12.271,10.590 12.763 C 10.568 13.300,10.500 13.577,10.278 14.017 C 10.004 14.562,9.630 15.008,9.204 15.297 C 7.851 16.216,6.073 16.038,4.958 14.871 C 4.661 14.560,4.536 14.383,4.349 14.005 C 4.093 13.487,4.055 13.308,4.053 12.583 C 4.051 12.074,4.062 11.908,4.109 11.736 C 4.353 10.851,5.039 10.017,5.850 9.617 C 6.429 9.332,6.938 9.255,7.909 9.309 L 8.435 9.337 11.076 6.719 L 13.717 4.101 14.771 4.101 L 15.825 4.100 15.847 4.458 M6.979 11.101 C 6.587 11.179,6.160 11.519,5.970 11.904 C 5.564 12.729,5.954 13.688,6.826 14.007 C 7.102 14.109,7.578 14.107,7.841 14.004 C 8.848 13.608,9.153 12.344,8.433 11.556 C 8.092 11.183,7.500 10.998,6.979 11.101 " fill="#1A1C1F" stroke="none" fill-rule="evenodd"></path></svg>