<svg width="16" height="16" viewBox="0 0 16 16" fill="none" xmlns="http://www.w3.org/2000/svg"><path d="M10.455 1.725 C 10.404 1.732,10.326 1.763,10.281 1.794 C 10.099 1.920,9.555 2.444,7.905 4.087 L 6.169 5.813 5.971 5.813 C 5.539 5.813,4.866 5.909,4.539 6.016 C 4.320 6.088,3.704 6.397,3.481 6.547 C 3.027 6.852,2.644 7.243,2.306 7.747 C 1.989 8.220,1.783 8.715,1.678 9.258 C 1.613 9.590,1.607 10.388,1.666 10.777 C 1.749 11.329,2.062 12.067,2.413 12.540 C 3.175 13.566,4.252 14.177,5.507 14.295 C 6.049 14.346,6.663 14.269,7.232 14.078 C 8.629 13.610,9.707 12.390,10.014 10.929 C 10.110 10.471,10.120 9.782,10.036 9.309 L 9.997 9.084 10.417 8.663 C 10.825 8.254,10.842 8.241,10.986 8.212 C 11.547 8.100,12.026 7.989,12.145 7.945 C 12.313 7.882,12.484 7.741,12.543 7.617 C 12.609 7.477,12.661 7.250,12.721 6.827 C 12.758 6.563,12.788 6.430,12.816 6.409 C 12.839 6.392,12.931 6.370,13.022 6.360 C 13.411 6.319,13.749 6.260,13.877 6.212 C 14.119 6.122,14.355 5.825,14.390 5.567 C 14.414 5.385,14.272 2.924,14.211 2.468 C 14.195 2.351,14.167 2.219,14.148 2.174 C 14.093 2.044,13.903 1.850,13.766 1.782 L 13.640 1.720 12.093 1.716 C 11.243 1.714,10.505 1.718,10.455 1.725 M12.678 3.567 C 12.708 4.061,12.743 4.759,12.737 4.765 C 12.734 4.768,12.418 4.809,12.035 4.856 L 11.338 4.942 11.319 5.064 C 11.309 5.132,11.262 5.493,11.215 5.867 L 11.130 6.547 10.588 6.657 L 10.046 6.768 9.144 7.670 L 8.242 8.573 8.352 9.093 C 8.455 9.585,8.461 9.639,8.464 10.093 C 8.467 10.651,8.439 10.779,8.209 11.240 C 7.927 11.808,7.534 12.195,6.978 12.453 C 6.401 12.722,5.783 12.776,5.161 12.612 C 4.298 12.385,3.578 11.672,3.305 10.775 C 3.252 10.601,3.245 10.515,3.243 10.068 C 3.240 9.485,3.260 9.376,3.455 8.964 C 3.599 8.658,3.762 8.427,4.001 8.188 C 4.608 7.581,5.238 7.381,6.338 7.446 L 6.748 7.470 8.860 5.376 L 10.973 3.281 11.817 3.280 L 12.660 3.280 12.678 3.567 M5.598 8.880 C 5.283 8.934,4.930 9.211,4.774 9.529 C 4.452 10.183,4.766 10.951,5.460 11.206 C 5.682 11.287,6.063 11.286,6.273 11.203 C 6.716 11.029,7.023 10.615,7.059 10.144 C 7.120 9.349,6.418 8.741,5.598 8.880 " fill="#1A1C1F" stroke="none" fill-rule="evenodd"></path></svg>