<svg width="12" height="12" viewBox="0 0 12 12" fill="none" xmlns="http://www.w3.org/2000/svg"><path d="M7.831 1.294 C 7.799 1.299,7.732 1.331,7.683 1.365 C 7.571 1.442,6.568 2.418,5.470 3.518 L 4.630 4.360 4.490 4.360 C 4.299 4.360,3.925 4.395,3.725 4.431 C 3.403 4.490,2.949 4.686,2.600 4.916 C 2.403 5.047,2.028 5.403,1.872 5.607 C 1.477 6.125,1.259 6.685,1.220 7.281 C 1.179 7.922,1.269 8.392,1.541 8.950 C 1.605 9.082,1.694 9.245,1.738 9.312 C 1.919 9.585,2.355 10.021,2.628 10.202 C 2.793 10.312,3.195 10.504,3.390 10.568 C 4.060 10.786,4.711 10.787,5.370 10.571 C 6.788 10.106,7.669 8.790,7.561 7.300 C 7.550 7.151,7.532 6.981,7.520 6.920 L 7.499 6.811 7.815 6.496 L 8.130 6.181 8.521 6.101 C 9.130 5.977,9.254 5.927,9.370 5.759 C 9.450 5.645,9.473 5.561,9.531 5.168 C 9.560 4.971,9.592 4.805,9.603 4.799 C 9.613 4.792,9.717 4.776,9.835 4.762 C 10.165 4.724,10.376 4.683,10.457 4.642 C 10.619 4.559,10.769 4.350,10.792 4.175 C 10.813 4.022,10.695 2.053,10.650 1.793 C 10.620 1.619,10.564 1.521,10.432 1.408 C 10.388 1.371,10.321 1.329,10.281 1.317 C 10.210 1.294,7.962 1.273,7.831 1.294 M9.508 2.675 C 9.531 3.046,9.557 3.569,9.553 3.574 C 9.551 3.576,9.313 3.607,9.026 3.642 L 8.504 3.707 8.489 3.798 C 8.482 3.849,8.447 4.120,8.411 4.400 L 8.347 4.910 7.941 4.993 L 7.535 5.076 6.955 5.653 C 6.637 5.970,6.334 6.280,6.282 6.341 L 6.188 6.453 6.267 6.831 C 6.341 7.186,6.347 7.232,6.348 7.560 C 6.350 7.969,6.332 8.054,6.179 8.377 C 5.918 8.926,5.503 9.289,4.953 9.448 C 4.236 9.656,3.485 9.457,2.975 8.922 C 2.797 8.736,2.722 8.630,2.610 8.403 C 2.456 8.094,2.434 7.987,2.432 7.551 C 2.430 7.120,2.446 7.033,2.581 6.744 C 2.785 6.306,3.114 5.964,3.524 5.764 C 3.863 5.599,4.177 5.552,4.735 5.584 L 5.061 5.603 6.645 4.032 L 8.230 2.461 8.862 2.460 L 9.495 2.460 9.508 2.675 M4.180 6.668 C 3.829 6.746,3.552 7.050,3.495 7.419 C 3.429 7.841,3.680 8.252,4.097 8.406 C 4.260 8.466,4.547 8.465,4.705 8.402 C 5.037 8.272,5.267 7.961,5.294 7.608 C 5.329 7.159,5.030 6.764,4.585 6.669 C 4.424 6.635,4.328 6.635,4.180 6.668 " fill="#1A1C1F" stroke="none" fill-rule="evenodd"></path></svg>