<svg width="28" height="28" viewBox="0 0 28 28" fill="none" xmlns="http://www.w3.org/2000/svg"><path d="M21.602 1.817 L 20.827 1.843 20.622 2.024 C 20.509 2.124,18.780 3.814,16.780 5.781 C 14.780 7.748,12.760 9.731,12.289 10.189 L 11.435 11.021 10.879 10.942 C 10.442 10.880,10.094 10.868,9.234 10.884 C 8.231 10.902,8.104 10.914,7.653 11.032 C 6.687 11.285,5.761 11.718,4.939 12.301 C 4.419 12.670,3.549 13.547,3.163 14.093 C 2.527 14.991,2.061 16.141,1.866 17.290 C 1.777 17.813,1.767 18.012,1.787 18.737 C 1.814 19.673,1.899 20.172,2.174 20.995 C 2.923 23.243,4.753 25.072,7.007 25.824 C 7.940 26.135,8.350 26.198,9.450 26.201 C 10.576 26.204,10.963 26.147,11.875 25.848 C 13.209 25.410,14.259 24.717,15.224 23.637 C 16.242 22.498,16.838 21.223,17.134 19.553 C 17.256 18.863,17.195 17.533,17.008 16.800 L 16.942 16.543 17.822 15.657 C 18.305 15.169,18.925 14.530,19.198 14.236 C 19.759 13.633,19.766 13.617,20.000 12.537 C 20.093 12.108,20.151 11.930,20.211 11.898 C 20.256 11.874,20.594 11.789,20.961 11.709 C 22.266 11.427,22.393 11.300,22.702 9.963 C 22.797 9.553,22.888 9.202,22.906 9.184 C 22.923 9.167,23.301 9.067,23.747 8.964 C 24.370 8.819,24.597 8.746,24.727 8.649 C 25.007 8.439,26.025 7.396,26.116 7.227 C 26.194 7.083,26.203 6.888,26.218 4.877 L 26.234 2.683 26.052 2.403 C 25.813 2.036,25.574 1.873,25.193 1.818 C 24.883 1.773,22.928 1.773,21.602 1.817 M24.500 4.983 L 24.500 6.466 24.138 6.822 L 23.777 7.178 22.587 7.419 C 21.933 7.552,21.394 7.664,21.390 7.668 C 21.386 7.673,21.317 7.992,21.236 8.377 C 21.156 8.762,21.047 9.260,20.994 9.485 L 20.899 9.893 20.658 9.963 C 20.525 10.001,20.112 10.096,19.740 10.175 C 18.819 10.369,18.722 10.397,18.672 10.491 C 18.628 10.573,18.364 11.730,18.221 12.465 L 18.143 12.867 16.568 14.442 L 14.993 16.017 15.169 16.700 C 15.322 17.292,15.350 17.483,15.378 18.130 C 15.435 19.423,15.297 20.180,14.837 21.103 C 14.110 22.557,12.892 23.651,11.426 24.166 C 10.728 24.411,10.372 24.466,9.497 24.466 C 8.593 24.466,8.264 24.412,7.458 24.128 C 6.630 23.836,6.020 23.447,5.338 22.775 C 4.503 21.952,3.980 21.058,3.702 19.977 C 3.561 19.428,3.507 18.355,3.588 17.702 C 3.741 16.462,4.351 15.240,5.271 14.327 C 5.777 13.824,6.232 13.495,6.839 13.193 C 7.755 12.735,8.340 12.600,9.397 12.600 C 10.170 12.600,10.673 12.666,11.464 12.870 L 11.976 13.002 16.756 8.253 L 21.537 3.504 23.018 3.502 L 24.500 3.500 24.500 4.983 M8.649 16.800 C 8.334 16.957,7.985 17.278,7.817 17.565 C 7.677 17.804,7.560 18.244,7.560 18.532 C 7.560 18.798,7.693 19.244,7.855 19.519 C 8.227 20.155,9.029 20.527,9.758 20.402 C 10.430 20.287,10.913 19.933,11.203 19.344 C 11.352 19.042,11.363 18.986,11.363 18.574 C 11.363 17.864,11.133 17.388,10.594 16.983 C 10.269 16.738,9.979 16.660,9.402 16.660 C 8.969 16.660,8.904 16.672,8.649 16.800 " fill="#1A1C1F" stroke="none" fill-rule="evenodd"></path></svg>