<svg width="14" height="14" viewBox="0 0 14 14" fill="none" xmlns="http://www.w3.org/2000/svg"><path d="M9.129 1.516 C 9.087 1.526,9.012 1.561,8.961 1.595 C 8.843 1.673,7.647 2.836,6.393 4.093 L 5.402 5.087 5.238 5.087 C 4.797 5.087,4.264 5.166,3.949 5.277 C 2.808 5.680,1.939 6.563,1.579 7.688 C 1.328 8.471,1.351 9.346,1.642 10.099 C 1.884 10.725,2.187 11.155,2.726 11.633 C 3.539 12.354,4.755 12.672,5.845 12.448 C 7.313 12.145,8.457 11.014,8.763 9.563 C 8.847 9.159,8.852 8.448,8.771 8.074 L 8.745 7.951 9.114 7.581 C 9.472 7.222,9.487 7.210,9.612 7.185 C 10.109 7.086,10.525 6.990,10.637 6.949 C 10.814 6.884,10.974 6.720,11.025 6.552 C 11.054 6.454,11.177 5.723,11.177 5.643 C 11.177 5.606,11.265 5.580,11.492 5.554 C 11.866 5.510,12.107 5.462,12.199 5.415 C 12.316 5.355,12.473 5.192,12.536 5.064 C 12.584 4.967,12.588 4.928,12.584 4.608 C 12.580 4.232,12.497 2.759,12.458 2.358 C 12.422 1.992,12.397 1.904,12.294 1.773 C 12.148 1.588,12.057 1.540,11.803 1.516 C 11.540 1.490,9.237 1.491,9.129 1.516 M11.092 3.109 C 11.125 3.611,11.153 4.162,11.147 4.168 C 11.143 4.171,10.866 4.208,10.530 4.249 L 9.921 4.324 9.904 4.431 C 9.895 4.490,9.854 4.806,9.813 5.133 L 9.739 5.728 9.264 5.825 L 8.790 5.922 8.001 6.712 L 7.213 7.502 7.309 7.945 C 7.402 8.373,7.405 8.403,7.405 8.808 C 7.405 9.309,7.371 9.469,7.188 9.835 C 6.786 10.637,6.017 11.113,5.122 11.113 C 4.655 11.113,4.291 11.008,3.893 10.758 C 3.480 10.499,3.169 10.119,2.966 9.630 L 2.858 9.368 2.851 8.840 C 2.844 8.326,2.845 8.308,2.904 8.134 C 3.084 7.597,3.411 7.163,3.855 6.874 C 4.347 6.553,4.780 6.460,5.530 6.511 L 5.903 6.537 7.753 4.704 L 9.602 2.871 10.339 2.870 L 11.077 2.870 11.092 3.109 M4.865 7.778 C 4.369 7.908,4.028 8.382,4.066 8.889 C 4.079 9.072,4.167 9.296,4.284 9.450 C 4.517 9.755,4.945 9.921,5.309 9.847 C 5.817 9.744,6.180 9.320,6.183 8.827 C 6.185 8.367,5.907 7.959,5.493 7.816 C 5.319 7.755,5.021 7.737,4.865 7.778 " fill="#1A1C1F" stroke="none" fill-rule="evenodd"></path></svg>