<svg width="32" height="32" viewBox="0 0 32 32" fill="none" xmlns="http://www.w3.org/2000/svg"><path d="M24.688 2.077 L 23.802 2.107 23.568 2.314 C 23.439 2.428,21.451 4.372,19.151 6.634 C 16.851 8.896,14.541 11.163,14.019 11.671 L 13.068 12.596 12.430 12.505 C 11.918 12.432,11.543 12.420,10.523 12.441 C 9.314 12.466,9.225 12.476,8.655 12.632 C 5.715 13.436,3.408 15.574,2.483 18.352 C 2.117 19.449,2.059 19.833,2.058 21.173 C 2.056 22.306,2.065 22.409,2.206 23.009 C 2.580 24.596,3.210 25.844,4.204 26.969 C 5.514 28.454,7.140 29.397,9.120 29.821 C 9.883 29.985,11.649 29.999,12.427 29.848 C 13.130 29.712,14.109 29.381,14.746 29.065 C 17.719 27.587,19.666 24.442,19.648 21.147 C 19.644 20.349,19.579 19.755,19.437 19.200 L 19.362 18.907 20.368 17.893 C 20.920 17.336,21.628 16.605,21.941 16.269 C 22.581 15.581,22.590 15.563,22.857 14.328 C 22.963 13.837,23.030 13.634,23.098 13.598 C 23.149 13.570,23.536 13.473,23.956 13.382 C 25.527 13.043,25.630 12.921,26.057 10.901 L 26.148 10.470 27.034 10.270 C 27.521 10.160,28.002 10.032,28.103 9.985 C 28.331 9.877,29.709 8.518,29.844 8.266 C 29.937 8.093,29.945 7.903,29.963 5.573 L 29.982 3.067 29.774 2.747 C 29.501 2.327,29.227 2.141,28.792 2.078 C 28.438 2.027,26.204 2.026,24.688 2.077 M28.000 5.695 L 28.000 7.389 27.587 7.796 L 27.173 8.203 25.814 8.479 C 25.066 8.630,24.451 8.759,24.447 8.764 C 24.443 8.769,24.328 9.296,24.191 9.935 C 23.901 11.290,23.883 11.348,23.722 11.385 C 23.655 11.401,23.192 11.499,22.693 11.602 C 21.505 11.849,21.398 11.880,21.339 11.990 C 21.289 12.083,20.987 13.406,20.824 14.246 L 20.735 14.706 18.937 16.503 L 17.140 18.300 17.339 19.083 C 17.507 19.748,17.543 19.992,17.575 20.693 C 17.622 21.754,17.542 22.584,17.332 23.211 C 16.650 25.250,15.016 26.935,13.058 27.619 C 11.145 28.287,8.890 28.025,7.225 26.942 C 5.528 25.837,4.340 24.019,4.108 22.174 C 4.038 21.614,4.038 20.733,4.108 20.172 C 4.413 17.742,6.295 15.496,8.693 14.701 C 9.389 14.470,9.858 14.400,10.704 14.400 C 11.589 14.401,12.229 14.483,13.097 14.707 L 13.687 14.859 19.150 9.431 L 24.613 4.004 26.307 4.002 L 28.000 4.000 28.000 5.695 M9.884 19.200 C 9.525 19.379,9.126 19.746,8.934 20.074 C 8.774 20.348,8.640 20.850,8.640 21.180 C 8.640 21.483,8.792 21.993,8.977 22.308 C 9.403 23.035,10.319 23.460,11.152 23.317 C 11.920 23.185,12.472 22.781,12.804 22.107 C 12.973 21.763,12.987 21.699,12.987 21.228 C 12.987 20.416,12.723 19.872,12.107 19.409 C 11.736 19.130,11.405 19.040,10.746 19.040 C 10.251 19.040,10.176 19.054,9.884 19.200 " fill="#1A1C1F" stroke="none" fill-rule="evenodd"></path></svg>