<svg width="12" height="12" viewBox="0 0 12 12" fill="none" xmlns="http://www.w3.org/2000/svg"><path d="M5.672 1.230 C 5.391 1.276,5.207 1.333,4.970 1.449 C 4.703 1.579,4.524 1.707,4.303 1.925 C 4.023 2.203,3.832 2.521,3.700 2.932 C 3.624 3.171,3.601 3.473,3.601 4.275 L 3.600 4.820 3.535 4.820 C 3.499 4.820,3.411 4.834,3.340 4.851 C 2.976 4.937,2.679 5.180,2.506 5.533 L 2.410 5.730 2.411 7.760 C 2.412 9.609,2.415 9.801,2.446 9.918 C 2.499 10.114,2.573 10.234,2.759 10.422 C 2.939 10.604,3.045 10.670,3.289 10.753 L 3.427 10.800 5.998 10.800 L 8.570 10.800 8.723 10.749 C 9.095 10.625,9.437 10.305,9.531 9.991 C 9.589 9.798,9.602 9.331,9.596 7.518 L 9.590 5.726 9.496 5.538 C 9.346 5.237,9.130 5.033,8.810 4.890 L 8.690 4.837 6.742 4.825 L 4.794 4.814 4.807 4.115 C 4.815 3.730,4.830 3.374,4.841 3.323 C 4.908 3.023,5.195 2.669,5.480 2.535 C 5.676 2.443,5.789 2.418,5.998 2.418 C 6.299 2.419,6.564 2.520,6.778 2.713 C 6.934 2.854,7.042 3.021,7.143 3.280 C 7.285 3.644,7.339 3.717,7.536 3.814 C 7.631 3.860,7.658 3.864,7.798 3.855 C 7.981 3.842,8.055 3.809,8.185 3.683 C 8.405 3.470,8.414 3.209,8.219 2.710 C 7.931 1.974,7.211 1.387,6.430 1.251 C 6.172 1.206,5.872 1.198,5.672 1.230 M8.400 7.810 L 8.400 9.600 6.000 9.600 L 3.600 9.600 3.600 7.810 L 3.600 6.020 6.000 6.020 L 8.400 6.020 8.400 7.810 M5.750 6.667 C 5.623 6.728,5.513 6.839,5.448 6.973 L 5.396 7.079 5.404 7.815 C 5.413 8.656,5.407 8.628,5.594 8.816 C 5.729 8.952,5.799 8.980,6.000 8.980 C 6.201 8.980,6.271 8.952,6.406 8.816 C 6.596 8.625,6.590 8.659,6.590 7.800 L 6.590 7.050 6.542 6.956 C 6.483 6.842,6.380 6.739,6.260 6.677 C 6.124 6.606,5.885 6.601,5.750 6.667 " fill="#1A1C1F" stroke="none" fill-rule="evenodd"></path></svg>