<svg width="12" height="12" viewBox="0 0 12 12" fill="none" xmlns="http://www.w3.org/2000/svg"><path d="M5.618 1.540 C 5.007 1.644,4.412 2.014,4.056 2.512 C 3.724 2.978,3.600 3.417,3.600 4.135 L 3.600 4.494 3.445 4.525 C 3.129 4.589,2.910 4.706,2.720 4.913 C 2.593 5.051,2.518 5.181,2.449 5.383 L 2.400 5.527 2.400 7.506 L 2.400 9.485 2.451 9.627 C 2.602 10.045,2.845 10.291,3.251 10.438 L 3.422 10.500 6.000 10.500 L 8.578 10.500 8.749 10.438 C 9.158 10.290,9.410 10.033,9.551 9.616 L 9.600 9.473 9.600 7.486 L 9.600 5.499 9.539 5.341 C 9.458 5.130,9.353 4.973,9.202 4.837 C 9.001 4.655,8.807 4.568,8.478 4.512 L 8.406 4.499 8.394 4.035 C 8.381 3.545,8.363 3.423,8.269 3.149 C 8.068 2.561,7.650 2.075,7.103 1.793 C 6.736 1.603,6.379 1.519,5.964 1.522 C 5.824 1.524,5.669 1.532,5.618 1.540 M6.180 2.740 C 6.538 2.780,6.898 3.041,7.065 3.381 C 7.161 3.576,7.175 3.656,7.192 4.117 L 7.206 4.500 6.003 4.500 L 4.800 4.500 4.800 4.275 C 4.801 3.921,4.832 3.623,4.880 3.499 C 4.997 3.203,5.195 2.984,5.472 2.847 C 5.713 2.727,5.865 2.704,6.180 2.740 M6.203 6.341 C 6.297 6.367,6.460 6.513,6.531 6.634 L 6.586 6.727 6.575 7.511 C 6.563 8.395,6.566 8.379,6.407 8.518 C 6.284 8.627,6.191 8.667,6.040 8.676 C 5.803 8.690,5.568 8.555,5.471 8.350 C 5.410 8.220,5.390 7.849,5.412 7.229 C 5.434 6.629,5.434 6.626,5.583 6.477 C 5.699 6.361,5.800 6.321,5.980 6.321 C 6.063 6.320,6.163 6.329,6.203 6.341 " fill="#1A1C1F" stroke="none" fill-rule="evenodd"></path></svg>