<svg width="28" height="28" viewBox="0 0 28 28" fill="none" xmlns="http://www.w3.org/2000/svg"><path d="M13.043 2.287 C 12.209 2.378,11.087 2.846,10.309 3.428 C 9.801 3.809,9.184 4.456,8.848 4.961 C 8.419 5.605,8.085 6.415,7.982 7.056 C 7.941 7.314,7.844 9.834,7.841 10.722 L 7.840 10.967 7.686 10.967 C 7.204 10.967,6.467 11.313,6.038 11.741 C 5.699 12.079,5.553 12.316,5.365 12.829 L 5.227 13.209 5.227 18.381 C 5.227 23.302,5.231 23.564,5.314 23.805 C 5.648 24.777,6.247 25.397,7.140 25.695 C 7.384 25.777,7.734 25.782,13.977 25.796 L 20.557 25.810 20.837 25.709 C 21.287 25.546,21.530 25.407,21.809 25.153 C 22.280 24.722,22.573 24.245,22.681 23.730 C 22.726 23.515,22.741 22.262,22.744 18.317 L 22.749 13.183 22.622 12.810 C 22.383 12.105,21.989 11.642,21.290 11.246 L 20.930 11.041 18.970 11.008 C 17.892 10.990,15.356 10.973,13.335 10.971 L 9.660 10.967 9.661 9.368 C 9.662 7.664,9.690 7.312,9.867 6.804 C 10.201 5.842,11.043 4.912,12.027 4.416 C 12.718 4.068,13.642 3.913,14.470 4.007 C 15.095 4.078,15.431 4.168,15.906 4.389 C 17.007 4.904,17.801 5.830,18.175 7.037 C 18.418 7.820,18.552 8.072,18.796 8.206 C 19.331 8.498,19.996 8.137,20.055 7.521 C 20.097 7.092,19.735 5.941,19.357 5.297 C 18.506 3.847,17.123 2.805,15.488 2.382 C 15.176 2.301,14.926 2.277,14.257 2.263 C 13.795 2.254,13.249 2.264,13.043 2.287 M20.579 12.825 C 20.644 12.872,20.767 13.025,20.853 13.164 L 21.009 13.417 20.986 18.388 C 20.966 22.615,20.953 23.384,20.895 23.524 C 20.857 23.614,20.726 23.776,20.603 23.884 L 20.380 24.080 14.448 24.078 C 11.186 24.078,8.302 24.058,8.040 24.034 C 7.485 23.984,7.327 23.916,7.151 23.650 L 7.023 23.457 7.026 18.343 C 7.028 14.442,7.042 13.206,7.085 13.127 C 7.202 12.912,7.464 12.765,7.790 12.732 C 7.958 12.715,10.879 12.709,14.279 12.719 C 20.207 12.737,20.467 12.742,20.579 12.825 M13.479 15.415 C 13.008 15.592,12.582 15.970,12.399 16.372 C 12.320 16.547,12.300 16.683,12.299 17.057 C 12.298 17.633,12.387 17.847,12.814 18.293 L 13.104 18.597 13.124 19.670 C 13.137 20.372,13.164 20.792,13.202 20.883 C 13.434 21.447,14.205 21.597,14.615 21.157 C 14.837 20.920,14.856 20.812,14.877 19.671 L 14.896 18.599 15.142 18.363 C 15.928 17.608,15.912 16.411,15.108 15.759 C 14.752 15.469,14.534 15.388,14.070 15.369 C 13.789 15.357,13.593 15.373,13.479 15.415 " fill="#1A1C1F" stroke="none" fill-rule="evenodd"></path></svg>