<svg width="12" height="12" viewBox="0 0 12 12" fill="none" xmlns="http://www.w3.org/2000/svg"><path d="M5.672 1.230 C 5.391 1.276,5.207 1.333,4.970 1.449 C 4.703 1.579,4.524 1.707,4.303 1.925 C 4.023 2.203,3.832 2.521,3.700 2.932 C 3.624 3.171,3.601 3.473,3.601 4.275 L 3.600 4.820 3.535 4.820 C 3.499 4.820,3.411 4.834,3.340 4.851 C 2.976 4.937,2.679 5.180,2.506 5.533 L 2.410 5.730 2.411 7.760 C 2.412 9.609,2.415 9.801,2.446 9.918 C 2.499 10.114,2.573 10.234,2.759 10.422 C 2.939 10.604,3.045 10.670,3.289 10.753 L 3.427 10.800 5.998 10.800 L 8.570 10.800 8.723 10.749 C 9.095 10.625,9.437 10.305,9.531 9.991 C 9.589 9.798,9.602 9.331,9.596 7.518 L 9.590 5.726 9.496 5.538 C 9.346 5.237,9.130 5.033,8.810 4.890 L 8.690 4.837 6.745 4.825 L 4.800 4.814 4.801 4.502 C 4.802 3.955,4.835 3.318,4.868 3.211 C 4.913 3.065,5.107 2.791,5.239 2.687 C 5.373 2.582,5.593 2.470,5.730 2.439 C 5.869 2.407,6.129 2.407,6.260 2.438 C 6.445 2.483,6.650 2.596,6.798 2.733 C 6.972 2.893,7.040 3.000,7.143 3.272 C 7.282 3.644,7.334 3.715,7.531 3.811 C 7.631 3.860,7.657 3.865,7.798 3.855 C 7.981 3.842,8.055 3.809,8.185 3.683 C 8.405 3.470,8.414 3.209,8.219 2.710 C 7.931 1.974,7.211 1.387,6.430 1.251 C 6.172 1.206,5.872 1.198,5.672 1.230 M6.205 6.652 C 6.319 6.690,6.467 6.817,6.526 6.927 C 6.569 7.009,6.570 7.023,6.570 7.800 L 6.570 8.590 6.515 8.683 C 6.453 8.789,6.322 8.911,6.226 8.952 C 6.141 8.989,5.859 8.989,5.774 8.952 C 5.675 8.910,5.544 8.786,5.479 8.673 L 5.420 8.570 5.420 7.810 C 5.420 7.052,5.421 7.050,5.468 6.950 C 5.595 6.682,5.914 6.552,6.205 6.652 " fill="#1A1C1F" stroke="none" fill-rule="evenodd"></path></svg>