<svg width="20" height="20" viewBox="0 0 20 20" fill="none" xmlns="http://www.w3.org/2000/svg"><path d="M9.467 2.051 C 9.027 2.121,8.617 2.252,8.217 2.450 C 7.217 2.946,6.537 3.747,6.180 4.850 C 6.035 5.297,6.002 5.709,6.001 7.108 L 6.000 8.033 5.892 8.034 C 5.832 8.034,5.686 8.057,5.567 8.085 C 4.961 8.228,4.466 8.633,4.177 9.221 L 4.017 9.550 4.017 12.867 C 4.017 15.423,4.026 16.237,4.059 16.417 C 4.128 16.793,4.270 17.043,4.597 17.368 C 4.897 17.666,5.119 17.806,5.491 17.930 C 5.696 18.000,5.728 18.000,9.993 18.000 L 14.288 18.000 14.519 17.921 C 14.928 17.782,15.101 17.674,15.400 17.371 C 15.725 17.042,15.870 16.785,15.939 16.417 C 15.974 16.234,15.983 15.470,15.983 12.867 L 15.983 9.550 15.824 9.230 C 15.569 8.717,15.229 8.396,14.676 8.146 L 14.483 8.060 11.237 8.042 L 7.990 8.024 8.014 6.870 C 8.027 6.236,8.052 5.642,8.069 5.550 C 8.086 5.458,8.152 5.278,8.215 5.150 C 8.421 4.732,8.733 4.422,9.149 4.220 C 9.457 4.071,9.685 4.022,10.052 4.024 C 10.567 4.028,11.050 4.249,11.440 4.660 C 11.670 4.901,11.777 5.085,11.919 5.484 C 12.066 5.893,12.136 6.029,12.271 6.160 C 12.519 6.403,12.928 6.496,13.263 6.385 C 13.466 6.317,13.742 6.079,13.840 5.887 C 13.946 5.680,13.956 5.371,13.869 5.034 C 13.439 3.376,12.092 2.228,10.350 2.034 C 9.974 1.992,9.822 1.995,9.467 2.051 M10.342 11.086 C 10.532 11.151,10.778 11.362,10.876 11.546 C 10.949 11.681,10.950 11.706,10.950 13.000 L 10.950 14.317 10.859 14.472 C 10.755 14.648,10.536 14.852,10.376 14.921 C 10.237 14.981,9.765 14.981,9.624 14.921 C 9.452 14.848,9.213 14.613,9.119 14.426 L 9.033 14.254 9.033 12.992 L 9.033 11.731 9.114 11.574 C 9.215 11.375,9.407 11.190,9.600 11.103 C 9.785 11.019,10.123 11.011,10.342 11.086 " fill="#1A1C1F" stroke="none" fill-rule="evenodd"></path></svg>