<svg width="20" height="20" viewBox="0 0 20 20" fill="none" xmlns="http://www.w3.org/2000/svg"><path d="M9.200 2.604 C 8.637 2.723,8.053 2.990,7.579 3.346 C 7.095 3.710,6.582 4.355,6.349 4.894 C 6.085 5.503,6.000 5.998,6.000 6.928 L 6.000 7.491 5.792 7.531 C 5.253 7.633,4.932 7.793,4.596 8.130 C 4.332 8.394,4.196 8.617,4.069 8.994 C 4.001 9.194,4.000 9.253,4.000 12.515 L 4.000 15.832 4.083 16.052 C 4.347 16.753,4.744 17.153,5.419 17.397 L 5.703 17.500 10.000 17.500 L 14.297 17.500 14.581 17.397 C 15.224 17.164,15.621 16.783,15.874 16.153 L 15.983 15.883 15.992 12.525 L 16.001 9.167 15.899 8.904 C 15.617 8.171,15.056 7.697,14.297 7.549 L 14.010 7.493 13.989 6.721 C 13.968 5.909,13.939 5.705,13.782 5.248 C 13.577 4.650,13.267 4.159,12.803 3.699 C 12.196 3.095,11.489 2.731,10.643 2.583 C 10.239 2.513,9.593 2.522,9.200 2.604 M10.367 4.567 C 10.904 4.650,11.516 5.113,11.776 5.633 C 11.935 5.953,11.960 6.096,11.988 6.867 L 12.010 7.500 10.000 7.500 L 7.990 7.500 8.012 6.867 C 8.025 6.518,8.050 6.155,8.068 6.060 C 8.171 5.517,8.690 4.907,9.255 4.665 C 9.539 4.543,9.965 4.505,10.367 4.567 M14.000 12.500 L 14.000 15.500 10.000 15.500 L 6.000 15.500 6.000 12.500 L 6.000 9.500 10.000 9.500 L 14.000 9.500 14.000 12.500 M9.541 10.618 C 9.354 10.712,9.187 10.893,9.067 11.130 C 8.994 11.276,8.993 11.288,9.009 12.497 C 9.019 13.302,9.038 13.759,9.064 13.842 C 9.109 13.985,9.395 14.294,9.567 14.385 C 9.657 14.433,9.756 14.447,10.000 14.447 C 10.244 14.447,10.343 14.433,10.433 14.385 C 10.605 14.294,10.891 13.985,10.936 13.842 C 10.989 13.673,11.019 11.687,10.973 11.390 C 10.930 11.114,10.861 10.969,10.696 10.804 C 10.498 10.606,10.362 10.553,10.017 10.540 C 9.746 10.530,9.700 10.538,9.541 10.618 " fill="#1A1C1F" stroke="none" fill-rule="evenodd"></path></svg>