<svg width="24" height="24" viewBox="0 0 24 24" fill="none" xmlns="http://www.w3.org/2000/svg"><path d="M11.369 2.561 C 10.298 2.674,9.332 3.160,8.462 4.024 C 7.909 4.573,7.514 5.202,7.262 5.936 C 7.065 6.509,7.040 6.733,7.013 8.162 L 6.988 9.504 6.692 9.551 C 6.313 9.611,5.837 9.854,5.565 10.126 C 5.440 10.252,5.301 10.455,5.193 10.673 L 5.020 11.020 5.009 15.484 L 4.999 19.949 5.158 20.264 C 5.441 20.827,5.839 21.185,6.416 21.396 L 6.700 21.500 12.000 21.500 L 17.300 21.500 17.584 21.396 C 18.162 21.185,18.559 20.827,18.844 20.262 L 19.004 19.943 18.992 15.542 L 18.980 11.140 18.886 10.880 C 18.729 10.443,18.373 10.013,17.947 9.746 C 17.649 9.558,17.557 9.554,13.150 9.531 L 9.000 9.510 9.001 9.005 C 9.003 8.052,9.074 6.872,9.142 6.640 C 9.356 5.922,9.936 5.229,10.622 4.871 C 11.096 4.625,11.378 4.561,12.000 4.561 C 12.583 4.561,12.875 4.620,13.299 4.821 C 13.998 5.152,14.492 5.715,14.844 6.580 C 14.916 6.756,15.026 6.972,15.088 7.059 C 15.488 7.619,16.304 7.616,16.676 7.053 C 16.940 6.654,16.930 6.395,16.621 5.627 C 16.387 5.047,16.094 4.590,15.660 4.129 C 15.235 3.676,14.827 3.363,14.337 3.113 C 13.625 2.749,13.171 2.620,12.399 2.561 C 11.812 2.517,11.796 2.517,11.369 2.561 M17.000 15.520 L 17.000 19.520 12.000 19.520 L 7.000 19.520 7.000 15.520 L 7.000 11.520 12.000 11.520 L 17.000 11.520 17.000 15.520 M11.705 13.560 C 11.549 13.609,11.311 13.778,11.213 13.910 C 10.999 14.200,11.000 14.196,11.000 15.431 C 11.000 16.765,11.021 16.891,11.280 17.151 C 11.784 17.654,12.529 17.561,12.878 16.951 L 12.999 16.740 13.000 15.588 C 13.000 14.864,12.983 14.369,12.955 14.256 C 12.899 14.034,12.620 13.713,12.410 13.629 C 12.212 13.550,11.850 13.514,11.705 13.560 " fill="#1A1C1F" stroke="none" fill-rule="evenodd"></path></svg>