<svg width="16" height="16" viewBox="0 0 16 16" fill="none" xmlns="http://www.w3.org/2000/svg"><path d="M7.564 1.640 C 7.196 1.700,6.944 1.779,6.625 1.933 C 5.802 2.331,5.241 2.983,4.944 3.884 C 4.861 4.137,4.846 4.224,4.825 4.573 C 4.812 4.793,4.801 5.300,4.801 5.700 L 4.800 6.427 4.713 6.427 C 4.666 6.427,4.549 6.446,4.453 6.468 C 3.969 6.582,3.581 6.899,3.346 7.374 L 3.213 7.640 3.214 10.360 L 3.215 13.080 3.273 13.267 C 3.416 13.725,3.812 14.122,4.322 14.319 L 4.532 14.400 7.984 14.400 L 11.436 14.400 11.649 14.325 C 11.949 14.219,12.135 14.098,12.358 13.865 C 12.565 13.649,12.664 13.476,12.739 13.200 C 12.783 13.039,12.787 12.830,12.787 10.333 L 12.787 7.640 12.673 7.411 C 12.463 6.991,12.228 6.755,11.819 6.557 L 11.598 6.451 8.995 6.434 L 6.392 6.418 6.410 5.486 C 6.420 4.973,6.440 4.498,6.455 4.430 C 6.560 3.958,7.024 3.455,7.505 3.295 C 7.803 3.195,8.199 3.195,8.492 3.294 C 8.702 3.365,8.982 3.549,9.143 3.721 C 9.307 3.896,9.449 4.144,9.556 4.446 C 9.693 4.829,9.795 4.961,10.047 5.085 C 10.174 5.147,10.211 5.153,10.397 5.140 C 10.532 5.131,10.643 5.106,10.715 5.069 C 10.965 4.942,11.147 4.649,11.147 4.375 C 11.147 4.058,10.896 3.386,10.636 3.003 C 10.332 2.557,9.916 2.200,9.399 1.940 C 8.876 1.677,8.109 1.552,7.564 1.640 M11.200 10.413 L 11.200 12.800 8.000 12.800 L 4.800 12.800 4.800 10.413 L 4.800 8.027 8.000 8.027 L 11.200 8.027 11.200 10.413 M7.667 8.890 C 7.506 8.965,7.301 9.177,7.250 9.321 C 7.221 9.404,7.214 9.636,7.215 10.413 C 7.216 11.518,7.212 11.488,7.411 11.712 C 7.730 12.072,8.269 12.074,8.583 11.718 C 8.790 11.482,8.785 11.519,8.786 10.413 C 8.786 9.646,8.779 9.404,8.750 9.324 C 8.698 9.174,8.438 8.925,8.279 8.870 C 8.088 8.805,7.829 8.813,7.667 8.890 " fill="#1A1C1F" stroke="none" fill-rule="evenodd"></path></svg>