<svg width="28" height="28" viewBox="0 0 28 28" fill="none" xmlns="http://www.w3.org/2000/svg"><path d="M13.207 2.692 C 12.038 2.812,10.667 3.461,9.745 4.331 C 8.981 5.051,8.489 5.842,8.144 6.907 C 7.934 7.551,7.892 7.970,7.889 9.452 L 7.887 10.481 7.483 10.557 C 6.592 10.725,5.874 11.272,5.496 12.071 C 5.313 12.459,5.299 12.516,5.268 13.043 C 5.249 13.351,5.233 15.750,5.230 18.374 L 5.227 23.144 5.366 23.524 C 5.442 23.734,5.570 24.008,5.651 24.133 C 5.832 24.415,6.329 24.876,6.649 25.059 C 7.189 25.369,6.769 25.351,13.977 25.375 L 20.510 25.397 20.895 25.249 C 21.794 24.901,22.331 24.344,22.657 23.418 L 22.784 23.059 22.758 17.958 C 22.743 15.022,22.713 12.744,22.687 12.591 C 22.614 12.159,22.375 11.735,21.980 11.335 C 21.551 10.901,21.118 10.670,20.517 10.557 L 20.113 10.481 20.112 9.545 C 20.110 8.027,20.057 7.518,19.833 6.847 C 19.493 5.829,19.059 5.148,18.273 4.397 C 17.508 3.665,16.628 3.152,15.657 2.870 C 15.141 2.720,13.846 2.626,13.207 2.692 M14.457 4.436 C 15.096 4.506,15.401 4.592,15.943 4.854 C 17.085 5.407,17.964 6.456,18.223 7.575 C 18.302 7.916,18.386 9.131,18.386 9.952 L 18.387 10.500 14.000 10.500 L 9.613 10.500 9.615 10.022 C 9.617 9.150,9.698 7.915,9.774 7.589 C 9.873 7.162,10.178 6.548,10.510 6.108 C 11.173 5.228,12.189 4.630,13.321 4.454 C 13.808 4.379,13.914 4.377,14.457 4.436 M20.463 12.365 C 20.540 12.395,20.682 12.495,20.778 12.589 L 20.953 12.759 20.953 17.947 L 20.953 23.136 20.769 23.302 C 20.395 23.640,20.919 23.614,14.644 23.609 C 11.531 23.607,8.641 23.591,8.222 23.574 L 7.460 23.543 7.254 23.324 L 7.047 23.105 7.048 18.004 C 7.049 13.094,7.052 12.896,7.137 12.708 C 7.301 12.348,7.306 12.347,9.240 12.314 C 12.104 12.266,20.302 12.303,20.463 12.365 M13.546 14.956 C 12.818 15.159,12.273 15.865,12.273 16.608 C 12.273 17.136,12.550 17.731,12.919 17.996 L 13.103 18.128 13.121 19.226 C 13.142 20.478,13.169 20.588,13.516 20.829 C 13.926 21.114,14.403 21.017,14.722 20.582 L 14.887 20.357 14.887 19.244 L 14.887 18.130 15.048 18.020 C 15.597 17.647,15.852 16.811,15.636 16.098 C 15.546 15.802,15.496 15.723,15.222 15.446 C 14.990 15.212,14.844 15.107,14.653 15.037 C 14.293 14.905,13.847 14.873,13.546 14.956 " fill="#1A1C1F" stroke="none" fill-rule="evenodd"></path></svg>