<svg width="32" height="32" viewBox="0 0 32 32" fill="none" xmlns="http://www.w3.org/2000/svg"><path d="M15.093 3.076 C 13.758 3.214,12.191 3.955,11.137 4.949 C 10.264 5.773,9.702 6.677,9.307 7.893 C 9.068 8.630,9.020 9.108,9.016 10.802 L 9.013 11.978 8.551 12.065 C 7.868 12.194,7.371 12.458,6.879 12.955 C 6.467 13.370,6.255 13.726,6.052 14.346 C 5.961 14.623,5.958 14.946,5.993 20.479 C 6.013 23.721,6.051 26.448,6.079 26.609 C 6.255 27.614,7.230 28.640,8.267 28.909 C 8.442 28.955,10.522 28.979,15.982 28.998 L 23.457 29.025 23.768 28.908 C 24.308 28.706,24.708 28.464,25.044 28.133 C 25.450 27.735,25.611 27.481,25.850 26.861 L 26.038 26.374 26.009 20.534 C 25.992 17.170,25.958 14.565,25.928 14.390 C 25.844 13.896,25.571 13.411,25.120 12.955 C 24.630 12.458,24.135 12.195,23.449 12.065 L 22.987 11.978 22.985 10.909 C 22.983 9.244,22.921 8.604,22.693 7.900 C 22.317 6.738,21.762 5.860,20.858 5.000 C 20.002 4.185,18.995 3.601,17.893 3.279 C 17.291 3.104,15.846 2.999,15.093 3.076 M17.180 5.175 C 18.873 5.522,20.448 7.026,20.826 8.657 C 20.917 9.047,21.012 10.436,21.013 11.373 L 21.013 12.000 16.000 12.000 L 10.987 12.000 10.988 11.453 C 10.991 10.458,11.083 9.045,11.170 8.673 C 11.349 7.900,11.999 6.846,12.627 6.308 C 13.934 5.188,15.429 4.816,17.180 5.175 M21.256 14.062 L 23.437 14.098 23.692 14.336 L 23.947 14.575 23.947 20.480 L 23.947 26.386 23.832 26.532 C 23.768 26.612,23.621 26.748,23.504 26.832 L 23.291 26.987 16.805 26.982 C 13.238 26.979,9.916 26.961,9.423 26.942 L 8.526 26.907 8.290 26.656 L 8.053 26.406 8.055 20.576 C 8.056 14.965,8.059 14.738,8.157 14.524 C 8.345 14.110,8.343 14.111,10.613 14.078 C 13.845 14.031,18.909 14.024,21.256 14.062 M15.481 17.093 C 14.649 17.324,14.027 18.132,14.027 18.980 C 14.027 19.584,14.343 20.263,14.765 20.567 L 14.976 20.719 14.995 21.999 C 15.013 23.238,15.017 23.287,15.140 23.484 C 15.305 23.749,15.619 23.953,15.915 23.986 C 16.248 24.024,16.582 23.853,16.825 23.522 L 17.013 23.266 17.014 21.993 L 17.014 20.720 17.198 20.595 C 17.825 20.168,18.117 19.212,17.870 18.398 C 17.767 18.059,17.709 17.969,17.396 17.653 C 17.131 17.385,16.965 17.265,16.746 17.185 C 16.334 17.035,15.825 16.997,15.481 17.093 " fill="#1A1C1F" stroke="none" fill-rule="evenodd"></path></svg>