<svg width="16" height="16" viewBox="0 0 16 16" fill="none" xmlns="http://www.w3.org/2000/svg"><path d="M7.616 2.041 C 6.873 2.143,6.273 2.440,5.743 2.970 C 5.281 3.433,5.010 3.927,4.865 4.574 C 4.837 4.698,4.818 4.964,4.808 5.377 L 4.793 5.994 4.590 6.035 C 4.169 6.119,3.881 6.275,3.619 6.558 C 3.454 6.737,3.370 6.883,3.266 7.171 L 3.200 7.353 3.200 10.021 L 3.200 12.689 3.291 12.905 C 3.415 13.198,3.497 13.333,3.648 13.488 C 3.823 13.667,4.028 13.798,4.307 13.907 L 4.543 14.000 8.000 14.000 L 11.457 14.000 11.693 13.907 C 12.232 13.696,12.525 13.396,12.734 12.842 L 12.800 12.665 12.800 9.999 L 12.800 7.332 12.719 7.122 C 12.494 6.539,12.039 6.153,11.444 6.042 C 11.321 6.019,11.218 6.000,11.215 6.000 C 11.211 6.000,11.201 5.733,11.191 5.407 C 11.171 4.732,11.150 4.564,11.037 4.227 C 10.761 3.397,10.187 2.741,9.403 2.360 C 9.039 2.183,8.752 2.098,8.324 2.043 C 7.947 1.994,7.966 1.994,7.616 2.041 M8.240 3.653 C 8.716 3.707,9.198 4.056,9.419 4.507 C 9.552 4.778,9.568 4.866,9.589 5.474 L 9.608 6.000 8.004 6.000 L 6.400 6.000 6.401 5.713 C 6.402 5.184,6.442 4.826,6.520 4.639 C 6.688 4.241,6.929 3.978,7.295 3.796 C 7.617 3.636,7.820 3.605,8.240 3.653 M8.319 8.483 C 8.464 8.546,8.618 8.691,8.711 8.849 L 8.779 8.966 8.769 10.009 L 8.760 11.053 8.687 11.177 C 8.550 11.411,8.279 11.572,8.021 11.573 C 7.709 11.574,7.419 11.394,7.285 11.118 C 7.228 10.999,7.227 10.973,7.227 9.985 C 7.228 9.045,7.231 8.965,7.279 8.860 C 7.350 8.705,7.547 8.521,7.714 8.455 C 7.883 8.388,8.131 8.399,8.319 8.483 " fill="#1A1C1F" stroke="none" fill-rule="evenodd"></path></svg>