<svg width="14" height="14" viewBox="0 0 14 14" fill="none" xmlns="http://www.w3.org/2000/svg"><path d="M6.428 1.470 C 5.431 1.696,4.660 2.386,4.338 3.342 C 4.230 3.662,4.220 3.774,4.207 4.719 L 4.195 5.623 4.122 5.624 C 4.081 5.624,3.980 5.640,3.897 5.660 C 3.473 5.759,3.126 6.043,2.924 6.455 L 2.812 6.685 2.813 9.042 C 2.814 10.809,2.821 11.430,2.843 11.524 C 2.897 11.766,3.002 11.943,3.218 12.159 C 3.427 12.369,3.572 12.460,3.846 12.552 C 3.987 12.599,4.021 12.600,7.000 12.600 C 9.979 12.600,10.013 12.599,10.154 12.552 C 10.429 12.459,10.573 12.369,10.781 12.159 C 10.996 11.943,11.104 11.760,11.157 11.525 C 11.178 11.430,11.186 10.808,11.187 9.042 L 11.188 6.685 11.091 6.487 C 10.914 6.125,10.704 5.915,10.342 5.738 L 10.145 5.642 7.873 5.629 L 5.600 5.616 5.601 5.171 C 5.603 4.382,5.634 3.880,5.692 3.730 C 5.899 3.182,6.420 2.821,7.000 2.821 C 7.633 2.821,8.115 3.200,8.362 3.891 C 8.450 4.137,8.502 4.228,8.611 4.327 C 8.769 4.470,8.890 4.512,9.100 4.497 C 9.311 4.483,9.421 4.433,9.558 4.289 C 9.717 4.124,9.742 4.057,9.740 3.803 C 9.739 3.617,9.727 3.547,9.664 3.360 C 9.406 2.605,8.931 2.053,8.248 1.716 C 7.789 1.489,7.493 1.422,6.956 1.425 C 6.717 1.427,6.559 1.440,6.428 1.470 M9.800 9.112 L 9.800 11.200 7.000 11.200 L 4.200 11.200 4.200 9.112 L 4.200 7.023 7.000 7.023 L 9.800 7.023 9.800 9.112 M6.692 7.783 C 6.549 7.857,6.431 7.981,6.355 8.137 L 6.293 8.263 6.305 9.119 C 6.319 10.073,6.317 10.059,6.484 10.248 C 6.764 10.563,7.236 10.565,7.510 10.253 C 7.691 10.047,7.686 10.079,7.687 9.112 C 7.688 8.440,7.681 8.228,7.656 8.158 C 7.610 8.028,7.383 7.809,7.244 7.762 C 7.072 7.703,6.827 7.712,6.692 7.783 " fill="#1A1C1F" stroke="none" fill-rule="evenodd"></path></svg>