<svg width="20" height="20" viewBox="0 0 20 20" fill="none" xmlns="http://www.w3.org/2000/svg"><path d="M9.467 2.051 C 9.027 2.121,8.617 2.252,8.217 2.450 C 7.217 2.946,6.537 3.747,6.180 4.850 C 6.035 5.297,6.002 5.709,6.001 7.108 L 6.000 8.033 5.892 8.034 C 5.832 8.034,5.686 8.057,5.567 8.085 C 4.961 8.228,4.466 8.633,4.177 9.221 L 4.017 9.550 4.017 12.867 C 4.017 15.423,4.026 16.237,4.059 16.417 C 4.128 16.793,4.270 17.043,4.597 17.368 C 4.897 17.666,5.119 17.806,5.491 17.930 C 5.696 18.000,5.728 18.000,9.993 18.000 L 14.288 18.000 14.519 17.921 C 14.928 17.782,15.101 17.674,15.400 17.371 C 15.725 17.042,15.870 16.785,15.939 16.417 C 15.974 16.234,15.983 15.470,15.983 12.867 L 15.983 9.550 15.824 9.230 C 15.569 8.717,15.229 8.396,14.676 8.146 L 14.483 8.060 11.236 8.042 L 7.989 8.024 8.012 6.851 C 8.037 5.551,8.052 5.434,8.253 5.075 C 8.730 4.223,9.724 3.820,10.604 4.123 C 11.249 4.346,11.654 4.773,11.930 5.524 C 12.077 5.924,12.146 6.043,12.317 6.193 C 12.691 6.523,13.224 6.515,13.601 6.176 C 13.924 5.886,14.003 5.550,13.869 5.034 C 13.439 3.376,12.092 2.228,10.350 2.034 C 9.974 1.992,9.822 1.995,9.467 2.051 M14.000 13.017 L 14.000 16.000 10.000 16.000 L 6.000 16.000 6.000 13.017 L 6.000 10.033 10.000 10.033 L 14.000 10.033 14.000 13.017 M9.583 11.113 C 9.371 11.213,9.189 11.397,9.078 11.625 L 8.990 11.804 9.008 13.027 C 9.021 14.010,9.034 14.273,9.075 14.367 C 9.154 14.553,9.386 14.788,9.587 14.886 C 9.973 15.075,10.439 14.975,10.737 14.640 C 10.984 14.361,10.979 14.399,10.981 13.000 L 10.983 11.750 10.900 11.588 C 10.795 11.380,10.544 11.155,10.344 11.086 C 10.109 11.006,9.785 11.018,9.583 11.113 " fill="#1A1C1F" stroke="none" fill-rule="evenodd"></path></svg>