<svg width="16" height="16" viewBox="0 0 16 16" fill="none" xmlns="http://www.w3.org/2000/svg"><path d="M7.564 1.640 C 7.196 1.700,6.944 1.779,6.625 1.933 C 5.802 2.331,5.241 2.983,4.944 3.884 C 4.861 4.137,4.846 4.224,4.825 4.573 C 4.812 4.793,4.801 5.300,4.801 5.700 L 4.800 6.427 4.713 6.427 C 4.666 6.427,4.549 6.446,4.453 6.468 C 3.969 6.582,3.581 6.899,3.346 7.374 L 3.213 7.640 3.214 10.360 L 3.215 13.080 3.273 13.267 C 3.416 13.725,3.812 14.122,4.322 14.319 L 4.532 14.400 7.984 14.400 L 11.436 14.400 11.649 14.325 C 11.949 14.219,12.135 14.098,12.358 13.865 C 12.565 13.649,12.664 13.476,12.739 13.200 C 12.783 13.039,12.787 12.830,12.787 10.333 L 12.787 7.640 12.673 7.411 C 12.463 6.991,12.228 6.755,11.819 6.557 L 11.598 6.451 8.995 6.434 L 6.392 6.418 6.412 5.496 C 6.422 4.988,6.442 4.515,6.455 4.444 C 6.510 4.153,6.726 3.801,6.980 3.592 C 7.649 3.039,8.561 3.099,9.162 3.737 C 9.333 3.918,9.410 4.053,9.534 4.387 C 9.704 4.847,9.784 4.956,10.047 5.085 C 10.174 5.147,10.211 5.153,10.397 5.140 C 10.532 5.131,10.643 5.106,10.715 5.069 C 10.965 4.942,11.147 4.649,11.147 4.375 C 11.147 4.058,10.896 3.386,10.636 3.003 C 10.332 2.557,9.916 2.200,9.399 1.940 C 8.876 1.677,8.109 1.552,7.564 1.640 M8.274 8.869 C 8.426 8.920,8.623 9.090,8.701 9.237 C 8.759 9.345,8.760 9.365,8.760 10.400 L 8.760 11.453 8.687 11.578 C 8.604 11.718,8.429 11.882,8.301 11.936 C 8.189 11.984,7.812 11.985,7.699 11.937 C 7.561 11.878,7.370 11.691,7.296 11.541 L 7.227 11.403 7.227 10.394 L 7.227 9.385 7.291 9.259 C 7.372 9.100,7.525 8.952,7.680 8.882 C 7.828 8.815,8.099 8.809,8.274 8.869 " fill="#1A1C1F" stroke="none" fill-rule="evenodd"></path></svg>