<svg width="14" height="14" viewBox="0 0 14 14" fill="none" xmlns="http://www.w3.org/2000/svg"><path d="M6.428 1.470 C 5.431 1.696,4.660 2.386,4.338 3.342 C 4.230 3.662,4.220 3.774,4.207 4.719 L 4.195 5.623 4.122 5.624 C 4.081 5.624,3.980 5.640,3.897 5.660 C 3.473 5.759,3.126 6.043,2.924 6.455 L 2.812 6.685 2.813 9.042 C 2.814 10.809,2.821 11.430,2.843 11.524 C 2.897 11.766,3.002 11.943,3.218 12.159 C 3.427 12.369,3.572 12.460,3.846 12.552 C 3.987 12.599,4.021 12.600,7.000 12.600 C 9.979 12.600,10.013 12.599,10.154 12.552 C 10.429 12.459,10.573 12.369,10.781 12.159 C 10.996 11.943,11.104 11.760,11.157 11.525 C 11.178 11.430,11.186 10.808,11.187 9.042 L 11.188 6.685 11.091 6.487 C 10.914 6.125,10.704 5.915,10.342 5.738 L 10.145 5.642 7.869 5.629 L 5.593 5.616 5.610 4.810 C 5.619 4.367,5.636 3.952,5.648 3.889 C 5.720 3.512,6.025 3.134,6.405 2.953 C 6.622 2.850,6.781 2.815,7.037 2.817 C 7.292 2.819,7.509 2.886,7.736 3.034 C 8.035 3.229,8.241 3.510,8.365 3.897 C 8.462 4.197,8.575 4.343,8.791 4.449 C 8.902 4.504,8.934 4.509,9.097 4.497 C 9.312 4.483,9.420 4.434,9.558 4.289 C 9.717 4.124,9.742 4.057,9.740 3.803 C 9.739 3.617,9.727 3.547,9.664 3.360 C 9.406 2.605,8.931 2.053,8.248 1.716 C 7.789 1.489,7.493 1.422,6.956 1.425 C 6.717 1.427,6.559 1.440,6.428 1.470 M7.240 7.760 C 7.373 7.805,7.545 7.954,7.613 8.082 C 7.664 8.177,7.665 8.194,7.665 9.100 L 7.665 10.022 7.601 10.131 C 7.529 10.254,7.375 10.396,7.263 10.444 C 7.166 10.486,6.835 10.487,6.737 10.445 C 6.616 10.394,6.449 10.229,6.384 10.098 L 6.323 9.978 6.324 9.101 C 6.324 8.228,6.324 8.225,6.379 8.108 C 6.528 7.795,6.900 7.644,7.240 7.760 " fill="#1A1C1F" stroke="none" fill-rule="evenodd"></path></svg>