<svg width="20" height="20" viewBox="0 0 20 20" fill="none" xmlns="http://www.w3.org/2000/svg"><path d="M9.200 2.604 C 8.637 2.723,8.053 2.990,7.579 3.346 C 7.095 3.710,6.582 4.355,6.349 4.894 C 6.085 5.503,6.000 5.998,6.000 6.928 L 6.000 7.491 5.792 7.531 C 5.253 7.633,4.932 7.793,4.596 8.130 C 4.332 8.394,4.196 8.617,4.069 8.994 C 4.001 9.194,4.000 9.253,4.000 12.515 L 4.000 15.832 4.083 16.052 C 4.347 16.753,4.744 17.153,5.419 17.397 L 5.703 17.500 10.000 17.500 L 14.297 17.500 14.581 17.397 C 15.224 17.164,15.621 16.783,15.874 16.153 L 15.983 15.883 15.992 12.525 L 16.001 9.167 15.899 8.904 C 15.617 8.171,15.056 7.697,14.297 7.549 L 14.010 7.493 13.989 6.721 C 13.968 5.909,13.939 5.705,13.782 5.248 C 13.577 4.650,13.267 4.159,12.803 3.699 C 12.196 3.095,11.489 2.731,10.643 2.583 C 10.239 2.513,9.593 2.522,9.200 2.604 M10.367 4.567 C 10.904 4.650,11.516 5.113,11.776 5.633 C 11.935 5.953,11.960 6.096,11.988 6.867 L 12.010 7.500 10.000 7.500 L 7.990 7.500 8.013 6.862 C 8.026 6.511,8.051 6.147,8.068 6.054 C 8.162 5.546,8.620 4.982,9.137 4.735 C 9.530 4.547,9.903 4.496,10.367 4.567 M10.399 10.603 C 10.580 10.683,10.734 10.826,10.874 11.044 L 10.977 11.205 10.958 12.516 C 10.937 13.984,10.941 13.962,10.693 14.186 C 10.389 14.460,10.020 14.535,9.652 14.398 C 9.443 14.320,9.212 14.113,9.123 13.925 C 9.019 13.706,8.991 13.252,9.014 12.202 C 9.039 11.084,9.047 11.048,9.315 10.786 C 9.529 10.579,9.755 10.494,10.032 10.518 C 10.151 10.528,10.316 10.567,10.399 10.603 " fill="#1A1C1F" stroke="none" fill-rule="evenodd"></path></svg>