<svg width="16" height="16" viewBox="0 0 16 16" fill="none" xmlns="http://www.w3.org/2000/svg"><path d="M7.360 2.084 C 6.910 2.178,6.443 2.392,6.064 2.677 C 5.676 2.968,5.266 3.484,5.079 3.915 C 4.868 4.403,4.800 4.798,4.800 5.542 L 4.800 5.992 4.593 6.034 C 4.169 6.119,3.881 6.274,3.619 6.558 C 3.454 6.737,3.370 6.883,3.266 7.171 L 3.200 7.353 3.200 10.021 L 3.200 12.689 3.291 12.905 C 3.415 13.198,3.497 13.333,3.648 13.488 C 3.823 13.667,4.028 13.798,4.307 13.907 L 4.543 14.000 8.000 14.000 L 11.457 14.000 11.693 13.907 C 12.232 13.696,12.525 13.396,12.734 12.842 L 12.800 12.665 12.800 9.999 L 12.800 7.332 12.719 7.122 C 12.494 6.539,12.039 6.153,11.444 6.042 C 11.321 6.019,11.218 6.000,11.215 6.000 C 11.211 6.000,11.201 5.715,11.192 5.367 C 11.176 4.699,11.141 4.482,10.987 4.084 C 10.578 3.026,9.646 2.266,8.517 2.068 C 8.185 2.010,7.678 2.017,7.360 2.084 M8.440 3.685 C 8.803 3.775,9.240 4.142,9.419 4.507 C 9.552 4.778,9.568 4.866,9.589 5.474 L 9.608 6.000 8.000 6.000 L 6.392 6.000 6.409 5.497 C 6.430 4.891,6.452 4.765,6.576 4.510 C 6.771 4.114,7.286 3.712,7.672 3.656 C 7.850 3.630,8.284 3.646,8.440 3.685 M11.200 10.000 L 11.200 12.400 8.000 12.400 L 4.800 12.400 4.800 10.000 L 4.800 7.600 8.000 7.600 L 11.200 7.600 11.200 10.000 M7.627 8.501 C 7.487 8.591,7.304 8.783,7.239 8.908 C 7.198 8.987,7.195 9.090,7.207 9.985 C 7.216 10.625,7.231 11.009,7.252 11.073 C 7.287 11.188,7.515 11.435,7.654 11.508 C 7.786 11.578,8.214 11.578,8.346 11.508 C 8.484 11.435,8.713 11.188,8.749 11.073 C 8.791 10.938,8.815 9.350,8.778 9.112 C 8.744 8.892,8.689 8.775,8.557 8.643 C 8.396 8.482,8.291 8.442,8.000 8.432 C 7.759 8.424,7.741 8.427,7.627 8.501 " fill="#1A1C1F" stroke="none" fill-rule="evenodd"></path></svg>