<svg width="14" height="14" viewBox="0 0 14 14" fill="none" xmlns="http://www.w3.org/2000/svg"><path d="M6.441 1.823 C 5.926 1.931,5.468 2.175,5.071 2.553 C 4.692 2.913,4.453 3.305,4.308 3.806 C 4.231 4.073,4.200 4.371,4.200 4.848 L 4.200 5.241 3.971 5.292 C 3.632 5.369,3.435 5.472,3.220 5.688 C 3.030 5.878,2.948 6.013,2.855 6.287 L 2.800 6.448 2.800 8.765 L 2.800 11.082 2.858 11.237 C 3.043 11.727,3.321 12.007,3.793 12.178 L 3.992 12.250 7.001 12.250 L 10.009 12.250 10.199 12.181 C 10.693 12.000,10.976 11.711,11.145 11.213 L 11.200 11.052 11.200 8.750 L 11.200 6.448 11.143 6.280 C 11.063 6.045,10.975 5.893,10.827 5.731 C 10.605 5.491,10.349 5.354,9.984 5.280 L 9.807 5.245 9.793 4.705 C 9.777 4.136,9.757 3.993,9.647 3.673 C 9.312 2.696,8.476 1.987,7.450 1.808 C 7.167 1.759,6.715 1.766,6.441 1.823 M7.257 3.197 C 7.637 3.256,8.060 3.576,8.243 3.943 C 8.355 4.167,8.372 4.267,8.391 4.807 L 8.407 5.250 7.000 5.250 L 5.593 5.250 5.608 4.810 C 5.626 4.283,5.645 4.172,5.754 3.952 C 5.938 3.579,6.343 3.260,6.711 3.198 C 6.875 3.170,7.082 3.170,7.257 3.197 M9.800 8.750 L 9.800 10.850 7.000 10.850 L 4.200 10.850 4.200 8.750 L 4.200 6.650 7.000 6.650 L 9.800 6.650 9.800 8.750 M6.705 7.417 C 6.576 7.477,6.432 7.624,6.357 7.773 L 6.295 7.894 6.306 8.748 C 6.314 9.328,6.326 9.631,6.346 9.693 C 6.378 9.795,6.572 10.003,6.698 10.070 C 6.813 10.131,7.188 10.131,7.303 10.070 C 7.423 10.006,7.624 9.789,7.655 9.689 C 7.692 9.571,7.713 8.181,7.681 7.973 C 7.651 7.780,7.603 7.678,7.487 7.563 C 7.348 7.424,7.253 7.387,7.012 7.379 C 6.843 7.373,6.783 7.381,6.705 7.417 " fill="#1A1C1F" stroke="none" fill-rule="evenodd"></path></svg>