<svg width="32" height="32" viewBox="0 0 32 32" fill="none" xmlns="http://www.w3.org/2000/svg"><path d="M14.960 2.591 C 12.679 2.943,10.622 4.451,9.657 6.480 C 9.401 7.018,9.193 7.654,9.120 8.126 C 9.073 8.426,8.967 11.181,8.962 12.253 L 8.960 12.533 8.785 12.533 C 8.503 12.533,8.011 12.682,7.630 12.882 C 6.908 13.261,6.438 13.816,6.140 14.640 L 5.973 15.099 5.973 21.008 C 5.973 26.638,5.978 26.930,6.073 27.206 C 6.451 28.304,7.156 29.034,8.160 29.367 C 8.437 29.459,8.864 29.465,15.967 29.481 C 24.262 29.499,23.617 29.523,24.326 29.169 C 24.853 28.905,25.449 28.279,25.732 27.692 C 25.988 27.161,25.988 27.163,25.994 20.960 L 26.000 15.120 25.876 14.720 C 25.590 13.802,25.100 13.242,24.166 12.769 L 23.772 12.569 17.400 12.544 L 11.028 12.519 11.055 10.459 C 11.076 8.786,11.098 8.344,11.167 8.100 C 11.530 6.833,12.511 5.672,13.745 5.047 C 15.325 4.248,17.500 4.420,18.952 5.459 C 19.872 6.118,20.460 7.009,20.900 8.410 C 21.095 9.029,21.144 9.132,21.313 9.272 C 21.787 9.662,22.448 9.555,22.750 9.040 C 22.953 8.692,22.964 8.478,22.809 7.836 C 22.485 6.490,21.989 5.614,20.981 4.606 C 19.713 3.338,18.420 2.750,16.488 2.561 C 15.799 2.493,15.563 2.498,14.960 2.591 M23.518 14.656 C 23.593 14.711,23.734 14.885,23.832 15.044 L 24.010 15.333 23.986 21.079 L 23.962 26.825 23.834 27.014 C 23.764 27.119,23.601 27.275,23.471 27.362 L 23.235 27.520 16.484 27.518 C 12.771 27.517,9.488 27.494,9.189 27.467 C 8.554 27.410,8.374 27.332,8.173 27.029 L 8.027 26.808 8.030 20.964 C 8.033 16.547,8.050 15.091,8.098 15.002 C 8.230 14.757,8.530 14.589,8.902 14.551 C 9.095 14.531,12.433 14.524,16.318 14.536 C 23.110 14.556,23.388 14.560,23.518 14.656 M15.387 17.608 C 15.111 17.713,14.702 18.000,14.487 18.238 C 14.147 18.616,14.058 18.877,14.058 19.493 C 14.058 20.163,14.155 20.400,14.633 20.897 L 14.976 21.253 14.999 22.480 C 15.014 23.282,15.045 23.762,15.088 23.867 C 15.353 24.511,16.234 24.682,16.703 24.180 C 16.957 23.909,16.979 23.785,17.002 22.481 L 17.024 21.256 17.305 20.986 C 18.354 19.978,18.130 18.380,16.848 17.731 C 16.632 17.621,16.481 17.591,16.064 17.571 C 15.746 17.557,15.485 17.571,15.387 17.608 " fill="#1A1C1F" stroke="none" fill-rule="evenodd"></path></svg>