<svg width="24" height="24" viewBox="0 0 24 24" fill="none" xmlns="http://www.w3.org/2000/svg"><path d="M11.087 3.100 C 10.165 3.267,9.265 3.743,8.537 4.447 C 7.790 5.170,7.312 6.044,7.098 7.081 C 7.061 7.259,7.026 7.709,7.013 8.190 L 6.989 9.000 6.865 9.000 C 6.493 9.002,5.944 9.267,5.588 9.617 C 5.316 9.885,5.185 10.102,5.091 10.441 C 5.025 10.682,5.020 10.993,5.020 14.980 C 5.020 19.586,5.015 19.469,5.228 19.893 C 5.368 20.173,5.859 20.657,6.128 20.780 C 6.574 20.984,6.463 20.980,12.000 20.980 C 16.863 20.980,17.199 20.976,17.489 20.907 C 18.028 20.781,18.566 20.332,18.815 19.800 C 18.934 19.546,18.937 19.523,18.970 18.680 C 19.019 17.418,18.983 10.751,18.925 10.502 C 18.900 10.393,18.840 10.222,18.791 10.122 C 18.674 9.879,18.150 9.355,17.897 9.228 C 17.679 9.118,17.271 9.000,17.110 9.000 L 17.011 9.000 16.989 8.190 C 16.975 7.697,16.941 7.251,16.902 7.050 C 16.550 5.258,15.259 3.812,13.522 3.263 C 12.861 3.054,11.751 2.980,11.087 3.100 M12.667 5.117 C 13.219 5.231,13.612 5.451,14.065 5.899 C 14.460 6.291,14.699 6.665,14.839 7.110 C 14.915 7.354,14.999 8.204,15.000 8.750 L 15.000 9.000 11.994 9.000 L 8.988 9.000 9.017 8.350 C 9.048 7.647,9.108 7.254,9.232 6.940 C 9.373 6.583,9.605 6.233,9.896 5.939 C 10.652 5.174,11.593 4.895,12.667 5.117 M17.000 15.000 L 17.000 19.000 12.000 19.000 L 7.000 19.000 7.000 15.000 L 7.000 11.000 12.000 11.000 L 17.000 11.000 17.000 15.000 M11.763 13.029 C 11.550 13.069,11.201 13.367,11.071 13.620 C 10.991 13.775,10.989 13.820,11.012 15.027 C 11.039 16.439,11.043 16.459,11.366 16.736 C 11.573 16.913,11.780 16.973,12.109 16.952 C 12.390 16.934,12.600 16.815,12.812 16.551 C 12.921 16.416,12.935 16.363,12.969 15.971 C 12.989 15.734,12.999 15.144,12.991 14.660 C 12.975 13.649,12.949 13.543,12.656 13.285 C 12.442 13.097,12.031 12.979,11.763 13.029 " fill="#1A1C1F" stroke="none" fill-rule="evenodd"></path></svg>