<svg width="24" height="24" viewBox="0 0 24 24" fill="none" xmlns="http://www.w3.org/2000/svg"><path d="M11.520 2.172 C 11.096 2.367,7.063 4.418,5.820 5.070 C 4.278 5.880,4.112 5.999,4.052 6.350 C 4.000 6.658,4.017 10.983,4.073 11.600 C 4.158 12.533,4.370 13.542,4.672 14.460 C 5.347 16.503,6.482 18.106,8.355 19.660 C 9.255 20.406,10.526 21.262,11.536 21.802 C 11.919 22.007,11.926 22.009,12.100 21.960 C 12.429 21.868,13.798 21.044,14.716 20.387 C 16.082 19.407,17.307 18.175,18.102 16.980 C 18.980 15.658,19.505 14.273,19.827 12.420 C 19.916 11.908,19.928 11.688,19.966 9.859 C 19.990 8.671,19.993 7.525,19.973 7.036 C 19.939 6.224,19.937 6.210,19.830 6.069 C 19.770 5.990,19.590 5.845,19.430 5.746 C 18.704 5.296,12.264 2.046,12.040 2.016 C 11.933 2.002,11.809 2.039,11.520 2.172 M14.746 5.484 C 16.261 6.301,17.603 7.025,17.730 7.094 L 17.959 7.220 17.957 8.380 C 17.956 9.018,17.939 10.098,17.920 10.780 C 17.887 11.975,17.881 12.045,17.744 12.705 C 17.414 14.302,16.819 15.602,15.878 16.780 C 15.442 17.326,14.466 18.266,13.880 18.705 C 13.250 19.176,12.413 19.765,12.170 19.908 L 12.000 20.007 11.634 19.776 C 11.042 19.402,10.217 18.801,9.680 18.351 C 7.581 16.590,6.454 14.545,6.117 11.880 C 6.094 11.693,6.065 10.568,6.053 9.380 L 6.031 7.220 8.686 5.790 C 10.146 5.004,11.484 4.280,11.660 4.182 C 11.836 4.084,11.983 4.003,11.986 4.002 C 11.989 4.001,13.231 4.668,14.746 5.484 M14.518 9.153 C 14.420 9.216,13.589 10.009,12.670 10.917 L 11.000 12.568 10.344 11.932 C 9.983 11.583,9.611 11.243,9.517 11.178 C 9.360 11.069,9.319 11.060,8.997 11.060 C 8.672 11.060,8.635 11.069,8.477 11.180 C 8.225 11.359,8.087 11.552,8.042 11.790 C 7.978 12.125,8.044 12.369,8.270 12.636 C 8.558 12.977,10.282 14.685,10.465 14.811 C 10.554 14.872,10.724 14.941,10.843 14.966 C 11.146 15.028,11.340 14.966,11.650 14.709 C 12.294 14.175,15.775 10.639,15.911 10.381 C 16.005 10.202,15.993 9.782,15.888 9.576 C 15.790 9.383,15.574 9.184,15.374 9.100 C 15.295 9.067,15.110 9.040,14.963 9.040 C 14.738 9.040,14.667 9.058,14.518 9.153 " fill="#1A1C1F" stroke="none" fill-rule="evenodd"></path></svg>