<svg width="14" height="14" viewBox="0 0 14 14" fill="none" xmlns="http://www.w3.org/2000/svg"><path d="M6.683 1.510 C 6.285 1.696,3.487 3.152,3.106 3.371 C 2.826 3.533,2.831 3.521,2.812 3.998 C 2.787 4.580,2.836 6.650,2.881 6.930 C 3.252 9.251,4.287 10.880,6.202 12.160 C 6.656 12.463,6.872 12.577,6.994 12.576 C 7.104 12.576,7.255 12.506,7.576 12.306 C 9.295 11.235,10.372 9.832,10.894 7.985 C 11.004 7.597,11.070 7.286,11.117 6.930 C 11.204 6.277,11.229 3.744,11.150 3.569 C 11.118 3.497,11.063 3.460,10.719 3.273 C 10.123 2.951,8.614 2.167,7.844 1.780 C 7.215 1.465,7.148 1.436,7.016 1.429 C 6.889 1.423,6.849 1.433,6.683 1.510 M9.042 4.998 C 9.182 5.071,9.260 5.140,9.346 5.271 C 9.400 5.352,9.413 5.402,9.422 5.551 C 9.441 5.879,9.423 5.901,8.388 6.870 C 6.770 8.385,6.768 8.386,6.438 8.383 C 6.137 8.380,6.024 8.309,5.402 7.730 C 4.957 7.317,4.662 7.007,4.610 6.897 C 4.576 6.823,4.570 6.770,4.580 6.623 C 4.595 6.399,4.658 6.259,4.791 6.151 C 4.968 6.008,5.029 5.988,5.285 5.986 C 5.493 5.985,5.532 5.992,5.647 6.048 C 5.717 6.083,5.874 6.198,5.994 6.305 C 6.346 6.615,6.433 6.680,6.471 6.658 C 6.490 6.647,6.861 6.312,7.295 5.913 C 8.226 5.058,8.225 5.059,8.330 5.005 C 8.467 4.934,8.521 4.924,8.727 4.932 C 8.885 4.937,8.949 4.950,9.042 4.998 " fill="#1A1C1F" stroke="none" fill-rule="evenodd"></path></svg>