<svg width="12" height="12" viewBox="0 0 12 12" fill="none" xmlns="http://www.w3.org/2000/svg"><path d="M5.134 1.597 C 4.273 2.034,2.917 2.743,2.662 2.890 C 2.424 3.028,2.427 3.021,2.410 3.406 C 2.389 3.883,2.432 5.702,2.470 5.940 C 2.786 7.925,3.681 9.335,5.315 10.421 C 5.698 10.676,5.897 10.780,5.998 10.780 C 6.089 10.780,6.212 10.722,6.490 10.551 C 7.000 10.235,7.420 9.900,7.831 9.478 C 8.647 8.641,9.117 7.771,9.408 6.560 C 9.518 6.105,9.560 5.771,9.580 5.200 C 9.604 4.513,9.605 3.291,9.580 3.158 C 9.565 3.071,9.546 3.037,9.485 2.983 C 9.396 2.903,8.687 2.527,7.269 1.808 C 6.290 1.312,6.048 1.200,5.955 1.200 C 5.934 1.200,5.565 1.379,5.134 1.597 M7.750 4.284 C 7.870 4.346,7.937 4.406,8.011 4.517 C 8.085 4.630,8.103 4.853,8.049 4.995 C 8.005 5.114,7.693 5.427,6.800 6.254 C 5.816 7.164,5.783 7.188,5.518 7.185 C 5.268 7.183,5.183 7.132,4.730 6.720 C 4.362 6.386,3.995 6.004,3.951 5.911 C 3.922 5.848,3.917 5.802,3.925 5.677 C 3.939 5.485,3.992 5.365,4.107 5.272 C 4.261 5.148,4.310 5.132,4.540 5.131 C 4.735 5.130,4.758 5.134,4.853 5.187 C 4.910 5.219,5.040 5.318,5.141 5.407 C 5.439 5.670,5.514 5.725,5.547 5.707 C 5.563 5.698,5.880 5.410,6.253 5.068 C 7.047 4.338,7.049 4.336,7.140 4.290 C 7.258 4.229,7.304 4.221,7.480 4.227 C 7.616 4.232,7.670 4.243,7.750 4.284 " fill="#1A1C1F" stroke="none" fill-rule="evenodd"></path></svg>