<svg width="16" height="16" viewBox="0 0 16 16" fill="none" xmlns="http://www.w3.org/2000/svg"><path d="M6.925 2.089 C 5.833 2.642,4.205 3.490,3.707 3.765 C 3.223 4.032,3.237 4.012,3.213 4.514 C 3.184 5.128,3.242 7.605,3.293 7.920 C 3.718 10.575,4.906 12.446,7.087 13.895 C 7.598 14.235,7.862 14.373,7.997 14.373 C 8.119 14.373,8.283 14.296,8.653 14.067 C 10.046 13.207,11.198 11.998,11.839 10.723 C 12.295 9.815,12.641 8.620,12.746 7.587 C 12.789 7.162,12.815 4.429,12.777 4.227 C 12.753 4.093,12.731 4.052,12.647 3.977 C 12.529 3.872,11.556 3.357,9.665 2.398 C 8.385 1.749,8.063 1.600,7.941 1.600 C 7.913 1.600,7.456 1.820,6.925 2.089 M10.333 5.712 C 10.494 5.795,10.582 5.874,10.681 6.024 C 10.742 6.116,10.758 6.173,10.768 6.344 C 10.789 6.717,10.760 6.754,9.578 7.860 C 7.734 9.585,7.735 9.584,7.358 9.580 C 7.020 9.577,6.914 9.513,6.282 8.936 C 5.768 8.466,5.328 8.008,5.269 7.882 C 5.229 7.798,5.222 7.737,5.234 7.569 C 5.252 7.303,5.325 7.149,5.496 7.013 C 5.672 6.875,5.784 6.840,6.067 6.840 C 6.375 6.840,6.505 6.901,6.850 7.206 C 6.988 7.327,7.159 7.473,7.230 7.530 C 7.353 7.628,7.362 7.631,7.420 7.592 C 7.453 7.569,7.912 7.152,8.440 6.665 C 9.568 5.626,9.580 5.618,9.960 5.634 C 10.153 5.642,10.226 5.657,10.333 5.712 " fill="#1A1C1F" stroke="none" fill-rule="evenodd"></path></svg>