<svg width="32" height="32" viewBox="0 0 32 32" fill="none" xmlns="http://www.w3.org/2000/svg"><path d="M13.707 2.901 C 9.525 4.861,5.799 6.662,5.355 6.937 C 5.036 7.134,5.040 7.080,5.044 11.067 C 5.048 15.079,5.071 15.495,5.362 16.937 C 6.247 21.322,8.357 24.748,11.870 27.499 C 13.072 28.440,15.241 29.796,15.747 29.923 C 16.111 30.014,16.384 29.929,17.173 29.478 C 20.140 27.782,22.504 25.654,24.084 23.253 C 25.455 21.171,26.288 19.015,26.751 16.347 C 26.924 15.349,27.001 13.126,26.977 9.846 C 26.960 7.675,26.948 7.363,26.868 7.185 C 26.781 6.991,26.702 6.946,24.735 5.977 C 23.612 5.424,21.309 4.321,19.617 3.526 L 16.540 2.080 15.990 2.084 L 15.440 2.088 13.707 2.901 M17.890 4.930 C 18.831 5.375,20.818 6.325,22.307 7.041 L 25.013 8.342 25.013 10.211 C 25.012 14.313,24.839 16.276,24.312 18.160 C 23.868 19.751,22.928 21.646,21.886 23.055 C 20.646 24.729,18.646 26.449,16.385 27.785 L 15.997 28.014 15.351 27.623 C 14.249 26.958,13.300 26.260,12.264 25.354 C 10.190 23.542,8.760 21.376,7.866 18.693 C 7.192 16.670,7.056 15.465,7.004 11.067 L 6.971 8.347 9.179 7.284 C 15.153 4.409,15.931 4.049,16.077 4.091 C 16.134 4.107,16.950 4.485,17.890 4.930 M20.653 11.092 C 20.505 11.155,18.556 13.034,16.537 15.059 L 15.021 16.580 13.893 15.477 C 13.273 14.870,12.669 14.307,12.551 14.225 C 12.239 14.009,11.883 13.981,11.573 14.146 C 11.235 14.328,11.013 14.658,11.013 14.982 C 11.013 15.177,11.051 15.290,11.173 15.468 C 11.261 15.595,12.017 16.388,12.853 17.229 C 14.668 19.054,14.821 19.155,15.364 18.878 C 15.837 18.637,21.653 12.837,21.899 12.362 C 22.085 12.002,21.865 11.366,21.488 11.170 C 21.285 11.066,20.817 11.022,20.653 11.092 " fill="#1A1C1F" stroke="none" fill-rule="evenodd"></path></svg>