<svg width="20" height="20" viewBox="0 0 20 20" fill="none" xmlns="http://www.w3.org/2000/svg"><path d="M9.581 2.141 C 9.103 2.362,5.421 4.272,4.633 4.707 C 4.019 5.046,4.046 5.002,4.020 5.721 C 3.987 6.620,4.053 9.512,4.116 9.900 C 4.666 13.326,6.206 15.675,9.133 17.555 C 9.578 17.840,9.841 17.967,9.991 17.966 C 10.149 17.966,10.364 17.866,10.823 17.581 C 13.278 16.051,14.818 14.045,15.563 11.407 C 15.844 10.416,15.920 9.867,15.969 8.497 C 16.015 7.204,15.997 5.261,15.937 5.109 C 15.903 5.025,15.830 4.965,15.605 4.838 C 14.929 4.456,12.495 3.187,11.103 2.492 C 10.304 2.093,10.205 2.052,10.020 2.042 C 9.847 2.033,9.781 2.048,9.581 2.141 M12.917 7.141 C 13.117 7.244,13.228 7.343,13.351 7.529 C 13.475 7.716,13.505 8.088,13.416 8.325 C 13.345 8.516,12.905 8.961,11.533 10.235 C 9.648 11.985,9.660 11.976,9.195 11.974 C 8.778 11.972,8.637 11.888,7.867 11.184 C 7.235 10.607,6.658 10.007,6.586 9.852 C 6.537 9.747,6.528 9.671,6.542 9.461 C 6.564 9.142,6.654 8.942,6.845 8.787 C 7.059 8.614,7.179 8.566,7.460 8.545 C 7.923 8.509,8.141 8.615,8.767 9.183 C 9.163 9.542,9.182 9.553,9.275 9.489 C 9.316 9.460,9.890 8.940,10.550 8.332 C 11.210 7.725,11.810 7.197,11.883 7.159 C 12.097 7.048,12.167 7.035,12.467 7.045 C 12.693 7.053,12.784 7.072,12.917 7.141 " fill="#1A1C1F" stroke="none" fill-rule="evenodd"></path></svg>