<svg width="28" height="28" viewBox="0 0 28 28" fill="none" xmlns="http://www.w3.org/2000/svg"><path d="M12.483 2.307 C 9.504 3.698,5.793 5.479,5.022 5.888 C 4.642 6.090,4.547 6.162,4.485 6.298 C 4.418 6.445,4.410 6.816,4.413 9.660 C 4.417 13.196,4.436 13.554,4.692 14.819 C 5.306 17.866,6.589 20.370,8.586 22.417 C 9.945 23.812,11.322 24.868,13.038 25.833 C 13.978 26.361,14.054 26.358,15.129 25.734 C 17.521 24.345,19.404 22.695,20.785 20.778 C 22.102 18.949,22.974 16.799,23.404 14.319 C 23.559 13.429,23.626 11.506,23.604 8.616 C 23.590 6.730,23.579 6.442,23.511 6.290 C 23.438 6.128,23.358 6.080,22.267 5.533 C 21.021 4.910,19.361 4.116,16.346 2.701 L 14.469 1.820 13.989 1.824 L 13.510 1.828 12.483 2.307 M15.657 4.315 C 16.478 4.704,18.216 5.535,19.518 6.160 L 21.887 7.297 21.886 8.934 C 21.885 13.878,21.587 15.709,20.389 18.130 C 19.634 19.656,18.762 20.814,17.476 21.999 C 16.585 22.821,15.649 23.517,14.526 24.197 L 14.002 24.513 13.453 24.184 C 11.225 22.851,9.415 21.138,8.222 19.235 C 7.368 17.872,6.713 16.199,6.439 14.679 C 6.219 13.465,6.115 11.602,6.114 8.887 L 6.113 7.298 8.528 6.137 C 13.697 3.651,13.939 3.539,14.070 3.578 C 14.121 3.593,14.835 3.925,15.657 4.315 M18.071 9.705 C 17.944 9.760,16.175 11.466,14.423 13.224 L 13.142 14.508 12.177 13.561 C 11.002 12.406,10.855 12.296,10.494 12.298 C 10.048 12.301,9.676 12.637,9.626 13.083 C 9.606 13.259,9.626 13.307,9.830 13.581 C 9.954 13.747,10.623 14.452,11.316 15.148 C 12.866 16.702,13.007 16.787,13.501 16.474 C 13.897 16.223,18.032 12.147,18.940 11.113 C 19.199 10.818,19.203 10.809,19.203 10.525 C 19.203 10.025,18.920 9.720,18.416 9.680 C 18.285 9.669,18.129 9.681,18.071 9.705 " fill="#1A1C1F" stroke="none" fill-rule="evenodd"></path></svg>