<svg width="12" height="12" viewBox="0 0 12 12" fill="none" xmlns="http://www.w3.org/2000/svg"><path d="M6.990 1.982 C 6.585 2.022,6.261 2.116,5.870 2.309 C 5.456 2.513,5.150 2.738,4.919 3.010 C 4.794 3.157,4.789 3.160,4.698 3.160 C 4.443 3.160,3.985 3.285,3.695 3.434 C 3.300 3.637,3.031 3.892,2.723 4.353 C 2.590 4.553,2.573 4.569,2.309 4.740 C 1.853 5.034,1.500 5.489,1.323 6.010 C 1.230 6.286,1.214 6.418,1.225 6.837 C 1.236 7.272,1.272 7.428,1.440 7.770 C 1.585 8.066,1.685 8.208,1.909 8.430 C 2.286 8.806,2.703 9.025,3.210 9.113 C 3.439 9.153,3.760 9.142,3.857 9.092 C 4.029 9.002,4.169 8.794,4.192 8.593 C 4.216 8.395,4.105 8.171,3.933 8.070 C 3.824 8.007,3.764 7.989,3.520 7.947 C 3.142 7.882,2.932 7.778,2.729 7.553 C 2.520 7.322,2.381 6.951,2.407 6.696 C 2.442 6.366,2.548 6.131,2.760 5.919 C 2.927 5.751,3.129 5.638,3.402 5.560 L 3.554 5.516 3.598 5.373 C 3.759 4.861,4.011 4.571,4.423 4.425 C 4.552 4.380,4.600 4.373,4.810 4.375 C 4.942 4.376,5.127 4.390,5.220 4.406 C 5.335 4.426,5.398 4.429,5.415 4.415 C 5.428 4.404,5.509 4.283,5.595 4.146 C 5.878 3.691,6.069 3.508,6.445 3.330 C 6.695 3.211,6.855 3.179,7.197 3.178 C 7.550 3.177,7.706 3.211,7.990 3.351 C 8.247 3.478,8.452 3.641,8.600 3.836 C 8.729 4.005,8.910 4.373,8.942 4.530 C 8.975 4.693,8.975 5.210,8.942 5.427 L 8.915 5.604 9.146 5.833 C 9.473 6.158,9.587 6.391,9.585 6.730 C 9.582 7.244,9.284 7.687,8.823 7.862 C 8.761 7.885,8.590 7.925,8.444 7.951 C 8.082 8.014,7.955 8.093,7.855 8.316 C 7.806 8.427,7.803 8.660,7.849 8.771 C 7.893 8.876,8.049 9.035,8.158 9.084 C 8.346 9.170,8.745 9.149,9.099 9.036 C 9.830 8.803,10.409 8.246,10.656 7.540 C 10.761 7.238,10.790 7.063,10.788 6.720 C 10.786 6.451,10.779 6.384,10.733 6.215 C 10.633 5.848,10.489 5.540,10.299 5.288 L 10.200 5.158 10.200 4.983 C 10.200 3.833,9.552 2.788,8.514 2.267 C 8.060 2.039,7.492 1.933,6.990 1.982 M5.710 5.642 C 5.532 5.755,4.582 6.722,4.535 6.839 C 4.524 6.867,4.515 6.959,4.515 7.044 C 4.515 7.291,4.623 7.470,4.841 7.581 C 4.944 7.633,5.149 7.653,5.271 7.622 C 5.323 7.609,5.371 7.604,5.377 7.611 C 5.384 7.618,5.396 8.070,5.403 8.617 C 5.417 9.749,5.409 9.694,5.590 9.871 C 5.725 10.002,5.859 10.050,6.049 10.035 C 6.198 10.023,6.315 9.966,6.433 9.848 C 6.590 9.691,6.584 9.732,6.594 8.620 C 6.599 8.075,6.606 7.620,6.610 7.607 C 6.615 7.590,6.637 7.591,6.694 7.611 C 6.796 7.648,6.970 7.647,7.096 7.609 C 7.171 7.587,7.227 7.551,7.300 7.478 C 7.450 7.328,7.487 7.243,7.486 7.050 C 7.486 6.962,7.476 6.867,7.465 6.840 C 7.435 6.766,6.924 6.226,6.577 5.902 C 6.243 5.589,6.226 5.580,5.969 5.580 C 5.823 5.580,5.799 5.586,5.710 5.642 " fill="#1A1C1F" stroke="none" fill-rule="evenodd"></path></svg>