<svg width="28" height="28" viewBox="0 0 28 28" fill="none" xmlns="http://www.w3.org/2000/svg"><path d="M15.821 4.083 C 15.033 4.262,14.036 4.682,13.438 5.088 C 13.014 5.376,12.241 6.057,11.950 6.399 C 11.811 6.563,11.682 6.715,11.663 6.736 C 11.644 6.758,11.523 6.754,11.394 6.726 C 10.896 6.619,10.127 6.576,9.573 6.624 C 8.152 6.748,7.046 7.280,5.961 8.364 C 5.360 8.963,4.894 9.750,4.613 10.635 C 4.506 10.973,4.497 10.985,4.130 11.262 C 3.581 11.679,3.026 12.265,2.662 12.817 C 2.300 13.365,2.110 13.787,1.926 14.453 C 1.810 14.873,1.799 14.981,1.798 15.773 C 1.797 16.539,1.809 16.679,1.905 17.010 C 2.327 18.470,3.134 19.572,4.387 20.400 C 4.836 20.698,5.303 20.919,5.896 21.117 C 6.546 21.334,6.818 21.371,8.009 21.405 L 9.040 21.434 9.211 21.299 C 9.405 21.145,9.613 20.767,9.613 20.569 C 9.613 20.291,9.398 19.941,9.145 19.809 C 9.071 19.771,8.682 19.727,8.121 19.695 C 7.074 19.633,6.695 19.570,6.176 19.370 C 5.048 18.935,4.157 18.052,3.716 16.932 C 3.599 16.635,3.593 16.580,3.593 15.750 C 3.593 14.916,3.599 14.866,3.718 14.568 C 4.028 13.792,4.589 13.106,5.374 12.546 C 5.626 12.366,5.883 12.158,5.947 12.082 C 6.013 12.003,6.134 11.713,6.232 11.398 C 6.590 10.246,7.059 9.568,7.880 9.011 C 8.491 8.597,9.042 8.413,9.800 8.369 C 10.372 8.337,10.775 8.390,11.509 8.595 C 12.309 8.818,12.382 8.786,12.996 7.956 C 13.615 7.120,14.141 6.637,14.852 6.253 C 15.654 5.821,16.509 5.657,17.494 5.748 C 18.108 5.805,18.642 5.960,19.216 6.248 C 20.500 6.894,21.317 7.895,21.689 9.281 C 21.800 9.696,21.810 9.808,21.814 10.757 C 21.819 12.012,21.797 11.958,22.512 12.465 C 23.362 13.069,23.806 13.567,24.173 14.332 C 24.397 14.800,24.480 15.338,24.437 16.053 C 24.406 16.573,24.322 16.878,24.079 17.363 C 23.425 18.664,22.079 19.522,20.493 19.649 C 20.169 19.675,19.678 19.715,19.402 19.737 C 18.806 19.785,18.643 19.861,18.492 20.159 C 18.290 20.556,18.411 21.032,18.774 21.271 L 18.964 21.397 19.947 21.392 C 21.072 21.387,21.437 21.340,22.113 21.114 C 24.135 20.438,25.653 18.844,26.111 16.917 C 26.215 16.475,26.252 15.522,26.184 15.013 C 26.081 14.240,25.705 13.323,25.196 12.602 C 24.910 12.196,24.373 11.643,23.935 11.302 L 23.627 11.062 23.599 10.349 C 23.537 8.743,23.022 7.392,22.031 6.233 C 21.221 5.285,19.882 4.457,18.657 4.149 C 18.139 4.018,16.298 3.976,15.821 4.083 M13.738 12.744 C 13.471 12.821,10.156 16.077,9.789 16.622 C 9.537 16.997,9.577 17.326,9.919 17.668 C 10.226 17.975,10.610 18.004,10.981 17.747 C 11.085 17.675,11.607 17.189,12.141 16.667 L 13.113 15.716 13.113 19.564 L 13.113 23.411 13.256 23.626 C 13.615 24.168,14.385 24.168,14.744 23.626 L 14.887 23.411 14.887 19.563 L 14.887 15.715 15.763 16.573 C 16.931 17.714,17.123 17.876,17.358 17.907 C 17.803 17.967,18.214 17.695,18.335 17.261 C 18.453 16.841,18.420 16.794,17.104 15.434 C 15.573 13.852,14.574 12.903,14.317 12.787 C 14.101 12.688,13.965 12.678,13.738 12.744 " fill="#1A1C1F" stroke="none" fill-rule="evenodd"></path></svg>