<svg width="20" height="20" viewBox="0 0 20 20" fill="none" xmlns="http://www.w3.org/2000/svg"><path d="M11.283 2.097 C 10.429 2.276,9.629 2.601,9.088 2.989 C 8.867 3.149,8.552 3.419,8.217 3.737 L 7.950 3.991 7.550 4.046 C 7.037 4.115,6.726 4.202,6.343 4.383 C 5.625 4.722,5.076 5.204,4.619 5.895 C 4.303 6.372,4.312 6.363,3.953 6.583 C 2.977 7.181,2.320 8.113,2.079 9.240 C 2.001 9.606,2.000 10.312,2.077 10.700 C 2.244 11.546,2.603 12.234,3.183 12.820 C 3.776 13.419,4.535 13.801,5.430 13.951 C 6.201 14.080,6.660 13.908,6.896 13.402 C 7.025 13.124,7.018 12.852,6.873 12.558 C 6.714 12.236,6.461 12.073,6.033 12.018 C 5.675 11.973,5.288 11.864,5.067 11.748 C 4.816 11.616,4.484 11.302,4.325 11.047 C 4.120 10.719,4.058 10.514,4.041 10.114 C 4.022 9.674,4.059 9.475,4.223 9.134 C 4.462 8.635,4.961 8.247,5.656 8.019 L 5.929 7.929 6.019 7.656 C 6.181 7.166,6.327 6.908,6.602 6.627 C 6.812 6.412,6.907 6.344,7.184 6.210 C 7.510 6.053,7.522 6.050,7.884 6.038 C 8.117 6.031,8.377 6.046,8.589 6.080 C 8.774 6.109,8.948 6.133,8.977 6.133 C 9.007 6.133,9.110 6.002,9.219 5.825 C 9.698 5.047,9.945 4.773,10.440 4.469 C 10.791 4.253,11.162 4.110,11.491 4.063 C 11.807 4.018,12.516 4.049,12.789 4.119 C 13.258 4.240,13.886 4.632,14.230 5.019 C 14.861 5.728,15.073 6.565,14.913 7.705 L 14.858 8.094 15.182 8.404 C 15.521 8.728,15.644 8.884,15.787 9.168 C 16.192 9.974,15.933 11.026,15.190 11.586 C 14.873 11.825,14.647 11.907,14.000 12.015 C 13.826 12.044,13.604 12.107,13.506 12.154 C 12.976 12.412,12.853 13.217,13.277 13.662 C 13.546 13.945,13.799 14.014,14.374 13.964 C 16.012 13.822,17.356 12.691,17.857 11.033 C 17.972 10.653,18.003 9.787,17.919 9.301 C 17.812 8.684,17.577 8.133,17.189 7.593 L 17.011 7.344 16.989 6.864 C 16.929 5.538,16.449 4.426,15.544 3.516 C 15.111 3.082,14.728 2.805,14.183 2.534 C 13.451 2.169,13.040 2.071,12.150 2.049 C 11.684 2.037,11.530 2.045,11.283 2.097 M9.583 9.113 C 9.375 9.211,9.193 9.393,9.084 9.612 L 9.000 9.780 9.000 12.202 L 9.000 14.624 8.775 14.561 C 8.400 14.455,8.052 14.550,7.790 14.830 C 7.584 15.050,7.523 15.229,7.538 15.575 C 7.550 15.848,7.554 15.861,7.698 16.053 C 7.779 16.161,8.193 16.597,8.618 17.020 C 9.212 17.612,9.432 17.811,9.570 17.878 C 9.827 18.002,9.995 18.020,10.250 17.951 C 10.455 17.896,10.487 17.871,11.058 17.336 C 11.787 16.651,12.317 16.078,12.404 15.881 C 12.574 15.498,12.504 15.134,12.202 14.831 C 12.075 14.704,11.965 14.627,11.852 14.589 C 11.650 14.520,11.321 14.517,11.138 14.582 L 11.000 14.630 11.000 12.207 L 11.000 9.784 10.910 9.605 C 10.797 9.384,10.550 9.157,10.344 9.086 C 10.109 9.006,9.785 9.018,9.583 9.113 " fill="#1A1C1F" stroke="none" fill-rule="evenodd"></path></svg>