<svg width="32" height="32" viewBox="0 0 32 32" fill="none" xmlns="http://www.w3.org/2000/svg"><path d="M18.734 2.825 C 17.561 2.959,16.342 3.410,15.333 4.083 C 14.839 4.413,13.978 5.176,13.621 5.600 C 13.485 5.761,13.341 5.912,13.302 5.935 C 13.262 5.958,13.067 5.946,12.868 5.908 C 12.644 5.866,12.100 5.841,11.440 5.844 C 10.149 5.848,9.729 5.932,8.813 6.372 C 8.049 6.739,7.505 7.115,6.958 7.653 C 6.188 8.411,5.695 9.187,5.336 10.213 C 5.121 10.827,5.081 10.883,4.680 11.155 C 4.241 11.453,3.557 12.141,3.205 12.640 C 1.836 14.583,1.644 16.967,2.689 19.028 C 3.326 20.285,4.543 21.434,5.898 22.056 C 6.942 22.535,7.856 22.721,9.243 22.736 L 10.222 22.747 10.480 22.587 C 10.995 22.268,11.124 21.685,10.787 21.200 C 10.544 20.852,10.397 20.809,9.232 20.746 C 7.825 20.669,7.315 20.552,6.463 20.108 C 5.445 19.579,4.611 18.612,4.231 17.520 C 4.092 17.122,4.082 17.036,4.082 16.240 C 4.082 15.453,4.093 15.355,4.224 14.987 C 4.468 14.295,4.731 13.883,5.280 13.330 C 5.559 13.049,5.979 12.686,6.213 12.523 C 6.830 12.094,6.899 12.003,7.095 11.360 C 7.575 9.791,8.308 8.855,9.539 8.242 C 10.177 7.924,10.633 7.824,11.467 7.821 C 12.130 7.819,12.250 7.834,12.994 8.023 C 13.465 8.142,13.856 8.214,13.931 8.195 C 14.191 8.130,14.436 7.905,14.842 7.359 C 15.815 6.050,16.741 5.355,18.000 4.987 C 18.649 4.797,19.792 4.746,20.523 4.874 C 22.423 5.207,24.032 6.635,24.735 8.613 C 24.868 8.987,24.892 9.319,24.955 11.665 C 24.962 11.905,25.176 12.128,25.837 12.585 C 27.363 13.638,28.021 14.875,27.930 16.516 C 27.844 18.059,26.821 19.516,25.318 20.235 C 24.626 20.567,24.149 20.651,22.163 20.792 L 21.525 20.837 21.332 21.055 C 21.142 21.269,21.013 21.576,21.013 21.816 C 21.013 22.015,21.223 22.392,21.415 22.538 C 21.663 22.727,22.356 22.789,23.418 22.718 C 25.325 22.590,26.880 21.892,28.165 20.587 C 29.363 19.370,29.974 17.877,29.973 16.169 C 29.972 14.538,29.316 13.065,27.999 11.736 C 27.768 11.502,27.449 11.225,27.291 11.120 L 27.003 10.929 26.968 10.091 C 26.929 9.154,26.851 8.686,26.609 7.953 C 26.235 6.818,25.684 5.901,24.875 5.067 C 23.755 3.912,22.237 3.110,20.789 2.908 C 20.055 2.805,19.206 2.771,18.734 2.825 M15.627 14.858 C 15.400 14.957,15.219 15.121,15.102 15.333 C 15.023 15.478,15.013 15.995,14.996 20.655 L 14.977 25.817 14.019 24.882 C 13.493 24.368,12.987 23.908,12.895 23.860 C 12.773 23.798,12.648 23.782,12.438 23.804 C 11.666 23.883,11.282 24.631,11.692 25.258 C 11.870 25.531,14.923 28.617,15.382 28.988 C 15.629 29.188,15.664 29.200,16.000 29.200 C 16.351 29.200,16.363 29.195,16.672 28.933 C 17.085 28.584,19.845 25.824,20.187 25.419 C 20.444 25.115,20.453 25.092,20.453 24.775 C 20.453 24.507,20.427 24.405,20.310 24.229 C 20.135 23.965,19.792 23.787,19.458 23.787 C 19.134 23.787,18.946 23.927,17.915 24.943 L 17.084 25.763 17.049 24.601 C 17.029 23.963,17.012 21.892,17.010 20.000 C 17.009 18.108,16.988 16.288,16.964 15.955 C 16.913 15.245,16.858 15.140,16.428 14.920 C 16.106 14.756,15.901 14.740,15.627 14.858 " fill="#1A1C1F" stroke="none" fill-rule="evenodd"></path></svg>