<svg width="28" height="28" viewBox="0 0 28 28" fill="none" xmlns="http://www.w3.org/2000/svg"><path d="M16.392 2.473 C 15.378 2.584,14.301 2.982,13.417 3.573 C 12.984 3.862,12.231 4.529,11.918 4.900 C 11.799 5.041,11.675 5.172,11.643 5.191 C 11.610 5.210,11.366 5.192,11.100 5.151 C 10.726 5.094,10.438 5.084,9.829 5.107 C 8.909 5.142,8.529 5.212,7.982 5.447 C 7.168 5.797,6.605 6.175,6.020 6.765 C 5.366 7.425,4.969 8.081,4.622 9.077 C 4.476 9.494,4.473 9.498,4.165 9.707 C 3.754 9.985,3.110 10.625,2.804 11.060 C 1.606 12.764,1.438 14.846,2.353 16.650 C 3.075 18.075,4.536 19.230,6.164 19.663 C 6.881 19.854,7.260 19.900,8.097 19.902 C 8.839 19.903,8.905 19.896,9.115 19.793 C 9.435 19.635,9.590 19.385,9.588 19.033 C 9.587 18.811,9.562 18.728,9.448 18.563 C 9.226 18.246,9.103 18.208,8.102 18.154 C 6.866 18.086,6.354 17.968,5.650 17.589 C 4.653 17.051,3.841 16.019,3.615 15.000 C 3.489 14.438,3.535 13.589,3.720 13.058 C 4.002 12.243,4.486 11.639,5.345 11.028 C 5.989 10.569,6.033 10.513,6.208 9.940 C 6.628 8.567,7.269 7.749,8.347 7.211 C 8.905 6.933,9.304 6.846,10.033 6.843 C 10.614 6.841,10.718 6.855,11.370 7.020 C 11.782 7.125,12.124 7.187,12.189 7.171 C 12.417 7.114,12.632 6.917,12.987 6.439 C 13.836 5.297,14.633 4.697,15.750 4.359 C 16.139 4.242,16.234 4.232,17.033 4.228 C 17.795 4.224,17.943 4.237,18.293 4.331 C 19.697 4.709,20.946 5.812,21.494 7.156 C 21.754 7.794,21.793 8.016,21.797 8.865 C 21.799 9.289,21.815 9.809,21.833 10.019 C 21.871 10.481,21.909 10.529,22.617 11.018 C 22.882 11.201,23.262 11.522,23.468 11.737 C 24.117 12.412,24.454 13.272,24.453 14.243 C 24.451 14.846,24.355 15.250,24.083 15.797 C 23.686 16.594,23.068 17.217,22.260 17.636 C 21.694 17.929,21.231 18.052,20.475 18.109 C 20.109 18.136,19.590 18.176,19.321 18.197 L 18.833 18.235 18.665 18.424 C 18.499 18.611,18.387 18.879,18.387 19.089 C 18.387 19.265,18.571 19.593,18.744 19.725 C 18.878 19.828,18.976 19.854,19.334 19.885 C 20.005 19.944,21.087 19.857,21.719 19.695 C 23.796 19.159,25.461 17.616,26.011 15.717 C 26.485 14.083,26.182 12.394,25.173 11.048 C 24.795 10.544,24.215 9.953,23.880 9.730 L 23.628 9.563 23.597 8.830 C 23.552 7.747,23.369 6.988,22.936 6.087 C 22.149 4.449,20.516 3.103,18.776 2.658 C 18.142 2.496,16.997 2.407,16.392 2.473 M13.674 13.001 C 13.475 13.087,13.316 13.231,13.215 13.417 C 13.146 13.543,13.136 13.995,13.121 18.073 L 13.105 22.589 12.267 21.772 C 11.806 21.322,11.363 20.920,11.283 20.878 C 11.176 20.823,11.067 20.809,10.883 20.828 C 10.208 20.898,9.872 21.552,10.230 22.100 C 10.386 22.339,13.058 25.040,13.459 25.365 C 13.675 25.539,13.706 25.550,14.000 25.550 C 14.307 25.550,14.317 25.546,14.588 25.317 C 14.949 25.011,17.364 22.596,17.664 22.241 C 17.888 21.976,17.897 21.956,17.897 21.678 C 17.897 21.444,17.873 21.355,17.771 21.201 C 17.618 20.969,17.318 20.813,17.026 20.813 C 16.742 20.813,16.578 20.936,15.676 21.825 L 14.948 22.542 14.917 21.484 C 14.901 20.901,14.885 19.090,14.884 17.457 C 14.882 15.825,14.864 14.252,14.843 13.961 C 14.798 13.339,14.751 13.248,14.374 13.055 C 14.093 12.911,13.913 12.897,13.674 13.001 " fill="#1A1C1F" stroke="none" fill-rule="evenodd"></path></svg>