<svg width="12" height="12" viewBox="0 0 12 12" fill="none" xmlns="http://www.w3.org/2000/svg"><path d="M6.719 1.269 C 6.430 1.332,6.053 1.461,5.834 1.572 C 5.507 1.737,5.346 1.854,5.005 2.174 L 4.769 2.394 4.530 2.427 C 4.222 2.469,4.035 2.521,3.806 2.630 C 3.350 2.845,2.996 3.165,2.721 3.610 C 2.605 3.798,2.577 3.826,2.401 3.929 C 1.518 4.448,1.049 5.475,1.250 6.450 C 1.371 7.037,1.700 7.568,2.156 7.910 C 2.560 8.212,3.174 8.420,3.590 8.395 C 3.789 8.383,3.884 8.344,4.004 8.226 C 4.133 8.099,4.189 7.968,4.188 7.790 C 4.188 7.474,3.974 7.256,3.620 7.211 C 3.212 7.159,2.974 7.052,2.752 6.820 C 2.518 6.575,2.420 6.333,2.420 6.000 C 2.420 5.678,2.518 5.428,2.735 5.198 C 2.897 5.026,3.063 4.926,3.344 4.829 L 3.558 4.756 3.612 4.593 C 3.708 4.299,3.796 4.144,3.962 3.975 C 4.090 3.845,4.144 3.806,4.312 3.726 C 4.505 3.634,4.516 3.631,4.731 3.624 C 4.873 3.619,5.024 3.627,5.153 3.648 C 5.264 3.666,5.369 3.680,5.386 3.680 C 5.404 3.680,5.476 3.585,5.559 3.451 C 5.808 3.050,5.955 2.885,6.227 2.701 C 6.356 2.614,6.624 2.491,6.760 2.457 C 6.907 2.421,7.490 2.420,7.640 2.457 C 7.813 2.499,8.135 2.666,8.314 2.809 C 8.604 3.039,8.823 3.360,8.920 3.701 C 8.983 3.920,8.995 4.285,8.950 4.605 L 8.915 4.857 9.110 5.043 C 9.436 5.355,9.547 5.561,9.589 5.931 C 9.627 6.272,9.417 6.723,9.114 6.952 C 8.923 7.096,8.757 7.153,8.344 7.217 C 8.170 7.245,8.076 7.290,7.976 7.393 C 7.807 7.569,7.763 7.823,7.864 8.040 C 7.929 8.181,8.021 8.273,8.160 8.337 C 8.256 8.381,8.296 8.388,8.470 8.386 C 9.054 8.382,9.634 8.136,10.067 7.709 C 10.552 7.231,10.781 6.687,10.781 6.010 C 10.781 5.464,10.656 5.062,10.339 4.593 L 10.200 4.387 10.200 4.218 C 10.200 3.984,10.166 3.729,10.100 3.467 C 9.803 2.288,8.773 1.376,7.583 1.240 C 7.289 1.206,6.956 1.218,6.719 1.269 M5.750 5.467 C 5.625 5.527,5.515 5.637,5.450 5.767 L 5.400 5.868 5.400 7.322 L 5.400 8.776 5.305 8.746 C 5.159 8.700,4.963 8.705,4.854 8.758 C 4.745 8.811,4.611 8.951,4.559 9.066 C 4.506 9.184,4.506 9.433,4.559 9.537 C 4.656 9.729,5.569 10.643,5.750 10.730 C 5.896 10.801,5.999 10.812,6.150 10.771 C 6.273 10.738,6.292 10.723,6.635 10.401 C 7.072 9.991,7.390 9.647,7.443 9.529 C 7.570 9.241,7.447 8.917,7.156 8.772 C 7.035 8.711,6.847 8.702,6.693 8.748 L 6.600 8.776 6.600 7.321 L 6.600 5.866 6.548 5.768 C 6.429 5.542,6.261 5.434,6.010 5.425 C 5.874 5.419,5.835 5.426,5.750 5.467 " fill="#1A1C1F" stroke="none" fill-rule="evenodd"></path></svg>