<svg width="14" height="14" viewBox="0 0 14 14" fill="none" xmlns="http://www.w3.org/2000/svg"><path d="M8.190 1.415 C 7.361 1.556,6.755 1.793,6.265 2.169 C 6.164 2.246,5.966 2.418,5.823 2.551 L 5.564 2.794 5.285 2.832 C 4.926 2.881,4.707 2.942,4.440 3.068 C 3.937 3.306,3.552 3.644,3.229 4.133 C 3.120 4.298,3.007 4.450,2.979 4.470 C 2.951 4.490,2.834 4.567,2.718 4.641 C 2.193 4.977,1.827 5.418,1.602 5.986 C 1.461 6.340,1.418 6.567,1.417 6.953 C 1.415 7.485,1.497 7.834,1.731 8.290 C 2.138 9.082,2.859 9.599,3.788 9.765 C 4.205 9.840,4.492 9.787,4.678 9.601 C 5.041 9.237,4.914 8.627,4.439 8.461 C 4.391 8.444,4.264 8.417,4.156 8.402 C 3.744 8.342,3.506 8.238,3.268 8.013 C 2.977 7.738,2.851 7.474,2.830 7.089 C 2.806 6.669,2.916 6.355,3.191 6.064 C 3.379 5.864,3.574 5.747,3.901 5.634 L 4.151 5.548 4.214 5.358 C 4.338 4.981,4.502 4.713,4.723 4.531 C 4.842 4.433,5.090 4.302,5.248 4.254 C 5.384 4.213,5.770 4.215,6.032 4.258 C 6.147 4.277,6.259 4.293,6.281 4.293 C 6.305 4.293,6.386 4.187,6.502 4.000 C 6.603 3.838,6.732 3.647,6.790 3.575 C 7.013 3.297,7.384 3.043,7.765 2.909 C 7.965 2.838,7.976 2.837,8.400 2.838 C 8.803 2.838,8.844 2.842,9.018 2.900 C 9.379 3.020,9.781 3.295,10.023 3.588 C 10.178 3.777,10.340 4.084,10.407 4.318 C 10.480 4.574,10.494 4.999,10.442 5.372 L 10.401 5.666 10.636 5.892 C 10.981 6.222,11.131 6.488,11.177 6.846 C 11.235 7.310,11.015 7.822,10.633 8.110 C 10.409 8.279,10.323 8.309,9.698 8.433 C 9.376 8.496,9.210 8.643,9.134 8.929 C 9.071 9.170,9.125 9.379,9.300 9.567 C 9.483 9.761,9.716 9.824,10.092 9.777 C 11.054 9.659,11.861 9.100,12.284 8.260 C 12.499 7.834,12.583 7.477,12.583 7.000 C 12.583 6.384,12.406 5.835,12.043 5.329 L 11.907 5.140 11.894 4.816 C 11.857 3.900,11.511 3.091,10.888 2.464 C 10.298 1.869,9.622 1.535,8.838 1.450 C 8.551 1.418,8.262 1.403,8.190 1.415 M6.692 6.383 C 6.552 6.456,6.433 6.578,6.359 6.728 L 6.300 6.846 6.300 8.542 L 6.300 10.239 6.191 10.206 C 6.020 10.155,5.796 10.164,5.658 10.228 C 5.321 10.386,5.168 10.810,5.330 11.141 C 5.386 11.254,5.505 11.386,5.988 11.867 C 6.661 12.538,6.732 12.589,7.000 12.588 C 7.234 12.586,7.312 12.538,7.760 12.116 C 8.256 11.649,8.624 11.250,8.683 11.116 C 8.802 10.849,8.752 10.594,8.541 10.382 C 8.453 10.293,8.375 10.239,8.297 10.212 C 8.156 10.165,7.925 10.162,7.799 10.207 L 7.705 10.240 7.695 8.532 C 7.685 6.592,7.701 6.738,7.481 6.523 C 7.327 6.373,7.197 6.323,6.967 6.324 C 6.839 6.325,6.777 6.338,6.692 6.383 " fill="#1A1C1F" stroke="none" fill-rule="evenodd"></path></svg>