<svg width="24" height="24" viewBox="0 0 24 24" fill="none" xmlns="http://www.w3.org/2000/svg"><path d="M12.961 2.643 C 12.154 2.817,11.260 3.164,10.628 3.547 L 10.397 3.688 10.048 3.624 C 9.809 3.580,9.466 3.560,8.954 3.560 C 8.293 3.560,8.166 3.571,7.834 3.658 C 5.795 4.189,4.404 5.728,4.049 7.845 L 3.978 8.270 3.672 8.513 C 3.304 8.805,2.935 9.236,2.652 9.703 C 1.891 10.957,1.803 12.533,2.420 13.868 C 2.959 15.035,4.138 16.032,5.341 16.338 C 5.875 16.473,6.882 16.529,7.253 16.443 C 7.599 16.362,7.927 15.990,7.983 15.614 C 8.018 15.380,7.914 15.053,7.746 14.869 C 7.542 14.647,7.333 14.573,6.760 14.520 C 5.797 14.430,5.381 14.297,4.968 13.944 C 4.285 13.359,4.009 12.726,4.053 11.840 C 4.095 10.967,4.461 10.386,5.330 9.811 C 5.895 9.436,5.924 9.381,6.019 8.500 C 6.120 7.555,6.240 7.214,6.668 6.650 C 6.931 6.304,7.256 6.050,7.732 5.817 C 8.197 5.590,8.405 5.551,9.091 5.567 C 9.594 5.578,9.717 5.596,10.148 5.717 C 10.760 5.888,10.767 5.887,11.519 5.381 C 11.826 5.174,12.209 4.943,12.369 4.867 C 12.925 4.604,12.948 4.600,14.024 4.600 L 15.005 4.600 15.351 4.744 C 16.550 5.240,17.402 6.111,17.753 7.200 C 17.799 7.343,17.891 7.682,17.958 7.953 C 18.025 8.223,18.096 8.475,18.117 8.513 C 18.165 8.601,18.392 8.810,18.757 9.102 C 19.367 9.591,19.727 10.130,19.885 10.791 C 19.954 11.079,19.965 11.220,19.948 11.600 C 19.924 12.119,19.859 12.399,19.666 12.813 C 19.411 13.360,18.990 13.806,18.440 14.112 C 18.120 14.290,17.792 14.388,17.152 14.499 C 16.498 14.611,16.343 14.691,16.141 15.018 C 16.039 15.184,16.020 15.254,16.020 15.477 C 16.020 15.779,16.093 15.959,16.305 16.177 C 16.525 16.404,16.656 16.454,17.080 16.472 C 17.933 16.509,18.946 16.187,19.822 15.600 C 20.223 15.332,20.846 14.712,21.108 14.320 C 21.709 13.422,21.976 12.555,21.977 11.500 C 21.978 10.081,21.511 8.997,20.414 7.878 L 19.922 7.376 19.756 6.858 C 19.411 5.776,19.046 5.140,18.365 4.430 C 17.508 3.537,16.621 3.009,15.451 2.696 C 15.100 2.602,14.973 2.589,14.200 2.576 C 13.446 2.562,13.293 2.571,12.961 2.643 M11.674 10.573 C 11.431 10.664,11.204 10.879,11.066 11.148 C 11.006 11.264,11.000 11.603,11.000 14.683 L 11.000 18.089 10.531 17.638 C 9.967 17.096,9.824 17.020,9.436 17.052 C 8.843 17.102,8.544 17.420,8.541 18.003 C 8.540 18.276,8.552 18.324,8.660 18.482 C 8.816 18.711,11.288 21.184,11.517 21.340 C 11.675 21.448,11.725 21.460,12.000 21.460 C 12.275 21.460,12.325 21.448,12.483 21.340 C 12.579 21.274,13.245 20.634,13.962 19.917 C 15.355 18.525,15.480 18.369,15.480 18.017 C 15.480 17.808,15.389 17.546,15.257 17.372 C 15.111 17.181,14.879 17.077,14.543 17.051 C 14.159 17.022,14.044 17.085,13.463 17.644 L 13.000 18.089 13.000 14.835 C 13.000 12.904,12.984 11.483,12.960 11.341 C 12.935 11.188,12.880 11.044,12.805 10.941 C 12.580 10.628,12.017 10.445,11.674 10.573 " fill="#1A1C1F" stroke="none" fill-rule="evenodd"></path></svg>