<svg width="32" height="32" viewBox="0 0 32 32" fill="none" xmlns="http://www.w3.org/2000/svg"><path d="M18.081 4.667 C 17.180 4.871,16.041 5.351,15.358 5.815 C 14.692 6.267,13.963 6.944,13.333 7.695 C 13.314 7.718,13.072 7.697,12.796 7.648 C 12.113 7.529,10.836 7.529,10.267 7.649 C 8.947 7.926,7.906 8.491,6.927 9.460 C 6.126 10.251,5.684 10.957,5.322 12.022 L 5.147 12.539 4.544 13.021 C 3.378 13.954,2.638 15.019,2.266 16.299 C 2.068 16.979,2.009 17.523,2.041 18.346 C 2.081 19.342,2.324 20.154,2.856 21.067 C 3.691 22.500,5.044 23.568,6.739 24.134 C 7.481 24.381,7.791 24.424,9.153 24.463 L 10.332 24.496 10.527 24.342 C 10.748 24.166,10.987 23.734,10.987 23.508 C 10.987 23.189,10.740 22.790,10.451 22.639 C 10.367 22.595,9.922 22.546,9.281 22.508 C 8.084 22.438,7.652 22.366,7.059 22.137 C 5.769 21.640,4.751 20.631,4.247 19.351 C 4.113 19.012,4.107 18.949,4.107 18.000 C 4.107 17.047,4.113 16.990,4.249 16.649 C 4.601 15.767,5.244 14.979,6.130 14.346 C 6.861 13.824,6.899 13.774,7.095 13.093 C 7.493 11.714,8.164 10.794,9.249 10.140 C 9.850 9.777,10.711 9.546,11.458 9.547 C 11.983 9.548,12.417 9.618,13.153 9.823 C 14.067 10.077,14.151 10.041,14.853 9.093 C 15.561 8.136,16.161 7.585,16.975 7.146 C 17.886 6.655,18.812 6.476,19.961 6.570 C 20.650 6.627,21.288 6.803,21.882 7.100 C 23.139 7.729,23.855 8.448,24.455 9.686 C 24.822 10.442,24.856 10.627,24.916 12.185 C 24.962 13.392,24.981 13.587,25.067 13.708 C 25.122 13.784,25.438 14.040,25.770 14.277 C 26.712 14.951,27.213 15.519,27.630 16.389 C 27.882 16.914,27.977 17.534,27.928 18.347 C 27.892 18.941,27.797 19.289,27.518 19.843 C 26.966 20.942,25.906 21.822,24.640 22.233 C 24.112 22.404,23.809 22.448,22.728 22.508 C 21.872 22.555,21.701 22.579,21.498 22.682 C 20.967 22.951,20.863 23.753,21.301 24.192 C 21.571 24.461,21.802 24.498,22.987 24.461 C 24.214 24.422,24.535 24.376,25.271 24.130 C 27.992 23.223,29.838 20.933,29.956 18.320 C 29.994 17.487,29.921 16.869,29.708 16.217 C 29.301 14.972,28.577 13.927,27.526 13.066 L 27.002 12.637 26.970 11.825 C 26.899 9.992,26.311 8.447,25.179 7.123 C 24.253 6.040,22.722 5.094,21.323 4.741 C 20.730 4.592,18.626 4.543,18.081 4.667 M15.700 14.565 C 15.396 14.653,11.610 18.372,11.188 18.997 C 10.899 19.425,10.946 19.802,11.335 20.192 C 11.687 20.543,12.125 20.576,12.550 20.282 C 12.668 20.200,13.265 19.645,13.876 19.047 L 14.987 17.962 14.987 22.357 L 14.987 26.752 15.141 26.995 C 15.536 27.618,16.439 27.621,16.851 27.001 L 17.013 26.755 17.013 22.358 L 17.013 17.961 18.023 18.947 C 19.405 20.295,19.572 20.434,19.860 20.466 C 20.349 20.521,20.782 20.242,20.938 19.773 C 21.012 19.549,21.015 19.476,20.957 19.268 C 20.898 19.057,20.713 18.843,19.586 17.676 C 18.869 16.935,17.882 15.948,17.392 15.482 C 16.365 14.508,16.202 14.419,15.700 14.565 " fill="#1A1C1F" stroke="none" fill-rule="evenodd"></path></svg>