<svg width="16" height="16" viewBox="0 0 16 16" fill="none" xmlns="http://www.w3.org/2000/svg"><path d="M9.187 1.642 C 9.157 1.650,8.995 1.687,8.827 1.724 C 7.933 1.925,7.333 2.262,6.573 2.989 L 6.360 3.194 6.040 3.237 C 5.631 3.292,5.381 3.361,5.074 3.506 C 4.501 3.777,4.059 4.165,3.693 4.719 C 3.570 4.906,3.452 5.073,3.431 5.090 C 3.411 5.106,3.284 5.189,3.150 5.274 C 2.416 5.735,1.911 6.415,1.705 7.219 C 1.374 8.514,1.918 9.925,3.031 10.657 C 3.700 11.097,4.703 11.319,5.125 11.121 C 5.762 10.822,5.729 9.899,5.074 9.669 C 5.018 9.650,4.873 9.620,4.750 9.602 C 4.193 9.521,3.819 9.325,3.557 8.978 C 3.329 8.673,3.254 8.467,3.234 8.080 C 3.210 7.610,3.336 7.259,3.648 6.929 C 3.862 6.702,4.085 6.567,4.458 6.439 L 4.742 6.342 4.840 6.059 C 5.042 5.474,5.285 5.187,5.776 4.955 C 6.003 4.847,6.026 4.842,6.311 4.832 C 6.504 4.825,6.704 4.836,6.879 4.864 C 7.027 4.887,7.166 4.907,7.186 4.907 C 7.207 4.907,7.292 4.796,7.375 4.660 C 7.819 3.941,8.080 3.681,8.619 3.426 C 8.942 3.274,9.104 3.244,9.600 3.243 C 10.090 3.242,10.239 3.270,10.577 3.426 C 11.224 3.724,11.724 4.307,11.906 4.973 C 11.976 5.230,11.988 5.748,11.934 6.136 L 11.888 6.468 12.192 6.774 C 12.637 7.223,12.782 7.531,12.780 8.027 C 12.779 8.449,12.622 8.809,12.301 9.132 C 12.033 9.400,11.790 9.509,11.255 9.599 C 10.896 9.659,10.780 9.707,10.635 9.858 C 10.256 10.250,10.376 10.855,10.885 11.125 C 11.106 11.242,11.675 11.198,12.205 11.024 C 12.679 10.868,13.050 10.640,13.424 10.273 C 14.069 9.641,14.373 8.918,14.373 8.019 C 14.373 7.279,14.181 6.672,13.764 6.091 L 13.608 5.875 13.592 5.517 C 13.554 4.667,13.312 3.934,12.860 3.297 C 12.656 3.009,12.203 2.560,11.907 2.351 C 11.458 2.034,10.825 1.763,10.338 1.679 C 10.162 1.648,9.276 1.620,9.187 1.642 M7.667 7.290 C 7.508 7.366,7.327 7.545,7.262 7.693 C 7.218 7.792,7.214 7.953,7.205 9.751 L 7.196 11.703 7.084 11.662 C 6.914 11.600,6.653 11.608,6.486 11.680 C 6.092 11.850,5.905 12.351,6.092 12.733 C 6.196 12.946,7.449 14.202,7.658 14.303 C 7.862 14.402,7.997 14.416,8.200 14.361 C 8.364 14.317,8.389 14.297,8.845 13.869 C 9.430 13.319,9.854 12.861,9.929 12.697 C 10.013 12.512,10.007 12.243,9.915 12.065 C 9.832 11.908,9.667 11.749,9.510 11.678 C 9.377 11.617,9.102 11.610,8.927 11.663 L 8.805 11.700 8.795 9.750 C 8.783 7.534,8.801 7.700,8.549 7.455 C 8.377 7.287,8.226 7.227,7.975 7.227 C 7.846 7.227,7.765 7.244,7.667 7.290 " fill="#1A1C1F" stroke="none" fill-rule="evenodd"></path></svg>