<svg width="14" height="14" viewBox="0 0 14 14" fill="none" xmlns="http://www.w3.org/2000/svg"><path d="M8.155 2.312 C 8.040 2.324,7.861 2.350,7.758 2.371 C 7.014 2.522,6.157 3.007,5.731 3.518 L 5.596 3.680 5.392 3.694 C 5.023 3.721,4.506 3.879,4.212 4.055 C 3.780 4.314,3.504 4.586,3.177 5.078 C 3.022 5.312,3.002 5.331,2.693 5.530 C 2.104 5.911,1.664 6.516,1.496 7.178 C 1.381 7.627,1.391 8.272,1.519 8.663 C 1.617 8.964,1.801 9.329,1.964 9.545 C 2.196 9.853,2.632 10.217,2.975 10.389 C 3.142 10.473,3.575 10.607,3.785 10.641 C 4.023 10.679,4.396 10.661,4.500 10.607 C 4.769 10.467,4.951 10.096,4.881 9.829 C 4.837 9.664,4.738 9.518,4.611 9.433 C 4.485 9.348,4.422 9.328,4.080 9.265 C 3.640 9.184,3.420 9.073,3.191 8.820 C 2.974 8.580,2.800 8.172,2.800 7.905 C 2.800 7.725,2.872 7.455,2.976 7.241 C 3.061 7.066,3.109 7.001,3.244 6.876 C 3.427 6.706,3.682 6.569,3.969 6.486 L 4.146 6.435 4.198 6.268 C 4.388 5.663,4.709 5.302,5.192 5.151 C 5.391 5.088,5.749 5.084,6.090 5.141 C 6.264 5.170,6.318 5.172,6.339 5.150 C 6.354 5.134,6.419 5.029,6.484 4.915 C 6.806 4.353,7.067 4.096,7.548 3.871 C 7.856 3.726,7.994 3.704,8.482 3.716 C 8.952 3.729,9.015 3.744,9.361 3.924 C 9.901 4.204,10.293 4.707,10.423 5.283 C 10.470 5.494,10.476 6.052,10.433 6.329 L 10.402 6.533 10.669 6.796 C 10.904 7.026,10.948 7.083,11.031 7.257 C 11.158 7.522,11.184 7.628,11.183 7.863 C 11.181 8.447,10.825 8.971,10.293 9.172 C 10.221 9.199,10.028 9.246,9.864 9.276 C 9.700 9.306,9.518 9.354,9.459 9.384 C 9.241 9.493,9.115 9.709,9.116 9.975 C 9.117 10.177,9.157 10.276,9.303 10.433 C 9.450 10.591,9.571 10.643,9.822 10.658 C 10.484 10.695,11.330 10.324,11.841 9.773 C 12.198 9.386,12.432 8.929,12.547 8.390 C 12.601 8.138,12.601 7.640,12.546 7.381 C 12.454 6.941,12.259 6.493,12.029 6.188 L 11.900 6.017 11.900 5.814 C 11.900 4.464,11.143 3.252,9.918 2.637 C 9.398 2.377,8.737 2.255,8.155 2.312 M6.663 6.582 C 6.458 6.712,5.392 7.795,5.305 7.962 C 5.239 8.088,5.252 8.367,5.331 8.529 C 5.476 8.826,5.879 8.991,6.189 8.880 L 6.277 8.849 6.277 8.922 C 6.278 8.962,6.288 9.495,6.300 10.107 C 6.317 11.015,6.328 11.235,6.357 11.304 C 6.376 11.351,6.450 11.446,6.522 11.516 C 6.679 11.670,6.835 11.725,7.057 11.708 C 7.231 11.694,7.355 11.633,7.500 11.492 C 7.689 11.309,7.682 11.363,7.695 10.026 C 7.705 8.990,7.711 8.843,7.741 8.854 C 7.931 8.927,8.187 8.927,8.340 8.854 C 8.456 8.799,8.632 8.620,8.682 8.505 C 8.742 8.368,8.758 8.213,8.728 8.067 C 8.703 7.945,8.681 7.917,8.353 7.566 C 7.862 7.043,7.345 6.564,7.237 6.534 C 7.190 6.521,7.067 6.510,6.964 6.510 C 6.794 6.510,6.765 6.517,6.663 6.582 " fill="#1A1C1F" stroke="none" fill-rule="evenodd"></path></svg>