<svg width="20" height="20" viewBox="0 0 20 20" fill="none" xmlns="http://www.w3.org/2000/svg"><path d="M11.668 3.304 C 10.995 3.364,10.445 3.522,9.783 3.848 C 9.095 4.187,8.584 4.563,8.201 5.013 L 7.992 5.258 7.704 5.281 C 7.050 5.332,6.276 5.596,5.782 5.935 C 5.376 6.213,4.780 6.841,4.532 7.252 C 4.345 7.561,4.282 7.620,3.833 7.909 C 3.458 8.149,2.966 8.629,2.706 9.009 C 1.963 10.092,1.806 11.557,2.303 12.753 C 2.545 13.335,2.961 13.891,3.478 14.327 C 3.805 14.603,4.121 14.793,4.513 14.951 C 5.006 15.150,5.319 15.212,5.850 15.214 C 6.300 15.217,6.322 15.213,6.470 15.126 C 7.034 14.795,7.153 14.103,6.734 13.595 C 6.595 13.426,6.382 13.338,5.901 13.249 C 5.284 13.135,5.006 13.019,4.705 12.749 C 4.394 12.468,4.164 12.096,4.071 11.722 C 4.013 11.490,4.020 11.011,4.084 10.762 C 4.166 10.445,4.380 10.061,4.593 9.848 C 4.801 9.639,5.343 9.350,5.711 9.250 L 5.922 9.193 5.997 8.955 C 6.269 8.090,6.728 7.574,7.417 7.358 C 7.701 7.269,8.213 7.263,8.700 7.345 C 8.948 7.386,9.025 7.389,9.055 7.357 C 9.077 7.335,9.180 7.167,9.285 6.984 C 9.636 6.373,9.941 6.023,10.362 5.751 C 10.872 5.421,11.337 5.292,12.017 5.293 C 12.548 5.293,12.854 5.354,13.225 5.532 C 13.878 5.845,14.296 6.238,14.616 6.840 C 14.846 7.272,14.899 7.458,14.941 7.985 C 14.973 8.388,14.970 8.515,14.920 8.893 L 14.862 9.332 15.243 9.714 C 15.785 10.259,15.978 10.654,15.975 11.217 C 15.969 12.072,15.470 12.814,14.705 13.102 C 14.601 13.141,14.328 13.208,14.097 13.250 C 13.476 13.364,13.252 13.500,13.089 13.867 C 13.006 14.054,13.000 14.427,13.077 14.609 C 13.158 14.799,13.448 15.087,13.628 15.157 C 13.819 15.230,14.486 15.239,14.767 15.172 C 16.246 14.817,17.352 13.830,17.797 12.469 C 18.056 11.677,18.050 10.821,17.780 10.000 C 17.660 9.637,17.395 9.119,17.189 8.846 L 17.010 8.608 16.991 8.146 C 16.981 7.891,16.948 7.551,16.919 7.389 C 16.791 6.687,16.430 5.846,16.018 5.297 C 15.327 4.375,14.240 3.652,13.167 3.402 C 12.921 3.345,12.178 3.259,12.033 3.272 C 12.006 3.274,11.841 3.288,11.668 3.304 M9.518 9.403 C 9.224 9.589,7.637 11.205,7.559 11.397 C 7.540 11.445,7.525 11.599,7.525 11.741 C 7.524 12.153,7.706 12.449,8.072 12.636 C 8.256 12.730,8.635 12.757,8.825 12.691 C 8.963 12.642,8.967 12.643,8.968 12.712 C 8.996 14.818,9.035 16.040,9.079 16.145 C 9.142 16.297,9.385 16.540,9.572 16.639 C 9.690 16.702,9.768 16.716,10.000 16.716 C 10.333 16.716,10.482 16.653,10.722 16.413 C 10.980 16.155,10.971 16.220,10.995 14.362 C 11.007 13.451,11.027 12.695,11.040 12.682 C 11.053 12.669,11.131 12.675,11.213 12.696 C 11.705 12.820,12.118 12.639,12.385 12.183 C 12.469 12.040,12.480 11.990,12.478 11.752 C 12.477 11.604,12.460 11.445,12.442 11.399 C 12.392 11.278,11.515 10.352,10.946 9.821 C 10.405 9.317,10.374 9.300,9.948 9.300 C 9.705 9.300,9.664 9.310,9.518 9.403 " fill="#1A1C1F" stroke="none" fill-rule="evenodd"></path></svg>