<svg width="24" height="24" viewBox="0 0 24 24" fill="none" xmlns="http://www.w3.org/2000/svg"><path d="M13.400 4.086 C 12.605 4.142,11.555 4.496,10.757 4.977 L 10.396 5.195 9.988 5.115 C 9.415 5.002,8.603 5.003,8.051 5.117 C 7.531 5.224,7.160 5.357,6.678 5.606 C 5.757 6.085,4.985 6.867,4.522 7.793 C 4.329 8.180,4.124 8.833,4.048 9.306 C 3.982 9.718,3.975 9.736,3.820 9.875 C 3.389 10.263,2.994 10.690,2.802 10.977 C 2.077 12.054,1.835 13.345,2.136 14.529 C 2.358 15.401,2.719 16.042,3.339 16.661 C 4.285 17.606,5.518 18.066,6.894 17.986 C 7.218 17.967,7.319 17.945,7.461 17.861 C 7.694 17.725,7.857 17.518,7.940 17.253 C 8.047 16.914,7.958 16.569,7.695 16.306 C 7.479 16.089,7.387 16.065,6.562 15.999 C 5.934 15.950,5.571 15.844,5.179 15.597 C 4.619 15.243,4.165 14.576,4.083 13.987 C 4.028 13.585,4.028 13.179,4.085 12.912 C 4.187 12.432,4.586 11.848,5.040 11.513 C 5.183 11.408,5.417 11.236,5.560 11.131 C 5.713 11.019,5.848 10.882,5.887 10.800 C 5.930 10.711,5.976 10.426,6.015 10.013 C 6.058 9.551,6.104 9.284,6.174 9.081 C 6.500 8.143,7.169 7.488,8.142 7.152 C 8.437 7.051,8.540 7.035,8.911 7.036 C 9.380 7.037,9.569 7.066,10.150 7.224 C 10.739 7.384,10.868 7.350,11.564 6.851 C 12.388 6.260,13.038 6.042,13.980 6.042 C 14.732 6.042,15.185 6.150,15.840 6.484 C 16.485 6.813,16.926 7.216,17.364 7.879 C 17.602 8.239,17.769 8.658,17.903 9.232 C 18.096 10.059,18.096 10.060,18.852 10.671 C 19.223 10.972,19.470 11.293,19.704 11.780 C 19.950 12.290,20.020 12.872,19.920 13.566 C 19.845 14.084,19.504 14.703,19.046 15.153 C 18.557 15.633,18.068 15.851,17.153 15.998 C 16.561 16.093,16.345 16.192,16.175 16.447 C 15.869 16.905,16.017 17.530,16.507 17.840 C 16.749 17.994,16.972 18.023,17.480 17.966 C 18.713 17.830,19.638 17.375,20.540 16.462 C 21.244 15.749,21.606 15.112,21.860 14.137 C 21.953 13.783,21.964 13.664,21.965 13.040 C 21.965 12.263,21.917 11.946,21.713 11.367 C 21.448 10.616,21.173 10.191,20.467 9.445 C 20.184 9.145,19.929 8.846,19.899 8.780 C 19.870 8.714,19.789 8.472,19.719 8.242 C 19.241 6.669,18.087 5.333,16.594 4.623 C 16.070 4.374,15.644 4.226,15.208 4.143 C 14.854 4.075,13.954 4.047,13.400 4.086 M11.434 11.224 C 11.294 11.326,10.629 11.963,9.955 12.641 C 8.566 14.037,8.492 14.136,8.530 14.554 C 8.595 15.268,9.293 15.685,9.909 15.378 C 10.026 15.320,10.302 15.097,10.553 14.858 L 10.993 14.439 11.010 16.830 C 11.023 18.517,11.042 19.263,11.075 19.367 C 11.164 19.646,11.671 20.000,11.980 20.000 C 12.325 20.000,12.757 19.716,12.918 19.384 C 12.998 19.219,13.000 19.152,13.000 16.824 L 13.000 14.432 13.445 14.856 C 13.992 15.376,14.216 15.501,14.554 15.470 C 14.959 15.433,15.239 15.233,15.403 14.864 C 15.517 14.604,15.518 14.347,15.403 14.125 C 15.218 13.765,12.675 11.221,12.376 11.096 C 12.302 11.065,12.118 11.040,11.966 11.040 C 11.700 11.040,11.678 11.047,11.434 11.224 " fill="#1A1C1F" stroke="none" fill-rule="evenodd"></path></svg>