<svg width="16" height="16" viewBox="0 0 16 16" fill="none" xmlns="http://www.w3.org/2000/svg"><path d="M9.000 2.681 C 8.050 2.859,7.089 3.386,6.548 4.025 C 6.392 4.208,6.385 4.213,6.264 4.213 C 6.103 4.213,5.716 4.281,5.480 4.350 C 4.768 4.560,4.105 5.068,3.670 5.737 C 3.452 6.073,3.437 6.088,3.080 6.319 C 2.367 6.779,1.836 7.547,1.668 8.356 C 1.607 8.651,1.612 9.353,1.677 9.667 C 1.885 10.670,2.659 11.586,3.616 11.962 C 4.069 12.139,4.575 12.221,4.941 12.175 C 5.229 12.139,5.479 11.896,5.565 11.568 C 5.604 11.419,5.606 11.374,5.577 11.244 C 5.508 10.939,5.260 10.701,4.950 10.644 C 4.875 10.630,4.706 10.599,4.575 10.575 C 4.444 10.550,4.276 10.505,4.202 10.474 C 4.010 10.394,3.759 10.211,3.615 10.047 C 3.469 9.880,3.294 9.555,3.252 9.372 C 3.208 9.180,3.215 8.811,3.267 8.612 C 3.333 8.356,3.503 8.049,3.674 7.878 C 3.841 7.711,4.274 7.480,4.569 7.400 L 4.738 7.354 4.798 7.164 C 5.007 6.496,5.367 6.080,5.892 5.901 C 6.039 5.851,6.123 5.841,6.427 5.842 C 6.625 5.842,6.877 5.858,6.987 5.878 C 7.120 5.902,7.198 5.905,7.220 5.887 C 7.238 5.872,7.346 5.711,7.460 5.528 C 7.723 5.106,7.899 4.891,8.126 4.719 C 8.351 4.548,8.784 4.335,9.013 4.281 C 9.243 4.228,9.919 4.227,10.173 4.280 C 10.422 4.332,10.859 4.551,11.099 4.744 C 11.380 4.971,11.667 5.348,11.799 5.667 C 11.952 6.034,12.003 6.579,11.935 7.114 L 11.890 7.468 12.194 7.767 C 12.450 8.019,12.513 8.098,12.593 8.267 C 12.751 8.600,12.780 8.711,12.781 8.973 C 12.781 9.393,12.643 9.754,12.360 10.070 C 12.084 10.380,11.846 10.497,11.278 10.600 C 10.781 10.691,10.602 10.800,10.471 11.093 C 10.405 11.243,10.400 11.541,10.461 11.686 C 10.515 11.813,10.731 12.044,10.853 12.106 C 10.990 12.175,11.226 12.194,11.568 12.161 C 12.586 12.064,13.579 11.371,14.054 10.427 C 14.285 9.968,14.385 9.519,14.383 8.960 C 14.382 8.599,14.373 8.514,14.311 8.286 C 14.178 7.796,13.985 7.386,13.731 7.051 L 13.600 6.877 13.600 6.645 C 13.600 5.848,13.356 5.046,12.911 4.376 C 12.721 4.091,12.298 3.648,12.003 3.424 C 11.867 3.321,11.605 3.166,11.360 3.044 C 10.704 2.717,10.496 2.666,9.747 2.652 C 9.349 2.644,9.159 2.652,9.000 2.681 M7.613 7.523 C 7.375 7.674,6.109 8.964,6.048 9.118 C 6.011 9.212,6.012 9.510,6.050 9.645 C 6.094 9.803,6.260 10.000,6.423 10.089 C 6.598 10.184,6.887 10.213,7.060 10.153 L 7.173 10.113 7.174 10.196 C 7.175 10.242,7.186 10.852,7.200 11.551 C 7.227 12.984,7.219 12.932,7.436 13.143 C 7.631 13.333,7.730 13.373,8.000 13.373 C 8.270 13.373,8.369 13.333,8.564 13.143 C 8.788 12.925,8.779 12.991,8.794 11.459 C 8.806 10.274,8.813 10.106,8.847 10.119 C 9.064 10.202,9.356 10.202,9.532 10.119 C 9.668 10.054,9.865 9.851,9.930 9.707 C 9.990 9.574,10.003 9.243,9.953 9.119 C 9.883 8.944,8.483 7.552,8.302 7.476 C 8.251 7.455,8.118 7.440,7.979 7.440 C 7.762 7.440,7.734 7.446,7.613 7.523 " fill="#1A1C1F" stroke="none" fill-rule="evenodd"></path></svg>