<svg width="16" height="16" viewBox="0 0 16 16" fill="none" xmlns="http://www.w3.org/2000/svg"><path d="M3.067 1.623 C 2.229 1.639,2.110 1.646,2.032 1.688 C 1.901 1.759,1.744 1.927,1.668 2.078 L 1.600 2.212 1.600 8.021 L 1.600 13.830 1.676 13.948 C 1.764 14.086,1.982 14.295,2.101 14.357 C 2.175 14.395,2.408 14.400,4.292 14.400 L 6.400 14.400 6.400 13.600 L 6.400 12.800 4.800 12.800 L 3.200 12.800 3.200 8.000 L 3.200 3.200 5.184 3.200 L 7.169 3.200 7.178 4.100 C 7.187 4.865,7.195 5.015,7.233 5.099 C 7.295 5.241,7.504 5.454,7.649 5.526 L 7.773 5.587 9.487 5.596 L 11.200 5.605 11.199 5.222 C 11.198 4.650,11.173 4.505,11.051 4.352 C 10.928 4.198,8.647 1.919,8.475 1.779 C 8.386 1.706,8.312 1.671,8.209 1.653 C 8.029 1.621,4.328 1.600,3.067 1.623 M9.987 6.429 C 8.322 6.603,6.896 7.872,6.508 9.524 C 6.197 10.850,6.597 12.214,7.593 13.216 C 8.127 13.754,8.730 14.094,9.502 14.292 C 9.806 14.370,9.837 14.373,10.400 14.373 C 10.963 14.373,10.994 14.370,11.298 14.292 C 12.066 14.095,12.669 13.756,13.197 13.225 C 13.779 12.641,14.146 11.975,14.313 11.200 C 14.407 10.767,14.411 10.066,14.323 9.653 C 14.143 8.808,13.765 8.129,13.144 7.533 C 12.693 7.101,12.179 6.788,11.613 6.601 C 11.168 6.454,10.463 6.379,9.987 6.429 M11.960 9.600 L 12.413 10.054 11.260 11.207 L 10.107 12.360 9.465 11.720 C 9.112 11.368,8.762 11.010,8.687 10.925 L 8.551 10.769 9.015 10.305 L 9.480 9.840 9.800 10.160 L 10.120 10.481 10.773 9.814 C 11.133 9.447,11.445 9.146,11.467 9.146 C 11.489 9.147,11.711 9.351,11.960 9.600 " fill="#1A1C1F" stroke="none" fill-rule="evenodd"></path></svg>