<svg width="12" height="12" viewBox="0 0 12 12" fill="none" xmlns="http://www.w3.org/2000/svg"><path d="M2.900 1.234 C 2.851 1.237,2.789 1.245,2.763 1.251 C 2.693 1.267,2.503 1.456,2.448 1.564 L 2.400 1.659 2.400 6.000 L 2.400 10.341 2.450 10.440 C 2.512 10.563,2.610 10.662,2.746 10.740 L 2.850 10.800 5.996 10.800 L 9.141 10.800 9.241 10.749 C 9.369 10.685,9.485 10.569,9.549 10.441 L 9.600 10.341 9.598 7.526 C 9.597 5.977,9.590 4.408,9.583 4.038 L 9.570 3.367 9.512 3.288 C 9.432 3.180,7.785 1.538,7.596 1.377 L 7.441 1.246 7.126 1.233 C 6.813 1.220,3.073 1.221,2.900 1.234 M6.584 3.075 C 6.592 3.838,6.590 3.827,6.751 3.999 C 6.929 4.189,6.929 4.189,7.715 4.197 L 8.400 4.204 8.400 6.902 L 8.400 9.600 6.000 9.600 L 3.600 9.600 3.600 6.000 L 3.600 2.400 5.088 2.400 L 6.576 2.400 6.584 3.075 M4.800 5.990 L 4.800 6.580 6.000 6.580 L 7.200 6.580 7.200 5.990 L 7.200 5.400 6.000 5.400 L 4.800 5.400 4.800 5.990 M4.800 7.800 L 4.800 8.400 6.000 8.400 L 7.200 8.400 7.200 7.800 L 7.200 7.200 6.000 7.200 L 4.800 7.200 4.800 7.800 " fill="#1A1C1F" stroke="none" fill-rule="evenodd"></path></svg>