<svg width="20" height="20" viewBox="0 0 20 20" fill="none" xmlns="http://www.w3.org/2000/svg"><path d="M4.850 2.056 C 4.758 2.062,4.648 2.075,4.605 2.085 C 4.488 2.112,4.171 2.427,4.080 2.607 L 4.000 2.764 4.000 10.000 L 4.000 17.236 4.084 17.402 C 4.192 17.615,4.385 17.808,4.598 17.916 L 4.764 18.000 10.000 18.000 L 15.236 18.000 15.402 17.916 C 15.615 17.808,15.808 17.615,15.916 17.402 L 16.000 17.236 15.996 12.543 C 15.994 9.962,15.983 7.346,15.971 6.731 L 15.950 5.611 15.854 5.481 C 15.722 5.302,12.979 2.567,12.659 2.296 L 12.402 2.077 11.926 2.055 C 11.458 2.034,5.175 2.035,4.850 2.056 M10.973 5.125 C 10.987 6.397,10.984 6.379,11.251 6.665 C 11.548 6.982,11.548 6.982,12.858 6.995 L 14.000 7.007 14.000 11.503 L 14.000 16.000 10.000 16.000 L 6.000 16.000 6.000 10.000 L 6.000 4.000 8.480 4.000 L 10.961 4.000 10.973 5.125 M8.000 9.983 L 8.000 10.967 10.000 10.967 L 12.000 10.967 12.000 9.983 L 12.000 9.000 10.000 9.000 L 8.000 9.000 8.000 9.983 M8.000 13.000 L 8.000 14.000 10.000 14.000 L 12.000 14.000 12.000 13.000 L 12.000 12.000 10.000 12.000 L 8.000 12.000 8.000 13.000 " fill="#1A1C1F" stroke="none" fill-rule="evenodd"></path></svg>