<svg width="14" height="14" viewBox="0 0 14 14" fill="none" xmlns="http://www.w3.org/2000/svg"><path d="M2.694 1.420 L 1.854 1.435 1.731 1.514 C 1.599 1.599,1.528 1.680,1.449 1.837 L 1.400 1.935 1.400 7.000 L 1.400 12.065 1.448 12.160 C 1.517 12.294,1.671 12.454,1.808 12.532 L 1.925 12.600 3.763 12.600 L 5.600 12.600 5.600 11.900 L 5.600 11.200 4.200 11.200 L 2.800 11.200 2.800 7.000 L 2.800 2.800 4.536 2.800 L 6.272 2.800 6.280 3.588 C 6.290 4.491,6.290 4.494,6.511 4.701 C 6.737 4.911,6.624 4.899,8.313 4.899 L 9.800 4.900 9.799 4.567 C 9.798 4.069,9.776 3.942,9.670 3.808 C 9.563 3.674,7.567 1.680,7.416 1.556 C 7.338 1.493,7.273 1.462,7.183 1.446 C 7.026 1.419,3.819 1.400,2.694 1.420 M8.738 5.625 C 7.296 5.776,6.042 6.877,5.706 8.288 C 5.551 8.940,5.575 9.561,5.779 10.173 C 5.956 10.701,6.184 11.076,6.583 11.490 C 7.110 12.039,7.603 12.327,8.327 12.510 C 8.575 12.573,8.621 12.577,9.065 12.577 C 9.596 12.577,9.776 12.552,10.163 12.425 C 10.768 12.227,11.246 11.910,11.710 11.400 C 12.133 10.935,12.391 10.417,12.534 9.746 C 12.607 9.401,12.607 8.792,12.533 8.447 C 12.299 7.356,11.613 6.462,10.630 5.968 C 10.094 5.699,9.341 5.562,8.738 5.625 M10.465 8.400 L 10.861 8.797 9.852 9.806 L 8.843 10.815 8.282 10.255 C 7.973 9.947,7.667 9.634,7.601 9.559 L 7.482 9.423 7.888 9.017 L 8.295 8.610 8.575 8.890 L 8.855 9.171 9.427 8.587 C 9.741 8.266,10.014 8.003,10.034 8.003 C 10.053 8.003,10.247 8.182,10.465 8.400 " fill="#1A1C1F" stroke="none" fill-rule="evenodd"></path></svg>