<svg width="28" height="28" viewBox="0 0 28 28" fill="none" xmlns="http://www.w3.org/2000/svg"><path d="M3.782 1.960 C 3.334 2.198,2.979 2.549,2.774 2.958 L 2.613 3.279 2.613 14.003 L 2.613 24.727 2.779 25.045 C 3.009 25.487,3.390 25.861,3.844 26.089 L 4.211 26.273 7.927 26.270 C 12.226 26.266,13.342 26.235,13.569 26.117 C 13.763 26.015,13.954 25.726,13.987 25.484 C 14.019 25.246,13.828 24.832,13.611 24.667 L 13.463 24.555 10.127 24.527 C 8.292 24.511,6.260 24.486,5.611 24.471 L 4.433 24.443 4.445 14.044 C 4.454 6.328,4.470 3.631,4.510 3.591 C 4.549 3.553,5.729 3.531,8.838 3.512 L 13.113 3.486 13.113 5.821 L 13.113 8.157 13.326 8.394 C 13.456 8.538,13.607 8.652,13.711 8.685 C 13.829 8.723,14.598 8.747,16.135 8.761 L 18.387 8.782 18.388 10.096 C 18.389 11.452,18.412 11.694,18.561 11.893 C 18.764 12.165,19.234 12.290,19.569 12.162 C 19.859 12.051,20.010 11.874,20.066 11.577 C 20.094 11.430,20.113 10.400,20.113 9.069 L 20.113 6.811 19.972 6.531 C 19.873 6.334,19.614 6.022,19.104 5.481 C 18.090 4.406,15.723 2.129,15.457 1.973 L 15.237 1.843 12.717 1.813 C 11.331 1.796,8.832 1.781,7.163 1.779 L 4.130 1.776 3.782 1.960 M16.543 5.367 L 18.176 7.000 16.531 7.000 L 14.887 7.000 14.887 5.367 C 14.887 4.468,14.892 3.733,14.899 3.733 C 14.905 3.733,15.645 4.468,16.543 5.367 M7.723 12.503 C 6.461 12.533,6.425 12.543,6.245 12.896 C 6.053 13.272,6.153 13.743,6.477 13.990 C 6.627 14.105,6.688 14.117,7.228 14.147 C 7.552 14.164,9.063 14.180,10.586 14.183 L 13.355 14.187 13.561 14.038 C 13.835 13.842,14.025 13.469,13.978 13.221 C 13.934 12.984,13.787 12.709,13.661 12.627 C 13.604 12.589,13.452 12.548,13.323 12.534 C 12.954 12.495,8.957 12.472,7.723 12.503 M18.340 14.097 C 17.465 14.192,16.398 14.634,15.607 15.229 C 15.228 15.514,14.389 16.385,14.143 16.748 C 13.757 17.319,13.386 18.243,13.228 19.034 C 13.164 19.350,13.154 19.597,13.173 20.318 C 13.199 21.304,13.272 21.673,13.600 22.466 C 14.277 24.100,15.677 25.385,17.383 25.940 C 19.941 26.770,22.803 25.781,24.313 23.543 C 24.996 22.531,25.345 21.373,25.345 20.113 C 25.345 18.806,24.987 17.657,24.267 16.654 C 23.444 15.508,22.225 14.631,20.936 14.259 C 20.240 14.058,19.261 13.997,18.340 14.097 M20.642 15.995 C 21.201 16.189,21.731 16.517,22.201 16.960 C 22.672 17.404,22.927 17.751,23.210 18.331 C 23.502 18.931,23.527 19.097,23.511 20.285 L 23.497 21.304 23.208 21.887 C 22.854 22.603,22.444 23.131,21.922 23.544 C 21.258 24.069,20.523 24.374,19.712 24.460 C 18.431 24.596,17.181 24.162,16.262 23.263 C 15.811 22.821,15.567 22.472,15.243 21.799 L 15.003 21.303 14.988 20.288 C 14.979 19.655,14.993 19.177,15.026 19.019 C 15.092 18.703,15.436 17.989,15.701 17.617 C 16.142 16.999,16.958 16.350,17.644 16.071 C 18.177 15.855,18.430 15.820,19.367 15.837 C 20.189 15.851,20.249 15.858,20.642 15.995 M7.187 16.003 C 6.564 16.034,6.395 16.106,6.243 16.401 C 6.054 16.770,6.154 17.244,6.474 17.488 C 6.616 17.596,6.697 17.616,7.133 17.646 C 7.406 17.665,8.524 17.682,9.616 17.684 L 11.601 17.687 11.788 17.566 C 12.197 17.300,12.335 16.835,12.125 16.427 C 11.943 16.074,11.825 16.026,11.052 15.991 C 10.288 15.956,7.985 15.963,7.187 16.003 M20.603 18.452 C 20.413 18.534,19.584 19.288,19.029 19.883 L 18.576 20.369 18.376 20.177 C 17.847 19.667,17.561 19.569,17.154 19.755 C 16.871 19.885,16.687 20.114,16.635 20.403 C 16.587 20.667,16.743 20.933,17.269 21.484 C 17.879 22.122,18.187 22.358,18.451 22.388 C 18.859 22.434,18.931 22.382,20.162 21.145 C 21.564 19.737,21.700 19.573,21.700 19.291 C 21.700 19.177,21.672 19.016,21.637 18.933 C 21.554 18.733,21.279 18.497,21.060 18.436 C 20.836 18.374,20.776 18.376,20.603 18.452 M6.514 19.612 C 6.138 19.827,6.019 20.395,6.273 20.761 C 6.346 20.867,6.482 21.001,6.575 21.058 C 6.741 21.161,6.768 21.163,8.751 21.180 L 10.759 21.197 11.000 20.980 C 11.141 20.853,11.263 20.695,11.296 20.596 C 11.418 20.224,11.315 19.832,11.037 19.621 L 10.888 19.507 8.792 19.507 C 6.710 19.508,6.696 19.509,6.514 19.612 " fill="#1A1C1F" stroke="none" fill-rule="evenodd"></path></svg>