<svg width="32" height="32" viewBox="0 0 32 32" fill="none" xmlns="http://www.w3.org/2000/svg"><path d="M4.323 2.240 C 3.810 2.512,3.405 2.913,3.171 3.380 L 2.987 3.748 2.987 16.003 L 2.987 28.259 3.176 28.623 C 3.438 29.128,3.875 29.556,4.393 29.816 L 4.812 30.027 9.060 30.023 C 13.973 30.018,15.248 29.983,15.507 29.848 C 15.729 29.731,15.948 29.401,15.985 29.125 C 16.021 28.852,15.804 28.379,15.556 28.191 L 15.387 28.063 11.573 28.031 C 9.476 28.013,7.154 27.984,6.413 27.967 L 5.066 27.935 5.080 16.050 C 5.090 7.315,5.109 4.149,5.153 4.105 C 5.197 4.062,6.581 4.036,10.100 4.014 L 14.987 3.983 14.987 6.652 L 14.987 9.322 15.230 9.593 C 15.379 9.758,15.551 9.888,15.670 9.926 C 15.804 9.969,16.684 9.996,18.440 10.013 L 21.013 10.037 21.015 11.538 C 21.016 13.089,21.043 13.364,21.213 13.592 C 21.444 13.902,21.982 14.046,22.365 13.899 C 22.696 13.773,22.868 13.570,22.933 13.231 C 22.964 13.063,22.987 11.886,22.987 10.365 L 22.987 7.784 22.826 7.466 C 22.716 7.248,22.420 6.887,21.880 6.312 C 20.768 5.129,17.967 2.432,17.666 2.255 L 17.413 2.107 14.667 2.072 C 13.156 2.052,10.300 2.035,8.320 2.033 L 4.720 2.029 4.323 2.240 M18.907 6.133 L 20.773 8.000 18.893 8.000 L 17.013 8.000 17.013 6.133 C 17.013 5.107,17.019 4.267,17.027 4.267 C 17.034 4.267,17.880 5.107,18.907 6.133 M8.880 14.291 C 7.377 14.324,7.345 14.332,7.137 14.738 C 6.918 15.168,7.032 15.706,7.401 15.988 C 7.571 16.117,7.646 16.134,8.234 16.167 C 8.589 16.188,10.316 16.207,12.071 16.209 L 15.263 16.213 15.498 16.045 C 15.749 15.864,16.000 15.442,15.999 15.203 C 15.999 15.002,15.762 14.528,15.614 14.431 C 15.544 14.385,15.344 14.336,15.170 14.322 C 14.655 14.280,10.324 14.259,8.880 14.291 M20.960 16.107 C 19.949 16.226,18.729 16.733,17.836 17.405 C 17.412 17.724,16.446 18.723,16.178 19.120 C 15.786 19.700,15.457 20.447,15.217 21.306 C 15.102 21.716,15.078 21.933,15.055 22.782 C 15.024 23.890,15.061 24.213,15.313 25.040 C 15.981 27.232,17.718 28.981,19.893 29.654 C 21.640 30.194,23.444 30.056,25.093 29.257 C 26.247 28.697,27.360 27.667,28.018 26.550 C 29.047 24.801,29.263 22.704,28.613 20.766 C 27.849 18.491,25.928 16.763,23.520 16.186 C 23.104 16.086,21.544 16.038,20.960 16.107 M23.590 18.280 C 24.230 18.502,24.835 18.877,25.373 19.383 C 25.891 19.871,26.190 20.272,26.501 20.894 C 26.844 21.578,26.880 21.785,26.880 23.049 C 26.880 24.278,26.867 24.346,26.499 25.086 C 26.190 25.709,25.941 26.061,25.494 26.508 C 24.828 27.176,24.029 27.633,23.120 27.868 C 22.619 27.997,21.397 28.003,20.923 27.878 C 19.957 27.622,19.169 27.182,18.529 26.539 C 18.063 26.071,17.774 25.647,17.420 24.914 L 17.147 24.347 17.130 23.133 C 17.111 21.759,17.133 21.626,17.504 20.884 C 17.803 20.286,18.103 19.880,18.594 19.412 C 19.058 18.968,19.643 18.579,20.165 18.367 C 20.773 18.120,21.063 18.080,22.133 18.099 C 23.074 18.115,23.142 18.124,23.590 18.280 M8.213 18.289 C 7.735 18.313,7.560 18.344,7.419 18.427 C 7.014 18.664,6.888 19.322,7.169 19.727 C 7.253 19.848,7.408 20.001,7.514 20.067 C 7.706 20.186,7.714 20.186,10.480 20.204 L 13.253 20.221 13.469 20.079 C 13.941 19.768,14.097 19.241,13.857 18.774 C 13.649 18.371,13.514 18.316,12.631 18.275 C 11.758 18.235,9.126 18.244,8.213 18.289 M23.546 21.087 C 23.359 21.169,22.494 21.945,21.738 22.711 L 21.209 23.246 20.890 22.957 C 20.487 22.593,20.163 22.430,19.919 22.470 C 19.459 22.545,19.152 22.818,19.034 23.259 C 18.975 23.480,18.980 23.527,19.090 23.753 C 19.227 24.035,20.113 24.988,20.558 25.332 C 20.771 25.496,20.919 25.567,21.087 25.586 C 21.553 25.639,21.635 25.579,23.042 24.166 C 24.676 22.526,24.800 22.374,24.800 22.019 C 24.800 21.874,24.765 21.687,24.723 21.605 C 24.610 21.388,24.300 21.134,24.068 21.070 C 23.813 20.999,23.744 21.001,23.546 21.087 M7.436 22.425 C 7.014 22.678,6.884 23.316,7.170 23.729 C 7.254 23.849,7.408 24.001,7.514 24.067 C 7.704 24.185,7.735 24.186,10.001 24.205 L 12.296 24.225 12.571 23.977 C 12.732 23.832,12.872 23.651,12.909 23.539 C 13.050 23.113,12.931 22.665,12.614 22.424 L 12.443 22.293 10.048 22.294 L 7.653 22.294 7.436 22.425 " fill="#1A1C1F" stroke="none" fill-rule="evenodd"></path></svg>