<svg width="28" height="28" viewBox="0 0 28 28" fill="none" xmlns="http://www.w3.org/2000/svg"><path d="M6.697 1.864 C 6.125 1.962,5.514 2.565,5.338 3.205 C 5.253 3.512,5.250 3.893,5.250 14.000 C 5.250 23.912,5.254 24.493,5.333 24.778 C 5.520 25.456,6.045 25.980,6.724 26.167 C 7.004 26.245,7.466 26.250,14.000 26.250 C 20.534 26.250,20.996 26.245,21.276 26.167 C 21.956 25.979,22.483 25.453,22.664 24.779 C 22.739 24.499,22.746 23.933,22.761 17.110 C 22.777 9.900,22.741 6.981,22.633 6.613 C 22.605 6.516,22.451 6.285,22.293 6.100 C 21.837 5.569,18.674 2.416,18.363 2.184 C 17.828 1.782,18.449 1.819,12.334 1.826 C 9.336 1.829,6.799 1.846,6.697 1.864 M15.737 5.802 L 15.750 8.104 15.879 8.298 C 15.950 8.405,16.095 8.550,16.202 8.621 L 16.396 8.750 18.706 8.764 L 21.015 8.777 20.987 16.520 C 20.968 21.701,20.943 24.292,20.911 24.352 C 20.864 24.439,20.762 24.443,18.120 24.478 C 14.629 24.523,7.189 24.474,7.119 24.405 C 7.042 24.328,6.992 17.323,7.018 10.103 C 7.030 6.613,7.054 3.710,7.072 3.653 C 7.103 3.549,7.113 3.548,8.160 3.535 C 8.741 3.528,10.681 3.517,12.470 3.511 L 15.723 3.500 15.737 5.802 M19.157 5.367 L 20.789 7.000 19.145 7.000 L 17.500 7.000 17.500 5.367 C 17.500 4.468,17.505 3.733,17.512 3.733 C 17.518 3.733,18.259 4.468,19.157 5.367 M9.505 12.308 C 9.255 12.323,9.216 12.342,9.029 12.528 C 8.620 12.938,8.703 13.549,9.215 13.881 L 9.403 14.003 13.977 13.990 L 18.550 13.977 18.770 13.868 C 19.028 13.741,19.168 13.540,19.210 13.236 C 19.246 12.970,19.143 12.671,18.951 12.487 C 18.831 12.373,18.766 12.354,18.357 12.318 C 17.927 12.279,10.102 12.271,9.505 12.308 M9.505 15.808 C 9.255 15.823,9.216 15.842,9.029 16.028 C 8.620 16.438,8.703 17.049,9.215 17.381 L 9.403 17.503 13.977 17.490 L 18.550 17.477 18.770 17.368 C 19.028 17.241,19.168 17.040,19.210 16.736 C 19.246 16.470,19.143 16.171,18.951 15.987 C 18.831 15.873,18.766 15.854,18.357 15.818 C 17.927 15.779,10.102 15.771,9.505 15.808 M9.505 19.308 C 9.255 19.323,9.216 19.342,9.029 19.528 C 8.620 19.938,8.703 20.549,9.215 20.881 L 9.403 21.003 13.977 20.990 L 18.550 20.977 18.770 20.868 C 19.028 20.741,19.168 20.540,19.210 20.236 C 19.246 19.970,19.143 19.671,18.951 19.487 C 18.831 19.373,18.766 19.354,18.357 19.318 C 17.927 19.279,10.102 19.271,9.505 19.308 " fill="#1A1C1F" stroke="none" fill-rule="evenodd"></path></svg>