<svg width="32" height="32" viewBox="0 0 32 32" fill="none" xmlns="http://www.w3.org/2000/svg"><path d="M7.653 2.130 C 7.008 2.241,6.308 2.926,6.097 3.653 C 6.011 3.952,6.003 4.719,5.986 15.138 C 5.975 21.783,5.988 26.705,6.019 27.298 C 6.079 28.475,6.151 28.725,6.558 29.182 C 6.894 29.559,7.243 29.784,7.682 29.905 C 8.006 29.994,8.511 30.000,16.000 30.000 C 23.468 30.000,23.995 29.994,24.316 29.905 C 25.093 29.691,25.695 29.089,25.902 28.319 C 25.988 27.999,25.996 27.351,26.013 19.573 C 26.031 11.342,25.990 7.986,25.866 7.558 C 25.834 7.446,25.659 7.182,25.478 6.971 C 24.962 6.370,21.343 2.763,20.987 2.496 C 20.375 2.037,21.085 2.079,14.096 2.087 C 10.670 2.090,7.771 2.110,7.653 2.130 M17.985 6.631 L 18.000 9.261 18.147 9.484 C 18.228 9.606,18.394 9.772,18.516 9.853 L 18.739 10.000 21.378 10.016 L 24.017 10.031 23.985 18.881 C 23.963 24.743,23.934 27.765,23.898 27.832 C 23.845 27.930,23.717 27.936,20.708 27.975 C 16.719 28.027,8.215 27.970,8.136 27.891 C 8.049 27.803,7.991 19.720,8.020 11.493 C 8.034 7.533,8.062 4.240,8.082 4.174 C 8.118 4.057,8.132 4.055,9.273 4.040 C 9.907 4.031,12.124 4.019,14.198 4.012 L 17.970 4.000 17.985 6.631 M21.893 6.133 L 23.759 8.000 21.880 8.000 L 20.000 8.000 20.000 6.133 C 20.000 5.107,20.006 4.267,20.014 4.267 C 20.021 4.267,20.867 5.107,21.893 6.133 M10.881 14.066 C 9.951 14.130,9.702 15.410,10.536 15.839 L 10.797 15.973 15.999 15.973 L 21.200 15.973 21.451 15.850 C 21.746 15.704,21.906 15.474,21.954 15.127 C 21.996 14.823,21.878 14.481,21.658 14.271 C 21.522 14.141,21.447 14.119,20.979 14.077 C 20.484 14.033,11.509 14.023,10.881 14.066 M10.881 18.066 C 9.951 18.130,9.702 19.410,10.536 19.839 L 10.797 19.973 15.999 19.973 L 21.200 19.973 21.451 19.850 C 21.746 19.704,21.906 19.474,21.954 19.127 C 21.996 18.823,21.878 18.481,21.658 18.271 C 21.522 18.141,21.447 18.119,20.979 18.077 C 20.484 18.033,11.509 18.023,10.881 18.066 M10.881 22.066 C 9.951 22.130,9.702 23.410,10.536 23.839 L 10.797 23.973 15.999 23.973 L 21.200 23.973 21.451 23.850 C 21.746 23.704,21.906 23.474,21.954 23.127 C 21.996 22.823,21.878 22.481,21.658 22.271 C 21.522 22.141,21.447 22.119,20.979 22.077 C 20.484 22.033,11.509 22.023,10.881 22.066 " fill="#1A1C1F" stroke="none" fill-rule="evenodd"></path></svg>