<svg width="24" height="24" viewBox="0 0 24 24" fill="none" xmlns="http://www.w3.org/2000/svg"><path d="M2.675 2.068 C 2.541 2.089,2.274 2.316,2.119 2.541 L 2.000 2.714 2.000 12.000 L 2.000 21.286 2.119 21.458 C 2.184 21.554,2.319 21.702,2.417 21.789 L 2.597 21.948 3.109 21.974 C 3.390 21.988,4.879 22.000,6.417 22.000 C 9.156 22.000,9.218 21.998,9.384 21.918 C 9.638 21.795,9.864 21.528,9.943 21.256 C 9.999 21.062,10.002 20.993,9.962 20.812 C 9.881 20.450,9.595 20.143,9.274 20.072 C 9.178 20.051,7.953 20.024,6.550 20.012 L 4.000 19.991 4.000 11.995 L 4.000 4.000 6.500 4.000 L 9.000 4.000 9.000 6.107 C 9.000 8.179,9.001 8.218,9.086 8.392 C 9.133 8.489,9.234 8.632,9.311 8.709 C 9.587 8.984,9.450 8.972,12.467 8.992 C 15.181 9.010,15.196 9.009,15.370 8.925 C 15.601 8.813,15.793 8.621,15.896 8.400 C 15.972 8.237,15.980 8.148,15.980 7.457 L 15.980 6.693 15.860 6.517 C 15.733 6.331,12.271 2.853,11.744 2.382 C 11.442 2.112,11.424 2.102,11.166 2.074 C 10.896 2.044,2.868 2.038,2.675 2.068 M12.300 5.720 L 13.580 7.000 12.290 7.000 L 11.000 7.000 11.000 5.720 C 11.000 5.016,11.005 4.440,11.010 4.440 C 11.016 4.440,11.596 5.016,12.300 5.720 M15.240 10.080 C 13.683 10.189,11.925 11.294,10.976 12.762 C 10.589 13.361,10.247 14.193,10.104 14.888 C 10.007 15.358,10.016 16.660,10.120 17.151 C 10.368 18.330,10.915 19.346,11.760 20.200 C 12.553 21.001,13.432 21.509,14.580 21.829 C 14.970 21.937,15.006 21.940,16.000 21.940 C 17.000 21.940,17.028 21.938,17.420 21.826 C 18.242 21.593,19.086 21.185,19.611 20.767 C 19.991 20.465,20.757 19.656,20.976 19.326 C 21.400 18.687,21.757 17.813,21.905 17.054 C 22.000 16.563,21.999 15.435,21.904 14.943 C 21.504 12.875,20.138 11.228,18.158 10.422 C 17.625 10.205,17.183 10.113,16.502 10.077 C 15.806 10.041,15.800 10.041,15.240 10.080 M6.980 12.037 C 6.621 12.067,6.527 12.106,6.307 12.315 C 6.089 12.521,6.031 12.653,6.033 12.942 C 6.035 13.403,6.199 13.713,6.534 13.890 C 6.689 13.973,6.753 13.978,7.500 13.978 C 8.247 13.978,8.311 13.973,8.466 13.890 C 8.670 13.782,8.853 13.566,8.914 13.363 C 8.976 13.156,8.972 12.746,8.906 12.589 C 8.835 12.420,8.529 12.142,8.357 12.089 C 8.176 12.033,7.382 12.003,6.980 12.037 M19.380 13.960 L 19.939 14.520 17.432 17.028 L 14.925 19.535 14.673 19.308 C 14.534 19.184,13.889 18.560,13.240 17.921 L 12.060 16.761 12.636 16.197 L 13.212 15.633 14.046 16.466 L 14.880 17.300 16.830 15.350 C 17.902 14.277,18.789 13.400,18.800 13.400 C 18.812 13.400,19.073 13.652,19.380 13.960 M6.789 16.044 C 6.317 16.153,6.026 16.519,6.026 17.000 C 6.026 17.452,6.302 17.814,6.743 17.943 C 7.125 18.054,7.468 17.947,7.737 17.632 C 8.002 17.323,8.057 16.908,7.879 16.560 C 7.688 16.186,7.191 15.951,6.789 16.044 " fill="#1A1C1F" stroke="none" fill-rule="evenodd"></path></svg>