<svg width="24" height="24" viewBox="0 0 24 24" fill="none" xmlns="http://www.w3.org/2000/svg"><path d="M5.675 2.067 C 5.540 2.089,5.274 2.317,5.119 2.541 L 5.000 2.714 5.000 12.000 L 5.000 21.286 5.119 21.458 C 5.184 21.554,5.319 21.702,5.417 21.789 L 5.597 21.947 6.805 21.974 C 8.369 22.008,15.631 22.008,17.195 21.974 L 18.403 21.947 18.583 21.789 C 18.681 21.702,18.816 21.554,18.881 21.458 L 19.000 21.286 19.000 14.013 C 19.000 6.846,18.999 6.738,18.921 6.611 C 18.736 6.307,14.791 2.353,14.450 2.130 C 14.351 2.065,14.065 2.060,10.062 2.055 C 7.707 2.052,5.733 2.058,5.675 2.067 M12.000 6.112 L 12.000 8.224 12.104 8.432 C 12.220 8.665,12.430 8.859,12.640 8.927 C 12.733 8.956,13.488 8.978,14.890 8.990 L 17.000 9.008 17.000 14.504 L 17.000 20.000 12.000 20.000 L 7.000 20.000 7.000 12.000 L 7.000 4.000 9.500 4.000 L 12.000 4.000 12.000 6.112 M15.300 5.720 L 16.580 7.000 15.290 7.000 L 14.000 7.000 14.000 5.720 C 14.000 5.016,14.005 4.440,14.010 4.440 C 14.016 4.440,14.596 5.016,15.300 5.720 M10.420 12.037 C 9.684 12.059,9.654 12.063,9.474 12.169 C 9.260 12.295,9.043 12.595,9.034 12.777 C 9.008 13.342,9.166 13.694,9.534 13.891 C 9.700 13.980,9.700 13.980,12.000 13.980 C 14.300 13.980,14.300 13.980,14.466 13.891 C 14.801 13.712,14.960 13.414,14.960 12.964 C 14.960 12.644,14.896 12.502,14.651 12.274 C 14.477 12.112,14.423 12.084,14.236 12.065 C 13.898 12.031,11.263 12.011,10.420 12.037 M10.420 16.037 C 9.684 16.059,9.654 16.063,9.474 16.169 C 9.260 16.295,9.043 16.595,9.034 16.777 C 9.008 17.342,9.166 17.694,9.534 17.891 C 9.700 17.980,9.700 17.980,12.000 17.980 C 14.300 17.980,14.300 17.980,14.466 17.891 C 14.801 17.712,14.960 17.414,14.960 16.964 C 14.960 16.644,14.896 16.502,14.651 16.274 C 14.477 16.112,14.423 16.084,14.236 16.065 C 13.898 16.031,11.263 16.011,10.420 16.037 " fill="#1A1C1F" stroke="none" fill-rule="evenodd"></path></svg>