<svg width="16" height="16" viewBox="0 0 16 16" fill="none" xmlns="http://www.w3.org/2000/svg"><path d="M3.880 1.645 C 3.807 1.650,3.718 1.660,3.684 1.668 C 3.590 1.689,3.337 1.942,3.264 2.086 L 3.200 2.212 3.200 8.021 L 3.200 13.830 3.276 13.948 C 3.318 14.013,3.412 14.122,3.485 14.190 C 3.734 14.422,3.266 14.400,8.007 14.400 L 12.231 14.400 12.349 14.322 C 12.487 14.230,12.633 14.082,12.731 13.936 L 12.800 13.833 12.797 10.123 C 12.796 8.083,12.787 5.980,12.777 5.451 L 12.760 4.489 12.683 4.385 C 12.578 4.242,10.444 2.114,10.155 1.863 L 9.923 1.662 9.542 1.644 C 9.166 1.627,4.141 1.628,3.880 1.645 M8.778 4.100 C 8.790 5.118,8.787 5.103,9.001 5.332 C 9.238 5.585,9.238 5.585,10.287 5.596 L 11.200 5.605 11.200 9.203 L 11.200 12.800 8.000 12.800 L 4.800 12.800 4.800 8.000 L 4.800 3.200 6.784 3.200 L 8.769 3.200 8.778 4.100 M6.400 7.987 L 6.400 8.773 8.000 8.773 L 9.600 8.773 9.600 7.987 L 9.600 7.200 8.000 7.200 L 6.400 7.200 6.400 7.987 M6.400 10.400 L 6.400 11.200 8.000 11.200 L 9.600 11.200 9.600 10.400 L 9.600 9.600 8.000 9.600 L 6.400 9.600 6.400 10.400 " fill="#1A1C1F" stroke="none" fill-rule="evenodd"></path></svg>