<svg width="20" height="20" viewBox="0 0 20 20" fill="none" xmlns="http://www.w3.org/2000/svg"><path d="M3.867 2.029 C 2.786 2.048,2.638 2.058,2.540 2.111 C 2.384 2.195,2.195 2.393,2.090 2.581 L 2.000 2.742 2.000 9.989 L 2.000 17.236 2.084 17.402 C 2.192 17.615,2.385 17.808,2.598 17.916 L 2.764 18.000 5.382 18.000 L 8.000 18.000 8.000 17.000 L 8.000 16.000 6.000 16.000 L 4.000 16.000 4.000 10.000 L 4.000 4.000 6.480 4.000 L 8.961 4.000 8.973 5.125 C 8.984 6.082,8.994 6.269,9.041 6.374 C 9.119 6.551,9.380 6.817,9.562 6.907 L 9.717 6.983 11.858 6.995 L 14.000 7.006 13.999 6.528 C 13.997 5.813,13.966 5.631,13.814 5.441 C 13.661 5.249,10.810 2.401,10.594 2.224 C 10.478 2.128,10.393 2.090,10.245 2.065 C 10.004 2.025,5.541 2.000,3.867 2.029 M12.517 8.035 C 11.695 8.127,10.906 8.413,10.232 8.863 C 9.784 9.163,9.239 9.699,8.907 10.167 C 8.560 10.656,8.209 11.470,8.086 12.074 C 8.012 12.433,8.013 13.570,8.086 13.926 C 8.376 15.330,9.265 16.571,10.521 17.326 C 10.861 17.530,11.382 17.738,11.879 17.866 C 12.255 17.963,12.299 17.967,12.961 17.966 C 13.745 17.964,13.979 17.932,14.517 17.753 C 15.385 17.462,16.132 16.965,16.750 16.267 C 17.335 15.605,17.707 14.849,17.906 13.922 C 18.010 13.433,18.009 12.563,17.904 12.067 C 17.518 10.259,16.250 8.828,14.534 8.266 C 13.916 8.063,13.099 7.970,12.517 8.035 M14.950 12.000 L 15.516 12.567 14.075 14.008 L 12.634 15.450 11.831 14.650 C 11.390 14.210,10.952 13.763,10.859 13.656 L 10.689 13.462 11.269 12.881 L 11.849 12.300 12.250 12.700 L 12.650 13.101 13.467 12.267 C 13.916 11.808,14.306 11.433,14.334 11.433 C 14.361 11.433,14.639 11.688,14.950 12.000 " fill="#1A1C1F" stroke="none" fill-rule="evenodd"></path></svg>