<svg width="14" height="14" viewBox="0 0 14 14" fill="none" xmlns="http://www.w3.org/2000/svg"><path d="M3.348 1.445 C 3.271 1.453,3.187 1.472,3.162 1.486 C 3.083 1.531,2.901 1.733,2.849 1.831 L 2.800 1.924 2.800 6.995 L 2.800 12.065 2.848 12.160 C 2.917 12.294,3.071 12.454,3.208 12.532 L 3.325 12.600 7.000 12.600 L 10.675 12.600 10.792 12.532 C 10.929 12.454,11.083 12.294,11.152 12.160 C 11.200 12.065,11.200 12.059,11.198 8.815 C 11.196 7.028,11.188 5.197,11.180 4.746 L 11.165 3.928 11.097 3.836 C 11.004 3.710,9.083 1.794,8.862 1.607 L 8.682 1.454 8.313 1.439 C 7.855 1.420,3.540 1.425,3.348 1.445 M7.681 3.588 C 7.691 4.478,7.689 4.465,7.876 4.665 C 8.083 4.887,8.084 4.887,9.001 4.896 L 9.800 4.905 9.800 8.052 L 9.800 11.200 7.000 11.200 L 4.200 11.200 4.200 7.000 L 4.200 2.800 5.936 2.800 L 7.672 2.800 7.681 3.588 M5.600 6.988 L 5.600 7.677 7.000 7.677 L 8.400 7.677 8.400 6.988 L 8.400 6.300 7.000 6.300 L 5.600 6.300 5.600 6.988 M5.600 9.100 L 5.600 9.800 7.000 9.800 L 8.400 9.800 8.400 9.100 L 8.400 8.400 7.000 8.400 L 5.600 8.400 5.600 9.100 " fill="#1A1C1F" stroke="none" fill-rule="evenodd"></path></svg>