<svg width="12" height="12" viewBox="0 0 12 12" fill="none" xmlns="http://www.w3.org/2000/svg"><path d="M2.310 1.219 L 1.589 1.230 1.486 1.296 C 1.382 1.363,1.324 1.428,1.244 1.566 L 1.200 1.642 1.200 5.992 L 1.200 10.341 1.250 10.440 C 1.312 10.563,1.410 10.662,1.546 10.740 L 1.650 10.800 3.225 10.800 L 4.800 10.800 4.800 10.200 L 4.800 9.600 3.600 9.600 L 2.400 9.600 2.400 6.000 L 2.400 2.400 3.888 2.400 L 5.376 2.400 5.383 3.075 C 5.391 3.850,5.391 3.852,5.581 4.029 C 5.774 4.210,5.678 4.199,7.125 4.200 L 8.400 4.200 8.399 3.915 C 8.399 3.758,8.391 3.569,8.381 3.494 C 8.366 3.373,8.354 3.347,8.267 3.244 C 8.214 3.181,7.761 2.720,7.260 2.219 C 6.660 1.619,6.323 1.296,6.270 1.271 C 6.200 1.238,6.118 1.231,5.630 1.218 C 5.011 1.201,3.424 1.202,2.310 1.219 M7.520 4.822 C 6.756 4.895,6.018 5.281,5.530 5.862 C 5.263 6.181,5.072 6.522,4.943 6.912 C 4.838 7.228,4.820 7.360,4.820 7.800 C 4.820 8.238,4.838 8.367,4.941 8.683 C 5.112 9.206,5.347 9.572,5.775 9.983 C 6.107 10.300,6.443 10.502,6.885 10.649 C 7.223 10.762,7.352 10.780,7.800 10.780 C 8.248 10.780,8.363 10.763,8.714 10.647 C 9.207 10.485,9.500 10.301,9.902 9.900 C 10.375 9.430,10.605 9.008,10.742 8.360 C 10.801 8.083,10.806 7.562,10.753 7.290 C 10.623 6.623,10.346 6.118,9.845 5.638 C 9.344 5.157,8.764 4.894,8.043 4.821 C 7.815 4.798,7.768 4.798,7.520 4.822 M8.970 7.200 L 9.310 7.540 8.445 8.405 L 7.580 9.270 7.079 8.770 C 6.803 8.495,6.541 8.227,6.495 8.173 L 6.414 8.077 6.762 7.728 L 7.110 7.380 7.350 7.620 L 7.590 7.861 8.080 7.360 C 8.350 7.085,8.584 6.860,8.600 6.860 C 8.617 6.860,8.783 7.013,8.970 7.200 " fill="#1A1C1F" stroke="none" fill-rule="evenodd"></path></svg>