<svg width="28" height="28" viewBox="0 0 28 28" fill="none" xmlns="http://www.w3.org/2000/svg"><path d="M13.646 1.862 C 13.541 1.909,13.381 2.040,13.291 2.153 L 13.126 2.357 13.097 9.147 C 13.082 12.881,13.055 15.985,13.038 16.045 C 13.011 16.141,12.816 15.963,11.182 14.338 C 10.178 13.340,9.283 12.473,9.193 12.410 C 8.968 12.253,8.545 12.251,8.297 12.404 C 7.956 12.616,7.800 13.080,7.958 13.413 C 8.003 13.508,8.516 14.083,9.099 14.691 C 10.222 15.863,12.853 18.471,13.376 18.930 L 13.687 19.203 14.000 19.203 L 14.313 19.203 14.667 18.887 C 15.275 18.343,17.983 15.658,18.995 14.596 C 19.527 14.038,19.998 13.505,20.043 13.411 C 20.196 13.089,20.043 12.615,19.724 12.418 C 19.517 12.290,19.241 12.253,18.992 12.320 C 18.807 12.370,18.580 12.580,16.889 14.264 C 15.194 15.951,14.989 16.141,14.962 16.044 C 14.945 15.985,14.919 13.039,14.905 9.497 C 14.891 5.955,14.863 2.872,14.842 2.646 C 14.799 2.169,14.731 2.064,14.350 1.884 C 14.070 1.752,13.900 1.747,13.646 1.862 M4.130 17.547 C 4.053 17.571,3.885 17.683,3.757 17.796 L 3.523 18.002 3.508 20.446 C 3.500 21.790,3.514 23.221,3.539 23.626 C 3.582 24.332,3.591 24.377,3.754 24.721 C 3.888 25.002,4.006 25.159,4.307 25.455 C 4.746 25.886,5.162 26.119,5.617 26.189 C 5.782 26.214,9.371 26.243,14.062 26.258 L 22.220 26.283 22.579 26.157 C 23.052 25.991,23.300 25.844,23.632 25.530 C 23.976 25.205,24.238 24.808,24.370 24.410 C 24.468 24.112,24.472 24.028,24.489 21.303 C 24.500 19.763,24.494 18.393,24.477 18.258 C 24.457 18.095,24.406 17.965,24.327 17.871 C 23.882 17.341,22.958 17.490,22.803 18.117 C 22.786 18.187,22.752 19.515,22.727 21.068 C 22.691 23.298,22.668 23.924,22.617 24.048 C 22.578 24.141,22.463 24.262,22.328 24.352 L 22.104 24.500 14.001 24.500 L 5.898 24.500 5.676 24.359 C 5.308 24.126,5.324 24.254,5.274 21.081 C 5.250 19.535,5.210 18.191,5.186 18.094 C 5.132 17.874,5.074 17.804,4.834 17.663 C 4.612 17.533,4.328 17.486,4.130 17.547 " fill="#1A1C1F" stroke="none" fill-rule="evenodd"></path></svg>