<svg width="20" height="20" viewBox="0 0 20 20" fill="none" xmlns="http://www.w3.org/2000/svg"><path d="M9.612 2.097 C 9.422 2.184,9.212 2.381,9.097 2.582 L 9.001 2.750 9.000 6.162 L 9.000 9.574 8.413 9.002 C 7.491 8.103,7.392 8.034,7.031 8.034 C 6.643 8.033,6.256 8.284,6.097 8.641 C 5.996 8.868,5.990 9.220,6.085 9.417 C 6.124 9.499,6.544 9.950,7.183 10.597 C 8.525 11.955,9.429 12.809,9.628 12.906 C 9.815 12.997,10.180 13.006,10.372 12.925 C 10.438 12.896,10.738 12.641,11.038 12.358 C 11.826 11.614,13.590 9.818,13.773 9.574 C 14.023 9.241,14.054 8.901,13.869 8.537 C 13.720 8.246,13.331 8.024,12.970 8.024 C 12.604 8.024,12.509 8.092,11.528 9.061 L 11.006 9.577 10.992 6.214 C 10.976 2.334,10.997 2.596,10.681 2.308 C 10.551 2.189,10.434 2.116,10.321 2.083 C 10.090 2.014,9.781 2.021,9.612 2.097 M3.612 12.096 C 3.421 12.185,3.211 12.382,3.097 12.582 L 3.001 12.750 3.000 14.122 L 3.000 15.495 3.104 15.789 C 3.313 16.383,3.569 16.801,3.938 17.152 C 4.291 17.488,4.651 17.699,5.212 17.897 L 5.507 18.001 10.045 17.992 L 14.583 17.983 14.950 17.841 C 15.453 17.645,15.624 17.536,16.024 17.153 C 16.468 16.728,16.647 16.458,16.847 15.916 L 17.005 15.488 16.991 14.136 C 16.983 13.226,16.966 12.745,16.939 12.667 C 16.886 12.506,16.659 12.251,16.472 12.141 C 16.330 12.058,16.288 12.050,15.983 12.052 C 15.684 12.053,15.636 12.062,15.517 12.139 C 15.361 12.238,15.126 12.485,15.057 12.621 C 15.019 12.697,15.005 12.973,14.990 13.989 C 14.969 15.419,14.979 15.359,14.700 15.676 C 14.513 15.888,14.426 15.928,14.060 15.966 C 13.656 16.009,6.395 16.009,5.958 15.967 C 5.574 15.929,5.504 15.897,5.279 15.660 C 5.143 15.516,5.101 15.443,5.070 15.300 C 5.048 15.196,5.023 14.622,5.011 13.935 C 4.991 12.777,4.989 12.746,4.912 12.593 C 4.735 12.239,4.438 12.056,4.017 12.041 C 3.808 12.034,3.720 12.046,3.612 12.096 " fill="#1A1C1F" stroke="none" fill-rule="evenodd"></path></svg>