<svg width="24" height="24" viewBox="0 0 24 24" fill="none" xmlns="http://www.w3.org/2000/svg"><path d="M11.580 2.104 C 11.416 2.193,11.254 2.348,11.116 2.547 L 11.000 2.714 11.000 6.371 C 11.000 8.382,10.988 10.596,10.974 11.292 L 10.947 12.558 9.853 11.479 C 9.252 10.886,8.658 10.333,8.533 10.250 C 8.317 10.107,8.291 10.100,7.983 10.102 C 7.624 10.104,7.551 10.133,7.294 10.370 C 7.108 10.541,7.000 10.802,7.000 11.079 C 7.000 11.298,7.163 11.519,7.894 12.291 C 8.556 12.989,11.276 15.673,11.499 15.847 C 11.605 15.930,11.661 15.940,12.003 15.940 L 12.387 15.940 12.576 15.785 C 12.680 15.700,13.671 14.724,14.778 13.616 C 16.888 11.506,17.000 11.376,17.000 11.047 C 17.000 10.693,16.758 10.323,16.418 10.159 C 16.270 10.087,16.184 10.074,15.944 10.086 C 15.699 10.099,15.624 10.120,15.479 10.220 C 15.384 10.286,14.787 10.851,14.153 11.474 L 13.000 12.609 13.000 8.674 C 13.000 6.511,12.988 4.265,12.973 3.685 L 12.947 2.629 12.822 2.465 C 12.753 2.375,12.609 2.247,12.502 2.181 C 12.336 2.078,12.260 2.058,12.003 2.049 C 11.783 2.042,11.667 2.057,11.580 2.104 M19.813 14.042 C 19.493 14.105,19.230 14.306,19.078 14.603 C 19.005 14.746,19.000 14.847,18.997 16.068 C 18.996 16.790,18.981 17.833,18.964 18.388 L 18.933 19.395 18.818 19.548 C 18.672 19.739,18.579 19.821,18.392 19.921 C 18.246 19.999,18.143 20.000,12.000 20.000 C 5.857 20.000,5.754 19.999,5.608 19.921 C 5.421 19.821,5.328 19.739,5.183 19.548 L 5.068 19.396 5.036 18.428 C 5.019 17.896,5.004 16.852,5.002 16.108 C 5.000 14.844,4.995 14.747,4.921 14.608 C 4.819 14.415,4.734 14.317,4.547 14.179 C 4.414 14.081,4.348 14.063,4.064 14.048 C 3.789 14.034,3.709 14.044,3.577 14.112 C 3.412 14.197,3.235 14.369,3.082 14.593 L 2.990 14.726 3.012 17.113 C 3.027 18.739,3.049 19.564,3.081 19.700 C 3.107 19.810,3.196 20.044,3.278 20.220 C 3.633 20.979,4.257 21.558,4.995 21.812 C 5.286 21.912,5.425 21.933,5.977 21.963 C 6.331 21.981,9.041 21.997,12.000 21.997 C 14.959 21.997,17.669 21.981,18.023 21.963 C 18.575 21.933,18.714 21.912,19.005 21.812 C 19.743 21.558,20.367 20.979,20.722 20.220 C 20.804 20.044,20.893 19.810,20.919 19.700 C 20.951 19.564,20.973 18.740,20.988 17.114 L 21.010 14.728 20.886 14.549 C 20.603 14.137,20.228 13.960,19.813 14.042 " fill="#1A1C1F" stroke="none" fill-rule="evenodd"></path></svg>