<svg width="32" height="32" viewBox="0 0 32 32" fill="none" xmlns="http://www.w3.org/2000/svg"><path d="M15.596 2.125 C 15.476 2.181,15.293 2.332,15.189 2.460 L 15.001 2.693 14.968 10.453 C 14.950 14.721,14.920 18.269,14.901 18.336 C 14.870 18.446,14.640 18.235,12.746 16.350 C 10.437 14.050,10.352 13.982,9.878 14.047 C 9.412 14.111,9.098 14.425,9.034 14.892 C 9.010 15.064,9.027 15.186,9.094 15.328 C 9.146 15.436,9.708 16.069,10.345 16.735 C 11.583 18.030,14.687 21.108,15.283 21.631 L 15.643 21.947 16.000 21.947 C 16.351 21.946,16.364 21.941,16.672 21.682 C 17.144 21.285,22.617 15.785,22.793 15.530 C 23.318 14.772,22.616 13.835,21.707 14.080 C 21.498 14.136,21.231 14.383,19.303 16.301 C 17.551 18.044,17.126 18.441,17.097 18.363 C 17.076 18.310,17.047 14.943,17.032 10.880 C 17.017 6.817,16.986 3.282,16.962 3.024 C 16.927 2.639,16.897 2.530,16.793 2.418 C 16.483 2.086,15.955 1.957,15.596 2.125 M4.720 20.054 C 4.632 20.081,4.440 20.209,4.293 20.338 L 4.027 20.573 4.010 24.031 L 3.994 27.488 4.136 27.878 C 4.495 28.862,5.232 29.564,6.288 29.927 C 6.565 30.023,6.949 30.027,16.000 30.027 C 25.085 30.027,25.434 30.023,25.715 29.926 C 26.776 29.561,27.541 28.835,27.851 27.897 C 27.964 27.556,27.968 27.460,27.988 24.347 C 27.999 22.587,27.993 21.020,27.974 20.866 C 27.951 20.680,27.893 20.531,27.803 20.424 C 27.294 19.819,26.237 19.989,26.061 20.704 C 26.042 20.784,26.002 22.302,25.973 24.078 C 25.931 26.691,25.906 27.343,25.844 27.493 C 25.794 27.611,25.674 27.737,25.513 27.839 L 25.259 28.000 16.000 28.000 L 6.741 28.000 6.487 27.839 C 6.064 27.571,6.082 27.718,6.027 24.090 C 6.000 22.325,5.955 20.789,5.928 20.678 C 5.865 20.428,5.799 20.347,5.524 20.186 C 5.271 20.038,4.947 19.984,4.720 20.054 " fill="#1A1C1F" stroke="none" fill-rule="evenodd"></path></svg>