<svg width="14" height="14" viewBox="0 0 14 14" fill="none" xmlns="http://www.w3.org/2000/svg"><path d="M6.728 1.468 C 6.596 1.529,6.449 1.667,6.368 1.807 L 6.300 1.925 6.300 4.314 L 6.300 6.702 5.889 6.301 C 5.244 5.672,5.175 5.624,4.922 5.623 C 4.650 5.623,4.379 5.799,4.268 6.049 C 4.197 6.208,4.193 6.454,4.259 6.592 C 4.337 6.752,6.393 8.803,6.664 8.989 C 6.851 9.118,7.170 9.120,7.353 8.993 C 7.484 8.902,8.902 7.504,9.337 7.036 C 9.531 6.828,9.706 6.618,9.735 6.558 C 9.810 6.403,9.805 6.167,9.723 6.006 C 9.604 5.772,9.347 5.616,9.079 5.616 C 8.823 5.616,8.756 5.665,8.070 6.343 L 7.704 6.704 7.696 4.314 C 7.686 1.601,7.705 1.842,7.479 1.621 C 7.385 1.529,7.317 1.485,7.229 1.459 C 7.063 1.410,6.848 1.414,6.728 1.468 M2.528 8.468 C 2.400 8.527,2.252 8.663,2.175 8.795 L 2.112 8.902 2.105 9.871 L 2.098 10.840 2.172 11.049 C 2.319 11.468,2.498 11.760,2.757 12.006 C 3.004 12.242,3.256 12.389,3.648 12.528 L 3.855 12.600 7.032 12.594 L 10.208 12.588 10.465 12.489 C 10.817 12.352,10.937 12.275,11.217 12.007 C 11.527 11.710,11.653 11.521,11.793 11.141 L 11.903 10.842 11.894 9.895 C 11.888 9.265,11.876 8.921,11.858 8.867 C 11.821 8.757,11.637 8.550,11.518 8.487 C 11.436 8.443,11.386 8.435,11.188 8.436 C 10.979 8.437,10.945 8.443,10.862 8.497 C 10.752 8.567,10.588 8.739,10.540 8.835 C 10.513 8.888,10.504 9.083,10.492 9.794 C 10.477 10.795,10.484 10.753,10.290 10.973 C 10.159 11.122,10.098 11.149,9.842 11.176 C 9.559 11.206,4.476 11.206,4.171 11.177 C 4.046 11.164,3.913 11.139,3.877 11.120 C 3.840 11.101,3.757 11.028,3.692 10.956 C 3.600 10.856,3.568 10.800,3.547 10.704 C 3.532 10.634,3.515 10.229,3.507 9.753 C 3.494 8.940,3.493 8.923,3.438 8.813 C 3.361 8.660,3.217 8.528,3.066 8.471 C 2.900 8.409,2.662 8.408,2.528 8.468 " fill="#1A1C1F" stroke="none" fill-rule="evenodd"></path></svg>