<svg width="16" height="16" viewBox="0 0 16 16" fill="none" xmlns="http://www.w3.org/2000/svg"><path d="M7.690 1.678 C 7.538 1.747,7.370 1.905,7.278 2.065 L 7.201 2.200 7.200 4.930 L 7.200 7.660 6.730 7.202 C 5.993 6.483,5.914 6.427,5.625 6.427 C 5.314 6.426,5.005 6.628,4.878 6.913 C 4.797 7.095,4.792 7.376,4.868 7.533 C 4.899 7.598,5.228 7.953,5.719 8.450 C 6.788 9.532,7.545 10.248,7.702 10.324 C 7.852 10.397,8.144 10.405,8.297 10.340 C 8.351 10.317,8.591 10.113,8.831 9.886 C 9.460 9.292,10.872 7.854,11.018 7.660 C 11.214 7.398,11.244 7.127,11.106 6.853 C 10.969 6.583,10.700 6.427,10.370 6.427 C 10.176 6.427,10.158 6.432,10.004 6.535 C 9.915 6.594,9.609 6.870,9.324 7.148 L 8.805 7.654 8.795 4.927 C 8.783 1.831,8.806 2.105,8.547 1.853 C 8.440 1.748,8.362 1.697,8.262 1.668 C 8.073 1.611,7.826 1.616,7.690 1.678 M2.995 9.637 C 2.769 9.710,2.566 9.885,2.454 10.104 C 2.402 10.207,2.400 10.256,2.400 11.303 L 2.400 12.396 2.483 12.631 C 2.651 13.106,2.855 13.441,3.150 13.722 C 3.433 13.991,3.721 14.159,4.170 14.317 L 4.406 14.401 8.036 14.394 L 11.667 14.387 11.960 14.273 C 12.362 14.116,12.499 14.028,12.819 13.722 C 13.174 13.383,13.318 13.166,13.478 12.732 L 13.604 12.390 13.593 11.309 C 13.586 10.581,13.573 10.196,13.552 10.133 C 13.509 10.005,13.327 9.801,13.178 9.713 C 13.064 9.646,13.031 9.640,12.787 9.641 C 12.546 9.642,12.509 9.649,12.411 9.712 C 12.294 9.787,12.096 9.998,12.041 10.107 C 12.017 10.155,12.003 10.452,11.992 11.192 C 11.974 12.336,11.982 12.288,11.760 12.541 C 11.610 12.711,11.541 12.742,11.248 12.773 C 10.925 12.807,5.116 12.807,4.767 12.773 C 4.624 12.759,4.472 12.730,4.431 12.709 C 4.389 12.687,4.294 12.603,4.219 12.521 C 4.112 12.404,4.078 12.344,4.056 12.233 C 4.040 12.156,4.018 11.661,4.005 11.133 C 3.981 10.103,3.983 10.119,3.830 9.912 C 3.671 9.697,3.245 9.557,2.995 9.637 " fill="#1A1C1F" stroke="none" fill-rule="evenodd"></path></svg>