<svg width="12" height="12" viewBox="0 0 12 12" fill="none" xmlns="http://www.w3.org/2000/svg"><path d="M5.767 1.258 C 5.653 1.310,5.527 1.429,5.458 1.549 L 5.400 1.650 5.400 3.697 L 5.400 5.744 5.045 5.399 C 4.489 4.858,4.435 4.820,4.219 4.820 C 3.986 4.820,3.754 4.971,3.658 5.185 C 3.597 5.321,3.594 5.532,3.651 5.650 C 3.694 5.741,4.664 6.731,5.286 7.322 C 5.741 7.753,5.800 7.791,6.010 7.788 C 6.087 7.786,6.182 7.772,6.221 7.756 C 6.304 7.720,6.951 7.107,7.631 6.417 C 8.143 5.899,8.308 5.713,8.354 5.603 C 8.391 5.515,8.390 5.263,8.353 5.176 C 8.303 5.061,8.185 4.945,8.046 4.877 C 7.936 4.823,7.892 4.812,7.782 4.813 C 7.562 4.815,7.506 4.856,6.907 5.447 L 6.604 5.746 6.596 3.698 C 6.588 1.373,6.604 1.579,6.410 1.389 C 6.330 1.311,6.272 1.273,6.196 1.251 C 6.054 1.209,5.870 1.212,5.767 1.258 M2.259 7.228 C 2.141 7.259,2.042 7.321,1.953 7.419 C 1.804 7.584,1.811 7.537,1.804 8.461 L 1.798 9.292 1.861 9.471 C 1.988 9.830,2.141 10.080,2.363 10.291 C 2.575 10.493,2.791 10.619,3.127 10.738 L 3.304 10.800 6.027 10.795 L 8.750 10.790 8.970 10.705 C 9.288 10.581,9.382 10.518,9.650 10.250 C 9.918 9.982,9.981 9.888,10.105 9.570 L 10.190 9.350 10.190 8.520 C 10.190 7.561,10.191 7.568,10.032 7.410 C 9.873 7.251,9.823 7.230,9.600 7.230 C 9.375 7.230,9.301 7.261,9.157 7.415 C 9.000 7.582,9.007 7.542,8.994 8.393 C 8.983 9.121,8.981 9.160,8.940 9.240 C 8.885 9.347,8.748 9.484,8.637 9.544 L 8.550 9.590 6.170 9.596 C 3.784 9.602,3.444 9.594,3.324 9.532 C 3.294 9.517,3.223 9.455,3.167 9.395 C 3.084 9.307,3.060 9.266,3.042 9.178 C 3.030 9.119,3.012 8.751,3.003 8.360 C 2.985 7.595,2.983 7.579,2.869 7.430 C 2.804 7.345,2.571 7.228,2.440 7.214 C 2.391 7.208,2.309 7.215,2.259 7.228 " fill="#1A1C1F" stroke="none" fill-rule="evenodd"></path></svg>