<svg width="32" height="32" viewBox="0 0 32 32" fill="none" xmlns="http://www.w3.org/2000/svg"><path d="M8.107 5.068 C 6.390 5.094,6.246 5.104,5.958 5.211 C 5.184 5.501,4.485 6.221,4.160 7.067 C 4.038 7.384,4.037 7.412,4.012 10.352 L 3.987 13.317 3.651 13.561 C 3.037 14.006,2.574 14.731,2.420 15.487 C 2.343 15.860,2.347 15.918,2.507 17.017 C 2.708 18.398,3.588 23.692,3.735 24.409 C 3.877 25.097,4.096 25.524,4.565 26.020 C 5.009 26.491,5.379 26.730,5.867 26.865 C 6.194 26.955,6.766 26.960,16.000 26.960 C 25.234 26.960,25.806 26.955,26.133 26.865 C 26.596 26.737,26.977 26.501,27.415 26.070 C 28.107 25.387,28.123 25.328,28.979 20.187 C 29.709 15.804,29.695 15.920,29.549 15.355 C 29.353 14.599,29.018 14.108,28.295 13.515 L 28.030 13.298 27.993 12.414 C 27.952 11.451,27.868 11.019,27.639 10.594 C 27.356 10.067,26.579 9.398,26.011 9.192 C 25.679 9.071,24.329 9.019,21.448 9.016 L 18.923 9.013 16.947 7.068 C 15.376 5.521,14.937 5.117,14.805 5.096 C 14.542 5.056,10.124 5.037,8.107 5.068 M15.939 8.861 C 16.985 9.892,17.924 10.789,18.027 10.855 L 18.213 10.975 21.627 11.008 C 23.504 11.026,25.134 11.063,25.249 11.090 C 25.767 11.213,25.933 11.513,25.964 12.384 L 25.986 13.013 16.007 13.013 L 6.027 13.013 6.027 11.000 C 6.027 8.340,6.062 7.669,6.208 7.454 C 6.466 7.076,6.488 7.070,7.884 7.037 C 8.578 7.020,10.247 7.002,11.592 6.996 L 14.038 6.987 15.939 8.861 M27.125 15.158 C 27.220 15.223,27.359 15.371,27.435 15.488 C 27.661 15.836,27.670 15.749,26.877 20.587 C 26.226 24.558,26.223 24.569,25.771 24.861 L 25.520 25.023 15.996 25.002 C 6.552 24.980,6.470 24.979,6.263 24.872 C 5.887 24.678,5.782 24.454,5.602 23.467 C 5.401 22.358,4.742 18.303,4.563 17.067 C 4.384 15.838,4.386 15.699,4.583 15.427 C 4.669 15.308,4.771 15.190,4.810 15.165 C 4.908 15.102,9.288 15.066,18.797 15.052 L 26.953 15.040 27.125 15.158 " fill="#1A1C1F" stroke="none" fill-rule="evenodd"></path></svg>