<svg width="20" height="20" viewBox="0 0 20 20" fill="none" xmlns="http://www.w3.org/2000/svg"><path d="M5.483 4.033 L 4.450 4.050 4.183 4.196 C 3.610 4.510,3.255 4.901,3.095 5.398 C 3.028 5.606,3.023 5.699,3.008 7.305 L 2.992 8.994 2.871 9.017 C 2.704 9.048,2.395 9.217,2.274 9.344 C 2.097 9.530,2.033 9.690,2.033 9.950 C 2.034 10.262,2.083 10.553,2.438 12.316 C 2.788 14.057,2.924 14.621,3.065 14.924 C 3.241 15.299,3.745 15.732,4.209 15.905 L 4.417 15.983 9.799 15.992 C 12.923 15.998,15.298 15.989,15.460 15.971 C 15.815 15.932,16.123 15.785,16.468 15.491 C 17.014 15.025,17.040 14.946,17.629 11.967 C 17.990 10.136,18.018 9.957,17.970 9.781 C 17.871 9.411,17.513 9.089,17.120 9.015 L 17.007 8.994 16.991 8.072 C 16.973 7.080,16.956 6.965,16.778 6.604 C 16.719 6.486,16.581 6.312,16.401 6.132 C 16.054 5.784,15.771 5.624,15.400 5.567 C 15.240 5.542,14.387 5.521,13.035 5.510 L 10.919 5.492 10.285 4.849 C 9.828 4.386,9.603 4.183,9.483 4.124 L 9.317 4.042 7.917 4.029 C 7.147 4.022,6.052 4.024,5.483 4.033 M9.300 6.677 C 9.680 7.050,10.049 7.383,10.120 7.419 C 10.244 7.479,10.367 7.483,12.625 7.494 L 15.000 7.506 15.000 8.253 L 15.000 9.000 10.000 9.000 L 5.000 9.000 5.000 7.500 L 5.000 6.000 6.804 6.000 L 8.608 6.000 9.300 6.677 " fill="#1A1C1F" stroke="none" fill-rule="evenodd"></path></svg>