<svg width="16" height="16" viewBox="0 0 16 16" fill="none" xmlns="http://www.w3.org/2000/svg"><path d="M4.373 3.226 L 3.560 3.240 3.347 3.357 C 2.888 3.608,2.604 3.921,2.476 4.318 C 2.422 4.485,2.419 4.560,2.407 5.843 L 2.394 7.193 2.254 7.224 C 2.017 7.277,1.799 7.446,1.683 7.666 C 1.572 7.877,1.597 8.095,1.909 9.653 C 2.287 11.531,2.375 11.873,2.547 12.107 C 2.740 12.369,3.012 12.574,3.350 12.710 L 3.574 12.800 8.047 12.794 L 12.520 12.787 12.752 12.673 C 13.184 12.462,13.496 12.141,13.613 11.787 C 13.716 11.476,13.816 11.024,14.090 9.640 C 14.392 8.111,14.415 7.967,14.376 7.824 C 14.297 7.529,14.010 7.271,13.696 7.212 L 13.606 7.195 13.593 6.458 C 13.578 5.664,13.565 5.572,13.422 5.284 C 13.375 5.189,13.265 5.050,13.121 4.905 C 12.844 4.627,12.617 4.499,12.320 4.453 C 12.192 4.433,11.510 4.417,10.427 4.408 L 8.734 4.393 8.227 3.879 C 7.860 3.507,7.683 3.347,7.587 3.299 L 7.453 3.234 6.320 3.223 C 5.697 3.217,4.821 3.218,4.373 3.226 M7.440 5.342 C 7.744 5.640,8.039 5.907,8.096 5.935 C 8.195 5.983,8.293 5.986,10.100 5.995 L 12.000 6.005 12.000 6.603 L 12.000 7.200 8.000 7.200 L 4.000 7.200 4.000 6.000 L 4.000 4.800 5.443 4.800 L 6.887 4.800 7.440 5.342 " fill="#1A1C1F" stroke="none" fill-rule="evenodd"></path></svg>