<svg width="12" height="12" viewBox="0 0 12 12" fill="none" xmlns="http://www.w3.org/2000/svg"><path d="M3.300 2.421 C 2.627 2.433,2.663 2.427,2.400 2.580 C 2.148 2.727,1.941 2.979,1.857 3.239 C 1.817 3.363,1.814 3.421,1.805 4.383 L 1.795 5.396 1.723 5.410 C 1.622 5.429,1.437 5.530,1.365 5.606 C 1.257 5.719,1.220 5.814,1.220 5.973 C 1.220 6.151,1.257 6.367,1.457 7.360 C 1.726 8.692,1.782 8.906,1.910 9.080 C 2.060 9.284,2.281 9.447,2.536 9.540 L 2.701 9.600 5.936 9.599 C 7.715 9.599,9.232 9.591,9.308 9.581 C 9.561 9.548,9.910 9.325,10.088 9.083 C 10.221 8.901,10.288 8.642,10.567 7.230 C 10.794 6.083,10.811 5.975,10.782 5.868 C 10.723 5.646,10.508 5.453,10.272 5.409 L 10.204 5.396 10.194 4.843 C 10.184 4.248,10.174 4.179,10.067 3.963 C 10.032 3.891,9.948 3.787,9.841 3.679 C 9.633 3.471,9.463 3.375,9.240 3.340 C 9.144 3.325,8.633 3.313,7.822 3.306 L 6.554 3.295 6.172 2.909 C 5.901 2.636,5.761 2.509,5.690 2.474 L 5.590 2.425 4.750 2.417 C 4.288 2.413,3.636 2.415,3.300 2.421 M5.580 4.006 C 5.808 4.230,6.030 4.430,6.072 4.451 C 6.146 4.487,6.222 4.490,7.575 4.497 L 9.000 4.504 9.000 4.952 L 9.000 5.400 6.000 5.400 L 3.000 5.400 3.000 4.500 L 3.000 3.600 4.082 3.600 L 5.165 3.600 5.580 4.006 " fill="#1A1C1F" stroke="none" fill-rule="evenodd"></path></svg>