<svg width="14" height="14" viewBox="0 0 14 14" fill="none" xmlns="http://www.w3.org/2000/svg"><path d="M3.827 2.823 L 3.138 2.835 2.955 2.926 C 2.552 3.128,2.282 3.419,2.166 3.780 C 2.120 3.923,2.117 3.995,2.106 5.114 L 2.094 6.296 2.010 6.312 C 1.893 6.333,1.677 6.452,1.592 6.541 C 1.468 6.671,1.423 6.783,1.423 6.965 C 1.424 7.187,1.460 7.400,1.706 8.622 C 1.949 9.827,2.046 10.235,2.142 10.438 C 2.277 10.726,2.600 11.000,2.960 11.130 L 3.155 11.201 7.043 11.195 L 10.932 11.188 11.063 11.135 C 11.387 11.004,11.736 10.699,11.857 10.442 C 11.957 10.227,12.056 9.808,12.317 8.489 C 12.594 7.093,12.613 6.972,12.579 6.846 C 12.510 6.587,12.259 6.362,11.983 6.310 L 11.905 6.296 11.893 5.650 C 11.887 5.271,11.871 4.962,11.855 4.900 C 11.796 4.676,11.687 4.498,11.481 4.292 C 11.238 4.049,11.039 3.937,10.780 3.897 C 10.668 3.879,10.071 3.865,9.125 3.857 L 7.645 3.844 7.200 3.394 C 6.880 3.071,6.722 2.928,6.638 2.887 L 6.522 2.830 5.518 2.820 C 4.966 2.815,4.205 2.816,3.827 2.823 M6.510 4.674 C 6.776 4.935,7.034 5.168,7.084 5.193 C 7.171 5.235,7.257 5.238,8.838 5.246 L 10.500 5.254 10.500 5.777 L 10.500 6.300 7.000 6.300 L 3.500 6.300 3.500 5.250 L 3.500 4.200 4.763 4.200 L 6.026 4.200 6.510 4.674 " fill="#1A1C1F" stroke="none" fill-rule="evenodd"></path></svg>