<svg width="28" height="28" viewBox="0 0 28 28" fill="none" xmlns="http://www.w3.org/2000/svg"><path d="M4.573 4.498 C 4.293 4.560,4.102 4.650,3.780 4.870 C 3.265 5.222,2.959 5.617,2.730 6.225 L 2.613 6.535 2.613 14.005 L 2.613 21.474 2.737 21.785 C 2.974 22.382,3.328 22.840,3.799 23.160 C 4.245 23.463,4.460 23.523,5.250 23.569 C 5.635 23.592,9.829 23.611,14.570 23.612 L 23.189 23.613 23.494 23.503 C 24.209 23.243,24.725 22.805,25.046 22.187 C 25.412 21.479,25.387 21.965,25.387 15.727 C 25.387 10.751,25.379 10.116,25.312 9.890 C 25.071 9.070,24.441 8.389,23.613 8.053 C 23.310 7.930,22.090 7.893,18.129 7.890 L 14.816 7.887 14.023 7.089 C 13.587 6.650,12.794 5.873,12.260 5.362 L 11.291 4.433 8.060 4.437 C 5.703 4.440,4.761 4.457,4.573 4.498 M11.380 6.928 C 11.820 7.377,12.180 7.762,12.180 7.786 C 12.180 7.809,12.114 7.841,12.034 7.857 C 11.954 7.874,10.200 7.887,8.138 7.887 L 4.387 7.887 4.388 7.432 C 4.389 6.741,4.467 6.512,4.776 6.281 C 4.891 6.195,4.996 6.184,5.893 6.158 C 6.438 6.142,7.715 6.126,8.731 6.121 L 10.580 6.113 11.380 6.928 M18.853 9.659 C 21.712 9.686,22.990 9.713,23.113 9.751 C 23.232 9.787,23.336 9.868,23.428 9.996 L 23.567 10.187 23.567 15.689 C 23.567 20.227,23.556 21.216,23.503 21.342 C 23.468 21.426,23.337 21.584,23.212 21.694 L 22.985 21.894 13.945 21.879 L 4.905 21.863 4.734 21.700 C 4.385 21.368,4.412 21.867,4.396 15.412 L 4.381 9.613 9.576 9.617 C 12.433 9.619,16.608 9.638,18.853 9.659 " fill="#1A1C1F" stroke="none" fill-rule="evenodd"></path></svg>