<svg width="20" height="20" viewBox="0 0 20 20" fill="none" xmlns="http://www.w3.org/2000/svg"><path d="M5.283 4.036 C 4.862 4.048,4.469 4.073,4.410 4.092 C 4.143 4.181,3.871 4.360,3.615 4.615 C 3.335 4.896,3.192 5.124,3.070 5.491 C 3.000 5.696,3.000 5.728,3.000 10.000 C 3.000 14.272,3.000 14.304,3.070 14.509 C 3.192 14.876,3.335 15.104,3.615 15.385 C 3.896 15.665,4.124 15.808,4.491 15.930 C 4.697 16.000,4.714 16.000,10.000 16.000 C 15.286 16.000,15.303 16.000,15.509 15.930 C 15.876 15.808,16.104 15.665,16.385 15.385 C 16.665 15.104,16.808 14.876,16.930 14.509 C 16.999 14.304,17.000 14.262,17.000 10.757 C 17.000 7.250,16.999 7.209,16.930 6.997 C 16.725 6.366,16.265 5.871,15.658 5.629 C 15.417 5.533,14.577 5.504,11.975 5.502 L 9.934 5.500 9.292 4.853 C 8.833 4.391,8.602 4.183,8.483 4.125 C 8.318 4.043,8.306 4.042,7.183 4.029 C 6.560 4.021,5.705 4.024,5.283 4.036 " fill="#1A1C1F" stroke="none" fill-rule="evenodd"></path></svg>