<svg width="20" height="20" viewBox="0 0 20 20" fill="none" xmlns="http://www.w3.org/2000/svg"><path d="M5.397 4.030 L 4.510 4.050 4.197 4.206 C 3.681 4.463,3.328 4.819,3.146 5.267 C 3.028 5.557,3.004 5.959,3.002 7.655 L 3.000 8.993 2.875 9.016 C 2.704 9.047,2.397 9.216,2.274 9.344 C 1.920 9.716,1.931 9.872,2.534 12.791 C 2.875 14.448,2.968 14.799,3.123 15.033 C 3.363 15.396,3.794 15.744,4.159 15.873 C 4.473 15.983,5.227 15.998,10.509 15.999 L 15.502 16.000 15.764 15.899 C 16.452 15.634,16.892 15.174,17.080 14.524 C 17.210 14.075,17.912 10.620,17.983 10.075 C 18.045 9.605,17.643 9.106,17.128 9.015 L 17.007 8.994 16.991 8.089 C 16.975 7.117,16.953 6.965,16.780 6.619 C 16.524 6.108,15.951 5.660,15.433 5.565 C 15.330 5.546,14.299 5.522,13.085 5.511 L 10.920 5.491 10.252 4.815 C 9.884 4.444,9.546 4.117,9.500 4.090 C 9.431 4.049,9.154 4.038,7.850 4.026 C 6.988 4.017,5.884 4.019,5.397 4.030 M9.303 6.684 C 9.728 7.104,10.043 7.389,10.122 7.424 C 10.238 7.476,10.470 7.483,12.625 7.494 L 15.000 7.506 15.000 8.253 L 15.000 9.000 10.000 9.000 L 5.000 9.000 5.000 7.500 L 5.000 6.000 6.806 6.000 L 8.612 6.000 9.303 6.684 M15.733 11.094 C 15.733 11.157,15.487 12.458,15.291 13.433 L 15.180 13.983 9.997 13.992 L 4.815 14.000 4.528 12.542 C 4.370 11.740,4.248 11.072,4.256 11.058 C 4.264 11.045,6.850 11.033,10.002 11.033 C 15.536 11.033,15.733 11.035,15.733 11.094 " fill="#1A1C1F" stroke="none" fill-rule="evenodd"></path></svg>