<svg width="16" height="16" viewBox="0 0 16 16" fill="none" xmlns="http://www.w3.org/2000/svg"><path d="M4.200 3.228 C 3.877 3.238,3.575 3.259,3.528 3.274 C 3.349 3.333,3.102 3.486,2.936 3.640 C 2.728 3.834,2.589 4.043,2.481 4.322 L 2.400 4.532 2.400 7.992 L 2.400 11.453 2.478 11.662 C 2.677 12.193,3.029 12.542,3.555 12.729 L 3.755 12.800 7.993 12.800 L 12.231 12.800 12.422 12.735 C 12.707 12.638,12.871 12.540,13.079 12.343 C 13.294 12.139,13.411 11.960,13.522 11.662 L 13.600 11.453 13.600 8.600 L 13.600 5.747 13.522 5.538 C 13.410 5.240,13.294 5.061,13.076 4.854 C 12.841 4.630,12.578 4.495,12.293 4.451 C 12.163 4.432,11.368 4.416,10.016 4.408 L 7.938 4.394 7.429 3.879 C 7.063 3.509,6.883 3.346,6.787 3.300 C 6.655 3.235,6.644 3.234,5.720 3.222 C 5.207 3.215,4.523 3.218,4.200 3.228 " fill="#1A1C1F" stroke="none" fill-rule="evenodd"></path></svg>