<svg width="32" height="32" viewBox="0 0 32 32" fill="none" xmlns="http://www.w3.org/2000/svg"><path d="M5.227 5.141 C 4.907 5.212,4.688 5.314,4.320 5.566 C 3.732 5.968,3.382 6.420,3.120 7.115 L 2.987 7.469 2.987 16.005 L 2.987 24.542 3.128 24.898 C 3.396 25.572,3.759 26.048,4.303 26.436 C 4.841 26.820,5.067 26.883,6.107 26.940 C 6.624 26.968,11.242 26.983,16.857 26.975 L 26.701 26.960 27.177 26.726 C 27.560 26.537,27.738 26.406,28.084 26.057 C 28.599 25.538,28.825 25.123,28.914 24.533 C 28.955 24.261,28.982 22.122,28.998 17.846 L 29.022 11.559 28.878 11.154 C 28.687 10.615,28.466 10.284,28.019 9.867 C 27.602 9.477,27.096 9.197,26.664 9.116 C 26.487 9.082,24.519 9.050,21.653 9.033 L 16.933 9.004 15.520 7.606 C 14.743 6.837,13.837 5.951,13.506 5.637 L 12.906 5.067 9.213 5.071 C 6.518 5.074,5.441 5.093,5.227 5.141 M13.005 7.918 C 13.508 8.430,13.920 8.871,13.920 8.898 C 13.920 8.925,13.845 8.962,13.753 8.980 C 13.662 8.998,11.658 9.013,9.300 9.013 L 5.013 9.013 5.014 8.573 C 5.014 7.681,5.125 7.371,5.520 7.156 C 5.714 7.050,6.802 7.012,9.979 6.997 L 12.091 6.987 13.005 7.918 M21.573 11.039 C 24.818 11.069,26.274 11.101,26.415 11.144 C 26.550 11.186,26.669 11.278,26.775 11.424 L 26.933 11.643 26.933 17.930 C 26.933 23.117,26.921 24.247,26.861 24.391 C 26.821 24.486,26.673 24.666,26.533 24.789 L 26.278 25.013 17.046 25.010 C 7.797 25.007,5.730 24.980,5.508 24.861 C 5.443 24.826,5.305 24.687,5.202 24.551 L 5.013 24.305 5.013 17.646 L 5.013 10.987 10.973 10.991 C 14.251 10.993,19.021 11.015,21.573 11.039 " fill="#1A1C1F" stroke="none" fill-rule="evenodd"></path></svg>