<svg width="12" height="12" viewBox="0 0 12 12" fill="none" xmlns="http://www.w3.org/2000/svg"><path d="M3.270 2.419 C 2.647 2.434,2.647 2.434,2.403 2.583 C 2.135 2.747,1.960 2.955,1.865 3.225 L 1.814 3.370 1.804 4.383 L 1.795 5.397 1.724 5.410 C 1.544 5.444,1.340 5.594,1.262 5.751 C 1.174 5.926,1.204 6.144,1.539 7.766 C 1.726 8.670,1.782 8.882,1.874 9.020 C 2.019 9.239,2.306 9.470,2.510 9.531 C 2.698 9.588,3.309 9.599,6.294 9.600 L 9.278 9.600 9.449 9.538 C 9.863 9.388,10.133 9.111,10.247 8.719 C 10.332 8.425,10.766 6.282,10.793 6.020 C 10.821 5.752,10.579 5.465,10.277 5.410 L 10.205 5.396 10.195 4.853 C 10.184 4.249,10.172 4.175,10.047 3.938 C 9.924 3.703,9.644 3.464,9.380 3.369 C 9.251 3.323,8.695 3.302,7.534 3.301 L 6.557 3.300 6.154 2.892 C 5.932 2.667,5.728 2.470,5.700 2.454 C 5.658 2.429,5.497 2.423,4.740 2.415 C 4.239 2.410,3.578 2.412,3.270 2.419 M5.578 4.006 C 5.812 4.236,6.025 4.428,6.070 4.451 C 6.147 4.488,6.208 4.490,7.575 4.497 L 9.000 4.503 9.000 4.952 L 9.000 5.400 6.000 5.400 L 3.000 5.400 3.000 4.500 L 3.000 3.600 4.083 3.600 L 5.167 3.600 5.578 4.006 M9.440 6.657 C 9.440 6.694,9.292 7.475,9.175 8.060 L 9.108 8.390 5.999 8.395 L 2.889 8.400 2.717 7.525 C 2.622 7.044,2.549 6.643,2.554 6.635 C 2.558 6.627,4.110 6.620,6.001 6.620 C 9.322 6.620,9.440 6.621,9.440 6.657 " fill="#1A1C1F" stroke="none" fill-rule="evenodd"></path></svg>