<svg width="14" height="14" viewBox="0 0 14 14" fill="none" xmlns="http://www.w3.org/2000/svg"><path d="M3.663 2.824 C 3.387 2.833,3.128 2.851,3.087 2.865 C 2.901 2.926,2.710 3.052,2.531 3.231 C 2.334 3.427,2.235 3.587,2.149 3.843 C 2.100 3.988,2.100 4.009,2.100 6.995 C 2.100 10.332,2.089 10.082,2.257 10.418 C 2.315 10.533,2.396 10.638,2.529 10.771 C 2.726 10.968,2.877 11.061,3.146 11.152 C 3.288 11.200,3.314 11.200,7.000 11.200 C 10.686 11.200,10.712 11.200,10.854 11.152 C 11.100 11.069,11.265 10.971,11.440 10.805 C 11.636 10.619,11.742 10.453,11.834 10.193 L 11.900 10.007 11.900 7.523 C 11.900 5.067,11.899 5.037,11.851 4.893 C 11.764 4.634,11.667 4.478,11.469 4.282 C 11.235 4.050,11.030 3.935,10.780 3.896 C 10.664 3.878,9.990 3.865,8.776 3.857 L 6.947 3.844 6.501 3.394 C 6.181 3.072,6.022 2.928,5.938 2.887 C 5.823 2.830,5.815 2.830,4.993 2.819 C 4.538 2.813,3.939 2.816,3.663 2.824 M5.810 4.674 C 6.076 4.935,6.334 5.168,6.384 5.193 C 6.471 5.236,6.559 5.238,8.488 5.246 L 10.500 5.254 10.500 7.527 L 10.500 9.800 7.000 9.800 L 3.500 9.800 3.500 7.000 L 3.500 4.200 4.413 4.200 L 5.326 4.200 5.810 4.674 " fill="#1A1C1F" stroke="none" fill-rule="evenodd"></path></svg>