<svg width="24" height="24" viewBox="0 0 24 24" fill="none" xmlns="http://www.w3.org/2000/svg"><path d="M5.500 4.077 C 5.026 4.135,4.390 4.530,4.058 4.971 C 3.839 5.263,3.728 5.474,3.585 5.872 L 3.480 6.165 3.480 7.992 L 3.480 9.820 3.303 9.932 C 2.993 10.127,2.658 10.526,2.463 10.931 C 2.211 11.454,2.177 11.672,2.235 12.417 C 2.287 13.104,2.539 15.316,2.721 16.700 C 2.949 18.425,3.037 18.684,3.576 19.224 C 3.917 19.564,4.257 19.781,4.640 19.903 C 4.845 19.968,5.339 19.974,11.960 19.990 L 19.060 20.007 19.393 19.885 C 20.106 19.624,20.601 19.205,20.901 18.606 C 21.050 18.308,21.129 17.876,21.337 16.200 C 21.815 12.345,21.855 11.770,21.684 11.247 C 21.533 10.784,21.178 10.307,20.707 9.932 L 20.554 9.810 20.517 9.022 C 20.462 7.864,20.373 7.526,19.984 7.012 C 19.734 6.682,19.460 6.468,19.001 6.245 L 18.622 6.060 17.341 6.034 C 16.636 6.020,15.352 6.007,14.486 6.004 L 12.912 6.000 12.033 5.144 C 11.550 4.672,11.081 4.236,10.991 4.174 L 10.827 4.060 8.283 4.053 C 6.885 4.050,5.632 4.060,5.500 4.077 M10.994 6.886 C 11.492 7.373,11.970 7.818,12.055 7.875 L 12.211 7.978 14.995 8.009 C 17.900 8.041,18.228 8.053,18.340 8.135 C 18.421 8.194,18.476 8.598,18.478 9.150 L 18.480 9.520 11.994 9.520 L 5.507 9.520 5.534 7.897 C 5.549 6.992,5.578 6.241,5.599 6.201 C 5.620 6.162,5.670 6.115,5.709 6.097 C 5.822 6.045,6.739 6.015,8.474 6.007 L 10.089 6.000 10.994 6.886 M19.641 11.668 L 19.771 11.815 19.744 12.230 C 19.712 12.720,19.534 14.332,19.338 15.900 C 19.096 17.836,19.079 17.895,18.770 17.947 C 18.666 17.964,15.554 17.979,11.856 17.979 C 4.508 17.980,5.063 17.998,4.934 17.749 C 4.867 17.619,4.739 16.648,4.440 14.010 C 4.198 11.874,4.198 11.851,4.364 11.661 L 4.488 11.520 12.000 11.520 L 19.512 11.520 19.641 11.668 " fill="#1A1C1F" stroke="none" fill-rule="evenodd"></path></svg>