<svg width="28" height="28" viewBox="0 0 28 28" fill="none" xmlns="http://www.w3.org/2000/svg"><path d="M5.418 4.506 C 4.697 4.662,3.955 5.362,3.640 6.183 C 3.534 6.461,3.532 6.488,3.511 9.061 L 3.489 11.659 3.229 11.838 C 2.732 12.180,2.277 12.855,2.119 13.485 C 2.048 13.765,2.049 13.833,2.121 14.418 C 2.206 15.097,2.989 19.852,3.213 21.048 C 3.383 21.955,3.528 22.273,3.996 22.770 C 4.383 23.179,4.707 23.389,5.133 23.507 C 5.420 23.585,5.921 23.590,14.000 23.590 C 22.079 23.590,22.580 23.585,22.867 23.507 C 23.272 23.395,23.605 23.188,23.988 22.811 C 24.594 22.214,24.608 22.162,25.357 17.663 C 25.994 13.836,25.983 13.929,25.857 13.442 C 25.737 12.979,25.602 12.704,25.337 12.379 C 25.172 12.177,25.030 12.051,24.550 11.681 C 24.539 11.672,24.514 11.310,24.495 10.875 C 24.457 10.016,24.384 9.641,24.184 9.270 C 23.936 8.809,23.256 8.224,22.759 8.043 C 22.469 7.937,21.288 7.892,18.767 7.889 L 16.558 7.887 14.847 6.202 C 13.906 5.275,13.088 4.498,13.029 4.475 C 12.969 4.452,11.320 4.435,9.319 4.437 C 6.432 4.440,5.657 4.454,5.418 4.506 M13.947 7.754 C 14.861 8.656,15.684 9.441,15.773 9.498 L 15.937 9.603 18.923 9.632 C 20.566 9.648,21.992 9.680,22.093 9.704 C 22.546 9.811,22.691 10.073,22.719 10.836 L 22.738 11.387 14.006 11.387 L 5.273 11.387 5.274 9.625 C 5.274 7.298,5.304 6.711,5.432 6.522 C 5.657 6.192,5.677 6.187,6.898 6.157 C 7.506 6.142,8.966 6.126,10.143 6.122 L 12.283 6.113 13.947 7.754 M23.735 13.264 C 23.907 13.396,23.967 13.469,24.082 13.685 L 24.175 13.860 24.008 14.968 C 23.748 16.691,23.107 20.514,23.006 20.943 C 22.888 21.444,22.817 21.572,22.567 21.744 L 22.360 21.887 15.835 21.881 C 12.246 21.879,8.460 21.863,7.420 21.846 C 5.553 21.817,5.528 21.815,5.382 21.711 C 5.126 21.529,5.053 21.348,4.903 20.531 C 4.731 19.598,4.156 16.059,3.992 14.933 C 3.836 13.858,3.838 13.736,4.010 13.498 C 4.086 13.394,4.175 13.291,4.209 13.270 C 4.295 13.214,8.128 13.183,16.455 13.171 L 23.601 13.160 23.735 13.264 " fill="#1A1C1F" stroke="none" fill-rule="evenodd"></path></svg>