<svg width="16" height="16" viewBox="0 0 16 16" fill="none" xmlns="http://www.w3.org/2000/svg"><path d="M4.387 3.227 C 3.521 3.245,3.518 3.246,3.188 3.452 C 2.835 3.672,2.614 3.938,2.487 4.297 L 2.418 4.493 2.406 5.844 L 2.393 7.195 2.297 7.213 C 2.044 7.260,1.793 7.445,1.682 7.668 C 1.566 7.900,1.612 8.232,2.052 10.357 C 2.303 11.565,2.377 11.843,2.499 12.027 C 2.688 12.313,3.039 12.597,3.327 12.698 C 3.578 12.786,4.181 12.798,8.392 12.799 L 12.371 12.800 12.598 12.718 C 13.154 12.516,13.513 12.147,13.665 11.620 C 13.777 11.231,14.355 8.370,14.391 8.024 C 14.428 7.669,14.104 7.287,13.703 7.213 L 13.606 7.195 13.593 6.471 C 13.579 5.692,13.561 5.564,13.423 5.289 C 13.224 4.894,12.752 4.526,12.346 4.452 C 12.265 4.437,11.432 4.418,10.470 4.409 L 8.739 4.393 8.176 3.825 C 7.828 3.474,7.588 3.252,7.547 3.244 C 7.438 3.221,5.224 3.210,4.387 3.227 M7.444 5.348 C 7.777 5.676,8.039 5.913,8.099 5.940 C 8.190 5.981,8.390 5.986,10.100 5.995 L 12.000 6.005 12.000 6.602 L 12.000 7.200 8.000 7.200 L 4.000 7.200 4.000 6.000 L 4.000 4.800 5.444 4.800 L 6.889 4.800 7.444 5.348 M12.587 8.877 C 12.587 8.923,12.353 10.154,12.206 10.880 L 12.144 11.187 7.998 11.193 L 3.852 11.200 3.623 10.033 C 3.496 9.392,3.398 8.858,3.405 8.847 C 3.411 8.836,5.480 8.827,8.002 8.827 C 12.465 8.827,12.587 8.828,12.587 8.877 " fill="#1A1C1F" stroke="none" fill-rule="evenodd"></path></svg>