<svg width="14" height="14" viewBox="0 0 14 14" fill="none" xmlns="http://www.w3.org/2000/svg"><path d="M3.757 2.822 C 3.091 2.840,3.071 2.844,2.789 3.021 C 2.480 3.213,2.287 3.446,2.177 3.759 L 2.116 3.932 2.105 5.114 L 2.094 6.296 2.010 6.312 C 1.893 6.333,1.677 6.452,1.592 6.541 C 1.467 6.672,1.423 6.783,1.423 6.967 C 1.423 7.171,1.464 7.407,1.701 8.587 C 1.930 9.725,2.017 10.121,2.077 10.302 C 2.202 10.675,2.669 11.076,3.071 11.156 C 3.171 11.175,4.248 11.186,7.026 11.193 L 10.844 11.203 11.035 11.129 C 11.522 10.942,11.825 10.625,11.956 10.168 C 12.056 9.821,12.560 7.327,12.592 7.022 C 12.625 6.710,12.341 6.376,11.990 6.311 L 11.905 6.296 11.894 5.662 C 11.882 4.957,11.868 4.873,11.722 4.594 C 11.578 4.320,11.251 4.042,10.943 3.931 C 10.792 3.876,10.144 3.852,8.789 3.851 L 7.650 3.850 7.179 3.374 C 6.920 3.112,6.682 2.882,6.650 2.863 C 6.601 2.833,6.416 2.826,5.472 2.817 C 4.856 2.811,4.084 2.814,3.757 2.822 M6.510 4.674 C 6.776 4.935,7.034 5.168,7.084 5.193 C 7.171 5.235,7.257 5.238,8.838 5.246 L 10.500 5.254 10.500 5.777 L 10.500 6.300 7.000 6.300 L 3.500 6.300 3.500 5.250 L 3.500 4.200 4.763 4.200 L 6.026 4.200 6.510 4.674 M11.003 7.846 C 10.994 7.913,10.906 8.378,10.807 8.878 L 10.628 9.788 6.999 9.794 L 3.370 9.800 3.170 8.779 C 3.059 8.218,2.973 7.750,2.979 7.741 C 2.985 7.731,4.796 7.723,7.004 7.723 L 11.019 7.723 11.003 7.846 " fill="#1A1C1F" stroke="none" fill-rule="evenodd"></path></svg>