<svg width="24" height="24" viewBox="0 0 24 24" fill="none" xmlns="http://www.w3.org/2000/svg"><path d="M4.900 4.084 C 4.525 4.159,4.128 4.391,3.780 4.740 C 3.436 5.085,3.260 5.370,3.098 5.847 L 3.000 6.134 3.000 12.028 L 3.000 17.923 3.120 18.233 C 3.275 18.635,3.478 18.971,3.712 19.215 C 3.956 19.468,4.435 19.783,4.695 19.862 C 5.074 19.976,6.326 19.997,12.644 19.999 C 18.749 20.000,18.913 19.998,19.134 19.922 C 19.838 19.680,20.460 19.164,20.734 18.596 C 20.985 18.073,20.980 18.194,20.980 12.840 L 20.980 7.980 20.865 7.700 C 20.600 7.059,20.153 6.563,19.580 6.277 C 19.404 6.190,19.155 6.101,19.027 6.081 C 18.898 6.060,17.242 6.031,15.347 6.015 L 11.900 5.987 11.027 5.137 C 10.547 4.670,10.081 4.236,9.991 4.174 L 9.827 4.060 7.463 4.052 C 6.028 4.048,5.021 4.060,4.900 4.084 M10.012 6.903 C 10.519 7.399,11.008 7.847,11.097 7.899 L 11.260 7.992 14.940 8.009 C 19.069 8.028,18.835 8.010,18.918 8.310 C 18.978 8.527,18.976 17.542,18.916 17.715 C 18.890 17.790,18.819 17.870,18.746 17.910 C 18.629 17.972,18.121 17.977,12.000 17.977 C 4.582 17.977,5.181 18.001,5.076 17.691 C 5.035 17.571,5.024 16.425,5.022 12.200 C 5.021 9.263,5.035 6.721,5.053 6.550 C 5.103 6.091,5.133 6.065,5.666 6.037 C 5.905 6.025,6.772 6.011,7.594 6.007 L 9.088 6.000 10.012 6.903 " fill="#1A1C1F" stroke="none" fill-rule="evenodd"></path></svg>