<svg width="12" height="12" viewBox="0 0 12 12" fill="none" xmlns="http://www.w3.org/2000/svg"><path d="M2.723 2.443 C 2.510 2.478,2.213 2.674,2.057 2.881 C 1.957 3.015,1.908 3.110,1.847 3.288 L 1.800 3.427 1.800 6.014 L 1.800 8.601 1.861 8.759 C 1.942 8.968,2.046 9.125,2.202 9.270 C 2.349 9.406,2.476 9.481,2.683 9.551 L 2.827 9.600 6.002 9.600 L 9.177 9.600 9.337 9.543 C 9.559 9.465,9.702 9.373,9.857 9.210 C 10.005 9.053,10.078 8.930,10.151 8.717 L 10.200 8.573 10.200 6.448 L 10.200 4.323 10.143 4.163 C 10.112 4.075,10.056 3.952,10.018 3.890 C 9.884 3.667,9.598 3.438,9.370 3.368 C 9.215 3.321,8.584 3.301,7.204 3.301 L 5.959 3.300 5.574 2.912 C 5.293 2.628,5.162 2.510,5.086 2.472 L 4.981 2.420 3.906 2.422 C 3.314 2.424,2.782 2.433,2.723 2.443 M4.980 4.006 C 5.208 4.230,5.430 4.430,5.472 4.451 C 5.547 4.488,5.624 4.490,7.275 4.497 L 9.000 4.504 9.000 6.452 L 9.000 8.400 6.000 8.400 L 3.000 8.400 3.000 6.000 L 3.000 3.600 3.782 3.600 L 4.565 3.600 4.980 4.006 " fill="#1A1C1F" stroke="none" fill-rule="evenodd"></path></svg>