<svg width="24" height="24" viewBox="0 0 24 24" fill="none" xmlns="http://www.w3.org/2000/svg"><path d="M4.940 3.078 C 4.411 3.169,3.596 3.829,3.267 4.434 C 3.010 4.906,3.026 4.435,3.023 12.060 L 3.020 18.980 3.135 19.260 C 3.443 20.008,3.987 20.545,4.769 20.874 L 5.020 20.980 9.840 20.990 C 12.491 20.996,15.659 20.985,16.880 20.967 C 19.367 20.931,19.203 20.951,19.725 20.617 C 20.063 20.401,20.401 20.063,20.617 19.725 C 20.949 19.206,20.933 19.319,20.964 17.280 C 20.979 16.279,20.993 13.136,20.995 10.296 C 21.000 5.277,20.998 5.126,20.922 4.906 C 20.642 4.091,20.052 3.466,19.252 3.137 L 19.020 3.042 12.060 3.046 C 8.232 3.048,5.028 3.062,4.940 3.078 M18.831 5.170 L 18.957 5.301 18.983 9.440 L 19.009 13.580 18.114 12.697 C 16.931 11.530,16.530 11.160,16.373 11.094 C 16.177 11.012,15.786 11.025,15.602 11.119 C 15.408 11.218,14.869 11.728,13.152 13.435 L 11.804 14.775 10.432 14.101 C 8.542 13.174,8.233 13.041,7.963 13.040 C 7.682 13.040,7.535 13.121,6.104 14.067 L 4.987 14.805 5.015 10.053 L 5.044 5.300 5.147 5.192 C 5.212 5.124,5.305 5.078,5.395 5.069 C 5.475 5.060,8.502 5.050,12.122 5.047 L 18.704 5.040 18.831 5.170 M8.682 7.046 C 8.300 7.092,7.956 7.277,7.619 7.617 C 7.465 7.773,7.290 7.991,7.231 8.103 C 6.833 8.850,6.967 9.704,7.585 10.359 C 8.377 11.198,9.556 11.209,10.384 10.383 C 11.177 9.591,11.197 8.476,10.433 7.659 C 10.157 7.364,9.690 7.101,9.370 7.061 C 9.008 7.016,8.939 7.015,8.682 7.046 M17.517 14.937 L 19.013 16.433 18.989 17.540 C 18.963 18.733,18.958 18.761,18.736 18.906 C 18.640 18.969,18.139 18.975,11.986 18.991 L 5.340 19.008 5.189 18.851 L 5.037 18.694 5.012 17.951 L 4.988 17.208 6.528 16.181 L 8.069 15.154 9.924 16.082 L 11.779 17.009 12.017 16.985 C 12.148 16.971,12.331 16.923,12.423 16.879 C 12.533 16.825,13.167 16.227,14.285 15.121 C 15.217 14.199,15.989 13.443,16.000 13.442 C 16.011 13.441,16.694 14.113,17.517 14.937 " fill="#1A1C1F" stroke="none" fill-rule="evenodd"></path></svg>