<svg width="20" height="20" viewBox="0 0 20 20" fill="none" xmlns="http://www.w3.org/2000/svg"><path d="M4.628 3.066 C 4.395 3.096,4.080 3.243,3.813 3.445 C 3.489 3.690,3.266 3.996,3.089 4.440 L 3.000 4.661 3.002 8.989 C 3.004 13.791,3.030 15.399,3.109 15.626 C 3.198 15.879,3.378 16.145,3.628 16.393 C 3.827 16.590,3.938 16.667,4.228 16.809 L 4.583 16.983 9.867 16.983 C 14.104 16.983,15.196 16.975,15.383 16.939 C 15.738 16.872,16.004 16.729,16.304 16.442 C 16.592 16.166,16.777 15.899,16.911 15.561 L 17.000 15.339 17.000 10.000 L 17.000 4.661 16.902 4.416 C 16.666 3.827,16.309 3.446,15.733 3.170 L 15.483 3.050 10.150 3.046 C 7.217 3.043,4.732 3.052,4.628 3.066 M15.000 7.788 L 15.000 10.577 14.408 9.995 C 13.486 9.089,13.365 9.012,12.916 9.041 C 12.692 9.055,12.644 9.071,12.474 9.187 C 12.369 9.258,11.706 9.888,11.000 10.587 L 9.717 11.857 8.567 11.472 L 7.417 11.087 7.037 11.073 L 6.657 11.059 5.861 11.451 C 5.423 11.666,5.054 11.832,5.041 11.818 C 5.027 11.805,5.012 10.266,5.007 8.397 L 4.998 5.000 9.999 5.000 L 15.000 5.000 15.000 7.788 M7.200 6.046 C 6.789 6.138,6.352 6.474,6.170 6.837 C 5.889 7.400,5.982 8.026,6.416 8.493 C 6.655 8.750,6.898 8.890,7.214 8.955 C 7.696 9.053,8.119 8.930,8.492 8.585 C 8.866 8.239,9.061 7.699,8.971 7.259 C 8.845 6.643,8.384 6.178,7.771 6.048 C 7.510 5.993,7.443 5.992,7.200 6.046 M14.008 12.425 L 15.000 13.416 15.000 14.208 L 15.000 15.000 10.000 15.000 L 5.000 15.000 5.000 14.555 L 5.000 14.111 5.908 13.667 C 6.408 13.422,6.880 13.194,6.958 13.160 L 7.100 13.097 8.328 13.496 C 9.003 13.715,9.670 13.919,9.811 13.948 C 10.141 14.016,10.315 13.980,10.566 13.792 C 10.667 13.716,11.252 13.154,11.867 12.544 C 12.481 11.934,12.991 11.435,13.000 11.434 C 13.009 11.434,13.463 11.879,14.008 12.425 " fill="#1A1C1F" stroke="none" fill-rule="evenodd"></path></svg>