<svg width="28" height="28" viewBox="0 0 28 28" fill="none" xmlns="http://www.w3.org/2000/svg"><path d="M4.900 2.704 C 4.561 2.727,4.452 2.758,4.153 2.912 C 3.488 3.256,2.970 3.877,2.704 4.650 C 2.615 4.909,2.613 5.118,2.613 13.951 C 2.613 21.907,2.622 23.020,2.685 23.261 C 2.923 24.174,3.685 24.963,4.649 25.295 C 4.909 25.385,5.105 25.387,13.996 25.386 L 23.077 25.385 23.451 25.255 C 23.900 25.099,24.292 24.841,24.643 24.471 C 24.946 24.151,25.103 23.897,25.268 23.460 L 25.387 23.145 25.385 14.991 C 25.384 10.506,25.365 6.324,25.342 5.698 L 25.300 4.559 25.136 4.226 C 24.967 3.883,24.614 3.442,24.318 3.203 C 24.226 3.128,23.959 2.975,23.725 2.863 L 23.299 2.660 14.298 2.668 C 9.347 2.672,5.118 2.689,4.900 2.704 M23.216 4.565 C 23.292 4.624,23.403 4.743,23.465 4.829 L 23.576 4.985 23.601 7.451 C 23.615 8.807,23.610 11.528,23.591 13.498 L 23.555 17.078 21.706 15.252 C 20.689 14.247,19.775 13.366,19.675 13.293 C 19.478 13.149,19.283 13.125,18.987 13.208 C 18.740 13.276,18.269 13.792,15.452 17.071 C 14.043 18.711,13.825 18.947,13.718 18.947 C 13.672 18.947,12.713 18.503,11.588 17.961 C 9.210 16.815,8.867 16.660,8.718 16.660 C 8.544 16.660,8.047 16.919,6.790 17.664 C 4.939 18.762,4.537 18.993,4.484 18.993 C 4.448 18.993,4.433 16.959,4.433 11.979 L 4.433 4.965 4.582 4.763 C 4.663 4.653,4.794 4.534,4.873 4.499 C 4.992 4.447,6.573 4.438,14.048 4.447 L 23.079 4.457 23.216 4.565 M9.147 6.187 C 8.233 6.345,7.671 6.645,7.061 7.298 C 6.374 8.033,6.042 9.015,6.160 9.962 C 6.266 10.815,6.558 11.443,7.117 12.019 C 7.864 12.788,8.830 13.170,9.850 13.097 C 10.695 13.037,11.433 12.697,12.040 12.088 C 12.488 11.639,12.682 11.336,12.921 10.718 C 13.079 10.308,13.086 10.265,13.087 9.683 C 13.089 8.998,13.023 8.677,12.769 8.143 C 12.350 7.263,11.477 6.530,10.540 6.272 C 10.293 6.204,9.372 6.148,9.147 6.187 M9.918 7.938 C 10.445 8.035,10.872 8.344,11.151 8.829 C 11.286 9.065,11.292 9.102,11.293 9.603 C 11.293 10.076,11.281 10.154,11.174 10.366 C 11.025 10.658,10.729 10.985,10.479 11.130 C 10.375 11.191,10.145 11.277,9.967 11.321 C 9.688 11.391,9.605 11.394,9.363 11.344 C 8.813 11.230,8.476 10.998,8.161 10.515 L 7.957 10.201 7.957 9.639 C 7.957 8.993,7.997 8.874,8.342 8.490 C 8.570 8.236,8.855 8.050,9.160 7.954 C 9.407 7.877,9.571 7.873,9.918 7.938 M23.601 21.314 L 23.579 23.005 23.450 23.181 C 23.379 23.278,23.255 23.414,23.175 23.484 L 23.030 23.611 14.005 23.612 L 4.980 23.613 4.783 23.452 C 4.674 23.363,4.552 23.220,4.512 23.134 C 4.416 22.933,4.364 22.135,4.408 21.549 L 4.442 21.099 6.554 19.836 C 7.716 19.142,8.691 18.573,8.721 18.573 C 8.825 18.573,9.335 18.809,11.207 19.720 C 13.338 20.757,13.883 21.000,14.081 21.000 C 14.371 21.000,14.540 20.822,17.349 17.554 L 19.289 15.299 21.455 17.461 L 23.622 19.623 23.601 21.314 " fill="#1A1C1F" stroke="none" fill-rule="evenodd"></path></svg>