<svg width="20" height="20" viewBox="0 0 20 20" fill="none" xmlns="http://www.w3.org/2000/svg"><path d="M4.683 3.064 C 4.057 3.123,3.379 3.711,3.085 4.449 L 2.992 4.681 3.009 9.999 C 3.024 14.807,3.031 15.336,3.080 15.514 C 3.171 15.838,3.296 16.032,3.632 16.368 C 3.897 16.633,4.000 16.711,4.250 16.835 L 4.550 16.983 9.900 16.982 C 13.951 16.980,15.293 16.970,15.427 16.940 C 16.004 16.809,16.563 16.327,16.863 15.700 L 16.983 15.450 16.992 10.057 L 17.001 4.665 16.906 4.422 C 16.683 3.847,16.235 3.387,15.656 3.138 L 15.450 3.050 10.183 3.046 C 7.287 3.044,4.811 3.052,4.683 3.064 M15.000 7.788 L 15.000 10.577 14.408 9.995 C 13.486 9.089,13.365 9.012,12.916 9.041 C 12.692 9.055,12.644 9.071,12.474 9.187 C 12.369 9.258,11.706 9.888,11.000 10.587 L 9.717 11.857 8.567 11.472 L 7.417 11.087 7.037 11.073 L 6.657 11.059 5.861 11.451 C 5.423 11.666,5.054 11.832,5.041 11.818 C 5.027 11.805,5.012 10.266,5.007 8.397 L 4.998 5.000 9.999 5.000 L 15.000 5.000 15.000 7.788 M7.200 6.046 C 6.789 6.138,6.352 6.474,6.170 6.837 C 5.889 7.400,5.982 8.026,6.416 8.493 C 6.655 8.750,6.898 8.890,7.214 8.955 C 7.696 9.053,8.119 8.930,8.492 8.585 C 8.866 8.239,9.061 7.699,8.971 7.259 C 8.845 6.643,8.384 6.178,7.771 6.048 C 7.510 5.993,7.443 5.992,7.200 6.046 " fill="#1A1C1F" stroke="none" fill-rule="evenodd"></path></svg>