<svg width="32" height="32" viewBox="0 0 32 32" fill="none" xmlns="http://www.w3.org/2000/svg"><path d="M5.627 3.089 C 5.194 3.117,5.104 3.143,4.715 3.348 C 3.961 3.747,3.445 4.364,3.098 5.280 L 2.987 5.573 2.987 15.978 C 2.987 26.164,2.989 26.390,3.091 26.686 C 3.458 27.753,4.247 28.542,5.314 28.909 C 5.610 29.011,5.836 29.013,16.007 29.013 L 26.397 29.013 26.820 28.859 C 27.334 28.671,27.769 28.382,28.164 27.966 C 28.510 27.601,28.690 27.311,28.878 26.812 L 29.013 26.451 29.011 17.132 C 29.010 12.007,28.988 7.228,28.962 6.512 L 28.915 5.210 28.722 4.821 C 28.596 4.564,28.392 4.286,28.124 4.000 C 27.771 3.625,27.646 3.533,27.179 3.304 L 26.641 3.040 16.374 3.049 C 10.727 3.055,5.891 3.073,5.627 3.089 M26.533 5.217 C 26.619 5.284,26.747 5.420,26.816 5.518 L 26.943 5.697 26.972 8.568 C 26.988 10.148,26.983 13.257,26.961 15.479 L 26.920 19.517 24.735 17.362 C 23.533 16.177,22.470 15.170,22.373 15.124 C 22.133 15.010,21.838 15.019,21.571 15.148 C 21.338 15.261,21.153 15.467,17.398 19.823 L 15.734 21.752 13.614 20.711 C 11.017 19.436,10.293 19.103,10.038 19.064 C 9.770 19.024,9.459 19.180,7.520 20.330 C 5.414 21.578,5.191 21.707,5.124 21.707 C 5.083 21.707,5.067 19.374,5.067 13.688 L 5.067 5.669 5.230 5.444 C 5.320 5.320,5.470 5.185,5.563 5.145 C 5.707 5.082,7.331 5.072,16.055 5.082 L 26.376 5.093 26.533 5.217 M10.453 7.070 C 9.410 7.251,8.767 7.594,8.070 8.340 C 6.950 9.539,6.702 11.276,7.437 12.775 C 7.913 13.745,8.935 14.576,10.000 14.858 C 10.564 15.008,11.528 14.996,12.053 14.834 C 12.763 14.614,13.257 14.319,13.760 13.815 C 14.275 13.298,14.499 12.948,14.760 12.255 C 15.534 10.193,14.241 7.773,12.041 7.167 C 11.762 7.090,10.709 7.026,10.453 7.070 M11.335 9.071 C 11.934 9.182,12.430 9.544,12.752 10.105 C 12.896 10.357,12.906 10.410,12.906 10.975 C 12.907 11.517,12.893 11.604,12.769 11.849 C 12.366 12.644,11.449 13.133,10.680 12.962 C 10.056 12.823,9.682 12.562,9.327 12.017 L 9.093 11.658 9.093 11.016 C 9.093 10.278,9.139 10.142,9.533 9.703 C 9.795 9.413,10.119 9.200,10.469 9.091 C 10.751 9.002,10.939 8.998,11.335 9.071 M26.972 24.359 L 26.947 26.291 26.800 26.492 C 26.719 26.603,26.577 26.759,26.486 26.839 L 26.320 26.984 16.005 26.985 L 5.691 26.987 5.466 26.802 C 5.342 26.701,5.203 26.538,5.156 26.439 C 5.047 26.209,4.987 25.298,5.038 24.628 L 5.076 24.114 7.491 22.670 C 8.818 21.876,9.933 21.227,9.967 21.227 C 10.085 21.227,10.669 21.496,12.808 22.537 C 15.243 23.723,15.866 24.000,16.092 24.000 C 16.425 24.000,16.618 23.796,19.828 20.062 L 22.044 17.485 24.520 19.956 L 26.997 22.427 26.972 24.359 " fill="#1A1C1F" stroke="none" fill-rule="evenodd"></path></svg>