<svg width="16" height="16" viewBox="0 0 16 16" fill="none" xmlns="http://www.w3.org/2000/svg"><path d="M3.686 2.455 C 3.456 2.485,3.188 2.634,2.932 2.874 C 2.697 3.093,2.598 3.236,2.478 3.521 L 2.395 3.720 2.408 7.987 C 2.422 12.760,2.406 12.400,2.616 12.754 C 2.675 12.853,2.807 13.018,2.909 13.121 C 3.060 13.271,3.149 13.333,3.381 13.447 L 3.667 13.587 7.893 13.587 C 12.492 13.587,12.342 13.591,12.664 13.435 C 13.006 13.270,13.405 12.806,13.545 12.413 L 13.601 12.253 13.594 7.960 L 13.587 3.667 13.508 3.493 C 13.279 2.987,12.942 2.663,12.465 2.490 L 12.291 2.427 8.072 2.430 C 5.752 2.432,3.778 2.443,3.686 2.455 M12.000 6.229 L 12.000 8.459 11.464 7.937 C 10.852 7.341,10.751 7.264,10.543 7.238 C 10.289 7.207,10.148 7.234,9.979 7.350 C 9.895 7.407,9.365 7.911,8.800 8.469 L 7.773 9.485 6.853 9.177 L 5.933 8.869 5.629 8.858 L 5.325 8.847 4.689 9.161 C 4.338 9.333,4.043 9.465,4.033 9.455 C 4.022 9.444,4.010 8.213,4.006 6.718 L 3.999 4.000 7.999 4.000 L 12.000 4.000 12.000 6.229 M5.680 4.850 C 5.385 4.948,5.063 5.216,4.936 5.470 C 4.711 5.920,4.786 6.421,5.133 6.795 C 5.324 7.000,5.518 7.112,5.772 7.164 C 6.175 7.246,6.521 7.136,6.828 6.829 C 7.011 6.646,7.100 6.495,7.162 6.260 C 7.299 5.748,7.027 5.195,6.514 4.941 C 6.330 4.850,6.299 4.843,6.032 4.836 C 5.875 4.832,5.717 4.838,5.680 4.850 M11.207 9.940 L 12.000 10.733 12.000 11.366 L 12.000 12.000 8.000 12.000 L 4.000 12.000 4.000 11.644 L 4.000 11.289 4.727 10.933 C 5.126 10.738,5.504 10.555,5.567 10.528 L 5.680 10.478 6.660 10.797 C 7.199 10.972,7.733 11.135,7.846 11.158 C 8.113 11.213,8.252 11.184,8.453 11.033 C 8.534 10.973,9.002 10.524,9.493 10.035 C 9.985 9.547,10.393 9.148,10.400 9.147 C 10.407 9.147,10.770 9.504,11.207 9.940 " fill="#1A1C1F" stroke="none" fill-rule="evenodd"></path></svg>