<svg width="12" height="12" viewBox="0 0 12 12" fill="none" xmlns="http://www.w3.org/2000/svg"><path d="M2.777 1.840 C 2.637 1.858,2.448 1.945,2.288 2.067 C 2.093 2.214,1.960 2.397,1.852 2.666 L 1.799 2.800 1.805 6.015 L 1.811 9.230 1.858 9.357 C 1.922 9.529,2.077 9.756,2.216 9.881 C 2.285 9.943,2.413 10.024,2.540 10.087 L 2.750 10.190 5.920 10.190 C 8.414 10.190,9.120 10.185,9.230 10.164 C 9.439 10.126,9.602 10.038,9.783 9.865 C 9.956 9.700,10.066 9.539,10.147 9.336 L 10.200 9.202 10.195 5.976 L 10.190 2.750 10.131 2.620 C 9.960 2.242,9.705 1.997,9.349 1.867 L 9.218 1.820 6.054 1.823 C 4.314 1.824,2.839 1.832,2.777 1.840 M9.000 4.673 L 9.000 6.347 8.645 5.997 C 8.094 5.455,8.019 5.407,7.750 5.424 C 7.615 5.433,7.587 5.443,7.484 5.512 C 7.422 5.555,7.024 5.933,6.600 6.352 L 5.830 7.114 5.140 6.883 L 4.450 6.652 4.222 6.644 L 3.994 6.635 3.516 6.870 C 3.254 7.000,3.032 7.099,3.024 7.091 C 3.016 7.083,3.008 6.159,3.004 5.038 L 2.999 3.000 5.999 3.000 L 9.000 3.000 9.000 4.673 M4.260 3.638 C 4.037 3.711,3.795 3.915,3.699 4.109 C 3.571 4.369,3.581 4.697,3.724 4.935 C 3.808 5.074,4.001 5.253,4.130 5.312 C 4.363 5.418,4.653 5.417,4.874 5.309 C 5.013 5.241,5.192 5.074,5.276 4.935 C 5.369 4.780,5.411 4.562,5.384 4.376 C 5.341 4.092,5.153 3.838,4.887 3.707 C 4.747 3.638,4.724 3.633,4.524 3.627 C 4.406 3.624,4.288 3.628,4.260 3.638 M8.405 7.455 L 9.000 8.050 9.000 8.525 L 9.000 9.000 6.000 9.000 L 3.000 9.000 3.000 8.733 L 3.000 8.466 3.564 8.191 C 3.874 8.039,4.157 7.902,4.194 7.887 C 4.259 7.860,4.287 7.867,4.996 8.098 C 5.968 8.414,6.056 8.431,6.243 8.338 C 6.344 8.287,6.677 7.977,7.280 7.372 C 7.560 7.090,7.794 6.860,7.800 6.860 C 7.805 6.860,8.078 7.128,8.405 7.455 " fill="#1A1C1F" stroke="none" fill-rule="evenodd"></path></svg>