<svg width="14" height="14" viewBox="0 0 14 14" fill="none" xmlns="http://www.w3.org/2000/svg"><path d="M3.266 2.145 C 2.839 2.190,2.362 2.605,2.162 3.107 L 2.100 3.263 2.100 6.986 L 2.100 10.709 2.156 10.857 C 2.271 11.164,2.430 11.391,2.662 11.582 C 2.796 11.692,3.053 11.830,3.210 11.877 C 3.283 11.898,4.158 11.902,7.013 11.894 C 10.405 11.884,10.734 11.880,10.862 11.844 C 11.238 11.738,11.605 11.405,11.804 10.990 L 11.888 10.815 11.894 7.040 L 11.900 3.265 11.834 3.096 C 11.678 2.693,11.365 2.371,10.959 2.197 L 10.815 2.135 7.117 2.132 C 5.083 2.131,3.350 2.137,3.266 2.145 M10.500 5.452 L 10.500 7.405 10.086 6.997 C 9.443 6.364,9.356 6.308,9.041 6.328 C 8.885 6.339,8.851 6.350,8.732 6.431 C 8.658 6.481,8.194 6.922,7.700 7.411 L 6.802 8.300 5.997 8.030 L 5.192 7.761 4.922 7.751 L 4.652 7.742 4.202 7.967 C 3.955 8.091,3.702 8.212,3.641 8.236 L 3.529 8.280 3.515 8.174 C 3.507 8.115,3.500 7.039,3.500 5.783 L 3.500 3.500 7.000 3.500 L 10.500 3.500 10.500 5.452 M5.040 4.232 C 4.748 4.298,4.440 4.537,4.317 4.794 C 4.118 5.211,4.185 5.618,4.508 5.963 C 4.905 6.388,5.517 6.407,5.945 6.009 C 6.241 5.734,6.359 5.369,6.266 5.020 C 6.211 4.814,6.121 4.658,5.978 4.521 C 5.816 4.367,5.650 4.278,5.440 4.234 C 5.257 4.195,5.210 4.195,5.040 4.232 " fill="#1A1C1F" stroke="none" fill-rule="evenodd"></path></svg>