<svg width="12" height="12" viewBox="0 0 12 12" fill="none" xmlns="http://www.w3.org/2000/svg"><path d="M2.799 1.839 C 2.434 1.877,2.025 2.233,1.853 2.663 L 1.800 2.797 1.800 5.989 L 1.800 9.181 1.861 9.339 C 2.009 9.723,2.272 9.990,2.652 10.142 L 2.807 10.204 5.999 10.195 C 8.916 10.186,9.200 10.183,9.310 10.152 C 9.633 10.061,9.947 9.776,10.118 9.420 L 10.190 9.270 10.189 6.060 C 10.188 3.600,10.182 2.825,10.164 2.742 C 10.120 2.548,10.026 2.386,9.859 2.212 C 9.688 2.034,9.549 1.940,9.349 1.867 L 9.218 1.820 6.074 1.823 C 4.345 1.824,2.871 1.832,2.799 1.839 M9.000 4.673 L 9.000 6.347 8.645 5.997 C 8.094 5.455,8.019 5.407,7.750 5.424 C 7.615 5.433,7.587 5.443,7.484 5.512 C 7.422 5.555,7.024 5.933,6.600 6.352 L 5.830 7.114 5.140 6.883 L 4.450 6.652 4.222 6.644 L 3.994 6.635 3.516 6.870 C 3.254 7.000,3.032 7.099,3.024 7.091 C 3.016 7.083,3.008 6.159,3.004 5.038 L 2.999 3.000 5.999 3.000 L 9.000 3.000 9.000 4.673 M4.260 3.638 C 4.037 3.711,3.795 3.915,3.699 4.109 C 3.571 4.369,3.581 4.697,3.724 4.935 C 3.808 5.074,4.001 5.253,4.130 5.312 C 4.363 5.418,4.653 5.417,4.874 5.309 C 5.013 5.241,5.192 5.074,5.276 4.935 C 5.369 4.780,5.411 4.562,5.384 4.376 C 5.341 4.092,5.153 3.838,4.887 3.707 C 4.747 3.638,4.724 3.633,4.524 3.627 C 4.406 3.624,4.288 3.628,4.260 3.638 " fill="#1A1C1F" stroke="none" fill-rule="evenodd"></path></svg>