<svg width="14" height="14" viewBox="0 0 14 14" fill="none" xmlns="http://www.w3.org/2000/svg"><path d="M3.234 2.149 C 2.967 2.188,2.652 2.380,2.443 2.631 C 2.381 2.705,2.282 2.864,2.221 2.985 L 2.112 3.204 2.112 6.975 L 2.112 10.745 2.167 10.904 C 2.238 11.110,2.417 11.376,2.585 11.528 C 2.666 11.600,2.815 11.695,2.963 11.768 L 3.208 11.888 6.942 11.887 C 9.763 11.886,10.705 11.879,10.799 11.858 C 11.193 11.769,11.588 11.428,11.800 10.995 L 11.888 10.815 11.894 7.039 L 11.900 3.264 11.832 3.092 C 11.666 2.679,11.416 2.412,11.013 2.219 L 10.838 2.135 7.105 2.132 C 5.052 2.130,3.310 2.138,3.234 2.149 M10.500 5.452 L 10.500 7.405 10.086 6.997 C 9.443 6.364,9.356 6.308,9.041 6.328 C 8.885 6.339,8.851 6.350,8.732 6.431 C 8.658 6.481,8.194 6.922,7.700 7.411 L 6.802 8.300 5.997 8.030 L 5.192 7.761 4.922 7.751 L 4.652 7.742 4.202 7.967 C 3.955 8.091,3.702 8.212,3.641 8.236 L 3.529 8.280 3.515 8.174 C 3.507 8.115,3.500 7.039,3.500 5.783 L 3.500 3.500 7.000 3.500 L 10.500 3.500 10.500 5.452 M5.040 4.232 C 4.748 4.298,4.440 4.537,4.317 4.794 C 4.118 5.211,4.185 5.618,4.508 5.963 C 4.905 6.388,5.517 6.407,5.945 6.009 C 6.241 5.734,6.359 5.369,6.266 5.020 C 6.211 4.814,6.121 4.658,5.978 4.521 C 5.816 4.367,5.650 4.278,5.440 4.234 C 5.257 4.195,5.210 4.195,5.040 4.232 M9.806 8.697 L 10.500 9.391 10.500 9.946 L 10.500 10.500 7.000 10.500 L 3.500 10.500 3.500 10.189 L 3.500 9.878 4.136 9.567 C 4.486 9.396,4.816 9.236,4.871 9.212 L 4.969 9.168 5.828 9.447 C 6.968 9.817,7.066 9.836,7.284 9.727 C 7.402 9.668,7.790 9.306,8.493 8.601 C 8.820 8.272,9.093 8.003,9.100 8.003 C 9.106 8.003,9.424 8.316,9.806 8.697 " fill="#1A1C1F" stroke="none" fill-rule="evenodd"></path></svg>