<svg width="32" height="32" viewBox="0 0 32 32" fill="none" xmlns="http://www.w3.org/2000/svg"><path d="M21.413 3.438 C 20.970 3.540,20.624 3.662,20.185 3.870 C 19.374 4.253,19.016 4.542,17.620 5.939 C 16.882 6.677,16.236 7.364,16.184 7.467 C 15.944 7.934,16.143 8.463,16.657 8.718 C 16.975 8.877,17.190 8.889,17.426 8.760 C 17.521 8.709,18.084 8.208,18.679 7.648 C 20.391 6.036,20.639 5.838,21.272 5.581 C 21.799 5.367,22.171 5.314,22.898 5.350 C 23.609 5.385,23.954 5.468,24.480 5.733 C 25.261 6.126,25.835 6.695,26.243 7.478 C 26.539 8.047,26.670 8.593,26.673 9.262 C 26.675 9.921,26.569 10.383,26.288 10.953 C 26.031 11.472,25.809 11.778,25.222 12.427 C 24.717 12.985,19.812 17.781,19.387 18.133 C 18.767 18.646,17.994 18.902,17.067 18.901 C 15.949 18.899,15.252 18.614,14.219 17.737 C 13.991 17.543,13.712 17.337,13.598 17.279 C 13.151 17.051,12.592 17.201,12.353 17.613 C 12.041 18.151,12.129 18.458,12.786 19.109 C 13.583 19.899,14.511 20.444,15.547 20.731 C 16.043 20.869,16.149 20.879,17.067 20.877 C 17.967 20.875,18.100 20.862,18.585 20.731 C 19.195 20.566,20.056 20.163,20.482 19.844 C 21.225 19.287,26.412 14.128,27.438 12.926 C 28.065 12.190,28.549 11.018,28.649 9.994 C 28.837 8.045,28.273 6.407,26.960 5.094 C 26.207 4.340,25.364 3.830,24.400 3.544 C 23.962 3.414,23.824 3.400,22.827 3.383 C 22.025 3.369,21.648 3.383,21.413 3.438 M14.133 11.143 C 13.093 11.268,11.875 11.808,11.129 12.474 C 9.819 13.644,5.437 18.049,4.559 19.078 C 3.969 19.770,3.462 20.965,3.354 21.920 C 3.271 22.647,3.338 23.697,3.502 24.264 C 3.819 25.358,4.299 26.173,5.090 26.961 C 5.870 27.736,6.738 28.241,7.776 28.520 C 8.243 28.646,8.386 28.659,9.253 28.659 C 10.121 28.659,10.263 28.646,10.732 28.520 C 11.427 28.333,12.071 28.064,12.462 27.799 C 13.028 27.415,15.300 25.222,15.768 24.608 C 15.889 24.449,15.916 24.361,15.912 24.131 C 15.904 23.555,15.513 23.182,14.912 23.176 C 14.572 23.173,14.652 23.111,13.054 24.598 C 12.358 25.246,11.662 25.872,11.508 25.989 C 11.166 26.248,10.695 26.475,10.269 26.585 C 9.861 26.690,8.782 26.692,8.347 26.589 C 7.030 26.277,5.871 25.161,5.459 23.810 C 5.384 23.563,5.363 23.317,5.364 22.693 C 5.366 21.968,5.379 21.857,5.505 21.504 C 5.737 20.856,6.056 20.366,6.724 19.635 C 7.543 18.739,12.014 14.372,12.550 13.945 C 13.353 13.306,13.889 13.120,14.933 13.120 C 15.998 13.120,16.675 13.366,17.543 14.068 C 18.627 14.944,18.774 15.002,19.252 14.742 C 19.743 14.475,19.948 13.900,19.713 13.450 C 19.589 13.213,18.951 12.602,18.455 12.244 C 17.730 11.722,16.838 11.332,16.080 11.205 C 15.626 11.128,14.543 11.094,14.133 11.143 " fill="#1A1C1F" stroke="none" fill-rule="evenodd"></path></svg>