<svg width="20" height="20" viewBox="0 0 20 20" fill="none" xmlns="http://www.w3.org/2000/svg"><path d="M12.233 3.050 C 11.310 3.256,10.261 3.914,10.016 4.440 C 9.819 4.864,9.971 5.367,10.381 5.650 C 10.720 5.883,11.050 5.884,11.433 5.653 C 11.534 5.592,11.754 5.458,11.922 5.356 C 12.302 5.124,12.551 5.038,12.927 5.012 C 13.529 4.969,14.005 5.141,14.418 5.550 C 14.819 5.948,15.000 6.388,15.000 6.967 C 15.000 7.622,14.870 7.889,14.206 8.591 C 13.585 9.249,11.996 10.780,11.818 10.893 C 11.541 11.069,11.250 11.144,10.850 11.145 C 10.452 11.145,10.357 11.119,9.671 10.815 C 9.407 10.699,9.378 10.693,9.115 10.707 C 8.880 10.719,8.813 10.736,8.678 10.820 C 8.235 11.094,8.063 11.654,8.288 12.093 C 8.496 12.500,9.174 12.875,10.083 13.086 C 10.403 13.160,11.253 13.159,11.611 13.084 C 12.261 12.948,12.810 12.688,13.289 12.290 C 13.735 11.919,16.031 9.611,16.263 9.300 C 16.765 8.628,17.015 7.840,17.014 6.933 C 17.013 5.838,16.641 4.941,15.867 4.167 C 15.347 3.647,14.767 3.302,14.099 3.114 C 13.816 3.034,13.715 3.024,13.117 3.014 C 12.619 3.005,12.395 3.014,12.233 3.050 M8.497 6.903 C 7.985 6.971,7.112 7.359,6.733 7.686 C 6.337 8.028,4.930 9.408,4.339 10.033 C 3.738 10.668,3.539 10.932,3.350 11.345 C 2.834 12.468,2.850 13.726,3.393 14.832 C 3.687 15.432,4.349 16.128,4.983 16.507 C 5.256 16.670,5.529 16.780,5.953 16.899 C 6.292 16.994,6.345 17.000,6.918 17.000 C 7.570 17.000,7.736 16.979,8.150 16.847 C 8.925 16.600,9.779 16.004,9.977 15.573 C 10.080 15.349,10.079 14.939,9.974 14.743 C 9.799 14.412,9.464 14.201,9.117 14.201 C 8.824 14.200,8.708 14.244,8.318 14.501 C 7.881 14.788,7.701 14.881,7.443 14.948 C 7.192 15.012,6.645 15.016,6.412 14.954 C 5.873 14.810,5.289 14.262,5.099 13.723 C 4.868 13.065,4.952 12.473,5.357 11.904 C 5.538 11.651,6.566 10.595,7.461 9.743 C 8.187 9.052,8.338 8.961,8.870 8.896 C 9.281 8.846,9.608 8.892,9.998 9.053 C 10.744 9.361,10.878 9.385,11.148 9.252 C 11.375 9.141,11.622 8.900,11.713 8.700 C 11.875 8.344,11.767 7.895,11.450 7.606 C 11.162 7.343,10.538 7.050,10.064 6.956 C 9.760 6.895,8.796 6.863,8.497 6.903 " fill="#1A1C1F" stroke="none" fill-rule="evenodd"></path></svg>