<svg width="24" height="24" viewBox="0 0 24 24" fill="none" xmlns="http://www.w3.org/2000/svg"><path d="M16.020 3.086 C 15.343 3.148,14.491 3.466,13.871 3.886 C 13.576 4.086,11.991 5.636,11.737 5.973 C 11.514 6.268,11.458 6.463,11.521 6.722 C 11.685 7.406,12.433 7.758,12.964 7.402 C 13.053 7.342,13.512 6.926,13.984 6.477 C 14.457 6.027,14.970 5.575,15.124 5.470 C 15.534 5.194,15.869 5.100,16.440 5.104 C 17.202 5.109,17.601 5.260,18.111 5.735 C 18.587 6.179,18.808 6.615,18.884 7.259 C 18.966 7.953,18.845 8.442,18.458 8.984 C 18.263 9.259,15.192 12.353,14.687 12.786 C 14.131 13.261,13.650 13.429,12.972 13.383 C 12.359 13.342,11.965 13.193,11.411 12.794 C 11.047 12.532,10.793 12.402,10.637 12.401 C 10.229 12.397,9.778 12.729,9.664 13.117 C 9.588 13.375,9.587 13.414,9.645 13.684 C 9.682 13.861,9.728 13.929,9.950 14.149 C 10.537 14.727,11.215 15.099,12.084 15.321 C 12.515 15.431,13.562 15.442,13.964 15.341 C 14.639 15.171,15.182 14.934,15.628 14.616 C 15.928 14.402,17.718 12.648,19.104 11.211 C 20.166 10.109,20.302 9.933,20.578 9.295 C 20.655 9.117,20.764 8.802,20.820 8.596 C 20.909 8.265,20.921 8.139,20.922 7.551 C 20.922 7.002,20.907 6.824,20.838 6.554 C 20.516 5.289,19.748 4.259,18.700 3.685 C 17.778 3.179,16.966 2.998,16.020 3.086 M10.120 8.640 C 9.820 8.688,9.246 8.894,8.864 9.091 C 8.455 9.303,8.168 9.517,7.634 10.008 C 7.073 10.522,4.141 13.546,3.897 13.860 C 3.499 14.374,3.204 15.132,3.092 15.928 C 3.034 16.341,3.032 16.470,3.073 16.842 C 3.194 17.933,3.638 18.874,4.379 19.616 C 5.063 20.300,5.935 20.745,6.898 20.901 C 7.577 21.011,8.254 20.946,8.994 20.698 C 9.836 20.417,10.128 20.202,11.407 18.919 C 12.504 17.818,12.602 17.660,12.465 17.193 C 12.380 16.903,12.207 16.708,11.900 16.557 C 11.676 16.447,11.618 16.434,11.451 16.459 C 11.134 16.506,11.043 16.567,10.448 17.124 C 8.830 18.641,8.823 18.646,8.316 18.815 C 7.891 18.957,7.523 18.984,7.122 18.903 C 6.508 18.778,6.245 18.635,5.787 18.175 C 5.304 17.689,5.135 17.315,5.093 16.640 C 5.065 16.175,5.127 15.745,5.265 15.453 C 5.433 15.097,5.756 14.733,7.204 13.263 C 9.615 10.816,9.838 10.652,10.800 10.611 C 11.544 10.580,11.934 10.708,12.602 11.204 C 12.983 11.487,13.138 11.556,13.405 11.558 C 13.965 11.564,14.400 11.119,14.400 10.541 C 14.400 10.054,13.791 9.459,12.822 8.995 C 12.224 8.710,11.956 8.653,11.080 8.627 C 10.673 8.615,10.241 8.621,10.120 8.640 " fill="#1A1C1F" stroke="none" fill-rule="evenodd"></path></svg>