<svg width="9" height="9" viewBox="0 0 9 9" fill="none" xmlns="http://www.w3.org/2000/svg"><path d="M6.075 0.030 C 5.829 0.059,5.447 0.192,5.187 0.339 C 4.869 0.518,4.595 0.762,4.510 0.942 C 4.466 1.036,4.463 1.053,4.463 1.200 C 4.464 1.413,4.497 1.497,4.633 1.634 C 4.688 1.690,4.765 1.750,4.805 1.769 C 4.893 1.811,5.084 1.834,5.197 1.815 C 5.300 1.798,5.349 1.773,5.624 1.592 C 5.991 1.350,6.165 1.296,6.524 1.309 C 6.755 1.317,6.864 1.345,7.050 1.441 C 7.281 1.561,7.452 1.737,7.566 1.972 C 7.683 2.214,7.688 2.236,7.687 2.565 C 7.687 2.849,7.685 2.861,7.644 2.970 C 7.590 3.113,7.519 3.235,7.414 3.366 C 7.294 3.515,5.920 4.884,5.797 4.977 C 5.535 5.175,5.179 5.278,4.898 5.235 C 4.734 5.210,4.618 5.172,4.385 5.068 C 4.152 4.963,4.050 4.941,3.908 4.963 C 3.774 4.984,3.661 5.038,3.565 5.129 C 3.330 5.351,3.299 5.705,3.493 5.961 C 3.673 6.201,4.276 6.455,4.798 6.511 C 5.379 6.575,6.124 6.359,6.582 5.995 C 6.824 5.803,8.284 4.329,8.492 4.067 C 8.848 3.619,9.049 2.914,8.986 2.333 C 8.906 1.586,8.548 0.951,7.964 0.514 C 7.700 0.317,7.370 0.158,7.050 0.076 C 6.867 0.028,6.313 0.003,6.075 0.030 M3.577 2.513 C 3.219 2.571,2.835 2.723,2.519 2.933 C 2.377 3.028,2.030 3.358,1.335 4.059 C 0.550 4.851,0.456 4.959,0.307 5.240 C -0.206 6.205,-0.056 7.369,0.685 8.173 C 1.059 8.580,1.518 8.838,2.062 8.948 C 2.797 9.096,3.588 8.897,4.180 8.413 C 4.320 8.298,4.443 8.160,4.495 8.056 C 4.534 7.979,4.537 7.960,4.537 7.800 C 4.537 7.640,4.534 7.621,4.494 7.539 C 4.408 7.364,4.226 7.226,4.029 7.185 C 3.848 7.148,3.703 7.193,3.438 7.370 C 3.223 7.514,2.979 7.637,2.835 7.675 C 2.765 7.694,2.680 7.701,2.535 7.700 C 2.359 7.700,2.315 7.695,2.197 7.659 C 1.625 7.486,1.262 6.972,1.295 6.379 C 1.299 6.295,1.314 6.181,1.328 6.124 C 1.366 5.966,1.469 5.768,1.584 5.632 C 1.716 5.476,2.951 4.242,3.134 4.083 C 3.282 3.955,3.437 3.867,3.607 3.815 C 3.679 3.793,3.749 3.788,3.952 3.788 C 4.253 3.787,4.276 3.793,4.620 3.946 C 4.911 4.075,4.980 4.092,5.104 4.067 C 5.237 4.039,5.334 3.984,5.446 3.872 C 5.607 3.710,5.678 3.517,5.642 3.339 C 5.589 3.079,5.447 2.927,5.091 2.748 C 4.905 2.655,4.679 2.578,4.462 2.534 C 4.248 2.491,3.783 2.480,3.577 2.513 " fill="#1A1C1E" stroke="none" fill-rule="evenodd"></path></svg>