<svg width="28" height="28" viewBox="0 0 28 28" fill="none" xmlns="http://www.w3.org/2000/svg"><path d="M19.180 2.941 C 18.145 3.044,17.164 3.527,16.156 4.432 C 15.634 4.900,14.440 6.163,14.229 6.469 C 14.025 6.766,14.012 6.906,14.162 7.212 C 14.381 7.659,14.885 7.871,15.247 7.668 C 15.330 7.621,15.813 7.193,16.320 6.715 C 17.553 5.556,17.868 5.283,18.212 5.073 C 18.767 4.736,19.488 4.590,20.222 4.666 C 21.114 4.759,21.702 5.038,22.333 5.668 C 22.691 6.026,22.788 6.157,22.970 6.533 C 23.252 7.113,23.333 7.465,23.333 8.104 C 23.333 9.111,23.083 9.725,22.340 10.547 C 21.721 11.230,17.598 15.322,17.105 15.742 C 16.692 16.093,16.343 16.279,15.820 16.424 C 15.296 16.569,14.796 16.595,14.327 16.500 C 13.607 16.354,13.233 16.156,12.413 15.491 C 11.777 14.974,11.678 14.932,11.325 15.030 C 10.941 15.137,10.590 15.630,10.658 15.967 C 10.715 16.252,11.259 16.834,11.947 17.347 C 12.784 17.970,13.854 18.294,15.073 18.293 C 16.183 18.291,17.405 17.824,18.311 17.054 C 18.824 16.617,20.347 15.115,21.999 13.417 C 24.175 11.179,24.416 10.888,24.720 10.134 C 25.021 9.388,25.063 9.138,25.068 8.073 L 25.072 7.117 24.903 6.611 C 24.586 5.665,24.249 5.110,23.591 4.450 C 22.411 3.267,20.946 2.766,19.180 2.941 M12.343 9.754 C 11.357 9.854,10.380 10.327,9.502 11.131 C 8.656 11.905,4.954 15.585,4.428 16.173 C 3.800 16.878,3.675 17.053,3.399 17.624 C 3.073 18.300,2.935 18.865,2.906 19.655 C 2.869 20.632,3.025 21.410,3.411 22.174 C 3.910 23.164,4.814 24.082,5.766 24.566 C 7.047 25.217,8.650 25.292,9.996 24.764 C 10.855 24.426,11.209 24.169,12.336 23.059 C 13.441 21.971,13.892 21.456,13.929 21.239 C 14.001 20.813,13.727 20.402,13.303 20.301 C 12.840 20.190,12.836 20.192,11.480 21.466 C 10.030 22.827,9.831 22.977,9.217 23.176 C 8.728 23.334,7.930 23.376,7.431 23.270 C 6.770 23.130,6.191 22.809,5.708 22.318 C 5.288 21.890,4.987 21.418,4.832 20.941 C 4.708 20.560,4.704 20.518,4.723 19.758 C 4.741 19.022,4.751 18.949,4.874 18.651 C 5.089 18.132,5.401 17.709,6.169 16.893 C 7.004 16.007,10.179 12.895,10.830 12.325 C 11.557 11.690,12.158 11.462,13.090 11.469 C 14.049 11.477,14.679 11.733,15.586 12.485 C 15.896 12.742,16.196 12.952,16.298 12.982 C 16.798 13.132,17.461 12.512,17.340 12.007 C 17.224 11.525,16.315 10.703,15.377 10.232 C 14.744 9.914,14.301 9.799,13.533 9.751 C 12.796 9.705,12.817 9.705,12.343 9.754 " fill="#1A1C1F" stroke="none" fill-rule="evenodd"></path></svg>