<svg width="14" height="14" viewBox="0 0 14 14" fill="none" xmlns="http://www.w3.org/2000/svg"><path d="M8.551 2.134 C 8.068 2.245,7.533 2.531,7.208 2.850 C 7.016 3.039,6.967 3.143,6.967 3.360 C 6.967 3.586,7.005 3.693,7.137 3.833 C 7.281 3.987,7.394 4.042,7.598 4.055 C 7.791 4.067,7.906 4.025,8.213 3.829 C 8.611 3.574,8.840 3.492,9.158 3.491 C 9.735 3.489,10.271 3.889,10.455 4.460 C 10.525 4.679,10.531 5.027,10.468 5.238 C 10.382 5.525,10.315 5.613,9.675 6.274 C 9.052 6.918,8.446 7.510,8.316 7.601 C 8.275 7.629,8.144 7.686,8.024 7.726 C 7.630 7.860,7.353 7.830,6.850 7.599 C 6.656 7.510,6.623 7.502,6.452 7.503 C 6.021 7.506,5.756 7.769,5.760 8.190 C 5.761 8.389,5.807 8.492,5.961 8.646 C 6.118 8.802,6.309 8.911,6.650 9.037 C 7.035 9.179,7.177 9.200,7.672 9.188 C 8.099 9.177,8.114 9.175,8.375 9.090 C 8.706 8.981,8.983 8.851,9.161 8.719 C 9.479 8.485,11.187 6.778,11.428 6.454 C 11.663 6.137,11.856 5.626,11.904 5.193 C 12.002 4.295,11.693 3.457,11.035 2.837 C 10.692 2.515,10.351 2.321,9.880 2.180 C 9.688 2.122,9.633 2.117,9.182 2.110 C 8.823 2.104,8.654 2.111,8.551 2.134 M5.745 4.875 C 5.460 4.949,5.082 5.118,4.858 5.270 C 4.780 5.323,4.509 5.565,4.254 5.808 C 3.787 6.254,2.767 7.297,2.610 7.490 C 2.422 7.720,2.243 8.116,2.145 8.517 C 2.098 8.707,2.090 8.795,2.091 9.147 C 2.093 9.595,2.127 9.780,2.285 10.188 C 2.589 10.977,3.338 11.627,4.192 11.843 C 4.626 11.953,5.202 11.943,5.636 11.818 C 6.216 11.650,6.837 11.221,6.993 10.881 C 7.142 10.555,6.962 10.119,6.620 9.975 C 6.513 9.931,6.265 9.930,6.141 9.973 C 6.089 9.992,5.949 10.069,5.829 10.145 C 5.382 10.430,5.169 10.508,4.842 10.509 C 4.268 10.511,3.751 10.124,3.553 9.545 C 3.490 9.358,3.482 9.005,3.536 8.776 C 3.615 8.440,3.806 8.207,4.809 7.223 C 5.715 6.334,5.798 6.273,6.178 6.226 C 6.543 6.181,6.743 6.216,7.140 6.395 C 7.249 6.444,7.385 6.494,7.442 6.507 C 7.851 6.599,8.287 6.205,8.254 5.774 C 8.233 5.506,8.065 5.299,7.726 5.124 C 7.260 4.884,7.033 4.829,6.452 4.816 C 6.020 4.806,6.002 4.808,5.745 4.875 " fill="#1A1C1F" stroke="none" fill-rule="evenodd"></path></svg>