<svg width="12" height="12" viewBox="0 0 12 12" fill="none" xmlns="http://www.w3.org/2000/svg"><path d="M7.533 1.802 C 6.978 1.856,6.171 2.309,6.015 2.654 C 5.949 2.803,5.953 3.016,6.026 3.165 C 6.125 3.365,6.316 3.487,6.530 3.485 C 6.688 3.484,6.808 3.436,7.052 3.275 C 7.290 3.117,7.389 3.072,7.589 3.031 C 7.954 2.956,8.258 3.019,8.535 3.229 C 8.838 3.458,9.005 3.797,9.003 4.178 C 9.001 4.565,8.925 4.719,8.521 5.153 C 7.995 5.719,7.177 6.499,7.033 6.574 C 6.940 6.622,6.604 6.700,6.490 6.700 C 6.359 6.700,6.104 6.627,5.862 6.521 C 5.697 6.448,5.662 6.440,5.518 6.440 C 5.410 6.440,5.337 6.451,5.294 6.472 C 5.169 6.536,5.063 6.640,5.006 6.755 C 4.932 6.907,4.926 7.144,4.994 7.272 C 5.096 7.464,5.387 7.651,5.780 7.776 C 6.089 7.874,6.179 7.885,6.593 7.875 C 6.950 7.866,6.981 7.862,7.170 7.801 C 7.455 7.709,7.748 7.562,7.904 7.432 C 8.226 7.164,9.269 6.137,9.649 5.711 C 10.183 5.115,10.356 4.222,10.091 3.430 C 9.938 2.970,9.711 2.642,9.326 2.321 C 8.967 2.021,8.526 1.844,8.032 1.800 C 7.787 1.778,7.784 1.778,7.533 1.802 M5.289 4.120 C 4.859 4.157,4.433 4.321,4.085 4.584 C 3.878 4.741,3.407 5.196,2.792 5.834 C 2.188 6.461,2.108 6.564,1.971 6.901 C 1.933 6.995,1.878 7.160,1.849 7.267 C 1.800 7.454,1.797 7.482,1.805 7.876 C 1.811 8.258,1.816 8.304,1.867 8.470 C 1.939 8.708,2.111 9.056,2.241 9.230 C 2.374 9.407,2.639 9.669,2.804 9.786 C 3.023 9.942,3.310 10.070,3.640 10.160 C 3.765 10.193,3.850 10.200,4.160 10.200 C 4.546 10.199,4.677 10.182,4.920 10.100 C 5.414 9.934,5.897 9.579,5.999 9.308 C 6.081 9.092,6.026 8.843,5.862 8.684 C 5.734 8.560,5.657 8.530,5.460 8.530 C 5.269 8.530,5.236 8.543,4.948 8.731 C 4.611 8.950,4.462 9.000,4.145 9.000 C 3.815 9.000,3.576 8.899,3.340 8.661 C 3.071 8.390,2.945 8.017,2.999 7.648 C 3.029 7.449,3.109 7.274,3.254 7.091 C 3.435 6.863,4.713 5.597,4.853 5.506 C 5.049 5.380,5.227 5.331,5.490 5.332 C 5.744 5.333,5.837 5.356,6.141 5.492 C 6.327 5.575,6.366 5.585,6.492 5.585 C 6.706 5.584,6.872 5.481,7.000 5.268 C 7.064 5.162,7.070 5.139,7.068 5.001 C 7.066 4.744,6.969 4.597,6.700 4.440 C 6.273 4.191,5.780 4.079,5.289 4.120 " fill="#1A1C1F" stroke="none" fill-rule="evenodd"></path></svg>