<svg width="16" height="16" viewBox="0 0 16 16" fill="none" xmlns="http://www.w3.org/2000/svg"><path d="M10.013 2.403 C 9.581 2.466,9.201 2.606,8.770 2.861 C 8.142 3.233,7.905 3.559,7.958 3.980 C 7.997 4.295,8.267 4.578,8.593 4.646 C 8.805 4.690,8.937 4.651,9.267 4.447 C 9.889 4.062,10.141 3.978,10.578 4.008 C 11.128 4.047,11.628 4.389,11.862 4.886 C 11.966 5.107,12.000 5.281,12.000 5.595 C 11.999 6.001,11.910 6.247,11.649 6.565 C 11.325 6.958,9.676 8.573,9.453 8.715 C 9.254 8.842,8.975 8.915,8.680 8.917 C 8.386 8.919,8.328 8.905,7.827 8.699 C 7.586 8.601,7.502 8.579,7.360 8.578 C 7.146 8.577,6.983 8.644,6.830 8.796 C 6.662 8.965,6.603 9.100,6.604 9.320 C 6.605 9.617,6.647 9.723,6.836 9.907 C 7.096 10.162,7.666 10.409,8.157 10.481 C 8.509 10.533,9.157 10.502,9.473 10.418 C 9.809 10.330,10.193 10.161,10.420 10.001 C 10.810 9.726,12.854 7.687,13.080 7.347 C 13.528 6.671,13.714 5.828,13.584 5.065 C 13.466 4.375,13.180 3.820,12.691 3.331 C 12.247 2.888,11.788 2.626,11.180 2.468 C 11.048 2.434,10.313 2.366,10.200 2.377 C 10.185 2.379,10.101 2.390,10.013 2.403 M6.827 5.521 C 6.573 5.552,6.243 5.663,5.880 5.840 C 5.498 6.027,5.354 6.148,4.373 7.112 C 3.477 7.993,3.005 8.507,2.835 8.788 C 2.096 10.007,2.265 11.572,3.250 12.618 C 3.632 13.025,4.171 13.355,4.699 13.505 C 5.542 13.745,6.434 13.622,7.211 13.161 C 7.521 12.977,7.730 12.809,7.866 12.638 C 8.271 12.126,7.972 11.412,7.333 11.366 C 7.086 11.349,6.982 11.386,6.615 11.625 C 6.256 11.859,6.112 11.922,5.786 11.988 C 5.524 12.041,5.331 12.026,5.038 11.929 C 4.570 11.775,4.141 11.296,4.026 10.801 C 3.948 10.467,4.004 10.016,4.161 9.705 C 4.252 9.524,5.163 8.561,5.959 7.804 C 6.538 7.253,6.669 7.172,7.067 7.119 C 7.465 7.065,7.716 7.111,8.190 7.324 C 8.433 7.434,8.489 7.449,8.653 7.450 C 8.874 7.450,8.993 7.398,9.169 7.222 C 9.429 6.964,9.497 6.645,9.356 6.344 C 9.264 6.147,9.114 6.008,8.831 5.859 C 8.443 5.654,8.098 5.553,7.679 5.521 C 7.279 5.490,7.083 5.490,6.827 5.521 " fill="#1A1C1F" stroke="none" fill-rule="evenodd"></path></svg>