<svg width="28" height="28" viewBox="0 0 28 28" fill="none" xmlns="http://www.w3.org/2000/svg"><path d="M7.761 1.864 C 7.585 1.907,7.192 2.107,6.923 2.292 C 6.607 2.509,6.225 2.970,6.024 3.377 C 5.693 4.048,5.693 4.047,5.693 6.543 L 5.693 8.773 5.355 8.774 C 4.853 8.776,4.454 8.846,4.293 8.960 C 3.974 9.187,3.872 9.697,4.072 10.057 C 4.241 10.359,4.524 10.472,5.168 10.493 L 5.693 10.510 5.693 13.998 L 5.693 17.486 5.168 17.513 C 4.588 17.542,4.428 17.586,4.229 17.771 C 3.946 18.036,3.886 18.450,4.081 18.784 C 4.145 18.892,4.249 19.015,4.314 19.057 C 4.502 19.181,4.938 19.273,5.330 19.273 L 5.693 19.273 5.693 21.458 L 5.693 23.644 5.807 23.977 C 6.007 24.566,6.246 24.959,6.650 25.364 C 7.051 25.766,7.345 25.947,7.942 26.157 L 8.300 26.283 14.755 26.258 C 18.789 26.243,21.373 26.216,21.644 26.185 C 22.279 26.113,22.592 25.951,23.128 25.415 C 23.634 24.908,23.908 24.417,23.988 23.870 C 24.018 23.661,24.046 20.110,24.065 14.022 L 24.095 4.501 23.965 4.105 C 23.748 3.444,23.543 3.101,23.101 2.656 C 22.779 2.332,22.625 2.217,22.287 2.050 L 21.870 1.843 14.890 1.836 C 11.051 1.832,7.843 1.845,7.761 1.864 M10.920 14.006 L 10.920 24.511 9.623 24.492 C 8.369 24.474,8.321 24.470,8.153 24.366 C 8.058 24.307,7.909 24.172,7.822 24.065 C 7.502 23.668,7.517 23.785,7.483 21.428 L 7.452 19.284 7.937 19.266 C 8.337 19.251,8.465 19.228,8.656 19.132 C 9.303 18.811,9.352 18.013,8.747 17.659 C 8.570 17.555,8.470 17.536,8.004 17.513 L 7.467 17.486 7.467 13.999 L 7.467 10.512 7.993 10.492 C 8.670 10.466,8.871 10.371,9.068 9.987 C 9.223 9.684,9.212 9.462,9.028 9.183 C 8.840 8.898,8.604 8.807,7.984 8.782 L 7.452 8.761 7.479 6.549 C 7.505 4.405,7.509 4.331,7.607 4.129 C 7.736 3.863,8.033 3.608,8.278 3.553 C 8.384 3.529,9.021 3.508,9.695 3.505 L 10.920 3.500 10.920 14.006 M21.575 3.635 C 21.771 3.756,22.038 4.044,22.150 4.256 C 22.283 4.508,22.311 7.016,22.278 15.787 L 22.248 23.711 22.073 23.982 C 21.941 24.186,21.841 24.281,21.670 24.365 L 21.443 24.477 17.068 24.491 L 12.693 24.504 12.693 13.995 L 12.693 3.486 17.053 3.511 C 21.411 3.535,21.413 3.535,21.575 3.635 M15.680 9.658 C 14.955 9.688,14.796 9.734,14.616 9.962 C 14.504 10.105,14.450 10.428,14.492 10.710 C 14.514 10.857,14.575 10.977,14.694 11.111 L 14.864 11.303 15.377 11.342 C 16.037 11.393,18.958 11.394,19.615 11.343 C 20.049 11.310,20.136 11.289,20.239 11.194 C 20.531 10.925,20.613 10.444,20.428 10.079 C 20.268 9.763,20.115 9.699,19.420 9.655 C 18.761 9.613,16.715 9.615,15.680 9.658 M15.680 13.158 C 14.955 13.188,14.796 13.234,14.616 13.462 C 14.504 13.605,14.450 13.928,14.492 14.210 C 14.514 14.357,14.575 14.477,14.694 14.611 L 14.864 14.803 15.377 14.842 C 16.037 14.893,18.958 14.894,19.615 14.843 C 20.049 14.810,20.136 14.789,20.239 14.694 C 20.531 14.425,20.613 13.944,20.428 13.579 C 20.268 13.263,20.115 13.199,19.420 13.155 C 18.761 13.113,16.715 13.115,15.680 13.158 M15.680 16.658 C 14.955 16.688,14.796 16.734,14.616 16.962 C 14.504 17.105,14.450 17.428,14.492 17.710 C 14.514 17.857,14.575 17.977,14.694 18.111 L 14.864 18.303 15.377 18.342 C 16.037 18.393,18.958 18.394,19.615 18.343 C 20.049 18.310,20.136 18.289,20.239 18.194 C 20.531 17.925,20.613 17.444,20.428 17.079 C 20.268 16.763,20.115 16.699,19.420 16.655 C 18.761 16.613,16.715 16.615,15.680 16.658 " fill="#1A1C1F" stroke="none" fill-rule="evenodd"></path></svg>