<svg width="32" height="32" viewBox="0 0 32 32" fill="none" xmlns="http://www.w3.org/2000/svg"><path d="M8.901 2.129 C 8.686 2.172,8.247 2.389,7.912 2.619 C 7.551 2.867,7.114 3.395,6.884 3.860 C 6.507 4.626,6.507 4.625,6.507 7.478 L 6.507 10.027 6.120 10.028 C 5.566 10.029,5.067 10.112,4.909 10.229 C 4.543 10.501,4.425 11.083,4.654 11.493 C 4.847 11.839,5.170 11.968,5.907 11.992 L 6.507 12.012 6.507 15.998 L 6.507 19.984 5.907 20.014 C 5.243 20.048,5.060 20.098,4.833 20.310 C 4.510 20.613,4.441 21.086,4.664 21.468 C 4.737 21.591,4.856 21.731,4.930 21.779 C 5.145 21.921,5.643 22.027,6.091 22.027 L 6.507 22.027 6.507 24.524 L 6.507 27.021 6.636 27.403 C 6.868 28.084,7.136 28.525,7.599 28.987 C 8.058 29.446,8.398 29.655,9.076 29.893 L 9.485 30.037 16.862 30.010 C 21.490 29.992,24.425 29.961,24.736 29.926 C 25.462 29.844,25.820 29.658,26.432 29.045 C 27.011 28.467,27.323 27.905,27.415 27.280 C 27.449 27.042,27.481 22.970,27.503 16.025 L 27.537 5.144 27.388 4.692 C 27.136 3.924,26.909 3.543,26.401 3.035 C 26.031 2.665,25.850 2.530,25.468 2.341 L 24.995 2.107 17.044 2.099 C 12.671 2.095,9.007 2.108,8.901 2.129 M12.480 16.006 L 12.480 28.012 11.000 27.992 C 9.563 27.973,9.514 27.969,9.320 27.848 C 9.104 27.715,8.811 27.381,8.676 27.115 C 8.605 26.975,8.586 26.569,8.554 24.494 L 8.517 22.039 9.072 22.019 C 9.529 22.002,9.674 21.975,9.893 21.866 C 10.632 21.499,10.688 20.587,9.997 20.182 C 9.794 20.063,9.680 20.041,9.148 20.014 L 8.533 19.984 8.533 15.999 L 8.533 12.013 9.135 11.990 C 9.909 11.961,10.139 11.853,10.363 11.413 C 10.540 11.067,10.528 10.813,10.318 10.494 C 10.103 10.169,9.833 10.065,9.125 10.037 L 8.517 10.013 8.548 7.485 C 8.577 5.035,8.582 4.950,8.694 4.719 C 8.841 4.415,9.180 4.124,9.461 4.061 C 9.581 4.034,10.310 4.009,11.080 4.006 L 12.480 4.000 12.480 16.006 M24.660 4.156 C 24.882 4.293,25.187 4.624,25.313 4.863 C 25.466 5.153,25.499 8.098,25.460 18.069 L 25.426 27.099 25.226 27.408 C 25.075 27.641,24.961 27.750,24.766 27.846 L 24.507 27.973 19.507 27.989 L 14.507 28.005 14.507 15.994 L 14.507 3.984 19.492 4.013 C 24.453 4.043,24.478 4.043,24.660 4.156 M17.920 11.038 C 17.046 11.074,16.891 11.126,16.668 11.453 C 16.433 11.799,16.489 12.357,16.794 12.699 L 16.987 12.916 17.547 12.962 C 18.269 13.022,21.727 13.022,22.444 12.963 C 22.911 12.924,23.016 12.898,23.131 12.792 C 23.464 12.485,23.558 11.935,23.347 11.519 C 23.164 11.158,22.989 11.085,22.194 11.034 C 21.441 10.987,19.103 10.989,17.920 11.038 M17.920 15.038 C 17.046 15.074,16.891 15.126,16.668 15.453 C 16.433 15.799,16.489 16.357,16.794 16.699 L 16.987 16.916 17.547 16.962 C 18.269 17.022,21.727 17.022,22.444 16.963 C 22.911 16.924,23.016 16.898,23.131 16.792 C 23.464 16.485,23.558 15.935,23.347 15.519 C 23.164 15.158,22.989 15.085,22.194 15.034 C 21.441 14.987,19.103 14.989,17.920 15.038 M17.920 19.038 C 17.046 19.074,16.891 19.126,16.668 19.453 C 16.433 19.799,16.489 20.357,16.794 20.699 L 16.987 20.916 17.547 20.962 C 18.269 21.022,21.727 21.022,22.444 20.963 C 22.911 20.924,23.016 20.898,23.131 20.792 C 23.464 20.485,23.558 19.935,23.347 19.519 C 23.164 19.158,22.989 19.085,22.194 19.034 C 21.441 18.987,19.103 18.989,17.920 19.038 " fill="#1A1C1F" stroke="none" fill-rule="evenodd"></path></svg>