<svg width="24" height="24" viewBox="0 0 24 24" fill="none" xmlns="http://www.w3.org/2000/svg"><path d="M8.319 2.035 L 6.658 2.060 6.459 2.189 C 6.233 2.335,6.089 2.526,6.037 2.748 C 6.018 2.832,6.001 3.823,6.001 4.950 L 6.000 7.000 5.590 7.001 C 4.767 7.002,4.406 7.114,4.184 7.435 C 3.875 7.880,3.994 8.529,4.438 8.823 C 4.622 8.945,4.952 8.994,5.610 8.998 L 6.000 9.000 6.000 12.000 L 6.000 15.000 5.590 15.001 C 5.037 15.002,4.659 15.061,4.459 15.178 C 4.005 15.445,3.869 16.096,4.173 16.549 C 4.402 16.890,4.738 17.000,5.553 17.000 L 6.000 17.000 6.000 19.070 C 6.000 20.434,6.015 21.193,6.044 21.296 C 6.099 21.495,6.440 21.860,6.634 21.927 C 6.857 22.005,18.958 22.003,19.300 21.926 C 19.606 21.856,19.842 21.632,19.916 21.341 C 19.978 21.095,20.019 9.324,19.972 5.380 C 19.941 2.774,19.937 2.653,19.860 2.503 C 19.733 2.253,19.545 2.129,19.220 2.081 C 18.886 2.032,10.804 1.998,8.319 2.035 M18.000 12.000 L 18.000 20.000 13.000 20.000 L 8.000 20.000 8.000 12.000 L 8.000 4.000 13.000 4.000 L 18.000 4.000 18.000 12.000 M11.220 9.040 C 10.647 9.069,10.558 9.094,10.342 9.284 C 9.997 9.586,9.915 10.068,10.140 10.475 C 10.205 10.593,10.312 10.730,10.379 10.780 C 10.645 10.978,10.667 10.980,13.066 10.980 L 15.313 10.980 15.485 10.859 C 15.729 10.688,15.906 10.439,15.962 10.188 C 16.026 9.902,15.938 9.584,15.731 9.356 C 15.498 9.097,15.415 9.071,14.700 9.036 C 13.960 8.999,11.979 9.002,11.220 9.040 M11.220 13.040 C 10.647 13.069,10.558 13.094,10.342 13.284 C 9.997 13.586,9.915 14.068,10.140 14.475 C 10.205 14.593,10.312 14.730,10.379 14.780 C 10.645 14.978,10.667 14.980,13.066 14.980 L 15.313 14.980 15.485 14.859 C 15.729 14.688,15.906 14.439,15.962 14.188 C 16.026 13.902,15.938 13.584,15.731 13.356 C 15.498 13.097,15.415 13.071,14.700 13.036 C 13.960 12.999,11.979 13.002,11.220 13.040 " fill="#1A1C1F" stroke="none" fill-rule="evenodd"></path></svg>