<svg width="16" height="16" viewBox="0 0 16 16" fill="none" xmlns="http://www.w3.org/2000/svg"><path d="M4.587 1.652 C 4.371 1.695,4.169 1.865,4.064 2.091 L 4.001 2.227 4.000 3.909 L 4.000 5.592 3.501 5.610 C 2.930 5.630,2.813 5.664,2.617 5.866 C 2.437 6.051,2.371 6.381,2.457 6.668 C 2.504 6.827,2.771 7.103,2.920 7.147 C 2.979 7.164,3.246 7.184,3.513 7.192 L 4.000 7.207 4.000 7.999 L 4.000 8.792 3.501 8.810 C 2.930 8.830,2.813 8.864,2.617 9.066 C 2.437 9.251,2.371 9.581,2.457 9.868 C 2.504 10.027,2.771 10.303,2.920 10.347 C 2.979 10.364,3.246 10.384,3.513 10.392 L 4.000 10.407 4.000 12.092 L 4.000 13.776 4.068 13.912 C 4.148 14.073,4.356 14.276,4.514 14.348 C 4.624 14.397,4.741 14.399,8.800 14.399 C 12.859 14.399,12.976 14.397,13.086 14.348 C 13.244 14.276,13.452 14.073,13.532 13.912 L 13.600 13.776 13.599 8.001 C 13.599 2.383,13.597 2.224,13.548 2.115 C 13.478 1.960,13.293 1.768,13.142 1.691 L 13.015 1.627 8.848 1.630 C 6.555 1.631,4.638 1.641,4.587 1.652 M12.000 8.000 L 12.000 12.800 8.800 12.800 L 5.600 12.800 5.600 8.000 L 5.600 3.200 8.800 3.200 L 12.000 3.200 12.000 8.000 M7.200 6.400 L 7.200 7.200 8.800 7.200 L 10.400 7.200 10.400 6.400 L 10.400 5.600 8.800 5.600 L 7.200 5.600 7.200 6.400 M7.200 9.600 L 7.200 10.400 8.800 10.400 L 10.400 10.400 10.400 9.600 L 10.400 8.800 8.800 8.800 L 7.200 8.800 7.200 9.600 " fill="#1A1C1F" stroke="none" fill-rule="evenodd"></path></svg>