<svg width="14" height="14" viewBox="0 0 14 14" fill="none" xmlns="http://www.w3.org/2000/svg"><path d="M4.013 1.445 C 3.825 1.483,3.648 1.632,3.556 1.829 L 3.500 1.948 3.500 3.421 L 3.500 4.893 3.063 4.909 C 2.673 4.924,2.612 4.931,2.505 4.980 C 2.192 5.123,2.047 5.465,2.147 5.822 C 2.189 5.973,2.415 6.212,2.555 6.253 C 2.606 6.268,2.840 6.286,3.074 6.293 L 3.500 6.306 3.500 7.000 L 3.500 7.693 3.063 7.709 C 2.673 7.724,2.612 7.731,2.505 7.780 C 2.192 7.923,2.047 8.265,2.147 8.622 C 2.189 8.773,2.415 9.012,2.555 9.053 C 2.606 9.068,2.840 9.086,3.074 9.093 L 3.500 9.106 3.500 10.580 L 3.500 12.054 3.559 12.173 C 3.629 12.314,3.811 12.491,3.950 12.554 C 4.046 12.598,4.148 12.599,7.700 12.599 C 11.252 12.599,11.354 12.598,11.450 12.554 C 11.589 12.491,11.771 12.314,11.841 12.173 L 11.900 12.054 11.899 7.001 C 11.899 2.085,11.898 1.946,11.855 1.851 C 11.793 1.715,11.632 1.547,11.499 1.480 L 11.388 1.423 7.742 1.426 C 5.736 1.427,4.058 1.436,4.013 1.445 M10.500 7.000 L 10.500 11.200 7.700 11.200 L 4.900 11.200 4.900 7.000 L 4.900 2.800 7.700 2.800 L 10.500 2.800 10.500 7.000 M6.300 5.600 L 6.300 6.300 7.700 6.300 L 9.100 6.300 9.100 5.600 L 9.100 4.900 7.700 4.900 L 6.300 4.900 6.300 5.600 M6.300 8.400 L 6.300 9.100 7.700 9.100 L 9.100 9.100 9.100 8.400 L 9.100 7.700 7.700 7.700 L 6.300 7.700 6.300 8.400 " fill="#1A1C1F" stroke="none" fill-rule="evenodd"></path></svg>