<svg width="20" height="20" viewBox="0 0 20 20" fill="none" xmlns="http://www.w3.org/2000/svg"><path d="M5.733 2.065 C 5.464 2.119,5.211 2.331,5.080 2.613 L 5.001 2.783 5.000 4.886 L 5.000 6.990 4.361 7.013 C 3.752 7.034,3.714 7.040,3.558 7.125 C 2.924 7.470,2.824 8.233,3.348 8.729 C 3.446 8.822,3.580 8.911,3.653 8.933 C 3.725 8.955,4.057 8.981,4.392 8.991 L 5.000 9.009 5.000 9.999 L 5.000 10.990 4.361 11.013 C 3.752 11.034,3.714 11.040,3.558 11.125 C 2.924 11.470,2.824 12.233,3.348 12.729 C 3.446 12.822,3.580 12.911,3.653 12.933 C 3.725 12.955,4.057 12.981,4.392 12.991 L 5.000 13.009 5.000 15.115 L 5.000 17.220 5.085 17.390 C 5.185 17.591,5.445 17.845,5.642 17.935 C 5.779 17.997,5.927 17.999,11.002 17.999 L 16.220 18.000 16.390 17.915 C 16.597 17.812,16.848 17.552,16.939 17.344 C 17.007 17.191,17.007 17.182,16.991 9.987 C 16.979 4.515,16.965 2.752,16.935 2.655 C 16.884 2.490,16.665 2.253,16.451 2.130 L 16.283 2.034 11.067 2.037 C 8.197 2.039,5.798 2.052,5.733 2.065 M15.000 10.000 L 15.000 16.000 11.000 16.000 L 7.000 16.000 7.000 10.000 L 7.000 4.000 11.000 4.000 L 15.000 4.000 15.000 10.000 M9.000 8.000 L 9.000 9.000 11.000 9.000 L 13.000 9.000 13.000 8.000 L 13.000 7.000 11.000 7.000 L 9.000 7.000 9.000 8.000 M9.000 12.000 L 9.000 13.000 11.000 13.000 L 13.000 13.000 13.000 12.000 L 13.000 11.000 11.000 11.000 L 9.000 11.000 9.000 12.000 " fill="#1A1C1F" stroke="none" fill-rule="evenodd"></path></svg>