<svg width="12" height="12" viewBox="0 0 12 12" fill="none" xmlns="http://www.w3.org/2000/svg"><path d="M3.440 1.239 C 3.279 1.271,3.127 1.399,3.048 1.568 L 3.000 1.670 3.000 2.932 L 3.000 4.194 2.617 4.208 C 2.251 4.221,2.228 4.224,2.135 4.275 C 1.754 4.482,1.694 4.940,2.009 5.237 C 2.068 5.293,2.148 5.347,2.192 5.360 C 2.235 5.373,2.434 5.388,2.635 5.394 L 3.000 5.405 3.000 6.000 L 3.000 6.594 2.617 6.608 C 2.251 6.621,2.228 6.624,2.135 6.675 C 1.754 6.882,1.694 7.340,2.009 7.637 C 2.068 7.693,2.148 7.747,2.192 7.760 C 2.235 7.773,2.434 7.788,2.635 7.794 L 3.000 7.805 3.000 9.069 L 3.000 10.332 3.051 10.434 C 3.111 10.555,3.267 10.707,3.385 10.761 C 3.468 10.798,3.556 10.799,6.600 10.799 C 9.644 10.799,9.732 10.798,9.815 10.761 C 9.933 10.707,10.089 10.555,10.149 10.434 L 10.200 10.332 10.200 5.999 L 10.200 1.666 10.148 1.568 C 10.081 1.441,9.994 1.350,9.870 1.278 L 9.770 1.220 6.640 1.222 C 4.918 1.224,3.479 1.231,3.440 1.239 M9.000 6.000 L 9.000 9.600 6.600 9.600 L 4.200 9.600 4.200 6.000 L 4.200 2.400 6.600 2.400 L 9.000 2.400 9.000 6.000 M5.400 4.800 L 5.400 5.400 6.600 5.400 L 7.800 5.400 7.800 4.800 L 7.800 4.200 6.600 4.200 L 5.400 4.200 5.400 4.800 M5.400 7.200 L 5.400 7.800 6.600 7.800 L 7.800 7.800 7.800 7.200 L 7.800 6.600 6.600 6.600 L 5.400 6.600 5.400 7.200 " fill="#1A1C1F" stroke="none" fill-rule="evenodd"></path></svg>