<svg width="24" height="24" viewBox="0 0 24 24" fill="none" xmlns="http://www.w3.org/2000/svg"><path d="M15.880 3.341 C 15.531 3.438,15.275 3.580,14.948 3.860 C 14.203 4.496,6.332 12.331,5.384 13.380 C 4.915 13.900,4.692 14.308,4.476 15.040 C 4.358 15.440,4.314 15.777,4.315 16.280 C 4.320 18.492,5.910 20.342,8.118 20.705 C 9.098 20.867,10.348 20.615,11.117 20.101 C 11.544 19.817,12.276 19.122,14.916 16.500 C 17.608 13.825,19.531 11.853,19.628 11.665 C 19.670 11.583,19.684 11.463,19.674 11.260 C 19.662 11.025,19.637 10.936,19.538 10.777 C 19.319 10.421,18.866 10.245,18.456 10.355 C 18.217 10.420,17.751 10.855,14.931 13.650 C 11.022 17.523,10.273 18.252,10.062 18.391 C 9.953 18.463,9.719 18.569,9.542 18.628 C 9.272 18.716,9.146 18.734,8.760 18.736 C 8.362 18.738,8.262 18.724,8.016 18.635 C 7.652 18.503,7.362 18.310,7.042 17.985 C 6.513 17.449,6.341 17.026,6.341 16.260 C 6.341 15.655,6.430 15.340,6.716 14.934 C 6.990 14.544,9.044 12.440,12.005 9.517 C 15.386 6.178,16.236 5.361,16.396 5.292 C 16.564 5.220,16.758 5.250,16.986 5.382 C 17.319 5.576,17.417 6.065,17.189 6.387 C 17.137 6.459,15.357 8.278,13.232 10.429 C 11.107 12.580,9.279 14.441,9.170 14.564 C 9.060 14.688,8.939 14.873,8.899 14.976 C 8.837 15.139,8.834 15.191,8.877 15.381 C 8.946 15.690,9.136 15.954,9.379 16.078 C 9.541 16.161,9.635 16.180,9.883 16.180 L 10.188 16.180 10.462 15.940 C 11.334 15.175,17.703 8.830,18.528 7.903 C 19.167 7.187,19.299 6.857,19.300 5.980 C 19.300 5.357,19.265 5.203,19.006 4.700 C 18.907 4.506,18.757 4.314,18.521 4.076 C 18.227 3.781,18.120 3.704,17.760 3.527 L 17.340 3.320 16.720 3.300 C 16.236 3.284,16.052 3.293,15.880 3.341 " fill="#1A1C1F" stroke="none" fill-rule="evenodd"></path></svg>