<svg width="12" height="12" viewBox="0 0 12 12" fill="none" xmlns="http://www.w3.org/2000/svg"><path d="M7.050 1.862 C 6.890 1.899,6.700 1.985,6.564 2.080 C 6.379 2.210,5.502 3.060,4.250 4.323 C 2.975 5.609,2.705 5.901,2.569 6.137 C 2.296 6.616,2.168 7.185,2.219 7.701 C 2.284 8.362,2.552 8.939,2.998 9.380 C 3.252 9.632,3.424 9.758,3.690 9.889 C 4.090 10.085,4.369 10.156,4.810 10.174 C 5.283 10.192,5.716 10.103,6.102 9.909 C 6.440 9.739,6.579 9.614,7.938 8.269 C 9.073 7.145,9.682 6.510,9.740 6.391 C 9.795 6.277,9.794 6.063,9.738 5.940 C 9.689 5.829,9.576 5.710,9.470 5.655 C 9.351 5.593,9.096 5.582,8.977 5.635 C 8.848 5.692,8.513 6.010,7.040 7.473 L 5.748 8.757 5.579 8.826 C 5.241 8.964,5.213 8.970,4.920 8.967 C 4.492 8.963,4.251 8.881,3.964 8.639 C 3.731 8.443,3.544 8.157,3.468 7.878 C 3.413 7.679,3.419 7.261,3.479 7.042 C 3.552 6.781,3.647 6.659,4.337 5.947 C 5.091 5.167,7.147 3.128,7.230 3.077 C 7.275 3.049,7.329 3.040,7.451 3.040 C 7.600 3.040,7.619 3.045,7.697 3.102 C 7.806 3.183,7.860 3.290,7.874 3.457 C 7.885 3.590,7.885 3.590,7.800 3.697 C 7.697 3.828,7.354 4.181,5.793 5.759 C 5.124 6.436,4.533 7.048,4.480 7.118 C 4.358 7.281,4.330 7.375,4.358 7.526 C 4.414 7.833,4.614 8.017,4.913 8.036 C 5.129 8.050,5.202 8.007,5.611 7.624 C 5.992 7.267,8.216 5.030,8.589 4.629 C 8.775 4.428,8.847 4.335,8.903 4.219 C 9.183 3.646,9.141 3.021,8.792 2.532 C 8.743 2.463,8.629 2.338,8.540 2.253 C 8.333 2.059,8.013 1.891,7.790 1.860 C 7.617 1.836,7.158 1.838,7.050 1.862 " fill="#1A1C1F" stroke="none" fill-rule="evenodd"></path></svg>