<svg width="32" height="32" viewBox="0 0 32 32" fill="none" xmlns="http://www.w3.org/2000/svg"><path d="M21.067 3.470 C 20.563 3.601,19.872 3.930,19.417 4.254 C 18.598 4.839,7.375 16.056,6.196 17.469 C 5.595 18.188,5.258 18.870,4.919 20.053 C 4.781 20.534,4.773 20.617,4.775 21.680 C 4.776 22.658,4.792 22.860,4.895 23.272 C 5.416 25.342,6.782 27.060,8.635 27.975 C 9.812 28.557,10.989 28.767,12.416 28.651 C 12.991 28.604,13.224 28.557,13.748 28.381 C 14.501 28.130,15.184 27.795,15.727 27.412 C 16.369 26.959,20.270 23.116,24.985 18.293 C 27.305 15.921,27.298 15.929,27.173 15.442 C 27.044 14.945,26.475 14.581,26.048 14.722 C 25.771 14.813,25.082 15.467,20.425 20.063 C 14.324 26.085,14.509 25.913,13.785 26.230 C 13.022 26.563,12.516 26.679,11.787 26.686 C 9.780 26.707,8.126 25.665,7.227 23.813 C 7.071 23.491,6.911 23.095,6.871 22.933 C 6.780 22.559,6.781 20.892,6.873 20.473 C 6.909 20.307,7.080 19.887,7.253 19.539 C 7.514 19.013,7.652 18.812,8.070 18.347 C 8.769 17.569,19.697 6.680,20.320 6.141 C 20.949 5.596,21.255 5.441,21.844 5.368 C 23.253 5.194,24.396 5.826,25.015 7.124 C 25.310 7.742,25.290 8.940,24.972 9.588 C 24.854 9.830,24.251 10.469,21.673 13.088 C 17.783 17.040,12.901 21.851,12.705 21.926 C 12.501 22.005,12.118 21.942,11.890 21.791 C 11.485 21.523,11.361 20.849,11.642 20.443 C 11.723 20.327,13.486 18.516,15.561 16.420 C 21.034 10.891,21.350 10.564,21.486 10.281 C 21.591 10.065,21.599 10.006,21.547 9.816 C 21.372 9.164,20.633 8.848,20.098 9.197 C 19.826 9.374,11.208 17.981,10.402 18.880 C 9.835 19.513,9.665 19.795,9.523 20.345 C 9.295 21.221,9.578 22.243,10.246 22.959 C 10.908 23.669,11.562 23.969,12.427 23.960 C 12.995 23.955,13.451 23.836,13.893 23.580 C 14.366 23.305,15.255 22.444,19.574 18.076 C 25.419 12.166,26.081 11.485,26.371 11.091 C 27.030 10.196,27.297 9.247,27.238 8.007 C 27.203 7.277,27.103 6.857,26.822 6.248 C 26.171 4.845,24.820 3.745,23.368 3.437 C 22.825 3.322,21.566 3.340,21.067 3.470 " fill="#1A1C1F" stroke="none" fill-rule="evenodd"></path></svg>