<svg width="14" height="14" viewBox="0 0 14 14" fill="none" xmlns="http://www.w3.org/2000/svg"><path d="M8.394 2.147 C 8.006 2.194,7.733 2.336,7.341 2.695 C 6.613 3.361,3.574 6.426,3.176 6.895 C 2.963 7.146,2.712 7.722,2.624 8.164 C 2.563 8.469,2.586 9.199,2.667 9.485 C 2.839 10.096,3.112 10.565,3.547 10.993 C 3.894 11.334,4.307 11.580,4.790 11.734 C 5.168 11.855,5.393 11.884,5.845 11.870 C 6.296 11.856,6.509 11.812,6.918 11.645 C 7.287 11.494,7.482 11.362,7.883 10.991 C 8.457 10.462,11.130 7.776,11.264 7.596 C 11.337 7.497,11.395 7.390,11.411 7.322 C 11.477 7.047,11.296 6.710,11.013 6.582 C 10.874 6.519,10.598 6.516,10.465 6.577 C 10.329 6.639,9.847 7.097,8.197 8.736 C 6.777 10.146,6.718 10.200,6.553 10.277 C 6.255 10.414,6.097 10.456,5.832 10.470 C 5.120 10.507,4.508 10.157,4.181 9.525 C 4.035 9.243,4.013 9.141,4.013 8.739 C 4.013 8.140,4.077 7.985,4.531 7.490 C 4.922 7.064,7.141 4.827,7.844 4.152 C 8.135 3.873,8.422 3.616,8.481 3.581 C 8.577 3.524,8.604 3.519,8.721 3.533 C 8.997 3.565,9.159 3.733,9.185 4.014 L 9.199 4.165 9.090 4.313 C 8.950 4.501,8.742 4.716,6.877 6.600 C 6.033 7.452,5.291 8.218,5.228 8.302 C 5.165 8.386,5.102 8.498,5.087 8.552 C 5.031 8.749,5.147 9.081,5.319 9.215 C 5.485 9.346,5.550 9.368,5.777 9.368 C 5.974 9.368,5.996 9.364,6.092 9.298 C 6.311 9.149,9.687 5.799,10.130 5.291 C 10.336 5.055,10.477 4.789,10.551 4.499 C 10.592 4.337,10.597 4.258,10.588 3.980 C 10.579 3.690,10.570 3.628,10.506 3.446 C 10.275 2.783,9.693 2.266,9.074 2.173 C 8.835 2.137,8.564 2.127,8.394 2.147 " fill="#1A1C1F" stroke="none" fill-rule="evenodd"></path></svg>