<svg width="20" height="20" viewBox="0 0 20 20" fill="none" xmlns="http://www.w3.org/2000/svg"><path d="M11.683 3.120 C 11.303 3.212,10.957 3.415,10.554 3.783 C 9.470 4.773,4.937 9.350,4.505 9.889 C 4.193 10.280,3.826 11.158,3.733 11.739 C 3.706 11.908,3.698 12.205,3.709 12.622 C 3.724 13.167,3.738 13.292,3.814 13.566 C 4.044 14.388,4.438 15.075,4.998 15.634 C 5.418 16.052,5.705 16.263,6.150 16.481 C 6.916 16.857,7.497 16.983,8.350 16.957 C 8.994 16.938,9.299 16.874,9.883 16.635 C 10.632 16.330,10.805 16.182,13.197 13.815 C 14.863 12.166,16.056 10.935,16.181 10.737 C 16.353 10.465,16.359 10.145,16.199 9.833 C 16.116 9.672,15.912 9.483,15.733 9.403 C 15.534 9.313,15.140 9.309,14.950 9.396 C 14.751 9.486,14.101 10.105,11.742 12.447 C 9.681 14.494,9.598 14.572,9.362 14.681 C 8.936 14.877,8.710 14.937,8.332 14.957 C 7.315 15.010,6.440 14.510,5.973 13.607 C 5.763 13.201,5.733 13.061,5.733 12.462 C 5.733 11.995,5.743 11.908,5.816 11.674 C 5.869 11.507,5.959 11.327,6.063 11.179 C 6.153 11.051,6.668 10.489,7.207 9.931 C 8.416 8.682,11.913 5.213,12.050 5.129 C 12.126 5.082,12.215 5.067,12.418 5.067 C 12.667 5.067,12.698 5.075,12.828 5.170 C 13.006 5.302,13.098 5.479,13.122 5.743 C 13.153 6.082,13.283 5.937,9.826 9.426 C 8.622 10.642,7.562 11.736,7.471 11.857 C 7.262 12.136,7.216 12.290,7.263 12.547 C 7.359 13.062,7.702 13.367,8.217 13.391 C 8.463 13.403,8.496 13.396,8.650 13.306 C 8.912 13.152,9.757 12.338,11.914 10.164 C 14.424 7.633,14.680 7.359,14.839 7.032 C 15.230 6.226,15.250 5.417,14.897 4.639 C 14.760 4.336,14.545 4.049,14.237 3.760 C 13.895 3.438,13.349 3.150,12.983 3.100 C 12.639 3.053,11.917 3.064,11.683 3.120 " fill="#1A1C1F" stroke="none" fill-rule="evenodd"></path></svg>