<svg width="16" height="16" viewBox="0 0 16 16" fill="none" xmlns="http://www.w3.org/2000/svg"><path d="M9.422 2.480 C 9.283 2.509,8.998 2.622,8.837 2.713 C 8.650 2.817,8.174 3.267,6.697 4.733 C 5.415 6.007,3.962 7.497,3.643 7.866 C 3.401 8.147,3.161 8.676,3.010 9.266 C 2.960 9.459,2.956 9.536,2.967 10.040 C 2.979 10.541,2.987 10.626,3.050 10.849 C 3.245 11.543,3.542 12.052,4.039 12.547 C 4.444 12.949,4.857 13.203,5.410 13.388 C 5.883 13.546,6.142 13.582,6.680 13.566 C 7.195 13.550,7.439 13.499,7.907 13.308 C 8.339 13.131,8.550 12.987,9.037 12.534 C 9.782 11.840,12.808 8.800,12.921 8.631 C 13.012 8.496,13.026 8.452,13.035 8.293 C 13.055 7.953,12.891 7.666,12.600 7.530 C 12.429 7.449,12.121 7.443,11.960 7.516 C 11.804 7.587,11.242 8.122,9.363 9.988 C 7.744 11.596,7.679 11.657,7.489 11.745 C 7.114 11.917,6.930 11.960,6.560 11.959 C 6.157 11.959,5.981 11.917,5.627 11.741 C 5.203 11.529,4.880 11.168,4.678 10.679 C 4.606 10.504,4.600 10.467,4.592 10.049 C 4.576 9.317,4.645 9.143,5.178 8.560 C 5.622 8.075,8.157 5.522,8.965 4.746 C 9.297 4.426,9.625 4.132,9.693 4.092 C 9.800 4.029,9.836 4.022,9.963 4.035 C 10.279 4.067,10.470 4.271,10.498 4.605 L 10.513 4.787 10.400 4.930 C 10.263 5.103,9.818 5.561,7.711 7.692 C 6.826 8.587,6.044 9.397,5.973 9.491 C 5.811 9.707,5.773 9.833,5.810 10.034 C 5.887 10.449,6.161 10.693,6.573 10.713 C 6.771 10.722,6.797 10.717,6.921 10.644 C 7.127 10.524,7.841 9.835,9.558 8.104 C 11.539 6.106,11.744 5.887,11.871 5.626 C 12.249 4.848,12.189 4.052,11.701 3.337 C 11.531 3.089,11.206 2.818,10.881 2.654 C 10.564 2.493,10.473 2.474,9.987 2.465 C 9.737 2.460,9.483 2.467,9.422 2.480 " fill="#1A1C1F" stroke="none" fill-rule="evenodd"></path></svg>