<svg width="28" height="28" viewBox="0 0 28 28" fill="none" xmlns="http://www.w3.org/2000/svg"><path d="M18.433 3.033 C 17.988 3.153,17.384 3.442,16.990 3.723 C 16.271 4.236,6.457 14.044,5.422 15.284 C 4.981 15.812,4.745 16.244,4.485 17.001 C 4.182 17.881,4.139 18.172,4.165 19.152 C 4.185 19.855,4.208 20.071,4.306 20.440 C 4.556 21.388,4.942 22.142,5.560 22.889 C 6.346 23.840,7.266 24.454,8.493 24.849 C 9.541 25.186,10.948 25.186,11.991 24.849 C 12.786 24.592,13.513 24.203,14.070 23.737 C 14.698 23.211,17.613 20.330,20.687 17.197 C 23.416 14.416,23.672 14.142,23.771 13.902 C 23.978 13.396,23.320 12.707,22.795 12.881 C 22.566 12.956,21.794 13.688,18.060 17.367 C 13.967 21.399,12.818 22.511,12.562 22.689 C 12.297 22.873,11.573 23.173,11.170 23.267 C 10.693 23.377,9.695 23.366,9.227 23.244 C 7.730 22.855,6.530 21.704,6.059 20.205 C 5.961 19.892,5.950 19.772,5.953 19.017 C 5.954 18.532,5.980 18.065,6.013 17.913 C 6.045 17.769,6.195 17.401,6.346 17.097 C 6.575 16.637,6.695 16.461,7.061 16.053 C 7.674 15.371,17.236 5.843,17.780 5.373 C 18.331 4.897,18.598 4.761,19.113 4.697 C 20.330 4.546,21.317 5.081,21.864 6.189 C 22.009 6.481,22.033 6.582,22.058 6.984 C 22.092 7.552,22.019 8.046,21.851 8.390 C 21.747 8.601,21.223 9.157,18.987 11.429 C 17.482 12.959,15.115 15.327,13.728 16.692 C 11.031 19.346,11.107 19.282,10.725 19.204 C 10.312 19.118,10.062 18.792,10.060 18.335 C 10.058 18.124,10.083 18.037,10.187 17.888 C 10.257 17.786,11.800 16.202,13.616 14.368 C 18.417 9.517,18.681 9.244,18.802 8.993 C 18.904 8.782,18.905 8.767,18.833 8.549 C 18.758 8.324,18.557 8.090,18.345 7.980 C 18.184 7.897,17.822 7.909,17.636 8.004 C 17.458 8.094,13.157 12.361,10.484 15.099 C 9.312 16.299,8.697 16.964,8.588 17.149 C 8.047 18.061,8.203 19.271,8.965 20.089 C 9.552 20.719,10.078 20.953,10.903 20.953 C 11.697 20.953,12.062 20.787,12.894 20.045 C 13.130 19.834,15.014 17.952,17.081 15.863 C 23.452 9.421,23.254 9.634,23.526 8.937 C 23.772 8.305,23.859 7.772,23.832 7.070 C 23.805 6.373,23.725 6.020,23.469 5.467 C 22.934 4.313,21.934 3.450,20.673 3.056 C 20.485 2.997,20.200 2.971,19.600 2.958 C 18.891 2.942,18.737 2.952,18.433 3.033 " fill="#1A1C1F" stroke="none" fill-rule="evenodd"></path></svg>