<svg width="24" height="24" viewBox="0 0 24 24" fill="none" xmlns="http://www.w3.org/2000/svg"><path d="M11.497 2.170 C 11.268 2.322,9.107 4.445,7.949 5.656 C 7.068 6.578,6.974 6.717,7.013 7.044 C 7.049 7.351,7.208 7.596,7.524 7.832 C 7.637 7.917,7.984 7.961,8.206 7.919 C 8.469 7.869,8.565 7.787,9.928 6.445 L 11.000 5.390 11.000 10.317 C 11.000 15.157,11.001 15.246,11.080 15.399 C 11.179 15.594,11.399 15.811,11.593 15.905 C 12.059 16.132,12.775 15.835,12.921 15.355 C 12.963 15.215,12.977 14.193,12.989 10.283 L 13.005 5.386 13.932 6.306 C 15.318 7.680,15.486 7.828,15.745 7.903 C 16.360 8.082,17.002 7.589,16.999 6.940 C 16.997 6.681,16.851 6.489,15.952 5.560 C 14.659 4.224,12.525 2.158,12.373 2.094 C 12.301 2.065,12.119 2.040,11.968 2.040 C 11.726 2.040,11.671 2.055,11.497 2.170 M19.813 14.042 C 19.493 14.105,19.230 14.306,19.078 14.603 C 19.005 14.746,19.000 14.847,18.997 16.068 C 18.996 16.790,18.981 17.833,18.964 18.388 L 18.933 19.395 18.818 19.548 C 18.672 19.739,18.579 19.821,18.392 19.921 C 18.246 19.999,18.143 20.000,12.000 20.000 C 5.857 20.000,5.754 19.999,5.608 19.921 C 5.421 19.821,5.328 19.739,5.183 19.548 L 5.068 19.396 5.036 18.428 C 5.019 17.896,5.004 16.852,5.002 16.108 C 5.000 14.844,4.995 14.747,4.921 14.608 C 4.819 14.415,4.734 14.317,4.547 14.179 C 4.414 14.081,4.348 14.063,4.064 14.048 C 3.789 14.034,3.709 14.044,3.577 14.112 C 3.412 14.197,3.235 14.369,3.082 14.593 L 2.990 14.726 3.012 17.113 C 3.027 18.739,3.049 19.564,3.081 19.700 C 3.107 19.810,3.196 20.044,3.278 20.220 C 3.633 20.979,4.257 21.558,4.995 21.812 C 5.286 21.912,5.425 21.933,5.977 21.963 C 6.331 21.981,9.041 21.997,12.000 21.997 C 14.959 21.997,17.669 21.981,18.023 21.963 C 18.575 21.933,18.714 21.912,19.005 21.812 C 19.743 21.558,20.367 20.979,20.722 20.220 C 20.804 20.044,20.893 19.810,20.919 19.700 C 20.951 19.564,20.973 18.740,20.988 17.114 L 21.010 14.728 20.886 14.549 C 20.603 14.137,20.228 13.960,19.813 14.042 " fill="#1A1C1F" stroke="none" fill-rule="evenodd"></path></svg>