<svg width="16" height="16" viewBox="0 0 16 16" fill="none" xmlns="http://www.w3.org/2000/svg"><path d="M7.739 1.659 C 7.594 1.708,7.299 1.981,6.080 3.197 C 5.292 3.984,4.899 4.395,4.866 4.467 C 4.789 4.634,4.797 4.910,4.883 5.093 C 5.093 5.536,5.627 5.726,5.988 5.487 C 6.054 5.443,6.354 5.167,6.654 4.874 L 7.200 4.341 7.200 7.057 L 7.200 9.773 7.272 9.916 C 7.414 10.196,7.709 10.387,8.000 10.387 C 8.291 10.387,8.586 10.196,8.728 9.916 L 8.800 9.773 8.800 7.053 L 8.800 4.334 9.193 4.722 C 10.009 5.527,10.084 5.581,10.400 5.584 C 10.649 5.586,10.795 5.522,10.972 5.332 C 11.133 5.160,11.179 5.045,11.180 4.813 C 11.181 4.575,11.144 4.491,10.918 4.227 C 10.471 3.703,8.519 1.783,8.337 1.688 C 8.235 1.634,7.865 1.616,7.739 1.659 M2.995 9.637 C 2.769 9.710,2.566 9.885,2.454 10.104 C 2.402 10.207,2.400 10.256,2.400 11.303 L 2.400 12.396 2.483 12.631 C 2.651 13.106,2.855 13.441,3.150 13.722 C 3.433 13.991,3.721 14.159,4.170 14.317 L 4.406 14.401 8.036 14.394 L 11.667 14.387 11.960 14.273 C 12.362 14.116,12.499 14.028,12.819 13.722 C 13.174 13.383,13.318 13.166,13.478 12.732 L 13.604 12.390 13.593 11.309 C 13.586 10.581,13.573 10.196,13.552 10.133 C 13.509 10.005,13.327 9.801,13.178 9.713 C 13.064 9.646,13.031 9.640,12.787 9.641 C 12.546 9.642,12.509 9.649,12.411 9.712 C 12.294 9.787,12.096 9.998,12.041 10.107 C 12.017 10.155,12.003 10.452,11.992 11.192 C 11.974 12.336,11.982 12.288,11.760 12.541 C 11.610 12.711,11.541 12.742,11.248 12.773 C 10.925 12.807,5.116 12.807,4.767 12.773 C 4.624 12.759,4.472 12.730,4.431 12.709 C 4.389 12.687,4.294 12.603,4.219 12.521 C 4.112 12.404,4.078 12.344,4.056 12.233 C 4.040 12.156,4.018 11.661,4.005 11.133 C 3.981 10.103,3.983 10.119,3.830 9.912 C 3.671 9.697,3.245 9.557,2.995 9.637 " fill="#1A1C1F" stroke="none" fill-rule="evenodd"></path></svg>