<svg width="12" height="12" viewBox="0 0 12 12" fill="none" xmlns="http://www.w3.org/2000/svg"><path d="M5.768 1.268 C 5.692 1.303,5.531 1.446,5.138 1.825 C 4.377 2.559,3.695 3.259,3.650 3.351 C 3.592 3.472,3.598 3.680,3.663 3.820 C 3.720 3.941,3.850 4.081,3.952 4.130 C 4.135 4.216,4.359 4.208,4.502 4.109 C 4.546 4.078,4.767 3.873,4.991 3.654 L 5.400 3.256 5.400 5.293 L 5.400 7.329 5.454 7.437 C 5.516 7.559,5.640 7.677,5.777 7.744 C 5.908 7.809,6.094 7.808,6.230 7.741 C 6.355 7.679,6.498 7.538,6.556 7.419 L 6.600 7.327 6.600 5.289 L 6.600 3.251 6.895 3.541 C 7.518 4.156,7.560 4.186,7.800 4.188 C 7.918 4.189,7.970 4.179,8.044 4.143 C 8.168 4.083,8.332 3.903,8.362 3.794 C 8.394 3.681,8.390 3.481,8.354 3.398 C 8.309 3.292,8.095 3.054,7.511 2.462 C 6.799 1.741,6.336 1.305,6.233 1.259 C 6.110 1.203,5.899 1.207,5.768 1.268 M2.259 7.228 C 2.141 7.259,2.042 7.321,1.953 7.419 C 1.804 7.584,1.811 7.537,1.804 8.461 L 1.798 9.292 1.861 9.471 C 1.988 9.830,2.141 10.080,2.363 10.291 C 2.575 10.493,2.791 10.619,3.127 10.738 L 3.304 10.800 6.027 10.795 L 8.750 10.790 8.970 10.705 C 9.288 10.581,9.382 10.518,9.650 10.250 C 9.918 9.982,9.981 9.888,10.105 9.570 L 10.190 9.350 10.190 8.520 C 10.190 7.561,10.191 7.568,10.032 7.410 C 9.873 7.251,9.823 7.230,9.600 7.230 C 9.375 7.230,9.301 7.261,9.157 7.415 C 9.000 7.582,9.007 7.542,8.994 8.393 C 8.983 9.121,8.981 9.160,8.940 9.240 C 8.885 9.347,8.748 9.484,8.637 9.544 L 8.550 9.590 6.170 9.596 C 3.784 9.602,3.444 9.594,3.324 9.532 C 3.294 9.517,3.223 9.455,3.167 9.395 C 3.084 9.307,3.060 9.266,3.042 9.178 C 3.030 9.119,3.012 8.751,3.003 8.360 C 2.985 7.595,2.983 7.579,2.869 7.430 C 2.804 7.345,2.571 7.228,2.440 7.214 C 2.391 7.208,2.309 7.215,2.259 7.228 " fill="#1A1C1F" stroke="none" fill-rule="evenodd"></path></svg>