<svg width="14" height="14" viewBox="0 0 14 14" fill="none" xmlns="http://www.w3.org/2000/svg"><path d="M6.730 1.479 C 6.641 1.520,6.453 1.687,5.995 2.129 C 5.106 2.986,4.310 3.802,4.259 3.910 C 4.190 4.053,4.196 4.295,4.273 4.457 C 4.458 4.848,4.937 5.012,5.254 4.792 C 5.308 4.755,5.565 4.516,5.826 4.262 L 6.300 3.798 6.300 6.173 L 6.300 8.549 6.352 8.655 C 6.419 8.794,6.586 8.959,6.732 9.031 C 6.894 9.111,7.106 9.111,7.268 9.031 C 7.414 8.959,7.581 8.794,7.648 8.655 L 7.700 8.549 7.700 6.170 L 7.700 3.792 8.068 4.155 C 8.771 4.850,8.822 4.886,9.102 4.886 C 9.235 4.885,9.304 4.872,9.385 4.833 C 9.512 4.772,9.695 4.584,9.746 4.462 C 9.793 4.349,9.794 4.074,9.748 3.967 C 9.693 3.839,9.445 3.564,8.751 2.861 C 7.941 2.041,7.389 1.522,7.269 1.467 C 7.128 1.403,6.881 1.409,6.730 1.479 M2.528 8.468 C 2.400 8.527,2.252 8.663,2.175 8.795 L 2.112 8.902 2.105 9.871 L 2.098 10.840 2.172 11.049 C 2.319 11.468,2.498 11.760,2.757 12.006 C 3.004 12.242,3.256 12.389,3.648 12.528 L 3.855 12.600 7.032 12.594 L 10.208 12.588 10.465 12.489 C 10.817 12.352,10.937 12.275,11.217 12.007 C 11.527 11.710,11.653 11.521,11.793 11.141 L 11.903 10.842 11.894 9.895 C 11.888 9.265,11.876 8.921,11.858 8.867 C 11.821 8.757,11.637 8.550,11.518 8.487 C 11.436 8.443,11.386 8.435,11.188 8.436 C 10.979 8.437,10.945 8.443,10.862 8.497 C 10.752 8.567,10.588 8.739,10.540 8.835 C 10.513 8.888,10.504 9.083,10.492 9.794 C 10.477 10.795,10.484 10.753,10.290 10.973 C 10.159 11.122,10.098 11.149,9.842 11.176 C 9.559 11.206,4.476 11.206,4.171 11.177 C 4.046 11.164,3.913 11.139,3.877 11.120 C 3.840 11.101,3.757 11.028,3.692 10.956 C 3.600 10.856,3.568 10.800,3.547 10.704 C 3.532 10.634,3.515 10.229,3.507 9.753 C 3.494 8.940,3.493 8.923,3.438 8.813 C 3.361 8.660,3.217 8.528,3.066 8.471 C 2.900 8.409,2.662 8.408,2.528 8.468 " fill="#1A1C1F" stroke="none" fill-rule="evenodd"></path></svg>