<svg width="20" height="20" viewBox="0 0 20 20" fill="none" xmlns="http://www.w3.org/2000/svg"><path d="M9.674 2.075 C 9.495 2.133,9.135 2.466,7.602 3.995 C 6.618 4.977,6.124 5.493,6.082 5.583 C 5.985 5.793,5.995 6.138,6.105 6.367 C 6.309 6.792,6.723 7.033,7.158 6.980 C 7.411 6.949,7.546 6.846,8.318 6.093 L 9.000 5.426 9.000 8.819 L 9.000 12.212 9.074 12.364 C 9.170 12.563,9.408 12.799,9.617 12.901 C 9.848 13.015,10.152 13.015,10.383 12.901 C 10.592 12.799,10.830 12.563,10.926 12.364 L 11.000 12.212 11.000 8.815 L 11.000 5.417 11.508 5.919 C 12.532 6.930,12.604 6.980,13.002 6.979 C 13.195 6.979,13.291 6.961,13.409 6.904 C 13.613 6.805,13.887 6.504,13.937 6.323 C 13.990 6.134,13.983 5.802,13.923 5.663 C 13.847 5.485,13.490 5.089,12.501 4.087 C 11.344 2.915,10.556 2.174,10.384 2.096 C 10.233 2.027,9.857 2.016,9.674 2.075 M3.612 12.096 C 3.421 12.185,3.211 12.382,3.097 12.582 L 3.001 12.750 3.000 14.122 L 3.000 15.495 3.104 15.789 C 3.313 16.383,3.569 16.801,3.938 17.152 C 4.291 17.488,4.651 17.699,5.212 17.897 L 5.507 18.001 10.045 17.992 L 14.583 17.983 14.950 17.841 C 15.453 17.645,15.624 17.536,16.024 17.153 C 16.468 16.728,16.647 16.458,16.847 15.916 L 17.005 15.488 16.991 14.136 C 16.983 13.226,16.966 12.745,16.939 12.667 C 16.886 12.506,16.659 12.251,16.472 12.141 C 16.330 12.058,16.288 12.050,15.983 12.052 C 15.684 12.053,15.636 12.062,15.517 12.139 C 15.361 12.238,15.126 12.485,15.057 12.621 C 15.019 12.697,15.005 12.973,14.990 13.989 C 14.969 15.419,14.979 15.359,14.700 15.676 C 14.513 15.888,14.426 15.928,14.060 15.966 C 13.656 16.009,6.395 16.009,5.958 15.967 C 5.574 15.929,5.504 15.897,5.279 15.660 C 5.143 15.516,5.101 15.443,5.070 15.300 C 5.048 15.196,5.023 14.622,5.011 13.935 C 4.991 12.777,4.989 12.746,4.912 12.593 C 4.735 12.239,4.438 12.056,4.017 12.041 C 3.808 12.034,3.720 12.046,3.612 12.096 " fill="#1A1C1F" stroke="none" fill-rule="evenodd"></path></svg>