<svg width="32" height="32" viewBox="0 0 32 32" fill="none" xmlns="http://www.w3.org/2000/svg"><path d="M15.695 2.083 C 15.590 2.115,15.181 2.458,14.629 2.978 C 13.582 3.964,9.386 8.220,9.191 8.494 C 8.857 8.965,9.039 9.632,9.569 9.872 C 9.820 9.986,10.019 9.997,10.318 9.914 C 10.495 9.865,10.884 9.503,12.698 7.698 C 14.633 5.773,14.870 5.554,14.901 5.664 C 14.920 5.731,14.951 9.285,14.970 13.560 L 15.004 21.334 15.192 21.554 C 15.659 22.100,16.341 22.100,16.808 21.554 L 16.997 21.333 17.027 13.533 C 17.044 9.243,17.075 5.690,17.096 5.637 C 17.127 5.558,17.538 5.943,19.301 7.697 C 21.121 9.510,21.501 9.864,21.680 9.914 C 21.981 9.997,22.180 9.986,22.431 9.872 C 22.972 9.627,23.142 8.973,22.795 8.473 C 22.623 8.224,17.131 2.701,16.685 2.328 C 16.437 2.121,16.339 2.072,16.125 2.053 C 15.983 2.041,15.790 2.054,15.695 2.083 M4.720 20.054 C 4.632 20.081,4.440 20.209,4.293 20.338 L 4.027 20.573 4.010 24.031 L 3.994 27.488 4.136 27.878 C 4.495 28.862,5.232 29.564,6.288 29.927 C 6.565 30.023,6.949 30.027,16.000 30.027 C 25.085 30.027,25.434 30.023,25.715 29.926 C 26.776 29.561,27.541 28.835,27.851 27.897 C 27.964 27.556,27.968 27.460,27.988 24.347 C 27.999 22.587,27.993 21.020,27.974 20.866 C 27.951 20.680,27.893 20.531,27.803 20.424 C 27.294 19.819,26.237 19.989,26.061 20.704 C 26.042 20.784,26.002 22.302,25.973 24.078 C 25.931 26.691,25.906 27.343,25.844 27.493 C 25.794 27.611,25.674 27.737,25.513 27.839 L 25.259 28.000 16.000 28.000 L 6.741 28.000 6.487 27.839 C 6.064 27.571,6.082 27.718,6.027 24.090 C 6.000 22.325,5.955 20.789,5.928 20.678 C 5.865 20.428,5.799 20.347,5.524 20.186 C 5.271 20.038,4.947 19.984,4.720 20.054 " fill="#1A1C1F" stroke="none" fill-rule="evenodd"></path></svg>