<svg width="12" height="12" viewBox="0 0 12 12" fill="none" xmlns="http://www.w3.org/2000/svg"><path d="M8.256 1.227 C 8.204 1.242,8.123 1.280,8.076 1.312 C 7.971 1.383,6.715 2.622,6.356 3.008 C 6.214 3.161,6.080 3.320,6.060 3.360 C 6.007 3.465,5.992 3.613,6.020 3.750 C 6.041 3.850,6.061 3.885,6.157 3.987 C 6.327 4.166,6.505 4.227,6.728 4.180 C 6.873 4.150,6.954 4.085,7.415 3.633 L 7.780 3.274 7.783 3.372 C 7.784 3.426,7.791 4.213,7.798 5.120 L 7.810 6.770 7.864 6.861 C 7.930 6.974,8.078 7.113,8.176 7.154 C 8.274 7.195,8.526 7.195,8.624 7.154 C 8.722 7.113,8.870 6.974,8.936 6.861 L 8.990 6.770 8.996 5.013 L 9.001 3.257 9.417 3.663 C 9.914 4.149,9.973 4.188,10.210 4.188 C 10.397 4.187,10.493 4.147,10.623 4.017 C 10.740 3.900,10.789 3.780,10.789 3.610 C 10.789 3.407,10.747 3.334,10.446 3.010 C 10.145 2.686,8.945 1.499,8.775 1.357 C 8.617 1.226,8.429 1.179,8.256 1.227 M3.367 4.858 C 3.253 4.910,3.127 5.029,3.058 5.149 L 3.000 5.250 3.000 6.997 L 3.000 8.744 2.612 8.366 C 2.398 8.157,2.172 7.952,2.109 7.909 C 2.001 7.834,1.986 7.830,1.818 7.823 C 1.609 7.815,1.515 7.850,1.379 7.985 C 1.227 8.138,1.175 8.313,1.219 8.527 C 1.252 8.682,1.362 8.818,1.932 9.399 C 2.582 10.063,3.230 10.673,3.350 10.737 C 3.432 10.779,3.477 10.789,3.600 10.789 C 3.729 10.790,3.765 10.782,3.856 10.732 C 4.105 10.593,5.829 8.869,5.956 8.631 C 5.996 8.555,5.999 8.303,5.961 8.191 C 5.927 8.090,5.755 7.906,5.650 7.858 C 5.544 7.809,5.266 7.806,5.174 7.852 C 5.067 7.907,4.946 8.013,4.567 8.386 L 4.204 8.743 4.196 6.997 C 4.188 5.012,4.203 5.177,4.010 4.989 C 3.930 4.911,3.872 4.873,3.796 4.851 C 3.654 4.809,3.470 4.812,3.367 4.858 " fill="#1A1C1F" stroke="none" fill-rule="evenodd"></path></svg>