<svg width="16" height="16" viewBox="0 0 16 16" fill="none" xmlns="http://www.w3.org/2000/svg"><path d="M7.692 2.477 C 7.556 2.539,5.947 4.102,4.517 5.562 C 3.169 6.939,3.257 6.838,3.225 7.040 C 3.196 7.220,3.223 7.437,3.291 7.569 C 3.313 7.611,3.388 7.702,3.457 7.770 C 3.608 7.919,3.872 8.015,4.068 7.993 C 4.343 7.962,4.393 7.920,5.837 6.490 L 7.200 5.141 7.200 9.065 L 7.200 12.989 7.257 13.100 C 7.388 13.357,7.555 13.496,7.813 13.562 C 7.998 13.609,8.131 13.597,8.326 13.514 C 8.473 13.452,8.674 13.247,8.748 13.086 C 8.797 12.977,8.799 12.862,8.799 9.057 L 8.800 5.141 10.073 6.402 C 10.774 7.095,11.423 7.726,11.516 7.803 C 11.707 7.960,11.875 8.017,12.072 7.990 C 12.546 7.925,12.868 7.483,12.773 7.026 C 12.744 6.885,12.725 6.862,12.109 6.220 C 11.373 5.454,9.020 3.116,8.618 2.751 C 8.467 2.614,8.302 2.485,8.252 2.465 C 8.123 2.410,7.824 2.417,7.692 2.477 " fill="#1A1C1F" stroke="none" fill-rule="evenodd"></path></svg>