<svg width="16" height="16" viewBox="0 0 16 16" fill="none" xmlns="http://www.w3.org/2000/svg"><path d="M7.667 2.489 C 7.526 2.557,7.385 2.691,7.269 2.864 L 7.200 2.967 7.200 6.913 L 7.200 10.859 5.880 9.553 C 5.154 8.834,4.494 8.201,4.413 8.145 C 4.277 8.052,4.248 8.043,4.042 8.032 C 3.846 8.022,3.801 8.028,3.676 8.086 C 3.395 8.215,3.276 8.376,3.224 8.696 C 3.184 8.942,3.224 9.074,3.407 9.297 C 3.593 9.525,5.175 11.121,6.533 12.451 C 7.295 13.196,7.594 13.472,7.693 13.521 C 7.864 13.604,8.122 13.610,8.278 13.534 C 8.492 13.430,12.680 9.250,12.752 9.069 C 12.800 8.949,12.786 8.635,12.726 8.504 C 12.589 8.201,12.315 8.018,12.002 8.020 C 11.647 8.023,11.723 7.959,9.860 9.812 L 8.800 10.866 8.799 7.160 C 8.799 5.121,8.787 3.331,8.774 3.181 C 8.745 2.865,8.714 2.793,8.541 2.640 C 8.354 2.476,8.283 2.447,8.028 2.435 C 7.827 2.425,7.784 2.431,7.667 2.489 " fill="#1A1C1F" stroke="none" fill-rule="evenodd"></path></svg>