<svg width="32" height="32" viewBox="0 0 32 32" fill="none" xmlns="http://www.w3.org/2000/svg"><path d="M7.635 5.109 C 7.377 5.248,5.760 6.787,4.034 8.534 C 2.147 10.445,2.072 10.532,2.039 10.876 C 2.025 11.018,2.043 11.221,2.078 11.328 C 2.127 11.475,2.767 12.149,4.711 14.099 C 6.124 15.517,7.383 16.744,7.510 16.827 C 7.810 17.025,8.171 17.026,8.503 16.832 C 8.769 16.675,8.881 16.523,8.969 16.195 C 9.093 15.731,9.030 15.645,7.168 13.762 L 5.496 12.070 7.103 12.035 C 7.987 12.016,10.856 12.000,13.478 12.000 C 18.666 12.000,18.374 12.017,18.677 11.698 C 18.994 11.364,19.064 10.947,18.867 10.561 C 18.639 10.116,18.631 10.114,17.077 10.072 C 16.324 10.052,13.499 10.032,10.800 10.028 C 8.101 10.024,5.803 10.004,5.692 9.984 L 5.492 9.947 7.161 8.239 C 8.147 7.229,8.870 6.446,8.927 6.325 C 9.041 6.087,9.016 5.813,8.854 5.494 C 8.672 5.138,7.983 4.920,7.635 5.109 M23.538 15.143 C 23.292 15.255,23.056 15.594,23.005 15.909 C 22.944 16.282,23.088 16.463,24.877 18.280 L 26.571 20.000 23.566 20.000 C 21.913 20.000,18.988 20.016,17.067 20.035 L 13.573 20.069 13.353 20.288 C 13.064 20.574,12.969 20.876,13.059 21.212 C 13.150 21.553,13.311 21.756,13.589 21.879 C 13.822 21.982,13.997 21.986,20.167 22.014 C 23.654 22.030,26.507 22.056,26.507 22.072 C 26.507 22.088,25.766 22.835,24.860 23.731 C 23.954 24.627,23.178 25.432,23.134 25.520 C 22.854 26.087,23.119 26.739,23.708 26.934 C 24.019 27.037,24.286 26.972,24.628 26.711 C 25.115 26.340,29.780 21.653,29.883 21.432 C 29.998 21.185,29.996 20.882,29.879 20.630 C 29.753 20.361,28.377 18.935,26.252 16.873 C 24.412 15.087,24.351 15.039,23.920 15.041 C 23.832 15.042,23.660 15.088,23.538 15.143 " fill="#1A1C1F" stroke="none" fill-rule="evenodd"></path></svg>