<svg width="14" height="14" viewBox="0 0 14 14" fill="none" xmlns="http://www.w3.org/2000/svg"><path d="M6.731 2.167 C 6.611 2.221,5.203 3.590,3.953 4.867 C 2.777 6.068,2.850 5.985,2.823 6.152 C 2.774 6.454,2.878 6.720,3.102 6.868 C 3.225 6.949,3.438 7.008,3.561 6.994 C 3.800 6.967,3.845 6.928,5.108 5.679 L 6.300 4.499 6.300 7.932 L 6.300 11.365 6.360 11.483 C 6.590 11.937,7.162 12.028,7.502 11.664 C 7.561 11.601,7.629 11.505,7.654 11.450 C 7.698 11.354,7.699 11.254,7.699 7.923 L 7.700 4.494 8.803 5.591 C 9.915 6.698,10.096 6.867,10.242 6.942 C 10.366 7.005,10.647 7.000,10.786 6.933 C 10.936 6.860,11.114 6.660,11.156 6.518 C 11.192 6.391,11.193 6.157,11.157 6.064 C 11.123 5.975,10.251 5.074,8.946 3.780 C 7.652 2.497,7.313 2.181,7.189 2.147 C 7.055 2.110,6.836 2.119,6.731 2.167 " fill="#1A1C1F" stroke="none" fill-rule="evenodd"></path></svg>