<svg width="12" height="12" viewBox="0 0 12 12" fill="none" xmlns="http://www.w3.org/2000/svg"><path d="M5.769 1.858 C 5.667 1.904,4.459 3.078,3.388 4.172 C 2.379 5.202,2.443 5.130,2.419 5.274 C 2.378 5.532,2.467 5.760,2.658 5.887 C 2.770 5.961,2.947 6.007,3.058 5.992 C 3.266 5.964,3.299 5.936,4.378 4.868 L 5.400 3.856 5.400 6.799 L 5.400 9.742 5.443 9.825 C 5.506 9.950,5.556 10.010,5.651 10.078 C 5.757 10.154,5.955 10.208,6.068 10.191 C 6.267 10.162,6.476 10.002,6.561 9.814 C 6.598 9.733,6.599 9.637,6.600 6.791 L 6.600 3.852 7.545 4.792 C 8.496 5.738,8.652 5.884,8.780 5.952 C 8.870 5.999,9.117 6.000,9.225 5.954 C 9.331 5.909,9.489 5.754,9.541 5.644 C 9.591 5.540,9.603 5.295,9.564 5.198 C 9.533 5.120,8.807 4.370,7.688 3.260 C 6.560 2.141,6.269 1.870,6.162 1.840 C 6.047 1.808,5.859 1.817,5.769 1.858 " fill="#1A1C1F" stroke="none" fill-rule="evenodd"></path></svg>