<svg width="32" height="32" viewBox="0 0 32 32" fill="none" xmlns="http://www.w3.org/2000/svg"><path d="M10.960 8.708 C 10.580 8.920,10.403 9.468,10.580 9.882 C 10.706 10.176,10.933 10.343,11.284 10.401 C 11.458 10.429,12.740 10.453,14.133 10.453 C 17.059 10.454,19.947 10.507,19.947 10.561 C 19.947 10.581,17.639 12.923,14.819 15.766 C 11.999 18.608,9.434 21.216,9.119 21.561 C 8.503 22.234,8.427 22.387,8.540 22.724 C 8.701 23.203,9.079 23.463,9.616 23.465 L 9.925 23.467 15.669 17.705 L 21.413 11.942 21.446 12.945 C 21.465 13.496,21.483 15.487,21.486 17.369 L 21.493 20.792 21.719 20.984 C 22.026 21.247,22.445 21.369,22.741 21.280 C 23.048 21.188,23.230 21.045,23.392 20.768 L 23.532 20.530 23.504 14.972 C 23.484 10.993,23.459 9.341,23.414 9.160 C 23.369 8.977,23.298 8.863,23.157 8.747 L 22.962 8.587 17.068 8.588 L 11.173 8.588 10.960 8.708 " fill="#1A1C1F" stroke="none" fill-rule="evenodd"></path></svg>