<svg width="24" height="24" viewBox="0 0 24 24" fill="none" xmlns="http://www.w3.org/2000/svg"><path d="M8.719 6.075 C 8.200 6.152,7.857 6.875,8.101 7.379 C 8.198 7.579,8.430 7.813,8.637 7.918 C 8.794 7.998,8.856 8.000,11.688 8.000 L 14.580 8.000 11.178 11.410 C 7.240 15.357,6.427 16.188,6.175 16.531 C 5.994 16.776,5.991 16.784,6.011 17.028 C 6.054 17.567,6.519 18.000,7.055 18.000 C 7.398 18.000,7.405 17.994,12.830 12.582 L 16.000 9.420 16.000 11.940 C 16.000 13.326,16.012 14.665,16.027 14.915 C 16.051 15.337,16.062 15.383,16.176 15.551 C 16.371 15.835,16.594 15.973,16.892 15.992 C 17.029 16.001,17.214 15.989,17.303 15.965 C 17.507 15.910,17.793 15.667,17.869 15.484 C 17.971 15.240,18.004 13.799,17.992 10.133 L 17.980 6.647 17.860 6.478 C 17.794 6.386,17.662 6.254,17.566 6.185 L 17.392 6.060 13.146 6.054 C 10.811 6.051,8.819 6.060,8.719 6.075 " fill="#1A1C1F" stroke="none" fill-rule="evenodd"></path></svg>