<svg width="12" height="12" viewBox="0 0 12 12" fill="none" xmlns="http://www.w3.org/2000/svg"><path d="M3.478 1.219 C 3.355 1.243,3.228 1.334,2.934 1.609 C 2.573 1.947,1.522 3.010,1.384 3.176 C 1.232 3.360,1.214 3.404,1.214 3.590 C 1.213 3.784,1.238 3.848,1.382 4.020 C 1.699 4.403,3.187 5.852,3.350 5.937 C 3.482 6.006,3.703 6.011,3.840 5.948 C 4.090 5.832,4.249 5.517,4.182 5.269 C 4.145 5.132,4.048 5.011,3.644 4.598 L 3.255 4.200 4.998 4.200 L 6.741 4.200 6.843 4.149 C 6.899 4.120,6.984 4.057,7.032 4.007 C 7.247 3.786,7.244 3.407,7.026 3.189 C 6.914 3.077,6.860 3.049,6.720 3.030 C 6.660 3.021,5.870 3.009,4.967 3.002 C 4.063 2.996,3.317 2.984,3.309 2.976 C 3.301 2.968,3.477 2.774,3.700 2.546 C 4.159 2.076,4.187 2.033,4.188 1.807 C 4.189 1.682,4.180 1.646,4.119 1.527 C 4.066 1.421,4.028 1.375,3.953 1.325 C 3.817 1.234,3.624 1.191,3.478 1.219 M8.124 6.081 C 7.909 6.188,7.817 6.344,7.816 6.600 C 7.815 6.829,7.856 6.891,8.318 7.364 C 8.531 7.582,8.699 7.768,8.691 7.776 C 8.683 7.783,7.924 7.796,7.003 7.804 C 6.083 7.811,5.293 7.823,5.247 7.829 C 5.071 7.856,4.861 8.071,4.821 8.267 C 4.796 8.390,4.819 8.561,4.877 8.674 C 4.927 8.772,5.077 8.912,5.186 8.961 C 5.266 8.998,5.343 8.999,7.007 9.000 L 8.745 9.000 8.337 9.416 C 7.850 9.914,7.811 9.973,7.811 10.210 C 7.812 10.395,7.851 10.491,7.980 10.620 C 8.107 10.747,8.204 10.787,8.390 10.787 C 8.589 10.788,8.649 10.763,8.842 10.598 C 9.278 10.225,10.651 8.813,10.737 8.650 C 10.780 8.568,10.789 8.523,10.789 8.400 C 10.789 8.277,10.780 8.232,10.737 8.150 C 10.640 7.966,9.015 6.311,8.757 6.133 C 8.561 5.999,8.327 5.980,8.124 6.081 " fill="#1A1C1F" stroke="none" fill-rule="evenodd"></path></svg>