<svg width="16" height="16" viewBox="0 0 16 16" fill="none" xmlns="http://www.w3.org/2000/svg"><path d="M10.893 1.677 C 10.835 1.703,10.673 1.828,10.533 1.953 C 10.205 2.248,8.398 4.070,8.219 4.287 C 8.019 4.530,7.968 4.727,8.030 5.018 C 8.054 5.131,8.089 5.188,8.210 5.316 C 8.437 5.555,8.674 5.636,8.970 5.574 C 9.164 5.534,9.273 5.447,9.882 4.848 L 10.365 4.374 10.382 4.938 C 10.392 5.248,10.400 6.286,10.400 7.245 L 10.400 8.988 10.468 9.122 C 10.551 9.286,10.710 9.444,10.871 9.522 C 10.963 9.567,11.040 9.580,11.200 9.580 C 11.360 9.580,11.437 9.567,11.529 9.522 C 11.690 9.444,11.849 9.286,11.932 9.122 L 12.000 8.988 12.000 6.663 L 12.000 4.338 12.487 4.816 C 13.227 5.544,13.284 5.583,13.613 5.583 C 13.781 5.583,13.851 5.570,13.941 5.524 C 14.096 5.444,14.260 5.274,14.329 5.124 C 14.406 4.955,14.406 4.673,14.330 4.507 C 14.258 4.350,13.743 3.801,12.677 2.745 C 11.770 1.847,11.601 1.698,11.445 1.654 C 11.288 1.611,11.014 1.622,10.893 1.677 M4.490 6.478 C 4.338 6.547,4.170 6.705,4.078 6.865 L 4.001 7.000 4.000 9.329 L 4.000 11.659 3.482 11.154 C 3.197 10.877,2.896 10.602,2.812 10.545 C 2.666 10.444,2.651 10.440,2.410 10.431 C 2.179 10.422,2.151 10.427,2.041 10.492 C 1.891 10.579,1.745 10.728,1.672 10.867 C 1.599 11.004,1.591 11.382,1.658 11.507 C 1.749 11.675,2.096 12.047,3.051 13.001 C 4.001 13.951,4.305 14.229,4.507 14.336 C 4.655 14.415,4.963 14.405,5.133 14.315 C 5.448 14.150,7.768 11.830,7.942 11.507 C 8.004 11.391,8.000 11.006,7.935 10.880 C 7.790 10.602,7.582 10.460,7.282 10.435 C 7.042 10.415,6.872 10.459,6.720 10.581 C 6.654 10.635,6.376 10.899,6.102 11.168 L 5.605 11.658 5.595 9.329 C 5.583 6.683,5.604 6.903,5.347 6.653 C 5.240 6.548,5.162 6.497,5.062 6.468 C 4.873 6.411,4.626 6.416,4.490 6.478 " fill="#1A1C1F" stroke="none" fill-rule="evenodd"></path></svg>