<svg width="24" height="24" viewBox="0 0 24 24" fill="none" xmlns="http://www.w3.org/2000/svg"><path d="M11.576 4.097 C 11.404 4.172,11.188 4.397,11.086 4.608 L 11.000 4.785 11.000 10.682 L 11.000 16.580 9.390 14.977 C 7.246 12.844,6.589 12.216,6.388 12.113 C 5.794 11.809,5.028 12.317,5.022 13.020 C 5.020 13.226,5.038 13.286,5.146 13.441 C 5.378 13.776,6.570 15.004,9.015 17.427 C 10.803 19.200,11.492 19.858,11.629 19.924 C 11.800 20.007,11.837 20.011,12.107 19.972 L 12.400 19.929 12.787 19.575 C 13.447 18.969,16.884 15.551,17.886 14.505 C 18.837 13.510,19.000 13.298,19.000 13.052 C 19.000 12.862,18.882 12.540,18.755 12.386 C 18.585 12.180,18.276 12.040,17.991 12.040 C 17.862 12.040,17.698 12.065,17.626 12.095 C 17.465 12.162,16.788 12.809,14.650 14.937 L 13.000 16.580 12.999 10.680 C 12.998 4.981,12.996 4.774,12.923 4.614 C 12.819 4.385,12.571 4.148,12.374 4.089 C 12.160 4.025,11.732 4.029,11.576 4.097 " fill="#1A1C1F" stroke="none" fill-rule="evenodd"></path></svg>