<svg width="24" height="24" viewBox="0 0 24 24" fill="none" xmlns="http://www.w3.org/2000/svg"><path d="M10.568 5.098 C 10.322 5.209,4.159 11.412,4.074 11.635 C 4.054 11.687,4.027 11.859,4.014 12.017 L 3.990 12.303 4.189 12.542 C 4.701 13.156,10.232 18.662,10.536 18.861 C 10.793 19.030,11.209 19.006,11.526 18.805 C 11.857 18.594,12.032 18.216,11.978 17.826 C 11.942 17.561,11.871 17.483,9.462 15.050 L 7.432 13.000 13.346 13.000 L 19.260 12.999 19.467 12.880 C 19.842 12.665,19.982 12.380,19.951 11.896 C 19.928 11.537,19.813 11.338,19.533 11.174 L 19.345 11.064 16.263 11.035 C 14.567 11.019,11.887 11.005,10.306 11.003 L 7.432 11.000 9.421 8.990 C 11.791 6.595,11.915 6.461,11.966 6.231 C 12.057 5.830,11.870 5.410,11.500 5.180 C 11.336 5.078,11.260 5.058,11.003 5.050 C 10.801 5.043,10.656 5.059,10.568 5.098 " fill="#1A1C1F" stroke="none" fill-rule="evenodd"></path></svg>