<svg width="32" height="32" viewBox="0 0 32 32" fill="none" xmlns="http://www.w3.org/2000/svg"><path d="M19.403 3.217 C 18.035 4.525,15.249 7.384,15.093 7.640 C 14.951 7.873,14.959 8.084,15.125 8.417 C 15.350 8.867,15.878 9.111,16.273 8.945 C 16.497 8.852,17.047 8.343,18.730 6.674 L 19.994 5.420 20.010 11.817 L 20.027 18.213 20.160 18.479 C 20.338 18.835,20.542 18.948,21.012 18.952 C 21.326 18.955,21.399 18.936,21.562 18.813 C 21.665 18.734,21.811 18.544,21.888 18.391 L 22.027 18.112 22.027 11.779 L 22.027 5.445 23.642 7.056 C 24.530 7.942,25.362 8.739,25.491 8.827 C 25.967 9.153,26.591 8.972,26.867 8.428 C 27.004 8.156,27.019 7.913,26.913 7.659 C 26.786 7.357,22.228 2.735,21.526 2.198 C 21.400 2.101,21.303 2.080,20.983 2.080 L 20.593 2.080 19.403 3.217 M10.727 13.070 C 10.468 13.127,10.287 13.278,10.121 13.578 L 9.976 13.840 9.975 20.187 L 9.973 26.535 8.387 24.959 C 7.514 24.093,6.712 23.317,6.604 23.235 C 6.167 22.904,5.491 23.017,5.191 23.472 C 5.001 23.758,4.982 24.204,5.148 24.465 C 5.300 24.705,8.273 27.739,9.505 28.912 C 10.479 29.840,10.574 29.916,10.798 29.949 C 11.296 30.024,11.338 29.998,12.494 28.890 C 13.800 27.638,16.763 24.597,16.907 24.360 C 17.052 24.123,17.040 23.903,16.866 23.570 C 16.756 23.359,16.659 23.257,16.484 23.164 C 16.191 23.009,15.777 22.998,15.547 23.138 C 15.459 23.192,14.626 23.986,13.696 24.901 L 12.006 26.566 11.989 20.150 C 11.974 13.856,11.971 13.729,11.867 13.522 C 11.697 13.186,11.162 12.974,10.727 13.070 " fill="#1A1C1F" stroke="none" fill-rule="evenodd"></path></svg>