<svg width="14" height="14" viewBox="0 0 14 14" fill="none" xmlns="http://www.w3.org/2000/svg"><path d="M9.632 1.432 C 9.571 1.449,9.477 1.492,9.422 1.529 C 9.367 1.565,8.832 2.086,8.233 2.687 C 7.059 3.863,7.035 3.893,7.007 4.158 C 6.986 4.365,7.042 4.513,7.203 4.671 C 7.403 4.868,7.596 4.930,7.849 4.877 C 8.019 4.842,8.114 4.766,8.651 4.238 L 9.077 3.820 9.080 3.957 C 9.081 4.033,9.089 4.951,9.097 5.997 L 9.112 7.898 9.174 8.005 C 9.252 8.136,9.425 8.298,9.539 8.346 C 9.653 8.394,9.947 8.394,10.061 8.346 C 10.175 8.298,10.348 8.136,10.426 8.005 L 10.488 7.898 10.500 5.850 L 10.512 3.803 10.780 4.074 C 11.159 4.457,11.516 4.777,11.629 4.835 C 11.767 4.907,12.058 4.906,12.198 4.833 C 12.445 4.706,12.586 4.480,12.587 4.212 C 12.589 3.925,12.573 3.904,11.592 2.907 C 10.503 1.800,10.193 1.511,10.041 1.461 C 9.872 1.406,9.754 1.398,9.632 1.432 M3.928 5.668 C 3.796 5.729,3.649 5.867,3.568 6.007 L 3.500 6.125 3.500 8.163 L 3.500 10.202 3.047 9.760 C 2.798 9.517,2.534 9.277,2.461 9.227 C 2.338 9.142,2.314 9.134,2.140 9.127 C 1.892 9.115,1.794 9.148,1.638 9.294 C 1.354 9.561,1.327 9.907,1.564 10.224 C 1.845 10.598,3.692 12.413,3.908 12.526 C 4.075 12.613,4.325 12.613,4.492 12.526 C 4.766 12.382,6.800 10.348,6.948 10.069 C 6.995 9.981,6.999 9.686,6.955 9.556 C 6.915 9.438,6.714 9.223,6.592 9.167 C 6.473 9.113,6.172 9.108,6.050 9.159 C 5.925 9.211,5.799 9.320,5.328 9.784 L 4.904 10.201 4.896 8.163 C 4.886 5.847,4.904 6.041,4.679 5.821 C 4.585 5.729,4.517 5.685,4.429 5.659 C 4.263 5.610,4.048 5.614,3.928 5.668 " fill="#1A1C1F" stroke="none" fill-rule="evenodd"></path></svg>