<svg width="16" height="16" viewBox="0 0 16 16" fill="none" xmlns="http://www.w3.org/2000/svg"><path d="M8.613 3.224 C 8.519 3.254,8.343 3.350,8.279 3.406 C 8.099 3.564,7.982 3.857,8.009 4.083 C 8.041 4.359,8.038 4.355,9.866 6.193 L 10.866 7.200 8.493 7.203 C 7.188 7.204,5.399 7.213,4.517 7.223 L 2.914 7.240 2.777 7.333 C 2.338 7.632,2.287 8.216,2.670 8.574 C 2.919 8.807,2.506 8.786,6.931 8.794 L 10.862 8.801 9.623 10.047 C 8.409 11.268,8.151 11.544,8.063 11.714 C 8.010 11.816,8.006 12.099,8.056 12.264 C 8.101 12.414,8.292 12.625,8.464 12.713 C 8.575 12.771,8.637 12.784,8.800 12.785 C 8.974 12.786,9.018 12.776,9.134 12.708 C 9.369 12.571,13.322 8.604,13.517 8.309 C 13.577 8.218,13.586 8.176,13.585 8.002 C 13.584 7.848,13.570 7.773,13.525 7.687 C 13.442 7.529,12.661 6.720,10.837 4.904 C 9.392 3.467,9.255 3.338,9.120 3.287 C 8.948 3.223,8.709 3.193,8.613 3.224 " fill="#1A1C1F" stroke="none" fill-rule="evenodd"></path></svg>