<svg width="14" height="14" viewBox="0 0 14 14" fill="none" xmlns="http://www.w3.org/2000/svg"><path d="M6.754 2.153 C 6.564 2.230,6.452 2.337,6.350 2.537 L 6.300 2.635 6.300 6.068 L 6.300 9.501 5.145 8.359 C 4.510 7.730,3.933 7.176,3.862 7.128 C 3.749 7.050,3.715 7.038,3.559 7.028 C 3.341 7.014,3.215 7.048,3.067 7.160 C 2.932 7.262,2.854 7.402,2.822 7.606 C 2.786 7.825,2.821 7.939,2.981 8.135 C 3.311 8.539,6.557 11.747,6.723 11.832 C 6.861 11.903,7.112 11.908,7.245 11.842 C 7.299 11.815,7.646 11.496,8.073 11.080 C 9.168 10.015,10.995 8.171,11.079 8.046 C 11.304 7.714,11.181 7.285,10.803 7.090 C 10.661 7.016,10.400 7.002,10.249 7.059 C 10.122 7.108,9.951 7.268,8.628 8.585 L 7.700 9.508 7.700 6.288 C 7.699 4.517,7.690 2.951,7.678 2.807 C 7.666 2.661,7.640 2.516,7.620 2.477 C 7.580 2.399,7.395 2.229,7.292 2.176 C 7.202 2.129,6.850 2.114,6.754 2.153 " fill="#1A1C1F" stroke="none" fill-rule="evenodd"></path></svg>