<svg width="12" height="12" viewBox="0 0 12 12" fill="none" xmlns="http://www.w3.org/2000/svg"><path d="M5.298 2.422 C 5.247 2.430,5.176 2.452,5.138 2.471 C 5.101 2.490,4.363 3.213,3.498 4.078 C 2.089 5.488,1.920 5.663,1.863 5.778 C 1.779 5.949,1.779 6.051,1.864 6.221 C 1.918 6.329,2.046 6.469,2.711 7.149 C 3.761 8.221,4.924 9.373,5.060 9.474 C 5.204 9.581,5.298 9.606,5.471 9.581 C 5.651 9.556,5.773 9.490,5.864 9.370 C 5.955 9.250,6.011 9.059,5.992 8.936 C 5.960 8.731,5.930 8.695,4.868 7.622 L 3.856 6.600 6.803 6.600 L 9.750 6.600 9.852 6.541 C 9.976 6.470,10.129 6.305,10.161 6.207 C 10.197 6.099,10.176 5.828,10.125 5.730 C 10.073 5.631,9.930 5.490,9.850 5.459 C 9.744 5.419,8.704 5.402,6.240 5.401 L 3.850 5.400 4.642 4.605 C 5.835 3.406,5.933 3.300,5.972 3.165 C 6.090 2.758,5.727 2.358,5.298 2.422 " fill="#1A1C1F" stroke="none" fill-rule="evenodd"></path></svg>