<svg width="14" height="14" viewBox="0 0 14 14" fill="none" xmlns="http://www.w3.org/2000/svg"><path d="M6.032 2.867 C 5.968 2.896,5.506 3.338,4.564 4.272 C 2.949 5.874,2.221 6.626,2.160 6.754 C 2.098 6.885,2.089 7.020,2.132 7.168 C 2.183 7.345,2.396 7.575,4.013 9.202 C 5.750 10.951,5.955 11.139,6.174 11.187 C 6.277 11.209,6.526 11.164,6.649 11.100 C 6.860 10.992,7.027 10.661,6.991 10.425 C 6.954 10.186,6.918 10.144,5.679 8.892 L 4.499 7.700 7.937 7.700 L 11.375 7.700 11.496 7.630 C 11.757 7.481,11.890 7.273,11.886 7.021 C 11.882 6.788,11.827 6.652,11.679 6.512 C 11.609 6.447,11.523 6.382,11.487 6.368 C 11.371 6.323,10.070 6.302,7.248 6.301 L 4.497 6.300 5.579 5.209 C 6.874 3.904,6.938 3.832,6.979 3.651 C 7.036 3.397,6.931 3.127,6.711 2.961 C 6.649 2.914,6.559 2.864,6.511 2.850 C 6.376 2.809,6.139 2.818,6.032 2.867 " fill="#1A1C1F" stroke="none" fill-rule="evenodd"></path></svg>