<svg width="16" height="16" viewBox="0 0 16 16" fill="none" xmlns="http://www.w3.org/2000/svg"><path d="M7.009 3.237 C 6.941 3.255,6.856 3.289,6.821 3.313 C 6.727 3.374,3.829 6.253,3.127 6.981 C 2.455 7.680,2.384 7.783,2.405 8.037 C 2.428 8.308,2.478 8.371,3.536 9.452 C 4.082 10.010,5.037 10.972,5.658 11.591 L 6.787 12.714 6.991 12.761 C 7.232 12.817,7.426 12.791,7.619 12.678 C 7.851 12.542,8.030 12.174,7.989 11.915 C 7.947 11.641,7.906 11.594,6.490 10.163 L 5.141 8.800 9.065 8.800 L 12.988 8.800 13.115 8.736 C 13.278 8.653,13.447 8.484,13.525 8.325 C 13.600 8.173,13.604 7.920,13.536 7.714 C 13.487 7.567,13.267 7.331,13.128 7.277 C 12.995 7.226,11.509 7.202,8.284 7.201 L 5.141 7.200 6.484 5.844 C 7.911 4.403,7.964 4.341,7.992 4.070 C 8.029 3.713,7.717 3.292,7.379 3.241 C 7.317 3.231,7.237 3.219,7.200 3.213 C 7.163 3.208,7.078 3.218,7.009 3.237 " fill="#1A1C1F" stroke="none" fill-rule="evenodd"></path></svg>