<svg width="28" height="28" viewBox="0 0 28 28" fill="none" xmlns="http://www.w3.org/2000/svg"><path d="M12.749 6.255 C 12.506 6.402,10.564 8.297,7.805 11.079 L 5.273 13.630 5.273 14.000 L 5.273 14.369 7.595 16.711 C 10.930 20.075,12.678 21.766,12.898 21.838 C 13.163 21.926,13.449 21.830,13.725 21.563 C 13.904 21.390,13.951 21.310,13.977 21.134 C 14.042 20.697,14.058 20.717,11.079 17.731 C 8.636 15.283,8.358 14.989,8.455 14.961 C 8.515 14.944,11.625 14.917,15.367 14.901 L 22.170 14.872 22.372 14.694 C 22.615 14.480,22.727 14.263,22.727 14.003 C 22.727 13.741,22.634 13.545,22.406 13.326 L 22.213 13.141 15.233 13.121 L 8.253 13.101 11.024 10.319 C 12.933 8.401,13.828 7.471,13.904 7.324 C 14.103 6.937,13.941 6.470,13.535 6.265 C 13.271 6.132,12.957 6.127,12.749 6.255 " fill="#1A1C1F" stroke="none" fill-rule="evenodd"></path></svg>