<svg width="14" height="14" viewBox="0 0 14 14" fill="none" xmlns="http://www.w3.org/2000/svg"><path d="M4.393 3.778 C 4.141 3.941,4.001 4.237,4.054 4.493 C 4.105 4.737,4.227 4.900,4.438 5.007 L 4.548 5.063 5.652 5.067 C 6.259 5.068,7.012 5.076,7.327 5.084 L 7.898 5.098 6.135 6.872 C 3.607 9.415,3.687 9.327,3.687 9.569 C 3.687 9.962,3.977 10.276,4.371 10.307 C 4.459 10.314,4.555 10.307,4.606 10.291 C 4.712 10.256,5.152 9.831,7.333 7.655 L 8.937 6.055 8.937 7.745 C 8.937 9.389,8.938 9.438,8.983 9.532 C 9.110 9.793,9.348 9.952,9.614 9.952 C 9.890 9.952,10.203 9.746,10.268 9.522 C 10.318 9.347,10.338 8.321,10.332 6.277 C 10.326 4.533,10.319 4.155,10.293 4.107 C 10.226 3.985,10.096 3.848,9.991 3.786 L 9.882 3.722 8.400 3.707 C 7.585 3.698,6.382 3.691,5.726 3.689 L 4.534 3.687 4.393 3.778 " fill="#1A1C1F" stroke="none" fill-rule="evenodd"></path></svg>