<svg width="12" height="12" viewBox="0 0 12 12" fill="none" xmlns="http://www.w3.org/2000/svg"><path d="M5.747 1.861 C 5.643 1.913,5.533 2.019,5.457 2.138 L 5.400 2.228 5.400 5.186 L 5.400 8.144 4.410 7.165 C 3.866 6.626,3.370 6.150,3.308 6.107 C 3.196 6.031,3.194 6.030,3.003 6.030 C 2.779 6.030,2.700 6.059,2.568 6.191 C 2.419 6.340,2.363 6.658,2.454 6.832 C 2.523 6.962,2.936 7.392,4.162 8.610 C 5.523 9.962,5.701 10.127,5.845 10.170 C 6.129 10.254,6.171 10.227,6.905 9.513 C 7.825 8.617,9.425 7.002,9.496 6.897 C 9.666 6.646,9.601 6.313,9.346 6.133 C 9.222 6.045,9.152 6.023,8.990 6.022 C 8.732 6.020,8.793 5.969,7.396 7.358 L 6.602 8.148 6.595 5.219 C 6.588 1.877,6.604 2.157,6.415 1.990 C 6.260 1.854,6.214 1.835,6.010 1.827 C 5.858 1.820,5.817 1.826,5.747 1.861 " fill="#1A1C1F" stroke="none" fill-rule="evenodd"></path></svg>