<svg width="28" height="28" viewBox="0 0 28 28" fill="none" xmlns="http://www.w3.org/2000/svg"><path d="M18.114 1.805 C 17.897 1.850,13.472 6.250,13.207 6.683 C 13.082 6.889,13.089 7.073,13.235 7.365 C 13.431 7.759,13.893 7.972,14.238 7.827 C 14.435 7.745,14.916 7.300,16.392 5.837 L 17.500 4.737 17.503 9.940 C 17.505 15.208,17.522 15.965,17.643 16.216 C 17.746 16.428,18.066 16.583,18.407 16.586 C 18.728 16.588,18.865 16.519,19.070 16.251 C 19.193 16.090,19.200 16.049,19.232 15.379 C 19.251 14.993,19.268 12.456,19.270 9.742 C 19.272 7.027,19.280 4.807,19.288 4.807 C 19.296 4.807,19.932 5.431,20.703 6.195 C 21.473 6.959,22.194 7.646,22.306 7.723 C 22.720 8.009,23.268 7.851,23.508 7.374 C 23.629 7.136,23.641 6.924,23.548 6.702 C 23.432 6.422,19.116 2.057,18.777 1.876 C 18.664 1.815,18.267 1.773,18.114 1.805 M9.258 11.473 C 9.152 11.523,9.005 11.643,8.931 11.740 L 8.797 11.916 8.766 12.830 C 8.749 13.332,8.734 15.870,8.731 18.468 C 8.729 21.067,8.710 23.193,8.689 23.193 C 8.669 23.193,8.277 22.803,7.819 22.326 C 7.360 21.849,6.685 21.179,6.319 20.836 C 5.720 20.277,5.630 20.210,5.443 20.182 C 4.912 20.102,4.527 20.338,4.431 20.801 C 4.334 21.269,4.338 21.275,5.790 22.774 C 7.012 24.035,8.866 25.858,9.162 26.089 C 9.325 26.217,9.638 26.256,9.873 26.179 C 10.001 26.137,10.310 25.872,10.958 25.252 C 12.073 24.184,14.669 21.520,14.794 21.314 C 14.920 21.108,14.910 20.915,14.758 20.624 C 14.661 20.439,14.577 20.350,14.424 20.268 C 14.167 20.133,13.805 20.123,13.603 20.246 C 13.526 20.293,12.797 20.988,11.982 21.791 L 10.500 23.250 10.497 17.960 C 10.495 15.050,10.478 12.502,10.458 12.296 C 10.412 11.810,10.341 11.669,10.080 11.539 C 9.773 11.387,9.492 11.364,9.258 11.473 " fill="#1A1C1F" stroke="none" fill-rule="evenodd"></path></svg>