<svg width="28" height="28" viewBox="0 0 28 28" fill="none" xmlns="http://www.w3.org/2000/svg"><path d="M13.732 5.306 C 13.588 5.334,11.725 7.133,9.189 9.694 C 6.789 12.117,6.182 12.769,6.138 12.969 C 6.092 13.178,6.193 13.471,6.384 13.683 C 6.701 14.034,7.027 14.089,7.399 13.855 C 7.527 13.775,8.834 12.509,10.319 11.028 C 12.724 8.629,13.010 8.358,13.038 8.455 C 13.055 8.514,13.083 11.624,13.099 15.365 L 13.128 22.167 13.289 22.355 C 13.710 22.847,14.290 22.847,14.711 22.355 L 14.872 22.167 14.899 15.342 C 14.914 11.588,14.941 8.478,14.959 8.432 C 14.986 8.362,15.507 8.859,17.754 11.102 C 19.630 12.974,20.570 13.880,20.686 13.929 C 20.928 14.029,21.086 14.018,21.365 13.879 C 21.770 13.677,21.979 13.205,21.816 12.862 C 21.610 12.427,14.686 5.501,14.293 5.336 C 14.148 5.275,13.948 5.265,13.732 5.306 " fill="#1A1C1F" stroke="none" fill-rule="evenodd"></path></svg>