<svg width="24" height="24" viewBox="0 0 24 24" fill="none" xmlns="http://www.w3.org/2000/svg"><path d="M6.557 2.119 C 6.397 2.204,3.516 5.031,2.695 5.909 C 2.402 6.223,2.131 6.538,2.093 6.609 C 2.000 6.782,1.998 7.214,2.089 7.384 C 2.203 7.595,3.126 8.560,4.683 10.096 C 6.446 11.833,6.567 11.940,6.808 11.976 C 7.324 12.053,7.867 11.694,7.957 11.217 C 7.978 11.103,7.978 10.933,7.958 10.807 C 7.913 10.534,7.848 10.457,6.490 9.077 L 5.440 8.010 9.850 7.992 C 14.787 7.971,14.408 7.996,14.708 7.669 C 15.088 7.255,15.074 6.676,14.674 6.292 C 14.384 6.015,14.691 6.033,9.831 6.009 L 5.443 5.988 6.527 4.885 C 7.736 3.656,7.898 3.469,7.963 3.228 C 8.078 2.803,7.835 2.305,7.420 2.115 C 7.200 2.014,6.751 2.016,6.557 2.119 M16.580 12.106 C 16.163 12.326,15.914 12.837,16.039 13.218 C 16.106 13.421,16.314 13.659,17.495 14.880 C 18.058 15.463,18.519 15.951,18.520 15.964 C 18.520 15.976,16.662 15.999,14.390 16.014 C 12.118 16.028,10.090 16.057,9.883 16.078 C 9.442 16.121,9.374 16.161,9.171 16.490 C 8.923 16.889,8.957 17.232,9.283 17.644 C 9.511 17.931,9.518 17.933,10.880 17.964 C 11.551 17.980,13.063 17.997,14.240 18.002 C 15.417 18.006,16.857 18.022,17.440 18.035 L 18.500 18.060 17.880 18.710 C 16.343 20.323,16.124 20.567,16.056 20.744 C 15.852 21.280,16.308 21.923,16.940 21.989 C 17.369 22.033,17.366 22.035,19.667 19.731 C 20.807 18.589,21.793 17.578,21.857 17.485 C 21.961 17.334,21.974 17.280,21.977 17.005 C 21.979 16.764,21.962 16.670,21.903 16.578 C 21.644 16.184,17.617 12.196,17.375 12.095 C 17.195 12.020,16.732 12.027,16.580 12.106 " fill="#1A1C1F" stroke="none" fill-rule="evenodd"></path></svg>