<svg width="28" height="28" viewBox="0 0 28 28" fill="none" xmlns="http://www.w3.org/2000/svg"><path d="M13.646 5.362 C 13.541 5.409,13.381 5.540,13.291 5.653 L 13.126 5.857 13.097 12.647 C 13.082 16.381,13.055 19.485,13.038 19.545 C 13.011 19.642,12.717 19.364,10.295 16.950 C 8.592 15.252,7.500 14.199,7.360 14.118 C 7.175 14.012,7.102 13.994,6.946 14.019 C 6.405 14.106,6.034 14.607,6.162 15.079 C 6.205 15.241,6.431 15.496,7.580 16.678 C 8.332 17.451,10.001 19.128,11.289 20.405 L 13.631 22.727 13.981 22.727 L 14.331 22.727 15.083 22.015 C 16.568 20.609,21.694 15.396,21.793 15.190 C 21.878 15.016,21.883 14.965,21.836 14.750 C 21.752 14.355,21.461 14.084,21.054 14.019 C 20.898 13.994,20.825 14.012,20.640 14.118 C 20.499 14.199,19.408 15.252,17.683 16.972 L 14.949 19.698 14.918 17.911 C 14.901 16.928,14.886 13.939,14.885 11.270 C 14.884 8.601,14.865 6.263,14.843 6.075 C 14.797 5.676,14.710 5.554,14.350 5.384 C 14.070 5.252,13.900 5.247,13.646 5.362 " fill="#1A1C1F" stroke="none" fill-rule="evenodd"></path></svg>