<svg width="16" height="16" viewBox="0 0 16 16" fill="none" xmlns="http://www.w3.org/2000/svg"><path d="M4.640 1.625 C 4.456 1.662,4.315 1.767,3.821 2.235 C 3.375 2.659,2.081 3.973,1.834 4.253 C 1.668 4.442,1.615 4.575,1.615 4.800 C 1.615 4.964,1.627 5.024,1.684 5.133 C 1.797 5.349,3.739 7.344,4.239 7.758 C 4.467 7.946,4.556 7.982,4.801 7.981 C 5.044 7.980,5.200 7.920,5.353 7.767 C 5.518 7.602,5.585 7.437,5.585 7.200 C 5.584 6.887,5.538 6.820,4.816 6.087 L 4.338 5.600 6.663 5.600 L 8.988 5.600 9.114 5.536 C 9.275 5.455,9.502 5.215,9.547 5.080 C 9.592 4.943,9.592 4.654,9.548 4.521 C 9.504 4.391,9.315 4.186,9.151 4.089 L 9.027 4.016 6.743 4.005 C 5.487 3.999,4.443 3.984,4.424 3.972 C 4.399 3.956,4.527 3.810,4.882 3.448 C 5.153 3.172,5.417 2.887,5.467 2.813 C 5.549 2.695,5.561 2.657,5.569 2.473 C 5.582 2.205,5.563 2.114,5.465 1.966 C 5.305 1.725,4.927 1.569,4.640 1.625 M10.859 8.089 C 10.724 8.159,10.545 8.326,10.490 8.432 C 10.372 8.661,10.393 9.009,10.537 9.220 C 10.585 9.289,10.847 9.572,11.118 9.848 C 11.505 10.242,11.603 10.355,11.572 10.375 C 11.550 10.389,10.877 10.401,9.973 10.402 C 9.115 10.404,8.076 10.414,7.664 10.423 L 6.914 10.440 6.777 10.533 C 6.338 10.832,6.287 11.416,6.670 11.774 C 6.913 12.001,6.709 11.984,9.328 11.995 L 11.656 12.005 11.140 12.530 C 10.856 12.818,10.586 13.111,10.538 13.179 C 10.392 13.392,10.367 13.724,10.481 13.948 C 10.543 14.070,10.730 14.257,10.855 14.321 C 11.107 14.450,11.430 14.411,11.683 14.220 C 12.092 13.912,14.192 11.770,14.316 11.533 C 14.415 11.343,14.415 11.057,14.316 10.867 C 14.192 10.631,12.090 8.485,11.705 8.201 C 11.512 8.059,11.410 8.027,11.160 8.028 C 11.020 8.029,10.945 8.044,10.859 8.089 " fill="#1A1C1F" stroke="none" fill-rule="evenodd"></path></svg>