<svg width="20" height="20" viewBox="0 0 20 20" fill="none" xmlns="http://www.w3.org/2000/svg"><path d="M9.617 3.095 C 9.449 3.172,7.331 5.230,5.597 7.003 C 3.957 8.679,4.069 8.551,4.033 8.800 C 4.003 9.017,4.035 9.310,4.103 9.440 C 4.282 9.781,4.730 10.032,5.088 9.991 C 5.428 9.953,5.493 9.898,7.297 8.113 L 9.000 6.427 9.000 11.331 L 9.000 16.236 9.071 16.375 C 9.177 16.583,9.260 16.684,9.418 16.797 C 9.594 16.924,9.926 17.014,10.113 16.986 C 10.445 16.936,10.793 16.669,10.935 16.356 C 10.997 16.221,10.999 16.061,10.999 11.321 L 11.000 6.426 12.592 8.002 C 13.467 8.869,14.279 9.657,14.395 9.753 C 14.634 9.950,14.844 10.021,15.090 9.988 C 15.683 9.906,16.085 9.354,15.967 8.783 C 15.930 8.606,15.907 8.578,15.136 7.775 C 14.221 6.823,11.360 3.980,10.806 3.473 C 10.599 3.283,10.379 3.107,10.316 3.081 C 10.154 3.013,9.781 3.021,9.617 3.095 " fill="#1A1C1F" stroke="none" fill-rule="evenodd"></path></svg>