<svg width="20" height="20" viewBox="0 0 20 20" fill="none" xmlns="http://www.w3.org/2000/svg"><path d="M10.573 4.111 C 10.259 4.276,10.044 4.582,10.010 4.914 C 9.988 5.126,10.037 5.311,10.166 5.505 C 10.221 5.589,11.008 6.406,11.914 7.323 L 13.562 8.989 8.623 9.013 L 3.684 9.036 3.549 9.116 C 3.376 9.217,3.144 9.468,3.075 9.627 C 3.003 9.795,3.005 10.143,3.078 10.358 C 3.152 10.571,3.373 10.809,3.593 10.911 L 3.750 10.983 8.663 10.993 L 13.577 11.002 12.028 12.559 C 10.513 14.083,10.188 14.430,10.079 14.642 C 10.012 14.771,10.005 15.097,10.065 15.312 C 10.122 15.514,10.353 15.775,10.580 15.892 C 10.718 15.963,10.797 15.980,11.000 15.981 C 11.218 15.982,11.272 15.970,11.417 15.886 C 11.719 15.710,16.780 10.625,16.926 10.350 C 17.004 10.204,16.995 9.824,16.910 9.631 C 16.829 9.449,15.529 8.100,13.312 5.898 C 11.752 4.349,11.505 4.123,11.309 4.068 C 11.086 4.007,10.734 4.027,10.573 4.111 " fill="#1A1C1F" stroke="none" fill-rule="evenodd"></path></svg>