<svg width="12" height="12" viewBox="0 0 12 12" fill="none" xmlns="http://www.w3.org/2000/svg"><path d="M6.314 2.483 C 6.176 2.559,6.091 2.659,6.039 2.809 C 5.969 3.008,5.995 3.166,6.127 3.339 C 6.173 3.399,6.644 3.886,7.175 4.421 L 8.139 5.394 5.175 5.408 L 2.210 5.422 2.127 5.470 C 2.005 5.542,1.871 5.702,1.838 5.814 C 1.798 5.952,1.807 6.141,1.860 6.249 C 1.883 6.298,1.950 6.382,2.008 6.434 C 2.205 6.615,1.924 6.600,5.230 6.600 L 8.150 6.600 7.349 7.405 C 6.358 8.401,6.093 8.678,6.048 8.763 C 6.004 8.846,6.000 9.052,6.038 9.186 C 6.075 9.314,6.211 9.463,6.356 9.534 C 6.519 9.614,6.710 9.613,6.851 9.531 C 7.026 9.428,9.992 6.452,10.136 6.234 C 10.178 6.170,10.187 6.135,10.187 6.014 C 10.186 5.778,10.168 5.752,9.575 5.138 C 8.745 4.279,7.042 2.598,6.914 2.511 C 6.802 2.435,6.790 2.431,6.614 2.425 C 6.438 2.419,6.425 2.422,6.314 2.483 " fill="#1A1C1F" stroke="none" fill-rule="evenodd"></path></svg>