<svg width="14" height="14" viewBox="0 0 14 14" fill="none" xmlns="http://www.w3.org/2000/svg"><path d="M7.392 2.883 C 7.145 3.011,7.014 3.225,7.013 3.500 C 7.012 3.650,7.021 3.692,7.079 3.797 C 7.126 3.882,7.498 4.274,8.324 5.109 L 9.501 6.300 7.871 6.300 C 6.975 6.300,5.413 6.307,4.400 6.316 L 2.559 6.331 2.417 6.426 C 2.302 6.504,2.261 6.549,2.197 6.673 C 2.124 6.817,2.120 6.836,2.128 7.023 C 2.133 7.158,2.151 7.251,2.182 7.315 C 2.249 7.453,2.409 7.597,2.557 7.652 C 2.684 7.700,2.709 7.700,6.097 7.700 L 9.508 7.700 8.562 8.651 C 7.449 9.768,7.107 10.126,7.054 10.228 C 7.005 10.321,7.001 10.564,7.045 10.718 C 7.088 10.869,7.263 11.060,7.425 11.132 C 7.610 11.215,7.839 11.209,7.993 11.119 C 8.196 11.000,11.658 7.527,11.825 7.274 C 11.875 7.199,11.884 7.157,11.884 7.016 C 11.884 6.742,11.861 6.709,11.194 6.018 C 10.422 5.219,8.337 3.147,8.149 2.992 C 7.982 2.854,7.892 2.823,7.665 2.825 C 7.539 2.825,7.477 2.838,7.392 2.883 " fill="#1A1C1F" stroke="none" fill-rule="evenodd"></path></svg>