<svg width="24" height="24" viewBox="0 0 24 24" fill="none" xmlns="http://www.w3.org/2000/svg"><path d="M12.660 5.086 C 12.169 5.353,11.958 5.712,12.022 6.174 C 12.058 6.438,12.127 6.515,14.514 8.926 C 15.617 10.040,16.520 10.960,16.520 10.970 C 16.520 10.979,13.854 10.999,10.596 11.014 C 4.025 11.045,4.582 11.018,4.284 11.316 C 3.834 11.766,3.941 12.480,4.515 12.857 L 4.731 13.000 10.650 13.000 L 16.568 13.000 14.538 15.050 C 12.167 17.444,12.061 17.561,12.024 17.807 C 11.978 18.111,12.064 18.386,12.275 18.613 C 12.607 18.969,13.003 19.083,13.341 18.919 C 13.438 18.872,13.909 18.456,14.464 17.926 C 15.470 16.965,18.970 13.446,19.574 12.788 L 19.928 12.402 19.969 12.106 C 19.992 11.943,19.999 11.763,19.985 11.706 C 19.970 11.647,19.540 11.167,18.976 10.581 C 17.520 9.067,13.530 5.160,13.374 5.095 C 13.218 5.030,12.774 5.024,12.660 5.086 " fill="#1A1C1F" stroke="none" fill-rule="evenodd"></path></svg>