<svg width="20" height="20" viewBox="0 0 20 20" fill="none" xmlns="http://www.w3.org/2000/svg"><path d="M13.760 2.045 C 13.673 2.069,13.538 2.131,13.460 2.183 C 13.381 2.235,12.619 2.978,11.767 3.833 C 10.670 4.933,10.190 5.437,10.125 5.557 C 9.738 6.270,10.370 7.123,11.173 6.973 C 11.291 6.952,11.433 6.896,11.511 6.843 C 11.585 6.792,11.943 6.460,12.306 6.104 L 12.967 5.459 12.971 5.654 C 12.973 5.762,12.985 7.073,12.996 8.567 C 13.017 11.262,13.017 11.284,13.088 11.417 C 13.184 11.596,13.415 11.818,13.593 11.904 C 13.788 11.999,14.197 12.001,14.405 11.908 C 14.572 11.834,14.829 11.572,14.930 11.373 C 14.999 11.237,15.000 11.213,15.000 8.329 L 15.000 5.422 15.608 6.020 C 16.534 6.931,16.605 6.979,17.017 6.978 C 17.329 6.976,17.490 6.910,17.705 6.695 C 17.900 6.500,17.982 6.300,17.982 6.017 C 17.982 5.685,17.909 5.555,17.444 5.050 C 16.977 4.544,14.910 2.500,14.627 2.264 C 14.361 2.043,14.050 1.964,13.760 2.045 M5.612 8.097 C 5.422 8.184,5.212 8.381,5.097 8.582 L 5.001 8.750 5.000 11.662 L 5.000 14.574 4.353 13.943 C 3.997 13.596,3.620 13.253,3.515 13.181 C 3.332 13.055,3.314 13.050,3.013 13.038 C 2.724 13.028,2.689 13.034,2.551 13.115 C 2.364 13.224,2.181 13.410,2.090 13.583 C 1.999 13.756,1.989 14.227,2.073 14.384 C 2.288 14.785,5.193 17.689,5.583 17.894 C 5.821 18.019,6.179 18.019,6.417 17.894 C 6.697 17.747,9.011 15.493,9.648 14.746 C 9.940 14.404,9.981 14.309,9.980 13.983 C 9.978 13.577,9.811 13.308,9.449 13.130 C 9.249 13.032,9.217 13.026,8.956 13.040 C 8.728 13.052,8.649 13.071,8.520 13.147 C 8.433 13.197,8.057 13.538,7.684 13.904 L 7.006 14.570 6.992 11.693 C 6.976 8.372,6.996 8.587,6.675 8.301 C 6.551 8.191,6.427 8.114,6.319 8.082 C 6.090 8.014,5.781 8.021,5.612 8.097 " fill="#1A1C1F" stroke="none" fill-rule="evenodd"></path></svg>