<svg width="32" height="32" viewBox="0 0 32 32" fill="none" xmlns="http://www.w3.org/2000/svg"><path d="M15.596 6.125 C 15.476 6.181,15.293 6.332,15.189 6.460 L 15.001 6.693 14.968 14.453 C 14.950 18.721,14.920 22.269,14.901 22.337 C 14.869 22.448,14.537 22.134,11.793 19.400 C 10.103 17.717,8.602 16.263,8.458 16.170 C 8.313 16.076,8.145 16.000,8.084 16.000 C 7.649 16.001,7.154 16.376,7.043 16.788 C 6.925 17.227,7.006 17.364,7.964 18.345 C 9.730 20.156,13.976 24.410,14.783 25.178 L 15.620 25.973 15.999 25.973 L 16.378 25.973 17.237 25.160 C 18.916 23.571,24.792 17.597,24.904 17.366 C 25.019 17.128,25.009 16.847,24.875 16.581 C 24.721 16.274,24.271 16.001,23.917 16.000 C 23.857 16.000,23.689 16.075,23.544 16.166 C 23.398 16.257,21.904 17.704,20.207 19.397 C 17.712 21.886,17.128 22.443,17.097 22.364 C 17.076 22.311,17.047 18.943,17.032 14.880 C 17.017 10.817,16.986 7.282,16.962 7.024 C 16.927 6.639,16.897 6.530,16.793 6.418 C 16.483 6.086,15.955 5.957,15.596 6.125 " fill="#1A1C1F" stroke="none" fill-rule="evenodd"></path></svg>