<svg width="20" height="20" viewBox="0 0 20 20" fill="none" xmlns="http://www.w3.org/2000/svg"><path d="M5.800 2.032 C 5.570 2.077,5.394 2.209,4.776 2.794 C 4.219 3.323,2.601 4.966,2.293 5.317 C 2.085 5.553,2.018 5.719,2.018 6.000 C 2.018 6.205,2.034 6.280,2.106 6.417 C 2.247 6.687,4.552 9.056,5.264 9.664 C 5.582 9.935,5.686 9.979,6.002 9.977 C 6.326 9.975,6.497 9.900,6.720 9.662 C 6.920 9.449,6.977 9.300,6.978 8.983 C 6.980 8.606,6.917 8.517,5.953 7.542 L 5.417 7.000 8.334 7.000 L 11.250 6.999 11.417 6.903 C 11.618 6.788,11.852 6.543,11.923 6.373 C 11.992 6.211,11.992 5.789,11.923 5.627 C 11.854 5.463,11.630 5.224,11.440 5.113 L 11.286 5.022 8.412 5.003 C 6.832 4.992,5.528 4.972,5.514 4.959 C 5.500 4.945,5.773 4.645,6.120 4.292 C 6.466 3.939,6.792 3.588,6.843 3.513 C 6.955 3.347,7.002 3.086,6.966 2.829 C 6.938 2.634,6.904 2.548,6.789 2.392 C 6.608 2.147,6.118 1.969,5.800 2.032 M13.560 10.118 C 13.362 10.221,13.193 10.395,13.096 10.594 C 13.038 10.714,13.021 10.807,13.022 11.000 C 13.024 11.407,13.053 11.449,13.998 12.412 C 14.449 12.872,14.508 12.944,14.450 12.966 C 14.413 12.979,13.104 12.999,11.540 13.009 L 8.696 13.027 8.510 13.139 C 8.179 13.337,8.014 13.649,8.024 14.057 C 8.033 14.424,8.204 14.683,8.576 14.896 L 8.758 15.000 10.921 15.000 C 12.110 15.000,13.409 15.010,13.808 15.022 L 14.532 15.044 13.906 15.682 C 13.207 16.393,13.084 16.551,13.030 16.800 C 12.956 17.147,13.060 17.459,13.338 17.720 C 13.706 18.066,14.189 18.087,14.605 17.774 C 15.119 17.388,17.739 14.714,17.894 14.417 C 17.966 14.280,17.982 14.205,17.982 14.000 C 17.982 13.795,17.966 13.720,17.894 13.583 C 17.739 13.287,15.116 10.608,14.632 10.252 C 14.391 10.074,14.263 10.033,13.950 10.035 C 13.769 10.036,13.681 10.055,13.560 10.118 " fill="#1A1C1F" stroke="none" fill-rule="evenodd"></path></svg>