<svg width="32" height="32" viewBox="0 0 32 32" fill="none" xmlns="http://www.w3.org/2000/svg"><path d="M14.570 7.148 C 14.297 7.315,11.998 9.558,8.867 12.714 L 6.027 15.577 6.027 16.012 L 6.027 16.447 10.201 20.613 C 14.698 25.101,14.652 25.060,15.118 24.990 C 15.535 24.927,15.903 24.580,15.978 24.179 C 15.997 24.078,15.982 23.883,15.945 23.745 C 15.883 23.512,15.643 23.258,12.673 20.280 C 10.911 18.513,9.480 17.064,9.494 17.061 C 9.508 17.058,13.012 17.036,17.280 17.012 C 21.849 16.986,25.135 16.947,25.270 16.917 C 25.987 16.758,26.218 15.808,25.665 15.288 C 25.542 15.173,25.422 15.125,25.165 15.088 C 24.979 15.061,21.377 15.024,17.160 15.006 C 12.943 14.987,9.493 14.959,9.493 14.942 C 9.493 14.926,10.882 13.519,12.579 11.816 C 14.276 10.113,15.740 8.614,15.832 8.485 C 15.924 8.356,16.000 8.188,16.000 8.112 C 15.999 7.725,15.739 7.288,15.408 7.117 C 15.190 7.004,14.781 7.019,14.570 7.148 " fill="#1A1C1F" stroke="none" fill-rule="evenodd"></path></svg>