<svg width="28" height="28" viewBox="0 0 28 28" fill="none" xmlns="http://www.w3.org/2000/svg"><path d="M11.360 7.467 L 9.770 7.490 9.580 7.615 C 9.233 7.846,9.100 8.315,9.282 8.670 C 9.429 8.957,9.567 9.053,9.899 9.099 C 10.063 9.122,11.811 9.151,13.784 9.163 C 15.757 9.176,17.389 9.204,17.411 9.226 C 17.433 9.248,15.783 10.951,13.707 13.048 C 8.065 18.748,7.715 19.106,7.562 19.348 C 7.391 19.617,7.388 19.692,7.532 20.002 C 7.700 20.362,7.905 20.496,8.331 20.523 L 8.678 20.545 13.711 15.494 L 18.745 10.442 18.776 11.505 C 18.793 12.090,18.807 13.833,18.807 15.379 L 18.807 18.190 18.971 18.334 C 19.328 18.648,19.699 18.738,20.000 18.583 C 20.220 18.470,20.413 18.274,20.493 18.083 C 20.566 17.909,20.610 9.987,20.544 8.742 C 20.496 7.827,20.474 7.766,20.124 7.590 L 19.903 7.479 16.427 7.461 C 14.514 7.451,12.234 7.454,11.360 7.467 " fill="#1A1C1F" stroke="none" fill-rule="evenodd"></path></svg>