<svg width="20" height="20" viewBox="0 0 20 20" fill="none" xmlns="http://www.w3.org/2000/svg"><path d="M6.433 5.331 C 6.254 5.386,6.128 5.475,6.003 5.634 C 5.837 5.844,5.785 5.995,5.787 6.267 C 5.789 6.633,5.977 6.942,6.314 7.136 L 6.483 7.233 8.917 7.233 L 11.350 7.233 8.881 9.708 C 6.011 12.585,5.468 13.145,5.347 13.352 C 5.267 13.488,5.260 13.528,5.274 13.744 C 5.292 14.029,5.376 14.211,5.582 14.418 C 5.789 14.624,5.971 14.708,6.256 14.726 C 6.470 14.740,6.512 14.733,6.644 14.655 C 6.849 14.535,7.563 13.842,10.356 11.056 L 12.761 8.656 12.772 11.103 L 12.783 13.550 12.875 13.706 C 13.168 14.205,13.810 14.358,14.304 14.047 C 14.462 13.948,14.626 13.746,14.669 13.600 C 14.740 13.353,14.769 11.880,14.760 8.967 C 14.752 6.476,14.742 5.935,14.704 5.867 C 14.608 5.693,14.424 5.497,14.273 5.409 L 14.117 5.317 10.317 5.311 C 8.227 5.307,6.479 5.316,6.433 5.331 " fill="#1A1C1F" stroke="none" fill-rule="evenodd"></path></svg>