<svg width="16" height="16" viewBox="0 0 16 16" fill="none" xmlns="http://www.w3.org/2000/svg"><path d="M5.146 4.265 C 4.945 4.326,4.780 4.479,4.687 4.689 C 4.610 4.863,4.611 5.201,4.689 5.353 C 4.766 5.503,4.906 5.639,5.067 5.720 L 5.198 5.787 7.139 5.787 L 9.080 5.787 7.105 7.767 C 4.809 10.068,4.375 10.516,4.278 10.682 C 4.214 10.791,4.208 10.823,4.219 10.995 C 4.240 11.313,4.406 11.559,4.700 11.706 C 4.829 11.770,4.896 11.787,5.032 11.787 C 5.125 11.787,5.245 11.769,5.297 11.747 C 5.406 11.701,5.836 11.283,8.433 8.694 L 10.213 6.920 10.214 8.587 C 10.215 10.331,10.234 10.846,10.303 10.979 C 10.359 11.089,10.544 11.249,10.690 11.315 C 10.775 11.354,10.867 11.372,10.987 11.372 C 11.297 11.372,11.541 11.212,11.722 10.891 L 11.813 10.728 11.813 7.752 L 11.813 4.777 11.699 4.608 C 11.635 4.515,11.530 4.403,11.462 4.358 C 11.342 4.277,11.333 4.275,10.917 4.258 C 10.332 4.233,5.229 4.240,5.146 4.265 " fill="#1A1C1F" stroke="none" fill-rule="evenodd"></path></svg>