<svg width="32" height="32" viewBox="0 0 32 32" fill="none" xmlns="http://www.w3.org/2000/svg"><path d="M15.691 6.065 C 15.527 6.096,13.396 8.156,10.465 11.117 C 7.607 14.004,7.058 14.597,7.010 14.852 C 6.960 15.118,7.074 15.394,7.353 15.682 C 7.555 15.890,7.645 15.944,7.847 15.974 C 8.346 16.047,8.324 16.066,11.737 12.661 C 14.531 9.873,14.869 9.552,14.901 9.663 C 14.920 9.731,14.951 13.285,14.970 17.560 L 15.004 25.334 15.192 25.554 C 15.659 26.100,16.341 26.100,16.808 25.554 L 16.997 25.333 17.027 17.533 C 17.044 13.243,17.075 9.690,17.096 9.636 C 17.127 9.558,17.725 10.129,20.291 12.689 C 22.421 14.813,23.512 15.864,23.642 15.919 C 23.917 16.034,24.098 16.020,24.417 15.862 C 24.880 15.631,25.119 15.092,24.933 14.699 C 24.698 14.204,16.782 6.286,16.335 6.099 C 16.168 6.029,15.941 6.017,15.691 6.065 " fill="#1A1C1F" stroke="none" fill-rule="evenodd"></path></svg>