<svg width="12" height="12" viewBox="0 0 12 12" fill="none" xmlns="http://www.w3.org/2000/svg"><path d="M3.767 3.236 C 3.549 3.379,3.429 3.632,3.475 3.851 C 3.519 4.061,3.623 4.200,3.804 4.292 L 3.899 4.340 4.834 4.343 C 5.349 4.344,5.995 4.351,6.270 4.358 L 6.770 4.370 5.249 5.900 C 3.365 7.795,3.211 7.955,3.180 8.051 C 3.143 8.163,3.164 8.370,3.225 8.491 C 3.287 8.612,3.411 8.729,3.536 8.785 C 3.651 8.836,3.850 8.853,3.948 8.821 C 4.039 8.791,4.416 8.426,6.285 6.562 L 7.660 5.190 7.660 6.450 C 7.661 7.753,7.675 8.134,7.727 8.235 C 7.769 8.316,7.909 8.437,8.014 8.484 C 8.136 8.538,8.383 8.542,8.480 8.492 C 8.577 8.442,8.735 8.286,8.786 8.190 C 8.826 8.114,8.829 8.070,8.844 7.350 C 8.853 6.932,8.858 5.909,8.855 5.077 L 8.850 3.564 8.770 3.447 C 8.657 3.282,8.540 3.209,8.367 3.193 C 8.292 3.187,7.254 3.175,6.060 3.168 L 3.890 3.156 3.767 3.236 " fill="#1A1C1F" stroke="none" fill-rule="evenodd"></path></svg>