<svg width="20" height="20" viewBox="0 0 20 20" fill="none" xmlns="http://www.w3.org/2000/svg"><path d="M8.617 4.096 C 8.473 4.161,5.326 7.256,3.926 8.710 C 3.067 9.601,2.980 9.728,3.007 10.047 C 3.040 10.447,2.949 10.347,6.482 13.892 C 8.678 16.096,8.540 15.983,9.022 15.981 C 9.336 15.980,9.592 15.857,9.772 15.618 C 9.924 15.417,10.019 15.098,9.987 14.893 C 9.934 14.552,9.883 14.492,8.113 12.703 L 6.427 11.000 11.338 11.000 L 16.250 10.999 16.417 10.903 C 16.784 10.691,16.984 10.388,16.980 10.050 C 16.976 9.730,16.893 9.506,16.713 9.326 C 16.449 9.062,16.454 9.063,15.304 9.031 C 14.742 9.016,12.515 9.002,10.354 9.001 L 6.425 9.000 7.971 7.441 C 9.820 5.577,9.912 5.474,9.970 5.216 C 10.051 4.853,9.901 4.467,9.587 4.230 C 9.499 4.163,9.370 4.092,9.301 4.071 C 9.109 4.013,8.771 4.025,8.617 4.096 " fill="#1A1C1F" stroke="none" fill-rule="evenodd"></path></svg>