<svg width="14" height="14" viewBox="0 0 14 14" fill="none" xmlns="http://www.w3.org/2000/svg"><path d="M4.058 1.422 C 3.906 1.451,3.755 1.564,3.327 1.972 C 2.947 2.333,1.814 3.484,1.605 3.722 C 1.459 3.887,1.413 4.003,1.413 4.200 C 1.413 4.343,1.424 4.396,1.474 4.492 C 1.544 4.626,2.269 5.395,3.048 6.161 C 3.602 6.706,3.815 6.894,3.943 6.949 C 4.067 7.002,4.351 6.996,4.480 6.937 C 4.727 6.826,4.889 6.567,4.887 6.288 C 4.884 6.023,4.840 5.961,4.155 5.268 L 3.792 4.900 5.829 4.900 C 7.849 4.900,7.866 4.900,7.961 4.851 C 8.101 4.780,8.284 4.600,8.336 4.483 C 8.388 4.366,8.397 4.127,8.356 3.975 C 8.324 3.858,8.155 3.662,8.013 3.580 L 7.912 3.520 5.895 3.504 C 4.785 3.496,3.870 3.481,3.860 3.472 C 3.851 3.462,4.057 3.237,4.317 2.970 C 4.616 2.664,4.806 2.450,4.832 2.392 C 5.001 2.010,4.791 1.545,4.405 1.447 C 4.277 1.415,4.146 1.405,4.058 1.422 M9.508 7.071 C 9.355 7.146,9.247 7.249,9.180 7.386 C 9.128 7.493,9.117 7.546,9.117 7.699 C 9.117 7.978,9.150 8.028,9.691 8.579 C 9.947 8.840,10.149 9.062,10.140 9.071 C 10.130 9.081,9.244 9.095,8.171 9.104 C 7.097 9.113,6.175 9.126,6.122 9.134 C 6.005 9.152,5.833 9.270,5.740 9.397 C 5.652 9.516,5.591 9.746,5.612 9.877 C 5.640 10.044,5.717 10.190,5.836 10.302 C 6.049 10.501,5.870 10.486,8.162 10.496 L 10.198 10.504 9.725 10.987 C 9.160 11.564,9.114 11.633,9.114 11.911 C 9.114 12.128,9.159 12.239,9.310 12.390 C 9.459 12.539,9.572 12.585,9.788 12.585 C 10.021 12.584,10.093 12.554,10.315 12.365 C 10.814 11.939,12.427 10.281,12.526 10.092 C 12.576 9.996,12.587 9.944,12.587 9.800 C 12.587 9.656,12.576 9.604,12.526 9.508 C 12.454 9.370,11.711 8.584,10.928 7.817 C 10.362 7.262,10.182 7.108,10.039 7.057 C 9.905 7.009,9.621 7.016,9.508 7.071 " fill="#1A1C1F" stroke="none" fill-rule="evenodd"></path></svg>