<svg width="20" height="20" viewBox="0 0 20 20" fill="none" xmlns="http://www.w3.org/2000/svg"><path d="M9.567 3.113 C 9.402 3.202,9.221 3.378,9.087 3.580 L 9.000 3.709 9.000 8.641 L 9.000 13.573 7.350 11.941 C 6.443 11.043,5.617 10.251,5.516 10.181 C 5.346 10.064,5.310 10.054,5.053 10.040 C 4.808 10.027,4.751 10.035,4.595 10.107 C 4.244 10.269,4.095 10.470,4.030 10.870 C 3.981 11.178,4.031 11.343,4.258 11.622 C 4.490 11.906,6.540 13.973,8.200 15.596 C 9.516 16.883,9.599 16.950,9.929 16.989 C 10.219 17.023,10.328 16.966,10.790 16.540 C 11.397 15.981,14.275 13.124,15.157 12.204 C 15.569 11.775,15.919 11.387,15.937 11.340 C 15.988 11.207,15.978 10.850,15.918 10.670 C 15.844 10.449,15.640 10.224,15.409 10.112 C 15.169 9.994,14.864 9.987,14.622 10.094 C 14.438 10.176,14.202 10.398,12.308 12.282 L 11.000 13.583 10.999 8.950 C 10.998 6.402,10.984 4.163,10.967 3.976 C 10.931 3.581,10.893 3.492,10.676 3.300 C 10.434 3.087,10.353 3.055,10.017 3.043 C 9.750 3.034,9.700 3.042,9.567 3.113 " fill="#1A1C1F" stroke="none" fill-rule="evenodd"></path></svg>