<svg width="28" height="28" viewBox="0 0 28 28" fill="none" xmlns="http://www.w3.org/2000/svg"><path d="M14.490 6.235 C 14.271 6.355,14.180 6.449,14.088 6.650 C 13.988 6.867,13.981 6.998,14.052 7.257 C 14.096 7.416,14.520 7.861,16.925 10.272 L 19.747 13.101 12.767 13.121 L 5.787 13.141 5.619 13.302 C 5.153 13.751,5.163 14.298,5.645 14.711 L 5.833 14.872 12.635 14.901 C 16.376 14.917,19.486 14.944,19.546 14.962 C 19.643 14.990,19.376 15.272,16.972 17.681 C 15.481 19.175,14.225 20.473,14.145 20.601 C 13.976 20.870,13.961 21.073,14.089 21.355 C 14.192 21.582,14.413 21.761,14.688 21.843 C 15.021 21.941,15.183 21.860,15.783 21.294 C 16.634 20.491,19.531 17.603,21.190 15.903 L 22.727 14.330 22.727 13.997 L 22.727 13.665 21.519 12.421 C 20.002 10.859,15.733 6.617,15.430 6.371 C 15.229 6.208,15.170 6.185,14.917 6.173 C 14.716 6.163,14.588 6.182,14.490 6.235 " fill="#1A1C1F" stroke="none" fill-rule="evenodd"></path></svg>