<svg width="24" height="24" viewBox="0 0 24 24" fill="none" xmlns="http://www.w3.org/2000/svg"><path d="M11.254 4.387 C 10.624 4.942,5.355 10.237,5.187 10.485 C 5.016 10.737,4.971 10.943,5.035 11.181 C 5.185 11.740,5.759 12.100,6.271 11.957 C 6.486 11.897,6.744 11.653,9.450 8.962 L 11.000 7.420 11.000 13.340 L 11.001 19.260 11.117 19.463 C 11.543 20.205,12.531 20.155,12.934 19.372 C 12.994 19.255,13.000 18.745,13.000 13.332 L 13.000 7.420 14.510 8.924 C 16.351 10.757,17.421 11.789,17.579 11.885 C 18.042 12.167,18.770 11.841,18.937 11.278 C 19.069 10.832,19.028 10.725,18.485 10.120 C 18.006 9.585,15.605 7.171,13.967 5.576 C 12.338 3.990,12.407 4.041,11.914 4.040 L 11.648 4.040 11.254 4.387 " fill="#1A1C1F" stroke="none" fill-rule="evenodd"></path></svg>