<svg width="16" height="16" viewBox="0 0 16 16" fill="none" xmlns="http://www.w3.org/2000/svg"><path d="M5.837 3.226 C 5.627 3.265,5.364 3.475,5.270 3.680 C 5.190 3.851,5.194 4.156,5.277 4.316 C 5.353 4.462,5.646 4.768,7.424 6.552 L 8.864 7.997 7.211 9.659 C 6.302 10.573,5.490 11.403,5.408 11.503 C 5.111 11.863,5.132 12.228,5.469 12.565 C 5.616 12.711,5.716 12.762,5.910 12.788 C 6.108 12.814,6.240 12.765,6.473 12.579 C 6.939 12.206,10.618 8.492,10.721 8.292 C 10.792 8.152,10.814 7.963,10.775 7.819 C 10.731 7.655,10.564 7.472,9.280 6.176 C 7.627 4.509,6.414 3.336,6.282 3.280 C 6.151 3.223,5.968 3.201,5.837 3.226 " fill="#1A1C1F" stroke="none" fill-rule="evenodd"></path></svg>