<svg width="32" height="32" viewBox="0 0 32 32" fill="none" xmlns="http://www.w3.org/2000/svg"><path d="M19.585 7.117 C 19.330 7.233,11.250 15.330,11.120 15.600 C 10.966 15.920,10.983 16.204,11.172 16.485 C 11.368 16.774,18.689 24.112,19.273 24.604 C 19.827 25.070,20.071 25.118,20.478 24.842 C 20.773 24.641,20.969 24.356,21.000 24.084 C 21.023 23.881,21.003 23.803,20.886 23.626 C 20.688 23.327,19.729 22.338,16.350 18.947 L 13.414 16.000 16.376 13.027 C 20.874 8.511,21.013 8.361,21.013 8.028 C 21.013 7.775,20.751 7.299,20.546 7.182 C 20.313 7.049,19.811 7.014,19.585 7.117 " fill="#1A1C1F" stroke="none" fill-rule="evenodd"></path></svg>