<svg width="24" height="24" viewBox="0 0 24 24" fill="none" xmlns="http://www.w3.org/2000/svg"><path d="M17.792 8.038 C 17.710 8.054,17.573 8.116,17.486 8.176 C 17.400 8.235,16.129 9.474,14.662 10.929 L 11.994 13.573 9.987 11.574 C 7.128 8.727,6.513 8.137,6.339 8.080 C 6.258 8.053,6.064 8.038,5.900 8.046 C 5.648 8.059,5.582 8.079,5.433 8.186 C 5.183 8.365,5.020 8.697,5.021 9.022 C 5.022 9.322,5.022 9.323,6.043 10.399 C 6.988 11.394,11.079 15.494,11.376 15.742 L 11.612 15.940 12.000 15.940 L 12.388 15.940 12.664 15.702 C 13.030 15.387,16.551 11.859,17.837 10.519 C 18.940 9.370,19.028 9.248,18.985 8.930 C 18.900 8.312,18.378 7.922,17.792 8.038 " fill="#1A1C1F" stroke="none" fill-rule="evenodd"></path></svg>