<svg width="14" height="14" viewBox="0 0 14 14" fill="none" xmlns="http://www.w3.org/2000/svg"><path d="M5.108 2.822 C 5.061 2.831,4.977 2.865,4.921 2.899 C 4.632 3.070,4.507 3.334,4.572 3.644 C 4.593 3.746,4.627 3.807,4.731 3.934 C 4.804 4.023,5.515 4.749,6.310 5.549 L 7.756 7.002 6.496 8.267 C 4.956 9.812,4.683 10.096,4.623 10.214 C 4.420 10.612,4.710 11.130,5.169 11.189 C 5.334 11.211,5.447 11.172,5.635 11.031 C 5.979 10.773,9.288 7.437,9.381 7.256 C 9.443 7.133,9.462 6.968,9.428 6.843 C 9.389 6.696,9.260 6.554,8.155 5.440 C 6.711 3.982,5.611 2.918,5.496 2.869 C 5.382 2.820,5.221 2.801,5.108 2.822 " fill="#1A1C1F" stroke="none" fill-rule="evenodd"></path></svg>