<svg width="20" height="20" viewBox="0 0 20 20" fill="none" xmlns="http://www.w3.org/2000/svg"><path d="M9.653 6.585 C 9.480 6.675,9.143 6.990,7.754 8.367 C 5.923 10.181,4.224 11.931,4.116 12.114 C 3.932 12.429,3.991 12.829,4.269 13.145 C 4.465 13.367,4.723 13.484,5.017 13.482 C 5.434 13.481,5.273 13.621,8.392 10.518 L 10.000 8.917 11.625 10.534 C 14.008 12.906,14.432 13.315,14.600 13.402 C 14.802 13.506,15.150 13.510,15.373 13.409 C 15.831 13.203,16.083 12.704,15.954 12.258 C 15.905 12.091,15.849 12.020,15.362 11.512 C 14.497 10.610,11.808 7.915,11.100 7.242 C 10.742 6.901,10.402 6.603,10.343 6.578 C 10.195 6.517,9.776 6.520,9.653 6.585 " fill="#1A1C1F" stroke="none" fill-rule="evenodd"></path></svg>