<svg width="32" height="32" viewBox="0 0 32 32" fill="none" xmlns="http://www.w3.org/2000/svg"><path d="M11.538 7.139 C 11.291 7.256,11.072 7.574,11.012 7.905 C 10.984 8.054,11.004 8.162,11.091 8.343 C 11.175 8.516,12.227 9.609,14.893 12.295 L 18.579 16.008 15.620 18.977 C 11.154 23.459,10.987 23.640,10.987 23.983 C 10.987 24.376,11.293 24.778,11.714 24.939 C 12.074 25.076,12.246 25.013,12.774 24.552 C 13.410 23.995,20.466 16.948,20.737 16.598 C 21.028 16.222,21.060 16.031,20.893 15.670 C 20.784 15.434,20.185 14.804,17.269 11.867 C 15.347 9.931,13.474 8.064,13.105 7.718 L 12.435 7.090 12.098 7.063 C 11.833 7.041,11.712 7.058,11.538 7.139 " fill="#1A1C1F" stroke="none" fill-rule="evenodd"></path></svg>