<svg width="20" height="20" viewBox="0 0 20 20" fill="none" xmlns="http://www.w3.org/2000/svg"><path d="M7.082 4.117 C 6.991 4.163,6.886 4.227,6.849 4.259 C 6.626 4.450,6.477 4.821,6.511 5.103 C 6.552 5.454,6.493 5.388,9.466 8.375 L 11.083 10.000 9.265 11.825 C 7.071 14.026,6.691 14.422,6.604 14.593 C 6.367 15.058,6.588 15.652,7.096 15.914 C 7.242 15.990,7.669 15.997,7.834 15.926 C 8.107 15.810,13.254 10.676,13.425 10.350 C 13.500 10.209,13.498 9.784,13.423 9.643 C 13.349 9.504,12.736 8.867,10.819 6.939 C 8.992 5.101,7.994 4.141,7.843 4.078 C 7.784 4.054,7.625 4.033,7.491 4.033 C 7.296 4.033,7.213 4.050,7.082 4.117 " fill="#1A1C1F" stroke="none" fill-rule="evenodd"></path></svg>