<svg width="28" height="28" viewBox="0 0 28 28" fill="none" xmlns="http://www.w3.org/2000/svg"><path d="M10.096 6.247 C 9.880 6.349,9.688 6.627,9.635 6.917 C 9.611 7.047,9.629 7.142,9.705 7.300 C 9.778 7.451,10.698 8.408,13.031 10.758 L 16.256 14.007 13.667 16.605 C 9.760 20.527,9.613 20.685,9.613 20.985 C 9.613 21.329,9.881 21.681,10.249 21.821 C 10.575 21.946,10.715 21.890,11.232 21.430 C 11.861 20.870,17.908 14.829,18.145 14.523 C 18.400 14.195,18.428 14.028,18.282 13.711 C 18.186 13.504,17.662 12.954,15.110 10.383 C 13.429 8.689,11.789 7.056,11.467 6.754 L 10.881 6.204 10.585 6.180 C 10.354 6.161,10.248 6.176,10.096 6.247 " fill="#1A1C1F" stroke="none" fill-rule="evenodd"></path></svg>