<svg width="28" height="28" viewBox="0 0 28 28" fill="none" xmlns="http://www.w3.org/2000/svg"><path d="M13.650 9.723 C 13.483 9.799,8.937 14.289,7.396 15.899 C 6.797 16.525,6.266 17.123,6.204 17.239 C 6.100 17.434,6.097 17.464,6.152 17.673 C 6.246 18.024,6.546 18.294,6.919 18.364 C 7.274 18.431,7.389 18.327,11.352 14.377 L 14.000 11.737 16.602 14.330 C 19.560 17.278,20.409 18.101,20.674 18.276 C 20.828 18.378,20.896 18.395,21.073 18.375 C 21.530 18.323,21.971 17.751,21.869 17.343 C 21.854 17.283,21.681 17.046,21.485 16.818 C 21.090 16.357,14.899 10.164,14.543 9.873 C 14.350 9.714,14.281 9.687,14.054 9.674 C 13.897 9.665,13.733 9.685,13.650 9.723 " fill="#1A1C1F" stroke="none" fill-rule="evenodd"></path></svg>