<svg width="32" height="32" viewBox="0 0 32 32" fill="none" xmlns="http://www.w3.org/2000/svg"><path d="M15.667 11.075 C 15.560 11.094,14.619 11.995,12.205 14.390 C 7.625 18.935,6.984 19.626,6.988 20.011 C 6.990 20.214,7.172 20.551,7.377 20.731 C 7.644 20.965,7.914 21.041,8.204 20.962 C 8.485 20.887,8.837 20.552,12.973 16.430 L 16.000 13.414 19.027 16.429 C 23.493 20.879,23.638 21.013,23.972 21.013 C 24.065 21.013,24.271 20.947,24.430 20.867 C 24.757 20.701,24.933 20.449,24.992 20.063 C 25.023 19.857,25.006 19.804,24.829 19.547 C 24.625 19.250,18.286 12.825,17.107 11.720 L 16.438 11.093 16.126 11.071 C 15.954 11.060,15.747 11.061,15.667 11.075 " fill="#1A1C1F" stroke="none" fill-rule="evenodd"></path></svg>