<svg width="12" height="12" viewBox="0 0 12 12" fill="none" xmlns="http://www.w3.org/2000/svg"><path d="M5.907 3.921 C 5.861 3.927,5.789 3.955,5.746 3.984 C 5.614 4.071,5.074 4.592,4.078 5.593 C 2.922 6.755,2.533 7.161,2.467 7.273 C 2.319 7.527,2.455 7.886,2.756 8.034 C 2.909 8.109,3.106 8.112,3.240 8.042 C 3.340 7.989,3.637 7.703,5.035 6.311 L 6.000 5.350 6.975 6.321 C 8.510 7.848,8.662 7.994,8.772 8.044 C 8.902 8.103,9.093 8.104,9.224 8.045 C 9.584 7.884,9.709 7.456,9.475 7.183 C 9.134 6.785,6.363 4.034,6.237 3.968 C 6.155 3.925,6.018 3.905,5.907 3.921 " fill="#1A1C1F" stroke="none" fill-rule="evenodd"></path></svg>