<svg width="16" height="16" viewBox="0 0 16 16" fill="none" xmlns="http://www.w3.org/2000/svg"><path d="M7.692 5.290 C 7.586 5.339,7.286 5.622,6.241 6.656 C 4.690 8.192,3.381 9.541,3.289 9.699 C 3.092 10.035,3.274 10.515,3.674 10.712 C 3.798 10.773,3.862 10.787,4.013 10.786 C 4.347 10.784,4.219 10.897,6.713 8.414 L 8.000 7.134 9.300 8.428 C 11.346 10.464,11.549 10.659,11.696 10.726 C 11.982 10.856,12.344 10.776,12.571 10.533 C 12.773 10.317,12.839 10.068,12.763 9.807 C 12.725 9.675,12.678 9.616,12.316 9.237 C 10.965 7.822,8.467 5.371,8.287 5.284 C 8.122 5.204,7.872 5.206,7.692 5.290 " fill="#1A1C1F" stroke="none" fill-rule="evenodd"></path></svg>