<svg width="14" height="14" viewBox="0 0 14 14" fill="none" xmlns="http://www.w3.org/2000/svg"><path d="M6.895 4.574 C 6.844 4.582,6.768 4.606,6.727 4.627 C 6.614 4.687,5.938 5.339,4.770 6.514 C 3.357 7.936,2.955 8.354,2.882 8.479 C 2.752 8.700,2.793 8.980,2.988 9.201 C 3.125 9.357,3.306 9.439,3.512 9.438 C 3.804 9.436,3.691 9.535,5.874 7.362 L 7.000 6.242 8.126 7.362 C 9.927 9.155,10.106 9.326,10.234 9.385 C 10.484 9.499,10.801 9.429,11.000 9.217 C 11.178 9.026,11.234 8.810,11.167 8.578 C 11.131 8.454,11.096 8.413,10.646 7.950 C 9.243 6.509,7.403 4.696,7.275 4.628 C 7.181 4.579,7.020 4.556,6.895 4.574 " fill="#1A1C1F" stroke="none" fill-rule="evenodd"></path></svg>