<svg width="28" height="28" viewBox="0 0 28 28" fill="none" xmlns="http://www.w3.org/2000/svg"><path d="M6.717 9.702 C 6.377 9.812,6.144 10.128,6.144 10.480 C 6.144 10.758,6.263 10.922,7.113 11.820 C 8.086 12.848,13.065 17.795,13.430 18.097 C 13.932 18.511,14.082 18.494,14.702 17.957 C 15.311 17.430,21.553 11.178,21.725 10.924 C 21.902 10.661,21.908 10.377,21.743 10.080 C 21.590 9.802,21.394 9.697,20.983 9.671 L 20.650 9.650 17.325 12.949 L 14.000 16.249 10.960 13.233 C 9.288 11.574,7.785 10.098,7.621 9.953 C 7.349 9.715,7.299 9.689,7.079 9.677 C 6.946 9.669,6.783 9.681,6.717 9.702 " fill="#1A1C1F" stroke="none" fill-rule="evenodd"></path></svg>