<svg width="28" height="28" viewBox="0 0 28 28" fill="none" xmlns="http://www.w3.org/2000/svg"><path d="M17.136 6.228 C 16.913 6.329,9.844 13.413,9.730 13.650 C 9.595 13.930,9.610 14.178,9.776 14.424 C 9.947 14.678,16.354 21.098,16.867 21.531 C 17.071 21.702,17.286 21.855,17.346 21.870 C 17.751 21.971,18.323 21.528,18.375 21.073 C 18.395 20.896,18.378 20.828,18.276 20.674 C 18.101 20.409,17.278 19.560,14.333 16.605 L 11.743 14.006 14.862 10.865 C 16.578 9.137,18.067 7.609,18.172 7.470 C 18.335 7.255,18.363 7.185,18.360 6.999 C 18.356 6.726,18.163 6.378,17.957 6.272 C 17.750 6.165,17.325 6.142,17.136 6.228 " fill="#1A1C1F" stroke="none" fill-rule="evenodd"></path></svg>