<svg width="20" height="20" viewBox="0 0 20 20" fill="none" xmlns="http://www.w3.org/2000/svg"><path d="M12.133 4.092 C 11.890 4.210,6.782 9.298,6.606 9.598 C 6.530 9.727,6.517 9.788,6.517 10.000 C 6.518 10.179,6.536 10.288,6.583 10.383 C 6.706 10.638,11.855 15.756,12.135 15.903 C 12.338 16.009,12.652 16.011,12.883 15.906 C 13.382 15.680,13.619 15.097,13.406 14.620 C 13.324 14.436,13.090 14.192,10.518 11.608 L 8.917 10.000 10.719 8.192 C 12.925 5.977,13.310 5.577,13.397 5.406 C 13.501 5.201,13.520 4.944,13.448 4.712 C 13.364 4.443,13.088 4.162,12.833 4.086 C 12.599 4.017,12.282 4.019,12.133 4.092 " fill="#1A1C1F" stroke="none" fill-rule="evenodd"></path></svg>