<svg width="14" height="14" viewBox="0 0 14 14" fill="none" xmlns="http://www.w3.org/2000/svg"><path d="M3.363 4.577 C 3.171 4.612,2.932 4.802,2.858 4.978 C 2.754 5.230,2.802 5.450,3.017 5.699 C 3.222 5.938,5.558 8.288,6.170 8.872 C 6.451 9.140,6.713 9.376,6.751 9.395 C 6.856 9.450,7.182 9.450,7.266 9.396 C 7.477 9.257,11.063 5.656,11.147 5.499 C 11.194 5.409,11.198 5.140,11.154 5.006 C 11.116 4.893,10.941 4.702,10.817 4.638 C 10.683 4.570,10.375 4.553,10.260 4.607 C 10.103 4.682,9.816 4.952,8.407 6.355 L 7.002 7.753 5.469 6.233 C 4.116 4.891,3.920 4.705,3.794 4.645 C 3.634 4.569,3.513 4.550,3.363 4.577 " fill="#1A1C1F" stroke="none" fill-rule="evenodd"></path></svg>