<svg width="12" height="12" viewBox="0 0 12 12" fill="none" xmlns="http://www.w3.org/2000/svg"><path d="M2.744 3.972 C 2.461 4.113,2.334 4.429,2.450 4.707 C 2.486 4.793,3.236 5.571,4.363 6.692 C 5.328 7.651,5.703 8.010,5.789 8.055 C 5.879 8.101,6.155 8.101,6.227 8.054 C 6.406 7.936,9.485 4.845,9.554 4.713 C 9.598 4.629,9.597 4.420,9.553 4.287 C 9.528 4.215,9.489 4.156,9.422 4.094 C 9.283 3.964,9.215 3.934,9.029 3.924 C 8.833 3.914,8.771 3.940,8.555 4.125 C 8.475 4.193,7.868 4.789,7.205 5.448 L 6.000 6.646 4.775 5.428 C 4.101 4.758,3.485 4.154,3.406 4.086 C 3.245 3.948,3.173 3.920,2.979 3.920 C 2.878 3.920,2.824 3.932,2.744 3.972 " fill="#1A1C1F" stroke="none" fill-rule="evenodd"></path></svg>