<svg width="24" height="24" viewBox="0 0 24 24" fill="none" xmlns="http://www.w3.org/2000/svg"><path d="M8.640 5.069 C 8.607 5.081,8.502 5.147,8.406 5.216 C 8.034 5.480,7.903 6.060,8.128 6.442 C 8.186 6.541,9.426 7.824,10.900 9.310 L 13.568 12.000 10.885 14.704 C 7.928 17.684,7.968 17.637,8.011 18.056 C 8.049 18.421,8.299 18.784,8.600 18.911 C 8.781 18.987,9.189 18.990,9.329 18.917 C 9.471 18.841,10.254 18.095,12.496 15.900 C 14.451 13.985,15.795 12.602,15.907 12.389 C 15.998 12.215,15.998 11.785,15.906 11.610 C 15.799 11.405,14.408 9.972,12.516 8.118 C 9.909 5.562,9.444 5.125,9.281 5.079 C 9.131 5.038,8.739 5.031,8.640 5.069 " fill="#1A1C1F" stroke="none" fill-rule="evenodd"></path></svg>