<svg width="14" height="14" viewBox="0 0 14 14" fill="none" xmlns="http://www.w3.org/2000/svg"><path d="M8.484 2.873 C 8.298 2.972,4.752 6.500,4.630 6.708 C 4.540 6.862,4.534 7.096,4.615 7.251 C 4.712 7.434,7.928 10.680,8.336 11.007 C 8.540 11.170,8.655 11.212,8.829 11.189 C 9.001 11.166,9.089 11.121,9.218 10.989 C 9.393 10.809,9.437 10.710,9.437 10.500 C 9.437 10.194,9.525 10.295,7.491 8.254 L 6.242 7.000 7.492 5.746 C 9.014 4.218,9.318 3.901,9.384 3.774 C 9.457 3.633,9.456 3.392,9.382 3.225 C 9.314 3.074,9.140 2.911,8.991 2.860 C 8.835 2.807,8.598 2.813,8.484 2.873 " fill="#1A1C1F" stroke="none" fill-rule="evenodd"></path></svg>