<svg width="20" height="20" viewBox="0 0 20 20" fill="none" xmlns="http://www.w3.org/2000/svg"><path d="M4.610 6.598 C 4.421 6.684,4.184 6.908,4.104 7.078 C 3.928 7.447,3.990 7.771,4.307 8.139 C 4.601 8.480,8.018 11.918,8.848 12.708 C 9.232 13.073,9.592 13.395,9.648 13.424 C 9.799 13.502,10.259 13.501,10.379 13.423 C 10.542 13.316,12.821 11.069,14.385 9.473 C 15.791 8.039,15.902 7.917,15.949 7.759 C 16.014 7.540,16.013 7.415,15.944 7.202 C 15.878 6.997,15.684 6.766,15.475 6.643 C 15.258 6.516,14.843 6.493,14.640 6.597 C 14.397 6.721,14.064 7.035,12.009 9.079 L 10.001 11.077 7.959 9.047 C 6.836 7.930,5.809 6.923,5.676 6.810 C 5.540 6.693,5.381 6.589,5.310 6.569 C 5.106 6.512,4.768 6.527,4.610 6.598 " fill="#1A1C1F" stroke="none" fill-rule="evenodd"></path></svg>