<svg width="16" height="16" viewBox="0 0 16 16" fill="none" xmlns="http://www.w3.org/2000/svg"><path d="M3.667 5.292 C 3.433 5.405,3.311 5.550,3.240 5.796 C 3.188 5.975,3.202 6.141,3.283 6.298 C 3.348 6.426,4.324 7.437,5.791 8.896 C 7.102 10.200,7.604 10.680,7.719 10.740 C 7.839 10.802,8.207 10.801,8.303 10.738 C 8.544 10.580,12.644 6.463,12.740 6.283 C 12.793 6.182,12.798 5.874,12.747 5.721 C 12.704 5.592,12.504 5.373,12.362 5.301 C 12.292 5.265,12.182 5.242,12.040 5.233 C 11.779 5.217,11.697 5.251,11.407 5.500 C 11.300 5.591,10.491 6.384,9.607 7.263 L 8.002 8.860 6.252 7.124 C 4.288 5.176,4.348 5.226,3.989 5.227 C 3.844 5.227,3.769 5.242,3.667 5.292 " fill="#1A1C1F" stroke="none" fill-rule="evenodd"></path></svg>