<svg width="12" height="12" viewBox="0 0 12 12" fill="none" xmlns="http://www.w3.org/2000/svg"><path d="M7.272 2.463 C 7.113 2.547,4.073 5.572,3.968 5.750 C 3.892 5.882,3.886 6.083,3.956 6.215 C 4.039 6.372,6.794 9.153,7.145 9.434 C 7.320 9.574,7.419 9.611,7.568 9.591 C 7.713 9.572,7.788 9.534,7.898 9.424 C 8.151 9.171,8.167 8.897,7.944 8.627 C 7.882 8.552,7.274 7.930,6.592 7.244 L 5.352 5.998 6.432 4.914 C 8.162 3.178,8.087 3.264,8.088 3.000 C 8.089 2.754,7.981 2.587,7.750 2.477 C 7.597 2.404,7.394 2.398,7.272 2.463 " fill="#1A1C1F" stroke="none" fill-rule="evenodd"></path></svg>