<svg width="12" height="12" viewBox="0 0 12 12" fill="none" xmlns="http://www.w3.org/2000/svg"><path d="M4.324 2.437 C 3.927 2.578,3.780 3.018,4.024 3.336 C 4.071 3.398,4.681 4.023,5.379 4.725 L 6.648 6.002 5.558 7.096 C 3.838 8.823,3.912 8.736,3.912 9.000 C 3.913 9.191,3.964 9.303,4.114 9.440 C 4.287 9.598,4.499 9.639,4.685 9.551 C 4.812 9.491,5.047 9.275,5.817 8.511 C 6.934 7.405,7.993 6.312,8.041 6.219 C 8.144 6.016,8.112 5.842,7.934 5.634 C 7.568 5.208,4.859 2.531,4.725 2.463 C 4.604 2.401,4.452 2.391,4.324 2.437 " fill="#1A1C1F" stroke="none" fill-rule="evenodd"></path></svg>