<svg width="32" height="32" viewBox="0 0 32 32" fill="none" xmlns="http://www.w3.org/2000/svg"><path d="M7.677 11.091 C 7.284 11.210,7.019 11.577,7.019 12.004 C 7.019 12.320,7.075 12.394,8.140 13.520 C 9.243 14.686,14.933 20.339,15.349 20.682 C 15.922 21.155,16.094 21.136,16.802 20.522 C 17.441 19.969,24.439 12.978,24.738 12.595 C 24.938 12.339,24.960 12.281,24.960 12.013 C 24.960 11.652,24.776 11.299,24.518 11.165 C 24.424 11.116,24.179 11.065,23.973 11.052 L 23.600 11.028 19.800 14.799 L 16.000 18.570 12.360 14.957 C 10.358 12.969,8.613 11.275,8.483 11.191 C 8.239 11.036,7.969 11.002,7.677 11.091 " fill="#1A1C1F" stroke="none" fill-rule="evenodd"></path></svg>