<svg width="24" height="24" viewBox="0 0 24 24" fill="none" xmlns="http://www.w3.org/2000/svg"><path d="M14.660 5.096 C 14.469 5.181,14.149 5.485,11.685 7.920 C 9.293 10.284,8.315 11.288,8.127 11.572 C 8.037 11.709,8.020 11.776,8.022 12.005 C 8.024 12.252,8.038 12.297,8.180 12.508 C 8.426 12.875,13.845 18.253,14.551 18.831 C 14.721 18.970,14.750 18.980,14.996 18.978 C 15.184 18.977,15.306 18.952,15.421 18.892 C 15.880 18.651,16.105 18.129,15.939 17.690 C 15.856 17.471,15.559 17.162,12.402 13.990 L 10.420 12.000 12.302 10.110 C 15.010 7.389,15.820 6.554,15.901 6.398 C 15.987 6.232,15.998 5.883,15.923 5.665 C 15.854 5.461,15.620 5.206,15.420 5.115 C 15.230 5.028,14.835 5.019,14.660 5.096 " fill="#1A1C1F" stroke="none" fill-rule="evenodd"></path></svg>