<svg width="16" height="16" viewBox="0 0 16 16" fill="none" xmlns="http://www.w3.org/2000/svg"><path d="M9.695 3.283 C 9.474 3.403,5.432 7.427,5.291 7.667 C 5.189 7.842,5.182 8.110,5.275 8.287 C 5.385 8.496,9.060 12.205,9.527 12.579 C 9.760 12.765,9.892 12.814,10.090 12.788 C 10.284 12.762,10.384 12.711,10.531 12.565 C 10.728 12.368,10.785 12.241,10.785 12.000 C 10.785 11.651,10.885 11.766,8.563 9.435 L 7.137 8.004 8.883 6.244 C 10.134 4.983,10.650 4.445,10.703 4.348 C 10.906 3.976,10.754 3.514,10.363 3.314 C 10.171 3.215,9.847 3.200,9.695 3.283 " fill="#1A1C1F" stroke="none" fill-rule="evenodd"></path></svg>