<svg width="32" height="32" viewBox="0 0 32 32" fill="none" xmlns="http://www.w3.org/2000/svg"><path d="M11.371 2.034 C 11.113 2.108,10.805 2.442,10.723 2.737 C 10.561 3.314,10.818 3.640,12.021 4.381 C 12.405 4.618,12.896 4.920,13.111 5.052 C 13.326 5.185,13.482 5.313,13.457 5.338 C 13.432 5.363,13.052 5.505,12.612 5.655 C 10.116 6.505,8.172 7.962,6.821 9.994 C 4.970 12.780,4.527 16.218,5.599 19.472 C 6.150 21.146,7.031 22.557,8.346 23.870 C 8.945 24.469,9.575 24.941,9.843 24.991 C 10.368 25.089,10.982 24.563,10.985 24.011 C 10.988 23.710,10.806 23.465,10.002 22.678 C 9.071 21.767,8.504 21.028,8.033 20.107 C 7.220 18.519,6.983 17.253,7.100 15.128 C 7.162 14.005,7.432 13.107,8.087 11.844 C 8.565 10.922,8.815 10.590,9.676 9.731 C 10.623 8.786,11.266 8.357,12.596 7.780 C 13.006 7.602,13.939 7.307,14.093 7.307 C 14.190 7.306,14.095 7.497,13.496 8.504 C 12.511 10.160,12.422 10.416,12.685 10.841 C 12.981 11.318,13.513 11.489,13.986 11.260 C 14.266 11.125,14.474 10.821,15.690 8.773 C 17.143 6.325,17.369 5.882,17.305 5.591 C 17.222 5.216,16.913 4.994,14.187 3.358 C 11.788 1.918,11.782 1.915,11.371 2.034 M21.571 7.115 C 21.264 7.248,21.015 7.666,21.014 8.045 C 21.013 8.291,21.194 8.541,21.753 9.071 C 23.195 10.437,24.005 11.631,24.502 13.125 C 24.869 14.225,24.919 14.620,24.893 16.213 C 24.871 17.536,24.860 17.660,24.728 18.148 C 24.017 20.767,22.278 22.879,19.893 24.021 C 19.315 24.297,18.149 24.693,17.913 24.693 C 17.805 24.693,17.805 24.693,17.908 24.520 C 19.225 22.312,19.494 21.789,19.450 21.518 C 19.411 21.275,19.129 20.875,18.917 20.763 C 18.701 20.648,18.216 20.647,17.994 20.762 C 17.797 20.864,17.419 21.404,16.585 22.773 C 15.615 24.366,14.834 25.753,14.740 26.051 C 14.585 26.544,14.734 26.723,15.976 27.534 C 17.228 28.351,19.789 29.862,20.076 29.953 C 20.473 30.077,20.712 30.022,20.991 29.742 C 21.403 29.326,21.423 28.704,21.034 28.337 C 20.933 28.243,20.642 28.037,20.386 27.880 C 20.130 27.723,19.590 27.393,19.187 27.146 C 18.783 26.899,18.453 26.683,18.453 26.665 C 18.453 26.648,18.695 26.567,18.990 26.484 C 20.475 26.071,21.951 25.292,23.130 24.302 C 26.135 21.778,27.558 17.688,26.768 13.849 C 26.407 12.095,25.514 10.250,24.362 8.880 C 23.750 8.151,22.889 7.369,22.457 7.148 C 22.212 7.023,21.815 7.008,21.571 7.115 " fill="#1A1C1F" stroke="none" fill-rule="evenodd"></path></svg>