<svg width="24" height="24" viewBox="0 0 24 24" fill="none" xmlns="http://www.w3.org/2000/svg"><path d="M8.500 2.037 C 8.210 2.108,7.999 2.289,7.837 2.605 C 7.731 2.814,7.702 3.064,7.759 3.280 C 7.827 3.537,8.185 3.870,8.818 4.266 C 9.103 4.444,9.342 4.607,9.349 4.628 C 9.356 4.649,9.126 4.752,8.838 4.858 C 7.929 5.190,7.226 5.592,6.530 6.176 C 5.152 7.333,4.255 9.035,4.042 10.900 C 3.846 12.608,4.363 14.696,5.347 16.170 C 5.825 16.886,6.810 17.877,7.130 17.963 C 7.503 18.063,7.970 17.876,8.177 17.544 C 8.273 17.390,8.297 17.301,8.311 17.045 C 8.335 16.642,8.304 16.580,7.796 16.000 C 7.252 15.380,7.072 15.143,6.816 14.710 C 6.549 14.259,6.313 13.662,6.177 13.099 C 6.077 12.685,6.075 12.642,6.089 11.586 L 6.104 10.500 6.256 10.060 C 6.843 8.356,7.903 7.302,9.640 6.694 C 9.870 6.614,10.026 6.578,10.034 6.603 C 10.042 6.626,9.887 6.928,9.689 7.273 C 9.216 8.099,9.163 8.208,9.135 8.415 C 9.089 8.744,9.323 9.208,9.623 9.384 C 10.008 9.609,10.543 9.521,10.816 9.187 C 11.103 8.837,12.464 6.580,12.950 5.651 C 13.187 5.197,13.203 5.150,13.178 4.982 C 13.141 4.737,12.969 4.480,12.713 4.287 C 12.212 3.908,9.199 2.147,8.905 2.059 C 8.688 1.995,8.677 1.994,8.500 2.037 M16.168 6.125 C 15.858 6.279,15.680 6.603,15.680 7.014 C 15.680 7.360,15.793 7.562,16.300 8.124 C 17.026 8.929,17.420 9.572,17.675 10.371 C 17.878 11.003,17.934 11.435,17.934 12.340 C 17.933 13.241,17.875 13.648,17.678 14.145 C 17.167 15.431,16.355 16.361,15.237 16.940 C 14.814 17.159,13.987 17.455,13.966 17.396 C 13.959 17.375,14.134 17.039,14.357 16.650 C 14.579 16.261,14.791 15.850,14.826 15.737 C 14.910 15.470,14.875 15.235,14.708 14.956 C 14.600 14.775,14.536 14.719,14.308 14.603 C 14.039 14.466,14.034 14.465,13.771 14.510 C 13.371 14.578,13.237 14.693,12.849 15.302 C 12.051 16.551,10.864 18.601,10.818 18.808 C 10.804 18.872,10.815 19.016,10.842 19.130 C 10.935 19.518,11.272 19.770,13.280 20.960 C 14.602 21.744,15.083 22.000,15.233 22.000 C 15.583 22.000,15.957 21.775,16.147 21.451 C 16.281 21.224,16.297 20.876,16.187 20.591 C 16.088 20.334,15.892 20.172,15.143 19.727 L 14.515 19.353 15.097 19.158 C 16.506 18.687,17.668 17.848,18.557 16.660 C 19.396 15.538,19.843 14.334,19.968 12.853 C 20.107 11.202,19.590 9.229,18.650 7.827 C 18.184 7.133,17.228 6.165,16.924 6.081 C 16.680 6.013,16.357 6.032,16.168 6.125 " fill="#1A1C1F" stroke="none" fill-rule="evenodd"></path></svg>