<svg width="14" height="14" viewBox="0 0 14 14" fill="none" xmlns="http://www.w3.org/2000/svg"><path d="M4.660 1.432 C 4.360 1.544,4.172 1.849,4.212 2.158 C 4.234 2.324,4.320 2.500,4.432 2.609 C 4.485 2.661,4.664 2.790,4.831 2.897 C 4.997 3.004,5.133 3.099,5.133 3.107 C 5.133 3.116,5.083 3.141,5.022 3.163 C 4.605 3.316,4.053 3.581,3.799 3.750 C 3.472 3.967,2.975 4.453,2.758 4.767 C 2.508 5.128,2.269 5.704,2.167 6.192 C 2.100 6.511,2.094 7.309,2.157 7.665 C 2.315 8.560,2.731 9.335,3.430 10.034 C 3.773 10.377,3.897 10.455,4.131 10.471 C 4.647 10.508,4.990 10.072,4.840 9.569 C 4.808 9.461,4.762 9.403,4.482 9.113 C 4.005 8.619,3.744 8.200,3.602 7.698 C 3.549 7.507,3.539 7.422,3.530 7.043 C 3.521 6.695,3.526 6.568,3.557 6.416 C 3.706 5.681,4.238 5.013,4.932 4.689 C 5.128 4.598,5.373 4.517,5.414 4.531 C 5.427 4.535,5.342 4.691,5.225 4.877 C 4.938 5.334,4.918 5.376,4.905 5.555 C 4.889 5.780,4.945 5.949,5.077 6.082 C 5.225 6.229,5.362 6.287,5.565 6.287 C 5.965 6.287,6.006 6.243,6.976 4.783 C 7.586 3.864,7.700 3.664,7.700 3.513 C 7.700 3.332,7.635 3.171,7.516 3.057 C 7.355 2.901,5.844 1.864,5.298 1.534 C 5.115 1.423,5.090 1.415,4.925 1.407 C 4.812 1.402,4.717 1.411,4.660 1.432 M9.532 3.555 C 9.284 3.672,9.146 3.874,9.128 4.148 C 9.111 4.405,9.148 4.477,9.478 4.826 C 9.631 4.988,9.825 5.211,9.908 5.320 C 10.097 5.567,10.314 6.005,10.400 6.312 C 10.462 6.535,10.465 6.566,10.464 7.058 L 10.463 7.572 10.389 7.793 C 10.167 8.455,9.724 8.983,9.148 9.274 C 8.950 9.375,8.563 9.507,8.563 9.475 C 8.563 9.466,8.658 9.307,8.775 9.124 C 9.093 8.621,9.109 8.584,9.108 8.377 C 9.106 8.106,9.046 7.994,8.803 7.814 C 8.683 7.724,8.681 7.723,8.465 7.724 C 8.210 7.724,8.070 7.776,7.929 7.925 C 7.774 8.088,6.611 9.794,6.405 10.162 C 6.321 10.311,6.313 10.340,6.313 10.500 C 6.313 10.701,6.367 10.839,6.492 10.960 C 6.639 11.101,8.538 12.399,8.786 12.527 C 9.090 12.685,9.448 12.607,9.673 12.332 C 9.780 12.201,9.800 12.136,9.800 11.918 C 9.800 11.593,9.700 11.464,9.176 11.111 C 8.949 10.958,8.874 10.897,8.896 10.880 C 8.912 10.867,9.004 10.827,9.100 10.791 C 9.646 10.588,10.037 10.386,10.352 10.146 C 11.401 9.348,11.951 8.192,11.892 6.909 C 11.863 6.265,11.732 5.741,11.458 5.166 C 11.254 4.740,11.000 4.384,10.625 4.001 C 10.170 3.535,9.851 3.405,9.532 3.555 " fill="#1A1C1F" stroke="none" fill-rule="evenodd"></path></svg>