<svg width="20" height="20" viewBox="0 0 20 20" fill="none" xmlns="http://www.w3.org/2000/svg"><path d="M6.717 2.029 C 6.539 2.076,6.412 2.160,6.254 2.336 C 5.990 2.630,5.933 3.013,6.099 3.389 C 6.201 3.621,6.359 3.768,6.867 4.108 C 7.114 4.274,7.323 4.415,7.331 4.421 C 7.358 4.445,7.304 4.470,6.920 4.616 C 5.191 5.272,3.968 6.393,3.389 7.851 C 2.672 9.657,2.964 11.804,4.159 13.500 C 4.443 13.903,5.288 14.757,5.502 14.857 C 5.585 14.896,5.745 14.945,5.857 14.968 C 6.035 15.003,6.087 15.000,6.252 14.948 C 6.521 14.863,6.737 14.681,6.860 14.436 C 7.008 14.139,7.021 14.007,6.930 13.722 C 6.858 13.496,6.831 13.460,6.434 13.050 C 5.823 12.420,5.560 12.048,5.315 11.468 C 5.084 10.920,5.051 10.730,5.050 9.950 C 5.050 9.363,5.060 9.212,5.114 9.017 C 5.345 8.172,5.940 7.358,6.652 6.915 C 6.928 6.742,7.440 6.520,7.647 6.481 L 7.778 6.457 7.700 6.587 C 7.657 6.658,7.521 6.874,7.399 7.067 C 7.067 7.587,7.025 7.683,7.007 7.954 C 6.986 8.280,7.058 8.485,7.269 8.702 C 7.479 8.918,7.609 8.970,7.946 8.974 C 8.246 8.977,8.393 8.931,8.597 8.769 C 8.721 8.670,9.596 7.410,10.476 6.061 C 10.960 5.319,11.025 5.167,10.989 4.860 C 10.940 4.451,10.732 4.275,8.683 2.919 C 7.309 2.010,7.336 2.025,7.056 2.013 C 6.924 2.007,6.772 2.015,6.717 2.029 M13.616 5.079 C 13.519 5.124,13.382 5.230,13.291 5.332 C 13.092 5.553,13.018 5.781,13.041 6.105 C 13.060 6.371,13.083 6.406,13.557 6.908 C 14.482 7.886,14.862 8.642,14.971 9.722 C 15.038 10.378,14.932 10.996,14.649 11.594 C 14.288 12.358,13.784 12.889,13.083 13.242 C 12.807 13.381,12.267 13.578,12.239 13.550 C 12.224 13.535,12.310 13.389,12.711 12.755 C 13.036 12.241,13.097 11.972,12.965 11.621 C 12.894 11.431,12.728 11.250,12.489 11.103 C 12.370 11.030,12.336 11.025,12.019 11.041 C 11.611 11.062,11.542 11.093,11.288 11.368 C 11.112 11.558,9.498 13.939,9.166 14.498 C 9.029 14.728,9.019 14.762,9.019 14.982 C 9.019 15.301,9.096 15.494,9.298 15.674 C 9.631 15.972,12.242 17.742,12.592 17.908 C 12.824 18.018,13.074 18.039,13.323 17.970 C 13.497 17.922,13.752 17.724,13.883 17.534 C 13.974 17.403,13.984 17.360,13.995 17.078 C 14.005 16.817,13.995 16.745,13.937 16.625 C 13.837 16.417,13.607 16.208,13.108 15.873 C 12.784 15.655,12.677 15.567,12.708 15.542 C 12.731 15.524,12.938 15.438,13.167 15.350 C 14.889 14.692,16.049 13.596,16.636 12.071 C 16.861 11.488,16.962 10.959,16.989 10.233 C 17.050 8.570,16.400 6.944,15.189 5.731 C 14.836 5.378,14.541 5.149,14.326 5.062 C 14.116 4.977,13.820 4.984,13.616 5.079 " fill="#1A1C1F" stroke="none" fill-rule="evenodd"></path></svg>