<svg width="28" height="28" viewBox="0 0 28 28" fill="none" xmlns="http://www.w3.org/2000/svg"><path d="M9.950 1.779 C 9.724 1.844,9.455 2.137,9.382 2.395 C 9.241 2.900,9.466 3.185,10.518 3.834 C 10.855 4.041,11.284 4.305,11.472 4.421 C 11.660 4.537,11.796 4.649,11.775 4.671 C 11.753 4.692,11.421 4.817,11.036 4.948 C 8.850 5.693,7.155 6.963,5.964 8.750 C 3.733 12.098,3.891 16.533,6.358 19.826 C 6.781 20.392,7.713 21.327,8.145 21.620 C 8.564 21.905,8.732 21.934,9.066 21.781 C 9.526 21.570,9.737 21.101,9.544 20.716 C 9.500 20.628,9.177 20.273,8.825 19.927 C 7.858 18.971,7.347 18.299,6.926 17.423 C 6.362 16.251,6.113 14.962,6.182 13.580 C 6.234 12.547,6.385 11.879,6.769 10.978 C 7.655 8.899,9.358 7.341,11.526 6.626 C 12.170 6.413,12.367 6.368,12.367 6.434 C 12.367 6.461,12.259 6.667,12.128 6.893 C 10.936 8.941,10.915 8.987,11.014 9.287 C 11.106 9.569,11.350 9.825,11.607 9.913 C 11.811 9.983,11.847 9.983,12.071 9.912 C 12.205 9.870,12.360 9.793,12.416 9.741 C 12.698 9.478,15.017 5.553,15.128 5.149 C 15.235 4.763,15.015 4.526,13.936 3.858 C 12.755 3.126,11.106 2.145,10.697 1.930 C 10.300 1.721,10.213 1.703,9.950 1.779 M18.864 6.238 C 18.497 6.418,18.298 6.897,18.436 7.265 C 18.463 7.338,18.810 7.717,19.207 8.109 C 19.632 8.529,20.081 9.027,20.301 9.322 C 20.969 10.222,21.512 11.444,21.721 12.520 C 21.788 12.862,21.798 13.132,21.781 14.176 C 21.762 15.408,21.760 15.430,21.614 15.948 C 21.211 17.371,20.505 18.558,19.453 19.581 C 18.726 20.289,17.980 20.787,17.077 21.167 C 16.637 21.353,15.757 21.620,15.657 21.599 C 15.604 21.587,15.732 21.336,16.153 20.627 C 17.041 19.130,17.112 18.937,16.911 18.550 C 16.780 18.296,16.507 18.111,16.216 18.079 C 15.866 18.041,15.623 18.184,15.338 18.597 C 15.027 19.047,13.434 21.712,13.134 22.283 C 12.855 22.814,12.808 22.980,12.881 23.174 C 12.991 23.464,13.221 23.630,15.330 24.929 C 17.414 26.213,17.686 26.344,18.051 26.235 C 18.457 26.113,18.735 25.581,18.618 25.147 C 18.539 24.854,18.352 24.704,17.177 23.990 C 16.609 23.646,16.161 23.347,16.181 23.327 C 16.201 23.307,16.404 23.236,16.632 23.170 C 18.918 22.508,20.742 21.177,22.038 19.227 C 23.221 17.447,23.772 15.254,23.566 13.153 C 23.404 11.509,22.849 9.954,21.944 8.610 C 21.382 7.774,20.434 6.787,19.770 6.343 C 19.539 6.189,19.458 6.160,19.256 6.161 C 19.125 6.162,18.948 6.196,18.864 6.238 " fill="#1A1C1F" stroke="none" fill-rule="evenodd"></path></svg>