<svg width="16" height="16" viewBox="0 0 16 16" fill="none" xmlns="http://www.w3.org/2000/svg"><path d="M5.325 1.637 C 4.959 1.774,4.755 2.126,4.823 2.507 C 4.880 2.835,4.997 2.972,5.505 3.301 C 5.697 3.425,5.858 3.531,5.864 3.537 C 5.886 3.556,5.844 3.576,5.538 3.692 C 5.125 3.849,4.552 4.147,4.240 4.367 C 3.685 4.758,3.117 5.418,2.835 6.000 C 2.483 6.726,2.338 7.591,2.428 8.421 C 2.561 9.640,3.069 10.661,3.977 11.533 C 4.321 11.864,4.473 11.951,4.735 11.968 C 5.076 11.989,5.321 11.859,5.481 11.570 C 5.552 11.441,5.560 11.403,5.560 11.185 C 5.560 10.963,5.554 10.933,5.484 10.827 C 5.442 10.764,5.261 10.561,5.083 10.376 C 4.633 9.910,4.437 9.621,4.230 9.119 C 3.976 8.501,3.945 7.676,4.152 7.040 C 4.385 6.322,4.882 5.735,5.533 5.407 C 5.843 5.251,6.213 5.131,6.213 5.187 C 6.213 5.195,6.107 5.366,5.977 5.567 C 5.617 6.124,5.614 6.132,5.614 6.413 C 5.613 6.630,5.621 6.667,5.692 6.796 C 5.789 6.970,5.947 7.111,6.092 7.151 C 6.252 7.195,6.556 7.187,6.680 7.135 C 6.821 7.076,6.929 6.970,7.146 6.680 C 7.393 6.350,8.644 4.463,8.720 4.306 C 8.841 4.058,8.807 3.744,8.638 3.540 C 8.512 3.387,6.198 1.796,5.924 1.674 C 5.772 1.606,5.459 1.587,5.325 1.637 M10.893 4.063 C 10.615 4.192,10.427 4.498,10.427 4.821 C 10.427 5.034,10.488 5.138,10.846 5.534 C 11.399 6.145,11.566 6.378,11.727 6.759 C 11.908 7.188,11.951 7.401,11.965 7.947 C 11.977 8.372,11.971 8.476,11.924 8.701 C 11.863 8.999,11.650 9.472,11.454 9.746 C 11.204 10.097,10.852 10.399,10.467 10.593 C 10.247 10.704,9.814 10.863,9.792 10.841 C 9.785 10.834,9.894 10.645,10.034 10.421 C 10.408 9.821,10.412 9.811,10.412 9.560 C 10.412 9.393,10.400 9.323,10.355 9.239 C 10.284 9.105,10.056 8.889,9.956 8.861 C 9.815 8.822,9.354 8.838,9.267 8.885 C 9.071 8.990,8.848 9.288,7.987 10.587 C 7.288 11.642,7.220 11.759,7.206 11.930 C 7.190 12.125,7.259 12.350,7.374 12.477 C 7.482 12.596,8.145 13.068,9.201 13.775 C 10.159 14.418,10.303 14.478,10.636 14.376 C 10.995 14.267,11.202 13.993,11.203 13.627 C 11.204 13.269,11.044 13.061,10.490 12.703 C 10.294 12.576,10.133 12.464,10.133 12.453 C 10.133 12.443,10.298 12.371,10.500 12.293 C 11.556 11.886,12.266 11.366,12.818 10.592 C 13.292 9.928,13.600 8.951,13.600 8.111 C 13.600 6.794,13.108 5.558,12.222 4.650 C 11.637 4.050,11.269 3.887,10.893 4.063 " fill="#1A1C1F" stroke="none" fill-rule="evenodd"></path></svg>