<svg width="32" height="32" viewBox="0 0 32 32" fill="none" xmlns="http://www.w3.org/2000/svg"><path d="M14.560 2.075 C 12.384 2.110,12.389 2.110,12.153 2.492 C 11.885 2.925,12.034 3.525,12.484 3.823 L 12.689 3.958 20.971 3.984 L 29.253 4.011 29.499 3.852 C 29.969 3.546,30.111 2.955,29.821 2.504 C 29.738 2.373,29.616 2.219,29.550 2.160 C 29.431 2.056,29.341 2.054,22.968 2.049 C 19.414 2.046,15.631 2.057,14.560 2.075 M8.156 7.527 C 7.540 8.067,2.602 12.997,2.271 13.403 C 2.100 13.613,2.058 13.711,2.041 13.937 C 1.989 14.619,2.585 15.112,3.242 14.930 C 3.533 14.849,3.738 14.659,6.360 12.056 L 8.000 10.427 8.000 19.843 L 8.000 29.259 8.154 29.502 C 8.464 29.991,9.087 30.113,9.564 29.778 C 9.686 29.692,9.819 29.555,9.859 29.472 C 9.974 29.234,10.021 27.098,10.032 21.653 C 10.037 18.940,10.056 15.328,10.074 13.627 L 10.107 10.533 12.213 12.609 C 13.372 13.750,14.414 14.752,14.528 14.835 C 14.792 15.027,15.089 15.036,15.418 14.863 C 15.900 14.608,16.110 14.079,15.897 13.660 C 15.682 13.240,9.942 7.460,9.426 7.146 C 9.314 7.078,9.158 7.040,8.983 7.040 C 8.718 7.040,8.701 7.050,8.156 7.527 M17.569 7.141 C 17.189 7.314,16.971 7.715,17.036 8.123 C 17.084 8.421,17.230 8.639,17.520 8.848 L 17.765 9.023 23.429 8.998 C 27.110 8.982,29.165 8.954,29.298 8.918 C 29.554 8.849,29.745 8.676,29.873 8.400 C 30.077 7.957,29.963 7.533,29.558 7.223 L 29.318 7.040 23.552 7.041 C 18.055 7.042,17.777 7.047,17.569 7.141 M23.627 12.046 C 22.535 12.084,22.390 12.125,22.183 12.460 C 21.900 12.917,22.020 13.471,22.477 13.816 L 22.756 14.027 25.998 14.027 L 29.239 14.027 29.506 13.830 C 30.080 13.410,30.128 12.735,29.619 12.265 L 29.389 12.053 28.548 12.053 C 28.085 12.053,27.011 12.044,26.160 12.033 C 25.309 12.022,24.169 12.028,23.627 12.046 M27.013 17.058 C 26.547 17.102,26.289 17.251,26.137 17.566 C 25.925 18.003,26.037 18.478,26.427 18.798 L 26.658 18.987 28.013 18.987 L 29.368 18.987 29.611 18.754 C 29.895 18.481,29.999 18.217,29.953 17.882 C 29.912 17.578,29.784 17.364,29.548 17.202 C 29.370 17.081,29.308 17.072,28.373 17.049 C 27.831 17.035,27.219 17.039,27.013 17.058 " fill="#1A1C1F" stroke="none" fill-rule="evenodd"></path></svg>