<svg width="24" height="24" viewBox="0 0 24 24" fill="none" xmlns="http://www.w3.org/2000/svg"><path d="M12.120 2.038 C 10.476 2.063,10.538 2.052,10.248 2.380 C 9.947 2.722,9.935 3.180,10.215 3.587 C 10.401 3.857,10.560 3.925,11.093 3.963 C 11.673 4.005,20.323 4.005,20.902 3.964 C 21.450 3.924,21.600 3.859,21.782 3.584 C 22.058 3.165,22.058 2.835,21.782 2.416 C 21.551 2.066,21.562 2.068,19.880 2.035 C 18.243 2.003,14.333 2.005,12.120 2.038 M6.434 6.228 C 6.159 6.432,2.944 9.628,2.412 10.225 C 2.136 10.536,2.081 10.623,2.039 10.808 C 1.965 11.140,2.060 11.425,2.336 11.701 C 2.510 11.876,2.583 11.919,2.763 11.956 C 3.042 12.014,3.310 11.965,3.522 11.818 C 3.611 11.757,4.205 11.195,4.842 10.569 L 6.000 9.432 6.000 15.317 L 6.000 21.203 6.097 21.394 C 6.202 21.602,6.460 21.858,6.632 21.926 C 6.773 21.982,7.229 21.981,7.371 21.925 C 7.550 21.855,7.874 21.525,7.924 21.365 C 7.955 21.263,7.974 19.492,7.989 15.325 L 8.010 9.431 8.835 10.248 C 9.910 11.314,10.463 11.829,10.616 11.908 C 10.798 12.002,11.220 11.993,11.420 11.889 C 11.628 11.782,11.819 11.581,11.903 11.380 C 11.991 11.169,11.993 10.778,11.907 10.613 C 11.722 10.259,7.700 6.260,7.385 6.117 C 7.278 6.068,7.127 6.041,6.954 6.041 C 6.699 6.040,6.677 6.048,6.434 6.228 M14.780 6.060 C 14.758 6.067,14.690 6.084,14.629 6.098 C 14.484 6.130,14.214 6.376,14.118 6.564 C 14.002 6.791,13.983 7.000,14.054 7.247 C 14.187 7.703,14.441 7.898,14.987 7.966 C 15.453 8.024,21.154 7.985,21.365 7.922 C 21.526 7.874,21.855 7.550,21.924 7.371 C 21.991 7.196,21.977 6.747,21.899 6.583 C 21.861 6.504,21.743 6.361,21.637 6.265 C 21.488 6.131,21.401 6.086,21.256 6.066 C 21.070 6.040,14.856 6.034,14.780 6.060 M19.118 10.037 C 18.630 10.061,18.553 10.088,18.306 10.315 C 17.914 10.677,17.928 11.332,18.336 11.728 C 18.572 11.958,18.715 11.980,19.960 11.980 C 21.300 11.980,21.390 11.968,21.628 11.749 C 21.881 11.515,21.972 11.318,21.972 11.000 C 21.972 10.682,21.881 10.485,21.628 10.252 C 21.478 10.113,21.415 10.083,21.235 10.065 C 20.884 10.030,19.615 10.013,19.118 10.037 " fill="#1A1C1F" stroke="none" fill-rule="evenodd"></path></svg>