<svg width="12" height="12" viewBox="0 0 12 12" fill="none" xmlns="http://www.w3.org/2000/svg"><path d="M5.227 1.239 C 5.062 1.278,4.878 1.462,4.827 1.637 C 4.767 1.845,4.834 2.073,5.003 2.230 C 5.189 2.405,4.931 2.389,7.787 2.396 L 10.325 2.401 10.417 2.357 C 10.900 2.124,10.914 1.502,10.443 1.261 C 10.362 1.220,10.353 1.220,7.826 1.222 C 6.431 1.223,5.262 1.231,5.227 1.239 M3.368 3.657 C 3.323 3.678,3.166 3.807,3.018 3.945 C 2.578 4.354,1.392 5.567,1.305 5.697 C 1.213 5.836,1.191 5.938,1.219 6.106 C 1.242 6.245,1.289 6.326,1.411 6.439 C 1.536 6.554,1.620 6.586,1.800 6.587 C 2.037 6.589,2.084 6.556,2.675 5.972 L 3.000 5.650 3.000 7.850 C 3.001 10.038,3.009 10.362,3.069 10.479 C 3.103 10.545,3.277 10.697,3.380 10.752 C 3.430 10.779,3.492 10.789,3.600 10.789 C 3.774 10.789,3.832 10.765,4.005 10.615 C 4.204 10.444,4.188 10.658,4.195 7.982 L 4.202 5.655 4.566 6.013 C 5.117 6.555,5.166 6.589,5.400 6.587 C 5.580 6.586,5.665 6.554,5.789 6.439 C 5.911 6.326,5.958 6.245,5.981 6.106 C 6.009 5.940,5.987 5.835,5.898 5.702 C 5.737 5.461,4.028 3.766,3.856 3.678 C 3.733 3.614,3.482 3.603,3.368 3.657 M7.040 3.639 C 6.772 3.720,6.610 3.937,6.612 4.210 C 6.613 4.386,6.666 4.503,6.802 4.630 C 6.997 4.812,6.851 4.799,8.702 4.800 L 10.334 4.800 10.432 4.748 C 10.659 4.629,10.786 4.433,10.788 4.200 C 10.789 3.973,10.661 3.773,10.443 3.661 C 10.363 3.620,10.343 3.620,8.726 3.622 C 7.826 3.623,7.067 3.630,7.040 3.639 M8.752 6.069 C 8.533 6.176,8.414 6.359,8.412 6.590 C 8.411 6.771,8.469 6.905,8.603 7.030 C 8.778 7.194,8.752 7.190,9.600 7.190 C 10.347 7.190,10.350 7.190,10.440 7.143 C 10.738 6.989,10.869 6.651,10.742 6.365 C 10.691 6.250,10.568 6.125,10.443 6.061 C 10.365 6.022,10.331 6.020,9.606 6.021 C 8.850 6.021,8.850 6.021,8.752 6.069 " fill="#1A1C1F" stroke="none" fill-rule="evenodd"></path></svg>