<svg width="20" height="20" viewBox="0 0 20 20" fill="none" xmlns="http://www.w3.org/2000/svg"><path d="M8.712 2.065 C 8.437 2.131,8.130 2.436,8.045 2.728 C 7.945 3.072,8.057 3.455,8.333 3.714 C 8.649 4.009,8.207 3.982,12.979 3.993 L 17.208 4.002 17.362 3.928 C 18.148 3.548,18.199 2.559,17.454 2.132 L 17.283 2.034 13.050 2.037 C 10.722 2.039,8.770 2.051,8.712 2.065 M5.583 6.113 C 5.375 6.211,5.193 6.393,5.084 6.612 L 5.000 6.780 5.000 10.681 L 5.000 14.583 4.475 14.064 C 3.778 13.375,3.582 13.204,3.383 13.112 C 3.181 13.017,2.887 13.008,2.650 13.089 C 2.419 13.167,2.162 13.428,2.071 13.676 C 1.932 14.053,1.988 14.296,2.293 14.658 C 2.830 15.292,5.305 17.722,5.576 17.881 C 5.758 17.987,6.023 18.024,6.223 17.970 C 6.299 17.949,6.456 17.861,6.572 17.774 C 6.831 17.581,8.584 15.856,9.306 15.085 C 9.926 14.423,10.019 14.272,9.991 13.970 C 9.969 13.724,9.864 13.486,9.707 13.322 C 9.528 13.137,9.363 13.064,9.080 13.042 C 8.639 13.009,8.514 13.089,7.592 13.995 L 7.000 14.577 7.000 10.680 L 7.000 6.784 6.910 6.605 C 6.797 6.384,6.550 6.157,6.344 6.086 C 6.109 6.006,5.785 6.018,5.583 6.113 M11.733 6.065 C 11.140 6.246,10.848 6.873,11.104 7.419 C 11.187 7.594,11.451 7.848,11.642 7.935 C 11.778 7.996,11.893 7.999,14.503 7.999 L 17.223 8.000 17.387 7.914 C 18.155 7.510,18.191 6.555,17.454 6.132 L 17.283 6.034 14.550 6.037 C 13.047 6.038,11.779 6.051,11.733 6.065 M14.610 10.098 C 14.415 10.187,14.186 10.408,14.097 10.593 C 13.992 10.813,13.991 11.154,14.095 11.387 C 14.183 11.585,14.388 11.796,14.600 11.906 C 14.749 11.983,14.755 11.983,16.000 11.983 C 17.245 11.983,17.251 11.983,17.400 11.906 C 18.155 11.514,18.184 10.551,17.454 10.132 L 17.283 10.034 16.017 10.034 C 14.843 10.035,14.740 10.039,14.610 10.098 " fill="#1A1C1F" stroke="none" fill-rule="evenodd"></path></svg>