<svg width="16" height="16" viewBox="0 0 16 16" fill="none" xmlns="http://www.w3.org/2000/svg"><path d="M6.970 1.652 C 6.750 1.704,6.504 1.949,6.436 2.182 C 6.356 2.460,6.446 2.764,6.670 2.974 C 6.918 3.206,6.575 3.186,10.383 3.194 L 13.767 3.201 13.890 3.142 C 14.534 2.831,14.553 2.003,13.924 1.682 C 13.816 1.627,13.804 1.627,10.434 1.629 C 8.575 1.631,7.016 1.641,6.970 1.652 M4.485 4.884 C 4.221 5.014,1.785 7.454,1.673 7.699 C 1.587 7.888,1.592 8.156,1.685 8.335 C 1.856 8.663,2.258 8.862,2.575 8.777 C 2.757 8.727,2.919 8.598,3.470 8.059 L 4.000 7.540 4.000 10.470 C 4.001 13.384,4.012 13.817,4.093 13.972 C 4.138 14.059,4.370 14.263,4.507 14.336 C 4.574 14.372,4.656 14.386,4.800 14.386 C 4.944 14.386,5.026 14.372,5.093 14.336 C 5.230 14.263,5.462 14.059,5.507 13.972 C 5.588 13.817,5.599 13.384,5.600 10.469 L 5.600 7.539 6.087 8.016 C 6.717 8.634,6.840 8.737,6.988 8.771 C 7.323 8.848,7.581 8.771,7.799 8.529 C 7.997 8.309,8.061 7.955,7.946 7.718 C 7.868 7.558,7.316 6.972,6.276 5.947 C 5.360 5.044,5.232 4.931,5.048 4.865 C 4.888 4.808,4.620 4.817,4.485 4.884 M9.387 4.852 C 9.047 4.955,8.800 5.277,8.800 5.617 C 8.800 5.880,9.015 6.196,9.286 6.331 L 9.424 6.400 11.601 6.400 L 13.779 6.400 13.909 6.331 C 14.539 6.000,14.547 5.200,13.924 4.882 C 13.817 4.827,13.790 4.827,11.634 4.829 C 10.435 4.830,9.423 4.840,9.387 4.852 M11.688 8.079 C 11.532 8.149,11.349 8.326,11.278 8.475 C 11.234 8.567,11.217 8.650,11.216 8.787 C 11.215 9.029,11.292 9.207,11.470 9.374 C 11.703 9.592,11.669 9.587,12.800 9.587 C 13.796 9.587,13.801 9.586,13.920 9.524 C 14.539 9.204,14.541 8.397,13.924 8.082 C 13.820 8.029,13.775 8.027,12.808 8.027 C 11.875 8.028,11.792 8.032,11.688 8.079 " fill="#1A1C1F" stroke="none" fill-rule="evenodd"></path></svg>