<svg width="12" height="12" viewBox="0 0 12 12" fill="none" xmlns="http://www.w3.org/2000/svg"><path d="M5.227 1.239 C 5.062 1.278,4.878 1.462,4.827 1.637 C 4.767 1.845,4.834 2.073,5.003 2.230 C 5.189 2.405,4.931 2.389,7.787 2.396 L 10.325 2.401 10.417 2.357 C 10.900 2.124,10.914 1.502,10.443 1.261 C 10.362 1.220,10.353 1.220,7.826 1.222 C 6.431 1.223,5.262 1.231,5.227 1.239 M3.350 3.667 C 3.225 3.727,3.115 3.837,3.050 3.967 L 3.000 4.068 3.000 6.407 L 3.000 8.746 2.645 8.397 C 2.100 7.861,2.018 7.809,1.766 7.823 C 1.521 7.838,1.305 7.999,1.234 8.220 C 1.164 8.436,1.206 8.602,1.377 8.799 C 1.560 9.009,2.685 10.143,3.000 10.435 C 3.354 10.763,3.399 10.790,3.600 10.789 C 3.842 10.787,3.871 10.766,4.608 10.040 C 5.278 9.380,5.863 8.767,5.927 8.657 C 6.077 8.400,5.968 8.052,5.686 7.887 C 5.618 7.847,5.560 7.831,5.448 7.824 C 5.182 7.807,5.107 7.855,4.555 8.397 L 4.200 8.746 4.200 6.406 L 4.200 4.066 4.148 3.968 C 4.029 3.742,3.861 3.634,3.610 3.625 C 3.474 3.619,3.435 3.626,3.350 3.667 M7.040 3.639 C 6.772 3.720,6.610 3.937,6.612 4.210 C 6.613 4.386,6.666 4.503,6.802 4.630 C 6.997 4.812,6.851 4.799,8.702 4.800 L 10.334 4.800 10.432 4.748 C 10.659 4.629,10.786 4.433,10.788 4.200 C 10.789 3.973,10.661 3.773,10.443 3.661 C 10.363 3.620,10.343 3.620,8.726 3.622 C 7.826 3.623,7.067 3.630,7.040 3.639 M8.752 6.069 C 8.533 6.176,8.414 6.359,8.412 6.590 C 8.411 6.771,8.469 6.905,8.603 7.030 C 8.778 7.194,8.752 7.190,9.600 7.190 C 10.347 7.190,10.350 7.190,10.440 7.143 C 10.738 6.989,10.869 6.651,10.742 6.365 C 10.691 6.250,10.568 6.125,10.443 6.061 C 10.365 6.022,10.331 6.020,9.606 6.021 C 8.850 6.021,8.850 6.021,8.752 6.069 " fill="#1A1C1F" stroke="none" fill-rule="evenodd"></path></svg>