<svg width="24" height="24" viewBox="0 0 24 24" fill="none" xmlns="http://www.w3.org/2000/svg"><path d="M12.120 2.038 C 10.476 2.063,10.538 2.052,10.248 2.380 C 9.947 2.722,9.935 3.180,10.215 3.587 C 10.401 3.857,10.560 3.925,11.093 3.963 C 11.673 4.005,20.323 4.005,20.902 3.964 C 21.450 3.924,21.600 3.859,21.782 3.584 C 22.058 3.165,22.058 2.835,21.782 2.416 C 21.551 2.066,21.562 2.068,19.880 2.035 C 18.243 2.003,14.333 2.005,12.120 2.038 M6.782 6.047 C 6.568 6.095,6.281 6.287,6.165 6.459 C 6.097 6.560,6.060 6.689,6.037 6.910 C 6.019 7.081,6.003 9.776,6.002 12.900 L 6.000 18.579 5.110 17.697 C 3.948 16.545,3.532 16.161,3.373 16.094 C 3.173 16.011,2.776 16.025,2.575 16.122 C 2.175 16.316,1.946 16.774,2.039 17.192 C 2.101 17.469,2.270 17.660,4.096 19.510 C 5.476 20.909,6.354 21.749,6.576 21.884 C 6.761 21.996,7.000 22.017,7.253 21.944 C 7.447 21.887,7.538 21.818,8.007 21.373 C 9.652 19.808,11.776 17.637,11.909 17.385 C 12.008 17.196,11.999 16.781,11.891 16.576 C 11.791 16.386,11.563 16.174,11.374 16.095 C 11.206 16.025,10.795 16.024,10.627 16.094 C 10.469 16.161,10.052 16.545,8.895 17.692 L 8.010 18.569 7.989 12.675 C 7.974 8.497,7.955 6.738,7.923 6.635 C 7.809 6.261,7.207 5.951,6.782 6.047 M14.780 6.060 C 14.758 6.067,14.690 6.084,14.629 6.098 C 14.484 6.130,14.214 6.376,14.118 6.564 C 14.002 6.791,13.983 7.000,14.054 7.247 C 14.187 7.703,14.441 7.898,14.987 7.966 C 15.453 8.024,21.154 7.985,21.365 7.922 C 21.526 7.874,21.855 7.550,21.924 7.371 C 21.991 7.196,21.977 6.747,21.899 6.583 C 21.861 6.504,21.743 6.361,21.637 6.265 C 21.488 6.131,21.401 6.086,21.256 6.066 C 21.070 6.040,14.856 6.034,14.780 6.060 M19.118 10.037 C 18.630 10.061,18.553 10.088,18.306 10.315 C 17.914 10.677,17.928 11.332,18.336 11.728 C 18.572 11.958,18.715 11.980,19.960 11.980 C 21.300 11.980,21.390 11.968,21.628 11.749 C 21.881 11.515,21.972 11.318,21.972 11.000 C 21.972 10.682,21.881 10.485,21.628 10.252 C 21.478 10.113,21.415 10.083,21.235 10.065 C 20.884 10.030,19.615 10.013,19.118 10.037 " fill="#1A1C1F" stroke="none" fill-rule="evenodd"></path></svg>