<svg width="28" height="28" viewBox="0 0 28 28" fill="none" xmlns="http://www.w3.org/2000/svg"><path d="M12.717 1.816 C 10.839 1.847,10.840 1.846,10.634 2.180 C 10.399 2.560,10.530 3.084,10.925 3.345 L 11.104 3.464 18.351 3.487 L 25.597 3.509 25.812 3.370 C 26.227 3.100,26.349 2.580,26.088 2.186 C 26.011 2.071,25.904 1.936,25.849 1.887 C 25.753 1.799,25.605 1.797,20.074 1.792 C 16.951 1.790,13.641 1.800,12.717 1.816 M7.482 6.294 C 6.890 6.723,2.027 11.585,1.857 11.919 C 1.575 12.472,2.055 13.156,2.689 13.103 C 2.920 13.084,2.959 13.061,3.343 12.713 C 3.567 12.510,4.482 11.622,5.375 10.739 L 7.000 9.135 7.004 16.433 C 7.006 20.446,7.022 24.181,7.039 24.733 C 7.068 25.673,7.077 25.746,7.175 25.884 C 7.396 26.194,7.906 26.315,8.250 26.138 C 8.527 25.996,8.635 25.848,8.684 25.543 C 8.708 25.390,8.748 21.823,8.773 17.383 C 8.799 13.046,8.825 9.434,8.831 9.357 C 8.843 9.225,8.957 9.328,10.744 11.089 C 11.846 12.175,12.716 12.996,12.815 13.043 C 13.299 13.272,13.933 12.860,13.989 12.279 C 14.008 12.078,13.993 12.040,13.783 11.761 C 13.349 11.183,8.618 6.478,8.239 6.247 C 8.018 6.112,7.706 6.132,7.482 6.294 M15.361 6.260 C 14.690 6.592,14.764 7.548,15.480 7.801 C 15.623 7.851,16.568 7.863,20.440 7.863 C 23.071 7.863,25.344 7.846,25.492 7.825 C 25.810 7.779,26.012 7.632,26.139 7.352 C 26.317 6.961,26.218 6.591,25.863 6.320 L 25.653 6.160 20.608 6.160 L 15.563 6.160 15.361 6.260 M20.673 10.541 C 19.680 10.574,19.568 10.611,19.382 10.963 C 19.108 11.482,19.402 12.117,19.962 12.212 C 20.084 12.233,21.391 12.250,22.867 12.250 L 25.550 12.250 25.769 12.121 C 25.889 12.051,26.033 11.928,26.090 11.849 C 26.321 11.524,26.235 11.019,25.897 10.713 L 25.713 10.547 24.908 10.547 C 24.466 10.547,23.526 10.539,22.820 10.529 C 22.114 10.519,21.148 10.524,20.673 10.541 M23.613 14.926 C 23.230 14.965,22.999 15.103,22.870 15.370 C 22.684 15.753,22.782 16.168,23.124 16.448 L 23.326 16.613 24.511 16.613 L 25.697 16.613 25.909 16.410 C 26.158 16.171,26.249 15.940,26.209 15.647 C 26.173 15.381,26.061 15.194,25.854 15.052 C 25.698 14.945,25.646 14.938,24.803 14.917 C 24.316 14.905,23.780 14.909,23.613 14.926 " fill="#1A1C1F" stroke="none" fill-rule="evenodd"></path></svg>