<svg width="28" height="28" viewBox="0 0 28 28" fill="none" xmlns="http://www.w3.org/2000/svg"><path d="M12.717 1.816 C 10.839 1.847,10.840 1.846,10.634 2.180 C 10.399 2.560,10.530 3.084,10.925 3.345 L 11.104 3.464 18.351 3.487 L 25.597 3.509 25.812 3.370 C 26.227 3.100,26.349 2.580,26.088 2.186 C 26.011 2.071,25.904 1.936,25.849 1.887 C 25.753 1.799,25.605 1.797,20.074 1.792 C 16.951 1.790,13.641 1.800,12.717 1.816 M7.452 6.258 C 7.351 6.312,7.216 6.444,7.137 6.568 L 7.000 6.785 7.000 15.024 L 7.000 23.263 5.565 21.837 C 3.571 19.855,3.068 19.385,2.868 19.319 C 2.504 19.199,1.981 19.426,1.840 19.765 C 1.751 19.978,1.756 20.273,1.853 20.476 C 1.975 20.733,7.276 26.022,7.525 26.135 C 7.760 26.241,7.973 26.250,8.183 26.162 C 8.475 26.040,13.230 21.346,13.768 20.648 C 13.954 20.407,13.976 20.352,13.973 20.140 C 13.969 19.864,13.829 19.558,13.654 19.444 C 13.462 19.318,13.081 19.254,12.880 19.314 C 12.679 19.375,12.018 19.989,10.069 21.927 L 8.776 23.214 8.763 15.002 L 8.750 6.790 8.638 6.609 C 8.576 6.510,8.430 6.368,8.314 6.294 C 8.053 6.129,7.723 6.115,7.452 6.258 M15.361 6.260 C 14.690 6.592,14.764 7.548,15.480 7.801 C 15.623 7.851,16.568 7.863,20.440 7.863 C 23.071 7.863,25.344 7.846,25.492 7.825 C 25.810 7.779,26.012 7.632,26.139 7.352 C 26.317 6.961,26.218 6.591,25.863 6.320 L 25.653 6.160 20.608 6.160 L 15.563 6.160 15.361 6.260 M20.673 10.541 C 19.680 10.574,19.568 10.611,19.382 10.963 C 19.108 11.482,19.402 12.117,19.962 12.212 C 20.084 12.233,21.391 12.250,22.867 12.250 L 25.550 12.250 25.769 12.121 C 25.889 12.051,26.033 11.928,26.090 11.849 C 26.321 11.524,26.235 11.019,25.897 10.713 L 25.713 10.547 24.908 10.547 C 24.466 10.547,23.526 10.539,22.820 10.529 C 22.114 10.519,21.148 10.524,20.673 10.541 M23.613 14.926 C 23.230 14.965,22.999 15.103,22.870 15.370 C 22.684 15.753,22.782 16.168,23.124 16.448 L 23.326 16.613 24.511 16.613 L 25.697 16.613 25.909 16.410 C 26.158 16.171,26.249 15.940,26.209 15.647 C 26.173 15.381,26.061 15.194,25.854 15.052 C 25.698 14.945,25.646 14.938,24.803 14.917 C 24.316 14.905,23.780 14.909,23.613 14.926 " fill="#1A1C1F" stroke="none" fill-rule="evenodd"></path></svg>