<svg width="14" height="14" viewBox="0 0 14 14" fill="none" xmlns="http://www.w3.org/2000/svg"><path d="M6.098 1.446 C 5.915 1.489,5.698 1.699,5.644 1.884 C 5.545 2.226,5.698 2.576,6.016 2.734 L 6.125 2.788 9.083 2.795 C 11.978 2.801,12.044 2.800,12.145 2.756 C 12.293 2.690,12.469 2.517,12.532 2.373 C 12.596 2.226,12.603 1.972,12.547 1.839 C 12.495 1.717,12.329 1.546,12.199 1.480 L 12.088 1.423 9.130 1.426 C 7.503 1.427,6.139 1.436,6.098 1.446 M3.892 4.283 C 3.752 4.356,3.633 4.478,3.559 4.628 L 3.500 4.746 3.500 7.477 L 3.500 10.208 3.133 9.845 C 2.474 9.194,2.375 9.124,2.110 9.124 C 1.896 9.123,1.760 9.180,1.609 9.332 C 1.452 9.489,1.386 9.660,1.407 9.858 C 1.432 10.101,1.474 10.152,2.577 11.266 C 3.190 11.885,3.694 12.368,3.856 12.492 C 3.900 12.526,3.993 12.564,4.062 12.578 C 4.254 12.615,4.389 12.587,4.554 12.477 C 4.714 12.370,6.091 11.022,6.583 10.490 C 6.760 10.299,6.923 10.105,6.945 10.059 C 6.997 9.950,6.998 9.658,6.948 9.540 C 6.898 9.425,6.758 9.274,6.632 9.200 C 6.554 9.154,6.486 9.137,6.356 9.128 C 6.045 9.108,5.958 9.164,5.316 9.795 L 4.904 10.200 4.896 7.462 C 4.886 4.358,4.906 4.643,4.681 4.423 C 4.527 4.273,4.397 4.223,4.167 4.224 C 4.039 4.225,3.977 4.238,3.892 4.283 M8.213 4.245 C 7.903 4.340,7.713 4.592,7.712 4.912 C 7.712 5.035,7.725 5.101,7.765 5.183 C 7.833 5.322,7.983 5.469,8.130 5.542 L 8.246 5.600 10.149 5.599 C 11.975 5.599,12.056 5.597,12.150 5.554 C 12.296 5.488,12.470 5.314,12.532 5.173 C 12.596 5.026,12.603 4.772,12.547 4.639 C 12.495 4.517,12.329 4.346,12.199 4.280 L 12.088 4.223 10.180 4.225 C 9.130 4.226,8.245 4.235,8.213 4.245 M10.227 7.068 C 10.090 7.131,9.930 7.286,9.868 7.415 C 9.829 7.496,9.815 7.568,9.814 7.688 C 9.813 7.900,9.880 8.056,10.036 8.202 C 10.240 8.393,10.210 8.388,11.200 8.388 C 12.190 8.388,12.160 8.393,12.364 8.202 C 12.519 8.057,12.586 7.901,12.584 7.688 C 12.583 7.490,12.543 7.389,12.410 7.244 C 12.212 7.030,12.246 7.036,11.223 7.029 C 10.379 7.024,10.319 7.026,10.227 7.068 " fill="#1A1C1F" stroke="none" fill-rule="evenodd"></path></svg>