<svg width="16" height="16" viewBox="0 0 16 16" fill="none" xmlns="http://www.w3.org/2000/svg"><path d="M6.970 1.652 C 6.750 1.704,6.504 1.949,6.436 2.182 C 6.356 2.460,6.446 2.764,6.670 2.974 C 6.918 3.206,6.575 3.186,10.383 3.194 L 13.767 3.201 13.890 3.142 C 14.534 2.831,14.553 2.003,13.924 1.682 C 13.816 1.627,13.804 1.627,10.434 1.629 C 8.575 1.631,7.016 1.641,6.970 1.652 M4.480 4.882 C 4.319 4.955,4.141 5.130,4.064 5.293 L 4.001 5.427 4.000 8.543 L 4.000 11.659 3.468 11.140 C 3.175 10.855,2.888 10.589,2.830 10.549 C 2.619 10.403,2.315 10.385,2.067 10.503 C 1.649 10.701,1.495 11.129,1.694 11.537 C 1.747 11.645,1.983 11.900,2.728 12.656 C 3.780 13.724,4.325 14.240,4.492 14.328 C 4.574 14.372,4.648 14.386,4.800 14.386 C 4.973 14.387,5.018 14.376,5.131 14.309 C 5.385 14.160,7.657 11.912,7.877 11.592 C 7.966 11.463,7.982 11.418,7.993 11.258 C 8.011 11.016,7.954 10.843,7.799 10.671 C 7.659 10.516,7.490 10.436,7.249 10.411 C 6.939 10.380,6.838 10.446,6.089 11.181 L 5.605 11.657 5.595 8.528 C 5.586 5.661,5.581 5.392,5.540 5.298 C 5.473 5.148,5.228 4.921,5.077 4.870 C 4.899 4.809,4.629 4.815,4.480 4.882 M9.387 4.852 C 9.047 4.955,8.800 5.277,8.800 5.617 C 8.800 5.880,9.015 6.196,9.286 6.331 L 9.424 6.400 11.601 6.400 L 13.779 6.400 13.909 6.331 C 14.539 6.000,14.547 5.200,13.924 4.882 C 13.817 4.827,13.790 4.827,11.634 4.829 C 10.435 4.830,9.423 4.840,9.387 4.852 M11.688 8.079 C 11.532 8.149,11.349 8.326,11.278 8.475 C 11.234 8.567,11.217 8.650,11.216 8.787 C 11.215 9.029,11.292 9.207,11.470 9.374 C 11.703 9.592,11.669 9.587,12.800 9.587 C 13.796 9.587,13.801 9.586,13.920 9.524 C 14.539 9.204,14.541 8.397,13.924 8.082 C 13.820 8.029,13.775 8.027,12.808 8.027 C 11.875 8.028,11.792 8.032,11.688 8.079 " fill="#1A1C1F" stroke="none" fill-rule="evenodd"></path></svg>