<svg width="20" height="20" viewBox="0 0 20 20" fill="none" xmlns="http://www.w3.org/2000/svg"><path d="M8.712 2.065 C 8.437 2.131,8.130 2.436,8.045 2.728 C 7.945 3.072,8.057 3.455,8.333 3.714 C 8.649 4.009,8.207 3.982,12.979 3.993 L 17.208 4.002 17.362 3.928 C 18.148 3.548,18.199 2.559,17.454 2.132 L 17.283 2.034 13.050 2.037 C 10.722 2.039,8.770 2.051,8.712 2.065 M5.560 6.129 C 5.142 6.398,2.220 9.342,2.091 9.624 C 1.984 9.857,1.992 10.192,2.108 10.419 C 2.318 10.827,2.822 11.078,3.219 10.971 C 3.447 10.909,3.648 10.747,4.337 10.074 L 5.000 9.426 5.001 13.088 C 5.001 16.730,5.015 17.271,5.116 17.465 C 5.172 17.574,5.462 17.829,5.633 17.920 C 5.717 17.965,5.820 17.982,6.000 17.982 C 6.180 17.982,6.283 17.965,6.367 17.920 C 6.538 17.829,6.828 17.574,6.884 17.465 C 6.985 17.271,6.999 16.730,6.999 13.087 L 7.000 9.425 7.659 10.071 C 8.342 10.741,8.552 10.909,8.781 10.971 C 9.178 11.078,9.682 10.827,9.892 10.419 C 10.008 10.193,10.016 9.857,9.909 9.624 C 9.773 9.327,6.757 6.300,6.427 6.129 C 6.321 6.074,6.208 6.051,6.000 6.041 C 5.731 6.029,5.709 6.033,5.560 6.129 M11.733 6.065 C 11.140 6.246,10.848 6.873,11.104 7.419 C 11.187 7.594,11.451 7.848,11.642 7.935 C 11.778 7.996,11.893 7.999,14.503 7.999 L 17.223 8.000 17.387 7.914 C 18.155 7.510,18.191 6.555,17.454 6.132 L 17.283 6.034 14.550 6.037 C 13.047 6.038,11.779 6.051,11.733 6.065 M14.610 10.098 C 14.415 10.187,14.186 10.408,14.097 10.593 C 13.992 10.813,13.991 11.154,14.095 11.387 C 14.183 11.585,14.388 11.796,14.600 11.906 C 14.749 11.983,14.755 11.983,16.000 11.983 C 17.245 11.983,17.251 11.983,17.400 11.906 C 18.155 11.514,18.184 10.551,17.454 10.132 L 17.283 10.034 16.017 10.034 C 14.843 10.035,14.740 10.039,14.610 10.098 " fill="#1A1C1F" stroke="none" fill-rule="evenodd"></path></svg>