<svg width="14" height="14" viewBox="0 0 14 14" fill="none" xmlns="http://www.w3.org/2000/svg"><path d="M6.098 1.446 C 5.915 1.489,5.698 1.699,5.644 1.884 C 5.545 2.226,5.698 2.576,6.016 2.734 L 6.125 2.788 9.083 2.795 C 11.978 2.801,12.044 2.800,12.145 2.756 C 12.293 2.690,12.469 2.517,12.532 2.373 C 12.596 2.226,12.603 1.972,12.547 1.839 C 12.495 1.717,12.329 1.546,12.199 1.480 L 12.088 1.423 9.130 1.426 C 7.503 1.427,6.139 1.436,6.098 1.446 M3.932 4.266 C 3.880 4.290,3.691 4.446,3.512 4.613 C 3.048 5.043,1.670 6.445,1.549 6.610 C 1.426 6.777,1.390 6.895,1.412 7.069 C 1.434 7.248,1.473 7.330,1.599 7.465 C 1.753 7.630,1.879 7.685,2.099 7.685 C 2.380 7.684,2.433 7.647,3.121 6.967 L 3.500 6.592 3.500 9.159 C 3.501 11.711,3.511 12.090,3.581 12.225 C 3.621 12.302,3.823 12.480,3.943 12.544 C 4.002 12.575,4.074 12.587,4.200 12.587 C 4.326 12.587,4.398 12.575,4.457 12.544 C 4.577 12.480,4.779 12.302,4.819 12.225 C 4.889 12.090,4.899 11.711,4.900 9.159 L 4.900 6.592 5.268 6.955 C 5.962 7.641,6.023 7.685,6.288 7.686 C 6.573 7.687,6.815 7.531,6.934 7.268 C 7.004 7.113,7.005 6.893,6.935 6.737 C 6.843 6.531,4.732 4.411,4.499 4.290 C 4.357 4.217,4.062 4.204,3.932 4.266 M8.213 4.245 C 7.903 4.340,7.713 4.592,7.712 4.912 C 7.712 5.035,7.725 5.101,7.765 5.183 C 7.833 5.322,7.983 5.469,8.130 5.542 L 8.246 5.600 10.149 5.599 C 11.975 5.599,12.056 5.597,12.150 5.554 C 12.296 5.488,12.470 5.314,12.532 5.173 C 12.596 5.026,12.603 4.772,12.547 4.639 C 12.495 4.517,12.329 4.346,12.199 4.280 L 12.088 4.223 10.180 4.225 C 9.130 4.226,8.245 4.235,8.213 4.245 M10.227 7.068 C 10.090 7.131,9.930 7.286,9.868 7.415 C 9.829 7.496,9.815 7.568,9.814 7.688 C 9.813 7.900,9.880 8.056,10.036 8.202 C 10.240 8.393,10.210 8.388,11.200 8.388 C 12.190 8.388,12.160 8.393,12.364 8.202 C 12.519 8.057,12.586 7.901,12.584 7.688 C 12.583 7.490,12.543 7.389,12.410 7.244 C 12.212 7.030,12.246 7.036,11.223 7.029 C 10.379 7.024,10.319 7.026,10.227 7.068 " fill="#1A1C1F" stroke="none" fill-rule="evenodd"></path></svg>