<svg width="16" height="16" viewBox="0 0 16 16" fill="none" xmlns="http://www.w3.org/2000/svg"><path d="M4.178 3.439 C 4.137 3.452,4.035 3.515,3.953 3.578 C 3.609 3.841,1.760 5.717,1.660 5.904 C 1.598 6.020,1.599 6.382,1.662 6.500 C 1.722 6.613,2.932 7.866,3.530 8.435 C 4.080 8.958,4.149 9.000,4.440 8.981 C 4.885 8.952,5.180 8.631,5.180 8.175 C 5.180 7.920,5.106 7.806,4.614 7.296 L 4.333 7.006 7.661 7.024 C 9.492 7.035,11.079 7.053,11.188 7.065 C 11.601 7.111,12.160 7.465,12.421 7.846 C 12.557 8.043,12.687 8.337,12.736 8.554 C 12.802 8.849,12.777 9.357,12.683 9.623 C 12.495 10.159,12.165 10.542,11.680 10.787 C 11.330 10.963,11.318 10.965,10.133 10.988 C 9.539 10.999,8.429 11.011,7.667 11.014 C 6.904 11.016,5.913 11.026,5.464 11.036 L 4.647 11.053 4.509 11.147 C 4.350 11.254,4.229 11.420,4.173 11.610 C 4.122 11.781,4.123 11.801,4.186 12.006 C 4.255 12.228,4.381 12.390,4.576 12.507 L 4.731 12.600 7.852 12.608 C 9.813 12.613,11.055 12.606,11.192 12.589 C 11.313 12.574,11.540 12.525,11.697 12.479 C 13.052 12.084,13.959 11.156,14.297 9.818 C 14.368 9.537,14.373 9.477,14.373 9.009 C 14.373 8.453,14.346 8.261,14.209 7.871 C 14.017 7.321,13.750 6.896,13.333 6.480 C 12.859 6.005,12.280 5.671,11.667 5.518 C 11.405 5.453,10.944 5.443,7.076 5.417 C 5.606 5.408,4.396 5.391,4.385 5.380 C 4.374 5.370,4.496 5.226,4.656 5.060 C 4.816 4.895,4.992 4.704,5.047 4.637 C 5.330 4.289,5.180 3.714,4.748 3.494 C 4.627 3.432,4.298 3.400,4.178 3.439 " fill="#1A1C1F" stroke="none" fill-rule="evenodd"></path></svg>