<svg width="28" height="28" viewBox="0 0 28 28" fill="none" xmlns="http://www.w3.org/2000/svg"><path d="M6.065 6.379 C 5.717 6.640,3.546 8.765,2.859 9.516 C 2.127 10.315,2.056 10.547,2.409 10.976 C 2.732 11.369,4.610 13.283,5.406 14.031 C 6.292 14.864,6.412 14.935,6.765 14.841 C 7.264 14.706,7.561 14.102,7.349 13.653 C 7.309 13.571,6.811 13.023,6.241 12.438 L 5.205 11.372 12.900 11.407 L 20.595 11.441 20.926 11.560 C 22.446 12.106,23.463 13.136,23.871 14.545 C 24.033 15.104,24.073 15.912,23.969 16.509 C 23.878 17.029,23.649 17.616,23.349 18.100 C 23.098 18.506,22.460 19.164,22.064 19.426 C 21.697 19.669,20.911 19.976,20.536 20.023 C 20.366 20.044,17.801 20.084,14.838 20.111 C 11.875 20.138,9.293 20.173,9.100 20.189 C 8.572 20.233,8.388 20.366,8.259 20.799 C 8.180 21.063,8.263 21.361,8.478 21.582 C 8.812 21.926,8.287 21.901,14.627 21.873 C 18.542 21.855,20.433 21.831,20.673 21.794 C 21.463 21.674,22.583 21.193,23.281 20.674 C 23.746 20.329,24.339 19.720,24.693 19.226 C 25.973 17.436,26.145 14.912,25.119 12.959 C 24.298 11.396,22.858 10.270,21.099 9.816 L 20.650 9.700 16.217 9.659 C 13.778 9.636,10.319 9.617,8.528 9.616 C 6.738 9.614,5.273 9.600,5.273 9.585 C 5.273 9.569,5.650 9.170,6.110 8.698 C 7.261 7.517,7.380 7.373,7.408 7.122 C 7.468 6.590,7.090 6.160,6.563 6.160 C 6.389 6.160,6.310 6.195,6.065 6.379 " fill="#1A1C1F" stroke="none" fill-rule="evenodd"></path></svg>