<svg width="24" height="24" viewBox="0 0 24 24" fill="none" xmlns="http://www.w3.org/2000/svg"><path d="M5.504 5.162 C 5.093 5.422,2.211 8.358,2.078 8.652 C 1.982 8.863,1.981 9.094,2.075 9.300 C 2.194 9.563,4.610 12.046,5.435 12.754 C 5.643 12.932,5.662 12.940,5.944 12.954 C 6.184 12.966,6.270 12.953,6.418 12.881 C 6.899 12.648,7.123 11.986,6.868 11.551 C 6.811 11.452,6.464 11.063,6.098 10.686 L 5.432 10.000 7.686 10.002 C 8.926 10.003,11.578 10.020,13.580 10.040 C 17.478 10.079,17.377 10.073,17.864 10.285 C 18.365 10.502,18.999 11.022,19.345 11.500 C 19.967 12.358,20.132 13.596,19.766 14.660 C 19.590 15.171,19.356 15.533,18.924 15.960 C 18.489 16.390,18.125 16.619,17.569 16.811 C 17.231 16.927,17.188 16.932,16.200 16.963 C 15.639 16.981,14.026 16.997,12.617 16.998 C 11.207 16.999,9.509 17.012,8.844 17.027 L 7.634 17.053 7.462 17.167 C 7.237 17.316,7.089 17.535,7.033 17.803 C 6.945 18.226,7.185 18.690,7.603 18.902 L 7.797 19.000 12.439 19.000 L 17.081 19.000 17.493 18.903 C 18.721 18.612,19.565 18.157,20.384 17.342 C 20.996 16.734,21.338 16.202,21.661 15.361 C 21.936 14.642,21.969 14.418,21.951 13.386 C 21.932 12.365,21.900 12.194,21.578 11.402 C 20.868 9.656,19.106 8.293,17.280 8.078 C 17.025 8.048,15.133 8.027,11.540 8.016 C 6.307 7.999,5.520 7.987,5.520 7.921 C 5.520 7.903,5.808 7.587,6.159 7.218 C 6.511 6.850,6.835 6.473,6.879 6.381 C 7.044 6.042,6.930 5.518,6.638 5.267 C 6.447 5.104,6.248 5.040,5.933 5.040 C 5.737 5.040,5.662 5.061,5.504 5.162 " fill="#1A1C1F" stroke="none" fill-rule="evenodd"></path></svg>