<svg width="12" height="12" viewBox="0 0 12 12" fill="none" xmlns="http://www.w3.org/2000/svg"><path d="M3.167 2.579 C 3.121 2.586,3.045 2.619,2.998 2.651 C 2.797 2.789,1.322 4.284,1.246 4.426 C 1.222 4.471,1.211 4.539,1.211 4.650 C 1.210 4.788,1.217 4.822,1.263 4.900 C 1.329 5.011,1.946 5.648,2.549 6.228 C 3.069 6.727,3.104 6.750,3.328 6.736 C 3.494 6.725,3.590 6.685,3.699 6.579 C 3.818 6.463,3.865 6.356,3.876 6.175 C 3.889 5.952,3.845 5.873,3.515 5.529 L 3.250 5.254 5.838 5.268 L 8.425 5.282 8.596 5.351 C 8.833 5.446,8.994 5.557,9.178 5.751 C 9.297 5.878,9.357 5.961,9.427 6.104 C 9.545 6.345,9.559 6.411,9.560 6.761 C 9.560 7.085,9.541 7.180,9.430 7.400 C 9.240 7.777,8.947 8.032,8.530 8.181 L 8.350 8.246 5.937 8.261 C 3.236 8.278,3.475 8.263,3.303 8.427 C 3.100 8.621,3.056 8.872,3.181 9.120 C 3.225 9.209,3.389 9.363,3.496 9.418 C 3.578 9.460,3.590 9.460,5.364 9.458 C 6.346 9.457,7.470 9.450,7.860 9.441 L 8.570 9.426 8.806 9.352 C 9.480 9.143,9.995 8.772,10.358 8.233 C 10.521 7.990,10.628 7.740,10.723 7.380 C 10.780 7.163,10.784 7.129,10.784 6.770 C 10.784 6.353,10.765 6.224,10.657 5.898 C 10.580 5.663,10.455 5.414,10.319 5.222 C 9.996 4.765,9.460 4.364,8.935 4.190 C 8.736 4.124,8.682 4.115,8.402 4.100 C 8.230 4.090,7.276 4.077,6.280 4.071 C 4.216 4.058,3.300 4.042,3.300 4.020 C 3.300 4.012,3.407 3.890,3.539 3.749 C 3.834 3.432,3.890 3.339,3.889 3.160 C 3.888 3.069,3.874 2.999,3.842 2.926 C 3.791 2.810,3.637 2.653,3.535 2.611 C 3.451 2.578,3.273 2.562,3.167 2.579 " fill="#1A1C1F" stroke="none" fill-rule="evenodd"></path></svg>