<svg width="32" height="32" viewBox="0 0 32 32" fill="none" xmlns="http://www.w3.org/2000/svg"><path d="M7.009 7.210 C 6.657 7.439,2.884 11.210,2.673 11.544 C 2.494 11.827,2.463 12.078,2.576 12.331 C 2.737 12.692,6.887 16.795,7.240 16.943 C 7.462 17.035,7.673 17.000,7.990 16.817 C 8.260 16.662,8.410 16.439,8.458 16.122 C 8.523 15.690,8.505 15.665,6.914 14.004 L 5.947 12.996 14.671 13.030 L 23.395 13.064 23.879 13.222 C 25.379 13.712,26.355 14.568,27.025 15.984 C 27.354 16.678,27.433 17.162,27.399 18.267 C 27.369 19.238,27.308 19.481,26.892 20.289 C 26.263 21.509,25.299 22.306,23.840 22.814 L 23.387 22.972 17.013 23.006 C 13.508 23.025,10.465 23.062,10.251 23.088 C 10.000 23.118,9.822 23.170,9.750 23.234 C 9.607 23.361,9.388 23.826,9.387 24.003 C 9.386 24.231,9.638 24.654,9.886 24.840 L 10.117 25.013 16.405 25.013 C 20.284 25.013,22.914 24.992,23.269 24.959 C 24.314 24.860,25.710 24.301,26.610 23.622 C 27.832 22.701,28.683 21.533,29.147 20.141 C 29.418 19.328,29.454 19.023,29.427 17.774 C 29.406 16.764,29.391 16.625,29.261 16.196 C 28.827 14.764,28.461 14.153,27.397 13.076 C 26.615 12.284,25.721 11.728,24.640 11.361 C 23.833 11.087,23.938 11.092,18.320 11.040 C 15.416 11.014,11.462 10.991,9.533 10.989 C 7.605 10.988,6.027 10.973,6.027 10.955 C 6.027 10.938,6.535 10.392,7.156 9.742 C 7.776 9.092,8.328 8.488,8.382 8.400 C 8.551 8.124,8.476 7.620,8.225 7.343 C 8.073 7.175,7.751 7.040,7.505 7.040 C 7.333 7.040,7.203 7.085,7.009 7.210 " fill="#1A1C1F" stroke="none" fill-rule="evenodd"></path></svg>