<svg width="20" height="20" viewBox="0 0 20 20" fill="none" xmlns="http://www.w3.org/2000/svg"><path d="M5.240 4.304 C 5.054 4.358,4.936 4.449,4.438 4.923 C 3.786 5.543,2.144 7.251,2.075 7.380 C 1.998 7.523,1.999 7.977,2.075 8.122 C 2.200 8.356,4.717 10.891,5.067 11.135 C 5.171 11.208,5.217 11.217,5.500 11.216 C 5.867 11.215,5.960 11.178,6.189 10.942 C 6.448 10.676,6.532 10.411,6.467 10.068 C 6.422 9.831,6.335 9.711,5.833 9.189 L 5.417 8.756 9.558 8.780 C 11.836 8.794,13.820 8.817,13.967 8.831 C 14.191 8.854,14.289 8.886,14.576 9.028 C 15.104 9.291,15.411 9.581,15.679 10.069 C 15.898 10.468,15.940 10.632,15.958 11.169 C 15.977 11.735,15.950 11.868,15.713 12.361 C 15.389 13.032,14.683 13.573,13.961 13.702 C 13.817 13.728,12.507 13.747,9.817 13.763 L 5.883 13.786 5.725 13.880 C 5.268 14.149,5.086 14.672,5.283 15.145 C 5.356 15.320,5.575 15.547,5.784 15.667 L 5.960 15.768 10.055 15.759 L 14.150 15.750 14.551 15.628 C 15.610 15.305,16.336 14.855,16.917 14.161 C 17.379 13.609,17.675 13.026,17.846 12.329 C 18.007 11.678,18.035 11.196,17.948 10.605 C 17.684 8.830,16.353 7.363,14.583 6.898 C 14.327 6.831,14.203 6.827,11.417 6.797 C 9.822 6.780,7.839 6.763,7.011 6.758 C 6.183 6.754,5.494 6.739,5.481 6.725 C 5.467 6.711,5.612 6.539,5.804 6.342 C 5.995 6.145,6.207 5.915,6.275 5.830 C 6.554 5.486,6.571 5.110,6.326 4.724 C 6.111 4.385,5.620 4.195,5.240 4.304 " fill="#1A1C1F" stroke="none" fill-rule="evenodd"></path></svg>