<svg width="14" height="14" viewBox="0 0 14 14" fill="none" xmlns="http://www.w3.org/2000/svg"><path d="M3.707 3.009 C 3.644 3.017,3.557 3.052,3.498 3.092 C 3.263 3.254,1.542 4.998,1.453 5.164 C 1.426 5.216,1.413 5.296,1.413 5.425 C 1.412 5.584,1.421 5.627,1.470 5.711 C 1.615 5.957,3.421 7.738,3.610 7.821 C 3.743 7.880,3.998 7.872,4.141 7.804 C 4.367 7.696,4.505 7.479,4.522 7.205 C 4.537 6.944,4.485 6.851,4.104 6.454 L 3.799 6.137 5.394 6.139 C 6.271 6.140,7.639 6.149,8.435 6.158 L 9.882 6.174 10.028 6.236 C 10.500 6.434,10.884 6.815,11.073 7.272 C 11.133 7.419,11.139 7.461,11.148 7.796 C 11.160 8.234,11.139 8.355,11.001 8.629 C 10.817 8.993,10.518 9.291,10.164 9.461 C 9.832 9.621,9.986 9.613,6.903 9.636 C 3.779 9.659,4.053 9.641,3.854 9.832 C 3.617 10.058,3.565 10.351,3.711 10.641 C 3.764 10.746,3.954 10.924,4.085 10.991 L 4.188 11.043 6.941 11.029 C 8.580 11.020,9.779 11.005,9.902 10.991 C 10.165 10.960,10.604 10.815,10.893 10.663 C 11.425 10.382,11.874 9.963,12.177 9.463 C 12.281 9.291,12.445 8.876,12.520 8.596 C 12.576 8.384,12.581 8.327,12.581 7.910 C 12.581 7.411,12.560 7.263,12.434 6.881 C 12.129 5.956,11.355 5.201,10.378 4.874 C 10.084 4.775,9.858 4.766,7.315 4.750 C 4.915 4.734,3.850 4.716,3.850 4.690 C 3.850 4.680,3.975 4.538,4.129 4.374 C 4.479 3.998,4.535 3.901,4.533 3.672 C 4.530 3.233,4.174 2.947,3.707 3.009 " fill="#1A1C1F" stroke="none" fill-rule="evenodd"></path></svg>