<svg width="16" height="16" viewBox="0 0 16 16" fill="none" xmlns="http://www.w3.org/2000/svg"><path d="M9.280 1.468 C 7.287 1.716,5.731 3.012,5.171 4.893 C 4.944 5.653,4.911 6.401,5.067 7.210 L 5.119 7.475 3.523 9.081 C 1.782 10.833,1.508 11.127,1.463 11.293 C 1.424 11.435,1.452 11.706,1.517 11.834 C 1.623 12.043,3.669 14.120,4.030 14.387 C 4.213 14.522,4.378 14.572,4.571 14.553 C 4.870 14.522,4.822 14.564,7.081 12.314 L 8.521 10.879 8.778 10.932 C 9.840 11.150,10.868 11.013,11.880 10.519 C 12.668 10.134,13.254 9.626,13.737 8.909 C 14.503 7.771,14.747 6.388,14.414 5.067 C 14.252 4.423,14.119 4.194,13.824 4.054 C 13.640 3.967,13.365 3.967,13.185 4.054 C 13.044 4.123,12.406 4.721,11.440 5.691 L 10.894 6.240 10.329 5.675 L 9.764 5.111 10.779 4.082 C 11.337 3.516,11.834 2.993,11.882 2.920 C 12.047 2.669,12.061 2.446,11.929 2.168 C 11.802 1.897,11.531 1.737,10.978 1.602 C 10.454 1.474,9.703 1.415,9.280 1.468 M9.493 3.062 C 9.493 3.075,9.169 3.419,8.772 3.828 C 8.030 4.592,7.914 4.732,7.863 4.918 C 7.824 5.062,7.848 5.299,7.914 5.429 C 7.944 5.486,8.099 5.677,8.259 5.853 C 8.612 6.240,10.131 7.739,10.373 7.939 C 10.578 8.108,10.763 8.174,10.975 8.152 C 11.238 8.125,11.307 8.071,12.247 7.153 C 12.612 6.798,12.920 6.507,12.932 6.507 C 12.945 6.507,12.950 6.528,12.944 6.553 C 12.939 6.579,12.910 6.718,12.881 6.863 C 12.627 8.115,11.644 9.104,10.400 9.361 C 10.158 9.411,10.061 9.417,9.680 9.405 C 9.288 9.394,9.198 9.382,8.858 9.296 C 8.442 9.191,8.148 9.171,7.991 9.237 C 7.890 9.278,6.781 10.346,5.427 11.704 L 4.494 12.640 3.928 12.074 L 3.361 11.509 4.889 9.974 C 6.438 8.418,6.724 8.114,6.790 7.956 C 6.848 7.817,6.834 7.630,6.734 7.246 C 6.612 6.771,6.576 6.462,6.599 6.068 C 6.630 5.530,6.692 5.284,6.907 4.851 C 7.181 4.296,7.495 3.929,7.950 3.628 C 8.349 3.364,8.657 3.226,9.067 3.129 C 9.465 3.035,9.493 3.030,9.493 3.062 " fill="#1A1C1F" stroke="none" fill-rule="evenodd"></path></svg>