<svg width="28" height="28" viewBox="0 0 28 28" fill="none" xmlns="http://www.w3.org/2000/svg"><path d="M17.687 1.588 C 16.560 1.707,15.371 2.158,14.281 2.880 C 13.567 3.353,12.612 4.297,12.168 4.970 C 11.613 5.812,11.205 6.750,10.981 7.700 C 10.888 8.094,10.860 8.361,10.840 9.063 C 10.812 10.028,10.859 10.549,11.041 11.302 L 11.154 11.770 6.552 16.393 C 4.021 18.936,1.848 21.138,1.724 21.288 C 1.448 21.619,1.399 21.812,1.522 22.088 C 1.631 22.331,2.410 23.137,3.897 24.545 C 5.817 26.364,5.992 26.507,6.305 26.507 C 6.623 26.507,6.646 26.485,12.463 20.683 L 16.270 16.887 16.640 16.981 C 17.416 17.177,17.879 17.237,18.643 17.237 C 21.039 17.239,23.295 16.167,24.779 14.323 C 25.632 13.262,26.179 12.026,26.441 10.570 C 26.707 9.087,26.317 6.629,25.734 6.117 C 25.548 5.954,25.246 5.860,25.023 5.897 C 24.807 5.932,24.604 6.113,22.834 7.861 L 21.303 9.373 19.987 8.061 L 18.671 6.748 20.268 5.136 C 21.146 4.249,21.932 3.420,22.016 3.294 C 22.255 2.930,22.203 2.591,21.861 2.291 C 21.534 2.004,20.737 1.736,19.918 1.638 C 19.372 1.572,18.103 1.544,17.687 1.588 " fill="#1A1C1F" stroke="none" fill-rule="evenodd"></path></svg>