<svg width="14" height="14" viewBox="0 0 14 14" fill="none" xmlns="http://www.w3.org/2000/svg"><path d="M8.155 1.286 C 7.873 1.315,7.482 1.395,7.246 1.471 C 6.955 1.565,6.478 1.803,6.172 2.007 C 5.884 2.199,5.391 2.671,5.186 2.950 C 4.819 3.449,4.557 4.039,4.434 4.639 C 4.320 5.200,4.320 5.751,4.435 6.308 L 4.482 6.538 3.086 7.942 C 1.565 9.473,1.319 9.736,1.280 9.881 C 1.246 10.005,1.270 10.243,1.327 10.355 C 1.352 10.404,1.545 10.627,1.756 10.851 C 2.254 11.381,3.358 12.464,3.527 12.589 C 3.686 12.706,3.831 12.751,3.999 12.734 C 4.262 12.706,4.220 12.743,6.172 10.798 L 7.456 9.519 7.681 9.565 C 8.419 9.717,9.153 9.670,9.874 9.426 C 11.261 8.956,12.254 7.869,12.635 6.402 C 12.776 5.862,12.767 5.026,12.615 4.433 C 12.479 3.901,12.362 3.694,12.128 3.569 C 12.007 3.505,11.966 3.495,11.816 3.495 C 11.519 3.495,11.506 3.504,10.455 4.541 L 9.528 5.457 9.034 4.962 L 8.540 4.468 9.160 3.850 C 9.896 3.117,10.341 2.645,10.433 2.500 C 10.492 2.407,10.500 2.372,10.500 2.216 C 10.500 1.929,10.431 1.792,10.213 1.644 C 9.954 1.470,9.455 1.336,8.874 1.285 C 8.557 1.257,8.427 1.257,8.155 1.286 M8.307 2.680 C 8.307 2.691,8.073 2.941,7.788 3.235 C 6.857 4.193,6.874 4.170,6.874 4.468 C 6.874 4.715,6.904 4.769,7.251 5.146 C 7.583 5.508,8.862 6.769,9.077 6.946 C 9.256 7.095,9.418 7.152,9.603 7.133 C 9.834 7.109,9.894 7.062,10.716 6.259 C 11.035 5.948,11.304 5.693,11.314 5.693 C 11.360 5.693,11.227 6.236,11.114 6.510 C 10.791 7.292,10.189 7.852,9.385 8.119 C 9.089 8.218,8.852 8.245,8.427 8.230 C 8.113 8.218,8.017 8.205,7.745 8.135 C 7.311 8.025,7.196 8.012,7.049 8.061 C 6.944 8.096,6.848 8.180,6.248 8.761 C 5.872 9.125,5.198 9.791,4.748 10.241 L 3.932 11.060 3.437 10.565 L 2.941 10.070 4.278 8.728 C 5.633 7.366,5.883 7.100,5.941 6.962 C 5.992 6.840,5.980 6.682,5.891 6.333 C 5.787 5.922,5.754 5.634,5.773 5.308 C 5.799 4.862,5.855 4.635,6.025 4.275 C 6.415 3.449,7.123 2.905,8.062 2.707 C 8.315 2.654,8.307 2.655,8.307 2.680 " fill="#1A1C1F" stroke="none" fill-rule="evenodd"></path></svg>