<svg width="32" height="32" viewBox="0 0 32 32" fill="none" xmlns="http://www.w3.org/2000/svg"><path d="M20.320 1.796 C 19.521 1.865,18.413 2.184,17.548 2.594 C 16.547 3.069,15.814 3.591,14.982 4.422 C 13.958 5.446,13.390 6.333,12.880 7.706 C 12.529 8.650,12.421 9.232,12.389 10.357 C 12.356 11.460,12.410 12.056,12.618 12.917 L 12.748 13.451 7.488 18.735 C 4.595 21.641,2.112 24.158,1.970 24.329 C 1.657 24.705,1.600 24.927,1.736 25.243 C 1.842 25.493,3.645 27.319,5.310 28.865 C 6.735 30.188,7.000 30.369,7.373 30.275 C 7.616 30.213,8.613 29.255,13.555 24.331 L 18.603 19.302 19.021 19.408 C 20.108 19.683,21.202 19.781,22.107 19.683 C 26.028 19.261,29.110 16.615,30.049 12.865 C 30.253 12.049,30.313 11.554,30.313 10.693 C 30.313 9.599,30.138 8.594,29.777 7.621 C 29.541 6.983,29.105 6.657,28.597 6.739 C 28.351 6.779,28.119 6.987,26.097 8.984 L 24.347 10.712 22.842 9.212 L 21.338 7.712 23.163 5.869 C 24.167 4.856,25.066 3.909,25.161 3.764 C 25.434 3.348,25.375 2.961,24.984 2.618 C 24.616 2.295,23.722 1.991,22.795 1.874 C 22.328 1.815,20.696 1.763,20.320 1.796 M22.334 3.810 C 22.350 3.825,21.740 4.469,20.981 5.242 C 20.221 6.014,19.456 6.810,19.280 7.011 C 18.970 7.364,18.960 7.385,18.961 7.674 C 18.961 7.858,19.000 8.051,19.061 8.176 C 19.181 8.418,23.241 12.518,23.691 12.851 C 24.032 13.103,24.305 13.168,24.606 13.069 C 24.827 12.996,25.379 12.491,27.073 10.812 L 28.252 9.642 28.289 10.065 C 28.329 10.526,28.250 11.641,28.135 12.238 C 27.916 13.368,27.178 14.726,26.305 15.600 C 25.182 16.725,23.917 17.369,22.322 17.628 C 21.373 17.782,20.533 17.717,19.280 17.392 C 18.928 17.300,18.484 17.211,18.293 17.193 L 17.947 17.160 12.558 22.521 L 7.168 27.882 6.851 27.583 C 6.676 27.419,5.986 26.757,5.316 26.113 L 4.099 24.942 8.279 20.751 C 13.483 15.534,14.754 14.232,14.862 14.004 C 14.944 13.832,14.939 13.794,14.732 12.979 C 14.443 11.839,14.392 11.502,14.393 10.718 C 14.394 9.568,14.610 8.594,15.071 7.667 C 16.165 5.465,18.145 4.092,20.693 3.767 C 20.928 3.737,22.297 3.773,22.334 3.810 " fill="#1A1C1F" stroke="none" fill-rule="evenodd"></path></svg>