<svg width="12" height="12" viewBox="0 0 12 12" fill="none" xmlns="http://www.w3.org/2000/svg"><path d="M6.710 1.138 C 6.304 1.213,6.082 1.288,5.719 1.472 C 5.132 1.769,4.663 2.189,4.301 2.740 C 3.894 3.360,3.666 4.245,3.736 4.939 C 3.749 5.069,3.778 5.271,3.801 5.389 L 3.842 5.604 2.666 6.787 C 1.355 8.105,1.131 8.346,1.097 8.469 C 1.068 8.576,1.089 8.779,1.138 8.875 C 1.159 8.918,1.325 9.109,1.505 9.301 C 1.932 9.755,2.878 10.683,3.023 10.790 C 3.160 10.891,3.284 10.929,3.428 10.914 C 3.652 10.891,3.613 10.926,5.290 9.258 L 6.390 8.163 6.580 8.201 C 7.366 8.358,8.133 8.261,8.876 7.909 C 9.299 7.709,9.729 7.388,10.013 7.062 C 10.854 6.095,11.128 4.824,10.757 3.610 C 10.652 3.269,10.579 3.157,10.396 3.059 C 10.289 3.002,10.252 2.993,10.128 2.993 C 9.875 2.993,9.866 3.000,8.966 3.889 L 8.167 4.677 7.744 4.254 L 7.322 3.832 8.037 3.111 C 8.430 2.714,8.805 2.323,8.871 2.242 L 8.990 2.093 8.997 1.907 C 9.003 1.748,8.998 1.707,8.961 1.632 C 8.851 1.406,8.562 1.258,8.032 1.157 C 7.709 1.096,6.993 1.086,6.710 1.138 M7.120 2.296 C 7.120 2.304,6.898 2.540,6.627 2.821 C 5.888 3.585,5.892 3.580,5.892 3.830 C 5.892 4.041,5.918 4.088,6.215 4.411 C 6.502 4.723,7.598 5.804,7.780 5.954 C 7.934 6.081,8.072 6.131,8.231 6.114 C 8.429 6.094,8.484 6.051,9.185 5.365 C 9.458 5.098,9.689 4.880,9.698 4.880 C 9.708 4.880,9.702 4.950,9.686 5.035 C 9.592 5.546,9.384 5.967,9.060 6.306 C 8.768 6.612,8.546 6.765,8.187 6.908 C 7.873 7.032,7.666 7.065,7.270 7.054 C 6.964 7.045,6.901 7.037,6.644 6.972 C 6.301 6.886,6.105 6.876,5.979 6.940 C 5.889 6.986,5.092 7.754,4.070 8.778 L 3.370 9.480 2.946 9.056 L 2.521 8.631 3.667 7.481 C 4.829 6.313,5.043 6.086,5.092 5.967 C 5.136 5.863,5.125 5.731,5.050 5.430 C 4.960 5.074,4.932 4.830,4.949 4.544 C 4.971 4.152,5.031 3.921,5.193 3.608 C 5.542 2.928,6.135 2.482,6.900 2.322 C 7.127 2.275,7.120 2.276,7.120 2.296 " fill="#1A1C1F" stroke="none" fill-rule="evenodd"></path></svg>