<svg width="20" height="20" viewBox="0 0 20 20" fill="none" xmlns="http://www.w3.org/2000/svg"><path d="M11.376 1.868 C 10.030 2.071,8.952 2.616,7.981 3.583 C 7.247 4.314,6.792 5.054,6.502 5.990 C 6.255 6.785,6.166 7.511,6.228 8.217 C 6.250 8.463,6.299 8.816,6.337 9.001 L 6.405 9.337 4.411 11.344 C 2.239 13.528,1.885 13.908,1.829 14.116 C 1.781 14.294,1.815 14.632,1.896 14.793 C 1.933 14.864,2.223 15.198,2.542 15.536 C 3.263 16.299,4.868 17.875,5.058 18.005 C 5.444 18.271,5.834 18.266,6.199 17.988 C 6.299 17.912,7.341 16.896,8.515 15.730 L 10.650 13.610 11.100 13.687 C 12.190 13.872,13.038 13.813,14.050 13.480 C 15.062 13.147,16.044 12.511,16.688 11.770 C 18.089 10.160,18.546 8.037,17.928 6.017 C 17.753 5.444,17.617 5.244,17.288 5.077 C 17.053 4.957,16.717 4.954,16.481 5.068 C 16.305 5.153,15.507 5.901,14.300 7.114 L 13.617 7.800 12.911 7.094 L 12.204 6.388 13.441 5.136 C 14.122 4.447,14.741 3.798,14.819 3.693 C 15.058 3.369,15.086 3.078,14.913 2.713 C 14.680 2.219,13.868 1.920,12.532 1.835 C 11.859 1.792,11.875 1.792,11.376 1.868 M11.867 3.827 C 11.867 3.842,11.548 4.184,11.158 4.586 C 9.799 5.990,9.820 5.962,9.820 6.383 C 9.820 6.731,9.863 6.811,10.324 7.317 C 10.765 7.800,12.664 9.674,12.967 9.924 C 13.223 10.136,13.454 10.218,13.719 10.190 C 14.049 10.156,14.143 10.082,15.308 8.942 C 15.762 8.497,16.146 8.133,16.162 8.133 C 16.233 8.133,16.037 8.919,15.863 9.328 C 15.334 10.573,14.296 11.434,13.000 11.701 C 12.697 11.763,12.576 11.771,12.100 11.757 C 11.608 11.742,11.499 11.727,11.067 11.618 C 10.534 11.484,10.195 11.460,9.996 11.542 C 9.862 11.598,8.532 12.877,6.784 14.630 L 5.617 15.800 4.909 15.093 L 4.202 14.386 6.111 12.468 C 8.048 10.522,8.405 10.143,8.487 9.946 C 8.560 9.771,8.542 9.545,8.416 9.047 C 8.256 8.416,8.213 7.977,8.261 7.456 C 8.313 6.888,8.429 6.458,8.649 6.017 C 9.210 4.895,10.207 4.147,11.517 3.869 C 11.877 3.792,11.867 3.793,11.867 3.827 " fill="#1A1C1F" stroke="none" fill-rule="evenodd"></path></svg>