<svg width="20" height="20" viewBox="0 0 20 20" fill="none" xmlns="http://www.w3.org/2000/svg"><path d="M11.376 1.868 C 10.030 2.071,8.952 2.616,7.981 3.583 C 7.247 4.314,6.792 5.054,6.502 5.990 C 6.255 6.785,6.166 7.511,6.228 8.217 C 6.250 8.463,6.299 8.816,6.337 9.001 L 6.405 9.337 4.411 11.344 C 2.239 13.528,1.885 13.908,1.829 14.116 C 1.781 14.294,1.815 14.632,1.896 14.793 C 1.933 14.864,2.223 15.198,2.542 15.536 C 3.263 16.299,4.868 17.875,5.058 18.005 C 5.444 18.271,5.834 18.266,6.199 17.988 C 6.299 17.912,7.341 16.896,8.515 15.730 L 10.650 13.610 11.100 13.687 C 12.190 13.872,13.038 13.813,14.050 13.480 C 15.062 13.147,16.044 12.511,16.688 11.770 C 18.089 10.160,18.546 8.037,17.928 6.017 C 17.753 5.444,17.617 5.244,17.288 5.077 C 17.053 4.957,16.717 4.954,16.481 5.068 C 16.305 5.153,15.507 5.901,14.300 7.114 L 13.617 7.800 12.911 7.094 L 12.204 6.388 13.441 5.136 C 14.122 4.447,14.741 3.798,14.819 3.693 C 15.058 3.369,15.086 3.078,14.913 2.713 C 14.680 2.219,13.868 1.920,12.532 1.835 C 11.859 1.792,11.875 1.792,11.376 1.868 " fill="#1A1C1F" stroke="none" fill-rule="evenodd"></path></svg>