<svg width="12" height="12" viewBox="0 0 12 12" fill="none" xmlns="http://www.w3.org/2000/svg"><path d="M6.960 1.101 C 6.185 1.195,5.520 1.489,4.961 1.983 C 4.236 2.624,3.834 3.423,3.737 4.417 C 3.709 4.699,3.733 5.067,3.800 5.408 L 3.839 5.607 2.665 6.788 C 1.355 8.105,1.131 8.346,1.097 8.469 C 1.068 8.576,1.089 8.779,1.138 8.875 C 1.159 8.918,1.325 9.109,1.505 9.301 C 1.932 9.755,2.878 10.683,3.023 10.790 C 3.160 10.891,3.284 10.929,3.428 10.914 C 3.652 10.891,3.613 10.926,5.290 9.258 L 6.390 8.163 6.580 8.201 C 7.366 8.358,8.133 8.261,8.876 7.909 C 9.299 7.709,9.729 7.388,10.013 7.062 C 10.854 6.095,11.128 4.824,10.757 3.610 C 10.652 3.269,10.579 3.157,10.396 3.059 C 10.289 3.002,10.252 2.993,10.129 2.993 C 10.020 2.993,9.963 3.004,9.889 3.041 C 9.783 3.092,9.304 3.541,8.580 4.268 L 8.170 4.680 7.746 4.256 L 7.323 3.833 8.064 3.081 C 8.472 2.668,8.841 2.284,8.883 2.229 C 9.034 2.029,9.054 1.843,8.948 1.626 C 8.850 1.423,8.634 1.295,8.234 1.200 C 7.838 1.106,7.274 1.062,6.960 1.101 " fill="#1A1C1F" stroke="none" fill-rule="evenodd"></path></svg>