<svg width="16" height="16" viewBox="0 0 16 16" fill="none" xmlns="http://www.w3.org/2000/svg"><path d="M9.283 1.469 C 7.942 1.620,6.786 2.275,5.944 3.361 C 5.385 4.081,5.037 5.028,4.974 6.000 C 4.953 6.317,4.991 6.801,5.068 7.205 L 5.119 7.475 3.523 9.081 C 1.782 10.833,1.508 11.127,1.463 11.293 C 1.424 11.435,1.452 11.706,1.517 11.834 C 1.623 12.043,3.669 14.120,4.030 14.387 C 4.213 14.522,4.378 14.572,4.571 14.553 C 4.870 14.522,4.822 14.564,7.081 12.314 L 8.521 10.879 8.778 10.932 C 9.840 11.150,10.868 11.013,11.880 10.519 C 12.071 10.426,12.317 10.290,12.427 10.217 C 13.741 9.344,14.557 7.831,14.559 6.261 C 14.561 5.628,14.403 4.829,14.197 4.421 C 13.983 3.997,13.470 3.857,13.080 4.117 C 13.007 4.165,12.484 4.662,11.918 5.221 L 10.889 6.236 10.332 5.678 L 9.774 5.121 9.936 4.954 C 10.025 4.862,10.480 4.397,10.946 3.920 C 11.412 3.443,11.833 2.993,11.882 2.920 C 12.047 2.668,12.062 2.449,11.933 2.174 C 11.816 1.928,11.578 1.770,11.131 1.642 C 10.592 1.488,9.785 1.412,9.283 1.469 " fill="#1A1C1F" stroke="none" fill-rule="evenodd"></path></svg>