<svg width="28" height="28" viewBox="0 0 28 28" fill="none" xmlns="http://www.w3.org/2000/svg"><path d="M17.687 1.588 C 16.560 1.707,15.371 2.158,14.281 2.880 C 13.567 3.353,12.612 4.297,12.168 4.970 C 11.613 5.812,11.205 6.750,10.981 7.700 C 10.888 8.094,10.860 8.361,10.840 9.063 C 10.812 10.028,10.859 10.549,11.041 11.302 L 11.154 11.770 6.552 16.393 C 4.021 18.936,1.848 21.138,1.724 21.288 C 1.448 21.619,1.399 21.812,1.522 22.088 C 1.631 22.331,2.410 23.137,3.897 24.545 C 5.817 26.364,5.992 26.507,6.305 26.507 C 6.623 26.507,6.646 26.485,12.463 20.683 L 16.270 16.887 16.640 16.981 C 17.416 17.177,17.879 17.237,18.643 17.237 C 21.039 17.239,23.295 16.167,24.779 14.323 C 25.632 13.262,26.179 12.026,26.441 10.570 C 26.707 9.087,26.317 6.629,25.734 6.117 C 25.548 5.954,25.246 5.860,25.023 5.897 C 24.807 5.932,24.604 6.113,22.834 7.861 L 21.303 9.373 19.987 8.061 L 18.671 6.748 20.268 5.136 C 21.146 4.249,21.932 3.420,22.016 3.294 C 22.255 2.930,22.203 2.591,21.861 2.291 C 21.534 2.004,20.737 1.736,19.918 1.638 C 19.372 1.572,18.103 1.544,17.687 1.588 M19.542 3.333 C 19.556 3.347,19.023 3.911,18.359 4.586 C 17.694 5.261,17.024 5.958,16.870 6.134 C 16.599 6.443,16.590 6.462,16.590 6.715 C 16.591 6.876,16.625 7.045,16.678 7.154 C 16.783 7.365,20.339 10.956,20.730 11.245 C 21.028 11.465,21.267 11.522,21.530 11.436 C 21.724 11.372,22.207 10.930,23.690 9.458 L 24.724 8.434 24.756 8.825 C 24.790 9.255,24.718 10.251,24.617 10.732 C 24.406 11.735,23.770 12.896,23.017 13.650 C 22.035 14.635,20.928 15.198,19.531 15.425 C 18.701 15.559,17.963 15.502,16.876 15.218 C 16.571 15.138,16.182 15.060,16.012 15.044 L 15.703 15.016 10.988 19.706 L 6.272 24.397 5.994 24.134 C 5.841 23.989,5.236 23.410,4.651 22.847 L 3.586 21.824 7.268 18.134 C 11.829 13.561,12.909 12.453,13.006 12.249 C 13.080 12.096,13.077 12.069,12.951 11.610 C 12.672 10.594,12.642 10.408,12.615 9.567 C 12.586 8.638,12.647 8.156,12.880 7.459 C 13.573 5.391,15.302 3.854,17.434 3.412 C 17.688 3.359,17.970 3.306,18.060 3.295 C 18.271 3.269,19.510 3.301,19.542 3.333 " fill="#1A1C1F" stroke="none" fill-rule="evenodd"></path></svg>