<svg width="14" height="14" viewBox="0 0 14 14" fill="none" xmlns="http://www.w3.org/2000/svg"><path d="M8.122 1.285 C 8.015 1.297,7.821 1.329,7.691 1.355 C 6.394 1.618,5.221 2.573,4.704 3.788 C 4.350 4.618,4.263 5.428,4.433 6.305 L 4.479 6.541 3.082 7.946 C 1.559 9.479,1.319 9.737,1.280 9.881 C 1.246 10.005,1.270 10.243,1.327 10.355 C 1.352 10.404,1.545 10.627,1.756 10.851 C 2.254 11.381,3.358 12.464,3.527 12.589 C 3.686 12.706,3.831 12.751,3.999 12.734 C 4.262 12.706,4.220 12.743,6.172 10.798 L 7.456 9.519 7.681 9.565 C 8.075 9.646,8.475 9.672,8.838 9.641 C 10.318 9.513,11.637 8.643,12.260 7.386 C 12.560 6.782,12.683 6.356,12.721 5.791 C 12.757 5.271,12.724 4.859,12.614 4.430 C 12.479 3.902,12.349 3.681,12.100 3.552 C 12.004 3.503,11.950 3.491,11.815 3.492 C 11.521 3.493,11.510 3.501,10.460 4.537 L 9.528 5.457 9.034 4.962 L 8.540 4.468 8.997 4.013 C 9.846 3.168,10.393 2.585,10.454 2.461 C 10.576 2.214,10.499 1.879,10.275 1.682 C 9.965 1.409,8.849 1.203,8.122 1.285 " fill="#1A1C1F" stroke="none" fill-rule="evenodd"></path></svg>