<svg width="24" height="24" viewBox="0 0 24 24" fill="none" xmlns="http://www.w3.org/2000/svg"><path d="M13.960 1.760 C 12.163 1.969,10.439 2.862,9.251 4.200 C 8.382 5.178,7.776 6.375,7.500 7.659 C 7.250 8.817,7.269 9.783,7.565 11.051 L 7.647 11.401 4.917 14.151 C 3.416 15.663,2.085 17.019,1.959 17.165 C 1.778 17.375,1.725 17.468,1.703 17.615 C 1.658 17.917,1.712 18.143,1.879 18.353 C 2.135 18.673,5.489 21.974,5.698 22.111 C 5.939 22.270,6.167 22.335,6.355 22.300 C 6.728 22.230,6.691 22.264,10.481 18.490 L 12.622 16.358 12.821 16.420 C 13.175 16.530,13.908 16.638,14.471 16.665 C 16.052 16.738,17.597 16.322,18.879 15.479 C 19.381 15.149,19.621 14.953,20.094 14.488 C 21.387 13.217,22.129 11.606,22.288 9.730 C 22.378 8.660,22.189 7.400,21.795 6.454 C 21.589 5.959,21.303 5.760,20.797 5.760 C 20.507 5.760,20.495 5.764,20.280 5.934 C 20.159 6.029,19.339 6.820,18.457 7.691 L 16.854 9.274 15.797 8.217 L 14.741 7.160 15.903 5.990 C 17.770 4.111,18.191 3.660,18.238 3.490 C 18.378 2.985,18.190 2.550,17.727 2.307 C 17.401 2.136,16.771 1.945,16.183 1.839 C 15.679 1.748,14.439 1.704,13.960 1.760 M15.240 3.761 C 15.240 3.783,14.637 4.415,13.899 5.165 C 13.161 5.915,12.509 6.613,12.449 6.715 C 12.360 6.866,12.340 6.947,12.341 7.160 C 12.342 7.322,12.367 7.466,12.408 7.542 C 12.444 7.609,12.688 7.897,12.950 8.182 C 13.508 8.789,15.972 11.224,16.252 11.446 C 16.488 11.633,16.706 11.696,16.989 11.661 C 17.261 11.627,17.359 11.546,18.601 10.336 C 20.119 8.859,20.242 8.746,20.291 8.795 C 20.322 8.826,20.321 9.010,20.288 9.451 C 20.217 10.407,20.109 10.825,19.742 11.580 C 18.910 13.291,17.295 14.437,15.432 14.638 C 14.599 14.728,14.065 14.675,13.160 14.413 C 12.849 14.323,12.539 14.262,12.340 14.250 L 12.020 14.231 11.680 14.530 C 11.493 14.694,10.192 15.967,8.789 17.359 L 6.239 19.889 5.179 18.860 C 4.597 18.294,4.120 17.821,4.120 17.808 C 4.120 17.796,5.071 16.831,6.233 15.663 C 7.396 14.495,8.654 13.220,9.030 12.829 C 9.929 11.893,9.914 11.944,9.588 10.860 L 9.420 10.300 9.420 9.200 C 9.420 8.113,9.421 8.095,9.532 7.720 C 9.680 7.214,10.094 6.377,10.401 5.959 C 11.233 4.828,12.510 4.038,13.920 3.782 C 14.279 3.716,15.240 3.701,15.240 3.761 " fill="#1A1C1F" stroke="none" fill-rule="evenodd"></path></svg>