<svg width="24" height="24" viewBox="0 0 24 24" fill="none" xmlns="http://www.w3.org/2000/svg"><path d="M13.859 2.040 C 13.492 2.062,13.381 2.085,13.199 2.177 C 12.682 2.436,12.303 2.858,12.116 3.383 C 12.046 3.582,12.027 3.766,11.998 4.520 C 11.950 5.790,11.900 6.017,11.340 7.540 C 11.179 7.980,11.176 8.117,11.321 8.403 C 11.517 8.786,11.849 9.012,12.214 9.010 C 12.685 9.008,13.012 8.727,13.261 8.111 C 13.816 6.735,13.998 5.847,13.999 4.490 L 14.000 4.000 15.000 4.000 L 16.000 4.000 16.000 4.590 C 16.001 5.950,16.152 6.554,17.100 8.980 C 17.358 9.640,17.641 10.396,17.729 10.659 C 17.882 11.116,17.891 11.170,17.923 11.839 C 17.941 12.225,17.969 14.218,17.985 16.270 L 18.013 20.000 16.737 20.001 C 15.361 20.003,14.708 20.042,14.532 20.135 C 14.387 20.211,14.187 20.424,14.101 20.596 C 14.017 20.762,14.006 21.125,14.078 21.338 C 14.149 21.549,14.453 21.868,14.635 21.924 C 14.728 21.952,15.460 21.976,16.692 21.989 L 18.604 22.010 18.912 21.858 C 19.536 21.550,19.890 21.048,19.961 20.374 C 20.009 19.923,20.009 12.619,19.962 11.820 C 19.903 10.828,19.807 10.487,18.983 8.345 C 18.091 6.027,18.070 5.943,18.003 4.458 C 17.961 3.515,17.904 3.250,17.663 2.895 C 17.478 2.622,17.153 2.350,16.829 2.198 C 16.600 2.091,16.494 2.069,16.072 2.038 C 15.518 1.998,14.520 1.999,13.859 2.040 M4.657 11.078 C 4.495 11.116,4.304 11.261,4.182 11.437 C 4.004 11.694,3.988 11.794,4.038 12.330 C 4.141 13.430,4.902 19.896,5.039 20.834 C 5.142 21.537,5.243 21.714,5.668 21.934 C 5.783 21.993,6.062 22.000,8.500 22.000 C 10.916 22.000,11.218 21.993,11.332 21.935 C 11.543 21.828,11.785 21.612,11.851 21.472 C 11.922 21.321,12.037 20.493,12.319 18.100 C 12.719 14.703,12.927 12.767,12.947 12.240 L 12.968 11.700 12.846 11.512 C 12.779 11.409,12.650 11.275,12.559 11.214 C 12.415 11.119,12.336 11.101,11.966 11.075 C 11.416 11.036,4.819 11.039,4.657 11.078 M10.902 13.090 C 10.879 13.191,10.801 13.854,10.401 17.320 C 10.247 18.651,10.110 19.808,10.097 19.890 L 10.073 20.040 8.505 20.040 L 6.938 20.040 6.786 18.690 C 6.702 17.948,6.623 17.264,6.611 17.170 L 6.589 17.000 7.427 17.000 L 8.264 17.000 8.445 16.886 C 8.681 16.736,8.864 16.509,8.945 16.266 C 9.026 16.020,8.976 15.744,8.799 15.465 C 8.575 15.112,8.470 15.085,7.171 15.045 L 6.343 15.020 6.254 14.200 C 6.206 13.749,6.154 13.304,6.141 13.211 L 6.115 13.042 6.668 13.030 C 6.971 13.023,8.053 13.014,9.071 13.009 L 10.922 13.000 10.902 13.090 " fill="#1A1C1F" stroke="none" fill-rule="evenodd"></path></svg>