<svg width="16" height="16" viewBox="0 0 16 16" fill="none" xmlns="http://www.w3.org/2000/svg"><path d="M8.613 1.624 C 8.151 1.642,8.145 1.643,7.961 1.735 C 7.725 1.851,7.473 2.085,7.365 2.288 C 7.221 2.558,7.201 2.706,7.200 3.495 L 7.200 4.203 7.270 4.343 C 7.421 4.647,7.648 4.787,7.987 4.785 C 8.248 4.783,8.421 4.715,8.581 4.552 C 8.763 4.366,8.781 4.296,8.794 3.713 L 8.806 3.200 9.603 3.200 L 10.400 3.200 10.400 3.649 C 10.400 4.741,10.531 5.239,11.100 6.307 C 11.486 7.031,11.837 7.757,11.905 7.973 L 11.968 8.173 11.988 10.482 L 12.007 12.791 11.096 12.808 L 10.185 12.824 10.052 12.897 C 9.860 13.001,9.693 13.191,9.642 13.362 C 9.590 13.537,9.590 13.558,9.643 13.793 C 9.681 13.958,9.705 14.003,9.820 14.124 C 10.072 14.391,9.990 14.378,11.573 14.394 L 12.954 14.408 13.084 14.345 C 13.230 14.275,13.461 14.056,13.537 13.918 C 13.585 13.830,13.587 13.711,13.587 10.920 L 13.587 8.013 13.488 7.675 C 13.433 7.489,13.350 7.237,13.302 7.115 C 13.214 6.892,13.163 6.790,12.502 5.493 C 12.262 5.023,12.126 4.725,12.096 4.601 C 12.042 4.383,12.002 3.868,12.000 3.360 C 11.998 2.789,11.965 2.554,11.854 2.330 C 11.697 2.012,11.350 1.734,11.010 1.654 C 10.863 1.620,9.233 1.599,8.613 1.624 M3.025 7.251 C 2.856 7.271,2.660 7.406,2.540 7.584 C 2.377 7.826,2.377 7.830,2.504 8.742 C 2.653 9.806,2.954 11.808,3.092 12.653 C 3.297 13.912,3.324 14.002,3.553 14.200 C 3.787 14.401,3.624 14.387,5.627 14.387 L 7.427 14.387 7.558 14.322 C 7.722 14.241,7.884 14.082,7.948 13.937 C 8.026 13.759,8.198 12.631,8.573 9.834 C 8.794 8.178,8.820 7.930,8.779 7.796 C 8.723 7.610,8.597 7.446,8.423 7.333 L 8.258 7.227 5.709 7.230 C 4.307 7.232,3.099 7.242,3.025 7.251 M7.078 8.953 C 7.068 9.038,6.943 9.935,6.801 10.947 L 6.543 12.787 5.637 12.794 L 4.731 12.801 4.684 12.460 C 4.658 12.273,4.536 11.424,4.413 10.573 C 4.290 9.723,4.185 8.985,4.181 8.933 L 4.173 8.840 4.493 8.825 C 4.669 8.817,5.327 8.808,5.955 8.805 L 7.097 8.800 7.078 8.953 " fill="#1A1C1F" stroke="none" fill-rule="evenodd"></path></svg>