<svg width="14" height="14" viewBox="0 0 14 14" fill="none" xmlns="http://www.w3.org/2000/svg"><path d="M7.537 1.421 C 7.133 1.437,7.127 1.438,6.965 1.518 C 6.759 1.620,6.539 1.825,6.444 2.002 C 6.318 2.238,6.301 2.368,6.300 3.058 L 6.300 3.678 6.361 3.801 C 6.494 4.066,6.692 4.189,6.988 4.187 C 7.217 4.185,7.369 4.126,7.509 3.983 C 7.668 3.820,7.683 3.759,7.695 3.249 L 7.706 2.800 8.403 2.800 L 9.100 2.800 9.100 3.194 C 9.100 4.110,9.203 4.530,9.626 5.348 C 10.114 6.290,10.344 6.762,10.407 6.950 L 10.474 7.152 10.491 9.172 L 10.507 11.192 9.720 11.208 C 8.830 11.225,8.824 11.226,8.620 11.414 C 8.471 11.550,8.416 11.680,8.417 11.891 C 8.418 12.099,8.479 12.244,8.629 12.397 C 8.810 12.582,8.797 12.580,10.154 12.594 L 11.336 12.606 11.449 12.552 C 11.511 12.522,11.617 12.442,11.685 12.374 C 11.907 12.153,11.887 12.406,11.895 9.597 C 11.901 7.152,11.901 7.116,11.853 6.925 C 11.704 6.331,11.605 6.095,11.081 5.087 C 10.878 4.695,10.681 4.296,10.643 4.200 C 10.549 3.960,10.527 3.782,10.501 2.998 C 10.488 2.626,10.466 2.280,10.451 2.228 C 10.351 1.874,10.023 1.551,9.670 1.459 C 9.508 1.416,8.224 1.393,7.537 1.421 M2.647 6.344 C 2.499 6.363,2.327 6.481,2.223 6.636 C 2.084 6.841,2.083 6.868,2.167 7.474 C 2.377 8.991,2.725 11.256,2.838 11.842 C 2.906 12.195,2.959 12.302,3.132 12.439 C 3.355 12.615,3.213 12.603,4.942 12.595 L 6.498 12.588 6.613 12.532 C 6.758 12.461,6.898 12.321,6.955 12.193 C 7.008 12.074,7.065 11.727,7.268 10.290 C 7.508 8.589,7.678 7.310,7.693 7.088 C 7.710 6.831,7.669 6.712,7.504 6.537 C 7.294 6.315,7.538 6.335,5.005 6.332 C 3.773 6.330,2.712 6.335,2.647 6.344 M6.195 7.823 C 6.186 7.890,6.090 8.580,5.981 9.357 C 5.873 10.133,5.771 10.863,5.755 10.978 L 5.727 11.188 4.934 11.188 L 4.142 11.188 4.103 10.920 C 3.884 9.422,3.661 7.861,3.657 7.805 L 3.652 7.735 3.920 7.722 C 4.068 7.715,4.643 7.707,5.200 7.705 L 6.211 7.700 6.195 7.823 " fill="#1A1C1F" stroke="none" fill-rule="evenodd"></path></svg>