<svg width="28" height="28" viewBox="0 0 28 28" fill="none" xmlns="http://www.w3.org/2000/svg"><path d="M16.121 1.818 C 15.751 1.861,15.410 2.049,15.103 2.382 C 14.736 2.777,14.698 2.935,14.652 4.247 C 14.593 5.917,14.558 6.038,13.439 8.353 C 12.818 9.639,12.663 10.046,12.715 10.258 C 12.813 10.659,13.230 10.952,13.634 10.905 C 14.122 10.847,14.266 10.653,15.119 8.901 C 16.208 6.664,16.356 6.154,16.412 4.422 L 16.441 3.500 17.291 3.500 L 18.140 3.500 18.168 4.492 C 18.220 6.311,18.241 6.377,19.823 9.683 C 20.508 11.115,20.611 11.394,20.677 12.006 C 20.710 12.316,20.737 14.592,20.753 18.492 L 20.778 24.500 19.290 24.505 C 18.473 24.507,17.597 24.523,17.345 24.540 L 16.887 24.570 16.683 24.785 C 16.444 25.039,16.385 25.256,16.469 25.571 C 16.541 25.841,16.703 26.052,16.915 26.153 C 17.061 26.222,17.329 26.236,18.984 26.260 C 20.858 26.287,20.890 26.286,21.195 26.185 C 21.754 25.999,22.107 25.696,22.395 25.156 L 22.540 24.884 22.540 18.440 L 22.540 11.997 22.380 11.377 C 22.176 10.585,22.047 10.273,21.211 8.540 C 20.448 6.959,20.177 6.347,20.083 5.998 C 20.048 5.869,19.998 5.375,19.972 4.900 C 19.862 2.905,19.837 2.785,19.448 2.355 C 19.118 1.990,18.844 1.864,18.277 1.817 C 17.725 1.771,16.528 1.772,16.121 1.818 M6.813 14.092 C 6.672 14.110,6.485 14.162,6.398 14.208 C 6.164 14.328,5.812 14.701,5.675 14.970 C 5.457 15.400,5.453 15.508,5.605 16.563 C 5.838 18.179,6.511 22.184,6.863 24.057 C 7.092 25.270,7.229 25.578,7.696 25.920 C 8.119 26.231,8.251 26.245,10.664 26.248 L 12.812 26.250 13.114 26.101 C 13.447 25.937,13.866 25.552,14.003 25.286 C 14.141 25.017,14.407 23.592,14.998 19.950 C 15.487 16.937,15.602 16.129,15.606 15.680 C 15.610 15.274,15.599 15.216,15.474 14.991 C 15.305 14.686,14.932 14.328,14.616 14.168 L 14.376 14.047 10.723 14.053 C 8.714 14.056,6.955 14.074,6.813 14.092 M13.887 15.902 C 13.872 15.972,13.556 17.867,13.185 20.113 C 12.814 22.359,12.496 24.265,12.479 24.348 L 12.448 24.500 10.623 24.499 C 9.618 24.499,8.771 24.482,8.740 24.462 C 8.685 24.427,8.167 21.463,8.167 21.181 C 8.167 21.085,8.190 21.046,8.248 21.044 C 10.732 20.965,10.700 20.971,10.986 20.611 C 11.109 20.457,11.128 20.396,11.125 20.168 C 11.120 19.851,10.987 19.561,10.776 19.411 C 10.636 19.311,10.578 19.306,9.261 19.279 C 8.445 19.262,7.874 19.231,7.849 19.203 C 7.814 19.165,7.290 16.235,7.265 15.937 C 7.257 15.848,7.293 15.842,8.003 15.818 C 8.414 15.804,9.912 15.789,11.332 15.783 L 13.914 15.773 13.887 15.902 " fill="#1A1C1F" stroke="none" fill-rule="evenodd"></path></svg>