<svg width="20" height="20" viewBox="0 0 20 20" fill="none" xmlns="http://www.w3.org/2000/svg"><path d="M10.733 2.030 C 10.195 2.053,10.178 2.056,9.951 2.168 C 9.656 2.314,9.341 2.606,9.206 2.860 C 9.026 3.198,9.001 3.383,9.000 4.368 C 9.000 5.247,9.001 5.255,9.084 5.422 C 9.190 5.635,9.375 5.823,9.567 5.913 C 9.681 5.966,9.779 5.982,9.983 5.981 C 10.310 5.979,10.527 5.894,10.727 5.690 C 10.952 5.459,10.975 5.370,10.993 4.642 L 11.009 4.000 12.004 4.000 L 13.000 4.000 13.000 4.561 C 13.000 5.926,13.173 6.579,13.887 7.908 C 14.342 8.757,14.795 9.694,14.881 9.967 L 14.960 10.217 14.984 13.103 L 15.009 15.989 13.871 16.011 C 12.589 16.035,12.614 16.030,12.308 16.311 C 12.101 16.500,12.022 16.689,12.024 16.986 C 12.026 17.285,12.113 17.492,12.326 17.709 C 12.586 17.974,12.567 17.971,14.506 17.991 L 16.195 18.009 16.356 17.931 C 16.537 17.843,16.827 17.570,16.921 17.398 C 16.981 17.288,16.984 17.130,16.993 13.727 L 17.002 10.171 16.917 9.835 C 16.710 9.018,16.570 8.686,15.848 7.302 C 15.584 6.796,15.317 6.262,15.253 6.116 C 15.073 5.697,15.039 5.457,15.002 4.331 C 14.984 3.773,14.952 3.257,14.931 3.183 C 14.787 2.670,14.285 2.191,13.763 2.068 C 13.579 2.025,11.469 1.998,10.733 2.030 M3.780 9.063 C 3.595 9.086,3.389 9.208,3.243 9.381 C 3.127 9.518,3.001 9.794,3.000 9.912 C 3.000 10.100,3.569 13.991,3.852 15.733 C 4.122 17.397,4.152 17.501,4.441 17.750 C 4.733 18.002,4.530 17.983,7.033 17.983 L 9.283 17.983 9.447 17.903 C 9.655 17.800,9.855 17.602,9.937 17.415 C 10.011 17.248,10.106 16.659,10.431 14.350 C 10.975 10.487,11.039 9.937,10.970 9.728 C 10.895 9.500,10.740 9.303,10.529 9.166 L 10.323 9.033 7.136 9.038 C 5.384 9.041,3.873 9.052,3.780 9.063 M8.850 11.175 C 8.777 11.732,8.197 15.863,8.183 15.925 L 8.165 16.000 7.041 16.000 L 5.917 16.000 5.571 13.602 C 5.381 12.283,5.218 11.166,5.209 11.120 L 5.193 11.036 5.571 11.025 C 5.780 11.019,6.608 11.011,7.411 11.007 L 8.873 11.000 8.850 11.175 " fill="#1A1C1F" stroke="none" fill-rule="evenodd"></path></svg>