<svg width="32" height="32" viewBox="0 0 32 32" fill="none" xmlns="http://www.w3.org/2000/svg"><path d="M18.424 2.078 C 18.001 2.127,17.612 2.342,17.260 2.722 C 16.841 3.174,16.798 3.354,16.745 4.853 C 16.678 6.763,16.637 6.901,15.359 9.547 C 14.649 11.016,14.473 11.481,14.532 11.724 C 14.592 11.969,14.829 12.258,15.063 12.371 C 15.486 12.576,15.889 12.489,16.220 12.122 C 16.456 11.861,18.049 8.673,18.293 7.973 C 18.613 7.060,18.772 5.950,18.773 4.627 L 18.773 4.000 19.752 4.000 L 20.731 4.000 20.763 5.133 C 20.823 7.213,20.847 7.288,22.655 11.067 C 23.438 12.703,23.555 13.022,23.631 13.721 C 23.669 14.075,23.699 16.674,23.718 21.126 L 23.746 27.986 21.583 28.010 C 19.423 28.034,19.421 28.034,19.239 28.159 C 18.726 28.511,18.631 29.189,19.029 29.662 C 19.294 29.978,19.351 29.985,21.573 30.013 C 23.762 30.040,24.060 30.014,24.610 29.756 C 24.955 29.594,25.377 29.166,25.588 28.766 L 25.760 28.438 25.760 21.091 L 25.760 13.744 25.595 13.072 C 25.376 12.180,25.197 11.744,24.254 9.787 C 23.370 7.954,23.060 7.256,22.952 6.855 C 22.912 6.707,22.855 6.131,22.825 5.573 C 22.706 3.356,22.670 3.182,22.227 2.691 C 21.849 2.274,21.536 2.130,20.888 2.076 C 20.257 2.024,18.889 2.025,18.424 2.078 M7.758 16.106 C 7.406 16.158,7.213 16.263,6.890 16.577 C 6.602 16.857,6.379 17.245,6.298 17.605 C 6.240 17.865,6.372 18.863,6.854 21.787 C 7.596 26.285,8.013 28.510,8.186 28.892 C 8.347 29.245,8.717 29.606,9.108 29.792 C 9.372 29.917,9.518 29.943,10.187 29.986 C 10.612 30.014,11.795 30.025,12.815 30.011 L 14.670 29.986 15.002 29.823 C 15.376 29.638,15.848 29.205,16.001 28.904 C 16.058 28.793,16.164 28.406,16.237 28.045 C 16.634 26.076,17.782 18.952,17.847 18.053 C 17.873 17.694,17.860 17.578,17.761 17.318 C 17.611 16.921,17.174 16.446,16.755 16.222 L 16.438 16.053 12.233 16.060 C 9.919 16.064,7.906 16.084,7.758 16.106 M15.871 18.173 C 15.854 18.254,15.493 20.420,15.069 22.987 C 14.644 25.553,14.281 27.731,14.262 27.827 L 14.227 28.000 12.140 27.999 C 10.992 27.999,10.024 27.980,9.988 27.957 C 9.925 27.917,9.333 24.529,9.333 24.207 C 9.333 24.097,9.360 24.052,9.427 24.050 C 12.265 23.960,12.229 23.966,12.556 23.556 C 12.696 23.380,12.718 23.310,12.714 23.049 C 12.709 22.686,12.556 22.355,12.314 22.183 C 12.152 22.067,12.092 22.062,10.582 22.031 C 9.649 22.013,8.999 21.978,8.970 21.947 C 8.930 21.902,8.331 18.554,8.302 18.213 C 8.294 18.112,8.335 18.105,9.173 18.078 C 9.657 18.062,11.369 18.044,12.978 18.038 L 15.902 18.027 15.871 18.173 " fill="#1A1C1F" stroke="none" fill-rule="evenodd"></path></svg>