<svg width="12" height="12" viewBox="0 0 12 12" fill="none" xmlns="http://www.w3.org/2000/svg"><path d="M6.450 1.218 C 6.115 1.232,6.108 1.233,5.970 1.301 C 5.794 1.388,5.605 1.564,5.524 1.716 C 5.415 1.919,5.401 2.029,5.400 2.630 L 5.400 3.170 5.459 3.272 C 5.591 3.502,5.739 3.590,5.990 3.589 C 6.186 3.587,6.316 3.536,6.436 3.414 C 6.571 3.276,6.585 3.222,6.596 2.785 L 6.605 2.400 7.200 2.400 L 7.795 2.400 7.805 2.865 C 7.825 3.717,7.863 3.835,8.554 5.180 C 8.721 5.505,8.882 5.842,8.912 5.930 L 8.967 6.090 8.982 7.020 C 8.990 7.532,8.997 8.320,8.998 8.772 L 9.000 9.594 8.318 9.607 L 7.636 9.620 7.536 9.674 C 7.298 9.804,7.209 9.959,7.224 10.225 C 7.235 10.424,7.275 10.513,7.414 10.643 C 7.571 10.789,7.576 10.790,8.740 10.790 C 9.892 10.790,9.821 10.800,10.013 10.609 C 10.208 10.415,10.189 10.659,10.196 8.236 C 10.201 6.131,10.201 6.099,10.160 5.936 C 10.031 5.425,9.961 5.257,9.508 4.380 C 9.329 4.034,9.155 3.683,9.122 3.600 C 9.043 3.401,9.024 3.237,9.001 2.560 C 8.990 2.246,8.971 1.954,8.958 1.910 C 8.872 1.607,8.591 1.329,8.288 1.250 C 8.149 1.214,7.023 1.194,6.450 1.218 M2.270 5.438 C 2.096 5.460,1.930 5.602,1.839 5.809 C 1.781 5.939,1.779 5.920,2.102 8.080 C 2.455 10.441,2.463 10.476,2.665 10.650 C 2.840 10.801,2.718 10.790,4.220 10.790 L 5.570 10.790 5.668 10.742 C 5.792 10.681,5.913 10.561,5.961 10.453 C 6.020 10.319,6.154 9.434,6.429 7.370 C 6.585 6.200,6.610 5.970,6.593 5.879 C 6.568 5.746,6.460 5.597,6.323 5.505 L 6.196 5.420 4.283 5.423 C 3.231 5.424,2.325 5.431,2.270 5.438 M5.309 6.715 C 5.301 6.778,5.208 7.451,5.101 8.210 L 4.908 9.590 4.229 9.595 L 3.550 9.600 3.341 8.155 C 3.226 7.360,3.129 6.690,3.124 6.666 C 3.116 6.622,3.121 6.621,3.343 6.615 C 3.468 6.611,3.964 6.607,4.446 6.604 L 5.323 6.600 5.309 6.715 " fill="#1A1C1F" stroke="none" fill-rule="evenodd"></path></svg>