<svg width="24" height="24" viewBox="0 0 24 24" fill="none" xmlns="http://www.w3.org/2000/svg"><path d="M8.089 2.124 C 7.432 2.206,6.923 2.652,6.306 3.687 C 6.183 3.892,6.067 4.083,6.048 4.112 C 6.020 4.153,5.969 4.146,5.796 4.077 C 5.666 4.024,5.490 3.989,5.353 3.988 C 5.086 3.986,4.975 4.056,4.567 4.478 C 4.139 4.922,3.849 5.409,3.642 6.031 C 3.455 6.589,3.395 7.017,3.371 7.950 L 3.349 8.800 3.243 8.800 C 3.184 8.800,3.042 8.847,2.927 8.904 C 2.504 9.115,2.416 9.467,2.453 10.800 C 2.478 11.686,2.528 12.096,2.702 12.833 C 3.002 14.109,3.497 15.324,4.073 16.200 C 4.488 16.831,4.747 17.040,5.115 17.040 C 5.269 17.040,5.277 17.048,5.423 17.310 C 5.702 17.814,6.139 18.417,6.493 18.787 C 7.043 19.362,7.356 19.532,7.682 19.435 C 7.977 19.346,8.240 18.992,8.240 18.684 C 8.240 18.510,8.119 18.331,7.700 17.880 C 7.273 17.421,6.887 16.892,6.743 16.570 C 6.674 16.413,6.673 16.394,6.732 16.329 C 6.767 16.290,7.017 16.141,7.287 15.999 C 7.878 15.687,8.138 15.458,8.178 15.215 C 8.239 14.846,7.992 14.455,7.640 14.360 C 7.392 14.293,7.243 14.346,6.168 14.878 L 5.284 15.315 5.204 15.187 C 4.957 14.787,4.517 13.701,4.339 13.053 C 4.132 12.298,3.961 11.116,3.960 10.438 L 3.960 10.216 6.497 10.024 C 7.892 9.918,9.052 9.842,9.074 9.856 C 9.096 9.870,9.197 10.137,9.298 10.450 C 9.461 10.953,9.501 11.037,9.638 11.163 C 9.827 11.336,10.061 11.420,10.253 11.384 C 10.437 11.349,10.780 11.042,10.841 10.858 C 10.895 10.694,10.845 10.408,10.620 9.579 C 10.433 8.891,10.422 8.867,10.188 8.657 L 9.986 8.475 10.114 7.699 C 10.231 6.989,10.237 6.911,10.184 6.791 C 10.101 6.606,10.003 6.495,9.810 6.367 L 9.643 6.256 9.847 5.918 C 10.118 5.470,10.466 4.744,10.517 4.520 C 10.577 4.255,10.569 4.059,10.481 3.692 C 10.369 3.226,10.275 3.051,9.969 2.745 C 9.471 2.247,8.824 2.033,8.089 2.124 M8.748 3.678 C 8.905 3.774,8.997 3.909,9.026 4.088 C 9.049 4.229,8.893 4.568,8.494 5.249 L 8.336 5.519 7.900 5.267 C 7.661 5.128,7.446 4.984,7.423 4.948 C 7.390 4.896,7.412 4.825,7.517 4.630 C 7.778 4.150,8.055 3.750,8.177 3.675 C 8.336 3.578,8.586 3.580,8.748 3.678 M6.815 6.386 C 7.500 6.775,8.184 7.172,8.335 7.269 L 8.610 7.445 8.587 7.612 C 8.532 8.008,8.471 8.204,8.386 8.258 C 8.257 8.340,4.981 8.563,4.874 8.496 C 4.816 8.460,4.864 7.390,4.945 6.923 C 5.023 6.468,5.393 5.680,5.527 5.680 C 5.550 5.680,6.130 5.998,6.815 6.386 M15.991 7.802 C 15.795 7.906,15.592 8.111,15.505 8.295 C 15.417 8.481,15.378 9.546,15.428 10.420 C 15.462 11.009,15.466 11.025,15.594 11.212 C 15.667 11.317,15.800 11.452,15.890 11.511 C 16.039 11.610,16.089 11.620,16.424 11.620 C 16.770 11.620,16.804 11.613,16.966 11.499 C 17.060 11.432,17.192 11.291,17.258 11.184 C 17.371 11.002,17.379 10.958,17.409 10.405 C 17.447 9.714,17.415 8.613,17.351 8.363 C 17.297 8.152,17.071 7.908,16.826 7.797 C 16.599 7.694,16.191 7.696,15.991 7.802 M12.970 8.804 C 12.771 8.903,12.620 9.069,12.504 9.320 C 12.429 9.480,12.420 9.574,12.420 10.180 C 12.420 10.739,12.433 10.893,12.492 11.047 C 12.574 11.260,12.838 11.524,13.067 11.622 C 13.556 11.833,14.166 11.548,14.348 11.026 C 14.405 10.862,14.420 10.697,14.419 10.220 C 14.417 9.534,14.368 9.276,14.198 9.070 C 13.926 8.740,13.350 8.616,12.970 8.804 M12.004 12.763 C 11.645 12.810,11.349 12.968,11.038 13.279 C 10.730 13.588,10.541 13.935,10.472 14.320 C 10.406 14.695,10.404 18.672,10.470 19.090 C 10.613 19.989,11.126 20.767,11.868 21.212 C 12.468 21.571,12.623 21.605,13.860 21.648 C 15.195 21.694,16.764 21.659,17.100 21.575 C 17.232 21.542,17.529 21.424,17.760 21.313 C 18.124 21.137,18.226 21.064,18.524 20.765 C 18.951 20.337,19.146 19.968,19.320 19.260 C 19.435 18.794,19.496 18.680,19.631 18.680 C 19.791 18.680,20.421 18.493,20.700 18.362 C 21.501 17.987,22.080 17.296,22.309 16.440 C 22.406 16.077,22.403 15.275,22.303 14.920 C 22.053 14.032,21.466 13.354,20.582 12.935 C 20.274 12.788,20.265 12.787,19.586 12.756 C 18.677 12.715,12.331 12.721,12.004 12.763 M17.388 16.770 C 17.372 18.141,17.348 18.915,17.318 19.020 C 17.253 19.245,16.952 19.529,16.698 19.603 C 16.540 19.648,16.163 19.660,14.840 19.660 L 13.180 19.660 12.993 19.550 C 12.769 19.418,12.573 19.192,12.518 19.000 C 12.495 18.920,12.467 17.962,12.453 16.770 L 12.427 14.680 14.920 14.680 L 17.412 14.680 17.388 16.770 M19.772 14.765 C 20.237 14.999,20.358 15.195,20.359 15.724 C 20.360 16.057,20.355 16.075,20.220 16.252 C 20.122 16.380,20.001 16.474,19.815 16.565 C 19.437 16.751,19.440 16.758,19.441 15.702 C 19.441 15.239,19.452 14.820,19.465 14.770 C 19.495 14.658,19.557 14.657,19.772 14.765 " fill="#1A1C1F" stroke="none" fill-rule="evenodd"></path></svg>