<svg width="14" height="14" viewBox="0 0 14 14" fill="none" xmlns="http://www.w3.org/2000/svg"><path d="M4.377 1.532 C 4.079 1.623,3.798 1.906,3.584 2.328 L 3.523 2.450 3.400 2.451 C 3.226 2.451,3.100 2.518,2.907 2.713 C 2.520 3.101,2.284 3.550,2.168 4.113 C 2.126 4.319,2.121 4.417,2.127 4.822 L 2.135 5.292 1.975 5.318 C 1.575 5.384,1.438 5.575,1.375 6.153 C 1.254 7.258,1.750 8.809,2.448 9.515 C 2.712 9.781,2.845 9.803,3.208 9.639 L 3.359 9.570 3.468 9.777 C 3.613 10.052,3.907 10.445,4.144 10.679 C 4.303 10.837,4.360 10.877,4.468 10.911 C 4.581 10.947,4.614 10.948,4.708 10.923 C 4.856 10.884,4.958 10.812,5.041 10.689 C 5.212 10.433,5.154 10.246,4.769 9.800 C 4.590 9.594,4.340 9.225,4.340 9.169 C 4.340 9.142,4.430 9.080,4.611 8.980 C 4.942 8.799,5.072 8.684,5.110 8.540 C 5.196 8.220,4.960 7.887,4.648 7.887 C 4.500 7.887,4.386 7.930,3.710 8.242 C 3.447 8.364,3.181 8.482,3.120 8.505 C 2.982 8.557,2.991 8.567,2.811 8.170 C 2.544 7.580,2.464 7.245,2.462 6.709 L 2.462 6.336 3.313 6.272 C 5.435 6.115,5.967 6.061,6.104 5.990 C 6.314 5.881,6.409 5.556,6.298 5.327 C 6.233 5.193,6.123 5.113,5.933 5.060 C 5.848 5.037,5.769 5.008,5.757 4.997 C 5.746 4.985,5.759 4.778,5.788 4.512 L 5.840 4.048 5.788 3.929 C 5.760 3.863,5.701 3.775,5.658 3.733 L 5.579 3.657 5.657 3.503 C 5.843 3.133,5.939 2.738,5.902 2.500 C 5.872 2.309,5.839 2.229,5.728 2.079 C 5.606 1.912,5.443 1.785,5.190 1.659 C 4.876 1.502,4.610 1.460,4.377 1.532 M4.078 3.987 C 4.764 4.397,4.713 4.357,4.713 4.480 C 4.712 4.581,4.651 5.064,4.636 5.078 C 4.607 5.108,3.245 5.184,3.214 5.158 C 3.181 5.129,3.168 4.723,3.193 4.478 C 3.220 4.212,3.294 3.969,3.411 3.763 L 3.480 3.640 3.548 3.676 C 3.586 3.695,3.824 3.835,4.078 3.987 M8.966 5.338 L 8.972 6.382 9.497 6.382 L 10.022 6.382 10.028 5.338 L 10.034 4.293 9.497 4.293 L 8.960 4.293 8.966 5.338 M7.215 5.688 L 7.222 6.382 7.747 6.382 L 8.272 6.382 8.278 5.688 L 8.284 4.993 7.747 4.993 L 7.209 4.993 7.215 5.688 M5.997 8.659 C 5.997 10.175,6.021 10.872,6.079 11.095 C 6.164 11.420,6.416 11.822,6.671 12.036 C 6.889 12.219,7.177 12.370,7.432 12.435 C 7.645 12.489,8.188 12.513,8.867 12.499 C 9.607 12.483,9.780 12.462,10.033 12.355 C 10.400 12.201,10.692 11.970,10.883 11.682 C 11.142 11.293,11.221 10.972,11.240 10.226 L 11.253 9.707 11.327 9.707 C 11.429 9.707,11.733 9.625,11.891 9.555 C 12.389 9.335,12.713 8.789,12.626 8.319 C 12.546 7.890,12.207 7.536,11.688 7.341 L 11.535 7.283 8.766 7.266 L 5.997 7.249 5.997 8.659 M10.187 9.374 C 10.178 9.961,10.161 10.538,10.150 10.657 C 10.108 11.116,9.850 11.379,9.384 11.438 C 9.286 11.450,8.880 11.456,8.482 11.451 C 7.800 11.442,7.751 11.439,7.625 11.389 C 7.390 11.298,7.190 11.095,7.128 10.888 C 7.073 10.704,7.048 10.178,7.047 9.199 L 7.047 8.307 8.625 8.307 L 10.204 8.307 10.187 9.374 " fill="#1A1C1F" stroke="none" fill-rule="evenodd"></path></svg>