<svg width="28" height="28" viewBox="0 0 28 28" fill="none" xmlns="http://www.w3.org/2000/svg"><path d="M8.959 2.727 C 8.467 2.909,8.009 3.237,7.655 3.663 C 7.549 3.792,7.262 4.227,7.018 4.632 C 6.774 5.036,6.557 5.367,6.535 5.367 C 6.513 5.367,6.362 5.304,6.199 5.227 C 6.036 5.150,5.830 5.087,5.740 5.087 C 5.004 5.089,3.875 6.469,3.481 7.848 C 3.298 8.486,3.218 9.137,3.188 10.228 L 3.159 11.239 2.887 11.271 C 2.131 11.359,1.908 11.755,1.839 13.137 C 1.763 14.645,2.095 16.482,2.758 18.220 C 3.337 19.739,4.413 21.351,4.910 21.444 C 5.083 21.476,5.499 21.381,5.749 21.252 L 5.876 21.186 6.110 21.642 C 6.865 23.104,8.011 24.323,9.193 24.918 C 9.899 25.274,10.558 25.438,10.905 25.344 C 11.295 25.239,11.849 24.439,11.888 23.926 C 11.909 23.636,11.812 23.428,11.559 23.223 C 11.235 22.961,10.653 23.021,10.381 23.344 L 10.260 23.489 10.042 23.383 C 9.542 23.141,8.827 22.540,8.405 22.009 C 8.151 21.689,7.580 20.716,7.535 20.527 C 7.507 20.407,7.535 20.389,8.735 19.785 C 10.449 18.920,10.869 18.686,11.080 18.479 C 11.245 18.317,11.266 18.270,11.284 18.024 C 11.309 17.674,11.186 17.414,10.911 17.232 C 10.527 16.977,10.441 17.005,8.209 18.087 C 6.179 19.072,5.352 19.457,5.314 19.433 C 5.241 19.388,4.826 18.627,4.597 18.117 C 3.965 16.714,3.679 15.451,3.611 13.762 L 3.579 12.987 3.925 12.957 C 4.264 12.928,7.443 12.721,9.818 12.575 C 10.523 12.531,11.043 12.518,11.067 12.542 C 11.090 12.565,11.163 12.781,11.229 13.022 C 11.433 13.769,11.649 14.067,12.054 14.166 C 12.404 14.251,12.971 13.880,13.038 13.521 C 13.089 13.252,12.701 11.595,12.479 11.130 C 12.403 10.970,12.194 10.822,11.923 10.735 C 11.821 10.702,11.720 10.660,11.699 10.641 C 11.678 10.622,11.725 10.254,11.804 9.824 C 11.958 8.984,11.954 8.865,11.762 8.553 C 11.711 8.471,11.554 8.326,11.412 8.232 C 11.270 8.137,11.153 8.052,11.153 8.042 C 11.153 8.032,11.308 7.746,11.498 7.407 C 12.256 6.048,12.349 5.785,12.304 5.110 C 12.273 4.630,12.198 4.358,11.990 3.968 C 11.700 3.424,11.020 2.884,10.432 2.732 C 10.089 2.643,9.195 2.640,8.959 2.727 M10.059 4.474 C 10.416 4.637,10.592 4.966,10.531 5.358 C 10.501 5.549,10.275 6.007,9.871 6.692 L 9.605 7.144 9.108 6.879 C 8.834 6.733,8.499 6.543,8.364 6.457 L 8.118 6.300 8.236 6.069 C 8.372 5.800,8.816 5.061,9.018 4.767 C 9.258 4.417,9.675 4.300,10.059 4.474 M8.159 8.371 C 9.143 8.939,9.969 9.442,9.995 9.489 C 10.027 9.548,10.018 9.708,9.967 10.002 C 9.861 10.615,9.831 10.703,9.704 10.765 C 9.538 10.845,6.445 11.060,5.456 11.060 C 4.996 11.060,4.995 11.060,4.964 10.936 C 4.921 10.766,4.987 8.940,5.045 8.680 C 5.100 8.436,5.429 7.724,5.673 7.322 L 5.842 7.043 6.106 7.191 C 6.251 7.272,7.175 7.803,8.159 8.371 M18.960 10.779 C 18.741 10.830,18.590 10.943,18.445 11.163 L 18.317 11.357 18.317 12.410 C 18.317 12.989,18.332 13.519,18.352 13.588 C 18.437 13.894,18.840 14.184,19.182 14.186 C 19.422 14.187,19.739 14.008,19.920 13.768 L 20.077 13.559 20.054 12.508 C 20.041 11.928,20.007 11.380,19.977 11.286 C 19.909 11.066,19.651 10.840,19.426 10.802 C 19.329 10.785,19.218 10.766,19.180 10.758 C 19.142 10.750,19.042 10.760,18.960 10.779 M16.123 11.723 C 15.995 11.797,15.900 11.903,15.820 12.063 C 15.714 12.276,15.703 12.350,15.703 12.903 C 15.703 13.423,15.717 13.541,15.802 13.724 C 16.034 14.225,16.708 14.336,17.151 13.946 C 17.381 13.744,17.429 13.553,17.428 12.855 C 17.427 12.331,17.414 12.224,17.333 12.086 C 17.096 11.679,16.506 11.503,16.123 11.723 M14.420 16.050 C 13.949 16.121,13.470 16.514,13.208 17.047 L 13.053 17.362 13.080 19.566 C 13.110 22.049,13.117 22.104,13.490 22.821 C 13.941 23.688,14.667 24.272,15.633 24.546 C 16.383 24.759,19.179 24.774,20.016 24.571 C 20.692 24.406,21.395 23.970,21.860 23.426 C 22.204 23.023,22.463 22.408,22.617 21.625 L 22.692 21.247 23.304 21.219 C 24.287 21.175,24.754 21.003,25.312 20.482 C 25.735 20.086,25.961 19.706,26.084 19.179 C 26.197 18.698,26.203 18.422,26.110 18.024 C 25.916 17.203,25.295 16.493,24.468 16.147 L 24.133 16.007 19.382 16.013 C 16.768 16.016,14.536 16.033,14.420 16.050 M20.886 19.702 L 20.852 21.671 20.719 21.935 C 20.552 22.266,20.392 22.458,20.135 22.634 C 19.786 22.875,19.512 22.919,18.223 22.946 C 16.906 22.973,16.168 22.922,15.851 22.782 C 15.554 22.650,15.237 22.342,15.043 21.995 L 14.878 21.698 14.838 20.661 C 14.815 20.090,14.796 19.198,14.795 18.678 L 14.793 17.733 17.857 17.733 L 20.921 17.733 20.886 19.702 M23.990 17.852 C 24.068 17.892,24.196 18.024,24.273 18.144 C 24.399 18.340,24.412 18.392,24.392 18.631 C 24.342 19.219,24.053 19.419,23.208 19.452 L 22.680 19.472 22.680 18.595 L 22.680 17.719 23.264 17.749 C 23.653 17.768,23.895 17.803,23.990 17.852 " fill="#1A1C1F" stroke="none" fill-rule="evenodd"></path></svg>