<svg width="20" height="20" viewBox="0 0 20 20" fill="none" xmlns="http://www.w3.org/2000/svg"><path d="M6.252 2.188 C 5.828 2.319,5.425 2.723,5.123 3.321 L 5.036 3.492 4.843 3.506 C 4.497 3.532,4.239 3.717,3.848 4.219 C 3.572 4.572,3.368 4.957,3.215 5.415 C 3.071 5.844,3.036 6.150,3.035 6.989 L 3.033 7.561 2.806 7.599 C 2.472 7.655,2.261 7.788,2.153 8.008 C 2.015 8.289,1.959 8.648,1.955 9.267 C 1.951 9.921,1.996 10.277,2.168 10.956 C 2.451 12.070,2.923 13.008,3.495 13.588 C 3.875 13.974,4.063 14.005,4.584 13.769 L 4.801 13.670 4.905 13.877 C 5.116 14.297,5.520 14.852,5.886 15.224 C 6.295 15.641,6.612 15.726,6.959 15.511 C 7.184 15.372,7.317 15.144,7.315 14.902 C 7.312 14.658,7.229 14.504,6.870 14.074 C 6.544 13.684,6.200 13.183,6.200 13.098 C 6.200 13.060,6.328 12.972,6.590 12.829 C 7.045 12.582,7.245 12.403,7.301 12.195 C 7.382 11.897,7.257 11.564,6.994 11.370 C 6.875 11.283,6.824 11.267,6.661 11.267 C 6.425 11.267,6.278 11.321,5.333 11.758 C 4.939 11.940,4.545 12.116,4.457 12.150 C 4.302 12.208,4.297 12.208,4.250 12.147 C 4.169 12.039,3.834 11.275,3.735 10.972 C 3.565 10.450,3.520 10.163,3.518 9.583 L 3.517 9.050 4.733 8.961 C 7.531 8.754,8.473 8.662,8.705 8.572 C 8.812 8.530,8.958 8.345,9.019 8.175 C 9.123 7.883,9.036 7.549,8.812 7.378 C 8.749 7.330,8.598 7.263,8.476 7.229 C 8.354 7.195,8.241 7.154,8.225 7.138 C 8.208 7.121,8.227 6.826,8.269 6.446 L 8.343 5.783 8.269 5.613 C 8.229 5.519,8.145 5.393,8.083 5.333 L 7.971 5.224 8.081 5.004 C 8.236 4.696,8.386 4.258,8.427 3.991 C 8.535 3.300,8.196 2.761,7.410 2.369 C 6.958 2.144,6.586 2.086,6.252 2.188 M5.825 5.695 C 6.806 6.281,6.733 6.224,6.732 6.400 C 6.732 6.544,6.644 7.234,6.623 7.254 C 6.573 7.304,4.634 7.405,4.583 7.360 C 4.563 7.342,4.551 7.112,4.553 6.790 C 4.556 6.157,4.595 5.968,4.816 5.507 L 4.965 5.197 5.066 5.250 C 5.122 5.278,5.463 5.479,5.825 5.695 M12.808 7.625 L 12.817 9.117 13.567 9.117 L 14.317 9.117 14.325 7.625 L 14.334 6.133 13.567 6.133 L 12.799 6.133 12.808 7.625 M10.308 8.125 L 10.317 9.117 11.067 9.117 L 11.817 9.117 11.825 8.125 L 11.834 7.133 11.067 7.133 L 10.299 7.133 10.308 8.125 M8.567 12.370 C 8.568 14.536,8.601 15.531,8.684 15.850 C 8.851 16.492,9.321 17.110,9.909 17.463 C 10.489 17.810,10.736 17.849,12.350 17.847 C 13.748 17.845,13.916 17.827,14.364 17.637 C 14.876 17.419,15.274 17.100,15.549 16.686 C 15.917 16.133,16.030 15.673,16.057 14.613 L 16.076 13.875 16.267 13.855 C 16.540 13.827,17.005 13.662,17.226 13.515 C 17.641 13.239,17.896 12.905,18.004 12.492 C 18.080 12.205,18.083 12.042,18.017 11.790 C 17.937 11.482,17.807 11.266,17.554 11.017 C 17.310 10.777,17.065 10.626,16.694 10.486 L 16.481 10.406 12.524 10.381 L 8.567 10.357 8.567 12.370 M14.566 12.675 C 14.565 13.120,14.551 13.928,14.535 14.471 L 14.505 15.458 14.401 15.665 C 14.277 15.911,14.071 16.126,13.866 16.226 C 13.624 16.342,13.178 16.376,12.092 16.358 C 10.982 16.340,10.850 16.317,10.583 16.096 C 10.361 15.913,10.241 15.750,10.182 15.554 C 10.103 15.286,10.068 14.557,10.067 13.158 L 10.067 11.867 12.317 11.867 L 14.567 11.867 14.566 12.675 " fill="#1A1C1F" stroke="none" fill-rule="evenodd"></path></svg>