<svg width="16" height="16" viewBox="0 0 16 16" fill="none" xmlns="http://www.w3.org/2000/svg"><path d="M5.002 1.751 C 4.663 1.855,4.340 2.178,4.098 2.657 L 4.029 2.793 3.875 2.805 C 3.655 2.822,3.534 2.888,3.312 3.115 C 2.954 3.479,2.718 3.870,2.561 4.360 C 2.459 4.677,2.429 4.953,2.428 5.591 L 2.427 6.048 2.249 6.079 C 1.806 6.156,1.643 6.378,1.574 7.000 C 1.500 7.662,1.596 8.383,1.868 9.210 C 2.100 9.914,2.430 10.509,2.788 10.869 C 3.095 11.178,3.250 11.204,3.667 11.015 L 3.841 10.936 3.924 11.102 C 4.098 11.447,4.546 12.049,4.796 12.270 C 4.945 12.403,5.154 12.506,5.275 12.506 C 5.498 12.507,5.763 12.299,5.842 12.062 C 5.903 11.876,5.808 11.613,5.594 11.372 C 5.284 11.024,4.960 10.564,4.960 10.472 C 4.960 10.448,5.065 10.376,5.220 10.293 C 5.689 10.043,5.824 9.912,5.856 9.677 C 5.903 9.336,5.638 9.013,5.311 9.013 C 5.141 9.013,5.102 9.028,4.267 9.408 C 3.878 9.585,3.528 9.737,3.489 9.747 C 3.421 9.764,3.413 9.752,3.257 9.436 C 2.985 8.881,2.854 8.411,2.795 7.782 C 2.774 7.560,2.772 7.409,2.788 7.342 L 2.813 7.240 4.133 7.142 C 5.795 7.018,6.610 6.943,6.810 6.896 C 7.010 6.848,7.089 6.789,7.182 6.611 C 7.377 6.240,7.140 5.806,6.719 5.766 C 6.636 5.758,6.584 5.739,6.574 5.713 C 6.566 5.690,6.584 5.445,6.615 5.167 C 6.683 4.572,6.672 4.496,6.492 4.298 L 6.379 4.173 6.480 3.973 C 6.643 3.648,6.724 3.377,6.740 3.103 C 6.771 2.556,6.528 2.191,5.934 1.897 C 5.569 1.716,5.269 1.669,5.002 1.751 M4.783 4.627 L 5.413 5.000 5.399 5.120 C 5.390 5.186,5.365 5.368,5.342 5.525 L 5.301 5.809 5.177 5.824 C 5.012 5.845,4.266 5.890,3.933 5.899 L 3.667 5.907 3.642 5.707 C 3.604 5.393,3.657 4.891,3.757 4.617 C 3.802 4.494,3.869 4.341,3.907 4.277 L 3.976 4.160 4.064 4.207 C 4.113 4.232,4.437 4.421,4.783 4.627 M10.246 6.100 L 10.253 7.293 10.853 7.293 L 11.453 7.293 11.460 6.100 L 11.467 4.907 10.853 4.907 L 10.239 4.907 10.246 6.100 M8.246 6.500 L 8.253 7.293 8.853 7.293 L 9.453 7.293 9.460 6.500 L 9.467 5.707 8.853 5.707 L 8.239 5.707 8.246 6.500 M6.854 9.896 C 6.854 11.604,6.882 12.424,6.948 12.682 C 7.009 12.920,7.208 13.297,7.384 13.509 C 7.646 13.825,8.055 14.092,8.440 14.200 C 8.675 14.265,10.005 14.312,10.616 14.276 C 11.026 14.252,11.110 14.239,11.333 14.163 C 11.955 13.954,12.444 13.502,12.657 12.940 C 12.789 12.593,12.829 12.326,12.846 11.687 L 12.861 11.093 12.939 11.093 C 13.065 11.093,13.439 10.989,13.613 10.906 C 13.968 10.737,14.294 10.380,14.388 10.060 C 14.527 9.584,14.415 9.179,14.043 8.813 C 13.848 8.621,13.652 8.501,13.354 8.389 L 13.184 8.324 10.019 8.305 L 6.853 8.285 6.854 9.896 M11.652 10.127 C 11.652 10.475,11.641 11.122,11.628 11.565 L 11.604 12.370 11.505 12.560 C 11.348 12.859,11.120 13.013,10.757 13.066 C 10.520 13.100,9.188 13.100,8.951 13.066 C 8.676 13.026,8.530 12.951,8.348 12.757 C 8.231 12.632,8.178 12.550,8.147 12.447 C 8.083 12.233,8.054 11.638,8.054 10.513 L 8.053 9.493 9.853 9.493 L 11.653 9.493 11.652 10.127 " fill="#1A1C1F" stroke="none" fill-rule="evenodd"></path></svg>