<svg width="32" height="32" viewBox="0 0 32 32" fill="none" xmlns="http://www.w3.org/2000/svg"><path d="M10.238 3.117 C 9.676 3.324,9.153 3.700,8.749 4.187 C 8.627 4.333,8.299 4.831,8.020 5.293 C 7.742 5.755,7.493 6.133,7.468 6.133 C 7.443 6.133,7.271 6.061,7.085 5.973 C 6.899 5.885,6.663 5.814,6.560 5.814 C 5.719 5.816,4.429 7.393,3.978 8.969 C 3.770 9.698,3.678 10.442,3.643 11.688 L 3.611 12.843 3.312 12.879 C 2.486 12.980,2.258 13.308,2.128 14.580 C 1.964 16.187,2.312 18.505,3.011 20.453 C 3.632 22.182,4.749 24.014,5.426 24.410 C 5.659 24.547,5.678 24.549,5.991 24.485 C 6.169 24.448,6.405 24.372,6.516 24.315 L 6.718 24.212 6.954 24.679 C 7.789 26.340,9.150 27.795,10.507 28.478 C 11.313 28.884,12.066 29.072,12.463 28.964 C 12.904 28.846,13.541 27.920,13.586 27.333 C 13.612 27.001,13.491 26.762,13.177 26.520 C 13.005 26.388,12.899 26.347,12.729 26.347 C 12.378 26.347,12.100 26.449,11.898 26.651 L 11.712 26.837 11.469 26.720 C 10.906 26.447,10.085 25.757,9.606 25.153 C 9.316 24.787,8.663 23.675,8.612 23.460 C 8.579 23.322,8.614 23.301,10.222 22.489 C 12.027 21.578,12.420 21.357,12.681 21.105 C 12.875 20.918,12.984 20.603,12.933 20.373 C 12.878 20.123,12.606 19.764,12.371 19.632 C 11.994 19.420,11.882 19.459,9.280 20.721 C 7.076 21.791,6.117 22.236,6.073 22.209 C 5.990 22.158,5.516 21.287,5.253 20.706 C 4.531 19.102,4.204 17.658,4.126 15.728 L 4.091 14.843 4.485 14.808 C 4.873 14.775,8.506 14.539,11.220 14.371 C 12.021 14.322,12.620 14.306,12.648 14.333 C 12.674 14.359,12.753 14.592,12.825 14.851 C 13.068 15.736,13.336 16.106,13.798 16.192 C 14.213 16.270,14.824 15.861,14.901 15.453 C 14.959 15.145,14.517 13.252,14.265 12.727 C 14.175 12.537,13.939 12.368,13.627 12.269 C 13.509 12.231,13.394 12.183,13.370 12.161 C 13.346 12.139,13.400 11.719,13.490 11.227 C 13.666 10.267,13.661 10.131,13.443 9.775 C 13.385 9.681,13.204 9.515,13.042 9.408 C 12.880 9.300,12.747 9.202,12.747 9.191 C 12.747 9.180,12.924 8.853,13.140 8.465 C 14.004 6.917,14.111 6.614,14.065 5.840 C 14.017 5.033,13.746 4.420,13.194 3.876 C 12.856 3.542,12.322 3.226,11.922 3.122 C 11.530 3.021,10.508 3.017,10.238 3.117 M11.667 5.208 C 12.125 5.574,12.164 6.018,11.801 6.717 C 11.683 6.945,11.449 7.364,11.282 7.648 L 10.978 8.165 10.489 7.903 C 9.608 7.431,9.333 7.253,9.333 7.155 C 9.333 7.050,9.885 6.068,10.225 5.569 C 10.544 5.099,10.704 5.010,11.187 5.035 C 11.405 5.046,11.512 5.084,11.667 5.208 M8.347 9.001 C 10.344 10.147,11.206 10.661,11.351 10.793 C 11.458 10.891,11.470 10.938,11.440 11.146 C 11.364 11.677,11.242 12.191,11.176 12.259 C 11.069 12.368,10.336 12.428,6.254 12.663 C 5.603 12.700,5.630 12.759,5.675 11.367 C 5.696 10.738,5.735 10.104,5.763 9.958 C 5.818 9.667,6.181 8.866,6.482 8.370 C 6.659 8.079,6.684 8.059,6.790 8.114 C 6.854 8.148,7.555 8.547,8.347 9.001 M21.635 12.305 C 21.427 12.336,21.036 12.738,20.958 13.000 C 20.859 13.331,20.911 15.443,21.024 15.653 C 21.199 15.979,21.579 16.213,21.934 16.213 C 22.198 16.213,22.562 16.004,22.765 15.735 L 22.945 15.496 22.922 14.268 C 22.897 12.917,22.868 12.774,22.569 12.522 C 22.430 12.405,21.953 12.247,21.824 12.275 C 21.803 12.279,21.718 12.293,21.635 12.305 M18.533 13.351 C 18.445 13.391,18.285 13.521,18.178 13.641 C 17.944 13.899,17.892 14.182,17.931 14.979 C 17.950 15.362,17.986 15.550,18.070 15.715 C 18.350 16.261,19.108 16.372,19.601 15.938 C 19.858 15.713,19.916 15.488,19.916 14.720 C 19.916 13.939,19.842 13.722,19.490 13.478 C 19.230 13.297,18.782 13.237,18.533 13.351 M16.480 18.343 C 15.940 18.424,15.394 18.874,15.094 19.483 L 14.917 19.843 14.949 22.361 C 14.978 24.718,14.987 24.906,15.093 25.279 C 15.405 26.372,16.187 27.329,17.141 27.784 C 18.003 28.195,19.244 28.324,21.343 28.222 C 22.673 28.157,23.009 28.095,23.648 27.794 C 24.867 27.221,25.541 26.278,25.849 24.714 L 25.934 24.282 26.633 24.251 C 27.813 24.197,28.321 24.000,28.987 23.334 C 29.487 22.833,29.665 22.527,29.812 21.915 C 29.994 21.154,29.942 20.691,29.594 19.961 C 29.303 19.352,28.815 18.865,28.179 18.550 L 27.715 18.320 22.217 18.313 C 19.194 18.310,16.612 18.323,16.480 18.343 M23.872 22.517 L 23.833 24.767 23.690 25.059 C 23.405 25.643,22.953 26.010,22.367 26.137 C 21.980 26.220,19.535 26.262,18.887 26.196 C 18.016 26.107,17.585 25.837,17.190 25.132 L 17.003 24.798 16.957 23.612 C 16.932 22.960,16.910 21.941,16.909 21.347 L 16.907 20.267 20.408 20.267 L 23.910 20.267 23.872 22.517 M27.417 20.402 C 27.506 20.448,27.652 20.599,27.741 20.736 C 27.885 20.960,27.899 21.019,27.876 21.293 C 27.819 21.964,27.489 22.193,26.524 22.230 L 25.920 22.253 25.920 21.252 L 25.920 20.250 26.587 20.284 C 27.032 20.307,27.309 20.346,27.417 20.402 " fill="#1A1C1F" stroke="none" fill-rule="evenodd"></path></svg>