<svg width="12" height="12" viewBox="0 0 12 12" fill="none" xmlns="http://www.w3.org/2000/svg"><path d="M3.751 1.313 C 3.496 1.391,3.255 1.634,3.072 1.995 C 3.020 2.099,3.019 2.100,2.925 2.100 C 2.735 2.101,2.554 2.225,2.318 2.518 C 2.075 2.819,1.910 3.200,1.847 3.604 C 1.814 3.816,1.803 4.306,1.828 4.452 L 1.843 4.534 1.696 4.558 C 1.484 4.592,1.358 4.669,1.292 4.805 C 1.206 4.980,1.174 5.188,1.173 5.580 C 1.173 5.957,1.201 6.191,1.291 6.547 C 1.459 7.217,1.755 7.807,2.097 8.153 C 2.325 8.384,2.438 8.403,2.750 8.261 L 2.881 8.202 2.943 8.326 C 2.977 8.394,3.050 8.518,3.105 8.600 C 3.444 9.107,3.744 9.380,3.960 9.379 C 4.163 9.379,4.398 9.148,4.400 8.949 C 4.400 8.852,4.346 8.718,4.265 8.617 C 4.224 8.566,4.117 8.435,4.028 8.325 C 3.857 8.115,3.720 7.905,3.720 7.854 C 3.720 7.836,3.799 7.782,3.915 7.720 C 4.180 7.578,4.272 7.511,4.336 7.415 C 4.381 7.347,4.390 7.311,4.390 7.201 C 4.390 7.093,4.380 7.053,4.333 6.973 C 4.254 6.839,4.126 6.760,3.987 6.760 C 3.857 6.760,3.756 6.798,3.200 7.055 C 2.964 7.164,2.727 7.270,2.674 7.290 C 2.581 7.325,2.578 7.325,2.550 7.288 C 2.501 7.223,2.300 6.764,2.239 6.578 C 2.137 6.266,2.111 6.099,2.111 5.751 L 2.110 5.431 3.330 5.338 C 5.071 5.204,5.195 5.189,5.294 5.096 C 5.430 4.968,5.477 4.729,5.398 4.566 C 5.343 4.451,5.248 4.383,5.086 4.337 C 5.012 4.317,4.944 4.292,4.934 4.282 C 4.923 4.271,4.933 4.112,4.959 3.878 C 5.010 3.424,5.003 3.372,4.869 3.224 L 4.785 3.130 4.850 3.000 C 4.942 2.818,5.032 2.554,5.056 2.394 C 5.118 1.996,4.922 1.668,4.487 1.445 C 4.181 1.287,3.963 1.248,3.751 1.313 M3.615 3.486 L 4.060 3.750 4.049 3.840 C 4.043 3.889,4.024 4.026,4.007 4.143 L 3.976 4.357 3.883 4.368 C 3.759 4.384,3.199 4.417,2.950 4.424 L 2.750 4.430 2.732 4.280 C 2.703 4.045,2.742 3.668,2.818 3.463 C 2.851 3.371,2.902 3.256,2.931 3.207 L 2.983 3.118 3.076 3.170 C 3.128 3.199,3.370 3.341,3.615 3.486 M7.685 4.575 L 7.690 5.470 8.140 5.470 L 8.590 5.470 8.595 4.575 L 8.600 3.680 8.140 3.680 L 7.680 3.680 7.685 4.575 M6.185 4.875 L 6.190 5.470 6.640 5.470 L 7.090 5.470 7.095 4.875 L 7.101 4.280 6.640 4.280 L 6.179 4.280 6.185 4.875 M5.140 7.422 C 5.140 8.705,5.161 9.319,5.211 9.512 C 5.328 9.964,5.698 10.387,6.150 10.585 C 6.400 10.694,6.535 10.707,7.400 10.709 L 8.190 10.710 8.386 10.656 C 9.047 10.474,9.437 10.061,9.584 9.390 C 9.613 9.255,9.626 9.098,9.634 8.765 L 9.645 8.320 9.698 8.320 C 9.799 8.320,10.091 8.238,10.233 8.169 C 10.335 8.120,10.419 8.058,10.526 7.953 C 10.690 7.789,10.760 7.667,10.813 7.452 C 10.927 6.988,10.601 6.512,10.019 6.293 L 9.888 6.243 7.514 6.229 L 5.140 6.214 5.140 7.422 M8.739 7.615 C 8.739 7.887,8.731 8.373,8.721 8.694 L 8.703 9.279 8.628 9.421 C 8.507 9.652,8.337 9.762,8.041 9.802 C 7.940 9.816,7.644 9.821,7.264 9.816 C 6.659 9.808,6.648 9.807,6.526 9.757 C 6.324 9.673,6.162 9.508,6.110 9.333 C 6.062 9.172,6.041 8.736,6.040 7.895 L 6.040 7.120 7.390 7.120 L 8.740 7.120 8.739 7.615 " fill="#1A1C1F" stroke="none" fill-rule="evenodd"></path></svg>