<svg width="12" height="12" viewBox="0 0 12 12" fill="none" xmlns="http://www.w3.org/2000/svg"><path d="M5.700 2.400 L 5.700 3.600 6.300 3.600 L 6.900 3.600 6.900 2.400 L 6.900 1.200 6.300 1.200 L 5.700 1.200 5.700 2.400 M3.300 2.700 L 3.300 3.600 3.900 3.600 L 4.500 3.600 4.500 2.700 L 4.500 1.800 3.900 1.800 L 3.300 1.800 3.300 2.700 M1.500 6.906 L 1.500 9.019 1.579 9.259 C 1.754 9.793,2.017 10.156,2.430 10.435 C 2.609 10.555,2.781 10.636,3.045 10.722 L 3.281 10.800 4.796 10.800 L 6.312 10.800 6.509 10.738 C 6.917 10.611,7.226 10.431,7.488 10.169 C 7.890 9.767,8.100 9.233,8.100 8.608 L 8.100 8.406 8.557 8.395 L 9.014 8.383 9.236 8.309 C 9.842 8.108,10.293 7.632,10.437 7.040 C 10.514 6.723,10.511 6.450,10.430 6.130 C 10.355 5.836,10.115 5.457,9.878 5.257 C 9.662 5.075,9.498 4.982,9.218 4.884 L 9.046 4.823 5.273 4.809 L 1.500 4.794 1.500 6.906 M8.938 6.061 C 9.056 6.113,9.150 6.204,9.217 6.330 C 9.263 6.417,9.270 6.454,9.270 6.610 C 9.270 6.772,9.264 6.801,9.211 6.896 C 9.151 7.005,9.066 7.085,8.940 7.152 C 8.881 7.183,8.811 7.190,8.485 7.196 L 8.100 7.204 8.100 6.599 L 8.100 5.994 8.473 6.007 C 8.785 6.018,8.861 6.027,8.938 6.061 " fill="#1A1C1F" stroke="none" fill-rule="evenodd"></path></svg>