<svg width="28" height="28" viewBox="0 0 28 28" fill="none" xmlns="http://www.w3.org/2000/svg"><path d="M12.603 1.963 C 12.238 2.228,12.251 2.103,12.251 5.203 C 12.250 8.237,12.252 8.257,12.530 8.520 C 12.929 8.896,13.442 8.815,13.818 8.319 L 13.951 8.143 13.951 5.413 C 13.951 3.702,13.933 2.605,13.903 2.474 C 13.803 2.042,13.515 1.820,13.052 1.820 C 12.846 1.820,12.765 1.846,12.603 1.963 M9.208 3.660 C 8.753 3.872,8.709 4.123,8.736 6.391 C 8.758 8.262,8.763 8.291,9.100 8.535 C 9.213 8.617,9.385 8.689,9.512 8.708 C 9.701 8.737,9.764 8.723,9.986 8.602 C 10.187 8.493,10.266 8.415,10.359 8.235 L 10.477 8.006 10.477 6.091 C 10.477 4.397,10.468 4.161,10.399 4.037 C 10.294 3.846,10.136 3.705,9.929 3.619 C 9.688 3.518,9.489 3.529,9.208 3.660 M16.169 3.657 C 16.066 3.721,15.929 3.863,15.866 3.975 L 15.750 4.177 15.751 6.113 C 15.752 7.519,15.769 8.104,15.811 8.246 C 15.921 8.616,16.425 8.892,16.791 8.781 C 17.041 8.706,17.301 8.473,17.361 8.270 C 17.430 8.036,17.473 5.205,17.418 4.536 C 17.384 4.127,17.353 3.980,17.281 3.882 C 17.140 3.694,16.939 3.596,16.632 3.567 C 16.394 3.545,16.331 3.557,16.169 3.657 M5.273 15.186 L 5.273 19.886 5.454 20.366 C 5.656 20.901,5.850 21.229,6.182 21.597 C 6.614 22.075,7.397 22.538,7.936 22.636 C 8.148 22.675,9.702 22.698,13.183 22.713 L 18.130 22.736 18.519 22.593 C 19.245 22.327,19.754 21.984,20.172 21.478 C 20.434 21.163,20.728 20.615,20.831 20.253 C 20.939 19.871,21.000 19.131,21.000 18.195 L 21.000 17.360 21.422 17.360 C 22.373 17.360,23.074 17.210,23.656 16.881 C 23.939 16.720,24.593 16.094,24.812 15.772 C 25.166 15.254,25.339 14.665,25.339 13.972 C 25.341 12.401,24.451 11.186,22.914 10.663 L 22.590 10.553 13.932 10.519 L 5.273 10.485 5.273 15.186 M19.217 16.023 L 19.193 19.820 19.058 20.069 C 18.879 20.400,18.562 20.710,18.214 20.895 L 17.930 21.047 13.117 21.047 L 8.304 21.047 8.063 20.925 C 7.747 20.765,7.328 20.361,7.163 20.058 L 7.031 19.816 7.009 16.021 L 6.987 12.227 13.114 12.227 L 19.240 12.227 19.217 16.023 M22.022 12.272 C 22.692 12.350,23.156 12.632,23.459 13.147 C 23.583 13.358,23.590 13.400,23.590 13.930 C 23.590 14.452,23.582 14.504,23.466 14.701 C 23.299 14.985,22.869 15.383,22.598 15.504 C 22.414 15.587,22.260 15.607,21.688 15.624 L 21.000 15.645 21.000 13.936 L 21.000 12.227 21.315 12.227 C 21.488 12.227,21.806 12.248,22.022 12.272 M5.647 24.543 C 1.804 24.574,2.112 24.538,1.892 24.980 C 1.827 25.111,1.774 25.293,1.774 25.384 C 1.776 25.594,1.911 25.889,2.074 26.040 L 2.201 26.156 3.842 26.192 C 4.745 26.212,10.019 26.222,15.563 26.216 C 25.122 26.204,25.651 26.199,25.795 26.120 C 26.138 25.933,26.323 25.393,26.160 25.051 C 26.118 24.962,26.006 24.815,25.910 24.723 L 25.737 24.558 17.383 24.537 C 12.789 24.525,7.508 24.528,5.647 24.543 " fill="#1A1C1F" stroke="none" fill-rule="evenodd"></path></svg>