<svg width="32" height="32" viewBox="0 0 32 32" fill="none" xmlns="http://www.w3.org/2000/svg"><path d="M14.410 2.239 C 13.977 2.552,14.000 2.348,14.000 5.920 C 14.000 9.416,14.002 9.437,14.320 9.737 C 14.776 10.167,15.362 10.075,15.792 9.507 L 15.944 9.307 15.944 6.187 C 15.944 4.231,15.924 2.978,15.889 2.828 C 15.775 2.334,15.445 2.080,14.916 2.080 C 14.683 2.080,14.589 2.109,14.410 2.239 M10.523 4.183 C 10.026 4.415,9.973 4.681,9.977 6.933 C 9.979 8.802,10.019 9.333,10.172 9.538 C 10.332 9.755,10.595 9.911,10.871 9.952 C 11.087 9.985,11.159 9.969,11.412 9.831 C 11.642 9.707,11.733 9.617,11.839 9.411 L 11.973 9.149 11.973 6.961 C 11.973 5.025,11.963 4.755,11.885 4.613 C 11.765 4.396,11.584 4.234,11.348 4.136 C 11.072 4.021,10.845 4.034,10.523 4.183 M18.479 4.179 C 18.361 4.252,18.205 4.415,18.132 4.542 L 18.000 4.773 18.001 6.987 C 18.002 8.603,18.020 9.260,18.069 9.424 C 18.195 9.847,18.772 10.162,19.189 10.036 C 19.476 9.950,19.773 9.683,19.841 9.451 C 19.920 9.184,19.969 5.948,19.906 5.184 C 19.868 4.717,19.832 4.548,19.749 4.437 C 19.589 4.222,19.359 4.110,19.009 4.077 C 18.736 4.051,18.664 4.065,18.479 4.179 M6.027 17.354 L 6.027 22.725 6.219 23.242 C 6.325 23.527,6.498 23.904,6.604 24.080 C 7.009 24.755,7.969 25.529,8.720 25.787 C 9.127 25.927,10.760 25.967,16.065 25.971 L 20.744 25.973 21.176 25.815 C 22.316 25.400,23.054 24.761,23.551 23.760 C 23.897 23.063,23.949 22.755,23.984 21.187 L 24.015 19.840 24.489 19.840 C 25.563 19.840,26.443 19.648,27.078 19.276 C 27.364 19.109,28.127 18.363,28.357 18.025 C 28.762 17.433,28.959 16.760,28.959 15.969 C 28.961 14.168,27.948 12.786,26.187 12.187 L 25.818 12.061 15.922 12.022 L 6.027 11.983 6.027 17.354 M21.962 18.312 L 21.936 22.650 21.781 22.935 C 21.576 23.314,21.214 23.668,20.816 23.880 L 20.492 24.053 14.976 24.053 L 9.460 24.053 9.144 23.863 C 8.725 23.613,8.343 23.236,8.174 22.907 L 8.037 22.640 8.011 18.307 L 7.985 13.973 14.987 13.973 L 21.989 13.973 21.962 18.312 M25.147 14.029 C 25.946 14.120,26.459 14.427,26.810 15.026 C 26.952 15.266,26.960 15.315,26.960 15.920 C 26.960 16.517,26.950 16.576,26.818 16.801 C 26.627 17.126,26.136 17.581,25.827 17.719 C 25.616 17.814,25.440 17.837,24.787 17.856 L 24.000 17.880 24.000 15.927 L 24.000 13.973 24.333 13.974 C 24.517 13.974,24.883 13.999,25.147 14.029 M3.138 28.103 C 2.570 28.131,2.502 28.145,2.370 28.267 C 2.183 28.439,2.029 28.777,2.029 29.013 C 2.029 29.250,2.183 29.588,2.371 29.760 L 2.515 29.893 4.631 29.927 C 5.795 29.946,10.911 29.962,16.000 29.962 C 21.089 29.962,26.205 29.946,27.369 29.927 L 29.485 29.893 29.629 29.760 C 30.079 29.346,30.072 28.724,29.613 28.253 L 29.418 28.053 16.589 28.063 C 9.533 28.068,3.480 28.086,3.138 28.103 " fill="#1A1C1F" stroke="none" fill-rule="evenodd"></path></svg>