<svg width="24" height="24" viewBox="0 0 24 24" fill="none" xmlns="http://www.w3.org/2000/svg"><path d="M9.705 2.559 C 9.429 2.647,9.080 3.005,9.014 3.269 C 8.971 3.441,9.026 7.692,9.074 7.838 C 9.142 8.046,9.459 8.347,9.693 8.424 C 10.169 8.582,10.669 8.345,10.921 7.840 L 11.011 7.661 10.991 5.460 C 10.968 3.040,10.975 3.101,10.716 2.842 C 10.472 2.598,9.998 2.465,9.705 2.559 M6.760 4.556 C 6.397 4.632,6.116 4.907,6.034 5.266 C 5.964 5.571,5.964 7.540,6.034 7.788 C 6.089 7.980,6.358 8.272,6.577 8.376 C 6.805 8.484,7.091 8.502,7.302 8.421 C 7.548 8.327,7.864 8.008,7.925 7.790 C 7.956 7.678,7.974 7.235,7.976 6.500 C 7.980 5.524,7.971 5.354,7.909 5.177 C 7.751 4.723,7.251 4.453,6.760 4.556 M12.748 4.557 C 12.522 4.603,12.277 4.795,12.130 5.040 L 12.000 5.256 12.000 6.242 C 12.000 7.592,12.021 7.802,12.176 8.034 C 12.326 8.257,12.718 8.480,12.962 8.480 C 13.339 8.480,13.730 8.222,13.916 7.852 C 13.995 7.693,14.000 7.621,14.000 6.627 C 14.000 5.467,13.972 5.226,13.809 4.964 C 13.614 4.651,13.153 4.473,12.748 4.557 M3.000 14.301 L 3.000 18.081 3.145 18.531 C 3.478 19.565,3.999 20.275,4.828 20.827 C 5.422 21.222,6.013 21.419,6.780 21.480 C 7.416 21.531,12.568 21.530,13.178 21.479 C 14.279 21.388,15.141 20.987,15.868 20.226 C 16.371 19.701,16.651 19.214,16.861 18.496 C 16.954 18.182,16.969 18.045,16.989 17.330 L 17.012 16.520 17.476 16.520 C 18.539 16.519,19.313 16.287,19.905 15.792 C 20.493 15.300,20.855 14.634,20.968 13.837 C 21.056 13.211,20.872 12.440,20.501 11.881 C 20.161 11.370,19.548 10.896,18.937 10.672 C 18.702 10.586,18.672 10.585,14.540 10.556 C 12.252 10.541,8.720 10.526,6.690 10.524 L 3.000 10.520 3.000 14.301 M14.988 15.130 C 14.974 16.755,14.949 17.816,14.922 17.940 C 14.811 18.457,14.361 19.016,13.855 19.266 C 13.569 19.408,13.541 19.413,12.931 19.448 C 12.585 19.468,11.033 19.478,9.481 19.471 C 6.888 19.458,6.642 19.451,6.440 19.385 C 5.764 19.162,5.198 18.553,5.076 17.917 C 5.051 17.789,5.025 16.637,5.013 15.110 L 4.991 12.520 10.001 12.520 L 15.010 12.520 14.988 15.130 M18.518 12.669 C 18.820 12.891,18.966 13.159,18.968 13.497 C 18.971 13.879,18.759 14.216,18.406 14.389 C 18.198 14.490,18.135 14.500,17.616 14.514 L 17.053 14.529 17.027 14.134 C 17.012 13.917,17.000 13.463,17.000 13.124 L 17.000 12.508 17.679 12.530 C 18.353 12.551,18.358 12.552,18.518 12.669 " fill="#1A1C1F" stroke="none" fill-rule="evenodd"></path></svg>