<svg width="16" height="16" viewBox="0 0 16 16" fill="none" xmlns="http://www.w3.org/2000/svg"><path d="M6.800 3.200 L 6.800 4.800 7.600 4.800 L 8.400 4.800 8.400 3.200 L 8.400 1.600 7.600 1.600 L 6.800 1.600 6.800 3.200 M3.600 3.600 L 3.600 4.800 4.400 4.800 L 5.200 4.800 5.200 3.600 L 5.200 2.400 4.400 2.400 L 3.600 2.400 3.600 3.600 M2.000 9.205 L 2.000 12.018 2.096 12.322 C 2.416 13.341,3.029 13.958,4.055 14.295 L 4.375 14.400 6.400 14.400 L 8.425 14.400 8.740 14.297 C 9.275 14.121,9.635 13.907,9.988 13.553 C 10.311 13.230,10.586 12.757,10.691 12.343 C 10.754 12.096,10.800 11.704,10.800 11.418 L 10.800 11.208 11.407 11.192 C 12.080 11.174,12.237 11.145,12.596 10.974 C 13.279 10.647,13.749 10.079,13.925 9.368 C 14.009 9.028,14.004 8.562,13.912 8.208 C 13.706 7.422,13.182 6.856,12.361 6.535 L 12.092 6.430 7.046 6.411 L 2.000 6.392 2.000 9.205 M9.193 9.860 C 9.178 11.792,9.170 11.929,9.061 12.146 C 8.930 12.406,8.659 12.649,8.384 12.753 C 8.227 12.812,8.225 12.813,6.413 12.813 C 4.713 12.813,4.591 12.810,4.453 12.764 C 4.045 12.625,3.733 12.280,3.653 11.879 C 3.631 11.770,3.617 11.134,3.607 9.860 L 3.593 8.000 6.400 8.000 L 9.207 8.000 9.193 9.860 M11.920 8.083 C 12.068 8.146,12.211 8.287,12.298 8.453 C 12.349 8.553,12.360 8.614,12.360 8.813 C 12.360 9.029,12.352 9.068,12.281 9.195 C 12.201 9.340,12.088 9.447,11.920 9.535 C 11.841 9.577,11.748 9.586,11.313 9.595 L 10.800 9.606 10.800 8.799 L 10.800 7.992 11.298 8.010 C 11.710 8.026,11.817 8.038,11.920 8.083 " fill="#1A1C1F" stroke="none" fill-rule="evenodd"></path></svg>