<svg width="14" height="14" viewBox="0 0 14 14" fill="none" xmlns="http://www.w3.org/2000/svg"><path d="M6.650 2.800 L 6.650 4.200 7.350 4.200 L 8.050 4.200 8.050 2.800 L 8.050 1.400 7.350 1.400 L 6.650 1.400 6.650 2.800 M3.850 3.150 L 3.850 4.200 4.550 4.200 L 5.250 4.200 5.250 3.150 L 5.250 2.100 4.550 2.100 L 3.850 2.100 3.850 3.150 M1.750 8.057 L 1.750 10.522 1.843 10.805 C 2.019 11.343,2.277 11.734,2.651 12.034 C 2.914 12.245,3.186 12.389,3.545 12.507 L 3.828 12.600 5.600 12.600 L 7.372 12.600 7.648 12.509 C 8.391 12.265,8.864 11.872,9.183 11.235 C 9.366 10.868,9.450 10.478,9.450 9.991 L 9.450 9.807 9.981 9.793 C 10.540 9.777,10.655 9.759,10.932 9.644 C 11.422 9.439,11.837 9.044,12.052 8.578 C 12.306 8.029,12.297 7.322,12.029 6.789 C 11.910 6.551,11.821 6.428,11.633 6.240 C 11.374 5.981,11.130 5.830,10.753 5.697 L 10.551 5.626 6.150 5.609 L 1.750 5.593 1.750 8.057 M10.430 7.072 C 10.560 7.128,10.685 7.251,10.761 7.397 C 10.806 7.484,10.815 7.537,10.815 7.712 C 10.815 7.901,10.808 7.934,10.746 8.046 C 10.676 8.172,10.577 8.266,10.430 8.343 C 10.361 8.380,10.279 8.388,9.899 8.396 L 9.450 8.405 9.450 7.699 L 9.450 6.993 9.885 7.009 C 10.246 7.022,10.340 7.033,10.430 7.072 " fill="#1A1C1F" stroke="none" fill-rule="evenodd"></path></svg>