<svg width="20" height="20" viewBox="0 0 20 20" fill="none" xmlns="http://www.w3.org/2000/svg"><path d="M9.500 4.000 L 9.500 6.000 10.500 6.000 L 11.500 6.000 11.500 4.000 L 11.500 2.000 10.500 2.000 L 9.500 2.000 9.500 4.000 M5.500 4.500 L 5.500 6.000 6.500 6.000 L 7.500 6.000 7.500 4.500 L 7.500 3.000 6.500 3.000 L 5.500 3.000 5.500 4.500 M2.500 11.510 L 2.500 15.031 2.632 15.432 C 3.048 16.701,3.836 17.484,5.097 17.880 L 5.478 18.000 8.005 18.000 L 10.531 18.000 10.925 17.871 C 11.901 17.550,12.563 17.031,13.039 16.215 C 13.323 15.728,13.455 15.219,13.489 14.480 L 13.510 14.010 14.263 13.989 C 15.058 13.968,15.223 13.942,15.617 13.776 C 16.117 13.567,16.643 13.148,16.953 12.714 C 17.553 11.873,17.652 10.706,17.203 9.748 C 17.050 9.421,16.930 9.242,16.696 8.985 C 16.355 8.612,15.885 8.314,15.354 8.135 L 15.068 8.038 8.784 8.014 L 2.500 7.990 2.500 11.510 M14.898 10.103 C 15.093 10.189,15.250 10.340,15.361 10.550 C 15.438 10.694,15.449 10.757,15.450 11.017 C 15.450 11.287,15.440 11.334,15.352 11.494 C 15.252 11.675,15.110 11.808,14.900 11.919 C 14.801 11.971,14.685 11.983,14.142 11.994 L 13.500 12.007 13.500 10.998 L 13.500 9.990 14.123 10.013 C 14.641 10.032,14.772 10.047,14.898 10.103 " fill="#1A1C1F" stroke="none" fill-rule="evenodd"></path></svg>