<svg width="12" height="12" viewBox="0 0 12 12" fill="none" xmlns="http://www.w3.org/2000/svg"><path d="M1.570 1.253 C 1.433 1.324,1.355 1.392,1.278 1.507 L 1.197 1.628 1.206 3.089 C 1.215 4.675,1.211 4.616,1.331 4.976 C 1.490 5.451,1.876 5.946,2.297 6.216 C 2.436 6.304,2.733 6.444,2.885 6.491 L 3.000 6.527 3.000 8.434 C 3.000 10.342,3.000 10.342,3.043 10.425 C 3.141 10.618,3.266 10.722,3.461 10.772 C 3.674 10.826,3.880 10.762,4.037 10.592 C 4.212 10.400,4.199 10.578,4.200 8.430 L 4.200 6.530 4.365 6.472 C 4.732 6.344,4.958 6.201,5.256 5.912 C 5.565 5.612,5.706 5.405,5.850 5.042 C 5.981 4.712,5.981 4.704,5.994 3.117 L 6.005 1.683 5.958 1.587 C 5.905 1.476,5.758 1.321,5.658 1.269 C 5.573 1.225,5.338 1.208,5.226 1.238 C 5.113 1.269,4.962 1.392,4.879 1.522 L 4.810 1.629 4.796 2.943 C 4.789 3.682,4.773 4.325,4.761 4.413 C 4.709 4.797,4.389 5.169,3.980 5.324 C 3.831 5.380,3.785 5.388,3.610 5.388 C 3.147 5.390,2.782 5.166,2.541 4.730 L 2.432 4.533 2.417 4.011 C 2.410 3.725,2.402 3.078,2.402 2.574 C 2.400 1.689,2.399 1.656,2.359 1.577 C 2.296 1.454,2.162 1.319,2.050 1.267 C 1.927 1.210,1.668 1.202,1.570 1.253 M3.340 1.268 C 3.241 1.321,3.133 1.427,3.052 1.548 L 3.000 1.626 3.000 2.828 L 3.000 4.029 3.054 4.137 C 3.116 4.259,3.240 4.377,3.377 4.444 C 3.508 4.509,3.694 4.508,3.830 4.441 C 3.955 4.379,4.098 4.238,4.156 4.119 C 4.200 4.028,4.200 4.023,4.200 2.850 C 4.200 1.677,4.200 1.672,4.156 1.581 C 4.105 1.476,3.957 1.320,3.858 1.268 C 3.811 1.244,3.734 1.230,3.610 1.226 C 3.450 1.220,3.420 1.225,3.340 1.268 M9.750 1.232 C 9.138 1.319,8.598 1.600,8.119 2.079 C 7.701 2.497,7.484 2.868,7.297 3.488 C 7.239 3.681,7.235 3.713,7.220 4.200 C 7.211 4.481,7.202 5.540,7.202 6.555 L 7.200 8.400 8.399 8.400 L 9.599 8.400 9.604 9.385 L 9.610 10.370 9.664 10.461 C 9.730 10.574,9.878 10.713,9.976 10.754 C 10.073 10.795,10.326 10.795,10.423 10.754 C 10.522 10.713,10.653 10.591,10.733 10.466 L 10.800 10.362 10.800 6.010 L 10.800 1.658 10.759 1.577 C 10.702 1.466,10.568 1.325,10.471 1.274 C 10.401 1.237,10.352 1.231,10.100 1.228 C 9.941 1.226,9.783 1.228,9.750 1.232 M9.598 4.995 L 9.600 7.200 9.000 7.200 L 8.400 7.200 8.401 6.295 C 8.401 5.797,8.410 5.026,8.419 4.580 C 8.436 3.775,8.436 3.769,8.488 3.632 C 8.691 3.097,9.008 2.698,9.392 2.496 L 9.570 2.402 9.583 2.596 C 9.590 2.703,9.596 3.782,9.598 4.995 " fill="#1A1C1F" stroke="none" fill-rule="evenodd"></path></svg>