<svg width="20" height="20" viewBox="0 0 20 20" fill="none" xmlns="http://www.w3.org/2000/svg"><path d="M2.750 2.047 C 2.526 2.117,2.415 2.190,2.252 2.372 C 1.977 2.677,1.997 2.441,2.008 5.208 L 2.017 7.683 2.144 8.083 C 2.427 8.971,2.849 9.593,3.545 10.152 C 3.830 10.381,4.457 10.712,4.808 10.820 L 5.000 10.879 5.000 14.057 C 5.000 17.236,5.000 17.236,5.071 17.375 C 5.235 17.697,5.444 17.870,5.768 17.953 C 6.123 18.044,6.467 17.936,6.728 17.653 C 7.021 17.334,6.998 17.630,6.999 14.050 L 7.000 10.883 7.225 10.805 C 7.989 10.542,8.643 10.087,9.131 9.482 C 9.391 9.157,9.571 8.847,9.738 8.429 C 9.969 7.854,9.968 7.859,9.990 5.195 L 10.009 2.806 9.931 2.645 C 9.842 2.460,9.597 2.201,9.430 2.115 C 9.288 2.041,8.896 2.013,8.710 2.064 C 8.522 2.115,8.270 2.320,8.131 2.537 L 8.017 2.715 7.994 4.904 C 7.981 6.137,7.955 7.208,7.935 7.355 C 7.848 7.995,7.315 8.616,6.633 8.873 C 6.385 8.966,6.308 8.979,6.017 8.981 C 5.645 8.982,5.378 8.913,5.019 8.723 C 4.569 8.484,4.093 7.818,4.048 7.367 C 4.037 7.248,4.017 6.152,4.005 4.933 L 3.983 2.717 3.894 2.564 C 3.713 2.257,3.491 2.099,3.151 2.036 C 2.917 1.993,2.919 1.993,2.750 2.047 M5.567 2.113 C 5.402 2.202,5.221 2.378,5.087 2.580 L 5.000 2.709 5.000 4.711 C 5.000 6.707,5.000 6.713,5.074 6.864 C 5.170 7.063,5.408 7.299,5.617 7.401 C 5.848 7.515,6.152 7.515,6.383 7.401 C 6.592 7.299,6.830 7.063,6.926 6.864 C 7.000 6.713,7.000 6.706,7.000 4.750 C 7.000 2.794,7.000 2.787,6.926 2.636 C 6.842 2.460,6.595 2.201,6.430 2.114 C 6.352 2.073,6.223 2.051,6.017 2.043 C 5.750 2.034,5.700 2.042,5.567 2.113 M16.150 2.069 C 15.624 2.149,14.937 2.412,14.444 2.721 C 14.041 2.974,13.795 3.178,13.412 3.576 C 12.812 4.199,12.455 4.840,12.164 5.819 C 12.058 6.174,12.055 6.206,12.030 7.033 C 12.017 7.501,12.004 9.260,12.003 10.942 L 12.000 14.000 13.999 14.000 L 15.998 14.000 16.007 15.642 C 16.016 17.248,16.018 17.286,16.088 17.417 C 16.184 17.596,16.415 17.818,16.593 17.904 C 16.788 17.999,17.197 18.001,17.405 17.908 C 17.572 17.834,17.829 17.572,17.930 17.373 L 18.000 17.236 18.000 10.000 L 18.000 2.764 17.931 2.629 C 17.836 2.443,17.614 2.209,17.451 2.124 C 17.335 2.062,17.252 2.052,16.833 2.046 C 16.567 2.041,16.260 2.052,16.150 2.069 M16.000 8.000 L 16.000 12.000 14.995 12.000 L 13.989 12.000 14.012 9.425 C 14.025 8.009,14.049 6.696,14.066 6.507 C 14.093 6.218,14.120 6.110,14.243 5.822 C 14.494 5.228,14.904 4.674,15.314 4.373 C 15.473 4.256,15.923 4.003,15.975 4.001 C 15.989 4.000,16.000 5.800,16.000 8.000 " fill="#1A1C1F" stroke="none" fill-rule="evenodd"></path></svg>