<svg width="28" height="28" viewBox="0 0 28 28" fill="none" xmlns="http://www.w3.org/2000/svg"><path d="M5.842 1.826 C 5.757 1.851,5.598 1.965,5.488 2.079 L 5.288 2.288 5.258 3.302 C 5.241 3.860,5.227 5.243,5.227 6.374 L 5.227 8.432 5.408 8.989 C 5.507 9.296,5.664 9.695,5.755 9.877 C 5.937 10.237,6.365 10.801,6.654 11.061 C 7.163 11.518,7.981 11.981,8.474 12.092 L 8.727 12.148 8.728 18.826 L 8.729 25.503 8.856 25.735 C 9.072 26.129,9.434 26.294,9.845 26.184 C 10.067 26.125,10.322 25.917,10.434 25.704 C 10.490 25.598,10.500 24.793,10.500 20.543 C 10.500 17.774,10.514 14.750,10.531 13.823 L 10.562 12.137 10.706 12.107 C 11.304 11.980,12.193 11.464,12.706 10.946 C 13.232 10.414,13.569 9.838,13.866 8.963 L 14.000 8.569 14.000 5.496 C 14.000 2.107,14.016 2.293,13.700 2.016 C 13.403 1.755,13.025 1.707,12.712 1.890 C 12.493 2.018,12.351 2.193,12.302 2.392 C 12.285 2.463,12.251 3.876,12.227 5.532 L 12.183 8.543 11.972 8.950 C 11.711 9.455,11.430 9.780,11.024 10.048 C 10.401 10.458,9.825 10.577,9.165 10.431 C 8.469 10.277,8.324 10.199,7.862 9.734 C 7.357 9.225,7.164 8.879,7.093 8.353 C 7.067 8.161,7.027 6.743,7.006 5.203 C 6.963 2.148,6.965 2.167,6.690 1.972 C 6.547 1.870,6.242 1.771,6.090 1.778 C 6.039 1.780,5.927 1.802,5.842 1.826 M9.258 1.866 C 9.153 1.920,8.996 2.051,8.909 2.159 L 8.753 2.354 8.751 5.039 C 8.751 6.515,8.768 7.849,8.790 8.002 C 8.823 8.233,8.858 8.309,9.001 8.452 C 9.201 8.652,9.494 8.748,9.774 8.706 C 10.024 8.669,10.205 8.546,10.369 8.301 L 10.503 8.101 10.490 5.275 L 10.477 2.450 10.360 2.219 C 10.226 1.954,10.044 1.840,9.683 1.797 C 9.500 1.775,9.409 1.789,9.258 1.866 M21.257 1.804 C 19.791 1.978,18.372 2.860,17.513 4.130 C 17.233 4.544,17.059 4.916,16.824 5.603 L 16.613 6.218 16.613 11.525 L 16.613 16.833 16.747 17.032 C 16.821 17.142,16.971 17.292,17.081 17.366 L 17.281 17.500 19.140 17.500 L 21.000 17.500 21.000 21.551 L 21.000 25.602 21.135 25.814 C 21.400 26.232,21.920 26.349,22.324 26.081 C 22.728 25.813,22.700 26.084,22.732 22.213 C 22.748 20.327,22.763 15.119,22.766 10.640 L 22.771 2.497 22.644 2.267 C 22.495 1.998,22.346 1.877,22.093 1.818 C 21.915 1.777,21.540 1.770,21.257 1.804 M20.994 10.162 L 21.000 15.773 19.686 15.773 L 18.371 15.773 18.404 11.007 L 18.437 6.242 18.574 5.886 C 18.790 5.327,19.031 4.956,19.460 4.523 C 19.806 4.174,19.925 4.088,20.393 3.854 L 20.930 3.585 20.959 4.068 C 20.975 4.333,20.991 7.075,20.994 10.162 " fill="#1A1C1F" stroke="none" fill-rule="evenodd"></path></svg>