<svg width="24" height="24" viewBox="0 0 24 24" fill="none" xmlns="http://www.w3.org/2000/svg"><path d="M2.497 2.172 C 2.392 2.245,2.251 2.371,2.185 2.453 C 2.072 2.592,2.062 2.632,2.035 3.051 C 2.019 3.298,2.004 4.482,2.003 5.681 L 2.000 7.863 2.139 8.347 C 2.393 9.229,2.657 9.737,3.144 10.285 C 3.917 11.153,4.637 11.591,5.780 11.890 L 5.980 11.943 6.002 16.601 C 6.018 19.998,6.036 21.289,6.070 21.368 C 6.189 21.645,6.542 21.923,6.848 21.980 C 7.218 22.050,7.796 21.693,7.886 21.340 C 7.912 21.239,7.938 19.495,7.958 16.588 C 7.975 13.968,8.004 11.982,8.024 11.962 C 8.044 11.944,8.231 11.881,8.440 11.822 C 10.037 11.372,11.218 10.224,11.765 8.592 C 11.877 8.256,11.890 8.159,11.927 7.383 C 11.978 6.318,11.946 2.838,11.883 2.634 C 11.826 2.448,11.550 2.178,11.332 2.095 C 11.068 1.994,10.685 2.033,10.475 2.182 C 10.201 2.375,10.089 2.547,10.043 2.840 C 10.021 2.983,9.984 4.063,9.960 5.240 C 9.936 6.417,9.900 7.533,9.878 7.720 C 9.770 8.666,8.922 9.585,7.880 9.884 C 7.603 9.964,6.369 9.952,6.045 9.866 C 5.268 9.662,4.456 8.913,4.177 8.144 C 4.064 7.832,4.048 7.534,3.999 4.904 C 3.975 3.654,3.942 2.763,3.916 2.664 C 3.859 2.451,3.591 2.192,3.338 2.105 C 3.232 2.069,3.043 2.040,2.917 2.040 C 2.724 2.040,2.659 2.060,2.497 2.172 M6.508 2.163 C 6.405 2.231,6.264 2.359,6.194 2.447 C 6.075 2.597,6.064 2.639,6.031 3.054 C 6.012 3.299,6.002 4.337,6.009 5.360 C 6.020 7.067,6.027 7.234,6.095 7.391 C 6.230 7.701,6.674 8.000,7.000 8.000 C 7.325 8.000,7.762 7.706,7.919 7.381 C 8.005 7.205,8.005 7.189,7.991 4.992 C 7.979 3.163,7.966 2.754,7.917 2.629 C 7.779 2.275,7.398 2.041,6.957 2.040 C 6.730 2.040,6.668 2.057,6.508 2.163 M20.140 2.069 C 19.811 2.114,19.137 2.308,18.721 2.476 C 17.875 2.820,17.331 3.192,16.656 3.889 C 15.979 4.588,15.596 5.227,15.286 6.180 C 15.014 7.011,15.023 6.854,15.021 11.120 C 15.021 13.243,15.035 15.086,15.054 15.216 C 15.082 15.417,15.113 15.479,15.266 15.642 C 15.598 15.998,15.456 15.978,17.870 15.992 L 20.000 16.004 20.000 18.610 C 20.000 21.168,20.001 21.218,20.083 21.387 C 20.264 21.760,20.759 22.042,21.129 21.983 C 21.451 21.932,21.766 21.697,21.924 21.390 C 22.000 21.242,22.002 21.067,21.991 11.970 L 21.980 2.700 21.893 2.560 C 21.768 2.361,21.564 2.174,21.391 2.102 C 21.281 2.056,21.116 2.042,20.751 2.046 C 20.481 2.049,20.206 2.059,20.140 2.069 M19.944 4.190 C 19.962 4.229,19.984 6.452,19.991 9.130 L 20.006 14.000 18.499 14.000 L 16.991 14.000 17.008 10.610 L 17.025 7.220 17.151 6.851 C 17.581 5.599,18.395 4.737,19.640 4.215 C 19.908 4.103,19.904 4.104,19.944 4.190 " fill="#1A1C1F" stroke="none" fill-rule="evenodd"></path></svg>