<svg width="16" height="16" viewBox="0 0 16 16" fill="none" xmlns="http://www.w3.org/2000/svg"><path d="M2.200 1.637 C 1.977 1.708,1.826 1.830,1.669 2.064 L 1.600 2.167 1.600 4.108 L 1.600 6.049 1.694 6.375 C 1.745 6.554,1.828 6.794,1.878 6.909 C 2.067 7.345,2.411 7.781,2.836 8.122 C 3.064 8.305,3.566 8.570,3.847 8.656 L 4.000 8.703 4.000 11.246 C 4.000 13.789,4.000 13.789,4.057 13.900 C 4.188 14.157,4.355 14.296,4.613 14.362 C 4.894 14.434,5.168 14.350,5.374 14.130 C 5.618 13.869,5.599 14.112,5.599 11.240 L 5.600 8.707 5.820 8.630 C 6.409 8.423,6.919 8.064,7.304 7.585 C 7.513 7.326,7.657 7.077,7.791 6.744 C 7.976 6.281,7.975 6.288,7.992 4.155 L 8.007 2.244 7.944 2.115 C 7.874 1.970,7.680 1.764,7.544 1.689 C 7.415 1.619,6.985 1.619,6.856 1.689 C 6.722 1.762,6.526 1.969,6.459 2.108 C 6.401 2.228,6.400 2.250,6.398 3.388 C 6.397 4.901,6.364 5.920,6.312 6.084 C 6.201 6.439,5.848 6.835,5.485 7.013 C 5.088 7.207,4.844 7.239,4.458 7.146 C 4.106 7.062,3.962 6.981,3.706 6.723 C 3.529 6.543,3.453 6.442,3.361 6.260 L 3.243 6.026 3.224 5.260 C 3.213 4.838,3.203 3.970,3.202 3.330 L 3.200 2.167 3.131 2.064 C 2.953 1.798,2.785 1.678,2.521 1.629 C 2.334 1.594,2.336 1.594,2.200 1.637 M4.467 1.689 C 4.326 1.757,4.185 1.891,4.069 2.064 L 4.000 2.167 4.000 3.773 L 4.000 5.379 4.069 5.509 C 4.282 5.914,4.730 6.095,5.100 5.927 C 5.257 5.856,5.464 5.652,5.541 5.492 C 5.600 5.370,5.600 5.364,5.600 3.800 C 5.600 2.236,5.600 2.230,5.541 2.108 C 5.473 1.968,5.275 1.760,5.145 1.692 C 5.088 1.663,4.972 1.642,4.828 1.635 C 4.627 1.625,4.584 1.631,4.467 1.689 M13.000 1.643 C 11.948 1.793,10.942 2.441,10.316 3.372 C 10.056 3.758,9.889 4.124,9.730 4.650 C 9.652 4.908,9.647 4.951,9.626 5.600 C 9.614 5.974,9.603 7.387,9.602 8.740 L 9.600 11.200 11.199 11.200 L 12.798 11.200 12.806 12.513 C 12.813 13.824,12.813 13.827,12.874 13.941 C 12.954 14.090,13.119 14.248,13.271 14.322 C 13.441 14.404,13.759 14.404,13.929 14.322 C 14.090 14.244,14.249 14.086,14.332 13.922 L 14.400 13.788 14.400 8.000 L 14.400 2.211 14.344 2.099 C 14.272 1.954,14.096 1.771,13.960 1.699 C 13.867 1.650,13.803 1.642,13.467 1.637 C 13.254 1.634,13.044 1.637,13.000 1.643 M12.800 6.400 L 12.800 9.600 11.996 9.600 L 11.192 9.600 11.211 7.357 L 11.230 5.114 11.311 4.884 C 11.589 4.097,12.025 3.560,12.615 3.281 C 12.709 3.237,12.790 3.200,12.793 3.200 C 12.797 3.200,12.800 4.640,12.800 6.400 " fill="#1A1C1F" stroke="none" fill-rule="evenodd"></path></svg>