<svg width="14" height="14" viewBox="0 0 14 14" fill="none" xmlns="http://www.w3.org/2000/svg"><path d="M1.808 1.477 C 1.689 1.534,1.497 1.724,1.432 1.849 C 1.402 1.908,1.398 2.142,1.406 3.613 C 1.415 5.231,1.418 5.317,1.464 5.507 C 1.622 6.155,1.963 6.690,2.482 7.107 C 2.681 7.266,3.121 7.499,3.366 7.574 L 3.500 7.615 3.500 9.840 L 3.500 12.065 3.560 12.183 C 3.790 12.637,4.362 12.728,4.702 12.364 C 4.915 12.136,4.899 12.348,4.900 9.835 L 4.900 7.618 5.093 7.551 C 5.520 7.401,5.785 7.235,6.133 6.897 C 6.492 6.547,6.657 6.305,6.825 5.882 C 6.977 5.498,6.978 5.488,6.993 3.636 L 7.006 1.964 6.952 1.851 C 6.889 1.722,6.718 1.541,6.601 1.480 C 6.502 1.429,6.227 1.409,6.097 1.445 C 5.965 1.480,5.789 1.624,5.692 1.776 L 5.612 1.901 5.596 3.430 C 5.587 4.308,5.570 5.038,5.555 5.145 C 5.477 5.717,4.899 6.242,4.291 6.293 C 4.086 6.310,3.822 6.252,3.577 6.135 C 3.319 6.011,3.134 5.826,2.964 5.518 L 2.837 5.288 2.820 4.680 C 2.811 4.345,2.803 3.591,2.802 3.003 C 2.800 1.796,2.809 1.860,2.607 1.641 C 2.464 1.486,2.359 1.440,2.123 1.430 C 1.951 1.422,1.909 1.428,1.808 1.477 M3.947 1.452 C 3.848 1.485,3.664 1.651,3.572 1.789 L 3.500 1.898 3.500 3.302 L 3.500 4.706 3.560 4.821 C 3.746 5.174,4.139 5.333,4.462 5.187 C 4.600 5.124,4.781 4.945,4.848 4.805 C 4.900 4.699,4.900 4.694,4.900 3.325 C 4.900 1.956,4.900 1.951,4.848 1.845 C 4.789 1.722,4.616 1.540,4.501 1.480 C 4.405 1.430,4.064 1.412,3.947 1.452 M11.307 1.448 C 10.737 1.536,10.081 1.856,9.602 2.279 C 9.324 2.525,8.978 2.977,8.806 3.317 C 8.697 3.534,8.598 3.788,8.514 4.069 C 8.446 4.293,8.441 4.334,8.423 4.888 C 8.412 5.209,8.403 6.446,8.402 7.636 L 8.400 9.800 9.799 9.800 L 11.198 9.800 11.205 10.949 L 11.212 12.098 11.274 12.205 C 11.352 12.336,11.525 12.498,11.639 12.546 C 11.753 12.594,12.047 12.594,12.161 12.546 C 12.280 12.496,12.452 12.332,12.532 12.192 L 12.600 12.075 12.600 7.005 L 12.600 1.935 12.552 1.840 C 12.485 1.710,12.330 1.546,12.216 1.487 C 12.134 1.444,12.076 1.436,11.783 1.432 C 11.597 1.429,11.383 1.436,11.307 1.448 M11.200 5.600 L 11.200 8.400 10.496 8.400 L 9.793 8.400 9.809 6.438 L 9.826 4.476 9.897 4.274 C 10.084 3.744,10.372 3.317,10.707 3.071 C 10.816 2.991,11.150 2.801,11.183 2.800 C 11.192 2.800,11.200 4.060,11.200 5.600 " fill="#1A1C1F" stroke="none" fill-rule="evenodd"></path></svg>