<svg width="32" height="32" viewBox="0 0 32 32" fill="none" xmlns="http://www.w3.org/2000/svg"><path d="M6.677 2.087 C 6.580 2.115,6.398 2.245,6.272 2.376 L 6.044 2.615 6.009 3.774 C 5.989 4.412,5.974 5.992,5.973 7.285 L 5.973 9.637 6.184 10.285 C 6.567 11.465,7.064 12.213,7.910 12.885 C 8.409 13.282,9.237 13.719,9.675 13.817 L 9.973 13.884 9.975 21.515 L 9.976 29.147 10.121 29.412 C 10.368 29.862,10.782 30.050,11.251 29.925 C 11.505 29.857,11.797 29.620,11.925 29.376 C 11.988 29.254,12.000 28.339,12.000 23.509 C 12.000 20.362,12.016 16.907,12.035 15.831 L 12.070 13.875 12.313 13.814 C 13.026 13.635,13.945 13.091,14.522 12.508 C 15.123 11.902,15.508 11.243,15.847 10.243 L 16.000 9.793 16.000 6.281 C 16.000 3.318,15.988 2.745,15.923 2.619 C 15.753 2.291,15.315 2.028,14.937 2.027 C 14.596 2.026,14.139 2.395,14.059 2.736 C 14.039 2.818,14.001 4.433,13.973 6.324 L 13.923 9.763 13.683 10.228 C 13.384 10.805,13.063 11.177,12.599 11.483 C 11.886 11.952,11.228 12.088,10.474 11.921 C 9.679 11.745,9.513 11.656,8.986 11.125 C 8.408 10.543,8.188 10.147,8.106 9.547 C 8.076 9.327,8.031 7.707,8.006 5.947 C 7.957 2.456,7.959 2.476,7.646 2.254 C 7.482 2.137,7.133 2.024,6.960 2.032 C 6.901 2.034,6.774 2.059,6.677 2.087 M10.581 2.132 C 10.460 2.194,10.281 2.344,10.182 2.467 L 10.003 2.690 10.001 5.758 C 10.001 7.446,10.020 8.970,10.045 9.145 C 10.083 9.410,10.124 9.496,10.287 9.660 C 10.516 9.888,10.850 9.998,11.170 9.950 C 11.456 9.907,11.663 9.766,11.851 9.486 L 12.005 9.257 11.989 6.029 L 11.973 2.800 11.840 2.533 C 11.688 2.229,11.488 2.104,11.067 2.053 C 10.857 2.028,10.753 2.045,10.581 2.132 M24.293 2.062 C 22.618 2.261,20.996 3.268,20.015 4.720 C 19.695 5.193,19.496 5.619,19.227 6.403 L 18.987 7.106 18.987 13.172 L 18.987 19.237 19.140 19.465 C 19.224 19.591,19.396 19.763,19.521 19.847 L 19.749 20.000 21.875 20.000 L 24.000 20.000 24.000 24.630 L 24.000 29.259 24.154 29.502 C 24.457 29.979,25.051 30.113,25.513 29.807 C 25.975 29.501,25.942 29.811,25.980 25.387 C 25.998 23.231,26.015 17.279,26.019 12.160 L 26.024 2.853 25.879 2.591 C 25.708 2.284,25.538 2.145,25.249 2.078 C 25.045 2.030,24.617 2.023,24.293 2.062 M23.965 4.835 C 23.984 5.236,24.000 8.368,24.000 11.795 L 24.000 18.027 22.498 18.027 L 20.996 18.027 21.033 12.581 L 21.070 7.134 21.227 6.727 C 21.475 6.087,21.750 5.663,22.240 5.171 C 22.623 4.786,22.785 4.667,23.280 4.412 C 23.603 4.246,23.881 4.110,23.898 4.109 C 23.916 4.108,23.946 4.434,23.965 4.835 " fill="#1A1C1F" stroke="none" fill-rule="evenodd"></path></svg>