<svg width="12" height="12" viewBox="0 0 12 12" fill="none" xmlns="http://www.w3.org/2000/svg"><path d="M4.598 1.846 C 4.497 1.884,4.413 1.948,4.333 2.046 C 4.203 2.207,4.211 2.142,4.204 3.212 L 4.198 4.193 3.219 4.207 C 2.116 4.221,2.173 4.213,1.989 4.383 C 1.863 4.499,1.811 4.618,1.811 4.791 C 1.811 5.045,1.965 5.263,2.211 5.357 C 2.322 5.399,2.341 5.400,3.627 5.400 C 4.869 5.399,4.934 5.397,5.015 5.361 C 5.133 5.307,5.289 5.155,5.349 5.034 L 5.400 4.932 5.400 3.610 L 5.400 2.288 5.351 2.189 C 5.232 1.952,5.072 1.844,4.817 1.828 C 4.721 1.822,4.645 1.829,4.598 1.846 M7.015 1.839 C 6.927 1.867,6.829 1.935,6.750 2.023 C 6.606 2.183,6.613 2.103,6.604 3.582 C 6.596 4.888,6.597 4.917,6.637 5.007 C 6.691 5.131,6.842 5.287,6.966 5.349 L 7.068 5.400 8.405 5.400 C 9.732 5.400,9.742 5.400,9.826 5.357 C 10.068 5.234,10.183 5.058,10.183 4.810 C 10.183 4.598,10.089 4.426,9.905 4.304 L 9.794 4.230 9.392 4.217 C 9.171 4.210,8.722 4.203,8.395 4.202 L 7.800 4.200 7.800 3.243 L 7.800 2.286 7.748 2.188 C 7.678 2.054,7.553 1.931,7.439 1.881 C 7.332 1.836,7.098 1.812,7.015 1.839 M2.250 6.638 C 2.011 6.678,1.780 6.989,1.804 7.239 C 1.823 7.430,1.976 7.650,2.152 7.740 L 2.250 7.790 3.223 7.797 L 4.196 7.804 4.203 8.777 L 4.210 9.750 4.260 9.848 C 4.318 9.961,4.444 10.078,4.577 10.144 C 4.708 10.209,4.894 10.208,5.030 10.141 C 5.155 10.079,5.298 9.938,5.356 9.819 L 5.400 9.727 5.400 8.409 C 5.399 6.903,5.412 7.015,5.216 6.808 C 5.024 6.605,5.150 6.620,3.646 6.623 C 2.922 6.624,2.294 6.631,2.250 6.638 M7.027 6.639 C 6.933 6.662,6.828 6.733,6.750 6.828 C 6.605 7.006,6.613 6.923,6.604 8.396 L 6.596 9.722 6.652 9.833 C 6.804 10.133,7.159 10.274,7.430 10.141 C 7.555 10.079,7.698 9.938,7.756 9.819 C 7.800 9.728,7.800 9.717,7.800 8.764 L 7.800 7.800 8.763 7.800 C 9.721 7.800,9.726 7.800,9.818 7.755 C 9.869 7.730,9.956 7.664,10.013 7.608 C 10.097 7.526,10.125 7.480,10.158 7.371 C 10.209 7.208,10.209 7.185,10.167 7.036 C 10.129 6.899,10.021 6.766,9.883 6.685 L 9.790 6.630 8.440 6.627 C 7.697 6.625,7.062 6.630,7.027 6.639 " fill="#1A1C1F" stroke="none" fill-rule="evenodd"></path></svg>