<svg width="24" height="24" viewBox="0 0 24 24" fill="none" xmlns="http://www.w3.org/2000/svg"><path d="M4.280 3.036 C 3.811 3.054,3.631 3.076,3.540 3.127 C 3.407 3.200,3.221 3.390,3.083 3.591 L 2.993 3.723 3.008 6.491 C 3.026 9.601,3.013 9.468,3.324 9.734 C 3.508 9.892,3.712 9.960,4.000 9.960 C 4.413 9.960,4.719 9.790,4.890 9.466 C 4.977 9.302,4.978 9.274,4.993 7.150 L 5.008 5.000 7.125 5.000 C 9.179 5.000,9.248 4.998,9.403 4.918 C 9.644 4.796,9.869 4.551,9.922 4.353 C 9.998 4.069,9.956 3.679,9.828 3.485 C 9.667 3.241,9.436 3.089,9.188 3.064 C 8.867 3.031,4.977 3.009,4.280 3.036 M15.580 3.038 C 14.570 3.062,14.539 3.069,14.292 3.327 C 14.118 3.508,14.040 3.713,14.040 3.992 C 14.040 4.311,14.136 4.570,14.310 4.724 C 14.607 4.984,14.529 4.976,16.866 4.992 L 18.992 5.007 19.007 7.154 C 19.022 9.274,19.023 9.302,19.110 9.466 C 19.281 9.790,19.587 9.960,20.000 9.960 C 20.288 9.960,20.492 9.892,20.676 9.734 C 20.985 9.470,20.973 9.591,20.992 6.563 C 21.003 4.649,20.995 3.822,20.964 3.717 C 20.900 3.504,20.594 3.179,20.389 3.106 C 20.250 3.056,19.885 3.043,18.360 3.031 C 17.337 3.022,16.086 3.026,15.580 3.038 M3.580 14.106 C 3.407 14.197,3.208 14.394,3.093 14.589 L 2.993 14.758 3.009 17.509 C 3.020 19.604,3.036 20.289,3.074 20.380 C 3.142 20.540,3.425 20.828,3.608 20.923 C 3.749 20.996,3.858 21.000,5.688 20.996 C 6.751 20.993,8.017 20.980,8.503 20.966 C 9.381 20.940,9.387 20.939,9.553 20.830 C 9.644 20.769,9.769 20.644,9.830 20.553 C 9.930 20.401,9.940 20.353,9.940 20.016 C 9.940 19.670,9.933 19.636,9.819 19.475 C 9.752 19.380,9.620 19.248,9.526 19.181 L 9.353 19.060 8.467 19.034 C 7.979 19.020,7.000 19.007,6.290 19.004 L 5.000 19.000 5.000 16.898 C 5.000 15.030,4.993 14.782,4.935 14.668 C 4.721 14.250,4.393 14.039,3.962 14.042 C 3.804 14.043,3.652 14.068,3.580 14.106 M19.497 14.172 C 19.392 14.245,19.252 14.370,19.186 14.451 C 19.083 14.579,19.063 14.644,19.036 14.949 C 19.020 15.142,19.004 16.130,19.003 17.144 L 19.000 18.988 16.910 19.012 C 15.539 19.027,14.767 19.050,14.667 19.080 C 14.466 19.140,14.226 19.361,14.116 19.589 C 13.938 19.957,14.035 20.494,14.324 20.737 C 14.603 20.973,14.499 20.965,17.477 20.989 C 20.625 21.016,20.365 21.044,20.748 20.626 L 20.947 20.407 20.974 19.917 C 21.006 19.310,21.001 16.222,20.966 15.294 L 20.940 14.608 20.777 14.416 C 20.540 14.137,20.335 14.040,19.978 14.040 C 19.716 14.040,19.671 14.052,19.497 14.172 " fill="#1A1C1F" stroke="none" fill-rule="evenodd"></path></svg>