<svg width="12" height="12" viewBox="0 0 12 12" fill="none" xmlns="http://www.w3.org/2000/svg"><path d="M2.510 1.819 C 2.294 1.829,2.214 1.840,2.160 1.868 C 2.035 1.934,1.930 2.033,1.870 2.143 L 1.810 2.250 1.803 3.283 C 1.795 4.454,1.789 4.402,1.962 4.590 C 2.086 4.724,2.218 4.786,2.381 4.786 C 2.633 4.786,2.831 4.670,2.943 4.457 C 2.987 4.372,2.989 4.352,2.996 3.687 L 3.004 3.005 3.687 2.996 C 4.335 2.988,4.374 2.986,4.451 2.946 C 4.559 2.889,4.697 2.749,4.743 2.650 C 4.785 2.557,4.792 2.346,4.758 2.209 C 4.731 2.102,4.611 1.960,4.487 1.887 C 4.405 1.839,4.370 1.833,4.084 1.818 C 3.735 1.800,2.939 1.801,2.510 1.819 M7.586 1.852 C 7.471 1.894,7.328 2.025,7.267 2.145 C 7.196 2.286,7.193 2.511,7.260 2.650 C 7.317 2.767,7.428 2.883,7.544 2.943 C 7.627 2.987,7.652 2.989,8.303 2.996 L 8.975 3.004 8.985 3.667 C 8.992 4.098,9.004 4.357,9.019 4.408 C 9.052 4.513,9.202 4.668,9.333 4.732 C 9.421 4.775,9.470 4.785,9.597 4.786 C 9.790 4.788,9.896 4.742,10.029 4.599 C 10.207 4.409,10.199 4.469,10.200 3.304 C 10.200 2.294,10.199 2.277,10.157 2.194 C 10.090 2.062,10.027 1.989,9.907 1.907 L 9.795 1.830 8.733 1.826 C 7.831 1.823,7.657 1.827,7.586 1.852 M2.246 7.228 C 2.068 7.286,1.910 7.428,1.835 7.597 C 1.796 7.686,1.795 7.716,1.804 8.719 C 1.816 9.892,1.807 9.833,1.987 10.008 C 2.178 10.194,2.105 10.184,3.281 10.196 L 4.315 10.206 4.413 10.159 C 4.548 10.093,4.677 9.968,4.733 9.850 C 4.790 9.728,4.798 9.483,4.749 9.364 C 4.714 9.279,4.558 9.111,4.472 9.066 C 4.403 9.030,3.946 9.002,3.387 9.001 L 3.024 9.000 3.017 8.325 C 3.010 7.667,3.008 7.648,2.963 7.555 C 2.845 7.314,2.486 7.150,2.246 7.228 M9.347 7.277 C 9.236 7.329,9.110 7.447,9.044 7.558 L 8.990 7.650 8.984 8.322 L 8.978 8.994 8.297 9.007 L 7.616 9.020 7.516 9.074 C 7.373 9.152,7.247 9.300,7.207 9.437 C 7.139 9.670,7.245 9.938,7.469 10.099 L 7.568 10.170 7.859 10.183 C 8.019 10.191,8.501 10.198,8.931 10.198 L 9.712 10.200 9.814 10.149 C 9.939 10.087,10.089 9.931,10.144 9.805 C 10.185 9.713,10.185 9.691,10.176 8.680 C 10.165 7.523,10.172 7.578,10.013 7.420 C 9.884 7.291,9.797 7.254,9.600 7.246 C 9.463 7.240,9.414 7.246,9.347 7.277 " fill="#1A1C1F" stroke="none" fill-rule="evenodd"></path></svg>