<svg width="14" height="14" viewBox="0 0 14 14" fill="none" xmlns="http://www.w3.org/2000/svg"><path d="M2.917 2.122 C 2.576 2.138,2.523 2.154,2.344 2.299 C 2.293 2.340,2.219 2.431,2.181 2.500 L 2.112 2.625 2.104 3.830 C 2.094 5.197,2.087 5.135,2.289 5.355 C 2.434 5.512,2.587 5.583,2.778 5.583 C 3.076 5.584,3.301 5.452,3.433 5.200 C 3.485 5.101,3.487 5.077,3.496 4.302 L 3.505 3.505 4.302 3.496 C 5.201 3.485,5.182 3.489,5.386 3.291 C 5.516 3.165,5.578 3.018,5.580 2.837 C 5.581 2.601,5.535 2.475,5.393 2.326 C 5.242 2.167,5.166 2.142,4.760 2.121 C 4.355 2.100,3.396 2.101,2.917 2.122 M8.850 2.161 C 8.717 2.209,8.540 2.372,8.471 2.511 C 8.392 2.670,8.391 2.929,8.470 3.091 C 8.536 3.229,8.666 3.363,8.802 3.434 C 8.898 3.485,8.927 3.487,9.686 3.496 L 10.471 3.505 10.483 4.278 C 10.491 4.781,10.504 5.083,10.523 5.142 C 10.561 5.265,10.735 5.446,10.888 5.521 C 10.989 5.570,11.050 5.583,11.195 5.585 C 11.418 5.588,11.543 5.533,11.701 5.365 C 11.908 5.143,11.899 5.214,11.899 3.855 L 11.900 2.658 11.844 2.548 C 11.788 2.438,11.588 2.230,11.479 2.168 C 11.390 2.117,8.990 2.111,8.850 2.161 M2.621 8.432 C 2.420 8.498,2.245 8.650,2.145 8.847 C 2.094 8.947,2.094 8.949,2.105 10.161 C 2.118 11.542,2.108 11.471,2.318 11.676 C 2.540 11.893,2.455 11.881,3.825 11.895 C 5.007 11.907,5.031 11.906,5.139 11.858 C 5.292 11.791,5.468 11.619,5.529 11.477 C 5.593 11.329,5.598 11.112,5.541 10.942 C 5.498 10.811,5.352 10.646,5.218 10.577 C 5.130 10.532,4.674 10.503,3.999 10.501 L 3.529 10.500 3.517 9.724 C 3.509 9.218,3.496 8.917,3.477 8.857 C 3.436 8.724,3.238 8.535,3.075 8.475 C 2.898 8.408,2.740 8.394,2.621 8.432 M11.044 8.450 C 10.849 8.484,10.665 8.625,10.547 8.831 L 10.477 8.954 10.477 9.723 L 10.477 10.492 9.682 10.508 C 8.942 10.522,8.881 10.527,8.793 10.572 C 8.655 10.642,8.503 10.791,8.443 10.916 C 8.370 11.066,8.369 11.308,8.440 11.463 C 8.507 11.610,8.717 11.818,8.834 11.854 C 8.897 11.873,9.288 11.885,10.121 11.894 L 11.317 11.906 11.446 11.840 C 11.601 11.762,11.769 11.589,11.835 11.439 C 11.882 11.332,11.883 11.307,11.871 10.126 C 11.858 8.776,11.866 8.840,11.682 8.657 C 11.629 8.603,11.546 8.539,11.498 8.514 C 11.389 8.458,11.173 8.428,11.044 8.450 " fill="#1A1C1F" stroke="none" fill-rule="evenodd"></path></svg>