<svg width="20" height="20" viewBox="0 0 20 20" fill="none" xmlns="http://www.w3.org/2000/svg"><path d="M7.663 3.077 C 7.495 3.140,7.354 3.246,7.222 3.410 C 7.006 3.678,7.018 3.569,7.007 5.353 L 6.997 6.989 5.362 7.012 C 3.523 7.038,3.620 7.024,3.315 7.305 C 3.105 7.498,3.019 7.696,3.019 7.985 C 3.018 8.409,3.274 8.771,3.685 8.928 C 3.870 8.999,3.901 9.000,6.045 8.999 C 8.115 8.999,8.223 8.996,8.358 8.935 C 8.555 8.845,8.815 8.591,8.915 8.390 L 9.000 8.220 8.999 6.018 C 8.999 3.883,8.997 3.812,8.931 3.669 C 8.755 3.281,8.454 3.073,8.028 3.047 C 7.869 3.037,7.741 3.048,7.663 3.077 M11.662 3.083 C 11.464 3.147,11.194 3.389,11.095 3.592 L 11.017 3.750 11.005 5.976 L 10.993 8.202 11.084 8.381 C 11.193 8.597,11.392 8.798,11.613 8.914 L 11.777 9.000 14.006 9.000 C 16.220 9.000,16.237 8.999,16.376 8.929 C 16.780 8.723,16.971 8.429,16.971 8.017 C 16.971 7.663,16.814 7.377,16.509 7.174 L 16.323 7.050 15.586 7.028 C 15.181 7.016,14.435 7.004,13.928 7.003 L 13.006 7.000 12.995 5.392 C 12.983 3.792,12.983 3.783,12.907 3.628 C 12.818 3.448,12.601 3.236,12.400 3.134 C 12.217 3.040,11.870 3.017,11.662 3.083 M3.744 11.064 C 3.349 11.129,2.974 11.632,3.007 12.052 C 3.025 12.275,3.146 12.515,3.332 12.701 C 3.626 12.995,3.534 12.981,5.372 12.994 L 6.994 13.006 7.006 14.628 C 7.019 16.466,7.005 16.374,7.299 16.668 C 7.517 16.886,7.732 16.983,8.000 16.983 C 8.163 16.983,8.258 16.963,8.383 16.901 C 8.592 16.799,8.830 16.563,8.926 16.364 L 9.000 16.212 9.000 13.996 L 9.000 11.779 8.883 11.581 C 8.749 11.356,8.586 11.198,8.385 11.101 C 8.249 11.035,8.189 11.033,6.064 11.038 C 4.865 11.040,3.821 11.052,3.744 11.064 M11.712 11.065 C 11.555 11.103,11.381 11.222,11.251 11.380 C 11.009 11.675,11.022 11.539,11.007 13.991 L 10.993 16.198 11.070 16.357 C 11.112 16.445,11.215 16.585,11.299 16.668 C 11.726 17.095,12.275 17.095,12.701 16.668 C 12.995 16.374,12.981 16.466,12.994 14.625 L 13.006 13.000 14.608 13.000 C 16.201 13.000,16.210 13.000,16.363 12.925 C 16.587 12.816,16.849 12.538,16.912 12.344 C 17.008 12.047,17.011 11.949,16.937 11.709 C 16.852 11.437,16.748 11.308,16.485 11.151 L 16.287 11.033 14.052 11.037 C 12.823 11.039,11.770 11.051,11.712 11.065 " fill="#1A1C1F" stroke="none" fill-rule="evenodd"></path></svg>