<svg width="16" height="16" viewBox="0 0 16 16" fill="none" xmlns="http://www.w3.org/2000/svg"><path d="M6.060 2.493 C 5.983 2.533,5.871 2.620,5.811 2.689 C 5.601 2.927,5.614 2.823,5.606 4.282 L 5.598 5.591 4.293 5.608 C 2.823 5.627,2.899 5.616,2.652 5.844 C 2.484 5.999,2.415 6.157,2.415 6.388 C 2.415 6.727,2.620 7.017,2.948 7.143 C 3.096 7.199,3.121 7.200,4.836 7.199 C 6.492 7.199,6.579 7.196,6.686 7.148 C 6.844 7.076,7.052 6.873,7.132 6.712 L 7.200 6.576 7.200 4.800 L 7.200 3.024 7.105 2.865 C 7.052 2.778,6.984 2.679,6.953 2.646 C 6.850 2.536,6.643 2.456,6.413 2.439 C 6.218 2.424,6.188 2.428,6.060 2.493 M9.330 2.467 C 9.172 2.518,8.956 2.711,8.875 2.874 L 8.813 3.000 8.804 4.781 L 8.795 6.562 8.867 6.705 C 8.954 6.878,9.114 7.038,9.291 7.131 L 9.421 7.200 11.205 7.200 C 12.976 7.200,12.990 7.200,13.101 7.143 C 13.421 6.980,13.576 6.745,13.579 6.417 C 13.581 6.139,13.451 5.901,13.207 5.739 L 13.058 5.640 12.509 5.623 C 12.207 5.613,11.610 5.604,11.182 5.603 L 10.405 5.600 10.395 4.313 C 10.384 2.871,10.392 2.932,10.183 2.706 C 10.120 2.638,10.010 2.552,9.938 2.516 C 9.773 2.432,9.505 2.410,9.330 2.467 M3.839 8.827 L 2.945 8.840 2.804 8.931 C 2.544 9.098,2.381 9.393,2.406 9.652 C 2.430 9.906,2.634 10.200,2.870 10.320 L 3.000 10.387 4.298 10.396 L 5.596 10.404 5.604 11.702 L 5.613 13.000 5.680 13.130 C 5.757 13.281,5.925 13.438,6.102 13.525 C 6.274 13.610,6.526 13.610,6.698 13.525 C 6.880 13.435,7.045 13.278,7.128 13.116 L 7.200 12.973 7.200 11.198 L 7.200 9.424 7.105 9.265 C 6.983 9.062,6.940 9.018,6.768 8.916 L 6.627 8.832 5.680 8.823 C 5.159 8.818,4.331 8.819,3.839 8.827 M9.370 8.852 C 9.244 8.882,9.104 8.977,9.001 9.104 C 8.807 9.341,8.817 9.230,8.805 11.194 L 8.795 12.962 8.869 13.109 C 9.018 13.403,9.297 13.585,9.600 13.585 C 9.821 13.585,9.982 13.514,10.154 13.342 C 10.397 13.098,10.385 13.177,10.395 11.700 L 10.405 10.400 11.686 10.400 C 12.961 10.400,12.968 10.400,13.090 10.340 C 13.269 10.253,13.479 10.030,13.529 9.875 C 13.606 9.637,13.609 9.559,13.549 9.367 C 13.482 9.150,13.398 9.046,13.188 8.921 L 13.030 8.827 11.242 8.829 C 10.258 8.831,9.416 8.841,9.370 8.852 " fill="#1A1C1F" stroke="none" fill-rule="evenodd"></path></svg>