<svg width="16" height="16" viewBox="0 0 16 16" fill="none" xmlns="http://www.w3.org/2000/svg"><path d="M3.333 2.426 C 2.944 2.443,2.883 2.462,2.679 2.627 C 2.620 2.675,2.536 2.778,2.493 2.857 L 2.414 3.000 2.404 4.377 C 2.393 5.939,2.385 5.869,2.617 6.120 C 2.781 6.299,2.952 6.378,3.173 6.380 C 3.515 6.382,3.771 6.233,3.924 5.943 C 3.984 5.830,3.985 5.804,3.995 4.916 L 4.005 4.005 4.916 3.995 C 5.801 3.985,5.830 3.983,5.941 3.925 C 6.226 3.774,6.379 3.526,6.379 3.213 C 6.379 2.983,6.313 2.810,6.165 2.658 C 5.992 2.479,5.902 2.448,5.467 2.424 C 5.029 2.400,3.874 2.401,3.333 2.426 M10.114 2.471 C 9.963 2.524,9.761 2.711,9.681 2.870 C 9.595 3.042,9.591 3.341,9.673 3.524 C 9.739 3.673,9.902 3.842,10.059 3.925 C 10.170 3.983,10.200 3.985,11.070 3.995 L 11.967 4.005 11.981 4.889 C 11.990 5.456,12.006 5.810,12.026 5.877 C 12.069 6.016,12.268 6.224,12.442 6.309 C 12.557 6.365,12.623 6.378,12.793 6.379 C 13.048 6.380,13.209 6.310,13.383 6.121 C 13.608 5.877,13.599 5.951,13.599 4.406 L 13.600 3.038 13.535 2.910 C 13.452 2.747,13.178 2.491,13.046 2.455 C 12.983 2.437,12.452 2.428,11.587 2.429 C 10.451 2.431,10.208 2.437,10.114 2.471 M2.995 9.637 C 2.772 9.709,2.600 9.855,2.470 10.082 L 2.400 10.205 2.400 11.587 C 2.400 12.957,2.401 12.971,2.459 13.092 C 2.491 13.159,2.578 13.274,2.652 13.348 C 2.896 13.591,2.808 13.579,4.372 13.594 C 5.722 13.607,5.751 13.607,5.873 13.552 C 6.047 13.475,6.249 13.278,6.318 13.118 C 6.389 12.953,6.396 12.694,6.333 12.507 C 6.286 12.363,6.110 12.164,5.964 12.089 C 5.865 12.037,5.312 12.003,4.543 12.001 L 4.032 12.000 4.022 11.100 C 4.013 10.223,4.011 10.197,3.951 10.074 C 3.793 9.752,3.315 9.534,2.995 9.637 M12.622 9.657 C 12.399 9.696,12.188 9.858,12.054 10.093 L 11.973 10.233 11.973 11.112 L 11.973 11.991 11.066 12.008 L 10.158 12.024 10.023 12.098 C 9.633 12.310,9.481 12.723,9.651 13.107 C 9.722 13.267,9.963 13.506,10.096 13.548 C 10.169 13.570,10.602 13.584,11.567 13.593 L 12.934 13.606 13.077 13.536 C 13.249 13.452,13.450 13.245,13.526 13.073 C 13.580 12.951,13.581 12.923,13.567 11.574 C 13.557 10.680,13.542 10.174,13.523 10.126 C 13.482 10.021,13.260 9.791,13.141 9.730 C 13.016 9.667,12.769 9.632,12.622 9.657 " fill="#1A1C1F" stroke="none" fill-rule="evenodd"></path></svg>