<svg width="14" height="14" viewBox="0 0 14 14" fill="none" xmlns="http://www.w3.org/2000/svg"><path d="M5.364 2.154 C 5.246 2.198,5.148 2.272,5.055 2.387 C 4.904 2.574,4.912 2.498,4.905 3.751 L 4.898 4.900 4.216 4.902 C 3.842 4.903,3.320 4.912,3.057 4.921 C 2.523 4.939,2.468 4.954,2.297 5.125 C 2.146 5.275,2.082 5.525,2.134 5.763 C 2.179 5.973,2.395 6.207,2.586 6.254 C 2.659 6.272,3.194 6.284,4.214 6.293 C 5.708 6.305,5.734 6.305,5.840 6.258 C 5.986 6.193,6.168 6.018,6.241 5.873 L 6.300 5.754 6.300 4.200 L 6.300 2.646 6.217 2.507 C 6.106 2.322,6.057 2.273,5.913 2.203 C 5.763 2.130,5.493 2.106,5.364 2.154 M8.163 2.158 C 8.025 2.203,7.836 2.372,7.766 2.515 L 7.712 2.625 7.704 4.183 L 7.695 5.741 7.755 5.863 C 7.827 6.010,7.974 6.158,8.129 6.240 L 8.244 6.300 9.804 6.300 L 11.365 6.300 11.482 6.241 C 11.820 6.069,11.968 5.703,11.839 5.355 C 11.799 5.245,11.677 5.102,11.556 5.022 L 11.426 4.935 10.945 4.920 C 10.681 4.911,10.159 4.903,9.785 4.902 L 9.104 4.900 9.096 3.774 L 9.088 2.648 9.031 2.536 C 8.964 2.406,8.820 2.265,8.680 2.193 C 8.552 2.128,8.309 2.112,8.163 2.158 M2.625 7.745 C 2.507 7.764,2.327 7.886,2.240 8.007 C 2.033 8.293,2.068 8.627,2.332 8.891 C 2.538 9.096,2.474 9.087,3.760 9.096 L 4.896 9.104 4.904 10.240 C 4.913 11.526,4.904 11.462,5.109 11.668 C 5.262 11.820,5.413 11.888,5.600 11.888 C 5.714 11.888,5.781 11.874,5.868 11.831 C 6.014 11.759,6.181 11.594,6.248 11.455 L 6.300 11.349 6.300 9.797 L 6.300 8.246 6.218 8.107 C 6.125 7.949,6.010 7.839,5.869 7.770 C 5.774 7.725,5.732 7.723,4.245 7.726 C 3.405 7.728,2.676 7.736,2.625 7.745 M8.198 7.745 C 8.088 7.772,7.966 7.856,7.876 7.966 C 7.706 8.173,7.715 8.077,7.705 9.795 L 7.695 11.341 7.760 11.470 C 7.891 11.728,8.135 11.887,8.400 11.887 C 8.593 11.887,8.734 11.825,8.884 11.674 C 9.097 11.461,9.087 11.530,9.096 10.238 L 9.104 9.100 10.225 9.100 C 11.341 9.100,11.347 9.100,11.454 9.048 C 11.611 8.971,11.794 8.777,11.838 8.640 C 11.905 8.433,11.908 8.364,11.856 8.194 C 11.801 8.012,11.691 7.879,11.522 7.788 L 11.422 7.735 9.847 7.731 C 8.980 7.729,8.239 7.735,8.198 7.745 " fill="#1A1C1F" stroke="none" fill-rule="evenodd"></path></svg>