<svg width="24" height="24" viewBox="0 0 24 24" fill="none" xmlns="http://www.w3.org/2000/svg"><path d="M8.537 3.157 C 8.333 3.274,8.187 3.432,8.066 3.668 C 8.007 3.782,8.000 4.024,8.000 5.898 L 8.000 8.000 6.830 8.004 C 6.186 8.006,5.219 8.020,4.680 8.034 C 3.710 8.060,3.698 8.061,3.517 8.167 C 3.235 8.333,2.999 8.738,3.000 9.055 C 3.001 9.373,3.389 9.866,3.716 9.963 C 3.936 10.029,9.219 9.994,9.380 9.926 C 9.541 9.858,9.829 9.575,9.923 9.392 C 9.996 9.251,10.000 9.134,10.000 7.092 C 10.000 5.908,9.988 4.654,9.973 4.305 C 9.948 3.681,9.945 3.666,9.824 3.485 C 9.748 3.373,9.615 3.250,9.482 3.170 C 9.295 3.059,9.226 3.040,9.002 3.040 C 8.786 3.041,8.704 3.061,8.537 3.157 M14.580 3.106 C 14.408 3.197,14.246 3.354,14.115 3.558 L 14.000 3.736 14.000 6.489 C 14.000 9.125,14.003 9.250,14.077 9.392 C 14.171 9.575,14.459 9.858,14.620 9.926 C 14.781 9.994,20.064 10.029,20.284 9.963 C 20.611 9.866,20.999 9.373,21.000 9.055 C 21.001 8.738,20.765 8.333,20.483 8.167 C 20.301 8.061,20.295 8.060,19.260 8.034 C 18.688 8.019,17.721 8.006,17.110 8.004 L 16.000 8.000 16.000 5.898 C 16.000 3.913,15.996 3.789,15.924 3.648 C 15.818 3.442,15.577 3.204,15.383 3.116 C 15.177 3.022,14.750 3.017,14.580 3.106 M4.480 14.037 C 3.637 14.066,3.515 14.093,3.310 14.300 C 3.094 14.518,3.020 14.682,3.022 14.940 C 3.024 15.233,3.131 15.488,3.341 15.698 C 3.632 15.989,3.540 15.979,5.890 15.993 L 8.000 16.005 8.000 18.104 C 8.000 20.127,8.003 20.209,8.080 20.361 C 8.298 20.786,8.799 21.062,9.216 20.983 C 9.407 20.947,9.732 20.682,9.868 20.451 L 9.980 20.260 9.994 17.516 C 10.010 14.387,10.036 14.635,9.650 14.273 C 9.467 14.102,9.432 14.086,9.196 14.065 C 8.788 14.029,5.336 14.009,4.480 14.037 M14.646 14.080 C 14.485 14.118,14.185 14.399,14.073 14.616 C 13.994 14.769,13.992 14.828,14.006 17.516 L 14.020 20.260 14.132 20.451 C 14.268 20.682,14.593 20.947,14.784 20.983 C 15.201 21.062,15.702 20.786,15.920 20.361 C 15.997 20.209,16.000 20.127,16.000 18.104 L 16.000 16.005 18.110 15.993 C 20.476 15.978,20.374 15.991,20.675 15.680 C 20.848 15.502,21.000 15.159,21.000 14.948 C 20.999 14.647,20.691 14.228,20.374 14.095 C 20.267 14.050,19.745 14.041,17.511 14.044 C 16.009 14.046,14.720 14.062,14.646 14.080 " fill="#1A1C1F" stroke="none" fill-rule="evenodd"></path></svg>