<svg width="20" height="20" viewBox="0 0 20 20" fill="none" xmlns="http://www.w3.org/2000/svg"><path d="M4.167 3.033 C 3.805 3.050,3.655 3.070,3.571 3.114 C 3.407 3.200,3.183 3.437,3.085 3.629 L 3.000 3.798 3.001 5.507 C 3.002 7.439,2.990 7.346,3.271 7.651 C 3.477 7.874,3.696 7.976,3.968 7.976 C 4.389 7.977,4.718 7.784,4.904 7.429 C 4.979 7.287,4.981 7.254,4.994 6.145 L 5.007 5.007 6.145 4.994 C 7.248 4.981,7.288 4.978,7.426 4.906 C 7.602 4.813,7.806 4.608,7.886 4.441 C 7.963 4.282,7.986 3.940,7.936 3.714 C 7.889 3.507,7.706 3.279,7.478 3.145 C 7.346 3.068,7.279 3.055,6.857 3.031 C 6.310 2.999,4.871 3.001,4.167 3.033 M12.642 3.088 C 12.455 3.155,12.201 3.388,12.105 3.581 C 12.006 3.778,11.994 4.180,12.080 4.383 C 12.150 4.548,12.405 4.815,12.583 4.910 C 12.710 4.977,12.772 4.981,13.838 4.994 L 14.959 5.007 14.976 6.112 C 14.987 6.829,15.006 7.262,15.032 7.346 C 15.086 7.522,15.336 7.780,15.555 7.887 C 15.701 7.959,15.784 7.976,15.995 7.977 C 16.316 7.979,16.493 7.903,16.715 7.665 C 17.012 7.348,16.998 7.448,16.999 5.507 C 17.000 3.827,16.999 3.795,16.929 3.657 C 16.818 3.438,16.682 3.283,16.492 3.162 L 16.318 3.050 14.551 3.043 C 13.041 3.038,12.763 3.044,12.642 3.088 M3.744 12.046 C 3.463 12.138,3.251 12.319,3.083 12.611 L 2.991 12.772 3.007 14.511 C 3.026 16.489,3.012 16.387,3.311 16.679 C 3.630 16.991,3.509 16.973,5.465 16.993 C 7.147 17.009,7.189 17.008,7.340 16.941 C 7.535 16.855,7.785 16.627,7.873 16.455 C 7.961 16.282,8.001 15.984,7.963 15.780 C 7.923 15.565,7.745 15.312,7.532 15.168 L 7.362 15.053 6.840 15.029 C 6.552 15.016,6.030 15.004,5.679 15.003 L 5.041 15.000 5.024 13.892 C 5.013 13.168,4.994 12.738,4.967 12.653 C 4.909 12.463,4.626 12.193,4.393 12.107 C 4.141 12.012,3.915 11.991,3.744 12.046 M15.711 12.080 C 15.427 12.172,15.174 12.390,15.035 12.664 C 14.970 12.790,14.967 12.855,14.967 13.893 L 14.967 14.989 13.832 15.011 C 12.558 15.036,12.577 15.033,12.283 15.304 C 12.078 15.493,11.989 15.696,11.986 15.983 C 11.984 16.175,12.000 16.251,12.077 16.407 C 12.185 16.628,12.448 16.881,12.628 16.936 C 12.709 16.962,13.316 16.980,14.459 16.991 L 16.167 17.008 16.346 16.920 C 16.561 16.815,16.812 16.556,16.907 16.341 C 16.975 16.188,16.976 16.153,16.959 14.467 C 16.944 13.041,16.933 12.730,16.891 12.630 C 16.732 12.248,16.099 11.954,15.711 12.080 " fill="#1A1C1F" stroke="none" fill-rule="evenodd"></path></svg>