<svg width="32" height="32" viewBox="0 0 32 32" fill="none" xmlns="http://www.w3.org/2000/svg"><path d="M10.519 3.150 C 10.366 3.227,10.242 3.348,10.145 3.513 L 10.000 3.760 9.982 6.885 L 9.965 10.009 6.762 10.046 C 3.644 10.082,3.556 10.085,3.405 10.192 C 3.066 10.434,2.916 11.072,3.110 11.447 C 3.216 11.652,3.533 11.935,3.707 11.978 C 3.779 11.996,5.513 12.002,7.559 11.991 C 11.042 11.971,11.293 11.964,11.481 11.872 C 11.768 11.731,11.897 11.522,11.950 11.104 C 11.976 10.907,11.997 9.164,11.998 7.230 L 12.000 3.712 11.859 3.509 C 11.663 3.227,11.415 3.088,11.052 3.058 C 10.810 3.038,10.700 3.057,10.519 3.150 M20.587 3.097 C 20.410 3.171,20.224 3.349,20.115 3.547 C 20.036 3.690,20.025 4.073,20.010 7.245 C 20.000 9.425,20.014 10.914,20.046 11.125 C 20.109 11.527,20.242 11.736,20.519 11.872 C 20.707 11.964,20.958 11.971,24.441 11.991 C 26.487 12.002,28.223 11.996,28.297 11.977 C 28.536 11.917,28.888 11.544,28.954 11.280 C 29.064 10.847,28.915 10.469,28.523 10.186 L 28.304 10.027 25.170 10.027 L 22.036 10.027 22.018 6.919 L 22.000 3.810 21.864 3.547 C 21.788 3.399,21.656 3.241,21.564 3.187 C 21.366 3.072,20.774 3.017,20.587 3.097 M4.662 20.048 C 3.601 20.080,3.590 20.081,3.401 20.225 C 3.185 20.390,2.987 20.757,2.987 20.993 C 2.987 21.081,3.049 21.278,3.126 21.432 C 3.235 21.650,3.325 21.746,3.539 21.868 L 3.813 22.026 6.892 22.026 L 9.971 22.027 9.985 25.142 L 10.000 28.258 10.162 28.488 C 10.553 29.045,11.158 29.159,11.626 28.766 C 11.993 28.457,11.974 28.698,11.972 24.533 C 11.970 20.318,11.983 20.466,11.600 20.207 L 11.387 20.062 8.560 20.040 C 7.005 20.027,5.251 20.031,4.662 20.048 M21.227 20.045 C 20.531 20.085,20.319 20.169,20.135 20.482 C 20.029 20.662,20.026 20.759,20.008 24.241 C 19.989 27.944,20.006 28.316,20.205 28.587 C 20.654 29.197,21.551 29.091,21.901 28.386 C 21.993 28.200,22.001 27.982,22.018 25.108 L 22.036 22.029 25.147 22.015 L 28.258 22.000 28.488 21.838 C 29.096 21.410,29.169 20.827,28.679 20.297 L 28.453 20.053 25.147 20.032 C 23.328 20.020,21.564 20.026,21.227 20.045 " fill="#1A1C1F" stroke="none" fill-rule="evenodd"></path></svg>