<svg width="28" height="28" viewBox="0 0 28 28" fill="none" xmlns="http://www.w3.org/2000/svg"><path d="M4.286 2.657 L 3.135 2.683 2.956 2.828 C 2.634 3.087,2.644 2.975,2.624 6.595 L 2.605 9.853 2.726 10.036 C 2.997 10.444,3.485 10.599,3.873 10.398 C 3.988 10.339,4.151 10.199,4.234 10.088 L 4.387 9.886 4.387 7.136 L 4.387 4.387 7.111 4.387 L 9.836 4.387 10.063 4.235 C 10.459 3.970,10.588 3.469,10.368 3.046 C 10.189 2.700,10.183 2.699,8.285 2.656 C 6.502 2.616,6.110 2.616,4.286 2.657 M18.154 2.707 C 17.688 2.777,17.420 3.216,17.549 3.697 C 17.619 3.956,17.698 4.065,17.940 4.239 L 18.145 4.387 20.879 4.387 L 23.613 4.387 23.613 7.152 L 23.613 9.918 23.821 10.156 C 24.165 10.549,24.624 10.602,25.027 10.295 C 25.383 10.024,25.362 10.251,25.377 6.568 L 25.391 3.266 25.243 3.052 C 24.977 2.664,25.170 2.684,21.583 2.676 C 19.838 2.672,18.295 2.686,18.154 2.707 M3.038 17.648 C 2.777 17.826,2.703 17.966,2.654 18.368 C 2.629 18.577,2.616 20.039,2.623 21.750 L 2.637 24.764 2.762 24.953 C 2.831 25.057,2.967 25.192,3.065 25.253 L 3.243 25.363 6.417 25.362 C 8.710 25.361,9.668 25.345,9.870 25.304 C 10.190 25.240,10.305 25.137,10.432 24.805 C 10.605 24.351,10.329 23.789,9.892 23.704 C 9.777 23.682,8.492 23.649,7.037 23.631 L 4.390 23.598 4.377 20.839 C 4.362 17.762,4.385 17.973,4.030 17.702 C 3.887 17.593,3.804 17.568,3.528 17.555 C 3.242 17.541,3.175 17.554,3.038 17.648 M24.051 17.633 C 23.827 17.774,23.704 17.984,23.657 18.306 C 23.634 18.466,23.615 19.722,23.614 21.097 L 23.613 23.598 20.965 23.631 C 19.508 23.649,18.223 23.682,18.108 23.704 C 17.823 23.759,17.622 23.983,17.544 24.329 C 17.493 24.557,17.496 24.616,17.568 24.805 C 17.695 25.137,17.810 25.240,18.130 25.304 C 18.332 25.345,19.290 25.361,21.583 25.362 L 24.757 25.363 24.935 25.253 C 25.033 25.192,25.169 25.057,25.238 24.953 L 25.363 24.763 25.363 21.421 C 25.363 17.689,25.389 17.976,25.030 17.702 C 24.886 17.592,24.805 17.569,24.528 17.556 C 24.263 17.545,24.168 17.560,24.051 17.633 " fill="#1A1C1F" stroke="none" fill-rule="evenodd"></path></svg>