<svg width="28" height="28" viewBox="0 0 28 28" fill="none" xmlns="http://www.w3.org/2000/svg"><path d="M9.204 2.756 C 9.070 2.824,8.962 2.929,8.877 3.074 L 8.750 3.290 8.735 6.024 L 8.719 8.758 5.917 8.790 C 3.188 8.821,3.111 8.825,2.980 8.918 C 2.683 9.130,2.551 9.688,2.721 10.016 C 2.814 10.196,3.092 10.443,3.244 10.481 C 3.307 10.497,4.824 10.502,6.614 10.492 C 9.662 10.475,9.881 10.468,10.046 10.388 C 10.297 10.265,10.410 10.081,10.457 9.716 C 10.479 9.544,10.498 8.018,10.498 6.326 L 10.500 3.248 10.377 3.071 C 10.205 2.823,9.988 2.702,9.670 2.676 C 9.458 2.659,9.362 2.675,9.204 2.756 M18.013 2.709 C 17.859 2.775,17.696 2.931,17.601 3.103 C 17.531 3.229,17.522 3.563,17.509 6.339 C 17.500 8.247,17.512 9.550,17.541 9.734 C 17.595 10.086,17.711 10.269,17.954 10.388 C 18.119 10.469,18.336 10.475,21.443 10.490 L 24.757 10.507 24.970 10.370 C 25.234 10.200,25.359 9.960,25.355 9.629 C 25.352 9.333,25.243 9.132,24.972 8.926 L 24.773 8.773 22.027 8.773 L 19.282 8.773 19.266 6.054 L 19.250 3.334 19.131 3.103 C 19.065 2.974,18.949 2.836,18.868 2.788 C 18.696 2.688,18.178 2.640,18.013 2.709 M4.033 17.541 C 3.156 17.570,3.140 17.572,2.976 17.697 C 2.787 17.842,2.613 18.163,2.613 18.369 C 2.613 18.446,2.668 18.618,2.735 18.753 C 2.830 18.944,2.910 19.028,3.097 19.135 L 3.337 19.272 6.031 19.273 L 8.724 19.273 8.737 21.999 L 8.750 24.725 8.892 24.927 C 9.234 25.414,9.763 25.514,10.173 25.170 C 10.494 24.900,10.477 25.111,10.476 21.467 C 10.474 17.778,10.486 17.909,10.150 17.680 L 9.963 17.553 7.443 17.533 C 6.057 17.522,4.523 17.526,4.033 17.541 M18.573 17.539 C 17.964 17.574,17.779 17.648,17.618 17.922 C 17.525 18.080,17.523 18.148,17.523 21.420 C 17.523 25.112,17.506 24.900,17.824 25.167 C 18.279 25.550,18.917 25.380,19.185 24.803 C 19.266 24.628,19.271 24.449,19.272 21.950 L 19.273 19.283 21.945 19.262 C 25.005 19.237,24.944 19.244,25.182 18.890 C 25.458 18.481,25.430 18.124,25.094 17.760 L 24.897 17.545 22.003 17.527 C 20.412 17.517,18.869 17.523,18.573 17.539 " fill="#1A1C1F" stroke="none" fill-rule="evenodd"></path></svg>