<svg width="14" height="14" viewBox="0 0 14 14" fill="none" xmlns="http://www.w3.org/2000/svg"><path d="M2.683 2.136 C 2.664 2.140,2.609 2.150,2.562 2.158 C 2.464 2.174,2.239 2.363,2.178 2.481 C 2.115 2.603,2.094 3.198,2.107 4.530 C 2.120 5.952,2.107 5.860,2.324 6.082 C 2.533 6.296,2.436 6.284,4.003 6.295 C 5.406 6.305,5.787 6.290,5.923 6.220 C 6.007 6.177,6.160 6.010,6.239 5.875 L 6.302 5.768 6.295 4.185 C 6.289 2.700,6.286 2.597,6.246 2.523 C 6.182 2.407,6.030 2.250,5.915 2.183 L 5.813 2.123 4.266 2.126 C 3.415 2.128,2.703 2.132,2.683 2.136 M8.283 2.136 C 8.264 2.140,8.209 2.150,8.162 2.158 C 8.064 2.174,7.839 2.363,7.778 2.481 C 7.715 2.603,7.694 3.198,7.707 4.530 C 7.720 5.952,7.707 5.860,7.924 6.082 C 8.133 6.296,8.036 6.284,9.603 6.295 C 11.006 6.305,11.387 6.290,11.523 6.220 C 11.607 6.177,11.760 6.010,11.839 5.875 L 11.902 5.768 11.895 4.185 C 11.889 2.700,11.886 2.597,11.846 2.523 C 11.782 2.407,11.630 2.250,11.515 2.183 L 11.413 2.123 9.866 2.126 C 9.015 2.128,8.303 2.132,8.283 2.136 M2.590 7.745 C 2.474 7.781,2.387 7.838,2.290 7.945 C 2.103 8.147,2.114 8.036,2.104 9.791 C 2.096 11.357,2.096 11.358,2.146 11.456 C 2.217 11.594,2.370 11.753,2.508 11.832 L 2.625 11.900 4.200 11.900 L 5.775 11.900 5.892 11.832 C 6.039 11.748,6.196 11.579,6.258 11.440 C 6.304 11.336,6.305 11.299,6.295 9.779 C 6.284 8.039,6.295 8.145,6.110 7.944 C 6.055 7.885,5.968 7.813,5.916 7.786 C 5.822 7.735,5.813 7.735,4.235 7.731 C 3.362 7.728,2.622 7.735,2.590 7.745 M8.190 7.745 C 8.074 7.781,7.987 7.838,7.890 7.945 C 7.703 8.147,7.714 8.036,7.704 9.791 C 7.696 11.357,7.696 11.358,7.746 11.456 C 7.817 11.594,7.970 11.753,8.108 11.832 L 8.225 11.900 9.800 11.900 L 11.375 11.900 11.492 11.832 C 11.630 11.753,11.783 11.594,11.854 11.456 L 11.904 11.357 11.895 9.791 C 11.886 8.036,11.897 8.147,11.710 7.944 C 11.655 7.885,11.568 7.813,11.516 7.786 C 11.422 7.735,11.413 7.735,9.835 7.731 C 8.962 7.728,8.222 7.735,8.190 7.745 " fill="#1A1C1F" stroke="none" fill-rule="evenodd"></path></svg>