<svg width="28" height="28" viewBox="0 0 28 28" fill="none" xmlns="http://www.w3.org/2000/svg"><path d="M4.758 2.706 C 4.431 2.732,4.304 2.767,4.058 2.897 C 3.612 3.133,3.091 3.668,2.873 4.113 C 2.703 4.458,2.696 4.492,2.651 5.210 C 2.624 5.624,2.614 6.884,2.626 8.073 L 2.648 10.197 2.769 10.513 C 2.927 10.926,3.167 11.282,3.479 11.567 C 3.777 11.840,4.011 11.976,4.471 12.147 L 4.812 12.273 7.439 12.273 C 9.924 12.273,10.080 12.268,10.331 12.182 C 11.098 11.918,11.661 11.438,11.995 10.763 C 12.195 10.361,12.197 10.352,12.232 9.694 C 12.251 9.329,12.269 8.080,12.270 6.919 L 12.273 4.808 12.115 4.386 C 11.844 3.666,11.457 3.257,10.678 2.866 L 10.269 2.660 7.713 2.667 C 6.307 2.671,4.977 2.688,4.758 2.706 M17.987 2.699 C 17.624 2.726,17.512 2.756,17.194 2.913 C 16.763 3.125,16.247 3.610,16.042 3.993 C 15.786 4.476,15.771 4.615,15.743 6.813 C 15.729 7.930,15.737 9.185,15.762 9.602 L 15.806 10.362 16.007 10.769 C 16.283 11.327,16.674 11.718,17.234 11.995 L 17.646 12.198 18.354 12.232 C 18.744 12.251,19.993 12.268,21.130 12.270 L 23.196 12.273 23.563 12.132 C 24.299 11.848,24.820 11.392,25.134 10.759 C 25.294 10.434,25.306 10.380,25.343 9.769 C 25.391 8.976,25.393 6.104,25.345 5.171 C 25.311 4.502,25.306 4.478,25.131 4.121 C 24.905 3.662,24.439 3.187,23.938 2.905 L 23.587 2.708 20.998 2.688 C 19.575 2.678,18.220 2.683,17.987 2.699 M10.092 4.505 C 10.188 4.570,10.312 4.712,10.369 4.820 C 10.470 5.014,10.472 5.055,10.491 7.450 L 10.511 9.884 10.366 10.094 C 10.286 10.210,10.150 10.349,10.063 10.402 C 9.909 10.498,9.860 10.500,7.601 10.497 C 6.334 10.496,5.196 10.478,5.072 10.458 C 4.830 10.418,4.658 10.312,4.507 10.110 C 4.415 9.986,4.411 9.910,4.394 8.042 C 4.384 6.976,4.391 5.819,4.410 5.472 L 4.444 4.841 4.645 4.639 C 4.893 4.392,4.693 4.408,7.678 4.396 L 9.918 4.387 10.092 4.505 M23.220 4.502 C 23.498 4.618,23.532 4.726,23.578 5.639 C 23.600 6.092,23.612 7.240,23.604 8.190 C 23.591 9.818,23.585 9.926,23.497 10.075 C 23.367 10.296,23.190 10.414,22.928 10.458 C 22.804 10.478,21.666 10.496,20.399 10.497 C 18.140 10.500,18.091 10.498,17.937 10.402 C 17.850 10.349,17.714 10.210,17.634 10.095 L 17.490 9.885 17.511 7.451 C 17.526 5.692,17.547 4.978,17.588 4.879 C 17.619 4.803,17.733 4.659,17.841 4.558 L 18.037 4.375 20.552 4.406 C 22.516 4.431,23.101 4.452,23.220 4.502 M5.244 15.815 C 4.446 15.847,4.444 15.847,4.101 16.017 C 3.479 16.326,3.004 16.846,2.766 17.482 L 2.646 17.803 2.624 20.493 C 2.600 23.468,2.589 23.327,2.906 23.963 C 3.092 24.336,3.664 24.908,4.037 25.094 C 4.674 25.412,4.532 25.400,7.508 25.376 L 10.197 25.354 10.518 25.234 C 11.313 24.937,11.878 24.327,12.185 23.435 C 12.268 23.196,12.273 23.007,12.273 20.557 C 12.273 18.076,12.268 17.920,12.182 17.669 C 11.879 16.788,11.271 16.152,10.500 15.909 C 10.217 15.819,10.060 15.812,8.120 15.798 C 6.978 15.789,5.684 15.797,5.244 15.815 M17.552 15.893 C 17.176 15.995,16.859 16.184,16.540 16.497 C 16.189 16.841,16.032 17.086,15.860 17.558 L 15.727 17.923 15.727 20.551 C 15.727 22.992,15.733 23.197,15.814 23.431 C 15.982 23.922,16.200 24.283,16.515 24.595 C 16.836 24.915,17.082 25.073,17.535 25.253 L 17.803 25.360 20.557 25.360 L 23.310 25.360 23.623 25.237 C 24.406 24.926,24.926 24.405,25.238 23.619 L 25.360 23.310 25.360 20.557 L 25.360 17.803 25.237 17.491 C 24.974 16.828,24.507 16.307,23.906 16.003 L 23.590 15.843 20.697 15.834 C 18.279 15.826,17.762 15.836,17.552 15.893 M10.173 17.682 C 10.263 17.754,10.362 17.884,10.392 17.971 C 10.433 18.086,10.449 18.821,10.451 20.641 L 10.453 23.152 10.246 23.371 L 10.039 23.590 7.458 23.589 C 5.500 23.588,4.852 23.573,4.774 23.530 C 4.717 23.498,4.618 23.404,4.555 23.321 L 4.439 23.169 4.406 20.621 L 4.372 18.073 4.499 17.906 C 4.729 17.605,4.814 17.573,5.483 17.540 C 5.817 17.524,6.972 17.519,8.050 17.531 L 10.010 17.552 10.173 17.682 M23.159 17.613 C 23.255 17.660,23.400 17.781,23.481 17.883 L 23.628 18.068 23.594 20.616 C 23.561 23.065,23.556 23.170,23.466 23.296 C 23.254 23.595,23.336 23.587,20.519 23.589 L 17.961 23.590 17.761 23.379 L 17.562 23.169 17.531 22.450 C 17.514 22.055,17.500 20.915,17.500 19.917 L 17.500 18.102 17.617 17.929 C 17.681 17.834,17.812 17.697,17.909 17.624 L 18.083 17.491 20.533 17.510 C 22.785 17.526,22.998 17.535,23.159 17.613 " fill="#1A1C1F" stroke="none" fill-rule="evenodd"></path></svg>