<svg width="32" height="32" viewBox="0 0 32 32" fill="none" xmlns="http://www.w3.org/2000/svg"><path d="M5.409 3.093 C 4.837 3.143,4.432 3.356,3.888 3.893 C 3.587 4.191,3.431 4.398,3.283 4.700 C 3.089 5.095,3.082 5.134,3.030 5.954 C 3.000 6.425,2.987 7.876,3.001 9.227 L 3.025 11.653 3.164 12.015 C 3.346 12.487,3.620 12.894,3.976 13.220 C 4.317 13.531,4.584 13.687,5.110 13.882 L 5.499 14.027 8.501 14.027 C 11.341 14.027,11.520 14.021,11.806 13.922 C 12.683 13.621,13.327 13.072,13.709 12.301 C 13.937 11.841,13.939 11.831,13.979 11.079 C 14.002 10.661,14.021 9.234,14.023 7.907 L 14.027 5.494 13.845 5.012 C 13.536 4.190,13.094 3.722,12.203 3.275 L 11.735 3.040 8.788 3.048 C 7.166 3.052,5.646 3.072,5.409 3.093 M20.533 3.086 C 20.088 3.118,19.981 3.147,19.648 3.324 C 18.913 3.714,18.347 4.362,18.132 5.057 C 18.031 5.383,18.020 5.593,17.993 7.759 C 17.976 9.050,17.985 10.497,18.013 10.974 L 18.063 11.842 18.294 12.308 C 18.609 12.945,19.056 13.392,19.696 13.708 L 20.164 13.940 20.949 13.979 C 21.380 14.001,22.796 14.021,24.095 14.023 C 26.353 14.027,26.471 14.022,26.788 13.915 C 27.660 13.623,28.357 13.044,28.717 12.311 C 28.909 11.922,28.920 11.868,28.963 11.165 C 29.019 10.254,29.021 6.906,28.967 5.893 C 28.928 5.174,28.919 5.130,28.722 4.720 C 28.460 4.174,27.935 3.635,27.355 3.317 L 26.950 3.095 23.995 3.072 C 22.370 3.059,20.812 3.066,20.533 3.086 M11.534 5.148 C 11.644 5.223,11.786 5.385,11.850 5.508 C 11.965 5.730,11.968 5.777,11.990 8.515 L 12.012 11.296 11.847 11.537 C 11.756 11.669,11.600 11.827,11.501 11.889 C 11.324 11.998,11.268 12.000,8.687 11.997 C 7.239 11.995,5.938 11.975,5.797 11.951 C 5.520 11.906,5.323 11.785,5.151 11.554 C 5.045 11.413,5.041 11.325,5.021 9.191 C 5.010 7.972,5.018 6.650,5.040 6.254 L 5.078 5.532 5.308 5.302 C 5.592 5.019,5.363 5.037,8.774 5.024 L 11.335 5.013 11.534 5.148 M26.534 5.144 C 26.855 5.278,26.893 5.399,26.946 6.445 C 26.972 6.963,26.986 8.275,26.977 9.360 C 26.961 11.221,26.954 11.344,26.853 11.514 C 26.705 11.767,26.503 11.902,26.203 11.951 C 26.062 11.975,24.761 11.995,23.313 11.997 C 20.732 12.000,20.676 11.998,20.499 11.889 C 20.400 11.827,20.244 11.669,20.153 11.537 L 19.988 11.296 20.010 8.515 C 20.035 5.411,20.019 5.544,20.417 5.182 L 20.613 5.004 23.485 5.037 C 25.759 5.063,26.394 5.085,26.534 5.144 M5.973 18.078 C 5.381 18.106,5.017 18.148,4.860 18.206 C 4.335 18.402,3.580 19.089,3.312 19.617 C 3.040 20.151,3.031 20.243,3.004 22.880 C 2.990 24.244,2.999 25.697,3.025 26.110 C 3.069 26.818,3.083 26.883,3.270 27.277 C 3.519 27.801,4.128 28.436,4.613 28.679 C 5.342 29.042,5.179 29.029,8.580 29.000 C 11.547 28.974,11.664 28.970,11.969 28.860 C 12.396 28.706,12.680 28.533,13.031 28.213 C 13.412 27.864,13.679 27.457,13.871 26.929 L 14.027 26.504 14.027 23.500 C 14.027 20.659,14.021 20.480,13.922 20.194 C 13.574 19.181,12.847 18.433,11.947 18.161 C 11.697 18.086,11.299 18.070,9.253 18.055 C 7.933 18.045,6.457 18.055,5.973 18.078 M20.067 18.162 C 19.210 18.395,18.472 19.113,18.134 20.043 L 17.973 20.486 17.973 23.488 C 17.973 26.277,17.980 26.510,18.073 26.779 C 18.266 27.339,18.514 27.752,18.874 28.109 C 19.241 28.474,19.521 28.654,20.040 28.861 L 20.347 28.984 23.493 28.984 L 26.640 28.984 26.997 28.842 C 27.893 28.486,28.486 27.892,28.843 26.993 L 28.984 26.640 28.985 23.520 L 28.985 20.400 28.841 20.003 C 28.574 19.269,28.045 18.670,27.339 18.303 L 26.960 18.107 23.653 18.096 C 20.929 18.087,20.297 18.099,20.067 18.162 M11.627 20.208 C 11.729 20.290,11.842 20.439,11.877 20.538 C 11.923 20.670,11.941 21.510,11.944 23.590 L 11.947 26.460 11.710 26.710 L 11.474 26.960 8.523 26.958 C 6.286 26.957,5.545 26.941,5.456 26.891 C 5.391 26.855,5.278 26.748,5.206 26.653 L 5.074 26.480 5.036 23.567 L 4.997 20.654 5.147 20.457 C 5.387 20.143,5.547 20.084,6.267 20.046 C 6.619 20.028,7.927 20.023,9.173 20.036 L 11.440 20.059 11.627 20.208 M26.493 20.151 C 26.618 20.216,26.783 20.365,26.861 20.482 L 27.002 20.695 26.963 23.588 L 26.924 26.480 26.793 26.653 C 26.721 26.748,26.609 26.855,26.544 26.891 C 26.455 26.941,25.714 26.957,23.477 26.958 L 20.526 26.960 20.299 26.719 L 20.071 26.478 20.036 25.546 C 20.016 25.033,20.000 23.730,20.000 22.651 L 20.000 20.688 20.134 20.491 C 20.207 20.382,20.357 20.225,20.467 20.142 L 20.667 19.990 23.467 20.011 C 26.232 20.032,26.269 20.034,26.493 20.151 " fill="#1A1C1F" stroke="none" fill-rule="evenodd"></path></svg>