<svg width="20" height="20" viewBox="0 0 20 20" fill="none" xmlns="http://www.w3.org/2000/svg"><path d="M3.726 3.067 C 3.639 3.082,3.526 3.125,3.474 3.162 C 3.299 3.286,3.105 3.526,3.060 3.672 C 3.026 3.785,3.017 4.296,3.018 6.033 C 3.019 8.119,3.023 8.257,3.081 8.376 C 3.161 8.541,3.415 8.822,3.544 8.889 C 3.716 8.978,4.613 9.008,6.505 8.989 C 7.949 8.974,8.281 8.962,8.378 8.921 C 8.543 8.852,8.790 8.616,8.903 8.417 L 8.999 8.250 9.000 6.007 C 9.000 3.456,9.023 3.664,8.706 3.326 C 8.428 3.028,8.637 3.051,6.117 3.044 C 4.888 3.041,3.812 3.051,3.726 3.067 M11.630 3.084 C 11.444 3.143,11.163 3.425,11.060 3.657 C 10.992 3.811,10.991 3.840,11.007 6.032 C 11.021 8.079,11.027 8.260,11.082 8.376 C 11.160 8.540,11.414 8.821,11.544 8.889 C 11.716 8.978,12.613 9.008,14.505 8.989 C 15.949 8.974,16.281 8.962,16.378 8.921 C 16.543 8.852,16.790 8.616,16.903 8.417 L 16.999 8.250 17.000 6.007 C 17.000 3.804,16.999 3.762,16.931 3.629 C 16.844 3.459,16.629 3.224,16.471 3.125 L 16.350 3.050 14.067 3.043 C 12.163 3.038,11.758 3.045,11.630 3.084 M7.000 6.000 L 7.000 7.000 6.000 7.000 L 5.000 7.000 5.000 6.000 L 5.000 5.000 6.000 5.000 L 7.000 5.000 7.000 6.000 M15.000 6.000 L 15.000 7.000 14.000 7.000 L 13.000 7.000 13.000 6.000 L 13.000 5.000 14.000 5.000 L 15.000 5.000 15.000 6.000 M3.700 11.064 C 3.536 11.114,3.411 11.197,3.271 11.349 C 3.004 11.639,3.020 11.480,3.006 13.988 C 2.994 16.224,2.994 16.225,3.066 16.366 C 3.167 16.563,3.385 16.790,3.583 16.903 L 3.750 16.999 5.993 17.000 L 8.236 17.000 8.402 16.916 C 8.616 16.807,8.808 16.609,8.920 16.380 L 9.008 16.200 8.994 13.975 C 8.980 11.824,8.977 11.745,8.912 11.600 C 8.835 11.430,8.605 11.205,8.405 11.102 C 8.272 11.034,8.232 11.033,6.026 11.036 C 4.793 11.038,3.746 11.051,3.700 11.064 M11.700 11.064 C 11.536 11.114,11.411 11.197,11.271 11.349 C 11.004 11.639,11.020 11.480,11.006 13.988 C 10.994 16.224,10.994 16.225,11.066 16.366 C 11.167 16.563,11.385 16.790,11.583 16.903 L 11.750 16.999 14.000 16.999 L 16.250 16.999 16.417 16.903 C 16.615 16.790,16.833 16.563,16.934 16.365 L 17.007 16.223 16.994 13.987 C 16.982 11.809,16.980 11.746,16.913 11.600 C 16.834 11.429,16.604 11.204,16.405 11.102 C 16.272 11.034,16.232 11.033,14.026 11.036 C 12.793 11.038,11.746 11.051,11.700 11.064 M7.000 14.000 L 7.000 15.000 6.000 15.000 L 5.000 15.000 5.000 14.000 L 5.000 13.000 6.000 13.000 L 7.000 13.000 7.000 14.000 M15.000 14.000 L 15.000 15.000 14.000 15.000 L 13.000 15.000 13.000 14.000 L 13.000 13.000 14.000 13.000 L 15.000 13.000 15.000 14.000 " fill="#1A1C1F" stroke="none" fill-rule="evenodd"></path></svg>