<svg width="24" height="24" viewBox="0 0 24 24" fill="none" xmlns="http://www.w3.org/2000/svg"><path d="M5.160 3.039 C 4.264 3.062,4.259 3.063,4.020 3.181 C 3.688 3.346,3.328 3.715,3.146 4.078 L 3.000 4.371 3.002 6.515 C 3.005 9.064,3.033 9.702,3.154 9.976 C 3.272 10.242,3.754 10.714,4.060 10.863 L 4.300 10.980 7.000 10.980 L 9.700 10.980 9.940 10.862 C 10.240 10.715,10.710 10.255,10.841 9.980 C 10.915 9.825,10.943 9.680,10.966 9.340 C 11.010 8.665,11.004 4.819,10.958 4.500 C 10.936 4.346,10.871 4.122,10.813 4.003 C 10.673 3.715,10.281 3.330,9.980 3.184 C 9.749 3.072,9.710 3.066,8.940 3.036 C 8.053 3.001,6.533 3.002,5.160 3.039 M15.160 3.039 C 14.264 3.062,14.259 3.063,14.020 3.181 C 13.688 3.346,13.328 3.715,13.146 4.078 L 13.000 4.371 13.002 6.515 C 13.005 9.064,13.033 9.702,13.154 9.976 C 13.272 10.242,13.754 10.714,14.060 10.863 L 14.300 10.980 16.980 10.991 L 19.660 11.002 19.920 10.872 C 20.262 10.701,20.697 10.267,20.871 9.924 L 21.000 9.669 20.999 7.224 C 20.999 5.880,20.982 4.666,20.962 4.528 C 20.881 3.970,20.487 3.432,19.979 3.184 C 19.749 3.072,19.711 3.066,18.940 3.036 C 18.053 3.001,16.533 3.002,15.160 3.039 M9.000 7.000 L 9.000 9.000 7.000 9.000 L 5.000 9.000 5.000 7.000 L 5.000 5.000 7.000 5.000 L 9.000 5.000 9.000 7.000 M19.000 7.000 L 19.000 9.000 17.000 9.000 L 15.000 9.000 15.000 7.000 L 15.000 5.000 17.000 5.000 L 19.000 5.000 19.000 7.000 M4.360 13.077 C 4.122 13.111,3.852 13.251,3.602 13.469 C 3.338 13.700,3.184 13.928,3.093 14.222 C 3.025 14.442,3.020 14.650,3.020 17.000 C 3.020 19.388,3.025 19.554,3.096 19.772 C 3.252 20.248,3.703 20.713,4.176 20.886 C 4.416 20.974,4.458 20.976,6.731 20.991 C 8.213 21.000,9.168 20.991,9.391 20.963 C 10.126 20.874,10.690 20.425,10.904 19.760 C 10.966 19.564,10.976 19.308,10.990 17.420 C 10.999 16.254,10.989 15.055,10.968 14.756 C 10.934 14.255,10.921 14.192,10.800 13.967 C 10.656 13.696,10.359 13.393,10.074 13.226 C 9.940 13.147,9.796 13.107,9.554 13.079 C 9.187 13.037,4.650 13.035,4.360 13.077 M14.360 13.075 C 14.120 13.112,13.850 13.252,13.602 13.469 C 13.338 13.700,13.184 13.928,13.093 14.222 C 13.025 14.442,13.020 14.650,13.020 17.000 C 13.020 19.388,13.025 19.554,13.096 19.772 C 13.252 20.248,13.703 20.713,14.176 20.886 C 14.416 20.974,14.458 20.976,16.731 20.991 C 18.213 21.000,19.168 20.991,19.391 20.963 C 20.126 20.874,20.690 20.425,20.904 19.760 C 20.966 19.564,20.976 19.308,20.990 17.420 C 21.009 14.903,20.980 14.317,20.824 14.009 C 20.687 13.738,20.481 13.510,20.201 13.322 C 19.799 13.051,19.955 13.065,17.120 13.056 C 15.701 13.051,14.459 13.060,14.360 13.075 M9.000 17.000 L 9.000 19.000 7.000 19.000 L 5.000 19.000 5.000 17.000 L 5.000 15.000 7.000 15.000 L 9.000 15.000 9.000 17.000 M19.000 17.000 L 19.000 19.000 17.000 19.000 L 15.000 19.000 15.000 17.000 L 15.000 15.000 17.000 15.000 L 19.000 15.000 19.000 17.000 " fill="#1A1C1F" stroke="none" fill-rule="evenodd"></path></svg>