<svg width="24" height="24" viewBox="0 0 24 24" fill="none" xmlns="http://www.w3.org/2000/svg"><path d="M4.980 5.039 C 4.647 5.070,4.538 5.112,4.342 5.284 C 4.120 5.478,4.026 5.692,4.025 6.002 C 4.024 6.221,4.043 6.300,4.144 6.478 C 4.392 6.916,4.722 7.027,5.660 6.988 C 6.279 6.962,6.550 6.891,6.699 6.714 C 6.844 6.541,6.953 6.317,6.984 6.127 C 7.039 5.782,6.774 5.289,6.446 5.124 C 6.280 5.041,5.469 4.994,4.980 5.039 M9.685 5.087 C 9.292 5.176,8.954 5.712,9.018 6.143 C 9.049 6.348,9.241 6.643,9.456 6.817 L 9.607 6.940 10.794 6.966 C 11.446 6.980,13.114 6.991,14.500 6.991 C 15.886 6.991,17.554 6.980,18.206 6.966 L 19.393 6.940 19.544 6.817 C 19.759 6.643,19.951 6.348,19.982 6.143 C 20.040 5.757,19.744 5.226,19.408 5.113 C 19.217 5.049,9.959 5.024,9.685 5.087 M4.645 11.093 C 4.183 11.267,3.928 11.767,4.062 12.235 C 4.158 12.571,4.302 12.756,4.560 12.875 C 4.758 12.966,4.842 12.978,5.396 12.993 C 6.125 13.013,6.360 12.972,6.611 12.781 C 6.943 12.527,7.064 11.972,6.877 11.561 C 6.774 11.334,6.700 11.252,6.500 11.147 C 6.356 11.071,6.264 11.062,5.560 11.052 C 5.004 11.045,4.741 11.056,4.645 11.093 M9.860 11.059 C 9.838 11.067,9.751 11.085,9.668 11.099 C 9.473 11.132,9.213 11.363,9.110 11.593 C 9.010 11.820,9.011 12.182,9.113 12.413 C 9.218 12.650,9.444 12.866,9.650 12.926 C 9.781 12.965,10.881 12.976,14.440 12.977 C 16.981 12.978,19.147 12.964,19.254 12.946 C 19.482 12.908,19.757 12.682,19.888 12.424 C 19.990 12.224,19.997 11.846,19.903 11.620 C 19.816 11.411,19.579 11.171,19.401 11.111 C 19.296 11.075,18.083 11.061,14.580 11.054 C 12.006 11.049,9.882 11.051,9.860 11.059 M5.000 17.039 C 4.619 17.067,4.489 17.122,4.272 17.347 C 4.091 17.535,4.034 17.678,4.034 17.946 C 4.034 18.263,4.117 18.477,4.319 18.686 C 4.588 18.964,4.798 19.013,5.616 18.993 C 6.188 18.979,6.281 18.967,6.450 18.885 C 6.673 18.777,6.850 18.577,6.914 18.363 C 6.976 18.156,6.972 17.746,6.906 17.589 C 6.835 17.420,6.529 17.142,6.357 17.089 C 6.179 17.035,5.434 17.007,5.000 17.039 M9.738 17.076 C 9.334 17.144,9.032 17.540,9.032 18.003 C 9.032 18.419,9.304 18.825,9.650 18.927 C 9.897 18.999,19.103 18.999,19.350 18.927 C 19.697 18.825,19.963 18.427,19.965 18.006 C 19.967 17.729,19.883 17.509,19.708 17.327 C 19.431 17.038,19.861 17.061,14.620 17.054 C 12.024 17.051,9.827 17.061,9.738 17.076 " fill="#1A1C1F" stroke="none" fill-rule="evenodd"></path></svg>