<svg width="16" height="16" viewBox="0 0 16 16" fill="none" xmlns="http://www.w3.org/2000/svg"><path d="M7.907 3.226 C 6.850 3.243,6.827 3.247,6.634 3.461 C 6.467 3.647,6.414 3.774,6.417 3.987 C 6.419 4.223,6.488 4.384,6.659 4.555 C 6.915 4.809,6.600 4.787,9.933 4.787 C 13.242 4.786,13.096 4.795,13.306 4.598 C 13.496 4.420,13.584 4.239,13.584 4.027 C 13.583 3.766,13.517 3.604,13.347 3.443 C 13.268 3.368,13.169 3.293,13.128 3.276 C 12.972 3.213,10.277 3.187,7.907 3.226 M2.957 3.262 C 2.621 3.386,2.419 3.652,2.415 3.973 C 2.412 4.219,2.475 4.362,2.667 4.545 C 2.915 4.781,2.935 4.786,3.587 4.785 C 4.273 4.783,4.334 4.769,4.529 4.569 C 4.713 4.380,4.778 4.233,4.780 4.003 C 4.781 3.705,4.644 3.472,4.373 3.311 C 4.254 3.240,4.250 3.240,3.653 3.233 C 3.205 3.228,3.029 3.236,2.957 3.262 M2.952 7.264 C 2.694 7.359,2.511 7.552,2.436 7.809 C 2.336 8.154,2.520 8.530,2.885 8.726 C 2.995 8.784,3.025 8.787,3.573 8.785 C 4.283 8.783,4.333 8.771,4.538 8.558 C 4.730 8.358,4.811 8.162,4.792 7.945 C 4.770 7.692,4.611 7.450,4.376 7.312 C 4.254 7.240,4.252 7.240,3.653 7.233 C 3.191 7.228,3.030 7.235,2.952 7.264 M7.011 7.254 C 6.840 7.283,6.743 7.338,6.617 7.482 C 6.469 7.651,6.391 7.864,6.409 8.050 C 6.429 8.245,6.538 8.456,6.688 8.588 C 6.935 8.806,6.618 8.786,9.979 8.794 L 12.985 8.802 13.096 8.745 C 13.265 8.659,13.454 8.468,13.523 8.312 C 13.598 8.145,13.606 7.855,13.540 7.703 C 13.481 7.565,13.319 7.395,13.161 7.304 L 13.027 7.227 10.080 7.230 C 8.459 7.232,7.078 7.242,7.011 7.254 M7.907 11.226 C 6.850 11.243,6.827 11.247,6.634 11.461 C 6.467 11.647,6.414 11.774,6.417 11.987 C 6.419 12.223,6.488 12.384,6.659 12.555 C 6.915 12.809,6.600 12.787,9.933 12.787 C 13.242 12.786,13.096 12.795,13.306 12.598 C 13.496 12.420,13.584 12.239,13.584 12.027 C 13.583 11.766,13.517 11.604,13.347 11.443 C 13.268 11.368,13.169 11.293,13.128 11.276 C 12.972 11.213,10.277 11.187,7.907 11.226 M2.957 11.262 C 2.621 11.386,2.419 11.652,2.415 11.973 C 2.412 12.219,2.475 12.362,2.667 12.545 C 2.915 12.781,2.935 12.786,3.587 12.785 C 4.273 12.783,4.334 12.769,4.529 12.569 C 4.713 12.380,4.778 12.233,4.780 12.003 C 4.781 11.705,4.644 11.472,4.373 11.311 C 4.254 11.240,4.250 11.240,3.653 11.233 C 3.205 11.228,3.029 11.236,2.957 11.262 " fill="#1A1C1F" stroke="none" fill-rule="evenodd"></path></svg>