<svg width="12" height="12" viewBox="0 0 12 12" fill="none" xmlns="http://www.w3.org/2000/svg"><path d="M5.950 2.419 C 5.135 2.433,5.121 2.435,4.976 2.596 C 4.850 2.735,4.811 2.831,4.813 2.990 C 4.815 3.167,4.866 3.288,4.994 3.416 C 5.184 3.605,4.991 3.589,7.160 3.596 C 9.151 3.602,9.769 3.588,9.873 3.534 C 9.952 3.493,10.087 3.344,10.142 3.237 C 10.198 3.129,10.203 2.936,10.153 2.787 C 10.115 2.676,9.952 2.500,9.846 2.457 C 9.727 2.409,7.756 2.390,5.950 2.419 M2.218 2.447 C 1.905 2.562,1.743 2.855,1.829 3.150 C 1.870 3.289,2.032 3.473,2.177 3.544 C 2.265 3.588,2.292 3.590,2.690 3.589 C 3.205 3.587,3.251 3.577,3.397 3.427 C 3.536 3.284,3.584 3.175,3.584 3.000 C 3.584 2.774,3.483 2.604,3.280 2.483 C 3.190 2.430,3.188 2.430,2.740 2.425 C 2.404 2.421,2.272 2.427,2.218 2.447 M2.214 5.448 C 1.883 5.570,1.720 5.922,1.851 6.234 C 1.866 6.272,1.931 6.354,1.994 6.417 C 2.154 6.576,2.207 6.589,2.710 6.588 C 3.210 6.587,3.251 6.577,3.404 6.419 C 3.547 6.269,3.608 6.121,3.594 5.958 C 3.578 5.774,3.454 5.585,3.284 5.485 L 3.190 5.430 2.740 5.425 C 2.393 5.421,2.273 5.426,2.214 5.448 M5.258 5.440 C 5.130 5.462,5.058 5.504,4.963 5.611 C 4.852 5.738,4.793 5.898,4.807 6.037 C 4.821 6.184,4.903 6.342,5.016 6.442 C 5.197 6.602,4.985 6.589,7.495 6.596 L 9.739 6.601 9.823 6.559 C 10.102 6.416,10.252 6.108,10.173 5.836 C 10.134 5.702,10.015 5.561,9.872 5.479 L 9.770 5.420 7.560 5.423 C 6.345 5.424,5.309 5.432,5.258 5.440 M5.950 8.419 C 5.135 8.433,5.121 8.435,4.976 8.596 C 4.850 8.735,4.811 8.831,4.813 8.990 C 4.815 9.167,4.866 9.288,4.994 9.416 C 5.184 9.605,4.991 9.589,7.160 9.596 C 9.151 9.602,9.769 9.588,9.873 9.534 C 9.952 9.493,10.087 9.344,10.142 9.237 C 10.198 9.129,10.203 8.936,10.153 8.787 C 10.115 8.676,9.952 8.500,9.846 8.457 C 9.727 8.409,7.756 8.390,5.950 8.419 M2.218 8.447 C 1.905 8.562,1.743 8.855,1.829 9.150 C 1.870 9.289,2.032 9.473,2.177 9.544 C 2.265 9.588,2.292 9.590,2.690 9.589 C 3.205 9.587,3.251 9.577,3.397 9.427 C 3.536 9.284,3.584 9.175,3.584 9.000 C 3.584 8.774,3.483 8.604,3.280 8.483 C 3.190 8.430,3.188 8.430,2.740 8.425 C 2.404 8.421,2.272 8.427,2.218 8.447 " fill="#1A1C1F" stroke="none" fill-rule="evenodd"></path></svg>