<svg width="32" height="32" viewBox="0 0 32 32" fill="none" xmlns="http://www.w3.org/2000/svg"><path d="M5.495 8.170 C 4.940 8.546,4.866 9.361,5.354 9.732 C 5.749 10.033,6.687 10.116,7.305 9.905 C 7.589 9.808,7.678 9.747,7.805 9.566 C 8.111 9.127,8.017 8.555,7.585 8.225 C 7.399 8.083,7.376 8.080,6.538 8.062 C 5.710 8.045,5.674 8.049,5.495 8.170 M10.681 8.105 C 10.587 8.128,10.447 8.187,10.371 8.236 C 10.202 8.347,10.027 8.740,10.027 9.006 C 10.027 9.295,10.229 9.652,10.498 9.839 L 10.729 10.000 18.445 10.014 L 26.160 10.027 26.442 9.865 C 27.071 9.503,27.156 8.823,26.640 8.284 L 26.418 8.053 18.636 8.059 C 14.355 8.062,10.776 8.083,10.681 8.105 M5.547 15.136 C 5.290 15.276,5.061 15.615,5.028 15.905 C 4.981 16.322,5.355 16.851,5.779 16.965 C 5.895 16.996,6.269 17.014,6.610 17.004 C 7.207 16.987,7.240 16.980,7.504 16.811 C 7.884 16.566,7.967 16.422,7.970 15.996 C 7.973 15.691,7.954 15.619,7.824 15.449 C 7.566 15.111,7.433 15.070,6.533 15.051 C 5.828 15.036,5.711 15.046,5.547 15.136 M10.921 15.091 C 10.564 15.121,10.487 15.146,10.348 15.278 C 9.846 15.760,9.967 16.563,10.590 16.880 C 10.797 16.985,10.922 16.987,18.524 17.003 L 26.249 17.019 26.479 16.843 C 26.784 16.609,26.925 16.393,26.966 16.099 C 27.013 15.752,26.857 15.423,26.543 15.207 L 26.301 15.040 18.817 15.048 C 14.701 15.052,11.148 15.072,10.921 15.091 M10.935 22.066 C 10.667 22.081,10.550 22.116,10.414 22.219 C 9.847 22.652,9.926 23.569,10.555 23.860 L 10.800 23.973 17.925 23.989 C 24.948 24.005,26.227 23.982,26.538 23.833 C 26.929 23.645,27.095 22.846,26.825 22.443 C 26.753 22.334,26.633 22.216,26.560 22.181 C 26.353 22.081,23.078 22.034,16.827 22.041 C 13.776 22.044,11.125 22.056,10.935 22.066 M5.455 22.192 C 5.112 22.411,4.950 22.864,5.066 23.278 C 5.224 23.843,5.652 24.031,6.692 23.989 C 7.349 23.963,7.539 23.896,7.752 23.613 C 8.042 23.229,8.049 22.807,7.772 22.395 C 7.595 22.132,7.400 22.086,6.453 22.084 C 5.708 22.082,5.610 22.093,5.455 22.192 " fill="#1A1C1F" stroke="none" fill-rule="evenodd"></path></svg>