<svg width="14" height="14" viewBox="0 0 14 14" fill="none" xmlns="http://www.w3.org/2000/svg"><path d="M6.918 2.823 C 5.984 2.839,5.976 2.841,5.799 3.037 C 5.662 3.190,5.591 3.378,5.609 3.539 C 5.630 3.715,5.700 3.859,5.829 3.988 C 6.049 4.208,5.803 4.187,8.353 4.195 C 10.684 4.202,11.396 4.186,11.519 4.122 C 11.618 4.071,11.780 3.887,11.836 3.761 C 11.897 3.625,11.900 3.417,11.845 3.252 C 11.801 3.122,11.611 2.917,11.487 2.867 C 11.347 2.810,8.976 2.788,6.918 2.823 M2.504 2.893 C 2.253 3.019,2.116 3.224,2.114 3.477 C 2.113 3.686,2.156 3.792,2.308 3.951 C 2.530 4.185,2.543 4.188,3.127 4.187 C 3.741 4.185,3.792 4.173,3.963 3.998 C 4.124 3.832,4.184 3.698,4.184 3.500 C 4.184 3.242,4.062 3.037,3.827 2.897 C 3.722 2.835,3.719 2.835,3.185 2.828 L 2.648 2.821 2.504 2.893 M6.778 6.323 C 6.000 6.339,5.972 6.345,5.799 6.537 C 5.662 6.690,5.591 6.877,5.608 7.044 C 5.625 7.214,5.721 7.399,5.852 7.515 C 6.068 7.705,5.791 7.688,8.732 7.695 L 11.362 7.702 11.459 7.652 C 11.728 7.515,11.885 7.270,11.885 6.988 C 11.885 6.788,11.844 6.688,11.702 6.536 C 11.519 6.340,11.520 6.340,10.710 6.321 C 9.904 6.301,7.793 6.302,6.778 6.323 M2.504 6.393 C 2.279 6.506,2.142 6.695,2.109 6.936 C 2.076 7.177,2.246 7.474,2.497 7.616 L 2.625 7.688 3.127 7.687 C 3.748 7.686,3.791 7.675,3.971 7.488 C 4.138 7.314,4.210 7.141,4.193 6.952 C 4.174 6.731,4.035 6.519,3.829 6.398 C 3.722 6.335,3.721 6.335,3.185 6.328 L 2.648 6.320 2.504 6.393 M6.918 9.823 C 5.984 9.839,5.976 9.841,5.799 10.037 C 5.662 10.190,5.591 10.378,5.609 10.539 C 5.630 10.715,5.700 10.859,5.829 10.988 C 6.049 11.208,5.803 11.187,8.353 11.195 C 10.684 11.202,11.396 11.186,11.519 11.122 C 11.618 11.071,11.780 10.887,11.836 10.761 C 11.897 10.625,11.900 10.417,11.845 10.252 C 11.801 10.122,11.611 9.917,11.487 9.867 C 11.347 9.810,8.976 9.788,6.918 9.823 M2.504 9.893 C 2.253 10.019,2.116 10.224,2.114 10.477 C 2.113 10.686,2.156 10.792,2.308 10.951 C 2.530 11.185,2.543 11.188,3.127 11.187 C 3.741 11.185,3.792 11.173,3.963 10.998 C 4.124 10.832,4.184 10.698,4.184 10.500 C 4.184 10.242,4.062 10.037,3.827 9.897 C 3.722 9.835,3.719 9.835,3.185 9.828 L 2.648 9.821 2.504 9.893 " fill="#1A1C1F" stroke="none" fill-rule="evenodd"></path></svg>