<svg width="28" height="28" viewBox="0 0 28 28" fill="none" xmlns="http://www.w3.org/2000/svg"><path d="M5.157 7.047 C 4.879 7.079,4.764 7.137,4.606 7.324 C 4.242 7.756,4.375 8.390,4.879 8.634 C 5.307 8.842,6.281 8.801,6.649 8.559 C 6.933 8.373,7.052 7.974,6.932 7.612 C 6.823 7.286,6.611 7.108,6.291 7.075 C 5.858 7.031,5.397 7.019,5.157 7.047 M10.407 7.040 C 9.146 7.074,9.065 7.097,8.878 7.466 C 8.673 7.870,8.800 8.341,9.186 8.609 L 9.388 8.750 16.113 8.763 L 22.838 8.775 23.088 8.653 C 23.670 8.368,23.773 7.751,23.321 7.260 L 23.123 7.045 17.313 7.028 C 14.118 7.018,11.010 7.024,10.407 7.040 M4.853 13.244 C 4.627 13.367,4.428 13.664,4.399 13.920 C 4.369 14.193,4.552 14.547,4.821 14.733 C 5.005 14.861,5.022 14.863,5.667 14.863 L 6.325 14.863 6.566 14.709 C 6.897 14.496,6.971 14.369,6.974 14.000 C 6.977 13.649,6.881 13.472,6.591 13.292 C 6.432 13.193,6.353 13.182,5.717 13.169 C 5.098 13.156,4.998 13.165,4.853 13.244 M9.556 13.203 C 9.245 13.230,9.175 13.253,9.055 13.369 C 8.623 13.782,8.715 14.458,9.245 14.770 C 9.401 14.862,9.500 14.864,16.199 14.877 L 22.994 14.891 23.254 14.654 C 23.547 14.386,23.636 14.186,23.601 13.874 C 23.571 13.611,23.366 13.348,23.119 13.255 C 22.962 13.196,22.020 13.185,16.427 13.179 C 12.846 13.175,9.754 13.185,9.556 13.203 M9.568 19.308 C 9.206 19.328,8.997 19.461,8.863 19.758 C 8.667 20.189,8.817 20.652,9.219 20.859 L 9.447 20.977 15.685 20.991 C 21.830 21.004,22.949 20.984,23.221 20.854 C 23.563 20.690,23.708 19.990,23.472 19.637 C 23.409 19.542,23.304 19.439,23.240 19.408 C 23.061 19.322,20.147 19.280,14.677 19.286 C 12.033 19.289,9.734 19.299,9.568 19.308 M4.773 19.418 C 4.473 19.610,4.331 20.006,4.433 20.368 C 4.571 20.863,4.946 21.027,5.856 20.990 C 6.431 20.967,6.597 20.909,6.783 20.662 C 7.037 20.326,7.043 19.956,6.800 19.595 C 6.646 19.366,6.475 19.326,5.647 19.323 C 4.994 19.322,4.909 19.331,4.773 19.418 " fill="#1A1C1F" stroke="none" fill-rule="evenodd"></path></svg>