<svg width="20" height="20" viewBox="0 0 20 20" fill="none" xmlns="http://www.w3.org/2000/svg"><path d="M9.917 4.032 C 8.798 4.050,8.706 4.056,8.567 4.121 C 8.397 4.198,8.206 4.395,8.094 4.607 C 7.992 4.800,7.993 5.147,8.095 5.378 C 8.183 5.576,8.486 5.878,8.657 5.939 C 8.843 6.005,15.990 6.004,16.280 5.938 C 16.660 5.851,16.980 5.432,16.979 5.020 C 16.978 4.706,16.894 4.503,16.684 4.303 C 16.585 4.210,16.462 4.116,16.410 4.095 C 16.212 4.015,12.927 3.983,9.917 4.032 M3.660 4.085 C 3.463 4.147,3.190 4.406,3.091 4.624 C 2.991 4.847,2.991 5.165,3.092 5.369 C 3.181 5.550,3.418 5.806,3.567 5.884 C 3.795 6.001,4.975 6.032,5.350 5.930 C 5.517 5.884,5.811 5.592,5.907 5.376 C 5.990 5.188,5.998 4.807,5.923 4.626 C 5.849 4.451,5.608 4.201,5.433 4.121 C 5.298 4.058,5.211 4.051,4.550 4.043 C 3.973 4.037,3.783 4.045,3.660 4.085 M3.690 9.080 C 3.367 9.199,3.139 9.441,3.045 9.761 C 2.920 10.193,3.150 10.663,3.607 10.907 C 3.744 10.980,3.781 10.983,4.467 10.981 C 5.354 10.979,5.417 10.964,5.673 10.698 C 5.912 10.448,6.014 10.202,5.990 9.931 C 5.963 9.615,5.764 9.313,5.470 9.140 C 5.317 9.050,5.315 9.050,4.567 9.042 C 3.989 9.035,3.788 9.044,3.690 9.080 M8.763 9.067 C 8.550 9.103,8.429 9.173,8.272 9.352 C 8.086 9.563,7.988 9.830,8.011 10.062 C 8.036 10.306,8.173 10.570,8.360 10.735 C 8.668 11.007,8.273 10.982,12.474 10.993 L 16.232 11.002 16.369 10.932 C 16.579 10.825,16.789 10.613,16.890 10.406 C 16.965 10.254,16.981 10.176,16.979 9.985 C 16.975 9.598,16.833 9.358,16.485 9.151 L 16.287 9.033 12.602 9.037 C 10.575 9.039,8.848 9.053,8.763 9.067 M9.917 14.032 C 8.798 14.050,8.706 14.056,8.567 14.121 C 8.397 14.198,8.206 14.395,8.094 14.607 C 7.992 14.800,7.993 15.147,8.095 15.378 C 8.183 15.576,8.486 15.878,8.657 15.939 C 8.843 16.005,15.990 16.004,16.280 15.938 C 16.660 15.851,16.980 15.432,16.979 15.020 C 16.978 14.706,16.894 14.503,16.684 14.303 C 16.585 14.210,16.462 14.116,16.410 14.095 C 16.212 14.015,12.927 13.983,9.917 14.032 M3.660 14.085 C 3.463 14.147,3.190 14.406,3.091 14.624 C 2.991 14.847,2.991 15.165,3.092 15.369 C 3.181 15.550,3.418 15.806,3.567 15.884 C 3.795 16.001,4.975 16.032,5.350 15.930 C 5.517 15.884,5.811 15.592,5.907 15.376 C 5.990 15.188,5.998 14.807,5.923 14.626 C 5.849 14.451,5.608 14.201,5.433 14.121 C 5.298 14.058,5.211 14.051,4.550 14.043 C 3.973 14.037,3.783 14.045,3.660 14.085 " fill="#1A1C1F" stroke="none" fill-rule="evenodd"></path></svg>