<svg width="20" height="20" viewBox="0 0 20 20" fill="none" xmlns="http://www.w3.org/2000/svg"><path d="M5.617 2.065 C 4.999 2.123,4.321 2.745,4.065 3.488 C 4.002 3.670,4.000 3.788,4.000 6.839 L 4.000 10.000 5.475 10.003 C 6.286 10.005,7.482 10.017,8.133 10.029 C 9.461 10.054,9.414 10.046,9.685 10.316 C 9.984 10.615,9.960 10.379,9.987 13.362 L 10.011 16.000 13.171 16.000 L 16.331 16.000 16.603 15.901 C 16.963 15.769,17.147 15.646,17.430 15.349 C 17.679 15.087,17.795 14.892,17.921 14.519 L 18.000 14.288 18.000 9.000 C 18.000 3.724,18.000 3.710,17.930 3.497 C 17.811 3.131,17.667 2.900,17.384 2.617 C 17.001 2.235,16.748 2.108,16.294 2.067 C 15.908 2.032,5.986 2.030,5.617 2.065 M2.712 12.065 C 2.474 12.122,2.219 12.353,2.074 12.643 L 2.000 12.791 2.000 15.005 L 2.000 17.220 2.085 17.390 C 2.185 17.591,2.445 17.845,2.642 17.935 C 2.777 17.996,2.886 17.999,5.002 17.999 L 7.220 18.000 7.390 17.915 C 7.591 17.815,7.845 17.555,7.935 17.358 C 7.995 17.224,7.998 17.121,7.998 15.383 C 7.997 13.362,7.971 12.704,7.889 12.543 C 7.824 12.419,7.563 12.183,7.393 12.097 C 7.275 12.036,7.167 12.033,5.043 12.037 C 3.819 12.039,2.770 12.051,2.712 12.065 " fill="#1A1C1F" stroke="none" fill-rule="evenodd"></path></svg>