<svg width="20" height="20" viewBox="0 0 20 20" fill="none" xmlns="http://www.w3.org/2000/svg"><path d="M5.600 2.065 C 5.234 2.103,4.743 2.409,4.410 2.808 C 4.263 2.984,4.212 3.084,4.096 3.430 L 4.000 3.713 4.002 6.265 C 4.003 9.037,4.025 9.790,4.109 9.952 C 4.184 10.097,4.446 10.328,4.624 10.407 C 4.843 10.503,5.206 10.502,5.408 10.404 C 5.592 10.315,5.847 10.050,5.935 9.858 C 5.996 9.722,5.999 9.605,5.999 6.858 L 6.000 4.000 11.000 4.000 L 16.000 4.000 16.000 8.995 L 16.000 13.989 13.110 14.013 L 10.221 14.036 10.057 14.125 C 9.967 14.174,9.829 14.286,9.751 14.373 C 9.318 14.854,9.490 15.586,10.113 15.914 L 10.277 16.000 13.282 16.000 L 16.288 16.000 16.519 15.921 C 16.646 15.878,16.828 15.803,16.924 15.755 C 17.286 15.571,17.753 15.033,17.882 14.650 C 17.981 14.357,17.998 13.468,17.999 8.497 C 18.000 3.854,17.998 3.670,17.937 3.494 C 17.804 3.108,17.688 2.922,17.400 2.631 C 17.012 2.241,16.761 2.111,16.311 2.067 C 15.942 2.031,5.947 2.029,5.600 2.065 M2.664 12.085 C 2.466 12.146,2.231 12.354,2.099 12.585 L 1.994 12.768 2.006 15.009 C 2.020 17.522,2.004 17.361,2.272 17.652 C 2.351 17.737,2.491 17.851,2.583 17.903 L 2.750 17.999 4.985 18.000 L 7.220 18.000 7.390 17.915 C 7.591 17.815,7.845 17.555,7.935 17.358 C 7.995 17.224,7.998 17.121,7.998 15.383 C 7.997 13.362,7.971 12.704,7.889 12.543 C 7.824 12.419,7.563 12.183,7.393 12.097 C 7.275 12.036,7.166 12.033,5.043 12.036 C 3.223 12.038,2.789 12.047,2.664 12.085 M6.000 15.000 L 6.000 16.000 5.000 16.000 L 4.000 16.000 4.000 15.000 L 4.000 14.000 5.000 14.000 L 6.000 14.000 6.000 15.000 " fill="#1A1C1F" stroke="none" fill-rule="evenodd"></path></svg>