<svg width="14" height="14" viewBox="0 0 14 14" fill="none" xmlns="http://www.w3.org/2000/svg"><path d="M3.932 1.446 C 3.500 1.486,3.024 1.922,2.846 2.441 C 2.802 2.569,2.800 2.652,2.800 4.783 L 2.800 6.992 4.645 7.008 C 6.443 7.024,6.493 7.025,6.584 7.072 C 6.704 7.133,6.867 7.296,6.928 7.416 C 6.975 7.507,6.976 7.557,6.992 9.355 L 7.008 11.200 9.220 11.200 L 11.432 11.200 11.622 11.131 C 11.873 11.039,12.003 10.952,12.196 10.749 C 12.365 10.570,12.472 10.392,12.551 10.157 C 12.600 10.012,12.600 10.000,12.600 6.300 C 12.600 2.600,12.600 2.588,12.551 2.443 C 12.466 2.189,12.365 2.028,12.169 1.832 C 11.901 1.565,11.724 1.475,11.406 1.447 C 11.135 1.422,4.190 1.421,3.932 1.446 M1.898 8.446 C 1.730 8.486,1.563 8.637,1.458 8.843 L 1.400 8.958 1.400 10.506 L 1.400 12.054 1.459 12.173 C 1.529 12.314,1.711 12.491,1.850 12.554 C 1.944 12.597,2.019 12.599,3.500 12.599 C 4.981 12.599,5.056 12.597,5.150 12.554 C 5.289 12.491,5.471 12.314,5.541 12.173 L 5.600 12.054 5.599 10.770 C 5.598 9.352,5.580 8.892,5.522 8.780 C 5.477 8.694,5.294 8.528,5.175 8.468 C 5.092 8.425,5.017 8.423,3.530 8.426 C 2.673 8.427,1.939 8.436,1.898 8.446 " fill="#1A1C1F" stroke="none" fill-rule="evenodd"></path></svg>