<svg width="14" height="14" viewBox="0 0 14 14" fill="none" xmlns="http://www.w3.org/2000/svg"><path d="M3.920 1.446 C 3.685 1.471,3.452 1.602,3.201 1.848 C 3.020 2.026,2.960 2.125,2.870 2.393 L 2.800 2.599 2.801 4.374 C 2.802 6.320,2.818 6.853,2.876 6.966 C 2.919 7.049,3.092 7.214,3.189 7.264 C 3.373 7.359,3.677 7.356,3.836 7.258 C 3.945 7.190,4.072 7.049,4.140 6.921 L 4.200 6.806 4.200 4.803 L 4.200 2.800 7.700 2.800 L 11.200 2.800 11.200 6.296 L 11.200 9.792 9.180 9.808 L 7.160 9.824 7.050 9.880 C 6.921 9.946,6.755 10.117,6.703 10.239 C 6.647 10.372,6.654 10.626,6.718 10.773 C 6.780 10.914,6.954 11.088,7.100 11.154 C 7.195 11.197,7.278 11.199,9.300 11.199 L 11.402 11.200 11.563 11.145 C 11.652 11.115,11.780 11.062,11.847 11.028 C 12.090 10.905,12.410 10.543,12.516 10.269 C 12.586 10.088,12.599 9.436,12.599 5.945 L 12.600 2.568 12.530 2.375 C 12.442 2.134,12.335 1.976,12.130 1.787 C 11.930 1.601,11.679 1.473,11.462 1.445 C 11.278 1.421,4.144 1.422,3.920 1.446 M1.863 8.460 C 1.726 8.502,1.546 8.663,1.461 8.819 L 1.396 8.939 1.404 10.507 C 1.414 12.265,1.403 12.153,1.590 12.356 C 1.646 12.416,1.743 12.495,1.808 12.532 L 1.925 12.600 3.490 12.600 L 5.054 12.600 5.173 12.541 C 5.314 12.471,5.491 12.289,5.554 12.150 C 5.597 12.057,5.599 11.985,5.598 10.768 C 5.598 9.354,5.580 8.892,5.522 8.780 C 5.477 8.694,5.294 8.528,5.175 8.468 C 5.093 8.425,5.016 8.423,3.530 8.425 C 2.249 8.426,1.952 8.433,1.863 8.460 M4.200 10.500 L 4.200 11.200 3.500 11.200 L 2.800 11.200 2.800 10.500 L 2.800 9.800 3.500 9.800 L 4.200 9.800 4.200 10.500 " fill="#1A1C1F" stroke="none" fill-rule="evenodd"></path></svg>