<svg width="12" height="12" viewBox="0 0 12 12" fill="none" xmlns="http://www.w3.org/2000/svg"><path d="M9.069 2.158 C 8.962 2.206,7.461 3.681,4.760 6.392 C 2.706 8.453,2.175 9.001,2.135 9.099 C 2.124 9.127,2.114 9.217,2.114 9.300 C 2.113 9.476,2.166 9.602,2.293 9.724 C 2.474 9.898,2.757 9.945,2.950 9.831 C 3.013 9.794,3.561 9.267,4.450 8.389 C 6.252 6.607,9.394 3.453,9.645 3.174 C 9.807 2.994,9.845 2.938,9.872 2.846 C 9.949 2.582,9.800 2.280,9.534 2.159 C 9.420 2.107,9.181 2.107,9.069 2.158 M9.086 6.345 C 8.997 6.380,8.759 6.603,7.792 7.560 C 6.864 8.479,6.418 8.947,6.359 9.061 C 6.257 9.262,6.296 9.507,6.460 9.686 C 6.588 9.826,6.722 9.888,6.900 9.889 C 7.144 9.891,7.146 9.889,8.223 8.824 C 9.278 7.780,9.781 7.255,9.846 7.131 C 9.906 7.014,9.905 6.784,9.844 6.658 C 9.741 6.448,9.561 6.337,9.310 6.327 C 9.216 6.323,9.124 6.331,9.086 6.345 " fill="#1A1C1F" stroke="none" fill-rule="evenodd"></path></svg>