<svg width="16" height="16" viewBox="0 0 16 16" fill="none" xmlns="http://www.w3.org/2000/svg"><path d="M12.092 2.877 C 12.018 2.911,11.502 3.400,10.452 4.433 C 8.495 6.357,3.699 11.171,3.221 11.689 C 2.884 12.055,2.854 12.096,2.826 12.229 C 2.723 12.726,3.102 13.186,3.615 13.185 C 3.773 13.185,3.823 13.173,3.934 13.108 C 4.016 13.060,4.743 12.361,5.866 11.252 C 8.161 8.985,12.521 4.609,12.860 4.232 C 13.076 3.992,13.127 3.918,13.163 3.794 C 13.269 3.428,13.040 2.993,12.675 2.869 C 12.505 2.811,12.228 2.815,12.092 2.877 M12.093 8.475 C 11.970 8.533,11.480 8.998,10.191 10.277 C 9.113 11.348,8.553 11.938,8.473 12.090 C 8.391 12.245,8.392 12.524,8.475 12.707 C 8.608 13.000,8.886 13.183,9.200 13.185 C 9.525 13.188,9.527 13.186,10.963 11.765 C 12.368 10.375,13.041 9.673,13.128 9.507 C 13.209 9.352,13.207 9.045,13.125 8.877 C 12.988 8.599,12.748 8.450,12.413 8.434 C 12.245 8.427,12.178 8.435,12.093 8.475 " fill="#1A1C1F" stroke="none" fill-rule="evenodd"></path></svg>