<svg width="32" height="32" viewBox="0 0 32 32" fill="none" xmlns="http://www.w3.org/2000/svg"><path d="M24.390 6.280 C 22.668 7.927,9.384 21.175,7.146 23.477 C 6.156 24.495,5.270 25.443,5.175 25.584 C 5.024 25.811,5.008 25.870,5.034 26.102 C 5.092 26.615,5.403 26.897,5.986 26.965 L 6.282 27.000 6.885 26.447 C 7.637 25.756,25.886 7.504,26.457 6.871 C 26.937 6.338,27.037 6.101,26.934 5.738 C 26.809 5.294,26.489 5.067,25.990 5.067 L 25.659 5.067 24.390 6.280 M25.666 15.097 C 25.457 15.161,21.168 19.353,17.752 22.831 C 15.333 25.295,15.120 25.529,15.031 25.825 C 14.901 26.256,15.339 26.892,15.815 26.963 C 16.336 27.041,16.259 27.104,19.195 24.213 C 22.240 21.213,25.166 18.278,26.118 17.268 C 26.881 16.458,27.018 16.234,26.965 15.881 C 26.920 15.585,26.753 15.321,26.525 15.188 C 26.321 15.069,25.903 15.024,25.666 15.097 " fill="#1A1C1F" stroke="none" fill-rule="evenodd"></path></svg>