<svg width="12" height="12" viewBox="0 0 12 12" fill="none" xmlns="http://www.w3.org/2000/svg"><path d="M3.360 1.239 C 3.183 1.257,2.972 1.370,2.790 1.543 C 2.627 1.698,2.535 1.841,2.457 2.063 L 2.400 2.223 2.400 4.111 L 2.400 6.000 3.275 6.002 C 3.756 6.003,4.474 6.010,4.870 6.018 C 5.678 6.033,5.648 6.027,5.811 6.190 C 5.990 6.369,5.976 6.227,5.992 8.017 L 6.006 9.600 7.903 9.600 L 9.799 9.600 9.962 9.540 C 10.177 9.462,10.289 9.388,10.454 9.213 C 10.605 9.053,10.678 8.931,10.751 8.717 L 10.800 8.573 10.800 5.398 L 10.800 2.223 10.738 2.047 C 10.703 1.949,10.644 1.823,10.606 1.765 C 10.509 1.619,10.291 1.424,10.124 1.334 C 9.999 1.268,9.958 1.256,9.776 1.240 C 9.543 1.219,3.564 1.218,3.360 1.239 M1.627 7.239 C 1.484 7.273,1.331 7.412,1.244 7.586 L 1.200 7.674 1.200 9.003 L 1.200 10.332 1.251 10.434 C 1.311 10.555,1.467 10.707,1.585 10.761 C 1.666 10.797,1.731 10.799,3.001 10.800 L 4.332 10.800 4.434 10.749 C 4.558 10.687,4.709 10.531,4.764 10.406 C 4.804 10.316,4.804 10.289,4.796 8.982 C 4.786 7.478,4.797 7.575,4.624 7.402 C 4.428 7.206,4.549 7.220,3.026 7.222 C 2.291 7.223,1.662 7.231,1.627 7.239 " fill="#1A1C1F" stroke="none" fill-rule="evenodd"></path></svg>