<svg width="28" height="28" viewBox="0 0 28 28" fill="none" xmlns="http://www.w3.org/2000/svg"><path d="M21.342 5.495 C 19.835 6.936,8.316 18.423,6.300 20.495 C 5.409 21.411,4.612 22.262,4.529 22.385 C 4.396 22.585,4.382 22.636,4.405 22.839 C 4.456 23.288,4.728 23.535,5.238 23.595 L 5.497 23.625 6.025 23.141 C 6.683 22.537,22.650 6.566,23.150 6.012 C 23.569 5.546,23.657 5.338,23.567 5.021 C 23.457 4.632,23.178 4.434,22.741 4.434 L 22.452 4.433 21.342 5.495 M22.458 13.210 C 22.274 13.266,18.604 16.852,15.579 19.931 C 13.417 22.131,13.230 22.337,13.152 22.597 C 13.038 22.974,13.421 23.530,13.838 23.593 C 14.294 23.661,14.227 23.716,16.795 21.186 C 18.094 19.907,19.862 18.150,20.723 17.282 C 23.546 14.438,23.656 14.308,23.594 13.896 C 23.555 13.636,23.409 13.406,23.209 13.289 C 23.031 13.185,22.665 13.146,22.458 13.210 " fill="#1A1C1F" stroke="none" fill-rule="evenodd"></path></svg>