<svg width="32" height="32" viewBox="0 0 32 32" fill="none" xmlns="http://www.w3.org/2000/svg"><path d="M11.653 2.078 L 8.079 2.107 7.657 2.347 C 7.048 2.693,6.620 3.142,6.318 3.750 C 6.141 4.108,6.059 4.348,6.025 4.616 C 5.998 4.820,5.976 7.513,5.975 10.601 L 5.973 16.215 6.102 16.419 C 6.562 17.148,7.377 17.178,7.843 16.484 L 7.989 16.267 8.008 10.487 L 8.027 4.707 8.166 4.511 C 8.242 4.404,8.385 4.257,8.483 4.185 L 8.661 4.053 18.035 4.053 L 27.410 4.053 27.598 4.241 C 27.701 4.345,27.834 4.524,27.893 4.639 C 27.998 4.846,28.000 4.947,28.000 11.136 C 28.000 14.593,27.984 18.759,27.965 20.392 L 27.929 23.361 27.741 23.581 C 27.389 23.993,27.839 23.963,21.428 23.999 L 15.683 24.032 15.458 24.195 C 15.163 24.409,15.040 24.646,15.040 25.002 C 15.040 25.320,15.120 25.507,15.342 25.714 C 15.702 26.048,15.272 26.027,21.622 26.027 L 27.410 26.027 27.847 25.867 C 28.876 25.492,29.449 24.914,29.867 23.831 L 30.027 23.417 30.027 14.005 L 30.027 4.592 29.860 4.133 C 29.555 3.288,29.021 2.686,28.223 2.286 L 27.867 2.107 24.453 2.073 C 20.640 2.034,16.960 2.036,11.653 2.078 M16.700 8.107 C 16.434 8.170,16.256 8.321,16.112 8.607 C 15.993 8.845,15.989 8.881,16.051 9.156 C 16.130 9.510,16.380 9.814,16.677 9.918 C 16.825 9.970,17.374 9.996,18.708 10.013 L 20.535 10.036 17.492 13.105 C 15.818 14.793,14.361 16.281,14.255 16.411 C 13.851 16.904,13.997 17.579,14.571 17.872 C 14.825 18.002,15.150 18.001,15.407 17.870 C 15.524 17.810,16.964 16.424,18.792 14.611 L 21.973 11.455 21.973 13.303 C 21.973 15.038,21.980 15.163,22.078 15.349 C 22.280 15.729,22.480 15.888,22.862 15.970 C 23.220 16.047,23.689 15.805,23.879 15.447 C 23.957 15.298,23.969 14.919,23.990 12.017 L 24.013 8.754 23.897 8.566 C 23.833 8.463,23.682 8.305,23.560 8.216 L 23.339 8.053 20.109 8.059 C 18.333 8.062,16.799 8.083,16.700 8.107 M4.639 20.046 C 3.895 20.081,3.850 20.090,3.466 20.275 C 2.783 20.603,2.368 21.066,2.131 21.763 C 2.020 22.090,2.013 22.217,1.989 24.373 C 1.975 25.620,1.986 26.980,2.012 27.395 C 2.057 28.112,2.069 28.171,2.254 28.545 C 2.578 29.201,3.194 29.711,3.895 29.905 C 4.206 29.991,4.516 30.000,7.040 30.000 C 9.819 30.000,9.843 29.999,10.213 29.877 C 10.915 29.646,11.555 29.060,11.790 28.433 C 11.968 27.956,11.997 27.498,11.998 25.067 C 11.999 22.438,11.963 21.944,11.734 21.451 C 11.431 20.803,10.753 20.252,10.080 20.109 C 9.734 20.036,5.824 19.990,4.639 20.046 M9.861 22.155 C 9.972 22.256,9.973 22.279,9.973 24.990 L 9.973 27.724 9.809 27.862 L 9.645 28.000 6.986 28.000 L 4.326 28.000 4.189 27.880 L 4.052 27.760 4.018 25.067 L 3.983 22.373 4.132 22.198 L 4.280 22.022 7.014 22.038 C 9.617 22.053,9.754 22.058,9.861 22.155 " fill="#1A1C1F" stroke="none" fill-rule="evenodd"></path></svg>