<svg width="24" height="24" viewBox="0 0 24 24" fill="none" xmlns="http://www.w3.org/2000/svg"><path d="M18.617 4.097 C 18.471 4.160,16.641 5.956,11.587 10.997 C 7.517 15.056,4.217 18.395,4.102 18.572 C 4.022 18.694,3.999 19.033,4.053 19.294 C 4.091 19.477,4.349 19.772,4.568 19.884 C 4.772 19.988,5.025 20.018,5.230 19.963 C 5.367 19.926,5.538 19.786,6.129 19.229 C 7.076 18.337,13.915 11.523,17.225 8.173 C 20.064 5.300,20.036 5.333,19.987 4.918 C 19.945 4.563,19.697 4.230,19.374 4.095 C 19.208 4.026,18.778 4.026,18.617 4.097 M18.731 12.548 C 18.580 12.577,17.941 13.178,15.825 15.279 C 13.607 17.481,12.719 18.407,12.598 18.644 C 12.439 18.955,12.520 19.402,12.783 19.665 C 12.959 19.841,13.313 20.000,13.529 20.000 C 13.782 20.000,13.994 19.839,14.950 18.922 C 16.183 17.739,19.169 14.728,19.593 14.240 C 19.974 13.800,20.034 13.655,19.967 13.329 C 19.852 12.766,19.325 12.433,18.731 12.548 " fill="#1A1C1F" stroke="none" fill-rule="evenodd"></path></svg>