<svg width="16" height="16" viewBox="0 0 16 16" fill="none" xmlns="http://www.w3.org/2000/svg"><path d="M4.493 1.652 C 4.244 1.675,3.971 1.818,3.720 2.057 C 3.515 2.253,3.396 2.431,3.278 2.721 L 3.200 2.912 3.200 5.452 L 3.200 7.991 5.308 8.009 C 7.366 8.027,7.419 8.028,7.524 8.082 C 7.662 8.152,7.848 8.338,7.918 8.476 C 7.971 8.580,7.973 8.635,7.991 10.692 L 8.009 12.800 10.534 12.800 C 12.929 12.800,13.066 12.797,13.203 12.750 C 13.784 12.550,14.141 12.193,14.337 11.616 L 14.400 11.431 14.400 7.181 L 14.400 2.932 14.318 2.719 C 14.161 2.312,13.871 1.979,13.498 1.779 C 13.332 1.690,13.277 1.675,13.035 1.653 C 12.726 1.625,4.789 1.624,4.493 1.652 M2.184 9.651 C 1.988 9.690,1.779 9.873,1.659 10.115 L 1.600 10.233 1.600 12.004 L 1.600 13.776 1.668 13.912 C 1.748 14.073,1.956 14.276,2.114 14.348 C 2.221 14.396,2.308 14.399,4.000 14.399 C 5.692 14.399,5.779 14.396,5.886 14.348 C 6.044 14.276,6.252 14.073,6.332 13.912 L 6.400 13.776 6.399 12.281 C 6.398 10.675,6.378 10.164,6.310 10.034 C 6.259 9.935,6.049 9.746,5.914 9.677 C 5.820 9.629,5.734 9.627,4.048 9.630 C 3.075 9.631,2.237 9.641,2.184 9.651 " fill="#1A1C1F" stroke="none" fill-rule="evenodd"></path></svg>