<svg width="20" height="20" viewBox="0 0 20 20" fill="none" xmlns="http://www.w3.org/2000/svg"><path d="M15.114 3.597 C 15.020 3.639,14.389 4.238,13.081 5.525 C 10.639 7.927,4.619 13.968,4.026 14.612 C 3.605 15.069,3.567 15.120,3.533 15.286 C 3.404 15.905,3.878 16.480,4.517 16.482 C 4.715 16.483,4.775 16.469,4.915 16.386 C 5.019 16.325,5.910 15.470,7.299 14.098 C 10.133 11.299,15.652 5.760,16.075 5.290 C 16.344 4.990,16.409 4.897,16.454 4.743 C 16.586 4.286,16.300 3.742,15.844 3.586 C 15.631 3.514,15.285 3.519,15.114 3.597 M15.115 10.594 C 14.945 10.674,13.799 11.772,12.216 13.370 C 10.986 14.613,10.623 15.006,10.561 15.162 C 10.496 15.322,10.515 15.700,10.596 15.883 C 10.813 16.373,11.410 16.621,11.867 16.412 C 12.088 16.311,12.744 15.687,14.624 13.785 C 16.409 11.981,16.446 11.938,16.488 11.577 C 16.531 11.216,16.306 10.823,15.954 10.643 C 15.722 10.524,15.315 10.500,15.115 10.594 " fill="#1A1C1F" stroke="none" fill-rule="evenodd"></path></svg>