<svg width="14" height="14" viewBox="0 0 14 14" fill="none" xmlns="http://www.w3.org/2000/svg"><path d="M10.580 2.516 C 10.517 2.546,10.058 2.980,9.203 3.821 C 7.553 5.443,3.234 9.778,2.818 10.228 C 2.523 10.548,2.497 10.584,2.473 10.700 C 2.383 11.136,2.714 11.538,3.163 11.537 C 3.302 11.537,3.345 11.526,3.442 11.469 C 3.579 11.389,5.785 9.215,8.821 6.168 C 10.894 4.088,11.462 3.500,11.507 3.383 C 11.542 3.294,11.535 2.982,11.496 2.888 C 11.445 2.766,11.301 2.618,11.166 2.549 C 11.005 2.467,10.720 2.451,10.580 2.516 M10.582 7.416 C 10.473 7.467,10.052 7.865,8.929 8.981 C 7.974 9.929,7.484 10.446,7.414 10.579 C 7.342 10.714,7.343 10.958,7.416 11.118 C 7.532 11.375,7.776 11.535,8.050 11.537 C 8.333 11.539,8.338 11.535,9.569 10.318 C 10.791 9.110,11.412 8.463,11.486 8.320 C 11.557 8.183,11.556 7.915,11.484 7.768 C 11.365 7.524,11.155 7.394,10.862 7.380 C 10.714 7.373,10.655 7.381,10.582 7.416 " fill="#1A1C1F" stroke="none" fill-rule="evenodd"></path></svg>