<svg width="12" height="12" viewBox="0 0 12 12" fill="none" xmlns="http://www.w3.org/2000/svg"><path d="M3.360 1.239 C 3.140 1.262,2.846 1.445,2.646 1.685 C 2.562 1.786,2.535 1.837,2.460 2.041 L 2.400 2.203 2.400 4.017 L 2.400 5.832 2.451 5.934 C 2.559 6.152,2.774 6.287,3.010 6.288 C 3.186 6.289,3.299 6.238,3.429 6.099 C 3.613 5.903,3.599 6.060,3.600 4.115 L 3.600 2.400 6.600 2.400 L 9.600 2.400 9.600 5.397 L 9.600 8.394 7.866 8.408 L 6.132 8.422 6.034 8.475 C 5.658 8.680,5.597 9.150,5.908 9.437 C 6.099 9.612,5.935 9.599,7.971 9.600 L 9.773 9.600 9.911 9.553 C 9.988 9.527,10.097 9.482,10.154 9.453 C 10.371 9.343,10.652 9.020,10.729 8.790 C 10.789 8.614,10.799 8.081,10.799 5.107 L 10.800 2.223 10.738 2.047 C 10.660 1.825,10.574 1.695,10.398 1.533 C 10.226 1.373,10.011 1.263,9.824 1.239 C 9.669 1.219,3.555 1.219,3.360 1.239 M1.586 7.253 C 1.473 7.293,1.335 7.419,1.260 7.550 L 1.198 7.658 1.204 9.004 L 1.210 10.350 1.263 10.451 C 1.324 10.566,1.459 10.698,1.577 10.759 C 1.657 10.799,1.683 10.800,2.995 10.800 L 4.332 10.800 4.434 10.749 C 4.558 10.687,4.709 10.531,4.764 10.406 C 4.804 10.316,4.804 10.289,4.796 8.982 C 4.786 7.478,4.797 7.575,4.624 7.402 C 4.428 7.206,4.551 7.220,3.016 7.222 C 1.882 7.223,1.657 7.228,1.586 7.253 M3.600 9.000 L 3.600 9.600 3.000 9.600 L 2.400 9.600 2.400 9.000 L 2.400 8.400 3.000 8.400 L 3.600 8.400 3.600 9.000 " fill="#1A1C1F" stroke="none" fill-rule="evenodd"></path></svg>