<svg width="28" height="28" viewBox="0 0 28 28" fill="none" xmlns="http://www.w3.org/2000/svg"><path d="M10.196 1.818 L 7.069 1.843 6.700 2.053 C 6.168 2.356,5.792 2.749,5.529 3.279 C 5.388 3.565,5.301 3.812,5.272 4.013 C 5.213 4.427,5.213 13.973,5.273 14.187 C 5.329 14.389,5.563 14.678,5.747 14.774 C 5.933 14.870,6.298 14.867,6.505 14.769 C 6.598 14.725,6.745 14.592,6.832 14.473 L 6.991 14.256 7.007 9.187 L 7.023 4.118 7.145 3.947 C 7.212 3.853,7.337 3.725,7.422 3.662 L 7.578 3.547 15.781 3.547 L 23.984 3.547 24.148 3.711 C 24.239 3.802,24.355 3.958,24.406 4.059 C 24.499 4.240,24.500 4.329,24.500 9.786 C 24.500 12.835,24.486 16.480,24.469 17.886 L 24.438 20.441 24.274 20.633 C 23.965 20.994,24.359 20.968,18.750 20.999 L 13.724 21.027 13.525 21.171 C 13.271 21.355,13.151 21.586,13.153 21.885 C 13.155 22.141,13.205 22.266,13.387 22.462 C 13.673 22.771,13.268 22.749,18.883 22.763 L 23.975 22.776 24.375 22.631 C 24.775 22.486,25.295 22.160,25.535 21.904 C 25.725 21.702,25.977 21.257,26.133 20.852 L 26.273 20.490 26.273 12.254 L 26.273 4.018 26.128 3.616 C 25.860 2.875,25.426 2.384,24.717 2.018 L 24.383 1.845 21.350 1.814 C 17.972 1.780,14.857 1.781,10.196 1.818 M14.612 7.093 C 14.385 7.147,14.225 7.280,14.103 7.516 C 13.881 7.945,14.121 8.500,14.607 8.682 C 14.726 8.727,15.204 8.748,16.370 8.762 L 17.969 8.782 15.360 11.412 C 13.925 12.859,12.651 14.159,12.530 14.301 C 12.359 14.501,12.303 14.607,12.285 14.765 C 12.209 15.443,12.889 15.938,13.481 15.636 C 13.584 15.584,14.843 14.371,16.443 12.784 L 19.227 10.023 19.227 11.640 C 19.227 13.158,19.232 13.268,19.318 13.430 C 19.495 13.763,19.670 13.902,20.004 13.974 C 20.317 14.041,20.728 13.830,20.894 13.516 C 20.963 13.386,20.974 13.059,20.991 10.514 L 21.011 7.659 20.910 7.495 C 20.854 7.405,20.721 7.267,20.615 7.189 L 20.422 7.047 17.596 7.051 C 16.042 7.054,14.699 7.073,14.612 7.093 M4.083 17.543 C 3.526 17.571,3.332 17.599,3.133 17.680 C 2.605 17.896,2.219 18.264,1.953 18.804 C 1.821 19.072,1.801 19.168,1.768 19.691 C 1.722 20.419,1.721 23.409,1.767 24.110 C 1.798 24.579,1.818 24.664,1.972 24.976 C 2.256 25.551,2.794 25.997,3.408 26.167 C 3.680 26.242,3.951 26.250,6.160 26.250 C 8.592 26.250,8.612 26.249,8.937 26.143 C 9.551 25.941,10.111 25.427,10.316 24.879 C 10.472 24.461,10.497 24.060,10.498 21.933 C 10.498 19.583,10.471 19.206,10.271 18.777 C 10.001 18.202,9.412 17.721,8.820 17.596 C 8.510 17.530,5.115 17.492,4.083 17.543 M8.628 19.386 C 8.726 19.474,8.727 19.494,8.727 21.866 L 8.727 24.258 8.583 24.379 L 8.440 24.500 6.112 24.500 L 3.785 24.500 3.665 24.395 L 3.544 24.290 3.515 21.933 L 3.486 19.577 3.615 19.423 L 3.745 19.269 6.138 19.283 C 8.415 19.296,8.535 19.301,8.628 19.386 " fill="#1A1C1F" stroke="none" fill-rule="evenodd"></path></svg>