<svg width="24" height="24" viewBox="0 0 24 24" fill="none" xmlns="http://www.w3.org/2000/svg"><path d="M8.860 2.037 L 6.860 2.060 6.549 2.209 C 5.980 2.480,5.550 2.880,5.267 3.400 C 5.017 3.859,5.020 3.814,5.021 7.741 L 5.022 11.302 5.113 11.448 C 5.228 11.634,5.453 11.833,5.637 11.910 C 5.803 11.979,6.210 11.988,6.371 11.925 C 6.553 11.854,6.875 11.526,6.920 11.365 C 6.946 11.275,6.977 9.917,7.001 7.803 C 7.037 4.682,7.047 4.373,7.110 4.244 C 7.152 4.159,7.220 4.091,7.280 4.075 C 7.335 4.060,10.154 4.046,13.544 4.044 L 19.708 4.040 19.811 4.135 C 19.878 4.197,19.922 4.291,19.939 4.405 C 19.952 4.501,19.958 7.318,19.952 10.664 C 19.939 17.282,19.955 16.838,19.722 16.927 C 19.661 16.951,18.243 16.982,16.221 17.004 C 14.102 17.028,12.763 17.058,12.666 17.084 C 12.427 17.148,12.140 17.457,12.059 17.739 C 11.918 18.222,12.177 18.741,12.659 18.942 C 12.776 18.991,13.340 19.000,16.360 19.000 L 19.923 19.000 20.233 18.880 C 20.635 18.725,20.971 18.522,21.215 18.288 C 21.467 18.045,21.783 17.565,21.862 17.305 C 21.979 16.920,22.002 15.566,21.991 9.720 L 21.980 3.980 21.865 3.700 C 21.599 3.056,21.221 2.637,20.587 2.286 L 20.219 2.082 19.440 2.061 C 18.211 2.029,11.068 2.013,8.860 2.037 M12.691 6.079 C 12.412 6.145,12.117 6.458,12.038 6.769 C 11.974 7.025,12.017 7.265,12.172 7.523 C 12.275 7.696,12.347 7.762,12.537 7.859 L 12.774 7.980 13.667 7.993 L 14.561 8.007 12.896 9.693 C 11.981 10.621,11.189 11.453,11.136 11.543 C 10.933 11.889,10.983 12.305,11.266 12.636 C 11.475 12.881,11.685 12.978,12.000 12.976 C 12.162 12.975,12.308 12.949,12.387 12.908 C 12.566 12.814,13.027 12.377,14.610 10.803 L 16.000 9.420 16.000 10.332 C 16.000 11.158,16.007 11.258,16.078 11.397 C 16.233 11.700,16.546 11.931,16.871 11.983 C 17.241 12.042,17.736 11.760,17.917 11.387 C 17.998 11.219,18.000 11.162,18.000 9.037 C 18.000 7.641,17.984 6.806,17.958 6.709 C 17.906 6.523,17.718 6.303,17.482 6.153 L 17.304 6.040 15.062 6.044 C 13.829 6.046,12.762 6.062,12.691 6.079 M3.534 14.080 C 3.068 14.148,2.466 14.635,2.212 15.147 C 2.077 15.422,2.063 15.484,2.031 15.952 C 2.011 16.231,2.002 17.333,2.011 18.400 C 2.028 20.502,2.037 20.604,2.261 20.985 C 2.475 21.351,2.935 21.722,3.380 21.887 C 3.614 21.974,3.670 21.977,5.561 21.991 C 6.628 21.999,7.746 21.989,8.045 21.968 C 8.541 21.934,8.611 21.919,8.860 21.797 C 9.235 21.612,9.591 21.250,9.787 20.854 C 9.930 20.564,9.940 20.520,9.966 20.044 C 9.981 19.767,9.995 18.674,9.997 17.616 C 10.000 15.804,9.995 15.679,9.922 15.465 C 9.724 14.892,9.364 14.484,8.809 14.205 L 8.482 14.040 6.111 14.045 C 4.807 14.048,3.647 14.064,3.534 14.080 M8.000 18.000 L 8.000 20.000 6.000 20.000 L 4.000 20.000 4.000 18.000 L 4.000 16.000 6.000 16.000 L 8.000 16.000 8.000 18.000 " fill="#1A1C1F" stroke="none" fill-rule="evenodd"></path></svg>