<svg width="24" height="24" viewBox="0 0 24 24" fill="none" xmlns="http://www.w3.org/2000/svg"><path d="M15.203 3.123 C 14.625 3.237,13.941 3.583,13.407 4.032 C 12.965 4.404,12.453 5.153,12.252 5.723 L 12.140 6.040 9.360 6.044 C 7.831 6.046,5.680 6.060,4.580 6.074 L 2.580 6.100 2.450 6.193 C 2.262 6.327,2.082 6.609,2.032 6.850 C 1.996 7.021,2.000 7.101,2.053 7.281 C 2.129 7.542,2.354 7.824,2.558 7.913 C 2.731 7.988,4.262 8.028,7.520 8.042 C 8.697 8.047,10.217 8.062,10.899 8.075 L 12.137 8.100 12.187 8.200 C 12.214 8.255,12.318 8.477,12.418 8.694 C 12.517 8.911,12.678 9.199,12.775 9.334 C 12.978 9.617,13.454 10.087,13.727 10.272 C 13.988 10.450,14.571 10.738,14.877 10.840 C 15.234 10.959,16.010 11.017,16.534 10.964 C 17.828 10.833,19.070 9.932,19.637 8.714 C 19.723 8.530,19.814 8.306,19.841 8.216 L 19.889 8.052 20.535 8.027 C 20.890 8.013,21.249 7.982,21.333 7.958 C 21.533 7.901,21.783 7.646,21.909 7.371 C 22.026 7.115,22.018 6.871,21.884 6.608 C 21.653 6.154,21.500 6.088,20.588 6.049 L 19.915 6.020 19.764 5.640 C 19.535 5.062,19.312 4.715,18.883 4.266 C 18.320 3.678,17.587 3.272,16.840 3.137 C 16.508 3.077,15.483 3.068,15.203 3.123 M16.383 5.084 C 16.908 5.180,17.513 5.630,17.750 6.101 C 18.039 6.676,18.035 7.379,17.740 7.960 C 17.603 8.230,17.191 8.643,16.921 8.779 C 16.324 9.082,15.516 9.053,14.976 8.709 C 14.700 8.534,14.368 8.145,14.209 7.812 C 14.062 7.503,14.060 7.495,14.060 6.998 L 14.060 6.496 14.215 6.182 C 14.628 5.346,15.475 4.917,16.383 5.084 M7.540 13.044 C 7.003 13.091,6.362 13.342,5.780 13.732 C 5.381 13.999,4.881 14.534,4.627 14.966 C 4.425 15.309,4.160 15.892,4.160 15.992 C 4.160 16.015,3.871 16.038,3.450 16.048 C 2.664 16.067,2.552 16.094,2.323 16.323 C 2.148 16.498,2.001 16.817,2.001 17.020 C 2.001 17.372,2.374 17.867,2.706 17.956 C 2.824 17.988,3.820 18.075,4.105 18.079 C 4.130 18.080,4.192 18.183,4.242 18.310 C 4.516 18.999,4.800 19.438,5.245 19.860 C 5.588 20.186,5.883 20.389,6.289 20.580 C 8.428 21.586,10.976 20.577,11.765 18.411 L 11.900 18.041 15.660 18.037 C 17.728 18.034,19.843 18.021,20.360 18.006 C 21.267 17.981,21.305 17.977,21.440 17.884 C 21.843 17.606,21.927 17.461,21.928 17.037 C 21.930 16.656,21.858 16.496,21.583 16.262 L 21.392 16.100 19.746 16.075 C 18.841 16.061,16.703 16.047,14.995 16.045 L 11.891 16.040 11.765 15.689 C 11.511 14.978,11.019 14.316,10.389 13.838 C 9.761 13.361,9.101 13.094,8.463 13.057 C 8.263 13.046,8.046 13.032,7.980 13.026 C 7.914 13.020,7.716 13.028,7.540 13.044 M8.626 15.139 C 9.453 15.387,10.097 16.412,9.965 17.268 C 9.911 17.617,9.668 18.110,9.406 18.403 C 8.701 19.190,7.299 19.190,6.594 18.403 C 6.338 18.117,6.090 17.617,6.037 17.280 C 5.882 16.308,6.636 15.257,7.616 15.081 C 7.882 15.033,8.366 15.061,8.626 15.139 " fill="#1A1C1F" stroke="none" fill-rule="evenodd"></path></svg>