<svg width="20" height="20" viewBox="0 0 20 20" fill="none" xmlns="http://www.w3.org/2000/svg"><path d="M12.250 4.114 C 11.446 4.313,10.622 5.002,10.251 5.783 L 10.132 6.033 6.421 6.033 L 2.710 6.033 2.507 6.165 C 2.266 6.321,2.118 6.511,2.046 6.759 C 1.919 7.195,2.173 7.716,2.619 7.936 L 2.783 8.017 6.468 8.026 L 10.152 8.035 10.259 8.265 C 10.560 8.911,11.234 9.553,11.867 9.798 C 13.027 10.246,14.412 9.910,15.209 8.987 C 15.388 8.780,15.658 8.372,15.745 8.178 L 15.807 8.040 16.512 8.028 C 17.180 8.017,17.225 8.012,17.382 7.935 C 17.589 7.833,17.818 7.608,17.902 7.424 C 17.946 7.325,17.965 7.210,17.964 7.033 C 17.963 6.615,17.840 6.389,17.490 6.163 L 17.290 6.033 16.543 6.033 L 15.796 6.033 15.713 5.844 C 15.566 5.512,15.335 5.192,15.019 4.883 C 14.579 4.453,14.085 4.181,13.599 4.102 C 13.309 4.055,12.457 4.062,12.250 4.114 M13.423 6.154 C 13.735 6.303,13.903 6.576,13.927 6.976 C 13.941 7.215,13.934 7.250,13.836 7.449 C 13.714 7.697,13.559 7.840,13.307 7.934 C 12.721 8.153,12.057 7.756,12.009 7.157 C 12.000 7.042,12.010 6.862,12.032 6.757 C 12.153 6.174,12.840 5.876,13.423 6.154 M6.267 10.116 C 5.990 10.178,5.447 10.446,5.164 10.661 C 4.804 10.934,4.520 11.297,4.279 11.792 L 4.162 12.033 3.434 12.033 L 2.706 12.033 2.495 12.175 C 2.241 12.345,2.086 12.562,2.032 12.822 C 1.961 13.167,2.056 13.454,2.333 13.727 C 2.582 13.972,2.699 14.001,3.519 14.024 L 4.189 14.043 4.294 14.269 C 4.497 14.705,4.907 15.177,5.333 15.466 C 5.590 15.640,5.735 15.710,6.129 15.847 C 6.468 15.965,6.481 15.967,7.000 15.967 C 7.518 15.967,7.532 15.965,7.872 15.847 C 8.061 15.781,8.314 15.676,8.433 15.614 C 8.921 15.359,9.568 14.656,9.747 14.188 L 9.806 14.033 13.471 14.033 C 17.134 14.033,17.136 14.033,17.274 13.963 C 17.454 13.871,17.757 13.583,17.836 13.428 C 17.933 13.239,17.950 12.982,17.884 12.744 C 17.814 12.495,17.683 12.331,17.422 12.162 L 17.223 12.033 13.530 12.033 L 9.838 12.033 9.686 11.723 C 9.496 11.335,9.155 10.908,8.850 10.676 C 8.582 10.472,8.134 10.232,7.867 10.150 C 7.608 10.070,6.571 10.048,6.267 10.116 M7.359 12.072 C 7.508 12.118,7.814 12.405,7.898 12.578 C 7.998 12.786,7.993 13.158,7.887 13.387 C 7.732 13.719,7.435 13.930,7.082 13.959 C 6.659 13.992,6.339 13.814,6.133 13.428 C 6.038 13.250,6.020 13.182,6.020 13.000 C 6.020 12.641,6.237 12.273,6.542 12.111 C 6.730 12.011,7.101 11.993,7.359 12.072 " fill="#1A1C1F" stroke="none" fill-rule="evenodd"></path></svg>