<svg width="32" height="32" viewBox="0 0 32 32" fill="none" xmlns="http://www.w3.org/2000/svg"><path d="M8.827 3.217 C 7.593 3.630,6.611 4.566,6.239 5.682 L 6.130 6.009 4.367 6.045 C 2.718 6.078,2.594 6.087,2.453 6.187 C 2.269 6.318,2.027 6.788,2.027 7.013 C 2.027 7.249,2.267 7.701,2.479 7.862 L 2.660 8.000 4.388 8.000 L 6.116 8.000 6.183 8.227 C 6.367 8.847,6.905 9.611,7.511 10.112 C 8.249 10.721,8.970 10.959,10.080 10.960 C 10.674 10.960,10.799 10.943,11.223 10.804 C 11.824 10.607,12.339 10.266,12.859 9.722 C 13.305 9.255,13.584 8.826,13.761 8.333 L 13.881 8.000 21.611 8.000 L 29.340 8.000 29.521 7.862 C 29.733 7.701,29.973 7.249,29.973 7.013 C 29.973 6.789,29.731 6.318,29.549 6.188 C 29.402 6.084,29.267 6.081,21.635 6.046 L 13.869 6.009 13.781 5.738 C 13.641 5.310,13.469 5.004,13.132 4.580 C 12.645 3.966,12.294 3.704,11.455 3.327 L 11.013 3.129 10.107 3.110 C 9.270 3.093,9.171 3.102,8.827 3.217 M10.837 5.238 C 11.208 5.409,11.571 5.762,11.767 6.142 C 11.889 6.380,11.917 6.512,11.936 6.942 C 11.957 7.409,11.946 7.485,11.822 7.757 C 11.643 8.146,11.156 8.655,10.790 8.834 C 10.541 8.956,10.435 8.975,10.000 8.975 C 9.358 8.975,9.057 8.841,8.602 8.354 C 8.135 7.855,8.080 7.715,8.080 7.013 C 8.080 6.497,8.096 6.396,8.210 6.173 C 8.431 5.740,8.921 5.296,9.360 5.130 C 9.450 5.096,9.741 5.075,10.027 5.083 C 10.441 5.095,10.588 5.123,10.837 5.238 M21.273 12.107 C 20.804 12.181,20.327 12.360,19.912 12.618 C 19.148 13.091,18.710 13.597,18.266 14.515 L 18.020 15.024 10.352 15.052 C 1.908 15.082,2.522 15.054,2.224 15.425 C 1.900 15.827,2.023 16.528,2.478 16.875 L 2.660 17.013 10.360 17.013 L 18.061 17.013 18.149 17.293 C 18.260 17.646,18.691 18.350,19.018 18.714 C 19.468 19.214,20.123 19.619,20.855 19.848 C 21.188 19.952,21.367 19.972,21.947 19.971 C 22.586 19.970,22.679 19.956,23.132 19.800 C 23.954 19.516,24.650 19.031,25.104 18.428 C 25.357 18.091,25.647 17.552,25.757 17.213 L 25.822 17.013 27.542 17.013 L 29.262 17.013 29.507 16.851 C 29.949 16.558,30.090 16.038,29.853 15.574 C 29.654 15.184,29.533 15.129,28.785 15.086 C 28.427 15.066,27.615 15.047,26.980 15.044 L 25.828 15.040 25.709 14.707 C 25.556 14.277,25.245 13.753,24.936 13.404 C 24.461 12.867,23.665 12.370,22.979 12.182 C 22.625 12.085,21.675 12.043,21.273 12.107 M22.836 14.281 C 23.508 14.612,23.847 15.161,23.884 15.981 C 23.905 16.446,23.897 16.486,23.731 16.823 C 23.226 17.849,22.063 18.283,21.085 17.810 C 20.785 17.664,20.326 17.200,20.160 16.874 C 20.041 16.640,20.027 16.549,20.027 15.995 C 20.027 15.378,20.027 15.377,20.220 15.062 C 20.439 14.706,20.924 14.282,21.249 14.163 C 21.396 14.109,21.631 14.087,21.975 14.095 C 22.428 14.105,22.521 14.125,22.836 14.281 M9.208 21.099 C 8.289 21.299,7.595 21.720,6.943 22.472 C 6.621 22.845,6.346 23.314,6.218 23.711 L 6.130 23.983 4.492 24.017 C 3.591 24.036,2.771 24.075,2.671 24.104 C 2.447 24.170,2.261 24.339,2.128 24.598 C 1.895 25.052,2.103 25.647,2.587 25.911 C 2.723 25.985,2.998 26.001,4.455 26.017 L 6.164 26.036 6.286 26.388 C 6.502 27.005,6.978 27.623,7.644 28.152 C 8.042 28.467,8.378 28.642,8.908 28.808 C 9.241 28.913,9.421 28.933,10.000 28.933 C 10.801 28.933,11.195 28.837,11.920 28.464 C 12.725 28.050,13.534 27.093,13.811 26.227 L 13.875 26.027 20.604 26.024 C 27.809 26.021,29.296 25.992,29.515 25.848 C 30.041 25.504,30.126 24.752,29.687 24.327 C 29.541 24.186,29.441 24.144,29.141 24.097 C 28.903 24.061,26.153 24.029,21.345 24.007 L 13.916 23.973 13.742 23.542 C 13.293 22.427,12.176 21.432,11.067 21.157 C 10.571 21.034,9.642 21.005,9.208 21.099 M10.443 23.067 C 10.627 23.111,10.853 23.185,10.944 23.232 C 11.192 23.360,11.603 23.765,11.772 24.046 C 11.914 24.283,11.920 24.323,11.920 24.987 C 11.920 25.653,11.914 25.690,11.769 25.932 C 10.927 27.338,8.972 27.280,8.257 25.827 C 8.101 25.512,8.084 25.431,8.087 25.018 C 8.094 24.031,8.657 23.289,9.560 23.075 C 9.990 22.973,10.041 22.973,10.443 23.067 " fill="#1A1C1F" stroke="none" fill-rule="evenodd"></path></svg>