<svg width="12" height="12" viewBox="0 0 12 12" fill="none" xmlns="http://www.w3.org/2000/svg"><path d="M7.350 2.470 C 6.826 2.611,6.345 3.021,6.128 3.512 L 6.081 3.620 3.853 3.620 L 1.625 3.620 1.503 3.701 C 1.376 3.786,1.277 3.895,1.238 3.992 C 1.199 4.092,1.210 4.319,1.260 4.435 C 1.310 4.552,1.468 4.712,1.596 4.778 C 1.678 4.820,1.679 4.820,3.887 4.820 L 6.096 4.820 6.129 4.905 C 6.241 5.188,6.568 5.564,6.860 5.745 C 7.196 5.953,7.686 6.047,8.071 5.979 C 8.474 5.908,8.886 5.676,9.137 5.380 C 9.232 5.269,9.418 4.981,9.458 4.884 L 9.483 4.824 9.907 4.817 C 10.308 4.810,10.335 4.807,10.430 4.761 C 10.570 4.692,10.706 4.550,10.747 4.431 C 10.788 4.309,10.790 4.112,10.750 3.999 C 10.706 3.874,10.631 3.786,10.494 3.698 L 10.374 3.620 9.928 3.620 L 9.482 3.620 9.401 3.457 C 9.287 3.230,9.169 3.071,8.984 2.898 C 8.742 2.672,8.425 2.504,8.160 2.461 C 7.975 2.431,7.472 2.437,7.350 2.470 M8.029 3.674 C 8.156 3.739,8.239 3.824,8.301 3.950 C 8.359 4.067,8.364 4.091,8.356 4.234 C 8.347 4.418,8.307 4.514,8.189 4.632 C 7.966 4.855,7.585 4.850,7.363 4.621 C 7.208 4.461,7.167 4.294,7.222 4.040 C 7.262 3.854,7.442 3.682,7.641 3.641 C 7.755 3.617,7.950 3.634,8.029 3.674 M3.728 6.078 C 3.225 6.215,2.769 6.612,2.551 7.105 L 2.501 7.220 2.062 7.220 L 1.624 7.220 1.497 7.305 C 1.345 7.407,1.252 7.537,1.219 7.693 C 1.176 7.900,1.233 8.069,1.400 8.235 C 1.549 8.383,1.618 8.401,2.111 8.414 L 2.512 8.426 2.584 8.578 C 2.674 8.766,2.885 9.031,3.067 9.184 C 3.220 9.312,3.492 9.453,3.720 9.523 C 3.853 9.563,3.909 9.568,4.220 9.567 C 4.562 9.566,4.574 9.564,4.750 9.501 C 5.178 9.348,5.466 9.125,5.712 8.757 C 5.761 8.683,5.820 8.578,5.843 8.522 L 5.885 8.420 8.089 8.420 L 10.292 8.420 10.411 8.350 C 10.637 8.216,10.746 8.041,10.748 7.810 C 10.750 7.576,10.646 7.404,10.428 7.279 L 10.325 7.220 8.113 7.220 L 5.901 7.220 5.821 7.051 C 5.639 6.671,5.362 6.392,4.970 6.195 C 4.726 6.072,4.648 6.057,4.240 6.048 C 3.920 6.041,3.851 6.045,3.728 6.078 M4.538 7.315 C 4.693 7.422,4.764 7.556,4.776 7.761 C 4.784 7.895,4.778 7.930,4.736 8.023 C 4.669 8.168,4.603 8.241,4.477 8.311 C 4.382 8.363,4.351 8.370,4.200 8.370 C 4.049 8.370,4.018 8.363,3.923 8.311 C 3.576 8.118,3.508 7.653,3.788 7.374 C 3.926 7.235,4.058 7.197,4.300 7.225 C 4.404 7.237,4.452 7.255,4.538 7.315 " fill="#1A1C1F" stroke="none" fill-rule="evenodd"></path></svg>