<svg width="14" height="14" viewBox="0 0 14 14" fill="none" xmlns="http://www.w3.org/2000/svg"><path d="M8.575 2.880 C 8.016 3.018,7.455 3.483,7.184 4.031 L 7.088 4.223 4.492 4.223 L 1.895 4.223 1.754 4.318 C 1.430 4.534,1.329 4.846,1.474 5.185 C 1.528 5.310,1.718 5.501,1.862 5.574 C 1.958 5.623,1.959 5.623,4.532 5.623 L 7.106 5.623 7.181 5.785 C 7.337 6.119,7.712 6.535,8.026 6.721 C 8.701 7.121,9.574 7.087,10.260 6.633 C 10.528 6.457,10.885 6.030,11.022 5.725 L 11.065 5.628 11.558 5.620 C 12.026 5.612,12.058 5.609,12.168 5.554 C 12.312 5.483,12.472 5.326,12.531 5.197 C 12.562 5.127,12.575 5.047,12.575 4.923 C 12.574 4.631,12.488 4.472,12.243 4.314 L 12.103 4.223 11.580 4.223 L 11.057 4.223 10.998 4.089 C 10.847 3.746,10.471 3.312,10.167 3.131 C 9.963 3.009,9.686 2.898,9.520 2.871 C 9.315 2.839,8.720 2.844,8.575 2.880 M9.425 4.324 C 9.735 4.514,9.844 4.897,9.682 5.223 C 9.433 5.721,8.733 5.725,8.476 5.229 C 8.414 5.110,8.400 5.056,8.400 4.939 C 8.400 4.756,8.434 4.635,8.519 4.511 C 8.716 4.226,9.125 4.141,9.425 4.324 M4.346 7.092 C 4.130 7.150,3.764 7.340,3.575 7.492 C 3.377 7.650,3.148 7.945,3.020 8.207 L 2.914 8.423 2.404 8.423 L 1.894 8.423 1.746 8.523 C 1.569 8.641,1.460 8.793,1.423 8.976 C 1.372 9.217,1.439 9.418,1.633 9.609 C 1.808 9.781,1.889 9.801,2.467 9.817 L 2.939 9.830 2.979 9.935 C 3.064 10.157,3.330 10.496,3.599 10.725 C 3.780 10.879,3.976 10.984,4.293 11.095 L 4.538 11.181 4.936 11.169 C 5.314 11.157,5.344 11.152,5.560 11.075 C 5.684 11.031,5.852 10.958,5.932 10.912 C 6.271 10.721,6.617 10.354,6.785 10.004 L 6.872 9.824 9.433 9.824 C 11.994 9.823,11.995 9.823,12.092 9.774 C 12.218 9.710,12.430 9.508,12.485 9.399 C 12.553 9.267,12.565 9.088,12.519 8.921 C 12.470 8.747,12.378 8.632,12.195 8.513 L 12.056 8.423 9.471 8.423 L 6.886 8.423 6.780 8.206 C 6.575 7.787,6.257 7.465,5.833 7.247 C 5.517 7.084,5.436 7.066,4.947 7.056 C 4.571 7.047,4.493 7.052,4.346 7.092 M5.138 8.450 C 5.249 8.477,5.465 8.674,5.528 8.805 C 5.594 8.940,5.595 9.210,5.530 9.353 C 5.416 9.603,5.215 9.750,4.960 9.771 C 4.661 9.795,4.438 9.670,4.293 9.399 C 4.189 9.204,4.182 9.012,4.273 8.820 C 4.436 8.474,4.731 8.348,5.138 8.450 " fill="#1A1C1F" stroke="none" fill-rule="evenodd"></path></svg>