<svg width="28" height="28" viewBox="0 0 28 28" fill="none" xmlns="http://www.w3.org/2000/svg"><path d="M7.675 2.833 C 6.641 3.192,5.735 4.074,5.441 5.009 L 5.363 5.258 3.820 5.289 C 2.378 5.318,2.269 5.326,2.146 5.414 C 1.985 5.528,1.773 5.939,1.773 6.137 C 1.773 6.343,1.984 6.738,2.169 6.880 L 2.327 7.000 3.839 7.000 L 5.352 7.000 5.410 7.198 C 5.570 7.738,6.042 8.410,6.564 8.841 C 7.233 9.393,7.808 9.585,8.797 9.587 C 9.409 9.588,9.475 9.580,9.852 9.445 C 10.377 9.258,10.829 8.953,11.263 8.492 C 11.659 8.071,11.887 7.719,12.041 7.292 L 12.146 7.000 18.909 7.000 L 25.673 7.000 25.831 6.880 C 26.016 6.739,26.227 6.343,26.226 6.139 C 26.226 5.933,26.027 5.537,25.867 5.423 L 25.729 5.325 18.933 5.292 L 12.136 5.258 12.058 5.021 C 11.936 4.646,11.785 4.378,11.491 4.007 C 11.064 3.470,10.757 3.241,10.023 2.911 L 9.637 2.738 8.843 2.720 C 8.074 2.704,8.039 2.707,7.675 2.833 M9.483 4.583 C 9.807 4.733,10.125 5.042,10.296 5.374 C 10.403 5.582,10.428 5.698,10.444 6.074 C 10.462 6.483,10.453 6.550,10.344 6.787 C 10.187 7.130,9.762 7.573,9.437 7.732 C 9.216 7.840,9.123 7.857,8.750 7.857 C 8.377 7.857,8.284 7.840,8.063 7.732 C 7.739 7.573,7.313 7.130,7.157 6.790 C 7.050 6.556,7.040 6.483,7.054 6.076 C 7.073 5.551,7.167 5.314,7.495 4.972 C 7.905 4.545,8.181 4.431,8.773 4.448 C 9.136 4.458,9.265 4.483,9.483 4.583 M18.760 10.576 C 18.169 10.663,17.820 10.790,17.348 11.091 C 16.726 11.488,16.362 11.917,15.983 12.701 L 15.767 13.147 9.059 13.170 C 1.667 13.196,2.208 13.171,1.946 13.496 C 1.663 13.849,1.770 14.462,2.168 14.765 L 2.327 14.887 9.065 14.887 L 15.803 14.887 15.880 15.132 C 15.977 15.440,16.355 16.056,16.641 16.374 C 17.035 16.813,17.607 17.166,18.247 17.365 C 18.541 17.457,18.696 17.474,19.227 17.473 C 19.810 17.472,19.887 17.462,20.266 17.328 C 20.922 17.097,21.447 16.734,21.903 16.198 C 22.122 15.940,22.438 15.375,22.538 15.062 L 22.594 14.887 24.098 14.887 L 25.601 14.887 25.788 14.766 C 26.197 14.500,26.335 14.034,26.125 13.629 C 25.945 13.286,25.841 13.238,25.187 13.200 C 24.873 13.182,24.162 13.166,23.605 13.164 L 22.594 13.160 22.515 12.915 C 22.167 11.836,21.002 10.812,19.897 10.615 C 19.556 10.555,19.033 10.537,18.760 10.576 M19.458 12.323 C 20.030 12.416,20.525 12.780,20.771 13.290 C 20.851 13.457,20.882 13.618,20.897 13.960 C 20.916 14.394,20.911 14.422,20.765 14.720 C 20.323 15.618,19.305 15.997,18.450 15.583 C 18.187 15.456,17.786 15.050,17.640 14.765 C 17.536 14.561,17.523 14.480,17.523 14.000 C 17.523 13.499,17.532 13.449,17.651 13.246 C 17.915 12.796,18.232 12.526,18.682 12.364 C 18.964 12.262,19.053 12.257,19.458 12.323 M7.906 18.498 C 7.457 18.617,7.203 18.729,6.860 18.961 C 6.195 19.410,5.651 20.094,5.441 20.748 L 5.364 20.985 3.930 21.015 C 3.142 21.031,2.425 21.065,2.338 21.091 C 2.141 21.149,1.978 21.297,1.862 21.523 C 1.658 21.920,1.840 22.441,2.263 22.672 C 2.383 22.737,2.623 22.751,3.898 22.765 L 5.393 22.782 5.501 23.089 C 5.635 23.474,5.835 23.789,6.185 24.167 C 6.687 24.709,7.139 25.001,7.795 25.207 C 8.086 25.299,8.244 25.317,8.750 25.317 C 9.451 25.317,9.795 25.232,10.430 24.906 C 11.134 24.543,11.842 23.706,12.084 22.949 L 12.140 22.774 18.876 22.762 L 25.612 22.750 25.814 22.609 C 26.185 22.352,26.324 21.886,26.138 21.523 C 25.996 21.247,25.848 21.138,25.543 21.088 C 25.381 21.061,22.608 21.032,18.730 21.016 L 12.189 20.989 12.059 20.679 C 11.857 20.202,11.640 19.858,11.331 19.528 C 10.988 19.161,10.722 18.962,10.276 18.738 C 9.872 18.535,9.484 18.449,8.820 18.412 C 8.396 18.389,8.273 18.401,7.906 18.498 M9.410 20.260 C 9.707 20.371,10.111 20.724,10.298 21.036 C 10.425 21.248,10.430 21.281,10.430 21.863 C 10.430 22.444,10.424 22.479,10.300 22.687 C 10.120 22.988,9.754 23.317,9.437 23.463 C 9.054 23.639,8.492 23.639,8.110 23.463 C 7.762 23.303,7.422 22.980,7.240 22.638 C 7.102 22.380,7.093 22.334,7.093 21.867 C 7.093 21.426,7.107 21.344,7.213 21.134 C 7.640 20.291,8.538 19.934,9.410 20.260 " fill="#1A1C1F" stroke="none" fill-rule="evenodd"></path></svg>