<svg width="16" height="16" viewBox="0 0 16 16" fill="none" xmlns="http://www.w3.org/2000/svg"><path d="M9.790 3.295 C 9.131 3.473,8.516 3.983,8.212 4.606 L 8.104 4.827 5.136 4.827 L 2.168 4.827 2.005 4.932 C 1.641 5.167,1.518 5.542,1.682 5.915 C 1.758 6.090,1.871 6.217,2.043 6.320 L 2.198 6.413 5.162 6.421 L 8.127 6.428 8.183 6.563 C 8.312 6.874,8.666 7.310,8.984 7.551 C 9.340 7.820,9.766 7.967,10.267 7.991 C 10.632 8.009,10.887 7.969,11.243 7.835 C 11.795 7.628,12.292 7.159,12.577 6.578 L 12.649 6.432 13.211 6.423 C 13.853 6.412,13.918 6.394,14.148 6.170 C 14.318 6.006,14.372 5.873,14.372 5.627 C 14.371 5.292,14.272 5.111,13.992 4.930 L 13.832 4.827 13.238 4.827 L 12.643 4.827 12.535 4.610 C 12.383 4.306,12.225 4.095,11.979 3.865 C 11.656 3.563,11.233 3.338,10.880 3.282 C 10.625 3.241,9.963 3.249,9.790 3.295 M10.739 4.923 C 10.888 4.994,10.981 5.089,11.075 5.264 C 11.123 5.354,11.133 5.417,11.133 5.627 C 11.133 5.855,11.126 5.892,11.060 6.005 C 10.845 6.371,10.389 6.499,10.005 6.302 C 9.838 6.217,9.680 6.034,9.630 5.868 C 9.588 5.729,9.592 5.502,9.639 5.345 C 9.767 4.916,10.297 4.713,10.739 4.923 M5.013 8.092 C 4.333 8.270,3.766 8.737,3.451 9.380 L 3.330 9.627 2.749 9.627 L 2.168 9.627 2.011 9.729 C 1.740 9.904,1.612 10.129,1.615 10.427 C 1.618 10.652,1.691 10.815,1.866 10.986 C 2.061 11.176,2.164 11.201,2.815 11.219 L 3.350 11.234 3.446 11.437 C 3.563 11.685,3.847 12.041,4.091 12.246 C 4.288 12.411,4.650 12.601,4.947 12.694 C 5.109 12.745,5.194 12.753,5.600 12.753 C 6.051 12.753,6.075 12.750,6.320 12.670 C 6.794 12.514,7.171 12.251,7.482 11.858 C 7.577 11.738,7.699 11.547,7.754 11.434 L 7.853 11.227 10.787 11.227 L 13.720 11.226 13.855 11.149 C 13.929 11.106,14.057 10.999,14.140 10.910 C 14.264 10.775,14.295 10.723,14.321 10.597 C 14.370 10.360,14.313 10.095,14.178 9.931 C 14.133 9.877,14.025 9.786,13.937 9.729 L 13.778 9.627 10.821 9.627 L 7.864 9.627 7.785 9.449 C 7.510 8.838,6.919 8.311,6.293 8.120 C 6.086 8.057,5.221 8.038,5.013 8.092 M6.043 9.747 C 6.165 9.831,6.217 9.889,6.286 10.022 C 6.362 10.169,6.373 10.218,6.373 10.390 C 6.373 10.604,6.330 10.724,6.185 10.908 C 5.945 11.213,5.403 11.259,5.100 11.000 C 4.937 10.860,4.817 10.601,4.817 10.391 C 4.817 10.107,4.992 9.818,5.247 9.680 C 5.331 9.635,5.388 9.628,5.618 9.633 C 5.886 9.640,5.890 9.641,6.043 9.747 " fill="#1A1C1F" stroke="none" fill-rule="evenodd"></path></svg>