<svg width="16" height="16" viewBox="0 0 16 16" fill="none" xmlns="http://www.w3.org/2000/svg"><path d="M6.489 1.655 C 6.235 1.680,5.797 1.780,5.440 1.897 C 4.042 2.352,2.839 3.400,2.185 4.733 C 1.928 5.258,1.767 5.758,1.663 6.361 C 1.598 6.732,1.598 7.667,1.662 8.040 C 1.842 9.081,2.271 10.023,2.917 10.793 C 4.089 12.189,5.824 12.915,7.653 12.775 C 8.544 12.707,9.490 12.384,10.289 11.874 L 10.565 11.699 11.569 12.697 C 12.951 14.071,13.151 14.260,13.293 14.323 C 13.448 14.391,13.757 14.396,13.915 14.332 C 14.073 14.269,14.302 14.014,14.348 13.850 C 14.397 13.674,14.392 13.394,14.338 13.289 C 14.283 13.182,13.822 12.699,12.645 11.516 L 11.699 10.566 11.865 10.303 C 12.269 9.662,12.597 8.822,12.721 8.109 C 13.023 6.377,12.385 4.429,11.116 3.210 C 10.364 2.488,9.390 1.963,8.373 1.732 C 8.012 1.649,6.981 1.607,6.489 1.655 M7.823 3.281 C 8.275 3.333,8.958 3.598,9.425 3.904 C 10.094 4.342,10.683 5.101,10.959 5.880 C 11.121 6.338,11.175 6.674,11.175 7.207 C 11.174 7.790,11.073 8.281,10.848 8.795 C 10.448 9.708,9.643 10.503,8.730 10.884 C 8.147 11.128,7.505 11.223,6.797 11.173 C 6.202 11.130,5.513 10.879,4.947 10.498 C 4.728 10.351,4.189 9.820,3.997 9.563 C 3.668 9.122,3.345 8.353,3.278 7.850 C 3.257 7.695,3.251 7.415,3.261 7.040 C 3.274 6.536,3.284 6.435,3.345 6.203 C 3.646 5.066,4.419 4.128,5.480 3.612 C 5.765 3.474,6.149 3.345,6.426 3.294 C 6.668 3.251,7.490 3.243,7.823 3.281 M6.400 5.600 L 6.400 6.400 5.600 6.400 L 4.800 6.400 4.800 7.200 L 4.800 8.000 5.600 8.000 L 6.400 8.000 6.400 8.800 L 6.400 9.600 6.836 9.600 C 7.075 9.600,7.435 9.608,7.636 9.617 L 8.000 9.635 8.000 8.817 L 8.000 8.000 8.800 8.000 L 9.600 8.000 9.600 7.200 L 9.600 6.400 8.800 6.400 L 8.000 6.400 8.000 5.600 L 8.000 4.800 7.200 4.800 L 6.400 4.800 6.400 5.600 " fill="#1A1C1F" stroke="none" fill-rule="evenodd"></path></svg>