<svg width="24" height="24" viewBox="0 0 24 24" fill="none" xmlns="http://www.w3.org/2000/svg"><path d="M9.420 2.047 C 8.187 2.117,6.716 2.613,5.640 3.321 C 3.845 4.502,2.659 6.228,2.178 8.360 C 2.043 8.959,1.988 9.816,2.036 10.569 C 2.135 12.101,2.721 13.651,3.674 14.900 C 3.932 15.238,4.644 15.964,5.000 16.251 C 6.239 17.252,7.881 17.903,9.410 18.000 C 11.279 18.119,12.921 17.678,14.540 16.623 L 14.940 16.363 17.000 18.415 C 18.133 19.544,19.390 20.785,19.792 21.173 C 20.467 21.823,20.543 21.884,20.752 21.946 C 21.373 22.127,21.969 21.667,21.973 21.004 C 21.974 20.824,21.952 20.696,21.902 20.602 C 21.820 20.445,21.001 19.601,18.269 16.858 L 16.355 14.935 16.613 14.558 C 17.228 13.654,17.690 12.530,17.900 11.429 C 18.106 10.346,18.041 8.985,17.732 7.880 C 17.270 6.228,16.351 4.857,14.965 3.751 C 13.409 2.510,11.515 1.928,9.420 2.047 M10.640 4.080 C 12.038 4.182,13.288 4.793,14.345 5.890 C 15.312 6.894,15.842 8.053,15.962 9.425 C 16.020 10.086,15.990 10.761,15.881 11.250 C 15.301 13.860,13.243 15.699,10.561 16.003 C 9.310 16.145,7.693 15.730,6.685 15.008 C 5.290 14.011,4.473 12.779,4.132 11.160 C 4.029 10.674,4.030 9.323,4.132 8.840 C 4.358 7.782,4.850 6.793,5.512 6.068 C 6.123 5.398,6.612 5.015,7.302 4.669 C 8.380 4.128,9.232 3.977,10.640 4.080 M6.684 9.067 C 6.585 9.081,6.485 9.149,6.318 9.315 C 6.124 9.510,6.082 9.579,6.038 9.773 C 5.933 10.244,6.148 10.677,6.608 10.921 C 6.752 10.998,6.852 11.000,10.008 11.000 L 13.260 10.999 13.465 10.882 C 14.162 10.482,14.194 9.562,13.524 9.168 L 13.340 9.060 10.080 9.054 C 8.287 9.051,6.759 9.057,6.684 9.067 " fill="#1A1C1F" stroke="none" fill-rule="evenodd"></path></svg>