<svg width="28" height="28" viewBox="0 0 28 28" fill="none" xmlns="http://www.w3.org/2000/svg"><path d="M9.567 1.803 C 7.886 2.014,6.205 2.730,4.923 3.781 C 4.494 4.132,3.821 4.836,3.495 5.273 C 2.759 6.263,2.240 7.407,1.927 8.737 C 1.809 9.238,1.803 9.323,1.804 10.500 C 1.804 11.822,1.820 11.949,2.084 12.857 C 2.758 15.169,4.264 17.053,6.347 18.190 C 7.018 18.557,8.110 18.943,9.030 19.140 C 9.220 19.181,9.707 19.199,10.547 19.197 L 11.783 19.194 12.420 19.026 C 13.606 18.714,14.488 18.327,15.437 17.705 C 15.726 17.515,15.985 17.360,16.011 17.360 C 16.076 17.360,16.889 18.154,21.118 22.353 C 23.122 24.343,24.849 26.031,24.957 26.105 C 25.194 26.267,25.418 26.279,25.721 26.145 C 26.031 26.008,26.185 25.782,26.214 25.421 C 26.237 25.137,26.233 25.123,26.054 24.896 C 25.952 24.768,24.244 23.025,22.256 21.022 C 18.105 16.838,17.360 16.076,17.360 16.010 C 17.360 15.984,17.515 15.726,17.705 15.437 C 18.327 14.489,18.713 13.607,19.027 12.420 L 19.195 11.783 19.195 10.523 C 19.196 9.103,19.162 8.864,18.799 7.770 C 18.180 5.904,16.913 4.255,15.276 3.188 C 14.469 2.662,13.287 2.162,12.434 1.986 C 11.819 1.859,10.027 1.745,9.567 1.803 M11.713 3.641 C 12.406 3.754,12.864 3.904,13.557 4.247 C 14.253 4.590,14.827 5.002,15.394 5.564 C 16.477 6.637,17.112 7.855,17.368 9.353 C 17.450 9.833,17.460 10.042,17.439 10.757 C 17.424 11.252,17.384 11.731,17.341 11.923 C 17.055 13.206,16.437 14.347,15.511 15.306 C 14.926 15.912,14.600 16.179,14.035 16.517 C 11.643 17.949,8.501 17.771,6.323 16.080 C 4.956 15.018,4.019 13.548,3.657 11.898 C 3.533 11.332,3.533 9.717,3.657 9.147 C 4.130 6.968,5.381 5.319,7.338 4.294 C 8.676 3.593,10.108 3.379,11.713 3.641 M10.061 6.266 C 9.649 6.501,9.623 6.628,9.617 8.388 L 9.613 9.613 8.668 9.616 C 7.383 9.620,6.663 9.672,6.512 9.771 C 5.990 10.113,6.031 10.929,6.587 11.247 C 6.789 11.363,6.797 11.363,8.199 11.379 L 9.608 11.395 9.623 12.830 L 9.637 14.265 9.766 14.451 C 10.137 14.986,10.863 14.986,11.234 14.451 L 11.363 14.265 11.379 12.831 L 11.396 11.397 12.779 11.377 C 13.920 11.361,14.194 11.345,14.335 11.283 C 14.530 11.197,14.770 10.895,14.838 10.649 C 14.941 10.278,14.664 9.789,14.303 9.703 C 14.201 9.679,13.504 9.645,12.756 9.629 L 11.395 9.599 11.379 8.194 C 11.360 6.535,11.354 6.506,10.923 6.288 C 10.605 6.127,10.317 6.120,10.061 6.266 " fill="#1A1C1F" stroke="none" fill-rule="evenodd"></path></svg>