<svg width="24" height="24" viewBox="0 0 24 24" fill="none" xmlns="http://www.w3.org/2000/svg"><path d="M9.376 2.042 C 8.213 2.130,6.992 2.520,5.942 3.138 C 3.019 4.858,1.495 8.265,2.167 11.580 C 2.731 14.368,4.783 16.683,7.480 17.575 C 9.866 18.365,12.218 18.056,14.440 16.663 C 14.671 16.519,14.889 16.400,14.925 16.400 C 14.960 16.400,16.211 17.608,17.705 19.085 C 19.198 20.562,20.489 21.816,20.573 21.873 C 20.697 21.955,20.774 21.975,20.973 21.974 C 21.412 21.973,21.798 21.697,21.939 21.285 C 22.015 21.061,22.015 20.958,21.940 20.658 L 21.880 20.420 19.115 17.680 L 16.350 14.940 16.638 14.500 C 17.230 13.596,17.657 12.579,17.860 11.591 C 18.150 10.172,18.073 8.905,17.609 7.500 C 17.402 6.872,17.014 6.070,16.671 5.560 C 16.196 4.854,15.205 3.872,14.480 3.390 C 12.957 2.378,11.169 1.906,9.376 2.042 M10.775 4.085 C 11.647 4.174,12.507 4.480,13.228 4.957 C 14.678 5.918,15.585 7.241,15.905 8.861 C 15.991 9.299,16.002 10.535,15.924 11.014 C 15.765 11.991,15.234 13.115,14.580 13.860 C 13.610 14.965,12.581 15.577,11.174 15.887 C 10.595 16.014,9.438 16.014,8.840 15.885 C 7.588 15.617,6.707 15.138,5.805 14.236 C 5.104 13.535,4.659 12.832,4.344 11.926 C 4.109 11.250,4.063 10.931,4.062 9.980 C 4.061 9.037,4.100 8.776,4.344 8.073 C 4.707 7.030,5.310 6.144,6.124 5.455 C 7.007 4.707,7.895 4.298,9.100 4.082 C 9.563 3.999,9.940 4.000,10.775 4.085 M9.760 6.035 C 9.444 6.138,9.116 6.445,9.043 6.706 C 9.018 6.798,9.000 7.293,9.000 7.930 L 9.000 9.000 8.350 9.004 C 7.993 9.006,7.463 9.019,7.173 9.034 C 6.671 9.060,6.636 9.067,6.474 9.182 C 6.380 9.248,6.242 9.382,6.168 9.479 C 6.034 9.654,6.033 9.658,6.046 10.024 C 6.059 10.359,6.071 10.409,6.181 10.566 C 6.248 10.661,6.390 10.792,6.496 10.858 L 6.690 10.978 7.841 10.994 L 8.992 11.009 9.008 12.135 C 9.021 13.037,9.036 13.288,9.086 13.400 C 9.161 13.570,9.437 13.826,9.634 13.908 C 9.842 13.995,10.236 13.984,10.426 13.886 C 10.632 13.780,10.871 13.527,10.926 13.358 C 10.952 13.277,10.978 12.759,10.989 12.114 L 11.009 11.008 12.158 10.994 L 13.306 10.980 13.503 10.859 C 13.735 10.715,13.938 10.409,13.978 10.138 C 14.032 9.778,13.789 9.300,13.467 9.133 C 13.325 9.060,12.559 9.006,11.594 9.002 L 11.008 9.000 10.993 7.850 C 10.976 6.596,10.969 6.556,10.726 6.330 C 10.479 6.100,10.005 5.956,9.760 6.035 " fill="#1A1C1F" stroke="none" fill-rule="evenodd"></path></svg>