<svg width="16" height="16" viewBox="0 0 16 16" fill="none" xmlns="http://www.w3.org/2000/svg"><path d="M6.372 1.666 C 4.391 1.989,2.749 3.286,2.013 5.108 C 1.237 7.030,1.587 9.201,2.930 10.804 C 3.436 11.408,4.130 11.939,4.848 12.272 C 5.154 12.414,5.785 12.621,6.129 12.692 C 6.745 12.818,7.683 12.813,8.313 12.680 C 8.997 12.536,9.838 12.182,10.411 11.797 L 10.542 11.709 11.691 12.846 C 12.323 13.471,12.929 14.059,13.038 14.152 C 13.322 14.394,13.509 14.443,13.820 14.356 C 14.140 14.266,14.383 13.942,14.385 13.600 C 14.388 13.286,14.375 13.269,13.078 11.947 C 12.439 11.294,11.873 10.709,11.822 10.647 L 11.728 10.535 11.793 10.421 C 11.828 10.358,11.930 10.180,12.020 10.025 C 12.366 9.429,12.614 8.726,12.739 7.991 C 12.804 7.610,12.803 6.787,12.738 6.387 C 12.637 5.774,12.481 5.272,12.228 4.754 C 11.459 3.174,10.019 2.070,8.252 1.704 C 7.901 1.632,6.728 1.608,6.372 1.666 M7.853 3.282 C 8.315 3.337,9.054 3.636,9.518 3.956 C 10.244 4.457,10.826 5.302,11.085 6.230 C 11.157 6.487,11.159 6.510,11.158 7.187 C 11.157 7.971,11.136 8.104,10.934 8.622 C 10.222 10.442,8.309 11.494,6.413 11.107 C 5.293 10.878,4.293 10.155,3.765 9.194 C 3.369 8.474,3.224 7.814,3.263 6.920 C 3.306 5.935,3.727 5.034,4.485 4.306 C 5.019 3.792,5.647 3.457,6.356 3.308 C 6.641 3.248,7.451 3.234,7.853 3.282 M4.800 7.200 L 4.800 8.000 7.200 8.000 L 9.600 8.000 9.600 7.200 L 9.600 6.400 7.200 6.400 L 4.800 6.400 4.800 7.200 " fill="#1A1C1F" stroke="none" fill-rule="evenodd"></path></svg>