<svg width="14" height="14" viewBox="0 0 14 14" fill="none" xmlns="http://www.w3.org/2000/svg"><path d="M5.679 1.448 C 5.297 1.485,4.668 1.667,4.239 1.865 C 3.237 2.326,2.375 3.176,1.890 4.182 C 1.442 5.110,1.289 6.240,1.484 7.197 C 1.754 8.530,2.504 9.653,3.614 10.389 C 4.491 10.970,5.600 11.261,6.633 11.182 C 7.494 11.116,8.191 10.884,8.994 10.396 L 9.249 10.241 10.102 11.089 C 11.328 12.307,11.508 12.478,11.631 12.532 C 11.767 12.592,12.037 12.596,12.176 12.541 C 12.314 12.485,12.514 12.263,12.554 12.119 C 12.597 11.965,12.593 11.719,12.546 11.628 C 12.497 11.534,12.094 11.112,11.064 10.076 L 10.236 9.244 10.368 9.036 C 10.739 8.448,11.009 7.755,11.135 7.070 C 11.203 6.702,11.207 5.912,11.144 5.565 C 11.051 5.052,10.915 4.616,10.718 4.200 C 10.140 2.979,9.070 2.051,7.758 1.634 C 7.334 1.498,7.162 1.470,6.627 1.447 C 6.057 1.422,5.944 1.422,5.679 1.448 M6.876 2.870 C 7.111 2.900,7.588 3.061,7.883 3.209 C 8.522 3.528,9.051 4.046,9.379 4.670 C 9.661 5.208,9.752 5.559,9.770 6.187 C 9.780 6.536,9.775 6.669,9.742 6.863 C 9.587 7.795,9.002 8.696,8.213 9.220 C 7.856 9.457,7.334 9.667,6.910 9.744 C 6.776 9.768,6.561 9.780,6.265 9.781 C 5.885 9.782,5.790 9.775,5.600 9.730 C 4.343 9.433,3.397 8.581,2.997 7.386 C 2.836 6.905,2.788 6.086,2.891 5.600 C 3.043 4.884,3.319 4.379,3.849 3.848 C 4.370 3.326,4.973 2.999,5.623 2.886 C 5.852 2.846,6.615 2.836,6.876 2.870 M5.600 4.900 L 5.600 5.600 4.900 5.600 L 4.200 5.600 4.200 6.300 L 4.200 7.000 4.900 7.000 L 5.600 7.000 5.600 7.700 L 5.600 8.400 5.968 8.400 C 6.170 8.400,6.485 8.407,6.668 8.415 L 7.000 8.431 7.000 7.715 L 7.000 7.000 7.700 7.000 L 8.400 7.000 8.400 6.300 L 8.400 5.600 7.700 5.600 L 7.000 5.600 7.000 4.900 L 7.000 4.200 6.300 4.200 L 5.600 4.200 5.600 4.900 " fill="#1A1C1F" stroke="none" fill-rule="evenodd"></path></svg>