<svg width="12" height="12" viewBox="0 0 12 12" fill="none" xmlns="http://www.w3.org/2000/svg"><path d="M4.870 1.241 C 4.452 1.283,3.884 1.461,3.460 1.684 C 1.946 2.479,1.067 4.096,1.220 5.799 C 1.278 6.440,1.520 7.124,1.889 7.690 C 2.501 8.629,3.466 9.285,4.560 9.509 C 5.475 9.696,6.405 9.576,7.250 9.160 C 7.404 9.085,7.619 8.967,7.727 8.899 L 7.925 8.775 8.697 9.544 C 9.649 10.490,9.857 10.687,9.965 10.743 C 10.081 10.803,10.312 10.804,10.440 10.746 C 10.699 10.629,10.851 10.306,10.773 10.036 C 10.745 9.941,10.707 9.892,10.448 9.619 C 10.286 9.449,9.844 8.998,9.465 8.618 L 8.775 7.925 8.941 7.648 C 9.746 6.297,9.810 4.830,9.123 3.467 C 8.793 2.812,8.176 2.166,7.504 1.772 C 7.177 1.581,6.692 1.393,6.277 1.298 C 6.015 1.238,5.225 1.206,4.870 1.241 M6.150 2.515 C 6.740 2.692,7.139 2.922,7.519 3.301 C 7.908 3.690,8.167 4.149,8.313 4.710 C 8.368 4.921,8.370 4.948,8.370 5.390 C 8.370 5.807,8.365 5.868,8.322 6.040 C 8.170 6.650,7.927 7.078,7.482 7.521 C 7.136 7.867,6.877 8.038,6.455 8.200 C 5.931 8.403,5.195 8.449,4.687 8.311 C 4.292 8.204,3.863 8.000,3.608 7.798 C 3.429 7.656,3.044 7.249,2.937 7.089 C 2.739 6.791,2.540 6.325,2.478 6.010 C 2.458 5.911,2.450 5.721,2.452 5.360 C 2.453 4.875,2.456 4.841,2.505 4.660 C 2.743 3.793,3.351 3.061,4.141 2.693 C 4.590 2.483,4.828 2.439,5.470 2.448 C 5.936 2.455,5.956 2.457,6.150 2.515 M4.800 4.200 L 4.800 4.800 4.200 4.800 L 3.600 4.800 3.600 5.400 L 3.600 6.000 4.200 6.000 L 4.800 6.000 4.800 6.600 L 4.800 7.200 5.115 7.200 C 5.288 7.200,5.558 7.206,5.715 7.213 L 6.000 7.226 6.000 6.613 L 6.000 6.000 6.600 6.000 L 7.200 6.000 7.200 5.400 L 7.200 4.800 6.600 4.800 L 6.000 4.800 6.000 4.200 L 6.000 3.600 5.400 3.600 L 4.800 3.600 4.800 4.200 " fill="#1A1C1F" stroke="none" fill-rule="evenodd"></path></svg>