<svg width="12" height="12" viewBox="0 0 12 12" fill="none" xmlns="http://www.w3.org/2000/svg"><path d="M5.031 1.223 C 4.000 1.314,2.975 1.827,2.284 2.597 C 1.726 3.219,1.407 3.882,1.259 4.730 C 1.205 5.036,1.187 5.523,1.219 5.800 C 1.494 8.198,3.596 9.860,5.970 9.557 C 6.183 9.530,6.691 9.399,6.889 9.321 C 7.103 9.235,7.597 8.984,7.770 8.872 L 7.910 8.781 8.690 9.557 C 9.612 10.474,9.809 10.660,9.935 10.734 C 10.019 10.783,10.047 10.789,10.193 10.786 C 10.393 10.782,10.480 10.747,10.604 10.626 C 10.793 10.440,10.844 10.180,10.735 9.958 C 10.680 9.847,10.634 9.798,8.965 8.098 L 8.777 7.906 8.902 7.708 C 9.376 6.955,9.626 6.070,9.593 5.260 C 9.549 4.165,9.139 3.219,8.380 2.459 C 7.620 1.698,6.753 1.303,5.660 1.220 C 5.360 1.198,5.316 1.198,5.031 1.223 M5.610 2.440 C 6.110 2.476,6.323 2.533,6.735 2.739 C 7.178 2.961,7.506 3.228,7.779 3.590 C 8.026 3.918,8.204 4.277,8.314 4.672 C 8.367 4.865,8.369 4.884,8.369 5.390 C 8.368 5.862,8.364 5.927,8.324 6.089 C 8.244 6.409,8.066 6.806,7.880 7.081 C 7.709 7.332,7.302 7.732,7.054 7.893 C 6.139 8.484,5.033 8.552,4.070 8.077 C 3.331 7.711,2.795 7.057,2.527 6.190 L 2.471 6.010 2.470 5.390 L 2.470 4.770 2.547 4.540 C 2.793 3.810,3.221 3.250,3.832 2.856 C 4.157 2.647,4.612 2.488,5.020 2.442 C 5.233 2.418,5.295 2.418,5.610 2.440 M3.600 5.400 L 3.600 6.000 5.400 6.000 L 7.200 6.000 7.200 5.400 L 7.200 4.800 5.400 4.800 L 3.600 4.800 3.600 5.400 " fill="#1A1C1F" stroke="none" fill-rule="evenodd"></path></svg>