<svg width="20" height="20" viewBox="0 0 20 20" fill="none" xmlns="http://www.w3.org/2000/svg"><path d="M8.113 2.069 C 7.766 2.102,7.182 2.242,6.717 2.402 C 4.419 3.193,2.682 5.146,2.168 7.517 C 1.865 8.910,1.976 10.242,2.504 11.576 C 3.226 13.397,4.717 14.865,6.533 15.543 C 8.633 16.327,10.890 16.080,12.848 14.851 L 13.203 14.628 14.745 16.156 C 15.593 16.996,16.371 17.741,16.474 17.812 C 16.688 17.959,16.904 18.013,17.150 17.981 C 17.715 17.906,18.116 17.281,17.954 16.725 C 17.907 16.563,17.847 16.486,17.412 16.030 C 17.143 15.748,16.406 14.997,15.774 14.362 L 14.624 13.207 14.831 12.879 C 15.336 12.078,15.750 11.017,15.903 10.133 C 16.172 8.581,15.830 6.799,14.995 5.404 C 14.156 4.002,12.744 2.880,11.156 2.354 C 10.544 2.152,10.222 2.098,9.433 2.065 C 8.618 2.032,8.489 2.032,8.113 2.069 M10.156 4.163 C 10.723 4.305,11.560 4.693,11.977 5.005 C 12.308 5.254,12.905 5.889,13.134 6.236 C 13.519 6.822,13.733 7.315,13.872 7.936 C 13.940 8.241,13.950 8.372,13.950 9.000 C 13.950 9.577,13.938 9.772,13.888 10.000 C 13.759 10.586,13.471 11.248,13.107 11.798 C 12.888 12.128,12.327 12.721,11.988 12.981 C 11.011 13.729,9.815 14.070,8.522 13.969 C 7.776 13.910,6.936 13.613,6.252 13.166 C 5.937 12.960,5.270 12.318,5.002 11.963 C 4.596 11.425,4.179 10.436,4.097 9.817 C 4.072 9.623,4.064 9.264,4.076 8.800 C 4.091 8.166,4.104 8.045,4.181 7.754 C 4.668 5.925,6.118 4.536,7.967 4.129 C 8.212 4.075,8.359 4.069,9.067 4.081 C 9.750 4.092,9.928 4.105,10.156 4.163 M8.000 7.000 L 8.000 8.000 7.000 8.000 L 6.000 8.000 6.000 9.000 L 6.000 10.000 7.000 10.000 L 8.000 10.000 8.000 11.000 L 8.000 12.000 8.495 12.000 C 8.767 12.000,9.217 12.010,9.495 12.022 L 10.000 12.044 10.000 11.022 L 10.000 10.000 11.000 10.000 L 12.000 10.000 12.000 9.000 L 12.000 8.000 11.000 8.000 L 10.000 8.000 10.000 7.000 L 10.000 6.000 9.000 6.000 L 8.000 6.000 8.000 7.000 " fill="#1A1C1F" stroke="none" fill-rule="evenodd"></path></svg>