<svg width="14" height="14" viewBox="0 0 14 14" fill="none" xmlns="http://www.w3.org/2000/svg"><path d="M5.845 1.426 C 5.201 1.488,4.517 1.703,3.918 2.034 C 2.984 2.550,2.186 3.431,1.798 4.376 C 1.389 5.370,1.296 6.406,1.527 7.382 C 1.958 9.201,3.305 10.574,5.119 11.046 C 5.838 11.233,6.681 11.237,7.437 11.058 C 7.952 10.935,8.662 10.623,9.110 10.323 L 9.224 10.246 10.228 11.239 C 10.780 11.785,11.310 12.300,11.406 12.382 C 11.657 12.595,11.820 12.638,12.092 12.562 C 12.486 12.451,12.702 11.979,12.524 11.618 C 12.461 11.490,12.305 11.326,10.471 9.459 L 10.239 9.223 10.350 9.051 C 10.926 8.154,11.232 7.099,11.193 6.142 C 11.152 5.129,10.814 4.160,10.224 3.368 C 10.025 3.100,9.519 2.594,9.252 2.397 C 8.476 1.823,7.545 1.473,6.697 1.435 C 6.536 1.428,6.326 1.419,6.230 1.414 C 6.134 1.410,5.960 1.415,5.845 1.426 M6.861 2.871 C 7.379 2.935,8.040 3.225,8.492 3.586 C 8.722 3.770,9.012 4.079,9.170 4.307 C 9.452 4.716,9.706 5.350,9.756 5.775 C 9.773 5.923,9.778 6.174,9.770 6.463 C 9.754 6.977,9.723 7.147,9.567 7.545 C 8.930 9.173,7.184 10.100,5.514 9.696 C 4.704 9.500,3.998 9.041,3.529 8.407 C 3.256 8.036,2.954 7.357,2.896 6.977 C 2.820 6.485,2.845 5.774,2.953 5.363 C 3.029 5.072,3.332 4.464,3.533 4.197 C 4.028 3.542,4.849 3.018,5.592 2.884 C 5.813 2.844,6.577 2.836,6.861 2.871 M4.200 6.300 L 4.200 7.000 6.300 7.000 L 8.400 7.000 8.400 6.300 L 8.400 5.600 6.300 5.600 L 4.200 5.600 4.200 6.300 " fill="#1A1C1F" stroke="none" fill-rule="evenodd"></path></svg>