<svg width="20" height="20" viewBox="0 0 20 20" fill="none" xmlns="http://www.w3.org/2000/svg"><path d="M7.894 2.102 C 5.634 2.500,3.739 3.883,2.755 5.854 C 1.801 7.766,1.756 9.910,2.629 11.867 C 3.451 13.707,5.120 15.156,7.067 15.716 C 7.760 15.916,8.227 15.980,9.000 15.980 C 9.754 15.980,10.237 15.917,10.863 15.735 C 11.519 15.546,12.369 15.161,12.925 14.803 L 13.180 14.639 14.615 16.059 C 15.404 16.840,16.161 17.574,16.297 17.690 C 16.652 17.993,16.886 18.054,17.275 17.945 C 17.837 17.787,18.145 17.113,17.891 16.596 C 17.801 16.411,17.735 16.342,14.945 13.500 L 14.634 13.183 14.839 12.850 C 15.949 11.050,16.264 9.078,15.746 7.167 C 15.072 4.672,13.062 2.753,10.533 2.188 C 9.987 2.066,9.640 2.034,8.900 2.036 C 8.421 2.038,8.156 2.055,7.894 2.102 M9.333 4.068 C 10.205 4.128,10.543 4.219,11.272 4.588 C 12.464 5.192,13.351 6.229,13.768 7.504 C 13.944 8.043,13.976 8.325,13.957 9.150 C 13.942 9.792,13.929 9.924,13.856 10.207 C 13.431 11.837,12.208 13.157,10.610 13.712 C 8.841 14.326,6.831 13.867,5.517 12.550 C 4.996 12.028,4.664 11.511,4.383 10.784 C 4.196 10.302,4.136 10.048,4.096 9.568 C 3.981 8.206,4.237 7.172,4.946 6.133 C 5.187 5.780,5.886 5.089,6.233 4.861 C 6.914 4.415,7.615 4.155,8.367 4.070 C 8.721 4.030,8.792 4.030,9.333 4.068 M6.000 9.000 L 6.000 10.000 9.000 10.000 L 12.000 10.000 12.000 9.000 L 12.000 8.000 9.000 8.000 L 6.000 8.000 6.000 9.000 " fill="#1A1C1F" stroke="none" fill-rule="evenodd"></path></svg>