<svg width="32" height="32" viewBox="0 0 32 32" fill="none" xmlns="http://www.w3.org/2000/svg"><path d="M10.933 2.061 C 9.018 2.300,7.092 3.121,5.627 4.321 C 5.136 4.723,4.367 5.527,3.995 6.027 C 3.127 7.191,2.518 8.572,2.163 10.179 C 2.047 10.704,1.998 12.278,2.072 13.093 C 2.220 14.709,2.952 16.564,4.011 18.000 C 4.366 18.481,5.519 19.634,6.000 19.989 C 7.434 21.046,9.303 21.784,10.907 21.927 C 11.276 21.960,11.959 21.969,12.523 21.950 C 13.387 21.920,13.580 21.896,14.203 21.738 C 15.487 21.413,16.594 20.928,17.668 20.219 C 17.984 20.011,18.267 19.840,18.298 19.840 C 18.373 19.840,19.296 20.742,24.135 25.547 C 26.425 27.820,28.399 29.749,28.522 29.834 C 28.793 30.020,29.049 30.033,29.395 29.880 C 29.750 29.723,29.926 29.465,29.959 29.053 C 29.985 28.727,29.980 28.712,29.774 28.451 C 29.658 28.304,27.705 26.312,25.435 24.024 C 20.665 19.218,19.840 18.373,19.840 18.294 C 19.840 18.262,20.009 17.984,20.216 17.676 C 20.908 16.645,21.396 15.531,21.732 14.221 C 21.950 13.371,22.015 12.322,21.928 11.067 C 21.813 9.402,21.176 7.693,20.098 6.159 C 19.658 5.532,18.460 4.339,17.815 3.884 C 16.472 2.938,14.777 2.275,13.360 2.141 C 12.672 2.076,11.202 2.027,10.933 2.061 M12.685 4.079 C 15.338 4.218,17.919 5.987,19.175 8.527 C 19.440 9.063,19.686 9.807,19.822 10.482 C 19.960 11.166,19.960 12.958,19.823 13.600 C 19.491 15.152,18.788 16.412,17.574 17.631 C 16.557 18.653,15.758 19.153,14.437 19.595 C 13.532 19.898,13.193 19.947,12.000 19.947 C 10.805 19.947,10.468 19.898,9.557 19.593 C 6.815 18.676,4.763 16.392,4.185 13.613 C 3.925 12.362,4.039 10.626,4.464 9.387 C 5.234 7.137,7.205 5.190,9.483 4.427 C 10.188 4.191,11.329 4.003,11.867 4.035 C 12.013 4.043,12.381 4.063,12.685 4.079 M11.498 7.161 C 11.028 7.430,10.998 7.575,10.991 9.587 L 10.987 10.987 9.960 10.989 C 8.504 10.993,7.612 11.056,7.443 11.167 C 6.845 11.558,6.892 12.490,7.528 12.854 C 7.759 12.986,7.767 12.987,9.373 13.005 L 10.987 13.023 10.987 14.557 C 10.987 15.591,11.007 16.150,11.049 16.272 C 11.142 16.540,11.289 16.717,11.537 16.856 C 11.978 17.105,12.531 16.960,12.839 16.515 L 12.987 16.303 13.005 14.658 L 13.024 13.013 14.338 13.012 C 15.816 13.010,16.325 12.963,16.528 12.813 C 16.711 12.678,16.893 12.405,16.958 12.170 C 17.075 11.746,16.759 11.187,16.347 11.089 C 16.229 11.061,15.433 11.023,14.578 11.004 L 13.023 10.970 13.005 9.365 C 12.983 7.468,12.976 7.436,12.484 7.187 C 12.120 7.003,11.790 6.994,11.498 7.161 " fill="#1A1C1F" stroke="none" fill-rule="evenodd"></path></svg>