<svg width="28" height="28" viewBox="0 0 28 28" fill="none" xmlns="http://www.w3.org/2000/svg"><path d="M8.774 1.937 C 7.368 2.242,6.005 2.895,4.923 3.781 C 4.494 4.132,3.821 4.836,3.495 5.273 C 2.759 6.263,2.240 7.407,1.927 8.737 C 1.809 9.238,1.803 9.323,1.804 10.500 C 1.804 11.822,1.820 11.949,2.084 12.857 C 2.758 15.169,4.264 17.053,6.347 18.190 C 7.018 18.557,8.113 18.945,9.030 19.140 C 9.218 19.180,9.708 19.199,10.523 19.197 C 11.901 19.195,12.091 19.166,13.253 18.780 C 14.174 18.474,15.225 17.931,15.837 17.444 L 16.017 17.301 16.817 18.093 C 17.257 18.528,19.160 20.414,21.047 22.283 C 22.933 24.152,24.622 25.806,24.799 25.959 L 25.121 26.237 25.394 26.217 C 25.898 26.181,26.226 25.840,26.227 25.354 C 26.227 25.132,26.207 25.088,26.000 24.840 C 25.876 24.690,24.245 23.025,22.375 21.139 C 20.506 19.253,18.600 17.329,18.139 16.863 L 17.301 16.017 17.444 15.837 C 17.931 15.225,18.474 14.174,18.780 13.253 C 19.169 12.082,19.196 11.904,19.196 10.500 C 19.196 9.095,19.168 8.915,18.779 7.747 C 18.313 6.347,17.611 5.232,16.561 4.223 C 15.393 3.100,13.889 2.294,12.332 1.957 C 11.947 1.873,11.678 1.855,10.593 1.839 C 9.362 1.821,9.288 1.825,8.774 1.937 M11.993 3.679 C 14.873 4.348,17.054 6.732,17.402 9.590 C 17.476 10.196,17.465 11.159,17.379 11.670 C 17.157 12.998,16.492 14.290,15.511 15.306 C 14.926 15.912,14.600 16.179,14.035 16.517 C 11.643 17.949,8.501 17.771,6.323 16.080 C 4.956 15.018,4.019 13.548,3.657 11.898 C 3.588 11.584,3.570 11.304,3.570 10.523 C 3.570 9.667,3.584 9.482,3.678 9.059 C 4.146 6.969,5.454 5.262,7.324 4.300 C 8.016 3.944,8.623 3.748,9.567 3.575 C 9.631 3.563,10.114 3.561,10.640 3.570 C 11.382 3.583,11.686 3.608,11.993 3.679 M6.789 9.703 C 5.996 9.833,5.947 11.051,6.724 11.300 C 6.934 11.367,12.484 11.409,13.541 11.351 C 14.396 11.305,14.454 11.286,14.683 10.985 C 14.786 10.851,14.816 10.755,14.829 10.529 C 14.848 10.189,14.763 10.020,14.461 9.801 L 14.266 9.660 10.621 9.666 C 8.617 9.669,6.892 9.686,6.789 9.703 " fill="#1A1C1F" stroke="none" fill-rule="evenodd"></path></svg>