<svg width="32" height="32" viewBox="0 0 32 32" fill="none" xmlns="http://www.w3.org/2000/svg"><path d="M10.027 2.213 C 8.421 2.562,6.863 3.308,5.627 4.321 C 5.136 4.723,4.367 5.527,3.995 6.027 C 3.127 7.191,2.518 8.572,2.163 10.179 C 2.047 10.704,1.998 12.278,2.072 13.093 C 2.220 14.709,2.952 16.564,4.011 18.000 C 4.366 18.481,5.519 19.634,6.000 19.989 C 7.432 21.045,9.295 21.781,10.907 21.928 C 11.810 22.010,13.288 21.954,13.925 21.813 C 15.403 21.485,17.125 20.712,18.099 19.936 L 18.305 19.773 19.219 20.678 C 19.722 21.175,21.897 23.330,24.053 25.466 C 26.209 27.602,28.139 29.492,28.341 29.667 L 28.710 29.985 29.022 29.962 C 29.598 29.921,29.973 29.532,29.973 28.976 C 29.973 28.723,29.951 28.672,29.715 28.388 C 29.572 28.217,27.708 26.314,25.572 24.159 C 23.436 22.003,21.258 19.806,20.733 19.275 L 19.779 18.311 20.077 17.915 C 20.484 17.375,21.266 15.805,21.515 15.028 C 21.891 13.851,21.935 13.529,21.937 11.973 C 21.940 10.400,21.908 10.193,21.464 8.861 C 20.856 7.036,19.868 5.581,18.400 4.350 C 17.220 3.360,15.593 2.561,14.094 2.236 C 13.654 2.141,13.346 2.120,12.107 2.102 C 10.700 2.081,10.615 2.086,10.027 2.213 M13.707 4.205 C 17.028 4.977,19.510 7.718,19.896 11.039 C 19.995 11.890,19.937 13.177,19.771 13.813 C 19.357 15.403,18.649 16.612,17.455 17.765 C 16.334 18.848,15.011 19.546,13.482 19.862 C 12.909 19.980,11.091 19.980,10.518 19.862 C 8.000 19.342,5.893 17.696,4.796 15.392 C 4.344 14.442,4.126 13.623,4.062 12.627 C 3.966 11.130,4.236 9.715,4.856 8.477 C 5.975 6.239,8.086 4.629,10.508 4.164 C 11.262 4.019,13.004 4.041,13.707 4.205 M7.758 11.089 C 6.852 11.238,6.796 12.628,7.685 12.914 C 7.924 12.992,14.327 13.039,15.503 12.973 C 16.450 12.919,16.521 12.896,16.781 12.555 C 16.898 12.402,16.933 12.291,16.947 12.034 C 16.969 11.644,16.872 11.451,16.527 11.202 L 16.304 11.040 12.139 11.047 C 9.848 11.050,7.877 11.069,7.758 11.089 " fill="#1A1C1F" stroke="none" fill-rule="evenodd"></path></svg>