<svg width="28" height="28" viewBox="0 0 28 28" fill="none" xmlns="http://www.w3.org/2000/svg"><path d="M25.115 1.760 C 24.856 1.809,21.449 5.221,21.298 5.582 C 21.206 5.803,21.217 5.922,21.356 6.201 C 21.496 6.482,21.721 6.654,22.009 6.700 C 22.366 6.756,22.506 6.651,23.913 5.269 C 25.932 3.286,26.325 2.816,26.251 2.476 C 26.235 2.403,26.159 2.245,26.083 2.126 C 25.879 1.803,25.547 1.678,25.115 1.760 M11.807 1.869 C 10.463 1.992,8.972 2.533,7.770 3.335 C 6.788 3.990,6.253 4.536,6.253 4.886 C 6.253 5.224,6.469 5.550,6.790 5.698 C 7.172 5.875,7.417 5.793,8.073 5.273 C 9.658 4.016,11.313 3.483,13.265 3.601 C 15.172 3.716,17.024 4.667,18.280 6.175 C 19.084 7.140,19.557 8.099,19.817 9.287 C 19.889 9.619,19.903 9.880,19.900 10.897 C 19.897 12.047,19.891 12.133,19.777 12.553 C 19.477 13.663,18.857 14.757,17.011 17.430 C 16.034 18.844,15.747 19.404,15.310 20.743 C 14.819 22.249,14.420 22.929,13.671 23.535 C 12.986 24.089,12.136 24.435,11.241 24.522 C 10.782 24.568,10.049 24.471,9.464 24.287 C 8.797 24.078,8.533 24.074,8.263 24.270 C 7.875 24.551,7.788 25.045,8.054 25.448 C 8.203 25.674,8.614 25.872,9.373 26.086 C 9.828 26.214,10.004 26.239,10.610 26.260 C 11.020 26.274,11.496 26.263,11.744 26.232 C 12.233 26.171,13.181 25.881,13.629 25.653 C 14.845 25.037,16.020 23.816,16.505 22.668 C 16.591 22.462,16.769 21.945,16.899 21.519 C 17.283 20.264,17.615 19.642,18.874 17.827 C 20.160 15.972,20.520 15.388,20.900 14.534 C 21.879 12.340,22.003 10.192,21.276 8.003 C 20.629 6.058,19.382 4.434,17.663 3.301 C 16.549 2.566,15.149 2.041,13.977 1.919 C 13.316 1.851,12.273 1.827,11.807 1.869 M12.017 5.370 C 11.413 5.452,10.949 5.599,10.337 5.902 C 8.812 6.657,8.315 7.452,8.981 8.067 C 9.392 8.445,9.653 8.417,10.372 7.917 C 10.841 7.592,11.311 7.343,11.713 7.206 C 11.924 7.134,12.107 7.119,12.740 7.121 C 13.444 7.123,13.542 7.134,13.884 7.247 C 15.054 7.633,16.029 8.660,16.339 9.833 C 16.463 10.302,16.475 11.214,16.364 11.677 C 16.283 12.016,15.940 12.731,15.520 13.440 C 15.376 13.683,15.236 13.963,15.209 14.062 C 15.023 14.752,15.869 15.362,16.465 14.968 C 16.918 14.668,17.778 13.159,18.067 12.157 C 18.189 11.733,18.250 10.840,18.200 10.220 C 18.136 9.436,17.760 8.427,17.253 7.680 C 17.020 7.337,16.441 6.726,16.100 6.464 C 15.463 5.975,14.601 5.589,13.810 5.439 C 13.318 5.345,12.443 5.312,12.017 5.370 M8.503 18.372 C 8.285 18.417,2.052 24.615,1.857 24.980 C 1.496 25.657,2.296 26.439,2.990 26.085 C 3.177 25.989,8.757 20.455,9.311 19.815 C 9.587 19.496,9.590 19.490,9.588 19.208 C 9.585 18.849,9.487 18.659,9.228 18.509 C 9.028 18.393,8.700 18.331,8.503 18.372 " fill="#1A1C1F" stroke="none" fill-rule="evenodd"></path></svg>