<svg width="20" height="20" viewBox="0 0 20 20" fill="none" xmlns="http://www.w3.org/2000/svg"><path d="M8.783 2.034 C 7.651 2.116,6.524 2.541,5.608 3.232 C 5.030 3.667,4.793 3.989,4.788 4.347 C 4.783 4.749,4.978 5.076,5.334 5.261 C 5.533 5.364,5.570 5.372,5.800 5.361 C 6.092 5.348,6.239 5.282,6.567 5.019 C 6.911 4.743,7.183 4.571,7.551 4.395 C 8.774 3.810,10.246 3.919,11.417 4.680 C 11.783 4.918,12.323 5.452,12.550 5.800 C 12.768 6.134,12.982 6.616,13.090 7.020 C 13.171 7.323,13.178 7.403,13.179 8.000 C 13.180 8.605,13.174 8.673,13.089 8.983 C 12.932 9.561,12.655 10.065,11.756 11.409 C 10.820 12.809,10.637 13.149,10.335 14.063 C 10.224 14.401,10.085 14.761,10.027 14.863 C 9.969 14.966,9.800 15.171,9.652 15.318 C 9.355 15.614,9.087 15.774,8.667 15.905 C 8.447 15.973,8.365 15.981,8.000 15.970 C 7.160 15.944,7.061 15.949,6.907 16.029 C 6.697 16.137,6.517 16.314,6.433 16.492 C 6.370 16.626,6.361 16.691,6.373 16.951 C 6.384 17.207,6.400 17.277,6.478 17.411 C 6.650 17.705,6.967 17.866,7.548 17.955 C 8.928 18.167,10.485 17.544,11.388 16.418 C 11.774 15.937,11.948 15.586,12.233 14.717 C 12.461 14.021,12.638 13.693,13.412 12.542 C 14.463 10.977,14.603 10.732,14.867 10.000 C 15.328 8.719,15.340 7.407,14.901 6.096 C 14.231 4.090,12.497 2.561,10.413 2.136 C 10.136 2.080,9.261 1.989,9.150 2.005 C 9.132 2.008,8.967 2.021,8.783 2.034 M16.565 2.123 C 16.432 2.188,16.241 2.355,15.850 2.748 C 15.204 3.398,15.124 3.524,15.125 3.896 C 15.125 4.211,15.185 4.364,15.393 4.578 C 15.583 4.772,15.679 4.825,15.917 4.870 C 16.169 4.916,16.426 4.864,16.626 4.727 C 16.874 4.557,17.771 3.635,17.874 3.445 C 17.998 3.216,18.025 2.959,17.949 2.719 C 17.774 2.161,17.088 1.865,16.565 2.123 M8.699 5.063 C 8.168 5.139,7.453 5.521,7.113 5.911 C 6.915 6.139,6.858 6.300,6.873 6.596 C 6.888 6.890,6.950 7.040,7.136 7.232 C 7.322 7.423,7.508 7.508,7.783 7.525 C 8.080 7.544,8.208 7.500,8.583 7.247 L 8.877 7.050 9.213 7.050 C 9.519 7.050,9.564 7.058,9.704 7.140 C 9.882 7.245,10.055 7.431,10.121 7.588 C 10.148 7.654,10.167 7.819,10.167 8.000 L 10.167 8.302 9.928 8.760 C 9.704 9.189,9.689 9.230,9.688 9.433 C 9.687 9.732,9.777 9.978,9.956 10.170 C 10.341 10.581,10.962 10.578,11.364 10.163 C 11.660 9.857,12.056 9.092,12.151 8.642 C 12.223 8.301,12.215 7.603,12.135 7.290 C 11.872 6.263,11.019 5.389,10.017 5.119 C 9.787 5.057,8.982 5.023,8.699 5.063 M6.972 11.740 C 6.828 11.789,5.697 12.873,3.899 14.687 C 2.496 16.103,2.124 16.502,2.061 16.662 C 1.997 16.821,2.016 17.199,2.097 17.387 C 2.251 17.742,2.612 17.980,3.000 17.982 C 3.410 17.984,3.397 17.994,5.338 16.073 C 7.245 14.184,8.134 13.260,8.243 13.052 C 8.345 12.856,8.342 12.473,8.236 12.267 C 8.138 12.074,7.953 11.880,7.783 11.791 C 7.627 11.709,7.153 11.680,6.972 11.740 " fill="#1A1C1F" stroke="none" fill-rule="evenodd"></path></svg>