<svg width="32" height="32" viewBox="0 0 32 32" fill="none" xmlns="http://www.w3.org/2000/svg"><path d="M13.573 2.083 C 11.705 2.229,9.777 3.012,8.132 4.293 C 7.215 5.008,7.000 5.410,7.248 5.947 C 7.425 6.330,7.757 6.560,8.133 6.560 C 8.413 6.560,8.530 6.495,9.262 5.939 C 10.117 5.288,10.748 4.913,11.447 4.640 C 12.660 4.166,13.517 4.023,14.872 4.069 C 16.200 4.115,17.116 4.343,18.242 4.908 C 19.094 5.335,19.705 5.777,20.374 6.450 C 21.077 7.156,21.502 7.751,21.960 8.667 C 22.540 9.828,22.705 10.461,22.765 11.757 C 22.880 14.231,22.471 15.396,20.435 18.400 C 18.188 21.714,18.040 21.980,17.465 23.733 C 17.268 24.335,17.004 25.032,16.878 25.282 C 16.205 26.627,14.897 27.606,13.387 27.897 C 12.919 27.987,11.951 27.976,11.493 27.874 C 11.288 27.829,10.918 27.730,10.671 27.656 C 9.879 27.417,9.435 27.496,9.170 27.926 C 8.729 28.638,9.115 29.240,10.257 29.622 C 11.086 29.899,11.344 29.935,12.507 29.935 C 13.491 29.935,13.678 29.921,14.053 29.819 C 15.431 29.444,16.501 28.834,17.449 27.884 C 18.379 26.952,18.835 26.128,19.336 24.480 C 19.799 22.956,19.912 22.754,22.143 19.467 C 23.459 17.528,23.855 16.798,24.291 15.504 C 25.025 13.329,25.031 11.224,24.311 9.057 C 23.579 6.855,22.164 5.023,20.187 3.719 C 18.224 2.424,16.062 1.889,13.573 2.083 M13.233 6.162 C 11.934 6.444,10.411 7.355,10.060 8.060 C 9.880 8.420,9.884 8.602,10.078 8.941 C 10.262 9.260,10.567 9.440,10.926 9.440 C 11.196 9.440,11.326 9.377,11.875 8.980 C 12.346 8.641,13.014 8.301,13.445 8.182 C 13.926 8.049,14.888 8.024,15.414 8.130 C 16.663 8.383,17.747 9.189,18.314 10.287 C 18.834 11.294,18.952 12.588,18.614 13.570 C 18.491 13.929,18.113 14.684,17.809 15.179 C 17.501 15.681,17.334 16.051,17.334 16.233 C 17.333 16.482,17.594 16.899,17.837 17.038 C 18.459 17.392,18.875 17.196,19.498 16.260 C 20.342 14.990,20.853 13.485,20.853 12.267 C 20.853 10.759,20.174 9.106,19.093 7.980 C 18.177 7.025,16.886 6.316,15.733 6.135 C 15.230 6.056,13.643 6.073,13.233 6.162 " fill="#1A1C1F" stroke="none" fill-rule="evenodd"></path></svg>