<svg width="14" height="14" viewBox="0 0 14 14" fill="none" xmlns="http://www.w3.org/2000/svg"><path d="M6.060 1.425 C 5.182 1.515,4.228 1.945,3.635 2.516 C 3.395 2.747,3.348 2.843,3.350 3.092 C 3.352 3.290,3.409 3.432,3.540 3.564 C 3.686 3.709,3.829 3.768,4.037 3.766 C 4.246 3.764,4.333 3.725,4.608 3.513 C 5.042 3.177,5.375 3.000,5.754 2.904 C 5.957 2.852,6.027 2.847,6.462 2.847 C 7.001 2.847,7.171 2.875,7.512 3.021 C 8.359 3.385,8.928 4.044,9.174 4.951 C 9.220 5.120,9.227 5.201,9.228 5.588 C 9.229 6.402,9.121 6.660,8.200 8.038 C 7.568 8.984,7.440 9.221,7.259 9.783 C 7.193 9.986,7.107 10.219,7.066 10.302 C 6.881 10.682,6.519 10.988,6.092 11.128 C 5.958 11.172,5.887 11.177,5.415 11.177 L 4.888 11.177 4.768 11.257 C 4.558 11.399,4.458 11.588,4.457 11.845 C 4.457 11.989,4.467 12.033,4.533 12.160 C 4.661 12.408,4.889 12.522,5.369 12.578 C 6.047 12.657,6.768 12.470,7.368 12.059 C 7.746 11.799,8.193 11.274,8.362 10.891 C 8.394 10.818,8.479 10.576,8.551 10.355 C 8.758 9.720,8.791 9.661,9.594 8.482 C 9.929 7.989,10.031 7.824,10.187 7.513 C 10.679 6.535,10.789 5.513,10.511 4.492 C 10.078 2.897,8.717 1.698,7.070 1.461 C 6.744 1.414,6.313 1.398,6.060 1.425 M6.077 3.546 C 5.751 3.592,5.278 3.840,5.023 4.098 C 4.907 4.217,4.871 4.271,4.840 4.378 C 4.706 4.839,5.034 5.275,5.513 5.273 C 5.671 5.272,5.787 5.230,5.962 5.110 C 6.021 5.070,6.127 5.010,6.199 4.977 C 6.526 4.827,6.920 4.975,7.083 5.309 C 7.138 5.420,7.144 5.457,7.136 5.617 C 7.128 5.785,7.116 5.819,6.982 6.083 C 6.743 6.554,6.719 6.723,6.860 6.969 C 7.095 7.380,7.615 7.457,7.943 7.129 C 8.165 6.907,8.388 6.490,8.497 6.094 C 8.537 5.947,8.543 5.868,8.536 5.534 C 8.528 5.169,8.523 5.132,8.455 4.941 C 8.257 4.383,7.858 3.947,7.322 3.700 C 7.228 3.656,7.089 3.604,7.012 3.583 C 6.847 3.538,6.289 3.516,6.077 3.546 " fill="#1A1C1F" stroke="none" fill-rule="evenodd"></path></svg>