<svg width="32" height="32" viewBox="0 0 32 32" fill="none" xmlns="http://www.w3.org/2000/svg"><path d="M28.608 2.057 C 28.217 2.250,24.486 6.032,24.338 6.385 C 24.238 6.626,24.249 6.760,24.396 7.077 C 24.658 7.638,25.272 7.826,25.764 7.495 C 26.132 7.247,29.666 3.692,29.838 3.396 C 30.037 3.055,30.035 2.796,29.833 2.466 C 29.572 2.038,29.020 1.854,28.608 2.057 M13.493 2.136 C 11.652 2.304,9.745 3.091,8.132 4.347 C 7.233 5.047,7.012 5.442,7.229 5.961 C 7.409 6.390,7.808 6.645,8.225 6.595 C 8.509 6.562,8.558 6.533,9.419 5.883 C 10.467 5.093,11.580 4.559,12.768 4.277 C 13.315 4.147,13.450 4.136,14.533 4.137 C 15.546 4.137,15.781 4.153,16.250 4.256 C 19.160 4.890,21.515 6.999,22.429 9.789 C 22.677 10.548,22.773 11.272,22.773 12.387 C 22.773 13.702,22.642 14.392,22.183 15.495 C 21.803 16.410,21.299 17.224,19.513 19.813 C 18.822 20.814,18.296 21.681,18.040 22.240 C 17.939 22.460,17.678 23.167,17.459 23.810 C 17.240 24.454,16.967 25.162,16.851 25.384 C 16.361 26.325,15.610 27.050,14.640 27.520 C 13.889 27.884,13.308 28.020,12.507 28.020 C 11.819 28.020,11.512 27.971,10.720 27.733 C 9.943 27.499,9.854 27.491,9.574 27.627 C 8.984 27.912,8.812 28.596,9.211 29.070 C 9.409 29.306,9.675 29.460,10.203 29.647 C 11.936 30.258,13.917 30.137,15.547 29.320 C 16.613 28.784,17.582 27.949,18.257 26.982 C 18.635 26.439,18.925 25.811,19.209 24.914 C 19.833 22.943,20.075 22.498,22.098 19.600 C 22.931 18.408,23.516 17.436,23.844 16.699 C 24.850 14.443,25.092 12.373,24.607 10.193 C 23.844 6.767,21.464 4.010,18.172 2.738 C 17.519 2.486,16.603 2.259,15.973 2.194 C 15.218 2.115,14.026 2.088,13.493 2.136 M13.667 6.133 C 12.759 6.261,11.569 6.767,10.781 7.361 C 9.934 7.999,9.762 8.381,10.063 8.960 C 10.262 9.342,10.557 9.511,10.971 9.479 C 11.211 9.461,11.329 9.404,11.851 9.054 C 13.051 8.250,13.398 8.134,14.587 8.138 C 15.360 8.141,15.480 8.155,15.867 8.282 C 17.201 8.722,18.319 9.900,18.673 11.238 C 18.817 11.782,18.831 12.827,18.701 13.333 C 18.599 13.731,18.174 14.628,17.747 15.345 C 17.239 16.199,17.224 16.534,17.675 16.950 C 18.097 17.339,18.557 17.360,18.956 17.009 C 19.283 16.723,20.084 15.392,20.418 14.581 C 20.718 13.854,20.820 13.292,20.818 12.373 C 20.817 11.496,20.758 11.116,20.506 10.367 C 20.121 9.218,19.267 8.035,18.296 7.303 C 17.859 6.973,17.049 6.553,16.562 6.404 C 15.796 6.169,14.365 6.035,13.667 6.133 M9.746 21.036 C 9.636 21.076,9.408 21.222,9.240 21.361 C 8.663 21.837,2.246 28.313,2.134 28.531 C 1.812 29.162,2.291 29.915,3.016 29.919 C 3.164 29.920,3.309 29.872,3.474 29.767 C 3.790 29.567,10.412 22.954,10.736 22.515 C 10.914 22.275,10.987 22.126,10.987 22.003 C 10.987 21.332,10.337 20.826,9.746 21.036 " fill="#1A1C1F" stroke="none" fill-rule="evenodd"></path></svg>