<svg width="20" height="20" viewBox="0 0 20 20" fill="none" xmlns="http://www.w3.org/2000/svg"><path d="M8.483 2.069 C 7.502 2.144,6.280 2.674,5.377 3.415 C 5.060 3.676,4.945 3.818,4.840 4.079 C 4.700 4.424,4.788 4.783,5.084 5.079 C 5.273 5.268,5.436 5.343,5.693 5.360 C 6.012 5.382,6.142 5.328,6.619 4.977 C 7.293 4.481,7.656 4.292,8.260 4.125 C 8.487 4.063,8.601 4.055,9.233 4.057 C 10.045 4.059,10.206 4.088,10.759 4.327 C 11.255 4.540,11.606 4.778,12.002 5.167 C 12.912 6.062,13.280 7.076,13.172 8.391 C 13.096 9.319,12.981 9.558,11.655 11.550 C 10.807 12.824,10.629 13.163,10.331 14.074 C 10.171 14.564,10.089 14.759,9.968 14.944 C 9.756 15.269,9.418 15.572,9.085 15.735 C 8.643 15.951,8.482 15.978,7.739 15.958 L 7.095 15.941 6.900 16.039 C 6.461 16.258,6.240 16.735,6.381 17.159 C 6.457 17.388,6.609 17.608,6.759 17.707 C 7.129 17.952,7.989 18.060,8.683 17.951 C 9.848 17.768,10.894 17.134,11.538 16.221 C 11.795 15.858,11.979 15.463,12.217 14.766 C 12.336 14.417,12.493 14.013,12.566 13.869 C 12.638 13.724,12.942 13.244,13.240 12.802 C 14.138 11.474,14.327 11.171,14.567 10.683 C 14.924 9.959,15.103 9.367,15.198 8.601 C 15.340 7.459,15.012 5.992,14.383 4.950 C 13.564 3.593,12.193 2.574,10.665 2.185 C 10.374 2.112,10.198 2.092,9.600 2.066 C 9.206 2.049,8.868 2.037,8.850 2.039 C 8.832 2.042,8.667 2.055,8.483 2.069 M8.699 5.063 C 8.041 5.157,7.148 5.700,6.962 6.119 C 6.766 6.562,6.844 6.954,7.194 7.286 C 7.344 7.429,7.536 7.509,7.767 7.525 C 8.055 7.546,8.208 7.499,8.515 7.297 C 8.859 7.070,9.012 7.021,9.316 7.041 C 9.615 7.060,9.809 7.162,9.997 7.400 C 10.155 7.600,10.217 7.830,10.188 8.110 C 10.171 8.271,10.121 8.399,9.938 8.747 C 9.812 8.987,9.699 9.240,9.687 9.308 C 9.658 9.462,9.718 9.806,9.800 9.965 C 10.021 10.393,10.582 10.591,11.029 10.399 C 11.438 10.223,11.939 9.444,12.135 8.678 C 12.214 8.367,12.223 7.698,12.152 7.362 C 11.934 6.333,11.041 5.395,10.017 5.119 C 9.787 5.057,8.982 5.023,8.699 5.063 " fill="#1A1C1F" stroke="none" fill-rule="evenodd"></path></svg>