<svg width="24" height="24" viewBox="0 0 24 24" fill="none" xmlns="http://www.w3.org/2000/svg"><path d="M10.311 2.042 C 8.791 2.201,7.191 2.897,6.073 3.887 C 5.743 4.179,5.600 4.440,5.600 4.753 C 5.600 5.082,5.675 5.277,5.879 5.481 C 6.076 5.678,6.278 5.760,6.569 5.760 C 6.841 5.760,6.978 5.695,7.426 5.354 C 8.220 4.749,8.701 4.485,9.449 4.245 C 9.942 4.088,10.616 4.020,11.360 4.055 C 12.330 4.099,13.172 4.381,14.040 4.953 C 14.455 5.226,15.192 5.953,15.447 6.340 C 15.829 6.920,16.146 7.659,16.305 8.340 C 16.417 8.817,16.405 10.153,16.285 10.653 C 16.083 11.491,15.805 12.010,14.544 13.894 C 13.216 15.878,13.098 16.097,12.702 17.320 C 12.370 18.343,12.067 18.849,11.520 19.293 C 11.050 19.675,10.398 19.932,9.765 19.984 C 9.402 20.015,9.107 19.970,8.494 19.794 C 7.986 19.648,7.616 19.629,7.399 19.739 C 7.074 19.903,6.884 20.189,6.850 20.566 C 6.775 21.394,7.896 21.971,9.580 21.972 C 10.631 21.972,11.524 21.701,12.422 21.109 C 13.503 20.397,14.063 19.594,14.581 18.018 C 14.947 16.904,15.086 16.646,16.139 15.120 C 17.516 13.126,17.903 12.381,18.225 11.106 C 18.752 9.024,18.262 6.738,16.906 4.940 C 16.003 3.744,14.613 2.788,13.100 2.324 C 12.290 2.075,11.120 1.957,10.311 2.042 M10.280 5.078 C 9.781 5.135,8.936 5.490,8.417 5.861 C 8.057 6.118,7.743 6.473,7.681 6.696 C 7.483 7.404,8.143 8.105,8.839 7.925 C 8.939 7.899,9.178 7.770,9.370 7.637 C 10.237 7.042,10.807 6.905,11.580 7.105 C 12.514 7.347,13.219 8.106,13.384 9.048 C 13.490 9.655,13.359 10.147,12.854 11.039 C 12.711 11.293,12.556 11.614,12.510 11.753 C 12.429 11.999,12.429 12.011,12.498 12.233 C 12.591 12.531,12.895 12.840,13.172 12.918 C 13.555 13.025,13.965 12.896,14.211 12.591 C 14.784 11.878,15.232 10.902,15.383 10.038 C 15.610 8.743,15.051 7.153,14.047 6.235 C 13.522 5.756,12.735 5.311,12.147 5.163 C 11.820 5.080,10.704 5.029,10.280 5.078 " fill="#1A1C1F" stroke="none" fill-rule="evenodd"></path></svg>