<svg width="14" height="14" viewBox="0 0 14 14" fill="none" xmlns="http://www.w3.org/2000/svg"><path d="M6.148 1.415 C 5.713 1.450,5.123 1.604,4.719 1.787 C 4.172 2.036,3.547 2.506,3.405 2.778 C 3.333 2.914,3.327 3.229,3.394 3.367 C 3.451 3.486,3.611 3.648,3.737 3.712 C 3.856 3.774,4.110 3.786,4.253 3.737 C 4.302 3.720,4.480 3.602,4.650 3.474 C 5.092 3.142,5.493 2.948,5.908 2.867 C 5.990 2.851,6.247 2.838,6.487 2.837 C 6.889 2.836,6.934 2.840,7.152 2.900 C 7.901 3.109,8.544 3.615,8.920 4.294 C 9.258 4.902,9.334 5.763,9.110 6.436 C 8.995 6.782,8.831 7.086,8.473 7.618 C 8.300 7.875,8.050 8.246,7.919 8.442 C 7.593 8.927,7.415 9.293,7.234 9.844 C 7.120 10.194,7.063 10.330,6.978 10.461 C 6.772 10.776,6.451 11.015,6.082 11.128 C 5.940 11.171,5.864 11.177,5.403 11.177 L 4.885 11.177 4.760 11.264 C 4.511 11.438,4.416 11.657,4.458 11.956 C 4.494 12.208,4.679 12.420,4.930 12.495 C 5.255 12.591,5.843 12.614,6.208 12.545 C 7.117 12.372,7.902 11.778,8.316 10.950 C 8.362 10.858,8.469 10.580,8.553 10.332 C 8.736 9.796,8.859 9.551,9.168 9.100 C 9.975 7.926,10.162 7.619,10.335 7.187 C 10.674 6.339,10.743 5.561,10.555 4.713 C 10.248 3.332,9.285 2.212,7.950 1.682 C 7.589 1.538,7.181 1.459,6.629 1.423 C 6.429 1.411,6.260 1.402,6.253 1.404 C 6.247 1.406,6.200 1.411,6.148 1.415 M11.598 1.484 C 11.457 1.556,10.820 2.171,10.692 2.360 C 10.566 2.545,10.543 2.793,10.632 3.010 C 10.671 3.104,10.854 3.301,10.951 3.352 C 11.056 3.407,11.271 3.433,11.408 3.407 C 11.579 3.375,11.700 3.283,12.098 2.882 C 12.526 2.452,12.583 2.360,12.583 2.103 C 12.582 1.894,12.547 1.795,12.423 1.657 C 12.289 1.509,12.136 1.441,11.912 1.429 C 11.744 1.421,11.712 1.426,11.598 1.484 M6.079 3.548 C 5.577 3.627,5.018 3.985,4.852 4.335 C 4.714 4.626,4.874 5.063,5.170 5.202 C 5.304 5.265,5.539 5.288,5.680 5.253 C 5.738 5.238,5.881 5.164,5.996 5.088 C 6.226 4.938,6.353 4.904,6.585 4.931 C 6.811 4.958,7.039 5.153,7.106 5.376 C 7.177 5.617,7.139 5.799,6.943 6.154 C 6.774 6.461,6.749 6.558,6.790 6.757 C 6.827 6.934,6.880 7.037,6.992 7.145 C 7.264 7.407,7.684 7.394,7.955 7.114 C 8.160 6.901,8.440 6.358,8.507 6.044 C 8.556 5.811,8.550 5.319,8.495 5.103 C 8.311 4.384,7.716 3.775,7.012 3.583 C 6.844 3.537,6.282 3.516,6.079 3.548 M4.973 8.191 C 4.917 8.203,4.843 8.230,4.810 8.252 C 4.672 8.342,2.236 10.754,1.707 11.325 C 1.457 11.594,1.413 11.678,1.413 11.888 C 1.414 12.171,1.572 12.418,1.824 12.529 C 2.085 12.644,2.308 12.607,2.549 12.408 C 2.957 12.069,5.681 9.309,5.760 9.154 C 5.863 8.950,5.839 8.668,5.701 8.465 C 5.564 8.265,5.230 8.140,4.973 8.191 " fill="#1A1C1F" stroke="none" fill-rule="evenodd"></path></svg>