<svg width="28" height="28" viewBox="0 0 28 28" fill="none" xmlns="http://www.w3.org/2000/svg"><path d="M11.807 1.825 C 10.132 1.972,8.248 2.781,6.907 3.930 C 6.470 4.304,6.297 4.529,6.266 4.762 C 6.188 5.340,6.857 5.899,7.385 5.698 C 7.447 5.674,7.789 5.436,8.147 5.169 C 9.151 4.416,9.799 4.074,10.714 3.811 C 12.059 3.425,13.656 3.454,14.984 3.889 C 16.082 4.249,17.005 4.822,17.852 5.668 C 18.510 6.327,18.889 6.860,19.272 7.668 C 19.768 8.714,19.858 9.102,19.907 10.430 C 19.964 11.988,19.807 12.752,19.166 14.017 C 18.859 14.625,18.592 15.041,16.794 17.712 C 16.001 18.889,15.722 19.450,15.302 20.720 C 14.828 22.150,14.577 22.620,13.964 23.223 C 13.445 23.734,12.700 24.167,12.056 24.333 C 11.345 24.516,10.465 24.507,9.745 24.311 C 9.557 24.259,9.235 24.172,9.029 24.117 L 8.654 24.016 8.400 24.153 C 8.106 24.312,7.951 24.516,7.908 24.803 C 7.821 25.378,8.261 25.738,9.416 26.040 C 9.976 26.187,10.555 26.241,11.247 26.211 C 12.821 26.142,14.143 25.537,15.316 24.350 C 16.060 23.597,16.495 22.822,16.868 21.583 C 17.319 20.084,17.433 19.882,19.595 16.717 C 21.175 14.405,21.820 12.501,21.732 10.407 C 21.639 8.194,20.765 6.152,19.227 4.556 C 17.268 2.522,14.688 1.573,11.807 1.825 M11.579 5.390 C 10.688 5.590,9.836 6.020,9.162 6.610 C 8.860 6.874,8.679 7.170,8.681 7.400 C 8.684 7.769,9.039 8.184,9.397 8.238 C 9.709 8.285,9.842 8.237,10.320 7.904 C 11.286 7.230,11.744 7.074,12.763 7.072 C 13.520 7.070,13.866 7.141,14.395 7.407 C 15.360 7.891,16.146 8.879,16.356 9.871 C 16.438 10.256,16.449 11.230,16.375 11.583 C 16.310 11.898,16.006 12.547,15.551 13.342 C 15.229 13.906,15.193 13.992,15.193 14.216 C 15.193 14.673,15.582 15.045,16.062 15.045 C 16.387 15.045,16.610 14.868,16.994 14.309 C 17.994 12.853,18.407 11.349,18.179 9.990 C 17.813 7.800,16.336 6.108,14.237 5.474 C 13.871 5.364,13.752 5.352,12.857 5.338 C 12.125 5.326,11.801 5.339,11.579 5.390 " fill="#1A1C1F" stroke="none" fill-rule="evenodd"></path></svg>