<svg width="16" height="16" viewBox="0 0 16 16" fill="none" xmlns="http://www.w3.org/2000/svg"><path d="M6.960 1.630 C 6.152 1.711,5.375 1.992,4.684 2.455 C 4.325 2.695,3.974 3.022,3.891 3.194 C 3.808 3.367,3.804 3.669,3.883 3.841 C 4.045 4.194,4.428 4.382,4.800 4.293 C 4.910 4.267,5.021 4.199,5.317 3.976 C 6.109 3.379,6.679 3.194,7.587 3.236 C 8.073 3.259,8.395 3.343,8.835 3.564 C 9.647 3.970,10.254 4.730,10.483 5.625 C 10.603 6.092,10.596 6.704,10.467 7.215 C 10.375 7.581,10.125 8.075,9.761 8.613 C 9.597 8.855,9.313 9.275,9.129 9.547 C 8.723 10.147,8.508 10.574,8.295 11.208 C 8.207 11.469,8.098 11.752,8.053 11.836 C 7.883 12.155,7.589 12.440,7.269 12.597 C 6.911 12.772,6.704 12.800,5.960 12.772 C 5.695 12.761,5.656 12.766,5.554 12.820 C 5.259 12.977,5.114 13.209,5.113 13.527 C 5.112 13.960,5.360 14.228,5.867 14.337 C 6.180 14.404,6.906 14.397,7.206 14.324 C 7.871 14.163,8.416 13.857,8.895 13.375 C 9.317 12.951,9.509 12.614,9.775 11.834 C 9.871 11.551,9.993 11.230,10.046 11.120 C 10.098 11.010,10.384 10.560,10.681 10.119 C 11.342 9.138,11.545 8.811,11.710 8.467 C 12.417 6.984,12.320 5.231,11.453 3.853 C 10.982 3.105,10.347 2.535,9.520 2.120 C 8.924 1.821,8.442 1.692,7.680 1.627 C 7.337 1.597,7.282 1.598,6.960 1.630 M6.840 4.077 C 6.317 4.208,5.761 4.564,5.590 4.878 C 5.443 5.149,5.477 5.473,5.680 5.730 C 5.836 5.928,5.987 6.007,6.239 6.021 C 6.473 6.035,6.583 5.998,6.873 5.809 C 7.092 5.667,7.204 5.629,7.413 5.628 C 7.642 5.627,7.814 5.707,7.980 5.891 C 8.126 6.053,8.160 6.154,8.160 6.420 C 8.160 6.602,8.152 6.630,8.015 6.893 C 7.731 7.442,7.695 7.584,7.776 7.824 C 7.832 7.985,8.067 8.243,8.234 8.324 C 8.404 8.406,8.654 8.405,8.843 8.323 C 9.171 8.179,9.514 7.635,9.712 6.942 C 9.797 6.644,9.798 6.103,9.712 5.806 C 9.500 5.063,8.935 4.429,8.259 4.175 C 7.867 4.027,7.219 3.983,6.840 4.077 " fill="#1A1C1F" stroke="none" fill-rule="evenodd"></path></svg>