<svg width="12" height="12" viewBox="0 0 12 12" fill="none" xmlns="http://www.w3.org/2000/svg"><path d="M5.210 1.221 C 4.742 1.274,4.344 1.387,3.969 1.576 C 3.460 1.831,3.042 2.159,2.922 2.396 C 2.796 2.643,2.894 2.982,3.134 3.136 C 3.310 3.249,3.533 3.264,3.710 3.175 C 3.754 3.153,3.862 3.079,3.950 3.011 C 4.322 2.723,4.597 2.577,4.927 2.491 C 5.108 2.444,5.159 2.440,5.538 2.440 C 6.003 2.440,6.146 2.464,6.445 2.592 C 7.151 2.894,7.654 3.473,7.855 4.214 C 7.904 4.394,7.908 4.441,7.908 4.800 C 7.909 5.146,7.904 5.210,7.862 5.370 C 7.762 5.751,7.639 5.975,7.017 6.906 C 6.754 7.300,6.498 7.704,6.448 7.803 C 6.398 7.903,6.300 8.153,6.231 8.359 C 6.161 8.565,6.079 8.785,6.049 8.847 C 5.897 9.157,5.583 9.419,5.220 9.539 C 5.112 9.575,5.043 9.583,4.815 9.583 C 4.664 9.583,4.501 9.577,4.453 9.569 C 4.159 9.525,3.897 9.727,3.820 10.055 C 3.799 10.148,3.801 10.176,3.837 10.295 C 3.916 10.553,4.060 10.673,4.390 10.754 C 4.581 10.800,5.130 10.801,5.332 10.755 C 5.916 10.620,6.286 10.413,6.695 9.992 C 7.023 9.655,7.126 9.474,7.319 8.900 C 7.484 8.407,7.601 8.190,8.103 7.440 C 8.604 6.693,8.735 6.472,8.867 6.148 C 9.069 5.657,9.124 5.359,9.126 4.760 C 9.126 4.445,9.119 4.310,9.092 4.180 C 8.936 3.418,8.599 2.779,8.080 2.260 C 7.631 1.811,7.044 1.478,6.424 1.321 C 6.074 1.233,5.515 1.187,5.210 1.221 M5.208 3.040 C 4.939 3.078,4.539 3.284,4.322 3.497 C 4.059 3.754,4.050 4.093,4.299 4.341 C 4.429 4.472,4.546 4.520,4.729 4.520 C 4.861 4.519,4.961 4.482,5.111 4.380 C 5.160 4.345,5.251 4.295,5.311 4.267 C 5.588 4.140,5.914 4.258,6.068 4.539 C 6.119 4.634,6.123 4.657,6.116 4.806 C 6.109 4.961,6.102 4.984,5.986 5.212 C 5.839 5.501,5.791 5.652,5.807 5.773 C 5.839 6.007,6.029 6.207,6.279 6.271 C 6.389 6.299,6.412 6.299,6.525 6.271 C 6.686 6.230,6.786 6.158,6.911 5.993 C 7.122 5.716,7.271 5.358,7.320 5.011 C 7.392 4.498,7.195 3.919,6.825 3.554 C 6.603 3.334,6.284 3.145,6.010 3.071 C 5.869 3.032,5.390 3.014,5.208 3.040 " fill="#1A1C1F" stroke="none" fill-rule="evenodd"></path></svg>