<svg width="24" height="24" viewBox="0 0 24 24" fill="none" xmlns="http://www.w3.org/2000/svg"><path d="M20.740 1.989 C 20.696 2.000,20.534 2.110,20.380 2.234 C 19.970 2.566,18.262 4.277,18.179 4.440 C 18.081 4.631,18.079 5.092,18.174 5.272 C 18.365 5.632,18.845 5.912,19.185 5.861 C 19.275 5.848,19.437 5.782,19.545 5.715 C 19.807 5.552,21.808 3.529,21.901 3.333 C 22.074 2.967,21.926 2.400,21.600 2.185 C 21.355 2.022,20.964 1.934,20.740 1.989 M10.380 2.107 C 8.926 2.227,7.584 2.770,6.332 3.745 C 5.795 4.164,5.599 4.473,5.601 4.896 C 5.603 5.327,5.999 5.748,6.473 5.823 C 6.754 5.869,6.947 5.783,7.516 5.359 C 8.354 4.734,8.905 4.447,9.630 4.258 C 10.839 3.944,12.338 4.088,13.406 4.622 C 14.804 5.320,15.869 6.628,16.287 8.160 C 16.372 8.472,16.379 8.580,16.380 9.480 C 16.380 10.380,16.372 10.488,16.288 10.800 C 16.095 11.509,15.724 12.232,15.008 13.295 C 14.754 13.672,14.310 14.331,14.022 14.760 C 13.332 15.785,13.111 16.226,12.739 17.324 C 12.572 17.817,12.372 18.333,12.295 18.471 C 11.786 19.383,10.842 19.962,9.759 20.028 C 9.328 20.054,8.980 19.997,8.333 19.797 C 8.030 19.703,7.899 19.681,7.760 19.700 C 6.919 19.818,6.566 20.763,7.146 21.344 C 7.323 21.520,7.732 21.719,8.220 21.864 C 8.641 21.990,9.313 22.036,10.120 21.994 C 10.524 21.973,10.696 21.943,11.017 21.840 C 12.013 21.520,12.763 21.044,13.433 20.304 C 13.960 19.723,14.258 19.160,14.617 18.066 C 14.985 16.949,15.138 16.664,16.243 15.056 C 17.624 13.046,18.030 12.234,18.310 10.922 C 18.409 10.460,18.417 10.347,18.417 9.500 C 18.417 8.814,18.399 8.488,18.350 8.220 C 17.863 5.585,16.027 3.413,13.519 2.506 C 12.606 2.175,11.401 2.022,10.380 2.107 M9.973 5.200 C 9.425 5.343,8.876 5.600,8.440 5.916 C 7.834 6.357,7.661 6.621,7.686 7.070 C 7.713 7.538,7.953 7.838,8.417 7.984 C 8.721 8.080,8.892 8.022,9.494 7.622 C 10.136 7.194,10.411 7.101,11.020 7.102 C 11.360 7.102,11.524 7.122,11.740 7.190 C 12.849 7.537,13.550 8.626,13.402 9.775 C 13.347 10.210,13.259 10.429,12.866 11.120 C 12.496 11.770,12.453 11.900,12.514 12.197 C 12.569 12.464,12.709 12.683,12.927 12.840 C 13.399 13.182,13.935 13.052,14.355 12.492 C 14.615 12.144,14.931 11.575,15.128 11.096 C 15.606 9.934,15.547 8.637,14.963 7.474 C 14.381 6.317,13.106 5.361,11.880 5.163 C 11.434 5.090,10.306 5.112,9.973 5.200 M7.378 15.245 C 7.156 15.385,2.321 20.219,2.137 20.484 C 2.036 20.630,2.020 20.689,2.021 20.917 C 2.024 21.360,2.283 21.720,2.715 21.882 C 2.972 21.979,3.151 21.966,3.414 21.834 C 3.599 21.740,5.730 19.642,7.620 17.691 C 8.711 16.566,8.795 16.469,8.839 16.285 C 8.934 15.887,8.678 15.366,8.302 15.195 C 8.195 15.147,8.045 15.121,7.858 15.121 C 7.610 15.120,7.552 15.135,7.378 15.245 " fill="#1A1C1F" stroke="none" fill-rule="evenodd"></path></svg>