<svg width="16" height="16" viewBox="0 0 16 16" fill="none" xmlns="http://www.w3.org/2000/svg"><path d="M13.422 1.624 C 13.247 1.669,13.068 1.806,12.693 2.184 C 12.286 2.594,12.151 2.767,12.104 2.945 C 12.019 3.257,12.243 3.682,12.573 3.837 C 12.663 3.879,12.745 3.893,12.900 3.893 C 13.192 3.893,13.294 3.827,13.808 3.310 C 14.318 2.798,14.383 2.694,14.383 2.398 C 14.383 2.056,14.240 1.831,13.933 1.690 C 13.784 1.621,13.551 1.591,13.422 1.624 M6.627 1.666 C 5.777 1.800,4.981 2.169,4.271 2.755 C 3.860 3.096,3.743 3.378,3.856 3.762 C 3.917 3.970,4.171 4.218,4.388 4.281 C 4.573 4.335,4.749 4.323,4.909 4.245 C 4.974 4.213,5.171 4.079,5.347 3.947 C 5.708 3.675,6.241 3.393,6.554 3.309 C 6.812 3.239,7.540 3.208,7.893 3.251 C 8.904 3.376,9.886 4.143,10.322 5.148 C 10.490 5.535,10.536 5.760,10.552 6.267 C 10.582 7.216,10.448 7.565,9.532 8.933 C 8.634 10.273,8.558 10.412,8.304 11.168 C 8.123 11.707,8.013 11.939,7.846 12.135 C 7.666 12.347,7.511 12.468,7.267 12.587 C 6.907 12.763,6.783 12.783,6.208 12.762 C 5.748 12.745,5.700 12.747,5.595 12.795 C 5.397 12.884,5.265 13.000,5.190 13.149 C 5.131 13.269,5.120 13.325,5.121 13.519 C 5.121 13.790,5.169 13.915,5.333 14.079 C 5.555 14.302,5.795 14.360,6.480 14.358 C 6.911 14.357,7.041 14.347,7.242 14.301 C 8.049 14.113,8.689 13.688,9.248 12.969 C 9.408 12.763,9.569 12.416,9.747 11.895 C 10.024 11.082,10.082 10.971,10.736 10.027 C 11.236 9.304,11.515 8.857,11.692 8.496 C 12.213 7.429,12.330 6.113,11.996 5.072 C 11.841 4.586,11.596 4.057,11.368 3.714 C 11.124 3.346,10.427 2.661,10.027 2.396 C 9.587 2.105,8.913 1.819,8.438 1.720 C 7.983 1.626,7.053 1.598,6.627 1.666 M6.800 4.070 C 6.559 4.133,6.079 4.386,5.879 4.553 C 5.561 4.822,5.465 5.027,5.508 5.343 C 5.557 5.703,5.848 5.980,6.217 6.018 C 6.415 6.038,6.534 5.999,6.844 5.814 C 7.148 5.632,7.303 5.589,7.529 5.626 C 7.712 5.656,7.815 5.708,7.942 5.836 C 8.107 6.000,8.147 6.110,8.147 6.400 L 8.147 6.653 7.981 6.947 C 7.729 7.393,7.693 7.617,7.824 7.931 C 7.955 8.245,8.399 8.444,8.750 8.346 C 9.184 8.226,9.669 7.409,9.761 6.643 C 9.829 6.078,9.662 5.435,9.334 4.999 C 9.008 4.565,8.412 4.168,7.933 4.067 C 7.687 4.015,7.003 4.017,6.800 4.070 M5.726 9.332 C 5.671 9.343,5.557 9.399,5.473 9.456 C 5.301 9.573,3.377 11.470,2.383 12.501 C 2.026 12.872,1.707 13.226,1.675 13.288 C 1.584 13.462,1.590 13.752,1.688 13.952 C 1.817 14.215,2.041 14.362,2.358 14.391 C 2.648 14.418,2.714 14.372,3.567 13.547 C 4.994 12.166,6.486 10.637,6.607 10.431 C 6.705 10.264,6.711 9.969,6.620 9.784 C 6.459 9.458,6.072 9.262,5.726 9.332 " fill="#1A1C1F" stroke="none" fill-rule="evenodd"></path></svg>