<svg width="12" height="12" viewBox="0 0 12 12" fill="none" xmlns="http://www.w3.org/2000/svg"><path d="M5.230 1.220 C 4.772 1.258,4.400 1.367,3.930 1.601 C 3.434 1.847,3.016 2.173,2.916 2.392 C 2.853 2.529,2.852 2.775,2.914 2.890 C 2.972 2.998,3.132 3.151,3.229 3.191 C 3.325 3.231,3.542 3.236,3.646 3.202 C 3.687 3.188,3.840 3.087,3.986 2.978 C 4.376 2.684,4.732 2.516,5.088 2.455 C 5.166 2.442,5.388 2.431,5.580 2.431 C 5.880 2.432,5.954 2.438,6.100 2.477 C 6.973 2.711,7.650 3.393,7.864 4.254 C 7.922 4.488,7.928 5.044,7.875 5.290 C 7.796 5.658,7.640 5.968,7.222 6.590 C 7.052 6.843,6.837 7.163,6.745 7.300 C 6.508 7.652,6.350 7.982,6.202 8.434 C 6.103 8.739,6.058 8.846,5.979 8.966 C 5.798 9.242,5.532 9.440,5.213 9.538 C 5.091 9.575,5.026 9.580,4.633 9.580 L 4.189 9.580 4.084 9.651 C 3.914 9.766,3.800 9.965,3.800 10.150 C 3.800 10.260,3.859 10.415,3.939 10.517 C 4.088 10.705,4.352 10.782,4.850 10.785 C 5.179 10.787,5.383 10.758,5.630 10.676 C 6.180 10.492,6.670 10.117,6.984 9.641 C 7.124 9.428,7.187 9.285,7.322 8.878 C 7.387 8.680,7.482 8.436,7.532 8.336 C 7.582 8.236,7.769 7.940,7.947 7.677 C 8.462 6.917,8.594 6.708,8.740 6.414 C 9.049 5.793,9.181 5.153,9.124 4.548 C 9.035 3.612,8.684 2.858,8.046 2.238 C 7.293 1.507,6.263 1.135,5.230 1.220 M9.940 1.274 C 9.821 1.333,9.275 1.860,9.164 2.023 C 9.056 2.181,9.037 2.394,9.113 2.580 C 9.152 2.675,9.312 2.837,9.410 2.880 C 9.598 2.964,9.815 2.947,9.977 2.835 C 10.123 2.735,10.663 2.179,10.724 2.067 C 10.935 1.679,10.645 1.220,10.189 1.220 C 10.076 1.220,10.026 1.231,9.940 1.274 M5.230 3.034 C 5.028 3.061,4.763 3.169,4.546 3.312 C 4.166 3.564,4.029 3.868,4.163 4.161 C 4.270 4.393,4.428 4.501,4.683 4.516 C 4.825 4.524,4.848 4.520,4.964 4.463 C 5.033 4.429,5.134 4.369,5.187 4.331 C 5.311 4.241,5.415 4.213,5.593 4.225 C 5.923 4.246,6.145 4.515,6.113 4.856 C 6.103 4.964,6.079 5.027,5.963 5.247 C 5.808 5.542,5.786 5.627,5.821 5.794 C 5.854 5.955,5.902 6.040,6.017 6.143 C 6.265 6.366,6.653 6.321,6.870 6.045 C 6.993 5.887,7.150 5.597,7.236 5.367 L 7.309 5.170 7.309 4.800 C 7.310 4.461,7.306 4.418,7.262 4.290 C 7.152 3.967,7.010 3.750,6.745 3.499 C 6.436 3.206,6.139 3.066,5.770 3.039 C 5.543 3.022,5.335 3.020,5.230 3.034 M4.166 7.048 C 4.092 7.082,3.195 7.950,2.259 8.893 C 1.257 9.903,1.233 9.931,1.208 10.145 C 1.189 10.310,1.238 10.453,1.360 10.586 C 1.488 10.726,1.622 10.788,1.800 10.789 C 2.045 10.791,2.041 10.794,3.172 9.674 C 4.326 8.532,4.880 7.956,4.944 7.834 C 5.007 7.713,5.007 7.485,4.945 7.358 C 4.890 7.246,4.778 7.130,4.670 7.074 C 4.566 7.020,4.263 7.004,4.166 7.048 " fill="#1A1C1F" stroke="none" fill-rule="evenodd"></path></svg>