<svg width="28" height="28" viewBox="0 0 28 28" fill="none" xmlns="http://www.w3.org/2000/svg"><path d="M8.578 1.821 C 7.781 1.947,6.929 2.680,6.594 3.529 C 6.481 3.814,6.467 3.912,6.466 4.410 C 6.464 5.061,6.531 5.331,6.800 5.776 C 7.546 7.009,9.002 7.462,10.256 6.852 C 10.697 6.637,11.315 6.019,11.521 5.588 C 11.675 5.267,11.804 4.766,11.806 4.490 C 11.807 4.223,11.664 3.633,11.523 3.321 C 11.209 2.628,10.568 2.082,9.841 1.887 C 9.513 1.800,8.911 1.768,8.578 1.821 M9.563 3.638 C 9.926 3.823,10.067 4.111,10.023 4.575 C 9.997 4.840,9.857 5.069,9.623 5.230 C 9.489 5.321,9.402 5.341,9.123 5.341 C 8.826 5.341,8.766 5.325,8.616 5.211 C 8.089 4.809,8.122 3.946,8.676 3.655 C 8.939 3.517,9.311 3.509,9.563 3.638 M8.213 8.526 C 7.853 8.714,5.919 10.272,5.361 10.824 L 5.005 11.177 4.768 11.923 C 4.449 12.925,4.044 14.313,3.939 14.763 L 3.854 15.129 3.986 15.381 C 4.162 15.718,4.365 15.843,4.737 15.843 C 5.095 15.843,5.299 15.728,5.445 15.446 C 5.544 15.255,5.904 14.180,6.394 12.619 L 6.585 12.008 6.968 11.716 L 7.350 11.425 7.364 11.582 C 7.372 11.669,7.303 12.495,7.212 13.418 C 7.121 14.341,7.028 15.369,7.005 15.701 L 6.963 16.306 7.201 16.658 C 7.489 17.086,8.328 18.258,9.013 19.191 L 9.518 19.878 10.153 21.874 C 11.346 25.627,11.393 25.764,11.547 25.939 C 12.052 26.515,13.020 26.168,13.020 25.411 C 13.020 25.206,12.818 24.515,11.897 21.560 L 11.133 19.110 9.941 17.481 L 8.749 15.853 9.013 13.219 C 9.326 10.107,9.390 9.298,9.336 9.110 C 9.200 8.636,8.601 8.325,8.213 8.526 M10.353 10.541 C 10.133 10.681,9.940 10.986,9.940 11.194 C 9.940 11.344,10.199 12.350,10.390 12.941 C 10.579 13.527,10.725 13.721,11.624 14.579 C 12.207 15.135,12.508 15.354,12.691 15.353 C 12.893 15.352,13.279 15.141,13.422 14.954 C 13.539 14.800,13.557 14.737,13.557 14.466 C 13.557 14.172,13.546 14.142,13.371 13.928 C 13.269 13.803,12.938 13.445,12.635 13.132 L 12.085 12.563 11.850 11.753 C 11.559 10.746,11.512 10.650,11.251 10.514 C 10.951 10.358,10.627 10.368,10.353 10.541 M14.068 15.720 C 13.734 15.924,13.589 16.232,13.641 16.628 C 13.665 16.814,13.777 16.933,15.899 19.040 C 18.663 21.784,21.162 24.207,21.345 24.318 C 21.594 24.469,21.815 24.476,22.089 24.342 C 22.449 24.166,22.633 23.867,22.633 23.457 C 22.633 23.272,22.606 23.240,21.502 22.130 C 19.404 20.022,15.111 15.877,14.863 15.722 C 14.675 15.603,14.261 15.603,14.068 15.720 M6.627 18.201 C 6.284 18.282,6.202 18.451,4.800 21.956 C 3.675 24.772,3.482 25.316,3.527 25.556 C 3.599 25.939,4.081 26.263,4.508 26.215 C 4.926 26.168,4.985 26.077,5.689 24.397 C 6.546 22.351,7.619 19.606,7.744 19.142 C 7.834 18.810,7.660 18.418,7.363 18.281 C 7.162 18.189,6.830 18.152,6.627 18.201 M23.403 24.550 C 23.205 24.608,22.913 24.862,22.838 25.043 C 22.615 25.576,23.048 26.227,23.625 26.227 C 23.981 26.227,24.413 25.858,24.481 25.496 C 24.547 25.145,24.204 24.658,23.815 24.550 C 23.611 24.494,23.594 24.494,23.403 24.550 " fill="#1A1C1F" stroke="none" fill-rule="evenodd"></path></svg>