<svg width="20" height="20" viewBox="0 0 20 20" fill="none" xmlns="http://www.w3.org/2000/svg"><path d="M8.167 2.033 C 7.800 2.080,7.338 2.395,7.105 2.760 C 6.915 3.055,6.854 3.482,6.945 3.872 C 7.110 4.572,7.908 5.103,8.601 4.974 C 9.416 4.823,9.969 4.085,9.861 3.294 C 9.821 3.000,9.699 2.761,9.466 2.519 C 9.102 2.140,8.652 1.971,8.167 2.033 M8.377 7.096 C 8.061 7.244,7.825 7.565,7.780 7.907 C 7.759 8.077,7.837 8.390,8.250 9.783 C 9.016 12.369,9.091 12.575,9.330 12.764 C 9.586 12.967,9.610 12.970,11.231 13.003 C 12.046 13.019,12.725 13.045,12.740 13.060 C 12.755 13.075,13.166 14.076,13.653 15.285 L 14.538 17.483 14.727 17.659 C 14.994 17.906,15.148 17.974,15.444 17.974 C 15.738 17.974,15.900 17.912,16.096 17.723 C 16.396 17.434,16.472 17.075,16.330 16.612 C 16.197 16.177,14.624 12.311,14.400 11.866 C 14.188 11.446,13.728 11.083,13.360 11.044 C 13.281 11.035,12.671 11.018,12.004 11.006 L 10.791 10.983 10.511 10.100 C 10.046 8.633,9.730 7.692,9.647 7.527 C 9.563 7.361,9.443 7.255,9.200 7.131 C 8.986 7.023,8.571 7.005,8.377 7.096 M5.173 10.082 C 5.112 10.109,4.967 10.224,4.849 10.336 C 4.380 10.787,3.954 11.569,3.708 12.430 C 3.622 12.732,3.617 12.788,3.617 13.433 C 3.617 14.175,3.633 14.286,3.819 14.867 C 4.054 15.599,4.318 16.019,4.932 16.638 C 5.529 17.238,5.920 17.486,6.706 17.762 C 7.190 17.931,7.440 17.968,8.110 17.968 C 8.793 17.968,8.952 17.946,9.459 17.778 C 10.183 17.539,10.691 17.242,11.155 16.784 C 11.392 16.551,11.434 16.492,11.484 16.319 C 11.627 15.826,11.444 15.366,11.002 15.106 C 10.869 15.028,10.815 15.017,10.567 15.017 C 10.233 15.018,10.144 15.056,9.702 15.390 C 9.394 15.623,8.917 15.869,8.650 15.932 C 8.559 15.954,8.296 15.971,8.067 15.971 C 7.587 15.970,7.348 15.912,6.933 15.696 C 6.465 15.453,6.102 15.085,5.852 14.600 C 5.618 14.146,5.591 14.013,5.607 13.388 C 5.619 12.899,5.628 12.831,5.708 12.641 C 5.817 12.381,5.990 12.096,6.235 11.769 C 6.521 11.388,6.545 11.327,6.547 11.000 C 6.548 10.786,6.533 10.688,6.486 10.600 C 6.370 10.382,6.239 10.247,6.047 10.150 C 5.889 10.070,5.806 10.052,5.570 10.043 C 5.367 10.035,5.251 10.047,5.173 10.082 " fill="#1A1C1F" stroke="none" fill-rule="evenodd"></path></svg>