<svg width="28" height="28" viewBox="0 0 28 28" fill="none" xmlns="http://www.w3.org/2000/svg"><path d="M10.342 1.820 C 9.890 1.901,9.395 2.177,8.970 2.584 C 8.436 3.095,8.189 3.707,8.194 4.503 C 8.199 5.265,8.437 5.795,9.032 6.372 C 9.563 6.888,10.125 7.113,10.873 7.109 C 11.662 7.105,12.158 6.890,12.741 6.303 C 13.215 5.825,13.429 5.394,13.490 4.791 C 13.573 3.982,13.414 3.395,12.953 2.809 C 12.611 2.374,12.086 2.026,11.554 1.884 C 11.242 1.800,10.628 1.768,10.342 1.820 M11.392 3.676 C 11.905 3.993,11.907 4.864,11.396 5.203 C 10.779 5.611,9.965 5.183,9.971 4.455 C 9.974 4.174,10.056 4.004,10.307 3.761 C 10.588 3.489,11.033 3.454,11.392 3.676 M8.256 8.511 C 7.854 8.654,7.276 9.302,6.603 10.364 C 5.344 12.349,5.067 14.250,5.804 15.838 C 6.026 16.316,6.352 16.697,7.904 18.293 C 8.665 19.076,9.340 19.791,9.404 19.882 C 9.506 20.028,9.572 20.366,9.980 22.808 C 10.301 24.728,10.469 25.621,10.532 25.743 C 10.809 26.277,11.459 26.391,11.870 25.979 C 12.192 25.656,12.195 25.614,11.987 24.236 C 11.781 22.866,11.380 20.431,11.238 19.680 L 11.142 19.176 10.757 18.746 C 10.546 18.510,9.810 17.739,9.123 17.033 C 7.781 15.656,7.570 15.415,7.390 15.061 C 7.143 14.572,7.134 13.492,7.372 12.787 C 7.528 12.325,7.843 11.701,8.216 11.113 L 8.553 10.584 9.258 11.280 C 9.646 11.662,10.112 12.113,10.295 12.280 L 10.626 12.585 11.321 12.777 C 12.938 13.223,13.301 13.282,13.571 13.141 C 13.983 12.927,14.155 12.400,13.956 11.961 C 13.887 11.810,13.813 11.738,13.634 11.647 C 13.425 11.541,11.745 11.060,11.585 11.060 C 11.550 11.060,10.964 10.516,10.284 9.851 C 9.604 9.186,8.981 8.611,8.899 8.573 C 8.669 8.467,8.440 8.445,8.256 8.511 M15.672 12.315 C 15.285 12.359,15.070 12.506,14.955 12.807 C 14.851 13.080,14.894 13.371,15.075 13.621 C 15.289 13.916,15.430 13.968,16.110 13.997 C 16.553 14.017,16.722 14.041,16.775 14.094 C 16.814 14.134,16.972 14.655,17.126 15.252 C 17.590 17.052,17.645 17.192,17.965 17.379 C 18.111 17.465,18.238 17.476,19.400 17.503 C 20.101 17.519,20.687 17.545,20.703 17.561 C 20.737 17.595,20.874 17.431,19.015 19.577 C 16.454 22.533,16.532 22.429,16.586 22.817 C 16.653 23.311,17.180 23.691,17.630 23.569 C 17.819 23.518,18.171 23.181,18.946 22.307 C 19.514 21.666,19.975 21.187,20.023 21.187 C 20.086 21.187,20.104 21.239,20.303 21.986 C 20.408 22.381,20.539 22.787,20.595 22.888 C 20.875 23.398,21.587 23.470,21.976 23.028 C 22.136 22.845,22.190 22.627,22.153 22.311 C 22.138 22.190,21.987 21.515,21.817 20.810 C 21.527 19.612,21.512 19.521,21.575 19.390 C 21.612 19.313,21.920 18.924,22.259 18.527 C 23.218 17.401,23.481 17.070,23.555 16.895 C 23.682 16.594,23.540 16.145,23.249 15.922 L 23.084 15.797 21.075 15.773 L 19.066 15.750 18.758 14.560 C 18.283 12.723,18.209 12.538,17.877 12.367 C 17.744 12.298,16.155 12.261,15.672 12.315 M5.747 18.210 C 5.484 18.299,5.346 18.483,5.189 18.958 C 4.940 19.709,3.626 24.722,3.526 25.303 C 3.487 25.533,3.580 25.742,3.817 25.956 C 4.150 26.257,4.552 26.285,4.882 26.029 C 5.092 25.868,5.116 25.819,5.291 25.223 C 5.698 23.837,6.758 19.730,6.860 19.142 C 6.907 18.874,6.903 18.828,6.811 18.640 C 6.637 18.278,6.141 18.078,5.747 18.210 M14.875 23.727 C 14.380 23.903,14.000 24.434,14.000 24.949 C 14.000 25.227,14.179 25.608,14.425 25.854 C 14.611 26.040,14.719 26.104,14.979 26.183 C 15.284 26.276,15.317 26.277,15.550 26.209 C 16.057 26.061,16.442 25.697,16.567 25.248 C 16.830 24.300,15.819 23.390,14.875 23.727 M22.741 23.719 C 22.212 23.924,21.910 24.372,21.916 24.942 C 21.920 25.325,22.003 25.542,22.246 25.811 C 22.517 26.111,22.732 26.202,23.170 26.202 C 23.616 26.202,23.817 26.113,24.121 25.784 C 24.379 25.504,24.468 25.290,24.469 24.943 C 24.471 24.235,23.953 23.711,23.217 23.677 C 23.030 23.668,22.826 23.686,22.741 23.719 " fill="#1A1C1F" stroke="none" fill-rule="evenodd"></path></svg>