<svg width="14" height="14" viewBox="0 0 14 14" fill="none" xmlns="http://www.w3.org/2000/svg"><path d="M4.441 1.433 C 4.140 1.506,3.852 1.738,3.707 2.023 C 3.631 2.174,3.628 2.189,3.628 2.449 C 3.628 2.708,3.631 2.726,3.707 2.878 C 4.068 3.613,5.015 3.706,5.496 3.053 C 5.948 2.438,5.586 1.567,4.820 1.426 C 4.651 1.394,4.596 1.396,4.441 1.433 M4.311 4.115 C 4.216 4.151,3.359 4.599,2.781 4.916 C 2.380 5.136,2.082 5.320,2.024 5.384 C 1.974 5.439,1.761 6.067,1.570 6.720 C 1.389 7.341,1.375 7.476,1.475 7.665 C 1.606 7.915,1.828 8.058,2.088 8.060 C 2.358 8.063,2.561 7.949,2.677 7.731 C 2.749 7.596,2.898 7.166,3.070 6.595 L 3.160 6.295 3.392 6.179 L 3.624 6.063 3.609 6.211 C 3.600 6.292,3.550 6.689,3.496 7.093 L 3.399 7.828 2.829 9.217 C 1.906 11.464,1.820 11.690,1.820 11.873 C 1.821 12.196,2.010 12.435,2.348 12.542 C 2.465 12.578,2.496 12.580,2.600 12.554 C 2.764 12.512,2.914 12.432,3.005 12.338 C 3.095 12.243,3.160 12.099,3.747 10.681 C 4.230 9.513,4.237 9.497,4.269 9.497 C 4.301 9.497,4.489 9.749,4.556 9.882 C 4.588 9.946,4.762 10.424,4.941 10.943 C 5.440 12.387,5.427 12.359,5.658 12.473 C 6.024 12.652,6.422 12.526,6.601 12.174 C 6.734 11.914,6.731 11.896,6.371 10.815 C 6.200 10.302,6.009 9.740,5.947 9.567 C 5.822 9.221,5.758 9.115,5.297 8.482 C 5.147 8.276,4.985 8.048,4.936 7.974 L 4.846 7.840 4.860 7.636 C 4.877 7.382,4.987 6.585,5.014 6.522 C 5.032 6.479,5.042 6.483,5.136 6.581 C 5.192 6.639,5.350 6.803,5.487 6.945 C 5.787 7.256,5.849 7.291,6.102 7.291 C 6.259 7.291,6.310 7.280,6.424 7.225 C 6.653 7.113,6.789 6.885,6.789 6.612 C 6.790 6.342,6.752 6.287,5.843 5.227 C 5.209 4.488,4.940 4.206,4.818 4.152 C 4.688 4.094,4.421 4.074,4.311 4.115 M7.303 7.472 C 6.887 7.677,6.771 8.198,7.064 8.540 C 7.211 8.712,9.361 10.610,9.821 10.974 C 10.064 11.166,10.138 11.200,10.315 11.200 C 10.707 11.200,11.019 10.890,11.022 10.500 C 11.024 10.219,10.958 10.143,9.938 9.238 C 8.651 8.096,7.984 7.535,7.828 7.464 C 7.691 7.401,7.439 7.405,7.303 7.472 M11.702 11.239 C 11.607 11.266,11.407 11.418,11.343 11.512 C 11.306 11.565,11.264 11.648,11.248 11.696 C 11.206 11.826,11.214 12.046,11.265 12.162 C 11.320 12.287,11.508 12.477,11.631 12.533 C 11.759 12.591,12.041 12.591,12.168 12.533 C 12.287 12.479,12.477 12.289,12.533 12.168 C 12.591 12.041,12.591 11.760,12.533 11.631 C 12.481 11.517,12.290 11.321,12.189 11.279 C 12.108 11.245,11.776 11.218,11.702 11.239 " fill="#1A1C1F" stroke="none" fill-rule="evenodd"></path></svg>