<svg width="28" height="28" viewBox="0 0 28 28" fill="none" xmlns="http://www.w3.org/2000/svg"><path d="M9.660 2.056 C 9.151 2.145,8.481 2.568,8.079 3.056 C 7.845 3.339,7.632 3.767,7.532 4.157 C 7.433 4.539,7.467 5.258,7.603 5.693 C 7.887 6.601,8.866 7.435,9.801 7.567 C 10.255 7.631,10.906 7.582,11.215 7.461 C 12.360 7.010,13.075 5.991,13.078 4.807 C 13.081 3.612,12.318 2.544,11.176 2.142 C 10.856 2.030,10.067 1.985,9.660 2.056 M10.553 3.800 C 10.787 3.840,11.076 4.062,11.225 4.316 C 11.335 4.503,11.348 4.568,11.332 4.848 C 11.311 5.235,11.163 5.490,10.847 5.691 C 10.470 5.930,10.026 5.918,9.645 5.658 C 9.379 5.476,9.269 5.229,9.266 4.807 C 9.263 4.361,9.369 4.139,9.677 3.947 C 9.890 3.815,10.172 3.731,10.313 3.758 C 10.352 3.766,10.460 3.785,10.553 3.800 M9.630 9.476 C 9.051 9.577,8.514 9.908,8.370 10.251 C 8.187 10.690,8.458 11.214,8.954 11.380 C 9.085 11.424,9.188 11.413,9.580 11.313 C 10.314 11.127,10.609 11.156,10.909 11.446 C 11.093 11.624,11.200 11.894,11.763 13.606 C 11.998 14.323,12.232 14.990,12.281 15.087 C 12.334 15.193,12.459 15.321,12.588 15.402 L 12.805 15.540 15.680 15.540 L 18.555 15.540 18.767 15.406 C 19.090 15.201,19.196 15.022,19.200 14.678 C 19.203 14.439,19.182 14.357,19.075 14.196 C 18.870 13.887,18.754 13.850,17.850 13.809 C 17.414 13.789,16.288 13.771,15.348 13.769 L 13.639 13.767 13.255 12.635 C 12.779 11.234,12.629 10.863,12.427 10.584 C 12.086 10.112,11.465 9.665,10.985 9.547 C 10.626 9.459,9.933 9.422,9.630 9.476 M6.382 15.014 C 5.938 15.080,5.013 16.452,4.690 17.523 C 4.471 18.252,4.413 18.680,4.412 19.600 C 4.411 20.391,4.422 20.506,4.540 20.974 C 4.866 22.263,5.441 23.281,6.347 24.174 C 7.226 25.041,8.470 25.695,9.674 25.923 C 10.184 26.020,11.505 26.018,11.980 25.920 C 12.481 25.816,13.257 25.555,13.697 25.342 C 15.018 24.703,16.613 22.972,16.613 22.178 C 16.613 21.733,16.243 21.373,15.785 21.373 C 15.388 21.373,15.241 21.484,14.735 22.167 C 14.409 22.607,13.786 23.227,13.405 23.492 C 13.087 23.713,12.354 24.036,11.890 24.159 C 11.674 24.216,11.393 24.237,10.827 24.238 C 10.116 24.239,10.024 24.230,9.637 24.111 C 8.231 23.679,7.127 22.713,6.527 21.389 C 6.249 20.777,6.193 20.460,6.192 19.507 C 6.191 18.772,6.205 18.590,6.289 18.287 C 6.406 17.863,6.678 17.305,7.050 16.729 C 7.415 16.165,7.482 15.995,7.444 15.738 C 7.411 15.516,7.178 15.212,6.957 15.100 C 6.811 15.026,6.555 14.988,6.382 15.014 M14.233 17.310 C 13.109 17.340,12.954 17.378,12.753 17.680 C 12.505 18.053,12.571 18.422,12.953 18.795 L 13.205 19.040 16.367 19.040 L 19.530 19.040 19.969 20.055 C 20.737 21.828,21.704 23.996,21.917 24.420 C 22.062 24.709,22.166 24.856,22.271 24.920 C 22.577 25.106,23.034 25.082,23.310 24.865 C 23.451 24.754,23.611 24.444,23.612 24.276 C 23.614 24.101,23.331 23.392,22.238 20.837 C 20.938 17.799,20.852 17.620,20.615 17.463 C 20.433 17.343,20.429 17.342,19.094 17.308 C 17.610 17.270,15.758 17.271,14.233 17.310 " fill="#1A1C1F" stroke="none" fill-rule="evenodd"></path></svg>