<svg width="12" height="12" viewBox="0 0 12 12" fill="none" xmlns="http://www.w3.org/2000/svg"><path d="M3.792 1.232 C 3.562 1.287,3.341 1.459,3.203 1.688 C 3.067 1.912,3.067 2.288,3.202 2.511 C 3.467 2.948,3.956 3.114,4.375 2.908 C 4.701 2.749,4.936 2.327,4.881 2.000 C 4.813 1.592,4.526 1.295,4.129 1.222 C 3.984 1.195,3.940 1.196,3.792 1.232 M3.359 3.695 C 2.514 4.130,1.816 4.525,1.735 4.615 C 1.692 4.662,1.510 5.200,1.346 5.760 C 1.191 6.292,1.179 6.408,1.264 6.570 C 1.376 6.784,1.567 6.907,1.790 6.909 C 2.022 6.911,2.195 6.814,2.295 6.625 C 2.359 6.507,2.489 6.129,2.632 5.653 L 2.708 5.396 2.904 5.298 C 3.093 5.203,3.100 5.201,3.100 5.245 C 3.100 5.288,3.030 5.847,2.949 6.450 L 2.914 6.710 2.340 8.110 C 1.520 10.110,1.522 10.103,1.571 10.292 C 1.632 10.527,1.758 10.667,1.975 10.743 C 2.118 10.794,2.223 10.783,2.394 10.699 C 2.624 10.586,2.609 10.617,3.310 8.921 C 3.628 8.151,3.633 8.140,3.660 8.140 C 3.687 8.140,3.847 8.356,3.905 8.470 C 3.933 8.525,4.047 8.835,4.159 9.160 C 4.615 10.485,4.639 10.547,4.742 10.625 C 4.840 10.699,4.953 10.741,5.090 10.753 C 5.394 10.782,5.647 10.588,5.718 10.272 C 5.741 10.168,5.739 10.146,5.689 9.975 C 5.570 9.569,5.053 8.061,4.988 7.930 C 4.950 7.853,4.761 7.574,4.568 7.310 C 4.375 7.046,4.203 6.803,4.186 6.771 C 4.161 6.725,4.157 6.674,4.166 6.541 C 4.180 6.327,4.275 5.644,4.298 5.590 C 4.313 5.553,4.321 5.557,4.402 5.641 C 4.451 5.691,4.586 5.831,4.703 5.953 C 4.960 6.219,5.014 6.250,5.230 6.250 C 5.366 6.250,5.408 6.241,5.506 6.193 C 5.748 6.074,5.886 5.747,5.801 5.494 C 5.761 5.372,5.514 5.064,4.798 4.240 C 4.209 3.563,4.170 3.530,3.894 3.507 L 3.747 3.495 3.359 3.695 M6.248 6.412 C 6.116 6.481,6.028 6.569,5.969 6.691 C 5.877 6.878,5.910 7.146,6.043 7.307 C 6.146 7.432,8.029 9.098,8.426 9.415 C 8.525 9.494,8.638 9.569,8.676 9.582 C 8.779 9.616,9.013 9.595,9.116 9.542 C 9.425 9.384,9.541 8.974,9.355 8.699 C 9.291 8.605,8.301 7.715,7.330 6.879 C 6.749 6.379,6.721 6.361,6.488 6.360 C 6.373 6.360,6.327 6.370,6.248 6.412 M9.965 9.663 C 9.787 9.750,9.638 9.954,9.609 10.153 C 9.587 10.293,9.644 10.440,9.771 10.578 C 9.917 10.735,10.011 10.780,10.197 10.780 C 10.374 10.780,10.450 10.750,10.581 10.627 C 10.744 10.474,10.787 10.385,10.785 10.200 C 10.784 10.087,10.773 10.024,10.743 9.966 C 10.686 9.854,10.501 9.691,10.387 9.652 C 10.255 9.607,10.070 9.612,9.965 9.663 " fill="#1A1C1F" stroke="none" fill-rule="evenodd"></path></svg>