<svg width="16" height="16" viewBox="0 0 16 16" fill="none" xmlns="http://www.w3.org/2000/svg"><path d="M5.079 1.637 C 5.005 1.655,4.885 1.698,4.812 1.733 C 4.629 1.821,4.321 2.135,4.225 2.333 C 4.152 2.482,4.147 2.515,4.147 2.801 C 4.147 3.094,4.151 3.116,4.234 3.286 C 4.440 3.703,4.891 3.999,5.324 4.000 C 5.620 4.000,6.017 3.811,6.223 3.571 C 6.356 3.415,6.474 3.170,6.511 2.972 C 6.535 2.842,6.533 2.773,6.500 2.612 C 6.442 2.329,6.360 2.170,6.175 1.986 C 5.980 1.794,5.797 1.691,5.554 1.639 C 5.340 1.594,5.259 1.594,5.079 1.637 M4.985 4.692 C 4.849 4.718,2.918 5.734,2.587 5.955 C 2.295 6.148,2.257 6.215,2.030 6.916 C 1.614 8.200,1.551 8.531,1.676 8.769 C 1.822 9.047,2.097 9.227,2.377 9.227 C 2.614 9.227,2.727 9.183,2.925 9.015 L 3.101 8.867 3.338 8.093 C 3.468 7.668,3.589 7.291,3.607 7.256 C 3.627 7.217,3.740 7.139,3.891 7.058 L 4.142 6.924 4.125 7.109 C 4.115 7.210,4.058 7.665,3.998 8.120 L 3.889 8.947 3.253 10.493 C 2.170 13.131,2.080 13.369,2.080 13.585 C 2.080 13.887,2.237 14.129,2.524 14.270 C 2.667 14.341,2.729 14.356,2.866 14.355 C 3.066 14.353,3.275 14.268,3.410 14.133 C 3.527 14.016,3.676 13.686,4.355 12.038 C 4.704 11.193,4.855 10.853,4.882 10.853 C 4.895 10.853,4.982 10.955,5.076 11.080 L 5.247 11.306 5.623 12.425 C 6.154 14.004,6.205 14.113,6.492 14.259 C 6.851 14.442,7.286 14.327,7.506 13.991 C 7.633 13.798,7.663 13.666,7.626 13.460 C 7.593 13.273,6.919 11.232,6.748 10.800 C 6.615 10.465,6.625 10.481,6.006 9.630 L 5.513 8.953 5.611 8.228 C 5.715 7.460,5.729 7.380,5.759 7.392 C 5.770 7.397,5.939 7.578,6.136 7.796 C 6.572 8.279,6.655 8.332,6.973 8.332 C 7.155 8.332,7.207 8.321,7.320 8.260 C 7.566 8.127,7.685 7.980,7.748 7.736 C 7.802 7.524,7.781 7.349,7.682 7.195 C 7.550 6.990,6.160 5.348,5.806 4.980 C 5.705 4.875,5.585 4.779,5.517 4.750 C 5.385 4.693,5.127 4.665,4.985 4.692 M8.325 8.562 C 8.107 8.671,7.966 8.852,7.895 9.112 C 7.871 9.202,7.874 9.262,7.909 9.419 L 7.952 9.613 8.276 9.935 C 8.754 10.410,10.513 11.960,11.203 12.514 C 11.502 12.754,11.598 12.800,11.803 12.800 C 12.118 12.800,12.355 12.656,12.500 12.377 C 12.574 12.232,12.587 12.182,12.586 12.018 C 12.586 11.888,12.569 11.791,12.535 11.716 C 12.453 11.535,12.022 11.129,10.404 9.711 C 9.071 8.542,8.983 8.480,8.669 8.480 C 8.521 8.480,8.459 8.495,8.325 8.562 M13.314 12.865 C 13.266 12.886,13.166 12.961,13.091 13.031 C 12.721 13.377,12.719 13.810,13.084 14.165 C 13.252 14.329,13.365 14.373,13.606 14.373 C 13.846 14.372,13.968 14.320,14.139 14.143 C 14.316 13.959,14.411 13.741,14.392 13.560 C 14.366 13.307,14.169 13.023,13.933 12.900 C 13.795 12.827,13.440 12.807,13.314 12.865 " fill="#1A1C1F" stroke="none" fill-rule="evenodd"></path></svg>