<svg width="24" height="24" viewBox="0 0 24 24" fill="none" xmlns="http://www.w3.org/2000/svg"><path d="M9.907 2.043 C 9.183 2.152,8.492 2.839,8.353 3.588 C 8.184 4.493,8.913 5.488,9.914 5.720 C 10.167 5.779,10.440 5.754,10.776 5.640 C 11.625 5.354,12.193 4.439,12.043 3.599 C 11.859 2.574,10.921 1.890,9.907 2.043 M7.830 7.335 C 7.489 7.462,6.773 8.111,6.489 8.551 C 6.002 9.305,5.734 10.521,5.838 11.507 C 5.921 12.292,6.202 13.494,6.384 13.848 C 6.464 14.002,7.274 15.080,8.192 16.253 L 8.975 17.254 8.999 19.257 C 9.027 21.512,9.014 21.415,9.341 21.716 C 9.581 21.938,9.892 22.028,10.188 21.962 C 10.439 21.906,10.688 21.729,10.859 21.485 L 10.980 21.313 10.980 18.986 L 10.980 16.660 10.883 16.505 C 10.830 16.419,10.481 15.951,10.107 15.465 C 8.442 13.298,8.178 12.925,8.075 12.594 C 7.948 12.185,7.872 11.472,7.888 10.841 C 7.902 10.287,7.909 10.246,8.037 9.950 C 8.110 9.780,8.193 9.623,8.220 9.600 C 8.256 9.570,8.535 9.746,9.245 10.246 C 11.091 11.546,11.139 11.571,11.518 11.481 C 11.812 11.410,12.047 11.237,12.183 10.991 C 12.281 10.814,12.299 10.735,12.299 10.500 C 12.297 9.993,12.247 9.941,10.760 8.872 C 9.388 7.887,8.818 7.491,8.641 7.401 C 8.429 7.292,8.030 7.260,7.830 7.335 M13.617 11.097 C 13.437 11.175,13.206 11.391,13.119 11.563 C 13.002 11.791,12.983 12.000,13.054 12.245 C 13.176 12.660,13.529 12.950,13.958 12.989 L 14.196 13.011 14.625 13.695 C 15.311 14.792,15.798 15.519,15.969 15.706 C 16.083 15.829,16.191 15.898,16.345 15.947 C 16.463 15.984,16.560 16.031,16.560 16.051 C 16.560 16.070,16.241 16.428,15.851 16.846 C 15.003 17.755,14.864 17.934,14.801 18.196 C 14.708 18.584,14.943 19.048,15.334 19.247 C 15.560 19.362,15.909 19.388,16.089 19.303 C 16.346 19.180,16.767 18.785,17.883 17.616 C 19.325 16.104,19.650 15.749,19.829 15.490 C 19.965 15.292,19.976 15.254,19.974 15.001 C 19.972 14.780,19.951 14.692,19.866 14.547 C 19.734 14.322,19.476 14.097,19.312 14.064 C 19.243 14.051,18.734 14.028,18.181 14.013 L 17.175 13.988 16.660 13.164 C 15.874 11.907,15.479 11.323,15.342 11.219 C 15.274 11.167,15.138 11.106,15.039 11.083 C 14.772 11.022,13.767 11.031,13.617 11.097 M5.848 16.125 C 5.515 16.290,5.447 16.429,4.904 18.075 C 3.958 20.940,3.926 21.074,4.109 21.420 C 4.380 21.936,4.935 22.120,5.452 21.866 C 5.604 21.791,5.717 21.702,5.779 21.606 C 5.887 21.441,6.311 20.233,6.793 18.720 C 7.166 17.550,7.233 17.307,7.266 16.995 C 7.287 16.798,7.276 16.744,7.177 16.562 C 7.054 16.335,6.856 16.158,6.644 16.086 C 6.420 16.010,6.043 16.029,5.848 16.125 M12.980 19.625 C 12.752 19.753,12.606 19.885,12.456 20.104 C 12.314 20.309,12.303 20.346,12.288 20.678 C 12.273 20.992,12.282 21.057,12.370 21.246 C 12.744 22.052,13.783 22.232,14.394 21.597 C 14.605 21.377,14.721 21.076,14.718 20.748 C 14.715 20.309,14.531 19.968,14.165 19.725 C 13.955 19.585,13.936 19.581,13.524 19.570 C 13.187 19.561,13.075 19.572,12.980 19.625 M18.159 19.670 C 17.711 19.959,17.492 20.368,17.532 20.842 C 17.589 21.518,18.105 21.978,18.800 21.973 C 19.133 21.970,19.373 21.860,19.620 21.595 C 19.951 21.242,20.063 20.838,19.945 20.430 C 19.869 20.169,19.629 19.847,19.396 19.692 C 19.249 19.595,19.190 19.583,18.787 19.569 C 18.349 19.554,18.336 19.556,18.159 19.670 " fill="#1A1C1F" stroke="none" fill-rule="evenodd"></path></svg>