<svg width="14" height="14" viewBox="0 0 14 14" fill="none" xmlns="http://www.w3.org/2000/svg"><path d="M5.679 1.423 C 5.540 1.452,5.433 1.501,5.277 1.607 C 5.115 1.718,5.016 1.836,4.932 2.018 C 4.748 2.420,4.827 2.870,5.136 3.180 C 5.389 3.433,5.762 3.547,6.080 3.469 C 6.303 3.414,6.422 3.351,6.582 3.203 C 6.823 2.979,6.962 2.611,6.910 2.331 C 6.834 1.917,6.574 1.601,6.204 1.471 C 6.048 1.417,5.812 1.395,5.679 1.423 M5.838 4.984 C 5.686 5.060,5.544 5.219,5.493 5.372 C 5.431 5.560,5.459 5.770,5.623 6.335 C 5.947 7.446,6.286 8.559,6.334 8.668 C 6.394 8.804,6.543 8.956,6.695 9.038 L 6.802 9.095 7.846 9.105 C 8.497 9.110,8.899 9.123,8.913 9.137 C 8.926 9.150,9.215 9.853,9.556 10.699 L 10.175 12.238 10.308 12.361 C 10.487 12.526,10.603 12.580,10.785 12.582 C 11.185 12.588,11.444 12.342,11.493 11.907 L 11.508 11.768 10.989 10.487 C 10.209 8.560,10.073 8.246,9.945 8.079 C 9.868 7.978,9.578 7.786,9.449 7.750 C 9.381 7.731,9.033 7.716,8.449 7.705 L 7.553 7.688 7.304 6.907 C 6.744 5.152,6.755 5.178,6.534 5.046 C 6.374 4.950,6.280 4.924,6.100 4.923 C 5.995 4.923,5.928 4.939,5.838 4.984 M3.621 7.057 C 3.495 7.115,3.249 7.369,3.090 7.608 C 2.870 7.937,2.702 8.320,2.575 8.773 C 2.521 8.968,2.513 9.799,2.563 10.022 C 2.655 10.432,2.841 10.882,3.044 11.186 C 3.164 11.366,3.628 11.846,3.824 11.994 C 4.219 12.291,4.865 12.538,5.343 12.575 C 5.701 12.602,6.194 12.568,6.469 12.496 C 6.939 12.374,7.456 12.088,7.801 11.761 C 8.031 11.542,8.060 11.480,8.060 11.200 C 8.060 10.934,8.028 10.855,7.861 10.698 C 7.687 10.536,7.568 10.491,7.349 10.506 C 7.135 10.521,7.086 10.545,6.776 10.781 C 6.375 11.087,6.117 11.178,5.661 11.178 C 5.108 11.178,4.760 11.022,4.356 10.593 C 4.045 10.263,3.915 9.918,3.913 9.415 C 3.911 8.982,4.014 8.706,4.341 8.268 C 4.599 7.923,4.650 7.728,4.550 7.461 C 4.497 7.318,4.358 7.172,4.200 7.092 C 4.065 7.023,3.739 7.004,3.621 7.057 " fill="#1A1C1F" stroke="none" fill-rule="evenodd"></path></svg>