<svg width="12" height="12" viewBox="0 0 12 12" fill="none" xmlns="http://www.w3.org/2000/svg"><path d="M4.733 1.249 C 4.349 1.407,4.140 1.707,4.140 2.099 C 4.141 2.586,4.534 2.981,5.017 2.980 C 5.476 2.979,5.847 2.657,5.924 2.193 C 5.948 2.045,5.917 1.870,5.837 1.704 C 5.779 1.583,5.597 1.393,5.473 1.322 C 5.241 1.190,4.947 1.161,4.733 1.249 M4.999 4.268 C 4.884 4.329,4.748 4.476,4.696 4.595 C 4.641 4.718,4.653 4.816,4.779 5.274 C 4.993 6.054,5.367 7.284,5.445 7.466 C 5.468 7.520,5.524 7.595,5.573 7.639 C 5.745 7.790,5.704 7.784,6.727 7.803 C 7.233 7.812,7.648 7.822,7.650 7.825 C 7.652 7.828,7.751 8.069,7.869 8.360 C 8.792 10.629,8.746 10.524,8.862 10.628 C 9.050 10.797,9.219 10.846,9.412 10.790 C 9.631 10.727,9.791 10.566,9.841 10.358 C 9.888 10.159,9.863 10.079,9.349 8.800 C 9.019 7.978,8.741 7.305,8.655 7.122 C 8.577 6.957,8.406 6.785,8.237 6.703 C 8.080 6.626,8.014 6.620,7.133 6.603 L 6.475 6.590 6.148 5.550 L 5.821 4.510 5.725 4.422 C 5.539 4.251,5.497 4.232,5.282 4.225 C 5.111 4.220,5.080 4.225,4.999 4.268 M3.158 6.027 C 3.039 6.071,2.948 6.135,2.840 6.254 C 2.575 6.543,2.330 7.023,2.206 7.496 C 2.160 7.670,2.155 7.729,2.154 8.070 C 2.153 8.297,2.163 8.501,2.178 8.577 C 2.241 8.903,2.434 9.359,2.623 9.632 C 2.680 9.715,2.830 9.886,2.956 10.012 C 3.330 10.386,3.662 10.577,4.212 10.733 C 4.403 10.788,4.426 10.790,4.860 10.790 C 5.264 10.789,5.327 10.785,5.474 10.744 C 5.989 10.604,6.392 10.385,6.699 10.082 C 6.872 9.911,6.920 9.811,6.920 9.620 C 6.920 9.374,6.802 9.174,6.596 9.072 C 6.509 9.029,6.465 9.020,6.325 9.020 C 6.126 9.020,6.110 9.027,5.832 9.239 C 5.492 9.497,5.290 9.573,4.890 9.593 C 4.599 9.608,4.457 9.578,4.190 9.450 C 3.882 9.301,3.641 9.060,3.489 8.750 C 3.377 8.519,3.341 8.362,3.341 8.100 C 3.341 7.706,3.424 7.478,3.701 7.111 C 3.900 6.848,3.924 6.792,3.924 6.605 C 3.924 6.423,3.860 6.279,3.726 6.161 C 3.587 6.038,3.306 5.972,3.158 6.027 " fill="#1A1C1F" stroke="none" fill-rule="evenodd"></path></svg>