<svg width="16" height="16" viewBox="0 0 16 16" fill="none" xmlns="http://www.w3.org/2000/svg"><path d="M6.504 1.627 C 6.177 1.682,5.768 2.007,5.613 2.333 C 5.544 2.479,5.538 2.520,5.538 2.787 C 5.538 3.028,5.549 3.108,5.599 3.236 C 5.805 3.767,6.426 4.099,6.960 3.962 C 7.207 3.899,7.343 3.827,7.518 3.664 C 7.691 3.504,7.815 3.291,7.878 3.049 C 7.935 2.826,7.931 2.731,7.854 2.488 C 7.712 2.045,7.338 1.711,6.890 1.628 C 6.721 1.597,6.682 1.597,6.504 1.627 M6.680 5.688 C 6.541 5.755,6.383 5.908,6.302 6.058 C 6.265 6.126,6.253 6.205,6.254 6.400 C 6.254 6.619,6.270 6.707,6.370 7.053 C 6.608 7.873,7.171 9.726,7.228 9.880 C 7.295 10.059,7.444 10.217,7.650 10.328 L 7.773 10.395 8.966 10.404 C 9.726 10.411,10.168 10.424,10.185 10.441 C 10.200 10.456,10.531 11.260,10.920 12.228 L 11.628 13.987 11.781 14.127 C 11.997 14.326,12.125 14.382,12.362 14.382 C 12.798 14.382,13.079 14.102,13.134 13.609 L 13.152 13.450 12.616 12.124 C 11.849 10.229,11.579 9.577,11.502 9.435 C 11.406 9.260,11.162 9.025,10.981 8.935 C 10.785 8.837,10.669 8.826,9.538 8.804 L 8.636 8.787 8.530 8.453 C 8.112 7.149,7.771 6.128,7.717 6.022 C 7.602 5.793,7.345 5.649,7.027 5.634 C 6.844 5.625,6.794 5.633,6.680 5.688 M4.113 8.083 C 4.051 8.114,3.916 8.229,3.813 8.339 C 3.397 8.785,3.030 9.544,2.916 10.196 C 2.864 10.498,2.881 11.214,2.947 11.520 C 3.055 12.013,3.277 12.510,3.557 12.880 C 3.779 13.175,4.261 13.643,4.505 13.801 C 5.476 14.429,6.731 14.567,7.753 14.159 C 8.466 13.875,9.085 13.401,9.185 13.063 C 9.238 12.885,9.238 12.714,9.184 12.532 C 9.122 12.321,8.899 12.102,8.682 12.039 C 8.485 11.982,8.268 11.998,8.105 12.081 C 8.040 12.114,7.894 12.212,7.780 12.298 C 7.551 12.473,7.256 12.639,7.053 12.707 C 6.760 12.805,6.174 12.805,5.880 12.707 C 5.569 12.602,5.356 12.477,5.141 12.271 C 4.653 11.806,4.477 11.415,4.477 10.800 C 4.477 10.262,4.586 9.955,4.956 9.453 C 5.208 9.112,5.266 8.968,5.246 8.741 C 5.206 8.308,4.882 8.031,4.413 8.028 C 4.276 8.027,4.197 8.041,4.113 8.083 " fill="#1A1C1F" stroke="none" fill-rule="evenodd"></path></svg>