<svg width="20" height="20" viewBox="0 0 20 20" fill="none" xmlns="http://www.w3.org/2000/svg"><path d="M9.183 2.040 C 8.909 2.076,8.599 2.236,8.369 2.462 C 8.025 2.798,7.860 3.260,7.934 3.677 C 7.993 4.014,8.161 4.322,8.415 4.560 C 9.031 5.136,9.851 5.137,10.435 4.563 C 10.666 4.335,10.779 4.149,10.848 3.885 C 10.976 3.394,10.853 2.867,10.528 2.515 C 10.185 2.143,9.702 1.972,9.183 2.040 M7.567 6.065 C 7.146 6.150,6.343 6.841,5.917 7.483 C 5.451 8.188,5.252 8.828,5.150 9.953 C 5.089 10.623,5.035 10.971,4.747 12.533 L 4.529 13.717 4.082 15.073 C 3.836 15.819,3.603 16.552,3.564 16.703 C 3.495 16.970,3.494 16.982,3.551 17.191 C 3.710 17.780,4.306 18.080,4.886 17.863 C 5.276 17.717,5.340 17.598,5.865 16.050 C 6.254 14.906,6.445 14.257,6.568 13.667 C 6.628 13.383,6.685 13.139,6.697 13.126 C 6.708 13.113,6.886 13.364,7.092 13.682 L 7.467 14.262 7.467 15.289 C 7.467 15.854,7.482 16.534,7.501 16.800 C 7.541 17.385,7.613 17.569,7.884 17.774 C 8.082 17.925,8.237 17.973,8.534 17.973 C 8.814 17.973,8.958 17.912,9.163 17.706 C 9.476 17.393,9.479 17.382,9.494 16.333 C 9.510 15.195,9.455 13.749,9.389 13.593 C 9.337 13.468,8.885 12.753,7.858 11.172 L 7.158 10.095 7.180 9.817 C 7.193 9.664,7.232 9.437,7.267 9.311 C 7.351 9.016,7.566 8.589,7.726 8.404 L 7.852 8.258 7.987 8.327 C 8.061 8.364,8.421 8.579,8.786 8.803 C 9.151 9.028,9.515 9.240,9.594 9.275 C 9.771 9.353,10.045 9.357,10.267 9.283 C 10.464 9.218,10.743 8.978,10.838 8.791 C 10.999 8.476,10.933 7.966,10.701 7.735 C 10.495 7.528,8.834 6.436,8.373 6.203 C 8.210 6.121,7.797 6.019,7.700 6.038 C 7.691 6.040,7.631 6.052,7.567 6.065 M12.106 9.100 C 11.792 9.243,11.651 9.405,11.553 9.734 C 11.483 9.968,11.486 10.129,11.563 10.325 C 11.598 10.413,11.845 10.940,12.113 11.496 L 12.600 12.506 12.983 12.907 C 13.194 13.127,13.367 13.330,13.367 13.357 C 13.367 13.385,13.234 13.620,13.071 13.879 C 12.641 14.565,12.652 14.539,12.653 14.867 C 12.655 15.179,12.709 15.328,12.902 15.548 C 13.166 15.848,13.667 15.940,14.042 15.756 C 14.212 15.672,14.265 15.618,14.505 15.289 C 14.851 14.813,15.996 13.085,16.253 12.651 C 16.442 12.333,16.451 12.308,16.462 12.057 C 16.471 11.867,16.458 11.755,16.417 11.647 C 16.353 11.479,16.102 11.204,15.932 11.116 C 15.795 11.045,15.321 11.004,14.616 11.002 L 14.116 11.000 13.888 10.542 C 13.351 9.456,13.150 9.181,12.830 9.086 C 12.587 9.013,12.284 9.019,12.106 9.100 M11.317 16.033 C 11.018 16.079,10.747 16.280,10.613 16.555 C 10.537 16.710,10.521 16.787,10.521 16.996 C 10.522 17.305,10.598 17.498,10.799 17.699 C 11.093 17.993,11.539 18.069,11.908 17.889 C 12.133 17.779,12.371 17.527,12.427 17.341 C 12.478 17.172,12.478 16.829,12.427 16.660 C 12.311 16.273,11.764 15.964,11.317 16.033 M15.317 16.033 C 15.018 16.079,14.747 16.280,14.613 16.555 C 14.537 16.710,14.521 16.787,14.521 16.996 C 14.522 17.305,14.598 17.498,14.799 17.699 C 15.093 17.993,15.539 18.069,15.908 17.889 C 16.133 17.779,16.371 17.527,16.427 17.341 C 16.478 17.172,16.478 16.829,16.427 16.660 C 16.311 16.273,15.764 15.964,15.317 16.033 " fill="#1A1C1F" stroke="none" fill-rule="evenodd"></path></svg>