<svg width="32" height="32" viewBox="0 0 32 32" fill="none" xmlns="http://www.w3.org/2000/svg"><path d="M11.905 2.085 C 11.312 2.143,10.418 2.670,9.970 3.227 C 9.619 3.663,9.332 4.522,9.334 5.131 C 9.338 6.383,10.280 7.603,11.573 8.031 C 11.996 8.170,12.874 8.160,13.307 8.011 C 13.825 7.833,14.135 7.633,14.561 7.204 C 15.095 6.665,15.347 6.163,15.416 5.499 C 15.529 4.403,15.287 3.704,14.538 2.956 C 13.798 2.217,13.059 1.972,11.905 2.085 M12.932 4.175 C 13.281 4.373,13.387 4.583,13.387 5.080 C 13.387 5.431,13.366 5.532,13.269 5.672 C 12.902 6.196,12.189 6.283,11.709 5.861 C 11.207 5.421,11.272 4.562,11.833 4.206 C 12.149 4.006,12.610 3.993,12.932 4.175 M9.493 9.692 C 9.173 9.749,8.560 10.380,7.871 11.360 C 6.881 12.770,6.315 14.157,6.190 15.482 C 6.077 16.688,6.406 17.946,7.061 18.810 C 7.199 18.992,8.111 19.961,9.088 20.963 L 10.864 22.785 11.332 25.592 C 11.835 28.604,11.995 29.409,12.134 29.620 C 12.252 29.800,12.623 29.973,12.891 29.973 C 13.195 29.973,13.640 29.731,13.771 29.493 C 13.859 29.336,13.871 29.235,13.848 28.853 C 13.819 28.359,13.425 25.811,13.007 23.417 L 12.743 21.901 12.522 21.657 C 12.400 21.523,11.507 20.591,10.537 19.585 C 9.411 18.418,8.702 17.640,8.576 17.433 C 8.322 17.017,8.249 16.663,8.248 15.840 C 8.246 15.253,8.264 15.119,8.395 14.720 C 8.588 14.130,9.037 13.232,9.452 12.604 L 9.783 12.104 10.881 13.201 L 11.979 14.298 12.462 14.453 C 13.308 14.725,14.844 15.104,15.127 15.110 C 15.955 15.129,16.417 14.032,15.818 13.468 C 15.611 13.272,15.243 13.141,14.039 12.831 L 13.117 12.594 11.730 11.236 C 10.967 10.488,10.266 9.842,10.171 9.798 C 9.967 9.704,9.678 9.659,9.493 9.692 M17.947 14.071 C 17.527 14.118,17.284 14.264,17.130 14.561 C 16.968 14.873,16.999 15.240,17.213 15.544 C 17.465 15.902,17.635 15.967,18.411 15.999 C 18.920 16.020,19.110 16.047,19.171 16.108 C 19.216 16.153,19.396 16.748,19.572 17.431 C 20.102 19.488,20.165 19.648,20.531 19.862 C 20.699 19.960,20.844 19.972,22.172 20.003 C 22.973 20.022,23.644 20.053,23.663 20.072 C 23.682 20.090,23.661 20.148,23.617 20.200 C 23.572 20.251,23.034 20.870,22.421 21.574 C 20.885 23.338,19.258 25.248,19.096 25.477 C 18.900 25.752,18.906 26.198,19.109 26.491 C 19.352 26.841,19.796 27.032,20.149 26.936 C 20.371 26.876,20.788 26.471,21.852 25.280 C 22.206 24.884,22.592 24.467,22.710 24.353 L 22.925 24.147 23.032 24.513 C 23.091 24.715,23.166 24.988,23.199 25.120 C 23.336 25.668,23.539 26.201,23.669 26.356 C 23.844 26.563,24.087 26.667,24.401 26.667 C 24.780 26.667,25.096 26.447,25.300 26.044 C 25.377 25.891,25.378 25.831,25.307 25.430 C 25.264 25.186,25.095 24.435,24.932 23.760 C 24.769 23.085,24.622 22.473,24.607 22.400 C 24.569 22.222,24.692 22.049,25.703 20.854 C 26.771 19.593,26.923 19.390,26.966 19.160 C 27.016 18.893,26.863 18.440,26.666 18.274 C 26.452 18.095,26.213 18.075,23.805 18.034 L 21.795 18.000 21.440 16.640 C 20.889 14.528,20.809 14.329,20.431 14.134 C 20.285 14.058,18.475 14.012,17.947 14.071 M6.639 20.795 C 6.375 20.860,6.202 21.005,6.081 21.263 C 5.780 21.904,4.053 28.514,4.053 29.026 C 4.053 29.455,4.372 29.837,4.818 29.942 C 5.020 29.990,5.525 29.840,5.678 29.687 C 5.852 29.513,5.989 29.111,6.433 27.467 C 7.209 24.593,7.903 21.743,7.873 21.553 C 7.792 21.040,7.177 20.662,6.639 20.795 M17.000 27.113 C 16.429 27.326,16.000 27.926,16.000 28.513 C 16.000 28.831,16.204 29.266,16.486 29.548 C 16.698 29.760,16.822 29.833,17.119 29.923 C 17.468 30.029,17.505 30.031,17.771 29.953 C 18.960 29.607,19.383 28.269,18.551 27.486 C 18.148 27.106,17.460 26.941,17.000 27.113 M26.000 27.102 C 25.762 27.192,25.408 27.447,25.291 27.613 C 25.024 27.993,24.968 28.723,25.173 29.146 C 25.445 29.709,25.967 30.010,26.582 29.960 C 26.979 29.929,27.259 29.792,27.557 29.484 C 27.853 29.180,27.956 28.918,27.956 28.475 C 27.956 27.680,27.372 27.097,26.537 27.059 C 26.330 27.050,26.088 27.069,26.000 27.102 " fill="#1A1C1F" stroke="none" fill-rule="evenodd"></path></svg>