<svg width="12" height="12" viewBox="0 0 12 12" fill="none" xmlns="http://www.w3.org/2000/svg"><path d="M5.334 1.267 C 4.906 1.448,4.670 1.917,4.797 2.335 C 4.868 2.569,5.068 2.802,5.291 2.911 C 5.757 3.139,6.323 2.884,6.502 2.365 C 6.570 2.168,6.549 1.904,6.449 1.689 C 6.394 1.572,6.170 1.359,6.030 1.291 C 5.923 1.239,5.885 1.232,5.680 1.226 C 5.472 1.219,5.439 1.223,5.334 1.267 M4.550 3.639 C 4.382 3.668,4.145 3.832,3.859 4.118 C 3.649 4.328,3.544 4.471,3.423 4.712 C 3.210 5.136,3.147 5.379,3.091 6.011 C 3.058 6.379,3.027 6.579,2.840 7.580 L 2.719 8.230 2.439 9.074 C 2.285 9.538,2.146 9.975,2.132 10.045 C 2.082 10.281,2.151 10.504,2.314 10.638 C 2.560 10.841,2.841 10.840,3.089 10.636 C 3.196 10.547,3.257 10.404,3.509 9.651 C 3.783 8.833,3.905 8.425,3.959 8.150 C 3.983 8.029,4.007 7.913,4.013 7.893 C 4.021 7.866,4.085 7.947,4.252 8.198 L 4.480 8.539 4.481 8.985 C 4.482 9.230,4.489 9.642,4.498 9.902 C 4.512 10.361,4.514 10.376,4.565 10.462 C 4.675 10.649,4.845 10.764,5.053 10.791 C 5.272 10.820,5.506 10.684,5.639 10.451 L 5.700 10.345 5.699 9.788 C 5.698 9.481,5.690 9.004,5.682 8.727 C 5.667 8.232,5.666 8.223,5.612 8.120 C 5.537 7.976,5.341 7.665,4.776 6.792 L 4.296 6.050 4.309 5.900 C 4.317 5.817,4.332 5.705,4.343 5.650 C 4.371 5.511,4.562 5.128,4.654 5.025 L 4.730 4.940 4.920 5.062 C 5.578 5.482,5.892 5.636,6.038 5.613 C 6.146 5.595,6.351 5.486,6.412 5.414 C 6.630 5.156,6.615 4.806,6.378 4.592 C 6.226 4.455,5.056 3.715,4.920 3.669 C 4.825 3.637,4.647 3.623,4.550 3.639 M7.245 5.470 C 7.051 5.569,6.900 5.797,6.900 5.993 C 6.900 6.103,6.984 6.301,7.300 6.936 L 7.616 7.570 7.835 7.787 L 8.055 8.004 7.876 8.283 C 7.635 8.658,7.594 8.751,7.595 8.921 C 7.596 9.096,7.652 9.221,7.782 9.344 C 8.016 9.563,8.389 9.556,8.600 9.328 C 8.729 9.188,9.694 7.707,9.831 7.440 C 9.975 7.159,9.837 6.793,9.539 6.662 C 9.459 6.626,9.386 6.620,8.958 6.608 L 8.468 6.594 8.265 6.192 C 7.978 5.625,7.947 5.580,7.795 5.499 C 7.690 5.443,7.644 5.431,7.510 5.425 C 7.368 5.418,7.338 5.423,7.245 5.470 M6.666 9.659 C 6.549 9.712,6.412 9.845,6.358 9.956 C 6.295 10.089,6.294 10.292,6.358 10.434 C 6.411 10.553,6.558 10.701,6.673 10.751 C 6.792 10.803,7.029 10.799,7.145 10.742 C 7.263 10.685,7.425 10.510,7.456 10.405 C 7.489 10.294,7.486 10.054,7.451 9.968 C 7.406 9.862,7.220 9.691,7.108 9.652 C 6.978 9.608,6.772 9.611,6.666 9.659 M9.066 9.659 C 8.949 9.712,8.812 9.845,8.758 9.956 C 8.695 10.089,8.694 10.292,8.758 10.434 C 8.811 10.553,8.958 10.701,9.073 10.751 C 9.192 10.803,9.429 10.799,9.545 10.742 C 9.663 10.685,9.825 10.510,9.856 10.405 C 9.889 10.294,9.886 10.054,9.851 9.968 C 9.806 9.862,9.620 9.691,9.508 9.652 C 9.378 9.608,9.172 9.611,9.066 9.659 " fill="#1A1C1F" stroke="none" fill-rule="evenodd"></path></svg>