<svg width="32" height="32" viewBox="0 0 32 32" fill="none" xmlns="http://www.w3.org/2000/svg"><path d="M9.733 2.087 C 9.304 2.185,8.528 2.619,8.209 2.938 C 7.536 3.611,7.216 4.737,7.419 5.717 C 7.652 6.846,8.660 7.829,9.842 8.079 C 10.305 8.178,10.493 8.178,10.948 8.082 C 12.420 7.770,13.465 6.504,13.460 5.040 C 13.458 4.493,13.287 3.896,13.006 3.456 C 12.749 3.054,12.141 2.518,11.712 2.315 C 11.188 2.067,10.274 1.962,9.733 2.087 M10.880 4.136 C 11.553 4.481,11.623 5.378,11.019 5.908 C 10.366 6.481,9.225 5.813,9.357 4.934 C 9.460 4.248,10.271 3.824,10.880 4.136 M9.467 9.692 C 9.271 9.740,8.553 10.293,6.985 11.603 C 5.770 12.619,5.794 12.585,5.374 13.899 C 4.898 15.386,4.557 16.546,4.479 16.942 C 4.422 17.233,4.426 17.290,4.521 17.505 C 4.823 18.188,5.819 18.334,6.176 17.748 C 6.321 17.510,6.541 16.874,7.063 15.180 L 7.505 13.747 7.926 13.408 C 8.412 13.017,8.506 12.987,8.461 13.240 C 8.370 13.750,8.001 17.827,8.000 18.325 L 8.000 18.703 8.380 19.255 C 8.588 19.559,9.232 20.457,9.811 21.250 C 10.389 22.044,10.878 22.720,10.897 22.753 C 10.916 22.787,11.185 23.627,11.495 24.620 C 11.805 25.614,12.290 27.135,12.573 28.000 C 13.147 29.755,13.167 29.792,13.681 29.954 C 13.950 30.039,13.980 30.039,14.207 29.952 C 14.632 29.790,14.975 29.281,14.907 28.916 C 14.863 28.681,14.284 26.806,13.379 23.968 L 12.680 21.776 11.355 19.968 C 10.355 18.603,10.030 18.122,10.028 18.005 C 10.027 17.920,10.110 17.020,10.212 16.005 C 10.701 11.127,10.749 10.400,10.598 10.169 C 10.366 9.815,9.850 9.598,9.467 9.692 M12.080 11.897 C 11.853 11.963,11.550 12.229,11.442 12.456 C 11.363 12.623,11.359 12.696,11.411 13.005 C 11.480 13.413,11.724 14.355,11.923 14.986 L 12.060 15.419 13.003 16.367 C 14.059 17.428,14.287 17.584,14.691 17.523 C 15.139 17.456,15.574 16.979,15.573 16.556 C 15.572 16.283,15.278 15.873,14.532 15.102 L 13.807 14.352 13.600 13.614 C 13.228 12.285,13.080 12.029,12.601 11.897 C 12.369 11.832,12.300 11.832,12.080 11.897 M16.027 17.980 C 15.818 18.142,15.748 18.229,15.652 18.447 C 15.552 18.674,15.551 19.003,15.649 19.189 C 15.761 19.403,21.688 25.253,23.809 27.244 C 24.614 28.000,24.807 28.066,25.346 27.770 C 25.662 27.597,25.836 27.301,25.838 26.934 L 25.840 26.628 25.200 25.946 C 24.106 24.779,17.792 18.593,17.179 18.088 C 16.967 17.913,16.909 17.893,16.566 17.876 C 16.234 17.859,16.167 17.872,16.027 17.980 M7.479 20.857 C 7.198 20.999,7.078 21.196,6.655 22.204 C 6.107 23.507,4.392 27.840,4.184 28.443 C 4.003 28.967,3.991 29.038,4.047 29.227 C 4.168 29.632,4.611 29.973,5.013 29.973 C 5.241 29.973,5.635 29.785,5.739 29.626 C 5.877 29.415,6.379 28.221,7.442 25.571 C 8.445 23.071,8.907 21.828,8.907 21.627 C 8.907 21.572,8.856 21.423,8.795 21.296 C 8.578 20.849,7.924 20.631,7.479 20.857 M26.787 28.054 C 26.589 28.099,26.276 28.323,26.156 28.505 C 25.956 28.811,25.998 29.290,26.251 29.578 C 26.581 29.954,26.980 30.060,27.352 29.871 C 27.955 29.563,28.147 28.932,27.789 28.430 C 27.587 28.146,27.133 27.976,26.787 28.054 " fill="#1A1C1F" stroke="none" fill-rule="evenodd"></path></svg>