<svg width="24" height="24" viewBox="0 0 24 24" fill="none" xmlns="http://www.w3.org/2000/svg"><path d="M7.567 2.061 C 7.060 2.171,6.478 2.599,6.248 3.032 C 6.013 3.473,5.946 3.985,6.060 4.471 C 6.168 4.926,6.435 5.319,6.842 5.619 C 7.489 6.095,8.424 6.105,9.095 5.643 C 9.470 5.385,9.789 4.935,9.906 4.500 C 9.977 4.233,9.974 3.791,9.899 3.501 C 9.704 2.753,9.029 2.152,8.260 2.042 C 7.914 1.992,7.881 1.993,7.567 2.061 M7.495 7.076 C 7.427 7.094,7.261 7.175,7.126 7.256 C 6.760 7.479,5.214 8.555,4.605 9.010 C 3.965 9.490,4.016 9.399,3.587 10.840 C 2.980 12.879,2.941 13.088,3.106 13.414 C 3.421 14.040,4.207 14.169,4.710 13.678 C 4.851 13.539,4.992 13.147,5.402 11.740 C 5.537 11.278,5.683 10.837,5.726 10.760 C 5.809 10.614,6.211 10.280,6.305 10.280 C 6.345 10.280,6.353 10.324,6.338 10.450 C 6.327 10.543,6.255 11.115,6.178 11.720 C 5.930 13.687,5.910 13.875,5.937 14.016 C 5.969 14.189,6.329 14.728,7.293 16.050 L 8.045 17.081 8.702 19.043 C 9.064 20.122,9.416 21.139,9.484 21.303 C 9.628 21.649,9.821 21.841,10.130 21.943 C 10.685 22.128,11.303 21.717,11.384 21.110 C 11.411 20.909,11.327 20.628,10.436 17.934 L 9.838 16.127 8.903 14.849 L 7.968 13.572 8.148 12.236 C 8.247 11.501,8.342 10.885,8.360 10.866 C 8.377 10.848,8.569 11.080,8.786 11.382 C 9.656 12.596,9.772 12.700,10.240 12.699 C 10.868 12.698,11.343 12.143,11.220 11.554 C 11.168 11.300,11.050 11.115,9.686 9.140 C 8.706 7.721,8.357 7.272,8.156 7.173 C 7.952 7.072,7.674 7.032,7.495 7.076 M12.012 12.960 C 11.893 13.008,11.619 13.287,11.540 13.440 C 11.459 13.597,11.421 13.906,11.459 14.106 C 11.504 14.350,12.243 15.057,15.280 17.764 C 17.429 19.680,17.584 19.799,17.935 19.800 C 18.243 19.800,18.440 19.722,18.647 19.516 C 18.781 19.383,18.852 19.269,18.897 19.118 C 18.975 18.855,18.975 18.786,18.900 18.534 C 18.850 18.363,18.777 18.272,18.410 17.916 C 17.282 16.821,13.119 13.146,12.831 12.990 C 12.690 12.914,12.174 12.895,12.012 12.960 M5.269 16.361 C 4.985 16.516,4.834 16.786,3.881 18.859 C 3.222 20.292,3.000 20.824,3.000 20.968 C 3.000 21.149,3.117 21.459,3.242 21.610 C 3.625 22.074,4.248 22.114,4.660 21.703 C 4.845 21.518,5.177 20.869,5.891 19.300 C 6.367 18.252,6.662 17.529,6.702 17.310 C 6.740 17.097,6.697 16.920,6.555 16.705 C 6.369 16.424,6.141 16.308,5.744 16.292 C 5.476 16.281,5.394 16.293,5.269 16.361 M19.518 20.170 C 19.139 20.397,18.937 20.849,19.043 21.234 C 19.117 21.499,19.505 21.884,19.773 21.959 C 20.414 22.136,21.118 21.457,20.962 20.812 C 20.852 20.356,20.450 20.040,19.980 20.040 C 19.776 20.040,19.701 20.061,19.518 20.170 " fill="#1A1C1F" stroke="none" fill-rule="evenodd"></path></svg>