<svg width="16" height="16" viewBox="0 0 16 16" fill="none" xmlns="http://www.w3.org/2000/svg"><path d="M7.344 1.627 C 7.152 1.655,6.844 1.824,6.680 1.993 C 6.226 2.458,6.247 3.198,6.727 3.642 C 7.037 3.929,7.430 4.050,7.777 3.964 C 8.018 3.905,8.159 3.833,8.317 3.691 C 8.623 3.416,8.790 2.971,8.721 2.613 C 8.624 2.115,8.210 1.706,7.720 1.626 C 7.544 1.598,7.540 1.598,7.344 1.627 M6.053 4.851 C 5.658 4.936,4.928 5.612,4.602 6.194 C 4.331 6.679,4.195 7.185,4.134 7.933 C 4.099 8.350,4.028 8.799,3.798 10.053 L 3.624 11.000 3.267 12.080 C 2.862 13.306,2.788 13.567,2.807 13.707 C 2.837 13.932,3.023 14.179,3.257 14.306 C 3.533 14.457,3.917 14.395,4.142 14.165 C 4.280 14.023,4.355 13.837,4.728 12.720 C 5.092 11.625,5.196 11.276,5.281 10.853 C 5.336 10.575,5.371 10.493,5.408 10.549 C 5.418 10.564,5.550 10.758,5.700 10.980 L 5.973 11.384 5.975 11.978 C 5.975 12.306,5.986 12.851,5.998 13.191 C 6.024 13.895,6.042 13.962,6.261 14.164 C 6.502 14.387,6.829 14.450,7.100 14.327 C 7.257 14.256,7.464 14.052,7.541 13.892 C 7.599 13.772,7.600 13.749,7.598 12.772 C 7.595 11.406,7.573 10.979,7.499 10.836 C 7.420 10.683,7.219 10.367,6.418 9.133 L 5.726 8.067 5.756 7.796 C 5.800 7.391,5.970 6.981,6.236 6.643 L 6.286 6.580 6.811 6.904 C 7.394 7.265,7.752 7.458,7.884 7.483 C 8.003 7.505,8.304 7.411,8.443 7.308 C 8.667 7.143,8.794 6.837,8.745 6.578 C 8.700 6.337,8.667 6.272,8.519 6.137 C 8.332 5.966,6.803 4.987,6.576 4.893 C 6.469 4.849,6.173 4.825,6.053 4.851 M9.662 7.293 C 9.311 7.471,9.120 7.886,9.240 8.206 C 9.267 8.276,9.473 8.717,9.698 9.187 L 10.108 10.040 10.424 10.360 L 10.741 10.680 10.515 11.027 C 10.390 11.217,10.252 11.450,10.207 11.543 C 10.011 11.951,10.170 12.399,10.583 12.605 C 10.656 12.642,10.742 12.653,10.935 12.653 C 11.167 12.653,11.200 12.647,11.298 12.582 C 11.432 12.493,11.607 12.261,12.115 11.498 C 12.656 10.686,12.968 10.187,13.088 9.948 C 13.170 9.783,13.186 9.722,13.185 9.588 C 13.183 9.383,13.101 9.192,12.952 9.045 C 12.749 8.847,12.685 8.832,11.945 8.811 L 11.291 8.792 11.020 8.256 C 10.637 7.500,10.596 7.440,10.394 7.332 C 10.253 7.257,10.193 7.241,10.013 7.233 C 9.824 7.224,9.784 7.231,9.662 7.293 M8.888 12.879 C 8.733 12.949,8.547 13.127,8.475 13.276 C 8.428 13.372,8.415 13.445,8.416 13.600 C 8.417 13.848,8.483 13.999,8.666 14.170 C 8.838 14.331,8.959 14.381,9.188 14.383 C 9.500 14.387,9.764 14.219,9.925 13.915 C 10.007 13.757,10.009 13.478,9.928 13.300 C 9.847 13.123,9.641 12.926,9.481 12.871 C 9.304 12.811,9.030 12.814,8.888 12.879 M12.088 12.879 C 11.933 12.949,11.747 13.127,11.675 13.276 C 11.628 13.372,11.615 13.445,11.616 13.600 C 11.617 13.848,11.683 13.999,11.866 14.170 C 12.038 14.331,12.159 14.381,12.388 14.383 C 12.700 14.387,12.964 14.219,13.125 13.915 C 13.207 13.757,13.209 13.478,13.128 13.300 C 13.047 13.123,12.841 12.926,12.681 12.871 C 12.504 12.811,12.230 12.814,12.088 12.879 " fill="#1A1C1F" stroke="none" fill-rule="evenodd"></path></svg>