<svg width="32" height="32" viewBox="0 0 32 32" fill="none" xmlns="http://www.w3.org/2000/svg"><path d="M11.040 2.353 C 10.663 2.415,10.160 2.661,9.761 2.981 C 8.755 3.789,8.346 4.941,8.614 6.213 C 8.735 6.792,8.979 7.218,9.467 7.709 C 10.125 8.372,10.681 8.623,11.600 8.676 C 12.531 8.730,13.227 8.469,13.915 7.811 C 14.638 7.119,14.930 6.469,14.932 5.550 C 14.934 4.794,14.793 4.278,14.443 3.755 C 13.685 2.622,12.470 2.121,11.040 2.353 M12.236 4.395 C 12.681 4.582,12.957 4.996,12.959 5.482 C 12.962 6.341,12.213 6.865,11.337 6.616 C 10.802 6.463,10.500 5.946,10.583 5.321 C 10.650 4.818,10.877 4.538,11.384 4.335 C 11.568 4.261,11.986 4.290,12.236 4.395 M11.093 10.826 C 10.677 10.878,10.361 10.996,9.992 11.237 C 9.672 11.446,9.545 11.618,9.509 11.888 C 9.447 12.351,9.784 12.889,10.210 13.006 C 10.386 13.054,10.504 13.042,10.940 12.932 C 11.944 12.677,12.361 12.781,12.652 13.358 C 12.741 13.533,13.085 14.490,13.418 15.484 C 13.751 16.479,14.055 17.330,14.092 17.375 C 14.129 17.421,14.267 17.526,14.397 17.609 L 14.634 17.760 17.939 17.760 L 21.243 17.760 21.435 17.616 C 21.667 17.441,21.731 17.366,21.868 17.109 C 22.007 16.848,22.001 16.603,21.849 16.315 C 21.691 16.016,21.455 15.856,21.104 15.813 C 20.951 15.794,19.643 15.762,18.197 15.743 L 15.568 15.707 15.087 14.267 C 14.823 13.475,14.533 12.677,14.443 12.493 C 14.115 11.828,13.337 11.146,12.667 10.938 C 12.279 10.817,11.565 10.767,11.093 10.826 M7.067 17.272 C 6.340 17.719,5.359 19.572,5.116 20.960 C 5.027 21.469,5.028 23.088,5.117 23.652 C 5.372 25.264,6.513 27.137,7.867 28.168 C 8.797 28.877,10.057 29.449,11.081 29.628 C 11.650 29.727,13.106 29.729,13.653 29.632 C 14.564 29.469,15.767 28.969,16.571 28.418 C 17.699 27.647,19.016 25.995,19.011 25.360 C 19.007 24.841,18.575 24.427,18.040 24.427 C 17.584 24.427,17.420 24.552,16.827 25.351 C 16.135 26.284,15.326 26.949,14.423 27.328 C 13.699 27.631,13.426 27.678,12.395 27.679 C 11.361 27.680,10.963 27.607,10.274 27.289 C 8.834 26.623,7.761 25.423,7.256 23.912 C 7.096 23.432,7.093 23.407,7.093 22.346 C 7.093 20.874,7.210 20.476,8.020 19.185 C 8.217 18.872,8.415 18.528,8.460 18.419 C 8.623 18.028,8.432 17.548,8.011 17.294 C 7.757 17.140,7.299 17.129,7.067 17.272 M15.095 19.849 C 14.816 19.929,14.612 20.099,14.502 20.341 C 14.309 20.764,14.426 21.159,14.853 21.535 L 15.108 21.760 18.715 21.760 L 22.322 21.760 22.741 22.733 C 23.530 24.568,24.911 27.653,25.109 28.025 C 25.350 28.479,25.542 28.609,25.972 28.611 C 26.751 28.615,27.132 28.017,26.854 27.227 C 26.645 26.634,24.200 20.978,23.876 20.338 C 23.774 20.137,23.681 20.042,23.477 19.931 L 23.212 19.787 19.246 19.791 C 16.793 19.794,15.210 19.817,15.095 19.849 " fill="#1A1C1F" stroke="none" fill-rule="evenodd"></path></svg>