<svg width="20" height="20" viewBox="0 0 20 20" fill="none" xmlns="http://www.w3.org/2000/svg"><path d="M6.345 2.046 C 5.941 2.148,5.568 2.431,5.342 2.806 C 5.126 3.166,5.110 3.742,5.307 4.129 C 5.544 4.597,6.041 4.949,6.520 4.989 C 6.956 5.024,7.421 4.847,7.708 4.537 C 8.032 4.187,8.203 3.685,8.132 3.289 C 8.058 2.871,7.807 2.489,7.458 2.264 C 7.119 2.045,6.684 1.959,6.345 2.046 M6.233 5.865 C 6.065 5.899,5.092 6.403,3.700 7.176 C 3.012 7.557,2.948 7.606,2.837 7.827 C 2.660 8.180,2.046 10.178,2.010 10.521 C 1.976 10.836,2.237 11.248,2.581 11.425 C 2.714 11.493,2.800 11.513,2.983 11.514 C 3.369 11.518,3.658 11.356,3.825 11.044 C 3.928 10.851,4.140 10.237,4.385 9.422 L 4.514 8.994 4.840 8.830 L 5.167 8.666 5.167 8.758 C 5.167 8.809,5.097 9.375,5.011 10.017 L 4.856 11.183 3.974 13.333 C 2.900 15.954,2.676 16.522,2.615 16.784 C 2.501 17.277,2.751 17.764,3.196 17.916 C 3.428 17.995,3.783 17.982,3.983 17.887 C 4.339 17.719,4.338 17.719,5.314 15.357 C 6.047 13.582,6.053 13.567,6.099 13.567 C 6.144 13.567,6.412 13.927,6.508 14.117 C 6.555 14.208,6.745 14.726,6.931 15.267 C 7.702 17.505,7.736 17.589,7.942 17.746 C 8.446 18.128,9.179 17.953,9.447 17.387 C 9.627 17.006,9.642 17.077,8.985 15.111 C 8.661 14.140,8.354 13.272,8.302 13.182 C 8.250 13.091,7.913 12.604,7.553 12.100 L 6.898 11.183 6.917 11.017 C 6.980 10.475,7.140 9.373,7.163 9.317 C 7.189 9.255,7.202 9.262,7.337 9.402 C 7.418 9.485,7.638 9.714,7.827 9.910 C 8.208 10.307,8.341 10.391,8.627 10.421 C 8.940 10.454,9.175 10.369,9.405 10.138 C 9.562 9.981,9.605 9.911,9.665 9.717 C 9.753 9.432,9.736 9.248,9.601 9.014 C 9.499 8.838,9.140 8.400,8.083 7.167 C 7.278 6.228,7.068 6.011,6.887 5.933 C 6.727 5.864,6.400 5.830,6.233 5.865 M10.407 10.702 C 9.937 10.937,9.723 11.503,9.935 11.949 C 9.980 12.043,10.121 12.221,10.266 12.365 C 10.713 12.811,13.141 14.949,13.967 15.623 C 14.498 16.057,14.662 16.101,15.116 15.931 C 15.342 15.846,15.580 15.608,15.664 15.383 C 15.771 15.096,15.776 15.004,15.699 14.750 C 15.617 14.479,15.623 14.486,14.400 13.386 C 12.558 11.730,11.454 10.791,11.217 10.679 C 10.965 10.561,10.673 10.569,10.407 10.702 M16.617 16.111 C 16.414 16.210,16.156 16.469,16.080 16.650 C 16.009 16.820,16.007 17.176,16.077 17.342 C 16.244 17.737,16.609 17.977,17.035 17.971 C 17.288 17.967,17.425 17.908,17.635 17.711 C 17.901 17.463,17.978 17.307,17.976 17.018 C 17.974 16.715,17.899 16.538,17.681 16.320 C 17.479 16.118,17.377 16.074,17.045 16.049 C 16.812 16.032,16.765 16.038,16.617 16.111 " fill="#1A1C1F" stroke="none" fill-rule="evenodd"></path></svg>