<svg width="14" height="14" viewBox="0 0 14 14" fill="none" xmlns="http://www.w3.org/2000/svg"><path d="M6.407 1.425 C 6.236 1.453,6.008 1.576,5.870 1.715 C 5.560 2.025,5.468 2.500,5.648 2.865 C 5.732 3.036,5.953 3.273,6.114 3.367 C 6.442 3.558,6.872 3.531,7.184 3.301 C 7.709 2.915,7.784 2.199,7.347 1.737 C 7.202 1.585,6.962 1.457,6.755 1.423 C 6.598 1.397,6.569 1.398,6.407 1.425 M5.308 4.246 C 5.112 4.279,4.837 4.470,4.500 4.805 C 4.167 5.138,3.947 5.502,3.783 5.991 C 3.696 6.252,3.653 6.496,3.606 7.015 C 3.565 7.454,3.497 7.877,3.301 8.915 C 3.173 9.595,3.168 9.611,2.845 10.586 C 2.475 11.700,2.444 11.822,2.474 12.012 C 2.546 12.450,3.046 12.713,3.441 12.520 C 3.703 12.391,3.762 12.272,4.178 11.013 C 4.453 10.180,4.545 9.866,4.621 9.497 C 4.649 9.362,4.680 9.243,4.689 9.233 C 4.708 9.212,4.853 9.402,5.083 9.747 L 5.227 9.962 5.228 10.493 C 5.229 10.786,5.238 11.268,5.247 11.564 C 5.265 12.089,5.267 12.106,5.326 12.208 C 5.501 12.506,5.840 12.656,6.142 12.568 C 6.301 12.522,6.478 12.370,6.579 12.193 L 6.650 12.069 6.649 11.419 C 6.648 11.061,6.639 10.498,6.628 10.168 L 6.609 9.568 6.509 9.398 C 6.382 9.183,5.880 8.395,5.391 7.642 L 5.012 7.059 5.028 6.876 C 5.036 6.775,5.059 6.633,5.077 6.561 C 5.121 6.386,5.319 5.985,5.418 5.871 L 5.497 5.780 5.578 5.821 C 5.622 5.844,5.867 5.988,6.122 6.142 C 6.802 6.552,6.917 6.595,7.144 6.521 C 7.412 6.432,7.566 6.268,7.642 5.985 C 7.676 5.860,7.678 5.818,7.655 5.727 C 7.613 5.559,7.549 5.452,7.428 5.345 C 7.249 5.187,5.892 4.331,5.740 4.280 C 5.629 4.243,5.422 4.226,5.308 4.246 M8.478 6.367 C 8.258 6.470,8.084 6.702,8.057 6.929 C 8.038 7.097,8.101 7.258,8.516 8.091 L 8.885 8.832 9.141 9.085 L 9.398 9.339 9.201 9.645 C 8.921 10.083,8.862 10.210,8.861 10.376 C 8.860 10.552,8.897 10.680,8.982 10.798 C 9.132 11.005,9.431 11.132,9.651 11.083 C 9.932 11.020,10.013 10.948,10.308 10.508 C 10.756 9.838,11.376 8.861,11.473 8.673 C 11.637 8.353,11.473 7.924,11.128 7.772 C 11.035 7.731,10.950 7.723,10.450 7.709 L 9.879 7.693 9.642 7.224 C 9.308 6.563,9.272 6.510,9.095 6.416 C 8.971 6.350,8.920 6.336,8.762 6.330 C 8.614 6.323,8.555 6.331,8.478 6.367 M7.871 11.233 C 7.736 11.276,7.626 11.348,7.528 11.457 C 7.409 11.589,7.367 11.698,7.365 11.888 C 7.363 12.106,7.430 12.259,7.596 12.410 C 7.782 12.580,8.006 12.627,8.273 12.553 C 8.423 12.512,8.656 12.286,8.699 12.142 C 8.733 12.026,8.735 11.779,8.703 11.664 C 8.624 11.381,8.160 11.140,7.871 11.233 M10.671 11.233 C 10.536 11.276,10.426 11.348,10.328 11.457 C 10.209 11.589,10.167 11.698,10.165 11.888 C 10.163 12.106,10.230 12.259,10.396 12.410 C 10.582 12.580,10.806 12.627,11.073 12.553 C 11.223 12.512,11.456 12.286,11.499 12.142 C 11.533 12.026,11.535 11.779,11.503 11.664 C 11.424 11.381,10.960 11.140,10.671 11.233 " fill="#1A1C1F" stroke="none" fill-rule="evenodd"></path></svg>