<svg width="16" height="16" viewBox="0 0 16 16" fill="none" xmlns="http://www.w3.org/2000/svg"><path d="M2.867 1.665 C 2.743 1.720,2.567 1.885,2.489 2.019 C 2.389 2.189,2.370 2.497,2.448 2.673 C 2.513 2.820,2.804 3.125,4.692 5.020 L 6.066 6.400 4.699 6.400 L 3.332 6.400 3.307 6.334 C 3.293 6.298,3.263 6.133,3.240 5.968 C 3.140 5.242,3.119 5.184,2.907 5.016 C 2.470 4.671,1.868 4.825,1.668 5.333 C 1.526 5.695,1.641 6.562,1.900 7.080 C 1.985 7.251,2.100 7.408,2.282 7.600 L 2.396 7.720 2.409 10.213 C 2.417 11.789,2.432 12.760,2.450 12.851 C 2.466 12.930,2.521 13.085,2.573 13.195 C 2.843 13.764,3.272 14.138,3.867 14.324 C 4.124 14.404,4.612 14.410,4.878 14.336 C 5.514 14.162,6.015 13.721,6.257 13.122 C 6.359 12.869,6.375 12.745,6.392 12.112 L 6.407 11.517 6.477 11.532 C 6.876 11.618,7.526 11.617,7.927 11.531 L 8.000 11.516 8.000 11.951 C 8.000 12.893,8.118 13.289,8.533 13.742 C 9.095 14.355,9.969 14.559,10.727 14.254 C 11.240 14.048,11.670 13.614,11.875 13.097 L 11.956 12.893 11.976 12.067 C 11.986 11.612,11.996 10.490,11.998 9.573 L 12.000 7.907 12.233 7.833 C 13.018 7.584,13.703 7.017,14.047 6.333 C 14.267 5.896,14.382 5.426,14.384 4.959 C 14.385 4.646,14.381 4.616,14.311 4.473 C 14.237 4.321,14.095 4.181,13.933 4.100 C 13.889 4.078,13.356 3.889,12.748 3.682 L 11.642 3.304 10.974 2.645 C 9.980 1.664,9.949 1.641,9.613 1.640 C 9.435 1.640,9.376 1.652,9.253 1.712 C 9.062 1.806,8.923 1.954,8.871 2.120 C 8.807 2.322,8.749 2.638,8.439 4.480 C 8.282 5.411,8.148 6.179,8.142 6.186 C 8.136 6.192,7.379 5.448,6.459 4.531 C 4.146 2.225,3.643 1.738,3.511 1.678 C 3.376 1.617,2.991 1.609,2.867 1.665 M10.507 4.441 L 10.787 4.713 11.509 4.955 C 12.651 5.339,12.693 5.356,12.693 5.423 C 12.693 5.512,12.510 5.804,12.355 5.961 C 12.269 6.049,12.140 6.140,12.008 6.206 C 11.807 6.307,11.707 6.333,11.126 6.437 C 10.858 6.484,10.702 6.570,10.562 6.747 C 10.456 6.881,10.401 7.077,10.400 7.322 C 10.399 7.512,10.387 7.512,10.004 7.320 C 9.699 7.167,9.653 7.136,9.653 7.080 C 9.653 7.013,10.058 4.497,10.109 4.245 C 10.143 4.076,10.116 4.063,10.507 4.441 M7.200 9.000 L 7.200 10.000 7.092 10.000 C 6.915 10.000,6.607 9.925,6.192 9.782 C 5.856 9.665,5.770 9.646,5.587 9.643 C 5.338 9.640,5.213 9.692,5.030 9.875 C 4.815 10.091,4.821 10.054,4.797 11.366 C 4.773 12.672,4.776 12.650,4.582 12.749 C 4.398 12.843,4.208 12.790,4.070 12.605 C 4.018 12.536,4.017 12.481,4.005 10.267 L 3.993 8.000 5.596 8.000 L 7.200 8.000 7.200 9.000 M10.398 10.447 C 10.396 11.074,10.387 11.813,10.378 12.089 L 10.360 12.591 10.262 12.680 C 10.133 12.799,10.004 12.823,9.845 12.757 C 9.619 12.663,9.626 12.699,9.602 11.365 L 9.582 10.196 9.504 10.053 C 9.414 9.887,9.229 9.731,9.047 9.667 C 8.798 9.579,8.808 9.607,8.803 8.967 L 8.800 8.506 9.600 8.907 L 10.400 9.307 10.398 10.447 " fill="#1A1C1F" stroke="none" fill-rule="evenodd"></path></svg>