<svg width="24" height="24" viewBox="0 0 24 24" fill="none" xmlns="http://www.w3.org/2000/svg"><path d="M3.900 2.097 C 3.678 2.178,3.419 2.474,3.335 2.741 C 3.276 2.926,3.273 2.987,3.316 3.176 C 3.357 3.359,3.413 3.451,3.656 3.728 C 3.816 3.911,5.212 5.333,6.758 6.890 L 9.569 9.720 6.964 9.720 L 4.359 9.720 4.281 9.592 C 4.182 9.428,4.101 9.074,4.021 8.440 C 3.921 7.656,3.848 7.504,3.475 7.301 C 2.974 7.028,2.350 7.230,2.097 7.747 C 1.878 8.196,2.075 9.633,2.464 10.424 C 2.557 10.614,2.714 10.826,2.937 11.065 L 3.270 11.422 3.290 15.481 C 3.313 20.005,3.296 19.726,3.599 20.340 C 3.785 20.718,4.009 20.999,4.362 21.300 C 5.514 22.279,7.181 22.206,8.262 21.129 C 8.694 20.698,8.991 20.138,9.079 19.588 C 9.101 19.448,9.137 18.913,9.159 18.399 C 9.181 17.885,9.213 17.452,9.229 17.436 C 9.246 17.420,9.422 17.433,9.620 17.466 C 10.110 17.547,11.675 17.520,12.000 17.425 C 12.121 17.390,12.231 17.361,12.245 17.360 C 12.259 17.360,12.279 17.841,12.290 18.430 C 12.307 19.343,12.322 19.545,12.392 19.805 C 12.541 20.356,12.696 20.615,13.160 21.085 C 13.522 21.452,13.627 21.534,13.920 21.674 C 14.406 21.907,14.698 21.974,15.220 21.974 C 15.743 21.974,16.044 21.905,16.500 21.679 C 17.206 21.330,17.753 20.704,18.000 19.962 C 18.127 19.581,18.157 18.612,18.159 14.839 L 18.160 11.617 18.550 11.502 C 20.659 10.881,21.966 9.210,21.977 7.120 C 21.981 6.488,21.867 6.234,21.490 6.030 C 21.305 5.930,19.989 5.465,18.460 4.959 L 17.700 4.707 16.460 3.488 C 15.778 2.817,15.140 2.217,15.042 2.154 C 14.892 2.058,14.823 2.040,14.595 2.040 C 14.274 2.040,14.158 2.079,13.934 2.263 C 13.633 2.510,13.635 2.499,12.896 6.931 C 12.658 8.356,12.451 9.542,12.436 9.567 C 12.417 9.597,12.368 9.583,12.284 9.523 C 12.216 9.474,10.535 7.824,8.550 5.857 C 6.564 3.889,4.872 2.231,4.789 2.173 C 4.601 2.042,4.155 2.004,3.900 2.097 M15.998 5.853 C 16.318 6.157,16.634 6.428,16.700 6.456 C 16.766 6.484,17.495 6.737,18.320 7.018 C 19.145 7.299,19.843 7.550,19.871 7.577 C 19.912 7.616,19.907 7.674,19.842 7.882 C 19.737 8.223,19.527 8.567,19.248 8.855 C 18.828 9.287,18.399 9.498,17.658 9.639 C 17.417 9.685,17.121 9.741,17.000 9.765 C 16.603 9.842,16.314 10.070,16.207 10.393 C 16.182 10.466,16.152 10.718,16.139 10.953 C 16.108 11.513,16.097 11.560,15.996 11.560 C 15.876 11.560,14.405 10.805,14.360 10.720 C 14.333 10.669,14.450 9.871,14.760 7.994 C 15.002 6.534,15.209 5.297,15.222 5.246 C 15.249 5.131,15.187 5.083,15.998 5.853 M11.000 13.660 L 11.000 15.600 10.785 15.600 C 10.296 15.600,9.706 15.445,8.815 15.084 C 8.312 14.880,8.121 14.851,7.832 14.935 C 7.664 14.984,7.570 15.043,7.443 15.182 C 7.136 15.514,7.147 15.441,7.101 17.540 C 7.061 19.395,7.059 19.422,6.968 19.567 C 6.851 19.756,6.559 19.949,6.343 19.982 C 6.015 20.031,5.650 19.852,5.431 19.536 L 5.321 19.378 5.294 15.549 L 5.267 11.720 8.133 11.720 L 11.000 11.720 11.000 13.660 M14.615 13.150 L 16.132 13.900 16.106 16.560 C 16.091 18.023,16.063 19.298,16.044 19.393 C 16.024 19.493,15.962 19.615,15.896 19.684 C 15.758 19.828,15.407 20.000,15.250 20.000 C 15.062 20.000,14.781 19.885,14.610 19.739 C 14.317 19.489,14.325 19.538,14.280 17.494 C 14.258 16.485,14.229 15.604,14.216 15.535 C 14.185 15.369,13.995 15.144,13.778 15.017 C 13.649 14.941,13.524 14.908,13.301 14.891 L 13.000 14.868 13.001 13.724 C 13.001 12.653,13.015 12.400,13.073 12.400 C 13.086 12.400,13.780 12.738,14.615 13.150 " fill="#1A1C1F" stroke="none" fill-rule="evenodd"></path></svg>