<svg width="14" height="14" viewBox="0 0 14 14" fill="none" xmlns="http://www.w3.org/2000/svg"><path d="M2.578 1.427 C 2.400 1.495,2.220 1.659,2.150 1.820 C 2.030 2.098,2.068 2.280,2.303 2.556 C 2.389 2.657,3.100 3.384,3.882 4.170 L 5.304 5.600 4.104 5.594 L 2.905 5.588 2.878 5.479 C 2.863 5.419,2.834 5.236,2.813 5.073 C 2.749 4.580,2.669 4.429,2.404 4.298 C 2.218 4.207,1.980 4.208,1.791 4.301 C 1.457 4.465,1.345 4.812,1.433 5.410 C 1.515 5.968,1.665 6.297,1.996 6.650 L 2.095 6.755 2.109 8.937 C 2.117 10.138,2.134 11.175,2.146 11.245 C 2.219 11.657,2.618 12.172,3.030 12.387 C 3.323 12.540,3.530 12.588,3.873 12.586 C 4.136 12.584,4.188 12.577,4.392 12.510 C 4.875 12.351,5.278 11.968,5.475 11.482 C 5.564 11.261,5.578 11.152,5.593 10.597 L 5.606 10.076 5.663 10.091 C 5.963 10.166,6.639 10.166,6.940 10.090 L 7.000 10.075 7.000 10.422 C 7.001 11.156,7.045 11.383,7.261 11.748 C 7.674 12.445,8.526 12.763,9.292 12.506 C 9.585 12.408,9.753 12.301,9.992 12.058 C 10.164 11.884,10.214 11.814,10.313 11.613 C 10.378 11.482,10.442 11.322,10.456 11.258 C 10.472 11.183,10.485 10.397,10.493 9.029 L 10.505 6.917 10.707 6.853 C 11.123 6.720,11.564 6.453,11.853 6.158 C 12.287 5.716,12.581 5.001,12.586 4.375 C 12.589 4.023,12.549 3.890,12.392 3.734 C 12.260 3.602,12.103 3.539,11.002 3.173 L 10.208 2.909 9.524 2.237 C 8.780 1.507,8.709 1.453,8.454 1.430 C 8.285 1.415,8.156 1.449,8.013 1.546 C 7.847 1.659,7.770 1.768,7.733 1.945 C 7.704 2.084,7.528 3.095,7.244 4.748 C 7.184 5.095,7.131 5.383,7.125 5.389 C 7.112 5.402,6.925 5.220,5.425 3.733 C 3.296 1.622,3.217 1.547,3.068 1.479 C 2.917 1.410,2.689 1.386,2.578 1.427 M9.168 3.858 L 9.438 4.123 10.070 4.335 C 11.049 4.665,11.107 4.687,11.107 4.740 C 11.107 4.857,10.866 5.197,10.698 5.318 C 10.471 5.480,10.280 5.546,9.851 5.610 C 9.552 5.655,9.434 5.706,9.291 5.852 C 9.164 5.982,9.125 6.084,9.106 6.337 C 9.099 6.430,9.086 6.518,9.076 6.534 C 9.064 6.553,8.969 6.515,8.753 6.406 C 8.482 6.268,8.447 6.243,8.447 6.191 C 8.447 6.135,8.753 4.241,8.834 3.798 C 8.855 3.685,8.877 3.593,8.884 3.593 C 8.892 3.593,9.019 3.712,9.168 3.858 M6.300 7.875 L 6.300 8.750 6.221 8.750 C 6.067 8.750,5.753 8.676,5.428 8.562 C 5.127 8.457,5.080 8.447,4.888 8.447 C 4.699 8.447,4.667 8.454,4.559 8.516 C 4.420 8.595,4.328 8.697,4.263 8.842 C 4.221 8.937,4.215 9.025,4.198 9.869 C 4.174 10.993,4.171 11.025,4.079 11.110 C 3.948 11.233,3.737 11.221,3.604 11.082 L 3.535 11.010 3.520 10.434 C 3.512 10.118,3.504 9.215,3.503 8.429 L 3.500 7.000 4.900 7.000 L 6.300 7.000 6.300 7.875 M9.098 9.129 C 9.096 10.438,9.075 10.989,9.024 11.067 C 8.973 11.144,8.799 11.210,8.692 11.193 C 8.571 11.173,8.475 11.095,8.448 10.995 C 8.436 10.947,8.416 10.467,8.404 9.927 C 8.385 9.017,8.380 8.939,8.336 8.839 C 8.250 8.645,8.033 8.471,7.823 8.428 C 7.737 8.410,7.735 8.407,7.720 8.282 C 7.711 8.212,7.704 7.995,7.702 7.799 L 7.700 7.443 8.400 7.793 L 9.100 8.143 9.098 9.129 " fill="#1A1C1F" stroke="none" fill-rule="evenodd"></path></svg>