<svg width="20" height="20" viewBox="0 0 20 20" fill="none" xmlns="http://www.w3.org/2000/svg"><path d="M3.582 2.116 C 3.144 2.334,2.936 2.747,3.031 3.206 C 3.061 3.351,3.109 3.439,3.258 3.619 C 3.362 3.746,4.376 4.783,5.512 5.924 L 7.576 8.000 5.876 8.000 L 4.175 8.000 4.140 7.908 C 4.079 7.750,4.069 7.694,4.017 7.221 C 3.955 6.661,3.889 6.490,3.658 6.282 C 3.281 5.943,2.653 5.953,2.303 6.303 C 2.066 6.539,1.981 6.853,2.012 7.381 C 2.062 8.248,2.315 8.905,2.810 9.451 L 2.993 9.652 3.009 12.734 C 3.020 14.859,3.038 15.884,3.064 16.033 C 3.114 16.313,3.349 16.793,3.565 17.057 C 4.120 17.736,5.017 18.098,5.824 17.968 C 6.852 17.803,7.639 17.106,7.917 16.115 C 7.958 15.968,7.977 15.721,7.991 15.156 C 8.008 14.400,8.009 14.395,8.079 14.413 C 8.118 14.423,8.340 14.449,8.573 14.469 C 8.972 14.505,9.700 14.475,9.921 14.414 C 9.991 14.394,9.992 14.399,10.008 15.139 C 10.030 16.130,10.106 16.419,10.486 16.954 C 10.900 17.539,11.665 17.953,12.399 17.990 C 12.959 18.018,13.608 17.800,14.057 17.434 C 14.447 17.117,14.747 16.672,14.900 16.183 C 14.972 15.952,14.973 15.921,14.991 12.913 L 15.010 9.876 15.192 9.818 C 15.835 9.616,16.433 9.268,16.848 8.855 C 17.223 8.482,17.388 8.264,17.560 7.917 C 17.833 7.362,17.977 6.776,17.981 6.200 C 17.983 5.817,17.976 5.768,17.896 5.597 C 17.710 5.200,17.686 5.188,15.743 4.533 L 14.550 4.131 13.817 3.405 C 12.826 2.424,12.581 2.204,12.370 2.107 C 12.212 2.034,12.162 2.027,11.945 2.045 C 11.810 2.056,11.644 2.089,11.575 2.118 C 11.420 2.182,11.215 2.377,11.131 2.539 C 11.051 2.694,10.887 3.567,10.497 5.910 L 10.187 7.770 8.052 5.643 C 4.784 2.387,4.607 2.216,4.398 2.118 C 4.145 2.001,3.814 2.000,3.582 2.116 M13.056 5.470 C 13.276 5.676,13.482 5.837,13.583 5.883 C 13.675 5.924,14.178 6.104,14.700 6.283 C 15.707 6.627,15.826 6.675,15.855 6.752 C 15.884 6.827,15.709 7.143,15.521 7.354 C 15.237 7.672,14.838 7.876,14.325 7.962 C 14.201 7.983,14.005 8.016,13.888 8.036 C 13.628 8.081,13.309 8.251,13.208 8.400 C 13.096 8.565,13.000 8.912,13.000 9.154 C 13.000 9.271,12.991 9.367,12.981 9.367 C 12.951 9.367,12.192 8.976,12.122 8.925 C 12.064 8.882,12.063 8.864,12.116 8.482 C 12.208 7.805,12.662 5.133,12.685 5.133 C 12.690 5.133,12.857 5.285,13.056 5.470 M9.000 11.250 L 9.000 12.500 8.875 12.500 C 8.695 12.499,8.269 12.391,7.697 12.200 C 7.143 12.015,6.932 11.993,6.649 12.089 C 6.434 12.162,6.121 12.464,6.068 12.650 C 6.046 12.729,6.018 13.315,5.999 14.083 C 5.960 15.702,5.958 15.715,5.819 15.855 C 5.759 15.914,5.669 15.973,5.619 15.986 C 5.495 16.017,5.286 15.949,5.161 15.838 C 5.067 15.754,5.055 15.721,5.031 15.465 C 5.016 15.310,5.003 14.017,5.002 12.592 L 5.000 10.000 7.000 10.000 L 9.000 10.000 9.000 11.250 M12.039 11.139 L 13.000 11.612 13.000 13.610 C 13.000 15.573,12.999 15.611,12.931 15.720 C 12.825 15.892,12.680 15.980,12.503 15.979 C 12.317 15.979,12.230 15.935,12.115 15.784 L 12.027 15.668 11.999 14.226 C 11.980 13.209,11.959 12.745,11.929 12.654 C 11.836 12.374,11.465 12.080,11.125 12.019 L 11.000 11.997 11.000 11.354 C 11.000 10.769,11.009 10.667,11.062 10.667 C 11.071 10.667,11.511 10.879,12.039 11.139 " fill="#1A1C1F" stroke="none" fill-rule="evenodd"></path></svg>