<svg width="12" height="12" viewBox="0 0 12 12" fill="none" xmlns="http://www.w3.org/2000/svg"><path d="M2.240 1.217 C 1.920 1.323,1.725 1.642,1.808 1.926 C 1.831 2.004,1.876 2.076,1.974 2.191 C 2.049 2.279,2.658 2.901,3.328 3.575 L 4.546 4.800 3.522 4.800 L 2.499 4.800 2.480 4.751 C 2.470 4.724,2.448 4.600,2.431 4.476 C 2.414 4.352,2.390 4.190,2.378 4.116 C 2.346 3.913,2.241 3.775,2.040 3.669 C 1.930 3.611,1.700 3.617,1.559 3.683 C 1.415 3.749,1.313 3.840,1.261 3.949 C 1.168 4.141,1.193 4.643,1.314 5.030 C 1.403 5.310,1.501 5.476,1.711 5.700 L 1.795 5.790 1.808 7.660 C 1.815 8.689,1.829 9.579,1.840 9.638 C 1.879 9.861,2.070 10.189,2.274 10.383 C 2.828 10.910,3.678 10.936,4.256 10.445 C 4.397 10.325,4.560 10.120,4.639 9.963 C 4.757 9.727,4.783 9.580,4.795 9.083 L 4.805 8.637 4.854 8.649 C 5.109 8.713,5.690 8.713,5.946 8.649 L 5.994 8.637 6.005 9.084 C 6.018 9.581,6.034 9.684,6.132 9.897 C 6.329 10.327,6.689 10.637,7.128 10.753 C 7.296 10.797,7.706 10.796,7.876 10.752 C 8.344 10.628,8.722 10.274,8.925 9.771 L 8.990 9.610 8.996 7.768 L 9.002 5.927 9.164 5.880 C 9.603 5.753,10.139 5.376,10.376 5.025 C 10.639 4.639,10.818 4.052,10.794 3.660 C 10.780 3.433,10.735 3.313,10.621 3.199 C 10.508 3.086,10.395 3.040,9.430 2.720 L 8.750 2.494 8.164 1.918 C 7.527 1.292,7.466 1.246,7.246 1.226 C 7.102 1.213,6.992 1.242,6.868 1.325 C 6.670 1.458,6.660 1.482,6.544 2.132 C 6.465 2.577,6.238 3.888,6.126 4.555 C 6.120 4.591,6.107 4.620,6.097 4.620 C 6.088 4.620,5.511 4.055,4.815 3.365 C 2.840 1.407,2.763 1.332,2.644 1.272 C 2.531 1.215,2.330 1.188,2.240 1.217 M7.858 3.307 L 8.090 3.534 8.632 3.716 C 9.490 4.005,9.520 4.017,9.520 4.067 C 9.520 4.133,9.383 4.352,9.269 4.468 C 9.088 4.653,8.860 4.747,8.444 4.809 C 8.188 4.847,8.086 4.891,7.964 5.016 C 7.855 5.128,7.822 5.215,7.805 5.432 C 7.799 5.511,7.788 5.587,7.780 5.600 C 7.769 5.617,7.687 5.585,7.503 5.491 C 7.272 5.373,7.240 5.351,7.240 5.307 C 7.240 5.257,7.542 3.381,7.582 3.185 C 7.593 3.127,7.608 3.080,7.615 3.080 C 7.621 3.080,7.731 3.182,7.858 3.307 M5.400 6.750 L 5.400 7.500 5.332 7.500 C 5.198 7.500,4.937 7.437,4.616 7.327 C 4.311 7.223,4.282 7.217,4.160 7.229 C 3.923 7.252,3.744 7.375,3.654 7.578 C 3.618 7.660,3.613 7.734,3.598 8.459 C 3.577 9.425,3.575 9.450,3.497 9.523 C 3.384 9.629,3.203 9.618,3.089 9.499 L 3.030 9.437 3.017 8.934 C 3.010 8.657,3.003 7.883,3.002 7.215 L 3.000 6.000 4.200 6.000 L 5.400 6.000 5.400 6.750 M7.800 7.795 C 7.800 8.243,7.794 8.795,7.787 9.020 L 7.774 9.430 7.701 9.503 C 7.625 9.580,7.521 9.615,7.432 9.592 C 7.365 9.575,7.261 9.484,7.237 9.422 C 7.226 9.393,7.209 8.994,7.199 8.527 C 7.190 8.058,7.173 7.648,7.161 7.605 C 7.122 7.459,6.835 7.221,6.697 7.220 C 6.600 7.220,6.600 7.221,6.600 6.788 L 6.600 6.380 7.200 6.680 L 7.800 6.980 7.800 7.795 " fill="#1A1C1F" stroke="none" fill-rule="evenodd"></path></svg>