<svg width="28" height="28" viewBox="0 0 28 28" fill="none" xmlns="http://www.w3.org/2000/svg"><path d="M16.981 1.816 C 16.764 1.886,16.570 2.065,16.498 2.260 C 16.380 2.582,16.201 3.585,15.162 9.742 C 15.001 10.698,14.852 11.480,14.831 11.480 C 14.786 11.480,14.700 11.400,11.948 8.773 C 8.820 5.789,5.334 2.478,5.004 2.177 C 4.669 1.872,4.560 1.820,4.259 1.820 C 3.942 1.820,3.680 1.991,3.528 2.295 C 3.386 2.580,3.378 2.701,3.487 2.933 C 3.596 3.165,4.720 4.284,8.190 7.614 C 9.807 9.166,11.361 10.665,11.643 10.945 L 12.157 11.454 11.947 11.487 C 11.831 11.505,10.056 11.521,8.001 11.523 L 4.265 11.527 4.121 11.375 C 3.796 11.034,3.642 10.556,3.529 9.543 C 3.492 9.209,3.437 8.874,3.407 8.797 C 3.288 8.485,2.999 8.295,2.636 8.290 C 2.354 8.286,2.150 8.392,1.942 8.650 L 1.797 8.830 1.801 9.583 C 1.805 10.202,1.825 10.411,1.911 10.754 C 2.047 11.290,2.266 11.806,2.509 12.164 C 2.689 12.430,3.235 12.973,3.321 12.973 C 3.343 12.973,3.362 14.722,3.365 16.858 C 3.367 18.995,3.384 21.405,3.403 22.213 C 3.436 23.634,3.441 23.694,3.556 23.998 C 3.729 24.455,3.947 24.799,4.309 25.184 C 5.065 25.988,5.994 26.321,7.122 26.194 C 8.324 26.059,9.403 25.158,9.834 23.931 C 9.951 23.599,9.954 23.554,9.972 22.143 C 9.981 21.348,10.001 20.587,10.014 20.454 C 10.039 20.213,10.040 20.212,10.165 20.259 C 10.234 20.285,10.542 20.369,10.850 20.446 C 11.880 20.702,12.961 20.683,14.125 20.389 C 14.424 20.314,14.678 20.263,14.691 20.275 C 14.704 20.288,14.730 21.040,14.750 21.946 C 14.786 23.565,14.789 23.599,14.908 23.917 C 15.303 24.966,15.995 25.672,17.005 26.055 C 17.356 26.188,17.428 26.199,17.990 26.200 C 18.701 26.202,18.967 26.147,19.490 25.893 C 20.106 25.594,20.821 24.867,21.070 24.287 C 21.114 24.186,21.200 23.958,21.261 23.780 L 21.373 23.457 21.373 18.386 C 21.373 15.596,21.387 13.126,21.403 12.896 L 21.433 12.478 22.021 12.394 C 22.953 12.261,23.758 11.995,24.280 11.648 C 24.602 11.434,25.268 10.759,25.490 10.421 C 25.910 9.782,26.175 8.877,26.214 7.947 C 26.243 7.252,26.213 7.127,25.970 6.913 C 25.774 6.741,25.461 6.623,23.007 5.799 L 20.977 5.117 19.432 3.593 C 18.582 2.754,17.813 2.012,17.722 1.943 C 17.542 1.805,17.196 1.746,16.981 1.816 M19.037 5.665 C 19.539 6.149,19.992 6.573,20.043 6.605 C 20.095 6.638,21.082 6.984,22.237 7.373 C 23.392 7.763,24.363 8.107,24.396 8.138 C 24.443 8.183,24.436 8.267,24.361 8.566 C 24.144 9.420,23.720 9.979,23.030 10.316 C 22.450 10.600,22.221 10.643,21.117 10.672 C 20.161 10.697,20.133 10.701,19.979 10.816 C 19.700 11.025,19.656 11.202,19.604 12.339 C 19.579 12.899,19.547 13.369,19.533 13.383 C 19.486 13.430,16.713 12.345,16.607 12.239 C 16.585 12.217,16.642 11.728,16.734 11.151 C 16.902 10.089,17.687 5.356,17.785 4.815 L 17.838 4.520 17.981 4.652 C 18.060 4.724,18.535 5.180,19.037 5.665 M13.533 16.002 L 13.533 18.751 13.312 18.800 C 12.697 18.935,11.727 18.897,11.105 18.714 C 10.914 18.657,10.431 18.485,10.034 18.330 C 9.218 18.013,9.007 17.984,8.693 18.146 C 8.320 18.338,8.264 18.630,8.261 20.393 C 8.258 22.097,8.190 23.292,8.080 23.537 C 7.975 23.771,7.572 24.181,7.336 24.294 C 7.088 24.412,6.519 24.436,6.194 24.342 C 5.873 24.248,5.469 23.898,5.313 23.577 C 5.209 23.361,5.206 23.314,5.174 21.303 C 5.156 20.174,5.139 17.901,5.137 16.252 L 5.133 13.253 9.333 13.253 L 13.533 13.253 13.533 16.002 M17.582 14.550 L 19.600 15.330 19.600 19.310 L 19.600 23.289 19.459 23.569 C 19.165 24.152,18.665 24.479,18.083 24.472 C 17.638 24.466,17.285 24.324,16.984 24.031 C 16.855 23.905,16.716 23.723,16.676 23.626 C 16.586 23.411,16.527 22.330,16.521 20.790 C 16.516 19.454,16.460 18.633,16.360 18.441 C 16.242 18.211,15.936 18.060,15.592 18.060 L 15.301 18.060 15.316 15.948 C 15.324 14.787,15.348 13.809,15.370 13.775 C 15.392 13.741,15.444 13.726,15.486 13.742 C 15.529 13.758,16.472 14.121,17.582 14.550 " fill="#1A1C1F" stroke="none" fill-rule="evenodd"></path></svg>