<svg width="32" height="32" viewBox="0 0 32 32" fill="none" xmlns="http://www.w3.org/2000/svg"><path d="M4.541 2.065 C 4.334 2.104,3.976 2.506,3.897 2.786 C 3.802 3.126,3.844 3.243,4.207 3.664 C 4.499 4.002,6.802 6.245,10.133 9.437 C 11.851 11.082,13.813 13.019,13.813 13.069 C 13.813 13.157,13.072 13.173,9.092 13.173 L 4.866 13.173 4.676 12.963 C 4.315 12.564,4.201 12.210,4.050 11.026 C 3.908 9.908,3.864 9.803,3.443 9.588 C 3.003 9.363,2.367 9.533,2.147 9.935 C 2.015 10.178,2.020 11.466,2.156 12.107 C 2.287 12.726,2.564 13.482,2.768 13.779 C 3.009 14.129,3.511 14.659,3.689 14.751 L 3.840 14.829 3.841 20.841 L 3.841 26.853 4.068 27.413 C 4.352 28.115,4.593 28.477,5.085 28.945 C 5.539 29.376,5.890 29.590,6.480 29.792 C 6.868 29.925,6.976 29.938,7.680 29.938 C 8.424 29.938,8.470 29.932,8.888 29.767 C 9.955 29.348,10.759 28.562,11.173 27.535 C 11.357 27.079,11.407 26.505,11.411 24.773 C 11.413 24.069,11.429 23.405,11.447 23.297 C 11.478 23.111,11.486 23.103,11.620 23.154 C 11.697 23.184,12.048 23.280,12.400 23.367 C 12.903 23.493,13.206 23.533,13.813 23.557 C 14.708 23.592,15.259 23.532,16.150 23.302 C 16.487 23.216,16.775 23.157,16.790 23.173 C 16.806 23.188,16.836 24.048,16.858 25.084 L 16.898 26.968 17.063 27.391 C 17.454 28.396,18.058 29.090,18.933 29.541 C 19.624 29.896,19.835 29.947,20.613 29.944 C 21.826 29.938,22.421 29.689,23.282 28.829 C 23.852 28.258,24.032 27.967,24.296 27.192 L 24.427 26.808 24.427 20.526 L 24.427 14.245 24.600 14.219 C 24.695 14.204,24.943 14.179,25.150 14.163 C 25.620 14.127,26.496 13.909,26.992 13.705 C 28.193 13.209,29.194 12.123,29.632 10.841 C 29.945 9.923,30.083 8.526,29.895 8.164 C 29.696 7.778,29.618 7.745,26.308 6.635 L 23.973 5.852 22.533 4.431 C 21.741 3.649,20.859 2.785,20.573 2.511 L 20.052 2.012 19.732 2.045 C 19.334 2.087,19.014 2.245,18.906 2.454 C 18.762 2.732,18.437 4.524,17.323 11.160 C 17.143 12.238,16.972 13.120,16.945 13.120 C 16.918 13.120,16.724 12.956,16.514 12.756 C 16.305 12.556,15.029 11.338,13.679 10.050 C 9.584 6.139,6.896 3.591,5.813 2.592 C 5.227 2.050,5.035 1.971,4.541 2.065 M21.814 6.517 L 22.924 7.592 25.368 8.414 C 26.713 8.865,27.844 9.264,27.881 9.300 C 27.935 9.352,27.927 9.448,27.841 9.789 C 27.594 10.766,27.109 11.404,26.320 11.790 C 25.657 12.114,25.395 12.163,24.133 12.197 C 23.042 12.226,23.009 12.230,22.834 12.361 C 22.514 12.600,22.464 12.802,22.405 14.102 C 22.376 14.742,22.339 15.278,22.323 15.294 C 22.269 15.349,19.024 14.077,18.962 13.977 C 18.933 13.929,20.184 6.132,20.352 5.319 L 20.382 5.171 20.543 5.307 C 20.632 5.381,21.204 5.926,21.814 6.517 M15.467 18.288 L 15.467 21.429 15.213 21.485 C 14.511 21.640,13.403 21.597,12.692 21.387 C 12.473 21.323,11.929 21.128,11.483 20.955 C 10.551 20.592,10.258 20.557,9.893 20.761 C 9.482 20.992,9.485 20.974,9.434 23.726 C 9.379 26.759,9.381 26.737,9.125 27.132 C 8.752 27.709,8.326 27.960,7.707 27.967 C 7.475 27.970,7.227 27.935,7.053 27.874 C 6.706 27.755,6.262 27.361,6.065 26.998 L 5.921 26.734 5.885 20.940 L 5.849 15.147 10.658 15.147 L 15.467 15.147 15.467 18.288 M20.034 16.600 L 22.400 17.520 22.400 22.068 L 22.400 26.616 22.246 26.922 C 22.070 27.269,21.606 27.736,21.300 27.871 C 20.992 28.008,20.374 27.995,19.986 27.845 C 19.627 27.705,19.184 27.303,19.058 27.001 C 18.955 26.756,18.888 25.520,18.881 23.760 C 18.876 22.233,18.812 21.295,18.698 21.075 C 18.563 20.814,18.213 20.640,17.822 20.640 L 17.493 20.640 17.493 18.407 C 17.493 16.171,17.515 15.680,17.614 15.680 C 17.644 15.680,18.732 16.094,20.034 16.600 " fill="#1A1C1F" stroke="none" fill-rule="evenodd"></path></svg>