<svg width="20" height="20" viewBox="0 0 20 20" fill="none" xmlns="http://www.w3.org/2000/svg"><path d="M4.383 2.096 C 3.490 2.356,2.804 3.019,2.491 3.925 C 2.399 4.193,2.391 4.251,2.391 4.683 C 2.390 5.122,2.396 5.169,2.497 5.467 C 2.667 5.972,2.832 6.231,3.258 6.663 C 3.465 6.871,3.633 7.045,3.633 7.047 C 3.633 7.050,3.565 7.255,3.482 7.501 C 3.399 7.748,3.295 8.092,3.252 8.267 C 2.927 9.557,2.978 10.916,3.401 12.207 C 3.546 12.651,4.034 13.674,4.279 14.050 C 4.363 14.178,4.432 14.314,4.433 14.352 C 4.433 14.390,4.172 14.849,3.852 15.373 C 3.176 16.483,3.069 16.683,3.044 16.897 C 3.007 17.214,3.190 17.623,3.448 17.797 C 3.672 17.948,3.774 17.975,4.076 17.962 C 4.530 17.943,4.581 17.891,5.452 16.577 L 5.987 15.770 6.352 15.973 C 7.305 16.504,8.394 16.862,9.283 16.938 C 9.824 16.983,10.878 16.952,11.226 16.880 C 11.834 16.755,12.742 16.448,13.220 16.207 C 13.329 16.152,13.545 16.030,13.701 15.937 C 13.856 15.843,14.001 15.767,14.022 15.767 C 14.044 15.767,14.323 16.161,14.642 16.643 C 15.318 17.661,15.471 17.837,15.751 17.918 C 16.365 18.097,16.980 17.613,16.982 16.950 C 16.983 16.733,16.972 16.696,16.820 16.417 C 16.731 16.252,16.500 15.862,16.307 15.550 C 16.114 15.238,15.868 14.837,15.759 14.658 L 15.562 14.333 15.796 13.952 C 16.703 12.479,17.078 11.068,16.974 9.521 C 16.925 8.807,16.823 8.302,16.581 7.573 C 16.481 7.274,16.401 7.012,16.402 6.990 C 16.403 6.968,16.494 6.877,16.604 6.787 C 16.996 6.469,17.338 5.957,17.517 5.419 C 17.601 5.168,17.605 5.128,17.593 4.603 C 17.582 4.071,17.577 4.040,17.473 3.779 C 17.158 2.990,16.528 2.398,15.717 2.128 C 15.510 2.059,15.421 2.050,14.933 2.050 C 14.340 2.051,14.201 2.077,13.779 2.267 C 13.381 2.446,13.063 2.702,12.664 3.165 L 12.479 3.380 12.225 3.307 C 11.538 3.107,10.383 3.004,9.510 3.064 C 8.796 3.113,8.350 3.194,7.853 3.366 C 7.551 3.469,7.529 3.463,7.330 3.208 C 6.852 2.600,6.274 2.219,5.626 2.086 C 5.277 2.014,4.647 2.019,4.383 2.096 M11.147 5.115 C 12.056 5.324,12.874 5.776,13.537 6.433 C 14.090 6.981,14.471 7.550,14.734 8.221 C 14.916 8.687,14.993 9.035,15.037 9.583 C 15.100 10.365,15.021 11.051,14.796 11.690 C 14.359 12.927,13.314 14.072,12.131 14.611 C 11.804 14.760,11.203 14.954,10.931 14.998 C 10.598 15.052,9.362 15.042,9.084 14.983 C 8.250 14.806,7.363 14.365,6.721 13.807 C 5.938 13.127,5.336 12.069,5.094 10.950 C 5.036 10.678,5.037 9.433,5.097 9.100 C 5.238 8.310,5.726 7.324,6.283 6.706 C 6.915 6.004,7.593 5.556,8.467 5.264 C 9.130 5.042,9.189 5.035,10.100 5.049 C 10.689 5.058,10.981 5.076,11.147 5.115 M9.000 8.000 L 9.000 9.000 8.000 9.000 L 7.000 9.000 7.000 10.000 L 7.000 11.000 8.000 11.000 L 9.000 11.000 9.000 12.000 L 9.000 13.000 10.000 13.000 L 11.000 13.000 11.000 12.000 L 11.000 11.000 12.000 11.000 L 13.000 11.000 13.000 10.000 L 13.000 9.000 12.000 9.000 L 11.000 9.000 11.000 8.000 L 11.000 7.000 10.000 7.000 L 9.000 7.000 9.000 8.000 " fill="#1A1C1F" stroke="none" fill-rule="evenodd"></path></svg>