<svg width="32" height="32" viewBox="0 0 32 32" fill="none" xmlns="http://www.w3.org/2000/svg"><path d="M7.920 4.108 C 7.465 4.161,7.042 4.305,6.520 4.587 C 5.601 5.083,4.942 5.753,4.502 6.640 C 4.131 7.386,4.055 7.748,4.055 8.773 C 4.054 9.547,4.060 9.590,4.237 10.096 C 4.517 10.897,4.801 11.357,5.398 11.977 L 5.658 12.248 5.470 12.964 C 4.987 14.804,4.906 16.114,5.176 17.699 C 5.492 19.552,6.152 21.097,7.323 22.730 L 7.609 23.128 6.709 24.351 C 5.712 25.705,5.235 26.388,5.095 26.662 C 4.902 27.039,5.118 27.593,5.552 27.837 C 5.788 27.970,6.198 28.002,6.384 27.902 C 6.581 27.797,7.060 27.231,7.930 26.078 C 8.406 25.448,8.864 24.851,8.949 24.750 L 9.103 24.567 9.658 24.943 C 11.894 26.456,14.195 27.101,16.765 26.934 C 17.725 26.872,18.435 26.729,19.440 26.395 C 20.450 26.059,21.207 25.688,22.184 25.047 L 22.955 24.542 23.195 24.871 C 24.239 26.297,25.140 27.476,25.328 27.664 C 25.718 28.051,26.054 28.085,26.527 27.785 C 26.955 27.514,27.100 27.013,26.874 26.586 C 26.747 26.344,25.773 24.974,24.944 23.871 L 24.386 23.128 24.682 22.728 C 25.674 21.387,26.471 19.642,26.768 18.160 C 27.100 16.504,27.024 14.579,26.563 13.004 L 26.357 12.298 26.635 11.976 C 27.262 11.248,27.499 10.857,27.737 10.158 C 28.327 8.422,27.852 6.570,26.491 5.302 C 25.571 4.444,24.333 3.999,23.067 4.071 C 21.890 4.139,20.905 4.572,19.997 5.421 L 19.748 5.654 19.081 5.472 C 17.930 5.156,17.413 5.093,15.973 5.094 C 14.547 5.094,14.098 5.150,12.913 5.474 L 12.253 5.654 12.025 5.444 C 11.416 4.883,10.470 4.340,9.840 4.191 C 9.437 4.096,8.410 4.051,7.920 4.108 M24.065 6.133 C 25.313 6.518,26.108 7.755,25.927 9.030 C 25.868 9.449,25.550 10.240,25.441 10.240 C 25.414 10.240,25.169 9.946,24.897 9.587 C 24.267 8.757,23.193 7.681,22.387 7.071 C 22.042 6.811,21.760 6.583,21.760 6.564 C 21.760 6.508,22.082 6.335,22.480 6.178 C 22.955 5.990,23.549 5.973,24.065 6.133 M9.889 6.335 L 10.358 6.561 9.778 6.981 C 8.669 7.784,7.778 8.662,6.986 9.735 C 6.780 10.013,6.587 10.240,6.556 10.240 C 6.472 10.240,6.154 9.512,6.079 9.147 C 5.856 8.057,6.435 6.902,7.486 6.341 C 7.945 6.096,8.017 6.082,8.749 6.097 C 9.415 6.110,9.422 6.111,9.889 6.335 M17.253 7.151 C 18.154 7.242,19.046 7.521,20.067 8.033 C 22.374 9.190,24.025 11.255,24.729 13.867 C 24.878 14.419,24.880 14.448,24.880 15.920 C 24.880 17.570,24.853 17.798,24.548 18.720 C 24.079 20.139,23.384 21.263,22.323 22.322 C 21.298 23.346,20.207 24.029,18.848 24.498 C 17.713 24.890,16.510 25.023,15.093 24.914 C 13.632 24.801,11.858 24.107,10.631 23.168 C 10.089 22.753,8.969 21.579,8.644 21.085 C 8.011 20.121,7.509 18.972,7.287 17.973 C 6.905 16.265,7.014 14.514,7.599 12.933 C 8.780 9.744,11.671 7.468,15.013 7.096 C 15.479 7.044,16.416 7.067,17.253 7.151 M15.715 11.077 C 15.506 11.111,15.115 11.513,15.044 11.768 C 15.010 11.892,14.987 12.583,14.987 13.507 L 14.987 15.040 13.341 15.040 L 11.695 15.040 11.498 15.196 C 11.219 15.418,11.106 15.577,11.032 15.854 C 10.972 16.080,10.978 16.115,11.124 16.405 C 11.210 16.576,11.342 16.760,11.418 16.815 C 11.624 16.964,12.142 17.010,13.634 17.012 L 14.975 17.013 14.994 18.653 C 15.016 20.511,15.016 20.514,15.458 20.824 C 15.756 21.034,16.131 21.044,16.475 20.851 C 16.975 20.572,17.002 20.446,17.009 18.413 L 17.013 17.013 18.645 17.013 L 20.276 17.013 20.511 16.845 C 20.750 16.673,21.014 16.245,21.013 16.030 C 21.012 15.863,20.778 15.403,20.620 15.257 C 20.499 15.145,20.406 15.122,19.933 15.087 C 19.633 15.064,18.855 15.045,18.206 15.043 L 17.025 15.040 17.005 13.427 C 16.986 11.949,16.976 11.796,16.879 11.601 C 16.688 11.217,16.201 10.998,15.715 11.077 " fill="#1A1C1F" stroke="none" fill-rule="evenodd"></path></svg>