<svg width="14" height="14" viewBox="0 0 14 14" fill="none" xmlns="http://www.w3.org/2000/svg"><path d="M3.097 1.460 C 2.658 1.566,2.201 1.902,1.957 2.298 C 1.780 2.586,1.700 2.815,1.681 3.091 C 1.634 3.742,1.807 4.194,2.278 4.661 C 2.454 4.835,2.520 4.916,2.520 4.957 C 2.520 4.989,2.485 5.112,2.442 5.231 C 2.346 5.495,2.232 5.931,2.179 6.230 C 2.125 6.540,2.125 7.412,2.180 7.723 C 2.315 8.487,2.544 9.086,2.967 9.779 C 3.042 9.902,3.103 10.024,3.103 10.049 C 3.103 10.075,3.053 10.179,2.991 10.280 C 2.929 10.382,2.747 10.680,2.586 10.944 C 2.104 11.731,2.076 11.807,2.167 12.106 C 2.247 12.369,2.428 12.525,2.715 12.578 C 2.862 12.605,3.024 12.577,3.143 12.504 C 3.247 12.439,3.314 12.351,3.781 11.652 L 4.191 11.039 4.423 11.169 C 4.937 11.456,5.542 11.686,6.069 11.795 C 6.429 11.869,7.195 11.900,7.576 11.856 C 8.186 11.784,8.984 11.511,9.553 11.178 L 9.831 11.015 10.267 11.674 C 10.506 12.036,10.738 12.363,10.782 12.400 C 10.917 12.514,11.053 12.564,11.235 12.564 C 11.373 12.565,11.418 12.554,11.523 12.496 C 11.746 12.372,11.886 12.135,11.887 11.876 C 11.889 11.676,11.835 11.569,11.318 10.728 C 11.099 10.372,10.920 10.061,10.920 10.037 C 10.920 10.014,10.989 9.880,11.074 9.740 C 11.556 8.946,11.807 8.212,11.880 7.385 C 11.916 6.980,11.879 6.377,11.794 5.975 C 11.735 5.691,11.587 5.199,11.502 5.001 L 11.455 4.893 11.543 4.822 C 11.825 4.597,12.078 4.262,12.208 3.944 L 12.308 3.698 12.308 3.267 L 12.308 2.835 12.231 2.643 C 12.008 2.090,11.572 1.681,11.000 1.489 C 10.857 1.441,10.794 1.435,10.453 1.435 C 10.038 1.436,9.941 1.454,9.645 1.587 C 9.367 1.712,9.144 1.892,8.865 2.216 L 8.735 2.366 8.558 2.315 C 7.680 2.060,6.324 2.075,5.521 2.348 C 5.282 2.429,5.274 2.427,5.120 2.234 C 4.780 1.808,4.389 1.553,3.938 1.460 C 3.718 1.415,3.283 1.415,3.097 1.460 M7.563 3.548 C 7.926 3.588,8.357 3.733,8.738 3.944 C 9.636 4.442,10.293 5.348,10.491 6.361 C 10.554 6.682,10.549 7.352,10.481 7.693 C 10.355 8.327,10.085 8.871,9.662 9.343 C 9.121 9.945,8.467 10.327,7.697 10.491 C 7.456 10.543,6.614 10.543,6.373 10.491 C 5.662 10.340,5.068 10.018,4.560 9.510 C 4.159 9.109,3.892 8.690,3.711 8.178 C 3.561 7.754,3.547 7.654,3.547 7.008 C 3.547 6.460,3.550 6.407,3.604 6.200 C 3.868 5.184,4.545 4.334,5.452 3.877 C 5.656 3.775,6.009 3.646,6.265 3.582 C 6.563 3.506,7.061 3.493,7.563 3.548 M6.300 5.600 L 6.300 6.300 5.600 6.300 L 4.900 6.300 4.900 7.000 L 4.900 7.700 5.600 7.700 L 6.300 7.700 6.300 8.400 L 6.300 9.100 7.000 9.100 L 7.700 9.100 7.700 8.400 L 7.700 7.700 8.400 7.700 L 9.100 7.700 9.100 7.000 L 9.100 6.300 8.400 6.300 L 7.700 6.300 7.700 5.600 L 7.700 4.900 7.000 4.900 L 6.300 4.900 6.300 5.600 " fill="#1A1C1F" stroke="none" fill-rule="evenodd"></path></svg>