<svg width="32" height="32" viewBox="0 0 32 32" fill="none" xmlns="http://www.w3.org/2000/svg"><path d="M7.859 4.106 C 6.411 4.311,4.970 5.497,4.328 7.013 C 4.091 7.573,4.041 7.924,4.063 8.883 L 4.083 9.733 4.307 10.293 C 4.562 10.930,4.871 11.417,5.328 11.906 L 5.644 12.244 5.433 12.989 C 4.702 15.563,4.942 18.315,6.106 20.720 C 6.386 21.299,7.017 22.332,7.412 22.857 L 7.615 23.127 6.975 23.977 C 6.037 25.223,5.286 26.285,5.141 26.572 C 4.906 27.034,5.034 27.507,5.468 27.782 C 6.018 28.131,6.380 28.034,6.903 27.398 C 7.169 27.075,8.307 25.562,8.885 24.764 L 9.046 24.541 9.714 24.981 C 11.131 25.916,12.535 26.500,14.158 26.832 C 14.641 26.931,14.838 26.939,16.187 26.920 C 17.650 26.898,17.693 26.895,18.320 26.732 C 19.767 26.358,21.068 25.786,22.264 24.998 L 22.955 24.542 23.276 24.978 C 24.516 26.660,25.133 27.470,25.319 27.661 C 25.564 27.911,25.846 28.026,26.101 27.978 C 26.352 27.931,26.754 27.659,26.851 27.471 C 26.980 27.221,27.010 26.878,26.920 26.665 C 26.839 26.472,25.851 25.075,24.924 23.844 L 24.386 23.129 24.682 22.729 C 25.673 21.388,26.469 19.646,26.769 18.160 C 27.111 16.462,27.012 14.406,26.510 12.808 L 26.354 12.308 26.714 11.885 C 27.160 11.361,27.444 10.893,27.712 10.238 L 27.919 9.733 27.937 8.815 C 27.952 8.091,27.937 7.832,27.869 7.589 C 27.399 5.900,26.207 4.711,24.453 4.180 C 23.973 4.034,22.691 4.049,22.107 4.207 C 21.340 4.415,20.720 4.764,20.071 5.355 L 19.741 5.655 19.276 5.520 C 18.166 5.199,17.217 5.068,16.000 5.068 C 14.782 5.068,13.834 5.199,12.722 5.521 L 12.254 5.657 11.980 5.399 C 11.323 4.781,10.568 4.357,9.828 4.192 C 9.362 4.088,8.310 4.042,7.859 4.106 M24.176 6.192 C 24.948 6.452,25.504 7.002,25.813 7.813 C 25.974 8.235,25.989 9.006,25.844 9.440 C 25.731 9.782,25.495 10.240,25.433 10.240 C 25.410 10.240,25.181 9.958,24.925 9.613 C 24.340 8.827,23.314 7.801,22.478 7.166 C 22.125 6.898,21.807 6.644,21.772 6.601 C 21.718 6.536,21.774 6.492,22.120 6.331 C 22.347 6.225,22.653 6.114,22.800 6.085 C 23.159 6.014,23.794 6.063,24.176 6.192 M9.680 6.226 C 9.827 6.286,10.036 6.388,10.146 6.452 L 10.345 6.569 9.692 7.030 C 8.863 7.616,7.555 8.907,7.012 9.676 C 6.806 9.967,6.610 10.215,6.576 10.226 C 6.476 10.259,6.145 9.503,6.080 9.093 C 5.898 7.958,6.455 6.858,7.473 6.343 C 7.973 6.090,8.019 6.082,8.747 6.100 C 9.268 6.113,9.472 6.140,9.680 6.226 M16.587 7.094 C 17.642 7.172,18.035 7.240,18.735 7.470 C 20.167 7.939,21.257 8.610,22.324 9.676 C 23.530 10.883,24.272 12.173,24.701 13.813 C 24.991 14.919,25.004 16.999,24.728 18.080 C 23.937 21.183,21.757 23.533,18.747 24.528 C 17.674 24.883,17.408 24.921,16.027 24.924 C 14.660 24.926,14.356 24.884,13.307 24.549 C 11.841 24.080,10.636 23.333,9.570 22.232 C 8.792 21.429,8.516 21.034,7.971 19.945 C 7.257 18.519,7.093 17.770,7.094 15.920 C 7.095 14.560,7.148 14.179,7.475 13.190 C 7.697 12.516,8.267 11.387,8.671 10.822 C 10.054 8.885,12.394 7.445,14.640 7.150 C 15.540 7.031,15.689 7.027,16.587 7.094 M15.600 9.099 C 15.377 9.221,15.205 9.386,15.104 9.573 C 15.029 9.714,15.016 10.129,14.997 12.975 L 14.974 16.216 15.121 16.441 C 15.277 16.681,17.734 19.151,18.262 19.600 C 18.575 19.865,18.578 19.867,18.955 19.867 C 19.262 19.867,19.365 19.844,19.502 19.746 C 19.702 19.604,19.947 19.141,19.947 18.905 C 19.947 18.627,19.666 18.284,18.314 16.909 L 17.024 15.598 17.005 12.665 C 16.987 9.821,16.983 9.728,16.877 9.547 C 16.631 9.127,15.970 8.895,15.600 9.099 " fill="#1A1C1F" stroke="none" fill-rule="evenodd"></path></svg>