<svg width="12" height="12" viewBox="0 0 12 12" fill="none" xmlns="http://www.w3.org/2000/svg"><path d="M2.790 1.222 C 2.061 1.327,1.486 1.963,1.427 2.730 C 1.390 3.216,1.647 3.775,2.057 4.102 C 2.130 4.160,2.192 4.209,2.195 4.211 C 2.198 4.212,2.169 4.289,2.132 4.382 C 2.053 4.576,1.960 4.889,1.901 5.155 C 1.850 5.384,1.815 5.933,1.831 6.240 C 1.868 6.940,2.107 7.661,2.547 8.399 C 2.609 8.503,2.660 8.602,2.660 8.620 C 2.660 8.638,2.503 8.910,2.311 9.224 C 1.830 10.013,1.830 10.013,1.832 10.210 C 1.833 10.398,1.863 10.481,1.977 10.605 C 2.095 10.733,2.216 10.786,2.389 10.787 C 2.466 10.787,2.563 10.777,2.604 10.763 C 2.725 10.722,2.896 10.514,3.250 9.980 C 3.432 9.705,3.585 9.480,3.590 9.480 C 3.596 9.480,3.751 9.556,3.935 9.649 C 4.411 9.889,4.765 10.017,5.256 10.124 C 5.429 10.162,5.512 10.167,6.010 10.167 C 6.623 10.166,6.665 10.161,7.126 10.028 C 7.553 9.905,7.875 9.768,8.239 9.552 L 8.428 9.440 8.548 9.625 C 9.253 10.716,9.299 10.765,9.620 10.767 C 9.960 10.769,10.185 10.537,10.189 10.180 C 10.190 10.063,10.181 10.031,10.098 9.870 C 10.048 9.771,9.861 9.454,9.683 9.166 C 9.505 8.877,9.360 8.624,9.360 8.604 C 9.360 8.583,9.419 8.469,9.492 8.349 C 10.028 7.465,10.245 6.637,10.183 5.711 C 10.155 5.284,10.095 4.987,9.946 4.534 L 9.836 4.198 9.996 4.049 C 10.352 3.718,10.533 3.367,10.568 2.940 C 10.603 2.519,10.445 2.100,10.122 1.755 C 9.885 1.503,9.581 1.313,9.315 1.250 C 9.152 1.212,8.799 1.212,8.604 1.251 C 8.410 1.289,8.090 1.441,7.930 1.571 C 7.864 1.624,7.739 1.748,7.652 1.846 C 7.475 2.044,7.512 2.034,7.244 1.961 C 6.907 1.870,6.239 1.809,5.810 1.830 C 5.355 1.853,5.033 1.909,4.681 2.029 C 4.600 2.057,4.527 2.080,4.520 2.080 C 4.513 2.080,4.465 2.022,4.414 1.952 C 4.110 1.539,3.679 1.284,3.177 1.221 C 2.991 1.198,2.960 1.198,2.790 1.222 M6.345 3.030 C 7.290 3.079,8.264 3.753,8.730 4.679 C 9.143 5.502,9.139 6.549,8.721 7.377 C 8.689 7.441,8.609 7.573,8.543 7.671 C 8.088 8.351,7.392 8.823,6.598 8.992 C 6.391 9.036,5.670 9.036,5.462 8.992 C 4.856 8.864,4.344 8.587,3.909 8.151 C 3.554 7.797,3.304 7.393,3.153 6.930 C 3.049 6.610,3.041 6.543,3.040 6.007 C 3.040 5.537,3.043 5.492,3.089 5.314 C 3.317 4.438,3.904 3.706,4.690 3.320 C 5.153 3.093,5.576 2.992,5.990 3.012 C 6.067 3.016,6.227 3.024,6.345 3.030 M5.420 5.107 L 5.420 6.294 6.127 6.986 L 6.835 7.679 7.196 7.294 C 7.395 7.082,7.577 6.883,7.602 6.852 L 7.646 6.796 7.123 6.282 L 6.600 5.769 6.600 4.844 L 6.600 3.920 6.010 3.920 L 5.420 3.920 5.420 5.107 " fill="#1A1C1F" stroke="none" fill-rule="evenodd"></path></svg>