<svg width="24" height="24" viewBox="0 0 24 24" fill="none" xmlns="http://www.w3.org/2000/svg"><path d="M6.280 3.043 C 4.999 3.206,3.735 4.179,3.290 5.346 C 2.735 6.802,3.028 8.245,4.114 9.410 L 4.291 9.600 4.168 10.170 C 4.069 10.623,4.038 10.880,4.018 11.420 C 3.982 12.335,4.048 13.301,4.182 13.819 C 4.454 14.878,4.951 15.948,5.520 16.701 C 5.696 16.932,5.715 16.975,5.674 17.052 C 5.649 17.101,5.313 17.626,4.926 18.220 C 4.057 19.557,3.960 19.737,3.960 20.015 C 3.960 20.727,4.762 21.203,5.410 20.874 C 5.599 20.779,5.772 20.558,6.521 19.460 C 6.851 18.976,7.146 18.548,7.177 18.508 C 7.228 18.440,7.261 18.454,7.686 18.721 C 8.675 19.342,9.615 19.698,10.822 19.906 C 11.376 20.002,12.673 20.002,13.200 19.907 C 14.270 19.714,15.426 19.263,16.376 18.666 C 16.572 18.543,16.746 18.451,16.763 18.462 C 16.781 18.473,17.088 18.916,17.446 19.448 C 18.196 20.560,18.436 20.844,18.708 20.937 C 18.811 20.971,18.950 21.000,19.017 21.000 C 19.354 20.999,19.859 20.582,19.959 20.222 C 20.066 19.840,19.993 19.686,18.979 18.154 L 18.247 17.047 18.567 16.554 C 19.082 15.759,19.437 14.994,19.705 14.103 C 20.030 13.019,20.069 11.394,19.797 10.187 L 19.672 9.631 19.831 9.466 C 20.288 8.988,20.563 8.548,20.791 7.929 C 20.931 7.550,20.935 7.523,20.951 6.856 C 20.970 6.092,20.941 5.918,20.702 5.331 C 20.281 4.297,19.371 3.492,18.220 3.135 C 17.881 3.029,16.702 3.029,16.320 3.134 C 15.758 3.289,15.093 3.664,14.609 4.099 L 14.398 4.289 13.749 4.155 C 13.102 4.020,13.096 4.020,12.000 4.022 C 10.857 4.023,10.613 4.048,9.893 4.236 L 9.606 4.311 9.493 4.192 C 9.263 3.949,8.728 3.581,8.340 3.399 C 7.871 3.177,7.592 3.097,7.100 3.041 C 6.699 2.996,6.650 2.996,6.280 3.043 M7.410 5.139 C 7.515 5.177,7.600 5.223,7.600 5.242 C 7.600 5.261,7.468 5.375,7.306 5.494 C 6.631 5.994,6.011 6.617,5.480 7.330 L 5.241 7.651 5.183 7.512 C 5.069 7.240,5.030 6.996,5.047 6.649 C 5.061 6.362,5.086 6.250,5.190 6.030 C 5.381 5.620,5.779 5.263,6.234 5.093 C 6.432 5.019,7.153 5.047,7.410 5.139 M17.763 5.104 C 18.378 5.283,18.893 5.895,18.949 6.513 C 18.983 6.891,18.861 7.600,18.762 7.600 C 18.748 7.600,18.589 7.413,18.408 7.185 C 18.004 6.675,17.179 5.868,16.710 5.522 C 16.518 5.380,16.375 5.249,16.392 5.232 C 16.410 5.214,16.522 5.164,16.642 5.121 C 16.918 5.022,17.455 5.014,17.763 5.104 M13.460 6.137 C 15.817 6.844,17.360 8.478,17.866 10.800 C 17.972 11.289,17.972 12.672,17.865 13.160 C 17.604 14.360,17.061 15.341,16.162 16.243 C 15.261 17.146,14.366 17.628,13.125 17.879 C 11.407 18.228,9.440 17.714,8.148 16.580 C 7.228 15.771,6.635 14.891,6.280 13.801 C 6.061 13.132,6.022 12.853,6.025 11.960 C 6.027 11.134,6.088 10.704,6.289 10.090 C 6.434 9.650,6.893 8.759,7.153 8.415 C 8.085 7.182,9.424 6.332,10.860 6.063 C 11.103 6.017,11.411 6.006,12.140 6.016 C 13.048 6.028,13.120 6.034,13.460 6.137 M11.614 7.535 C 11.429 7.620,11.166 7.872,11.073 8.054 C 10.994 8.209,10.992 8.266,11.007 10.256 C 11.019 11.900,11.033 12.320,11.077 12.400 C 11.254 12.719,12.838 14.249,13.209 14.459 C 13.749 14.766,14.390 14.466,14.578 13.820 C 14.706 13.380,14.620 13.231,13.691 12.278 L 13.010 11.580 12.989 9.900 C 12.976 8.826,12.953 8.168,12.924 8.075 C 12.814 7.720,12.502 7.513,12.045 7.492 C 11.839 7.483,11.699 7.497,11.614 7.535 " fill="#1A1C1F" stroke="none" fill-rule="evenodd"></path></svg>