<svg width="12" height="12" viewBox="0 0 12 12" fill="none" xmlns="http://www.w3.org/2000/svg"><path d="M2.660 1.248 C 2.308 1.353,1.975 1.568,1.779 1.818 C 1.676 1.948,1.568 2.149,1.498 2.343 C 1.440 2.500,1.437 2.528,1.436 2.800 C 1.435 3.075,1.438 3.100,1.500 3.284 C 1.606 3.603,1.795 3.883,2.042 4.088 C 2.096 4.133,2.146 4.192,2.153 4.219 C 2.162 4.252,2.136 4.357,2.074 4.539 C 1.911 5.021,1.870 5.226,1.840 5.704 C 1.781 6.653,1.992 7.465,2.532 8.363 C 2.602 8.480,2.660 8.593,2.660 8.614 C 2.660 8.651,2.596 8.760,2.154 9.483 C 1.851 9.978,1.831 10.023,1.831 10.201 C 1.831 10.548,2.071 10.784,2.423 10.783 C 2.582 10.782,2.732 10.711,2.832 10.589 C 2.871 10.541,3.059 10.267,3.248 9.982 L 3.592 9.462 3.811 9.584 C 4.387 9.905,5.043 10.119,5.580 10.163 C 5.910 10.189,6.533 10.170,6.739 10.127 C 7.101 10.053,7.649 9.867,7.932 9.724 C 7.997 9.691,8.135 9.614,8.239 9.552 L 8.427 9.441 8.762 9.947 C 9.245 10.678,9.338 10.768,9.610 10.767 C 9.777 10.767,9.899 10.716,10.018 10.597 C 10.141 10.475,10.190 10.357,10.190 10.187 C 10.190 10.056,10.182 10.028,10.099 9.867 C 10.049 9.770,9.857 9.445,9.672 9.145 L 9.336 8.600 9.477 8.372 C 9.899 7.687,10.119 7.050,10.183 6.331 C 10.214 5.983,10.182 5.467,10.109 5.121 C 10.058 4.878,9.931 4.456,9.858 4.285 L 9.818 4.191 9.874 4.151 C 10.148 3.955,10.413 3.575,10.520 3.225 C 10.559 3.097,10.563 3.046,10.556 2.756 C 10.549 2.442,10.546 2.424,10.482 2.264 C 10.280 1.757,9.817 1.355,9.316 1.252 C 9.119 1.211,8.801 1.211,8.605 1.252 C 8.214 1.333,7.929 1.516,7.599 1.899 L 7.487 2.028 7.335 1.984 C 6.582 1.765,5.422 1.778,4.732 2.013 C 4.528 2.082,4.519 2.080,4.398 1.925 C 4.139 1.596,3.814 1.366,3.470 1.270 C 3.308 1.224,2.786 1.210,2.660 1.248 M6.345 3.030 C 7.290 3.079,8.264 3.753,8.730 4.679 C 9.143 5.502,9.139 6.549,8.721 7.377 C 8.689 7.441,8.609 7.573,8.543 7.671 C 8.088 8.351,7.392 8.823,6.598 8.992 C 6.391 9.036,5.670 9.036,5.462 8.992 C 4.856 8.864,4.344 8.587,3.909 8.151 C 3.554 7.797,3.304 7.393,3.153 6.930 C 3.049 6.610,3.041 6.543,3.040 6.007 C 3.040 5.537,3.043 5.492,3.089 5.314 C 3.317 4.438,3.904 3.706,4.690 3.320 C 5.153 3.093,5.576 2.992,5.990 3.012 C 6.067 3.016,6.227 3.024,6.345 3.030 M5.400 4.800 L 5.400 5.400 4.800 5.400 L 4.200 5.400 4.200 6.000 L 4.200 6.600 4.800 6.600 L 5.400 6.600 5.400 7.200 L 5.400 7.800 6.000 7.800 L 6.600 7.800 6.600 7.200 L 6.600 6.600 7.200 6.600 L 7.800 6.600 7.800 6.000 L 7.800 5.400 7.200 5.400 L 6.600 5.400 6.600 4.800 L 6.600 4.200 6.000 4.200 L 5.400 4.200 5.400 4.800 " fill="#1A1C1F" stroke="none" fill-rule="evenodd"></path></svg>