<svg width="28" height="28" viewBox="0 0 28 28" fill="none" xmlns="http://www.w3.org/2000/svg"><path d="M6.877 3.593 C 6.156 3.695,5.388 4.097,4.782 4.690 C 4.349 5.114,4.076 5.497,3.843 6.009 C 3.585 6.576,3.537 6.865,3.556 7.747 L 3.572 8.517 3.769 9.007 C 3.991 9.560,4.246 9.963,4.657 10.409 L 4.938 10.715 4.754 11.366 C 4.527 12.163,4.451 12.650,4.409 13.557 C 4.334 15.194,4.635 16.668,5.342 18.130 C 5.588 18.637,6.140 19.540,6.485 20.000 L 6.663 20.236 6.104 20.980 C 5.797 21.389,5.282 22.091,4.960 22.540 L 4.375 23.357 4.402 23.647 C 4.417 23.807,4.464 23.990,4.506 24.054 C 4.607 24.209,4.969 24.445,5.160 24.480 C 5.570 24.557,5.815 24.321,7.021 22.686 C 7.482 22.061,7.884 21.540,7.916 21.528 C 7.947 21.516,8.137 21.621,8.338 21.761 C 9.442 22.530,10.844 23.142,12.144 23.422 C 12.728 23.548,13.795 23.626,14.420 23.589 C 16.307 23.476,17.791 22.977,19.429 21.904 L 20.079 21.478 21.045 22.768 C 22.179 24.281,22.266 24.379,22.529 24.450 C 23.069 24.596,23.663 24.090,23.601 23.538 C 23.573 23.290,23.438 23.079,22.394 21.646 C 21.988 21.090,21.594 20.536,21.516 20.414 L 21.375 20.192 21.584 19.908 C 22.415 18.776,23.001 17.570,23.310 16.357 C 23.531 15.486,23.588 14.991,23.585 13.953 C 23.582 12.869,23.502 12.265,23.244 11.382 L 23.063 10.765 23.366 10.411 C 24.005 9.664,24.352 8.901,24.456 8.018 C 24.627 6.574,23.938 5.088,22.711 4.251 C 22.405 4.042,21.789 3.759,21.420 3.658 C 20.962 3.532,19.847 3.545,19.343 3.681 C 18.672 3.863,18.130 4.169,17.562 4.686 L 17.274 4.948 16.866 4.830 C 15.895 4.549,15.065 4.434,14.000 4.434 C 12.934 4.434,12.105 4.549,11.132 4.831 L 10.722 4.950 10.483 4.724 C 9.908 4.183,9.247 3.812,8.599 3.668 C 8.192 3.577,7.271 3.537,6.877 3.593 M20.767 5.322 C 22.162 5.543,23.027 6.939,22.601 8.283 C 22.505 8.586,22.317 8.960,22.261 8.960 C 22.237 8.960,22.033 8.713,21.809 8.412 C 21.287 7.709,20.346 6.776,19.587 6.207 C 19.262 5.963,18.995 5.751,18.994 5.736 C 18.992 5.681,19.721 5.370,19.950 5.327 C 20.271 5.267,20.415 5.266,20.767 5.322 M8.652 5.543 L 9.062 5.740 8.514 6.132 C 7.582 6.798,6.746 7.623,6.123 8.490 C 5.949 8.732,5.783 8.938,5.753 8.948 C 5.667 8.977,5.377 8.314,5.320 7.957 C 5.161 6.963,5.648 6.001,6.539 5.550 C 6.975 5.329,7.016 5.322,7.656 5.334 C 8.238 5.346,8.244 5.347,8.652 5.543 M14.460 6.207 C 15.677 6.281,16.469 6.485,17.496 6.987 C 18.265 7.363,18.861 7.796,19.534 8.468 C 20.470 9.402,21.077 10.391,21.480 11.643 C 21.749 12.476,21.797 12.824,21.797 13.930 C 21.796 15.010,21.751 15.446,21.577 16.048 C 21.173 17.450,20.532 18.537,19.510 19.555 C 18.419 20.644,17.117 21.352,15.559 21.703 C 15.152 21.794,14.965 21.807,14.000 21.807 C 12.764 21.807,12.541 21.775,11.599 21.462 C 9.369 20.722,7.775 19.272,6.798 17.098 C 6.294 15.975,6.192 15.383,6.220 13.743 C 6.239 12.616,6.244 12.560,6.382 12.063 C 6.771 10.662,7.378 9.585,8.352 8.568 C 9.620 7.246,11.470 6.341,13.177 6.210 C 13.437 6.190,13.661 6.170,13.673 6.167 C 13.686 6.164,14.040 6.182,14.460 6.207 M13.650 7.961 C 13.454 8.069,13.304 8.213,13.217 8.377 C 13.151 8.499,13.140 8.869,13.122 11.353 L 13.102 14.189 13.231 14.386 C 13.368 14.596,15.517 16.757,15.979 17.150 C 16.253 17.382,16.256 17.383,16.585 17.383 C 16.994 17.383,17.156 17.285,17.333 16.931 C 17.585 16.423,17.515 16.308,16.008 14.778 L 14.896 13.649 14.880 11.083 C 14.864 8.593,14.860 8.512,14.767 8.353 C 14.552 7.986,13.974 7.784,13.650 7.961 " fill="#1A1C1F" stroke="none" fill-rule="evenodd"></path></svg>