<svg width="14" height="14" viewBox="0 0 14 14" fill="none" xmlns="http://www.w3.org/2000/svg"><path d="M3.298 1.427 C 3.087 1.445,2.934 1.495,2.682 1.626 C 2.218 1.868,1.895 2.265,1.736 2.788 C 1.681 2.969,1.673 3.040,1.672 3.302 C 1.671 3.584,1.676 3.620,1.747 3.827 C 1.837 4.090,1.943 4.286,2.102 4.485 C 2.206 4.616,2.397 4.797,2.522 4.885 C 2.565 4.915,2.564 4.922,2.487 5.112 C 2.393 5.346,2.279 5.730,2.216 6.027 C 2.150 6.336,2.116 6.992,2.146 7.390 C 2.203 8.161,2.478 8.975,2.938 9.734 C 3.029 9.884,3.103 10.026,3.103 10.051 C 3.103 10.076,3.053 10.179,2.991 10.280 C 2.929 10.382,2.747 10.680,2.586 10.944 C 2.425 11.207,2.259 11.490,2.217 11.572 C 2.071 11.861,2.101 12.143,2.301 12.365 C 2.361 12.431,2.439 12.501,2.476 12.520 C 2.571 12.569,2.806 12.596,2.945 12.574 C 3.173 12.538,3.262 12.439,3.812 11.612 C 4.014 11.309,4.185 11.060,4.193 11.060 C 4.201 11.060,4.338 11.128,4.497 11.212 C 5.050 11.503,5.544 11.685,6.078 11.796 C 6.429 11.869,7.200 11.900,7.576 11.856 C 8.186 11.784,8.984 11.511,9.554 11.177 L 9.833 11.014 9.958 11.206 C 10.341 11.799,10.652 12.257,10.734 12.350 C 10.869 12.503,11.007 12.564,11.223 12.564 C 11.556 12.565,11.756 12.411,11.857 12.080 C 11.947 11.783,11.907 11.683,11.297 10.693 C 11.090 10.357,10.920 10.062,10.920 10.038 C 10.920 10.014,10.989 9.880,11.074 9.740 C 11.699 8.709,11.953 7.743,11.881 6.663 C 11.847 6.162,11.777 5.814,11.603 5.290 L 11.473 4.899 11.661 4.725 C 11.983 4.426,12.191 4.095,12.285 3.733 C 12.346 3.501,12.340 3.047,12.273 2.835 C 12.058 2.156,11.439 1.570,10.808 1.446 C 10.613 1.407,10.090 1.429,9.917 1.482 C 9.597 1.581,9.252 1.799,9.025 2.045 C 8.969 2.108,8.879 2.205,8.827 2.262 L 8.733 2.366 8.556 2.314 C 8.130 2.191,7.300 2.106,6.790 2.134 C 6.245 2.165,5.926 2.218,5.533 2.345 C 5.401 2.388,5.278 2.418,5.262 2.412 C 5.246 2.406,5.193 2.343,5.145 2.273 C 5.009 2.076,4.676 1.773,4.484 1.672 C 4.105 1.473,3.706 1.390,3.298 1.427 M7.563 3.548 C 7.926 3.588,8.357 3.733,8.738 3.944 C 9.636 4.442,10.293 5.348,10.491 6.361 C 10.554 6.682,10.549 7.352,10.481 7.693 C 10.355 8.327,10.085 8.871,9.662 9.343 C 9.121 9.945,8.467 10.327,7.697 10.491 C 7.456 10.543,6.614 10.543,6.373 10.491 C 5.662 10.340,5.068 10.018,4.560 9.510 C 4.159 9.109,3.892 8.690,3.711 8.178 C 3.561 7.754,3.547 7.654,3.547 7.008 C 3.547 6.460,3.550 6.407,3.604 6.200 C 3.868 5.184,4.545 4.334,5.452 3.877 C 5.656 3.775,6.009 3.646,6.265 3.582 C 6.563 3.506,7.061 3.493,7.563 3.548 M6.323 5.958 L 6.323 7.343 7.148 8.150 L 7.972 8.957 8.382 8.521 C 8.607 8.281,8.820 8.050,8.856 8.007 L 8.921 7.929 8.311 7.330 L 7.700 6.730 7.700 5.652 L 7.700 4.573 7.012 4.573 L 6.323 4.573 6.323 5.958 " fill="#1A1C1F" stroke="none" fill-rule="evenodd"></path></svg>