<svg width="28" height="28" viewBox="0 0 28 28" fill="none" xmlns="http://www.w3.org/2000/svg"><path d="M6.907 3.594 C 6.524 3.644,6.146 3.776,5.705 4.013 C 4.901 4.447,4.324 5.034,3.939 5.810 C 3.615 6.463,3.548 6.780,3.548 7.677 C 3.548 8.354,3.553 8.391,3.707 8.834 C 3.952 9.535,4.200 9.937,4.724 10.481 L 4.953 10.719 4.766 11.415 C 4.543 12.239,4.501 12.475,4.430 13.277 C 4.288 14.874,4.654 16.726,5.411 18.247 C 5.664 18.755,6.045 19.383,6.408 19.889 L 6.658 20.238 6.126 20.957 C 5.275 22.108,4.733 22.869,4.550 23.170 C 4.398 23.420,4.382 23.474,4.405 23.679 C 4.455 24.122,4.832 24.464,5.271 24.464 C 5.393 24.464,5.535 24.442,5.586 24.414 C 5.758 24.322,6.178 23.827,6.939 22.818 C 7.355 22.267,7.755 21.745,7.829 21.658 L 7.962 21.499 8.566 21.898 C 9.748 22.680,10.863 23.153,12.176 23.429 C 13.165 23.636,14.841 23.635,15.843 23.425 C 17.045 23.173,18.343 22.620,19.481 21.875 L 20.086 21.478 20.434 21.951 C 21.392 23.252,21.986 24.027,22.149 24.191 C 22.342 24.385,22.564 24.501,22.737 24.499 C 22.906 24.497,23.212 24.338,23.393 24.157 C 23.528 24.022,23.565 23.943,23.591 23.738 C 23.635 23.385,23.563 23.247,22.771 22.167 C 22.404 21.666,21.940 21.017,21.739 20.725 L 21.375 20.193 21.584 19.908 C 22.415 18.776,23.001 17.570,23.310 16.357 C 23.531 15.486,23.588 14.991,23.585 13.953 C 23.582 12.869,23.502 12.265,23.244 11.382 L 23.063 10.765 23.363 10.421 C 24.141 9.528,24.468 8.691,24.468 7.583 C 24.469 6.419,24.125 5.599,23.287 4.760 C 22.428 3.901,21.374 3.494,20.183 3.562 C 19.154 3.621,18.292 4.001,17.496 4.744 L 17.277 4.949 16.770 4.806 C 15.920 4.566,15.280 4.472,14.303 4.446 C 13.081 4.413,12.208 4.519,11.132 4.831 L 10.723 4.949 10.523 4.765 C 9.990 4.273,9.163 3.799,8.610 3.667 C 8.258 3.582,7.307 3.542,6.907 3.594 M21.003 5.347 C 21.143 5.387,21.393 5.501,21.561 5.599 C 22.618 6.220,23.004 7.503,22.469 8.616 C 22.378 8.805,22.284 8.960,22.261 8.960 C 22.237 8.960,22.023 8.703,21.784 8.389 C 21.229 7.658,20.439 6.862,19.670 6.256 C 19.336 5.993,19.058 5.763,19.051 5.746 C 19.033 5.698,19.301 5.551,19.670 5.406 C 20.059 5.252,20.595 5.228,21.003 5.347 M8.652 5.543 L 9.063 5.740 8.676 6.017 C 7.659 6.744,6.874 7.502,6.176 8.432 C 5.958 8.722,5.763 8.960,5.744 8.960 C 5.691 8.960,5.484 8.554,5.386 8.260 C 5.264 7.890,5.275 7.257,5.410 6.863 C 5.609 6.285,5.987 5.849,6.550 5.549 C 6.952 5.334,7.015 5.322,7.656 5.334 C 8.238 5.346,8.244 5.347,8.652 5.543 M15.120 6.258 C 15.891 6.339,16.678 6.587,17.558 7.029 C 19.556 8.030,20.991 9.811,21.618 12.063 C 21.758 12.564,21.762 12.606,21.781 13.813 C 21.798 14.924,21.791 15.097,21.705 15.517 C 21.279 17.595,20.024 19.434,18.233 20.601 C 17.454 21.109,16.327 21.560,15.447 21.717 C 14.879 21.818,13.937 21.852,13.207 21.798 C 11.935 21.704,10.378 21.096,9.302 20.272 C 8.805 19.891,7.857 18.889,7.538 18.408 C 6.423 16.723,5.996 14.881,6.260 12.903 C 6.648 9.996,8.785 7.455,11.619 6.533 C 12.716 6.177,13.641 6.104,15.120 6.258 M13.774 9.693 C 13.568 9.720,13.231 10.053,13.164 10.297 C 13.134 10.405,13.114 11.010,13.114 11.818 L 13.113 13.160 11.673 13.160 L 10.233 13.160 10.061 13.297 C 9.817 13.491,9.718 13.630,9.653 13.872 C 9.600 14.070,9.605 14.100,9.733 14.354 C 9.809 14.504,9.924 14.665,9.991 14.713 C 10.171 14.843,10.624 14.883,11.930 14.885 L 13.103 14.887 13.120 16.322 C 13.139 17.947,13.139 17.950,13.526 18.221 C 13.786 18.404,14.115 18.413,14.416 18.245 C 14.853 18.001,14.877 17.890,14.883 16.116 L 14.887 14.896 16.322 14.880 C 17.731 14.864,17.760 14.861,17.932 14.754 C 18.164 14.610,18.356 14.281,18.356 14.025 C 18.356 13.793,18.190 13.469,17.998 13.328 C 17.830 13.203,17.417 13.169,15.976 13.164 L 14.896 13.160 14.880 11.725 C 14.864 10.310,14.862 10.288,14.753 10.112 C 14.553 9.791,14.196 9.639,13.774 9.693 " fill="#1A1C1F" stroke="none" fill-rule="evenodd"></path></svg>