<svg width="20" height="20" viewBox="0 0 20 20" fill="none" xmlns="http://www.w3.org/2000/svg"><path d="M4.374 2.099 C 3.901 2.226,3.359 2.568,3.044 2.936 C 2.595 3.462,2.337 4.202,2.376 4.852 C 2.418 5.561,2.830 6.350,3.402 6.818 C 3.529 6.922,3.633 7.025,3.633 7.045 C 3.633 7.066,3.560 7.286,3.470 7.533 C 3.294 8.017,3.159 8.568,3.099 9.050 C 3.049 9.447,3.049 10.499,3.099 10.917 C 3.146 11.304,3.315 11.989,3.469 12.413 C 3.603 12.782,4.076 13.738,4.280 14.050 C 4.363 14.178,4.432 14.314,4.433 14.352 C 4.433 14.390,4.172 14.849,3.852 15.373 C 3.533 15.897,3.224 16.420,3.165 16.536 C 2.955 16.952,3.003 17.352,3.300 17.677 C 3.509 17.905,3.661 17.969,3.997 17.970 C 4.504 17.971,4.580 17.899,5.455 16.576 C 5.738 16.149,5.978 15.800,5.990 15.800 C 6.002 15.800,6.197 15.898,6.424 16.017 C 7.198 16.424,7.922 16.690,8.750 16.872 C 9.050 16.938,9.178 16.945,10.017 16.945 C 11.038 16.944,11.105 16.936,11.876 16.714 C 12.588 16.509,13.125 16.279,13.730 15.921 L 14.043 15.736 14.599 16.576 C 15.286 17.614,15.386 17.741,15.609 17.857 C 15.838 17.977,16.202 17.986,16.433 17.879 C 16.774 17.720,16.977 17.376,16.981 16.949 C 16.983 16.722,16.977 16.704,16.769 16.332 C 16.652 16.122,16.388 15.680,16.184 15.350 C 15.980 15.020,15.757 14.656,15.687 14.541 L 15.561 14.333 15.796 13.952 C 16.703 12.479,17.078 11.068,16.974 9.521 C 16.925 8.808,16.825 8.309,16.576 7.555 L 16.392 6.993 16.659 6.747 C 17.864 5.638,17.950 4.078,16.869 2.926 C 16.475 2.506,15.968 2.188,15.525 2.083 C 15.253 2.019,14.665 2.020,14.340 2.085 C 14.016 2.149,13.483 2.403,13.214 2.620 C 13.103 2.710,12.895 2.915,12.752 3.075 C 12.609 3.235,12.477 3.367,12.458 3.367 C 12.439 3.367,12.324 3.337,12.202 3.301 C 11.627 3.129,10.439 3.010,9.700 3.050 C 8.884 3.093,8.284 3.203,7.734 3.409 L 7.519 3.489 7.364 3.270 C 7.279 3.149,7.079 2.926,6.918 2.774 C 6.680 2.549,6.565 2.468,6.288 2.335 C 5.827 2.113,5.606 2.061,5.067 2.046 C 4.696 2.036,4.574 2.045,4.374 2.099 M11.147 5.115 C 12.056 5.324,12.874 5.776,13.537 6.433 C 14.090 6.981,14.471 7.550,14.734 8.221 C 14.916 8.687,14.993 9.035,15.037 9.583 C 15.100 10.365,15.021 11.051,14.796 11.690 C 14.359 12.927,13.314 14.072,12.131 14.611 C 11.804 14.760,11.203 14.954,10.931 14.998 C 10.598 15.052,9.362 15.042,9.084 14.983 C 8.250 14.806,7.363 14.365,6.721 13.807 C 5.938 13.127,5.336 12.069,5.094 10.950 C 5.036 10.678,5.037 9.433,5.097 9.100 C 5.238 8.310,5.726 7.324,6.283 6.706 C 6.915 6.004,7.593 5.556,8.467 5.264 C 9.130 5.042,9.189 5.035,10.100 5.049 C 10.689 5.058,10.981 5.076,11.147 5.115 M9.033 8.511 L 9.033 10.489 10.211 11.643 L 11.389 12.796 11.974 12.173 C 12.296 11.830,12.601 11.500,12.652 11.439 L 12.745 11.327 11.872 10.471 L 11.000 9.615 11.000 8.074 L 11.000 6.533 10.017 6.533 L 9.033 6.533 9.033 8.511 " fill="#1A1C1F" stroke="none" fill-rule="evenodd"></path></svg>