<svg width="16" height="16" viewBox="0 0 16 16" fill="none" xmlns="http://www.w3.org/2000/svg"><path d="M3.518 1.667 C 2.869 1.825,2.276 2.380,2.026 3.063 C 1.760 3.792,1.915 4.552,2.465 5.210 C 2.546 5.306,2.849 5.572,2.926 5.614 C 2.930 5.616,2.892 5.718,2.842 5.842 C 2.732 6.116,2.603 6.555,2.531 6.897 C 2.464 7.218,2.420 7.919,2.441 8.320 C 2.490 9.253,2.809 10.214,3.396 11.199 C 3.479 11.337,3.547 11.470,3.547 11.494 C 3.547 11.518,3.353 11.854,3.117 12.240 C 2.881 12.627,2.627 13.050,2.553 13.180 L 2.419 13.416 2.435 13.627 C 2.444 13.742,2.470 13.883,2.494 13.939 C 2.549 14.071,2.732 14.260,2.867 14.323 C 2.997 14.383,3.370 14.392,3.501 14.337 C 3.650 14.275,3.881 13.989,4.334 13.305 C 4.576 12.939,4.781 12.640,4.788 12.640 C 4.796 12.640,4.987 12.735,5.213 12.851 C 5.838 13.172,6.366 13.362,6.991 13.493 C 7.319 13.561,8.055 13.588,8.560 13.550 C 9.279 13.496,10.108 13.227,10.888 12.796 C 11.215 12.615,11.231 12.609,11.269 12.657 C 11.291 12.684,11.506 13.003,11.746 13.365 C 12.240 14.108,12.323 14.210,12.501 14.294 C 12.676 14.377,13.007 14.380,13.160 14.300 C 13.423 14.163,13.585 13.891,13.586 13.587 C 13.586 13.328,13.563 13.283,12.682 11.847 L 12.449 11.467 12.636 11.162 C 13.364 9.981,13.661 8.862,13.578 7.615 C 13.540 7.045,13.460 6.649,13.261 6.043 L 13.113 5.593 13.301 5.423 C 14.147 4.658,14.333 3.641,13.794 2.722 C 13.568 2.338,13.089 1.925,12.667 1.752 C 12.420 1.651,12.292 1.628,11.966 1.627 C 11.577 1.626,11.323 1.682,11.000 1.837 C 10.681 1.990,10.480 2.147,10.202 2.460 C 10.087 2.588,9.982 2.693,9.967 2.693 C 9.951 2.693,9.859 2.670,9.762 2.640 C 9.477 2.556,9.007 2.485,8.506 2.452 C 7.664 2.397,6.915 2.479,6.274 2.695 C 6.151 2.737,6.034 2.764,6.013 2.756 C 5.993 2.748,5.938 2.684,5.893 2.612 C 5.847 2.541,5.699 2.377,5.563 2.247 C 5.231 1.930,4.915 1.765,4.445 1.665 C 4.220 1.617,3.719 1.619,3.518 1.667 M8.664 4.054 C 10.011 4.229,11.270 5.250,11.800 6.598 C 12.064 7.271,12.121 8.290,11.935 9.022 C 11.816 9.492,11.564 10.016,11.265 10.414 C 11.082 10.658,10.630 11.104,10.360 11.306 C 9.970 11.599,9.218 11.922,8.745 11.998 C 8.479 12.042,7.490 12.033,7.267 11.986 C 6.781 11.883,6.228 11.650,5.802 11.368 C 5.440 11.129,4.952 10.641,4.713 10.279 C 4.420 9.837,4.199 9.325,4.089 8.834 C 4.053 8.669,4.043 8.503,4.045 8.027 C 4.046 7.378,4.065 7.226,4.189 6.844 C 4.571 5.672,5.472 4.703,6.573 4.282 C 6.819 4.187,7.094 4.104,7.307 4.058 C 7.465 4.024,8.413 4.021,8.664 4.054 M7.227 6.809 L 7.227 8.392 8.169 9.315 L 9.112 10.238 9.580 9.739 C 9.836 9.464,10.080 9.200,10.121 9.151 L 10.196 9.062 9.498 8.377 L 8.800 7.692 8.800 6.459 L 8.800 5.227 8.013 5.227 L 7.227 5.227 7.227 6.809 " fill="#1A1C1F" stroke="none" fill-rule="evenodd"></path></svg>