<svg width="16" height="16" viewBox="0 0 16 16" fill="none" xmlns="http://www.w3.org/2000/svg"><path d="M3.506 1.675 C 2.819 1.879,2.285 2.374,2.024 3.052 C 1.866 3.460,1.867 4.018,2.025 4.453 C 2.164 4.837,2.399 5.175,2.712 5.440 C 2.790 5.506,2.861 5.589,2.871 5.625 C 2.882 5.668,2.847 5.815,2.765 6.065 C 2.547 6.725,2.469 7.115,2.441 7.693 C 2.384 8.877,2.677 9.975,3.358 11.133 C 3.462 11.309,3.547 11.472,3.547 11.495 C 3.547 11.518,3.338 11.879,3.082 12.298 C 2.826 12.717,2.580 13.135,2.534 13.226 C 2.426 13.439,2.407 13.599,2.466 13.801 C 2.527 14.011,2.636 14.161,2.805 14.270 C 2.929 14.349,2.971 14.361,3.157 14.370 C 3.438 14.383,3.544 14.347,3.707 14.183 C 3.781 14.109,4.055 13.727,4.316 13.332 L 4.790 12.616 5.081 12.779 C 5.609 13.073,6.133 13.279,6.760 13.441 C 7.407 13.607,8.596 13.613,9.213 13.454 C 9.835 13.293,10.365 13.085,10.888 12.796 C 11.215 12.615,11.231 12.609,11.269 12.657 C 11.291 12.684,11.493 12.984,11.719 13.322 C 12.332 14.243,12.453 14.356,12.827 14.358 C 13.057 14.359,13.175 14.310,13.343 14.143 C 13.513 13.972,13.584 13.807,13.585 13.573 C 13.586 13.384,13.579 13.361,13.456 13.133 C 13.384 13.001,13.200 12.689,13.046 12.440 C 12.892 12.191,12.694 11.870,12.607 11.726 L 12.449 11.466 12.637 11.162 C 13.198 10.250,13.492 9.399,13.577 8.441 C 13.618 7.977,13.576 7.289,13.479 6.829 C 13.411 6.504,13.242 5.942,13.145 5.715 L 13.092 5.591 13.192 5.511 C 13.519 5.251,13.798 4.882,13.953 4.504 L 14.067 4.227 14.067 3.733 L 14.067 3.240 13.978 3.021 C 13.723 2.388,13.222 1.917,12.573 1.702 C 12.408 1.647,12.336 1.640,11.947 1.640 C 11.472 1.641,11.361 1.661,11.023 1.814 C 10.705 1.957,10.451 2.162,10.131 2.532 L 9.983 2.704 9.780 2.645 C 9.226 2.484,8.283 2.401,7.588 2.452 C 7.095 2.487,6.821 2.532,6.493 2.629 C 6.085 2.751,6.063 2.756,6.019 2.739 C 5.996 2.730,5.927 2.655,5.866 2.573 C 5.564 2.164,5.076 1.817,4.627 1.693 C 4.379 1.624,3.713 1.613,3.506 1.675 M8.664 4.054 C 10.011 4.229,11.270 5.250,11.800 6.598 C 12.064 7.271,12.121 8.290,11.935 9.022 C 11.816 9.492,11.564 10.016,11.265 10.414 C 11.082 10.658,10.630 11.104,10.360 11.306 C 9.970 11.599,9.218 11.922,8.745 11.998 C 8.479 12.042,7.490 12.033,7.267 11.986 C 6.781 11.883,6.228 11.650,5.802 11.368 C 5.440 11.129,4.952 10.641,4.713 10.279 C 4.420 9.837,4.199 9.325,4.089 8.834 C 4.053 8.669,4.043 8.503,4.045 8.027 C 4.046 7.378,4.065 7.226,4.189 6.844 C 4.571 5.672,5.472 4.703,6.573 4.282 C 6.819 4.187,7.094 4.104,7.307 4.058 C 7.465 4.024,8.413 4.021,8.664 4.054 M7.200 6.400 L 7.200 7.200 6.400 7.200 L 5.600 7.200 5.600 8.000 L 5.600 8.800 6.400 8.800 L 7.200 8.800 7.200 9.600 L 7.200 10.400 8.000 10.400 L 8.800 10.400 8.800 9.600 L 8.800 8.800 9.600 8.800 L 10.400 8.800 10.400 8.000 L 10.400 7.200 9.600 7.200 L 8.800 7.200 8.800 6.400 L 8.800 5.600 8.000 5.600 L 7.200 5.600 7.200 6.400 " fill="#1A1C1F" stroke="none" fill-rule="evenodd"></path></svg>