<svg width="24" height="24" viewBox="0 0 24 24" fill="none" xmlns="http://www.w3.org/2000/svg"><path d="M8.572 4.100 C 8.502 4.132,8.381 4.222,8.303 4.300 C 8.048 4.555,8.026 4.632,8.008 5.344 L 7.991 5.988 7.070 6.016 C 6.564 6.031,6.057 6.061,5.945 6.082 C 5.832 6.103,5.587 6.194,5.400 6.286 C 4.801 6.578,4.349 7.120,4.080 7.867 L 3.991 8.115 4.009 13.047 L 4.026 17.980 4.116 18.240 C 4.257 18.646,4.429 18.915,4.757 19.243 C 5.083 19.569,5.350 19.740,5.760 19.886 L 6.020 19.979 12.000 19.979 L 17.980 19.979 18.240 19.886 C 18.650 19.740,18.917 19.569,19.243 19.243 C 19.569 18.916,19.740 18.650,19.886 18.240 L 19.978 17.980 19.979 13.000 L 19.979 8.020 19.886 7.760 C 19.740 7.350,19.569 7.084,19.243 6.756 C 18.906 6.419,18.435 6.152,18.051 6.081 C 17.935 6.060,17.429 6.030,16.925 6.015 L 16.008 5.988 15.994 5.384 C 15.981 4.821,15.972 4.765,15.870 4.555 C 15.695 4.200,15.409 4.040,14.949 4.040 C 14.573 4.040,14.278 4.214,14.111 4.535 C 14.036 4.679,14.023 4.783,14.008 5.350 L 13.991 6.000 11.995 6.000 L 10.000 6.000 9.998 5.470 C 9.997 5.179,9.982 4.863,9.964 4.770 C 9.922 4.554,9.759 4.318,9.553 4.175 C 9.413 4.078,9.350 4.063,9.047 4.053 C 8.807 4.045,8.661 4.060,8.572 4.100 M17.735 8.078 C 17.933 8.153,17.966 8.300,17.990 9.186 L 18.012 10.000 12.000 10.000 L 5.988 10.000 6.009 9.210 C 6.036 8.176,6.055 8.127,6.440 8.067 C 6.669 8.031,17.640 8.042,17.735 8.078 M17.992 14.830 C 17.981 17.405,17.975 17.630,17.910 17.749 C 17.871 17.820,17.799 17.900,17.750 17.928 C 17.679 17.967,16.425 17.981,11.980 17.992 L 6.300 18.007 6.171 17.872 L 6.041 17.738 6.014 14.889 L 5.987 12.040 11.995 12.040 L 18.004 12.040 17.992 14.830 M7.579 14.096 C 7.301 14.217,7.053 14.577,7.013 14.918 C 6.948 15.461,7.440 16.000,8.000 16.000 C 8.490 16.000,8.977 15.501,8.977 15.000 C 8.977 14.620,8.721 14.257,8.341 14.098 C 8.170 14.026,7.741 14.025,7.579 14.096 M11.617 14.097 C 11.253 14.255,11.023 14.604,11.022 15.000 C 11.020 15.457,11.295 15.812,11.753 15.946 C 12.205 16.077,12.664 15.859,12.904 15.400 C 13.010 15.198,13.003 14.790,12.891 14.577 C 12.778 14.362,12.522 14.136,12.333 14.083 C 12.124 14.025,11.766 14.032,11.617 14.097 M15.620 14.107 C 15.220 14.321,15.040 14.593,15.040 14.983 C 15.041 15.582,15.548 16.062,16.101 15.986 C 16.793 15.891,17.193 15.168,16.884 14.570 C 16.784 14.375,16.578 14.180,16.391 14.102 C 16.197 14.021,15.776 14.024,15.620 14.107 " fill="#1A1C1F" stroke="none" fill-rule="evenodd"></path></svg>