<svg width="12" height="12" viewBox="0 0 12 12" fill="none" xmlns="http://www.w3.org/2000/svg"><path d="M3.933 1.871 C 3.804 1.940,3.676 2.072,3.642 2.170 C 3.625 2.221,3.612 2.385,3.605 2.622 L 3.596 2.994 2.905 3.008 C 2.216 3.022,2.214 3.022,2.129 3.072 C 2.024 3.133,1.897 3.268,1.841 3.377 C 1.800 3.458,1.800 3.462,1.800 6.595 L 1.800 9.732 1.851 9.834 C 1.911 9.955,2.067 10.107,2.185 10.161 C 2.268 10.198,2.364 10.199,6.000 10.199 C 9.636 10.199,9.732 10.198,9.815 10.161 C 9.933 10.107,10.089 9.955,10.149 9.834 L 10.200 9.732 10.200 6.586 L 10.200 3.439 10.148 3.355 C 10.076 3.240,10.028 3.189,9.905 3.097 L 9.800 3.019 9.102 3.006 L 8.404 2.994 8.397 2.612 C 8.389 2.236,8.388 2.228,8.332 2.126 C 8.273 2.018,8.181 1.933,8.049 1.862 C 7.962 1.815,7.747 1.804,7.618 1.840 C 7.495 1.874,7.340 2.000,7.272 2.120 L 7.210 2.230 7.203 2.615 L 7.196 3.000 6.001 3.000 L 4.806 3.000 4.794 2.635 C 4.788 2.434,4.773 2.237,4.761 2.198 C 4.724 2.074,4.635 1.974,4.498 1.900 C 4.386 1.841,4.349 1.831,4.200 1.826 C 4.049 1.820,4.019 1.825,3.933 1.871 M9.000 4.800 L 9.000 5.400 6.000 5.400 L 3.000 5.400 3.000 4.800 L 3.000 4.200 6.000 4.200 L 9.000 4.200 9.000 4.800 M9.000 7.800 L 9.000 9.000 6.000 9.000 L 3.000 9.000 3.000 7.800 L 3.000 6.600 6.000 6.600 L 9.000 6.600 9.000 7.800 " fill="#1A1C1F" stroke="none" fill-rule="evenodd"></path></svg>