<svg width="20" height="20" viewBox="0 0 20 20" fill="none" xmlns="http://www.w3.org/2000/svg"><path d="M6.759 3.036 C 6.495 3.099,6.148 3.393,6.068 3.622 C 6.040 3.704,6.018 3.976,6.009 4.370 L 5.994 4.990 4.842 5.013 C 3.693 5.036,3.690 5.036,3.548 5.119 C 3.374 5.222,3.162 5.447,3.069 5.629 C 3.000 5.764,3.000 5.770,3.000 10.992 L 3.000 16.220 3.085 16.390 C 3.185 16.591,3.445 16.845,3.642 16.935 C 3.780 16.997,3.940 16.999,10.000 16.999 C 16.060 16.999,16.220 16.997,16.358 16.935 C 16.555 16.845,16.815 16.591,16.915 16.390 L 17.000 16.220 17.000 10.985 L 16.999 5.750 16.902 5.580 C 16.780 5.367,16.500 5.112,16.339 5.068 C 16.272 5.049,15.719 5.024,15.109 5.012 L 14.000 4.989 14.000 4.483 C 14.000 4.204,13.990 3.906,13.979 3.820 C 13.947 3.589,13.784 3.344,13.560 3.192 C 13.383 3.072,13.347 3.061,13.075 3.043 C 12.723 3.021,12.564 3.075,12.316 3.304 C 12.042 3.556,12.023 3.623,12.006 4.358 L 11.992 5.000 9.996 5.000 L 8.000 5.000 7.999 4.558 C 7.997 3.604,7.908 3.375,7.447 3.141 C 7.327 3.079,7.224 3.053,6.967 3.017 C 6.921 3.011,6.827 3.019,6.759 3.036 M15.000 8.000 L 15.000 9.000 10.000 9.000 L 5.000 9.000 5.000 8.000 L 5.000 7.000 10.000 7.000 L 15.000 7.000 15.000 8.000 M15.000 13.000 L 15.000 15.000 10.000 15.000 L 5.000 15.000 5.000 13.000 L 5.000 11.000 10.000 11.000 L 15.000 11.000 15.000 13.000 " fill="#1A1C1F" stroke="none" fill-rule="evenodd"></path></svg>