<svg width="16" height="16" viewBox="0 0 16 16" fill="none" xmlns="http://www.w3.org/2000/svg"><path d="M5.407 2.429 C 5.195 2.479,4.919 2.712,4.856 2.894 C 4.832 2.963,4.815 3.171,4.807 3.496 L 4.795 3.992 3.909 4.010 C 3.422 4.020,2.980 4.040,2.927 4.055 C 2.800 4.090,2.576 4.295,2.478 4.464 L 2.401 4.600 2.400 8.788 L 2.400 12.976 2.468 13.112 C 2.548 13.273,2.756 13.476,2.914 13.548 C 3.024 13.598,3.152 13.599,8.000 13.599 C 12.848 13.599,12.976 13.598,13.086 13.548 C 13.244 13.476,13.452 13.273,13.532 13.112 L 13.600 12.976 13.600 8.794 C 13.600 4.616,13.600 4.611,13.545 4.503 C 13.471 4.358,13.301 4.177,13.162 4.096 C 13.049 4.030,13.045 4.029,12.127 4.011 L 11.205 3.992 11.195 3.496 C 11.187 3.061,11.179 2.985,11.130 2.878 C 11.061 2.729,10.894 2.563,10.730 2.481 C 10.624 2.428,10.578 2.422,10.374 2.432 C 10.165 2.442,10.124 2.452,9.988 2.535 C 9.833 2.629,9.753 2.714,9.665 2.880 C 9.623 2.959,9.614 3.051,9.605 3.487 L 9.594 4.000 7.997 4.000 L 6.400 4.000 6.399 3.647 C 6.397 2.883,6.326 2.700,5.958 2.512 C 5.861 2.463,5.779 2.442,5.573 2.414 C 5.537 2.409,5.462 2.416,5.407 2.429 M12.000 6.400 L 12.000 7.200 8.000 7.200 L 4.000 7.200 4.000 6.400 L 4.000 5.600 8.000 5.600 L 12.000 5.600 12.000 6.400 M12.000 10.400 L 12.000 12.000 8.000 12.000 L 4.000 12.000 4.000 10.400 L 4.000 8.800 8.000 8.800 L 12.000 8.800 12.000 10.400 " fill="#1A1C1F" stroke="none" fill-rule="evenodd"></path></svg>