<svg width="32" height="32" viewBox="0 0 32 32" fill="none" xmlns="http://www.w3.org/2000/svg"><path d="M11.685 5.080 C 11.424 5.166,11.116 5.482,11.046 5.733 C 11.014 5.851,10.987 6.177,10.987 6.458 L 10.987 6.970 9.373 7.006 C 8.485 7.026,7.603 7.066,7.413 7.096 C 6.446 7.246,5.546 8.036,5.171 9.065 L 5.013 9.496 5.018 15.802 C 5.020 19.269,5.039 22.719,5.059 23.467 L 5.095 24.827 5.295 25.247 C 5.575 25.836,6.164 26.425,6.752 26.705 L 7.173 26.904 9.066 26.949 C 11.750 27.012,24.492 26.958,24.794 26.882 C 25.518 26.699,26.326 26.009,26.697 25.257 L 26.906 24.833 26.942 23.390 C 26.961 22.596,26.979 19.146,26.982 15.723 L 26.987 9.500 26.847 9.110 C 26.470 8.056,25.563 7.248,24.587 7.096 C 24.397 7.066,23.515 7.026,22.627 7.006 L 21.013 6.970 21.011 6.431 C 21.008 5.652,20.890 5.383,20.457 5.162 C 20.144 5.002,19.786 5.019,19.480 5.208 C 19.089 5.449,19.017 5.622,18.994 6.360 L 18.975 6.987 16.000 6.987 L 13.025 6.987 13.004 6.360 C 12.979 5.631,12.918 5.473,12.571 5.234 C 12.307 5.053,11.954 4.991,11.685 5.080 M10.994 9.640 C 11.016 10.365,11.085 10.535,11.460 10.799 C 11.651 10.933,11.740 10.960,12.000 10.960 C 12.260 10.960,12.349 10.933,12.540 10.799 C 12.915 10.535,12.984 10.365,13.006 9.640 L 13.025 9.013 16.000 9.013 L 18.975 9.013 18.994 9.640 C 19.016 10.365,19.085 10.535,19.460 10.799 C 19.651 10.933,19.740 10.960,20.000 10.960 C 20.260 10.960,20.349 10.933,20.540 10.799 C 20.916 10.534,20.984 10.366,21.006 9.632 L 21.025 8.996 22.654 9.031 C 24.487 9.070,24.534 9.080,24.806 9.467 L 24.956 9.680 24.993 11.347 L 25.030 13.013 16.008 13.013 L 6.987 13.013 6.989 12.173 C 6.993 10.689,7.065 9.686,7.179 9.490 C 7.428 9.066,7.596 9.034,9.688 9.021 L 10.975 9.013 10.994 9.640 M25.009 17.293 C 25.003 20.449,24.928 24.259,24.869 24.453 C 24.839 24.548,24.713 24.695,24.556 24.813 L 24.293 25.013 16.000 25.013 L 7.707 25.013 7.444 24.813 C 7.287 24.694,7.161 24.549,7.132 24.453 C 7.070 24.249,6.996 20.579,6.991 17.427 L 6.987 14.987 16.000 14.987 L 25.013 14.987 25.009 17.293 M9.690 17.066 C 9.272 17.197,8.962 17.688,9.030 18.109 C 9.118 18.651,9.469 18.960,9.996 18.960 C 10.367 18.959,10.637 18.826,10.838 18.544 C 10.995 18.324,11.004 17.704,10.854 17.476 C 10.652 17.166,10.048 16.953,9.690 17.066 M13.690 17.066 C 13.272 17.197,12.962 17.688,13.030 18.109 C 13.118 18.651,13.469 18.960,13.996 18.960 C 14.367 18.959,14.637 18.826,14.838 18.544 C 14.995 18.324,15.004 17.704,14.854 17.476 C 14.652 17.166,14.048 16.953,13.690 17.066 M17.690 17.066 C 17.405 17.155,17.187 17.371,17.092 17.658 C 16.992 17.958,17.008 18.181,17.151 18.482 C 17.442 19.095,18.418 19.134,18.835 18.549 C 18.990 18.331,19.002 17.701,18.855 17.476 C 18.652 17.166,18.048 16.953,17.690 17.066 M21.690 17.066 C 21.405 17.155,21.187 17.371,21.092 17.658 C 20.992 17.958,21.008 18.181,21.151 18.482 C 21.442 19.095,22.418 19.134,22.835 18.549 C 22.990 18.331,23.002 17.701,22.855 17.476 C 22.652 17.166,22.048 16.953,21.690 17.066 M9.690 21.066 C 9.272 21.197,8.962 21.688,9.030 22.109 C 9.118 22.651,9.469 22.960,9.996 22.960 C 10.367 22.959,10.637 22.826,10.838 22.544 C 10.995 22.324,11.004 21.704,10.854 21.476 C 10.652 21.166,10.048 20.953,9.690 21.066 M13.690 21.066 C 13.272 21.197,12.962 21.688,13.030 22.109 C 13.118 22.651,13.469 22.960,13.996 22.960 C 14.367 22.959,14.637 22.826,14.838 22.544 C 14.995 22.324,15.004 21.704,14.854 21.476 C 14.652 21.166,14.048 20.953,13.690 21.066 M17.690 21.066 C 17.405 21.155,17.187 21.371,17.092 21.658 C 16.992 21.958,17.008 22.181,17.151 22.482 C 17.442 23.095,18.418 23.134,18.835 22.549 C 18.990 22.331,19.002 21.701,18.855 21.476 C 18.652 21.166,18.048 20.953,17.690 21.066 M21.690 21.066 C 21.405 21.155,21.187 21.371,21.092 21.658 C 20.992 21.958,21.008 22.181,21.151 22.482 C 21.442 23.095,22.418 23.134,22.835 22.549 C 22.990 22.331,23.002 21.701,22.855 21.476 C 22.652 21.166,22.048 20.953,21.690 21.066 " fill="#1A1C1F" stroke="none" fill-rule="evenodd"></path></svg>