<svg width="14" height="14" viewBox="0 0 14 14" fill="none" xmlns="http://www.w3.org/2000/svg"><path d="M4.717 2.126 C 4.531 2.181,4.301 2.383,4.248 2.536 C 4.228 2.592,4.213 2.783,4.206 3.059 L 4.196 3.493 3.421 3.509 C 2.994 3.517,2.607 3.535,2.561 3.548 C 2.450 3.579,2.254 3.758,2.169 3.906 L 2.100 4.025 2.100 7.690 L 2.100 11.354 2.159 11.473 C 2.229 11.614,2.411 11.791,2.550 11.854 C 2.646 11.898,2.758 11.899,7.000 11.899 C 11.242 11.899,11.354 11.898,11.450 11.854 C 11.589 11.791,11.771 11.614,11.841 11.473 L 11.900 11.354 11.900 7.694 C 11.900 4.039,11.900 4.035,11.852 3.940 C 11.787 3.813,11.638 3.655,11.517 3.584 C 11.418 3.526,11.415 3.526,10.611 3.509 L 9.805 3.493 9.797 3.059 C 9.788 2.638,9.786 2.621,9.722 2.491 C 9.670 2.384,9.625 2.334,9.501 2.246 L 9.346 2.135 9.112 2.135 C 8.848 2.135,8.792 2.156,8.617 2.317 C 8.430 2.489,8.416 2.538,8.404 3.051 L 8.394 3.500 7.001 3.500 L 5.607 3.500 5.593 3.063 C 5.584 2.822,5.567 2.587,5.553 2.540 C 5.480 2.283,4.994 2.042,4.717 2.126 M10.500 5.600 L 10.500 6.300 7.000 6.300 L 3.500 6.300 3.500 5.600 L 3.500 4.900 7.000 4.900 L 10.500 4.900 10.500 5.600 M10.500 9.100 L 10.500 10.500 7.000 10.500 L 3.500 10.500 3.500 9.100 L 3.500 7.700 7.000 7.700 L 10.500 7.700 10.500 9.100 " fill="#1A1C1F" stroke="none" fill-rule="evenodd"></path></svg>