<svg width="28" height="28" viewBox="0 0 28 28" fill="none" xmlns="http://www.w3.org/2000/svg"><path d="M10.224 4.445 C 9.996 4.521,9.726 4.797,9.665 5.017 C 9.637 5.119,9.614 5.405,9.614 5.651 L 9.613 6.098 8.201 6.130 C 7.425 6.147,6.653 6.183,6.486 6.209 C 5.636 6.341,4.854 7.030,4.520 7.943 L 4.378 8.330 4.401 14.910 C 4.417 19.616,4.439 21.548,4.477 21.695 C 4.582 22.099,4.777 22.415,5.165 22.808 C 5.466 23.114,5.622 23.231,5.911 23.368 L 6.276 23.541 7.910 23.580 C 10.236 23.636,21.212 23.590,21.630 23.523 C 22.053 23.455,22.367 23.269,22.821 22.820 C 23.259 22.386,23.454 22.054,23.524 21.626 C 23.561 21.402,23.584 19.327,23.600 14.831 L 23.623 8.360 23.498 7.983 C 23.255 7.253,22.645 6.604,21.934 6.319 C 21.662 6.210,21.537 6.193,20.743 6.157 C 20.256 6.135,19.526 6.116,19.122 6.115 L 18.387 6.113 18.385 5.635 C 18.382 4.945,18.280 4.710,17.900 4.516 C 17.626 4.377,17.313 4.391,17.045 4.557 C 16.703 4.768,16.640 4.919,16.620 5.565 L 16.604 6.113 14.000 6.113 L 11.396 6.113 11.380 5.565 C 11.360 4.922,11.296 4.767,10.964 4.564 C 10.721 4.415,10.447 4.371,10.224 4.445 M9.620 8.435 C 9.639 9.070,9.699 9.218,10.028 9.449 C 10.195 9.567,10.273 9.590,10.500 9.590 C 10.727 9.590,10.805 9.567,10.972 9.449 C 11.301 9.218,11.361 9.070,11.380 8.435 L 11.396 7.887 14.000 7.887 L 16.604 7.887 16.620 8.435 C 16.639 9.070,16.699 9.218,17.028 9.449 C 17.195 9.567,17.273 9.590,17.500 9.590 C 17.727 9.590,17.805 9.567,17.972 9.449 C 18.301 9.218,18.361 9.070,18.380 8.435 L 18.396 7.887 19.150 7.887 C 19.564 7.887,20.238 7.901,20.647 7.918 L 21.391 7.949 21.585 8.142 C 21.696 8.254,21.791 8.400,21.808 8.486 C 21.825 8.569,21.853 9.256,21.870 10.012 L 21.902 11.387 14.007 11.387 L 6.113 11.387 6.115 10.652 C 6.119 9.353,6.181 8.475,6.282 8.304 C 6.499 7.933,6.646 7.905,8.477 7.894 L 9.604 7.887 9.620 8.435 M21.883 15.132 C 21.877 17.893,21.812 21.227,21.760 21.397 C 21.735 21.480,21.623 21.608,21.487 21.711 L 21.257 21.886 14.000 21.886 L 6.743 21.886 6.513 21.711 C 6.376 21.607,6.266 21.480,6.240 21.397 C 6.186 21.218,6.121 18.007,6.117 15.248 L 6.113 13.113 14.000 13.113 L 21.887 13.113 21.883 15.132 M8.479 14.932 C 8.113 15.047,7.841 15.477,7.901 15.846 C 7.978 16.320,8.286 16.590,8.747 16.590 C 9.071 16.589,9.308 16.473,9.483 16.226 C 9.620 16.034,9.629 15.491,9.498 15.291 C 9.320 15.020,8.792 14.834,8.479 14.932 M11.979 14.932 C 11.613 15.047,11.341 15.477,11.401 15.846 C 11.478 16.320,11.786 16.590,12.247 16.590 C 12.571 16.589,12.808 16.473,12.983 16.226 C 13.120 16.034,13.129 15.491,12.998 15.291 C 12.820 15.020,12.292 14.834,11.979 14.932 M15.479 14.932 C 15.113 15.047,14.841 15.477,14.901 15.846 C 14.978 16.320,15.286 16.590,15.747 16.590 C 16.071 16.589,16.308 16.473,16.483 16.226 C 16.620 16.034,16.629 15.491,16.498 15.291 C 16.320 15.020,15.792 14.834,15.479 14.932 M18.979 14.932 C 18.613 15.047,18.341 15.477,18.401 15.846 C 18.478 16.320,18.786 16.590,19.247 16.590 C 19.571 16.589,19.808 16.473,19.983 16.226 C 20.120 16.034,20.129 15.491,19.998 15.291 C 19.820 15.020,19.292 14.834,18.979 14.932 M8.479 18.432 C 8.113 18.547,7.841 18.977,7.901 19.346 C 7.978 19.820,8.286 20.090,8.747 20.090 C 9.071 20.089,9.308 19.973,9.483 19.726 C 9.620 19.534,9.629 18.991,9.498 18.791 C 9.320 18.520,8.792 18.334,8.479 18.432 M11.979 18.432 C 11.613 18.547,11.341 18.977,11.401 19.346 C 11.478 19.820,11.786 20.090,12.247 20.090 C 12.571 20.089,12.808 19.973,12.983 19.726 C 13.120 19.534,13.129 18.991,12.998 18.791 C 12.820 18.520,12.292 18.334,11.979 18.432 M15.479 18.432 C 15.113 18.547,14.841 18.977,14.901 19.346 C 14.978 19.820,15.286 20.090,15.747 20.090 C 16.071 20.089,16.308 19.973,16.483 19.726 C 16.620 19.534,16.629 18.991,16.498 18.791 C 16.320 18.520,15.792 18.334,15.479 18.432 M18.979 18.432 C 18.613 18.547,18.341 18.977,18.401 19.346 C 18.478 19.820,18.786 20.090,19.247 20.090 C 19.571 20.089,19.808 19.973,19.983 19.726 C 20.120 19.534,20.129 18.991,19.998 18.791 C 19.820 18.520,19.292 18.334,18.979 18.432 " fill="#1A1C1F" stroke="none" fill-rule="evenodd"></path></svg>