<svg width="12" height="12" viewBox="0 0 12 12" fill="none" xmlns="http://www.w3.org/2000/svg"><path d="M5.350 1.250 C 4.239 1.422,3.292 1.913,2.516 2.716 C 1.903 3.352,1.495 4.139,1.286 5.094 C 1.231 5.345,1.230 5.362,1.230 6.000 C 1.230 6.608,1.233 6.664,1.277 6.870 C 1.522 8.012,2.044 8.908,2.889 9.635 C 3.720 10.349,4.731 10.748,5.830 10.793 C 6.891 10.837,8.009 10.483,8.885 9.825 C 9.248 9.552,9.721 9.053,9.979 8.671 C 10.305 8.188,10.592 7.498,10.710 6.915 C 10.834 6.296,10.818 5.526,10.667 4.902 C 10.327 3.500,9.397 2.339,8.110 1.709 C 7.628 1.473,7.212 1.340,6.738 1.269 C 6.443 1.224,5.588 1.213,5.350 1.250 M6.600 4.375 L 6.600 5.750 7.260 6.410 L 7.920 7.070 7.495 7.495 L 7.070 7.920 6.235 7.085 L 5.400 6.250 5.400 4.625 L 5.400 3.000 6.000 3.000 L 6.600 3.000 6.600 4.375 " fill="#1A1C1F" stroke="none" fill-rule="evenodd"></path></svg>