<svg width="14" height="14" viewBox="0 0 14 14" fill="none" xmlns="http://www.w3.org/2000/svg"><path d="M6.370 1.438 C 6.173 1.462,5.661 1.571,5.437 1.637 C 5.102 1.734,4.827 1.845,4.472 2.024 C 2.844 2.848,1.740 4.386,1.456 6.228 C 1.405 6.562,1.404 7.427,1.455 7.774 C 1.571 8.565,1.910 9.451,2.341 10.092 C 2.654 10.557,3.204 11.140,3.634 11.463 C 4.341 11.993,5.264 12.390,6.113 12.529 C 6.403 12.577,7.004 12.600,7.380 12.577 C 8.427 12.514,9.496 12.115,10.365 11.463 C 10.670 11.234,11.258 10.648,11.472 10.360 C 11.902 9.781,12.221 9.114,12.412 8.398 C 12.516 8.004,12.550 7.799,12.578 7.397 C 12.654 6.287,12.425 5.271,11.872 4.265 C 11.620 3.807,11.365 3.475,10.945 3.056 C 10.093 2.208,9.005 1.652,7.861 1.480 C 7.627 1.445,6.557 1.415,6.370 1.438 M7.700 5.104 L 7.700 6.709 8.470 7.478 L 9.240 8.248 8.744 8.744 L 8.249 9.240 7.274 8.266 L 6.300 7.292 6.300 5.396 L 6.300 3.500 7.000 3.500 L 7.700 3.500 7.700 5.104 " fill="#1A1C1F" stroke="none" fill-rule="evenodd"></path></svg>