<svg width="14" height="14" viewBox="0 0 14 14" fill="none" xmlns="http://www.w3.org/2000/svg"><path d="M6.370 1.438 C 6.173 1.462,5.661 1.571,5.437 1.637 C 3.929 2.075,2.634 3.173,1.958 4.585 C 1.726 5.069,1.542 5.673,1.456 6.228 C 1.405 6.562,1.404 7.427,1.455 7.774 C 1.571 8.565,1.910 9.451,2.341 10.092 C 2.654 10.557,3.204 11.140,3.634 11.463 C 4.341 11.993,5.264 12.390,6.113 12.529 C 6.403 12.577,7.004 12.600,7.380 12.577 C 8.427 12.514,9.496 12.115,10.365 11.463 C 10.670 11.234,11.258 10.648,11.472 10.360 C 11.902 9.781,12.221 9.114,12.412 8.398 C 12.516 8.004,12.550 7.799,12.578 7.397 C 12.654 6.287,12.425 5.271,11.872 4.265 C 11.620 3.807,11.365 3.475,10.945 3.056 C 10.093 2.208,9.005 1.652,7.861 1.480 C 7.627 1.445,6.557 1.415,6.370 1.438 M7.537 2.858 C 8.041 2.918,8.436 3.037,8.867 3.257 C 9.358 3.508,9.758 3.817,10.132 4.235 C 10.893 5.084,11.253 6.187,11.156 7.366 C 11.125 7.750,11.082 7.964,10.966 8.312 C 10.551 9.564,9.569 10.556,8.342 10.963 C 7.513 11.238,6.772 11.264,5.950 11.047 C 5.214 10.853,4.639 10.534,4.122 10.035 C 3.528 9.461,3.145 8.801,2.937 7.992 L 2.858 7.688 2.858 7.000 C 2.858 6.330,2.860 6.305,2.921 6.066 C 3.255 4.751,4.047 3.771,5.224 3.214 C 5.928 2.881,6.713 2.760,7.537 2.858 M6.300 5.746 L 6.300 7.292 7.268 8.260 L 8.237 9.228 8.732 8.732 L 9.228 8.237 8.464 7.472 L 7.700 6.708 7.700 5.454 L 7.700 4.200 7.000 4.200 L 6.300 4.200 6.300 5.746 " fill="#1A1C1F" stroke="none" fill-rule="evenodd"></path></svg>