<svg width="24" height="24" viewBox="0 0 24 24" fill="none" xmlns="http://www.w3.org/2000/svg"><path d="M11.340 2.024 C 9.444 2.215,7.937 2.730,6.519 3.673 C 4.076 5.297,2.530 7.740,2.101 10.654 C 1.711 13.302,2.498 16.116,4.228 18.260 C 4.645 18.777,5.471 19.579,5.982 19.963 C 7.360 20.998,8.889 21.638,10.620 21.902 C 11.222 21.993,12.630 21.993,13.334 21.901 C 15.449 21.624,17.491 20.620,19.013 19.108 C 20.753 17.378,21.822 15.048,21.964 12.677 C 22.114 10.154,21.410 7.849,19.887 5.880 C 19.548 5.442,18.597 4.491,18.160 4.153 C 16.609 2.956,14.886 2.262,13.020 2.084 C 12.499 2.035,11.566 2.002,11.340 2.024 M12.758 4.081 C 15.194 4.297,17.478 5.709,18.771 7.800 C 18.873 7.966,19.063 8.326,19.194 8.600 C 19.790 9.854,19.959 10.778,19.906 12.500 C 19.880 13.351,19.820 13.698,19.562 14.480 C 18.701 17.092,16.582 19.069,13.926 19.738 C 13.026 19.964,11.851 20.029,10.943 19.901 C 8.301 19.530,6.068 17.931,4.878 15.556 C 4.027 13.858,3.825 11.813,4.320 9.903 C 4.665 8.571,5.487 7.199,6.526 6.222 C 8.233 4.616,10.398 3.872,12.758 4.081 M11.592 6.122 C 11.511 6.165,11.378 6.267,11.298 6.350 C 11.005 6.651,11.021 6.516,11.007 8.780 C 11.000 9.902,11.006 11.168,11.021 11.593 L 11.049 12.367 11.252 12.613 C 11.501 12.915,13.885 15.298,14.273 15.632 C 14.499 15.826,14.596 15.882,14.769 15.918 C 15.509 16.071,16.181 15.389,15.954 14.716 C 15.885 14.512,15.658 14.261,14.274 12.860 L 13.007 11.578 12.990 9.199 C 12.978 7.541,12.958 6.776,12.926 6.675 C 12.871 6.506,12.543 6.182,12.340 6.098 C 12.142 6.015,11.772 6.027,11.592 6.122 " fill="#1A1C1F" stroke="none" fill-rule="evenodd"></path></svg>