<svg width="20" height="20" viewBox="0 0 20 20" fill="none" xmlns="http://www.w3.org/2000/svg"><path d="M8.933 2.084 C 6.139 2.472,3.681 4.362,2.621 6.939 C 2.372 7.545,2.184 8.234,2.078 8.933 C 1.997 9.466,1.997 10.569,2.078 11.115 C 2.684 15.191,6.274 18.166,10.367 17.984 C 10.633 17.972,10.992 17.940,11.167 17.914 C 11.617 17.844,12.448 17.622,12.857 17.462 C 13.497 17.212,14.279 16.775,14.865 16.341 C 15.229 16.070,16.107 15.174,16.400 14.774 C 17.219 13.654,17.707 12.466,17.923 11.067 C 18.004 10.537,18.003 9.432,17.921 8.900 C 17.843 8.392,17.637 7.593,17.483 7.200 C 17.048 6.089,16.480 5.214,15.667 4.399 C 14.322 3.051,12.603 2.226,10.811 2.069 C 10.274 2.022,9.328 2.029,8.933 2.084 M11.000 7.292 L 11.000 9.584 12.100 10.683 L 13.200 11.783 12.492 12.492 L 11.784 13.200 10.392 11.809 L 9.000 10.417 9.000 7.708 L 9.000 5.000 10.000 5.000 L 11.000 5.000 11.000 7.292 " fill="#1A1C1F" stroke="none" fill-rule="evenodd"></path></svg>