<svg width="16" height="16" viewBox="0 0 16 16" fill="none" xmlns="http://www.w3.org/2000/svg"><path d="M7.333 1.641 C 5.758 1.837,4.390 2.526,3.311 3.667 C 2.864 4.141,2.553 4.595,2.254 5.213 C 1.749 6.257,1.557 7.241,1.626 8.437 C 1.694 9.633,2.155 10.858,2.915 11.867 C 3.145 12.173,3.799 12.833,4.093 13.057 C 5.606 14.206,7.450 14.636,9.267 14.262 C 10.258 14.059,11.221 13.607,11.991 12.985 C 12.441 12.622,12.995 12.021,13.306 11.562 C 13.740 10.917,14.123 9.997,14.280 9.219 C 14.423 8.509,14.424 7.504,14.281 6.813 C 14.010 5.496,13.444 4.429,12.534 3.519 C 11.446 2.431,10.047 1.764,8.627 1.656 C 7.946 1.605,7.651 1.601,7.333 1.641 M8.800 5.833 L 8.800 7.667 9.680 8.547 L 10.560 9.426 9.993 9.993 L 9.427 10.560 8.314 9.447 L 7.200 8.334 7.200 6.167 L 7.200 4.000 8.000 4.000 L 8.800 4.000 8.800 5.833 " fill="#1A1C1F" stroke="none" fill-rule="evenodd"></path></svg>