<svg width="16" height="16" viewBox="0 0 16 16" fill="none" xmlns="http://www.w3.org/2000/svg"><path d="M7.547 1.617 C 6.579 1.733,5.919 1.918,5.187 2.280 C 3.456 3.133,2.244 4.642,1.787 6.511 C 1.634 7.136,1.620 7.283,1.634 8.138 C 1.646 8.894,1.649 8.932,1.729 9.274 C 1.960 10.269,2.344 11.109,2.915 11.867 C 3.145 12.173,3.799 12.833,4.093 13.057 C 5.606 14.206,7.450 14.636,9.267 14.262 C 10.258 14.059,11.221 13.607,11.991 12.985 C 12.441 12.622,12.995 12.021,13.306 11.562 C 13.740 10.917,14.123 9.997,14.280 9.219 C 14.423 8.509,14.424 7.504,14.281 6.813 C 14.010 5.496,13.444 4.429,12.534 3.519 C 11.446 2.431,10.047 1.764,8.627 1.656 C 8.148 1.620,7.666 1.602,7.547 1.617 M8.352 3.253 C 9.035 3.293,9.545 3.425,10.117 3.712 C 12.462 4.884,13.428 7.692,12.306 10.072 C 12.056 10.602,11.744 11.033,11.314 11.442 C 10.581 12.139,9.755 12.554,8.733 12.735 C 8.407 12.793,7.656 12.801,7.360 12.750 C 7.091 12.704,6.674 12.599,6.428 12.517 C 6.160 12.427,5.579 12.142,5.347 11.986 C 4.299 11.282,3.565 10.175,3.308 8.913 C 3.228 8.521,3.228 7.479,3.308 7.084 C 3.600 5.639,4.518 4.417,5.813 3.750 C 6.461 3.416,7.066 3.259,7.813 3.231 C 7.865 3.229,8.107 3.239,8.352 3.253 M7.200 6.567 L 7.200 8.334 8.307 9.440 L 9.413 10.546 9.980 9.980 L 10.546 9.413 9.673 8.540 L 8.800 7.666 8.800 6.233 L 8.800 4.800 8.000 4.800 L 7.200 4.800 7.200 6.567 " fill="#1A1C1F" stroke="none" fill-rule="evenodd"></path></svg>