<svg width="20" height="20" viewBox="0 0 20 20" fill="none" xmlns="http://www.w3.org/2000/svg"><path d="M9.133 2.057 C 8.587 2.116,7.771 2.319,7.144 2.552 C 5.389 3.205,3.765 4.651,2.906 6.325 C 1.489 9.087,1.767 12.337,3.631 14.817 C 3.899 15.173,4.530 15.838,4.863 16.116 C 6.165 17.200,7.816 17.867,9.450 17.970 C 10.531 18.037,11.457 17.923,12.433 17.602 C 13.693 17.187,14.690 16.581,15.586 15.686 C 16.087 15.186,16.339 14.879,16.703 14.324 C 17.346 13.343,17.732 12.299,17.939 10.983 C 18.004 10.570,17.994 9.365,17.921 8.900 C 17.842 8.391,17.636 7.592,17.483 7.200 C 17.048 6.089,16.480 5.214,15.667 4.399 C 14.322 3.051,12.603 2.226,10.811 2.069 C 10.432 2.036,9.397 2.028,9.133 2.057 M10.440 4.067 C 11.294 4.116,11.932 4.282,12.647 4.640 C 15.103 5.870,16.393 8.554,15.832 11.267 C 15.731 11.752,15.583 12.171,15.331 12.683 C 14.860 13.639,14.146 14.433,13.193 15.057 C 12.469 15.533,11.517 15.856,10.526 15.965 C 10.088 16.013,9.841 16.009,9.377 15.949 C 7.968 15.767,6.810 15.231,5.888 14.337 C 5.046 13.520,4.515 12.612,4.208 11.467 L 4.087 11.017 4.074 10.117 C 4.063 9.299,4.068 9.185,4.133 8.867 C 4.439 7.354,5.302 6.011,6.537 5.124 C 7.324 4.559,8.446 4.137,9.350 4.067 C 9.800 4.032,9.839 4.032,10.440 4.067 M9.000 8.208 L 9.000 10.417 10.383 11.800 L 11.767 13.183 12.475 12.475 L 13.183 11.767 12.092 10.675 L 11.000 9.583 11.000 7.791 L 11.000 6.000 10.000 6.000 L 9.000 6.000 9.000 8.208 " fill="#1A1C1F" stroke="none" fill-rule="evenodd"></path></svg>