<svg width="14" height="14" viewBox="0 0 14 14" fill="none" xmlns="http://www.w3.org/2000/svg"><path d="M3.942 2.939 L 2.016 2.952 1.860 3.031 C 1.562 3.182,1.330 3.443,1.229 3.739 C 1.179 3.884,1.179 3.900,1.172 6.689 C 1.168 8.255,1.174 9.658,1.186 9.867 C 1.206 10.213,1.214 10.254,1.280 10.395 C 1.365 10.577,1.659 10.883,1.826 10.964 C 2.053 11.074,1.950 11.072,7.012 11.072 C 12.377 11.072,12.009 11.083,12.267 10.905 C 12.448 10.781,12.644 10.558,12.725 10.384 L 12.797 10.232 12.816 9.648 C 12.846 8.706,12.825 3.930,12.790 3.803 C 12.699 3.478,12.458 3.190,12.145 3.033 L 11.982 2.952 10.465 2.937 C 8.770 2.920,6.808 2.921,3.942 2.939 M11.887 3.849 L 11.977 3.941 11.964 6.995 C 11.956 9.109,11.944 10.065,11.927 10.097 C 11.913 10.123,11.862 10.163,11.813 10.187 C 11.728 10.229,11.557 10.231,7.000 10.231 C 2.443 10.231,2.272 10.229,2.187 10.187 C 2.138 10.163,2.087 10.123,2.073 10.096 C 2.055 10.063,2.044 9.135,2.035 6.995 L 2.023 3.941 2.113 3.849 L 2.203 3.757 7.000 3.757 L 11.797 3.757 11.887 3.849 M2.777 7.015 L 2.777 9.690 3.891 9.676 C 5.063 9.661,5.245 9.647,5.516 9.551 C 5.833 9.438,5.995 9.337,6.219 9.112 C 6.391 8.941,6.450 8.862,6.539 8.686 C 6.738 8.295,6.843 7.828,6.873 7.210 C 6.926 6.098,6.636 5.211,6.072 4.756 C 5.908 4.624,5.635 4.475,5.460 4.422 C 5.316 4.378,4.420 4.344,3.366 4.341 L 2.777 4.340 2.777 7.015 M7.443 7.008 L 7.443 9.683 8.242 9.683 C 9.239 9.682,9.947 9.652,10.158 9.603 C 10.663 9.486,11.082 9.189,11.251 8.829 C 11.346 8.627,11.395 8.343,11.380 8.085 C 11.360 7.743,11.228 7.463,10.984 7.244 C 10.847 7.121,10.587 6.971,10.438 6.929 C 10.382 6.913,10.337 6.894,10.337 6.886 C 10.337 6.878,10.413 6.825,10.506 6.768 C 11.281 6.292,11.425 5.356,10.817 4.746 C 10.594 4.523,10.384 4.419,10.092 4.388 C 9.976 4.376,9.333 4.358,8.662 4.349 L 7.443 4.333 7.443 7.008 M9.292 5.180 C 9.548 5.205,9.662 5.251,9.771 5.375 C 9.868 5.485,9.904 5.604,9.902 5.801 C 9.899 6.074,9.774 6.263,9.521 6.378 C 9.433 6.418,9.355 6.428,9.071 6.436 L 8.727 6.445 8.727 5.801 L 8.727 5.157 8.896 5.157 C 8.989 5.158,9.167 5.168,9.292 5.180 M4.812 5.249 C 4.966 5.297,5.133 5.405,5.241 5.526 C 5.489 5.804,5.601 6.443,5.552 7.296 C 5.524 7.794,5.485 8.005,5.381 8.222 C 5.239 8.517,5.046 8.684,4.752 8.766 C 4.686 8.784,4.503 8.805,4.346 8.813 L 4.060 8.827 4.060 7.000 L 4.060 5.173 4.357 5.187 C 4.561 5.196,4.704 5.216,4.812 5.249 M9.383 7.465 C 9.693 7.489,9.790 7.527,9.921 7.671 C 10.048 7.812,10.088 7.942,10.076 8.176 C 10.067 8.344,10.055 8.391,9.996 8.485 C 9.856 8.712,9.637 8.792,9.094 8.813 L 8.727 8.827 8.727 8.135 L 8.727 7.443 8.919 7.444 C 9.025 7.444,9.234 7.454,9.383 7.465 " fill="#1A1C1F" stroke="none" fill-rule="evenodd"></path></svg>