<svg width="16" height="16" viewBox="0 0 16 16" fill="none" xmlns="http://www.w3.org/2000/svg"><path d="M4.413 3.359 L 2.280 3.373 2.093 3.478 C 1.753 3.669,1.517 3.942,1.404 4.273 C 1.348 4.439,1.348 4.457,1.339 7.644 C 1.334 9.434,1.342 11.037,1.356 11.277 C 1.379 11.672,1.387 11.718,1.463 11.880 C 1.560 12.088,1.895 12.438,2.087 12.530 C 2.346 12.656,2.229 12.653,8.013 12.653 C 14.146 12.653,13.725 12.667,14.020 12.463 C 14.225 12.322,14.450 12.066,14.544 11.867 C 14.625 11.695,14.626 11.687,14.644 11.120 C 14.672 10.235,14.669 4.850,14.640 4.552 C 14.620 4.350,14.596 4.250,14.532 4.117 C 14.419 3.881,14.188 3.641,13.930 3.493 L 13.721 3.373 12.080 3.356 C 10.232 3.337,7.565 3.338,4.413 3.359 M13.585 4.398 L 13.687 4.503 13.675 7.992 C 13.661 11.829,13.674 11.557,13.494 11.646 C 13.406 11.689,13.059 11.692,8.000 11.692 C 2.938 11.692,2.594 11.689,2.506 11.646 C 2.325 11.557,2.339 11.831,2.325 7.991 L 2.313 4.503 2.415 4.398 L 2.517 4.293 8.000 4.293 L 13.483 4.293 13.585 4.398 M3.173 8.017 L 3.173 11.074 4.447 11.058 C 5.157 11.049,5.807 11.029,5.917 11.013 C 6.150 10.977,6.422 10.884,6.680 10.751 C 6.947 10.613,7.309 10.246,7.458 9.960 C 7.683 9.529,7.793 9.079,7.843 8.379 C 7.938 7.043,7.611 5.977,6.939 5.435 C 6.752 5.284,6.439 5.114,6.240 5.054 C 6.071 5.002,5.073 4.963,3.887 4.961 L 3.173 4.960 3.173 8.017 M8.507 8.012 L 8.507 11.073 9.833 11.059 C 11.287 11.045,11.491 11.028,11.910 10.883 C 12.033 10.841,12.201 10.766,12.283 10.716 C 12.489 10.592,12.763 10.296,12.857 10.094 C 13.060 9.660,13.062 9.091,12.862 8.675 C 12.714 8.367,12.294 8.027,11.927 7.918 C 11.864 7.900,11.813 7.877,11.813 7.868 C 11.813 7.859,11.894 7.804,11.993 7.747 C 12.304 7.566,12.575 7.253,12.696 6.936 C 12.900 6.401,12.776 5.838,12.362 5.424 C 12.119 5.181,11.867 5.052,11.560 5.015 C 11.442 5.001,10.707 4.981,9.926 4.971 L 8.507 4.952 8.507 8.012 M10.630 5.918 C 11.105 5.964,11.320 6.182,11.317 6.613 C 11.315 6.917,11.175 7.146,10.908 7.283 C 10.803 7.337,10.741 7.346,10.381 7.356 L 9.973 7.366 9.973 6.630 L 9.973 5.893 10.180 5.894 C 10.294 5.894,10.496 5.905,10.630 5.918 M5.499 5.999 C 5.675 6.054,5.866 6.177,5.990 6.316 C 6.274 6.634,6.405 7.374,6.348 8.330 C 6.333 8.583,6.303 8.884,6.281 8.997 C 6.227 9.279,6.079 9.578,5.910 9.746 C 5.683 9.972,5.464 10.048,4.967 10.072 L 4.640 10.088 4.640 8.000 L 4.640 5.912 4.980 5.928 C 5.213 5.938,5.376 5.961,5.499 5.999 M10.724 8.532 C 11.077 8.559,11.189 8.602,11.338 8.767 C 11.484 8.928,11.529 9.076,11.515 9.344 C 11.505 9.536,11.491 9.589,11.424 9.698 C 11.264 9.957,11.014 10.048,10.393 10.072 L 9.973 10.088 9.973 9.297 L 9.973 8.507 10.193 8.507 C 10.314 8.508,10.553 8.519,10.724 8.532 " fill="#1A1C1F" stroke="none" fill-rule="evenodd"></path></svg>