<svg width="12" height="12" viewBox="0 0 12 12" fill="none" xmlns="http://www.w3.org/2000/svg"><path d="M3.380 2.519 L 1.710 2.530 1.570 2.609 C 1.315 2.752,1.138 2.957,1.053 3.205 C 1.011 3.329,1.011 3.345,1.004 5.715 C 1.001 7.028,1.006 8.253,1.017 8.439 C 1.034 8.756,1.039 8.786,1.097 8.910 C 1.170 9.066,1.421 9.328,1.565 9.398 C 1.760 9.492,1.672 9.490,6.010 9.490 C 10.612 9.490,10.293 9.500,10.516 9.347 C 10.668 9.242,10.835 9.051,10.907 8.900 L 10.969 8.770 10.985 8.240 C 10.994 7.949,10.998 6.725,10.995 5.520 C 10.989 3.345,10.989 3.329,10.947 3.205 C 10.862 2.956,10.685 2.752,10.430 2.609 L 10.290 2.530 8.870 2.517 C 7.293 2.503,5.874 2.504,3.380 2.519 M10.189 3.299 L 10.266 3.378 10.256 5.995 C 10.245 8.869,10.255 8.669,10.120 8.734 C 10.054 8.767,9.791 8.769,6.000 8.769 C 2.209 8.769,1.946 8.767,1.880 8.734 C 1.745 8.668,1.755 8.870,1.744 5.994 L 1.734 3.378 1.811 3.299 L 1.888 3.220 6.000 3.220 L 10.112 3.220 10.189 3.299 M2.380 6.013 L 2.380 8.306 3.335 8.294 C 4.340 8.281,4.496 8.269,4.728 8.186 C 5.000 8.089,5.138 8.003,5.330 7.811 C 5.529 7.611,5.635 7.436,5.730 7.151 C 5.890 6.675,5.939 5.940,5.850 5.352 C 5.767 4.804,5.532 4.339,5.205 4.076 C 5.064 3.963,4.830 3.835,4.680 3.790 C 4.555 3.752,3.794 3.723,2.895 3.721 L 2.380 3.720 2.380 6.013 M6.380 6.010 L 6.380 8.306 7.385 8.294 C 7.938 8.287,8.457 8.272,8.540 8.261 C 8.995 8.199,9.380 7.985,9.579 7.686 C 9.777 7.387,9.813 6.851,9.656 6.526 C 9.534 6.275,9.230 6.023,8.945 5.939 C 8.898 5.925,8.860 5.908,8.860 5.902 C 8.860 5.895,8.926 5.850,9.005 5.801 C 9.325 5.606,9.535 5.302,9.584 4.966 C 9.648 4.524,9.394 4.055,8.980 3.853 C 8.774 3.753,8.670 3.745,7.425 3.728 L 6.380 3.714 6.380 6.010 M7.972 4.439 C 8.179 4.459,8.282 4.502,8.375 4.607 C 8.458 4.702,8.489 4.804,8.488 4.972 C 8.485 5.207,8.378 5.369,8.161 5.467 C 8.086 5.501,8.019 5.510,7.775 5.516 L 7.480 5.524 7.480 4.972 L 7.480 4.420 7.635 4.421 C 7.720 4.421,7.872 4.429,7.972 4.439 M4.124 4.499 C 4.257 4.541,4.400 4.633,4.492 4.737 C 4.706 4.976,4.803 5.528,4.760 6.255 C 4.734 6.685,4.701 6.862,4.612 7.047 C 4.490 7.300,4.325 7.443,4.073 7.513 C 4.016 7.529,3.860 7.547,3.725 7.554 L 3.480 7.566 3.480 6.000 L 3.480 4.434 3.735 4.446 C 3.910 4.454,4.032 4.471,4.124 4.499 M8.271 6.431 C 8.435 6.487,8.514 6.553,8.583 6.692 C 8.641 6.811,8.644 6.830,8.636 6.996 C 8.629 7.143,8.619 7.188,8.573 7.266 C 8.457 7.465,8.258 7.539,7.795 7.555 L 7.480 7.566 7.480 6.970 L 7.480 6.374 7.828 6.386 C 8.067 6.395,8.205 6.409,8.271 6.431 " fill="#1A1C1F" stroke="none" fill-rule="evenodd"></path></svg>