<svg width="28" height="28" viewBox="0 0 28 28" fill="none" xmlns="http://www.w3.org/2000/svg"><path d="M7.770 5.879 L 3.990 5.903 3.663 6.087 C 3.068 6.422,2.655 6.899,2.458 7.478 C 2.359 7.768,2.359 7.803,2.344 13.407 C 2.335 16.624,2.348 19.354,2.373 19.765 C 2.413 20.417,2.430 20.513,2.557 20.785 C 2.725 21.144,3.323 21.769,3.650 21.927 C 4.106 22.148,3.896 22.143,14.023 22.143 C 24.755 22.143,24.018 22.167,24.535 21.811 C 24.895 21.563,25.288 21.116,25.452 20.768 C 25.593 20.467,25.595 20.452,25.627 19.460 C 25.676 17.912,25.670 8.487,25.620 7.965 C 25.585 7.612,25.542 7.438,25.431 7.205 C 25.233 6.791,24.828 6.371,24.377 6.113 L 24.011 5.903 20.954 5.874 C 17.528 5.841,13.379 5.842,7.770 5.879 M23.774 7.697 L 23.954 7.881 23.930 13.988 C 23.903 20.692,23.926 20.227,23.614 20.380 C 23.460 20.456,22.852 20.461,14.000 20.461 C 5.148 20.461,4.540 20.456,4.386 20.380 C 4.071 20.226,4.095 20.697,4.070 13.986 L 4.047 7.881 4.226 7.697 L 4.406 7.513 14.000 7.513 L 23.594 7.513 23.774 7.697 M5.553 14.030 L 5.553 19.380 7.782 19.352 C 10.127 19.323,10.490 19.295,11.031 19.102 C 11.666 18.875,11.990 18.673,12.438 18.225 C 12.781 17.881,12.900 17.723,13.078 17.372 C 13.475 16.589,13.686 15.655,13.745 14.420 C 13.851 12.195,13.273 10.422,12.143 9.512 C 11.816 9.247,11.269 8.949,10.920 8.844 C 10.626 8.755,8.865 8.686,6.778 8.682 L 5.553 8.680 5.553 14.030 M14.887 14.016 L 14.887 19.367 16.508 19.364 C 18.878 19.361,19.886 19.309,20.457 19.162 C 21.142 18.985,21.561 18.759,21.986 18.341 C 22.512 17.822,22.709 17.367,22.757 16.567 C 22.806 15.725,22.594 15.127,22.051 14.580 C 21.734 14.260,21.287 13.985,20.817 13.822 L 20.658 13.766 21.081 13.487 C 21.599 13.146,21.881 12.835,22.124 12.338 C 22.475 11.618,22.473 10.892,22.117 10.143 C 21.906 9.698,21.423 9.220,20.953 8.991 C 20.472 8.757,20.225 8.737,17.325 8.698 L 14.887 8.665 14.887 14.016 M19.037 10.433 C 19.623 10.608,19.929 11.191,19.788 11.869 C 19.718 12.210,19.469 12.529,19.130 12.716 C 18.886 12.850,18.851 12.855,18.165 12.872 L 17.453 12.890 17.453 11.595 L 17.453 10.299 18.126 10.331 C 18.496 10.348,18.906 10.395,19.037 10.433 M9.623 10.498 C 9.932 10.595,10.266 10.810,10.482 11.052 C 10.979 11.609,11.209 12.904,11.110 14.577 C 11.050 15.577,10.969 16.012,10.761 16.443 C 10.477 17.034,10.092 17.368,9.504 17.531 C 9.371 17.568,9.006 17.610,8.692 17.626 L 8.120 17.654 8.120 14.000 L 8.120 10.346 8.715 10.373 C 9.122 10.392,9.409 10.431,9.623 10.498 M18.791 14.931 C 19.386 14.981,19.585 15.058,19.842 15.343 C 20.096 15.625,20.176 15.884,20.151 16.353 C 20.134 16.688,20.109 16.781,19.992 16.971 C 19.712 17.425,19.274 17.584,18.188 17.626 L 17.453 17.654 17.453 16.270 L 17.453 14.887 17.862 14.887 C 18.086 14.888,18.505 14.908,18.791 14.931 " fill="#1A1C1F" stroke="none" fill-rule="evenodd"></path></svg>