<svg width="20" height="20" viewBox="0 0 20 20" fill="none" xmlns="http://www.w3.org/2000/svg"><path d="M5.717 4.199 L 2.850 4.217 2.617 4.348 C 2.185 4.590,1.887 4.939,1.746 5.367 C 1.689 5.539,1.685 5.796,1.674 9.527 C 1.668 11.715,1.677 13.758,1.694 14.067 C 1.723 14.590,1.732 14.645,1.826 14.845 C 1.947 15.103,2.373 15.549,2.607 15.662 C 2.933 15.820,2.783 15.817,10.017 15.817 C 17.682 15.817,17.156 15.833,17.525 15.579 C 17.782 15.402,18.063 15.083,18.180 14.834 C 18.280 14.620,18.283 14.605,18.305 13.933 C 18.340 12.865,18.336 6.059,18.300 5.689 C 18.275 5.435,18.245 5.313,18.162 5.139 C 18.020 4.842,17.668 4.491,17.352 4.332 L 17.120 4.217 14.818 4.196 C 12.248 4.172,9.952 4.173,5.717 4.199 M16.982 5.498 L 17.110 5.630 17.092 9.992 C 17.078 13.585,17.066 14.368,17.029 14.428 C 17.004 14.467,16.931 14.526,16.867 14.557 C 16.757 14.611,16.323 14.615,10.000 14.615 C 3.494 14.615,3.245 14.613,3.124 14.553 C 3.054 14.519,2.981 14.460,2.961 14.423 C 2.935 14.374,2.919 13.074,2.907 9.992 L 2.890 5.629 3.019 5.498 L 3.147 5.367 10.000 5.367 L 16.853 5.367 16.982 5.498 M3.967 10.022 L 3.967 13.843 5.558 13.823 C 6.446 13.812,7.259 13.787,7.396 13.766 C 7.688 13.722,8.028 13.605,8.350 13.439 C 8.684 13.267,9.136 12.807,9.323 12.450 C 9.604 11.912,9.740 11.351,9.805 10.473 C 9.906 9.094,9.635 7.907,9.054 7.181 C 8.744 6.794,8.248 6.452,7.800 6.317 C 7.588 6.253,6.342 6.204,4.858 6.202 L 3.967 6.200 3.967 10.022 M10.633 10.012 L 10.633 13.833 11.808 13.832 C 13.492 13.830,14.201 13.793,14.612 13.687 C 15.101 13.561,15.401 13.400,15.704 13.101 C 16.080 12.730,16.221 12.405,16.255 11.833 C 16.290 11.230,16.138 10.800,15.753 10.414 C 15.525 10.186,15.208 9.992,14.867 9.871 L 14.750 9.830 14.930 9.723 C 15.564 9.347,15.928 8.811,15.988 8.165 C 16.014 7.886,15.937 7.519,15.792 7.226 C 15.645 6.930,15.289 6.583,14.967 6.424 C 14.624 6.254,14.458 6.241,12.375 6.213 L 10.633 6.190 10.633 10.012 M13.275 7.400 C 13.641 7.436,13.803 7.502,13.958 7.679 C 14.097 7.836,14.149 8.006,14.146 8.287 C 14.142 8.678,13.963 8.948,13.602 9.112 C 13.476 9.169,13.364 9.183,12.958 9.194 L 12.467 9.207 12.467 8.287 L 12.467 7.367 12.708 7.368 C 12.841 7.368,13.096 7.383,13.275 7.400 M6.874 7.499 C 7.094 7.568,7.333 7.721,7.487 7.895 C 7.842 8.292,8.007 9.217,7.935 10.412 C 7.917 10.729,7.879 11.104,7.852 11.247 C 7.784 11.599,7.599 11.972,7.387 12.183 C 7.103 12.465,6.830 12.559,6.208 12.590 L 5.800 12.610 5.800 10.000 L 5.800 7.390 6.225 7.409 C 6.516 7.423,6.721 7.451,6.874 7.499 M13.788 10.720 C 14.050 10.808,14.190 10.927,14.305 11.157 C 14.402 11.352,14.407 11.382,14.394 11.660 C 14.382 11.905,14.365 11.981,14.289 12.110 C 14.095 12.441,13.763 12.564,12.992 12.591 L 12.467 12.609 12.467 11.616 L 12.467 10.623 13.046 10.644 C 13.448 10.658,13.675 10.682,13.788 10.720 " fill="#1A1C1F" stroke="none" fill-rule="evenodd"></path></svg>