<svg width="24" height="24" viewBox="0 0 24 24" fill="none" xmlns="http://www.w3.org/2000/svg"><path d="M6.600 5.039 L 3.420 5.060 3.140 5.217 C 2.621 5.508,2.264 5.926,2.095 6.440 C 2.027 6.646,2.022 6.955,2.009 11.433 C 2.002 14.058,2.013 16.509,2.033 16.881 C 2.068 17.508,2.079 17.574,2.191 17.814 C 2.336 18.123,2.848 18.658,3.129 18.795 C 3.520 18.984,3.340 18.980,12.020 18.980 C 21.223 18.980,20.587 19.000,21.032 18.693 C 21.337 18.484,21.670 18.102,21.814 17.800 L 21.937 17.540 21.970 16.500 C 22.022 14.829,21.986 6.738,21.925 6.520 C 21.775 5.979,21.399 5.520,20.860 5.217 L 20.580 5.060 18.020 5.034 C 15.151 5.006,11.331 5.007,6.600 5.039 M20.378 6.598 L 20.532 6.755 20.511 11.989 C 20.489 17.738,20.509 17.337,20.240 17.469 C 20.109 17.534,19.589 17.538,12.000 17.538 C 4.407 17.538,3.891 17.534,3.760 17.469 C 3.490 17.336,3.510 17.740,3.488 11.988 L 3.469 6.755 3.622 6.598 L 3.776 6.440 12.000 6.440 L 20.224 6.440 20.378 6.598 M4.760 12.026 L 4.760 16.612 6.670 16.588 C 8.680 16.562,8.992 16.538,9.455 16.373 C 9.999 16.179,10.277 16.006,10.661 15.621 C 10.955 15.327,11.057 15.192,11.210 14.890 C 11.550 14.219,11.731 13.419,11.781 12.360 C 11.873 10.453,11.376 8.933,10.409 8.153 C 10.127 7.926,9.659 7.671,9.360 7.580 C 9.106 7.504,7.610 7.445,5.830 7.442 L 4.760 7.440 4.760 12.026 M12.760 12.014 L 12.760 16.600 14.390 16.600 C 16.277 16.599,17.000 16.558,17.542 16.421 C 18.135 16.270,18.486 16.082,18.844 15.724 C 19.345 15.224,19.499 14.826,19.496 14.040 C 19.494 13.476,19.422 13.195,19.184 12.825 C 18.933 12.431,18.394 12.039,17.843 11.847 L 17.707 11.800 18.069 11.561 C 18.597 11.213,18.869 10.879,19.067 10.333 C 19.342 9.575,19.142 8.735,18.544 8.136 C 18.161 7.754,17.800 7.576,17.300 7.522 C 17.102 7.501,16.000 7.471,14.850 7.455 L 12.760 7.428 12.760 12.014 M15.929 8.880 C 16.369 8.923,16.563 9.002,16.750 9.214 C 16.916 9.403,16.979 9.608,16.975 9.940 C 16.969 10.395,16.770 10.715,16.362 10.925 C 16.204 11.006,16.112 11.019,15.572 11.033 L 14.960 11.050 14.960 9.945 L 14.960 8.840 15.250 8.841 C 15.410 8.842,15.715 8.859,15.929 8.880 M8.248 8.999 C 8.513 9.081,8.799 9.266,8.985 9.473 C 9.410 9.950,9.608 11.061,9.523 12.494 C 9.471 13.352,9.402 13.724,9.224 14.094 C 8.980 14.601,8.650 14.887,8.146 15.027 C 8.033 15.058,7.720 15.095,7.450 15.108 L 6.960 15.132 6.960 12.000 L 6.960 8.868 7.470 8.891 C 7.819 8.907,8.065 8.941,8.248 8.999 M16.086 12.798 C 16.616 12.839,16.783 12.903,17.007 13.151 C 17.225 13.393,17.293 13.615,17.272 14.017 C 17.257 14.304,17.237 14.384,17.136 14.546 C 16.896 14.936,16.521 15.072,15.590 15.108 L 14.960 15.132 14.960 13.946 L 14.960 12.760 15.290 12.761 C 15.472 12.761,15.830 12.778,16.086 12.798 " fill="#1A1C1F" stroke="none" fill-rule="evenodd"></path></svg>