<svg width="32" height="32" viewBox="0 0 32 32" fill="none" xmlns="http://www.w3.org/2000/svg"><path d="M8.800 6.718 L 4.560 6.747 4.187 6.957 C 3.507 7.339,3.034 7.884,2.809 8.547 C 2.696 8.878,2.695 8.914,2.678 15.288 C 2.669 18.868,2.684 22.075,2.712 22.553 C 2.757 23.338,2.775 23.438,2.922 23.753 C 3.115 24.164,3.797 24.878,4.172 25.060 C 4.693 25.312,4.453 25.307,16.027 25.307 C 28.291 25.307,27.449 25.333,28.040 24.927 C 28.451 24.644,28.900 24.132,29.088 23.734 C 29.249 23.393,29.252 23.368,29.287 22.293 C 29.344 20.584,29.337 9.694,29.280 9.103 C 29.240 8.699,29.191 8.501,29.064 8.235 C 28.838 7.761,28.375 7.281,27.860 6.986 L 27.441 6.747 24.027 6.713 C 20.202 6.674,15.108 6.676,8.800 6.718 M27.170 8.797 L 27.376 9.007 27.348 15.987 C 27.317 23.647,27.344 23.117,26.987 23.292 C 26.812 23.378,26.118 23.384,16.000 23.384 C 5.876 23.384,5.188 23.379,5.013 23.292 C 4.654 23.116,4.681 23.651,4.651 15.985 L 4.625 9.007 4.830 8.797 L 5.035 8.587 16.000 8.587 L 26.965 8.587 27.170 8.797 M6.347 16.034 L 6.347 22.149 8.893 22.117 C 11.573 22.083,11.989 22.051,12.607 21.830 C 13.332 21.572,13.702 21.341,14.215 20.828 C 14.607 20.436,14.743 20.255,14.946 19.854 C 15.405 18.950,15.644 17.879,15.708 16.453 C 15.822 13.902,15.169 11.911,13.878 10.870 C 13.503 10.568,12.879 10.228,12.480 10.107 C 12.144 10.006,10.131 9.927,7.747 9.923 L 6.347 9.920 6.347 16.034 M17.013 16.018 L 17.013 22.133 18.840 22.132 C 21.324 22.130,22.787 22.062,23.333 21.923 C 24.037 21.744,24.710 21.380,25.152 20.938 C 25.731 20.361,25.946 19.842,26.007 18.880 C 26.063 17.978,25.818 17.290,25.227 16.689 C 24.864 16.320,24.277 15.955,23.859 15.838 C 23.731 15.802,23.627 15.757,23.627 15.737 C 23.627 15.718,23.789 15.608,23.987 15.493 C 24.607 15.133,25.150 14.506,25.392 13.872 C 25.800 12.801,25.552 11.677,24.724 10.849 C 24.215 10.339,23.734 10.101,23.067 10.029 C 22.803 10.001,21.333 9.961,19.800 9.941 L 17.013 9.903 17.013 16.018 M21.239 11.840 C 21.825 11.897,22.084 12.003,22.333 12.286 C 22.554 12.538,22.639 12.810,22.633 13.253 C 22.625 13.860,22.360 14.286,21.815 14.567 C 21.605 14.675,21.483 14.692,20.762 14.711 L 19.947 14.733 19.947 13.260 L 19.947 11.787 20.333 11.788 C 20.546 11.789,20.954 11.812,21.239 11.840 M10.998 11.998 C 11.351 12.108,11.733 12.354,11.980 12.631 C 12.547 13.267,12.811 14.747,12.697 16.659 C 12.629 17.802,12.536 18.299,12.299 18.792 C 11.974 19.468,11.533 19.849,10.861 20.035 C 10.710 20.077,10.293 20.126,9.933 20.144 L 9.280 20.176 9.280 16.000 L 9.280 11.824 9.960 11.855 C 10.426 11.877,10.753 11.922,10.998 11.998 M21.448 17.064 C 22.302 17.130,22.635 17.321,22.934 17.916 C 23.036 18.122,23.049 18.216,23.030 18.644 C 23.012 19.076,22.990 19.167,22.850 19.393 C 22.516 19.932,22.066 20.096,20.787 20.144 L 19.947 20.176 19.947 18.595 L 19.947 17.013 20.387 17.015 C 20.629 17.015,21.106 17.038,21.448 17.064 " fill="#1A1C1F" stroke="none" fill-rule="evenodd"></path></svg>