<svg width="12" height="12" viewBox="0 0 12 12" fill="none" xmlns="http://www.w3.org/2000/svg"><path d="M5.292 1.262 C 4.602 1.371,3.912 1.636,3.363 2.002 C 3.052 2.209,2.892 2.339,2.633 2.595 C 2.223 3.002,1.951 3.378,1.699 3.890 C 1.228 4.848,1.091 5.898,1.301 6.947 C 1.450 7.691,1.794 8.424,2.270 9.010 C 3.327 10.313,4.999 10.978,6.650 10.750 C 7.677 10.608,8.583 10.163,9.337 9.431 C 9.763 9.017,10.042 8.635,10.289 8.130 C 10.477 7.746,10.557 7.528,10.657 7.128 C 10.774 6.660,10.785 6.542,10.775 5.894 C 10.766 5.383,10.760 5.308,10.714 5.100 C 10.458 3.950,9.916 3.032,9.080 2.332 C 8.343 1.715,7.420 1.325,6.500 1.241 C 6.138 1.208,5.569 1.218,5.292 1.262 M6.457 2.442 C 6.930 2.495,7.459 2.684,7.915 2.963 C 8.723 3.457,9.305 4.304,9.524 5.302 C 9.564 5.487,9.569 5.565,9.569 6.000 C 9.569 6.435,9.564 6.513,9.523 6.700 C 9.355 7.475,8.960 8.167,8.394 8.676 C 7.716 9.287,6.755 9.635,5.860 9.594 C 4.103 9.513,2.656 8.185,2.439 6.454 C 2.403 6.165,2.424 5.547,2.479 5.292 C 2.642 4.535,3.056 3.805,3.588 3.338 C 4.393 2.629,5.378 2.321,6.457 2.442 M5.490 3.639 C 5.329 3.662,5.147 3.726,4.930 3.836 C 4.780 3.912,4.717 3.960,4.549 4.128 C 4.243 4.435,4.161 4.640,4.161 5.100 C 4.161 5.292,4.169 5.353,4.209 5.467 C 4.311 5.755,4.504 5.982,4.792 6.156 C 4.952 6.251,5.144 6.322,5.980 6.590 C 6.581 6.783,6.760 6.934,6.760 7.247 C 6.760 7.372,6.718 7.458,6.607 7.560 C 6.498 7.661,6.386 7.710,6.165 7.754 C 6.019 7.783,5.968 7.784,5.808 7.764 C 5.466 7.721,5.067 7.565,4.809 7.375 C 4.661 7.266,4.396 7.008,4.283 6.863 L 4.200 6.756 4.200 7.238 L 4.200 7.719 4.300 7.798 C 4.554 7.999,4.883 8.165,5.254 8.278 C 5.552 8.370,5.679 8.385,6.074 8.376 C 6.396 8.368,6.446 8.362,6.600 8.312 C 7.189 8.120,7.635 7.685,7.802 7.140 C 7.888 6.862,7.857 6.491,7.727 6.223 C 7.659 6.082,7.450 5.862,7.287 5.760 C 7.101 5.642,6.925 5.577,6.344 5.411 C 5.485 5.165,5.353 5.102,5.250 4.891 C 5.150 4.688,5.183 4.458,5.333 4.316 C 5.473 4.183,5.728 4.136,6.073 4.179 C 6.530 4.237,6.927 4.430,7.367 4.808 C 7.464 4.892,7.551 4.960,7.562 4.960 C 7.572 4.960,7.580 4.803,7.580 4.590 L 7.580 4.221 7.465 4.130 C 7.255 3.963,6.789 3.758,6.420 3.670 C 6.267 3.633,5.670 3.614,5.490 3.639 " fill="#1A1C1F" stroke="none" fill-rule="evenodd"></path></svg>