<svg width="28" height="28" viewBox="0 0 28 28" fill="none" xmlns="http://www.w3.org/2000/svg"><path d="M12.502 5.647 C 11.143 5.804,9.794 6.449,8.879 7.379 C 8.310 7.957,8.119 8.219,7.918 8.700 C 7.564 9.545,7.537 9.686,7.537 10.640 C 7.537 11.788,7.657 12.324,8.064 12.997 C 8.289 13.369,8.996 14.095,9.386 14.354 C 10.084 14.818,11.091 15.213,13.020 15.778 C 14.343 16.166,14.885 16.354,15.394 16.601 C 15.905 16.850,16.337 17.225,16.546 17.602 C 16.672 17.830,16.683 17.887,16.683 18.317 C 16.683 18.859,16.642 18.963,16.270 19.357 C 15.979 19.664,15.548 19.925,15.050 20.096 C 14.705 20.214,14.622 20.224,13.953 20.222 C 13.109 20.221,12.720 20.164,12.017 19.940 C 10.465 19.445,9.044 18.451,7.973 17.113 L 7.607 16.655 7.607 18.334 L 7.607 20.012 7.828 20.208 C 8.156 20.497,8.818 20.921,9.426 21.231 C 10.963 22.014,12.496 22.414,13.977 22.418 C 15.667 22.422,17.138 21.929,18.353 20.951 C 19.750 19.827,20.487 18.372,20.487 16.737 C 20.487 15.822,20.325 15.160,19.943 14.508 C 19.721 14.128,19.138 13.528,18.723 13.250 C 17.930 12.720,17.155 12.429,15.143 11.905 C 14.450 11.724,13.715 11.526,13.510 11.463 C 12.219 11.071,11.630 10.687,11.304 10.024 C 11.166 9.744,11.153 9.681,11.153 9.266 C 11.153 8.871,11.169 8.782,11.278 8.559 C 11.571 7.961,12.182 7.611,13.067 7.535 C 13.574 7.492,14.600 7.586,15.113 7.724 C 16.479 8.090,17.915 8.937,19.095 10.072 C 19.292 10.261,19.476 10.402,19.503 10.385 C 19.537 10.365,19.553 9.921,19.553 9.028 L 19.553 7.702 18.990 7.325 C 17.692 6.455,16.437 5.946,15.027 5.717 C 14.495 5.631,12.997 5.589,12.502 5.647 " fill="#1A1C1F" stroke="none" fill-rule="evenodd"></path></svg>