<svg width="20" height="20" viewBox="0 0 20 20" fill="none" xmlns="http://www.w3.org/2000/svg"><path d="M9.317 4.389 C 8.619 4.473,8.037 4.636,7.555 4.882 C 6.615 5.362,5.942 6.161,5.731 7.052 C 5.668 7.315,5.680 8.338,5.749 8.600 C 5.885 9.117,6.125 9.524,6.508 9.887 C 7.102 10.451,7.429 10.595,9.667 11.284 C 10.561 11.559,10.922 11.701,11.208 11.890 C 11.612 12.156,11.768 12.409,11.792 12.836 C 11.807 13.093,11.800 13.143,11.730 13.284 C 11.552 13.639,11.111 13.954,10.600 14.090 C 10.296 14.171,9.551 14.169,9.167 14.087 C 8.020 13.840,7.009 13.239,6.179 12.311 C 6.035 12.149,5.884 11.975,5.845 11.925 C 5.806 11.875,5.765 11.833,5.754 11.833 C 5.742 11.833,5.733 12.327,5.733 12.929 L 5.733 14.025 5.875 14.141 C 6.573 14.713,7.731 15.248,8.770 15.480 C 9.644 15.675,10.425 15.671,11.217 15.467 C 12.896 15.034,14.187 13.661,14.304 12.183 C 14.383 11.191,14.180 10.503,13.641 9.930 C 13.256 9.521,12.757 9.217,12.110 8.997 C 11.949 8.943,11.329 8.764,10.733 8.600 C 9.059 8.140,8.815 8.044,8.482 7.717 C 8.181 7.420,8.117 7.265,8.117 6.833 C 8.117 6.508,8.124 6.471,8.215 6.306 C 8.348 6.065,8.627 5.858,8.949 5.761 C 9.273 5.663,10.047 5.674,10.574 5.785 C 11.414 5.962,12.371 6.460,13.088 7.096 C 13.722 7.657,13.662 7.613,13.683 7.527 C 13.694 7.485,13.698 7.076,13.693 6.618 L 13.683 5.787 13.300 5.528 C 12.578 5.042,11.740 4.687,10.950 4.534 C 10.329 4.414,9.625 4.351,9.317 4.389 " fill="#1A1C1F" stroke="none" fill-rule="evenodd"></path></svg>