<svg width="16" height="16" viewBox="0 0 16 16" fill="none" xmlns="http://www.w3.org/2000/svg"><path d="M7.107 3.559 C 5.904 3.778,5.003 4.451,4.667 5.381 C 4.521 5.785,4.498 6.485,4.617 6.932 C 4.779 7.544,5.236 8.063,5.904 8.395 C 6.223 8.554,6.509 8.655,7.387 8.920 C 8.239 9.177,8.554 9.288,8.808 9.419 C 9.236 9.641,9.414 9.887,9.435 10.281 C 9.445 10.473,9.438 10.517,9.383 10.628 C 9.243 10.909,8.923 11.142,8.519 11.258 C 8.240 11.338,7.677 11.343,7.333 11.270 C 6.790 11.153,6.181 10.885,5.733 10.567 C 5.466 10.377,4.874 9.807,4.721 9.593 C 4.672 9.524,4.621 9.467,4.609 9.467 C 4.597 9.467,4.587 9.861,4.587 10.343 L 4.587 11.220 4.700 11.313 C 4.923 11.496,5.364 11.765,5.712 11.933 C 6.593 12.355,7.569 12.560,8.336 12.484 C 9.267 12.392,10.001 12.053,10.617 11.430 C 11.252 10.788,11.528 10.035,11.445 9.169 C 11.397 8.659,11.235 8.290,10.907 7.939 C 10.697 7.714,10.491 7.564,10.173 7.405 C 9.836 7.237,9.508 7.128,8.592 6.882 C 7.669 6.634,7.363 6.538,7.126 6.421 C 6.901 6.311,6.670 6.084,6.561 5.868 C 6.478 5.704,6.475 5.686,6.485 5.442 C 6.494 5.222,6.506 5.167,6.573 5.045 C 6.692 4.828,6.941 4.660,7.253 4.586 C 7.454 4.539,7.985 4.546,8.307 4.601 C 9.043 4.725,9.847 5.124,10.464 5.671 C 10.937 6.089,10.933 6.086,10.947 6.048 C 10.955 6.029,10.958 5.701,10.954 5.321 L 10.947 4.629 10.653 4.432 C 9.936 3.951,9.139 3.653,8.294 3.548 C 7.992 3.511,7.338 3.517,7.107 3.559 " fill="#1A1C1F" stroke="none" fill-rule="evenodd"></path></svg>