<svg width="16" height="16" viewBox="0 0 16 16" fill="none" xmlns="http://www.w3.org/2000/svg"><path d="M7.133 1.669 C 5.676 1.892,4.447 2.511,3.448 3.524 C 3.106 3.871,2.923 4.095,2.678 4.467 C 2.196 5.199,1.862 6.027,1.694 6.907 C 1.580 7.506,1.592 8.601,1.719 9.210 C 1.927 10.201,2.312 11.065,2.890 11.840 C 3.125 12.154,3.667 12.714,3.986 12.973 C 4.759 13.599,5.727 14.052,6.787 14.284 C 7.128 14.359,7.146 14.360,8.000 14.360 C 8.851 14.360,8.873 14.359,9.208 14.285 C 9.831 14.148,10.521 13.900,11.013 13.636 C 12.535 12.818,13.659 11.423,14.147 9.747 C 14.325 9.136,14.352 8.945,14.366 8.181 C 14.384 7.248,14.345 6.909,14.144 6.245 C 13.891 5.413,13.512 4.669,13.019 4.040 C 12.798 3.759,12.154 3.130,11.863 2.913 C 10.884 2.181,9.812 1.764,8.627 1.654 C 8.222 1.616,7.423 1.624,7.133 1.669 M8.296 3.227 C 8.495 3.241,8.783 3.277,8.936 3.308 C 9.951 3.509,10.984 4.108,11.619 4.863 C 12.158 5.505,12.532 6.277,12.696 7.083 C 12.769 7.445,12.796 8.234,12.747 8.599 C 12.620 9.557,12.208 10.462,11.564 11.203 C 10.831 12.045,9.655 12.642,8.474 12.772 C 7.470 12.882,6.372 12.627,5.486 12.077 C 4.373 11.387,3.583 10.252,3.306 8.947 C 3.233 8.601,3.204 7.779,3.252 7.396 C 3.423 6.032,4.177 4.809,5.320 4.040 C 6.006 3.579,6.805 3.294,7.592 3.229 C 7.736 3.217,7.871 3.206,7.893 3.204 C 7.915 3.202,8.096 3.212,8.296 3.227 M7.319 4.853 C 7.100 4.884,6.859 4.968,6.573 5.114 C 6.374 5.215,6.287 5.282,6.065 5.505 C 5.659 5.910,5.547 6.190,5.548 6.800 C 5.548 7.056,5.558 7.137,5.612 7.289 C 5.748 7.673,6.005 7.977,6.390 8.208 C 6.603 8.335,6.844 8.424,7.973 8.788 C 8.805 9.056,9.045 9.271,9.005 9.714 C 8.989 9.895,8.921 9.999,8.727 10.141 C 8.458 10.339,8.057 10.410,7.629 10.335 C 6.894 10.208,6.252 9.821,5.759 9.208 L 5.600 9.010 5.600 9.651 L 5.600 10.292 5.733 10.397 C 6.072 10.665,6.511 10.886,7.005 11.038 C 7.403 11.160,7.572 11.180,8.099 11.167 C 8.529 11.157,8.594 11.149,8.800 11.082 C 9.226 10.942,9.527 10.760,9.824 10.463 C 10.272 10.016,10.455 9.602,10.455 9.040 C 10.454 8.533,10.346 8.264,10.001 7.919 C 9.658 7.576,9.441 7.483,8.136 7.121 C 7.328 6.897,7.132 6.793,6.997 6.516 C 6.940 6.400,6.924 6.329,6.925 6.203 C 6.930 5.706,7.352 5.479,8.097 5.572 C 8.706 5.649,9.237 5.906,9.823 6.410 C 9.953 6.522,10.070 6.613,10.083 6.613 C 10.096 6.613,10.107 6.392,10.107 6.122 L 10.107 5.630 9.989 5.534 C 9.708 5.304,9.143 5.044,8.641 4.915 C 8.433 4.862,8.305 4.848,7.933 4.840 C 7.684 4.834,7.408 4.840,7.319 4.853 " fill="#1A1C1F" stroke="none" fill-rule="evenodd"></path></svg>