<svg width="24" height="24" viewBox="0 0 24 24" fill="none" xmlns="http://www.w3.org/2000/svg"><path d="M11.216 2.043 C 9.591 2.168,7.868 2.767,6.469 3.693 C 5.395 4.403,4.291 5.513,3.631 6.543 C 2.828 7.797,2.322 9.143,2.093 10.640 C 1.994 11.287,1.995 12.716,2.095 13.380 C 2.255 14.433,2.593 15.520,3.034 16.398 C 3.590 17.504,4.019 18.099,4.900 18.983 C 6.161 20.249,7.289 20.956,8.889 21.485 C 10.049 21.868,11.312 22.039,12.540 21.980 C 14.395 21.889,16.365 21.182,17.908 20.053 C 18.570 19.569,19.650 18.477,20.116 17.820 C 21.040 16.520,21.673 14.945,21.908 13.362 C 22.003 12.722,22.001 11.321,21.905 10.660 C 21.683 9.139,21.155 7.742,20.340 6.520 C 19.901 5.863,19.651 5.554,19.114 5.009 C 18.282 4.164,17.451 3.565,16.380 3.039 C 15.091 2.405,13.984 2.128,12.388 2.040 C 12.009 2.019,11.682 2.004,11.660 2.006 C 11.638 2.009,11.438 2.025,11.216 2.043 M13.586 4.176 C 15.686 4.620,17.515 5.859,18.657 7.610 C 19.116 8.315,19.607 9.451,19.780 10.211 C 19.958 10.989,20.019 12.196,19.921 12.980 C 19.700 14.745,18.892 16.387,17.619 17.659 C 16.289 18.990,14.449 19.838,12.622 19.963 C 11.121 20.067,9.919 19.836,8.535 19.179 C 6.900 18.404,5.633 17.135,4.818 15.460 C 3.528 12.806,3.826 9.636,5.589 7.258 C 6.892 5.501,8.620 4.470,10.888 4.098 C 11.124 4.060,11.492 4.048,12.160 4.059 C 12.980 4.072,13.162 4.087,13.586 4.176 M10.623 6.623 C 10.046 6.752,9.367 7.080,8.889 7.461 C 8.468 7.797,8.099 8.340,7.888 8.933 C 7.796 9.194,7.786 9.276,7.787 9.840 C 7.789 10.402,7.799 10.491,7.896 10.789 C 8.089 11.382,8.489 11.877,9.094 12.271 C 9.495 12.532,9.855 12.685,10.660 12.939 C 12.382 13.482,12.643 13.570,12.919 13.702 C 13.499 13.980,13.718 14.265,13.752 14.785 C 13.768 15.045,13.759 15.094,13.666 15.254 C 13.443 15.633,13.021 15.903,12.472 16.016 C 12.110 16.091,11.879 16.096,11.457 16.037 C 10.247 15.869,9.011 15.153,8.143 14.118 L 7.839 13.756 7.849 14.867 L 7.860 15.979 8.180 16.211 C 8.609 16.522,9.508 16.966,10.099 17.158 C 10.906 17.420,11.162 17.460,12.020 17.460 C 12.726 17.459,12.808 17.452,13.180 17.349 C 14.475 16.991,15.557 16.103,15.984 15.046 C 16.176 14.570,16.219 14.331,16.217 13.760 C 16.215 13.286,16.202 13.181,16.108 12.900 C 15.955 12.440,15.746 12.114,15.388 11.776 C 14.872 11.291,14.379 11.082,12.600 10.600 C 11.118 10.198,10.699 10.014,10.398 9.633 C 10.207 9.391,10.143 9.204,10.146 8.900 C 10.148 8.605,10.225 8.418,10.438 8.187 C 10.744 7.855,11.267 7.727,12.005 7.802 C 13.211 7.926,14.360 8.504,15.410 9.514 L 15.600 9.697 15.600 8.788 L 15.600 7.879 15.230 7.635 C 14.577 7.205,13.797 6.859,13.070 6.676 C 12.618 6.561,11.050 6.528,10.623 6.623 " fill="#1A1C1F" stroke="none" fill-rule="evenodd"></path></svg>