<svg width="14" height="14" viewBox="0 0 14 14" fill="none" xmlns="http://www.w3.org/2000/svg"><path d="M6.417 1.439 C 5.992 1.503,5.847 1.531,5.588 1.597 C 4.652 1.837,3.817 2.308,3.107 2.998 C 2.609 3.482,2.291 3.916,1.995 4.515 C 1.783 4.945,1.679 5.225,1.563 5.680 C 1.437 6.176,1.417 6.394,1.430 7.144 C 1.439 7.718,1.446 7.809,1.500 8.051 C 1.763 9.241,2.252 10.158,3.050 10.954 C 3.847 11.749,4.776 12.242,5.985 12.512 C 6.200 12.560,6.278 12.564,6.988 12.564 C 7.707 12.565,7.775 12.561,8.003 12.511 C 9.188 12.252,10.092 11.781,10.882 11.014 C 11.226 10.679,11.407 10.464,11.653 10.096 C 12.071 9.470,12.362 8.758,12.506 8.011 C 12.598 7.535,12.610 6.630,12.530 6.125 C 12.394 5.256,11.945 4.234,11.394 3.540 C 11.194 3.288,10.774 2.865,10.523 2.663 C 9.676 1.979,8.640 1.550,7.597 1.448 C 7.360 1.425,6.548 1.419,6.417 1.439 M7.828 2.893 C 8.750 3.090,9.609 3.591,10.169 4.258 C 10.764 4.966,11.124 5.845,11.172 6.708 C 11.238 7.856,10.901 8.869,10.162 9.750 C 9.327 10.746,7.889 11.318,6.585 11.175 C 4.743 10.973,3.284 9.647,2.890 7.817 C 2.843 7.600,2.837 7.505,2.837 7.000 C 2.836 6.491,2.842 6.401,2.889 6.183 C 3.017 5.593,3.203 5.154,3.535 4.655 C 4.156 3.722,5.148 3.080,6.300 2.869 C 6.647 2.806,7.482 2.818,7.828 2.893 M6.404 4.246 C 6.215 4.273,6.011 4.344,5.755 4.472 C 5.574 4.562,5.506 4.614,5.307 4.815 C 4.950 5.175,4.854 5.414,4.854 5.950 C 4.854 6.174,4.864 6.245,4.911 6.378 C 5.030 6.716,5.254 6.979,5.597 7.185 C 5.759 7.282,5.923 7.345,6.554 7.551 C 7.364 7.815,7.624 7.928,7.756 8.074 C 7.871 8.202,7.912 8.382,7.872 8.584 C 7.833 8.782,7.497 9.006,7.164 9.056 C 6.783 9.113,6.275 8.993,5.815 8.736 C 5.552 8.588,5.186 8.255,4.951 7.948 L 4.900 7.880 4.900 8.443 L 4.900 9.006 5.029 9.107 C 5.343 9.354,5.828 9.585,6.263 9.695 C 7.117 9.912,7.940 9.749,8.493 9.255 C 8.782 8.997,8.981 8.701,9.092 8.365 C 9.204 8.025,9.173 7.585,9.013 7.257 C 8.934 7.094,8.625 6.783,8.430 6.671 C 8.262 6.574,7.892 6.447,7.257 6.269 C 6.435 6.038,6.254 5.950,6.126 5.715 C 6.070 5.611,6.057 5.561,6.058 5.437 C 6.059 4.995,6.446 4.787,7.102 4.875 C 7.619 4.944,8.092 5.176,8.595 5.609 C 8.709 5.707,8.811 5.787,8.823 5.787 C 8.834 5.787,8.843 5.593,8.843 5.355 L 8.843 4.924 8.709 4.818 C 8.464 4.624,7.920 4.385,7.490 4.281 C 7.311 4.239,6.615 4.216,6.404 4.246 " fill="#1A1C1F" stroke="none" fill-rule="evenodd"></path></svg>