<svg width="32" height="32" viewBox="0 0 32 32" fill="none" xmlns="http://www.w3.org/2000/svg"><path d="M14.373 2.132 C 13.084 2.237,11.448 2.702,10.045 3.360 C 7.553 4.530,5.348 6.535,3.943 8.909 C 3.117 10.306,2.513 11.979,2.181 13.799 C 2.037 14.588,1.980 16.600,2.078 17.449 C 2.371 19.997,3.342 22.444,4.862 24.462 C 5.380 25.151,6.504 26.305,7.200 26.864 C 9.330 28.572,11.975 29.667,14.596 29.926 C 15.372 30.003,17.352 29.955,18.095 29.842 C 19.954 29.558,22.114 28.728,23.659 27.703 C 24.797 26.949,26.392 25.465,27.137 24.469 C 28.619 22.486,29.582 20.090,29.897 17.600 C 30.005 16.746,29.976 14.831,29.842 13.947 C 29.578 12.214,28.928 10.379,28.059 8.915 C 26.008 5.460,22.489 2.994,18.568 2.263 C 17.927 2.144,17.665 2.125,16.373 2.108 C 15.567 2.097,14.667 2.107,14.373 2.132 M17.840 4.168 C 18.470 4.248,19.619 4.556,20.319 4.833 C 24.100 6.331,26.807 9.499,27.704 13.472 C 28.032 14.926,28.032 17.071,27.704 18.533 C 26.905 22.089,24.582 25.089,21.381 26.696 C 17.905 28.442,13.992 28.419,10.492 26.631 C 9.234 25.988,8.287 25.245,7.090 23.964 C 5.615 22.383,4.655 20.416,4.206 18.053 C 4.065 17.309,4.010 15.482,4.104 14.660 C 4.362 12.410,5.271 10.230,6.675 8.491 C 7.191 7.853,8.181 6.894,8.815 6.419 C 10.496 5.161,12.851 4.234,14.693 4.106 C 15.402 4.056,17.250 4.093,17.840 4.168 M14.960 8.035 C 13.742 8.176,12.691 8.543,11.828 9.128 C 11.221 9.540,10.616 10.240,10.267 10.933 C 9.570 12.319,9.745 14.362,10.651 15.413 C 11.545 16.451,12.219 16.816,14.533 17.519 C 16.375 18.078,16.841 18.239,17.330 18.484 C 17.926 18.783,18.195 19.020,18.396 19.423 C 18.897 20.425,18.269 21.417,16.894 21.793 C 16.421 21.922,15.613 21.944,15.040 21.844 C 13.274 21.536,11.672 20.595,10.453 19.151 C 10.204 18.855,9.982 18.613,9.960 18.613 C 9.938 18.613,9.920 19.309,9.920 20.159 L 9.920 21.705 10.309 22.015 C 11.304 22.805,12.903 23.512,14.397 23.823 C 15.311 24.013,16.600 24.023,17.429 23.847 C 18.735 23.570,19.744 23.032,20.619 22.149 C 21.622 21.136,22.135 19.958,22.139 18.656 C 22.144 17.482,21.918 16.775,21.312 16.065 C 20.933 15.622,20.499 15.280,19.948 14.994 C 19.303 14.659,18.752 14.467,17.387 14.101 C 15.092 13.486,14.471 13.268,14.007 12.915 C 13.317 12.391,13.077 11.358,13.493 10.702 C 13.830 10.171,14.392 9.917,15.313 9.879 C 17.204 9.802,19.182 10.674,20.893 12.339 L 21.227 12.664 21.227 11.322 L 21.227 9.981 20.628 9.602 C 19.152 8.668,17.826 8.209,16.160 8.057 C 15.562 8.002,15.286 7.997,14.960 8.035 " fill="#1A1C1F" stroke="none" fill-rule="evenodd"></path></svg>