<svg width="12" height="12" viewBox="0 0 12 12" fill="none" xmlns="http://www.w3.org/2000/svg"><path d="M5.270 2.680 C 4.220 2.892,3.494 3.578,3.418 4.429 C 3.362 5.053,3.494 5.501,3.842 5.869 C 4.184 6.229,4.466 6.366,5.540 6.690 C 6.435 6.960,6.679 7.062,6.870 7.250 C 7.019 7.395,7.063 7.492,7.075 7.702 C 7.084 7.856,7.080 7.886,7.038 7.970 C 6.932 8.182,6.693 8.357,6.389 8.443 C 6.180 8.503,5.758 8.508,5.500 8.452 C 4.812 8.304,4.205 7.944,3.708 7.387 C 3.621 7.289,3.531 7.185,3.507 7.155 C 3.483 7.125,3.459 7.100,3.452 7.100 C 3.445 7.100,3.440 7.396,3.440 7.758 L 3.440 8.415 3.525 8.485 C 3.671 8.605,4.001 8.812,4.219 8.921 C 4.889 9.255,5.677 9.424,6.270 9.361 C 6.892 9.295,7.395 9.086,7.806 8.724 C 8.271 8.313,8.533 7.837,8.583 7.308 C 8.674 6.366,8.235 5.732,7.260 5.397 C 7.167 5.365,6.798 5.258,6.440 5.160 C 5.429 4.883,5.239 4.807,5.053 4.599 C 4.900 4.429,4.870 4.345,4.870 4.090 C 4.870 3.874,4.871 3.867,4.937 3.765 C 5.111 3.494,5.434 3.389,5.983 3.424 C 6.665 3.467,7.336 3.786,7.989 4.378 C 8.141 4.515,8.193 4.552,8.205 4.531 C 8.214 4.515,8.218 4.270,8.215 3.987 L 8.210 3.472 7.990 3.325 C 7.292 2.859,6.563 2.637,5.744 2.642 C 5.545 2.643,5.392 2.655,5.270 2.680 " fill="#1A1C1F" stroke="none" fill-rule="evenodd"></path></svg>