<svg width="20" height="20" viewBox="0 0 20 20" fill="none" xmlns="http://www.w3.org/2000/svg"><path d="M8.849 2.100 C 7.984 2.231,7.266 2.457,6.491 2.841 C 5.121 3.520,3.987 4.540,3.199 5.800 C 2.978 6.154,2.644 6.845,2.483 7.281 C 2.324 7.713,2.115 8.537,2.070 8.917 C 2.024 9.296,2.022 10.694,2.067 11.068 C 2.151 11.764,2.476 12.793,2.850 13.550 C 3.795 15.461,5.367 16.840,7.414 17.553 C 8.426 17.906,9.321 18.023,10.542 17.965 C 12.069 17.891,13.734 17.244,15.000 16.232 C 15.328 15.970,16.005 15.288,16.274 14.950 C 16.569 14.577,16.877 14.084,17.127 13.583 C 17.420 12.996,17.562 12.631,17.712 12.083 C 17.940 11.252,17.950 11.162,17.949 9.983 C 17.949 8.947,17.946 8.905,17.857 8.491 C 17.698 7.749,17.357 6.814,17.009 6.167 C 16.830 5.833,16.529 5.377,16.273 5.050 C 15.988 4.686,15.186 3.908,14.800 3.620 C 13.624 2.745,12.219 2.195,10.833 2.069 C 10.242 2.015,9.316 2.029,8.849 2.100 M10.761 4.071 C 12.108 4.222,13.593 4.998,14.467 6.009 C 15.156 6.806,15.643 7.785,15.873 8.837 C 15.940 9.144,15.948 9.275,15.948 10.000 C 15.948 10.725,15.940 10.856,15.872 11.167 C 15.645 12.211,15.140 13.222,14.460 13.992 C 13.219 15.395,11.244 16.166,9.407 15.964 C 7.093 15.710,5.202 14.239,4.387 12.059 C 4.138 11.393,4.031 10.763,4.031 9.968 C 4.031 8.975,4.210 8.219,4.659 7.317 C 5.257 6.116,6.204 5.190,7.434 4.605 C 8.497 4.099,9.532 3.933,10.761 4.071 M9.150 6.066 C 8.887 6.103,8.585 6.209,8.217 6.392 C 7.962 6.518,7.866 6.592,7.581 6.879 C 7.071 7.392,6.934 7.735,6.935 8.500 C 6.935 8.820,6.948 8.921,7.015 9.112 C 7.185 9.591,7.506 9.971,7.988 10.260 C 8.254 10.420,8.610 10.549,10.067 11.017 C 10.610 11.192,10.875 11.320,11.046 11.490 C 11.202 11.647,11.267 11.793,11.267 11.993 C 11.267 12.258,11.234 12.357,11.092 12.518 C 10.777 12.876,10.116 13.043,9.507 12.920 C 9.152 12.848,8.717 12.694,8.394 12.528 C 7.987 12.317,7.434 11.825,7.074 11.354 L 7.000 11.258 7.000 12.061 L 7.000 12.865 7.167 12.997 C 7.600 13.339,8.134 13.605,8.830 13.825 L 9.217 13.947 9.967 13.948 C 10.705 13.950,10.721 13.949,11.000 13.855 C 11.977 13.527,12.695 12.839,12.988 11.950 C 13.148 11.465,13.104 10.840,12.877 10.367 C 12.766 10.135,12.326 9.694,12.044 9.530 C 11.803 9.391,11.276 9.211,10.367 8.956 C 9.176 8.621,8.916 8.492,8.749 8.152 C 8.583 7.813,8.639 7.430,8.889 7.193 C 9.122 6.972,9.547 6.893,10.121 6.965 C 10.883 7.061,11.546 7.383,12.279 8.013 C 12.441 8.152,12.587 8.267,12.604 8.267 C 12.620 8.267,12.633 7.989,12.633 7.650 L 12.633 7.034 12.442 6.883 C 12.091 6.606,11.314 6.264,10.700 6.116 C 10.445 6.055,9.450 6.023,9.150 6.066 " fill="#1A1C1F" stroke="none" fill-rule="evenodd"></path></svg>