<svg width="28" height="28" viewBox="0 0 28 28" fill="none" xmlns="http://www.w3.org/2000/svg"><path d="M12.577 1.865 C 11.458 1.956,9.996 2.370,8.802 2.933 C 6.597 3.973,4.682 5.714,3.445 7.803 C 2.725 9.021,2.200 10.480,1.909 12.074 C 1.782 12.764,1.733 14.525,1.818 15.268 C 2.028 17.090,2.693 19.011,3.630 20.501 C 4.523 21.922,5.834 23.262,7.255 24.207 C 8.203 24.837,9.492 25.432,10.622 25.762 C 12.085 26.188,13.371 26.306,15.141 26.179 C 17.166 26.033,19.572 25.122,21.209 23.881 C 22.167 23.154,23.155 22.188,23.760 21.387 C 25.031 19.701,25.885 17.570,26.160 15.400 C 26.255 14.653,26.229 12.978,26.112 12.203 C 26.010 11.534,25.738 10.476,25.494 9.800 C 24.054 5.806,20.458 2.765,16.247 1.980 C 15.686 1.876,15.457 1.859,14.327 1.844 C 13.621 1.835,12.833 1.844,12.577 1.865 M15.688 3.659 C 16.711 3.820,17.581 4.098,18.550 4.573 C 19.903 5.236,21.145 6.206,22.086 7.335 C 23.313 8.805,24.226 10.967,24.407 12.827 C 24.463 13.404,24.463 14.596,24.407 15.173 C 24.242 16.875,23.474 18.814,22.381 20.289 C 21.966 20.849,21.073 21.769,20.510 22.213 C 19.106 23.324,17.495 24.030,15.602 24.366 C 15.108 24.454,14.832 24.473,14.023 24.474 C 12.920 24.476,12.430 24.415,11.401 24.148 C 7.438 23.119,4.475 19.955,3.705 15.928 C 3.555 15.144,3.499 13.626,3.591 12.828 C 3.817 10.859,4.613 8.951,5.841 7.430 C 6.283 6.882,7.154 6.036,7.688 5.635 C 9.072 4.597,10.925 3.834,12.647 3.594 C 13.101 3.531,15.154 3.574,15.688 3.659 M13.090 7.030 C 12.024 7.154,11.104 7.475,10.349 7.987 C 9.819 8.348,9.289 8.960,8.984 9.567 C 8.395 10.737,8.523 12.516,9.261 13.416 C 9.536 13.753,9.981 14.158,10.325 14.386 C 10.740 14.661,11.539 14.974,12.787 15.351 C 14.754 15.945,15.242 16.139,15.710 16.510 C 16.048 16.779,16.240 17.171,16.239 17.589 C 16.237 18.281,15.787 18.749,14.839 19.047 C 14.537 19.142,14.402 19.156,13.837 19.151 C 13.089 19.145,12.625 19.046,11.807 18.718 C 10.747 18.293,9.725 17.515,8.979 16.566 C 8.858 16.413,8.741 16.287,8.719 16.287 C 8.697 16.287,8.684 16.900,8.691 17.650 L 8.703 19.013 8.983 19.240 C 9.823 19.921,11.293 20.574,12.597 20.845 C 13.400 21.012,14.524 21.020,15.257 20.865 C 16.107 20.684,16.797 20.379,17.446 19.894 C 18.389 19.189,19.068 18.185,19.297 17.154 C 19.412 16.638,19.376 15.561,19.228 15.097 C 18.966 14.272,18.350 13.586,17.455 13.120 C 16.890 12.826,16.408 12.658,15.213 12.338 C 13.268 11.817,12.776 11.649,12.329 11.352 C 11.686 10.925,11.428 9.978,11.793 9.387 C 12.091 8.906,12.584 8.677,13.399 8.644 C 15.054 8.577,16.784 9.340,18.282 10.797 L 18.573 11.081 18.573 9.908 L 18.573 8.736 18.142 8.460 C 16.824 7.616,15.731 7.221,14.302 7.071 C 13.659 7.003,13.399 6.994,13.090 7.030 " fill="#1A1C1F" stroke="none" fill-rule="evenodd"></path></svg>