<svg width="14" height="14" viewBox="0 0 14 14" fill="none" xmlns="http://www.w3.org/2000/svg"><path d="M6.148 3.127 C 5.152 3.329,4.405 3.891,4.099 4.668 C 4.000 4.919,3.984 5.030,3.984 5.460 C 3.983 5.810,3.990 5.895,4.034 6.053 C 4.188 6.608,4.595 7.070,5.184 7.357 C 5.449 7.486,5.718 7.580,6.463 7.805 C 7.508 8.120,7.792 8.240,8.015 8.458 C 8.189 8.628,8.241 8.741,8.255 8.986 C 8.265 9.165,8.260 9.200,8.211 9.299 C 8.087 9.546,7.808 9.749,7.454 9.851 C 7.210 9.921,6.717 9.925,6.417 9.861 C 5.788 9.726,5.196 9.427,4.711 9.000 C 4.514 8.827,4.174 8.466,4.095 8.345 C 4.073 8.311,4.045 8.283,4.034 8.283 C 4.022 8.283,4.013 8.621,4.013 9.051 L 4.013 9.818 4.112 9.899 C 4.307 10.059,4.693 10.295,4.998 10.441 C 5.768 10.811,6.623 10.990,7.294 10.923 C 8.169 10.837,8.859 10.494,9.412 9.872 C 9.689 9.560,9.870 9.220,9.970 8.820 C 10.041 8.538,10.039 7.982,9.967 7.712 C 9.821 7.166,9.473 6.764,8.901 6.479 C 8.602 6.331,8.370 6.254,7.513 6.020 C 6.640 5.781,6.438 5.718,6.234 5.618 C 6.041 5.523,5.836 5.323,5.743 5.140 C 5.678 5.010,5.670 4.973,5.670 4.790 C 5.671 4.544,5.728 4.397,5.880 4.249 C 6.073 4.062,6.318 3.988,6.743 3.988 C 7.660 3.989,8.473 4.342,9.322 5.106 C 9.450 5.222,9.563 5.309,9.573 5.299 C 9.583 5.290,9.588 5.005,9.585 4.666 L 9.578 4.051 9.322 3.878 C 8.694 3.457,7.997 3.196,7.257 3.104 C 6.946 3.066,6.393 3.077,6.148 3.127 " fill="#1A1C1F" stroke="none" fill-rule="evenodd"></path></svg>