<svg width="14" height="14" viewBox="0 0 14 14" fill="none" xmlns="http://www.w3.org/2000/svg"><path d="M3.507 5.688 C 3.515 7.498,3.530 8.646,3.545 8.764 C 3.591 9.122,3.825 9.702,4.039 9.990 C 4.192 10.197,4.454 10.448,4.656 10.583 C 5.350 11.045,6.319 11.256,7.401 11.180 C 7.865 11.148,8.155 11.094,8.536 10.969 C 9.492 10.655,10.060 10.091,10.358 9.162 C 10.397 9.038,10.442 8.850,10.456 8.744 C 10.474 8.614,10.486 7.625,10.493 5.676 L 10.504 2.800 9.456 2.800 L 8.407 2.800 8.390 5.291 C 8.372 8.038,8.361 8.392,8.287 8.583 C 8.219 8.761,8.062 8.991,7.924 9.116 C 7.715 9.305,7.315 9.450,7.000 9.450 C 6.689 9.450,6.292 9.309,6.085 9.125 C 5.935 8.992,5.751 8.710,5.692 8.521 C 5.644 8.371,5.642 8.301,5.622 6.743 C 5.611 5.851,5.602 4.599,5.601 3.961 L 5.600 2.800 4.547 2.800 L 3.494 2.800 3.507 5.688 " fill="#1A1C1F" stroke="none" fill-rule="evenodd"></path></svg>