<svg width="28" height="28" viewBox="0 0 28 28" fill="none" xmlns="http://www.w3.org/2000/svg"><path d="M7.420 1.818 C 4.927 1.854,4.992 1.847,4.360 2.127 C 3.921 2.321,3.454 2.649,3.076 3.028 C 2.480 3.627,2.157 4.189,1.866 5.128 L 1.716 5.612 1.740 13.995 C 1.762 21.613,1.772 22.408,1.843 22.724 C 2.216 24.381,3.279 25.526,4.970 26.093 L 5.437 26.250 13.720 26.247 C 19.778 26.245,22.125 26.229,22.455 26.189 C 24.138 25.984,25.501 24.801,26.094 23.030 L 26.250 22.563 26.262 16.800 C 26.268 13.630,26.255 9.745,26.232 8.167 C 26.185 4.909,26.205 5.077,25.782 4.223 C 25.368 3.389,24.814 2.807,23.963 2.316 C 23.471 2.032,23.145 1.923,22.622 1.865 C 22.087 1.806,10.677 1.771,7.420 1.818 M22.651 3.638 C 23.102 3.793,23.370 3.969,23.730 4.346 C 24.196 4.834,24.344 5.136,24.419 5.751 C 24.463 6.119,24.474 8.124,24.466 14.373 L 24.454 22.517 24.243 22.954 C 23.939 23.583,23.561 23.953,22.894 24.271 L 22.401 24.507 14.106 24.485 C 8.864 24.472,5.714 24.446,5.549 24.417 C 5.119 24.340,4.775 24.141,4.358 23.730 C 4.053 23.429,3.940 23.276,3.775 22.940 L 3.570 22.524 3.558 14.005 L 3.546 5.486 3.710 5.141 C 4.141 4.233,4.863 3.669,5.689 3.595 C 5.909 3.576,9.756 3.557,14.238 3.553 C 22.219 3.547,22.391 3.549,22.651 3.638 M8.030 10.185 C 8.032 11.937,8.051 14.178,8.071 15.167 C 8.113 17.152,8.127 17.259,8.458 18.039 C 8.768 18.772,9.197 19.326,9.809 19.788 C 10.564 20.357,11.493 20.722,12.670 20.914 C 13.222 21.003,14.882 20.989,15.470 20.890 C 16.814 20.663,17.828 20.188,18.590 19.429 C 19.324 18.698,19.685 17.965,19.884 16.800 C 19.919 16.597,19.944 14.918,19.958 11.748 L 19.981 7.000 18.204 7.000 L 16.427 7.000 16.424 10.512 C 16.423 12.443,16.405 14.563,16.384 15.223 L 16.345 16.423 16.182 16.766 C 15.999 17.153,15.549 17.670,15.237 17.852 C 14.847 18.081,14.522 18.166,14.023 18.171 C 13.461 18.176,13.073 18.062,12.630 17.761 C 12.296 17.533,11.912 17.052,11.756 16.665 C 11.655 16.416,11.648 16.321,11.616 14.700 C 11.598 13.763,11.581 11.647,11.578 9.998 L 11.573 7.000 9.800 7.000 L 8.027 7.000 8.030 10.185 " fill="#1A1C1F" stroke="none" fill-rule="evenodd"></path></svg>