<svg width="20" height="20" viewBox="0 0 20 20" fill="none" xmlns="http://www.w3.org/2000/svg"><path d="M4.783 2.068 C 4.203 2.092,4.087 2.121,3.650 2.343 C 3.345 2.497,3.131 2.653,2.872 2.908 C 2.519 3.256,2.324 3.589,2.103 4.213 L 2.000 4.505 2.000 10.000 L 2.000 15.495 2.104 15.789 C 2.306 16.361,2.517 16.721,2.863 17.078 C 3.216 17.443,3.618 17.687,4.211 17.896 L 4.505 18.000 10.000 18.000 L 15.495 18.000 15.789 17.896 C 16.383 17.687,16.801 17.431,17.152 17.062 C 17.488 16.709,17.699 16.349,17.896 15.789 L 18.000 15.495 18.000 10.000 L 18.000 4.505 17.896 4.211 C 17.511 3.119,16.881 2.482,15.835 2.129 L 15.554 2.033 10.435 2.039 C 7.620 2.042,5.077 2.055,4.783 2.068 M15.403 4.101 C 15.586 4.195,15.780 4.376,15.881 4.550 L 15.967 4.695 15.966 9.989 L 15.966 15.283 15.870 15.452 C 15.751 15.658,15.541 15.852,15.341 15.941 C 15.192 16.007,15.133 16.007,9.970 15.994 C 4.794 15.980,4.749 15.980,4.600 15.912 C 4.429 15.834,4.204 15.605,4.102 15.404 L 4.032 15.267 4.041 9.975 L 4.050 4.683 4.123 4.548 C 4.197 4.409,4.400 4.205,4.539 4.130 C 4.582 4.107,4.669 4.077,4.733 4.064 C 4.798 4.051,7.194 4.039,10.060 4.037 C 15.244 4.033,15.270 4.034,15.403 4.101 M6.676 8.825 C 6.689 11.256,6.698 11.682,6.744 11.876 C 6.813 12.170,7.057 12.683,7.239 12.918 C 7.831 13.678,9.055 14.088,10.395 13.973 C 10.998 13.921,11.462 13.804,11.896 13.595 C 12.195 13.451,12.283 13.388,12.533 13.139 C 12.850 12.823,13.035 12.538,13.184 12.133 C 13.270 11.901,13.278 11.832,13.302 11.167 C 13.317 10.773,13.329 9.449,13.331 8.225 L 13.333 6.000 12.337 6.000 L 11.341 6.000 11.324 8.525 C 11.313 10.134,11.293 11.133,11.269 11.280 C 11.222 11.575,11.100 11.795,10.865 12.013 C 10.627 12.233,10.403 12.311,10.001 12.312 C 9.601 12.313,9.376 12.236,9.135 12.013 C 8.900 11.795,8.778 11.575,8.731 11.280 C 8.707 11.133,8.687 10.134,8.676 8.525 L 8.659 6.000 7.660 6.000 L 6.661 6.000 6.676 8.825 " fill="#1A1C1F" stroke="none" fill-rule="evenodd"></path></svg>