<svg width="16" height="16" viewBox="0 0 16 16" fill="none" xmlns="http://www.w3.org/2000/svg"><path d="M3.787 1.652 C 3.450 1.667,3.347 1.681,3.233 1.728 C 2.602 1.989,2.154 2.374,1.899 2.872 C 1.826 3.016,1.728 3.239,1.683 3.369 L 1.600 3.604 1.600 8.000 L 1.600 12.396 1.683 12.631 C 1.994 13.513,2.487 14.006,3.369 14.317 L 3.604 14.400 8.000 14.400 L 12.396 14.400 12.631 14.317 C 13.106 14.149,13.441 13.945,13.722 13.650 C 13.991 13.367,14.159 13.079,14.317 12.631 L 14.400 12.396 14.400 8.000 L 14.400 3.604 14.317 3.369 C 14.149 2.888,13.943 2.554,13.644 2.274 C 13.353 2.002,13.067 1.833,12.680 1.704 L 12.493 1.642 8.347 1.638 C 6.066 1.636,4.014 1.643,3.787 1.652 M12.322 3.281 C 12.469 3.356,12.624 3.501,12.705 3.640 L 12.773 3.756 12.773 7.991 L 12.773 12.227 12.695 12.363 C 12.600 12.528,12.414 12.697,12.275 12.745 C 12.193 12.773,11.364 12.783,8.010 12.793 C 3.880 12.806,3.846 12.805,3.726 12.752 C 3.563 12.680,3.370 12.498,3.291 12.341 L 3.226 12.214 3.233 7.980 L 3.240 3.747 3.298 3.638 C 3.358 3.527,3.520 3.364,3.631 3.304 C 3.665 3.285,3.735 3.262,3.787 3.251 C 3.838 3.241,5.755 3.231,8.048 3.230 C 12.195 3.227,12.216 3.227,12.322 3.281 M5.341 7.060 C 5.355 9.620,5.345 9.499,5.571 9.959 C 5.717 10.256,5.837 10.413,6.070 10.613 C 6.352 10.854,6.848 11.065,7.333 11.149 C 7.592 11.194,8.407 11.194,8.667 11.149 C 8.959 11.099,9.398 10.949,9.622 10.825 C 9.990 10.620,10.324 10.243,10.492 9.844 C 10.650 9.468,10.644 9.569,10.659 7.087 L 10.674 4.800 9.873 4.800 L 9.073 4.800 9.059 6.820 C 9.045 8.913,9.035 9.108,8.930 9.313 C 8.850 9.469,8.630 9.693,8.491 9.758 C 8.221 9.885,7.757 9.881,7.499 9.749 C 7.350 9.672,7.146 9.469,7.070 9.320 C 6.965 9.117,6.955 8.915,6.941 6.820 L 6.927 4.800 6.128 4.800 L 5.328 4.800 5.341 7.060 " fill="#1A1C1F" stroke="none" fill-rule="evenodd"></path></svg>