<svg width="16" height="16" viewBox="0 0 16 16" fill="none" xmlns="http://www.w3.org/2000/svg"><path d="M4.008 6.487 C 4.018 8.588,4.034 9.853,4.052 9.995 C 4.108 10.430,4.365 11.081,4.612 11.413 C 4.791 11.654,5.089 11.940,5.321 12.095 C 6.114 12.623,7.221 12.864,8.458 12.778 C 9.155 12.729,9.698 12.598,10.232 12.347 C 11.123 11.930,11.702 11.187,11.906 10.200 C 11.983 9.832,11.998 9.138,11.999 6.127 L 12.000 3.200 10.800 3.200 L 9.600 3.200 9.599 4.593 C 9.598 5.360,9.587 6.791,9.574 7.773 C 9.548 9.751,9.554 9.687,9.366 10.027 C 9.242 10.251,8.988 10.505,8.784 10.608 C 8.513 10.745,8.342 10.782,7.987 10.781 C 7.713 10.781,7.638 10.771,7.471 10.712 C 7.052 10.566,6.781 10.326,6.584 9.927 C 6.475 9.707,6.471 9.692,6.451 9.345 C 6.440 9.150,6.422 7.687,6.412 6.095 L 6.392 3.200 5.193 3.200 L 3.993 3.200 4.008 6.487 " fill="#1A1C1F" stroke="none" fill-rule="evenodd"></path></svg>