<svg width="24" height="24" viewBox="0 0 24 24" fill="none" xmlns="http://www.w3.org/2000/svg"><path d="M5.660 2.081 C 4.950 2.113,4.835 2.141,4.282 2.419 C 3.567 2.778,3.103 3.178,2.698 3.783 C 2.445 4.161,2.322 4.426,2.136 4.992 L 2.000 5.405 2.000 12.000 L 2.000 18.595 2.137 19.014 C 2.404 19.829,2.733 20.374,3.265 20.880 C 3.794 21.384,4.237 21.630,5.064 21.880 L 5.460 21.999 12.000 21.999 L 18.540 21.999 18.926 21.883 C 19.785 21.624,20.337 21.303,20.854 20.761 C 21.350 20.242,21.640 19.737,21.876 18.982 L 22.000 18.583 22.000 11.994 L 22.000 5.405 21.861 4.980 C 21.606 4.200,21.332 3.728,20.845 3.227 C 20.375 2.743,19.822 2.410,19.083 2.165 L 18.706 2.040 12.483 2.047 C 9.060 2.050,5.990 2.065,5.660 2.081 M16.740 4.035 L 18.540 4.063 18.758 4.174 C 19.247 4.422,19.564 4.736,19.812 5.218 L 19.936 5.460 19.964 7.140 C 20.001 9.304,20.001 14.560,19.965 16.820 L 19.936 18.580 19.758 18.894 C 19.456 19.427,18.983 19.811,18.486 19.927 C 18.244 19.984,6.776 20.022,5.996 19.968 C 5.500 19.934,5.428 19.919,5.176 19.797 C 4.783 19.606,4.422 19.236,4.207 18.805 L 4.039 18.469 4.050 11.982 L 4.060 5.494 4.229 5.152 C 4.434 4.739,4.761 4.412,5.179 4.200 L 5.456 4.060 7.578 4.038 C 10.792 4.005,14.730 4.004,16.740 4.035 M6.841 9.430 C 6.842 12.805,6.874 14.226,6.962 14.700 C 7.030 15.068,7.296 15.708,7.528 16.061 C 7.773 16.434,8.164 16.838,8.501 17.067 C 9.515 17.755,11.081 18.091,12.677 17.964 C 14.420 17.825,15.736 17.169,16.461 16.078 C 16.852 15.490,17.061 14.794,17.121 13.880 C 17.141 13.561,17.159 11.658,17.159 9.650 L 17.160 6.000 15.646 6.000 L 14.133 6.000 14.110 9.980 L 14.086 13.961 13.925 14.295 C 13.670 14.821,13.164 15.227,12.599 15.357 C 12.327 15.420,11.612 15.409,11.341 15.339 C 10.812 15.201,10.320 14.798,10.066 14.293 L 9.922 14.005 9.894 10.003 L 9.867 6.000 8.353 6.000 L 6.840 6.000 6.841 9.430 " fill="#1A1C1F" stroke="none" fill-rule="evenodd"></path></svg>