<svg width="14" height="14" viewBox="0 0 14 14" fill="none" xmlns="http://www.w3.org/2000/svg"><path d="M3.208 1.446 C 2.776 1.479,2.331 1.703,1.992 2.058 C 1.751 2.309,1.600 2.573,1.455 2.997 L 1.400 3.158 1.400 7.002 L 1.400 10.846 1.473 11.052 C 1.745 11.824,2.176 12.255,2.948 12.527 L 3.154 12.600 7.000 12.600 L 10.846 12.600 11.052 12.527 C 11.468 12.381,11.761 12.202,12.006 11.943 C 12.242 11.696,12.375 11.469,12.521 11.066 L 12.600 10.848 12.600 7.008 L 12.600 3.169 12.531 2.962 C 12.305 2.287,11.890 1.819,11.293 1.565 C 10.976 1.429,11.259 1.438,7.175 1.433 C 5.109 1.431,3.324 1.437,3.208 1.446 M10.782 2.871 C 10.910 2.937,11.046 3.063,11.117 3.185 L 11.177 3.287 11.177 6.987 L 11.177 10.688 11.120 10.799 C 11.053 10.932,10.885 11.093,10.749 11.155 C 10.655 11.198,10.539 11.199,7.000 11.199 C 3.461 11.199,3.345 11.198,3.251 11.155 C 3.115 11.093,2.947 10.932,2.879 10.799 L 2.823 10.687 2.829 6.983 L 2.835 3.278 2.886 3.183 C 2.938 3.086,3.080 2.944,3.177 2.891 C 3.207 2.875,3.268 2.854,3.313 2.845 C 3.358 2.836,5.036 2.827,7.042 2.826 C 10.671 2.823,10.689 2.824,10.782 2.871 M4.673 6.178 C 4.685 8.418,4.677 8.311,4.875 8.714 C 5.003 8.974,5.108 9.111,5.312 9.286 C 5.555 9.495,5.941 9.662,6.369 9.746 C 6.649 9.800,7.355 9.800,7.638 9.744 C 7.897 9.694,8.235 9.574,8.437 9.461 C 8.743 9.290,9.036 8.956,9.180 8.613 C 9.318 8.285,9.313 8.372,9.327 6.201 L 9.340 4.200 8.639 4.200 L 7.939 4.200 7.927 5.968 C 7.914 7.799,7.906 7.969,7.814 8.148 C 7.744 8.285,7.567 8.466,7.438 8.531 C 7.218 8.642,6.833 8.651,6.591 8.550 C 6.471 8.500,6.260 8.294,6.192 8.162 C 6.162 8.101,6.125 7.980,6.111 7.893 C 6.095 7.793,6.081 7.085,6.073 5.968 L 6.061 4.200 5.362 4.200 L 4.662 4.200 4.673 6.178 " fill="#1A1C1F" stroke="none" fill-rule="evenodd"></path></svg>