<svg width="12" height="12" viewBox="0 0 12 12" fill="none" xmlns="http://www.w3.org/2000/svg"><path d="M3.006 4.865 C 3.013 6.441,3.025 7.390,3.039 7.496 C 3.081 7.823,3.274 8.311,3.459 8.560 C 3.593 8.740,3.817 8.955,3.991 9.071 C 4.586 9.467,5.416 9.648,6.344 9.584 C 7.637 9.494,8.486 8.954,8.829 8.000 C 8.990 7.552,8.999 7.369,9.000 4.575 L 9.000 2.400 8.100 2.400 L 7.200 2.400 7.199 3.445 C 7.198 4.020,7.190 5.093,7.180 5.830 C 7.161 7.313,7.166 7.265,7.025 7.520 C 6.936 7.680,6.743 7.878,6.608 7.946 C 6.391 8.056,6.267 8.085,6.010 8.086 C 5.838 8.086,5.736 8.077,5.651 8.052 C 5.328 7.957,5.093 7.758,4.941 7.452 C 4.854 7.276,4.853 7.273,4.838 6.993 C 4.830 6.837,4.816 5.740,4.808 4.555 L 4.794 2.400 3.894 2.400 L 2.995 2.400 3.006 4.865 " fill="#1A1C1F" stroke="none" fill-rule="evenodd"></path></svg>