<svg width="32" height="32" viewBox="0 0 32 32" fill="none" xmlns="http://www.w3.org/2000/svg"><path d="M8.533 2.077 C 5.625 2.119,5.707 2.110,4.983 2.430 C 4.481 2.653,3.947 3.028,3.516 3.461 C 2.834 4.146,2.465 4.787,2.132 5.861 L 1.960 6.415 1.989 15.994 C 2.014 24.694,2.025 25.610,2.106 25.970 C 2.546 27.926,3.812 29.241,5.858 29.869 L 6.410 30.038 15.858 30.010 C 22.302 29.992,25.448 29.964,25.751 29.924 C 26.252 29.858,27.054 29.576,27.509 29.307 C 28.251 28.870,28.981 28.109,29.383 27.355 C 29.503 27.129,29.697 26.653,29.814 26.297 L 30.027 25.650 30.021 18.572 C 30.018 14.679,29.997 10.269,29.975 8.773 C 29.929 5.679,29.944 5.795,29.465 4.827 C 28.992 3.873,28.359 3.209,27.387 2.647 C 26.824 2.323,26.451 2.197,25.853 2.132 C 25.241 2.065,12.314 2.024,8.533 2.077 M25.874 4.153 C 26.374 4.325,26.627 4.483,27.027 4.871 C 27.869 5.686,27.890 5.769,27.948 8.427 C 28.002 10.891,28.004 16.858,27.953 22.053 L 27.917 25.840 27.739 26.196 C 27.520 26.638,27.084 27.173,26.735 27.429 C 26.589 27.536,26.269 27.710,26.023 27.815 L 25.575 28.007 16.081 27.984 C 9.138 27.968,6.515 27.946,6.321 27.901 C 5.492 27.707,4.714 27.053,4.308 26.208 L 4.080 25.733 4.066 16.002 L 4.052 6.270 4.240 5.876 C 4.468 5.395,4.878 4.869,5.216 4.623 C 5.695 4.273,6.006 4.151,6.530 4.108 C 6.796 4.086,11.192 4.065,16.298 4.061 C 25.252 4.054,25.594 4.057,25.874 4.153 M9.177 12.387 C 9.179 14.799,9.201 17.361,9.225 18.080 C 9.275 19.556,9.359 19.990,9.754 20.821 C 10.399 22.176,11.664 23.179,13.326 23.653 C 14.206 23.904,14.714 23.964,15.973 23.965 C 17.437 23.966,18.116 23.865,19.173 23.487 C 20.898 22.870,22.143 21.576,22.557 19.970 C 22.780 19.104,22.783 19.009,22.810 13.427 L 22.835 8.000 20.811 8.000 L 18.787 8.000 18.755 13.160 C 18.737 16.006,18.700 18.460,18.672 18.631 C 18.600 19.071,18.375 19.486,17.977 19.909 C 17.597 20.313,17.347 20.479,16.876 20.642 C 15.541 21.101,14.160 20.496,13.515 19.171 L 13.273 18.673 13.241 13.337 L 13.210 8.000 11.192 8.000 L 9.173 8.000 9.177 12.387 " fill="#1A1C1F" stroke="none" fill-rule="evenodd"></path></svg>