<svg width="20" height="20" viewBox="0 0 20 20" fill="none" xmlns="http://www.w3.org/2000/svg"><path d="M5.010 8.125 C 5.022 10.721,5.042 12.350,5.064 12.520 C 5.104 12.824,5.312 13.460,5.481 13.795 C 5.838 14.499,6.426 15.062,7.179 15.419 C 8.141 15.875,9.287 16.061,10.572 15.972 C 11.458 15.910,12.135 15.744,12.821 15.419 C 13.601 15.049,14.217 14.444,14.553 13.717 C 14.722 13.352,14.891 12.821,14.936 12.517 C 14.964 12.328,14.980 11.045,14.990 8.125 L 15.006 4.000 13.503 4.000 L 12.000 4.000 11.998 5.642 C 11.997 6.545,11.983 8.333,11.967 9.617 C 11.935 12.200,11.943 12.108,11.708 12.533 C 11.561 12.800,11.238 13.129,11.013 13.244 C 10.646 13.429,10.447 13.475,10.000 13.476 C 9.638 13.476,9.551 13.465,9.339 13.390 C 8.815 13.207,8.477 12.908,8.229 12.409 C 8.091 12.129,8.089 12.119,8.064 11.654 C 8.050 11.395,8.028 9.567,8.014 7.592 L 7.990 4.000 6.491 4.000 L 4.992 4.000 5.010 8.125 " fill="#1A1C1F" stroke="none" fill-rule="evenodd"></path></svg>