<svg width="28" height="28" viewBox="0 0 28 28" fill="none" xmlns="http://www.w3.org/2000/svg"><path d="M6.770 9.438 C 6.772 11.601,6.791 14.326,6.812 15.493 C 6.849 17.564,6.853 17.627,6.967 18.037 C 7.341 19.367,7.879 20.213,8.854 21.001 C 10.462 22.301,13.469 22.825,16.193 22.279 C 17.916 21.934,19.256 21.163,20.117 20.023 C 20.585 19.402,21.037 18.285,21.139 17.495 C 21.172 17.244,21.200 15.015,21.219 11.305 L 21.248 5.507 19.125 5.507 L 17.002 5.507 16.968 10.722 C 16.949 13.590,16.918 16.158,16.899 16.429 C 16.868 16.889,16.851 16.950,16.641 17.382 C 16.453 17.768,16.353 17.907,16.034 18.226 C 15.343 18.917,14.633 19.151,13.568 19.041 C 12.942 18.977,12.476 18.740,11.968 18.228 C 11.568 17.825,11.366 17.495,11.177 16.941 L 11.066 16.616 11.033 11.061 L 10.999 5.507 8.883 5.507 L 6.767 5.507 6.770 9.438 " fill="#1A1C1F" stroke="none" fill-rule="evenodd"></path></svg>