<svg width="12" height="12" viewBox="0 0 12 12" fill="none" xmlns="http://www.w3.org/2000/svg"><path d="M2.820 1.240 C 2.591 1.251,2.508 1.263,2.425 1.297 C 1.957 1.488,1.616 1.780,1.424 2.154 C 1.369 2.262,1.296 2.429,1.262 2.527 L 1.200 2.703 1.200 6.000 L 1.200 9.297 1.262 9.473 C 1.501 10.150,1.874 10.515,2.569 10.753 L 2.707 10.800 6.002 10.800 L 9.297 10.800 9.473 10.738 C 9.830 10.612,10.081 10.458,10.291 10.237 C 10.493 10.025,10.619 9.809,10.738 9.473 L 10.800 9.297 10.800 6.000 L 10.800 2.703 10.738 2.527 C 10.613 2.174,10.451 1.912,10.226 1.698 C 10.026 1.508,9.793 1.373,9.493 1.273 L 9.335 1.220 6.223 1.223 C 4.511 1.225,2.979 1.233,2.820 1.240 M9.242 2.461 C 9.352 2.517,9.468 2.626,9.529 2.730 L 9.580 2.817 9.580 5.994 L 9.580 9.170 9.522 9.270 C 9.450 9.394,9.359 9.481,9.232 9.548 L 9.134 9.600 6.001 9.600 L 2.868 9.600 2.766 9.549 C 2.650 9.491,2.523 9.363,2.461 9.242 L 2.419 9.160 2.425 5.985 L 2.430 2.810 2.474 2.729 C 2.518 2.645,2.640 2.523,2.723 2.478 C 2.749 2.464,2.801 2.446,2.840 2.439 C 2.879 2.431,4.317 2.424,6.036 2.422 C 9.146 2.420,9.162 2.420,9.242 2.461 M4.006 5.295 C 4.016 7.215,4.009 7.124,4.178 7.471 C 4.347 7.817,4.537 8.004,4.890 8.172 C 5.529 8.476,6.490 8.470,7.139 8.156 C 7.323 8.068,7.371 8.033,7.531 7.873 C 7.690 7.714,7.727 7.663,7.817 7.480 C 7.993 7.121,7.982 7.253,7.995 5.315 L 8.005 3.600 7.405 3.600 L 6.805 3.600 6.794 5.115 C 6.783 6.683,6.775 6.832,6.698 6.984 C 6.638 7.102,6.472 7.270,6.367 7.319 C 6.175 7.410,5.817 7.409,5.634 7.318 C 5.519 7.261,5.367 7.110,5.308 6.996 C 5.282 6.944,5.250 6.840,5.238 6.766 C 5.224 6.680,5.212 6.067,5.206 5.115 L 5.195 3.600 4.596 3.600 L 3.996 3.600 4.006 5.295 " fill="#1A1C1F" stroke="none" fill-rule="evenodd"></path></svg>