<svg width="32" height="32" viewBox="0 0 32 32" fill="none" xmlns="http://www.w3.org/2000/svg"><path d="M15.523 2.143 C 15.393 2.211,15.242 2.328,15.188 2.402 C 15.046 2.598,14.989 3.273,14.988 4.780 L 14.987 6.066 14.513 6.153 C 13.735 6.296,13.130 6.492,12.453 6.823 C 10.420 7.819,9.009 9.674,8.370 12.193 C 8.090 13.296,8.058 13.695,8.000 16.751 C 7.925 20.706,7.885 21.083,7.442 22.000 C 7.119 22.669,6.767 23.100,6.041 23.712 C 5.234 24.393,5.182 24.446,5.090 24.665 C 4.887 25.151,5.153 25.728,5.680 25.949 C 5.739 25.973,7.178 26.007,8.878 26.023 L 11.970 26.053 12.035 26.442 C 12.209 27.482,12.513 28.087,13.225 28.810 C 13.656 29.247,13.803 29.359,14.187 29.542 C 14.865 29.865,15.222 29.944,16.000 29.944 C 16.778 29.944,17.135 29.865,17.813 29.542 C 18.197 29.359,18.344 29.247,18.775 28.810 C 19.487 28.087,19.791 27.482,19.965 26.442 L 20.030 26.053 23.122 26.027 L 26.213 26.000 26.463 25.853 C 26.835 25.635,26.960 25.429,26.959 25.040 C 26.958 24.821,26.926 24.666,26.856 24.549 C 26.799 24.455,26.456 24.135,26.093 23.837 C 25.319 23.203,24.902 22.706,24.562 22.012 C 24.114 21.098,24.075 20.742,24.001 16.793 C 23.972 15.278,23.922 13.802,23.890 13.513 C 23.776 12.486,23.319 10.980,22.851 10.092 C 21.720 7.945,19.875 6.590,17.487 6.153 L 17.013 6.066 17.013 4.780 C 17.013 3.438,16.959 2.711,16.842 2.465 C 16.757 2.285,16.383 2.095,16.027 2.052 C 15.810 2.026,15.715 2.043,15.523 2.143 M17.360 8.168 C 18.629 8.418,19.621 9.042,20.506 10.148 C 21.279 11.115,21.761 12.421,21.867 13.840 C 21.896 14.221,21.943 15.733,21.973 17.200 C 22.029 19.979,22.085 20.737,22.294 21.520 C 22.467 22.167,22.754 22.906,23.043 23.446 L 23.303 23.932 23.025 23.966 C 22.658 24.010,9.261 24.010,8.940 23.966 L 8.693 23.932 8.927 23.499 C 9.425 22.577,9.807 21.349,9.916 20.320 C 9.949 20.012,9.999 18.573,10.027 17.123 C 10.081 14.381,10.139 13.316,10.265 12.773 C 10.445 12.001,10.893 10.956,11.307 10.347 C 12.555 8.509,14.867 7.677,17.360 8.168 M17.954 26.273 C 17.870 26.888,17.360 27.551,16.758 27.828 C 16.321 28.029,15.679 28.029,15.242 27.828 C 14.641 27.551,14.127 26.886,14.046 26.280 L 14.012 26.027 16.000 26.027 L 17.988 26.027 17.954 26.273 " fill="#1A1C1F" stroke="none" fill-rule="evenodd"></path></svg>