<svg width="16" height="16" viewBox="0 0 16 16" fill="none" xmlns="http://www.w3.org/2000/svg"><path d="M6.947 1.719 C 6.371 1.855,5.774 2.126,5.358 2.438 C 5.042 2.676,4.578 3.164,4.365 3.483 C 3.932 4.134,3.594 5.094,3.521 5.880 C 3.506 6.041,3.481 6.965,3.466 7.933 C 3.451 8.901,3.428 9.879,3.415 10.107 C 3.380 10.733,3.313 10.864,2.813 11.287 C 2.471 11.577,2.427 11.654,2.427 11.957 C 2.427 12.232,2.479 12.366,2.657 12.549 C 2.866 12.764,2.764 12.753,4.667 12.768 L 6.360 12.780 6.405 13.006 C 6.525 13.618,6.951 14.115,7.526 14.310 C 7.909 14.441,8.376 14.403,8.753 14.210 C 8.914 14.128,9.342 13.682,9.422 13.515 C 9.502 13.345,9.600 12.987,9.600 12.862 L 9.600 12.773 11.341 12.773 L 13.083 12.773 13.240 12.646 C 13.432 12.492,13.536 12.331,13.577 12.126 C 13.603 11.995,13.600 11.946,13.559 11.793 C 13.507 11.601,13.483 11.573,12.945 11.065 C 12.707 10.840,12.620 10.681,12.585 10.403 C 12.571 10.284,12.547 9.278,12.534 8.167 C 12.520 7.056,12.496 6.015,12.480 5.853 C 12.438 5.439,12.362 5.085,12.221 4.654 C 11.723 3.129,10.640 2.114,9.093 1.726 C 8.890 1.675,8.780 1.669,8.040 1.662 C 7.248 1.655,7.202 1.658,6.947 1.719 M8.293 3.238 C 9.368 3.367,10.041 3.818,10.490 4.710 C 10.715 5.156,10.823 5.581,10.881 6.240 C 10.897 6.423,10.921 7.395,10.934 8.400 C 10.959 10.345,10.980 10.663,11.110 11.140 L 11.126 11.200 8.003 11.200 C 6.285 11.200,4.880 11.197,4.881 11.193 C 4.881 11.190,4.912 11.031,4.949 10.840 C 5.022 10.464,5.020 10.520,5.092 7.120 C 5.115 6.072,5.127 5.843,5.169 5.640 C 5.247 5.272,5.321 5.049,5.452 4.779 C 5.620 4.435,5.761 4.234,6.011 3.985 C 6.446 3.552,6.954 3.326,7.707 3.229 C 7.951 3.198,7.953 3.198,8.293 3.238 " fill="#1A1C1F" stroke="none" fill-rule="evenodd"></path></svg>