<svg width="12" height="12" viewBox="0 0 12 12" fill="none" xmlns="http://www.w3.org/2000/svg"><path d="M5.210 1.290 C 4.782 1.390,4.332 1.594,4.017 1.830 C 3.637 2.115,3.233 2.607,3.029 3.032 C 2.843 3.418,2.680 3.998,2.641 4.408 C 2.630 4.528,2.611 5.230,2.599 5.968 C 2.576 7.459,2.559 7.845,2.511 7.980 C 2.456 8.135,2.347 8.268,2.122 8.456 C 1.858 8.676,1.810 8.756,1.810 8.970 C 1.811 9.209,1.950 9.434,2.163 9.537 C 2.252 9.580,2.260 9.580,3.512 9.580 L 4.771 9.580 4.807 9.755 C 4.863 10.033,4.973 10.238,5.168 10.430 C 5.275 10.536,5.374 10.612,5.460 10.655 C 5.604 10.727,5.868 10.800,5.978 10.799 C 6.126 10.798,6.368 10.740,6.510 10.673 C 6.674 10.595,6.918 10.379,7.017 10.224 C 7.094 10.105,7.177 9.857,7.193 9.701 L 7.206 9.580 8.509 9.580 L 9.812 9.580 9.930 9.485 C 10.074 9.369,10.152 9.249,10.183 9.095 C 10.202 8.997,10.200 8.959,10.170 8.845 C 10.135 8.711,10.132 8.707,9.839 8.420 C 9.659 8.243,9.527 8.096,9.500 8.043 C 9.433 7.908,9.423 7.712,9.401 6.090 C 9.389 5.265,9.370 4.487,9.358 4.360 C 9.333 4.094,9.219 3.621,9.110 3.330 C 8.745 2.358,8.071 1.701,7.110 1.382 C 6.734 1.257,6.597 1.240,5.962 1.241 C 5.456 1.243,5.393 1.247,5.210 1.290 M6.392 2.450 C 6.849 2.528,7.188 2.695,7.477 2.983 C 7.714 3.218,7.900 3.532,8.019 3.897 C 8.156 4.317,8.173 4.541,8.200 6.280 C 8.221 7.664,8.235 7.938,8.301 8.217 C 8.322 8.308,8.340 8.387,8.340 8.392 C 8.340 8.396,7.286 8.400,5.998 8.400 L 3.655 8.400 3.668 8.355 C 3.701 8.238,3.763 7.766,3.780 7.503 C 3.791 7.342,3.800 6.805,3.800 6.310 C 3.801 5.255,3.825 4.568,3.871 4.278 C 3.979 3.603,4.344 3.022,4.858 2.712 C 5.047 2.598,5.341 2.493,5.580 2.452 C 5.809 2.414,6.175 2.413,6.392 2.450 " fill="#1A1C1F" stroke="none" fill-rule="evenodd"></path></svg>