<svg width="16" height="16" viewBox="0 0 16 16" fill="none" xmlns="http://www.w3.org/2000/svg"><path d="M6.947 1.719 C 6.371 1.855,5.774 2.126,5.358 2.438 C 5.042 2.676,4.578 3.164,4.365 3.483 C 3.932 4.134,3.594 5.094,3.521 5.880 C 3.506 6.041,3.481 6.965,3.466 7.933 C 3.451 8.901,3.428 9.879,3.415 10.107 C 3.380 10.733,3.313 10.864,2.813 11.287 C 2.471 11.577,2.427 11.654,2.427 11.957 C 2.427 12.232,2.479 12.366,2.657 12.549 C 2.866 12.764,2.764 12.753,4.667 12.768 L 6.360 12.780 6.405 13.006 C 6.525 13.618,6.951 14.115,7.526 14.310 C 7.909 14.441,8.376 14.403,8.753 14.210 C 8.914 14.128,9.342 13.682,9.422 13.515 C 9.502 13.345,9.600 12.987,9.600 12.862 L 9.600 12.773 11.341 12.773 L 13.083 12.773 13.240 12.646 C 13.432 12.492,13.536 12.331,13.577 12.126 C 13.603 11.995,13.600 11.946,13.559 11.793 C 13.507 11.601,13.483 11.573,12.945 11.065 C 12.707 10.840,12.620 10.681,12.585 10.403 C 12.571 10.284,12.547 9.278,12.534 8.167 C 12.520 7.056,12.496 6.015,12.480 5.853 C 12.438 5.439,12.362 5.085,12.221 4.654 C 11.723 3.129,10.640 2.114,9.093 1.726 C 8.890 1.675,8.780 1.669,8.040 1.662 C 7.248 1.655,7.202 1.658,6.947 1.719 " fill="#1A1C1F" stroke="none" fill-rule="evenodd"></path></svg>