<svg width="28" height="28" viewBox="0 0 28 28" fill="none" xmlns="http://www.w3.org/2000/svg"><path d="M14.360 1.806 C 14.202 1.831,13.920 2.103,13.831 2.315 C 13.782 2.434,13.767 2.757,13.766 3.697 C 13.766 5.026,13.747 5.253,13.636 5.296 C 13.596 5.311,13.373 5.365,13.140 5.417 C 11.793 5.713,10.824 6.224,9.921 7.114 C 8.851 8.168,8.216 9.398,7.860 11.107 C 7.699 11.879,7.660 12.543,7.633 14.957 C 7.599 17.972,7.541 18.632,7.229 19.569 C 6.980 20.318,6.829 20.514,5.118 22.296 C 4.446 22.996,3.860 23.636,3.815 23.719 C 3.706 23.918,3.712 24.146,3.831 24.393 C 3.951 24.640,4.154 24.802,4.439 24.878 C 4.850 24.988,4.681 25.141,9.800 20.061 C 14.675 15.223,19.899 9.993,22.599 7.247 C 23.955 5.868,24.176 5.624,24.222 5.452 C 24.377 4.876,23.968 4.390,23.326 4.388 L 23.062 4.387 21.459 5.967 L 19.857 7.547 19.483 7.200 C 18.409 6.202,17.335 5.648,15.972 5.388 L 15.540 5.306 15.537 4.181 C 15.535 2.955,15.497 2.426,15.395 2.217 C 15.255 1.925,14.783 1.738,14.360 1.806 M15.715 7.117 C 16.368 7.241,17.050 7.516,17.542 7.854 C 17.819 8.043,18.573 8.723,18.573 8.783 C 18.573 8.894,9.406 18.008,9.350 17.953 C 9.313 17.916,9.421 13.113,9.477 12.321 C 9.546 11.343,9.718 10.648,10.092 9.839 C 10.422 9.124,10.962 8.433,11.539 7.988 C 12.053 7.592,12.943 7.207,13.598 7.097 C 14.014 7.028,15.308 7.040,15.715 7.117 M20.573 11.748 L 19.844 12.483 19.882 15.003 C 19.919 17.453,19.950 17.989,20.093 18.620 C 20.242 19.276,20.567 20.125,20.864 20.634 C 20.965 20.806,21.047 20.958,21.047 20.973 C 21.047 20.988,18.855 21.000,16.177 21.000 L 11.307 21.000 10.481 21.841 C 10.027 22.303,9.668 22.702,9.684 22.727 C 9.700 22.754,10.006 22.773,10.426 22.773 L 11.140 22.773 11.170 23.094 C 11.275 24.230,12.018 25.309,13.064 25.847 C 13.677 26.162,13.845 26.200,14.630 26.200 C 15.272 26.200,15.362 26.190,15.710 26.071 C 16.231 25.894,16.605 25.656,17.039 25.226 C 17.679 24.592,17.900 24.175,18.077 23.275 L 18.175 22.773 20.849 22.773 C 23.405 22.773,23.532 22.769,23.701 22.683 C 24.059 22.500,24.306 22.088,24.247 21.772 C 24.201 21.530,23.989 21.279,23.470 20.855 C 22.744 20.262,22.262 19.656,22.002 19.006 C 21.789 18.474,21.749 18.128,21.699 16.333 C 21.601 12.827,21.558 11.823,21.491 11.433 C 21.453 11.215,21.421 11.031,21.421 11.025 C 21.414 10.937,21.179 11.138,20.573 11.748 M16.357 22.972 C 16.275 23.483,15.804 24.107,15.321 24.343 C 15.099 24.452,15.002 24.470,14.635 24.472 C 14.261 24.475,14.176 24.459,13.945 24.346 C 13.448 24.103,13.030 23.551,12.906 22.975 C 12.877 22.839,12.885 22.825,13.005 22.807 C 13.078 22.796,13.868 22.784,14.762 22.780 L 16.388 22.773 16.357 22.972 " fill="#1A1C1F" stroke="none" fill-rule="evenodd"></path></svg>