<svg width="14" height="14" viewBox="0 0 14 14" fill="none" xmlns="http://www.w3.org/2000/svg"><path d="M6.462 1.447 C 5.895 1.490,5.173 1.770,4.688 2.134 C 4.412 2.341,4.006 2.769,3.821 3.046 C 3.443 3.614,3.141 4.471,3.079 5.157 C 3.068 5.279,3.048 6.098,3.035 6.977 C 3.002 9.168,2.991 9.339,2.857 9.805 C 2.755 10.160,2.677 10.308,2.473 10.535 C 2.172 10.869,2.123 10.967,2.124 11.233 C 2.124 11.442,2.172 11.550,2.328 11.695 C 2.487 11.843,2.587 11.883,2.800 11.886 C 2.953 11.887,2.990 11.879,3.091 11.820 C 3.226 11.741,5.372 9.626,8.484 6.506 C 11.052 3.931,11.742 3.224,11.823 3.085 C 11.876 2.996,11.887 2.949,11.887 2.813 C 11.887 2.617,11.826 2.462,11.695 2.326 C 11.545 2.171,11.453 2.135,11.200 2.135 C 10.913 2.135,10.868 2.161,10.438 2.576 L 10.110 2.891 9.940 2.695 C 9.452 2.133,8.785 1.723,8.046 1.531 C 7.695 1.440,7.024 1.404,6.462 1.447 M7.303 2.847 C 7.464 2.859,7.668 2.890,7.757 2.916 C 8.240 3.056,8.727 3.399,8.994 3.788 L 9.086 3.922 6.757 6.249 L 4.428 8.575 4.444 7.152 C 4.464 5.325,4.479 5.039,4.573 4.702 C 4.834 3.767,5.453 3.120,6.293 2.904 C 6.581 2.829,6.863 2.813,7.303 2.847 M10.227 6.726 L 9.562 7.385 9.574 8.178 C 9.586 8.970,9.611 9.266,9.693 9.621 C 9.713 9.708,9.730 9.784,9.730 9.790 C 9.730 9.795,9.150 9.800,8.441 9.800 L 7.151 9.800 6.373 10.579 L 5.594 11.358 5.611 11.448 C 5.650 11.660,5.838 11.994,6.022 12.178 C 6.376 12.532,6.918 12.675,7.373 12.533 C 7.469 12.503,7.600 12.452,7.664 12.420 C 7.830 12.336,8.167 11.992,8.243 11.829 C 8.315 11.676,8.400 11.363,8.400 11.254 L 8.400 11.177 9.924 11.177 L 11.447 11.177 11.585 11.065 C 11.753 10.931,11.844 10.790,11.880 10.610 C 11.903 10.495,11.900 10.453,11.864 10.319 C 11.819 10.150,11.760 10.081,11.326 9.683 C 11.202 9.569,11.141 9.491,11.082 9.368 L 11.002 9.205 10.984 7.992 C 10.962 6.512,10.946 6.067,10.916 6.067 C 10.903 6.067,10.593 6.363,10.227 6.726 " fill="#1A1C1F" stroke="none" fill-rule="evenodd"></path></svg>