<svg width="12" height="12" viewBox="0 0 12 12" fill="none" xmlns="http://www.w3.org/2000/svg"><path d="M5.210 1.290 C 4.782 1.390,4.332 1.594,4.019 1.828 C 3.782 2.006,3.434 2.373,3.275 2.611 C 2.962 3.082,2.696 3.828,2.641 4.389 C 2.630 4.500,2.612 5.220,2.600 5.990 C 2.572 7.852,2.560 8.032,2.438 8.444 C 2.357 8.716,2.289 8.842,2.119 9.030 C 1.862 9.316,1.820 9.401,1.820 9.628 C 1.821 9.807,1.862 9.900,1.995 10.024 C 2.131 10.150,2.217 10.185,2.400 10.188 C 2.532 10.190,2.562 10.183,2.650 10.131 C 2.767 10.063,4.548 8.308,7.222 5.626 C 9.462 3.380,10.065 2.763,10.134 2.645 C 10.241 2.462,10.196 2.172,10.034 2.003 C 9.922 1.886,9.812 1.835,9.653 1.825 C 9.388 1.808,9.309 1.853,8.898 2.254 L 8.667 2.480 8.520 2.308 C 8.164 1.894,7.654 1.559,7.095 1.372 C 6.747 1.256,6.609 1.240,5.972 1.241 C 5.456 1.243,5.394 1.247,5.210 1.290 M6.260 2.440 C 6.397 2.450,6.573 2.477,6.649 2.499 C 7.063 2.619,7.480 2.913,7.709 3.247 L 7.788 3.362 5.794 5.356 L 3.800 7.350 3.800 6.750 C 3.801 5.644,3.836 4.399,3.871 4.230 C 3.937 3.911,4.097 3.521,4.266 3.270 C 4.570 2.820,5.110 2.499,5.660 2.441 C 5.874 2.419,5.977 2.419,6.260 2.440 M8.767 5.765 L 8.195 6.330 8.206 7.010 C 8.217 7.688,8.238 7.942,8.308 8.246 C 8.326 8.321,8.340 8.386,8.340 8.391 C 8.340 8.396,7.843 8.400,7.235 8.400 L 6.130 8.400 5.462 9.068 L 4.795 9.736 4.809 9.813 C 4.842 9.991,5.002 10.277,5.158 10.436 C 5.454 10.738,5.930 10.864,6.319 10.743 C 6.402 10.717,6.512 10.674,6.565 10.647 C 6.683 10.588,6.937 10.350,7.017 10.224 C 7.094 10.105,7.177 9.857,7.193 9.701 L 7.206 9.580 8.509 9.580 L 9.812 9.580 9.930 9.485 C 10.074 9.369,10.152 9.249,10.183 9.095 C 10.202 8.997,10.200 8.959,10.170 8.845 C 10.135 8.711,10.132 8.708,9.838 8.420 C 9.420 8.011,9.439 8.062,9.418 7.292 C 9.410 6.961,9.402 6.456,9.401 6.170 C 9.400 5.576,9.382 5.200,9.356 5.200 C 9.346 5.200,9.081 5.454,8.767 5.765 " fill="#1A1C1F" stroke="none" fill-rule="evenodd"></path></svg>