<svg width="24" height="24" viewBox="0 0 24 24" fill="none" xmlns="http://www.w3.org/2000/svg"><path d="M12.051 2.124 C 11.855 2.221,11.657 2.432,11.569 2.637 C 11.526 2.738,11.502 2.971,11.489 3.426 L 11.470 4.071 11.225 4.122 C 10.605 4.249,9.856 4.560,9.298 4.923 C 8.892 5.186,8.044 6.033,7.761 6.456 C 7.339 7.087,6.886 8.227,6.684 9.170 C 6.545 9.813,6.517 10.481,6.494 13.620 L 6.472 16.620 5.423 17.680 C 3.496 19.628,3.490 19.635,3.531 20.084 C 3.571 20.525,3.868 20.867,4.294 20.962 C 4.634 21.038,4.761 20.994,5.132 20.668 C 5.648 20.214,9.864 16.044,14.103 11.793 C 18.535 7.351,20.249 5.605,20.391 5.391 C 20.476 5.262,20.487 5.207,20.473 4.991 C 20.452 4.690,20.355 4.474,20.152 4.277 C 19.963 4.093,19.722 4.022,19.379 4.050 C 19.186 4.065,19.086 4.096,18.990 4.170 C 18.918 4.225,18.441 4.679,17.928 5.180 L 16.997 6.091 16.648 5.754 C 15.735 4.870,15.185 4.541,14.106 4.234 C 13.625 4.097,13.522 4.054,13.504 3.984 C 13.491 3.938,13.481 3.674,13.481 3.397 C 13.480 2.789,13.421 2.555,13.215 2.343 C 12.923 2.042,12.410 1.946,12.051 2.124 M12.940 6.041 C 13.451 6.100,13.717 6.179,14.231 6.425 C 14.638 6.621,14.722 6.681,15.081 7.033 C 15.301 7.249,15.480 7.446,15.480 7.471 C 15.480 7.579,14.815 8.270,11.733 11.360 L 8.482 14.620 8.481 13.260 C 8.480 10.910,8.564 9.730,8.785 8.968 C 8.897 8.579,9.192 7.944,9.429 7.580 C 10.167 6.447,11.472 5.875,12.940 6.041 M17.409 11.330 L 16.470 12.260 16.494 13.600 C 16.523 15.264,16.564 15.524,16.962 16.580 C 17.033 16.768,17.078 16.935,17.062 16.951 C 17.046 16.967,15.842 16.985,14.385 16.991 L 11.737 17.003 10.544 18.196 L 9.351 19.389 9.380 19.563 C 9.420 19.799,9.799 20.526,10.038 20.824 C 10.679 21.627,11.948 22.123,12.947 21.961 C 13.303 21.904,13.861 21.719,14.109 21.576 C 14.507 21.345,15.138 20.690,15.357 20.279 C 15.507 19.998,15.704 19.437,15.742 19.180 L 15.769 19.000 17.746 19.000 C 19.628 19.000,19.731 18.996,19.876 18.922 C 20.347 18.682,20.561 18.246,20.442 17.772 C 20.382 17.532,20.263 17.375,19.947 17.116 C 19.530 16.773,19.121 16.351,18.976 16.113 C 18.615 15.520,18.569 15.168,18.518 12.620 C 18.496 11.498,18.468 10.540,18.458 10.490 C 18.447 10.441,18.418 10.400,18.393 10.400 C 18.368 10.400,17.925 10.818,17.409 11.330 M13.700 19.046 C 13.736 19.083,13.633 19.271,13.444 19.510 C 13.235 19.775,12.843 19.978,12.544 19.976 C 12.081 19.974,11.659 19.724,11.448 19.328 C 11.377 19.197,11.320 19.079,11.320 19.066 C 11.320 19.054,11.415 19.037,11.530 19.028 C 11.869 19.003,13.671 19.018,13.700 19.046 " fill="#1A1C1F" stroke="none" fill-rule="evenodd"></path></svg>