<svg width="14" height="14" viewBox="0 0 14 14" fill="none" xmlns="http://www.w3.org/2000/svg"><path d="M6.032 1.516 C 5.689 1.597,5.573 1.636,5.326 1.751 C 4.621 2.079,3.916 2.767,3.570 3.468 C 3.344 3.924,3.128 4.649,3.082 5.110 C 3.069 5.232,3.048 6.046,3.033 6.918 C 3.019 7.791,2.999 8.662,2.988 8.855 C 2.958 9.390,2.897 9.508,2.462 9.876 C 2.163 10.129,2.116 10.208,2.116 10.463 C 2.116 10.586,2.129 10.682,2.153 10.739 C 2.203 10.855,2.417 11.081,2.520 11.125 C 2.589 11.155,2.828 11.162,4.085 11.172 L 5.568 11.183 5.605 11.380 C 5.665 11.696,5.796 11.940,6.028 12.169 C 6.245 12.383,6.411 12.478,6.708 12.555 C 6.854 12.593,6.934 12.600,7.075 12.590 C 7.264 12.575,7.511 12.509,7.660 12.433 C 7.799 12.362,8.175 11.972,8.244 11.826 C 8.314 11.676,8.400 11.363,8.400 11.254 L 8.400 11.177 9.924 11.177 L 11.447 11.177 11.585 11.065 C 11.753 10.931,11.844 10.790,11.880 10.610 C 11.903 10.496,11.900 10.452,11.865 10.319 C 11.824 10.163,11.820 10.159,11.479 9.823 C 11.269 9.617,11.114 9.445,11.084 9.383 C 11.005 9.225,10.993 8.994,10.967 7.105 C 10.954 6.143,10.932 5.234,10.918 5.087 C 10.889 4.779,10.756 4.229,10.627 3.883 C 10.207 2.757,9.413 1.984,8.295 1.612 C 7.856 1.466,7.697 1.446,6.956 1.448 C 6.333 1.450,6.303 1.452,6.032 1.516 M7.634 2.891 C 8.219 3.025,8.674 3.331,9.005 3.812 C 9.111 3.967,9.283 4.326,9.356 4.545 C 9.513 5.016,9.541 5.388,9.566 7.350 C 9.588 9.036,9.604 9.288,9.719 9.736 L 9.735 9.800 7.000 9.800 L 4.265 9.800 4.279 9.742 C 4.383 9.329,4.431 8.572,4.434 7.303 C 4.436 6.252,4.472 5.222,4.516 4.983 C 4.591 4.566,4.759 4.140,4.977 3.815 C 5.028 3.738,5.161 3.586,5.272 3.477 C 5.603 3.150,5.976 2.961,6.475 2.868 C 6.780 2.811,7.332 2.821,7.634 2.891 " fill="#1A1C1F" stroke="none" fill-rule="evenodd"></path></svg>