<svg width="14" height="14" viewBox="0 0 14 14" fill="none" xmlns="http://www.w3.org/2000/svg"><path d="M6.032 1.516 C 5.689 1.597,5.573 1.636,5.326 1.751 C 4.621 2.079,3.916 2.767,3.570 3.468 C 3.344 3.924,3.128 4.649,3.082 5.110 C 3.069 5.232,3.048 6.046,3.033 6.918 C 3.019 7.791,2.999 8.662,2.988 8.855 C 2.958 9.390,2.897 9.508,2.462 9.876 C 2.163 10.129,2.116 10.208,2.116 10.463 C 2.116 10.586,2.129 10.682,2.153 10.739 C 2.203 10.855,2.417 11.081,2.520 11.125 C 2.589 11.155,2.828 11.162,4.085 11.172 L 5.568 11.183 5.605 11.380 C 5.665 11.696,5.796 11.940,6.028 12.169 C 6.245 12.383,6.411 12.478,6.708 12.555 C 6.854 12.593,6.934 12.600,7.075 12.590 C 7.264 12.575,7.511 12.509,7.660 12.433 C 7.799 12.362,8.175 11.972,8.244 11.826 C 8.314 11.676,8.400 11.363,8.400 11.254 L 8.400 11.177 9.924 11.177 L 11.447 11.177 11.585 11.065 C 11.753 10.931,11.844 10.790,11.880 10.610 C 11.903 10.496,11.900 10.452,11.865 10.319 C 11.824 10.163,11.820 10.159,11.479 9.823 C 11.269 9.617,11.114 9.445,11.084 9.383 C 11.005 9.225,10.993 8.994,10.967 7.105 C 10.954 6.143,10.932 5.234,10.918 5.087 C 10.889 4.779,10.756 4.229,10.627 3.883 C 10.207 2.757,9.413 1.984,8.295 1.612 C 7.856 1.466,7.697 1.446,6.956 1.448 C 6.333 1.450,6.303 1.452,6.032 1.516 " fill="#1A1C1F" stroke="none" fill-rule="evenodd"></path></svg>