<svg width="20" height="20" viewBox="0 0 20 20" fill="none" xmlns="http://www.w3.org/2000/svg"><path d="M8.683 2.149 C 7.971 2.316,7.219 2.656,6.698 3.047 C 6.303 3.344,5.723 3.955,5.458 4.352 C 4.918 5.163,4.488 6.388,4.398 7.367 C 4.382 7.541,4.354 8.703,4.335 9.950 C 4.287 13.097,4.272 13.344,4.081 14.007 C 3.935 14.515,3.824 14.725,3.532 15.050 C 3.103 15.527,3.033 15.668,3.034 16.047 C 3.035 16.345,3.103 16.500,3.325 16.706 C 3.552 16.917,3.695 16.976,4.000 16.980 C 4.220 16.983,4.270 16.972,4.416 16.886 C 4.609 16.773,7.678 13.747,12.136 9.278 C 15.797 5.607,16.774 4.606,16.891 4.407 C 16.965 4.280,16.981 4.213,16.981 4.018 C 16.982 3.636,16.810 3.342,16.467 3.139 C 16.332 3.059,16.283 3.050,16.000 3.050 C 15.714 3.050,15.668 3.059,15.527 3.142 C 15.441 3.193,15.162 3.436,14.907 3.683 L 14.443 4.132 14.213 3.862 C 13.612 3.158,12.747 2.587,11.817 2.283 C 11.236 2.092,11.010 2.066,9.954 2.069 C 9.093 2.071,8.990 2.078,8.683 2.149 M11.149 4.181 C 11.863 4.428,12.477 4.874,12.851 5.416 L 12.980 5.603 9.665 8.918 L 6.350 12.234 6.340 11.775 C 6.324 11.025,6.398 7.401,6.434 7.167 C 6.517 6.626,6.795 5.916,7.099 5.468 C 7.580 4.759,8.364 4.248,9.194 4.099 C 9.280 4.084,9.695 4.076,10.117 4.080 C 10.854 4.089,10.893 4.093,11.149 4.181 M14.610 9.608 L 13.659 10.550 13.677 11.683 C 13.695 12.814,13.730 13.237,13.847 13.744 C 13.876 13.869,13.900 13.977,13.900 13.985 C 13.900 13.993,13.071 14.000,12.058 14.000 L 10.216 14.000 9.104 15.113 L 7.991 16.226 8.015 16.355 C 8.070 16.652,8.337 17.128,8.597 17.394 C 9.089 17.897,9.883 18.107,10.532 17.904 C 10.670 17.862,10.857 17.789,10.949 17.742 C 11.185 17.623,11.666 17.132,11.776 16.898 C 11.878 16.680,12.000 16.233,12.000 16.077 L 12.000 15.967 14.177 15.967 L 16.353 15.967 16.551 15.808 C 16.790 15.615,16.920 15.414,16.971 15.158 C 17.004 14.994,17.001 14.931,16.950 14.741 C 16.891 14.518,16.887 14.513,16.397 14.033 C 15.697 13.349,15.730 13.440,15.697 12.119 C 15.683 11.550,15.670 10.708,15.669 10.250 C 15.666 9.283,15.636 8.667,15.592 8.667 C 15.575 8.667,15.133 9.090,14.610 9.608 " fill="#1A1C1F" stroke="none" fill-rule="evenodd"></path></svg>