<svg width="16" height="16" viewBox="0 0 16 16" fill="none" xmlns="http://www.w3.org/2000/svg"><path d="M6.947 1.720 C 6.376 1.853,5.776 2.125,5.358 2.438 C 5.043 2.675,4.578 3.164,4.366 3.482 C 3.934 4.131,3.590 5.110,3.519 5.893 C 3.506 6.033,3.483 6.975,3.468 7.987 C 3.430 10.505,3.420 10.663,3.265 11.206 C 3.148 11.612,3.060 11.780,2.826 12.040 C 2.483 12.421,2.426 12.534,2.427 12.837 C 2.428 13.076,2.482 13.200,2.660 13.365 C 2.842 13.535,2.957 13.581,3.200 13.584 C 3.375 13.586,3.417 13.576,3.533 13.508 C 3.686 13.418,6.172 10.969,9.736 7.395 C 12.590 4.533,13.420 3.684,13.506 3.537 C 13.705 3.198,13.557 2.736,13.177 2.513 C 13.066 2.447,13.028 2.440,12.800 2.440 C 12.571 2.440,12.534 2.447,12.421 2.514 C 12.353 2.554,12.129 2.749,11.925 2.946 L 11.554 3.305 11.370 3.090 C 10.890 2.526,10.198 2.070,9.453 1.826 C 8.989 1.674,8.808 1.653,7.963 1.655 C 7.274 1.657,7.192 1.662,6.947 1.720 M8.349 3.253 C 8.771 3.284,9.006 3.350,9.367 3.540 C 9.756 3.745,10.115 4.067,10.334 4.409 L 10.382 4.484 7.731 7.136 L 5.080 9.787 5.072 9.433 C 5.068 9.239,5.076 8.360,5.091 7.480 C 5.115 6.041,5.123 5.854,5.172 5.620 C 5.375 4.641,5.915 3.884,6.678 3.508 C 7.172 3.265,7.600 3.199,8.349 3.253 M11.688 7.687 L 10.927 8.440 10.942 9.347 C 10.956 10.251,10.984 10.589,11.078 10.995 C 11.101 11.095,11.120 11.182,11.120 11.188 C 11.120 11.195,10.457 11.200,9.647 11.200 L 8.173 11.200 7.283 12.090 L 6.393 12.981 6.412 13.084 C 6.457 13.326,6.673 13.708,6.882 13.918 C 7.288 14.323,7.906 14.486,8.426 14.324 C 8.536 14.289,8.686 14.231,8.759 14.194 C 8.948 14.099,9.333 13.705,9.421 13.519 C 9.502 13.344,9.600 12.986,9.600 12.862 L 9.600 12.773 11.341 12.773 L 13.083 12.773 13.240 12.646 C 13.432 12.492,13.536 12.331,13.577 12.126 C 13.603 11.995,13.600 11.945,13.560 11.793 C 13.513 11.615,13.509 11.610,13.117 11.227 C 12.558 10.680,12.586 10.757,12.558 9.684 C 12.546 9.220,12.535 8.546,12.535 8.187 C 12.533 7.427,12.509 6.933,12.474 6.933 C 12.460 6.933,12.107 7.272,11.688 7.687 " fill="#1A1C1F" stroke="none" fill-rule="evenodd"></path></svg>