<svg width="28" height="28" viewBox="0 0 28 28" fill="none" xmlns="http://www.w3.org/2000/svg"><path d="M13.583 1.875 C 13.469 1.935,13.337 2.036,13.290 2.100 C 13.164 2.274,13.114 2.853,13.114 4.154 L 13.113 5.298 12.588 5.405 C 10.843 5.760,9.519 6.608,8.507 8.020 C 7.974 8.763,7.588 9.629,7.324 10.669 C 7.079 11.634,7.051 11.984,7.000 14.657 C 6.933 18.151,6.902 18.441,6.508 19.257 C 6.214 19.868,5.848 20.302,5.142 20.878 C 4.479 21.419,4.409 21.521,4.412 21.933 C 4.414 22.226,4.493 22.374,4.748 22.569 C 4.984 22.749,5.277 22.766,8.108 22.770 L 10.500 22.773 10.500 22.931 C 10.500 23.221,10.725 23.980,10.927 24.370 C 11.081 24.667,11.230 24.861,11.572 25.208 C 11.949 25.591,12.078 25.689,12.414 25.849 C 13.007 26.132,13.319 26.201,14.000 26.201 C 14.681 26.201,14.993 26.132,15.586 25.849 C 15.922 25.689,16.051 25.591,16.428 25.208 C 16.765 24.866,16.920 24.666,17.067 24.382 C 17.279 23.972,17.432 23.478,17.481 23.049 L 17.512 22.773 19.898 22.770 C 22.723 22.766,23.016 22.748,23.252 22.569 C 23.516 22.367,23.588 22.227,23.588 21.910 C 23.588 21.717,23.560 21.584,23.499 21.481 C 23.450 21.399,23.149 21.118,22.832 20.858 C 21.938 20.126,21.514 19.527,21.255 18.634 C 21.083 18.039,21.055 17.612,21.002 14.807 C 20.976 13.416,20.931 12.072,20.903 11.821 C 20.804 10.923,20.403 9.607,19.992 8.826 C 19.013 6.967,17.475 5.820,15.412 5.409 L 14.887 5.304 14.886 4.180 C 14.886 3.008,14.839 2.372,14.737 2.157 C 14.662 1.999,14.335 1.834,14.023 1.796 C 13.834 1.773,13.751 1.788,13.583 1.875 M15.710 22.989 C 15.636 23.528,15.213 24.076,14.662 24.346 C 14.434 24.458,14.341 24.477,14.000 24.476 C 13.670 24.475,13.559 24.454,13.336 24.351 C 12.810 24.106,12.361 23.524,12.290 22.995 L 12.261 22.773 14.000 22.773 L 15.739 22.773 15.710 22.989 " fill="#1A1C1F" stroke="none" fill-rule="evenodd"></path></svg>