<svg width="12" height="12" viewBox="0 0 12 12" fill="none" xmlns="http://www.w3.org/2000/svg"><path d="M5.500 1.240 C 4.785 1.313,4.026 1.711,3.536 2.270 C 3.118 2.747,2.852 3.323,2.680 4.120 C 2.636 4.325,2.625 4.605,2.580 6.800 C 2.566 7.499,2.552 7.823,2.533 7.903 C 2.483 8.112,2.375 8.247,2.022 8.543 C 1.837 8.698,1.817 8.745,1.824 8.993 C 1.830 9.194,1.831 9.198,1.910 9.311 C 1.954 9.374,2.029 9.454,2.077 9.488 C 2.163 9.549,2.167 9.550,2.487 9.563 C 2.665 9.570,3.251 9.577,3.790 9.578 L 4.771 9.580 4.807 9.755 C 4.863 10.033,4.973 10.238,5.168 10.430 C 5.275 10.536,5.374 10.612,5.460 10.655 C 5.604 10.727,5.868 10.800,5.978 10.799 C 6.126 10.798,6.368 10.740,6.510 10.673 C 6.674 10.595,6.918 10.379,7.017 10.224 C 7.094 10.105,7.177 9.857,7.193 9.701 L 7.206 9.580 8.509 9.580 L 9.812 9.580 9.930 9.485 C 10.074 9.369,10.152 9.249,10.183 9.095 C 10.202 8.996,10.200 8.959,10.169 8.845 C 10.130 8.700,10.096 8.660,9.708 8.299 C 9.538 8.141,9.464 8.005,9.438 7.796 C 9.428 7.716,9.411 6.966,9.400 6.130 C 9.390 5.294,9.372 4.511,9.360 4.390 C 9.293 3.719,9.039 3.016,8.685 2.521 C 8.512 2.278,8.220 1.987,7.979 1.816 C 7.623 1.562,7.089 1.337,6.690 1.272 C 6.480 1.238,5.718 1.217,5.500 1.240 " fill="#1A1C1F" stroke="none" fill-rule="evenodd"></path></svg>