<svg width="32" height="32" viewBox="0 0 32 32" fill="none" xmlns="http://www.w3.org/2000/svg"><path d="M16.431 2.064 C 16.234 2.103,16.080 2.222,15.912 2.464 L 15.760 2.684 15.733 4.331 C 15.711 5.706,15.694 5.985,15.628 6.026 C 15.584 6.053,15.368 6.112,15.148 6.158 C 12.025 6.808,9.934 8.895,9.096 12.201 C 8.814 13.317,8.794 13.557,8.745 16.580 C 8.680 20.578,8.621 21.287,8.262 22.365 C 7.978 23.221,7.804 23.445,5.850 25.481 C 5.082 26.281,4.411 27.013,4.360 27.107 C 4.236 27.335,4.242 27.596,4.379 27.878 C 4.515 28.160,4.748 28.345,5.073 28.432 C 5.542 28.558,5.360 28.722,11.088 23.043 C 16.540 17.637,26.255 7.891,27.123 6.956 C 27.698 6.337,27.813 6.084,27.684 5.721 C 27.512 5.238,27.191 5.017,26.658 5.015 L 26.357 5.013 24.525 6.819 L 22.693 8.625 22.320 8.281 C 21.054 7.114,19.863 6.484,18.352 6.183 L 17.760 6.065 17.757 4.779 C 17.754 3.377,17.710 2.773,17.595 2.533 C 17.436 2.205,16.870 1.976,16.431 2.064 M17.925 8.131 C 18.702 8.267,19.379 8.539,20.015 8.971 C 20.384 9.221,21.227 9.963,21.227 10.039 C 21.227 10.163,10.749 20.580,10.687 20.518 C 10.644 20.476,10.767 14.946,10.828 14.121 C 10.942 12.599,11.271 11.551,11.974 10.471 C 12.863 9.108,14.277 8.240,15.918 8.050 C 16.407 7.994,17.360 8.032,17.925 8.131 M23.538 13.401 L 22.679 14.267 22.722 17.147 C 22.764 19.943,22.800 20.555,22.964 21.280 C 23.132 22.021,23.492 22.965,23.842 23.582 C 23.958 23.788,24.053 23.966,24.053 23.978 C 24.053 23.990,21.549 24.000,18.488 24.000 L 12.923 24.000 11.979 24.961 C 11.459 25.489,11.049 25.945,11.067 25.974 C 11.086 26.005,11.438 26.027,11.923 26.027 L 12.747 26.027 12.747 26.257 C 12.747 26.575,12.933 27.255,13.146 27.717 C 13.559 28.609,14.344 29.332,15.360 29.752 C 15.785 29.929,16.517 29.997,17.232 29.926 C 18.126 29.839,18.727 29.557,19.446 28.889 C 20.095 28.286,20.531 27.432,20.698 26.437 L 20.767 26.027 23.826 26.027 C 26.748 26.027,26.893 26.022,27.087 25.923 C 27.541 25.692,27.814 25.181,27.682 24.810 C 27.570 24.494,27.442 24.351,26.793 23.806 C 25.786 22.962,25.346 22.355,25.042 21.387 C 24.852 20.784,24.816 20.245,24.747 16.960 C 24.716 15.479,24.666 14.018,24.636 13.715 C 24.574 13.079,24.496 12.635,24.438 12.576 C 24.415 12.554,24.010 12.925,23.538 13.401 M18.693 26.253 C 18.600 26.838,18.062 27.551,17.509 27.821 C 17.252 27.947,17.148 27.966,16.720 27.966 C 16.292 27.966,16.188 27.947,15.932 27.821 C 15.370 27.546,14.891 26.913,14.750 26.257 C 14.716 26.101,14.725 26.086,14.863 26.065 C 14.946 26.053,15.849 26.039,16.871 26.035 L 18.729 26.027 18.693 26.253 " fill="#1A1C1F" stroke="none" fill-rule="evenodd"></path></svg>