<svg width="24" height="24" viewBox="0 0 24 24" fill="none" xmlns="http://www.w3.org/2000/svg"><path d="M11.580 2.106 C 11.408 2.197,11.246 2.354,11.115 2.558 C 11.000 2.735,11.000 2.737,11.000 3.398 L 11.000 4.061 10.610 4.154 C 9.479 4.423,8.668 4.882,7.891 5.695 C 7.095 6.528,6.595 7.479,6.266 8.787 C 6.072 9.557,6.048 9.864,6.002 12.060 C 5.943 14.839,5.912 15.263,5.737 15.694 C 5.532 16.201,5.251 16.544,4.631 17.047 C 4.138 17.446,4.019 17.632,4.021 18.000 C 4.023 18.186,4.047 18.305,4.108 18.420 C 4.213 18.618,4.460 18.860,4.620 18.922 C 4.704 18.955,5.357 18.976,6.770 18.990 L 8.800 19.011 8.800 19.116 C 8.800 19.251,8.918 19.657,9.074 20.061 C 9.161 20.285,9.278 20.481,9.466 20.715 C 9.945 21.314,10.432 21.640,11.180 21.863 C 11.674 22.010,12.350 22.020,12.811 21.888 C 14.027 21.541,14.943 20.571,15.203 19.353 C 15.229 19.229,15.263 19.107,15.278 19.083 C 15.296 19.054,15.951 19.027,17.288 19.001 C 18.379 18.979,19.316 18.944,19.371 18.923 C 19.665 18.812,19.952 18.411,19.988 18.063 C 20.023 17.727,19.879 17.465,19.486 17.147 C 18.670 16.486,18.321 16.024,18.167 15.396 C 18.088 15.074,18.040 14.171,18.000 12.250 C 17.948 9.726,17.898 9.300,17.519 8.149 C 17.186 7.138,16.781 6.436,16.145 5.770 C 15.382 4.969,14.532 4.467,13.507 4.212 C 13.283 4.157,13.086 4.098,13.069 4.083 C 13.052 4.067,13.022 3.783,13.002 3.452 C 12.982 3.120,12.944 2.776,12.917 2.687 C 12.800 2.297,12.419 2.040,11.960 2.042 C 11.803 2.043,11.653 2.068,11.580 2.106 M13.120 6.159 C 13.502 6.269,14.018 6.542,14.350 6.811 C 14.875 7.235,15.375 8.002,15.638 8.786 C 15.871 9.484,15.914 9.884,15.960 11.780 C 15.983 12.726,16.018 13.923,16.037 14.440 C 16.072 15.359,16.076 15.391,16.218 15.854 C 16.297 16.114,16.424 16.479,16.498 16.664 L 16.634 17.000 13.027 17.000 C 11.043 17.000,8.975 16.988,8.430 16.974 C 7.287 16.943,7.369 16.988,7.559 16.496 C 7.732 16.048,7.877 15.519,7.919 15.188 C 7.939 15.030,7.975 13.946,7.999 12.780 C 8.050 10.331,8.085 9.738,8.204 9.253 C 8.568 7.776,9.389 6.733,10.566 6.254 C 11.024 6.068,11.235 6.040,12.060 6.057 C 12.688 6.069,12.872 6.087,13.120 6.159 M13.240 19.022 C 13.240 19.033,13.202 19.119,13.155 19.212 C 13.010 19.501,12.812 19.708,12.570 19.827 C 12.372 19.924,12.292 19.940,12.000 19.940 C 11.698 19.940,11.636 19.927,11.445 19.821 C 11.216 19.694,11.021 19.483,10.885 19.212 C 10.838 19.119,10.800 19.033,10.800 19.022 C 10.800 19.010,11.349 19.000,12.020 19.000 C 12.691 19.000,13.240 19.010,13.240 19.022 " fill="#1A1C1F" stroke="none" fill-rule="evenodd"></path></svg>