<svg width="20" height="20" viewBox="0 0 20 20" fill="none" xmlns="http://www.w3.org/2000/svg"><path d="M8.683 2.149 C 7.971 2.316,7.219 2.656,6.698 3.047 C 6.314 3.336,5.725 3.952,5.471 4.333 C 4.984 5.060,4.629 5.974,4.446 6.965 C 4.395 7.241,4.354 8.455,4.301 11.233 C 4.265 13.110,4.254 13.228,4.086 13.515 C 3.993 13.674,3.747 13.922,3.370 14.238 C 3.061 14.497,3.026 14.576,3.041 14.983 C 3.055 15.366,3.093 15.461,3.321 15.689 C 3.612 15.981,3.471 15.965,5.851 15.966 L 7.952 15.967 8.011 16.258 C 8.103 16.710,8.289 17.064,8.596 17.369 C 9.026 17.797,9.437 17.978,9.983 17.979 C 10.355 17.980,10.584 17.926,10.915 17.759 C 11.186 17.623,11.657 17.151,11.776 16.898 C 11.878 16.680,12.000 16.233,12.000 16.077 L 12.000 15.967 14.177 15.967 L 16.353 15.967 16.551 15.808 C 16.790 15.615,16.920 15.414,16.971 15.158 C 17.004 14.994,17.001 14.931,16.950 14.741 C 16.891 14.519,16.886 14.512,16.398 14.033 C 16.099 13.739,15.878 13.493,15.834 13.405 C 15.722 13.179,15.705 12.852,15.668 10.150 C 15.649 8.775,15.617 7.478,15.597 7.267 C 15.556 6.824,15.366 6.036,15.183 5.550 C 14.576 3.931,13.452 2.836,11.850 2.303 C 11.224 2.094,10.995 2.066,9.937 2.069 C 9.094 2.071,8.989 2.078,8.683 2.149 " fill="#1A1C1F" stroke="none" fill-rule="evenodd"></path></svg>