<svg width="16" height="16" viewBox="0 0 16 16" fill="none" xmlns="http://www.w3.org/2000/svg"><path d="M7.293 1.653 C 6.677 1.704,5.923 1.921,5.293 2.227 C 4.518 2.604,4.056 2.929,3.492 3.492 C 2.508 4.475,1.873 5.723,1.666 7.081 C 1.611 7.439,1.603 8.419,1.652 8.811 C 1.692 9.136,1.831 9.709,1.959 10.075 C 2.548 11.762,3.781 13.102,5.425 13.844 C 5.777 14.003,6.391 14.201,6.773 14.279 C 7.488 14.425,8.510 14.425,9.199 14.279 C 10.654 13.972,11.848 13.284,12.801 12.208 C 13.857 11.014,14.443 9.395,14.391 7.813 C 14.321 5.662,13.170 3.684,11.333 2.561 C 10.607 2.116,9.630 1.761,8.920 1.682 C 8.579 1.644,7.608 1.627,7.293 1.653 M8.373 3.228 C 10.561 3.429,12.264 4.953,12.699 7.098 C 12.752 7.363,12.760 7.476,12.759 8.013 C 12.757 8.578,12.752 8.654,12.684 8.973 C 12.564 9.538,12.409 9.932,12.097 10.462 C 11.354 11.724,10.068 12.561,8.564 12.761 C 7.281 12.932,5.852 12.489,4.845 11.608 C 4.085 10.943,3.526 9.973,3.303 8.933 C 3.250 8.689,3.243 8.573,3.241 8.027 C 3.240 7.475,3.247 7.364,3.301 7.098 C 3.431 6.458,3.682 5.854,4.047 5.307 C 4.299 4.929,4.848 4.367,5.227 4.099 C 5.527 3.886,6.183 3.554,6.520 3.444 C 7.123 3.247,7.765 3.172,8.373 3.228 M8.652 7.238 L 7.078 8.794 6.510 8.246 L 5.943 7.698 5.383 8.256 L 4.823 8.813 5.951 9.924 L 7.079 11.035 7.359 10.772 C 7.514 10.628,8.474 9.675,9.493 8.655 L 11.347 6.800 10.787 6.241 L 10.227 5.682 8.652 7.238 " fill="#1A1C1F" stroke="none" fill-rule="evenodd"></path></svg>