<svg width="20" height="20" viewBox="0 0 20 20" fill="none" xmlns="http://www.w3.org/2000/svg"><path d="M9.167 2.067 C 8.384 2.120,7.430 2.388,6.617 2.784 C 5.641 3.259,5.070 3.661,4.349 4.382 C 3.121 5.612,2.408 7.003,2.097 8.779 C 2.013 9.259,2.005 10.729,2.085 11.187 C 2.391 12.960,3.249 14.587,4.505 15.782 C 5.721 16.938,7.204 17.658,8.915 17.923 C 9.432 18.003,10.545 18.003,11.067 17.923 C 12.812 17.653,14.338 16.902,15.579 15.702 C 16.795 14.525,17.659 12.827,17.921 11.100 C 17.999 10.583,18.000 9.508,17.921 8.933 C 17.688 7.225,16.939 5.684,15.753 4.472 C 14.826 3.525,13.806 2.871,12.600 2.452 C 11.543 2.084,10.556 1.973,9.167 2.067 M14.760 7.975 L 14.936 8.155 11.775 11.292 L 8.613 14.428 8.015 13.837 C 7.686 13.512,6.887 12.729,6.239 12.097 L 5.060 10.948 5.782 10.251 L 6.504 9.555 7.544 10.594 L 8.584 11.633 11.031 9.185 L 13.479 6.737 14.031 7.266 C 14.335 7.557,14.663 7.876,14.760 7.975 " fill="#1A1C1F" stroke="none" fill-rule="evenodd"></path></svg>