<svg width="28" height="28" viewBox="0 0 28 28" fill="none" xmlns="http://www.w3.org/2000/svg"><path d="M12.973 1.804 C 10.908 2.006,8.967 2.685,7.296 3.791 C 4.811 5.436,3.135 7.693,2.266 10.564 C 1.658 12.572,1.607 14.902,2.125 16.947 C 2.497 18.415,3.153 19.864,3.937 20.953 C 5.968 23.773,8.747 25.521,12.107 26.092 C 12.840 26.216,14.533 26.265,15.251 26.182 C 17.529 25.919,19.705 25.048,21.420 23.713 C 22.948 22.524,24.238 20.959,24.996 19.373 C 25.969 17.340,26.354 15.265,26.185 12.976 C 26.043 11.048,25.362 9.026,24.318 7.434 C 22.563 4.758,19.992 2.905,16.972 2.143 C 16.186 1.945,15.661 1.876,14.513 1.821 C 13.529 1.775,13.301 1.772,12.973 1.804 M20.305 9.294 C 20.521 9.367,20.697 9.496,20.843 9.687 C 20.942 9.818,20.965 9.897,20.963 10.107 C 20.961 10.337,20.939 10.393,20.760 10.631 C 20.455 11.033,12.483 18.976,12.241 19.117 C 12.063 19.222,11.998 19.235,11.777 19.213 C 11.436 19.177,11.370 19.120,9.354 17.105 C 7.538 15.290,7.119 14.827,7.073 14.583 C 7.029 14.349,7.121 14.068,7.309 13.860 C 7.616 13.520,8.058 13.489,8.415 13.781 C 8.527 13.872,9.347 14.666,10.239 15.545 L 11.860 17.143 14.878 14.134 C 20.129 8.900,19.858 9.142,20.305 9.294 " fill="#1A1C1F" stroke="none" fill-rule="evenodd"></path></svg>