<svg width="32" height="32" viewBox="0 0 32 32" fill="none" xmlns="http://www.w3.org/2000/svg"><path d="M14.773 2.065 C 14.641 2.075,14.233 2.132,13.867 2.191 C 11.407 2.584,9.199 3.559,7.253 5.112 C 4.485 7.322,2.685 10.487,2.123 14.133 C 2.029 14.744,2.029 17.203,2.123 17.813 C 2.626 21.068,3.902 23.633,6.132 25.870 C 7.309 27.050,8.472 27.880,9.947 28.592 C 10.903 29.053,11.556 29.292,12.557 29.547 C 13.910 29.891,14.393 29.946,16.000 29.943 C 17.615 29.940,18.145 29.879,19.443 29.547 C 20.493 29.280,21.119 29.046,22.160 28.535 C 23.596 27.829,24.731 27.011,25.895 25.843 C 26.647 25.089,27.104 24.531,27.685 23.659 C 28.761 22.043,29.544 19.997,29.842 18.027 C 29.959 17.248,29.998 15.805,29.927 14.847 C 29.764 12.630,28.987 10.318,27.792 8.496 C 25.786 5.437,22.847 3.320,19.397 2.449 C 18.507 2.225,17.904 2.145,16.613 2.082 C 15.516 2.028,15.258 2.026,14.773 2.065 M17.932 4.181 C 18.904 4.336,19.720 4.582,20.789 5.042 C 23.563 6.239,25.735 8.416,26.994 11.264 C 27.764 13.007,28.029 14.640,27.906 16.885 C 27.850 17.893,27.824 18.080,27.634 18.832 C 26.713 22.467,24.170 25.519,20.880 26.934 C 18.435 27.986,16.112 28.251,13.665 27.758 C 11.893 27.400,9.879 26.465,8.565 25.390 C 7.640 24.634,6.809 23.759,6.229 22.933 C 5.341 21.667,4.559 19.850,4.238 18.308 C 4.116 17.723,4.107 17.571,4.107 16.074 C 4.107 14.319,4.141 13.982,4.428 12.942 C 4.850 11.419,5.530 10.018,6.461 8.761 C 6.947 8.104,8.114 6.937,8.774 6.447 C 9.663 5.788,10.632 5.251,11.682 4.837 C 12.585 4.481,13.438 4.268,14.693 4.085 C 15.061 4.032,17.434 4.102,17.932 4.181 M22.679 10.640 C 22.470 10.731,21.458 11.714,16.977 16.180 L 13.554 19.592 11.697 17.761 C 9.555 15.649,9.407 15.520,9.123 15.520 C 8.236 15.520,7.773 16.369,8.277 17.076 C 8.454 17.325,12.090 20.964,12.762 21.565 C 13.148 21.910,13.186 21.931,13.478 21.956 C 13.756 21.980,13.810 21.967,14.027 21.821 C 14.309 21.631,21.321 14.693,22.787 13.153 C 23.343 12.570,23.843 12.018,23.898 11.926 C 24.159 11.498,23.915 10.962,23.333 10.687 C 23.027 10.542,22.921 10.535,22.679 10.640 " fill="#1A1C1F" stroke="none" fill-rule="evenodd"></path></svg>