<svg width="24" height="24" viewBox="0 0 24 24" fill="none" xmlns="http://www.w3.org/2000/svg"><path d="M10.960 2.066 C 9.942 2.221,9.393 2.348,8.723 2.581 C 7.652 2.954,6.559 3.555,5.712 4.235 C 5.295 4.571,4.590 5.282,4.232 5.727 C 3.127 7.101,2.324 8.939,2.094 10.620 C 2.004 11.274,2.004 12.726,2.094 13.380 C 2.267 14.646,2.844 16.206,3.557 17.339 C 4.346 18.591,5.545 19.778,6.760 20.507 C 7.785 21.122,9.015 21.599,10.192 21.838 C 11.168 22.036,12.892 22.026,13.913 21.817 C 14.676 21.661,15.640 21.327,16.380 20.961 C 19.110 19.612,20.996 17.264,21.715 14.320 C 22.364 11.661,21.865 8.841,20.329 6.500 C 19.895 5.839,19.621 5.511,18.954 4.858 C 18.327 4.244,18.103 4.062,17.500 3.672 C 16.114 2.779,14.515 2.211,13.020 2.082 C 12.569 2.043,11.180 2.033,10.960 2.066 M13.115 4.104 C 13.974 4.219,14.690 4.443,15.540 4.860 C 16.746 5.452,17.571 6.134,18.383 7.210 C 19.448 8.621,19.957 10.168,19.959 11.995 C 19.961 13.329,19.709 14.419,19.132 15.580 C 17.575 18.713,14.132 20.462,10.676 19.876 C 8.129 19.445,5.998 17.857,4.841 15.530 C 4.296 14.435,4.040 13.304,4.040 11.993 C 4.040 10.054,4.660 8.330,5.886 6.860 C 7.634 4.765,10.346 3.730,13.115 4.104 M16.233 8.426 C 16.052 8.458,15.631 8.856,12.848 11.620 L 10.156 14.294 9.868 14.015 C 8.470 12.659,8.105 12.319,7.903 12.180 C 7.692 12.035,7.647 12.020,7.425 12.022 C 7.124 12.025,6.908 12.128,6.703 12.367 C 6.551 12.545,6.440 12.841,6.440 13.069 C 6.440 13.295,6.580 13.498,7.175 14.131 C 7.731 14.723,9.460 16.419,9.699 16.606 C 9.802 16.687,9.863 16.700,10.143 16.700 L 10.468 16.700 10.703 16.500 C 11.456 15.858,17.137 10.197,17.371 9.855 C 17.663 9.429,17.480 8.778,17.000 8.532 C 16.820 8.440,16.447 8.389,16.233 8.426 " fill="#1A1C1F" stroke="none" fill-rule="evenodd"></path></svg>