<svg width="14" height="14" viewBox="0 0 14 14" fill="none" xmlns="http://www.w3.org/2000/svg"><path d="M6.393 1.448 C 6.025 1.475,5.423 1.618,5.009 1.778 C 4.760 1.873,4.210 2.155,3.963 2.313 C 3.702 2.481,3.371 2.746,3.094 3.012 C 2.296 3.775,1.762 4.756,1.502 5.938 C 1.445 6.196,1.439 6.272,1.429 6.893 C 1.418 7.640,1.428 7.754,1.552 8.256 C 1.813 9.319,2.299 10.188,3.056 10.944 C 3.666 11.555,4.317 11.970,5.110 12.257 C 6.335 12.699,7.597 12.707,8.829 12.280 C 10.215 11.799,11.344 10.802,11.994 9.485 C 12.284 8.896,12.452 8.374,12.545 7.769 C 12.595 7.441,12.601 6.653,12.556 6.323 C 12.430 5.404,12.114 4.563,11.625 3.850 C 11.415 3.543,11.226 3.322,10.916 3.020 C 10.456 2.571,10.030 2.272,9.438 1.982 C 8.487 1.516,7.600 1.360,6.393 1.448 M10.355 5.605 L 10.455 5.708 8.242 7.904 L 6.029 10.099 5.610 9.686 C 5.380 9.459,4.821 8.910,4.367 8.468 L 3.542 7.663 4.048 7.176 L 4.553 6.688 5.281 7.416 L 6.009 8.143 7.722 6.430 L 9.435 4.716 9.845 5.109 C 10.071 5.326,10.300 5.549,10.355 5.605 " fill="#1A1C1F" stroke="none" fill-rule="evenodd"></path></svg>