<svg width="16" height="16" viewBox="0 0 16 16" fill="none" xmlns="http://www.w3.org/2000/svg"><path d="M7.307 1.652 C 6.625 1.705,5.880 1.929,5.143 2.303 C 3.558 3.108,2.448 4.401,1.912 6.067 C 1.691 6.751,1.617 7.241,1.617 8.013 C 1.618 8.723,1.665 9.079,1.845 9.707 C 2.015 10.301,2.358 11.052,2.673 11.523 C 3.704 13.061,5.301 14.066,7.145 14.338 C 7.528 14.395,8.408 14.402,8.773 14.350 C 10.212 14.149,11.412 13.571,12.437 12.587 C 13.433 11.631,14.124 10.282,14.337 8.880 C 14.400 8.466,14.400 7.606,14.337 7.147 C 14.151 5.786,13.548 4.545,12.602 3.577 C 11.608 2.560,10.396 1.920,9.040 1.693 C 8.743 1.644,7.728 1.620,7.307 1.652 M11.582 6.160 L 11.950 6.520 9.422 9.030 L 6.894 11.540 5.963 10.630 C 5.452 10.130,4.811 9.504,4.540 9.240 L 4.046 8.760 4.625 8.202 L 5.204 7.644 6.035 8.475 L 6.867 9.307 8.826 7.347 L 10.786 5.387 11.000 5.593 C 11.117 5.707,11.379 5.962,11.582 6.160 " fill="#1A1C1F" stroke="none" fill-rule="evenodd"></path></svg>