<svg width="28" height="28" viewBox="0 0 28 28" fill="none" xmlns="http://www.w3.org/2000/svg"><path d="M12.973 1.804 C 10.908 2.006,8.967 2.685,7.296 3.791 C 4.811 5.436,3.135 7.693,2.266 10.564 C 1.658 12.572,1.607 14.902,2.125 16.947 C 2.497 18.415,3.153 19.864,3.937 20.953 C 5.968 23.773,8.747 25.521,12.107 26.092 C 12.840 26.216,14.533 26.265,15.251 26.182 C 17.529 25.919,19.705 25.048,21.420 23.713 C 22.948 22.524,24.238 20.959,24.996 19.373 C 25.969 17.340,26.354 15.265,26.185 12.976 C 26.043 11.048,25.362 9.026,24.318 7.434 C 22.563 4.758,19.992 2.905,16.972 2.143 C 16.186 1.945,15.661 1.876,14.513 1.821 C 13.529 1.775,13.301 1.772,12.973 1.804 M15.127 3.594 C 16.640 3.744,18.010 4.208,19.450 5.060 C 21.810 6.455,23.632 9.003,24.242 11.760 C 24.402 12.485,24.494 14.189,24.418 15.034 C 24.257 16.835,23.508 18.768,22.381 20.289 C 21.966 20.849,21.073 21.769,20.510 22.213 C 19.106 23.324,17.495 24.030,15.602 24.366 C 14.803 24.508,13.308 24.520,12.538 24.391 C 10.865 24.111,9.483 23.588,8.279 22.782 C 5.980 21.240,4.532 19.176,3.790 16.380 L 3.623 15.750 3.605 14.212 C 3.584 12.485,3.613 12.186,3.901 11.185 C 4.103 10.483,4.230 10.159,4.608 9.387 C 6.085 6.372,8.892 4.260,12.180 3.690 C 12.475 3.639,12.790 3.589,12.880 3.579 C 13.243 3.540,14.674 3.550,15.127 3.594 M19.845 9.310 C 19.660 9.390,18.788 10.237,14.878 14.134 L 11.860 17.143 10.235 15.541 C 9.341 14.659,8.505 13.855,8.377 13.754 C 8.153 13.576,8.135 13.570,7.872 13.594 C 7.168 13.658,6.836 14.323,7.217 14.908 C 7.344 15.105,10.543 18.313,11.166 18.869 C 11.504 19.171,11.538 19.190,11.793 19.212 C 12.037 19.233,12.084 19.221,12.273 19.094 C 12.520 18.928,18.767 12.746,19.986 11.461 C 20.447 10.976,20.863 10.514,20.912 10.434 C 21.139 10.061,20.925 9.591,20.417 9.351 C 20.149 9.225,20.056 9.218,19.845 9.310 " fill="#1A1C1F" stroke="none" fill-rule="evenodd"></path></svg>