<svg width="12" height="12" viewBox="0 0 12 12" fill="none" xmlns="http://www.w3.org/2000/svg"><path d="M5.520 1.241 C 4.995 1.270,4.417 1.440,3.841 1.735 C 2.383 2.482,1.448 3.813,1.237 5.440 C 1.200 5.727,1.206 6.383,1.248 6.660 C 1.410 7.724,1.871 8.633,2.639 9.402 C 3.070 9.833,3.487 10.121,4.038 10.369 C 4.683 10.659,5.286 10.788,6.000 10.789 C 6.766 10.790,7.403 10.644,8.090 10.310 C 9.512 9.618,10.512 8.247,10.753 6.660 C 10.800 6.347,10.800 5.703,10.753 5.360 C 10.633 4.486,10.283 3.674,9.733 2.990 C 9.446 2.633,8.933 2.184,8.515 1.923 C 7.897 1.539,7.087 1.270,6.480 1.248 C 5.946 1.230,5.761 1.228,5.520 1.241 M8.856 4.785 L 8.962 4.893 7.072 6.768 C 6.032 7.800,5.173 8.641,5.163 8.637 C 5.145 8.630,3.040 6.580,3.040 6.570 C 3.040 6.567,3.234 6.378,3.471 6.149 L 3.903 5.733 4.526 6.356 L 5.150 6.980 6.619 5.511 L 8.087 4.042 8.419 4.360 C 8.601 4.534,8.798 4.725,8.856 4.785 " fill="#1A1C1F" stroke="none" fill-rule="evenodd"></path></svg>