<svg width="12" height="12" viewBox="0 0 12 12" fill="none" xmlns="http://www.w3.org/2000/svg"><path d="M5.490 1.239 C 5.066 1.272,4.492 1.426,4.075 1.618 C 3.290 1.979,2.673 2.468,2.170 3.127 C 1.083 4.556,0.901 6.497,1.704 8.110 C 1.968 8.639,2.208 8.974,2.607 9.371 C 3.186 9.945,3.786 10.315,4.540 10.562 C 6.362 11.159,8.363 10.590,9.631 9.115 C 10.235 8.412,10.609 7.594,10.753 6.660 C 10.797 6.375,10.803 5.680,10.763 5.410 C 10.602 4.319,10.138 3.372,9.412 2.649 C 8.980 2.219,8.624 1.963,8.110 1.711 C 7.634 1.477,7.286 1.362,6.810 1.279 C 6.540 1.232,5.844 1.211,5.490 1.239 M5.185 4.295 L 6.020 5.130 6.345 4.810 C 6.524 4.634,6.906 4.256,7.195 3.970 L 7.720 3.450 8.145 3.875 L 8.570 4.300 7.720 5.150 L 6.870 6.000 7.720 6.850 L 8.570 7.700 8.145 8.125 L 7.720 8.550 6.870 7.700 L 6.020 6.850 5.175 7.695 L 4.330 8.540 3.912 8.122 L 3.494 7.703 4.265 6.917 C 4.690 6.484,5.061 6.101,5.090 6.065 L 5.144 6.000 5.090 5.935 C 5.061 5.899,4.690 5.516,4.265 5.083 L 3.494 4.297 3.912 3.878 C 4.142 3.648,4.334 3.460,4.340 3.460 C 4.345 3.460,4.726 3.836,5.185 4.295 " fill="#1A1C1F" stroke="none" fill-rule="evenodd"></path></svg>