<svg width="14" height="14" viewBox="0 0 14 14" fill="none" xmlns="http://www.w3.org/2000/svg"><path d="M6.382 1.446 C 5.901 1.486,5.233 1.667,4.754 1.887 C 3.596 2.420,2.742 3.196,2.116 4.282 C 1.813 4.809,1.563 5.543,1.456 6.218 C 1.399 6.576,1.399 7.423,1.456 7.782 C 1.657 9.055,2.233 10.168,3.138 11.032 C 3.759 11.625,4.447 12.038,5.262 12.308 C 6.413 12.690,7.565 12.694,8.703 12.321 C 9.581 12.033,10.266 11.615,10.919 10.967 C 11.837 10.057,12.348 9.034,12.557 7.688 C 12.601 7.403,12.595 6.578,12.545 6.253 C 12.377 5.140,11.947 4.193,11.234 3.364 C 10.606 2.633,9.817 2.089,8.878 1.738 C 8.569 1.622,8.090 1.503,7.816 1.473 C 7.505 1.439,6.660 1.423,6.382 1.446 M6.049 5.011 L 7.023 5.985 7.391 5.623 C 7.593 5.424,8.039 4.984,8.383 4.644 L 9.007 4.025 9.502 4.521 L 9.998 5.017 9.007 6.008 L 8.015 7.000 9.007 7.992 L 9.998 8.983 9.502 9.479 L 9.007 9.975 8.015 8.983 L 7.023 7.992 6.037 8.978 L 5.051 9.963 4.564 9.475 L 4.076 8.987 4.976 8.069 C 5.471 7.565,5.904 7.118,5.938 7.076 L 6.001 7.000 5.938 6.924 C 5.904 6.882,5.471 6.435,4.976 5.931 L 4.076 5.013 4.564 4.525 C 4.832 4.256,5.057 4.037,5.063 4.037 C 5.069 4.037,5.513 4.475,6.049 5.011 " fill="#1A1C1F" stroke="none" fill-rule="evenodd"></path></svg>