<svg width="16" height="16" viewBox="0 0 16 16" fill="none" xmlns="http://www.w3.org/2000/svg"><path d="M7.293 1.653 C 6.915 1.684,6.320 1.820,5.887 1.972 C 5.271 2.190,4.523 2.607,4.013 3.017 C 2.854 3.949,2.076 5.206,1.749 6.672 C 1.405 8.211,1.692 9.914,2.523 11.280 C 2.772 11.689,2.912 11.878,3.221 12.221 C 3.833 12.902,4.398 13.336,5.173 13.722 C 6.135 14.201,7.167 14.429,8.200 14.392 C 8.692 14.374,9.024 14.327,9.493 14.211 C 10.347 13.999,11.153 13.618,11.854 13.094 C 12.192 12.842,12.834 12.198,13.091 11.855 C 14.185 10.392,14.616 8.601,14.291 6.867 C 14.048 5.566,13.457 4.443,12.521 3.505 C 11.687 2.670,10.676 2.092,9.537 1.801 C 9.344 1.751,9.073 1.698,8.933 1.683 C 8.579 1.644,7.612 1.626,7.293 1.653 M6.913 5.726 L 8.026 6.840 8.460 6.413 C 8.698 6.179,9.208 5.675,9.593 5.294 L 10.293 4.600 10.860 5.167 L 11.426 5.733 10.293 6.867 L 9.160 8.000 10.293 9.133 L 11.426 10.267 10.860 10.833 L 10.293 11.400 9.160 10.267 L 8.027 9.134 6.900 10.260 L 5.773 11.387 5.216 10.829 L 4.658 10.271 5.701 9.209 C 6.274 8.625,6.769 8.114,6.800 8.073 L 6.857 8.000 6.800 7.927 C 6.769 7.886,6.274 7.375,5.701 6.791 L 4.658 5.729 5.215 5.171 C 5.522 4.864,5.779 4.613,5.786 4.613 C 5.794 4.613,6.301 5.114,6.913 5.726 " fill="#1A1C1F" stroke="none" fill-rule="evenodd"></path></svg>