<svg width="28" height="28" viewBox="0 0 28 28" fill="none" xmlns="http://www.w3.org/2000/svg"><path d="M12.997 1.803 C 11.833 1.936,11.042 2.101,10.163 2.395 C 5.663 3.900,2.460 7.799,1.845 12.521 C 1.762 13.159,1.750 14.509,1.822 15.220 C 2.013 17.115,2.733 19.135,3.775 20.701 C 5.729 23.636,8.604 25.494,12.110 26.090 C 12.835 26.213,14.094 26.254,15.024 26.185 C 17.373 26.012,19.699 25.087,21.607 23.566 C 22.191 23.101,23.096 22.204,23.537 21.653 C 24.875 19.982,25.792 17.888,26.111 15.773 C 26.284 14.628,26.242 12.800,26.018 11.691 C 25.510 9.186,24.414 7.140,22.613 5.341 C 20.814 3.543,18.374 2.293,15.966 1.936 C 15.301 1.837,13.432 1.754,12.997 1.803 M15.097 3.594 C 16.610 3.734,17.996 4.200,19.450 5.060 C 21.810 6.455,23.632 9.003,24.242 11.760 C 24.402 12.485,24.494 14.189,24.418 15.034 C 24.292 16.453,23.839 17.854,23.060 19.241 C 22.112 20.928,20.505 22.461,18.776 23.328 C 17.130 24.153,15.356 24.553,13.650 24.484 C 9.719 24.325,6.326 22.109,4.581 18.561 C 3.721 16.813,3.420 15.102,3.595 12.950 C 3.716 11.458,4.153 10.109,4.970 8.702 C 6.426 6.195,9.000 4.332,11.807 3.756 C 12.810 3.550,13.987 3.492,15.097 3.594 M9.319 8.838 C 9.221 8.875,9.100 8.941,9.051 8.985 C 8.894 9.127,8.773 9.440,8.773 9.705 L 8.773 9.954 9.274 10.472 C 9.549 10.757,10.445 11.666,11.266 12.492 L 12.758 13.995 11.057 15.713 C 9.261 17.528,8.793 18.036,8.747 18.220 C 8.703 18.393,8.849 18.829,9.002 18.981 C 9.161 19.140,9.420 19.227,9.739 19.227 L 9.970 19.227 11.989 17.236 L 14.007 15.245 15.485 16.713 C 17.374 18.590,17.934 19.119,18.133 19.214 C 18.282 19.285,18.311 19.285,18.544 19.211 C 18.683 19.168,18.853 19.087,18.924 19.031 C 19.185 18.825,19.297 18.366,19.164 18.046 C 19.127 17.959,18.284 17.070,17.175 15.948 L 15.250 14.000 17.059 12.168 C 18.054 11.161,18.949 10.235,19.048 10.111 C 19.201 9.918,19.227 9.851,19.227 9.654 C 19.227 9.235,19.005 8.926,18.630 8.822 C 18.339 8.741,18.183 8.764,17.941 8.925 C 17.815 9.008,16.877 9.903,15.856 10.914 L 14.001 12.751 12.172 10.945 C 11.166 9.952,10.251 9.064,10.140 8.972 C 9.903 8.779,9.609 8.731,9.319 8.838 " fill="#1A1C1F" stroke="none" fill-rule="evenodd"></path></svg>