<svg width="28" height="28" viewBox="0 0 28 28" fill="none" xmlns="http://www.w3.org/2000/svg"><path d="M12.997 1.803 C 11.833 1.936,11.042 2.101,10.163 2.395 C 5.663 3.900,2.460 7.799,1.845 12.521 C 1.762 13.159,1.750 14.509,1.822 15.220 C 2.013 17.115,2.733 19.135,3.775 20.701 C 5.729 23.636,8.604 25.494,12.110 26.090 C 12.835 26.213,14.094 26.254,15.024 26.185 C 17.373 26.012,19.699 25.087,21.607 23.566 C 22.191 23.101,23.096 22.204,23.537 21.653 C 24.875 19.982,25.792 17.888,26.111 15.773 C 26.284 14.628,26.242 12.800,26.018 11.691 C 25.510 9.186,24.414 7.140,22.613 5.341 C 20.814 3.543,18.374 2.293,15.966 1.936 C 15.301 1.837,13.432 1.754,12.997 1.803 M9.605 8.506 C 9.699 8.568,10.727 9.559,11.889 10.708 L 14.000 12.797 16.112 10.707 C 17.273 9.557,18.317 8.558,18.431 8.485 C 18.931 8.168,19.497 8.414,19.648 9.014 C 19.694 9.200,19.690 9.256,19.620 9.404 C 19.523 9.608,18.820 10.350,16.737 12.445 L 15.197 13.994 17.331 16.150 C 18.536 17.368,19.504 18.384,19.556 18.484 C 19.675 18.718,19.675 19.064,19.555 19.260 C 19.350 19.596,18.868 19.776,18.577 19.625 C 18.387 19.527,17.738 18.907,15.645 16.826 L 14.000 15.190 12.285 16.896 C 10.109 19.060,9.596 19.546,9.390 19.632 C 9.210 19.707,8.983 19.685,8.762 19.571 C 8.574 19.474,8.363 19.159,8.328 18.923 C 8.276 18.578,8.407 18.427,11.170 15.648 L 12.803 14.006 10.710 11.892 C 9.559 10.728,8.558 9.683,8.485 9.569 C 8.104 8.971,8.600 8.213,9.278 8.358 C 9.363 8.377,9.510 8.443,9.605 8.506 " fill="#1A1C1F" stroke="none" fill-rule="evenodd"></path></svg>