<svg width="24" height="24" viewBox="0 0 24 24" fill="none" xmlns="http://www.w3.org/2000/svg"><path d="M10.960 2.066 C 9.942 2.221,9.393 2.348,8.723 2.581 C 7.652 2.954,6.559 3.555,5.712 4.235 C 5.295 4.571,4.590 5.282,4.232 5.727 C 3.127 7.101,2.324 8.939,2.094 10.620 C 2.004 11.274,2.004 12.726,2.094 13.380 C 2.267 14.646,2.844 16.206,3.557 17.339 C 4.346 18.591,5.545 19.778,6.760 20.507 C 7.785 21.122,9.015 21.599,10.192 21.838 C 11.168 22.036,12.892 22.026,13.913 21.817 C 14.676 21.661,15.640 21.327,16.380 20.961 C 19.110 19.612,20.996 17.264,21.715 14.320 C 22.364 11.661,21.865 8.841,20.329 6.500 C 19.895 5.839,19.621 5.511,18.954 4.858 C 18.327 4.244,18.103 4.062,17.500 3.672 C 16.114 2.779,14.515 2.211,13.020 2.082 C 12.569 2.043,11.180 2.033,10.960 2.066 M12.840 4.084 C 14.138 4.200,15.298 4.623,16.500 5.421 C 18.173 6.531,19.391 8.367,19.829 10.439 C 19.928 10.906,19.935 11.011,19.937 11.980 C 19.938 12.909,19.928 13.069,19.846 13.478 C 18.837 18.512,13.549 21.343,8.880 19.349 C 6.611 18.380,4.915 16.395,4.249 13.930 L 4.101 13.380 4.101 12.000 L 4.101 10.620 4.247 10.080 C 4.790 8.073,5.935 6.457,7.592 5.358 C 8.438 4.798,9.414 4.385,10.340 4.198 C 11.296 4.004,11.723 3.984,12.840 4.084 M8.193 7.576 C 8.001 7.644,7.746 7.849,7.642 8.016 C 7.542 8.179,7.500 8.450,7.538 8.699 C 7.575 8.945,7.738 9.132,9.314 10.728 L 10.575 12.005 9.516 13.072 C 7.577 15.026,7.523 15.092,7.521 15.484 C 7.520 15.720,7.582 15.902,7.730 16.091 C 7.961 16.386,8.387 16.547,8.738 16.472 C 8.946 16.428,9.289 16.117,10.947 14.467 L 11.995 13.426 13.376 14.789 C 14.144 15.546,14.867 16.225,15.004 16.316 C 15.219 16.460,15.277 16.480,15.477 16.480 C 16.160 16.480,16.670 15.772,16.419 15.172 C 16.326 14.950,16.086 14.685,14.705 13.291 L 13.429 12.002 14.761 10.651 C 15.494 9.908,16.162 9.213,16.246 9.108 C 16.437 8.866,16.495 8.657,16.461 8.336 C 16.427 8.016,16.336 7.853,16.101 7.691 C 15.923 7.568,15.890 7.560,15.574 7.560 C 15.380 7.560,15.182 7.583,15.107 7.615 C 14.954 7.678,14.410 8.188,13.013 9.575 L 12.005 10.574 10.655 9.242 C 9.912 8.509,9.217 7.840,9.110 7.756 C 8.818 7.525,8.507 7.464,8.193 7.576 " fill="#1A1C1F" stroke="none" fill-rule="evenodd"></path></svg>