<svg width="32" height="32" viewBox="0 0 32 32" fill="none" xmlns="http://www.w3.org/2000/svg"><path d="M14.773 2.065 C 14.301 2.103,13.202 2.298,12.591 2.452 C 10.214 3.052,8.054 4.259,6.246 5.998 C 4.108 8.054,2.623 10.942,2.159 13.947 C 2.041 14.712,1.995 16.635,2.077 17.390 C 2.371 20.101,3.416 22.643,5.100 24.747 C 5.566 25.329,6.671 26.434,7.253 26.900 C 9.235 28.486,11.556 29.486,14.160 29.875 C 14.886 29.983,17.240 29.966,18.027 29.846 C 18.798 29.728,20.085 29.402,20.777 29.148 C 21.535 28.870,22.920 28.177,23.573 27.747 C 24.747 26.976,26.069 25.783,26.899 24.747 C 28.432 22.834,29.477 20.447,29.842 18.027 C 29.959 17.248,29.998 15.805,29.927 14.847 C 29.764 12.630,28.987 10.318,27.792 8.496 C 25.786 5.437,22.847 3.320,19.397 2.449 C 18.507 2.225,17.904 2.145,16.613 2.082 C 15.516 2.028,15.258 2.026,14.773 2.065 M17.932 4.181 C 18.904 4.336,19.720 4.582,20.789 5.042 C 23.563 6.239,25.735 8.416,26.994 11.264 C 27.764 13.007,28.029 14.640,27.906 16.885 C 27.850 17.893,27.824 18.080,27.634 18.832 C 26.713 22.467,24.170 25.519,20.880 26.934 C 18.435 27.986,16.112 28.251,13.665 27.758 C 11.893 27.400,9.879 26.465,8.565 25.390 C 7.640 24.634,6.809 23.759,6.229 22.933 C 5.341 21.667,4.559 19.850,4.238 18.308 C 4.116 17.723,4.107 17.571,4.107 16.074 C 4.107 14.319,4.141 13.982,4.428 12.942 C 4.850 11.419,5.530 10.018,6.461 8.761 C 6.947 8.104,8.114 6.937,8.774 6.447 C 9.663 5.788,10.632 5.251,11.682 4.837 C 12.585 4.481,13.438 4.268,14.693 4.085 C 15.061 4.032,17.434 4.102,17.932 4.181 M10.720 10.063 C 10.341 10.139,10.027 10.606,10.027 11.091 L 10.027 11.376 10.599 11.968 C 10.913 12.294,11.938 13.333,12.875 14.277 L 14.580 15.994 12.637 17.958 C 10.584 20.032,10.049 20.613,9.996 20.823 C 9.947 21.020,10.114 21.519,10.288 21.693 C 10.469 21.875,10.766 21.973,11.130 21.973 L 11.394 21.973 13.701 19.698 L 16.008 17.422 17.698 19.101 C 19.856 21.246,20.496 21.850,20.723 21.959 C 20.893 22.040,20.927 22.040,21.194 21.956 C 21.560 21.840,21.748 21.691,21.872 21.418 C 21.995 21.147,22.000 20.846,21.886 20.605 C 21.837 20.503,20.814 19.425,19.612 18.209 L 17.426 15.998 19.477 13.930 C 21.443 11.946,21.917 11.425,21.998 11.158 C 22.055 10.970,21.879 10.486,21.688 10.303 C 21.507 10.131,21.211 10.027,20.898 10.027 C 20.752 10.027,20.638 10.078,20.445 10.231 C 20.303 10.344,19.245 11.366,18.093 12.504 L 16.000 14.571 13.910 12.508 C 12.761 11.373,11.716 10.359,11.588 10.254 C 11.351 10.060,11.056 9.995,10.720 10.063 " fill="#1A1C1F" stroke="none" fill-rule="evenodd"></path></svg>