<svg width="20" height="20" viewBox="0 0 20 20" fill="none" xmlns="http://www.w3.org/2000/svg"><path d="M9.117 2.066 C 8.429 2.123,7.475 2.382,6.791 2.696 C 5.483 3.298,4.454 4.113,3.617 5.212 C 2.714 6.398,2.132 7.941,2.030 9.415 C 1.816 12.528,3.365 15.394,6.117 16.977 C 6.892 17.422,7.918 17.767,8.933 17.923 C 9.464 18.004,10.570 18.004,11.100 17.921 C 14.411 17.409,17.013 15.029,17.779 11.815 C 18.224 9.943,17.953 7.890,17.041 6.233 C 16.219 4.739,15.010 3.579,13.517 2.850 C 12.685 2.444,11.849 2.179,11.167 2.104 C 10.723 2.055,9.515 2.033,9.117 2.066 M8.641 7.158 L 10.033 8.549 10.558 8.033 C 10.847 7.749,11.485 7.119,11.975 6.634 L 12.867 5.750 13.575 6.458 L 14.283 7.167 12.867 8.583 L 11.450 10.000 12.867 11.417 L 14.283 12.833 13.575 13.542 L 12.867 14.250 11.450 12.833 L 10.033 11.417 8.625 12.825 L 7.216 14.233 6.519 13.536 L 5.823 12.839 7.108 11.528 C 7.816 10.807,8.434 10.168,8.483 10.108 L 8.573 10.000 8.483 9.892 C 8.434 9.832,7.816 9.193,7.108 8.472 L 5.823 7.161 6.519 6.464 C 6.903 6.080,7.224 5.767,7.233 5.767 C 7.242 5.767,7.876 6.393,8.641 7.158 " fill="#1A1C1F" stroke="none" fill-rule="evenodd"></path></svg>