<svg width="28" height="28" viewBox="0 0 28 28" fill="none" xmlns="http://www.w3.org/2000/svg"><path d="M13.259 2.314 C 13.120 2.351,12.887 2.445,12.741 2.523 C 12.457 2.675,11.927 3.166,11.715 3.475 C 11.526 3.750,3.250 19.581,2.355 21.379 L 1.830 22.434 1.799 22.872 C 1.732 23.829,1.921 24.368,2.543 24.991 C 2.978 25.427,3.367 25.642,3.859 25.720 C 4.259 25.783,19.815 25.827,22.517 25.773 L 24.383 25.735 24.751 25.561 C 25.216 25.339,25.722 24.852,25.944 24.412 C 26.252 23.802,26.317 22.982,26.104 22.391 C 25.885 21.783,25.177 20.409,19.144 8.890 C 16.544 3.926,16.387 3.635,16.127 3.283 C 15.781 2.816,15.165 2.399,14.663 2.292 C 14.323 2.220,13.563 2.232,13.259 2.314 M14.358 7.917 C 14.447 7.959,14.592 8.088,14.680 8.203 L 14.840 8.413 14.840 12.989 L 14.840 17.565 14.723 17.734 C 14.372 18.241,13.632 18.247,13.285 17.746 L 13.160 17.565 13.160 12.989 L 13.160 8.413 13.320 8.204 C 13.407 8.089,13.549 7.961,13.635 7.919 C 13.835 7.820,14.152 7.819,14.358 7.917 M14.462 19.984 C 14.654 20.042,14.975 20.353,15.086 20.587 C 15.203 20.833,15.194 21.333,15.069 21.591 C 14.937 21.865,14.603 22.148,14.299 22.244 C 14.085 22.312,14.015 22.314,13.791 22.264 C 13.488 22.196,13.200 21.994,12.998 21.706 C 12.865 21.518,12.857 21.478,12.857 21.074 C 12.857 20.674,12.867 20.628,12.991 20.448 C 13.153 20.214,13.485 19.985,13.715 19.948 C 13.808 19.933,13.915 19.915,13.953 19.907 C 14.045 19.891,14.264 19.923,14.462 19.984 " fill="#1A1C1F" stroke="none" fill-rule="evenodd"></path></svg>