<svg width="28" height="28" viewBox="0 0 28 28" fill="none" xmlns="http://www.w3.org/2000/svg"><path d="M13.259 2.314 C 13.120 2.351,12.887 2.445,12.741 2.523 C 12.457 2.675,11.927 3.166,11.715 3.475 C 11.526 3.750,3.250 19.581,2.355 21.379 L 1.830 22.434 1.799 22.872 C 1.732 23.829,1.921 24.368,2.543 24.991 C 2.978 25.427,3.367 25.642,3.859 25.720 C 4.259 25.783,19.815 25.827,22.517 25.773 L 24.383 25.735 24.751 25.561 C 25.216 25.339,25.722 24.852,25.944 24.412 C 26.252 23.802,26.317 22.982,26.104 22.391 C 25.885 21.783,25.177 20.409,19.144 8.890 C 16.544 3.926,16.387 3.635,16.127 3.283 C 15.781 2.816,15.165 2.399,14.663 2.292 C 14.323 2.220,13.563 2.232,13.259 2.314 M14.246 3.891 C 14.329 3.926,14.452 4.016,14.519 4.089 C 14.674 4.259,18.055 10.656,22.421 19.040 C 24.565 23.158,24.596 23.231,24.344 23.610 C 24.278 23.710,24.146 23.852,24.050 23.925 L 23.877 24.057 14.004 24.057 L 4.130 24.057 3.961 23.942 C 3.628 23.717,3.452 23.322,3.548 23.016 C 3.667 22.636,4.519 20.984,8.365 13.673 C 12.483 5.846,13.257 4.394,13.436 4.157 C 13.669 3.849,13.940 3.760,14.246 3.891 M13.630 8.430 C 13.454 8.518,13.344 8.615,13.248 8.766 L 13.113 8.978 13.113 13.207 L 13.113 17.435 13.248 17.647 C 13.457 17.976,13.632 18.078,13.997 18.081 C 14.366 18.084,14.538 17.983,14.735 17.649 L 14.863 17.430 14.880 13.265 C 14.889 10.974,14.884 9.048,14.868 8.984 C 14.822 8.800,14.558 8.535,14.304 8.416 C 14.006 8.278,13.933 8.279,13.630 8.430 M13.370 20.074 C 13.095 20.258,12.852 20.633,12.806 20.943 C 12.728 21.458,13.144 22.068,13.687 22.240 C 13.915 22.312,13.983 22.315,14.208 22.265 C 14.583 22.181,14.879 21.964,15.040 21.653 C 15.162 21.421,15.173 21.361,15.159 21.016 C 15.145 20.680,15.126 20.611,15.002 20.434 C 14.924 20.323,14.772 20.170,14.663 20.093 C 14.485 19.968,14.421 19.952,14.034 19.936 C 13.610 19.917,13.600 19.919,13.370 20.074 " fill="#1A1C1F" stroke="none" fill-rule="evenodd"></path></svg>