<svg width="14" height="14" viewBox="0 0 14 14" fill="none" xmlns="http://www.w3.org/2000/svg"><path d="M6.382 1.446 C 5.901 1.486,5.233 1.667,4.754 1.887 C 3.596 2.420,2.742 3.196,2.116 4.282 C 1.813 4.809,1.563 5.543,1.456 6.218 C 1.399 6.576,1.399 7.423,1.456 7.782 C 1.657 9.055,2.233 10.168,3.138 11.032 C 3.759 11.625,4.447 12.038,5.262 12.308 C 6.413 12.690,7.565 12.694,8.703 12.321 C 9.581 12.033,10.266 11.615,10.919 10.967 C 11.837 10.057,12.348 9.034,12.557 7.688 C 12.601 7.403,12.595 6.578,12.545 6.253 C 12.377 5.140,11.947 4.193,11.234 3.364 C 10.606 2.633,9.817 2.089,8.878 1.738 C 8.569 1.622,8.090 1.503,7.816 1.473 C 7.505 1.439,6.660 1.423,6.382 1.446 M7.327 2.825 C 8.187 2.904,8.970 3.213,9.625 3.735 C 10.379 4.334,10.911 5.220,11.111 6.211 C 11.158 6.443,11.165 6.541,11.164 7.012 C 11.162 7.505,11.157 7.573,11.098 7.851 C 11.013 8.253,10.947 8.445,10.769 8.809 C 10.329 9.704,9.682 10.359,8.832 10.768 C 7.631 11.346,6.312 11.337,5.122 10.744 C 4.703 10.535,4.431 10.336,4.059 9.964 C 3.696 9.601,3.496 9.331,3.281 8.913 C 3.046 8.457,2.906 8.007,2.845 7.507 C 2.804 7.173,2.828 6.516,2.892 6.196 C 3.228 4.521,4.489 3.254,6.176 2.894 C 6.578 2.808,6.919 2.787,7.327 2.825 M6.300 5.950 L 6.300 7.700 7.000 7.700 L 7.700 7.700 7.700 5.950 L 7.700 4.200 7.000 4.200 L 6.300 4.200 6.300 5.950 M6.837 8.432 C 6.644 8.483,6.426 8.667,6.354 8.840 C 6.335 8.884,6.321 8.996,6.321 9.094 C 6.321 9.309,6.393 9.475,6.541 9.603 C 6.709 9.748,6.804 9.786,7.000 9.786 C 7.143 9.786,7.196 9.775,7.292 9.725 C 7.427 9.654,7.558 9.525,7.628 9.392 C 7.694 9.266,7.696 8.946,7.632 8.808 C 7.508 8.541,7.120 8.358,6.837 8.432 " fill="#1A1C1F" stroke="none" fill-rule="evenodd"></path></svg>