<svg width="16" height="16" viewBox="0 0 16 16" fill="none" xmlns="http://www.w3.org/2000/svg"><path d="M7.293 1.653 C 6.915 1.684,6.320 1.820,5.887 1.972 C 5.271 2.190,4.523 2.607,4.013 3.017 C 2.854 3.949,2.076 5.206,1.749 6.672 C 1.405 8.211,1.692 9.914,2.523 11.280 C 2.772 11.689,2.912 11.878,3.221 12.221 C 3.833 12.902,4.398 13.336,5.173 13.722 C 6.135 14.201,7.167 14.429,8.200 14.392 C 8.692 14.374,9.024 14.327,9.493 14.211 C 10.347 13.999,11.153 13.618,11.854 13.094 C 12.192 12.842,12.834 12.198,13.091 11.855 C 14.185 10.392,14.616 8.601,14.291 6.867 C 14.048 5.566,13.457 4.443,12.521 3.505 C 11.687 2.670,10.676 2.092,9.537 1.801 C 9.344 1.751,9.073 1.698,8.933 1.683 C 8.579 1.644,7.612 1.626,7.293 1.653 M8.373 3.228 C 10.561 3.429,12.264 4.953,12.699 7.098 C 12.752 7.363,12.760 7.476,12.759 8.013 C 12.757 8.578,12.752 8.654,12.684 8.973 C 12.564 9.538,12.409 9.932,12.097 10.462 C 11.354 11.724,10.068 12.561,8.564 12.761 C 7.281 12.932,5.852 12.489,4.845 11.608 C 4.181 11.027,3.645 10.174,3.389 9.292 C 3.177 8.564,3.167 7.585,3.361 6.821 C 3.491 6.314,3.738 5.768,4.049 5.304 C 4.830 4.140,6.188 3.344,7.587 3.229 C 7.976 3.197,8.036 3.197,8.373 3.228 M7.200 6.800 L 7.200 8.800 8.000 8.800 L 8.800 8.800 8.800 6.800 L 8.800 4.800 8.000 4.800 L 7.200 4.800 7.200 6.800 M7.808 9.638 C 7.588 9.696,7.344 9.903,7.261 10.103 C 7.203 10.241,7.211 10.556,7.275 10.702 C 7.438 11.070,7.852 11.270,8.226 11.161 C 8.411 11.108,8.623 10.923,8.718 10.732 C 8.795 10.578,8.803 10.256,8.734 10.091 C 8.601 9.772,8.146 9.549,7.808 9.638 " fill="#1A1C1F" stroke="none" fill-rule="evenodd"></path></svg>