<svg width="20" height="20" viewBox="0 0 20 20" fill="none" xmlns="http://www.w3.org/2000/svg"><path d="M9.571 2.086 C 9.284 2.163,8.966 2.350,8.652 2.626 L 8.360 2.883 5.403 8.850 C 3.776 12.132,2.372 14.974,2.284 15.167 C 2.128 15.505,2.122 15.529,2.108 15.883 C 2.090 16.314,2.142 16.563,2.321 16.903 C 2.548 17.336,2.937 17.674,3.462 17.896 L 3.707 18.000 9.545 17.998 C 12.756 17.997,15.646 17.984,15.967 17.968 C 16.434 17.946,16.587 17.926,16.738 17.869 C 16.984 17.776,17.340 17.474,17.552 17.179 C 17.781 16.860,17.869 16.582,17.891 16.115 C 17.911 15.696,17.880 15.552,17.669 15.073 C 17.452 14.582,14.328 8.178,12.535 4.551 L 11.696 2.853 11.440 2.601 C 11.030 2.200,10.617 2.031,10.051 2.036 C 9.886 2.037,9.669 2.059,9.571 2.086 M13.098 10.044 C 14.719 13.282,16.034 15.944,16.020 15.958 C 15.988 15.990,4.181 15.992,4.149 15.960 C 4.113 15.925,9.711 4.712,10.001 4.239 C 10.038 4.178,10.087 4.134,10.109 4.142 C 10.132 4.149,11.476 6.805,13.098 10.044 M9.067 10.000 L 9.067 12.000 10.083 12.000 L 11.100 12.000 11.100 10.000 L 11.100 8.000 10.083 8.000 L 9.067 8.000 9.067 10.000 M9.757 13.079 C 8.930 13.387,8.870 14.502,9.660 14.890 C 9.904 15.010,10.236 15.019,10.467 14.912 C 10.653 14.825,10.922 14.567,10.986 14.415 C 11.180 13.950,10.991 13.406,10.542 13.144 C 10.357 13.035,9.962 13.003,9.757 13.079 " fill="#1A1C1F" stroke="none" fill-rule="evenodd"></path></svg>