<svg width="20" height="20" viewBox="0 0 20 20" fill="none" xmlns="http://www.w3.org/2000/svg"><path d="M9.117 2.066 C 8.429 2.123,7.475 2.382,6.791 2.696 C 5.483 3.298,4.454 4.113,3.617 5.212 C 2.714 6.398,2.132 7.941,2.030 9.415 C 1.816 12.528,3.365 15.394,6.117 16.977 C 6.892 17.422,7.918 17.767,8.933 17.923 C 9.464 18.004,10.570 18.004,11.100 17.921 C 14.411 17.409,17.013 15.029,17.779 11.815 C 18.224 9.943,17.953 7.890,17.041 6.233 C 16.219 4.739,15.010 3.579,13.517 2.850 C 12.685 2.444,11.849 2.179,11.167 2.104 C 10.723 2.055,9.515 2.033,9.117 2.066 M11.000 8.500 L 11.000 11.000 10.000 11.000 L 9.000 11.000 9.000 8.500 L 9.000 6.000 10.000 6.000 L 11.000 6.000 11.000 8.500 M10.460 12.353 C 10.783 12.514,10.967 12.829,10.967 13.222 C 10.967 13.595,10.779 13.889,10.428 14.064 C 9.942 14.307,9.395 14.126,9.142 13.638 C 9.050 13.461,9.033 13.392,9.033 13.200 C 9.033 12.916,9.108 12.732,9.302 12.542 C 9.525 12.323,9.667 12.267,10.002 12.267 C 10.242 12.267,10.314 12.280,10.460 12.353 " fill="#1A1C1F" stroke="none" fill-rule="evenodd"></path></svg>