<svg width="32" height="32" viewBox="0 0 32 32" fill="none" xmlns="http://www.w3.org/2000/svg"><path d="M15.153 2.644 C 14.995 2.687,14.729 2.794,14.561 2.884 C 14.236 3.057,13.630 3.619,13.388 3.972 C 13.173 4.286,3.714 22.378,2.691 24.433 C 2.103 25.614,2.090 25.650,2.052 26.103 C 1.962 27.179,2.195 27.849,2.906 28.561 C 3.403 29.059,3.847 29.305,4.410 29.395 C 4.659 29.434,8.340 29.460,16.150 29.476 C 26.746 29.498,27.546 29.493,27.804 29.409 C 28.299 29.247,28.710 29.006,29.051 28.679 C 29.745 28.012,29.932 27.540,29.938 26.437 L 29.942 25.701 29.187 24.197 C 28.388 22.607,26.603 19.179,22.213 10.800 C 18.811 4.307,18.730 4.156,18.434 3.756 C 18.036 3.218,17.333 2.742,16.757 2.620 C 16.369 2.538,15.500 2.551,15.153 2.644 M16.396 4.499 C 16.467 4.546,16.585 4.663,16.657 4.759 C 16.903 5.086,25.063 20.612,27.108 24.642 C 28.019 26.439,28.071 26.607,27.822 26.983 C 27.746 27.097,27.595 27.259,27.486 27.342 L 27.288 27.493 16.004 27.493 L 4.720 27.493 4.527 27.363 C 4.147 27.105,3.946 26.654,4.055 26.304 C 4.191 25.870,5.166 23.979,9.561 15.627 C 15.486 4.364,15.312 4.683,15.653 4.468 C 15.841 4.350,16.190 4.364,16.396 4.499 M15.578 9.634 C 15.376 9.735,15.250 9.845,15.141 10.018 L 14.987 10.261 14.987 15.093 L 14.987 19.926 15.140 20.168 C 15.379 20.545,15.579 20.660,15.996 20.664 C 16.418 20.667,16.615 20.552,16.840 20.170 L 16.987 19.920 17.005 15.158 C 17.016 12.540,17.009 10.338,16.991 10.266 C 16.939 10.057,16.637 9.754,16.347 9.619 C 16.007 9.460,15.924 9.462,15.578 9.634 M15.290 22.933 C 14.854 23.209,14.559 23.839,14.640 24.320 C 14.721 24.802,15.243 25.329,15.750 25.442 C 16.317 25.569,16.939 25.259,17.204 24.716 C 17.489 24.133,17.364 23.470,16.892 23.067 C 16.626 22.839,16.409 22.774,15.917 22.774 C 15.591 22.773,15.508 22.794,15.290 22.933 " fill="#1A1C1F" stroke="none" fill-rule="evenodd"></path></svg>