<svg width="16" height="16" viewBox="0 0 16 16" fill="none" xmlns="http://www.w3.org/2000/svg"><path d="M7.626 1.677 C 7.384 1.754,7.167 1.885,6.921 2.102 L 6.689 2.307 4.336 7.053 C 3.042 9.664,1.919 11.937,1.840 12.105 C 1.698 12.407,1.696 12.414,1.685 12.705 C 1.673 13.052,1.714 13.251,1.857 13.523 C 2.038 13.869,2.341 14.131,2.773 14.317 L 2.973 14.403 8.013 14.393 C 13.531 14.382,13.260 14.390,13.530 14.229 C 13.801 14.068,14.087 13.740,14.207 13.453 C 14.336 13.145,14.353 12.620,14.245 12.316 C 14.216 12.234,14.072 11.916,13.925 11.610 C 13.414 10.541,11.054 5.716,10.001 3.587 L 9.354 2.280 9.151 2.080 C 8.931 1.864,8.717 1.740,8.440 1.668 C 8.224 1.612,7.816 1.616,7.626 1.677 M10.478 8.035 C 11.775 10.626,12.827 12.755,12.816 12.766 C 12.791 12.792,3.345 12.794,3.320 12.768 C 3.291 12.740,7.650 4.009,7.975 3.445 C 8.020 3.367,8.071 3.308,8.088 3.313 C 8.106 3.319,9.181 5.444,10.478 8.035 M7.253 8.000 L 7.253 9.600 8.067 9.600 L 8.880 9.600 8.880 8.000 L 8.880 6.400 8.067 6.400 L 7.253 6.400 7.253 8.000 M7.805 10.464 C 7.144 10.710,7.096 11.602,7.728 11.912 C 7.923 12.008,8.188 12.015,8.373 11.930 C 8.555 11.846,8.765 11.620,8.813 11.458 C 8.924 11.087,8.773 10.714,8.434 10.515 C 8.286 10.428,7.970 10.402,7.805 10.464 " fill="#1A1C1F" stroke="none" fill-rule="evenodd"></path></svg>