<svg width="12" height="12" viewBox="0 0 12 12" fill="none" xmlns="http://www.w3.org/2000/svg"><path d="M5.490 1.239 C 5.268 1.256,5.159 1.276,4.818 1.361 C 4.406 1.464,4.108 1.584,3.676 1.821 C 2.641 2.391,1.864 3.314,1.469 4.444 C 0.974 5.860,1.180 7.406,2.034 8.684 C 2.506 9.391,3.265 10.031,4.033 10.369 C 5.333 10.941,6.689 10.939,7.980 10.363 C 9.014 9.901,9.920 8.987,10.379 7.942 C 10.671 7.279,10.789 6.718,10.789 6.000 C 10.789 5.265,10.664 4.683,10.362 4.020 C 10.130 3.510,9.815 3.055,9.420 2.659 C 8.986 2.223,8.630 1.966,8.110 1.711 C 7.634 1.477,7.286 1.362,6.810 1.279 C 6.540 1.232,5.844 1.211,5.490 1.239 M6.260 2.420 C 6.734 2.461,7.127 2.566,7.538 2.762 C 7.931 2.949,8.226 3.153,8.514 3.434 C 9.017 3.927,9.378 4.602,9.524 5.323 C 9.564 5.521,9.570 5.609,9.570 6.010 C 9.570 6.410,9.564 6.500,9.524 6.695 C 9.373 7.440,8.933 8.209,8.382 8.694 C 7.613 9.368,6.553 9.698,5.572 9.570 C 4.933 9.486,4.326 9.240,3.832 8.865 C 3.670 8.742,3.363 8.444,3.221 8.270 C 2.799 7.757,2.520 7.102,2.439 6.434 C 2.401 6.127,2.425 5.567,2.488 5.269 C 2.621 4.638,2.916 4.056,3.341 3.587 C 3.927 2.941,4.801 2.504,5.670 2.422 C 5.927 2.398,6.002 2.398,6.260 2.420 M5.400 5.100 L 5.400 6.600 6.000 6.600 L 6.600 6.600 6.600 5.100 L 6.600 3.600 6.000 3.600 L 5.400 3.600 5.400 5.100 M5.856 7.229 C 5.740 7.259,5.617 7.342,5.529 7.450 C 5.438 7.561,5.420 7.618,5.420 7.797 C 5.420 7.988,5.478 8.119,5.614 8.239 C 5.853 8.450,6.157 8.450,6.387 8.239 C 6.539 8.101,6.582 8.005,6.582 7.804 C 6.583 7.612,6.550 7.522,6.436 7.407 C 6.288 7.255,6.041 7.180,5.856 7.229 " fill="#1A1C1F" stroke="none" fill-rule="evenodd"></path></svg>