<svg width="20" height="20" viewBox="0 0 20 20" fill="none" xmlns="http://www.w3.org/2000/svg"><path d="M9.540 2.069 C 9.203 2.135,8.655 2.509,8.415 2.836 C 8.254 3.054,7.407 4.721,4.753 10.033 C 1.955 15.635,1.980 15.582,2.009 16.050 C 2.057 16.819,2.499 17.454,3.233 17.812 L 3.517 17.950 4.583 17.972 C 5.170 17.984,7.607 17.993,10.000 17.993 C 12.392 17.993,14.830 17.984,15.417 17.972 L 16.483 17.950 16.743 17.826 C 17.314 17.553,17.671 17.170,17.885 16.599 C 17.966 16.383,17.978 16.302,17.979 15.983 C 17.980 15.649,17.971 15.595,17.878 15.367 C 17.706 14.949,17.003 13.512,14.297 8.050 L 11.705 2.817 11.444 2.591 C 11.301 2.467,11.065 2.304,10.921 2.229 C 10.686 2.106,10.623 2.089,10.321 2.064 C 9.914 2.030,9.730 2.032,9.540 2.069 M11.000 9.000 L 11.000 12.000 10.000 12.000 L 9.000 12.000 9.000 9.000 L 9.000 6.000 10.000 6.000 L 11.000 6.000 11.000 9.000 M10.454 14.060 C 10.620 14.145,10.852 14.394,10.935 14.577 C 10.982 14.679,10.999 14.794,10.999 15.005 C 11.000 15.286,10.997 15.297,10.864 15.497 C 10.703 15.737,10.520 15.873,10.253 15.951 C 9.841 16.070,9.378 15.881,9.127 15.490 C 9.020 15.323,9.017 15.308,9.017 14.967 C 9.017 14.626,9.020 14.610,9.127 14.443 C 9.272 14.217,9.483 14.057,9.717 13.995 C 9.891 13.950,10.309 13.986,10.454 14.060 " fill="#1A1C1F" stroke="none" fill-rule="evenodd"></path></svg>