<svg width="20" height="20" viewBox="0 0 20 20" fill="none" xmlns="http://www.w3.org/2000/svg"><path d="M9.117 2.066 C 8.429 2.123,7.475 2.382,6.791 2.696 C 5.483 3.298,4.454 4.113,3.617 5.212 C 2.714 6.398,2.132 7.941,2.030 9.415 C 1.816 12.528,3.365 15.394,6.117 16.977 C 6.892 17.422,7.918 17.767,8.933 17.923 C 9.464 18.004,10.570 18.004,11.100 17.921 C 14.411 17.409,17.013 15.029,17.779 11.815 C 18.224 9.943,17.953 7.890,17.041 6.233 C 16.219 4.739,15.010 3.579,13.517 2.850 C 12.685 2.444,11.849 2.179,11.167 2.104 C 10.723 2.055,9.515 2.033,9.117 2.066 M10.433 4.034 C 12.639 4.225,14.468 5.481,15.399 7.443 C 15.630 7.929,15.767 8.329,15.872 8.820 C 15.941 9.143,15.950 9.270,15.949 9.967 C 15.948 10.841,15.895 11.235,15.699 11.837 C 15.481 12.509,14.988 13.375,14.488 13.964 C 13.330 15.330,11.334 16.138,9.525 15.973 C 8.455 15.876,7.396 15.494,6.567 14.909 C 6.158 14.620,5.415 13.877,5.124 13.467 C 4.668 12.823,4.298 11.962,4.128 11.149 C 4.061 10.829,4.051 10.687,4.050 10.017 C 4.050 9.348,4.060 9.202,4.127 8.872 C 4.394 7.552,5.127 6.275,6.076 5.479 C 7.165 4.565,8.513 4.045,9.900 4.005 C 9.982 4.003,10.223 4.016,10.433 4.034 M9.000 8.500 L 9.000 11.000 10.000 11.000 L 11.000 11.000 11.000 8.500 L 11.000 6.000 10.000 6.000 L 9.000 6.000 9.000 8.500 M9.767 12.046 C 9.590 12.092,9.346 12.253,9.215 12.407 C 9.073 12.576,9.027 12.721,9.028 12.993 C 9.029 13.397,9.228 13.705,9.617 13.909 C 9.808 14.009,10.158 14.007,10.387 13.905 C 10.584 13.817,10.796 13.612,10.901 13.407 C 10.994 13.227,11.002 12.817,10.918 12.614 C 10.753 12.218,10.182 11.936,9.767 12.046 " fill="#1A1C1F" stroke="none" fill-rule="evenodd"></path></svg>