<svg width="12" height="12" viewBox="0 0 12 12" fill="none" xmlns="http://www.w3.org/2000/svg"><path d="M5.724 1.241 C 5.507 1.284,5.226 1.477,5.061 1.696 C 4.951 1.842,4.308 3.102,2.754 6.210 C 1.762 8.196,1.382 8.973,1.279 9.230 C 1.193 9.444,1.181 9.616,1.237 9.837 C 1.337 10.234,1.557 10.499,1.940 10.687 L 2.110 10.770 2.750 10.783 C 3.102 10.790,4.564 10.796,6.000 10.796 C 7.435 10.796,8.898 10.790,9.250 10.783 L 9.890 10.770 10.060 10.687 C 10.490 10.477,10.728 10.153,10.785 9.701 C 10.826 9.379,10.829 9.388,9.882 7.465 C 9.553 6.797,8.775 5.224,8.153 3.970 L 7.023 1.690 6.866 1.555 C 6.780 1.480,6.639 1.383,6.553 1.338 C 6.416 1.266,6.372 1.254,6.203 1.239 C 5.971 1.218,5.839 1.219,5.724 1.241 M6.600 5.400 L 6.600 7.200 6.000 7.200 L 5.400 7.200 5.400 5.400 L 5.400 3.600 6.000 3.600 L 6.600 3.600 6.600 5.400 M6.271 8.435 C 6.368 8.485,6.501 8.625,6.559 8.737 C 6.591 8.801,6.600 8.856,6.600 8.996 C 6.600 9.169,6.598 9.177,6.522 9.295 C 6.431 9.436,6.313 9.523,6.152 9.570 C 5.886 9.648,5.569 9.497,5.441 9.233 C 5.382 9.110,5.383 8.848,5.443 8.723 C 5.518 8.569,5.673 8.439,5.830 8.398 C 5.939 8.369,6.183 8.390,6.271 8.435 " fill="#1A1C1F" stroke="none" fill-rule="evenodd"></path></svg>