<svg width="28" height="28" viewBox="0 0 28 28" fill="none" xmlns="http://www.w3.org/2000/svg"><path d="M12.997 1.803 C 11.833 1.936,11.042 2.101,10.163 2.395 C 5.663 3.900,2.460 7.799,1.845 12.521 C 1.762 13.159,1.750 14.509,1.822 15.220 C 2.013 17.115,2.733 19.135,3.775 20.701 C 5.729 23.636,8.604 25.494,12.110 26.090 C 12.835 26.213,14.094 26.254,15.024 26.185 C 17.373 26.012,19.699 25.087,21.607 23.566 C 22.191 23.101,23.096 22.204,23.537 21.653 C 24.875 19.982,25.792 17.888,26.111 15.773 C 26.284 14.628,26.242 12.800,26.018 11.691 C 25.510 9.186,24.414 7.140,22.613 5.341 C 20.814 3.543,18.374 2.293,15.966 1.936 C 15.301 1.837,13.432 1.754,12.997 1.803 M14.364 7.113 C 14.553 7.211,14.743 7.431,14.794 7.610 C 14.823 7.708,14.840 9.289,14.840 11.750 C 14.840 15.632,14.838 15.735,14.747 15.912 C 14.696 16.013,14.578 16.152,14.486 16.223 C 14.126 16.497,13.501 16.384,13.277 16.003 C 13.185 15.847,13.183 15.755,13.170 11.713 L 13.156 7.583 13.277 7.420 C 13.459 7.172,13.699 7.047,13.991 7.047 C 14.127 7.047,14.295 7.076,14.364 7.113 M14.492 18.213 C 14.669 18.305,14.968 18.603,15.063 18.783 C 15.175 18.994,15.161 19.483,15.037 19.722 C 14.795 20.190,14.485 20.393,14.014 20.393 C 13.481 20.393,13.021 20.029,12.877 19.494 C 12.739 18.985,13.117 18.312,13.627 18.159 C 13.843 18.093,14.320 18.123,14.492 18.213 " fill="#1A1C1F" stroke="none" fill-rule="evenodd"></path></svg>