<svg width="24" height="24" viewBox="0 0 24 24" fill="none" xmlns="http://www.w3.org/2000/svg"><path d="M10.960 2.066 C 9.942 2.221,9.393 2.348,8.723 2.581 C 7.652 2.954,6.559 3.555,5.712 4.235 C 5.295 4.571,4.590 5.282,4.232 5.727 C 3.127 7.101,2.324 8.939,2.094 10.620 C 2.004 11.274,2.004 12.726,2.094 13.380 C 2.267 14.646,2.844 16.206,3.557 17.339 C 4.346 18.591,5.545 19.778,6.760 20.507 C 7.785 21.122,9.015 21.599,10.192 21.838 C 11.168 22.036,12.892 22.026,13.913 21.817 C 14.676 21.661,15.640 21.327,16.380 20.961 C 19.110 19.612,20.996 17.264,21.715 14.320 C 22.364 11.661,21.865 8.841,20.329 6.500 C 19.895 5.839,19.621 5.511,18.954 4.858 C 18.327 4.244,18.103 4.062,17.500 3.672 C 16.114 2.779,14.515 2.211,13.020 2.082 C 12.569 2.043,11.180 2.033,10.960 2.066 M12.840 4.084 C 14.138 4.200,15.298 4.623,16.500 5.421 C 18.173 6.531,19.391 8.367,19.829 10.439 C 19.928 10.906,19.935 11.011,19.937 11.980 C 19.938 12.909,19.928 13.069,19.846 13.478 C 18.837 18.512,13.549 21.343,8.880 19.349 C 6.611 18.380,4.915 16.395,4.249 13.930 L 4.101 13.380 4.101 12.000 L 4.101 10.620 4.247 10.080 C 4.790 8.073,5.935 6.457,7.592 5.358 C 8.438 4.798,9.414 4.385,10.340 4.198 C 11.296 4.004,11.723 3.984,12.840 4.084 M11.775 6.042 C 11.538 6.114,11.265 6.332,11.128 6.560 L 10.995 6.780 11.012 10.000 C 11.024 12.078,11.045 13.277,11.072 13.380 C 11.122 13.568,11.454 13.892,11.670 13.963 C 11.745 13.988,11.937 14.002,12.097 13.994 C 12.428 13.977,12.630 13.872,12.827 13.615 C 12.939 13.467,12.940 13.462,12.966 12.703 C 12.981 12.283,12.994 10.770,12.996 9.340 L 12.999 6.740 12.881 6.534 C 12.659 6.146,12.159 5.924,11.775 6.042 M11.530 15.701 C 11.046 15.946,10.816 16.515,10.979 17.063 C 11.059 17.331,11.237 17.533,11.511 17.667 C 11.700 17.760,11.792 17.780,12.040 17.780 C 12.298 17.780,12.370 17.763,12.554 17.661 C 12.930 17.453,13.120 17.127,13.120 16.688 C 13.120 16.390,13.053 16.189,12.889 15.998 C 12.684 15.759,12.403 15.630,12.040 15.610 C 11.775 15.596,11.715 15.607,11.530 15.701 " fill="#1A1C1F" stroke="none" fill-rule="evenodd"></path></svg>