<svg width="12" height="12" viewBox="0 0 12 12" fill="none" xmlns="http://www.w3.org/2000/svg"><path d="M5.490 1.239 C 5.066 1.272,4.492 1.426,4.075 1.618 C 3.290 1.979,2.673 2.468,2.170 3.127 C 1.083 4.556,0.901 6.497,1.704 8.110 C 1.968 8.639,2.208 8.974,2.607 9.371 C 3.186 9.945,3.786 10.315,4.540 10.562 C 6.362 11.159,8.363 10.590,9.631 9.115 C 10.235 8.412,10.609 7.594,10.753 6.660 C 10.797 6.375,10.803 5.680,10.763 5.410 C 10.602 4.319,10.138 3.372,9.412 2.649 C 8.980 2.219,8.624 1.963,8.110 1.711 C 7.634 1.477,7.286 1.362,6.810 1.279 C 6.540 1.232,5.844 1.211,5.490 1.239 M6.600 5.100 L 6.600 6.600 6.000 6.600 L 5.400 6.600 5.400 5.100 L 5.400 3.600 6.000 3.600 L 6.600 3.600 6.600 5.100 M6.283 7.416 C 6.402 7.479,6.521 7.618,6.557 7.739 C 6.592 7.855,6.585 8.058,6.542 8.151 C 6.451 8.352,6.265 8.479,6.038 8.495 C 5.701 8.520,5.446 8.293,5.424 7.949 C 5.412 7.764,5.439 7.686,5.562 7.552 C 5.702 7.398,5.790 7.360,6.003 7.360 C 6.153 7.360,6.189 7.367,6.283 7.416 " fill="#1A1C1F" stroke="none" fill-rule="evenodd"></path></svg>