<svg width="14" height="14" viewBox="0 0 14 14" fill="none" xmlns="http://www.w3.org/2000/svg"><path d="M6.700 1.460 C 6.499 1.514,6.277 1.645,6.057 1.838 L 5.852 2.018 3.829 6.102 C 2.716 8.348,1.733 10.337,1.645 10.522 L 1.484 10.858 1.475 11.117 C 1.463 11.420,1.500 11.594,1.625 11.832 C 1.784 12.136,2.055 12.372,2.427 12.529 L 2.602 12.603 7.012 12.594 C 11.003 12.586,11.437 12.581,11.582 12.546 C 11.796 12.495,11.924 12.416,12.134 12.205 C 12.431 11.906,12.544 11.595,12.524 11.130 C 12.514 10.914,12.503 10.863,12.431 10.698 C 12.249 10.281,11.675 9.096,10.202 6.090 C 8.086 1.773,8.222 2.036,7.993 1.808 C 7.813 1.630,7.619 1.518,7.386 1.459 C 7.213 1.415,6.866 1.415,6.700 1.460 M9.168 7.030 C 10.303 9.298,11.224 11.161,11.214 11.171 C 11.192 11.193,2.927 11.194,2.904 11.172 C 2.879 11.147,6.797 3.300,7.001 2.967 C 7.027 2.925,7.061 2.894,7.077 2.899 C 7.092 2.904,8.034 4.763,9.168 7.030 M6.347 7.000 L 6.347 8.400 7.058 8.400 L 7.770 8.400 7.770 7.000 L 7.770 5.600 7.058 5.600 L 6.347 5.600 6.347 7.000 M6.793 9.169 C 6.454 9.328,6.299 9.661,6.402 10.014 C 6.500 10.352,6.897 10.568,7.235 10.468 C 7.729 10.323,7.904 9.731,7.565 9.354 C 7.418 9.191,7.310 9.140,7.082 9.130 C 6.930 9.123,6.876 9.131,6.793 9.169 " fill="#1A1C1F" stroke="none" fill-rule="evenodd"></path></svg>