<svg width="16" height="16" viewBox="0 0 16 16" fill="none" xmlns="http://www.w3.org/2000/svg"><path d="M7.293 1.653 C 6.915 1.684,6.320 1.820,5.887 1.972 C 5.271 2.190,4.523 2.607,4.013 3.017 C 2.854 3.949,2.076 5.206,1.749 6.672 C 1.405 8.211,1.692 9.914,2.523 11.280 C 2.772 11.689,2.912 11.878,3.221 12.221 C 3.833 12.902,4.398 13.336,5.173 13.722 C 6.135 14.201,7.167 14.429,8.200 14.392 C 8.692 14.374,9.024 14.327,9.493 14.211 C 10.347 13.999,11.153 13.618,11.854 13.094 C 12.192 12.842,12.834 12.198,13.091 11.855 C 14.185 10.392,14.616 8.601,14.291 6.867 C 14.048 5.566,13.457 4.443,12.521 3.505 C 11.687 2.670,10.676 2.092,9.537 1.801 C 9.344 1.751,9.073 1.698,8.933 1.683 C 8.579 1.644,7.612 1.626,7.293 1.653 M8.800 6.800 L 8.800 8.800 8.000 8.800 L 7.200 8.800 7.200 6.800 L 7.200 4.800 8.000 4.800 L 8.800 4.800 8.800 6.800 M8.370 9.883 C 8.531 9.963,8.703 10.161,8.746 10.315 C 8.761 10.369,8.773 10.492,8.773 10.588 C 8.774 10.986,8.469 11.297,8.050 11.327 C 7.715 11.351,7.460 11.205,7.308 10.902 C 7.151 10.586,7.215 10.246,7.477 10.005 C 7.650 9.846,7.734 9.816,8.001 9.814 C 8.196 9.813,8.250 9.824,8.370 9.883 " fill="#1A1C1F" stroke="none" fill-rule="evenodd"></path></svg>