<svg width="24" height="24" viewBox="0 0 24 24" fill="none" xmlns="http://www.w3.org/2000/svg"><path d="M11.792 2.044 C 11.240 2.105,10.703 2.554,10.313 3.280 C 9.653 4.506,3.285 17.115,2.618 18.516 C 1.985 19.845,1.927 20.059,2.061 20.582 C 2.205 21.142,2.523 21.549,3.009 21.795 C 3.269 21.926,3.293 21.931,3.978 21.967 C 4.375 21.987,8.101 21.998,12.570 21.990 C 19.980 21.978,20.475 21.973,20.700 21.907 C 21.019 21.812,21.229 21.685,21.472 21.436 C 21.879 21.021,22.054 20.498,21.966 19.963 C 21.939 19.802,21.838 19.494,21.732 19.250 C 21.269 18.191,13.831 3.397,13.543 2.964 C 13.098 2.294,12.476 1.968,11.792 2.044 M12.108 4.090 C 12.153 4.139,12.357 4.495,12.561 4.880 C 13.000 5.708,19.155 17.972,19.661 19.027 L 20.010 19.754 19.922 19.877 L 19.834 20.000 11.987 19.990 L 4.140 19.980 4.066 19.840 L 3.992 19.700 5.609 16.440 C 7.339 12.953,11.054 5.587,11.499 4.760 C 11.771 4.256,11.938 4.000,11.995 4.000 C 12.012 4.000,12.063 4.040,12.108 4.090 M11.778 8.920 C 11.537 8.954,11.271 9.169,11.084 9.480 C 11.001 9.618,11.000 9.650,11.000 12.234 L 11.000 14.849 11.129 15.091 C 11.338 15.483,11.663 15.667,12.079 15.629 C 12.489 15.592,12.827 15.333,12.927 14.980 C 12.958 14.870,12.973 14.028,12.976 12.260 C 12.980 9.372,12.990 9.464,12.676 9.181 C 12.437 8.965,12.117 8.873,11.778 8.920 M11.482 16.890 C 10.837 17.281,10.847 18.280,11.499 18.662 C 11.901 18.897,12.386 18.821,12.698 18.474 C 12.903 18.245,12.959 18.086,12.960 17.729 C 12.960 17.425,12.899 17.269,12.699 17.065 C 12.486 16.849,12.275 16.762,11.958 16.761 C 11.733 16.760,11.667 16.778,11.482 16.890 " fill="#1A1C1F" stroke="none" fill-rule="evenodd"></path></svg>