<svg width="12" height="12" viewBox="0 0 12 12" fill="none" xmlns="http://www.w3.org/2000/svg"><path d="M5.719 1.258 C 5.541 1.315,5.380 1.411,5.192 1.573 L 5.017 1.725 4.661 2.447 C 4.465 2.845,3.687 4.417,2.931 5.940 C 2.175 7.464,1.493 8.844,1.415 9.008 L 1.273 9.307 1.264 9.519 C 1.253 9.781,1.279 9.914,1.383 10.120 C 1.521 10.396,1.749 10.599,2.080 10.739 L 2.230 10.803 6.010 10.795 C 10.147 10.786,9.944 10.792,10.149 10.672 C 10.371 10.542,10.591 10.275,10.675 10.034 C 10.713 9.926,10.728 9.834,10.735 9.669 C 10.747 9.413,10.727 9.325,10.591 9.022 C 10.388 8.572,8.846 5.413,7.801 3.310 L 6.987 1.670 6.848 1.540 C 6.697 1.398,6.517 1.298,6.331 1.250 C 6.167 1.209,5.861 1.212,5.719 1.258 M7.859 6.026 C 8.832 7.969,9.621 9.566,9.612 9.575 C 9.593 9.594,2.509 9.595,2.489 9.576 C 2.466 9.553,5.938 2.609,6.024 2.505 C 6.036 2.490,6.056 2.482,6.068 2.486 C 6.080 2.490,6.886 4.083,7.859 6.026 M5.440 6.000 L 5.440 7.200 6.050 7.200 L 6.660 7.200 6.660 6.000 L 6.660 4.800 6.050 4.800 L 5.440 4.800 5.440 6.000 M5.808 7.867 C 5.532 7.998,5.402 8.290,5.487 8.583 C 5.571 8.873,5.912 9.058,6.202 8.973 C 6.618 8.850,6.774 8.346,6.495 8.029 C 6.368 7.885,6.262 7.834,6.072 7.825 C 5.932 7.819,5.896 7.825,5.808 7.867 " fill="#1A1C1F" stroke="none" fill-rule="evenodd"></path></svg>