<svg width="14" height="14" viewBox="0 0 14 14" fill="none" xmlns="http://www.w3.org/2000/svg"><path d="M6.382 1.446 C 5.901 1.486,5.233 1.667,4.754 1.887 C 3.596 2.420,2.742 3.196,2.116 4.282 C 1.813 4.809,1.563 5.543,1.456 6.218 C 1.399 6.576,1.399 7.423,1.456 7.782 C 1.657 9.055,2.233 10.168,3.138 11.032 C 3.759 11.625,4.447 12.038,5.262 12.308 C 6.413 12.690,7.565 12.694,8.703 12.321 C 9.581 12.033,10.266 11.615,10.919 10.967 C 11.837 10.057,12.348 9.034,12.557 7.688 C 12.601 7.403,12.595 6.578,12.545 6.253 C 12.377 5.140,11.947 4.193,11.234 3.364 C 10.606 2.633,9.817 2.089,8.878 1.738 C 8.569 1.622,8.090 1.503,7.816 1.473 C 7.505 1.439,6.660 1.423,6.382 1.446 M7.700 5.950 L 7.700 7.700 7.000 7.700 L 6.300 7.700 6.300 5.950 L 6.300 4.200 7.000 4.200 L 7.700 4.200 7.700 5.950 M7.258 8.610 C 7.375 8.643,7.527 8.781,7.602 8.922 C 7.656 9.026,7.665 9.069,7.665 9.252 C 7.665 9.439,7.658 9.474,7.601 9.571 C 7.428 9.865,7.083 9.990,6.754 9.878 C 6.622 9.833,6.450 9.673,6.382 9.532 C 6.327 9.418,6.307 9.138,6.346 9.020 C 6.383 8.909,6.579 8.697,6.703 8.636 C 6.813 8.581,7.106 8.568,7.258 8.610 " fill="#1A1C1F" stroke="none" fill-rule="evenodd"></path></svg>