<svg width="16" height="16" viewBox="0 0 16 16" fill="none" xmlns="http://www.w3.org/2000/svg"><path d="M7.627 1.651 C 7.354 1.705,6.961 1.978,6.748 2.261 C 6.599 2.459,5.814 3.996,3.726 8.173 C 2.353 10.922,1.844 11.961,1.706 12.307 C 1.590 12.593,1.575 12.821,1.649 13.115 C 1.783 13.645,2.076 13.999,2.587 14.249 L 2.813 14.360 3.640 14.377 C 4.714 14.400,11.289 14.400,12.360 14.377 L 13.187 14.360 13.394 14.261 C 13.851 14.043,14.137 13.736,14.308 13.279 C 14.373 13.106,14.383 13.042,14.384 12.787 C 14.384 12.519,14.377 12.476,14.302 12.293 C 14.166 11.961,13.607 10.819,11.438 6.440 L 9.364 2.253 9.155 2.073 C 9.041 1.974,8.853 1.844,8.738 1.784 C 8.561 1.692,8.494 1.672,8.285 1.652 C 8.005 1.625,7.762 1.625,7.627 1.651 M8.800 7.200 L 8.800 9.600 8.000 9.600 L 7.200 9.600 7.200 7.200 L 7.200 4.800 8.000 4.800 L 8.800 4.800 8.800 7.200 M8.361 11.247 C 8.490 11.313,8.669 11.500,8.745 11.650 C 8.788 11.735,8.800 11.808,8.800 11.995 C 8.800 12.225,8.797 12.236,8.696 12.393 C 8.574 12.581,8.418 12.698,8.203 12.760 C 7.873 12.856,7.502 12.705,7.301 12.392 C 7.216 12.259,7.213 12.246,7.213 11.973 C 7.213 11.701,7.216 11.688,7.301 11.555 C 7.418 11.373,7.586 11.245,7.773 11.197 C 7.919 11.159,8.244 11.186,8.361 11.247 " fill="#1A1C1F" stroke="none" fill-rule="evenodd"></path></svg>