<svg width="28" height="28" viewBox="0 0 28 28" fill="none" xmlns="http://www.w3.org/2000/svg"><path d="M12.997 1.803 C 11.833 1.936,11.042 2.101,10.163 2.395 C 5.663 3.900,2.460 7.799,1.845 12.521 C 1.762 13.159,1.750 14.509,1.822 15.220 C 2.013 17.115,2.733 19.135,3.775 20.701 C 5.729 23.636,8.604 25.494,12.110 26.090 C 12.835 26.213,14.094 26.254,15.024 26.185 C 17.373 26.012,19.699 25.087,21.607 23.566 C 22.191 23.101,23.096 22.204,23.537 21.653 C 24.875 19.982,25.792 17.888,26.111 15.773 C 26.284 14.628,26.242 12.800,26.018 11.691 C 25.510 9.186,24.414 7.140,22.613 5.341 C 20.814 3.543,18.374 2.293,15.966 1.936 C 15.301 1.837,13.432 1.754,12.997 1.803 M15.127 3.594 C 16.640 3.744,18.010 4.208,19.450 5.060 C 21.810 6.455,23.632 9.003,24.242 11.760 C 24.402 12.485,24.494 14.189,24.418 15.034 C 24.257 16.835,23.508 18.768,22.381 20.289 C 21.966 20.849,21.073 21.769,20.510 22.213 C 19.106 23.324,17.495 24.030,15.602 24.366 C 14.803 24.508,13.308 24.520,12.538 24.391 C 10.865 24.111,9.483 23.588,8.279 22.782 C 5.980 21.240,4.532 19.176,3.790 16.380 L 3.623 15.750 3.605 14.212 C 3.584 12.485,3.613 12.186,3.901 11.185 C 4.103 10.483,4.230 10.159,4.608 9.387 C 6.085 6.372,8.892 4.260,12.180 3.690 C 12.475 3.639,12.790 3.589,12.880 3.579 C 13.243 3.540,14.674 3.550,15.127 3.594 M13.752 7.932 C 13.680 7.955,13.548 8.029,13.460 8.096 C 13.134 8.345,13.152 8.127,13.124 12.064 C 13.111 14.018,13.113 15.674,13.130 15.741 C 13.175 15.921,13.433 16.195,13.650 16.293 C 13.995 16.450,14.325 16.394,14.599 16.132 C 14.903 15.842,14.887 16.045,14.885 12.497 C 14.884 9.280,14.858 8.524,14.739 8.275 C 14.616 8.020,14.071 7.830,13.752 7.932 M13.639 18.152 C 13.475 18.191,13.105 18.472,12.993 18.642 C 12.956 18.700,12.900 18.865,12.869 19.010 C 12.770 19.484,12.944 19.889,13.378 20.190 C 14.007 20.626,14.879 20.317,15.098 19.582 C 15.191 19.269,15.183 19.057,15.069 18.807 C 14.937 18.516,14.815 18.396,14.490 18.241 C 14.203 18.103,13.954 18.077,13.639 18.152 " fill="#1A1C1F" stroke="none" fill-rule="evenodd"></path></svg>