<svg width="20" height="20" viewBox="0 0 20 20" fill="none" xmlns="http://www.w3.org/2000/svg"><path d="M9.117 2.066 C 8.429 2.123,7.475 2.382,6.791 2.696 C 5.483 3.298,4.454 4.113,3.617 5.212 C 2.714 6.398,2.132 7.941,2.030 9.415 C 1.816 12.528,3.365 15.394,6.117 16.977 C 6.892 17.422,7.918 17.767,8.933 17.923 C 9.464 18.004,10.570 18.004,11.100 17.921 C 14.411 17.409,17.013 15.029,17.779 11.815 C 18.224 9.943,17.953 7.890,17.041 6.233 C 16.219 4.739,15.010 3.579,13.517 2.850 C 12.685 2.444,11.849 2.179,11.167 2.104 C 10.723 2.055,9.515 2.033,9.117 2.066 M10.369 4.554 C 10.700 4.652,10.985 4.883,11.143 5.179 C 11.206 5.298,11.216 5.370,11.216 5.717 C 11.217 6.202,11.184 6.286,10.868 6.602 C 10.564 6.906,10.402 6.976,10.000 6.976 C 9.738 6.976,9.655 6.963,9.520 6.898 C 9.287 6.788,8.954 6.465,8.846 6.245 C 8.760 6.069,8.758 6.047,8.777 5.682 C 8.793 5.393,8.814 5.270,8.867 5.166 C 8.990 4.925,9.317 4.646,9.590 4.548 C 9.764 4.486,10.151 4.489,10.369 4.554 M11.000 10.000 L 11.000 12.000 12.000 12.000 L 13.000 12.000 13.000 13.000 L 13.000 14.000 10.000 14.000 L 7.000 14.000 7.000 13.000 L 7.000 12.000 8.000 12.000 L 9.000 12.000 9.000 11.000 L 9.000 10.000 8.217 10.000 L 7.433 10.000 7.433 9.000 L 7.433 8.000 9.217 8.000 L 11.000 8.000 11.000 10.000 " fill="#1A1C1F" stroke="none" fill-rule="evenodd"></path></svg>