<svg width="14" height="14" viewBox="0 0 14 14" fill="none" xmlns="http://www.w3.org/2000/svg"><path d="M6.382 1.446 C 5.878 1.488,5.214 1.672,4.702 1.912 C 4.002 2.240,3.473 2.612,2.986 3.118 C 2.164 3.972,1.644 5.026,1.456 6.218 C 1.399 6.576,1.399 7.424,1.456 7.782 C 1.654 9.037,2.229 10.159,3.106 11.002 C 3.968 11.830,4.935 12.316,6.154 12.533 C 6.527 12.599,7.397 12.605,7.782 12.544 C 8.793 12.383,9.690 11.992,10.489 11.363 C 10.926 11.018,11.485 10.384,11.784 9.893 C 12.171 9.257,12.449 8.460,12.557 7.677 C 12.601 7.354,12.595 6.585,12.545 6.253 C 12.378 5.144,11.947 4.194,11.234 3.364 C 10.606 2.633,9.817 2.089,8.878 1.738 C 8.569 1.622,8.090 1.503,7.816 1.473 C 7.505 1.439,6.660 1.423,6.382 1.446 M7.258 3.188 C 7.404 3.231,7.602 3.356,7.689 3.458 C 7.815 3.608,7.847 3.706,7.859 3.973 C 7.869 4.218,7.867 4.228,7.796 4.373 C 7.710 4.548,7.508 4.748,7.335 4.829 C 7.167 4.909,6.825 4.910,6.665 4.832 C 6.501 4.752,6.267 4.524,6.192 4.372 C 6.133 4.250,6.130 4.232,6.143 3.990 C 6.153 3.812,6.170 3.705,6.203 3.632 C 6.279 3.460,6.507 3.262,6.717 3.184 C 6.835 3.141,7.107 3.143,7.258 3.188 M7.700 7.000 L 7.700 8.400 8.400 8.400 L 9.100 8.400 9.100 9.100 L 9.100 9.800 7.000 9.800 L 4.900 9.800 4.900 9.100 L 4.900 8.400 5.600 8.400 L 6.300 8.400 6.300 7.700 L 6.300 7.000 5.752 7.000 L 5.203 7.000 5.203 6.300 L 5.203 5.600 6.452 5.600 L 7.700 5.600 7.700 7.000 " fill="#1A1C1F" stroke="none" fill-rule="evenodd"></path></svg>