<svg width="14" height="14" viewBox="0 0 14 14" fill="none" xmlns="http://www.w3.org/2000/svg"><path d="M6.382 1.446 C 6.049 1.474,5.530 1.592,5.146 1.728 C 4.747 1.869,4.144 2.178,3.803 2.417 C 2.688 3.198,1.877 4.390,1.555 5.720 C 1.133 7.463,1.614 9.358,2.816 10.692 C 3.414 11.355,4.034 11.808,4.788 12.131 C 6.227 12.749,7.756 12.752,9.191 12.141 C 11.496 11.159,12.887 8.710,12.542 6.239 C 12.338 4.776,11.538 3.425,10.346 2.530 C 9.624 1.988,8.596 1.558,7.816 1.473 C 7.505 1.439,6.660 1.423,6.382 1.446 M7.327 2.825 C 8.187 2.904,8.970 3.213,9.625 3.735 C 10.379 4.334,10.911 5.220,11.111 6.211 C 11.158 6.443,11.165 6.541,11.164 7.012 C 11.162 7.505,11.157 7.573,11.098 7.851 C 11.013 8.253,10.947 8.445,10.769 8.809 C 10.329 9.704,9.682 10.359,8.832 10.768 C 7.631 11.346,6.312 11.337,5.122 10.744 C 4.703 10.535,4.431 10.336,4.059 9.964 C 3.696 9.601,3.496 9.331,3.281 8.913 C 3.046 8.457,2.906 8.007,2.845 7.507 C 2.804 7.173,2.828 6.516,2.892 6.196 C 3.228 4.521,4.489 3.254,6.176 2.894 C 6.578 2.808,6.919 2.787,7.327 2.825 M6.834 3.569 C 6.614 3.610,6.378 3.832,6.315 4.055 C 6.267 4.225,6.267 4.299,6.314 4.456 C 6.414 4.793,6.661 4.976,7.014 4.974 C 7.200 4.973,7.375 4.898,7.513 4.760 C 7.655 4.618,7.699 4.506,7.699 4.279 C 7.700 3.980,7.620 3.812,7.417 3.687 C 7.253 3.586,7.007 3.537,6.834 3.569 M5.133 6.300 L 5.133 7.000 5.717 7.000 L 6.300 7.000 6.300 7.700 L 6.300 8.400 5.600 8.400 L 4.900 8.400 4.900 9.100 L 4.900 9.800 7.000 9.800 L 9.100 9.800 9.100 9.100 L 9.100 8.400 8.400 8.400 L 7.700 8.400 7.700 7.000 L 7.700 5.600 6.417 5.600 L 5.133 5.600 5.133 6.300 " fill="#1A1C1F" stroke="none" fill-rule="evenodd"></path></svg>