<svg width="28" height="28" viewBox="0 0 28 28" fill="none" xmlns="http://www.w3.org/2000/svg"><path d="M12.973 1.804 C 10.908 2.006,8.967 2.685,7.296 3.791 C 4.811 5.436,3.135 7.693,2.266 10.564 C 1.658 12.572,1.607 14.902,2.125 16.947 C 2.497 18.415,3.153 19.864,3.937 20.953 C 5.968 23.773,8.747 25.521,12.107 26.092 C 12.840 26.216,14.533 26.265,15.251 26.182 C 17.529 25.919,19.705 25.048,21.420 23.713 C 22.948 22.524,24.238 20.959,24.996 19.373 C 25.969 17.340,26.354 15.265,26.185 12.976 C 26.043 11.048,25.362 9.026,24.318 7.434 C 22.563 4.758,19.992 2.905,16.972 2.143 C 16.186 1.945,15.661 1.876,14.513 1.821 C 13.529 1.775,13.301 1.772,12.973 1.804 M14.529 7.297 C 14.786 7.447,15.005 7.727,15.079 7.999 C 15.108 8.107,15.120 8.348,15.106 8.555 C 15.072 9.060,14.905 9.296,14.394 9.556 C 13.933 9.792,13.432 9.718,13.029 9.356 C 12.678 9.040,12.584 8.811,12.609 8.333 C 12.627 7.995,12.649 7.915,12.779 7.711 C 12.913 7.503,13.075 7.360,13.370 7.191 C 13.427 7.158,13.626 7.143,13.886 7.152 C 14.248 7.165,14.340 7.185,14.529 7.297 M14.451 11.552 C 14.804 11.759,14.805 11.765,14.845 13.557 C 14.864 14.429,14.882 15.873,14.883 16.765 L 14.887 18.387 15.482 18.389 C 16.352 18.392,16.996 18.454,17.141 18.548 C 17.303 18.655,17.453 18.977,17.453 19.220 C 17.453 19.449,17.352 19.716,17.206 19.872 C 16.974 20.120,17.066 20.113,13.988 20.113 L 11.125 20.113 10.936 19.990 C 10.676 19.822,10.584 19.646,10.561 19.278 C 10.545 19.020,10.559 18.940,10.650 18.783 C 10.833 18.466,10.953 18.434,12.105 18.401 L 13.113 18.372 13.113 15.865 L 13.113 13.358 12.238 13.338 C 11.105 13.312,10.938 13.240,10.779 12.708 C 10.710 12.479,10.772 12.154,10.926 11.938 C 11.102 11.691,11.239 11.656,12.203 11.614 C 12.691 11.593,13.216 11.545,13.370 11.509 C 13.838 11.398,14.214 11.413,14.451 11.552 " fill="#1A1C1F" stroke="none" fill-rule="evenodd"></path></svg>