<svg width="32" height="32" viewBox="0 0 32 32" fill="none" xmlns="http://www.w3.org/2000/svg"><path d="M14.773 2.065 C 14.641 2.075,14.233 2.132,13.867 2.191 C 11.407 2.584,9.199 3.559,7.253 5.112 C 4.485 7.322,2.685 10.487,2.123 14.133 C 2.029 14.744,2.029 17.203,2.123 17.813 C 2.626 21.068,3.902 23.633,6.132 25.870 C 7.309 27.050,8.472 27.880,9.947 28.592 C 10.903 29.053,11.556 29.292,12.557 29.547 C 13.910 29.891,14.393 29.946,16.000 29.943 C 17.615 29.940,18.145 29.879,19.443 29.547 C 20.493 29.280,21.119 29.046,22.160 28.535 C 23.596 27.829,24.731 27.011,25.895 25.843 C 26.647 25.089,27.104 24.531,27.685 23.659 C 28.761 22.043,29.544 19.997,29.842 18.027 C 29.959 17.248,29.998 15.805,29.927 14.847 C 29.764 12.630,28.987 10.318,27.792 8.496 C 25.786 5.437,22.847 3.320,19.397 2.449 C 18.507 2.225,17.904 2.145,16.613 2.082 C 15.516 2.028,15.258 2.026,14.773 2.065 M17.932 4.181 C 18.904 4.336,19.720 4.582,20.789 5.042 C 23.563 6.239,25.735 8.416,26.994 11.264 C 27.764 13.007,28.029 14.640,27.906 16.885 C 27.850 17.893,27.824 18.080,27.634 18.832 C 26.713 22.467,24.170 25.519,20.880 26.934 C 18.435 27.986,16.112 28.251,13.665 27.758 C 11.893 27.400,9.879 26.465,8.565 25.390 C 7.640 24.634,6.809 23.759,6.229 22.933 C 5.341 21.667,4.559 19.850,4.238 18.308 C 4.116 17.723,4.107 17.571,4.107 16.074 C 4.107 14.319,4.141 13.982,4.428 12.942 C 4.850 11.419,5.530 10.018,6.461 8.761 C 6.947 8.104,8.114 6.937,8.774 6.447 C 9.663 5.788,10.632 5.251,11.682 4.837 C 12.585 4.481,13.438 4.268,14.693 4.085 C 15.061 4.032,17.434 4.102,17.932 4.181 M15.194 8.267 C 15.088 8.323,14.892 8.490,14.759 8.638 C 14.211 9.247,14.217 9.968,14.777 10.580 C 15.099 10.933,15.406 11.068,15.867 11.061 C 16.399 11.053,16.887 10.768,17.156 10.308 C 17.280 10.098,17.298 10.009,17.298 9.607 C 17.298 9.333,17.270 9.092,17.229 9.013 C 17.078 8.725,16.788 8.430,16.523 8.298 C 16.165 8.120,15.502 8.104,15.194 8.267 M15.280 13.153 C 15.104 13.194,14.502 13.249,13.942 13.275 C 12.850 13.325,12.697 13.362,12.485 13.633 C 12.240 13.944,12.216 14.467,12.430 14.819 C 12.628 15.146,12.902 15.219,14.013 15.244 L 14.987 15.265 14.987 18.131 L 14.987 20.996 13.907 21.031 C 13.313 21.050,12.731 21.092,12.613 21.125 C 12.317 21.207,12.170 21.361,12.073 21.695 C 11.935 22.172,12.082 22.596,12.469 22.837 L 12.667 22.960 16.008 22.958 L 19.349 22.955 19.559 22.816 C 20.102 22.456,20.107 21.547,19.568 21.190 C 19.372 21.061,19.332 21.056,18.190 21.027 L 17.013 20.997 17.013 17.389 L 17.013 13.781 16.859 13.538 C 16.577 13.093,16.065 12.968,15.280 13.153 " fill="#1A1C1F" stroke="none" fill-rule="evenodd"></path></svg>