<svg width="12" height="12" viewBox="0 0 12 12" fill="none" xmlns="http://www.w3.org/2000/svg"><path d="M5.490 1.240 C 5.025 1.274,4.452 1.436,3.970 1.670 C 3.392 1.952,3.036 2.202,2.619 2.619 C 1.875 3.365,1.410 4.282,1.247 5.325 C 1.197 5.647,1.203 6.417,1.259 6.730 C 1.447 7.797,1.876 8.634,2.610 9.371 C 2.753 9.515,2.946 9.691,3.040 9.763 C 3.745 10.308,4.554 10.649,5.420 10.764 C 5.705 10.801,6.381 10.795,6.656 10.753 C 7.808 10.573,8.807 10.040,9.552 9.207 C 10.454 8.199,10.900 6.882,10.778 5.580 C 10.674 4.458,10.190 3.429,9.391 2.629 C 8.991 2.229,8.663 1.991,8.173 1.741 C 7.316 1.304,6.560 1.163,5.490 1.240 M6.221 2.732 C 6.420 2.791,6.591 2.930,6.685 3.108 C 6.723 3.179,6.729 3.223,6.730 3.430 C 6.730 3.722,6.710 3.772,6.521 3.961 C 6.339 4.143,6.241 4.185,5.998 4.187 C 5.825 4.188,5.795 4.182,5.693 4.131 C 5.554 4.060,5.354 3.856,5.297 3.727 C 5.259 3.642,5.256 3.608,5.266 3.406 C 5.276 3.235,5.288 3.162,5.320 3.100 C 5.394 2.955,5.590 2.787,5.754 2.729 C 5.858 2.692,6.090 2.693,6.221 2.732 M6.600 6.000 L 6.600 7.200 7.200 7.200 L 7.800 7.200 7.800 7.800 L 7.800 8.400 6.000 8.400 L 4.200 8.400 4.200 7.800 L 4.200 7.200 4.800 7.200 L 5.400 7.200 5.400 6.600 L 5.400 6.000 4.930 6.000 L 4.460 6.000 4.460 5.400 L 4.460 4.800 5.530 4.800 L 6.600 4.800 6.600 6.000 " fill="#1A1C1F" stroke="none" fill-rule="evenodd"></path></svg>