<svg width="28" height="28" viewBox="0 0 28 28" fill="none" xmlns="http://www.w3.org/2000/svg"><path d="M12.973 1.804 C 10.908 2.006,8.967 2.685,7.296 3.791 C 4.811 5.436,3.135 7.693,2.266 10.564 C 1.658 12.572,1.607 14.902,2.125 16.947 C 2.497 18.415,3.153 19.864,3.937 20.953 C 5.968 23.773,8.747 25.521,12.107 26.092 C 12.840 26.216,14.533 26.265,15.251 26.182 C 17.529 25.919,19.705 25.048,21.420 23.713 C 22.948 22.524,24.238 20.959,24.996 19.373 C 25.969 17.340,26.354 15.265,26.185 12.976 C 26.043 11.048,25.362 9.026,24.318 7.434 C 22.563 4.758,19.992 2.905,16.972 2.143 C 16.186 1.945,15.661 1.876,14.513 1.821 C 13.529 1.775,13.301 1.772,12.973 1.804 M15.127 3.594 C 16.640 3.744,18.010 4.208,19.450 5.060 C 21.810 6.455,23.632 9.003,24.242 11.760 C 24.402 12.485,24.494 14.189,24.418 15.034 C 24.257 16.835,23.508 18.768,22.381 20.289 C 21.966 20.849,21.073 21.769,20.510 22.213 C 19.106 23.324,17.495 24.030,15.602 24.366 C 14.803 24.508,13.308 24.520,12.538 24.391 C 10.865 24.111,9.483 23.588,8.279 22.782 C 5.980 21.240,4.532 19.176,3.790 16.380 L 3.623 15.750 3.605 14.212 C 3.584 12.485,3.613 12.186,3.901 11.185 C 4.103 10.483,4.230 10.159,4.608 9.387 C 6.085 6.372,8.892 4.260,12.180 3.690 C 12.475 3.639,12.790 3.589,12.880 3.579 C 13.243 3.540,14.674 3.550,15.127 3.594 M13.300 7.238 C 12.868 7.496,12.553 7.973,12.553 8.370 C 12.553 8.850,12.945 9.430,13.383 9.598 C 13.655 9.703,14.097 9.702,14.342 9.598 C 14.611 9.483,14.873 9.257,15.012 9.020 C 15.120 8.835,15.136 8.758,15.135 8.406 C 15.135 7.931,15.075 7.787,14.748 7.468 C 14.485 7.212,14.278 7.140,13.808 7.140 C 13.542 7.140,13.426 7.163,13.300 7.238 M13.370 11.509 C 13.216 11.545,12.686 11.593,12.193 11.616 C 11.443 11.650,11.270 11.672,11.143 11.746 C 10.717 11.995,10.620 12.590,10.933 13.037 C 11.101 13.276,11.275 13.316,12.238 13.337 L 13.113 13.357 13.113 15.864 L 13.113 18.372 12.168 18.402 C 11.168 18.434,10.915 18.475,10.744 18.634 C 10.602 18.765,10.482 19.185,10.523 19.406 C 10.567 19.643,10.709 19.857,10.899 19.975 C 11.052 20.069,11.136 20.076,12.495 20.100 C 13.284 20.115,14.618 20.110,15.459 20.091 C 16.913 20.058,16.996 20.051,17.135 19.956 C 17.589 19.648,17.582 18.846,17.122 18.542 C 16.951 18.428,16.915 18.424,15.920 18.399 L 14.894 18.373 14.879 15.218 L 14.863 12.063 14.754 11.873 C 14.694 11.768,14.558 11.626,14.453 11.558 C 14.292 11.453,14.212 11.434,13.956 11.438 C 13.788 11.441,13.524 11.473,13.370 11.509 " fill="#1A1C1F" stroke="none" fill-rule="evenodd"></path></svg>