<svg width="24" height="24" viewBox="0 0 24 24" fill="none" xmlns="http://www.w3.org/2000/svg"><path d="M10.960 2.066 C 9.942 2.221,9.393 2.348,8.723 2.581 C 7.652 2.954,6.559 3.555,5.712 4.235 C 5.295 4.571,4.590 5.282,4.232 5.727 C 3.127 7.101,2.324 8.939,2.094 10.620 C 2.004 11.274,2.004 12.726,2.094 13.380 C 2.267 14.646,2.844 16.206,3.557 17.339 C 4.346 18.591,5.545 19.778,6.760 20.507 C 7.785 21.122,9.015 21.599,10.192 21.838 C 11.168 22.036,12.892 22.026,13.913 21.817 C 14.676 21.661,15.640 21.327,16.380 20.961 C 19.110 19.612,20.996 17.264,21.715 14.320 C 22.364 11.661,21.865 8.841,20.329 6.500 C 19.895 5.839,19.621 5.511,18.954 4.858 C 18.327 4.244,18.103 4.062,17.500 3.672 C 16.114 2.779,14.515 2.211,13.020 2.082 C 12.569 2.043,11.180 2.033,10.960 2.066 M13.120 4.105 C 15.154 4.396,17.051 5.488,18.286 7.080 C 18.917 7.894,19.515 9.114,19.741 10.051 C 20.032 11.262,20.038 12.644,19.755 13.852 C 19.201 16.224,17.474 18.311,15.249 19.298 C 13.057 20.270,10.626 20.220,8.487 19.159 C 7.620 18.728,7.006 18.287,6.344 17.620 C 5.242 16.508,4.507 15.137,4.171 13.566 C 4.068 13.088,4.062 13.001,4.062 12.000 C 4.062 10.997,4.068 10.913,4.171 10.430 C 4.697 7.972,6.221 5.967,8.388 4.882 C 9.889 4.131,11.477 3.870,13.120 4.105 M11.451 6.140 C 10.690 6.526,10.538 7.500,11.145 8.107 C 11.417 8.380,11.521 8.417,12.000 8.417 C 12.483 8.417,12.582 8.381,12.868 8.095 C 13.128 7.834,13.217 7.611,13.216 7.219 C 13.215 6.836,13.121 6.603,12.879 6.384 C 12.609 6.140,12.422 6.067,12.020 6.050 C 11.693 6.036,11.641 6.044,11.451 6.140 M9.702 10.100 C 9.492 10.174,9.377 10.265,9.226 10.474 C 9.108 10.637,9.100 10.669,9.100 10.997 C 9.100 11.309,9.111 11.363,9.208 11.510 C 9.461 11.892,9.743 12.000,10.486 12.000 L 11.000 12.000 11.000 13.494 L 11.000 14.988 10.410 15.014 C 9.671 15.046,9.559 15.077,9.321 15.316 C 9.008 15.629,8.928 16.011,9.100 16.374 C 9.191 16.567,9.438 16.817,9.637 16.918 C 9.792 16.998,9.861 17.000,12.031 17.000 L 14.264 17.000 14.445 16.886 C 14.675 16.740,14.861 16.513,14.939 16.285 C 15.055 15.945,14.989 15.645,14.735 15.363 C 14.487 15.087,14.347 15.043,13.620 15.013 L 13.006 14.988 12.993 12.884 C 12.981 10.965,12.973 10.766,12.908 10.621 C 12.824 10.434,12.719 10.312,12.504 10.155 L 12.348 10.040 11.104 10.042 C 10.141 10.043,9.824 10.056,9.702 10.100 " fill="#1A1C1F" stroke="none" fill-rule="evenodd"></path></svg>