<svg width="16" height="16" viewBox="0 0 16 16" fill="none" xmlns="http://www.w3.org/2000/svg"><path d="M7.293 1.653 C 6.677 1.704,5.923 1.921,5.293 2.227 C 4.518 2.604,4.056 2.929,3.492 3.492 C 2.508 4.475,1.873 5.723,1.666 7.081 C 1.611 7.439,1.603 8.419,1.652 8.811 C 1.692 9.136,1.831 9.709,1.959 10.075 C 2.548 11.762,3.781 13.102,5.425 13.844 C 5.777 14.003,6.391 14.201,6.773 14.279 C 7.488 14.425,8.510 14.425,9.199 14.279 C 10.654 13.972,11.848 13.284,12.801 12.208 C 13.857 11.014,14.443 9.395,14.391 7.813 C 14.321 5.662,13.170 3.684,11.333 2.561 C 10.607 2.116,9.630 1.761,8.920 1.682 C 8.579 1.644,7.608 1.627,7.293 1.653 M8.373 3.228 C 10.561 3.429,12.264 4.953,12.699 7.098 C 12.752 7.363,12.760 7.476,12.759 8.013 C 12.757 8.578,12.752 8.654,12.684 8.973 C 12.564 9.538,12.409 9.932,12.097 10.462 C 11.354 11.724,10.068 12.561,8.564 12.761 C 7.281 12.932,5.852 12.489,4.845 11.608 C 4.181 11.027,3.645 10.174,3.389 9.292 C 3.177 8.564,3.167 7.585,3.361 6.821 C 3.491 6.314,3.738 5.768,4.049 5.304 C 4.830 4.140,6.188 3.344,7.587 3.229 C 7.976 3.197,8.036 3.197,8.373 3.228 M7.634 4.147 C 7.045 4.445,7.028 5.268,7.604 5.587 C 7.734 5.660,7.769 5.667,8.000 5.667 C 8.212 5.667,8.272 5.657,8.366 5.606 C 8.677 5.440,8.799 5.235,8.800 4.876 C 8.800 4.605,8.749 4.457,8.605 4.314 C 8.451 4.159,8.288 4.097,8.013 4.086 C 7.796 4.077,7.760 4.083,7.634 4.147 M5.867 7.200 L 5.867 8.000 6.533 8.000 L 7.200 8.000 7.200 8.800 L 7.200 9.600 6.400 9.600 L 5.600 9.600 5.600 10.400 L 5.600 11.200 8.000 11.200 L 10.400 11.200 10.400 10.400 L 10.400 9.600 9.600 9.600 L 8.800 9.600 8.800 8.000 L 8.800 6.400 7.333 6.400 L 5.867 6.400 5.867 7.200 " fill="#1A1C1F" stroke="none" fill-rule="evenodd"></path></svg>