<svg width="16" height="16" viewBox="0 0 16 16" fill="none" xmlns="http://www.w3.org/2000/svg"><path d="M7.293 1.653 C 6.677 1.704,5.923 1.921,5.293 2.227 C 4.518 2.604,4.056 2.929,3.492 3.492 C 2.508 4.475,1.873 5.723,1.666 7.081 C 1.611 7.439,1.603 8.419,1.652 8.811 C 1.692 9.136,1.831 9.709,1.959 10.075 C 2.548 11.762,3.781 13.102,5.425 13.844 C 5.777 14.003,6.391 14.201,6.773 14.279 C 7.488 14.425,8.510 14.425,9.199 14.279 C 10.654 13.972,11.848 13.284,12.801 12.208 C 13.857 11.014,14.443 9.395,14.391 7.813 C 14.321 5.662,13.170 3.684,11.333 2.561 C 10.607 2.116,9.630 1.761,8.920 1.682 C 8.579 1.644,7.608 1.627,7.293 1.653 M8.437 3.695 C 8.628 3.789,8.826 3.972,8.910 4.133 C 8.965 4.239,8.972 4.291,8.973 4.573 C 8.973 4.962,8.947 5.029,8.695 5.281 C 8.452 5.524,8.322 5.581,8.000 5.581 C 7.776 5.581,7.729 5.573,7.593 5.506 C 7.406 5.415,7.140 5.146,7.062 4.969 C 7.012 4.855,7.007 4.810,7.022 4.542 C 7.040 4.201,7.080 4.093,7.253 3.920 C 7.506 3.667,7.684 3.596,8.027 3.609 C 8.240 3.617,8.305 3.630,8.437 3.695 M8.800 8.000 L 8.800 9.600 9.600 9.600 L 10.400 9.600 10.400 10.400 L 10.400 11.200 8.000 11.200 L 5.600 11.200 5.600 10.400 L 5.600 9.600 6.400 9.600 L 7.200 9.600 7.200 8.800 L 7.200 8.000 6.573 8.000 L 5.947 8.000 5.947 7.200 L 5.947 6.400 7.373 6.400 L 8.800 6.400 8.800 8.000 " fill="#1A1C1F" stroke="none" fill-rule="evenodd"></path></svg>