<svg width="32" height="32" viewBox="0 0 32 32" fill="none" xmlns="http://www.w3.org/2000/svg"><path d="M14.880 2.057 C 14.807 2.070,14.531 2.106,14.267 2.138 C 11.183 2.512,8.324 3.924,6.079 6.182 C 4.235 8.035,3.096 10.040,2.453 12.560 C 2.100 13.944,2.053 14.347,2.053 16.000 C 2.053 17.652,2.100 18.052,2.453 19.442 C 2.938 21.350,3.859 23.196,5.100 24.747 C 5.566 25.329,6.671 26.434,7.253 26.900 C 9.342 28.571,11.911 29.631,14.571 29.918 C 15.232 29.989,16.430 29.989,17.312 29.918 C 19.888 29.711,22.594 28.613,24.747 26.901 C 25.325 26.441,26.485 25.274,26.930 24.706 C 28.443 22.769,29.383 20.653,29.820 18.203 C 29.961 17.407,30.017 15.499,29.925 14.604 C 29.653 11.972,28.562 9.324,26.898 7.253 C 26.424 6.664,25.374 5.613,24.800 5.153 C 22.659 3.440,19.997 2.334,17.547 2.139 C 16.770 2.077,15.074 2.025,14.880 2.057 M17.253 4.108 C 18.415 4.215,19.529 4.506,20.745 5.019 C 24.332 6.534,27.030 9.909,27.764 13.796 C 28.025 15.179,28.001 17.008,27.702 18.507 C 27.026 21.900,24.574 25.100,21.454 26.661 C 18.269 28.254,14.839 28.421,11.612 27.140 C 9.728 26.392,8.195 25.280,6.791 23.644 C 6.458 23.256,5.809 22.302,5.505 21.752 C 5.024 20.883,4.550 19.642,4.282 18.550 L 4.133 17.947 4.133 16.000 L 4.133 14.053 4.287 13.440 C 5.188 9.855,7.237 7.154,10.347 5.455 C 11.520 4.814,13.161 4.284,14.507 4.111 C 15.010 4.047,16.572 4.045,17.253 4.108 M14.495 8.690 C 13.292 8.950,12.597 9.585,12.795 10.243 C 12.891 10.563,13.209 10.856,13.538 10.926 C 13.848 10.993,14.098 10.957,15.040 10.709 C 15.538 10.578,15.764 10.547,16.240 10.545 C 16.889 10.542,17.114 10.601,17.519 10.880 C 18.132 11.301,18.259 12.223,17.826 13.107 C 17.634 13.502,17.362 13.769,16.400 14.512 C 15.960 14.852,15.456 15.284,15.280 15.473 C 14.745 16.048,14.473 16.762,14.519 17.473 C 14.553 18.004,14.677 18.228,15.039 18.413 C 15.374 18.585,15.571 18.595,15.873 18.458 C 16.198 18.310,16.358 18.062,16.502 17.482 C 16.570 17.205,16.651 16.932,16.682 16.875 C 16.778 16.695,17.280 16.254,18.053 15.672 C 19.000 14.959,19.419 14.516,19.684 13.949 C 20.006 13.260,20.076 12.929,20.073 12.107 C 20.072 11.473,20.054 11.335,19.929 10.960 C 19.661 10.151,19.294 9.669,18.592 9.202 C 18.349 9.040,17.985 8.843,17.782 8.764 C 17.424 8.623,17.377 8.619,16.187 8.604 C 15.146 8.592,14.889 8.605,14.495 8.690 M15.080 20.606 C 14.804 20.709,14.558 20.906,14.373 21.174 C 14.173 21.462,14.123 22.006,14.263 22.371 C 14.460 22.888,15.170 23.314,15.692 23.231 C 16.307 23.133,16.907 22.462,16.907 21.874 C 16.907 21.449,16.549 20.892,16.143 20.684 C 15.866 20.543,15.350 20.505,15.080 20.606 " fill="#1A1C1F" stroke="none" fill-rule="evenodd"></path></svg>