<svg width="28" height="28" viewBox="0 0 28 28" fill="none" xmlns="http://www.w3.org/2000/svg"><path d="M12.950 1.803 C 12.470 1.851,11.493 2.029,10.943 2.170 C 6.797 3.229,3.434 6.480,2.258 10.565 C 1.898 11.814,1.773 12.726,1.773 14.097 C 1.773 16.830,2.698 19.426,4.448 21.607 C 6.173 23.757,8.457 25.230,11.060 25.872 C 12.028 26.111,12.554 26.184,13.533 26.212 C 15.739 26.277,17.546 25.888,19.457 24.939 C 20.651 24.347,21.641 23.629,22.635 22.635 C 24.497 20.772,25.605 18.612,26.095 15.890 C 26.214 15.226,26.263 13.540,26.184 12.781 C 25.946 10.476,24.993 8.159,23.536 6.347 C 23.121 5.831,22.203 4.912,21.700 4.509 C 19.826 3.010,17.497 2.042,15.353 1.871 C 14.673 1.817,13.220 1.775,12.950 1.803 M15.193 7.563 C 15.345 7.590,15.649 7.699,15.867 7.806 C 16.190 7.963,16.341 8.077,16.684 8.421 C 17.366 9.105,17.547 9.542,17.547 10.510 C 17.547 12.007,17.172 12.677,15.724 13.768 C 15.072 14.259,14.675 14.617,14.582 14.795 C 14.548 14.861,14.475 15.110,14.418 15.349 C 14.330 15.725,14.292 15.808,14.137 15.963 C 13.728 16.372,13.073 16.292,12.837 15.804 C 12.761 15.646,12.740 15.515,12.741 15.187 C 12.744 14.166,13.024 13.731,14.349 12.692 C 15.030 12.158,15.449 11.765,15.595 11.527 C 15.740 11.288,15.838 10.895,15.841 10.546 C 15.844 10.096,15.709 9.809,15.374 9.555 C 14.842 9.152,14.202 9.109,13.045 9.401 C 11.965 9.673,11.608 9.631,11.334 9.199 C 11.182 8.960,11.153 8.625,11.266 8.409 C 11.450 8.059,11.991 7.752,12.680 7.606 C 13.157 7.506,14.723 7.479,15.193 7.563 M14.226 18.167 C 14.648 18.470,14.837 19.000,14.702 19.499 C 14.620 19.802,14.237 20.176,13.910 20.272 C 13.770 20.313,13.608 20.347,13.550 20.347 C 13.344 20.347,12.946 20.160,12.778 19.985 C 12.506 19.702,12.442 19.533,12.439 19.103 C 12.437 18.750,12.447 18.708,12.582 18.520 C 12.754 18.281,13.038 18.067,13.259 18.011 C 13.346 17.989,13.550 17.980,13.713 17.991 C 13.955 18.007,14.047 18.039,14.226 18.167 " fill="#1A1C1F" stroke="none" fill-rule="evenodd"></path></svg>