<svg width="14" height="14" viewBox="0 0 14 14" fill="none" xmlns="http://www.w3.org/2000/svg"><path d="M6.405 1.448 C 5.062 1.541,3.519 2.391,2.606 3.540 C 2.177 4.080,1.818 4.787,1.613 5.495 C 1.387 6.274,1.347 7.271,1.508 8.073 C 1.593 8.496,1.848 9.217,2.047 9.597 C 2.163 9.818,2.474 10.283,2.660 10.514 C 2.883 10.789,3.365 11.261,3.617 11.450 C 4.507 12.117,5.550 12.509,6.621 12.578 C 7.975 12.666,9.263 12.288,10.337 11.489 C 10.647 11.258,11.232 10.675,11.456 10.373 C 12.040 9.586,12.395 8.731,12.546 7.747 C 12.602 7.379,12.602 6.603,12.545 6.230 C 12.353 4.963,11.819 3.906,10.920 3.016 C 10.048 2.152,8.773 1.551,7.595 1.448 C 7.284 1.421,6.795 1.421,6.405 1.448 M7.350 3.385 C 8.169 3.480,8.783 3.972,8.974 4.690 C 9.035 4.918,9.030 5.364,8.963 5.634 C 8.854 6.077,8.704 6.297,8.084 6.930 C 7.851 7.167,7.646 7.388,7.628 7.420 C 7.605 7.462,7.594 7.607,7.587 7.939 L 7.578 8.400 6.761 8.400 L 5.943 8.400 5.959 7.881 C 5.968 7.595,5.986 7.295,5.999 7.214 C 6.051 6.879,6.252 6.622,6.814 6.171 C 7.222 5.844,7.324 5.731,7.373 5.554 C 7.430 5.350,7.362 5.170,7.190 5.069 C 7.091 5.011,7.062 5.005,6.860 5.008 C 6.579 5.011,6.297 5.084,5.867 5.263 C 5.692 5.336,5.541 5.386,5.532 5.375 C 5.514 5.355,5.301 4.844,5.072 4.274 C 5.003 4.103,4.947 3.944,4.947 3.922 C 4.947 3.846,5.552 3.582,5.985 3.469 C 6.484 3.339,6.787 3.321,7.350 3.385 M7.207 8.992 C 7.358 9.070,7.527 9.234,7.620 9.392 C 7.684 9.500,7.689 9.528,7.697 9.794 C 7.705 10.072,7.703 10.083,7.633 10.232 C 7.508 10.500,7.296 10.664,6.964 10.751 C 6.591 10.849,6.129 10.620,5.943 10.245 C 5.885 10.127,5.880 10.095,5.880 9.833 C 5.880 9.560,5.883 9.542,5.951 9.412 C 6.046 9.231,6.209 9.068,6.382 8.981 C 6.518 8.912,6.528 8.910,6.802 8.918 C 7.054 8.926,7.094 8.933,7.207 8.992 " fill="#1A1C1F" stroke="none" fill-rule="evenodd"></path></svg>