<svg width="28" height="28" viewBox="0 0 28 28" fill="none" xmlns="http://www.w3.org/2000/svg"><path d="M12.950 1.803 C 12.470 1.851,11.493 2.029,10.943 2.170 C 6.797 3.229,3.434 6.480,2.258 10.565 C 1.898 11.814,1.773 12.726,1.773 14.097 C 1.773 16.830,2.698 19.426,4.448 21.607 C 6.173 23.757,8.457 25.230,11.060 25.872 C 12.028 26.111,12.554 26.184,13.533 26.212 C 15.739 26.277,17.546 25.888,19.457 24.939 C 20.651 24.347,21.641 23.629,22.635 22.635 C 24.497 20.772,25.605 18.612,26.095 15.890 C 26.214 15.226,26.263 13.540,26.184 12.781 C 25.946 10.476,24.993 8.159,23.536 6.347 C 23.121 5.831,22.203 4.912,21.700 4.509 C 19.826 3.010,17.497 2.042,15.353 1.871 C 14.673 1.817,13.220 1.775,12.950 1.803 M15.097 3.594 C 16.113 3.688,17.088 3.943,18.152 4.392 C 20.824 5.520,22.988 7.871,23.917 10.653 C 24.337 11.911,24.483 12.951,24.439 14.373 C 24.388 16.002,24.083 17.234,23.387 18.618 C 22.011 21.353,19.744 23.246,16.823 24.097 C 15.082 24.604,12.991 24.613,11.270 24.122 C 9.490 23.614,7.939 22.727,6.738 21.530 C 6.046 20.841,5.718 20.450,5.298 19.813 C 4.311 18.319,3.729 16.700,3.585 15.050 C 3.515 14.257,3.565 12.796,3.683 12.157 C 4.019 10.332,4.804 8.672,6.009 7.233 C 7.607 5.327,10.028 3.983,12.525 3.619 C 13.045 3.543,14.401 3.530,15.097 3.594 M12.803 7.582 C 11.963 7.735,11.412 8.056,11.226 8.504 C 11.186 8.599,11.153 8.724,11.153 8.780 C 11.153 8.965,11.348 9.292,11.540 9.431 C 11.810 9.627,12.187 9.619,13.044 9.400 C 14.112 9.127,14.851 9.166,15.372 9.524 C 15.726 9.766,15.878 10.278,15.781 10.902 C 15.682 11.543,15.451 11.833,14.363 12.680 C 13.276 13.527,12.943 13.939,12.757 14.662 C 12.662 15.036,12.689 15.553,12.818 15.803 C 13.052 16.256,13.712 16.356,14.117 16.000 C 14.280 15.857,14.332 15.728,14.518 15.003 C 14.601 14.683,14.853 14.425,15.704 13.788 C 16.804 12.966,17.197 12.481,17.457 11.620 C 17.547 11.326,17.564 11.162,17.564 10.593 C 17.565 9.980,17.554 9.885,17.443 9.574 C 17.165 8.800,16.678 8.237,15.969 7.870 C 15.341 7.546,15.160 7.513,14.072 7.518 C 13.528 7.520,12.997 7.547,12.803 7.582 M13.189 18.032 C 12.912 18.135,12.684 18.346,12.536 18.634 C 12.287 19.116,12.385 19.626,12.799 20.006 C 13.053 20.239,13.443 20.373,13.730 20.327 C 14.167 20.257,14.594 19.882,14.720 19.456 C 14.811 19.151,14.811 19.115,14.721 18.812 C 14.636 18.526,14.392 18.235,14.121 18.097 C 13.880 17.974,13.430 17.943,13.189 18.032 " fill="#1A1C1F" stroke="none" fill-rule="evenodd"></path></svg>