<svg width="16" height="16" viewBox="0 0 16 16" fill="none" xmlns="http://www.w3.org/2000/svg"><path d="M7.431 1.629 C 5.185 1.866,3.223 3.218,2.268 5.187 C 1.873 6.001,1.678 6.717,1.623 7.556 C 1.491 9.570,2.287 11.479,3.813 12.812 C 5.718 14.475,8.347 14.861,10.640 13.816 C 11.340 13.497,11.914 13.096,12.476 12.533 C 13.085 11.923,13.363 11.540,13.707 10.840 C 13.956 10.334,14.078 10.011,14.199 9.537 C 14.346 8.963,14.380 8.678,14.380 7.987 C 14.380 7.295,14.346 7.010,14.199 6.436 C 14.079 5.965,13.956 5.638,13.720 5.160 C 13.385 4.480,13.016 3.976,12.462 3.439 C 11.505 2.511,10.211 1.862,8.982 1.694 C 8.723 1.659,7.800 1.595,7.680 1.604 C 7.658 1.606,7.546 1.617,7.431 1.629 M8.320 3.228 C 9.104 3.287,9.715 3.478,10.415 3.881 C 11.091 4.271,11.509 4.662,11.950 5.316 C 12.421 6.017,12.676 6.739,12.748 7.573 C 12.948 9.891,11.504 11.991,9.282 12.615 C 8.785 12.755,8.566 12.784,8.000 12.784 C 7.611 12.785,7.419 12.773,7.240 12.738 C 6.136 12.522,5.300 12.081,4.571 11.328 C 3.462 10.183,3.003 8.563,3.334 6.966 C 3.589 5.736,4.414 4.580,5.508 3.919 C 6.155 3.529,6.900 3.284,7.613 3.228 C 7.760 3.217,7.898 3.206,7.920 3.204 C 7.942 3.202,8.122 3.212,8.320 3.228 M7.383 4.455 C 7.041 4.492,6.475 4.666,6.226 4.812 C 6.127 4.870,6.107 4.896,6.107 4.962 C 6.107 5.089,6.515 6.170,6.597 6.259 C 6.620 6.285,6.707 6.264,6.987 6.167 C 7.334 6.047,7.360 6.042,7.709 6.032 L 8.072 6.021 8.169 6.106 C 8.387 6.298,8.352 6.635,8.089 6.883 C 8.033 6.936,7.885 7.054,7.760 7.147 C 7.492 7.345,7.227 7.595,7.116 7.754 C 6.954 7.987,6.927 8.116,6.913 8.740 L 6.901 9.307 7.700 9.307 L 8.500 9.307 8.512 8.860 C 8.521 8.515,8.534 8.392,8.569 8.320 C 8.593 8.268,8.808 8.039,9.047 7.810 C 9.507 7.368,9.624 7.212,9.771 6.843 C 9.871 6.593,9.903 6.361,9.885 6.013 C 9.862 5.568,9.753 5.303,9.470 5.005 C 9.019 4.531,8.343 4.354,7.383 4.455 M7.488 10.064 C 7.131 10.160,6.869 10.533,6.920 10.876 C 7.003 11.443,7.580 11.749,8.083 11.492 C 8.487 11.286,8.613 10.702,8.332 10.334 C 8.236 10.208,8.036 10.086,7.893 10.067 C 7.827 10.058,7.737 10.046,7.693 10.040 C 7.649 10.035,7.557 10.046,7.488 10.064 " fill="#1A1C1F" stroke="none" fill-rule="evenodd"></path></svg>