<svg width="16" height="16" viewBox="0 0 16 16" fill="none" xmlns="http://www.w3.org/2000/svg"><path d="M7.320 1.654 C 6.314 1.721,5.088 2.209,4.137 2.919 C 3.791 3.178,3.175 3.790,2.915 4.133 C 2.161 5.131,1.707 6.324,1.625 7.524 C 1.517 9.094,1.953 10.573,2.892 11.827 C 3.166 12.192,3.745 12.786,4.080 13.045 C 4.715 13.535,5.475 13.920,6.256 14.147 C 7.375 14.471,8.614 14.471,9.747 14.147 C 10.827 13.837,11.705 13.317,12.507 12.510 C 13.391 11.620,13.939 10.639,14.228 9.427 C 14.349 8.919,14.385 8.585,14.384 7.987 C 14.384 7.385,14.347 7.050,14.225 6.533 C 13.867 5.019,12.981 3.707,11.694 2.787 C 11.161 2.406,10.437 2.059,9.785 1.871 C 9.259 1.719,9.003 1.678,8.440 1.652 C 7.852 1.626,7.749 1.626,7.320 1.654 M8.509 3.879 C 8.930 3.942,9.317 4.114,9.658 4.389 C 9.861 4.553,10.056 4.828,10.193 5.144 L 10.280 5.347 10.280 5.867 C 10.279 6.367,10.276 6.395,10.205 6.600 C 10.051 7.039,9.901 7.244,9.238 7.920 C 8.972 8.191,8.738 8.443,8.718 8.480 C 8.692 8.528,8.679 8.693,8.671 9.073 L 8.661 9.600 7.727 9.600 L 6.792 9.600 6.811 9.007 C 6.821 8.680,6.841 8.337,6.856 8.244 C 6.908 7.905,7.139 7.578,7.574 7.227 C 8.267 6.666,8.284 6.651,8.370 6.478 C 8.501 6.215,8.474 6.014,8.286 5.848 C 8.035 5.629,7.494 5.686,6.705 6.015 C 6.505 6.098,6.333 6.156,6.322 6.143 C 6.311 6.130,6.181 5.826,6.033 5.467 C 5.694 4.643,5.653 4.540,5.653 4.493 C 5.653 4.445,5.833 4.340,6.142 4.207 C 6.547 4.032,6.894 3.933,7.360 3.858 C 7.533 3.830,8.276 3.844,8.509 3.879 M8.086 10.218 C 8.342 10.273,8.705 10.626,8.776 10.889 C 8.793 10.952,8.801 11.124,8.795 11.293 C 8.785 11.551,8.775 11.604,8.709 11.731 C 8.563 12.014,8.313 12.198,7.952 12.287 C 7.520 12.393,7.005 12.136,6.792 11.708 C 6.726 11.574,6.720 11.537,6.720 11.237 C 6.720 10.926,6.724 10.905,6.802 10.756 C 6.958 10.457,7.252 10.227,7.530 10.187 C 7.683 10.165,7.898 10.177,8.086 10.218 " fill="#1A1C1F" stroke="none" fill-rule="evenodd"></path></svg>