<svg width="14" height="14" viewBox="0 0 14 14" fill="none" xmlns="http://www.w3.org/2000/svg"><path d="M6.382 1.438 C 5.575 1.563,5.018 1.738,4.414 2.055 C 3.889 2.330,3.463 2.648,3.009 3.102 C 2.381 3.731,1.953 4.437,1.673 5.308 C 1.511 5.811,1.435 6.219,1.411 6.720 C 1.309 8.829,2.406 10.807,4.273 11.876 C 5.364 12.502,6.673 12.731,7.933 12.516 C 9.206 12.300,10.390 11.624,11.242 10.628 C 11.482 10.348,11.762 9.944,11.931 9.633 C 12.235 9.076,12.485 8.283,12.553 7.665 C 12.586 7.364,12.586 6.553,12.553 6.286 C 12.468 5.590,12.157 4.702,11.790 4.107 C 11.451 3.558,10.870 2.918,10.383 2.557 C 9.641 2.007,8.806 1.641,7.957 1.494 C 7.722 1.454,7.546 1.442,7.058 1.435 C 6.725 1.431,6.420 1.432,6.382 1.438 M7.259 2.823 C 7.970 2.875,8.583 3.068,9.185 3.432 C 9.473 3.606,9.663 3.755,9.924 4.011 C 10.816 4.884,11.262 6.094,11.155 7.350 C 11.069 8.352,10.691 9.196,10.013 9.900 C 9.400 10.536,8.669 10.936,7.782 11.121 C 7.515 11.177,7.425 11.184,7.035 11.185 C 6.558 11.186,6.310 11.156,5.911 11.047 C 4.577 10.686,3.504 9.680,3.049 8.363 C 2.648 7.205,2.791 5.877,3.428 4.822 C 3.783 4.235,4.318 3.709,4.885 3.390 C 5.490 3.050,6.067 2.869,6.685 2.824 C 6.813 2.815,6.924 2.805,6.930 2.804 C 6.936 2.802,7.084 2.811,7.259 2.823 M6.446 3.899 C 6.148 3.934,5.659 4.087,5.445 4.212 L 5.337 4.275 5.351 4.384 C 5.370 4.534,5.705 5.404,5.773 5.477 C 5.794 5.500,5.866 5.484,6.114 5.398 C 6.416 5.293,6.441 5.288,6.745 5.278 L 7.062 5.268 7.147 5.343 C 7.339 5.511,7.308 5.806,7.078 6.022 C 7.029 6.069,6.899 6.172,6.790 6.253 C 6.556 6.427,6.324 6.646,6.227 6.785 C 6.084 6.989,6.061 7.102,6.049 7.647 L 6.038 8.143 6.738 8.143 L 7.437 8.143 7.449 7.753 C 7.455 7.538,7.473 7.331,7.488 7.294 C 7.503 7.257,7.701 7.042,7.929 6.816 C 8.382 6.367,8.471 6.244,8.580 5.915 C 8.635 5.748,8.642 5.691,8.643 5.378 C 8.645 5.070,8.639 5.010,8.591 4.872 C 8.413 4.357,7.905 3.973,7.300 3.898 C 7.078 3.870,6.692 3.870,6.446 3.899 M6.549 8.807 C 6.312 8.870,6.117 9.078,6.066 9.323 C 5.982 9.731,6.312 10.133,6.730 10.132 C 7.127 10.131,7.419 9.850,7.420 9.470 C 7.420 9.207,7.326 9.024,7.120 8.892 C 7.060 8.854,6.964 8.816,6.906 8.808 C 6.849 8.801,6.770 8.790,6.732 8.785 C 6.693 8.781,6.611 8.790,6.549 8.807 " fill="#1A1C1F" stroke="none" fill-rule="evenodd"></path></svg>