<svg width="20" height="20" viewBox="0 0 20 20" fill="none" xmlns="http://www.w3.org/2000/svg"><path d="M9.133 2.068 C 7.486 2.184,5.533 3.144,4.249 4.471 C 3.636 5.104,3.212 5.708,2.834 6.483 C 1.975 8.246,1.779 10.156,2.269 11.997 C 2.628 13.343,3.264 14.485,4.217 15.493 C 5.453 16.799,7.045 17.628,8.850 17.905 C 9.405 17.990,10.458 18.006,10.967 17.937 C 12.747 17.694,14.246 16.981,15.495 15.783 C 16.832 14.502,17.633 12.945,17.923 11.067 C 18.003 10.545,18.003 9.437,17.922 8.900 C 17.644 7.059,16.870 5.550,15.546 4.265 C 14.896 3.634,14.332 3.243,13.456 2.814 C 12.141 2.169,10.853 1.947,9.133 2.068 M10.500 4.836 C 11.672 4.972,12.547 5.674,12.821 6.700 C 12.908 7.025,12.900 7.663,12.805 8.049 C 12.649 8.680,12.437 8.992,11.548 9.900 C 11.216 10.239,10.923 10.554,10.898 10.600 C 10.865 10.660,10.848 10.865,10.839 11.342 L 10.826 12.000 9.658 12.000 L 8.490 12.000 8.513 11.258 C 8.526 10.850,8.551 10.421,8.569 10.305 C 8.644 9.828,8.932 9.460,9.734 8.816 C 10.118 8.508,10.341 8.305,10.405 8.203 C 10.653 7.812,10.595 7.424,10.260 7.232 C 10.133 7.159,10.080 7.151,9.800 7.155 C 9.396 7.161,8.988 7.265,8.381 7.518 C 8.132 7.622,7.916 7.694,7.902 7.679 C 7.844 7.611,7.067 5.678,7.067 5.600 C 7.067 5.504,7.907 5.131,8.467 4.978 C 9.218 4.773,9.674 4.741,10.500 4.836 M10.091 12.771 C 10.405 12.831,10.832 13.222,10.953 13.561 C 10.979 13.632,10.998 13.836,10.999 14.050 C 11.000 14.389,10.993 14.432,10.901 14.626 C 10.722 15.004,10.351 15.285,9.915 15.373 C 9.685 15.419,9.376 15.373,9.114 15.253 C 8.888 15.150,8.608 14.871,8.488 14.630 C 8.407 14.468,8.400 14.420,8.400 14.047 C 8.400 13.658,8.404 13.632,8.502 13.445 C 8.628 13.205,8.854 12.969,9.074 12.849 C 9.332 12.709,9.638 12.686,10.091 12.771 " fill="#1A1C1F" stroke="none" fill-rule="evenodd"></path></svg>