<svg width="20" height="20" viewBox="0 0 20 20" fill="none" xmlns="http://www.w3.org/2000/svg"><path d="M8.933 2.080 C 7.491 2.305,6.305 2.802,5.180 3.652 C 3.298 5.073,2.124 7.279,2.015 9.600 C 1.930 11.402,2.453 13.164,3.510 14.639 C 4.488 16.005,5.963 17.090,7.532 17.598 C 8.405 17.880,9.042 17.980,9.983 17.981 C 10.945 17.983,11.664 17.869,12.504 17.581 C 13.390 17.277,14.050 16.932,14.750 16.407 C 16.476 15.113,17.565 13.284,17.920 11.083 C 17.995 10.622,17.995 9.352,17.920 8.864 C 17.511 6.199,15.847 3.957,13.417 2.798 C 12.685 2.449,11.998 2.231,11.266 2.117 C 10.786 2.043,9.322 2.019,8.933 2.080 M10.867 4.086 C 11.578 4.186,11.946 4.306,12.701 4.684 C 13.339 5.003,13.692 5.256,14.171 5.731 C 14.938 6.495,15.411 7.276,15.713 8.276 C 16.056 9.410,16.037 10.771,15.664 11.900 C 15.028 13.820,13.405 15.324,11.439 15.814 C 10.880 15.953,10.640 15.981,10.017 15.981 C 8.927 15.981,7.980 15.735,7.058 15.213 C 5.519 14.342,4.436 12.798,4.114 11.017 C 4.041 10.616,4.031 9.504,4.096 9.083 C 4.185 8.514,4.419 7.789,4.684 7.266 C 5.254 6.141,6.221 5.197,7.380 4.633 C 8.515 4.081,9.605 3.911,10.867 4.086 M9.229 5.569 C 8.802 5.614,8.094 5.833,7.783 6.015 C 7.659 6.088,7.633 6.120,7.633 6.202 C 7.633 6.361,8.144 7.712,8.246 7.824 C 8.276 7.856,8.383 7.830,8.734 7.709 C 9.167 7.559,9.200 7.553,9.636 7.540 L 10.089 7.526 10.211 7.633 C 10.484 7.872,10.440 8.294,10.111 8.604 C 10.041 8.670,9.833 8.837,9.650 8.974 C 9.026 9.444,8.742 9.822,8.666 10.287 C 8.648 10.395,8.634 10.742,8.634 11.058 L 8.633 11.633 9.629 11.633 L 10.625 11.633 10.641 11.075 C 10.650 10.768,10.675 10.473,10.696 10.421 C 10.718 10.368,11.002 10.060,11.328 9.737 C 11.976 9.095,12.101 8.921,12.256 8.450 C 12.334 8.213,12.344 8.128,12.347 7.683 C 12.350 7.244,12.341 7.157,12.274 6.963 C 12.018 6.224,11.295 5.677,10.429 5.568 C 10.115 5.529,9.606 5.529,9.229 5.569 M9.401 12.573 C 9.079 12.629,8.780 12.911,8.680 13.257 C 8.548 13.710,8.812 14.233,9.255 14.399 C 9.552 14.510,9.668 14.516,9.922 14.432 C 10.220 14.332,10.496 14.070,10.569 13.817 C 10.696 13.374,10.549 12.964,10.172 12.707 C 10.046 12.621,9.962 12.592,9.781 12.573 C 9.654 12.559,9.483 12.559,9.401 12.573 " fill="#1A1C1F" stroke="none" fill-rule="evenodd"></path></svg>