<svg width="12" height="12" viewBox="0 0 12 12" fill="none" xmlns="http://www.w3.org/2000/svg"><path d="M5.360 1.249 C 4.294 1.407,3.368 1.872,2.609 2.629 C 1.892 3.346,1.442 4.218,1.258 5.250 C 1.222 5.449,1.215 5.569,1.214 5.960 C 1.214 6.597,1.266 6.937,1.449 7.492 C 1.929 8.938,3.084 10.092,4.520 10.558 C 6.369 11.159,8.363 10.595,9.636 9.110 C 10.315 8.318,10.732 7.295,10.777 6.311 C 10.808 5.651,10.756 5.167,10.597 4.636 C 10.218 3.365,9.333 2.321,8.120 1.710 C 7.751 1.524,7.245 1.353,6.886 1.292 C 6.456 1.219,5.708 1.198,5.360 1.249 M6.240 2.421 C 6.828 2.466,7.286 2.609,7.811 2.911 C 8.318 3.203,8.632 3.496,8.963 3.988 C 9.334 4.540,9.510 5.049,9.562 5.724 C 9.612 6.374,9.499 6.999,9.231 7.550 C 8.523 9.009,6.974 9.814,5.400 9.541 C 4.082 9.313,3.017 8.394,2.601 7.125 C 2.470 6.725,2.432 6.479,2.433 6.010 C 2.433 5.601,2.452 5.412,2.523 5.131 C 2.691 4.463,3.025 3.887,3.523 3.410 C 3.796 3.148,4.046 2.973,4.390 2.801 C 4.906 2.544,5.279 2.447,5.930 2.403 C 5.952 2.401,6.091 2.409,6.240 2.421 M5.550 3.341 C 5.295 3.369,4.945 3.472,4.720 3.585 C 4.603 3.643,4.589 3.657,4.584 3.717 C 4.578 3.780,4.679 4.075,4.868 4.540 C 4.950 4.743,4.930 4.739,5.270 4.618 C 5.498 4.538,5.524 4.533,5.782 4.524 L 6.053 4.515 6.126 4.579 C 6.289 4.722,6.263 4.978,6.067 5.162 C 6.025 5.202,5.913 5.291,5.820 5.360 C 5.619 5.508,5.420 5.696,5.337 5.815 C 5.215 5.990,5.195 6.087,5.185 6.555 L 5.176 6.980 5.775 6.980 L 6.375 6.980 6.384 6.645 C 6.391 6.386,6.400 6.294,6.427 6.240 C 6.445 6.202,6.606 6.029,6.785 5.858 C 7.130 5.526,7.218 5.409,7.328 5.132 C 7.403 4.945,7.427 4.771,7.414 4.510 C 7.397 4.176,7.315 3.977,7.102 3.754 C 6.899 3.540,6.587 3.385,6.271 3.341 C 6.100 3.318,5.764 3.317,5.550 3.341 M5.643 7.542 C 5.382 7.591,5.192 7.826,5.193 8.100 C 5.193 8.336,5.331 8.546,5.549 8.642 C 5.751 8.731,6.039 8.676,6.196 8.519 C 6.307 8.408,6.347 8.315,6.356 8.146 C 6.369 7.908,6.289 7.741,6.103 7.622 C 6.020 7.569,5.972 7.555,5.780 7.532 C 5.753 7.529,5.691 7.533,5.643 7.542 " fill="#1A1C1F" stroke="none" fill-rule="evenodd"></path></svg>