<svg width="24" height="24" viewBox="0 0 24 24" fill="none" xmlns="http://www.w3.org/2000/svg"><path d="M10.960 2.066 C 9.942 2.221,9.393 2.348,8.723 2.581 C 7.652 2.954,6.559 3.555,5.712 4.235 C 5.295 4.571,4.590 5.282,4.232 5.727 C 3.127 7.101,2.324 8.939,2.094 10.620 C 2.004 11.274,2.004 12.726,2.094 13.380 C 2.267 14.646,2.844 16.206,3.557 17.339 C 4.346 18.591,5.545 19.778,6.760 20.507 C 7.785 21.122,9.015 21.599,10.192 21.838 C 11.168 22.036,12.892 22.026,13.913 21.817 C 14.676 21.661,15.640 21.327,16.380 20.961 C 19.110 19.612,20.996 17.264,21.715 14.320 C 22.364 11.661,21.865 8.841,20.329 6.500 C 19.895 5.839,19.621 5.511,18.954 4.858 C 18.327 4.244,18.103 4.062,17.500 3.672 C 16.114 2.779,14.515 2.211,13.020 2.082 C 12.569 2.043,11.180 2.033,10.960 2.066 M12.840 4.083 C 14.032 4.193,15.150 4.570,16.186 5.213 C 17.965 6.316,19.237 8.058,19.736 10.074 C 19.926 10.839,19.940 10.979,19.938 12.020 C 19.937 12.956,19.930 13.053,19.827 13.540 C 19.518 14.995,18.867 16.294,17.914 17.357 C 16.858 18.536,15.507 19.346,13.910 19.758 C 13.246 19.929,12.867 19.971,12.000 19.972 C 11.137 19.972,10.759 19.930,10.090 19.758 C 7.342 19.049,5.262 17.084,4.384 14.366 C 4.100 13.490,4.072 13.252,4.089 11.860 L 4.104 10.620 4.249 10.080 C 4.783 8.083,5.934 6.458,7.592 5.358 C 8.438 4.798,9.414 4.385,10.340 4.198 C 11.289 4.005,11.757 3.984,12.840 4.083 M11.424 6.284 C 9.855 6.449,9.120 7.254,9.725 8.145 C 9.965 8.498,10.318 8.550,11.140 8.354 C 11.639 8.235,11.762 8.220,12.267 8.220 C 12.833 8.221,12.834 8.221,13.006 8.342 C 13.101 8.408,13.221 8.525,13.273 8.601 C 13.359 8.727,13.366 8.774,13.352 9.102 C 13.339 9.405,13.320 9.493,13.231 9.642 C 13.095 9.873,12.720 10.234,12.220 10.617 C 11.143 11.442,10.820 11.969,10.820 12.900 C 10.820 13.309,10.828 13.353,10.931 13.529 C 11.141 13.886,11.585 14.094,11.946 14.003 C 12.197 13.939,12.464 13.748,12.558 13.564 C 12.601 13.481,12.680 13.236,12.735 13.021 C 12.860 12.529,12.920 12.454,13.604 11.931 C 14.403 11.320,14.791 10.923,14.996 10.503 C 15.239 10.006,15.322 9.639,15.322 9.060 C 15.323 8.102,15.069 7.548,14.345 6.931 C 13.699 6.380,12.672 6.152,11.424 6.284 M11.371 15.624 C 11.130 15.713,10.823 16.004,10.695 16.267 C 10.540 16.583,10.541 17.019,10.697 17.337 C 11.081 18.122,12.101 18.275,12.724 17.642 C 13.093 17.268,13.195 16.757,12.990 16.312 C 12.853 16.013,12.721 15.873,12.432 15.719 C 12.216 15.604,12.134 15.583,11.860 15.573 C 11.644 15.565,11.485 15.582,11.371 15.624 " fill="#1A1C1F" stroke="none" fill-rule="evenodd"></path></svg>