<svg width="12" height="12" viewBox="0 0 12 12" fill="none" xmlns="http://www.w3.org/2000/svg"><path d="M5.110 1.288 C 4.640 1.388,4.336 1.493,3.890 1.710 C 3.110 2.090,2.446 2.677,1.973 3.403 C 1.644 3.908,1.388 4.560,1.268 5.197 C 1.222 5.446,1.217 5.517,1.217 5.990 C 1.217 6.542,1.228 6.644,1.333 7.090 C 1.583 8.144,2.206 9.113,3.070 9.792 C 3.934 10.470,5.101 10.840,6.220 10.789 C 7.894 10.713,9.416 9.752,10.227 8.258 C 10.519 7.719,10.736 6.979,10.782 6.364 C 10.803 6.083,10.791 5.598,10.758 5.350 C 10.697 4.899,10.526 4.348,10.311 3.910 C 9.703 2.672,8.630 1.770,7.320 1.398 C 6.824 1.257,6.794 1.253,6.030 1.247 C 5.360 1.241,5.320 1.243,5.110 1.288 M6.300 2.902 C 6.763 2.955,7.157 3.154,7.416 3.466 C 7.521 3.592,7.669 3.891,7.698 4.036 C 7.730 4.190,7.725 4.644,7.690 4.809 C 7.654 4.981,7.520 5.267,7.401 5.429 C 7.353 5.496,7.145 5.721,6.939 5.930 C 6.734 6.139,6.554 6.333,6.539 6.360 C 6.519 6.396,6.509 6.520,6.503 6.805 L 6.496 7.200 5.795 7.200 L 5.094 7.200 5.108 6.755 C 5.126 6.199,5.142 6.090,5.235 5.913 C 5.329 5.734,5.509 5.551,5.887 5.251 C 6.083 5.095,6.204 4.983,6.243 4.922 C 6.392 4.687,6.357 4.455,6.156 4.339 C 6.080 4.296,6.048 4.290,5.880 4.293 C 5.638 4.296,5.393 4.359,5.029 4.511 C 4.879 4.573,4.749 4.617,4.741 4.607 C 4.729 4.594,4.292 3.541,4.230 3.378 C 4.221 3.354,4.252 3.328,4.354 3.275 C 4.703 3.092,5.125 2.954,5.520 2.892 C 5.717 2.861,5.971 2.864,6.300 2.902 M6.094 7.671 C 6.281 7.726,6.532 7.982,6.582 8.166 C 6.595 8.214,6.601 8.343,6.596 8.470 C 6.589 8.661,6.581 8.704,6.534 8.794 C 6.421 9.012,6.207 9.168,5.946 9.222 C 5.626 9.288,5.249 9.093,5.094 8.781 C 5.044 8.681,5.040 8.653,5.040 8.428 C 5.040 8.195,5.043 8.179,5.101 8.067 C 5.216 7.848,5.433 7.675,5.636 7.640 C 5.749 7.621,5.978 7.636,6.094 7.671 " fill="#1A1C1F" stroke="none" fill-rule="evenodd"></path></svg>