<svg width="16" height="16" viewBox="0 0 16 16" fill="none" xmlns="http://www.w3.org/2000/svg"><path d="M6.198 1.650 C 6.046 1.669,5.968 1.714,5.826 1.859 C 5.631 2.059,5.617 2.114,5.605 2.682 L 5.595 3.191 3.875 3.209 C 2.694 3.221,2.138 3.236,2.098 3.257 C 2.066 3.273,1.978 3.333,1.902 3.389 C 1.705 3.536,1.620 3.719,1.620 3.994 C 1.620 4.126,1.636 4.238,1.665 4.307 C 1.723 4.446,1.927 4.654,2.086 4.736 L 2.212 4.800 8.000 4.800 L 13.788 4.800 13.922 4.732 C 14.086 4.649,14.244 4.490,14.322 4.330 C 14.401 4.165,14.402 3.814,14.324 3.663 C 14.264 3.546,14.086 3.369,13.944 3.284 C 13.849 3.228,13.823 3.227,12.127 3.209 L 10.407 3.191 10.394 2.682 C 10.379 2.101,10.363 2.042,10.178 1.857 C 9.945 1.623,10.107 1.640,8.107 1.636 C 7.131 1.634,6.273 1.640,6.198 1.650 M2.141 5.651 C 1.969 5.695,1.759 5.886,1.673 6.078 C 1.595 6.252,1.599 6.566,1.681 6.736 C 1.756 6.891,1.906 7.045,2.059 7.123 C 2.162 7.177,2.223 7.184,2.685 7.195 L 3.197 7.207 3.205 10.197 L 3.213 13.187 3.276 13.360 C 3.354 13.576,3.541 13.861,3.688 13.988 C 3.841 14.120,3.980 14.199,4.255 14.310 L 4.488 14.404 7.984 14.394 C 11.477 14.384,11.480 14.384,11.689 14.326 C 11.988 14.243,12.144 14.149,12.390 13.906 C 12.557 13.740,12.630 13.643,12.710 13.479 L 12.813 13.267 12.820 10.237 L 12.827 7.206 13.327 7.195 C 13.768 7.185,13.839 7.177,13.934 7.128 C 14.079 7.052,14.304 6.808,14.347 6.680 C 14.392 6.543,14.392 6.254,14.348 6.121 C 14.305 5.993,14.116 5.786,13.956 5.692 L 13.837 5.623 13.136 5.631 L 12.436 5.640 12.198 5.757 C 12.003 5.853,11.918 5.916,11.729 6.106 C 11.535 6.302,11.478 6.381,11.369 6.603 L 11.240 6.867 11.233 9.833 L 11.226 12.800 8.014 12.800 L 4.802 12.800 4.794 9.847 L 4.787 6.893 4.710 6.713 C 4.552 6.338,4.291 6.030,3.967 5.833 C 3.681 5.659,3.610 5.646,2.880 5.637 C 2.521 5.633,2.188 5.639,2.141 5.651 M6.200 6.437 C 6.021 6.494,5.932 6.552,5.802 6.697 C 5.576 6.948,5.594 6.727,5.604 9.197 L 5.613 11.400 5.675 11.524 C 5.708 11.593,5.790 11.699,5.857 11.760 C 6.271 12.142,6.859 12.027,7.131 11.509 L 7.200 11.379 7.200 9.173 L 7.200 6.967 7.131 6.864 C 6.953 6.598,6.785 6.478,6.521 6.429 C 6.334 6.394,6.336 6.394,6.200 6.437 M9.400 6.437 C 9.221 6.494,9.132 6.552,9.002 6.697 C 8.776 6.948,8.794 6.727,8.804 9.197 L 8.813 11.400 8.875 11.524 C 8.908 11.593,8.990 11.699,9.057 11.760 C 9.471 12.142,10.059 12.027,10.331 11.509 L 10.400 11.379 10.400 9.173 L 10.400 6.967 10.331 6.864 C 10.153 6.598,9.985 6.478,9.721 6.429 C 9.534 6.394,9.536 6.394,9.400 6.437 " fill="#1A1C1F" stroke="none" fill-rule="evenodd"></path></svg>