<svg width="28" height="28" viewBox="0 0 28 28" fill="none" xmlns="http://www.w3.org/2000/svg"><path d="M10.017 1.938 C 9.651 2.219,9.645 2.248,9.623 3.854 L 9.604 5.258 6.802 5.290 C 3.617 5.327,3.865 5.291,3.620 5.741 C 3.514 5.938,3.493 6.023,3.513 6.193 C 3.539 6.424,3.721 6.720,3.935 6.879 L 4.067 6.977 13.432 6.990 C 22.043 7.003,23.836 6.985,24.080 6.886 C 24.196 6.838,24.398 6.517,24.455 6.288 C 24.516 6.047,24.466 5.820,24.300 5.583 C 24.117 5.323,24.130 5.324,21.143 5.290 L 18.387 5.258 18.386 3.924 C 18.386 2.491,18.363 2.300,18.161 2.084 C 17.883 1.787,18.121 1.804,14.000 1.783 L 10.243 1.764 10.017 1.938 M16.613 4.387 L 16.613 5.273 14.000 5.273 L 11.387 5.273 11.387 4.387 L 11.387 3.500 14.000 3.500 L 16.613 3.500 16.613 4.387 M4.192 8.821 C 3.771 8.892,3.528 9.183,3.525 9.621 C 3.524 9.841,3.547 9.918,3.663 10.083 C 3.907 10.429,3.952 10.445,4.783 10.502 C 5.194 10.530,5.598 10.574,5.682 10.600 C 5.766 10.626,5.890 10.721,5.959 10.811 L 6.083 10.974 6.119 17.515 C 6.158 24.662,6.144 24.338,6.426 24.827 C 6.732 25.358,7.277 25.836,7.849 26.073 L 8.143 26.196 10.080 26.235 C 11.145 26.257,13.781 26.269,15.937 26.262 L 19.857 26.250 20.216 26.095 C 20.889 25.804,21.411 25.302,21.701 24.663 C 21.796 24.453,21.810 24.328,21.843 23.380 C 21.863 22.803,21.881 20.566,21.883 18.410 C 21.885 16.254,21.901 13.685,21.918 12.702 L 21.949 10.914 22.073 10.781 C 22.234 10.608,22.424 10.563,23.223 10.507 C 23.947 10.457,24.097 10.408,24.283 10.162 C 24.465 9.921,24.527 9.653,24.455 9.415 C 24.378 9.158,24.247 8.976,24.072 8.886 C 23.955 8.826,23.765 8.816,22.918 8.828 L 21.905 8.843 21.581 9.007 C 21.359 9.118,21.137 9.288,20.879 9.543 C 20.492 9.925,20.312 10.220,20.205 10.645 C 20.169 10.787,20.143 12.881,20.119 17.434 L 20.084 24.018 19.978 24.166 C 19.747 24.492,20.176 24.468,14.037 24.491 L 8.497 24.512 8.263 24.316 C 8.093 24.174,8.014 24.067,7.978 23.931 C 7.943 23.804,7.914 21.654,7.886 17.273 C 7.862 13.478,7.826 10.730,7.800 10.626 C 7.712 10.276,7.495 9.920,7.149 9.557 C 6.682 9.068,6.320 8.885,5.693 8.821 C 5.181 8.768,4.507 8.768,4.192 8.821 M10.309 11.434 C 10.066 11.476,9.849 11.650,9.736 11.896 C 9.637 12.109,9.637 12.139,9.623 16.414 C 9.609 20.893,9.640 22.127,9.771 22.327 C 10.002 22.681,10.500 22.824,10.859 22.641 C 10.964 22.587,11.126 22.455,11.218 22.347 L 11.387 22.150 11.386 17.083 L 11.386 12.017 11.222 11.810 C 11.131 11.697,11.017 11.575,10.968 11.541 C 10.844 11.454,10.510 11.400,10.309 11.434 M17.309 11.434 C 17.066 11.476,16.849 11.650,16.736 11.896 C 16.637 12.109,16.637 12.139,16.623 16.414 C 16.609 20.893,16.640 22.127,16.771 22.327 C 17.002 22.681,17.500 22.824,17.859 22.641 C 17.964 22.587,18.126 22.455,18.218 22.347 L 18.387 22.150 18.386 17.083 L 18.386 12.017 18.222 11.810 C 18.131 11.697,18.017 11.575,17.968 11.541 C 17.844 11.454,17.510 11.400,17.309 11.434 M13.533 11.538 C 13.215 11.755,13.187 11.834,13.153 12.615 C 13.135 13.004,13.119 15.309,13.117 17.737 L 13.113 22.150 13.282 22.347 C 13.374 22.455,13.531 22.584,13.630 22.635 C 13.996 22.822,14.404 22.713,14.718 22.347 L 14.887 22.150 14.886 17.083 L 14.886 12.017 14.720 11.807 C 14.494 11.520,14.321 11.433,13.973 11.433 C 13.753 11.433,13.651 11.458,13.533 11.538 " fill="#1A1C1F" stroke="none" fill-rule="evenodd"></path></svg>