<svg width="14" height="14" viewBox="0 0 14 14" fill="none" xmlns="http://www.w3.org/2000/svg"><path d="M5.460 1.438 C 5.302 1.456,5.267 1.473,5.140 1.593 C 4.926 1.796,4.915 1.830,4.904 2.347 L 4.895 2.792 3.391 2.808 C 1.707 2.826,1.836 2.811,1.627 3.006 C 1.460 3.162,1.419 3.258,1.418 3.487 C 1.417 3.629,1.429 3.704,1.464 3.784 C 1.524 3.920,1.668 4.065,1.818 4.141 L 1.935 4.200 7.005 4.200 L 12.075 4.200 12.192 4.132 C 12.332 4.052,12.497 3.880,12.546 3.761 C 12.570 3.706,12.582 3.606,12.581 3.481 C 12.580 3.256,12.533 3.153,12.359 2.993 C 12.164 2.813,12.282 2.825,10.610 2.808 L 9.106 2.792 9.095 2.347 C 9.081 1.838,9.068 1.787,8.906 1.625 C 8.701 1.420,8.844 1.435,7.093 1.432 C 6.240 1.431,5.505 1.433,5.460 1.438 M1.925 4.935 C 1.912 4.939,1.872 4.949,1.835 4.957 C 1.742 4.978,1.519 5.195,1.464 5.319 C 1.399 5.462,1.400 5.739,1.464 5.881 C 1.520 6.005,1.680 6.170,1.808 6.236 C 1.891 6.279,1.955 6.286,2.350 6.295 L 2.797 6.306 2.805 8.922 L 2.812 11.538 2.866 11.690 C 3.017 12.108,3.301 12.372,3.782 12.541 L 3.958 12.603 7.002 12.594 L 10.045 12.586 10.228 12.535 C 10.482 12.464,10.645 12.366,10.853 12.156 C 10.986 12.022,11.055 11.929,11.122 11.792 L 11.212 11.608 11.218 8.957 L 11.224 6.306 11.661 6.295 C 12.162 6.284,12.203 6.272,12.395 6.074 C 12.544 5.921,12.583 5.819,12.581 5.585 C 12.580 5.359,12.538 5.259,12.386 5.120 C 12.160 4.913,12.190 4.919,11.496 4.927 L 10.881 4.935 10.673 5.037 C 10.503 5.121,10.428 5.177,10.263 5.343 C 10.093 5.514,10.043 5.583,9.948 5.777 L 9.835 6.008 9.829 8.604 L 9.823 11.200 7.011 11.200 L 4.200 11.200 4.200 8.721 C 4.199 7.357,4.190 6.178,4.178 6.099 C 4.102 5.571,3.562 5.019,3.049 4.945 C 2.916 4.926,1.978 4.917,1.925 4.935 M5.308 5.678 C 5.186 5.737,5.062 5.854,4.961 6.006 L 4.900 6.097 4.900 8.026 L 4.900 9.956 4.960 10.071 C 5.102 10.339,5.332 10.481,5.622 10.480 C 5.879 10.479,6.104 10.330,6.240 10.071 L 6.300 9.956 6.300 8.046 C 6.300 6.159,6.299 6.134,6.252 6.040 C 6.185 5.910,6.029 5.746,5.916 5.687 C 5.848 5.652,5.766 5.636,5.623 5.630 C 5.450 5.622,5.410 5.628,5.308 5.678 M8.108 5.678 C 7.986 5.737,7.862 5.854,7.761 6.006 L 7.700 6.097 7.700 8.026 L 7.700 9.956 7.760 10.071 C 7.902 10.339,8.132 10.481,8.422 10.480 C 8.679 10.479,8.904 10.330,9.040 10.071 L 9.100 9.956 9.100 8.046 C 9.100 6.159,9.099 6.134,9.052 6.040 C 8.985 5.910,8.829 5.746,8.716 5.687 C 8.648 5.652,8.566 5.636,8.423 5.630 C 8.250 5.622,8.210 5.628,8.108 5.678 " fill="#1A1C1F" stroke="none" fill-rule="evenodd"></path></svg>