<svg width="12" height="12" viewBox="0 0 12 12" fill="none" xmlns="http://www.w3.org/2000/svg"><path d="M4.638 1.238 C 4.533 1.253,4.473 1.288,4.369 1.395 C 4.223 1.544,4.213 1.585,4.204 2.012 L 4.196 2.393 2.907 2.407 L 1.618 2.420 1.526 2.473 C 1.307 2.602,1.215 2.757,1.215 3.000 C 1.215 3.250,1.329 3.433,1.559 3.549 L 1.659 3.600 6.010 3.600 L 10.362 3.600 10.466 3.533 C 10.591 3.453,10.713 3.322,10.754 3.223 C 10.797 3.122,10.794 2.845,10.750 2.759 C 10.701 2.665,10.569 2.529,10.469 2.471 L 10.382 2.419 9.093 2.406 L 7.805 2.393 7.794 2.022 C 7.788 1.817,7.773 1.615,7.760 1.572 C 7.734 1.486,7.586 1.326,7.478 1.267 C 7.414 1.232,7.334 1.230,6.070 1.227 C 5.333 1.225,4.689 1.230,4.638 1.238 M1.606 4.239 C 1.524 4.259,1.470 4.294,1.373 4.392 C 1.257 4.508,1.215 4.618,1.215 4.800 C 1.215 4.986,1.258 5.094,1.381 5.217 C 1.540 5.375,1.578 5.386,2.014 5.396 L 2.398 5.405 2.404 7.648 L 2.411 9.890 2.456 10.023 C 2.567 10.355,2.824 10.598,3.215 10.740 L 3.389 10.803 6.000 10.795 C 8.607 10.788,8.610 10.788,8.766 10.744 C 8.991 10.682,9.108 10.612,9.292 10.429 C 9.418 10.305,9.472 10.232,9.532 10.109 L 9.610 9.950 9.615 7.678 L 9.621 5.405 9.995 5.396 C 10.324 5.388,10.380 5.382,10.450 5.345 C 10.560 5.288,10.697 5.148,10.745 5.041 C 10.797 4.927,10.800 4.656,10.750 4.559 C 10.701 4.464,10.568 4.329,10.467 4.269 L 10.378 4.217 9.852 4.224 L 9.327 4.230 9.148 4.318 C 9.004 4.389,8.937 4.439,8.798 4.578 C 8.654 4.722,8.610 4.782,8.528 4.948 L 8.430 5.146 8.425 7.373 L 8.419 9.600 6.010 9.600 L 3.600 9.600 3.600 7.475 C 3.599 6.292,3.591 5.294,3.581 5.223 C 3.546 4.983,3.363 4.681,3.132 4.483 C 3.002 4.371,2.781 4.265,2.629 4.240 C 2.491 4.217,1.700 4.217,1.606 4.239 M4.570 4.853 C 4.433 4.924,4.355 4.992,4.278 5.108 L 4.196 5.230 4.204 6.890 C 4.213 8.723,4.205 8.613,4.342 8.769 C 4.432 8.872,4.538 8.935,4.682 8.972 C 4.888 9.025,5.079 8.963,5.237 8.791 C 5.411 8.602,5.399 8.743,5.400 6.894 C 5.400 5.279,5.399 5.257,5.359 5.177 C 5.296 5.054,5.162 4.919,5.050 4.867 C 4.927 4.810,4.668 4.802,4.570 4.853 M6.970 4.853 C 6.833 4.924,6.755 4.992,6.678 5.108 L 6.596 5.230 6.604 6.890 C 6.613 8.723,6.605 8.613,6.742 8.769 C 6.832 8.872,6.938 8.935,7.082 8.972 C 7.288 9.025,7.479 8.963,7.637 8.791 C 7.811 8.602,7.799 8.743,7.800 6.894 C 7.800 5.279,7.799 5.257,7.759 5.177 C 7.696 5.054,7.562 4.919,7.450 4.867 C 7.327 4.810,7.068 4.802,6.970 4.853 " fill="#1A1C1F" stroke="none" fill-rule="evenodd"></path></svg>