<svg width="20" height="20" viewBox="0 0 20 20" fill="none" xmlns="http://www.w3.org/2000/svg"><path d="M7.730 2.064 C 7.555 2.088,7.455 2.146,7.282 2.324 C 7.039 2.574,7.021 2.642,7.006 3.353 L 6.993 3.989 4.842 4.011 C 2.719 4.033,2.690 4.034,2.571 4.105 C 2.392 4.212,2.170 4.432,2.094 4.581 C 1.997 4.768,1.996 5.192,2.091 5.405 C 2.178 5.601,2.383 5.806,2.598 5.916 L 2.764 6.000 10.000 6.000 L 17.236 6.000 17.393 5.920 C 17.594 5.818,17.877 5.519,17.934 5.349 C 17.994 5.168,17.988 4.779,17.924 4.627 C 17.855 4.465,17.630 4.224,17.449 4.118 L 17.305 4.033 15.157 4.011 L 13.009 3.989 12.992 3.353 C 12.980 2.880,12.962 2.685,12.924 2.593 C 12.858 2.438,12.615 2.193,12.438 2.102 C 12.305 2.034,12.266 2.033,10.093 2.038 C 8.878 2.040,7.815 2.052,7.730 2.064 M2.750 7.050 C 2.732 7.056,2.674 7.070,2.621 7.082 C 2.488 7.112,2.170 7.421,2.089 7.600 C 1.996 7.807,1.996 8.193,2.089 8.400 C 2.170 8.579,2.395 8.812,2.582 8.908 C 2.701 8.970,2.791 8.980,3.357 8.993 L 3.997 9.009 4.007 12.746 L 4.017 16.483 4.095 16.700 C 4.310 17.297,4.715 17.674,5.402 17.916 L 5.655 18.004 10.002 17.992 C 14.350 17.980,14.350 17.980,14.612 17.907 C 14.974 17.806,15.207 17.665,15.505 17.366 C 15.695 17.175,15.793 17.042,15.888 16.846 L 16.017 16.583 16.025 12.796 L 16.034 9.008 16.659 8.994 C 17.209 8.981,17.299 8.971,17.417 8.910 C 17.599 8.815,17.881 8.510,17.934 8.349 C 17.994 8.168,17.988 7.779,17.924 7.627 C 17.855 7.464,17.630 7.224,17.445 7.116 L 17.296 7.028 16.421 7.039 L 15.545 7.050 15.247 7.196 C 15.004 7.316,14.898 7.395,14.661 7.633 C 14.419 7.877,14.347 7.976,14.211 8.253 L 14.050 8.583 14.041 12.292 L 14.032 16.000 10.016 16.000 L 6.000 16.000 5.999 12.458 C 5.999 10.486,5.985 8.823,5.968 8.705 C 5.861 7.967,5.101 7.184,4.375 7.065 C 4.201 7.037,2.829 7.023,2.750 7.050 M7.750 8.047 C 7.526 8.117,7.415 8.190,7.252 8.372 C 6.970 8.685,6.992 8.409,7.005 11.497 L 7.017 14.250 7.094 14.406 C 7.136 14.491,7.238 14.624,7.321 14.700 C 7.839 15.178,8.573 15.034,8.914 14.387 L 9.000 14.223 9.000 11.487 L 8.999 8.750 8.903 8.582 C 8.719 8.261,8.498 8.100,8.151 8.036 C 7.917 7.993,7.919 7.993,7.750 8.047 M11.750 8.047 C 11.526 8.117,11.415 8.190,11.252 8.372 C 10.970 8.685,10.992 8.409,11.005 11.497 L 11.017 14.250 11.094 14.406 C 11.136 14.491,11.238 14.624,11.321 14.700 C 11.839 15.178,12.573 15.034,12.914 14.387 L 13.000 14.223 13.000 11.487 L 12.999 8.750 12.903 8.582 C 12.719 8.261,12.498 8.100,12.151 8.036 C 11.917 7.993,11.919 7.993,11.750 8.047 " fill="#1A1C1F" stroke="none" fill-rule="evenodd"></path></svg>