<svg width="32" height="32" viewBox="0 0 32 32" fill="none" xmlns="http://www.w3.org/2000/svg"><path d="M11.448 2.214 C 11.029 2.536,11.023 2.569,10.997 4.405 L 10.975 6.009 7.774 6.046 C 4.134 6.088,4.418 6.047,4.138 6.562 C 4.016 6.786,3.992 6.883,4.014 7.078 C 4.044 7.342,4.253 7.680,4.497 7.862 L 4.648 7.973 15.324 7.988 C 25.107 8.002,27.247 7.981,27.520 7.869 C 27.652 7.815,27.883 7.448,27.949 7.186 C 28.018 6.911,27.961 6.651,27.771 6.381 C 27.562 6.083,27.577 6.084,24.163 6.045 L 21.013 6.009 21.013 4.485 C 21.013 2.846,20.986 2.629,20.755 2.382 C 20.438 2.043,20.708 2.063,16.000 2.038 L 11.707 2.015 11.448 2.214 M18.987 5.013 L 18.987 6.027 16.000 6.027 L 13.013 6.027 13.013 5.013 L 13.013 4.000 16.000 4.000 L 18.987 4.000 18.987 5.013 M4.763 10.083 C 4.291 10.176,4.031 10.498,4.028 10.994 C 4.027 11.247,4.053 11.335,4.187 11.524 C 4.466 11.918,4.516 11.937,5.467 12.002 C 5.936 12.034,6.398 12.084,6.494 12.114 C 6.590 12.144,6.732 12.253,6.810 12.355 L 6.952 12.542 6.993 20.017 C 7.037 28.185,7.022 27.815,7.344 28.373 C 7.694 28.981,8.317 29.527,8.970 29.798 L 9.307 29.938 11.520 29.983 C 12.737 30.008,15.749 30.022,18.213 30.014 L 22.693 30.000 23.104 29.823 C 23.874 29.490,24.377 29.015,24.756 28.261 L 24.927 27.920 24.966 26.747 C 24.987 26.101,25.007 23.473,25.009 20.907 C 25.012 18.340,25.029 15.392,25.049 14.356 L 25.084 12.473 25.226 12.321 C 25.410 12.124,25.628 12.072,26.540 12.009 C 27.368 11.951,27.540 11.895,27.752 11.613 C 27.960 11.339,28.030 11.032,27.949 10.760 C 27.861 10.466,27.711 10.259,27.511 10.156 C 27.378 10.086,27.160 10.075,26.192 10.090 L 25.034 10.107 24.664 10.293 C 24.410 10.421,24.157 10.615,23.862 10.907 C 23.420 11.343,23.214 11.679,23.091 12.166 C 23.051 12.328,23.020 14.721,22.993 19.925 L 22.953 27.449 22.832 27.619 C 22.570 27.988,23.009 27.962,16.449 27.989 C 13.190 28.003,10.316 27.997,10.061 27.975 C 9.602 27.937,9.594 27.934,9.324 27.686 L 9.052 27.436 9.011 19.891 C 8.985 15.212,8.949 12.270,8.916 12.144 C 8.810 11.738,8.564 11.335,8.170 10.923 C 7.647 10.376,7.223 10.158,6.533 10.081 C 5.973 10.019,5.083 10.019,4.763 10.083 M11.653 13.118 C 11.389 13.245,11.316 13.307,11.123 13.562 L 10.971 13.764 10.999 19.519 L 11.027 25.274 11.145 25.465 C 11.390 25.860,11.787 26.035,12.244 25.949 C 12.384 25.923,12.525 25.829,12.727 25.626 L 13.013 25.340 13.013 19.531 L 13.013 13.722 12.789 13.467 C 12.556 13.202,12.230 13.016,12.000 13.016 C 11.927 13.016,11.771 13.062,11.653 13.118 M19.653 13.118 C 19.389 13.245,19.316 13.307,19.123 13.562 L 18.971 13.764 18.999 19.519 L 19.027 25.274 19.145 25.465 C 19.390 25.860,19.787 26.035,20.244 25.949 C 20.384 25.923,20.525 25.829,20.727 25.626 L 21.013 25.340 21.013 19.531 L 21.013 13.722 20.789 13.467 C 20.556 13.202,20.230 13.016,20.000 13.016 C 19.927 13.016,19.771 13.062,19.653 13.118 M15.466 13.187 C 15.106 13.432,15.072 13.526,15.032 14.390 C 15.012 14.821,14.993 17.455,14.991 20.244 L 14.987 25.314 15.184 25.544 C 15.663 26.104,16.337 26.104,16.816 25.544 L 17.013 25.314 17.013 19.524 L 17.012 13.733 16.823 13.493 C 16.565 13.166,16.367 13.067,15.969 13.067 C 15.718 13.067,15.602 13.095,15.466 13.187 " fill="#1A1C1F" stroke="none" fill-rule="evenodd"></path></svg>