<svg width="24" height="24" viewBox="0 0 24 24" fill="none" xmlns="http://www.w3.org/2000/svg"><path d="M9.336 2.036 C 8.558 2.062,8.593 2.052,8.307 2.318 C 8.043 2.562,8.024 2.627,8.007 3.344 L 7.992 3.988 5.906 4.012 C 4.759 4.026,3.750 4.054,3.665 4.075 C 3.484 4.120,3.178 4.396,3.095 4.589 C 3.028 4.745,3.023 5.154,3.086 5.363 C 3.151 5.581,3.328 5.777,3.568 5.896 L 3.776 6.000 12.018 6.000 L 20.260 5.999 20.467 5.880 C 20.693 5.751,20.843 5.578,20.914 5.364 C 20.977 5.177,20.972 4.744,20.905 4.589 C 20.821 4.396,20.516 4.120,20.335 4.075 C 20.250 4.054,19.239 4.026,18.090 4.012 L 16.000 3.988 15.998 3.584 C 15.995 2.932,15.947 2.622,15.820 2.457 C 15.610 2.181,15.435 2.089,15.069 2.065 C 14.570 2.031,10.160 2.009,9.336 2.036 M4.000 7.040 C 3.623 7.066,3.531 7.103,3.307 7.315 C 3.089 7.521,3.031 7.653,3.033 7.942 C 3.035 8.404,3.201 8.716,3.534 8.888 C 3.678 8.962,3.787 8.976,4.348 8.992 L 4.995 9.010 5.011 14.655 C 5.027 20.763,5.017 20.488,5.239 20.920 C 5.388 21.209,5.866 21.659,6.185 21.810 L 6.460 21.939 7.400 21.966 C 8.619 22.000,15.381 22.000,16.600 21.966 L 17.540 21.939 17.815 21.810 C 18.134 21.659,18.612 21.209,18.761 20.920 C 18.983 20.489,18.973 20.762,18.989 14.655 L 19.005 9.010 19.656 8.992 C 20.276 8.975,20.317 8.969,20.493 8.866 C 20.697 8.746,20.845 8.570,20.914 8.364 C 20.977 8.178,20.972 7.746,20.906 7.589 C 20.833 7.416,20.530 7.143,20.337 7.077 C 20.127 7.006,18.861 7.001,18.567 7.070 C 17.904 7.227,17.330 7.753,17.107 8.410 C 17.022 8.660,17.022 8.671,17.009 14.330 L 16.996 20.000 11.998 20.000 L 7.000 20.000 6.998 14.810 C 6.996 11.956,6.981 9.354,6.963 9.028 C 6.932 8.459,6.925 8.425,6.785 8.143 C 6.536 7.638,5.868 7.122,5.389 7.064 C 5.093 7.028,4.352 7.015,4.000 7.040 M9.820 9.040 C 9.531 9.105,9.227 9.351,9.080 9.639 C 9.002 9.793,9.000 9.870,9.002 12.828 C 9.004 16.238,9.034 17.317,9.131 17.501 C 9.201 17.632,9.385 17.789,9.598 17.899 C 9.960 18.086,10.570 17.920,10.818 17.567 L 10.939 17.394 10.972 16.147 C 10.991 15.461,10.997 13.746,10.985 12.335 C 10.963 9.512,10.971 9.599,10.713 9.333 C 10.505 9.118,10.084 8.980,9.820 9.040 M13.820 9.040 C 13.531 9.105,13.227 9.351,13.080 9.639 C 13.002 9.793,13.000 9.870,13.002 12.828 C 13.004 16.238,13.034 17.317,13.131 17.501 C 13.201 17.632,13.385 17.789,13.598 17.899 C 13.960 18.086,14.570 17.920,14.818 17.567 L 14.939 17.394 14.972 16.147 C 14.991 15.461,14.997 13.746,14.985 12.335 C 14.963 9.512,14.971 9.599,14.713 9.333 C 14.505 9.118,14.084 8.980,13.820 9.040 " fill="#1A1C1F" stroke="none" fill-rule="evenodd"></path></svg>