<svg width="28" height="28" viewBox="0 0 28 28" fill="none" xmlns="http://www.w3.org/2000/svg"><path d="M12.017 3.708 C 10.663 3.987,9.567 4.420,8.431 5.122 C 6.115 6.555,4.495 8.800,3.800 11.538 C 3.104 14.284,3.665 17.420,5.283 19.823 C 6.918 22.253,9.396 23.833,12.410 24.368 C 12.890 24.454,13.175 24.473,13.977 24.475 C 14.584 24.476,15.107 24.453,15.353 24.413 C 18.183 23.962,20.678 22.537,22.266 20.463 C 23.365 19.028,24.083 17.341,24.391 15.470 C 24.453 15.093,24.475 14.703,24.475 14.000 C 24.475 13.297,24.453 12.907,24.391 12.530 C 24.082 10.651,23.370 8.985,22.268 7.560 C 21.847 7.015,20.883 6.065,20.337 5.656 C 18.952 4.618,17.150 3.849,15.618 3.643 C 15.418 3.615,14.641 3.595,13.892 3.598 C 12.668 3.601,12.478 3.612,12.017 3.708 M16.147 5.537 C 17.167 5.821,17.976 6.181,18.776 6.708 C 20.441 7.804,21.670 9.411,22.302 11.317 C 22.638 12.332,22.654 12.454,22.650 14.023 C 22.647 15.310,22.638 15.459,22.540 15.867 C 22.263 17.029,21.686 18.280,20.966 19.282 L 20.803 19.508 19.373 18.110 C 18.587 17.342,15.812 14.579,13.207 11.970 L 8.470 7.228 8.610 7.112 C 8.994 6.793,10.240 6.105,10.967 5.812 C 11.338 5.661,12.282 5.417,12.693 5.365 C 12.860 5.344,13.574 5.337,14.280 5.350 L 15.563 5.374 16.147 5.537 M13.673 14.910 L 19.530 20.772 19.390 20.888 C 18.828 21.356,17.569 22.017,16.701 22.299 C 15.640 22.644,15.288 22.697,14.070 22.698 C 12.864 22.698,12.439 22.644,11.545 22.374 C 10.512 22.062,9.601 21.614,8.848 21.050 C 7.175 19.796,6.053 18.113,5.503 16.030 L 5.367 15.517 5.367 13.996 L 5.367 12.476 5.527 11.890 C 5.853 10.700,6.329 9.692,6.990 8.787 L 7.202 8.497 7.509 8.772 C 7.678 8.924,10.452 11.685,13.673 14.910 " fill="#1A1C1F" stroke="none" fill-rule="evenodd"></path></svg>