<svg width="16" height="16" viewBox="0 0 16 16" fill="none" xmlns="http://www.w3.org/2000/svg"><path d="M7.508 2.429 C 6.204 2.552,4.944 3.151,4.021 4.085 C 3.322 4.792,2.843 5.629,2.589 6.587 C 2.026 8.713,2.789 10.992,4.528 12.378 C 5.051 12.795,5.599 13.089,6.264 13.307 C 6.767 13.472,7.119 13.543,7.607 13.578 C 9.497 13.713,11.316 12.881,12.469 11.353 C 12.950 10.716,13.286 9.975,13.482 9.120 C 13.624 8.502,13.624 7.494,13.482 6.874 C 13.081 5.122,12.028 3.768,10.470 3.001 C 9.566 2.556,8.448 2.340,7.508 2.429 M8.773 4.090 C 9.270 4.189,9.800 4.412,10.251 4.713 C 10.549 4.910,10.969 5.312,11.193 5.613 C 11.575 6.126,11.857 6.817,11.949 7.463 C 11.990 7.752,11.965 8.558,11.907 8.812 C 11.811 9.236,11.485 10.041,11.371 10.135 C 11.327 10.172,10.238 9.114,7.812 6.676 C 6.221 5.078,5.867 4.707,5.867 4.644 C 5.867 4.603,6.387 4.345,6.678 4.242 C 6.809 4.196,7.055 4.129,7.225 4.092 C 7.508 4.032,7.575 4.027,8.053 4.038 C 8.361 4.045,8.655 4.066,8.773 4.090 M6.435 7.567 C 8.445 9.573,10.160 11.319,10.160 11.358 C 10.160 11.396,9.486 11.719,9.238 11.800 C 8.892 11.913,8.697 11.950,8.340 11.970 C 7.863 11.997,7.375 11.965,7.065 11.885 C 6.310 11.690,5.731 11.354,5.162 10.779 C 4.835 10.449,4.622 10.150,4.425 9.747 C 4.117 9.116,4.043 8.775,4.043 7.987 C 4.043 7.384,4.079 7.118,4.215 6.731 C 4.300 6.491,4.629 5.813,4.662 5.813 C 4.671 5.813,5.469 6.602,6.435 7.567 " fill="#1A1C1F" stroke="none" fill-rule="evenodd"></path></svg>