<svg width="24" height="24" viewBox="0 0 24 24" fill="none" xmlns="http://www.w3.org/2000/svg"><path d="M10.580 3.138 C 9.947 3.250,9.541 3.354,8.995 3.543 C 6.850 4.289,5.011 5.902,4.001 7.920 C 2.988 9.945,2.745 12.048,3.280 14.164 C 3.952 16.825,5.823 19.076,8.283 20.181 C 10.279 21.078,12.378 21.232,14.468 20.634 C 18.962 19.349,21.732 14.817,20.817 10.246 C 20.303 7.680,18.672 5.439,16.406 4.186 C 15.608 3.744,14.615 3.368,13.820 3.206 C 12.876 3.014,11.452 2.984,10.580 3.138 M12.480 5.041 C 13.773 5.153,14.870 5.534,15.940 6.244 C 16.561 6.656,17.356 7.453,17.772 8.081 C 18.294 8.870,18.664 9.752,18.845 10.640 C 18.960 11.206,18.987 12.282,18.903 12.919 C 18.827 13.493,18.689 14.066,18.538 14.440 C 18.374 14.845,17.850 15.851,17.726 15.999 L 17.614 16.133 16.057 14.610 C 15.201 13.772,12.997 11.581,11.160 9.742 C 7.963 6.539,7.823 6.394,7.900 6.335 C 7.944 6.301,8.147 6.174,8.352 6.053 C 9.342 5.467,10.360 5.131,11.410 5.045 C 11.995 4.997,11.975 4.997,12.480 5.041 M11.540 12.959 L 16.180 17.603 16.080 17.681 C 15.912 17.814,15.178 18.235,14.891 18.364 C 13.047 19.192,11.010 19.195,9.140 18.374 C 6.811 17.350,5.170 14.965,5.046 12.420 C 4.969 10.867,5.325 9.502,6.148 8.189 L 6.368 7.839 6.634 8.077 C 6.780 8.208,8.988 10.405,11.540 12.959 " fill="#1A1C1F" stroke="none" fill-rule="evenodd"></path></svg>