<svg width="20" height="20" viewBox="0 0 20 20" fill="none" xmlns="http://www.w3.org/2000/svg"><path d="M9.167 3.057 C 8.529 3.129,7.640 3.397,6.983 3.715 C 6.120 4.133,5.694 4.445,4.962 5.191 C 4.411 5.753,4.080 6.218,3.739 6.908 C 3.507 7.378,3.237 8.155,3.134 8.650 C 2.968 9.452,2.975 10.650,3.150 11.417 C 3.465 12.799,4.080 13.938,5.029 14.896 C 6.115 15.994,7.364 16.638,8.950 16.919 C 9.419 17.002,10.581 17.002,11.050 16.919 C 12.427 16.675,13.549 16.153,14.550 15.291 C 15.533 14.445,16.212 13.437,16.618 12.221 C 16.828 11.594,16.926 11.115,16.971 10.493 C 17.039 9.549,16.940 8.762,16.634 7.831 C 16.294 6.797,15.898 6.128,15.091 5.228 C 14.066 4.084,12.419 3.252,10.816 3.068 C 10.534 3.036,9.422 3.028,9.167 3.057 M10.931 5.104 C 11.236 5.152,11.729 5.315,12.119 5.498 C 13.539 6.166,14.546 7.443,14.889 9.010 C 14.936 9.224,14.949 9.435,14.950 9.983 C 14.950 10.776,14.898 11.105,14.676 11.700 C 14.547 12.046,14.256 12.649,14.201 12.683 C 14.156 12.710,12.416 11.009,9.765 8.345 C 7.737 6.307,7.333 5.886,7.333 5.807 C 7.333 5.762,8.055 5.393,8.317 5.306 C 8.699 5.177,9.052 5.094,9.317 5.070 C 9.657 5.039,10.651 5.060,10.931 5.104 M8.919 10.340 C 10.533 11.959,12.047 13.485,12.282 13.731 L 12.709 14.178 12.630 14.243 C 12.450 14.388,11.681 14.722,11.274 14.830 C 10.830 14.949,10.652 14.968,9.996 14.969 C 9.499 14.970,9.308 14.956,9.040 14.901 C 8.048 14.699,7.197 14.231,6.457 13.481 C 6.043 13.060,5.777 12.688,5.531 12.183 C 5.149 11.400,5.054 10.969,5.053 10.000 C 5.052 9.000,5.154 8.552,5.573 7.725 L 5.805 7.266 5.894 7.331 C 5.943 7.367,7.304 8.720,8.919 10.340 " fill="#1A1C1F" stroke="none" fill-rule="evenodd"></path></svg>