<svg width="32" height="32" viewBox="0 0 32 32" fill="none" xmlns="http://www.w3.org/2000/svg"><path d="M14.667 4.109 C 12.764 4.261,10.387 5.211,8.667 6.507 C 6.630 8.042,5.132 10.320,4.399 12.995 C 3.515 16.219,4.151 19.887,6.086 22.723 C 7.956 25.464,10.765 27.242,14.182 27.850 C 14.731 27.947,15.057 27.969,15.973 27.971 C 17.147 27.973,17.560 27.930,18.557 27.700 C 21.434 27.034,23.907 25.461,25.544 23.253 C 27.212 21.003,28.091 18.244,27.982 15.600 C 27.852 12.429,26.548 9.523,24.289 7.366 C 22.943 6.080,21.486 5.215,19.653 4.612 C 18.132 4.111,16.590 3.956,14.667 4.109 M17.411 6.136 C 18.711 6.285,20.253 6.866,21.467 7.665 C 23.378 8.923,24.773 10.756,25.492 12.952 C 25.872 14.111,25.894 14.290,25.886 16.053 C 25.877 17.802,25.843 18.052,25.455 19.173 C 25.151 20.051,24.462 21.362,23.912 22.108 L 23.798 22.263 23.299 21.805 C 23.024 21.552,19.848 18.407,16.240 14.814 C 10.486 9.085,9.689 8.272,9.751 8.197 C 9.879 8.043,10.792 7.482,11.442 7.158 C 12.454 6.653,13.452 6.309,14.347 6.158 C 14.839 6.075,16.759 6.061,17.411 6.136 M15.573 16.986 L 22.320 23.739 22.160 23.872 C 21.422 24.484,20.031 25.201,18.913 25.545 C 17.840 25.875,17.321 25.947,16.000 25.947 C 14.598 25.947,14.071 25.865,12.841 25.458 C 11.500 25.013,10.424 24.391,9.390 23.460 C 7.832 22.058,6.838 20.407,6.287 18.306 L 6.123 17.680 6.115 16.080 C 6.106 14.288,6.127 14.114,6.506 12.957 C 6.838 11.944,7.318 10.991,7.936 10.121 L 8.229 9.709 8.528 9.971 C 8.692 10.115,11.863 13.272,15.573 16.986 " fill="#1A1C1F" stroke="none" fill-rule="evenodd"></path></svg>