<svg width="14" height="14" viewBox="0 0 14 14" fill="none" xmlns="http://www.w3.org/2000/svg"><path d="M6.288 2.159 C 5.787 2.240,5.355 2.376,4.888 2.600 C 4.325 2.870,4.058 3.059,3.574 3.534 C 2.970 4.125,2.636 4.655,2.365 5.454 C 2.151 6.087,2.075 6.679,2.121 7.365 C 2.174 8.137,2.467 9.012,2.887 9.648 C 3.896 11.177,5.600 12.021,7.390 11.879 C 7.795 11.847,8.102 11.783,8.524 11.643 C 10.206 11.083,11.393 9.755,11.797 7.980 C 11.920 7.438,11.920 6.556,11.796 6.020 C 11.560 4.994,11.160 4.259,10.461 3.561 C 9.711 2.812,8.866 2.371,7.817 2.182 C 7.507 2.126,6.580 2.112,6.288 2.159 M7.688 3.581 C 8.726 3.794,9.643 4.494,10.114 5.433 C 10.393 5.991,10.527 6.652,10.476 7.228 C 10.450 7.525,10.386 7.867,10.314 8.099 C 10.261 8.268,9.982 8.852,9.943 8.877 C 9.910 8.897,8.716 7.731,6.835 5.841 C 5.444 4.443,5.133 4.119,5.133 4.063 C 5.133 4.027,5.589 3.802,5.843 3.712 C 5.958 3.672,6.173 3.613,6.321 3.581 C 6.569 3.528,6.630 3.524,7.047 3.533 C 7.342 3.539,7.567 3.556,7.688 3.581 M6.440 7.435 C 7.679 8.678,8.737 9.750,8.792 9.816 L 8.892 9.938 8.802 9.998 C 8.642 10.104,8.124 10.313,7.844 10.385 C 6.858 10.640,5.741 10.420,4.935 9.814 C 4.707 9.642,4.333 9.262,4.170 9.035 C 3.929 8.700,3.706 8.234,3.619 7.882 C 3.518 7.474,3.501 6.708,3.584 6.270 C 3.634 6.010,3.738 5.728,3.913 5.384 L 4.064 5.086 4.126 5.131 C 4.160 5.155,5.202 6.192,6.440 7.435 " fill="#1A1C1F" stroke="none" fill-rule="evenodd"></path></svg>