<svg width="20" height="20" viewBox="0 0 20 20" fill="none" xmlns="http://www.w3.org/2000/svg"><path d="M14.800 5.532 C 14.736 5.544,14.631 5.582,14.568 5.615 C 14.437 5.684,12.375 7.702,9.750 10.331 L 7.984 12.100 7.100 11.223 C 6.048 10.180,5.661 9.811,5.467 9.671 C 5.333 9.574,5.304 9.567,5.044 9.567 C 4.697 9.567,4.572 9.616,4.339 9.843 C 4.084 10.092,4.022 10.228,4.022 10.537 C 4.021 10.753,4.034 10.813,4.112 10.945 C 4.246 11.174,4.829 11.791,5.986 12.931 C 7.198 14.123,7.528 14.419,7.695 14.466 C 7.904 14.524,8.197 14.507,8.360 14.429 C 8.554 14.335,10.023 12.907,12.750 10.162 C 15.090 7.807,15.850 7.010,15.925 6.834 C 15.997 6.663,15.989 6.276,15.909 6.095 C 15.726 5.682,15.253 5.442,14.800 5.532 " fill="#1A1C1F" stroke="none" fill-rule="evenodd"></path></svg>