<svg width="12" height="12" viewBox="0 0 12 12" fill="none" xmlns="http://www.w3.org/2000/svg"><path d="M8.743 3.351 C 8.702 3.368,7.917 4.137,6.732 5.319 L 4.788 7.259 4.349 6.818 C 3.818 6.284,3.369 5.860,3.256 5.785 C 3.183 5.737,3.155 5.730,3.021 5.731 C 2.836 5.733,2.755 5.766,2.619 5.893 C 2.477 6.026,2.442 6.080,2.419 6.209 C 2.384 6.396,2.419 6.519,2.554 6.688 C 2.787 6.977,4.341 8.514,4.524 8.635 C 4.587 8.677,4.633 8.689,4.760 8.696 C 4.894 8.704,4.931 8.698,5.011 8.660 C 5.133 8.600,6.010 7.748,7.693 6.055 C 9.084 4.653,9.509 4.208,9.555 4.100 C 9.600 3.996,9.596 3.771,9.546 3.659 C 9.489 3.531,9.395 3.431,9.275 3.371 C 9.187 3.327,9.146 3.320,8.991 3.321 C 8.878 3.321,8.785 3.333,8.743 3.351 " fill="#1A1C1F" stroke="none" fill-rule="evenodd"></path></svg>