<svg width="32" height="32" viewBox="0 0 32 32" fill="none" xmlns="http://www.w3.org/2000/svg"><path d="M25.654 8.057 C 25.501 8.121,24.188 9.415,17.110 16.475 L 12.007 21.566 9.251 18.850 C 7.736 17.356,6.444 16.113,6.381 16.089 C 6.204 16.019,5.731 16.086,5.507 16.212 C 5.116 16.432,4.949 16.832,5.069 17.262 C 5.130 17.480,5.327 17.703,6.777 19.194 C 8.252 20.711,10.467 22.893,11.346 23.696 C 11.636 23.961,11.707 24.000,11.895 24.000 C 12.013 24.000,12.194 23.965,12.296 23.923 C 12.518 23.830,18.325 18.100,23.406 12.960 C 27.127 9.196,27.050 9.286,26.964 8.831 C 26.872 8.336,26.090 7.875,25.654 8.057 " fill="#1A1C1F" stroke="none" fill-rule="evenodd"></path></svg>