<svg width="28" height="28" viewBox="0 0 28 28" fill="none" xmlns="http://www.w3.org/2000/svg"><path d="M22.447 7.053 C 22.314 7.105,21.202 8.201,14.971 14.416 L 10.506 18.870 8.082 16.482 L 5.659 14.093 5.348 14.093 C 5.177 14.093,4.969 14.122,4.886 14.156 C 4.682 14.242,4.445 14.522,4.407 14.722 C 4.348 15.038,4.417 15.196,4.802 15.625 C 5.319 16.201,9.373 20.257,9.842 20.668 L 10.233 21.011 10.494 20.981 C 10.637 20.964,10.804 20.918,10.865 20.878 C 11.029 20.771,18.972 12.883,21.399 10.418 C 23.322 8.464,23.507 8.263,23.564 8.059 C 23.640 7.790,23.586 7.558,23.403 7.362 C 23.168 7.110,22.693 6.957,22.447 7.053 " fill="#1A1C1F" stroke="none" fill-rule="evenodd"></path></svg>