<svg width="24" height="24" viewBox="0 0 24 24" fill="none" xmlns="http://www.w3.org/2000/svg"><path d="M18.614 6.117 C 18.387 6.220,17.789 6.805,13.116 11.487 C 10.903 13.705,9.076 15.520,9.056 15.519 C 9.036 15.518,8.597 15.112,8.080 14.616 C 5.872 12.498,5.505 12.154,5.396 12.098 C 5.056 11.922,4.595 12.013,4.283 12.317 C 4.083 12.512,4.000 12.722,4.000 13.030 C 4.000 13.260,4.153 13.468,4.895 14.251 C 5.666 15.066,8.368 17.722,8.573 17.869 C 8.694 17.954,8.759 17.969,9.011 17.969 C 9.203 17.969,9.350 17.947,9.430 17.905 C 9.684 17.774,18.311 9.199,19.489 7.908 C 19.957 7.395,20.027 7.255,19.987 6.913 C 19.945 6.563,19.695 6.229,19.374 6.095 C 19.186 6.016,18.812 6.027,18.614 6.117 " fill="#1A1C1F" stroke="none" fill-rule="evenodd"></path></svg>