<svg width="14" height="14" viewBox="0 0 14 14" fill="none" xmlns="http://www.w3.org/2000/svg"><path d="M10.201 3.909 C 10.154 3.929,9.229 4.834,7.855 6.206 L 5.586 8.468 5.051 7.930 C 4.425 7.302,3.934 6.838,3.798 6.749 C 3.714 6.693,3.680 6.685,3.525 6.687 C 3.302 6.689,3.210 6.728,3.034 6.896 C 2.854 7.068,2.815 7.153,2.815 7.376 C 2.815 7.524,2.824 7.569,2.875 7.656 C 2.970 7.819,3.387 8.261,4.179 9.040 C 5.040 9.888,5.269 10.094,5.386 10.126 C 5.533 10.167,5.738 10.155,5.852 10.100 C 5.988 10.034,7.052 9.000,8.952 7.087 C 10.574 5.454,11.095 4.907,11.148 4.783 C 11.200 4.662,11.193 4.396,11.134 4.262 C 11.072 4.121,10.875 3.929,10.762 3.898 C 10.634 3.862,10.293 3.869,10.201 3.909 " fill="#1A1C1F" stroke="none" fill-rule="evenodd"></path></svg>