<svg width="16" height="16" viewBox="0 0 16 16" fill="none" xmlns="http://www.w3.org/2000/svg"><path d="M11.693 4.462 C 11.577 4.515,10.950 5.125,8.533 7.538 L 6.386 9.680 5.893 9.184 C 5.268 8.556,4.516 7.840,4.371 7.734 C 4.267 7.659,4.242 7.653,4.035 7.653 C 3.758 7.653,3.657 7.693,3.471 7.875 C 3.268 8.073,3.218 8.182,3.217 8.429 C 3.217 8.600,3.228 8.651,3.286 8.750 C 3.395 8.935,3.870 9.439,4.776 10.331 C 5.757 11.298,6.022 11.535,6.156 11.573 C 6.323 11.619,6.557 11.606,6.688 11.543 C 6.843 11.468,8.097 10.248,10.289 8.040 C 12.131 6.185,12.679 5.609,12.740 5.467 C 12.762 5.415,12.779 5.293,12.779 5.187 C 12.779 4.896,12.673 4.694,12.433 4.528 C 12.314 4.446,12.291 4.441,12.040 4.433 C 11.857 4.428,11.748 4.437,11.693 4.462 " fill="#1A1C1F" stroke="none" fill-rule="evenodd"></path></svg>