<svg width="20" height="20" viewBox="0 0 20 20" fill="none" xmlns="http://www.w3.org/2000/svg"><path d="M7.983 2.065 C 7.910 2.077,7.790 2.119,7.717 2.157 C 7.545 2.247,7.242 2.554,7.125 2.758 L 7.034 2.917 7.034 7.985 L 7.033 13.054 7.117 13.222 C 7.227 13.443,7.553 13.766,7.798 13.896 L 7.993 14.000 12.040 14.000 L 16.087 14.000 16.285 13.881 C 16.559 13.718,16.817 13.454,16.935 13.220 L 17.033 13.023 17.033 8.016 L 17.033 3.009 16.917 2.776 C 16.782 2.507,16.531 2.250,16.273 2.120 L 16.102 2.033 12.109 2.038 C 9.913 2.040,8.057 2.052,7.983 2.065 M14.967 8.000 L 14.967 12.000 11.967 12.000 L 8.967 12.000 8.967 8.000 L 8.967 4.000 11.967 4.000 L 14.967 4.000 14.967 8.000 M3.516 6.110 C 3.342 6.193,3.175 6.358,3.078 6.542 C 2.985 6.718,2.965 7.895,2.975 12.733 L 2.983 17.150 3.065 17.314 C 3.167 17.520,3.434 17.789,3.658 17.909 L 3.829 18.002 7.573 17.993 L 11.317 17.983 11.467 17.895 C 11.779 17.710,11.927 17.456,11.957 17.051 C 11.973 16.844,11.965 16.784,11.903 16.656 C 11.799 16.442,11.590 16.217,11.416 16.133 C 11.197 16.027,10.475 16.003,7.475 16.001 L 4.967 16.000 4.965 11.775 C 4.964 9.451,4.951 7.347,4.936 7.098 C 4.904 6.583,4.854 6.441,4.643 6.275 C 4.411 6.093,4.303 6.055,3.983 6.042 C 3.721 6.032,3.662 6.040,3.516 6.110 " fill="#1A1C1F" stroke="none" fill-rule="evenodd"></path></svg>