<svg width="12" height="12" viewBox="0 0 12 12" fill="none" xmlns="http://www.w3.org/2000/svg"><path d="M4.790 1.239 C 4.746 1.246,4.674 1.272,4.630 1.295 C 4.530 1.347,4.342 1.541,4.272 1.662 L 4.220 1.754 4.220 4.793 L 4.220 7.832 4.270 7.933 C 4.336 8.066,4.532 8.260,4.679 8.338 L 4.796 8.400 7.223 8.400 L 9.651 8.400 9.778 8.325 C 9.932 8.234,10.098 8.060,10.169 7.914 L 10.222 7.806 10.215 4.828 C 10.209 2.028,10.207 1.843,10.173 1.740 C 10.104 1.527,9.968 1.375,9.746 1.263 L 9.662 1.220 7.266 1.223 C 5.948 1.224,4.834 1.231,4.790 1.239 M8.980 4.800 L 8.980 7.200 7.180 7.200 L 5.380 7.200 5.380 4.800 L 5.380 2.400 7.180 2.400 L 8.980 2.400 8.980 4.800 M2.158 3.646 C 2.022 3.697,1.880 3.824,1.840 3.930 C 1.789 4.063,1.779 4.733,1.784 7.470 L 1.790 10.290 1.838 10.388 C 1.899 10.511,2.061 10.673,2.195 10.746 L 2.298 10.801 4.544 10.796 C 6.410 10.791,6.798 10.785,6.840 10.762 C 6.943 10.705,7.062 10.595,7.113 10.507 C 7.160 10.427,7.166 10.395,7.167 10.223 C 7.168 10.074,7.160 10.015,7.132 9.962 C 7.081 9.866,6.921 9.712,6.818 9.659 L 6.730 9.614 4.856 9.604 L 2.982 9.594 2.974 6.842 C 2.968 4.703,2.961 4.068,2.941 3.992 C 2.911 3.879,2.794 3.749,2.657 3.678 C 2.549 3.622,2.270 3.604,2.158 3.646 " fill="#1A1C1F" stroke="none" fill-rule="evenodd"></path></svg>