<svg width="28" height="28" viewBox="0 0 28 28" fill="none" xmlns="http://www.w3.org/2000/svg"><path d="M13.906 2.658 L 12.154 2.683 11.839 2.839 C 11.634 2.939,11.409 3.107,11.196 3.317 C 10.763 3.744,10.602 4.080,10.544 4.676 C 10.521 4.915,10.502 7.895,10.501 11.300 L 10.500 17.489 10.691 17.872 C 11.007 18.501,11.479 18.916,12.165 19.165 L 12.464 19.273 17.500 19.273 L 22.536 19.273 22.835 19.165 C 23.483 18.930,24.001 18.490,24.266 17.952 C 24.400 17.680,24.422 17.577,24.461 17.047 C 24.488 16.696,24.499 13.995,24.488 10.477 C 24.472 4.986,24.464 4.481,24.390 4.223 C 24.346 4.069,24.258 3.866,24.196 3.771 C 23.999 3.473,23.516 3.043,23.174 2.861 L 22.843 2.686 21.047 2.654 C 19.029 2.618,16.509 2.619,13.906 2.658 M22.601 4.518 L 22.727 4.648 22.727 10.943 L 22.727 17.238 22.601 17.369 L 22.476 17.500 17.500 17.500 L 12.524 17.500 12.399 17.369 L 12.273 17.238 12.273 10.943 L 12.273 4.648 12.399 4.518 L 12.524 4.387 17.500 4.387 L 22.476 4.387 22.601 4.518 M5.530 8.815 C 5.122 8.841,5.027 8.864,4.777 9.000 C 4.205 9.308,3.784 9.782,3.611 10.313 C 3.533 10.554,3.526 10.951,3.511 16.567 C 3.502 20.026,3.513 22.814,3.538 23.156 C 3.576 23.665,3.602 23.791,3.725 24.053 C 3.991 24.622,4.567 25.111,5.167 25.276 C 5.467 25.359,5.745 25.363,10.523 25.363 L 15.563 25.363 15.893 25.260 C 16.584 25.042,17.188 24.444,17.391 23.777 C 17.461 23.547,17.476 23.333,17.476 22.579 L 17.477 21.662 17.335 21.460 C 17.050 21.054,16.566 20.929,16.172 21.159 C 15.836 21.357,15.766 21.580,15.731 22.571 C 15.705 23.336,15.698 23.378,15.590 23.493 L 15.477 23.613 10.501 23.613 L 5.524 23.613 5.399 23.482 L 5.273 23.352 5.273 17.057 L 5.273 10.762 5.399 10.631 L 5.524 10.500 6.629 10.500 C 8.111 10.500,8.320 10.455,8.574 10.082 C 8.770 9.795,8.769 9.435,8.573 9.140 C 8.385 8.858,8.266 8.831,7.070 8.807 C 6.480 8.795,5.787 8.798,5.530 8.815 " fill="#1A1C1F" stroke="none" fill-rule="evenodd"></path></svg>