<svg width="24" height="24" viewBox="0 0 24 24" fill="none" xmlns="http://www.w3.org/2000/svg"><path d="M7.940 2.060 C 7.918 2.067,7.834 2.084,7.753 2.098 C 7.571 2.128,7.214 2.438,7.129 2.639 C 7.026 2.885,7.004 4.281,7.002 10.831 L 7.000 17.123 7.096 17.313 C 7.207 17.532,7.479 17.797,7.714 17.917 C 7.877 18.000,7.886 18.000,14.000 18.000 L 20.123 18.000 20.287 17.916 C 20.482 17.817,20.802 17.507,20.906 17.316 C 20.977 17.185,20.980 16.917,20.980 10.040 C 20.980 6.113,20.967 2.852,20.950 2.794 C 20.904 2.630,20.630 2.307,20.417 2.167 L 20.226 2.040 14.103 2.043 C 10.735 2.045,7.962 2.052,7.940 2.060 M19.000 10.000 L 19.000 16.000 14.000 16.000 L 9.000 16.000 9.000 10.000 L 9.000 4.000 14.000 4.000 L 19.000 4.000 19.000 10.000 M3.444 6.204 C 3.048 6.468,3.064 6.390,3.035 8.140 C 3.021 8.976,3.007 12.177,3.005 15.254 L 3.000 20.849 3.130 21.093 C 3.296 21.405,3.595 21.704,3.907 21.870 L 4.151 22.000 9.446 21.998 C 14.703 21.996,16.183 21.971,16.428 21.881 C 16.695 21.783,16.976 21.331,16.976 21.000 C 16.976 20.746,16.898 20.570,16.686 20.347 C 16.402 20.048,16.623 20.069,13.380 20.036 C 11.774 20.020,9.233 20.005,7.734 20.003 L 5.008 20.000 4.991 13.390 C 4.978 8.274,4.963 6.753,4.925 6.660 C 4.784 6.318,4.341 6.041,3.935 6.040 C 3.713 6.040,3.665 6.056,3.444 6.204 " fill="#1A1C1F" stroke="none" fill-rule="evenodd"></path></svg>