<svg width="32" height="32" viewBox="0 0 32 32" fill="none" xmlns="http://www.w3.org/2000/svg"><path d="M16.027 3.033 L 13.840 3.067 13.496 3.253 C 13.307 3.356,12.987 3.602,12.786 3.800 C 12.302 4.278,12.116 4.667,12.051 5.344 C 12.024 5.617,12.002 9.023,12.001 12.914 L 12.000 19.988 12.216 20.420 C 12.520 21.026,12.959 21.462,13.575 21.767 L 14.045 22.000 19.887 22.014 C 25.173 22.027,25.754 22.020,25.997 21.941 C 26.796 21.682,27.417 21.152,27.787 20.414 L 28.006 19.975 27.985 12.588 C 27.969 7.242,27.946 5.127,27.901 4.936 C 27.802 4.512,27.636 4.228,27.281 3.877 C 26.895 3.492,26.449 3.211,26.074 3.114 C 25.754 3.031,19.489 2.981,16.027 3.033 M25.830 5.163 L 25.973 5.313 25.973 12.507 L 25.973 19.701 25.830 19.850 L 25.687 20.000 20.000 20.000 L 14.313 20.000 14.170 19.850 L 14.027 19.701 14.027 12.507 L 14.027 5.313 14.170 5.163 L 14.313 5.013 20.000 5.013 L 25.687 5.013 25.830 5.163 M6.347 10.075 C 5.854 10.107,5.747 10.133,5.459 10.287 C 4.809 10.635,4.325 11.179,4.127 11.787 C 4.037 12.061,4.030 12.515,4.013 18.887 C 4.002 22.730,4.015 26.009,4.043 26.416 C 4.087 27.052,4.112 27.180,4.256 27.488 C 4.561 28.140,5.219 28.698,5.905 28.887 C 6.248 28.981,6.566 28.987,12.027 28.987 C 17.477 28.987,17.804 28.981,18.106 28.888 C 18.512 28.763,18.777 28.607,19.153 28.271 C 19.518 27.946,19.746 27.599,19.875 27.173 C 19.955 26.910,19.973 26.666,19.973 25.805 L 19.973 24.756 19.811 24.525 C 19.485 24.061,18.932 23.919,18.483 24.182 C 18.098 24.408,18.018 24.663,17.979 25.796 C 17.948 26.670,17.941 26.718,17.817 26.849 L 17.688 26.987 12.001 26.987 L 6.313 26.987 6.170 26.837 L 6.027 26.687 6.027 19.487 L 6.027 12.287 6.173 12.147 L 6.320 12.007 7.760 11.990 C 9.395 11.970,9.479 11.952,9.755 11.571 C 10.023 11.202,10.038 10.806,9.798 10.446 C 9.584 10.124,9.444 10.093,8.107 10.064 C 7.447 10.050,6.655 10.055,6.347 10.075 " fill="#1A1C1F" stroke="none" fill-rule="evenodd"></path></svg>