<svg width="16" height="16" viewBox="0 0 16 16" fill="none" xmlns="http://www.w3.org/2000/svg"><path d="M6.387 1.652 C 6.328 1.662,6.232 1.695,6.173 1.726 C 6.036 1.798,5.794 2.044,5.700 2.206 L 5.627 2.333 5.627 6.388 L 5.627 10.443 5.696 10.581 C 5.785 10.760,6.038 11.010,6.238 11.117 L 6.394 11.200 9.628 11.200 L 12.862 11.200 13.025 11.109 C 13.228 10.995,13.474 10.741,13.560 10.555 L 13.626 10.413 13.626 6.410 L 13.627 2.407 13.534 2.221 C 13.426 2.006,13.224 1.800,13.019 1.696 L 12.882 1.627 9.688 1.630 C 7.931 1.632,6.445 1.642,6.387 1.652 M11.973 6.400 L 11.973 9.600 9.573 9.600 L 7.173 9.600 7.173 6.400 L 7.173 3.200 9.573 3.200 L 11.973 3.200 11.973 6.400 M2.877 4.862 C 2.696 4.929,2.507 5.098,2.453 5.240 C 2.385 5.417,2.371 6.310,2.379 9.960 L 2.387 13.720 2.452 13.853 C 2.535 14.020,2.744 14.231,2.925 14.328 L 3.064 14.402 6.059 14.394 L 9.053 14.387 9.173 14.316 C 9.423 14.168,9.541 13.964,9.566 13.640 C 9.578 13.475,9.572 13.427,9.522 13.325 C 9.439 13.154,9.272 12.974,9.133 12.907 C 8.957 12.822,8.384 12.802,5.995 12.801 L 3.977 12.800 3.966 9.127 C 3.957 6.315,3.947 5.423,3.922 5.325 C 3.883 5.175,3.755 5.031,3.562 4.919 C 3.450 4.854,3.396 4.841,3.202 4.834 C 3.056 4.829,2.939 4.839,2.877 4.862 " fill="#1A1C1F" stroke="none" fill-rule="evenodd"></path></svg>