<svg width="14" height="14" viewBox="0 0 14 14" fill="none" xmlns="http://www.w3.org/2000/svg"><path d="M5.588 1.445 C 5.537 1.454,5.453 1.483,5.402 1.510 C 5.284 1.571,5.039 1.825,4.973 1.954 L 4.923 2.051 4.923 5.594 L 4.923 9.138 4.982 9.255 C 5.059 9.410,5.287 9.636,5.458 9.727 L 5.595 9.800 8.427 9.800 L 11.259 9.800 11.407 9.713 C 11.585 9.607,11.778 9.406,11.862 9.237 L 11.923 9.114 11.923 5.811 C 11.922 3.995,11.913 2.407,11.902 2.283 C 11.867 1.899,11.703 1.642,11.391 1.484 L 11.272 1.423 8.477 1.426 C 6.939 1.428,5.640 1.436,5.588 1.445 M10.477 5.600 L 10.477 8.400 8.377 8.400 L 6.277 8.400 6.277 5.600 L 6.277 2.800 8.377 2.800 L 10.477 2.800 10.477 5.600 M2.517 4.254 C 2.359 4.313,2.194 4.461,2.146 4.585 C 2.087 4.740,2.075 5.522,2.082 8.715 L 2.088 12.005 2.146 12.122 C 2.217 12.267,2.401 12.451,2.560 12.537 L 2.681 12.602 5.301 12.595 C 8.217 12.588,7.955 12.603,8.159 12.427 C 8.308 12.298,8.363 12.162,8.363 11.923 C 8.363 11.764,8.353 11.703,8.310 11.614 C 8.251 11.493,8.090 11.338,7.945 11.264 C 7.853 11.217,7.814 11.216,5.666 11.205 L 3.479 11.194 3.470 7.971 C 3.463 5.356,3.456 4.729,3.430 4.645 C 3.393 4.523,3.248 4.368,3.100 4.291 C 2.974 4.225,2.649 4.205,2.517 4.254 " fill="#1A1C1F" stroke="none" fill-rule="evenodd"></path></svg>