<svg width="12" height="12" viewBox="0 0 12 12" fill="none" xmlns="http://www.w3.org/2000/svg"><path d="M2.894 2.423 C 2.567 2.471,2.335 2.829,2.422 3.150 C 2.464 3.303,2.485 3.326,4.779 5.645 L 5.130 6.000 4.139 6.995 C 2.649 8.490,2.528 8.619,2.456 8.773 C 2.403 8.885,2.396 8.919,2.405 9.018 C 2.426 9.252,2.563 9.449,2.770 9.544 C 2.846 9.579,2.906 9.589,3.021 9.589 C 3.150 9.589,3.185 9.581,3.271 9.531 C 3.335 9.494,3.833 9.011,4.686 8.162 L 6.001 6.851 7.036 7.883 C 7.605 8.450,8.221 9.059,8.406 9.236 C 8.727 9.544,8.746 9.558,8.853 9.581 C 9.221 9.657,9.560 9.400,9.595 9.019 C 9.604 8.919,9.597 8.885,9.544 8.773 C 9.472 8.619,9.350 8.490,7.851 6.985 L 6.870 6.000 7.161 5.705 C 7.321 5.543,7.875 4.982,8.392 4.460 C 8.908 3.938,9.382 3.448,9.444 3.373 C 9.652 3.120,9.653 2.881,9.446 2.625 C 9.331 2.483,9.223 2.433,9.011 2.424 C 8.837 2.417,8.827 2.419,8.739 2.478 C 8.615 2.561,8.206 2.952,7.023 4.120 C 6.471 4.665,6.011 5.110,6.000 5.110 C 5.990 5.110,5.542 4.677,5.006 4.149 C 3.232 2.401,3.291 2.455,3.083 2.423 C 3.032 2.415,2.947 2.415,2.894 2.423 " fill="#1A1C1F" stroke="none" fill-rule="evenodd"></path></svg>