<svg width="14" height="14" viewBox="0 0 14 14" fill="none" xmlns="http://www.w3.org/2000/svg"><path d="M3.205 2.883 C 3.039 2.964,2.883 3.137,2.837 3.291 C 2.762 3.542,2.801 3.716,2.981 3.935 C 3.054 4.023,3.575 4.562,4.140 5.133 C 4.704 5.704,5.351 6.358,5.576 6.586 L 5.985 7.000 4.840 8.149 C 3.127 9.869,2.948 10.059,2.864 10.237 C 2.804 10.366,2.796 10.406,2.806 10.521 C 2.846 10.967,3.241 11.267,3.672 11.177 C 3.797 11.151,3.818 11.135,4.205 10.763 C 4.427 10.550,5.146 9.840,5.803 9.185 L 6.997 7.995 8.429 9.416 C 10.169 11.145,10.170 11.146,10.348 11.179 C 10.772 11.257,11.154 10.960,11.194 10.522 C 11.204 10.406,11.196 10.366,11.136 10.237 C 11.053 10.059,10.872 9.868,9.148 8.138 L 8.015 7.000 8.343 6.668 C 8.523 6.485,9.169 5.831,9.779 5.215 C 10.388 4.599,10.946 4.023,11.018 3.935 C 11.166 3.755,11.215 3.615,11.193 3.429 C 11.168 3.223,11.025 3.013,10.831 2.900 C 10.678 2.810,10.386 2.795,10.231 2.870 C 10.115 2.926,9.685 3.336,7.955 5.038 L 6.997 5.981 6.643 5.631 C 5.048 4.055,4.116 3.144,3.974 3.022 C 3.881 2.943,3.765 2.866,3.714 2.851 C 3.558 2.804,3.341 2.818,3.205 2.883 " fill="#1A1C1F" stroke="none" fill-rule="evenodd"></path></svg>