<svg width="24" height="24" viewBox="0 0 24 24" fill="none" xmlns="http://www.w3.org/2000/svg"><path d="M5.780 5.076 C 5.384 5.177,5.102 5.500,5.054 5.912 C 5.018 6.211,5.095 6.409,5.372 6.731 C 5.508 6.890,6.734 8.140,8.095 9.509 L 10.570 11.998 8.119 14.469 C 5.162 17.450,5.061 17.559,5.023 17.817 C 4.993 18.016,5.023 18.289,5.088 18.414 C 5.164 18.559,5.418 18.807,5.567 18.884 C 5.800 19.003,6.048 19.023,6.263 18.941 C 6.457 18.867,6.779 18.561,10.321 15.088 C 11.225 14.201,11.990 13.481,12.020 13.488 C 12.050 13.494,13.016 14.429,14.167 15.564 C 17.569 18.919,17.662 19.001,18.023 18.999 C 18.380 18.997,18.783 18.696,18.920 18.330 C 19.022 18.059,19.021 17.908,18.917 17.693 C 18.826 17.506,17.977 16.616,15.145 13.741 L 13.430 12.000 15.145 10.259 C 17.970 7.391,18.827 6.492,18.923 6.294 C 19.076 5.977,18.970 5.574,18.653 5.275 C 18.455 5.086,18.263 5.028,17.902 5.046 C 17.619 5.061,17.604 5.066,17.377 5.261 C 17.248 5.370,15.985 6.611,14.569 8.017 L 11.995 10.575 10.048 8.636 C 7.105 5.707,6.596 5.216,6.436 5.149 C 6.252 5.072,5.934 5.037,5.780 5.076 " fill="#1A1C1F" stroke="none" fill-rule="evenodd"></path></svg>