<svg width="16" height="16" viewBox="0 0 16 16" fill="none" xmlns="http://www.w3.org/2000/svg"><path d="M3.659 3.295 C 3.476 3.387,3.292 3.594,3.240 3.767 C 3.162 4.030,3.200 4.230,3.369 4.452 C 3.430 4.532,4.043 5.168,4.732 5.866 C 5.420 6.563,6.176 7.328,6.412 7.567 L 6.840 8.000 5.532 9.313 C 3.574 11.279,3.369 11.496,3.273 11.699 C 3.204 11.847,3.195 11.893,3.207 12.024 C 3.253 12.534,3.705 12.876,4.196 12.774 C 4.340 12.744,4.363 12.726,4.806 12.301 C 5.059 12.057,5.882 11.245,6.633 10.496 L 8.000 9.134 9.380 10.509 C 10.139 11.266,10.961 12.078,11.207 12.314 C 11.636 12.725,11.661 12.745,11.804 12.774 C 12.295 12.876,12.747 12.534,12.793 12.025 C 12.805 11.892,12.796 11.847,12.727 11.699 C 12.631 11.496,12.426 11.279,10.468 9.313 L 9.160 8.000 9.562 7.593 C 9.783 7.370,10.538 6.604,11.242 5.892 C 11.945 5.180,12.571 4.531,12.634 4.449 C 12.832 4.190,12.850 3.899,12.686 3.625 C 12.590 3.465,12.393 3.302,12.241 3.257 C 12.071 3.206,11.843 3.220,11.690 3.291 C 11.544 3.359,11.183 3.702,9.079 5.772 L 7.997 6.836 7.525 6.369 C 5.943 4.803,4.757 3.645,4.564 3.476 C 4.319 3.261,4.238 3.227,3.972 3.227 C 3.837 3.227,3.765 3.242,3.659 3.295 " fill="#1A1C1F" stroke="none" fill-rule="evenodd"></path></svg>