<svg width="20" height="20" viewBox="0 0 20 20" fill="none" xmlns="http://www.w3.org/2000/svg"><path d="M4.582 4.116 C 4.142 4.335,3.924 4.776,4.032 5.226 C 4.090 5.471,4.261 5.662,5.947 7.367 C 6.772 8.201,7.695 9.135,7.998 9.442 L 8.550 10.000 6.898 11.658 C 3.979 14.589,4.017 14.545,4.017 14.967 C 4.017 15.247,4.104 15.471,4.290 15.670 C 4.494 15.888,4.717 15.982,5.034 15.982 C 5.251 15.982,5.308 15.968,5.451 15.885 C 5.558 15.823,6.389 15.019,7.809 13.604 L 10.002 11.419 11.709 13.121 C 12.648 14.057,13.676 15.072,13.992 15.376 C 14.546 15.908,14.575 15.930,14.755 15.968 C 15.239 16.068,15.746 15.799,15.919 15.349 C 16.013 15.105,16.006 14.794,15.900 14.586 C 15.799 14.386,15.244 13.807,13.070 11.625 L 11.450 10.000 12.003 9.442 C 14.983 6.431,15.793 5.593,15.879 5.436 C 16.001 5.212,16.026 4.963,15.951 4.737 C 15.877 4.513,15.675 4.260,15.477 4.145 C 15.344 4.066,15.274 4.051,15.018 4.040 C 14.726 4.028,14.712 4.031,14.560 4.132 C 14.351 4.273,13.733 4.864,11.721 6.850 C 10.793 7.767,10.019 8.517,10.001 8.517 C 9.984 8.517,9.253 7.811,8.376 6.948 C 5.840 4.451,5.600 4.223,5.400 4.123 C 5.152 4.000,4.820 3.997,4.582 4.116 " fill="#1A1C1F" stroke="none" fill-rule="evenodd"></path></svg>