<svg width="32" height="32" viewBox="0 0 32 32" fill="none" xmlns="http://www.w3.org/2000/svg"><path d="M6.709 6.079 C 6.465 6.153,6.254 6.336,6.138 6.577 C 5.998 6.866,5.997 7.105,6.134 7.388 C 6.207 7.539,7.573 8.951,10.406 11.805 L 14.570 16.000 10.292 20.307 L 6.015 24.613 6.039 24.998 C 6.059 25.314,6.090 25.417,6.212 25.577 C 6.518 25.978,7.060 26.083,7.470 25.822 C 7.600 25.739,9.573 23.816,11.853 21.550 L 15.999 17.430 20.302 21.702 L 24.606 25.973 24.891 25.973 C 25.377 25.973,25.701 25.789,25.873 25.413 C 26.001 25.136,25.999 24.886,25.867 24.614 C 25.795 24.465,24.409 23.032,21.595 20.197 L 17.431 16.000 21.702 11.697 L 25.973 7.394 25.970 7.097 C 25.966 6.696,25.876 6.466,25.653 6.288 C 25.381 6.070,25.030 5.989,24.738 6.076 C 24.471 6.156,24.240 6.378,19.160 11.438 L 16.000 14.586 13.027 11.622 C 9.031 7.638,7.531 6.186,7.324 6.099 C 7.132 6.019,6.930 6.013,6.709 6.079 " fill="#1A1C1F" stroke="none" fill-rule="evenodd"></path></svg>