<svg width="28" height="28" viewBox="0 0 28 28" fill="none" xmlns="http://www.w3.org/2000/svg"><path d="M5.763 5.361 C 5.541 5.463,5.442 5.567,5.345 5.799 C 5.248 6.031,5.255 6.232,5.367 6.465 C 5.431 6.597,6.626 7.832,9.105 10.329 L 12.749 14.000 9.006 17.768 L 5.264 21.535 5.281 21.867 C 5.295 22.146,5.319 22.227,5.432 22.374 C 5.703 22.730,6.175 22.824,6.536 22.594 C 6.650 22.521,8.376 20.839,10.371 18.856 L 13.999 15.251 17.768 18.994 L 21.537 22.736 21.873 22.715 C 22.150 22.698,22.239 22.671,22.380 22.564 C 22.733 22.294,22.824 21.817,22.590 21.463 C 22.515 21.350,20.833 19.624,18.852 17.628 L 15.251 13.999 18.856 10.371 C 20.839 8.376,22.522 6.650,22.594 6.536 C 22.899 6.058,22.661 5.478,22.094 5.319 C 21.734 5.218,21.604 5.277,21.041 5.794 C 20.761 6.051,19.062 7.722,17.266 9.506 L 14.001 12.750 10.331 9.106 C 7.825 6.618,6.598 5.432,6.465 5.368 C 6.225 5.251,6.007 5.249,5.763 5.361 " fill="#1A1C1F" stroke="none" fill-rule="evenodd"></path></svg>