<svg width="32" height="32" viewBox="0 0 32 32" fill="none" xmlns="http://www.w3.org/2000/svg"><path d="M7.973 5.146 C 7.545 5.268,6.772 5.679,6.441 5.959 C 5.821 6.487,5.354 7.219,5.139 8.000 C 4.990 8.541,5.003 9.562,5.165 10.078 C 5.569 11.364,6.410 12.265,7.653 12.742 C 8.096 12.912,8.189 12.927,8.856 12.949 C 9.696 12.975,10.006 12.915,10.687 12.595 C 11.751 12.094,12.589 11.073,12.885 9.916 C 13.021 9.386,12.967 8.261,12.780 7.735 C 12.575 7.158,12.247 6.642,11.815 6.214 C 11.398 5.802,11.060 5.583,10.390 5.292 C 9.948 5.099,9.943 5.098,9.093 5.084 C 8.478 5.074,8.166 5.091,7.973 5.146 M21.973 5.147 C 20.980 5.416,20.006 6.190,19.499 7.112 C 19.138 7.770,19.067 8.087,19.067 9.040 C 19.068 9.880,19.071 9.900,19.244 10.331 C 19.726 11.534,20.587 12.382,21.733 12.783 C 22.132 12.923,22.214 12.933,22.987 12.930 C 23.738 12.928,23.853 12.914,24.247 12.783 C 24.697 12.634,25.321 12.262,25.707 11.913 C 26.662 11.050,27.148 9.617,26.917 8.345 C 26.648 6.862,25.684 5.744,24.216 5.213 C 23.816 5.068,22.416 5.027,21.973 5.147 M8.400 19.074 C 7.108 19.283,6.009 20.091,5.437 21.253 C 5.127 21.883,5.043 22.262,5.043 23.013 C 5.044 23.757,5.127 24.125,5.442 24.781 C 5.816 25.559,6.686 26.355,7.520 26.682 C 8.113 26.914,8.327 26.954,8.987 26.956 C 9.499 26.958,9.711 26.934,10.049 26.837 C 11.348 26.463,12.332 25.534,12.781 24.257 C 12.967 23.729,13.019 22.609,12.881 22.080 C 12.757 21.600,12.438 20.944,12.136 20.545 C 11.669 19.929,10.818 19.375,10.029 19.173 C 9.686 19.085,8.703 19.026,8.400 19.074 M22.293 19.091 C 22.132 19.116,21.893 19.175,21.762 19.223 C 21.408 19.352,20.676 19.753,20.423 19.955 C 19.899 20.374,19.305 21.339,19.116 22.077 C 19.048 22.343,19.034 22.585,19.052 23.144 C 19.073 23.790,19.094 23.914,19.242 24.311 C 19.871 25.989,21.452 27.065,23.147 26.968 C 24.150 26.911,25.021 26.541,25.722 25.872 C 26.597 25.037,27.051 23.888,26.969 22.719 C 26.853 21.093,25.723 19.690,24.133 19.201 C 23.714 19.072,22.787 19.016,22.293 19.091 " fill="#1A1C1F" stroke="none" fill-rule="evenodd"></path></svg>