<svg width="14" height="14" viewBox="0 0 14 14" fill="none" xmlns="http://www.w3.org/2000/svg"><path d="M3.443 2.150 C 3.301 2.183,2.943 2.362,2.787 2.478 C 2.430 2.744,2.168 3.199,2.123 3.631 C 2.034 4.490,2.503 5.222,3.327 5.510 C 3.517 5.577,3.560 5.583,3.827 5.583 C 4.180 5.583,4.337 5.547,4.640 5.398 C 4.819 5.309,4.896 5.253,5.061 5.089 C 5.172 4.979,5.296 4.831,5.336 4.760 C 5.652 4.206,5.678 3.640,5.413 3.092 C 5.242 2.736,4.973 2.478,4.556 2.270 C 4.370 2.177,4.314 2.160,4.136 2.145 C 3.865 2.121,3.557 2.123,3.443 2.150 M9.743 2.150 C 9.601 2.183,9.243 2.362,9.087 2.478 C 8.730 2.744,8.468 3.199,8.423 3.631 C 8.334 4.490,8.803 5.222,9.627 5.510 C 9.817 5.577,9.860 5.583,10.127 5.583 C 10.480 5.583,10.637 5.547,10.940 5.398 C 11.119 5.309,11.196 5.253,11.361 5.089 C 11.472 4.979,11.596 4.831,11.636 4.760 C 11.952 4.206,11.978 3.640,11.713 3.092 C 11.542 2.736,11.273 2.478,10.856 2.270 C 10.670 2.177,10.614 2.160,10.436 2.145 C 10.165 2.121,9.857 2.123,9.743 2.150 M3.443 8.450 C 3.301 8.483,2.943 8.662,2.787 8.778 C 2.430 9.044,2.168 9.499,2.123 9.931 C 2.034 10.790,2.503 11.522,3.327 11.810 C 3.517 11.877,3.560 11.883,3.827 11.883 C 4.180 11.883,4.337 11.847,4.640 11.698 C 4.819 11.609,4.896 11.553,5.061 11.389 C 5.172 11.279,5.296 11.131,5.336 11.060 C 5.652 10.506,5.678 9.940,5.413 9.392 C 5.242 9.036,4.973 8.778,4.556 8.570 C 4.370 8.477,4.314 8.460,4.136 8.445 C 3.865 8.421,3.557 8.423,3.443 8.450 M9.743 8.450 C 9.601 8.483,9.243 8.662,9.087 8.778 C 8.730 9.044,8.468 9.499,8.423 9.931 C 8.334 10.790,8.803 11.522,9.627 11.810 C 9.817 11.877,9.860 11.883,10.127 11.883 C 10.480 11.883,10.637 11.847,10.940 11.698 C 11.119 11.609,11.196 11.553,11.361 11.389 C 11.472 11.279,11.596 11.131,11.636 11.060 C 11.952 10.506,11.978 9.940,11.713 9.392 C 11.542 9.036,11.273 8.778,10.856 8.570 C 10.670 8.477,10.614 8.460,10.436 8.445 C 10.165 8.421,9.857 8.423,9.743 8.450 " fill="#1A1C1F" stroke="none" fill-rule="evenodd"></path></svg>