<svg width="12" height="12" viewBox="0 0 12 12" fill="none" xmlns="http://www.w3.org/2000/svg"><path d="M2.990 1.840 C 2.790 1.870,2.477 2.034,2.280 2.213 C 2.086 2.387,1.917 2.671,1.847 2.940 C 1.824 3.029,1.813 3.149,1.813 3.320 C 1.813 3.540,1.820 3.589,1.868 3.730 C 1.973 4.037,2.134 4.272,2.364 4.459 C 2.517 4.582,2.663 4.661,2.870 4.731 C 3.010 4.778,3.062 4.785,3.280 4.786 C 3.582 4.786,3.715 4.756,3.976 4.627 C 4.291 4.471,4.566 4.164,4.699 3.820 C 4.822 3.499,4.823 3.103,4.701 2.786 C 4.552 2.398,4.287 2.125,3.869 1.926 C 3.744 1.867,3.688 1.853,3.515 1.839 C 3.275 1.819,3.129 1.819,2.990 1.840 M8.390 1.840 C 8.190 1.870,7.877 2.034,7.680 2.213 C 7.486 2.387,7.317 2.671,7.247 2.940 C 7.224 3.029,7.213 3.149,7.213 3.320 C 7.213 3.540,7.220 3.589,7.268 3.730 C 7.373 4.037,7.534 4.272,7.764 4.459 C 7.917 4.582,8.063 4.661,8.270 4.731 C 8.410 4.778,8.462 4.785,8.680 4.786 C 8.982 4.786,9.115 4.756,9.376 4.627 C 9.691 4.471,9.966 4.164,10.099 3.820 C 10.222 3.499,10.223 3.103,10.101 2.786 C 9.952 2.398,9.687 2.125,9.269 1.926 C 9.144 1.867,9.088 1.853,8.915 1.839 C 8.675 1.819,8.529 1.819,8.390 1.840 M2.990 7.240 C 2.790 7.270,2.477 7.434,2.280 7.613 C 2.086 7.787,1.917 8.071,1.847 8.340 C 1.824 8.429,1.813 8.549,1.813 8.720 C 1.813 8.940,1.820 8.989,1.868 9.130 C 1.973 9.437,2.134 9.672,2.364 9.859 C 2.517 9.982,2.663 10.061,2.870 10.131 C 3.010 10.178,3.062 10.185,3.280 10.186 C 3.582 10.186,3.715 10.156,3.976 10.027 C 4.291 9.871,4.566 9.564,4.699 9.220 C 4.822 8.899,4.823 8.503,4.701 8.186 C 4.552 7.798,4.287 7.525,3.869 7.326 C 3.744 7.267,3.688 7.253,3.515 7.239 C 3.275 7.219,3.129 7.219,2.990 7.240 M8.390 7.240 C 8.190 7.270,7.877 7.434,7.680 7.613 C 7.486 7.787,7.317 8.071,7.247 8.340 C 7.224 8.429,7.213 8.549,7.213 8.720 C 7.213 8.940,7.220 8.989,7.268 9.130 C 7.373 9.437,7.534 9.672,7.764 9.859 C 7.917 9.982,8.063 10.061,8.270 10.131 C 8.410 10.178,8.462 10.185,8.680 10.186 C 8.982 10.186,9.115 10.156,9.376 10.027 C 9.691 9.871,9.966 9.564,10.099 9.220 C 10.222 8.899,10.223 8.503,10.101 8.186 C 9.952 7.798,9.687 7.525,9.269 7.326 C 9.144 7.267,9.088 7.253,8.915 7.239 C 8.675 7.219,8.529 7.219,8.390 7.240 " fill="#1A1C1F" stroke="none" fill-rule="evenodd"></path></svg>