<svg width="28" height="28" viewBox="0 0 28 28" fill="none" xmlns="http://www.w3.org/2000/svg"><path d="M6.977 4.503 C 6.848 4.539,6.554 4.663,6.323 4.778 C 5.425 5.223,4.764 6.028,4.497 7.000 C 4.367 7.474,4.378 8.367,4.519 8.818 C 4.873 9.944,5.611 10.734,6.697 11.148 C 7.086 11.296,7.165 11.310,7.774 11.330 C 8.527 11.354,8.735 11.313,9.365 11.010 C 10.294 10.565,11.018 9.682,11.273 8.683 C 11.393 8.212,11.347 7.231,11.182 6.768 C 11.002 6.261,10.714 5.808,10.335 5.437 C 9.965 5.074,9.668 4.881,9.092 4.630 C 8.705 4.462,8.700 4.461,7.957 4.449 C 7.419 4.440,7.145 4.455,6.977 4.503 M19.227 4.505 C 18.827 4.616,18.246 4.924,17.904 5.206 C 17.076 5.889,16.660 6.792,16.660 7.908 C 16.660 8.517,16.730 8.832,16.981 9.357 C 17.429 10.291,18.107 10.874,19.157 11.226 C 19.513 11.345,19.562 11.350,20.207 11.326 C 20.945 11.298,21.094 11.267,21.584 11.035 C 23.274 10.234,24.044 8.270,23.342 6.548 C 22.970 5.635,22.206 4.929,21.189 4.561 C 20.835 4.434,19.612 4.398,19.227 4.505 M7.350 16.690 C 6.220 16.872,5.258 17.580,4.757 18.597 C 4.486 19.148,4.412 19.479,4.413 20.137 C 4.414 20.787,4.486 21.110,4.761 21.681 C 5.077 22.340,5.827 23.043,6.523 23.335 C 7.658 23.811,9.019 23.634,9.995 22.884 C 10.636 22.391,11.174 21.529,11.291 20.810 C 11.362 20.368,11.351 19.616,11.269 19.299 C 11.166 18.906,10.877 18.318,10.619 17.977 C 10.218 17.449,9.484 16.967,8.795 16.779 C 8.516 16.703,7.613 16.648,7.350 16.690 M19.514 16.705 C 18.344 16.890,17.264 17.818,16.810 19.030 C 16.637 19.489,16.608 20.400,16.748 20.958 C 17.053 22.175,17.935 23.089,19.182 23.481 C 19.671 23.634,20.487 23.635,21.021 23.482 C 21.654 23.300,22.088 23.043,22.565 22.565 C 23.281 21.849,23.589 21.105,23.588 20.090 C 23.588 19.476,23.498 19.084,23.241 18.575 C 22.818 17.737,21.943 17.021,21.040 16.772 C 20.738 16.689,19.858 16.650,19.514 16.705 " fill="#1A1C1F" stroke="none" fill-rule="evenodd"></path></svg>