<svg width="20" height="20" viewBox="0 0 20 20" fill="none" xmlns="http://www.w3.org/2000/svg"><path d="M4.983 3.067 C 4.642 3.118,4.115 3.398,3.779 3.707 C 3.469 3.993,3.193 4.463,3.079 4.900 C 3.003 5.190,3.004 5.805,3.080 6.100 C 3.204 6.584,3.574 7.153,3.951 7.443 C 4.192 7.627,4.480 7.780,4.783 7.885 C 5.019 7.966,5.099 7.977,5.467 7.977 C 5.967 7.977,6.185 7.927,6.624 7.712 C 7.150 7.455,7.609 6.943,7.832 6.366 C 8.038 5.831,8.038 5.169,7.832 4.634 C 7.586 3.998,7.141 3.539,6.448 3.211 C 6.240 3.112,6.146 3.088,5.859 3.065 C 5.459 3.031,5.214 3.032,4.983 3.067 M13.983 3.067 C 13.642 3.118,13.115 3.398,12.779 3.707 C 12.469 3.993,12.193 4.463,12.079 4.900 C 12.003 5.190,12.004 5.805,12.080 6.100 C 12.204 6.584,12.574 7.153,12.951 7.443 C 13.192 7.627,13.480 7.780,13.783 7.885 C 14.019 7.966,14.099 7.977,14.467 7.977 C 14.967 7.977,15.185 7.927,15.624 7.712 C 16.150 7.455,16.609 6.943,16.832 6.366 C 17.038 5.831,17.038 5.169,16.832 4.634 C 16.586 3.998,16.141 3.539,15.448 3.211 C 15.240 3.112,15.146 3.088,14.859 3.065 C 14.459 3.031,14.214 3.032,13.983 3.067 M4.983 12.067 C 4.642 12.118,4.115 12.398,3.779 12.707 C 3.469 12.993,3.193 13.463,3.079 13.900 C 3.003 14.190,3.004 14.805,3.080 15.100 C 3.204 15.584,3.574 16.153,3.951 16.443 C 4.192 16.627,4.480 16.780,4.783 16.885 C 5.019 16.966,5.099 16.977,5.467 16.977 C 5.967 16.977,6.185 16.927,6.624 16.712 C 7.150 16.455,7.609 15.943,7.832 15.366 C 8.038 14.831,8.038 14.169,7.832 13.634 C 7.586 12.998,7.141 12.539,6.448 12.211 C 6.240 12.112,6.146 12.088,5.859 12.065 C 5.459 12.031,5.214 12.032,4.983 12.067 M13.983 12.067 C 13.642 12.118,13.115 12.398,12.779 12.707 C 12.469 12.993,12.193 13.463,12.079 13.900 C 12.003 14.190,12.004 14.805,12.080 15.100 C 12.204 15.584,12.574 16.153,12.951 16.443 C 13.192 16.627,13.480 16.780,13.783 16.885 C 14.019 16.966,14.099 16.977,14.467 16.977 C 14.967 16.977,15.185 16.927,15.624 16.712 C 16.150 16.455,16.609 15.943,16.832 15.366 C 17.038 14.831,17.038 14.169,16.832 13.634 C 16.586 12.998,16.141 12.539,15.448 12.211 C 15.240 12.112,15.146 12.088,14.859 12.065 C 14.459 12.031,14.214 12.032,13.983 12.067 " fill="#1A1C1F" stroke="none" fill-rule="evenodd"></path></svg>