<svg width="16" height="16" viewBox="0 0 16 16" fill="none" xmlns="http://www.w3.org/2000/svg"><path d="M3.933 2.457 C 3.760 2.497,3.305 2.733,3.134 2.872 C 2.823 3.124,2.589 3.484,2.476 3.881 C 2.398 4.154,2.393 4.619,2.464 4.878 C 2.662 5.602,3.210 6.151,3.920 6.337 C 4.151 6.397,4.644 6.397,4.880 6.337 C 5.659 6.137,6.275 5.442,6.373 4.654 C 6.425 4.234,6.339 3.782,6.141 3.440 C 5.929 3.074,5.645 2.813,5.240 2.611 C 5.002 2.492,4.946 2.474,4.720 2.453 C 4.407 2.422,4.074 2.424,3.933 2.457 M11.133 2.457 C 10.960 2.497,10.505 2.733,10.334 2.872 C 10.023 3.124,9.789 3.484,9.676 3.881 C 9.598 4.154,9.593 4.619,9.664 4.878 C 9.862 5.602,10.410 6.151,11.120 6.337 C 11.351 6.397,11.844 6.397,12.080 6.337 C 12.859 6.137,13.475 5.442,13.573 4.654 C 13.625 4.234,13.539 3.782,13.341 3.440 C 13.129 3.074,12.845 2.813,12.440 2.611 C 12.202 2.492,12.146 2.474,11.920 2.453 C 11.607 2.422,11.274 2.424,11.133 2.457 M3.933 9.657 C 3.760 9.697,3.305 9.933,3.134 10.072 C 2.823 10.324,2.589 10.684,2.476 11.081 C 2.398 11.354,2.393 11.819,2.464 12.078 C 2.662 12.802,3.210 13.351,3.920 13.537 C 4.151 13.597,4.644 13.597,4.880 13.537 C 5.659 13.337,6.275 12.642,6.373 11.854 C 6.425 11.434,6.339 10.982,6.141 10.640 C 5.929 10.274,5.645 10.013,5.240 9.811 C 5.002 9.692,4.946 9.674,4.720 9.653 C 4.407 9.622,4.074 9.624,3.933 9.657 M11.133 9.657 C 10.960 9.697,10.505 9.933,10.334 10.072 C 10.023 10.324,9.789 10.684,9.676 11.081 C 9.598 11.354,9.593 11.819,9.664 12.078 C 9.862 12.802,10.410 13.351,11.120 13.537 C 11.351 13.597,11.844 13.597,12.080 13.537 C 12.859 13.337,13.475 12.642,13.573 11.854 C 13.625 11.434,13.539 10.982,13.341 10.640 C 13.129 10.274,12.845 10.013,12.440 9.811 C 12.202 9.692,12.146 9.674,11.920 9.653 C 11.607 9.622,11.274 9.624,11.133 9.657 " fill="#1A1C1F" stroke="none" fill-rule="evenodd"></path></svg>