<svg width="24" height="24" viewBox="0 0 24 24" fill="none" xmlns="http://www.w3.org/2000/svg"><path d="M6.380 4.080 C 5.821 4.166,5.092 4.617,4.669 5.141 C 4.435 5.430,4.185 5.926,4.094 6.280 C 4.003 6.632,4.004 7.371,4.095 7.720 C 4.331 8.631,5.011 9.409,5.877 9.762 C 6.685 10.090,7.490 10.063,8.300 9.680 C 9.051 9.324,9.654 8.607,9.876 7.805 C 10.043 7.202,10.025 6.665,9.817 6.034 C 9.568 5.279,8.976 4.651,8.139 4.253 C 7.897 4.138,7.772 4.107,7.452 4.078 C 6.995 4.037,6.660 4.038,6.380 4.080 M16.380 4.080 C 15.970 4.141,15.337 4.478,14.935 4.849 C 14.563 5.192,14.232 5.756,14.095 6.280 C 14.003 6.630,14.003 7.369,14.095 7.720 C 14.331 8.631,15.011 9.409,15.877 9.762 C 16.685 10.090,17.490 10.063,18.300 9.680 C 19.051 9.324,19.654 8.607,19.876 7.805 C 20.043 7.202,20.025 6.665,19.817 6.034 C 19.568 5.279,18.976 4.651,18.139 4.253 C 17.897 4.138,17.772 4.107,17.452 4.078 C 16.996 4.037,16.661 4.038,16.380 4.080 M6.380 14.080 C 5.821 14.166,5.092 14.617,4.669 15.141 C 4.436 15.429,4.185 15.925,4.093 16.280 C 4.047 16.458,4.026 16.698,4.027 17.040 C 4.028 17.478,4.042 17.580,4.137 17.860 C 4.478 18.861,5.141 19.524,6.140 19.862 C 6.419 19.957,6.523 19.971,6.960 19.972 C 7.560 19.973,7.820 19.913,8.349 19.655 C 8.974 19.349,9.533 18.726,9.797 18.043 C 10.283 16.782,9.819 15.329,8.688 14.564 C 8.215 14.245,7.889 14.117,7.452 14.078 C 6.995 14.037,6.660 14.038,6.380 14.080 M16.380 14.080 C 15.970 14.141,15.337 14.478,14.935 14.849 C 14.699 15.066,14.434 15.438,14.282 15.764 C 14.085 16.187,14.026 16.482,14.027 17.040 C 14.028 17.478,14.042 17.580,14.137 17.860 C 14.478 18.861,15.141 19.524,16.140 19.862 C 16.419 19.957,16.523 19.971,16.960 19.972 C 17.560 19.973,17.820 19.913,18.349 19.655 C 18.974 19.349,19.533 18.726,19.797 18.043 C 20.283 16.782,19.819 15.329,18.688 14.564 C 18.215 14.245,17.889 14.117,17.452 14.078 C 16.996 14.037,16.661 14.038,16.380 14.080 " fill="#1A1C1F" stroke="none" fill-rule="evenodd"></path></svg>