<svg width="16" height="16" viewBox="0 0 16 16" fill="none" xmlns="http://www.w3.org/2000/svg"><path d="M10.968 1.693 C 10.610 1.793,10.514 1.867,9.639 2.714 C 8.033 4.266,2.674 9.636,2.605 9.760 C 2.521 9.911,2.366 10.463,2.015 11.867 C 1.601 13.523,1.574 13.682,1.679 13.912 C 1.813 14.209,2.110 14.393,2.405 14.363 C 2.574 14.346,5.057 13.725,5.711 13.537 C 5.941 13.471,6.190 13.385,6.265 13.348 C 6.443 13.257,6.556 13.148,10.051 9.695 C 13.121 6.663,14.031 5.736,14.164 5.507 C 14.312 5.251,14.359 5.040,14.359 4.640 C 14.359 3.932,14.251 3.761,13.068 2.605 C 12.182 1.739,12.081 1.680,11.453 1.663 C 11.206 1.657,11.067 1.665,10.968 1.693 M12.136 3.912 L 12.856 4.624 12.281 5.199 L 11.707 5.773 10.980 5.047 L 10.254 4.320 10.813 3.760 C 11.121 3.452,11.383 3.200,11.395 3.200 C 11.407 3.200,11.741 3.520,12.136 3.912 M8.236 9.206 L 5.907 11.518 5.764 11.379 C 5.474 11.097,4.507 10.078,4.507 10.055 C 4.507 10.042,5.548 9.004,6.820 7.749 L 9.133 5.468 9.849 6.181 L 10.564 6.893 8.236 9.206 " fill="#1A1C1F" stroke="none" fill-rule="evenodd"></path></svg>