<svg width="28" height="28" viewBox="0 0 28 28" fill="none" xmlns="http://www.w3.org/2000/svg"><path d="M21.435 0.051 C 21.093 0.109,20.598 0.303,20.314 0.491 C 20.180 0.579,19.466 1.235,18.728 1.948 C 16.963 3.651,3.447 17.161,2.723 17.946 C 2.269 18.437,2.140 18.608,2.055 18.832 C 1.891 19.263,0.128 26.319,0.024 26.959 C -0.053 27.435,0.433 27.973,0.933 27.967 C 1.157 27.964,2.644 27.621,6.159 26.764 C 8.793 26.121,8.946 26.079,9.234 25.922 C 9.359 25.854,9.753 25.531,10.109 25.204 C 10.875 24.501,25.967 9.505,26.722 8.697 C 27.767 7.578,27.909 7.310,27.942 6.393 C 27.973 5.512,27.829 5.060,27.306 4.410 C 26.976 3.999,25.287 2.278,24.243 1.288 C 23.639 0.715,23.371 0.495,23.118 0.362 C 22.593 0.087,21.938 -0.034,21.435 0.051 M22.243 2.178 C 22.427 2.263,24.308 4.090,25.163 5.016 C 25.874 5.786,26.022 6.018,25.971 6.288 C 25.912 6.605,25.758 6.816,25.093 7.497 L 24.430 8.176 22.155 5.866 L 19.880 3.556 20.556 2.903 C 21.330 2.156,21.516 2.039,21.863 2.082 C 21.992 2.098,22.162 2.141,22.243 2.178 M20.970 7.509 L 22.971 9.520 21.988 10.535 C 21.448 11.093,18.289 14.265,14.969 17.584 L 8.932 23.618 6.672 21.323 L 4.412 19.029 11.424 12.031 L 18.436 5.033 18.703 5.266 C 18.850 5.393,19.870 6.403,20.970 7.509 M6.429 23.995 C 6.641 24.218,6.813 24.423,6.813 24.451 C 6.813 24.479,6.762 24.522,6.700 24.546 C 6.531 24.610,2.857 25.519,2.620 25.556 L 2.416 25.587 2.449 25.428 C 2.605 24.663,3.246 21.958,3.457 21.173 L 3.506 20.993 4.775 22.291 C 5.474 23.006,6.218 23.772,6.429 23.995 " fill="#1A1C1F" stroke="none" fill-rule="evenodd"></path></svg>