<svg width="32" height="32" viewBox="0 0 32 32" fill="none" xmlns="http://www.w3.org/2000/svg"><path d="M24.472 0.058 C 24.066 0.116,23.597 0.314,23.132 0.623 C 22.652 0.941,16.319 7.200,8.209 15.371 C 3.093 20.524,2.562 21.076,2.410 21.389 C 2.287 21.642,1.983 22.775,1.260 25.680 C 0.721 27.851,0.212 29.943,0.131 30.330 L -0.017 31.032 0.138 31.343 C 0.303 31.673,0.512 31.851,0.858 31.954 C 1.102 32.027,1.303 31.986,4.787 31.139 C 8.497 30.238,10.225 29.778,10.606 29.593 C 10.900 29.450,11.271 29.108,13.421 27.001 C 17.787 22.723,30.907 9.588,31.247 9.155 C 31.428 8.925,31.624 8.643,31.682 8.529 C 31.822 8.255,31.999 7.505,32.000 7.184 C 32.000 6.787,31.848 6.144,31.656 5.733 C 31.434 5.258,31.101 4.875,29.463 3.204 C 27.783 1.491,26.854 0.642,26.400 0.404 C 25.826 0.103,25.087 -0.030,24.472 0.058 M25.552 2.569 C 25.926 2.840,29.432 6.389,29.547 6.614 C 29.604 6.725,29.666 6.913,29.685 7.030 C 29.738 7.361,29.524 7.685,28.670 8.570 L 27.920 9.346 25.320 6.706 L 22.721 4.066 23.419 3.390 C 24.400 2.439,24.459 2.400,24.933 2.400 C 25.280 2.400,25.340 2.416,25.552 2.569 M24.019 8.635 L 26.251 10.882 25.129 12.041 C 24.512 12.678,20.902 16.303,17.107 20.096 L 10.207 26.993 7.625 24.371 L 5.043 21.748 13.056 13.749 L 21.068 5.751 21.428 6.070 C 21.625 6.246,22.791 7.400,24.019 8.635 M7.348 27.423 C 7.589 27.677,7.787 27.912,7.787 27.944 C 7.787 28.032,7.699 28.058,5.406 28.631 C 3.095 29.209,2.773 29.276,2.773 29.175 C 2.773 29.041,3.690 25.165,3.950 24.199 L 4.006 23.994 5.457 25.477 C 6.256 26.293,7.107 27.168,7.348 27.423 " fill="#1A1C1F" stroke="none" fill-rule="evenodd"></path></svg>