<svg width="24" height="24" viewBox="0 0 24 24" fill="none" xmlns="http://www.w3.org/2000/svg"><path d="M16.991 2.081 C 16.652 2.138,16.425 2.237,16.141 2.450 C 15.837 2.678,14.190 4.290,10.106 8.357 C 6.202 12.245,3.656 14.851,3.543 15.074 C 3.385 15.386,3.210 16.033,2.525 18.826 C 1.980 21.045,1.970 21.103,2.065 21.307 C 2.166 21.522,2.521 21.859,2.734 21.940 C 2.967 22.029,2.941 22.034,5.900 21.299 C 8.652 20.615,8.924 20.535,9.187 20.325 C 9.293 20.240,12.125 17.424,15.480 14.067 C 21.313 8.231,21.585 7.952,21.706 7.692 C 22.059 6.928,22.079 6.496,21.799 5.746 C 21.752 5.620,21.606 5.382,21.476 5.218 C 20.927 4.528,18.893 2.546,18.470 2.289 C 18.116 2.075,17.524 1.992,16.991 2.081 M17.627 4.184 C 18.125 4.557,19.960 6.471,19.960 6.618 C 19.960 6.667,19.908 6.778,19.845 6.864 C 19.712 7.045,18.851 7.962,18.678 8.108 L 18.561 8.206 17.191 6.845 L 15.820 5.484 16.320 4.978 C 16.855 4.436,17.305 4.040,17.385 4.040 C 17.412 4.040,17.521 4.105,17.627 4.184 M15.793 8.259 L 17.140 9.597 13.350 13.388 L 9.560 17.180 8.220 15.840 C 7.483 15.103,6.880 14.485,6.880 14.465 C 6.880 14.419,14.365 6.920,14.411 6.920 C 14.431 6.920,15.053 7.522,15.793 8.259 M6.716 17.190 C 7.415 17.889,8.009 18.501,8.036 18.551 C 8.081 18.636,8.073 18.647,7.933 18.706 C 7.636 18.830,4.496 19.589,4.453 19.547 C 4.431 19.524,4.586 18.832,4.885 17.620 C 5.228 16.235,5.321 15.920,5.388 15.920 C 5.420 15.920,6.017 16.492,6.716 17.190 " fill="#1A1C1F" stroke="none" fill-rule="evenodd"></path></svg>