<svg width="12" height="12" viewBox="0 0 12 12" fill="none" xmlns="http://www.w3.org/2000/svg"><path d="M8.179 1.287 C 7.922 1.378,7.850 1.433,7.321 1.940 C 6.609 2.623,2.103 7.127,2.005 7.254 C 1.956 7.317,1.908 7.411,1.883 7.494 C 1.770 7.870,1.387 9.365,1.270 9.890 C 1.183 10.278,1.219 10.469,1.410 10.637 C 1.598 10.803,1.683 10.809,2.180 10.691 C 2.660 10.578,3.715 10.309,4.160 10.187 C 4.728 10.031,4.720 10.036,5.208 9.572 C 5.440 9.351,6.743 8.059,8.103 6.700 C 10.284 4.523,10.584 4.216,10.635 4.110 C 10.751 3.874,10.768 3.795,10.767 3.480 C 10.766 3.203,10.763 3.182,10.701 3.014 C 10.663 2.912,10.601 2.794,10.554 2.734 C 10.429 2.574,9.406 1.560,9.260 1.452 C 9.034 1.283,8.885 1.240,8.534 1.240 C 8.352 1.241,8.286 1.249,8.179 1.287 M9.102 2.934 L 9.642 3.468 9.211 3.899 L 8.780 4.330 8.235 3.785 L 7.690 3.240 8.110 2.820 C 8.341 2.589,8.537 2.400,8.546 2.400 C 8.555 2.400,8.806 2.640,9.102 2.934 M6.176 6.904 L 4.430 8.637 4.034 8.244 C 3.816 8.027,3.575 7.781,3.498 7.697 L 3.359 7.544 5.105 5.822 L 6.850 4.101 7.386 4.635 L 7.922 5.170 6.176 6.904 " fill="#1A1C1F" stroke="none" fill-rule="evenodd"></path></svg>