<svg width="20" height="20" viewBox="0 0 20 20" fill="none" xmlns="http://www.w3.org/2000/svg"><path d="M13.631 2.145 C 13.200 2.298,13.088 2.384,12.119 3.316 C 10.706 4.675,3.392 11.996,3.284 12.160 C 3.168 12.335,2.989 12.960,2.518 14.833 C 1.985 16.956,1.963 17.100,2.119 17.412 C 2.279 17.732,2.525 17.920,2.827 17.955 C 3.003 17.975,3.790 17.795,5.911 17.248 C 7.504 16.837,7.729 16.764,8.000 16.573 C 8.358 16.320,16.787 7.943,17.449 7.183 C 17.724 6.867,17.831 6.677,17.915 6.351 C 18.022 5.940,17.953 5.222,17.770 4.853 C 17.655 4.619,17.038 3.937,16.244 3.164 C 15.221 2.168,15.033 2.066,14.223 2.067 C 13.919 2.068,13.809 2.082,13.631 2.145 M15.178 4.899 L 16.083 5.797 15.367 6.515 L 14.650 7.233 13.733 6.317 L 12.817 5.400 13.517 4.700 C 13.901 4.315,14.229 4.000,14.244 4.000 C 14.259 4.000,14.680 4.404,15.178 4.899 M10.294 11.506 L 7.383 14.396 6.623 13.640 C 6.204 13.224,5.803 12.813,5.731 12.728 L 5.599 12.573 8.508 9.704 L 11.417 6.835 12.311 7.726 L 13.205 8.617 10.294 11.506 " fill="#1A1C1F" stroke="none" fill-rule="evenodd"></path></svg>