<svg width="14" height="14" viewBox="0 0 14 14" fill="none" xmlns="http://www.w3.org/2000/svg"><path d="M9.762 1.448 C 9.579 1.472,9.295 1.589,9.140 1.706 C 8.835 1.935,2.455 8.283,2.301 8.510 C 2.216 8.636,2.102 9.031,1.775 10.337 C 1.401 11.830,1.377 11.973,1.468 12.168 C 1.569 12.386,1.821 12.577,2.005 12.576 C 2.120 12.576,2.649 12.454,3.733 12.177 C 4.852 11.892,5.334 11.754,5.485 11.678 C 5.653 11.593,6.476 10.791,9.594 7.677 C 12.012 5.262,12.348 4.918,12.409 4.794 C 12.536 4.539,12.564 4.406,12.564 4.060 C 12.564 3.775,12.558 3.727,12.499 3.558 C 12.463 3.456,12.396 3.314,12.350 3.243 C 12.247 3.086,11.070 1.905,10.820 1.708 C 10.613 1.544,10.453 1.484,10.130 1.447 C 10.019 1.434,9.923 1.425,9.917 1.426 C 9.910 1.428,9.840 1.438,9.762 1.448 M10.620 3.423 L 11.248 4.047 10.746 4.549 L 10.243 5.052 9.608 4.416 L 8.972 3.780 9.462 3.290 C 9.731 3.021,9.960 2.800,9.971 2.800 C 9.983 2.800,10.274 3.080,10.620 3.423 M7.206 8.054 L 5.168 10.077 4.683 9.594 C 4.415 9.329,4.134 9.042,4.058 8.956 L 3.919 8.801 5.955 6.793 L 7.992 4.785 8.617 5.408 L 9.243 6.032 7.206 8.054 " fill="#1A1C1F" stroke="none" fill-rule="evenodd"></path></svg>