<svg width="28" height="28" viewBox="0 0 28 28" fill="none" xmlns="http://www.w3.org/2000/svg"><path d="M15.923 1.363 C 15.665 1.450,15.374 1.742,15.307 1.984 C 15.194 2.385,15.288 2.538,16.249 3.528 C 16.501 3.788,16.707 4.011,16.707 4.024 C 16.707 4.037,15.606 5.133,14.260 6.459 L 11.814 8.870 11.509 8.683 C 11.023 8.386,10.669 8.220,10.142 8.044 L 9.650 7.880 8.500 7.897 L 7.350 7.915 6.840 8.092 C 5.603 8.519,4.580 9.086,3.486 9.950 C 2.874 10.434,1.399 11.911,1.287 12.152 C 1.157 12.432,1.204 12.730,1.422 13.007 C 1.519 13.129,2.940 14.564,4.581 16.195 L 7.564 19.160 4.514 22.192 C 2.576 24.118,1.435 25.285,1.385 25.394 C 1.196 25.805,1.378 26.254,1.824 26.476 C 1.960 26.544,2.139 26.600,2.222 26.600 C 2.495 26.600,2.764 26.353,6.333 22.834 L 8.803 20.398 10.995 22.554 C 14.136 25.644,14.782 26.265,15.097 26.497 C 15.348 26.682,15.397 26.701,15.577 26.680 C 16.215 26.608,17.929 24.868,19.042 23.162 C 19.616 22.280,20.060 21.267,20.239 20.429 C 20.350 19.909,20.350 18.686,20.239 18.236 C 20.102 17.679,19.884 17.193,19.534 16.663 L 19.192 16.145 21.617 13.754 C 22.951 12.439,24.062 11.356,24.085 11.348 C 24.108 11.339,24.423 11.616,24.784 11.963 C 25.146 12.309,25.511 12.626,25.596 12.667 C 26.108 12.909,26.720 12.535,26.776 11.945 C 26.795 11.750,26.779 11.681,26.673 11.515 C 26.446 11.157,17.360 2.144,16.605 1.526 C 16.367 1.331,16.164 1.283,15.923 1.363 M21.420 8.657 L 22.843 10.087 20.417 12.485 C 19.082 13.804,17.979 14.884,17.966 14.885 C 17.954 14.886,16.855 13.799,15.526 12.469 L 13.108 10.051 15.538 7.657 L 17.968 5.264 18.982 6.245 C 19.540 6.785,20.637 7.870,21.420 8.657 M9.683 9.700 C 10.092 9.847,10.635 10.192,11.098 10.598 C 11.676 11.105,17.071 16.461,17.508 16.961 C 17.973 17.494,18.347 18.203,18.434 18.715 C 18.506 19.139,18.467 20.103,18.362 20.510 C 18.268 20.876,17.817 21.806,17.492 22.307 C 17.100 22.910,16.625 23.501,16.062 24.086 L 15.551 24.616 11.412 20.510 C 9.135 18.251,6.376 15.517,5.281 14.433 L 3.290 12.462 3.640 12.135 C 4.413 11.411,5.574 10.576,6.402 10.148 C 7.298 9.685,7.819 9.562,8.773 9.585 C 9.273 9.597,9.461 9.620,9.683 9.700 " fill="#282D37" stroke="none" fill-rule="evenodd"></path></svg>