<svg width="32" height="32" viewBox="0 0 32 32" fill="none" xmlns="http://www.w3.org/2000/svg"><path d="M18.198 1.560 C 17.905 1.654,17.571 1.989,17.493 2.267 C 17.365 2.725,17.472 2.900,18.570 4.032 C 18.858 4.329,19.093 4.584,19.093 4.599 C 19.093 4.614,17.835 5.867,16.298 7.382 L 13.502 10.138 13.138 9.914 C 12.701 9.646,12.042 9.337,11.540 9.165 C 11.193 9.047,11.102 9.040,9.813 9.040 L 8.453 9.040 7.848 9.243 C 5.929 9.885,4.400 10.867,2.654 12.579 C 1.649 13.563,1.432 13.841,1.399 14.181 C 1.382 14.357,1.404 14.504,1.468 14.646 C 1.533 14.788,2.673 15.959,5.102 18.376 L 8.642 21.899 5.157 25.363 C 2.938 27.568,1.640 28.897,1.583 29.021 C 1.367 29.492,1.575 30.005,2.084 30.259 C 2.451 30.441,2.651 30.439,2.912 30.248 C 3.256 29.996,4.384 28.914,7.291 26.046 L 10.055 23.318 13.094 26.305 C 17.276 30.415,17.436 30.556,17.855 30.488 C 18.416 30.397,19.909 28.989,21.060 27.467 C 22.118 26.068,22.831 24.659,23.126 23.387 C 23.260 22.810,23.263 21.368,23.132 20.841 C 22.972 20.200,22.724 19.648,22.325 19.044 L 21.935 18.453 24.741 15.687 L 27.547 12.921 28.310 13.656 C 28.729 14.060,29.153 14.429,29.251 14.475 C 29.837 14.754,30.537 14.327,30.601 13.652 C 30.623 13.428,30.604 13.350,30.483 13.160 C 30.325 12.910,22.312 4.895,20.319 2.991 C 18.746 1.490,18.641 1.419,18.198 1.560 M24.587 10.000 L 26.107 11.528 23.333 14.269 C 21.808 15.776,20.548 17.010,20.533 17.011 C 20.518 17.012,19.263 15.770,17.743 14.250 L 14.980 11.487 17.758 8.751 L 20.535 6.015 21.801 7.244 C 22.497 7.919,23.751 9.160,24.587 10.000 M10.780 11.010 C 11.201 11.099,11.618 11.303,12.160 11.686 C 12.888 12.199,19.944 19.200,20.368 19.829 C 20.730 20.367,21.003 20.992,21.072 21.440 C 21.165 22.046,21.095 23.123,20.931 23.612 C 20.652 24.442,20.060 25.478,19.321 26.429 C 18.911 26.958,17.821 28.120,17.759 28.095 C 17.693 28.070,3.787 14.274,3.787 14.235 C 3.787 14.178,4.929 13.181,5.413 12.815 C 6.768 11.790,8.081 11.131,9.040 10.992 C 9.545 10.920,10.394 10.928,10.780 11.010 " fill="#282D37" stroke="none" fill-rule="evenodd"></path></svg>