<svg width="14" height="14" viewBox="0 0 14 14" fill="none" xmlns="http://www.w3.org/2000/svg"><path d="M7.789 1.052 C 7.626 1.070,7.467 1.175,7.356 1.339 C 7.262 1.478,7.234 1.580,7.233 1.775 C 7.233 1.980,7.301 2.110,7.536 2.362 L 7.720 2.559 7.191 3.082 C 6.900 3.370,6.508 3.756,6.321 3.940 L 5.980 4.274 5.796 4.182 C 5.695 4.131,5.507 4.055,5.378 4.013 C 5.154 3.939,5.127 3.936,4.687 3.925 C 4.176 3.913,4.009 3.935,3.628 4.064 C 3.129 4.232,2.488 4.610,1.985 5.032 C 1.665 5.301,1.201 5.766,1.089 5.929 C 0.904 6.201,0.922 6.498,1.140 6.760 C 1.202 6.834,1.789 7.436,2.444 8.098 L 3.637 9.302 2.619 10.303 C 1.627 11.280,1.157 11.768,1.070 11.911 C 1.014 12.002,1.011 12.311,1.063 12.466 C 1.152 12.725,1.412 12.904,1.727 12.922 C 1.891 12.931,1.919 12.926,2.025 12.869 C 2.158 12.796,2.584 12.398,3.792 11.218 C 4.262 10.759,4.660 10.383,4.679 10.383 C 4.729 10.383,4.873 10.518,5.962 11.581 C 7.126 12.718,7.346 12.917,7.478 12.953 C 7.636 12.996,7.888 12.967,8.015 12.893 C 8.280 12.738,8.902 12.098,9.288 11.583 C 9.844 10.843,10.126 10.097,10.127 9.366 C 10.127 8.955,10.052 8.636,9.858 8.220 L 9.757 8.006 10.607 7.165 C 11.074 6.702,11.467 6.323,11.479 6.323 C 11.491 6.323,11.588 6.397,11.695 6.487 C 11.801 6.577,11.954 6.683,12.034 6.723 C 12.164 6.788,12.196 6.795,12.326 6.784 C 12.594 6.762,12.840 6.609,12.948 6.397 C 13.007 6.281,13.050 6.037,13.031 5.923 C 13.022 5.872,12.971 5.770,12.911 5.687 C 12.739 5.447,8.539 1.293,8.306 1.131 C 8.201 1.058,8.006 1.029,7.789 1.052 " fill="#282D37" stroke="none" fill-rule="evenodd"></path></svg>