<svg width="14" height="14" viewBox="0 0 14 14" fill="none" xmlns="http://www.w3.org/2000/svg"><path d="M7.586 1.917 C 7.543 1.929,7.452 1.995,7.384 2.063 C 7.287 2.160,7.251 2.217,7.221 2.322 C 7.147 2.577,7.210 2.763,7.462 3.036 L 7.617 3.204 6.871 3.933 L 6.125 4.662 5.997 4.597 C 5.804 4.500,5.562 4.419,5.367 4.386 C 5.140 4.348,4.725 4.348,4.503 4.386 C 3.880 4.493,3.157 4.893,2.485 5.505 C 2.219 5.747,1.930 6.065,1.879 6.175 C 1.837 6.261,1.831 6.567,1.868 6.665 C 1.882 6.701,2.393 7.232,3.005 7.846 L 4.117 8.961 3.323 9.760 C 1.843 11.249,1.849 11.241,1.873 11.503 C 1.893 11.725,2.022 11.915,2.228 12.023 C 2.348 12.086,2.635 12.093,2.742 12.035 C 2.817 11.994,3.418 11.426,4.399 10.468 L 5.017 9.864 5.588 10.421 C 6.672 11.477,7.189 11.967,7.295 12.037 C 7.590 12.233,7.872 12.126,8.366 11.631 C 8.901 11.093,9.359 10.401,9.542 9.854 C 9.647 9.540,9.666 9.379,9.655 8.930 C 9.644 8.491,9.628 8.419,9.456 8.043 L 9.372 7.860 10.109 7.123 L 10.846 6.385 11.022 6.550 C 11.119 6.640,11.235 6.731,11.281 6.753 C 11.499 6.856,11.781 6.811,11.962 6.644 C 12.116 6.502,12.165 6.393,12.166 6.192 C 12.167 6.048,12.158 6.013,12.100 5.924 C 12.025 5.808,9.088 2.868,8.485 2.305 C 8.203 2.041,8.068 1.931,8.007 1.914 C 7.902 1.885,7.692 1.886,7.586 1.917 " fill="#282D37" stroke="none" fill-rule="evenodd"></path></svg>