<svg width="28" height="28" viewBox="0 0 28 28" fill="none" xmlns="http://www.w3.org/2000/svg"><path d="M15.843 1.394 C 15.528 1.542,15.260 1.912,15.260 2.200 C 15.260 2.422,15.479 2.731,16.081 3.357 C 16.425 3.716,16.707 4.018,16.707 4.028 C 16.707 4.039,15.606 5.133,14.260 6.459 L 11.814 8.870 11.495 8.674 C 11.014 8.378,10.434 8.123,9.940 7.990 C 9.546 7.884,9.404 7.870,8.657 7.867 C 7.733 7.863,7.392 7.914,6.611 8.173 C 5.698 8.476,4.406 9.204,3.477 9.939 C 2.925 10.375,1.371 11.940,1.285 12.146 C 1.246 12.240,1.213 12.438,1.213 12.587 L 1.213 12.856 4.387 16.009 L 7.560 19.161 4.511 22.192 C 2.554 24.137,1.434 25.284,1.384 25.394 C 1.224 25.745,1.322 26.086,1.669 26.391 C 1.979 26.664,2.282 26.652,2.692 26.350 C 2.935 26.171,4.741 24.416,7.747 21.436 L 8.797 20.396 11.410 22.967 C 14.130 25.644,15.048 26.514,15.279 26.633 C 15.591 26.794,15.935 26.626,16.708 25.935 C 18.088 24.702,19.496 22.696,20.010 21.233 C 20.267 20.499,20.321 20.165,20.321 19.297 C 20.321 18.560,20.312 18.473,20.191 18.084 C 20.014 17.516,19.748 16.960,19.441 16.522 L 19.186 16.159 21.629 13.749 C 22.973 12.424,24.086 11.340,24.104 11.340 C 24.121 11.340,24.429 11.622,24.788 11.967 C 25.147 12.311,25.511 12.626,25.596 12.667 C 25.944 12.831,26.410 12.697,26.627 12.369 C 26.791 12.122,26.828 11.789,26.716 11.569 C 26.672 11.482,24.910 9.688,22.802 7.583 C 18.703 3.493,16.699 1.540,16.486 1.430 C 16.253 1.310,16.046 1.298,15.843 1.394 " fill="#282D37" stroke="none" fill-rule="evenodd"></path></svg>