<svg width="24" height="24" viewBox="0 0 24 24" fill="none" xmlns="http://www.w3.org/2000/svg"><path d="M13.336 1.923 C 13.180 1.968,12.858 2.249,12.772 2.415 C 12.680 2.591,12.681 3.097,12.773 3.271 C 12.812 3.343,13.026 3.592,13.249 3.824 L 13.655 4.245 11.976 5.924 L 10.298 7.602 9.909 7.405 C 9.180 7.033,8.564 6.880,7.802 6.880 C 6.976 6.880,6.288 7.052,5.420 7.477 C 4.381 7.985,2.902 9.115,2.197 9.940 C 1.837 10.361,1.780 10.480,1.780 10.823 C 1.780 11.072,1.795 11.128,1.900 11.283 C 1.966 11.380,3.036 12.482,4.278 13.732 L 6.536 16.003 4.250 18.292 C 2.668 19.875,1.944 20.626,1.902 20.729 C 1.762 21.065,1.852 21.452,2.137 21.744 C 2.371 21.985,2.680 22.105,2.948 22.058 C 3.311 21.994,3.462 21.858,6.267 19.065 L 7.954 17.386 9.987 19.386 C 12.268 21.630,12.627 21.970,12.811 22.067 C 13.025 22.178,13.381 22.157,13.637 22.018 C 14.009 21.815,15.116 20.692,15.704 19.920 C 16.433 18.963,16.924 17.944,17.106 17.010 C 17.208 16.484,17.197 15.721,17.081 15.240 C 16.975 14.801,16.734 14.189,16.555 13.900 L 16.431 13.700 18.105 12.052 C 19.026 11.145,19.795 10.403,19.813 10.402 C 19.831 10.401,20.029 10.564,20.253 10.764 C 20.839 11.288,20.902 11.326,21.206 11.327 C 21.546 11.329,21.760 11.236,21.978 10.994 C 22.183 10.766,22.268 10.486,22.223 10.185 C 22.197 10.016,22.146 9.948,21.604 9.370 C 20.881 8.601,16.278 4.025,15.039 2.844 C 14.544 2.373,14.082 1.964,14.011 1.934 C 13.868 1.874,13.525 1.868,13.336 1.923 M16.545 7.115 C 17.334 7.883,18.076 8.609,18.193 8.730 L 18.406 8.948 16.763 10.564 C 15.860 11.453,15.103 12.180,15.081 12.180 C 15.059 12.180,14.301 11.453,13.398 10.564 L 11.754 8.948 12.027 8.669 C 12.484 8.204,15.058 5.720,15.085 5.720 C 15.099 5.720,15.756 6.348,16.545 7.115 M8.712 9.049 C 8.873 9.115,9.089 9.237,9.192 9.319 C 9.522 9.581,11.290 11.299,13.005 13.025 C 14.716 14.747,14.939 15.006,15.061 15.414 C 15.140 15.682,15.139 16.534,15.059 16.874 C 14.904 17.530,14.231 18.615,13.367 19.600 L 13.210 19.780 9.822 16.420 C 7.958 14.572,5.918 12.552,5.287 11.931 L 4.140 10.803 4.280 10.679 C 4.980 10.060,5.634 9.601,6.260 9.290 C 6.987 8.928,7.231 8.873,7.960 8.907 C 8.351 8.925,8.464 8.946,8.712 9.049 " fill="#282D37" stroke="none" fill-rule="evenodd"></path></svg>