<svg width="16" height="16" viewBox="0 0 16 16" fill="none" xmlns="http://www.w3.org/2000/svg"><path d="M8.888 1.202 C 8.652 1.234,8.399 1.461,8.305 1.725 C 8.285 1.781,8.268 1.911,8.268 2.015 C 8.266 2.264,8.338 2.406,8.612 2.699 L 8.823 2.924 8.205 3.535 C 7.865 3.872,7.417 4.313,7.211 4.516 L 6.835 4.885 6.624 4.779 C 6.508 4.721,6.293 4.634,6.147 4.586 C 5.890 4.502,5.860 4.498,5.356 4.486 C 4.772 4.472,4.582 4.497,4.147 4.644 C 3.639 4.816,2.910 5.228,2.439 5.610 C 1.960 5.998,1.385 6.563,1.219 6.807 C 1.140 6.923,1.080 7.214,1.106 7.352 C 1.116 7.406,1.148 7.497,1.177 7.554 C 1.234 7.666,2.227 8.699,3.410 9.879 L 4.158 10.624 2.788 11.986 C 2.035 12.734,1.367 13.418,1.303 13.505 L 1.187 13.663 1.187 13.931 C 1.187 14.145,1.197 14.222,1.239 14.307 C 1.304 14.439,1.509 14.643,1.639 14.705 C 1.763 14.763,2.087 14.789,2.227 14.750 C 2.383 14.707,2.618 14.495,3.960 13.182 C 4.620 12.536,5.205 11.969,5.261 11.921 L 5.362 11.833 5.541 12.003 C 5.639 12.096,6.228 12.668,6.849 13.274 C 8.460 14.846,8.456 14.843,8.829 14.821 C 9.005 14.811,9.059 14.795,9.189 14.718 C 9.375 14.607,10.038 13.958,10.358 13.573 C 11.267 12.483,11.685 11.337,11.549 10.307 C 11.512 10.032,11.379 9.609,11.243 9.340 L 11.151 9.156 11.982 8.331 C 12.439 7.877,12.882 7.441,12.965 7.362 L 13.117 7.218 13.259 7.329 C 13.336 7.390,13.454 7.483,13.520 7.537 C 13.586 7.590,13.704 7.664,13.783 7.700 C 13.903 7.756,13.953 7.765,14.090 7.753 C 14.393 7.728,14.675 7.552,14.798 7.310 C 14.880 7.151,14.920 6.870,14.881 6.737 C 14.814 6.506,14.624 6.306,12.213 3.926 C 9.999 1.740,9.530 1.292,9.402 1.240 C 9.292 1.196,9.058 1.178,8.888 1.202 " fill="#282D37" stroke="none" fill-rule="evenodd"></path></svg>