<svg width="20" height="20" viewBox="0 0 20 20" fill="none" xmlns="http://www.w3.org/2000/svg"><path d="M11.050 1.503 C 10.784 1.568,10.488 1.857,10.381 2.157 C 10.357 2.226,10.336 2.389,10.335 2.518 C 10.333 2.829,10.422 3.007,10.765 3.374 L 11.029 3.655 10.256 4.419 C 9.831 4.840,9.272 5.391,9.013 5.645 L 8.543 6.106 8.280 5.974 C 8.135 5.901,7.867 5.792,7.683 5.732 C 7.363 5.627,7.324 5.622,6.696 5.608 C 6.170 5.595,5.986 5.603,5.762 5.648 C 4.854 5.830,3.783 6.395,2.841 7.190 C 2.363 7.594,1.682 8.269,1.545 8.477 C 1.425 8.657,1.347 9.001,1.382 9.190 C 1.441 9.500,1.487 9.552,3.840 11.917 L 5.200 13.284 3.727 14.734 C 2.191 16.246,1.640 16.825,1.525 17.050 C 1.437 17.222,1.432 17.551,1.514 17.795 C 1.582 17.996,1.841 18.282,2.041 18.377 C 2.190 18.447,2.508 18.483,2.714 18.452 C 2.936 18.419,3.202 18.192,4.399 17.017 C 6.101 15.345,6.665 14.800,6.696 14.800 C 6.712 14.800,7.390 15.449,8.202 16.242 C 10.102 18.095,10.378 18.350,10.592 18.456 C 10.748 18.532,10.798 18.540,11.030 18.527 C 11.238 18.515,11.323 18.493,11.450 18.419 C 11.674 18.287,12.187 17.811,12.617 17.335 C 13.880 15.936,14.466 14.678,14.466 13.363 C 14.467 12.793,14.357 12.331,14.083 11.743 L 13.939 11.437 15.153 10.235 C 15.820 9.574,16.381 9.033,16.399 9.033 C 16.416 9.033,16.555 9.138,16.707 9.267 C 16.859 9.395,17.077 9.547,17.192 9.605 C 17.377 9.698,17.423 9.707,17.608 9.692 C 17.992 9.660,18.343 9.441,18.498 9.137 C 18.599 8.940,18.647 8.606,18.600 8.430 C 18.518 8.122,18.255 7.846,14.883 4.523 C 12.480 2.155,11.939 1.642,11.747 1.551 C 11.606 1.484,11.231 1.458,11.050 1.503 M13.733 6.331 L 14.917 7.493 13.296 9.122 C 11.630 10.796,11.541 10.899,11.483 11.209 C 11.432 11.478,11.577 11.835,11.898 12.233 C 12.009 12.371,12.148 12.573,12.208 12.683 C 12.316 12.882,12.317 12.886,12.316 13.350 C 12.316 13.706,12.302 13.864,12.255 14.017 C 12.115 14.478,11.665 15.234,11.197 15.795 L 10.994 16.039 10.038 15.094 C 9.513 14.574,7.918 12.997,6.494 11.588 L 3.905 9.027 4.011 8.935 C 4.497 8.515,5.531 7.903,5.984 7.768 C 6.057 7.746,6.329 7.720,6.589 7.710 L 7.061 7.691 7.281 7.814 C 7.402 7.882,7.619 8.026,7.763 8.134 C 8.190 8.456,8.333 8.517,8.667 8.516 C 8.871 8.516,8.979 8.500,9.055 8.459 C 9.229 8.364,9.786 7.841,11.167 6.474 C 11.891 5.756,12.498 5.170,12.517 5.169 C 12.535 5.169,13.083 5.692,13.733 6.331 " fill="#282D37" stroke="none" fill-rule="evenodd"></path></svg>