<svg width="12" height="12" viewBox="0 0 12 12" fill="none" xmlns="http://www.w3.org/2000/svg"><path d="M5.767 2.458 C 5.652 2.511,5.531 2.625,5.460 2.750 L 5.400 2.855 5.400 4.127 L 5.400 5.400 4.695 5.402 C 4.307 5.403,3.724 5.410,3.400 5.418 C 2.748 5.433,2.756 5.431,2.597 5.575 C 2.469 5.691,2.412 5.821,2.412 6.000 C 2.413 6.115,2.423 6.172,2.458 6.244 C 2.510 6.352,2.658 6.498,2.776 6.558 C 2.857 6.599,2.879 6.600,4.129 6.600 L 5.400 6.600 5.400 7.875 L 5.400 9.150 5.458 9.250 C 5.526 9.370,5.673 9.510,5.776 9.555 C 5.889 9.604,6.126 9.597,6.244 9.541 C 6.352 9.490,6.497 9.343,6.558 9.224 C 6.599 9.143,6.600 9.121,6.600 7.871 L 6.600 6.600 7.871 6.600 C 9.121 6.600,9.143 6.599,9.224 6.558 C 9.342 6.498,9.490 6.352,9.542 6.244 C 9.577 6.172,9.587 6.115,9.588 6.000 C 9.588 5.821,9.531 5.691,9.403 5.575 C 9.244 5.431,9.252 5.433,8.600 5.418 C 8.275 5.410,7.693 5.403,7.305 5.402 L 6.600 5.400 6.600 4.127 L 6.600 2.855 6.539 2.748 C 6.462 2.614,6.325 2.492,6.205 2.452 C 6.078 2.408,5.871 2.411,5.767 2.458 " fill="#1A1C1F" stroke="none" fill-rule="evenodd"></path></svg>