<svg width="28" height="28" viewBox="0 0 28 28" fill="none" xmlns="http://www.w3.org/2000/svg"><path d="M13.646 5.362 C 13.541 5.409,13.379 5.542,13.285 5.657 L 13.113 5.866 13.113 9.484 L 13.113 13.101 9.532 13.123 C 6.025 13.144,5.946 13.147,5.763 13.241 C 5.426 13.416,5.273 13.653,5.273 14.005 C 5.273 14.345,5.486 14.661,5.810 14.801 C 5.920 14.849,6.723 14.865,9.532 14.877 L 13.113 14.892 13.113 18.521 L 13.113 22.150 13.282 22.347 C 13.374 22.455,13.531 22.584,13.630 22.635 C 13.996 22.822,14.404 22.713,14.718 22.347 L 14.887 22.150 14.887 18.521 L 14.887 14.892 18.468 14.878 C 22.405 14.862,22.223 14.875,22.502 14.577 C 22.658 14.411,22.727 14.234,22.727 14.000 C 22.727 13.653,22.573 13.415,22.237 13.241 C 22.054 13.147,21.975 13.144,18.468 13.123 L 14.887 13.101 14.886 9.689 C 14.886 7.713,14.867 6.161,14.841 6.001 C 14.788 5.675,14.680 5.540,14.350 5.384 C 14.070 5.252,13.900 5.247,13.646 5.362 " fill="#1A1C1F" stroke="none" fill-rule="evenodd"></path></svg>