<svg width="14" height="14" viewBox="0 0 14 14" fill="none" xmlns="http://www.w3.org/2000/svg"><path d="M6.728 2.868 C 6.594 2.929,6.453 3.063,6.370 3.208 L 6.300 3.331 6.300 4.815 L 6.300 6.300 5.489 6.302 C 5.043 6.303,4.363 6.311,3.978 6.320 L 3.278 6.335 3.171 6.398 C 3.042 6.474,2.908 6.617,2.855 6.737 C 2.795 6.873,2.801 7.147,2.868 7.284 C 2.929 7.411,3.101 7.581,3.239 7.651 C 3.333 7.699,3.359 7.700,4.817 7.700 L 6.300 7.700 6.300 9.189 L 6.300 10.678 6.382 10.816 C 6.512 11.035,6.657 11.139,6.884 11.175 C 7.203 11.225,7.492 11.075,7.641 10.782 L 7.700 10.665 7.700 9.182 L 7.700 7.700 9.183 7.700 C 10.641 7.700,10.667 7.699,10.761 7.651 C 10.899 7.581,11.071 7.411,11.132 7.284 C 11.173 7.201,11.185 7.134,11.186 7.000 C 11.186 6.791,11.120 6.639,10.970 6.504 C 10.784 6.336,10.796 6.338,10.022 6.321 C 9.637 6.312,8.957 6.303,8.511 6.302 L 7.700 6.300 7.700 4.815 L 7.700 3.331 7.629 3.206 C 7.539 3.050,7.380 2.908,7.240 2.860 C 7.091 2.809,6.849 2.813,6.728 2.868 " fill="#1A1C1F" stroke="none" fill-rule="evenodd"></path></svg>