<svg width="20" height="20" viewBox="0 0 20 20" fill="none" xmlns="http://www.w3.org/2000/svg"><path d="M9.612 4.097 C 9.422 4.184,9.212 4.381,9.097 4.582 L 9.001 4.750 9.000 6.875 L 9.000 9.000 7.992 9.002 C 7.437 9.003,6.466 9.016,5.833 9.030 C 4.562 9.058,4.593 9.053,4.329 9.291 C 4.021 9.569,3.928 10.011,4.096 10.390 C 4.183 10.584,4.418 10.823,4.627 10.930 C 4.762 10.999,4.798 11.000,6.882 11.000 L 9.000 11.000 9.000 13.125 L 9.001 15.250 9.097 15.417 C 9.343 15.845,9.715 16.035,10.165 15.964 C 10.489 15.913,10.713 15.747,10.903 15.417 L 10.999 15.250 11.000 13.125 L 11.000 11.000 13.118 11.000 C 15.202 11.000,15.238 10.999,15.373 10.930 C 16.042 10.589,16.193 9.762,15.671 9.291 C 15.407 9.053,15.438 9.058,14.167 9.030 C 13.534 9.016,12.563 9.003,12.008 9.002 L 11.000 9.000 11.000 6.879 L 11.000 4.758 10.898 4.580 C 10.771 4.357,10.542 4.154,10.342 4.086 C 10.130 4.013,9.785 4.019,9.612 4.097 " fill="#1A1C1F" stroke="none" fill-rule="evenodd"></path></svg>