<svg width="24" height="24" viewBox="0 0 24 24" fill="none" xmlns="http://www.w3.org/2000/svg"><path d="M11.580 5.106 C 11.408 5.197,11.246 5.354,11.115 5.558 L 11.000 5.736 11.000 8.362 L 11.000 10.989 8.344 11.008 L 5.689 11.026 5.481 11.160 C 5.366 11.233,5.225 11.365,5.166 11.454 C 5.070 11.600,5.060 11.649,5.060 12.004 C 5.060 12.373,5.066 12.402,5.182 12.567 C 5.248 12.662,5.401 12.798,5.520 12.870 L 5.736 13.000 8.368 13.000 L 11.000 13.000 11.000 15.632 L 11.000 18.264 11.130 18.480 C 11.202 18.599,11.338 18.752,11.433 18.818 C 11.598 18.934,11.627 18.940,12.000 18.940 C 12.373 18.940,12.402 18.934,12.567 18.818 C 12.662 18.752,12.798 18.599,12.870 18.480 L 13.000 18.264 13.000 15.632 L 13.000 13.000 15.632 13.000 L 18.264 13.000 18.480 12.870 C 18.599 12.798,18.752 12.662,18.818 12.567 C 18.934 12.402,18.940 12.373,18.940 12.004 C 18.940 11.649,18.930 11.600,18.834 11.454 C 18.775 11.365,18.634 11.233,18.519 11.160 L 18.311 11.026 15.657 11.008 L 13.003 10.989 12.991 8.345 C 12.979 5.397,12.999 5.608,12.693 5.312 C 12.609 5.231,12.473 5.136,12.391 5.102 C 12.196 5.021,11.738 5.023,11.580 5.106 " fill="#1A1C1F" stroke="none" fill-rule="evenodd"></path></svg>