<svg width="32" height="32" viewBox="0 0 32 32" fill="none" xmlns="http://www.w3.org/2000/svg"><path d="M15.596 6.125 C 15.476 6.181,15.290 6.334,15.182 6.466 L 14.987 6.704 14.987 10.839 L 14.987 14.973 10.893 14.997 C 6.878 15.021,6.796 15.024,6.587 15.132 C 6.202 15.332,6.027 15.604,6.027 16.000 C 6.027 16.114,6.052 16.274,6.083 16.357 C 6.166 16.575,6.447 16.845,6.664 16.915 C 6.796 16.958,8.078 16.983,10.920 17.000 L 14.987 17.023 14.990 20.605 C 14.993 24.586,15.022 25.319,15.185 25.538 C 15.646 26.161,16.578 26.079,16.900 25.387 C 16.977 25.220,16.988 24.753,17.003 21.111 L 17.019 17.022 21.083 17.000 C 23.937 16.984,25.203 16.959,25.336 16.916 C 25.440 16.882,25.600 16.776,25.692 16.681 C 26.225 16.129,25.977 15.240,25.251 15.094 C 25.101 15.064,23.268 15.026,21.000 15.005 L 17.013 14.969 17.013 11.071 C 17.013 8.815,16.991 7.041,16.961 6.858 C 16.904 6.508,16.784 6.343,16.467 6.180 C 16.163 6.025,15.852 6.005,15.596 6.125 " fill="#1A1C1F" stroke="none" fill-rule="evenodd"></path></svg>