<svg width="16" height="16" viewBox="0 0 16 16" fill="none" xmlns="http://www.w3.org/2000/svg"><path d="M7.690 3.278 C 7.538 3.347,7.370 3.505,7.278 3.665 L 7.201 3.800 7.200 5.496 L 7.200 7.191 5.492 7.209 C 3.846 7.226,3.780 7.229,3.677 7.281 C 3.386 7.430,3.216 7.701,3.218 8.013 C 3.219 8.327,3.355 8.545,3.661 8.720 L 3.800 8.799 5.500 8.800 L 7.200 8.800 7.200 10.494 C 7.200 12.161,7.201 12.191,7.256 12.298 C 7.342 12.468,7.532 12.654,7.688 12.721 C 7.857 12.795,8.148 12.803,8.299 12.739 C 8.417 12.689,8.655 12.473,8.710 12.368 C 8.780 12.232,8.799 11.789,8.799 10.287 L 8.800 8.800 10.287 8.799 C 11.789 8.799,12.232 8.780,12.368 8.710 C 12.473 8.655,12.689 8.417,12.739 8.299 C 12.764 8.240,12.781 8.122,12.782 8.009 C 12.782 7.774,12.693 7.570,12.525 7.425 C 12.281 7.215,12.417 7.229,10.508 7.209 L 8.800 7.191 8.800 5.499 L 8.800 3.806 8.719 3.664 C 8.616 3.486,8.434 3.323,8.274 3.269 C 8.104 3.211,7.828 3.215,7.690 3.278 " fill="#1A1C1F" stroke="none" fill-rule="evenodd"></path></svg>