<svg width="14" height="14" viewBox="0 0 14 14" fill="none" xmlns="http://www.w3.org/2000/svg"><path d="M2.613 1.445 C 2.382 1.461,2.241 1.521,1.999 1.704 C 1.737 1.902,1.578 2.119,1.456 2.443 L 1.400 2.591 1.400 6.796 C 1.401 9.214,1.410 11.114,1.423 11.267 C 1.443 11.514,1.452 11.548,1.554 11.757 C 1.641 11.937,1.696 12.014,1.829 12.146 C 2.003 12.317,2.211 12.458,2.383 12.521 C 2.453 12.546,2.625 12.564,2.928 12.578 C 3.506 12.604,10.815 12.604,11.217 12.578 C 11.511 12.559,11.534 12.554,11.718 12.464 C 12.141 12.257,12.438 11.921,12.547 11.524 C 12.586 11.385,12.588 11.152,12.588 7.945 C 12.588 6.058,12.580 4.477,12.570 4.430 C 12.545 4.311,12.329 4.069,11.481 3.211 C 10.603 2.323,9.828 1.580,9.687 1.491 L 9.581 1.423 6.196 1.427 C 4.335 1.429,2.722 1.437,2.613 1.445 M4.204 3.576 C 4.213 4.471,4.212 4.468,4.445 4.688 C 4.683 4.913,4.557 4.899,6.300 4.899 C 8.043 4.899,7.917 4.913,8.155 4.688 C 8.388 4.468,8.387 4.471,8.396 3.576 L 8.405 2.800 8.746 2.800 L 9.088 2.800 10.144 3.856 L 11.200 4.911 11.200 8.056 L 11.200 11.200 10.500 11.200 L 9.800 11.200 9.800 9.729 C 9.800 8.325,9.798 8.254,9.755 8.170 C 9.685 8.034,9.513 7.856,9.379 7.784 L 9.258 7.717 7.481 7.706 C 5.738 7.695,4.771 7.716,4.639 7.767 C 4.542 7.804,4.388 7.953,4.289 8.106 L 4.200 8.244 4.200 9.722 L 4.200 11.200 3.500 11.200 L 2.800 11.200 2.800 7.000 L 2.800 2.800 3.498 2.800 L 4.196 2.800 4.204 3.576 M8.400 10.150 L 8.400 11.200 7.000 11.200 L 5.600 11.200 5.600 10.150 L 5.600 9.100 7.000 9.100 L 8.400 9.100 8.400 10.150 " fill="#1A1C1F" stroke="none" fill-rule="evenodd"></path></svg>