<svg width="24" height="24" viewBox="0 0 24 24" fill="none" xmlns="http://www.w3.org/2000/svg"><path d="M4.120 2.079 C 3.760 2.102,3.665 2.123,3.460 2.228 C 2.740 2.597,2.230 3.227,2.076 3.940 C 1.997 4.305,1.996 19.803,2.075 20.120 C 2.176 20.528,2.351 20.833,2.681 21.177 C 3.037 21.547,3.357 21.752,3.815 21.905 L 4.133 22.011 12.057 21.988 C 20.723 21.964,20.136 21.981,20.635 21.732 C 20.918 21.591,21.456 21.080,21.637 20.780 C 21.712 20.655,21.825 20.409,21.887 20.234 L 22.000 19.914 22.000 13.127 C 22.000 6.470,21.998 6.338,21.922 6.212 C 21.725 5.889,18.146 2.312,17.823 2.115 C 17.704 2.043,17.486 2.041,11.120 2.047 C 7.501 2.050,4.351 2.065,4.120 2.079 M6.007 5.630 C 6.020 7.039,6.031 7.276,6.087 7.381 C 6.180 7.552,6.570 7.910,6.706 7.948 C 6.855 7.990,13.145 7.990,13.294 7.948 C 13.430 7.910,13.820 7.552,13.913 7.381 C 13.969 7.276,13.980 7.039,13.993 5.630 L 14.008 4.000 15.494 4.000 L 16.980 4.000 18.497 5.517 L 20.013 7.033 19.984 13.367 L 19.956 19.700 19.810 19.850 L 19.664 20.000 18.836 20.000 L 18.007 20.000 17.991 16.390 C 17.980 13.843,17.962 12.749,17.930 12.674 C 17.860 12.510,17.647 12.287,17.445 12.168 L 17.260 12.060 11.980 12.060 L 6.700 12.060 6.516 12.168 C 6.329 12.278,6.184 12.439,6.066 12.668 C 6.006 12.784,6.000 13.131,6.000 16.398 L 6.000 20.000 5.172 20.000 L 4.343 20.000 4.192 19.852 L 4.040 19.704 4.040 11.995 L 4.040 4.287 4.163 4.184 C 4.344 4.031,4.440 4.017,5.386 4.007 L 5.992 4.000 6.007 5.630 M12.000 5.000 L 12.000 6.000 10.000 6.000 L 8.000 6.000 8.000 5.000 L 8.000 4.000 10.000 4.000 L 12.000 4.000 12.000 5.000 M16.000 17.000 L 16.000 20.000 12.000 20.000 L 8.000 20.000 8.000 17.000 L 8.000 14.000 12.000 14.000 L 16.000 14.000 16.000 17.000 " fill="#1A1C1F" stroke="none" fill-rule="evenodd"></path></svg>