<svg width="20" height="20" viewBox="0 0 20 20" fill="none" xmlns="http://www.w3.org/2000/svg"><path d="M3.750 2.065 C 3.388 2.091,3.179 2.181,2.823 2.464 C 2.462 2.751,2.189 3.138,2.079 3.517 C 2.025 3.703,2.020 4.132,2.008 9.617 C 2.001 13.003,2.009 15.718,2.027 15.989 C 2.057 16.459,2.058 16.463,2.216 16.789 C 2.345 17.055,2.421 17.161,2.616 17.354 C 2.891 17.626,3.228 17.838,3.517 17.922 C 3.702 17.975,4.139 17.980,9.620 17.992 C 13.291 18.000,15.702 17.992,15.996 17.972 C 16.448 17.940,16.478 17.933,16.742 17.804 C 17.344 17.510,17.768 17.029,17.924 16.463 C 17.980 16.264,17.983 15.928,17.983 11.283 C 17.983 7.210,17.975 6.303,17.939 6.239 C 17.737 5.885,14.250 2.391,13.838 2.129 L 13.687 2.033 8.868 2.039 C 6.218 2.042,3.915 2.054,3.750 2.065 M6.005 5.108 C 6.018 6.388,6.017 6.382,6.351 6.698 C 6.690 7.019,6.510 6.999,9.000 6.999 C 11.490 6.999,11.310 7.019,11.649 6.698 C 11.983 6.382,11.982 6.388,11.995 5.108 L 12.006 4.000 12.495 4.000 L 12.983 4.000 14.492 5.508 L 16.000 7.016 16.000 11.508 L 16.000 16.000 15.000 16.000 L 14.000 16.000 14.000 13.889 L 14.000 11.777 13.873 11.580 C 13.727 11.356,13.561 11.199,13.359 11.096 C 13.220 11.025,13.192 11.024,10.684 11.009 C 7.907 10.992,6.789 11.021,6.586 11.118 C 6.444 11.185,6.157 11.489,6.065 11.670 C 6.003 11.792,6.000 11.880,6.000 13.899 L 6.000 16.000 5.000 16.000 L 4.000 16.000 4.000 10.000 L 4.000 4.000 4.997 4.000 L 5.994 4.000 6.005 5.108 M12.000 14.500 L 12.000 16.000 10.000 16.000 L 8.000 16.000 8.000 14.500 L 8.000 13.000 10.000 13.000 L 12.000 13.000 12.000 14.500 " fill="#1A1C1F" stroke="none" fill-rule="evenodd"></path></svg>