<svg width="28" height="28" viewBox="0 0 28 28" fill="none" xmlns="http://www.w3.org/2000/svg"><path d="M3.780 1.852 C 3.006 1.936,2.023 2.925,1.808 3.838 C 1.763 4.029,1.751 6.278,1.752 14.047 L 1.755 24.010 1.861 24.313 C 2.161 25.166,2.810 25.819,3.668 26.130 L 4.065 26.273 11.237 26.268 C 15.182 26.266,19.712 26.249,21.303 26.231 C 24.122 26.200,24.203 26.196,24.449 26.098 C 24.788 25.962,25.124 25.732,25.428 25.428 C 25.771 25.085,25.966 24.779,26.133 24.323 L 26.273 23.937 26.268 16.577 C 26.266 12.529,26.250 8.553,26.233 7.741 L 26.203 6.266 25.830 5.854 C 25.625 5.628,24.659 4.641,23.683 3.661 C 22.227 2.199,21.882 1.875,21.753 1.850 C 21.590 1.819,4.070 1.821,3.780 1.852 M7.001 5.682 C 7.002 7.009,7.021 7.946,7.050 8.073 C 7.105 8.313,7.314 8.559,7.560 8.674 C 7.706 8.742,8.126 8.751,11.527 8.763 C 13.619 8.771,15.691 8.759,16.133 8.738 C 16.932 8.700,16.936 8.699,17.110 8.559 C 17.205 8.482,17.327 8.335,17.380 8.234 C 17.473 8.056,17.477 7.970,17.492 5.775 L 17.506 3.500 19.288 3.500 L 21.070 3.500 22.785 5.215 L 24.500 6.930 24.500 15.368 L 24.500 23.807 24.360 24.010 C 24.283 24.121,24.142 24.277,24.046 24.356 L 23.872 24.500 22.436 24.500 L 21.000 24.500 21.000 19.564 L 21.000 14.628 20.856 14.454 C 20.777 14.358,20.617 14.214,20.500 14.133 L 20.288 13.987 13.950 14.009 L 7.612 14.031 7.444 14.144 C 7.352 14.206,7.214 14.350,7.138 14.463 L 7.000 14.669 7.000 19.585 L 7.000 24.500 5.564 24.500 L 4.128 24.500 3.954 24.356 C 3.858 24.277,3.714 24.117,3.633 24.001 L 3.487 23.788 3.509 13.951 L 3.530 4.113 3.639 3.954 C 3.917 3.548,4.058 3.521,5.892 3.508 L 7.000 3.500 7.001 5.682 M15.727 5.250 L 15.727 7.000 12.250 7.000 L 8.773 7.000 8.773 5.250 L 8.773 3.500 12.250 3.500 L 15.727 3.500 15.727 5.250 M19.227 20.137 L 19.227 24.500 14.000 24.500 L 8.773 24.500 8.773 20.137 L 8.773 15.773 14.000 15.773 L 19.227 15.773 19.227 20.137 " fill="#1A1C1F" stroke="none" fill-rule="evenodd"></path></svg>