<svg width="32" height="32" viewBox="0 0 32 32" fill="none" xmlns="http://www.w3.org/2000/svg"><path d="M4.267 2.129 C 3.867 2.187,3.375 2.487,2.907 2.958 C 2.450 3.416,2.191 3.857,2.066 4.387 C 2.015 4.605,2.000 7.171,2.000 16.000 C 2.000 26.658,2.006 27.354,2.094 27.674 C 2.232 28.175,2.432 28.509,2.871 28.970 C 3.340 29.463,3.627 29.655,4.220 29.874 L 4.667 30.039 15.973 30.006 C 22.642 29.987,27.395 29.953,27.560 29.923 C 28.210 29.807,29.023 29.243,29.455 28.608 C 29.593 28.406,29.778 28.041,29.866 27.798 L 30.027 27.357 30.021 18.972 C 30.018 14.360,30.000 9.816,29.981 8.874 L 29.947 7.161 29.520 6.691 C 29.285 6.432,28.181 5.304,27.067 4.184 C 25.213 2.322,25.022 2.146,24.827 2.115 C 24.544 2.070,4.576 2.084,4.267 2.129 M8.001 6.493 C 8.002 8.011,8.024 9.081,8.058 9.227 C 8.120 9.501,8.359 9.782,8.640 9.913 C 8.807 9.991,9.287 10.002,13.173 10.015 C 15.564 10.024,17.933 10.011,18.437 9.987 C 19.351 9.943,19.356 9.942,19.554 9.782 C 19.663 9.693,19.802 9.526,19.863 9.410 C 19.969 9.207,19.974 9.109,19.990 6.600 L 20.007 4.000 22.043 4.000 L 24.079 4.000 26.040 5.960 L 28.000 7.919 28.000 17.563 L 28.000 27.207 27.840 27.440 C 27.752 27.567,27.591 27.746,27.481 27.836 L 27.282 28.000 25.641 28.000 L 24.000 28.000 24.000 22.359 L 24.000 16.718 23.836 16.519 C 23.746 16.409,23.567 16.248,23.440 16.160 L 23.207 16.000 18.172 16.000 C 15.403 16.000,12.124 16.016,10.886 16.035 L 8.635 16.071 8.455 16.209 C 8.357 16.285,8.214 16.441,8.138 16.557 L 8.000 16.768 8.000 22.384 L 8.000 28.000 6.359 28.000 L 4.718 28.000 4.519 27.836 C 4.409 27.746,4.244 27.562,4.152 27.429 L 3.985 27.186 4.011 15.942 L 4.036 4.698 4.160 4.518 C 4.228 4.418,4.368 4.280,4.470 4.209 C 4.699 4.052,5.066 4.020,6.787 4.008 L 8.000 4.000 8.001 6.493 M17.973 6.000 L 17.973 8.000 14.000 8.000 L 10.027 8.000 10.027 6.000 L 10.027 4.000 14.000 4.000 L 17.973 4.000 17.973 6.000 M21.973 23.013 L 21.973 28.000 16.000 28.000 L 10.027 28.000 10.027 23.013 L 10.027 18.027 16.000 18.027 L 21.973 18.027 21.973 23.013 " fill="#1A1C1F" stroke="none" fill-rule="evenodd"></path></svg>