<svg width="16" height="16" viewBox="0 0 16 16" fill="none" xmlns="http://www.w3.org/2000/svg"><path d="M2.987 1.652 C 2.711 1.673,2.537 1.750,2.257 1.972 C 1.956 2.212,1.721 2.557,1.650 2.867 C 1.611 3.034,1.585 12.185,1.621 12.777 L 1.645 13.168 1.773 13.431 C 1.876 13.644,1.937 13.729,2.092 13.883 C 2.313 14.101,2.583 14.271,2.813 14.337 C 2.962 14.380,3.313 14.384,7.654 14.393 C 10.482 14.400,12.500 14.393,12.753 14.378 C 13.165 14.353,13.175 14.351,13.392 14.244 C 13.876 14.008,14.214 13.624,14.340 13.171 C 14.384 13.011,14.387 12.743,14.387 9.027 C 14.387 5.768,14.380 5.042,14.351 4.991 C 14.191 4.709,11.399 1.912,11.071 1.704 L 10.950 1.627 7.081 1.631 C 4.954 1.633,3.111 1.643,2.987 1.652 M4.804 4.087 C 4.815 5.110,4.814 5.106,5.081 5.358 C 5.352 5.615,5.208 5.599,7.198 5.599 C 9.203 5.600,9.051 5.619,9.334 5.335 C 9.589 5.079,9.584 5.105,9.595 4.087 L 9.605 3.200 9.996 3.200 L 10.386 3.200 11.593 4.407 L 12.800 5.613 12.800 9.207 L 12.800 12.800 12.000 12.800 L 11.200 12.800 11.200 11.119 C 11.200 9.514,11.198 9.433,11.149 9.338 C 11.069 9.181,10.872 8.979,10.718 8.895 L 10.577 8.818 8.549 8.807 C 6.327 8.794,5.430 8.817,5.269 8.894 C 5.156 8.948,4.926 9.191,4.852 9.336 C 4.802 9.434,4.800 9.504,4.800 11.119 L 4.800 12.800 4.000 12.800 L 3.200 12.800 3.200 8.000 L 3.200 3.200 3.998 3.200 L 4.795 3.200 4.804 4.087 M9.600 11.600 L 9.600 12.800 8.000 12.800 L 6.400 12.800 6.400 11.600 L 6.400 10.400 8.000 10.400 L 9.600 10.400 9.600 11.600 " fill="#1A1C1F" stroke="none" fill-rule="evenodd"></path></svg>