<svg width="12" height="12" viewBox="0 0 12 12" fill="none" xmlns="http://www.w3.org/2000/svg"><path d="M2.260 1.240 C 2.047 1.255,1.977 1.280,1.798 1.401 C 1.537 1.578,1.384 1.764,1.269 2.045 L 1.201 2.210 1.201 5.840 C 1.201 7.876,1.209 9.559,1.220 9.673 C 1.234 9.830,1.252 9.907,1.299 10.010 C 1.423 10.284,1.607 10.491,1.860 10.641 C 2.127 10.799,1.810 10.787,5.730 10.795 C 7.796 10.799,9.363 10.795,9.554 10.783 C 9.876 10.765,9.879 10.764,10.044 10.683 C 10.407 10.506,10.661 10.218,10.755 9.878 C 10.788 9.758,10.790 9.557,10.790 6.769 L 10.790 3.787 10.736 3.706 C 10.575 3.462,8.531 1.422,8.303 1.278 L 8.212 1.220 5.331 1.223 C 3.746 1.225,2.365 1.232,2.260 1.240 M3.603 3.065 C 3.611 3.833,3.610 3.829,3.810 4.019 C 4.014 4.211,3.906 4.199,5.400 4.199 C 6.894 4.199,6.786 4.211,6.990 4.019 C 7.190 3.829,7.189 3.833,7.197 3.065 L 7.204 2.400 7.497 2.400 L 7.790 2.400 8.695 3.305 L 9.600 4.210 9.600 6.905 L 9.600 9.600 9.000 9.600 L 8.400 9.600 8.400 8.339 C 8.400 7.136,8.398 7.075,8.362 7.003 C 8.302 6.886,8.154 6.734,8.040 6.672 L 7.936 6.615 6.433 6.605 C 4.781 6.594,4.072 6.613,3.951 6.671 C 3.866 6.711,3.694 6.894,3.639 7.002 C 3.602 7.075,3.600 7.128,3.600 8.339 L 3.600 9.600 3.000 9.600 L 2.400 9.600 2.400 6.000 L 2.400 2.400 2.998 2.400 L 3.596 2.400 3.603 3.065 M7.200 8.700 L 7.200 9.600 6.000 9.600 L 4.800 9.600 4.800 8.700 L 4.800 7.800 6.000 7.800 L 7.200 7.800 7.200 8.700 " fill="#1A1C1F" stroke="none" fill-rule="evenodd"></path></svg>