<svg width="20" height="20" viewBox="0 0 20 20" fill="none" xmlns="http://www.w3.org/2000/svg"><path d="M11.283 4.097 C 10.626 4.234,10.020 4.450,9.529 4.721 C 9.086 4.965,8.810 5.178,8.219 5.737 L 7.950 5.990 7.560 6.045 C 6.221 6.237,5.309 6.827,4.555 7.990 C 4.434 8.176,4.301 8.353,4.259 8.383 C 4.217 8.412,4.025 8.539,3.831 8.665 C 1.908 9.916,1.428 12.515,2.780 14.350 C 3.305 15.062,4.168 15.655,5.017 15.884 C 5.334 15.970,6.697 15.997,10.805 15.998 L 14.527 16.000 14.924 15.885 C 15.648 15.674,16.145 15.414,16.625 14.992 C 17.922 13.855,18.341 12.023,17.666 10.437 C 17.549 10.161,17.333 9.787,17.143 9.529 L 17.011 9.350 16.989 8.867 C 16.930 7.539,16.450 6.427,15.544 5.516 C 15.111 5.082,14.728 4.805,14.183 4.534 C 13.451 4.169,13.040 4.071,12.150 4.049 C 11.684 4.037,11.530 4.045,11.283 4.097 " fill="#282D37" stroke="none" fill-rule="evenodd"></path></svg>