<svg width="20" height="20" viewBox="0 0 20 20" fill="none" xmlns="http://www.w3.org/2000/svg"><path d="M11.283 4.097 C 10.626 4.234,10.020 4.450,9.529 4.721 C 9.086 4.965,8.810 5.178,8.219 5.737 L 7.950 5.990 7.560 6.045 C 6.221 6.237,5.309 6.827,4.555 7.990 C 4.434 8.176,4.301 8.353,4.259 8.383 C 4.217 8.412,4.025 8.539,3.831 8.665 C 1.908 9.916,1.428 12.515,2.780 14.350 C 3.305 15.062,4.168 15.655,5.017 15.884 C 5.334 15.970,6.697 15.997,10.805 15.998 L 14.527 16.000 14.924 15.885 C 15.648 15.674,16.145 15.414,16.625 14.992 C 17.922 13.855,18.341 12.023,17.666 10.437 C 17.549 10.161,17.333 9.787,17.143 9.529 L 17.011 9.350 16.989 8.867 C 16.930 7.539,16.450 6.427,15.544 5.516 C 15.111 5.082,14.728 4.805,14.183 4.534 C 13.451 4.169,13.040 4.071,12.150 4.049 C 11.684 4.037,11.530 4.045,11.283 4.097 M12.828 6.132 C 13.796 6.408,14.616 7.241,14.882 8.217 C 14.971 8.541,14.986 9.185,14.917 9.680 L 14.857 10.104 15.044 10.270 C 15.512 10.687,15.779 11.039,15.889 11.383 C 15.960 11.606,15.986 12.194,15.934 12.431 C 15.868 12.737,15.680 13.079,15.432 13.344 C 15.172 13.621,14.936 13.773,14.561 13.906 L 14.295 14.000 9.997 14.000 C 5.728 14.000,5.696 14.000,5.491 13.930 C 5.132 13.810,4.896 13.665,4.632 13.401 C 4.220 12.990,4.028 12.532,4.030 11.969 C 4.031 11.622,4.098 11.354,4.256 11.067 C 4.548 10.534,4.922 10.259,5.706 10.002 L 5.929 9.929 6.019 9.656 C 6.181 9.166,6.327 8.908,6.602 8.627 C 6.812 8.412,6.907 8.344,7.184 8.210 C 7.510 8.053,7.522 8.050,7.884 8.038 C 8.117 8.031,8.377 8.046,8.589 8.080 C 8.774 8.109,8.948 8.133,8.976 8.133 C 9.006 8.133,9.137 7.958,9.289 7.713 C 9.711 7.033,10.008 6.718,10.505 6.424 C 10.774 6.264,11.185 6.105,11.428 6.067 C 11.752 6.015,12.549 6.052,12.828 6.132 " fill="#1A1C1F" stroke="none" fill-rule="evenodd"></path></svg>