<svg width="32" height="32" viewBox="0 0 32 32" fill="none" xmlns="http://www.w3.org/2000/svg"><path d="M18.077 6.157 C 17.545 6.267,16.805 6.529,16.280 6.793 C 15.318 7.276,14.215 8.134,13.600 8.877 C 13.321 9.214,13.298 9.230,13.120 9.202 C 12.360 9.079,11.992 9.057,11.177 9.080 C 10.394 9.103,10.200 9.127,9.787 9.250 C 7.645 9.888,6.070 11.377,5.340 13.455 C 5.118 14.086,5.116 14.088,4.734 14.362 C 3.960 14.917,3.126 15.886,2.707 16.719 C 2.185 17.756,2.000 18.596,2.043 19.733 C 2.086 20.850,2.332 21.693,2.894 22.640 C 3.212 23.176,4.112 24.154,4.687 24.588 C 5.100 24.900,5.991 25.367,6.560 25.571 C 7.538 25.921,7.567 25.924,10.587 25.982 C 13.863 26.044,23.064 26.004,23.940 25.923 C 24.923 25.832,26.109 25.388,27.065 24.754 C 27.524 24.448,28.450 23.566,28.803 23.097 C 29.263 22.486,29.597 21.773,29.816 20.933 C 29.976 20.320,30.013 19.224,29.898 18.562 C 29.613 16.932,28.716 15.451,27.428 14.480 L 27.003 14.160 26.968 13.307 C 26.929 12.382,26.861 11.955,26.638 11.253 C 26.271 10.095,25.701 9.167,24.801 8.262 C 23.749 7.203,22.558 6.527,21.185 6.208 C 20.680 6.091,18.561 6.056,18.077 6.157 M20.907 8.215 C 22.701 8.675,24.125 10.055,24.739 11.925 C 24.889 12.383,24.896 12.448,24.928 13.733 C 24.957 14.909,24.972 15.082,25.058 15.200 C 25.112 15.273,25.382 15.496,25.658 15.694 C 26.892 16.581,27.481 17.302,27.799 18.314 C 27.902 18.642,27.918 18.809,27.917 19.547 C 27.916 20.392,27.914 20.404,27.730 20.882 C 27.201 22.251,26.028 23.304,24.487 23.792 C 23.970 23.956,22.152 23.993,14.587 23.997 L 8.240 24.000 7.760 23.861 C 6.019 23.357,4.756 22.260,4.250 20.810 C 4.038 20.205,3.989 19.284,4.133 18.631 C 4.373 17.541,5.103 16.534,6.187 15.802 C 6.833 15.364,6.917 15.250,7.130 14.525 C 7.517 13.202,8.085 12.395,9.092 11.738 C 10.155 11.044,11.461 10.869,12.842 11.235 C 13.680 11.457,13.778 11.475,13.958 11.441 C 14.214 11.393,14.405 11.205,14.986 10.428 C 15.574 9.641,15.879 9.342,16.516 8.924 C 17.135 8.519,17.840 8.234,18.551 8.104 C 19.010 8.020,20.404 8.085,20.907 8.215 " fill="#1A1C1F" stroke="none" fill-rule="evenodd"></path></svg>