<svg width="14" height="14" viewBox="0 0 14 14" fill="none" xmlns="http://www.w3.org/2000/svg"><path d="M7.887 2.867 C 7.215 3.015,6.698 3.239,6.250 3.576 C 6.154 3.648,5.961 3.816,5.820 3.950 L 5.565 4.193 5.292 4.232 C 4.385 4.362,3.732 4.772,3.234 5.525 C 3.012 5.861,3.011 5.862,2.788 5.993 C 1.971 6.472,1.456 7.335,1.408 8.307 C 1.377 8.911,1.594 9.587,1.980 10.092 C 2.337 10.559,2.944 10.966,3.512 11.119 C 3.735 11.179,4.679 11.198,7.550 11.199 L 10.165 11.200 10.418 11.129 C 11.011 10.962,11.401 10.741,11.783 10.352 C 12.006 10.125,12.136 9.946,12.270 9.683 C 12.465 9.301,12.547 9.022,12.578 8.638 C 12.634 7.949,12.449 7.296,12.035 6.718 L 11.907 6.541 11.892 6.205 C 11.850 5.275,11.521 4.511,10.884 3.867 C 10.595 3.576,10.324 3.374,9.986 3.199 C 9.476 2.934,9.123 2.847,8.505 2.833 C 8.155 2.825,8.052 2.831,7.887 2.867 " fill="#282D37" stroke="none" fill-rule="evenodd"></path></svg>