<svg width="12" height="12" viewBox="0 0 12 12" fill="none" xmlns="http://www.w3.org/2000/svg"><path d="M6.719 2.468 C 6.425 2.534,6.050 2.663,5.834 2.772 C 5.508 2.937,5.346 3.054,5.005 3.373 L 4.770 3.594 4.536 3.627 C 3.756 3.739,3.199 4.091,2.766 4.744 C 2.673 4.885,2.578 5.014,2.554 5.031 C 2.530 5.048,2.414 5.124,2.296 5.201 C 1.590 5.661,1.166 6.481,1.206 7.309 C 1.252 8.239,1.831 9.055,2.703 9.419 C 2.808 9.463,2.947 9.513,3.012 9.531 C 3.202 9.582,4.020 9.598,6.473 9.599 L 8.716 9.600 8.955 9.531 C 9.390 9.404,9.687 9.248,9.978 8.993 C 10.436 8.592,10.728 8.017,10.781 7.414 C 10.835 6.811,10.678 6.267,10.300 5.740 L 10.207 5.610 10.193 5.320 C 10.158 4.523,9.870 3.856,9.326 3.310 C 9.067 3.049,8.837 2.883,8.510 2.720 C 8.068 2.500,7.824 2.442,7.280 2.429 C 6.966 2.422,6.909 2.425,6.719 2.468 " fill="#282D37" stroke="none" fill-rule="evenodd"></path></svg>