<svg width="12" height="12" viewBox="0 0 12 12" fill="none" xmlns="http://www.w3.org/2000/svg"><path d="M6.719 2.468 C 6.425 2.534,6.050 2.663,5.834 2.772 C 5.508 2.937,5.346 3.054,5.005 3.373 L 4.770 3.594 4.536 3.627 C 3.756 3.739,3.199 4.091,2.766 4.744 C 2.673 4.885,2.578 5.014,2.554 5.031 C 2.530 5.048,2.415 5.123,2.299 5.199 C 1.646 5.624,1.247 6.323,1.207 7.110 C 1.181 7.623,1.356 8.194,1.667 8.613 C 1.981 9.035,2.507 9.395,3.010 9.530 C 3.202 9.582,4.011 9.598,6.473 9.599 L 8.716 9.600 8.955 9.531 C 9.390 9.404,9.687 9.248,9.978 8.993 C 10.436 8.592,10.728 8.017,10.781 7.414 C 10.835 6.811,10.678 6.267,10.300 5.740 L 10.207 5.610 10.193 5.320 C 10.158 4.523,9.870 3.856,9.326 3.310 C 9.067 3.049,8.837 2.883,8.510 2.720 C 8.068 2.500,7.824 2.442,7.280 2.429 C 6.966 2.422,6.909 2.425,6.719 2.468 M7.662 3.670 C 8.240 3.820,8.754 4.322,8.921 4.901 C 8.983 5.119,8.995 5.484,8.950 5.809 L 8.914 6.063 9.022 6.156 C 9.380 6.466,9.531 6.712,9.582 7.074 C 9.631 7.422,9.483 7.803,9.193 8.073 C 9.051 8.206,8.923 8.281,8.717 8.351 L 8.573 8.400 6.002 8.400 L 3.430 8.400 3.247 8.339 C 2.794 8.188,2.473 7.794,2.423 7.325 C 2.391 7.023,2.450 6.788,2.624 6.527 C 2.784 6.289,3.009 6.138,3.393 6.012 L 3.556 5.958 3.628 5.748 C 3.727 5.464,3.801 5.337,3.972 5.165 C 4.090 5.045,4.152 5.002,4.313 4.925 C 4.505 4.834,4.516 4.831,4.731 4.824 C 4.873 4.819,5.024 4.827,5.153 4.848 C 5.264 4.866,5.369 4.880,5.386 4.880 C 5.404 4.880,5.476 4.785,5.559 4.651 C 5.638 4.525,5.742 4.368,5.792 4.302 C 6.012 4.008,6.385 3.762,6.766 3.658 C 6.889 3.625,6.955 3.621,7.222 3.628 C 7.419 3.634,7.581 3.650,7.662 3.670 " fill="#1A1C1F" stroke="none" fill-rule="evenodd"></path></svg>