<svg width="28" height="28" viewBox="0 0 28 28" fill="none" xmlns="http://www.w3.org/2000/svg"><path d="M15.817 5.387 C 15.352 5.484,14.705 5.713,14.245 5.944 C 13.404 6.367,12.438 7.117,11.900 7.767 C 11.656 8.063,11.635 8.076,11.480 8.051 C 10.815 7.945,10.493 7.924,9.780 7.945 C 9.094 7.965,8.925 7.986,8.563 8.094 C 6.689 8.652,5.311 9.955,4.672 11.773 C 4.482 12.314,4.467 12.339,4.225 12.506 C 3.128 13.260,2.288 14.454,1.925 15.773 C 1.815 16.172,1.803 16.301,1.800 17.057 C 1.797 17.834,1.807 17.931,1.925 18.353 C 2.211 19.380,2.577 20.022,3.305 20.775 C 3.832 21.321,4.170 21.597,4.675 21.891 C 5.089 22.133,5.814 22.422,6.383 22.572 C 6.831 22.690,6.871 22.692,9.357 22.736 C 12.963 22.799,20.684 22.747,21.205 22.656 C 22.085 22.503,23.069 22.100,23.755 21.611 C 24.198 21.297,24.900 20.613,25.223 20.183 C 25.619 19.657,25.973 18.863,26.138 18.130 C 26.234 17.706,26.224 16.398,26.121 15.975 C 25.796 14.631,25.042 13.456,23.999 12.670 L 23.628 12.390 23.597 11.643 C 23.563 10.834,23.503 10.461,23.308 9.847 C 22.987 8.833,22.488 8.022,21.701 7.229 C 20.781 6.303,19.739 5.711,18.537 5.432 C 18.095 5.329,16.241 5.299,15.817 5.387 M18.200 7.163 C 19.008 7.352,19.797 7.799,20.420 8.421 C 21.006 9.005,21.378 9.616,21.647 10.436 C 21.778 10.835,21.784 10.893,21.812 12.017 C 21.845 13.367,21.815 13.277,22.357 13.664 C 23.411 14.419,23.769 14.799,24.124 15.541 C 24.383 16.081,24.472 16.571,24.440 17.267 C 24.400 18.131,24.139 18.778,23.565 19.437 C 23.015 20.067,22.395 20.482,21.593 20.757 L 21.121 20.919 19.789 20.957 C 19.056 20.978,15.926 20.996,12.833 20.998 L 7.210 21.000 6.790 20.878 C 5.267 20.438,4.162 19.477,3.719 18.209 C 3.534 17.680,3.490 16.873,3.616 16.302 C 3.824 15.356,4.402 14.549,5.367 13.858 C 6.018 13.391,6.052 13.347,6.237 12.715 C 6.635 11.359,7.343 10.494,8.473 9.982 C 8.970 9.757,9.326 9.692,10.080 9.692 C 10.676 9.692,10.813 9.708,11.223 9.821 C 11.943 10.020,12.052 10.041,12.214 10.011 C 12.427 9.971,12.614 9.797,12.988 9.288 C 13.469 8.634,13.785 8.289,14.158 8.010 C 14.758 7.561,15.368 7.280,16.100 7.116 C 16.512 7.024,17.718 7.051,18.200 7.163 " fill="#1A1C1F" stroke="none" fill-rule="evenodd"></path></svg>