<svg width="16" height="16" viewBox="0 0 16 16" fill="none" xmlns="http://www.w3.org/2000/svg"><path d="M9.187 3.242 C 9.157 3.250,8.995 3.287,8.827 3.324 C 7.956 3.520,7.345 3.857,6.626 4.539 L 6.360 4.792 6.048 4.836 C 5.008 4.985,4.265 5.454,3.688 6.326 C 3.564 6.514,3.437 6.685,3.405 6.708 C 3.373 6.730,3.218 6.833,3.060 6.935 C 2.344 7.401,1.861 8.113,1.663 8.991 C 1.601 9.265,1.601 9.885,1.662 10.194 C 1.845 11.117,2.421 11.918,3.227 12.370 C 3.488 12.517,3.793 12.647,4.017 12.708 C 4.269 12.776,5.365 12.798,8.631 12.799 L 11.622 12.800 11.946 12.706 C 12.598 12.516,13.022 12.275,13.433 11.862 C 13.795 11.497,13.995 11.197,14.171 10.754 C 14.324 10.370,14.375 10.088,14.375 9.631 C 14.375 8.874,14.229 8.397,13.808 7.768 L 13.608 7.469 13.592 7.115 C 13.554 6.267,13.312 5.533,12.860 4.897 C 12.656 4.609,12.203 4.160,11.907 3.951 C 11.458 3.634,10.825 3.363,10.338 3.279 C 10.162 3.248,9.276 3.220,9.187 3.242 " fill="#282D37" stroke="none" fill-rule="evenodd"></path></svg>