<svg width="28" height="28" viewBox="0 0 28 28" fill="none" xmlns="http://www.w3.org/2000/svg"><path d="M15.817 5.387 C 15.351 5.484,14.704 5.713,14.245 5.944 C 13.404 6.367,12.438 7.117,11.900 7.767 C 11.656 8.063,11.635 8.076,11.480 8.051 C 10.815 7.945,10.493 7.924,9.780 7.945 C 9.094 7.965,8.925 7.986,8.563 8.094 C 6.689 8.652,5.311 9.955,4.672 11.773 C 4.478 12.325,4.477 12.328,4.143 12.566 C 3.760 12.839,3.166 13.428,2.859 13.837 C 2.439 14.398,2.127 15.039,1.929 15.750 C 1.769 16.324,1.727 17.381,1.840 17.979 C 1.922 18.419,2.136 19.070,2.312 19.417 C 2.797 20.375,3.801 21.409,4.766 21.944 C 5.115 22.137,5.816 22.422,6.249 22.545 C 6.919 22.737,7.294 22.747,14.187 22.747 C 21.545 22.747,21.049 22.768,22.102 22.423 C 23.929 21.824,25.418 20.403,25.967 18.734 C 26.174 18.105,26.240 17.604,26.213 16.870 C 26.153 15.249,25.503 13.986,24.075 12.720 L 23.673 12.363 23.640 11.840 C 23.520 9.934,22.947 8.523,21.807 7.324 C 20.956 6.430,19.933 5.821,18.707 5.479 C 18.306 5.367,18.181 5.356,17.197 5.340 C 16.411 5.328,16.041 5.340,15.817 5.387 " fill="#282D37" stroke="none" fill-rule="evenodd"></path></svg>