<svg width="16" height="16" viewBox="0 0 16 16" fill="none" xmlns="http://www.w3.org/2000/svg"><path d="M9.187 3.242 C 9.157 3.250,8.995 3.287,8.827 3.324 C 7.956 3.520,7.345 3.857,6.626 4.539 L 6.360 4.792 6.048 4.836 C 5.008 4.985,4.265 5.454,3.688 6.326 C 3.564 6.514,3.437 6.685,3.405 6.708 C 3.373 6.730,3.218 6.833,3.060 6.935 C 2.344 7.401,1.861 8.113,1.663 8.991 C 1.601 9.265,1.601 9.885,1.662 10.194 C 1.845 11.117,2.421 11.918,3.227 12.370 C 3.488 12.517,3.793 12.647,4.017 12.708 C 4.269 12.776,5.365 12.798,8.631 12.799 L 11.622 12.800 11.946 12.706 C 12.598 12.516,13.022 12.275,13.433 11.862 C 13.795 11.497,13.995 11.197,14.171 10.754 C 14.324 10.370,14.375 10.088,14.375 9.631 C 14.375 8.874,14.229 8.397,13.808 7.768 L 13.608 7.469 13.592 7.115 C 13.554 6.267,13.312 5.533,12.860 4.897 C 12.656 4.609,12.203 4.160,11.907 3.951 C 11.458 3.634,10.825 3.363,10.338 3.279 C 10.162 3.248,9.276 3.220,9.187 3.242 M10.262 4.906 C 11.033 5.123,11.692 5.791,11.906 6.573 C 11.973 6.816,11.988 7.394,11.936 7.731 C 11.912 7.884,11.893 8.028,11.893 8.051 C 11.893 8.074,11.968 8.158,12.060 8.237 C 12.273 8.421,12.523 8.703,12.593 8.839 C 12.938 9.513,12.810 10.250,12.258 10.765 C 12.068 10.942,11.897 11.041,11.622 11.135 L 11.431 11.200 7.981 11.200 L 4.532 11.200 4.322 11.119 C 3.786 10.913,3.401 10.496,3.267 9.977 C 3.183 9.650,3.224 9.202,3.363 8.926 C 3.593 8.470,3.917 8.217,4.525 8.016 L 4.743 7.943 4.815 7.725 C 4.945 7.332,5.061 7.126,5.282 6.901 C 5.453 6.726,5.526 6.674,5.749 6.568 C 6.007 6.445,6.020 6.441,6.311 6.431 C 6.503 6.425,6.704 6.436,6.879 6.464 C 7.027 6.487,7.166 6.507,7.186 6.507 C 7.207 6.507,7.292 6.396,7.376 6.260 C 7.610 5.880,7.733 5.705,7.865 5.563 C 8.201 5.204,8.733 4.917,9.186 4.853 C 9.454 4.814,10.039 4.844,10.262 4.906 " fill="#1A1C1F" stroke="none" fill-rule="evenodd"></path></svg>