<svg width="24" height="24" viewBox="0 0 24 24" fill="none" xmlns="http://www.w3.org/2000/svg"><path d="M13.740 5.023 C 13.197 5.098,12.970 5.139,12.640 5.222 C 11.893 5.409,11.315 5.642,10.746 5.984 L 10.393 6.197 10.127 6.136 C 9.916 6.086,9.663 6.077,8.881 6.089 L 7.900 6.104 7.483 6.255 C 6.318 6.677,5.472 7.312,4.862 8.220 C 4.488 8.779,4.240 9.407,4.063 10.253 L 3.964 10.727 3.510 11.173 C 2.981 11.695,2.701 12.056,2.482 12.500 C 2.136 13.202,2.042 13.640,2.041 14.540 C 2.040 15.149,2.051 15.260,2.144 15.597 C 2.287 16.120,2.505 16.607,2.761 16.977 C 2.998 17.320,3.539 17.885,3.882 18.146 C 4.302 18.467,5.143 18.830,5.687 18.924 C 6.022 18.983,14.121 19.016,16.340 18.968 L 17.980 18.932 18.380 18.803 C 19.288 18.508,19.978 18.070,20.645 17.366 C 21.248 16.727,21.626 16.035,21.858 15.143 C 21.950 14.791,21.960 14.676,21.959 14.006 C 21.959 13.216,21.935 13.050,21.738 12.460 C 21.466 11.646,21.054 11.001,20.392 10.355 L 19.915 9.889 19.778 9.428 C 19.703 9.174,19.570 8.804,19.484 8.604 C 18.589 6.541,16.519 5.128,14.240 5.024 C 14.031 5.015,13.806 5.014,13.740 5.023 M14.440 7.059 C 14.991 7.134,15.263 7.209,15.664 7.398 C 16.509 7.793,17.110 8.372,17.538 9.201 C 17.674 9.464,17.770 9.739,17.901 10.244 C 17.999 10.621,18.115 10.988,18.160 11.060 C 18.204 11.132,18.435 11.345,18.672 11.534 C 19.200 11.954,19.423 12.220,19.684 12.740 C 19.866 13.105,19.888 13.177,19.926 13.560 C 20.024 14.522,19.877 15.104,19.361 15.807 C 18.978 16.328,18.202 16.832,17.640 16.924 C 17.279 16.983,6.818 17.022,6.222 16.966 C 5.830 16.929,5.748 16.907,5.442 16.756 C 4.959 16.516,4.514 16.070,4.288 15.598 C 4.094 15.191,4.040 14.948,4.041 14.488 C 4.041 14.052,4.122 13.704,4.301 13.363 C 4.497 12.991,4.747 12.721,5.194 12.403 C 5.653 12.075,5.896 11.831,5.952 11.640 C 5.974 11.563,6.003 11.293,6.015 11.040 C 6.059 10.119,6.307 9.529,6.898 8.936 C 7.286 8.547,7.581 8.351,8.047 8.175 C 8.317 8.073,8.386 8.064,8.920 8.063 C 9.441 8.062,9.553 8.075,10.025 8.191 C 10.825 8.388,10.797 8.393,11.483 7.913 C 12.186 7.421,12.742 7.170,13.320 7.085 C 13.485 7.060,13.665 7.034,13.720 7.026 C 13.914 6.997,14.024 7.002,14.440 7.059 " fill="#1A1C1F" stroke="none" fill-rule="evenodd"></path></svg>