<svg width="28" height="28" viewBox="0 0 28 28" fill="none" xmlns="http://www.w3.org/2000/svg"><path d="M12.997 1.803 C 11.833 1.936,11.042 2.101,10.163 2.395 C 5.663 3.900,2.460 7.799,1.845 12.521 C 1.762 13.159,1.750 14.509,1.822 15.220 C 2.013 17.115,2.733 19.135,3.775 20.701 C 5.729 23.636,8.604 25.494,12.110 26.090 C 12.835 26.213,14.094 26.254,15.024 26.185 C 17.373 26.012,19.699 25.087,21.607 23.566 C 22.191 23.101,23.096 22.204,23.537 21.653 C 24.875 19.982,25.792 17.888,26.111 15.773 C 26.284 14.628,26.242 12.800,26.018 11.691 C 25.510 9.186,24.414 7.140,22.613 5.341 C 20.814 3.543,18.374 2.293,15.966 1.936 C 15.301 1.837,13.432 1.754,12.997 1.803 M14.126 4.072 C 15.244 5.465,15.943 6.548,16.698 8.052 C 17.260 9.173,17.738 10.436,17.973 11.424 C 18.047 11.738,18.293 13.024,18.293 13.099 C 18.293 13.107,16.306 13.113,13.877 13.113 L 9.461 13.113 9.493 12.775 C 9.606 11.578,9.877 10.406,10.406 8.830 C 10.715 7.911,10.736 7.825,10.685 7.671 C 10.619 7.473,10.396 7.208,10.215 7.114 C 10.027 7.017,9.644 7.029,9.428 7.140 C 9.184 7.264,9.050 7.455,8.854 7.957 C 8.285 9.414,7.885 11.119,7.718 12.798 L 7.687 13.113 5.618 13.113 L 3.549 13.113 3.571 12.985 C 3.582 12.914,3.634 12.603,3.686 12.292 C 3.867 11.194,4.160 10.295,4.666 9.288 C 6.174 6.282,9.092 4.168,12.421 3.668 C 13.079 3.569,13.145 3.562,13.444 3.554 L 13.705 3.547 14.126 4.072 M16.596 3.851 C 17.306 4.053,17.919 4.289,18.601 4.623 C 21.689 6.132,23.835 9.044,24.336 12.405 C 24.377 12.679,24.421 12.951,24.433 13.008 L 24.455 13.113 22.266 13.113 L 20.077 13.113 20.045 12.845 C 19.998 12.454,19.799 11.435,19.664 10.897 C 19.288 9.398,18.601 7.740,17.720 6.207 C 17.433 5.706,16.512 4.290,16.242 3.932 C 16.159 3.823,16.112 3.733,16.137 3.733 C 16.162 3.733,16.369 3.786,16.596 3.851 M6.876 14.917 L 7.793 14.948 7.793 15.119 C 7.793 15.330,7.947 16.197,8.096 16.823 C 8.614 19.003,9.697 21.346,11.191 23.520 C 11.706 24.269,11.706 24.269,10.879 23.992 C 9.066 23.386,7.734 22.553,6.463 21.229 C 4.983 19.687,4.020 17.782,3.689 15.741 C 3.636 15.412,3.583 15.086,3.571 15.015 L 3.549 14.887 4.754 14.887 C 5.416 14.887,6.371 14.900,6.876 14.917 M18.340 15.002 C 18.340 15.221,18.156 16.546,18.064 16.987 C 17.935 17.608,17.780 18.121,17.424 19.102 C 17.066 20.089,17.042 20.277,17.233 20.560 C 17.528 20.996,18.114 21.111,18.499 20.808 C 18.681 20.665,18.961 20.074,19.251 19.220 C 19.650 18.045,19.868 17.106,20.010 15.952 L 20.135 14.941 20.270 14.914 C 20.344 14.899,21.317 14.887,22.432 14.887 C 24.341 14.887,24.458 14.891,24.436 14.968 C 24.424 15.013,24.378 15.281,24.336 15.563 C 24.233 16.243,23.988 17.191,23.774 17.736 C 22.477 21.042,19.736 23.413,16.263 24.235 C 15.705 24.368,14.783 24.500,14.421 24.500 C 14.204 24.500,14.184 24.489,13.953 24.232 C 13.577 23.812,12.784 22.752,12.352 22.091 C 11.376 20.597,10.510 18.822,10.079 17.430 C 9.911 16.886,9.569 15.394,9.554 15.135 L 9.543 14.957 10.477 14.932 C 10.990 14.918,12.969 14.902,14.875 14.897 L 18.340 14.887 18.340 15.002 " fill="#1A1C1F" stroke="none" fill-rule="evenodd"></path></svg>