<svg width="32" height="32" viewBox="0 0 32 32" fill="none" xmlns="http://www.w3.org/2000/svg"><path d="M14.773 2.065 C 14.301 2.103,13.202 2.298,12.591 2.452 C 10.214 3.052,8.054 4.259,6.246 5.998 C 4.108 8.054,2.623 10.942,2.159 13.947 C 2.041 14.712,1.995 16.635,2.077 17.390 C 2.371 20.101,3.416 22.643,5.100 24.747 C 5.566 25.329,6.671 26.434,7.253 26.900 C 9.235 28.486,11.556 29.486,14.160 29.875 C 14.886 29.983,17.240 29.966,18.027 29.846 C 18.798 29.728,20.085 29.402,20.777 29.148 C 21.535 28.870,22.920 28.177,23.573 27.747 C 24.747 26.976,26.069 25.783,26.899 24.747 C 28.432 22.834,29.477 20.447,29.842 18.027 C 29.959 17.248,29.998 15.805,29.927 14.847 C 29.764 12.630,28.987 10.318,27.792 8.496 C 25.786 5.437,22.847 3.320,19.397 2.449 C 18.507 2.225,17.904 2.145,16.613 2.082 C 15.516 2.028,15.258 2.026,14.773 2.065 M16.201 4.723 C 18.312 7.368,19.866 10.335,20.529 12.989 C 20.610 13.311,20.907 14.871,20.907 14.972 C 20.907 14.980,18.639 14.987,15.867 14.987 L 10.827 14.987 10.827 14.853 C 10.827 14.635,11.038 13.193,11.150 12.649 C 11.285 11.996,11.627 10.829,11.950 9.920 C 12.287 8.974,12.290 8.959,12.188 8.714 C 12.007 8.281,11.668 8.046,11.227 8.046 C 10.569 8.046,10.359 8.331,9.813 9.965 C 9.299 11.507,8.984 12.984,8.821 14.627 L 8.785 14.987 6.421 14.987 L 4.056 14.987 4.081 14.840 C 4.094 14.759,4.153 14.403,4.212 14.048 C 4.420 12.793,4.755 11.766,5.333 10.615 C 7.056 7.180,10.391 4.763,14.196 4.192 C 14.948 4.079,15.023 4.070,15.367 4.061 L 15.667 4.053 16.201 4.723 M18.967 4.401 C 19.778 4.632,20.479 4.902,21.258 5.283 C 24.788 7.008,27.240 10.336,27.813 14.177 C 27.859 14.490,27.909 14.801,27.923 14.867 L 27.949 14.987 25.453 14.987 L 22.958 14.987 22.839 14.253 C 22.347 11.225,21.292 8.613,19.384 5.707 C 19.085 5.252,18.740 4.742,18.618 4.573 C 18.495 4.405,18.417 4.267,18.444 4.267 C 18.472 4.267,18.707 4.327,18.967 4.401 M7.901 17.048 L 8.896 17.083 8.934 17.487 C 9.028 18.500,9.499 20.320,10.011 21.651 C 10.739 23.546,11.556 25.080,12.811 26.907 C 13.378 27.733,13.377 27.735,12.433 27.420 C 10.361 26.727,8.839 25.774,7.387 24.261 C 5.693 22.497,4.595 20.325,4.216 17.990 C 4.155 17.614,4.094 17.241,4.081 17.160 L 4.056 17.013 5.481 17.013 C 6.265 17.014,7.354 17.029,7.901 17.048 M20.960 17.145 C 20.960 17.395,20.750 18.909,20.645 19.413 C 20.497 20.123,20.320 20.710,19.914 21.831 C 19.504 22.959,19.476 23.174,19.695 23.497 C 20.032 23.996,20.702 24.127,21.142 23.781 C 21.348 23.619,21.651 22.979,21.991 21.991 C 22.449 20.656,22.705 19.562,22.869 18.231 L 23.012 17.075 23.166 17.044 C 23.251 17.027,24.363 17.013,25.637 17.013 C 27.818 17.013,27.952 17.019,27.927 17.107 C 27.912 17.158,27.872 17.392,27.839 17.627 C 27.293 21.462,24.994 24.760,21.600 26.577 C 20.240 27.305,18.242 27.885,16.756 27.984 L 16.260 28.017 15.973 27.714 C 15.816 27.548,15.435 27.079,15.126 26.673 C 13.343 24.323,11.985 21.675,11.328 19.265 C 11.143 18.585,10.876 17.157,10.925 17.108 C 10.973 17.059,12.333 17.041,17.160 17.026 L 20.960 17.013 20.960 17.145 " fill="#1A1C1F" stroke="none" fill-rule="evenodd"></path></svg>