<svg width="24" height="24" viewBox="0 0 24 24" fill="none" xmlns="http://www.w3.org/2000/svg"><path d="M11.006 2.065 C 9.343 2.266,7.803 2.816,6.486 3.680 C 5.027 4.637,3.837 5.988,3.058 7.572 C 2.579 8.546,2.224 9.669,2.094 10.620 C 2.014 11.204,2.004 12.674,2.076 13.260 C 2.174 14.060,2.524 15.282,2.887 16.091 C 4.096 18.785,6.425 20.787,9.319 21.620 C 10.396 21.930,10.472 21.939,11.980 21.939 C 13.240 21.940,13.371 21.933,13.768 21.850 C 15.047 21.579,16.343 21.079,17.260 20.501 C 19.545 19.060,21.140 16.811,21.755 14.160 C 22.344 11.623,21.818 8.761,20.361 6.571 C 19.935 5.932,19.585 5.503,19.061 4.979 C 17.748 3.666,16.206 2.783,14.416 2.319 C 13.853 2.174,13.251 2.093,12.346 2.041 C 11.526 1.994,11.600 1.993,11.006 2.065 M14.140 4.304 C 15.126 4.586,16.106 5.089,16.940 5.740 C 17.301 6.023,18.010 6.739,18.286 7.100 C 18.733 7.686,19.166 8.450,19.432 9.120 C 19.613 9.579,19.920 10.723,19.920 10.943 C 19.920 10.992,19.650 11.000,18.068 11.000 L 16.216 11.000 16.122 10.610 C 16.071 10.396,15.922 9.878,15.791 9.460 C 15.165 7.458,14.602 6.175,13.738 4.783 C 13.534 4.453,13.373 4.171,13.382 4.156 C 13.404 4.121,13.705 4.179,14.140 4.304 M10.703 4.362 C 10.944 4.478,11.365 4.877,11.689 5.297 C 12.569 6.436,13.491 8.486,14.014 10.472 L 14.155 11.003 11.943 10.992 C 10.246 10.983,9.718 10.968,9.672 10.930 C 9.639 10.902,9.590 10.749,9.563 10.590 C 9.459 9.979,9.404 7.148,9.481 6.460 C 9.577 5.614,9.862 4.744,10.138 4.456 C 10.332 4.253,10.441 4.235,10.703 4.362 M7.629 5.510 C 7.617 5.593,7.574 5.831,7.533 6.040 C 7.469 6.372,7.460 6.635,7.460 8.120 C 7.460 9.696,7.482 10.170,7.587 10.850 L 7.610 11.000 5.845 11.000 C 4.257 11.000,4.080 10.994,4.080 10.936 C 4.080 10.760,4.265 9.999,4.423 9.520 C 4.872 8.169,5.625 7.025,6.690 6.078 C 7.145 5.673,7.546 5.360,7.609 5.360 C 7.634 5.360,7.642 5.419,7.629 5.510 M8.041 13.170 C 8.311 14.219,8.725 15.513,9.064 16.369 C 9.532 17.552,9.945 18.364,10.570 19.333 C 10.767 19.637,10.918 19.895,10.906 19.907 C 10.873 19.941,10.272 19.808,9.780 19.659 C 7.342 18.920,5.437 17.168,4.536 14.834 C 4.376 14.421,4.129 13.492,4.112 13.240 L 4.100 13.060 4.420 13.037 C 4.596 13.025,5.473 13.011,6.368 13.007 L 7.997 13.000 8.041 13.170 M14.596 13.310 C 14.703 14.043,14.719 14.384,14.720 15.894 C 14.720 17.655,14.698 17.874,14.436 18.658 C 14.148 19.519,13.879 19.774,13.476 19.568 C 12.678 19.161,11.534 17.390,10.807 15.435 C 10.591 14.853,10.133 13.364,10.113 13.176 L 10.100 13.060 10.520 13.038 C 10.751 13.026,11.752 13.012,12.745 13.008 L 14.551 13.000 14.596 13.310 M19.740 13.034 C 19.893 13.062,19.900 13.069,19.889 13.202 C 19.873 13.391,19.696 14.104,19.557 14.540 C 19.425 14.953,18.885 16.075,18.627 16.471 C 18.307 16.964,17.112 18.179,16.675 18.455 L 16.548 18.536 16.571 18.358 C 16.583 18.260,16.622 17.989,16.656 17.755 C 16.745 17.152,16.810 15.902,16.781 15.360 C 16.725 14.314,16.637 13.355,16.573 13.090 L 16.551 13.000 18.066 13.002 C 18.899 13.004,19.652 13.018,19.740 13.034 " fill="#1A1C1F" stroke="none" fill-rule="evenodd"></path></svg>