<svg width="14" height="14" viewBox="0 0 14 14" fill="none" xmlns="http://www.w3.org/2000/svg"><path d="M6.252 1.456 C 5.236 1.612,4.297 2.016,3.512 2.636 C 3.243 2.848,2.747 3.356,2.542 3.629 C 1.958 4.406,1.607 5.253,1.454 6.253 C 1.397 6.630,1.398 7.399,1.456 7.782 C 1.637 8.964,2.138 9.990,2.952 10.846 C 4.113 12.064,5.699 12.686,7.374 12.580 C 8.699 12.496,9.963 11.921,10.922 10.967 C 11.598 10.293,12.019 9.622,12.304 8.762 C 12.776 7.335,12.674 5.881,12.004 4.515 C 11.222 2.917,9.620 1.744,7.861 1.480 C 7.527 1.430,6.520 1.415,6.252 1.456 M6.320 3.002 C 6.463 3.086,6.788 3.402,6.934 3.599 C 7.318 4.117,7.860 5.237,8.083 5.975 C 8.163 6.238,8.162 6.267,8.070 6.285 C 8.030 6.293,7.444 6.300,6.767 6.300 L 5.536 6.300 5.521 6.224 C 5.459 5.919,5.452 4.668,5.509 4.142 C 5.555 3.713,5.685 3.257,5.814 3.068 C 5.925 2.903,6.111 2.879,6.320 3.002 M8.217 2.984 C 8.915 3.184,9.705 3.701,10.185 4.273 C 10.614 4.785,10.899 5.333,11.074 5.985 C 11.105 6.101,11.130 6.219,11.130 6.248 L 11.130 6.300 10.417 6.300 C 9.992 6.300,9.686 6.291,9.661 6.277 C 9.634 6.263,9.611 6.215,9.601 6.154 C 9.548 5.839,9.317 5.165,9.100 4.690 C 8.825 4.089,8.512 3.579,8.043 2.969 C 8.014 2.930,8.034 2.932,8.217 2.984 M4.098 4.054 C 4.008 4.501,4.008 5.789,4.098 6.236 L 4.110 6.300 3.488 6.300 L 2.865 6.300 2.881 6.191 C 2.923 5.909,3.145 5.309,3.332 4.970 C 3.508 4.650,3.729 4.347,3.964 4.101 C 4.085 3.974,4.116 3.963,4.098 4.054 M4.455 7.939 C 4.813 9.085,5.332 10.131,5.911 10.873 C 6.099 11.114,6.088 11.121,5.726 11.001 C 4.910 10.729,4.234 10.259,3.706 9.595 C 3.322 9.113,3.027 8.487,2.886 7.857 L 2.851 7.700 3.616 7.700 L 4.380 7.700 4.455 7.939 M8.502 7.774 C 8.574 8.133,8.575 9.294,8.504 9.890 C 8.441 10.424,8.296 10.859,8.128 11.016 C 8.006 11.131,7.774 11.064,7.515 10.840 C 7.047 10.435,6.568 9.662,6.187 8.699 C 5.995 8.215,5.848 7.769,5.872 7.745 C 5.900 7.718,6.173 7.710,7.411 7.705 L 8.488 7.700 8.502 7.774 M11.116 7.846 C 10.939 8.608,10.656 9.158,10.089 9.839 C 9.989 9.959,9.901 10.057,9.892 10.057 C 9.884 10.057,9.891 9.960,9.908 9.841 C 9.973 9.381,9.995 8.796,9.967 8.323 C 9.952 8.077,9.933 7.836,9.925 7.788 L 9.911 7.700 10.530 7.700 L 11.149 7.700 11.116 7.846 " fill="#1A1C1F" stroke="none" fill-rule="evenodd"></path></svg>