<svg width="12" height="12" viewBox="0 0 12 12" fill="none" xmlns="http://www.w3.org/2000/svg"><path d="M5.359 1.249 C 4.300 1.403,3.365 1.873,2.610 2.629 C 2.072 3.168,1.714 3.736,1.475 4.430 C 1.283 4.988,1.212 5.414,1.212 6.010 C 1.212 6.585,1.276 6.986,1.454 7.519 C 1.925 8.933,3.072 10.078,4.480 10.541 C 4.970 10.702,5.311 10.767,5.780 10.790 C 6.736 10.836,7.683 10.586,8.522 10.068 C 10.343 8.941,11.201 6.729,10.607 4.690 C 10.490 4.286,10.263 3.782,10.047 3.440 C 9.670 2.845,9.122 2.304,8.524 1.934 C 7.904 1.550,7.184 1.304,6.500 1.241 C 6.198 1.214,5.574 1.218,5.359 1.249 M5.373 2.548 C 5.493 2.604,5.738 2.829,5.901 3.034 C 6.218 3.430,6.643 4.280,6.890 5.007 C 7.000 5.331,7.003 5.370,6.918 5.388 C 6.883 5.394,6.380 5.400,5.799 5.400 L 4.743 5.400 4.726 5.285 C 4.717 5.222,4.710 4.801,4.710 4.350 C 4.710 3.577,4.713 3.517,4.756 3.305 C 4.837 2.904,4.922 2.680,5.033 2.577 C 5.133 2.485,5.221 2.478,5.373 2.548 M7.043 2.558 C 7.331 2.640,7.778 2.860,8.070 3.062 C 8.734 3.522,9.226 4.217,9.463 5.030 C 9.495 5.140,9.527 5.268,9.534 5.315 L 9.545 5.400 8.927 5.400 C 8.462 5.400,8.300 5.394,8.276 5.375 C 8.259 5.361,8.229 5.278,8.210 5.190 C 8.159 4.948,7.979 4.426,7.833 4.095 C 7.620 3.613,7.361 3.165,7.078 2.788 C 6.931 2.593,6.883 2.520,6.903 2.520 C 6.907 2.520,6.970 2.537,7.043 2.558 M3.511 3.465 C 3.439 3.783,3.440 4.980,3.512 5.345 L 3.523 5.400 2.992 5.400 C 2.374 5.400,2.432 5.433,2.511 5.127 C 2.664 4.536,2.992 3.939,3.398 3.515 C 3.498 3.410,3.526 3.398,3.511 3.465 M3.808 6.775 C 4.094 7.713,4.528 8.604,5.014 9.247 C 5.154 9.433,5.189 9.491,5.163 9.496 C 5.074 9.511,4.531 9.297,4.214 9.121 C 3.759 8.869,3.306 8.441,2.983 7.957 C 2.774 7.644,2.569 7.149,2.472 6.725 L 2.444 6.600 3.099 6.600 L 3.755 6.600 3.808 6.775 M7.287 6.655 C 7.325 6.832,7.345 7.582,7.324 8.014 C 7.292 8.645,7.218 9.024,7.073 9.289 C 6.993 9.435,6.924 9.490,6.823 9.487 C 6.677 9.483,6.565 9.412,6.319 9.164 C 6.037 8.882,5.853 8.613,5.600 8.112 C 5.351 7.621,4.990 6.682,5.033 6.639 C 5.057 6.615,5.291 6.609,6.353 6.604 L 7.275 6.600 7.287 6.655 M9.548 6.635 C 9.497 6.866,9.428 7.110,9.380 7.231 C 9.198 7.688,8.919 8.126,8.519 8.580 L 8.458 8.650 8.469 8.590 C 8.544 8.166,8.573 7.599,8.543 7.123 C 8.530 6.918,8.514 6.716,8.507 6.675 L 8.495 6.600 9.026 6.600 C 9.521 6.600,9.556 6.602,9.548 6.635 " fill="#1A1C1F" stroke="none" fill-rule="evenodd"></path></svg>