<svg width="12" height="12" viewBox="0 0 12 12" fill="none" xmlns="http://www.w3.org/2000/svg"><path d="M8.118 2.881 C 7.689 2.927,7.119 3.042,6.775 3.153 C 6.155 3.352,5.412 3.744,4.938 4.122 C 4.572 4.413,4.069 4.986,3.865 5.344 C 3.680 5.668,3.686 5.917,3.884 6.132 C 3.996 6.254,4.100 6.304,4.265 6.316 C 4.387 6.324,4.413 6.319,4.529 6.262 C 4.668 6.194,4.763 6.097,5.001 5.781 C 5.427 5.215,5.789 4.900,6.350 4.607 C 7.050 4.241,8.020 4.040,9.086 4.040 C 9.322 4.040,9.363 4.045,9.374 4.073 C 9.403 4.149,9.078 4.987,8.800 5.550 C 8.466 6.227,8.203 6.604,7.753 7.050 C 7.116 7.681,6.600 7.936,5.880 7.973 L 5.630 7.986 5.670 7.940 C 5.692 7.915,5.845 7.789,6.010 7.660 C 6.574 7.218,7.059 6.777,7.308 6.479 C 7.514 6.235,7.527 6.205,7.528 6.000 C 7.529 5.805,7.492 5.712,7.364 5.584 C 7.241 5.461,7.157 5.430,6.948 5.430 C 6.773 5.430,6.763 5.432,6.658 5.502 C 6.599 5.542,6.410 5.707,6.240 5.869 C 5.268 6.793,4.574 7.247,3.710 7.526 C 3.350 7.642,3.226 7.660,2.800 7.660 C 2.436 7.660,2.406 7.657,2.174 7.597 C 1.875 7.520,1.670 7.511,1.551 7.570 C 1.362 7.663,1.240 7.857,1.225 8.092 C 1.210 8.314,1.286 8.493,1.436 8.587 C 1.651 8.723,2.179 8.850,2.701 8.891 C 3.001 8.915,3.489 8.853,3.911 8.738 L 4.131 8.678 4.381 8.807 C 5.119 9.191,5.854 9.268,6.700 9.050 C 7.873 8.749,8.860 7.891,9.670 6.472 C 10.051 5.802,10.549 4.547,10.729 3.800 C 10.785 3.569,10.791 3.471,10.758 3.350 C 10.704 3.159,10.507 2.981,10.285 2.926 C 10.202 2.905,9.948 2.893,9.370 2.880 C 8.440 2.860,8.322 2.860,8.118 2.881 " fill="#1A1C1F" stroke="none" fill-rule="evenodd"></path></svg>