<svg width="24" height="24" viewBox="0 0 24 24" fill="none" xmlns="http://www.w3.org/2000/svg"><path d="M17.091 5.841 C 14.852 5.966,12.593 6.634,10.905 7.670 C 10.285 8.050,9.802 8.434,9.258 8.978 C 8.459 9.776,7.968 10.485,7.373 11.699 C 7.064 12.328,6.920 12.722,6.920 12.934 C 6.921 13.003,6.963 13.151,7.015 13.262 C 7.246 13.758,7.847 13.977,8.365 13.754 C 8.619 13.645,8.688 13.544,9.174 12.560 C 9.646 11.603,9.937 11.189,10.620 10.497 C 11.369 9.739,12.064 9.253,13.000 8.835 C 14.616 8.114,16.350 7.802,18.753 7.800 C 19.204 7.800,19.205 7.800,19.178 7.890 C 19.092 8.175,18.621 9.456,18.439 9.900 C 18.119 10.682,17.340 12.200,16.993 12.720 C 15.729 14.612,14.274 15.722,12.620 16.060 C 12.193 16.147,10.991 16.188,11.087 16.113 C 11.123 16.084,11.439 15.858,11.788 15.612 C 12.137 15.365,12.602 15.014,12.822 14.832 C 13.813 14.010,15.534 12.188,16.079 11.385 C 16.311 11.042,16.273 10.633,15.975 10.285 C 15.747 10.018,15.509 9.900,15.200 9.900 C 14.972 9.900,14.917 9.916,14.752 10.031 C 14.649 10.102,14.326 10.426,14.036 10.750 C 13.223 11.657,11.797 13.062,11.240 13.503 C 10.105 14.404,9.009 15.011,7.893 15.358 C 7.231 15.564,6.938 15.603,6.059 15.605 C 5.187 15.607,4.994 15.583,4.240 15.377 C 3.237 15.102,2.754 15.234,2.575 15.829 C 2.504 16.066,2.505 16.256,2.581 16.510 C 2.703 16.922,3.144 17.181,4.128 17.420 C 4.833 17.591,5.104 17.619,6.000 17.617 C 6.891 17.614,7.314 17.564,8.138 17.364 L 8.456 17.287 8.758 17.461 C 10.226 18.308,12.362 18.421,14.112 17.745 C 15.726 17.122,17.015 16.067,18.330 14.292 C 19.081 13.279,19.784 11.944,20.456 10.252 C 20.944 9.025,21.482 7.309,21.487 6.967 C 21.494 6.460,21.144 6.082,20.560 5.966 C 19.992 5.852,18.105 5.785,17.091 5.841 " fill="#1A1C1F" stroke="none" fill-rule="evenodd"></path></svg>