<svg width="20" height="20" viewBox="0 0 20 20" fill="none" xmlns="http://www.w3.org/2000/svg"><path d="M13.667 4.786 C 12.024 4.984,10.987 5.275,9.817 5.868 C 8.898 6.333,8.279 6.778,7.598 7.462 C 6.666 8.400,6.148 9.235,6.216 9.692 C 6.291 10.192,6.750 10.568,7.232 10.525 C 7.602 10.491,7.809 10.325,8.323 9.650 C 8.928 8.855,9.301 8.488,9.933 8.062 C 11.192 7.215,12.734 6.802,14.857 6.744 C 15.549 6.724,15.600 6.727,15.621 6.783 C 15.672 6.915,15.140 8.290,14.666 9.250 C 14.110 10.379,13.671 11.007,12.921 11.750 C 12.191 12.474,11.630 12.849,10.928 13.082 C 10.521 13.217,10.040 13.300,9.653 13.300 L 9.390 13.300 9.453 13.229 C 9.488 13.190,9.719 13.000,9.967 12.807 C 11.047 11.962,12.068 11.003,12.390 10.529 C 12.577 10.254,12.614 9.989,12.507 9.693 C 12.407 9.418,12.263 9.252,12.020 9.133 C 11.818 9.033,11.781 9.026,11.556 9.040 C 11.208 9.063,11.065 9.154,10.428 9.757 C 8.802 11.297,7.731 12.011,6.315 12.499 C 5.672 12.721,5.390 12.767,4.665 12.767 C 4.060 12.767,4.010 12.762,3.623 12.662 C 3.066 12.517,2.782 12.514,2.539 12.648 C 1.990 12.952,1.855 13.753,2.277 14.195 C 2.543 14.473,3.316 14.702,4.326 14.802 C 4.960 14.865,5.801 14.771,6.585 14.549 L 6.886 14.463 7.301 14.679 C 7.530 14.797,7.845 14.939,8.002 14.994 C 9.865 15.645,12.033 15.171,13.743 13.738 C 14.067 13.467,14.701 12.819,14.986 12.467 C 15.793 11.471,16.511 10.192,17.090 8.717 C 17.507 7.653,17.970 6.161,17.974 5.867 C 17.978 5.612,17.850 5.352,17.616 5.138 C 17.409 4.949,17.235 4.880,16.846 4.832 C 16.582 4.799,13.884 4.760,13.667 4.786 " fill="#1A1C1F" stroke="none" fill-rule="evenodd"></path></svg>