<svg width="16" height="16" viewBox="0 0 16 16" fill="none" xmlns="http://www.w3.org/2000/svg"><path d="M10.933 3.831 C 9.196 4.003,7.647 4.611,6.506 5.567 C 5.995 5.996,5.420 6.658,5.153 7.126 C 4.906 7.558,4.914 7.889,5.178 8.175 C 5.350 8.362,5.465 8.412,5.720 8.413 C 6.086 8.414,6.194 8.328,6.768 7.579 C 7.065 7.193,7.376 6.871,7.667 6.650 C 8.752 5.826,10.034 5.444,11.886 5.395 C 12.436 5.380,12.480 5.382,12.497 5.426 C 12.538 5.533,12.116 6.623,11.734 7.400 C 11.295 8.292,10.942 8.797,10.335 9.400 C 9.755 9.978,9.307 10.278,8.742 10.466 C 8.417 10.574,8.032 10.640,7.723 10.640 L 7.512 10.640 7.563 10.583 C 7.590 10.552,7.775 10.400,7.973 10.246 C 8.529 9.812,9.017 9.385,9.427 8.974 C 9.880 8.520,10.014 8.332,10.038 8.114 C 10.075 7.792,9.953 7.511,9.713 7.358 C 9.538 7.248,9.432 7.220,9.231 7.232 C 8.938 7.250,8.914 7.267,8.021 8.104 C 7.001 9.060,6.017 9.682,4.987 10.023 C 4.506 10.182,4.305 10.212,3.738 10.213 C 3.246 10.213,3.209 10.210,2.898 10.129 C 2.452 10.014,2.226 10.011,2.031 10.119 C 1.750 10.274,1.613 10.537,1.633 10.880 C 1.657 11.283,1.811 11.454,2.293 11.611 C 3.229 11.917,4.204 11.926,5.268 11.640 L 5.509 11.575 5.894 11.769 C 6.529 12.089,7.078 12.220,7.787 12.221 C 8.916 12.222,10.040 11.792,10.989 10.995 C 11.259 10.769,11.767 10.249,11.989 9.973 C 12.762 9.013,13.421 7.757,13.933 6.267 C 14.185 5.531,14.377 4.855,14.380 4.693 C 14.383 4.447,14.222 4.174,13.977 4.013 C 13.826 3.913,13.600 3.869,13.080 3.841 C 12.638 3.816,11.150 3.810,10.933 3.831 " fill="#1A1C1F" stroke="none" fill-rule="evenodd"></path></svg>