<svg width="32" height="32" viewBox="0 0 32 32" fill="none" xmlns="http://www.w3.org/2000/svg"><path d="M23.707 7.150 C 21.719 7.304,19.598 7.717,18.068 8.247 C 14.674 9.424,12.216 11.289,10.324 14.125 C 9.554 15.278,8.853 16.818,8.853 17.356 C 8.853 17.999,9.546 18.451,10.167 18.213 C 10.462 18.101,10.540 17.987,11.178 16.726 C 12.038 15.029,12.460 14.418,13.516 13.342 C 14.560 12.278,15.427 11.649,16.800 10.959 C 18.897 9.906,21.135 9.336,23.807 9.173 C 24.781 9.114,26.673 9.104,27.213 9.155 C 27.524 9.184,27.573 9.203,27.573 9.293 C 27.573 9.465,26.922 11.363,26.480 12.480 C 24.154 18.359,21.128 21.718,17.279 22.694 C 16.248 22.955,14.749 22.966,13.787 22.720 C 13.557 22.661,13.355 22.613,13.338 22.612 C 13.321 22.611,13.739 22.388,14.267 22.116 C 15.411 21.527,15.896 21.250,16.853 20.641 C 18.212 19.776,20.054 18.385,21.179 17.372 C 22.194 16.459,24.092 14.565,24.181 14.377 C 24.286 14.156,24.292 13.763,24.192 13.525 C 24.023 13.121,23.328 12.834,22.970 13.021 C 22.827 13.095,22.270 13.599,21.147 14.669 C 19.765 15.986,18.945 16.687,17.678 17.638 C 15.001 19.648,12.272 21.039,9.810 21.648 C 8.810 21.895,8.267 21.976,7.387 22.010 C 6.214 22.056,5.347 21.964,4.232 21.677 C 3.156 21.400,2.779 21.375,2.506 21.560 C 2.260 21.727,2.106 22.045,2.110 22.373 C 2.118 22.907,2.413 23.197,3.217 23.461 C 4.535 23.894,5.299 24.007,6.907 24.008 C 8.274 24.009,8.651 23.970,9.908 23.702 L 10.775 23.516 11.001 23.671 C 11.646 24.113,13.077 24.657,13.947 24.790 C 14.963 24.946,16.789 24.900,17.627 24.698 C 19.314 24.290,21.010 23.421,22.400 22.252 C 23.067 21.691,24.077 20.650,24.663 19.920 C 25.647 18.694,26.734 16.912,27.460 15.331 C 28.291 13.524,29.418 10.426,29.788 8.928 C 29.950 8.275,29.942 8.077,29.745 7.779 C 29.473 7.368,28.855 7.242,26.667 7.149 C 25.218 7.088,24.502 7.088,23.707 7.150 " fill="#1A1C1F" stroke="none" fill-rule="evenodd"></path></svg>