<svg width="28" height="28" viewBox="0 0 28 28" fill="none" xmlns="http://www.w3.org/2000/svg"><path d="M20.977 6.238 C 19.970 6.302,18.068 6.588,17.143 6.815 C 15.289 7.271,13.372 8.162,11.900 9.254 C 11.369 9.648,10.025 10.980,9.628 11.505 C 8.694 12.741,7.829 14.380,7.761 15.045 C 7.709 15.542,8.039 15.948,8.535 15.996 C 8.824 16.023,9.034 15.924,9.207 15.680 C 9.279 15.579,9.529 15.122,9.762 14.666 C 10.547 13.131,10.902 12.617,11.826 11.675 C 12.752 10.731,13.498 10.192,14.747 9.566 C 16.286 8.795,17.972 8.316,19.927 8.095 C 20.672 8.011,23.024 7.952,23.672 8.001 C 24.085 8.032,24.127 8.044,24.127 8.129 C 24.127 8.281,23.560 9.936,23.170 10.920 C 21.132 16.072,18.489 19.002,15.105 19.861 C 14.215 20.086,12.903 20.095,12.063 19.880 C 11.863 19.829,11.686 19.786,11.671 19.785 C 11.656 19.785,12.021 19.590,12.483 19.352 C 14.323 18.404,15.674 17.523,17.431 16.124 C 18.646 15.156,21.071 12.835,21.187 12.529 C 21.272 12.304,21.243 11.929,21.127 11.756 C 20.941 11.481,20.436 11.276,20.159 11.364 C 20.039 11.402,19.561 11.826,18.503 12.835 C 17.298 13.984,16.579 14.599,15.469 15.433 C 13.126 17.192,10.738 18.409,8.584 18.942 C 7.709 19.158,7.234 19.229,6.463 19.259 C 5.437 19.299,4.679 19.219,3.703 18.967 C 2.761 18.725,2.431 18.703,2.193 18.865 C 1.978 19.011,1.843 19.289,1.847 19.577 C 1.853 20.060,2.120 20.308,2.901 20.555 C 4.813 21.160,6.692 21.202,8.895 20.687 L 9.413 20.566 9.634 20.718 C 10.119 21.052,11.373 21.539,12.099 21.675 C 13.089 21.861,14.680 21.801,15.657 21.541 C 17.552 21.036,19.031 20.136,20.583 18.541 C 22.775 16.289,24.383 13.287,25.728 8.933 C 26.242 7.271,26.258 7.140,25.997 6.779 C 25.825 6.542,25.596 6.451,24.968 6.369 C 24.111 6.257,21.851 6.183,20.977 6.238 " fill="#1A1C1F" stroke="none" fill-rule="evenodd"></path></svg>