<svg width="14" height="14" viewBox="0 0 14 14" fill="none" xmlns="http://www.w3.org/2000/svg"><path d="M9.555 3.362 C 9.060 3.390,8.373 3.526,7.852 3.698 C 7.079 3.953,6.327 4.356,5.728 4.838 C 5.167 5.289,4.506 6.114,4.383 6.517 C 4.303 6.781,4.368 7.009,4.577 7.197 C 4.722 7.327,4.882 7.384,5.062 7.367 C 5.321 7.344,5.466 7.227,5.831 6.748 C 6.251 6.198,6.513 5.940,6.953 5.643 C 7.835 5.051,8.914 4.762,10.400 4.720 C 10.985 4.704,10.968 4.699,10.919 4.880 C 10.904 4.936,10.831 5.144,10.757 5.343 C 10.235 6.740,9.607 7.762,8.869 8.410 C 8.187 9.009,7.613 9.265,6.860 9.302 L 6.568 9.317 6.615 9.264 C 6.641 9.235,6.777 9.121,6.918 9.011 C 7.833 8.296,8.587 7.573,8.723 7.280 C 8.886 6.927,8.741 6.543,8.381 6.376 C 8.275 6.327,8.230 6.320,8.076 6.327 C 7.913 6.334,7.881 6.344,7.768 6.419 C 7.699 6.466,7.468 6.669,7.257 6.871 C 6.216 7.863,5.376 8.424,4.465 8.735 C 3.964 8.906,3.782 8.937,3.266 8.937 C 2.842 8.937,2.807 8.933,2.536 8.863 C 2.038 8.734,1.829 8.760,1.617 8.978 C 1.336 9.267,1.366 9.805,1.676 10.010 C 1.988 10.217,2.680 10.363,3.348 10.363 C 3.769 10.364,4.021 10.330,4.507 10.209 L 4.825 10.130 5.137 10.287 C 5.944 10.695,6.703 10.796,7.595 10.613 C 9.219 10.280,10.604 9.010,11.599 6.942 C 11.912 6.289,12.265 5.341,12.492 4.538 C 12.606 4.132,12.611 4.090,12.557 3.936 C 12.463 3.668,12.270 3.487,12.007 3.419 C 11.730 3.348,10.348 3.316,9.555 3.362 " fill="#1A1C1F" stroke="none" fill-rule="evenodd"></path></svg>