<svg width="12" height="12" viewBox="0 0 12 12" fill="none" xmlns="http://www.w3.org/2000/svg"><path d="M6.000 1.213 C 5.202 1.257,4.592 1.412,3.960 1.732 C 2.991 2.222,2.248 2.978,1.781 3.950 C 1.484 4.568,1.346 5.163,1.326 5.910 C 1.309 6.525,1.370 6.951,1.550 7.490 C 2.156 9.303,3.719 10.570,5.610 10.780 C 5.847 10.806,6.392 10.805,6.636 10.779 C 7.451 10.689,8.319 10.342,8.993 9.838 C 9.328 9.587,9.764 9.139,10.014 8.790 C 10.269 8.434,10.656 7.675,10.672 7.498 C 10.684 7.371,10.636 7.273,10.545 7.238 C 10.515 7.227,10.211 7.209,9.870 7.199 C 9.182 7.179,9.016 7.159,8.661 7.048 C 7.536 6.697,6.670 5.844,6.293 4.718 C 6.163 4.328,6.150 4.233,6.150 3.610 C 6.150 3.096,6.154 3.033,6.196 2.842 C 6.255 2.580,6.326 2.380,6.503 1.973 C 6.701 1.520,6.705 1.507,6.678 1.421 C 6.647 1.326,6.568 1.244,6.481 1.220 C 6.414 1.201,6.257 1.199,6.000 1.213 M5.011 2.615 C 4.985 2.683,4.942 3.022,4.918 3.347 C 4.824 4.641,5.361 6.042,6.313 6.990 C 6.951 7.624,7.732 8.063,8.610 8.280 C 8.709 8.304,8.798 8.332,8.808 8.341 C 8.857 8.387,8.463 8.754,8.109 8.991 C 7.419 9.453,6.708 9.637,5.824 9.583 C 5.439 9.559,5.203 9.508,4.846 9.372 C 3.820 8.981,3.040 8.164,2.693 7.119 C 2.562 6.724,2.550 6.633,2.550 6.010 C 2.550 5.387,2.562 5.294,2.693 4.901 C 3.040 3.863,3.755 3.105,4.810 2.657 C 5.016 2.570,5.029 2.567,5.011 2.615 " fill="#1A1C1F" stroke="none" fill-rule="evenodd"></path></svg>