<svg width="24" height="24" viewBox="0 0 24 24" fill="none" xmlns="http://www.w3.org/2000/svg"><path d="M11.620 2.026 C 10.492 2.198,10.156 2.258,9.749 2.361 C 9.102 2.525,8.617 2.709,7.899 3.062 C 6.875 3.565,6.055 4.145,5.247 4.936 C 3.687 6.463,2.722 8.378,2.373 10.640 C 2.272 11.289,2.273 12.796,2.375 13.440 C 2.642 15.147,3.289 16.686,4.316 18.058 C 4.710 18.586,5.752 19.624,6.280 20.017 C 7.681 21.057,9.458 21.767,11.140 21.958 C 11.606 22.011,12.854 22.012,13.352 21.959 C 15.226 21.759,17.076 20.985,18.580 19.772 C 19.392 19.117,20.336 18.033,20.859 17.154 C 21.150 16.667,21.585 15.795,21.666 15.537 C 21.735 15.319,21.735 15.309,21.658 15.166 C 21.613 15.082,21.520 14.990,21.438 14.950 C 21.304 14.885,21.259 14.885,20.658 14.945 C 19.873 15.024,18.615 15.035,18.180 14.966 C 16.029 14.624,14.099 13.471,12.871 11.794 C 12.068 10.697,11.580 9.513,11.380 8.179 C 11.304 7.667,11.293 6.599,11.360 6.059 C 11.475 5.117,11.636 4.575,12.138 3.429 C 12.329 2.994,12.495 2.580,12.506 2.509 C 12.535 2.327,12.465 2.175,12.315 2.098 C 12.184 2.029,11.833 1.993,11.620 2.026 M9.586 4.539 C 9.543 4.651,9.402 5.435,9.341 5.899 C 9.229 6.755,9.281 8.057,9.463 8.960 C 9.672 9.993,10.239 11.422,10.795 12.316 C 12.372 14.854,15.060 16.563,18.110 16.966 C 18.341 16.996,18.480 17.032,18.480 17.062 C 18.480 17.137,17.594 18.009,17.228 18.295 C 16.386 18.953,15.318 19.480,14.263 19.760 C 13.509 19.960,13.090 20.015,12.300 20.015 C 11.503 20.016,10.913 19.935,10.146 19.720 C 5.748 18.485,3.276 13.859,4.701 9.530 C 5.253 7.852,6.355 6.376,7.760 5.431 C 8.134 5.180,9.464 4.480,9.568 4.480 C 9.590 4.480,9.598 4.507,9.586 4.539 " fill="#1A1C1F" stroke="none" fill-rule="evenodd"></path></svg>