<svg width="20" height="20" viewBox="0 0 20 20" fill="none" xmlns="http://www.w3.org/2000/svg"><path d="M10.033 2.022 C 8.694 2.087,7.637 2.355,6.567 2.902 C 4.284 4.066,2.730 6.181,2.294 8.717 C 2.229 9.090,2.219 9.273,2.218 10.033 C 2.217 10.817,2.226 10.966,2.295 11.350 C 2.534 12.678,3.131 13.998,3.957 15.028 C 5.181 16.553,7.112 17.657,9.008 17.917 C 9.538 17.990,10.572 18.017,10.999 17.970 C 12.519 17.803,14.044 17.168,15.224 16.211 C 15.808 15.737,16.601 14.837,16.975 14.223 C 17.066 14.073,17.289 13.650,17.471 13.283 C 17.838 12.539,17.871 12.401,17.725 12.213 C 17.557 11.997,17.583 12.002,16.800 12.001 C 15.957 11.999,15.213 11.953,14.921 11.886 C 14.365 11.756,13.576 11.438,13.089 11.144 C 11.716 10.319,10.727 8.939,10.324 7.287 C 10.255 7.006,10.250 6.911,10.255 6.000 C 10.259 5.070,10.264 4.998,10.344 4.667 C 10.444 4.252,10.542 3.981,10.875 3.200 C 11.011 2.879,11.131 2.579,11.142 2.533 C 11.173 2.392,11.052 2.146,10.917 2.076 C 10.840 2.036,10.350 2.006,10.033 2.022 M8.353 4.358 C 8.257 4.671,8.153 5.887,8.183 6.350 C 8.260 7.534,8.522 8.530,9.016 9.527 C 9.473 10.445,9.909 11.044,10.638 11.750 C 11.695 12.775,12.841 13.409,14.341 13.797 C 14.526 13.845,14.684 13.901,14.690 13.921 C 14.709 13.976,14.431 14.269,14.089 14.556 C 13.114 15.374,11.920 15.879,10.742 15.971 C 10.151 16.018,9.249 15.968,8.854 15.867 C 8.253 15.713,7.570 15.434,7.089 15.144 C 5.708 14.314,4.687 12.882,4.324 11.267 C 4.260 10.984,4.252 10.849,4.252 10.017 C 4.252 9.177,4.260 9.050,4.326 8.755 C 4.515 7.909,4.948 6.984,5.461 6.333 C 5.647 6.097,6.195 5.544,6.437 5.349 C 6.883 4.989,7.449 4.661,8.050 4.413 C 8.362 4.284,8.377 4.281,8.353 4.358 " fill="#1A1C1F" stroke="none" fill-rule="evenodd"></path></svg>