<svg width="12" height="12" viewBox="0 0 12 12" fill="none" xmlns="http://www.w3.org/2000/svg"><path d="M6.000 1.213 C 5.567 1.237,5.081 1.314,4.758 1.410 C 3.921 1.659,3.062 2.205,2.523 2.829 C 1.899 3.551,1.535 4.319,1.379 5.240 C 1.319 5.597,1.304 6.278,1.349 6.620 C 1.427 7.221,1.641 7.851,1.944 8.379 C 2.495 9.339,3.363 10.086,4.395 10.488 C 5.314 10.846,6.410 10.898,7.388 10.630 C 8.587 10.302,9.641 9.481,10.266 8.390 C 10.464 8.043,10.662 7.610,10.672 7.498 C 10.684 7.371,10.636 7.273,10.545 7.238 C 10.515 7.227,10.211 7.209,9.870 7.199 C 9.182 7.179,9.016 7.159,8.661 7.048 C 7.536 6.697,6.670 5.844,6.293 4.718 C 6.163 4.328,6.150 4.233,6.150 3.610 C 6.150 3.096,6.154 3.033,6.196 2.842 C 6.255 2.580,6.326 2.380,6.503 1.973 C 6.701 1.520,6.705 1.507,6.678 1.421 C 6.647 1.326,6.568 1.244,6.481 1.220 C 6.414 1.201,6.257 1.199,6.000 1.213 " fill="#1A1C1F" stroke="none" fill-rule="evenodd"></path></svg>