<svg width="16" height="16" viewBox="0 0 16 16" fill="none" xmlns="http://www.w3.org/2000/svg"><path d="M8.013 1.618 C 6.946 1.681,6.152 1.880,5.320 2.293 C 4.629 2.635,4.133 2.993,3.594 3.538 C 2.621 4.522,2.015 5.743,1.809 7.133 C 1.786 7.286,1.774 7.622,1.774 8.053 C 1.774 8.804,1.813 9.118,1.976 9.699 C 2.530 11.672,3.980 13.261,5.893 13.991 C 6.962 14.400,8.284 14.513,9.373 14.289 C 10.828 13.991,12.045 13.270,13.030 12.124 C 13.379 11.718,13.611 11.355,13.939 10.702 C 14.170 10.242,14.224 10.112,14.232 9.996 C 14.245 9.828,14.179 9.696,14.060 9.651 C 14.020 9.635,13.609 9.612,13.147 9.599 C 12.235 9.572,12.127 9.561,11.702 9.441 C 10.124 8.998,8.913 7.846,8.391 6.291 C 8.218 5.773,8.201 5.646,8.201 4.813 C 8.200 4.128,8.205 4.044,8.262 3.790 C 8.340 3.441,8.436 3.170,8.672 2.629 C 8.936 2.023,8.940 2.009,8.904 1.895 C 8.863 1.767,8.757 1.659,8.642 1.627 C 8.553 1.602,8.328 1.599,8.013 1.618 " fill="#1A1C1F" stroke="none" fill-rule="evenodd"></path></svg>