<svg width="28" height="28" viewBox="0 0 28 28" fill="none" xmlns="http://www.w3.org/2000/svg"><path d="M13.052 2.716 C 11.591 2.843,9.595 3.590,8.128 4.560 C 6.564 5.595,5.128 7.240,4.282 8.967 C 3.906 9.733,3.686 10.322,3.477 11.123 C 3.181 12.254,3.157 12.472,3.157 14.070 C 3.157 15.400,3.166 15.556,3.263 16.007 C 3.793 18.448,4.696 20.195,6.276 21.832 C 7.248 22.839,8.213 23.544,9.481 24.172 C 11.109 24.980,12.710 25.340,14.686 25.340 C 17.848 25.340,21.236 23.699,23.256 21.187 C 23.717 20.613,24.382 19.599,24.629 19.090 C 24.971 18.389,24.958 18.049,24.574 17.696 L 24.379 17.515 23.346 17.484 C 22.135 17.448,21.796 17.407,20.970 17.195 C 18.504 16.565,16.571 15.205,15.199 13.137 C 14.596 12.227,14.029 10.865,13.817 9.820 C 13.665 9.069,13.600 7.879,13.666 7.062 C 13.739 6.163,13.847 5.654,14.188 4.595 C 14.540 3.506,14.555 3.402,14.409 3.127 C 14.207 2.748,13.869 2.646,13.052 2.716 M12.273 4.640 C 12.273 4.650,12.222 4.897,12.160 5.188 C 11.913 6.344,11.877 6.684,11.877 7.840 C 11.878 8.510,11.902 9.100,11.940 9.357 C 12.129 10.634,12.488 11.767,13.072 12.939 C 13.655 14.106,14.200 14.854,15.212 15.872 C 16.194 16.861,16.946 17.408,18.146 18.009 C 19.348 18.611,20.615 18.987,22.106 19.183 L 22.536 19.239 22.246 19.614 C 20.925 21.322,19.378 22.465,17.535 23.096 C 14.962 23.976,12.117 23.697,9.700 22.329 C 8.357 21.568,7.024 20.244,6.184 18.838 C 5.006 16.863,4.593 14.343,5.065 12.005 C 5.620 9.258,7.393 6.937,9.987 5.561 C 10.832 5.113,12.273 4.532,12.273 4.640 " fill="#1A1C1F" stroke="none" fill-rule="evenodd"></path></svg>