<svg width="14" height="14" viewBox="0 0 14 14" fill="none" xmlns="http://www.w3.org/2000/svg"><path d="M6.988 1.415 C 5.473 1.501,4.197 2.049,3.188 3.047 C 2.404 3.823,1.868 4.810,1.647 5.887 C 1.558 6.320,1.532 6.666,1.547 7.233 C 1.558 7.671,1.569 7.779,1.632 8.079 C 1.999 9.847,3.114 11.278,4.728 12.056 C 5.370 12.365,6.036 12.540,6.735 12.582 C 7.706 12.640,8.469 12.512,9.347 12.145 C 10.066 11.844,10.741 11.352,11.307 10.716 C 11.693 10.283,11.919 9.934,12.246 9.268 C 12.472 8.808,12.501 8.683,12.415 8.545 C 12.388 8.503,12.338 8.458,12.303 8.444 C 12.267 8.431,11.917 8.411,11.523 8.400 C 10.712 8.377,10.490 8.348,10.077 8.213 C 9.324 7.967,8.746 7.597,8.239 7.037 C 7.742 6.488,7.426 5.881,7.228 5.098 C 7.178 4.902,7.175 4.844,7.178 4.200 C 7.181 3.548,7.184 3.499,7.240 3.267 C 7.311 2.976,7.380 2.786,7.612 2.240 C 7.708 2.015,7.792 1.805,7.799 1.773 C 7.821 1.674,7.737 1.503,7.642 1.453 C 7.589 1.425,7.200 1.403,6.988 1.415 " fill="#1A1C1F" stroke="none" fill-rule="evenodd"></path></svg>