<svg width="32" height="32" viewBox="0 0 32 32" fill="none" xmlns="http://www.w3.org/2000/svg"><path d="M14.917 3.104 C 13.072 3.264,10.494 4.294,8.804 5.547 C 7.898 6.219,6.620 7.518,5.973 8.427 C 4.713 10.195,3.838 12.463,3.630 14.499 C 3.559 15.191,3.558 16.772,3.628 17.436 C 3.868 19.709,4.891 22.201,6.331 24.015 C 7.622 25.644,9.578 27.141,11.423 27.914 C 13.042 28.592,14.380 28.883,16.160 28.942 C 17.880 28.999,19.125 28.815,20.697 28.272 C 23.764 27.213,26.016 25.374,27.773 22.492 C 28.428 21.417,28.565 20.875,28.289 20.448 C 28.036 20.059,27.893 20.000,27.197 19.999 C 25.618 19.996,24.610 19.862,23.387 19.492 C 19.887 18.432,17.238 15.826,16.081 12.304 C 15.544 10.668,15.430 8.524,15.787 6.772 C 15.845 6.485,16.038 5.801,16.215 5.252 C 16.617 4.006,16.635 3.888,16.467 3.573 C 16.236 3.140,15.850 3.023,14.917 3.104 M14.027 5.302 C 14.027 5.315,13.968 5.597,13.897 5.929 C 13.613 7.260,13.573 7.635,13.576 8.987 C 13.579 10.721,13.755 11.780,14.285 13.259 C 14.961 15.147,15.843 16.567,17.223 17.989 C 18.394 19.196,19.318 19.870,20.827 20.615 C 22.209 21.298,23.582 21.703,25.264 21.923 L 25.754 21.988 25.445 22.394 C 23.255 25.269,20.390 26.804,16.907 26.969 C 14.542 27.082,11.876 26.232,9.912 24.742 C 7.749 23.099,6.198 20.558,5.735 17.895 C 5.472 16.383,5.542 14.607,5.923 13.145 C 6.424 11.222,7.463 9.488,8.937 8.112 C 10.079 7.047,11.203 6.362,12.981 5.648 C 13.821 5.310,14.027 5.242,14.027 5.302 " fill="#1A1C1F" stroke="none" fill-rule="evenodd"></path></svg>