<svg width="20" height="20" viewBox="0 0 20 20" fill="none" xmlns="http://www.w3.org/2000/svg"><path d="M10.033 2.022 C 8.694 2.087,7.637 2.355,6.567 2.902 C 4.284 4.066,2.730 6.181,2.294 8.717 C 2.229 9.090,2.219 9.273,2.218 10.033 C 2.217 10.817,2.226 10.966,2.295 11.350 C 2.588 12.976,3.383 14.516,4.513 15.645 C 5.507 16.639,6.849 17.409,8.183 17.751 C 8.899 17.934,9.327 17.981,10.283 17.980 C 11.049 17.979,11.154 17.972,11.572 17.890 C 12.668 17.675,13.728 17.255,14.533 16.717 C 15.002 16.403,15.369 16.099,15.819 15.651 C 16.558 14.913,16.903 14.423,17.436 13.353 C 17.744 12.735,17.800 12.598,17.800 12.466 C 17.800 12.354,17.778 12.281,17.725 12.213 C 17.557 11.997,17.583 12.002,16.800 12.001 C 15.957 11.999,15.213 11.953,14.921 11.886 C 14.365 11.756,13.576 11.438,13.089 11.144 C 11.716 10.319,10.727 8.939,10.324 7.287 C 10.255 7.006,10.250 6.911,10.255 6.000 C 10.259 5.070,10.264 4.998,10.344 4.667 C 10.444 4.252,10.542 3.981,10.875 3.200 C 11.011 2.879,11.131 2.579,11.142 2.533 C 11.173 2.392,11.052 2.146,10.917 2.076 C 10.840 2.036,10.350 2.006,10.033 2.022 " fill="#1A1C1F" stroke="none" fill-rule="evenodd"></path></svg>