<svg width="16" height="16" viewBox="0 0 16 16" fill="none" xmlns="http://www.w3.org/2000/svg"><path d="M8.013 1.618 C 6.946 1.681,6.152 1.880,5.320 2.293 C 4.629 2.635,4.133 2.993,3.594 3.538 C 2.621 4.522,2.015 5.743,1.809 7.133 C 1.786 7.286,1.774 7.622,1.774 8.053 C 1.774 8.804,1.813 9.118,1.976 9.699 C 2.530 11.672,3.980 13.261,5.893 13.991 C 6.962 14.400,8.284 14.513,9.373 14.289 C 10.828 13.991,12.045 13.270,13.030 12.124 C 13.379 11.718,13.611 11.355,13.939 10.702 C 14.170 10.242,14.224 10.112,14.232 9.996 C 14.245 9.828,14.179 9.696,14.060 9.651 C 14.020 9.635,13.609 9.612,13.147 9.599 C 12.235 9.572,12.127 9.561,11.702 9.441 C 10.124 8.998,8.913 7.846,8.391 6.291 C 8.218 5.773,8.201 5.646,8.201 4.813 C 8.200 4.128,8.205 4.044,8.262 3.790 C 8.340 3.441,8.436 3.170,8.672 2.629 C 8.936 2.023,8.940 2.009,8.904 1.895 C 8.863 1.767,8.757 1.659,8.642 1.627 C 8.553 1.602,8.328 1.599,8.013 1.618 M6.683 3.487 C 6.649 3.596,6.587 4.068,6.559 4.427 C 6.486 5.364,6.697 6.524,7.096 7.388 C 7.484 8.226,7.878 8.787,8.510 9.400 C 9.354 10.219,10.275 10.728,11.472 11.038 C 11.621 11.076,11.747 11.121,11.752 11.137 C 11.767 11.180,11.544 11.415,11.271 11.645 C 10.642 12.173,9.943 12.515,9.067 12.723 C 8.840 12.777,8.747 12.783,8.173 12.783 C 7.703 12.782,7.470 12.770,7.293 12.739 C 6.821 12.654,6.116 12.383,5.671 12.116 C 4.572 11.454,3.773 10.339,3.460 9.029 C 3.408 8.809,3.403 8.715,3.403 8.013 C 3.403 7.303,3.408 7.219,3.463 6.987 C 3.629 6.287,3.960 5.586,4.369 5.067 C 4.518 4.878,4.956 4.435,5.150 4.279 C 5.506 3.991,5.959 3.728,6.440 3.530 C 6.690 3.427,6.701 3.425,6.683 3.487 " fill="#1A1C1F" stroke="none" fill-rule="evenodd"></path></svg>