<svg width="32" height="32" viewBox="0 0 32 32" fill="none" xmlns="http://www.w3.org/2000/svg"><path d="M15.777 3.187 C 15.698 3.198,15.533 3.295,15.411 3.404 C 15.196 3.594,15.187 3.616,15.144 4.027 C 15.119 4.262,15.098 4.723,15.096 5.053 C 15.095 5.383,15.079 5.653,15.061 5.653 C 15.043 5.653,14.781 5.417,14.478 5.128 C 14.175 4.839,13.838 4.560,13.730 4.508 C 13.208 4.261,12.587 4.702,12.587 5.320 C 12.587 5.617,12.737 5.804,14.014 7.101 L 15.110 8.215 15.073 11.265 C 15.052 12.943,15.024 14.327,15.010 14.341 C 14.971 14.380,14.631 14.204,13.440 13.523 C 12.324 12.885,9.756 11.358,9.585 11.230 C 9.493 11.162,9.406 10.888,8.930 9.173 C 8.575 7.893,8.423 7.681,7.861 7.680 C 7.546 7.680,7.300 7.818,7.108 8.102 C 6.955 8.329,6.957 8.478,7.120 9.173 C 7.192 9.481,7.252 9.775,7.252 9.826 C 7.253 9.899,7.107 9.842,6.535 9.546 C 5.750 9.139,5.575 9.102,5.238 9.275 C 4.894 9.451,4.773 9.624,4.773 9.938 C 4.773 10.470,4.820 10.515,6.291 11.425 C 6.548 11.584,6.615 11.648,6.556 11.681 C 6.513 11.705,6.166 11.813,5.786 11.921 C 4.900 12.173,4.700 12.280,4.547 12.585 C 4.318 13.038,4.455 13.501,4.877 13.705 C 5.123 13.824,5.131 13.825,5.590 13.741 C 5.845 13.694,6.646 13.499,7.371 13.308 C 8.095 13.116,8.751 12.960,8.829 12.960 C 8.988 12.960,13.637 15.621,14.019 15.930 L 14.144 16.031 12.925 16.757 C 11.633 17.526,9.811 18.570,8.945 19.036 L 8.424 19.317 6.999 18.966 C 5.134 18.508,5.104 18.504,4.809 18.719 C 4.400 19.017,4.313 19.531,4.606 19.916 C 4.758 20.114,5.052 20.246,5.775 20.440 C 6.003 20.501,6.183 20.572,6.174 20.597 C 6.166 20.622,5.895 20.816,5.573 21.028 C 4.863 21.495,4.723 21.671,4.767 22.048 C 4.806 22.386,4.981 22.640,5.275 22.783 C 5.486 22.886,5.535 22.891,5.755 22.833 C 5.890 22.797,6.300 22.605,6.667 22.406 C 7.086 22.179,7.339 22.069,7.350 22.110 C 7.358 22.146,7.293 22.484,7.205 22.861 C 6.970 23.866,6.960 23.955,7.068 24.182 C 7.184 24.426,7.490 24.683,7.715 24.725 C 7.838 24.748,7.972 24.719,8.184 24.621 C 8.439 24.505,8.497 24.450,8.587 24.240 C 8.680 24.023,9.174 22.338,9.496 21.142 L 9.612 20.710 11.353 19.702 C 13.478 18.472,14.928 17.653,14.982 17.653 C 15.028 17.653,15.093 20.684,15.093 22.801 L 15.093 24.188 14.448 24.828 C 13.587 25.681,12.712 26.636,12.608 26.837 C 12.490 27.065,12.552 27.321,12.786 27.580 C 13.117 27.946,13.388 28.027,13.736 27.862 C 13.834 27.815,14.168 27.536,14.479 27.242 C 14.790 26.947,15.057 26.719,15.072 26.734 C 15.087 26.750,15.118 27.095,15.140 27.501 C 15.184 28.321,15.250 28.521,15.529 28.691 C 15.892 28.912,16.341 28.871,16.609 28.592 C 16.811 28.381,16.905 27.951,16.906 27.234 L 16.907 26.655 17.480 27.203 C 18.128 27.822,18.304 27.946,18.535 27.946 C 18.749 27.947,19.141 27.743,19.271 27.564 C 19.412 27.370,19.449 26.944,19.342 26.736 C 19.296 26.648,18.729 26.034,18.083 25.373 L 16.907 24.172 16.907 22.712 C 16.907 20.250,16.971 17.653,17.032 17.653 C 17.207 17.653,22.261 20.648,22.373 20.818 C 22.414 20.882,22.628 21.582,22.846 22.374 C 23.339 24.157,23.424 24.389,23.640 24.543 C 23.873 24.708,24.335 24.735,24.587 24.598 C 24.805 24.478,25.012 24.149,25.012 23.920 C 25.012 23.832,24.918 23.376,24.804 22.907 C 24.690 22.437,24.603 22.046,24.613 22.037 C 24.622 22.027,24.938 22.188,25.315 22.394 C 25.692 22.600,26.110 22.798,26.245 22.833 C 26.465 22.891,26.514 22.886,26.725 22.783 C 27.052 22.623,27.221 22.358,27.224 21.999 C 27.228 21.614,27.129 21.493,26.443 21.040 C 26.133 20.835,25.876 20.643,25.873 20.613 C 25.870 20.584,26.146 20.472,26.486 20.365 C 27.145 20.157,27.364 20.012,27.500 19.695 C 27.662 19.316,27.523 18.895,27.166 18.686 C 26.868 18.512,26.846 18.514,25.007 18.966 L 23.587 19.315 23.217 19.129 C 22.376 18.705,18.359 16.365,18.027 16.104 L 17.893 16.000 18.027 15.896 C 18.172 15.783,20.209 14.583,22.006 13.551 L 23.132 12.905 24.033 13.150 C 25.661 13.593,26.682 13.825,26.871 13.794 C 27.110 13.755,27.377 13.544,27.492 13.302 C 27.664 12.939,27.503 12.400,27.175 12.244 C 27.086 12.202,26.677 12.067,26.266 11.944 C 25.856 11.821,25.485 11.702,25.442 11.678 C 25.384 11.647,25.452 11.583,25.700 11.431 C 26.454 10.972,27.015 10.578,27.116 10.439 C 27.250 10.253,27.258 9.805,27.131 9.565 C 27.024 9.361,26.661 9.173,26.374 9.173 C 26.223 9.173,25.981 9.272,25.458 9.547 C 24.934 9.823,24.747 9.899,24.747 9.838 C 24.747 9.791,24.807 9.488,24.880 9.163 C 24.953 8.838,25.013 8.507,25.013 8.427 C 25.013 8.242,24.821 7.956,24.591 7.801 C 24.259 7.578,23.664 7.693,23.448 8.022 C 23.400 8.096,23.203 8.715,23.011 9.398 C 22.515 11.163,22.479 11.265,22.306 11.365 C 20.201 12.591,17.089 14.347,17.023 14.347 C 16.972 14.347,16.907 11.649,16.907 9.555 L 16.907 8.204 18.160 6.919 L 19.413 5.634 19.413 5.363 C 19.413 4.965,19.283 4.748,18.937 4.573 C 18.426 4.315,18.301 4.366,17.460 5.185 L 16.907 5.723 16.906 5.035 C 16.904 4.197,16.838 3.704,16.704 3.523 C 16.516 3.271,16.149 3.138,15.777 3.187 " fill="#1A1C1F" stroke="none" fill-rule="evenodd"></path></svg>