<svg width="28" height="28" viewBox="0 0 28 28" fill="none" xmlns="http://www.w3.org/2000/svg"><path d="M13.804 2.789 C 13.735 2.798,13.591 2.884,13.483 2.979 C 13.292 3.149,13.287 3.160,13.250 3.548 C 13.230 3.765,13.211 4.169,13.210 4.445 C 13.208 4.721,13.194 4.947,13.178 4.947 C 13.163 4.947,12.933 4.740,12.668 4.487 C 12.011 3.859,11.810 3.774,11.435 3.966 C 11.229 4.071,11.072 4.269,11.006 4.507 C 10.926 4.797,11.072 4.998,12.185 6.134 L 13.207 7.176 13.207 8.243 C 13.207 8.830,13.193 10.049,13.176 10.952 L 13.145 12.594 12.884 12.462 C 12.331 12.182,8.662 10.032,8.384 9.824 C 8.326 9.781,8.210 9.441,8.022 8.765 C 7.563 7.114,7.501 6.955,7.266 6.811 C 6.929 6.606,6.462 6.730,6.219 7.090 C 6.086 7.288,6.087 7.419,6.230 8.027 C 6.293 8.296,6.345 8.553,6.346 8.598 C 6.346 8.662,6.216 8.611,5.708 8.347 C 5.123 8.043,5.052 8.018,4.847 8.038 C 4.389 8.082,4.107 8.439,4.174 8.889 C 4.217 9.174,4.376 9.321,5.129 9.769 C 5.463 9.967,5.748 10.149,5.763 10.173 C 5.788 10.213,5.621 10.270,4.690 10.543 C 4.248 10.672,4.072 10.790,3.965 11.026 C 3.849 11.281,3.851 11.450,3.969 11.696 C 4.041 11.843,4.120 11.921,4.275 11.996 C 4.481 12.096,4.493 12.096,4.891 12.023 C 5.114 11.982,5.815 11.811,6.449 11.644 C 7.083 11.477,7.657 11.340,7.726 11.340 C 7.864 11.340,11.933 13.668,12.267 13.939 L 12.376 14.027 11.310 14.662 C 10.179 15.335,8.585 16.248,7.827 16.657 L 7.371 16.903 6.124 16.596 C 4.493 16.194,4.466 16.191,4.208 16.379 C 3.850 16.640,3.774 17.089,4.031 17.426 C 4.163 17.600,4.421 17.716,5.053 17.885 C 5.253 17.939,5.410 18.000,5.403 18.022 C 5.395 18.044,5.159 18.214,4.879 18.399 C 4.262 18.807,4.176 18.911,4.179 19.249 C 4.182 19.564,4.330 19.796,4.616 19.935 C 4.800 20.025,4.843 20.030,5.036 19.979 C 5.154 19.948,5.513 19.780,5.833 19.606 C 6.200 19.407,6.422 19.310,6.431 19.346 C 6.439 19.378,6.382 19.674,6.304 20.003 C 6.098 20.883,6.090 20.961,6.184 21.159 C 6.286 21.373,6.554 21.598,6.751 21.635 C 6.858 21.655,6.975 21.629,7.161 21.544 C 7.384 21.441,7.434 21.394,7.513 21.210 C 7.595 21.020,8.028 19.545,8.309 18.499 L 8.411 18.121 9.934 17.240 C 11.793 16.163,13.062 15.447,13.109 15.447 C 13.149 15.447,13.207 18.161,13.207 19.993 L 13.207 21.165 12.642 21.724 C 11.888 22.471,11.123 23.306,11.032 23.482 C 10.929 23.682,10.983 23.906,11.187 24.132 C 11.514 24.494,11.803 24.548,12.134 24.307 C 12.245 24.227,12.521 23.982,12.748 23.764 C 12.975 23.545,13.173 23.377,13.187 23.391 C 13.200 23.405,13.224 23.686,13.238 24.017 C 13.257 24.445,13.289 24.673,13.349 24.814 C 13.542 25.264,14.190 25.375,14.533 25.018 C 14.709 24.833,14.792 24.457,14.793 23.830 L 14.793 23.323 15.295 23.803 C 15.862 24.344,16.016 24.453,16.218 24.453 C 16.425 24.453,16.760 24.267,16.881 24.085 C 17.014 23.886,17.022 23.555,16.900 23.355 C 16.853 23.277,16.359 22.750,15.804 22.182 L 14.793 21.151 14.793 19.874 C 14.794 18.002,14.850 15.447,14.891 15.447 C 14.990 15.447,19.073 17.811,19.398 18.057 L 19.620 18.224 20.005 19.615 C 20.218 20.379,20.440 21.102,20.499 21.220 C 20.748 21.719,21.380 21.758,21.733 21.295 C 21.907 21.066,21.898 20.804,21.684 19.950 C 21.594 19.591,21.527 19.290,21.536 19.282 C 21.544 19.274,21.820 19.415,22.150 19.595 C 22.480 19.775,22.849 19.946,22.970 19.976 C 23.165 20.024,23.212 20.019,23.390 19.932 C 23.671 19.795,23.818 19.562,23.821 19.249 C 23.824 18.912,23.738 18.806,23.138 18.410 C 22.866 18.230,22.641 18.062,22.639 18.037 C 22.636 18.011,22.877 17.913,23.175 17.819 C 23.752 17.637,23.944 17.511,24.062 17.233 C 24.204 16.901,24.082 16.533,23.770 16.350 C 23.509 16.198,23.490 16.200,21.881 16.595 L 20.638 16.900 20.315 16.738 C 19.579 16.367,16.064 14.319,15.773 14.091 L 15.657 14.000 15.773 13.909 C 15.892 13.816,18.252 12.428,19.534 11.696 L 20.239 11.294 21.354 11.591 C 23.492 12.160,23.569 12.168,23.888 11.863 C 24.097 11.663,24.163 11.413,24.083 11.118 C 24.002 10.817,23.864 10.722,23.230 10.528 C 22.266 10.233,22.212 10.214,22.237 10.173 C 22.251 10.151,22.515 9.979,22.825 9.792 C 23.552 9.351,23.737 9.192,23.802 8.953 C 23.897 8.601,23.760 8.270,23.460 8.125 C 23.119 7.960,22.969 7.989,22.276 8.354 C 21.557 8.732,21.593 8.757,21.770 8.008 C 21.834 7.736,21.887 7.454,21.887 7.381 C 21.887 7.212,21.721 6.964,21.517 6.826 C 21.227 6.631,20.706 6.731,20.517 7.019 C 20.475 7.084,20.303 7.626,20.135 8.223 C 19.688 9.812,19.673 9.855,19.495 9.959 C 19.026 10.233,15.510 12.239,15.228 12.392 C 15.044 12.493,14.882 12.564,14.868 12.550 C 14.854 12.537,14.829 11.326,14.811 9.860 L 14.778 7.194 15.882 6.062 L 16.987 4.929 16.987 4.693 C 16.986 4.344,16.872 4.155,16.570 4.002 C 16.124 3.776,16.029 3.815,15.293 4.524 L 14.806 4.993 14.782 4.188 C 14.755 3.244,14.703 3.057,14.430 2.907 C 14.246 2.806,14.010 2.762,13.804 2.789 " fill="#1A1C1F" stroke="none" fill-rule="evenodd"></path></svg>