<svg width="20" height="20" viewBox="0 0 20 20" fill="none" xmlns="http://www.w3.org/2000/svg"><path d="M9.800 2.296 C 9.535 2.382,9.373 2.540,9.300 2.783 C 9.278 2.857,9.252 3.190,9.242 3.524 L 9.225 4.131 8.855 3.781 C 8.628 3.567,8.414 3.396,8.305 3.343 C 8.136 3.260,8.112 3.257,7.917 3.290 C 7.507 3.360,7.285 3.609,7.284 4.000 C 7.283 4.193,7.296 4.235,7.399 4.383 C 7.462 4.475,7.901 4.941,8.374 5.420 L 9.233 6.290 9.233 7.337 C 9.233 8.367,9.218 8.633,9.164 8.633 C 9.148 8.633,8.667 8.363,8.093 8.033 C 7.269 7.558,7.042 7.413,7.011 7.341 C 6.990 7.290,6.850 6.807,6.699 6.266 C 6.397 5.181,6.331 4.982,6.226 4.849 C 6.119 4.713,5.917 4.635,5.669 4.634 C 5.398 4.633,5.206 4.721,5.068 4.909 C 4.975 5.035,4.967 5.068,4.967 5.315 C 4.967 5.488,4.997 5.707,5.051 5.930 C 5.097 6.120,5.128 6.283,5.120 6.291 C 5.111 6.300,4.912 6.196,4.677 6.062 L 4.250 5.817 3.950 5.817 C 3.675 5.817,3.638 5.825,3.509 5.912 C 3.329 6.034,3.200 6.283,3.200 6.508 C 3.200 6.844,3.361 7.013,4.131 7.482 C 4.370 7.628,4.555 7.758,4.541 7.771 C 4.528 7.783,4.277 7.864,3.983 7.949 C 3.299 8.148,3.147 8.230,3.023 8.469 C 2.946 8.616,2.931 8.682,2.942 8.820 C 2.961 9.072,3.085 9.296,3.279 9.425 C 3.551 9.607,3.682 9.588,5.433 9.118 L 6.482 8.836 6.949 9.105 C 7.948 9.681,8.435 9.980,8.424 10.011 C 8.412 10.047,7.419 10.638,6.613 11.089 L 6.110 11.370 5.063 11.104 C 3.734 10.765,3.661 10.752,3.448 10.815 C 3.156 10.902,2.933 11.202,2.933 11.510 C 2.933 11.703,3.082 11.993,3.231 12.092 C 3.336 12.162,3.771 12.312,4.128 12.401 L 4.273 12.438 3.948 12.638 C 3.567 12.873,3.342 13.040,3.271 13.140 C 3.236 13.190,3.220 13.298,3.219 13.487 C 3.217 13.742,3.224 13.770,3.321 13.905 C 3.459 14.096,3.717 14.233,3.939 14.233 C 4.080 14.233,4.182 14.193,4.652 13.952 C 5.039 13.752,5.200 13.684,5.200 13.720 C 5.200 13.748,5.155 13.949,5.100 14.168 C 4.907 14.932,4.896 15.009,4.954 15.179 C 5.053 15.469,5.383 15.701,5.698 15.700 C 5.841 15.699,6.122 15.572,6.224 15.462 C 6.326 15.351,6.357 15.255,6.753 13.833 C 7.046 12.781,7.114 12.573,7.182 12.517 C 7.259 12.454,8.504 11.736,8.955 11.494 C 9.069 11.433,9.174 11.396,9.189 11.411 C 9.204 11.426,9.221 12.016,9.227 12.722 L 9.238 14.005 8.410 14.844 C 7.956 15.306,7.529 15.751,7.463 15.834 C 7.249 16.100,7.214 16.336,7.347 16.621 C 7.477 16.900,7.708 17.039,8.043 17.040 C 8.285 17.040,8.360 16.993,8.838 16.538 C 9.034 16.352,9.200 16.200,9.208 16.200 C 9.216 16.200,9.232 16.418,9.243 16.685 C 9.259 17.090,9.275 17.195,9.336 17.321 C 9.424 17.504,9.615 17.650,9.859 17.721 C 10.027 17.769,10.051 17.769,10.193 17.715 C 10.366 17.649,10.611 17.438,10.693 17.285 C 10.734 17.208,10.750 17.062,10.761 16.692 C 10.768 16.421,10.781 16.200,10.790 16.200 C 10.799 16.200,10.971 16.357,11.173 16.548 C 11.374 16.740,11.602 16.927,11.680 16.965 C 11.943 17.093,12.300 17.039,12.513 16.840 C 12.727 16.639,12.798 16.258,12.668 16.003 C 12.633 15.933,12.189 15.454,11.683 14.939 L 10.762 14.002 10.773 12.704 C 10.778 11.990,10.793 11.395,10.806 11.383 C 10.832 11.357,11.110 11.507,12.146 12.108 L 12.909 12.551 13.166 13.501 C 13.683 15.415,13.703 15.463,14.038 15.630 C 14.281 15.752,14.338 15.756,14.580 15.665 C 14.791 15.586,14.932 15.443,15.017 15.220 C 15.088 15.035,15.077 14.915,14.938 14.314 C 14.781 13.634,14.785 13.663,14.856 13.692 C 14.889 13.705,15.077 13.804,15.273 13.910 C 15.469 14.016,15.722 14.141,15.834 14.186 C 16.036 14.268,16.042 14.269,16.228 14.215 C 16.480 14.143,16.624 14.027,16.720 13.821 C 16.813 13.621,16.821 13.440,16.746 13.221 C 16.682 13.033,16.599 12.962,16.096 12.661 L 15.724 12.438 15.870 12.402 C 16.270 12.301,16.695 12.151,16.796 12.075 C 16.859 12.027,16.944 11.911,16.991 11.809 C 17.140 11.484,17.053 11.128,16.774 10.915 C 16.528 10.727,16.348 10.744,15.020 11.079 L 13.924 11.355 13.698 11.247 C 13.324 11.068,11.566 10.042,11.567 10.003 C 11.567 9.977,11.867 9.794,12.769 9.273 L 13.521 8.838 14.832 9.185 C 15.552 9.376,16.215 9.542,16.304 9.554 C 16.438 9.571,16.496 9.560,16.642 9.489 C 17.072 9.278,17.200 8.731,16.910 8.342 C 16.799 8.191,16.697 8.146,16.051 7.959 C 15.739 7.869,15.479 7.790,15.472 7.783 C 15.443 7.754,15.523 7.696,15.939 7.448 C 16.614 7.044,16.799 6.833,16.800 6.465 C 16.800 6.294,16.654 6.023,16.507 5.922 C 16.353 5.817,16.103 5.752,15.945 5.778 C 15.880 5.788,15.631 5.903,15.394 6.032 C 15.156 6.161,14.947 6.267,14.931 6.267 C 14.885 6.267,14.892 6.203,14.983 5.827 C 15.080 5.428,15.088 5.206,15.013 5.057 C 14.812 4.658,14.349 4.501,13.992 4.710 C 13.697 4.883,13.660 4.972,13.218 6.583 C 13.097 7.022,12.987 7.393,12.974 7.406 C 12.947 7.432,11.363 8.360,11.044 8.536 C 10.931 8.598,10.829 8.640,10.818 8.629 C 10.807 8.618,10.789 8.091,10.777 7.457 L 10.756 6.304 11.616 5.427 C 12.089 4.945,12.536 4.476,12.608 4.385 C 12.738 4.221,12.740 4.216,12.728 3.978 C 12.712 3.668,12.602 3.494,12.333 3.356 C 12.176 3.275,12.123 3.264,11.956 3.278 C 11.714 3.298,11.608 3.369,11.131 3.825 L 10.775 4.166 10.758 3.525 C 10.740 2.861,10.714 2.702,10.597 2.554 C 10.439 2.353,10.030 2.221,9.800 2.296 " fill="#1A1C1F" stroke="none" fill-rule="evenodd"></path></svg>