<svg width="12" height="12" viewBox="0 0 12 12" fill="none" xmlns="http://www.w3.org/2000/svg"><path d="M5.880 1.378 C 5.721 1.430,5.624 1.524,5.580 1.670 C 5.567 1.714,5.551 1.914,5.545 2.114 L 5.535 2.479 5.313 2.269 C 5.041 2.012,4.929 1.949,4.774 1.969 C 4.715 1.976,4.623 2.007,4.566 2.040 C 4.484 2.087,4.453 2.121,4.409 2.210 C 4.363 2.305,4.356 2.338,4.366 2.433 C 4.373 2.505,4.396 2.572,4.430 2.624 C 4.459 2.667,4.721 2.945,5.013 3.240 L 5.543 3.777 5.536 4.467 C 5.533 4.846,5.524 5.163,5.517 5.170 C 5.499 5.188,5.457 5.165,4.795 4.784 L 4.219 4.453 4.170 4.292 C 4.144 4.203,4.053 3.883,3.970 3.580 C 3.863 3.194,3.802 3.006,3.764 2.950 C 3.687 2.837,3.565 2.780,3.399 2.780 C 3.235 2.780,3.122 2.834,3.036 2.953 C 2.981 3.029,2.976 3.048,2.978 3.193 C 2.979 3.287,3.000 3.434,3.030 3.558 C 3.058 3.672,3.077 3.770,3.071 3.775 C 3.066 3.780,2.992 3.744,2.906 3.695 C 2.558 3.495,2.500 3.471,2.357 3.472 C 2.244 3.472,2.208 3.481,2.128 3.531 C 1.953 3.639,1.875 3.882,1.956 4.065 C 2.005 4.177,2.122 4.272,2.479 4.490 C 2.780 4.673,2.779 4.668,2.506 4.739 C 2.111 4.842,1.961 4.899,1.883 4.977 C 1.719 5.141,1.724 5.415,1.895 5.591 C 2.076 5.778,2.136 5.772,3.260 5.471 L 3.889 5.301 4.170 5.463 C 4.769 5.808,5.061 5.988,5.054 6.007 C 5.047 6.028,4.451 6.383,3.968 6.653 L 3.667 6.822 2.988 6.649 C 2.200 6.448,2.119 6.438,1.968 6.530 C 1.730 6.676,1.691 7.012,1.890 7.210 C 1.957 7.278,2.003 7.301,2.180 7.354 C 2.296 7.389,2.429 7.428,2.477 7.440 L 2.564 7.463 2.369 7.583 C 2.140 7.724,2.005 7.824,1.963 7.884 C 1.942 7.914,1.932 7.979,1.931 8.091 C 1.930 8.239,1.935 8.261,1.989 8.338 C 2.067 8.451,2.137 8.497,2.269 8.525 C 2.422 8.557,2.511 8.530,2.840 8.350 C 2.989 8.269,3.113 8.211,3.117 8.221 C 3.120 8.232,3.087 8.392,3.042 8.578 C 2.997 8.764,2.960 8.960,2.960 9.015 C 2.960 9.299,3.325 9.508,3.594 9.378 C 3.778 9.289,3.787 9.267,4.090 8.170 C 4.232 7.653,4.269 7.543,4.310 7.510 C 4.356 7.472,5.102 7.042,5.373 6.896 C 5.441 6.860,5.504 6.837,5.513 6.847 C 5.522 6.856,5.533 7.210,5.536 7.633 L 5.543 8.403 5.046 8.907 C 4.773 9.184,4.518 9.451,4.478 9.500 C 4.349 9.660,4.328 9.801,4.408 9.972 C 4.486 10.140,4.625 10.223,4.826 10.224 C 4.971 10.224,5.016 10.196,5.303 9.923 C 5.420 9.811,5.520 9.720,5.525 9.720 C 5.530 9.720,5.539 9.844,5.546 9.995 C 5.560 10.303,5.579 10.392,5.652 10.478 C 5.721 10.560,5.897 10.643,6.007 10.645 C 6.185 10.648,6.398 10.472,6.441 10.288 C 6.451 10.245,6.459 10.094,6.460 9.953 L 6.460 9.697 6.693 9.918 C 6.960 10.171,7.043 10.220,7.205 10.220 C 7.344 10.220,7.411 10.196,7.497 10.114 C 7.591 10.025,7.639 9.912,7.640 9.778 C 7.640 9.687,7.629 9.650,7.578 9.574 C 7.544 9.522,7.279 9.238,6.988 8.942 L 6.460 8.404 6.460 7.837 C 6.460 7.224,6.477 6.820,6.502 6.820 C 6.510 6.820,6.794 6.980,7.131 7.176 L 7.745 7.531 7.933 8.221 C 8.216 9.264,8.223 9.280,8.430 9.381 C 8.534 9.433,8.576 9.443,8.642 9.434 C 8.753 9.419,8.896 9.327,8.969 9.223 C 9.025 9.144,9.030 9.123,9.028 8.983 C 9.027 8.887,9.003 8.737,8.965 8.580 C 8.931 8.443,8.898 8.300,8.890 8.264 L 8.876 8.198 9.207 8.369 C 9.592 8.568,9.655 8.580,9.841 8.485 C 10.036 8.386,10.121 8.188,10.060 7.972 C 10.024 7.841,9.956 7.776,9.683 7.612 L 9.436 7.463 9.523 7.441 C 9.762 7.381,10.017 7.291,10.077 7.245 C 10.115 7.216,10.167 7.147,10.195 7.085 C 10.284 6.890,10.232 6.677,10.064 6.549 C 9.917 6.436,9.809 6.446,9.012 6.647 L 8.354 6.813 8.202 6.739 C 8.048 6.665,7.270 6.218,7.051 6.079 L 6.933 6.004 7.071 5.915 C 7.148 5.866,7.414 5.708,7.663 5.563 L 8.116 5.300 8.822 5.490 C 9.640 5.710,9.804 5.747,9.888 5.728 C 10.046 5.695,10.165 5.585,10.211 5.431 C 10.248 5.305,10.248 5.230,10.208 5.113 C 10.150 4.943,10.052 4.892,9.474 4.729 C 9.367 4.699,9.282 4.665,9.286 4.653 C 9.290 4.641,9.414 4.558,9.561 4.468 C 9.978 4.215,10.053 4.136,10.074 3.929 C 10.084 3.839,10.077 3.804,10.033 3.713 C 9.964 3.574,9.865 3.504,9.695 3.475 C 9.567 3.453,9.564 3.454,9.418 3.525 C 9.337 3.565,9.200 3.636,9.115 3.683 C 9.030 3.729,8.955 3.761,8.947 3.754 C 8.939 3.746,8.957 3.634,8.987 3.505 C 9.048 3.235,9.053 3.124,9.008 3.034 C 8.887 2.795,8.609 2.700,8.395 2.826 C 8.218 2.929,8.189 2.998,7.960 3.850 C 7.892 4.103,7.817 4.346,7.793 4.390 C 7.754 4.461,7.690 4.505,7.210 4.785 C 6.577 5.154,6.506 5.193,6.491 5.177 C 6.485 5.171,6.474 4.855,6.466 4.474 L 6.454 3.783 6.969 3.256 C 7.662 2.549,7.630 2.591,7.630 2.399 C 7.630 2.259,7.624 2.235,7.570 2.157 C 7.531 2.100,7.471 2.050,7.400 2.013 C 7.306 1.965,7.274 1.958,7.174 1.967 C 7.028 1.979,6.965 2.021,6.679 2.295 L 6.465 2.500 6.455 2.115 C 6.444 1.717,6.428 1.621,6.358 1.532 C 6.261 1.409,6.021 1.331,5.880 1.378 " fill="#1A1C1F" stroke="none" fill-rule="evenodd"></path></svg>