<svg width="24" height="24" viewBox="0 0 24 24" fill="none" xmlns="http://www.w3.org/2000/svg"><path d="M11.543 2.286 C 11.439 2.355,11.305 2.485,11.247 2.573 L 11.140 2.734 11.126 3.707 C 11.118 4.242,11.103 4.680,11.092 4.680 C 11.082 4.680,10.838 4.455,10.550 4.181 C 9.882 3.543,9.788 3.479,9.490 3.452 C 9.177 3.423,8.933 3.528,8.762 3.763 C 8.600 3.988,8.543 4.188,8.578 4.418 C 8.614 4.659,8.785 4.858,10.108 6.202 L 11.120 7.230 11.120 7.885 C 11.120 8.958,11.070 10.400,11.033 10.400 C 10.991 10.400,10.003 9.847,8.912 9.214 L 8.124 8.756 8.024 8.428 C 7.969 8.248,7.790 7.614,7.626 7.020 C 7.238 5.621,7.194 5.505,6.993 5.360 C 6.772 5.199,6.586 5.146,6.347 5.174 C 5.911 5.226,5.600 5.560,5.600 5.976 C 5.600 6.088,5.663 6.441,5.740 6.760 C 5.817 7.079,5.880 7.354,5.880 7.370 C 5.880 7.437,5.764 7.386,5.219 7.082 C 4.544 6.706,4.311 6.620,4.063 6.657 C 3.610 6.725,3.240 7.274,3.356 7.707 C 3.431 7.985,3.719 8.219,4.750 8.841 C 5.019 9.003,5.226 9.149,5.210 9.165 C 5.193 9.181,4.856 9.285,4.460 9.397 C 3.555 9.653,3.276 9.784,3.141 10.015 C 3.007 10.244,2.982 10.397,3.039 10.634 C 3.124 10.989,3.498 11.317,3.820 11.319 C 3.967 11.319,5.028 11.061,6.427 10.683 L 7.475 10.401 8.687 11.106 C 9.354 11.494,9.961 11.853,10.035 11.903 L 10.171 11.995 9.835 12.211 C 9.299 12.557,7.592 13.549,7.294 13.689 L 7.022 13.816 5.561 13.447 C 3.905 13.030,3.700 13.003,3.442 13.174 C 3.111 13.393,2.931 13.810,3.037 14.112 C 3.188 14.542,3.346 14.650,4.161 14.882 C 4.479 14.973,4.755 15.062,4.774 15.079 C 4.811 15.115,4.633 15.243,4.103 15.560 C 3.634 15.841,3.460 16.018,3.379 16.296 C 3.301 16.566,3.342 16.758,3.531 17.005 C 3.710 17.239,3.921 17.341,4.220 17.338 C 4.488 17.335,4.544 17.311,5.432 16.811 C 5.725 16.646,5.974 16.521,5.986 16.532 C 5.997 16.544,5.923 16.888,5.821 17.296 C 5.530 18.465,5.531 18.606,5.826 18.923 C 6.041 19.152,6.312 19.262,6.559 19.220 C 6.744 19.189,7.048 18.998,7.157 18.844 C 7.200 18.784,7.408 18.107,7.620 17.338 C 8.196 15.254,8.181 15.298,8.331 15.186 C 8.622 14.969,10.949 13.600,11.028 13.600 C 11.070 13.600,11.120 15.124,11.120 16.397 L 11.120 17.141 10.536 17.721 C 9.576 18.674,8.673 19.647,8.610 19.797 C 8.356 20.405,9.134 21.179,9.706 20.887 C 9.873 20.802,10.463 20.290,10.839 19.904 C 10.959 19.781,11.069 19.680,11.084 19.680 C 11.099 19.680,11.118 20.027,11.126 20.451 C 11.142 21.211,11.144 21.225,11.255 21.414 C 11.382 21.632,11.646 21.820,11.879 21.860 C 12.138 21.904,12.352 21.812,12.630 21.535 L 12.880 21.287 12.880 20.460 L 12.880 19.633 13.470 20.202 C 14.228 20.933,14.461 21.053,14.829 20.899 C 15.074 20.797,15.244 20.640,15.344 20.425 C 15.504 20.082,15.456 19.840,15.159 19.483 C 15.051 19.353,14.494 18.770,13.921 18.188 L 12.880 17.130 12.880 16.331 C 12.880 15.069,12.929 13.600,12.970 13.600 C 13.092 13.600,15.673 15.155,15.769 15.286 C 15.807 15.338,16.011 16.010,16.223 16.780 C 16.767 18.758,16.778 18.791,16.970 18.968 C 17.194 19.176,17.468 19.263,17.709 19.202 C 17.933 19.146,18.158 18.990,18.286 18.803 C 18.436 18.584,18.410 18.186,18.189 17.300 C 18.090 16.904,18.025 16.574,18.045 16.567 C 18.065 16.559,18.265 16.654,18.490 16.778 C 19.505 17.334,19.755 17.421,20.059 17.320 C 20.472 17.184,20.754 16.675,20.635 16.278 C 20.573 16.073,20.247 15.764,19.837 15.523 C 19.382 15.254,19.189 15.114,19.226 15.079 C 19.245 15.062,19.520 14.973,19.837 14.883 C 20.609 14.663,20.706 14.606,20.873 14.280 C 20.983 14.066,21.003 13.987,20.989 13.831 C 20.968 13.600,20.820 13.364,20.593 13.200 C 20.455 13.100,20.390 13.080,20.196 13.080 C 19.891 13.080,19.769 13.107,18.237 13.507 L 16.934 13.848 15.777 13.179 C 14.277 12.311,13.867 12.062,13.850 12.010 C 13.834 11.962,14.095 11.801,15.508 10.986 L 16.517 10.405 17.868 10.766 C 19.425 11.181,20.005 11.319,20.194 11.320 C 20.496 11.320,20.831 11.047,20.943 10.710 C 21.070 10.327,20.889 9.908,20.513 9.716 C 20.427 9.673,20.012 9.538,19.590 9.416 C 19.167 9.294,18.815 9.188,18.807 9.180 C 18.769 9.143,18.881 9.061,19.411 8.741 C 20.378 8.156,20.567 7.986,20.646 7.632 C 20.705 7.372,20.624 7.140,20.397 6.913 C 20.186 6.703,20.054 6.661,19.687 6.687 C 19.485 6.702,19.373 6.750,18.798 7.072 C 18.352 7.321,18.136 7.422,18.128 7.385 C 18.122 7.356,18.191 7.036,18.282 6.676 C 18.434 6.079,18.444 6.004,18.402 5.840 C 18.327 5.547,18.182 5.366,17.932 5.251 C 17.680 5.136,17.395 5.139,17.155 5.261 C 16.824 5.428,16.812 5.457,16.382 7.001 C 16.005 8.355,15.896 8.693,15.808 8.772 C 15.690 8.878,13.034 10.400,12.968 10.400 C 12.929 10.400,12.880 9.040,12.880 7.939 L 12.880 7.219 13.464 6.639 C 14.581 5.531,15.307 4.737,15.381 4.544 C 15.472 4.304,15.434 4.059,15.268 3.814 C 15.116 3.591,14.925 3.483,14.626 3.452 C 14.301 3.419,14.145 3.514,13.472 4.160 L 12.887 4.720 12.872 3.770 C 12.853 2.586,12.817 2.472,12.391 2.256 C 12.105 2.110,11.792 2.122,11.543 2.286 " fill="#1A1C1F" stroke="none" fill-rule="evenodd"></path></svg>