<svg width="14" height="14" viewBox="0 0 14 14" fill="none" xmlns="http://www.w3.org/2000/svg"><path d="M6.860 1.607 C 6.674 1.668,6.561 1.778,6.510 1.948 C 6.494 2.000,6.476 2.233,6.470 2.467 L 6.458 2.892 6.201 2.648 C 5.887 2.349,5.750 2.273,5.571 2.297 C 5.393 2.321,5.236 2.414,5.161 2.542 C 5.110 2.628,5.099 2.678,5.098 2.802 C 5.098 2.934,5.108 2.970,5.168 3.058 C 5.207 3.114,5.514 3.440,5.851 3.782 L 6.463 4.403 6.463 5.136 C 6.463 5.856,6.453 6.043,6.415 6.043 C 6.404 6.043,6.064 5.853,5.660 5.620 L 4.924 5.196 4.867 5.007 C 4.835 4.903,4.735 4.552,4.644 4.226 C 4.478 3.628,4.418 3.457,4.345 3.375 C 4.227 3.243,3.907 3.200,3.718 3.292 C 3.663 3.318,3.586 3.383,3.547 3.436 C 3.481 3.526,3.477 3.546,3.478 3.732 C 3.478 3.873,3.498 4.005,3.544 4.183 L 3.610 4.433 3.502 4.372 C 3.443 4.338,3.275 4.247,3.127 4.171 C 2.865 4.034,2.857 4.031,2.719 4.046 C 2.450 4.074,2.271 4.254,2.246 4.524 C 2.222 4.773,2.335 4.898,2.892 5.237 C 3.059 5.340,3.188 5.430,3.179 5.439 C 3.169 5.448,2.994 5.505,2.789 5.564 C 2.391 5.680,2.215 5.760,2.148 5.855 C 1.933 6.163,2.131 6.633,2.490 6.667 C 2.642 6.682,2.851 6.637,3.763 6.392 L 4.536 6.185 4.864 6.374 C 5.575 6.784,5.904 6.986,5.897 7.008 C 5.888 7.033,5.193 7.447,4.629 7.762 L 4.276 7.959 3.544 7.773 C 3.141 7.670,2.750 7.575,2.675 7.562 C 2.496 7.530,2.366 7.563,2.238 7.672 C 1.990 7.885,1.992 8.264,2.242 8.446 C 2.331 8.510,2.604 8.609,2.890 8.681 L 2.991 8.706 2.764 8.846 C 2.497 9.011,2.339 9.128,2.290 9.198 C 2.265 9.233,2.254 9.309,2.253 9.441 C 2.252 9.619,2.257 9.639,2.325 9.734 C 2.422 9.867,2.602 9.963,2.757 9.963 C 2.856 9.963,2.927 9.935,3.256 9.766 C 3.525 9.628,3.640 9.579,3.640 9.604 C 3.640 9.623,3.598 9.806,3.547 10.010 C 3.428 10.481,3.426 10.595,3.531 10.748 C 3.623 10.881,3.775 10.969,3.941 10.985 C 4.095 10.999,4.212 10.956,4.327 10.841 C 4.438 10.730,4.455 10.679,4.762 9.567 C 4.866 9.188,4.965 8.852,4.982 8.820 C 5.001 8.783,5.138 8.688,5.358 8.560 C 5.860 8.268,6.381 7.980,6.409 7.980 C 6.453 7.980,6.463 8.182,6.463 9.002 L 6.463 9.807 5.909 10.370 C 5.604 10.679,5.306 10.989,5.247 11.060 C 5.074 11.268,5.045 11.425,5.143 11.634 C 5.234 11.830,5.396 11.927,5.630 11.928 C 5.799 11.928,5.852 11.895,6.187 11.576 C 6.324 11.446,6.442 11.340,6.449 11.340 C 6.457 11.340,6.464 11.437,6.464 11.556 C 6.465 12.045,6.530 12.219,6.759 12.348 C 6.971 12.467,7.165 12.437,7.358 12.253 C 7.510 12.109,7.522 12.069,7.532 11.672 L 7.542 11.317 7.790 11.554 C 8.120 11.869,8.207 11.923,8.382 11.923 C 8.538 11.923,8.662 11.879,8.759 11.788 C 8.907 11.649,8.955 11.399,8.870 11.212 C 8.843 11.152,8.596 10.883,8.180 10.460 L 7.533 9.802 7.541 8.893 C 7.545 8.393,7.556 7.976,7.565 7.967 C 7.579 7.953,8.557 8.497,8.946 8.735 L 9.037 8.791 9.255 9.593 C 9.576 10.773,9.594 10.817,9.802 10.930 C 10.172 11.132,10.594 10.834,10.538 10.410 C 10.529 10.348,10.486 10.141,10.441 9.949 C 10.397 9.758,10.360 9.594,10.360 9.584 C 10.360 9.574,10.533 9.656,10.744 9.765 C 11.191 9.996,11.264 10.009,11.482 9.899 C 11.709 9.784,11.808 9.553,11.737 9.300 C 11.694 9.147,11.615 9.072,11.297 8.880 L 11.008 8.706 11.110 8.681 C 11.388 8.611,11.687 8.506,11.757 8.453 C 11.801 8.419,11.861 8.338,11.894 8.266 C 11.998 8.039,11.936 7.787,11.739 7.636 C 11.575 7.510,11.443 7.522,10.551 7.747 C 10.143 7.849,9.785 7.933,9.757 7.933 C 9.671 7.933,9.364 7.768,8.511 7.262 C 8.283 7.127,8.097 7.010,8.097 7.002 C 8.097 6.984,8.307 6.856,8.938 6.491 L 9.465 6.186 10.245 6.392 C 11.441 6.706,11.459 6.710,11.574 6.676 C 11.715 6.634,11.866 6.485,11.913 6.342 C 11.991 6.109,11.913 5.856,11.730 5.743 C 11.686 5.716,11.459 5.639,11.225 5.571 C 10.730 5.429,10.734 5.468,11.183 5.199 C 11.630 4.930,11.759 4.779,11.760 4.525 C 11.760 4.406,11.658 4.216,11.555 4.146 C 11.447 4.071,11.272 4.026,11.161 4.045 C 11.114 4.052,10.941 4.132,10.777 4.222 C 10.612 4.313,10.463 4.387,10.445 4.387 C 10.420 4.387,10.427 4.329,10.480 4.113 C 10.580 3.702,10.569 3.563,10.423 3.410 C 10.309 3.292,10.182 3.234,10.033 3.234 C 9.893 3.234,9.802 3.272,9.674 3.385 C 9.577 3.470,9.527 3.610,9.285 4.492 C 9.193 4.825,9.112 5.117,9.106 5.140 C 9.099 5.163,8.967 5.257,8.811 5.349 C 8.008 5.823,7.582 6.060,7.570 6.041 C 7.563 6.029,7.551 5.658,7.543 5.215 L 7.529 4.410 8.114 3.818 C 8.721 3.203,8.902 2.990,8.926 2.861 C 8.960 2.678,8.825 2.445,8.628 2.347 C 8.372 2.219,8.204 2.284,7.809 2.661 L 7.542 2.916 7.530 2.467 C 7.518 2.003,7.500 1.892,7.418 1.788 C 7.305 1.644,7.024 1.553,6.860 1.607 " fill="#1A1C1F" stroke="none" fill-rule="evenodd"></path></svg>