<svg width="16" height="16" viewBox="0 0 16 16" fill="none" xmlns="http://www.w3.org/2000/svg"><path d="M7.787 1.864 C 7.614 1.925,7.488 2.055,7.441 2.221 C 7.423 2.283,7.402 2.552,7.394 2.819 L 7.380 3.305 7.084 3.025 C 6.903 2.853,6.732 2.717,6.644 2.674 C 6.509 2.608,6.489 2.605,6.334 2.632 C 6.005 2.688,5.828 2.887,5.827 3.200 C 5.827 3.355,5.837 3.388,5.919 3.507 C 5.970 3.580,6.322 3.954,6.701 4.338 L 7.390 5.036 7.382 5.956 C 7.377 6.462,7.365 6.883,7.356 6.893 C 7.332 6.917,7.271 6.884,6.395 6.380 L 5.631 5.939 5.563 5.723 C 5.526 5.604,5.411 5.202,5.308 4.830 C 5.117 4.146,5.049 3.951,4.966 3.857 C 4.831 3.706,4.465 3.657,4.249 3.762 C 4.186 3.792,4.099 3.867,4.054 3.927 C 3.980 4.028,3.973 4.055,3.973 4.252 C 3.973 4.390,3.997 4.565,4.041 4.744 C 4.078 4.896,4.102 5.027,4.095 5.034 C 4.088 5.041,3.989 4.992,3.875 4.927 C 3.342 4.620,3.195 4.575,2.967 4.651 C 2.644 4.758,2.475 5.130,2.612 5.431 C 2.674 5.569,2.844 5.704,3.305 5.986 C 3.496 6.102,3.643 6.207,3.632 6.219 C 3.620 6.230,3.419 6.294,3.185 6.361 C 2.951 6.427,2.709 6.507,2.646 6.537 C 2.257 6.725,2.254 7.290,2.641 7.550 C 2.840 7.684,2.967 7.665,4.346 7.294 L 5.186 7.068 5.813 7.431 C 6.600 7.886,6.726 7.967,6.714 8.008 C 6.702 8.045,5.872 8.549,5.284 8.875 L 4.884 9.098 4.222 8.924 C 3.074 8.623,2.926 8.594,2.781 8.642 C 2.592 8.704,2.480 8.795,2.412 8.942 C 2.277 9.232,2.376 9.572,2.635 9.704 C 2.729 9.752,3.060 9.859,3.303 9.921 L 3.419 9.950 3.137 10.123 C 2.737 10.369,2.615 10.486,2.584 10.653 C 2.507 11.066,2.762 11.387,3.165 11.387 C 3.261 11.387,3.367 11.344,3.722 11.161 C 4.031 11.002,4.160 10.948,4.160 10.976 C 4.160 10.998,4.124 11.159,4.080 11.334 C 3.925 11.946,3.917 12.007,3.963 12.143 C 4.040 12.368,4.306 12.560,4.542 12.560 C 4.688 12.560,4.839 12.496,4.948 12.387 C 5.075 12.260,5.072 12.267,5.427 10.987 C 5.630 10.251,5.693 10.057,5.741 10.020 C 5.819 9.957,6.775 9.400,7.084 9.236 C 7.219 9.165,7.339 9.117,7.351 9.129 C 7.363 9.141,7.377 9.613,7.382 10.177 L 7.390 11.204 6.728 11.876 C 6.364 12.245,6.023 12.601,5.971 12.667 C 5.799 12.880,5.771 13.069,5.877 13.296 C 5.981 13.520,6.166 13.631,6.435 13.632 C 6.630 13.632,6.694 13.591,7.084 13.217 L 7.379 12.935 7.394 13.335 C 7.407 13.673,7.419 13.754,7.468 13.857 C 7.539 14.004,7.691 14.120,7.888 14.177 C 8.021 14.216,8.041 14.215,8.154 14.172 C 8.293 14.119,8.489 13.950,8.554 13.828 C 8.587 13.767,8.600 13.650,8.608 13.353 C 8.614 13.137,8.625 12.960,8.632 12.960 C 8.640 12.960,8.767 13.076,8.916 13.218 C 9.281 13.565,9.381 13.627,9.579 13.627 C 9.757 13.627,9.899 13.576,10.010 13.472 C 10.179 13.313,10.234 13.027,10.137 12.812 C 10.105 12.742,9.830 12.442,9.349 11.954 L 8.610 11.203 8.618 10.164 C 8.623 9.592,8.636 9.116,8.646 9.105 C 8.663 9.088,9.791 9.716,10.211 9.976 L 10.329 10.048 10.533 10.804 C 10.947 12.337,10.961 12.372,11.239 12.508 C 11.379 12.577,11.434 12.591,11.522 12.579 C 11.671 12.559,11.861 12.436,11.959 12.297 C 12.031 12.195,12.040 12.161,12.039 11.991 C 12.039 11.871,12.007 11.671,11.954 11.453 C 11.908 11.263,11.862 11.066,11.852 11.017 L 11.834 10.927 12.244 11.141 C 12.748 11.404,12.810 11.423,12.995 11.369 C 13.185 11.313,13.301 11.218,13.376 11.056 C 13.458 10.881,13.458 10.719,13.376 10.544 C 13.305 10.392,13.281 10.372,12.870 10.125 L 12.580 9.951 12.696 9.921 C 13.016 9.841,13.356 9.721,13.437 9.660 C 13.487 9.622,13.555 9.529,13.593 9.447 C 13.712 9.187,13.643 8.902,13.419 8.732 C 13.222 8.581,13.078 8.595,12.017 8.863 L 11.141 9.085 10.959 8.998 C 10.653 8.851,9.253 8.034,9.253 8.002 C 9.253 7.981,9.255 7.980,10.097 7.489 L 10.821 7.067 11.764 7.321 C 12.933 7.635,13.080 7.666,13.217 7.629 C 13.624 7.517,13.786 7.020,13.528 6.673 C 13.439 6.553,13.358 6.517,12.840 6.367 C 12.591 6.295,12.383 6.232,12.378 6.227 C 12.355 6.203,12.414 6.158,12.659 6.013 C 13.155 5.719,13.298 5.608,13.372 5.459 C 13.415 5.372,13.440 5.278,13.440 5.200 C 13.440 5.032,13.333 4.824,13.191 4.719 C 13.083 4.639,13.073 4.637,12.840 4.646 L 12.600 4.655 12.284 4.834 C 12.110 4.933,11.957 5.013,11.944 5.013 C 11.908 5.013,11.914 4.964,11.987 4.656 C 12.023 4.501,12.053 4.319,12.053 4.252 C 12.053 3.840,11.555 3.556,11.200 3.765 C 10.952 3.910,10.955 3.902,10.624 5.093 C 10.499 5.541,10.389 5.915,10.379 5.925 C 10.358 5.946,9.098 6.683,8.835 6.828 C 8.745 6.879,8.664 6.913,8.655 6.904 C 8.647 6.896,8.632 6.474,8.622 5.966 L 8.605 5.043 9.293 4.342 C 9.672 3.956,10.028 3.582,10.084 3.511 C 10.178 3.392,10.187 3.368,10.186 3.218 C 10.185 2.939,10.079 2.776,9.828 2.665 C 9.726 2.619,9.667 2.610,9.553 2.622 C 9.370 2.641,9.277 2.704,8.905 3.060 L 8.620 3.333 8.606 2.820 C 8.599 2.538,8.579 2.263,8.563 2.210 C 8.469 1.908,8.113 1.749,7.787 1.864 " fill="#1A1C1F" stroke="none" fill-rule="evenodd"></path></svg>