<svg width="28" height="28" viewBox="0 0 28 28" fill="none" xmlns="http://www.w3.org/2000/svg"><path d="M13.783 1.818 C 13.565 1.870,13.323 2.035,13.260 2.175 C 13.147 2.421,13.105 3.041,13.121 4.209 C 13.137 5.299,13.146 5.407,13.238 5.608 C 13.530 6.243,14.424 6.259,14.757 5.635 C 14.861 5.441,14.863 5.405,14.863 3.990 C 14.863 2.373,14.845 2.243,14.584 2.013 C 14.348 1.806,14.093 1.744,13.783 1.818 M5.600 5.192 C 5.293 5.356,5.110 5.638,5.110 5.946 C 5.110 6.288,5.216 6.428,6.323 7.541 C 7.360 8.583,7.545 8.714,7.908 8.659 C 8.343 8.594,8.720 8.137,8.666 7.740 C 8.653 7.637,8.582 7.467,8.509 7.361 C 8.318 7.083,6.692 5.457,6.422 5.275 C 6.117 5.068,5.876 5.044,5.600 5.192 M21.809 5.136 C 21.614 5.195,20.928 5.811,20.193 6.585 C 19.486 7.331,19.367 7.490,19.334 7.738 C 19.280 8.137,19.656 8.594,20.092 8.659 C 20.454 8.714,20.639 8.583,21.677 7.540 C 22.710 6.501,22.868 6.303,22.899 6.009 C 22.956 5.476,22.333 4.977,21.809 5.136 M12.997 7.978 C 12.419 8.051,11.673 8.321,11.035 8.686 C 9.434 9.604,8.375 11.034,7.999 12.787 C 7.872 13.382,7.881 14.607,8.019 15.248 C 8.310 16.601,8.930 17.647,10.015 18.615 C 10.634 19.167,11.312 19.545,12.258 19.866 L 12.763 20.037 13.837 20.056 C 14.997 20.077,15.123 20.062,15.843 19.823 C 17.877 19.147,19.345 17.603,19.921 15.534 C 20.229 14.428,20.146 12.932,19.716 11.848 C 19.119 10.340,18.051 9.193,16.589 8.489 C 15.694 8.058,15.417 7.996,14.257 7.967 C 13.718 7.953,13.151 7.958,12.997 7.978 M15.041 9.779 C 16.517 10.077,17.867 11.443,18.230 13.006 C 18.347 13.508,18.347 14.492,18.229 15.003 C 18.114 15.506,17.921 15.949,17.618 16.403 C 17.356 16.797,16.793 17.372,16.413 17.633 C 15.471 18.281,14.080 18.524,12.973 18.234 C 12.146 18.017,11.614 17.717,10.976 17.107 C 10.377 16.534,9.992 15.875,9.774 15.050 C 9.656 14.605,9.653 13.421,9.768 12.958 C 10.184 11.284,11.679 9.915,13.323 9.704 C 13.693 9.657,14.642 9.698,15.041 9.779 M22.750 13.154 C 22.299 13.206,22.051 13.388,21.931 13.752 C 21.805 14.133,22.012 14.587,22.392 14.762 C 22.589 14.853,22.705 14.864,23.590 14.878 C 24.806 14.898,25.646 14.838,25.850 14.718 C 26.031 14.611,26.227 14.232,26.227 13.989 C 26.227 13.769,26.090 13.490,25.906 13.336 C 25.808 13.253,25.689 13.211,25.496 13.191 C 25.058 13.145,23.056 13.118,22.750 13.154 M2.341 13.204 C 2.009 13.287,1.736 13.723,1.786 14.093 C 1.822 14.359,1.968 14.616,2.141 14.717 C 2.348 14.838,3.190 14.898,4.410 14.879 C 5.330 14.864,5.404 14.857,5.615 14.753 C 5.933 14.596,6.090 14.345,6.088 13.998 C 6.087 13.788,6.060 13.691,5.960 13.541 C 5.726 13.187,5.724 13.186,4.013 13.175 C 3.179 13.170,2.427 13.183,2.341 13.204 M7.576 19.369 C 7.381 19.428,6.695 20.044,5.960 20.818 C 5.253 21.564,5.134 21.723,5.101 21.972 C 5.047 22.371,5.423 22.827,5.859 22.893 C 6.221 22.947,6.406 22.816,7.443 21.773 C 8.476 20.734,8.634 20.537,8.666 20.243 C 8.723 19.710,8.100 19.210,7.576 19.369 M19.833 19.425 C 19.527 19.589,19.343 19.871,19.343 20.180 C 19.343 20.521,19.448 20.658,20.557 21.773 C 21.594 22.816,21.779 22.947,22.141 22.893 C 22.576 22.828,22.953 22.370,22.900 21.973 C 22.886 21.871,22.815 21.700,22.742 21.594 C 22.551 21.316,20.925 19.690,20.656 19.508 C 20.351 19.302,20.110 19.277,19.833 19.425 M13.627 21.992 C 13.511 22.053,13.354 22.193,13.277 22.303 L 13.137 22.502 13.139 23.979 C 13.141 25.696,13.162 25.833,13.449 26.041 C 13.893 26.363,14.526 26.218,14.783 25.737 C 14.846 25.619,14.861 25.357,14.878 24.072 L 14.898 22.547 14.749 22.340 C 14.575 22.098,14.323 21.943,14.040 21.906 C 13.880 21.885,13.792 21.903,13.627 21.992 " fill="#1A1C1F" stroke="none" fill-rule="evenodd"></path></svg>