<svg width="24" height="24" viewBox="0 0 24 24" fill="none" xmlns="http://www.w3.org/2000/svg"><path d="M11.760 2.055 C 11.363 2.161,11.066 2.481,11.019 2.853 C 10.973 3.223,11.021 5.203,11.081 5.371 C 11.150 5.568,11.370 5.791,11.588 5.888 C 12.101 6.115,12.779 5.832,12.925 5.331 C 12.988 5.114,13.005 3.088,12.947 2.747 C 12.868 2.282,12.252 1.923,11.760 2.055 M18.122 4.670 C 17.964 4.698,17.699 4.902,17.227 5.356 C 16.642 5.921,16.125 6.503,16.035 6.700 C 15.892 7.013,15.959 7.377,16.212 7.664 C 16.406 7.885,16.624 8.000,16.904 8.029 C 17.270 8.067,17.432 7.956,18.366 7.030 C 18.851 6.549,19.215 6.155,19.262 6.060 C 19.315 5.950,19.340 5.819,19.339 5.640 C 19.337 5.201,19.079 4.844,18.680 4.728 C 18.495 4.674,18.243 4.648,18.122 4.670 M5.220 4.740 C 5.022 4.846,4.765 5.125,4.695 5.308 C 4.617 5.513,4.637 5.835,4.744 6.067 C 4.786 6.161,5.131 6.534,5.632 7.029 C 6.685 8.070,6.847 8.156,7.377 7.958 C 7.801 7.799,8.086 7.342,8.028 6.911 C 7.994 6.660,7.761 6.359,7.021 5.617 C 6.163 4.755,6.097 4.710,5.667 4.690 C 5.420 4.679,5.311 4.691,5.220 4.740 M11.200 8.098 C 10.176 8.318,9.218 8.974,8.661 9.835 C 8.410 10.222,8.263 10.556,8.134 11.029 C 8.041 11.369,8.027 11.495,8.027 12.000 C 8.027 12.495,8.042 12.636,8.129 12.960 C 8.560 14.574,9.880 15.749,11.500 15.963 C 12.338 16.073,13.353 15.847,14.096 15.384 C 15.095 14.761,15.735 13.792,15.946 12.581 C 16.172 11.288,15.583 9.764,14.534 8.926 C 14.156 8.625,13.459 8.270,13.020 8.155 C 12.603 8.047,11.589 8.015,11.200 8.098 M12.560 10.107 C 13.181 10.276,13.696 10.804,13.896 11.477 C 13.984 11.777,13.979 12.291,13.884 12.596 C 13.604 13.496,12.614 14.122,11.714 13.967 C 11.170 13.874,10.620 13.510,10.327 13.049 C 10.106 12.703,10.030 12.396,10.046 11.916 C 10.060 11.512,10.069 11.477,10.230 11.151 C 10.675 10.253,11.591 9.843,12.560 10.107 M3.160 11.041 C 2.650 11.068,2.556 11.096,2.342 11.284 C 2.118 11.481,2.023 11.693,2.023 12.000 C 2.023 12.409,2.226 12.709,2.648 12.924 C 2.809 13.006,2.853 13.008,4.037 12.992 C 5.191 12.977,5.269 12.971,5.424 12.890 C 5.615 12.790,5.826 12.563,5.907 12.369 C 5.990 12.171,5.981 11.800,5.890 11.593 C 5.793 11.374,5.530 11.136,5.332 11.086 C 5.139 11.038,3.765 11.009,3.160 11.041 M19.160 11.041 C 18.650 11.068,18.556 11.096,18.342 11.284 C 18.118 11.481,18.023 11.693,18.023 12.000 C 18.023 12.409,18.226 12.709,18.648 12.924 C 18.809 13.006,18.853 13.008,20.037 12.992 C 21.191 12.977,21.269 12.971,21.424 12.890 C 21.615 12.790,21.826 12.563,21.907 12.369 C 21.990 12.171,21.981 11.800,21.890 11.593 C 21.793 11.374,21.530 11.136,21.332 11.086 C 21.139 11.038,19.765 11.009,19.160 11.041 M6.696 16.039 C 6.345 16.218,4.883 17.643,4.739 17.947 C 4.487 18.480,4.779 19.139,5.341 19.302 C 5.606 19.379,5.853 19.356,6.099 19.230 C 6.303 19.127,7.649 17.778,7.861 17.465 C 8.007 17.249,8.020 17.209,8.019 16.965 C 8.016 16.566,7.816 16.254,7.433 16.056 C 7.225 15.949,6.888 15.941,6.696 16.039 M16.661 16.008 C 16.433 16.071,16.062 16.450,15.999 16.684 C 15.942 16.893,15.970 17.185,16.063 17.366 C 16.150 17.534,17.255 18.702,17.634 19.025 C 17.875 19.231,17.967 19.284,18.152 19.322 C 18.598 19.415,19.003 19.230,19.222 18.832 C 19.376 18.552,19.385 18.191,19.243 17.920 C 19.129 17.702,17.797 16.365,17.480 16.151 C 17.231 15.982,16.937 15.931,16.661 16.008 M11.760 18.055 C 11.363 18.161,11.066 18.481,11.019 18.853 C 10.973 19.223,11.021 21.203,11.081 21.371 C 11.150 21.568,11.370 21.791,11.588 21.888 C 12.101 22.115,12.779 21.832,12.925 21.331 C 12.988 21.114,13.005 19.088,12.947 18.747 C 12.868 18.282,12.252 17.923,11.760 18.055 " fill="#1A1C1F" stroke="none" fill-rule="evenodd"></path></svg>