<svg width="12" height="12" viewBox="0 0 12 12" fill="none" xmlns="http://www.w3.org/2000/svg"><path d="M5.750 1.266 C 5.622 1.328,5.513 1.439,5.447 1.575 L 5.394 1.683 5.405 2.119 C 5.418 2.627,5.430 2.670,5.597 2.826 C 5.735 2.954,5.816 2.986,6.000 2.986 C 6.183 2.985,6.269 2.951,6.405 2.824 C 6.570 2.671,6.582 2.625,6.595 2.119 L 6.606 1.683 6.551 1.570 C 6.440 1.344,6.275 1.239,6.010 1.226 C 5.872 1.219,5.836 1.225,5.750 1.266 M2.890 2.458 C 2.631 2.525,2.435 2.776,2.435 3.040 C 2.435 3.108,2.455 3.179,2.498 3.272 C 2.550 3.384,2.606 3.451,2.829 3.671 C 3.166 4.003,3.248 4.049,3.475 4.036 C 3.658 4.025,3.757 3.984,3.870 3.870 C 3.978 3.763,4.024 3.659,4.036 3.496 C 4.050 3.289,4.020 3.211,3.841 3.007 C 3.648 2.787,3.377 2.545,3.271 2.498 C 3.176 2.457,2.976 2.435,2.890 2.458 M8.827 2.458 C 8.699 2.491,8.564 2.591,8.319 2.839 C 8.022 3.138,7.960 3.240,7.960 3.433 C 7.960 3.671,8.069 3.864,8.263 3.970 C 8.410 4.050,8.652 4.065,8.774 4.003 C 8.892 3.943,9.117 3.741,9.323 3.511 C 9.467 3.349,9.508 3.289,9.533 3.201 C 9.594 2.992,9.517 2.701,9.372 2.590 C 9.226 2.479,8.980 2.419,8.827 2.458 M5.650 3.631 C 5.172 3.717,4.721 3.932,4.375 4.239 C 4.253 4.347,4.039 4.613,3.937 4.783 C 3.686 5.203,3.569 5.737,3.619 6.238 C 3.701 7.063,4.246 7.831,4.986 8.169 C 5.386 8.351,5.761 8.416,6.205 8.380 C 7.079 8.308,7.859 7.745,8.202 6.938 C 8.294 6.721,8.379 6.364,8.393 6.131 C 8.434 5.456,8.121 4.686,7.626 4.240 C 7.470 4.101,7.162 3.897,6.990 3.820 C 6.616 3.652,6.006 3.566,5.650 3.631 M6.261 4.840 C 6.565 4.898,6.921 5.182,7.064 5.480 C 7.156 5.674,7.183 5.790,7.183 6.000 C 7.183 6.209,7.156 6.325,7.063 6.520 C 6.962 6.731,6.728 6.966,6.520 7.066 C 6.221 7.210,5.929 7.230,5.620 7.127 C 5.423 7.062,5.312 6.988,5.146 6.814 C 4.909 6.563,4.820 6.338,4.820 5.991 C 4.821 5.674,4.923 5.421,5.146 5.186 C 5.262 5.062,5.436 4.948,5.620 4.874 C 5.730 4.829,5.781 4.821,5.952 4.821 C 6.064 4.820,6.203 4.829,6.261 4.840 M1.544 5.472 C 1.159 5.664,1.092 6.137,1.408 6.436 C 1.560 6.580,1.600 6.589,2.100 6.589 C 2.600 6.589,2.640 6.580,2.792 6.436 C 3.104 6.141,3.048 5.695,2.672 5.479 L 2.570 5.420 2.109 5.420 C 1.653 5.420,1.647 5.421,1.544 5.472 M9.344 5.472 C 8.959 5.664,8.892 6.137,9.208 6.436 C 9.360 6.580,9.400 6.589,9.900 6.589 C 10.400 6.589,10.440 6.580,10.592 6.436 C 10.904 6.141,10.848 5.695,10.472 5.479 L 10.370 5.420 9.909 5.420 C 9.453 5.420,9.447 5.421,9.344 5.472 M3.230 7.996 C 3.146 8.036,2.833 8.306,2.678 8.473 C 2.481 8.684,2.397 8.889,2.439 9.054 C 2.514 9.352,2.741 9.558,2.994 9.560 C 3.210 9.560,3.283 9.530,3.475 9.360 C 3.704 9.157,3.954 8.874,4.005 8.762 C 4.057 8.646,4.047 8.409,3.985 8.290 C 3.929 8.181,3.808 8.062,3.706 8.017 C 3.578 7.959,3.331 7.948,3.230 7.996 M8.285 8.020 C 8.074 8.126,7.960 8.319,7.960 8.567 C 7.960 8.763,8.021 8.863,8.329 9.171 C 8.731 9.574,8.919 9.645,9.206 9.504 C 9.498 9.360,9.628 9.067,9.529 8.776 C 9.489 8.658,9.312 8.450,9.067 8.231 C 8.821 8.011,8.753 7.976,8.560 7.965 C 8.423 7.957,8.399 7.962,8.285 8.020 M5.750 9.066 C 5.622 9.128,5.513 9.239,5.447 9.375 L 5.394 9.483 5.405 9.919 C 5.418 10.427,5.430 10.470,5.597 10.626 C 5.735 10.754,5.816 10.786,6.000 10.786 C 6.183 10.785,6.269 10.751,6.405 10.624 C 6.570 10.471,6.582 10.425,6.595 9.919 L 6.606 9.483 6.551 9.370 C 6.440 9.144,6.275 9.039,6.010 9.026 C 5.872 9.019,5.836 9.025,5.750 9.066 " fill="#1A1C1F" stroke="none" fill-rule="evenodd"></path></svg>