<svg width="32" height="32" viewBox="0 0 32 32" fill="none" xmlns="http://www.w3.org/2000/svg"><path d="M15.782 2.076 C 15.520 2.128,15.231 2.315,15.154 2.486 C 15.025 2.767,14.977 3.475,14.996 4.810 C 15.013 6.056,15.023 6.179,15.129 6.409 C 15.295 6.769,15.601 6.961,16.008 6.958 C 16.262 6.957,16.355 6.929,16.540 6.798 C 16.663 6.711,16.814 6.544,16.875 6.427 C 16.981 6.223,16.987 6.134,16.987 4.533 C 16.987 3.609,16.969 2.789,16.947 2.711 C 16.895 2.527,16.667 2.256,16.487 2.165 C 16.294 2.068,16.010 2.032,15.782 2.076 M6.400 5.933 C 6.049 6.121,5.840 6.443,5.840 6.796 C 5.840 7.186,5.960 7.343,7.227 8.617 C 8.412 9.809,8.624 9.958,9.038 9.896 C 9.534 9.822,9.965 9.300,9.904 8.846 C 9.889 8.728,9.808 8.533,9.725 8.412 C 9.506 8.095,7.648 6.236,7.340 6.028 C 6.991 5.792,6.716 5.764,6.400 5.933 M24.925 5.869 C 24.702 5.937,23.918 6.641,23.078 7.526 C 22.270 8.378,22.134 8.560,22.096 8.844 C 22.035 9.300,22.464 9.822,22.962 9.896 C 23.376 9.958,23.588 9.809,24.773 8.617 C 26.039 7.344,26.161 7.184,26.157 6.801 C 26.151 6.173,25.513 5.691,24.925 5.869 M14.960 9.121 C 13.665 9.238,12.156 10.009,11.027 11.130 C 9.373 12.772,8.693 15.084,9.173 17.437 C 9.444 18.770,10.002 19.808,10.997 20.831 C 11.853 21.712,12.749 22.285,13.816 22.633 C 14.644 22.902,15.052 22.961,16.080 22.955 C 17.062 22.950,17.410 22.895,18.195 22.622 C 19.235 22.261,20.129 21.719,20.843 21.017 C 21.840 20.036,22.494 18.876,22.831 17.493 C 22.992 16.829,23.010 15.371,22.864 14.685 C 22.664 13.742,22.327 12.927,21.808 12.133 C 21.454 11.592,20.477 10.610,19.925 10.241 C 19.101 9.690,17.987 9.233,17.199 9.123 C 16.753 9.061,15.630 9.060,14.960 9.121 M17.190 11.176 C 18.877 11.516,20.420 13.077,20.835 14.863 C 20.968 15.436,20.968 16.564,20.835 17.137 C 20.619 18.066,20.138 18.901,19.429 19.579 C 18.930 20.056,18.638 20.263,18.119 20.509 C 17.129 20.979,15.850 21.107,14.826 20.839 C 13.881 20.591,13.273 20.248,12.544 19.551 C 11.860 18.896,11.420 18.143,11.170 17.200 C 11.036 16.692,11.032 15.339,11.163 14.809 C 11.638 12.897,13.350 11.331,15.227 11.091 C 15.649 11.036,16.734 11.083,17.190 11.176 M26.000 15.033 C 25.636 15.075,25.392 15.189,25.234 15.389 C 24.836 15.895,25.041 16.658,25.636 16.887 C 25.868 16.977,26.057 16.986,27.549 16.983 C 29.153 16.980,29.213 16.976,29.453 16.860 C 29.895 16.646,30.098 16.026,29.872 15.585 C 29.717 15.283,29.529 15.136,29.238 15.090 C 28.871 15.032,26.384 14.988,26.000 15.033 M2.676 15.091 C 2.296 15.185,1.985 15.684,2.041 16.107 C 2.090 16.473,2.244 16.706,2.532 16.850 C 2.790 16.979,2.800 16.980,4.476 16.983 C 6.143 16.987,6.163 16.985,6.417 16.860 C 6.781 16.681,6.961 16.394,6.958 15.997 C 6.957 15.758,6.926 15.647,6.812 15.475 C 6.543 15.068,6.542 15.068,4.587 15.057 C 3.633 15.051,2.773 15.066,2.676 15.091 M8.658 22.136 C 8.436 22.204,7.651 22.907,6.811 23.792 C 6.003 24.645,5.867 24.827,5.829 25.110 C 5.768 25.566,6.198 26.088,6.696 26.163 C 7.109 26.225,7.321 26.075,8.507 24.883 C 9.687 23.696,9.868 23.470,9.904 23.135 C 9.969 22.525,9.257 21.954,8.658 22.136 M22.667 22.200 C 22.316 22.387,22.107 22.710,22.107 23.062 C 22.107 23.453,22.228 23.612,23.493 24.885 C 24.679 26.076,24.890 26.225,25.304 26.163 C 25.801 26.089,26.232 25.566,26.171 25.112 C 26.155 24.995,26.074 24.800,25.991 24.679 C 25.773 24.361,23.914 22.503,23.606 22.295 C 23.258 22.059,22.982 22.031,22.667 22.200 M15.573 25.133 C 15.441 25.204,15.261 25.364,15.173 25.489 L 15.013 25.716 15.017 27.407 C 15.020 29.370,15.044 29.525,15.371 29.762 C 15.877 30.129,16.599 29.964,16.896 29.413 C 16.969 29.278,16.985 28.987,17.004 27.510 L 17.025 25.767 16.856 25.531 C 16.657 25.254,16.369 25.078,16.046 25.036 C 15.863 25.011,15.762 25.032,15.573 25.133 " fill="#1A1C1F" stroke="none" fill-rule="evenodd"></path></svg>