<svg width="20" height="20" viewBox="0 0 20 20" fill="none" xmlns="http://www.w3.org/2000/svg"><path d="M9.583 2.110 C 9.383 2.206,9.153 2.448,9.059 2.660 C 8.994 2.806,8.991 2.859,9.009 3.537 C 9.030 4.377,9.050 4.451,9.329 4.710 C 9.558 4.923,9.693 4.977,10.002 4.978 C 10.195 4.979,10.289 4.962,10.406 4.905 C 10.605 4.809,10.883 4.514,10.932 4.347 C 10.953 4.275,10.979 3.899,10.990 3.510 L 11.010 2.804 10.918 2.616 C 10.734 2.240,10.458 2.064,10.017 2.043 C 9.787 2.032,9.727 2.041,9.583 2.110 M4.817 4.096 C 4.376 4.211,4.051 4.634,4.056 5.087 C 4.058 5.371,4.214 5.615,4.716 6.119 C 5.263 6.667,5.408 6.749,5.792 6.726 C 6.097 6.708,6.268 6.632,6.466 6.426 C 6.540 6.349,6.630 6.206,6.667 6.109 C 6.741 5.909,6.752 5.582,6.689 5.409 C 6.597 5.156,5.737 4.290,5.454 4.165 C 5.294 4.095,4.961 4.059,4.817 4.096 M14.733 4.097 C 14.553 4.135,14.439 4.207,14.129 4.477 C 13.770 4.791,13.410 5.202,13.325 5.395 C 13.237 5.593,13.255 5.984,13.361 6.191 C 13.533 6.524,13.816 6.703,14.208 6.726 C 14.582 6.749,14.727 6.669,15.245 6.155 C 15.469 5.932,15.700 5.681,15.758 5.596 C 16.017 5.219,15.975 4.681,15.664 4.369 C 15.452 4.157,15.034 4.035,14.733 4.097 M9.200 6.099 C 8.150 6.323,7.256 6.932,6.668 7.822 C 5.709 9.274,5.795 11.084,6.888 12.490 C 7.520 13.302,8.565 13.877,9.571 13.966 C 10.836 14.077,11.988 13.662,12.850 12.785 C 13.578 12.044,13.983 11.049,13.983 10.000 C 13.983 9.376,13.859 8.835,13.581 8.250 C 13.049 7.128,11.939 6.297,10.687 6.084 C 10.278 6.014,9.562 6.021,9.200 6.099 M10.440 8.070 C 10.742 8.132,11.081 8.317,11.337 8.558 C 11.991 9.175,12.164 10.075,11.778 10.859 C 11.601 11.220,11.213 11.611,10.867 11.777 C 10.369 12.017,9.881 12.050,9.367 11.879 C 9.038 11.769,8.853 11.647,8.577 11.356 C 8.185 10.942,8.033 10.563,8.033 9.999 C 8.033 9.156,8.526 8.463,9.367 8.123 C 9.551 8.048,9.635 8.035,9.923 8.034 C 10.110 8.034,10.343 8.050,10.440 8.070 M2.610 9.098 C 2.413 9.188,2.168 9.424,2.089 9.600 C 2.041 9.708,2.022 9.820,2.022 10.000 C 2.023 10.313,2.105 10.500,2.337 10.717 C 2.611 10.973,2.648 10.982,3.467 10.981 C 4.308 10.980,4.406 10.960,4.637 10.743 C 5.172 10.243,5.087 9.495,4.454 9.132 L 4.283 9.034 3.517 9.034 C 2.835 9.035,2.735 9.042,2.610 9.098 M15.610 9.098 C 15.413 9.188,15.168 9.424,15.089 9.600 C 15.041 9.708,15.022 9.820,15.022 10.000 C 15.023 10.313,15.105 10.500,15.337 10.717 C 15.611 10.973,15.648 10.982,16.467 10.981 C 17.308 10.980,17.406 10.960,17.637 10.743 C 18.172 10.243,18.087 9.495,17.454 9.132 L 17.283 9.034 16.517 9.034 C 15.835 9.035,15.735 9.042,15.610 9.098 M5.383 13.327 C 5.069 13.478,4.262 14.293,4.124 14.600 C 4.023 14.822,4.034 15.067,4.156 15.333 C 4.334 15.720,4.658 15.933,5.068 15.933 C 5.398 15.933,5.580 15.818,6.148 15.250 C 6.668 14.730,6.749 14.585,6.726 14.208 C 6.709 13.910,6.633 13.735,6.442 13.547 C 6.267 13.376,6.081 13.301,5.776 13.281 C 5.564 13.267,5.492 13.275,5.383 13.327 M13.809 13.366 C 13.457 13.544,13.267 13.864,13.267 14.278 C 13.267 14.604,13.369 14.772,13.882 15.286 C 14.230 15.635,14.362 15.744,14.542 15.832 C 14.832 15.975,15.040 15.982,15.304 15.861 C 15.686 15.685,15.903 15.389,15.927 15.011 C 15.954 14.603,15.772 14.312,15.131 13.736 C 14.705 13.354,14.592 13.293,14.267 13.275 C 14.038 13.262,13.999 13.270,13.809 13.366 M9.583 15.110 C 9.383 15.206,9.153 15.448,9.059 15.660 C 8.994 15.806,8.991 15.859,9.009 16.537 C 9.030 17.377,9.050 17.451,9.329 17.710 C 9.558 17.923,9.693 17.977,10.002 17.978 C 10.195 17.979,10.289 17.962,10.406 17.905 C 10.605 17.809,10.883 17.514,10.932 17.347 C 10.953 17.275,10.979 16.899,10.990 16.510 L 11.010 15.804 10.918 15.616 C 10.734 15.240,10.458 15.064,10.017 15.043 C 9.787 15.032,9.727 15.041,9.583 15.110 " fill="#1A1C1F" stroke="none" fill-rule="evenodd"></path></svg>