<svg width="14" height="14" viewBox="0 0 14 14" fill="none" xmlns="http://www.w3.org/2000/svg"><path d="M6.706 1.478 C 6.557 1.549,6.434 1.675,6.355 1.837 L 6.293 1.963 6.307 2.457 C 6.314 2.729,6.333 2.993,6.347 3.043 C 6.382 3.160,6.576 3.366,6.716 3.433 C 6.866 3.506,7.134 3.506,7.284 3.433 C 7.424 3.366,7.618 3.160,7.653 3.043 C 7.667 2.993,7.686 2.729,7.693 2.457 L 7.707 1.963 7.642 1.831 C 7.514 1.568,7.321 1.445,7.012 1.430 C 6.851 1.422,6.809 1.429,6.706 1.478 M3.372 2.867 C 3.063 2.948,2.836 3.244,2.839 3.561 C 2.841 3.760,2.950 3.930,3.301 4.283 C 3.684 4.667,3.786 4.725,4.055 4.709 C 4.266 4.696,4.390 4.641,4.527 4.501 C 4.690 4.333,4.761 4.003,4.682 3.786 C 4.618 3.609,4.016 3.003,3.818 2.916 C 3.706 2.866,3.472 2.841,3.372 2.867 M10.313 2.868 C 10.187 2.894,10.107 2.945,9.891 3.134 C 9.639 3.354,9.387 3.641,9.327 3.777 C 9.266 3.915,9.279 4.189,9.353 4.334 C 9.473 4.566,9.671 4.692,9.945 4.709 C 10.208 4.724,10.310 4.668,10.672 4.307 C 10.829 4.151,10.991 3.975,11.031 3.917 C 11.212 3.654,11.183 3.276,10.965 3.058 C 10.816 2.910,10.524 2.824,10.313 2.868 M6.487 4.259 C 6.186 4.321,6.011 4.380,5.781 4.495 C 5.017 4.878,4.500 5.512,4.290 6.323 C 3.999 7.449,4.475 8.671,5.460 9.329 C 5.824 9.571,6.292 9.740,6.700 9.776 C 7.583 9.853,8.386 9.565,8.996 8.950 C 9.747 8.193,9.991 7.020,9.609 6.006 C 9.289 5.156,8.538 4.496,7.665 4.297 C 7.482 4.256,6.956 4.197,6.806 4.202 C 6.778 4.202,6.635 4.228,6.487 4.259 M1.808 6.378 C 1.667 6.445,1.488 6.630,1.445 6.756 C 1.427 6.807,1.414 6.922,1.415 7.012 C 1.417 7.214,1.486 7.365,1.644 7.510 C 1.829 7.681,1.858 7.687,2.427 7.686 C 3.050 7.686,3.089 7.676,3.279 7.482 C 3.441 7.317,3.483 7.211,3.481 6.975 C 3.479 6.763,3.428 6.651,3.265 6.501 C 3.088 6.337,3.023 6.323,2.408 6.324 C 1.950 6.324,1.919 6.327,1.808 6.378 M10.908 6.378 C 10.767 6.445,10.588 6.630,10.545 6.756 C 10.527 6.807,10.514 6.922,10.515 7.012 C 10.517 7.214,10.586 7.365,10.744 7.510 C 10.929 7.681,10.958 7.687,11.527 7.686 C 12.150 7.686,12.189 7.676,12.379 7.482 C 12.541 7.317,12.583 7.211,12.581 6.975 C 12.579 6.763,12.528 6.651,12.365 6.501 C 12.188 6.337,12.123 6.323,11.508 6.324 C 11.050 6.324,11.019 6.327,10.908 6.378 M3.763 9.335 C 3.533 9.451,2.979 10.009,2.888 10.216 C 2.825 10.357,2.837 10.609,2.913 10.757 C 2.982 10.891,3.113 11.027,3.232 11.090 C 3.354 11.154,3.706 11.162,3.815 11.102 C 4.017 10.992,4.611 10.389,4.680 10.224 C 4.724 10.119,4.722 9.886,4.677 9.732 C 4.633 9.585,4.501 9.443,4.328 9.357 C 4.162 9.275,3.901 9.264,3.763 9.335 M9.666 9.356 C 9.420 9.481,9.287 9.705,9.287 9.995 C 9.287 10.223,9.358 10.340,9.717 10.700 C 9.959 10.942,10.054 11.021,10.179 11.082 C 10.383 11.182,10.527 11.188,10.713 11.102 C 10.980 10.979,11.132 10.773,11.149 10.508 C 11.168 10.222,11.040 10.018,10.592 9.616 C 10.293 9.348,10.214 9.305,9.987 9.293 C 9.827 9.284,9.799 9.289,9.666 9.356 M6.706 10.578 C 6.557 10.649,6.434 10.775,6.355 10.937 L 6.293 11.063 6.307 11.557 C 6.314 11.829,6.333 12.093,6.347 12.143 C 6.382 12.260,6.576 12.466,6.716 12.533 C 6.797 12.573,6.864 12.585,7.000 12.585 C 7.136 12.585,7.203 12.573,7.284 12.533 C 7.424 12.466,7.618 12.260,7.653 12.143 C 7.667 12.093,7.686 11.829,7.693 11.557 L 7.707 11.063 7.642 10.931 C 7.514 10.668,7.321 10.545,7.012 10.530 C 6.851 10.522,6.809 10.529,6.706 10.578 " fill="#1A1C1F" stroke="none" fill-rule="evenodd"></path></svg>