<svg width="16" height="16" viewBox="0 0 16 16" fill="none" xmlns="http://www.w3.org/2000/svg"><path d="M7.667 1.688 C 7.505 1.766,7.301 1.978,7.250 2.121 C 7.223 2.199,7.213 2.378,7.213 2.800 C 7.213 3.484,7.229 3.545,7.454 3.758 C 7.644 3.938,7.751 3.982,8.000 3.982 C 8.246 3.982,8.354 3.939,8.537 3.768 C 8.761 3.559,8.778 3.499,8.794 2.823 L 8.808 2.243 8.734 2.093 C 8.587 1.792,8.367 1.652,8.013 1.634 C 7.830 1.625,7.781 1.633,7.667 1.688 M3.840 3.277 C 3.606 3.354,3.400 3.533,3.305 3.743 C 3.247 3.869,3.240 4.110,3.289 4.287 C 3.348 4.502,4.049 5.222,4.314 5.339 C 4.464 5.406,4.783 5.396,4.941 5.321 C 5.076 5.257,5.256 5.078,5.318 4.948 C 5.382 4.812,5.404 4.516,5.361 4.363 C 5.301 4.149,4.619 3.445,4.360 3.331 C 4.235 3.275,3.938 3.245,3.840 3.277 M11.725 3.290 C 11.549 3.356,11.409 3.466,11.077 3.801 C 10.666 4.216,10.601 4.334,10.619 4.634 C 10.633 4.869,10.693 5.011,10.841 5.159 C 10.989 5.307,11.131 5.367,11.366 5.381 C 11.667 5.399,11.776 5.338,12.200 4.914 C 12.662 4.452,12.747 4.319,12.747 4.054 C 12.747 3.630,12.437 3.304,12.000 3.267 C 11.883 3.257,11.794 3.265,11.725 3.290 M7.347 4.880 C 7.039 4.950,6.821 5.029,6.533 5.177 C 5.278 5.820,4.587 7.241,4.868 8.603 C 5.206 10.239,6.624 11.307,8.279 11.172 C 9.445 11.077,10.509 10.301,10.945 9.227 C 11.357 8.210,11.254 7.140,10.657 6.244 C 10.167 5.508,9.373 4.992,8.540 4.866 C 8.180 4.812,7.617 4.818,7.347 4.880 M2.067 7.290 C 1.905 7.365,1.701 7.578,1.651 7.721 C 1.631 7.779,1.616 7.911,1.617 8.013 C 1.620 8.250,1.690 8.406,1.869 8.573 C 2.091 8.780,2.117 8.786,2.787 8.786 C 3.468 8.785,3.520 8.774,3.723 8.581 C 4.138 8.189,4.063 7.592,3.563 7.305 L 3.427 7.227 2.813 7.227 C 2.226 7.227,2.194 7.230,2.067 7.290 M12.467 7.290 C 12.305 7.365,12.101 7.578,12.051 7.721 C 12.031 7.779,12.016 7.911,12.017 8.013 C 12.020 8.250,12.090 8.406,12.269 8.573 C 12.491 8.780,12.517 8.786,13.187 8.786 C 13.868 8.785,13.920 8.774,14.123 8.581 C 14.538 8.189,14.463 7.592,13.963 7.305 L 13.827 7.227 13.213 7.227 C 12.626 7.227,12.594 7.230,12.467 7.290 M4.322 10.653 C 4.136 10.738,3.562 11.268,3.403 11.502 C 3.271 11.698,3.213 11.916,3.252 12.072 C 3.295 12.244,3.394 12.426,3.498 12.525 C 3.633 12.655,3.868 12.752,4.050 12.754 C 4.296 12.756,4.478 12.643,4.895 12.227 C 5.334 11.790,5.399 11.673,5.381 11.366 C 5.362 11.051,5.205 10.807,4.945 10.691 C 4.790 10.621,4.439 10.600,4.322 10.653 M11.142 10.651 C 10.829 10.735,10.613 11.051,10.613 11.425 C 10.613 11.681,10.695 11.815,11.105 12.227 C 11.515 12.640,11.695 12.750,11.960 12.750 C 12.269 12.750,12.610 12.503,12.709 12.208 C 12.774 12.011,12.750 11.750,12.653 11.582 C 12.571 11.442,12.024 10.887,11.846 10.764 C 11.632 10.616,11.406 10.580,11.142 10.651 M7.667 12.088 C 7.505 12.166,7.301 12.378,7.250 12.521 C 7.223 12.599,7.213 12.778,7.213 13.200 C 7.213 13.884,7.229 13.945,7.454 14.158 C 7.644 14.338,7.751 14.382,8.000 14.382 C 8.246 14.382,8.354 14.339,8.537 14.168 C 8.761 13.959,8.778 13.899,8.794 13.223 L 8.808 12.643 8.734 12.493 C 8.587 12.192,8.367 12.052,8.013 12.034 C 7.830 12.025,7.781 12.033,7.667 12.088 " fill="#1A1C1F" stroke="none" fill-rule="evenodd"></path></svg>