<svg width="12" height="12" viewBox="0 0 12 12" fill="none" xmlns="http://www.w3.org/2000/svg"><path d="M5.750 1.266 C 5.622 1.328,5.513 1.439,5.447 1.575 L 5.394 1.683 5.405 2.119 C 5.418 2.627,5.430 2.670,5.597 2.826 C 5.735 2.954,5.816 2.986,6.000 2.986 C 6.183 2.985,6.269 2.951,6.405 2.824 C 6.570 2.671,6.582 2.625,6.595 2.119 L 6.606 1.683 6.551 1.570 C 6.440 1.344,6.275 1.239,6.010 1.226 C 5.872 1.219,5.836 1.225,5.750 1.266 M2.867 2.461 C 2.696 2.513,2.502 2.706,2.458 2.866 C 2.429 2.974,2.447 3.197,2.493 3.293 C 2.548 3.410,3.078 3.926,3.208 3.990 C 3.501 4.133,3.908 3.965,4.006 3.661 C 4.045 3.541,4.048 3.341,4.013 3.246 C 3.958 3.093,3.443 2.574,3.272 2.499 C 3.172 2.454,2.954 2.434,2.867 2.461 M8.827 2.458 C 8.699 2.491,8.564 2.591,8.319 2.839 C 8.022 3.138,7.960 3.240,7.960 3.433 C 7.960 3.671,8.069 3.864,8.263 3.970 C 8.349 4.017,8.401 4.029,8.533 4.036 C 8.683 4.044,8.704 4.040,8.801 3.987 C 8.916 3.925,9.361 3.495,9.457 3.354 C 9.565 3.195,9.587 3.039,9.530 2.846 C 9.491 2.713,9.353 2.559,9.225 2.504 C 9.116 2.457,8.920 2.434,8.827 2.458 M5.650 3.631 C 5.172 3.717,4.721 3.932,4.375 4.239 C 4.253 4.347,4.039 4.613,3.937 4.783 C 3.686 5.203,3.569 5.737,3.619 6.238 C 3.701 7.063,4.246 7.831,4.986 8.169 C 5.386 8.351,5.761 8.416,6.205 8.380 C 7.079 8.308,7.859 7.745,8.202 6.938 C 8.294 6.721,8.379 6.364,8.393 6.131 C 8.434 5.456,8.121 4.686,7.626 4.240 C 7.470 4.101,7.162 3.897,6.990 3.820 C 6.616 3.652,6.006 3.566,5.650 3.631 M1.544 5.472 C 1.159 5.664,1.092 6.137,1.408 6.436 C 1.560 6.580,1.600 6.589,2.100 6.589 C 2.600 6.589,2.640 6.580,2.792 6.436 C 3.104 6.141,3.048 5.695,2.672 5.479 L 2.570 5.420 2.109 5.420 C 1.653 5.420,1.647 5.421,1.544 5.472 M9.344 5.472 C 8.959 5.664,8.892 6.137,9.208 6.436 C 9.360 6.580,9.400 6.589,9.900 6.589 C 10.400 6.589,10.440 6.580,10.592 6.436 C 10.904 6.141,10.848 5.695,10.472 5.479 L 10.370 5.420 9.909 5.420 C 9.453 5.420,9.447 5.421,9.344 5.472 M3.230 7.996 C 3.146 8.036,2.833 8.306,2.678 8.473 C 2.481 8.684,2.397 8.889,2.439 9.054 C 2.514 9.352,2.741 9.558,2.994 9.560 C 3.210 9.560,3.283 9.530,3.475 9.360 C 3.704 9.157,3.954 8.874,4.005 8.762 C 4.057 8.646,4.047 8.409,3.985 8.290 C 3.929 8.181,3.808 8.062,3.706 8.017 C 3.578 7.959,3.331 7.948,3.230 7.996 M8.354 7.988 C 8.018 8.113,7.853 8.507,8.013 8.803 C 8.083 8.933,8.552 9.412,8.680 9.485 C 8.814 9.560,8.955 9.588,9.063 9.560 C 9.359 9.481,9.560 9.247,9.560 8.980 C 9.560 8.806,9.512 8.699,9.352 8.518 C 9.185 8.328,8.894 8.069,8.784 8.012 C 8.688 7.962,8.457 7.949,8.354 7.988 M5.750 9.066 C 5.622 9.128,5.513 9.239,5.447 9.375 L 5.394 9.483 5.405 9.919 C 5.418 10.427,5.430 10.470,5.597 10.626 C 5.735 10.754,5.816 10.786,6.000 10.786 C 6.183 10.785,6.269 10.751,6.405 10.624 C 6.570 10.471,6.582 10.425,6.595 9.919 L 6.606 9.483 6.551 9.370 C 6.440 9.144,6.275 9.039,6.010 9.026 C 5.872 9.019,5.836 9.025,5.750 9.066 " fill="#1A1C1F" stroke="none" fill-rule="evenodd"></path></svg>