<svg width="20" height="20" viewBox="0 0 20 20" fill="none" xmlns="http://www.w3.org/2000/svg"><path d="M9.767 2.036 C 9.559 2.061,9.280 2.178,9.083 2.324 C 8.895 2.463,8.275 3.346,6.536 5.950 C 4.887 8.419,4.630 8.868,4.270 9.910 C 3.967 10.790,3.879 11.541,3.963 12.533 C 4.163 14.877,5.689 16.862,7.883 17.633 C 9.491 18.197,11.179 18.105,12.721 17.368 C 14.410 16.560,15.545 15.076,15.969 13.117 C 16.070 12.648,16.098 11.493,16.019 11.033 C 15.861 10.113,15.466 9.098,14.884 8.117 C 14.441 7.370,11.389 2.850,11.125 2.549 C 10.795 2.173,10.271 1.975,9.767 2.036 " fill="#1A1C1F" stroke="none" fill-rule="evenodd"></path></svg>