<svg width="14" height="14" viewBox="0 0 14 14" fill="none" xmlns="http://www.w3.org/2000/svg"><path d="M6.821 1.425 C 6.674 1.450,6.485 1.533,6.356 1.628 C 6.235 1.717,6.074 1.941,5.206 3.226 C 3.933 5.111,3.449 5.873,3.230 6.335 C 2.894 7.044,2.697 7.917,2.742 8.501 C 2.881 10.360,3.860 11.723,5.489 12.329 C 6.966 12.879,8.673 12.568,9.858 11.532 C 10.651 10.839,11.137 9.817,11.248 8.607 C 11.327 7.754,11.034 6.704,10.447 5.728 C 10.159 5.250,8.303 2.474,7.940 1.979 C 7.735 1.699,7.597 1.581,7.378 1.497 C 7.172 1.419,6.994 1.396,6.821 1.425 M7.183 3.355 C 7.411 3.678,8.431 5.196,8.884 5.888 C 9.424 6.714,9.716 7.330,9.801 7.824 C 9.844 8.072,9.817 8.880,9.759 9.089 C 9.338 10.611,7.940 11.450,6.360 11.128 C 5.410 10.934,4.666 10.282,4.317 9.334 C 4.211 9.047,4.177 8.803,4.177 8.338 C 4.177 7.871,4.203 7.708,4.341 7.320 C 4.530 6.792,4.743 6.436,5.961 4.620 C 6.867 3.269,6.982 3.104,7.005 3.118 C 7.015 3.124,7.095 3.231,7.183 3.355 " fill="#1A1C1F" stroke="none" fill-rule="evenodd"></path></svg>