<svg width="16" height="16" viewBox="0 0 16 16" fill="none" xmlns="http://www.w3.org/2000/svg"><path d="M7.812 1.627 C 7.618 1.651,7.326 1.793,7.189 1.930 C 7.048 2.072,6.852 2.349,5.999 3.613 C 4.240 6.219,3.885 6.786,3.606 7.440 C 3.296 8.164,3.178 8.653,3.156 9.293 C 3.128 10.101,3.230 10.723,3.508 11.434 C 4.338 13.559,6.670 14.768,9.023 14.292 C 10.621 13.969,11.911 12.893,12.507 11.389 C 12.782 10.694,12.872 10.138,12.846 9.280 C 12.834 8.875,12.825 8.807,12.725 8.423 C 12.613 7.991,12.393 7.398,12.207 7.027 C 12.048 6.711,11.633 6.065,10.414 4.240 C 9.193 2.414,8.964 2.086,8.794 1.930 C 8.550 1.705,8.163 1.586,7.812 1.627 " fill="#1A1C1F" stroke="none" fill-rule="evenodd"></path></svg>