<svg width="28" height="28" viewBox="0 0 28 28" fill="none" xmlns="http://www.w3.org/2000/svg"><path d="M13.587 1.822 C 13.093 1.923,12.788 2.222,11.989 3.387 C 10.212 5.977,7.204 10.521,6.554 11.597 C 5.947 12.602,5.438 13.819,5.158 14.932 C 4.814 16.301,4.786 17.563,5.069 18.947 C 5.577 21.428,6.827 23.340,8.820 24.680 C 9.796 25.337,10.925 25.802,12.180 26.064 C 12.904 26.215,14.206 26.270,15.031 26.184 C 18.519 25.820,21.382 23.592,22.545 20.337 C 22.939 19.235,23.060 18.583,23.087 17.407 C 23.120 15.962,22.978 15.116,22.468 13.735 C 22.146 12.862,21.175 11.015,20.766 10.499 C 20.396 10.033,19.724 10.010,19.353 10.450 C 19.062 10.796,19.119 11.090,19.652 11.998 C 20.993 14.286,21.459 15.872,21.321 17.686 C 21.166 19.745,20.345 21.430,18.862 22.740 C 18.128 23.388,17.424 23.786,16.450 24.105 C 15.465 24.427,15.118 24.470,13.774 24.441 C 12.726 24.418,12.582 24.405,12.163 24.293 C 10.710 23.907,9.726 23.358,8.770 22.403 C 7.507 21.140,6.797 19.533,6.681 17.671 C 6.587 16.144,6.857 14.887,7.605 13.370 C 8.082 12.405,8.017 12.507,12.036 6.393 C 13.904 3.552,13.876 3.593,13.918 3.593 C 13.973 3.593,14.372 4.152,15.518 5.833 C 17.011 8.025,17.132 8.185,17.388 8.309 C 17.790 8.504,18.277 8.330,18.474 7.922 C 18.600 7.662,18.600 7.422,18.474 7.173 C 18.232 6.697,15.914 3.233,15.369 2.533 C 15.067 2.146,14.808 1.946,14.504 1.867 C 14.245 1.800,13.801 1.778,13.587 1.822 " fill="#1A1C1F" stroke="none" fill-rule="evenodd"></path></svg>