<svg width="20" height="20" viewBox="0 0 20 20" fill="none" xmlns="http://www.w3.org/2000/svg"><path d="M9.767 2.036 C 9.558 2.061,9.280 2.178,9.079 2.326 C 8.906 2.454,8.673 2.778,7.402 4.661 C 6.229 6.398,5.426 7.622,5.049 8.250 C 4.223 9.621,3.823 11.067,3.932 12.289 C 4.111 14.308,5.024 15.943,6.533 16.950 C 9.602 18.996,13.848 17.928,15.418 14.716 C 15.898 13.733,16.161 12.420,16.070 11.458 C 15.958 10.267,15.540 9.166,14.678 7.788 C 14.038 6.765,11.361 2.817,11.129 2.553 C 10.794 2.173,10.273 1.975,9.767 2.036 M10.261 4.794 C 10.592 5.261,12.051 7.435,12.691 8.412 C 13.290 9.326,13.652 10.012,13.847 10.600 C 14.020 11.124,14.043 11.313,14.024 12.077 C 14.010 12.674,13.998 12.786,13.919 13.067 C 13.537 14.430,12.539 15.430,11.133 15.858 C 10.878 15.936,10.782 15.945,10.163 15.959 C 9.389 15.975,9.136 15.947,8.684 15.797 C 7.396 15.369,6.450 14.377,6.080 13.067 C 6.000 12.782,5.989 12.680,5.975 12.060 C 5.958 11.265,5.986 11.061,6.201 10.459 C 6.471 9.703,6.775 9.197,8.516 6.600 C 9.810 4.670,9.974 4.434,10.008 4.455 C 10.022 4.463,10.136 4.616,10.261 4.794 " fill="#1A1C1F" stroke="none" fill-rule="evenodd"></path></svg>