<svg width="12" height="12" viewBox="0 0 12 12" fill="none" xmlns="http://www.w3.org/2000/svg"><path d="M5.842 1.222 C 5.687 1.249,5.486 1.352,5.381 1.458 C 5.331 1.509,5.154 1.748,4.987 1.990 C 4.534 2.649,3.331 4.452,3.140 4.760 C 2.770 5.355,2.530 5.925,2.406 6.500 C 2.377 6.640,2.370 6.754,2.372 7.140 C 2.375 7.690,2.410 7.935,2.541 8.329 C 2.734 8.907,3.014 9.363,3.425 9.765 C 4.990 11.299,7.667 11.093,8.943 9.340 C 9.252 8.916,9.453 8.452,9.574 7.885 C 9.625 7.649,9.629 7.595,9.629 7.150 C 9.630 6.719,9.625 6.649,9.583 6.460 C 9.486 6.021,9.259 5.436,9.035 5.046 C 8.836 4.698,7.151 2.166,6.807 1.697 C 6.630 1.457,6.512 1.355,6.324 1.283 C 6.146 1.214,5.995 1.195,5.842 1.222 " fill="#1A1C1F" stroke="none" fill-rule="evenodd"></path></svg>