<svg width="24" height="24" viewBox="0 0 24 24" fill="none" xmlns="http://www.w3.org/2000/svg"><path d="M11.374 2.154 C 10.897 2.384,10.869 2.420,9.020 5.140 C 7.336 7.617,6.132 9.443,5.815 10.000 C 4.503 12.302,4.175 14.440,4.800 16.610 C 5.252 18.177,6.104 19.456,7.341 20.422 C 9.866 22.394,13.554 22.527,16.219 20.742 C 17.841 19.654,18.952 17.989,19.340 16.061 C 19.658 14.482,19.551 13.244,18.958 11.658 C 18.503 10.438,18.398 10.261,15.980 6.640 C 13.188 2.458,13.139 2.391,12.698 2.179 C 12.492 2.080,12.403 2.062,12.040 2.050 C 11.642 2.036,11.607 2.042,11.374 2.154 M12.149 4.539 C 12.363 4.830,15.048 8.825,15.751 9.900 C 16.725 11.388,17.248 12.519,17.424 13.520 C 17.503 13.971,17.513 14.838,17.443 15.300 C 17.204 16.889,16.377 18.252,15.158 19.064 C 14.710 19.362,14.320 19.549,13.751 19.739 C 13.184 19.928,12.939 19.959,12.035 19.960 C 11.127 19.960,10.771 19.910,10.157 19.698 C 8.340 19.068,7.057 17.632,6.636 15.760 C 6.536 15.315,6.492 14.161,6.556 13.650 C 6.628 13.066,6.952 12.161,7.409 11.267 C 7.676 10.745,11.919 4.357,11.996 4.362 C 12.009 4.362,12.078 4.442,12.149 4.539 " fill="#1A1C1F" stroke="none" fill-rule="evenodd"></path></svg>