<svg width="14" height="14" viewBox="0 0 14 14" fill="none" xmlns="http://www.w3.org/2000/svg"><path d="M6.816 1.426 C 6.635 1.457,6.401 1.576,6.278 1.701 C 6.220 1.761,6.013 2.040,5.819 2.322 C 5.290 3.089,3.887 5.194,3.664 5.553 C 3.225 6.259,2.953 6.906,2.808 7.583 C 2.741 7.896,2.748 8.806,2.820 9.168 C 3.126 10.707,4.146 11.884,5.591 12.365 C 6.200 12.568,6.833 12.640,7.440 12.576 C 9.436 12.366,10.918 10.943,11.210 8.957 C 11.258 8.631,11.259 7.985,11.211 7.709 C 11.104 7.089,10.816 6.340,10.454 5.740 C 10.156 5.246,8.306 2.478,7.940 1.979 C 7.735 1.699,7.597 1.581,7.378 1.497 C 7.170 1.418,6.994 1.396,6.816 1.426 " fill="#1A1C1F" stroke="none" fill-rule="evenodd"></path></svg>