<svg width="12" height="12" viewBox="0 0 12 12" fill="none" xmlns="http://www.w3.org/2000/svg"><path d="M5.846 1.221 C 5.586 1.267,5.415 1.388,5.212 1.670 C 4.746 2.317,3.256 4.561,2.984 5.026 C 2.522 5.816,2.292 6.683,2.357 7.387 C 2.453 8.420,2.821 9.195,3.527 9.851 C 4.047 10.334,4.623 10.608,5.420 10.754 C 5.709 10.807,6.335 10.802,6.641 10.744 C 8.117 10.468,9.169 9.491,9.529 8.063 C 9.671 7.497,9.687 6.987,9.578 6.450 C 9.478 5.959,9.209 5.312,8.900 4.822 C 8.528 4.231,7.086 2.079,6.806 1.696 C 6.631 1.457,6.512 1.355,6.324 1.283 C 6.147 1.215,5.995 1.195,5.846 1.221 M6.144 2.856 C 6.313 3.093,7.545 4.937,7.787 5.315 C 8.107 5.815,8.338 6.338,8.401 6.706 C 8.416 6.795,8.421 6.983,8.415 7.246 C 8.406 7.604,8.399 7.672,8.352 7.839 C 8.158 8.530,7.659 9.115,7.033 9.385 C 6.354 9.679,5.525 9.661,4.875 9.339 C 4.224 9.017,3.768 8.415,3.610 7.670 C 3.569 7.474,3.569 6.850,3.611 6.647 C 3.678 6.323,3.852 5.915,4.105 5.491 C 4.241 5.263,5.586 3.238,5.861 2.847 C 5.932 2.747,5.997 2.668,6.005 2.673 C 6.013 2.678,6.075 2.760,6.144 2.856 " fill="#1A1C1F" stroke="none" fill-rule="evenodd"></path></svg>