<svg width="16" height="16" viewBox="0 0 16 16" fill="none" xmlns="http://www.w3.org/2000/svg"><path d="M7.813 1.629 C 7.646 1.649,7.424 1.743,7.263 1.861 C 7.125 1.963,6.938 2.222,5.922 3.729 C 4.975 5.132,4.337 6.105,4.039 6.600 C 3.379 7.697,3.059 8.854,3.145 9.831 C 3.268 11.211,3.825 12.385,4.733 13.179 C 6.088 14.364,8.038 14.718,9.733 14.088 C 11.546 13.414,12.666 11.889,12.855 9.839 C 12.935 8.970,12.682 7.929,12.144 6.909 C 11.943 6.529,11.633 6.046,10.592 4.493 C 9.038 2.173,8.871 1.945,8.632 1.804 C 8.385 1.660,8.086 1.596,7.813 1.629 M8.388 4.093 C 8.814 4.713,10.064 6.590,10.378 7.080 C 11.071 8.164,11.311 8.952,11.226 9.869 C 11.187 10.297,11.098 10.637,10.936 10.975 C 10.518 11.852,9.838 12.417,8.864 12.699 C 8.670 12.755,8.602 12.760,8.000 12.760 C 7.396 12.760,7.330 12.755,7.134 12.698 C 5.898 12.341,5.076 11.465,4.814 10.226 C 4.758 9.964,4.759 9.134,4.815 8.861 C 4.920 8.353,5.199 7.747,5.668 7.009 C 5.934 6.590,7.508 4.234,7.815 3.795 C 7.976 3.566,7.990 3.553,8.032 3.595 C 8.056 3.620,8.217 3.844,8.388 4.093 " fill="#1A1C1F" stroke="none" fill-rule="evenodd"></path></svg>