<svg width="32" height="32" viewBox="0 0 32 32" fill="none" xmlns="http://www.w3.org/2000/svg"><path d="M15.528 2.082 C 15.400 2.108,15.193 2.190,15.068 2.263 C 14.579 2.550,14.378 2.828,10.910 8.022 C 8.521 11.599,7.777 12.746,7.248 13.670 C 6.486 15.000,5.878 16.741,5.678 18.165 C 5.584 18.838,5.571 20.263,5.655 20.880 C 6.016 23.547,7.271 25.935,9.133 27.499 C 10.488 28.637,12.097 29.407,13.920 29.788 C 14.731 29.958,16.279 30.023,17.168 29.926 C 20.097 29.606,22.600 28.215,24.293 25.967 C 25.429 24.459,26.101 22.766,26.344 20.801 C 26.426 20.141,26.413 18.727,26.319 18.107 C 26.149 16.977,25.729 15.686,25.117 14.411 C 24.718 13.579,24.103 12.507,23.773 12.069 C 23.222 11.336,22.240 11.431,21.972 12.243 C 21.861 12.582,21.944 12.835,22.459 13.713 C 23.994 16.331,24.524 18.134,24.367 20.213 C 24.191 22.553,23.285 24.429,21.596 25.952 C 20.646 26.809,19.638 27.335,18.160 27.745 C 17.592 27.903,17.530 27.909,16.213 27.932 C 14.683 27.958,14.307 27.911,13.198 27.547 C 10.379 26.624,8.388 24.364,7.792 21.413 C 7.354 19.244,7.689 17.181,8.839 14.973 C 9.299 14.089,9.374 13.972,13.756 7.307 C 15.889 4.061,15.859 4.107,15.906 4.107 C 15.969 4.107,16.425 4.745,17.734 6.667 C 19.441 9.171,19.579 9.354,19.872 9.496 C 20.332 9.718,20.887 9.520,21.114 9.053 C 21.257 8.756,21.257 8.482,21.113 8.198 C 20.837 7.654,18.188 3.695,17.564 2.894 C 17.220 2.452,16.924 2.224,16.576 2.134 C 16.281 2.057,15.773 2.032,15.528 2.082 " fill="#1A1C1F" stroke="none" fill-rule="evenodd"></path></svg>