<svg width="28" height="28" viewBox="0 0 28 28" fill="none" xmlns="http://www.w3.org/2000/svg"><path d="M13.667 3.599 C 13.467 3.687,13.407 3.760,12.890 4.542 C 12.583 5.008,11.843 6.167,11.248 7.117 C 10.652 8.066,9.974 9.132,9.741 9.485 L 9.317 10.126 9.103 10.002 C 8.986 9.933,7.756 9.174,6.370 8.314 C 3.743 6.685,2.979 6.235,2.710 6.161 C 2.524 6.109,2.268 6.202,2.021 6.411 C 1.817 6.583,1.755 6.801,1.792 7.206 C 1.863 7.977,2.677 13.057,3.098 15.353 C 3.358 16.774,3.476 17.160,3.749 17.491 C 4.000 17.797,4.434 18.127,4.713 18.226 C 5.112 18.368,6.733 18.392,14.887 18.375 C 23.527 18.357,23.000 18.373,23.520 18.107 C 23.825 17.951,24.340 17.435,24.472 17.154 C 24.633 16.810,24.674 16.595,25.269 12.973 C 26.130 7.739,26.236 7.043,26.205 6.834 C 26.153 6.483,25.779 6.160,25.426 6.160 C 25.125 6.160,24.645 6.439,20.591 8.967 L 18.664 10.168 18.556 9.996 C 18.496 9.901,17.719 8.661,16.829 7.241 C 14.580 3.652,14.617 3.705,14.238 3.572 C 13.979 3.480,13.930 3.483,13.667 3.599 M14.308 6.570 C 14.454 6.794,15.071 7.764,15.679 8.727 C 17.082 10.947,17.465 11.538,17.694 11.838 C 18.023 12.268,18.362 12.334,18.867 12.067 C 19.032 11.979,20.198 11.266,21.458 10.482 C 22.718 9.699,23.833 9.014,23.937 8.962 L 24.124 8.866 24.102 8.995 C 24.090 9.065,23.995 9.680,23.892 10.360 C 23.637 12.036,23.063 15.582,22.982 15.976 C 22.946 16.152,22.878 16.362,22.831 16.443 L 22.745 16.590 14.137 16.590 C 9.403 16.590,5.452 16.573,5.356 16.553 C 5.144 16.508,5.102 16.436,5.012 15.970 C 4.926 15.519,3.981 9.548,3.938 9.177 L 3.906 8.904 4.064 8.985 C 4.250 9.082,5.581 9.891,7.373 10.998 C 9.545 12.338,9.481 12.308,9.850 12.198 C 10.059 12.136,10.113 12.090,10.351 11.768 C 10.616 11.411,11.524 9.995,13.133 7.431 C 13.589 6.706,13.979 6.124,14.002 6.138 C 14.024 6.152,14.162 6.346,14.308 6.570 M8.500 19.727 C 8.335 19.758,7.995 20.123,7.937 20.330 C 7.860 20.606,7.876 20.723,8.024 20.982 C 8.198 21.284,8.408 21.396,8.800 21.397 C 9.037 21.397,9.111 21.376,9.249 21.271 C 9.533 21.054,9.677 20.611,9.569 20.285 C 9.439 19.891,8.958 19.640,8.500 19.727 M13.697 19.782 C 13.594 19.829,13.454 19.929,13.385 20.002 C 12.915 20.505,13.218 21.306,13.914 21.402 C 14.203 21.441,14.426 21.359,14.624 21.140 C 15.033 20.688,14.916 20.089,14.367 19.816 C 14.078 19.672,13.949 19.665,13.697 19.782 M19.000 19.727 C 18.835 19.758,18.495 20.123,18.437 20.330 C 18.360 20.606,18.376 20.723,18.524 20.982 C 18.698 21.284,18.908 21.396,19.300 21.397 C 19.537 21.397,19.611 21.376,19.749 21.271 C 20.033 21.054,20.177 20.611,20.069 20.285 C 19.939 19.891,19.458 19.640,19.000 19.727 M3.990 20.246 C 3.913 20.293,3.783 20.407,3.702 20.500 C 3.511 20.717,3.481 20.952,3.512 21.972 C 3.531 22.604,3.554 22.802,3.635 23.026 C 3.817 23.535,4.322 24.060,4.919 24.361 L 5.195 24.500 13.482 24.499 C 18.041 24.498,22.031 24.478,22.350 24.455 C 22.876 24.417,22.960 24.398,23.266 24.247 C 23.505 24.128,23.683 23.994,23.882 23.781 C 24.270 23.366,24.400 23.082,24.460 22.511 C 24.522 21.929,24.483 20.834,24.392 20.616 C 24.203 20.164,23.546 20.029,23.100 20.352 C 22.819 20.555,22.775 20.704,22.725 21.622 C 22.701 22.063,22.670 22.470,22.657 22.527 C 22.603 22.755,22.809 22.750,14.000 22.750 C 5.337 22.750,5.411 22.752,5.346 22.549 C 5.332 22.503,5.299 22.110,5.274 21.675 C 5.210 20.575,5.166 20.448,4.791 20.273 C 4.499 20.137,4.185 20.127,3.990 20.246 " fill="#1A1C1F" stroke="none" fill-rule="evenodd"></path></svg>