<svg width="12" height="12" viewBox="0 0 12 12" fill="none" xmlns="http://www.w3.org/2000/svg"><path d="M5.750 1.268 C 5.633 1.323,5.568 1.388,5.479 1.540 C 5.443 1.601,5.176 2.118,4.885 2.690 C 4.594 3.262,4.333 3.768,4.306 3.815 L 4.256 3.901 4.183 3.856 C 4.143 3.832,3.755 3.578,3.320 3.293 C 2.394 2.684,2.155 2.534,1.984 2.454 C 1.875 2.403,1.844 2.397,1.755 2.409 C 1.508 2.441,1.294 2.614,1.231 2.830 C 1.182 2.997,1.182 2.993,1.779 5.679 C 2.340 8.200,2.447 8.638,2.533 8.763 C 2.600 8.862,2.721 8.942,2.836 8.966 C 2.892 8.977,4.184 8.988,6.033 8.994 L 9.136 9.003 9.222 8.959 C 9.368 8.885,9.516 8.728,9.550 8.612 C 9.599 8.447,9.833 7.422,10.228 5.640 C 10.847 2.847,10.831 2.934,10.744 2.757 C 10.654 2.573,10.501 2.463,10.273 2.417 C 10.181 2.399,10.142 2.400,10.074 2.422 C 9.970 2.456,9.625 2.672,8.650 3.312 C 8.232 3.587,7.857 3.832,7.817 3.856 L 7.745 3.900 7.709 3.845 C 7.689 3.815,7.424 3.300,7.119 2.700 C 6.489 1.459,6.444 1.378,6.355 1.324 C 6.177 1.215,5.914 1.190,5.750 1.268 M6.037 3.243 C 6.052 3.266,6.264 3.679,6.509 4.159 C 7.000 5.124,7.064 5.235,7.165 5.297 C 7.267 5.360,7.475 5.409,7.566 5.392 C 7.689 5.369,7.898 5.250,8.450 4.887 C 9.259 4.356,9.260 4.355,9.260 4.394 C 9.260 4.420,8.589 7.495,8.526 7.755 L 8.516 7.800 5.998 7.800 C 4.613 7.800,3.480 7.795,3.480 7.790 C 3.480 7.784,3.389 7.373,3.279 6.875 C 2.922 5.273,2.740 4.434,2.740 4.397 C 2.740 4.355,2.709 4.336,3.540 4.881 C 4.123 5.263,4.368 5.400,4.466 5.400 C 4.650 5.399,4.882 5.289,4.965 5.164 C 4.994 5.121,5.225 4.678,5.480 4.180 C 5.955 3.252,5.982 3.200,6.000 3.200 C 6.006 3.200,6.022 3.219,6.037 3.243 M2.538 9.639 C 2.444 9.657,2.340 9.723,2.252 9.820 C 2.149 9.934,2.114 10.027,2.113 10.190 C 2.112 10.427,2.230 10.620,2.450 10.737 L 2.550 10.790 5.989 10.795 L 9.428 10.801 9.536 10.746 C 9.889 10.568,9.998 10.106,9.754 9.828 C 9.710 9.778,9.629 9.711,9.572 9.679 L 9.470 9.620 6.040 9.622 C 4.154 9.624,2.578 9.631,2.538 9.639 " fill="#1A1C1F" stroke="none" fill-rule="evenodd"></path></svg>