<svg width="16" height="16" viewBox="0 0 16 16" fill="none" xmlns="http://www.w3.org/2000/svg"><path d="M7.667 1.689 C 7.511 1.764,7.424 1.852,7.305 2.053 C 7.258 2.134,6.902 2.824,6.514 3.586 C 6.126 4.349,5.778 5.024,5.741 5.087 L 5.674 5.201 5.577 5.142 C 5.524 5.109,5.006 4.771,4.427 4.390 C 2.718 3.268,2.627 3.215,2.387 3.217 C 2.057 3.219,1.732 3.462,1.641 3.772 C 1.577 3.994,1.573 3.976,2.376 7.583 C 3.099 10.836,3.214 11.315,3.338 11.604 C 3.392 11.732,3.539 11.871,3.672 11.922 C 3.833 11.984,4.689 11.998,8.368 11.999 L 12.189 12.000 12.299 11.944 C 12.491 11.846,12.688 11.637,12.734 11.483 C 12.838 11.133,14.090 5.531,14.300 4.479 L 14.411 3.923 14.363 3.771 C 14.275 3.494,14.028 3.289,13.701 3.224 C 13.429 3.169,13.343 3.217,11.521 4.427 C 10.857 4.868,10.311 5.226,10.308 5.221 C 10.304 5.217,9.948 4.511,9.516 3.653 C 9.084 2.795,8.687 2.026,8.634 1.943 C 8.502 1.736,8.316 1.643,8.013 1.632 C 7.832 1.626,7.780 1.634,7.667 1.689 M8.058 4.340 C 8.082 4.380,8.367 4.934,8.691 5.570 C 9.015 6.206,9.325 6.793,9.380 6.875 C 9.518 7.080,9.721 7.184,9.987 7.185 C 10.230 7.187,10.299 7.151,11.275 6.511 C 12.399 5.774,12.347 5.806,12.347 5.863 C 12.347 5.908,12.022 7.396,11.548 9.527 C 11.445 9.992,11.360 10.379,11.360 10.387 C 11.360 10.394,9.848 10.400,8.000 10.400 C 6.152 10.400,4.640 10.395,4.640 10.389 C 4.640 10.383,4.418 9.375,4.147 8.150 C 3.875 6.925,3.653 5.904,3.653 5.881 C 3.653 5.859,3.663 5.840,3.675 5.840 C 3.688 5.840,3.985 6.028,4.335 6.257 C 5.877 7.265,5.872 7.262,6.244 7.148 C 6.538 7.057,6.613 6.949,7.191 5.800 C 7.675 4.838,7.975 4.267,7.996 4.267 C 8.007 4.267,8.035 4.300,8.058 4.340 M3.399 12.851 C 3.199 12.884,2.958 13.086,2.863 13.299 C 2.796 13.452,2.803 13.741,2.878 13.912 C 2.947 14.068,3.140 14.265,3.297 14.338 C 3.395 14.384,3.628 14.387,7.985 14.394 L 12.570 14.401 12.714 14.328 C 13.185 14.090,13.331 13.474,13.005 13.104 C 12.947 13.038,12.838 12.948,12.763 12.905 L 12.627 12.827 8.067 12.830 C 5.559 12.832,3.458 12.841,3.399 12.851 " fill="#1A1C1F" stroke="none" fill-rule="evenodd"></path></svg>