<svg width="14" height="14" viewBox="0 0 14 14" fill="none" xmlns="http://www.w3.org/2000/svg"><path d="M6.708 1.478 C 6.572 1.544,6.496 1.620,6.392 1.797 C 6.351 1.867,6.039 2.471,5.699 3.138 C 5.360 3.805,5.056 4.396,5.024 4.451 L 4.965 4.551 4.880 4.499 C 4.833 4.471,4.380 4.175,3.873 3.842 C 2.795 3.133,2.515 2.957,2.314 2.863 C 2.187 2.804,2.151 2.797,2.047 2.810 C 1.760 2.848,1.509 3.050,1.436 3.301 C 1.380 3.493,1.380 3.494,2.030 6.417 C 2.728 9.559,2.851 10.063,2.954 10.219 C 3.022 10.321,3.151 10.419,3.269 10.456 C 3.324 10.474,4.463 10.486,7.003 10.494 L 10.658 10.506 10.778 10.441 C 10.843 10.405,10.948 10.322,11.011 10.256 L 11.124 10.136 11.231 9.694 C 11.550 8.370,12.551 3.814,12.589 3.512 C 12.606 3.372,12.565 3.242,12.456 3.090 C 12.368 2.967,12.132 2.837,11.954 2.813 C 11.737 2.783,11.645 2.835,10.109 3.855 C 9.513 4.251,9.022 4.572,9.019 4.569 C 9.016 4.565,8.705 3.947,8.326 3.197 C 7.948 2.446,7.601 1.773,7.555 1.700 C 7.439 1.519,7.277 1.438,7.012 1.428 C 6.853 1.422,6.807 1.430,6.708 1.478 M7.042 3.781 C 7.058 3.807,7.308 4.293,7.598 4.860 C 7.887 5.427,8.164 5.949,8.212 6.020 C 8.363 6.242,8.642 6.341,8.902 6.266 C 9.054 6.222,9.153 6.163,9.905 5.670 C 10.805 5.081,10.803 5.082,10.803 5.127 C 10.803 5.156,10.020 8.744,9.948 9.048 L 9.935 9.100 7.000 9.100 L 4.065 9.100 4.052 9.048 C 4.041 9.003,3.645 7.208,3.290 5.593 C 3.237 5.352,3.197 5.140,3.201 5.123 C 3.206 5.103,3.402 5.218,3.745 5.443 C 4.894 6.195,5.076 6.299,5.230 6.300 C 5.277 6.300,5.383 6.279,5.466 6.253 C 5.719 6.175,5.807 6.050,6.288 5.086 C 6.633 4.395,6.980 3.733,6.997 3.733 C 7.005 3.733,7.025 3.755,7.042 3.781 M2.971 11.248 C 2.836 11.274,2.758 11.320,2.644 11.437 C 2.511 11.574,2.468 11.687,2.466 11.901 C 2.464 12.124,2.521 12.251,2.692 12.407 C 2.924 12.618,2.521 12.600,7.023 12.600 L 11.001 12.600 11.126 12.537 C 11.537 12.329,11.665 11.790,11.379 11.466 C 11.329 11.408,11.233 11.330,11.168 11.292 L 11.048 11.224 7.058 11.226 C 4.864 11.227,3.025 11.237,2.971 11.248 " fill="#1A1C1F" stroke="none" fill-rule="evenodd"></path></svg>