<svg width="32" height="32" viewBox="0 0 32 32" fill="none" xmlns="http://www.w3.org/2000/svg"><path d="M15.715 4.078 C 15.314 4.221,15.274 4.276,13.172 7.630 C 12.000 9.499,10.866 11.265,10.662 11.536 C 10.644 11.560,9.732 11.023,8.635 10.342 C 4.654 7.872,4.125 7.549,3.653 7.298 C 3.053 6.978,2.847 6.963,2.473 7.213 C 2.168 7.417,2.027 7.666,2.027 8.000 C 2.027 8.484,2.735 12.999,3.336 16.347 C 3.902 19.497,3.957 19.684,4.473 20.209 C 4.828 20.570,5.136 20.760,5.573 20.888 C 5.872 20.975,6.531 20.982,15.253 21.000 C 20.600 21.011,24.979 20.997,25.467 20.969 C 26.644 20.901,26.902 20.802,27.535 20.175 C 27.884 19.829,28.056 19.503,28.178 18.960 C 28.250 18.636,29.650 10.168,29.896 8.566 C 29.945 8.246,29.971 7.902,29.955 7.801 C 29.893 7.419,29.442 7.044,29.040 7.041 C 28.719 7.039,28.115 7.391,23.537 10.245 L 21.340 11.615 21.204 11.410 C 21.130 11.298,20.261 9.914,19.273 8.336 C 17.330 5.233,16.829 4.465,16.632 4.282 C 16.510 4.170,16.109 3.997,15.980 4.002 C 15.947 4.004,15.828 4.038,15.715 4.078 M17.094 8.667 C 20.261 13.672,20.311 13.746,20.608 13.887 C 20.897 14.024,21.174 13.996,21.562 13.791 C 21.751 13.690,23.084 12.876,24.524 11.980 C 25.963 11.084,27.239 10.302,27.359 10.241 L 27.576 10.130 27.550 10.251 C 27.535 10.319,27.497 10.565,27.464 10.800 C 27.375 11.448,26.747 15.414,26.476 17.040 C 26.311 18.033,26.200 18.555,26.118 18.720 L 26.000 18.960 16.160 18.960 C 10.748 18.960,6.228 18.941,6.116 18.917 C 5.956 18.883,5.897 18.837,5.841 18.703 C 5.802 18.610,5.661 17.861,5.527 17.040 C 5.159 14.785,4.541 10.841,4.500 10.488 L 4.464 10.176 4.629 10.261 C 4.870 10.385,6.067 11.111,7.733 12.143 C 9.800 13.422,10.641 13.920,10.828 13.974 C 10.938 14.005,11.074 13.995,11.253 13.942 C 11.472 13.877,11.556 13.811,11.756 13.551 C 12.051 13.168,12.841 11.944,14.610 9.129 C 15.908 7.064,15.966 6.982,16.055 7.076 C 16.107 7.129,16.574 7.845,17.094 8.667 M9.595 22.631 C 9.298 22.788,9.063 23.116,9.029 23.421 C 9.009 23.605,9.035 23.713,9.155 23.941 C 9.349 24.311,9.597 24.451,10.057 24.452 C 10.328 24.453,10.412 24.430,10.570 24.310 C 10.895 24.062,11.060 23.556,10.936 23.183 C 10.853 22.929,10.597 22.689,10.303 22.589 C 9.978 22.478,9.872 22.485,9.595 22.631 M15.712 22.560 C 15.511 22.623,15.207 22.913,15.114 23.132 C 14.949 23.516,15.060 23.997,15.368 24.226 C 15.820 24.564,16.315 24.552,16.673 24.194 C 17.051 23.816,17.098 23.353,16.800 22.942 C 16.568 22.621,16.071 22.447,15.712 22.560 M21.595 22.631 C 21.298 22.788,21.063 23.116,21.029 23.421 C 21.009 23.605,21.035 23.713,21.155 23.941 C 21.349 24.311,21.597 24.451,22.057 24.452 C 22.328 24.453,22.412 24.430,22.570 24.310 C 22.895 24.062,23.060 23.556,22.936 23.183 C 22.853 22.929,22.597 22.689,22.303 22.589 C 21.978 22.478,21.872 22.485,21.595 22.631 M4.613 23.102 C 4.555 23.134,4.417 23.245,4.308 23.349 C 4.025 23.619,3.980 23.878,4.013 25.046 C 4.036 25.838,4.059 26.053,4.153 26.315 C 4.363 26.897,4.940 27.497,5.622 27.841 L 5.937 28.000 15.409 27.998 C 20.618 27.997,25.178 27.975,25.543 27.949 C 26.144 27.905,26.240 27.883,26.590 27.710 C 26.863 27.575,27.066 27.422,27.294 27.178 C 27.738 26.704,27.885 26.380,27.955 25.727 C 28.026 25.061,27.980 23.811,27.876 23.562 C 27.660 23.044,26.909 22.891,26.400 23.259 C 26.079 23.492,26.029 23.662,25.971 24.711 C 25.943 25.215,25.908 25.680,25.893 25.745 C 25.832 26.006,26.067 26.000,16.000 26.000 C 6.099 26.000,6.183 26.002,6.110 25.770 C 6.093 25.718,6.056 25.269,6.027 24.771 C 5.954 23.514,5.904 23.369,5.476 23.169 C 5.181 23.032,4.795 23.002,4.613 23.102 " fill="#1A1C1F" stroke="none" fill-rule="evenodd"></path></svg>