<svg width="24" height="24" viewBox="0 0 24 24" fill="none" xmlns="http://www.w3.org/2000/svg"><path d="M11.554 2.118 C 11.474 2.162,11.352 2.269,11.283 2.356 C 11.140 2.536,10.720 3.323,10.051 4.660 C 9.798 5.166,9.358 6.033,9.074 6.587 L 8.556 7.595 8.428 7.552 C 8.358 7.529,7.454 7.096,6.420 6.590 C 3.479 5.151,3.294 5.067,3.034 5.048 C 2.751 5.027,2.577 5.083,2.364 5.265 C 2.095 5.496,2.025 5.675,2.053 6.059 C 2.119 6.959,3.817 16.274,4.106 17.320 C 4.177 17.577,4.415 17.850,4.638 17.929 C 4.750 17.969,6.287 17.980,12.022 17.979 L 19.264 17.977 19.449 17.869 C 19.671 17.738,19.867 17.511,19.922 17.320 C 20.074 16.792,21.802 7.367,21.959 6.211 C 22.015 5.798,21.975 5.634,21.760 5.389 C 21.441 5.028,21.027 4.944,20.549 5.144 C 20.412 5.202,19.247 5.768,17.960 6.403 C 16.673 7.038,15.578 7.563,15.526 7.569 C 15.440 7.579,15.335 7.387,14.221 5.195 C 12.733 2.267,12.745 2.287,12.493 2.160 C 12.227 2.025,11.764 2.004,11.554 2.118 M12.611 6.490 C 14.059 9.317,14.177 9.535,14.360 9.725 C 14.534 9.906,14.733 9.999,14.948 10.000 C 15.138 10.000,15.690 9.758,17.340 8.950 C 19.277 8.002,19.562 7.869,19.593 7.900 C 19.605 7.912,19.538 8.358,19.444 8.891 C 19.226 10.120,18.208 15.743,18.177 15.890 L 18.154 16.000 12.001 16.000 L 5.849 16.000 5.827 15.910 C 5.815 15.861,5.489 14.065,5.102 11.920 C 4.715 9.775,4.391 7.989,4.383 7.950 C 4.374 7.912,4.382 7.880,4.400 7.880 C 4.464 7.880,4.796 8.037,6.540 8.891 C 8.424 9.814,8.729 9.951,8.982 9.986 C 9.191 10.015,9.516 9.881,9.675 9.699 C 9.826 9.527,10.106 9.026,10.559 8.120 C 11.237 6.761,11.969 5.360,12.001 5.360 C 12.018 5.360,12.293 5.869,12.611 6.490 M4.235 20.077 C 3.745 20.145,3.407 20.755,3.559 21.297 C 3.621 21.518,3.847 21.790,4.038 21.871 C 4.267 21.970,5.877 21.994,12.040 21.995 C 18.037 21.995,19.734 21.969,19.947 21.876 C 20.118 21.800,20.381 21.471,20.442 21.255 C 20.532 20.932,20.421 20.502,20.194 20.294 C 20.142 20.247,20.037 20.171,19.960 20.124 L 19.820 20.040 12.120 20.045 C 7.885 20.048,4.337 20.062,4.235 20.077 " fill="#1A1C1F" stroke="none" fill-rule="evenodd"></path></svg>