<svg width="20" height="20" viewBox="0 0 20 20" fill="none" xmlns="http://www.w3.org/2000/svg"><path d="M9.583 2.111 C 9.388 2.205,9.280 2.315,9.132 2.567 C 9.072 2.667,8.627 3.530,8.142 4.483 C 7.657 5.436,7.222 6.280,7.177 6.359 L 7.093 6.501 6.972 6.427 C 6.905 6.387,6.257 5.964,5.533 5.488 C 3.405 4.088,3.283 4.019,2.983 4.021 C 2.571 4.024,2.164 4.328,2.051 4.717 C 1.970 4.996,1.970 4.994,3.049 9.833 C 3.934 13.804,4.076 14.382,4.221 14.600 C 4.317 14.745,4.501 14.884,4.670 14.938 C 4.749 14.963,6.366 14.979,10.002 14.991 L 15.220 15.008 15.366 14.934 C 15.613 14.808,15.860 14.548,15.918 14.353 C 16.048 13.916,17.613 6.914,17.875 5.599 L 18.013 4.903 17.953 4.710 C 17.906 4.558,17.852 4.477,17.703 4.330 C 17.501 4.132,17.320 4.048,17.017 4.013 C 16.868 3.995,16.823 4.007,16.600 4.123 C 16.462 4.194,15.630 4.725,14.750 5.303 C 13.870 5.881,13.096 6.387,13.029 6.427 L 12.908 6.500 12.848 6.409 C 12.815 6.358,12.373 5.499,11.865 4.500 C 10.705 2.214,10.752 2.294,10.490 2.161 C 10.321 2.075,10.234 2.053,10.017 2.043 C 9.787 2.032,9.727 2.041,9.583 2.111 M10.058 5.399 C 10.080 5.434,10.437 6.126,10.850 6.935 C 11.263 7.745,11.654 8.487,11.719 8.585 C 11.851 8.784,11.981 8.873,12.256 8.953 C 12.493 9.022,12.679 8.999,12.940 8.866 C 13.049 8.811,13.568 8.483,14.094 8.139 C 15.516 7.206,15.433 7.256,15.433 7.334 C 15.433 7.371,15.156 8.654,14.817 10.186 C 14.477 11.719,14.200 12.978,14.200 12.986 C 14.200 12.994,12.310 13.000,10.000 13.000 C 7.690 13.000,5.800 12.993,5.800 12.985 C 5.800 12.977,5.649 12.291,5.465 11.460 C 4.746 8.225,4.565 7.382,4.574 7.330 C 4.581 7.290,4.711 7.359,5.102 7.613 C 5.388 7.798,5.898 8.130,6.236 8.349 C 7.276 9.025,7.383 9.065,7.805 8.934 C 8.169 8.822,8.270 8.680,8.956 7.317 C 9.555 6.125,9.970 5.333,9.995 5.333 C 10.007 5.333,10.036 5.363,10.058 5.399 M4.249 16.064 C 4.079 16.092,3.907 16.197,3.754 16.367 C 3.582 16.557,3.524 16.712,3.522 16.983 C 3.521 17.297,3.617 17.515,3.854 17.731 C 4.183 18.032,3.618 18.008,10.043 17.991 C 14.259 17.980,15.748 17.967,15.839 17.937 C 16.014 17.882,16.282 17.627,16.380 17.423 C 16.620 16.928,16.451 16.417,15.954 16.132 L 15.783 16.034 10.083 16.038 C 6.948 16.040,4.323 16.052,4.249 16.064 " fill="#1A1C1F" stroke="none" fill-rule="evenodd"></path></svg>