<svg width="20" height="20" viewBox="0 0 20 20" fill="none" xmlns="http://www.w3.org/2000/svg"><path d="M8.966 3.084 C 7.406 3.327,5.816 4.187,4.803 5.334 C 3.132 7.228,2.586 9.737,3.336 12.083 C 3.693 13.203,4.225 14.082,5.036 14.894 C 5.891 15.751,6.695 16.256,7.779 16.618 C 9.327 17.135,10.776 17.124,12.333 16.582 C 13.010 16.346,13.586 16.048,14.082 15.675 C 14.446 15.401,15.199 14.677,15.475 14.334 C 16.177 13.464,16.660 12.407,16.886 11.245 C 17.027 10.521,17.011 9.302,16.850 8.587 C 16.429 6.711,15.379 5.177,13.817 4.159 C 13.430 3.906,12.526 3.462,12.183 3.356 C 11.793 3.235,11.197 3.109,10.826 3.069 C 10.387 3.021,9.314 3.030,8.966 3.084 M10.371 5.034 C 11.042 5.100,11.557 5.235,12.091 5.484 C 13.563 6.171,14.632 7.558,14.902 9.128 C 14.990 9.642,14.989 10.329,14.900 10.850 C 14.554 12.871,12.995 14.474,10.956 14.905 C 10.517 14.997,9.608 15.007,9.150 14.924 C 7.608 14.644,6.238 13.615,5.533 12.206 C 5.319 11.778,5.180 11.348,5.094 10.850 C 4.999 10.294,5.021 9.418,5.144 8.900 C 5.393 7.854,5.923 6.954,6.687 6.285 C 7.503 5.571,8.471 5.147,9.533 5.038 C 9.938 4.996,9.988 4.996,10.371 5.034 M11.088 7.423 C 10.760 7.536,10.473 7.893,10.414 8.258 C 10.367 8.553,10.564 8.965,10.925 9.321 C 11.423 9.814,12.130 10.083,12.756 10.017 C 13.132 9.977,13.441 9.689,13.554 9.271 C 13.629 8.996,13.586 8.760,13.415 8.512 C 13.236 8.253,13.113 8.178,12.657 8.051 C 12.497 8.007,12.418 7.955,12.191 7.744 C 12.040 7.605,11.866 7.469,11.804 7.443 C 11.625 7.367,11.276 7.357,11.088 7.423 M8.256 7.434 C 8.146 7.467,7.997 7.577,7.708 7.839 C 7.533 7.998,7.467 8.035,7.307 8.068 C 7.032 8.125,6.923 8.177,6.749 8.338 C 6.521 8.548,6.422 8.762,6.420 9.050 C 6.417 9.421,6.598 9.731,6.930 9.926 C 7.075 10.012,7.106 10.017,7.483 10.014 C 7.825 10.012,7.919 9.999,8.128 9.925 C 8.465 9.805,8.698 9.659,9.001 9.375 C 9.303 9.092,9.449 8.881,9.538 8.594 C 9.594 8.413,9.597 8.365,9.562 8.207 C 9.479 7.837,9.202 7.526,8.873 7.434 C 8.728 7.394,8.389 7.394,8.256 7.434 M9.210 10.229 C 8.523 10.468,7.955 11.014,7.678 11.700 C 7.502 12.136,7.545 12.367,7.861 12.678 C 8.129 12.942,8.335 12.952,8.922 12.730 C 9.660 12.452,10.321 12.460,11.116 12.757 C 11.576 12.929,11.730 12.934,11.988 12.782 C 12.286 12.608,12.440 12.274,12.366 11.960 C 12.316 11.744,12.141 11.356,12.007 11.161 C 11.876 10.970,11.555 10.659,11.335 10.512 C 10.893 10.214,10.588 10.134,9.900 10.134 C 9.528 10.134,9.454 10.144,9.210 10.229 " fill="#1A1C1F" stroke="none" fill-rule="evenodd"></path></svg>