<svg width="28" height="28" viewBox="0 0 28 28" fill="none" xmlns="http://www.w3.org/2000/svg"><path d="M12.426 3.641 C 11.317 3.809,10.424 4.099,9.323 4.649 C 8.177 5.222,7.500 5.706,6.624 6.579 C 5.372 7.828,4.563 9.134,4.021 10.780 C 2.852 14.335,3.750 18.417,6.292 21.100 C 8.057 22.963,10.133 24.041,12.670 24.413 C 13.656 24.558,15.271 24.473,16.357 24.220 C 19.899 23.394,22.796 20.759,23.941 17.323 C 24.785 14.788,24.656 12.183,23.565 9.702 C 23.268 9.027,22.705 8.092,22.262 7.537 C 21.957 7.155,21.247 6.415,20.861 6.077 C 19.590 4.964,17.626 4.011,15.993 3.712 C 14.964 3.524,13.403 3.493,12.426 3.641 M15.073 5.092 C 16.125 5.186,16.899 5.414,17.943 5.936 C 19.850 6.890,21.238 8.287,22.119 10.140 C 23.385 12.801,23.263 15.875,21.787 18.480 C 21.026 19.824,19.752 21.094,18.399 21.858 C 17.673 22.268,16.615 22.666,15.773 22.845 C 15.313 22.944,13.946 23.003,13.183 22.958 C 12.008 22.889,10.569 22.431,9.450 21.770 C 7.595 20.675,6.151 18.879,5.458 16.805 C 5.110 15.764,5.089 15.603,5.089 14.000 C 5.089 12.399,5.110 12.235,5.455 11.203 C 6.579 7.840,9.410 5.530,13.001 5.044 C 13.353 4.997,14.233 5.017,15.073 5.092 M9.975 10.034 C 9.391 10.127,8.631 10.552,8.152 11.055 C 7.741 11.486,7.653 11.806,7.835 12.207 C 7.986 12.539,8.327 12.724,8.709 12.681 C 8.913 12.658,8.962 12.627,9.637 12.088 C 9.956 11.834,10.197 11.760,10.712 11.760 C 11.123 11.760,11.159 11.769,11.579 11.968 C 12.150 12.238,12.343 12.269,12.619 12.135 C 12.849 12.024,13.091 11.737,13.139 11.516 C 13.187 11.298,13.071 10.971,12.877 10.777 C 12.661 10.561,12.183 10.291,11.751 10.141 C 11.486 10.048,11.306 10.023,10.832 10.009 C 10.508 9.999,10.122 10.011,9.975 10.034 M16.613 10.038 C 16.241 10.098,15.456 10.498,15.173 10.774 C 14.984 10.958,14.935 11.039,14.909 11.212 C 14.862 11.525,14.920 11.702,15.138 11.921 C 15.354 12.137,15.683 12.259,15.899 12.205 C 15.971 12.187,16.216 12.080,16.444 11.966 C 16.856 11.762,16.864 11.760,17.348 11.760 C 17.803 11.760,17.855 11.770,18.100 11.901 C 18.245 11.978,18.500 12.159,18.667 12.302 C 19.232 12.787,19.465 12.834,19.894 12.550 C 20.268 12.302,20.399 11.857,20.207 11.481 C 20.008 11.090,19.325 10.532,18.685 10.237 C 18.382 10.097,18.243 10.062,17.852 10.030 C 17.282 9.982,16.952 9.985,16.613 10.038 M9.082 15.165 C 8.963 15.293,8.843 15.456,8.816 15.527 C 8.720 15.779,8.888 16.378,9.265 17.127 C 9.836 18.260,10.880 19.270,11.948 19.720 C 12.667 20.023,12.788 20.042,14.023 20.043 L 15.143 20.043 15.587 19.889 C 16.979 19.404,18.041 18.483,18.702 17.187 C 19.184 16.243,19.291 15.684,19.059 15.326 C 18.758 14.862,18.465 14.828,17.422 15.141 C 15.973 15.574,15.427 15.675,14.327 15.712 C 13.056 15.754,12.346 15.651,10.736 15.191 C 10.114 15.013,9.753 14.933,9.567 14.933 C 9.306 14.933,9.294 14.939,9.082 15.165 M12.320 17.366 C 13.323 17.519,14.685 17.518,15.714 17.362 C 16.130 17.300,16.487 17.265,16.507 17.284 C 16.604 17.382,15.642 18.022,15.153 18.184 C 14.802 18.301,14.708 18.312,14.023 18.314 C 13.202 18.317,12.967 18.271,12.437 18.005 C 12.070 17.822,11.480 17.377,11.480 17.286 C 11.480 17.239,11.508 17.222,11.562 17.238 C 11.607 17.252,11.948 17.310,12.320 17.366 " fill="#1A1C1F" stroke="none" fill-rule="evenodd"></path></svg>