<svg width="12" height="12" viewBox="0 0 12 12" fill="none" xmlns="http://www.w3.org/2000/svg"><path d="M5.760 1.814 C 4.720 1.874,3.639 2.380,2.940 3.135 C 1.734 4.437,1.462 6.308,2.250 7.880 C 2.459 8.295,2.721 8.643,3.112 9.021 C 3.567 9.461,3.955 9.708,4.530 9.925 C 5.432 10.266,6.377 10.285,7.300 9.981 C 7.985 9.755,8.471 9.449,9.002 8.907 C 9.469 8.430,9.748 7.981,9.959 7.369 C 10.216 6.624,10.263 5.933,10.109 5.163 C 9.928 4.262,9.444 3.438,8.738 2.832 C 8.193 2.363,7.536 2.037,6.862 1.901 C 6.540 1.835,6.053 1.797,5.760 1.814 M6.480 3.053 C 7.428 3.209,8.229 3.797,8.666 4.656 C 8.793 4.904,8.864 5.103,8.925 5.376 C 8.962 5.541,8.968 5.632,8.968 5.990 C 8.968 6.457,8.940 6.647,8.818 6.994 C 8.588 7.645,8.072 8.266,7.490 8.593 C 7.288 8.707,6.987 8.832,6.743 8.904 C 6.539 8.964,6.512 8.967,6.084 8.975 C 5.799 8.981,5.590 8.976,5.504 8.961 C 5.302 8.926,4.790 8.750,4.615 8.654 C 4.071 8.357,3.579 7.858,3.331 7.350 C 3.120 6.917,3.042 6.598,3.026 6.107 C 3.014 5.735,3.031 5.555,3.110 5.240 C 3.315 4.419,3.888 3.717,4.670 3.330 C 4.951 3.190,5.140 3.123,5.396 3.071 C 5.760 2.997,6.102 2.991,6.480 3.053 M4.625 4.230 C 4.476 4.271,4.407 4.311,4.289 4.423 C 4.223 4.485,4.164 4.567,4.127 4.646 C 4.078 4.753,4.070 4.794,4.070 4.950 C 4.070 5.185,4.131 5.327,4.301 5.489 C 4.465 5.645,4.556 5.680,4.803 5.680 C 4.979 5.680,5.016 5.674,5.111 5.627 C 5.244 5.562,5.426 5.376,5.485 5.246 C 5.519 5.170,5.528 5.111,5.529 4.960 C 5.529 4.746,5.508 4.666,5.414 4.534 C 5.234 4.282,4.900 4.153,4.625 4.230 M7.025 4.230 C 6.876 4.271,6.807 4.311,6.689 4.423 C 6.623 4.485,6.564 4.567,6.527 4.646 C 6.478 4.753,6.470 4.794,6.470 4.950 C 6.470 5.185,6.531 5.327,6.701 5.489 C 6.865 5.645,6.956 5.680,7.203 5.680 C 7.379 5.680,7.416 5.674,7.511 5.627 C 7.644 5.562,7.826 5.376,7.885 5.246 C 7.919 5.170,7.928 5.111,7.929 4.960 C 7.929 4.746,7.908 4.666,7.814 4.534 C 7.634 4.282,7.300 4.153,7.025 4.230 M4.640 6.639 C 4.472 6.690,4.313 6.826,4.248 6.975 C 4.198 7.088,4.201 7.308,4.254 7.424 C 4.311 7.549,4.442 7.688,4.557 7.744 L 4.650 7.789 5.984 7.797 L 7.318 7.804 7.414 7.758 C 7.900 7.524,7.916 6.903,7.443 6.661 C 7.363 6.621,7.339 6.620,6.026 6.622 C 5.291 6.623,4.668 6.630,4.640 6.639 " fill="#1A1C1F" stroke="none" fill-rule="evenodd"></path></svg>