<svg width="12" height="12" viewBox="0 0 12 12" fill="none" xmlns="http://www.w3.org/2000/svg"><path d="M5.330 1.862 C 4.897 1.938,4.517 2.061,4.152 2.244 C 3.294 2.674,2.635 3.334,2.229 4.169 C 1.514 5.642,1.717 7.404,2.744 8.630 C 2.936 8.859,3.281 9.194,3.500 9.362 C 4.150 9.861,4.977 10.154,5.850 10.192 C 6.799 10.234,7.832 9.897,8.577 9.302 C 8.805 9.120,9.221 8.693,9.378 8.481 C 9.872 7.814,10.159 6.990,10.193 6.140 C 10.255 4.622,9.432 3.143,8.101 2.382 C 7.570 2.077,7.049 1.902,6.496 1.841 C 6.178 1.806,5.586 1.817,5.330 1.862 M6.530 3.061 C 7.124 3.161,7.675 3.455,8.125 3.912 C 8.571 4.365,8.836 4.881,8.942 5.503 C 8.978 5.713,8.983 5.802,8.974 6.100 C 8.962 6.481,8.938 6.629,8.830 6.953 C 8.682 7.397,8.466 7.737,8.091 8.111 C 7.707 8.496,7.394 8.692,6.912 8.850 C 6.577 8.960,6.441 8.980,6.045 8.980 C 5.599 8.980,5.411 8.957,5.131 8.866 C 4.028 8.511,3.259 7.633,3.049 6.490 C 3.006 6.261,3.019 5.611,3.069 5.385 C 3.153 5.011,3.343 4.581,3.563 4.271 C 3.725 4.042,4.041 3.725,4.266 3.566 C 4.937 3.092,5.704 2.921,6.530 3.061 M4.625 4.230 C 4.476 4.271,4.407 4.311,4.289 4.423 C 4.223 4.485,4.164 4.567,4.127 4.646 C 4.078 4.753,4.070 4.794,4.070 4.950 C 4.070 5.185,4.131 5.327,4.301 5.489 C 4.465 5.645,4.556 5.680,4.803 5.680 C 4.979 5.680,5.016 5.674,5.111 5.627 C 5.244 5.562,5.426 5.376,5.485 5.246 C 5.519 5.170,5.528 5.111,5.529 4.960 C 5.529 4.746,5.508 4.666,5.414 4.534 C 5.234 4.282,4.900 4.153,4.625 4.230 M7.025 4.230 C 6.876 4.271,6.807 4.311,6.689 4.423 C 6.623 4.485,6.564 4.567,6.527 4.646 C 6.478 4.753,6.470 4.794,6.470 4.950 C 6.470 5.185,6.531 5.327,6.701 5.489 C 6.865 5.645,6.956 5.680,7.203 5.680 C 7.379 5.680,7.416 5.674,7.511 5.627 C 7.644 5.562,7.826 5.376,7.885 5.246 C 7.919 5.170,7.928 5.111,7.929 4.960 C 7.929 4.746,7.908 4.666,7.814 4.534 C 7.634 4.282,7.300 4.153,7.025 4.230 M4.625 6.469 C 4.460 6.521,4.272 6.706,4.220 6.867 C 4.188 6.968,4.203 7.191,4.248 7.284 C 4.334 7.462,4.681 7.726,5.028 7.878 C 5.615 8.135,6.149 8.163,6.740 7.967 C 7.178 7.823,7.624 7.523,7.746 7.292 C 7.807 7.175,7.808 6.886,7.746 6.770 C 7.688 6.661,7.604 6.579,7.477 6.509 C 7.384 6.458,7.350 6.450,7.220 6.451 C 7.051 6.453,6.955 6.492,6.668 6.680 C 6.451 6.821,6.241 6.887,6.000 6.888 C 5.739 6.889,5.554 6.822,5.180 6.591 C 4.946 6.447,4.800 6.415,4.625 6.469 " fill="#1A1C1F" stroke="none" fill-rule="evenodd"></path></svg>