<svg width="28" height="28" viewBox="0 0 28 28" fill="none" xmlns="http://www.w3.org/2000/svg"><path d="M12.426 3.641 C 11.317 3.809,10.424 4.099,9.323 4.649 C 8.177 5.222,7.500 5.706,6.624 6.579 C 5.372 7.828,4.563 9.134,4.021 10.780 C 2.852 14.335,3.750 18.417,6.292 21.100 C 8.057 22.963,10.133 24.041,12.670 24.413 C 13.656 24.558,15.271 24.473,16.357 24.220 C 19.899 23.394,22.796 20.759,23.941 17.323 C 24.785 14.788,24.656 12.183,23.565 9.702 C 23.268 9.027,22.705 8.092,22.262 7.537 C 21.957 7.155,21.247 6.415,20.861 6.077 C 19.590 4.964,17.626 4.011,15.993 3.712 C 14.964 3.524,13.403 3.493,12.426 3.641 M15.073 5.092 C 16.125 5.186,16.899 5.414,17.943 5.936 C 19.850 6.890,21.238 8.287,22.119 10.140 C 23.385 12.801,23.263 15.875,21.787 18.480 C 21.026 19.824,19.752 21.094,18.399 21.858 C 17.673 22.268,16.615 22.666,15.773 22.845 C 15.313 22.944,13.946 23.003,13.183 22.958 C 12.008 22.889,10.569 22.431,9.450 21.770 C 7.595 20.675,6.151 18.879,5.458 16.805 C 5.110 15.764,5.089 15.603,5.089 14.000 C 5.089 12.399,5.110 12.235,5.455 11.203 C 6.579 7.840,9.410 5.530,13.001 5.044 C 13.353 4.997,14.233 5.017,15.073 5.092 M10.383 9.741 C 9.876 9.924,9.468 10.324,9.301 10.803 C 9.175 11.164,9.190 11.768,9.333 12.062 C 9.476 12.358,9.947 12.830,10.245 12.975 C 10.444 13.072,10.543 13.088,10.943 13.087 C 11.363 13.086,11.436 13.072,11.665 12.954 C 11.978 12.792,12.364 12.404,12.512 12.103 C 12.601 11.922,12.627 11.785,12.639 11.418 C 12.655 10.982,12.648 10.944,12.510 10.664 C 12.328 10.294,11.907 9.889,11.590 9.782 C 11.233 9.660,10.661 9.641,10.383 9.741 M16.581 9.702 C 16.381 9.754,16.006 9.998,15.778 10.226 C 15.475 10.530,15.382 10.774,15.361 11.329 C 15.344 11.776,15.351 11.825,15.471 12.070 C 15.630 12.395,16.054 12.826,16.360 12.976 C 16.556 13.072,16.659 13.088,17.057 13.088 C 17.633 13.088,17.852 12.996,18.271 12.578 C 18.684 12.165,18.764 11.972,18.766 11.387 C 18.768 10.969,18.753 10.884,18.646 10.664 C 18.484 10.334,18.004 9.884,17.705 9.782 C 17.442 9.693,16.795 9.647,16.581 9.702 M10.290 16.703 C 10.021 16.749,9.911 16.823,9.782 17.046 C 9.551 17.443,9.590 17.768,9.907 18.099 C 10.200 18.404,9.950 18.387,14.005 18.387 L 17.702 18.387 17.903 18.269 C 18.474 17.934,18.504 17.138,17.960 16.777 L 17.782 16.660 14.129 16.666 C 12.120 16.669,10.393 16.686,10.290 16.703 " fill="#1A1C1F" stroke="none" fill-rule="evenodd"></path></svg>