<svg width="12" height="12" viewBox="0 0 12 12" fill="none" xmlns="http://www.w3.org/2000/svg"><path d="M5.760 1.814 C 4.720 1.874,3.639 2.380,2.940 3.135 C 1.734 4.437,1.462 6.308,2.250 7.880 C 2.459 8.295,2.721 8.643,3.112 9.021 C 3.567 9.461,3.955 9.708,4.530 9.925 C 5.432 10.266,6.377 10.285,7.300 9.981 C 7.985 9.755,8.471 9.449,9.002 8.907 C 9.469 8.430,9.748 7.981,9.959 7.369 C 10.216 6.624,10.263 5.933,10.109 5.163 C 9.928 4.262,9.444 3.438,8.738 2.832 C 8.193 2.363,7.536 2.037,6.862 1.901 C 6.540 1.835,6.053 1.797,5.760 1.814 M6.480 3.053 C 7.428 3.209,8.229 3.797,8.666 4.656 C 8.793 4.904,8.864 5.103,8.925 5.376 C 8.962 5.541,8.968 5.632,8.968 5.990 C 8.968 6.457,8.940 6.647,8.818 6.994 C 8.588 7.645,8.072 8.266,7.490 8.593 C 7.288 8.707,6.987 8.832,6.743 8.904 C 6.539 8.964,6.512 8.967,6.084 8.975 C 5.799 8.981,5.590 8.976,5.504 8.961 C 5.302 8.926,4.790 8.750,4.615 8.654 C 4.071 8.357,3.579 7.858,3.331 7.350 C 3.120 6.917,3.042 6.598,3.026 6.107 C 3.014 5.735,3.031 5.555,3.110 5.240 C 3.315 4.419,3.888 3.717,4.670 3.330 C 4.951 3.190,5.140 3.123,5.396 3.071 C 5.760 2.997,6.102 2.991,6.480 3.053 M6.679 4.438 C 6.394 4.531,6.200 4.844,6.261 5.115 C 6.352 5.518,6.868 5.936,7.358 6.002 C 7.689 6.047,7.888 5.982,8.028 5.785 C 8.207 5.534,8.199 5.275,8.007 5.061 C 7.892 4.933,7.825 4.894,7.631 4.841 C 7.485 4.802,7.461 4.787,7.327 4.660 C 7.247 4.584,7.145 4.503,7.101 4.481 C 7.012 4.435,6.763 4.410,6.679 4.438 M4.950 4.464 C 4.877 4.490,4.790 4.553,4.625 4.703 C 4.520 4.799,4.480 4.821,4.384 4.841 C 4.219 4.875,4.154 4.906,4.049 5.003 C 3.780 5.251,3.782 5.640,4.054 5.880 C 4.182 5.992,4.316 6.029,4.549 6.014 C 4.649 6.008,4.788 5.983,4.860 5.960 C 5.237 5.836,5.626 5.475,5.721 5.160 C 5.760 5.034,5.760 5.017,5.733 4.912 C 5.654 4.609,5.444 4.440,5.150 4.442 C 5.073 4.443,4.983 4.453,4.950 4.464 M5.526 6.138 C 5.051 6.303,4.649 6.736,4.557 7.179 C 4.536 7.281,4.537 7.307,4.570 7.393 C 4.591 7.448,4.651 7.536,4.708 7.596 C 4.874 7.768,5.013 7.777,5.361 7.638 C 5.774 7.472,6.197 7.478,6.670 7.654 C 6.874 7.731,6.924 7.743,7.007 7.733 C 7.198 7.710,7.366 7.564,7.420 7.371 C 7.441 7.294,7.440 7.261,7.412 7.148 C 7.309 6.739,6.993 6.374,6.572 6.179 C 6.415 6.106,6.252 6.080,5.940 6.080 C 5.717 6.081,5.672 6.087,5.526 6.138 " fill="#1A1C1F" stroke="none" fill-rule="evenodd"></path></svg>