<svg width="20" height="20" viewBox="0 0 20 20" fill="none" xmlns="http://www.w3.org/2000/svg"><path d="M8.966 3.084 C 7.406 3.327,5.816 4.187,4.803 5.334 C 3.132 7.228,2.586 9.737,3.336 12.083 C 3.693 13.203,4.225 14.082,5.036 14.894 C 5.891 15.751,6.695 16.256,7.779 16.618 C 9.327 17.135,10.776 17.124,12.333 16.582 C 13.010 16.346,13.586 16.048,14.082 15.675 C 14.446 15.401,15.199 14.677,15.475 14.334 C 16.177 13.464,16.660 12.407,16.886 11.245 C 17.027 10.521,17.011 9.302,16.850 8.587 C 16.429 6.711,15.379 5.177,13.817 4.159 C 13.430 3.906,12.526 3.462,12.183 3.356 C 11.793 3.235,11.197 3.109,10.826 3.069 C 10.387 3.021,9.314 3.030,8.966 3.084 M10.371 5.034 C 11.042 5.100,11.557 5.235,12.091 5.484 C 13.563 6.171,14.632 7.558,14.902 9.128 C 14.990 9.642,14.989 10.329,14.900 10.850 C 14.554 12.871,12.995 14.474,10.956 14.905 C 10.517 14.997,9.608 15.007,9.150 14.924 C 7.608 14.644,6.238 13.615,5.533 12.206 C 5.319 11.778,5.180 11.348,5.094 10.850 C 4.999 10.294,5.021 9.418,5.144 8.900 C 5.393 7.854,5.923 6.954,6.687 6.285 C 7.503 5.571,8.471 5.147,9.533 5.038 C 9.938 4.996,9.988 4.996,10.371 5.034 M7.883 7.355 C 7.278 7.484,6.622 7.908,6.445 8.283 C 6.358 8.470,6.340 8.786,6.404 9.001 C 6.509 9.351,6.875 9.631,7.264 9.659 C 7.529 9.678,7.671 9.639,7.944 9.475 C 8.121 9.369,8.170 9.356,8.498 9.332 C 8.974 9.297,9.107 9.253,9.317 9.061 C 9.548 8.849,9.646 8.629,9.645 8.317 C 9.645 8.028,9.558 7.828,9.346 7.633 C 9.137 7.441,8.955 7.373,8.540 7.334 C 8.123 7.294,8.177 7.293,7.883 7.355 M11.328 7.334 C 11.053 7.367,10.850 7.455,10.666 7.621 C 10.453 7.813,10.367 8.023,10.368 8.350 C 10.368 8.688,10.430 8.829,10.673 9.052 C 10.894 9.254,11.014 9.294,11.497 9.329 C 11.843 9.354,11.871 9.361,12.040 9.478 C 12.266 9.633,12.385 9.667,12.718 9.667 C 12.957 9.667,13.003 9.656,13.135 9.571 C 13.476 9.351,13.647 9.060,13.649 8.700 C 13.650 8.415,13.552 8.213,13.283 7.948 C 12.831 7.501,12.032 7.250,11.328 7.334 M8.041 10.787 C 7.872 10.873,7.649 11.142,7.600 11.317 C 7.491 11.706,7.797 12.338,8.344 12.855 C 8.647 13.141,8.842 13.262,9.203 13.384 C 9.735 13.565,10.262 13.561,10.801 13.370 C 11.181 13.236,11.414 13.085,11.734 12.767 C 11.965 12.537,12.046 12.429,12.157 12.200 C 12.336 11.830,12.413 11.562,12.384 11.407 C 12.306 10.994,11.925 10.701,11.521 10.742 C 11.424 10.753,11.232 10.808,11.097 10.866 C 10.718 11.027,10.504 11.066,9.983 11.066 C 9.463 11.066,9.252 11.028,8.867 10.865 C 8.555 10.733,8.209 10.700,8.041 10.787 " fill="#1A1C1F" stroke="none" fill-rule="evenodd"></path></svg>