<svg width="28" height="28" viewBox="0 0 28 28" fill="none" xmlns="http://www.w3.org/2000/svg"><path d="M12.426 3.641 C 11.317 3.809,10.424 4.099,9.323 4.649 C 8.177 5.222,7.500 5.706,6.624 6.579 C 5.372 7.828,4.563 9.134,4.021 10.780 C 2.852 14.335,3.750 18.417,6.292 21.100 C 8.057 22.963,10.133 24.041,12.670 24.413 C 13.656 24.558,15.271 24.473,16.357 24.220 C 19.899 23.394,22.796 20.759,23.941 17.323 C 24.785 14.788,24.656 12.183,23.565 9.702 C 23.268 9.027,22.705 8.092,22.262 7.537 C 21.957 7.155,21.247 6.415,20.861 6.077 C 19.590 4.964,17.626 4.011,15.993 3.712 C 14.964 3.524,13.403 3.493,12.426 3.641 M15.073 5.092 C 16.125 5.186,16.899 5.414,17.943 5.936 C 19.850 6.890,21.238 8.287,22.119 10.140 C 23.385 12.801,23.263 15.875,21.787 18.480 C 21.026 19.824,19.752 21.094,18.399 21.858 C 17.673 22.268,16.615 22.666,15.773 22.845 C 15.313 22.944,13.946 23.003,13.183 22.958 C 12.008 22.889,10.569 22.431,9.450 21.770 C 7.595 20.675,6.151 18.879,5.458 16.805 C 5.110 15.764,5.089 15.603,5.089 14.000 C 5.089 12.399,5.110 12.235,5.455 11.203 C 6.579 7.840,9.410 5.530,13.001 5.044 C 13.353 4.997,14.233 5.017,15.073 5.092 M11.947 9.891 C 11.673 9.944,11.581 10.022,11.321 10.421 C 11.014 10.892,10.787 11.113,10.453 11.266 C 10.094 11.430,9.757 11.460,9.314 11.369 C 8.553 11.211,8.216 11.305,8.003 11.731 C 7.642 12.457,8.170 12.999,9.401 13.162 C 10.079 13.253,11.008 13.022,11.637 12.608 C 12.382 12.118,13.020 11.221,13.020 10.665 C 13.020 10.131,12.529 9.777,11.947 9.891 M15.554 9.898 C 15.329 9.963,15.091 10.214,15.027 10.454 C 14.853 11.099,15.635 12.200,16.660 12.753 C 17.246 13.069,17.535 13.137,18.293 13.137 C 18.863 13.137,19.022 13.120,19.297 13.033 C 19.895 12.844,20.131 12.582,20.131 12.110 C 20.131 11.816,20.024 11.610,19.778 11.432 C 19.549 11.266,19.300 11.251,18.732 11.369 C 18.282 11.462,17.962 11.434,17.605 11.271 C 17.278 11.122,17.015 10.873,16.676 10.391 C 16.327 9.894,16.025 9.762,15.554 9.898 M13.370 13.625 C 12.018 13.731,10.642 14.538,9.763 15.739 C 9.333 16.326,8.981 17.062,8.842 17.663 C 8.748 18.068,8.799 18.256,9.079 18.540 C 9.414 18.879,9.482 18.878,10.727 18.507 C 11.990 18.131,12.854 17.997,14.023 17.998 C 15.244 17.999,16.195 18.157,17.570 18.588 C 18.299 18.817,18.431 18.833,18.680 18.722 C 19.142 18.518,19.287 18.054,19.090 17.408 C 18.618 15.855,17.354 14.483,15.864 13.909 C 15.244 13.669,14.248 13.556,13.370 13.625 M15.119 15.510 C 15.649 15.694,16.636 16.333,16.536 16.427 C 16.514 16.447,16.234 16.425,15.913 16.377 C 14.531 16.171,13.448 16.171,12.065 16.378 C 11.732 16.428,11.448 16.457,11.435 16.443 C 11.361 16.367,12.264 15.734,12.697 15.558 C 13.099 15.395,13.415 15.355,14.149 15.376 C 14.676 15.391,14.845 15.415,15.119 15.510 " fill="#1A1C1F" stroke="none" fill-rule="evenodd"></path></svg>