<svg width="20" height="20" viewBox="0 0 20 20" fill="none" xmlns="http://www.w3.org/2000/svg"><path d="M8.966 3.084 C 7.406 3.327,5.816 4.187,4.803 5.334 C 3.132 7.228,2.586 9.737,3.336 12.083 C 3.693 13.203,4.225 14.082,5.036 14.894 C 5.891 15.751,6.695 16.256,7.779 16.618 C 9.327 17.135,10.776 17.124,12.333 16.582 C 13.010 16.346,13.586 16.048,14.082 15.675 C 14.446 15.401,15.199 14.677,15.475 14.334 C 16.177 13.464,16.660 12.407,16.886 11.245 C 17.027 10.521,17.011 9.302,16.850 8.587 C 16.429 6.711,15.379 5.177,13.817 4.159 C 13.430 3.906,12.526 3.462,12.183 3.356 C 11.793 3.235,11.197 3.109,10.826 3.069 C 10.387 3.021,9.314 3.030,8.966 3.084 M10.371 5.034 C 11.042 5.100,11.557 5.235,12.091 5.484 C 13.563 6.171,14.632 7.558,14.902 9.128 C 14.990 9.642,14.989 10.329,14.900 10.850 C 14.554 12.871,12.995 14.474,10.956 14.905 C 10.517 14.997,9.608 15.007,9.150 14.924 C 7.608 14.644,6.238 13.615,5.533 12.206 C 5.319 11.778,5.180 11.348,5.094 10.850 C 4.999 10.294,5.021 9.418,5.144 8.900 C 5.393 7.854,5.923 6.954,6.687 6.285 C 7.503 5.571,8.471 5.147,9.533 5.038 C 9.938 4.996,9.988 4.996,10.371 5.034 M7.541 7.103 C 7.440 7.142,7.282 7.249,7.171 7.352 C 6.526 7.948,6.685 8.987,7.481 9.384 C 7.625 9.456,7.691 9.467,7.992 9.467 C 8.299 9.467,8.358 9.457,8.519 9.378 C 8.748 9.266,9.010 8.991,9.127 8.742 C 9.204 8.578,9.217 8.506,9.217 8.250 C 9.217 7.991,9.204 7.922,9.123 7.750 C 9.005 7.496,8.805 7.289,8.550 7.158 C 8.375 7.067,8.311 7.053,8.033 7.044 C 7.774 7.035,7.685 7.046,7.541 7.103 M11.541 7.103 C 11.440 7.142,11.282 7.249,11.171 7.352 C 10.526 7.948,10.685 8.987,11.481 9.384 C 11.625 9.456,11.691 9.467,11.992 9.467 C 12.299 9.467,12.358 9.457,12.519 9.378 C 12.748 9.266,13.010 8.991,13.127 8.742 C 13.204 8.578,13.217 8.506,13.217 8.250 C 13.217 7.991,13.204 7.922,13.123 7.750 C 13.005 7.496,12.805 7.289,12.550 7.158 C 12.375 7.067,12.311 7.053,12.033 7.044 C 11.774 7.035,11.685 7.046,11.541 7.103 M7.662 11.086 C 7.463 11.147,7.197 11.386,7.098 11.591 C 7.042 11.708,7.021 11.811,7.020 11.983 C 7.018 12.286,7.115 12.509,7.338 12.717 C 7.635 12.995,7.472 12.978,9.974 12.993 L 12.198 13.007 12.357 12.930 C 13.148 12.548,13.201 11.560,12.454 11.132 L 12.283 11.034 10.050 11.036 C 8.213 11.038,7.789 11.046,7.662 11.086 " fill="#1A1C1F" stroke="none" fill-rule="evenodd"></path></svg>