<svg width="32" height="32" viewBox="0 0 32 32" fill="none" xmlns="http://www.w3.org/2000/svg"><path d="M14.400 4.131 C 13.068 4.325,12.083 4.626,10.889 5.203 C 9.423 5.910,8.626 6.467,7.571 7.519 C 5.624 9.461,4.509 11.697,4.100 14.480 C 4.009 15.100,4.008 16.897,4.099 17.520 C 4.346 19.212,4.892 20.782,5.705 22.133 C 6.235 23.013,6.736 23.648,7.517 24.428 C 8.928 25.836,10.336 26.718,12.187 27.351 C 14.651 28.194,17.260 28.206,19.719 27.387 C 22.889 26.330,25.410 24.092,26.852 21.054 C 28.652 17.259,28.300 12.813,25.918 9.280 C 25.526 8.699,25.379 8.515,24.784 7.872 C 24.118 7.150,23.510 6.629,22.720 6.104 C 20.983 4.949,19.162 4.284,17.253 4.108 C 16.477 4.036,14.967 4.048,14.400 4.131 M17.227 5.819 C 18.425 5.927,19.312 6.187,20.500 6.779 C 23.647 8.349,25.699 11.173,26.193 14.613 C 26.287 15.267,26.271 16.813,26.165 17.504 C 25.910 19.152,25.209 20.836,24.226 22.160 C 23.458 23.196,22.158 24.342,21.028 24.980 C 20.197 25.450,18.983 25.906,18.027 26.108 C 17.468 26.227,15.883 26.298,15.057 26.242 C 13.700 26.150,12.063 25.626,10.800 24.880 C 8.680 23.628,7.030 21.576,6.238 19.206 C 5.840 18.016,5.816 17.832,5.816 16.000 C 5.816 14.171,5.840 13.983,6.235 12.803 C 7.321 9.555,9.851 7.101,13.101 6.143 C 14.523 5.724,15.394 5.655,17.227 5.819 M11.867 11.136 C 11.493 11.266,11.137 11.526,10.912 11.833 C 10.628 12.220,10.546 12.487,10.541 13.040 C 10.536 13.640,10.651 13.906,11.119 14.374 C 11.599 14.854,11.848 14.958,12.507 14.957 C 12.986 14.955,13.070 14.940,13.331 14.804 C 13.689 14.619,14.130 14.176,14.300 13.832 C 14.400 13.627,14.430 13.468,14.445 13.065 C 14.461 12.615,14.447 12.523,14.327 12.252 C 14.164 11.881,13.744 11.424,13.418 11.262 C 12.970 11.037,12.305 10.984,11.867 11.136 M18.880 11.119 C 18.575 11.220,18.071 11.599,17.859 11.887 C 17.634 12.193,17.547 12.522,17.547 13.065 C 17.547 13.636,17.685 13.952,18.134 14.400 C 18.587 14.854,18.841 14.958,19.493 14.958 C 20.152 14.958,20.402 14.853,20.881 14.374 C 21.351 13.904,21.448 13.674,21.452 13.017 C 21.454 12.544,21.439 12.452,21.312 12.193 C 21.125 11.810,20.579 11.297,20.234 11.180 C 19.861 11.053,19.175 11.022,18.880 11.119 M14.747 17.626 C 13.178 17.903,11.478 18.723,10.515 19.668 C 10.160 20.017,9.994 20.368,10.048 20.655 C 10.124 21.065,10.625 21.493,11.027 21.493 C 11.277 21.493,11.384 21.437,12.080 20.941 C 12.803 20.426,13.532 20.029,14.160 19.807 C 14.577 19.660,14.617 19.657,15.920 19.639 L 17.253 19.620 17.733 19.789 C 18.485 20.054,18.955 20.298,19.737 20.829 C 20.135 21.099,20.541 21.362,20.639 21.413 C 20.864 21.529,21.228 21.489,21.473 21.322 C 21.683 21.178,21.907 20.841,21.952 20.603 C 22.000 20.348,21.769 19.906,21.427 19.599 C 20.820 19.053,19.470 18.274,18.578 17.956 C 17.880 17.706,17.128 17.589,16.107 17.569 C 15.466 17.557,15.039 17.575,14.747 17.626 " fill="#1A1C1F" stroke="none" fill-rule="evenodd"></path></svg>