<svg width="16" height="16" viewBox="0 0 16 16" fill="none" xmlns="http://www.w3.org/2000/svg"><path d="M7.187 2.465 C 6.325 2.600,5.441 2.959,4.747 3.456 C 4.512 3.624,4.045 4.047,3.822 4.293 C 3.264 4.911,2.856 5.654,2.615 6.496 C 2.334 7.478,2.335 8.581,2.618 9.520 C 2.811 10.158,3.124 10.811,3.442 11.240 C 3.724 11.619,4.381 12.276,4.760 12.557 C 5.658 13.224,7.008 13.634,8.160 13.592 C 9.268 13.551,10.326 13.196,11.233 12.560 C 11.538 12.346,12.278 11.619,12.504 11.310 C 13.247 10.297,13.645 9.008,13.592 7.787 C 13.524 6.230,12.830 4.791,11.667 3.792 C 10.801 3.049,9.741 2.579,8.653 2.455 C 8.330 2.418,7.450 2.424,7.187 2.465 M8.853 4.102 C 10.209 4.419,11.316 5.409,11.768 6.710 C 11.934 7.186,11.960 7.359,11.960 8.000 C 11.959 8.527,11.953 8.597,11.889 8.869 C 11.757 9.422,11.503 9.970,11.184 10.390 C 10.988 10.647,10.456 11.159,10.223 11.314 C 9.978 11.476,9.495 11.707,9.182 11.810 C 8.724 11.961,8.568 11.980,7.898 11.966 C 7.228 11.952,7.088 11.926,6.557 11.718 C 5.304 11.227,4.381 10.134,4.090 8.799 C 4.014 8.452,4.020 7.553,4.101 7.184 C 4.372 5.937,5.129 4.975,6.280 4.411 C 6.630 4.240,6.940 4.136,7.307 4.066 C 7.608 4.009,8.550 4.031,8.853 4.102 M6.033 5.682 C 5.829 5.763,5.599 5.985,5.506 6.192 C 5.282 6.691,5.497 7.274,5.992 7.508 C 6.110 7.564,6.169 7.573,6.400 7.573 C 6.639 7.573,6.687 7.565,6.815 7.502 C 6.998 7.413,7.208 7.193,7.301 6.993 C 7.363 6.862,7.373 6.805,7.373 6.600 C 7.373 6.393,7.363 6.338,7.299 6.200 C 7.204 5.997,7.044 5.831,6.840 5.726 C 6.700 5.654,6.649 5.642,6.427 5.635 C 6.219 5.628,6.148 5.636,6.033 5.682 M9.233 5.682 C 9.029 5.763,8.799 5.985,8.706 6.192 C 8.482 6.691,8.697 7.274,9.192 7.508 C 9.310 7.564,9.369 7.573,9.600 7.573 C 9.839 7.573,9.887 7.565,10.015 7.502 C 10.198 7.413,10.408 7.193,10.501 6.993 C 10.563 6.862,10.573 6.805,10.573 6.600 C 10.573 6.393,10.563 6.338,10.499 6.200 C 10.404 5.997,10.244 5.831,10.040 5.726 C 9.900 5.654,9.849 5.642,9.627 5.635 C 9.419 5.628,9.348 5.636,9.233 5.682 M7.587 8.215 C 6.908 8.321,6.061 8.740,5.762 9.117 C 5.472 9.483,5.590 10.055,6.002 10.278 C 6.119 10.342,6.186 10.359,6.360 10.367 C 6.599 10.379,6.634 10.366,7.089 10.085 C 7.368 9.914,7.536 9.851,7.818 9.810 C 8.009 9.783,8.072 9.785,8.267 9.825 C 8.499 9.872,8.802 10.005,9.026 10.160 C 9.197 10.277,9.409 10.370,9.551 10.390 C 9.844 10.430,10.173 10.235,10.321 9.936 C 10.398 9.779,10.405 9.745,10.395 9.568 C 10.382 9.333,10.331 9.219,10.165 9.053 C 9.927 8.817,9.352 8.479,8.969 8.350 C 8.616 8.231,7.919 8.163,7.587 8.215 " fill="#1A1C1F" stroke="none" fill-rule="evenodd"></path></svg>