<svg width="24" height="24" viewBox="0 0 24 24" fill="none" xmlns="http://www.w3.org/2000/svg"><path d="M11.040 3.066 C 9.957 3.231,9.425 3.362,8.772 3.621 C 4.071 5.492,1.814 10.625,3.639 15.294 C 4.163 16.632,5.029 17.840,6.173 18.825 C 7.067 19.594,8.047 20.152,9.140 20.515 C 11.223 21.205,13.235 21.154,15.281 20.358 C 16.473 19.894,17.382 19.295,18.326 18.352 C 19.356 17.322,20.015 16.289,20.480 14.974 C 21.428 12.292,21.045 9.343,19.439 6.960 C 19.145 6.524,19.034 6.387,18.588 5.904 C 18.081 5.355,17.630 4.969,17.016 4.562 C 15.741 3.716,14.389 3.222,12.966 3.081 C 12.578 3.043,11.261 3.032,11.040 3.066 M12.760 5.084 C 13.649 5.170,14.273 5.353,15.140 5.781 C 16.527 6.465,17.613 7.575,18.302 9.013 C 18.857 10.171,19.050 11.332,18.924 12.755 C 18.721 15.040,17.240 17.184,15.139 18.231 C 13.654 18.971,12.142 19.172,10.567 18.840 C 7.945 18.287,5.936 16.342,5.217 13.660 C 5.002 12.862,4.982 11.350,5.175 10.520 C 5.499 9.124,6.174 7.928,7.186 6.960 C 8.058 6.126,9.195 5.491,10.279 5.234 C 11.205 5.013,11.707 4.983,12.760 5.084 M9.651 8.105 C 9.525 8.168,9.347 8.347,9.009 8.752 C 8.796 9.008,8.628 9.070,8.324 9.005 C 7.986 8.932,7.610 8.948,7.414 9.043 C 6.926 9.279,6.735 9.843,6.977 10.337 C 7.167 10.726,7.497 10.909,8.176 11.002 C 8.566 11.056,9.052 11.000,9.429 10.858 C 10.213 10.563,10.962 9.745,11.027 9.112 C 11.090 8.506,10.660 8.039,10.042 8.041 C 9.885 8.041,9.728 8.067,9.651 8.105 M13.600 8.069 C 13.437 8.131,13.191 8.341,13.100 8.497 C 12.904 8.831,12.937 9.282,13.190 9.720 C 13.337 9.975,13.766 10.409,14.063 10.602 C 15.159 11.316,16.832 11.094,17.080 10.202 C 17.238 9.633,16.918 9.088,16.352 8.962 C 16.208 8.930,16.089 8.935,15.835 8.983 C 15.302 9.084,15.177 9.028,14.801 8.522 C 14.536 8.164,14.306 8.039,13.922 8.043 C 13.778 8.045,13.633 8.057,13.600 8.069 M11.180 11.586 C 9.890 11.791,8.641 12.809,8.079 14.114 C 7.826 14.701,7.714 15.105,7.707 15.460 C 7.701 15.743,7.713 15.801,7.810 15.967 C 8.004 16.297,8.304 16.480,8.652 16.480 C 8.731 16.480,9.107 16.401,9.488 16.304 C 10.628 16.013,10.850 15.984,11.960 15.982 C 13.078 15.980,13.412 16.021,14.440 16.288 C 15.155 16.473,15.539 16.502,15.752 16.387 C 15.944 16.283,16.188 16.018,16.246 15.848 C 16.441 15.281,16.030 14.051,15.351 13.169 C 14.803 12.457,13.973 11.878,13.205 11.673 C 12.956 11.606,12.753 11.589,12.100 11.579 C 11.660 11.572,11.246 11.576,11.180 11.586 M12.724 13.634 C 12.844 13.676,13.040 13.761,13.161 13.824 L 13.380 13.940 13.080 13.965 C 12.683 13.998,11.299 13.997,10.920 13.963 L 10.620 13.936 10.965 13.768 C 11.155 13.676,11.407 13.583,11.525 13.562 C 11.833 13.507,12.465 13.545,12.724 13.634 " fill="#1A1C1F" stroke="none" fill-rule="evenodd"></path></svg>