<svg width="12" height="12" viewBox="0 0 12 12" fill="none" xmlns="http://www.w3.org/2000/svg"><path d="M5.760 1.814 C 4.720 1.874,3.639 2.380,2.940 3.135 C 1.734 4.437,1.462 6.308,2.250 7.880 C 2.459 8.295,2.721 8.643,3.112 9.021 C 3.567 9.461,3.955 9.708,4.530 9.925 C 5.432 10.266,6.377 10.285,7.300 9.981 C 7.985 9.755,8.471 9.449,9.002 8.907 C 9.469 8.430,9.748 7.981,9.959 7.369 C 10.216 6.624,10.263 5.933,10.109 5.163 C 9.928 4.262,9.444 3.438,8.738 2.832 C 8.193 2.363,7.536 2.037,6.862 1.901 C 6.540 1.835,6.053 1.797,5.760 1.814 M6.480 3.053 C 7.428 3.209,8.229 3.797,8.666 4.656 C 8.793 4.904,8.864 5.103,8.925 5.376 C 8.962 5.541,8.968 5.632,8.968 5.990 C 8.968 6.457,8.940 6.647,8.818 6.994 C 8.588 7.645,8.072 8.266,7.490 8.593 C 7.288 8.707,6.987 8.832,6.743 8.904 C 6.539 8.964,6.512 8.967,6.084 8.975 C 5.799 8.981,5.590 8.976,5.504 8.961 C 5.302 8.926,4.790 8.750,4.615 8.654 C 4.071 8.357,3.579 7.858,3.331 7.350 C 3.120 6.917,3.042 6.598,3.026 6.107 C 3.014 5.735,3.031 5.555,3.110 5.240 C 3.315 4.419,3.888 3.717,4.670 3.330 C 4.951 3.190,5.140 3.123,5.396 3.071 C 5.760 2.997,6.102 2.991,6.480 3.053 M6.792 4.402 C 6.431 4.450,6.218 4.675,6.218 5.008 C 6.218 5.203,6.258 5.295,6.399 5.426 C 6.536 5.552,6.605 5.576,6.898 5.597 C 7.106 5.612,7.123 5.617,7.224 5.687 C 7.357 5.778,7.432 5.801,7.610 5.803 C 7.783 5.806,7.867 5.772,7.997 5.650 C 8.126 5.530,8.188 5.391,8.189 5.220 C 8.190 5.049,8.131 4.928,7.970 4.769 C 7.697 4.499,7.211 4.348,6.792 4.402 M4.568 4.456 C 4.234 4.575,3.956 4.778,3.867 4.970 C 3.805 5.103,3.802 5.329,3.859 5.449 C 3.961 5.658,4.136 5.779,4.360 5.795 C 4.517 5.807,4.603 5.783,4.767 5.685 C 4.873 5.621,4.902 5.614,5.099 5.599 C 5.384 5.578,5.464 5.552,5.590 5.436 C 5.729 5.309,5.787 5.177,5.787 4.990 C 5.787 4.816,5.735 4.697,5.607 4.579 C 5.453 4.437,5.374 4.414,5.030 4.405 C 4.741 4.398,4.724 4.400,4.568 4.456 M4.820 6.471 C 4.734 6.531,4.618 6.648,4.587 6.706 C 4.514 6.845,4.574 7.152,4.718 7.374 C 4.932 7.704,5.199 7.922,5.520 8.030 C 5.928 8.166,6.382 8.118,6.752 7.898 C 6.915 7.803,7.158 7.557,7.257 7.389 C 7.484 7.003,7.485 6.747,7.260 6.555 C 7.102 6.420,6.916 6.410,6.651 6.523 C 6.431 6.616,6.300 6.639,5.990 6.639 C 5.678 6.639,5.551 6.617,5.320 6.519 C 5.131 6.439,4.899 6.417,4.820 6.471 " fill="#1A1C1F" stroke="none" fill-rule="evenodd"></path></svg>