<svg width="16" height="16" viewBox="0 0 16 16" fill="none" xmlns="http://www.w3.org/2000/svg"><path d="M7.172 2.467 C 6.150 2.627,5.065 3.137,4.292 3.821 C 3.147 4.835,2.464 6.282,2.408 7.813 C 2.363 9.041,2.759 10.312,3.495 11.307 C 3.705 11.591,4.260 12.160,4.563 12.402 C 5.559 13.198,6.942 13.648,8.213 13.591 C 9.348 13.540,10.449 13.152,11.320 12.495 C 11.593 12.289,12.144 11.755,12.365 11.480 C 13.254 10.378,13.671 9.035,13.575 7.586 C 13.542 7.094,13.476 6.770,13.305 6.256 C 13.016 5.387,12.606 4.716,11.973 4.078 C 11.493 3.592,10.979 3.236,10.284 2.906 C 9.793 2.674,9.228 2.516,8.661 2.455 C 8.309 2.417,7.451 2.424,7.172 2.467 M8.800 4.093 C 9.335 4.211,9.898 4.459,10.327 4.765 C 10.606 4.964,11.036 5.394,11.235 5.673 C 11.541 6.103,11.790 6.667,11.907 7.200 C 11.934 7.322,11.957 7.583,11.965 7.867 C 11.977 8.263,11.971 8.383,11.923 8.663 C 11.644 10.298,10.408 11.575,8.765 11.924 C 8.546 11.971,8.403 11.982,8.027 11.982 C 7.485 11.983,7.215 11.942,6.781 11.798 C 5.303 11.304,4.257 10.055,4.053 8.541 C 4.002 8.164,4.032 7.473,4.116 7.120 C 4.241 6.590,4.459 6.104,4.766 5.670 C 4.961 5.396,5.392 4.966,5.673 4.765 C 6.134 4.437,6.741 4.177,7.280 4.079 C 7.636 4.014,8.480 4.022,8.800 4.093 M8.857 5.933 C 8.538 6.077,8.371 6.311,8.352 6.642 C 8.337 6.894,8.365 6.982,8.535 7.224 C 8.842 7.662,9.402 7.976,9.949 8.018 C 10.419 8.055,10.723 7.849,10.844 7.414 C 10.903 7.203,10.868 7.011,10.736 6.812 C 10.615 6.630,10.444 6.520,10.195 6.465 C 10.006 6.423,9.984 6.410,9.782 6.221 C 9.665 6.112,9.519 6.000,9.458 5.973 C 9.299 5.902,8.972 5.881,8.857 5.933 M6.608 5.946 C 6.512 5.975,6.397 6.059,6.180 6.258 C 6.026 6.399,5.977 6.428,5.847 6.454 C 5.626 6.500,5.539 6.541,5.399 6.670 C 5.214 6.841,5.135 7.011,5.135 7.240 C 5.135 7.538,5.279 7.785,5.544 7.941 C 5.660 8.009,5.685 8.013,5.987 8.011 C 6.260 8.009,6.335 7.999,6.502 7.940 C 6.772 7.844,6.958 7.727,7.201 7.500 C 7.442 7.274,7.559 7.104,7.630 6.875 C 7.675 6.731,7.678 6.692,7.649 6.566 C 7.583 6.269,7.361 6.021,7.098 5.948 C 6.983 5.916,6.712 5.915,6.608 5.946 M7.368 8.184 C 6.735 8.404,6.198 8.981,6.076 9.572 C 6.048 9.709,6.050 9.743,6.093 9.857 C 6.121 9.931,6.201 10.048,6.278 10.128 C 6.496 10.355,6.657 10.366,7.138 10.184 C 7.728 9.962,8.257 9.968,8.893 10.206 C 9.165 10.308,9.233 10.324,9.343 10.311 C 9.598 10.280,9.821 10.085,9.893 9.828 C 9.922 9.726,9.920 9.681,9.882 9.531 C 9.745 8.986,9.324 8.498,8.763 8.238 C 8.554 8.141,8.335 8.107,7.920 8.107 C 7.622 8.107,7.563 8.116,7.368 8.184 " fill="#1A1C1F" stroke="none" fill-rule="evenodd"></path></svg>