<svg width="32" height="32" viewBox="0 0 32 32" fill="none" xmlns="http://www.w3.org/2000/svg"><path d="M14.400 4.131 C 13.068 4.325,12.083 4.626,10.889 5.203 C 9.423 5.910,8.626 6.467,7.571 7.519 C 5.624 9.461,4.509 11.697,4.100 14.480 C 4.009 15.100,4.008 16.897,4.099 17.520 C 4.346 19.212,4.892 20.782,5.705 22.133 C 6.235 23.013,6.736 23.648,7.517 24.428 C 8.928 25.836,10.336 26.718,12.187 27.351 C 14.651 28.194,17.260 28.206,19.719 27.387 C 22.889 26.330,25.410 24.092,26.852 21.054 C 28.652 17.259,28.300 12.813,25.918 9.280 C 25.526 8.699,25.379 8.515,24.784 7.872 C 24.118 7.150,23.510 6.629,22.720 6.104 C 20.983 4.949,19.162 4.284,17.253 4.108 C 16.477 4.036,14.967 4.048,14.400 4.131 M17.227 5.819 C 18.425 5.927,19.312 6.187,20.500 6.779 C 23.647 8.349,25.699 11.173,26.193 14.613 C 26.287 15.267,26.271 16.813,26.165 17.504 C 25.910 19.152,25.209 20.836,24.226 22.160 C 23.458 23.196,22.158 24.342,21.028 24.980 C 20.197 25.450,18.983 25.906,18.027 26.108 C 17.468 26.227,15.883 26.298,15.057 26.242 C 13.700 26.150,12.063 25.626,10.800 24.880 C 8.680 23.628,7.030 21.576,6.238 19.206 C 5.840 18.016,5.816 17.832,5.816 16.000 C 5.816 14.171,5.840 13.983,6.235 12.803 C 7.321 9.555,9.851 7.101,13.101 6.143 C 14.523 5.724,15.394 5.655,17.227 5.819 M11.440 11.467 C 10.516 11.579,9.271 12.430,8.934 13.181 C 8.787 13.510,8.786 13.512,8.874 13.791 C 9.023 14.262,9.462 14.548,9.953 14.493 C 10.121 14.474,10.264 14.405,10.466 14.245 C 10.621 14.123,10.867 13.929,11.013 13.813 C 11.378 13.524,11.654 13.440,12.242 13.440 C 12.712 13.440,12.754 13.450,13.233 13.677 C 13.886 13.987,14.106 14.022,14.422 13.869 C 14.685 13.742,14.961 13.413,15.016 13.161 C 15.071 12.911,14.938 12.538,14.714 12.314 C 14.425 12.025,13.398 11.528,12.960 11.465 C 12.566 11.409,11.912 11.409,11.440 11.467 M18.987 11.472 C 18.561 11.540,17.664 11.998,17.341 12.313 C 17.125 12.523,17.069 12.616,17.039 12.814 C 16.985 13.174,17.051 13.374,17.307 13.630 C 17.524 13.847,17.798 13.972,18.058 13.973 C 18.119 13.973,18.415 13.853,18.715 13.707 L 19.260 13.440 19.823 13.440 C 20.346 13.440,20.406 13.451,20.686 13.601 C 20.851 13.690,21.143 13.896,21.333 14.059 C 21.980 14.614,22.246 14.667,22.736 14.343 C 23.011 14.161,23.201 13.833,23.199 13.543 C 23.195 12.975,22.399 12.182,21.342 11.693 C 21.009 11.539,20.845 11.499,20.403 11.462 C 19.751 11.408,19.373 11.411,18.987 11.472 M20.795 17.072 C 20.660 17.092,20.228 17.206,19.835 17.325 C 18.299 17.789,17.620 17.914,16.400 17.956 C 14.954 18.006,14.089 17.881,12.270 17.361 C 11.559 17.158,11.146 17.067,10.934 17.067 C 10.636 17.067,10.622 17.073,10.380 17.332 C 10.243 17.478,10.106 17.664,10.075 17.745 C 9.966 18.033,10.158 18.718,10.588 19.573 C 11.241 20.869,12.434 22.022,13.655 22.537 C 14.476 22.884,14.615 22.905,16.027 22.906 L 17.307 22.907 17.813 22.730 C 19.405 22.176,20.618 21.124,21.374 19.643 C 21.925 18.564,22.048 17.923,21.782 17.517 C 21.529 17.130,21.248 17.003,20.795 17.072 M14.080 19.847 C 15.207 20.022,16.710 20.021,17.933 19.844 C 18.424 19.773,18.844 19.733,18.866 19.755 C 18.976 19.865,17.873 20.598,17.318 20.782 C 16.916 20.916,16.809 20.928,16.027 20.931 C 15.088 20.934,14.818 20.881,14.213 20.577 C 13.821 20.379,13.191 19.920,13.113 19.773 C 13.061 19.677,13.068 19.669,13.181 19.696 C 13.250 19.713,13.655 19.781,14.080 19.847 " fill="#1A1C1F" stroke="none" fill-rule="evenodd"></path></svg>