<svg width="14" height="14" viewBox="0 0 14 14" fill="none" xmlns="http://www.w3.org/2000/svg"><path d="M6.627 2.124 C 6.027 2.163,5.406 2.337,4.820 2.630 C 4.261 2.910,3.963 3.132,3.473 3.634 C 3.216 3.899,3.084 4.056,2.940 4.273 C 2.195 5.395,1.939 6.697,2.208 7.992 C 2.363 8.737,2.700 9.456,3.167 10.034 C 3.360 10.273,3.888 10.782,4.138 10.970 C 4.763 11.439,5.599 11.758,6.489 11.867 C 7.327 11.971,8.278 11.805,9.117 11.410 C 9.620 11.172,9.938 10.946,10.391 10.502 C 10.841 10.062,11.079 9.752,11.328 9.281 C 12.223 7.588,12.044 5.534,10.869 4.010 C 10.187 3.125,9.081 2.428,8.027 2.219 C 7.571 2.129,7.077 2.096,6.627 2.124 M7.257 3.525 C 8.054 3.599,8.717 3.877,9.298 4.381 C 9.859 4.868,10.264 5.564,10.421 6.312 C 10.456 6.478,10.465 6.621,10.465 7.000 C 10.465 7.416,10.458 7.510,10.410 7.723 C 10.307 8.186,10.098 8.658,9.827 9.041 C 9.649 9.292,9.274 9.662,9.012 9.847 C 8.626 10.118,8.094 10.350,7.648 10.440 C 7.401 10.490,6.600 10.491,6.358 10.441 C 5.936 10.354,5.433 10.150,5.117 9.939 C 4.449 9.492,3.968 8.884,3.714 8.164 C 3.570 7.753,3.535 7.529,3.535 7.000 C 3.535 6.630,3.544 6.477,3.577 6.323 C 3.805 5.239,4.470 4.370,5.448 3.879 C 5.839 3.683,6.218 3.575,6.688 3.526 C 6.952 3.498,6.962 3.498,7.257 3.525 M5.514 5.146 C 5.091 5.239,4.628 5.540,4.502 5.804 C 4.394 6.032,4.451 6.358,4.632 6.544 C 4.891 6.811,5.229 6.839,5.580 6.622 C 5.683 6.559,5.725 6.549,5.964 6.531 C 6.271 6.508,6.401 6.462,6.542 6.328 C 6.810 6.072,6.830 5.660,6.588 5.391 C 6.439 5.225,6.293 5.164,5.982 5.134 C 5.685 5.106,5.700 5.106,5.514 5.146 M7.942 5.132 C 7.701 5.170,7.579 5.227,7.443 5.365 C 7.293 5.516,7.250 5.625,7.253 5.859 C 7.255 6.069,7.306 6.182,7.465 6.330 C 7.625 6.478,7.705 6.505,8.048 6.530 C 8.290 6.548,8.310 6.553,8.428 6.634 C 8.586 6.743,8.672 6.768,8.895 6.771 C 9.099 6.773,9.206 6.726,9.361 6.564 C 9.679 6.235,9.607 5.780,9.187 5.468 C 8.833 5.205,8.334 5.070,7.942 5.132 M5.586 7.578 C 5.406 7.710,5.296 7.890,5.297 8.053 C 5.297 8.083,5.327 8.192,5.362 8.295 C 5.539 8.802,5.973 9.226,6.467 9.377 C 6.722 9.454,6.972 9.479,7.189 9.450 C 7.822 9.363,8.339 8.969,8.583 8.386 C 8.678 8.161,8.690 8.072,8.646 7.921 C 8.540 7.557,8.177 7.425,7.770 7.603 C 7.506 7.719,7.356 7.746,6.988 7.746 C 6.624 7.746,6.476 7.719,6.207 7.605 C 6.081 7.552,5.982 7.528,5.857 7.520 C 5.691 7.509,5.677 7.512,5.586 7.578 " fill="#1A1C1F" stroke="none" fill-rule="evenodd"></path></svg>