<svg width="24" height="24" viewBox="0 0 24 24" fill="none" xmlns="http://www.w3.org/2000/svg"><path d="M10.580 3.138 C 9.947 3.250,9.541 3.354,8.995 3.543 C 6.850 4.289,5.011 5.902,4.001 7.920 C 2.988 9.945,2.745 12.048,3.280 14.164 C 3.952 16.825,5.823 19.076,8.283 20.181 C 10.279 21.078,12.378 21.232,14.468 20.634 C 18.962 19.349,21.732 14.817,20.817 10.246 C 20.303 7.680,18.672 5.439,16.406 4.186 C 15.608 3.744,14.615 3.368,13.820 3.206 C 12.876 3.014,11.452 2.984,10.580 3.138 M12.760 5.084 C 13.649 5.170,14.273 5.353,15.140 5.781 C 16.527 6.465,17.613 7.575,18.302 9.013 C 18.857 10.171,19.050 11.332,18.924 12.755 C 18.721 15.040,17.240 17.184,15.139 18.231 C 13.654 18.971,12.142 19.172,10.567 18.840 C 7.945 18.287,5.936 16.342,5.217 13.660 C 5.002 12.862,4.982 11.350,5.175 10.520 C 5.499 9.124,6.174 7.928,7.186 6.960 C 8.058 6.126,9.195 5.491,10.279 5.234 C 11.205 5.013,11.707 4.983,12.760 5.084 M8.950 8.563 C 8.559 8.656,8.129 8.988,7.952 9.336 C 7.887 9.462,7.864 9.600,7.849 9.948 C 7.830 10.380,7.833 10.405,7.941 10.619 C 8.227 11.184,8.946 11.581,9.497 11.477 C 9.975 11.386,10.468 11.022,10.660 10.617 C 10.746 10.434,10.760 10.349,10.760 10.000 C 10.760 9.642,10.748 9.570,10.653 9.377 C 10.533 9.132,10.217 8.811,9.972 8.686 C 9.812 8.604,9.395 8.517,9.200 8.524 C 9.145 8.526,9.032 8.544,8.950 8.563 M14.350 8.563 C 13.959 8.656,13.529 8.988,13.352 9.336 C 13.287 9.462,13.264 9.600,13.249 9.948 C 13.230 10.380,13.233 10.405,13.341 10.619 C 13.627 11.184,14.346 11.581,14.897 11.477 C 15.375 11.386,15.868 11.022,16.060 10.617 C 16.146 10.434,16.160 10.349,16.160 10.000 C 16.160 9.642,16.148 9.570,16.053 9.377 C 15.933 9.132,15.617 8.811,15.372 8.686 C 15.212 8.604,14.795 8.517,14.600 8.524 C 14.545 8.526,14.432 8.544,14.350 8.563 M8.453 13.557 C 8.236 13.611,7.963 13.797,7.850 13.969 C 7.762 14.101,7.738 14.189,7.726 14.427 C 7.695 15.043,8.000 15.357,9.120 15.860 C 9.993 16.252,10.732 16.422,11.761 16.467 C 12.969 16.519,14.104 16.271,15.212 15.714 C 16.061 15.287,16.309 14.987,16.273 14.425 C 16.252 14.094,16.142 13.895,15.880 13.710 C 15.676 13.567,15.652 13.560,15.344 13.560 C 15.027 13.560,15.014 13.564,14.521 13.815 C 13.611 14.279,13.060 14.434,12.200 14.466 C 11.226 14.503,10.624 14.365,9.560 13.859 C 8.929 13.559,8.697 13.496,8.453 13.557 " fill="#1A1C1F" stroke="none" fill-rule="evenodd"></path></svg>