<svg width="32" height="32" viewBox="0 0 32 32" fill="none" xmlns="http://www.w3.org/2000/svg"><path d="M14.400 4.131 C 13.068 4.325,12.083 4.626,10.889 5.203 C 9.423 5.910,8.626 6.467,7.571 7.519 C 5.624 9.461,4.509 11.697,4.100 14.480 C 4.009 15.100,4.008 16.897,4.099 17.520 C 4.346 19.212,4.892 20.782,5.705 22.133 C 6.235 23.013,6.736 23.648,7.517 24.428 C 8.928 25.836,10.336 26.718,12.187 27.351 C 14.651 28.194,17.260 28.206,19.719 27.387 C 22.889 26.330,25.410 24.092,26.852 21.054 C 28.652 17.259,28.300 12.813,25.918 9.280 C 25.526 8.699,25.379 8.515,24.784 7.872 C 24.118 7.150,23.510 6.629,22.720 6.104 C 20.983 4.949,19.162 4.284,17.253 4.108 C 16.477 4.036,14.967 4.048,14.400 4.131 M17.227 5.819 C 18.425 5.927,19.312 6.187,20.500 6.779 C 23.647 8.349,25.699 11.173,26.193 14.613 C 26.287 15.267,26.271 16.813,26.165 17.504 C 25.910 19.152,25.209 20.836,24.226 22.160 C 23.458 23.196,22.158 24.342,21.028 24.980 C 20.197 25.450,18.983 25.906,18.027 26.108 C 17.468 26.227,15.883 26.298,15.057 26.242 C 13.700 26.150,12.063 25.626,10.800 24.880 C 8.680 23.628,7.030 21.576,6.238 19.206 C 5.840 18.016,5.816 17.832,5.816 16.000 C 5.816 14.171,5.840 13.983,6.235 12.803 C 7.321 9.555,9.851 7.101,13.101 6.143 C 14.523 5.724,15.394 5.655,17.227 5.819 M13.653 11.304 C 13.344 11.364,13.233 11.455,12.979 11.856 C 12.517 12.585,12.129 12.885,11.477 13.020 C 11.194 13.078,11.082 13.075,10.676 12.997 C 9.747 12.819,9.392 12.914,9.146 13.407 C 8.815 14.073,9.128 14.604,10.015 14.881 C 10.848 15.140,11.602 15.125,12.428 14.833 C 13.045 14.614,13.412 14.375,13.948 13.840 C 14.826 12.964,15.105 12.126,14.685 11.626 C 14.449 11.346,14.059 11.224,13.653 11.304 M17.798 11.318 C 17.515 11.393,17.251 11.659,17.173 11.947 C 16.975 12.684,17.869 13.943,19.040 14.575 C 19.709 14.936,20.040 15.013,20.907 15.013 C 21.558 15.013,21.739 14.995,22.053 14.895 C 22.737 14.678,23.007 14.379,23.007 13.840 C 23.007 13.504,22.884 13.269,22.603 13.066 C 22.341 12.876,22.057 12.859,21.408 12.993 C 20.894 13.099,20.528 13.067,20.120 12.881 C 19.746 12.711,19.446 12.426,19.058 11.875 C 18.655 11.302,18.357 11.170,17.798 11.318 M15.307 15.575 C 14.687 15.624,14.264 15.731,13.653 15.994 C 13.045 16.257,12.783 16.413,12.297 16.804 C 11.341 17.573,10.579 18.665,10.221 19.777 C 9.968 20.567,9.995 20.802,10.385 21.198 C 10.753 21.571,10.863 21.570,12.187 21.172 C 14.966 20.337,17.084 20.342,19.898 21.193 C 20.948 21.510,21.059 21.525,21.349 21.397 C 21.896 21.155,22.046 20.629,21.795 19.827 C 21.145 17.746,19.215 15.979,17.243 15.658 C 16.615 15.556,15.922 15.526,15.307 15.575 M17.279 17.726 C 17.884 17.936,19.013 18.666,18.899 18.773 C 18.874 18.797,18.553 18.771,18.187 18.716 C 16.616 18.482,15.392 18.483,13.817 18.717 C 13.422 18.776,13.086 18.810,13.070 18.793 C 12.984 18.705,14.011 17.984,14.511 17.781 C 14.970 17.594,15.332 17.549,16.170 17.573 C 16.772 17.590,16.966 17.617,17.279 17.726 " fill="#1A1C1F" stroke="none" fill-rule="evenodd"></path></svg>