<svg width="14" height="14" viewBox="0 0 14 14" fill="none" xmlns="http://www.w3.org/2000/svg"><path d="M6.627 2.124 C 6.027 2.163,5.406 2.337,4.820 2.630 C 4.261 2.910,3.963 3.132,3.473 3.634 C 3.216 3.899,3.084 4.056,2.940 4.273 C 2.195 5.395,1.939 6.697,2.208 7.992 C 2.363 8.737,2.700 9.456,3.167 10.034 C 3.360 10.273,3.888 10.782,4.138 10.970 C 4.763 11.439,5.599 11.758,6.489 11.867 C 7.327 11.971,8.278 11.805,9.117 11.410 C 9.620 11.172,9.938 10.946,10.391 10.502 C 10.841 10.062,11.079 9.752,11.328 9.281 C 12.223 7.588,12.044 5.534,10.869 4.010 C 10.187 3.125,9.081 2.428,8.027 2.219 C 7.571 2.129,7.077 2.096,6.627 2.124 M7.257 3.525 C 8.054 3.599,8.717 3.877,9.298 4.381 C 9.859 4.868,10.264 5.564,10.421 6.312 C 10.456 6.478,10.465 6.621,10.465 7.000 C 10.465 7.416,10.458 7.510,10.410 7.723 C 10.307 8.186,10.098 8.658,9.827 9.041 C 9.649 9.292,9.274 9.662,9.012 9.847 C 8.626 10.118,8.094 10.350,7.648 10.440 C 7.401 10.490,6.600 10.491,6.358 10.441 C 5.936 10.354,5.433 10.150,5.117 9.939 C 4.449 9.492,3.968 8.884,3.714 8.164 C 3.570 7.753,3.535 7.529,3.535 7.000 C 3.535 6.630,3.544 6.477,3.577 6.323 C 3.805 5.239,4.470 4.370,5.448 3.879 C 5.839 3.683,6.218 3.575,6.688 3.526 C 6.952 3.498,6.962 3.498,7.257 3.525 M5.413 4.931 C 5.160 4.987,4.930 5.178,4.810 5.433 C 4.758 5.545,4.748 5.596,4.748 5.775 C 4.748 5.954,4.758 6.005,4.811 6.119 C 4.893 6.294,5.077 6.486,5.236 6.564 C 5.349 6.619,5.391 6.627,5.600 6.627 C 5.804 6.627,5.853 6.619,5.960 6.568 C 6.107 6.499,6.330 6.274,6.393 6.131 C 6.453 5.996,6.474 5.760,6.442 5.589 C 6.359 5.141,5.873 4.830,5.413 4.931 M8.213 4.931 C 7.960 4.987,7.730 5.178,7.610 5.433 C 7.558 5.545,7.548 5.596,7.548 5.775 C 7.548 5.954,7.558 6.005,7.611 6.119 C 7.693 6.294,7.877 6.486,8.036 6.564 C 8.149 6.619,8.191 6.627,8.400 6.627 C 8.604 6.627,8.653 6.619,8.760 6.568 C 8.907 6.499,9.130 6.274,9.193 6.131 C 9.253 5.996,9.274 5.760,9.242 5.589 C 9.159 5.141,8.673 4.830,8.213 4.931 M5.398 7.547 C 5.200 7.609,4.992 7.809,4.927 8.001 C 4.889 8.113,4.894 8.326,4.937 8.454 C 5.050 8.786,5.742 9.216,6.428 9.382 C 6.991 9.517,7.659 9.424,8.260 9.125 C 8.821 8.847,9.100 8.544,9.100 8.213 C 9.100 7.943,8.977 7.730,8.748 7.606 C 8.618 7.536,8.577 7.525,8.435 7.525 C 8.246 7.525,8.095 7.586,7.785 7.790 C 7.572 7.929,7.298 8.024,7.058 8.043 C 6.783 8.065,6.512 7.973,6.075 7.709 C 5.761 7.519,5.605 7.482,5.398 7.547 " fill="#1A1C1F" stroke="none" fill-rule="evenodd"></path></svg>