<svg width="14" height="14" viewBox="0 0 14 14" fill="none" xmlns="http://www.w3.org/2000/svg"><path d="M6.627 2.124 C 6.027 2.163,5.406 2.337,4.820 2.630 C 4.261 2.910,3.963 3.132,3.473 3.634 C 3.216 3.899,3.084 4.056,2.940 4.273 C 2.195 5.395,1.939 6.697,2.208 7.992 C 2.363 8.737,2.700 9.456,3.167 10.034 C 3.360 10.273,3.888 10.782,4.138 10.970 C 4.763 11.439,5.599 11.758,6.489 11.867 C 7.327 11.971,8.278 11.805,9.117 11.410 C 9.620 11.172,9.938 10.946,10.391 10.502 C 10.841 10.062,11.079 9.752,11.328 9.281 C 12.223 7.588,12.044 5.534,10.869 4.010 C 10.187 3.125,9.081 2.428,8.027 2.219 C 7.571 2.129,7.077 2.096,6.627 2.124 M7.257 3.525 C 8.054 3.599,8.717 3.877,9.298 4.381 C 9.859 4.868,10.264 5.564,10.421 6.312 C 10.456 6.478,10.465 6.621,10.465 7.000 C 10.465 7.416,10.458 7.510,10.410 7.723 C 10.307 8.186,10.098 8.658,9.827 9.041 C 9.649 9.292,9.274 9.662,9.012 9.847 C 8.626 10.118,8.094 10.350,7.648 10.440 C 7.401 10.490,6.600 10.491,6.358 10.441 C 5.936 10.354,5.433 10.150,5.117 9.939 C 4.449 9.492,3.968 8.884,3.714 8.164 C 3.570 7.753,3.535 7.529,3.535 7.000 C 3.535 6.630,3.544 6.477,3.577 6.323 C 3.805 5.239,4.470 4.370,5.448 3.879 C 5.839 3.683,6.218 3.575,6.688 3.526 C 6.952 3.498,6.962 3.498,7.257 3.525 M7.793 5.177 C 7.538 5.261,7.330 5.510,7.290 5.778 C 7.258 5.990,7.395 6.276,7.646 6.523 C 8.010 6.882,8.491 7.063,8.936 7.012 C 9.195 6.982,9.409 6.779,9.488 6.490 C 9.540 6.297,9.510 6.132,9.390 5.958 C 9.265 5.777,9.179 5.724,8.860 5.636 C 8.748 5.605,8.693 5.568,8.533 5.421 C 8.428 5.323,8.308 5.229,8.266 5.212 C 8.174 5.172,7.874 5.150,7.793 5.177 M5.775 5.207 C 5.689 5.239,5.586 5.314,5.396 5.487 C 5.273 5.598,5.227 5.625,5.115 5.648 C 4.922 5.687,4.846 5.724,4.724 5.836 C 4.409 6.127,4.412 6.580,4.730 6.860 C 4.877 6.989,5.035 7.033,5.295 7.017 C 5.702 6.992,6.022 6.838,6.348 6.512 C 6.582 6.277,6.677 6.108,6.692 5.899 C 6.705 5.721,6.666 5.587,6.560 5.448 C 6.430 5.278,6.273 5.200,6.037 5.189 C 5.930 5.184,5.814 5.192,5.775 5.207 M6.545 7.128 C 6.031 7.267,5.583 7.674,5.375 8.190 C 5.251 8.495,5.282 8.657,5.503 8.875 C 5.693 9.062,5.857 9.070,6.253 8.911 C 6.741 8.716,7.226 8.722,7.781 8.930 C 8.020 9.019,8.079 9.033,8.175 9.022 C 8.398 8.995,8.593 8.824,8.656 8.600 C 8.694 8.466,8.648 8.266,8.525 8.019 C 8.304 7.575,7.808 7.187,7.373 7.118 C 7.161 7.084,6.686 7.090,6.545 7.128 " fill="#1A1C1F" stroke="none" fill-rule="evenodd"></path></svg>