<svg width="24" height="24" viewBox="0 0 24 24" fill="none" xmlns="http://www.w3.org/2000/svg"><path d="M11.040 3.066 C 9.957 3.231,9.425 3.362,8.772 3.621 C 4.071 5.492,1.814 10.625,3.639 15.294 C 4.163 16.632,5.029 17.840,6.173 18.825 C 7.067 19.594,8.047 20.152,9.140 20.515 C 11.223 21.205,13.235 21.154,15.281 20.358 C 16.473 19.894,17.382 19.295,18.326 18.352 C 19.356 17.322,20.015 16.289,20.480 14.974 C 21.428 12.292,21.045 9.343,19.439 6.960 C 19.145 6.524,19.034 6.387,18.588 5.904 C 18.081 5.355,17.630 4.969,17.016 4.562 C 15.741 3.716,14.389 3.222,12.966 3.081 C 12.578 3.043,11.261 3.032,11.040 3.066 M12.760 5.084 C 13.649 5.170,14.273 5.353,15.140 5.781 C 16.527 6.465,17.613 7.575,18.302 9.013 C 18.857 10.171,19.050 11.332,18.924 12.755 C 18.721 15.040,17.240 17.184,15.139 18.231 C 13.654 18.971,12.142 19.172,10.567 18.840 C 7.945 18.287,5.936 16.342,5.217 13.660 C 5.002 12.862,4.982 11.350,5.175 10.520 C 5.499 9.124,6.174 7.928,7.186 6.960 C 8.058 6.126,9.195 5.491,10.279 5.234 C 11.205 5.013,11.707 4.983,12.760 5.084 M8.760 8.717 C 8.458 8.759,8.274 8.822,7.905 9.012 C 7.514 9.213,7.042 9.656,6.913 9.943 C 6.677 10.469,6.972 11.094,7.536 11.261 C 7.908 11.372,8.116 11.320,8.511 11.019 C 8.828 10.777,9.002 10.680,9.118 10.680 C 9.163 10.680,9.389 10.752,9.620 10.840 C 9.851 10.928,10.109 11.000,10.193 11.000 C 10.708 11.000,11.160 10.547,11.160 10.030 C 11.160 9.748,11.076 9.553,10.861 9.340 C 10.405 8.887,9.492 8.616,8.760 8.717 M14.460 8.720 C 14.146 8.757,13.645 8.955,13.321 9.169 C 12.973 9.399,12.860 9.613,12.861 10.039 C 12.862 10.405,12.961 10.622,13.207 10.801 C 13.548 11.048,13.835 11.053,14.428 10.823 C 14.631 10.744,14.835 10.680,14.880 10.680 C 15.001 10.680,15.182 10.782,15.490 11.023 C 15.813 11.275,15.981 11.337,16.261 11.308 C 16.627 11.271,16.905 11.076,17.070 10.740 C 17.249 10.377,17.201 10.040,16.918 9.682 C 16.378 8.999,15.382 8.609,14.460 8.720 M8.405 12.558 C 8.187 12.613,7.958 12.803,7.825 13.040 C 7.715 13.234,7.702 13.295,7.705 13.560 C 7.713 14.166,8.119 15.142,8.647 15.829 C 9.019 16.312,9.616 16.822,10.100 17.069 C 10.751 17.402,11.586 17.534,12.510 17.449 C 13.583 17.351,14.402 16.918,15.173 16.043 C 15.715 15.427,16.151 14.535,16.285 13.770 C 16.367 13.299,16.180 12.870,15.802 12.665 C 15.502 12.502,15.255 12.511,14.480 12.714 C 13.351 13.010,13.267 13.020,12.000 13.020 C 10.738 13.020,10.654 13.010,9.540 12.720 C 8.870 12.546,8.604 12.508,8.405 12.558 M13.310 15.093 C 13.043 15.309,12.468 15.479,12.000 15.479 C 11.532 15.479,10.957 15.309,10.690 15.093 C 10.603 15.022,10.640 15.020,12.000 15.020 C 13.360 15.020,13.397 15.022,13.310 15.093 " fill="#1A1C1F" stroke="none" fill-rule="evenodd"></path></svg>