<svg width="24" height="24" viewBox="0 0 24 24" fill="none" xmlns="http://www.w3.org/2000/svg"><path d="M11.040 3.066 C 9.957 3.231,9.425 3.362,8.772 3.621 C 4.071 5.492,1.814 10.625,3.639 15.294 C 4.163 16.632,5.029 17.840,6.173 18.825 C 7.067 19.594,8.047 20.152,9.140 20.515 C 11.223 21.205,13.235 21.154,15.281 20.358 C 16.473 19.894,17.382 19.295,18.326 18.352 C 19.356 17.322,20.015 16.289,20.480 14.974 C 21.428 12.292,21.045 9.343,19.439 6.960 C 19.145 6.524,19.034 6.387,18.588 5.904 C 18.081 5.355,17.630 4.969,17.016 4.562 C 15.741 3.716,14.389 3.222,12.966 3.081 C 12.578 3.043,11.261 3.032,11.040 3.066 M12.760 5.084 C 13.649 5.170,14.273 5.353,15.140 5.781 C 16.527 6.465,17.613 7.575,18.302 9.013 C 18.857 10.171,19.050 11.332,18.924 12.755 C 18.721 15.040,17.240 17.184,15.139 18.231 C 13.654 18.971,12.142 19.172,10.567 18.840 C 7.945 18.287,5.936 16.342,5.217 13.660 C 5.002 12.862,4.982 11.350,5.175 10.520 C 5.499 9.124,6.174 7.928,7.186 6.960 C 8.058 6.126,9.195 5.491,10.279 5.234 C 11.205 5.013,11.707 4.983,12.760 5.084 M8.950 8.563 C 8.559 8.656,8.129 8.988,7.952 9.336 C 7.888 9.462,7.864 9.599,7.849 9.940 C 7.832 10.338,7.839 10.399,7.921 10.573 C 8.061 10.872,8.366 11.178,8.672 11.329 C 8.913 11.448,8.972 11.460,9.299 11.460 C 9.607 11.460,9.693 11.444,9.890 11.352 C 10.190 11.212,10.519 10.897,10.653 10.623 C 10.748 10.430,10.760 10.358,10.760 10.000 C 10.760 9.642,10.748 9.570,10.653 9.377 C 10.533 9.132,10.217 8.811,9.972 8.686 C 9.812 8.604,9.395 8.517,9.200 8.524 C 9.145 8.526,9.032 8.544,8.950 8.563 M14.350 8.563 C 13.959 8.656,13.529 8.988,13.352 9.336 C 13.288 9.462,13.264 9.599,13.249 9.940 C 13.232 10.338,13.239 10.399,13.321 10.573 C 13.461 10.872,13.766 11.178,14.072 11.329 C 14.313 11.448,14.372 11.460,14.699 11.460 C 15.007 11.460,15.093 11.444,15.290 11.352 C 15.590 11.212,15.919 10.897,16.053 10.623 C 16.148 10.430,16.160 10.358,16.160 10.000 C 16.160 9.642,16.148 9.570,16.053 9.377 C 15.933 9.132,15.617 8.811,15.372 8.686 C 15.212 8.604,14.795 8.517,14.600 8.524 C 14.545 8.526,14.432 8.544,14.350 8.563 M8.780 14.066 C 8.736 14.076,8.659 14.092,8.609 14.103 C 8.479 14.130,8.209 14.386,8.109 14.577 C 7.972 14.837,7.986 15.201,8.144 15.480 C 8.326 15.802,8.534 15.919,9.009 15.968 C 9.587 16.026,15.140 15.987,15.340 15.922 C 15.587 15.843,15.858 15.547,15.939 15.268 C 16.074 14.805,15.896 14.398,15.440 14.124 C 15.301 14.041,15.283 14.040,12.080 14.045 C 10.309 14.047,8.824 14.057,8.780 14.066 " fill="#1A1C1F" stroke="none" fill-rule="evenodd"></path></svg>