<svg width="24" height="24" viewBox="0 0 24 24" fill="none" xmlns="http://www.w3.org/2000/svg"><path d="M6.720 3.520 C 6.115 3.582,5.339 3.844,4.767 4.179 C 4.148 4.542,3.436 5.194,3.020 5.780 C 2.604 6.366,2.198 7.305,2.081 7.954 C 2.021 8.283,2.021 9.556,2.081 9.886 C 2.197 10.533,2.541 11.363,2.933 11.946 C 3.285 12.469,3.936 13.127,7.620 16.682 C 10.557 19.515,11.400 20.308,11.620 20.445 C 11.786 20.548,12.214 20.548,12.380 20.446 C 12.562 20.333,12.899 20.023,14.340 18.646 C 18.839 14.346,20.820 12.390,21.088 11.980 C 21.923 10.703,22.201 9.097,21.835 7.661 C 21.475 6.250,20.719 5.166,19.536 4.366 C 19.152 4.107,18.418 3.774,17.982 3.661 C 17.177 3.453,16.066 3.445,15.243 3.642 C 14.556 3.806,13.647 4.265,13.123 4.713 C 13.003 4.815,12.700 5.096,12.450 5.336 L 11.995 5.774 11.628 5.413 C 10.639 4.442,10.007 4.024,9.077 3.727 C 8.867 3.660,8.543 3.587,8.357 3.564 C 7.873 3.506,7.069 3.485,6.720 3.520 M7.880 5.522 C 8.310 5.566,8.783 5.712,9.103 5.899 C 9.394 6.070,9.831 6.439,10.460 7.044 C 11.534 8.077,11.695 8.200,11.972 8.200 C 12.317 8.200,12.504 8.068,13.480 7.139 C 14.820 5.863,15.179 5.644,16.140 5.517 C 16.799 5.430,17.383 5.515,17.948 5.780 C 18.804 6.182,19.258 6.626,19.681 7.475 C 19.920 7.952,19.975 8.214,19.976 8.860 C 19.976 9.177,19.954 9.523,19.924 9.657 C 19.854 9.972,19.648 10.455,19.465 10.730 C 19.255 11.046,12.464 17.760,12.087 18.024 C 12.010 18.078,11.991 18.078,11.914 18.025 C 11.708 17.880,5.529 11.841,5.013 11.280 C 4.570 10.798,4.424 10.583,4.247 10.154 C 4.068 9.719,4.013 9.238,4.067 8.555 C 4.102 8.100,4.127 7.974,4.236 7.713 C 4.595 6.857,5.171 6.215,5.916 5.843 C 6.581 5.511,7.041 5.436,7.880 5.522 " fill="#1A1C1F" stroke="none" fill-rule="evenodd"></path></svg>