<svg width="20" height="20" viewBox="0 0 20 20" fill="none" xmlns="http://www.w3.org/2000/svg"><path d="M5.850 3.302 C 5.261 3.359,4.589 3.618,3.967 4.027 C 3.625 4.252,3.052 4.818,2.811 5.169 C 2.470 5.666,2.211 6.288,2.077 6.933 C 1.989 7.359,1.997 8.174,2.095 8.627 C 2.226 9.236,2.499 9.867,2.814 10.290 C 3.030 10.580,4.214 11.768,6.300 13.789 C 9.226 16.622,9.144 16.550,9.546 16.674 C 9.851 16.770,10.147 16.769,10.433 16.672 C 10.880 16.522,10.759 16.630,13.717 13.770 C 15.925 11.635,17.020 10.530,17.228 10.224 C 17.440 9.914,17.595 9.587,17.749 9.126 C 17.924 8.602,17.967 8.289,17.967 7.521 C 17.967 6.908,17.959 6.824,17.883 6.545 C 17.588 5.470,17.010 4.661,16.092 4.038 C 15.823 3.855,15.299 3.611,14.950 3.505 C 14.384 3.334,14.260 3.317,13.583 3.318 C 13.041 3.319,12.907 3.330,12.652 3.394 C 11.861 3.592,11.123 3.993,10.333 4.653 L 9.996 4.935 9.690 4.649 C 9.295 4.280,8.987 4.044,8.633 3.841 C 8.036 3.499,7.535 3.346,6.853 3.299 C 6.360 3.265,6.228 3.265,5.850 3.302 " fill="#1A1C1F" stroke="none" fill-rule="evenodd"></path></svg>