<svg width="12" height="12" viewBox="0 0 12 12" fill="none" xmlns="http://www.w3.org/2000/svg"><path d="M3.520 1.980 C 2.839 2.046,2.106 2.496,1.682 3.108 C 1.481 3.400,1.331 3.755,1.248 4.140 C 1.198 4.370,1.197 4.879,1.246 5.122 C 1.323 5.506,1.501 5.923,1.705 6.193 C 1.834 6.365,2.671 7.203,3.990 8.479 C 5.152 9.603,5.426 9.858,5.547 9.930 C 5.595 9.957,5.705 9.999,5.792 10.021 C 5.970 10.068,6.076 10.063,6.270 9.999 C 6.526 9.915,6.461 9.972,8.230 8.262 C 9.452 7.080,10.172 6.358,10.297 6.190 C 10.428 6.015,10.558 5.753,10.648 5.480 C 10.754 5.162,10.780 4.974,10.780 4.520 C 10.780 4.165,10.775 4.105,10.731 3.937 C 10.502 3.056,9.876 2.398,8.999 2.113 C 8.673 2.007,8.551 1.990,8.140 1.991 C 7.826 1.992,7.743 1.999,7.591 2.036 C 7.113 2.156,6.655 2.407,6.176 2.813 L 6.000 2.963 5.815 2.790 C 5.577 2.568,5.392 2.427,5.180 2.305 C 4.811 2.093,4.525 2.008,4.085 1.980 C 3.761 1.959,3.738 1.959,3.520 1.980 " fill="#1A1C1F" stroke="none" fill-rule="evenodd"></path></svg>