<svg width="20" height="20" viewBox="0 0 20 20" fill="none" xmlns="http://www.w3.org/2000/svg"><path d="M5.850 3.302 C 5.261 3.359,4.589 3.618,3.967 4.027 C 3.625 4.252,3.052 4.818,2.811 5.169 C 2.470 5.666,2.211 6.288,2.077 6.933 C 1.989 7.359,1.997 8.174,2.095 8.627 C 2.226 9.236,2.499 9.867,2.814 10.290 C 3.030 10.580,4.214 11.768,6.300 13.789 C 9.226 16.622,9.144 16.550,9.546 16.674 C 9.851 16.770,10.147 16.769,10.433 16.672 C 10.880 16.522,10.759 16.630,13.717 13.770 C 15.925 11.635,17.020 10.530,17.228 10.224 C 17.440 9.914,17.595 9.587,17.749 9.126 C 17.924 8.602,17.967 8.289,17.967 7.521 C 17.967 6.908,17.959 6.824,17.883 6.545 C 17.588 5.470,17.010 4.661,16.092 4.038 C 15.823 3.855,15.299 3.611,14.950 3.505 C 14.384 3.334,14.260 3.317,13.583 3.318 C 13.041 3.319,12.907 3.330,12.652 3.394 C 11.861 3.592,11.123 3.993,10.333 4.653 L 9.996 4.935 9.690 4.649 C 9.295 4.280,8.987 4.044,8.633 3.841 C 8.036 3.499,7.535 3.346,6.853 3.299 C 6.360 3.265,6.228 3.265,5.850 3.302 M6.933 5.314 C 7.481 5.414,7.752 5.583,8.518 6.306 C 9.455 7.190,9.544 7.247,9.983 7.247 C 10.428 7.246,10.539 7.177,11.508 6.297 C 12.396 5.490,12.764 5.321,13.633 5.320 C 14.080 5.320,14.138 5.327,14.397 5.416 C 15.171 5.682,15.790 6.357,15.934 7.092 C 15.987 7.360,15.959 8.114,15.886 8.377 C 15.857 8.484,15.772 8.700,15.697 8.857 C 15.574 9.114,15.515 9.188,15.104 9.596 C 14.639 10.060,10.618 13.961,10.243 14.313 L 10.036 14.507 9.943 14.435 C 9.803 14.325,8.876 13.441,7.300 11.915 C 4.382 9.088,4.443 9.153,4.181 8.550 L 4.051 8.250 4.051 7.733 C 4.051 7.291,4.061 7.183,4.125 6.983 C 4.324 6.359,4.797 5.804,5.384 5.508 C 5.823 5.286,6.389 5.216,6.933 5.314 " fill="#1A1C1F" stroke="none" fill-rule="evenodd"></path></svg>