<svg width="32" height="32" viewBox="0 0 32 32" fill="none" xmlns="http://www.w3.org/2000/svg"><path d="M8.453 4.215 C 7.324 4.337,5.944 4.895,4.978 5.621 C 4.550 5.943,3.644 6.890,3.313 7.361 C 2.818 8.066,2.350 9.159,2.157 10.062 C 2.089 10.377,2.067 10.761,2.065 11.627 C 2.063 12.709,2.071 12.803,2.207 13.307 C 2.387 13.975,2.738 14.845,3.027 15.338 C 3.163 15.572,3.533 16.019,3.995 16.511 C 5.151 17.742,14.077 26.454,15.321 27.565 C 15.604 27.819,15.649 27.840,15.896 27.840 C 16.428 27.840,15.952 28.257,21.093 23.283 C 26.012 18.525,28.461 16.065,28.797 15.547 C 29.536 14.407,29.902 13.237,29.958 11.840 C 30.082 8.710,28.420 6.066,25.501 4.753 C 24.555 4.327,24.192 4.256,22.815 4.227 C 21.474 4.199,21.189 4.230,20.377 4.490 C 19.002 4.930,18.218 5.449,16.654 6.957 L 15.947 7.637 15.054 6.771 C 14.562 6.294,13.968 5.762,13.733 5.588 C 12.900 4.972,11.566 4.405,10.640 4.273 C 10.076 4.193,8.933 4.163,8.453 4.215 M9.994 6.241 C 10.691 6.308,11.136 6.422,11.653 6.666 C 12.265 6.953,12.713 7.293,13.670 8.193 C 15.342 9.768,15.726 10.080,15.986 10.080 C 16.289 10.080,16.588 9.843,18.024 8.463 C 19.178 7.353,19.702 6.939,20.301 6.661 C 21.111 6.285,21.221 6.266,22.561 6.272 C 23.645 6.276,23.797 6.288,24.112 6.393 C 24.518 6.528,25.151 6.844,25.588 7.128 C 26.067 7.441,26.824 8.231,27.139 8.746 C 27.686 9.643,27.901 10.427,27.907 11.547 C 27.912 12.531,27.780 13.127,27.360 14.001 C 27.196 14.345,27.030 14.565,26.515 15.121 C 25.737 15.964,19.942 21.636,16.368 25.055 L 15.962 25.443 15.115 24.630 C 12.764 22.376,7.413 17.177,6.427 16.189 C 5.205 14.964,4.898 14.593,4.573 13.947 C 4.255 13.315,4.164 13.003,4.106 12.350 C 4.026 11.445,4.041 10.853,4.157 10.373 C 4.539 8.784,5.623 7.422,7.067 6.719 C 7.996 6.266,8.839 6.128,9.994 6.241 " fill="#1A1C1F" stroke="none" fill-rule="evenodd"></path></svg>