<svg width="16" height="16" viewBox="0 0 16 16" fill="none" xmlns="http://www.w3.org/2000/svg"><path d="M4.666 2.640 C 4.097 2.695,3.350 3.035,2.856 3.465 C 2.655 3.639,2.336 3.997,2.204 4.196 C 1.969 4.550,1.761 5.068,1.662 5.547 C 1.591 5.887,1.598 6.540,1.675 6.900 C 1.784 7.402,1.994 7.884,2.259 8.239 C 2.441 8.483,3.394 9.437,5.240 11.225 C 6.852 12.787,7.236 13.145,7.396 13.239 C 7.460 13.277,7.612 13.333,7.734 13.363 C 7.985 13.427,8.151 13.414,8.431 13.308 C 8.715 13.201,8.671 13.241,10.973 11.016 C 12.570 9.472,13.563 8.477,13.730 8.253 C 13.996 7.896,14.247 7.283,14.335 6.774 C 14.369 6.575,14.376 6.396,14.367 5.934 C 14.357 5.357,14.355 5.342,14.270 5.086 C 14.105 4.587,13.910 4.237,13.587 3.857 C 13.282 3.498,12.762 3.120,12.304 2.925 C 11.718 2.675,10.905 2.576,10.304 2.681 C 9.638 2.797,8.955 3.146,8.272 3.718 L 7.997 3.948 7.752 3.718 C 7.017 3.026,6.351 2.705,5.513 2.640 C 5.149 2.612,4.962 2.612,4.666 2.640 M5.547 4.251 C 5.985 4.331,6.201 4.467,6.815 5.045 C 7.564 5.752,7.635 5.798,7.987 5.797 C 8.341 5.797,8.440 5.735,9.189 5.053 C 9.666 4.619,9.992 4.405,10.333 4.303 C 10.563 4.235,11.203 4.234,11.425 4.302 C 11.790 4.415,12.177 4.667,12.386 4.928 C 12.544 5.127,12.709 5.465,12.748 5.673 C 12.790 5.892,12.766 6.493,12.706 6.707 C 12.615 7.038,12.471 7.277,12.193 7.566 C 11.746 8.029,8.057 11.600,8.025 11.600 C 8.015 11.600,7.900 11.502,7.770 11.382 C 7.124 10.788,3.857 7.615,3.691 7.421 C 3.542 7.246,3.467 7.121,3.345 6.840 L 3.241 6.600 3.241 6.187 C 3.241 5.833,3.249 5.746,3.300 5.587 C 3.459 5.087,3.838 4.643,4.307 4.406 C 4.659 4.229,5.112 4.173,5.547 4.251 " fill="#1A1C1F" stroke="none" fill-rule="evenodd"></path></svg>