<svg width="28" height="28" viewBox="0 0 28 28" fill="none" xmlns="http://www.w3.org/2000/svg"><path d="M7.397 3.688 C 6.408 3.795,5.201 4.283,4.356 4.919 C 3.694 5.416,2.806 6.481,2.428 7.230 C 1.912 8.254,1.708 9.463,1.815 10.873 C 1.851 11.354,1.892 11.558,2.048 12.032 C 2.278 12.728,2.595 13.391,2.887 13.781 C 3.232 14.242,8.153 19.106,12.087 22.874 C 13.683 24.403,13.631 24.360,13.909 24.360 C 14.357 24.360,14.173 24.514,16.987 21.797 C 19.707 19.170,23.197 15.758,24.036 14.904 C 24.894 14.031,25.275 13.561,25.525 13.067 C 25.736 12.651,25.998 11.908,26.093 11.457 C 26.211 10.900,26.259 9.712,26.184 9.201 C 26.053 8.302,25.656 7.253,25.181 6.545 C 24.333 5.281,22.919 4.257,21.449 3.842 C 21.064 3.733,20.922 3.719,19.963 3.699 C 18.790 3.674,18.541 3.701,17.830 3.929 C 16.627 4.314,15.941 4.768,14.572 6.087 L 13.954 6.683 13.172 5.924 C 12.742 5.507,12.222 5.042,12.017 4.890 C 11.287 4.350,10.120 3.854,9.310 3.739 C 8.816 3.669,7.817 3.642,7.397 3.688 M8.716 5.460 C 9.339 5.516,9.736 5.616,10.197 5.832 C 10.732 6.084,11.124 6.381,11.961 7.169 C 13.564 8.678,13.788 8.851,14.077 8.805 C 14.314 8.766,14.600 8.532,15.680 7.493 C 16.206 6.986,16.805 6.444,17.010 6.288 C 17.392 5.998,17.938 5.717,18.390 5.577 C 18.709 5.478,19.758 5.436,20.463 5.495 C 21.053 5.544,21.541 5.716,22.186 6.102 C 22.620 6.363,23.258 6.948,23.544 7.349 C 23.803 7.711,24.197 8.526,24.290 8.890 C 24.473 9.606,24.463 10.705,24.268 11.415 C 24.056 12.188,23.826 12.564,23.078 13.363 C 22.349 14.141,17.575 18.809,14.322 21.923 L 13.967 22.263 13.225 21.551 C 11.098 19.511,6.480 15.024,5.623 14.165 C 4.554 13.093,4.286 12.769,4.002 12.203 C 3.723 11.650,3.644 11.378,3.593 10.806 C 3.523 10.014,3.536 9.496,3.637 9.077 C 3.972 7.686,4.920 6.495,6.183 5.879 C 6.700 5.628,7.066 5.520,7.600 5.464 C 8.096 5.411,8.173 5.411,8.716 5.460 " fill="#1A1C1F" stroke="none" fill-rule="evenodd"></path></svg>