<svg width="28" height="28" viewBox="0 0 28 28" fill="none" xmlns="http://www.w3.org/2000/svg"><path d="M7.397 3.688 C 6.408 3.795,5.201 4.283,4.356 4.919 C 3.694 5.416,2.806 6.481,2.428 7.230 C 1.912 8.254,1.708 9.463,1.815 10.873 C 1.851 11.354,1.892 11.558,2.048 12.032 C 2.278 12.728,2.595 13.391,2.887 13.781 C 3.232 14.242,8.153 19.106,12.087 22.874 C 13.683 24.403,13.631 24.360,13.909 24.360 C 14.357 24.360,14.173 24.514,16.987 21.797 C 19.707 19.170,23.197 15.758,24.036 14.904 C 24.894 14.031,25.275 13.561,25.525 13.067 C 25.736 12.651,25.998 11.908,26.093 11.457 C 26.211 10.900,26.259 9.712,26.184 9.201 C 26.053 8.302,25.656 7.253,25.181 6.545 C 24.333 5.281,22.919 4.257,21.449 3.842 C 21.064 3.733,20.922 3.719,19.963 3.699 C 18.790 3.674,18.541 3.701,17.830 3.929 C 16.627 4.314,15.941 4.768,14.572 6.087 L 13.954 6.683 13.172 5.924 C 12.742 5.507,12.222 5.042,12.017 4.890 C 11.287 4.350,10.120 3.854,9.310 3.739 C 8.816 3.669,7.817 3.642,7.397 3.688 " fill="#1A1C1F" stroke="none" fill-rule="evenodd"></path></svg>