<svg width="12" height="12" viewBox="0 0 12 12" fill="none" xmlns="http://www.w3.org/2000/svg"><path d="M3.520 1.980 C 2.839 2.046,2.106 2.496,1.682 3.108 C 1.481 3.400,1.331 3.754,1.248 4.140 C 1.197 4.373,1.197 4.880,1.247 5.120 C 1.330 5.518,1.504 5.926,1.705 6.194 C 1.761 6.269,2.078 6.600,2.410 6.930 C 3.110 7.626,5.174 9.627,5.349 9.779 C 5.415 9.836,5.536 9.915,5.618 9.956 C 5.765 10.028,5.773 10.030,5.999 10.030 C 6.223 10.030,6.234 10.028,6.382 9.958 C 6.556 9.874,6.545 9.884,7.650 8.821 C 8.795 7.719,9.948 6.590,10.096 6.426 C 10.383 6.106,10.515 5.880,10.648 5.480 C 10.754 5.162,10.780 4.974,10.780 4.520 C 10.780 4.165,10.775 4.105,10.731 3.937 C 10.502 3.056,9.876 2.398,8.999 2.113 C 8.673 2.007,8.551 1.990,8.140 1.991 C 7.826 1.992,7.743 1.999,7.591 2.036 C 7.113 2.156,6.655 2.407,6.176 2.813 L 6.000 2.963 5.815 2.790 C 5.577 2.568,5.392 2.427,5.180 2.305 C 4.811 2.093,4.525 2.008,4.085 1.980 C 3.761 1.959,3.738 1.959,3.520 1.980 M4.160 3.189 C 4.504 3.251,4.625 3.330,5.192 3.861 C 5.396 4.053,5.587 4.226,5.617 4.245 C 5.716 4.311,5.934 4.366,6.052 4.354 C 6.268 4.332,6.390 4.249,6.933 3.754 C 7.215 3.496,7.467 3.322,7.642 3.262 C 7.831 3.198,8.185 3.168,8.409 3.198 C 8.723 3.240,9.092 3.449,9.289 3.696 C 9.408 3.845,9.531 4.099,9.561 4.255 C 9.592 4.418,9.575 4.870,9.531 5.028 C 9.514 5.093,9.461 5.224,9.415 5.318 C 9.340 5.473,9.303 5.518,9.040 5.780 C 8.746 6.073,6.376 8.372,6.146 8.588 L 6.022 8.704 5.966 8.661 C 5.885 8.598,5.329 8.068,4.360 7.129 C 2.629 5.453,2.658 5.484,2.506 5.127 L 2.431 4.950 2.431 4.630 C 2.432 4.337,2.436 4.298,2.484 4.166 C 2.621 3.782,2.884 3.480,3.231 3.305 C 3.494 3.172,3.834 3.129,4.160 3.189 " fill="#1A1C1F" stroke="none" fill-rule="evenodd"></path></svg>