<svg width="16" height="16" viewBox="0 0 16 16" fill="none" xmlns="http://www.w3.org/2000/svg"><path d="M4.666 2.640 C 4.097 2.695,3.350 3.035,2.856 3.465 C 2.655 3.639,2.336 3.997,2.204 4.196 C 1.969 4.550,1.761 5.068,1.662 5.547 C 1.591 5.887,1.598 6.540,1.675 6.900 C 1.784 7.402,1.994 7.884,2.259 8.239 C 2.441 8.483,3.394 9.437,5.240 11.225 C 6.852 12.787,7.236 13.145,7.396 13.239 C 7.460 13.277,7.612 13.333,7.734 13.363 C 7.985 13.427,8.151 13.414,8.431 13.308 C 8.715 13.201,8.671 13.241,10.973 11.016 C 12.570 9.472,13.563 8.477,13.730 8.253 C 13.996 7.896,14.247 7.283,14.335 6.774 C 14.369 6.575,14.376 6.396,14.367 5.934 C 14.357 5.357,14.355 5.342,14.270 5.086 C 14.105 4.587,13.910 4.237,13.587 3.857 C 13.282 3.498,12.762 3.120,12.304 2.925 C 11.718 2.675,10.905 2.576,10.304 2.681 C 9.638 2.797,8.955 3.146,8.272 3.718 L 7.997 3.948 7.752 3.718 C 7.017 3.026,6.351 2.705,5.513 2.640 C 5.149 2.612,4.962 2.612,4.666 2.640 " fill="#1A1C1F" stroke="none" fill-rule="evenodd"></path></svg>