<svg width="14" height="14" viewBox="0 0 14 14" fill="none" xmlns="http://www.w3.org/2000/svg"><path d="M4.095 2.310 C 3.494 2.369,2.825 2.703,2.344 3.184 C 2.078 3.450,1.908 3.679,1.762 3.967 C 1.309 4.864,1.288 5.862,1.702 6.735 C 1.849 7.043,1.969 7.218,2.227 7.497 C 2.555 7.852,5.612 10.829,6.181 11.349 C 6.738 11.856,7.286 11.849,7.843 11.326 C 8.877 10.356,11.542 7.759,11.803 7.467 C 12.049 7.191,12.196 6.970,12.307 6.704 C 12.508 6.225,12.586 5.819,12.585 5.262 C 12.584 4.943,12.574 4.823,12.535 4.648 C 12.340 3.800,11.779 3.080,10.994 2.675 C 10.723 2.535,10.530 2.463,10.221 2.385 C 9.996 2.328,9.936 2.323,9.520 2.323 C 9.126 2.323,9.037 2.330,8.856 2.376 C 8.300 2.515,7.790 2.792,7.238 3.255 L 6.998 3.456 6.783 3.254 C 6.131 2.640,5.555 2.364,4.810 2.310 C 4.483 2.286,4.337 2.286,4.095 2.310 M4.853 3.720 C 5.255 3.793,5.396 3.885,6.057 4.504 C 6.295 4.728,6.519 4.930,6.553 4.953 C 6.669 5.031,6.923 5.094,7.068 5.081 C 7.304 5.059,7.467 4.950,7.993 4.464 C 8.425 4.063,8.733 3.858,9.042 3.765 C 9.242 3.705,9.802 3.705,9.997 3.765 C 10.438 3.900,10.811 4.197,11.012 4.574 C 11.231 4.984,11.239 5.611,11.032 6.109 C 10.912 6.398,10.912 6.398,9.077 8.179 C 7.490 9.720,7.041 10.150,7.022 10.150 C 6.984 10.150,6.234 9.434,4.274 7.526 C 3.053 6.338,3.096 6.387,2.924 5.982 L 2.836 5.775 2.836 5.413 C 2.836 5.103,2.843 5.028,2.887 4.888 C 3.027 4.451,3.358 4.063,3.769 3.856 C 4.076 3.700,4.473 3.651,4.853 3.720 " fill="#1A1C1F" stroke="none" fill-rule="evenodd"></path></svg>