<svg width="24" height="24" viewBox="0 0 24 24" fill="none" xmlns="http://www.w3.org/2000/svg"><path d="M16.640 3.123 C 15.566 3.403,14.633 4.226,14.243 5.238 C 14.079 5.663,14.042 5.849,14.006 6.426 C 13.989 6.697,13.967 6.926,13.957 6.935 C 13.948 6.944,12.801 7.511,11.408 8.195 L 8.876 9.439 8.568 9.223 C 7.802 8.688,7.281 8.536,6.325 8.569 C 5.847 8.585,5.734 8.603,5.400 8.716 C 4.845 8.903,4.480 9.125,4.079 9.520 C 3.148 10.435,2.791 11.733,3.139 12.934 C 3.475 14.093,4.307 14.941,5.503 15.342 C 5.783 15.436,5.867 15.445,6.460 15.444 C 6.832 15.444,7.193 15.423,7.305 15.395 C 7.733 15.289,8.502 14.894,8.784 14.634 C 8.868 14.557,8.874 14.559,11.403 15.800 C 12.796 16.484,13.945 17.052,13.956 17.062 C 13.966 17.073,13.989 17.302,14.006 17.571 C 14.056 18.351,14.228 18.892,14.601 19.441 C 15.028 20.070,15.666 20.548,16.460 20.832 C 16.702 20.918,16.827 20.934,17.379 20.950 C 18.084 20.971,18.275 20.943,18.760 20.752 C 19.661 20.398,20.398 19.661,20.752 18.760 C 20.945 18.272,20.972 18.080,20.950 17.376 C 20.933 16.833,20.916 16.699,20.831 16.460 C 20.618 15.860,20.336 15.420,19.894 14.998 C 19.204 14.337,18.468 14.035,17.540 14.031 C 16.549 14.026,15.912 14.282,15.051 15.029 L 14.803 15.244 12.382 14.052 L 9.961 12.860 9.960 12.113 C 9.960 11.702,9.944 11.322,9.924 11.270 C 9.888 11.177,9.948 11.144,12.304 9.967 C 13.634 9.303,14.739 8.760,14.761 8.760 C 14.783 8.760,14.970 8.899,15.176 9.070 C 15.747 9.541,16.124 9.746,16.725 9.908 C 17.117 10.014,17.922 10.004,18.353 9.888 C 19.534 9.569,20.448 8.701,20.843 7.520 C 20.914 7.308,20.934 7.137,20.949 6.600 C 20.971 5.819,20.934 5.630,20.644 5.020 C 20.170 4.025,19.282 3.319,18.232 3.103 C 17.791 3.013,17.025 3.022,16.640 3.123 M18.129 5.169 C 18.421 5.304,18.701 5.591,18.850 5.910 C 18.959 6.143,18.967 6.187,18.953 6.550 C 18.936 7.020,18.880 7.151,18.549 7.506 C 18.209 7.869,17.981 7.970,17.504 7.973 C 17.178 7.974,17.102 7.961,16.911 7.867 C 16.661 7.745,16.297 7.384,16.155 7.118 C 16.072 6.962,16.060 6.886,16.060 6.500 C 16.060 6.113,16.072 6.037,16.157 5.869 C 16.323 5.545,16.690 5.212,17.020 5.087 C 17.088 5.062,17.306 5.047,17.520 5.053 C 17.832 5.061,17.941 5.082,18.129 5.169 M6.732 10.561 C 7.182 10.626,7.533 10.865,7.808 11.292 C 7.939 11.497,7.940 11.500,7.940 12.000 C 7.940 12.499,7.939 12.503,7.808 12.707 C 7.635 12.977,7.323 13.265,7.089 13.371 C 6.937 13.440,6.821 13.457,6.500 13.458 C 6.143 13.459,6.076 13.448,5.876 13.350 C 5.621 13.225,5.294 12.900,5.157 12.637 C 5.083 12.496,5.061 12.378,5.048 12.053 C 5.033 11.682,5.040 11.627,5.133 11.423 C 5.330 10.993,5.777 10.623,6.180 10.556 C 6.414 10.518,6.435 10.518,6.732 10.561 M18.013 16.105 C 18.242 16.180,18.681 16.570,18.813 16.817 C 18.889 16.960,18.900 17.043,18.900 17.480 C 18.900 18.043,18.868 18.146,18.597 18.454 C 18.250 18.848,17.743 19.046,17.304 18.960 C 16.781 18.858,16.365 18.552,16.150 18.110 C 16.052 17.910,16.040 17.840,16.040 17.481 C 16.040 17.111,16.050 17.058,16.161 16.838 C 16.359 16.446,16.731 16.146,17.150 16.041 C 17.342 15.993,17.765 16.024,18.013 16.105 " fill="#1A1C1F" stroke="none" fill-rule="evenodd"></path></svg>