<svg width="20" height="20" viewBox="0 0 20 20" fill="none" xmlns="http://www.w3.org/2000/svg"><path d="M13.870 2.071 C 13.772 2.087,13.556 2.146,13.391 2.201 C 12.880 2.373,12.485 2.626,12.038 3.071 C 11.377 3.729,11.061 4.478,11.009 5.514 L 10.983 6.011 9.458 6.738 L 7.933 7.465 7.701 7.286 C 7.043 6.778,6.330 6.534,5.500 6.534 C 4.568 6.534,3.770 6.846,3.123 7.464 C 2.651 7.914,2.371 8.352,2.162 8.967 C 2.060 9.269,2.054 9.311,2.041 9.900 C 2.026 10.603,2.056 10.792,2.256 11.266 C 2.470 11.771,2.658 12.056,3.017 12.418 C 3.484 12.890,3.820 13.107,4.395 13.306 C 4.692 13.409,5.204 13.499,5.489 13.500 C 6.186 13.501,6.993 13.224,7.627 12.767 C 7.780 12.657,7.922 12.568,7.944 12.569 C 7.966 12.570,8.658 12.889,9.483 13.278 L 10.983 13.984 11.006 14.384 C 11.063 15.357,11.203 15.829,11.623 16.461 C 12.063 17.123,12.739 17.613,13.567 17.872 C 13.795 17.943,13.877 17.950,14.500 17.950 C 15.123 17.950,15.205 17.943,15.433 17.872 C 16.023 17.688,16.533 17.389,16.930 16.995 C 17.349 16.578,17.619 16.148,17.834 15.550 C 17.939 15.257,17.942 15.233,17.958 14.563 C 17.975 13.882,17.975 13.874,17.884 13.597 C 17.552 12.587,16.925 11.832,16.048 11.386 C 15.497 11.106,15.060 11.016,14.377 11.042 C 13.532 11.074,12.912 11.315,12.190 11.891 C 12.023 12.024,11.867 12.133,11.843 12.133 C 11.766 12.133,10.981 11.775,9.939 11.265 L 8.929 10.769 8.953 10.610 C 8.984 10.401,8.986 9.667,8.955 9.433 L 8.932 9.250 9.108 9.155 C 9.204 9.103,9.866 8.777,10.579 8.430 L 11.875 7.801 12.057 7.968 C 12.605 8.468,13.076 8.728,13.747 8.899 C 14.147 9.002,14.944 8.996,15.334 8.888 C 16.545 8.553,17.445 7.715,17.810 6.583 C 17.948 6.155,17.980 5.944,17.978 5.483 C 17.973 4.559,17.681 3.811,17.070 3.161 C 16.479 2.532,15.916 2.220,15.121 2.084 C 14.801 2.029,14.161 2.023,13.870 2.071 M14.749 4.035 C 14.877 4.053,15.061 4.105,15.158 4.150 C 15.393 4.257,15.700 4.555,15.832 4.802 C 15.931 4.989,15.940 5.030,15.958 5.434 L 15.977 5.867 15.856 6.111 C 15.638 6.552,15.201 6.882,14.720 6.969 C 14.154 7.072,13.466 6.704,13.183 6.147 C 13.086 5.956,13.083 5.936,13.083 5.483 C 13.083 5.027,13.086 5.012,13.183 4.835 C 13.419 4.406,13.826 4.095,14.227 4.036 C 14.490 3.997,14.489 3.997,14.749 4.035 M5.971 8.602 C 6.429 8.756,6.744 9.067,6.904 9.525 C 6.959 9.680,6.969 9.780,6.960 10.050 C 6.950 10.341,6.935 10.412,6.842 10.609 C 6.631 11.058,6.208 11.378,5.704 11.468 C 5.114 11.574,4.449 11.209,4.171 10.625 C 3.789 9.825,4.194 8.889,5.050 8.593 C 5.288 8.511,5.713 8.515,5.971 8.602 M15.132 13.175 C 15.406 13.308,15.718 13.615,15.842 13.873 C 15.927 14.049,15.933 14.092,15.933 14.493 C 15.933 14.914,15.931 14.929,15.825 15.136 C 15.528 15.715,14.845 16.084,14.277 15.972 C 13.827 15.882,13.425 15.581,13.200 15.166 L 13.083 14.950 13.083 14.500 L 13.083 14.050 13.200 13.834 C 13.407 13.452,13.795 13.141,14.162 13.062 C 14.229 13.048,14.425 13.044,14.598 13.053 C 14.865 13.066,14.947 13.085,15.132 13.175 " fill="#1A1C1F" stroke="none" fill-rule="evenodd"></path></svg>