<svg width="12" height="12" viewBox="0 0 12 12" fill="none" xmlns="http://www.w3.org/2000/svg"><path d="M8.358 1.238 C 7.756 1.324,7.146 1.768,6.856 2.331 C 6.679 2.677,6.618 2.944,6.595 3.489 L 6.590 3.608 5.674 4.044 L 4.759 4.480 4.634 4.383 C 4.420 4.216,4.118 4.058,3.880 3.989 C 3.601 3.907,3.173 3.894,2.870 3.957 C 2.499 4.035,2.157 4.213,1.885 4.469 C 1.594 4.743,1.427 5.002,1.297 5.380 C 1.234 5.563,1.231 5.584,1.224 5.940 C 1.216 6.362,1.234 6.476,1.354 6.760 C 1.509 7.126,1.711 7.397,2.013 7.644 C 2.378 7.943,2.926 8.121,3.390 8.093 C 3.833 8.065,4.198 7.931,4.588 7.651 C 4.673 7.590,4.750 7.540,4.759 7.540 C 4.776 7.540,6.528 8.356,6.572 8.385 C 6.586 8.393,6.600 8.509,6.609 8.674 C 6.628 9.039,6.660 9.216,6.750 9.442 C 7.042 10.175,7.638 10.655,8.400 10.771 C 8.640 10.807,8.761 10.807,9.005 10.770 C 9.682 10.668,10.268 10.243,10.575 9.630 C 10.608 9.564,10.666 9.425,10.703 9.320 L 10.770 9.130 10.770 8.710 C 10.770 8.245,10.764 8.208,10.622 7.880 C 10.380 7.319,9.875 6.874,9.266 6.686 C 9.101 6.635,9.067 6.632,8.710 6.632 C 8.353 6.632,8.319 6.635,8.150 6.686 C 7.871 6.771,7.559 6.936,7.331 7.120 C 7.222 7.208,7.120 7.280,7.106 7.280 C 7.060 7.280,6.592 7.066,5.964 6.759 L 5.358 6.462 5.372 6.386 C 5.391 6.287,5.392 5.801,5.374 5.660 L 5.359 5.550 5.505 5.472 C 5.585 5.430,5.982 5.234,6.387 5.038 L 7.125 4.680 7.234 4.781 C 7.559 5.077,7.827 5.226,8.240 5.339 C 8.467 5.401,8.965 5.398,9.200 5.333 C 9.717 5.190,10.135 4.900,10.421 4.487 C 10.993 3.659,10.896 2.538,10.191 1.835 C 9.923 1.566,9.583 1.371,9.224 1.278 C 9.052 1.234,8.552 1.211,8.358 1.238 M8.849 2.421 C 8.926 2.432,9.037 2.463,9.095 2.490 C 9.236 2.554,9.420 2.733,9.499 2.881 C 9.559 2.993,9.564 3.018,9.574 3.259 L 9.586 3.517 9.516 3.665 C 9.391 3.928,9.154 4.110,8.856 4.172 C 8.631 4.219,8.382 4.159,8.185 4.010 C 8.053 3.909,7.988 3.832,7.907 3.679 C 7.856 3.581,7.849 3.548,7.843 3.338 C 7.836 3.066,7.853 2.988,7.957 2.828 C 8.138 2.550,8.349 2.425,8.680 2.403 C 8.697 2.402,8.773 2.410,8.849 2.421 M3.680 5.203 C 4.233 5.468,4.360 6.164,3.938 6.611 C 3.785 6.772,3.501 6.900,3.296 6.900 C 3.208 6.900,3.012 6.849,2.907 6.798 C 2.716 6.706,2.538 6.493,2.459 6.259 C 2.394 6.067,2.408 5.819,2.494 5.636 C 2.601 5.408,2.786 5.242,3.030 5.155 C 3.106 5.128,3.177 5.120,3.330 5.125 C 3.512 5.130,3.543 5.137,3.680 5.203 M9.075 7.904 C 9.256 7.993,9.399 8.130,9.487 8.297 L 9.560 8.436 9.560 8.695 C 9.560 8.945,9.558 8.958,9.497 9.079 C 9.310 9.455,8.876 9.670,8.507 9.572 C 8.272 9.510,8.041 9.322,7.917 9.093 C 7.851 8.971,7.850 8.968,7.850 8.700 L 7.850 8.430 7.920 8.301 C 8.044 8.071,8.277 7.885,8.497 7.837 C 8.537 7.829,8.654 7.826,8.757 7.831 C 8.917 7.838,8.962 7.848,9.075 7.904 " fill="#1A1C1F" stroke="none" fill-rule="evenodd"></path></svg>