<svg width="14" height="14" viewBox="0 0 14 14" fill="none" xmlns="http://www.w3.org/2000/svg"><path d="M9.722 1.448 C 9.410 1.500,9.012 1.669,8.760 1.856 C 8.684 1.913,8.540 2.040,8.440 2.138 C 7.967 2.601,7.743 3.127,7.706 3.861 L 7.688 4.209 6.620 4.718 L 5.551 5.226 5.406 5.113 C 5.134 4.901,4.793 4.728,4.468 4.638 C 4.214 4.567,3.649 4.555,3.360 4.615 C 2.919 4.706,2.526 4.908,2.201 5.212 C 1.864 5.528,1.665 5.835,1.513 6.277 C 1.440 6.490,1.437 6.515,1.428 6.930 C 1.418 7.427,1.439 7.555,1.586 7.899 C 1.765 8.319,1.966 8.591,2.315 8.888 C 2.780 9.285,3.483 9.502,4.078 9.432 C 4.533 9.378,4.957 9.212,5.339 8.937 C 5.446 8.860,5.542 8.797,5.553 8.797 C 5.572 8.797,7.616 9.750,7.671 9.784 C 7.689 9.796,7.700 9.859,7.700 9.959 C 7.700 10.188,7.742 10.587,7.781 10.740 C 7.998 11.571,8.587 12.197,9.425 12.488 L 9.648 12.565 10.150 12.565 L 10.652 12.565 10.873 12.488 C 11.678 12.207,12.212 11.672,12.487 10.871 C 12.558 10.665,12.563 10.627,12.572 10.264 C 12.583 9.793,12.558 9.610,12.436 9.300 C 12.319 9.001,12.207 8.812,12.016 8.589 C 11.594 8.099,10.972 7.771,10.383 7.728 C 9.706 7.678,9.093 7.872,8.553 8.307 C 8.425 8.409,8.307 8.493,8.290 8.493 C 8.236 8.493,7.687 8.243,6.958 7.885 L 6.250 7.538 6.267 7.427 C 6.289 7.280,6.290 6.766,6.268 6.603 L 6.251 6.475 6.387 6.401 C 6.461 6.360,6.925 6.132,7.417 5.894 L 8.313 5.460 8.452 5.590 C 9.132 6.219,10.026 6.445,10.833 6.192 C 11.255 6.060,11.570 5.875,11.851 5.596 C 12.344 5.107,12.588 4.522,12.584 3.838 C 12.581 3.191,12.377 2.668,11.947 2.211 C 11.523 1.759,11.094 1.531,10.512 1.448 C 10.321 1.420,9.885 1.420,9.722 1.448 M10.337 2.825 C 10.420 2.838,10.544 2.874,10.612 2.905 C 10.775 2.980,10.990 3.188,11.082 3.362 C 11.152 3.492,11.158 3.521,11.170 3.804 L 11.184 4.107 11.099 4.278 C 10.989 4.501,10.827 4.664,10.611 4.771 C 10.388 4.880,10.194 4.915,10.003 4.878 C 9.666 4.812,9.380 4.592,9.226 4.281 L 9.142 4.111 9.150 3.811 C 9.158 3.530,9.163 3.504,9.229 3.385 C 9.379 3.110,9.641 2.897,9.905 2.832 C 10.054 2.796,10.148 2.794,10.337 2.825 M4.275 6.060 C 4.567 6.197,4.744 6.394,4.835 6.683 C 4.906 6.906,4.887 7.219,4.790 7.426 C 4.642 7.741,4.345 7.965,3.993 8.028 C 3.690 8.082,3.364 7.968,3.126 7.725 C 2.579 7.165,2.790 6.280,3.535 6.014 C 3.624 5.982,3.706 5.974,3.885 5.979 C 4.090 5.985,4.137 5.995,4.275 6.060 M10.587 9.221 C 10.798 9.325,10.966 9.485,11.068 9.680 L 11.153 9.842 11.153 10.144 C 11.153 10.436,11.151 10.451,11.080 10.592 C 10.980 10.793,10.776 10.996,10.586 11.085 C 10.179 11.275,9.790 11.210,9.463 10.896 C 9.381 10.818,9.280 10.690,9.237 10.610 C 9.159 10.466,9.158 10.463,9.158 10.150 L 9.158 9.835 9.240 9.684 C 9.385 9.416,9.656 9.199,9.914 9.144 C 9.960 9.134,10.096 9.130,10.216 9.136 C 10.403 9.144,10.456 9.157,10.587 9.221 " fill="#1A1C1F" stroke="none" fill-rule="evenodd"></path></svg>