<svg width="16" height="16" viewBox="0 0 16 16" fill="none" xmlns="http://www.w3.org/2000/svg"><path d="M11.013 1.678 C 10.470 1.793,10.033 2.037,9.631 2.449 C 9.373 2.715,9.235 2.908,9.093 3.207 C 8.905 3.601,8.851 3.826,8.816 4.359 L 8.787 4.811 7.567 5.391 L 6.347 5.970 6.126 5.804 C 5.753 5.523,5.294 5.325,4.847 5.253 C 4.519 5.200,3.937 5.231,3.646 5.317 C 3.180 5.456,2.812 5.666,2.484 5.984 C 2.118 6.337,1.894 6.691,1.730 7.173 C 1.649 7.413,1.644 7.452,1.633 7.904 C 1.625 8.207,1.633 8.441,1.653 8.544 C 1.695 8.765,1.867 9.188,2.020 9.448 C 2.167 9.698,2.592 10.145,2.840 10.312 C 3.373 10.670,4.069 10.849,4.660 10.779 C 5.181 10.718,5.666 10.528,6.102 10.213 C 6.224 10.125,6.334 10.053,6.347 10.053 C 6.396 10.053,8.779 11.185,8.786 11.211 C 8.791 11.227,8.807 11.438,8.823 11.680 C 8.854 12.150,8.898 12.355,9.040 12.689 C 9.442 13.634,10.273 14.250,11.314 14.377 C 11.914 14.450,12.662 14.258,13.198 13.895 C 13.552 13.654,14.005 13.099,14.168 12.707 C 14.329 12.319,14.354 12.197,14.367 11.732 C 14.382 11.196,14.353 10.986,14.213 10.629 C 14.081 10.292,13.953 10.074,13.739 9.823 C 13.355 9.373,12.841 9.047,12.262 8.887 C 12.001 8.814,11.208 8.823,10.927 8.901 C 10.486 9.022,10.141 9.203,9.752 9.513 C 9.619 9.619,9.494 9.707,9.474 9.707 C 9.413 9.707,8.789 9.421,7.952 9.012 L 7.143 8.616 7.162 8.488 C 7.187 8.321,7.189 7.734,7.164 7.547 L 7.146 7.400 7.356 7.287 C 7.471 7.226,8.001 6.965,8.533 6.708 L 9.499 6.241 9.663 6.390 C 10.026 6.721,10.371 6.924,10.808 7.064 C 12.223 7.516,13.786 6.699,14.248 5.267 C 14.358 4.924,14.384 4.755,14.382 4.387 C 14.380 3.864,14.252 3.385,14.006 2.977 C 13.860 2.734,13.503 2.343,13.260 2.159 C 13.056 2.004,12.681 1.808,12.480 1.751 C 12.025 1.621,11.425 1.591,11.013 1.678 M11.813 3.228 C 11.909 3.244,12.050 3.285,12.127 3.320 C 12.314 3.405,12.560 3.644,12.665 3.841 C 12.743 3.988,12.751 4.026,12.765 4.328 C 12.783 4.698,12.765 4.784,12.624 5.006 C 12.364 5.414,11.855 5.656,11.432 5.574 C 11.047 5.500,10.720 5.248,10.544 4.893 L 10.448 4.699 10.458 4.356 C 10.467 4.035,10.472 4.004,10.547 3.868 C 10.719 3.554,11.018 3.310,11.320 3.237 C 11.490 3.196,11.598 3.194,11.813 3.228 M4.777 6.881 C 5.150 7.007,5.410 7.269,5.526 7.637 C 5.607 7.893,5.585 8.250,5.474 8.487 C 5.305 8.847,4.966 9.103,4.564 9.175 C 4.091 9.259,3.559 8.967,3.337 8.500 C 3.031 7.860,3.354 7.112,4.040 6.875 C 4.231 6.809,4.570 6.812,4.777 6.881 M12.100 10.538 C 12.341 10.657,12.532 10.840,12.650 11.063 L 12.747 11.248 12.747 11.593 C 12.747 11.926,12.744 11.944,12.663 12.105 C 12.431 12.569,11.893 12.864,11.433 12.778 C 11.076 12.712,10.738 12.460,10.555 12.123 C 10.467 11.961,10.467 11.957,10.467 11.600 L 10.467 11.240 10.560 11.067 C 10.725 10.761,11.035 10.513,11.330 10.450 C 11.383 10.438,11.539 10.434,11.676 10.441 C 11.889 10.451,11.950 10.465,12.100 10.538 " fill="#1A1C1F" stroke="none" fill-rule="evenodd"></path></svg>