<svg width="28" height="28" viewBox="0 0 28 28" fill="none" xmlns="http://www.w3.org/2000/svg"><path d="M20.182 3.615 C 19.282 3.811,18.275 4.617,17.861 5.472 C 17.599 6.015,17.528 6.367,17.528 7.122 L 17.528 7.780 13.605 9.741 L 9.683 11.702 9.496 11.539 C 8.972 11.082,8.171 10.660,7.695 10.592 C 7.251 10.528,6.553 10.539,6.186 10.617 C 6.008 10.655,5.692 10.770,5.482 10.874 C 4.586 11.318,3.935 12.091,3.634 13.067 C 3.480 13.569,3.480 14.433,3.634 14.932 C 3.953 15.961,4.614 16.728,5.566 17.173 C 5.777 17.272,6.080 17.376,6.239 17.405 C 6.656 17.479,7.485 17.469,7.817 17.385 C 8.271 17.270,9.011 16.874,9.343 16.568 L 9.637 16.298 13.580 18.270 L 17.523 20.242 17.524 20.889 C 17.525 21.421,17.545 21.603,17.632 21.908 C 17.910 22.878,18.582 23.684,19.483 24.128 C 20.020 24.393,20.308 24.453,21.031 24.453 C 21.559 24.453,21.701 24.437,22.013 24.338 C 23.148 23.977,24.066 23.027,24.366 21.901 C 24.496 21.415,24.507 20.591,24.389 20.163 C 24.022 18.829,22.914 17.787,21.652 17.589 C 21.152 17.511,20.307 17.558,19.927 17.685 C 19.510 17.824,18.860 18.208,18.518 18.518 C 18.418 18.609,18.362 18.626,18.238 18.602 C 18.153 18.586,16.359 17.714,14.250 16.665 L 10.417 14.758 10.464 14.507 C 10.490 14.369,10.499 14.030,10.485 13.753 L 10.460 13.250 14.387 11.287 C 16.857 10.051,18.333 9.338,18.366 9.363 C 19.650 10.340,19.867 10.428,21.000 10.429 C 21.627 10.430,21.770 10.416,22.073 10.322 C 22.566 10.169,23.019 9.887,23.429 9.476 C 24.673 8.232,24.836 6.387,23.827 4.973 C 23.337 4.286,22.462 3.720,21.700 3.596 C 21.293 3.531,20.528 3.540,20.182 3.615 M21.622 5.394 C 21.892 5.487,22.349 5.893,22.530 6.202 C 22.649 6.404,22.657 6.450,22.657 7.001 C 22.657 7.579,22.655 7.588,22.507 7.818 C 22.306 8.130,22.014 8.428,21.803 8.534 C 21.162 8.856,20.329 8.743,19.842 8.268 C 19.466 7.902,19.351 7.659,19.328 7.180 C 19.300 6.596,19.342 6.394,19.558 6.070 C 19.771 5.752,20.115 5.479,20.460 5.355 C 20.742 5.254,21.265 5.271,21.622 5.394 M7.622 12.394 C 7.892 12.487,8.349 12.893,8.530 13.202 C 8.649 13.404,8.657 13.450,8.657 14.001 C 8.657 14.579,8.655 14.588,8.507 14.818 C 8.306 15.130,8.014 15.428,7.803 15.534 C 7.162 15.856,6.329 15.743,5.842 15.268 C 5.466 14.902,5.351 14.659,5.328 14.180 C 5.300 13.596,5.342 13.394,5.558 13.070 C 5.771 12.752,6.115 12.479,6.460 12.355 C 6.742 12.254,7.265 12.271,7.622 12.394 M21.622 19.394 C 21.892 19.487,22.349 19.893,22.530 20.202 C 22.649 20.404,22.657 20.450,22.657 21.001 C 22.657 21.579,22.655 21.588,22.507 21.818 C 22.306 22.130,22.014 22.428,21.803 22.534 C 21.162 22.856,20.329 22.743,19.842 22.268 C 19.466 21.902,19.351 21.659,19.328 21.180 C 19.300 20.596,19.342 20.394,19.558 20.070 C 19.771 19.752,20.115 19.479,20.460 19.355 C 20.742 19.254,21.265 19.271,21.622 19.394 " fill="#1A1C1F" stroke="none" fill-rule="evenodd"></path></svg>