<svg width="24" height="24" viewBox="0 0 24 24" fill="none" xmlns="http://www.w3.org/2000/svg"><path d="M11.616 2.097 C 11.291 2.239,11.261 2.290,9.604 5.565 L 8.519 7.710 7.729 7.835 C 7.295 7.904,6.103 8.086,5.080 8.240 C 4.057 8.394,3.085 8.547,2.920 8.581 C 2.538 8.658,2.297 8.806,2.141 9.058 C 2.038 9.224,2.020 9.294,2.020 9.517 C 2.020 9.735,2.040 9.814,2.137 9.980 C 2.213 10.111,2.950 10.871,4.278 12.187 C 5.392 13.291,6.326 14.236,6.353 14.287 C 6.407 14.387,6.420 14.302,5.819 17.760 C 5.438 19.956,5.414 20.143,5.478 20.372 C 5.546 20.614,5.791 20.894,6.052 21.026 C 6.458 21.232,6.536 21.200,9.792 19.507 L 12.003 18.356 13.572 19.173 C 17.234 21.081,17.372 21.146,17.672 21.105 C 18.053 21.052,18.438 20.744,18.525 20.420 C 18.586 20.196,18.517 19.695,18.021 16.760 L 17.605 14.300 19.716 12.200 C 21.061 10.862,21.851 10.047,21.894 9.953 C 22.063 9.582,22.014 9.212,21.756 8.910 C 21.511 8.623,21.561 8.634,18.140 8.120 C 17.106 7.964,16.085 7.808,15.870 7.773 L 15.481 7.708 14.375 5.524 C 12.685 2.187,12.738 2.277,12.381 2.115 C 12.189 2.028,11.796 2.019,11.616 2.097 M12.977 7.236 C 13.497 8.267,13.974 9.182,14.037 9.269 C 14.246 9.558,14.251 9.559,16.977 9.979 C 17.907 10.123,18.689 10.240,18.714 10.240 C 18.739 10.240,18.760 10.262,18.760 10.288 C 18.760 10.314,18.072 11.025,17.230 11.867 C 16.338 12.760,15.661 13.470,15.607 13.569 C 15.489 13.783,15.491 13.799,15.782 15.586 C 15.904 16.331,16.038 17.174,16.081 17.460 C 16.124 17.746,16.168 18.030,16.179 18.090 C 16.193 18.170,16.181 18.200,16.138 18.200 C 16.058 18.200,15.616 17.976,13.874 17.055 L 12.407 16.280 12.000 16.280 L 11.593 16.280 10.126 17.055 C 7.825 18.272,7.778 18.293,7.818 18.110 C 7.829 18.061,7.857 17.876,7.882 17.700 C 7.906 17.524,8.014 16.840,8.121 16.180 C 8.430 14.276,8.484 13.839,8.436 13.665 C 8.379 13.457,8.191 13.255,6.588 11.672 C 5.815 10.909,5.190 10.276,5.201 10.266 C 5.211 10.256,5.958 10.137,6.860 10.001 C 8.642 9.733,9.339 9.619,9.560 9.560 C 9.887 9.472,10.074 9.169,11.183 6.930 C 11.611 6.066,11.976 5.360,11.996 5.360 C 12.015 5.360,12.456 6.204,12.977 7.236 " fill="#1A1C1F" stroke="none" fill-rule="evenodd"></path></svg>