<svg width="28" height="28" viewBox="0 0 28 28" fill="none" xmlns="http://www.w3.org/2000/svg"><path d="M13.492 2.504 C 13.285 2.692,13.019 3.191,11.339 6.540 L 9.850 9.511 9.603 9.543 C 8.001 9.752,2.573 10.572,2.313 10.645 C 1.898 10.760,1.657 11.309,1.839 11.726 C 1.918 11.908,2.996 13.007,5.494 15.453 L 7.371 17.290 6.862 20.230 C 6.303 23.464,6.113 24.639,6.113 24.867 C 6.113 25.069,6.209 25.243,6.432 25.444 C 6.671 25.660,6.842 25.696,7.152 25.593 C 7.580 25.452,7.994 25.246,11.028 23.662 L 13.998 22.112 16.367 23.349 C 20.348 25.426,20.843 25.667,21.136 25.667 C 21.315 25.667,21.695 25.402,21.804 25.200 C 21.879 25.063,21.888 24.980,21.864 24.687 C 21.830 24.289,21.547 22.565,21.002 19.437 L 20.627 17.290 22.529 15.429 C 25.035 12.976,26.082 11.910,26.161 11.726 C 26.343 11.309,26.102 10.761,25.687 10.645 C 25.463 10.582,23.512 10.281,20.673 9.871 C 19.506 9.703,18.459 9.550,18.348 9.531 L 18.147 9.497 16.412 6.047 C 15.123 3.486,14.643 2.573,14.545 2.501 C 14.442 2.425,14.328 2.400,14.026 2.387 C 13.655 2.372,13.632 2.377,13.492 2.504 M15.218 7.614 C 15.869 8.902,16.528 10.186,16.683 10.468 C 16.940 10.936,16.982 10.987,17.151 11.046 C 17.414 11.138,18.370 11.298,20.440 11.597 C 22.428 11.885,23.285 12.023,23.325 12.063 C 23.360 12.097,23.156 12.309,20.825 14.656 C 19.685 15.804,18.851 16.680,18.847 16.732 C 18.829 16.992,18.898 17.468,19.318 19.997 C 19.570 21.511,19.788 22.831,19.802 22.930 C 19.827 23.099,19.823 23.108,19.720 23.082 C 19.661 23.067,18.890 22.674,18.008 22.209 C 17.125 21.744,15.925 21.119,15.340 20.820 C 14.349 20.314,14.258 20.277,14.009 20.277 C 13.689 20.277,13.559 20.338,10.341 22.024 C 9.162 22.642,8.189 23.147,8.179 23.147 C 8.150 23.147,8.199 22.847,8.634 20.370 C 8.860 19.087,9.081 17.770,9.126 17.444 L 9.208 16.851 9.077 16.650 C 9.004 16.540,8.103 15.599,7.073 14.560 C 5.035 12.502,4.644 12.094,4.678 12.060 C 4.714 12.023,5.378 11.917,7.420 11.619 C 9.640 11.296,10.584 11.138,10.849 11.046 C 11.018 10.987,11.060 10.936,11.317 10.468 C 11.472 10.186,12.131 8.902,12.782 7.614 C 13.434 6.327,13.982 5.273,14.000 5.273 C 14.018 5.273,14.566 6.327,15.218 7.614 " fill="#1A1C1F" stroke="none" fill-rule="evenodd"></path></svg>