<svg width="12" height="12" viewBox="0 0 12 12" fill="none" xmlns="http://www.w3.org/2000/svg"><path d="M5.850 1.439 C 5.746 1.464,5.629 1.535,5.560 1.613 C 5.522 1.657,5.246 2.189,4.898 2.890 L 4.301 4.093 3.426 4.219 C 2.023 4.421,1.628 4.490,1.502 4.555 C 1.257 4.680,1.136 5.027,1.252 5.270 C 1.308 5.390,1.656 5.753,2.468 6.539 C 3.172 7.222,3.260 7.314,3.251 7.359 C 3.216 7.536,2.893 9.419,2.860 9.640 C 2.806 10.006,2.808 10.108,2.871 10.234 C 2.960 10.413,3.165 10.568,3.345 10.592 C 3.417 10.602,3.462 10.590,3.640 10.511 C 3.873 10.408,4.746 9.964,5.504 9.563 L 5.998 9.302 6.724 9.683 C 8.459 10.593,8.503 10.614,8.678 10.580 C 8.886 10.541,9.029 10.436,9.119 10.256 C 9.217 10.060,9.215 10.042,8.908 8.280 L 8.739 7.310 9.305 6.762 C 10.122 5.970,10.619 5.465,10.710 5.332 C 10.786 5.220,10.790 5.208,10.789 5.063 C 10.789 4.884,10.738 4.758,10.621 4.641 C 10.515 4.535,10.434 4.505,10.116 4.451 C 9.838 4.404,7.767 4.100,7.724 4.100 C 7.712 4.100,7.424 3.540,7.084 2.855 L 6.465 1.610 6.367 1.546 C 6.194 1.431,6.025 1.396,5.850 1.439 " fill="#1A1C1F" stroke="none" fill-rule="evenodd"></path></svg>