<svg width="20" height="20" viewBox="0 0 20 20" fill="none" xmlns="http://www.w3.org/2000/svg"><path d="M9.750 2.398 C 9.578 2.440,9.381 2.558,9.267 2.688 C 9.204 2.760,8.740 3.654,8.163 4.817 L 7.167 6.821 6.075 6.979 C 3.031 7.420,2.677 7.482,2.452 7.614 C 2.185 7.770,1.970 8.215,2.013 8.524 C 2.024 8.606,2.057 8.723,2.086 8.784 C 2.181 8.984,2.762 9.590,4.111 10.898 C 4.838 11.603,5.433 12.181,5.433 12.182 C 5.433 12.183,5.298 12.956,5.133 13.900 C 4.790 15.860,4.700 16.440,4.700 16.702 C 4.700 17.168,5.178 17.641,5.654 17.648 C 5.810 17.650,5.912 17.607,6.771 17.177 C 7.291 16.917,8.230 16.434,8.857 16.105 L 9.998 15.505 11.457 16.270 C 12.260 16.691,13.190 17.172,13.524 17.340 C 14.091 17.624,14.144 17.644,14.330 17.642 C 14.551 17.640,14.808 17.541,14.990 17.387 C 15.162 17.241,15.300 16.928,15.300 16.682 C 15.300 16.468,15.116 15.314,14.767 13.331 C 14.657 12.707,14.567 12.192,14.567 12.187 C 14.567 12.182,15.168 11.594,15.904 10.881 C 17.300 9.527,17.818 8.986,17.913 8.786 C 18.108 8.376,17.914 7.812,17.503 7.588 C 17.304 7.480,16.812 7.394,14.407 7.047 L 12.831 6.820 11.803 4.752 L 10.775 2.683 10.612 2.576 C 10.324 2.385,10.041 2.327,9.750 2.398 " fill="#1A1C1F" stroke="none" fill-rule="evenodd"></path></svg>