<svg width="28" height="28" viewBox="0 0 28 28" fill="none" xmlns="http://www.w3.org/2000/svg"><path d="M13.492 2.504 C 13.285 2.692,13.019 3.191,11.339 6.540 L 9.850 9.511 9.603 9.543 C 8.001 9.752,2.573 10.572,2.313 10.645 C 1.898 10.760,1.657 11.309,1.839 11.726 C 1.918 11.908,2.996 13.007,5.494 15.453 L 7.371 17.290 6.862 20.230 C 6.303 23.464,6.113 24.639,6.113 24.867 C 6.113 25.069,6.209 25.243,6.432 25.444 C 6.671 25.660,6.842 25.696,7.152 25.593 C 7.580 25.452,7.994 25.246,11.028 23.662 L 13.998 22.112 16.367 23.349 C 20.348 25.426,20.843 25.667,21.136 25.667 C 21.315 25.667,21.695 25.402,21.804 25.200 C 21.879 25.063,21.888 24.980,21.864 24.687 C 21.830 24.289,21.547 22.565,21.002 19.437 L 20.627 17.290 22.529 15.429 C 25.035 12.976,26.082 11.910,26.161 11.726 C 26.343 11.309,26.102 10.761,25.687 10.645 C 25.463 10.582,23.512 10.281,20.673 9.871 C 19.506 9.703,18.459 9.550,18.348 9.531 L 18.147 9.497 16.412 6.047 C 15.123 3.486,14.643 2.573,14.545 2.501 C 14.442 2.425,14.328 2.400,14.026 2.387 C 13.655 2.372,13.632 2.377,13.492 2.504 " fill="#1A1C1F" stroke="none" fill-rule="evenodd"></path></svg>