<svg width="16" height="16" viewBox="0 0 16 16" fill="none" xmlns="http://www.w3.org/2000/svg"><path d="M7.800 1.918 C 7.662 1.952,7.505 2.046,7.414 2.150 C 7.363 2.208,6.991 2.925,6.528 3.858 C 6.088 4.743,5.715 5.467,5.699 5.467 C 5.631 5.467,3.048 5.847,2.613 5.921 C 2.053 6.016,1.905 6.078,1.769 6.276 C 1.598 6.525,1.562 6.803,1.671 7.032 C 1.746 7.189,2.185 7.647,3.291 8.719 C 4.235 9.634,4.347 9.752,4.334 9.812 C 4.289 10.030,3.837 12.677,3.802 12.928 C 3.779 13.093,3.760 13.292,3.760 13.369 C 3.760 13.730,4.143 14.114,4.507 14.118 C 4.642 14.120,4.704 14.095,5.307 13.797 C 5.666 13.620,6.418 13.234,6.979 12.940 L 7.997 12.406 9.472 13.176 C 10.283 13.600,11.037 13.984,11.147 14.031 C 11.416 14.145,11.574 14.143,11.811 14.022 C 12.094 13.877,12.240 13.642,12.240 13.327 C 12.240 13.173,12.084 12.202,11.813 10.660 L 11.652 9.747 12.406 9.016 C 13.496 7.960,14.111 7.337,14.249 7.150 C 14.342 7.023,14.373 6.954,14.387 6.846 C 14.421 6.564,14.288 6.259,14.061 6.103 C 13.888 5.984,13.850 5.977,11.046 5.570 L 10.265 5.456 9.442 3.801 L 8.620 2.147 8.490 2.061 C 8.259 1.908,8.033 1.861,7.800 1.918 M8.058 4.633 C 8.082 4.674,8.301 5.097,8.546 5.573 C 9.051 6.555,9.196 6.792,9.333 6.859 C 9.520 6.950,9.724 6.988,11.240 7.215 C 11.504 7.254,11.737 7.296,11.758 7.307 C 11.802 7.331,11.749 7.390,10.906 8.254 C 10.297 8.878,10.091 9.113,10.033 9.253 C 9.978 9.383,9.996 9.543,10.183 10.667 C 10.375 11.815,10.372 11.787,10.334 11.787 C 10.318 11.787,9.820 11.547,9.229 11.253 C 8.208 10.747,8.145 10.720,8.000 10.720 C 7.856 10.720,7.792 10.747,6.771 11.253 C 6.178 11.547,5.679 11.787,5.661 11.787 C 5.640 11.787,5.633 11.760,5.641 11.713 C 5.755 11.051,5.977 9.660,5.990 9.525 C 6.018 9.221,5.973 9.157,5.099 8.260 C 4.244 7.382,4.198 7.331,4.242 7.307 C 4.263 7.296,4.334 7.279,4.400 7.269 C 4.466 7.259,4.874 7.197,5.307 7.132 C 6.633 6.932,6.679 6.918,6.867 6.654 C 6.932 6.563,7.203 6.064,7.469 5.544 C 7.734 5.025,7.957 4.591,7.964 4.580 C 7.987 4.543,8.015 4.559,8.058 4.633 " fill="#1A1C1F" stroke="none" fill-rule="evenodd"></path></svg>