<svg width="16" height="16" viewBox="0 0 16 16" fill="none" xmlns="http://www.w3.org/2000/svg"><path d="M7.800 1.918 C 7.662 1.952,7.505 2.046,7.414 2.150 C 7.363 2.208,6.991 2.925,6.528 3.858 C 6.088 4.743,5.715 5.467,5.699 5.467 C 5.631 5.467,3.048 5.847,2.613 5.921 C 2.053 6.016,1.905 6.078,1.769 6.276 C 1.598 6.525,1.562 6.803,1.671 7.032 C 1.746 7.189,2.185 7.647,3.291 8.719 C 4.235 9.634,4.347 9.752,4.334 9.812 C 4.289 10.030,3.837 12.677,3.802 12.928 C 3.779 13.093,3.760 13.292,3.760 13.369 C 3.760 13.730,4.143 14.114,4.507 14.118 C 4.642 14.120,4.704 14.095,5.307 13.797 C 5.666 13.620,6.418 13.234,6.979 12.940 L 7.997 12.406 9.472 13.176 C 10.283 13.600,11.037 13.984,11.147 14.031 C 11.416 14.145,11.574 14.143,11.811 14.022 C 12.094 13.877,12.240 13.642,12.240 13.327 C 12.240 13.173,12.084 12.202,11.813 10.660 L 11.652 9.747 12.406 9.016 C 13.496 7.960,14.111 7.337,14.249 7.150 C 14.342 7.023,14.373 6.954,14.387 6.846 C 14.421 6.564,14.288 6.259,14.061 6.103 C 13.888 5.984,13.850 5.977,11.046 5.570 L 10.265 5.456 9.442 3.801 L 8.620 2.147 8.490 2.061 C 8.259 1.908,8.033 1.861,7.800 1.918 " fill="#1A1C1F" stroke="none" fill-rule="evenodd"></path></svg>