<svg width="32" height="32" viewBox="0 0 32 32" fill="none" xmlns="http://www.w3.org/2000/svg"><path d="M15.370 2.918 C 15.125 3.177,14.650 4.078,12.754 7.875 L 11.259 10.869 10.976 10.906 C 10.240 11.000,4.044 11.916,3.374 12.029 C 2.956 12.099,2.545 12.193,2.459 12.237 C 2.143 12.400,1.948 12.959,2.074 13.340 C 2.146 13.560,3.298 14.743,6.279 17.660 L 8.425 19.760 8.024 22.053 C 7.420 25.521,7.040 27.825,7.006 28.240 C 6.979 28.573,6.989 28.633,7.101 28.795 C 7.170 28.895,7.319 29.051,7.432 29.142 C 7.721 29.374,7.986 29.359,8.635 29.074 C 8.911 28.953,10.681 28.048,12.568 27.063 L 15.999 25.271 18.728 26.696 C 21.984 28.396,23.448 29.129,23.827 29.252 C 24.160 29.359,24.342 29.330,24.628 29.123 C 24.933 28.901,25.035 28.650,24.994 28.214 C 24.955 27.793,24.591 25.593,24.002 22.213 L 23.574 19.760 24.361 18.987 C 28.131 15.282,29.831 13.570,29.898 13.411 C 30.103 12.919,29.834 12.299,29.357 12.165 C 29.100 12.093,26.870 11.750,23.627 11.282 C 22.292 11.089,21.096 10.914,20.970 10.893 L 20.739 10.853 18.756 6.911 C 17.283 3.983,16.735 2.941,16.623 2.858 C 16.505 2.771,16.375 2.743,16.020 2.728 L 15.567 2.709 15.370 2.918 M17.392 8.702 C 18.136 10.173,18.890 11.641,19.067 11.964 C 19.360 12.498,19.408 12.557,19.601 12.624 C 19.902 12.729,20.994 12.912,23.360 13.254 C 25.632 13.583,26.612 13.741,26.657 13.786 C 26.697 13.826,26.464 14.067,23.800 16.749 C 22.497 18.061,21.544 19.062,21.540 19.123 C 21.519 19.420,21.598 19.964,22.078 22.853 C 22.720 26.716,22.673 26.400,22.599 26.400 C 22.565 26.400,21.228 25.718,19.629 24.884 C 18.029 24.050,16.588 23.316,16.427 23.252 C 16.218 23.170,16.064 23.144,15.893 23.163 C 15.632 23.192,14.638 23.685,11.420 25.381 C 10.412 25.913,9.530 26.362,9.460 26.380 C 9.345 26.409,9.336 26.397,9.360 26.259 C 9.375 26.175,9.509 25.387,9.658 24.507 C 9.807 23.627,10.059 22.151,10.217 21.227 C 10.375 20.303,10.505 19.472,10.506 19.381 C 10.506 19.280,10.442 19.126,10.338 18.981 C 10.245 18.852,9.218 17.787,8.057 16.613 C 5.753 14.286,5.308 13.821,5.346 13.783 C 5.388 13.741,6.146 13.619,8.480 13.279 C 11.017 12.910,12.097 12.729,12.399 12.624 C 12.592 12.557,12.640 12.498,12.933 11.964 C 13.110 11.641,13.864 10.173,14.608 8.702 C 15.353 7.231,15.979 6.027,16.000 6.027 C 16.021 6.027,16.647 7.231,17.392 8.702 " fill="#1A1C1F" stroke="none" fill-rule="evenodd"></path></svg>