<svg width="14" height="14" viewBox="0 0 14 14" fill="none" xmlns="http://www.w3.org/2000/svg"><path d="M6.825 1.679 C 6.704 1.708,6.567 1.791,6.487 1.881 C 6.443 1.932,6.118 2.558,5.714 3.372 L 5.017 4.775 3.996 4.922 C 2.360 5.158,1.900 5.238,1.752 5.314 C 1.467 5.460,1.325 5.865,1.460 6.149 C 1.526 6.287,1.931 6.710,2.879 7.630 C 3.700 8.426,3.803 8.534,3.793 8.586 C 3.756 8.765,3.377 10.981,3.337 11.247 C 3.257 11.784,3.278 11.906,3.488 12.130 C 3.620 12.271,3.784 12.347,3.962 12.348 C 4.083 12.349,4.135 12.328,4.747 12.021 C 5.107 11.840,5.761 11.504,6.201 11.274 L 6.999 10.855 7.822 11.286 C 9.158 11.987,9.853 12.336,9.941 12.349 C 10.044 12.365,10.217 12.334,10.331 12.280 C 10.547 12.178,10.709 11.919,10.710 11.678 C 10.710 11.516,10.620 10.942,10.373 9.532 L 10.197 8.528 10.879 7.866 C 11.928 6.849,12.473 6.290,12.526 6.177 C 12.699 5.815,12.496 5.354,12.119 5.252 C 12.069 5.239,11.866 5.202,11.667 5.170 C 11.264 5.105,9.055 4.783,9.014 4.783 C 8.999 4.783,8.662 4.130,8.265 3.331 L 7.542 1.878 7.429 1.803 C 7.227 1.670,7.029 1.629,6.825 1.679 M7.051 4.054 C 7.071 4.089,7.261 4.454,7.473 4.865 C 7.901 5.697,7.997 5.868,8.078 5.943 C 8.189 6.048,8.383 6.092,9.366 6.241 C 9.739 6.298,10.092 6.351,10.150 6.360 C 10.208 6.369,10.270 6.384,10.288 6.394 C 10.327 6.414,10.276 6.472,9.543 7.222 C 9.013 7.764,8.830 7.973,8.779 8.096 C 8.754 8.155,8.748 8.224,8.758 8.342 C 8.769 8.466,8.965 9.687,9.064 10.249 C 9.072 10.291,9.065 10.313,9.046 10.313 C 9.029 10.313,8.593 10.103,8.075 9.847 C 7.182 9.404,7.127 9.380,7.000 9.380 C 6.874 9.380,6.818 9.404,5.924 9.847 C 5.406 10.103,4.969 10.313,4.953 10.313 C 4.935 10.313,4.928 10.290,4.935 10.249 C 5.083 9.377,5.229 8.460,5.241 8.337 C 5.266 8.062,5.252 8.043,4.320 7.083 C 3.971 6.724,3.690 6.419,3.694 6.406 C 3.703 6.378,3.715 6.376,4.468 6.264 C 5.333 6.136,5.687 6.071,5.785 6.021 C 5.975 5.924,6.020 5.851,6.748 4.439 C 6.875 4.192,6.987 3.990,6.996 3.990 C 7.006 3.990,7.030 4.019,7.051 4.054 " fill="#1A1C1F" stroke="none" fill-rule="evenodd"></path></svg>