<svg width="12" height="12" viewBox="0 0 12 12" fill="none" xmlns="http://www.w3.org/2000/svg"><path d="M5.850 1.439 C 5.746 1.464,5.629 1.535,5.560 1.613 C 5.522 1.657,5.246 2.189,4.898 2.890 L 4.301 4.093 3.426 4.219 C 2.023 4.421,1.628 4.490,1.502 4.555 C 1.257 4.680,1.136 5.027,1.252 5.270 C 1.308 5.389,1.656 5.752,2.468 6.540 C 3.170 7.221,3.260 7.315,3.251 7.360 C 3.216 7.537,2.893 9.419,2.860 9.640 C 2.838 9.789,2.820 9.960,2.820 10.021 C 2.820 10.301,3.107 10.585,3.394 10.589 C 3.490 10.590,3.548 10.565,4.104 10.285 C 4.437 10.118,5.000 9.828,5.355 9.642 L 5.999 9.303 6.725 9.683 C 8.459 10.593,8.503 10.614,8.678 10.580 C 8.886 10.541,9.029 10.436,9.119 10.256 C 9.217 10.060,9.215 10.042,8.908 8.280 L 8.739 7.310 9.305 6.762 C 10.122 5.970,10.619 5.465,10.710 5.332 C 10.786 5.220,10.790 5.208,10.789 5.063 C 10.789 4.884,10.738 4.758,10.621 4.641 C 10.515 4.535,10.434 4.505,10.116 4.451 C 9.838 4.404,7.767 4.100,7.724 4.100 C 7.712 4.100,7.424 3.540,7.084 2.855 L 6.465 1.610 6.367 1.546 C 6.194 1.431,6.025 1.396,5.850 1.439 M6.044 3.475 C 6.061 3.505,6.226 3.823,6.410 4.180 C 6.594 4.538,6.786 4.893,6.837 4.970 C 6.975 5.177,7.032 5.198,7.769 5.310 C 8.023 5.348,8.356 5.399,8.510 5.423 C 8.664 5.446,8.803 5.472,8.819 5.481 C 8.852 5.498,8.808 5.547,8.180 6.190 C 7.726 6.655,7.569 6.834,7.525 6.940 C 7.503 6.991,7.498 7.049,7.507 7.153 C 7.516 7.261,7.671 8.223,7.769 8.785 C 7.776 8.822,7.770 8.840,7.753 8.840 C 7.738 8.840,7.372 8.662,6.938 8.445 L 6.150 8.050 6.000 8.050 L 5.850 8.050 5.062 8.445 C 4.629 8.662,4.262 8.840,4.247 8.840 C 4.230 8.840,4.224 8.822,4.231 8.785 C 4.317 8.294,4.481 7.271,4.491 7.158 C 4.513 6.912,4.487 6.875,3.814 6.184 C 3.188 5.543,3.148 5.498,3.181 5.481 C 3.212 5.465,3.362 5.440,4.110 5.329 C 4.695 5.242,4.922 5.194,5.012 5.138 C 5.119 5.073,5.216 4.911,5.604 4.153 C 5.802 3.766,5.968 3.443,5.973 3.435 C 5.990 3.408,6.011 3.419,6.044 3.475 " fill="#1A1C1F" stroke="none" fill-rule="evenodd"></path></svg>