<svg width="14" height="14" viewBox="0 0 14 14" fill="none" xmlns="http://www.w3.org/2000/svg"><path d="M7.505 1.460 C 7.195 1.535,6.899 1.769,6.672 2.116 C 6.529 2.336,6.440 2.521,6.265 2.963 C 5.946 3.774,5.592 4.295,5.091 4.694 C 4.929 4.823,4.877 4.843,4.877 4.774 C 4.877 4.699,4.726 4.451,4.636 4.378 C 4.434 4.214,4.520 4.223,3.150 4.223 L 1.912 4.223 1.801 4.280 C 1.668 4.347,1.507 4.515,1.445 4.651 C 1.402 4.745,1.401 4.855,1.401 8.051 L 1.400 11.354 1.459 11.473 C 1.529 11.614,1.711 11.791,1.850 11.854 C 1.943 11.896,2.015 11.899,3.145 11.899 L 4.342 11.900 4.456 11.842 C 4.568 11.785,4.682 11.686,4.814 11.531 C 4.864 11.472,4.891 11.458,4.930 11.470 C 4.959 11.479,5.318 11.614,5.728 11.772 C 7.318 12.382,8.037 12.600,8.458 12.600 C 8.771 12.600,9.302 12.458,9.724 12.261 C 10.154 12.060,10.525 11.783,10.990 11.318 C 11.728 10.578,12.206 9.729,12.474 8.680 C 12.582 8.256,12.610 7.882,12.580 7.254 C 12.561 6.852,12.546 6.737,12.488 6.510 C 12.307 5.805,11.997 5.371,11.497 5.124 C 11.174 4.965,11.060 4.946,10.227 4.915 C 9.827 4.900,9.494 4.882,9.487 4.875 C 9.480 4.868,9.515 4.719,9.565 4.544 C 9.696 4.087,9.730 3.855,9.730 3.430 C 9.730 3.022,9.693 2.826,9.565 2.554 C 9.370 2.142,8.944 1.740,8.517 1.563 C 8.190 1.428,7.800 1.389,7.505 1.460 M8.067 2.892 C 8.263 3.034,8.330 3.178,8.330 3.459 C 8.330 3.826,8.192 4.320,7.898 5.005 C 7.760 5.326,7.736 5.402,7.728 5.546 C 7.710 5.856,7.853 6.103,8.125 6.234 L 8.248 6.294 9.473 6.309 C 10.867 6.325,10.893 6.328,10.993 6.475 C 11.096 6.627,11.130 6.775,11.157 7.187 C 11.188 7.665,11.169 8.140,11.109 8.388 C 10.962 8.991,10.585 9.694,10.132 10.208 C 9.690 10.709,9.184 11.040,8.684 11.156 C 8.492 11.201,8.449 11.203,8.303 11.179 C 7.983 11.126,6.862 10.723,5.574 10.197 L 4.929 9.933 4.913 8.834 C 4.904 8.230,4.900 7.432,4.904 7.063 L 4.912 6.390 5.077 6.321 C 5.509 6.141,5.935 5.845,6.336 5.448 C 6.907 4.883,7.196 4.419,7.582 3.451 C 7.687 3.187,7.793 2.937,7.818 2.897 C 7.875 2.803,7.943 2.802,8.067 2.892 M3.500 8.050 L 3.500 10.500 3.150 10.500 L 2.800 10.500 2.800 8.050 L 2.800 5.600 3.150 5.600 L 3.500 5.600 3.500 8.050 " fill="#1A1C1F" stroke="none" fill-rule="evenodd"></path></svg>