<svg width="16" height="16" viewBox="0 0 16 16" fill="none" xmlns="http://www.w3.org/2000/svg"><path d="M9.253 1.644 C 8.767 1.720,6.911 2.368,5.772 2.861 L 5.557 2.954 5.494 2.835 C 5.424 2.703,5.267 2.557,5.112 2.476 C 5.013 2.426,4.958 2.424,3.578 2.432 C 2.169 2.440,2.145 2.441,2.039 2.498 C 1.902 2.571,1.718 2.770,1.652 2.915 C 1.603 3.023,1.601 3.149,1.601 6.801 L 1.600 10.576 1.668 10.712 C 1.746 10.869,1.941 11.062,2.107 11.147 C 2.221 11.205,2.223 11.205,3.597 11.193 C 4.531 11.185,5.004 11.171,5.070 11.150 C 5.221 11.102,5.411 10.917,5.497 10.734 C 5.539 10.646,5.573 10.558,5.573 10.540 C 5.573 10.352,6.269 10.992,6.589 11.475 C 6.785 11.770,7.008 12.224,7.213 12.747 C 7.516 13.517,7.807 13.934,8.213 14.180 C 8.349 14.261,8.681 14.367,8.870 14.388 C 9.208 14.426,9.737 14.262,10.133 13.998 C 10.600 13.685,10.920 13.233,11.072 12.669 C 11.138 12.425,11.151 11.835,11.097 11.520 C 11.059 11.299,10.905 10.689,10.844 10.516 L 10.804 10.406 11.622 10.393 C 12.496 10.379,12.672 10.355,13.022 10.209 C 13.340 10.075,13.683 9.800,13.871 9.527 C 14.071 9.237,14.249 8.752,14.339 8.253 C 14.396 7.939,14.403 6.827,14.351 6.533 C 14.107 5.164,13.492 3.989,12.509 3.013 C 11.889 2.398,11.237 1.983,10.542 1.760 C 10.341 1.695,10.203 1.671,9.934 1.653 C 9.581 1.628,9.373 1.626,9.253 1.644 M9.760 3.228 C 10.825 3.366,12.022 4.525,12.541 5.920 C 12.733 6.438,12.805 6.983,12.769 7.653 C 12.739 8.203,12.623 8.607,12.465 8.710 C 12.374 8.770,11.977 8.797,11.133 8.801 C 10.737 8.803,10.173 8.813,9.880 8.824 C 9.411 8.840,9.334 8.849,9.240 8.899 C 8.978 9.037,8.817 9.304,8.816 9.600 C 8.815 9.757,8.836 9.823,9.031 10.293 C 9.428 11.246,9.574 11.803,9.529 12.185 C 9.499 12.432,9.272 12.723,9.077 12.762 C 9.004 12.777,8.988 12.768,8.937 12.686 C 8.906 12.635,8.789 12.367,8.679 12.090 C 8.222 10.948,7.825 10.314,7.192 9.718 C 7.057 9.591,6.875 9.431,6.787 9.363 C 6.577 9.201,6.150 8.947,5.864 8.813 L 5.636 8.707 5.618 8.069 C 5.608 7.718,5.600 6.810,5.600 6.051 L 5.600 4.672 5.980 4.512 C 7.329 3.943,8.778 3.404,9.387 3.242 C 9.565 3.195,9.522 3.197,9.760 3.228 M4.000 6.800 L 4.000 9.600 3.600 9.600 L 3.200 9.600 3.200 6.800 L 3.200 4.000 3.600 4.000 L 4.000 4.000 4.000 6.800 " fill="#1A1C1F" stroke="none" fill-rule="evenodd"></path></svg>