<svg width="20" height="20" viewBox="0 0 20 20" fill="none" xmlns="http://www.w3.org/2000/svg"><path d="M10.737 2.084 C 10.267 2.216,9.819 2.561,9.526 3.017 C 9.315 3.343,9.232 3.517,8.980 4.157 C 8.553 5.237,8.189 5.842,7.645 6.374 C 7.359 6.654,7.029 6.911,7.000 6.876 C 6.988 6.862,6.951 6.778,6.919 6.690 C 6.834 6.460,6.675 6.266,6.467 6.142 L 6.286 6.033 4.508 6.033 C 2.776 6.033,2.727 6.035,2.595 6.102 C 2.395 6.204,2.166 6.430,2.088 6.600 C 2.020 6.749,2.019 6.791,2.006 11.470 C 1.993 16.161,1.993 16.192,2.061 16.344 C 2.152 16.552,2.403 16.812,2.610 16.915 L 2.780 17.000 4.491 17.000 L 6.202 17.000 6.374 16.913 C 6.529 16.834,6.900 16.496,6.900 16.432 C 6.900 16.419,6.923 16.398,6.952 16.387 C 7.005 16.367,7.184 16.431,8.665 16.999 C 10.931 17.869,11.821 18.087,12.550 17.953 C 13.666 17.746,14.694 17.177,15.619 16.252 C 16.569 15.303,17.236 14.244,17.625 13.067 C 17.890 12.266,17.999 11.635,18.000 10.897 C 18.001 9.025,17.480 7.842,16.424 7.320 C 15.962 7.092,15.800 7.065,14.611 7.021 C 14.039 7.000,13.563 6.974,13.553 6.964 C 13.543 6.954,13.593 6.741,13.664 6.491 C 13.854 5.828,13.900 5.510,13.900 4.869 C 13.899 4.330,13.897 4.309,13.788 3.994 C 13.567 3.354,13.197 2.857,12.690 2.520 C 12.190 2.188,11.845 2.073,11.283 2.049 C 11.016 2.037,10.868 2.047,10.737 2.084 M11.492 4.113 C 11.795 4.306,11.900 4.520,11.900 4.941 C 11.900 5.465,11.703 6.170,11.282 7.150 C 11.085 7.608,11.051 7.717,11.040 7.922 C 11.015 8.366,11.218 8.719,11.607 8.906 L 11.783 8.991 13.533 9.012 C 15.524 9.036,15.561 9.040,15.706 9.250 C 15.850 9.457,15.899 9.672,15.938 10.267 C 16.022 11.556,15.896 12.241,15.396 13.223 C 14.678 14.631,13.526 15.678,12.406 15.937 C 12.131 16.001,12.070 16.005,11.862 15.970 C 11.403 15.895,9.682 15.274,7.879 14.533 L 7.041 14.189 7.018 12.686 C 7.006 11.860,7.000 10.722,7.006 10.157 L 7.017 9.132 7.277 9.018 C 7.926 8.736,8.492 8.343,9.053 7.785 C 9.832 7.009,10.302 6.273,10.747 5.133 C 10.990 4.512,11.128 4.189,11.189 4.103 C 11.252 4.012,11.339 4.015,11.492 4.113 M5.000 11.500 L 5.000 15.000 4.500 15.000 L 4.000 15.000 4.000 11.500 L 4.000 8.000 4.500 8.000 L 5.000 8.000 5.000 11.500 " fill="#1A1C1F" stroke="none" fill-rule="evenodd"></path></svg>