<svg width="12" height="12" viewBox="0 0 12 12" fill="none" xmlns="http://www.w3.org/2000/svg"><path d="M6.914 1.240 C 6.552 1.298,5.196 1.773,4.329 2.146 L 4.167 2.215 4.120 2.126 C 4.068 2.028,3.951 1.918,3.836 1.858 C 3.765 1.822,3.706 1.820,2.700 1.820 C 1.666 1.820,1.636 1.821,1.557 1.861 C 1.434 1.924,1.299 2.058,1.247 2.170 L 1.200 2.270 1.201 5.100 C 1.201 7.839,1.202 7.933,1.239 8.014 C 1.290 8.127,1.428 8.272,1.550 8.342 L 1.650 8.400 2.540 8.399 C 3.593 8.398,3.789 8.386,3.901 8.312 C 4.009 8.240,4.136 8.073,4.163 7.968 C 4.175 7.919,4.192 7.875,4.200 7.870 C 4.222 7.856,4.425 8.017,4.587 8.176 C 4.916 8.498,5.121 8.838,5.393 9.519 C 5.557 9.927,5.636 10.083,5.785 10.285 C 5.952 10.512,6.126 10.642,6.390 10.732 C 6.692 10.835,7.021 10.799,7.390 10.621 C 7.920 10.365,8.272 9.866,8.342 9.272 C 8.380 8.946,8.313 8.466,8.163 7.985 L 8.106 7.804 8.718 7.795 C 9.372 7.784,9.488 7.769,9.760 7.657 C 10.371 7.408,10.714 6.810,10.782 5.880 C 10.831 5.219,10.778 4.779,10.576 4.164 C 10.117 2.766,8.889 1.525,7.710 1.270 C 7.538 1.232,7.072 1.215,6.914 1.240 M7.620 2.490 C 8.265 2.724,8.878 3.332,9.266 4.121 C 9.498 4.592,9.580 4.960,9.580 5.523 C 9.580 6.141,9.477 6.504,9.285 6.560 C 9.238 6.574,8.827 6.589,8.190 6.600 C 7.629 6.610,7.132 6.623,7.085 6.629 C 6.822 6.661,6.610 6.916,6.611 7.200 C 6.612 7.317,6.628 7.370,6.774 7.720 C 6.966 8.184,7.023 8.345,7.092 8.631 C 7.158 8.908,7.164 9.151,7.106 9.281 C 7.036 9.440,6.880 9.580,6.774 9.580 C 6.726 9.580,6.672 9.475,6.509 9.068 C 6.104 8.055,5.708 7.493,5.055 7.003 C 4.836 6.839,4.444 6.613,4.255 6.542 L 4.200 6.521 4.200 5.013 L 4.200 3.505 4.585 3.344 C 5.433 2.988,6.408 2.619,6.850 2.486 C 7.050 2.426,7.089 2.420,7.270 2.427 C 7.424 2.433,7.505 2.448,7.620 2.490 M3.000 5.100 L 3.000 7.200 2.700 7.200 L 2.400 7.200 2.400 5.100 L 2.400 3.000 2.700 3.000 L 3.000 3.000 3.000 5.100 " fill="#1A1C1F" stroke="none" fill-rule="evenodd"></path></svg>