<svg width="14" height="14" viewBox="0 0 14 14" fill="none" xmlns="http://www.w3.org/2000/svg"><path d="M8.065 1.447 C 7.658 1.512,6.105 2.053,5.122 2.473 L 4.865 2.583 4.802 2.472 C 4.736 2.357,4.595 2.228,4.461 2.160 C 4.391 2.124,4.267 2.121,3.131 2.128 C 1.898 2.135,1.877 2.136,1.784 2.186 C 1.665 2.249,1.503 2.424,1.445 2.551 C 1.402 2.645,1.401 2.755,1.401 5.951 L 1.400 9.254 1.459 9.373 C 1.528 9.510,1.699 9.680,1.843 9.753 C 1.944 9.804,1.945 9.804,3.148 9.794 C 3.965 9.787,4.379 9.775,4.436 9.756 C 4.608 9.702,4.826 9.454,4.865 9.269 C 4.873 9.228,4.889 9.188,4.900 9.182 C 4.931 9.162,5.245 9.424,5.442 9.634 C 5.774 9.987,6.005 10.386,6.289 11.096 C 6.484 11.583,6.576 11.763,6.749 11.999 C 6.943 12.264,7.150 12.417,7.448 12.517 C 7.723 12.609,7.920 12.616,8.199 12.544 C 9.050 12.324,9.632 11.670,9.732 10.822 C 9.776 10.441,9.698 9.874,9.523 9.316 L 9.457 9.105 10.171 9.094 C 10.934 9.081,11.089 9.061,11.394 8.932 C 12.104 8.633,12.500 7.941,12.579 6.860 C 12.635 6.090,12.574 5.575,12.340 4.862 C 11.803 3.226,10.372 1.779,8.995 1.481 C 8.794 1.438,8.250 1.418,8.065 1.447 M8.749 2.861 C 8.832 2.880,8.994 2.940,9.111 2.996 C 9.981 3.412,10.804 4.477,11.101 5.569 C 11.160 5.789,11.163 5.823,11.164 6.393 C 11.165 7.064,11.142 7.227,11.007 7.478 C 10.944 7.596,10.917 7.623,10.838 7.650 C 10.769 7.673,10.445 7.686,9.555 7.701 C 8.901 7.712,8.320 7.727,8.266 7.734 C 7.959 7.771,7.712 8.069,7.713 8.400 C 7.714 8.536,7.733 8.598,7.902 9.007 C 8.216 9.763,8.334 10.179,8.335 10.536 C 8.336 10.768,8.301 10.868,8.166 11.022 C 8.096 11.102,7.969 11.177,7.902 11.177 C 7.848 11.177,7.770 11.025,7.595 10.582 C 7.142 9.434,6.693 8.787,5.943 8.206 C 5.678 8.000,5.206 7.724,4.964 7.632 L 4.900 7.608 4.900 5.849 L 4.900 4.090 5.291 3.925 C 6.448 3.435,7.941 2.884,8.270 2.826 C 8.387 2.805,8.551 2.817,8.749 2.861 M3.500 5.950 L 3.500 8.400 3.150 8.400 L 2.800 8.400 2.800 5.950 L 2.800 3.500 3.150 3.500 L 3.500 3.500 3.500 5.950 " fill="#1A1C1F" stroke="none" fill-rule="evenodd"></path></svg>