<svg width="24" height="24" viewBox="0 0 24 24" fill="none" xmlns="http://www.w3.org/2000/svg"><path d="M13.327 2.124 C 12.981 2.260,12.639 2.519,12.420 2.809 C 12.310 2.955,12.051 3.395,11.843 3.787 C 10.775 5.810,10.621 6.068,10.042 6.800 C 9.666 7.275,8.080 8.878,7.551 9.317 L 7.202 9.607 6.910 9.430 C 6.467 9.161,6.220 9.083,5.635 9.031 C 5.022 8.975,3.981 9.033,3.660 9.140 C 3.145 9.313,2.496 9.869,2.269 10.332 C 2.014 10.854,2.026 10.627,2.010 15.035 L 1.995 19.049 2.219 19.507 C 2.406 19.889,2.492 20.014,2.732 20.255 C 3.030 20.554,3.366 20.758,3.800 20.904 C 3.990 20.968,4.155 20.978,5.000 20.979 C 5.920 20.980,5.996 20.974,6.246 20.888 C 6.562 20.779,6.924 20.566,7.202 20.326 L 7.403 20.153 8.592 20.475 C 11.181 21.176,13.538 21.762,14.500 21.942 C 15.517 22.133,16.842 21.725,17.977 20.873 C 19.065 20.056,20.174 18.689,20.833 17.352 C 21.386 16.229,21.755 15.124,21.899 14.160 C 22.042 13.198,22.014 11.660,21.839 10.976 C 21.605 10.057,21.027 9.424,20.180 9.159 C 19.917 9.076,19.788 9.069,18.020 9.034 C 16.986 9.014,16.047 8.988,15.934 8.977 L 15.729 8.955 15.948 8.448 C 16.585 6.971,16.863 5.595,16.705 4.693 C 16.623 4.224,16.400 3.598,16.222 3.341 C 15.887 2.855,15.313 2.368,14.853 2.179 C 14.611 2.080,14.520 2.065,14.060 2.053 C 13.605 2.041,13.513 2.050,13.327 2.124 M14.300 4.164 C 14.648 4.485,14.800 5.009,14.719 5.614 C 14.618 6.376,14.290 7.300,13.749 8.351 C 13.570 8.697,13.337 9.151,13.230 9.360 C 12.999 9.811,12.965 9.993,13.058 10.274 C 13.146 10.539,13.435 10.864,13.633 10.919 C 13.722 10.945,14.880 10.976,16.560 10.999 C 18.089 11.021,19.424 11.049,19.527 11.062 C 19.630 11.076,19.742 11.119,19.778 11.158 C 19.904 11.297,19.968 11.777,19.968 12.580 C 19.968 14.117,19.774 14.968,19.122 16.300 C 18.344 17.889,17.260 19.129,16.180 19.669 C 15.464 20.027,15.092 20.054,14.100 19.822 C 12.808 19.520,9.358 18.626,8.210 18.295 L 8.000 18.234 8.000 14.865 L 8.000 11.495 8.270 11.298 C 8.778 10.926,9.380 10.384,10.242 9.522 C 11.789 7.977,12.364 7.183,13.363 5.220 C 13.930 4.106,13.990 4.000,14.063 4.000 C 14.095 4.000,14.202 4.074,14.300 4.164 M5.848 11.107 L 5.960 11.215 5.960 14.922 C 5.960 17.440,5.946 18.667,5.917 18.750 C 5.850 18.944,5.707 18.980,5.000 18.980 C 4.293 18.980,4.150 18.944,4.083 18.750 C 4.054 18.667,4.040 17.441,4.040 14.926 L 4.040 11.224 4.147 11.112 L 4.255 11.000 4.995 11.000 L 5.736 11.000 5.848 11.107 " fill="#1A1C1F" stroke="none" fill-rule="evenodd"></path></svg>