<svg width="12" height="12" viewBox="0 0 12 12" fill="none" xmlns="http://www.w3.org/2000/svg"><path d="M6.442 1.250 C 6.160 1.330,5.891 1.537,5.715 1.810 C 5.591 2.003,5.533 2.123,5.407 2.445 C 5.156 3.090,4.939 3.464,4.634 3.778 C 4.487 3.930,4.223 4.144,4.201 4.131 C 4.193 4.125,4.174 4.082,4.161 4.034 C 4.126 3.909,4.007 3.761,3.880 3.685 L 3.772 3.620 2.701 3.620 L 1.630 3.620 1.529 3.678 C 1.409 3.747,1.290 3.873,1.238 3.987 C 1.202 4.067,1.201 4.174,1.200 6.901 L 1.200 9.732 1.251 9.834 C 1.311 9.955,1.467 10.107,1.585 10.161 C 1.665 10.197,1.727 10.199,2.698 10.200 C 3.724 10.200,3.726 10.200,3.816 10.155 C 3.910 10.108,4.060 9.973,4.132 9.870 L 4.174 9.811 4.422 9.903 C 4.558 9.954,4.909 10.088,5.200 10.200 C 6.497 10.699,7.001 10.830,7.435 10.781 C 7.761 10.745,8.128 10.626,8.440 10.456 C 9.602 9.823,10.512 8.527,10.752 7.160 C 10.777 7.017,10.786 6.846,10.786 6.470 C 10.787 6.037,10.781 5.940,10.744 5.750 C 10.641 5.227,10.471 4.883,10.181 4.615 C 10.018 4.464,9.750 4.320,9.540 4.270 C 9.425 4.243,8.962 4.215,8.327 4.196 C 8.226 4.192,8.138 4.185,8.132 4.179 C 8.126 4.172,8.156 4.045,8.199 3.895 C 8.311 3.503,8.340 3.304,8.340 2.940 C 8.340 2.690,8.332 2.596,8.299 2.473 C 8.219 2.167,8.081 1.940,7.811 1.673 C 7.645 1.508,7.389 1.361,7.130 1.281 C 6.944 1.223,6.594 1.207,6.442 1.250 M6.923 2.486 C 6.971 2.522,7.037 2.592,7.069 2.641 C 7.123 2.721,7.130 2.748,7.136 2.920 C 7.149 3.252,7.040 3.656,6.765 4.300 C 6.651 4.565,6.631 4.631,6.624 4.753 C 6.609 5.020,6.731 5.231,6.964 5.344 L 7.070 5.395 8.120 5.407 C 9.314 5.422,9.336 5.424,9.424 5.550 C 9.510 5.674,9.540 5.803,9.563 6.160 C 9.588 6.545,9.574 6.976,9.530 7.158 C 9.307 8.082,8.604 9.035,7.875 9.402 C 7.562 9.560,7.309 9.618,7.098 9.580 C 6.824 9.530,5.844 9.176,4.777 8.740 L 4.225 8.514 4.211 7.612 C 4.203 7.116,4.200 6.433,4.204 6.094 L 4.210 5.477 4.352 5.418 C 4.717 5.266,5.084 5.012,5.421 4.680 C 5.919 4.189,6.168 3.791,6.497 2.960 C 6.587 2.735,6.678 2.521,6.700 2.485 C 6.751 2.400,6.811 2.401,6.923 2.486 M3.000 6.900 L 3.000 9.000 2.700 9.000 L 2.400 9.000 2.400 6.900 L 2.400 4.800 2.700 4.800 L 3.000 4.800 3.000 6.900 " fill="#1A1C1F" stroke="none" fill-rule="evenodd"></path></svg>