<svg width="20" height="20" viewBox="0 0 20 20" fill="none" xmlns="http://www.w3.org/2000/svg"><path d="M11.583 2.054 C 11.547 2.061,11.434 2.084,11.333 2.104 C 10.783 2.214,8.380 3.072,7.215 3.576 L 6.946 3.692 6.867 3.544 C 6.824 3.462,6.727 3.342,6.652 3.278 C 6.371 3.036,6.509 3.051,4.527 3.040 C 2.758 3.030,2.736 3.030,2.599 3.101 C 2.396 3.204,2.166 3.428,2.088 3.600 C 2.020 3.749,2.019 3.791,2.006 8.476 L 1.993 13.201 2.080 13.380 C 2.179 13.583,2.422 13.826,2.634 13.933 C 2.776 14.006,2.778 14.006,4.497 13.991 C 5.664 13.981,6.255 13.964,6.337 13.938 C 6.583 13.859,6.894 13.506,6.949 13.242 C 6.962 13.183,6.984 13.126,7.000 13.117 C 7.045 13.089,7.493 13.463,7.776 13.765 C 8.248 14.268,8.618 14.915,9.017 15.933 C 9.545 17.285,10.092 17.838,11.037 17.975 C 11.273 18.010,11.334 18.006,11.620 17.941 C 12.738 17.687,13.549 16.921,13.837 15.848 C 13.922 15.532,13.939 14.803,13.871 14.400 C 13.824 14.126,13.632 13.364,13.555 13.145 L 13.506 13.008 14.528 12.991 C 15.621 12.973,15.812 12.948,16.267 12.763 C 16.669 12.599,17.100 12.256,17.339 11.909 C 17.588 11.546,17.811 10.940,17.924 10.317 C 17.995 9.921,18.004 8.533,17.938 8.167 C 17.624 6.429,16.873 4.995,15.636 3.767 C 14.857 2.993,14.023 2.467,13.131 2.185 C 12.789 2.076,11.866 1.999,11.583 2.054 M12.555 4.104 C 12.825 4.187,13.309 4.425,13.567 4.601 C 14.714 5.383,15.720 6.983,15.920 8.345 C 15.998 8.876,15.971 9.937,15.870 10.317 C 15.773 10.679,15.652 10.871,15.482 10.928 C 15.383 10.962,14.923 10.980,13.650 11.002 C 12.715 11.018,11.886 11.038,11.808 11.048 C 11.370 11.102,11.021 11.523,11.020 12.000 C 11.019 12.196,11.045 12.278,11.289 12.867 C 11.737 13.947,11.906 14.541,11.908 15.051 C 11.909 15.383,11.859 15.526,11.666 15.745 C 11.565 15.860,11.384 15.967,11.288 15.967 C 11.210 15.967,11.101 15.751,10.813 15.033 C 10.259 13.647,9.758 12.858,8.979 12.140 C 8.424 11.627,7.696 11.146,7.142 10.924 L 7.000 10.867 7.000 8.354 L 7.000 5.840 7.292 5.717 C 8.758 5.096,10.688 4.361,11.400 4.150 C 11.875 4.010,12.206 3.996,12.555 4.104 M5.000 8.500 L 5.000 12.000 4.500 12.000 L 4.000 12.000 4.000 8.500 L 4.000 5.000 4.500 5.000 L 5.000 5.000 5.000 8.500 " fill="#1A1C1F" stroke="none" fill-rule="evenodd"></path></svg>