<svg width="24" height="24" viewBox="0 0 24 24" fill="none" xmlns="http://www.w3.org/2000/svg"><path d="M14.480 2.066 C 13.326 2.302,11.164 2.837,8.854 3.459 L 7.408 3.849 7.149 3.629 C 6.838 3.365,6.386 3.135,6.065 3.077 C 5.923 3.051,5.437 3.040,4.845 3.048 C 3.937 3.062,3.842 3.070,3.634 3.153 C 3.105 3.364,2.609 3.786,2.325 4.270 C 2.013 4.801,2.032 4.507,2.010 8.980 L 1.991 12.980 2.117 13.306 C 2.418 14.085,2.995 14.654,3.720 14.886 C 3.933 14.954,4.119 14.973,4.741 14.990 C 5.899 15.020,6.325 14.943,6.880 14.600 C 7.023 14.512,7.167 14.440,7.200 14.441 C 7.293 14.442,8.182 15.226,8.849 15.895 C 9.976 17.027,10.582 17.829,11.221 19.040 C 12.366 21.206,12.427 21.302,12.828 21.598 C 13.219 21.884,13.526 21.981,14.040 21.977 C 14.390 21.975,14.505 21.958,14.730 21.873 C 15.145 21.715,15.426 21.529,15.780 21.179 C 16.179 20.783,16.357 20.494,16.536 19.957 C 16.920 18.803,16.775 17.591,16.036 15.754 C 15.793 15.149,15.764 15.041,15.850 15.039 C 20.108 14.963,20.050 14.967,20.643 14.656 C 20.977 14.480,21.461 13.990,21.616 13.670 C 21.741 13.412,21.902 12.776,21.958 12.321 C 22.012 11.884,22.012 10.805,21.958 10.274 C 21.774 8.478,20.828 6.246,19.612 4.740 C 18.559 3.436,17.214 2.461,16.047 2.155 C 15.743 2.075,14.719 2.017,14.480 2.066 M15.720 4.159 C 16.332 4.364,16.885 4.726,17.456 5.297 C 18.693 6.534,19.755 8.650,19.919 10.201 C 19.965 10.638,19.971 11.536,19.934 12.193 C 19.904 12.703,19.835 12.865,19.620 12.932 C 19.554 12.952,18.204 12.981,16.620 12.997 C 13.515 13.028,13.690 13.014,13.389 13.250 C 13.151 13.436,13.021 13.693,13.021 13.980 C 13.020 14.245,13.003 14.206,13.669 15.480 C 14.098 16.300,14.428 17.115,14.602 17.783 C 14.715 18.218,14.724 18.304,14.711 18.760 C 14.699 19.211,14.687 19.281,14.589 19.469 C 14.467 19.703,14.251 19.937,14.127 19.970 C 14.078 19.983,14.020 19.964,13.985 19.925 C 13.951 19.888,13.675 19.373,13.370 18.779 C 12.741 17.556,12.457 17.082,11.935 16.387 C 11.021 15.166,9.518 13.656,8.289 12.720 L 8.000 12.501 8.000 9.133 L 8.000 5.766 8.210 5.705 C 8.992 5.478,12.715 4.515,13.860 4.243 C 15.031 3.966,15.130 3.961,15.720 4.159 M5.783 5.067 C 5.962 5.135,5.960 5.099,5.960 9.051 L 5.960 12.785 5.848 12.893 L 5.736 13.000 4.995 13.000 L 4.255 13.000 4.145 12.885 L 4.035 12.771 4.028 9.115 C 4.022 6.277,4.031 5.423,4.070 5.295 C 4.124 5.118,4.214 5.059,4.480 5.025 C 4.657 5.003,5.703 5.036,5.783 5.067 " fill="#1A1C1F" stroke="none" fill-rule="evenodd"></path></svg>