<svg width="28" height="28" viewBox="0 0 28 28" fill="none" xmlns="http://www.w3.org/2000/svg"><path d="M16.870 2.725 C 16.584 2.816,16.389 2.930,16.161 3.140 C 15.907 3.374,15.854 3.476,15.467 4.467 C 14.813 6.140,14.355 6.888,13.198 8.167 C 12.482 8.960,11.484 9.842,10.297 10.733 L 9.667 11.206 9.348 10.992 C 8.936 10.714,8.554 10.599,7.864 10.546 C 7.206 10.495,5.790 10.493,4.571 10.541 L 3.706 10.576 3.300 10.772 C 2.847 10.992,2.388 11.384,2.149 11.756 C 2.070 11.880,1.942 12.153,1.866 12.362 L 1.727 12.743 1.727 17.051 C 1.727 21.840,1.704 21.476,2.042 22.144 C 2.343 22.739,2.882 23.221,3.532 23.478 C 3.802 23.585,3.815 23.585,6.160 23.588 L 8.517 23.590 8.833 23.435 C 9.008 23.350,9.285 23.188,9.451 23.074 L 9.751 22.869 11.001 23.305 C 14.519 24.534,16.521 25.121,17.888 25.323 C 18.556 25.422,18.984 25.377,19.724 25.130 C 20.733 24.794,21.409 24.364,22.320 23.477 C 23.104 22.715,23.452 22.304,23.956 21.548 C 24.866 20.182,25.559 18.615,25.975 16.987 C 26.183 16.171,26.245 15.426,26.210 14.186 C 26.187 13.342,26.169 13.179,26.062 12.809 C 25.837 12.034,25.540 11.559,25.043 11.181 C 24.756 10.963,24.227 10.710,23.912 10.639 C 23.636 10.577,21.579 10.504,20.057 10.502 L 18.950 10.500 19.112 10.122 C 19.329 9.615,19.761 8.352,19.900 7.817 C 20.142 6.886,20.174 5.562,19.972 4.853 C 19.792 4.221,19.536 3.758,19.158 3.380 C 18.795 3.017,18.501 2.841,18.074 2.730 C 17.753 2.646,17.128 2.644,16.870 2.725 M17.823 4.516 C 17.889 4.565,18.022 4.740,18.118 4.904 L 18.293 5.203 18.293 6.129 C 18.293 6.899,18.278 7.115,18.201 7.418 C 18.008 8.173,17.643 9.103,17.046 10.360 C 16.601 11.295,16.589 11.337,16.679 11.608 C 16.768 11.874,16.994 12.114,17.223 12.184 C 17.322 12.214,18.574 12.250,20.479 12.278 C 23.369 12.319,23.587 12.328,23.746 12.410 C 23.960 12.521,24.132 12.704,24.273 12.973 C 24.381 13.178,24.384 13.216,24.398 14.583 L 24.412 15.983 24.249 16.620 C 23.450 19.730,21.255 22.727,19.239 23.459 C 18.990 23.549,18.851 23.567,18.372 23.567 C 17.894 23.567,17.706 23.543,17.219 23.425 C 16.130 23.159,13.142 22.215,11.282 21.549 L 10.500 21.270 10.500 17.009 L 10.500 12.748 11.002 12.385 C 13.073 10.886,14.856 9.151,15.846 7.671 C 16.274 7.032,16.776 5.993,17.080 5.118 L 17.337 4.380 17.519 4.403 C 17.620 4.416,17.756 4.467,17.823 4.516 M8.388 12.443 C 8.471 12.506,8.564 12.604,8.595 12.660 C 8.677 12.811,8.719 14.635,8.723 18.196 L 8.727 21.248 8.587 21.467 C 8.510 21.587,8.389 21.712,8.318 21.746 C 8.140 21.830,7.129 21.880,5.525 21.884 L 4.167 21.887 3.975 21.757 C 3.869 21.686,3.729 21.556,3.665 21.468 L 3.547 21.309 3.547 17.065 C 3.547 12.890,3.548 12.819,3.641 12.669 C 3.811 12.394,3.932 12.346,4.550 12.313 C 4.858 12.297,5.813 12.294,6.673 12.306 L 8.237 12.328 8.388 12.443 " fill="#1A1C1F" stroke="none" fill-rule="evenodd"></path></svg>