<svg width="16" height="16" viewBox="0 0 16 16" fill="none" xmlns="http://www.w3.org/2000/svg"><path d="M8.590 1.667 C 8.214 1.773,7.855 2.049,7.620 2.413 C 7.458 2.666,7.367 2.854,7.201 3.280 C 6.810 4.288,6.407 4.896,5.818 5.365 C 5.633 5.512,5.573 5.534,5.573 5.456 C 5.573 5.370,5.401 5.087,5.298 5.003 C 5.067 4.816,5.165 4.827,3.600 4.827 L 2.185 4.827 2.058 4.891 C 1.907 4.968,1.722 5.160,1.652 5.315 C 1.603 5.423,1.601 5.549,1.601 9.201 L 1.600 12.976 1.668 13.112 C 1.748 13.273,1.956 13.476,2.114 13.548 C 2.220 13.596,2.303 13.599,3.594 13.599 L 4.962 13.600 5.093 13.534 C 5.221 13.469,5.351 13.355,5.501 13.179 C 5.589 13.075,5.542 13.067,6.107 13.285 C 8.189 14.089,9.011 14.354,9.533 14.390 C 10.094 14.429,10.871 14.191,11.545 13.773 C 12.168 13.387,12.871 12.696,13.312 12.035 C 13.781 11.332,14.096 10.612,14.284 9.813 C 14.426 9.213,14.420 8.016,14.272 7.440 C 14.066 6.635,13.711 6.139,13.139 5.856 C 12.770 5.674,12.640 5.652,11.688 5.617 C 11.231 5.599,10.850 5.579,10.842 5.571 C 10.834 5.563,10.874 5.393,10.932 5.193 C 11.083 4.663,11.120 4.408,11.120 3.895 C 11.120 3.464,11.117 3.447,11.031 3.195 C 10.768 2.435,10.210 1.901,9.453 1.689 C 9.246 1.631,8.762 1.618,8.590 1.667 M9.220 3.305 C 9.444 3.467,9.520 3.631,9.520 3.953 C 9.520 4.372,9.362 4.937,9.026 5.720 C 8.868 6.087,8.841 6.174,8.832 6.338 C 8.812 6.693,8.974 6.975,9.286 7.125 L 9.427 7.193 10.827 7.210 C 12.419 7.229,12.449 7.232,12.565 7.400 C 12.680 7.566,12.719 7.738,12.750 8.213 C 12.786 8.759,12.764 9.302,12.695 9.587 C 12.529 10.276,12.098 11.078,11.579 11.667 C 11.074 12.239,10.496 12.617,9.925 12.750 C 9.705 12.801,9.656 12.804,9.490 12.776 C 9.123 12.716,7.842 12.255,6.370 11.653 L 5.633 11.353 5.615 10.336 C 5.605 9.777,5.600 8.867,5.605 8.313 L 5.613 7.305 5.814 7.218 C 6.351 6.984,6.810 6.664,7.267 6.203 C 7.885 5.579,8.242 5.017,8.598 4.107 C 8.796 3.601,8.903 3.350,8.951 3.282 C 9.005 3.205,9.093 3.213,9.220 3.305 M4.000 9.200 L 4.000 12.000 3.600 12.000 L 3.200 12.000 3.200 9.200 L 3.200 6.400 3.600 6.400 L 4.000 6.400 4.000 9.200 " fill="#1A1C1F" stroke="none" fill-rule="evenodd"></path></svg>