<svg width="32" height="32" viewBox="0 0 32 32" fill="none" xmlns="http://www.w3.org/2000/svg"><path d="M19.147 3.164 C 18.344 3.497,18.224 3.657,17.654 5.148 C 16.957 6.975,16.406 7.872,15.083 9.334 C 14.248 10.257,13.228 11.164,11.885 12.178 L 11.049 12.808 10.685 12.563 C 10.218 12.249,9.786 12.117,9.017 12.053 C 8.299 11.993,6.636 11.991,5.225 12.047 L 4.236 12.087 3.772 12.311 C 3.254 12.562,2.729 13.011,2.456 13.436 C 2.365 13.577,2.219 13.889,2.132 14.128 L 1.973 14.563 1.973 19.459 C 1.973 24.870,1.955 24.554,2.320 25.280 C 2.648 25.932,3.187 26.449,3.846 26.745 C 4.328 26.961,4.821 26.993,7.471 26.975 L 9.733 26.960 10.095 26.783 C 10.294 26.686,10.612 26.500,10.801 26.371 L 11.144 26.136 12.572 26.634 C 16.926 28.155,19.460 28.878,20.839 28.991 C 21.790 29.070,23.131 28.631,24.320 27.851 C 24.878 27.486,26.488 25.892,26.961 25.239 C 28.225 23.490,29.149 21.514,29.685 19.413 C 29.923 18.481,29.995 17.629,29.955 16.213 C 29.927 15.248,29.907 15.062,29.785 14.639 C 29.528 13.753,29.188 13.210,28.621 12.779 C 28.292 12.529,27.688 12.239,27.328 12.159 C 27.012 12.088,24.661 12.004,22.922 12.002 L 21.657 12.000 21.847 11.560 C 22.090 10.994,22.581 9.553,22.744 8.926 C 23.018 7.874,23.055 6.357,22.827 5.547 C 22.627 4.836,22.328 4.296,21.901 3.872 C 21.289 3.264,20.745 3.039,19.895 3.041 C 19.545 3.042,19.373 3.070,19.147 3.164 M20.369 5.161 C 20.445 5.218,20.591 5.405,20.693 5.578 L 20.880 5.891 20.898 6.932 C 20.909 7.600,20.893 8.078,20.852 8.267 C 20.679 9.070,20.194 10.339,19.506 11.787 C 18.971 12.911,18.958 12.954,19.062 13.267 C 19.163 13.570,19.422 13.844,19.683 13.925 C 19.796 13.959,21.231 14.001,23.406 14.032 C 26.702 14.080,26.958 14.091,27.139 14.184 C 27.383 14.309,27.579 14.519,27.741 14.827 C 27.863 15.061,27.867 15.107,27.884 16.639 C 27.903 18.448,27.882 18.599,27.402 20.000 C 26.729 21.966,25.525 23.969,24.241 25.256 C 23.576 25.922,23.099 26.283,22.475 26.590 C 21.588 27.027,21.024 27.070,19.794 26.795 C 18.629 26.534,15.318 25.493,12.893 24.627 L 12.000 24.308 12.000 19.439 L 12.000 14.569 12.573 14.154 C 13.915 13.183,15.053 12.212,16.187 11.070 C 17.934 9.309,18.864 7.816,19.636 5.529 L 19.813 5.004 20.022 5.031 C 20.137 5.047,20.293 5.105,20.369 5.161 M9.586 14.221 C 9.681 14.292,9.787 14.404,9.823 14.469 C 9.916 14.641,9.964 16.725,9.969 20.795 L 9.973 24.284 9.813 24.533 C 9.725 24.671,9.587 24.814,9.507 24.853 C 9.311 24.946,8.106 25.005,6.261 25.009 L 4.763 25.013 4.543 24.866 C 4.422 24.784,4.262 24.636,4.188 24.535 L 4.053 24.353 4.053 19.503 C 4.053 14.732,4.055 14.650,4.161 14.478 C 4.357 14.161,4.491 14.110,5.227 14.073 C 5.593 14.055,6.685 14.051,7.653 14.065 L 9.413 14.091 9.586 14.221 " fill="#1A1C1F" stroke="none" fill-rule="evenodd"></path></svg>