<svg width="28" height="28" viewBox="0 0 28 28" fill="none" xmlns="http://www.w3.org/2000/svg"><path d="M17.638 2.710 C 16.609 2.861,14.036 3.631,11.073 4.673 L 9.755 5.137 9.406 4.899 C 8.951 4.588,8.659 4.491,8.017 4.434 C 7.428 4.382,5.949 4.379,4.573 4.426 L 3.663 4.458 3.292 4.635 C 2.598 4.965,1.947 5.764,1.813 6.451 C 1.784 6.602,1.756 8.348,1.742 10.967 L 1.718 15.237 1.861 15.627 C 2.043 16.125,2.214 16.389,2.579 16.738 C 2.916 17.061,3.168 17.217,3.593 17.366 C 3.884 17.468,3.968 17.473,5.670 17.490 C 6.645 17.500,7.696 17.487,8.006 17.463 C 8.503 17.423,8.611 17.398,8.939 17.247 C 9.143 17.153,9.388 17.014,9.483 16.937 L 9.656 16.799 10.393 17.353 C 12.123 18.655,13.697 20.242,14.496 21.490 C 14.852 22.048,15.100 22.566,15.448 23.485 C 15.796 24.403,15.992 24.769,16.248 24.972 C 16.904 25.494,18.020 25.492,18.784 24.966 C 19.251 24.645,19.681 24.021,19.929 23.306 C 20.058 22.931,20.130 22.125,20.095 21.420 C 20.056 20.623,19.767 19.529,19.250 18.221 C 19.009 17.612,18.999 17.547,19.145 17.545 C 21.506 17.517,23.605 17.447,23.861 17.387 C 24.751 17.181,25.459 16.624,25.831 15.837 C 25.899 15.693,26.010 15.373,26.077 15.126 C 26.195 14.694,26.199 14.629,26.199 13.440 C 26.199 12.105,26.166 11.777,25.948 10.920 C 25.234 8.110,23.581 5.416,21.645 3.908 C 20.648 3.132,19.865 2.795,18.853 2.707 C 18.245 2.655,18.008 2.655,17.638 2.710 M19.296 4.567 C 20.383 4.956,21.689 6.193,22.687 7.777 C 23.438 8.970,24.143 10.680,24.357 11.832 C 24.433 12.243,24.467 13.753,24.411 14.280 C 24.344 14.912,24.253 15.180,24.030 15.403 C 23.700 15.733,23.736 15.729,20.263 15.769 C 16.774 15.809,17.071 15.773,16.781 16.184 C 16.562 16.493,16.586 16.660,16.958 17.453 C 17.665 18.957,18.002 19.806,18.201 20.582 C 18.278 20.884,18.293 21.098,18.292 21.848 C 18.291 22.653,18.281 22.772,18.197 22.959 C 18.003 23.386,17.740 23.613,17.439 23.613 C 17.349 23.613,17.317 23.576,17.269 23.415 C 17.125 22.932,16.722 21.914,16.487 21.443 C 15.557 19.579,13.541 17.429,11.079 15.678 L 10.562 15.310 10.531 13.831 C 10.514 13.017,10.500 11.086,10.500 9.540 L 10.500 6.729 10.698 6.659 C 13.406 5.704,14.619 5.307,16.217 4.849 C 17.528 4.473,17.760 4.431,18.433 4.451 C 18.881 4.463,19.082 4.491,19.296 4.567 M8.325 6.292 C 8.425 6.360,8.559 6.495,8.623 6.592 L 8.740 6.768 8.717 10.987 L 8.694 15.206 8.538 15.402 C 8.269 15.742,8.281 15.740,6.175 15.764 C 4.322 15.784,4.297 15.783,4.089 15.683 C 3.974 15.627,3.804 15.498,3.713 15.397 L 3.547 15.213 3.547 10.952 L 3.547 6.691 3.664 6.533 C 3.874 6.248,4.026 6.186,4.572 6.160 C 4.842 6.147,5.756 6.144,6.603 6.153 L 8.143 6.169 8.325 6.292 " fill="#1A1C1F" stroke="none" fill-rule="evenodd"></path></svg>