<svg width="12" height="12" viewBox="0 0 12 12" fill="none" xmlns="http://www.w3.org/2000/svg"><path d="M4.580 2.439 C 4.248 2.474,4.058 2.628,3.488 3.323 L 3.265 3.594 2.798 3.606 C 2.130 3.625,2.013 3.646,1.786 3.792 C 1.526 3.958,1.367 4.155,1.267 4.434 L 1.198 4.628 1.205 6.609 C 1.211 8.415,1.215 8.601,1.247 8.710 C 1.304 8.907,1.382 9.041,1.533 9.200 C 1.698 9.373,1.838 9.464,2.063 9.543 L 2.223 9.600 6.000 9.600 L 9.777 9.600 9.937 9.543 C 10.159 9.465,10.302 9.373,10.457 9.210 C 10.605 9.053,10.678 8.930,10.751 8.717 L 10.800 8.573 10.800 6.600 L 10.800 4.627 10.751 4.483 C 10.724 4.404,10.677 4.293,10.646 4.236 C 10.531 4.022,10.262 3.788,10.005 3.678 C 9.899 3.632,9.508 3.601,9.038 3.600 L 8.746 3.600 8.579 3.395 C 7.966 2.641,7.764 2.477,7.403 2.439 C 7.206 2.418,4.778 2.419,4.580 2.439 M6.261 5.140 C 6.424 5.171,6.651 5.293,6.793 5.426 C 7.256 5.859,7.320 6.518,6.947 7.013 C 6.770 7.247,6.505 7.410,6.202 7.471 C 6.020 7.508,5.891 7.502,5.693 7.450 C 5.476 7.393,5.360 7.324,5.179 7.142 C 4.909 6.870,4.820 6.658,4.820 6.291 C 4.821 5.974,4.923 5.721,5.146 5.486 C 5.262 5.362,5.436 5.248,5.620 5.174 C 5.730 5.129,5.781 5.121,5.952 5.121 C 6.064 5.120,6.203 5.129,6.261 5.140 " fill="#1A1C1F" stroke="none" fill-rule="evenodd"></path></svg>