<svg width="16" height="16" viewBox="0 0 16 16" fill="none" xmlns="http://www.w3.org/2000/svg"><path d="M6.587 3.225 C 6.027 3.247,5.939 3.265,5.640 3.423 C 5.399 3.550,5.153 3.801,4.757 4.325 L 4.398 4.800 4.126 4.800 C 3.617 4.801,2.843 4.851,2.705 4.892 C 2.548 4.939,2.291 5.098,2.122 5.254 C 1.915 5.445,1.785 5.639,1.691 5.900 L 1.601 6.147 1.600 8.800 L 1.600 11.453 1.678 11.662 C 1.879 12.199,2.244 12.557,2.769 12.732 L 2.974 12.800 8.005 12.800 L 13.036 12.800 13.249 12.725 C 13.366 12.683,13.530 12.608,13.614 12.558 C 13.822 12.432,14.100 12.133,14.217 11.907 C 14.417 11.519,14.404 11.745,14.393 8.821 C 14.382 5.918,14.389 6.041,14.206 5.696 C 14.037 5.378,13.615 5.012,13.279 4.893 C 13.133 4.841,12.611 4.802,12.035 4.801 L 11.603 4.800 11.275 4.367 C 10.842 3.794,10.558 3.510,10.289 3.378 C 10.177 3.323,10.015 3.266,9.929 3.252 C 9.729 3.218,7.269 3.199,6.587 3.225 M10.200 5.600 L 10.801 6.400 11.800 6.400 L 12.800 6.400 12.800 8.800 L 12.800 11.200 8.000 11.200 L 3.200 11.200 3.200 8.800 L 3.200 6.400 4.200 6.400 L 5.199 6.400 5.800 5.600 L 6.401 4.800 8.000 4.800 L 9.599 4.800 10.200 5.600 M7.518 6.888 C 7.262 6.975,7.058 7.109,6.852 7.326 C 6.549 7.644,6.417 7.970,6.416 8.400 C 6.416 8.666,6.478 8.933,6.593 9.160 C 6.676 9.322,7.116 9.742,7.290 9.824 C 7.469 9.909,7.837 10.000,8.000 10.000 C 8.163 10.000,8.531 9.909,8.710 9.824 C 8.884 9.742,9.325 9.322,9.407 9.160 C 9.570 8.838,9.631 8.428,9.563 8.107 C 9.494 7.782,9.360 7.540,9.109 7.293 C 8.765 6.953,8.452 6.826,7.961 6.827 C 7.755 6.828,7.653 6.842,7.518 6.888 " fill="#1A1C1F" stroke="none" fill-rule="evenodd"></path></svg>