<svg width="32" height="32" viewBox="0 0 32 32" fill="none" xmlns="http://www.w3.org/2000/svg"><path d="M13.147 6.079 C 12.041 6.112,12.022 6.114,11.680 6.275 C 11.149 6.524,10.768 6.836,9.618 7.962 L 8.560 8.997 6.550 9.032 C 5.445 9.051,4.425 9.091,4.284 9.122 C 3.969 9.190,3.439 9.457,3.134 9.702 C 2.663 10.079,2.309 10.609,2.081 11.277 C 1.975 11.588,1.973 11.708,1.973 17.535 L 1.973 23.476 2.132 23.871 C 2.515 24.829,3.092 25.428,4.013 25.824 L 4.400 25.991 12.000 26.012 C 16.180 26.024,21.424 26.012,23.653 25.985 C 27.633 25.938,27.712 25.935,27.990 25.821 C 28.399 25.654,28.786 25.391,29.109 25.059 C 29.496 24.661,29.678 24.370,29.866 23.851 L 30.027 23.408 30.027 17.515 L 30.027 11.623 29.865 11.204 C 29.776 10.973,29.612 10.644,29.501 10.472 C 29.096 9.849,28.337 9.286,27.676 9.118 C 27.535 9.082,26.638 9.047,25.440 9.029 L 23.440 9.000 22.436 8.018 C 21.225 6.833,20.828 6.499,20.375 6.282 L 20.029 6.116 18.748 6.075 C 17.300 6.028,14.814 6.030,13.147 6.079 M19.708 8.203 C 19.795 8.271,20.462 8.895,21.191 9.590 C 21.919 10.285,22.553 10.875,22.600 10.901 C 22.648 10.928,23.670 10.969,24.874 10.993 C 26.077 11.017,27.134 11.052,27.224 11.071 C 27.473 11.124,27.668 11.257,27.822 11.480 L 27.962 11.682 27.989 17.410 L 28.015 23.138 27.873 23.381 C 27.794 23.515,27.643 23.709,27.537 23.812 L 27.344 24.000 16.053 24.000 L 4.763 24.000 4.543 23.852 C 4.422 23.771,4.262 23.622,4.188 23.522 L 4.053 23.339 4.054 17.523 L 4.055 11.707 4.174 11.496 C 4.388 11.119,4.509 11.083,5.725 11.035 C 6.316 11.012,7.384 10.991,8.099 10.990 L 9.397 10.987 10.839 9.573 C 11.807 8.624,12.335 8.143,12.447 8.111 C 12.542 8.083,14.108 8.066,16.081 8.071 L 19.549 8.080 19.708 8.203 M15.114 12.104 C 14.445 12.208,13.457 12.673,12.826 13.181 C 10.501 15.051,10.413 18.665,12.644 20.674 C 13.229 21.201,13.876 21.561,14.651 21.792 C 15.287 21.982,16.312 22.028,16.964 21.896 C 18.453 21.594,19.792 20.561,20.493 19.173 C 20.753 18.658,21.013 17.551,21.013 16.954 C 21.014 16.064,20.593 14.823,20.039 14.080 C 19.389 13.209,18.195 12.398,17.253 12.187 C 16.861 12.100,15.487 12.046,15.114 12.104 M6.933 13.060 C 6.551 13.104,6.276 13.278,6.137 13.566 C 5.918 14.017,6.054 14.542,6.458 14.810 C 6.672 14.951,6.725 14.961,7.358 14.978 C 7.771 14.990,8.122 14.972,8.268 14.933 C 8.554 14.856,8.808 14.603,8.936 14.266 C 9.016 14.058,9.020 13.991,8.963 13.798 C 8.875 13.502,8.666 13.232,8.460 13.147 C 8.259 13.066,7.340 13.013,6.933 13.060 M17.244 14.310 C 18.435 14.899,19.109 16.126,18.939 17.392 C 18.815 18.313,18.155 19.237,17.318 19.661 C 16.983 19.831,16.322 20.000,15.994 20.000 C 14.627 20.000,13.296 18.844,13.057 17.450 C 12.827 16.108,13.719 14.654,15.066 14.173 C 15.284 14.095,15.471 14.080,16.084 14.093 C 16.832 14.108,16.835 14.108,17.244 14.310 " fill="#1A1C1F" stroke="none" fill-rule="evenodd"></path></svg>