<svg width="20" height="20" viewBox="0 0 20 20" fill="none" xmlns="http://www.w3.org/2000/svg"><path d="M7.633 4.066 C 7.081 4.124,6.763 4.381,5.813 5.538 L 5.442 5.989 4.646 6.010 C 3.690 6.035,3.498 6.064,3.149 6.229 C 2.670 6.457,2.310 6.860,2.101 7.402 L 2.000 7.665 2.000 10.983 C 2.000 14.259,2.001 14.305,2.070 14.509 C 2.192 14.876,2.335 15.104,2.615 15.385 C 2.896 15.665,3.124 15.808,3.491 15.930 C 3.698 16.000,3.700 16.000,10.000 16.000 C 16.300 16.000,16.302 16.000,16.509 15.930 C 16.876 15.808,17.104 15.665,17.385 15.385 C 17.665 15.104,17.808 14.876,17.930 14.509 C 17.999 14.305,18.000 14.259,18.000 11.007 L 18.000 7.712 17.917 7.468 C 17.722 6.895,17.359 6.474,16.828 6.208 C 16.549 6.067,16.540 6.066,16.048 6.034 C 15.774 6.016,15.331 6.001,15.063 6.001 L 14.576 6.000 14.298 5.658 C 13.823 5.074,13.399 4.603,13.204 4.443 C 12.935 4.223,12.645 4.096,12.338 4.064 C 12.032 4.032,7.942 4.033,7.633 4.066 M10.518 8.585 C 10.785 8.655,11.091 8.831,11.331 9.053 C 11.973 9.648,12.163 10.563,11.798 11.308 C 11.495 11.925,11.000 12.316,10.350 12.450 C 10.022 12.518,9.720 12.496,9.367 12.379 C 9.038 12.269,8.853 12.147,8.577 11.856 C 8.185 11.442,8.033 11.063,8.033 10.499 C 8.033 9.656,8.526 8.963,9.367 8.623 C 9.554 8.547,9.632 8.535,9.951 8.534 C 10.179 8.534,10.395 8.553,10.518 8.585 " fill="#1A1C1F" stroke="none" fill-rule="evenodd"></path></svg>