<svg width="14" height="14" viewBox="0 0 14 14" fill="none" xmlns="http://www.w3.org/2000/svg"><path d="M5.775 2.822 C 5.272 2.841,5.199 2.856,4.935 2.995 C 4.724 3.106,4.509 3.326,4.162 3.785 L 3.848 4.200 3.610 4.200 C 3.158 4.201,2.488 4.245,2.364 4.282 C 2.125 4.353,1.767 4.641,1.595 4.900 C 1.565 4.946,1.509 5.077,1.470 5.191 L 1.400 5.399 1.400 7.700 C 1.400 10.253,1.390 10.086,1.557 10.418 C 1.615 10.533,1.696 10.638,1.829 10.771 C 2.026 10.968,2.177 11.061,2.446 11.152 C 2.588 11.200,2.607 11.200,7.000 11.200 C 11.393 11.200,11.412 11.200,11.554 11.152 C 12.042 10.987,12.405 10.621,12.564 10.134 C 12.600 10.023,12.602 9.821,12.594 7.719 C 12.584 5.180,12.590 5.288,12.431 4.984 C 12.320 4.771,12.027 4.489,11.795 4.370 C 11.692 4.318,11.551 4.262,11.480 4.247 C 11.409 4.232,11.081 4.213,10.750 4.206 L 10.147 4.193 9.863 3.818 C 9.486 3.320,9.238 3.071,9.003 2.956 C 8.905 2.908,8.763 2.858,8.688 2.845 C 8.513 2.816,6.386 2.799,5.775 2.822 M8.925 4.900 L 9.451 5.600 10.325 5.600 L 11.200 5.600 11.200 7.700 L 11.200 9.800 7.000 9.800 L 2.800 9.800 2.800 7.700 L 2.800 5.600 3.675 5.600 L 4.549 5.600 5.075 4.900 L 5.601 4.200 7.000 4.200 L 8.399 4.200 8.925 4.900 M6.825 5.977 C 6.512 6.006,6.232 6.155,5.971 6.433 C 5.744 6.675,5.640 6.920,5.608 7.292 C 5.597 7.418,5.605 7.502,5.643 7.651 C 5.725 7.973,5.787 8.082,6.027 8.319 C 6.269 8.558,6.395 8.630,6.701 8.703 C 6.945 8.762,7.055 8.762,7.299 8.703 C 7.602 8.631,7.723 8.562,7.966 8.322 C 8.198 8.094,8.250 8.014,8.328 7.759 C 8.483 7.258,8.358 6.767,7.982 6.391 C 7.885 6.294,7.756 6.186,7.696 6.151 C 7.447 6.007,7.149 5.947,6.825 5.977 " fill="#1A1C1F" stroke="none" fill-rule="evenodd"></path></svg>