<svg width="14" height="14" viewBox="0 0 14 14" fill="none" xmlns="http://www.w3.org/2000/svg"><path d="M5.339 2.846 C 5.237 2.856,5.133 2.887,5.036 2.935 C 4.751 3.077,4.605 3.220,4.010 3.947 L 3.809 4.193 3.252 4.207 C 2.579 4.224,2.448 4.243,2.202 4.363 C 1.872 4.525,1.628 4.791,1.491 5.140 L 1.415 5.332 1.405 7.656 C 1.394 10.248,1.384 10.073,1.557 10.417 C 1.615 10.533,1.695 10.637,1.829 10.771 C 2.026 10.968,2.177 11.061,2.446 11.152 C 2.588 11.200,2.607 11.200,7.000 11.200 C 11.393 11.200,11.412 11.200,11.554 11.152 C 11.800 11.069,11.965 10.971,12.140 10.805 C 12.336 10.619,12.442 10.453,12.534 10.193 L 12.600 10.007 12.600 7.702 L 12.600 5.398 12.543 5.230 C 12.461 4.990,12.374 4.841,12.218 4.673 C 12.074 4.518,11.817 4.343,11.643 4.281 C 11.522 4.238,11.020 4.202,10.532 4.201 L 10.203 4.200 10.009 3.961 C 9.440 3.262,9.231 3.059,8.937 2.918 L 8.762 2.835 7.128 2.832 C 6.230 2.831,5.425 2.837,5.339 2.846 M7.361 6.009 C 7.580 6.066,7.766 6.178,7.959 6.369 C 8.245 6.651,8.384 6.978,8.384 7.362 C 8.384 7.746,8.263 8.024,7.969 8.319 C 7.754 8.533,7.579 8.636,7.313 8.704 C 7.086 8.762,6.946 8.762,6.701 8.703 C 6.395 8.630,6.267 8.558,6.041 8.332 C 5.729 8.022,5.623 7.769,5.624 7.339 C 5.624 6.970,5.743 6.675,6.004 6.400 C 6.139 6.256,6.342 6.123,6.557 6.036 C 6.688 5.983,6.743 5.975,6.966 5.974 C 7.124 5.974,7.276 5.987,7.361 6.009 " fill="#1A1C1F" stroke="none" fill-rule="evenodd"></path></svg>