<svg width="12" height="12" viewBox="0 0 12 12" fill="none" xmlns="http://www.w3.org/2000/svg"><path d="M4.940 2.419 C 4.520 2.435,4.455 2.449,4.230 2.567 C 4.049 2.662,3.865 2.851,3.567 3.244 L 3.298 3.600 3.094 3.600 C 2.707 3.601,2.133 3.638,2.026 3.670 C 1.822 3.731,1.513 3.980,1.368 4.200 C 1.343 4.238,1.294 4.349,1.260 4.447 L 1.198 4.623 1.205 6.607 C 1.211 8.415,1.215 8.601,1.247 8.710 C 1.304 8.907,1.382 9.041,1.533 9.200 C 1.698 9.373,1.838 9.464,2.063 9.543 L 2.223 9.600 5.998 9.600 L 9.773 9.600 9.917 9.551 C 10.130 9.478,10.253 9.405,10.410 9.257 C 10.573 9.102,10.665 8.959,10.743 8.737 L 10.800 8.577 10.798 7.064 C 10.797 6.231,10.790 5.316,10.783 5.030 L 10.770 4.510 10.687 4.338 C 10.547 4.046,10.238 3.766,9.950 3.670 C 9.818 3.626,9.491 3.601,9.056 3.600 L 8.702 3.600 8.456 3.275 C 8.131 2.846,7.919 2.633,7.717 2.534 C 7.633 2.492,7.511 2.450,7.447 2.439 C 7.297 2.414,5.451 2.399,4.940 2.419 M7.650 4.200 L 8.101 4.800 8.850 4.800 L 9.600 4.800 9.600 6.600 L 9.600 8.400 6.000 8.400 L 2.400 8.400 2.400 6.600 L 2.400 4.800 3.150 4.800 L 3.899 4.800 4.350 4.200 L 4.801 3.600 6.000 3.600 L 7.199 3.600 7.650 4.200 M5.828 5.120 C 5.233 5.207,4.761 5.787,4.808 6.372 C 4.822 6.553,4.901 6.804,4.981 6.925 C 5.071 7.061,5.336 7.302,5.465 7.365 C 5.599 7.430,5.874 7.500,6.000 7.500 C 6.122 7.500,6.398 7.431,6.532 7.368 C 6.663 7.306,6.993 6.991,7.055 6.870 C 7.187 6.611,7.227 6.243,7.152 5.990 C 7.024 5.560,6.657 5.225,6.210 5.130 C 6.060 5.098,5.988 5.097,5.828 5.120 " fill="#1A1C1F" stroke="none" fill-rule="evenodd"></path></svg>