<svg width="24" height="24" viewBox="0 0 24 24" fill="none" xmlns="http://www.w3.org/2000/svg"><path d="M9.013 4.619 C 8.375 4.761,7.921 5.107,6.941 6.198 L 6.507 6.680 5.823 6.682 C 4.622 6.686,3.891 6.738,3.640 6.838 C 2.921 7.126,2.371 7.704,2.115 8.440 L 2.024 8.700 2.008 13.048 C 1.993 17.093,1.997 17.411,2.062 17.608 C 2.236 18.141,2.583 18.649,2.972 18.944 C 3.284 19.180,3.722 19.391,4.004 19.441 C 4.345 19.502,16.882 19.539,18.580 19.484 C 19.350 19.459,20.061 19.420,20.160 19.397 C 20.476 19.323,20.837 19.115,21.141 18.831 C 21.472 18.522,21.709 18.174,21.882 17.741 L 22.000 17.447 21.999 13.033 L 21.997 8.620 21.883 8.330 C 21.725 7.931,21.561 7.688,21.247 7.392 C 20.957 7.119,20.646 6.936,20.246 6.802 C 20.017 6.725,19.871 6.714,18.770 6.692 L 17.547 6.667 16.724 5.842 C 15.852 4.970,15.575 4.747,15.232 4.647 C 14.929 4.559,9.394 4.533,9.013 4.619 M15.617 7.538 C 16.169 8.098,16.674 8.578,16.740 8.604 C 16.823 8.638,17.295 8.659,18.286 8.671 L 19.713 8.689 19.837 8.817 L 19.961 8.945 19.951 13.092 L 19.940 17.238 19.829 17.349 L 19.718 17.460 18.609 17.486 C 17.999 17.500,15.025 17.512,12.000 17.512 C 8.975 17.512,5.999 17.500,5.387 17.486 L 4.273 17.460 4.157 17.329 L 4.040 17.199 4.040 13.067 L 4.040 8.935 4.154 8.825 L 4.269 8.716 5.727 8.680 C 6.529 8.660,7.231 8.626,7.286 8.605 C 7.429 8.551,7.960 8.039,8.698 7.243 L 9.330 6.562 10.035 6.550 C 10.423 6.543,11.612 6.534,12.677 6.529 L 14.614 6.520 15.617 7.538 M11.286 9.085 C 10.736 9.176,10.047 9.556,9.556 10.040 C 9.055 10.532,8.802 10.969,8.616 11.663 C 8.514 12.042,8.511 12.951,8.611 13.313 C 8.788 13.959,9.069 14.468,9.494 14.913 C 10.846 16.324,13.018 16.354,14.421 14.980 C 14.897 14.514,15.132 14.134,15.340 13.496 C 15.538 12.891,15.514 12.007,15.283 11.332 C 14.977 10.437,14.148 9.593,13.229 9.238 C 12.957 9.133,12.814 9.106,12.400 9.077 C 11.801 9.036,11.570 9.038,11.286 9.085 M12.646 11.174 C 12.938 11.313,13.147 11.520,13.310 11.826 C 13.433 12.057,13.440 12.095,13.440 12.486 C 13.439 12.841,13.425 12.930,13.341 13.111 C 13.210 13.392,12.891 13.722,12.623 13.853 C 12.430 13.948,12.358 13.960,12.000 13.960 C 11.642 13.960,11.570 13.948,11.377 13.853 C 11.109 13.722,10.790 13.392,10.659 13.111 C 10.575 12.930,10.561 12.841,10.560 12.489 C 10.560 12.126,10.572 12.053,10.663 11.875 C 10.782 11.639,11.032 11.356,11.228 11.235 C 11.470 11.085,11.677 11.040,12.060 11.053 C 12.353 11.063,12.462 11.085,12.646 11.174 " fill="#1A1C1F" stroke="none" fill-rule="evenodd"></path></svg>