<svg width="20" height="20" viewBox="0 0 20 20" fill="none" xmlns="http://www.w3.org/2000/svg"><path d="M8.250 4.032 C 7.531 4.059,7.427 4.080,7.051 4.278 C 6.749 4.437,6.441 4.752,5.946 5.407 L 5.497 6.000 5.174 6.001 C 4.522 6.002,3.551 6.064,3.377 6.117 C 3.036 6.218,2.524 6.631,2.279 7.001 C 2.236 7.066,2.155 7.253,2.100 7.416 L 2.000 7.713 2.000 11.007 C 2.000 14.259,2.001 14.305,2.070 14.509 C 2.192 14.876,2.335 15.104,2.615 15.385 C 2.896 15.665,3.124 15.808,3.491 15.930 C 3.698 16.000,3.700 16.000,10.000 16.000 C 16.300 16.000,16.302 16.000,16.509 15.930 C 16.873 15.808,17.104 15.665,17.387 15.385 C 17.604 15.169,17.684 15.061,17.793 14.833 C 17.868 14.678,17.947 14.477,17.970 14.388 C 18.032 14.136,17.991 7.707,17.925 7.500 C 17.739 6.913,17.170 6.318,16.602 6.117 C 16.399 6.046,15.824 6.001,15.110 6.000 L 14.503 6.000 14.094 5.458 C 13.556 4.746,13.200 4.388,12.861 4.222 C 12.720 4.153,12.525 4.083,12.428 4.066 C 12.193 4.025,9.098 3.999,8.250 4.032 M12.750 7.000 L 13.501 8.000 14.750 8.000 L 16.000 8.000 16.000 11.000 L 16.000 14.000 10.000 14.000 L 4.000 14.000 4.000 11.000 L 4.000 8.000 5.250 8.000 L 6.499 8.000 7.250 7.000 L 8.001 6.000 10.000 6.000 L 11.999 6.000 12.750 7.000 M9.750 8.538 C 9.009 8.607,8.310 9.212,8.080 9.985 C 8.008 10.227,8.000 10.709,8.064 10.967 C 8.159 11.353,8.282 11.560,8.609 11.883 C 8.955 12.225,9.135 12.328,9.573 12.433 C 9.921 12.517,10.079 12.517,10.427 12.433 C 10.861 12.329,11.032 12.231,11.386 11.884 C 11.630 11.643,11.722 11.526,11.798 11.360 C 11.905 11.124,12.000 10.714,11.999 10.493 C 11.998 10.053,11.781 9.525,11.462 9.184 C 10.995 8.684,10.439 8.475,9.750 8.538 " fill="#1A1C1F" stroke="none" fill-rule="evenodd"></path></svg>