<svg width="28" height="28" viewBox="0 0 28 28" fill="none" xmlns="http://www.w3.org/2000/svg"><path d="M11.503 5.319 C 10.536 5.348,10.519 5.350,10.220 5.491 C 9.754 5.709,9.421 5.982,8.410 6.973 L 7.479 7.887 6.388 7.890 C 5.788 7.892,4.940 7.909,4.503 7.928 C 3.767 7.961,3.686 7.973,3.381 8.103 C 2.637 8.420,2.221 8.880,1.848 9.796 L 1.727 10.096 1.727 15.319 L 1.727 20.541 1.865 20.887 C 2.201 21.726,2.706 22.250,3.511 22.596 L 3.850 22.742 10.453 22.761 C 14.085 22.771,18.674 22.760,20.650 22.737 C 24.153 22.696,24.250 22.693,24.496 22.596 C 24.998 22.398,25.517 21.970,25.835 21.492 C 25.921 21.362,26.055 21.082,26.133 20.870 L 26.273 20.484 26.273 15.327 L 26.273 10.170 26.132 9.803 C 26.054 9.602,25.911 9.314,25.813 9.163 C 25.457 8.614,24.801 8.127,24.220 7.979 C 24.091 7.946,23.339 7.916,22.260 7.900 L 20.510 7.876 19.644 7.026 C 18.599 6.002,18.226 5.687,17.828 5.497 L 17.526 5.352 16.405 5.316 C 15.137 5.274,12.962 5.276,11.503 5.319 M17.244 7.178 C 17.321 7.237,17.905 7.783,18.542 8.391 C 19.179 8.999,19.734 9.516,19.776 9.539 C 19.817 9.562,20.710 9.598,21.761 9.618 C 22.811 9.638,23.737 9.669,23.817 9.686 C 24.038 9.732,24.260 9.885,24.347 10.050 C 24.460 10.265,24.492 11.570,24.496 16.289 L 24.500 20.282 24.358 20.505 C 24.281 20.628,24.150 20.789,24.068 20.864 L 23.919 21.000 13.997 21.000 L 4.074 21.000 3.905 20.836 C 3.812 20.746,3.680 20.576,3.612 20.459 L 3.487 20.247 3.509 15.238 C 3.529 10.502,3.535 10.221,3.615 10.099 C 3.752 9.891,3.921 9.757,4.115 9.705 C 4.214 9.678,5.163 9.639,6.222 9.618 C 7.282 9.598,8.183 9.562,8.225 9.539 C 8.267 9.515,8.848 8.971,9.517 8.330 C 10.237 7.639,10.795 7.140,10.885 7.107 C 10.999 7.065,11.799 7.053,14.071 7.060 L 17.106 7.070 17.244 7.178 M13.153 10.594 C 12.509 10.695,11.556 11.204,10.988 11.751 C 10.095 12.612,9.641 13.679,9.645 14.910 C 9.649 16.035,10.058 17.044,10.844 17.862 C 11.663 18.715,12.627 19.159,13.778 19.214 C 15.121 19.277,16.261 18.815,17.177 17.837 C 18.591 16.327,18.757 14.129,17.587 12.404 C 17.060 11.628,15.957 10.857,15.097 10.664 C 14.743 10.584,13.501 10.540,13.153 10.594 M5.955 11.436 C 5.574 11.500,5.273 11.863,5.273 12.257 C 5.273 12.513,5.441 12.819,5.659 12.964 C 5.826 13.074,5.902 13.090,6.331 13.106 C 6.951 13.129,7.283 13.086,7.476 12.959 C 7.684 12.821,7.901 12.396,7.869 12.188 C 7.837 11.981,7.579 11.585,7.426 11.508 C 7.275 11.432,6.270 11.382,5.955 11.436 M15.088 12.521 C 16.393 13.166,16.955 14.673,16.360 15.933 C 16.108 16.464,15.642 16.956,15.153 17.203 C 14.860 17.352,14.282 17.500,13.995 17.500 C 12.799 17.500,11.634 16.489,11.425 15.269 C 11.225 14.103,11.990 12.846,13.163 12.412 C 13.381 12.331,13.510 12.320,14.073 12.331 C 14.728 12.344,14.731 12.345,15.088 12.521 " fill="#1A1C1F" stroke="none" fill-rule="evenodd"></path></svg>