<svg width="16" height="16" viewBox="0 0 16 16" fill="none" xmlns="http://www.w3.org/2000/svg"><path d="M6.101 3.252 C 5.684 3.295,5.382 3.533,4.726 4.338 C 4.459 4.665,4.357 4.772,4.301 4.783 C 4.260 4.791,3.969 4.805,3.653 4.814 C 3.338 4.823,2.998 4.842,2.897 4.856 C 2.559 4.902,2.127 5.184,1.881 5.518 C 1.829 5.590,1.744 5.760,1.693 5.897 L 1.600 6.147 1.600 8.800 L 1.600 11.453 1.678 11.662 C 1.879 12.199,2.244 12.557,2.769 12.732 L 2.974 12.800 8.002 12.800 L 13.031 12.800 13.222 12.735 C 13.507 12.638,13.671 12.540,13.879 12.343 C 14.094 12.139,14.211 11.960,14.322 11.662 L 14.400 11.453 14.400 8.800 L 14.400 6.147 14.323 5.941 C 14.222 5.672,14.127 5.513,13.962 5.336 C 13.816 5.180,13.545 4.992,13.344 4.905 C 13.198 4.843,12.686 4.801,12.051 4.801 L 11.663 4.800 11.306 4.367 C 10.601 3.511,10.321 3.295,9.860 3.251 C 9.593 3.226,6.353 3.227,6.101 3.252 M8.412 6.867 C 8.635 6.926,8.854 7.050,9.051 7.231 C 9.271 7.432,9.404 7.635,9.503 7.919 C 9.697 8.479,9.548 9.065,9.095 9.523 C 8.663 9.958,8.077 10.097,7.493 9.903 C 7.230 9.815,7.082 9.718,6.862 9.485 C 6.545 9.151,6.426 8.851,6.427 8.388 C 6.428 7.966,6.564 7.629,6.861 7.314 C 7.017 7.150,7.248 6.998,7.493 6.898 C 7.644 6.838,7.706 6.828,7.961 6.827 C 8.142 6.827,8.316 6.842,8.412 6.867 " fill="#1A1C1F" stroke="none" fill-rule="evenodd"></path></svg>