<svg width="28" height="28" viewBox="0 0 28 28" fill="none" xmlns="http://www.w3.org/2000/svg"><path d="M11.597 5.322 C 11.032 5.339,10.506 5.375,10.429 5.401 C 9.925 5.568,9.515 5.889,8.348 7.035 L 7.480 7.887 6.388 7.890 C 5.788 7.892,4.940 7.909,4.503 7.928 C 3.767 7.961,3.686 7.973,3.381 8.103 C 2.637 8.420,2.221 8.880,1.848 9.796 L 1.727 10.096 1.727 15.319 L 1.727 20.541 1.865 20.887 C 2.201 21.726,2.706 22.250,3.511 22.596 L 3.850 22.742 10.453 22.761 C 14.085 22.771,18.674 22.760,20.650 22.737 C 24.153 22.696,24.250 22.693,24.496 22.596 C 24.998 22.398,25.517 21.970,25.835 21.492 C 25.921 21.362,26.055 21.082,26.133 20.870 L 26.273 20.484 26.270 16.157 C 26.269 13.777,26.251 11.387,26.231 10.847 L 26.196 9.863 26.013 9.525 C 25.668 8.887,25.229 8.449,24.617 8.133 C 24.290 7.965,24.290 7.965,23.473 7.929 C 23.024 7.909,22.176 7.891,21.588 7.890 L 20.520 7.887 19.649 7.032 C 18.600 6.002,18.226 5.687,17.828 5.497 L 17.526 5.352 16.405 5.316 C 15.113 5.274,13.080 5.276,11.597 5.322 M15.126 10.665 C 15.764 10.830,16.510 11.258,17.004 11.743 C 18.041 12.762,18.459 13.964,18.296 15.464 C 18.193 16.416,17.739 17.313,17.004 18.016 C 16.209 18.776,15.305 19.163,14.210 19.213 C 13.549 19.243,13.108 19.184,12.558 18.992 C 11.411 18.592,10.388 17.595,9.925 16.425 C 9.729 15.928,9.694 15.697,9.690 14.887 C 9.687 14.228,9.701 14.065,9.789 13.759 C 10.262 12.101,11.702 10.792,13.277 10.589 C 13.710 10.533,14.787 10.577,15.126 10.665 M7.473 11.552 C 8.001 11.890,7.923 12.771,7.342 13.028 C 7.156 13.110,7.051 13.120,6.493 13.106 C 5.954 13.092,5.832 13.075,5.693 12.994 C 5.222 12.717,5.151 12.080,5.545 11.659 C 5.759 11.430,5.961 11.390,6.743 11.421 C 7.226 11.441,7.327 11.459,7.473 11.552 M13.487 12.325 C 12.774 12.446,11.974 13.077,11.639 13.784 C 11.435 14.214,11.366 14.688,11.431 15.213 C 11.507 15.816,11.694 16.215,12.107 16.655 C 13.438 18.074,15.834 17.560,16.467 15.720 C 16.675 15.116,16.631 14.356,16.355 13.772 C 16.163 13.367,15.620 12.795,15.232 12.588 C 14.790 12.353,14.011 12.236,13.487 12.325 " fill="#1A1C1F" stroke="none" fill-rule="evenodd"></path></svg>