<svg width="14" height="14" viewBox="0 0 14 14" fill="none" xmlns="http://www.w3.org/2000/svg"><path d="M4.492 1.449 C 4.159 1.497,3.792 1.775,3.630 2.105 C 3.518 2.331,3.502 2.498,3.501 3.469 L 3.500 4.195 3.354 4.211 C 3.105 4.238,2.826 4.313,2.624 4.408 C 2.044 4.679,1.680 5.115,1.450 5.811 L 1.399 5.964 1.406 8.436 L 1.412 10.908 1.511 11.165 C 1.672 11.578,1.863 11.849,2.182 12.117 C 2.390 12.292,2.569 12.391,2.847 12.486 C 3.051 12.556,3.097 12.563,3.429 12.572 C 3.663 12.578,3.835 12.572,3.919 12.553 C 4.263 12.478,4.652 12.271,4.930 12.017 L 5.055 11.903 8.355 11.894 C 11.831 11.884,11.781 11.886,11.969 11.784 C 12.071 11.729,12.278 11.520,12.370 11.378 C 12.418 11.303,12.490 11.159,12.529 11.058 L 12.600 10.875 12.600 8.752 L 12.600 6.629 12.527 6.428 C 12.319 5.853,11.944 5.600,11.300 5.600 L 11.200 5.600 11.200 4.463 L 11.200 3.325 11.131 3.206 C 11.006 2.988,9.644 1.606,9.418 1.468 C 9.347 1.425,9.266 1.424,6.988 1.426 C 5.692 1.428,4.569 1.438,4.492 1.449 M8.408 3.226 C 8.416 3.460,8.433 3.689,8.446 3.734 C 8.478 3.846,8.680 4.068,8.806 4.129 C 8.896 4.173,8.965 4.181,9.355 4.193 L 9.800 4.207 9.800 4.904 L 9.800 5.600 7.634 5.600 L 5.469 5.600 5.418 5.478 C 5.350 5.316,5.157 5.023,5.015 4.867 L 4.900 4.742 4.900 3.771 L 4.900 2.800 6.646 2.800 L 8.393 2.800 8.408 3.226 M3.740 5.660 C 3.862 5.702,4.033 5.842,4.107 5.963 L 4.158 6.045 4.171 8.360 L 4.184 10.675 4.122 10.797 C 4.010 11.017,3.848 11.138,3.616 11.175 C 3.496 11.194,3.326 11.176,3.214 11.133 C 3.115 11.094,2.942 10.922,2.879 10.798 L 2.822 10.686 2.829 8.382 L 2.835 6.078 2.886 5.985 C 2.958 5.851,3.100 5.722,3.233 5.670 C 3.375 5.615,3.594 5.611,3.740 5.660 M11.200 8.750 L 11.200 10.500 8.400 10.500 L 5.600 10.500 5.600 8.750 L 5.600 7.000 8.400 7.000 L 11.200 7.000 11.200 8.750 M7.077 8.118 C 6.940 8.182,6.780 8.336,6.718 8.465 C 6.563 8.787,6.735 9.236,7.070 9.387 C 7.214 9.452,7.463 9.452,7.607 9.387 C 7.836 9.283,8.015 9.051,8.042 8.825 C 8.072 8.573,7.904 8.271,7.665 8.146 C 7.507 8.063,7.223 8.050,7.077 8.118 M9.177 8.118 C 9.040 8.182,8.880 8.336,8.818 8.465 C 8.663 8.787,8.835 9.236,9.170 9.387 C 9.314 9.452,9.563 9.452,9.707 9.387 C 9.936 9.283,10.115 9.051,10.142 8.825 C 10.172 8.573,10.004 8.271,9.765 8.146 C 9.607 8.063,9.323 8.050,9.177 8.118 " fill="#1A1C1F" stroke="none" fill-rule="evenodd"></path></svg>