<svg width="24" height="24" viewBox="0 0 24 24" fill="none" xmlns="http://www.w3.org/2000/svg"><path d="M8.480 2.038 L 7.300 2.060 7.020 2.200 C 6.493 2.464,6.130 2.940,6.042 3.484 C 6.019 3.625,6.000 4.281,6.000 4.942 L 6.000 6.144 5.710 6.237 C 4.535 6.614,3.544 7.534,2.940 8.810 C 2.566 9.599,2.256 10.747,2.101 11.922 C 2.044 12.346,2.037 12.698,2.051 14.162 C 2.068 15.831,2.073 15.923,2.175 16.479 C 2.532 18.433,3.094 19.695,4.018 20.623 C 4.696 21.304,5.373 21.681,6.320 21.904 C 7.847 22.263,9.384 21.548,9.845 20.263 L 9.936 20.008 14.638 19.989 C 17.798 19.976,19.432 19.955,19.620 19.925 C 19.981 19.867,20.534 19.596,20.882 19.306 C 21.368 18.900,21.648 18.479,21.885 17.800 L 21.975 17.540 21.976 14.520 C 21.977 11.725,21.972 11.482,21.905 11.262 C 21.822 10.989,21.603 10.538,21.431 10.287 C 21.167 9.903,20.609 9.442,20.201 9.273 L 20.008 9.193 19.994 7.443 L 19.980 5.694 19.876 5.537 C 19.627 5.161,16.909 2.412,16.543 2.166 C 16.387 2.060,16.381 2.060,15.383 2.034 C 14.209 2.004,10.178 2.006,8.480 2.038 M15.014 5.110 C 15.028 5.720,15.051 6.270,15.065 6.331 C 15.101 6.492,15.412 6.819,15.610 6.904 C 15.758 6.968,15.925 6.979,16.890 6.992 L 18.000 7.007 18.000 8.003 L 18.000 9.000 14.006 9.000 L 10.011 9.000 9.989 8.570 C 9.949 7.824,9.759 7.330,9.339 6.885 C 9.065 6.594,8.585 6.291,8.210 6.172 L 8.000 6.105 8.000 5.053 L 8.000 4.000 11.494 4.000 L 14.988 4.000 15.014 5.110 M7.733 8.120 C 7.945 8.224,7.975 8.347,7.992 9.160 C 8.007 9.868,7.964 10.452,7.891 10.525 C 7.872 10.544,7.669 10.578,7.438 10.600 C 6.880 10.654,6.863 10.660,6.676 10.828 C 6.257 11.207,6.056 12.031,6.013 13.540 C 5.987 14.461,6.044 15.551,6.144 16.034 C 6.272 16.654,6.505 17.111,6.757 17.237 C 6.941 17.329,7.026 17.349,7.468 17.399 C 7.669 17.421,7.862 17.451,7.897 17.464 C 7.952 17.486,7.960 17.623,7.960 18.584 L 7.960 19.679 7.799 19.796 C 7.484 20.025,7.015 20.053,6.475 19.875 C 5.720 19.627,5.253 19.182,4.821 18.300 C 4.355 17.350,4.128 16.329,4.038 14.787 C 3.971 13.639,4.074 12.085,4.286 11.060 C 4.613 9.475,5.345 8.473,6.439 8.113 C 6.709 8.024,7.546 8.029,7.733 8.120 M16.960 11.034 L 19.300 11.060 19.478 11.160 C 19.576 11.215,19.714 11.336,19.784 11.428 C 19.896 11.575,19.916 11.638,19.939 11.928 C 19.953 12.111,19.960 13.403,19.953 14.800 C 19.939 17.612,19.956 17.436,19.673 17.717 C 19.399 17.989,19.739 17.971,14.630 17.992 L 10.000 18.010 10.000 17.755 C 10.000 17.615,9.964 17.352,9.920 17.170 C 9.738 16.409,9.359 15.959,8.574 15.572 C 8.113 15.345,8.102 15.337,8.068 15.180 C 8.013 14.921,8.050 12.704,8.111 12.631 C 8.139 12.598,8.273 12.530,8.411 12.480 C 8.970 12.279,9.473 11.832,9.750 11.292 L 9.900 11.000 12.260 11.004 C 13.558 11.006,15.673 11.020,16.960 11.034 M14.580 12.106 C 14.420 12.190,14.168 12.433,14.094 12.573 C 14.022 12.710,14.013 13.207,14.079 13.380 C 14.140 13.539,14.382 13.786,14.580 13.892 C 14.802 14.010,15.198 14.010,15.423 13.891 C 15.788 13.699,16.042 13.237,15.983 12.871 C 15.927 12.522,15.642 12.181,15.326 12.086 C 15.107 12.021,14.723 12.031,14.580 12.106 M17.580 12.106 C 17.420 12.190,17.168 12.433,17.094 12.573 C 17.022 12.710,17.013 13.207,17.079 13.380 C 17.140 13.539,17.382 13.786,17.580 13.892 C 17.802 14.010,18.198 14.010,18.423 13.891 C 18.788 13.699,19.042 13.237,18.983 12.871 C 18.927 12.522,18.642 12.181,18.326 12.086 C 18.107 12.021,17.723 12.031,17.580 12.106 M14.580 15.106 C 14.420 15.190,14.168 15.433,14.094 15.573 C 14.022 15.710,14.013 16.207,14.079 16.380 C 14.140 16.539,14.382 16.786,14.580 16.892 C 14.802 17.010,15.198 17.010,15.423 16.891 C 15.788 16.699,16.042 16.237,15.983 15.871 C 15.927 15.522,15.642 15.181,15.326 15.086 C 15.107 15.021,14.723 15.031,14.580 15.106 M17.580 15.106 C 17.420 15.190,17.168 15.433,17.094 15.573 C 17.022 15.710,17.013 16.207,17.079 16.380 C 17.140 16.539,17.382 16.786,17.580 16.892 C 17.802 17.010,18.198 17.010,18.423 16.891 C 18.788 16.699,19.042 16.237,18.983 15.871 C 18.927 15.522,18.642 15.181,18.326 15.086 C 18.107 15.021,17.723 15.031,17.580 15.106 " fill="#1A1C1F" stroke="none" fill-rule="evenodd"></path></svg>