<svg width="20" height="20" viewBox="0 0 20 20" fill="none" xmlns="http://www.w3.org/2000/svg"><path d="M6.433 2.067 C 6.209 2.098,5.995 2.189,5.737 2.364 C 5.486 2.535,5.325 2.723,5.178 3.021 C 5.027 3.327,5.003 3.586,5.001 4.970 L 5.000 5.990 4.708 6.030 C 4.260 6.092,4.046 6.155,3.683 6.334 C 2.928 6.705,2.421 7.308,2.103 8.212 L 1.999 8.508 2.008 12.046 L 2.017 15.583 2.159 15.950 C 2.388 16.539,2.661 16.927,3.118 17.310 C 3.415 17.560,3.670 17.702,4.067 17.838 C 4.358 17.937,4.424 17.947,4.899 17.960 C 5.232 17.969,5.479 17.960,5.599 17.933 C 6.090 17.825,6.645 17.531,7.043 17.167 L 7.222 17.004 11.919 16.990 C 16.767 16.976,16.826 16.974,17.080 16.843 C 17.237 16.762,17.532 16.468,17.671 16.255 C 17.741 16.147,17.843 15.942,17.899 15.798 L 18.000 15.535 18.000 12.503 L 18.000 9.470 17.896 9.183 C 17.712 8.675,17.422 8.333,17.017 8.147 C 16.853 8.072,16.426 8.000,16.143 8.000 L 16.000 8.000 16.000 6.365 L 16.000 4.730 15.887 4.553 C 15.665 4.206,13.762 2.285,13.455 2.097 C 13.353 2.036,13.244 2.034,9.983 2.038 C 8.132 2.040,6.534 2.053,6.433 2.067 M12.011 4.608 C 12.022 4.943,12.047 5.270,12.066 5.335 C 12.111 5.495,12.400 5.811,12.580 5.899 C 12.709 5.961,12.808 5.972,13.364 5.990 L 14.000 6.010 14.000 7.005 L 14.000 8.000 10.905 8.000 L 7.809 8.000 7.750 7.845 C 7.675 7.648,7.277 7.053,7.120 6.902 L 7.000 6.787 7.000 5.393 L 7.000 4.000 9.495 4.000 L 11.990 4.000 12.011 4.608 M5.346 8.091 C 5.532 8.158,5.761 8.346,5.868 8.520 L 5.941 8.637 5.959 11.944 L 5.977 15.250 5.902 15.396 C 5.708 15.777,5.401 15.973,5.000 15.973 C 4.602 15.973,4.292 15.777,4.102 15.405 L 4.032 15.267 4.041 11.975 L 4.050 8.683 4.122 8.550 C 4.354 8.121,4.880 7.924,5.346 8.091 M16.000 12.500 L 16.000 15.000 12.000 15.000 L 8.000 15.000 8.000 12.500 L 8.000 10.000 12.000 10.000 L 16.000 10.000 16.000 12.500 M10.207 11.562 C 9.616 11.770,9.347 12.397,9.618 12.933 C 9.933 13.554,10.773 13.665,11.231 13.145 C 11.683 12.631,11.524 11.901,10.900 11.621 C 10.639 11.504,10.424 11.486,10.207 11.562 M13.207 11.562 C 12.616 11.770,12.347 12.397,12.618 12.933 C 12.933 13.554,13.773 13.665,14.231 13.145 C 14.683 12.631,14.524 11.901,13.900 11.621 C 13.639 11.504,13.424 11.486,13.207 11.562 " fill="#1A1C1F" stroke="none" fill-rule="evenodd"></path></svg>