<svg width="12" height="12" viewBox="0 0 12 12" fill="none" xmlns="http://www.w3.org/2000/svg"><path d="M3.860 1.239 C 3.726 1.257,3.602 1.310,3.444 1.417 C 3.291 1.521,3.195 1.633,3.107 1.813 C 3.016 1.996,3.002 2.151,3.001 2.982 L 3.000 3.594 2.825 3.618 C 2.556 3.655,2.427 3.693,2.210 3.800 C 1.757 4.023,1.454 4.384,1.262 4.928 L 1.200 5.103 1.200 7.200 L 1.200 9.297 1.262 9.473 C 1.511 10.177,1.951 10.597,2.600 10.749 C 2.779 10.791,3.244 10.791,3.405 10.749 C 3.700 10.672,3.995 10.511,4.226 10.301 L 4.333 10.203 7.161 10.195 C 10.139 10.186,10.098 10.188,10.259 10.101 C 10.346 10.054,10.524 9.874,10.602 9.753 C 10.644 9.688,10.706 9.565,10.739 9.479 L 10.800 9.321 10.800 7.502 L 10.800 5.682 10.738 5.510 C 10.627 5.205,10.453 5.000,10.210 4.888 C 10.112 4.843,9.855 4.800,9.686 4.800 L 9.600 4.800 9.600 3.825 L 9.600 2.850 9.541 2.748 C 9.434 2.561,8.266 1.376,8.072 1.258 C 8.012 1.221,7.942 1.220,5.990 1.223 C 4.879 1.224,3.921 1.232,3.860 1.239 M7.206 2.765 C 7.213 2.966,7.228 3.162,7.239 3.201 C 7.267 3.297,7.440 3.487,7.548 3.539 C 7.625 3.576,7.685 3.583,8.018 3.594 L 8.400 3.606 8.400 4.203 L 8.400 4.800 6.543 4.800 L 4.685 4.800 4.650 4.707 C 4.605 4.589,4.366 4.232,4.272 4.141 L 4.200 4.072 4.200 3.236 L 4.200 2.400 5.697 2.400 L 7.194 2.400 7.206 2.765 M3.256 4.868 C 3.346 4.915,3.470 5.029,3.521 5.112 C 3.564 5.180,3.564 5.190,3.575 7.167 L 3.586 9.153 3.529 9.259 C 3.377 9.538,3.087 9.652,2.785 9.552 C 2.671 9.514,2.532 9.382,2.461 9.243 L 2.419 9.160 2.425 7.185 L 2.430 5.210 2.485 5.117 C 2.552 5.002,2.678 4.892,2.788 4.851 C 2.897 4.811,3.165 4.820,3.256 4.868 M9.600 7.500 L 9.600 9.000 7.200 9.000 L 4.800 9.000 4.800 7.500 L 4.800 6.000 7.200 6.000 L 9.600 6.000 9.600 7.500 M6.183 6.924 C 6.015 6.953,5.816 7.113,5.744 7.277 C 5.702 7.373,5.703 7.625,5.746 7.725 C 5.794 7.837,5.947 7.989,6.066 8.042 C 6.141 8.076,6.206 8.088,6.300 8.088 C 6.828 8.084,7.090 7.433,6.707 7.079 C 6.564 6.948,6.372 6.891,6.183 6.924 M7.983 6.924 C 7.815 6.953,7.616 7.113,7.544 7.277 C 7.502 7.373,7.503 7.625,7.546 7.725 C 7.594 7.837,7.747 7.989,7.866 8.042 C 7.941 8.076,8.006 8.088,8.100 8.088 C 8.628 8.084,8.890 7.433,8.507 7.079 C 8.364 6.948,8.172 6.891,7.983 6.924 " fill="#1A1C1F" stroke="none" fill-rule="evenodd"></path></svg>