<svg width="28" height="28" viewBox="0 0 28 28" fill="none" xmlns="http://www.w3.org/2000/svg"><path d="M8.416 1.868 C 8.117 1.928,7.885 2.067,7.593 2.362 C 7.259 2.698,7.107 3.003,7.048 3.453 C 7.023 3.646,7.002 4.932,7.001 6.312 L 7.000 8.820 6.880 8.820 C 6.717 8.820,6.112 9.031,5.738 9.219 C 4.924 9.626,4.139 10.481,3.682 11.456 C 2.578 13.812,2.291 17.966,3.010 21.211 C 3.532 23.571,4.592 25.229,5.997 25.880 C 6.566 26.144,6.850 26.200,7.630 26.199 C 8.263 26.199,8.366 26.187,8.703 26.074 C 9.142 25.928,9.433 25.754,9.698 25.478 C 10.040 25.121,10.360 24.327,10.360 23.831 L 10.360 23.619 16.788 23.602 C 22.676 23.586,23.240 23.578,23.489 23.505 C 23.893 23.387,24.154 23.218,24.574 22.799 C 24.863 22.512,24.995 22.336,25.134 22.052 L 25.317 21.682 25.348 20.652 C 25.395 19.064,25.390 14.512,25.339 13.862 C 25.299 13.349,25.275 13.240,25.136 12.947 C 24.954 12.564,24.487 12.038,24.121 11.803 C 23.825 11.613,23.358 11.443,23.029 11.404 L 22.773 11.374 22.773 8.662 C 22.773 6.043,22.770 5.945,22.681 5.799 C 22.562 5.604,20.320 3.293,19.455 2.473 L 18.790 1.843 13.700 1.836 C 10.900 1.833,8.523 1.847,8.416 1.868 M16.660 5.360 L 16.660 7.219 16.794 7.419 C 16.868 7.529,17.018 7.679,17.128 7.753 L 17.327 7.887 19.164 7.887 L 21.000 7.887 21.000 9.637 L 21.000 11.387 15.680 11.387 L 10.360 11.387 10.359 11.212 C 10.358 10.909,10.227 10.399,10.063 10.058 C 9.862 9.640,9.562 9.343,9.093 9.099 L 8.727 8.909 8.732 6.729 C 8.736 5.531,8.751 4.330,8.767 4.060 L 8.797 3.570 9.707 3.545 C 10.207 3.531,11.976 3.516,13.638 3.510 L 16.660 3.500 16.660 5.360 M19.476 4.988 C 20.034 5.562,20.482 6.056,20.473 6.085 C 20.461 6.120,20.131 6.141,19.421 6.149 L 18.387 6.162 18.387 5.037 C 18.387 4.418,18.403 3.919,18.424 3.928 C 18.444 3.936,18.918 4.413,19.476 4.988 M8.344 10.634 C 8.403 10.666,8.471 10.745,8.496 10.809 C 8.520 10.873,8.540 11.508,8.540 12.219 C 8.540 13.864,8.570 13.807,7.672 13.863 C 7.329 13.885,7.094 13.924,6.978 13.979 C 6.641 14.139,6.386 14.637,6.249 15.400 C 6.171 15.833,6.138 18.590,6.203 19.251 C 6.263 19.863,6.448 20.482,6.650 20.747 C 6.826 20.978,7.010 21.043,7.637 21.098 C 8.281 21.154,8.371 21.184,8.479 21.383 C 8.551 21.517,8.564 21.699,8.578 22.826 L 8.595 24.115 8.439 24.233 C 8.240 24.383,7.984 24.453,7.628 24.453 C 6.355 24.454,5.385 23.331,4.828 21.210 C 4.499 19.960,4.480 19.744,4.480 17.337 C 4.480 15.388,4.489 15.122,4.574 14.623 C 4.969 12.287,5.718 11.011,6.930 10.609 C 7.166 10.531,8.188 10.549,8.344 10.634 M22.701 13.191 C 23.117 13.220,23.119 13.221,23.345 13.432 L 23.572 13.644 23.558 17.474 C 23.542 21.785,23.570 21.473,23.170 21.735 L 22.938 21.887 16.649 21.887 L 10.360 21.887 10.360 21.663 C 10.360 21.123,10.126 20.590,9.684 20.120 C 9.323 19.738,8.979 19.543,8.450 19.420 C 8.238 19.370,8.040 19.306,8.011 19.276 C 7.951 19.216,7.930 15.761,7.989 15.702 C 8.006 15.685,8.206 15.618,8.431 15.555 C 9.015 15.390,9.314 15.230,9.637 14.910 C 10.067 14.484,10.360 13.831,10.360 13.298 L 10.360 13.099 16.322 13.130 C 19.601 13.147,22.471 13.175,22.701 13.191 M15.361 15.871 C 14.644 16.236,14.792 17.244,15.594 17.459 C 16.286 17.644,16.874 16.752,16.461 16.144 C 16.241 15.821,15.716 15.690,15.361 15.871 M18.107 15.826 C 17.799 15.916,17.503 16.311,17.501 16.634 C 17.498 16.999,17.880 17.421,18.266 17.478 C 18.607 17.530,19.019 17.288,19.162 16.953 C 19.323 16.577,19.154 16.069,18.806 15.890 C 18.636 15.802,18.295 15.771,18.107 15.826 M20.730 15.824 C 20.508 15.891,20.222 16.197,20.158 16.434 C 20.055 16.815,20.323 17.272,20.744 17.433 C 21.199 17.607,21.699 17.295,21.845 16.746 C 21.899 16.546,21.894 16.513,21.779 16.278 C 21.690 16.096,21.604 15.996,21.473 15.922 C 21.256 15.800,20.943 15.759,20.730 15.824 M15.352 18.515 C 15.047 18.671,14.913 18.895,14.913 19.251 C 14.913 20.004,15.809 20.398,16.321 19.869 C 16.784 19.390,16.672 18.751,16.077 18.475 C 15.819 18.356,15.645 18.365,15.352 18.515 M18.002 18.506 C 17.598 18.717,17.418 19.139,17.567 19.528 C 17.801 20.140,18.640 20.315,19.005 19.827 C 19.256 19.491,19.290 19.045,19.086 18.759 C 18.964 18.588,18.571 18.387,18.363 18.389 C 18.286 18.390,18.124 18.443,18.002 18.506 M20.631 18.489 C 20.381 18.620,20.161 18.916,20.130 19.162 C 20.100 19.397,20.306 19.814,20.523 19.958 C 21.000 20.274,21.601 20.053,21.819 19.483 C 21.887 19.307,21.891 19.240,21.847 19.093 C 21.727 18.690,21.458 18.461,21.045 18.407 C 20.882 18.386,20.792 18.404,20.631 18.489 " fill="#1A1C1F" stroke="none" fill-rule="evenodd"></path></svg>