<svg width="32" height="32" viewBox="0 0 32 32" fill="none" xmlns="http://www.w3.org/2000/svg"><path d="M9.618 2.135 C 9.265 2.206,9.010 2.364,8.652 2.738 C 8.258 3.149,8.123 3.424,8.054 3.957 C 8.026 4.171,8.003 5.637,8.002 7.213 L 8.000 10.080 7.862 10.080 C 7.676 10.080,6.986 10.321,6.558 10.536 C 5.627 11.002,4.730 11.978,4.207 13.093 C 2.947 15.782,2.620 20.537,3.440 24.242 C 4.043 26.967,5.266 28.860,6.902 29.602 C 7.518 29.881,7.847 29.943,8.720 29.942 C 9.443 29.941,9.561 29.928,9.947 29.799 C 10.448 29.632,10.780 29.433,11.083 29.118 C 11.475 28.710,11.840 27.802,11.840 27.236 L 11.840 26.993 19.160 26.971 C 24.453 26.955,26.554 26.932,26.747 26.887 C 27.539 26.703,28.302 26.048,28.733 25.181 L 28.928 24.789 28.974 23.208 C 29.036 21.024,28.992 15.687,28.909 15.310 C 28.874 15.151,28.775 14.881,28.689 14.711 C 28.502 14.341,27.939 13.728,27.566 13.489 C 27.229 13.273,26.696 13.077,26.321 13.033 L 26.033 12.999 26.016 9.926 L 26.000 6.853 25.877 6.623 C 25.742 6.370,23.433 3.965,22.233 2.827 L 21.474 2.107 15.657 2.099 C 12.458 2.095,9.740 2.111,9.618 2.135 M19.040 6.125 L 19.040 8.251 19.193 8.479 C 19.277 8.604,19.449 8.776,19.575 8.860 L 19.803 9.013 21.901 9.013 L 24.000 9.013 24.000 11.013 L 24.000 13.013 17.920 13.013 L 11.840 13.013 11.839 12.813 C 11.837 12.471,11.688 11.886,11.502 11.495 C 11.274 11.013,10.945 10.687,10.404 10.405 L 9.973 10.181 9.980 7.691 C 9.983 6.321,10.001 4.948,10.020 4.640 L 10.053 4.080 11.093 4.052 C 11.665 4.036,13.687 4.018,15.587 4.012 L 19.040 4.000 19.040 6.125 M23.398 6.952 C 23.384 6.995,23.026 7.018,22.196 7.028 L 21.013 7.042 21.016 5.748 L 21.018 4.453 22.218 5.672 C 22.878 6.343,23.409 6.919,23.398 6.952 M9.536 12.153 C 9.603 12.190,9.681 12.280,9.709 12.353 C 9.737 12.427,9.760 13.167,9.760 13.998 C 9.760 15.357,9.751 15.520,9.667 15.622 C 9.569 15.742,9.375 15.785,8.460 15.889 C 7.871 15.957,7.682 16.083,7.462 16.554 C 7.266 16.975,7.161 17.397,7.095 18.027 C 7.026 18.684,7.026 21.241,7.094 22.017 C 7.185 23.039,7.510 23.805,7.927 23.980 C 8.031 24.023,8.383 24.081,8.711 24.109 C 9.809 24.204,9.773 24.138,9.803 26.086 L 9.826 27.558 9.646 27.695 C 9.390 27.890,9.026 27.968,8.542 27.930 C 8.057 27.892,7.851 27.827,7.493 27.600 C 6.413 26.914,5.637 25.305,5.226 22.902 C 5.131 22.345,5.120 22.033,5.120 19.813 C 5.120 17.587,5.131 17.282,5.227 16.712 C 5.679 14.043,6.535 12.584,7.920 12.125 C 8.190 12.035,9.358 12.056,9.536 12.153 M25.918 15.076 L 26.422 15.110 26.681 15.352 L 26.939 15.594 26.923 19.970 C 26.905 24.898,26.937 24.541,26.480 24.840 L 26.215 25.013 19.027 25.013 L 11.840 25.013 11.840 24.758 C 11.840 24.141,11.573 23.531,11.067 22.995 C 10.655 22.558,10.262 22.335,9.657 22.194 C 9.415 22.137,9.189 22.064,9.155 22.030 C 9.087 21.961,9.063 18.013,9.130 17.946 C 9.150 17.925,9.378 17.849,9.636 17.777 C 10.300 17.590,10.643 17.407,11.018 17.040 C 11.502 16.567,11.840 15.809,11.840 15.198 L 11.840 14.971 18.627 15.007 C 22.359 15.026,25.640 15.058,25.918 15.076 M17.564 18.130 C 17.427 18.192,17.285 18.315,17.197 18.448 C 16.807 19.037,17.108 19.762,17.822 19.953 C 18.316 20.085,18.812 19.735,18.940 19.165 C 19.053 18.657,18.785 18.227,18.267 18.086 C 17.969 18.004,17.821 18.014,17.564 18.130 M20.693 18.087 C 20.342 18.190,20.004 18.641,20.001 19.010 C 19.999 19.253,20.206 19.621,20.438 19.789 C 20.863 20.097,21.378 20.026,21.743 19.611 C 22.119 19.183,21.991 18.417,21.501 18.164 C 21.299 18.060,20.913 18.023,20.693 18.087 M23.691 18.084 C 23.438 18.161,23.111 18.511,23.038 18.782 C 22.920 19.218,23.227 19.740,23.708 19.923 C 24.228 20.122,24.798 19.766,24.966 19.139 C 25.027 18.910,25.022 18.872,24.891 18.604 C 24.789 18.396,24.690 18.281,24.540 18.197 C 24.292 18.058,23.935 18.010,23.691 18.084 M17.546 21.160 C 17.196 21.339,17.044 21.594,17.044 22.001 C 17.044 22.862,18.068 23.312,18.653 22.707 C 19.182 22.161,19.054 21.429,18.373 21.114 C 18.079 20.978,17.880 20.989,17.546 21.160 M20.708 21.070 C 20.446 21.150,20.128 21.482,20.056 21.751 C 19.911 22.287,20.224 22.783,20.803 22.938 C 21.268 23.063,21.646 22.883,21.863 22.435 C 22.237 21.662,21.525 20.821,20.708 21.070 M23.596 21.111 C 23.345 21.229,23.056 21.592,23.008 21.852 C 22.931 22.260,23.304 22.818,23.729 22.932 C 24.217 23.064,24.627 22.869,24.872 22.389 C 25.054 22.033,25.041 21.856,24.807 21.486 C 24.552 21.085,24.011 20.917,23.596 21.111 " fill="#1A1C1F" stroke="none" fill-rule="evenodd"></path></svg>