<svg width="16" height="16" viewBox="0 0 16 16" fill="none" xmlns="http://www.w3.org/2000/svg"><path d="M5.138 1.654 C 4.759 1.702,4.323 2.034,4.145 2.409 C 4.020 2.670,4.002 2.867,4.001 3.963 L 4.000 4.792 3.767 4.824 C 3.408 4.874,3.237 4.924,2.947 5.067 C 2.343 5.364,1.937 5.847,1.683 6.569 L 1.600 6.804 1.600 9.600 L 1.600 12.396 1.682 12.631 C 1.868 13.166,2.105 13.521,2.494 13.848 C 2.731 14.047,2.938 14.163,3.240 14.264 C 4.080 14.545,4.961 14.350,5.634 13.734 L 5.777 13.603 9.535 13.592 C 12.358 13.584,13.330 13.573,13.440 13.549 C 13.826 13.463,14.168 13.093,14.350 12.563 C 14.397 12.426,14.400 12.291,14.400 9.989 L 14.400 7.560 14.305 7.314 C 14.151 6.916,13.917 6.650,13.596 6.508 C 13.479 6.456,13.124 6.400,12.914 6.400 L 12.800 6.400 12.800 5.092 L 12.800 3.784 12.709 3.642 C 12.531 3.363,11.011 1.829,10.764 1.678 C 10.683 1.628,10.594 1.627,7.987 1.630 C 6.505 1.632,5.223 1.643,5.138 1.654 M9.609 3.687 C 9.618 3.954,9.638 4.216,9.652 4.268 C 9.689 4.396,9.920 4.649,10.064 4.719 C 10.167 4.769,10.246 4.778,10.691 4.792 L 11.200 4.808 11.200 5.604 L 11.200 6.400 8.725 6.400 L 6.250 6.400 6.192 6.260 C 6.114 6.075,5.894 5.741,5.731 5.562 L 5.600 5.419 5.600 4.310 L 5.600 3.200 7.596 3.200 L 9.592 3.200 9.609 3.687 M4.277 6.473 C 4.425 6.526,4.609 6.677,4.694 6.815 L 4.752 6.909 4.767 9.554 L 4.781 12.200 4.722 12.316 C 4.633 12.490,4.469 12.653,4.313 12.723 C 4.110 12.813,3.847 12.810,3.665 12.715 C 3.513 12.635,3.362 12.481,3.281 12.321 C 3.226 12.214,3.226 12.194,3.233 9.580 C 3.241 6.633,3.223 6.896,3.435 6.661 C 3.633 6.441,3.975 6.365,4.277 6.473 M12.800 10.000 L 12.800 12.000 9.600 12.000 L 6.400 12.000 6.400 10.000 L 6.400 8.000 9.600 8.000 L 12.800 8.000 12.800 10.000 M8.088 9.279 C 7.933 9.349,7.747 9.527,7.675 9.676 C 7.628 9.772,7.615 9.845,7.616 10.000 C 7.617 10.248,7.683 10.399,7.866 10.570 C 8.038 10.731,8.159 10.781,8.388 10.783 C 8.700 10.787,8.964 10.619,9.125 10.315 C 9.207 10.157,9.209 9.878,9.128 9.700 C 9.047 9.523,8.841 9.326,8.681 9.271 C 8.504 9.211,8.230 9.214,8.088 9.279 M10.488 9.279 C 10.333 9.349,10.147 9.527,10.075 9.676 C 10.028 9.772,10.015 9.845,10.016 10.000 C 10.017 10.248,10.083 10.399,10.266 10.570 C 10.438 10.731,10.559 10.781,10.788 10.783 C 11.100 10.787,11.364 10.619,11.525 10.315 C 11.607 10.157,11.609 9.878,11.528 9.700 C 11.447 9.523,11.241 9.326,11.081 9.271 C 10.904 9.211,10.630 9.214,10.488 9.279 " fill="#1A1C1F" stroke="none" fill-rule="evenodd"></path></svg>