<svg width="20" height="20" viewBox="0 0 20 20" fill="none" xmlns="http://www.w3.org/2000/svg"><path d="M7.567 2.032 C 6.199 2.050,6.182 2.051,6.024 2.128 C 5.610 2.332,5.264 2.684,5.127 3.040 C 5.010 3.342,4.997 4.188,5.008 10.567 C 5.018 16.328,5.021 16.625,5.080 16.800 C 5.266 17.359,5.607 17.726,6.121 17.920 L 6.343 18.003 9.996 17.993 L 13.650 17.982 13.872 17.907 C 14.291 17.766,14.719 17.363,14.871 16.967 C 14.991 16.655,15.004 15.801,14.992 9.400 C 14.981 3.791,14.976 3.370,14.921 3.183 C 14.797 2.755,14.482 2.394,14.047 2.179 L 13.791 2.052 12.620 2.029 C 11.340 2.003,9.704 2.004,7.567 2.032 M8.007 4.508 L 8.017 5.017 9.992 5.025 L 11.967 5.034 11.967 4.517 L 11.967 4.000 12.483 4.000 L 13.000 4.000 13.000 10.000 L 13.000 16.000 10.000 16.000 L 7.000 16.000 7.000 10.000 L 7.000 4.000 7.499 4.000 L 7.998 4.000 8.007 4.508 M9.000 14.000 L 9.000 15.000 10.000 15.000 L 11.000 15.000 11.000 14.000 L 11.000 13.000 10.000 13.000 L 9.000 13.000 9.000 14.000 " fill="#1A1C1F" stroke="none" fill-rule="evenodd"></path></svg>