<svg width="16" height="16" viewBox="0 0 16 16" fill="none" xmlns="http://www.w3.org/2000/svg"><path d="M4.964 1.682 C 4.780 1.718,4.621 1.808,4.439 1.978 C 4.243 2.161,4.131 2.328,4.063 2.533 C 4.018 2.672,4.015 2.914,4.006 6.771 L 3.997 10.861 3.435 11.437 C 2.813 12.074,2.552 12.366,2.481 12.507 C 2.328 12.806,2.443 13.204,2.744 13.424 C 2.958 13.580,3.197 13.634,3.415 13.573 C 3.566 13.531,4.159 12.961,7.157 9.974 C 10.866 6.278,13.490 3.614,13.540 3.494 C 13.593 3.369,13.592 3.029,13.539 2.903 C 13.486 2.776,13.323 2.597,13.175 2.502 C 13.068 2.434,13.033 2.427,12.827 2.427 C 12.562 2.427,12.495 2.453,12.232 2.663 C 12.137 2.738,12.048 2.800,12.034 2.800 C 12.020 2.800,11.988 2.726,11.963 2.635 C 11.849 2.224,11.614 1.928,11.260 1.750 L 11.068 1.653 8.074 1.656 C 6.427 1.658,5.028 1.669,4.964 1.682 M6.400 3.627 L 6.400 4.027 8.000 4.027 L 9.600 4.027 9.600 3.627 L 9.600 3.227 10.000 3.227 L 10.400 3.227 10.400 3.847 L 10.400 4.467 8.000 6.867 L 5.600 9.267 5.600 6.247 L 5.600 3.227 6.000 3.227 L 6.400 3.227 6.400 3.627 M11.171 8.230 L 10.400 8.999 10.400 10.913 L 10.400 12.827 8.486 12.827 L 6.573 12.827 5.787 13.613 L 5.000 14.400 7.614 14.399 C 9.051 14.398,10.414 14.388,10.644 14.376 C 11.052 14.355,11.065 14.352,11.261 14.255 C 11.531 14.122,11.739 13.916,11.860 13.662 C 11.937 13.499,11.956 13.423,11.975 13.194 C 12.010 12.768,12.006 7.500,11.971 7.478 C 11.954 7.468,11.613 7.788,11.171 8.230 M8.120 11.282 C 7.597 11.811,7.441 11.984,7.469 12.002 C 7.490 12.015,7.804 12.026,8.167 12.026 L 8.827 12.027 8.827 11.307 C 8.827 10.911,8.823 10.587,8.818 10.587 C 8.813 10.587,8.499 10.900,8.120 11.282 " fill="#1A1C1F" stroke="none" fill-rule="evenodd"></path></svg>