<svg width="32" height="32" viewBox="0 0 32 32" fill="none" xmlns="http://www.w3.org/2000/svg"><path d="M12.107 2.078 C 10.211 2.106,10.153 2.110,9.910 2.230 C 8.939 2.708,8.314 3.412,8.102 4.267 C 8.041 4.510,8.029 6.521,8.028 16.053 L 8.027 27.547 8.165 27.925 C 8.511 28.872,9.170 29.503,10.226 29.900 L 10.562 30.027 16.000 30.027 L 21.438 30.027 21.774 29.900 C 22.339 29.687,22.643 29.510,22.991 29.188 C 23.397 28.814,23.676 28.395,23.864 27.878 L 24.006 27.489 23.983 16.078 C 23.968 8.375,23.942 4.565,23.904 4.352 C 23.765 3.583,23.182 2.832,22.365 2.373 L 21.893 2.107 19.947 2.072 C 17.782 2.032,15.044 2.034,12.107 2.078 M12.021 4.172 C 12.071 4.424,12.308 4.735,12.561 4.883 L 12.783 5.013 16.010 5.013 L 19.237 5.013 19.457 4.866 C 19.732 4.681,19.935 4.411,19.980 4.169 L 20.015 3.985 20.620 4.019 C 21.341 4.060,21.593 4.147,21.782 4.420 L 21.920 4.619 21.920 16.004 L 21.920 27.389 21.786 27.586 C 21.712 27.695,21.598 27.812,21.533 27.847 C 21.334 27.954,19.821 27.994,16.000 27.994 C 12.179 27.994,10.666 27.954,10.467 27.847 C 10.402 27.812,10.288 27.695,10.214 27.586 L 10.080 27.389 10.080 15.996 L 10.080 4.603 10.239 4.384 C 10.447 4.097,10.702 4.024,11.553 4.008 L 11.987 4.000 12.021 4.172 M14.267 24.047 C 13.585 24.085,13.406 24.159,13.186 24.491 C 13.070 24.667,13.040 24.774,13.040 25.013 C 13.040 25.536,13.390 25.890,13.994 25.977 C 14.417 26.039,17.215 26.038,17.850 25.976 C 18.422 25.921,18.572 25.859,18.791 25.587 C 18.935 25.408,18.951 25.350,18.947 25.038 C 18.940 24.623,18.835 24.412,18.531 24.204 L 18.320 24.060 16.587 24.037 C 15.633 24.024,14.589 24.028,14.267 24.047 " fill="#1A1C1F" stroke="none" fill-rule="evenodd"></path></svg>