<svg width="28" height="28" viewBox="0 0 28 28" fill="none" xmlns="http://www.w3.org/2000/svg"><path d="M10.593 1.818 L 8.842 1.843 8.469 2.053 C 7.994 2.321,7.482 2.819,7.293 3.197 C 7.008 3.765,7.025 3.087,7.024 14.047 L 7.023 24.103 7.132 24.407 C 7.292 24.852,7.521 25.200,7.866 25.522 C 8.182 25.817,8.445 25.973,8.948 26.163 L 9.242 26.273 13.979 26.273 C 18.639 26.273,18.721 26.272,19.002 26.177 C 19.467 26.020,19.807 25.826,20.117 25.540 C 20.472 25.212,20.716 24.846,20.881 24.393 L 21.005 24.053 20.985 14.068 C 20.972 7.328,20.949 3.994,20.916 3.808 C 20.795 3.135,20.284 2.478,19.570 2.076 L 19.157 1.843 17.383 1.813 C 15.397 1.779,13.196 1.780,10.593 1.818 M10.518 3.651 C 10.562 3.871,10.769 4.143,10.991 4.273 L 11.185 4.387 14.009 4.387 L 16.833 4.387 17.025 4.257 C 17.265 4.096,17.443 3.859,17.483 3.648 L 17.513 3.487 18.043 3.517 C 18.674 3.553,18.894 3.629,19.059 3.868 L 19.180 4.042 19.180 14.003 L 19.180 23.965 19.062 24.138 C 18.998 24.233,18.899 24.336,18.842 24.366 C 18.666 24.460,17.360 24.495,14.000 24.495 C 10.640 24.495,9.334 24.460,9.158 24.366 C 9.101 24.336,9.002 24.233,8.938 24.138 L 8.820 23.965 8.820 13.996 L 8.820 4.027 8.959 3.836 C 9.141 3.585,9.364 3.521,10.109 3.507 L 10.488 3.500 10.518 3.651 M12.483 21.041 C 11.887 21.075,11.730 21.139,11.538 21.430 C 11.436 21.583,11.410 21.677,11.410 21.887 C 11.410 22.344,11.717 22.654,12.244 22.730 C 12.620 22.785,15.124 22.784,15.644 22.729 C 16.124 22.678,16.253 22.623,16.442 22.388 C 16.568 22.232,16.582 22.181,16.578 21.909 C 16.573 21.545,16.481 21.361,16.214 21.179 L 16.030 21.052 14.513 21.032 C 13.679 21.021,12.766 21.025,12.483 21.041 " fill="#1A1C1F" stroke="none" fill-rule="evenodd"></path></svg>