<svg width="16" height="16" viewBox="0 0 16 16" fill="none" xmlns="http://www.w3.org/2000/svg"><path d="M6.027 1.626 C 4.961 1.640,4.945 1.641,4.819 1.703 C 4.488 1.866,4.211 2.147,4.102 2.432 C 4.007 2.677,3.997 3.293,4.006 8.413 C 4.015 12.971,4.018 13.304,4.062 13.452 C 4.168 13.812,4.437 14.118,4.799 14.291 L 5.000 14.387 7.947 14.387 L 10.893 14.387 11.083 14.327 C 11.427 14.219,11.772 13.899,11.897 13.573 C 11.993 13.323,12.003 12.675,11.993 7.547 C 11.985 3.028,11.981 2.696,11.937 2.547 C 11.837 2.204,11.585 1.915,11.238 1.743 L 11.033 1.642 10.096 1.623 C 9.069 1.602,7.692 1.603,6.027 1.626 M6.406 3.607 L 6.413 4.013 7.993 4.020 L 9.573 4.027 9.573 3.614 L 9.573 3.200 9.987 3.200 L 10.400 3.200 10.400 8.000 L 10.400 12.800 8.000 12.800 L 5.600 12.800 5.600 8.000 L 5.600 3.200 5.999 3.200 L 6.399 3.200 6.406 3.607 M7.200 11.200 L 7.200 12.000 8.000 12.000 L 8.800 12.000 8.800 11.200 L 8.800 10.400 8.000 10.400 L 7.200 10.400 7.200 11.200 " fill="#1A1C1F" stroke="none" fill-rule="evenodd"></path></svg>