<svg width="32" height="32" viewBox="0 0 32 32" fill="none" xmlns="http://www.w3.org/2000/svg"><path d="M11.813 2.078 L 10.107 2.109 9.723 2.307 C 9.282 2.534,8.726 3.030,8.478 3.416 C 8.385 3.561,8.240 3.854,8.156 4.067 L 8.004 4.453 8.002 13.515 L 8.000 22.577 6.251 24.342 C 4.463 26.146,4.078 26.581,4.022 26.861 C 3.902 27.461,4.628 28.136,5.192 27.949 C 5.498 27.848,6.683 26.696,14.616 18.789 C 22.847 10.585,27.400 5.977,27.763 5.483 C 28.038 5.110,28.060 4.941,27.880 4.585 C 27.609 4.049,26.976 3.862,26.515 4.181 C 26.393 4.266,25.780 4.835,25.153 5.446 L 24.014 6.557 23.986 5.532 C 23.948 4.142,23.852 3.810,23.304 3.154 C 23.001 2.791,22.511 2.416,22.103 2.234 C 21.860 2.126,21.721 2.114,20.293 2.076 C 18.564 2.031,14.409 2.031,11.813 2.078 M12.021 4.172 C 12.071 4.424,12.308 4.735,12.561 4.883 L 12.783 5.013 16.010 5.013 L 19.237 5.013 19.457 4.866 C 19.732 4.681,19.935 4.411,19.980 4.169 L 20.015 3.985 20.620 4.019 C 21.350 4.061,21.592 4.146,21.790 4.431 L 21.935 4.641 21.959 6.627 L 21.983 8.613 16.000 14.587 L 10.016 20.560 10.040 12.606 L 10.064 4.652 10.185 4.457 C 10.251 4.349,10.358 4.227,10.422 4.185 C 10.576 4.084,11.020 4.014,11.553 4.006 L 11.987 4.000 12.021 4.172 M22.925 13.320 L 21.984 14.267 21.959 20.809 L 21.934 27.351 21.814 27.545 C 21.619 27.861,21.516 27.899,20.734 27.950 C 20.345 27.975,18.023 27.996,15.573 27.997 C 10.874 27.998,10.598 27.985,10.340 27.756 C 10.169 27.603,10.090 27.372,10.049 26.902 C 10.029 26.670,9.994 26.446,9.972 26.404 C 9.942 26.347,9.705 26.551,9.059 27.188 L 8.187 28.049 8.347 28.355 C 8.436 28.526,8.686 28.841,8.914 29.071 C 9.385 29.545,9.894 29.828,10.453 29.925 C 10.687 29.965,12.529 29.994,16.095 30.012 L 21.391 30.039 21.722 29.919 C 22.294 29.712,22.650 29.505,23.007 29.172 C 23.413 28.792,23.635 28.464,23.844 27.933 L 23.996 27.547 23.998 19.960 C 24.000 13.892,23.987 12.373,23.933 12.373 C 23.896 12.373,23.442 12.799,22.925 13.320 M14.267 24.047 C 13.585 24.085,13.406 24.159,13.186 24.491 C 13.070 24.667,13.040 24.774,13.040 25.013 C 13.040 25.536,13.390 25.890,13.994 25.977 C 14.417 26.039,17.215 26.038,17.850 25.976 C 18.422 25.921,18.572 25.859,18.791 25.587 C 18.935 25.408,18.951 25.350,18.947 25.038 C 18.940 24.623,18.835 24.412,18.531 24.204 L 18.320 24.060 16.587 24.037 C 15.633 24.024,14.589 24.028,14.267 24.047 " fill="#1A1C1F" stroke="none" fill-rule="evenodd"></path></svg>