<svg width="28" height="28" viewBox="0 0 28 28" fill="none" xmlns="http://www.w3.org/2000/svg"><path d="M10.337 1.818 L 8.843 1.845 8.507 2.019 C 7.878 2.344,7.379 2.915,7.117 3.612 L 7.000 3.922 7.000 11.838 L 7.000 19.755 5.470 21.299 C 3.938 22.845,3.582 23.245,3.522 23.485 C 3.468 23.703,3.540 23.919,3.744 24.151 C 4.080 24.533,4.373 24.591,4.740 24.348 C 5.049 24.144,10.411 18.842,17.360 11.871 C 23.550 5.661,24.375 4.808,24.457 4.534 C 24.572 4.148,24.272 3.672,23.836 3.550 C 23.410 3.431,23.289 3.513,21.917 4.854 C 21.444 5.316,21.048 5.693,21.036 5.693 C 21.023 5.693,21.002 5.279,20.989 4.772 C 20.961 3.721,20.916 3.536,20.551 2.980 C 20.324 2.636,20.088 2.406,19.723 2.172 C 19.227 1.855,19.235 1.856,17.757 1.817 C 16.247 1.777,12.616 1.777,10.337 1.818 M10.518 3.651 C 10.562 3.871,10.769 4.143,10.991 4.273 L 11.185 4.387 14.009 4.387 L 16.833 4.387 17.025 4.257 C 17.265 4.096,17.443 3.859,17.483 3.648 L 17.513 3.487 18.043 3.517 C 18.680 3.553,18.893 3.628,19.065 3.876 L 19.191 4.058 19.214 5.797 L 19.236 7.537 14.000 12.763 L 8.764 17.990 8.786 11.028 L 8.809 4.066 8.913 3.897 C 8.970 3.805,9.063 3.699,9.119 3.662 C 9.254 3.574,9.643 3.512,10.109 3.505 L 10.488 3.500 10.518 3.651 M20.059 11.655 L 19.236 12.483 19.214 18.209 L 19.191 23.934 19.087 24.103 C 18.908 24.392,18.835 24.416,17.999 24.458 C 17.584 24.478,15.478 24.496,13.321 24.498 L 9.398 24.500 9.187 24.366 C 8.922 24.198,8.835 24.015,8.794 23.542 C 8.776 23.338,8.745 23.140,8.726 23.103 C 8.699 23.054,8.492 23.232,7.927 23.789 L 7.163 24.542 7.303 24.810 C 7.382 24.960,7.600 25.236,7.800 25.437 C 8.212 25.852,8.657 26.099,9.147 26.184 C 9.600 26.262,18.543 26.304,18.841 26.229 C 19.774 25.995,20.555 25.292,20.880 24.395 L 21.002 24.057 20.989 17.457 C 20.981 13.076,20.961 10.853,20.930 10.842 C 20.904 10.833,20.512 11.199,20.059 11.655 M12.483 21.041 C 11.887 21.075,11.730 21.139,11.538 21.430 C 11.436 21.583,11.410 21.677,11.410 21.887 C 11.410 22.344,11.717 22.654,12.244 22.730 C 12.620 22.785,15.124 22.784,15.644 22.729 C 16.124 22.678,16.253 22.623,16.442 22.388 C 16.568 22.232,16.582 22.181,16.578 21.909 C 16.573 21.545,16.481 21.361,16.214 21.179 L 16.030 21.052 14.513 21.032 C 13.679 21.021,12.766 21.025,12.483 21.041 " fill="#1A1C1F" stroke="none" fill-rule="evenodd"></path></svg>