<svg width="12" height="12" viewBox="0 0 12 12" fill="none" xmlns="http://www.w3.org/2000/svg"><path d="M4.500 1.219 L 3.710 1.230 3.600 1.287 C 3.348 1.416,3.159 1.610,3.076 1.824 C 3.005 2.007,2.998 2.494,3.005 6.328 C 3.011 9.794,3.013 9.975,3.048 10.080 C 3.165 10.432,3.388 10.657,3.731 10.768 C 3.822 10.797,4.042 10.800,6.041 10.795 L 8.250 10.790 8.400 10.718 C 8.662 10.592,8.846 10.390,8.944 10.118 L 8.990 9.990 8.990 6.020 C 8.990 2.269,8.988 2.043,8.954 1.920 C 8.935 1.849,8.895 1.750,8.866 1.700 C 8.781 1.555,8.600 1.392,8.429 1.307 L 8.275 1.231 7.602 1.217 C 6.859 1.202,5.708 1.203,4.500 1.219 M4.804 2.705 L 4.810 3.010 5.995 3.015 L 7.180 3.020 7.180 2.710 L 7.180 2.400 7.490 2.400 L 7.800 2.400 7.800 6.000 L 7.800 9.600 6.000 9.600 L 4.200 9.600 4.200 6.000 L 4.200 2.400 4.499 2.400 L 4.799 2.400 4.804 2.705 M5.400 8.400 L 5.400 9.000 6.000 9.000 L 6.600 9.000 6.600 8.400 L 6.600 7.800 6.000 7.800 L 5.400 7.800 5.400 8.400 " fill="#1A1C1F" stroke="none" fill-rule="evenodd"></path></svg>