<svg width="20" height="20" viewBox="0 0 20 20" fill="none" xmlns="http://www.w3.org/2000/svg"><path d="M6.187 2.104 C 5.793 2.196,5.382 2.541,5.181 2.947 C 5.068 3.177,5.055 3.232,5.031 3.591 C 5.016 3.807,5.003 6.141,5.002 8.778 L 5.000 13.573 4.295 14.295 C 3.129 15.489,3.021 15.633,3.022 16.000 C 3.023 16.494,3.438 16.938,3.948 16.990 C 4.262 17.022,4.337 16.980,4.935 16.429 C 5.531 15.880,15.638 5.778,16.442 4.928 C 16.916 4.427,16.935 4.401,16.969 4.221 C 17.031 3.883,16.925 3.525,16.694 3.294 C 16.490 3.090,16.344 3.033,16.025 3.033 C 15.703 3.033,15.617 3.068,15.289 3.328 C 15.171 3.423,15.059 3.500,15.042 3.500 C 15.024 3.500,14.983 3.400,14.950 3.279 C 14.859 2.941,14.721 2.697,14.508 2.494 C 14.206 2.207,14.055 2.133,13.693 2.098 C 13.286 2.059,6.356 2.064,6.187 2.104 M8.000 4.533 L 8.000 5.033 10.000 5.033 L 12.000 5.033 12.000 4.533 L 12.000 4.033 12.500 4.033 L 13.000 4.033 13.000 4.808 L 13.000 5.583 10.000 8.583 L 7.000 11.583 7.000 7.808 L 7.000 4.033 7.500 4.033 L 8.000 4.033 8.000 4.533 M13.967 10.284 L 13.000 11.248 13.000 13.641 L 13.000 16.033 10.608 16.033 L 8.216 16.033 7.233 17.017 L 6.250 18.000 9.967 18.000 L 13.683 17.999 13.942 17.886 C 14.429 17.674,14.763 17.334,14.907 16.906 L 14.982 16.683 14.993 13.037 C 15.000 10.503,14.993 9.379,14.968 9.355 C 14.943 9.330,14.646 9.606,13.967 10.284 M10.150 14.104 C 9.504 14.758,9.302 14.981,9.337 15.003 C 9.363 15.019,9.755 15.033,10.208 15.033 L 11.033 15.033 11.033 14.133 C 11.033 13.638,11.028 13.233,11.022 13.233 C 11.015 13.233,10.623 13.625,10.150 14.104 " fill="#1A1C1F" stroke="none" fill-rule="evenodd"></path></svg>