<svg width="24" height="24" viewBox="0 0 24 24" fill="none" xmlns="http://www.w3.org/2000/svg"><path d="M8.410 2.084 C 7.558 2.226,6.731 2.865,6.316 3.700 C 6.011 4.315,6.036 3.617,6.013 11.980 L 5.992 19.500 6.120 19.860 C 6.500 20.930,7.072 21.491,8.180 21.882 L 8.514 22.000 11.994 22.000 L 15.474 22.000 15.827 21.875 C 16.762 21.546,17.307 21.095,17.678 20.343 C 17.997 19.698,17.972 20.387,17.976 12.100 C 17.979 6.236,17.969 4.638,17.929 4.400 C 17.832 3.836,17.388 3.098,16.917 2.717 C 16.505 2.384,15.971 2.135,15.550 2.080 C 15.185 2.033,8.697 2.037,8.410 2.084 M10.033 4.185 C 10.121 4.514,10.376 4.804,10.680 4.920 C 10.864 4.990,12.757 5.025,13.140 4.966 C 13.595 4.895,13.867 4.645,13.970 4.202 L 14.020 3.989 14.679 4.016 C 15.178 4.036,15.362 4.058,15.439 4.106 C 15.625 4.224,15.767 4.378,15.864 4.569 L 15.960 4.757 15.960 12.000 L 15.960 19.243 15.876 19.412 C 15.775 19.613,15.585 19.822,15.420 19.913 C 15.311 19.974,14.995 19.981,12.080 19.992 C 9.910 20.000,8.813 19.991,8.716 19.962 C 8.543 19.912,8.240 19.655,8.113 19.449 L 8.020 19.300 8.031 11.981 L 8.041 4.661 8.178 4.456 C 8.407 4.110,8.697 4.016,9.562 4.005 L 9.983 4.000 10.033 4.185 M11.220 16.040 C 10.687 16.061,10.624 16.078,10.369 16.267 C 10.218 16.381,10.053 16.683,10.016 16.917 C 9.961 17.262,10.174 17.644,10.556 17.886 L 10.736 18.000 11.990 18.000 C 13.377 18.000,13.340 18.006,13.645 17.730 C 13.950 17.455,14.052 17.119,13.943 16.745 C 13.865 16.476,13.693 16.268,13.443 16.141 C 13.272 16.055,13.200 16.047,12.499 16.034 C 12.082 16.026,11.506 16.029,11.220 16.040 " fill="#1A1C1F" stroke="none" fill-rule="evenodd"></path></svg>