<svg width="14" height="14" viewBox="0 0 14 14" fill="none" xmlns="http://www.w3.org/2000/svg"><path d="M5.307 1.422 L 4.326 1.435 4.170 1.514 C 3.862 1.671,3.637 1.935,3.553 2.240 C 3.514 2.383,3.512 2.647,3.512 7.000 C 3.512 11.339,3.514 11.617,3.553 11.758 C 3.642 12.080,3.876 12.350,4.199 12.504 L 4.375 12.588 6.942 12.588 C 9.334 12.588,9.519 12.586,9.659 12.547 C 9.857 12.492,9.992 12.411,10.152 12.252 C 10.311 12.092,10.392 11.957,10.447 11.759 C 10.486 11.617,10.488 11.353,10.488 7.000 C 10.488 2.647,10.486 2.383,10.447 2.241 C 10.424 2.157,10.377 2.042,10.343 1.984 C 10.250 1.824,10.040 1.632,9.846 1.529 L 9.672 1.437 8.890 1.420 C 8.022 1.402,6.790 1.403,5.307 1.422 M5.605 3.156 L 5.612 3.512 6.994 3.518 L 8.377 3.524 8.377 3.162 L 8.377 2.800 8.738 2.800 L 9.100 2.800 9.100 7.000 L 9.100 11.200 7.000 11.200 L 4.900 11.200 4.900 7.000 L 4.900 2.800 5.249 2.800 L 5.599 2.800 5.605 3.156 M6.300 9.800 L 6.300 10.500 7.000 10.500 L 7.700 10.500 7.700 9.800 L 7.700 9.100 7.000 9.100 L 6.300 9.100 6.300 9.800 " fill="#1A1C1F" stroke="none" fill-rule="evenodd"></path></svg>