<svg width="12" height="12" viewBox="0 0 12 12" fill="none" xmlns="http://www.w3.org/2000/svg"><path d="M4.269 1.239 L 3.708 1.250 3.553 1.327 C 3.354 1.425,3.205 1.574,3.108 1.771 C 3.044 1.899,3.033 1.944,3.019 2.133 C 3.010 2.253,3.002 3.654,3.001 5.247 L 3.000 8.144 2.577 8.577 C 2.111 9.053,1.915 9.273,1.860 9.380 C 1.746 9.604,1.832 9.903,2.058 10.068 C 2.218 10.185,2.398 10.225,2.561 10.180 C 2.675 10.148,3.120 9.720,5.348 7.500 C 8.127 4.731,10.118 2.710,10.155 2.621 C 10.195 2.527,10.194 2.272,10.154 2.177 C 10.114 2.082,9.992 1.947,9.881 1.877 C 9.801 1.826,9.775 1.820,9.620 1.820 C 9.421 1.820,9.371 1.840,9.174 1.997 C 9.103 2.054,9.036 2.100,9.026 2.100 C 9.016 2.100,8.986 2.027,8.961 1.939 C 8.882 1.666,8.735 1.482,8.464 1.318 L 8.352 1.250 7.221 1.237 C 5.952 1.222,5.096 1.223,4.269 1.239 M4.800 2.720 L 4.800 3.020 6.000 3.020 L 7.200 3.020 7.200 2.720 L 7.200 2.420 7.500 2.420 L 7.800 2.420 7.800 2.885 L 7.800 3.350 6.000 5.150 L 4.200 6.950 4.200 4.685 L 4.200 2.420 4.500 2.420 L 4.800 2.420 4.800 2.720 M8.378 6.172 L 7.800 6.749 7.800 8.185 L 7.800 9.620 6.365 9.620 L 4.930 9.620 4.340 10.210 L 3.750 10.800 5.730 10.799 C 6.819 10.798,7.840 10.790,8.000 10.782 C 8.330 10.763,8.427 10.733,8.612 10.589 C 8.848 10.406,8.956 10.203,8.981 9.894 C 9.008 9.576,9.005 5.625,8.978 5.609 C 8.966 5.601,8.710 5.841,8.378 6.172 M6.090 8.462 C 5.698 8.859,5.580 8.988,5.602 9.002 C 5.617 9.011,5.853 9.020,6.125 9.020 L 6.620 9.020 6.620 8.480 C 6.620 8.183,6.617 7.940,6.613 7.940 C 6.610 7.940,6.374 8.175,6.090 8.462 " fill="#1A1C1F" stroke="none" fill-rule="evenodd"></path></svg>