<svg width="14" height="14" viewBox="0 0 14 14" fill="none" xmlns="http://www.w3.org/2000/svg"><path d="M4.345 1.471 C 4.176 1.505,3.977 1.629,3.812 1.804 C 3.583 2.046,3.547 2.141,3.522 2.573 C 3.511 2.768,3.501 4.409,3.501 6.219 L 3.500 9.510 3.334 9.672 C 2.983 10.016,2.288 10.763,2.202 10.888 C 2.119 11.008,2.112 11.032,2.112 11.174 C 2.113 11.555,2.400 11.863,2.784 11.894 C 2.986 11.910,3.044 11.878,3.389 11.565 C 4.234 10.797,11.787 3.199,11.848 3.057 C 11.894 2.948,11.893 2.651,11.847 2.540 C 11.800 2.429,11.658 2.272,11.528 2.189 C 11.435 2.130,11.404 2.123,11.224 2.123 C 10.991 2.123,10.933 2.146,10.703 2.330 C 10.620 2.396,10.543 2.450,10.532 2.450 C 10.521 2.450,10.482 2.357,10.447 2.244 C 10.339 1.904,10.146 1.673,9.841 1.523 L 9.687 1.447 7.066 1.449 C 5.625 1.451,4.400 1.461,4.345 1.471 M5.600 3.173 L 5.600 3.523 7.000 3.523 L 8.400 3.523 8.400 3.173 L 8.400 2.823 8.750 2.823 L 9.100 2.823 9.100 3.366 L 9.100 3.908 7.000 6.008 L 4.900 8.108 4.900 5.466 L 4.900 2.823 5.250 2.823 L 5.600 2.823 5.600 3.173 M9.774 7.201 L 9.100 7.874 9.100 9.549 L 9.100 11.223 7.426 11.223 L 5.751 11.223 5.063 11.913 L 4.375 12.603 6.965 12.593 C 8.870 12.585,9.584 12.575,9.664 12.555 C 9.933 12.486,10.242 12.226,10.375 11.955 C 10.448 11.808,10.461 11.755,10.478 11.534 C 10.509 11.137,10.505 6.563,10.474 6.544 C 10.460 6.535,10.162 6.815,9.774 7.201 M7.105 9.872 C 6.647 10.335,6.510 10.486,6.535 10.502 C 6.554 10.513,6.828 10.523,7.146 10.523 L 7.723 10.523 7.723 9.893 C 7.723 9.547,7.720 9.263,7.715 9.263 C 7.711 9.263,7.436 9.537,7.105 9.872 " fill="#1A1C1F" stroke="none" fill-rule="evenodd"></path></svg>