<svg width="24" height="24" viewBox="0 0 24 24" fill="none" xmlns="http://www.w3.org/2000/svg"><path d="M9.360 2.042 C 8.843 2.057,8.330 2.091,8.220 2.117 C 7.917 2.187,7.404 2.456,7.110 2.699 C 6.564 3.150,6.156 3.804,6.074 4.360 C 6.045 4.563,6.025 6.590,6.013 10.600 L 5.995 16.540 4.965 17.580 C 3.541 19.018,3.121 19.468,3.056 19.623 C 3.025 19.697,3.000 19.862,3.000 19.991 C 3.000 20.521,3.449 20.992,3.962 20.998 C 4.315 21.003,4.355 20.966,7.780 17.575 C 13.244 12.164,20.593 4.776,20.855 4.431 C 21.089 4.122,21.076 3.744,20.818 3.391 C 20.652 3.163,20.440 3.047,20.126 3.014 C 19.694 2.969,19.546 3.063,18.616 3.969 C 18.257 4.319,18.035 4.509,18.024 4.475 C 18.014 4.445,17.977 4.281,17.941 4.112 C 17.843 3.651,17.676 3.354,17.284 2.948 C 16.980 2.633,16.896 2.571,16.502 2.377 C 16.259 2.257,15.961 2.140,15.840 2.117 C 15.719 2.094,14.657 2.059,13.480 2.039 C 11.143 2.000,10.760 2.000,9.360 2.042 M10.019 4.148 C 10.079 4.470,10.308 4.771,10.608 4.924 C 10.759 5.001,10.827 5.005,11.993 4.992 C 13.081 4.980,13.239 4.971,13.391 4.905 C 13.609 4.810,13.846 4.540,13.949 4.271 L 14.029 4.060 14.688 4.060 C 15.337 4.060,15.348 4.062,15.510 4.168 C 15.716 4.305,15.879 4.516,15.920 4.702 C 15.938 4.781,15.965 5.236,15.980 5.713 L 16.007 6.580 12.003 10.580 L 8.000 14.580 8.004 12.220 C 8.006 10.922,8.020 8.687,8.034 7.253 L 8.060 4.647 8.181 4.475 C 8.343 4.244,8.582 4.083,8.822 4.042 C 8.931 4.024,9.238 4.007,9.506 4.005 L 9.991 4.000 10.019 4.148 M16.952 11.269 L 16.000 12.218 15.996 13.859 C 15.994 14.762,15.981 16.364,15.966 17.420 L 15.940 19.340 15.832 19.524 C 15.722 19.711,15.561 19.856,15.332 19.974 C 15.216 20.034,14.900 20.040,12.032 20.040 L 8.860 20.039 8.652 19.942 L 8.444 19.846 7.792 20.457 C 6.884 21.308,6.948 21.202,7.227 21.391 C 7.533 21.598,7.914 21.789,8.257 21.906 L 8.534 22.000 11.417 21.999 C 14.713 21.997,15.629 21.967,15.965 21.849 C 16.771 21.565,17.565 20.772,17.849 19.965 C 17.969 19.621,17.997 18.560,17.999 14.190 C 18.000 11.202,17.989 10.320,17.952 10.320 C 17.925 10.320,17.475 10.747,16.952 11.269 M11.370 16.858 C 10.902 17.335,10.520 17.751,10.520 17.782 C 10.520 17.813,10.579 17.869,10.650 17.908 C 10.763 17.968,10.937 17.979,12.004 17.993 C 13.387 18.010,13.334 18.020,13.686 17.690 C 13.897 17.493,14.000 17.247,14.000 16.941 C 14.000 16.727,13.834 16.393,13.652 16.243 C 13.469 16.093,13.285 16.049,12.699 16.016 L 12.220 15.989 11.370 16.858 " fill="#1A1C1F" stroke="none" fill-rule="evenodd"></path></svg>