<svg width="24" height="24" viewBox="0 0 24 24" fill="none" xmlns="http://www.w3.org/2000/svg"><path d="M8.540 2.038 L 7.460 2.060 7.180 2.199 C 6.803 2.385,6.377 2.807,6.209 3.161 C 6.032 3.531,6.001 3.807,6.000 4.962 L 6.000 5.983 5.190 6.030 C 4.295 6.081,4.106 6.122,3.640 6.363 C 3.042 6.673,2.600 7.134,2.282 7.780 C 2.196 7.956,2.104 8.199,2.079 8.320 C 2.047 8.471,2.027 9.619,2.013 12.000 L 1.993 15.460 2.120 15.820 C 2.490 16.870,3.156 17.530,4.200 17.881 C 4.419 17.955,4.582 17.972,5.225 17.990 L 5.990 18.011 6.011 19.176 C 6.035 20.479,6.065 20.671,6.301 21.029 C 6.499 21.328,6.837 21.646,7.086 21.766 C 7.541 21.986,7.399 21.980,12.020 21.980 C 16.005 21.980,16.318 21.975,16.559 21.909 C 16.889 21.817,17.125 21.665,17.435 21.342 C 17.925 20.832,17.999 20.517,18.000 18.956 L 18.000 18.012 18.770 17.990 C 19.418 17.972,19.581 17.955,19.800 17.881 C 20.420 17.673,20.946 17.322,21.297 16.885 C 21.571 16.544,21.723 16.267,21.880 15.820 L 22.007 15.460 21.987 12.000 C 21.973 9.629,21.953 8.471,21.921 8.320 C 21.896 8.199,21.804 7.956,21.718 7.780 C 21.400 7.134,20.958 6.673,20.360 6.363 C 19.894 6.122,19.705 6.081,18.810 6.030 L 18.000 5.983 18.000 5.042 C 17.999 3.858,17.962 3.519,17.795 3.155 C 17.629 2.796,17.193 2.369,16.807 2.188 L 16.543 2.065 15.182 2.035 C 13.664 2.002,10.195 2.004,8.540 2.038 M16.000 5.000 L 16.000 6.000 12.000 6.000 L 8.000 6.000 8.000 5.000 L 8.000 4.000 12.000 4.000 L 16.000 4.000 16.000 5.000 M19.465 8.129 C 19.614 8.210,19.774 8.393,19.882 8.604 C 19.957 8.752,19.960 8.862,19.960 12.000 C 19.960 15.168,19.958 15.247,19.880 15.400 C 19.764 15.627,19.563 15.843,19.401 15.913 C 19.302 15.956,19.073 15.979,18.635 15.992 L 18.010 16.009 17.982 15.817 C 17.939 15.532,17.805 15.127,17.698 14.957 C 17.530 14.691,17.156 14.362,16.847 14.210 L 16.554 14.065 15.407 14.035 C 13.930 13.997,10.070 13.997,8.593 14.035 L 7.446 14.065 7.153 14.210 C 6.844 14.362,6.470 14.691,6.302 14.957 C 6.195 15.127,6.061 15.532,6.018 15.817 L 5.990 16.009 5.365 15.991 C 5.015 15.980,4.687 15.951,4.620 15.924 C 4.459 15.859,4.253 15.656,4.146 15.460 C 4.060 15.300,4.060 15.294,4.048 12.070 C 4.041 9.872,4.051 8.789,4.080 8.682 C 4.105 8.588,4.202 8.437,4.315 8.314 L 4.507 8.105 4.823 8.078 C 4.998 8.063,8.335 8.053,12.240 8.056 C 18.865 8.060,19.348 8.065,19.465 8.129 M7.200 10.040 C 6.590 10.066,6.492 10.100,6.269 10.361 C 5.946 10.738,5.948 11.289,6.275 11.652 C 6.559 11.967,6.617 11.978,8.007 11.993 C 9.179 12.005,9.240 12.002,9.394 11.923 C 9.861 11.685,10.092 11.179,9.942 10.726 C 9.852 10.456,9.563 10.134,9.367 10.085 C 9.177 10.037,7.893 10.011,7.200 10.040 M16.000 18.000 L 16.000 20.000 12.000 20.000 L 8.000 20.000 8.000 18.000 L 8.000 16.000 12.000 16.000 L 16.000 16.000 16.000 18.000 " fill="#1A1C1F" stroke="none" fill-rule="evenodd"></path></svg>