<svg width="16" height="16" viewBox="0 0 16 16" fill="none" xmlns="http://www.w3.org/2000/svg"><path d="M5.400 1.652 C 5.171 1.712,4.986 1.862,4.880 2.072 C 4.819 2.191,4.814 2.234,4.804 2.700 L 4.794 3.200 4.137 3.202 C 3.776 3.203,3.264 3.213,3.000 3.224 C 2.536 3.244,2.515 3.247,2.360 3.326 C 2.032 3.493,1.785 3.788,1.673 4.146 L 1.614 4.333 1.614 7.107 C 1.613 10.171,1.611 10.121,1.781 10.461 C 1.899 10.698,2.165 10.970,2.378 11.073 C 2.603 11.182,2.800 11.199,3.844 11.199 L 4.795 11.200 4.805 12.513 C 4.814 13.676,4.820 13.838,4.860 13.928 C 4.922 14.068,5.176 14.310,5.300 14.348 C 5.370 14.369,6.166 14.383,8.001 14.393 C 10.323 14.405,10.611 14.402,10.683 14.365 C 10.805 14.302,11.026 14.094,11.118 13.955 L 11.200 13.831 11.200 12.518 L 11.200 11.205 12.287 11.194 C 13.323 11.183,13.381 11.180,13.531 11.125 C 13.875 10.998,14.142 10.708,14.307 10.280 L 14.406 10.026 14.392 7.193 C 14.383 5.167,14.370 4.326,14.348 4.240 C 14.252 3.869,13.964 3.504,13.642 3.345 C 13.471 3.261,13.417 3.248,13.132 3.226 C 12.957 3.212,12.452 3.201,12.010 3.201 L 11.206 3.200 11.195 2.700 C 11.185 2.259,11.177 2.187,11.128 2.093 C 11.070 1.983,10.835 1.743,10.719 1.677 C 10.664 1.646,10.233 1.639,8.067 1.636 C 6.644 1.633,5.444 1.641,5.400 1.652 M12.800 7.200 L 12.800 9.600 12.003 9.600 L 11.205 9.600 11.196 9.127 C 11.187 8.671,11.184 8.648,11.112 8.501 C 11.033 8.340,10.856 8.163,10.688 8.077 C 10.593 8.029,10.490 8.027,8.000 8.027 C 5.510 8.027,5.407 8.029,5.312 8.077 C 5.155 8.158,4.978 8.329,4.893 8.484 C 4.816 8.625,4.814 8.634,4.804 9.113 L 4.794 9.600 3.997 9.600 L 3.200 9.600 3.200 7.200 L 3.200 4.800 8.000 4.800 L 12.800 4.800 12.800 7.200 M9.600 11.200 L 9.600 12.800 8.000 12.800 L 6.400 12.800 6.400 11.200 L 6.400 9.600 8.000 9.600 L 9.600 9.600 9.600 11.200 " fill="#1A1C1F" stroke="none" fill-rule="evenodd"></path></svg>