<svg width="12" height="12" viewBox="0 0 12 12" fill="none" xmlns="http://www.w3.org/2000/svg"><path d="M3.440 1.239 C 3.379 1.247,3.310 1.264,3.287 1.276 C 3.211 1.317,3.068 1.494,3.043 1.578 C 3.029 1.623,3.010 1.825,3.000 2.025 C 2.989 2.226,2.981 2.391,2.981 2.392 C 2.980 2.393,2.733 2.399,2.431 2.404 L 1.881 2.415 1.746 2.496 C 1.502 2.641,1.346 2.837,1.241 3.131 L 1.198 3.252 1.205 5.111 C 1.213 7.152,1.208 7.079,1.334 7.297 C 1.420 7.444,1.599 7.607,1.768 7.691 C 1.952 7.782,2.075 7.797,2.614 7.799 L 2.999 7.800 3.004 9.105 C 3.011 10.574,2.998 10.460,3.170 10.618 C 3.221 10.665,3.311 10.725,3.369 10.752 L 3.476 10.801 6.043 10.795 C 8.940 10.789,8.653 10.807,8.827 10.621 C 8.999 10.438,8.988 10.534,8.996 9.087 L 9.003 7.804 9.507 7.795 C 9.951 7.787,10.025 7.781,10.140 7.743 C 10.307 7.688,10.444 7.584,10.575 7.409 C 10.724 7.212,10.761 7.102,10.781 6.790 C 10.803 6.452,10.803 3.572,10.781 3.303 C 10.766 3.125,10.754 3.075,10.692 2.950 C 10.610 2.785,10.444 2.616,10.249 2.500 C 10.108 2.416,10.008 2.404,9.415 2.402 L 9.020 2.400 9.019 2.325 C 9.016 2.030,8.980 1.600,8.955 1.538 C 8.916 1.446,8.799 1.333,8.683 1.276 L 8.590 1.230 6.070 1.227 C 4.684 1.225,3.500 1.231,3.440 1.239 M4.800 4.200 L 4.800 4.800 3.900 4.800 L 3.000 4.800 3.000 4.200 L 3.000 3.600 3.900 3.600 L 4.800 3.600 4.800 4.200 M7.800 8.100 L 7.800 9.600 6.000 9.600 L 4.200 9.600 4.200 8.100 L 4.200 6.600 6.000 6.600 L 7.800 6.600 7.800 8.100 " fill="#1A1C1F" stroke="none" fill-rule="evenodd"></path></svg>