<svg width="32" height="32" viewBox="0 0 32 32" fill="none" xmlns="http://www.w3.org/2000/svg"><path d="M9.175 2.210 C 8.712 2.466,8.406 2.778,8.184 3.220 L 8.000 3.588 8.000 4.807 L 8.000 6.027 6.600 6.028 C 4.643 6.030,4.251 6.074,3.686 6.352 C 2.932 6.724,2.397 7.371,2.077 8.301 C 1.977 8.593,1.973 8.791,1.973 14.000 C 1.973 19.209,1.977 19.407,2.077 19.699 C 2.355 20.506,2.805 21.124,3.375 21.479 C 4.153 21.964,4.502 22.023,6.627 22.025 L 8.000 22.027 8.000 25.213 L 8.000 28.400 8.160 28.737 C 8.365 29.170,8.825 29.632,9.275 29.857 L 9.617 30.027 16.000 30.027 L 22.383 30.027 22.725 29.857 C 23.175 29.632,23.635 29.170,23.840 28.737 L 24.000 28.400 24.000 25.220 L 24.000 22.040 25.747 22.015 C 27.380 21.991,27.516 21.982,27.840 21.870 C 28.347 21.696,28.705 21.474,29.087 21.098 C 29.484 20.707,29.652 20.437,29.868 19.845 L 30.027 19.410 30.027 14.000 L 30.027 8.589 29.894 8.237 C 29.535 7.282,29.065 6.722,28.314 6.352 C 27.749 6.074,27.357 6.030,25.400 6.028 L 24.000 6.027 24.000 4.813 L 24.000 3.600 23.848 3.280 C 23.643 2.848,23.275 2.455,22.881 2.245 L 22.555 2.071 16.037 2.045 L 9.520 2.020 9.175 2.210 M21.973 5.013 L 21.973 6.027 16.000 6.027 L 10.027 6.027 10.027 5.013 L 10.027 4.000 16.000 4.000 L 21.973 4.000 21.973 5.013 M27.693 8.311 L 27.947 8.556 27.947 13.973 L 27.947 19.389 27.777 19.594 C 27.477 19.959,27.421 19.969,25.613 19.990 L 24.000 20.008 24.000 18.776 C 24.000 17.556,23.999 17.540,23.862 17.271 C 23.682 16.916,23.305 16.514,22.912 16.258 L 22.597 16.053 16.000 16.053 L 9.403 16.053 9.088 16.258 C 8.695 16.514,8.318 16.916,8.138 17.271 C 8.001 17.540,8.000 17.556,8.000 18.776 L 8.000 20.008 6.387 19.990 C 4.602 19.970,4.554 19.961,4.227 19.618 L 4.054 19.436 4.022 15.225 C 3.990 10.966,4.033 8.715,4.151 8.496 C 4.186 8.431,4.303 8.311,4.410 8.229 L 4.605 8.080 7.889 8.049 C 9.695 8.032,14.833 8.029,19.307 8.042 L 27.440 8.066 27.693 8.311 M9.067 10.075 C 8.486 10.111,8.294 10.207,8.127 10.546 C 7.904 10.999,8.053 11.524,8.496 11.845 L 8.709 12.000 10.984 12.000 L 13.259 12.000 13.472 11.862 C 13.940 11.558,14.097 11.027,13.857 10.560 C 13.656 10.172,13.502 10.103,12.743 10.062 C 11.992 10.021,9.813 10.029,9.067 10.075 M21.973 23.013 L 21.973 28.000 16.000 28.000 L 10.027 28.000 10.027 23.013 L 10.027 18.027 16.000 18.027 L 21.973 18.027 21.973 23.013 M12.346 20.280 C 12.051 20.623,11.983 20.782,12.020 21.049 C 12.072 21.434,12.236 21.687,12.547 21.866 L 12.827 22.026 15.333 22.023 C 18.284 22.019,19.257 21.979,19.507 21.848 C 19.729 21.731,19.948 21.401,19.985 21.125 C 20.022 20.848,19.808 20.390,19.549 20.192 L 19.367 20.053 15.954 20.053 L 12.542 20.053 12.346 20.280 M12.346 24.280 C 12.051 24.623,11.983 24.782,12.020 25.049 C 12.072 25.434,12.236 25.687,12.547 25.866 L 12.827 26.026 15.333 26.023 C 18.284 26.019,19.257 25.979,19.507 25.848 C 19.729 25.731,19.948 25.401,19.985 25.125 C 20.022 24.848,19.808 24.390,19.549 24.192 L 19.367 24.053 15.954 24.053 L 12.542 24.053 12.346 24.280 " fill="#1A1C1F" stroke="none" fill-rule="evenodd"></path></svg>