<svg width="20" height="20" viewBox="0 0 20 20" fill="none" xmlns="http://www.w3.org/2000/svg"><path d="M6.750 2.065 C 6.464 2.141,6.232 2.327,6.099 2.589 C 6.024 2.739,6.017 2.792,6.005 3.375 L 5.993 4.000 5.155 4.002 C 4.694 4.003,4.054 4.016,3.733 4.030 C 3.163 4.055,3.145 4.058,2.934 4.165 C 2.679 4.295,2.356 4.609,2.225 4.854 C 2.011 5.255,2.019 5.100,2.018 8.900 C 2.017 12.713,2.014 12.651,2.226 13.076 C 2.374 13.373,2.706 13.713,2.972 13.841 C 3.254 13.977,3.500 13.999,4.805 13.999 L 5.994 14.000 6.006 15.642 C 6.019 17.507,6.004 17.405,6.308 17.710 C 6.594 17.997,6.308 17.975,9.968 17.993 L 13.219 18.009 13.394 17.920 C 13.614 17.808,13.807 17.617,13.916 17.402 L 14.000 17.236 14.000 15.621 L 14.000 14.006 15.358 13.992 C 16.573 13.980,16.734 13.972,16.883 13.917 C 17.115 13.832,17.286 13.718,17.473 13.527 C 17.673 13.322,17.774 13.150,17.904 12.795 L 18.006 12.517 17.991 8.967 C 17.974 5.001,17.991 5.270,17.734 4.833 C 17.569 4.551,17.289 4.289,17.019 4.163 C 16.740 4.032,16.363 4.002,15.012 4.001 L 14.007 4.000 13.994 3.375 C 13.983 2.849,13.971 2.732,13.919 2.633 C 13.813 2.433,13.673 2.278,13.492 2.162 L 13.318 2.050 10.084 2.044 C 8.305 2.041,6.805 2.051,6.750 2.065 M16.000 9.000 L 16.000 12.000 15.003 12.000 L 14.006 12.000 13.995 11.408 C 13.984 10.839,13.980 10.809,13.890 10.626 C 13.791 10.425,13.570 10.204,13.360 10.097 C 13.241 10.036,13.112 10.033,10.000 10.033 C 6.888 10.033,6.759 10.036,6.640 10.097 C 6.443 10.197,6.223 10.412,6.116 10.605 C 6.020 10.781,6.018 10.792,6.005 11.392 L 5.993 12.000 4.996 12.000 L 4.000 12.000 4.000 9.000 L 4.000 6.000 10.000 6.000 L 16.000 6.000 16.000 9.000 M12.000 14.000 L 12.000 16.000 10.000 16.000 L 8.000 16.000 8.000 14.000 L 8.000 12.000 10.000 12.000 L 12.000 12.000 12.000 14.000 " fill="#1A1C1F" stroke="none" fill-rule="evenodd"></path></svg>