<svg width="14" height="14" viewBox="0 0 14 14" fill="none" xmlns="http://www.w3.org/2000/svg"><path d="M4.021 1.445 C 3.941 1.455,3.850 1.480,3.818 1.501 C 3.730 1.559,3.585 1.741,3.551 1.839 C 3.528 1.907,3.503 2.224,3.477 2.780 C 3.477 2.788,3.196 2.799,2.853 2.804 L 2.228 2.814 2.063 2.901 C 1.785 3.048,1.605 3.260,1.470 3.601 L 1.397 3.783 1.406 5.957 C 1.415 8.344,1.410 8.259,1.557 8.513 C 1.656 8.685,1.866 8.875,2.062 8.973 C 2.277 9.079,2.421 9.097,3.051 9.099 L 3.500 9.100 3.500 10.612 L 3.500 12.124 3.566 12.228 C 3.652 12.363,3.783 12.477,3.934 12.546 L 4.055 12.601 7.050 12.595 C 10.430 12.588,10.095 12.608,10.298 12.392 C 10.512 12.163,10.499 12.277,10.499 10.590 L 10.500 9.105 11.089 9.094 C 11.607 9.085,11.697 9.078,11.830 9.034 C 12.027 8.970,12.226 8.810,12.370 8.598 C 12.521 8.378,12.553 8.276,12.577 7.933 C 12.604 7.556,12.605 4.143,12.578 3.841 C 12.561 3.648,12.543 3.582,12.474 3.443 C 12.375 3.242,12.197 3.063,11.952 2.918 L 11.782 2.817 11.153 2.805 L 10.523 2.793 10.522 2.709 C 10.517 2.322,10.478 1.843,10.446 1.783 C 10.402 1.698,10.261 1.565,10.138 1.491 L 10.045 1.435 7.105 1.432 C 5.488 1.430,4.100 1.436,4.021 1.445 M5.600 4.900 L 5.600 5.600 4.550 5.600 L 3.500 5.600 3.500 4.900 L 3.500 4.200 4.550 4.200 L 5.600 4.200 5.600 4.900 M9.100 9.450 L 9.100 11.200 7.000 11.200 L 4.900 11.200 4.900 9.450 L 4.900 7.700 7.000 7.700 L 9.100 7.700 9.100 9.450 " fill="#1A1C1F" stroke="none" fill-rule="evenodd"></path></svg>