<svg width="28" height="28" viewBox="0 0 28 28" fill="none" xmlns="http://www.w3.org/2000/svg"><path d="M8.028 1.934 C 7.623 2.158,7.355 2.431,7.161 2.818 L 7.000 3.139 7.000 4.206 L 7.000 5.273 5.775 5.275 C 4.062 5.276,3.719 5.314,3.225 5.558 C 2.565 5.883,2.098 6.450,1.818 7.264 C 1.730 7.519,1.727 7.692,1.727 12.259 L 1.727 16.990 1.867 17.352 C 2.142 18.067,2.433 18.454,2.940 18.781 C 3.619 19.218,3.924 19.271,5.775 19.273 L 7.000 19.273 7.000 22.062 L 7.000 24.850 7.140 25.145 C 7.319 25.524,7.722 25.928,8.116 26.124 L 8.415 26.273 14.000 26.273 L 19.585 26.273 19.884 26.124 C 20.278 25.928,20.681 25.524,20.860 25.145 L 21.000 24.850 21.000 22.067 L 21.000 19.284 22.528 19.263 C 23.961 19.243,24.076 19.236,24.360 19.137 C 24.804 18.984,25.117 18.789,25.451 18.461 C 25.798 18.118,25.945 17.882,26.135 17.364 L 26.273 16.984 26.273 12.256 C 26.273 7.692,26.270 7.519,26.182 7.264 C 25.902 6.450,25.435 5.883,24.775 5.558 C 24.281 5.314,23.938 5.276,22.225 5.275 L 21.000 5.273 21.000 4.212 L 21.000 3.150 20.867 2.870 C 20.688 2.493,20.366 2.148,20.022 1.965 L 19.739 1.814 14.034 1.790 L 8.330 1.767 8.028 1.934 M19.227 4.387 L 19.227 5.273 14.000 5.273 L 8.773 5.273 8.773 4.387 L 8.773 3.500 14.000 3.500 L 19.227 3.500 19.227 4.387 M24.232 7.272 L 24.453 7.486 24.453 12.226 L 24.453 16.965 24.305 17.145 C 24.042 17.464,23.994 17.473,22.412 17.491 L 21.000 17.507 21.000 16.429 C 21.000 15.361,20.999 15.348,20.879 15.112 C 20.722 14.802,20.392 14.450,20.048 14.226 L 19.772 14.047 14.010 14.047 L 8.248 14.047 8.006 14.185 C 7.697 14.362,7.280 14.799,7.122 15.109 C 7.001 15.348,7.000 15.358,7.000 16.429 L 7.000 17.507 5.588 17.491 C 4.026 17.473,3.985 17.466,3.699 17.165 L 3.547 17.006 3.520 13.345 C 3.492 9.625,3.530 7.624,3.632 7.434 C 3.663 7.377,3.765 7.272,3.859 7.200 L 4.029 7.070 6.856 7.043 C 8.411 7.028,12.907 7.025,16.847 7.036 L 24.010 7.057 24.232 7.272 M7.933 8.816 C 7.425 8.847,7.258 8.931,7.111 9.227 C 6.916 9.624,7.046 10.084,7.434 10.364 L 7.621 10.500 9.611 10.500 L 11.601 10.500 11.788 10.379 C 12.197 10.114,12.335 9.648,12.125 9.240 C 11.953 8.907,11.810 8.840,11.192 8.804 C 10.579 8.769,8.581 8.776,7.933 8.816 M19.227 20.137 L 19.227 24.500 14.000 24.500 L 8.773 24.500 8.773 20.137 L 8.773 15.773 14.000 15.773 L 19.227 15.773 19.227 20.137 M11.868 17.531 L 10.972 17.549 10.802 17.746 C 10.544 18.045,10.485 18.185,10.517 18.418 C 10.563 18.755,10.706 18.976,10.979 19.132 L 11.223 19.272 13.974 19.273 C 16.655 19.273,16.729 19.271,16.922 19.177 C 17.547 18.875,17.671 18.228,17.195 17.753 L 16.989 17.547 16.370 17.547 C 16.029 17.547,15.078 17.539,14.257 17.530 C 13.435 17.521,12.360 17.522,11.868 17.531 M11.868 21.031 L 10.972 21.049 10.802 21.246 C 10.544 21.545,10.485 21.685,10.517 21.918 C 10.563 22.255,10.706 22.476,10.979 22.632 L 11.223 22.772 13.974 22.773 C 16.655 22.773,16.729 22.771,16.922 22.677 C 17.547 22.375,17.671 21.728,17.195 21.253 L 16.989 21.047 16.370 21.047 C 16.029 21.047,15.078 21.039,14.257 21.030 C 13.435 21.021,12.360 21.022,11.868 21.031 " fill="#1A1C1F" stroke="none" fill-rule="evenodd"></path></svg>