<svg width="20" height="20" viewBox="0 0 20 20" fill="none" xmlns="http://www.w3.org/2000/svg"><path d="M5.750 2.065 C 5.500 2.094,5.444 2.124,5.260 2.329 C 5.039 2.575,5.035 2.600,4.968 3.970 C 4.967 3.981,4.555 3.998,4.051 4.007 L 3.136 4.024 2.909 4.159 C 2.503 4.402,2.243 4.728,2.068 5.218 L 1.996 5.419 2.008 8.518 C 2.021 11.920,2.014 11.798,2.224 12.161 C 2.366 12.407,2.665 12.679,2.946 12.818 C 3.253 12.969,3.458 12.996,4.357 12.998 L 4.998 13.000 5.007 15.175 C 5.018 17.623,4.997 17.433,5.283 17.696 C 5.369 17.775,5.518 17.876,5.615 17.920 L 5.793 18.001 10.071 17.992 C 14.900 17.982,14.422 18.012,14.711 17.702 C 15.017 17.376,14.998 17.539,14.999 15.129 L 15.000 13.007 15.842 12.992 C 16.582 12.979,16.709 12.968,16.900 12.906 C 17.182 12.815,17.465 12.586,17.672 12.283 C 17.885 11.972,17.932 11.824,17.968 11.350 C 18.006 10.843,18.007 5.966,17.968 5.505 C 17.944 5.209,17.923 5.125,17.821 4.919 C 17.679 4.631,17.425 4.377,17.073 4.168 L 16.829 4.023 15.931 4.007 L 15.033 3.991 15.033 3.904 C 15.029 3.529,14.964 2.664,14.934 2.583 C 14.882 2.446,14.684 2.249,14.479 2.131 L 14.309 2.033 10.129 2.038 C 7.831 2.040,5.860 2.053,5.750 2.065 M8.000 7.000 L 8.000 8.000 6.500 8.000 L 5.000 8.000 5.000 7.000 L 5.000 6.000 6.500 6.000 L 8.000 6.000 8.000 7.000 M13.000 13.500 L 13.000 16.000 10.000 16.000 L 7.000 16.000 7.000 13.500 L 7.000 11.000 10.000 11.000 L 13.000 11.000 13.000 13.500 " fill="#1A1C1F" stroke="none" fill-rule="evenodd"></path></svg>