<svg width="12" height="12" viewBox="0 0 12 12" fill="none" xmlns="http://www.w3.org/2000/svg"><path d="M4.050 1.238 C 3.937 1.266,3.842 1.324,3.759 1.413 C 3.624 1.560,3.613 1.602,3.604 2.025 L 3.596 2.400 3.083 2.401 C 2.801 2.402,2.417 2.409,2.230 2.418 C 1.900 2.433,1.886 2.436,1.761 2.499 C 1.608 2.577,1.414 2.765,1.335 2.912 C 1.206 3.153,1.211 3.060,1.211 5.340 C 1.210 7.628,1.208 7.591,1.336 7.846 C 1.425 8.024,1.623 8.228,1.783 8.305 C 1.952 8.386,2.100 8.399,2.883 8.400 L 3.597 8.400 3.603 9.385 C 3.611 10.502,3.602 10.443,3.781 10.623 C 3.964 10.806,3.753 10.789,5.974 10.796 L 7.939 10.801 8.040 10.750 C 8.162 10.688,8.282 10.572,8.344 10.456 C 8.390 10.370,8.390 10.368,8.396 9.387 L 8.401 8.403 9.216 8.395 C 9.944 8.388,10.041 8.383,10.130 8.350 C 10.268 8.300,10.359 8.239,10.477 8.121 C 10.602 7.996,10.663 7.894,10.742 7.677 L 10.804 7.510 10.795 5.380 C 10.784 3.001,10.795 3.162,10.640 2.900 C 10.541 2.731,10.373 2.573,10.212 2.498 C 10.044 2.419,9.818 2.401,9.007 2.400 L 8.404 2.400 8.396 2.025 C 8.390 1.708,8.383 1.639,8.351 1.580 C 8.287 1.459,8.221 1.386,8.106 1.307 L 7.995 1.230 6.053 1.227 C 4.984 1.225,4.083 1.230,4.050 1.238 M9.600 5.400 L 9.600 7.200 9.002 7.200 L 8.404 7.200 8.397 6.845 C 8.390 6.503,8.388 6.486,8.334 6.376 C 8.275 6.255,8.142 6.122,8.016 6.058 C 7.944 6.021,7.867 6.020,6.000 6.020 C 4.133 6.020,4.056 6.021,3.984 6.058 C 3.858 6.122,3.725 6.255,3.666 6.376 C 3.612 6.486,3.610 6.503,3.603 6.845 L 3.596 7.200 2.998 7.200 L 2.400 7.200 2.400 5.400 L 2.400 3.600 6.000 3.600 L 9.600 3.600 9.600 5.400 M7.200 8.400 L 7.200 9.600 6.000 9.600 L 4.800 9.600 4.800 8.400 L 4.800 7.200 6.000 7.200 L 7.200 7.200 7.200 8.400 " fill="#1A1C1F" stroke="none" fill-rule="evenodd"></path></svg>