<svg width="14" height="14" viewBox="0 0 14 14" fill="none" xmlns="http://www.w3.org/2000/svg"><path d="M4.725 1.445 C 4.594 1.477,4.482 1.544,4.386 1.649 C 4.230 1.818,4.217 1.869,4.205 2.363 L 4.194 2.800 3.468 2.800 C 2.526 2.801,2.259 2.822,2.068 2.912 C 1.791 3.043,1.563 3.313,1.464 3.628 L 1.412 3.792 1.412 6.218 C 1.412 8.900,1.409 8.856,1.558 9.153 C 1.662 9.361,1.894 9.599,2.081 9.689 C 2.278 9.784,2.450 9.799,3.364 9.800 L 4.196 9.800 4.204 10.949 C 4.213 12.255,4.203 12.184,4.415 12.397 C 4.615 12.598,4.416 12.583,6.978 12.595 L 9.253 12.606 9.354 12.555 C 9.494 12.483,9.653 12.331,9.732 12.192 L 9.800 12.075 9.800 10.939 L 9.800 9.804 10.751 9.794 C 11.601 9.786,11.714 9.781,11.818 9.743 C 12.159 9.618,12.394 9.354,12.542 8.932 L 12.605 8.752 12.594 6.284 C 12.582 3.526,12.591 3.681,12.415 3.383 C 12.297 3.185,12.102 3.002,11.913 2.914 C 11.719 2.823,11.452 2.802,10.497 2.801 L 9.806 2.800 9.795 2.363 C 9.787 1.977,9.780 1.914,9.737 1.832 C 9.687 1.735,9.481 1.525,9.379 1.468 C 9.331 1.440,8.954 1.434,7.058 1.431 C 5.814 1.429,4.764 1.435,4.725 1.445 M11.200 6.300 L 11.200 8.400 10.502 8.400 L 9.805 8.400 9.796 7.986 C 9.789 7.587,9.786 7.567,9.723 7.438 C 9.654 7.297,9.499 7.143,9.352 7.068 C 9.269 7.025,9.178 7.023,7.000 7.023 C 4.822 7.023,4.731 7.025,4.648 7.068 C 4.501 7.143,4.346 7.297,4.277 7.438 C 4.214 7.567,4.211 7.587,4.204 7.986 L 4.195 8.400 3.498 8.400 L 2.800 8.400 2.800 6.300 L 2.800 4.200 7.000 4.200 L 11.200 4.200 11.200 6.300 M8.400 9.800 L 8.400 11.200 7.000 11.200 L 5.600 11.200 5.600 9.800 L 5.600 8.400 7.000 8.400 L 8.400 8.400 8.400 9.800 " fill="#1A1C1F" stroke="none" fill-rule="evenodd"></path></svg>