<svg width="16" height="16" viewBox="0 0 16 16" fill="none" xmlns="http://www.w3.org/2000/svg"><path d="M4.600 1.652 C 4.512 1.662,4.414 1.685,4.382 1.702 C 4.285 1.754,4.089 1.998,4.056 2.109 C 4.039 2.167,4.013 2.433,4.000 2.700 C 3.986 2.968,3.975 3.190,3.974 3.193 C 3.974 3.197,3.724 3.201,3.420 3.202 C 2.627 3.205,2.498 3.220,2.309 3.334 C 2.008 3.515,1.809 3.766,1.667 4.143 L 1.600 4.321 1.601 6.621 C 1.601 7.899,1.613 9.038,1.627 9.186 C 1.648 9.401,1.671 9.489,1.747 9.649 C 1.868 9.905,2.085 10.120,2.357 10.254 C 2.602 10.376,2.767 10.397,3.486 10.399 L 3.998 10.400 4.006 12.140 C 4.014 14.098,3.998 13.946,4.226 14.157 C 4.294 14.219,4.412 14.300,4.488 14.335 L 4.627 14.399 8.049 14.400 L 11.470 14.400 11.583 14.322 C 11.646 14.279,11.742 14.194,11.797 14.133 C 11.992 13.917,11.982 14.018,11.995 12.116 L 12.006 10.406 12.676 10.394 C 13.268 10.383,13.367 10.375,13.520 10.325 C 13.741 10.252,13.958 10.082,14.120 9.854 C 14.302 9.600,14.348 9.457,14.375 9.067 C 14.405 8.635,14.405 4.764,14.375 4.404 C 14.355 4.167,14.338 4.100,14.256 3.934 C 14.147 3.714,13.926 3.488,13.667 3.334 C 13.473 3.219,13.348 3.203,12.593 3.201 L 12.027 3.200 12.025 3.113 C 12.019 2.694,11.974 2.133,11.939 2.051 C 11.886 1.922,11.741 1.782,11.583 1.704 L 11.453 1.640 8.107 1.636 C 6.266 1.634,4.688 1.641,4.600 1.652 M6.400 5.600 L 6.400 6.400 5.200 6.400 L 4.000 6.400 4.000 5.600 L 4.000 4.800 5.200 4.800 L 6.400 4.800 6.400 5.600 M10.400 10.800 L 10.400 12.800 8.000 12.800 L 5.600 12.800 5.600 10.800 L 5.600 8.800 8.000 8.800 L 10.400 8.800 10.400 10.800 " fill="#1A1C1F" stroke="none" fill-rule="evenodd"></path></svg>