<svg width="16" height="16" viewBox="0 0 16 16" fill="none" xmlns="http://www.w3.org/2000/svg"><path d="M4.537 1.868 C 4.084 1.949,3.541 2.273,3.114 2.715 C 2.595 3.254,2.237 3.865,2.009 4.603 C 1.938 4.831,1.935 4.863,1.934 5.427 C 1.934 5.820,1.945 6.066,1.969 6.173 C 2.328 7.794,3.335 9.480,4.892 11.063 C 6.414 12.611,8.011 13.632,9.503 14.012 C 10.505 14.267,11.211 14.197,12.095 13.753 C 13.360 13.117,14.223 11.894,14.079 10.939 C 14.033 10.634,13.918 10.360,13.751 10.159 C 13.319 9.638,12.343 8.708,12.115 8.599 C 11.755 8.428,11.248 8.475,10.904 8.713 C 10.840 8.757,10.504 9.070,10.158 9.408 L 9.529 10.023 9.185 9.729 C 8.596 9.227,8.168 8.827,7.587 8.236 C 7.059 7.700,6.093 6.656,6.045 6.570 C 6.011 6.510,6.077 6.426,6.505 5.987 C 7.322 5.149,7.372 5.086,7.464 4.788 C 7.541 4.539,7.538 4.255,7.457 4.024 C 7.359 3.746,7.278 3.643,6.515 2.824 C 5.910 2.174,5.687 2.003,5.316 1.907 C 5.119 1.855,4.719 1.836,4.537 1.868 " fill="#1A1C1F" stroke="none" fill-rule="evenodd"></path></svg>