<svg width="20" height="20" viewBox="0 0 20 20" fill="none" xmlns="http://www.w3.org/2000/svg"><path d="M5.614 2.347 C 5.031 2.481,4.400 2.863,3.898 3.388 C 3.097 4.227,2.581 5.211,2.433 6.183 C 2.153 8.031,3.239 10.563,5.371 13.033 C 5.818 13.551,6.754 14.483,7.270 14.923 C 8.730 16.168,10.280 17.063,11.670 17.464 C 12.788 17.788,13.667 17.775,14.600 17.424 C 16.419 16.739,17.800 15.015,17.600 13.680 C 17.542 13.293,17.399 12.952,17.189 12.698 C 16.651 12.050,15.429 10.884,15.147 10.750 C 14.744 10.559,14.261 10.574,13.826 10.792 C 13.566 10.922,13.392 11.074,12.500 11.956 L 11.917 12.533 11.483 12.162 C 10.780 11.561,10.157 10.980,9.498 10.311 C 8.892 9.697,7.772 8.490,7.608 8.275 C 7.527 8.169,7.527 8.165,7.585 8.075 C 7.617 8.025,7.863 7.758,8.132 7.483 C 9.152 6.436,9.215 6.357,9.330 5.985 C 9.428 5.670,9.423 5.320,9.318 5.021 C 9.196 4.677,9.110 4.567,8.144 3.530 C 7.387 2.717,7.109 2.504,6.642 2.383 C 6.360 2.309,5.857 2.292,5.614 2.347 " fill="#1A1C1F" stroke="none" fill-rule="evenodd"></path></svg>