<svg width="14" height="14" viewBox="0 0 14 14" fill="none" xmlns="http://www.w3.org/2000/svg"><path d="M3.930 1.644 C 3.758 1.682,3.503 1.789,3.307 1.903 C 2.643 2.293,2.027 3.137,1.760 4.025 C 1.703 4.212,1.695 4.282,1.686 4.667 C 1.674 5.160,1.697 5.342,1.832 5.811 C 2.267 7.325,3.472 9.051,5.030 10.392 C 6.163 11.367,7.262 11.993,8.315 12.261 C 9.192 12.484,9.810 12.422,10.583 12.034 C 11.691 11.477,12.445 10.410,12.320 9.576 C 12.287 9.355,12.183 9.077,12.085 8.948 C 11.822 8.601,10.803 7.620,10.608 7.526 C 10.318 7.387,9.987 7.399,9.662 7.562 C 9.502 7.642,9.419 7.714,8.910 8.211 L 8.337 8.771 8.036 8.513 C 7.516 8.069,7.144 7.721,6.638 7.206 C 6.173 6.733,5.331 5.823,5.289 5.749 C 5.259 5.696,5.306 5.639,5.839 5.086 C 6.111 4.804,6.362 4.531,6.397 4.478 C 6.508 4.313,6.563 4.137,6.575 3.906 C 6.597 3.470,6.519 3.344,5.674 2.438 C 5.191 1.921,4.905 1.712,4.608 1.659 C 4.377 1.617,4.076 1.611,3.930 1.644 " fill="#1A1C1F" stroke="none" fill-rule="evenodd"></path></svg>