<svg width="14" height="14" viewBox="0 0 14 14" fill="none" xmlns="http://www.w3.org/2000/svg"><path d="M3.792 1.688 C 2.922 1.971,2.109 2.888,1.787 3.951 C 1.527 4.806,1.690 5.781,2.298 7.012 C 2.619 7.662,3.029 8.281,3.551 8.905 C 3.832 9.242,4.633 10.049,4.982 10.347 C 6.228 11.412,7.569 12.115,8.766 12.332 C 9.086 12.390,9.565 12.403,9.788 12.360 C 10.320 12.258,10.831 11.968,11.354 11.472 C 11.785 11.064,12.085 10.652,12.232 10.265 C 12.303 10.078,12.307 10.052,12.307 9.742 C 12.309 9.154,12.263 9.087,11.038 7.861 C 10.257 7.080,10.092 6.926,9.963 6.858 L 9.812 6.778 9.485 6.778 C 9.176 6.778,9.152 6.782,9.041 6.840 C 8.900 6.915,8.760 7.035,8.396 7.393 L 8.123 7.661 7.899 7.480 C 7.360 7.041,6.943 6.612,6.511 6.050 L 6.364 5.858 6.662 5.548 C 7.189 5.002,7.243 4.902,7.244 4.468 C 7.245 4.070,7.207 3.994,6.760 3.521 C 6.383 3.122,5.764 2.507,5.322 2.091 C 4.900 1.695,4.750 1.632,4.226 1.634 C 4.010 1.635,3.922 1.646,3.792 1.688 M4.964 3.646 C 5.350 4.034,5.694 4.386,5.729 4.427 L 5.790 4.503 5.503 4.801 C 5.194 5.122,4.932 5.413,4.869 5.506 C 4.841 5.548,4.830 5.615,4.830 5.752 C 4.830 5.927,4.837 5.954,4.929 6.138 C 5.406 7.088,7.005 8.691,7.900 9.116 C 8.153 9.236,8.223 9.239,8.432 9.140 C 8.613 9.054,8.728 8.956,9.234 8.460 L 9.497 8.202 10.047 8.750 C 10.350 9.052,10.687 9.398,10.796 9.519 C 10.979 9.722,10.994 9.746,10.982 9.818 C 10.956 9.976,10.566 10.437,10.262 10.670 C 9.916 10.935,9.552 11.052,9.158 11.027 C 8.445 10.981,7.506 10.563,6.602 9.891 C 4.856 8.593,3.405 6.697,3.103 5.320 C 3.043 5.047,3.023 4.694,3.054 4.470 C 3.109 4.085,3.478 3.470,3.815 3.201 C 3.947 3.096,4.199 2.940,4.237 2.940 C 4.250 2.940,4.578 3.258,4.964 3.646 " fill="#1A1C1F" stroke="none" fill-rule="evenodd"></path></svg>