<svg width="12" height="12" viewBox="0 0 12 12" fill="none" xmlns="http://www.w3.org/2000/svg"><path d="M3.431 1.401 C 3.264 1.427,3.198 1.451,2.971 1.566 C 2.711 1.699,2.506 1.855,2.281 2.094 C 1.813 2.587,1.496 3.248,1.439 3.846 C 1.358 4.701,1.775 5.879,2.555 6.998 C 2.882 7.467,3.454 8.125,3.881 8.523 C 5.058 9.620,6.276 10.317,7.426 10.553 C 7.654 10.600,7.737 10.607,8.040 10.607 C 8.364 10.607,8.403 10.603,8.568 10.553 C 9.002 10.420,9.369 10.187,9.797 9.772 C 9.981 9.593,10.231 9.285,10.338 9.106 C 10.482 8.864,10.544 8.663,10.555 8.410 C 10.565 8.167,10.537 8.016,10.446 7.823 C 10.382 7.689,10.339 7.639,9.663 6.932 C 9.023 6.262,8.702 5.964,8.530 5.879 C 8.304 5.768,7.952 5.763,7.743 5.868 C 7.630 5.926,7.509 6.030,7.196 6.337 L 6.962 6.567 6.726 6.376 C 6.329 6.053,5.908 5.616,5.572 5.175 L 5.455 5.020 5.706 4.761 C 6.154 4.298,6.208 4.200,6.209 3.840 C 6.210 3.571,6.190 3.500,6.067 3.326 C 5.858 3.030,4.392 1.597,4.211 1.511 C 3.999 1.411,3.668 1.364,3.431 1.401 M4.256 3.125 C 4.586 3.458,4.881 3.759,4.910 3.795 L 4.963 3.860 4.717 4.115 C 4.383 4.460,4.162 4.716,4.148 4.773 C 4.141 4.799,4.139 4.886,4.143 4.967 C 4.149 5.086,4.164 5.140,4.224 5.261 C 4.623 6.067,6.021 7.463,6.788 7.822 C 6.990 7.916,7.051 7.918,7.227 7.835 C 7.382 7.761,7.481 7.677,7.915 7.251 L 8.140 7.030 8.612 7.500 C 9.186 8.071,9.420 8.329,9.420 8.387 C 9.420 8.460,9.338 8.590,9.165 8.789 C 8.877 9.121,8.581 9.330,8.280 9.412 C 8.095 9.463,7.746 9.459,7.510 9.404 C 6.925 9.266,6.283 8.944,5.621 8.455 C 4.951 7.960,4.123 7.130,3.613 6.442 C 3.178 5.856,2.805 5.123,2.666 4.582 C 2.621 4.406,2.612 4.326,2.611 4.110 C 2.610 3.804,2.633 3.698,2.750 3.448 C 2.886 3.155,3.077 2.898,3.270 2.744 C 3.385 2.653,3.599 2.520,3.632 2.520 C 3.644 2.520,3.925 2.792,4.256 3.125 " fill="#1A1C1F" stroke="none" fill-rule="evenodd"></path></svg>