<svg width="16" height="16" viewBox="0 0 16 16" fill="none" xmlns="http://www.w3.org/2000/svg"><path d="M4.333 1.929 C 3.922 2.067,3.550 2.294,3.219 2.611 C 2.709 3.097,2.321 3.695,2.096 4.342 C 1.816 5.147,1.840 5.910,2.177 6.930 C 2.615 8.255,3.388 9.488,4.563 10.737 C 6.027 12.294,7.681 13.415,9.213 13.888 C 9.536 13.988,9.685 14.025,10.093 14.112 C 10.189 14.132,10.446 14.145,10.733 14.145 C 11.201 14.144,11.220 14.142,11.467 14.060 C 12.089 13.852,12.639 13.481,13.192 12.896 C 13.521 12.548,13.721 12.269,13.882 11.933 C 14.059 11.562,14.091 11.418,14.074 11.050 C 14.045 10.429,13.945 10.292,12.410 8.772 C 11.372 7.745,11.386 7.754,10.876 7.738 C 10.556 7.728,10.530 7.731,10.384 7.798 C 10.188 7.888,10.068 7.986,9.634 8.409 L 9.282 8.754 9.034 8.554 C 8.438 8.074,7.908 7.527,7.430 6.900 L 7.274 6.695 7.614 6.341 C 7.801 6.146,8.001 5.925,8.058 5.850 C 8.320 5.505,8.365 4.956,8.167 4.537 C 8.112 4.420,7.903 4.197,7.043 3.335 C 6.462 2.752,5.903 2.214,5.801 2.139 C 5.505 1.922,5.390 1.888,4.920 1.876 C 4.555 1.867,4.503 1.871,4.333 1.929 M5.675 4.167 C 6.116 4.610,6.508 5.012,6.547 5.060 L 6.618 5.146 6.289 5.487 C 5.856 5.935,5.577 6.254,5.545 6.337 C 5.531 6.373,5.520 6.490,5.520 6.596 C 5.520 6.760,5.533 6.816,5.610 6.974 C 6.123 8.036,8.001 9.930,9.020 10.415 C 9.317 10.555,9.397 10.560,9.632 10.448 C 9.837 10.350,9.997 10.214,10.555 9.669 L 10.856 9.373 11.675 10.200 C 12.125 10.655,12.510 11.060,12.531 11.100 C 12.591 11.217,12.534 11.345,12.292 11.636 C 11.951 12.044,11.551 12.371,11.256 12.482 C 10.766 12.668,10.268 12.643,9.535 12.398 C 8.001 11.885,6.015 10.254,4.700 8.427 C 4.132 7.637,3.668 6.686,3.535 6.040 C 3.477 5.756,3.458 5.373,3.491 5.124 C 3.512 4.955,3.548 4.841,3.637 4.652 C 3.784 4.342,4.030 3.980,4.231 3.777 C 4.375 3.632,4.774 3.360,4.843 3.360 C 4.860 3.360,5.235 3.723,5.675 4.167 " fill="#1A1C1F" stroke="none" fill-rule="evenodd"></path></svg>