<svg width="20" height="20" viewBox="0 0 20 20" fill="none" xmlns="http://www.w3.org/2000/svg"><path d="M5.717 2.335 C 5.465 2.373,5.295 2.436,4.917 2.628 C 3.638 3.282,2.539 4.927,2.400 6.397 C 2.236 8.140,3.237 10.518,5.044 12.675 C 5.909 13.709,6.943 14.693,7.983 15.473 C 9.863 16.881,11.859 17.696,13.439 17.699 C 14.383 17.701,15.283 17.278,16.220 16.389 C 16.835 15.806,17.264 15.217,17.474 14.665 C 17.576 14.397,17.581 14.360,17.582 13.917 C 17.584 13.078,17.519 12.982,15.769 11.231 C 14.159 9.620,14.250 9.683,13.550 9.683 C 13.123 9.683,13.070 9.690,12.933 9.762 C 12.718 9.876,12.540 10.025,12.043 10.512 L 11.602 10.943 11.283 10.684 C 10.519 10.063,9.884 9.408,9.288 8.625 L 9.092 8.368 9.517 7.926 C 10.259 7.157,10.345 6.999,10.348 6.417 C 10.350 5.959,10.307 5.806,10.093 5.521 C 9.677 4.964,7.315 2.659,7.018 2.519 C 6.665 2.352,6.116 2.274,5.717 2.335 M7.050 5.158 C 7.576 5.685,8.066 6.188,8.139 6.275 L 8.272 6.433 7.861 6.858 C 7.311 7.428,6.971 7.818,6.929 7.927 C 6.910 7.976,6.895 8.120,6.894 8.247 C 6.894 8.449,6.910 8.510,7.028 8.747 C 7.703 10.104,10.003 12.414,11.286 13.023 C 11.646 13.194,11.748 13.199,12.041 13.059 C 12.296 12.938,12.497 12.768,13.193 12.086 L 13.570 11.717 14.593 12.750 C 15.156 13.318,15.638 13.824,15.664 13.875 C 15.739 14.021,15.667 14.182,15.364 14.545 C 14.842 15.170,14.318 15.554,13.800 15.689 C 13.517 15.763,12.907 15.761,12.567 15.686 C 11.051 15.351,9.311 14.248,7.597 12.536 C 6.415 11.354,5.561 10.215,4.972 9.033 C 4.461 8.008,4.267 7.166,4.364 6.400 C 4.451 5.710,5.124 4.736,5.788 4.338 C 5.914 4.262,6.034 4.200,6.055 4.200 C 6.076 4.200,6.524 4.631,7.050 5.158 " fill="#1A1C1F" stroke="none" fill-rule="evenodd"></path></svg>