<svg width="12" height="12" viewBox="0 0 12 12" fill="none" xmlns="http://www.w3.org/2000/svg"><path d="M3.350 1.411 C 3.273 1.428,3.120 1.486,3.010 1.540 C 2.375 1.854,1.799 2.558,1.551 3.325 C 1.458 3.610,1.440 3.733,1.440 4.090 C 1.440 4.672,1.596 5.236,1.958 5.960 C 2.571 7.188,3.614 8.406,4.854 9.345 C 5.803 10.064,6.865 10.546,7.620 10.601 C 8.122 10.637,8.456 10.587,8.857 10.415 C 9.756 10.030,10.425 9.299,10.555 8.560 C 10.591 8.349,10.566 8.125,10.480 7.905 C 10.399 7.696,10.309 7.586,9.801 7.080 C 9.299 6.579,9.150 6.456,8.983 6.406 C 8.738 6.333,8.419 6.379,8.203 6.520 C 8.141 6.560,7.878 6.801,7.618 7.056 L 7.146 7.518 6.888 7.297 C 6.454 6.925,6.089 6.584,5.670 6.157 C 5.284 5.763,4.731 5.168,4.571 4.972 L 4.493 4.877 4.843 4.524 C 5.350 4.011,5.479 3.865,5.542 3.731 C 5.685 3.431,5.667 3.053,5.499 2.809 C 5.406 2.674,5.113 2.351,4.733 1.966 C 4.347 1.575,4.242 1.499,3.990 1.431 C 3.812 1.384,3.518 1.374,3.350 1.411 " fill="#1A1C1F" stroke="none" fill-rule="evenodd"></path></svg>