<svg width="28" height="28" viewBox="0 0 28 28" fill="none" xmlns="http://www.w3.org/2000/svg"><path d="M6.020 2.314 C 5.403 2.477,4.753 2.911,4.001 3.663 C 2.739 4.925,2.193 6.144,2.193 7.701 C 2.193 10.419,3.873 13.822,6.994 17.428 C 7.551 18.072,9.206 19.751,9.976 20.455 C 12.762 23.000,15.407 24.652,17.954 25.436 C 18.589 25.632,18.999 25.706,19.754 25.762 C 21.855 25.918,23.110 25.361,24.743 23.547 C 25.420 22.795,25.716 22.153,25.789 21.283 C 25.842 20.641,25.656 19.851,25.343 19.383 C 24.963 18.817,22.597 16.359,21.922 15.829 C 21.200 15.263,20.627 15.094,19.553 15.131 C 18.500 15.168,18.197 15.333,16.945 16.548 L 16.159 17.311 15.651 16.889 C 14.847 16.220,13.364 14.802,12.484 13.861 C 11.464 12.769,10.781 11.987,10.780 11.910 C 10.780 11.851,11.234 11.329,11.479 11.107 C 11.834 10.784,12.461 10.054,12.590 9.812 C 12.670 9.661,12.792 9.343,12.860 9.105 C 12.972 8.714,12.982 8.617,12.963 8.105 C 12.938 7.441,12.793 6.933,12.505 6.494 C 12.273 6.141,11.540 5.376,10.252 4.146 C 8.773 2.735,8.417 2.482,7.667 2.315 C 7.246 2.221,6.374 2.220,6.020 2.314 M7.630 4.093 C 8.124 4.357,10.930 7.105,11.192 7.583 C 11.250 7.688,11.269 7.847,11.269 8.213 C 11.270 8.664,11.259 8.721,11.141 8.922 C 11.071 9.042,10.543 9.625,9.969 10.217 C 9.394 10.808,8.890 11.364,8.849 11.452 C 8.675 11.817,8.787 12.109,9.450 13.016 C 10.861 14.950,12.922 17.021,14.905 18.497 C 15.662 19.061,16.038 19.273,16.280 19.273 C 16.475 19.273,16.768 19.063,17.421 18.452 C 19.270 16.723,19.177 16.784,19.921 16.808 C 20.542 16.827,20.489 16.794,21.553 17.813 C 22.641 18.853,23.817 20.117,23.947 20.383 C 24.036 20.567,24.054 20.681,24.055 21.070 C 24.057 21.489,24.044 21.561,23.930 21.776 C 23.521 22.552,22.364 23.615,21.630 23.889 C 19.863 24.551,17.074 23.713,14.091 21.626 C 9.700 18.553,5.554 13.622,4.277 9.953 C 3.995 9.144,3.945 8.813,3.944 7.770 C 3.943 6.707,3.985 6.494,4.293 5.973 C 4.639 5.388,5.700 4.325,6.183 4.079 C 6.399 3.969,6.455 3.962,6.930 3.977 C 7.342 3.991,7.480 4.014,7.630 4.093 " fill="#1A1C1F" stroke="none" fill-rule="evenodd"></path></svg>