<svg width="24" height="24" viewBox="0 0 24 24" fill="none" xmlns="http://www.w3.org/2000/svg"><path d="M6.512 2.438 C 6.278 2.483,5.466 2.906,5.122 3.161 C 4.473 3.642,3.703 4.529,3.265 5.299 C 2.439 6.752,2.293 8.247,2.800 10.053 C 3.422 12.269,4.988 14.665,7.380 17.062 C 8.682 18.367,9.687 19.194,10.871 19.935 C 13.604 21.645,16.202 22.081,18.147 21.156 C 18.713 20.887,19.166 20.550,19.828 19.906 C 20.780 18.979,21.095 18.547,21.343 17.820 C 21.442 17.532,21.453 17.446,21.452 16.960 C 21.451 16.510,21.436 16.377,21.363 16.164 C 21.144 15.526,20.941 15.270,19.480 13.785 C 18.229 12.515,17.694 12.021,17.451 11.912 C 17.220 11.809,16.800 11.765,16.440 11.805 C 15.840 11.871,15.358 12.225,14.187 13.458 L 13.634 14.040 13.466 13.920 C 13.200 13.729,12.548 13.157,11.930 12.572 C 11.376 12.049,10.847 11.453,10.324 10.766 C 10.098 10.469,10.075 10.422,10.114 10.338 C 10.138 10.285,10.415 9.977,10.729 9.651 C 12.152 8.182,12.248 8.028,12.245 7.224 C 12.244 6.841,12.163 6.524,11.999 6.259 C 11.880 6.065,10.262 4.394,9.385 3.558 C 8.696 2.902,8.596 2.822,8.257 2.653 C 7.945 2.498,7.831 2.463,7.552 2.437 C 7.151 2.398,6.713 2.399,6.512 2.438 M7.527 4.500 C 7.611 4.556,8.288 5.202,9.030 5.936 L 10.380 7.271 9.397 8.267 C 7.999 9.684,7.801 9.952,7.855 10.348 C 7.924 10.851,8.901 12.249,10.002 13.420 C 11.120 14.609,12.682 15.839,13.435 16.123 C 13.756 16.244,13.889 16.258,14.028 16.186 C 14.178 16.109,14.738 15.586,15.823 14.510 L 16.666 13.674 17.980 15.007 C 18.702 15.740,19.344 16.420,19.407 16.518 C 19.497 16.660,19.520 16.742,19.520 16.923 C 19.520 17.404,19.312 17.724,18.455 18.560 C 17.790 19.209,17.475 19.411,16.891 19.564 C 16.441 19.682,15.544 19.711,15.040 19.623 C 12.159 19.121,7.805 15.500,5.753 11.900 C 4.841 10.302,4.480 9.147,4.480 7.832 C 4.480 7.198,4.520 7.032,4.810 6.465 C 5.064 5.970,5.372 5.552,5.792 5.135 C 6.522 4.410,7.081 4.205,7.527 4.500 " fill="#1A1C1F" stroke="none" fill-rule="evenodd"></path></svg>