<svg width="32" height="32" viewBox="0 0 32 32" fill="none" xmlns="http://www.w3.org/2000/svg"><path d="M6.907 2.639 C 6.260 2.815,5.686 3.159,4.958 3.809 C 3.520 5.093,2.755 6.417,2.562 7.959 C 2.187 10.946,3.946 15.072,7.314 19.109 C 8.531 20.567,10.753 22.850,12.028 23.953 C 15.557 27.005,19.013 28.921,21.787 29.363 C 22.507 29.478,23.813 29.493,24.373 29.392 C 25.780 29.140,26.948 28.403,28.242 26.950 C 29.035 26.060,29.322 25.484,29.449 24.531 C 29.558 23.709,29.354 22.730,28.945 22.113 C 28.726 21.783,27.564 20.528,26.293 19.249 C 25.088 18.036,24.635 17.693,23.893 17.433 C 23.585 17.325,23.443 17.312,22.613 17.309 C 21.829 17.307,21.630 17.323,21.365 17.410 C 20.855 17.577,20.351 17.955,19.380 18.897 L 18.467 19.783 17.967 19.368 C 16.421 18.086,14.060 15.721,12.566 13.959 C 12.356 13.711,12.314 13.630,12.352 13.546 C 12.379 13.488,12.630 13.207,12.911 12.920 C 13.974 11.839,14.252 11.510,14.429 11.122 C 14.739 10.444,14.796 10.177,14.798 9.387 C 14.800 8.736,14.785 8.622,14.648 8.202 C 14.442 7.575,14.274 7.327,13.493 6.500 C 12.642 5.599,10.602 3.654,10.140 3.305 C 9.419 2.759,8.777 2.558,7.776 2.564 C 7.445 2.565,7.053 2.600,6.907 2.639 M8.720 4.677 C 8.837 4.739,9.197 5.028,9.520 5.319 C 10.506 6.209,12.445 8.168,12.669 8.500 L 12.880 8.813 12.877 9.353 C 12.875 9.782,12.852 9.944,12.764 10.138 C 12.688 10.308,12.275 10.777,11.425 11.664 C 10.750 12.369,10.159 13.019,10.112 13.110 C 9.912 13.497,10.048 13.845,10.800 14.876 C 12.415 17.088,14.765 19.450,17.034 21.139 C 17.899 21.784,18.329 22.027,18.605 22.027 C 18.829 22.027,19.164 21.786,19.909 21.088 C 22.023 19.112,21.916 19.182,22.767 19.209 C 23.287 19.225,23.367 19.241,23.537 19.362 C 24.118 19.776,27.002 22.702,27.314 23.194 C 27.460 23.424,27.467 23.461,27.466 24.077 C 27.466 24.688,27.458 24.733,27.312 24.987 C 26.948 25.618,25.920 26.631,25.227 27.041 C 24.042 27.742,22.513 27.737,20.453 27.028 C 16.834 25.781,12.152 22.054,8.541 17.547 C 6.505 15.006,5.025 12.316,4.607 10.399 C 4.529 10.044,4.508 9.717,4.507 8.880 C 4.507 7.666,4.554 7.423,4.905 6.827 C 5.287 6.179,6.532 4.932,7.066 4.662 C 7.313 4.536,7.377 4.528,7.920 4.545 C 8.388 4.561,8.550 4.588,8.720 4.677 " fill="#1A1C1F" stroke="none" fill-rule="evenodd"></path></svg>