<svg width="20" height="20" viewBox="0 0 20 20" fill="none" xmlns="http://www.w3.org/2000/svg"><path d="M9.533 2.058 C 9.469 2.066,9.297 2.128,9.150 2.197 C 8.941 2.294,8.796 2.400,8.483 2.683 C 7.737 3.358,2.234 8.916,2.081 9.149 C 2.015 9.250,2.009 9.662,2.071 9.869 C 2.127 10.055,2.466 10.406,2.649 10.466 C 2.817 10.522,3.281 10.496,3.434 10.423 C 3.498 10.392,3.652 10.275,3.776 10.164 L 4.000 9.961 4.000 13.582 L 4.000 17.202 4.085 17.371 C 4.193 17.583,4.400 17.789,4.627 17.911 L 4.804 18.006 6.060 17.994 C 7.225 17.983,7.326 17.978,7.449 17.918 C 7.621 17.833,7.810 17.635,7.906 17.440 L 7.983 17.283 7.993 14.642 L 8.002 12.000 10.001 12.000 L 12.000 12.000 12.000 14.651 C 12.000 17.255,12.001 17.305,12.068 17.436 C 12.162 17.620,12.376 17.826,12.562 17.911 C 12.711 17.979,12.765 17.982,13.950 17.982 C 15.151 17.983,15.187 17.981,15.342 17.910 C 15.541 17.818,15.830 17.532,15.927 17.331 L 16.000 17.179 16.000 14.228 C 16.000 12.605,16.010 10.983,16.022 10.622 L 16.044 9.967 16.230 10.165 C 16.463 10.413,16.643 10.498,16.936 10.499 C 17.383 10.501,17.708 10.312,17.887 9.945 C 17.962 9.792,17.979 9.712,17.979 9.504 C 17.980 9.328,17.963 9.217,17.924 9.144 C 17.800 8.911,11.955 3.047,11.286 2.485 C 11.002 2.246,10.722 2.112,10.417 2.068 C 10.188 2.035,9.765 2.030,9.533 2.058 " fill="#1A1C1F" stroke="none" fill-rule="evenodd"></path></svg>