<svg width="14" height="14" viewBox="0 0 14 14" fill="none" xmlns="http://www.w3.org/2000/svg"><path d="M6.610 1.459 C 6.381 1.521,6.218 1.624,5.911 1.905 C 5.356 2.411,1.562 6.243,1.456 6.405 C 1.430 6.446,1.419 6.517,1.420 6.662 C 1.421 6.904,1.467 7.018,1.625 7.164 C 1.789 7.315,1.907 7.357,2.133 7.345 C 2.360 7.333,2.449 7.291,2.654 7.105 L 2.800 6.973 2.800 9.512 L 2.800 12.052 2.867 12.168 C 2.950 12.312,3.141 12.494,3.273 12.554 C 3.369 12.598,3.472 12.599,6.998 12.599 L 10.625 12.600 10.732 12.548 C 10.867 12.483,11.034 12.317,11.127 12.155 L 11.200 12.028 11.200 9.500 L 11.200 6.972 11.377 7.137 C 11.571 7.319,11.643 7.350,11.867 7.350 C 12.169 7.350,12.397 7.214,12.521 6.961 C 12.574 6.853,12.585 6.799,12.585 6.653 C 12.585 6.537,12.572 6.451,12.548 6.405 C 12.488 6.291,11.403 5.176,9.847 3.632 C 8.314 2.110,7.870 1.690,7.666 1.566 C 7.451 1.436,6.903 1.380,6.610 1.459 M8.406 4.194 L 9.800 5.588 9.800 8.394 L 9.800 11.200 7.000 11.200 L 4.200 11.200 4.200 8.394 L 4.200 5.588 5.594 4.194 C 6.361 3.427,6.993 2.800,7.000 2.800 C 7.006 2.800,7.639 3.427,8.406 4.194 " fill="#1A1C1F" stroke="none" fill-rule="evenodd"></path></svg>