<svg width="12" height="12" viewBox="0 0 12 12" fill="none" xmlns="http://www.w3.org/2000/svg"><path d="M5.720 1.233 C 5.587 1.252,5.336 1.388,5.190 1.520 C 4.707 1.958,1.652 5.027,1.312 5.416 L 1.220 5.521 1.220 5.683 C 1.220 5.894,1.249 5.983,1.354 6.100 C 1.482 6.242,1.611 6.300,1.799 6.300 C 1.990 6.299,2.083 6.259,2.264 6.098 L 2.400 5.977 2.400 8.153 L 2.400 10.330 2.461 10.436 C 2.538 10.569,2.647 10.676,2.772 10.740 L 2.870 10.790 3.600 10.789 C 4.002 10.789,4.363 10.782,4.404 10.774 C 4.498 10.754,4.664 10.606,4.741 10.472 L 4.800 10.370 4.800 8.785 L 4.800 7.200 6.000 7.200 L 7.200 7.200 7.200 8.791 C 7.200 10.220,7.203 10.389,7.232 10.446 C 7.296 10.571,7.400 10.677,7.515 10.734 L 7.630 10.790 8.380 10.790 C 9.078 10.790,9.135 10.787,9.207 10.752 C 9.326 10.692,9.486 10.534,9.546 10.417 L 9.600 10.309 9.600 8.508 C 9.600 7.517,9.606 6.542,9.613 6.342 L 9.626 5.978 9.738 6.098 C 9.883 6.254,9.983 6.299,10.183 6.300 C 10.278 6.300,10.364 6.288,10.411 6.268 C 10.724 6.137,10.881 5.757,10.738 5.477 C 10.718 5.436,10.499 5.193,10.254 4.936 C 9.723 4.383,7.170 1.846,6.906 1.610 C 6.551 1.293,6.440 1.243,6.054 1.232 C 5.909 1.227,5.759 1.228,5.720 1.233 " fill="#1A1C1F" stroke="none" fill-rule="evenodd"></path></svg>