<svg width="14" height="14" viewBox="0 0 14 14" fill="none" xmlns="http://www.w3.org/2000/svg"><path d="M6.610 1.459 C 6.381 1.521,6.218 1.624,5.911 1.905 C 5.356 2.411,1.562 6.243,1.456 6.405 C 1.430 6.446,1.419 6.517,1.420 6.662 C 1.421 6.904,1.467 7.018,1.625 7.164 C 1.789 7.315,1.907 7.357,2.133 7.345 C 2.363 7.333,2.439 7.299,2.643 7.115 L 2.800 6.973 2.801 9.501 C 2.801 12.379,2.781 12.111,3.012 12.355 C 3.237 12.593,3.213 12.589,4.223 12.587 C 4.859 12.586,5.122 12.578,5.184 12.557 C 5.295 12.519,5.438 12.379,5.529 12.222 L 5.600 12.098 5.600 10.249 L 5.600 8.400 7.000 8.400 L 8.400 8.400 8.400 10.256 C 8.400 12.078,8.401 12.114,8.448 12.205 C 8.513 12.334,8.663 12.478,8.793 12.538 C 8.897 12.585,8.935 12.587,9.765 12.588 C 10.606 12.588,10.631 12.587,10.740 12.537 C 10.878 12.473,11.081 12.272,11.149 12.132 L 11.200 12.025 11.200 9.973 C 11.200 8.845,11.207 7.709,11.215 7.449 L 11.231 6.977 11.361 7.116 C 11.524 7.289,11.650 7.349,11.855 7.349 C 12.169 7.351,12.395 7.218,12.521 6.961 C 12.574 6.853,12.585 6.799,12.585 6.653 C 12.585 6.537,12.572 6.451,12.548 6.405 C 12.488 6.291,11.403 5.176,9.847 3.632 C 8.314 2.110,7.870 1.690,7.666 1.566 C 7.451 1.436,6.903 1.380,6.610 1.459 " fill="#1A1C1F" stroke="none" fill-rule="evenodd"></path></svg>