<svg width="16" height="16" viewBox="0 0 16 16" fill="none" xmlns="http://www.w3.org/2000/svg"><path d="M7.550 1.669 C 7.202 1.762,7.103 1.841,6.102 2.812 C 5.584 3.314,4.523 4.372,3.745 5.163 C 1.521 7.422,1.580 7.354,1.607 7.652 C 1.626 7.861,1.705 8.028,1.855 8.174 C 2.032 8.346,2.113 8.381,2.364 8.395 C 2.553 8.405,2.600 8.398,2.724 8.341 C 2.803 8.305,2.942 8.206,3.034 8.121 L 3.200 7.968 3.200 10.870 L 3.201 13.773 3.277 13.907 C 3.373 14.074,3.592 14.281,3.746 14.349 C 3.861 14.400,3.948 14.401,8.018 14.394 C 12.092 14.387,12.175 14.386,12.280 14.334 C 12.422 14.264,12.615 14.068,12.717 13.891 L 12.799 13.747 12.800 10.857 L 12.800 7.967 12.974 8.130 C 13.219 8.359,13.310 8.400,13.573 8.400 C 13.831 8.400,13.982 8.340,14.155 8.166 C 14.366 7.956,14.442 7.677,14.363 7.405 C 14.320 7.258,14.280 7.215,12.657 5.567 C 10.917 3.802,9.352 2.258,9.016 1.978 C 8.775 1.777,8.606 1.695,8.355 1.656 C 8.094 1.616,7.724 1.622,7.550 1.669 M11.200 9.607 L 11.200 12.800 8.000 12.800 L 4.800 12.800 4.800 9.593 L 4.800 6.387 6.393 4.793 L 7.987 3.200 9.593 4.807 L 11.200 6.413 11.200 9.607 " fill="#1A1C1F" stroke="none" fill-rule="evenodd"></path></svg>