<svg width="32" height="32" viewBox="0 0 32 32" fill="none" xmlns="http://www.w3.org/2000/svg"><path d="M15.329 3.596 C 14.850 3.705,14.368 3.971,13.981 4.340 C 13.356 4.937,9.849 8.759,5.388 13.707 C 3.578 15.714,3.057 16.334,3.013 16.534 C 2.995 16.617,3.008 16.788,3.042 16.916 C 3.155 17.337,3.766 17.777,4.116 17.689 C 4.345 17.632,4.731 17.336,5.356 16.739 L 5.973 16.150 5.973 21.944 C 5.973 28.352,5.947 27.878,6.327 28.212 C 6.727 28.563,6.574 28.551,10.097 28.519 L 13.286 28.490 13.496 28.351 C 13.611 28.275,13.772 28.112,13.853 27.990 L 14.000 27.768 14.015 24.631 L 14.031 21.493 16.029 21.493 L 18.027 21.493 18.027 24.473 C 18.027 26.221,18.049 27.571,18.080 27.739 C 18.142 28.074,18.367 28.324,18.702 28.431 C 18.943 28.508,23.623 28.567,24.680 28.507 C 25.436 28.463,25.568 28.404,25.853 27.979 L 26.027 27.721 26.027 23.336 C 26.027 20.924,26.043 18.335,26.062 17.582 L 26.097 16.213 26.662 16.764 C 27.560 17.639,27.786 17.768,28.212 17.654 C 28.842 17.484,29.176 16.709,28.839 16.199 C 28.606 15.846,22.248 8.866,19.357 5.788 C 18.012 4.357,17.579 3.944,17.257 3.788 C 16.817 3.575,15.847 3.479,15.329 3.596 M16.467 5.662 C 16.731 5.824,17.668 6.864,21.670 11.433 L 24.000 14.093 24.000 20.300 L 24.000 26.507 22.000 26.507 L 20.000 26.507 20.000 23.328 L 20.000 20.149 19.840 19.947 C 19.581 19.619,19.361 19.559,18.322 19.531 C 17.824 19.518,16.308 19.525,14.951 19.547 L 12.485 19.586 12.302 19.770 C 12.201 19.871,12.103 20.018,12.085 20.097 C 12.066 20.175,12.036 21.650,12.018 23.373 L 11.984 26.507 9.992 26.507 L 8.000 26.507 8.000 20.300 L 8.000 14.093 8.839 13.140 C 13.832 7.466,15.216 5.915,15.457 5.728 C 15.778 5.477,16.129 5.454,16.467 5.662 " fill="#1A1C1F" stroke="none" fill-rule="evenodd"></path></svg>