<svg width="24" height="24" viewBox="0 0 24 24" fill="none" xmlns="http://www.w3.org/2000/svg"><path d="M11.106 3.159 C 10.690 3.303,10.662 3.317,10.312 3.547 C 10.023 3.737,9.405 4.414,6.996 7.180 C 4.120 10.481,3.201 11.570,3.082 11.815 C 2.798 12.403,3.297 13.140,3.980 13.137 C 4.280 13.136,4.509 13.036,4.790 12.782 L 5.000 12.593 5.004 15.866 C 5.006 17.667,5.019 19.431,5.034 19.786 C 5.060 20.432,5.060 20.433,5.183 20.586 C 5.251 20.671,5.404 20.799,5.523 20.871 L 5.740 21.002 8.020 20.991 L 10.300 20.980 10.484 20.872 C 10.671 20.762,10.816 20.601,10.934 20.372 C 10.993 20.258,11.000 20.015,11.000 18.122 L 11.000 16.000 11.996 16.000 L 12.993 16.000 13.006 18.110 L 13.020 20.220 13.114 20.410 C 13.227 20.640,13.478 20.864,13.698 20.931 C 13.819 20.967,14.428 20.980,16.080 20.978 C 18.584 20.977,18.474 20.990,18.736 20.665 C 18.998 20.341,18.979 20.657,18.991 16.447 L 19.002 12.595 19.211 12.783 C 19.575 13.112,19.917 13.213,20.292 13.104 C 20.588 13.018,20.854 12.758,20.939 12.470 C 21.054 12.084,21.011 11.928,20.665 11.469 C 20.296 10.981,17.188 7.386,14.985 4.900 C 13.792 3.553,13.602 3.389,12.980 3.176 C 12.700 3.081,12.585 3.065,12.060 3.052 C 11.476 3.037,11.451 3.040,11.106 3.159 M12.366 5.084 C 12.603 5.144,12.725 5.285,15.432 8.648 L 17.000 10.595 17.000 14.798 L 17.000 19.000 16.000 19.000 L 15.000 19.000 14.999 17.170 C 14.997 15.136,14.968 14.603,14.851 14.446 C 14.692 14.233,14.503 14.119,14.239 14.077 C 13.932 14.027,10.023 14.006,9.752 14.052 C 9.610 14.076,9.514 14.130,9.360 14.268 C 8.979 14.610,9.000 14.458,9.000 16.878 L 9.000 19.000 8.000 19.000 L 7.000 19.000 7.000 14.797 L 7.000 10.595 8.308 8.987 C 9.972 6.941,11.332 5.304,11.462 5.189 C 11.660 5.015,11.952 4.981,12.366 5.084 " fill="#1A1C1F" stroke="none" fill-rule="evenodd"></path></svg>