<svg width="28" height="28" viewBox="0 0 28 28" fill="none" xmlns="http://www.w3.org/2000/svg"><path d="M13.406 3.148 C 12.818 3.280,12.528 3.485,11.718 4.335 C 10.421 5.698,8.207 8.118,4.967 11.713 C 2.449 14.508,2.555 14.368,2.653 14.736 C 2.724 14.998,2.881 15.216,3.096 15.349 C 3.523 15.613,3.789 15.500,4.632 14.698 L 5.227 14.132 5.227 19.214 L 5.227 24.295 5.367 24.517 C 5.460 24.663,5.566 24.763,5.680 24.810 C 5.972 24.932,7.062 24.976,9.357 24.958 C 11.861 24.938,11.795 24.948,12.068 24.541 C 12.196 24.349,12.215 24.275,12.242 23.864 C 12.259 23.611,12.273 22.369,12.273 21.105 L 12.273 18.807 14.023 18.807 L 15.773 18.807 15.773 21.588 L 15.773 24.370 15.896 24.517 C 15.964 24.597,16.114 24.732,16.231 24.815 L 16.443 24.967 18.943 24.963 C 20.318 24.961,21.615 24.945,21.826 24.927 C 22.267 24.891,22.389 24.822,22.622 24.480 L 22.773 24.256 22.773 20.446 C 22.773 18.351,22.787 16.086,22.804 15.413 L 22.835 14.190 23.404 14.740 C 24.059 15.373,24.216 15.466,24.577 15.436 C 24.883 15.411,25.126 15.237,25.282 14.932 C 25.493 14.520,25.413 14.353,24.539 13.370 C 22.289 10.842,17.070 5.172,15.985 4.077 C 15.369 3.457,15.150 3.298,14.782 3.202 C 14.387 3.099,13.738 3.074,13.406 3.148 M14.350 4.927 C 14.587 5.039,15.156 5.661,18.266 9.210 L 21.000 12.331 21.000 17.762 L 21.000 23.193 19.250 23.193 L 17.500 23.193 17.500 20.414 L 17.500 17.634 17.375 17.470 C 17.307 17.381,17.165 17.261,17.060 17.205 C 16.871 17.104,16.863 17.103,14.171 17.110 C 11.106 17.118,10.910 17.129,10.751 17.301 C 10.540 17.528,10.533 17.615,10.512 20.475 L 10.492 23.193 8.746 23.193 L 7.000 23.193 7.000 17.763 L 7.000 12.333 9.130 9.911 C 12.674 5.882,13.465 5.017,13.732 4.881 C 13.904 4.794,14.101 4.808,14.350 4.927 " fill="#1A1C1F" stroke="none" fill-rule="evenodd"></path></svg>