<svg width="12" height="12" viewBox="0 0 12 12" fill="none" xmlns="http://www.w3.org/2000/svg"><path d="M5.720 1.233 C 5.587 1.252,5.336 1.388,5.190 1.520 C 4.707 1.958,1.652 5.027,1.312 5.416 L 1.220 5.521 1.220 5.683 C 1.220 5.894,1.249 5.983,1.354 6.100 C 1.481 6.242,1.611 6.300,1.799 6.300 C 1.990 6.300,2.104 6.250,2.276 6.091 L 2.400 5.976 2.400 8.153 L 2.400 10.330 2.458 10.430 C 2.529 10.553,2.693 10.710,2.805 10.761 C 2.888 10.798,2.976 10.799,5.999 10.800 L 9.107 10.800 9.199 10.756 C 9.311 10.702,9.498 10.518,9.551 10.410 C 9.589 10.332,9.590 10.268,9.596 8.154 L 9.601 5.978 9.745 6.109 C 9.982 6.325,10.199 6.372,10.433 6.258 C 10.723 6.118,10.875 5.741,10.744 5.486 C 10.720 5.440,10.499 5.193,10.254 4.936 C 9.723 4.383,7.170 1.846,6.906 1.610 C 6.551 1.293,6.440 1.243,6.054 1.232 C 5.909 1.227,5.759 1.228,5.720 1.233 M8.400 7.195 L 8.400 9.600 6.000 9.600 L 3.600 9.600 3.600 7.205 L 3.600 4.810 4.805 3.605 L 6.010 2.400 7.205 3.595 L 8.400 4.790 8.400 7.195 " fill="#1A1C1F" stroke="none" fill-rule="evenodd"></path></svg>