<svg width="20" height="20" viewBox="0 0 20 20" fill="none" xmlns="http://www.w3.org/2000/svg"><path d="M9.517 2.064 C 9.311 2.098,8.941 2.285,8.736 2.459 C 8.295 2.833,6.560 4.550,4.530 6.620 C 3.327 7.847,2.277 8.923,2.196 9.013 C 2.051 9.175,2.050 9.177,2.038 9.460 C 2.022 9.849,2.062 9.962,2.310 10.212 C 2.547 10.450,2.669 10.500,3.021 10.500 C 3.312 10.499,3.507 10.411,3.792 10.151 L 4.000 9.961 4.000 13.589 L 4.001 17.217 4.096 17.383 C 4.218 17.596,4.491 17.852,4.691 17.940 C 4.846 18.009,4.851 18.009,10.031 17.994 C 14.871 17.979,15.225 17.975,15.338 17.920 C 15.523 17.832,15.714 17.654,15.864 17.429 L 16.000 17.226 16.000 13.592 L 16.000 9.959 16.218 10.163 C 16.522 10.448,16.643 10.503,16.964 10.503 C 17.280 10.504,17.477 10.424,17.694 10.207 C 17.957 9.945,18.052 9.596,17.953 9.256 C 17.900 9.072,17.850 9.019,15.904 7.042 C 13.847 4.954,11.691 2.827,11.286 2.485 C 11.002 2.246,10.723 2.112,10.417 2.068 C 10.161 2.031,9.725 2.029,9.517 2.064 M14.000 11.992 L 14.000 16.000 10.000 16.000 L 6.000 16.000 6.000 12.008 L 6.000 8.017 8.008 6.008 L 10.016 4.000 12.008 5.992 L 14.000 7.983 14.000 11.992 " fill="#1A1C1F" stroke="none" fill-rule="evenodd"></path></svg>