<svg width="20" height="20" viewBox="0 0 20 20" fill="none" xmlns="http://www.w3.org/2000/svg"><path d="M4.450 2.064 C 4.154 2.089,3.973 2.159,3.678 2.359 C 3.215 2.675,3.004 3.008,2.789 3.767 C 2.601 4.427,2.109 6.387,2.048 6.717 C 1.884 7.599,2.208 8.718,2.825 9.400 L 3.000 9.594 3.000 12.791 L 3.000 15.989 2.826 16.029 C 2.230 16.166,1.895 16.730,2.063 17.311 C 2.122 17.514,2.376 17.799,2.593 17.906 L 2.750 17.983 9.991 17.992 L 17.233 18.002 17.371 17.931 C 17.569 17.830,17.818 17.585,17.904 17.408 C 18.004 17.202,18.007 16.845,17.911 16.632 C 17.772 16.323,17.506 16.105,17.174 16.029 L 17.000 15.989 17.000 12.791 L 17.000 9.593 17.150 9.426 C 17.645 8.876,17.928 8.190,17.988 7.397 C 18.017 7.011,17.972 6.739,17.701 5.642 C 17.267 3.886,17.041 3.137,16.873 2.892 C 16.675 2.605,16.248 2.278,15.872 2.126 L 15.683 2.050 10.200 2.046 C 7.184 2.044,4.597 2.052,4.450 2.064 M15.581 5.457 C 16.006 7.167,16.037 7.390,15.887 7.706 C 15.699 8.104,15.439 8.339,15.069 8.447 C 14.827 8.518,14.672 8.514,14.426 8.431 C 14.152 8.339,13.925 8.183,13.501 7.798 L 13.149 7.478 12.899 7.733 C 12.632 8.006,12.243 8.299,12.000 8.410 C 11.765 8.518,11.372 8.507,11.134 8.387 C 10.849 8.244,10.539 8.009,10.266 7.732 L 10.015 7.477 9.716 7.759 C 9.322 8.131,9.048 8.323,8.774 8.419 C 8.493 8.519,8.341 8.519,8.064 8.421 C 7.780 8.321,7.522 8.143,7.141 7.784 L 6.833 7.493 6.488 7.822 C 5.933 8.350,5.668 8.479,5.183 8.461 C 4.951 8.452,4.847 8.432,4.722 8.371 C 4.500 8.261,4.244 7.994,4.129 7.753 C 3.965 7.404,3.974 7.335,4.471 5.275 L 4.779 4.000 9.999 4.000 L 15.218 4.000 15.581 5.457 M7.196 10.247 C 7.714 10.443,7.900 10.476,8.450 10.473 C 8.974 10.471,9.224 10.421,9.734 10.216 L 10.031 10.098 10.190 10.178 C 10.604 10.385,11.058 10.480,11.617 10.476 C 12.107 10.473,12.504 10.389,12.915 10.203 L 13.146 10.098 13.439 10.217 C 13.864 10.389,14.200 10.466,14.625 10.490 L 15.000 10.510 15.000 11.255 L 15.000 12.000 10.000 12.000 L 5.000 12.000 5.000 11.255 L 5.000 10.510 5.358 10.489 C 5.790 10.463,6.159 10.378,6.517 10.221 C 6.663 10.157,6.789 10.104,6.796 10.102 C 6.803 10.101,6.983 10.166,7.196 10.247 M15.000 15.000 L 15.000 16.000 10.000 16.000 L 5.000 16.000 5.000 15.000 L 5.000 14.000 10.000 14.000 L 15.000 14.000 15.000 15.000 " fill="#1A1C1F" stroke="none" fill-rule="evenodd"></path></svg>