<svg width="12" height="12" viewBox="0 0 12 12" fill="none" xmlns="http://www.w3.org/2000/svg"><path d="M2.670 1.240 C 2.438 1.260,2.240 1.361,2.039 1.560 C 1.777 1.820,1.761 1.864,1.347 3.510 L 1.196 4.110 1.208 4.367 C 1.215 4.508,1.234 4.692,1.252 4.777 C 1.310 5.062,1.459 5.355,1.678 5.615 L 1.800 5.760 1.800 7.678 L 1.800 9.596 1.725 9.609 C 1.533 9.645,1.346 9.783,1.261 9.952 C 1.205 10.065,1.195 10.240,1.238 10.387 C 1.273 10.508,1.426 10.680,1.556 10.744 L 1.650 10.790 5.990 10.790 C 9.550 10.790,10.344 10.785,10.405 10.763 C 10.518 10.723,10.687 10.559,10.741 10.435 C 10.891 10.093,10.684 9.705,10.304 9.617 L 10.200 9.593 10.200 7.670 L 10.200 5.748 10.271 5.679 C 10.373 5.580,10.532 5.342,10.613 5.167 C 10.771 4.826,10.833 4.382,10.771 4.050 C 10.683 3.582,10.406 2.502,10.260 2.058 C 10.169 1.779,10.092 1.662,9.898 1.500 C 9.700 1.335,9.534 1.262,9.304 1.240 C 9.080 1.218,2.917 1.218,2.670 1.240 M9.356 3.306 C 9.601 4.298,9.616 4.404,9.543 4.597 C 9.457 4.823,9.279 4.993,9.057 5.062 C 8.905 5.110,8.815 5.110,8.665 5.063 C 8.510 5.015,8.375 4.924,8.114 4.691 C 7.997 4.586,7.895 4.500,7.888 4.500 C 7.881 4.500,7.783 4.588,7.671 4.695 C 7.364 4.990,7.112 5.119,6.894 5.093 C 6.693 5.069,6.408 4.888,6.141 4.612 C 6.081 4.551,6.022 4.500,6.010 4.500 C 5.998 4.500,5.953 4.537,5.909 4.582 C 5.760 4.736,5.485 4.955,5.373 5.008 C 5.218 5.081,5.077 5.105,4.945 5.081 C 4.736 5.042,4.595 4.954,4.287 4.670 L 4.099 4.496 3.906 4.681 C 3.674 4.903,3.531 4.999,3.341 5.060 C 3.228 5.096,3.175 5.103,3.084 5.092 C 2.841 5.064,2.615 4.906,2.491 4.679 C 2.445 4.594,2.431 4.540,2.425 4.421 C 2.417 4.262,2.409 4.298,2.773 2.795 L 2.869 2.400 6.000 2.400 L 9.132 2.400 9.356 3.306 M4.390 6.168 C 4.917 6.351,5.343 6.339,5.833 6.128 L 6.002 6.055 6.157 6.126 C 6.437 6.254,6.526 6.270,6.950 6.269 C 7.305 6.268,7.342 6.264,7.506 6.214 C 7.603 6.184,7.728 6.137,7.783 6.109 L 7.884 6.058 8.061 6.129 C 8.318 6.233,8.519 6.280,8.775 6.294 L 9.000 6.306 9.000 6.753 L 9.000 7.200 6.000 7.200 L 3.000 7.200 3.000 6.750 L 3.000 6.300 3.127 6.300 C 3.374 6.300,3.728 6.220,3.964 6.111 C 4.022 6.084,4.083 6.066,4.100 6.070 C 4.117 6.075,4.247 6.119,4.390 6.168 M9.000 9.000 L 9.000 9.600 6.000 9.600 L 3.000 9.600 3.000 9.000 L 3.000 8.400 6.000 8.400 L 9.000 8.400 9.000 9.000 " fill="#1A1C1F" stroke="none" fill-rule="evenodd"></path></svg>