<svg width="12" height="12" viewBox="0 0 12 12" fill="none" xmlns="http://www.w3.org/2000/svg"><path d="M3.210 1.219 C 2.238 1.231,2.296 1.222,2.118 1.400 C 2.027 1.491,2.017 1.512,1.903 1.865 C 1.837 2.069,1.651 2.670,1.489 3.201 L 1.195 4.167 1.209 4.389 C 1.245 4.962,1.547 5.390,2.075 5.613 C 2.206 5.668,2.221 5.670,2.550 5.670 C 2.889 5.670,2.890 5.670,3.036 5.606 C 3.244 5.513,3.389 5.412,3.555 5.241 L 3.701 5.091 3.835 5.232 C 4.175 5.587,4.550 5.728,5.021 5.680 C 5.340 5.648,5.678 5.461,5.899 5.197 L 5.997 5.080 6.079 5.175 C 6.341 5.476,6.709 5.662,7.100 5.693 C 7.346 5.712,7.637 5.628,7.880 5.468 C 8.016 5.379,8.182 5.231,8.256 5.133 L 8.299 5.076 8.354 5.143 C 8.562 5.398,8.845 5.577,9.178 5.662 C 9.368 5.711,9.533 5.710,9.732 5.660 C 10.215 5.538,10.583 5.203,10.732 4.747 C 10.808 4.514,10.812 4.238,10.742 3.980 C 10.581 3.379,10.070 1.752,9.981 1.554 C 9.928 1.438,9.842 1.337,9.744 1.277 C 9.672 1.232,9.661 1.231,8.691 1.217 C 7.590 1.201,4.519 1.202,3.210 1.219 M1.800 7.949 L 1.800 9.598 1.725 9.612 C 1.509 9.650,1.313 9.813,1.247 10.007 C 1.156 10.276,1.245 10.538,1.483 10.700 L 1.585 10.770 2.118 10.783 C 2.410 10.790,4.369 10.797,6.470 10.798 C 10.790 10.800,10.393 10.816,10.591 10.635 C 10.955 10.303,10.793 9.730,10.304 9.617 L 10.200 9.593 10.200 7.947 L 10.200 6.300 6.000 6.300 L 1.800 6.300 1.800 7.949 " fill="#1A1C1F" stroke="none" fill-rule="evenodd"></path></svg>