<svg width="16" height="16" viewBox="0 0 16 16" fill="none" xmlns="http://www.w3.org/2000/svg"><path d="M3.547 1.652 C 3.381 1.666,3.307 1.690,3.120 1.787 C 2.825 1.941,2.512 2.241,2.413 2.465 C 2.322 2.670,2.154 3.271,1.897 4.307 C 1.587 5.562,1.554 5.805,1.642 6.234 C 1.741 6.724,1.935 7.133,2.233 7.483 L 2.400 7.678 2.400 10.234 L 2.400 12.791 2.261 12.823 C 1.784 12.933,1.516 13.384,1.651 13.849 C 1.698 14.011,1.901 14.239,2.074 14.325 L 2.200 14.387 8.000 14.387 C 13.537 14.387,13.805 14.384,13.903 14.338 C 13.959 14.312,14.063 14.237,14.133 14.171 C 14.605 13.730,14.383 12.972,13.739 12.823 L 13.600 12.791 13.600 10.233 L 13.600 7.675 13.720 7.541 C 14.116 7.100,14.342 6.552,14.390 5.918 C 14.415 5.591,14.376 5.373,14.094 4.253 C 13.693 2.666,13.608 2.423,13.358 2.149 C 13.181 1.955,12.968 1.814,12.691 1.708 L 12.482 1.627 8.114 1.631 C 5.712 1.633,3.657 1.642,3.547 1.652 M12.467 4.380 C 12.783 5.659,12.812 5.845,12.735 6.087 C 12.642 6.377,12.397 6.639,12.130 6.735 C 12.065 6.759,11.925 6.777,11.813 6.778 C 11.467 6.779,11.264 6.669,10.758 6.202 L 10.511 5.974 10.400 6.106 C 10.269 6.263,9.966 6.512,9.736 6.652 C 9.525 6.780,9.305 6.821,9.085 6.775 C 8.878 6.731,8.508 6.483,8.226 6.198 L 8.012 5.982 7.759 6.220 C 7.455 6.506,7.217 6.669,6.994 6.744 C 6.782 6.816,6.669 6.814,6.447 6.736 C 6.230 6.659,6.010 6.505,5.698 6.209 L 5.463 5.987 5.218 6.227 C 4.662 6.773,4.252 6.908,3.795 6.695 C 3.460 6.539,3.252 6.241,3.234 5.893 C 3.223 5.684,3.242 5.595,3.696 3.727 L 3.824 3.200 8.000 3.200 L 12.176 3.200 12.467 4.380 M5.685 8.174 C 6.087 8.337,6.286 8.377,6.720 8.378 C 7.161 8.380,7.317 8.351,7.751 8.187 L 8.032 8.082 8.161 8.147 C 8.766 8.454,9.770 8.453,10.377 8.145 L 10.511 8.077 10.748 8.173 C 11.091 8.311,11.359 8.373,11.700 8.392 L 12.000 8.408 12.000 9.004 L 12.000 9.600 8.000 9.600 L 4.000 9.600 4.000 9.004 L 4.000 8.408 4.287 8.391 C 4.631 8.371,4.925 8.303,5.213 8.178 C 5.331 8.127,5.433 8.084,5.441 8.083 C 5.449 8.081,5.559 8.122,5.685 8.174 M12.000 12.000 L 12.000 12.800 8.000 12.800 L 4.000 12.800 4.000 12.000 L 4.000 11.200 8.000 11.200 L 12.000 11.200 12.000 12.000 " fill="#1A1C1F" stroke="none" fill-rule="evenodd"></path></svg>