<svg width="14" height="14" viewBox="0 0 14 14" fill="none" xmlns="http://www.w3.org/2000/svg"><path d="M3.103 1.446 C 3.007 1.456,2.886 1.482,2.835 1.504 C 2.677 1.573,2.442 1.741,2.313 1.878 C 2.091 2.112,2.034 2.277,1.631 3.862 L 1.394 4.795 1.409 5.098 C 1.417 5.265,1.438 5.470,1.456 5.554 C 1.531 5.905,1.740 6.315,1.982 6.584 L 2.100 6.716 2.100 8.954 L 2.100 11.192 1.978 11.220 C 1.559 11.317,1.326 11.709,1.444 12.118 C 1.486 12.260,1.663 12.459,1.815 12.534 L 1.925 12.588 7.000 12.588 L 12.075 12.588 12.185 12.534 C 12.337 12.459,12.514 12.260,12.556 12.118 C 12.674 11.711,12.439 11.316,12.022 11.220 L 11.900 11.192 11.900 8.949 L 11.900 6.706 11.982 6.626 C 12.204 6.411,12.427 5.998,12.521 5.627 C 12.607 5.288,12.617 4.994,12.555 4.667 C 12.431 4.015,11.999 2.413,11.876 2.149 C 11.752 1.884,11.349 1.548,11.057 1.466 C 10.979 1.444,10.071 1.437,7.117 1.434 C 5.006 1.431,3.200 1.437,3.103 1.446 M10.907 3.821 C 11.216 5.067,11.227 5.155,11.099 5.425 C 10.951 5.735,10.713 5.910,10.392 5.943 C 10.254 5.958,10.047 5.898,9.858 5.789 C 9.753 5.728,9.321 5.361,9.243 5.266 C 9.215 5.232,9.194 5.246,9.033 5.409 C 8.840 5.605,8.625 5.769,8.423 5.872 C 8.314 5.927,8.268 5.937,8.108 5.936 C 7.952 5.936,7.901 5.925,7.794 5.871 C 7.595 5.771,7.378 5.607,7.186 5.412 L 7.011 5.234 6.801 5.431 C 6.526 5.691,6.334 5.826,6.142 5.894 C 5.944 5.963,5.839 5.963,5.641 5.894 C 5.451 5.826,5.248 5.685,4.983 5.434 L 4.783 5.245 4.566 5.452 C 4.194 5.808,3.961 5.933,3.663 5.936 C 3.513 5.938,3.467 5.928,3.332 5.864 C 3.028 5.720,2.844 5.457,2.829 5.145 C 2.821 4.976,2.833 4.917,3.234 3.261 L 3.345 2.800 7.000 2.800 L 10.654 2.800 10.907 3.821 M5.030 7.173 C 5.353 7.303,5.512 7.333,5.892 7.333 C 6.243 7.334,6.493 7.284,6.804 7.150 L 6.995 7.068 7.232 7.164 C 7.559 7.296,7.722 7.326,8.108 7.326 C 8.494 7.326,8.658 7.296,8.985 7.164 L 9.222 7.068 9.415 7.151 C 9.689 7.269,9.935 7.326,10.238 7.343 L 10.500 7.357 10.500 7.879 L 10.500 8.400 7.000 8.400 L 3.500 8.400 3.500 7.879 L 3.500 7.357 3.740 7.342 C 4.014 7.326,4.351 7.247,4.587 7.145 C 4.676 7.106,4.754 7.074,4.761 7.072 C 4.768 7.071,4.889 7.116,5.030 7.173 M10.500 10.500 L 10.500 11.200 7.000 11.200 L 3.500 11.200 3.500 10.500 L 3.500 9.800 7.000 9.800 L 10.500 9.800 10.500 10.500 " fill="#1A1C1F" stroke="none" fill-rule="evenodd"></path></svg>