<svg width="24" height="24" viewBox="0 0 24 24" fill="none" xmlns="http://www.w3.org/2000/svg"><path d="M8.220 3.038 L 5.700 3.060 5.420 3.217 C 5.035 3.432,4.636 3.824,4.507 4.112 C 4.375 4.408,4.104 5.359,3.582 7.360 C 3.057 9.370,2.981 9.748,3.015 10.188 C 3.064 10.834,3.357 11.530,3.764 11.975 L 4.000 12.232 4.000 15.606 L 4.000 18.980 3.768 19.048 C 3.047 19.260,2.800 20.053,3.264 20.662 C 3.481 20.946,3.400 20.936,5.620 20.965 C 8.194 20.999,15.752 20.999,18.360 20.965 C 20.655 20.935,20.525 20.955,20.771 20.592 C 20.976 20.290,21.025 20.094,20.964 19.823 C 20.881 19.452,20.645 19.194,20.256 19.050 L 20.060 18.978 20.035 18.679 C 20.022 18.515,20.008 16.993,20.005 15.297 L 20.000 12.215 20.124 12.097 C 20.315 11.917,20.589 11.515,20.715 11.234 C 20.923 10.765,20.979 10.501,20.975 10.000 C 20.971 9.556,20.958 9.488,20.590 8.040 C 20.163 6.362,19.766 4.899,19.610 4.426 C 19.414 3.831,19.095 3.467,18.527 3.192 L 18.260 3.063 16.480 3.035 C 14.521 3.005,12.063 3.006,8.220 3.038 M17.726 5.071 C 17.760 5.107,18.770 9.004,18.879 9.524 C 18.994 10.067,18.986 10.263,18.842 10.491 C 18.591 10.886,18.180 11.053,17.740 10.939 C 17.378 10.845,17.123 10.654,16.812 10.243 C 16.662 10.046,16.527 9.884,16.511 9.882 C 16.495 9.881,16.357 10.038,16.204 10.230 C 15.759 10.790,15.464 10.972,15.001 10.972 C 14.615 10.971,14.391 10.859,14.030 10.487 C 13.867 10.318,13.682 10.104,13.621 10.010 C 13.560 9.916,13.504 9.840,13.498 9.840 C 13.492 9.840,13.394 9.966,13.280 10.121 C 13.024 10.466,12.679 10.782,12.440 10.892 C 12.197 11.004,11.806 11.002,11.549 10.888 C 11.357 10.803,10.957 10.432,10.668 10.070 C 10.584 9.966,10.503 9.880,10.488 9.881 C 10.473 9.881,10.389 9.981,10.303 10.101 C 10.091 10.397,9.639 10.828,9.464 10.901 C 9.284 10.976,8.723 10.979,8.549 10.906 C 8.296 10.799,7.946 10.453,7.579 9.948 L 7.498 9.836 7.230 10.178 C 6.566 11.022,5.869 11.215,5.326 10.706 C 5.091 10.484,5.026 10.307,5.053 9.961 C 5.087 9.530,6.178 5.223,6.287 5.092 C 6.317 5.055,6.559 5.038,7.174 5.027 C 8.586 5.002,17.696 5.040,17.726 5.071 M10.960 12.806 C 11.296 12.936,11.308 12.937,11.980 12.939 L 12.660 12.940 13.079 12.790 L 13.499 12.641 13.908 12.782 C 14.708 13.058,15.233 13.058,16.077 12.784 C 16.477 12.653,16.500 12.650,16.677 12.705 C 17.262 12.888,17.565 12.966,17.770 12.987 L 18.000 13.011 18.000 14.006 L 18.000 15.000 12.000 15.000 L 6.000 15.000 6.000 14.000 L 6.000 13.000 6.143 13.000 C 6.302 13.000,6.772 12.887,7.136 12.761 C 7.455 12.651,7.542 12.657,8.053 12.822 C 8.802 13.065,9.298 13.050,10.120 12.762 C 10.307 12.697,10.496 12.650,10.540 12.659 C 10.584 12.667,10.773 12.734,10.960 12.806 M18.000 18.000 L 18.000 19.000 12.000 19.000 L 6.000 19.000 6.000 18.000 L 6.000 17.000 12.000 17.000 L 18.000 17.000 18.000 18.000 " fill="#1A1C1F" stroke="none" fill-rule="evenodd"></path></svg>