<svg width="14" height="14" viewBox="0 0 14 14" fill="none" xmlns="http://www.w3.org/2000/svg"><path d="M2.823 1.444 C 2.727 1.455,2.664 1.480,2.578 1.542 C 2.350 1.705,2.359 1.682,1.782 3.593 C 1.412 4.820,1.391 4.905,1.408 5.145 C 1.456 5.831,1.937 6.422,2.582 6.590 C 2.799 6.646,3.228 6.640,3.413 6.578 C 3.705 6.481,3.852 6.391,4.089 6.163 L 4.317 5.944 4.545 6.163 C 4.917 6.523,5.167 6.627,5.665 6.627 C 5.912 6.627,5.979 6.618,6.133 6.567 C 6.397 6.479,6.613 6.341,6.821 6.127 L 7.004 5.939 7.113 6.059 C 7.360 6.332,7.659 6.513,8.013 6.603 C 8.247 6.663,8.437 6.663,8.670 6.603 C 9.029 6.511,9.396 6.285,9.581 6.043 L 9.667 5.929 9.858 6.121 C 10.418 6.680,11.113 6.795,11.782 6.439 C 12.291 6.168,12.634 5.552,12.593 4.982 C 12.576 4.752,12.305 3.815,11.804 2.255 C 11.643 1.754,11.638 1.742,11.525 1.629 C 11.310 1.415,11.770 1.435,7.093 1.432 C 4.815 1.430,2.894 1.435,2.823 1.444 M2.100 9.271 L 2.100 11.192 1.978 11.220 C 1.559 11.317,1.326 11.709,1.444 12.118 C 1.486 12.260,1.663 12.459,1.815 12.534 L 1.925 12.588 7.000 12.588 L 12.075 12.588 12.185 12.534 C 12.337 12.459,12.514 12.260,12.556 12.118 C 12.674 11.711,12.439 11.316,12.022 11.220 L 11.900 11.192 11.900 9.271 L 11.900 7.350 7.000 7.350 L 2.100 7.350 2.100 9.271 " fill="#1A1C1F" stroke="none" fill-rule="evenodd"></path></svg>