<svg width="32" height="32" viewBox="0 0 32 32" fill="none" xmlns="http://www.w3.org/2000/svg"><path d="M7.353 4.101 C 7.123 4.126,6.982 4.182,6.749 4.343 C 6.416 4.572,6.120 4.902,6.026 5.148 C 5.918 5.430,5.562 6.967,5.155 8.907 C 4.586 11.621,4.563 11.765,4.561 12.587 C 4.560 13.263,4.569 13.329,4.716 13.680 C 4.934 14.202,5.162 14.545,5.598 15.004 L 5.973 15.399 5.973 20.713 C 5.973 25.738,5.968 26.027,5.880 26.027 C 5.829 26.027,5.663 26.098,5.513 26.185 C 5.214 26.356,5.013 26.670,5.013 26.966 C 5.013 27.205,5.254 27.641,5.491 27.832 L 5.700 28.000 15.370 27.995 C 20.689 27.993,25.345 27.974,25.718 27.954 C 26.462 27.914,26.576 27.869,26.811 27.525 C 27.188 26.971,26.866 26.179,26.214 26.057 L 26.027 26.022 26.027 20.702 L 26.027 15.382 26.244 15.171 C 27.142 14.302,27.509 13.417,27.448 12.267 C 27.417 11.686,27.051 9.776,26.478 7.207 C 26.023 5.166,26.005 5.110,25.687 4.761 C 25.536 4.596,25.272 4.369,25.098 4.257 L 24.783 4.053 16.218 4.061 C 11.508 4.065,7.518 4.084,7.353 4.101 M24.733 8.680 C 25.371 11.781,25.440 12.165,25.440 12.623 C 25.440 13.008,25.369 13.181,25.081 13.500 C 24.779 13.834,24.525 13.944,24.053 13.944 C 23.490 13.944,23.213 13.790,22.534 13.101 L 22.000 12.560 21.440 13.125 C 20.850 13.721,20.550 13.913,20.136 13.960 C 19.602 14.020,18.918 13.625,18.330 12.915 L 18.020 12.542 17.476 13.092 C 16.873 13.703,16.536 13.911,16.072 13.959 C 15.816 13.985,15.740 13.967,15.388 13.793 C 15.065 13.633,14.903 13.502,14.501 13.075 L 14.010 12.553 13.445 13.122 C 12.739 13.835,12.427 14.004,11.911 13.956 C 11.427 13.910,11.188 13.763,10.553 13.122 L 9.986 12.548 9.646 12.930 C 9.034 13.619,8.599 13.904,8.080 13.958 C 7.502 14.018,7.011 13.752,6.695 13.209 C 6.552 12.963,6.546 12.929,6.575 12.462 C 6.593 12.167,6.798 11.021,7.092 9.573 C 7.360 8.253,7.631 6.915,7.694 6.600 L 7.809 6.027 15.998 6.027 L 24.187 6.027 24.733 8.680 M10.340 15.570 C 10.952 15.879,11.245 15.947,11.958 15.945 C 12.739 15.944,12.940 15.903,13.549 15.620 L 14.012 15.405 14.393 15.596 C 14.940 15.872,15.284 15.947,15.998 15.945 C 16.745 15.944,16.961 15.899,17.552 15.620 L 18.010 15.404 18.392 15.596 C 18.940 15.872,19.284 15.947,19.998 15.945 C 20.738 15.944,20.952 15.899,21.544 15.622 L 21.998 15.409 22.346 15.568 C 22.775 15.765,23.577 16.000,23.819 16.000 L 24.000 16.000 24.000 18.000 L 24.000 20.000 16.000 20.000 L 8.000 20.000 8.000 18.000 L 8.000 16.000 8.207 16.000 C 8.486 16.000,9.268 15.769,9.643 15.575 C 9.810 15.489,9.965 15.417,9.988 15.416 C 10.011 15.414,10.169 15.484,10.340 15.570 M24.000 24.027 L 24.000 26.027 16.000 26.027 L 8.000 26.027 8.000 24.027 L 8.000 22.027 16.000 22.027 L 24.000 22.027 24.000 24.027 " fill="#1A1C1F" stroke="none" fill-rule="evenodd"></path></svg>