<svg width="28" height="28" viewBox="0 0 28 28" fill="none" xmlns="http://www.w3.org/2000/svg"><path d="M6.434 3.589 C 6.134 3.621,5.752 3.852,5.486 4.162 C 5.243 4.447,5.067 5.109,4.462 8.027 C 3.987 10.320,3.994 10.277,3.995 10.967 C 3.995 11.544,4.006 11.626,4.127 11.947 C 4.300 12.404,4.496 12.705,4.898 13.128 L 5.227 13.474 5.227 18.116 L 5.227 22.759 5.039 22.815 C 4.683 22.922,4.387 23.279,4.387 23.603 C 4.387 23.805,4.600 24.188,4.804 24.353 L 4.988 24.500 13.542 24.499 C 18.487 24.499,22.321 24.480,22.629 24.454 C 23.117 24.414,23.172 24.400,23.300 24.280 C 23.475 24.115,23.611 23.824,23.611 23.613 C 23.611 23.236,23.309 22.877,22.925 22.797 L 22.773 22.766 22.773 18.112 L 22.773 13.459 22.964 13.274 C 23.749 12.514,24.070 11.740,24.017 10.733 C 23.990 10.233,23.640 8.407,23.151 6.221 C 22.774 4.534,22.752 4.469,22.476 4.166 C 22.344 4.022,22.113 3.823,21.961 3.725 L 21.686 3.547 14.191 3.554 C 10.069 3.557,6.578 3.573,6.434 3.589 M21.202 5.425 C 21.217 5.508,21.461 6.719,21.744 8.115 C 22.379 11.242,22.384 11.327,21.953 11.805 C 21.682 12.104,21.462 12.201,21.047 12.202 C 20.550 12.203,20.245 12.031,19.681 11.433 L 19.258 10.983 18.764 11.482 C 18.146 12.105,17.874 12.253,17.422 12.211 C 16.999 12.172,16.789 12.043,16.240 11.487 L 15.750 10.990 15.260 11.485 C 14.675 12.075,14.451 12.203,14.000 12.202 C 13.553 12.202,13.224 12.009,12.681 11.433 L 12.258 10.983 11.764 11.482 C 11.146 12.105,10.874 12.253,10.422 12.211 C 9.999 12.172,9.789 12.043,9.234 11.481 L 8.738 10.980 8.441 11.314 C 7.904 11.917,7.524 12.166,7.070 12.213 C 6.565 12.265,6.135 12.033,5.858 11.558 C 5.733 11.343,5.728 11.313,5.753 10.905 C 5.769 10.648,5.950 9.637,6.206 8.377 C 6.441 7.222,6.677 6.051,6.733 5.775 L 6.833 5.273 14.004 5.273 L 21.174 5.273 21.202 5.425 M9.101 13.651 C 9.568 13.886,9.883 13.956,10.479 13.958 C 11.088 13.960,11.320 13.910,11.859 13.663 L 12.261 13.479 12.582 13.641 C 13.092 13.898,13.340 13.953,13.975 13.953 C 14.628 13.953,14.923 13.890,15.406 13.647 L 15.739 13.479 16.141 13.664 C 16.663 13.904,16.935 13.963,17.500 13.963 C 18.065 13.963,18.337 13.904,18.859 13.664 L 19.261 13.479 19.466 13.583 C 19.788 13.747,20.438 13.954,20.732 13.985 L 21.000 14.013 21.000 15.757 L 21.000 17.500 14.000 17.500 L 7.000 17.500 7.000 15.750 L 7.000 14.000 7.181 14.000 C 7.426 14.000,8.110 13.798,8.438 13.628 C 8.584 13.553,8.720 13.490,8.739 13.489 C 8.759 13.488,8.922 13.560,9.101 13.651 M21.000 21.023 L 21.000 22.773 14.000 22.773 L 7.000 22.773 7.000 21.023 L 7.000 19.273 14.000 19.273 L 21.000 19.273 21.000 21.023 " fill="#1A1C1F" stroke="none" fill-rule="evenodd"></path></svg>