<svg width="16" height="16" viewBox="0 0 16 16" fill="none" xmlns="http://www.w3.org/2000/svg"><path d="M3.223 1.653 C 2.978 1.684,2.771 1.848,2.667 2.091 C 2.603 2.242,2.410 2.857,1.935 4.425 C 1.579 5.598,1.578 5.605,1.625 6.015 C 1.695 6.625,2.104 7.177,2.680 7.440 C 2.925 7.552,3.104 7.586,3.427 7.585 C 3.673 7.584,3.753 7.572,3.925 7.512 C 4.225 7.409,4.484 7.242,4.723 7.001 L 4.933 6.789 5.113 6.976 C 5.405 7.280,5.690 7.444,6.107 7.550 C 6.473 7.643,6.875 7.590,7.267 7.400 C 7.463 7.304,7.807 7.025,7.920 6.870 L 7.986 6.779 8.215 6.998 C 8.502 7.271,8.690 7.396,8.968 7.500 C 9.165 7.573,9.217 7.581,9.493 7.582 C 10.116 7.583,10.548 7.376,10.981 6.872 L 11.068 6.770 11.139 6.859 C 11.455 7.247,11.913 7.509,12.403 7.580 C 13.349 7.718,14.318 6.915,14.393 5.932 C 14.417 5.611,14.343 5.312,13.813 3.600 C 13.339 2.066,13.318 2.008,13.174 1.865 C 13.104 1.795,12.998 1.713,12.938 1.682 L 12.829 1.627 8.101 1.630 C 5.501 1.632,3.306 1.642,3.223 1.653 M2.400 10.599 L 2.400 12.798 2.300 12.815 C 2.126 12.847,1.927 12.958,1.814 13.086 C 1.674 13.244,1.585 13.516,1.613 13.700 C 1.651 13.955,1.831 14.195,2.080 14.324 L 2.200 14.387 7.952 14.396 C 14.459 14.406,13.852 14.427,14.117 14.185 C 14.606 13.738,14.395 12.974,13.739 12.823 L 13.600 12.791 13.600 10.595 L 13.600 8.400 8.000 8.400 L 2.400 8.400 2.400 10.599 " fill="#1A1C1F" stroke="none" fill-rule="evenodd"></path></svg>