<svg width="20" height="20" viewBox="0 0 20 20" fill="none" xmlns="http://www.w3.org/2000/svg"><path d="M3.992 2.068 C 3.795 2.101,3.636 2.197,3.484 2.375 C 3.345 2.537,3.250 2.816,2.499 5.267 L 1.994 6.917 2.015 7.298 C 2.052 7.957,2.241 8.380,2.699 8.832 C 2.979 9.109,3.232 9.266,3.584 9.384 C 3.831 9.468,3.881 9.473,4.283 9.459 C 4.990 9.436,5.370 9.269,5.894 8.755 L 6.171 8.483 6.360 8.689 C 6.590 8.939,6.807 9.103,7.098 9.248 C 7.487 9.442,7.642 9.478,8.086 9.475 C 8.758 9.471,9.166 9.296,9.692 8.788 L 10.001 8.489 10.276 8.757 C 10.730 9.199,11.118 9.401,11.643 9.466 C 11.990 9.509,12.368 9.471,12.636 9.366 C 13.048 9.205,13.456 8.923,13.685 8.643 L 13.829 8.466 13.971 8.634 C 14.294 9.018,14.869 9.359,15.346 9.450 C 15.692 9.516,15.895 9.513,16.223 9.434 C 16.586 9.347,16.870 9.208,17.138 8.987 C 17.725 8.503,17.971 7.984,17.974 7.222 C 17.975 6.794,18.004 6.907,17.367 4.833 C 16.671 2.569,16.651 2.515,16.468 2.331 C 16.381 2.244,16.248 2.141,16.173 2.103 L 16.036 2.033 10.093 2.037 C 6.824 2.039,4.079 2.053,3.992 2.068 M3.000 13.244 L 3.000 15.989 2.826 16.029 C 2.230 16.166,1.895 16.730,2.063 17.311 C 2.122 17.514,2.376 17.799,2.593 17.906 L 2.750 17.983 10.000 17.983 L 17.250 17.983 17.407 17.906 C 17.624 17.799,17.878 17.514,17.937 17.311 C 18.105 16.730,17.770 16.166,17.174 16.029 L 17.000 15.989 17.000 13.244 L 17.000 10.500 10.000 10.500 L 3.000 10.500 3.000 13.244 " fill="#1A1C1F" stroke="none" fill-rule="evenodd"></path></svg>