<svg width="20" height="20" viewBox="0 0 20 20" fill="none" xmlns="http://www.w3.org/2000/svg"><path d="M5.867 2.056 C 5.766 2.062,5.648 2.075,5.605 2.085 C 5.488 2.112,5.171 2.427,5.080 2.607 L 5.000 2.764 5.000 5.877 L 5.000 8.989 3.847 9.012 C 2.892 9.031,2.676 9.044,2.591 9.088 C 2.426 9.173,2.166 9.437,2.080 9.607 L 2.000 9.764 2.000 13.500 L 2.000 17.236 2.084 17.402 C 2.192 17.615,2.385 17.808,2.598 17.916 L 2.764 18.000 5.500 18.000 L 8.236 18.000 8.402 17.916 C 8.615 17.808,8.808 17.615,8.916 17.402 L 9.000 17.236 9.000 16.118 L 9.000 15.000 10.000 15.000 L 11.000 15.000 11.000 16.118 L 11.000 17.236 11.084 17.402 C 11.192 17.615,11.385 17.808,11.598 17.916 L 11.764 18.000 14.500 18.000 L 17.236 18.000 17.402 17.916 C 17.615 17.808,17.808 17.615,17.916 17.402 L 18.000 17.236 18.000 13.500 C 18.000 9.787,18.000 9.763,17.931 9.629 C 17.838 9.447,17.626 9.222,17.451 9.119 C 17.308 9.035,17.308 9.035,16.155 9.012 L 15.002 8.989 14.993 5.853 C 14.984 2.884,14.980 2.711,14.922 2.605 C 14.832 2.439,14.614 2.214,14.450 2.118 L 14.305 2.033 10.177 2.039 C 7.907 2.043,5.968 2.051,5.867 2.056 M13.000 7.500 L 13.000 11.000 14.500 11.000 L 16.000 11.000 16.000 13.500 L 16.000 16.000 14.500 16.000 L 13.000 16.000 13.000 14.925 C 13.000 14.309,12.985 13.799,12.966 13.730 C 12.911 13.532,12.756 13.336,12.532 13.180 L 12.321 13.033 10.008 13.033 L 7.695 13.033 7.555 13.115 C 7.375 13.221,7.214 13.379,7.095 13.565 L 7.000 13.713 7.000 14.857 L 7.000 16.000 5.500 16.000 L 4.000 16.000 4.000 13.500 L 4.000 11.000 5.500 11.000 L 7.000 11.000 7.000 7.500 L 7.000 4.000 10.000 4.000 L 13.000 4.000 13.000 7.500 M9.000 8.000 L 9.000 9.000 10.000 9.000 L 11.000 9.000 11.000 8.000 L 11.000 7.000 10.000 7.000 L 9.000 7.000 9.000 8.000 " fill="#1A1C1F" stroke="none" fill-rule="evenodd"></path></svg>