<svg width="28" height="28" viewBox="0 0 28 28" fill="none" xmlns="http://www.w3.org/2000/svg"><path d="M7.486 2.770 C 7.356 2.857,7.183 3.010,7.101 3.108 L 6.953 3.288 6.953 9.087 L 6.953 14.887 5.355 14.887 C 4.476 14.887,3.422 14.901,3.013 14.918 L 2.270 14.949 2.088 15.113 C 1.988 15.203,1.864 15.360,1.812 15.462 C 1.719 15.644,1.718 15.702,1.740 20.108 C 1.754 23.044,1.778 24.634,1.811 24.757 C 1.845 24.885,1.935 25.012,2.100 25.165 L 2.340 25.387 6.998 25.387 L 11.657 25.387 11.894 25.174 C 12.044 25.038,12.149 24.898,12.181 24.789 C 12.211 24.686,12.249 23.717,12.275 22.400 C 12.323 19.908,12.334 19.747,12.467 19.578 C 12.677 19.311,12.754 19.297,14.000 19.297 C 15.246 19.297,15.323 19.311,15.533 19.578 C 15.665 19.746,15.676 19.904,15.725 22.400 C 15.751 23.715,15.789 24.687,15.819 24.789 C 15.851 24.898,15.956 25.038,16.106 25.174 L 16.343 25.387 21.000 25.387 L 25.657 25.387 25.890 25.176 C 26.078 25.008,26.137 24.918,26.187 24.721 C 26.275 24.381,26.280 15.802,26.193 15.516 C 26.109 15.242,25.911 15.029,25.690 14.978 C 25.587 14.954,24.492 14.920,23.256 14.903 L 21.009 14.872 20.993 9.081 C 20.977 3.400,20.975 3.286,20.883 3.104 C 20.708 2.755,20.609 2.723,19.614 2.690 C 19.131 2.674,16.259 2.650,13.230 2.636 L 7.723 2.611 7.486 2.770 M19.227 14.000 L 19.227 23.613 18.369 23.613 L 17.511 23.613 17.489 21.595 C 17.468 19.633,17.464 19.569,17.361 19.297 C 17.112 18.642,16.678 18.163,15.988 17.783 L 15.645 17.593 13.992 17.593 L 12.340 17.593 11.956 17.815 C 11.439 18.114,11.201 18.325,10.955 18.700 C 10.536 19.340,10.502 19.585,10.501 21.945 L 10.500 23.613 9.637 23.613 L 8.773 23.613 8.773 14.000 L 8.773 4.387 14.000 4.387 L 19.227 4.387 19.227 14.000 M13.167 7.112 C 12.806 7.204,12.108 7.564,11.784 7.827 C 11.231 8.274,10.830 8.893,10.633 9.600 C 10.501 10.075,10.490 10.895,10.611 11.340 C 10.854 12.239,11.502 13.090,12.274 13.524 C 12.660 13.741,13.340 13.952,13.758 13.984 C 14.180 14.017,14.604 13.956,15.157 13.782 C 16.120 13.481,16.970 12.617,17.308 11.597 C 17.451 11.168,17.462 11.089,17.464 10.502 C 17.466 9.934,17.453 9.832,17.340 9.497 C 17.005 8.512,16.370 7.782,15.477 7.358 C 15.288 7.268,15.052 7.170,14.952 7.140 C 14.668 7.055,13.465 7.036,13.167 7.112 M14.622 8.894 C 14.892 8.987,15.349 9.393,15.530 9.702 C 15.649 9.904,15.657 9.950,15.657 10.501 C 15.657 11.079,15.655 11.088,15.507 11.318 C 15.306 11.630,15.014 11.928,14.803 12.034 C 14.162 12.356,13.329 12.243,12.842 11.768 C 12.466 11.402,12.351 11.159,12.328 10.680 C 12.300 10.096,12.342 9.894,12.558 9.570 C 12.771 9.252,13.115 8.979,13.460 8.855 C 13.742 8.754,14.265 8.771,14.622 8.894 M7.000 20.113 L 7.000 23.613 5.250 23.613 L 3.500 23.613 3.500 20.113 L 3.500 16.613 5.250 16.613 L 7.000 16.613 7.000 20.113 M24.500 20.113 L 24.500 23.613 22.750 23.613 L 21.000 23.613 21.000 20.113 L 21.000 16.613 22.750 16.613 L 24.500 16.613 24.500 20.113 " fill="#1A1C1F" stroke="none" fill-rule="evenodd"></path></svg>