<svg width="16" height="16" viewBox="0 0 16 16" fill="none" xmlns="http://www.w3.org/2000/svg"><path d="M4.693 1.645 C 4.613 1.650,4.518 1.660,4.484 1.668 C 4.390 1.689,4.137 1.942,4.064 2.086 L 4.000 2.212 4.000 4.702 L 4.000 7.192 3.076 7.211 C 2.165 7.229,2.150 7.230,2.042 7.293 C 1.911 7.371,1.736 7.550,1.658 7.688 L 1.600 7.790 1.600 10.810 L 1.600 13.830 1.676 13.948 C 1.764 14.086,1.982 14.295,2.101 14.357 C 2.175 14.395,2.416 14.400,4.386 14.400 C 6.572 14.400,6.590 14.400,6.701 14.344 C 6.845 14.272,7.055 14.070,7.128 13.933 C 7.183 13.831,7.186 13.786,7.195 12.913 L 7.205 12.000 8.003 12.000 L 8.800 12.000 8.800 12.894 C 8.800 13.786,8.800 13.789,8.864 13.915 C 8.949 14.083,9.114 14.249,9.278 14.332 L 9.412 14.400 11.621 14.400 L 13.831 14.400 13.949 14.322 C 14.087 14.230,14.233 14.082,14.331 13.936 L 14.400 13.833 14.400 10.822 L 14.400 7.812 14.336 7.686 C 14.266 7.549,14.095 7.375,13.946 7.286 C 13.857 7.233,13.800 7.228,12.926 7.211 L 12.001 7.192 11.994 4.683 L 11.987 2.173 11.929 2.067 C 11.863 1.945,11.685 1.768,11.544 1.684 L 11.447 1.627 8.144 1.632 C 6.327 1.634,4.774 1.640,4.693 1.645 M10.400 6.000 L 10.400 8.800 11.600 8.800 L 12.800 8.800 12.800 10.800 L 12.800 12.800 11.600 12.800 L 10.400 12.800 10.400 11.885 L 10.400 10.970 10.323 10.852 C 10.235 10.715,10.082 10.566,9.944 10.484 C 9.847 10.427,9.844 10.427,8.000 10.427 C 6.156 10.427,6.153 10.427,6.056 10.484 C 5.918 10.566,5.765 10.715,5.677 10.852 L 5.600 10.970 5.600 11.885 L 5.600 12.800 4.400 12.800 L 3.200 12.800 3.200 10.800 L 3.200 8.800 4.400 8.800 L 5.600 8.800 5.600 6.000 L 5.600 3.200 8.000 3.200 L 10.400 3.200 10.400 6.000 M7.200 6.400 L 7.200 7.200 8.000 7.200 L 8.800 7.200 8.800 6.400 L 8.800 5.600 8.000 5.600 L 7.200 5.600 7.200 6.400 " fill="#1A1C1F" stroke="none" fill-rule="evenodd"></path></svg>