<svg width="12" height="12" viewBox="0 0 12 12" fill="none" xmlns="http://www.w3.org/2000/svg"><path d="M3.510 1.233 C 3.455 1.237,3.389 1.245,3.363 1.251 C 3.293 1.267,3.103 1.456,3.048 1.564 L 3.000 1.659 3.000 3.526 L 3.000 5.394 2.334 5.407 C 1.967 5.415,1.635 5.430,1.595 5.441 C 1.500 5.467,1.332 5.621,1.259 5.748 L 1.200 5.850 1.200 8.096 L 1.200 10.341 1.250 10.440 C 1.312 10.563,1.410 10.662,1.546 10.740 L 1.650 10.800 3.296 10.800 L 4.941 10.800 5.041 10.749 C 5.169 10.685,5.285 10.569,5.349 10.441 L 5.400 10.341 5.400 9.671 L 5.400 9.000 6.000 9.000 L 6.600 9.000 6.600 9.671 L 6.600 10.341 6.651 10.441 C 6.715 10.569,6.831 10.685,6.959 10.749 L 7.059 10.800 8.700 10.800 L 10.341 10.800 10.441 10.749 C 10.569 10.685,10.685 10.569,10.749 10.441 L 10.800 10.341 10.800 8.096 L 10.800 5.850 10.741 5.748 C 10.668 5.621,10.500 5.467,10.405 5.441 C 10.365 5.430,10.033 5.415,9.666 5.407 L 9.000 5.394 9.000 3.526 C 9.000 1.677,9.000 1.658,8.959 1.577 C 8.907 1.475,8.778 1.334,8.683 1.275 L 8.610 1.230 6.110 1.228 C 4.735 1.227,3.565 1.229,3.510 1.233 M7.800 4.500 L 7.800 6.600 8.700 6.600 L 9.600 6.600 9.600 8.100 L 9.600 9.600 8.700 9.600 L 7.800 9.600 7.800 8.955 C 7.800 8.585,7.791 8.279,7.780 8.238 C 7.747 8.119,7.654 8.002,7.519 7.908 L 7.393 7.820 6.005 7.820 L 4.617 7.820 4.533 7.869 C 4.425 7.933,4.328 8.027,4.257 8.139 L 4.200 8.228 4.200 8.914 L 4.200 9.600 3.300 9.600 L 2.400 9.600 2.400 8.100 L 2.400 6.600 3.300 6.600 L 4.200 6.600 4.200 4.500 L 4.200 2.400 6.000 2.400 L 7.800 2.400 7.800 4.500 M5.400 4.800 L 5.400 5.400 6.000 5.400 L 6.600 5.400 6.600 4.800 L 6.600 4.200 6.000 4.200 L 5.400 4.200 5.400 4.800 " fill="#1A1C1F" stroke="none" fill-rule="evenodd"></path></svg>