<svg width="24" height="24" viewBox="0 0 24 24" fill="none" xmlns="http://www.w3.org/2000/svg"><path d="M6.752 2.076 C 6.535 2.107,6.336 2.251,6.146 2.514 L 6.020 2.688 6.006 7.338 L 5.991 11.987 4.349 12.013 L 2.706 12.039 2.563 12.134 C 2.344 12.280,2.197 12.442,2.104 12.640 C 2.020 12.819,2.020 12.836,2.020 16.940 C 2.020 20.153,2.031 21.109,2.071 21.283 C 2.111 21.456,2.160 21.543,2.291 21.671 C 2.612 21.985,2.334 21.964,6.480 21.990 L 10.186 22.012 10.398 21.897 C 10.621 21.776,10.845 21.537,10.921 21.339 C 10.951 21.262,10.980 20.561,11.006 19.346 C 11.032 18.104,11.061 17.423,11.092 17.330 C 11.184 17.055,11.285 17.020,11.973 17.021 C 12.394 17.021,12.620 17.038,12.712 17.076 C 12.964 17.181,12.963 17.173,13.000 19.274 C 13.021 20.423,13.051 21.237,13.077 21.324 C 13.126 21.487,13.329 21.712,13.571 21.872 L 13.734 21.980 17.457 21.980 C 19.505 21.980,21.229 21.966,21.288 21.950 C 21.347 21.933,21.504 21.820,21.636 21.698 C 21.845 21.504,21.882 21.447,21.927 21.248 C 21.968 21.069,21.979 20.136,21.980 16.900 C 21.980 14.634,21.966 12.729,21.949 12.668 C 21.903 12.504,21.607 12.200,21.408 12.111 C 21.251 12.041,21.095 12.032,19.623 12.011 L 18.010 11.988 17.991 7.364 C 17.977 4.107,17.958 2.708,17.927 2.630 C 17.856 2.455,17.564 2.166,17.405 2.113 C 17.295 2.076,16.030 2.062,12.100 2.056 C 9.262 2.052,6.855 2.061,6.752 2.076 M16.009 8.630 C 16.022 11.655,16.043 13.295,16.070 13.360 C 16.136 13.522,16.426 13.824,16.589 13.902 C 16.725 13.968,16.901 13.977,18.370 13.992 L 20.000 14.010 20.000 17.005 L 20.000 20.000 17.482 20.000 L 14.964 20.000 14.952 18.470 L 14.940 16.940 14.830 16.682 C 14.466 15.834,13.726 15.204,12.940 15.075 C 12.486 15.001,11.191 15.012,10.885 15.093 C 10.050 15.315,9.335 16.022,9.095 16.864 C 9.039 17.059,9.025 17.349,9.010 18.550 L 8.992 20.000 6.496 20.000 L 4.000 20.000 4.000 17.000 L 4.000 14.000 5.622 14.000 C 7.142 14.000,7.252 13.995,7.392 13.923 C 7.594 13.819,7.871 13.526,7.927 13.358 C 7.960 13.258,7.978 11.939,7.990 8.610 L 8.007 4.000 11.998 4.000 L 15.990 4.000 16.009 8.630 M11.376 6.114 C 11.074 6.226,10.766 6.438,10.533 6.693 C 9.799 7.497,9.833 8.599,10.617 9.384 C 11.430 10.199,12.570 10.199,13.383 9.384 C 13.686 9.080,13.837 8.819,13.939 8.422 C 14.156 7.575,13.697 6.650,12.852 6.231 C 12.522 6.068,12.504 6.064,12.047 6.051 C 11.664 6.040,11.543 6.052,11.376 6.114 " fill="#1A1C1F" stroke="none" fill-rule="evenodd"></path></svg>