<svg width="28" height="28" viewBox="0 0 28 28" fill="none" xmlns="http://www.w3.org/2000/svg"><path d="M12.857 2.706 C 11.037 2.900,9.294 3.593,7.700 4.756 C 7.281 5.062,6.164 6.145,5.788 6.610 C 4.433 8.289,3.548 10.700,3.529 12.766 C 3.524 13.338,3.530 13.385,3.636 13.540 C 3.866 13.878,4.267 14.050,4.594 13.953 C 5.088 13.805,5.194 13.599,5.295 12.584 C 5.336 12.179,5.412 11.625,5.464 11.354 C 5.975 8.704,7.867 6.325,10.350 5.208 C 10.914 4.955,11.175 4.860,11.848 4.663 L 12.474 4.480 14.000 4.480 L 15.526 4.480 16.155 4.664 C 17.249 4.984,18.061 5.354,18.905 5.919 C 20.301 6.852,21.355 8.141,22.046 9.760 C 22.412 10.619,22.578 11.333,22.703 12.583 C 22.803 13.587,22.919 13.814,23.400 13.946 C 23.605 14.003,23.920 13.952,24.101 13.834 C 24.266 13.726,24.439 13.440,24.471 13.223 C 24.514 12.935,24.422 11.751,24.314 11.192 C 23.979 9.454,23.154 7.736,21.987 6.342 C 21.094 5.275,19.922 4.377,18.550 3.707 C 17.494 3.192,16.670 2.934,15.578 2.775 C 14.999 2.692,13.376 2.650,12.857 2.706 M12.390 13.257 C 11.578 13.321,9.939 13.680,8.843 14.032 C 7.189 14.565,5.455 15.428,4.321 16.282 L 3.838 16.645 3.089 16.673 C 2.545 16.693,2.301 16.721,2.198 16.774 C 2.025 16.864,1.820 17.202,1.786 17.452 C 1.754 17.691,1.943 18.094,2.168 18.265 C 2.315 18.378,2.362 18.387,2.809 18.387 C 3.073 18.387,3.396 18.400,3.525 18.416 L 3.761 18.444 4.025 18.964 C 5.436 21.740,7.339 23.527,10.010 24.584 C 14.061 26.187,18.586 25.244,21.724 22.143 C 22.719 21.160,23.523 20.007,24.059 18.795 L 24.239 18.387 24.956 18.387 C 25.656 18.387,25.677 18.384,25.832 18.265 C 26.057 18.094,26.246 17.691,26.214 17.452 C 26.180 17.202,25.975 16.864,25.802 16.774 C 25.699 16.721,25.455 16.693,24.908 16.673 L 24.155 16.645 23.779 16.357 C 22.008 14.999,19.708 14.033,16.823 13.437 C 16.192 13.306,15.999 13.288,14.863 13.252 C 13.399 13.206,13.027 13.206,12.390 13.257 M15.283 15.003 C 17.793 15.269,19.940 15.994,22.085 17.300 C 22.361 17.468,22.587 17.634,22.587 17.670 C 22.587 17.882,22.097 18.821,21.580 19.600 C 21.032 20.426,19.990 21.472,19.160 22.029 C 18.263 22.631,16.911 23.204,15.858 23.427 C 15.114 23.585,14.206 23.639,13.362 23.576 C 12.466 23.509,11.889 23.394,11.067 23.121 C 10.309 22.869,9.537 22.494,8.873 22.056 C 8.350 21.711,7.241 20.675,6.744 20.068 C 6.297 19.521,5.507 18.121,5.431 17.741 C 5.404 17.605,5.418 17.594,6.003 17.245 C 8.947 15.490,12.279 14.686,15.283 15.003 M10.048 17.078 C 9.548 17.450,9.529 18.159,10.010 18.489 C 10.319 18.701,11.522 18.999,12.623 19.138 C 13.995 19.310,16.198 19.119,17.504 18.716 C 17.872 18.602,18.091 18.463,18.234 18.250 C 18.443 17.941,18.331 17.377,18.006 17.104 C 17.807 16.937,17.456 16.948,16.564 17.149 C 15.519 17.384,15.314 17.405,14.023 17.405 C 12.751 17.406,12.356 17.365,11.349 17.129 C 11.023 17.053,10.641 16.977,10.500 16.961 C 10.264 16.935,10.228 16.944,10.048 17.078 M11.795 20.508 C 11.499 20.714,11.336 21.145,11.435 21.455 C 11.593 21.946,11.887 22.091,12.891 22.172 C 13.675 22.235,15.159 22.196,15.696 22.099 C 16.301 21.990,16.613 21.691,16.613 21.222 C 16.613 20.976,16.453 20.645,16.271 20.513 C 16.147 20.423,16.089 20.418,15.407 20.437 C 14.245 20.470,13.470 20.466,12.693 20.424 L 11.970 20.386 11.795 20.508 " fill="#1A1C1F" stroke="none" fill-rule="evenodd"></path></svg>