<svg width="12" height="12" viewBox="0 0 12 12" fill="none" xmlns="http://www.w3.org/2000/svg"><path d="M5.402 1.252 C 5.113 1.298,4.695 1.412,4.441 1.513 C 3.872 1.739,3.500 1.981,3.056 2.417 C 2.733 2.733,2.594 2.898,2.440 3.150 C 2.207 3.531,2.006 4.031,1.921 4.439 C 1.862 4.727,1.831 5.151,1.858 5.305 C 1.943 5.790,2.537 5.964,2.892 5.609 C 2.999 5.502,3.030 5.405,3.080 5.020 C 3.139 4.567,3.198 4.355,3.350 4.050 C 3.505 3.737,3.673 3.509,3.927 3.266 C 4.337 2.874,4.869 2.602,5.451 2.488 C 5.589 2.460,5.729 2.452,6.060 2.452 C 6.454 2.452,6.510 2.457,6.726 2.506 C 7.450 2.671,8.107 3.098,8.518 3.672 C 8.686 3.907,8.868 4.283,8.928 4.521 C 8.954 4.625,8.991 4.843,9.009 5.006 C 9.028 5.169,9.056 5.347,9.072 5.400 C 9.141 5.632,9.367 5.800,9.611 5.800 C 9.781 5.800,9.929 5.743,10.045 5.631 C 10.182 5.501,10.206 5.441,10.216 5.217 C 10.261 4.184,9.774 3.092,8.923 2.314 C 8.335 1.776,7.603 1.421,6.770 1.269 C 6.509 1.222,5.657 1.211,5.402 1.252 M5.400 6.301 C 4.973 6.330,4.271 6.473,3.770 6.634 C 3.457 6.734,3.037 6.902,2.702 7.062 L 2.414 7.200 2.182 7.200 C 1.877 7.200,1.614 7.232,1.523 7.279 C 1.483 7.300,1.417 7.351,1.376 7.393 C 1.129 7.649,1.160 8.058,1.444 8.283 C 1.558 8.373,1.676 8.402,1.992 8.414 L 2.274 8.426 2.347 8.573 C 2.837 9.563,3.745 10.303,4.870 10.629 C 6.774 11.181,8.751 10.344,9.632 8.613 L 9.730 8.420 9.920 8.420 C 10.164 8.419,10.362 8.390,10.458 8.341 C 10.568 8.285,10.734 8.095,10.762 7.994 C 10.795 7.874,10.791 7.663,10.754 7.576 C 10.710 7.472,10.557 7.326,10.434 7.270 C 10.343 7.228,10.287 7.221,9.980 7.208 L 9.630 7.194 9.331 7.055 C 8.273 6.563,7.459 6.348,6.477 6.301 C 6.005 6.278,5.745 6.278,5.400 6.301 M6.845 7.557 C 7.388 7.654,7.919 7.817,8.356 8.020 C 8.566 8.118,8.563 8.085,8.389 8.350 C 8.119 8.760,7.666 9.160,7.266 9.341 C 7.080 9.426,6.725 9.535,6.526 9.570 C 6.296 9.610,5.787 9.611,5.560 9.571 C 5.080 9.487,4.589 9.283,4.260 9.029 C 4.013 8.839,3.665 8.443,3.512 8.177 L 3.459 8.085 3.784 7.964 C 4.434 7.724,4.908 7.596,5.450 7.513 C 5.483 7.508,5.758 7.506,6.060 7.509 C 6.513 7.514,6.651 7.523,6.845 7.557 " fill="#1A1C1F" stroke="none" fill-rule="evenodd"></path></svg>