<svg width="16" height="16" viewBox="0 0 16 16" fill="none" xmlns="http://www.w3.org/2000/svg"><path d="M7.200 1.668 C 5.402 1.948,3.818 3.056,3.039 4.578 C 2.596 5.444,2.348 6.662,2.507 7.191 C 2.561 7.370,2.714 7.548,2.892 7.639 C 3.031 7.710,3.076 7.720,3.278 7.720 C 3.479 7.720,3.522 7.711,3.630 7.647 C 3.791 7.553,3.991 7.329,4.026 7.205 C 4.042 7.151,4.078 6.915,4.108 6.680 C 4.190 6.029,4.265 5.776,4.512 5.303 C 4.959 4.446,5.805 3.752,6.781 3.442 C 7.224 3.302,7.469 3.270,8.093 3.269 C 8.614 3.269,8.676 3.274,8.973 3.343 C 10.298 3.652,11.350 4.539,11.809 5.733 C 11.912 6.000,11.962 6.232,12.013 6.680 C 12.036 6.885,12.073 7.116,12.094 7.192 C 12.185 7.509,12.497 7.737,12.840 7.737 C 13.178 7.737,13.503 7.506,13.590 7.205 C 13.647 7.008,13.625 6.346,13.549 5.970 C 13.365 5.059,12.916 4.161,12.315 3.505 C 11.428 2.536,10.368 1.945,9.084 1.704 C 8.686 1.629,7.586 1.608,7.200 1.668 M6.880 8.428 C 6.319 8.518,6.151 8.550,5.760 8.645 C 5.003 8.827,4.342 9.064,3.612 9.412 L 3.237 9.591 2.762 9.610 C 2.097 9.636,2.050 9.648,1.853 9.849 C 1.666 10.040,1.626 10.141,1.627 10.430 C 1.628 10.680,1.690 10.823,1.871 10.993 C 2.050 11.161,2.185 11.200,2.655 11.219 L 3.030 11.234 3.157 11.483 C 4.060 13.253,5.990 14.398,8.074 14.400 C 10.085 14.401,11.933 13.271,12.843 11.483 L 12.973 11.227 13.227 11.227 C 13.858 11.226,14.167 11.084,14.327 10.723 C 14.404 10.551,14.400 10.272,14.319 10.084 C 14.243 9.906,14.037 9.720,13.857 9.666 C 13.781 9.644,13.540 9.620,13.283 9.609 L 12.840 9.591 12.440 9.406 C 11.359 8.905,10.652 8.677,9.600 8.490 C 9.200 8.419,9.152 8.417,8.107 8.411 C 7.513 8.407,6.961 8.415,6.880 8.428 M8.720 10.028 C 9.443 10.092,10.476 10.377,11.156 10.701 L 11.392 10.813 11.226 11.067 C 10.549 12.099,9.638 12.655,8.387 12.801 C 7.787 12.871,6.967 12.721,6.321 12.422 C 5.914 12.234,5.651 12.045,5.302 11.689 C 5.025 11.407,4.896 11.248,4.733 10.984 L 4.612 10.787 4.726 10.738 C 4.952 10.642,5.669 10.395,6.022 10.292 C 6.984 10.010,7.707 9.940,8.720 10.028 " fill="#1A1C1F" stroke="none" fill-rule="evenodd"></path></svg>