<svg width="32" height="32" viewBox="0 0 32 32" fill="none" xmlns="http://www.w3.org/2000/svg"><path d="M14.693 3.092 C 12.613 3.315,10.622 4.107,8.800 5.435 C 8.340 5.771,7.058 7.009,6.642 7.520 C 5.229 9.256,4.267 11.675,4.049 14.039 C 3.970 14.896,3.997 15.244,4.159 15.481 C 4.419 15.861,4.880 16.057,5.250 15.946 C 5.815 15.777,5.936 15.541,6.052 14.382 C 6.211 12.786,6.475 11.782,7.036 10.640 C 8.002 8.675,9.569 7.075,11.440 6.141 C 12.160 5.782,12.683 5.580,13.538 5.330 L 14.256 5.120 16.000 5.120 L 17.744 5.120 18.462 5.330 C 19.717 5.697,20.647 6.122,21.605 6.766 C 23.034 7.726,24.126 8.983,24.942 10.604 C 25.506 11.726,25.790 12.790,25.946 14.373 C 26.008 14.997,26.061 15.289,26.142 15.457 C 26.537 16.276,27.785 16.069,27.955 15.156 C 28.017 14.826,27.922 13.487,27.788 12.791 C 27.404 10.804,26.462 8.841,25.128 7.247 C 24.107 6.028,22.752 4.989,21.200 4.236 C 19.982 3.645,19.046 3.352,17.803 3.172 C 17.142 3.076,15.287 3.029,14.693 3.092 M14.160 15.151 C 13.232 15.224,11.359 15.634,10.107 16.037 C 8.223 16.644,6.229 17.635,4.938 18.607 L 4.386 19.023 3.527 19.057 C 2.914 19.081,2.621 19.114,2.509 19.172 C 2.314 19.273,2.080 19.661,2.041 19.945 C 2.005 20.219,2.221 20.679,2.478 20.875 C 2.655 21.010,2.679 21.013,3.477 21.013 L 4.294 21.013 4.664 21.762 C 6.215 24.899,8.563 27.037,11.760 28.224 C 13.950 29.037,16.399 29.192,18.740 28.667 C 19.917 28.403,21.317 27.850,22.353 27.240 C 23.954 26.298,25.554 24.744,26.631 23.089 C 26.904 22.669,27.462 21.600,27.625 21.187 L 27.693 21.013 28.517 21.013 C 29.322 21.013,29.345 21.010,29.522 20.875 C 29.779 20.679,29.995 20.219,29.959 19.945 C 29.920 19.661,29.686 19.273,29.491 19.172 C 29.378 19.114,29.085 19.081,28.469 19.056 L 27.606 19.022 27.176 18.693 C 25.152 17.141,22.521 16.037,19.227 15.356 C 18.510 15.208,18.279 15.186,17.013 15.145 C 15.371 15.092,14.891 15.093,14.160 15.151 M16.643 17.068 C 18.999 17.248,20.914 17.696,22.808 18.508 C 23.965 19.004,25.813 20.039,25.813 20.191 C 25.813 20.436,25.258 21.502,24.663 22.400 C 24.047 23.331,22.826 24.557,21.893 25.181 C 20.867 25.868,19.307 26.526,18.123 26.772 C 16.615 27.086,14.845 27.035,13.333 26.636 C 12.204 26.338,11.085 25.835,10.107 25.185 C 9.543 24.811,8.251 23.598,7.708 22.935 C 7.197 22.310,6.294 20.710,6.207 20.277 C 6.177 20.125,6.196 20.108,6.755 19.772 C 9.408 18.178,12.051 17.325,15.127 17.072 C 15.893 17.009,15.863 17.009,16.643 17.068 M11.484 19.518 C 10.944 19.919,10.887 20.716,11.371 21.085 C 11.822 21.429,13.506 21.806,15.111 21.923 C 16.478 22.022,18.366 21.833,19.732 21.461 C 20.463 21.262,20.717 21.113,20.890 20.781 C 21.069 20.435,20.918 19.833,20.578 19.548 C 20.358 19.362,19.938 19.369,19.029 19.572 C 16.803 20.068,15.170 20.062,12.866 19.549 C 12.551 19.479,12.161 19.406,12.000 19.387 C 11.729 19.356,11.690 19.366,11.484 19.518 M13.424 23.480 C 13.003 23.877,12.919 24.382,13.202 24.812 C 13.468 25.215,13.924 25.326,15.493 25.370 C 16.542 25.399,17.575 25.342,18.130 25.222 C 18.847 25.069,19.185 24.411,18.867 23.788 C 18.644 23.353,18.575 23.330,17.555 23.357 C 16.153 23.394,15.344 23.390,14.450 23.341 L 13.620 23.295 13.424 23.480 " fill="#1A1C1F" stroke="none" fill-rule="evenodd"></path></svg>