<svg width="24" height="24" viewBox="0 0 24 24" fill="none" xmlns="http://www.w3.org/2000/svg"><path d="M11.050 2.039 C 8.599 2.260,6.147 3.780,4.743 5.951 C 4.445 6.412,4.020 7.324,3.823 7.925 C 3.419 9.155,3.261 10.590,3.482 11.005 C 3.565 11.158,3.814 11.405,3.964 11.482 C 4.292 11.650,4.603 11.620,4.944 11.389 C 5.254 11.179,5.318 10.979,5.458 9.796 C 5.568 8.864,5.807 8.126,6.246 7.354 C 7.059 5.927,8.313 4.885,9.866 4.346 C 10.676 4.065,10.940 4.031,12.148 4.050 C 13.192 4.067,13.231 4.070,13.641 4.186 C 15.542 4.726,17.000 5.893,17.856 7.560 C 18.293 8.412,18.454 8.981,18.579 10.120 C 18.661 10.864,18.731 11.093,18.938 11.300 C 19.294 11.655,19.909 11.652,20.268 11.294 C 20.590 10.973,20.654 10.605,20.542 9.720 C 20.223 7.179,19.049 5.112,17.107 3.673 C 16.300 3.075,15.163 2.520,14.247 2.279 C 13.418 2.060,11.997 1.953,11.050 2.039 M11.060 12.947 C 8.657 13.155,6.306 13.850,4.832 14.791 L 4.524 14.987 3.652 15.013 C 3.172 15.028,2.715 15.058,2.635 15.080 C 2.470 15.127,2.184 15.413,2.101 15.612 C 1.940 16.004,2.010 16.404,2.291 16.697 C 2.403 16.813,2.518 16.888,2.631 16.918 C 2.773 16.956,3.767 17.034,4.167 17.039 C 4.261 17.040,4.299 17.089,4.500 17.470 C 5.663 19.677,7.406 21.091,9.784 21.759 C 10.442 21.944,11.044 22.011,12.040 22.009 C 13.246 22.007,13.961 21.889,14.915 21.535 C 16.145 21.077,17.077 20.488,17.942 19.622 C 18.578 18.985,19.137 18.202,19.575 17.330 C 19.710 17.061,19.730 17.040,19.851 17.038 C 20.475 17.028,21.281 16.962,21.401 16.911 C 21.580 16.836,21.778 16.639,21.890 16.425 C 22.010 16.198,22.010 15.803,21.891 15.577 C 21.779 15.364,21.524 15.137,21.333 15.079 C 21.249 15.054,20.794 15.023,20.323 15.011 L 19.466 14.989 19.132 14.772 C 17.942 13.996,15.839 13.308,13.900 13.061 C 13.161 12.967,11.569 12.903,11.060 12.947 M14.000 15.098 C 15.332 15.331,16.781 15.782,17.692 16.246 L 17.845 16.324 17.678 16.632 C 17.325 17.282,16.994 17.731,16.502 18.224 C 15.706 19.024,14.930 19.469,13.660 19.853 C 13.264 19.974,13.250 19.975,12.148 19.991 C 11.227 20.004,10.981 19.995,10.711 19.941 C 9.895 19.775,8.846 19.322,8.260 18.882 C 7.849 18.573,7.220 17.951,6.931 17.566 C 6.646 17.188,6.240 16.488,6.240 16.376 C 6.240 16.162,8.124 15.477,9.474 15.202 C 10.541 14.983,10.787 14.963,12.140 14.977 C 13.277 14.988,13.432 14.998,14.000 15.098 M10.100 16.336 C 9.726 16.508,9.480 16.875,9.481 17.260 C 9.483 17.840,9.982 18.252,10.841 18.383 C 11.460 18.477,12.934 18.444,13.372 18.326 C 14.159 18.114,14.497 17.788,14.497 17.240 C 14.497 16.858,14.323 16.571,13.980 16.387 C 13.846 16.315,13.755 16.302,13.420 16.303 C 13.200 16.304,12.831 16.339,12.600 16.381 C 12.036 16.483,11.546 16.473,10.885 16.344 C 10.590 16.287,10.338 16.241,10.325 16.242 C 10.311 16.244,10.210 16.286,10.100 16.336 " fill="#1A1C1F" stroke="none" fill-rule="evenodd"></path></svg>