<svg width="14" height="14" viewBox="0 0 14 14" fill="none" xmlns="http://www.w3.org/2000/svg"><path d="M6.720 1.417 C 6.009 1.471,5.399 1.639,4.772 1.954 C 3.414 2.636,2.532 3.782,2.226 5.262 C 2.153 5.614,2.136 6.094,2.190 6.279 C 2.238 6.445,2.371 6.603,2.531 6.685 C 2.650 6.746,2.693 6.755,2.857 6.755 C 3.082 6.755,3.211 6.702,3.370 6.543 C 3.502 6.411,3.536 6.307,3.594 5.847 C 3.656 5.355,3.729 5.094,3.910 4.725 C 4.364 3.796,5.219 3.151,6.312 2.913 C 6.511 2.870,6.620 2.862,7.058 2.862 C 7.533 2.861,7.592 2.866,7.847 2.924 C 8.507 3.074,9.116 3.407,9.584 3.872 C 9.850 4.137,10.053 4.424,10.223 4.773 C 10.389 5.113,10.458 5.372,10.511 5.845 C 10.558 6.273,10.573 6.331,10.667 6.474 C 10.803 6.678,11.026 6.780,11.296 6.761 C 11.491 6.747,11.665 6.656,11.784 6.507 C 11.913 6.344,11.932 6.242,11.916 5.815 C 11.866 4.473,11.142 3.181,9.971 2.342 C 9.219 1.804,8.289 1.474,7.414 1.435 C 7.257 1.428,7.060 1.419,6.977 1.415 C 6.893 1.412,6.778 1.412,6.720 1.417 M5.845 7.407 C 4.756 7.584,3.953 7.836,3.057 8.283 L 2.835 8.393 2.415 8.410 C 1.831 8.433,1.794 8.442,1.620 8.618 C 1.461 8.781,1.415 8.896,1.415 9.135 C 1.415 9.372,1.582 9.633,1.799 9.736 C 1.911 9.789,2.153 9.822,2.427 9.823 L 2.650 9.823 2.736 9.998 C 3.310 11.158,4.367 12.020,5.681 12.401 C 7.901 13.044,10.207 12.069,11.236 10.051 L 11.349 9.829 11.677 9.818 C 12.176 9.799,12.364 9.708,12.509 9.414 C 12.691 9.044,12.548 8.652,12.169 8.480 C 12.067 8.433,11.998 8.424,11.643 8.410 L 11.235 8.394 10.885 8.231 C 10.033 7.834,9.476 7.644,8.715 7.492 C 8.086 7.366,7.891 7.350,6.993 7.352 C 6.256 7.354,6.138 7.360,5.845 7.407 M7.986 8.817 C 8.619 8.930,9.239 9.120,9.750 9.357 L 9.964 9.457 9.902 9.564 C 9.588 10.109,9.067 10.602,8.519 10.874 C 8.295 10.985,7.881 11.119,7.617 11.165 C 7.353 11.211,6.745 11.211,6.484 11.166 C 5.927 11.069,5.354 10.830,4.970 10.534 C 4.820 10.419,4.476 10.074,4.342 9.903 C 4.290 9.837,4.200 9.706,4.142 9.611 L 4.035 9.438 4.112 9.406 C 4.728 9.148,5.640 8.881,6.230 8.784 C 6.545 8.733,7.629 8.753,7.986 8.817 " fill="#1A1C1F" stroke="none" fill-rule="evenodd"></path></svg>