<svg width="28" height="28" viewBox="0 0 28 28" fill="none" xmlns="http://www.w3.org/2000/svg"><path d="M11.620 3.598 C 11.096 3.700,10.379 4.231,10.024 4.779 C 9.657 5.348,9.647 5.420,9.624 7.634 L 9.604 9.599 7.870 9.628 C 6.917 9.645,5.949 9.680,5.719 9.707 C 5.173 9.772,4.815 9.947,4.357 10.375 C 3.968 10.738,3.830 10.947,3.635 11.470 L 3.500 11.830 3.500 14.004 C 3.500 16.041,3.506 16.196,3.591 16.444 C 3.895 17.326,4.437 17.887,5.331 18.245 L 5.686 18.387 7.645 18.387 L 9.605 18.387 9.625 20.335 C 9.647 22.455,9.660 22.569,9.930 23.073 C 10.092 23.376,10.741 24.037,11.011 24.173 C 11.600 24.471,11.538 24.464,13.937 24.489 C 16.384 24.513,16.305 24.521,16.940 24.191 C 17.536 23.881,17.955 23.392,18.245 22.669 L 18.387 22.314 18.387 20.351 L 18.387 18.387 20.351 18.387 L 22.314 18.387 22.669 18.245 C 23.563 17.887,24.105 17.326,24.409 16.444 C 24.494 16.196,24.500 16.040,24.500 14.008 L 24.500 11.837 24.353 11.437 C 24.273 11.217,24.148 10.950,24.075 10.845 C 23.867 10.540,23.319 10.062,22.995 9.903 C 22.584 9.700,22.199 9.664,20.125 9.628 L 18.387 9.599 18.387 7.647 L 18.387 5.695 18.270 5.386 C 18.077 4.873,17.920 4.633,17.546 4.275 C 17.138 3.885,16.734 3.662,16.310 3.593 C 15.965 3.537,11.912 3.541,11.620 3.598 M16.220 5.399 C 16.273 5.429,16.376 5.540,16.448 5.644 L 16.580 5.835 16.603 8.604 L 16.627 11.373 19.396 11.397 L 22.165 11.420 22.351 11.548 C 22.698 11.789,22.680 11.658,22.680 14.003 L 22.680 16.110 22.537 16.290 C 22.452 16.397,22.324 16.493,22.222 16.526 C 22.101 16.565,21.245 16.587,19.332 16.601 L 16.613 16.622 16.613 18.472 C 16.613 19.490,16.599 20.752,16.582 21.277 L 16.551 22.230 16.387 22.411 C 16.097 22.733,16.073 22.738,14.747 22.760 C 14.093 22.771,13.187 22.763,12.735 22.741 C 11.930 22.701,11.909 22.698,11.738 22.567 C 11.418 22.324,11.427 22.402,11.398 19.357 L 11.372 16.613 8.596 16.613 L 5.820 16.613 5.620 16.450 C 5.295 16.184,5.296 16.187,5.305 13.971 C 5.314 11.768,5.312 11.782,5.640 11.554 L 5.835 11.420 8.604 11.397 L 11.374 11.373 11.396 8.605 L 11.419 5.837 11.546 5.645 C 11.764 5.314,11.720 5.320,14.047 5.332 C 15.549 5.340,16.150 5.359,16.220 5.399 " fill="#1A1C1F" stroke="none" fill-rule="evenodd"></path></svg>