<svg width="16" height="16" viewBox="0 0 16 16" fill="none" xmlns="http://www.w3.org/2000/svg"><path d="M6.089 2.482 C 5.917 2.549,5.764 2.694,5.671 2.881 L 5.600 3.024 5.600 4.312 L 5.600 5.600 4.820 5.603 C 4.391 5.604,3.794 5.613,3.493 5.624 C 2.869 5.645,2.819 5.660,2.617 5.879 C 2.404 6.110,2.417 5.986,2.405 7.977 C 2.395 9.715,2.396 9.757,2.449 9.876 C 2.520 10.038,2.722 10.250,2.876 10.326 C 2.999 10.386,3.007 10.387,4.298 10.396 L 5.596 10.404 5.604 11.702 C 5.613 12.993,5.614 13.001,5.674 13.124 C 5.748 13.274,5.959 13.478,6.114 13.548 C 6.221 13.596,6.308 13.599,8.000 13.599 C 9.692 13.599,9.779 13.596,9.886 13.548 C 10.041 13.478,10.252 13.274,10.326 13.124 C 10.386 13.001,10.387 12.992,10.396 11.702 L 10.405 10.404 11.702 10.396 C 12.993 10.387,13.001 10.386,13.124 10.326 C 13.278 10.250,13.480 10.038,13.551 9.876 C 13.604 9.756,13.605 9.716,13.595 7.977 C 13.583 5.986,13.595 6.110,13.383 5.879 C 13.181 5.660,13.131 5.645,12.507 5.624 C 12.206 5.613,11.610 5.604,11.182 5.603 L 10.405 5.600 10.395 4.300 C 10.384 2.842,10.392 2.906,10.183 2.679 C 10.120 2.611,10.012 2.526,9.942 2.491 L 9.815 2.427 8.021 2.428 C 6.296 2.429,6.221 2.431,6.089 2.482 M8.800 5.600 L 8.800 7.200 10.400 7.200 L 12.000 7.200 12.000 8.000 L 12.000 8.800 10.400 8.800 L 8.800 8.800 8.800 10.400 L 8.800 12.000 8.000 12.000 L 7.200 12.000 7.200 10.400 L 7.200 8.800 5.600 8.800 L 4.000 8.800 4.000 8.000 L 4.000 7.200 5.600 7.200 L 7.200 7.200 7.200 5.600 L 7.200 4.000 8.000 4.000 L 8.800 4.000 8.800 5.600 " fill="#1A1C1F" stroke="none" fill-rule="evenodd"></path></svg>