<svg width="24" height="24" viewBox="0 0 24 24" fill="none" xmlns="http://www.w3.org/2000/svg"><path d="M10.260 3.038 L 9.460 3.062 9.180 3.201 C 8.586 3.495,8.129 4.099,8.041 4.704 C 8.020 4.856,8.001 5.657,8.001 6.485 L 8.000 7.990 6.370 8.012 C 5.474 8.025,4.654 8.054,4.550 8.076 C 3.931 8.211,3.353 8.736,3.112 9.383 C 3.026 9.614,3.024 9.671,3.009 11.752 C 3.000 13.078,3.010 14.012,3.036 14.224 C 3.094 14.702,3.255 15.022,3.616 15.384 C 3.951 15.719,4.293 15.899,4.704 15.959 C 4.856 15.980,5.660 15.999,6.490 15.999 L 8.000 16.000 8.001 17.510 C 8.001 18.340,8.020 19.144,8.041 19.296 C 8.142 19.988,8.674 20.621,9.383 20.889 C 9.619 20.978,9.632 20.979,12.000 20.979 C 14.368 20.979,14.381 20.978,14.617 20.889 C 15.326 20.621,15.858 19.988,15.959 19.296 C 15.980 19.144,15.999 18.340,15.999 17.510 L 16.000 16.000 17.510 15.999 C 18.340 15.999,19.144 15.980,19.296 15.959 C 19.988 15.858,20.622 15.325,20.889 14.617 C 20.978 14.382,20.978 14.362,20.979 12.060 C 20.980 9.916,20.974 9.719,20.905 9.469 C 20.724 8.813,20.103 8.218,19.450 8.076 C 19.346 8.054,18.527 8.025,17.630 8.012 L 16.000 7.990 15.999 6.485 C 15.999 5.657,15.980 4.856,15.959 4.704 C 15.871 4.100,15.412 3.493,14.825 3.205 L 14.550 3.070 13.685 3.037 C 12.738 3.000,11.501 3.001,10.260 3.038 M14.000 7.500 L 14.000 10.000 16.500 10.000 L 19.000 10.000 19.000 12.000 L 19.000 14.000 16.500 14.000 L 14.000 14.000 14.000 16.500 L 14.000 19.000 12.000 19.000 L 10.000 19.000 10.000 16.500 L 10.000 14.000 7.500 14.000 L 5.000 14.000 5.000 12.000 L 5.000 10.000 7.500 10.000 L 10.000 10.000 10.000 7.500 L 10.000 5.000 12.000 5.000 L 14.000 5.000 14.000 7.500 " fill="#1A1C1F" stroke="none" fill-rule="evenodd"></path></svg>