<svg width="12" height="12" viewBox="0 0 12 12" fill="none" xmlns="http://www.w3.org/2000/svg"><path d="M4.590 1.856 C 4.451 1.904,4.362 1.978,4.280 2.113 L 4.210 2.228 4.204 3.211 L 4.199 4.193 3.219 4.207 C 2.280 4.219,2.236 4.221,2.158 4.261 C 2.037 4.323,1.899 4.458,1.853 4.560 C 1.812 4.647,1.811 4.688,1.804 5.982 C 1.796 7.287,1.797 7.317,1.837 7.407 C 1.890 7.528,2.041 7.687,2.157 7.744 C 2.249 7.790,2.256 7.790,3.223 7.797 L 4.196 7.804 4.203 8.777 C 4.210 9.744,4.210 9.751,4.256 9.843 C 4.311 9.955,4.470 10.108,4.585 10.161 C 4.666 10.197,4.731 10.199,6.000 10.199 C 7.269 10.199,7.334 10.197,7.415 10.161 C 7.530 10.108,7.689 9.955,7.744 9.843 C 7.790 9.751,7.790 9.744,7.797 8.777 L 7.804 7.804 8.777 7.797 C 9.744 7.790,9.751 7.790,9.843 7.744 C 9.955 7.689,10.108 7.530,10.161 7.415 C 10.197 7.334,10.199 7.269,10.200 5.998 L 10.200 4.666 10.148 4.568 C 10.082 4.442,9.980 4.337,9.860 4.272 L 9.764 4.220 8.782 4.207 L 7.800 4.193 7.800 3.230 L 7.800 2.266 7.748 2.168 C 7.681 2.041,7.594 1.950,7.470 1.878 L 7.370 1.820 6.030 1.821 C 4.812 1.821,4.681 1.824,4.590 1.856 " fill="#1A1C1F" stroke="none" fill-rule="evenodd"></path></svg>