<svg width="32" height="32" viewBox="0 0 32 32" fill="none" xmlns="http://www.w3.org/2000/svg"><path d="M13.280 4.112 C 12.883 4.189,12.386 4.470,11.998 4.836 C 11.562 5.247,11.344 5.573,11.157 6.093 L 11.018 6.480 10.997 8.725 L 10.976 10.970 8.995 11.003 C 6.668 11.043,6.190 11.089,5.717 11.320 C 5.351 11.499,4.725 12.045,4.483 12.395 C 4.400 12.516,4.257 12.827,4.166 13.085 L 4.000 13.555 4.000 16.023 C 4.000 18.761,3.992 18.690,4.377 19.412 C 4.716 20.048,5.253 20.506,6.039 20.830 L 6.480 21.011 8.728 21.012 L 10.977 21.013 11.000 23.240 C 11.025 25.662,11.040 25.793,11.348 26.369 C 11.534 26.716,12.276 27.471,12.584 27.626 C 13.258 27.967,13.184 27.959,15.947 27.987 L 18.480 28.012 18.909 27.846 C 19.892 27.467,20.449 26.911,20.851 25.907 L 21.013 25.502 21.013 23.258 L 21.013 21.013 23.258 21.013 L 25.502 21.013 25.907 20.851 C 26.905 20.452,27.467 19.891,27.840 18.924 L 28.000 18.510 28.000 16.038 L 28.000 13.565 27.870 13.182 C 27.666 12.585,27.477 12.288,27.036 11.872 C 26.505 11.373,26.105 11.175,25.467 11.096 C 25.203 11.064,24.093 11.022,23.000 11.003 L 21.013 10.970 21.013 8.739 L 21.013 6.509 20.880 6.156 C 20.660 5.569,20.481 5.295,20.052 4.885 C 19.586 4.440,19.124 4.186,18.640 4.106 C 18.246 4.042,13.614 4.047,13.280 4.112 M18.537 6.170 C 18.598 6.205,18.715 6.331,18.798 6.450 L 18.948 6.666 18.975 9.832 L 19.002 12.998 22.167 13.025 L 25.332 13.051 25.543 13.198 C 25.940 13.473,25.920 13.322,25.920 16.013 L 25.920 18.429 25.758 18.626 C 25.666 18.737,25.509 18.851,25.398 18.886 C 25.258 18.931,24.286 18.956,22.093 18.973 L 18.987 18.996 18.987 21.111 C 18.986 22.275,18.971 23.717,18.951 24.316 L 18.916 25.406 18.729 25.613 C 18.397 25.980,18.369 25.986,16.854 26.012 C 16.106 26.025,15.071 26.014,14.554 25.989 C 13.635 25.945,13.610 25.940,13.415 25.791 C 13.050 25.513,13.059 25.602,13.026 22.122 L 12.997 18.987 9.824 18.987 L 6.651 18.987 6.421 18.798 C 6.270 18.675,6.172 18.541,6.136 18.411 C 6.102 18.290,6.080 17.334,6.080 15.931 C 6.080 13.385,6.069 13.466,6.450 13.202 L 6.668 13.051 9.833 13.025 L 12.999 12.998 13.024 9.834 L 13.050 6.670 13.195 6.451 C 13.445 6.074,13.394 6.080,16.053 6.094 C 17.771 6.103,18.457 6.124,18.537 6.170 " fill="#1A1C1F" stroke="none" fill-rule="evenodd"></path></svg>