<svg width="20" height="20" viewBox="0 0 20 20" fill="none" xmlns="http://www.w3.org/2000/svg"><path d="M7.611 3.103 C 7.396 3.186,7.205 3.368,7.089 3.601 L 7.000 3.780 7.000 5.384 L 7.000 6.989 5.363 7.012 C 3.519 7.038,3.621 7.023,3.308 7.311 C 3.006 7.588,3.022 7.447,3.006 9.970 C 2.993 12.149,2.994 12.193,3.060 12.344 C 3.150 12.547,3.402 12.812,3.595 12.907 C 3.749 12.983,3.760 12.983,5.372 12.995 L 6.994 13.006 7.005 14.628 C 7.017 16.240,7.017 16.251,7.093 16.405 C 7.185 16.592,7.449 16.847,7.642 16.935 C 7.777 16.996,7.885 16.999,10.000 16.999 C 12.115 16.999,12.223 16.996,12.358 16.935 C 12.551 16.847,12.815 16.592,12.907 16.405 C 12.983 16.251,12.983 16.240,12.995 14.628 L 13.006 13.006 14.628 12.995 C 16.240 12.983,16.251 12.983,16.405 12.907 C 16.598 12.812,16.850 12.547,16.940 12.343 C 17.007 12.192,17.008 12.150,16.994 9.970 C 16.978 7.447,16.993 7.587,16.692 7.311 C 16.379 7.023,16.481 7.038,14.640 7.012 L 13.007 6.989 12.994 5.370 C 12.982 3.818,12.978 3.744,12.913 3.600 C 12.834 3.429,12.604 3.204,12.405 3.102 C 12.272 3.035,12.231 3.033,10.026 3.035 C 7.870 3.037,7.777 3.039,7.611 3.103 M11.000 7.000 L 11.000 9.000 13.000 9.000 L 15.000 9.000 15.000 10.000 L 15.000 11.000 13.000 11.000 L 11.000 11.000 11.000 13.000 L 11.000 15.000 10.000 15.000 L 9.000 15.000 9.000 13.000 L 9.000 11.000 7.000 11.000 L 5.000 11.000 5.000 10.000 L 5.000 9.000 7.000 9.000 L 9.000 9.000 9.000 7.000 L 9.000 5.000 10.000 5.000 L 11.000 5.000 11.000 7.000 " fill="#1A1C1F" stroke="none" fill-rule="evenodd"></path></svg>