<svg width="14" height="14" viewBox="0 0 14 14" fill="none" xmlns="http://www.w3.org/2000/svg"><path d="M5.328 2.172 C 5.177 2.230,5.044 2.358,4.962 2.521 L 4.900 2.646 4.900 3.773 L 4.900 4.900 4.218 4.902 C 3.842 4.903,3.320 4.912,3.057 4.921 C 2.510 4.939,2.467 4.952,2.290 5.144 C 2.104 5.345,2.115 5.239,2.105 6.980 C 2.095 8.502,2.096 8.536,2.143 8.641 C 2.205 8.783,2.381 8.968,2.516 9.035 C 2.624 9.088,2.632 9.088,3.760 9.096 L 4.896 9.104 4.904 10.240 C 4.912 11.368,4.912 11.376,4.965 11.484 C 5.030 11.615,5.215 11.793,5.350 11.854 C 5.444 11.897,5.519 11.899,7.000 11.899 C 8.481 11.899,8.556 11.897,8.650 11.854 C 8.785 11.793,8.970 11.615,9.035 11.484 C 9.088 11.376,9.088 11.368,9.096 10.240 L 9.104 9.104 10.240 9.096 C 11.368 9.088,11.376 9.088,11.484 9.035 C 11.619 8.968,11.795 8.783,11.857 8.641 C 11.904 8.536,11.905 8.503,11.895 6.979 C 11.884 5.239,11.895 5.345,11.710 5.144 C 11.533 4.952,11.490 4.939,10.943 4.921 C 10.680 4.912,10.159 4.903,9.785 4.902 L 9.104 4.900 9.096 3.763 C 9.086 2.487,9.093 2.543,8.910 2.344 C 8.855 2.285,8.768 2.213,8.716 2.186 C 8.622 2.135,8.613 2.135,7.035 2.130 C 5.495 2.125,5.445 2.126,5.328 2.172 " fill="#1A1C1F" stroke="none" fill-rule="evenodd"></path></svg>