<svg width="16" height="16" viewBox="0 0 16 16" fill="none" xmlns="http://www.w3.org/2000/svg"><path d="M6.986 4.025 C 6.650 4.071,6.498 4.155,5.354 4.933 C 3.712 6.049,2.645 6.818,2.480 7.007 C 2.076 7.465,2.027 8.313,2.372 8.851 C 2.538 9.110,2.737 9.265,4.267 10.324 C 5.644 11.278,6.371 11.761,6.587 11.864 C 6.777 11.955,6.803 11.960,7.114 11.969 C 7.683 11.986,7.973 11.870,8.343 11.478 C 8.662 11.141,8.767 10.875,8.793 10.339 C 8.801 10.167,8.818 10.019,8.830 10.011 C 8.843 10.003,9.141 10.193,9.493 10.432 C 11.075 11.507,11.582 11.840,11.726 11.896 C 11.961 11.988,12.461 12.000,12.726 11.920 C 13.239 11.766,13.619 11.388,13.811 10.845 L 13.893 10.609 13.893 8.003 L 13.893 5.396 13.828 5.205 C 13.724 4.898,13.602 4.695,13.400 4.493 C 13.082 4.174,12.726 4.026,12.281 4.027 C 11.755 4.029,11.844 3.979,9.483 5.583 C 9.139 5.817,8.846 5.999,8.830 5.989 C 8.812 5.977,8.800 5.882,8.800 5.747 C 8.800 5.147,8.603 4.695,8.205 4.383 C 7.833 4.093,7.407 3.967,6.986 4.025 " fill="#1A1C1F" stroke="none" fill-rule="evenodd"></path></svg>