<svg width="32" height="32" viewBox="0 0 32 32" fill="none" xmlns="http://www.w3.org/2000/svg"><path d="M14.652 8.057 C 14.222 8.127,13.792 8.402,9.760 11.189 C 6.658 13.334,5.093 14.450,4.836 14.701 C 4.168 15.353,4.161 16.633,4.823 17.294 C 5.381 17.853,13.392 23.381,14.300 23.835 C 14.672 24.021,14.951 24.044,15.395 23.925 C 16.014 23.761,16.520 23.380,16.766 22.894 C 16.953 22.525,17.013 21.984,17.019 20.596 C 17.022 19.931,17.040 19.187,17.059 18.944 L 17.093 18.501 19.467 20.138 C 22.795 22.435,24.514 23.584,24.924 23.786 C 25.343 23.992,25.650 24.036,26.035 23.946 C 26.726 23.785,27.242 23.373,27.556 22.733 L 27.707 22.427 27.722 16.107 L 27.737 9.787 27.621 9.467 C 27.403 8.867,27.063 8.470,26.560 8.228 C 26.328 8.116,26.165 8.082,25.778 8.064 C 25.343 8.044,25.258 8.055,25.005 8.172 C 24.658 8.333,23.430 9.146,20.646 11.062 C 17.999 12.883,17.127 13.465,17.092 13.430 C 17.077 13.415,17.042 12.541,17.015 11.488 C 16.977 10.011,16.948 9.521,16.885 9.346 C 16.576 8.479,15.583 7.906,14.652 8.057 M14.957 16.089 C 14.959 19.233,14.942 21.822,14.920 21.844 C 14.898 21.866,14.526 21.648,14.094 21.360 C 12.517 20.311,7.279 16.680,6.626 16.183 L 6.398 16.010 6.599 15.852 C 6.833 15.669,10.840 12.862,12.747 11.547 C 13.465 11.051,14.233 10.520,14.453 10.367 L 14.853 10.088 14.904 10.231 C 14.935 10.318,14.956 12.608,14.957 16.089 M25.681 15.973 C 25.700 18.907,25.695 21.445,25.671 21.614 L 25.627 21.921 25.173 21.619 C 24.409 21.109,20.738 18.592,19.440 17.687 C 17.557 16.375,17.051 15.990,17.126 15.926 C 17.150 15.906,20.498 13.593,23.040 11.840 C 23.993 11.183,24.953 10.520,25.173 10.366 L 25.573 10.088 25.610 10.364 C 25.630 10.516,25.662 13.040,25.681 15.973 " fill="#1A1C1F" stroke="none" fill-rule="evenodd"></path></svg>