<svg width="64" height="64" viewBox="0 0 64 64" fill="none" xmlns="http://www.w3.org/2000/svg"><path d="M29.412 16.305 C 28.675 16.695,22.997 20.504,18.347 23.728 C 9.267 30.024,9.106 30.149,8.809 31.150 C 8.597 31.862,8.597 32.135,8.809 32.861 C 8.943 33.321,9.104 33.561,9.593 34.027 C 10.499 34.890,18.325 40.355,26.127 45.571 L 29.801 48.028 30.582 47.962 C 31.025 47.924,31.536 47.806,31.762 47.690 C 32.263 47.431,33.124 46.552,33.277 46.144 C 33.349 45.954,33.432 43.951,33.494 40.929 C 33.549 38.231,33.618 36.000,33.646 35.971 C 33.734 35.884,35.050 36.750,40.267 40.327 C 47.875 45.544,50.459 47.298,50.996 47.609 C 51.399 47.843,51.617 47.893,52.230 47.893 C 52.640 47.893,53.196 47.818,53.467 47.726 C 54.023 47.536,54.780 46.799,55.137 46.099 C 55.360 45.662,55.360 45.655,55.359 31.978 L 55.358 18.293 55.044 17.746 C 54.706 17.157,54.058 16.542,53.493 16.273 C 52.999 16.039,51.798 16.057,51.253 16.307 C 50.730 16.547,47.484 18.725,40.960 23.215 C 34.893 27.389,33.701 28.190,33.643 28.132 C 33.618 28.107,33.549 25.884,33.490 23.192 C 33.430 20.500,33.336 18.127,33.280 17.920 C 33.065 17.122,31.680 16.171,30.542 16.039 C 30.105 15.989,29.933 16.029,29.412 16.305 " fill="#1A1C1F" stroke="none" fill-rule="evenodd"></path></svg>