<svg width="32" height="32" viewBox="0 0 32 32" fill="none" xmlns="http://www.w3.org/2000/svg"><path d="M14.170 5.035 C 13.906 5.132,13.787 5.243,13.655 5.517 C 13.409 6.024,13.541 6.316,14.428 7.242 L 15.091 7.934 14.626 7.970 C 12.811 8.107,11.605 8.414,10.213 9.092 C 7.519 10.405,5.480 12.725,4.565 15.520 C 4.117 16.891,4.080 17.147,4.080 18.907 C 4.080 20.194,4.096 20.529,4.176 20.907 C 4.592 22.864,5.499 24.769,6.579 25.953 C 7.044 26.463,7.405 26.570,7.880 26.340 C 8.185 26.192,8.372 25.909,8.407 25.539 C 8.440 25.197,8.399 25.112,7.724 24.120 C 6.955 22.991,6.559 22.144,6.259 20.987 C 6.109 20.411,6.107 20.374,6.107 18.933 C 6.107 17.688,6.122 17.402,6.206 17.040 C 7.098 13.226,10.222 10.429,14.040 10.027 C 14.632 9.965,15.253 9.958,15.253 10.014 C 15.253 10.036,14.906 10.426,14.480 10.880 C 14.055 11.335,13.671 11.782,13.627 11.875 C 13.511 12.117,13.528 12.368,13.679 12.670 C 13.903 13.115,14.298 13.299,14.754 13.171 C 14.963 13.113,15.156 12.955,16.000 12.155 C 17.195 11.021,18.508 9.654,18.598 9.452 C 18.684 9.256,18.683 8.940,18.594 8.732 C 18.553 8.637,18.354 8.372,18.151 8.143 C 17.752 7.693,15.128 5.142,14.985 5.066 C 14.814 4.974,14.378 4.958,14.170 5.035 M13.200 16.130 C 12.297 16.366,11.569 16.690,11.345 16.956 C 11.050 17.306,11.019 17.823,11.273 18.156 C 11.350 18.256,11.549 18.405,11.716 18.487 L 12.019 18.635 12.903 18.332 C 13.665 18.070,13.861 18.024,14.327 17.994 C 15.015 17.949,15.210 17.988,15.464 18.218 C 15.707 18.437,15.757 18.594,15.678 18.887 C 15.549 19.366,14.965 19.744,13.708 20.162 C 12.921 20.424,12.688 20.536,12.541 20.722 C 12.242 21.103,12.262 21.588,12.591 21.946 C 12.907 22.288,13.139 22.336,13.916 22.223 C 14.256 22.173,14.776 22.133,15.072 22.133 C 15.656 22.133,15.837 22.202,16.065 22.510 C 16.212 22.709,16.245 23.171,16.138 23.539 C 15.894 24.378,14.994 24.742,12.431 25.040 C 11.511 25.147,11.281 25.207,11.098 25.390 C 10.918 25.570,10.801 25.955,10.845 26.226 C 10.887 26.485,11.125 26.817,11.359 26.941 C 11.826 27.190,14.100 26.944,15.421 26.501 C 16.807 26.038,17.644 25.311,18.056 24.213 C 18.190 23.856,18.206 23.742,18.210 23.147 C 18.215 22.192,18.049 21.751,17.385 20.953 C 17.239 20.778,17.120 20.601,17.120 20.561 C 17.120 20.520,17.192 20.371,17.279 20.230 C 17.643 19.644,17.795 18.791,17.656 18.119 C 17.497 17.352,16.955 16.686,16.194 16.323 C 15.622 16.050,15.343 15.999,14.437 16.003 C 13.821 16.005,13.591 16.028,13.200 16.130 M22.835 16.105 C 22.124 16.297,21.420 16.760,20.886 17.385 C 20.594 17.728,20.419 18.050,20.235 18.587 L 20.089 19.013 20.066 21.387 L 20.044 23.760 20.213 24.240 C 20.621 25.400,21.374 26.221,22.406 26.631 C 23.211 26.951,24.204 27.004,25.080 26.774 C 25.873 26.565,26.293 26.320,26.912 25.705 C 27.357 25.262,27.598 24.848,27.839 24.109 L 28.000 23.617 27.999 22.009 C 27.997 20.002,27.936 18.956,27.797 18.559 C 27.455 17.578,26.801 16.816,25.925 16.375 C 25.335 16.078,25.167 16.045,24.160 16.021 C 23.351 16.002,23.174 16.014,22.835 16.105 M24.732 18.033 C 25.350 18.140,25.813 18.572,25.920 19.141 C 25.950 19.303,25.973 20.345,25.973 21.531 L 25.973 23.633 25.830 23.935 C 25.632 24.355,25.266 24.707,24.904 24.828 C 24.521 24.955,23.513 24.959,23.086 24.835 C 22.733 24.732,22.290 24.332,22.178 24.015 C 22.122 23.858,22.107 23.281,22.107 21.413 C 22.107 19.056,22.109 19.010,22.222 18.800 C 22.326 18.606,22.492 18.426,22.728 18.249 C 22.776 18.212,22.944 18.136,23.101 18.080 C 23.434 17.960,24.190 17.938,24.732 18.033 " fill="#1A1C1F" stroke="none" fill-rule="evenodd"></path></svg>