<svg width="64" height="64" viewBox="0 0 64 64" fill="none" xmlns="http://www.w3.org/2000/svg"><path d="M10.491 16.261 C 10.025 16.464,9.302 17.136,8.942 17.701 L 8.640 18.175 8.640 32.000 L 8.640 45.825 8.946 46.299 C 9.636 47.368,10.578 47.930,11.680 47.931 C 12.088 47.931,12.475 47.858,12.747 47.729 C 13.293 47.471,15.607 45.913,22.827 40.946 C 30.204 35.870,30.297 35.808,30.382 35.893 C 30.421 35.932,30.480 38.180,30.512 40.889 C 30.577 46.414,30.553 46.245,31.373 47.041 C 32.004 47.652,32.497 47.879,33.379 47.961 C 34.117 48.029,34.147 48.022,34.800 47.625 C 38.000 45.677,53.722 34.737,54.566 33.870 C 55.730 32.676,55.548 30.861,54.153 29.746 C 53.021 28.841,40.539 20.164,36.444 17.435 L 34.558 16.178 33.704 16.128 C 32.910 16.083,32.802 16.103,32.164 16.417 C 31.428 16.779,30.883 17.351,30.715 17.937 C 30.661 18.126,30.568 20.488,30.508 23.185 C 30.448 25.882,30.380 28.109,30.356 28.133 C 30.299 28.190,29.071 27.365,22.933 23.145 C 16.651 18.826,13.105 16.454,12.634 16.257 C 12.179 16.067,10.932 16.069,10.491 16.261 M40.145 23.592 C 46.083 27.688,51.468 31.437,51.994 31.841 C 52.199 31.998,52.199 32.002,51.994 32.159 C 51.451 32.577,43.968 37.794,39.147 41.117 C 36.184 43.159,33.700 44.877,33.627 44.934 C 33.520 45.018,33.493 42.430,33.493 32.066 C 33.493 24.931,33.523 19.093,33.559 19.093 C 33.594 19.093,36.558 21.118,40.145 23.592 M18.411 23.688 C 28.855 30.880,30.187 31.820,30.187 31.996 C 30.187 32.136,28.887 33.073,23.573 36.764 C 13.375 43.847,11.869 44.865,11.758 44.754 C 11.652 44.648,11.585 24.552,11.681 21.567 C 11.740 19.743,11.788 19.198,11.890 19.237 C 11.962 19.265,14.897 21.268,18.411 23.688 " fill="#1A1C1F" stroke="none" fill-rule="evenodd"></path></svg>