<svg width="24" height="24" viewBox="0 0 24 24" fill="none" xmlns="http://www.w3.org/2000/svg"><path d="M18.385 6.060 C 18.016 6.136,17.859 6.233,15.720 7.700 C 13.494 9.227,13.085 9.499,13.058 9.471 C 13.046 9.459,13.020 9.047,13.000 8.554 C 12.980 8.062,12.943 7.565,12.918 7.449 C 12.862 7.187,12.552 6.705,12.315 6.511 C 11.920 6.186,11.393 6.023,10.815 6.047 C 10.530 6.058,10.454 6.079,10.195 6.214 C 9.445 6.606,4.277 10.177,3.769 10.655 C 3.173 11.215,3.046 12.192,3.467 12.966 C 3.676 13.350,4.106 13.681,6.860 15.581 C 8.600 16.782,10.008 17.718,10.247 17.834 C 10.738 18.071,11.317 18.045,11.908 17.758 C 12.358 17.539,12.789 17.015,12.917 16.531 C 12.942 16.439,12.979 15.955,12.999 15.457 C 13.020 14.958,13.045 14.542,13.055 14.531 C 13.079 14.508,13.654 14.887,15.040 15.842 C 16.504 16.851,17.835 17.731,18.059 17.839 C 18.365 17.988,18.775 18.028,19.147 17.947 C 19.576 17.854,19.842 17.714,20.160 17.414 C 20.358 17.228,20.471 17.079,20.578 16.862 C 20.710 16.594,20.728 16.519,20.763 16.073 C 20.786 15.784,20.797 13.913,20.791 11.560 L 20.780 7.540 20.630 7.233 C 20.195 6.344,19.293 5.872,18.385 6.060 M10.971 9.463 C 11.008 11.060,10.970 15.844,10.921 15.895 C 10.901 15.914,9.890 15.240,8.613 14.357 C 5.760 12.383,5.247 12.017,5.284 11.984 C 5.350 11.924,6.989 10.774,8.400 9.799 C 9.335 9.153,10.271 8.503,10.480 8.356 C 10.689 8.208,10.878 8.091,10.900 8.097 C 10.925 8.103,10.952 8.618,10.971 9.463 M18.780 10.047 C 18.810 12.003,18.771 15.798,18.719 15.881 C 18.699 15.914,18.216 15.603,17.195 14.897 C 15.226 13.539,13.640 12.430,13.331 12.198 L 13.083 12.011 13.171 11.931 C 13.323 11.795,14.916 10.682,18.278 8.366 C 18.575 8.162,18.704 8.093,18.723 8.129 C 18.738 8.157,18.764 9.020,18.780 10.047 " fill="#1A1C1F" stroke="none" fill-rule="evenodd"></path></svg>