<svg width="32" height="32" viewBox="0 0 32 32" fill="none" xmlns="http://www.w3.org/2000/svg"><path d="M17.031 5.072 C 16.666 5.177,13.380 8.438,13.232 8.841 C 13.182 8.978,13.170 9.126,13.196 9.297 C 13.231 9.534,13.291 9.611,14.184 10.551 C 15.293 11.720,16.677 13.053,16.921 13.187 C 17.203 13.341,17.721 13.269,17.973 13.040 C 18.123 12.905,18.293 12.506,18.293 12.292 C 18.293 11.957,18.164 11.773,17.301 10.884 L 16.453 10.010 17.147 10.048 C 18.989 10.150,20.449 10.631,21.951 11.634 C 22.668 12.112,23.659 13.084,24.174 13.813 C 24.852 14.775,25.417 16.061,25.654 17.186 C 25.806 17.904,25.806 20.075,25.655 20.759 C 25.382 21.990,24.907 23.041,24.031 24.344 C 23.603 24.982,23.465 25.230,23.437 25.416 C 23.364 25.903,23.685 26.366,24.193 26.508 C 24.393 26.564,24.462 26.561,24.664 26.484 C 25.170 26.290,26.068 25.112,26.698 23.813 C 27.264 22.646,27.638 21.389,27.791 20.139 C 27.870 19.487,27.827 17.990,27.708 17.280 C 27.113 13.718,24.910 10.777,21.635 9.170 C 20.365 8.546,19.158 8.216,17.736 8.101 C 16.653 8.013,16.677 8.085,17.454 7.264 C 17.821 6.877,18.160 6.478,18.207 6.378 C 18.381 6.013,18.251 5.460,17.940 5.243 C 17.634 5.030,17.356 4.978,17.031 5.072 " fill="#1A1C1F" stroke="none" fill-rule="evenodd"></path></svg>