<svg width="16" height="16" viewBox="0 0 16 16" fill="none" xmlns="http://www.w3.org/2000/svg"><path d="M6.699 2.265 C 6.439 2.433,6.328 2.662,6.352 2.980 C 6.368 3.191,6.425 3.295,6.669 3.556 C 6.785 3.680,6.880 3.793,6.880 3.806 C 6.880 3.820,6.743 3.852,6.576 3.877 C 4.846 4.137,3.280 5.294,2.494 6.893 C 2.109 7.676,1.945 8.394,1.942 9.307 C 1.941 9.865,1.995 10.326,2.120 10.813 C 2.355 11.732,2.704 12.263,3.130 12.353 C 3.532 12.437,3.995 12.101,4.044 11.689 C 4.057 11.576,4.031 11.473,3.832 10.866 C 3.518 9.908,3.506 9.851,3.508 9.253 C 3.510 8.705,3.554 8.424,3.709 7.982 C 4.091 6.891,5.059 5.938,6.155 5.574 C 6.370 5.503,6.962 5.360,7.041 5.360 C 7.061 5.360,6.975 5.465,6.850 5.593 C 6.429 6.028,6.347 6.166,6.347 6.439 C 6.347 6.720,6.578 7.040,6.848 7.132 C 7.026 7.193,7.317 7.186,7.457 7.118 C 7.639 7.030,9.101 5.578,9.504 5.086 C 9.588 4.983,9.610 4.931,9.624 4.806 C 9.650 4.575,9.617 4.388,9.533 4.287 C 9.357 4.073,8.066 2.740,7.813 2.512 C 7.426 2.161,7.425 2.160,7.117 2.160 C 6.865 2.160,6.860 2.161,6.699 2.265 " fill="#1A1C1F" stroke="none" fill-rule="evenodd"></path></svg>