<svg width="16" height="16" viewBox="0 0 16 16" fill="none" xmlns="http://www.w3.org/2000/svg"><path d="M3.504 4.025 C 3.165 4.078,2.856 4.238,2.599 4.495 C 2.393 4.701,2.302 4.840,2.192 5.114 L 2.120 5.293 2.121 7.920 C 2.121 10.839,2.119 10.786,2.298 11.127 C 2.428 11.373,2.762 11.696,3.013 11.820 C 3.508 12.062,3.961 12.058,4.435 11.806 C 4.552 11.744,4.942 11.493,5.304 11.248 C 7.156 9.992,7.154 9.993,7.174 10.030 C 7.185 10.050,7.200 10.199,7.208 10.360 C 7.239 10.984,7.449 11.391,7.896 11.695 C 8.151 11.868,8.338 11.939,8.631 11.972 C 8.938 12.007,9.186 11.971,9.427 11.857 C 9.629 11.761,10.368 11.270,11.733 10.324 C 13.356 9.200,13.517 9.070,13.683 8.740 C 13.862 8.387,13.909 7.986,13.815 7.620 C 13.716 7.231,13.576 7.021,13.244 6.763 C 12.417 6.120,9.807 4.339,9.413 4.149 L 9.187 4.040 8.800 4.041 C 8.440 4.041,8.402 4.046,8.240 4.114 C 8.017 4.208,7.864 4.310,7.687 4.483 C 7.385 4.780,7.263 5.041,7.223 5.478 C 7.209 5.640,7.190 5.825,7.183 5.888 L 7.170 6.003 7.051 5.936 C 6.985 5.900,6.503 5.577,5.979 5.218 C 5.002 4.550,4.521 4.235,4.333 4.140 C 4.144 4.044,3.742 3.989,3.504 4.025 " fill="#1A1C1F" stroke="none" fill-rule="evenodd"></path></svg>