<svg width="12" height="12" viewBox="0 0 12 12" fill="none" xmlns="http://www.w3.org/2000/svg"><path d="M5.161 1.563 C 4.999 1.610,4.821 1.789,4.777 1.950 C 4.745 2.069,4.750 2.263,4.788 2.342 C 4.806 2.379,4.896 2.495,4.989 2.600 C 5.100 2.723,5.150 2.794,5.134 2.802 C 5.121 2.809,5.020 2.830,4.910 2.848 C 3.571 3.070,2.397 3.953,1.832 5.162 C 1.716 5.410,1.632 5.653,1.550 5.970 C 1.454 6.345,1.432 6.573,1.446 7.090 C 1.455 7.459,1.465 7.572,1.510 7.790 C 1.578 8.121,1.713 8.532,1.822 8.742 C 1.919 8.928,2.088 9.122,2.208 9.186 C 2.326 9.248,2.536 9.247,2.665 9.183 C 2.783 9.125,2.924 8.991,2.978 8.884 C 3.064 8.715,3.061 8.692,2.863 8.107 C 2.647 7.468,2.612 7.300,2.613 6.890 C 2.614 6.431,2.701 6.047,2.897 5.637 C 3.156 5.094,3.679 4.562,4.219 4.291 C 4.491 4.154,4.922 4.018,5.239 3.969 L 5.328 3.955 5.098 4.183 C 4.816 4.462,4.760 4.559,4.760 4.772 C 4.760 4.890,4.770 4.934,4.816 5.023 C 4.921 5.224,5.190 5.363,5.414 5.333 C 5.621 5.304,5.696 5.247,6.262 4.681 C 6.930 4.014,7.167 3.747,7.203 3.622 C 7.238 3.502,7.233 3.283,7.194 3.207 C 7.127 3.079,6.038 1.966,5.717 1.699 C 5.648 1.641,5.562 1.582,5.526 1.567 C 5.452 1.536,5.263 1.534,5.161 1.563 M4.760 6.280 C 4.533 6.341,4.254 6.456,4.115 6.548 C 3.939 6.664,3.876 6.772,3.864 6.979 C 3.856 7.116,3.862 7.150,3.906 7.246 C 4.008 7.469,4.240 7.616,4.450 7.592 C 4.505 7.586,4.679 7.540,4.837 7.490 C 5.210 7.373,5.420 7.369,5.420 7.480 C 5.420 7.538,5.351 7.575,5.100 7.652 C 4.565 7.815,4.543 7.824,4.463 7.892 C 4.170 8.143,4.247 8.624,4.609 8.800 C 4.743 8.864,4.810 8.867,5.078 8.822 C 5.333 8.779,5.492 8.769,5.534 8.796 C 5.569 8.818,5.601 8.915,5.586 8.955 C 5.555 9.042,5.493 9.100,5.390 9.138 C 5.227 9.199,4.933 9.253,4.524 9.298 C 4.103 9.343,4.029 9.369,3.893 9.520 C 3.695 9.741,3.702 10.047,3.910 10.277 C 4.019 10.399,4.097 10.438,4.266 10.460 C 4.664 10.510,5.555 10.345,5.947 10.148 C 6.302 9.969,6.561 9.700,6.681 9.383 C 6.841 8.962,6.782 8.577,6.514 8.288 C 6.452 8.221,6.370 8.144,6.331 8.118 C 6.292 8.092,6.260 8.064,6.260 8.056 C 6.260 8.049,6.314 7.975,6.380 7.893 C 6.552 7.679,6.579 7.610,6.579 7.380 C 6.579 7.154,6.558 7.051,6.478 6.888 C 6.394 6.718,6.265 6.579,6.070 6.449 C 5.802 6.271,5.736 6.254,5.290 6.246 C 4.960 6.241,4.890 6.245,4.760 6.280 M8.580 6.294 C 8.389 6.326,8.091 6.470,7.906 6.620 C 7.660 6.819,7.479 7.100,7.402 7.402 C 7.296 7.817,7.291 8.759,7.392 9.170 C 7.529 9.726,7.894 10.120,8.450 10.310 C 8.583 10.355,8.919 10.371,9.176 10.343 C 9.539 10.303,9.867 10.137,10.121 9.865 C 10.285 9.689,10.369 9.547,10.452 9.304 C 10.565 8.974,10.586 8.783,10.572 8.220 C 10.559 7.684,10.536 7.517,10.443 7.265 C 10.358 7.032,10.256 6.873,10.079 6.700 C 9.853 6.477,9.607 6.345,9.340 6.301 C 9.216 6.281,8.686 6.276,8.580 6.294 M9.188 7.487 C 9.218 7.507,9.269 7.564,9.301 7.615 L 9.360 7.708 9.360 8.286 L 9.360 8.864 9.297 8.983 C 9.217 9.133,9.160 9.165,8.950 9.175 C 8.751 9.184,8.678 9.151,8.584 9.011 L 8.517 8.912 8.524 8.291 C 8.530 7.686,8.531 7.668,8.575 7.597 C 8.600 7.557,8.644 7.509,8.674 7.489 C 8.780 7.420,9.083 7.418,9.188 7.487 " fill="#1A1C1F" stroke="none" fill-rule="evenodd"></path></svg>