<svg width="20" height="20" viewBox="0 0 20 20" fill="none" xmlns="http://www.w3.org/2000/svg"><path d="M8.733 5.037 C 8.614 5.050,8.427 5.094,8.317 5.135 C 7.953 5.273,3.684 8.201,3.224 8.629 C 3.026 8.814,2.863 9.080,2.761 9.383 C 2.651 9.715,2.651 10.317,2.762 10.633 C 2.849 10.884,3.000 11.125,3.191 11.321 C 3.457 11.593,4.661 12.459,6.717 13.856 C 8.267 14.909,8.410 14.979,9.000 14.982 C 9.874 14.986,10.656 14.394,10.915 13.533 C 10.946 13.433,10.979 13.178,10.990 12.967 C 11.000 12.756,11.019 12.563,11.032 12.539 C 11.057 12.492,11.519 12.791,13.100 13.878 C 14.545 14.872,14.748 14.974,15.300 14.979 C 15.474 14.981,15.699 14.962,15.800 14.937 C 16.513 14.764,17.135 14.148,17.291 13.464 C 17.341 13.242,17.347 12.897,17.347 10.067 C 17.347 7.776,17.336 6.844,17.307 6.650 C 17.202 5.952,16.658 5.352,15.900 5.099 C 15.713 5.037,15.626 5.029,15.267 5.039 C 14.866 5.051,14.840 5.056,14.600 5.173 C 14.315 5.312,13.728 5.694,12.483 6.550 C 11.553 7.190,11.063 7.508,11.041 7.485 C 11.033 7.478,11.013 7.294,10.996 7.077 C 10.937 6.326,10.823 6.049,10.403 5.633 C 9.920 5.155,9.394 4.967,8.733 5.037 M8.976 8.103 C 9.007 9.297,8.976 12.870,8.934 12.912 C 8.900 12.947,4.699 10.062,4.700 10.004 C 4.701 9.977,5.045 9.733,6.500 8.727 C 7.151 8.278,7.953 7.721,8.283 7.491 C 8.613 7.261,8.898 7.077,8.917 7.081 C 8.937 7.086,8.960 7.476,8.976 8.103 M15.317 10.023 C 15.317 12.021,15.306 12.874,15.280 12.900 C 15.254 12.926,14.856 12.667,13.864 11.980 C 12.230 10.849,11.404 10.266,11.206 10.108 L 11.062 9.992 11.290 9.826 C 11.624 9.580,13.318 8.399,14.350 7.691 C 15.124 7.160,15.255 7.081,15.283 7.128 C 15.305 7.164,15.317 8.189,15.317 10.023 " fill="#1A1C1F" stroke="none" fill-rule="evenodd"></path></svg>