<svg width="14" height="14" viewBox="0 0 14 14" fill="none" xmlns="http://www.w3.org/2000/svg"><path d="M2.893 3.560 C 2.459 3.676,2.094 4.023,1.926 4.481 L 1.843 4.705 1.843 6.992 L 1.843 9.278 1.900 9.445 C 2.074 9.957,2.364 10.261,2.824 10.415 C 3.195 10.539,3.494 10.520,3.838 10.349 C 3.954 10.292,4.295 10.077,4.597 9.872 C 6.260 8.741,6.261 8.741,6.277 8.788 C 6.286 8.812,6.300 8.942,6.308 9.077 C 6.332 9.488,6.418 9.734,6.622 9.978 C 6.928 10.346,7.473 10.554,7.927 10.478 C 8.232 10.426,8.347 10.357,9.893 9.290 C 11.288 8.329,11.509 8.166,11.769 7.914 C 11.955 7.734,12.042 7.571,12.097 7.298 C 12.142 7.074,12.143 6.937,12.099 6.708 C 12.006 6.224,11.853 6.075,10.418 5.074 C 9.364 4.338,8.326 3.653,8.178 3.594 C 8.010 3.528,7.595 3.502,7.393 3.545 C 7.158 3.595,6.936 3.726,6.718 3.943 C 6.412 4.247,6.345 4.409,6.303 4.954 C 6.291 5.106,6.275 5.236,6.267 5.244 C 6.260 5.251,6.025 5.103,5.746 4.914 C 3.739 3.555,3.837 3.617,3.591 3.559 C 3.404 3.515,3.062 3.516,2.893 3.560 M8.975 5.782 C 9.877 6.404,10.448 6.801,10.657 6.951 C 10.685 6.972,10.709 6.995,10.709 7.003 C 10.710 7.020,9.940 7.560,8.668 8.435 C 8.206 8.753,7.799 9.033,7.764 9.058 L 7.700 9.103 7.700 7.000 L 7.700 4.896 7.811 4.976 C 7.872 5.021,8.396 5.383,8.975 5.782 M3.591 5.138 C 4.725 5.908,6.253 6.978,6.253 7.003 C 6.253 7.041,3.381 9.030,3.326 9.030 C 3.280 9.030,3.267 8.620,3.267 7.126 C 3.267 5.640,3.283 4.970,3.320 4.970 C 3.333 4.970,3.455 5.046,3.591 5.138 " fill="#1A1C1F" stroke="none" fill-rule="evenodd"></path></svg>