<svg width="48" height="48" viewBox="0 0 48 48" fill="none" xmlns="http://www.w3.org/2000/svg"><path d="M6.111 11.169 C 5.654 11.332,5.169 11.770,4.948 12.220 L 4.762 12.600 4.761 23.680 C 4.760 32.185,4.783 34.899,4.860 35.360 C 4.955 35.926,4.983 35.981,5.356 36.331 C 5.970 36.907,6.773 37.107,7.406 36.843 C 7.741 36.703,11.031 34.490,16.560 30.685 C 21.779 27.093,23.109 26.202,23.163 26.257 C 23.188 26.281,23.233 28.403,23.264 30.971 L 23.320 35.640 23.505 35.937 C 23.705 36.260,24.121 36.617,24.555 36.839 C 24.911 37.021,25.692 36.968,26.175 36.728 C 26.538 36.548,29.095 34.807,35.920 30.094 C 41.381 26.323,42.387 25.603,42.736 25.216 C 43.174 24.732,43.304 24.103,43.112 23.400 C 42.950 22.809,42.753 22.660,35.160 17.397 C 29.591 13.536,25.984 11.139,25.649 11.076 C 25.015 10.957,24.109 11.296,23.732 11.793 C 23.286 12.379,23.305 12.170,23.258 17.106 C 23.234 19.629,23.193 21.714,23.167 21.739 C 23.105 21.802,21.717 20.871,15.418 16.544 C 7.473 11.086,7.383 11.030,6.680 11.047 C 6.548 11.050,6.292 11.105,6.111 11.169 " fill="#1A1C1F" stroke="none" fill-rule="evenodd"></path></svg>