<svg width="12" height="12" viewBox="0 0 12 12" fill="none" xmlns="http://www.w3.org/2000/svg"><path d="M2.482 3.050 C 2.106 3.156,1.776 3.472,1.650 3.848 L 1.600 3.998 1.588 5.354 C 1.582 6.100,1.585 7.016,1.595 7.390 C 1.613 8.026,1.617 8.078,1.659 8.190 C 1.758 8.447,1.978 8.707,2.210 8.840 C 2.399 8.947,2.535 8.980,2.794 8.980 C 3.179 8.979,3.212 8.963,4.227 8.266 C 5.204 7.595,5.366 7.492,5.381 7.534 C 5.388 7.554,5.400 7.662,5.407 7.774 C 5.414 7.887,5.430 8.026,5.443 8.084 C 5.511 8.405,5.756 8.706,6.087 8.873 C 6.214 8.938,6.460 9.000,6.588 9.000 C 6.698 9.000,6.965 8.941,7.082 8.892 C 7.264 8.816,9.688 7.145,9.995 6.884 C 10.316 6.612,10.455 6.196,10.373 5.760 C 10.292 5.337,10.172 5.218,8.960 4.370 C 8.175 3.820,7.187 3.161,7.070 3.109 C 6.779 2.980,6.352 2.993,6.063 3.139 C 5.919 3.211,5.691 3.419,5.592 3.569 C 5.482 3.734,5.419 3.948,5.407 4.197 C 5.402 4.314,5.393 4.430,5.388 4.455 L 5.379 4.500 5.305 4.462 C 5.264 4.441,4.938 4.223,4.580 3.978 C 3.623 3.323,3.282 3.102,3.170 3.067 C 3.025 3.022,2.619 3.012,2.482 3.050 " fill="#1A1C1F" stroke="none" fill-rule="evenodd"></path></svg>