<svg width="64" height="64" viewBox="0 0 64 64" fill="none" xmlns="http://www.w3.org/2000/svg"><path d="M10.491 16.261 C 10.025 16.464,9.302 17.136,8.942 17.701 L 8.640 18.175 8.640 31.918 L 8.640 45.660 8.910 46.194 C 9.498 47.353,10.407 47.893,11.770 47.893 C 12.383 47.893,12.601 47.843,13.004 47.609 C 13.542 47.297,16.151 45.526,23.728 40.330 C 28.956 36.744,30.266 35.883,30.355 35.973 C 30.385 36.003,30.447 38.229,30.495 40.920 C 30.590 46.398,30.571 46.262,31.373 47.041 C 32.004 47.652,32.497 47.879,33.379 47.961 C 34.117 48.029,34.147 48.022,34.800 47.625 C 38.000 45.677,53.722 34.737,54.566 33.870 C 55.730 32.676,55.548 30.861,54.153 29.746 C 53.021 28.841,40.539 20.164,36.444 17.435 L 34.558 16.178 33.704 16.128 C 32.910 16.083,32.802 16.103,32.164 16.417 C 31.428 16.779,30.883 17.351,30.715 17.937 C 30.661 18.126,30.568 20.488,30.508 23.185 C 30.448 25.882,30.380 28.109,30.356 28.133 C 30.299 28.190,29.071 27.365,22.933 23.145 C 16.651 18.826,13.105 16.454,12.634 16.257 C 12.179 16.067,10.932 16.069,10.491 16.261 " fill="#1A1C1F" stroke="none" fill-rule="evenodd"></path></svg>