<svg width="20" height="20" viewBox="0 0 20 20" fill="none" xmlns="http://www.w3.org/2000/svg"><path d="M8.500 2.753 C 8.337 2.823,8.110 3.053,8.011 3.247 C 7.938 3.389,7.928 3.444,7.940 3.664 C 7.956 3.986,8.004 4.081,8.333 4.446 C 8.480 4.608,8.600 4.752,8.600 4.766 C 8.600 4.779,8.461 4.809,8.292 4.833 C 7.138 4.990,5.907 5.537,4.931 6.326 C 4.574 6.614,3.955 7.267,3.706 7.618 C 2.387 9.478,2.060 11.786,2.799 14.004 C 3.079 14.845,3.436 15.317,3.881 15.437 C 4.161 15.513,4.544 15.384,4.794 15.130 C 5.007 14.914,5.048 14.820,5.047 14.550 C 5.046 14.347,5.011 14.213,4.775 13.517 C 4.416 12.460,4.383 12.297,4.384 11.567 C 4.386 10.742,4.511 10.182,4.850 9.483 C 5.117 8.934,5.335 8.629,5.782 8.181 C 6.383 7.579,7.025 7.185,7.816 6.934 C 8.150 6.828,8.766 6.688,8.790 6.712 C 8.797 6.720,8.666 6.873,8.498 7.054 C 8.038 7.549,7.933 7.727,7.933 8.016 C 7.933 8.388,8.131 8.697,8.476 8.864 C 8.768 9.004,8.932 9.020,9.217 8.933 L 9.450 8.861 10.452 7.855 C 11.721 6.583,11.984 6.283,12.033 6.053 C 12.083 5.821,12.045 5.565,11.935 5.392 C 11.804 5.185,10.759 4.096,9.996 3.370 C 9.513 2.911,9.307 2.736,9.230 2.721 C 9.038 2.683,8.621 2.701,8.500 2.753 M14.326 10.568 C 13.719 10.662,13.020 11.137,12.632 11.717 C 12.468 11.963,12.286 12.509,12.232 12.916 C 12.174 13.348,12.209 14.899,12.283 15.233 C 12.486 16.141,13.075 16.861,13.874 17.179 C 14.323 17.357,15.261 17.369,15.741 17.203 C 16.238 17.032,16.683 16.738,16.950 16.407 C 17.150 16.159,17.411 15.623,17.506 15.267 C 17.577 14.997,17.581 14.929,17.576 13.883 C 17.571 12.804,17.569 12.778,17.484 12.483 C 17.436 12.318,17.335 12.056,17.259 11.900 C 17.143 11.664,17.065 11.561,16.785 11.282 C 16.427 10.924,16.114 10.728,15.733 10.622 C 15.511 10.560,14.599 10.525,14.326 10.568 M8.848 10.737 C 8.547 10.898,7.770 11.427,7.594 11.592 C 7.430 11.745,7.357 11.905,7.316 12.200 C 7.267 12.552,7.601 13.038,7.967 13.147 C 8.065 13.176,8.188 13.200,8.239 13.200 L 8.333 13.200 8.333 14.225 C 8.333 14.789,8.324 15.282,8.313 15.322 C 8.300 15.372,8.258 15.401,8.173 15.416 C 7.890 15.469,7.606 15.700,7.463 15.992 C 7.347 16.230,7.353 16.555,7.478 16.810 C 7.588 17.033,7.825 17.242,8.044 17.307 C 8.245 17.367,10.212 17.366,10.475 17.306 C 10.861 17.217,11.159 16.862,11.191 16.455 C 11.229 15.965,10.864 15.511,10.356 15.416 L 10.233 15.393 10.233 13.362 L 10.233 11.331 10.153 11.172 C 9.981 10.833,9.660 10.635,9.280 10.634 C 9.077 10.633,9.014 10.649,8.848 10.737 M15.305 12.560 C 15.518 12.691,15.566 12.832,15.599 13.421 C 15.638 14.098,15.596 14.808,15.505 15.013 C 15.406 15.236,15.220 15.346,14.920 15.360 C 14.619 15.374,14.450 15.316,14.318 15.152 L 14.217 15.027 14.217 13.920 C 14.217 12.919,14.222 12.805,14.275 12.724 C 14.400 12.534,14.593 12.464,14.954 12.480 C 15.125 12.487,15.224 12.509,15.305 12.560 " fill="#1A1C1F" stroke="none" fill-rule="evenodd"></path></svg>