<svg width="20" height="20" viewBox="0 0 20 20" fill="none" xmlns="http://www.w3.org/2000/svg"><path d="M8.476 2.683 C 8.143 2.852,7.934 3.193,7.934 3.568 C 7.933 3.858,8.024 4.036,8.353 4.393 C 8.493 4.545,8.603 4.675,8.596 4.681 C 8.589 4.687,8.348 4.739,8.060 4.795 C 6.162 5.169,4.584 6.208,3.545 7.767 C 3.089 8.452,2.716 9.362,2.537 10.224 C 2.196 11.871,2.612 14.205,3.397 15.044 C 3.738 15.409,4.048 15.475,4.473 15.272 C 4.841 15.096,5.045 14.803,5.045 14.450 C 5.046 14.287,4.999 14.113,4.794 13.516 C 4.399 12.368,4.384 12.295,4.387 11.567 C 4.392 10.588,4.480 10.178,4.849 9.416 C 5.220 8.648,5.734 8.032,6.400 7.558 C 6.792 7.279,7.488 6.930,7.875 6.819 C 8.200 6.726,8.718 6.623,8.771 6.640 C 8.790 6.647,8.639 6.831,8.435 7.051 C 8.231 7.270,8.035 7.511,7.999 7.586 C 7.923 7.742,7.912 8.037,7.974 8.243 C 8.027 8.423,8.327 8.743,8.509 8.817 C 8.724 8.903,9.145 8.898,9.322 8.806 C 9.516 8.707,10.085 8.177,10.967 7.278 C 11.875 6.352,11.988 6.212,12.036 5.950 C 12.082 5.700,12.032 5.390,11.926 5.270 C 11.280 4.541,9.495 2.785,9.289 2.677 C 9.226 2.644,9.076 2.616,8.917 2.608 C 8.679 2.597,8.631 2.605,8.476 2.683 M8.050 10.435 C 7.526 10.563,6.910 10.835,6.715 11.025 C 6.359 11.370,6.347 11.952,6.688 12.331 C 6.904 12.571,7.039 12.633,7.348 12.633 C 7.555 12.633,7.674 12.608,8.041 12.486 C 8.564 12.311,8.750 12.278,8.914 12.333 C 9.007 12.363,9.033 12.390,9.033 12.452 C 9.033 12.561,8.891 12.629,8.262 12.819 C 7.457 13.061,7.260 13.198,7.163 13.583 C 7.046 14.049,7.364 14.577,7.846 14.717 C 8.002 14.762,8.050 14.762,8.302 14.717 C 9.010 14.589,9.095 14.583,9.193 14.656 C 9.297 14.733,9.329 14.900,9.263 15.023 C 9.160 15.215,8.659 15.354,7.667 15.466 C 6.990 15.542,6.869 15.567,6.710 15.665 C 6.568 15.752,6.381 16.014,6.330 16.196 C 6.199 16.663,6.420 17.142,6.860 17.344 C 6.996 17.406,7.074 17.416,7.450 17.414 C 8.406 17.410,9.534 17.133,10.180 16.743 C 10.412 16.603,10.862 16.160,10.982 15.955 C 11.098 15.756,11.223 15.358,11.264 15.056 C 11.342 14.492,11.095 13.925,10.619 13.575 C 10.508 13.494,10.412 13.423,10.407 13.417 C 10.401 13.412,10.481 13.312,10.583 13.196 C 10.685 13.079,10.816 12.889,10.873 12.775 C 10.964 12.590,10.976 12.533,10.975 12.287 C 10.971 11.489,10.485 10.823,9.679 10.511 C 9.465 10.428,9.410 10.422,8.817 10.413 C 8.468 10.407,8.123 10.417,8.050 10.435 M14.112 10.533 C 13.301 10.745,12.589 11.446,12.335 12.283 C 12.215 12.678,12.160 14.034,12.235 14.764 C 12.354 15.927,12.967 16.767,13.941 17.102 C 14.669 17.353,15.437 17.299,16.150 16.948 C 16.948 16.556,17.471 15.739,17.566 14.740 C 17.633 14.030,17.592 12.891,17.481 12.400 C 17.454 12.281,17.354 12.026,17.260 11.833 C 17.110 11.530,17.047 11.442,16.784 11.179 C 16.526 10.920,16.435 10.853,16.166 10.723 C 15.703 10.500,15.536 10.466,14.895 10.469 C 14.474 10.470,14.296 10.485,14.112 10.533 M15.252 12.455 C 15.333 12.497,15.421 12.584,15.483 12.684 L 15.583 12.845 15.594 13.633 C 15.611 14.819,15.558 15.049,15.237 15.206 C 14.836 15.401,14.330 15.250,14.234 14.906 C 14.215 14.835,14.200 14.362,14.200 13.790 C 14.200 12.695,14.203 12.677,14.408 12.521 C 14.468 12.476,14.569 12.423,14.633 12.404 C 14.806 12.352,15.101 12.377,15.252 12.455 " fill="#1A1C1F" stroke="none" fill-rule="evenodd"></path></svg>