<svg width="24" height="24" viewBox="0 0 24 24" fill="none" xmlns="http://www.w3.org/2000/svg"><path d="M13.670 3.055 C 13.359 3.171,13.119 3.389,11.893 4.676 C 10.866 5.754,10.800 5.845,10.800 6.174 C 10.800 6.334,10.827 6.471,10.881 6.582 C 11.042 6.914,13.121 9.043,13.489 9.253 C 13.717 9.383,13.945 9.413,14.179 9.342 C 14.623 9.209,14.896 8.858,14.899 8.420 C 14.900 8.115,14.835 7.984,14.458 7.534 C 14.295 7.339,14.162 7.167,14.161 7.150 C 14.159 7.100,14.320 7.116,14.800 7.217 C 16.004 7.470,16.949 7.986,17.842 8.878 C 18.597 9.632,19.186 10.688,19.424 11.711 C 19.522 12.130,19.549 13.735,19.465 14.145 C 19.266 15.125,18.804 16.045,18.003 17.060 C 17.846 17.258,17.683 17.493,17.639 17.583 C 17.475 17.920,17.586 18.447,17.873 18.688 C 18.054 18.840,18.365 18.933,18.625 18.911 C 18.916 18.887,19.201 18.689,19.610 18.224 C 20.655 17.039,21.365 15.389,21.524 13.778 C 21.580 13.212,21.550 12.260,21.460 11.740 C 21.065 9.459,19.711 7.470,17.731 6.265 C 16.801 5.699,15.853 5.360,14.622 5.153 L 14.304 5.100 14.494 4.887 C 14.950 4.374,15.064 4.085,14.947 3.741 C 14.767 3.214,14.143 2.878,13.670 3.055 " fill="#1A1C1F" stroke="none" fill-rule="evenodd"></path></svg>