<svg width="24" height="24" viewBox="0 0 24 24" fill="none" xmlns="http://www.w3.org/2000/svg"><path d="M13.720 3.035 C 13.488 3.111,13.331 3.228,12.905 3.640 C 12.300 4.227,11.052 5.557,10.913 5.764 C 10.769 5.978,10.756 6.324,10.881 6.582 C 11.042 6.914,13.121 9.043,13.489 9.253 C 13.717 9.383,13.945 9.413,14.179 9.342 C 14.623 9.209,14.896 8.858,14.899 8.420 C 14.900 8.115,14.835 7.984,14.458 7.534 C 14.295 7.339,14.162 7.167,14.161 7.150 C 14.159 7.102,14.301 7.115,14.734 7.202 C 15.908 7.440,16.845 7.926,17.725 8.753 C 18.298 9.293,18.780 10.004,19.143 10.844 C 19.431 11.512,19.488 11.828,19.510 12.865 C 19.526 13.624,19.517 13.851,19.463 14.125 C 19.264 15.129,18.805 16.051,18.004 17.060 C 17.642 17.516,17.560 17.684,17.561 17.963 C 17.563 18.374,17.783 18.703,18.149 18.840 C 18.716 19.052,19.100 18.860,19.772 18.029 C 20.911 16.622,21.560 14.820,21.560 13.066 C 21.560 9.629,19.384 6.608,16.123 5.518 C 15.865 5.431,15.351 5.301,14.981 5.228 L 14.309 5.095 14.496 4.884 C 14.779 4.566,14.964 4.265,14.988 4.087 C 15.034 3.746,14.797 3.338,14.442 3.145 C 14.226 3.027,13.896 2.977,13.720 3.035 M12.016 12.041 C 11.333 12.112,10.857 12.344,10.336 12.860 C 10.035 13.157,9.943 13.279,9.807 13.560 C 9.717 13.747,9.602 14.062,9.552 14.260 C 9.463 14.609,9.460 14.673,9.463 16.380 C 9.466 18.266,9.491 18.589,9.664 19.016 C 9.823 19.409,10.101 19.811,10.429 20.124 C 10.934 20.605,11.426 20.819,12.124 20.862 C 12.355 20.876,12.686 20.869,12.869 20.845 C 13.838 20.720,14.694 20.060,15.070 19.147 C 15.300 18.590,15.325 18.421,15.369 17.122 C 15.438 15.089,15.356 14.337,14.982 13.580 C 14.452 12.510,13.292 11.908,12.016 12.041 M4.675 12.494 C 4.143 12.814,2.993 13.590,2.773 13.778 C 2.263 14.215,2.459 15.177,3.107 15.425 C 3.349 15.517,3.608 15.478,4.015 15.287 L 4.350 15.130 4.375 15.335 C 4.388 15.448,4.399 16.326,4.400 17.286 L 4.400 19.032 3.748 19.046 C 3.047 19.061,3.012 19.071,2.746 19.315 C 2.546 19.500,2.462 19.708,2.462 20.020 C 2.462 20.443,2.610 20.681,3.000 20.885 L 3.180 20.980 5.420 20.991 L 7.660 21.001 7.871 20.879 C 8.571 20.474,8.567 19.584,7.862 19.135 C 7.761 19.071,7.645 19.058,7.074 19.046 L 6.405 19.032 6.391 16.006 C 6.375 12.750,6.380 12.822,6.165 12.585 C 5.992 12.396,5.620 12.240,5.339 12.240 C 5.113 12.240,5.069 12.257,4.675 12.494 M12.791 14.102 C 13.132 14.244,13.304 14.522,13.368 15.032 C 13.430 15.535,13.428 17.624,13.364 18.020 C 13.297 18.439,13.163 18.684,12.914 18.844 C 12.556 19.073,12.145 19.038,11.816 18.748 C 11.492 18.463,11.502 18.528,11.487 16.549 L 11.475 14.799 11.571 14.589 C 11.686 14.337,11.879 14.134,12.053 14.084 C 12.255 14.025,12.630 14.035,12.791 14.102 " fill="#1A1C1F" stroke="none" fill-rule="evenodd"></path></svg>