<svg width="20" height="20" viewBox="0 0 20 20" fill="none" xmlns="http://www.w3.org/2000/svg"><path d="M10.960 2.626 C 10.786 2.707,10.196 3.270,9.161 4.343 C 8.320 5.216,8.264 5.281,8.213 5.457 C 8.146 5.689,8.167 5.904,8.278 6.122 C 8.418 6.397,10.364 8.402,10.743 8.662 C 11.073 8.889,11.422 8.925,11.750 8.767 C 12.110 8.593,12.300 8.289,12.300 7.888 C 12.300 7.590,12.212 7.443,11.759 6.979 L 11.363 6.574 11.690 6.633 C 13.117 6.890,14.297 7.639,15.052 8.769 C 15.525 9.476,15.777 10.216,15.865 11.154 C 15.929 11.828,15.837 12.330,15.431 13.517 C 15.096 14.494,15.101 14.658,15.470 15.037 C 15.893 15.471,16.436 15.444,16.878 14.966 C 17.373 14.432,17.760 13.111,17.822 11.747 C 17.877 10.526,17.529 9.145,16.892 8.063 C 15.865 6.318,14.212 5.164,12.163 4.759 L 11.609 4.649 11.870 4.371 C 12.210 4.009,12.300 3.830,12.300 3.517 C 12.300 3.117,12.106 2.826,11.719 2.646 C 11.508 2.548,11.148 2.538,10.960 2.626 M3.950 10.469 C 3.394 10.604,2.782 10.881,2.578 11.091 C 2.169 11.511,2.290 12.268,2.814 12.569 C 3.074 12.718,3.352 12.708,3.878 12.529 C 4.192 12.423,4.351 12.388,4.581 12.375 C 4.836 12.360,4.884 12.366,4.920 12.416 C 5.021 12.554,4.880 12.635,4.162 12.852 C 3.880 12.937,3.565 13.051,3.460 13.107 C 2.780 13.467,2.921 14.442,3.697 14.737 L 3.883 14.808 4.267 14.737 C 4.965 14.608,5.056 14.612,5.179 14.777 C 5.243 14.862,5.244 14.871,5.190 14.983 C 5.063 15.250,4.603 15.390,3.436 15.516 C 3.172 15.545,2.917 15.577,2.869 15.588 C 2.710 15.625,2.503 15.767,2.386 15.920 C 2.069 16.334,2.109 16.804,2.494 17.189 C 2.724 17.419,2.805 17.443,3.354 17.439 C 4.312 17.433,5.377 17.181,5.996 16.815 C 6.382 16.587,6.741 16.224,6.929 15.869 C 7.191 15.376,7.233 14.649,7.025 14.207 C 6.955 14.058,6.574 13.640,6.392 13.514 L 6.301 13.450 6.502 13.200 C 6.734 12.910,6.820 12.747,6.864 12.512 C 6.921 12.211,6.813 11.716,6.617 11.381 C 6.420 11.044,6.003 10.710,5.573 10.542 C 5.365 10.461,5.309 10.454,4.717 10.446 C 4.368 10.441,4.023 10.451,3.950 10.469 M10.027 10.483 C 9.410 10.639,8.822 11.076,8.491 11.624 C 8.397 11.781,8.282 12.045,8.201 12.293 L 8.067 12.702 8.068 13.526 C 8.069 14.646,8.104 15.084,8.218 15.400 C 8.545 16.311,9.174 16.926,9.992 17.136 C 10.344 17.225,11.044 17.225,11.420 17.135 C 12.381 16.904,13.082 16.194,13.360 15.169 C 13.444 14.860,13.446 14.819,13.448 13.850 C 13.450 12.729,13.424 12.517,13.218 12.010 C 12.929 11.298,12.354 10.744,11.683 10.532 C 11.485 10.469,11.357 10.456,10.833 10.446 C 10.375 10.438,10.168 10.447,10.027 10.483 M11.129 12.426 C 11.191 12.455,11.284 12.538,11.337 12.611 L 11.433 12.743 11.433 13.756 C 11.433 14.696,11.429 14.779,11.368 14.897 C 11.276 15.077,11.130 15.188,10.928 15.231 C 10.607 15.300,10.249 15.192,10.148 14.997 C 10.060 14.826,10.025 14.306,10.046 13.502 C 10.069 12.688,10.089 12.594,10.277 12.454 C 10.441 12.332,10.891 12.317,11.129 12.426 " fill="#1A1C1F" stroke="none" fill-rule="evenodd"></path></svg>