<svg width="32" height="32" viewBox="0 0 32 32" fill="none" xmlns="http://www.w3.org/2000/svg"><path d="M14.200 5.073 C 13.851 5.174,13.548 5.615,13.547 6.023 C 13.546 6.274,13.764 6.593,14.398 7.273 C 14.751 7.650,15.026 7.980,15.010 8.006 C 14.994 8.032,14.837 8.053,14.661 8.053 C 13.787 8.053,12.522 8.289,11.475 8.647 C 8.150 9.783,5.609 12.361,4.544 15.680 C 3.800 17.996,3.823 20.175,4.618 22.558 C 5.150 24.156,6.440 26.156,7.137 26.466 C 7.671 26.703,8.275 26.320,8.407 25.659 C 8.468 25.352,8.375 25.142,7.836 24.370 C 7.004 23.179,6.442 21.943,6.177 20.720 C 6.130 20.503,6.108 19.939,6.107 18.960 C 6.107 17.738,6.122 17.455,6.207 17.093 C 6.358 16.448,6.643 15.667,6.970 15.001 C 8.001 12.908,9.924 11.251,12.217 10.484 C 12.968 10.233,14.269 10.027,15.104 10.027 L 15.369 10.027 14.565 10.862 C 13.665 11.797,13.514 12.030,13.567 12.411 C 13.633 12.893,13.953 13.204,14.441 13.262 C 14.633 13.285,14.759 13.267,14.912 13.197 C 15.185 13.071,18.485 9.771,18.591 9.518 C 18.682 9.299,18.685 8.987,18.598 8.785 C 18.518 8.601,16.634 6.650,15.747 5.833 C 14.879 5.034,14.678 4.935,14.200 5.073 M23.382 16.055 C 22.963 16.111,22.322 16.327,21.933 16.543 C 21.765 16.637,21.421 16.919,21.171 17.170 C 20.695 17.646,20.454 18.032,20.186 18.744 C 20.054 19.094,20.053 19.105,20.056 20.921 C 20.059 23.307,20.105 24.017,20.290 24.507 C 20.597 25.318,21.143 26.008,21.786 26.396 C 21.952 26.496,22.308 26.662,22.577 26.766 C 23.066 26.953,23.067 26.954,23.920 26.949 C 24.891 26.945,25.240 26.877,25.840 26.577 C 26.840 26.078,27.596 25.138,27.870 24.053 C 28.062 23.294,28.019 19.364,27.811 18.667 C 27.392 17.265,26.097 16.219,24.612 16.084 C 23.866 16.016,23.701 16.012,23.382 16.055 M14.603 16.370 C 14.258 16.479,11.432 17.961,11.279 18.113 C 11.085 18.305,10.958 18.695,11.007 18.942 C 11.073 19.270,11.441 19.619,11.845 19.735 C 12.066 19.798,12.451 19.669,13.286 19.250 L 13.920 18.933 13.920 21.966 L 13.920 25.000 12.805 25.023 L 11.690 25.045 11.474 25.195 C 10.892 25.599,10.908 26.428,11.506 26.824 L 11.752 26.987 15.066 26.987 L 18.381 26.987 18.624 26.754 C 18.909 26.481,19.013 26.217,18.967 25.882 C 18.924 25.573,18.797 25.364,18.544 25.189 C 18.340 25.047,18.334 25.047,17.147 25.023 L 15.955 25.000 15.937 21.047 C 15.920 17.157,15.918 17.090,15.809 16.880 C 15.611 16.503,15.001 16.245,14.603 16.370 M25.130 18.246 C 25.492 18.428,25.783 18.713,25.878 18.979 C 25.930 19.126,25.947 19.734,25.947 21.493 L 25.947 23.813 25.816 24.078 C 25.633 24.446,25.347 24.713,24.979 24.858 C 24.709 24.964,24.572 24.981,23.973 24.981 C 23.380 24.981,23.236 24.964,22.977 24.861 C 22.638 24.728,22.417 24.509,22.213 24.106 L 22.080 23.844 22.080 21.631 C 22.080 20.233,22.101 19.319,22.138 19.147 C 22.262 18.572,22.785 18.156,23.481 18.080 C 24.148 18.008,24.781 18.071,25.130 18.246 " fill="#1A1C1F" stroke="none" fill-rule="evenodd"></path></svg>