<svg width="16" height="16" viewBox="0 0 16 16" fill="none" xmlns="http://www.w3.org/2000/svg"><path d="M8.493 2.160 C 8.434 2.168,8.326 2.216,8.253 2.265 C 8.032 2.414,6.341 4.147,6.212 4.356 C 6.088 4.558,6.127 4.876,6.306 5.113 C 6.454 5.311,7.429 6.312,7.887 6.737 C 8.335 7.154,8.390 7.183,8.692 7.168 C 8.953 7.155,9.045 7.116,9.210 6.951 C 9.476 6.684,9.521 6.317,9.323 6.031 C 9.283 5.974,9.138 5.805,8.999 5.655 C 8.860 5.505,8.747 5.377,8.747 5.370 C 8.747 5.337,9.493 5.517,9.741 5.610 C 10.244 5.800,10.708 6.103,11.132 6.519 C 11.709 7.086,12.039 7.683,12.218 8.483 C 12.271 8.722,12.280 8.832,12.280 9.280 C 12.279 9.896,12.265 9.967,11.959 10.864 C 11.726 11.547,11.703 11.671,11.782 11.848 C 11.859 12.022,12.055 12.222,12.221 12.296 C 12.404 12.376,12.662 12.382,12.813 12.308 C 12.951 12.241,13.162 12.023,13.276 11.831 C 13.499 11.458,13.713 10.770,13.802 10.145 C 13.856 9.761,13.864 8.953,13.817 8.587 C 13.754 8.089,13.517 7.325,13.280 6.851 C 12.496 5.286,10.992 4.183,9.228 3.880 C 9.089 3.856,8.959 3.827,8.940 3.816 C 8.913 3.802,8.958 3.736,9.108 3.571 C 9.426 3.221,9.501 3.033,9.431 2.765 C 9.353 2.467,9.164 2.246,8.936 2.189 C 8.796 2.154,8.615 2.142,8.493 2.160 M7.610 8.479 C 7.075 8.620,6.546 9.048,6.308 9.533 C 6.150 9.857,6.109 10.020,6.077 10.459 C 6.040 10.957,6.062 11.911,6.117 12.175 C 6.208 12.617,6.397 12.973,6.709 13.286 C 7.148 13.727,7.615 13.895,8.305 13.858 C 9.274 13.807,9.972 13.253,10.266 12.302 C 10.379 11.936,10.405 10.672,10.309 10.160 C 10.219 9.673,10.011 9.286,9.668 8.967 C 9.236 8.564,8.840 8.426,8.133 8.428 C 7.897 8.429,7.745 8.444,7.610 8.479 M3.338 8.614 C 3.076 8.757,2.541 9.121,2.378 9.268 C 2.214 9.415,2.154 9.556,2.154 9.790 C 2.155 10.083,2.287 10.307,2.544 10.455 C 2.619 10.498,2.737 10.540,2.807 10.550 L 2.933 10.567 2.933 11.439 L 2.933 12.311 2.780 12.354 C 2.384 12.464,2.148 12.812,2.200 13.208 C 2.226 13.404,2.277 13.497,2.442 13.653 C 2.688 13.885,2.656 13.880,3.720 13.880 C 4.622 13.880,4.658 13.878,4.779 13.822 C 5.134 13.658,5.309 13.259,5.202 12.861 C 5.137 12.619,4.897 12.405,4.623 12.344 L 4.480 12.312 4.480 10.693 L 4.480 9.075 4.411 8.944 C 4.257 8.652,4.028 8.506,3.721 8.507 C 3.553 8.507,3.513 8.518,3.338 8.614 M8.539 10.038 C 8.571 10.061,8.631 10.129,8.672 10.190 L 8.747 10.301 8.747 11.109 C 8.747 11.616,8.736 11.944,8.718 11.992 C 8.646 12.182,8.451 12.292,8.187 12.292 C 7.975 12.292,7.820 12.228,7.731 12.103 C 7.667 12.014,7.667 12.006,7.658 11.253 C 7.648 10.325,7.656 10.239,7.769 10.115 C 7.816 10.064,7.896 10.012,7.947 9.999 C 8.085 9.964,8.469 9.989,8.539 10.038 " fill="#1A1C1F" stroke="none" fill-rule="evenodd"></path></svg>