<svg width="20" height="20" viewBox="0 0 20 20" fill="none" xmlns="http://www.w3.org/2000/svg"><path d="M10.574 2.698 C 10.514 2.713,10.402 2.768,10.324 2.820 C 10.053 3.003,7.928 5.183,7.765 5.446 C 7.609 5.698,7.657 6.090,7.882 6.393 C 8.058 6.631,9.269 7.873,9.859 8.422 C 10.413 8.936,10.488 8.977,10.847 8.961 C 11.165 8.946,11.321 8.881,11.523 8.679 C 11.776 8.426,11.865 8.138,11.786 7.831 C 11.732 7.625,11.641 7.494,11.267 7.087 C 11.102 6.908,10.967 6.747,10.967 6.730 C 10.967 6.713,11.000 6.706,11.042 6.714 C 11.083 6.723,11.237 6.755,11.383 6.785 C 12.369 6.990,13.205 7.444,13.930 8.169 C 14.633 8.872,15.077 9.668,15.272 10.576 C 15.333 10.858,15.346 11.029,15.348 11.567 C 15.350 12.347,15.337 12.414,14.963 13.531 C 14.656 14.443,14.629 14.589,14.726 14.809 C 14.818 15.015,15.044 15.254,15.249 15.359 C 15.500 15.488,15.819 15.485,16.062 15.351 C 16.308 15.215,16.506 14.977,16.699 14.583 C 17.170 13.626,17.424 12.101,17.299 10.983 C 17.026 8.539,15.615 6.517,13.450 5.467 C 12.779 5.141,12.225 4.963,11.529 4.849 C 11.339 4.818,11.171 4.781,11.157 4.768 C 11.143 4.755,11.259 4.603,11.415 4.430 C 11.763 4.047,11.812 3.951,11.813 3.663 C 11.814 3.254,11.553 2.865,11.201 2.752 C 11.004 2.689,10.712 2.664,10.574 2.698 M9.546 10.597 C 9.048 10.732,8.485 11.091,8.173 11.472 C 7.991 11.694,7.769 12.116,7.687 12.398 C 7.556 12.843,7.530 14.718,7.648 15.241 C 7.879 16.264,8.558 16.996,9.533 17.273 C 9.628 17.300,9.879 17.315,10.217 17.313 C 10.700 17.312,10.778 17.303,11.050 17.220 C 11.463 17.095,11.765 16.925,12.055 16.654 C 12.482 16.258,12.775 15.719,12.893 15.117 C 12.960 14.776,12.968 13.147,12.905 12.768 C 12.855 12.466,12.728 12.085,12.588 11.817 C 12.437 11.527,11.888 10.986,11.583 10.827 C 11.191 10.622,10.925 10.563,10.317 10.547 C 9.863 10.535,9.748 10.542,9.546 10.597 M4.217 10.738 C 3.872 10.919,3.158 11.409,2.961 11.600 C 2.808 11.749,2.762 11.820,2.716 11.978 C 2.621 12.310,2.712 12.645,2.966 12.899 C 3.127 13.060,3.401 13.199,3.558 13.200 L 3.667 13.200 3.667 14.296 L 3.667 15.392 3.512 15.431 C 3.188 15.513,2.933 15.717,2.813 15.991 C 2.753 16.128,2.735 16.478,2.776 16.675 C 2.811 16.837,3.116 17.169,3.327 17.273 C 3.481 17.349,3.497 17.350,4.650 17.350 C 5.777 17.350,5.822 17.348,5.973 17.278 C 6.198 17.174,6.413 16.946,6.482 16.738 C 6.680 16.140,6.371 15.562,5.782 15.430 L 5.606 15.391 5.591 13.370 C 5.580 11.899,5.565 11.315,5.535 11.220 C 5.477 11.035,5.191 10.759,4.985 10.689 C 4.718 10.598,4.452 10.615,4.217 10.738 M10.656 12.545 C 10.710 12.573,10.793 12.668,10.843 12.760 L 10.933 12.926 10.933 13.902 C 10.933 14.827,10.930 14.887,10.863 15.024 C 10.750 15.257,10.603 15.347,10.309 15.362 C 9.999 15.377,9.803 15.309,9.674 15.141 L 9.583 15.022 9.573 13.943 L 9.562 12.863 9.647 12.719 C 9.765 12.517,9.917 12.464,10.321 12.483 C 10.452 12.489,10.603 12.517,10.656 12.545 " fill="#1A1C1F" stroke="none" fill-rule="evenodd"></path></svg>