<svg width="28" height="28" viewBox="0 0 28 28" fill="none" xmlns="http://www.w3.org/2000/svg"><path d="M5.169 7.048 C 4.682 7.169,4.183 7.553,3.976 7.964 C 3.717 8.479,3.730 8.143,3.744 14.123 L 3.757 19.628 3.915 19.940 C 4.093 20.290,4.473 20.682,4.748 20.799 C 5.022 20.914,5.372 20.999,5.577 20.998 C 6.002 20.997,6.408 20.752,9.520 18.614 C 12.239 16.747,13.019 16.224,13.046 16.250 C 13.058 16.262,13.088 17.015,13.112 17.924 C 13.162 19.768,13.182 19.899,13.475 20.260 C 13.822 20.690,14.241 20.931,14.727 20.982 C 15.259 21.037,15.417 20.952,17.873 19.299 C 21.007 17.189,23.349 15.528,23.761 15.123 C 24.126 14.764,24.186 14.604,24.186 14.000 C 24.186 13.125,24.142 13.074,22.073 11.613 C 19.182 9.570,15.882 7.326,15.517 7.156 C 15.334 7.071,15.203 7.048,14.910 7.047 C 14.705 7.047,14.459 7.069,14.365 7.095 C 14.097 7.169,13.648 7.495,13.461 7.750 C 13.177 8.137,13.160 8.249,13.112 10.075 C 13.088 10.984,13.057 11.738,13.044 11.751 C 13.008 11.788,12.131 11.197,8.027 8.371 C 6.581 7.376,6.309 7.202,6.058 7.114 C 5.815 7.028,5.379 6.996,5.169 7.048 M7.957 10.445 C 10.544 12.219,12.441 13.531,12.779 13.779 L 13.028 13.962 12.923 14.074 C 12.675 14.338,5.743 19.133,5.609 19.133 C 5.530 19.133,5.463 9.814,5.537 9.106 L 5.567 8.818 5.688 8.896 C 5.755 8.939,6.776 9.636,7.957 10.445 M17.220 10.376 C 19.802 12.152,21.926 13.629,22.205 13.841 L 22.407 13.995 21.972 14.317 C 21.416 14.729,19.107 16.343,16.777 17.950 L 14.957 19.205 14.928 18.154 C 14.888 16.697,14.880 10.389,14.917 9.529 C 14.938 9.038,14.963 8.833,14.999 8.854 C 15.027 8.870,16.027 9.555,17.220 10.376 " fill="#1A1C1F" stroke="none" fill-rule="evenodd"></path></svg>