<svg width="16" height="16" viewBox="0 0 16 16" fill="none" xmlns="http://www.w3.org/2000/svg"><path d="M7.053 4.015 C 7.024 4.022,6.935 4.040,6.855 4.057 C 6.652 4.098,6.515 4.162,6.218 4.353 C 5.543 4.788,3.565 6.159,2.918 6.640 C 2.484 6.963,2.355 7.115,2.220 7.462 C 2.160 7.619,2.151 7.680,2.150 7.973 C 2.149 8.372,2.204 8.588,2.374 8.845 C 2.558 9.126,2.727 9.258,4.267 10.324 C 5.736 11.343,6.457 11.821,6.625 11.890 C 6.758 11.944,6.844 11.958,7.108 11.968 C 7.678 11.988,7.922 11.895,8.310 11.509 C 8.668 11.152,8.751 10.953,8.795 10.337 C 8.808 10.166,8.825 10.020,8.834 10.011 C 8.849 9.995,9.384 10.345,9.960 10.747 C 10.561 11.166,11.380 11.706,11.577 11.812 C 12.026 12.053,12.496 12.056,12.987 11.818 C 13.265 11.684,13.579 11.371,13.715 11.093 C 13.881 10.754,13.880 10.770,13.880 7.907 L 13.880 5.320 13.804 5.113 C 13.611 4.590,13.193 4.203,12.674 4.069 C 12.475 4.017,12.062 4.014,11.876 4.064 C 11.669 4.119,11.489 4.225,10.720 4.745 C 10.331 5.008,9.753 5.400,9.436 5.615 C 9.118 5.830,8.845 5.998,8.829 5.988 C 8.812 5.978,8.800 5.878,8.800 5.747 C 8.800 5.494,8.750 5.198,8.672 4.994 C 8.516 4.584,8.072 4.202,7.600 4.070 C 7.443 4.027,7.141 3.996,7.053 4.015 M7.186 8.000 C 7.186 9.679,7.178 10.299,7.156 10.322 C 7.133 10.344,6.777 10.112,5.744 9.399 C 4.543 8.570,4.006 8.195,3.800 8.038 C 3.767 8.013,3.757 7.991,3.775 7.979 C 3.790 7.969,3.964 7.845,4.161 7.704 C 4.358 7.563,5.107 7.044,5.825 6.550 C 6.749 5.913,7.137 5.660,7.158 5.680 C 7.177 5.700,7.186 6.412,7.186 8.000 M12.262 7.136 C 12.268 7.921,12.264 8.966,12.253 9.457 C 12.237 10.225,12.228 10.348,12.195 10.335 C 12.124 10.308,9.597 8.550,9.097 8.180 L 8.847 7.996 9.030 7.861 C 9.295 7.668,10.642 6.728,11.480 6.152 C 11.933 5.841,12.210 5.667,12.226 5.683 C 12.241 5.698,12.256 6.267,12.262 7.136 " fill="#1A1C1F" stroke="none" fill-rule="evenodd"></path></svg>