<svg width="64" height="64" viewBox="0 0 64 64" fill="none" xmlns="http://www.w3.org/2000/svg"><path d="M29.412 16.305 C 28.675 16.695,22.997 20.504,18.347 23.728 C 9.267 30.024,9.106 30.149,8.809 31.150 C 8.597 31.862,8.597 32.135,8.809 32.861 C 8.943 33.321,9.104 33.561,9.593 34.027 C 10.499 34.890,18.325 40.355,26.127 45.571 L 29.801 48.028 30.582 47.962 C 31.025 47.924,31.536 47.806,31.762 47.690 C 32.263 47.431,33.124 46.552,33.277 46.144 C 33.349 45.954,33.432 43.951,33.494 40.929 C 33.549 38.231,33.618 36.000,33.646 35.971 C 33.733 35.884,35.043 36.745,40.107 40.218 C 47.928 45.582,50.804 47.532,51.168 47.719 C 51.610 47.945,52.813 47.949,53.467 47.726 C 54.023 47.536,54.780 46.799,55.137 46.099 C 55.360 45.662,55.360 45.654,55.360 31.964 L 55.360 18.267 55.086 17.777 C 54.731 17.141,53.895 16.394,53.358 16.233 C 52.730 16.045,51.749 16.080,51.253 16.307 C 50.730 16.547,47.484 18.725,40.960 23.215 C 34.893 27.389,33.701 28.190,33.643 28.132 C 33.618 28.107,33.549 25.884,33.490 23.192 C 33.430 20.500,33.336 18.127,33.280 17.920 C 33.065 17.122,31.680 16.171,30.542 16.039 C 30.105 15.989,29.933 16.029,29.412 16.305 M30.451 25.774 C 30.530 32.333,30.428 44.475,30.291 44.696 C 30.239 44.782,28.228 43.452,24.147 40.634 C 17.641 36.142,13.023 32.921,12.297 32.371 L 11.848 32.030 12.084 31.814 C 12.391 31.535,15.047 29.679,23.407 23.905 C 28.142 20.635,30.250 19.235,30.301 19.330 C 30.341 19.405,30.409 22.305,30.451 25.774 M52.331 26.881 C 52.406 34.650,52.307 44.800,52.155 44.800 C 51.943 44.800,34.955 33.016,34.053 32.244 L 33.707 31.947 34.747 31.208 C 40.574 27.070,52.088 19.192,52.177 19.281 C 52.222 19.326,52.291 22.746,52.331 26.881 " fill="#1A1C1F" stroke="none" fill-rule="evenodd"></path></svg>