<svg width="12" height="12" viewBox="0 0 12 12" fill="none" xmlns="http://www.w3.org/2000/svg"><path d="M6.262 1.630 C 6.186 1.664,4.762 3.088,4.668 3.223 C 4.616 3.299,4.610 3.322,4.610 3.468 C 4.611 3.733,4.630 3.762,5.285 4.429 C 5.898 5.056,6.146 5.285,6.270 5.342 C 6.371 5.389,6.579 5.392,6.705 5.348 C 6.830 5.306,6.967 5.181,7.030 5.052 C 7.098 4.912,7.103 4.720,7.041 4.592 C 7.018 4.545,6.905 4.405,6.790 4.281 C 6.674 4.156,6.580 4.047,6.580 4.037 C 6.580 4.010,6.635 4.016,6.860 4.071 C 7.286 4.173,7.576 4.295,7.896 4.506 C 8.470 4.886,8.884 5.426,9.100 6.078 C 9.201 6.381,9.228 6.622,9.214 7.079 C 9.201 7.496,9.182 7.582,8.981 8.149 C 8.903 8.369,8.829 8.599,8.817 8.660 C 8.795 8.764,8.797 8.779,8.849 8.895 C 8.970 9.165,9.279 9.345,9.511 9.282 C 9.787 9.208,10.023 8.894,10.189 8.381 C 10.340 7.913,10.407 7.480,10.406 6.980 C 10.405 6.583,10.376 6.361,10.272 5.957 C 10.073 5.185,9.717 4.572,9.147 4.020 C 8.800 3.684,8.500 3.476,8.030 3.246 C 7.701 3.086,7.481 3.014,7.034 2.922 L 6.677 2.849 6.828 2.680 C 7.037 2.446,7.086 2.350,7.085 2.179 C 7.083 1.955,6.965 1.757,6.770 1.655 C 6.663 1.599,6.363 1.584,6.262 1.630 " fill="#1A1C1F" stroke="none" fill-rule="evenodd"></path></svg>