<svg width="24" height="24" viewBox="0 0 24 24" fill="none" xmlns="http://www.w3.org/2000/svg"><path d="M9.638 3.170 C 9.379 3.325,9.176 3.604,9.138 3.858 C 9.099 4.122,9.201 4.375,9.501 4.749 C 9.643 4.927,9.760 5.089,9.760 5.108 C 9.760 5.128,9.604 5.167,9.414 5.194 C 8.895 5.269,8.076 5.491,7.579 5.692 C 6.506 6.125,5.749 6.619,4.906 7.439 C 3.737 8.575,3.005 9.921,2.654 11.580 C 2.551 12.067,2.544 12.163,2.543 13.100 C 2.542 14.042,2.549 14.130,2.653 14.620 C 2.949 16.008,3.534 17.219,4.420 18.275 C 4.799 18.727,5.057 18.938,5.328 19.019 C 5.587 19.096,5.783 19.065,6.047 18.905 C 6.503 18.630,6.672 18.106,6.450 17.660 C 6.417 17.594,6.242 17.351,6.060 17.120 C 5.294 16.142,4.862 15.299,4.658 14.379 C 4.571 13.991,4.536 12.733,4.597 12.200 C 4.658 11.672,4.845 11.093,5.161 10.460 C 5.890 8.997,7.091 7.951,8.622 7.445 C 9.094 7.288,9.896 7.123,9.944 7.171 C 9.972 7.199,9.926 7.262,9.592 7.660 C 9.467 7.809,9.332 7.996,9.292 8.075 C 9.195 8.270,9.199 8.649,9.300 8.858 C 9.540 9.354,10.149 9.572,10.618 9.331 C 10.835 9.219,11.337 8.741,12.302 7.730 C 12.828 7.179,13.230 6.724,13.278 6.624 C 13.386 6.402,13.386 6.080,13.280 5.859 C 13.106 5.502,10.922 3.286,10.579 3.120 C 10.463 3.063,10.333 3.040,10.136 3.040 C 9.892 3.040,9.829 3.057,9.638 3.170 M10.424 12.102 C 9.886 12.216,9.205 12.459,8.888 12.651 C 8.453 12.914,8.271 13.352,8.407 13.808 C 8.466 14.004,8.721 14.299,8.921 14.401 C 9.223 14.555,9.323 14.546,10.060 14.296 C 10.691 14.083,10.772 14.065,11.187 14.048 C 11.599 14.032,11.644 14.037,11.757 14.118 C 11.922 14.236,11.949 14.363,11.844 14.533 C 11.694 14.775,11.316 14.983,10.532 15.252 C 9.853 15.485,9.615 15.614,9.461 15.834 C 9.351 15.991,9.340 16.036,9.341 16.314 C 9.343 16.684,9.427 16.872,9.700 17.112 C 9.970 17.349,10.158 17.383,10.726 17.298 C 10.976 17.260,11.363 17.227,11.587 17.225 C 11.941 17.221,12.008 17.231,12.107 17.304 C 12.349 17.483,12.365 17.865,12.144 18.194 C 11.872 18.600,11.272 18.772,9.273 19.018 C 8.637 19.096,8.375 19.243,8.222 19.609 C 8.132 19.826,8.142 20.217,8.243 20.427 C 8.355 20.657,8.637 20.900,8.858 20.955 C 9.356 21.081,11.042 20.869,11.991 20.561 C 12.748 20.315,13.129 20.079,13.628 19.544 C 14.099 19.040,14.293 18.511,14.296 17.720 C 14.298 17.045,14.123 16.558,13.681 16.009 L 13.486 15.767 13.620 15.513 C 13.980 14.832,13.999 14.001,13.669 13.340 C 13.367 12.734,12.659 12.218,11.971 12.101 C 11.334 11.993,10.943 11.993,10.424 12.102 M17.829 12.081 C 16.936 12.222,16.117 12.919,15.762 13.842 C 15.529 14.446,15.501 14.728,15.501 16.460 C 15.502 18.195,15.535 18.530,15.760 19.114 C 16.110 20.021,16.820 20.658,17.760 20.906 C 18.160 21.012,18.892 21.002,19.298 20.886 C 20.320 20.595,21.055 19.823,21.359 18.720 C 21.458 18.359,21.519 17.450,21.519 16.320 C 21.519 14.884,21.424 14.270,21.095 13.603 C 20.777 12.956,20.125 12.388,19.440 12.159 C 19.235 12.090,19.062 12.069,18.620 12.058 C 18.312 12.050,17.956 12.061,17.829 12.081 M18.907 14.123 C 19.001 14.169,19.133 14.275,19.200 14.360 C 19.443 14.667,19.440 14.637,19.440 16.520 C 19.440 18.176,19.437 18.249,19.358 18.403 C 19.237 18.642,19.014 18.869,18.847 18.925 C 18.639 18.994,18.244 18.987,18.100 18.910 C 17.926 18.818,17.737 18.607,17.643 18.400 C 17.565 18.228,17.562 18.143,17.561 16.460 C 17.560 14.743,17.562 14.697,17.644 14.560 C 17.861 14.198,18.118 14.042,18.497 14.041 C 18.657 14.040,18.791 14.067,18.907 14.123 " fill="#1A1C1F" stroke="none" fill-rule="evenodd"></path></svg>