<svg width="28" height="28" viewBox="0 0 28 28" fill="none" xmlns="http://www.w3.org/2000/svg"><path d="M15.048 4.250 C 14.766 4.332,11.915 7.121,11.743 7.483 C 11.647 7.685,11.645 7.944,11.738 8.140 C 11.825 8.323,13.687 10.246,14.393 10.882 C 14.978 11.409,15.139 11.485,15.486 11.393 C 15.763 11.320,16.014 11.119,16.086 10.916 C 16.170 10.675,16.159 10.357,16.060 10.197 C 16.012 10.120,15.654 9.726,15.262 9.322 L 14.551 8.587 14.854 8.587 C 18.503 8.587,21.777 11.182,22.538 14.677 C 22.826 16.002,22.742 17.668,22.322 18.941 C 22.082 19.669,21.706 20.340,20.867 21.537 C 20.553 21.986,20.548 22.354,20.851 22.690 C 21.031 22.890,21.321 23.051,21.504 23.052 C 22.142 23.058,23.418 21.205,24.000 19.427 C 24.398 18.212,24.531 17.297,24.482 16.123 C 24.392 13.982,23.756 12.228,22.468 10.570 C 21.995 9.961,20.910 8.935,20.329 8.548 C 18.923 7.609,17.170 6.985,15.657 6.885 C 15.426 6.870,15.137 6.846,15.015 6.831 L 14.793 6.805 15.374 6.198 C 16.148 5.391,16.263 5.137,16.058 4.685 C 15.958 4.466,15.784 4.326,15.517 4.252 C 15.303 4.193,15.244 4.193,15.048 4.250 M14.194 13.951 C 13.205 14.194,12.300 14.968,11.948 15.874 C 11.720 16.461,11.693 16.749,11.692 18.667 C 11.692 20.159,11.703 20.468,11.772 20.767 C 11.946 21.524,12.237 22.038,12.782 22.550 C 13.431 23.161,14.070 23.393,15.120 23.397 C 15.835 23.399,16.242 23.312,16.823 23.029 C 17.633 22.635,18.282 21.840,18.501 20.971 C 18.731 20.064,18.714 16.900,18.476 16.118 C 18.323 15.615,18.084 15.230,17.667 14.812 C 17.357 14.501,17.211 14.396,16.847 14.218 C 16.583 14.090,16.258 13.974,16.044 13.931 C 15.547 13.833,14.636 13.843,14.194 13.951 M6.090 14.145 C 5.463 14.193,4.346 14.620,3.979 14.951 C 3.541 15.347,3.652 16.007,4.204 16.289 C 4.302 16.339,4.447 16.380,4.525 16.380 C 4.603 16.380,4.987 16.277,5.378 16.151 C 6.776 15.700,7.441 15.741,7.727 16.293 C 7.888 16.605,7.573 17.081,7.010 17.373 C 6.838 17.462,6.382 17.645,5.997 17.779 C 5.181 18.063,5.030 18.145,4.928 18.360 C 4.748 18.738,4.798 19.068,5.077 19.362 C 5.328 19.626,5.504 19.660,6.183 19.576 C 6.967 19.479,7.579 19.486,7.820 19.595 C 8.074 19.710,8.179 19.933,8.185 20.369 C 8.189 20.647,8.171 20.730,8.063 20.913 C 7.699 21.533,6.913 21.811,4.857 22.048 C 4.041 22.143,3.912 22.181,3.740 22.377 C 3.374 22.793,3.453 23.333,3.932 23.695 C 4.080 23.807,4.095 23.808,4.713 23.779 C 6.287 23.703,7.672 23.387,8.428 22.932 C 9.001 22.587,9.575 21.968,9.761 21.495 C 10.008 20.866,10.040 20.105,9.845 19.507 C 9.715 19.109,9.573 18.871,9.229 18.471 C 8.947 18.143,8.946 18.141,9.024 18.019 C 9.353 17.507,9.519 16.979,9.518 16.450 C 9.517 15.836,9.318 15.378,8.847 14.905 C 8.478 14.535,7.990 14.265,7.554 14.189 C 7.218 14.130,6.548 14.110,6.090 14.145 M15.730 15.634 C 16.225 15.728,16.595 15.992,16.765 16.373 C 16.934 16.754,16.988 19.785,16.838 20.510 C 16.728 21.041,16.395 21.434,15.924 21.589 C 15.559 21.708,14.685 21.711,14.349 21.594 C 13.873 21.429,13.575 21.060,13.490 20.533 C 13.362 19.738,13.392 17.078,13.535 16.509 C 13.634 16.115,14.055 15.754,14.548 15.637 C 14.794 15.579,15.433 15.578,15.730 15.634 " fill="#1A1C1F" stroke="none" fill-rule="evenodd"></path></svg>