<svg width="14" height="14" viewBox="0 0 14 14" fill="none" xmlns="http://www.w3.org/2000/svg"><path d="M7.402 1.889 C 7.360 1.899,7.281 1.937,7.227 1.974 C 7.042 2.097,5.547 3.631,5.435 3.812 C 5.326 3.989,5.360 4.263,5.517 4.475 C 5.642 4.643,6.492 5.515,6.901 5.895 C 7.289 6.256,7.341 6.284,7.593 6.272 C 7.815 6.262,7.924 6.217,8.066 6.075 C 8.209 5.932,8.263 5.811,8.264 5.632 C 8.266 5.413,8.196 5.290,7.883 4.960 L 7.621 4.684 7.724 4.701 C 7.903 4.729,8.367 4.850,8.530 4.911 C 8.781 5.006,9.166 5.217,9.381 5.377 C 9.904 5.768,10.373 6.404,10.577 7.000 C 10.704 7.372,10.743 7.628,10.743 8.108 C 10.744 8.389,10.733 8.603,10.713 8.692 C 10.697 8.769,10.592 9.105,10.482 9.438 C 10.257 10.118,10.237 10.243,10.330 10.418 C 10.445 10.638,10.688 10.797,10.943 10.820 C 11.118 10.836,11.258 10.773,11.423 10.602 C 11.767 10.246,12.060 9.353,12.111 8.511 C 12.135 8.118,12.108 7.578,12.051 7.282 C 11.756 5.752,10.815 4.511,9.438 3.837 C 8.958 3.601,8.555 3.470,8.075 3.393 C 7.954 3.373,7.840 3.349,7.823 3.339 C 7.799 3.326,7.843 3.264,7.990 3.102 C 8.234 2.832,8.269 2.766,8.269 2.562 C 8.270 2.430,8.257 2.382,8.189 2.248 C 8.100 2.074,7.967 1.953,7.822 1.916 C 7.686 1.881,7.486 1.868,7.402 1.889 " fill="#1A1C1F" stroke="none" fill-rule="evenodd"></path></svg>