<svg width="24" height="24" viewBox="0 0 24 24" fill="none" xmlns="http://www.w3.org/2000/svg"><path d="M9.640 3.168 C 9.379 3.325,9.176 3.604,9.138 3.858 C 9.099 4.122,9.201 4.375,9.501 4.749 C 9.643 4.927,9.760 5.089,9.760 5.108 C 9.760 5.128,9.604 5.167,9.414 5.194 C 8.895 5.269,8.076 5.491,7.579 5.692 C 6.506 6.125,5.749 6.619,4.906 7.439 C 3.737 8.575,3.005 9.921,2.654 11.580 C 2.551 12.067,2.544 12.163,2.543 13.100 C 2.542 14.042,2.549 14.130,2.653 14.620 C 2.949 16.008,3.534 17.219,4.420 18.275 C 4.799 18.727,5.057 18.938,5.328 19.019 C 5.587 19.096,5.783 19.065,6.047 18.905 C 6.503 18.630,6.672 18.106,6.450 17.660 C 6.417 17.594,6.242 17.351,6.060 17.120 C 5.294 16.142,4.862 15.299,4.658 14.379 C 4.571 13.991,4.536 12.733,4.597 12.200 C 4.658 11.672,4.845 11.093,5.161 10.460 C 5.890 8.997,7.091 7.951,8.622 7.445 C 9.094 7.288,9.896 7.123,9.944 7.171 C 9.972 7.199,9.926 7.262,9.592 7.660 C 9.286 8.024,9.220 8.167,9.222 8.460 C 9.228 9.213,10.028 9.671,10.677 9.293 C 10.882 9.173,12.449 7.623,12.947 7.048 C 13.284 6.658,13.360 6.501,13.360 6.192 C 13.360 5.949,13.249 5.757,12.840 5.295 C 12.420 4.820,10.899 3.332,10.673 3.175 C 10.529 3.076,10.463 3.058,10.183 3.047 C 9.877 3.036,9.848 3.042,9.640 3.168 " fill="#1A1C1F" stroke="none" fill-rule="evenodd"></path></svg>