<svg width="28" height="28" viewBox="0 0 28 28" fill="none" xmlns="http://www.w3.org/2000/svg"><path d="M14.902 4.438 C 14.811 4.464,14.485 4.731,14.062 5.126 C 13.193 5.935,11.662 7.522,11.587 7.690 C 11.511 7.861,11.513 8.137,11.591 8.324 C 11.680 8.536,14.471 11.335,14.761 11.502 C 15.044 11.666,15.347 11.652,15.636 11.461 C 15.972 11.238,16.115 10.699,15.920 10.383 C 15.872 10.306,15.514 9.913,15.122 9.508 L 14.411 8.773 14.637 8.773 C 14.994 8.774,15.900 8.863,16.321 8.940 C 17.132 9.087,18.331 9.593,19.111 10.119 C 20.333 10.940,21.279 12.053,21.887 13.383 C 22.390 14.482,22.555 15.261,22.557 16.543 C 22.559 17.552,22.467 18.227,22.228 18.967 C 22.010 19.642,21.511 20.614,21.040 21.280 C 20.831 21.575,20.622 21.901,20.575 22.003 C 20.348 22.495,20.618 23.032,21.173 23.196 C 21.479 23.286,21.716 23.173,22.113 22.748 C 22.883 21.923,23.609 20.549,24.009 19.160 C 24.398 17.807,24.457 16.156,24.169 14.723 C 23.735 12.564,22.446 10.486,20.687 9.105 C 19.186 7.927,17.169 7.163,15.293 7.062 C 14.991 7.045,14.734 7.017,14.722 6.999 C 14.711 6.980,14.962 6.688,15.280 6.350 C 15.598 6.012,15.891 5.665,15.932 5.579 C 16.083 5.261,15.968 4.777,15.697 4.588 C 15.430 4.401,15.187 4.356,14.902 4.438 " fill="#1A1C1F" stroke="none" fill-rule="evenodd"></path></svg>