<svg width="12" height="12" viewBox="0 0 12 12" fill="none" xmlns="http://www.w3.org/2000/svg"><path d="M5.085 1.646 C 4.875 1.756,4.750 1.956,4.751 2.180 C 4.752 2.346,4.806 2.449,5.012 2.680 L 5.163 2.849 4.894 2.903 C 4.365 3.008,4.119 3.090,3.706 3.297 C 2.650 3.828,1.883 4.770,1.580 5.908 C 1.469 6.323,1.435 6.574,1.434 6.980 C 1.432 7.408,1.467 7.689,1.570 8.089 C 1.651 8.403,1.713 8.571,1.836 8.809 C 1.949 9.028,2.127 9.220,2.252 9.256 C 2.368 9.290,2.536 9.286,2.651 9.246 C 2.781 9.203,2.943 9.039,2.988 8.908 C 3.047 8.733,3.034 8.656,2.841 8.083 C 2.743 7.790,2.652 7.480,2.639 7.395 C 2.604 7.171,2.626 6.545,2.676 6.310 C 2.786 5.805,3.030 5.359,3.417 4.956 C 3.850 4.505,4.314 4.235,4.906 4.089 C 5.205 4.016,5.260 4.008,5.260 4.040 C 5.260 4.051,5.186 4.138,5.095 4.235 C 4.800 4.548,4.750 4.634,4.752 4.823 C 4.757 5.178,5.149 5.470,5.489 5.371 C 5.634 5.329,5.708 5.266,6.298 4.688 C 7.232 3.773,7.309 3.659,7.209 3.324 C 7.182 3.233,7.132 3.173,6.773 2.796 C 6.261 2.258,5.684 1.704,5.576 1.645 C 5.460 1.582,5.208 1.582,5.085 1.646 M8.528 6.358 C 8.245 6.427,7.946 6.607,7.748 6.826 C 7.564 7.029,7.455 7.242,7.377 7.550 C 7.300 7.858,7.308 8.915,7.391 9.230 C 7.439 9.414,7.605 9.735,7.727 9.883 C 7.911 10.104,8.138 10.260,8.410 10.351 C 8.557 10.400,8.597 10.405,8.890 10.405 C 9.261 10.405,9.420 10.372,9.692 10.239 C 10.104 10.036,10.380 9.676,10.512 9.170 C 10.562 8.977,10.564 8.950,10.565 8.370 C 10.567 7.749,10.558 7.659,10.476 7.400 C 10.395 7.143,10.285 6.964,10.090 6.767 C 9.930 6.607,9.883 6.573,9.699 6.484 C 9.572 6.422,9.430 6.370,9.336 6.351 C 9.125 6.309,8.715 6.312,8.528 6.358 M5.148 6.532 C 4.553 6.912,4.410 7.053,4.386 7.286 C 4.355 7.588,4.582 7.870,4.905 7.930 L 4.980 7.944 4.980 8.602 L 4.980 9.260 4.933 9.260 C 4.856 9.260,4.605 9.397,4.551 9.467 C 4.465 9.579,4.434 9.679,4.433 9.840 C 4.433 10.033,4.479 10.137,4.624 10.273 C 4.713 10.357,4.753 10.380,4.832 10.393 C 4.886 10.402,5.240 10.410,5.620 10.410 C 6.239 10.410,6.317 10.406,6.381 10.375 C 6.502 10.314,6.595 10.223,6.649 10.113 C 6.824 9.756,6.636 9.354,6.257 9.276 L 6.140 9.252 6.140 8.021 L 6.140 6.790 6.081 6.688 C 6.003 6.552,5.863 6.430,5.751 6.402 C 5.702 6.390,5.600 6.380,5.524 6.380 C 5.385 6.380,5.385 6.380,5.148 6.532 M9.175 7.528 C 9.211 7.546,9.265 7.598,9.295 7.644 L 9.350 7.727 9.356 8.323 L 9.362 8.918 9.313 9.014 C 9.286 9.067,9.240 9.133,9.210 9.160 C 9.160 9.207,9.144 9.210,8.927 9.210 L 8.697 9.210 8.631 9.138 C 8.586 9.089,8.557 9.031,8.542 8.959 C 8.483 8.685,8.500 7.796,8.566 7.668 C 8.608 7.586,8.664 7.541,8.763 7.509 C 8.873 7.473,9.089 7.483,9.175 7.528 " fill="#1A1C1F" stroke="none" fill-rule="evenodd"></path></svg>