<svg width="12" height="12" viewBox="0 0 12 12" fill="none" xmlns="http://www.w3.org/2000/svg"><path d="M5.085 1.646 C 4.875 1.756,4.750 1.956,4.751 2.180 C 4.752 2.346,4.806 2.449,5.012 2.680 L 5.163 2.849 4.894 2.903 C 4.365 3.008,4.119 3.090,3.706 3.297 C 2.650 3.828,1.883 4.770,1.580 5.908 C 1.469 6.323,1.435 6.574,1.434 6.980 C 1.432 7.408,1.467 7.689,1.570 8.089 C 1.651 8.403,1.713 8.571,1.836 8.809 C 1.949 9.028,2.127 9.220,2.252 9.256 C 2.368 9.290,2.536 9.286,2.651 9.246 C 2.781 9.203,2.943 9.039,2.988 8.908 C 3.047 8.733,3.034 8.656,2.841 8.083 C 2.743 7.790,2.652 7.480,2.639 7.395 C 2.604 7.171,2.626 6.545,2.676 6.310 C 2.786 5.805,3.030 5.359,3.417 4.956 C 3.850 4.505,4.314 4.235,4.906 4.089 C 5.205 4.016,5.260 4.008,5.260 4.040 C 5.260 4.051,5.186 4.138,5.095 4.235 C 4.800 4.548,4.750 4.634,4.752 4.823 C 4.757 5.178,5.149 5.470,5.489 5.371 C 5.634 5.329,5.708 5.266,6.298 4.688 C 7.232 3.773,7.309 3.659,7.209 3.324 C 7.182 3.233,7.132 3.173,6.773 2.796 C 6.261 2.258,5.684 1.704,5.576 1.645 C 5.460 1.582,5.208 1.582,5.085 1.646 " fill="#1A1C1F" stroke="none" fill-rule="evenodd"></path></svg>