<svg width="14" height="14" viewBox="0 0 14 14" fill="none" xmlns="http://www.w3.org/2000/svg"><path d="M5.932 1.880 C 5.701 1.995,5.554 2.235,5.554 2.498 C 5.553 2.702,5.617 2.826,5.854 3.082 L 6.040 3.282 5.803 3.324 C 5.277 3.415,4.770 3.574,4.389 3.767 C 2.881 4.531,1.925 5.876,1.727 7.513 C 1.692 7.807,1.698 8.496,1.739 8.811 C 1.879 9.876,2.310 10.699,2.764 10.767 C 3.099 10.817,3.490 10.514,3.538 10.168 C 3.549 10.084,3.518 9.966,3.338 9.418 C 3.078 8.625,3.045 8.448,3.067 7.946 C 3.094 7.348,3.156 7.087,3.383 6.615 C 3.621 6.124,3.875 5.785,4.229 5.487 C 4.718 5.078,5.198 4.837,5.791 4.704 C 6.089 4.637,6.137 4.632,6.137 4.667 C 6.137 4.680,6.027 4.807,5.893 4.948 C 5.759 5.089,5.628 5.250,5.602 5.305 C 5.484 5.549,5.580 5.914,5.807 6.079 C 6.011 6.227,6.315 6.268,6.514 6.174 C 6.642 6.113,7.038 5.746,7.645 5.126 C 8.229 4.530,8.385 4.344,8.425 4.192 C 8.457 4.075,8.438 3.853,8.388 3.756 C 8.285 3.558,6.656 1.946,6.476 1.864 C 6.329 1.797,6.084 1.805,5.932 1.880 M5.623 7.313 C 5.268 7.392,4.832 7.587,4.688 7.731 C 4.505 7.914,4.454 8.236,4.571 8.466 C 4.632 8.586,4.784 8.738,4.905 8.799 C 5.077 8.887,5.158 8.881,5.563 8.752 C 5.866 8.655,5.964 8.633,6.101 8.633 C 6.280 8.633,6.365 8.669,6.340 8.734 C 6.315 8.798,6.227 8.837,5.833 8.959 C 5.395 9.093,5.178 9.191,5.113 9.282 C 5.088 9.317,5.050 9.401,5.028 9.469 C 4.916 9.809,5.130 10.186,5.501 10.302 C 5.623 10.341,5.637 10.340,5.876 10.295 C 6.355 10.203,6.434 10.204,6.487 10.302 C 6.630 10.570,6.262 10.737,5.332 10.827 C 4.849 10.873,4.750 10.904,4.589 11.057 C 4.442 11.196,4.400 11.299,4.401 11.515 C 4.402 11.631,4.417 11.734,4.440 11.788 C 4.495 11.918,4.653 12.075,4.790 12.137 C 5.105 12.279,6.193 12.138,6.830 11.873 C 7.356 11.654,7.739 11.231,7.854 10.740 C 7.881 10.625,7.888 10.513,7.880 10.329 C 7.870 10.101,7.861 10.062,7.790 9.922 C 7.709 9.762,7.442 9.467,7.351 9.439 C 7.279 9.416,7.292 9.373,7.421 9.224 C 7.664 8.942,7.737 8.687,7.666 8.367 C 7.551 7.848,7.130 7.420,6.633 7.314 C 6.439 7.273,5.807 7.272,5.623 7.313 M10.101 7.329 C 9.729 7.377,9.387 7.549,9.109 7.826 C 8.889 8.046,8.730 8.302,8.644 8.572 C 8.577 8.783,8.541 9.202,8.541 9.765 C 8.541 10.683,8.683 11.130,9.112 11.564 C 9.567 12.024,10.224 12.189,10.906 12.014 C 11.562 11.847,12.010 11.400,12.239 10.687 L 12.302 10.488 12.302 9.695 C 12.303 8.902,12.303 8.901,12.240 8.692 C 12.119 8.284,11.964 8.020,11.698 7.769 C 11.311 7.404,10.740 7.247,10.101 7.329 M10.682 8.721 C 10.733 8.748,10.797 8.812,10.838 8.879 L 10.908 8.992 10.908 9.682 C 10.908 10.336,10.906 10.377,10.860 10.465 C 10.799 10.582,10.696 10.653,10.536 10.688 C 10.314 10.738,10.119 10.675,10.000 10.516 C 9.953 10.452,9.952 10.425,9.952 9.675 C 9.952 8.974,9.956 8.894,9.993 8.837 C 10.102 8.671,10.466 8.610,10.682 8.721 " fill="#1A1C1F" stroke="none" fill-rule="evenodd"></path></svg>