<svg width="32" height="32" viewBox="0 0 32 32" fill="none" xmlns="http://www.w3.org/2000/svg"><path d="M5.867 8.076 C 5.097 8.291,4.618 8.766,4.353 9.578 C 4.272 9.825,4.265 10.396,4.279 16.140 L 4.293 22.432 4.474 22.789 C 4.684 23.201,5.111 23.634,5.451 23.780 C 5.808 23.932,6.227 24.015,6.487 23.986 C 6.963 23.932,7.655 23.500,11.547 20.820 C 13.765 19.292,14.884 18.546,14.913 18.575 C 14.926 18.588,14.958 19.460,14.984 20.513 C 15.037 22.593,15.049 22.679,15.361 23.114 C 15.855 23.801,16.746 24.136,17.471 23.906 C 17.925 23.762,19.741 22.570,23.733 19.794 C 27.433 17.221,27.558 17.108,27.655 16.240 C 27.743 15.447,27.476 14.889,26.747 14.347 C 25.003 13.050,18.145 8.364,17.684 8.155 C 17.437 8.042,16.746 8.017,16.417 8.108 C 16.111 8.193,15.598 8.565,15.384 8.858 C 15.059 9.299,15.040 9.427,14.985 11.515 C 14.957 12.553,14.923 13.415,14.908 13.430 C 14.872 13.466,13.815 12.760,10.835 10.707 C 7.239 8.230,7.168 8.186,6.726 8.085 C 6.293 7.986,6.193 7.985,5.867 8.076 M9.520 12.232 C 12.838 14.509,14.203 15.453,14.604 15.748 C 14.883 15.952,14.886 15.958,14.791 16.064 C 14.643 16.228,13.644 16.942,11.165 18.654 C 8.376 20.580,6.472 21.867,6.411 21.867 C 6.320 21.867,6.243 11.215,6.328 10.407 L 6.362 10.078 6.501 10.166 C 6.577 10.215,7.936 11.145,9.520 12.232 M19.680 11.859 C 22.631 13.889,25.058 15.576,25.377 15.819 L 25.608 15.994 25.111 16.362 C 24.437 16.859,22.381 18.297,19.488 20.295 L 17.083 21.956 17.048 20.356 C 17.003 18.290,17.003 12.118,17.048 10.970 C 17.073 10.351,17.101 10.094,17.142 10.118 C 17.174 10.137,18.316 10.920,19.680 11.859 " fill="#1A1C1F" stroke="none" fill-rule="evenodd"></path></svg>