<svg width="48" height="48" viewBox="0 0 48 48" fill="none" xmlns="http://www.w3.org/2000/svg"><path d="M22.280 11.111 C 22.148 11.145,21.950 11.219,21.840 11.277 C 20.883 11.780,5.954 22.132,5.301 22.746 C 4.785 23.231,4.655 24.167,5.002 24.893 C 5.205 25.315,6.983 26.603,14.560 31.814 C 20.464 35.875,21.961 36.865,22.283 36.926 C 22.972 37.055,23.790 36.793,24.194 36.313 C 24.720 35.688,24.695 35.935,24.741 30.895 C 24.764 28.374,24.804 26.290,24.830 26.264 C 24.886 26.207,26.133 27.038,30.564 30.087 C 36.773 34.359,39.913 36.485,40.365 36.723 C 40.881 36.994,41.298 37.026,41.856 36.836 C 42.320 36.678,42.866 36.213,43.020 35.845 C 43.217 35.374,43.287 31.198,43.263 21.440 C 43.237 11.367,43.303 12.328,42.586 11.630 C 42.101 11.159,41.528 10.984,40.889 11.112 C 40.347 11.221,40.007 11.443,32.680 16.479 C 26.711 20.582,24.895 21.802,24.840 21.746 C 24.818 21.725,24.765 19.617,24.722 17.063 C 24.677 14.438,24.609 12.329,24.565 12.212 C 24.469 11.961,23.930 11.411,23.624 11.252 C 23.345 11.108,22.599 11.029,22.280 11.111 " fill="#1A1C1F" stroke="none" fill-rule="evenodd"></path></svg>