<svg width="16" height="16" viewBox="0 0 16 16" fill="none" xmlns="http://www.w3.org/2000/svg"><path d="M6.780 2.147 C 6.605 2.236,6.443 2.418,6.385 2.591 C 6.332 2.750,6.331 2.977,6.382 3.098 C 6.431 3.214,6.631 3.476,6.785 3.626 L 6.907 3.745 6.473 3.830 C 4.895 4.143,3.662 4.963,2.793 6.280 C 2.218 7.151,1.873 8.431,1.931 9.480 C 1.991 10.551,2.301 11.586,2.688 12.004 C 2.947 12.284,3.168 12.359,3.464 12.269 C 3.613 12.224,3.678 12.186,3.786 12.081 C 3.941 11.929,4.053 11.714,4.053 11.563 C 4.053 11.504,3.961 11.180,3.841 10.816 C 3.724 10.463,3.603 10.071,3.572 9.947 C 3.435 9.400,3.473 8.641,3.668 8.035 C 3.754 7.770,3.983 7.299,4.153 7.039 C 4.588 6.375,5.309 5.814,6.105 5.521 C 6.299 5.449,6.875 5.307,6.970 5.307 C 6.994 5.307,7.013 5.319,7.013 5.335 C 7.013 5.350,6.890 5.492,6.738 5.651 C 6.587 5.809,6.440 5.985,6.413 6.043 C 6.383 6.104,6.358 6.224,6.352 6.333 C 6.343 6.503,6.350 6.535,6.431 6.693 C 6.499 6.824,6.553 6.888,6.651 6.954 C 6.901 7.122,7.221 7.163,7.445 7.056 C 7.590 6.986,8.042 6.569,8.735 5.862 C 9.398 5.185,9.582 4.965,9.629 4.791 C 9.666 4.657,9.643 4.403,9.585 4.291 C 9.482 4.090,7.636 2.249,7.431 2.141 C 7.381 2.115,7.261 2.093,7.133 2.087 C 6.943 2.077,6.905 2.084,6.780 2.147 M6.440 8.350 C 6.230 8.398,5.903 8.515,5.689 8.618 C 5.302 8.805,5.160 9.005,5.162 9.360 C 5.164 9.664,5.301 9.888,5.578 10.041 C 5.784 10.154,5.948 10.147,6.380 10.003 C 6.791 9.867,6.988 9.831,7.124 9.868 C 7.310 9.918,7.274 10.016,7.034 10.116 C 6.942 10.154,6.717 10.229,6.533 10.282 C 6.151 10.394,6.023 10.452,5.898 10.570 C 5.755 10.704,5.723 10.788,5.727 11.019 C 5.732 11.274,5.803 11.454,5.953 11.589 C 6.183 11.797,6.356 11.824,6.877 11.733 C 7.254 11.667,7.283 11.667,7.370 11.735 C 7.508 11.844,7.444 12.050,7.239 12.155 C 7.090 12.231,6.583 12.329,6.107 12.373 C 5.562 12.424,5.395 12.475,5.229 12.642 C 5.083 12.788,5.030 12.922,5.028 13.147 C 5.027 13.420,5.086 13.563,5.266 13.728 C 5.453 13.899,5.577 13.934,5.987 13.931 C 6.742 13.927,7.693 13.686,8.171 13.378 C 8.370 13.250,8.665 12.947,8.785 12.748 C 8.965 12.451,9.068 11.978,9.015 11.693 C 8.955 11.365,8.759 11.050,8.500 10.864 C 8.423 10.809,8.349 10.755,8.336 10.743 C 8.323 10.732,8.378 10.651,8.460 10.563 C 8.638 10.371,8.741 10.171,8.779 9.942 C 8.804 9.796,8.800 9.743,8.751 9.547 C 8.661 9.191,8.538 8.967,8.319 8.765 C 8.093 8.556,7.772 8.388,7.520 8.348 C 7.310 8.315,6.588 8.316,6.440 8.350 M11.290 8.426 C 10.641 8.596,10.071 9.157,9.868 9.826 C 9.803 10.039,9.761 10.568,9.761 11.173 C 9.761 12.209,9.926 12.725,10.414 13.213 C 10.656 13.455,10.845 13.576,11.145 13.683 C 11.700 13.879,12.318 13.841,12.867 13.577 C 13.584 13.232,13.977 12.623,14.056 11.733 C 14.094 11.306,14.071 10.352,14.017 10.053 C 13.869 9.246,13.202 8.539,12.456 8.400 C 12.206 8.353,11.507 8.369,11.290 8.426 M12.208 9.967 C 12.267 9.998,12.339 10.070,12.387 10.147 L 12.467 10.276 12.466 11.065 C 12.466 11.772,12.461 11.863,12.418 11.951 C 12.304 12.182,11.920 12.307,11.660 12.199 C 11.533 12.146,11.473 12.090,11.409 11.964 C 11.360 11.868,11.357 11.813,11.365 11.017 C 11.372 10.263,11.378 10.163,11.420 10.099 C 11.545 9.909,11.961 9.840,12.208 9.967 " fill="#1A1C1F" stroke="none" fill-rule="evenodd"></path></svg>