<svg width="12" height="12" viewBox="0 0 12 12" fill="none" xmlns="http://www.w3.org/2000/svg"><path d="M5.160 3.022 C 5.000 3.050,4.937 3.086,4.284 3.518 C 2.904 4.433,2.040 5.042,1.890 5.204 C 1.640 5.474,1.531 5.877,1.609 6.245 C 1.660 6.484,1.833 6.780,2.006 6.921 C 2.151 7.041,4.383 8.572,4.727 8.788 C 4.947 8.926,5.069 8.971,5.260 8.988 C 5.661 9.023,5.972 8.913,6.241 8.642 C 6.486 8.395,6.599 8.113,6.600 7.740 C 6.600 7.646,6.609 7.557,6.619 7.540 C 6.644 7.501,6.658 7.509,7.200 7.880 C 7.782 8.278,8.502 8.755,8.673 8.857 C 8.856 8.966,9.045 9.008,9.290 8.994 C 9.602 8.976,9.869 8.850,10.088 8.619 C 10.224 8.475,10.284 8.379,10.366 8.174 L 10.420 8.040 10.420 6.010 L 10.420 3.981 10.362 3.822 C 10.248 3.509,10.027 3.265,9.723 3.114 L 9.553 3.030 9.222 3.030 C 8.895 3.030,8.888 3.031,8.770 3.089 C 8.659 3.143,8.049 3.546,7.044 4.228 C 6.820 4.380,6.633 4.500,6.628 4.494 C 6.623 4.489,6.609 4.374,6.598 4.237 C 6.562 3.789,6.484 3.597,6.242 3.360 C 6.068 3.190,5.905 3.094,5.718 3.052 C 5.543 3.012,5.293 2.999,5.160 3.022 M5.370 4.275 C 5.412 4.381,5.401 7.760,5.359 7.760 C 5.314 7.760,3.176 6.283,2.904 6.065 L 2.819 5.996 2.944 5.902 C 3.078 5.801,3.932 5.206,4.740 4.650 C 5.010 4.464,5.253 4.297,5.280 4.277 C 5.343 4.232,5.352 4.232,5.370 4.275 M9.206 4.642 C 9.222 5.038,9.208 7.738,9.190 7.757 C 9.174 7.773,7.601 6.703,6.845 6.161 C 6.649 6.020,6.641 6.012,6.673 5.977 C 6.739 5.904,9.142 4.240,9.170 4.248 C 9.182 4.251,9.197 4.414,9.206 4.642 " fill="#1A1C1F" stroke="none" fill-rule="evenodd"></path></svg>