<svg width="20" height="20" viewBox="0 0 20 20" fill="none" xmlns="http://www.w3.org/2000/svg"><path d="M8.733 5.037 C 8.614 5.050,8.427 5.094,8.317 5.135 C 7.953 5.273,3.684 8.201,3.224 8.629 C 2.657 9.157,2.505 10.141,2.873 10.893 C 3.084 11.323,3.286 11.486,5.550 13.057 C 7.504 14.413,8.095 14.795,8.382 14.890 C 9.418 15.231,10.576 14.623,10.902 13.568 C 10.942 13.440,10.977 13.202,10.989 12.984 C 11.001 12.782,11.020 12.589,11.032 12.555 C 11.055 12.489,11.082 12.506,13.432 14.102 C 14.612 14.903,14.922 15.035,15.499 14.982 C 16.014 14.935,16.434 14.729,16.801 14.344 C 17.045 14.088,17.222 13.767,17.305 13.433 C 17.372 13.162,17.371 6.836,17.304 6.567 C 17.168 6.017,16.749 5.505,16.204 5.223 C 15.918 5.074,15.691 5.023,15.337 5.028 C 14.723 5.037,14.572 5.118,12.474 6.557 C 11.410 7.287,11.066 7.510,11.041 7.485 C 11.033 7.478,11.013 7.294,10.996 7.077 C 10.937 6.326,10.823 6.049,10.403 5.633 C 9.920 5.155,9.394 4.967,8.733 5.037 " fill="#1A1C1F" stroke="none" fill-rule="evenodd"></path></svg>