<svg width="14" height="14" viewBox="0 0 14 14" fill="none" xmlns="http://www.w3.org/2000/svg"><path d="M2.898 3.558 C 2.446 3.685,2.097 4.017,1.926 4.482 L 1.843 4.705 1.843 6.999 L 1.843 9.293 1.903 9.458 C 2.005 9.742,2.100 9.895,2.286 10.080 C 2.578 10.371,2.837 10.477,3.255 10.477 C 3.540 10.477,3.716 10.434,3.907 10.320 C 4.109 10.198,4.647 9.839,5.402 9.321 C 5.761 9.075,6.104 8.845,6.165 8.810 L 6.274 8.747 6.286 8.824 C 6.292 8.867,6.304 8.998,6.311 9.115 C 6.338 9.535,6.449 9.804,6.698 10.053 C 6.995 10.349,7.314 10.487,7.700 10.486 C 8.113 10.485,8.254 10.415,9.357 9.661 C 10.957 8.566,11.548 8.140,11.777 7.915 C 12.082 7.615,12.204 7.120,12.086 6.660 C 11.978 6.235,11.852 6.094,11.107 5.561 C 9.899 4.699,8.444 3.715,8.248 3.628 C 8.082 3.554,7.915 3.523,7.681 3.524 C 7.290 3.524,7.022 3.641,6.714 3.945 C 6.426 4.230,6.339 4.439,6.309 4.920 C 6.300 5.057,6.286 5.187,6.278 5.210 C 6.265 5.247,6.228 5.230,5.996 5.080 C 5.849 4.985,5.413 4.691,5.028 4.427 C 3.776 3.568,3.727 3.542,3.302 3.531 C 3.106 3.526,2.985 3.534,2.898 3.558 " fill="#1A1C1F" stroke="none" fill-rule="evenodd"></path></svg>