<svg width="28" height="28" viewBox="0 0 28 28" fill="none" xmlns="http://www.w3.org/2000/svg"><path d="M12.437 7.386 C 12.132 7.565,11.218 8.184,8.750 9.885 C 4.949 12.506,4.430 12.894,4.244 13.258 C 4.052 13.636,4.051 14.365,4.242 14.736 C 4.447 15.132,4.855 15.436,9.077 18.349 C 12.543 20.740,12.664 20.809,13.297 20.750 C 13.872 20.696,14.353 20.365,14.693 19.787 L 14.817 19.577 14.840 17.911 C 14.854 16.894,14.882 16.227,14.910 16.199 C 14.941 16.168,15.646 16.626,16.987 17.548 C 19.832 19.505,21.311 20.496,21.583 20.629 C 21.900 20.784,22.542 20.788,22.878 20.638 C 23.180 20.503,23.586 20.108,23.780 19.761 L 23.940 19.474 23.940 14.006 L 23.940 8.537 23.818 8.296 C 23.654 7.973,23.236 7.543,22.945 7.398 C 22.736 7.294,22.650 7.280,22.206 7.280 L 21.704 7.280 20.454 8.112 C 19.766 8.570,18.657 9.319,17.990 9.778 C 15.904 11.210,15.012 11.807,14.956 11.807 C 14.878 11.807,14.841 11.128,14.840 9.683 L 14.839 8.470 14.694 8.218 C 14.514 7.904,14.171 7.556,13.901 7.414 C 13.730 7.324,13.610 7.305,13.160 7.292 C 12.665 7.277,12.609 7.285,12.437 7.386 " fill="#1A1C1F" stroke="none" fill-rule="evenodd"></path></svg>