<svg width="28" height="28" viewBox="0 0 28 28" fill="none" xmlns="http://www.w3.org/2000/svg"><path d="M12.399 4.405 C 12.168 4.491,12.064 4.588,11.948 4.828 C 11.733 5.271,11.848 5.527,12.625 6.337 L 13.205 6.942 12.798 6.974 C 10.915 7.118,9.605 7.512,8.213 8.352 C 6.164 9.590,4.717 11.383,3.995 13.580 C 3.602 14.777,3.570 15.003,3.570 16.543 C 3.570 17.673,3.584 17.962,3.655 18.293 C 4.021 20.011,4.807 21.663,5.757 22.709 C 6.163 23.155,6.479 23.249,6.895 23.048 C 7.162 22.918,7.325 22.670,7.356 22.347 C 7.385 22.047,7.349 21.973,6.758 21.105 C 6.078 20.108,5.742 19.388,5.476 18.363 C 5.346 17.860,5.343 17.826,5.343 16.567 C 5.343 15.164,5.365 14.992,5.659 14.117 C 6.578 11.370,8.988 9.294,11.779 8.843 C 12.384 8.745,13.278 8.700,13.319 8.766 C 13.338 8.797,13.071 9.110,12.675 9.524 C 11.974 10.256,11.853 10.428,11.853 10.696 C 11.853 10.926,12.056 11.297,12.255 11.432 C 12.513 11.606,12.889 11.597,13.162 11.410 C 13.502 11.176,16.185 8.478,16.264 8.290 C 16.430 7.891,16.333 7.618,15.834 7.083 C 15.344 6.558,13.420 4.680,13.201 4.513 C 13.001 4.361,12.647 4.313,12.399 4.405 M11.533 14.120 C 10.809 14.312,10.089 14.639,9.886 14.869 C 9.682 15.100,9.687 15.623,9.895 15.916 C 10.013 16.081,10.340 16.240,10.561 16.240 C 10.655 16.240,10.948 16.159,11.211 16.060 C 11.907 15.800,12.140 15.753,12.747 15.751 C 13.286 15.750,13.293 15.751,13.470 15.894 C 13.735 16.107,13.790 16.246,13.716 16.511 C 13.639 16.785,13.357 17.073,12.978 17.264 C 12.822 17.343,12.392 17.510,12.023 17.636 C 11.188 17.921,11.089 17.972,10.941 18.195 C 10.769 18.454,10.750 18.655,10.871 18.928 C 10.996 19.212,11.107 19.332,11.343 19.438 C 11.520 19.518,11.555 19.518,12.215 19.436 C 13.141 19.320,13.499 19.323,13.775 19.447 C 14.051 19.571,14.148 19.750,14.176 20.186 C 14.202 20.583,14.116 20.788,13.804 21.076 C 13.364 21.481,12.693 21.679,11.066 21.884 C 10.119 22.003,9.953 22.036,9.802 22.136 C 9.489 22.344,9.361 22.842,9.535 23.178 C 9.629 23.359,9.906 23.603,10.064 23.643 C 10.131 23.659,10.492 23.661,10.868 23.647 C 11.562 23.620,12.375 23.502,13.039 23.331 C 14.992 22.828,16.046 21.637,15.946 20.047 C 15.904 19.379,15.732 18.969,15.241 18.371 C 15.098 18.196,14.980 18.023,14.980 17.987 C 14.980 17.951,15.046 17.815,15.126 17.684 C 15.586 16.936,15.616 15.912,15.198 15.199 C 14.910 14.707,14.116 14.157,13.536 14.047 C 13.399 14.021,12.991 14.001,12.629 14.002 C 12.081 14.004,11.896 14.024,11.533 14.120 M19.981 14.095 C 19.364 14.256,18.745 14.662,18.275 15.212 C 18.020 15.511,17.867 15.793,17.705 16.263 L 17.577 16.637 17.558 18.713 L 17.539 20.790 17.686 21.210 C 17.937 21.921,18.359 22.518,18.900 22.924 C 19.861 23.646,21.472 23.750,22.657 23.168 C 23.208 22.896,23.826 22.294,24.094 21.764 C 24.166 21.622,24.287 21.317,24.363 21.086 L 24.500 20.665 24.499 19.257 C 24.497 17.502,24.444 16.587,24.322 16.239 C 23.933 15.122,23.031 14.293,21.967 14.074 C 21.451 13.967,20.427 13.978,19.981 14.095 M21.640 15.779 C 22.182 15.873,22.587 16.251,22.680 16.748 C 22.706 16.890,22.727 17.802,22.727 18.839 L 22.727 20.679 22.602 20.944 C 22.428 21.311,22.108 21.619,21.791 21.724 C 21.489 21.825,20.588 21.838,20.255 21.748 C 19.994 21.677,19.687 21.459,19.532 21.236 C 19.335 20.952,19.314 20.678,19.329 18.581 L 19.343 16.629 19.483 16.404 C 19.778 15.930,20.196 15.731,20.903 15.728 C 21.145 15.727,21.476 15.750,21.640 15.779 " fill="#1A1C1F" stroke="none" fill-rule="evenodd"></path></svg>