<svg width="20" height="20" viewBox="0 0 20 20" fill="none" xmlns="http://www.w3.org/2000/svg"><path d="M8.500 2.753 C 8.337 2.823,8.110 3.053,8.011 3.247 C 7.938 3.389,7.928 3.444,7.940 3.664 C 7.956 3.986,8.004 4.081,8.333 4.446 C 8.480 4.608,8.600 4.752,8.600 4.766 C 8.600 4.779,8.461 4.809,8.292 4.833 C 7.138 4.990,5.907 5.537,4.931 6.326 C 4.574 6.614,3.955 7.267,3.706 7.618 C 2.387 9.478,2.060 11.786,2.799 14.004 C 3.079 14.845,3.436 15.317,3.881 15.437 C 4.161 15.513,4.544 15.384,4.794 15.130 C 5.007 14.914,5.048 14.820,5.047 14.550 C 5.046 14.347,5.011 14.213,4.775 13.517 C 4.416 12.460,4.383 12.297,4.384 11.567 C 4.386 10.742,4.511 10.182,4.850 9.483 C 5.117 8.934,5.335 8.629,5.782 8.181 C 6.383 7.579,7.025 7.185,7.816 6.934 C 8.150 6.828,8.766 6.688,8.790 6.712 C 8.797 6.720,8.666 6.873,8.498 7.054 C 8.038 7.549,7.933 7.727,7.933 8.016 C 7.933 8.388,8.131 8.697,8.476 8.864 C 8.768 9.004,8.932 9.020,9.217 8.933 L 9.450 8.861 10.452 7.855 C 11.721 6.583,11.984 6.283,12.033 6.053 C 12.083 5.821,12.045 5.565,11.935 5.392 C 11.804 5.185,10.759 4.096,9.996 3.370 C 9.513 2.911,9.307 2.736,9.230 2.721 C 9.038 2.683,8.621 2.701,8.500 2.753 " fill="#1A1C1F" stroke="none" fill-rule="evenodd"></path></svg>