<svg width="28" height="28" viewBox="0 0 28 28" fill="none" xmlns="http://www.w3.org/2000/svg"><path d="M12.450 4.433 C 12.237 4.497,12.053 4.658,11.951 4.868 C 11.736 5.312,11.839 5.550,12.599 6.364 C 12.907 6.694,13.148 6.982,13.133 7.005 C 13.119 7.028,12.993 7.047,12.852 7.047 C 11.850 7.047,10.274 7.400,9.263 7.852 C 5.882 9.364,3.686 12.569,3.516 16.240 C 3.413 18.465,4.248 20.976,5.647 22.647 C 5.912 22.964,6.128 23.133,6.355 23.201 C 6.871 23.356,7.452 22.763,7.357 22.179 C 7.342 22.083,7.240 21.878,7.132 21.724 C 6.306 20.549,5.859 19.715,5.606 18.877 C 5.358 18.051,5.345 17.937,5.344 16.590 C 5.343 15.521,5.357 15.273,5.431 14.957 C 5.637 14.077,6.097 13.018,6.617 12.227 C 6.965 11.699,8.145 10.512,8.657 10.177 C 9.115 9.877,10.322 9.279,10.733 9.147 C 11.365 8.946,12.488 8.773,13.169 8.773 L 13.448 8.773 12.745 9.504 C 12.029 10.247,11.853 10.499,11.853 10.780 C 11.853 11.013,12.026 11.329,12.225 11.461 C 12.464 11.619,12.812 11.656,13.048 11.547 C 13.287 11.437,16.174 8.550,16.267 8.328 C 16.352 8.125,16.351 7.880,16.266 7.676 C 16.166 7.436,13.338 4.623,13.064 4.490 C 12.843 4.383,12.669 4.367,12.450 4.433 " fill="#1A1C1F" stroke="none" fill-rule="evenodd"></path></svg>