<svg width="32" height="32" viewBox="0 0 32 32" fill="none" xmlns="http://www.w3.org/2000/svg"><path d="M14.200 5.073 C 13.851 5.174,13.548 5.615,13.547 6.023 C 13.546 6.274,13.764 6.593,14.398 7.273 C 14.751 7.650,15.026 7.980,15.010 8.006 C 14.994 8.032,14.837 8.053,14.661 8.053 C 13.787 8.053,12.522 8.289,11.475 8.647 C 8.150 9.783,5.609 12.361,4.544 15.680 C 3.800 17.996,3.823 20.175,4.618 22.558 C 5.150 24.156,6.440 26.156,7.137 26.466 C 7.671 26.703,8.275 26.320,8.407 25.659 C 8.468 25.352,8.375 25.142,7.836 24.370 C 7.004 23.179,6.442 21.943,6.177 20.720 C 6.130 20.503,6.108 19.939,6.107 18.960 C 6.107 17.738,6.122 17.455,6.207 17.093 C 6.358 16.448,6.643 15.667,6.970 15.001 C 8.001 12.908,9.924 11.251,12.217 10.484 C 12.968 10.233,14.269 10.027,15.104 10.027 L 15.369 10.027 14.565 10.862 C 13.665 11.797,13.514 12.030,13.567 12.411 C 13.633 12.893,13.953 13.204,14.441 13.262 C 14.633 13.285,14.759 13.267,14.912 13.197 C 15.185 13.071,18.485 9.771,18.591 9.518 C 18.682 9.299,18.685 8.987,18.598 8.785 C 18.518 8.601,16.634 6.650,15.747 5.833 C 14.879 5.034,14.678 4.935,14.200 5.073 " fill="#1A1C1F" stroke="none" fill-rule="evenodd"></path></svg>