<svg width="12" height="12" viewBox="0 0 12 12" fill="none" xmlns="http://www.w3.org/2000/svg"><path d="M6.262 1.630 C 6.186 1.664,4.762 3.088,4.668 3.223 C 4.616 3.299,4.610 3.322,4.610 3.468 C 4.611 3.733,4.630 3.762,5.285 4.429 C 5.898 5.056,6.146 5.285,6.270 5.342 C 6.371 5.389,6.579 5.392,6.705 5.348 C 6.830 5.306,6.967 5.181,7.030 5.052 C 7.098 4.912,7.103 4.720,7.041 4.592 C 7.018 4.545,6.905 4.405,6.790 4.281 C 6.674 4.156,6.580 4.047,6.580 4.037 C 6.580 4.010,6.635 4.016,6.860 4.071 C 7.286 4.173,7.576 4.295,7.896 4.506 C 8.470 4.886,8.882 5.423,9.101 6.078 C 9.204 6.387,9.228 6.606,9.211 7.086 C 9.196 7.525,9.183 7.583,8.984 8.141 C 8.907 8.356,8.834 8.581,8.822 8.641 C 8.789 8.799,8.830 8.924,8.964 9.070 C 9.135 9.258,9.332 9.328,9.528 9.271 C 9.864 9.174,10.133 8.724,10.299 7.980 C 10.553 6.848,10.351 5.669,9.744 4.740 C 9.557 4.453,9.403 4.268,9.147 4.020 C 8.800 3.684,8.500 3.476,8.030 3.246 C 7.701 3.086,7.481 3.014,7.034 2.922 L 6.677 2.849 6.828 2.680 C 7.037 2.446,7.086 2.350,7.085 2.179 C 7.083 1.955,6.965 1.757,6.770 1.655 C 6.663 1.599,6.363 1.584,6.262 1.630 M5.801 6.341 C 5.708 6.353,5.608 6.390,5.444 6.471 C 5.069 6.658,4.805 6.942,4.653 7.324 C 4.570 7.532,4.562 7.609,4.549 8.354 L 4.536 9.050 4.609 9.258 C 4.784 9.753,4.986 10.022,5.330 10.219 C 5.844 10.512,6.576 10.477,7.080 10.133 C 7.396 9.918,7.642 9.554,7.731 9.170 C 7.768 9.009,7.789 8.185,7.765 7.840 C 7.750 7.625,7.733 7.534,7.685 7.395 C 7.583 7.099,7.407 6.838,7.185 6.655 C 7.047 6.540,6.806 6.412,6.658 6.373 C 6.522 6.338,5.973 6.317,5.801 6.341 M2.470 6.471 C 2.261 6.591,1.892 6.837,1.786 6.929 C 1.419 7.246,1.619 7.852,2.117 7.932 L 2.200 7.945 2.200 8.603 L 2.200 9.260 2.143 9.260 C 2.045 9.260,1.805 9.394,1.738 9.486 C 1.520 9.787,1.633 10.201,1.984 10.382 C 2.053 10.417,2.109 10.420,2.787 10.420 L 3.516 10.420 3.643 10.335 C 3.793 10.234,3.887 10.105,3.922 9.950 C 3.987 9.659,3.745 9.313,3.445 9.268 L 3.360 9.255 3.360 8.032 L 3.360 6.809 3.285 6.681 C 3.163 6.473,3.010 6.384,2.770 6.382 C 2.639 6.380,2.619 6.386,2.470 6.471 M6.379 7.527 C 6.406 7.540,6.457 7.588,6.492 7.634 C 6.553 7.713,6.557 7.730,6.571 7.951 C 6.579 8.080,6.581 8.354,6.576 8.560 C 6.568 8.906,6.564 8.941,6.519 9.032 C 6.448 9.175,6.344 9.227,6.127 9.229 C 5.976 9.230,5.957 9.225,5.877 9.169 C 5.822 9.131,5.781 9.083,5.766 9.039 C 5.750 8.992,5.742 8.776,5.741 8.350 C 5.740 7.798,5.744 7.722,5.775 7.661 C 5.819 7.576,5.895 7.519,5.994 7.498 C 6.088 7.479,6.313 7.496,6.379 7.527 " fill="#1A1C1F" stroke="none" fill-rule="evenodd"></path></svg>