<svg width="14" height="14" viewBox="0 0 14 14" fill="none" xmlns="http://www.w3.org/2000/svg"><path d="M6.055 1.887 C 5.881 1.933,5.694 2.096,5.600 2.284 C 5.557 2.370,5.550 2.417,5.558 2.564 C 5.569 2.790,5.603 2.857,5.833 3.112 C 5.936 3.226,6.020 3.327,6.020 3.336 C 6.020 3.345,5.928 3.366,5.816 3.381 C 5.311 3.450,4.738 3.641,4.247 3.902 C 2.546 4.807,1.572 6.575,1.703 8.519 C 1.766 9.455,2.098 10.388,2.475 10.686 C 2.750 10.904,3.101 10.858,3.368 10.570 C 3.509 10.418,3.561 10.280,3.539 10.120 C 3.532 10.066,3.442 9.770,3.339 9.462 C 3.091 8.716,3.048 8.483,3.063 7.993 C 3.077 7.585,3.109 7.403,3.232 7.031 C 3.574 6.001,4.463 5.147,5.522 4.832 C 5.734 4.769,6.139 4.684,6.154 4.700 C 6.161 4.706,6.059 4.825,5.928 4.963 C 5.639 5.269,5.576 5.368,5.560 5.549 C 5.526 5.926,5.767 6.210,6.190 6.289 C 6.249 6.300,6.326 6.290,6.437 6.256 C 6.578 6.213,6.625 6.182,6.804 6.019 C 7.054 5.791,7.967 4.850,8.218 4.563 C 8.420 4.330,8.433 4.297,8.420 4.019 C 8.413 3.872,8.401 3.824,8.358 3.768 C 8.245 3.623,7.070 2.412,6.825 2.188 C 6.684 2.059,6.533 1.938,6.491 1.920 C 6.396 1.881,6.150 1.862,6.055 1.887 M9.997 7.396 C 9.852 7.427,9.542 7.552,9.426 7.626 C 9.254 7.735,8.968 8.019,8.848 8.200 C 8.594 8.579,8.525 8.991,8.549 9.975 C 8.565 10.630,8.592 10.772,8.773 11.142 C 9.006 11.618,9.343 11.909,9.847 12.067 C 10.001 12.115,10.066 12.122,10.395 12.120 C 10.819 12.119,10.953 12.092,11.258 11.948 C 11.722 11.730,12.017 11.381,12.218 10.815 L 12.284 10.628 12.292 9.791 L 12.299 8.954 12.239 8.741 C 12.056 8.101,11.636 7.644,11.047 7.447 C 10.935 7.409,10.823 7.397,10.499 7.387 C 10.275 7.381,10.049 7.384,9.997 7.396 M6.156 7.534 C 5.865 7.704,5.467 7.977,5.337 8.096 C 5.188 8.232,5.130 8.365,5.126 8.582 C 5.124 8.749,5.187 8.897,5.320 9.030 C 5.432 9.142,5.624 9.239,5.734 9.240 L 5.810 9.240 5.810 9.937 C 5.810 10.320,5.804 10.666,5.796 10.706 C 5.784 10.762,5.766 10.781,5.708 10.793 C 5.526 10.832,5.335 10.980,5.239 11.157 C 5.179 11.266,5.171 11.306,5.171 11.468 C 5.172 11.685,5.213 11.785,5.363 11.941 C 5.498 12.079,5.575 12.111,5.842 12.138 C 6.167 12.171,7.207 12.148,7.366 12.104 C 7.752 11.998,7.946 11.532,7.758 11.164 C 7.673 10.998,7.514 10.867,7.327 10.810 C 7.256 10.788,7.195 10.769,7.192 10.767 C 7.188 10.765,7.176 10.115,7.164 9.323 C 7.143 7.925,7.141 7.880,7.093 7.780 C 6.995 7.579,6.745 7.443,6.469 7.443 C 6.328 7.443,6.294 7.453,6.156 7.534 M10.714 8.792 C 10.864 8.884,10.896 8.981,10.920 9.408 C 10.948 9.890,10.920 10.359,10.855 10.505 C 10.781 10.672,10.619 10.757,10.372 10.756 C 10.214 10.756,10.082 10.691,10.002 10.575 L 9.936 10.480 9.944 9.725 C 9.951 9.051,9.956 8.963,9.993 8.907 C 10.080 8.774,10.215 8.725,10.468 8.736 C 10.587 8.741,10.657 8.757,10.714 8.792 " fill="#1A1C1F" stroke="none" fill-rule="evenodd"></path></svg>