<svg width="20" height="20" viewBox="0 0 20 20" fill="none" xmlns="http://www.w3.org/2000/svg"><path d="M4.380 5.032 C 3.956 5.097,3.567 5.299,3.250 5.616 C 2.998 5.869,2.845 6.122,2.715 6.506 L 2.633 6.745 2.633 10.000 L 2.633 13.255 2.714 13.493 C 2.962 14.223,3.380 14.663,4.024 14.876 C 4.399 15.000,4.662 15.020,5.003 14.952 C 5.372 14.877,5.619 14.743,6.574 14.096 C 9.047 12.420,8.944 12.487,8.968 12.554 C 8.980 12.588,9.000 12.776,9.013 12.971 C 9.038 13.375,9.098 13.639,9.222 13.895 C 9.586 14.648,10.558 15.123,11.381 14.950 C 11.787 14.865,11.881 14.811,13.333 13.823 C 15.471 12.368,16.637 11.531,16.842 11.304 C 17.250 10.853,17.420 10.191,17.284 9.581 C 17.115 8.822,16.982 8.700,14.250 6.811 C 12.820 5.822,11.929 5.240,11.693 5.143 C 11.524 5.073,11.412 5.053,11.114 5.041 C 10.897 5.032,10.670 5.041,10.564 5.064 C 10.267 5.127,9.921 5.320,9.652 5.572 C 9.229 5.966,9.082 6.267,9.029 6.847 C 9.011 7.051,8.988 7.280,8.979 7.358 L 8.963 7.499 8.840 7.436 C 8.772 7.401,8.432 7.177,8.083 6.938 C 6.832 6.080,5.713 5.337,5.500 5.223 C 5.194 5.058,4.727 4.978,4.380 5.032 M12.833 8.267 C 14.564 9.459,15.299 9.977,15.299 10.005 C 15.300 10.028,14.225 10.783,12.383 12.050 C 11.723 12.505,11.142 12.905,11.092 12.941 L 11.000 13.005 11.000 10.001 L 11.000 6.997 11.208 7.144 C 11.323 7.225,12.054 7.731,12.833 8.267 M5.229 7.407 C 6.616 8.343,8.932 9.967,8.933 10.004 C 8.934 10.040,5.881 12.174,5.017 12.743 L 4.717 12.940 4.696 12.695 C 4.668 12.358,4.662 8.383,4.689 7.675 C 4.701 7.345,4.724 7.100,4.742 7.100 C 4.760 7.100,4.979 7.238,5.229 7.407 " fill="#1A1C1F" stroke="none" fill-rule="evenodd"></path></svg>