<svg width="32" height="32" viewBox="0 0 32 32" fill="none" xmlns="http://www.w3.org/2000/svg"><path d="M17.031 5.072 C 16.666 5.177,13.380 8.438,13.232 8.841 C 13.182 8.978,13.170 9.126,13.196 9.297 C 13.231 9.534,13.291 9.611,14.184 10.551 C 15.293 11.720,16.677 13.053,16.921 13.187 C 17.203 13.341,17.721 13.269,17.973 13.040 C 18.123 12.905,18.293 12.506,18.293 12.292 C 18.293 11.957,18.164 11.773,17.301 10.884 L 16.453 10.010 17.147 10.048 C 18.989 10.150,20.449 10.631,21.951 11.634 C 22.668 12.112,23.659 13.084,24.174 13.813 C 24.852 14.775,25.417 16.061,25.654 17.186 C 25.806 17.904,25.806 20.075,25.655 20.759 C 25.382 21.990,24.907 23.041,24.031 24.344 C 23.603 24.982,23.465 25.230,23.437 25.416 C 23.364 25.903,23.685 26.366,24.193 26.508 C 24.393 26.564,24.462 26.561,24.664 26.484 C 25.170 26.290,26.068 25.112,26.698 23.813 C 27.264 22.646,27.638 21.389,27.791 20.139 C 27.870 19.487,27.827 17.990,27.708 17.280 C 27.113 13.718,24.910 10.777,21.635 9.170 C 20.365 8.546,19.158 8.216,17.736 8.101 C 16.653 8.013,16.677 8.085,17.454 7.264 C 17.821 6.877,18.160 6.478,18.207 6.378 C 18.381 6.013,18.251 5.460,17.940 5.243 C 17.634 5.030,17.356 4.978,17.031 5.072 M16.231 16.106 C 15.535 16.253,14.788 16.683,14.255 17.245 C 13.562 17.974,13.308 18.604,13.227 19.797 C 13.157 20.820,13.160 22.672,13.232 23.391 C 13.381 24.879,14.074 25.961,15.268 26.570 C 15.858 26.871,16.186 26.933,17.175 26.933 C 17.957 26.933,18.071 26.921,18.444 26.796 C 19.704 26.373,20.553 25.536,20.958 24.319 C 21.098 23.896,21.171 22.918,21.172 21.434 C 21.175 18.851,20.968 18.074,20.032 17.145 C 19.565 16.682,19.009 16.360,18.373 16.185 C 18.005 16.083,16.586 16.031,16.231 16.106 M7.748 16.377 C 7.545 16.438,5.349 17.548,4.873 17.830 C 4.302 18.169,4.099 18.506,4.185 18.973 C 4.234 19.234,4.634 19.630,4.945 19.722 C 5.142 19.781,5.208 19.776,5.497 19.679 C 5.678 19.618,6.063 19.449,6.352 19.304 C 6.641 19.159,6.911 19.040,6.951 19.040 C 7.050 19.040,7.093 20.222,7.093 22.909 L 7.093 25.000 5.978 25.023 L 4.864 25.045 4.637 25.202 C 4.242 25.476,4.109 25.982,4.314 26.427 C 4.505 26.841,4.600 26.886,5.397 26.945 C 5.811 26.976,7.236 26.985,8.822 26.967 L 11.537 26.937 11.733 26.806 C 12.263 26.456,12.260 25.542,11.727 25.190 C 11.529 25.058,11.496 25.055,10.295 25.026 L 9.067 24.997 9.067 20.998 C 9.067 17.037,9.066 16.998,8.955 16.819 C 8.741 16.472,8.151 16.256,7.748 16.377 M18.327 18.225 C 18.640 18.392,18.955 18.772,19.062 19.113 C 19.143 19.370,19.151 19.647,19.137 21.581 L 19.120 23.760 18.970 24.066 C 18.780 24.453,18.586 24.646,18.200 24.836 C 17.908 24.980,17.858 24.987,17.147 24.987 C 16.436 24.987,16.385 24.979,16.094 24.836 C 15.913 24.748,15.714 24.595,15.607 24.463 C 15.237 24.006,15.253 24.137,15.255 21.616 C 15.255 20.272,15.278 19.237,15.310 19.099 C 15.414 18.649,15.819 18.247,16.289 18.128 C 16.380 18.105,16.825 18.091,17.280 18.097 C 18.016 18.107,18.131 18.121,18.327 18.225 " fill="#1A1C1F" stroke="none" fill-rule="evenodd"></path></svg>