<svg width="14" height="14" viewBox="0 0 14 14" fill="none" xmlns="http://www.w3.org/2000/svg"><path d="M7.402 1.889 C 7.360 1.899,7.281 1.937,7.227 1.974 C 7.042 2.097,5.547 3.631,5.435 3.812 C 5.326 3.989,5.360 4.263,5.517 4.475 C 5.642 4.643,6.492 5.515,6.901 5.895 C 7.289 6.256,7.341 6.284,7.593 6.272 C 7.815 6.262,7.924 6.217,8.066 6.075 C 8.209 5.932,8.263 5.811,8.264 5.632 C 8.266 5.413,8.196 5.290,7.883 4.960 L 7.621 4.684 7.724 4.701 C 7.903 4.729,8.367 4.850,8.530 4.911 C 8.781 5.006,9.166 5.217,9.381 5.377 C 9.904 5.768,10.373 6.404,10.577 7.000 C 10.704 7.372,10.743 7.628,10.743 8.108 C 10.744 8.389,10.733 8.603,10.713 8.692 C 10.697 8.769,10.592 9.105,10.482 9.438 C 10.257 10.118,10.237 10.243,10.330 10.418 C 10.445 10.638,10.688 10.797,10.943 10.820 C 11.118 10.836,11.258 10.773,11.423 10.602 C 11.767 10.246,12.060 9.353,12.111 8.511 C 12.135 8.118,12.108 7.578,12.051 7.282 C 11.756 5.752,10.815 4.511,9.438 3.837 C 8.958 3.601,8.555 3.470,8.075 3.393 C 7.954 3.373,7.840 3.349,7.823 3.339 C 7.799 3.326,7.843 3.264,7.990 3.102 C 8.234 2.832,8.269 2.766,8.269 2.562 C 8.270 2.430,8.257 2.382,8.189 2.248 C 8.100 2.074,7.967 1.953,7.822 1.916 C 7.686 1.881,7.486 1.868,7.402 1.889 M6.673 7.417 C 6.325 7.517,6.110 7.641,5.862 7.886 C 5.390 8.351,5.275 8.779,5.305 9.952 C 5.319 10.539,5.344 10.710,5.459 11.006 C 5.555 11.255,5.673 11.433,5.874 11.629 C 6.085 11.836,6.259 11.950,6.509 12.043 C 6.707 12.117,6.712 12.118,7.140 12.118 L 7.572 12.118 7.802 12.033 C 8.452 11.795,8.822 11.375,9.001 10.672 C 9.063 10.425,9.065 10.403,9.064 9.777 C 9.062 9.055,9.033 8.807,8.913 8.497 C 8.814 8.239,8.727 8.113,8.484 7.874 C 8.326 7.719,8.222 7.639,8.084 7.567 C 7.805 7.422,7.677 7.395,7.222 7.383 C 6.883 7.375,6.803 7.379,6.673 7.417 M2.952 7.517 C 2.739 7.628,2.224 7.977,2.087 8.102 C 1.934 8.241,1.887 8.354,1.887 8.579 C 1.887 8.722,1.898 8.770,1.952 8.870 C 2.057 9.062,2.314 9.238,2.491 9.239 L 2.567 9.240 2.567 10.007 L 2.567 10.774 2.459 10.802 C 2.233 10.858,2.048 11.006,1.965 11.197 C 1.907 11.328,1.915 11.629,1.979 11.754 C 2.117 12.021,2.257 12.100,2.651 12.137 C 3.055 12.174,4.045 12.152,4.159 12.103 C 4.274 12.054,4.472 11.866,4.533 11.749 C 4.603 11.614,4.601 11.318,4.529 11.169 C 4.445 10.996,4.216 10.830,4.006 10.791 L 3.920 10.775 3.920 9.358 L 3.920 7.940 3.860 7.826 C 3.725 7.570,3.525 7.443,3.256 7.443 C 3.117 7.443,3.070 7.455,2.952 7.517 M7.458 8.781 C 7.498 8.801,7.555 8.867,7.591 8.934 L 7.655 9.052 7.648 9.760 L 7.642 10.469 7.576 10.568 C 7.490 10.698,7.363 10.756,7.163 10.756 C 6.978 10.756,6.842 10.699,6.764 10.590 L 6.708 10.512 6.709 9.742 C 6.709 9.203,6.718 8.953,6.737 8.909 C 6.769 8.836,6.853 8.775,6.960 8.748 C 7.071 8.719,7.379 8.740,7.458 8.781 " fill="#1A1C1F" stroke="none" fill-rule="evenodd"></path></svg>