<svg width="28" height="28" viewBox="0 0 28 28" fill="none" xmlns="http://www.w3.org/2000/svg"><path d="M12.591 7.112 C 12.353 7.197,11.942 7.459,10.453 8.474 C 7.407 10.550,4.733 12.437,4.308 12.810 C 4.158 12.942,4.016 13.124,3.936 13.289 C 3.822 13.524,3.806 13.610,3.806 14.000 C 3.806 14.388,3.822 14.476,3.934 14.706 C 4.089 15.025,4.191 15.131,4.760 15.562 C 5.591 16.191,9.549 18.939,11.187 20.025 C 12.509 20.900,12.663 20.977,13.090 20.975 C 13.620 20.971,13.902 20.860,14.276 20.507 C 14.453 20.340,14.640 20.114,14.692 20.003 C 14.835 19.698,14.886 19.187,14.893 17.975 C 14.896 17.367,14.912 16.716,14.928 16.528 L 14.957 16.187 17.033 17.621 C 19.933 19.623,21.449 20.636,21.808 20.813 C 22.175 20.993,22.444 21.032,22.781 20.953 C 23.385 20.812,23.837 20.452,24.112 19.892 L 24.243 19.623 24.243 14.023 L 24.243 8.423 24.075 8.073 C 23.876 7.661,23.601 7.373,23.241 7.200 C 23.037 7.102,22.894 7.072,22.556 7.056 C 22.175 7.038,22.101 7.049,21.879 7.151 C 21.575 7.292,20.465 8.027,18.130 9.636 C 15.887 11.182,14.986 11.782,14.955 11.750 C 14.941 11.736,14.911 10.972,14.888 10.051 C 14.855 8.755,14.830 8.332,14.775 8.178 C 14.608 7.710,14.196 7.311,13.699 7.137 C 13.398 7.031,12.852 7.019,12.591 7.112 M13.087 14.078 C 13.088 16.829,13.073 19.095,13.055 19.114 C 13.016 19.153,12.138 18.576,10.080 17.158 C 8.464 16.045,6.095 14.387,5.798 14.161 L 5.598 14.009 5.774 13.871 C 5.979 13.710,9.485 11.254,11.153 10.104 C 11.782 9.670,12.454 9.205,12.647 9.071 L 12.997 8.827 13.041 8.952 C 13.068 9.028,13.086 11.024,13.087 14.078 M22.471 14.023 C 22.488 16.590,22.484 18.802,22.463 18.939 L 22.423 19.188 20.930 18.173 C 19.211 17.005,16.671 15.249,15.820 14.641 C 15.247 14.232,14.941 13.974,14.982 13.938 C 15.006 13.917,18.609 11.428,20.463 10.150 C 21.131 9.691,21.834 9.205,22.027 9.071 L 22.377 8.827 22.408 9.092 C 22.425 9.237,22.454 11.457,22.471 14.023 " fill="#1A1C1F" stroke="none" fill-rule="evenodd"></path></svg>