<svg width="16" height="16" viewBox="0 0 16 16" fill="none" xmlns="http://www.w3.org/2000/svg"><path d="M3.321 4.057 C 3.123 4.103,2.841 4.261,2.661 4.425 C 2.444 4.625,2.297 4.853,2.189 5.158 L 2.107 5.391 2.107 8.001 L 2.107 10.611 2.196 10.861 C 2.382 11.381,2.734 11.741,3.221 11.907 C 3.451 11.986,3.724 12.011,3.960 11.975 C 4.228 11.934,4.521 11.777,5.246 11.286 C 7.241 9.934,7.155 9.990,7.174 10.043 C 7.184 10.071,7.200 10.221,7.210 10.377 C 7.244 10.908,7.363 11.202,7.672 11.510 C 7.994 11.833,8.473 12.024,8.882 11.991 C 9.282 11.959,9.421 11.895,10.166 11.395 C 11.869 10.253,13.198 9.311,13.429 9.081 C 13.893 8.619,13.995 7.874,13.680 7.252 C 13.550 6.995,13.412 6.871,12.680 6.346 C 11.391 5.422,9.713 4.293,9.417 4.151 L 9.187 4.040 8.800 4.041 C 8.440 4.041,8.402 4.046,8.240 4.114 C 8.017 4.208,7.864 4.310,7.687 4.483 C 7.385 4.780,7.263 5.041,7.223 5.478 C 7.209 5.640,7.190 5.825,7.183 5.888 L 7.170 6.003 7.051 5.936 C 6.985 5.900,6.503 5.577,5.979 5.218 C 4.549 4.240,4.336 4.110,4.085 4.057 C 3.919 4.021,3.472 4.021,3.321 4.057 M10.400 6.707 C 12.087 7.870,12.240 7.977,12.240 8.001 C 12.240 8.023,11.585 8.484,9.987 9.585 L 8.840 10.375 8.823 10.221 C 8.813 10.136,8.804 9.061,8.803 7.831 L 8.800 5.595 8.927 5.687 C 8.996 5.738,9.659 6.197,10.400 6.707 M4.320 6.023 C 5.017 6.496,6.666 7.639,6.929 7.832 L 7.150 7.994 6.995 8.113 C 6.646 8.380,3.883 10.305,3.807 10.334 C 3.753 10.355,3.733 9.731,3.733 7.960 C 3.733 6.346,3.753 5.647,3.797 5.672 C 3.814 5.681,4.049 5.839,4.320 6.023 " fill="#1A1C1F" stroke="none" fill-rule="evenodd"></path></svg>