<svg width="12" height="12" viewBox="0 0 12 12" fill="none" xmlns="http://www.w3.org/2000/svg"><path d="M2.575 3.019 C 2.410 3.049,2.285 3.100,2.135 3.198 C 1.895 3.355,1.746 3.541,1.631 3.829 L 1.580 3.957 1.580 5.998 L 1.580 8.039 1.641 8.193 C 1.830 8.668,2.226 8.965,2.710 8.993 C 2.970 9.009,3.139 8.968,3.357 8.838 C 3.523 8.739,4.219 8.276,4.998 7.747 C 5.274 7.560,5.370 7.504,5.383 7.524 C 5.392 7.538,5.400 7.625,5.400 7.716 C 5.401 8.157,5.566 8.510,5.886 8.752 C 6.041 8.869,6.178 8.933,6.353 8.970 C 6.614 9.025,6.858 9.002,7.072 8.902 C 7.321 8.786,9.786 7.094,10.041 6.865 C 10.278 6.652,10.403 6.356,10.404 5.999 C 10.406 5.660,10.306 5.399,10.100 5.200 C 9.930 5.037,8.894 4.300,7.757 3.535 C 7.055 3.063,6.947 3.013,6.619 3.014 C 6.254 3.014,6.013 3.111,5.766 3.355 C 5.525 3.595,5.434 3.798,5.410 4.155 C 5.404 4.251,5.394 4.369,5.388 4.416 L 5.377 4.502 5.284 4.448 C 5.232 4.418,4.952 4.230,4.660 4.030 C 3.694 3.366,3.299 3.112,3.156 3.065 C 3.007 3.016,2.719 2.993,2.575 3.019 M3.930 4.990 C 4.326 5.263,4.810 5.599,5.006 5.738 L 5.361 5.990 5.310 6.035 C 5.216 6.117,3.503 7.322,3.033 7.638 C 2.914 7.718,2.811 7.777,2.803 7.770 C 2.796 7.763,2.787 6.956,2.784 5.977 L 2.779 4.197 2.994 4.345 C 3.113 4.427,3.534 4.717,3.930 4.990 M7.850 5.056 C 9.171 5.964,9.214 5.995,9.177 6.030 C 9.113 6.091,6.636 7.782,6.626 7.772 C 6.607 7.754,6.593 5.079,6.609 4.634 L 6.624 4.218 6.677 4.253 C 6.706 4.271,7.234 4.633,7.850 5.056 " fill="#1A1C1F" stroke="none" fill-rule="evenodd"></path></svg>