<svg width="28" height="28" viewBox="0 0 28 28" fill="none" xmlns="http://www.w3.org/2000/svg"><path d="M12.450 4.433 C 12.237 4.497,12.053 4.658,11.951 4.868 C 11.736 5.312,11.839 5.550,12.599 6.364 C 12.907 6.694,13.148 6.982,13.133 7.005 C 13.119 7.028,12.993 7.047,12.852 7.047 C 11.850 7.047,10.274 7.400,9.263 7.852 C 5.882 9.364,3.686 12.569,3.516 16.240 C 3.413 18.465,4.248 20.976,5.647 22.647 C 5.912 22.964,6.128 23.133,6.355 23.201 C 6.871 23.356,7.452 22.763,7.357 22.179 C 7.342 22.083,7.240 21.878,7.132 21.724 C 6.306 20.549,5.859 19.715,5.606 18.877 C 5.358 18.051,5.345 17.937,5.344 16.590 C 5.343 15.521,5.357 15.273,5.431 14.957 C 5.637 14.077,6.097 13.018,6.617 12.227 C 6.965 11.699,8.145 10.512,8.657 10.177 C 9.115 9.877,10.322 9.279,10.733 9.147 C 11.365 8.946,12.488 8.773,13.169 8.773 L 13.448 8.773 12.745 9.504 C 12.029 10.247,11.853 10.499,11.853 10.780 C 11.853 11.013,12.026 11.329,12.225 11.461 C 12.464 11.619,12.812 11.656,13.048 11.547 C 13.287 11.437,16.174 8.550,16.267 8.328 C 16.352 8.125,16.351 7.880,16.266 7.676 C 16.166 7.436,13.338 4.623,13.064 4.490 C 12.843 4.383,12.669 4.367,12.450 4.433 M20.465 14.052 C 20.062 14.111,19.718 14.219,19.369 14.398 C 18.953 14.611,18.830 14.700,18.517 15.009 C 18.162 15.360,17.915 15.748,17.712 16.273 L 17.547 16.703 17.549 18.280 C 17.552 20.336,17.594 21.019,17.745 21.430 C 18.000 22.124,18.501 22.757,19.063 23.096 C 19.208 23.184,19.520 23.329,19.755 23.419 C 20.182 23.582,20.186 23.583,20.930 23.580 C 21.732 23.577,22.019 23.528,22.516 23.308 C 22.891 23.143,23.164 22.946,23.506 22.595 C 24.139 21.946,24.388 21.379,24.461 20.417 C 24.513 19.735,24.473 17.087,24.403 16.613 C 24.349 16.242,24.030 15.572,23.744 15.229 C 23.344 14.750,22.789 14.387,22.161 14.195 C 21.885 14.110,21.714 14.086,20.953 14.028 C 20.838 14.019,20.618 14.030,20.465 14.052 M11.363 14.999 C 10.619 15.392,9.945 15.777,9.866 15.854 C 9.700 16.016,9.588 16.358,9.631 16.574 C 9.689 16.862,10.011 17.167,10.364 17.268 C 10.558 17.323,10.894 17.210,11.625 16.844 L 12.180 16.566 12.180 19.220 L 12.180 21.873 11.234 21.897 C 10.382 21.918,10.268 21.931,10.089 22.022 C 9.617 22.263,9.525 22.925,9.908 23.326 C 10.197 23.628,10.029 23.613,13.200 23.613 L 16.091 23.613 16.302 23.409 C 16.514 23.203,16.613 22.980,16.613 22.706 C 16.613 22.508,16.441 22.182,16.264 22.047 C 16.114 21.933,16.090 21.930,15.036 21.901 L 13.961 21.872 13.945 18.414 L 13.930 14.957 13.814 14.754 C 13.656 14.478,13.393 14.330,13.014 14.304 L 12.717 14.284 11.363 14.999 M21.957 15.934 C 22.275 16.077,22.467 16.249,22.590 16.503 C 22.685 16.700,22.697 16.823,22.741 18.030 C 22.792 19.475,22.742 20.626,22.611 21.003 C 22.399 21.612,21.755 21.925,20.819 21.874 C 20.071 21.833,19.737 21.653,19.468 21.149 L 19.320 20.870 19.320 18.814 L 19.320 16.757 19.465 16.510 C 19.661 16.175,19.726 16.109,19.993 15.973 C 20.295 15.820,20.538 15.787,21.187 15.810 C 21.613 15.825,21.771 15.851,21.957 15.934 " fill="#1A1C1F" stroke="none" fill-rule="evenodd"></path></svg>