<svg width="16" height="16" viewBox="0 0 16 16" fill="none" xmlns="http://www.w3.org/2000/svg"><path d="M6.699 2.265 C 6.439 2.433,6.328 2.662,6.352 2.980 C 6.368 3.191,6.425 3.295,6.669 3.556 C 6.785 3.680,6.880 3.793,6.880 3.806 C 6.880 3.820,6.743 3.852,6.576 3.877 C 4.846 4.137,3.280 5.294,2.494 6.893 C 2.109 7.676,1.945 8.394,1.942 9.307 C 1.941 9.865,1.995 10.326,2.120 10.813 C 2.355 11.732,2.704 12.263,3.130 12.353 C 3.532 12.437,3.995 12.101,4.044 11.689 C 4.057 11.576,4.031 11.473,3.832 10.866 C 3.518 9.908,3.506 9.851,3.508 9.253 C 3.510 8.705,3.554 8.424,3.709 7.982 C 4.091 6.891,5.059 5.938,6.155 5.574 C 6.370 5.503,6.962 5.360,7.041 5.360 C 7.061 5.360,6.975 5.465,6.850 5.593 C 6.429 6.028,6.347 6.166,6.347 6.439 C 6.347 6.720,6.578 7.040,6.848 7.132 C 7.026 7.193,7.317 7.186,7.457 7.118 C 7.639 7.030,9.101 5.578,9.504 5.086 C 9.588 4.983,9.610 4.931,9.624 4.806 C 9.650 4.575,9.617 4.388,9.533 4.287 C 9.357 4.073,8.066 2.740,7.813 2.512 C 7.426 2.161,7.425 2.160,7.117 2.160 C 6.865 2.160,6.860 2.161,6.699 2.265 M11.434 8.454 C 11.004 8.521,10.432 8.898,10.160 9.293 C 10.033 9.477,9.901 9.781,9.837 10.032 C 9.791 10.216,9.779 10.362,9.768 10.893 C 9.746 11.912,9.798 12.281,10.027 12.760 C 10.181 13.081,10.628 13.527,10.950 13.681 C 11.234 13.817,11.409 13.849,11.880 13.850 C 12.377 13.850,12.523 13.820,12.893 13.640 C 13.411 13.388,13.737 12.998,13.963 12.360 L 14.038 12.147 14.047 11.190 L 14.056 10.233 13.987 9.990 C 13.779 9.259,13.295 8.733,12.627 8.512 C 12.440 8.450,11.693 8.414,11.434 8.454 M6.953 8.665 C 6.564 8.899,6.168 9.172,6.052 9.285 C 5.903 9.429,5.819 9.710,5.862 9.919 C 5.933 10.255,6.269 10.555,6.580 10.559 L 6.667 10.560 6.666 11.380 C 6.666 11.831,6.659 12.227,6.650 12.260 C 6.640 12.298,6.613 12.320,6.577 12.320 C 6.476 12.321,6.247 12.446,6.133 12.563 C 5.957 12.745,5.908 12.860,5.908 13.093 C 5.908 13.425,6.063 13.667,6.374 13.822 L 6.517 13.893 7.212 13.892 C 8.026 13.891,8.408 13.865,8.530 13.802 C 8.651 13.739,8.814 13.570,8.882 13.435 C 9.106 12.996,8.801 12.429,8.288 12.333 L 8.194 12.315 8.181 10.668 C 8.168 9.030,8.168 9.020,8.109 8.898 C 7.994 8.661,7.711 8.506,7.393 8.507 C 7.221 8.508,7.202 8.515,6.953 8.665 M12.244 10.047 C 12.294 10.079,12.362 10.152,12.395 10.210 C 12.524 10.440,12.531 11.722,12.405 12.008 C 12.322 12.195,12.136 12.293,11.861 12.293 C 11.679 12.293,11.534 12.226,11.440 12.099 L 11.360 11.989 11.362 11.215 C 11.362 10.789,11.373 10.382,11.384 10.311 C 11.409 10.159,11.519 10.033,11.656 9.999 C 11.819 9.957,12.142 9.984,12.244 10.047 " fill="#1A1C1F" stroke="none" fill-rule="evenodd"></path></svg>