<svg width="24" height="24" viewBox="0 0 24 24" fill="none" xmlns="http://www.w3.org/2000/svg"><path d="M9.640 3.168 C 9.379 3.325,9.176 3.604,9.138 3.858 C 9.099 4.122,9.201 4.375,9.501 4.749 C 9.643 4.927,9.760 5.089,9.760 5.108 C 9.760 5.128,9.604 5.167,9.414 5.194 C 8.895 5.269,8.076 5.491,7.579 5.692 C 6.506 6.125,5.749 6.619,4.906 7.439 C 3.737 8.575,3.005 9.921,2.654 11.580 C 2.551 12.067,2.544 12.163,2.543 13.100 C 2.542 14.042,2.549 14.130,2.653 14.620 C 2.949 16.008,3.534 17.219,4.420 18.275 C 4.799 18.727,5.057 18.938,5.328 19.019 C 5.587 19.096,5.783 19.065,6.047 18.905 C 6.503 18.630,6.672 18.106,6.450 17.660 C 6.417 17.594,6.242 17.351,6.060 17.120 C 5.294 16.142,4.862 15.299,4.658 14.379 C 4.571 13.991,4.536 12.733,4.597 12.200 C 4.658 11.672,4.845 11.093,5.161 10.460 C 5.890 8.997,7.091 7.951,8.622 7.445 C 9.094 7.288,9.896 7.123,9.944 7.171 C 9.972 7.199,9.926 7.262,9.592 7.660 C 9.286 8.024,9.220 8.167,9.222 8.460 C 9.228 9.213,10.028 9.671,10.677 9.293 C 10.882 9.173,12.449 7.623,12.947 7.048 C 13.284 6.658,13.360 6.501,13.360 6.192 C 13.360 5.949,13.249 5.757,12.840 5.295 C 12.420 4.820,10.899 3.332,10.673 3.175 C 10.529 3.076,10.463 3.058,10.183 3.047 C 9.877 3.036,9.848 3.042,9.640 3.168 M17.829 12.081 C 16.936 12.222,16.117 12.919,15.762 13.842 C 15.529 14.446,15.501 14.728,15.501 16.460 C 15.502 18.195,15.535 18.530,15.760 19.114 C 16.110 20.021,16.820 20.658,17.760 20.906 C 18.160 21.012,18.892 21.002,19.298 20.886 C 20.320 20.595,21.055 19.823,21.359 18.720 C 21.458 18.359,21.519 17.450,21.519 16.320 C 21.519 14.884,21.424 14.270,21.095 13.603 C 20.777 12.956,20.125 12.388,19.440 12.159 C 19.235 12.090,19.062 12.069,18.620 12.058 C 18.312 12.050,17.956 12.061,17.829 12.081 M11.213 12.158 C 11.040 12.200,10.826 12.329,9.940 12.922 C 8.992 13.557,8.786 13.722,8.655 13.945 C 8.563 14.102,8.553 14.155,8.566 14.434 C 8.578 14.697,8.599 14.777,8.701 14.942 C 9.023 15.463,9.579 15.534,10.250 15.139 L 10.480 15.003 10.480 16.996 L 10.480 18.988 9.865 19.010 C 9.217 19.034,9.133 19.055,8.852 19.269 C 8.676 19.403,8.520 19.729,8.520 19.963 C 8.520 20.339,8.716 20.684,9.036 20.872 L 9.220 20.980 11.500 20.980 L 13.780 20.980 13.964 20.872 C 14.284 20.684,14.480 20.339,14.480 19.963 C 14.480 19.729,14.324 19.403,14.148 19.269 C 13.864 19.054,13.784 19.033,13.118 19.010 L 12.487 18.988 12.470 15.944 C 12.457 13.773,12.439 12.858,12.406 12.755 C 12.356 12.602,12.027 12.263,11.871 12.205 C 11.726 12.151,11.352 12.124,11.213 12.158 M18.907 14.123 C 19.001 14.169,19.133 14.275,19.200 14.360 C 19.443 14.667,19.440 14.637,19.440 16.520 C 19.440 18.176,19.437 18.249,19.358 18.403 C 19.237 18.642,19.014 18.869,18.847 18.925 C 18.639 18.994,18.244 18.987,18.100 18.910 C 17.926 18.818,17.737 18.607,17.643 18.400 C 17.565 18.228,17.562 18.143,17.561 16.460 C 17.560 14.743,17.562 14.697,17.644 14.560 C 17.861 14.198,18.118 14.042,18.497 14.041 C 18.657 14.040,18.791 14.067,18.907 14.123 " fill="#1A1C1F" stroke="none" fill-rule="evenodd"></path></svg>