<svg width="32" height="32" viewBox="0 0 32 32" fill="none" xmlns="http://www.w3.org/2000/svg"><path d="M17.214 4.838 C 16.948 4.879,13.860 7.891,13.485 8.477 C 13.303 8.762,13.291 8.999,13.444 9.314 C 13.669 9.780,16.834 12.893,17.207 13.016 C 17.616 13.151,18.179 12.909,18.364 12.518 C 18.472 12.291,18.479 11.951,18.381 11.718 C 18.341 11.624,17.927 11.153,17.461 10.671 L 16.613 9.796 17.280 9.833 C 19.019 9.931,20.185 10.268,21.551 11.069 C 22.601 11.685,23.644 12.634,24.334 13.601 C 25.023 14.568,25.634 15.985,25.843 17.101 C 25.916 17.489,25.927 17.815,25.906 18.959 C 25.883 20.236,25.869 20.391,25.740 20.899 C 25.476 21.933,24.958 23.019,24.231 24.061 C 23.978 24.424,23.724 24.826,23.666 24.955 C 23.470 25.392,23.645 25.910,24.071 26.155 C 24.660 26.494,25.050 26.329,25.721 25.456 C 27.366 23.318,28.201 20.475,27.950 17.867 C 27.716 15.434,26.901 13.491,25.355 11.683 C 23.466 9.472,20.561 8.005,17.787 7.862 C 17.493 7.847,17.174 7.822,17.078 7.808 L 16.903 7.781 17.595 7.058 C 18.330 6.289,18.454 6.105,18.452 5.779 C 18.450 5.333,18.175 4.982,17.733 4.860 C 17.518 4.800,17.477 4.798,17.214 4.838 M16.720 15.843 C 15.849 15.958,15.035 16.359,14.453 16.960 C 13.769 17.667,13.464 18.406,13.385 19.547 C 13.319 20.506,13.322 22.207,13.391 23.020 C 13.505 24.346,13.727 24.878,14.482 25.635 C 14.899 26.052,15.041 26.157,15.471 26.363 C 16.139 26.683,16.420 26.740,17.280 26.736 C 18.126 26.731,18.548 26.645,19.173 26.346 C 20.029 25.938,20.686 25.213,21.062 24.263 C 21.228 23.842,21.239 23.769,21.283 22.830 C 21.308 22.285,21.330 21.212,21.331 20.444 L 21.333 19.048 21.167 18.578 C 20.830 17.621,20.476 17.075,19.926 16.658 C 19.066 16.007,17.838 15.695,16.720 15.843 M6.960 16.156 C 6.511 16.214,5.918 16.386,5.387 16.613 C 4.449 17.014,4.236 17.245,4.277 17.815 C 4.294 18.047,4.336 18.171,4.447 18.316 C 4.798 18.776,5.079 18.814,5.952 18.516 C 6.883 18.198,7.187 18.133,7.738 18.133 C 8.128 18.133,8.281 18.157,8.459 18.243 C 9.160 18.582,8.944 19.386,8.027 19.852 C 7.851 19.942,7.352 20.142,6.918 20.297 C 6.484 20.452,6.025 20.640,5.898 20.715 C 5.367 21.025,5.368 21.793,5.898 22.230 C 6.175 22.458,6.316 22.475,7.094 22.372 C 8.841 22.140,9.304 22.305,9.374 23.182 C 9.397 23.469,9.381 23.558,9.258 23.808 C 8.873 24.596,7.952 24.929,5.333 25.227 C 4.623 25.307,4.461 25.361,4.274 25.573 C 3.846 26.060,3.996 26.849,4.567 27.120 C 4.741 27.203,4.857 27.210,5.457 27.178 C 7.925 27.048,9.650 26.480,10.551 25.500 C 11.430 24.543,11.655 23.076,11.102 21.896 C 11.018 21.715,10.789 21.385,10.594 21.161 C 10.399 20.938,10.240 20.742,10.240 20.725 C 10.240 20.709,10.327 20.559,10.434 20.393 C 10.699 19.978,10.820 19.606,10.859 19.083 C 10.922 18.245,10.680 17.562,10.123 17.004 C 9.766 16.646,9.107 16.303,8.613 16.219 C 8.149 16.140,7.330 16.109,6.960 16.156 M18.037 17.873 C 18.583 17.989,18.961 18.272,19.169 18.719 C 19.276 18.952,19.280 19.035,19.276 21.253 C 19.271 23.774,19.276 23.727,18.934 24.159 C 18.556 24.636,17.953 24.839,17.072 24.786 C 16.272 24.738,15.819 24.480,15.526 23.906 C 15.430 23.717,15.418 23.543,15.385 21.863 C 15.346 19.862,15.397 18.864,15.552 18.620 C 15.779 18.261,16.085 18.039,16.560 17.888 C 16.829 17.803,17.665 17.794,18.037 17.873 " fill="#1A1C1F" stroke="none" fill-rule="evenodd"></path></svg>