<svg width="24" height="24" viewBox="0 0 24 24" fill="none" xmlns="http://www.w3.org/2000/svg"><path d="M4.639 6.095 C 4.157 6.281,3.735 6.610,3.493 6.989 C 3.208 7.434,3.220 7.214,3.220 11.980 C 3.220 16.506,3.218 16.465,3.407 16.866 C 3.507 17.078,3.878 17.492,4.117 17.658 C 4.628 18.012,5.426 18.089,5.951 17.835 C 6.184 17.722,7.446 16.883,9.220 15.662 C 10.647 14.680,10.896 14.522,10.944 14.571 C 10.958 14.584,10.984 14.997,11.002 15.488 C 11.037 16.443,11.059 16.569,11.254 16.940 C 11.618 17.632,12.494 18.083,13.259 17.973 C 13.421 17.950,13.640 17.889,13.747 17.838 C 13.981 17.725,15.865 16.466,17.660 15.221 C 20.348 13.358,20.448 13.271,20.685 12.617 C 20.806 12.285,20.806 11.715,20.685 11.383 C 20.492 10.849,20.304 10.650,19.346 9.965 C 17.772 8.840,14.158 6.383,13.783 6.183 C 13.599 6.086,13.555 6.080,13.010 6.080 L 12.432 6.080 12.112 6.247 C 11.765 6.427,11.476 6.681,11.298 6.962 C 11.087 7.295,11.043 7.530,11.000 8.530 C 10.979 9.037,10.952 9.461,10.941 9.472 C 10.916 9.498,10.355 9.126,8.652 7.955 C 6.820 6.695,6.262 6.328,5.961 6.186 C 5.725 6.075,5.658 6.063,5.241 6.052 C 4.923 6.044,4.736 6.058,4.639 6.095 M15.080 9.440 C 17.445 11.070,18.720 11.965,18.720 11.998 C 18.720 12.046,18.040 12.526,15.240 14.458 C 14.129 15.225,13.171 15.886,13.110 15.929 L 13.000 16.005 13.000 11.999 L 13.000 7.993 13.190 8.131 C 13.295 8.207,14.145 8.796,15.080 9.440 M7.695 9.727 C 10.369 11.572,10.920 11.960,10.919 11.996 C 10.919 12.038,10.309 12.473,8.560 13.682 C 7.625 14.328,6.500 15.106,6.060 15.411 L 5.260 15.964 5.235 15.712 C 5.202 15.386,5.192 8.040,5.225 8.040 C 5.238 8.040,6.350 8.799,7.695 9.727 " fill="#1A1C1F" stroke="none" fill-rule="evenodd"></path></svg>