<svg width="14" height="14" viewBox="0 0 14 14" fill="none" xmlns="http://www.w3.org/2000/svg"><path d="M5.938 3.556 C 5.887 3.572,5.779 3.619,5.699 3.660 C 5.510 3.756,4.577 4.380,3.617 5.052 C 2.255 6.006,2.141 6.100,2.008 6.380 C 1.777 6.867,1.846 7.501,2.170 7.869 C 2.329 8.050,2.868 8.443,4.378 9.479 C 5.289 10.104,5.568 10.286,5.747 10.373 C 6.453 10.714,7.377 10.295,7.623 9.523 C 7.660 9.407,7.683 9.265,7.692 9.091 C 7.700 8.948,7.714 8.812,7.723 8.788 C 7.739 8.741,7.657 8.688,9.397 9.867 C 10.232 10.432,10.428 10.519,10.815 10.492 C 11.389 10.453,11.879 10.072,12.087 9.501 L 12.162 9.298 12.149 6.988 C 12.140 5.417,12.128 4.645,12.110 4.573 C 12.053 4.343,11.925 4.128,11.728 3.932 C 11.410 3.615,11.113 3.507,10.628 3.528 C 10.405 3.538,10.376 3.545,10.194 3.636 C 10.086 3.689,9.720 3.921,9.380 4.151 C 9.040 4.381,8.533 4.724,8.254 4.914 C 7.975 5.103,7.740 5.251,7.732 5.243 C 7.725 5.236,7.708 5.096,7.696 4.934 C 7.659 4.429,7.555 4.191,7.245 3.901 C 7.062 3.730,6.862 3.618,6.638 3.559 C 6.471 3.516,6.071 3.514,5.938 3.556 M6.283 5.707 C 6.304 6.573,6.283 9.009,6.254 9.039 C 6.230 9.063,3.290 7.044,3.290 7.003 C 3.290 6.970,6.206 4.948,6.242 4.957 C 6.256 4.960,6.272 5.245,6.283 5.707 M10.728 6.673 C 10.732 7.578,10.727 8.485,10.717 8.688 L 10.698 9.058 10.453 8.897 C 9.930 8.551,8.018 7.214,7.830 7.063 C 7.792 7.032,7.770 6.996,7.779 6.981 C 7.798 6.950,8.779 6.255,9.718 5.607 C 10.744 4.900,10.671 4.946,10.698 4.990 C 10.713 5.014,10.724 5.630,10.728 6.673 " fill="#1A1C1F" stroke="none" fill-rule="evenodd"></path></svg>