<svg width="24" height="24" viewBox="0 0 24 24" fill="none" xmlns="http://www.w3.org/2000/svg"><path d="M13.738 3.162 C 13.538 3.286,11.637 5.175,11.275 5.610 L 11.080 5.844 11.080 6.173 C 11.080 6.410,11.099 6.537,11.150 6.630 C 11.248 6.809,12.646 8.285,13.193 8.786 C 13.833 9.373,14.049 9.467,14.457 9.339 C 14.894 9.202,15.166 8.844,15.171 8.403 C 15.173 8.123,15.096 7.976,14.700 7.505 C 14.554 7.331,14.449 7.175,14.468 7.156 C 14.549 7.075,15.551 7.298,16.113 7.522 C 17.205 7.958,18.236 8.831,18.928 9.904 C 19.107 10.182,19.385 10.763,19.514 11.129 C 19.737 11.762,19.778 12.050,19.779 13.000 C 19.780 13.956,19.750 14.177,19.532 14.836 C 19.279 15.601,18.932 16.211,18.279 17.040 C 17.801 17.647,17.728 17.850,17.858 18.212 C 18.053 18.759,18.547 19.022,19.087 18.866 C 19.346 18.790,19.633 18.527,20.118 17.920 C 21.116 16.669,21.727 15.036,21.824 13.360 C 21.919 11.713,21.327 9.767,20.313 8.392 C 19.017 6.633,17.149 5.513,14.955 5.176 L 14.521 5.109 14.762 4.852 C 14.894 4.710,15.048 4.526,15.103 4.443 C 15.323 4.110,15.254 3.612,14.945 3.303 C 14.751 3.110,14.552 3.040,14.193 3.040 C 13.976 3.040,13.905 3.059,13.738 3.162 M4.440 12.099 C 3.682 12.270,2.938 12.582,2.684 12.836 C 2.519 13.001,2.400 13.287,2.400 13.520 C 2.400 13.870,2.628 14.231,2.952 14.395 C 3.280 14.561,3.369 14.550,4.260 14.238 C 4.975 13.988,5.648 13.964,5.865 14.182 C 5.940 14.256,5.956 14.303,5.936 14.389 C 5.862 14.700,5.500 14.931,4.598 15.241 C 3.901 15.480,3.656 15.613,3.501 15.834 C 3.391 15.991,3.380 16.036,3.381 16.314 C 3.383 16.684,3.467 16.872,3.740 17.112 C 4.003 17.343,4.185 17.377,4.757 17.301 C 5.375 17.219,6.033 17.219,6.151 17.302 C 6.352 17.443,6.411 17.721,6.298 17.991 C 6.080 18.514,5.395 18.775,3.760 18.959 C 2.950 19.050,2.802 19.081,2.615 19.196 C 2.379 19.341,2.160 19.727,2.160 19.998 C 2.160 20.336,2.466 20.782,2.781 20.902 C 2.934 20.961,3.061 20.968,3.670 20.949 C 4.491 20.924,5.147 20.823,5.839 20.613 C 6.718 20.347,7.102 20.132,7.586 19.633 C 8.051 19.155,8.257 18.715,8.316 18.077 C 8.396 17.215,8.205 16.580,7.676 15.951 L 7.518 15.763 7.635 15.551 C 7.910 15.058,8.027 14.323,7.906 13.851 C 7.702 13.058,7.007 12.364,6.185 12.133 C 5.879 12.046,4.769 12.025,4.440 12.099 M11.844 12.119 C 10.782 12.406,10.183 13.038,9.794 14.280 C 9.701 14.576,9.700 14.605,9.700 16.340 C 9.700 18.282,9.716 18.445,9.963 19.067 C 10.126 19.479,10.304 19.742,10.651 20.089 C 11.137 20.575,11.735 20.824,12.522 20.867 C 13.920 20.944,14.988 20.190,15.455 18.798 C 15.525 18.591,15.570 18.334,15.598 17.982 C 15.650 17.351,15.651 15.505,15.601 14.880 C 15.526 13.945,15.137 13.164,14.483 12.639 C 13.978 12.234,13.508 12.080,12.700 12.056 C 12.230 12.042,12.093 12.052,11.844 12.119 M13.137 14.155 C 13.348 14.267,13.530 14.504,13.600 14.759 C 13.664 14.990,13.649 18.106,13.582 18.292 C 13.326 19.010,12.611 19.214,12.067 18.724 C 11.751 18.439,11.747 18.416,11.729 16.720 C 11.710 14.982,11.734 14.690,11.915 14.427 C 12.198 14.016,12.676 13.909,13.137 14.155 " fill="#1A1C1F" stroke="none" fill-rule="evenodd"></path></svg>