<svg width="28" height="28" viewBox="0 0 28 28" fill="none" xmlns="http://www.w3.org/2000/svg"><path d="M14.902 4.438 C 14.811 4.464,14.485 4.731,14.062 5.126 C 13.193 5.935,11.662 7.522,11.587 7.690 C 11.511 7.861,11.513 8.137,11.591 8.324 C 11.680 8.536,14.471 11.335,14.761 11.502 C 15.044 11.666,15.347 11.652,15.636 11.461 C 15.972 11.238,16.115 10.699,15.920 10.383 C 15.872 10.306,15.514 9.913,15.122 9.508 L 14.411 8.773 14.664 8.773 C 15.458 8.773,16.572 8.961,17.316 9.220 C 19.852 10.103,21.752 12.208,22.428 14.887 C 22.549 15.368,22.577 17.489,22.469 18.042 C 22.265 19.083,21.719 20.321,21.040 21.280 C 20.831 21.575,20.622 21.901,20.575 22.003 C 20.348 22.495,20.618 23.032,21.173 23.196 C 21.342 23.246,21.400 23.242,21.580 23.174 C 22.012 23.009,22.742 22.071,23.307 20.954 C 24.135 19.315,24.460 17.672,24.317 15.843 C 24.230 14.733,24.034 13.953,23.560 12.832 C 22.836 11.116,21.473 9.525,19.883 8.539 C 18.470 7.663,16.972 7.178,15.330 7.066 C 15.073 7.049,14.824 7.020,14.777 7.003 C 14.705 6.976,14.786 6.871,15.273 6.355 C 15.594 6.017,15.890 5.668,15.931 5.581 C 16.083 5.261,15.969 4.777,15.697 4.588 C 15.430 4.401,15.187 4.356,14.902 4.438 M14.141 14.117 C 13.488 14.265,12.773 14.711,12.299 15.266 C 11.815 15.831,11.630 16.377,11.571 17.407 C 11.488 18.883,11.530 20.491,11.670 21.117 C 11.699 21.245,11.817 21.549,11.933 21.793 C 12.116 22.177,12.202 22.293,12.571 22.658 C 13.296 23.375,13.811 23.565,15.042 23.566 C 15.712 23.567,15.813 23.556,16.138 23.446 C 17.093 23.126,17.783 22.528,18.180 21.677 C 18.482 21.027,18.491 20.944,18.489 18.877 C 18.486 16.883,18.459 16.549,18.265 16.088 C 17.866 15.140,17.113 14.464,16.146 14.186 C 15.684 14.053,14.589 14.015,14.141 14.117 M6.876 14.314 C 6.632 14.344,4.321 15.513,3.936 15.801 C 3.734 15.952,3.619 16.265,3.661 16.546 C 3.705 16.837,3.979 17.139,4.292 17.243 C 4.506 17.314,4.531 17.313,4.807 17.220 C 4.967 17.166,5.305 17.018,5.558 16.891 C 5.811 16.764,6.047 16.660,6.082 16.660 C 6.171 16.660,6.207 17.611,6.207 19.973 L 6.207 21.872 5.224 21.900 C 4.106 21.932,4.019 21.958,3.803 22.326 C 3.574 22.717,3.675 23.175,4.052 23.460 L 4.254 23.613 7.123 23.613 C 9.501 23.613,10.013 23.602,10.117 23.547 C 10.396 23.402,10.641 23.023,10.639 22.740 C 10.638 22.555,10.490 22.260,10.319 22.099 C 10.133 21.925,9.921 21.896,8.785 21.891 L 7.933 21.887 7.931 18.818 C 7.928 15.415,7.902 14.752,7.764 14.600 C 7.580 14.396,7.200 14.273,6.876 14.314 M16.033 15.945 C 16.266 16.070,16.540 16.366,16.638 16.600 C 16.772 16.921,16.846 19.233,16.754 20.230 C 16.693 20.886,16.603 21.152,16.348 21.424 C 16.031 21.764,15.758 21.853,15.027 21.859 C 14.658 21.862,14.362 21.840,14.224 21.799 C 13.943 21.718,13.670 21.484,13.491 21.171 L 13.350 20.925 13.320 19.318 C 13.288 17.633,13.332 16.725,13.457 16.487 C 13.495 16.415,13.595 16.293,13.681 16.214 C 14.087 15.843,14.182 15.817,15.097 15.832 C 15.759 15.843,15.865 15.856,16.033 15.945 " fill="#1A1C1F" stroke="none" fill-rule="evenodd"></path></svg>