<svg width="12" height="12" viewBox="0 0 12 12" fill="none" xmlns="http://www.w3.org/2000/svg"><path d="M5.250 3.020 C 4.972 3.051,4.869 3.111,3.580 3.997 C 2.507 4.734,1.930 5.161,1.832 5.289 C 1.678 5.491,1.610 5.715,1.611 6.010 C 1.614 6.398,1.733 6.654,2.026 6.901 C 2.265 7.103,4.345 8.544,4.757 8.794 C 5.015 8.950,5.131 8.986,5.381 8.986 C 5.757 8.986,5.962 8.900,6.230 8.632 C 6.490 8.372,6.573 8.179,6.592 7.790 C 6.598 7.680,6.607 7.570,6.612 7.545 C 6.621 7.500,6.622 7.500,6.685 7.532 C 6.721 7.550,7.015 7.747,7.340 7.970 C 8.472 8.746,8.693 8.886,8.870 8.940 C 9.087 9.007,9.371 9.007,9.560 8.942 C 9.936 8.811,10.213 8.526,10.363 8.115 L 10.423 7.950 10.416 5.970 L 10.408 3.990 10.347 3.829 C 10.266 3.617,10.201 3.517,10.042 3.360 C 9.791 3.113,9.518 3.010,9.146 3.024 C 8.925 3.032,8.918 3.034,8.731 3.127 C 8.546 3.219,8.074 3.527,7.200 4.128 C 6.964 4.291,6.737 4.441,6.696 4.462 L 6.622 4.500 6.613 4.415 C 6.607 4.368,6.594 4.236,6.582 4.120 C 6.571 4.005,6.543 3.856,6.520 3.790 C 6.388 3.406,5.964 3.069,5.565 3.029 C 5.502 3.023,5.432 3.015,5.410 3.012 C 5.388 3.009,5.316 3.013,5.250 3.020 " fill="#1A1C1F" stroke="none" fill-rule="evenodd"></path></svg>