<svg width="16" height="16" viewBox="0 0 16 16" fill="none" xmlns="http://www.w3.org/2000/svg"><path d="M8.773 2.098 C 8.675 2.133,8.524 2.270,7.946 2.850 C 7.114 3.685,6.648 4.190,6.593 4.320 C 6.533 4.462,6.542 4.719,6.612 4.864 C 6.689 5.023,7.145 5.515,7.963 6.321 C 8.361 6.714,8.669 6.996,8.733 7.026 C 8.895 7.104,9.227 7.100,9.392 7.018 C 9.540 6.945,9.719 6.774,9.785 6.641 C 9.891 6.430,9.870 6.132,9.736 5.937 C 9.693 5.874,9.555 5.713,9.429 5.579 C 9.303 5.444,9.200 5.321,9.200 5.306 C 9.200 5.251,9.823 5.395,10.167 5.530 C 10.904 5.819,11.480 6.248,11.911 6.827 C 12.403 7.486,12.627 8.093,12.691 8.939 C 12.738 9.558,12.687 9.842,12.360 10.787 C 12.211 11.219,12.160 11.402,12.160 11.505 C 12.160 11.879,12.425 12.183,12.825 12.269 C 13.382 12.388,13.893 11.673,14.146 10.419 C 14.399 9.166,14.248 7.925,13.706 6.804 C 13.439 6.252,13.132 5.817,12.686 5.363 C 11.862 4.523,10.876 4.010,9.660 3.787 C 9.480 3.755,9.333 3.718,9.333 3.707 C 9.333 3.695,9.404 3.608,9.490 3.513 C 9.796 3.175,9.885 2.995,9.858 2.768 C 9.825 2.496,9.658 2.247,9.427 2.126 C 9.283 2.052,8.942 2.037,8.773 2.098 M3.336 8.350 C 2.917 8.406,2.291 8.657,2.095 8.847 C 1.940 8.996,1.881 9.147,1.881 9.387 C 1.882 9.557,1.894 9.608,1.960 9.729 C 2.088 9.963,2.314 10.123,2.555 10.150 C 2.656 10.162,2.754 10.140,3.063 10.040 C 3.522 9.891,3.730 9.853,3.854 9.894 C 3.941 9.922,3.987 9.982,3.958 10.029 C 3.926 10.082,3.724 10.162,3.291 10.295 C 2.768 10.455,2.736 10.469,2.604 10.605 C 2.249 10.969,2.469 11.625,3.005 11.800 C 3.136 11.843,3.155 11.842,3.431 11.790 C 3.940 11.693,4.005 11.691,4.093 11.766 C 4.147 11.813,4.169 11.856,4.169 11.916 C 4.169 12.166,3.759 12.306,2.707 12.414 C 2.244 12.462,2.099 12.516,1.924 12.705 C 1.736 12.910,1.686 13.230,1.801 13.505 C 1.859 13.643,2.046 13.839,2.173 13.895 C 2.332 13.963,2.587 13.980,2.974 13.947 C 3.593 13.894,4.271 13.732,4.627 13.553 C 4.969 13.381,5.301 13.095,5.474 12.825 C 5.656 12.539,5.783 12.052,5.746 11.781 C 5.689 11.364,5.517 11.108,5.081 10.791 C 5.031 10.754,5.035 10.746,5.178 10.591 C 5.349 10.407,5.453 10.214,5.498 9.996 C 5.524 9.872,5.522 9.808,5.486 9.623 C 5.365 9.007,4.938 8.555,4.328 8.398 C 4.081 8.335,3.617 8.312,3.336 8.350 M8.267 8.345 C 7.896 8.389,7.529 8.549,7.237 8.796 C 6.992 9.003,6.846 9.188,6.721 9.453 C 6.487 9.944,6.438 10.280,6.463 11.213 C 6.482 11.919,6.509 12.108,6.645 12.469 C 6.763 12.782,6.884 12.958,7.170 13.234 C 7.577 13.627,7.959 13.768,8.600 13.766 C 9.295 13.763,9.792 13.538,10.250 13.018 C 10.475 12.763,10.595 12.522,10.697 12.120 C 10.811 11.675,10.791 10.213,10.666 9.818 C 10.537 9.407,10.299 9.043,9.989 8.780 C 9.797 8.616,9.437 8.439,9.200 8.391 C 8.951 8.340,8.496 8.318,8.267 8.345 M9.029 10.033 L 9.147 10.157 9.147 11.017 C 9.147 11.860,9.146 11.878,9.088 11.963 C 8.964 12.144,8.716 12.241,8.476 12.202 C 8.316 12.177,8.222 12.119,8.140 11.995 L 8.067 11.884 8.058 11.047 L 8.050 10.211 8.117 10.096 C 8.218 9.923,8.306 9.890,8.636 9.900 L 8.912 9.908 9.029 10.033 " fill="#1A1C1F" stroke="none" fill-rule="evenodd"></path></svg>