<svg width="12" height="12" viewBox="0 0 12 12" fill="none" xmlns="http://www.w3.org/2000/svg"><path d="M6.590 1.557 C 6.449 1.622,5.034 3.042,4.945 3.208 C 4.895 3.301,4.901 3.546,4.955 3.652 C 5.013 3.763,5.265 4.040,5.703 4.472 C 6.368 5.129,6.514 5.257,6.638 5.293 C 6.993 5.396,7.366 5.137,7.395 4.766 C 7.410 4.585,7.350 4.475,7.088 4.202 C 6.974 4.082,6.880 3.978,6.880 3.970 C 6.880 3.945,7.083 3.976,7.324 4.039 C 8.381 4.311,9.237 5.187,9.469 6.233 C 9.614 6.883,9.574 7.259,9.270 8.130 C 9.111 8.584,9.099 8.705,9.190 8.891 C 9.305 9.127,9.587 9.259,9.849 9.200 C 10.223 9.116,10.559 8.417,10.683 7.465 C 10.720 7.177,10.715 6.516,10.673 6.271 C 10.600 5.844,10.412 5.300,10.210 4.930 C 9.604 3.816,8.499 3.038,7.230 2.829 C 7.120 2.810,7.023 2.790,7.015 2.782 C 7.007 2.775,7.068 2.692,7.150 2.599 C 7.350 2.373,7.383 2.304,7.382 2.103 C 7.382 1.838,7.302 1.704,7.077 1.591 C 6.956 1.531,6.915 1.520,6.802 1.520 C 6.718 1.521,6.641 1.534,6.590 1.557 M6.207 6.260 C 5.846 6.299,5.453 6.521,5.199 6.829 C 5.100 6.949,4.956 7.243,4.911 7.417 C 4.844 7.676,4.816 8.458,4.861 8.850 C 4.944 9.591,5.345 10.103,5.988 10.289 C 6.231 10.359,6.444 10.373,6.678 10.332 C 7.081 10.262,7.353 10.127,7.610 9.870 C 7.779 9.700,7.880 9.542,7.963 9.315 C 8.050 9.077,8.076 8.913,8.091 8.508 C 8.109 8.038,8.079 7.627,8.010 7.391 C 7.859 6.874,7.523 6.504,7.048 6.334 C 6.861 6.267,6.465 6.232,6.207 6.260 M2.340 6.290 C 1.900 6.388,1.550 6.583,1.452 6.784 C 1.375 6.944,1.368 7.033,1.419 7.201 C 1.478 7.394,1.617 7.541,1.790 7.591 C 1.936 7.633,2.009 7.624,2.334 7.518 C 2.685 7.403,2.960 7.386,2.960 7.477 C 2.960 7.558,2.836 7.619,2.448 7.730 C 2.035 7.849,1.918 7.927,1.840 8.135 C 1.766 8.332,1.813 8.522,1.980 8.696 C 2.148 8.870,2.290 8.904,2.601 8.844 C 2.926 8.780,2.949 8.778,3.017 8.802 C 3.143 8.846,3.159 8.981,3.050 9.077 C 2.924 9.188,2.670 9.250,2.050 9.320 C 1.759 9.352,1.670 9.370,1.586 9.411 C 1.402 9.501,1.294 9.682,1.293 9.902 C 1.291 10.165,1.467 10.404,1.704 10.461 C 1.834 10.492,2.329 10.475,2.600 10.430 C 3.622 10.261,4.201 9.805,4.282 9.104 C 4.308 8.886,4.290 8.699,4.232 8.570 C 4.170 8.433,4.009 8.245,3.874 8.152 L 3.761 8.074 3.872 7.954 C 4.039 7.774,4.076 7.708,4.101 7.544 C 4.150 7.224,4.048 6.873,3.844 6.664 C 3.722 6.539,3.526 6.407,3.350 6.332 C 3.213 6.273,3.201 6.272,2.840 6.266 C 2.573 6.263,2.434 6.269,2.340 6.290 M6.654 7.443 C 6.750 7.472,6.852 7.597,6.866 7.702 C 6.893 7.899,6.901 8.386,6.883 8.636 C 6.866 8.863,6.856 8.914,6.812 8.988 C 6.749 9.095,6.653 9.145,6.487 9.156 C 6.257 9.172,6.123 9.091,6.064 8.901 C 6.036 8.808,6.030 8.712,6.032 8.320 C 6.035 7.757,6.055 7.598,6.132 7.518 C 6.235 7.410,6.448 7.380,6.654 7.443 " fill="#1A1C1F" stroke="none" fill-rule="evenodd"></path></svg>