<svg width="14" height="14" viewBox="0 0 14 14" fill="none" xmlns="http://www.w3.org/2000/svg"><path d="M6.055 1.887 C 5.881 1.933,5.694 2.096,5.600 2.284 C 5.557 2.370,5.550 2.417,5.558 2.564 C 5.569 2.790,5.603 2.857,5.833 3.112 C 5.936 3.226,6.020 3.327,6.020 3.336 C 6.020 3.345,5.928 3.366,5.816 3.381 C 5.311 3.450,4.738 3.641,4.247 3.902 C 2.546 4.807,1.572 6.575,1.703 8.519 C 1.766 9.455,2.098 10.388,2.475 10.686 C 2.750 10.904,3.101 10.858,3.368 10.570 C 3.509 10.418,3.561 10.280,3.539 10.120 C 3.532 10.066,3.442 9.770,3.339 9.462 C 3.091 8.716,3.048 8.483,3.063 7.993 C 3.077 7.585,3.109 7.403,3.232 7.031 C 3.574 6.001,4.463 5.147,5.522 4.832 C 5.734 4.769,6.139 4.684,6.154 4.700 C 6.161 4.706,6.059 4.825,5.928 4.963 C 5.639 5.269,5.576 5.368,5.560 5.549 C 5.526 5.926,5.767 6.210,6.190 6.289 C 6.249 6.300,6.326 6.290,6.437 6.256 C 6.578 6.213,6.625 6.182,6.804 6.019 C 7.054 5.791,7.967 4.850,8.218 4.563 C 8.420 4.330,8.433 4.297,8.420 4.019 C 8.413 3.872,8.401 3.824,8.358 3.768 C 8.245 3.623,7.070 2.412,6.825 2.188 C 6.684 2.059,6.533 1.938,6.491 1.920 C 6.396 1.881,6.150 1.862,6.055 1.887 " fill="#1A1C1F" stroke="none" fill-rule="evenodd"></path></svg>