<svg width="14" height="14" viewBox="0 0 14 14" fill="none" xmlns="http://www.w3.org/2000/svg"><path d="M7.656 1.846 C 7.486 1.933,6.031 3.393,5.821 3.688 C 5.681 3.885,5.701 4.156,5.874 4.393 C 6.031 4.609,7.528 6.095,7.642 6.149 C 7.784 6.216,8.074 6.212,8.218 6.141 C 8.512 5.996,8.666 5.710,8.610 5.415 C 8.582 5.267,8.508 5.157,8.250 4.881 C 8.140 4.764,8.050 4.656,8.050 4.641 C 8.050 4.610,8.128 4.621,8.468 4.705 C 9.485 4.954,10.300 5.602,10.768 6.533 C 10.965 6.927,11.063 7.290,11.106 7.793 C 11.151 8.332,11.090 8.672,10.800 9.488 C 10.713 9.735,10.634 9.979,10.626 10.030 C 10.580 10.317,10.914 10.693,11.262 10.747 C 11.609 10.801,11.980 10.414,12.205 9.765 C 12.425 9.130,12.508 8.460,12.462 7.687 C 12.376 6.258,11.575 4.889,10.339 4.062 C 9.780 3.688,9.225 3.467,8.470 3.318 L 8.143 3.254 8.320 3.056 C 8.582 2.763,8.622 2.686,8.621 2.473 C 8.621 2.273,8.570 2.150,8.427 1.999 C 8.293 1.858,8.185 1.813,7.957 1.803 C 7.787 1.795,7.744 1.801,7.656 1.846 M2.765 7.328 C 2.572 7.375,2.292 7.476,2.107 7.566 C 1.774 7.726,1.647 7.902,1.646 8.202 C 1.645 8.473,1.782 8.694,2.032 8.821 C 2.212 8.913,2.307 8.907,2.707 8.778 C 3.204 8.618,3.396 8.601,3.463 8.712 C 3.483 8.745,3.476 8.763,3.427 8.806 C 3.369 8.857,3.239 8.903,2.671 9.074 C 2.289 9.189,2.136 9.360,2.136 9.672 C 2.136 9.876,2.195 10.015,2.344 10.159 C 2.524 10.335,2.729 10.375,3.070 10.304 C 3.159 10.285,3.295 10.263,3.372 10.254 C 3.494 10.241,3.520 10.245,3.576 10.289 C 3.626 10.329,3.640 10.360,3.640 10.429 C 3.640 10.652,3.323 10.762,2.395 10.862 C 1.881 10.917,1.715 10.995,1.594 11.241 C 1.539 11.353,1.529 11.403,1.530 11.550 C 1.533 11.883,1.711 12.112,2.031 12.194 C 2.385 12.285,3.318 12.148,3.883 11.922 C 4.191 11.798,4.367 11.688,4.554 11.501 C 4.752 11.303,4.861 11.138,4.933 10.925 C 5.128 10.353,5.003 9.859,4.583 9.545 C 4.507 9.487,4.435 9.433,4.423 9.423 C 4.411 9.413,4.453 9.351,4.518 9.281 C 4.737 9.050,4.847 8.781,4.822 8.542 C 4.807 8.398,4.725 8.140,4.644 7.981 C 4.526 7.750,4.238 7.514,3.921 7.388 C 3.750 7.321,3.732 7.318,3.302 7.312 C 3.058 7.308,2.816 7.316,2.765 7.328 M7.007 7.339 C 6.812 7.392,6.552 7.526,6.373 7.666 C 5.965 7.985,5.739 8.425,5.668 9.037 C 5.631 9.352,5.653 10.251,5.704 10.531 C 5.784 10.973,5.954 11.278,6.309 11.613 C 6.642 11.929,6.968 12.050,7.478 12.050 C 7.855 12.049,8.106 11.993,8.423 11.836 C 8.608 11.746,8.678 11.694,8.843 11.528 C 9.109 11.260,9.244 11.023,9.358 10.622 C 9.414 10.427,9.437 9.741,9.407 9.170 C 9.382 8.687,9.352 8.568,9.167 8.209 C 9.091 8.060,9.019 7.966,8.856 7.802 C 8.671 7.615,8.615 7.575,8.400 7.470 C 8.226 7.386,8.107 7.344,7.992 7.328 C 7.749 7.293,7.152 7.300,7.007 7.339 M7.763 8.683 C 7.874 8.717,7.972 8.842,8.000 8.988 C 8.042 9.201,8.054 9.564,8.031 9.968 C 8.005 10.427,7.981 10.496,7.805 10.605 C 7.705 10.667,7.671 10.675,7.515 10.675 C 7.302 10.674,7.214 10.634,7.122 10.495 L 7.058 10.399 7.052 9.680 C 7.045 8.998,7.047 8.957,7.092 8.870 C 7.197 8.664,7.460 8.591,7.763 8.683 " fill="#1A1C1F" stroke="none" fill-rule="evenodd"></path></svg>