<svg width="20" height="20" viewBox="0 0 20 20" fill="none" xmlns="http://www.w3.org/2000/svg"><path d="M10.574 2.698 C 10.514 2.713,10.402 2.768,10.324 2.820 C 10.053 3.003,7.928 5.183,7.765 5.446 C 7.609 5.698,7.657 6.090,7.882 6.393 C 8.058 6.631,9.269 7.873,9.859 8.422 C 10.413 8.936,10.488 8.977,10.847 8.961 C 11.165 8.946,11.321 8.881,11.523 8.679 C 11.776 8.426,11.865 8.138,11.786 7.831 C 11.732 7.625,11.641 7.494,11.267 7.087 C 11.102 6.908,10.967 6.747,10.967 6.730 C 10.967 6.713,11.000 6.706,11.042 6.714 C 11.083 6.723,11.237 6.755,11.383 6.785 C 12.369 6.990,13.205 7.444,13.930 8.169 C 14.633 8.872,15.077 9.668,15.272 10.576 C 15.333 10.858,15.346 11.029,15.348 11.567 C 15.350 12.347,15.337 12.414,14.963 13.531 C 14.656 14.443,14.629 14.589,14.726 14.809 C 14.818 15.015,15.044 15.254,15.249 15.359 C 15.500 15.488,15.819 15.485,16.062 15.351 C 16.308 15.215,16.506 14.977,16.699 14.583 C 17.170 13.626,17.424 12.101,17.299 10.983 C 17.026 8.539,15.615 6.517,13.450 5.467 C 12.779 5.141,12.225 4.963,11.529 4.849 C 11.339 4.818,11.171 4.781,11.157 4.768 C 11.143 4.755,11.259 4.603,11.415 4.430 C 11.763 4.047,11.812 3.951,11.813 3.663 C 11.814 3.254,11.553 2.865,11.201 2.752 C 11.004 2.689,10.712 2.664,10.574 2.698 " fill="#1A1C1F" stroke="none" fill-rule="evenodd"></path></svg>