<svg width="28" height="28" viewBox="0 0 28 28" fill="none" xmlns="http://www.w3.org/2000/svg"><path d="M5.278 7.304 C 4.844 7.439,4.410 7.840,4.159 8.340 L 4.060 8.536 4.060 14.000 L 4.060 19.463 4.182 19.704 C 4.352 20.040,4.769 20.461,5.082 20.615 C 5.312 20.727,5.396 20.742,5.787 20.741 C 6.126 20.739,6.268 20.719,6.393 20.652 C 6.633 20.525,8.097 19.543,10.500 17.896 C 12.709 16.382,13.051 16.162,13.101 16.212 C 13.118 16.229,13.140 16.982,13.151 17.886 L 13.170 19.530 13.293 19.763 C 13.709 20.550,14.632 20.952,15.376 20.671 C 15.956 20.451,22.842 15.699,23.454 15.097 C 23.782 14.773,23.908 14.478,23.911 14.023 C 23.916 13.419,23.683 13.022,23.041 12.541 C 22.434 12.085,19.129 9.792,16.586 8.062 C 15.439 7.281,15.437 7.280,14.868 7.280 C 14.467 7.281,14.360 7.298,14.152 7.395 C 13.863 7.530,13.510 7.867,13.320 8.192 L 13.183 8.423 13.154 10.010 C 13.117 11.955,13.126 11.807,13.051 11.807 C 12.987 11.807,12.023 11.163,10.103 9.840 C 8.672 8.854,6.968 7.718,6.588 7.497 C 6.133 7.232,5.707 7.170,5.278 7.304 " fill="#1A1C1F" stroke="none" fill-rule="evenodd"></path></svg>