<svg width="20" height="20" viewBox="0 0 20 20" fill="none" xmlns="http://www.w3.org/2000/svg"><path d="M4.299 5.051 C 3.984 5.109,3.740 5.216,3.477 5.414 C 3.132 5.674,2.867 6.036,2.732 6.433 C 2.658 6.650,2.658 6.655,2.641 9.936 L 2.624 13.222 2.699 13.453 C 2.967 14.272,3.528 14.798,4.296 14.952 C 4.616 15.016,4.923 14.999,5.241 14.900 C 5.519 14.814,5.878 14.583,7.867 13.216 C 8.297 12.919,8.720 12.636,8.806 12.586 L 8.963 12.496 8.980 12.606 C 8.989 12.667,9.006 12.849,9.017 13.010 C 9.060 13.635,9.217 14.011,9.591 14.381 C 10.211 14.996,11.057 15.156,11.817 14.804 C 12.039 14.700,12.997 14.063,14.650 12.918 C 16.535 11.612,16.971 11.253,17.148 10.861 C 17.244 10.650,17.333 10.235,17.333 10.004 C 17.333 9.762,17.247 9.353,17.153 9.148 C 16.965 8.737,16.545 8.398,14.283 6.833 C 12.839 5.834,11.886 5.212,11.675 5.131 C 11.541 5.080,11.381 5.053,11.142 5.041 C 10.475 5.009,10.068 5.164,9.595 5.631 C 9.189 6.032,9.061 6.330,9.018 6.971 C 9.007 7.143,8.989 7.333,8.980 7.393 L 8.963 7.504 8.814 7.420 C 8.732 7.375,8.129 6.971,7.474 6.524 C 6.230 5.674,5.643 5.290,5.414 5.173 C 5.286 5.108,4.763 4.997,4.617 5.003 C 4.580 5.005,4.437 5.026,4.299 5.051 " fill="#1A1C1F" stroke="none" fill-rule="evenodd"></path></svg>