<svg width="28" height="28" viewBox="0 0 28 28" fill="none" xmlns="http://www.w3.org/2000/svg"><path d="M12.862 1.915 C 12.151 2.125,11.502 2.496,10.996 2.982 C 10.431 3.526,10.050 4.163,9.753 5.061 L 9.599 5.526 9.625 9.615 L 9.650 13.703 9.821 14.213 C 10.189 15.313,10.842 16.196,11.722 16.782 C 12.462 17.275,13.092 17.465,14.000 17.468 C 14.935 17.472,15.593 17.278,16.369 16.773 C 17.254 16.196,17.829 15.423,18.206 14.303 L 18.363 13.837 18.376 9.801 L 18.389 5.766 18.263 5.321 C 18.194 5.077,18.086 4.751,18.023 4.597 C 17.549 3.425,16.450 2.375,15.283 1.980 C 14.941 1.863,14.839 1.852,14.047 1.837 C 13.286 1.823,13.145 1.832,12.862 1.915 M14.783 3.648 C 15.606 3.900,16.401 4.764,16.523 5.538 C 16.589 5.957,16.629 11.249,16.576 12.570 L 16.530 13.730 16.341 14.110 C 15.977 14.844,15.444 15.359,14.831 15.573 C 14.197 15.793,13.541 15.765,12.935 15.490 C 12.336 15.218,11.979 14.861,11.641 14.195 L 11.467 13.853 11.429 12.795 C 11.380 11.426,11.380 7.874,11.429 6.551 L 11.468 5.519 11.634 5.173 C 12.270 3.850,13.499 3.255,14.783 3.648 M6.648 12.361 C 6.411 12.469,6.220 12.693,6.179 12.912 C 6.126 13.192,6.192 14.179,6.297 14.688 C 6.497 15.660,6.908 16.645,7.470 17.500 C 7.873 18.112,9.002 19.241,9.613 19.643 C 10.462 20.201,11.650 20.683,12.682 20.888 L 13.113 20.973 13.113 22.731 L 13.113 24.489 12.115 24.508 L 11.116 24.527 10.925 24.660 C 10.459 24.983,10.384 25.519,10.747 25.931 C 11.056 26.283,10.940 26.271,14.014 26.272 C 16.623 26.273,16.766 26.269,16.930 26.184 C 17.483 25.900,17.644 25.318,17.297 24.862 C 17.083 24.581,16.939 24.546,15.832 24.513 L 14.887 24.485 14.887 22.726 L 14.887 20.967 15.318 20.885 C 16.324 20.694,17.531 20.205,18.387 19.643 C 18.995 19.244,20.123 18.115,20.529 17.500 C 21.333 16.280,21.840 14.700,21.840 13.411 C 21.840 12.858,21.787 12.681,21.564 12.494 C 21.218 12.203,20.725 12.224,20.381 12.545 C 20.222 12.693,20.188 12.816,20.067 13.682 C 19.908 14.816,19.694 15.494,19.272 16.195 C 18.351 17.727,16.943 18.740,15.213 19.115 C 14.717 19.223,13.400 19.237,12.903 19.139 C 12.066 18.976,11.166 18.603,10.550 18.165 C 10.117 17.857,9.414 17.168,9.093 16.738 C 8.403 15.813,8.111 15.043,7.929 13.673 C 7.800 12.701,7.697 12.484,7.295 12.341 C 7.051 12.254,6.871 12.260,6.648 12.361 " fill="#1A1C1F" stroke="none" fill-rule="evenodd"></path></svg>