<svg width="32" height="32" viewBox="0 0 32 32" fill="none" xmlns="http://www.w3.org/2000/svg"><path d="M14.699 2.189 C 13.816 2.449,12.996 2.951,12.362 3.621 C 11.768 4.248,11.343 5.050,11.093 6.014 C 10.981 6.448,10.980 6.501,10.998 11.053 L 11.017 15.653 11.166 16.100 C 11.712 17.732,12.654 18.872,13.993 19.520 C 14.698 19.861,15.157 19.962,16.000 19.960 C 16.603 19.960,16.806 19.937,17.249 19.821 C 18.969 19.369,20.171 18.202,20.815 16.358 L 20.987 15.867 21.002 11.224 L 21.018 6.582 20.830 5.961 C 20.598 5.195,20.448 4.852,20.156 4.417 C 19.468 3.391,18.490 2.608,17.467 2.262 C 17.076 2.130,16.958 2.116,16.053 2.099 C 15.184 2.083,15.023 2.094,14.699 2.189 M16.867 4.165 C 17.807 4.438,18.723 5.408,18.882 6.297 C 18.959 6.729,19.006 12.822,18.945 14.366 L 18.892 15.692 18.676 16.126 C 18.259 16.965,17.651 17.554,16.950 17.797 C 16.225 18.050,15.476 18.017,14.783 17.703 C 14.098 17.392,13.690 16.984,13.304 16.222 L 13.105 15.831 13.054 14.356 C 12.995 12.636,13.043 6.817,13.120 6.427 C 13.200 6.018,13.527 5.424,13.888 5.030 C 14.718 4.123,15.721 3.832,16.867 4.165 M7.598 14.127 C 7.327 14.250,7.108 14.506,7.061 14.756 C 7.001 15.076,7.076 16.205,7.196 16.787 C 7.425 17.897,7.895 19.023,8.537 20.000 C 8.998 20.699,10.288 21.989,10.987 22.449 C 11.957 23.087,13.315 23.638,14.493 23.872 L 14.987 23.970 14.987 25.978 L 14.987 27.986 13.843 28.010 L 12.699 28.035 12.483 28.185 C 11.954 28.551,11.869 29.165,12.282 29.636 C 12.635 30.038,12.503 30.024,16.015 30.025 C 18.997 30.027,19.161 30.022,19.349 29.925 C 20.084 29.547,20.196 28.665,19.568 28.201 C 19.402 28.078,18.715 28.005,17.693 28.002 L 17.013 28.000 17.013 25.982 L 17.013 23.963 17.456 23.876 C 18.903 23.592,20.267 23.008,21.349 22.208 C 21.943 21.770,23.069 20.590,23.466 19.991 C 24.378 18.613,24.960 16.798,24.960 15.326 C 24.960 14.695,24.899 14.493,24.645 14.279 C 24.403 14.075,24.097 14.003,23.796 14.079 C 23.242 14.218,23.089 14.472,22.961 15.467 C 22.796 16.739,22.655 17.260,22.257 18.071 C 21.565 19.478,20.375 20.641,18.912 21.337 C 18.295 21.631,17.789 21.784,17.067 21.895 C 14.299 22.320,11.596 21.072,10.073 18.665 C 9.501 17.761,9.242 16.982,9.062 15.627 C 8.915 14.515,8.797 14.268,8.337 14.104 C 8.059 14.005,7.853 14.011,7.598 14.127 " fill="#1A1C1F" stroke="none" fill-rule="evenodd"></path></svg>