<svg width="20" height="20" viewBox="0 0 20 20" fill="none" xmlns="http://www.w3.org/2000/svg"><path d="M9.617 2.037 C 9.259 2.082,8.768 2.254,8.445 2.445 C 7.829 2.810,7.375 3.393,7.111 4.157 L 7.021 4.417 7.007 6.653 C 6.991 9.227,6.978 9.095,7.316 9.783 C 7.626 10.414,8.069 10.862,8.683 11.167 C 9.167 11.407,9.482 11.481,10.017 11.478 C 10.534 11.476,10.827 11.408,11.283 11.185 C 12.001 10.833,12.576 10.179,12.840 9.414 C 12.928 9.159,12.942 9.061,12.972 8.473 C 13.014 7.686,12.986 4.865,12.934 4.487 C 12.795 3.494,11.910 2.488,10.897 2.171 C 10.470 2.037,10.000 1.988,9.617 2.037 M10.366 4.102 C 10.598 4.208,10.721 4.318,10.849 4.536 L 10.967 4.737 10.966 6.743 L 10.966 8.750 10.870 8.917 C 10.572 9.431,10.054 9.622,9.577 9.395 C 9.372 9.298,9.081 8.972,9.056 8.812 C 9.044 8.741,9.025 7.798,9.013 6.717 L 8.990 4.750 9.137 4.537 C 9.393 4.165,9.613 4.037,10.000 4.036 C 10.148 4.035,10.264 4.056,10.366 4.102 M14.658 10.045 C 14.395 10.144,14.261 10.291,13.898 10.876 C 13.341 11.776,12.555 12.372,11.433 12.744 C 10.851 12.938,10.617 12.975,9.983 12.974 C 9.353 12.974,9.119 12.937,8.542 12.748 C 7.919 12.544,7.367 12.234,6.850 11.798 C 6.523 11.522,6.292 11.246,6.011 10.795 C 5.634 10.191,5.462 10.067,5.003 10.067 C 4.681 10.067,4.572 10.108,4.336 10.321 C 4.012 10.612,3.929 11.026,4.109 11.458 C 4.404 12.168,5.172 13.097,5.956 13.693 C 6.718 14.271,7.661 14.703,8.675 14.938 L 9.000 15.013 9.000 15.501 L 9.000 15.990 8.378 16.010 C 7.799 16.029,7.743 16.037,7.579 16.117 C 7.347 16.231,7.115 16.490,7.050 16.709 C 6.940 17.080,7.017 17.384,7.295 17.677 C 7.398 17.786,7.536 17.898,7.600 17.926 C 7.699 17.969,8.054 17.979,9.954 17.993 L 12.191 18.009 12.365 17.914 C 12.591 17.791,12.845 17.512,12.913 17.312 C 12.976 17.128,12.982 16.876,12.929 16.699 C 12.875 16.519,12.674 16.268,12.496 16.158 C 12.362 16.075,12.294 16.059,11.946 16.032 C 11.728 16.015,11.426 16.001,11.275 16.001 L 11.000 16.000 11.000 15.507 L 11.000 15.013 11.325 14.935 C 13.401 14.437,15.103 13.128,15.876 11.437 C 16.109 10.926,15.921 10.327,15.456 10.103 C 15.270 10.013,14.830 9.981,14.658 10.045 " fill="#1A1C1F" stroke="none" fill-rule="evenodd"></path></svg>