<svg width="14" height="14" viewBox="0 0 14 14" fill="none" xmlns="http://www.w3.org/2000/svg"><path d="M6.709 1.425 C 6.282 1.490,5.862 1.699,5.545 2.004 C 5.291 2.249,5.120 2.531,4.971 2.952 L 4.897 3.162 4.905 4.748 L 4.913 6.335 4.998 6.562 C 5.105 6.850,5.216 7.049,5.390 7.263 C 5.847 7.826,6.521 8.105,7.235 8.026 C 8.081 7.933,8.734 7.374,9.031 6.488 L 9.100 6.281 9.100 4.740 L 9.100 3.199 9.041 3.011 C 8.802 2.256,8.317 1.744,7.630 1.521 C 7.362 1.434,6.940 1.390,6.709 1.425 M3.278 7.075 C 3.152 7.120,3.023 7.221,2.946 7.335 C 2.777 7.587,2.781 7.823,2.961 8.177 C 3.118 8.484,3.331 8.766,3.675 9.120 C 4.127 9.586,4.618 9.922,5.217 10.176 C 5.498 10.295,5.924 10.431,6.166 10.477 L 6.300 10.503 6.300 10.848 L 6.300 11.193 5.864 11.209 C 5.513 11.222,5.408 11.234,5.328 11.269 C 5.197 11.327,5.027 11.501,4.966 11.638 C 4.898 11.792,4.897 12.016,4.963 12.162 C 5.027 12.302,5.205 12.481,5.352 12.552 L 5.465 12.607 7.021 12.595 C 8.796 12.582,8.654 12.599,8.877 12.366 C 9.044 12.191,9.085 12.096,9.084 11.888 C 9.083 11.687,9.043 11.586,8.902 11.436 C 8.731 11.253,8.646 11.228,8.135 11.209 L 7.700 11.193 7.700 10.849 L 7.700 10.506 7.928 10.453 C 8.217 10.386,8.635 10.249,8.913 10.128 C 9.805 9.741,10.743 8.854,11.097 8.062 C 11.270 7.674,11.134 7.270,10.772 7.095 C 10.675 7.048,10.634 7.042,10.468 7.051 C 10.127 7.069,10.047 7.132,9.730 7.633 C 9.549 7.919,9.151 8.335,8.900 8.499 C 8.503 8.760,7.991 8.966,7.554 9.040 C 7.255 9.091,6.745 9.091,6.446 9.040 C 6.010 8.966,5.499 8.761,5.100 8.500 C 4.830 8.323,4.474 7.946,4.238 7.586 C 4.004 7.230,3.934 7.157,3.762 7.093 C 3.626 7.042,3.396 7.034,3.278 7.075 " fill="#1A1C1F" stroke="none" fill-rule="evenodd"></path></svg>