<svg width="16" height="16" viewBox="0 0 16 16" fill="none" xmlns="http://www.w3.org/2000/svg"><path d="M7.587 1.643 C 7.146 1.705,6.672 1.959,6.306 2.330 C 6.044 2.595,5.875 2.861,5.726 3.243 L 5.613 3.533 5.606 5.333 L 5.598 7.133 5.668 7.360 C 5.928 8.203,6.495 8.807,7.267 9.063 C 7.850 9.257,8.360 9.235,8.952 8.990 C 9.209 8.884,9.354 8.782,9.636 8.509 C 9.925 8.229,10.085 8.010,10.198 7.740 C 10.314 7.463,10.342 7.338,10.373 6.967 C 10.406 6.565,10.407 4.374,10.374 3.861 C 10.345 3.419,10.300 3.251,10.127 2.933 C 9.800 2.333,9.326 1.934,8.688 1.722 C 8.527 1.669,8.422 1.656,8.080 1.645 C 7.853 1.638,7.631 1.637,7.587 1.643 M11.833 8.053 C 11.559 8.102,11.422 8.232,11.118 8.731 C 10.936 9.030,10.556 9.432,10.247 9.652 C 9.830 9.949,9.233 10.207,8.667 10.334 C 8.387 10.397,7.613 10.397,7.333 10.334 C 6.767 10.207,6.170 9.949,5.753 9.652 C 5.430 9.422,5.065 9.032,4.867 8.707 C 4.527 8.148,4.402 8.054,4.003 8.054 C 3.742 8.053,3.607 8.107,3.428 8.280 C 3.295 8.410,3.227 8.601,3.227 8.845 C 3.227 9.037,3.307 9.241,3.519 9.587 C 4.223 10.735,5.479 11.602,6.940 11.949 L 7.200 12.010 7.200 12.401 L 7.200 12.792 6.701 12.810 C 6.131 12.832,6.051 12.854,5.861 13.045 C 5.622 13.284,5.547 13.624,5.672 13.900 C 5.745 14.060,5.949 14.264,6.116 14.345 L 6.245 14.407 8.023 14.395 C 10.040 14.380,9.894 14.397,10.140 14.150 C 10.317 13.974,10.385 13.822,10.386 13.600 C 10.387 13.386,10.292 13.173,10.129 13.026 C 9.935 12.851,9.853 12.830,9.297 12.810 L 8.800 12.792 8.800 12.401 L 8.800 12.010 9.060 11.949 C 10.123 11.697,11.032 11.202,11.756 10.484 C 12.154 10.088,12.494 9.621,12.685 9.208 C 12.774 9.016,12.779 8.991,12.768 8.788 C 12.760 8.641,12.738 8.539,12.700 8.465 C 12.634 8.337,12.431 8.144,12.310 8.093 C 12.190 8.043,11.986 8.026,11.833 8.053 " fill="#1A1C1F" stroke="none" fill-rule="evenodd"></path></svg>