<svg width="12" height="12" viewBox="0 0 12 12" fill="none" xmlns="http://www.w3.org/2000/svg"><path d="M5.638 1.230 C 5.367 1.284,5.080 1.423,4.855 1.609 C 4.606 1.815,4.418 2.079,4.295 2.397 C 4.242 2.532,4.234 2.586,4.219 2.870 C 4.209 3.046,4.201 3.691,4.201 4.304 L 4.200 5.418 4.291 5.654 C 4.406 5.952,4.524 6.141,4.717 6.339 C 5.154 6.786,5.768 6.982,6.350 6.862 C 6.722 6.786,7.023 6.617,7.291 6.335 C 7.488 6.128,7.619 5.911,7.721 5.621 L 7.800 5.398 7.799 4.304 C 7.798 2.930,7.784 2.622,7.711 2.430 C 7.538 1.972,7.202 1.591,6.790 1.385 C 6.645 1.313,6.452 1.249,6.291 1.221 C 6.133 1.193,5.801 1.198,5.638 1.230 M6.236 2.452 C 6.350 2.499,6.422 2.562,6.503 2.687 L 6.581 2.808 6.576 4.049 C 6.569 5.446,6.582 5.335,6.408 5.507 C 6.276 5.637,6.166 5.686,6.003 5.687 C 5.775 5.688,5.575 5.564,5.468 5.356 L 5.420 5.261 5.420 4.068 C 5.420 3.211,5.427 2.853,5.444 2.796 C 5.469 2.711,5.585 2.568,5.685 2.496 C 5.817 2.402,6.067 2.382,6.236 2.452 M2.787 6.044 C 2.578 6.112,2.400 6.362,2.400 6.587 C 2.402 7.062,3.050 7.886,3.820 8.392 C 4.222 8.656,4.792 8.893,5.215 8.973 L 5.400 9.008 5.400 9.314 L 5.400 9.620 5.215 9.621 C 5.113 9.622,4.929 9.630,4.806 9.638 C 4.601 9.653,4.573 9.660,4.480 9.720 C 4.250 9.868,4.136 10.207,4.239 10.435 C 4.293 10.553,4.445 10.709,4.566 10.769 L 4.668 10.820 5.689 10.819 C 6.851 10.818,7.355 10.800,7.461 10.755 C 7.546 10.719,7.681 10.571,7.744 10.443 C 7.813 10.304,7.808 10.108,7.734 9.956 C 7.669 9.824,7.528 9.690,7.422 9.660 C 7.383 9.649,7.181 9.634,6.975 9.627 L 6.600 9.614 6.600 9.309 L 6.600 9.005 6.696 8.992 C 6.851 8.972,7.258 8.848,7.519 8.742 C 8.221 8.457,8.866 7.939,9.292 7.319 C 9.646 6.802,9.693 6.459,9.443 6.203 C 9.307 6.064,9.202 6.020,9.010 6.020 C 8.893 6.020,8.831 6.030,8.769 6.061 C 8.666 6.110,8.538 6.237,8.456 6.370 C 8.198 6.789,8.005 7.011,7.700 7.238 C 7.490 7.393,7.166 7.554,6.850 7.658 C 6.531 7.764,6.419 7.780,5.968 7.780 C 5.630 7.780,5.563 7.774,5.398 7.732 C 4.582 7.525,4.002 7.119,3.615 6.486 C 3.400 6.132,3.246 6.019,2.990 6.022 C 2.913 6.023,2.822 6.033,2.787 6.044 " fill="#1A1C1F" stroke="none" fill-rule="evenodd"></path></svg>