<svg width="24" height="24" viewBox="0 0 24 24" fill="none" xmlns="http://www.w3.org/2000/svg"><path d="M11.180 2.124 C 10.537 2.281,9.826 2.710,9.394 3.199 C 8.975 3.674,8.640 4.345,8.557 4.872 C 8.533 5.031,8.507 6.418,8.493 8.280 L 8.471 11.420 8.600 11.820 C 8.857 12.620,9.237 13.203,9.810 13.679 C 10.766 14.472,12.071 14.695,13.219 14.262 C 14.248 13.874,14.964 13.103,15.342 11.977 C 15.425 11.730,15.452 11.547,15.481 11.026 C 15.526 10.214,15.527 6.407,15.482 5.500 C 15.450 4.866,15.439 4.794,15.306 4.426 C 14.867 3.207,13.906 2.358,12.672 2.098 C 12.277 2.015,11.576 2.027,11.180 2.124 M12.662 4.179 C 12.911 4.301,13.195 4.593,13.337 4.873 L 13.440 5.077 13.440 8.272 L 13.440 11.468 13.287 11.704 C 13.096 11.997,12.812 12.261,12.567 12.372 C 12.416 12.440,12.302 12.457,11.980 12.456 C 11.628 12.456,11.556 12.444,11.380 12.352 C 11.102 12.208,10.866 11.982,10.700 11.702 L 10.560 11.465 10.560 8.270 C 10.560 4.718,10.536 5.025,10.841 4.616 C 10.992 4.414,11.349 4.143,11.553 4.076 C 11.612 4.057,11.839 4.049,12.057 4.059 C 12.377 4.074,12.495 4.097,12.662 4.179 M5.792 10.041 C 5.506 10.091,5.167 10.402,5.055 10.716 C 4.987 10.906,4.988 11.321,5.058 11.845 C 5.334 13.920,6.412 15.684,8.125 16.866 C 8.811 17.339,9.795 17.755,10.670 17.943 L 11.000 18.014 11.000 19.001 L 11.000 19.987 9.950 20.016 C 8.808 20.047,8.606 20.070,8.446 20.189 C 8.253 20.332,8.088 20.589,8.040 20.822 C 7.973 21.145,8.039 21.386,8.263 21.635 C 8.595 22.004,8.309 21.977,11.940 21.979 C 14.518 21.980,15.175 21.969,15.320 21.926 C 15.523 21.865,15.809 21.590,15.909 21.361 C 15.995 21.160,15.984 20.764,15.886 20.574 C 15.778 20.365,15.525 20.128,15.358 20.079 C 15.282 20.056,14.720 20.027,14.110 20.013 L 13.000 19.987 13.000 19.000 L 13.000 18.014 13.330 17.943 C 15.978 17.376,18.080 15.380,18.756 12.791 C 18.927 12.139,18.974 11.804,18.977 11.240 C 18.980 10.661,18.930 10.517,18.632 10.263 C 18.222 9.912,17.716 9.939,17.288 10.337 C 17.118 10.494,17.025 10.809,16.939 11.516 C 16.828 12.431,16.574 13.115,16.081 13.836 C 15.453 14.753,14.575 15.404,13.494 15.756 C 12.954 15.932,12.687 15.970,12.000 15.970 C 11.309 15.970,11.035 15.930,10.504 15.753 C 9.347 15.367,8.501 14.729,7.863 13.761 C 7.373 13.016,7.143 12.342,7.020 11.283 C 6.949 10.672,6.879 10.477,6.660 10.285 C 6.413 10.068,6.113 9.984,5.792 10.041 " fill="#1A1C1F" stroke="none" fill-rule="evenodd"></path></svg>