<svg width="16" height="16" viewBox="0 0 16 16" fill="none" xmlns="http://www.w3.org/2000/svg"><path d="M7.587 1.643 C 7.146 1.705,6.672 1.959,6.306 2.330 C 6.044 2.595,5.875 2.861,5.726 3.243 L 5.613 3.533 5.613 5.387 L 5.614 7.240 5.711 7.499 C 6.022 8.330,6.581 8.861,7.406 9.111 C 7.731 9.209,8.195 9.214,8.547 9.123 C 8.985 9.010,9.339 8.817,9.650 8.522 C 9.871 8.311,10.026 8.091,10.175 7.777 C 10.372 7.362,10.376 7.319,10.392 5.760 C 10.407 4.199,10.382 3.571,10.292 3.302 C 10.094 2.706,9.622 2.160,9.061 1.877 C 8.712 1.701,8.536 1.659,8.080 1.645 C 7.853 1.638,7.631 1.637,7.587 1.643 M8.258 3.267 C 8.418 3.314,8.618 3.481,8.701 3.637 L 8.760 3.747 8.760 5.400 L 8.760 7.053 8.701 7.149 C 8.587 7.331,8.367 7.513,8.199 7.561 C 7.846 7.664,7.465 7.482,7.282 7.124 C 7.228 7.018,7.227 6.981,7.227 5.392 L 7.227 3.768 7.330 3.609 C 7.402 3.497,7.483 3.415,7.600 3.338 C 7.754 3.235,7.779 3.227,7.945 3.227 C 8.043 3.227,8.184 3.245,8.258 3.267 M11.833 8.053 C 11.559 8.102,11.422 8.232,11.118 8.731 C 10.936 9.030,10.556 9.432,10.247 9.652 C 9.830 9.949,9.233 10.207,8.667 10.334 C 8.387 10.397,7.613 10.397,7.333 10.334 C 6.767 10.207,6.170 9.949,5.753 9.652 C 5.430 9.422,5.065 9.032,4.867 8.707 C 4.527 8.148,4.402 8.054,4.003 8.054 C 3.742 8.053,3.607 8.107,3.428 8.280 C 3.295 8.410,3.227 8.601,3.227 8.845 C 3.227 9.037,3.307 9.241,3.519 9.587 C 4.223 10.735,5.479 11.602,6.940 11.949 L 7.200 12.010 7.200 12.401 L 7.200 12.792 6.701 12.810 C 6.131 12.832,6.051 12.854,5.861 13.045 C 5.622 13.284,5.547 13.624,5.672 13.900 C 5.745 14.060,5.949 14.264,6.116 14.345 L 6.245 14.407 8.023 14.395 C 10.040 14.380,9.894 14.397,10.140 14.150 C 10.317 13.974,10.385 13.822,10.386 13.600 C 10.387 13.386,10.292 13.173,10.129 13.026 C 9.935 12.851,9.853 12.830,9.297 12.810 L 8.800 12.792 8.800 12.401 L 8.800 12.010 9.060 11.949 C 10.123 11.697,11.032 11.202,11.756 10.484 C 12.154 10.088,12.494 9.621,12.685 9.208 C 12.774 9.016,12.779 8.991,12.768 8.788 C 12.760 8.641,12.738 8.539,12.700 8.465 C 12.634 8.337,12.431 8.144,12.310 8.093 C 12.190 8.043,11.986 8.026,11.833 8.053 " fill="#1A1C1F" stroke="none" fill-rule="evenodd"></path></svg>