<svg width="32" height="32" viewBox="0 0 32 32" fill="none" xmlns="http://www.w3.org/2000/svg"><path d="M12.761 8.052 C 12.555 8.101,12.247 8.326,12.119 8.521 C 12.033 8.652,12.026 9.126,12.011 15.544 C 12.002 19.748,12.016 22.634,12.048 22.960 C 12.100 23.491,12.101 23.494,12.315 23.686 C 12.607 23.947,12.933 24.036,13.260 23.945 C 13.558 23.861,13.837 23.599,13.924 23.321 C 13.971 23.172,13.993 21.261,14.010 15.973 L 14.032 8.827 13.872 8.553 C 13.748 8.340,13.648 8.247,13.432 8.139 C 13.142 7.995,13.051 7.983,12.761 8.052 M18.743 8.048 C 18.491 8.111,18.264 8.306,18.106 8.597 L 17.962 8.861 17.987 15.991 C 18.006 21.279,18.029 23.172,18.076 23.321 C 18.163 23.599,18.442 23.861,18.740 23.945 C 19.067 24.036,19.393 23.947,19.684 23.686 C 19.894 23.498,19.900 23.482,19.949 23.013 C 20.014 22.382,20.013 9.612,19.948 8.993 C 19.909 8.615,19.873 8.492,19.776 8.388 C 19.524 8.117,19.067 7.968,18.743 8.048 " fill="#1A1C1F" stroke="none" fill-rule="evenodd"></path></svg>