<svg width="16" height="16" viewBox="0 0 16 16" fill="none" xmlns="http://www.w3.org/2000/svg"><path d="M9.280 4.082 C 9.119 4.155,8.941 4.330,8.864 4.493 L 8.801 4.627 8.801 8.000 C 8.801 11.270,8.803 11.377,8.852 11.486 C 8.923 11.642,9.125 11.851,9.275 11.922 C 9.453 12.007,9.753 12.008,9.924 11.925 C 10.069 11.854,10.264 11.655,10.347 11.493 L 10.405 11.379 10.395 7.990 C 10.384 4.146,10.407 4.507,10.149 4.255 C 10.057 4.164,9.958 4.098,9.877 4.070 C 9.699 4.009,9.429 4.015,9.280 4.082 M6.178 4.081 C 5.983 4.130,5.758 4.327,5.644 4.552 C 5.604 4.630,5.600 4.939,5.600 8.008 L 5.600 11.378 5.705 11.541 C 6.056 12.085,6.744 12.083,7.096 11.539 L 7.200 11.378 7.200 8.000 L 7.200 4.622 7.095 4.459 C 6.979 4.280,6.819 4.147,6.669 4.107 C 6.514 4.066,6.288 4.054,6.178 4.081 " fill="#1A1C1F" stroke="none" fill-rule="evenodd"></path></svg>