<svg width="12" height="12" viewBox="0 0 12 12" fill="none" xmlns="http://www.w3.org/2000/svg"><path d="M4.547 3.070 C 4.422 3.133,4.301 3.252,4.241 3.373 L 4.195 3.464 4.204 5.997 C 4.212 8.210,4.217 8.539,4.244 8.601 C 4.286 8.697,4.451 8.858,4.560 8.908 C 4.671 8.958,4.868 8.960,5.013 8.912 C 5.124 8.875,5.302 8.711,5.341 8.610 C 5.386 8.490,5.398 7.887,5.399 5.686 L 5.400 3.443 5.315 3.318 C 5.224 3.185,5.083 3.074,4.964 3.041 C 4.828 3.003,4.658 3.015,4.547 3.070 M6.969 3.068 C 6.838 3.129,6.732 3.222,6.664 3.338 L 6.610 3.430 6.610 5.970 C 6.610 8.032,6.615 8.527,6.637 8.600 C 6.673 8.722,6.855 8.901,6.989 8.947 C 7.135 8.996,7.328 8.990,7.450 8.932 C 7.563 8.878,7.706 8.740,7.741 8.650 C 7.754 8.617,7.772 8.437,7.781 8.250 C 7.805 7.759,7.805 3.590,7.780 3.461 C 7.750 3.300,7.649 3.177,7.476 3.091 C 7.296 3.001,7.129 2.993,6.969 3.068 " fill="#1A1C1F" stroke="none" fill-rule="evenodd"></path></svg>