<svg width="20" height="20" viewBox="0 0 20 20" fill="none" xmlns="http://www.w3.org/2000/svg"><path d="M7.583 5.113 C 7.375 5.211,7.193 5.393,7.084 5.612 L 7.000 5.780 7.001 9.765 C 7.001 13.729,7.014 14.269,7.116 14.465 C 7.172 14.574,7.462 14.829,7.633 14.920 C 7.795 15.006,8.205 15.006,8.367 14.920 C 8.538 14.829,8.828 14.574,8.884 14.465 C 8.986 14.269,8.999 13.729,8.999 9.767 L 9.000 5.784 8.910 5.605 C 8.797 5.384,8.550 5.157,8.344 5.086 C 8.109 5.006,7.785 5.018,7.583 5.113 M11.583 5.113 C 11.375 5.211,11.193 5.393,11.084 5.612 L 11.000 5.780 11.001 9.998 C 11.002 14.781,10.975 14.333,11.283 14.662 C 11.685 15.093,12.302 15.090,12.729 14.654 C 12.994 14.384,12.978 14.679,12.992 9.971 L 13.004 5.793 12.912 5.610 C 12.798 5.384,12.551 5.157,12.344 5.086 C 12.109 5.006,11.785 5.018,11.583 5.113 " fill="#1A1C1F" stroke="none" fill-rule="evenodd"></path></svg>