<svg width="24" height="24" viewBox="0 0 24 24" fill="none" xmlns="http://www.w3.org/2000/svg"><path d="M9.656 6.083 C 9.489 6.132,9.187 6.404,9.095 6.589 C 9.023 6.734,9.020 6.934,9.020 11.900 C 9.020 17.617,9.011 17.410,9.268 17.660 C 9.798 18.175,10.599 18.043,10.916 17.388 L 11.000 17.215 11.000 11.986 C 11.000 6.910,10.998 6.752,10.923 6.608 C 10.796 6.363,10.513 6.115,10.314 6.077 C 10.093 6.034,9.815 6.037,9.656 6.083 M13.601 6.082 C 13.415 6.161,13.239 6.325,13.120 6.533 L 13.001 6.740 13.000 11.971 C 13.000 17.782,12.978 17.327,13.281 17.656 C 13.456 17.846,13.778 18.000,14.000 18.000 C 14.342 18.000,14.835 17.657,14.920 17.360 C 14.979 17.155,15.016 12.231,14.981 9.267 L 14.950 6.675 14.825 6.488 C 14.756 6.386,14.612 6.248,14.503 6.181 C 14.336 6.078,14.261 6.059,14.003 6.051 C 13.836 6.045,13.656 6.060,13.601 6.082 " fill="#1A1C1F" stroke="none" fill-rule="evenodd"></path></svg>