<svg width="28" height="28" viewBox="0 0 28 28" fill="none" xmlns="http://www.w3.org/2000/svg"><path d="M11.033 7.092 C 10.727 7.248,10.582 7.430,10.542 7.711 C 10.523 7.846,10.505 10.763,10.503 14.193 L 10.500 20.429 10.722 20.664 C 11.057 21.018,11.350 21.079,11.753 20.878 C 11.944 20.783,12.028 20.704,12.135 20.516 L 12.272 20.277 12.273 14.006 L 12.273 7.736 12.147 7.504 C 11.921 7.088,11.411 6.899,11.033 7.092 M16.400 7.044 C 16.183 7.096,15.982 7.266,15.848 7.513 L 15.727 7.736 15.727 14.006 L 15.728 20.277 15.865 20.516 C 15.972 20.704,16.056 20.783,16.247 20.878 C 16.650 21.079,16.943 21.018,17.278 20.664 L 17.500 20.429 17.500 14.015 L 17.500 7.600 17.376 7.438 C 17.148 7.139,16.722 6.967,16.400 7.044 " fill="#1A1C1F" stroke="none" fill-rule="evenodd"></path></svg>