<svg width="48" height="48" viewBox="0 0 48 48" fill="none" xmlns="http://www.w3.org/2000/svg"><path d="M18.573 11.149 C 18.426 11.202,18.266 11.316,18.218 11.403 C 18.066 11.673,18.011 15.050,18.011 24.000 C 18.011 32.264,18.071 36.279,18.199 36.583 C 18.267 36.744,18.726 36.960,19.000 36.960 C 19.274 36.960,19.733 36.744,19.801 36.583 C 19.932 36.275,19.988 32.009,19.994 22.035 L 20.000 11.630 19.774 11.413 C 19.571 11.219,19.132 11.030,18.921 11.046 C 18.876 11.049,18.720 11.096,18.573 11.149 M28.573 11.149 C 28.426 11.202,28.266 11.316,28.218 11.403 C 28.066 11.673,28.011 15.050,28.011 24.000 C 28.011 32.264,28.071 36.279,28.199 36.583 C 28.267 36.744,28.726 36.960,29.000 36.960 C 29.274 36.960,29.733 36.744,29.801 36.583 C 29.933 36.271,29.989 32.057,29.994 22.075 L 30.000 11.630 29.774 11.413 C 29.571 11.219,29.132 11.030,28.921 11.046 C 28.876 11.049,28.720 11.096,28.573 11.149 " fill="#1A1C1F" stroke="none" fill-rule="evenodd"></path></svg>