<svg width="14" height="14" viewBox="0 0 14 14" fill="none" xmlns="http://www.w3.org/2000/svg"><path d="M5.408 3.556 C 5.210 3.610,5.061 3.741,4.949 3.961 L 4.898 4.061 4.905 6.995 L 4.912 9.928 4.981 10.053 C 5.057 10.191,5.220 10.348,5.337 10.398 C 5.438 10.441,5.765 10.440,5.870 10.396 C 5.980 10.350,6.186 10.139,6.249 10.008 L 6.300 9.902 6.300 6.980 L 6.300 4.058 6.250 3.960 C 6.162 3.785,6.071 3.691,5.920 3.619 C 5.748 3.537,5.561 3.514,5.408 3.556 M8.208 3.556 C 8.011 3.610,7.861 3.741,7.750 3.960 L 7.700 4.058 7.700 7.000 L 7.700 9.942 7.757 10.054 C 7.878 10.292,8.158 10.477,8.400 10.477 C 8.640 10.477,8.888 10.317,9.029 10.070 L 9.100 9.946 9.100 7.002 L 9.100 4.058 9.050 3.960 C 8.962 3.785,8.871 3.691,8.720 3.619 C 8.548 3.537,8.361 3.514,8.208 3.556 " fill="#1A1C1F" stroke="none" fill-rule="evenodd"></path></svg>