<svg width="32" height="32" viewBox="0 0 32 32" fill="none" xmlns="http://www.w3.org/2000/svg"><path d="M9.884 7.117 C 9.566 7.216,9.332 7.374,9.044 7.681 C 8.682 8.068,8.588 8.320,8.531 9.056 C 8.467 9.881,8.468 22.153,8.532 22.907 C 8.597 23.679,8.691 23.934,9.056 24.328 C 9.479 24.785,9.767 24.917,10.409 24.949 L 10.924 24.974 11.369 24.737 C 12.310 24.235,19.175 19.898,21.583 18.284 C 23.276 17.150,23.440 16.948,23.438 16.000 C 23.434 14.939,23.347 14.852,20.293 12.880 C 17.002 10.753,11.842 7.498,11.379 7.257 C 10.987 7.053,10.296 6.988,9.884 7.117 M11.989 9.982 C 13.888 11.175,19.650 14.843,20.573 15.446 C 20.991 15.719,21.333 15.966,21.333 15.995 C 21.333 16.100,20.857 16.413,15.920 19.554 C 12.491 21.736,11.098 22.608,10.793 22.763 L 10.573 22.875 10.541 22.678 C 10.481 22.317,10.502 9.120,10.562 9.120 C 10.592 9.120,11.234 9.508,11.989 9.982 " fill="#1A1C1F" stroke="none" fill-rule="evenodd"></path></svg>