<svg width="14" height="14" viewBox="0 0 14 14" fill="none" xmlns="http://www.w3.org/2000/svg"><path d="M3.968 2.864 C 3.827 2.914,3.584 3.153,3.547 3.278 C 3.526 3.347,3.516 4.322,3.507 7.012 L 3.494 10.653 3.546 10.755 C 3.680 11.019,3.929 11.184,4.193 11.187 C 4.325 11.188,4.361 11.177,4.597 11.054 C 5.070 10.809,8.574 8.785,9.496 8.224 C 10.062 7.879,10.192 7.782,10.294 7.628 C 10.583 7.188,10.552 6.648,10.216 6.266 C 10.053 6.081,9.827 5.943,7.152 4.398 C 4.396 2.807,4.425 2.822,4.207 2.825 C 4.133 2.826,4.025 2.844,3.968 2.864 " fill="#1A1C1F" stroke="none" fill-rule="evenodd"></path></svg>