<svg width="20" height="20" viewBox="0 0 20 20" fill="none" xmlns="http://www.w3.org/2000/svg"><path d="M5.611 4.114 C 5.397 4.214,5.182 4.425,5.088 4.628 L 5.017 4.783 5.006 10.005 L 4.995 15.226 5.066 15.366 C 5.170 15.569,5.388 15.793,5.582 15.894 C 5.716 15.963,5.798 15.981,5.983 15.982 C 6.212 15.983,6.226 15.978,6.667 15.735 C 7.809 15.106,12.071 12.649,13.450 11.824 C 14.499 11.197,14.689 11.037,14.852 10.635 C 15.041 10.170,15.035 9.731,14.833 9.305 C 14.650 8.918,14.475 8.777,13.300 8.076 C 11.989 7.293,7.152 4.513,6.589 4.219 C 6.260 4.047,6.217 4.033,6.008 4.034 C 5.841 4.034,5.739 4.055,5.611 4.114 " fill="#1A1C1F" stroke="none" fill-rule="evenodd"></path></svg>