<svg width="12" height="12" viewBox="0 0 12 12" fill="none" xmlns="http://www.w3.org/2000/svg"><path d="M3.479 2.427 C 3.299 2.476,3.114 2.638,3.036 2.815 C 2.995 2.907,2.995 2.919,3.005 6.019 C 3.017 9.505,3.004 9.237,3.163 9.401 C 3.252 9.492,3.418 9.575,3.547 9.593 C 3.644 9.606,3.820 9.546,4.035 9.427 C 4.543 9.148,7.309 7.549,8.203 7.019 C 8.553 6.811,8.654 6.740,8.736 6.649 C 8.865 6.504,8.952 6.325,8.984 6.142 C 9.026 5.893,8.938 5.582,8.768 5.383 C 8.680 5.281,8.477 5.142,7.980 4.846 C 7.046 4.291,4.287 2.705,3.925 2.517 C 3.687 2.393,3.641 2.384,3.479 2.427 " fill="#1A1C1F" stroke="none" fill-rule="evenodd"></path></svg>