<svg width="12" height="12" viewBox="0 0 12 12" fill="none" xmlns="http://www.w3.org/2000/svg"><path d="M3.470 2.418 C 3.294 2.464,3.115 2.618,3.036 2.790 L 2.991 2.890 2.990 5.930 C 2.990 7.602,2.997 9.031,3.007 9.105 C 3.035 9.336,3.202 9.519,3.452 9.592 C 3.651 9.649,3.713 9.621,5.210 8.765 C 7.450 7.485,8.549 6.831,8.705 6.683 C 8.983 6.419,9.072 6.005,8.930 5.627 C 8.817 5.324,8.774 5.294,6.740 4.114 C 5.340 3.303,4.238 2.672,3.972 2.530 C 3.749 2.411,3.612 2.380,3.470 2.418 M4.680 4.375 C 6.198 5.201,7.580 5.975,7.580 6.000 C 7.580 6.044,4.263 7.871,4.235 7.843 C 4.209 7.817,4.188 4.964,4.209 4.474 C 4.223 4.174,4.228 4.139,4.257 4.150 C 4.275 4.157,4.466 4.258,4.680 4.375 " fill="#1A1C1F" stroke="none" fill-rule="evenodd"></path></svg>