<svg width="48" height="48" viewBox="0 0 48 48" fill="none" xmlns="http://www.w3.org/2000/svg"><path d="M13.152 9.354 C 12.522 9.672,11.828 10.398,11.516 11.062 L 11.279 11.571 11.299 24.047 L 11.320 36.523 11.585 37.063 C 12.126 38.161,13.166 38.877,14.317 38.943 C 14.673 38.964,15.122 38.937,15.354 38.881 C 15.943 38.740,18.761 37.039,29.440 30.375 C 35.021 26.893,35.872 26.321,36.168 25.855 C 36.541 25.266,36.676 24.761,36.672 23.960 C 36.667 22.679,36.247 21.985,34.951 21.114 C 33.053 19.838,17.029 9.929,15.995 9.392 C 15.602 9.188,15.467 9.163,14.600 9.137 C 13.660 9.109,13.630 9.114,13.152 9.354 M15.080 11.185 C 15.491 11.329,17.455 12.526,26.200 17.959 C 31.636 21.337,33.946 22.798,34.202 23.020 C 34.541 23.312,34.640 23.543,34.640 24.042 C 34.640 24.802,34.717 24.743,29.480 27.961 C 27.632 29.096,24.158 31.249,21.760 32.745 C 15.223 36.823,14.990 36.960,14.560 36.960 C 14.226 36.960,13.841 36.785,13.600 36.524 L 13.400 36.307 13.379 24.041 L 13.358 11.775 13.575 11.517 C 13.973 11.043,14.404 10.949,15.080 11.185 " fill="#1A1C1F" stroke="none" fill-rule="evenodd"></path></svg>