<svg width="28" height="28" viewBox="0 0 28 28" fill="none" xmlns="http://www.w3.org/2000/svg"><path d="M8.678 6.221 C 8.388 6.303,8.174 6.443,7.913 6.721 C 7.611 7.044,7.518 7.280,7.466 7.851 C 7.443 8.114,7.422 11.044,7.422 14.361 L 7.420 20.392 7.545 20.708 C 7.642 20.950,7.741 21.094,7.977 21.331 C 8.362 21.717,8.653 21.840,9.185 21.840 C 9.500 21.840,9.588 21.820,9.879 21.681 C 10.256 21.500,11.684 20.615,15.027 18.489 C 19.715 15.508,20.167 15.190,20.401 14.707 C 20.490 14.524,20.507 14.413,20.507 14.000 C 20.507 13.405,20.419 13.183,20.051 12.850 C 19.630 12.470,15.882 10.034,11.708 7.430 C 9.745 6.205,9.770 6.218,9.287 6.187 C 9.029 6.170,8.816 6.182,8.678 6.221 M10.490 8.734 C 14.260 11.103,18.713 13.964,18.713 14.017 C 18.713 14.074,11.498 18.683,9.940 19.620 L 9.263 20.028 9.234 19.546 C 9.194 18.891,9.185 8.050,9.224 8.011 C 9.242 7.994,9.263 7.980,9.273 7.980 C 9.282 7.980,9.830 8.319,10.490 8.734 " fill="#1A1C1F" stroke="none" fill-rule="evenodd"></path></svg>