<svg width="64" height="64" viewBox="0 0 64 64" fill="none" xmlns="http://www.w3.org/2000/svg"><path d="M18.286 12.466 C 17.447 12.863,16.634 13.695,16.160 14.642 L 15.787 15.389 15.798 28.681 C 15.805 35.992,15.842 43.557,15.880 45.493 L 15.951 49.013 16.231 49.547 C 16.516 50.090,17.295 50.929,17.869 51.311 C 18.704 51.868,20.214 52.088,21.283 51.808 C 22.009 51.619,23.662 50.564,38.027 41.121 C 46.994 35.227,47.211 35.067,47.718 33.997 C 48.351 32.658,48.337 31.239,47.678 29.899 C 47.413 29.362,47.218 29.141,46.636 28.718 C 44.770 27.361,33.564 19.919,26.773 15.526 C 21.381 12.038,21.627 12.160,19.956 12.160 C 19.051 12.160,18.859 12.196,18.286 12.466 M20.853 15.343 C 21.775 15.779,26.192 18.649,37.547 26.189 C 43.910 30.415,44.990 31.178,45.134 31.553 C 45.275 31.922,45.182 32.500,44.938 32.773 C 44.431 33.338,41.263 35.517,33.707 40.498 C 24.462 46.592,20.946 48.792,20.267 48.907 C 19.785 48.988,19.320 48.786,19.053 48.379 C 18.888 48.126,18.877 46.903,18.904 31.920 C 18.921 22.618,18.974 15.649,19.029 15.535 C 19.134 15.318,19.662 15.051,20.000 15.044 C 20.117 15.042,20.501 15.176,20.853 15.343 " fill="#1A1C1F" stroke="none" fill-rule="evenodd"></path></svg>