<svg width="28" height="28" viewBox="0 0 28 28" fill="none" xmlns="http://www.w3.org/2000/svg"><path d="M8.900 6.441 C 8.506 6.541,8.120 6.823,7.890 7.181 C 7.768 7.372,7.734 7.485,7.698 7.825 C 7.674 8.056,7.655 10.907,7.655 14.327 L 7.654 20.417 7.800 20.671 C 7.984 20.992,8.326 21.327,8.617 21.471 C 8.810 21.566,8.913 21.582,9.310 21.583 C 9.945 21.583,9.755 21.687,13.510 19.296 C 17.162 16.971,19.433 15.496,19.741 15.247 C 20.093 14.964,20.235 14.720,20.302 14.287 C 20.410 13.591,20.198 13.078,19.637 12.678 C 19.015 12.235,14.185 9.123,11.713 7.573 C 10.216 6.634,9.834 6.442,9.403 6.416 C 9.224 6.406,8.997 6.417,8.900 6.441 " fill="#1A1C1F" stroke="none" fill-rule="evenodd"></path></svg>