<svg width="16" height="16" viewBox="0 0 16 16" fill="none" xmlns="http://www.w3.org/2000/svg"><path d="M4.557 3.263 C 4.420 3.312,4.226 3.458,4.149 3.570 C 4.015 3.765,4.018 3.685,4.007 7.293 C 3.997 10.900,4.017 12.185,4.086 12.349 C 4.178 12.564,4.479 12.764,4.753 12.791 C 4.879 12.803,4.918 12.792,5.133 12.686 C 6.076 12.222,11.160 9.258,11.578 8.929 C 11.700 8.833,11.841 8.621,11.920 8.413 C 12.069 8.026,11.963 7.470,11.683 7.164 C 11.528 6.994,11.254 6.819,9.933 6.048 C 7.504 4.630,5.196 3.309,5.069 3.263 C 4.946 3.219,4.680 3.219,4.557 3.263 M6.475 5.964 C 7.495 6.520,9.837 7.821,9.990 7.916 L 10.111 7.992 9.942 8.099 C 9.501 8.377,5.655 10.491,5.632 10.468 C 5.607 10.443,5.608 5.654,5.632 5.593 C 5.643 5.568,5.665 5.547,5.681 5.547 C 5.697 5.547,6.055 5.734,6.475 5.964 " fill="#1A1C1F" stroke="none" fill-rule="evenodd"></path></svg>