<svg width="16" height="16" viewBox="0 0 16 16" fill="none" xmlns="http://www.w3.org/2000/svg"><path d="M4.580 3.253 C 4.387 3.311,4.141 3.543,4.048 3.753 C 3.994 3.876,3.993 3.894,4.007 8.025 C 4.019 11.842,4.024 12.183,4.066 12.299 C 4.161 12.562,4.480 12.781,4.774 12.784 C 4.903 12.786,4.965 12.765,5.254 12.622 C 6.135 12.188,11.188 9.237,11.578 8.930 C 11.700 8.833,11.841 8.621,11.920 8.413 C 12.069 8.026,11.963 7.470,11.683 7.164 C 11.528 6.994,11.254 6.819,9.933 6.048 C 7.504 4.630,5.196 3.309,5.069 3.263 C 4.962 3.225,4.692 3.220,4.580 3.253 " fill="#1A1C1F" stroke="none" fill-rule="evenodd"></path></svg>