<svg width="24" height="24" viewBox="0 0 24 24" fill="none" xmlns="http://www.w3.org/2000/svg"><path d="M7.366 5.118 C 7.063 5.230,6.805 5.405,6.550 5.672 C 6.299 5.936,6.188 6.133,6.089 6.490 C 6.025 6.721,6.020 7.138,6.020 12.000 C 6.020 17.617,6.014 17.449,6.214 17.878 C 6.315 18.096,6.756 18.571,6.979 18.701 C 7.530 19.025,8.337 19.075,8.845 18.818 C 9.264 18.605,13.763 15.812,15.880 14.450 C 17.450 13.439,17.686 13.227,17.877 12.657 C 18.060 12.107,18.025 11.644,17.758 11.116 C 17.481 10.567,17.304 10.442,13.280 7.932 C 10.295 6.071,9.201 5.400,8.832 5.207 C 8.566 5.068,8.539 5.063,8.068 5.051 C 7.659 5.040,7.546 5.051,7.366 5.118 M10.780 8.740 C 14.172 10.864,15.731 11.853,15.870 11.968 C 15.944 12.030,16.015 11.984,11.200 14.999 C 9.561 16.025,8.171 16.897,8.110 16.937 L 8.000 17.009 8.000 12.004 L 8.000 6.999 8.310 7.193 C 8.480 7.300,9.592 7.996,10.780 8.740 " fill="#1A1C1F" stroke="none" fill-rule="evenodd"></path></svg>