<svg width="12" height="12" viewBox="0 0 12 12" fill="none" xmlns="http://www.w3.org/2000/svg"><path d="M8.800 2.446 C 8.687 2.488,8.230 2.807,6.590 3.987 C 5.393 4.849,4.937 5.188,4.779 5.334 C 4.436 5.652,4.406 6.216,4.713 6.594 C 4.790 6.689,5.137 6.955,6.030 7.603 C 7.388 8.588,8.652 9.484,8.775 9.547 C 8.862 9.592,9.089 9.594,9.219 9.550 C 9.338 9.511,9.467 9.393,9.546 9.252 L 9.600 9.155 9.600 6.000 L 9.600 2.845 9.520 2.725 C 9.438 2.602,9.362 2.533,9.242 2.471 C 9.152 2.425,8.894 2.410,8.800 2.446 M2.750 3.063 C 2.631 3.124,2.508 3.253,2.458 3.368 L 2.413 3.470 2.404 5.991 L 2.395 8.511 2.440 8.616 C 2.504 8.764,2.686 8.929,2.833 8.972 C 2.951 9.006,3.044 9.000,3.217 8.949 C 3.318 8.919,3.478 8.779,3.534 8.672 C 3.586 8.572,3.598 8.064,3.598 5.990 C 3.598 3.789,3.588 3.420,3.521 3.312 C 3.462 3.217,3.352 3.124,3.231 3.068 C 3.096 3.004,2.868 3.002,2.750 3.063 " fill="#1A1C1F" stroke="none" fill-rule="evenodd"></path></svg>