<svg width="16" height="16" viewBox="0 0 16 16" fill="none" xmlns="http://www.w3.org/2000/svg"><path d="M3.690 3.289 C 3.507 3.377,3.350 3.522,3.275 3.675 L 3.213 3.800 3.206 8.010 L 3.199 12.220 3.265 12.333 C 3.368 12.509,3.607 12.712,3.766 12.759 C 3.842 12.782,3.935 12.800,3.973 12.800 C 4.089 12.800,4.324 12.721,4.467 12.634 C 4.729 12.474,8.472 9.778,9.205 9.221 C 9.749 8.808,9.874 8.651,9.963 8.272 C 10.041 7.941,9.966 7.549,9.770 7.272 C 9.724 7.207,9.602 7.086,9.498 7.004 C 8.803 6.449,4.872 3.613,4.410 3.334 C 4.280 3.255,4.234 3.242,4.044 3.234 C 3.856 3.225,3.808 3.233,3.690 3.289 M11.853 4.027 C 11.795 4.037,11.714 4.059,11.674 4.075 C 11.566 4.119,11.367 4.312,11.285 4.452 L 11.213 4.573 11.206 7.982 L 11.198 11.390 11.272 11.524 C 11.441 11.836,11.671 11.983,11.988 11.981 C 12.315 11.979,12.569 11.818,12.731 11.509 L 12.800 11.379 12.798 8.523 C 12.796 5.292,12.781 4.600,12.708 4.446 C 12.575 4.166,12.180 3.972,11.853 4.027 M6.227 6.551 C 8.042 7.902,8.155 7.990,8.117 8.025 C 8.037 8.097,7.418 8.564,6.213 9.461 L 4.840 10.484 4.823 10.329 C 4.813 10.243,4.804 9.119,4.803 7.830 L 4.800 5.487 4.887 5.553 C 4.934 5.589,5.537 6.038,6.227 6.551 " fill="#1A1C1F" stroke="none" fill-rule="evenodd"></path></svg>