<svg width="14" height="14" viewBox="0 0 14 14" fill="none" xmlns="http://www.w3.org/2000/svg"><path d="M10.264 2.854 C 10.158 2.894,9.835 3.116,8.526 4.051 C 6.718 5.341,5.828 5.996,5.588 6.214 C 5.430 6.357,5.339 6.507,5.286 6.709 C 5.194 7.063,5.304 7.506,5.549 7.758 C 5.694 7.908,6.384 8.414,8.657 10.037 C 10.303 11.213,10.311 11.218,10.566 11.190 C 10.799 11.164,11.033 10.992,11.152 10.760 C 11.200 10.665,11.200 10.661,11.200 6.992 L 11.200 3.319 11.107 3.179 C 11.011 3.035,10.923 2.955,10.782 2.883 C 10.677 2.828,10.377 2.812,10.264 2.854 M3.208 3.579 C 3.062 3.648,2.934 3.780,2.867 3.932 L 2.815 4.048 2.804 6.990 C 2.794 9.919,2.794 9.932,2.842 10.040 C 2.910 10.193,3.082 10.368,3.227 10.432 C 3.403 10.509,3.634 10.506,3.793 10.425 C 3.924 10.357,4.046 10.234,4.140 10.073 L 4.202 9.967 4.194 7.008 C 4.188 4.665,4.180 4.029,4.156 3.955 C 4.116 3.830,3.962 3.677,3.794 3.592 C 3.611 3.501,3.384 3.496,3.208 3.579 M9.783 5.637 C 9.802 6.465,9.783 9.094,9.757 9.137 C 9.738 9.169,6.876 7.033,6.889 6.996 C 6.901 6.959,9.714 4.856,9.742 4.863 C 9.756 4.867,9.772 5.160,9.783 5.637 " fill="#1A1C1F" stroke="none" fill-rule="evenodd"></path></svg>