<svg width="12" height="12" viewBox="0 0 12 12" fill="none" xmlns="http://www.w3.org/2000/svg"><path d="M2.847 2.438 C 2.690 2.478,2.503 2.639,2.436 2.791 C 2.415 2.839,2.409 3.460,2.405 6.007 L 2.399 9.165 2.449 9.250 C 2.534 9.395,2.698 9.529,2.841 9.569 C 3.064 9.631,3.157 9.600,3.555 9.327 C 4.283 8.829,6.704 7.079,7.081 6.778 C 7.386 6.535,7.487 6.346,7.489 6.010 C 7.491 5.670,7.405 5.488,7.140 5.265 C 6.786 4.969,3.458 2.573,3.251 2.465 C 3.182 2.429,2.943 2.413,2.847 2.438 M8.874 3.021 C 8.762 3.049,8.685 3.094,8.577 3.195 C 8.401 3.360,8.413 3.181,8.405 5.748 C 8.398 8.010,8.408 8.525,8.465 8.660 C 8.510 8.769,8.672 8.916,8.783 8.949 C 8.956 9.000,9.049 9.006,9.167 8.972 C 9.308 8.931,9.487 8.773,9.553 8.630 L 9.600 8.530 9.598 6.400 C 9.597 4.239,9.583 3.455,9.543 3.354 C 9.502 3.254,9.343 3.104,9.232 3.062 C 9.099 3.013,8.970 2.998,8.874 3.021 " fill="#1A1C1F" stroke="none" fill-rule="evenodd"></path></svg>