<svg width="14" height="14" viewBox="0 0 14 14" fill="none" xmlns="http://www.w3.org/2000/svg"><path d="M3.286 2.845 C 3.137 2.894,2.916 3.086,2.870 3.208 C 2.813 3.359,2.801 4.054,2.800 7.298 L 2.800 10.665 2.850 10.763 C 3.000 11.058,3.204 11.184,3.528 11.181 C 3.653 11.180,3.712 11.167,3.789 11.124 C 3.917 11.052,4.859 10.387,6.370 9.302 C 8.392 7.850,8.492 7.770,8.613 7.531 C 8.782 7.196,8.791 6.839,8.639 6.510 C 8.512 6.237,8.289 6.063,5.602 4.145 C 3.575 2.697,3.808 2.846,3.557 2.834 C 3.442 2.829,3.320 2.833,3.286 2.845 M10.228 3.568 C 10.100 3.627,9.948 3.767,9.890 3.881 C 9.860 3.938,9.835 4.054,9.822 4.186 C 9.811 4.303,9.801 5.651,9.801 7.182 L 9.800 9.965 9.850 10.063 C 9.936 10.234,10.029 10.331,10.178 10.405 C 10.367 10.500,10.611 10.506,10.792 10.422 C 10.931 10.357,11.093 10.188,11.158 10.040 C 11.205 9.934,11.205 9.905,11.195 6.979 C 11.186 4.293,11.182 4.017,11.147 3.936 C 11.090 3.805,10.875 3.606,10.743 3.561 C 10.591 3.510,10.350 3.513,10.228 3.568 " fill="#1A1C1F" stroke="none" fill-rule="evenodd"></path></svg>