<svg width="48" height="48" viewBox="0 0 48 48" fill="none" xmlns="http://www.w3.org/2000/svg"><path d="M9.360 9.342 L 9.058 9.643 8.998 10.600 C 8.965 11.126,8.955 17.552,8.975 24.879 C 9.016 39.553,8.975 38.519,9.520 38.817 C 10.072 39.118,10.821 38.821,10.933 38.257 C 10.965 38.094,10.993 31.624,10.996 23.880 C 11.000 10.043,10.997 9.796,10.844 9.541 C 10.663 9.243,10.289 9.040,9.918 9.040 C 9.728 9.040,9.583 9.118,9.360 9.342 M34.227 9.431 C 32.298 10.453,18.631 18.921,15.452 21.064 C 13.930 22.090,13.577 22.616,13.566 23.880 C 13.563 24.276,13.588 24.731,13.622 24.890 C 13.719 25.349,14.261 26.111,14.740 26.466 C 15.739 27.203,22.094 31.211,29.120 35.535 C 33.123 37.998,34.315 38.688,34.835 38.843 C 35.601 39.071,36.705 38.934,37.341 38.532 C 37.507 38.427,37.846 38.122,38.095 37.853 C 38.720 37.178,38.883 36.719,38.966 35.400 C 39.051 34.053,39.051 14.056,38.966 12.640 C 38.918 11.834,38.856 11.442,38.723 11.095 C 38.483 10.469,37.752 9.688,37.101 9.363 C 36.645 9.136,36.557 9.120,35.714 9.120 C 34.822 9.120,34.808 9.123,34.227 9.431 M36.440 11.273 C 36.581 11.352,36.719 11.522,36.775 11.684 C 36.848 11.893,36.872 14.910,36.875 24.094 L 36.880 36.228 36.664 36.485 C 36.418 36.777,36.039 36.960,35.680 36.960 C 35.294 36.960,34.685 36.613,30.640 34.082 C 26.116 31.252,23.380 29.558,19.743 27.336 C 16.322 25.245,15.935 24.988,15.751 24.687 C 15.585 24.415,15.542 23.619,15.678 23.363 C 15.843 23.055,16.955 22.341,25.680 16.945 C 33.746 11.956,34.877 11.267,35.200 11.148 C 35.535 11.025,36.101 11.082,36.440 11.273 " fill="#1A1C1F" stroke="none" fill-rule="evenodd"></path></svg>