<svg width="14" height="14" viewBox="0 0 14 14" fill="none" xmlns="http://www.w3.org/2000/svg"><path d="M10.290 2.839 C 10.214 2.855,9.897 3.074,8.435 4.118 C 6.697 5.360,5.781 6.033,5.598 6.202 C 5.243 6.530,5.155 7.028,5.370 7.495 C 5.486 7.746,5.580 7.824,6.883 8.765 C 8.768 10.125,10.106 11.072,10.239 11.140 C 10.333 11.188,10.595 11.195,10.725 11.153 C 10.902 11.095,11.040 10.970,11.142 10.775 L 11.200 10.665 11.200 6.992 L 11.200 3.319 11.107 3.179 C 10.948 2.941,10.793 2.849,10.529 2.836 C 10.430 2.831,10.322 2.832,10.290 2.839 M3.208 3.579 C 3.062 3.648,2.934 3.780,2.867 3.932 L 2.815 4.048 2.804 6.990 C 2.794 9.919,2.794 9.932,2.842 10.040 C 2.910 10.193,3.082 10.368,3.227 10.432 C 3.403 10.509,3.634 10.506,3.793 10.425 C 3.924 10.357,4.046 10.234,4.140 10.073 L 4.202 9.967 4.194 7.008 C 4.188 4.665,4.180 4.029,4.156 3.955 C 4.116 3.830,3.962 3.677,3.794 3.592 C 3.611 3.501,3.384 3.496,3.208 3.579 " fill="#1A1C1F" stroke="none" fill-rule="evenodd"></path></svg>