<svg width="64" height="64" viewBox="0 0 64 64" fill="none" xmlns="http://www.w3.org/2000/svg"><path d="M48.888 12.225 C 48.177 12.576,48.167 12.610,48.091 14.971 C 47.987 18.172,47.995 50.112,48.099 50.652 C 48.219 51.273,48.516 51.648,49.034 51.831 C 49.396 51.959,49.542 51.961,49.966 51.842 C 50.803 51.608,50.794 51.648,50.907 47.806 C 51.049 42.975,50.922 13.116,50.758 12.756 C 50.621 12.454,49.891 12.052,49.486 12.056 C 49.344 12.057,49.074 12.133,48.888 12.225 M15.500 12.477 C 14.710 12.875,13.853 13.760,13.360 14.686 L 13.013 15.337 13.013 31.993 L 13.013 48.648 13.241 49.098 C 14.251 51.094,15.710 52.031,17.644 51.924 C 19.083 51.844,18.856 51.983,34.453 41.657 C 44.190 35.212,44.542 34.951,45.076 33.791 C 45.354 33.186,45.385 33.010,45.385 32.000 C 45.385 30.990,45.354 30.814,45.076 30.209 C 44.677 29.343,44.143 28.859,41.860 27.294 C 39.168 25.449,25.939 16.748,21.160 13.679 C 18.852 12.196,18.929 12.227,17.440 12.183 C 16.184 12.145,16.148 12.151,15.500 12.477 " fill="#1A1C1F" stroke="none" fill-rule="evenodd"></path></svg>