<svg width="28" height="28" viewBox="0 0 28 28" fill="none" xmlns="http://www.w3.org/2000/svg"><path d="M7.321 6.221 C 6.886 6.385,6.492 6.764,6.253 7.250 L 6.111 7.538 6.124 14.048 L 6.137 20.557 6.273 20.836 C 6.448 21.192,6.788 21.532,7.129 21.690 C 7.524 21.875,8.111 21.894,8.456 21.735 C 8.757 21.595,9.635 21.015,11.573 19.671 C 16.087 16.541,17.809 15.297,18.034 15.003 C 18.426 14.489,18.457 13.656,18.105 13.087 C 17.959 12.851,16.153 11.532,11.783 8.471 C 8.516 6.181,8.586 6.222,7.908 6.182 C 7.615 6.165,7.439 6.177,7.321 6.221 M20.802 7.049 C 20.572 7.114,20.348 7.285,20.230 7.486 L 20.113 7.685 20.113 14.020 L 20.113 20.355 20.258 20.556 C 20.423 20.786,20.780 21.000,21.000 21.000 C 21.223 21.000,21.577 20.786,21.747 20.549 L 21.896 20.342 21.876 14.033 C 21.861 9.135,21.844 7.692,21.799 7.583 C 21.638 7.195,21.171 6.945,20.802 7.049 M12.250 10.942 C 14.483 12.503,16.359 13.826,16.419 13.883 L 16.528 13.986 16.279 14.195 C 15.721 14.664,8.092 20.020,7.982 20.020 C 7.937 20.020,7.887 15.342,7.887 11.210 L 7.887 7.876 8.038 7.990 C 8.122 8.053,10.017 9.382,12.250 10.942 " fill="#1A1C1F" stroke="none" fill-rule="evenodd"></path></svg>