<svg width="32" height="32" viewBox="0 0 32 32" fill="none" xmlns="http://www.w3.org/2000/svg"><path d="M8.367 7.115 C 7.861 7.311,7.440 7.704,7.219 8.187 C 7.098 8.452,7.065 8.620,7.028 9.171 C 7.004 9.536,6.990 12.908,6.998 16.664 L 7.013 23.493 7.161 23.793 C 7.381 24.242,7.686 24.556,8.095 24.758 C 8.398 24.907,8.520 24.936,8.916 24.952 C 9.321 24.968,9.418 24.953,9.668 24.839 C 10.473 24.470,19.794 17.955,20.458 17.298 C 20.820 16.939,20.969 16.558,20.966 16.000 C 20.963 15.216,20.795 14.933,19.958 14.303 C 18.060 12.875,11.144 8.046,10.021 7.364 C 9.568 7.090,9.554 7.085,9.061 7.063 C 8.711 7.047,8.502 7.063,8.367 7.115 M23.774 8.053 C 23.505 8.134,23.253 8.327,23.120 8.556 L 22.987 8.783 22.987 16.005 L 22.987 23.228 23.174 23.506 C 23.404 23.848,23.613 23.964,24.000 23.964 C 24.390 23.964,24.599 23.846,24.832 23.497 L 25.022 23.210 25.003 16.018 C 24.982 8.030,25.012 8.624,24.623 8.282 C 24.517 8.189,24.339 8.087,24.228 8.057 C 23.999 7.993,23.975 7.993,23.774 8.053 M14.000 12.506 C 16.552 14.290,18.694 15.798,18.759 15.857 C 18.857 15.944,18.867 15.979,18.813 16.043 C 18.650 16.239,17.321 17.195,13.040 20.193 C 10.081 22.266,9.131 22.909,9.092 22.870 C 9.076 22.854,9.048 19.723,9.029 15.914 L 8.996 8.987 9.178 9.125 C 9.278 9.200,11.448 10.722,14.000 12.506 " fill="#1A1C1F" stroke="none" fill-rule="evenodd"></path></svg>