<svg width="12" height="12" viewBox="0 0 12 12" fill="none" xmlns="http://www.w3.org/2000/svg"><path d="M2.869 2.417 C 2.777 2.434,2.631 2.514,2.566 2.583 C 2.542 2.609,2.491 2.683,2.451 2.749 L 2.380 2.868 2.381 5.539 C 2.382 8.376,2.395 9.142,2.444 9.260 C 2.485 9.357,2.694 9.546,2.794 9.576 C 2.891 9.605,3.065 9.607,3.156 9.581 C 3.248 9.555,3.438 9.426,4.450 8.702 C 6.033 7.570,7.086 6.797,7.226 6.663 C 7.414 6.483,7.511 6.225,7.495 5.944 C 7.479 5.636,7.371 5.430,7.122 5.232 C 6.784 4.963,4.035 2.987,3.475 2.611 C 3.207 2.432,3.183 2.420,3.070 2.411 C 3.004 2.407,2.913 2.409,2.869 2.417 M8.839 3.026 C 8.687 3.069,8.528 3.207,8.470 3.348 C 8.416 3.475,8.402 4.138,8.401 6.420 L 8.400 8.530 8.463 8.639 C 8.549 8.789,8.697 8.929,8.813 8.968 C 9.101 9.066,9.423 8.929,9.561 8.650 L 9.610 8.550 9.616 6.005 L 9.621 3.461 9.579 3.378 C 9.519 3.260,9.364 3.100,9.270 3.059 C 9.160 3.010,8.952 2.995,8.839 3.026 M4.684 4.924 C 5.592 5.600,6.032 5.931,6.089 5.983 C 6.101 5.993,6.096 6.010,6.076 6.025 C 5.811 6.235,5.367 6.570,4.583 7.154 L 3.630 7.863 3.617 7.746 C 3.600 7.592,3.596 4.489,3.613 4.294 C 3.621 4.198,3.633 4.146,3.646 4.154 C 3.657 4.161,4.124 4.507,4.684 4.924 " fill="#1A1C1F" stroke="none" fill-rule="evenodd"></path></svg>