<svg width="14" height="14" viewBox="0 0 14 14" fill="none" xmlns="http://www.w3.org/2000/svg"><path d="M3.201 2.895 C 3.049 2.971,2.936 3.088,2.849 3.260 L 2.800 3.358 2.800 7.012 C 2.800 10.661,2.800 10.665,2.848 10.760 C 2.967 10.992,3.211 11.170,3.439 11.192 C 3.682 11.215,3.711 11.198,5.017 10.270 C 7.395 8.580,8.320 7.900,8.467 7.733 C 8.684 7.486,8.780 7.162,8.732 6.834 C 8.675 6.443,8.565 6.307,7.898 5.807 C 7.182 5.270,4.910 3.638,4.091 3.072 C 3.769 2.850,3.706 2.823,3.504 2.823 C 3.372 2.823,3.319 2.836,3.201 2.895 M10.220 3.575 C 10.075 3.646,9.881 3.845,9.846 3.957 C 9.825 4.026,9.815 4.782,9.806 6.994 L 9.795 9.940 9.856 10.066 C 9.929 10.214,10.087 10.368,10.239 10.437 C 10.399 10.511,10.636 10.505,10.793 10.425 C 10.928 10.355,11.081 10.199,11.154 10.056 L 11.204 9.957 11.196 6.991 C 11.186 3.628,11.207 3.944,10.981 3.723 C 10.830 3.576,10.698 3.523,10.478 3.523 C 10.367 3.523,10.296 3.538,10.220 3.575 M5.565 5.822 C 6.908 6.824,7.093 6.966,7.093 7.001 C 7.093 7.037,6.461 7.523,5.075 8.550 L 4.235 9.172 4.220 9.037 C 4.212 8.963,4.204 7.979,4.203 6.851 C 4.201 5.214,4.206 4.806,4.229 4.824 C 4.245 4.836,4.846 5.285,5.565 5.822 " fill="#1A1C1F" stroke="none" fill-rule="evenodd"></path></svg>