<svg width="28" height="28" viewBox="0 0 28 28" fill="none" xmlns="http://www.w3.org/2000/svg"><path d="M7.649 6.434 C 7.242 6.520,6.703 6.995,6.470 7.471 L 6.343 7.732 6.357 13.957 L 6.371 20.183 6.478 20.501 C 6.564 20.757,6.638 20.872,6.855 21.088 C 7.254 21.488,7.481 21.583,8.027 21.583 C 8.423 21.582,8.497 21.568,8.727 21.448 C 9.462 21.066,17.168 15.678,17.693 15.179 C 18.177 14.719,18.342 14.077,18.135 13.455 C 17.982 12.996,17.762 12.811,15.213 11.006 C 12.256 8.912,9.074 6.731,8.699 6.542 C 8.485 6.434,7.923 6.376,7.649 6.434 M20.531 7.276 C 20.300 7.349,20.199 7.428,20.064 7.642 L 19.927 7.858 19.927 14.001 L 19.927 20.144 20.064 20.350 C 20.235 20.609,20.422 20.721,20.733 20.750 C 20.928 20.769,21.018 20.751,21.184 20.665 C 21.563 20.467,21.576 20.426,21.620 19.329 C 21.641 18.798,21.649 16.064,21.637 13.253 C 21.616 8.178,21.601 7.698,21.456 7.524 C 21.303 7.339,20.775 7.198,20.531 7.276 " fill="#1A1C1F" stroke="none" fill-rule="evenodd"></path></svg>