<svg width="16" height="16" viewBox="0 0 16 16" fill="none" xmlns="http://www.w3.org/2000/svg"><path d="M11.653 3.298 C 11.296 3.481,6.791 6.737,6.368 7.118 C 6.030 7.422,5.911 7.978,6.083 8.443 C 6.219 8.810,6.262 8.847,8.187 10.244 C 9.538 11.225,11.379 12.540,11.536 12.635 C 11.676 12.721,11.912 12.800,12.027 12.800 C 12.065 12.800,12.158 12.782,12.234 12.759 C 12.393 12.712,12.632 12.509,12.735 12.333 L 12.801 12.220 12.794 8.010 C 12.786 3.281,12.806 3.711,12.581 3.486 C 12.412 3.317,12.242 3.243,12.000 3.232 C 11.823 3.224,11.783 3.231,11.653 3.298 M3.667 4.082 C 3.507 4.167,3.344 4.338,3.277 4.491 L 3.217 4.627 3.205 7.992 L 3.194 11.357 3.256 11.485 C 3.409 11.803,3.679 11.979,4.011 11.978 C 4.334 11.977,4.540 11.849,4.717 11.538 L 4.801 11.391 4.794 7.996 C 4.786 4.191,4.803 4.503,4.592 4.284 C 4.429 4.115,4.263 4.045,4.000 4.035 C 3.809 4.027,3.757 4.035,3.667 4.082 M11.181 6.402 C 11.204 7.315,11.181 10.392,11.152 10.441 C 11.140 10.460,10.545 10.031,9.533 9.275 C 8.653 8.616,7.916 8.061,7.895 8.040 C 7.862 8.007,7.867 7.994,7.932 7.941 C 8.221 7.704,11.112 5.552,11.133 5.557 C 11.150 5.562,11.168 5.884,11.181 6.402 " fill="#1A1C1F" stroke="none" fill-rule="evenodd"></path></svg>