<svg width="64" height="64" viewBox="0 0 64 64" fill="none" xmlns="http://www.w3.org/2000/svg"><path d="M13.894 12.173 C 13.340 12.333,13.206 12.656,13.111 14.059 C 12.998 15.729,12.999 45.937,13.112 48.879 C 13.214 51.537,13.240 51.620,14.034 51.842 C 14.458 51.961,14.605 51.959,14.972 51.831 C 15.598 51.613,15.858 51.169,15.953 50.157 C 15.996 49.704,16.006 41.162,15.976 31.176 C 15.914 10.791,16.000 12.663,15.112 12.260 C 14.623 12.038,14.412 12.023,13.894 12.173 M45.096 12.316 C 44.437 12.567,39.991 15.452,28.373 23.169 C 19.402 29.128,19.433 29.105,18.916 30.227 C 18.647 30.812,18.615 30.997,18.615 32.000 C 18.615 33.010,18.646 33.186,18.924 33.791 C 19.323 34.656,19.864 35.148,22.145 36.714 C 25.330 38.901,40.698 49.047,43.240 50.643 C 45.125 51.825,45.289 51.885,46.613 51.887 C 47.608 51.888,47.803 51.856,48.354 51.600 C 49.174 51.219,50.203 50.182,50.647 49.290 L 50.987 48.606 50.985 32.810 C 50.984 23.905,50.940 16.605,50.884 16.076 C 50.821 15.479,50.689 14.928,50.519 14.556 C 50.183 13.822,49.344 12.928,48.614 12.526 C 48.094 12.239,47.961 12.214,46.773 12.190 C 45.871 12.172,45.376 12.209,45.096 12.316 M47.246 15.212 C 47.881 15.588,47.837 14.449,47.871 31.627 C 47.889 40.309,47.873 47.623,47.836 47.880 C 47.756 48.445,47.420 48.812,46.895 48.911 C 46.217 49.038,45.626 48.696,38.347 43.965 C 33.986 41.131,24.734 34.981,23.356 34.000 C 22.738 33.560,22.072 33.018,21.877 32.796 C 21.558 32.432,21.528 32.343,21.578 31.903 C 21.623 31.503,21.708 31.348,22.043 31.054 C 22.483 30.669,31.622 24.571,38.753 19.905 C 46.511 14.829,46.555 14.805,47.246 15.212 " fill="#1A1C1F" stroke="none" fill-rule="evenodd"></path></svg>