<svg width="28" height="28" viewBox="0 0 28 28" fill="none" xmlns="http://www.w3.org/2000/svg"><path d="M19.715 6.200 C 19.588 6.223,19.264 6.408,18.712 6.775 C 16.929 7.959,12.360 11.162,10.796 12.324 C 9.782 13.077,9.658 13.259,9.654 14.001 C 9.652 14.397,9.753 14.724,9.961 14.997 C 10.101 15.179,10.638 15.593,12.044 16.601 C 14.271 18.197,18.046 20.809,19.087 21.474 L 19.623 21.817 20.113 21.816 C 20.540 21.815,20.636 21.800,20.860 21.695 C 21.186 21.543,21.543 21.188,21.689 20.869 C 21.875 20.463,21.893 19.744,21.876 13.438 L 21.861 7.630 21.753 7.308 C 21.541 6.674,20.950 6.234,20.253 6.189 C 20.061 6.177,19.819 6.182,19.715 6.200 M6.802 7.049 C 6.572 7.114,6.348 7.285,6.230 7.486 L 6.113 7.685 6.113 14.021 L 6.113 20.357 6.277 20.580 C 6.470 20.843,6.698 20.964,7.000 20.964 C 7.304 20.964,7.530 20.843,7.728 20.574 L 7.896 20.345 7.876 14.034 C 7.861 9.135,7.844 7.692,7.799 7.583 C 7.638 7.195,7.171 6.945,6.802 7.049 M20.053 8.108 C 20.097 8.273,20.101 20.001,20.057 20.046 C 20.024 20.078,19.178 19.493,14.700 16.339 C 12.358 14.690,11.697 14.209,11.558 14.055 C 11.474 13.963,11.476 13.958,11.698 13.793 C 12.144 13.461,19.951 7.988,19.984 7.984 C 20.003 7.982,20.034 8.038,20.053 8.108 " fill="#1A1C1F" stroke="none" fill-rule="evenodd"></path></svg>