<svg width="16" height="16" viewBox="0 0 16 16" fill="none" xmlns="http://www.w3.org/2000/svg"><path d="M3.787 3.241 C 3.608 3.299,3.424 3.449,3.305 3.632 L 3.200 3.795 3.200 8.012 L 3.200 12.230 3.275 12.348 C 3.317 12.413,3.412 12.522,3.488 12.590 C 3.753 12.828,4.104 12.855,4.411 12.661 C 4.643 12.514,5.467 11.932,6.983 10.844 C 9.621 8.951,9.684 8.902,9.835 8.618 C 10.108 8.107,10.018 7.468,9.623 7.105 C 9.415 6.914,8.116 5.958,6.207 4.592 C 4.811 3.593,4.420 3.323,4.287 3.268 C 4.145 3.209,3.921 3.197,3.787 3.241 M11.853 4.027 C 11.795 4.037,11.714 4.059,11.674 4.075 C 11.566 4.119,11.367 4.312,11.285 4.452 L 11.213 4.573 11.206 7.982 L 11.198 11.390 11.272 11.524 C 11.441 11.836,11.671 11.983,11.988 11.981 C 12.315 11.979,12.569 11.818,12.731 11.509 L 12.800 11.379 12.798 8.523 C 12.796 5.292,12.781 4.600,12.708 4.446 C 12.575 4.166,12.180 3.972,11.853 4.027 " fill="#1A1C1F" stroke="none" fill-rule="evenodd"></path></svg>