<svg width="28" height="28" viewBox="0 0 28 28" fill="none" xmlns="http://www.w3.org/2000/svg"><path d="M19.577 6.434 C 19.500 6.455,19.342 6.519,19.227 6.578 C 18.931 6.729,17.252 7.870,14.933 9.496 C 10.574 12.554,10.124 12.893,9.938 13.257 C 9.737 13.652,9.734 14.344,9.934 14.734 C 10.134 15.127,10.487 15.397,14.023 17.874 C 16.487 19.599,18.361 20.883,19.031 21.303 C 19.449 21.565,19.480 21.577,19.836 21.597 C 20.308 21.625,20.561 21.554,20.907 21.299 C 21.223 21.067,21.423 20.796,21.542 20.439 C 21.623 20.197,21.628 19.840,21.642 13.958 L 21.657 7.733 21.530 7.471 C 21.357 7.116,20.915 6.662,20.617 6.534 C 20.361 6.423,19.814 6.371,19.577 6.434 M6.949 7.275 C 6.736 7.344,6.579 7.475,6.457 7.684 L 6.337 7.888 6.354 14.012 C 6.371 20.011,6.373 20.140,6.464 20.323 C 6.710 20.816,7.386 20.906,7.802 20.501 C 7.897 20.409,7.997 20.278,8.026 20.209 C 8.062 20.121,8.073 18.352,8.063 13.998 L 8.050 7.910 7.951 7.696 C 7.889 7.563,7.789 7.443,7.686 7.379 C 7.503 7.266,7.137 7.214,6.949 7.275 " fill="#1A1C1F" stroke="none" fill-rule="evenodd"></path></svg>