<svg width="20" height="20" viewBox="0 0 20 20" fill="none" xmlns="http://www.w3.org/2000/svg"><path d="M4.611 4.114 C 4.398 4.213,4.195 4.412,4.084 4.631 L 4.000 4.798 4.000 10.017 L 4.000 15.236 4.084 15.402 C 4.187 15.604,4.387 15.805,4.579 15.898 C 4.689 15.951,4.786 15.967,5.006 15.967 L 5.291 15.967 5.554 15.795 C 6.174 15.391,10.564 12.249,11.470 11.561 C 11.683 11.400,11.961 11.158,12.088 11.024 C 12.278 10.825,12.332 10.742,12.392 10.560 C 12.586 9.969,12.486 9.370,12.130 8.983 C 11.915 8.751,10.848 7.956,8.233 6.083 C 6.361 4.743,5.433 4.103,5.308 4.068 C 5.088 4.007,4.800 4.026,4.611 4.114 M14.791 5.037 C 14.606 5.079,14.477 5.155,14.294 5.325 C 13.997 5.604,14.017 5.270,14.017 9.967 C 14.017 13.246,14.026 14.122,14.060 14.274 C 14.094 14.420,14.141 14.505,14.260 14.637 C 14.478 14.880,14.677 14.966,15.017 14.966 C 15.349 14.965,15.493 14.904,15.710 14.671 C 16.027 14.331,15.998 14.788,15.999 9.997 L 16.000 5.777 15.914 5.613 C 15.750 5.303,15.478 5.088,15.200 5.050 C 15.117 5.038,15.020 5.024,14.983 5.019 C 14.947 5.013,14.860 5.021,14.791 5.037 M7.967 8.328 C 9.874 9.752,10.133 9.952,10.133 10.002 C 10.133 10.044,7.229 12.253,6.175 13.013 L 6.000 13.139 6.000 10.275 C 6.000 7.372,6.012 6.883,6.080 6.925 C 6.100 6.937,6.949 7.568,7.967 8.328 " fill="#1A1C1F" stroke="none" fill-rule="evenodd"></path></svg>