<svg width="24" height="24" viewBox="0 0 24 24" fill="none" xmlns="http://www.w3.org/2000/svg"><path d="M16.575 5.057 C 16.097 5.166,15.942 5.274,12.740 7.736 C 9.156 10.492,8.889 10.716,8.697 11.134 C 8.488 11.592,8.489 12.410,8.700 12.871 C 8.895 13.297,9.327 13.661,12.680 16.225 C 16.154 18.881,16.221 18.926,16.803 18.987 C 17.677 19.078,18.661 18.379,18.905 17.491 C 18.976 17.233,18.980 16.975,18.980 12.000 C 18.980 7.133,18.975 6.763,18.909 6.524 C 18.773 6.030,18.496 5.657,18.058 5.377 C 17.573 5.067,17.040 4.952,16.575 5.057 M5.710 6.057 C 5.462 6.145,5.193 6.382,5.072 6.618 C 4.990 6.775,4.990 6.806,5.007 12.018 C 5.024 16.962,5.029 17.269,5.097 17.410 C 5.181 17.586,5.375 17.765,5.611 17.886 C 5.960 18.065,6.447 17.965,6.715 17.660 C 6.998 17.338,6.976 17.780,6.992 11.995 C 7.007 6.796,7.007 6.770,6.925 6.610 C 6.810 6.384,6.508 6.131,6.267 6.060 C 6.023 5.987,5.907 5.987,5.710 6.057 M16.977 12.000 C 16.977 15.223,16.964 16.804,16.936 16.852 C 16.899 16.916,16.658 16.743,14.857 15.355 C 13.097 13.999,11.109 12.458,10.692 12.125 C 10.569 12.027,10.566 12.019,10.632 11.946 C 10.712 11.856,12.405 10.536,15.018 8.524 C 16.660 7.261,16.901 7.088,16.937 7.149 C 16.963 7.196,16.977 8.845,16.977 12.000 " fill="#1A1C1F" stroke="none" fill-rule="evenodd"></path></svg>