<svg width="24" height="24" viewBox="0 0 24 24" fill="none" xmlns="http://www.w3.org/2000/svg"><path d="M6.520 5.078 C 6.325 5.137,5.937 5.354,5.732 5.517 C 5.465 5.731,5.223 6.095,5.110 6.455 L 5.020 6.740 5.020 11.980 C 5.020 16.974,5.024 17.233,5.095 17.491 C 5.263 18.100,5.792 18.656,6.426 18.889 C 6.737 19.003,7.286 19.010,7.597 18.903 C 7.717 18.862,7.985 18.713,8.194 18.572 C 9.154 17.921,14.290 13.957,14.877 13.414 C 15.382 12.947,15.577 12.283,15.422 11.553 C 15.336 11.146,15.181 10.869,14.881 10.586 C 14.266 10.007,8.265 5.406,7.858 5.203 C 7.591 5.070,6.790 4.995,6.520 5.078 M17.796 6.039 C 17.550 6.084,17.301 6.260,17.139 6.503 L 16.990 6.729 17.009 11.994 C 17.024 15.963,17.041 17.290,17.077 17.380 C 17.180 17.639,17.558 17.918,17.886 17.980 C 18.212 18.041,18.658 17.797,18.871 17.440 L 19.003 17.220 18.991 11.980 C 18.979 6.142,19.002 6.601,18.700 6.308 C 18.491 6.105,18.088 5.985,17.796 6.039 M9.360 8.820 C 11.995 10.848,13.294 11.860,13.359 11.938 C 13.402 11.991,13.399 12.015,13.338 12.082 C 13.256 12.173,11.757 13.341,8.960 15.494 L 7.060 16.956 7.034 16.728 C 7.020 16.603,7.007 14.360,7.004 11.745 L 7.000 6.990 7.170 7.128 C 7.264 7.204,8.249 7.965,9.360 8.820 " fill="#1A1C1F" stroke="none" fill-rule="evenodd"></path></svg>