<svg width="32" height="32" viewBox="0 0 32 32" fill="none" xmlns="http://www.w3.org/2000/svg"><path d="M22.528 7.088 C 22.200 7.144,20.871 8.041,15.067 12.126 C 11.591 14.572,11.395 14.728,11.159 15.244 C 10.903 15.803,11.005 16.641,11.391 17.147 C 11.642 17.477,13.637 18.923,18.320 22.169 C 20.929 23.977,21.975 24.673,22.338 24.841 C 22.592 24.958,22.676 24.970,23.112 24.949 C 23.702 24.921,24.012 24.784,24.420 24.370 C 24.895 23.887,24.926 23.778,24.968 22.427 C 25.022 20.688,25.018 9.544,24.963 8.987 C 24.900 8.342,24.753 7.968,24.439 7.657 C 23.964 7.188,23.227 6.968,22.528 7.088 M7.774 8.053 C 7.505 8.134,7.253 8.327,7.120 8.556 L 6.987 8.783 6.987 16.005 L 6.987 23.228 7.174 23.506 C 7.404 23.848,7.613 23.964,8.000 23.964 C 8.390 23.964,8.599 23.846,8.832 23.497 L 9.022 23.210 9.003 16.018 C 8.982 8.030,9.012 8.624,8.623 8.282 C 8.517 8.189,8.339 8.087,8.228 8.057 C 7.999 7.993,7.975 7.993,7.774 8.053 M22.917 9.267 C 22.968 9.456,22.972 22.859,22.922 22.909 C 22.885 22.947,21.918 22.277,16.800 18.673 C 14.124 16.788,13.368 16.239,13.209 16.063 C 13.113 15.957,13.116 15.952,13.369 15.763 C 13.877 15.385,22.801 9.129,22.839 9.125 C 22.860 9.122,22.896 9.186,22.917 9.267 " fill="#1A1C1F" stroke="none" fill-rule="evenodd"></path></svg>