<svg width="48" height="48" viewBox="0 0 48 48" fill="none" xmlns="http://www.w3.org/2000/svg"><path d="M11.383 9.152 C 10.506 9.437,9.586 10.287,9.277 11.097 C 8.981 11.871,8.950 13.343,8.979 25.040 C 9.005 35.245,9.018 36.075,9.148 36.520 C 9.430 37.484,10.080 38.257,10.960 38.673 C 11.433 38.897,11.553 38.920,12.280 38.920 C 13.013 38.920,13.125 38.899,13.616 38.666 C 14.523 38.236,21.119 34.195,28.520 29.534 C 33.677 26.287,33.809 26.188,34.230 25.284 C 34.411 24.895,34.436 24.736,34.435 24.000 C 34.434 22.761,34.150 22.203,33.144 21.458 C 31.145 19.979,14.096 9.469,13.312 9.234 C 12.764 9.069,11.768 9.026,11.383 9.152 M37.360 9.342 L 37.058 9.643 36.998 10.600 C 36.965 11.126,36.955 17.552,36.975 24.879 C 37.016 39.553,36.975 38.519,37.520 38.817 C 38.072 39.118,38.821 38.821,38.933 38.257 C 38.965 38.094,38.993 31.624,38.996 23.880 C 39.000 10.043,38.997 9.796,38.844 9.541 C 38.663 9.243,38.289 9.040,37.918 9.040 C 37.728 9.040,37.583 9.118,37.360 9.342 M12.658 11.124 C 13.079 11.241,17.957 14.209,27.000 19.850 C 32.337 23.180,32.536 23.333,32.458 24.053 C 32.438 24.237,32.342 24.515,32.246 24.671 C 32.045 24.996,31.740 25.195,26.875 28.180 C 25.052 29.298,21.814 31.305,19.680 32.640 C 13.115 36.745,12.749 36.960,12.320 36.960 C 11.961 36.960,11.582 36.777,11.336 36.485 L 11.120 36.228 11.123 23.974 L 11.126 11.720 11.303 11.504 C 11.491 11.276,11.934 11.048,12.200 11.044 C 12.288 11.042,12.494 11.078,12.658 11.124 " fill="#1A1C1F" stroke="none" fill-rule="evenodd"></path></svg>