<svg width="20" height="20" viewBox="0 0 20 20" fill="none" xmlns="http://www.w3.org/2000/svg"><path d="M14.683 4.055 C 14.556 4.091,13.190 5.052,10.383 7.079 C 8.096 8.731,7.841 8.937,7.674 9.273 C 7.420 9.779,7.471 10.486,7.791 10.907 C 7.998 11.178,8.332 11.433,11.083 13.421 C 14.074 15.581,14.549 15.907,14.799 15.966 C 15.223 16.068,15.705 15.815,15.931 15.371 C 16.000 15.236,16.000 15.230,16.000 9.988 L 16.000 4.741 15.866 4.541 C 15.636 4.196,15.418 4.069,15.023 4.050 C 14.873 4.043,14.720 4.045,14.683 4.055 M4.582 5.100 C 4.408 5.186,4.195 5.407,4.086 5.613 L 4.000 5.777 4.001 9.997 C 4.001 14.087,4.003 14.221,4.065 14.358 C 4.151 14.547,4.419 14.829,4.583 14.904 C 4.788 14.998,5.201 14.989,5.417 14.887 C 5.606 14.797,5.844 14.566,5.901 14.417 C 5.977 14.216,5.997 13.211,5.999 9.514 L 6.000 5.744 5.872 5.545 C 5.729 5.325,5.525 5.146,5.339 5.080 C 5.144 5.010,4.742 5.021,4.582 5.100 M13.976 8.003 C 14.007 9.243,13.976 13.004,13.934 13.046 C 13.918 13.062,13.538 12.801,13.061 12.447 C 12.113 11.743,10.064 10.197,9.927 10.083 L 9.838 10.008 9.927 9.923 C 10.091 9.766,13.883 6.937,13.917 6.946 C 13.937 6.952,13.960 7.355,13.976 8.003 " fill="#1A1C1F" stroke="none" fill-rule="evenodd"></path></svg>