<svg width="16" height="16" viewBox="0 0 16 16" fill="none" xmlns="http://www.w3.org/2000/svg"><path d="M11.736 3.254 C 11.583 3.324,11.326 3.499,10.200 4.303 C 7.704 6.085,6.472 6.994,6.298 7.185 C 5.987 7.523,5.916 8.129,6.136 8.565 C 6.300 8.889,6.362 8.939,9.063 10.877 C 10.734 12.077,11.558 12.654,11.697 12.723 C 11.872 12.809,12.145 12.809,12.325 12.722 C 12.470 12.653,12.669 12.451,12.738 12.303 C 12.784 12.205,12.787 11.995,12.787 8.013 C 12.787 5.711,12.778 3.795,12.767 3.756 C 12.735 3.642,12.544 3.422,12.409 3.342 C 12.292 3.274,12.032 3.201,11.907 3.201 C 11.877 3.201,11.801 3.225,11.736 3.254 M3.785 4.035 C 3.578 4.093,3.350 4.299,3.251 4.516 C 3.203 4.622,3.201 4.757,3.201 8.000 L 3.200 11.373 3.272 11.515 C 3.312 11.594,3.409 11.717,3.488 11.789 C 3.718 12.000,3.948 12.040,4.295 11.931 C 4.432 11.888,4.671 11.665,4.721 11.533 C 4.785 11.365,4.802 10.418,4.793 7.560 C 4.786 5.267,4.777 4.604,4.750 4.524 C 4.639 4.190,4.137 3.936,3.785 4.035 " fill="#1A1C1F" stroke="none" fill-rule="evenodd"></path></svg>