<svg width="12" height="12" viewBox="0 0 12 12" fill="none" xmlns="http://www.w3.org/2000/svg"><path d="M8.869 2.419 C 8.764 2.435,8.506 2.609,7.250 3.507 C 5.148 5.010,4.765 5.298,4.662 5.453 C 4.427 5.809,4.453 6.318,4.723 6.611 C 4.851 6.749,5.907 7.531,7.590 8.733 C 8.717 9.538,8.816 9.600,8.978 9.600 C 9.182 9.600,9.278 9.564,9.407 9.442 C 9.472 9.381,9.539 9.299,9.555 9.260 C 9.604 9.144,9.618 8.340,9.619 5.514 L 9.620 2.879 9.569 2.778 C 9.429 2.502,9.171 2.370,8.869 2.419 M2.834 3.021 C 2.717 3.050,2.657 3.088,2.557 3.195 C 2.373 3.392,2.391 3.096,2.384 5.986 L 2.379 8.542 2.434 8.643 C 2.553 8.863,2.722 8.980,2.942 8.995 C 3.196 9.014,3.388 8.898,3.538 8.638 L 3.600 8.530 3.600 6.004 L 3.600 3.479 3.549 3.379 C 3.437 3.158,3.255 3.028,3.030 3.011 C 2.964 3.006,2.876 3.010,2.834 3.021 M8.386 4.792 C 8.404 5.524,8.386 7.802,8.361 7.827 C 8.344 7.844,7.849 7.483,6.563 6.513 L 5.897 6.010 5.990 5.930 C 6.163 5.780,8.330 4.162,8.350 4.168 C 8.362 4.171,8.376 4.410,8.386 4.792 " fill="#1A1C1F" stroke="none" fill-rule="evenodd"></path></svg>