<svg width="12" height="12" viewBox="0 0 12 12" fill="none" xmlns="http://www.w3.org/2000/svg"><path d="M4.570 3.017 L 3.890 3.030 3.777 3.083 C 3.537 3.195,3.298 3.397,3.176 3.591 C 3.149 3.634,3.097 3.749,3.062 3.845 L 2.998 4.019 3.005 6.005 C 3.011 7.815,3.015 8.001,3.047 8.110 C 3.104 8.307,3.182 8.441,3.333 8.600 C 3.498 8.773,3.638 8.864,3.863 8.943 L 4.023 9.000 6.000 9.000 L 7.977 9.000 8.137 8.943 C 8.359 8.865,8.502 8.773,8.657 8.610 C 8.805 8.453,8.878 8.330,8.951 8.117 L 9.000 7.973 9.000 5.998 L 9.000 4.023 8.943 3.863 C 8.865 3.640,8.773 3.498,8.607 3.340 C 8.418 3.160,8.229 3.066,8.008 3.041 C 7.797 3.017,5.447 3.001,4.570 3.017 " fill="#1A1C1F" stroke="none" fill-rule="evenodd"></path></svg>