<svg width="12" height="12" viewBox="0 0 12 12" fill="none" xmlns="http://www.w3.org/2000/svg"><path d="M4.490 3.020 C 3.814 3.035,3.793 3.039,3.554 3.193 C 3.305 3.353,3.151 3.553,3.039 3.860 L 2.980 4.021 2.980 6.000 L 2.980 7.979 3.039 8.140 C 3.148 8.440,3.320 8.663,3.560 8.819 C 3.804 8.976,3.841 8.984,4.480 9.005 C 5.334 9.032,7.958 9.007,8.100 8.970 C 8.303 8.916,8.459 8.822,8.642 8.640 C 8.856 8.428,8.948 8.256,8.985 8.000 C 9.018 7.776,9.016 4.181,8.983 3.971 C 8.927 3.608,8.581 3.202,8.213 3.066 C 8.060 3.010,6.118 2.986,4.490 3.020 M7.800 6.000 L 7.800 7.800 6.000 7.800 L 4.200 7.800 4.200 6.000 L 4.200 4.200 6.000 4.200 L 7.800 4.200 7.800 6.000 " fill="#1A1C1F" stroke="none" fill-rule="evenodd"></path></svg>