<svg width="28" height="28" viewBox="0 0 28 28" fill="none" xmlns="http://www.w3.org/2000/svg"><path d="M8.877 7.114 C 8.549 7.218,8.021 7.558,7.736 7.848 C 7.545 8.042,7.405 8.251,7.246 8.575 L 7.023 9.030 7.011 13.926 C 6.999 18.793,6.999 18.823,7.096 19.082 C 7.269 19.543,7.483 19.895,7.770 20.186 C 8.080 20.501,8.337 20.667,8.829 20.867 L 9.156 21.000 13.983 21.000 L 18.810 21.000 19.172 20.860 C 20.036 20.527,20.526 20.038,20.859 19.177 L 21.000 18.810 21.000 14.009 C 21.000 9.443,20.996 9.196,20.913 8.955 C 20.627 8.125,20.128 7.569,19.337 7.198 L 19.063 7.070 14.070 7.060 C 9.961 7.052,9.041 7.062,8.877 7.114 M18.840 8.904 C 18.922 8.962,19.038 9.078,19.096 9.160 L 19.203 9.310 19.219 13.516 C 19.228 16.035,19.215 17.943,19.188 18.270 C 19.143 18.798,19.136 18.823,18.989 18.974 C 18.905 19.061,18.762 19.158,18.670 19.191 C 18.427 19.277,9.573 19.277,9.330 19.191 C 9.238 19.158,9.095 19.061,9.011 18.975 C 8.869 18.827,8.856 18.788,8.818 18.357 C 8.770 17.824,8.759 10.377,8.805 9.686 L 8.835 9.222 9.035 9.023 L 9.234 8.823 9.715 8.807 C 9.980 8.797,12.108 8.791,14.443 8.793 L 18.690 8.797 18.840 8.904 " fill="#1A1C1F" stroke="none" fill-rule="evenodd"></path></svg>