<svg width="64" height="64" viewBox="0 0 64 64" fill="none" xmlns="http://www.w3.org/2000/svg"><path d="M18.967 16.205 C 18.025 16.337,16.861 17.369,16.225 18.636 L 16.000 19.085 16.000 32.007 L 16.000 44.930 16.347 45.582 C 16.789 46.413,17.587 47.211,18.418 47.653 L 19.070 48.000 32.000 48.000 L 44.930 48.000 45.553 47.668 C 46.309 47.265,47.338 46.219,47.720 45.467 L 48.000 44.914 48.000 32.000 L 48.000 19.086 47.721 18.536 C 47.365 17.833,46.394 16.811,45.707 16.415 L 45.173 16.109 32.320 16.122 C 25.251 16.129,19.242 16.167,18.967 16.205 " fill="#1A1C1F" stroke="none" fill-rule="evenodd"></path></svg>