<svg width="64" height="64" viewBox="0 0 64 64" fill="none" xmlns="http://www.w3.org/2000/svg"><path d="M18.967 16.205 C 18.025 16.337,16.861 17.369,16.225 18.636 L 16.000 19.085 16.000 32.007 L 16.000 44.930 16.347 45.582 C 16.789 46.413,17.587 47.211,18.418 47.653 L 19.070 48.000 32.000 48.000 L 44.930 48.000 45.553 47.668 C 46.309 47.265,47.338 46.219,47.720 45.467 L 48.000 44.914 48.000 32.000 L 48.000 19.086 47.721 18.536 C 47.365 17.833,46.394 16.811,45.707 16.415 L 45.173 16.109 32.320 16.122 C 25.251 16.129,19.242 16.167,18.967 16.205 M44.660 19.325 L 44.907 19.557 44.905 31.885 C 44.904 38.666,44.876 44.317,44.842 44.445 C 44.702 44.966,44.926 44.957,32.000 44.956 C 25.341 44.955,19.766 44.920,19.611 44.878 C 19.424 44.827,19.288 44.688,19.212 44.468 C 19.048 43.999,18.934 25.730,19.073 22.240 C 19.131 20.773,19.212 19.492,19.252 19.393 C 19.297 19.282,19.477 19.196,19.716 19.170 C 19.931 19.148,25.576 19.121,32.260 19.111 L 44.413 19.093 44.660 19.325 " fill="#1A1C1F" stroke="none" fill-rule="evenodd"></path></svg>