<svg width="48" height="48" viewBox="0 0 48 48" fill="none" xmlns="http://www.w3.org/2000/svg"><path d="M13.064 11.197 C 12.393 11.357,11.545 12.155,11.149 13.000 L 10.962 13.400 10.962 24.000 L 10.962 34.600 11.161 35.028 C 11.434 35.616,12.305 36.500,12.906 36.801 L 13.386 37.040 24.000 37.040 L 34.614 37.040 35.094 36.801 C 35.695 36.500,36.566 35.616,36.839 35.028 L 37.038 34.600 37.039 23.993 L 37.040 13.386 36.789 12.884 C 36.476 12.258,35.853 11.628,35.262 11.340 L 34.810 11.120 24.065 11.128 C 18.155 11.133,13.205 11.164,13.064 11.197 M34.709 13.308 L 34.969 13.577 34.943 23.928 C 34.924 31.907,34.896 34.331,34.820 34.504 C 34.762 34.634,34.595 34.785,34.421 34.864 C 34.143 34.990,33.357 35.000,24.000 35.000 C 14.643 35.000,13.857 34.990,13.579 34.864 C 13.405 34.785,13.238 34.634,13.180 34.504 C 13.104 34.331,13.076 31.907,13.057 23.928 L 13.031 13.577 13.291 13.308 L 13.551 13.040 24.000 13.040 L 34.449 13.040 34.709 13.308 " fill="#1A1C1F" stroke="none" fill-rule="evenodd"></path></svg>