<svg width="32" height="32" viewBox="0 0 32 32" fill="none" xmlns="http://www.w3.org/2000/svg"><path d="M10.145 8.130 C 9.775 8.248,9.168 8.637,8.853 8.958 C 8.550 9.266,8.239 9.798,8.086 10.269 C 8.007 10.513,8.000 11.069,8.013 16.083 L 8.027 21.627 8.208 22.048 C 8.563 22.872,9.128 23.437,9.952 23.792 L 10.373 23.973 16.000 23.973 L 21.627 23.973 22.037 23.796 C 22.855 23.443,23.444 22.854,23.798 22.032 L 23.973 21.627 23.973 16.000 L 23.973 10.373 23.800 9.973 C 23.457 9.184,22.882 8.593,22.100 8.227 L 21.787 8.080 16.080 8.069 C 11.385 8.060,10.333 8.070,10.145 8.130 M21.530 10.187 C 21.985 10.521,21.945 10.033,21.963 15.463 C 21.972 18.259,21.957 20.542,21.928 20.895 C 21.880 21.456,21.864 21.517,21.725 21.665 C 21.392 22.019,21.736 21.998,15.999 22.015 L 10.798 22.031 10.552 21.868 C 10.418 21.779,10.244 21.615,10.167 21.503 L 10.027 21.301 10.027 16.499 C 10.027 13.858,10.043 11.436,10.062 11.118 L 10.097 10.540 10.325 10.312 L 10.553 10.084 11.103 10.066 C 11.406 10.057,13.827 10.044,16.483 10.038 L 21.312 10.027 21.530 10.187 " fill="#1A1C1F" stroke="none" fill-rule="evenodd"></path></svg>