<svg width="24" height="24" viewBox="0 0 24 24" fill="none" xmlns="http://www.w3.org/2000/svg"><path d="M8.415 6.074 C 8.234 6.093,8.063 6.154,7.755 6.308 C 6.881 6.745,6.413 7.288,6.105 8.222 L 5.999 8.544 6.009 12.062 L 6.020 15.580 6.163 15.947 C 6.365 16.464,6.531 16.721,6.905 17.095 C 7.279 17.469,7.536 17.635,8.053 17.837 L 8.420 17.980 11.945 17.991 L 15.470 18.001 15.825 17.877 C 16.476 17.649,16.870 17.380,17.309 16.865 C 17.563 16.568,17.712 16.294,17.876 15.827 L 18.000 15.474 18.000 12.000 L 18.000 8.526 17.876 8.173 C 17.808 7.979,17.698 7.718,17.632 7.593 C 17.289 6.944,16.552 6.344,15.840 6.133 C 15.645 6.075,15.217 6.067,12.140 6.058 C 10.226 6.053,8.550 6.060,8.415 6.074 M15.460 8.127 C 15.586 8.197,15.783 8.392,15.894 8.559 C 15.954 8.649,15.960 8.956,15.960 11.950 C 15.960 15.581,15.972 15.399,15.708 15.673 C 15.638 15.746,15.517 15.845,15.440 15.893 L 15.300 15.980 12.000 15.980 L 8.700 15.980 8.560 15.893 C 8.483 15.845,8.362 15.746,8.292 15.673 C 8.028 15.399,8.040 15.582,8.040 11.947 L 8.040 8.652 8.154 8.495 C 8.295 8.300,8.498 8.126,8.613 8.102 C 8.661 8.091,8.736 8.075,8.780 8.066 C 8.824 8.056,10.318 8.051,12.100 8.054 C 15.041 8.059,15.351 8.066,15.460 8.127 " fill="#1A1C1F" stroke="none" fill-rule="evenodd"></path></svg>