<svg width="16" height="16" viewBox="0 0 16 16" fill="none" xmlns="http://www.w3.org/2000/svg"><path d="M6.077 4.023 L 5.180 4.040 4.949 4.157 C 4.686 4.291,4.404 4.535,4.256 4.758 C 4.204 4.837,4.124 5.000,4.080 5.119 L 4.000 5.337 4.000 7.995 L 4.000 10.653 4.078 10.862 C 4.277 11.393,4.629 11.742,5.155 11.929 L 5.355 12.000 8.012 12.000 L 10.668 12.000 10.878 11.919 C 11.165 11.809,11.368 11.671,11.576 11.446 C 11.767 11.240,11.898 11.003,11.948 10.773 C 11.972 10.666,11.983 9.912,11.992 7.993 C 12.005 5.056,12.018 5.285,11.818 4.893 C 11.688 4.640,11.361 4.313,11.104 4.180 C 10.956 4.103,10.866 4.076,10.685 4.055 C 10.395 4.022,7.268 4.001,6.077 4.023 M10.400 8.000 L 10.400 10.400 8.000 10.400 L 5.600 10.400 5.600 8.000 L 5.600 5.600 8.000 5.600 L 10.400 5.600 10.400 8.000 " fill="#1A1C1F" stroke="none" fill-rule="evenodd"></path></svg>