<svg width="28" height="28" viewBox="0 0 28 28" fill="none" xmlns="http://www.w3.org/2000/svg"><path d="M10.523 7.278 L 8.983 7.303 8.660 7.487 C 8.281 7.703,7.743 8.193,7.579 8.473 C 7.516 8.581,7.401 8.841,7.325 9.051 L 7.185 9.433 7.198 14.061 L 7.210 18.690 7.366 19.079 C 7.665 19.820,8.180 20.335,8.921 20.634 L 9.310 20.790 13.937 20.802 L 18.565 20.815 18.965 20.670 C 19.867 20.344,20.368 19.831,20.693 18.900 L 20.816 18.550 20.803 13.930 L 20.790 9.310 20.636 8.940 C 20.342 8.230,19.951 7.807,19.273 7.463 L 18.970 7.309 17.477 7.275 C 15.828 7.238,12.896 7.239,10.523 7.278 " fill="#1A1C1F" stroke="none" fill-rule="evenodd"></path></svg>