<svg width="20" height="20" viewBox="0 0 20 20" fill="none" xmlns="http://www.w3.org/2000/svg"><path d="M7.547 5.029 L 6.478 5.050 6.181 5.197 C 5.943 5.314,5.830 5.397,5.615 5.613 C 5.335 5.896,5.192 6.126,5.070 6.491 C 5.001 6.695,5.000 6.741,5.000 10.000 C 5.000 13.259,5.001 13.305,5.070 13.509 C 5.192 13.876,5.335 14.104,5.615 14.385 C 5.896 14.665,6.124 14.808,6.491 14.930 C 6.695 14.999,6.741 15.000,10.015 15.000 L 13.331 15.000 13.592 14.905 C 13.936 14.779,14.102 14.671,14.386 14.386 C 14.679 14.094,14.784 13.928,14.905 13.573 L 15.000 13.295 15.000 10.003 C 15.000 6.753,14.999 6.708,14.930 6.497 C 14.810 6.128,14.668 5.899,14.385 5.615 C 14.028 5.258,13.757 5.115,13.350 5.069 C 12.990 5.028,9.013 5.001,7.547 5.029 M13.000 10.000 L 13.000 13.000 10.000 13.000 L 7.000 13.000 7.000 10.000 L 7.000 7.000 10.000 7.000 L 13.000 7.000 13.000 10.000 " fill="#1A1C1F" stroke="none" fill-rule="evenodd"></path></svg>