<svg width="14" height="14" viewBox="0 0 14 14" fill="none" xmlns="http://www.w3.org/2000/svg"><path d="M5.308 3.520 C 4.539 3.535,4.538 3.535,4.406 3.597 C 4.128 3.727,3.858 3.954,3.702 4.191 C 3.667 4.243,3.607 4.378,3.569 4.490 L 3.500 4.694 3.500 6.998 C 3.500 9.554,3.490 9.386,3.657 9.718 C 3.715 9.833,3.796 9.938,3.929 10.071 C 4.126 10.268,4.277 10.361,4.546 10.452 C 4.686 10.499,4.728 10.500,7.000 10.500 C 9.272 10.500,9.314 10.499,9.454 10.452 C 9.700 10.369,9.865 10.271,10.040 10.105 C 10.236 9.919,10.342 9.753,10.434 9.493 L 10.500 9.307 10.500 6.998 C 10.500 4.719,10.499 4.687,10.451 4.543 C 10.365 4.287,10.266 4.127,10.069 3.931 C 9.820 3.681,9.629 3.580,9.348 3.548 C 9.092 3.519,6.336 3.500,5.308 3.520 M9.100 7.000 L 9.100 9.100 7.000 9.100 L 4.900 9.100 4.900 7.000 L 4.900 4.900 7.000 4.900 L 9.100 4.900 9.100 7.000 " fill="#1A1C1F" stroke="none" fill-rule="evenodd"></path></svg>