<svg width="16" height="16" viewBox="0 0 16 16" fill="none" xmlns="http://www.w3.org/2000/svg"><path d="M4.733 3.226 C 3.462 3.239,2.784 3.255,2.725 3.275 C 2.251 3.432,1.752 3.967,1.653 4.427 C 1.629 4.534,1.617 5.496,1.608 8.021 L 1.595 11.469 1.681 11.683 C 1.890 12.202,2.212 12.523,2.722 12.719 L 2.932 12.800 7.990 12.800 L 13.049 12.800 13.306 12.706 C 13.791 12.528,14.128 12.191,14.306 11.706 L 14.400 11.449 14.400 7.998 L 14.400 4.547 14.307 4.297 C 14.255 4.159,14.190 4.008,14.160 3.960 C 14.062 3.802,13.702 3.484,13.500 3.378 C 13.325 3.287,13.279 3.275,13.007 3.254 C 12.591 3.221,7.066 3.203,4.733 3.226 M12.800 8.000 L 12.800 11.200 8.000 11.200 L 3.200 11.200 3.200 8.000 L 3.200 4.800 8.000 4.800 L 12.800 4.800 12.800 8.000 M4.800 9.600 L 4.800 10.400 6.400 10.400 L 8.000 10.400 8.000 9.600 L 8.000 8.800 6.400 8.800 L 4.800 8.800 4.800 9.600 M9.600 9.600 L 9.600 10.400 10.400 10.400 L 11.200 10.400 11.200 9.600 L 11.200 8.800 10.400 8.800 L 9.600 8.800 9.600 9.600 " fill="#1A1C1F" stroke="none" fill-rule="evenodd"></path></svg>