<svg width="20" height="20" viewBox="0 0 20 20" fill="none" xmlns="http://www.w3.org/2000/svg"><path d="M5.764 4.030 L 3.478 4.050 3.181 4.197 C 2.943 4.314,2.830 4.397,2.615 4.613 C 2.335 4.896,2.192 5.126,2.070 5.491 C 2.000 5.696,2.000 5.727,2.000 10.017 L 2.000 14.335 2.101 14.598 C 2.352 15.248,2.773 15.663,3.419 15.897 L 3.703 16.000 10.017 16.000 L 16.331 16.000 16.607 15.899 C 17.228 15.673,17.673 15.228,17.899 14.607 L 18.000 14.331 18.000 10.001 L 18.000 5.671 17.913 5.427 C 17.778 5.052,17.708 4.935,17.470 4.688 C 17.231 4.440,17.063 4.312,16.800 4.180 C 16.664 4.112,16.555 4.090,16.241 4.067 C 15.727 4.030,8.674 4.005,5.764 4.030 M16.000 10.000 L 16.000 14.000 10.000 14.000 L 4.000 14.000 4.000 10.000 L 4.000 6.000 10.000 6.000 L 16.000 6.000 16.000 10.000 M6.000 12.000 L 6.000 13.000 8.000 13.000 L 10.000 13.000 10.000 12.000 L 10.000 11.000 8.000 11.000 L 6.000 11.000 6.000 12.000 M12.000 12.000 L 12.000 13.000 13.000 13.000 L 14.000 13.000 14.000 12.000 L 14.000 11.000 13.000 11.000 L 12.000 11.000 12.000 12.000 " fill="#1A1C1F" stroke="none" fill-rule="evenodd"></path></svg>