<svg width="32" height="32" viewBox="0 0 32 32" fill="none" xmlns="http://www.w3.org/2000/svg"><path d="M7.280 6.073 L 4.133 6.107 3.710 6.309 C 3.380 6.467,3.198 6.601,2.883 6.922 C 2.395 7.420,2.148 7.887,2.060 8.479 C 1.970 9.081,1.978 23.336,2.068 23.724 C 2.294 24.696,3.035 25.463,4.130 25.860 L 4.594 26.027 16.097 26.014 L 27.600 26.000 28.040 25.823 C 28.281 25.726,28.605 25.552,28.760 25.436 C 29.337 25.005,29.808 24.280,29.927 23.643 C 29.966 23.432,29.987 20.949,29.992 15.867 L 30.000 8.400 29.845 8.027 C 29.527 7.259,29.124 6.779,28.474 6.392 C 28.181 6.219,28.028 6.165,27.720 6.128 C 27.235 6.071,11.518 6.029,7.280 6.073 M27.521 8.161 C 27.889 8.348,27.899 8.398,27.958 10.316 C 27.988 11.285,27.999 14.481,27.984 17.686 L 27.958 23.346 27.832 23.565 C 27.756 23.698,27.643 23.809,27.547 23.845 C 27.451 23.881,26.718 23.923,25.733 23.949 C 23.816 24.000,8.601 24.003,6.170 23.954 L 4.526 23.920 4.289 23.669 L 4.052 23.418 4.066 16.016 C 4.079 9.065,4.086 8.603,4.174 8.442 C 4.279 8.249,4.419 8.158,4.693 8.103 C 4.796 8.082,9.927 8.063,16.095 8.059 C 27.230 8.053,27.312 8.054,27.521 8.161 M9.253 15.036 C 7.766 15.065,7.640 15.074,7.467 15.176 C 7.168 15.352,7.033 15.639,7.052 16.055 C 7.073 16.483,7.216 16.710,7.568 16.873 C 7.810 16.985,7.862 16.987,11.972 17.003 C 14.259 17.012,16.187 17.005,16.255 16.988 C 16.448 16.939,16.841 16.546,16.912 16.330 C 17.001 16.060,16.980 15.768,16.853 15.519 C 16.698 15.216,16.547 15.139,16.012 15.091 C 15.373 15.033,11.203 14.999,9.253 15.036 M19.600 15.118 C 19.343 15.211,19.132 15.447,19.045 15.739 C 18.930 16.121,19.115 16.583,19.485 16.839 L 19.698 16.987 21.995 16.987 C 24.217 16.987,24.299 16.983,24.480 16.877 C 24.851 16.659,25.074 16.145,24.960 15.767 C 24.879 15.496,24.709 15.266,24.507 15.155 C 24.366 15.078,24.069 15.065,22.080 15.054 C 20.207 15.042,19.776 15.054,19.600 15.118 M9.467 19.089 C 8.109 19.112,7.568 19.138,7.482 19.187 C 7.300 19.292,7.106 19.577,7.034 19.848 C 6.972 20.078,6.977 20.113,7.117 20.399 C 7.228 20.625,7.330 20.745,7.513 20.863 L 7.760 21.021 13.440 20.998 C 19.822 20.971,19.535 20.989,19.805 20.603 C 19.940 20.411,19.962 20.330,19.965 20.014 C 19.969 19.591,19.868 19.399,19.532 19.190 L 19.333 19.067 15.333 19.063 C 13.133 19.061,10.493 19.073,9.467 19.089 M22.477 19.213 C 22.041 19.510,21.906 19.981,22.131 20.422 C 22.377 20.904,22.723 21.037,23.628 21.001 C 24.511 20.965,24.762 20.818,24.939 20.230 C 25.081 19.757,24.803 19.227,24.346 19.100 C 24.229 19.067,23.818 19.040,23.433 19.040 L 22.732 19.040 22.477 19.213 " fill="#1A1C1F" stroke="none" fill-rule="evenodd"></path></svg>