<svg width="28" height="28" viewBox="0 0 28 28" fill="none" xmlns="http://www.w3.org/2000/svg"><path d="M6.417 5.320 C 4.387 5.339,3.534 5.362,3.443 5.401 C 2.638 5.752,1.924 6.601,1.812 7.344 C 1.751 7.745,1.713 16.816,1.763 19.017 C 1.809 21.054,1.798 20.988,2.177 21.566 C 2.485 22.036,2.910 22.355,3.570 22.611 L 3.990 22.774 14.070 22.762 L 24.150 22.750 24.535 22.595 C 25.237 22.312,25.790 21.772,26.071 21.093 L 26.196 20.790 26.235 18.270 C 26.257 16.884,26.269 13.860,26.262 11.550 L 26.250 7.350 26.115 7.023 C 25.825 6.325,25.461 5.903,24.848 5.554 L 24.481 5.345 21.655 5.313 C 18.432 5.277,10.627 5.280,6.417 5.320 M24.172 7.215 C 24.281 7.313,24.378 7.453,24.405 7.553 C 24.436 7.664,24.453 9.928,24.453 14.084 L 24.453 20.445 24.348 20.628 C 24.286 20.737,24.186 20.833,24.103 20.864 C 24.021 20.895,23.381 20.933,22.540 20.955 C 20.886 21.000,7.348 21.004,5.328 20.960 L 3.960 20.930 3.753 20.710 L 3.545 20.491 3.558 14.014 C 3.569 7.932,3.575 7.527,3.652 7.386 C 3.744 7.218,3.867 7.138,4.107 7.090 C 4.197 7.072,8.706 7.055,14.128 7.052 L 23.986 7.047 24.172 7.215 M6.790 13.201 C 6.435 13.266,6.247 13.449,6.166 13.811 C 6.095 14.127,6.203 14.413,6.492 14.673 L 6.730 14.887 10.461 14.887 C 14.610 14.887,14.320 14.909,14.620 14.559 C 14.837 14.306,14.916 14.022,14.838 13.782 C 14.754 13.527,14.668 13.410,14.474 13.289 L 14.303 13.183 10.640 13.176 C 8.625 13.171,6.893 13.183,6.790 13.201 M17.095 13.251 C 16.862 13.356,16.677 13.614,16.633 13.894 C 16.589 14.170,16.782 14.562,17.046 14.737 L 17.236 14.863 19.223 14.863 C 21.117 14.863,21.219 14.859,21.396 14.770 C 21.733 14.601,21.934 14.163,21.838 13.807 C 21.767 13.542,21.625 13.364,21.396 13.253 C 21.213 13.165,21.109 13.160,19.247 13.161 C 17.425 13.162,17.276 13.168,17.095 13.251 M8.298 16.703 C 6.402 16.734,6.489 16.715,6.240 17.154 C 6.139 17.333,6.114 17.427,6.129 17.583 C 6.157 17.867,6.354 18.140,6.618 18.262 C 6.836 18.363,6.842 18.363,11.130 18.377 C 13.491 18.384,15.781 18.373,16.218 18.352 C 16.928 18.318,17.029 18.303,17.158 18.211 C 17.353 18.072,17.468 17.812,17.472 17.496 C 17.475 17.284,17.451 17.197,17.345 17.037 C 17.100 16.667,17.305 16.685,13.417 16.680 C 11.517 16.678,9.214 16.688,8.298 16.703 M19.688 16.791 C 19.118 17.158,19.149 17.961,19.746 18.273 C 19.914 18.360,20.533 18.406,20.981 18.365 C 21.343 18.332,21.354 18.327,21.563 18.111 C 21.920 17.743,21.962 17.363,21.690 16.974 C 21.519 16.731,21.368 16.689,20.603 16.670 L 19.903 16.653 19.688 16.791 " fill="#1A1C1F" stroke="none" fill-rule="evenodd"></path></svg>