<svg width="14" height="14" viewBox="0 0 14 14" fill="none" xmlns="http://www.w3.org/2000/svg"><path d="M4.235 2.822 C 2.709 2.836,2.448 2.843,2.363 2.874 C 2.174 2.944,1.945 3.100,1.789 3.265 C 1.623 3.442,1.527 3.608,1.446 3.860 L 1.395 4.017 1.405 7.043 L 1.415 10.068 1.491 10.260 C 1.578 10.482,1.712 10.674,1.890 10.834 C 2.047 10.975,2.173 11.049,2.386 11.125 L 2.555 11.186 6.988 11.195 L 11.422 11.204 11.620 11.132 C 12.060 10.970,12.370 10.661,12.530 10.225 L 12.600 10.032 12.600 7.001 L 12.600 3.969 12.539 3.799 C 12.445 3.537,12.396 3.455,12.229 3.282 C 12.062 3.108,11.944 3.018,11.760 2.926 C 11.665 2.878,11.589 2.863,11.369 2.847 C 10.986 2.819,6.368 2.803,4.235 2.822 M8.400 9.100 L 8.400 9.800 5.600 9.800 L 2.800 9.800 2.800 9.100 L 2.800 8.400 5.600 8.400 L 8.400 8.400 8.400 9.100 M11.177 9.100 L 11.177 9.800 10.488 9.800 L 9.800 9.800 9.800 9.100 L 9.800 8.400 10.488 8.400 L 11.177 8.400 11.177 9.100 " fill="#1A1C1F" stroke="none" fill-rule="evenodd"></path></svg>