<svg width="12" height="12" viewBox="0 0 12 12" fill="none" xmlns="http://www.w3.org/2000/svg"><path d="M3.550 2.420 C 2.596 2.429,2.088 2.441,2.044 2.456 C 1.688 2.574,1.314 2.976,1.240 3.320 C 1.222 3.400,1.213 4.125,1.206 6.011 L 1.196 8.592 1.259 8.754 C 1.409 9.144,1.656 9.390,2.047 9.542 L 2.210 9.605 6.010 9.595 L 9.810 9.586 9.967 9.533 C 10.169 9.464,10.299 9.378,10.462 9.208 C 10.613 9.049,10.675 8.948,10.748 8.744 L 10.800 8.598 10.800 6.000 L 10.800 3.402 10.748 3.256 C 10.630 2.923,10.431 2.695,10.114 2.528 C 9.988 2.462,9.954 2.454,9.752 2.439 C 9.430 2.416,5.234 2.403,3.550 2.420 M7.200 7.800 L 7.200 8.400 4.800 8.400 L 2.400 8.400 2.400 7.800 L 2.400 7.200 4.800 7.200 L 7.200 7.200 7.200 7.800 M9.580 7.800 L 9.580 8.400 8.990 8.400 L 8.400 8.400 8.400 7.800 L 8.400 7.200 8.990 7.200 L 9.580 7.200 9.580 7.800 " fill="#1A1C1F" stroke="none" fill-rule="evenodd"></path></svg>