<svg width="12" height="12" viewBox="0 0 12 12" fill="none" xmlns="http://www.w3.org/2000/svg"><path d="M2.108 2.439 C 1.929 2.460,1.748 2.568,1.539 2.778 C 1.353 2.966,1.278 3.087,1.227 3.282 C 1.197 3.398,1.194 3.658,1.192 6.030 L 1.190 8.650 1.256 8.804 C 1.424 9.192,1.661 9.416,2.058 9.561 L 2.221 9.620 4.816 9.618 C 6.243 9.617,7.964 9.610,8.640 9.602 C 9.852 9.588,9.872 9.587,10.000 9.542 C 10.346 9.420,10.624 9.135,10.760 8.764 L 10.820 8.599 10.818 6.524 C 10.817 5.383,10.809 4.189,10.802 3.870 C 10.788 3.292,10.788 3.290,10.731 3.157 C 10.611 2.875,10.393 2.651,10.093 2.499 L 9.935 2.420 6.083 2.423 C 3.964 2.424,2.175 2.432,2.108 2.439 M9.600 6.010 L 9.600 8.420 6.000 8.420 L 2.400 8.420 2.400 6.010 L 2.400 3.600 6.000 3.600 L 9.600 3.600 9.600 6.010 M3.580 7.200 L 3.580 7.800 4.790 7.800 L 6.000 7.800 6.000 7.200 L 6.000 6.600 4.790 6.600 L 3.580 6.600 3.580 7.200 M7.200 7.200 L 7.200 7.800 7.810 7.800 L 8.420 7.800 8.420 7.200 L 8.420 6.600 7.810 6.600 L 7.200 6.600 7.200 7.200 " fill="#1A1C1F" stroke="none" fill-rule="evenodd"></path></svg>