<svg width="24" height="24" viewBox="0 0 24 24" fill="none" xmlns="http://www.w3.org/2000/svg"><path d="M4.020 5.078 C 3.323 5.144,2.450 5.873,2.155 6.635 C 2.028 6.963,2.007 7.837,2.003 12.763 L 2.000 16.946 2.136 17.292 C 2.442 18.072,2.998 18.601,3.843 18.917 L 4.066 19.001 12.043 18.990 L 20.020 18.980 20.300 18.865 C 21.083 18.542,21.605 17.991,21.917 17.156 C 22.001 16.934,22.001 16.919,21.990 11.956 L 21.980 6.980 21.865 6.700 C 21.562 5.965,21.038 5.444,20.292 5.137 L 20.060 5.042 12.180 5.047 C 7.846 5.050,4.174 5.064,4.020 5.078 M19.781 7.104 C 19.834 7.139,19.896 7.232,19.918 7.311 C 19.942 7.398,19.968 9.238,19.985 12.025 L 20.013 16.596 19.917 16.736 C 19.864 16.814,19.777 16.900,19.724 16.928 C 19.582 17.005,4.418 17.005,4.276 16.928 C 4.223 16.900,4.139 16.818,4.090 16.746 L 4.000 16.615 4.003 12.938 C 4.007 8.883,4.036 7.351,4.113 7.211 C 4.140 7.162,4.220 7.105,4.291 7.085 C 4.369 7.062,7.463 7.046,12.051 7.044 C 18.989 7.040,19.692 7.046,19.781 7.104 M7.660 13.039 C 6.550 13.062,6.543 13.064,6.275 13.347 C 6.069 13.564,6.031 13.658,6.033 13.941 C 6.035 14.403,6.199 14.713,6.534 14.890 C 6.699 14.977,6.713 14.977,9.449 14.993 L 12.198 15.008 12.379 14.921 C 12.696 14.767,13.000 14.327,13.000 14.020 C 13.000 13.840,12.876 13.530,12.741 13.372 C 12.462 13.045,12.495 13.050,10.460 13.033 C 9.470 13.025,8.210 13.027,7.660 13.039 M15.617 13.097 C 15.549 13.126,15.427 13.209,15.345 13.281 C 14.887 13.683,14.916 14.353,15.408 14.771 C 15.580 14.916,15.625 14.933,15.908 14.963 C 16.080 14.981,16.436 14.996,16.700 14.997 C 17.081 14.998,17.213 14.983,17.340 14.925 C 17.566 14.822,17.744 14.661,17.871 14.446 C 18.091 14.070,17.988 13.560,17.631 13.258 C 17.392 13.057,17.302 13.040,16.491 13.042 C 15.954 13.043,15.705 13.058,15.617 13.097 " fill="#1A1C1F" stroke="none" fill-rule="evenodd"></path></svg>