<svg width="16" height="16" viewBox="0 0 16 16" fill="none" xmlns="http://www.w3.org/2000/svg"><path d="M4.623 3.224 L 2.780 3.240 2.554 3.354 C 2.294 3.486,2.001 3.740,1.857 3.957 C 1.804 4.036,1.725 4.195,1.680 4.310 L 1.600 4.519 1.600 8.006 L 1.600 11.492 1.701 11.726 C 1.919 12.232,2.221 12.526,2.722 12.719 L 2.932 12.800 7.990 12.800 L 13.049 12.800 13.306 12.706 C 13.791 12.528,14.128 12.191,14.306 11.706 L 14.400 11.449 14.400 7.998 L 14.400 4.547 14.307 4.297 C 14.255 4.159,14.190 4.008,14.160 3.960 C 14.062 3.802,13.702 3.484,13.500 3.378 C 13.325 3.287,13.279 3.275,13.007 3.254 C 12.617 3.223,6.999 3.203,4.623 3.224 M9.600 10.400 L 9.600 11.200 6.400 11.200 L 3.200 11.200 3.200 10.400 L 3.200 9.600 6.400 9.600 L 9.600 9.600 9.600 10.400 M12.773 10.400 L 12.773 11.200 11.987 11.200 L 11.200 11.200 11.200 10.400 L 11.200 9.600 11.987 9.600 L 12.773 9.600 12.773 10.400 " fill="#1A1C1F" stroke="none" fill-rule="evenodd"></path></svg>