<svg width="20" height="20" viewBox="0 0 20 20" fill="none" xmlns="http://www.w3.org/2000/svg"><path d="M15.749 3.031 C 15.570 3.060,15.424 3.154,15.186 3.396 L 14.989 3.596 14.770 3.395 C 14.414 3.069,14.203 2.994,13.847 3.067 C 13.600 3.118,13.497 3.171,13.314 3.339 C 13.127 3.512,13.028 3.765,13.029 4.071 C 13.030 4.352,13.107 4.523,13.355 4.797 L 13.540 5.001 11.815 6.750 C 10.866 7.713,10.077 8.500,10.062 8.500 C 10.029 8.500,10.032 8.622,10.004 6.400 C 9.980 4.492,9.994 4.601,9.744 4.360 C 9.548 4.171,9.294 4.067,9.027 4.067 C 8.840 4.067,8.772 4.084,8.594 4.177 C 8.363 4.298,7.619 4.776,6.476 5.539 L 5.734 6.033 5.299 6.033 C 4.675 6.033,4.265 6.086,3.971 6.203 C 3.162 6.526,2.432 7.306,2.149 8.148 C 2.032 8.499,1.989 9.234,2.009 10.550 C 2.023 11.483,2.027 11.527,2.113 11.817 C 2.304 12.451,2.623 12.933,3.139 13.367 C 3.372 13.563,3.818 13.787,4.201 13.901 C 4.338 13.942,4.461 13.986,4.475 13.998 C 4.489 14.010,4.223 14.320,3.883 14.685 C 3.543 15.051,3.209 15.431,3.141 15.529 C 3.026 15.695,3.017 15.726,3.017 15.946 C 3.018 16.321,3.213 16.634,3.580 16.850 C 3.713 16.927,3.768 16.939,4.008 16.938 C 4.160 16.938,4.324 16.923,4.372 16.904 C 4.528 16.845,5.744 15.660,9.150 12.251 C 13.915 7.481,16.782 4.555,16.865 4.379 C 17.022 4.045,16.975 3.639,16.750 3.376 C 16.533 3.123,16.099 2.973,15.749 3.031 M7.987 8.867 L 8.007 10.583 7.227 11.360 C 6.505 12.078,6.440 12.134,6.365 12.106 C 6.246 12.061,6.023 12.038,5.344 12.000 C 4.524 11.954,4.406 11.906,4.160 11.523 L 4.057 11.362 4.040 10.069 L 4.024 8.776 4.118 8.604 C 4.169 8.509,4.262 8.380,4.324 8.316 C 4.526 8.108,4.590 8.090,5.267 8.058 C 5.991 8.023,6.288 7.974,6.553 7.845 C 6.659 7.793,7.010 7.568,7.331 7.345 L 7.917 6.941 7.942 7.045 C 7.956 7.103,7.976 7.923,7.987 8.867 M16.499 7.725 L 15.735 8.483 15.816 8.778 C 16.134 9.938,15.891 11.539,15.190 12.913 C 14.831 13.619,14.393 14.199,13.631 14.985 C 13.213 15.416,13.134 15.513,13.081 15.669 C 12.910 16.174,13.136 16.687,13.629 16.911 C 13.849 17.011,14.197 17.009,14.403 16.908 C 14.721 16.751,15.626 15.843,16.128 15.178 C 17.033 13.977,17.631 12.569,17.881 11.050 C 18.052 10.013,18.026 9.389,17.767 8.318 C 17.632 7.757,17.355 6.967,17.294 6.967 C 17.277 6.967,16.919 7.308,16.499 7.725 M12.963 11.280 C 12.068 12.145,11.567 12.659,11.487 12.792 C 11.452 12.851,11.704 12.959,11.939 12.986 C 12.179 13.015,12.439 12.939,12.639 12.783 C 12.939 12.549,13.400 11.942,13.634 11.471 C 13.799 11.140,14.055 10.300,13.991 10.300 C 13.982 10.300,13.520 10.741,12.963 11.280 M9.153 15.065 L 8.386 15.830 8.551 15.901 C 8.871 16.038,8.998 16.051,9.257 15.972 C 9.539 15.886,9.764 15.702,9.890 15.454 C 9.969 15.299,9.978 15.238,9.993 14.792 C 10.006 14.395,10.000 14.300,9.964 14.300 C 9.940 14.300,9.575 14.644,9.153 15.065 " fill="#1A1C1F" stroke="none" fill-rule="evenodd"></path></svg>