<svg width="20" height="20" viewBox="0 0 20 20" fill="none" xmlns="http://www.w3.org/2000/svg"><path d="M12.572 4.152 C 12.456 4.216,11.771 4.656,11.050 5.129 L 9.740 5.989 9.177 6.010 C 8.095 6.048,7.612 6.235,6.953 6.868 C 6.502 7.301,6.252 7.705,6.091 8.261 C 6.019 8.508,6.017 8.566,6.018 10.017 C 6.018 11.722,6.015 11.691,6.297 12.283 C 6.593 12.906,7.070 13.388,7.678 13.683 C 8.147 13.909,8.383 13.961,9.123 14.000 L 9.767 14.033 10.808 14.726 C 12.458 15.825,12.628 15.928,12.836 15.967 C 13.040 16.005,13.299 15.970,13.468 15.882 C 13.622 15.803,13.821 15.589,13.916 15.402 L 14.000 15.236 14.000 9.993 L 13.999 4.750 13.902 4.580 C 13.777 4.363,13.540 4.153,13.342 4.086 C 13.257 4.057,13.097 4.034,12.986 4.034 C 12.817 4.034,12.749 4.053,12.572 4.152 M11.986 9.700 C 11.999 11.047,11.999 12.356,11.985 12.607 L 11.960 13.065 11.857 13.012 C 11.801 12.983,11.551 12.828,11.302 12.669 C 10.723 12.297,10.413 12.119,10.265 12.071 C 10.201 12.050,9.828 12.019,9.438 12.002 C 8.815 11.974,8.711 11.962,8.589 11.899 C 8.409 11.807,8.213 11.618,8.122 11.450 C 8.052 11.320,8.050 11.288,8.051 9.994 L 8.052 8.671 8.180 8.485 C 8.337 8.258,8.523 8.117,8.728 8.069 C 8.813 8.049,9.198 8.019,9.582 8.001 C 10.417 7.963,10.356 7.986,11.300 7.356 L 11.917 6.945 11.939 7.097 C 11.952 7.181,11.973 8.352,11.986 9.700 " fill="#1A1C1F" stroke="none" fill-rule="evenodd"></path></svg>