<svg width="28" height="28" viewBox="0 0 28 28" fill="none" xmlns="http://www.w3.org/2000/svg"><path d="M23.155 3.686 C 23.049 3.763,22.672 4.108,22.318 4.452 L 21.675 5.078 21.216 4.798 C 20.503 4.364,20.295 4.313,19.940 4.485 C 19.583 4.658,19.356 5.119,19.464 5.451 C 19.542 5.689,19.650 5.816,19.997 6.077 C 20.161 6.201,20.308 6.323,20.324 6.348 C 20.339 6.373,19.940 6.811,19.436 7.323 L 18.520 8.252 18.318 8.162 C 17.978 8.012,17.726 7.999,17.477 8.120 C 17.036 8.333,16.894 8.805,17.120 9.308 L 17.223 9.539 15.647 11.117 L 14.070 12.695 14.040 12.262 C 14.024 12.025,14.008 10.498,14.005 8.871 L 14.000 5.912 13.884 5.713 C 13.668 5.345,13.174 5.174,12.817 5.343 C 12.607 5.443,11.718 6.156,9.376 8.103 L 7.577 9.598 5.873 9.630 C 4.936 9.648,4.035 9.684,3.870 9.710 C 3.478 9.773,3.141 9.930,2.775 10.222 C 2.387 10.530,2.097 10.923,1.905 11.399 L 1.750 11.783 1.736 13.948 L 1.722 16.114 1.890 16.546 C 1.982 16.784,2.118 17.062,2.192 17.165 C 2.402 17.454,2.930 17.947,3.172 18.078 C 3.628 18.326,3.801 18.346,5.766 18.374 L 7.589 18.399 7.796 18.578 L 8.003 18.756 6.321 20.450 C 3.678 23.112,3.564 23.235,3.526 23.458 C 3.455 23.875,3.691 24.283,4.090 24.435 C 4.392 24.550,4.555 24.497,4.962 24.149 C 5.869 23.376,22.476 6.811,23.814 5.346 C 24.471 4.627,24.555 4.473,24.461 4.160 C 24.345 3.774,24.024 3.550,23.585 3.548 C 23.394 3.547,23.309 3.574,23.155 3.686 M23.501 8.209 L 22.901 8.810 23.207 9.364 C 23.715 10.279,23.997 10.964,24.192 11.751 C 24.414 12.649,24.430 12.806,24.428 14.047 C 24.426 15.097,24.414 15.294,24.321 15.727 C 23.942 17.503,23.214 18.936,22.015 20.267 C 21.621 20.704,21.074 21.168,20.332 21.698 C 20.029 21.914,19.720 22.160,19.646 22.245 C 19.388 22.538,19.374 22.878,19.606 23.216 C 19.878 23.613,20.328 23.701,20.813 23.452 C 21.694 23.000,23.015 21.860,23.816 20.860 C 24.857 19.562,25.608 18.024,25.970 16.450 C 26.282 15.092,26.301 13.238,26.017 11.829 C 25.822 10.862,25.406 9.735,24.889 8.773 C 24.630 8.292,24.189 7.607,24.139 7.607 C 24.119 7.607,23.832 7.878,23.501 8.209 M12.151 8.191 C 12.166 8.231,12.191 9.675,12.208 11.400 L 12.237 14.537 10.742 16.026 L 9.247 17.516 8.928 17.235 C 8.430 16.795,8.284 16.717,7.910 16.685 C 7.730 16.669,6.827 16.637,5.903 16.613 C 4.917 16.587,4.139 16.546,4.020 16.514 C 3.869 16.473,3.783 16.412,3.680 16.270 L 3.542 16.080 3.556 13.976 C 3.572 11.632,3.557 11.737,3.901 11.524 C 4.072 11.419,4.097 11.417,6.085 11.387 C 7.602 11.364,8.125 11.342,8.213 11.296 C 8.383 11.207,9.460 10.333,10.850 9.156 C 11.517 8.591,12.077 8.127,12.093 8.124 C 12.110 8.122,12.136 8.152,12.151 8.191 M20.476 11.258 C 20.216 11.521,19.947 11.815,19.877 11.911 L 19.750 12.087 19.835 12.361 C 20.138 13.334,20.163 14.589,19.896 15.423 C 19.762 15.841,19.401 16.530,19.124 16.899 C 18.803 17.324,18.553 17.557,17.823 18.109 C 17.526 18.333,17.227 18.583,17.160 18.663 C 16.734 19.169,17.175 19.987,17.875 19.990 C 18.123 19.991,18.413 19.840,19.008 19.401 C 20.365 18.397,21.235 17.181,21.654 15.703 C 21.788 15.230,21.802 15.116,21.827 14.248 C 21.845 13.598,21.836 13.193,21.796 12.941 C 21.686 12.251,21.137 10.780,20.990 10.780 C 20.966 10.780,20.735 10.995,20.476 11.258 M12.321 19.440 L 10.757 21.007 11.013 21.239 C 11.568 21.740,12.581 22.545,12.777 22.640 C 13.046 22.770,13.288 22.766,13.536 22.628 C 13.844 22.456,13.906 22.339,13.955 21.837 C 14.023 21.133,14.013 17.873,13.942 17.873 C 13.911 17.873,13.181 18.578,12.321 19.440 " fill="#1A1C1F" stroke="none" fill-rule="evenodd"></path></svg>