<svg width="20" height="20" viewBox="0 0 20 20" fill="none" xmlns="http://www.w3.org/2000/svg"><path d="M13.600 3.106 C 13.094 3.362,12.877 3.934,13.107 4.400 C 13.161 4.509,13.369 4.773,13.618 5.050 C 14.482 6.008,14.903 6.594,15.297 7.388 C 15.694 8.186,15.891 8.821,15.966 9.540 C 16.054 10.391,15.746 11.801,15.249 12.817 C 14.892 13.548,14.495 14.080,13.636 14.981 C 13.375 15.255,13.131 15.539,13.093 15.613 C 13.011 15.775,12.998 16.080,13.064 16.311 C 13.195 16.770,13.811 17.105,14.249 16.955 C 14.738 16.789,15.790 15.724,16.446 14.734 C 17.503 13.136,18.082 11.124,17.965 9.450 C 17.845 7.723,17.006 5.896,15.560 4.211 C 15.171 3.758,14.723 3.316,14.506 3.172 C 14.342 3.063,14.304 3.053,14.039 3.041 C 13.789 3.031,13.730 3.040,13.600 3.106 M8.517 4.186 C 8.370 4.273,7.686 4.714,6.997 5.166 L 5.744 5.989 5.197 6.012 C 4.896 6.025,4.537 6.055,4.399 6.080 C 3.507 6.240,2.622 6.975,2.252 7.861 C 2.017 8.423,2.020 8.390,2.018 10.067 L 2.017 11.583 2.140 11.912 C 2.338 12.441,2.507 12.707,2.883 13.084 C 3.235 13.436,3.547 13.645,3.967 13.810 C 4.264 13.926,4.492 13.962,5.177 14.000 L 5.765 14.032 7.007 14.859 C 8.449 15.820,8.601 15.914,8.790 15.964 C 8.957 16.009,9.265 15.969,9.456 15.878 C 9.619 15.801,9.820 15.591,9.920 15.394 L 10.000 15.236 10.000 10.309 C 9.999 5.393,9.986 4.732,9.884 4.535 C 9.828 4.427,9.562 4.184,9.419 4.109 C 9.365 4.081,9.200 4.052,9.052 4.043 L 8.783 4.028 8.517 4.186 M7.984 8.392 C 8.009 9.822,7.987 13.024,7.952 13.059 C 7.933 13.079,7.921 13.071,6.987 12.473 C 6.269 12.013,6.394 12.050,5.369 12.000 C 4.772 11.971,4.706 11.961,4.542 11.881 C 4.400 11.811,4.330 11.746,4.196 11.555 L 4.028 11.317 4.039 10.000 C 4.049 8.793,4.055 8.674,4.112 8.567 C 4.197 8.408,4.392 8.207,4.533 8.135 C 4.693 8.053,4.812 8.038,5.594 8.000 C 6.131 7.974,6.301 7.954,6.412 7.905 C 6.489 7.871,6.859 7.639,7.234 7.388 C 7.609 7.138,7.926 6.933,7.938 6.933 C 7.949 6.933,7.970 7.590,7.984 8.392 M11.675 7.068 C 11.616 7.087,11.471 7.192,11.352 7.303 C 11.104 7.535,11.017 7.718,11.020 8.000 C 11.024 8.360,11.116 8.544,11.532 9.017 C 11.860 9.389,11.934 9.550,11.957 9.944 C 11.981 10.341,11.954 10.402,11.512 10.950 C 11.108 11.450,11.018 11.634,11.017 11.950 C 11.017 12.146,11.033 12.212,11.115 12.361 C 11.244 12.594,11.529 12.854,11.710 12.903 C 11.909 12.957,12.318 12.926,12.505 12.842 C 12.720 12.747,13.168 12.308,13.382 11.985 C 13.575 11.693,13.708 11.406,13.855 10.967 C 13.947 10.691,13.949 10.664,13.950 9.967 L 13.950 9.250 13.825 8.888 C 13.528 8.030,13.067 7.418,12.514 7.147 C 12.322 7.053,11.864 7.010,11.675 7.068 " fill="#1A1C1F" stroke="none" fill-rule="evenodd"></path></svg>