<svg width="28" height="28" viewBox="0 0 28 28" fill="none" xmlns="http://www.w3.org/2000/svg"><path d="M20.034 4.438 C 19.601 4.564,19.322 5.198,19.526 5.593 C 19.622 5.778,19.940 6.057,20.430 6.386 C 22.319 7.657,23.586 9.477,24.236 11.851 L 24.383 12.390 24.383 14.000 L 24.383 15.610 24.226 16.193 C 23.635 18.376,22.435 20.168,20.737 21.401 C 20.528 21.553,20.189 21.799,19.983 21.949 C 19.552 22.261,19.481 22.384,19.488 22.806 C 19.491 23.047,19.514 23.124,19.623 23.266 C 19.797 23.496,20.108 23.632,20.367 23.593 C 20.942 23.507,22.039 22.719,23.155 21.590 C 24.305 20.427,25.136 19.063,25.662 17.477 C 26.079 16.219,26.227 15.277,26.226 13.890 C 26.224 12.493,25.973 11.248,25.410 9.847 C 24.604 7.839,23.198 6.129,21.316 4.869 C 20.660 4.430,20.384 4.337,20.034 4.438 M12.805 5.338 C 12.629 5.417,12.228 5.741,9.613 7.912 L 7.583 9.599 5.876 9.631 C 4.938 9.648,4.035 9.684,3.870 9.710 C 3.478 9.773,3.141 9.930,2.775 10.222 C 2.387 10.530,2.097 10.923,1.905 11.399 L 1.750 11.783 1.750 14.000 C 1.750 16.159,1.753 16.225,1.853 16.545 C 1.981 16.952,2.341 17.476,2.673 17.740 C 2.807 17.847,3.089 18.017,3.300 18.118 C 3.785 18.353,4.093 18.382,6.100 18.385 L 7.557 18.387 9.927 20.354 C 11.230 21.436,12.407 22.404,12.542 22.506 C 12.934 22.803,13.347 22.794,13.703 22.481 C 14.024 22.199,14.000 22.861,13.998 14.434 C 13.996 10.230,13.978 6.565,13.957 6.291 C 13.913 5.721,13.835 5.540,13.580 5.409 C 13.350 5.290,12.984 5.257,12.805 5.338 M17.422 8.144 C 17.209 8.272,16.987 8.644,16.987 8.873 C 16.987 9.197,17.105 9.345,17.757 9.837 C 18.835 10.652,19.177 11.040,19.624 11.956 C 20.001 12.730,20.043 12.935,20.043 14.000 C 20.043 15.071,20.000 15.281,19.617 16.055 C 19.171 16.958,18.696 17.492,17.710 18.199 C 17.076 18.654,16.916 18.924,17.034 19.344 C 17.107 19.606,17.397 19.908,17.637 19.973 C 17.964 20.060,18.417 19.853,19.196 19.262 C 20.433 18.321,21.276 17.070,21.702 15.540 C 21.845 15.027,21.888 13.403,21.774 12.833 C 21.598 11.957,21.224 11.054,20.750 10.360 C 20.440 9.905,19.396 8.863,18.937 8.549 C 18.131 7.999,17.808 7.913,17.422 8.144 M12.150 8.202 C 12.241 8.530,12.225 19.684,12.133 19.834 C 12.110 19.871,11.636 19.505,10.728 18.750 C 8.215 16.660,8.291 16.717,7.962 16.685 C 7.805 16.670,6.900 16.638,5.950 16.613 C 4.941 16.587,4.139 16.545,4.020 16.514 C 3.868 16.473,3.783 16.412,3.680 16.270 L 3.542 16.080 3.556 13.976 C 3.572 11.633,3.557 11.737,3.900 11.525 C 4.068 11.421,4.102 11.419,6.094 11.386 C 7.885 11.356,8.132 11.343,8.239 11.273 C 8.453 11.133,9.696 10.121,10.897 9.110 C 11.538 8.570,12.078 8.126,12.095 8.124 C 12.113 8.122,12.137 8.157,12.150 8.202 " fill="#1A1C1F" stroke="none" fill-rule="evenodd"></path></svg>