<svg width="16" height="16" viewBox="0 0 16 16" fill="none" xmlns="http://www.w3.org/2000/svg"><path d="M10.880 2.484 C 10.729 2.561,10.554 2.734,10.479 2.882 C 10.435 2.968,10.420 3.046,10.419 3.189 C 10.417 3.466,10.487 3.588,10.910 4.053 C 11.104 4.266,11.349 4.548,11.455 4.680 C 12.068 5.443,12.596 6.541,12.731 7.331 C 12.938 8.551,12.417 10.236,11.489 11.347 C 11.379 11.479,11.118 11.766,10.909 11.985 C 10.700 12.204,10.504 12.432,10.473 12.492 C 10.403 12.628,10.397 12.949,10.461 13.099 C 10.525 13.249,10.730 13.453,10.883 13.519 C 11.297 13.697,11.573 13.578,12.201 12.948 C 13.181 11.967,13.861 10.766,14.185 9.439 C 14.544 7.974,14.420 6.766,13.764 5.351 C 13.365 4.492,12.454 3.259,11.793 2.684 C 11.545 2.469,11.491 2.445,11.227 2.434 C 11.031 2.425,10.984 2.432,10.880 2.484 M6.813 3.349 C 6.696 3.418,6.149 3.771,5.598 4.133 L 4.595 4.791 4.158 4.810 C 3.917 4.820,3.630 4.844,3.519 4.864 C 2.807 4.992,2.097 5.581,1.801 6.290 C 1.610 6.748,1.613 6.714,1.615 8.013 C 1.617 9.351,1.620 9.375,1.830 9.793 C 2.091 10.314,2.361 10.612,2.800 10.864 C 3.230 11.111,3.437 11.162,4.141 11.199 L 4.607 11.223 5.683 11.939 C 6.275 12.333,6.820 12.685,6.893 12.721 C 7.052 12.799,7.337 12.807,7.499 12.739 C 7.639 12.680,7.860 12.465,7.936 12.315 L 8.000 12.188 8.000 8.248 C 7.999 6.068,7.988 4.173,7.974 4.008 C 7.946 3.665,7.918 3.596,7.741 3.440 C 7.558 3.279,7.483 3.248,7.242 3.235 L 7.027 3.223 6.813 3.349 M6.387 6.787 C 6.408 8.115,6.381 10.453,6.345 10.453 C 6.333 10.453,6.133 10.330,5.901 10.179 C 5.171 9.703,5.092 9.658,4.947 9.641 C 4.873 9.633,4.582 9.614,4.299 9.600 C 3.893 9.580,3.760 9.564,3.670 9.524 C 3.537 9.465,3.389 9.321,3.292 9.155 L 3.222 9.037 3.231 7.992 C 3.239 7.034,3.244 6.939,3.290 6.853 C 3.357 6.726,3.514 6.566,3.627 6.508 C 3.755 6.442,3.852 6.430,4.475 6.401 C 5.131 6.370,5.087 6.387,5.813 5.897 C 6.099 5.704,6.341 5.547,6.350 5.547 C 6.359 5.547,6.376 6.105,6.387 6.787 M9.358 5.662 C 9.173 5.739,9.040 5.839,8.951 5.968 C 8.849 6.117,8.827 6.197,8.827 6.422 C 8.827 6.583,8.841 6.655,8.891 6.760 C 8.954 6.889,8.994 6.943,9.304 7.309 C 9.501 7.541,9.548 7.659,9.566 7.959 C 9.585 8.272,9.562 8.323,9.210 8.760 C 8.886 9.161,8.814 9.307,8.814 9.560 C 8.815 9.775,8.862 9.886,9.038 10.085 C 9.183 10.249,9.297 10.317,9.480 10.347 C 9.790 10.397,10.042 10.300,10.342 10.015 C 11.073 9.320,11.367 8.190,11.078 7.179 C 10.876 6.469,10.391 5.846,9.913 5.681 C 9.670 5.596,9.526 5.591,9.358 5.662 " fill="#1A1C1F" stroke="none" fill-rule="evenodd"></path></svg>