<svg width="12" height="12" viewBox="0 0 12 12" fill="none" xmlns="http://www.w3.org/2000/svg"><path d="M9.419 1.818 C 9.320 1.850,9.269 1.886,9.139 2.013 L 9.008 2.141 8.869 2.020 C 8.665 1.843,8.595 1.814,8.394 1.824 C 8.135 1.836,7.987 1.935,7.875 2.174 C 7.759 2.421,7.804 2.629,8.026 2.872 L 8.137 2.993 7.069 4.061 L 6.000 5.130 6.000 3.984 C 6.000 2.870,5.999 2.836,5.959 2.758 C 5.903 2.649,5.787 2.537,5.668 2.479 C 5.591 2.441,5.538 2.430,5.420 2.430 C 5.213 2.430,5.199 2.438,4.024 3.213 L 3.437 3.600 3.294 3.600 C 3.036 3.600,2.593 3.640,2.480 3.672 C 2.130 3.773,1.724 4.086,1.486 4.440 C 1.334 4.666,1.235 4.946,1.202 5.245 C 1.176 5.470,1.175 6.201,1.199 6.690 C 1.215 7.024,1.216 7.034,1.298 7.243 C 1.400 7.505,1.502 7.665,1.688 7.857 C 1.916 8.093,2.196 8.259,2.540 8.361 C 2.623 8.386,2.693 8.409,2.698 8.412 C 2.702 8.416,2.549 8.583,2.358 8.785 C 1.864 9.306,1.825 9.354,1.799 9.476 C 1.754 9.685,1.851 9.912,2.049 10.062 C 2.163 10.150,2.257 10.180,2.410 10.180 C 2.635 10.180,2.641 10.176,3.218 9.618 C 3.511 9.335,5.184 7.664,6.936 5.903 C 9.335 3.492,10.127 2.685,10.141 2.636 C 10.195 2.449,10.202 2.341,10.170 2.225 C 10.096 1.962,9.915 1.823,9.626 1.809 C 9.540 1.804,9.447 1.808,9.419 1.818 M4.797 5.276 L 4.803 6.350 4.342 6.807 L 3.880 7.265 3.735 7.252 C 3.655 7.245,3.427 7.230,3.227 7.219 C 3.027 7.208,2.834 7.190,2.799 7.180 C 2.691 7.149,2.584 7.061,2.500 6.935 L 2.420 6.815 2.420 6.011 L 2.420 5.207 2.482 5.113 C 2.562 4.992,2.689 4.884,2.779 4.861 C 2.818 4.851,3.049 4.835,3.292 4.825 C 3.818 4.805,3.752 4.829,4.350 4.432 C 4.602 4.264,4.757 4.172,4.770 4.184 C 4.783 4.195,4.792 4.594,4.797 5.276 M9.964 4.582 C 9.736 4.805,9.529 5.007,9.503 5.031 L 9.455 5.075 9.507 5.293 C 9.586 5.625,9.606 5.853,9.580 6.153 C 9.528 6.758,9.367 7.295,9.077 7.840 C 8.860 8.246,8.651 8.521,8.212 8.977 C 7.898 9.303,7.848 9.371,7.822 9.512 C 7.772 9.773,7.917 10.037,8.174 10.154 C 8.332 10.227,8.540 10.227,8.664 10.155 C 8.883 10.026,9.403 9.502,9.696 9.114 C 10.306 8.305,10.693 7.287,10.799 6.209 C 10.837 5.823,10.769 5.282,10.617 4.760 C 10.549 4.526,10.426 4.206,10.397 4.188 C 10.387 4.182,10.192 4.359,9.964 4.582 M8.054 6.507 C 7.876 6.676,7.537 7.011,7.302 7.251 C 6.881 7.682,6.876 7.688,6.917 7.722 C 7.015 7.801,7.347 7.815,7.495 7.746 C 7.636 7.680,8.042 7.193,8.176 6.928 C 8.277 6.729,8.433 6.200,8.391 6.200 C 8.384 6.200,8.232 6.338,8.054 6.507 M5.497 9.034 C 5.151 9.378,5.046 9.494,5.062 9.513 C 5.074 9.527,5.133 9.557,5.193 9.579 C 5.493 9.692,5.798 9.563,5.945 9.260 C 5.982 9.184,5.989 9.127,5.997 8.875 C 6.003 8.639,6.000 8.580,5.978 8.580 C 5.964 8.580,5.747 8.784,5.497 9.034 " fill="#1A1C1F" stroke="none" fill-rule="evenodd"></path></svg>