<svg width="32" height="32" viewBox="0 0 32 32" fill="none" xmlns="http://www.w3.org/2000/svg"><path d="M21.592 6.122 C 21.385 6.229,20.223 7.173,17.394 9.531 L 15.668 10.970 13.681 11.007 C 12.588 11.027,11.559 11.065,11.394 11.092 C 10.463 11.244,9.554 12.049,9.154 13.076 L 9.005 13.460 9.026 16.077 C 9.050 18.959,9.053 18.992,9.397 19.533 C 9.621 19.887,10.273 20.480,10.628 20.654 C 11.250 20.958,11.375 20.973,13.604 21.000 L 15.661 21.024 17.711 22.733 C 20.361 24.943,21.327 25.728,21.569 25.871 C 21.924 26.081,22.568 25.919,22.807 25.561 C 22.908 25.409,22.926 25.284,22.958 24.521 C 22.979 24.044,22.987 19.861,22.978 15.227 L 22.960 6.800 22.844 6.550 C 22.710 6.260,22.462 6.105,22.048 6.053 C 21.848 6.028,21.741 6.044,21.592 6.122 M21.001 12.773 C 21.032 16.898,20.969 22.720,20.893 22.720 C 20.829 22.720,20.480 22.441,18.987 21.199 C 17.373 19.856,16.475 19.142,16.332 19.088 C 16.262 19.061,15.205 19.018,13.983 18.991 C 12.492 18.959,11.702 18.922,11.585 18.879 C 11.487 18.843,11.327 18.708,11.225 18.573 L 11.040 18.331 11.040 16.000 L 11.040 13.669 11.227 13.423 C 11.354 13.257,11.479 13.158,11.614 13.117 C 11.742 13.079,12.610 13.047,14.027 13.029 C 16.156 13.001,16.246 12.996,16.400 12.889 C 16.636 12.726,18.198 11.461,19.627 10.276 C 20.786 9.314,20.884 9.245,20.928 9.352 C 20.954 9.415,20.987 10.955,21.001 12.773 " fill="#1A1C1F" stroke="none" fill-rule="evenodd"></path></svg>