<svg width="12" height="12" viewBox="0 0 12 12" fill="none" xmlns="http://www.w3.org/2000/svg"><path d="M7.698 2.421 C 7.595 2.432,7.535 2.469,6.469 3.171 L 5.828 3.593 5.489 3.607 C 4.909 3.630,4.671 3.704,4.313 3.973 C 4.216 4.045,4.083 4.169,4.018 4.248 C 3.876 4.417,3.721 4.720,3.648 4.970 C 3.597 5.145,3.595 5.169,3.585 5.830 C 3.572 6.785,3.599 7.018,3.769 7.370 C 4.020 7.888,4.505 8.266,5.054 8.371 C 5.135 8.387,5.352 8.408,5.538 8.419 L 5.874 8.438 6.642 8.946 C 7.651 9.614,7.607 9.590,7.820 9.590 C 7.956 9.590,8.006 9.581,8.070 9.546 C 8.170 9.492,8.330 9.329,8.361 9.250 C 8.403 9.140,8.418 8.177,8.419 5.504 L 8.420 2.858 8.378 2.776 C 8.326 2.674,8.171 2.507,8.091 2.465 C 8.018 2.428,7.825 2.406,7.698 2.421 M7.197 5.450 C 7.205 6.698,7.187 7.840,7.160 7.840 C 7.152 7.840,6.971 7.729,6.758 7.594 C 6.544 7.458,6.319 7.319,6.257 7.283 L 6.144 7.219 5.693 7.202 C 5.182 7.182,5.125 7.167,4.974 7.012 C 4.829 6.863,4.831 6.880,4.824 6.017 C 4.817 5.263,4.818 5.242,4.859 5.161 C 4.946 4.992,5.098 4.863,5.250 4.833 C 5.283 4.826,5.490 4.812,5.710 4.801 C 6.250 4.774,6.239 4.778,6.840 4.373 C 7.107 4.193,7.153 4.168,7.169 4.197 C 7.181 4.217,7.192 4.711,7.197 5.450 " fill="#1A1C1F" stroke="none" fill-rule="evenodd"></path></svg>