<svg width="16" height="16" viewBox="0 0 16 16" fill="none" xmlns="http://www.w3.org/2000/svg"><path d="M9.985 3.368 C 9.750 3.507,9.063 3.952,8.225 4.507 L 7.796 4.791 7.332 4.809 C 6.808 4.829,6.604 4.865,6.308 4.988 C 5.782 5.207,5.262 5.706,5.009 6.236 C 4.825 6.621,4.818 6.687,4.815 8.027 L 4.813 9.213 4.887 9.448 C 5.021 9.875,5.176 10.135,5.492 10.463 C 5.800 10.784,6.061 10.945,6.512 11.097 C 6.738 11.172,6.796 11.180,7.278 11.199 L 7.800 11.219 8.733 11.839 C 10.217 12.824,10.265 12.848,10.578 12.766 C 10.784 12.712,10.959 12.594,11.077 12.431 L 11.160 12.315 11.178 11.617 C 11.187 11.234,11.196 9.311,11.198 7.345 L 11.200 3.770 11.125 3.652 C 11.021 3.488,10.822 3.319,10.674 3.269 C 10.606 3.246,10.477 3.227,10.387 3.227 C 10.238 3.227,10.204 3.239,9.985 3.368 M9.587 7.880 C 9.596 9.024,9.594 10.072,9.582 10.208 L 9.560 10.456 9.347 10.325 C 9.229 10.253,8.966 10.088,8.761 9.959 C 8.242 9.632,8.243 9.632,7.563 9.602 C 7.060 9.580,6.978 9.570,6.876 9.519 C 6.728 9.445,6.572 9.296,6.498 9.160 C 6.441 9.056,6.440 9.031,6.443 8.040 C 6.444 7.363,6.455 6.990,6.476 6.917 C 6.516 6.775,6.688 6.581,6.834 6.512 C 6.980 6.444,7.070 6.432,7.707 6.400 C 8.330 6.369,8.293 6.383,9.040 5.885 L 9.533 5.556 9.552 5.678 C 9.562 5.745,9.578 6.736,9.587 7.880 " fill="#1A1C1F" stroke="none" fill-rule="evenodd"></path></svg>