<svg width="24" height="24" viewBox="0 0 24 24" fill="none" xmlns="http://www.w3.org/2000/svg"><path d="M15.815 5.041 C 15.620 5.083,14.722 5.651,12.410 7.194 L 11.219 7.988 10.220 8.016 C 8.995 8.051,8.749 8.083,8.406 8.250 C 8.062 8.418,7.474 8.994,7.293 9.340 C 7.025 9.852,7.024 9.861,7.022 11.940 C 7.020 13.387,7.033 13.875,7.074 14.060 C 7.224 14.721,7.755 15.381,8.396 15.702 C 8.804 15.906,8.946 15.927,10.120 15.954 L 11.220 15.980 12.840 17.078 C 15.614 18.957,15.719 19.020,16.054 18.992 C 16.307 18.970,16.530 18.868,16.705 18.692 C 16.996 18.401,16.972 18.815,16.992 13.657 C 17.002 11.104,16.997 8.246,16.980 7.307 L 16.951 5.601 16.790 5.418 C 16.532 5.125,16.135 4.971,15.815 5.041 M14.978 12.067 C 14.979 14.226,14.968 16.005,14.953 16.020 C 14.914 16.059,14.854 16.022,13.400 15.067 C 12.663 14.583,11.979 14.145,11.880 14.094 C 11.710 14.006,11.636 13.998,10.540 13.962 C 9.902 13.940,9.326 13.907,9.260 13.888 C 9.040 13.826,9.038 13.812,9.050 11.951 C 9.062 9.897,9.002 10.082,9.668 10.035 C 9.906 10.019,10.462 10.004,10.903 10.003 L 11.707 10.000 12.023 9.808 C 12.339 9.616,14.668 8.098,14.820 7.985 C 14.894 7.930,14.903 7.934,14.938 8.033 C 14.961 8.097,14.977 9.702,14.978 12.067 " fill="#1A1C1F" stroke="none" fill-rule="evenodd"></path></svg>