<svg width="12" height="12" viewBox="0 0 12 12" fill="none" xmlns="http://www.w3.org/2000/svg"><path d="M6.460 2.426 C 6.380 2.455,6.030 2.676,5.203 3.219 L 4.630 3.595 4.282 3.608 C 4.091 3.616,3.869 3.634,3.789 3.650 C 3.492 3.706,3.153 3.908,2.885 4.187 C 2.646 4.436,2.505 4.700,2.430 5.040 C 2.386 5.239,2.365 6.336,2.398 6.699 C 2.447 7.234,2.578 7.515,2.943 7.873 C 3.035 7.963,3.162 8.073,3.227 8.117 C 3.489 8.298,3.833 8.390,4.354 8.417 L 4.670 8.433 5.390 8.913 C 6.239 9.478,6.362 9.553,6.504 9.592 C 6.674 9.637,6.876 9.576,7.039 9.429 C 7.162 9.317,7.182 9.255,7.201 8.903 C 7.211 8.731,7.219 7.300,7.219 5.724 L 7.220 2.858 7.178 2.776 C 7.119 2.660,6.964 2.500,6.870 2.459 C 6.760 2.410,6.548 2.393,6.460 2.426 M5.997 5.450 C 6.005 6.707,5.987 7.840,5.960 7.840 C 5.951 7.840,5.792 7.742,5.607 7.623 C 5.139 7.322,4.997 7.243,4.908 7.231 C 4.865 7.225,4.654 7.211,4.440 7.200 C 4.226 7.189,4.020 7.172,3.983 7.161 C 3.886 7.133,3.747 7.011,3.679 6.893 L 3.619 6.790 3.624 5.990 C 3.631 5.092,3.624 5.135,3.785 4.979 C 3.918 4.850,3.956 4.838,4.278 4.817 C 4.990 4.773,4.987 4.773,5.157 4.674 C 5.242 4.625,5.455 4.490,5.630 4.374 C 5.907 4.192,5.953 4.168,5.969 4.197 C 5.981 4.217,5.992 4.711,5.997 5.450 M8.171 4.262 C 8.071 4.316,7.911 4.481,7.859 4.583 C 7.811 4.675,7.802 4.916,7.842 5.035 C 7.874 5.135,7.901 5.174,8.097 5.409 C 8.189 5.520,8.292 5.667,8.325 5.736 C 8.381 5.854,8.384 5.873,8.377 6.056 C 8.368 6.284,8.353 6.314,8.124 6.579 C 7.853 6.892,7.820 6.961,7.820 7.198 C 7.820 7.391,7.874 7.513,8.017 7.646 C 8.153 7.773,8.236 7.806,8.421 7.808 C 8.556 7.809,8.588 7.802,8.708 7.741 C 9.070 7.557,9.365 7.140,9.535 6.573 C 9.586 6.402,9.590 6.366,9.589 6.020 C 9.589 5.697,9.583 5.628,9.543 5.480 C 9.433 5.075,9.266 4.768,9.020 4.518 C 8.794 4.289,8.679 4.232,8.430 4.225 C 8.278 4.221,8.238 4.226,8.171 4.262 " fill="#1A1C1F" stroke="none" fill-rule="evenodd"></path></svg>