<svg width="28" height="28" viewBox="0 0 28 28" fill="none" xmlns="http://www.w3.org/2000/svg"><path d="M18.896 5.355 C 18.694 5.460,18.155 5.896,15.639 7.991 L 13.708 9.599 11.970 9.631 C 11.014 9.648,10.114 9.682,9.970 9.706 C 9.155 9.838,8.359 10.543,8.010 11.442 L 7.879 11.778 7.898 14.067 C 7.919 16.589,7.922 16.618,8.222 17.092 C 8.419 17.401,8.989 17.920,9.299 18.072 C 9.844 18.339,9.953 18.351,11.903 18.375 L 13.703 18.396 15.240 19.678 C 17.486 21.551,18.651 22.503,18.845 22.621 C 18.948 22.684,19.092 22.726,19.206 22.726 C 19.453 22.727,19.839 22.533,19.993 22.331 L 20.113 22.173 20.113 14.047 C 20.113 5.191,20.133 5.810,19.849 5.547 C 19.666 5.378,19.560 5.330,19.293 5.296 C 19.118 5.274,19.024 5.288,18.896 5.355 M18.355 8.847 C 18.395 9.593,18.363 19.826,18.320 19.869 C 18.279 19.909,18.054 19.735,16.694 18.614 C 15.346 17.502,14.514 16.833,14.336 16.717 C 14.244 16.656,13.907 16.640,12.232 16.611 C 10.017 16.574,10.062 16.580,9.814 16.255 L 9.683 16.083 9.687 14.024 C 9.690 12.090,9.696 11.954,9.780 11.784 C 9.952 11.438,9.948 11.438,12.215 11.390 C 13.564 11.361,14.261 11.329,14.328 11.293 C 14.463 11.221,15.535 10.356,17.010 9.130 C 17.677 8.575,18.244 8.128,18.270 8.136 C 18.296 8.144,18.333 8.459,18.355 8.847 " fill="#1A1C1F" stroke="none" fill-rule="evenodd"></path></svg>