<svg width="28" height="28" viewBox="0 0 28 28" fill="none" xmlns="http://www.w3.org/2000/svg"><path d="M15.228 5.306 C 15.107 5.329,14.091 6.142,11.697 8.131 L 9.930 9.599 8.243 9.629 C 7.316 9.646,6.412 9.681,6.236 9.707 C 5.497 9.817,4.699 10.454,4.328 11.230 L 4.130 11.643 4.130 13.977 C 4.130 16.302,4.130 16.311,4.239 16.613 C 4.520 17.400,5.157 17.988,6.062 18.300 C 6.291 18.379,6.482 18.387,8.116 18.388 L 9.917 18.389 11.713 19.886 C 13.722 21.560,14.785 22.427,15.049 22.606 C 15.402 22.846,15.954 22.695,16.220 22.285 C 16.304 22.157,16.313 22.003,16.348 19.975 C 16.369 18.781,16.377 15.119,16.364 11.839 L 16.342 5.874 16.218 5.687 C 16.021 5.389,15.612 5.231,15.228 5.306 M14.576 8.641 C 14.593 8.953,14.607 11.640,14.607 14.613 L 14.607 20.019 12.892 18.592 C 11.948 17.808,11.028 17.052,10.845 16.912 L 10.514 16.658 8.512 16.618 C 6.302 16.574,6.274 16.570,6.049 16.276 L 5.927 16.115 5.927 14.000 L 5.927 11.885 6.046 11.729 C 6.286 11.415,6.254 11.419,8.423 11.396 C 9.909 11.381,10.412 11.361,10.503 11.315 C 10.698 11.215,11.370 10.678,12.973 9.340 C 13.808 8.644,14.503 8.074,14.518 8.074 C 14.533 8.074,14.559 8.329,14.576 8.641 M19.715 8.254 C 19.246 8.467,19.036 9.098,19.311 9.472 C 19.358 9.537,19.647 9.781,19.953 10.015 C 21.416 11.134,22.049 12.196,22.146 13.697 C 22.225 14.914,21.890 16.018,21.169 16.919 C 20.859 17.305,20.461 17.664,19.788 18.163 C 19.290 18.532,19.165 18.707,19.191 18.993 C 19.259 19.717,19.841 20.004,20.533 19.657 C 21.147 19.349,22.137 18.479,22.656 17.790 C 23.205 17.062,23.647 16.008,23.805 15.048 C 23.903 14.457,23.880 13.322,23.760 12.755 C 23.473 11.401,22.885 10.355,21.867 9.392 C 21.297 8.852,20.235 8.166,19.973 8.168 C 19.935 8.168,19.818 8.207,19.715 8.254 M18.445 11.625 C 18.188 11.752,18.051 11.949,18.024 12.227 C 17.994 12.533,18.072 12.734,18.373 13.126 C 18.696 13.549,18.805 13.780,18.805 14.047 C 18.805 14.316,18.687 14.565,18.408 14.887 C 18.109 15.232,17.997 15.492,18.024 15.779 C 18.082 16.381,18.724 16.704,19.303 16.424 C 19.546 16.306,19.950 15.878,20.128 15.550 C 20.406 15.034,20.487 14.693,20.486 14.027 C 20.485 13.473,20.473 13.380,20.348 13.023 C 20.201 12.601,19.878 12.083,19.618 11.855 C 19.235 11.519,18.822 11.438,18.445 11.625 " fill="#1A1C1F" stroke="none" fill-rule="evenodd"></path></svg>