<svg width="32" height="32" viewBox="0 0 32 32" fill="none" xmlns="http://www.w3.org/2000/svg"><path d="M26.462 4.213 C 26.341 4.301,25.911 4.694,25.507 5.087 L 24.772 5.802 24.154 5.432 C 23.815 5.229,23.449 5.048,23.341 5.031 C 22.926 4.964,22.434 5.288,22.260 5.744 C 22.185 5.940,22.181 6.011,22.236 6.194 C 22.313 6.450,22.611 6.789,22.984 7.043 C 23.132 7.144,23.253 7.243,23.253 7.264 C 23.253 7.284,22.784 7.780,22.211 8.366 L 21.169 9.432 20.936 9.329 C 20.546 9.156,20.259 9.142,19.974 9.280 C 19.469 9.524,19.307 10.063,19.565 10.638 L 19.684 10.902 17.882 12.705 L 16.080 14.508 16.046 13.987 C 16.028 13.701,16.010 11.953,16.006 10.102 L 16.000 6.738 15.839 6.495 C 15.656 6.219,15.453 6.103,15.061 6.051 C 14.865 6.025,14.747 6.038,14.635 6.096 C 14.431 6.202,13.460 6.986,10.812 9.183 L 8.638 10.987 7.612 10.989 C 7.048 10.991,6.056 11.012,5.407 11.036 C 4.294 11.077,4.210 11.087,3.920 11.220 C 3.193 11.553,2.611 12.097,2.314 12.720 C 1.980 13.423,1.973 13.488,1.974 16.051 L 1.975 18.373 2.126 18.809 C 2.210 19.048,2.343 19.356,2.423 19.493 C 2.619 19.827,3.280 20.473,3.608 20.652 C 4.148 20.945,4.331 20.967,6.590 20.999 L 8.674 21.028 8.909 21.228 L 9.144 21.429 6.916 23.680 C 4.419 26.204,4.074 26.581,4.025 26.843 C 3.913 27.442,4.548 28.089,5.139 27.978 C 5.273 27.953,5.476 27.810,5.840 27.486 C 6.566 26.840,26.821 6.593,27.383 5.952 C 27.954 5.300,28.021 5.179,27.976 4.877 C 27.902 4.388,27.488 4.053,26.957 4.053 C 26.737 4.053,26.639 4.085,26.462 4.213 M26.858 9.382 L 26.172 10.070 26.496 10.651 C 27.117 11.766,27.529 12.835,27.767 13.947 C 27.956 14.833,28.004 16.488,27.868 17.453 C 27.629 19.150,27.020 20.694,26.053 22.050 C 25.289 23.123,24.558 23.840,23.300 24.749 C 22.496 25.331,22.323 25.505,22.239 25.816 C 22.089 26.375,22.621 26.985,23.260 26.986 C 23.634 26.987,24.721 26.272,25.816 25.307 C 27.937 23.435,29.331 20.891,29.850 17.944 C 29.982 17.191,29.982 14.873,29.849 14.107 C 29.603 12.688,29.138 11.330,28.470 10.080 C 28.153 9.488,27.647 8.693,27.587 8.693 C 27.564 8.693,27.236 9.003,26.858 9.382 M13.953 13.059 L 13.985 16.613 12.277 18.316 L 10.568 20.018 10.204 19.697 C 9.634 19.194,9.468 19.105,9.040 19.068 C 8.835 19.050,7.803 19.013,6.747 18.986 C 5.620 18.956,4.731 18.910,4.595 18.873 C 4.422 18.827,4.323 18.756,4.208 18.597 L 4.053 18.384 4.053 16.000 L 4.053 13.616 4.210 13.399 C 4.452 13.066,4.424 13.070,7.075 13.019 C 8.692 12.988,9.290 12.959,9.388 12.907 C 9.586 12.803,10.297 12.230,12.156 10.676 C 13.692 9.391,13.838 9.282,13.878 9.388 C 13.901 9.452,13.935 11.104,13.953 13.059 M23.401 12.866 C 22.692 13.585,22.550 13.781,22.615 13.952 C 22.873 14.630,23.001 15.675,22.928 16.516 C 22.858 17.332,22.769 17.639,22.375 18.427 C 21.854 19.468,21.586 19.757,19.971 21.013 C 19.523 21.361,19.440 21.495,19.442 21.859 C 19.444 22.228,19.593 22.501,19.905 22.707 C 20.352 23.003,20.814 22.850,21.867 22.060 C 23.374 20.929,24.343 19.503,24.807 17.733 C 24.922 17.294,24.933 17.146,24.933 16.000 C 24.933 14.790,24.928 14.729,24.785 14.227 C 24.523 13.307,24.109 12.320,23.986 12.320 C 23.961 12.320,23.697 12.566,23.401 12.866 M14.095 22.199 C 13.118 23.174,12.327 23.996,12.337 24.026 C 12.358 24.093,13.330 24.920,14.078 25.508 L 14.635 25.947 14.988 25.947 C 15.281 25.947,15.378 25.923,15.556 25.805 C 15.977 25.526,15.971 25.565,15.990 22.840 C 16.004 20.906,15.993 20.427,15.939 20.427 C 15.901 20.427,15.071 21.224,14.095 22.199 " fill="#1A1C1F" stroke="none" fill-rule="evenodd"></path></svg>