<svg width="12" height="12" viewBox="0 0 12 12" fill="none" xmlns="http://www.w3.org/2000/svg"><path d="M8.234 1.828 C 8.052 1.896,7.891 2.059,7.840 2.227 C 7.811 2.324,7.811 2.513,7.839 2.587 C 7.876 2.684,7.969 2.802,8.210 3.060 C 8.576 3.450,8.754 3.679,8.985 4.052 C 9.224 4.441,9.407 4.860,9.514 5.264 C 9.566 5.460,9.569 5.493,9.569 5.940 C 9.570 6.440,9.560 6.521,9.447 6.930 C 9.328 7.358,9.118 7.817,8.869 8.191 C 8.699 8.445,8.570 8.601,8.200 8.990 C 7.825 9.386,7.834 9.372,7.824 9.567 C 7.815 9.745,7.837 9.825,7.935 9.967 C 8.051 10.135,8.299 10.238,8.496 10.201 C 8.553 10.190,8.638 10.162,8.685 10.138 C 8.787 10.086,9.342 9.545,9.564 9.280 C 10.153 8.577,10.581 7.630,10.742 6.671 C 10.794 6.358,10.814 5.782,10.781 5.500 C 10.701 4.797,10.416 4.045,9.964 3.340 C 9.574 2.731,8.923 1.994,8.655 1.857 C 8.548 1.803,8.340 1.788,8.234 1.828 M5.240 2.426 C 5.162 2.456,4.899 2.623,4.014 3.207 L 3.417 3.600 3.208 3.600 C 2.776 3.600,2.461 3.658,2.211 3.785 C 1.740 4.022,1.440 4.380,1.257 4.926 L 1.195 5.110 1.185 5.800 C 1.174 6.558,1.194 6.890,1.262 7.113 C 1.449 7.718,1.970 8.217,2.550 8.347 C 2.730 8.387,3.058 8.420,3.273 8.420 L 3.441 8.420 4.106 8.866 C 4.471 9.111,4.869 9.374,4.989 9.451 C 5.199 9.584,5.214 9.590,5.349 9.597 C 5.608 9.609,5.829 9.479,5.949 9.243 L 6.000 9.141 5.999 6.286 C 5.998 3.384,5.989 2.847,5.935 2.718 C 5.901 2.636,5.769 2.517,5.652 2.462 C 5.543 2.410,5.331 2.392,5.240 2.426 M4.786 4.572 C 4.802 4.975,4.788 7.818,4.770 7.837 C 4.760 7.847,4.625 7.766,4.081 7.424 C 3.751 7.216,3.803 7.229,3.199 7.203 C 2.952 7.192,2.791 7.177,2.759 7.160 C 2.664 7.111,2.534 6.992,2.477 6.903 L 2.420 6.812 2.420 6.015 C 2.420 5.314,2.424 5.210,2.453 5.154 C 2.511 5.041,2.581 4.964,2.684 4.898 C 2.782 4.835,2.793 4.832,3.087 4.816 C 3.254 4.807,3.485 4.792,3.602 4.782 L 3.814 4.765 4.052 4.613 C 4.183 4.530,4.389 4.395,4.510 4.312 C 4.631 4.230,4.739 4.165,4.750 4.168 C 4.762 4.171,4.777 4.337,4.786 4.572 M7.048 4.228 C 6.879 4.282,6.715 4.430,6.649 4.589 C 6.607 4.690,6.612 4.950,6.658 5.051 C 6.678 5.095,6.780 5.234,6.886 5.360 C 7.131 5.653,7.163 5.716,7.175 5.939 C 7.190 6.199,7.137 6.320,6.881 6.610 C 6.726 6.786,6.664 6.889,6.626 7.035 C 6.573 7.237,6.633 7.428,6.803 7.599 C 6.926 7.723,7.037 7.768,7.220 7.769 C 7.349 7.770,7.389 7.761,7.505 7.706 C 7.671 7.627,7.913 7.394,8.052 7.178 C 8.383 6.667,8.484 5.952,8.310 5.350 C 8.167 4.858,7.790 4.377,7.455 4.260 C 7.307 4.209,7.147 4.196,7.048 4.228 " fill="#1A1C1F" stroke="none" fill-rule="evenodd"></path></svg>