<svg width="24" height="24" viewBox="0 0 24 24" fill="none" xmlns="http://www.w3.org/2000/svg"><path d="M16.592 4.357 C 16.114 4.453,15.770 4.981,15.882 5.447 C 15.946 5.714,16.158 5.937,16.798 6.414 C 17.439 6.891,18.036 7.478,18.412 8.001 C 18.900 8.682,19.415 9.840,19.577 10.621 C 19.721 11.319,19.688 13.030,19.518 13.640 C 19.320 14.349,18.868 15.332,18.471 15.913 C 18.162 16.366,17.316 17.194,16.649 17.695 C 16.336 17.932,16.049 18.170,16.013 18.226 C 15.906 18.388,15.845 18.687,15.879 18.874 C 15.925 19.127,16.114 19.400,16.338 19.539 C 16.505 19.642,16.573 19.660,16.797 19.659 C 17.014 19.658,17.106 19.635,17.324 19.524 C 17.938 19.214,19.116 18.193,19.708 17.460 C 20.741 16.180,21.430 14.502,21.603 12.842 C 21.662 12.285,21.631 11.214,21.541 10.680 C 21.242 8.910,20.443 7.252,19.311 6.055 C 18.763 5.475,17.784 4.694,17.300 4.450 C 17.112 4.356,16.801 4.315,16.592 4.357 M10.839 5.175 C 10.675 5.272,9.644 5.947,8.549 6.675 L 6.557 8.000 5.969 8.003 C 5.645 8.004,5.115 8.019,4.790 8.035 L 4.200 8.065 3.781 8.274 C 3.085 8.620,2.692 9.083,2.440 9.854 C 2.352 10.125,2.351 10.144,2.368 12.074 L 2.385 14.020 2.492 14.319 C 2.764 15.084,3.466 15.741,4.224 15.940 C 4.386 15.982,4.799 16.013,5.544 16.039 L 6.629 16.076 8.744 17.489 C 9.908 18.267,10.932 18.937,11.020 18.978 C 11.265 19.093,11.515 19.104,11.733 19.007 C 12.013 18.883,12.186 18.734,12.284 18.531 L 12.373 18.349 12.392 12.038 L 12.411 5.726 12.307 5.549 C 12.186 5.341,11.961 5.133,11.774 5.055 C 11.702 5.025,11.529 5.000,11.390 5.000 C 11.165 5.000,11.107 5.018,10.839 5.175 M14.492 7.283 C 14.256 7.400,14.056 7.636,13.982 7.885 C 13.906 8.143,13.906 8.137,13.984 8.403 C 14.042 8.599,14.098 8.667,14.549 9.099 C 15.441 9.953,15.712 10.501,15.808 11.640 C 15.867 12.336,15.795 12.906,15.582 13.428 C 15.368 13.953,15.235 14.142,14.634 14.778 C 14.330 15.099,14.051 15.419,14.015 15.489 C 13.929 15.655,13.926 16.062,14.009 16.220 C 14.097 16.387,14.340 16.621,14.514 16.706 C 14.604 16.750,14.752 16.777,14.900 16.777 C 15.098 16.778,15.185 16.754,15.399 16.639 C 15.723 16.465,16.355 15.866,16.703 15.402 C 17.141 14.820,17.572 13.822,17.724 13.040 C 17.796 12.670,17.785 11.398,17.706 10.920 C 17.531 9.862,16.961 8.770,16.160 7.958 C 15.488 7.277,14.947 7.058,14.492 7.283 M10.380 12.067 C 10.380 14.270,10.367 16.086,10.351 16.102 C 10.335 16.118,9.669 15.700,8.871 15.173 C 8.073 14.646,7.357 14.177,7.280 14.131 C 7.151 14.054,7.044 14.044,5.933 14.008 C 5.072 13.979,4.695 13.952,4.614 13.913 C 4.393 13.807,4.388 13.771,4.384 11.982 C 4.380 10.446,4.385 10.333,4.454 10.231 C 4.496 10.169,4.592 10.103,4.674 10.080 C 4.754 10.057,5.333 10.027,5.960 10.015 L 7.100 9.992 7.460 9.779 C 7.658 9.661,8.378 9.197,9.060 8.747 C 10.128 8.041,10.306 7.937,10.340 7.994 C 10.366 8.037,10.380 9.466,10.380 12.067 " fill="#1A1C1F" stroke="none" fill-rule="evenodd"></path></svg>