<svg width="20" height="20" viewBox="0 0 20 20" fill="none" xmlns="http://www.w3.org/2000/svg"><path d="M10.797 4.030 C 10.695 4.063,10.359 4.276,8.866 5.256 L 7.749 5.989 7.266 6.010 C 6.401 6.048,6.101 6.109,5.673 6.337 C 4.981 6.704,4.506 7.233,4.209 7.967 C 4.020 8.434,4.018 8.458,4.017 10.083 L 4.017 11.583 4.141 11.915 C 4.311 12.368,4.534 12.729,4.848 13.058 C 5.150 13.376,5.459 13.594,5.827 13.749 C 6.252 13.928,6.463 13.967,7.117 13.990 L 7.717 14.010 8.917 14.799 C 10.760 16.010,10.790 16.026,11.099 15.990 C 11.424 15.951,11.771 15.717,11.901 15.447 C 11.970 15.306,11.977 15.226,12.003 14.339 C 12.035 13.209,12.037 8.000,12.005 6.046 L 11.983 4.674 11.851 4.483 C 11.709 4.277,11.565 4.165,11.340 4.086 C 11.155 4.020,10.906 3.995,10.797 4.030 M9.978 10.172 C 9.981 11.743,9.973 13.038,9.961 13.050 C 9.948 13.063,9.668 12.900,9.339 12.688 C 8.623 12.227,8.356 12.078,8.200 12.052 C 8.136 12.041,7.791 12.018,7.433 12.000 C 7.076 11.982,6.725 11.951,6.653 11.931 C 6.496 11.886,6.179 11.599,6.105 11.433 C 6.061 11.336,6.050 11.125,6.040 10.184 C 6.025 8.828,6.035 8.692,6.173 8.484 C 6.296 8.299,6.531 8.112,6.696 8.068 C 6.763 8.051,7.147 8.021,7.550 8.002 C 8.425 7.961,8.353 7.988,9.300 7.356 L 9.917 6.945 9.944 7.131 C 9.960 7.233,9.975 8.602,9.978 10.172 M13.843 7.034 C 13.676 7.058,13.388 7.246,13.244 7.425 C 13.000 7.729,12.949 7.990,13.062 8.355 C 13.134 8.585,13.239 8.742,13.631 9.204 C 13.867 9.483,13.932 9.638,13.957 9.983 C 13.976 10.252,13.972 10.275,13.872 10.474 C 13.814 10.589,13.662 10.803,13.532 10.950 C 13.403 11.097,13.252 11.284,13.197 11.366 C 12.892 11.822,12.961 12.383,13.366 12.740 C 13.610 12.956,13.750 13.015,14.018 13.016 C 14.223 13.017,14.285 13.001,14.502 12.894 C 15.230 12.533,15.846 11.485,15.974 10.389 C 16.096 9.352,15.599 7.979,14.893 7.404 C 14.547 7.122,14.169 6.989,13.843 7.034 " fill="#1A1C1F" stroke="none" fill-rule="evenodd"></path></svg>