<svg width="14" height="14" viewBox="0 0 14 14" fill="none" xmlns="http://www.w3.org/2000/svg"><path d="M9.561 2.157 C 9.292 2.253,9.118 2.515,9.117 2.826 C 9.116 3.036,9.175 3.136,9.535 3.536 C 10.138 4.207,10.452 4.645,10.718 5.188 C 11.077 5.921,11.193 6.401,11.171 7.055 C 11.149 7.673,10.970 8.354,10.665 8.975 C 10.394 9.528,10.164 9.837,9.545 10.487 C 9.363 10.679,9.191 10.878,9.164 10.930 C 9.095 11.066,9.096 11.334,9.168 11.484 C 9.230 11.614,9.408 11.788,9.535 11.843 C 9.681 11.907,9.932 11.897,10.083 11.823 C 10.387 11.674,11.124 10.903,11.501 10.339 C 12.338 9.088,12.748 7.426,12.529 6.173 C 12.461 5.785,12.280 5.222,12.073 4.754 C 11.753 4.031,11.130 3.146,10.489 2.507 C 10.194 2.212,10.033 2.123,9.802 2.124 C 9.718 2.125,9.609 2.139,9.561 2.157 M6.090 2.851 C 6.020 2.885,4.925 3.592,4.398 3.943 L 4.025 4.192 3.640 4.209 C 3.428 4.217,3.176 4.239,3.079 4.256 C 2.457 4.368,1.843 4.876,1.571 5.505 C 1.412 5.874,1.412 5.875,1.413 7.012 C 1.415 8.177,1.418 8.204,1.595 8.559 C 1.723 8.816,1.789 8.921,1.914 9.067 C 2.131 9.319,2.426 9.526,2.757 9.658 C 2.984 9.749,3.133 9.773,3.623 9.800 L 4.034 9.822 4.974 10.448 C 5.904 11.066,6.055 11.156,6.199 11.184 C 6.295 11.202,6.509 11.167,6.620 11.115 C 6.738 11.058,6.870 10.922,6.941 10.782 L 7.000 10.665 7.000 7.217 C 6.999 5.310,6.990 3.652,6.978 3.507 C 6.966 3.361,6.940 3.216,6.920 3.177 C 6.880 3.099,6.695 2.929,6.593 2.876 C 6.504 2.830,6.168 2.814,6.090 2.851 M5.588 7.027 C 5.588 8.178,5.581 9.127,5.571 9.137 C 5.553 9.155,5.555 9.156,4.891 8.731 C 4.389 8.410,4.479 8.436,3.761 8.400 C 3.406 8.383,3.290 8.368,3.211 8.334 C 3.095 8.282,2.965 8.156,2.880 8.010 L 2.820 7.907 2.827 6.993 C 2.836 5.946,2.829 5.984,3.056 5.780 C 3.206 5.645,3.271 5.631,3.897 5.600 C 4.160 5.587,4.401 5.570,4.433 5.561 C 4.495 5.545,4.791 5.360,5.262 5.046 C 5.505 4.883,5.545 4.863,5.565 4.897 C 5.580 4.921,5.588 5.674,5.588 7.027 M8.188 4.955 C 8.027 5.021,7.910 5.109,7.832 5.222 C 7.742 5.352,7.723 5.422,7.724 5.619 C 7.725 5.883,7.769 5.966,8.123 6.370 C 8.321 6.596,8.355 6.678,8.370 6.951 C 8.386 7.240,8.369 7.280,8.058 7.665 C 7.775 8.016,7.712 8.144,7.713 8.365 C 7.713 8.556,7.756 8.654,7.919 8.836 C 8.088 9.023,8.305 9.098,8.547 9.052 C 8.731 9.017,8.860 8.943,9.049 8.763 C 9.346 8.482,9.519 8.197,9.673 7.737 C 9.904 7.047,9.788 6.192,9.381 5.590 C 9.134 5.224,8.816 4.982,8.507 4.925 C 8.329 4.893,8.341 4.892,8.188 4.955 " fill="#1A1C1F" stroke="none" fill-rule="evenodd"></path></svg>