<svg width="24" height="24" viewBox="0 0 24 24" fill="none" xmlns="http://www.w3.org/2000/svg"><path d="M12.837 5.041 C 12.613 5.079,12.301 5.271,10.192 6.673 L 8.215 7.987 7.195 8.013 C 6.634 8.027,6.077 8.057,5.957 8.079 C 5.624 8.141,5.133 8.402,4.830 8.680 C 4.496 8.986,4.269 9.329,4.129 9.740 L 4.020 10.060 4.020 12.060 L 4.020 14.060 4.215 14.460 C 4.381 14.800,4.463 14.913,4.760 15.210 C 5.051 15.502,5.167 15.587,5.454 15.722 C 5.886 15.924,6.160 15.959,7.312 15.960 L 8.165 15.960 9.932 17.153 C 12.659 18.994,12.711 19.025,13.062 18.988 C 13.177 18.976,13.332 18.936,13.405 18.899 C 13.592 18.805,13.832 18.569,13.926 18.387 C 14.004 18.236,14.005 18.145,13.989 12.047 C 13.977 7.384,13.961 5.817,13.925 5.684 C 13.857 5.435,13.757 5.313,13.513 5.180 C 13.276 5.051,13.052 5.005,12.837 5.041 M16.753 7.055 C 16.385 7.156,16.115 7.454,16.032 7.849 C 15.952 8.230,16.007 8.333,16.618 8.958 C 17.204 9.557,17.307 9.694,17.569 10.220 C 17.897 10.878,17.900 10.893,17.900 12.020 C 17.899 13.004,17.898 13.024,17.795 13.280 C 17.501 14.015,17.302 14.309,16.647 14.981 C 16.381 15.253,16.132 15.535,16.094 15.608 C 15.989 15.802,15.998 16.212,16.110 16.426 C 16.277 16.742,16.695 17.000,17.042 17.000 C 17.272 17.000,17.616 16.800,18.053 16.413 C 19.152 15.439,19.852 13.995,19.960 12.477 C 20.102 10.487,19.393 8.746,17.932 7.500 C 17.444 7.083,17.108 6.956,16.753 7.055 M12.000 11.998 L 12.000 16.117 10.710 15.264 C 10.001 14.795,9.273 14.326,9.093 14.222 C 8.789 14.046,8.740 14.031,8.373 13.998 C 8.157 13.979,7.603 13.962,7.142 13.961 L 6.304 13.960 6.172 13.832 L 6.040 13.704 6.041 12.002 C 6.042 10.450,6.048 10.292,6.111 10.215 C 6.256 10.036,6.323 10.026,7.552 10.007 L 8.723 9.990 9.112 9.756 C 9.325 9.628,10.058 9.154,10.740 8.703 C 11.422 8.252,11.985 7.882,11.990 7.881 C 11.995 7.881,12.000 9.733,12.000 11.998 " fill="#1A1C1F" stroke="none" fill-rule="evenodd"></path></svg>