<svg width="16" height="16" viewBox="0 0 16 16" fill="none" xmlns="http://www.w3.org/2000/svg"><path d="M8.347 3.393 C 8.193 3.487,7.646 3.840,7.132 4.178 L 6.198 4.791 5.812 4.808 C 5.100 4.839,4.835 4.898,4.473 5.104 C 3.909 5.425,3.580 5.817,3.327 6.468 L 3.213 6.760 3.213 7.960 C 3.213 9.139,3.214 9.164,3.276 9.387 C 3.448 10.006,3.830 10.514,4.376 10.850 C 4.779 11.098,5.208 11.198,5.886 11.199 L 6.158 11.200 7.173 11.868 C 8.541 12.768,8.654 12.826,8.942 12.772 C 9.222 12.719,9.442 12.548,9.554 12.297 C 9.609 12.174,9.610 12.141,9.621 8.707 C 9.633 5.107,9.612 3.850,9.538 3.676 C 9.490 3.563,9.298 3.372,9.161 3.301 C 9.091 3.265,8.984 3.242,8.841 3.234 L 8.627 3.221 8.347 3.393 M7.987 7.867 C 7.996 9.003,7.994 10.051,7.982 10.195 L 7.960 10.457 7.613 10.238 C 6.967 9.828,6.714 9.680,6.617 9.655 C 6.564 9.641,6.274 9.617,5.973 9.603 C 5.338 9.572,5.245 9.548,5.057 9.366 C 4.840 9.155,4.843 9.174,4.832 8.147 C 4.820 7.049,4.828 6.950,4.944 6.780 C 5.050 6.626,5.221 6.490,5.354 6.455 C 5.409 6.441,5.717 6.417,6.038 6.403 C 6.737 6.371,6.681 6.391,7.440 5.885 L 7.933 5.556 7.952 5.678 C 7.962 5.745,7.978 6.730,7.987 7.867 M11.053 5.624 C 10.921 5.658,10.800 5.731,10.681 5.851 C 10.521 6.011,10.431 6.176,10.411 6.350 C 10.378 6.631,10.499 6.889,10.867 7.320 C 11.094 7.586,11.145 7.700,11.165 7.983 C 11.179 8.185,11.174 8.219,11.113 8.350 C 11.075 8.429,10.998 8.549,10.942 8.618 C 10.886 8.686,10.771 8.825,10.687 8.927 C 10.473 9.186,10.421 9.314,10.421 9.589 C 10.421 9.861,10.476 9.993,10.664 10.168 C 10.924 10.411,11.150 10.471,11.440 10.374 C 12.092 10.157,12.647 9.318,12.776 8.354 C 12.889 7.500,12.508 6.424,11.913 5.923 C 11.648 5.699,11.269 5.568,11.053 5.624 " fill="#1A1C1F" stroke="none" fill-rule="evenodd"></path></svg>