<svg width="24" height="24" viewBox="0 0 24 24" fill="none" xmlns="http://www.w3.org/2000/svg"><path d="M19.493 3.679 C 19.270 3.713,19.093 3.843,18.509 4.400 L 18.017 4.871 17.758 4.713 C 17.182 4.361,17.039 4.303,16.757 4.304 C 16.544 4.304,16.458 4.325,16.311 4.412 C 15.913 4.645,15.745 5.027,15.861 5.435 C 15.916 5.631,15.967 5.700,16.247 5.969 L 16.570 6.278 16.368 6.509 C 16.257 6.636,16.023 6.881,15.849 7.054 L 15.531 7.367 15.317 7.259 C 14.774 6.984,14.184 7.222,13.981 7.798 C 13.878 8.088,13.916 8.361,14.091 8.614 L 14.171 8.727 13.875 9.027 C 13.713 9.192,13.328 9.564,13.020 9.854 L 12.460 10.380 12.435 9.760 C 12.422 9.419,12.408 8.361,12.405 7.408 C 12.399 5.453,12.410 5.523,12.078 5.223 C 11.865 5.031,11.679 4.954,11.422 4.951 C 11.107 4.949,11.017 5.002,8.379 6.761 L 6.659 7.908 5.679 7.937 C 4.403 7.974,4.231 7.999,3.825 8.209 C 3.368 8.446,2.869 8.942,2.661 9.366 C 2.519 9.658,2.510 9.700,2.478 10.226 C 2.434 10.939,2.434 12.861,2.478 13.574 C 2.510 14.101,2.518 14.142,2.662 14.434 C 2.782 14.676,2.894 14.820,3.197 15.120 C 3.851 15.770,4.021 15.826,5.525 15.880 C 6.111 15.901,6.640 15.937,6.701 15.960 L 6.812 16.002 6.716 16.111 C 6.663 16.171,6.124 16.724,5.519 17.340 C 3.955 18.931,3.851 19.067,3.892 19.465 C 3.956 20.081,4.584 20.518,5.098 20.304 C 5.178 20.270,5.931 19.565,6.965 18.554 C 9.643 15.936,20.035 5.535,20.291 5.216 C 20.599 4.833,20.652 4.699,20.597 4.444 C 20.485 3.920,20.023 3.600,19.493 3.679 M19.805 8.495 L 19.111 9.190 19.275 9.680 C 19.560 10.528,19.580 10.678,19.578 11.920 L 19.576 13.020 19.452 13.485 C 19.153 14.605,18.644 15.565,17.912 16.387 C 17.526 16.820,17.306 17.014,16.607 17.540 C 16.117 17.908,16.006 18.012,15.922 18.176 C 15.741 18.534,15.807 18.891,16.113 19.210 C 16.252 19.355,16.596 19.520,16.760 19.520 C 17.265 19.520,18.648 18.487,19.482 17.487 C 20.232 16.590,20.732 15.705,21.095 14.635 C 21.386 13.777,21.464 13.381,21.521 12.469 C 21.602 11.157,21.415 9.939,20.943 8.720 C 20.761 8.249,20.556 7.800,20.524 7.800 C 20.510 7.800,20.187 8.113,19.805 8.495 M10.336 7.943 C 10.349 7.978,10.371 9.008,10.384 10.233 L 10.409 12.460 9.334 13.529 L 8.260 14.597 7.809 14.303 C 7.561 14.141,7.275 13.988,7.175 13.963 C 7.074 13.937,6.494 13.902,5.886 13.883 C 5.146 13.860,4.744 13.832,4.671 13.799 C 4.606 13.768,4.545 13.695,4.518 13.615 C 4.457 13.428,4.458 10.367,4.520 10.180 C 4.556 10.071,4.597 10.033,4.713 9.999 C 4.794 9.975,5.379 9.945,6.013 9.932 L 7.165 9.908 7.633 9.618 C 7.890 9.458,8.586 9.003,9.180 8.607 C 9.774 8.211,10.272 7.885,10.286 7.883 C 10.300 7.881,10.322 7.908,10.336 7.943 M16.703 11.606 L 15.797 12.500 15.716 12.800 C 15.625 13.137,15.312 13.821,15.122 14.097 C 15.053 14.197,14.775 14.499,14.503 14.769 C 14.035 15.235,14.007 15.272,13.959 15.487 C 13.868 15.897,14.041 16.303,14.397 16.513 C 14.549 16.602,14.628 16.620,14.860 16.620 C 15.195 16.619,15.411 16.516,15.821 16.162 C 16.950 15.186,17.611 13.855,17.721 12.337 C 17.764 11.743,17.722 10.826,17.649 10.753 C 17.622 10.726,17.304 11.014,16.703 11.606 M11.203 17.066 C 10.606 17.674,10.123 18.192,10.130 18.216 C 10.152 18.291,10.880 18.754,11.116 18.843 C 11.584 19.019,12.074 18.797,12.334 18.292 C 12.391 18.182,12.400 18.007,12.400 17.062 C 12.400 16.144,12.391 15.960,12.344 15.960 C 12.313 15.960,11.800 16.458,11.203 17.066 " fill="#1A1C1F" stroke="none" fill-rule="evenodd"></path></svg>