<svg width="14" height="14" viewBox="0 0 14 14" fill="none" xmlns="http://www.w3.org/2000/svg"><path d="M8.801 2.906 C 8.721 2.951,8.239 3.260,7.731 3.594 L 6.807 4.200 6.593 4.200 C 6.270 4.200,5.894 4.244,5.671 4.308 C 5.355 4.399,5.161 4.523,4.851 4.830 C 4.551 5.127,4.433 5.302,4.315 5.625 C 4.217 5.892,4.193 6.250,4.206 7.268 C 4.215 7.974,4.221 8.080,4.263 8.225 C 4.376 8.620,4.503 8.838,4.795 9.144 C 5.073 9.435,5.297 9.575,5.698 9.709 C 5.896 9.776,5.946 9.782,6.370 9.799 L 6.827 9.817 7.492 10.260 C 8.416 10.877,8.818 11.132,8.901 11.157 C 9.014 11.190,9.296 11.183,9.389 11.144 C 9.501 11.098,9.685 10.911,9.748 10.778 L 9.800 10.672 9.800 6.998 L 9.800 3.325 9.731 3.206 C 9.644 3.054,9.478 2.907,9.340 2.860 C 9.280 2.840,9.168 2.823,9.090 2.824 C 8.972 2.824,8.924 2.837,8.801 2.906 M8.389 6.918 C 8.397 7.919,8.395 8.831,8.384 8.945 L 8.365 9.151 7.968 8.901 C 7.750 8.764,7.480 8.600,7.369 8.538 L 7.165 8.425 6.657 8.402 C 6.068 8.376,5.992 8.357,5.825 8.195 C 5.631 8.007,5.637 8.042,5.628 7.012 L 5.620 6.102 5.713 5.958 C 5.814 5.802,5.958 5.688,6.103 5.650 C 6.153 5.637,6.421 5.615,6.697 5.601 C 7.297 5.571,7.253 5.588,7.910 5.149 L 8.342 4.861 8.358 4.980 C 8.366 5.045,8.380 5.917,8.389 6.918 " fill="#1A1C1F" stroke="none" fill-rule="evenodd"></path></svg>