<svg width="16" height="16" viewBox="0 0 16 16" fill="none" xmlns="http://www.w3.org/2000/svg"><path d="M12.554 2.439 C 12.419 2.490,12.251 2.610,12.109 2.756 L 11.992 2.877 11.816 2.716 C 11.567 2.488,11.489 2.453,11.221 2.454 C 10.941 2.454,10.779 2.523,10.619 2.710 C 10.471 2.882,10.418 3.045,10.432 3.289 C 10.445 3.522,10.492 3.625,10.684 3.838 L 10.832 4.001 9.453 5.400 C 8.694 6.170,8.063 6.800,8.050 6.800 C 8.037 6.800,8.025 6.791,8.024 6.780 C 8.022 6.769,8.013 6.082,8.004 5.253 L 7.987 3.747 7.926 3.649 C 7.801 3.448,7.530 3.274,7.286 3.237 C 7.067 3.205,6.835 3.333,5.478 4.233 L 4.596 4.819 4.078 4.835 C 3.377 4.856,3.177 4.910,2.746 5.193 C 2.289 5.493,1.842 6.078,1.691 6.573 C 1.630 6.775,1.593 7.598,1.607 8.453 C 1.618 9.184,1.622 9.223,1.691 9.453 C 1.843 9.960,2.101 10.349,2.516 10.697 C 2.698 10.851,3.056 11.030,3.361 11.121 C 3.470 11.154,3.569 11.188,3.580 11.198 C 3.592 11.208,3.401 11.432,3.157 11.695 C 2.413 12.496,2.380 12.545,2.408 12.812 C 2.427 12.997,2.520 13.188,2.661 13.329 C 2.823 13.491,2.975 13.552,3.227 13.556 C 3.426 13.560,3.438 13.556,3.589 13.453 C 3.808 13.303,6.110 11.035,8.882 8.237 C 12.602 4.483,13.432 3.630,13.498 3.493 C 13.586 3.313,13.583 3.016,13.492 2.840 C 13.412 2.684,13.191 2.494,13.047 2.456 C 12.856 2.407,12.657 2.400,12.554 2.439 M6.392 7.076 L 6.408 8.458 5.786 9.080 C 5.253 9.614,5.157 9.699,5.109 9.681 C 5.031 9.652,4.810 9.630,4.262 9.599 C 3.620 9.563,3.524 9.523,3.328 9.219 L 3.245 9.089 3.232 8.055 L 3.219 7.021 3.294 6.883 C 3.335 6.807,3.410 6.704,3.459 6.653 C 3.621 6.486,3.672 6.472,4.213 6.446 C 4.793 6.419,5.030 6.379,5.242 6.276 C 5.327 6.234,5.608 6.054,5.865 5.876 L 6.333 5.552 6.355 5.623 C 6.367 5.662,6.383 6.315,6.392 7.076 M13.555 5.836 C 13.411 5.967,13.135 6.235,12.943 6.431 L 12.592 6.787 12.673 7.093 C 12.749 7.379,12.754 7.432,12.754 7.867 C 12.755 8.753,12.588 9.436,12.159 10.300 C 11.851 10.920,11.608 11.251,10.971 11.920 C 10.796 12.104,10.605 12.313,10.547 12.385 C 10.443 12.511,10.440 12.521,10.431 12.747 C 10.419 13.034,10.480 13.197,10.658 13.362 C 10.974 13.653,11.358 13.673,11.690 13.415 C 11.898 13.254,12.534 12.605,12.762 12.320 C 13.608 11.265,14.126 10.062,14.331 8.679 C 14.425 8.042,14.410 7.555,14.279 6.934 C 14.166 6.404,13.913 5.629,13.844 5.606 C 13.829 5.601,13.698 5.704,13.555 5.836 M10.357 9.036 C 9.614 9.754,9.173 10.211,9.173 10.266 C 9.173 10.297,9.396 10.367,9.563 10.389 C 9.863 10.427,10.125 10.271,10.474 9.850 C 10.786 9.472,10.996 9.067,11.116 8.613 C 11.195 8.314,11.203 8.267,11.178 8.267 C 11.165 8.267,10.796 8.613,10.357 9.036 M7.348 12.032 L 6.709 12.664 6.841 12.721 C 6.914 12.752,7.033 12.791,7.107 12.806 C 7.286 12.844,7.495 12.783,7.676 12.640 C 7.932 12.438,8.009 12.207,7.994 11.680 L 7.987 11.400 7.348 12.032 " fill="#1A1C1F" stroke="none" fill-rule="evenodd"></path></svg>