<svg width="32" height="32" viewBox="0 0 32 32" fill="none" xmlns="http://www.w3.org/2000/svg"><path d="M22.773 5.157 C 22.390 5.353,22.222 5.648,22.254 6.069 C 22.287 6.494,22.403 6.617,23.553 7.447 C 25.638 8.952,26.914 10.805,27.661 13.413 L 27.860 14.107 27.881 15.804 C 27.904 17.687,27.889 17.828,27.545 18.963 C 26.796 21.432,25.392 23.316,23.138 24.872 C 22.348 25.418,22.174 25.677,22.264 26.173 C 22.346 26.622,22.771 26.987,23.213 26.987 C 23.639 26.987,24.716 26.284,25.852 25.265 C 27.861 23.463,29.194 21.123,29.754 18.418 C 29.940 17.520,29.988 16.858,29.959 15.627 C 29.929 14.366,29.853 13.854,29.513 12.643 C 29.027 10.906,28.353 9.578,27.282 8.240 C 26.367 7.097,24.783 5.729,23.804 5.235 C 23.318 4.990,23.127 4.975,22.773 5.157 M14.634 6.101 C 14.433 6.191,13.978 6.558,10.977 9.051 L 8.648 10.987 7.617 10.989 C 7.050 10.991,6.056 11.012,5.407 11.036 C 4.294 11.077,4.210 11.087,3.920 11.220 C 3.252 11.526,2.631 12.080,2.361 12.612 C 1.999 13.324,2.007 13.258,1.986 15.650 C 1.958 18.692,2.001 18.995,2.576 19.769 C 2.871 20.167,3.247 20.460,3.799 20.722 C 4.327 20.973,4.715 21.008,6.973 21.011 L 8.639 21.013 10.839 22.841 C 14.005 25.471,14.380 25.776,14.572 25.880 C 14.899 26.057,15.382 25.964,15.698 25.664 C 16.022 25.356,16.000 26.018,15.997 16.496 C 15.996 11.691,15.975 7.503,15.951 7.190 C 15.900 6.538,15.811 6.330,15.520 6.183 C 15.255 6.049,14.837 6.011,14.634 6.101 M20.014 9.261 C 19.730 9.401,19.479 9.719,19.438 9.992 C 19.366 10.472,19.517 10.677,20.453 11.373 C 21.484 12.139,21.930 12.646,22.391 13.573 C 22.841 14.479,22.930 14.880,22.930 16.000 C 22.930 17.119,22.841 17.521,22.392 18.432 C 21.929 19.373,21.415 19.926,20.069 20.930 C 19.768 21.155,19.546 21.364,19.495 21.470 C 19.156 22.185,19.929 23.059,20.677 22.805 C 20.986 22.699,21.710 22.217,22.294 21.727 C 23.449 20.758,24.274 19.486,24.729 17.972 L 24.929 17.307 24.931 16.027 C 24.933 14.955,24.918 14.690,24.837 14.400 C 24.535 13.307,24.211 12.566,23.716 11.842 C 23.363 11.325,22.170 10.131,21.653 9.778 C 20.805 9.200,20.399 9.071,20.014 9.261 M13.886 9.373 C 13.991 9.749,13.972 22.496,13.866 22.667 C 13.840 22.710,13.305 22.297,12.260 21.429 C 10.499 19.965,9.617 19.248,9.432 19.130 C 9.330 19.064,8.897 19.039,7.067 18.993 C 5.710 18.958,4.735 18.911,4.595 18.873 C 4.422 18.827,4.323 18.756,4.208 18.597 L 4.053 18.384 4.053 16.004 L 4.053 13.625 4.188 13.427 C 4.262 13.318,4.374 13.202,4.437 13.168 C 4.590 13.086,5.767 13.021,7.253 13.012 C 7.913 13.007,8.658 12.988,8.909 12.969 L 9.365 12.933 9.944 12.480 C 10.262 12.231,11.257 11.411,12.155 10.658 C 13.052 9.905,13.803 9.287,13.823 9.285 C 13.843 9.282,13.871 9.322,13.886 9.373 " fill="#1A1C1F" stroke="none" fill-rule="evenodd"></path></svg>