<svg width="14" height="14" viewBox="0 0 14 14" fill="none" xmlns="http://www.w3.org/2000/svg"><path d="M11.008 2.121 C 10.900 2.144,10.781 2.226,10.619 2.389 L 10.493 2.517 10.339 2.376 C 10.117 2.173,10.036 2.135,9.823 2.138 C 9.404 2.142,9.117 2.434,9.118 2.856 C 9.118 3.037,9.175 3.161,9.347 3.354 L 9.478 3.501 8.270 4.725 C 7.606 5.399,7.054 5.950,7.043 5.950 C 7.032 5.950,7.022 5.879,7.021 5.793 C 7.019 5.706,7.011 5.105,7.003 4.457 C 6.986 3.147,6.996 3.220,6.821 3.052 C 6.631 2.870,6.355 2.788,6.163 2.857 C 6.010 2.911,5.704 3.101,4.816 3.690 L 4.011 4.223 3.703 4.224 C 3.125 4.224,2.839 4.282,2.538 4.459 C 2.176 4.672,1.858 4.991,1.668 5.331 C 1.621 5.415,1.541 5.606,1.490 5.757 L 1.397 6.032 1.406 7.035 C 1.414 7.969,1.419 8.051,1.464 8.217 C 1.587 8.662,1.732 8.905,2.080 9.244 C 2.255 9.415,2.325 9.465,2.526 9.563 C 2.658 9.627,2.844 9.703,2.940 9.731 C 3.036 9.760,3.123 9.790,3.134 9.799 C 3.153 9.817,3.022 9.964,2.524 10.488 C 2.152 10.879,2.111 10.947,2.114 11.177 C 2.115 11.310,2.128 11.376,2.168 11.454 C 2.250 11.614,2.421 11.770,2.566 11.818 C 2.732 11.873,2.975 11.876,3.073 11.824 C 3.226 11.741,3.765 11.217,6.183 8.797 C 9.634 5.345,11.747 3.191,11.806 3.065 C 11.915 2.832,11.883 2.547,11.725 2.363 C 11.571 2.183,11.245 2.073,11.008 2.121 M5.592 6.203 L 5.607 7.401 5.063 7.945 C 4.598 8.411,4.512 8.487,4.470 8.471 C 4.403 8.446,4.212 8.428,3.729 8.400 C 3.167 8.367,3.083 8.333,2.912 8.066 L 2.840 7.953 2.828 7.048 L 2.817 6.143 2.882 6.024 C 2.955 5.889,3.082 5.753,3.182 5.701 C 3.258 5.661,3.333 5.653,3.885 5.625 C 4.457 5.595,4.526 5.567,5.238 5.069 L 5.542 4.858 5.559 4.931 C 5.569 4.972,5.584 5.544,5.592 6.203 M11.906 5.061 C 11.806 5.150,11.566 5.383,11.371 5.580 L 11.016 5.938 11.073 6.147 C 11.312 7.034,11.106 8.187,10.517 9.252 C 10.282 9.676,10.083 9.931,9.582 10.448 C 9.383 10.654,9.197 10.867,9.169 10.922 C 9.125 11.008,9.119 11.050,9.128 11.233 C 9.139 11.467,9.170 11.548,9.296 11.675 C 9.459 11.837,9.762 11.932,9.958 11.881 C 10.125 11.837,10.273 11.723,10.635 11.358 C 11.048 10.942,11.236 10.716,11.515 10.302 C 12.135 9.379,12.497 8.308,12.588 7.127 C 12.604 6.915,12.569 6.443,12.518 6.172 C 12.427 5.699,12.169 4.900,12.107 4.900 C 12.096 4.900,12.006 4.973,11.906 5.061 M9.621 7.376 C 9.224 7.743,8.400 8.549,8.221 8.746 C 8.069 8.914,8.030 8.971,8.050 8.995 C 8.064 9.012,8.149 9.044,8.240 9.066 C 8.444 9.116,8.594 9.101,8.753 9.014 C 9.010 8.874,9.445 8.299,9.615 7.875 C 9.692 7.683,9.810 7.259,9.792 7.241 C 9.785 7.234,9.708 7.295,9.621 7.376 M6.413 10.539 C 6.121 10.830,5.887 11.076,5.893 11.086 C 5.922 11.133,6.181 11.206,6.317 11.206 C 6.578 11.206,6.860 11.008,6.949 10.763 C 6.996 10.635,7.017 10.010,6.975 10.010 C 6.958 10.010,6.705 10.248,6.413 10.539 " fill="#1A1C1F" stroke="none" fill-rule="evenodd"></path></svg>