<svg width="32" height="32" viewBox="0 0 32 32" fill="none" xmlns="http://www.w3.org/2000/svg"><path d="M17.336 6.108 C 17.121 6.205,16.153 6.982,13.367 9.293 L 11.347 10.970 9.420 11.005 C 8.360 11.024,7.331 11.064,7.132 11.093 C 6.275 11.220,5.375 11.937,4.946 12.834 L 4.720 13.307 4.720 15.973 C 4.720 18.625,4.721 18.642,4.843 18.987 C 5.142 19.825,5.767 20.448,6.693 20.832 L 7.067 20.986 9.205 21.013 L 11.343 21.040 11.605 21.253 C 11.749 21.370,12.491 21.983,13.253 22.616 C 15.453 24.440,16.711 25.467,17.076 25.736 C 17.409 25.982,17.417 25.985,17.747 25.959 C 18.161 25.926,18.396 25.764,18.593 25.374 L 18.732 25.101 18.703 16.084 C 18.686 10.951,18.653 6.956,18.625 6.810 C 18.598 6.669,18.529 6.491,18.472 6.414 C 18.244 6.109,17.675 5.956,17.336 6.108 M16.658 9.907 C 16.677 10.281,16.693 13.353,16.693 16.735 L 16.693 22.883 15.427 21.826 C 13.649 20.343,12.374 19.296,12.187 19.165 C 12.034 19.059,11.922 19.051,9.760 18.996 C 8.473 18.963,7.408 18.914,7.296 18.881 C 7.178 18.846,7.031 18.742,6.934 18.625 L 6.770 18.427 6.785 15.954 L 6.800 13.481 7.024 13.282 C 7.239 13.091,7.269 13.081,7.739 13.048 C 8.009 13.029,9.052 13.013,10.056 13.013 L 11.883 13.013 12.168 12.822 C 12.513 12.590,13.219 12.018,15.120 10.431 C 15.912 9.770,16.574 9.228,16.592 9.228 C 16.609 9.227,16.639 9.533,16.658 9.907 M22.531 9.434 C 21.991 9.679,21.752 10.395,22.067 10.822 C 22.123 10.898,22.466 11.188,22.829 11.467 C 23.995 12.362,24.502 12.962,24.930 13.952 C 25.205 14.589,25.294 15.096,25.295 16.027 C 25.297 17.187,25.108 17.921,24.578 18.813 C 24.312 19.259,23.475 20.105,22.779 20.629 C 22.125 21.122,21.920 21.358,21.920 21.615 C 21.920 22.290,22.487 22.779,23.085 22.620 C 23.588 22.486,24.686 21.682,25.357 20.956 C 26.335 19.897,26.895 18.793,27.181 17.358 C 27.323 16.647,27.311 15.300,27.156 14.577 C 26.833 13.070,26.261 12.016,25.176 10.931 C 24.548 10.303,23.799 9.749,23.200 9.471 C 22.852 9.309,22.811 9.306,22.531 9.434 M21.147 13.235 C 20.795 13.429,20.587 13.751,20.587 14.101 C 20.587 14.426,20.628 14.515,21.032 15.056 C 21.648 15.879,21.649 16.309,21.038 17.013 C 20.695 17.408,20.568 17.705,20.599 18.033 C 20.665 18.721,21.399 19.090,22.061 18.770 C 22.526 18.544,23.051 17.831,23.302 17.082 C 23.393 16.811,23.413 16.619,23.413 16.042 C 23.412 15.403,23.397 15.291,23.261 14.900 C 23.097 14.428,22.706 13.794,22.444 13.573 C 22.029 13.225,21.443 13.072,21.147 13.235 " fill="#1A1C1F" stroke="none" fill-rule="evenodd"></path></svg>