<svg width="14" height="14" viewBox="0 0 14 14" fill="none" xmlns="http://www.w3.org/2000/svg"><path d="M7.432 2.889 C 7.289 2.969,7.235 3.004,6.229 3.664 L 5.424 4.192 5.086 4.207 C 4.462 4.234,4.231 4.285,3.913 4.467 C 3.378 4.771,3.052 5.196,2.855 5.845 C 2.816 5.972,2.812 6.085,2.812 7.047 L 2.812 8.108 2.890 8.318 C 2.985 8.574,3.035 8.673,3.158 8.855 C 3.443 9.278,3.918 9.616,4.388 9.730 C 4.526 9.763,4.707 9.782,4.992 9.792 L 5.400 9.808 6.299 10.400 C 7.332 11.081,7.518 11.183,7.710 11.182 C 7.971 11.179,8.194 11.053,8.323 10.833 L 8.385 10.727 8.403 10.001 C 8.426 9.034,8.426 4.543,8.402 3.850 C 8.380 3.225,8.371 3.188,8.199 3.023 C 7.986 2.819,7.660 2.762,7.432 2.889 M6.990 6.802 C 6.999 7.739,6.999 8.649,6.989 8.825 C 6.972 9.144,6.972 9.146,6.922 9.119 C 6.894 9.105,6.677 8.970,6.440 8.819 C 5.787 8.406,5.874 8.435,5.192 8.400 C 4.948 8.388,4.707 8.366,4.657 8.352 C 4.547 8.320,4.326 8.119,4.273 8.003 C 4.243 7.936,4.235 7.787,4.228 7.129 C 4.217 6.180,4.225 6.084,4.321 5.939 C 4.407 5.809,4.572 5.678,4.688 5.648 C 4.734 5.635,5.003 5.615,5.285 5.601 C 5.898 5.573,5.847 5.591,6.510 5.149 L 6.942 4.861 6.957 4.980 C 6.966 5.045,6.981 5.865,6.990 6.802 M9.695 4.924 C 9.563 4.944,9.459 5.004,9.328 5.138 C 9.160 5.311,9.115 5.414,9.113 5.624 C 9.112 5.776,9.122 5.820,9.186 5.950 C 9.227 6.034,9.352 6.212,9.464 6.347 C 9.709 6.642,9.751 6.730,9.769 6.985 C 9.782 7.161,9.777 7.192,9.724 7.306 C 9.691 7.375,9.574 7.542,9.463 7.677 C 9.148 8.059,9.061 8.280,9.123 8.537 C 9.178 8.770,9.387 8.999,9.627 9.090 C 9.721 9.126,9.757 9.128,9.887 9.106 C 10.130 9.064,10.276 8.979,10.512 8.740 C 10.889 8.358,11.117 7.856,11.182 7.261 C 11.262 6.529,10.918 5.585,10.425 5.183 C 10.185 4.986,9.916 4.891,9.695 4.924 " fill="#1A1C1F" stroke="none" fill-rule="evenodd"></path></svg>