<svg width="16" height="16" viewBox="0 0 16 16" fill="none" xmlns="http://www.w3.org/2000/svg"><path d="M3.336 1.681 C 3.093 1.701,3.033 1.716,2.843 1.808 C 2.317 2.062,1.899 2.533,1.748 3.040 C 1.669 3.309,1.653 4.098,1.628 8.960 L 1.603 13.773 1.659 13.886 C 1.740 14.047,1.854 14.177,1.982 14.252 C 2.192 14.375,2.594 14.391,2.758 14.284 C 2.852 14.222,3.408 13.688,4.326 12.776 L 5.092 12.015 8.886 12.006 C 12.634 11.997,12.682 11.996,12.853 11.941 C 13.541 11.723,14.033 11.221,14.257 10.509 C 14.331 10.275,14.348 9.594,14.364 6.413 L 14.379 3.213 14.294 2.982 C 14.203 2.733,14.078 2.509,13.930 2.328 C 13.753 2.112,13.369 1.857,13.025 1.728 L 12.867 1.668 8.240 1.664 C 5.695 1.661,3.489 1.669,3.336 1.681 M12.000 4.827 L 12.000 5.627 8.000 5.627 L 4.000 5.627 4.000 4.827 L 4.000 4.027 8.000 4.027 L 12.000 4.027 12.000 4.827 M12.000 8.027 L 12.000 8.827 8.000 8.827 L 4.000 8.827 4.000 8.027 L 4.000 7.227 8.000 7.227 L 12.000 7.227 12.000 8.027 " fill="#1A1C1F" stroke="none" fill-rule="evenodd"></path></svg>