<svg width="16" height="16" viewBox="0 0 16 16" fill="none" xmlns="http://www.w3.org/2000/svg"><path d="M3.520 1.681 C 3.099 1.701,3.012 1.721,2.737 1.857 C 2.498 1.974,2.344 2.089,2.143 2.298 C 1.933 2.517,1.818 2.700,1.697 3.006 L 1.600 3.253 1.600 8.541 L 1.600 13.830 1.676 13.949 C 1.869 14.254,2.235 14.419,2.563 14.349 C 2.737 14.311,2.774 14.279,3.867 13.214 C 4.987 12.121,5.010 12.102,5.182 12.076 C 5.258 12.065,6.964 12.049,8.973 12.040 C 10.983 12.031,12.705 12.013,12.800 12.000 C 12.919 11.983,13.049 11.938,13.213 11.854 C 13.743 11.586,14.103 11.156,14.332 10.517 L 14.400 10.327 14.400 6.781 L 14.400 3.236 14.335 3.046 C 14.131 2.446,13.814 2.097,13.208 1.806 L 12.975 1.694 12.161 1.676 C 11.115 1.653,4.029 1.657,3.520 1.681 M12.800 6.827 L 12.800 10.427 11.193 10.428 C 8.303 10.430,4.934 10.472,4.773 10.508 C 4.584 10.550,4.211 10.737,4.026 10.883 C 3.946 10.946,3.727 11.147,3.540 11.330 L 3.200 11.661 3.200 7.444 L 3.200 3.227 8.000 3.227 L 12.800 3.227 12.800 6.827 M4.800 5.627 L 4.800 6.427 8.000 6.427 L 11.200 6.427 11.200 5.627 L 11.200 4.827 8.000 4.827 L 4.800 4.827 4.800 5.627 M4.800 8.027 L 4.800 8.827 8.000 8.827 L 11.200 8.827 11.200 8.027 L 11.200 7.227 8.000 7.227 L 4.800 7.227 4.800 8.027 " fill="#1A1C1F" stroke="none" fill-rule="evenodd"></path></svg>