<svg width="32" height="32" viewBox="0 0 32 32" fill="none" xmlns="http://www.w3.org/2000/svg"><path d="M8.533 2.556 C 3.794 2.596,4.077 2.572,3.437 2.989 C 2.639 3.508,2.106 4.354,2.017 5.240 C 1.989 5.517,1.975 10.607,1.984 17.221 C 1.999 28.296,2.004 28.728,2.099 28.947 C 2.288 29.378,2.692 29.570,3.135 29.437 C 3.251 29.402,3.486 29.270,3.656 29.142 C 3.826 29.015,5.157 27.745,6.614 26.320 C 8.070 24.895,9.318 23.690,9.386 23.642 C 9.499 23.563,10.316 23.552,18.448 23.514 C 24.109 23.487,27.489 23.452,27.665 23.418 C 28.015 23.350,28.360 23.176,28.793 22.850 C 29.422 22.377,29.820 21.730,29.925 21.010 C 29.963 20.748,29.992 18.001,30.011 12.891 L 30.039 5.168 29.920 4.838 C 29.696 4.213,29.445 3.804,29.071 3.454 C 28.643 3.052,27.980 2.665,27.628 2.609 C 27.267 2.552,13.629 2.514,8.533 2.556 M27.542 4.645 C 27.620 4.707,27.755 4.881,27.842 5.032 L 27.999 5.307 27.996 11.867 C 27.995 15.475,27.975 18.979,27.952 19.653 C 27.905 21.082,27.881 21.166,27.476 21.348 C 27.227 21.460,27.216 21.460,18.154 21.499 L 9.082 21.537 8.661 21.710 L 8.240 21.883 6.120 23.993 L 4.000 26.102 4.006 18.745 C 4.010 14.698,4.028 9.950,4.046 8.194 L 4.080 5.001 4.311 4.796 C 4.522 4.609,4.573 4.590,4.898 4.573 C 5.093 4.563,10.236 4.550,16.326 4.544 L 27.399 4.533 27.542 4.645 M7.754 9.596 C 7.454 9.645,7.276 9.773,7.141 10.037 C 6.895 10.521,7.081 11.139,7.547 11.381 C 7.760 11.492,7.762 11.492,15.973 11.493 L 24.187 11.493 24.452 11.360 C 24.782 11.194,24.981 10.852,24.981 10.447 C 24.981 10.146,24.882 9.984,24.538 9.720 L 24.312 9.547 16.143 9.553 C 11.649 9.557,7.874 9.576,7.754 9.596 M7.656 14.620 C 7.402 14.680,7.276 14.786,7.136 15.061 C 7.009 15.309,6.999 15.713,7.114 15.935 C 7.214 16.129,7.535 16.415,7.697 16.456 C 7.764 16.472,11.513 16.477,16.029 16.467 C 22.322 16.452,24.286 16.432,24.438 16.382 C 24.685 16.300,24.832 16.115,24.937 15.755 C 25.050 15.368,24.975 15.106,24.665 14.795 L 24.429 14.560 16.148 14.565 C 11.280 14.569,7.780 14.591,7.656 14.620 " fill="#1A1C1F" stroke="none" fill-rule="evenodd"></path></svg>