<svg width="14" height="14" viewBox="0 0 14 14" fill="none" xmlns="http://www.w3.org/2000/svg"><path d="M2.917 1.469 C 2.580 1.495,2.225 1.668,1.941 1.945 C 1.691 2.188,1.569 2.381,1.457 2.712 L 1.400 2.878 1.400 7.490 L 1.400 12.101 1.466 12.205 C 1.637 12.475,1.953 12.615,2.248 12.554 C 2.390 12.525,2.360 12.552,3.826 11.137 C 4.108 10.864,4.368 10.623,4.403 10.600 C 4.461 10.562,4.568 10.557,5.634 10.543 C 6.276 10.535,7.796 10.527,9.011 10.526 L 11.221 10.523 11.430 10.433 C 11.545 10.383,11.697 10.303,11.768 10.256 C 11.931 10.148,12.237 9.825,12.340 9.652 C 12.464 9.445,12.552 9.158,12.577 8.885 C 12.589 8.753,12.599 7.332,12.599 5.726 C 12.600 2.923,12.598 2.802,12.556 2.679 C 12.388 2.191,12.079 1.841,11.608 1.607 L 11.375 1.491 11.002 1.470 C 10.586 1.446,3.230 1.445,2.917 1.469 M11.200 5.973 L 11.200 9.123 9.853 9.124 C 9.111 9.125,7.555 9.135,6.393 9.146 C 4.062 9.169,4.171 9.162,3.839 9.324 C 3.637 9.422,3.448 9.573,3.074 9.937 L 2.800 10.203 2.800 6.513 L 2.800 2.823 7.000 2.823 L 11.200 2.823 11.200 5.973 M4.200 4.923 L 4.200 5.623 7.000 5.623 L 9.800 5.623 9.800 4.923 L 9.800 4.223 7.000 4.223 L 4.200 4.223 4.200 4.923 M4.200 7.023 L 4.200 7.723 7.000 7.723 L 9.800 7.723 9.800 7.023 L 9.800 6.323 7.000 6.323 L 4.200 6.323 4.200 7.023 " fill="#1A1C1F" stroke="none" fill-rule="evenodd"></path></svg>