<svg width="28" height="28" viewBox="0 0 28 28" fill="none" xmlns="http://www.w3.org/2000/svg"><path d="M7.537 2.237 C 3.312 2.271,3.554 2.251,3.002 2.613 C 2.581 2.890,2.226 3.297,2.000 3.766 C 1.832 4.112,1.800 4.230,1.764 4.625 C 1.741 4.882,1.729 9.500,1.736 15.107 C 1.749 24.760,1.753 25.137,1.837 25.329 C 2.002 25.706,2.356 25.874,2.743 25.758 C 2.845 25.727,3.050 25.611,3.199 25.500 C 3.348 25.388,4.512 24.277,5.787 23.030 C 7.062 21.783,8.154 20.729,8.214 20.686 C 8.314 20.616,8.998 20.607,16.143 20.574 C 21.234 20.551,24.050 20.521,24.213 20.489 C 24.726 20.389,25.422 19.904,25.773 19.401 C 26.040 19.019,26.124 18.810,26.184 18.387 C 26.260 17.851,26.302 4.691,26.229 4.399 C 26.198 4.277,26.091 4.002,25.991 3.787 C 25.847 3.480,25.737 3.328,25.469 3.064 C 25.097 2.697,24.523 2.343,24.206 2.284 C 23.933 2.233,12.112 2.200,7.537 2.237 M24.099 4.065 C 24.167 4.119,24.286 4.271,24.361 4.403 L 24.499 4.643 24.497 10.383 C 24.495 13.540,24.478 16.606,24.458 17.197 C 24.417 18.446,24.396 18.521,24.042 18.680 C 23.824 18.777,23.812 18.778,15.884 18.812 L 7.945 18.846 7.577 18.997 L 7.210 19.148 5.355 20.994 L 3.500 22.840 3.506 16.518 C 3.509 13.041,3.524 8.887,3.541 7.286 L 3.570 4.376 3.772 4.197 C 3.957 4.033,4.001 4.016,4.285 4.001 C 4.457 3.992,8.957 3.981,14.285 3.976 L 23.974 3.967 24.099 4.065 M9.240 8.348 C 6.787 8.376,6.691 8.380,6.533 8.472 C 6.049 8.756,6.029 9.567,6.497 9.901 C 6.648 10.009,6.671 10.010,8.353 10.045 C 9.290 10.065,12.566 10.076,15.633 10.069 C 20.923 10.057,21.219 10.052,21.381 9.972 C 21.618 9.854,21.887 9.425,21.887 9.166 C 21.887 9.007,21.738 8.728,21.560 8.554 C 21.446 8.443,21.356 8.404,21.171 8.383 C 20.801 8.342,12.103 8.317,9.240 8.348 M6.699 12.793 C 6.477 12.845,6.367 12.938,6.244 13.178 C 6.133 13.395,6.124 13.749,6.225 13.944 C 6.312 14.113,6.593 14.363,6.735 14.399 C 6.793 14.413,10.074 14.418,14.026 14.408 C 19.532 14.395,21.250 14.378,21.383 14.334 C 21.600 14.262,21.728 14.101,21.820 13.785 C 21.918 13.447,21.853 13.218,21.582 12.946 L 21.376 12.740 14.130 12.745 C 9.870 12.747,6.807 12.767,6.699 12.793 " fill="#1A1C1F" stroke="none" fill-rule="evenodd"></path></svg>