<svg width="24" height="24" viewBox="0 0 24 24" fill="none" xmlns="http://www.w3.org/2000/svg"><path d="M4.480 2.080 C 4.014 2.123,3.534 2.354,3.051 2.767 C 2.565 3.184,2.170 3.831,2.075 4.366 C 2.020 4.681,1.978 19.936,2.030 20.767 C 2.062 21.273,2.074 21.329,2.184 21.507 C 2.397 21.853,2.874 22.059,3.235 21.961 C 3.464 21.900,3.617 21.767,5.200 20.260 C 7.083 18.468,7.499 18.095,7.654 18.061 C 7.723 18.046,10.408 18.018,13.620 17.998 C 17.225 17.976,19.560 17.946,19.720 17.921 C 20.216 17.843,20.847 17.451,21.252 16.969 C 21.497 16.678,21.689 16.337,21.848 15.913 L 21.973 15.580 21.977 9.920 L 21.980 4.260 21.851 3.940 C 21.509 3.096,20.921 2.533,20.012 2.182 L 19.643 2.040 12.212 2.046 C 8.124 2.049,4.645 2.065,4.480 2.080 M19.146 4.064 C 19.355 4.082,19.418 4.108,19.561 4.230 C 19.654 4.310,19.782 4.447,19.845 4.534 L 19.960 4.692 19.960 9.997 L 19.960 15.301 19.823 15.505 C 19.747 15.617,19.603 15.763,19.503 15.830 L 19.320 15.951 18.070 15.974 C 17.383 15.987,14.732 16.009,12.180 16.021 C 9.628 16.034,7.413 16.059,7.257 16.077 C 6.661 16.145,6.266 16.429,4.892 17.775 L 3.988 18.660 4.016 11.680 L 4.043 4.700 4.171 4.511 C 4.242 4.407,4.382 4.259,4.484 4.181 L 4.668 4.041 7.084 4.028 C 10.300 4.011,18.836 4.036,19.146 4.064 M8.420 7.039 C 6.979 7.059,6.677 7.072,6.560 7.125 C 6.378 7.206,6.144 7.468,6.076 7.665 C 6.004 7.875,6.011 8.271,6.090 8.420 C 6.174 8.579,6.470 8.862,6.620 8.928 C 6.716 8.970,7.680 8.982,11.460 8.992 C 16.501 9.004,17.234 8.986,17.515 8.842 C 17.702 8.747,17.895 8.482,17.964 8.225 C 18.063 7.856,17.863 7.367,17.532 7.173 L 17.343 7.062 15.941 7.034 C 14.352 7.003,10.969 7.005,8.420 7.039 M8.157 11.035 L 6.654 11.060 6.490 11.168 C 6.207 11.356,6.000 11.698,6.000 11.977 C 6.000 12.317,6.254 12.713,6.616 12.938 C 6.728 13.007,6.973 13.009,11.996 12.991 C 15.601 12.977,17.293 12.958,17.366 12.928 C 17.525 12.863,17.751 12.650,17.865 12.455 C 18.000 12.226,18.009 11.813,17.885 11.570 C 17.786 11.376,17.480 11.098,17.330 11.066 C 17.166 11.030,9.890 11.006,8.157 11.035 " fill="#1A1C1F" stroke="none" fill-rule="evenodd"></path></svg>