<svg width="20" height="20" viewBox="0 0 20 20" fill="none" xmlns="http://www.w3.org/2000/svg"><path d="M4.367 2.100 C 3.956 2.119,3.849 2.136,3.653 2.212 C 2.892 2.507,2.393 3.026,2.099 3.830 L 2.000 4.102 2.000 10.694 L 2.000 17.287 2.095 17.436 C 2.338 17.820,2.789 18.022,3.208 17.935 C 3.375 17.900,3.422 17.866,3.823 17.490 C 4.062 17.267,4.668 16.683,5.170 16.194 C 5.672 15.706,6.134 15.264,6.195 15.214 C 6.259 15.161,6.373 15.110,6.462 15.095 C 6.547 15.080,8.739 15.058,11.333 15.046 L 16.050 15.024 16.339 14.899 C 16.737 14.727,16.954 14.575,17.257 14.253 C 17.705 13.778,17.910 13.327,17.968 12.683 C 17.984 12.500,17.998 10.472,17.999 8.177 L 18.000 4.003 17.897 3.719 C 17.656 3.052,17.214 2.592,16.480 2.243 L 16.217 2.118 15.117 2.095 C 13.716 2.066,5.009 2.071,4.367 2.100 M16.000 8.528 L 16.000 13.023 11.588 13.047 C 9.161 13.060,6.888 13.083,6.536 13.098 L 5.897 13.125 5.557 13.291 C 5.150 13.489,4.984 13.617,4.425 14.162 L 4.000 14.576 4.000 9.305 L 4.000 4.033 10.000 4.033 L 16.000 4.033 16.000 8.528 M6.000 7.033 L 6.000 8.033 10.000 8.033 L 14.000 8.033 14.000 7.033 L 14.000 6.033 10.000 6.033 L 6.000 6.033 6.000 7.033 M6.000 10.033 L 6.000 11.033 10.000 11.033 L 14.000 11.033 14.000 10.033 L 14.000 9.033 10.000 9.033 L 6.000 9.033 6.000 10.033 " fill="#1A1C1F" stroke="none" fill-rule="evenodd"></path></svg>