<svg width="12" height="12" viewBox="0 0 12 12" fill="none" xmlns="http://www.w3.org/2000/svg"><path d="M2.492 1.260 C 2.313 1.274,2.278 1.284,2.112 1.367 C 1.724 1.561,1.422 1.905,1.311 2.280 C 1.251 2.482,1.239 3.075,1.221 6.720 L 1.203 10.330 1.245 10.414 C 1.377 10.681,1.630 10.809,1.932 10.760 C 2.033 10.743,2.060 10.727,2.216 10.586 C 2.310 10.500,2.711 10.111,3.106 9.720 L 3.825 9.010 6.678 9.004 C 9.507 8.999,9.531 8.998,9.650 8.957 C 9.916 8.865,10.080 8.761,10.280 8.561 C 10.597 8.242,10.710 7.989,10.742 7.520 C 10.752 7.372,10.766 6.161,10.772 4.830 L 10.784 2.410 10.721 2.237 C 10.652 2.050,10.559 1.881,10.448 1.746 C 10.315 1.584,10.026 1.393,9.769 1.296 L 9.650 1.251 6.170 1.248 C 4.256 1.246,2.601 1.252,2.492 1.260 M9.000 3.620 L 9.000 4.220 6.000 4.220 L 3.000 4.220 3.000 3.620 L 3.000 3.020 6.000 3.020 L 9.000 3.020 9.000 3.620 M9.000 6.020 L 9.000 6.620 6.000 6.620 L 3.000 6.620 3.000 6.020 L 3.000 5.420 6.000 5.420 L 9.000 5.420 9.000 6.020 " fill="#1A1C1F" stroke="none" fill-rule="evenodd"></path></svg>