<svg width="20" height="20" viewBox="0 0 20 20" fill="none" xmlns="http://www.w3.org/2000/svg"><path d="M4.183 2.100 C 3.872 2.127,3.727 2.168,3.447 2.310 C 2.882 2.596,2.360 3.213,2.185 3.800 C 2.086 4.134,2.066 5.138,2.036 11.217 L 2.006 17.217 2.075 17.357 C 2.174 17.558,2.317 17.721,2.477 17.815 C 2.663 17.923,3.005 17.977,3.234 17.933 C 3.454 17.892,3.549 17.807,5.172 16.205 L 6.368 15.025 11.159 15.002 L 15.950 14.980 16.169 14.894 C 16.509 14.760,16.664 14.674,16.925 14.476 C 17.323 14.174,17.651 13.703,17.797 13.222 C 17.908 12.856,17.928 12.099,17.940 7.817 L 17.950 3.850 17.823 3.563 C 17.533 2.907,16.997 2.425,16.263 2.160 L 16.050 2.083 10.267 2.079 C 7.086 2.077,4.348 2.086,4.183 2.100 M15.000 6.033 L 15.000 7.033 10.000 7.033 L 5.000 7.033 5.000 6.033 L 5.000 5.033 10.000 5.033 L 15.000 5.033 15.000 6.033 M15.000 10.033 L 15.000 11.033 10.000 11.033 L 5.000 11.033 5.000 10.033 L 5.000 9.033 10.000 9.033 L 15.000 9.033 15.000 10.033 " fill="#1A1C1F" stroke="none" fill-rule="evenodd"></path></svg>