<svg width="12" height="12" viewBox="0 0 12 12" fill="none" xmlns="http://www.w3.org/2000/svg"><path d="M2.630 1.260 C 2.321 1.274,2.248 1.293,1.993 1.425 C 1.893 1.477,1.780 1.560,1.677 1.656 C 1.451 1.869,1.350 2.026,1.249 2.324 L 1.200 2.467 1.200 6.420 L 1.200 10.372 1.257 10.462 C 1.403 10.692,1.674 10.813,1.925 10.761 C 2.025 10.740,2.053 10.720,2.294 10.494 C 2.437 10.360,2.801 10.010,3.102 9.716 C 3.403 9.422,3.684 9.155,3.726 9.123 C 3.788 9.074,3.827 9.061,3.946 9.050 C 4.025 9.043,5.341 9.031,6.870 9.023 L 9.650 9.008 9.787 8.951 C 10.124 8.811,10.431 8.532,10.613 8.199 C 10.670 8.095,10.727 7.974,10.740 7.930 C 10.782 7.780,10.798 6.914,10.799 4.669 L 10.800 2.427 10.753 2.289 C 10.604 1.853,10.370 1.588,9.942 1.374 L 9.735 1.270 9.062 1.257 C 8.215 1.240,3.006 1.243,2.630 1.260 M9.600 5.120 L 9.600 7.820 8.275 7.821 C 6.089 7.823,3.706 7.853,3.580 7.881 C 3.438 7.912,3.158 8.052,3.019 8.162 C 2.959 8.210,2.795 8.361,2.655 8.497 L 2.400 8.746 2.400 5.583 L 2.400 2.420 6.000 2.420 L 9.600 2.420 9.600 5.120 M3.600 4.220 L 3.600 4.820 6.000 4.820 L 8.400 4.820 8.400 4.220 L 8.400 3.620 6.000 3.620 L 3.600 3.620 3.600 4.220 M3.600 6.020 L 3.600 6.620 6.000 6.620 L 8.400 6.620 8.400 6.020 L 8.400 5.420 6.000 5.420 L 3.600 5.420 3.600 6.020 " fill="#1A1C1F" stroke="none" fill-rule="evenodd"></path></svg>