<svg width="14" height="14" viewBox="0 0 14 14" fill="none" xmlns="http://www.w3.org/2000/svg"><path d="M2.952 1.469 C 2.720 1.487,2.619 1.514,2.427 1.611 C 2.020 1.814,1.653 2.243,1.530 2.660 C 1.460 2.897,1.446 3.595,1.425 7.840 L 1.405 12.052 1.460 12.159 C 1.534 12.306,1.620 12.404,1.735 12.471 C 1.862 12.545,2.086 12.580,2.254 12.553 C 2.374 12.533,2.402 12.516,2.608 12.327 C 2.731 12.214,3.199 11.759,3.647 11.317 L 4.463 10.512 7.791 10.505 C 11.090 10.498,11.120 10.498,11.258 10.450 C 11.568 10.343,11.760 10.222,11.993 9.988 C 12.370 9.609,12.495 9.322,12.533 8.750 C 12.545 8.564,12.561 7.152,12.568 5.612 L 12.582 2.812 12.508 2.609 C 12.427 2.390,12.319 2.195,12.186 2.033 C 12.036 1.850,11.691 1.623,11.393 1.511 L 11.258 1.460 7.210 1.456 C 4.983 1.454,3.067 1.460,2.952 1.469 M10.500 4.223 L 10.500 4.923 7.000 4.923 L 3.500 4.923 3.500 4.223 L 3.500 3.523 7.000 3.523 L 10.500 3.523 10.500 4.223 M10.500 7.023 L 10.500 7.723 7.000 7.723 L 3.500 7.723 3.500 7.023 L 3.500 6.323 7.000 6.323 L 10.500 6.323 10.500 7.023 " fill="#1A1C1F" stroke="none" fill-rule="evenodd"></path></svg>