<svg width="32" height="32" viewBox="0 0 32 32" fill="none" xmlns="http://www.w3.org/2000/svg"><path d="M3.467 6.130 C 3.335 6.150,3.154 6.204,3.065 6.252 C 2.794 6.395,2.301 6.935,2.132 7.272 L 1.973 7.590 1.973 15.494 C 1.973 23.213,1.976 23.404,2.078 23.701 C 2.480 24.869,3.131 25.520,4.299 25.922 C 4.598 26.025,4.807 26.027,16.007 26.027 L 27.410 26.027 27.851 25.866 C 28.376 25.674,28.746 25.438,29.141 25.043 C 29.494 24.690,29.659 24.418,29.871 23.836 L 30.033 23.393 30.011 15.603 C 29.988 7.456,29.987 7.437,29.758 7.064 C 29.606 6.818,29.153 6.392,28.867 6.227 L 28.613 6.081 16.160 6.088 C 9.311 6.091,3.599 6.110,3.467 6.130 M24.053 10.538 C 19.988 14.611,16.536 17.978,16.341 18.059 C 16.057 18.178,15.783 18.152,15.517 17.982 C 15.387 17.899,13.060 15.620,10.347 12.918 L 5.413 8.005 16.000 8.003 L 26.586 8.000 24.053 10.538 M13.781 19.087 C 14.727 19.978,15.017 20.112,16.000 20.114 C 16.714 20.115,17.141 19.990,17.599 19.646 C 18.052 19.305,19.497 17.897,24.072 13.338 L 28.010 9.413 27.973 16.399 L 27.936 23.384 27.779 23.582 C 27.693 23.691,27.543 23.830,27.445 23.890 L 27.267 24.000 15.988 24.000 L 4.709 24.000 4.495 23.845 C 4.377 23.759,4.231 23.620,4.171 23.536 C 4.062 23.383,4.061 23.327,4.022 16.398 L 3.983 9.415 8.565 13.953 C 11.085 16.448,13.432 18.759,13.781 19.087 " fill="#1A1C1F" stroke="none" fill-rule="evenodd"></path></svg>