<svg width="24" height="24" viewBox="0 0 24 24" fill="none" xmlns="http://www.w3.org/2000/svg"><path d="M6.260 5.039 L 3.460 5.060 3.240 5.173 C 2.738 5.431,2.395 5.781,2.174 6.261 C 2.068 6.490,2.063 6.535,2.035 7.380 C 2.019 7.864,2.005 10.119,2.003 12.392 L 2.000 16.523 2.142 16.892 C 2.478 17.764,2.995 18.351,3.740 18.704 C 4.336 18.987,3.695 18.965,11.980 18.988 L 19.460 19.008 19.820 18.880 C 20.305 18.708,20.568 18.562,20.890 18.289 C 21.382 17.871,21.625 17.508,21.885 16.800 L 21.980 16.540 21.980 11.640 C 21.980 6.978,21.976 6.727,21.905 6.469 C 21.763 5.952,21.350 5.469,20.820 5.200 L 20.544 5.060 18.162 5.035 C 15.445 5.006,10.363 5.008,6.260 5.039 M16.660 8.764 C 14.609 10.819,12.642 12.730,12.435 12.868 C 12.262 12.983,11.897 13.002,11.671 12.907 C 11.503 12.837,9.921 11.309,7.400 8.783 L 5.620 7.000 12.020 7.000 L 18.420 7.000 16.660 8.764 M9.380 13.524 C 10.418 14.539,10.734 14.784,11.213 14.945 C 11.499 15.042,11.600 15.055,12.020 15.054 C 12.840 15.052,13.262 14.872,13.966 14.226 C 14.216 13.997,15.653 12.593,17.160 11.106 C 19.653 8.646,19.903 8.411,19.935 8.492 C 19.982 8.605,19.992 15.845,19.946 16.216 C 19.915 16.468,19.897 16.508,19.731 16.686 C 19.614 16.811,19.491 16.898,19.385 16.930 C 19.141 17.004,4.936 17.003,4.692 16.929 C 4.491 16.868,4.335 16.743,4.181 16.522 L 4.068 16.358 4.050 12.289 L 4.032 8.220 6.246 10.422 C 7.464 11.633,8.874 13.029,9.380 13.524 " fill="#1A1C1F" stroke="none" fill-rule="evenodd"></path></svg>