<svg width="28" height="28" viewBox="0 0 28 28" fill="none" xmlns="http://www.w3.org/2000/svg"><path d="M3.033 5.364 C 2.918 5.381,2.760 5.429,2.682 5.470 C 2.445 5.596,2.013 6.068,1.866 6.363 L 1.727 6.642 1.727 13.557 C 1.727 20.256,1.729 20.480,1.816 20.733 C 2.172 21.766,2.776 22.363,3.805 22.698 C 4.019 22.768,4.889 22.773,14.071 22.762 L 24.103 22.750 24.477 22.599 C 25.217 22.300,25.800 21.720,26.094 20.992 L 26.250 20.603 26.250 13.790 C 26.250 6.590,26.247 6.500,26.039 6.181 C 25.884 5.946,25.512 5.595,25.270 5.455 L 25.037 5.321 14.140 5.327 C 8.147 5.330,3.149 5.347,3.033 5.364 M21.093 9.174 C 17.542 12.733,14.468 15.731,14.298 15.802 C 14.050 15.905,13.811 15.883,13.577 15.734 C 13.463 15.662,11.428 13.668,9.053 11.303 L 4.737 7.004 14.000 7.002 L 23.263 7.000 21.093 9.174 M12.058 16.702 C 12.364 16.989,12.705 17.278,12.817 17.343 C 13.133 17.528,13.501 17.608,14.023 17.605 C 14.623 17.601,15.007 17.485,15.399 17.190 C 15.800 16.889,17.090 15.630,21.058 11.671 L 24.500 8.237 24.500 10.407 C 24.500 11.600,24.486 14.362,24.469 16.543 L 24.438 20.510 24.187 20.755 L 23.936 21.000 14.000 21.000 L 4.064 21.000 3.813 20.755 L 3.562 20.510 3.531 16.851 C 3.514 14.838,3.500 12.080,3.500 10.722 L 3.500 8.252 7.502 12.216 C 9.703 14.396,11.753 16.414,12.058 16.702 " fill="#1A1C1F" stroke="none" fill-rule="evenodd"></path></svg>