<svg width="14" height="14" viewBox="0 0 14 14" fill="none" xmlns="http://www.w3.org/2000/svg"><path d="M3.987 2.821 L 2.433 2.835 2.225 2.940 C 2.062 3.023,1.977 3.086,1.820 3.243 C 1.618 3.445,1.537 3.574,1.444 3.846 C 1.402 3.969,1.400 4.093,1.400 7.004 L 1.400 10.035 1.471 10.218 C 1.646 10.674,1.941 10.964,2.393 11.128 L 2.592 11.200 7.000 11.200 L 11.408 11.200 11.607 11.128 C 12.067 10.961,12.361 10.667,12.528 10.207 L 12.600 10.008 12.600 6.989 L 12.600 3.969 12.539 3.799 C 12.445 3.537,12.396 3.455,12.229 3.282 C 12.062 3.108,11.944 3.018,11.760 2.926 C 11.665 2.879,11.588 2.863,11.369 2.846 C 11.013 2.820,5.992 2.802,3.987 2.821 M10.847 4.237 C 10.892 4.247,10.772 4.346,10.135 4.824 C 9.114 5.591,7.328 6.918,7.146 7.047 L 7.000 7.149 6.854 7.047 C 6.522 6.813,3.394 4.496,3.165 4.314 L 3.051 4.224 4.250 4.217 C 5.837 4.208,10.777 4.223,10.847 4.237 M11.200 7.793 L 11.200 9.800 7.000 9.800 L 2.800 9.800 2.803 8.196 C 2.805 7.314,2.813 6.420,2.821 6.210 L 2.835 5.828 3.722 6.488 C 4.931 7.388,6.422 8.491,6.726 8.712 L 6.977 8.894 7.056 8.848 C 7.190 8.769,7.897 8.249,9.578 6.992 C 10.464 6.330,11.191 5.788,11.194 5.787 C 11.197 5.787,11.200 6.690,11.200 7.793 " fill="#1A1C1F" stroke="none" fill-rule="evenodd"></path></svg>