<svg width="12" height="12" viewBox="0 0 12 12" fill="none" xmlns="http://www.w3.org/2000/svg"><path d="M3.550 2.420 C 2.596 2.429,2.088 2.441,2.044 2.456 C 1.688 2.574,1.314 2.976,1.240 3.320 C 1.222 3.400,1.213 4.125,1.206 6.011 L 1.196 8.592 1.259 8.754 C 1.409 9.142,1.656 9.391,2.041 9.539 L 2.199 9.600 6.000 9.600 L 9.801 9.600 9.959 9.539 C 10.342 9.392,10.592 9.142,10.739 8.759 L 10.800 8.601 10.800 6.002 L 10.800 3.402 10.748 3.256 C 10.630 2.923,10.431 2.695,10.114 2.528 C 9.988 2.462,9.954 2.454,9.752 2.439 C 9.430 2.416,5.234 2.403,3.550 2.420 M9.298 3.632 C 9.337 3.640,9.162 3.779,8.258 4.456 C 7.107 5.317,6.146 6.029,6.055 6.089 C 6.002 6.123,5.998 6.123,5.945 6.089 C 5.862 6.036,4.338 4.912,3.442 4.244 C 2.960 3.885,2.662 3.650,2.673 3.639 C 2.704 3.608,9.150 3.602,9.298 3.632 M9.600 6.680 L 9.600 8.400 6.000 8.400 L 2.400 8.400 2.402 7.045 C 2.404 6.300,2.411 5.534,2.417 5.343 L 2.430 4.996 3.880 6.073 C 5.595 7.347,5.735 7.450,5.884 7.549 L 5.997 7.624 6.094 7.558 C 6.262 7.443,7.033 6.873,8.330 5.903 C 9.023 5.385,9.592 4.961,9.595 4.960 C 9.598 4.960,9.600 5.734,9.600 6.680 " fill="#1A1C1F" stroke="none" fill-rule="evenodd"></path></svg>