<svg width="16" height="16" viewBox="0 0 16 16" fill="none" xmlns="http://www.w3.org/2000/svg"><path d="M4.733 3.226 C 3.462 3.239,2.784 3.255,2.725 3.275 C 2.251 3.432,1.752 3.967,1.653 4.427 C 1.629 4.534,1.617 5.496,1.608 8.021 L 1.595 11.469 1.681 11.683 C 1.890 12.202,2.212 12.523,2.722 12.719 L 2.932 12.800 8.000 12.800 L 13.068 12.800 13.278 12.719 C 13.784 12.524,14.124 12.183,14.320 11.675 L 14.400 11.468 14.400 8.008 L 14.400 4.547 14.307 4.297 C 14.255 4.159,14.190 4.008,14.160 3.960 C 14.062 3.802,13.702 3.484,13.500 3.378 C 13.325 3.287,13.279 3.275,13.007 3.254 C 12.591 3.221,7.066 3.203,4.733 3.226 M12.409 4.844 C 12.444 4.855,12.045 5.167,10.942 5.992 C 9.388 7.155,8.351 7.923,8.127 8.076 L 8.000 8.163 7.873 8.076 C 7.322 7.697,3.499 4.860,3.522 4.847 C 3.586 4.811,12.285 4.809,12.409 4.844 M12.800 8.907 L 12.800 11.200 8.000 11.200 L 3.200 11.200 3.203 9.393 C 3.205 8.400,3.214 7.379,3.223 7.124 L 3.240 6.662 4.773 7.802 C 6.811 9.316,7.662 9.943,7.845 10.065 L 7.996 10.165 8.125 10.077 C 8.354 9.921,9.391 9.153,11.107 7.870 C 12.031 7.180,12.790 6.614,12.793 6.614 C 12.797 6.614,12.800 7.645,12.800 8.907 " fill="#1A1C1F" stroke="none" fill-rule="evenodd"></path></svg>