<svg width="20" height="20" viewBox="0 0 20 20" fill="none" xmlns="http://www.w3.org/2000/svg"><path d="M5.750 4.030 L 3.450 4.050 3.300 4.129 C 2.659 4.469,2.320 4.828,2.105 5.396 L 2.022 5.617 2.007 9.967 L 1.993 14.317 2.098 14.588 C 2.352 15.249,2.770 15.662,3.419 15.897 L 3.703 16.000 10.000 16.000 L 16.297 16.000 16.581 15.897 C 17.238 15.659,17.659 15.238,17.897 14.581 L 18.000 14.297 18.000 9.984 L 18.000 5.671 17.913 5.427 C 17.778 5.052,17.708 4.935,17.470 4.688 C 17.231 4.440,17.063 4.312,16.800 4.180 C 16.664 4.112,16.555 4.090,16.241 4.067 C 15.726 4.029,8.671 4.004,5.750 4.030 M15.511 6.055 C 15.556 6.068,15.038 6.473,13.611 7.541 C 11.459 9.151,10.090 10.160,10.025 10.184 C 9.978 10.202,9.495 9.859,7.704 8.535 C 5.708 7.059,4.385 6.067,4.401 6.059 C 4.491 6.014,15.356 6.011,15.511 6.055 M16.000 11.133 L 16.000 14.000 10.000 14.000 L 4.000 14.000 4.000 11.889 C 4.000 9.617,4.026 8.367,4.074 8.367 C 4.090 8.367,5.066 9.082,6.243 9.957 C 8.876 11.913,9.568 12.423,9.809 12.582 L 9.995 12.706 10.156 12.597 C 10.437 12.404,11.721 11.454,13.883 9.838 C 15.038 8.975,15.987 8.268,15.992 8.267 C 15.996 8.267,16.000 9.557,16.000 11.133 " fill="#1A1C1F" stroke="none" fill-rule="evenodd"></path></svg>