<svg width="12" height="12" viewBox="0 0 12 12" fill="none" xmlns="http://www.w3.org/2000/svg"><path d="M9.220 1.554 C 6.140 2.780,1.785 4.537,1.594 4.632 C 1.390 4.732,1.330 4.784,1.268 4.915 C 1.187 5.085,1.189 5.248,1.274 5.421 C 1.309 5.492,1.363 5.574,1.394 5.604 C 1.462 5.668,1.451 5.664,3.488 6.350 L 5.106 6.894 5.640 8.482 C 6.279 10.379,6.331 10.526,6.395 10.603 C 6.458 10.677,6.596 10.748,6.743 10.780 C 6.949 10.826,7.166 10.737,7.280 10.560 C 7.399 10.374,7.759 9.498,9.299 5.650 C 10.314 3.112,10.658 2.240,10.750 1.971 C 10.812 1.788,10.810 1.718,10.735 1.556 C 10.672 1.419,10.599 1.348,10.450 1.277 C 10.352 1.230,10.305 1.220,10.190 1.222 C 10.058 1.223,10.005 1.241,9.220 1.554 M9.091 2.976 C 9.058 3.069,8.639 4.107,7.726 6.360 C 6.864 8.487,6.900 8.400,6.881 8.400 C 6.865 8.400,6.827 8.294,6.418 7.081 C 6.264 6.626,6.115 6.205,6.088 6.147 C 6.025 6.015,5.923 5.933,5.724 5.854 C 5.639 5.821,5.112 5.639,4.552 5.450 L 3.535 5.106 3.662 5.055 C 6.769 3.806,9.089 2.883,9.102 2.891 C 9.111 2.897,9.106 2.935,9.091 2.976 " fill="#1A1C1F" stroke="none" fill-rule="evenodd"></path></svg>