<svg width="16" height="16" viewBox="0 0 16 16" fill="none" xmlns="http://www.w3.org/2000/svg"><path d="M13.347 1.659 C 12.930 1.808,2.252 6.099,2.067 6.193 C 1.769 6.344,1.619 6.572,1.615 6.881 C 1.614 7.025,1.628 7.084,1.699 7.227 C 1.745 7.323,1.817 7.432,1.859 7.471 C 1.949 7.557,1.940 7.554,4.651 8.466 L 6.808 9.192 7.575 11.469 C 7.996 12.722,8.368 13.821,8.399 13.912 C 8.500 14.198,8.769 14.374,9.107 14.372 C 9.319 14.371,9.452 14.331,9.587 14.228 C 9.700 14.142,9.838 13.867,10.174 13.053 C 10.472 12.333,12.603 7.029,13.435 4.933 C 14.352 2.627,14.381 2.547,14.383 2.373 C 14.386 1.970,14.022 1.624,13.600 1.629 C 13.505 1.630,13.391 1.644,13.347 1.659 M12.160 3.853 C 12.160 3.884,10.570 7.830,9.608 10.187 C 9.395 10.707,9.215 11.148,9.208 11.167 C 9.200 11.185,9.186 11.200,9.175 11.200 C 9.152 11.200,9.099 11.048,8.571 9.482 C 8.358 8.853,8.154 8.273,8.116 8.194 C 8.034 8.020,7.882 7.900,7.613 7.797 C 7.511 7.758,6.816 7.519,6.070 7.267 L 4.713 6.808 5.083 6.660 C 5.287 6.578,6.953 5.910,8.785 5.176 C 10.618 4.441,12.127 3.840,12.139 3.840 C 12.150 3.840,12.160 3.846,12.160 3.853 " fill="#1A1C1F" stroke="none" fill-rule="evenodd"></path></svg>