<svg width="24" height="24" viewBox="0 0 24 24" fill="none" xmlns="http://www.w3.org/2000/svg"><path d="M20.276 2.560 C 19.680 2.710,4.011 8.748,3.373 9.074 C 2.988 9.270,2.635 9.793,2.549 10.294 C 2.458 10.828,2.661 11.435,3.059 11.817 C 3.332 12.080,3.517 12.153,5.380 12.739 C 8.695 13.781,9.549 14.053,9.688 14.108 C 9.834 14.166,9.839 14.176,10.036 14.773 C 10.146 15.107,10.481 16.163,10.780 17.120 C 11.433 19.212,11.826 20.411,11.921 20.600 C 12.011 20.778,12.371 21.139,12.583 21.264 C 13.388 21.736,14.527 21.414,14.941 20.599 C 15.089 20.305,16.684 16.215,19.083 9.973 C 20.985 5.025,21.397 3.904,21.462 3.494 C 21.494 3.294,21.418 3.105,21.217 2.882 C 20.959 2.596,20.609 2.477,20.276 2.560 M15.974 6.586 C 15.377 7.244,10.468 12.082,10.373 12.105 C 10.265 12.133,9.659 11.963,7.640 11.340 C 5.724 10.748,5.155 10.560,5.177 10.524 C 5.198 10.490,6.275 10.070,12.200 7.783 C 14.389 6.938,16.204 6.245,16.234 6.243 C 16.263 6.242,16.146 6.396,15.974 6.586 M17.701 7.870 C 17.669 7.953,17.212 9.154,16.685 10.540 C 15.768 12.954,13.838 17.983,13.617 18.536 C 13.559 18.681,13.499 18.800,13.483 18.800 C 13.451 18.800,13.089 17.685,12.335 15.267 L 11.827 13.634 12.803 12.647 C 15.369 10.054,17.703 7.720,17.730 7.720 C 17.746 7.720,17.733 7.788,17.701 7.870 " fill="#1A1C1F" stroke="none" fill-rule="evenodd"></path></svg>