<svg width="32" height="32" viewBox="0 0 32 32" fill="none" xmlns="http://www.w3.org/2000/svg"><path d="M27.573 3.115 C 27.284 3.201,27.413 3.151,21.307 5.521 C 8.691 10.416,4.484 12.071,3.980 12.337 C 3.417 12.633,3.029 13.287,3.026 13.942 C 3.023 14.670,3.363 15.347,3.892 15.663 C 4.283 15.896,5.467 16.363,9.488 17.868 L 12.870 19.133 14.452 23.340 C 15.322 25.654,16.101 27.695,16.183 27.876 C 16.476 28.528,17.199 28.968,17.973 28.968 C 18.794 28.968,19.423 28.550,19.790 27.760 C 19.998 27.314,21.796 22.727,26.059 11.776 C 29.062 4.060,28.960 4.334,28.960 4.006 C 28.960 3.690,28.775 3.318,28.554 3.189 C 28.339 3.063,27.868 3.028,27.573 3.115 M22.463 8.040 C 21.816 8.707,19.503 11.032,17.323 13.207 L 13.360 17.160 10.213 15.978 C 6.175 14.461,5.217 14.083,5.239 14.015 C 5.250 13.985,5.713 13.781,6.269 13.562 C 7.255 13.175,21.820 7.483,22.933 7.050 C 23.241 6.930,23.526 6.831,23.566 6.830 C 23.606 6.828,23.110 7.373,22.463 8.040 M22.912 14.244 C 21.640 17.512,20.036 21.627,19.347 23.387 C 18.658 25.147,18.077 26.641,18.057 26.707 C 18.012 26.850,17.943 26.862,17.905 26.733 C 17.889 26.682,17.191 24.828,16.353 22.613 L 14.829 18.587 20.001 13.418 C 22.846 10.575,25.185 8.260,25.199 8.275 C 25.214 8.289,24.184 10.975,22.912 14.244 " fill="#1A1C1F" stroke="none" fill-rule="evenodd"></path></svg>