<svg width="28" height="28" viewBox="0 0 28 28" fill="none" xmlns="http://www.w3.org/2000/svg"><path d="M24.220 2.692 C 24.019 2.734,7.500 9.148,4.690 10.276 C 3.460 10.769,3.251 10.882,3.029 11.177 C 2.748 11.549,2.645 11.825,2.645 12.203 C 2.644 12.767,2.935 13.405,3.300 13.646 C 3.648 13.876,4.911 14.371,9.770 16.184 L 11.257 16.739 12.644 20.421 C 13.406 22.446,14.088 24.233,14.160 24.392 C 14.319 24.744,14.710 25.097,15.109 25.249 C 15.478 25.388,15.982 25.389,16.345 25.250 C 16.680 25.121,17.092 24.753,17.251 24.439 C 17.420 24.105,18.253 21.984,22.479 11.130 C 25.479 3.427,25.340 3.797,25.340 3.490 C 25.340 3.204,25.173 2.883,24.969 2.778 C 24.822 2.702,24.404 2.654,24.220 2.692 M20.158 6.523 C 18.829 7.884,13.418 13.301,12.592 14.098 L 11.675 14.983 11.076 14.767 C 9.888 14.338,6.233 12.966,5.406 12.639 C 4.651 12.340,4.570 12.298,4.647 12.242 C 4.781 12.143,7.262 11.165,17.687 7.101 C 19.009 6.585,20.216 6.112,20.370 6.049 C 20.524 5.986,20.659 5.944,20.671 5.956 C 20.683 5.967,20.452 6.223,20.158 6.523 M21.798 7.953 C 21.142 9.703,16.245 22.235,15.888 23.077 C 15.845 23.179,15.788 23.316,15.763 23.380 C 15.719 23.491,15.715 23.492,15.679 23.403 C 15.658 23.352,15.041 21.724,14.307 19.787 L 12.975 16.263 17.478 11.765 C 19.955 9.290,21.994 7.278,22.009 7.293 C 22.023 7.308,21.929 7.605,21.798 7.953 " fill="#1A1C1F" stroke="none" fill-rule="evenodd"></path></svg>