<svg width="20" height="20" viewBox="0 0 20 20" fill="none" xmlns="http://www.w3.org/2000/svg"><path d="M16.733 2.057 C 16.518 2.134,12.336 3.802,9.417 4.974 C 2.771 7.643,2.555 7.732,2.313 7.917 C 2.149 8.043,2.022 8.337,2.019 8.601 C 2.017 8.781,2.035 8.855,2.123 9.034 C 2.182 9.153,2.272 9.290,2.323 9.339 C 2.436 9.446,2.418 9.440,5.814 10.583 L 8.512 11.491 9.498 14.437 C 10.040 16.058,10.524 17.452,10.573 17.536 C 10.830 17.972,11.500 18.114,11.937 17.825 C 12.082 17.729,12.365 17.170,12.794 16.133 C 13.199 15.157,17.494 4.417,17.767 3.700 C 18.014 3.052,18.033 2.895,17.895 2.600 C 17.786 2.365,17.666 2.247,17.417 2.129 C 17.257 2.053,17.173 2.034,17.000 2.036 C 16.881 2.037,16.761 2.047,16.733 2.057 M15.200 4.817 C 15.200 4.845,14.036 7.743,12.850 10.667 C 11.516 13.955,11.497 14.000,11.468 14.000 C 11.441 14.000,11.376 13.814,10.696 11.802 C 10.440 11.043,10.192 10.342,10.146 10.246 C 10.042 10.025,9.872 9.888,9.540 9.757 C 9.399 9.701,8.520 9.398,7.587 9.083 L 5.891 8.510 6.437 8.292 C 6.738 8.171,8.820 7.336,11.065 6.436 C 13.310 5.536,15.159 4.800,15.173 4.800 C 15.188 4.800,15.200 4.808,15.200 4.817 " fill="#1A1C1F" stroke="none" fill-rule="evenodd"></path></svg>