<svg width="14" height="14" viewBox="0 0 14 14" fill="none" xmlns="http://www.w3.org/2000/svg"><path d="M10.815 1.790 C 10.315 1.989,8.603 2.675,7.012 3.314 C 1.873 5.377,1.791 5.411,1.619 5.542 C 1.577 5.574,1.515 5.660,1.479 5.734 C 1.356 5.992,1.407 6.289,1.613 6.515 C 1.706 6.617,1.513 6.547,4.070 7.408 L 5.959 8.044 6.631 10.056 C 7.000 11.162,7.334 12.133,7.373 12.214 C 7.525 12.532,7.889 12.665,8.243 12.531 C 8.508 12.430,8.461 12.536,10.178 8.260 C 11.330 5.394,12.221 3.155,12.452 2.549 C 12.605 2.149,12.619 2.023,12.533 1.832 C 12.462 1.674,12.359 1.571,12.192 1.491 C 12.077 1.435,12.023 1.424,11.888 1.425 C 11.734 1.427,11.675 1.447,10.815 1.790 M10.640 3.372 C 10.640 3.392,9.769 5.559,8.995 7.467 C 8.056 9.781,8.048 9.800,8.028 9.800 C 8.008 9.800,7.961 9.667,7.499 8.297 C 7.313 7.747,7.135 7.240,7.103 7.172 C 7.029 7.018,6.911 6.922,6.678 6.830 C 6.579 6.791,5.964 6.578,5.311 6.358 L 4.124 5.957 4.506 5.804 C 4.716 5.720,6.174 5.136,7.746 4.505 C 9.317 3.875,10.611 3.360,10.621 3.360 C 10.632 3.360,10.640 3.365,10.640 3.372 " fill="#1A1C1F" stroke="none" fill-rule="evenodd"></path></svg>