<svg width="14" height="14" viewBox="0 0 14 14" fill="none" xmlns="http://www.w3.org/2000/svg"><path d="M2.892 1.447 C 2.591 1.476,2.245 1.655,1.953 1.934 C 1.689 2.187,1.574 2.366,1.457 2.712 L 1.400 2.878 1.400 7.479 L 1.400 12.079 1.492 12.222 C 1.628 12.432,1.779 12.534,2.022 12.579 C 2.183 12.609,2.309 12.578,2.470 12.468 C 2.541 12.419,3.022 11.961,3.537 11.451 L 4.474 10.523 7.773 10.510 C 10.049 10.501,11.104 10.489,11.177 10.472 C 11.523 10.387,11.842 10.204,12.089 9.948 C 12.299 9.730,12.396 9.575,12.506 9.282 L 12.600 9.033 12.600 5.953 L 12.600 2.873 12.509 2.614 C 12.395 2.290,12.274 2.103,12.028 1.871 C 11.884 1.734,11.780 1.660,11.611 1.575 L 11.387 1.461 10.809 1.444 C 10.070 1.422,3.126 1.424,2.892 1.447 M7.700 4.550 L 7.700 6.300 7.000 6.300 L 6.300 6.300 6.300 4.550 L 6.300 2.800 7.000 2.800 L 7.700 2.800 7.700 4.550 M7.364 7.099 C 7.506 7.172,7.709 7.386,7.747 7.504 C 7.764 7.555,7.772 7.681,7.766 7.828 C 7.758 8.058,7.754 8.072,7.671 8.197 C 7.420 8.576,6.925 8.674,6.563 8.417 C 6.452 8.337,6.372 8.231,6.298 8.064 C 6.256 7.967,6.250 7.918,6.258 7.749 C 6.274 7.438,6.407 7.231,6.681 7.092 C 6.817 7.024,6.837 7.020,7.035 7.029 C 7.204 7.036,7.268 7.050,7.364 7.099 " fill="#1A1C1F" stroke="none" fill-rule="evenodd"></path></svg>