<svg width="14" height="14" viewBox="0 0 14 14" fill="none" xmlns="http://www.w3.org/2000/svg"><path d="M2.913 1.447 C 2.705 1.461,2.640 1.475,2.508 1.537 C 1.954 1.796,1.547 2.276,1.444 2.791 C 1.424 2.892,1.414 3.982,1.407 6.927 C 1.397 11.003,1.411 12.050,1.476 12.204 C 1.518 12.305,1.698 12.473,1.827 12.531 C 1.938 12.581,2.239 12.594,2.348 12.552 C 2.444 12.516,2.614 12.359,3.524 11.468 C 3.979 11.023,4.388 10.630,4.431 10.596 L 4.511 10.535 5.540 10.520 C 6.106 10.512,7.594 10.504,8.848 10.503 L 11.127 10.500 11.298 10.439 C 11.908 10.221,12.321 9.831,12.508 9.297 C 12.586 9.073,12.598 8.636,12.598 6.102 C 12.598 3.456,12.582 2.826,12.508 2.587 C 12.366 2.131,11.912 1.691,11.382 1.497 L 11.212 1.435 7.187 1.432 C 4.973 1.431,3.050 1.437,2.913 1.447 M11.200 5.946 L 11.200 9.093 8.091 9.110 C 4.550 9.130,4.348 9.135,4.136 9.222 C 3.788 9.364,3.514 9.557,3.063 9.978 L 2.800 10.224 2.800 6.512 L 2.800 2.800 7.000 2.800 L 11.200 2.800 11.200 5.946 M6.516 3.593 C 6.229 3.666,5.903 3.809,5.903 3.861 C 5.903 3.898,6.133 4.530,6.208 4.699 L 6.255 4.806 6.342 4.768 C 6.694 4.613,7.162 4.558,7.296 4.657 C 7.390 4.727,7.427 4.814,7.408 4.924 C 7.386 5.057,7.314 5.150,7.104 5.315 C 6.787 5.566,6.652 5.693,6.591 5.797 C 6.504 5.946,6.464 6.175,6.464 6.527 L 6.463 6.837 7.012 6.837 L 7.560 6.837 7.560 6.504 L 7.560 6.171 7.864 5.868 C 8.242 5.492,8.336 5.373,8.413 5.167 C 8.486 4.976,8.513 4.638,8.474 4.428 C 8.414 4.109,8.196 3.834,7.886 3.683 C 7.642 3.563,7.435 3.523,7.077 3.524 C 6.826 3.525,6.736 3.536,6.516 3.593 M6.720 7.434 C 6.474 7.574,6.409 7.682,6.409 7.957 C 6.409 8.189,6.436 8.254,6.588 8.394 C 6.844 8.630,7.230 8.610,7.453 8.349 C 7.659 8.109,7.655 7.769,7.444 7.559 C 7.254 7.368,6.932 7.313,6.720 7.434 " fill="#1A1C1F" stroke="none" fill-rule="evenodd"></path></svg>