<svg width="28" height="28" viewBox="0 0 28 28" fill="none" xmlns="http://www.w3.org/2000/svg"><path d="M12.250 1.818 L 9.730 1.843 9.450 1.993 C 8.680 2.403,8.242 2.902,7.978 3.669 C 7.890 3.925,7.887 4.081,7.891 8.069 C 7.894 10.343,7.910 12.571,7.926 13.020 L 7.957 13.837 8.133 14.205 C 8.272 14.497,8.390 14.654,8.693 14.953 C 8.904 15.162,9.183 15.389,9.313 15.458 C 9.847 15.741,9.630 15.730,15.285 15.772 C 19.448 15.804,20.495 15.824,20.615 15.874 C 20.697 15.908,21.672 16.821,22.784 17.905 C 23.895 18.988,24.866 19.922,24.942 19.982 C 25.204 20.186,25.792 20.087,26.056 19.794 C 26.106 19.739,26.161 19.574,26.186 19.404 C 26.210 19.240,26.242 15.791,26.257 11.591 C 26.283 4.490,26.280 4.059,26.203 3.821 C 25.919 2.955,25.443 2.383,24.687 2.000 L 24.383 1.846 21.957 1.814 C 19.262 1.780,16.053 1.781,12.250 1.818 M21.961 3.531 L 24.010 3.562 24.234 3.776 L 24.458 3.990 24.486 10.570 L 24.514 17.150 23.350 16.005 C 22.002 14.678,21.724 14.437,21.308 14.232 L 21.003 14.082 19.193 14.043 C 18.198 14.022,15.768 14.004,13.795 14.002 L 10.206 14.000 10.007 13.836 C 9.891 13.742,9.781 13.599,9.745 13.498 C 9.695 13.357,9.683 12.422,9.683 8.703 C 9.683 4.141,9.685 4.081,9.778 3.922 C 9.831 3.833,9.946 3.717,10.035 3.665 C 10.187 3.576,10.296 3.569,11.900 3.545 C 14.631 3.504,19.741 3.497,21.961 3.531 M4.060 7.934 C 3.837 7.953,3.554 8.012,3.413 8.069 C 2.692 8.359,2.115 9.014,1.818 9.877 C 1.729 10.135,1.727 10.332,1.727 17.870 L 1.727 25.598 1.891 25.841 C 2.136 26.206,2.383 26.297,2.809 26.178 C 3.069 26.106,3.281 25.917,5.157 24.081 C 6.106 23.152,6.996 22.294,7.135 22.175 L 7.386 21.958 8.185 21.942 C 8.624 21.934,10.653 21.912,12.693 21.895 L 16.403 21.863 16.807 21.666 C 17.498 21.328,17.950 20.817,18.220 20.066 C 18.325 19.777,18.351 19.610,18.373 19.084 C 18.406 18.328,18.352 18.032,18.143 17.824 C 17.820 17.500,17.436 17.439,17.071 17.652 C 16.712 17.863,16.712 17.861,16.569 19.226 C 16.519 19.700,16.447 19.855,16.225 19.964 C 16.013 20.068,14.956 20.110,12.460 20.115 C 11.138 20.117,9.362 20.135,8.514 20.155 L 6.971 20.192 6.686 20.344 C 6.267 20.567,5.891 20.895,4.632 22.137 L 3.500 23.254 3.500 20.408 C 3.500 18.843,3.514 15.886,3.531 13.838 L 3.562 10.114 3.729 9.939 C 3.939 9.719,4.099 9.676,4.906 9.619 C 5.644 9.568,5.776 9.517,5.951 9.220 C 6.187 8.817,6.138 8.438,5.808 8.118 C 5.660 7.974,5.609 7.956,5.284 7.926 C 4.855 7.887,4.592 7.889,4.060 7.934 " fill="#1A1C1F" stroke="none" fill-rule="evenodd"></path></svg>