<svg width="12" height="12" viewBox="0 0 12 12" fill="none" xmlns="http://www.w3.org/2000/svg"><path d="M2.490 1.240 C 2.214 1.265,1.941 1.406,1.671 1.662 C 1.485 1.838,1.368 2.012,1.272 2.252 L 1.200 2.435 1.200 6.390 L 1.200 10.345 1.270 10.461 C 1.403 10.679,1.575 10.785,1.801 10.787 C 2.041 10.789,2.055 10.778,2.994 9.851 L 3.833 9.023 6.591 9.001 C 8.109 8.988,9.427 8.971,9.520 8.962 C 9.830 8.932,10.118 8.783,10.362 8.528 C 10.543 8.339,10.625 8.207,10.719 7.956 L 10.800 7.743 10.800 5.103 L 10.800 2.464 10.728 2.257 C 10.626 1.963,10.559 1.856,10.341 1.638 C 10.177 1.474,10.121 1.432,9.953 1.349 L 9.757 1.252 9.224 1.237 C 8.533 1.219,2.700 1.221,2.490 1.240 M6.600 3.900 L 6.600 5.400 6.000 5.400 L 5.400 5.400 5.400 3.900 L 5.400 2.400 6.000 2.400 L 6.600 2.400 6.600 3.900 M6.312 6.085 C 6.433 6.148,6.607 6.331,6.641 6.432 C 6.655 6.476,6.661 6.583,6.657 6.709 C 6.649 6.907,6.646 6.919,6.576 7.026 C 6.436 7.236,6.260 7.329,6.000 7.328 C 5.862 7.328,5.812 7.319,5.731 7.280 C 5.506 7.170,5.376 6.961,5.363 6.686 C 5.357 6.545,5.363 6.507,5.405 6.415 C 5.487 6.235,5.617 6.114,5.798 6.046 C 5.918 6.002,6.189 6.022,6.312 6.085 " fill="#1A1C1F" stroke="none" fill-rule="evenodd"></path></svg>