<svg width="14" height="14" viewBox="0 0 14 14" fill="none" xmlns="http://www.w3.org/2000/svg"><path d="M2.913 1.447 C 2.705 1.461,2.640 1.475,2.508 1.537 C 1.954 1.796,1.547 2.276,1.444 2.791 C 1.424 2.892,1.414 3.982,1.407 6.927 C 1.397 11.003,1.411 12.050,1.476 12.204 C 1.518 12.305,1.698 12.473,1.827 12.531 C 1.938 12.581,2.239 12.594,2.348 12.552 C 2.444 12.516,2.614 12.359,3.524 11.468 C 3.979 11.023,4.388 10.630,4.431 10.596 L 4.511 10.535 5.540 10.520 C 6.106 10.512,7.594 10.504,8.848 10.503 L 11.127 10.500 11.298 10.439 C 11.908 10.221,12.321 9.831,12.508 9.297 C 12.586 9.073,12.598 8.636,12.598 6.102 C 12.598 3.456,12.582 2.826,12.508 2.587 C 12.366 2.131,11.912 1.691,11.382 1.497 L 11.212 1.435 7.187 1.432 C 4.973 1.431,3.050 1.437,2.913 1.447 M7.649 2.767 C 7.862 2.806,8.201 2.970,8.383 3.120 C 8.764 3.437,8.938 3.874,8.905 4.433 C 8.872 4.992,8.725 5.258,8.144 5.816 C 7.721 6.221,7.716 6.230,7.704 6.608 L 7.694 6.907 6.994 6.907 L 6.293 6.907 6.308 6.562 C 6.326 6.146,6.350 6.006,6.438 5.818 C 6.520 5.644,6.692 5.466,7.012 5.228 C 7.280 5.028,7.480 4.837,7.513 4.748 C 7.549 4.653,7.541 4.477,7.496 4.387 C 7.425 4.244,7.341 4.219,6.965 4.229 C 6.641 4.238,6.636 4.239,6.350 4.348 C 6.078 4.451,6.059 4.455,6.030 4.416 C 5.948 4.308,5.563 3.290,5.583 3.237 C 5.597 3.199,5.969 3.003,6.207 2.906 C 6.649 2.727,7.168 2.677,7.649 2.767 M7.343 7.700 C 7.464 7.753,7.633 7.919,7.700 8.051 C 7.745 8.138,7.750 8.180,7.743 8.409 C 7.734 8.708,7.707 8.781,7.547 8.943 C 7.383 9.110,7.263 9.157,7.000 9.158 C 6.741 9.158,6.622 9.114,6.463 8.954 C 6.295 8.786,6.253 8.674,6.253 8.388 C 6.253 8.102,6.284 8.018,6.451 7.851 C 6.563 7.739,6.668 7.677,6.790 7.651 C 6.915 7.623,7.233 7.652,7.343 7.700 " fill="#1A1C1F" stroke="none" fill-rule="evenodd"></path></svg>