<svg width="20" height="20" viewBox="0 0 20 20" fill="none" xmlns="http://www.w3.org/2000/svg"><path d="M4.167 2.066 C 3.691 2.105,3.226 2.346,2.755 2.798 C 2.413 3.125,2.244 3.396,2.081 3.874 L 2.000 4.112 2.000 10.684 L 2.000 17.256 2.132 17.460 C 2.326 17.760,2.542 17.906,2.888 17.970 C 3.118 18.013,3.299 17.968,3.528 17.811 C 3.631 17.741,4.316 17.088,5.050 16.361 L 6.386 15.038 10.985 15.002 C 13.514 14.982,15.696 14.957,15.833 14.945 C 16.321 14.904,16.773 14.689,17.173 14.306 C 17.512 13.982,17.703 13.694,17.866 13.260 L 18.000 12.904 18.000 8.504 L 18.000 4.104 17.870 3.734 C 17.706 3.270,17.534 3.005,17.178 2.667 C 16.963 2.464,16.823 2.365,16.581 2.244 L 16.264 2.087 15.441 2.063 C 14.406 2.032,4.550 2.035,4.167 2.066 M11.000 6.500 L 11.000 9.000 10.000 9.000 L 9.000 9.000 9.000 6.500 L 9.000 4.000 10.000 4.000 L 11.000 4.000 11.000 6.500 M10.520 10.142 C 10.722 10.246,11.012 10.552,11.068 10.720 C 11.092 10.793,11.102 10.972,11.095 11.182 C 11.082 11.512,11.077 11.531,10.959 11.709 C 10.599 12.251,9.893 12.392,9.376 12.024 C 9.217 11.911,9.103 11.758,8.998 11.520 C 8.937 11.382,8.928 11.312,8.940 11.070 C 8.963 10.625,9.153 10.330,9.544 10.132 C 9.738 10.034,9.767 10.029,10.050 10.041 C 10.291 10.052,10.383 10.072,10.520 10.142 " fill="#1A1C1F" stroke="none" fill-rule="evenodd"></path></svg>