<svg width="16" height="16" viewBox="0 0 16 16" fill="none" xmlns="http://www.w3.org/2000/svg"><path d="M3.330 1.653 C 3.091 1.669,3.017 1.686,2.866 1.756 C 2.233 2.052,1.768 2.601,1.651 3.189 C 1.628 3.305,1.616 4.552,1.608 7.893 C 1.597 12.540,1.613 13.774,1.686 13.947 C 1.735 14.063,1.940 14.254,2.088 14.321 C 2.223 14.383,2.571 14.392,2.701 14.337 C 2.801 14.296,3.072 14.043,4.172 12.965 C 4.611 12.534,5.012 12.150,5.063 12.111 L 5.156 12.040 6.305 12.023 C 6.936 12.014,8.643 12.005,10.097 12.003 L 12.740 12.000 12.923 11.931 C 13.200 11.827,13.488 11.669,13.670 11.522 C 13.991 11.262,14.292 10.768,14.353 10.400 C 14.400 10.121,14.400 3.659,14.354 3.267 C 14.327 3.040,14.305 2.964,14.203 2.760 C 13.946 2.244,13.562 1.910,12.984 1.702 L 12.813 1.640 8.213 1.637 C 5.683 1.636,3.486 1.643,3.330 1.653 M12.800 6.796 L 12.800 10.392 9.287 10.411 C 5.229 10.434,4.967 10.441,4.727 10.539 C 4.326 10.703,4.015 10.922,3.500 11.403 L 3.200 11.684 3.200 7.442 L 3.200 3.200 8.000 3.200 L 12.800 3.200 12.800 6.796 " fill="#1A1C1F" stroke="none" fill-rule="evenodd"></path></svg>