<svg width="16" height="16" viewBox="0 0 16 16" fill="none" xmlns="http://www.w3.org/2000/svg"><path d="M3.347 1.654 C 2.943 1.688,2.610 1.856,2.230 2.215 C 1.953 2.477,1.844 2.638,1.706 2.985 L 1.600 3.253 1.600 8.529 L 1.600 13.805 1.703 13.964 C 1.867 14.219,2.057 14.342,2.347 14.383 C 2.513 14.406,2.649 14.368,2.823 14.249 C 2.905 14.193,3.452 13.671,4.040 13.089 L 5.109 12.031 8.801 12.001 C 10.832 11.985,12.589 11.961,12.707 11.949 C 13.094 11.908,13.421 11.748,13.739 11.445 C 14.010 11.186,14.163 10.955,14.293 10.608 L 14.400 10.323 14.400 6.803 L 14.400 3.283 14.296 2.987 C 14.165 2.616,14.027 2.404,13.742 2.134 C 13.570 1.971,13.459 1.892,13.265 1.796 L 13.012 1.670 12.352 1.650 C 11.495 1.625,3.660 1.628,3.347 1.654 M8.800 5.200 L 8.800 7.200 8.000 7.200 L 7.200 7.200 7.200 5.200 L 7.200 3.200 8.000 3.200 L 8.800 3.200 8.800 5.200 M8.394 8.105 C 8.560 8.178,8.806 8.429,8.854 8.575 C 8.874 8.635,8.882 8.777,8.876 8.946 C 8.866 9.209,8.862 9.225,8.767 9.367 C 8.604 9.614,8.374 9.749,8.072 9.778 C 7.816 9.802,7.639 9.740,7.444 9.560 C 7.185 9.320,7.093 8.998,7.183 8.646 C 7.252 8.375,7.383 8.223,7.657 8.092 C 7.783 8.032,7.826 8.025,8.027 8.034 C 8.187 8.041,8.294 8.062,8.394 8.105 " fill="#1A1C1F" stroke="none" fill-rule="evenodd"></path></svg>