<svg width="16" height="16" viewBox="0 0 16 16" fill="none" xmlns="http://www.w3.org/2000/svg"><path d="M4.053 1.651 L 3.080 1.667 2.891 1.749 C 2.614 1.869,2.413 2.011,2.173 2.252 C 1.864 2.565,1.736 2.802,1.648 3.231 C 1.610 3.416,1.587 12.148,1.622 13.147 C 1.640 13.665,1.657 13.878,1.686 13.947 C 1.735 14.063,1.940 14.254,2.088 14.321 C 2.223 14.383,2.571 14.392,2.701 14.337 C 2.801 14.296,3.072 14.043,4.172 12.965 C 4.611 12.534,5.012 12.150,5.063 12.111 L 5.156 12.040 6.305 12.023 C 6.936 12.014,8.643 12.005,10.097 12.003 L 12.740 12.000 12.923 11.931 C 13.507 11.712,13.893 11.399,14.156 10.932 C 14.305 10.668,14.348 10.499,14.374 10.080 C 14.406 9.579,14.406 4.454,14.374 3.707 C 14.345 3.016,14.314 2.896,14.082 2.543 C 13.799 2.114,13.411 1.829,12.920 1.690 C 12.773 1.649,12.437 1.645,8.893 1.640 C 6.767 1.638,4.589 1.643,4.053 1.651 M8.473 3.122 C 8.966 3.177,9.335 3.342,9.663 3.654 C 9.882 3.861,10.029 4.093,10.114 4.360 C 10.165 4.519,10.173 4.604,10.171 4.933 C 10.167 5.672,10.021 5.962,9.307 6.646 C 8.824 7.110,8.818 7.120,8.804 7.552 L 8.794 7.893 7.993 7.893 L 7.192 7.893 7.209 7.499 C 7.246 6.649,7.329 6.501,8.118 5.887 C 8.535 5.563,8.595 5.487,8.607 5.272 C 8.618 5.068,8.561 4.940,8.427 4.873 C 8.354 4.837,8.265 4.827,8.026 4.827 C 7.681 4.827,7.526 4.859,7.165 5.005 C 6.969 5.084,6.923 5.094,6.902 5.064 C 6.806 4.924,6.364 3.786,6.378 3.713 C 6.383 3.689,6.483 3.618,6.600 3.555 C 7.072 3.302,7.480 3.169,7.920 3.124 C 8.045 3.111,8.162 3.099,8.181 3.097 C 8.200 3.095,8.331 3.106,8.473 3.122 M8.394 8.804 C 8.541 8.874,8.726 9.060,8.798 9.210 C 8.836 9.288,8.861 9.405,8.871 9.553 C 8.887 9.769,8.884 9.786,8.800 9.955 C 8.685 10.190,8.483 10.381,8.292 10.438 C 7.847 10.570,7.414 10.396,7.215 10.004 C 7.154 9.884,7.147 9.836,7.147 9.586 C 7.147 9.260,7.182 9.163,7.372 8.973 C 7.501 8.845,7.620 8.774,7.760 8.744 C 7.914 8.710,8.267 8.744,8.394 8.804 " fill="#1A1C1F" stroke="none" fill-rule="evenodd"></path></svg>