<svg width="20" height="20" viewBox="0 0 20 20" fill="none" xmlns="http://www.w3.org/2000/svg"><path d="M4.600 2.063 L 3.817 2.084 3.597 2.187 C 2.969 2.484,2.464 2.968,2.214 3.514 C 2.015 3.947,2.023 3.694,2.009 9.891 C 1.996 15.681,2.016 17.216,2.108 17.434 C 2.169 17.579,2.426 17.818,2.610 17.902 C 2.768 17.974,3.199 17.991,3.354 17.932 C 3.491 17.880,3.735 17.655,5.034 16.383 C 5.684 15.746,6.268 15.186,6.331 15.138 L 6.445 15.050 7.931 15.029 C 8.748 15.017,10.875 15.006,12.656 15.004 L 15.896 15.000 16.140 14.913 C 17.011 14.602,17.602 14.044,17.868 13.281 C 17.981 12.959,17.998 12.346,17.998 8.750 C 17.997 4.894,17.975 4.022,17.866 3.698 C 17.670 3.110,17.171 2.559,16.583 2.280 C 16.081 2.041,16.530 2.058,10.667 2.050 C 7.761 2.046,5.031 2.052,4.600 2.063 M16.000 8.495 L 16.000 12.990 11.642 13.014 C 9.245 13.028,7.021 13.051,6.700 13.065 C 6.186 13.088,6.089 13.102,5.884 13.181 C 5.447 13.347,4.957 13.699,4.325 14.298 L 4.000 14.607 4.000 9.303 L 4.000 4.000 10.000 4.000 L 16.000 4.000 16.000 8.495 M9.000 7.000 L 9.000 9.000 10.000 9.000 L 11.000 9.000 11.000 7.000 L 11.000 5.000 10.000 5.000 L 9.000 5.000 9.000 7.000 M9.610 10.115 C 9.383 10.220,9.149 10.439,9.039 10.649 C 8.966 10.789,8.951 10.860,8.951 11.083 C 8.950 11.308,8.965 11.380,9.042 11.538 C 9.315 12.092,9.979 12.332,10.502 12.066 C 10.905 11.860,11.177 11.341,11.099 10.926 C 11.034 10.580,10.803 10.295,10.456 10.131 C 10.182 10.001,9.867 9.995,9.610 10.115 " fill="#1A1C1F" stroke="none" fill-rule="evenodd"></path></svg>