<svg width="14" height="14" viewBox="0 0 14 14" fill="none" xmlns="http://www.w3.org/2000/svg"><path d="M2.998 1.445 C 2.698 1.459,2.659 1.466,2.513 1.535 C 2.025 1.761,1.642 2.166,1.494 2.610 C 1.458 2.718,1.438 2.861,1.423 3.124 C 1.396 3.584,1.395 10.917,1.422 11.609 C 1.436 11.967,1.452 12.148,1.476 12.204 C 1.518 12.305,1.698 12.473,1.827 12.531 C 1.938 12.581,2.239 12.594,2.348 12.552 C 2.444 12.516,2.614 12.359,3.524 11.468 C 3.979 11.023,4.388 10.630,4.431 10.596 L 4.511 10.535 5.540 10.520 C 6.106 10.512,7.594 10.504,8.848 10.503 L 11.127 10.500 11.298 10.439 C 11.807 10.257,12.153 9.979,12.386 9.565 C 12.519 9.331,12.555 9.188,12.577 8.808 C 12.605 8.352,12.605 3.893,12.577 3.243 C 12.552 2.656,12.524 2.537,12.345 2.259 C 12.086 1.856,11.757 1.608,11.320 1.488 C 11.142 1.439,11.130 1.439,7.233 1.434 C 5.084 1.432,3.178 1.437,2.998 1.445 M11.200 5.946 L 11.200 9.093 8.091 9.110 C 4.550 9.130,4.348 9.135,4.136 9.222 C 3.788 9.364,3.514 9.557,3.063 9.978 L 2.800 10.224 2.800 6.512 L 2.800 2.800 7.000 2.800 L 11.200 2.800 11.200 5.946 M6.300 4.900 L 6.300 6.300 7.000 6.300 L 7.700 6.300 7.700 4.900 L 7.700 3.500 7.000 3.500 L 6.300 3.500 6.300 4.900 M6.727 7.079 C 6.567 7.155,6.404 7.309,6.328 7.454 C 6.276 7.553,6.266 7.602,6.266 7.758 C 6.266 7.976,6.314 8.104,6.453 8.258 C 6.893 8.745,7.645 8.521,7.769 7.867 C 7.825 7.572,7.651 7.259,7.345 7.102 C 7.163 7.008,6.895 6.999,6.727 7.079 " fill="#1A1C1F" stroke="none" fill-rule="evenodd"></path></svg>