<svg width="16" height="16" viewBox="0 0 16 16" fill="none" xmlns="http://www.w3.org/2000/svg"><path d="M4.053 1.651 L 3.080 1.667 2.891 1.749 C 2.614 1.869,2.413 2.011,2.173 2.252 C 1.864 2.565,1.736 2.802,1.648 3.231 C 1.610 3.416,1.587 12.148,1.622 13.147 C 1.640 13.665,1.657 13.878,1.686 13.947 C 1.735 14.063,1.940 14.254,2.088 14.321 C 2.223 14.383,2.571 14.392,2.701 14.337 C 2.801 14.296,3.072 14.043,4.172 12.965 C 4.611 12.534,5.012 12.150,5.063 12.111 L 5.156 12.040 6.305 12.023 C 6.936 12.014,8.643 12.005,10.097 12.003 L 12.740 12.000 12.923 11.931 C 13.507 11.712,13.893 11.399,14.156 10.932 C 14.305 10.668,14.348 10.499,14.374 10.080 C 14.406 9.579,14.406 4.454,14.374 3.707 C 14.345 3.016,14.314 2.896,14.082 2.543 C 13.799 2.114,13.411 1.829,12.920 1.690 C 12.773 1.649,12.437 1.645,8.893 1.640 C 6.767 1.638,4.589 1.643,4.053 1.651 M12.800 6.796 L 12.800 10.392 9.287 10.411 C 5.229 10.434,4.967 10.441,4.727 10.539 C 4.326 10.703,4.015 10.922,3.500 11.403 L 3.200 11.684 3.200 7.442 L 3.200 3.200 8.000 3.200 L 12.800 3.200 12.800 6.796 M7.707 4.045 C 7.506 4.079,7.108 4.203,6.938 4.284 C 6.754 4.372,6.743 4.382,6.759 4.449 C 6.783 4.547,7.025 5.212,7.093 5.367 L 7.149 5.493 7.248 5.449 C 7.654 5.270,8.184 5.208,8.338 5.322 C 8.445 5.402,8.488 5.502,8.467 5.627 C 8.440 5.784,8.357 5.887,8.093 6.093 C 7.716 6.387,7.538 6.577,7.466 6.761 C 7.413 6.898,7.403 6.982,7.393 7.367 L 7.381 7.813 8.010 7.813 L 8.640 7.813 8.640 7.436 L 8.640 7.059 9.068 6.622 C 9.535 6.146,9.592 6.059,9.670 5.710 C 9.727 5.453,9.709 5.087,9.629 4.877 C 9.472 4.463,9.106 4.169,8.622 4.066 C 8.453 4.030,7.873 4.017,7.707 4.045 M7.680 8.496 C 7.398 8.656,7.325 8.780,7.325 9.093 C 7.325 9.361,7.354 9.430,7.539 9.604 C 7.908 9.949,8.513 9.775,8.657 9.283 C 8.733 9.023,8.656 8.750,8.462 8.590 C 8.250 8.415,7.897 8.372,7.680 8.496 " fill="#1A1C1F" stroke="none" fill-rule="evenodd"></path></svg>