<svg width="12" height="12" viewBox="0 0 12 12" fill="none" xmlns="http://www.w3.org/2000/svg"><path d="M2.650 1.238 C 2.345 1.250,2.297 1.256,2.184 1.303 C 1.811 1.459,1.484 1.767,1.326 2.112 C 1.209 2.368,1.214 2.223,1.206 5.936 C 1.198 9.409,1.210 10.330,1.265 10.461 C 1.301 10.547,1.455 10.691,1.566 10.741 C 1.676 10.791,1.934 10.794,2.026 10.747 C 2.134 10.693,2.281 10.557,3.019 9.832 C 3.410 9.449,3.761 9.111,3.798 9.082 L 3.867 9.030 4.788 9.017 C 5.295 9.010,6.571 9.004,7.624 9.002 L 9.538 9.000 9.684 8.948 C 10.121 8.792,10.417 8.554,10.617 8.199 C 10.728 8.001,10.761 7.874,10.781 7.560 C 10.804 7.184,10.804 3.340,10.780 2.780 C 10.759 2.262,10.736 2.172,10.561 1.907 C 10.395 1.654,10.198 1.482,9.935 1.360 C 9.647 1.226,9.912 1.235,6.280 1.230 C 4.471 1.227,2.837 1.231,2.650 1.238 M6.660 2.394 C 6.979 2.510,7.253 2.696,7.393 2.893 C 7.583 3.159,7.654 3.431,7.633 3.800 C 7.604 4.279,7.479 4.507,6.980 4.985 C 6.618 5.332,6.613 5.340,6.603 5.664 L 6.595 5.920 5.995 5.920 L 5.394 5.920 5.407 5.624 C 5.434 4.986,5.497 4.876,6.088 4.415 C 6.401 4.172,6.446 4.116,6.455 3.954 C 6.464 3.801,6.421 3.705,6.320 3.655 C 6.266 3.628,6.199 3.620,6.026 3.620 C 5.757 3.620,5.650 3.641,5.401 3.743 C 5.297 3.785,5.205 3.820,5.197 3.820 C 5.157 3.820,4.771 2.853,4.784 2.784 C 4.791 2.743,5.248 2.511,5.454 2.443 C 5.706 2.361,5.865 2.341,6.220 2.348 C 6.488 2.353,6.571 2.362,6.660 2.394 M6.294 6.600 C 6.396 6.645,6.543 6.788,6.599 6.897 C 6.633 6.964,6.640 7.016,6.640 7.190 C 6.640 7.435,6.605 7.528,6.459 7.674 C 6.322 7.812,6.223 7.850,6.000 7.850 C 5.839 7.850,5.795 7.843,5.712 7.802 C 5.587 7.740,5.475 7.629,5.411 7.501 C 5.366 7.413,5.360 7.377,5.360 7.190 C 5.360 6.945,5.387 6.872,5.529 6.730 C 5.630 6.629,5.719 6.578,5.830 6.558 C 5.950 6.536,6.199 6.559,6.294 6.600 " fill="#1A1C1F" stroke="none" fill-rule="evenodd"></path></svg>