<svg width="20" height="20" viewBox="0 0 20 20" fill="none" xmlns="http://www.w3.org/2000/svg"><path d="M7.681 2.064 C 7.474 2.080,7.362 2.110,7.197 2.191 C 6.727 2.423,6.323 2.859,6.125 3.350 L 6.017 3.617 6.007 6.800 C 6.001 8.805,6.011 10.088,6.032 10.267 C 6.057 10.475,6.096 10.611,6.181 10.783 C 6.454 11.336,7.031 11.826,7.536 11.933 C 7.662 11.960,8.623 11.977,10.700 11.989 L 13.683 12.006 14.933 12.831 C 16.387 13.792,16.511 13.870,16.667 13.935 C 16.836 14.005,17.186 13.991,17.378 13.906 C 17.579 13.817,17.884 13.508,17.935 13.342 C 17.984 13.179,18.017 5.939,17.975 4.517 C 17.946 3.541,17.943 3.511,17.855 3.299 C 17.674 2.858,17.241 2.408,16.779 2.180 C 16.631 2.108,16.538 2.092,16.112 2.065 C 15.567 2.032,8.112 2.031,7.681 2.064 M16.000 5.928 C 16.000 8.259,15.964 11.067,15.934 11.067 C 15.922 11.067,15.658 10.908,15.348 10.714 C 15.037 10.521,14.657 10.293,14.503 10.209 L 14.222 10.055 13.336 10.030 C 12.849 10.016,11.449 10.003,10.225 10.002 L 8.000 10.000 8.000 7.000 L 8.000 4.000 12.000 4.000 L 16.000 4.000 16.000 5.928 M2.575 6.119 C 2.385 6.214,2.144 6.437,2.092 6.566 C 2.024 6.737,2.004 8.098,2.002 12.626 C 2.000 17.259,2.000 17.270,2.069 17.405 C 2.244 17.748,2.565 17.961,2.950 17.991 C 3.136 18.005,3.171 17.996,3.458 17.851 C 3.628 17.766,4.337 17.316,5.034 16.850 L 6.301 16.005 9.742 15.992 C 13.687 15.977,13.440 15.995,13.707 15.699 C 13.936 15.444,13.981 15.331,13.980 15.017 C 13.980 14.808,13.963 14.716,13.903 14.593 C 13.817 14.414,13.602 14.203,13.405 14.102 C 13.270 14.034,13.245 14.033,9.710 14.034 C 7.752 14.035,6.045 14.049,5.918 14.065 C 5.631 14.102,5.445 14.196,4.656 14.697 C 4.330 14.904,4.052 15.063,4.040 15.051 C 4.027 15.038,4.012 13.173,4.006 10.906 L 3.996 6.783 3.908 6.605 C 3.798 6.385,3.551 6.157,3.344 6.086 C 3.099 6.003,2.780 6.017,2.575 6.119 " fill="#1A1C1F" stroke="none" fill-rule="evenodd"></path></svg>