<svg width="20" height="20" viewBox="0 0 20 20" fill="none" xmlns="http://www.w3.org/2000/svg"><path d="M4.600 2.063 L 3.817 2.084 3.597 2.187 C 2.969 2.484,2.464 2.968,2.214 3.514 C 2.015 3.947,2.023 3.694,2.009 9.891 C 1.996 15.681,2.016 17.216,2.108 17.434 C 2.169 17.579,2.426 17.818,2.610 17.902 C 2.768 17.974,3.199 17.991,3.354 17.932 C 3.491 17.880,3.735 17.655,5.034 16.383 C 5.684 15.746,6.268 15.186,6.331 15.138 L 6.445 15.050 7.931 15.029 C 8.748 15.017,10.875 15.006,12.656 15.004 L 15.896 15.000 16.140 14.913 C 17.011 14.602,17.602 14.044,17.868 13.281 C 17.981 12.959,17.998 12.346,17.998 8.750 C 17.997 4.894,17.975 4.022,17.866 3.698 C 17.670 3.110,17.171 2.559,16.583 2.280 C 16.081 2.041,16.530 2.058,10.667 2.050 C 7.761 2.046,5.031 2.052,4.600 2.063 M11.100 3.991 C 11.646 4.189,12.081 4.485,12.320 4.819 C 12.634 5.260,12.757 5.716,12.723 6.320 C 12.678 7.126,12.449 7.537,11.593 8.347 C 11.040 8.870,11.023 8.902,11.006 9.442 L 10.992 9.867 9.991 9.867 L 8.990 9.867 9.011 9.374 C 9.056 8.321,9.160 8.132,10.075 7.422 C 10.514 7.082,10.682 6.918,10.736 6.777 C 10.785 6.647,10.772 6.393,10.708 6.267 C 10.615 6.080,10.481 6.033,10.032 6.033 C 9.601 6.033,9.407 6.073,8.956 6.256 C 8.711 6.355,8.654 6.368,8.628 6.330 C 8.506 6.154,7.956 4.733,7.973 4.640 C 7.986 4.572,8.747 4.185,9.090 4.072 C 9.510 3.935,9.775 3.901,10.367 3.913 C 10.814 3.922,10.951 3.937,11.100 3.991 M10.485 10.997 C 10.660 11.075,10.904 11.311,10.998 11.495 C 11.055 11.607,11.067 11.693,11.067 11.983 C 11.067 12.290,11.056 12.356,10.986 12.495 C 10.583 13.290,9.418 13.303,9.031 12.516 C 8.938 12.329,8.922 12.259,8.920 12.040 C 8.916 11.742,8.968 11.536,9.094 11.352 C 9.195 11.204,9.444 11.013,9.627 10.944 C 9.796 10.881,10.291 10.911,10.485 10.997 " fill="#1A1C1F" stroke="none" fill-rule="evenodd"></path></svg>