<svg width="16" height="16" viewBox="0 0 16 16" fill="none" xmlns="http://www.w3.org/2000/svg"><path d="M6.133 1.653 C 5.655 1.695,5.137 2.121,4.900 2.667 L 4.813 2.867 4.806 5.566 L 4.798 8.265 4.875 8.463 C 5.030 8.862,5.323 9.210,5.662 9.397 C 6.009 9.589,5.854 9.579,8.533 9.592 L 10.947 9.605 11.947 10.265 C 13.101 11.028,13.207 11.096,13.333 11.148 C 13.469 11.204,13.749 11.193,13.903 11.124 C 14.063 11.054,14.307 10.806,14.348 10.673 C 14.388 10.544,14.414 4.731,14.380 3.600 C 14.356 2.834,14.354 2.809,14.284 2.640 C 14.139 2.286,13.793 1.927,13.422 1.744 C 13.302 1.685,13.232 1.673,12.876 1.652 C 12.410 1.625,6.438 1.625,6.133 1.653 M12.800 4.742 C 12.800 6.607,12.771 8.853,12.747 8.853 C 12.738 8.853,12.527 8.726,12.278 8.571 C 12.030 8.416,11.726 8.234,11.602 8.167 L 11.377 8.044 10.655 8.024 C 10.258 8.013,9.138 8.003,8.167 8.002 L 6.400 8.000 6.400 5.600 L 6.400 3.200 9.600 3.200 L 12.800 3.200 12.800 4.742 M2.195 4.837 C 1.957 4.914,1.710 5.136,1.653 5.324 C 1.629 5.400,1.618 6.509,1.607 9.615 L 1.593 13.803 1.651 13.916 C 1.844 14.294,2.257 14.478,2.625 14.348 C 2.828 14.277,2.993 14.174,4.110 13.424 L 5.034 12.804 7.790 12.793 C 10.950 12.782,10.752 12.796,10.965 12.559 C 11.148 12.356,11.183 12.266,11.181 12.013 C 11.180 11.885,11.162 11.759,11.138 11.701 C 11.080 11.562,10.891 11.366,10.742 11.291 L 10.615 11.227 7.709 11.227 C 5.761 11.227,4.759 11.236,4.671 11.255 C 4.488 11.294,4.223 11.435,3.699 11.772 C 3.453 11.931,3.243 12.052,3.232 12.041 C 3.222 12.031,3.206 10.556,3.196 8.765 C 3.184 6.636,3.168 5.463,3.150 5.380 C 3.112 5.212,3.090 5.174,2.958 5.055 C 2.738 4.856,2.418 4.765,2.195 4.837 " fill="#1A1C1F" stroke="none" fill-rule="evenodd"></path></svg>