<svg width="32" height="32" viewBox="0 0 32 32" fill="none" xmlns="http://www.w3.org/2000/svg"><path d="M4.264 2.608 C 3.933 2.655,3.233 3.059,2.907 3.392 C 2.608 3.696,2.351 4.101,2.141 4.598 L 2.000 4.933 1.985 16.747 C 1.969 29.846,1.941 28.799,2.320 29.189 C 2.528 29.403,2.894 29.510,3.233 29.455 C 3.473 29.416,3.421 29.465,6.994 25.941 L 9.325 23.643 9.689 23.609 C 9.890 23.590,13.989 23.560,18.800 23.541 L 27.547 23.506 27.954 23.351 C 28.988 22.959,29.614 22.273,29.908 21.211 C 29.993 20.905,30.000 20.293,29.995 12.987 C 29.990 5.800,29.982 5.063,29.901 4.753 C 29.681 3.912,29.100 3.216,28.284 2.817 L 27.813 2.587 16.160 2.580 C 9.751 2.577,4.397 2.589,4.264 2.608 M27.426 4.643 C 27.569 4.682,27.670 4.763,27.786 4.932 L 27.947 5.166 27.947 13.012 L 27.947 20.859 27.827 21.069 C 27.755 21.194,27.642 21.302,27.547 21.337 C 27.269 21.438,24.718 21.484,17.333 21.519 C 13.388 21.538,9.858 21.572,9.490 21.595 C 8.451 21.659,8.536 21.598,6.059 24.052 L 3.986 26.107 4.020 15.813 C 4.039 10.152,4.069 5.397,4.087 5.246 C 4.132 4.875,4.287 4.687,4.591 4.638 C 4.983 4.575,27.197 4.579,27.426 4.643 M14.720 7.092 C 14.321 7.143,13.909 7.290,13.503 7.523 C 12.523 8.087,13.112 9.454,14.240 9.236 C 14.401 9.205,14.701 9.142,14.907 9.097 C 15.112 9.052,15.510 9.015,15.792 9.014 C 16.236 9.013,16.328 9.029,16.481 9.133 C 16.778 9.336,16.876 9.512,16.869 9.832 C 16.856 10.384,16.696 10.605,15.764 11.357 C 14.759 12.169,14.533 12.458,14.374 13.132 C 14.173 13.982,14.402 14.561,15.013 14.754 C 15.391 14.873,15.646 14.803,15.911 14.510 C 16.090 14.311,16.135 14.206,16.267 13.669 C 16.342 13.368,16.488 13.206,17.219 12.620 C 17.869 12.098,18.190 11.781,18.419 11.434 C 18.891 10.722,18.953 9.407,18.555 8.561 C 18.277 7.970,17.558 7.402,16.800 7.176 C 16.454 7.073,15.241 7.024,14.720 7.092 M14.775 16.110 C 14.359 16.284,14.028 16.770,14.027 17.207 C 14.026 17.814,14.467 18.345,15.082 18.478 C 15.368 18.540,15.753 18.416,16.026 18.176 C 16.364 17.878,16.447 17.699,16.444 17.268 C 16.440 16.530,16.018 16.094,15.285 16.068 C 15.077 16.061,14.847 16.080,14.775 16.110 " fill="#1A1C1F" stroke="none" fill-rule="evenodd"></path></svg>