<svg width="32" height="32" viewBox="0 0 32 32" fill="none" xmlns="http://www.w3.org/2000/svg"><path d="M13.947 2.078 L 11.120 2.107 10.800 2.277 C 9.920 2.746,9.419 3.317,9.118 4.194 C 9.017 4.486,9.014 4.665,9.018 9.168 C 9.021 11.738,9.039 14.284,9.058 14.827 L 9.093 15.813 9.295 16.235 C 9.453 16.567,9.588 16.747,9.935 17.089 C 10.176 17.328,10.495 17.587,10.644 17.666 C 11.254 17.990,11.006 17.977,17.468 18.025 C 22.226 18.061,23.423 18.084,23.560 18.142 C 23.654 18.181,24.768 19.224,26.039 20.463 C 27.308 21.700,28.414 22.765,28.497 22.830 C 28.720 23.003,29.044 23.022,29.371 22.881 C 29.760 22.714,29.868 22.577,29.927 22.178 C 29.955 21.988,29.990 18.063,30.008 13.247 C 30.038 5.132,30.035 4.638,29.946 4.367 C 29.622 3.377,29.077 2.723,28.213 2.285 L 27.867 2.110 25.120 2.074 C 22.068 2.034,18.216 2.035,13.947 2.078 M25.018 4.036 L 27.440 4.071 27.695 4.316 L 27.950 4.560 27.983 12.080 L 28.016 19.600 26.686 18.291 C 25.131 16.761,24.820 16.493,24.339 16.263 L 23.983 16.093 21.898 16.049 C 20.751 16.025,17.980 16.004,15.739 16.003 L 11.664 16.000 11.436 15.813 C 11.304 15.705,11.178 15.542,11.137 15.426 C 11.080 15.266,11.067 14.196,11.067 9.947 C 11.067 4.732,11.068 4.664,11.175 4.482 C 11.235 4.380,11.367 4.248,11.469 4.189 C 11.643 4.086,11.767 4.078,13.627 4.051 C 16.804 4.005,22.402 3.997,25.018 4.036 M4.654 9.066 C 4.224 9.098,4.104 9.130,3.720 9.321 C 2.973 9.691,2.438 10.303,2.134 11.135 L 1.973 11.576 1.973 20.416 L 1.973 29.255 2.161 29.533 C 2.441 29.950,2.724 30.053,3.211 29.918 C 3.508 29.835,3.751 29.618,5.893 27.521 C 6.979 26.459,7.995 25.479,8.151 25.345 L 8.435 25.100 9.324 25.079 C 9.813 25.068,12.133 25.042,14.480 25.022 L 18.747 24.987 19.208 24.761 C 19.998 24.375,20.514 23.791,20.823 22.933 C 20.943 22.602,20.972 22.412,20.998 21.811 C 21.035 20.946,20.973 20.608,20.735 20.370 C 20.356 19.991,19.913 19.926,19.489 20.190 C 19.123 20.417,19.056 20.587,18.988 21.467 C 18.956 21.877,18.907 22.299,18.879 22.403 C 18.809 22.663,18.630 22.815,18.317 22.882 C 18.154 22.917,16.294 22.957,13.440 22.985 C 10.903 23.011,8.623 23.048,8.373 23.068 C 7.573 23.131,7.269 23.351,5.293 25.300 L 4.000 26.575 4.000 23.483 C 4.000 21.782,4.016 18.404,4.036 15.975 L 4.071 11.559 4.262 11.358 C 4.501 11.107,4.684 11.058,5.607 10.993 C 6.450 10.934,6.602 10.876,6.801 10.537 C 7.071 10.076,7.015 9.643,6.638 9.278 C 6.468 9.113,6.411 9.092,6.038 9.058 C 5.559 9.015,5.328 9.016,4.654 9.066 " fill="#1A1C1F" stroke="none" fill-rule="evenodd"></path></svg>