<svg width="20" height="20" viewBox="0 0 20 20" fill="none" xmlns="http://www.w3.org/2000/svg"><path d="M4.600 2.063 L 3.817 2.084 3.597 2.187 C 2.969 2.484,2.464 2.968,2.214 3.514 C 2.015 3.947,2.023 3.694,2.009 9.891 C 1.996 15.681,2.016 17.216,2.108 17.434 C 2.169 17.579,2.426 17.818,2.610 17.902 C 2.768 17.974,3.199 17.991,3.354 17.932 C 3.491 17.880,3.735 17.655,5.034 16.383 C 5.684 15.746,6.268 15.186,6.331 15.138 L 6.445 15.050 7.931 15.029 C 8.748 15.017,10.875 15.006,12.656 15.004 L 15.896 15.000 16.140 14.913 C 17.011 14.602,17.602 14.044,17.868 13.281 C 17.981 12.959,17.998 12.346,17.998 8.750 C 17.997 4.894,17.975 4.022,17.866 3.698 C 17.670 3.110,17.171 2.559,16.583 2.280 C 16.081 2.041,16.530 2.058,10.667 2.050 C 7.761 2.046,5.031 2.052,4.600 2.063 M16.000 8.495 L 16.000 12.990 11.642 13.014 C 9.245 13.028,7.021 13.051,6.700 13.065 C 6.186 13.088,6.089 13.102,5.884 13.181 C 5.447 13.347,4.957 13.699,4.325 14.298 L 4.000 14.607 4.000 9.303 L 4.000 4.000 10.000 4.000 L 16.000 4.000 16.000 8.495 M9.433 5.098 C 9.155 5.158,8.598 5.362,8.480 5.448 C 8.423 5.490,8.424 5.504,8.507 5.754 C 8.659 6.216,8.913 6.833,8.950 6.833 C 8.970 6.833,9.115 6.788,9.272 6.734 C 9.773 6.559,10.219 6.531,10.443 6.662 C 10.569 6.735,10.624 6.922,10.571 7.098 C 10.516 7.282,10.407 7.400,10.016 7.702 C 9.655 7.981,9.470 8.165,9.383 8.334 C 9.287 8.520,9.235 8.868,9.234 9.325 L 9.233 9.767 10.017 9.767 L 10.800 9.767 10.800 9.291 L 10.800 8.816 11.235 8.383 C 11.774 7.846,11.908 7.675,12.019 7.381 C 12.122 7.109,12.161 6.626,12.105 6.325 C 11.990 5.716,11.483 5.243,10.777 5.086 C 10.449 5.014,9.802 5.020,9.433 5.098 M9.650 10.589 C 9.482 10.678,9.269 10.866,9.212 10.976 C 9.146 11.104,9.136 11.532,9.195 11.705 C 9.218 11.773,9.314 11.900,9.412 11.993 C 9.557 12.130,9.623 12.167,9.781 12.199 C 10.294 12.306,10.736 12.027,10.840 11.529 C 10.955 10.976,10.558 10.531,9.952 10.535 C 9.834 10.535,9.708 10.558,9.650 10.589 " fill="#1A1C1F" stroke="none" fill-rule="evenodd"></path></svg>