<svg width="14" height="14" viewBox="0 0 14 14" fill="none" xmlns="http://www.w3.org/2000/svg"><path d="M5.355 1.446 C 4.902 1.489,4.431 1.909,4.260 2.422 L 4.200 2.602 4.201 4.818 C 4.201 6.090,4.211 7.110,4.224 7.210 C 4.287 7.702,4.790 8.250,5.275 8.353 C 5.363 8.372,6.036 8.384,7.490 8.392 L 9.578 8.404 10.453 8.982 C 11.471 9.654,11.557 9.709,11.667 9.754 C 11.785 9.804,12.030 9.794,12.165 9.734 C 12.314 9.668,12.520 9.455,12.558 9.327 C 12.581 9.249,12.588 8.525,12.588 5.892 L 12.588 2.555 12.534 2.403 C 12.389 1.998,12.123 1.714,11.698 1.513 L 11.508 1.423 8.513 1.427 C 6.866 1.429,5.445 1.437,5.355 1.446 M11.193 5.265 C 11.184 6.621,11.173 7.735,11.167 7.741 C 11.152 7.755,11.012 7.673,10.613 7.417 C 10.203 7.155,10.050 7.078,9.867 7.045 C 9.768 7.028,9.033 7.015,7.659 7.007 L 5.600 6.994 5.600 4.897 L 5.600 2.800 8.404 2.800 L 11.208 2.800 11.193 5.265 M1.796 4.281 C 1.667 4.348,1.506 4.518,1.445 4.651 C 1.402 4.745,1.401 4.861,1.401 8.423 L 1.400 12.098 1.468 12.217 C 1.645 12.524,1.987 12.664,2.297 12.555 C 2.474 12.492,2.618 12.403,3.597 11.746 L 4.406 11.203 6.817 11.194 C 9.581 11.184,9.408 11.197,9.595 10.989 C 9.754 10.812,9.785 10.732,9.784 10.512 C 9.783 10.397,9.769 10.292,9.747 10.239 C 9.695 10.117,9.529 9.946,9.399 9.880 L 9.288 9.823 6.745 9.823 C 5.041 9.823,4.164 9.831,4.087 9.848 C 3.933 9.881,3.708 10.000,3.234 10.299 C 3.017 10.436,2.833 10.541,2.826 10.533 C 2.818 10.526,2.806 9.216,2.798 7.622 C 2.783 4.341,2.804 4.641,2.581 4.423 C 2.427 4.273,2.297 4.223,2.067 4.224 C 1.940 4.225,1.877 4.238,1.796 4.281 " fill="#1A1C1F" stroke="none" fill-rule="evenodd"></path></svg>