<svg width="20" height="20" viewBox="0 0 20 20" fill="none" xmlns="http://www.w3.org/2000/svg"><path d="M4.367 2.100 C 3.956 2.119,3.849 2.136,3.653 2.212 C 2.892 2.507,2.393 3.026,2.099 3.830 L 2.000 4.102 2.000 10.694 L 2.000 17.287 2.095 17.436 C 2.338 17.820,2.789 18.022,3.208 17.935 C 3.375 17.900,3.422 17.866,3.823 17.490 C 4.062 17.267,4.668 16.683,5.170 16.193 C 5.672 15.704,6.140 15.259,6.209 15.205 C 6.313 15.124,6.379 15.101,6.576 15.083 C 6.708 15.071,8.902 15.051,11.450 15.038 L 16.083 15.015 16.340 14.905 C 16.891 14.669,17.388 14.212,17.689 13.664 C 17.784 13.491,17.878 13.290,17.899 13.217 C 17.970 12.969,17.997 11.466,17.999 7.748 L 18.000 4.045 17.919 3.807 C 17.669 3.072,17.238 2.604,16.480 2.243 L 16.217 2.118 15.117 2.095 C 13.716 2.066,5.009 2.071,4.367 2.100 M16.000 8.528 L 16.000 13.023 11.588 13.047 C 9.161 13.060,6.888 13.083,6.536 13.098 L 5.897 13.125 5.557 13.291 C 5.150 13.489,4.984 13.617,4.425 14.162 L 4.000 14.576 4.000 9.305 L 4.000 4.033 10.000 4.033 L 16.000 4.033 16.000 8.528 " fill="#1A1C1F" stroke="none" fill-rule="evenodd"></path></svg>