<svg width="12" height="12" viewBox="0 0 12 12" fill="none" xmlns="http://www.w3.org/2000/svg"><path d="M2.650 1.238 C 2.345 1.250,2.297 1.256,2.184 1.303 C 1.811 1.459,1.484 1.767,1.326 2.112 C 1.209 2.368,1.214 2.223,1.206 5.936 C 1.198 9.409,1.210 10.330,1.265 10.461 C 1.301 10.547,1.455 10.691,1.566 10.741 C 1.676 10.791,1.934 10.794,2.026 10.747 C 2.134 10.693,2.281 10.557,3.019 9.832 C 3.410 9.449,3.761 9.111,3.798 9.082 L 3.867 9.030 4.788 9.017 C 5.295 9.010,6.571 9.004,7.624 9.002 L 9.538 9.000 9.684 8.948 C 10.121 8.792,10.417 8.554,10.617 8.199 C 10.728 8.001,10.761 7.874,10.781 7.560 C 10.804 7.184,10.804 3.340,10.780 2.780 C 10.759 2.262,10.736 2.172,10.561 1.907 C 10.395 1.654,10.198 1.482,9.935 1.360 C 9.647 1.226,9.912 1.235,6.280 1.230 C 4.471 1.227,2.837 1.231,2.650 1.238 M9.600 5.097 L 9.600 7.794 6.965 7.808 C 5.516 7.816,4.177 7.830,3.990 7.838 L 3.649 7.854 3.476 7.935 C 3.167 8.080,2.970 8.225,2.574 8.600 L 2.400 8.764 2.400 5.582 L 2.400 2.400 6.000 2.400 L 9.600 2.400 9.600 5.097 M5.780 3.034 C 5.630 3.059,5.331 3.152,5.203 3.213 C 5.065 3.279,5.057 3.286,5.069 3.337 C 5.085 3.404,5.268 3.908,5.320 4.029 L 5.359 4.120 5.464 4.077 C 5.713 3.976,5.988 3.924,6.140 3.950 C 6.305 3.978,6.391 4.115,6.340 4.269 C 6.306 4.372,6.244 4.439,6.014 4.616 C 5.797 4.784,5.683 4.898,5.630 5.001 C 5.572 5.112,5.541 5.321,5.540 5.595 L 5.540 5.860 6.010 5.860 L 6.480 5.860 6.480 5.575 L 6.480 5.289 6.741 5.030 C 7.064 4.708,7.145 4.605,7.211 4.429 C 7.273 4.265,7.297 3.976,7.263 3.795 C 7.194 3.429,6.890 3.146,6.466 3.052 C 6.332 3.022,5.915 3.011,5.780 3.034 M5.760 6.372 C 5.649 6.435,5.566 6.511,5.524 6.590 C 5.480 6.673,5.481 6.966,5.526 7.052 C 5.575 7.148,5.752 7.296,5.847 7.322 C 5.958 7.352,6.134 7.334,6.234 7.283 C 6.479 7.158,6.586 6.828,6.462 6.583 C 6.344 6.352,5.985 6.244,5.760 6.372 " fill="#1A1C1F" stroke="none" fill-rule="evenodd"></path></svg>