<svg width="12" height="12" viewBox="0 0 12 12" fill="none" xmlns="http://www.w3.org/2000/svg"><path d="M2.650 1.238 C 2.345 1.250,2.297 1.256,2.184 1.303 C 1.811 1.459,1.484 1.767,1.326 2.112 C 1.209 2.368,1.214 2.223,1.206 5.936 C 1.198 9.409,1.210 10.330,1.265 10.461 C 1.301 10.547,1.455 10.691,1.566 10.741 C 1.676 10.791,1.934 10.794,2.026 10.747 C 2.134 10.693,2.281 10.557,3.019 9.832 C 3.410 9.449,3.761 9.111,3.798 9.082 L 3.867 9.030 4.788 9.017 C 5.295 9.010,6.571 9.004,7.624 9.002 L 9.538 9.000 9.684 8.948 C 10.121 8.792,10.417 8.554,10.617 8.199 C 10.728 8.001,10.761 7.874,10.781 7.560 C 10.804 7.184,10.804 3.340,10.780 2.780 C 10.759 2.262,10.736 2.172,10.561 1.907 C 10.395 1.654,10.198 1.482,9.935 1.360 C 9.647 1.226,9.912 1.235,6.280 1.230 C 4.471 1.227,2.837 1.231,2.650 1.238 M9.600 5.097 L 9.600 7.794 6.965 7.808 C 5.516 7.816,4.177 7.830,3.990 7.838 L 3.649 7.854 3.476 7.935 C 3.167 8.080,2.970 8.225,2.574 8.600 L 2.400 8.764 2.400 5.582 L 2.400 2.400 6.000 2.400 L 9.600 2.400 9.600 5.097 " fill="#1A1C1F" stroke="none" fill-rule="evenodd"></path></svg>