<svg width="24" height="24" viewBox="0 0 24 24" fill="none" xmlns="http://www.w3.org/2000/svg"><path d="M10.660 2.077 C 10.142 2.101,10.139 2.102,9.760 2.287 C 9.025 2.648,8.468 3.235,8.196 3.939 C 8.083 4.230,8.068 4.321,8.032 4.979 C 8.009 5.393,8.001 6.518,8.014 7.620 C 8.039 9.751,8.033 9.703,8.323 10.300 C 8.689 11.053,9.366 11.629,10.176 11.877 C 10.441 11.958,10.572 11.963,13.421 11.999 C 15.053 12.021,16.432 12.054,16.485 12.075 C 16.593 12.116,17.065 12.555,18.620 14.059 C 20.595 15.968,20.629 15.997,20.943 15.999 C 21.304 16.002,21.755 15.724,21.922 15.396 C 21.999 15.244,22.001 15.145,21.990 9.811 L 21.980 4.380 21.824 4.000 C 21.738 3.791,21.598 3.509,21.513 3.374 C 21.220 2.909,20.593 2.408,20.033 2.192 C 19.869 2.129,19.672 2.102,19.180 2.077 C 18.465 2.040,11.472 2.040,10.660 2.077 M19.549 4.140 C 19.899 4.373,19.927 4.471,19.964 5.580 C 19.981 6.086,19.996 7.866,19.998 9.535 L 20.000 12.569 19.173 11.759 C 18.186 10.793,17.925 10.573,17.524 10.365 C 16.985 10.086,16.939 10.079,15.320 10.039 C 14.517 10.019,13.185 10.002,12.360 10.001 C 11.397 10.000,10.803 9.984,10.700 9.955 C 10.593 9.926,10.463 9.835,10.310 9.682 L 10.080 9.453 10.080 7.014 L 10.080 4.576 10.199 4.414 C 10.264 4.325,10.393 4.200,10.485 4.136 L 10.653 4.020 11.576 3.994 C 12.084 3.980,14.037 3.975,15.915 3.982 L 19.330 3.995 19.549 4.140 M4.200 8.116 C 3.657 8.263,3.256 8.507,2.838 8.945 C 2.514 9.284,2.332 9.585,2.144 10.088 L 2.000 10.477 2.002 15.188 C 2.004 19.959,2.029 21.309,2.118 21.476 C 2.188 21.608,2.395 21.786,2.580 21.874 C 2.811 21.984,3.037 22.012,3.255 21.957 C 3.424 21.915,3.544 21.813,4.403 20.985 C 6.926 18.552,7.306 18.190,7.380 18.148 C 7.458 18.105,7.775 18.095,12.100 18.007 C 13.722 17.974,13.743 17.973,14.032 17.870 C 14.193 17.813,14.441 17.691,14.583 17.598 C 14.889 17.399,15.366 16.902,15.555 16.586 C 15.833 16.120,16.034 15.322,15.981 14.895 C 15.948 14.626,15.767 14.347,15.520 14.181 C 15.355 14.070,15.312 14.060,14.999 14.060 C 14.680 14.060,14.645 14.069,14.447 14.195 C 14.194 14.358,14.103 14.518,14.002 14.983 C 13.911 15.397,13.745 15.702,13.525 15.858 C 13.361 15.974,13.347 15.977,12.669 16.005 C 12.290 16.021,11.386 16.037,10.660 16.040 C 9.934 16.042,8.813 16.059,8.168 16.076 L 6.996 16.108 6.576 16.316 C 6.080 16.563,5.895 16.716,4.803 17.784 L 4.000 18.569 4.004 16.255 C 4.006 14.982,4.019 13.192,4.034 12.277 L 4.060 10.614 4.160 10.467 C 4.338 10.204,4.568 10.093,5.207 9.962 C 5.988 9.802,6.252 8.889,5.683 8.319 C 5.565 8.201,5.430 8.110,5.335 8.084 C 5.099 8.018,4.497 8.035,4.200 8.116 " fill="#1A1C1F" stroke="none" fill-rule="evenodd"></path></svg>