<svg width="12" height="12" viewBox="0 0 12 12" fill="none" xmlns="http://www.w3.org/2000/svg"><path d="M4.610 1.239 C 4.475 1.250,4.425 1.265,4.289 1.336 C 3.986 1.495,3.756 1.761,3.652 2.074 L 3.600 2.230 3.601 4.130 C 3.601 5.220,3.609 6.094,3.620 6.180 C 3.674 6.601,4.107 7.072,4.521 7.160 C 4.597 7.176,5.178 7.186,6.420 7.193 L 8.210 7.203 8.960 7.699 C 10.060 8.425,9.998 8.391,10.200 8.389 C 10.368 8.387,10.489 8.333,10.621 8.201 C 10.799 8.023,10.784 8.248,10.794 5.600 C 10.799 4.308,10.795 2.994,10.785 2.680 C 10.767 2.128,10.765 2.106,10.713 1.980 C 10.604 1.715,10.344 1.445,10.067 1.308 C 9.979 1.265,9.923 1.255,9.667 1.239 C 9.337 1.219,4.863 1.219,4.610 1.239 M9.600 3.557 C 9.600 4.955,9.578 6.640,9.560 6.640 C 9.553 6.640,9.395 6.545,9.209 6.429 C 9.022 6.312,8.794 6.176,8.702 6.125 L 8.534 6.033 8.032 6.018 C 7.756 6.010,6.916 6.002,6.165 6.001 L 4.800 6.000 4.800 4.200 L 4.800 2.400 7.200 2.400 L 9.600 2.400 9.600 3.557 M1.546 3.670 C 1.430 3.728,1.286 3.862,1.256 3.940 C 1.215 4.042,1.202 4.938,1.201 7.620 L 1.200 10.370 1.259 10.472 C 1.403 10.723,1.675 10.844,1.932 10.771 C 2.087 10.727,2.254 10.625,3.083 10.068 L 3.776 9.603 5.843 9.595 C 8.212 9.586,8.064 9.597,8.224 9.419 C 8.361 9.266,8.389 9.199,8.388 9.010 C 8.388 8.885,8.378 8.830,8.342 8.756 C 8.290 8.648,8.161 8.522,8.043 8.461 C 7.962 8.420,7.947 8.420,5.782 8.420 C 4.321 8.420,3.569 8.427,3.503 8.441 C 3.366 8.471,3.168 8.576,2.774 8.829 C 2.589 8.947,2.432 9.038,2.424 9.031 C 2.416 9.023,2.407 7.904,2.404 6.543 L 2.398 4.070 2.346 3.967 C 2.238 3.748,2.058 3.633,1.810 3.624 C 1.670 3.618,1.637 3.624,1.546 3.670 " fill="#1A1C1F" stroke="none" fill-rule="evenodd"></path></svg>