<svg width="24" height="24" viewBox="0 0 24 24" fill="none" xmlns="http://www.w3.org/2000/svg"><path d="M6.560 2.040 C 4.081 2.067,4.254 2.047,3.620 2.372 C 3.148 2.614,2.603 3.169,2.353 3.660 C 2.252 3.858,2.130 4.143,2.081 4.292 L 1.992 4.565 2.007 12.912 C 2.021 20.899,2.025 21.266,2.095 21.409 C 2.185 21.591,2.438 21.827,2.634 21.909 C 2.823 21.988,3.230 21.988,3.382 21.909 C 3.540 21.827,3.865 21.528,5.680 19.800 C 6.527 18.993,7.290 18.271,7.377 18.196 L 7.533 18.060 9.577 18.034 C 10.700 18.020,13.378 18.006,15.527 18.004 L 19.434 18.000 19.787 17.877 C 20.885 17.493,21.503 16.872,21.899 15.754 L 22.008 15.448 21.989 10.054 C 21.976 6.289,21.956 4.575,21.924 4.380 C 21.831 3.807,21.450 3.213,20.850 2.707 C 20.510 2.420,20.307 2.303,19.920 2.170 L 19.620 2.066 17.560 2.037 C 15.225 2.003,9.866 2.004,6.560 2.040 M19.574 4.222 C 19.894 4.466,19.891 4.449,19.932 5.940 C 19.953 6.710,19.954 8.970,19.934 11.363 L 19.900 15.466 19.794 15.626 C 19.735 15.715,19.592 15.848,19.475 15.923 L 19.262 16.060 13.661 16.087 C 10.580 16.101,7.860 16.121,7.616 16.129 C 7.191 16.144,7.155 16.152,6.825 16.311 C 6.222 16.600,6.181 16.634,4.870 17.891 L 4.040 18.688 4.043 13.114 C 4.045 10.048,4.060 6.883,4.075 6.080 C 4.106 4.506,4.108 4.496,4.332 4.287 C 4.561 4.074,4.179 4.084,12.064 4.082 L 19.388 4.080 19.574 4.222 M11.580 6.104 C 11.388 6.208,11.125 6.483,11.071 6.638 C 11.033 6.743,11.021 7.168,11.023 8.280 C 11.025 9.722,11.029 9.786,11.109 9.940 C 11.298 10.302,11.574 10.459,12.020 10.459 C 12.390 10.459,12.600 10.373,12.767 10.153 C 12.996 9.851,13.000 9.831,13.000 8.888 C 13.000 8.407,12.988 7.711,12.974 7.341 C 12.947 6.676,12.946 6.668,12.824 6.486 C 12.756 6.385,12.622 6.248,12.527 6.181 C 12.373 6.074,12.316 6.059,12.027 6.050 C 11.785 6.042,11.669 6.056,11.580 6.104 M11.580 11.774 C 11.346 11.884,11.079 12.138,10.976 12.350 C 10.926 12.453,10.903 12.594,10.902 12.800 C 10.901 13.056,10.917 13.128,11.010 13.286 C 11.317 13.810,11.888 14.038,12.402 13.843 C 12.985 13.621,13.301 13.047,13.141 12.498 C 13.054 12.198,12.719 11.848,12.423 11.747 C 12.140 11.651,11.822 11.661,11.580 11.774 " fill="#1A1C1F" stroke="none" fill-rule="evenodd"></path></svg>