<svg width="28" height="28" viewBox="0 0 28 28" fill="none" xmlns="http://www.w3.org/2000/svg"><path d="M3.733 2.282 C 3.618 2.299,3.355 2.406,3.150 2.521 C 2.543 2.861,2.170 3.307,1.863 4.062 L 1.727 4.396 1.728 14.717 C 1.729 24.610,1.732 25.044,1.814 25.224 C 2.001 25.636,2.388 25.845,2.829 25.773 C 3.039 25.739,2.994 25.782,6.120 22.699 L 8.160 20.687 8.478 20.658 C 8.653 20.641,12.240 20.614,16.450 20.598 L 24.103 20.567 24.385 20.463 C 25.131 20.186,25.601 19.797,25.913 19.198 C 26.276 18.499,26.251 19.096,26.245 11.363 C 26.241 5.156,26.233 4.427,26.165 4.166 C 25.969 3.413,25.475 2.820,24.748 2.465 L 24.337 2.263 14.140 2.258 C 8.532 2.255,3.849 2.266,3.733 2.282 M23.995 4.062 C 24.113 4.094,24.213 4.171,24.310 4.304 L 24.453 4.498 24.453 11.375 L 24.453 18.252 24.348 18.435 C 24.286 18.545,24.187 18.639,24.103 18.670 C 23.863 18.758,21.570 18.799,15.120 18.830 C 11.694 18.846,8.628 18.876,8.307 18.896 C 7.666 18.936,7.493 18.995,7.093 19.310 C 6.978 19.402,6.120 20.234,5.186 21.160 L 3.489 22.843 3.519 13.837 C 3.536 8.883,3.562 4.722,3.577 4.590 C 3.615 4.266,3.751 4.101,4.017 4.058 C 4.357 4.003,23.797 4.007,23.995 4.062 M12.888 6.207 C 12.374 6.279,11.840 6.507,11.585 6.762 C 11.308 7.039,11.340 7.607,11.649 7.876 C 11.946 8.134,12.075 8.149,12.809 8.004 C 13.604 7.848,14.238 7.849,14.449 8.006 C 14.689 8.186,14.766 8.334,14.760 8.603 C 14.749 9.074,14.601 9.287,13.888 9.857 C 12.941 10.614,12.718 10.892,12.577 11.491 C 12.402 12.234,12.602 12.741,13.137 12.909 C 13.467 13.014,13.690 12.953,13.922 12.696 C 14.080 12.521,14.121 12.424,14.236 11.947 C 14.293 11.713,14.498 11.500,15.307 10.838 C 16.089 10.197,16.405 9.657,16.459 8.867 C 16.547 7.572,15.873 6.594,14.672 6.276 C 14.342 6.189,13.301 6.148,12.888 6.207 M12.880 14.129 C 12.640 14.247,12.380 14.529,12.323 14.732 C 12.202 15.170,12.294 15.530,12.611 15.854 C 13.493 16.755,14.916 15.573,14.237 14.503 C 13.982 14.101,13.312 13.917,12.880 14.129 " fill="#1A1C1F" stroke="none" fill-rule="evenodd"></path></svg>