<svg width="24" height="24" viewBox="0 0 24 24" fill="none" xmlns="http://www.w3.org/2000/svg"><path d="M6.560 2.040 C 4.081 2.067,4.254 2.047,3.620 2.372 C 3.148 2.614,2.603 3.169,2.353 3.660 C 2.252 3.858,2.130 4.143,2.081 4.292 L 1.992 4.565 2.007 12.912 C 2.021 20.899,2.025 21.266,2.095 21.409 C 2.185 21.591,2.438 21.827,2.634 21.909 C 2.823 21.988,3.230 21.988,3.382 21.909 C 3.540 21.827,3.865 21.528,5.680 19.800 C 6.527 18.993,7.290 18.271,7.377 18.196 L 7.533 18.060 9.577 18.034 C 10.700 18.020,13.378 18.006,15.527 18.004 L 19.434 18.000 19.787 17.877 C 20.885 17.493,21.503 16.872,21.899 15.754 L 22.008 15.448 21.989 10.054 C 21.976 6.289,21.956 4.575,21.924 4.380 C 21.831 3.807,21.450 3.213,20.850 2.707 C 20.510 2.420,20.307 2.303,19.920 2.170 L 19.620 2.066 17.560 2.037 C 15.225 2.003,9.866 2.004,6.560 2.040 M19.574 4.222 C 19.894 4.466,19.891 4.449,19.932 5.940 C 19.953 6.710,19.954 8.970,19.934 11.363 L 19.900 15.466 19.794 15.626 C 19.735 15.715,19.592 15.848,19.475 15.923 L 19.262 16.060 13.661 16.087 C 10.580 16.101,7.860 16.121,7.616 16.129 C 7.191 16.144,7.155 16.152,6.825 16.311 C 6.222 16.600,6.181 16.634,4.870 17.891 L 4.040 18.688 4.043 13.114 C 4.045 10.048,4.060 6.883,4.075 6.080 C 4.106 4.506,4.108 4.496,4.332 4.287 C 4.561 4.074,4.179 4.084,12.064 4.082 L 19.388 4.080 19.574 4.222 M11.500 5.605 C 10.823 5.764,10.000 6.089,10.000 6.198 C 10.000 6.286,10.151 6.728,10.405 7.386 L 10.609 7.912 10.828 7.815 C 11.231 7.637,11.633 7.547,12.047 7.543 C 12.379 7.540,12.449 7.552,12.547 7.624 C 12.703 7.739,12.778 7.984,12.722 8.194 C 12.663 8.411,12.535 8.555,12.081 8.914 C 11.582 9.309,11.273 9.626,11.162 9.856 C 11.048 10.092,11.003 10.441,11.001 11.110 L 11.000 11.640 11.994 11.640 L 12.988 11.640 13.011 11.018 L 13.033 10.395 13.671 9.744 C 14.361 9.040,14.458 8.906,14.625 8.420 C 14.776 7.980,14.785 7.391,14.646 6.989 C 14.418 6.326,13.692 5.715,12.999 5.603 C 12.686 5.552,11.722 5.554,11.500 5.605 M11.601 12.602 C 11.302 12.729,11.059 13.048,11.015 13.373 C 10.979 13.634,11.061 13.887,11.250 14.102 C 11.755 14.676,12.538 14.569,12.904 13.875 C 13.093 13.516,12.914 12.926,12.548 12.703 C 12.383 12.603,12.307 12.584,12.028 12.573 C 11.847 12.566,11.656 12.579,11.601 12.602 " fill="#1A1C1F" stroke="none" fill-rule="evenodd"></path></svg>