<svg width="32" height="32" viewBox="0 0 32 32" fill="none" xmlns="http://www.w3.org/2000/svg"><path d="M4.264 2.608 C 3.933 2.655,3.233 3.059,2.907 3.392 C 2.608 3.696,2.351 4.101,2.141 4.598 L 2.000 4.933 1.985 16.747 C 1.969 29.846,1.941 28.799,2.320 29.189 C 2.528 29.403,2.894 29.510,3.233 29.455 C 3.473 29.416,3.421 29.465,6.994 25.941 L 9.325 23.643 9.689 23.609 C 9.890 23.590,13.989 23.560,18.800 23.541 L 27.547 23.506 27.954 23.351 C 28.988 22.959,29.614 22.273,29.908 21.211 C 29.993 20.905,30.000 20.293,29.995 12.987 C 29.990 5.800,29.982 5.063,29.901 4.753 C 29.681 3.912,29.100 3.216,28.284 2.817 L 27.813 2.587 16.160 2.580 C 9.751 2.577,4.397 2.589,4.264 2.608 M27.426 4.643 C 27.569 4.682,27.670 4.763,27.786 4.932 L 27.947 5.166 27.947 13.012 L 27.947 20.859 27.827 21.069 C 27.755 21.194,27.642 21.302,27.547 21.337 C 27.269 21.438,24.718 21.484,17.333 21.519 C 13.388 21.538,9.858 21.572,9.490 21.595 C 8.451 21.659,8.536 21.598,6.059 24.052 L 3.986 26.107 4.020 15.813 C 4.039 10.152,4.069 5.397,4.087 5.246 C 4.132 4.875,4.287 4.687,4.591 4.638 C 4.983 4.575,27.197 4.579,27.426 4.643 M15.651 6.604 C 15.533 6.659,15.332 6.822,15.206 6.966 L 14.976 7.227 15.001 10.427 C 15.018 12.655,15.045 13.687,15.088 13.824 C 15.209 14.206,15.793 14.558,16.177 14.478 C 16.445 14.423,16.729 14.210,16.882 13.948 L 17.023 13.707 17.005 10.438 C 16.984 6.759,17.017 7.035,16.564 6.722 C 16.255 6.510,15.940 6.469,15.651 6.604 M15.489 16.208 C 15.183 16.347,14.901 16.658,14.775 16.996 C 14.644 17.346,14.638 17.604,14.755 17.947 C 15.094 18.942,16.578 19.145,17.159 18.275 C 17.487 17.785,17.517 17.293,17.248 16.800 C 16.932 16.219,16.089 15.935,15.489 16.208 " fill="#1A1C1F" stroke="none" fill-rule="evenodd"></path></svg>