<svg width="14" height="14" viewBox="0 0 14 14" fill="none" xmlns="http://www.w3.org/2000/svg"><path d="M8.968 1.422 C 8.778 1.467,8.573 1.646,8.488 1.839 C 8.446 1.933,8.441 2.016,8.429 2.744 L 8.416 3.547 7.971 3.548 C 7.726 3.549,7.366 3.558,7.171 3.567 C 6.834 3.583,6.812 3.588,6.705 3.653 C 6.345 3.876,6.263 4.389,6.539 4.690 C 6.643 4.803,6.747 4.876,6.844 4.903 C 6.901 4.919,7.225 4.936,7.634 4.944 C 8.015 4.952,8.332 4.964,8.339 4.971 C 8.361 4.993,8.242 5.396,8.134 5.664 C 7.890 6.270,7.524 6.867,7.050 7.432 C 6.778 7.755,6.530 8.027,6.506 8.027 C 6.471 8.027,6.398 7.840,5.986 6.697 C 5.509 5.372,5.236 4.636,5.178 4.523 C 5.081 4.333,4.859 4.223,4.575 4.224 C 4.392 4.224,4.252 4.280,4.122 4.405 C 3.968 4.554,4.015 4.432,2.893 7.583 C 1.621 11.155,1.434 11.700,1.409 11.905 C 1.372 12.223,1.675 12.555,2.035 12.593 C 2.317 12.622,2.574 12.480,2.700 12.225 C 2.772 12.081,3.023 11.406,3.327 10.541 L 3.464 10.150 4.596 10.150 L 5.728 10.150 5.993 10.891 C 6.481 12.255,6.527 12.353,6.734 12.474 C 6.878 12.559,7.165 12.580,7.346 12.520 C 7.670 12.412,7.843 12.020,7.735 11.637 C 7.713 11.558,7.538 11.054,7.347 10.516 C 7.156 9.978,7.000 9.534,7.000 9.528 C 7.000 9.522,7.212 9.300,7.470 9.034 C 8.229 8.255,8.556 7.851,8.944 7.214 L 9.133 6.904 9.227 7.059 C 9.686 7.812,10.068 8.296,10.709 8.939 C 11.199 9.431,11.451 9.642,11.656 9.733 C 11.963 9.869,12.341 9.722,12.519 9.399 C 12.579 9.291,12.587 9.251,12.587 9.088 C 12.587 8.953,12.575 8.880,12.544 8.821 C 12.520 8.777,12.260 8.504,11.965 8.215 C 11.671 7.926,11.359 7.606,11.271 7.502 C 10.611 6.721,10.124 5.835,9.953 5.108 L 9.922 4.977 10.182 4.962 C 10.325 4.954,10.649 4.947,10.903 4.947 C 11.327 4.947,11.373 4.943,11.463 4.897 C 11.806 4.724,11.966 4.392,11.868 4.054 C 11.814 3.871,11.707 3.741,11.528 3.643 L 11.377 3.560 10.613 3.551 L 9.849 3.541 9.842 2.733 C 9.835 1.942,9.834 1.923,9.781 1.825 C 9.661 1.599,9.502 1.476,9.268 1.426 C 9.131 1.397,9.077 1.396,8.968 1.422 M4.759 7.438 C 5.036 8.188,5.205 8.687,5.193 8.719 C 5.183 8.745,5.072 8.750,4.591 8.745 L 4.002 8.738 4.009 8.670 C 4.022 8.551,4.566 7.047,4.597 7.047 C 4.607 7.047,4.680 7.223,4.759 7.438 " fill="#1A1C1F" stroke="none" fill-rule="evenodd"></path></svg>