<svg width="20" height="20" viewBox="0 0 20 20" fill="none" xmlns="http://www.w3.org/2000/svg"><path d="M12.811 2.032 C 12.541 2.096,12.248 2.351,12.125 2.627 C 12.066 2.761,12.058 2.880,12.042 3.921 L 12.023 5.067 11.420 5.069 C 11.088 5.071,10.574 5.083,10.278 5.096 C 9.759 5.119,9.735 5.123,9.580 5.219 C 9.065 5.537,8.947 6.270,9.341 6.700 C 9.490 6.862,9.638 6.965,9.777 7.003 C 9.858 7.026,10.331 7.050,10.906 7.063 C 11.450 7.074,11.903 7.092,11.913 7.102 C 11.943 7.132,11.773 7.717,11.630 8.075 C 11.321 8.849,10.811 9.704,10.201 10.467 C 9.904 10.838,9.327 11.467,9.283 11.467 C 9.259 11.467,9.230 11.440,9.218 11.408 C 9.206 11.376,8.820 10.308,8.361 9.033 C 7.902 7.759,7.482 6.630,7.429 6.525 C 7.257 6.183,6.937 6.015,6.509 6.040 C 6.198 6.059,6.048 6.128,5.827 6.356 L 5.671 6.517 4.649 9.383 C 1.835 17.279,1.918 17.022,2.063 17.350 C 2.284 17.849,2.782 18.097,3.275 17.954 C 3.548 17.874,3.729 17.722,3.858 17.464 C 3.960 17.259,4.319 16.294,4.753 15.058 L 4.949 14.500 6.566 14.500 L 8.183 14.500 8.562 15.558 C 9.259 17.509,9.324 17.647,9.622 17.822 C 9.757 17.900,9.826 17.916,10.088 17.928 C 10.354 17.939,10.417 17.931,10.547 17.868 C 10.750 17.770,10.981 17.507,11.052 17.295 C 11.169 16.943,11.130 16.796,10.340 14.583 C 10.071 13.829,10.014 13.637,10.042 13.583 C 10.061 13.547,10.296 13.292,10.565 13.017 C 11.778 11.773,12.266 11.170,12.831 10.210 C 13.039 9.857,13.043 9.856,13.191 10.101 C 13.852 11.192,14.503 12.006,15.474 12.954 C 16.200 13.663,16.557 13.920,16.906 13.984 C 17.052 14.011,17.352 13.931,17.532 13.818 C 17.896 13.587,18.071 13.130,17.952 12.718 C 17.898 12.533,17.866 12.496,17.111 11.754 C 16.680 11.330,16.225 10.863,16.101 10.717 C 15.156 9.598,14.466 8.346,14.219 7.296 L 14.175 7.110 14.526 7.088 C 14.719 7.076,15.183 7.067,15.557 7.067 C 16.183 7.067,16.247 7.061,16.376 6.996 C 16.866 6.749,17.094 6.274,16.954 5.791 C 16.878 5.530,16.725 5.345,16.468 5.204 L 16.253 5.086 15.161 5.072 L 14.070 5.058 14.060 3.904 C 14.050 2.774,14.048 2.747,13.974 2.607 C 13.802 2.285,13.574 2.108,13.240 2.037 C 13.044 1.996,12.967 1.995,12.811 2.032 M6.616 10.125 C 6.681 10.294,7.333 12.110,7.383 12.262 C 7.432 12.412,7.434 12.446,7.396 12.470 C 7.339 12.506,5.799 12.509,5.742 12.473 C 5.688 12.438,5.709 12.366,6.067 11.369 C 6.569 9.968,6.561 9.985,6.616 10.125 " fill="#1A1C1F" stroke="none" fill-rule="evenodd"></path></svg>