<svg width="24" height="24" viewBox="0 0 24 24" fill="none" xmlns="http://www.w3.org/2000/svg"><path d="M15.346 2.166 C 15.239 2.240,15.097 2.376,15.029 2.469 C 14.868 2.692,14.847 2.947,14.843 4.664 L 14.840 5.988 13.287 6.009 C 11.922 6.028,11.718 6.039,11.597 6.100 C 11.425 6.187,11.172 6.425,11.094 6.574 C 11.013 6.728,11.013 7.272,11.094 7.428 C 11.169 7.574,11.486 7.868,11.630 7.927 C 11.721 7.963,12.811 8.004,14.609 8.037 C 14.755 8.040,14.757 8.043,14.735 8.170 C 14.668 8.551,14.456 9.307,14.318 9.659 C 13.898 10.733,13.056 12.134,12.292 13.030 C 11.773 13.638,11.030 14.406,10.995 14.371 C 10.962 14.338,10.803 13.903,9.560 10.440 C 8.395 7.198,8.458 7.336,8.064 7.140 C 7.834 7.025,7.481 7.005,7.266 7.095 C 7.092 7.167,6.852 7.382,6.773 7.533 C 6.692 7.690,5.947 9.745,4.313 14.320 C 2.751 18.689,2.253 20.118,2.101 20.659 C 2.000 21.017,1.993 21.076,2.036 21.239 C 2.127 21.584,2.514 21.930,2.867 21.983 C 3.070 22.014,3.364 21.940,3.587 21.803 C 3.800 21.672,3.971 21.260,4.901 18.650 L 5.331 17.440 6.656 17.440 C 7.384 17.440,8.424 17.452,8.966 17.466 L 9.952 17.493 10.201 18.196 C 10.679 19.545,11.233 21.029,11.369 21.325 C 11.521 21.654,11.706 21.839,11.957 21.914 C 12.548 22.092,13.240 21.633,13.240 21.064 C 13.240 20.832,12.994 20.057,12.343 18.240 L 11.720 16.500 12.096 16.140 C 12.764 15.500,13.673 14.528,14.083 14.014 C 14.562 13.413,15.243 12.396,15.598 11.749 L 15.856 11.280 15.922 11.390 C 15.958 11.450,16.085 11.680,16.204 11.899 C 16.502 12.450,17.201 13.492,17.624 14.017 C 18.564 15.183,20.100 16.667,20.600 16.892 C 20.949 17.049,21.398 16.972,21.674 16.708 C 21.956 16.437,22.048 16.105,21.942 15.740 C 21.868 15.486,21.759 15.364,20.888 14.565 C 19.111 12.935,17.715 10.869,17.203 9.110 C 17.084 8.703,16.960 8.166,16.960 8.062 C 16.960 8.019,17.248 8.005,18.450 7.989 C 19.412 7.977,19.992 7.954,20.087 7.924 C 20.302 7.857,20.584 7.526,20.665 7.249 C 20.719 7.062,20.722 6.992,20.682 6.812 C 20.603 6.460,20.320 6.148,20.017 6.079 C 19.931 6.059,19.190 6.030,18.370 6.015 L 16.880 5.987 16.877 4.884 C 16.876 4.277,16.861 3.523,16.844 3.210 C 16.815 2.660,16.809 2.633,16.692 2.470 C 16.625 2.376,16.486 2.247,16.382 2.183 C 16.225 2.084,16.143 2.063,15.868 2.048 C 15.549 2.032,15.535 2.035,15.346 2.166 M7.817 11.530 C 8.024 12.086,8.922 14.619,9.059 15.035 C 9.150 15.310,9.160 15.375,9.115 15.404 C 9.046 15.448,6.198 15.450,6.129 15.406 C 6.089 15.381,6.123 15.242,6.274 14.797 C 6.727 13.466,7.596 11.120,7.636 11.120 C 7.652 11.120,7.733 11.305,7.817 11.530 " fill="#1A1C1F" stroke="none" fill-rule="evenodd"></path></svg>