<svg width="32" height="32" viewBox="0 0 32 32" fill="none" xmlns="http://www.w3.org/2000/svg"><path d="M20.997 2.138 C 20.881 2.200,20.727 2.351,20.637 2.493 L 20.480 2.741 20.480 5.290 L 20.480 7.840 18.547 7.843 C 16.269 7.846,15.549 7.889,15.296 8.036 C 15.019 8.199,14.872 8.500,14.894 8.862 C 14.919 9.260,15.104 9.543,15.450 9.714 C 15.706 9.840,15.709 9.840,18.067 9.858 C 19.365 9.869,20.427 9.885,20.427 9.895 C 20.427 10.031,20.130 11.453,20.026 11.813 C 19.480 13.710,18.397 15.725,16.919 17.591 C 16.260 18.423,14.651 20.160,14.539 20.160 C 14.504 20.160,14.420 20.010,14.353 19.827 C 14.286 19.643,13.607 17.753,12.845 15.627 C 11.178 10.976,10.698 9.679,10.559 9.451 C 10.262 8.963,9.532 8.888,9.096 9.302 C 8.897 9.491,8.970 9.309,7.760 12.667 C 5.174 19.843,2.276 28.065,2.107 28.702 C 1.989 29.148,2.026 29.357,2.271 29.644 C 2.412 29.808,2.533 29.887,2.738 29.946 C 3.056 30.039,3.259 30.001,3.576 29.791 C 3.843 29.614,3.850 29.597,5.684 24.448 L 6.047 23.430 7.677 23.395 C 8.573 23.376,10.245 23.360,11.391 23.360 L 13.476 23.360 14.212 25.427 C 15.533 29.133,15.706 29.550,16.003 29.762 C 16.230 29.924,16.582 29.957,16.877 29.844 C 17.169 29.733,17.475 29.403,17.523 29.150 C 17.563 28.934,17.397 28.418,16.053 24.602 L 15.241 22.298 16.304 21.236 C 18.667 18.876,19.960 17.119,21.147 14.654 L 21.482 13.958 21.887 14.781 C 22.693 16.421,23.684 17.935,24.900 19.387 C 25.758 20.411,27.645 22.235,28.348 22.720 C 28.673 22.945,28.966 23.018,29.228 22.939 C 29.492 22.860,29.805 22.592,29.901 22.363 C 30.003 22.120,29.991 21.763,29.875 21.572 C 29.821 21.484,29.455 21.113,29.062 20.749 C 25.831 17.759,23.916 14.991,23.009 12.000 C 22.813 11.356,22.536 9.980,22.590 9.925 C 22.608 9.908,23.682 9.881,24.978 9.866 L 27.333 9.839 27.583 9.693 C 27.957 9.473,28.081 9.269,28.076 8.878 C 28.072 8.479,27.932 8.174,27.689 8.034 C 27.439 7.890,26.698 7.847,24.418 7.843 L 22.516 7.840 22.498 5.320 C 22.480 2.813,22.479 2.799,22.357 2.550 C 22.131 2.091,21.467 1.891,20.997 2.138 M9.921 13.427 C 10.598 15.219,12.561 20.794,12.613 21.073 C 12.645 21.244,12.635 21.269,12.525 21.299 C 12.365 21.341,7.213 21.342,7.053 21.300 C 6.974 21.278,6.933 21.227,6.933 21.148 C 6.933 21.002,7.245 20.083,8.390 16.853 C 9.539 13.613,9.720 13.120,9.767 13.120 C 9.788 13.120,9.858 13.258,9.921 13.427 " fill="#1A1C1F" stroke="none" fill-rule="evenodd"></path></svg>