<svg width="16" height="16" viewBox="0 0 16 16" fill="none" xmlns="http://www.w3.org/2000/svg"><path d="M10.249 1.626 C 10.032 1.677,9.798 1.881,9.700 2.102 C 9.653 2.209,9.647 2.304,9.633 3.132 L 9.619 4.045 8.761 4.063 C 8.290 4.073,7.860 4.093,7.807 4.108 C 7.662 4.148,7.464 4.318,7.378 4.476 C 7.287 4.643,7.262 4.840,7.306 5.049 C 7.333 5.180,7.361 5.228,7.496 5.372 C 7.732 5.624,7.733 5.624,8.690 5.654 C 9.139 5.668,9.511 5.679,9.517 5.679 C 9.541 5.681,9.485 5.921,9.397 6.196 C 9.203 6.804,8.749 7.620,8.247 8.262 C 7.960 8.630,7.471 9.173,7.428 9.173 C 7.387 9.173,7.425 9.273,6.637 7.084 C 6.298 6.144,5.987 5.306,5.945 5.223 C 5.808 4.952,5.581 4.826,5.228 4.827 C 5.006 4.827,4.833 4.905,4.662 5.084 L 4.536 5.213 3.652 7.693 C 1.705 13.156,1.619 13.409,1.616 13.653 C 1.612 14.139,2.131 14.505,2.620 14.363 C 2.839 14.300,2.984 14.178,3.086 13.971 C 3.168 13.807,3.455 13.035,3.802 12.047 L 3.959 11.600 5.253 11.600 L 6.547 11.600 6.849 12.447 C 7.409 14.012,7.468 14.136,7.707 14.258 C 8.201 14.512,8.712 14.283,8.871 13.737 C 8.911 13.600,8.911 13.573,8.871 13.410 C 8.848 13.313,8.639 12.698,8.406 12.045 L 7.983 10.857 8.354 10.504 C 9.150 9.747,9.767 8.998,10.240 8.213 C 10.333 8.059,10.417 7.924,10.427 7.912 C 10.437 7.900,10.515 8.008,10.600 8.152 C 11.057 8.924,11.611 9.613,12.379 10.363 C 13.129 11.095,13.419 11.261,13.777 11.161 C 14.063 11.080,14.304 10.845,14.377 10.574 C 14.414 10.436,14.392 10.194,14.332 10.078 C 14.307 10.028,13.977 9.681,13.600 9.307 C 12.886 8.598,12.664 8.341,12.287 7.786 C 11.934 7.265,11.706 6.833,11.536 6.358 C 11.443 6.098,11.330 5.701,11.346 5.685 C 11.353 5.678,11.728 5.667,12.179 5.660 C 12.930 5.648,13.009 5.642,13.107 5.593 C 13.492 5.402,13.675 5.017,13.563 4.633 C 13.502 4.424,13.380 4.276,13.175 4.164 L 13.004 4.070 12.130 4.058 L 11.256 4.046 11.248 3.123 C 11.240 2.219,11.239 2.198,11.179 2.085 C 11.041 1.828,10.860 1.687,10.592 1.630 C 10.435 1.597,10.373 1.596,10.249 1.626 M5.400 8.393 C 5.685 9.165,5.917 9.835,5.925 9.908 L 5.933 9.987 5.253 9.987 L 4.573 9.987 4.582 9.908 C 4.596 9.773,5.219 8.053,5.253 8.053 C 5.265 8.053,5.331 8.206,5.400 8.393 " fill="#1A1C1F" stroke="none" fill-rule="evenodd"></path></svg>