<svg width="28" height="28" viewBox="0 0 28 28" fill="none" xmlns="http://www.w3.org/2000/svg"><path d="M18.372 1.871 C 18.271 1.925,18.136 2.057,18.057 2.182 L 17.920 2.398 17.920 4.629 L 17.920 6.860 16.508 6.863 C 15.732 6.864,14.733 6.882,14.289 6.902 C 13.372 6.944,13.311 6.966,13.122 7.329 C 12.898 7.759,13.075 8.281,13.519 8.499 C 13.743 8.610,13.745 8.610,15.808 8.626 C 16.944 8.635,17.873 8.660,17.873 8.682 C 17.873 8.794,17.577 10.194,17.494 10.477 C 17.045 11.998,15.982 13.927,14.741 15.470 C 14.238 16.095,12.996 17.444,12.810 17.566 L 12.690 17.644 12.603 17.444 C 12.555 17.334,11.955 15.679,11.269 13.767 C 9.685 9.346,9.347 8.435,9.223 8.248 C 9.112 8.080,8.771 7.887,8.588 7.887 C 8.183 7.888,7.865 8.131,7.702 8.563 C 6.744 11.112,2.011 24.482,1.844 25.115 C 1.740 25.509,1.775 25.709,1.989 25.947 C 2.305 26.297,2.730 26.341,3.133 26.066 C 3.364 25.909,3.376 25.877,4.973 21.392 L 5.291 20.501 6.647 20.471 C 7.393 20.454,8.856 20.440,9.897 20.440 L 11.791 20.440 12.319 21.922 C 13.209 24.418,13.665 25.627,13.791 25.816 C 14.011 26.150,14.298 26.246,14.722 26.128 C 14.961 26.062,15.234 25.788,15.308 25.541 C 15.363 25.356,15.353 25.309,15.061 24.445 C 14.894 23.949,14.436 22.634,14.044 21.522 L 13.332 19.500 13.922 18.932 C 16.042 16.889,17.357 15.152,18.414 12.999 L 18.803 12.207 19.055 12.743 C 20.041 14.841,21.429 16.739,23.329 18.584 C 24.690 19.907,25.133 20.197,25.594 20.067 C 26.014 19.950,26.366 19.376,26.226 19.038 C 26.193 18.959,25.522 18.250,24.735 17.462 C 23.874 16.602,23.125 15.806,22.858 15.470 C 21.704 14.018,20.802 12.454,20.302 11.037 C 20.052 10.329,19.692 8.759,19.763 8.688 C 19.779 8.672,20.722 8.647,21.857 8.632 L 23.922 8.606 24.138 8.480 C 24.463 8.289,24.571 8.110,24.567 7.768 C 24.563 7.419,24.440 7.152,24.228 7.030 C 24.009 6.904,23.361 6.866,21.366 6.863 L 19.702 6.860 19.686 4.655 C 19.670 2.461,19.669 2.449,19.562 2.231 C 19.365 1.830,18.784 1.654,18.372 1.871 M8.739 11.912 C 8.954 12.475,10.160 15.840,10.612 17.137 C 10.999 18.248,11.089 18.560,11.039 18.610 C 10.998 18.651,6.431 18.682,6.218 18.643 C 6.099 18.622,6.067 18.593,6.067 18.508 C 6.067 18.377,6.336 17.583,7.342 14.747 C 8.492 11.502,8.500 11.480,8.539 11.480 C 8.558 11.480,8.648 11.674,8.739 11.912 " fill="#1A1C1F" stroke="none" fill-rule="evenodd"></path></svg>