<svg width="12" height="12" viewBox="0 0 12 12" fill="none" xmlns="http://www.w3.org/2000/svg"><path d="M7.687 1.219 C 7.524 1.258,7.349 1.410,7.275 1.576 C 7.240 1.657,7.235 1.728,7.225 2.349 L 7.214 3.034 6.571 3.047 C 6.217 3.055,5.895 3.070,5.855 3.081 C 5.747 3.111,5.598 3.239,5.534 3.357 C 5.465 3.483,5.447 3.630,5.480 3.790 C 5.503 3.898,5.518 3.922,5.647 4.051 C 5.749 4.153,5.810 4.198,5.860 4.208 C 5.899 4.215,6.196 4.230,6.520 4.240 C 6.845 4.250,7.118 4.259,7.128 4.259 C 7.156 4.260,7.124 4.410,7.039 4.672 C 6.890 5.130,6.563 5.713,6.185 6.197 C 5.973 6.468,5.602 6.880,5.569 6.880 C 5.555 6.880,5.515 6.801,5.480 6.705 C 5.445 6.609,5.214 5.968,4.966 5.281 C 4.719 4.594,4.491 3.981,4.459 3.918 C 4.356 3.714,4.186 3.620,3.921 3.620 C 3.754 3.620,3.625 3.679,3.496 3.813 L 3.402 3.910 2.739 5.770 C 1.438 9.419,1.229 10.024,1.208 10.203 C 1.177 10.472,1.430 10.757,1.734 10.793 C 1.936 10.817,2.172 10.716,2.267 10.564 C 2.335 10.458,2.494 10.048,2.753 9.315 L 2.970 8.700 3.940 8.700 L 4.910 8.700 5.108 9.255 C 5.539 10.466,5.592 10.581,5.766 10.688 C 5.848 10.738,5.888 10.749,6.029 10.756 C 6.237 10.767,6.366 10.728,6.475 10.622 C 6.641 10.462,6.699 10.220,6.630 9.974 C 6.611 9.906,6.506 9.598,6.396 9.290 C 6.286 8.982,6.152 8.600,6.098 8.441 L 5.999 8.152 6.386 7.761 C 7.027 7.112,7.342 6.722,7.691 6.145 C 7.765 6.021,7.829 5.922,7.831 5.925 C 7.834 5.928,7.914 6.056,8.010 6.210 C 8.332 6.727,8.632 7.108,9.090 7.578 C 9.746 8.251,10.028 8.440,10.290 8.382 C 10.655 8.300,10.869 7.967,10.771 7.631 C 10.739 7.521,10.719 7.498,10.317 7.103 C 9.660 6.459,9.336 6.070,9.032 5.561 C 8.798 5.169,8.562 4.604,8.528 4.357 L 8.515 4.266 8.713 4.253 C 8.821 4.246,9.097 4.240,9.326 4.240 C 9.710 4.240,9.748 4.237,9.826 4.198 C 10.120 4.050,10.256 3.764,10.172 3.475 C 10.127 3.318,10.035 3.207,9.882 3.123 L 9.753 3.053 9.098 3.044 L 8.442 3.035 8.436 2.342 C 8.430 1.664,8.429 1.648,8.384 1.564 C 8.281 1.371,8.145 1.265,7.944 1.222 C 7.826 1.198,7.780 1.197,7.687 1.219 M4.080 6.375 C 4.317 7.018,4.462 7.446,4.451 7.473 C 4.443 7.496,4.347 7.500,3.935 7.495 L 3.430 7.490 3.436 7.431 C 3.447 7.330,3.914 6.040,3.940 6.040 C 3.949 6.040,4.012 6.191,4.080 6.375 " fill="#1A1C1F" stroke="none" fill-rule="evenodd"></path></svg>