<svg width="20" height="20" viewBox="0 0 20 20" fill="none" xmlns="http://www.w3.org/2000/svg"><path d="M14.721 2.176 C 14.671 2.226,14.631 2.327,14.604 2.468 C 14.428 3.400,13.914 4.163,13.161 4.610 C 12.962 4.728,12.304 4.966,12.176 4.967 C 12.061 4.967,11.861 5.039,11.798 5.102 C 11.717 5.183,11.715 5.306,11.793 5.377 C 11.826 5.407,12.053 5.484,12.299 5.550 C 13.296 5.815,13.898 6.285,14.300 7.111 C 14.396 7.309,14.501 7.596,14.552 7.800 C 14.675 8.288,14.723 8.367,14.898 8.367 C 15.003 8.367,15.059 8.256,15.167 7.833 C 15.347 7.132,15.590 6.702,16.048 6.274 C 16.469 5.879,16.756 5.729,17.432 5.550 C 17.898 5.426,18.000 5.373,18.000 5.251 C 18.000 5.123,17.867 5.043,17.501 4.950 C 16.780 4.768,16.385 4.562,15.996 4.167 C 15.574 3.738,15.333 3.296,15.185 2.683 C 15.064 2.183,15.073 2.205,14.966 2.150 C 14.838 2.084,14.810 2.087,14.721 2.176 M7.699 6.175 C 7.511 6.270,7.463 6.367,7.350 6.883 C 7.000 8.475,6.196 9.698,4.927 10.569 C 4.350 10.965,3.662 11.250,2.767 11.466 C 2.262 11.587,2.159 11.630,2.078 11.754 C 2.001 11.872,2.001 12.128,2.078 12.246 C 2.161 12.374,2.335 12.443,2.883 12.568 C 3.703 12.755,4.278 13.001,4.927 13.442 C 5.305 13.699,5.866 14.216,6.165 14.582 C 6.720 15.261,7.096 16.029,7.299 16.900 C 7.340 17.074,7.394 17.307,7.420 17.417 C 7.447 17.527,7.495 17.654,7.529 17.700 C 7.598 17.796,7.782 17.896,7.893 17.898 C 8.010 17.901,8.189 17.814,8.246 17.727 C 8.275 17.684,8.365 17.394,8.447 17.082 C 8.630 16.387,8.762 16.007,8.958 15.617 C 9.519 14.494,10.388 13.625,11.509 13.062 C 11.948 12.842,12.265 12.728,12.786 12.602 C 13.654 12.392,13.689 12.374,13.769 12.104 C 13.814 11.951,13.752 11.750,13.633 11.661 C 13.587 11.627,13.310 11.539,13.017 11.466 C 12.346 11.298,12.029 11.194,11.650 11.018 C 11.035 10.731,10.525 10.365,10.000 9.834 C 9.575 9.404,9.272 8.986,8.986 8.432 C 8.738 7.952,8.620 7.620,8.448 6.917 C 8.380 6.642,8.305 6.377,8.280 6.328 C 8.237 6.243,7.996 6.100,7.897 6.100 C 7.870 6.100,7.781 6.134,7.699 6.175 M8.615 11.285 C 8.726 11.395,8.942 11.602,9.095 11.744 L 9.374 12.002 9.079 12.275 C 8.716 12.610,8.492 12.834,8.156 13.195 L 7.898 13.474 7.625 13.179 C 7.285 12.811,7.132 12.658,6.739 12.292 L 6.427 12.002 6.738 11.710 C 7.126 11.343,7.646 10.805,7.780 10.632 L 7.881 10.500 8.147 10.792 C 8.294 10.952,8.504 11.174,8.615 11.285 " fill="#1A1C1F" stroke="none" fill-rule="evenodd"></path></svg>