<svg width="14" height="14" viewBox="0 0 14 14" fill="none" xmlns="http://www.w3.org/2000/svg"><path d="M10.305 1.523 C 10.270 1.558,10.241 1.629,10.223 1.727 C 10.098 2.387,9.748 2.903,9.204 3.231 C 9.062 3.317,8.657 3.459,8.470 3.489 C 8.287 3.518,8.213 3.575,8.213 3.685 C 8.213 3.760,8.294 3.801,8.604 3.884 C 8.975 3.982,9.203 4.087,9.445 4.269 C 9.791 4.529,10.063 4.967,10.187 5.460 C 10.272 5.801,10.306 5.857,10.428 5.857 C 10.502 5.857,10.541 5.780,10.617 5.483 C 10.743 4.993,10.902 4.708,11.215 4.409 C 11.514 4.123,11.721 4.013,12.202 3.885 C 12.529 3.798,12.600 3.761,12.600 3.675 C 12.600 3.586,12.507 3.530,12.251 3.465 C 11.658 3.315,11.311 3.105,11.024 2.724 C 10.809 2.438,10.701 2.202,10.616 1.833 C 10.539 1.502,10.432 1.396,10.305 1.523 M5.389 4.322 C 5.258 4.389,5.224 4.458,5.144 4.818 C 5.011 5.414,4.831 5.852,4.539 6.288 C 3.922 7.209,3.161 7.722,1.972 8.016 C 1.554 8.120,1.487 8.150,1.438 8.251 C 1.390 8.353,1.390 8.430,1.439 8.533 C 1.496 8.653,1.579 8.692,1.983 8.788 C 2.446 8.897,2.676 8.978,3.010 9.149 C 3.395 9.347,3.678 9.557,4.026 9.904 C 4.387 10.265,4.590 10.544,4.794 10.955 C 4.963 11.297,5.059 11.574,5.145 11.978 C 5.233 12.389,5.265 12.446,5.443 12.509 C 5.518 12.535,5.546 12.535,5.628 12.506 C 5.681 12.487,5.743 12.445,5.767 12.413 C 5.790 12.381,5.856 12.177,5.913 11.958 C 6.049 11.439,6.135 11.199,6.302 10.873 C 6.496 10.495,6.710 10.206,7.034 9.881 C 7.602 9.311,8.216 8.987,9.128 8.774 C 9.498 8.688,9.587 8.640,9.636 8.498 C 9.666 8.412,9.666 8.388,9.636 8.303 C 9.617 8.250,9.575 8.187,9.543 8.163 C 9.511 8.140,9.283 8.068,9.036 8.004 C 8.335 7.822,7.909 7.633,7.488 7.316 C 6.936 6.902,6.539 6.422,6.253 5.827 C 6.100 5.506,6.009 5.239,5.901 4.795 C 5.861 4.628,5.813 4.464,5.796 4.430 C 5.766 4.370,5.598 4.270,5.528 4.270 C 5.509 4.270,5.446 4.294,5.389 4.322 M6.042 7.911 C 6.126 7.995,6.278 8.139,6.379 8.232 L 6.562 8.401 6.355 8.592 C 6.101 8.827,5.944 8.983,5.709 9.237 L 5.529 9.432 5.338 9.225 C 5.100 8.968,4.993 8.860,4.717 8.604 L 4.498 8.401 4.693 8.221 C 4.949 7.984,5.321 7.600,5.430 7.461 L 5.516 7.350 5.703 7.554 C 5.805 7.666,5.958 7.827,6.042 7.911 " fill="#1A1C1F" stroke="none" fill-rule="evenodd"></path></svg>