<svg width="12" height="12" viewBox="0 0 12 12" fill="none" xmlns="http://www.w3.org/2000/svg"><path d="M8.845 1.291 C 8.801 1.321,8.794 1.340,8.730 1.620 C 8.608 2.148,8.261 2.587,7.777 2.826 C 7.646 2.890,7.527 2.927,7.194 3.004 C 7.056 3.036,6.994 3.153,7.076 3.226 C 7.095 3.244,7.230 3.290,7.375 3.329 C 7.693 3.413,7.888 3.503,8.096 3.659 C 8.392 3.882,8.625 4.257,8.731 4.680 C 8.805 4.973,8.834 5.020,8.939 5.020 C 9.002 5.020,9.036 4.953,9.100 4.701 C 9.172 4.417,9.260 4.211,9.387 4.033 C 9.559 3.792,9.899 3.514,10.132 3.424 C 10.186 3.403,10.330 3.361,10.452 3.331 C 10.710 3.268,10.800 3.222,10.800 3.154 C 10.800 3.073,10.723 3.026,10.500 2.970 C 9.993 2.842,9.695 2.662,9.449 2.335 C 9.265 2.090,9.172 1.887,9.099 1.571 C 9.036 1.298,8.958 1.212,8.845 1.291 M4.615 3.701 C 4.574 3.723,4.527 3.761,4.511 3.786 C 4.495 3.810,4.446 3.979,4.402 4.160 C 4.313 4.530,4.229 4.783,4.125 4.990 C 3.843 5.556,3.440 6.020,2.950 6.345 C 2.586 6.586,2.237 6.732,1.683 6.874 C 1.492 6.922,1.318 6.973,1.298 6.986 C 1.242 7.021,1.193 7.165,1.208 7.247 C 1.237 7.401,1.318 7.448,1.695 7.532 C 2.189 7.642,2.633 7.831,2.993 8.086 C 3.201 8.233,3.555 8.569,3.725 8.780 C 4.061 9.197,4.261 9.627,4.399 10.229 C 4.493 10.639,4.515 10.678,4.680 10.721 C 4.789 10.750,4.897 10.714,4.951 10.631 C 4.970 10.602,5.024 10.428,5.070 10.244 C 5.166 9.870,5.212 9.729,5.321 9.475 C 5.556 8.932,6.009 8.399,6.530 8.055 C 6.922 7.796,7.293 7.643,7.827 7.521 C 7.980 7.486,8.124 7.445,8.148 7.429 C 8.203 7.394,8.280 7.260,8.280 7.202 C 8.280 7.131,8.227 7.025,8.174 6.991 C 8.146 6.973,7.981 6.922,7.807 6.879 C 7.379 6.772,7.210 6.715,6.950 6.590 C 6.281 6.267,5.712 5.704,5.372 5.029 C 5.243 4.773,5.191 4.625,5.080 4.197 C 5.026 3.990,4.972 3.802,4.960 3.780 C 4.934 3.732,4.799 3.660,4.736 3.661 C 4.711 3.661,4.656 3.680,4.615 3.701 M5.169 6.771 C 5.236 6.837,5.365 6.961,5.457 7.046 L 5.625 7.201 5.447 7.365 C 5.232 7.564,5.119 7.676,4.904 7.907 L 4.739 8.084 4.565 7.897 C 4.344 7.660,4.295 7.611,4.052 7.385 L 3.853 7.201 4.032 7.036 C 4.256 6.830,4.558 6.519,4.654 6.395 L 4.728 6.300 4.888 6.475 C 4.976 6.571,5.103 6.704,5.169 6.771 " fill="#1A1C1F" stroke="none" fill-rule="evenodd"></path></svg>