<svg width="32" height="32" viewBox="0 0 32 32" fill="none" xmlns="http://www.w3.org/2000/svg"><path d="M24.571 2.093 C 24.505 2.142,24.452 2.360,24.372 2.907 C 24.171 4.290,23.912 4.876,23.168 5.621 C 22.437 6.354,21.954 6.575,20.548 6.824 C 20.032 6.915,19.645 7.010,19.619 7.050 C 19.537 7.180,19.569 7.407,19.678 7.466 C 19.736 7.497,20.102 7.570,20.492 7.628 C 20.881 7.686,21.392 7.793,21.627 7.865 C 22.647 8.177,23.588 9.029,24.003 10.017 C 24.141 10.345,24.263 10.879,24.425 11.862 C 24.507 12.357,24.550 12.427,24.773 12.427 C 25.018 12.427,25.047 12.359,25.175 11.508 C 25.376 10.165,25.647 9.560,26.374 8.829 C 27.085 8.114,27.613 7.874,28.969 7.648 C 29.415 7.574,29.823 7.490,29.876 7.462 C 29.978 7.407,30.007 7.175,29.927 7.050 C 29.902 7.009,29.573 6.925,29.155 6.852 C 28.755 6.782,28.326 6.698,28.201 6.666 C 27.143 6.393,26.296 5.766,25.763 4.862 C 25.498 4.412,25.354 3.977,25.251 3.320 C 25.105 2.384,25.068 2.223,24.978 2.124 C 24.876 2.011,24.699 1.998,24.571 2.093 M12.394 6.395 C 12.302 6.451,12.213 6.553,12.196 6.622 C 12.179 6.690,12.055 7.503,11.921 8.427 C 11.468 11.546,11.380 11.942,10.978 12.693 C 10.232 14.084,9.095 15.089,7.696 15.591 C 7.200 15.769,6.516 15.896,4.613 16.163 C 2.870 16.407,2.318 16.508,2.153 16.614 C 2.012 16.705,1.957 16.909,2.024 17.087 C 2.127 17.358,2.363 17.416,4.727 17.760 C 7.086 18.102,7.358 18.157,8.006 18.428 C 9.338 18.984,10.698 20.364,11.205 21.672 C 11.433 22.261,11.521 22.727,11.863 25.134 C 12.025 26.272,12.183 27.249,12.214 27.307 C 12.284 27.439,12.538 27.573,12.717 27.573 C 13.058 27.573,13.126 27.338,13.440 25.049 C 13.801 22.417,13.922 21.906,14.378 21.074 C 14.964 20.003,15.958 19.055,17.040 18.536 C 17.750 18.194,18.116 18.116,20.933 17.705 C 22.640 17.457,23.111 17.361,23.208 17.243 C 23.310 17.121,23.294 16.774,23.182 16.650 C 23.048 16.502,22.846 16.460,21.067 16.215 C 18.949 15.922,18.561 15.859,18.000 15.709 C 16.369 15.276,15.001 14.106,14.213 12.471 C 13.884 11.788,13.811 11.449,13.441 8.880 C 13.263 7.648,13.107 6.610,13.094 6.574 C 13.064 6.490,12.746 6.294,12.640 6.294 C 12.596 6.294,12.485 6.339,12.394 6.395 M12.984 14.414 C 13.392 14.978,14.620 16.204,15.184 16.610 C 15.425 16.783,15.609 16.945,15.595 16.969 C 15.580 16.993,15.335 17.184,15.051 17.393 C 14.350 17.909,13.380 18.894,12.978 19.499 L 12.654 19.985 12.314 19.501 C 11.732 18.673,10.503 17.494,9.725 17.017 C 9.614 16.949,9.560 17.002,10.351 16.413 C 10.916 15.993,11.801 15.090,12.245 14.481 C 12.448 14.204,12.625 13.976,12.640 13.976 C 12.655 13.975,12.810 14.172,12.984 14.414 M20.847 21.707 C 20.741 21.769,20.673 22.023,20.530 22.904 C 20.385 23.794,20.272 24.087,19.932 24.460 C 19.451 24.986,19.034 25.167,17.981 25.307 C 17.048 25.432,17.067 25.426,16.978 25.640 C 16.871 25.895,16.924 26.071,17.135 26.158 C 17.230 26.197,17.655 26.279,18.080 26.340 C 18.970 26.468,19.445 26.660,19.853 27.057 C 20.265 27.457,20.424 27.914,20.632 29.303 C 20.703 29.780,20.820 29.941,21.109 29.963 C 21.307 29.978,21.336 29.963,21.413 29.814 C 21.460 29.723,21.546 29.320,21.604 28.918 C 21.734 28.021,21.769 27.888,21.978 27.527 C 22.289 26.986,22.790 26.616,23.413 26.466 C 23.545 26.434,23.929 26.368,24.267 26.319 C 24.604 26.270,24.957 26.198,25.051 26.159 C 25.268 26.068,25.327 25.870,25.210 25.626 C 25.115 25.426,25.106 25.423,24.211 25.307 C 23.568 25.224,23.022 25.074,22.742 24.903 C 22.504 24.757,22.057 24.268,21.925 24.009 C 21.767 23.700,21.671 23.278,21.595 22.561 C 21.536 22.006,21.516 21.935,21.382 21.801 C 21.230 21.649,21.012 21.610,20.847 21.707 " fill="#1A1C1F" stroke="none" fill-rule="evenodd"></path></svg>