<svg width="24" height="24" viewBox="0 0 24 24" fill="none" xmlns="http://www.w3.org/2000/svg"><path d="M18.188 2.081 C 18.114 2.139,18.073 2.226,18.040 2.391 C 17.861 3.289,17.567 3.871,17.015 4.418 C 16.551 4.877,16.043 5.143,15.294 5.319 C 14.715 5.455,14.559 5.603,14.771 5.815 C 14.835 5.878,14.984 5.934,15.261 5.997 C 16.741 6.335,17.631 7.212,17.984 8.679 C 18.068 9.026,18.119 9.160,18.193 9.229 C 18.420 9.439,18.532 9.313,18.708 8.650 C 18.782 8.370,18.914 7.995,18.999 7.817 C 19.452 6.880,20.241 6.284,21.400 6.002 C 21.893 5.882,22.000 5.825,22.000 5.681 C 22.000 5.569,21.890 5.456,21.733 5.409 C 21.649 5.383,21.428 5.325,21.243 5.279 C 19.914 4.951,18.949 3.920,18.678 2.540 C 18.622 2.255,18.548 2.098,18.442 2.041 C 18.335 1.984,18.305 1.989,18.188 2.081 M9.040 5.088 C 8.963 5.140,8.878 5.228,8.852 5.283 C 8.826 5.337,8.741 5.760,8.663 6.221 C 8.488 7.268,8.405 7.583,8.163 8.126 C 7.545 9.509,6.320 10.699,4.949 11.245 C 4.505 11.422,4.067 11.530,3.189 11.678 C 2.663 11.767,2.238 11.859,2.181 11.896 C 2.037 11.990,1.973 12.238,2.044 12.424 C 2.132 12.656,2.242 12.708,2.880 12.820 C 3.199 12.876,3.622 12.951,3.820 12.986 C 4.906 13.181,5.990 13.736,6.807 14.514 C 7.513 15.185,8.027 15.969,8.324 16.826 C 8.467 17.238,8.534 17.540,8.661 18.340 C 8.773 19.050,8.847 19.318,8.958 19.418 C 8.998 19.455,9.128 19.495,9.246 19.507 C 9.424 19.525,9.478 19.514,9.567 19.444 C 9.706 19.334,9.732 19.243,9.878 18.380 C 10.133 16.877,10.313 16.374,10.926 15.455 C 11.476 14.630,12.326 13.908,13.296 13.440 C 13.837 13.179,14.248 13.066,15.331 12.879 C 15.834 12.792,16.284 12.693,16.337 12.659 C 16.532 12.531,16.577 12.134,16.417 11.957 C 16.326 11.856,16.219 11.830,15.229 11.663 C 13.573 11.383,12.657 10.942,11.657 9.943 C 10.726 9.011,10.228 8.063,9.984 6.760 C 9.929 6.463,9.848 6.031,9.805 5.800 C 9.710 5.287,9.671 5.182,9.546 5.100 C 9.373 4.987,9.196 4.983,9.040 5.088 M10.159 11.253 C 10.479 11.579,10.853 11.938,10.991 12.051 C 11.129 12.163,11.237 12.267,11.231 12.281 C 11.225 12.295,11.031 12.469,10.800 12.667 C 10.320 13.079,9.794 13.617,9.486 14.009 L 9.275 14.277 9.093 14.049 C 8.842 13.735,7.919 12.804,7.589 12.532 C 7.439 12.409,7.322 12.295,7.329 12.279 C 7.335 12.263,7.520 12.091,7.740 11.898 C 8.238 11.460,8.778 10.905,9.052 10.551 L 9.260 10.281 9.419 10.470 C 9.507 10.575,9.840 10.927,10.159 11.253 M15.135 16.721 C 15.027 16.791,14.996 16.854,14.903 17.187 C 14.756 17.717,14.623 17.973,14.332 18.281 C 14.035 18.597,13.835 18.711,13.280 18.881 C 12.831 19.019,12.699 19.104,12.659 19.283 C 12.609 19.514,12.736 19.615,13.255 19.757 C 14.136 19.997,14.643 20.503,14.883 21.382 C 15.021 21.889,15.103 22.000,15.340 22.000 C 15.523 22.000,15.659 21.818,15.737 21.469 C 15.877 20.840,16.260 20.288,16.762 19.991 C 16.927 19.894,17.143 19.813,17.388 19.756 C 17.803 19.660,17.941 19.577,17.980 19.400 C 18.036 19.144,17.890 19.013,17.420 18.900 C 16.600 18.702,16.055 18.206,15.819 17.443 C 15.625 16.819,15.599 16.762,15.478 16.699 C 15.330 16.622,15.285 16.625,15.135 16.721 " fill="#1A1C1F" stroke="none" fill-rule="evenodd"></path></svg>