<svg width="28" height="28" viewBox="0 0 28 28" fill="none" xmlns="http://www.w3.org/2000/svg"><path d="M21.499 1.832 C 21.443 1.874,21.395 2.064,21.327 2.520 C 21.275 2.866,21.202 3.270,21.164 3.416 C 20.940 4.297,20.217 5.176,19.390 5.576 C 19.005 5.761,18.689 5.847,17.836 5.997 C 17.475 6.060,17.189 6.133,17.167 6.169 C 17.095 6.283,17.123 6.481,17.218 6.532 C 17.269 6.560,17.589 6.623,17.930 6.675 C 18.271 6.726,18.718 6.819,18.923 6.882 C 19.816 7.155,20.640 7.901,21.003 8.764 C 21.123 9.052,21.230 9.520,21.372 10.380 C 21.443 10.812,21.481 10.873,21.677 10.873 C 21.891 10.873,21.916 10.815,22.028 10.070 C 22.204 8.894,22.441 8.365,23.077 7.726 C 23.700 7.100,24.161 6.890,25.348 6.692 C 25.738 6.627,26.095 6.554,26.142 6.529 C 26.231 6.481,26.256 6.278,26.186 6.169 C 26.164 6.133,25.876 6.060,25.511 5.995 C 25.161 5.934,24.785 5.861,24.676 5.833 C 23.750 5.594,23.009 5.045,22.543 4.254 C 22.311 3.860,22.184 3.480,22.094 2.905 C 21.966 2.086,21.934 1.945,21.856 1.859 C 21.767 1.760,21.612 1.748,21.499 1.832 M10.819 5.612 C 10.751 5.670,10.683 5.759,10.669 5.810 C 10.655 5.861,10.547 6.565,10.430 7.373 C 10.053 9.972,9.986 10.305,9.726 10.868 C 9.251 11.897,8.309 12.900,7.379 13.367 C 6.665 13.725,6.168 13.845,4.363 14.095 C 2.757 14.318,2.135 14.423,1.976 14.498 C 1.700 14.627,1.671 14.974,1.923 15.138 C 2.049 15.221,2.709 15.341,4.130 15.540 C 5.458 15.726,5.909 15.802,6.391 15.920 C 7.166 16.111,7.871 16.514,8.526 17.141 C 9.351 17.932,9.835 18.766,10.032 19.737 C 10.082 19.982,10.239 20.997,10.380 21.993 C 10.522 22.988,10.660 23.843,10.687 23.894 C 10.749 24.009,10.971 24.127,11.128 24.127 C 11.425 24.127,11.483 23.926,11.759 21.933 C 12.086 19.577,12.135 19.358,12.492 18.645 C 12.794 18.042,13.111 17.607,13.572 17.164 C 14.059 16.695,14.527 16.377,15.078 16.140 C 15.561 15.932,16.001 15.837,17.547 15.609 C 20.240 15.213,20.305 15.198,20.365 14.960 C 20.407 14.794,20.283 14.522,20.142 14.469 C 20.017 14.421,19.071 14.274,17.430 14.046 C 15.720 13.808,15.091 13.615,14.294 13.085 C 13.551 12.591,12.910 11.857,12.483 11.011 C 12.133 10.317,12.119 10.252,11.689 7.267 C 11.573 6.466,11.469 5.784,11.457 5.752 C 11.428 5.670,11.148 5.507,11.037 5.507 C 10.985 5.507,10.887 5.554,10.819 5.612 M11.317 12.542 C 11.814 13.229,12.580 14.009,13.216 14.478 C 13.464 14.661,13.658 14.828,13.645 14.848 C 13.632 14.869,13.418 15.036,13.169 15.219 C 12.556 15.670,11.708 16.533,11.356 17.062 L 11.073 17.487 10.775 17.063 C 10.266 16.339,9.191 15.307,8.509 14.890 C 8.412 14.831,8.363 14.879,9.050 14.366 C 9.647 13.920,10.375 13.162,10.850 12.491 C 10.953 12.346,11.048 12.227,11.063 12.227 C 11.077 12.227,11.191 12.368,11.317 12.542 M18.241 18.993 C 18.147 19.049,18.085 19.281,17.968 20.028 C 17.847 20.794,17.740 21.074,17.440 21.402 C 17.010 21.873,16.664 22.018,15.626 22.161 C 15.275 22.210,14.967 22.263,14.941 22.279 C 14.852 22.334,14.788 22.613,14.836 22.739 C 14.894 22.891,15.031 22.934,15.843 23.051 C 16.383 23.129,16.555 23.174,16.833 23.311 C 17.534 23.656,17.831 24.126,17.974 25.117 C 18.130 26.193,18.166 26.262,18.560 26.234 C 18.722 26.223,18.802 26.005,18.904 25.303 C 19.017 24.518,19.048 24.402,19.231 24.086 C 19.503 23.613,19.942 23.289,20.487 23.157 C 20.602 23.130,20.938 23.072,21.233 23.029 C 21.882 22.935,22.059 22.869,22.100 22.706 C 22.140 22.547,22.038 22.309,21.910 22.260 C 21.854 22.239,21.600 22.197,21.346 22.168 C 20.421 22.061,19.999 21.911,19.622 21.555 C 19.168 21.125,19.029 20.790,18.900 19.811 C 18.822 19.217,18.804 19.149,18.691 19.053 C 18.563 18.943,18.372 18.917,18.241 18.993 " fill="#1A1C1F" stroke="none" fill-rule="evenodd"></path></svg>