<svg width="16" height="16" viewBox="0 0 16 16" fill="none" xmlns="http://www.w3.org/2000/svg"><path d="M11.790 1.727 C 11.754 1.756,11.718 1.841,11.691 1.960 C 11.501 2.790,11.145 3.316,10.517 3.694 C 10.369 3.783,9.841 3.973,9.740 3.973 C 9.649 3.974,9.489 4.031,9.438 4.082 C 9.374 4.146,9.372 4.245,9.434 4.302 C 9.461 4.325,9.638 4.386,9.828 4.437 C 10.225 4.543,10.416 4.623,10.670 4.787 C 11.137 5.089,11.480 5.603,11.642 6.242 C 11.740 6.630,11.779 6.693,11.918 6.693 C 12.002 6.693,12.047 6.605,12.134 6.267 C 12.272 5.731,12.413 5.464,12.743 5.114 C 13.081 4.755,13.372 4.592,13.946 4.440 C 14.319 4.341,14.400 4.298,14.400 4.201 C 14.400 4.098,14.294 4.034,14.001 3.960 C 13.424 3.814,13.108 3.650,12.797 3.334 C 12.460 2.991,12.266 2.637,12.148 2.147 C 12.051 1.746,12.059 1.764,11.973 1.720 C 11.875 1.669,11.858 1.670,11.790 1.727 M6.147 4.941 C 6.007 5.019,5.970 5.102,5.858 5.587 C 5.660 6.447,5.336 7.086,4.774 7.727 C 4.130 8.463,3.359 8.894,2.167 9.186 C 1.712 9.298,1.648 9.339,1.613 9.546 C 1.592 9.671,1.655 9.819,1.762 9.898 C 1.797 9.924,2.019 9.989,2.253 10.043 C 2.788 10.164,3.052 10.256,3.440 10.457 C 3.887 10.687,4.206 10.925,4.601 11.319 C 5.013 11.732,5.246 12.050,5.479 12.520 C 5.664 12.895,5.747 13.125,5.839 13.520 C 5.872 13.659,5.915 13.845,5.936 13.933 C 5.957 14.021,5.996 14.123,6.023 14.160 C 6.079 14.237,6.226 14.317,6.314 14.319 C 6.408 14.321,6.551 14.251,6.597 14.182 C 6.620 14.147,6.692 13.915,6.757 13.666 C 6.907 13.098,7.010 12.805,7.180 12.467 C 7.623 11.585,8.300 10.912,9.205 10.456 C 9.609 10.253,9.844 10.167,10.280 10.067 C 10.902 9.924,10.952 9.897,11.015 9.683 C 11.051 9.561,11.002 9.400,10.907 9.329 C 10.870 9.302,10.648 9.231,10.413 9.173 C 9.624 8.975,9.253 8.823,8.761 8.496 C 8.048 8.020,7.533 7.439,7.150 6.673 C 6.979 6.332,6.902 6.110,6.772 5.594 C 6.630 5.031,6.615 4.997,6.474 4.933 C 6.328 4.866,6.277 4.868,6.147 4.941 M6.420 8.514 C 6.532 8.659,7.021 9.162,7.290 9.409 L 7.500 9.601 7.263 9.820 C 6.973 10.088,6.793 10.267,6.525 10.556 L 6.318 10.779 6.100 10.543 C 5.821 10.241,5.699 10.119,5.389 9.833 L 5.137 9.601 5.375 9.381 C 5.655 9.123,6.111 8.652,6.225 8.504 C 6.269 8.447,6.311 8.400,6.319 8.401 C 6.327 8.401,6.372 8.452,6.420 8.514 " fill="#1A1C1F" stroke="none" fill-rule="evenodd"></path></svg>