<svg width="14" height="14" viewBox="0 0 14 14" fill="none" xmlns="http://www.w3.org/2000/svg"><path d="M6.732 1.910 C 6.394 2.051,5.673 2.399,5.547 2.482 C 5.284 2.657,5.175 2.860,5.216 3.096 C 5.254 3.310,5.439 3.535,5.620 3.590 C 5.830 3.652,5.966 3.615,6.587 3.325 L 7.002 3.131 7.382 3.313 C 7.916 3.568,8.017 3.602,8.197 3.588 C 8.768 3.542,8.962 2.859,8.500 2.520 C 8.447 2.480,8.183 2.344,7.915 2.217 C 7.058 1.812,7.002 1.798,6.732 1.910 M9.862 3.327 C 9.609 3.407,9.426 3.700,9.458 3.973 C 9.493 4.265,9.595 4.357,10.223 4.660 L 10.588 4.836 10.601 5.469 C 10.608 5.817,10.621 6.133,10.630 6.171 C 10.659 6.285,10.869 6.477,11.014 6.520 C 11.168 6.566,11.230 6.566,11.378 6.522 C 11.518 6.481,11.673 6.353,11.743 6.222 C 11.794 6.126,11.795 6.111,11.795 5.192 L 11.795 4.258 11.736 4.153 C 11.656 4.010,11.508 3.916,10.927 3.642 C 10.193 3.296,10.073 3.261,9.862 3.327 M3.383 3.496 C 2.882 3.733,2.521 3.917,2.409 3.994 C 2.354 4.032,2.286 4.107,2.257 4.160 C 2.206 4.257,2.205 4.267,2.207 5.180 C 2.210 6.192,2.210 6.187,2.355 6.353 C 2.465 6.478,2.611 6.540,2.797 6.540 C 2.979 6.540,3.087 6.499,3.215 6.383 C 3.385 6.230,3.390 6.205,3.402 5.481 L 3.413 4.837 3.807 4.644 C 4.260 4.423,4.408 4.309,4.466 4.137 C 4.567 3.842,4.458 3.538,4.203 3.399 C 4.107 3.346,4.060 3.337,3.905 3.337 C 3.727 3.337,3.712 3.342,3.383 3.496 M5.312 5.204 C 5.223 5.230,5.162 5.289,5.106 5.399 C 5.000 5.606,4.178 7.762,4.040 8.195 C 4.000 8.320,3.973 8.436,3.980 8.454 C 4.003 8.515,4.112 8.552,4.268 8.551 C 4.526 8.550,4.604 8.472,4.749 8.065 C 4.799 7.926,4.828 7.877,4.870 7.861 C 4.901 7.850,5.187 7.840,5.506 7.840 L 6.085 7.840 6.181 8.079 C 6.347 8.492,6.393 8.540,6.646 8.558 C 6.822 8.570,6.939 8.530,6.965 8.448 C 6.983 8.391,6.906 8.160,6.522 7.117 C 6.072 5.893,5.862 5.375,5.783 5.296 C 5.678 5.192,5.481 5.153,5.312 5.204 M7.684 5.197 C 7.589 5.209,7.496 5.303,7.473 5.410 C 7.463 5.457,7.455 6.120,7.455 6.883 C 7.455 8.225,7.457 8.275,7.502 8.365 C 7.593 8.547,7.837 8.612,7.999 8.496 C 8.141 8.395,8.154 8.332,8.162 7.694 L 8.169 7.117 8.279 7.118 C 8.488 7.120,8.593 7.153,8.667 7.240 C 8.705 7.284,8.868 7.576,9.030 7.889 C 9.351 8.511,9.367 8.530,9.582 8.555 C 9.734 8.573,9.883 8.530,9.933 8.454 C 9.971 8.397,9.970 8.387,9.919 8.240 C 9.848 8.038,9.551 7.420,9.444 7.252 C 9.397 7.179,9.323 7.079,9.278 7.030 L 9.197 6.940 9.318 6.876 C 9.601 6.728,9.724 6.554,9.750 6.266 C 9.795 5.768,9.650 5.466,9.283 5.297 C 9.142 5.232,9.085 5.220,8.825 5.202 C 8.532 5.182,7.828 5.179,7.684 5.197 M8.908 5.772 C 9.016 5.828,9.042 5.906,9.042 6.181 C 9.041 6.570,9.004 6.600,8.488 6.620 L 8.167 6.633 8.167 6.171 L 8.167 5.709 8.505 5.724 C 8.728 5.734,8.865 5.750,8.908 5.772 M5.612 6.458 C 5.773 6.891,5.903 7.277,5.903 7.316 C 5.903 7.345,5.837 7.350,5.483 7.350 C 5.145 7.350,5.063 7.344,5.063 7.318 C 5.063 7.233,5.452 6.160,5.483 6.160 C 5.493 6.160,5.552 6.294,5.612 6.458 M2.640 7.466 C 2.523 7.495,2.378 7.605,2.295 7.729 C 2.227 7.831,2.220 7.858,2.204 8.113 C 2.194 8.265,2.194 8.687,2.202 9.052 C 2.220 9.812,2.222 9.823,2.415 9.970 C 2.564 10.083,3.500 10.548,3.742 10.629 C 3.908 10.684,3.937 10.687,4.039 10.663 C 4.327 10.594,4.527 10.357,4.527 10.087 C 4.527 9.751,4.433 9.651,3.845 9.355 L 3.413 9.138 3.401 8.506 C 3.389 7.801,3.382 7.765,3.230 7.632 C 3.070 7.491,2.822 7.421,2.640 7.466 M11.083 7.465 C 10.980 7.486,10.910 7.522,10.789 7.620 C 10.616 7.760,10.609 7.792,10.598 8.507 L 10.588 9.139 10.236 9.312 C 9.734 9.559,9.630 9.632,9.551 9.795 C 9.369 10.167,9.616 10.607,10.035 10.656 C 10.186 10.674,10.315 10.627,10.908 10.336 C 11.399 10.095,11.642 9.947,11.721 9.841 C 11.787 9.753,11.813 9.303,11.801 8.491 L 11.792 7.870 11.729 7.762 C 11.600 7.543,11.327 7.418,11.083 7.465 M5.648 10.386 C 5.540 10.418,5.388 10.526,5.316 10.621 C 5.230 10.734,5.197 10.858,5.208 11.021 C 5.221 11.220,5.278 11.324,5.434 11.436 C 5.576 11.538,6.512 12.008,6.757 12.100 C 7.037 12.206,7.095 12.190,7.925 11.780 C 8.558 11.469,8.696 11.370,8.760 11.184 C 8.890 10.801,8.622 10.382,8.247 10.384 C 8.054 10.385,7.941 10.424,7.460 10.652 L 6.999 10.871 6.679 10.719 C 5.989 10.390,5.819 10.336,5.648 10.386 " fill="#1A1C1F" stroke="none" fill-rule="evenodd"></path></svg>