<svg width="28" height="28" viewBox="0 0 28 28" fill="none" xmlns="http://www.w3.org/2000/svg"><path d="M13.347 3.447 C 12.478 3.839,11.206 4.513,11.027 4.678 C 10.859 4.832,10.764 5.182,10.827 5.413 C 10.895 5.667,11.156 5.949,11.415 6.048 C 11.665 6.143,11.755 6.122,12.527 5.786 C 12.884 5.630,13.052 5.578,13.072 5.615 C 13.088 5.645,13.112 5.924,13.126 6.235 C 13.152 6.840,13.201 6.998,13.425 7.206 C 13.592 7.361,13.924 7.438,14.178 7.380 C 14.453 7.319,14.582 7.222,14.732 6.966 C 14.852 6.761,14.863 6.702,14.879 6.132 L 14.897 5.518 15.418 5.766 C 16.217 6.146,16.488 6.186,16.831 5.976 C 17.037 5.851,17.228 5.509,17.231 5.260 C 17.238 4.829,17.036 4.646,15.924 4.073 C 14.190 3.179,14.029 3.140,13.347 3.447 M7.210 6.488 C 6.843 6.630,4.288 7.927,4.113 8.060 C 3.820 8.284,3.812 8.334,3.790 10.220 L 3.770 11.923 3.971 12.151 C 4.199 12.410,4.390 12.507,4.670 12.507 C 4.932 12.507,5.147 12.395,5.368 12.144 L 5.553 11.934 5.554 11.205 C 5.555 10.455,5.576 10.267,5.659 10.267 C 5.685 10.267,5.912 10.393,6.162 10.548 C 6.751 10.912,6.985 10.994,7.215 10.918 C 7.645 10.776,7.956 10.264,7.843 9.885 C 7.770 9.641,7.535 9.389,7.063 9.048 C 6.849 8.893,6.673 8.752,6.673 8.734 C 6.673 8.716,6.991 8.534,7.380 8.329 C 7.769 8.124,8.155 7.893,8.239 7.816 C 8.758 7.333,8.350 6.386,7.627 6.396 C 7.526 6.397,7.338 6.439,7.210 6.488 M19.982 6.472 C 19.648 6.636,19.441 7.109,19.547 7.463 C 19.630 7.743,19.836 7.909,20.586 8.307 C 20.955 8.502,21.263 8.695,21.271 8.735 C 21.280 8.782,21.153 8.901,20.921 9.064 C 20.485 9.370,20.182 9.687,20.139 9.883 C 20.070 10.196,20.331 10.696,20.640 10.842 C 20.953 10.991,21.257 10.920,21.792 10.574 C 22.301 10.245,22.385 10.207,22.419 10.295 C 22.434 10.335,22.447 10.665,22.447 11.029 C 22.447 11.834,22.489 12.005,22.745 12.251 C 23.015 12.512,23.267 12.583,23.567 12.483 C 23.818 12.400,24.100 12.128,24.160 11.913 C 24.180 11.842,24.197 11.048,24.197 10.150 C 24.197 8.270,24.197 8.270,23.814 8.024 C 23.517 7.832,21.092 6.621,20.751 6.493 C 20.433 6.374,20.193 6.368,19.982 6.472 M10.710 10.399 C 10.633 10.446,10.546 10.515,10.517 10.551 C 10.442 10.644,9.820 12.205,9.034 14.270 C 8.305 16.188,8.203 16.486,8.244 16.593 C 8.324 16.801,8.927 16.892,9.220 16.740 C 9.379 16.658,9.564 16.341,9.778 15.785 L 9.908 15.447 10.612 15.447 C 11.000 15.447,11.551 15.461,11.837 15.477 L 12.357 15.507 12.486 15.839 C 12.778 16.594,12.882 16.728,13.235 16.801 C 13.568 16.870,13.846 16.813,13.967 16.651 L 14.060 16.526 13.886 16.021 C 13.666 15.380,12.347 11.860,12.063 11.152 C 11.944 10.858,11.805 10.571,11.753 10.516 C 11.566 10.317,10.957 10.248,10.710 10.399 M15.493 10.352 C 15.187 10.391,15.144 10.415,15.038 10.608 C 14.963 10.745,14.957 10.979,14.957 13.487 C 14.957 14.988,14.972 16.272,14.991 16.339 C 15.040 16.514,15.280 16.731,15.498 16.796 C 15.664 16.846,15.710 16.841,15.891 16.753 C 16.014 16.693,16.140 16.584,16.203 16.482 C 16.306 16.317,16.311 16.262,16.326 15.172 L 16.342 14.034 16.745 14.059 C 17.128 14.083,17.155 14.092,17.272 14.232 C 17.339 14.313,17.631 14.838,17.919 15.400 C 18.240 16.026,18.506 16.484,18.606 16.583 C 18.789 16.766,19.132 16.875,19.366 16.824 C 19.567 16.779,19.787 16.582,19.787 16.446 C 19.787 16.199,18.916 14.433,18.563 13.965 L 18.344 13.673 18.579 13.554 C 18.858 13.412,19.208 13.077,19.295 12.866 C 19.465 12.456,19.415 11.488,19.206 11.130 C 19.001 10.781,18.670 10.543,18.223 10.423 C 17.959 10.352,15.916 10.299,15.493 10.352 M17.778 11.471 C 17.983 11.623,18.017 11.744,18.003 12.261 C 17.990 12.722,17.985 12.743,17.850 12.878 C 17.678 13.050,17.386 13.113,16.770 13.113 L 16.333 13.113 16.333 12.219 L 16.333 11.326 16.996 11.354 C 17.544 11.377,17.679 11.398,17.778 11.471 M11.598 13.285 C 11.796 13.855,11.946 14.353,11.931 14.394 C 11.907 14.456,11.789 14.467,11.131 14.467 C 10.545 14.467,10.360 14.453,10.360 14.408 C 10.360 14.281,10.987 12.450,11.108 12.224 C 11.182 12.085,11.167 12.052,11.598 13.285 M4.235 15.590 C 4.139 15.641,4.002 15.770,3.932 15.876 L 3.803 16.070 3.805 17.788 C 3.808 19.773,3.769 19.605,4.320 19.987 C 4.657 20.221,6.574 21.202,7.195 21.458 C 7.619 21.634,7.698 21.639,7.971 21.507 C 8.332 21.331,8.549 20.868,8.447 20.490 C 8.378 20.232,8.127 20.030,7.376 19.626 C 7.031 19.440,6.741 19.268,6.733 19.243 C 6.725 19.218,6.882 19.080,7.083 18.936 C 7.741 18.465,7.948 18.135,7.839 17.731 C 7.747 17.390,7.330 17.076,6.977 17.082 C 6.801 17.086,6.553 17.202,6.102 17.495 C 5.853 17.656,5.628 17.774,5.602 17.758 C 5.573 17.740,5.553 17.500,5.553 17.159 C 5.553 16.542,5.493 16.066,5.392 15.870 C 5.356 15.801,5.223 15.689,5.096 15.619 C 4.812 15.465,4.492 15.454,4.235 15.590 M22.907 15.623 C 22.529 15.818,22.491 15.928,22.453 16.915 C 22.436 17.362,22.407 17.741,22.390 17.759 C 22.372 17.777,22.194 17.687,21.994 17.559 C 21.305 17.118,21.084 17.041,20.759 17.129 C 20.345 17.240,20.036 17.759,20.153 18.149 C 20.213 18.350,20.535 18.674,20.988 18.990 C 21.149 19.102,21.280 19.208,21.280 19.225 C 21.280 19.242,21.117 19.348,20.918 19.459 C 19.826 20.068,19.701 20.156,19.568 20.411 C 19.335 20.858,19.695 21.505,20.224 21.591 C 20.456 21.629,20.620 21.563,22.112 20.825 C 23.665 20.057,24.044 19.821,24.133 19.569 C 24.182 19.431,24.196 19.016,24.194 17.746 L 24.192 16.102 24.054 15.903 C 23.893 15.671,23.578 15.493,23.329 15.493 C 23.233 15.493,23.047 15.550,22.907 15.623 M13.603 20.248 C 13.376 20.389,13.202 20.604,13.157 20.796 C 13.134 20.896,13.115 21.317,13.114 21.732 L 13.113 22.488 12.565 22.223 C 12.089 21.994,11.973 21.957,11.690 21.942 C 11.407 21.928,11.341 21.940,11.201 22.035 C 10.722 22.360,10.647 23.008,11.051 23.326 C 11.294 23.516,11.937 23.871,12.858 24.322 C 13.642 24.706,13.653 24.710,14.010 24.710 L 14.371 24.710 15.566 24.106 C 16.338 23.716,16.822 23.442,16.935 23.333 C 17.336 22.943,17.278 22.314,16.816 22.043 C 16.638 21.939,16.569 21.925,16.297 21.941 C 16.037 21.957,15.897 22.001,15.476 22.203 C 15.196 22.337,14.952 22.447,14.933 22.447 C 14.914 22.447,14.889 22.074,14.878 21.618 C 14.856 20.738,14.828 20.619,14.599 20.410 C 14.316 20.153,13.872 20.080,13.603 20.248 " fill="#1A1C1F" stroke="none" fill-rule="evenodd"></path></svg>