<svg width="32" height="32" viewBox="0 0 32 32" fill="none" xmlns="http://www.w3.org/2000/svg"><path d="M15.253 3.940 C 14.260 4.387,12.807 5.158,12.602 5.347 C 12.411 5.522,12.302 5.922,12.373 6.186 C 12.451 6.477,12.749 6.799,13.045 6.911 C 13.332 7.021,13.435 6.997,14.316 6.613 C 14.831 6.388,14.911 6.366,14.939 6.444 C 14.957 6.493,14.985 6.816,15.001 7.161 C 15.027 7.706,15.049 7.820,15.167 8.021 C 15.340 8.316,15.603 8.449,16.007 8.446 C 16.392 8.443,16.616 8.314,16.825 7.977 C 16.977 7.731,16.985 7.687,17.005 7.013 L 17.025 6.306 17.629 6.593 C 18.646 7.077,19.014 7.091,19.422 6.664 C 19.736 6.334,19.792 5.766,19.538 5.483 C 19.305 5.224,18.117 4.566,16.867 4.003 C 16.098 3.657,15.899 3.649,15.253 3.940 M8.240 7.415 C 7.821 7.577,4.900 9.059,4.701 9.211 C 4.365 9.467,4.357 9.525,4.331 11.680 L 4.309 13.627 4.539 13.887 C 4.799 14.182,5.017 14.293,5.337 14.293 C 5.637 14.293,5.882 14.166,6.135 13.879 L 6.347 13.638 6.347 12.806 C 6.348 11.924,6.372 11.733,6.479 11.733 C 6.516 11.733,6.735 11.857,6.966 12.008 C 7.198 12.159,7.483 12.327,7.600 12.380 C 7.858 12.498,8.218 12.508,8.421 12.403 C 8.647 12.286,8.895 11.975,8.963 11.723 C 9.086 11.267,8.841 10.885,8.091 10.359 C 7.825 10.173,7.680 10.037,7.691 9.983 C 7.700 9.937,8.051 9.717,8.473 9.493 C 8.894 9.270,9.319 9.011,9.417 8.918 C 10.004 8.359,9.542 7.299,8.716 7.309 C 8.601 7.311,8.387 7.359,8.240 7.415 M22.836 7.396 C 22.455 7.584,22.218 8.125,22.339 8.530 C 22.435 8.849,22.670 9.039,23.527 9.493 C 23.949 9.717,24.300 9.937,24.309 9.983 C 24.320 10.037,24.175 10.173,23.909 10.359 C 23.378 10.732,23.058 11.078,23.010 11.331 C 22.961 11.594,23.107 11.960,23.364 12.217 C 23.741 12.594,24.149 12.559,24.907 12.084 C 25.556 11.678,25.583 11.666,25.621 11.765 C 25.639 11.811,25.653 12.189,25.654 12.604 C 25.654 13.524,25.702 13.720,25.994 14.001 C 26.303 14.299,26.591 14.380,26.933 14.267 C 27.220 14.171,27.543 13.861,27.612 13.615 C 27.635 13.533,27.653 12.627,27.653 11.600 C 27.653 9.451,27.653 9.451,27.216 9.170 C 26.877 8.951,24.105 7.567,23.715 7.421 C 23.352 7.285,23.078 7.277,22.836 7.396 M12.347 11.825 C 12.160 11.871,12.042 12.016,11.837 12.453 C 11.541 13.084,9.509 18.409,9.420 18.786 C 9.328 19.171,10.089 19.381,10.571 19.103 C 10.731 19.010,10.948 18.630,11.175 18.040 L 11.324 17.653 12.128 17.654 C 12.571 17.654,13.201 17.669,13.528 17.688 L 14.123 17.722 14.291 18.155 C 14.620 18.997,14.787 19.175,15.301 19.236 C 15.588 19.270,15.912 19.152,16.004 18.979 C 16.075 18.847,16.067 18.820,15.371 16.933 C 14.272 13.955,13.555 12.144,13.423 12.013 C 13.237 11.826,12.715 11.735,12.347 11.825 M17.733 11.831 C 17.356 11.874,17.309 11.899,17.187 12.123 C 17.104 12.277,17.093 12.552,17.075 14.907 C 17.065 16.344,17.073 17.793,17.094 18.126 C 17.130 18.718,17.136 18.737,17.312 18.932 C 17.562 19.209,17.885 19.300,18.159 19.170 C 18.267 19.119,18.420 18.980,18.498 18.862 L 18.640 18.648 18.658 17.343 L 18.677 16.039 19.138 16.068 C 19.574 16.095,19.606 16.105,19.739 16.265 C 19.817 16.357,20.149 16.958,20.479 17.600 C 20.846 18.315,21.149 18.838,21.263 18.952 C 21.473 19.162,21.865 19.286,22.132 19.227 C 22.362 19.176,22.613 18.951,22.613 18.796 C 22.613 18.513,21.618 16.495,21.215 15.960 L 20.964 15.626 21.233 15.490 C 21.551 15.329,21.913 14.982,22.037 14.720 C 22.249 14.269,22.199 13.146,21.948 12.717 C 21.703 12.300,21.280 12.011,20.747 11.898 C 20.410 11.826,18.208 11.777,17.733 11.831 M20.317 13.109 C 20.552 13.283,20.591 13.422,20.575 14.010 C 20.561 14.527,20.552 14.561,20.406 14.714 C 20.212 14.916,19.900 14.987,19.197 14.987 L 18.667 14.987 18.667 13.965 L 18.667 12.944 19.424 12.976 C 20.050 13.003,20.205 13.026,20.317 13.109 M13.226 15.093 C 13.438 15.695,13.615 16.259,13.619 16.347 L 13.627 16.507 12.733 16.521 C 12.037 16.533,11.840 16.521,11.840 16.468 C 11.841 16.316,12.525 14.308,12.680 14.004 C 12.740 13.886,12.769 13.867,12.800 13.924 C 12.822 13.966,13.014 14.492,13.226 15.093 M4.817 17.841 C 4.695 17.915,4.539 18.064,4.471 18.174 L 4.347 18.373 4.349 20.333 C 4.352 22.597,4.307 22.405,4.938 22.843 C 5.335 23.119,7.675 24.311,8.302 24.557 C 8.818 24.759,8.998 24.725,9.368 24.355 C 9.698 24.025,9.776 23.735,9.629 23.383 C 9.477 23.021,9.395 22.961,8.040 22.219 C 7.842 22.110,7.680 22.002,7.680 21.977 C 7.680 21.953,7.854 21.812,8.067 21.664 C 8.765 21.177,8.974 20.913,8.980 20.507 C 8.989 19.867,8.269 19.356,7.682 19.587 C 7.570 19.631,7.249 19.816,6.968 19.998 C 6.687 20.180,6.432 20.313,6.402 20.294 C 6.369 20.274,6.347 19.992,6.346 19.584 C 6.346 18.864,6.289 18.385,6.176 18.146 C 6.134 18.057,5.995 17.943,5.817 17.853 C 5.441 17.663,5.122 17.659,4.817 17.841 M26.186 17.829 C 26.059 17.896,25.910 18.011,25.855 18.085 C 25.722 18.263,25.656 18.759,25.654 19.584 C 25.654 19.956,25.633 20.273,25.609 20.288 C 25.584 20.303,25.302 20.160,24.983 19.970 C 24.663 19.780,24.309 19.599,24.196 19.569 C 23.704 19.436,23.216 19.738,23.041 20.283 C 22.899 20.727,23.126 21.084,23.906 21.642 C 24.134 21.805,24.320 21.954,24.320 21.973 C 24.320 21.992,24.134 22.111,23.907 22.238 C 22.658 22.935,22.516 23.035,22.364 23.327 C 22.097 23.838,22.508 24.578,23.113 24.676 C 23.379 24.719,23.566 24.643,25.271 23.800 C 27.046 22.922,27.479 22.653,27.581 22.365 C 27.637 22.207,27.653 21.729,27.653 20.293 C 27.653 18.631,27.643 18.408,27.562 18.260 C 27.292 17.767,26.670 17.573,26.186 17.829 M15.547 23.140 C 15.295 23.297,15.108 23.528,15.045 23.760 C 15.013 23.877,14.987 24.362,14.987 24.837 L 14.987 25.700 14.360 25.398 C 13.816 25.136,13.684 25.093,13.360 25.077 C 13.037 25.060,12.962 25.075,12.801 25.183 C 12.414 25.446,12.233 25.943,12.382 26.335 C 12.495 26.631,12.841 26.859,14.282 27.586 L 15.577 28.240 16.000 28.240 L 16.423 28.240 17.786 27.553 C 18.682 27.101,19.218 26.798,19.351 26.669 C 19.615 26.413,19.714 26.085,19.627 25.760 C 19.495 25.272,19.212 25.067,18.669 25.067 C 18.390 25.067,18.261 25.106,17.722 25.358 C 17.378 25.517,17.086 25.637,17.071 25.622 C 17.057 25.608,17.029 25.182,17.009 24.675 C 16.971 23.703,16.935 23.554,16.685 23.326 C 16.361 23.032,15.854 22.949,15.547 23.140 " fill="#1A1C1F" stroke="none" fill-rule="evenodd"></path></svg>