<svg width="20" height="20" viewBox="0 0 20 20" fill="none" xmlns="http://www.w3.org/2000/svg"><path d="M9.767 2.664 C 9.618 2.712,8.357 3.301,8.101 3.442 C 7.964 3.518,7.774 3.655,7.679 3.748 C 7.533 3.891,7.501 3.945,7.468 4.106 C 7.421 4.335,7.446 4.497,7.561 4.712 C 7.731 5.030,8.032 5.196,8.366 5.156 C 8.567 5.132,8.833 5.028,9.492 4.714 L 10.000 4.471 10.545 4.732 C 10.844 4.875,11.182 5.026,11.295 5.068 C 11.909 5.291,12.507 4.896,12.507 4.266 C 12.507 4.043,12.406 3.805,12.257 3.681 C 12.133 3.576,10.807 2.912,10.446 2.774 C 10.159 2.665,9.897 2.622,9.767 2.664 M14.100 4.750 C 13.898 4.814,13.735 4.957,13.616 5.171 C 13.532 5.322,13.517 5.386,13.518 5.583 C 13.519 6.040,13.676 6.199,14.533 6.621 L 15.124 6.912 15.141 7.831 C 15.159 8.854,15.169 8.907,15.379 9.092 C 15.590 9.277,15.759 9.347,16.000 9.348 C 16.330 9.351,16.619 9.178,16.778 8.883 C 16.848 8.753,16.850 8.719,16.850 7.417 C 16.850 6.099,16.849 6.082,16.775 5.944 C 16.656 5.721,16.469 5.604,15.533 5.166 C 14.578 4.718,14.380 4.661,14.100 4.750 M4.900 4.962 C 4.259 5.261,3.599 5.598,3.441 5.706 C 3.363 5.760,3.266 5.866,3.225 5.943 C 3.151 6.082,3.150 6.098,3.152 7.386 C 3.154 8.863,3.158 8.894,3.406 9.118 C 3.595 9.289,3.723 9.333,4.026 9.333 C 4.257 9.333,4.304 9.322,4.435 9.238 C 4.632 9.111,4.760 8.970,4.805 8.831 C 4.826 8.765,4.848 8.333,4.858 7.813 L 4.874 6.909 5.362 6.674 C 6.044 6.345,6.238 6.214,6.335 6.013 C 6.542 5.585,6.405 5.085,6.018 4.864 C 5.871 4.779,5.817 4.767,5.583 4.767 C 5.328 4.767,5.299 4.776,4.900 4.962 M7.550 7.430 C 7.419 7.489,7.298 7.658,7.181 7.949 C 6.917 8.603,5.984 11.081,5.828 11.544 C 5.669 12.014,5.663 12.041,5.718 12.101 C 5.849 12.246,6.258 12.273,6.447 12.149 C 6.535 12.091,6.702 11.773,6.818 11.442 L 6.880 11.267 7.800 11.267 L 8.720 11.267 8.865 11.620 C 9.033 12.030,9.123 12.152,9.294 12.199 C 9.450 12.242,9.704 12.243,9.815 12.201 C 9.978 12.139,9.985 12.047,9.856 11.663 C 9.553 10.761,8.565 8.137,8.384 7.755 C 8.270 7.514,8.144 7.435,7.843 7.415 C 7.719 7.407,7.587 7.413,7.550 7.430 M10.983 7.431 C 10.928 7.444,10.851 7.473,10.811 7.494 C 10.655 7.578,10.650 7.647,10.650 9.839 C 10.650 11.862,10.651 11.897,10.719 11.989 C 10.756 12.041,10.854 12.118,10.935 12.160 C 11.195 12.296,11.441 12.215,11.581 11.948 C 11.644 11.827,11.651 11.750,11.660 10.992 L 11.670 10.167 11.827 10.168 C 12.124 10.171,12.276 10.219,12.383 10.343 C 12.438 10.407,12.662 10.805,12.880 11.228 C 13.099 11.651,13.316 12.034,13.364 12.078 C 13.584 12.282,14.057 12.281,14.190 12.077 C 14.244 11.995,14.243 11.981,14.170 11.772 C 14.069 11.483,13.645 10.600,13.491 10.360 C 13.425 10.256,13.318 10.113,13.254 10.042 L 13.139 9.914 13.320 9.820 C 13.565 9.691,13.756 9.498,13.861 9.272 C 13.936 9.110,13.949 9.038,13.949 8.767 C 13.950 8.390,13.881 8.134,13.725 7.930 C 13.464 7.591,13.194 7.474,12.567 7.431 C 12.071 7.397,11.124 7.397,10.983 7.431 M12.726 8.246 C 12.880 8.326,12.917 8.438,12.916 8.830 C 12.915 9.057,12.899 9.211,12.871 9.261 C 12.797 9.395,12.623 9.441,12.125 9.459 L 11.667 9.476 11.667 8.816 L 11.667 8.156 12.150 8.177 C 12.469 8.191,12.664 8.214,12.726 8.246 M8.017 9.225 C 8.247 9.845,8.433 10.395,8.433 10.451 C 8.433 10.492,8.338 10.500,7.833 10.500 C 7.350 10.500,7.233 10.491,7.233 10.455 C 7.233 10.332,7.788 8.800,7.833 8.800 C 7.848 8.800,7.931 8.991,8.017 9.225 M3.721 10.680 C 3.540 10.748,3.367 10.896,3.250 11.084 L 3.150 11.245 3.151 12.547 C 3.153 14.041,3.148 14.013,3.450 14.243 C 3.663 14.404,5.000 15.068,5.346 15.184 C 5.583 15.263,5.625 15.267,5.770 15.233 C 6.181 15.134,6.467 14.796,6.467 14.410 C 6.467 13.931,6.333 13.787,5.492 13.364 L 4.875 13.053 4.857 12.168 C 4.848 11.678,4.824 11.231,4.804 11.165 C 4.700 10.829,4.075 10.549,3.721 10.680 M15.833 10.665 C 15.686 10.694,15.586 10.746,15.413 10.886 C 15.166 11.086,15.156 11.131,15.140 12.153 L 15.125 13.055 14.606 13.314 C 13.859 13.687,13.760 13.756,13.649 13.983 C 13.319 14.657,13.934 15.392,14.653 15.184 C 15.042 15.072,16.413 14.371,16.648 14.164 C 16.838 13.997,16.850 13.898,16.850 12.500 L 16.850 11.250 16.758 11.093 C 16.571 10.776,16.183 10.596,15.833 10.665 M8.079 14.836 C 7.897 14.889,7.656 15.076,7.551 15.247 C 7.460 15.394,7.450 15.439,7.450 15.681 C 7.450 16.026,7.512 16.157,7.763 16.337 C 7.966 16.483,9.302 17.154,9.653 17.286 C 10.054 17.436,10.136 17.414,11.322 16.829 C 12.226 16.384,12.423 16.243,12.514 15.977 C 12.700 15.429,12.317 14.831,11.781 14.834 C 11.509 14.835,11.354 14.888,10.662 15.216 L 10.000 15.529 9.372 15.234 C 8.778 14.955,8.360 14.796,8.238 14.803 C 8.208 14.805,8.136 14.820,8.079 14.836 " fill="#1A1C1F" stroke="none" fill-rule="evenodd"></path></svg>