<svg width="16" height="16" viewBox="0 0 16 16" fill="none" xmlns="http://www.w3.org/2000/svg"><path d="M7.693 2.184 C 7.332 2.332,6.488 2.739,6.340 2.837 C 6.114 2.986,6.010 3.115,5.974 3.289 C 5.885 3.716,6.206 4.133,6.624 4.133 C 6.767 4.133,6.994 4.049,7.528 3.800 L 8.002 3.578 8.356 3.747 C 9.023 4.066,9.162 4.115,9.359 4.100 C 9.575 4.085,9.725 4.011,9.849 3.860 C 9.971 3.711,10.000 3.631,10.000 3.442 C 10.000 3.163,9.922 3.020,9.687 2.863 C 9.495 2.736,8.495 2.263,8.229 2.173 C 7.979 2.089,7.923 2.091,7.693 2.184 M11.266 3.802 C 11.020 3.890,10.833 4.145,10.807 4.425 C 10.796 4.553,10.805 4.606,10.859 4.724 C 10.895 4.802,10.962 4.905,11.008 4.951 C 11.057 4.999,11.306 5.139,11.596 5.282 L 12.100 5.528 12.113 6.264 C 12.121 6.691,12.138 7.030,12.155 7.070 C 12.198 7.179,12.341 7.328,12.477 7.408 C 12.641 7.504,12.908 7.507,13.101 7.415 C 13.258 7.339,13.432 7.146,13.459 7.017 C 13.471 6.964,13.480 6.464,13.480 5.907 C 13.480 4.575,13.529 4.681,12.727 4.282 C 11.974 3.908,11.599 3.758,11.427 3.763 C 11.397 3.764,11.325 3.781,11.266 3.802 M3.920 3.969 C 3.407 4.209,2.879 4.478,2.753 4.565 C 2.691 4.608,2.613 4.693,2.580 4.755 C 2.521 4.866,2.520 4.877,2.523 5.920 C 2.526 7.076,2.525 7.071,2.691 7.260 C 2.818 7.404,2.978 7.471,3.195 7.471 C 3.409 7.471,3.528 7.428,3.674 7.295 C 3.868 7.120,3.874 7.092,3.888 6.264 L 3.900 5.528 4.347 5.311 C 4.862 5.061,5.037 4.927,5.104 4.728 C 5.219 4.391,5.095 4.043,4.803 3.884 C 4.693 3.824,4.640 3.813,4.463 3.814 C 4.263 3.814,4.237 3.821,3.920 3.969 M6.006 5.971 C 5.870 6.035,5.870 6.035,5.501 6.987 C 4.838 8.701,4.523 9.579,4.546 9.653 C 4.586 9.778,4.971 9.821,5.142 9.719 C 5.234 9.665,5.352 9.451,5.456 9.150 C 5.491 9.051,5.525 9.000,5.568 8.984 C 5.602 8.971,5.928 8.960,6.292 8.960 L 6.954 8.960 7.064 9.233 C 7.254 9.705,7.307 9.759,7.596 9.780 C 7.840 9.798,7.947 9.746,7.947 9.612 C 7.947 9.560,7.892 9.356,7.825 9.159 C 7.607 8.517,6.756 6.273,6.682 6.148 C 6.595 6.000,6.492 5.943,6.281 5.929 C 6.158 5.920,6.093 5.931,6.006 5.971 M8.782 5.939 C 8.673 5.953,8.567 6.060,8.541 6.183 C 8.529 6.236,8.520 6.994,8.520 7.867 C 8.520 9.400,8.522 9.457,8.573 9.560 C 8.677 9.768,8.957 9.842,9.142 9.710 C 9.305 9.594,9.319 9.523,9.328 8.789 L 9.336 8.126 9.548 8.142 C 9.665 8.151,9.784 8.171,9.812 8.186 C 9.903 8.234,9.986 8.370,10.306 8.987 C 10.477 9.317,10.647 9.618,10.683 9.656 C 10.841 9.822,11.244 9.827,11.351 9.663 C 11.392 9.601,11.392 9.586,11.352 9.458 C 11.295 9.280,10.942 8.532,10.818 8.328 C 10.765 8.241,10.675 8.116,10.617 8.051 L 10.512 7.931 10.650 7.859 C 10.855 7.751,10.980 7.638,11.061 7.484 C 11.129 7.355,11.133 7.326,11.133 7.000 C 11.133 6.722,11.123 6.627,11.082 6.521 C 11.008 6.329,10.836 6.158,10.613 6.055 C 10.447 5.979,10.384 5.966,10.086 5.945 C 9.751 5.922,8.946 5.919,8.782 5.939 M10.170 6.590 C 10.291 6.645,10.330 6.738,10.341 7.000 C 10.361 7.483,10.290 7.546,9.703 7.567 L 9.333 7.581 9.333 7.053 L 9.333 6.525 9.717 6.542 C 9.928 6.551,10.131 6.572,10.170 6.590 M6.414 7.380 C 6.597 7.876,6.747 8.316,6.747 8.361 C 6.747 8.394,6.671 8.400,6.267 8.400 C 5.877 8.400,5.787 8.393,5.787 8.363 C 5.787 8.306,6.082 7.451,6.227 7.087 C 6.237 7.061,6.255 7.040,6.267 7.040 C 6.278 7.040,6.345 7.193,6.414 7.380 M3.017 8.533 C 2.884 8.565,2.718 8.691,2.623 8.833 C 2.545 8.949,2.537 8.980,2.519 9.272 C 2.508 9.445,2.507 9.928,2.517 10.346 C 2.537 11.213,2.540 11.228,2.757 11.391 C 3.010 11.580,4.074 12.098,4.368 12.174 C 4.501 12.209,4.535 12.209,4.653 12.175 C 5.039 12.062,5.242 11.705,5.146 11.305 C 5.092 11.081,4.971 10.981,4.394 10.691 L 3.900 10.443 3.888 9.721 C 3.873 8.916,3.865 8.875,3.693 8.724 C 3.513 8.566,3.224 8.484,3.017 8.533 M12.653 8.530 C 12.468 8.578,12.244 8.750,12.172 8.899 C 12.129 8.987,12.122 9.093,12.112 9.722 L 12.100 10.445 11.699 10.642 C 11.478 10.751,11.228 10.886,11.143 10.941 C 10.504 11.362,10.979 12.363,11.717 12.149 C 12.025 12.059,13.113 11.506,13.306 11.341 C 13.472 11.199,13.480 11.137,13.480 10.000 L 13.480 9.000 13.406 8.874 C 13.254 8.615,12.918 8.462,12.653 8.530 M6.455 11.871 C 6.249 11.930,6.040 12.130,5.974 12.329 C 5.931 12.463,5.950 12.732,6.012 12.861 C 6.084 13.010,6.286 13.141,6.959 13.472 C 7.889 13.930,7.959 13.948,8.286 13.826 C 8.639 13.693,9.768 13.112,9.869 13.011 C 10.261 12.619,9.968 11.865,9.425 11.867 C 9.205 11.868,9.075 11.913,8.528 12.173 L 8.003 12.422 7.526 12.199 C 7.051 11.977,6.688 11.838,6.595 11.842 C 6.569 11.844,6.506 11.857,6.455 11.871 " fill="#1A1C1F" stroke="none" fill-rule="evenodd"></path></svg>