<svg width="12" height="12" viewBox="0 0 12 12" fill="none" xmlns="http://www.w3.org/2000/svg"><path d="M5.770 1.637 C 5.480 1.758,4.863 2.056,4.755 2.128 C 4.586 2.240,4.508 2.336,4.481 2.467 C 4.409 2.811,4.686 3.133,5.019 3.094 C 5.140 3.079,5.300 3.017,5.695 2.828 L 6.000 2.683 6.325 2.839 C 6.781 3.057,6.871 3.088,7.026 3.075 C 7.095 3.070,7.180 3.051,7.214 3.033 C 7.540 2.865,7.605 2.463,7.348 2.211 C 7.296 2.161,7.154 2.079,6.930 1.970 C 6.091 1.563,6.006 1.539,5.770 1.637 M8.460 2.850 C 8.189 2.936,8.037 3.254,8.139 3.523 C 8.200 3.686,8.288 3.754,8.708 3.964 L 9.075 4.147 9.084 4.698 C 9.095 5.312,9.101 5.344,9.228 5.455 C 9.479 5.676,9.791 5.663,10.002 5.423 C 10.055 5.363,10.083 5.309,10.094 5.243 C 10.103 5.192,10.110 4.821,10.110 4.420 C 10.110 3.762,10.106 3.681,10.074 3.596 C 10.016 3.447,9.904 3.373,9.320 3.099 C 8.747 2.831,8.628 2.796,8.460 2.850 M2.900 2.997 C 2.442 3.211,2.096 3.395,2.023 3.463 C 1.897 3.581,1.891 3.613,1.884 4.200 C 1.881 4.492,1.886 4.863,1.896 5.026 C 1.914 5.312,1.916 5.324,1.974 5.396 C 2.007 5.437,2.072 5.497,2.119 5.530 C 2.194 5.584,2.222 5.591,2.379 5.597 C 2.515 5.602,2.569 5.596,2.620 5.570 C 2.726 5.515,2.858 5.381,2.882 5.303 C 2.895 5.260,2.909 5.006,2.915 4.689 L 2.924 4.147 3.280 3.973 C 3.677 3.779,3.775 3.704,3.827 3.549 C 3.914 3.293,3.822 3.033,3.602 2.913 C 3.520 2.868,3.480 2.860,3.347 2.861 C 3.195 2.861,3.180 2.866,2.900 2.997 M4.532 4.470 C 4.428 4.507,4.412 4.526,4.339 4.700 C 4.097 5.283,3.452 7.011,3.412 7.184 C 3.387 7.291,3.539 7.360,3.736 7.330 C 3.879 7.309,3.956 7.218,4.060 6.945 L 4.146 6.720 4.681 6.720 L 5.216 6.720 5.298 6.925 C 5.440 7.279,5.480 7.320,5.697 7.335 C 5.847 7.346,5.947 7.311,5.970 7.241 C 5.985 7.193,5.919 6.994,5.590 6.100 C 5.205 5.051,5.024 4.607,4.956 4.540 C 4.860 4.443,4.686 4.415,4.532 4.470 M6.590 4.459 C 6.557 4.467,6.510 4.484,6.487 4.496 C 6.393 4.547,6.390 4.588,6.390 5.904 C 6.390 7.117,6.391 7.138,6.431 7.194 C 6.454 7.225,6.512 7.271,6.561 7.296 C 6.717 7.377,6.865 7.329,6.949 7.169 C 6.987 7.096,6.990 7.050,6.996 6.595 L 7.002 6.100 7.096 6.101 C 7.274 6.103,7.365 6.131,7.430 6.206 C 7.463 6.244,7.597 6.483,7.728 6.737 C 7.859 6.991,7.990 7.220,8.018 7.247 C 8.150 7.369,8.434 7.369,8.514 7.246 C 8.546 7.197,8.546 7.188,8.502 7.063 C 8.442 6.890,8.187 6.360,8.095 6.216 C 8.055 6.154,7.991 6.068,7.953 6.025 L 7.883 5.949 7.996 5.889 C 8.260 5.752,8.361 5.574,8.362 5.249 C 8.363 4.871,8.252 4.678,7.955 4.539 C 7.837 4.484,7.789 4.474,7.565 4.459 C 7.263 4.438,6.675 4.438,6.590 4.459 M7.627 4.942 C 7.719 4.984,7.747 5.053,7.756 5.250 C 7.771 5.612,7.718 5.660,7.278 5.676 L 7.000 5.686 7.000 5.290 L 7.000 4.894 7.288 4.906 C 7.446 4.913,7.599 4.929,7.627 4.942 M4.810 5.535 C 4.948 5.907,5.060 6.237,5.060 6.271 C 5.060 6.295,5.003 6.300,4.700 6.300 C 4.408 6.300,4.340 6.295,4.340 6.272 C 4.340 6.230,4.561 5.588,4.670 5.315 C 4.678 5.296,4.691 5.280,4.700 5.280 C 4.709 5.280,4.758 5.395,4.810 5.535 M2.233 6.408 C 2.124 6.449,2.020 6.537,1.950 6.650 L 1.890 6.747 1.891 7.528 C 1.892 8.425,1.889 8.408,2.070 8.546 C 2.203 8.646,3.006 9.044,3.216 9.113 C 3.381 9.167,3.382 9.167,3.490 9.133 C 3.793 9.037,3.945 8.753,3.855 8.452 C 3.813 8.309,3.701 8.223,3.295 8.018 L 2.925 7.832 2.914 7.301 C 2.909 7.007,2.894 6.738,2.882 6.699 C 2.820 6.497,2.445 6.329,2.233 6.408 M9.496 6.399 C 9.396 6.418,9.247 6.513,9.175 6.603 C 9.098 6.699,9.082 6.833,9.081 7.400 L 9.080 7.831 8.766 7.987 C 8.315 8.212,8.256 8.253,8.189 8.390 C 7.991 8.795,8.359 9.236,8.792 9.110 C 9.032 9.041,9.874 8.610,9.995 8.494 C 10.031 8.459,10.072 8.395,10.085 8.351 C 10.119 8.235,10.119 6.822,10.084 6.707 C 10.025 6.508,9.728 6.353,9.496 6.399 M4.847 8.902 C 4.738 8.933,4.594 9.046,4.531 9.148 C 4.476 9.237,4.470 9.264,4.470 9.408 C 4.470 9.712,4.526 9.763,5.250 10.119 C 5.814 10.396,5.905 10.429,6.051 10.414 C 6.170 10.402,6.560 10.227,7.076 9.955 C 7.401 9.784,7.454 9.738,7.510 9.581 C 7.622 9.263,7.386 8.899,7.069 8.900 C 6.904 8.901,6.806 8.935,6.395 9.130 L 6.000 9.318 5.624 9.141 C 5.267 8.973,5.016 8.878,4.943 8.882 C 4.925 8.883,4.882 8.892,4.847 8.902 " fill="#1A1C1F" stroke="none" fill-rule="evenodd"></path></svg>