<svg width="24" height="24" viewBox="0 0 24 24" fill="none" xmlns="http://www.w3.org/2000/svg"><path d="M11.800 2.038 C 11.507 2.098,9.671 3.035,9.348 3.290 C 8.937 3.614,8.909 4.213,9.285 4.621 C 9.633 4.998,10.004 5.056,10.540 4.816 C 10.716 4.737,10.889 4.664,10.925 4.653 C 10.984 4.635,10.992 4.717,11.008 5.447 C 11.021 6.057,11.041 6.295,11.087 6.400 C 11.161 6.570,11.436 6.826,11.634 6.908 C 11.842 6.995,12.236 6.984,12.426 6.886 C 12.616 6.788,12.859 6.540,12.923 6.380 C 12.950 6.309,12.978 5.928,12.990 5.447 C 13.009 4.723,13.018 4.636,13.075 4.653 C 13.111 4.664,13.293 4.742,13.480 4.825 C 14.062 5.086,14.459 5.019,14.792 4.604 C 14.990 4.358,15.053 4.177,15.027 3.930 C 14.977 3.443,14.783 3.279,13.480 2.625 C 12.367 2.066,12.108 1.975,11.800 2.038 M6.255 4.764 C 6.062 4.809,3.537 6.067,3.347 6.212 C 3.276 6.266,3.167 6.404,3.104 6.519 L 2.991 6.728 3.008 8.254 C 3.027 9.955,3.017 9.897,3.317 10.197 C 3.514 10.394,3.814 10.498,4.101 10.468 C 4.354 10.442,4.491 10.376,4.690 10.182 C 4.951 9.929,4.973 9.851,4.992 9.150 C 5.002 8.803,5.024 8.520,5.042 8.520 C 5.059 8.520,5.197 8.582,5.347 8.658 C 5.859 8.917,6.115 8.919,6.449 8.668 C 6.654 8.513,6.800 8.244,6.800 8.019 C 6.800 7.768,6.626 7.460,6.374 7.265 C 6.257 7.174,6.160 7.080,6.160 7.055 C 6.160 7.030,6.290 6.942,6.450 6.858 C 7.163 6.486,7.377 6.293,7.476 5.936 C 7.540 5.706,7.528 5.522,7.437 5.320 C 7.331 5.087,7.223 4.974,6.995 4.858 C 6.777 4.747,6.484 4.710,6.255 4.764 M16.941 4.886 C 16.826 4.964,16.691 5.103,16.621 5.217 C 16.516 5.388,16.500 5.450,16.501 5.697 C 16.503 6.187,16.650 6.368,17.360 6.759 C 17.569 6.874,17.767 6.995,17.800 7.028 C 17.853 7.081,17.847 7.097,17.740 7.174 C 17.674 7.221,17.537 7.341,17.435 7.440 C 17.229 7.642,17.171 7.842,17.223 8.186 C 17.277 8.549,17.657 8.837,18.082 8.839 C 18.267 8.840,18.361 8.810,18.652 8.661 L 19.000 8.482 19.000 9.031 C 19.000 9.641,19.037 9.830,19.198 10.049 C 19.457 10.402,19.751 10.522,20.207 10.459 C 20.383 10.435,20.447 10.400,20.624 10.233 C 20.983 9.893,20.975 9.932,20.993 8.388 C 21.011 6.857,20.997 6.674,20.853 6.451 C 20.710 6.231,20.548 6.134,19.121 5.413 L 17.869 4.780 17.504 4.766 C 17.147 4.753,17.135 4.756,16.941 4.886 M9.014 8.677 C 8.775 8.780,8.679 8.998,7.426 12.285 C 6.723 14.128,6.666 14.299,6.720 14.400 C 6.830 14.606,7.280 14.679,7.575 14.540 C 7.756 14.454,7.905 14.212,8.085 13.710 L 8.211 13.360 8.895 13.360 C 9.272 13.360,9.782 13.372,10.028 13.386 L 10.476 13.412 10.565 13.636 C 10.613 13.759,10.721 13.997,10.804 14.164 C 10.982 14.523,11.111 14.608,11.474 14.607 C 11.734 14.607,11.869 14.563,11.974 14.447 C 12.046 14.367,12.043 14.352,11.841 13.755 C 11.598 13.037,10.389 9.880,10.133 9.296 C 10.036 9.074,9.904 8.841,9.839 8.779 C 9.735 8.679,9.688 8.665,9.411 8.654 C 9.240 8.646,9.061 8.657,9.014 8.677 M13.300 8.664 C 13.076 8.721,12.987 8.782,12.929 8.917 C 12.878 9.037,12.865 9.377,12.850 11.020 C 12.831 13.198,12.867 14.174,12.974 14.337 C 13.080 14.498,13.342 14.612,13.552 14.589 C 13.759 14.565,13.908 14.466,14.020 14.276 C 14.093 14.151,14.101 14.054,14.113 13.084 L 14.127 12.029 14.425 12.052 C 14.953 12.091,14.940 12.078,15.549 13.261 C 15.842 13.830,16.113 14.330,16.151 14.372 C 16.264 14.497,16.428 14.562,16.693 14.587 C 16.975 14.613,17.153 14.550,17.261 14.384 C 17.317 14.298,17.316 14.271,17.238 14.064 C 17.192 13.940,16.965 13.461,16.734 13.000 C 16.426 12.383,16.263 12.104,16.119 11.947 L 15.924 11.733 16.167 11.617 C 16.618 11.401,16.827 11.120,16.921 10.600 C 17.043 9.929,16.797 9.265,16.308 8.940 C 15.973 8.718,15.706 8.677,14.460 8.659 C 13.866 8.651,13.344 8.653,13.300 8.664 M15.377 9.674 C 15.626 9.785,15.691 9.948,15.674 10.421 C 15.663 10.724,15.644 10.816,15.576 10.907 C 15.408 11.132,15.279 11.173,14.674 11.193 L 14.120 11.210 14.120 10.379 L 14.120 9.548 14.664 9.574 C 15.064 9.593,15.253 9.620,15.377 9.674 M9.513 10.630 C 9.796 11.365,10.122 12.337,10.103 12.386 C 10.074 12.462,8.582 12.466,8.609 12.390 C 9.015 11.222,9.345 10.320,9.366 10.320 C 9.382 10.320,9.448 10.460,9.513 10.630 M3.725 13.558 C 3.509 13.612,3.270 13.806,3.130 14.040 L 3.000 14.256 3.000 15.730 C 3.000 17.134,3.004 17.211,3.082 17.363 C 3.244 17.681,3.420 17.798,4.708 18.447 C 6.361 19.279,6.537 19.334,6.943 19.145 C 7.188 19.030,7.367 18.823,7.455 18.553 C 7.532 18.315,7.535 18.216,7.476 17.980 C 7.405 17.698,7.221 17.526,6.664 17.218 C 6.387 17.065,6.160 16.929,6.160 16.916 C 6.160 16.903,6.265 16.811,6.394 16.711 C 6.703 16.471,6.820 16.241,6.788 15.935 C 6.776 15.815,6.732 15.659,6.691 15.589 C 6.578 15.396,6.311 15.213,6.062 15.157 L 5.842 15.108 5.421 15.312 L 5.000 15.517 5.000 14.987 C 5.000 14.389,4.947 14.123,4.788 13.914 C 4.570 13.629,4.086 13.466,3.725 13.558 M19.705 13.561 C 19.411 13.649,19.106 13.972,19.037 14.267 C 19.018 14.351,19.001 14.659,19.001 14.950 C 19.000 15.248,18.984 15.480,18.963 15.480 C 18.943 15.480,18.776 15.407,18.593 15.317 C 18.288 15.168,18.239 15.155,18.014 15.172 C 17.701 15.195,17.464 15.324,17.336 15.543 C 17.076 15.986,17.229 16.509,17.704 16.802 C 17.779 16.849,17.840 16.901,17.840 16.918 C 17.840 16.936,17.710 17.018,17.550 17.101 C 16.807 17.488,16.574 17.703,16.478 18.086 C 16.441 18.239,16.444 18.312,16.495 18.489 C 16.626 18.939,16.956 19.208,17.447 19.264 L 17.673 19.290 18.727 18.749 C 20.605 17.785,20.746 17.696,20.923 17.352 C 20.995 17.213,21.000 17.103,21.000 15.740 C 21.000 14.346,20.996 14.269,20.918 14.117 C 20.686 13.661,20.166 13.423,19.705 13.561 M11.580 17.104 C 11.416 17.193,11.167 17.435,11.090 17.580 C 11.040 17.674,11.022 17.869,11.009 18.480 C 10.999 18.909,10.978 19.274,10.962 19.292 C 10.945 19.310,10.777 19.260,10.588 19.182 C 10.227 19.033,9.980 19.005,9.665 19.078 C 9.500 19.116,9.198 19.376,9.099 19.564 C 9.019 19.715,8.988 20.034,9.033 20.232 C 9.127 20.642,9.294 20.766,10.715 21.474 C 11.708 21.969,11.736 21.980,11.995 21.980 C 12.247 21.980,12.296 21.962,12.940 21.647 C 13.921 21.167,14.601 20.785,14.748 20.633 C 14.917 20.458,15.000 20.249,15.000 20.000 C 15.000 19.743,14.916 19.541,14.728 19.347 C 14.357 18.962,13.977 18.929,13.331 19.223 C 13.166 19.298,13.025 19.360,13.019 19.360 C 13.013 19.360,13.000 19.005,12.989 18.570 C 12.977 18.072,12.951 17.724,12.918 17.629 C 12.854 17.443,12.661 17.239,12.455 17.138 C 12.242 17.035,11.744 17.015,11.580 17.104 " fill="#1A1C1F" stroke="none" fill-rule="evenodd"></path></svg>