<svg width="28" height="28" viewBox="0 0 28 28" fill="none" xmlns="http://www.w3.org/2000/svg"><path d="M8.708 2.706 C 8.545 2.758,8.324 2.960,8.227 3.147 C 8.060 3.466,8.282 4.433,8.728 5.330 C 8.995 5.865,9.240 6.236,9.620 6.677 L 9.898 7.000 9.620 7.323 C 9.250 7.752,9.013 8.108,8.755 8.618 C 8.311 9.498,8.047 10.549,8.083 11.300 C 8.099 11.649,8.118 11.726,8.226 11.867 C 8.295 11.957,8.451 12.080,8.574 12.140 L 8.797 12.250 13.953 12.250 C 17.925 12.250,19.154 12.237,19.300 12.192 C 19.405 12.160,19.573 12.063,19.673 11.976 L 19.857 11.818 19.873 11.240 C 19.891 10.566,19.832 10.142,19.638 9.551 C 19.371 8.740,18.934 7.966,18.381 7.323 L 18.103 7.001 18.428 6.620 C 19.022 5.922,19.542 4.923,19.740 4.097 C 19.909 3.390,19.836 3.027,19.480 2.819 C 19.220 2.666,18.843 2.624,18.611 2.721 C 18.378 2.818,18.243 3.043,18.015 3.710 C 17.716 4.584,17.408 5.129,16.885 5.707 L 16.683 5.931 16.169 5.723 C 15.260 5.355,15.191 5.344,13.953 5.349 C 12.737 5.355,12.615 5.378,11.697 5.769 L 11.317 5.931 11.069 5.661 C 10.574 5.119,10.272 4.582,9.983 3.728 C 9.788 3.153,9.647 2.880,9.494 2.779 C 9.348 2.684,8.906 2.643,8.708 2.706 M14.817 7.119 C 15.266 7.208,16.086 7.622,16.495 7.965 C 17.036 8.420,17.431 8.917,17.712 9.496 C 17.849 9.779,17.993 10.120,18.031 10.255 L 18.102 10.500 14.100 10.500 C 10.764 10.500,10.083 10.489,10.009 10.435 C 9.924 10.373,9.925 10.361,10.054 10.027 C 10.457 8.987,10.992 8.279,11.755 7.775 C 12.784 7.095,13.702 6.898,14.817 7.119 M5.017 11.967 C 4.614 12.097,2.522 13.085,2.154 13.318 C 1.753 13.572,1.653 14.141,1.947 14.503 C 2.024 14.598,2.186 14.727,2.308 14.790 C 2.511 14.895,2.546 14.899,2.746 14.846 C 2.866 14.815,3.486 14.557,4.124 14.274 C 5.227 13.785,5.292 13.763,5.430 13.819 C 5.511 13.851,5.897 14.029,6.288 14.215 L 7.000 14.554 7.000 15.324 L 7.000 16.095 6.825 16.022 C 6.729 15.982,6.490 15.869,6.294 15.770 C 6.099 15.672,5.808 15.548,5.649 15.494 C 5.377 15.403,5.342 15.401,5.091 15.465 C 4.791 15.542,3.327 16.197,2.545 16.604 C 1.998 16.888,1.850 17.035,1.791 17.352 C 1.713 17.765,2.012 18.228,2.428 18.340 C 2.605 18.388,2.666 18.380,2.977 18.270 C 3.170 18.201,3.708 17.967,4.172 17.748 C 4.637 17.530,5.080 17.325,5.157 17.291 C 5.290 17.234,5.339 17.251,6.148 17.642 L 7.000 18.053 7.000 18.825 L 7.000 19.597 6.545 19.385 C 5.439 18.869,5.391 18.858,4.940 19.010 C 4.404 19.190,2.393 20.140,2.083 20.359 C 1.921 20.474,1.775 20.777,1.775 21.000 C 1.775 21.249,1.929 21.537,2.146 21.694 C 2.537 21.977,2.595 21.964,4.163 21.250 C 4.747 20.985,5.241 20.762,5.263 20.756 C 5.285 20.749,5.875 21.016,6.574 21.349 L 7.845 21.955 8.156 22.399 C 8.560 22.975,9.428 23.844,9.940 24.183 C 10.708 24.692,11.653 25.089,12.530 25.271 C 13.053 25.380,14.941 25.382,15.447 25.275 C 16.444 25.063,17.477 24.615,18.177 24.093 C 18.749 23.665,19.468 22.933,19.833 22.406 L 20.137 21.968 20.813 21.642 C 21.186 21.463,21.765 21.185,22.101 21.024 L 22.712 20.732 23.594 21.140 C 24.888 21.737,25.318 21.901,25.503 21.867 C 25.874 21.797,26.225 21.376,26.225 21.000 C 26.225 20.777,26.079 20.474,25.917 20.359 C 25.653 20.173,23.793 19.281,23.195 19.054 C 23.019 18.987,22.795 18.940,22.656 18.940 C 22.412 18.940,22.351 18.962,21.455 19.383 L 21.000 19.597 21.000 18.825 L 21.000 18.053 21.828 17.653 C 22.284 17.432,22.678 17.252,22.703 17.252 C 22.729 17.252,23.186 17.454,23.719 17.701 C 24.252 17.948,24.842 18.205,25.030 18.272 C 25.334 18.380,25.395 18.388,25.572 18.340 C 25.988 18.228,26.287 17.765,26.209 17.352 C 26.150 17.035,26.002 16.888,25.455 16.604 C 24.695 16.208,23.217 15.545,22.927 15.470 C 22.607 15.386,22.480 15.412,21.933 15.668 C 21.689 15.783,21.380 15.927,21.245 15.988 L 21.000 16.099 21.000 15.326 L 21.000 14.554 21.712 14.215 C 22.103 14.029,22.489 13.851,22.570 13.818 C 22.709 13.762,22.769 13.783,23.783 14.236 C 24.370 14.497,24.970 14.753,25.118 14.803 C 25.370 14.890,25.398 14.891,25.611 14.820 C 25.856 14.738,26.098 14.521,26.177 14.312 C 26.298 13.991,26.170 13.539,25.904 13.350 C 25.578 13.118,23.138 11.991,22.834 11.932 C 22.603 11.888,22.283 12.006,21.074 12.582 L 19.957 13.113 14.000 13.113 L 8.043 13.113 6.926 12.583 C 5.838 12.067,5.426 11.897,5.277 11.903 C 5.236 11.905,5.119 11.933,5.017 11.967 M19.225 16.158 C 19.222 18.000,19.154 19.664,19.070 19.973 C 18.891 20.631,18.416 21.460,17.900 22.014 C 17.282 22.678,16.608 23.097,15.590 23.448 L 15.104 23.616 13.910 23.585 L 12.717 23.553 12.250 23.393 C 11.401 23.102,10.721 22.672,10.150 22.066 C 9.617 21.501,9.106 20.625,8.931 19.976 C 8.853 19.688,8.779 17.777,8.776 15.948 L 8.773 14.887 14.000 14.887 L 19.227 14.887 19.225 16.158 M11.037 16.740 C 10.857 16.784,10.648 16.986,10.569 17.194 C 10.460 17.479,10.507 17.767,10.703 18.025 C 10.974 18.381,10.799 18.362,13.968 18.377 C 16.774 18.391,16.808 18.390,16.963 18.294 C 17.189 18.154,17.394 17.904,17.458 17.690 C 17.537 17.425,17.443 17.116,17.212 16.885 L 17.033 16.707 14.082 16.712 C 12.458 16.715,11.088 16.728,11.037 16.740 M12.803 20.209 C 12.645 20.257,12.387 20.519,12.317 20.705 C 12.197 21.021,12.377 21.584,12.643 21.721 C 12.871 21.839,13.477 21.897,14.293 21.880 C 14.990 21.865,15.068 21.854,15.281 21.747 C 15.836 21.466,15.869 20.659,15.340 20.309 L 15.150 20.183 14.050 20.174 C 13.445 20.169,12.884 20.185,12.803 20.209 " fill="#1A1C1F" stroke="none" fill-rule="evenodd"></path></svg>