<svg width="16" height="16" viewBox="0 0 16 16" fill="none" xmlns="http://www.w3.org/2000/svg"><path d="M5.266 1.688 C 5.083 1.775,4.901 1.984,4.841 2.174 C 4.748 2.469,4.799 2.615,5.300 3.486 L 5.595 3.999 5.216 4.380 C 4.672 4.926,4.402 5.364,4.170 6.079 L 4.069 6.392 3.140 6.409 C 2.071 6.429,2.047 6.434,1.826 6.670 C 1.666 6.841,1.619 6.957,1.618 7.187 C 1.617 7.430,1.693 7.608,1.870 7.774 C 2.096 7.985,2.084 7.983,3.100 7.995 L 4.000 8.005 4.000 8.398 L 4.000 8.791 3.105 8.809 C 2.076 8.829,2.046 8.835,1.826 9.070 C 1.666 9.241,1.619 9.357,1.618 9.587 C 1.617 9.830,1.693 10.008,1.870 10.174 C 2.096 10.385,2.084 10.383,3.100 10.395 L 4.000 10.405 4.001 10.556 C 4.001 10.700,4.038 11.008,4.069 11.133 L 4.084 11.191 3.147 11.209 C 2.070 11.229,2.047 11.233,1.826 11.470 C 1.666 11.641,1.619 11.757,1.618 11.987 C 1.617 12.230,1.693 12.408,1.870 12.574 C 2.105 12.793,2.034 12.784,3.511 12.795 L 4.822 12.805 5.004 13.018 C 5.556 13.664,6.447 14.175,7.305 14.336 C 7.621 14.396,8.383 14.395,8.703 14.335 C 9.512 14.183,10.189 13.813,10.827 13.176 L 11.187 12.816 12.493 12.801 C 13.793 12.786,13.801 12.785,13.920 12.724 C 14.540 12.405,14.540 11.597,13.921 11.281 C 13.817 11.228,13.758 11.223,12.864 11.208 L 11.916 11.191 11.931 11.133 C 11.962 11.008,11.999 10.700,11.999 10.556 L 12.000 10.405 12.900 10.396 C 13.782 10.387,13.802 10.385,13.920 10.324 C 14.540 10.003,14.541 9.197,13.921 8.881 C 13.817 8.828,13.757 8.823,12.905 8.808 L 12.000 8.791 12.000 8.398 L 12.000 8.005 12.900 7.996 C 13.782 7.987,13.802 7.985,13.920 7.924 C 14.540 7.603,14.541 6.797,13.921 6.480 C 13.815 6.427,13.759 6.423,12.869 6.408 L 11.929 6.392 11.842 6.123 C 11.651 5.530,11.521 5.270,11.198 4.840 C 11.033 4.620,10.716 4.287,10.476 4.082 L 10.378 3.999 10.684 3.486 C 11.138 2.724,11.187 2.617,11.186 2.388 C 11.184 2.163,11.104 1.984,10.937 1.833 C 10.779 1.690,10.675 1.646,10.463 1.632 C 10.015 1.603,9.860 1.738,9.335 2.611 C 9.137 2.939,8.957 3.228,8.935 3.254 C 8.896 3.297,8.873 3.298,8.587 3.262 C 8.251 3.220,7.592 3.230,7.271 3.282 C 7.106 3.309,7.086 3.307,7.051 3.262 C 7.030 3.235,6.873 2.979,6.702 2.693 C 6.227 1.898,6.155 1.801,5.977 1.714 C 5.762 1.608,5.457 1.597,5.266 1.688 M8.507 4.871 C 9.025 4.978,9.574 5.337,9.916 5.792 C 10.027 5.941,10.196 6.239,10.226 6.340 L 10.244 6.400 8.000 6.400 L 5.756 6.400 5.775 6.340 C 5.812 6.219,5.944 5.983,6.064 5.820 C 6.642 5.035,7.564 4.677,8.507 4.871 M10.399 8.700 C 10.398 9.643,10.357 10.836,10.320 10.999 C 10.304 11.072,10.245 11.229,10.189 11.349 C 9.896 11.974,9.425 12.415,8.782 12.667 L 8.511 12.773 8.000 12.773 L 7.489 12.773 7.217 12.667 C 7.067 12.608,6.849 12.498,6.732 12.422 C 6.500 12.271,6.165 11.952,6.032 11.755 C 5.905 11.569,5.739 11.224,5.692 11.048 C 5.645 10.874,5.604 9.790,5.601 8.660 L 5.600 8.000 8.000 8.000 L 10.400 8.000 10.399 8.700 M6.867 9.695 C 6.624 9.815,6.483 9.987,6.427 10.234 C 6.366 10.498,6.462 10.784,6.678 10.982 C 6.905 11.191,6.874 11.186,8.000 11.186 C 8.996 11.187,9.000 11.186,9.120 11.124 C 9.739 10.804,9.741 9.997,9.124 9.682 C 9.020 9.629,8.975 9.627,8.008 9.628 L 7.000 9.629 6.867 9.695 " fill="#1A1C1F" stroke="none" fill-rule="evenodd"></path></svg>