<svg width="24" height="24" viewBox="0 0 24 24" fill="none" xmlns="http://www.w3.org/2000/svg"><path d="M6.700 2.103 C 6.462 2.227,6.324 2.364,6.217 2.582 C 6.120 2.780,6.111 2.834,6.131 3.092 C 6.170 3.588,6.513 4.480,6.911 5.120 C 7.014 5.285,7.247 5.606,7.430 5.833 L 7.762 6.247 7.567 6.473 C 6.851 7.305,6.443 8.087,6.161 9.165 L 6.071 9.510 4.879 9.528 C 3.805 9.544,3.677 9.553,3.574 9.620 C 3.363 9.757,2.877 10.217,2.480 10.654 C 2.155 11.012,2.078 11.121,2.040 11.281 C 1.899 11.868,2.375 12.483,2.973 12.488 C 3.303 12.491,3.508 12.376,3.974 11.922 L 4.387 11.520 5.194 11.520 L 6.000 11.520 6.000 12.515 L 6.000 13.510 4.845 13.527 C 3.801 13.543,3.679 13.552,3.575 13.619 C 3.363 13.757,2.878 14.216,2.480 14.654 C 2.155 15.012,2.078 15.121,2.040 15.281 C 1.899 15.868,2.375 16.483,2.973 16.488 C 3.303 16.491,3.508 16.376,3.974 15.922 L 4.387 15.520 5.187 15.520 L 5.988 15.520 6.014 16.110 C 6.028 16.434,6.067 16.869,6.101 17.076 C 6.135 17.282,6.151 17.462,6.138 17.476 C 6.124 17.489,5.567 17.511,4.899 17.524 C 3.816 17.546,3.672 17.556,3.572 17.621 C 3.363 17.757,2.875 18.218,2.480 18.654 C 2.155 19.012,2.078 19.121,2.040 19.281 C 1.899 19.868,2.375 20.483,2.973 20.488 C 3.303 20.491,3.508 20.376,3.974 19.922 L 4.387 19.520 5.767 19.520 L 7.146 19.520 7.358 19.781 C 7.843 20.379,8.665 21.029,9.379 21.379 C 9.825 21.597,10.465 21.811,10.946 21.904 C 11.434 21.998,12.566 21.998,13.054 21.904 C 14.383 21.648,15.652 20.912,16.546 19.879 L 16.856 19.520 18.233 19.520 L 19.611 19.520 20.025 19.919 C 20.617 20.489,20.875 20.598,21.276 20.445 C 21.568 20.334,21.723 20.204,21.860 19.955 C 22.006 19.690,22.021 19.353,21.900 19.100 C 21.804 18.900,20.623 17.719,20.425 17.625 C 20.305 17.568,20.088 17.553,19.084 17.529 C 18.426 17.513,17.876 17.489,17.863 17.477 C 17.850 17.464,17.867 17.275,17.900 17.057 C 17.933 16.838,17.972 16.404,17.986 16.090 L 18.012 15.520 18.813 15.520 L 19.613 15.520 20.026 15.922 C 20.492 16.376,20.697 16.491,21.027 16.488 C 21.625 16.483,22.087 15.889,21.959 15.291 C 21.920 15.112,21.865 15.033,21.527 14.668 C 21.114 14.223,20.600 13.734,20.420 13.616 C 20.322 13.552,20.181 13.542,19.155 13.527 L 18.000 13.510 18.000 12.515 L 18.000 11.520 18.806 11.520 L 19.613 11.520 20.026 11.922 C 20.492 12.376,20.697 12.491,21.027 12.488 C 21.625 12.483,22.087 11.889,21.959 11.291 C 21.920 11.112,21.865 11.033,21.527 10.668 C 21.115 10.224,20.600 9.734,20.421 9.617 C 20.324 9.554,20.177 9.543,19.121 9.528 L 17.929 9.510 17.858 9.245 C 17.544 8.066,17.242 7.466,16.520 6.582 L 16.241 6.242 16.572 5.831 C 17.125 5.143,17.459 4.542,17.724 3.759 C 17.828 3.450,17.852 3.313,17.856 3.014 C 17.860 2.665,17.854 2.640,17.737 2.477 C 17.669 2.384,17.540 2.254,17.451 2.189 C 17.310 2.087,17.243 2.069,16.946 2.050 C 16.611 2.029,16.600 2.032,16.398 2.161 C 16.139 2.327,16.045 2.474,15.859 3.000 C 15.557 3.853,15.307 4.286,14.831 4.783 L 14.540 5.086 14.348 5.003 C 13.162 4.494,11.592 4.407,10.308 4.779 C 10.115 4.835,9.846 4.926,9.711 4.981 L 9.464 5.081 9.249 4.871 C 8.765 4.397,8.464 3.901,8.175 3.106 C 7.940 2.459,7.833 2.292,7.565 2.152 C 7.393 2.062,7.299 2.040,7.085 2.040 C 6.923 2.040,6.773 2.065,6.700 2.103 M13.014 6.656 C 13.889 6.899,14.736 7.495,15.239 8.222 C 15.460 8.542,15.774 9.175,15.819 9.391 L 15.847 9.522 12.027 9.511 C 9.926 9.505,8.195 9.488,8.180 9.473 C 8.139 9.432,8.419 8.777,8.631 8.422 C 8.889 7.988,9.476 7.398,9.920 7.126 C 10.289 6.900,10.762 6.703,11.140 6.616 C 11.473 6.540,12.690 6.566,13.014 6.656 M15.997 12.610 C 15.996 13.210,15.979 14.393,15.960 15.240 C 15.922 16.944,15.915 17.000,15.641 17.586 C 15.084 18.779,14.177 19.555,12.977 19.863 C 12.657 19.945,12.479 19.966,12.060 19.969 C 10.884 19.978,10.034 19.635,9.216 18.822 C 8.760 18.368,8.456 17.892,8.215 17.251 C 8.078 16.886,8.044 16.307,8.014 13.750 L 7.987 11.520 11.993 11.520 L 16.000 11.520 15.997 12.610 M9.664 13.069 C 9.478 13.097,9.140 13.464,9.063 13.721 C 8.984 13.987,8.984 14.060,9.063 14.291 C 9.143 14.527,9.392 14.810,9.613 14.917 C 9.781 14.998,9.836 15.000,12.003 14.999 C 14.073 14.998,14.231 14.993,14.380 14.924 C 14.559 14.842,14.818 14.598,14.905 14.429 C 14.982 14.282,14.983 13.772,14.908 13.596 C 14.815 13.381,14.528 13.131,14.320 13.083 C 14.146 13.043,9.923 13.031,9.664 13.069 M10.580 16.115 C 10.407 16.193,10.202 16.402,10.094 16.611 C 10.005 16.783,10.004 17.135,10.093 17.366 C 10.197 17.639,10.495 17.904,10.745 17.947 C 11.071 18.002,13.197 17.988,13.363 17.929 C 13.521 17.873,13.816 17.601,13.905 17.429 C 13.981 17.283,13.983 16.773,13.909 16.596 C 13.831 16.411,13.522 16.135,13.334 16.083 C 13.240 16.057,12.706 16.041,11.960 16.041 C 10.866 16.042,10.723 16.049,10.580 16.115 " fill="#1A1C1F" stroke="none" fill-rule="evenodd"></path></svg>