<svg width="14" height="14" viewBox="0 0 14 14" fill="none" xmlns="http://www.w3.org/2000/svg"><path d="M4.608 1.477 C 4.448 1.554,4.288 1.736,4.236 1.903 C 4.155 2.161,4.199 2.289,4.637 3.049 L 4.895 3.497 4.565 3.831 C 4.383 4.015,4.180 4.245,4.112 4.344 C 3.950 4.582,3.772 4.952,3.653 5.302 L 3.555 5.588 2.833 5.604 C 1.978 5.622,1.901 5.628,1.781 5.689 C 1.668 5.747,1.502 5.924,1.453 6.039 C 1.432 6.088,1.416 6.194,1.416 6.288 C 1.414 6.501,1.481 6.657,1.636 6.802 C 1.835 6.988,1.823 6.986,2.712 6.995 L 3.500 7.004 3.500 7.348 L 3.500 7.692 2.716 7.708 C 1.815 7.726,1.790 7.731,1.598 7.936 C 1.458 8.086,1.417 8.187,1.416 8.388 C 1.414 8.601,1.481 8.757,1.636 8.902 C 1.835 9.088,1.823 9.086,2.712 9.095 L 3.500 9.104 3.500 9.236 C 3.501 9.364,3.533 9.632,3.561 9.745 L 3.575 9.800 3.088 9.802 C 2.821 9.803,2.439 9.811,2.240 9.821 C 1.824 9.841,1.756 9.864,1.590 10.044 C 1.457 10.189,1.417 10.290,1.416 10.488 C 1.414 10.701,1.481 10.857,1.636 11.002 C 1.842 11.194,1.780 11.186,3.072 11.196 L 4.219 11.204 4.373 11.386 C 4.847 11.948,5.641 12.403,6.392 12.544 C 6.667 12.596,7.335 12.596,7.613 12.543 C 8.319 12.411,8.921 12.083,9.473 11.530 L 9.788 11.215 10.932 11.200 C 12.217 11.183,12.162 11.190,12.364 11.002 C 12.519 10.857,12.586 10.701,12.584 10.488 C 12.583 10.290,12.543 10.189,12.410 10.044 C 12.244 9.864,12.176 9.841,11.760 9.821 C 11.561 9.811,11.179 9.803,10.912 9.802 L 10.425 9.800 10.439 9.745 C 10.467 9.632,10.499 9.364,10.500 9.236 L 10.500 9.104 11.287 9.095 C 12.177 9.086,12.165 9.088,12.364 8.902 C 12.519 8.757,12.586 8.601,12.584 8.388 C 12.583 8.190,12.543 8.089,12.410 7.944 C 12.246 7.766,12.175 7.741,11.772 7.721 C 11.579 7.711,11.214 7.703,10.961 7.702 L 10.500 7.700 10.500 7.352 L 10.500 7.004 11.287 6.995 C 12.177 6.986,12.165 6.988,12.364 6.802 C 12.519 6.657,12.586 6.501,12.584 6.288 C 12.584 6.194,12.568 6.088,12.547 6.039 C 12.498 5.924,12.332 5.747,12.219 5.689 C 12.099 5.628,12.022 5.622,11.166 5.604 L 10.443 5.588 10.335 5.273 C 10.206 4.897,10.144 4.756,10.010 4.538 C 9.806 4.205,9.549 3.900,9.271 3.661 L 9.080 3.498 9.337 3.073 C 9.785 2.329,9.846 2.163,9.764 1.903 C 9.715 1.746,9.561 1.562,9.418 1.489 C 9.280 1.418,9.048 1.406,8.875 1.460 C 8.661 1.527,8.541 1.668,8.152 2.310 L 7.821 2.858 7.673 2.853 C 7.087 2.832,6.465 2.842,6.330 2.875 L 6.185 2.910 5.912 2.441 C 5.614 1.929,5.486 1.727,5.393 1.625 C 5.220 1.437,4.841 1.366,4.608 1.477 M7.484 4.270 C 8.085 4.414,8.652 4.885,8.899 5.445 C 8.933 5.521,8.960 5.586,8.960 5.591 C 8.960 5.596,8.077 5.600,6.998 5.600 L 5.037 5.600 5.053 5.548 C 5.124 5.318,5.413 4.923,5.671 4.703 C 5.903 4.505,6.266 4.325,6.562 4.260 C 6.791 4.210,7.254 4.215,7.484 4.270 M9.099 7.566 C 9.098 8.376,9.061 9.488,9.031 9.625 C 8.994 9.791,8.798 10.181,8.662 10.361 C 8.420 10.679,8.086 10.926,7.684 11.084 L 7.447 11.177 7.000 11.177 L 6.553 11.177 6.316 11.084 C 5.915 10.927,5.569 10.670,5.329 10.352 C 5.190 10.169,5.001 9.780,4.969 9.613 C 4.938 9.453,4.902 8.395,4.901 7.601 L 4.900 7.000 7.000 7.000 L 9.100 7.000 9.099 7.566 M6.028 8.468 C 5.890 8.531,5.746 8.670,5.676 8.807 C 5.593 8.968,5.589 9.199,5.667 9.373 C 5.733 9.519,5.926 9.710,6.056 9.756 C 6.129 9.781,6.331 9.788,7.012 9.788 C 7.988 9.788,7.961 9.792,8.164 9.602 C 8.319 9.457,8.386 9.301,8.384 9.088 C 8.383 8.890,8.343 8.789,8.210 8.644 C 8.012 8.430,8.046 8.436,7.023 8.429 C 6.183 8.424,6.119 8.426,6.028 8.468 " fill="#1A1C1F" stroke="none" fill-rule="evenodd"></path></svg>