<svg width="20" height="20" viewBox="0 0 20 20" fill="none" xmlns="http://www.w3.org/2000/svg"><path d="M6.610 2.096 C 6.415 2.188,6.184 2.411,6.096 2.591 C 6.042 2.702,6.022 2.807,6.020 2.980 C 6.018 3.269,6.080 3.410,6.625 4.356 L 6.993 4.996 6.520 5.473 C 5.843 6.155,5.529 6.662,5.217 7.577 L 5.079 7.983 3.899 8.010 L 2.720 8.036 2.557 8.125 C 2.467 8.174,2.329 8.286,2.251 8.373 C 1.822 8.849,1.991 9.589,2.600 9.905 C 2.747 9.982,2.772 9.984,3.875 9.995 L 5.000 10.007 5.000 10.498 L 5.000 10.989 3.863 11.011 L 2.725 11.034 2.559 11.124 C 2.468 11.174,2.329 11.286,2.251 11.373 C 1.822 11.849,1.991 12.589,2.600 12.905 C 2.747 12.982,2.772 12.984,3.875 12.995 L 5.000 13.007 5.001 13.195 C 5.001 13.375,5.047 13.760,5.086 13.916 L 5.105 13.989 3.913 14.012 L 2.722 14.035 2.558 14.125 C 2.467 14.174,2.329 14.286,2.251 14.373 C 1.822 14.849,1.991 15.589,2.600 15.905 L 2.750 15.983 4.389 15.995 L 6.027 16.006 6.255 16.273 C 6.945 17.081,8.059 17.719,9.131 17.920 C 9.525 17.994,10.479 17.994,10.876 17.919 C 11.884 17.730,12.745 17.261,13.533 16.472 L 13.983 16.021 15.617 16.001 C 17.239 15.982,17.252 15.981,17.401 15.905 C 18.172 15.508,18.175 14.495,17.407 14.103 C 17.283 14.040,17.190 14.034,16.084 14.012 L 14.895 13.989 14.914 13.916 C 14.953 13.760,14.999 13.375,14.999 13.195 L 15.000 13.007 16.125 12.995 C 17.227 12.984,17.253 12.982,17.400 12.906 C 18.173 12.505,18.176 11.496,17.405 11.102 C 17.279 11.038,17.192 11.032,16.135 11.011 L 15.000 10.989 15.000 10.498 L 15.000 10.007 16.125 9.995 C 17.227 9.984,17.253 9.982,17.400 9.906 C 18.172 9.505,18.176 8.496,17.407 8.104 C 17.285 8.041,17.185 8.034,16.096 8.010 L 14.917 7.983 14.763 7.533 C 14.578 6.993,14.489 6.791,14.301 6.484 C 14.007 6.005,13.618 5.550,13.178 5.172 L 12.973 4.995 13.358 4.356 C 13.884 3.484,13.975 3.288,13.975 3.020 C 13.975 2.608,13.798 2.316,13.433 2.128 C 13.092 1.952,12.581 2.030,12.314 2.298 C 12.243 2.370,11.956 2.801,11.678 3.256 L 11.171 4.083 10.961 4.076 C 10.178 4.049,9.232 4.065,9.042 4.108 L 8.835 4.155 8.444 3.486 C 8.228 3.118,7.965 2.686,7.859 2.527 C 7.690 2.275,7.641 2.226,7.478 2.146 C 7.224 2.022,6.819 1.999,6.610 2.096 M10.683 6.098 C 11.334 6.255,11.974 6.681,12.396 7.240 C 12.512 7.394,12.800 7.921,12.800 7.979 C 12.800 7.991,11.539 8.000,9.998 8.000 L 7.196 8.000 7.218 7.925 C 7.230 7.884,7.293 7.752,7.357 7.633 C 7.775 6.861,8.550 6.266,9.375 6.086 C 9.698 6.015,10.364 6.021,10.683 6.098 M12.998 10.708 C 12.995 11.914,12.942 13.540,12.900 13.733 C 12.805 14.166,12.472 14.731,12.085 15.117 C 11.657 15.544,11.045 15.875,10.570 15.936 C 10.289 15.972,9.713 15.973,9.433 15.936 C 8.826 15.858,8.053 15.371,7.614 14.790 C 7.415 14.527,7.144 13.972,7.098 13.733 C 7.053 13.496,7.003 12.027,7.001 10.892 L 7.000 10.000 10.000 10.000 L 13.000 10.000 12.998 10.708 M8.583 12.117 C 8.313 12.247,8.143 12.440,8.062 12.709 C 7.948 13.082,8.027 13.387,8.317 13.697 C 8.584 13.982,8.592 13.983,10.017 13.983 C 11.244 13.983,11.251 13.983,11.400 13.906 C 12.155 13.514,12.184 12.551,11.454 12.132 L 11.283 12.034 10.017 12.035 L 8.750 12.036 8.583 12.117 " fill="#1A1C1F" stroke="none" fill-rule="evenodd"></path></svg>