<svg width="32" height="32" viewBox="0 0 32 32" fill="none" xmlns="http://www.w3.org/2000/svg"><path d="M9.940 3.098 C 9.715 3.163,9.402 3.520,9.356 3.763 C 9.197 4.609,10.003 6.495,11.024 7.666 L 11.314 7.998 10.995 8.368 C 10.572 8.860,10.301 9.265,10.006 9.849 C 9.498 10.854,9.197 12.056,9.237 12.915 C 9.256 13.313,9.278 13.401,9.401 13.562 C 9.480 13.665,9.669 13.811,9.822 13.888 L 10.101 14.027 16.026 14.027 L 21.951 14.027 22.240 13.853 C 22.668 13.596,22.747 13.425,22.743 12.773 C 22.738 11.885,22.519 10.954,22.099 10.033 C 21.877 9.545,21.336 8.725,20.961 8.308 L 20.687 8.002 21.019 7.616 C 21.938 6.548,22.619 5.056,22.633 4.080 C 22.643 3.433,22.472 3.200,21.903 3.083 C 21.702 3.042,21.566 3.043,21.405 3.087 C 21.029 3.191,20.899 3.365,20.646 4.107 C 20.283 5.171,19.904 5.851,19.298 6.523 L 19.067 6.778 18.479 6.540 C 17.440 6.120,17.362 6.107,15.947 6.114 C 14.557 6.120,14.417 6.146,13.368 6.593 L 12.933 6.778 12.651 6.469 C 12.069 5.832,11.746 5.250,11.387 4.187 C 11.278 3.864,11.139 3.519,11.079 3.420 C 10.888 3.106,10.395 2.966,9.940 3.098 M16.933 8.136 C 17.447 8.238,18.384 8.710,18.851 9.103 C 19.470 9.623,19.922 10.191,20.242 10.853 C 20.399 11.176,20.563 11.566,20.607 11.720 L 20.688 12.000 16.114 12.000 C 12.387 12.000,11.522 11.987,11.443 11.929 C 11.356 11.866,11.353 11.835,11.412 11.649 C 11.570 11.150,12.106 10.151,12.389 9.831 C 12.931 9.217,13.401 8.848,14.059 8.517 C 15.002 8.043,15.878 7.927,16.933 8.136 M5.733 13.675 C 5.459 13.762,3.784 14.532,2.972 14.944 C 2.262 15.305,2.083 15.482,2.040 15.868 C 1.986 16.345,2.304 16.826,2.767 16.964 C 3.037 17.045,3.218 16.984,4.819 16.269 C 5.978 15.752,6.046 15.728,6.206 15.792 C 6.298 15.829,6.739 16.034,7.187 16.246 L 8.000 16.633 8.000 17.514 L 8.000 18.395 7.800 18.311 C 7.690 18.265,7.417 18.136,7.194 18.023 C 6.970 17.911,6.638 17.769,6.456 17.708 C 6.147 17.603,6.105 17.601,5.822 17.674 C 5.461 17.766,4.347 18.261,3.173 18.851 C 2.261 19.310,2.122 19.431,2.047 19.831 C 1.958 20.303,2.299 20.832,2.775 20.960 C 2.977 21.015,3.046 21.006,3.394 20.883 C 3.609 20.806,4.284 20.513,4.893 20.230 C 5.502 19.948,6.024 19.717,6.053 19.717 C 6.083 19.718,6.533 19.924,7.053 20.175 L 8.000 20.632 8.000 21.514 L 8.000 22.397 7.480 22.154 C 6.110 21.516,6.074 21.512,5.200 21.891 C 4.366 22.252,2.595 23.115,2.396 23.257 C 2.197 23.398,2.029 23.739,2.029 24.000 C 2.029 24.285,2.205 24.614,2.452 24.793 C 2.899 25.117,2.966 25.102,4.758 24.286 C 5.425 23.983,5.990 23.728,6.015 23.721 C 6.040 23.713,6.714 24.018,7.513 24.399 L 8.966 25.091 9.322 25.599 C 9.784 26.259,10.775 27.250,11.365 27.642 C 12.242 28.223,13.312 28.672,14.320 28.881 C 14.927 29.008,17.071 29.008,17.680 28.882 C 18.614 28.688,19.868 28.168,20.605 27.668 C 21.259 27.223,22.277 26.188,22.763 25.471 L 23.013 25.103 23.787 24.731 C 24.212 24.527,24.874 24.210,25.258 24.027 L 25.957 23.694 26.965 24.160 C 28.443 24.843,28.935 25.030,29.146 24.990 C 29.570 24.911,29.971 24.430,29.971 24.000 C 29.971 23.745,29.805 23.399,29.620 23.268 C 29.431 23.134,28.614 22.724,27.612 22.259 C 25.976 21.500,25.942 21.496,24.849 22.002 C 24.426 22.197,24.062 22.368,24.040 22.382 C 24.018 22.395,24.000 22.007,24.000 21.519 L 24.000 20.632 24.947 20.174 C 25.467 19.923,25.917 19.717,25.947 19.717 C 25.976 19.717,26.498 19.948,27.107 20.230 C 27.716 20.513,28.391 20.806,28.606 20.883 C 28.952 21.005,29.024 21.015,29.222 20.961 C 29.723 20.826,30.028 20.340,29.948 19.804 C 29.890 19.417,29.686 19.264,28.402 18.640 C 26.728 17.828,26.381 17.689,25.965 17.663 C 25.631 17.643,25.579 17.657,25.085 17.894 C 24.796 18.032,24.434 18.202,24.280 18.272 L 24.000 18.399 24.000 17.516 L 24.000 16.633 24.813 16.246 C 25.261 16.034,25.702 15.829,25.794 15.792 C 25.954 15.728,26.022 15.752,27.181 16.269 C 27.851 16.568,28.538 16.860,28.706 16.918 C 28.994 17.017,29.026 17.018,29.270 16.937 C 29.550 16.844,29.827 16.595,29.917 16.357 C 30.055 15.990,29.908 15.473,29.605 15.257 C 29.412 15.119,27.796 14.333,26.853 13.918 C 25.872 13.486,25.988 13.463,23.713 14.555 L 22.812 14.987 16.002 14.987 L 9.192 14.987 7.916 14.379 C 6.650 13.777,6.214 13.597,6.038 13.604 C 5.988 13.606,5.851 13.638,5.733 13.675 M21.971 18.440 C 21.967 20.553,21.890 22.477,21.794 22.827 C 21.589 23.579,21.047 24.526,20.457 25.159 C 19.754 25.914,18.979 26.397,17.835 26.792 L 17.296 26.978 15.915 26.948 L 14.533 26.918 14.000 26.735 C 13.344 26.510,12.787 26.217,12.284 25.833 C 11.861 25.510,11.302 24.940,11.051 24.575 C 10.798 24.208,10.303 23.188,10.210 22.843 C 10.117 22.496,10.033 20.377,10.029 18.253 L 10.027 17.013 16.000 17.013 L 21.973 17.013 21.971 18.440 M12.613 19.132 C 12.408 19.182,12.169 19.413,12.078 19.650 C 11.954 19.976,12.008 20.305,12.232 20.600 C 12.542 21.006,12.342 20.985,15.963 21.002 C 19.170 21.018,19.209 21.017,19.386 20.907 C 19.644 20.748,19.879 20.461,19.952 20.217 C 20.043 19.914,19.935 19.561,19.670 19.297 L 19.467 19.093 16.093 19.100 C 14.238 19.103,12.672 19.117,12.613 19.132 M14.646 23.094 C 14.323 23.193,14.030 23.624,14.028 24.000 C 14.028 24.103,14.087 24.314,14.159 24.469 C 14.373 24.928,14.482 24.957,15.986 24.959 C 17.415 24.960,17.547 24.932,17.796 24.574 C 17.926 24.386,17.946 24.307,17.944 23.998 C 17.940 23.579,17.863 23.429,17.536 23.213 L 17.315 23.067 16.057 23.057 C 15.366 23.051,14.731 23.068,14.646 23.094 " fill="#1A1C1F" stroke="none" fill-rule="evenodd"></path></svg>