<svg width="12" height="12" viewBox="0 0 12 12" fill="none" xmlns="http://www.w3.org/2000/svg"><path d="M3.950 1.266 C 3.812 1.332,3.676 1.488,3.631 1.631 C 3.561 1.852,3.599 1.960,3.978 2.619 L 4.202 3.009 4.086 3.108 C 3.648 3.483,3.332 3.958,3.134 4.541 L 3.049 4.790 2.342 4.805 L 1.635 4.820 1.536 4.874 C 1.158 5.080,1.096 5.550,1.408 5.837 C 1.574 5.988,1.567 5.987,2.325 5.996 L 3.000 6.004 3.000 6.299 L 3.000 6.594 2.318 6.607 L 1.636 6.620 1.536 6.674 C 1.158 6.880,1.096 7.350,1.408 7.637 C 1.574 7.788,1.567 7.787,2.325 7.796 L 3.000 7.804 3.000 7.917 C 3.001 8.025,3.028 8.256,3.052 8.349 L 3.063 8.393 2.349 8.407 L 1.636 8.420 1.536 8.474 C 1.158 8.680,1.096 9.150,1.408 9.437 C 1.580 9.594,1.530 9.588,2.633 9.596 L 3.616 9.604 3.753 9.762 C 4.177 10.253,4.825 10.626,5.470 10.751 C 5.697 10.795,6.292 10.795,6.527 10.751 C 7.134 10.637,7.642 10.360,8.120 9.882 L 8.390 9.613 9.370 9.601 C 10.344 9.589,10.351 9.589,10.440 9.543 C 10.904 9.304,10.905 8.697,10.442 8.461 C 10.366 8.422,10.316 8.419,9.649 8.406 L 8.937 8.393 8.948 8.349 C 8.972 8.256,8.999 8.025,9.000 7.917 L 9.000 7.804 9.675 7.797 C 10.336 7.790,10.352 7.789,10.440 7.743 C 10.904 7.503,10.905 6.897,10.442 6.661 C 10.366 6.622,10.316 6.619,9.680 6.607 L 9.000 6.594 9.000 6.299 L 9.000 6.004 9.675 5.997 C 10.336 5.990,10.352 5.989,10.440 5.943 C 10.904 5.703,10.905 5.097,10.443 4.861 C 10.367 4.823,10.313 4.819,9.656 4.805 L 8.950 4.790 8.850 4.500 C 8.731 4.155,8.662 4.009,8.506 3.777 C 8.345 3.537,8.162 3.327,7.957 3.149 L 7.784 2.998 8.025 2.594 C 8.345 2.059,8.388 1.966,8.386 1.809 C 8.384 1.616,8.335 1.498,8.209 1.383 C 8.148 1.326,8.061 1.271,8.007 1.252 C 7.879 1.208,7.704 1.211,7.576 1.260 C 7.391 1.329,7.367 1.361,6.851 2.207 L 6.695 2.464 6.472 2.447 C 6.145 2.422,5.570 2.432,5.424 2.466 L 5.302 2.494 5.066 2.092 C 4.937 1.871,4.779 1.612,4.715 1.516 C 4.614 1.365,4.584 1.335,4.487 1.288 C 4.324 1.208,4.091 1.198,3.950 1.266 M6.414 3.661 C 6.894 3.772,7.339 4.120,7.586 4.580 C 7.625 4.651,7.662 4.730,7.669 4.755 L 7.683 4.800 6.000 4.800 L 4.317 4.800 4.331 4.755 C 4.338 4.730,4.375 4.653,4.412 4.584 C 4.810 3.849,5.617 3.477,6.414 3.661 M7.799 6.445 C 7.797 7.176,7.766 8.122,7.740 8.240 C 7.709 8.381,7.589 8.639,7.479 8.802 C 7.359 8.979,7.114 9.216,6.938 9.326 C 6.746 9.445,6.504 9.541,6.340 9.562 C 6.173 9.583,5.827 9.583,5.660 9.562 C 5.295 9.515,4.830 9.221,4.569 8.874 C 4.454 8.721,4.310 8.438,4.269 8.285 C 4.233 8.151,4.202 7.345,4.201 6.525 L 4.200 6.000 6.000 6.000 L 7.800 6.000 7.799 6.445 M5.220 7.239 C 5.129 7.266,5.051 7.316,4.976 7.393 C 4.744 7.634,4.756 8.000,5.003 8.230 C 5.177 8.394,5.152 8.390,6.000 8.390 C 6.747 8.390,6.750 8.390,6.840 8.343 C 7.138 8.189,7.269 7.851,7.142 7.565 C 7.091 7.450,6.968 7.325,6.843 7.261 C 6.765 7.222,6.732 7.220,6.016 7.222 C 5.606 7.223,5.247 7.230,5.220 7.239 " fill="#1A1C1F" stroke="none" fill-rule="evenodd"></path></svg>