<svg width="14" height="14" viewBox="0 0 14 14" fill="none" xmlns="http://www.w3.org/2000/svg"><path d="M3.103 2.147 C 2.728 2.183,2.215 2.471,1.933 2.805 C 1.579 3.224,1.416 3.650,1.415 4.165 C 1.413 4.644,1.529 5.015,1.807 5.421 C 1.865 5.507,1.913 5.583,1.913 5.591 C 1.913 5.598,1.855 5.693,1.783 5.801 C 1.638 6.019,1.522 6.275,1.457 6.522 C 1.393 6.768,1.397 7.229,1.467 7.490 C 1.532 7.734,1.660 8.010,1.808 8.224 C 1.911 8.373,1.917 8.391,1.887 8.438 C 1.870 8.466,1.800 8.576,1.734 8.681 C 1.236 9.467,1.310 10.426,1.924 11.162 C 2.138 11.419,2.632 11.734,2.955 11.818 C 3.204 11.884,4.062 11.899,7.471 11.900 L 10.824 11.900 11.018 11.839 C 11.648 11.642,12.142 11.218,12.403 10.653 C 12.542 10.354,12.577 10.181,12.577 9.800 C 12.577 9.568,12.565 9.416,12.540 9.321 C 12.479 9.086,12.353 8.805,12.217 8.600 C 12.145 8.493,12.087 8.399,12.087 8.392 C 12.087 8.385,12.144 8.295,12.213 8.191 C 12.353 7.982,12.468 7.726,12.534 7.480 C 12.590 7.268,12.594 6.726,12.540 6.521 C 12.479 6.286,12.353 6.005,12.217 5.800 C 12.145 5.693,12.087 5.598,12.087 5.590 C 12.087 5.582,12.139 5.498,12.204 5.403 C 12.521 4.938,12.655 4.379,12.568 3.882 C 12.485 3.402,12.270 3.002,11.917 2.670 C 11.573 2.345,11.217 2.177,10.803 2.145 C 10.504 2.121,3.348 2.123,3.103 2.147 M10.804 3.571 C 10.899 3.619,11.059 3.785,11.122 3.900 C 11.155 3.959,11.165 4.029,11.165 4.188 C 11.165 4.378,11.158 4.411,11.095 4.524 C 11.053 4.601,10.979 4.685,10.908 4.739 C 10.677 4.913,10.918 4.900,7.917 4.897 C 6.431 4.896,4.778 4.888,4.245 4.880 L 3.275 4.865 3.183 4.804 C 2.940 4.643,2.823 4.454,2.823 4.220 C 2.823 4.011,2.874 3.859,2.991 3.724 C 3.163 3.525,3.062 3.537,4.748 3.523 C 5.570 3.517,7.250 3.516,8.482 3.520 C 10.577 3.529,10.727 3.532,10.804 3.571 M10.809 6.379 C 10.858 6.403,10.948 6.478,11.010 6.546 C 11.149 6.698,11.189 6.822,11.170 7.048 C 11.152 7.260,11.067 7.419,10.908 7.539 C 10.677 7.713,10.918 7.700,7.917 7.697 C 6.431 7.696,4.778 7.688,4.245 7.680 L 3.275 7.665 3.183 7.604 C 2.940 7.443,2.823 7.254,2.823 7.020 C 2.823 6.819,2.870 6.671,2.975 6.543 C 3.091 6.402,3.150 6.367,3.308 6.346 C 3.382 6.336,5.080 6.330,7.082 6.332 C 10.585 6.335,10.725 6.337,10.809 6.379 M10.817 9.175 C 10.952 9.248,11.122 9.460,11.154 9.592 C 11.223 9.880,11.125 10.175,10.908 10.339 C 10.677 10.513,10.918 10.500,7.917 10.497 C 6.431 10.496,4.778 10.488,4.245 10.480 L 3.275 10.465 3.183 10.404 C 2.940 10.243,2.823 10.054,2.823 9.820 C 2.823 9.619,2.870 9.471,2.975 9.343 C 3.091 9.202,3.150 9.167,3.308 9.146 C 3.382 9.136,5.085 9.129,7.093 9.131 C 10.477 9.135,10.750 9.138,10.817 9.175 " fill="#1A1C1F" stroke="none" fill-rule="evenodd"></path></svg>