<svg width="20" height="20" viewBox="0 0 20 20" fill="none" xmlns="http://www.w3.org/2000/svg"><path d="M5.197 3.029 L 3.478 3.050 3.186 3.195 C 2.858 3.357,2.478 3.689,2.299 3.969 C 2.047 4.360,1.947 4.925,2.048 5.378 C 2.139 5.788,2.302 6.073,2.631 6.400 C 2.928 6.696,3.098 6.799,3.497 6.930 L 3.711 7.000 10.000 7.000 L 16.289 7.000 16.502 6.930 C 16.889 6.803,17.102 6.672,17.386 6.387 C 17.907 5.866,18.103 5.214,17.937 4.564 C 17.835 4.166,17.728 3.965,17.480 3.701 C 17.073 3.270,16.785 3.114,16.311 3.066 C 15.916 3.026,7.659 2.999,5.197 3.029 M4.497 4.168 C 4.838 4.349,4.994 4.672,4.958 5.119 C 4.938 5.369,4.838 5.561,4.631 5.748 C 4.440 5.920,4.292 5.976,4.017 5.978 C 3.709 5.979,3.483 5.882,3.285 5.662 C 2.838 5.164,2.996 4.382,3.600 4.101 C 3.722 4.044,3.799 4.033,4.017 4.042 C 4.244 4.052,4.315 4.071,4.497 4.168 M5.197 8.029 L 3.478 8.050 3.186 8.195 C 2.858 8.357,2.478 8.689,2.299 8.969 C 2.047 9.360,1.947 9.925,2.048 10.378 C 2.139 10.788,2.302 11.073,2.631 11.400 C 2.928 11.696,3.098 11.799,3.497 11.930 L 3.711 12.000 10.000 12.000 L 16.289 12.000 16.502 11.930 C 16.889 11.803,17.102 11.672,17.386 11.387 C 17.907 10.866,18.103 10.214,17.937 9.564 C 17.835 9.166,17.728 8.965,17.480 8.701 C 17.073 8.270,16.785 8.114,16.311 8.066 C 15.916 8.026,7.659 7.999,5.197 8.029 M4.497 9.168 C 4.749 9.302,4.876 9.475,4.936 9.762 C 5.019 10.164,4.919 10.488,4.631 10.748 C 4.440 10.920,4.292 10.976,4.017 10.978 C 3.719 10.979,3.487 10.882,3.298 10.678 C 3.099 10.461,3.035 10.297,3.034 10.000 C 3.034 9.701,3.122 9.484,3.321 9.293 C 3.533 9.091,3.705 9.029,4.017 9.042 C 4.244 9.052,4.315 9.071,4.497 9.168 M5.197 13.029 L 3.478 13.050 3.186 13.195 C 2.858 13.357,2.478 13.689,2.299 13.969 C 2.047 14.360,1.947 14.925,2.048 15.378 C 2.139 15.788,2.302 16.073,2.631 16.400 C 2.928 16.696,3.098 16.799,3.497 16.930 L 3.711 17.000 10.000 17.000 L 16.289 17.000 16.502 16.930 C 16.889 16.803,17.102 16.672,17.386 16.387 C 17.907 15.866,18.103 15.214,17.937 14.564 C 17.835 14.166,17.728 13.965,17.480 13.701 C 17.073 13.270,16.785 13.114,16.311 13.066 C 15.916 13.026,7.659 12.999,5.197 13.029 M4.497 14.168 C 4.749 14.302,4.876 14.475,4.936 14.762 C 5.019 15.164,4.919 15.488,4.631 15.748 C 4.440 15.920,4.292 15.976,4.017 15.978 C 3.719 15.979,3.487 15.882,3.298 15.678 C 3.099 15.461,3.035 15.297,3.034 15.000 C 3.034 14.701,3.122 14.484,3.321 14.293 C 3.533 14.091,3.705 14.029,4.017 14.042 C 4.244 14.052,4.315 14.071,4.497 14.168 " fill="#1A1C1F" stroke="none" fill-rule="evenodd"></path></svg>