<svg width="16" height="16" viewBox="0 0 16 16" fill="none" xmlns="http://www.w3.org/2000/svg"><path d="M3.587 2.454 C 3.313 2.477,3.200 2.513,2.885 2.681 C 2.399 2.939,2.053 3.305,1.823 3.803 C 1.669 4.135,1.627 4.353,1.627 4.801 C 1.627 5.143,1.635 5.224,1.695 5.428 C 1.774 5.703,1.905 5.975,2.069 6.205 C 2.134 6.295,2.187 6.380,2.187 6.393 C 2.187 6.406,2.139 6.481,2.081 6.558 C 1.938 6.750,1.778 7.085,1.691 7.374 C 1.630 7.580,1.619 7.664,1.617 7.973 C 1.615 8.271,1.625 8.373,1.676 8.560 C 1.751 8.838,1.898 9.155,2.062 9.394 C 2.131 9.493,2.187 9.581,2.187 9.589 C 2.187 9.598,2.121 9.704,2.041 9.824 C 1.875 10.073,1.755 10.341,1.675 10.636 C 1.596 10.927,1.597 11.474,1.676 11.773 C 1.798 12.233,2.096 12.705,2.454 13.005 C 2.677 13.193,3.139 13.444,3.375 13.507 C 3.659 13.582,4.573 13.598,8.512 13.599 L 12.371 13.600 12.592 13.531 C 13.392 13.280,14.007 12.692,14.286 11.913 C 14.347 11.743,14.356 11.668,14.367 11.277 C 14.376 10.926,14.370 10.800,14.335 10.665 C 14.264 10.389,14.121 10.068,13.962 9.829 C 13.880 9.706,13.813 9.599,13.813 9.591 C 13.813 9.583,13.878 9.480,13.957 9.361 C 14.111 9.132,14.268 8.787,14.333 8.534 C 14.389 8.320,14.388 7.667,14.332 7.452 C 14.262 7.184,14.118 6.863,13.962 6.629 C 13.880 6.506,13.813 6.398,13.813 6.389 C 13.813 6.381,13.869 6.293,13.938 6.194 C 14.304 5.662,14.463 5.006,14.363 4.436 C 14.268 3.889,14.023 3.432,13.620 3.051 C 13.366 2.811,13.092 2.645,12.753 2.523 L 12.520 2.440 8.173 2.437 C 5.783 2.435,3.719 2.443,3.587 2.454 M12.362 4.095 C 12.485 4.165,12.640 4.326,12.712 4.458 C 12.748 4.525,12.760 4.606,12.760 4.787 C 12.760 5.003,12.752 5.041,12.680 5.171 C 12.602 5.312,12.432 5.464,12.248 5.557 C 12.171 5.596,11.833 5.600,8.648 5.599 C 5.110 5.598,3.842 5.578,3.693 5.521 C 3.601 5.485,3.381 5.279,3.304 5.155 C 3.235 5.045,3.209 4.747,3.251 4.569 C 3.295 4.385,3.449 4.189,3.613 4.107 L 3.747 4.040 5.053 4.025 C 5.772 4.017,7.686 4.015,9.307 4.022 L 12.253 4.033 12.362 4.095 M12.344 7.276 C 12.458 7.341,12.643 7.529,12.702 7.639 C 12.749 7.726,12.760 7.792,12.760 7.987 C 12.760 8.203,12.752 8.241,12.680 8.371 C 12.602 8.512,12.432 8.664,12.248 8.757 C 12.171 8.796,11.833 8.800,8.648 8.799 C 5.110 8.798,3.842 8.778,3.693 8.721 C 3.601 8.685,3.381 8.479,3.304 8.355 C 3.235 8.245,3.208 7.943,3.251 7.772 C 3.289 7.619,3.408 7.440,3.536 7.343 C 3.607 7.289,3.675 7.266,3.809 7.252 C 3.907 7.241,5.853 7.234,8.133 7.236 C 11.579 7.239,12.291 7.246,12.344 7.276 M12.363 10.486 C 12.516 10.569,12.711 10.811,12.747 10.963 C 12.826 11.291,12.714 11.630,12.467 11.814 C 12.194 12.018,12.565 12.000,8.608 11.998 C 4.750 11.997,3.836 11.981,3.674 11.912 C 3.563 11.865,3.353 11.661,3.290 11.541 C 3.233 11.429,3.213 11.128,3.253 10.962 C 3.288 10.817,3.440 10.596,3.560 10.518 C 3.596 10.494,3.689 10.465,3.766 10.453 C 3.844 10.441,5.791 10.433,8.093 10.436 C 11.970 10.440,12.286 10.444,12.363 10.486 " fill="#1A1C1F" stroke="none" fill-rule="evenodd"></path></svg>