<svg width="28" height="28" viewBox="0 0 28 28" fill="none" xmlns="http://www.w3.org/2000/svg"><path d="M4.433 2.702 L 3.570 2.730 3.220 2.916 C 2.742 3.171,2.261 3.651,2.042 4.092 C 1.772 4.638,1.750 4.861,1.750 7.140 L 1.750 9.170 1.882 9.529 C 1.955 9.727,2.098 10.027,2.200 10.196 L 2.385 10.503 2.173 10.843 C 2.044 11.050,1.920 11.329,1.859 11.554 C 1.762 11.907,1.757 12.016,1.754 14.047 L 1.750 16.170 1.882 16.529 C 1.955 16.727,2.098 17.027,2.200 17.196 L 2.385 17.503 2.178 17.840 C 1.796 18.460,1.726 18.887,1.729 20.555 C 1.732 22.374,1.790 23.355,1.912 23.659 C 2.209 24.403,2.921 25.036,3.777 25.317 C 4.018 25.396,4.524 25.399,14.044 25.372 C 21.016 25.353,24.119 25.329,24.261 25.294 C 25.032 25.103,25.761 24.431,26.094 23.605 L 26.250 23.217 26.250 20.977 L 26.250 18.737 26.098 18.388 C 26.015 18.196,25.872 17.918,25.781 17.770 L 25.616 17.502 25.801 17.196 C 25.902 17.027,26.045 16.727,26.118 16.529 L 26.250 16.170 26.250 14.140 C 26.250 11.955,26.227 11.675,26.011 11.200 C 25.947 11.059,25.831 10.845,25.754 10.724 L 25.614 10.505 25.800 10.197 C 25.902 10.028,26.045 9.727,26.118 9.529 L 26.250 9.170 26.245 7.140 C 26.242 5.744,26.223 5.003,26.182 4.768 C 26.113 4.366,25.889 3.897,25.615 3.578 C 25.374 3.299,24.855 2.930,24.506 2.790 L 24.243 2.685 14.770 2.680 C 9.560 2.677,4.908 2.687,4.433 2.702 M24.043 4.518 C 24.138 4.577,24.269 4.689,24.335 4.766 L 24.453 4.907 24.453 7.021 L 24.453 9.136 24.269 9.302 C 23.880 9.654,24.908 9.623,13.983 9.604 C 3.082 9.585,4.002 9.615,3.698 9.269 L 3.547 9.097 3.547 7.003 L 3.547 4.909 3.751 4.683 L 3.956 4.457 6.610 4.431 C 8.069 4.417,12.550 4.406,16.567 4.407 L 23.870 4.410 24.043 4.518 M5.845 6.200 C 5.549 6.285,5.273 6.654,5.273 6.965 C 5.273 7.793,6.301 8.173,6.794 7.528 C 7.303 6.860,6.662 5.964,5.845 6.200 M18.035 6.225 C 17.957 6.259,17.828 6.353,17.747 6.433 C 17.359 6.822,17.453 7.410,17.957 7.748 L 18.177 7.895 20.113 7.875 C 21.486 7.860,22.091 7.838,22.190 7.797 C 22.623 7.621,22.847 7.059,22.650 6.642 C 22.608 6.553,22.479 6.408,22.363 6.320 L 22.153 6.160 20.165 6.162 C 18.623 6.163,18.145 6.177,18.035 6.225 M23.917 11.478 C 24.039 11.507,24.163 11.586,24.278 11.709 L 24.453 11.896 24.453 13.990 L 24.453 16.083 24.289 16.275 C 24.199 16.380,24.047 16.494,23.951 16.528 C 23.695 16.619,4.307 16.620,4.051 16.529 C 3.957 16.496,3.805 16.385,3.713 16.284 L 3.547 16.100 3.547 14.006 C 3.547 11.968,3.549 11.909,3.642 11.791 C 3.864 11.509,3.995 11.459,4.597 11.427 C 5.479 11.379,23.703 11.428,23.917 11.478 M5.845 13.200 C 5.549 13.285,5.273 13.654,5.273 13.965 C 5.273 14.793,6.301 15.173,6.794 14.528 C 7.303 13.860,6.662 12.964,5.845 13.200 M18.035 13.225 C 17.957 13.259,17.828 13.353,17.747 13.433 C 17.359 13.822,17.453 14.410,17.957 14.748 L 18.177 14.895 20.113 14.875 C 21.486 14.860,22.091 14.838,22.190 14.797 C 22.623 14.621,22.847 14.059,22.650 13.642 C 22.608 13.553,22.479 13.408,22.363 13.320 L 22.153 13.160 20.165 13.162 C 18.623 13.163,18.145 13.177,18.035 13.225 M24.043 18.518 C 24.138 18.577,24.269 18.689,24.335 18.766 L 24.453 18.907 24.451 21.015 L 24.449 23.123 24.297 23.295 C 24.191 23.416,24.077 23.486,23.914 23.529 C 23.727 23.578,21.845 23.590,13.953 23.590 C 8.602 23.590,4.164 23.574,4.092 23.553 C 4.020 23.533,3.868 23.431,3.754 23.326 L 3.547 23.135 3.547 21.024 C 3.547 18.968,3.549 18.909,3.642 18.791 C 3.872 18.499,3.987 18.459,4.667 18.430 C 5.013 18.415,9.476 18.404,14.583 18.406 L 23.870 18.410 24.043 18.518 M5.845 20.200 C 5.549 20.285,5.273 20.654,5.273 20.965 C 5.273 21.793,6.301 22.173,6.794 21.528 C 7.303 20.860,6.662 19.964,5.845 20.200 M17.978 20.258 C 17.742 20.375,17.617 20.537,17.540 20.825 C 17.492 21.006,17.495 21.067,17.565 21.249 C 17.609 21.366,17.690 21.518,17.744 21.586 C 17.940 21.835,18.049 21.851,19.670 21.874 C 20.491 21.885,21.396 21.875,21.681 21.852 C 22.137 21.814,22.218 21.794,22.366 21.682 C 22.621 21.487,22.699 21.339,22.701 21.047 C 22.704 20.663,22.656 20.553,22.395 20.347 L 22.158 20.160 20.167 20.160 C 18.237 20.160,18.171 20.163,17.978 20.258 " fill="#1A1C1F" stroke="none" fill-rule="evenodd"></path></svg>