<svg width="24" height="24" viewBox="0 0 24 24" fill="none" xmlns="http://www.w3.org/2000/svg"><path d="M4.020 2.078 C 3.286 2.146,2.466 2.863,2.117 3.742 L 2.023 3.980 2.022 5.900 C 2.021 8.054,2.023 8.079,2.297 8.661 L 2.467 9.022 2.336 9.258 C 2.264 9.388,2.164 9.621,2.113 9.777 C 2.021 10.057,2.020 10.081,2.021 11.940 C 2.022 14.049,2.025 14.083,2.297 14.661 L 2.467 15.022 2.336 15.258 C 2.264 15.388,2.164 15.621,2.113 15.777 C 2.021 16.057,2.020 16.081,2.020 17.960 C 2.020 20.062,2.023 20.092,2.288 20.629 C 2.532 21.126,3.198 21.706,3.709 21.868 C 4.025 21.967,6.054 21.995,13.260 21.997 L 19.940 21.999 20.267 21.866 C 20.750 21.670,21.017 21.494,21.318 21.173 C 21.617 20.854,21.837 20.450,21.926 20.060 C 21.967 19.876,21.980 19.387,21.979 17.960 C 21.977 15.867,21.973 15.834,21.680 15.291 L 21.523 15.000 21.680 14.709 C 21.976 14.161,21.978 14.138,21.978 12.000 C 21.978 9.862,21.976 9.839,21.680 9.291 L 21.523 9.000 21.680 8.709 C 21.979 8.155,21.980 8.144,21.977 5.960 L 21.974 4.020 21.872 3.733 C 21.620 3.024,21.051 2.449,20.292 2.137 L 20.060 2.042 12.180 2.047 C 7.846 2.050,4.174 2.063,4.020 2.078 M19.849 4.151 L 19.940 4.242 19.940 6.000 C 19.940 7.988,19.961 7.863,19.613 7.928 C 19.349 7.977,8.963 8.012,6.351 7.972 C 4.248 7.940,4.242 7.940,4.154 7.851 C 4.074 7.772,4.061 7.702,4.030 7.191 C 4.010 6.877,4.001 6.125,4.008 5.520 C 4.021 4.522,4.030 4.405,4.101 4.261 C 4.150 4.161,4.217 4.092,4.280 4.075 C 4.335 4.060,7.840 4.050,12.069 4.054 L 19.758 4.060 19.849 4.151 M5.789 5.044 C 5.317 5.153,5.026 5.519,5.026 6.000 C 5.026 6.452,5.302 6.814,5.743 6.943 C 6.125 7.054,6.468 6.947,6.737 6.632 C 7.002 6.323,7.057 5.908,6.879 5.560 C 6.688 5.186,6.191 4.951,5.789 5.044 M19.849 10.151 L 19.940 10.242 19.940 12.000 C 19.940 13.988,19.961 13.863,19.613 13.928 C 19.349 13.977,8.963 14.012,6.351 13.972 C 4.248 13.940,4.242 13.940,4.154 13.851 C 4.074 13.772,4.061 13.702,4.030 13.191 C 4.010 12.877,4.001 12.125,4.008 11.520 C 4.021 10.522,4.030 10.405,4.101 10.261 C 4.150 10.161,4.217 10.092,4.280 10.075 C 4.335 10.060,7.840 10.050,12.069 10.054 L 19.758 10.060 19.849 10.151 M5.789 11.044 C 5.317 11.153,5.026 11.519,5.026 12.000 C 5.026 12.452,5.302 12.814,5.743 12.943 C 6.125 13.054,6.468 12.947,6.737 12.632 C 7.002 12.323,7.057 11.908,6.879 11.560 C 6.688 11.186,6.191 10.951,5.789 11.044 M19.849 16.151 L 19.940 16.242 19.940 18.000 C 19.940 19.988,19.961 19.863,19.613 19.928 C 19.349 19.977,8.963 20.012,6.351 19.972 C 4.248 19.940,4.242 19.940,4.154 19.851 C 4.074 19.772,4.061 19.702,4.030 19.191 C 4.010 18.877,4.001 18.125,4.008 17.520 C 4.021 16.522,4.030 16.405,4.101 16.261 C 4.150 16.161,4.217 16.092,4.280 16.075 C 4.335 16.060,7.840 16.050,12.069 16.054 L 19.758 16.060 19.849 16.151 M5.789 17.044 C 5.317 17.153,5.026 17.519,5.026 18.000 C 5.026 18.452,5.302 18.814,5.743 18.943 C 6.125 19.054,6.468 18.947,6.737 18.632 C 7.002 18.323,7.057 17.908,6.879 17.560 C 6.688 17.186,6.191 16.951,5.789 17.044 " fill="#1A1C1F" stroke="none" fill-rule="evenodd"></path></svg>