<svg width="12" height="12" viewBox="0 0 12 12" fill="none" xmlns="http://www.w3.org/2000/svg"><path d="M2.649 1.840 C 2.290 1.878,1.843 2.155,1.580 2.503 C 1.332 2.830,1.213 3.176,1.212 3.570 C 1.211 3.981,1.311 4.299,1.549 4.647 C 1.599 4.720,1.640 4.786,1.640 4.792 C 1.640 4.799,1.591 4.878,1.531 4.968 C 1.407 5.153,1.322 5.342,1.257 5.572 C 1.193 5.798,1.193 6.180,1.257 6.420 C 1.313 6.628,1.423 6.865,1.547 7.045 C 1.598 7.120,1.640 7.186,1.640 7.192 C 1.640 7.199,1.591 7.277,1.532 7.367 C 1.108 8.005,1.098 8.776,1.506 9.380 C 1.743 9.730,2.148 10.027,2.530 10.131 C 2.717 10.181,4.141 10.202,6.900 10.195 C 9.107 10.190,9.299 10.187,9.410 10.154 C 9.749 10.055,9.959 9.936,10.202 9.705 C 10.493 9.428,10.654 9.167,10.741 8.830 C 10.791 8.634,10.797 8.219,10.752 8.007 C 10.712 7.816,10.604 7.570,10.472 7.372 C 10.410 7.279,10.360 7.199,10.360 7.192 C 10.360 7.186,10.402 7.120,10.453 7.045 C 10.572 6.873,10.686 6.632,10.739 6.440 C 10.793 6.245,10.797 5.782,10.747 5.581 C 10.698 5.383,10.596 5.159,10.472 4.972 C 10.410 4.879,10.360 4.799,10.360 4.793 C 10.360 4.787,10.413 4.703,10.479 4.606 C 10.724 4.241,10.840 3.765,10.780 3.370 C 10.669 2.637,10.175 2.070,9.468 1.862 C 9.326 1.820,9.318 1.820,6.058 1.823 C 4.261 1.824,2.727 1.832,2.649 1.840 M9.281 3.076 C 9.379 3.139,9.480 3.246,9.535 3.345 C 9.561 3.393,9.570 3.456,9.570 3.590 C 9.570 3.753,9.564 3.780,9.510 3.878 C 9.474 3.944,9.411 4.016,9.349 4.062 C 9.152 4.211,9.359 4.200,6.776 4.198 C 5.497 4.197,4.080 4.190,3.629 4.183 L 2.807 4.170 2.729 4.118 C 2.528 3.985,2.421 3.809,2.420 3.614 C 2.420 3.448,2.452 3.341,2.537 3.230 C 2.637 3.098,2.696 3.059,2.822 3.041 C 2.882 3.032,4.339 3.024,6.061 3.022 L 9.192 3.020 9.281 3.076 M9.284 5.476 C 9.397 5.546,9.536 5.712,9.562 5.807 C 9.575 5.854,9.580 5.953,9.574 6.034 C 9.560 6.221,9.489 6.357,9.349 6.462 C 9.152 6.611,9.359 6.600,6.776 6.598 C 5.497 6.597,4.080 6.590,3.629 6.583 L 2.807 6.570 2.729 6.518 C 2.528 6.385,2.421 6.209,2.420 6.014 C 2.420 5.848,2.452 5.741,2.537 5.630 C 2.637 5.498,2.696 5.459,2.822 5.440 C 2.882 5.431,4.343 5.426,6.070 5.427 L 9.210 5.430 9.284 5.476 M9.272 7.864 C 9.373 7.919,9.536 8.112,9.562 8.206 C 9.574 8.252,9.580 8.354,9.575 8.431 C 9.564 8.615,9.490 8.756,9.349 8.862 C 9.152 9.011,9.359 9.000,6.776 8.998 C 5.497 8.997,4.080 8.990,3.629 8.983 L 2.807 8.970 2.729 8.918 C 2.528 8.785,2.421 8.609,2.420 8.414 C 2.420 8.248,2.452 8.141,2.537 8.030 C 2.639 7.896,2.698 7.858,2.833 7.839 C 2.897 7.831,4.358 7.825,6.080 7.827 C 8.985 7.830,9.214 7.832,9.272 7.864 " fill="#1A1C1F" stroke="none" fill-rule="evenodd"></path></svg>