<svg width="20" height="20" viewBox="0 0 20 20" fill="none" xmlns="http://www.w3.org/2000/svg"><path d="M4.416 3.067 C 3.817 3.130,3.071 3.592,2.633 4.172 C 2.217 4.722,2.023 5.284,2.021 5.950 C 2.018 6.635,2.172 7.132,2.571 7.723 C 2.660 7.856,2.733 7.973,2.733 7.985 C 2.733 7.997,2.649 8.132,2.547 8.287 C 2.339 8.599,2.174 8.965,2.082 9.317 C 1.990 9.668,1.996 10.328,2.095 10.698 C 2.190 11.054,2.353 11.406,2.566 11.719 C 2.658 11.854,2.733 11.974,2.733 11.985 C 2.733 11.997,2.651 12.129,2.551 12.280 C 2.345 12.591,2.194 12.924,2.093 13.295 C 2.037 13.497,2.023 13.648,2.023 14.017 C 2.022 14.430,2.033 14.518,2.113 14.782 C 2.456 15.911,3.407 16.763,4.518 16.937 C 4.675 16.962,6.472 16.979,10.097 16.989 L 15.444 17.005 15.730 16.916 C 16.791 16.586,17.619 15.754,17.898 14.734 C 17.986 14.414,17.995 13.624,17.915 13.315 C 17.828 12.980,17.648 12.579,17.453 12.286 C 17.350 12.132,17.267 11.998,17.267 11.989 C 17.267 11.979,17.348 11.850,17.447 11.702 C 17.639 11.415,17.834 10.984,17.917 10.667 C 17.986 10.400,17.985 9.584,17.915 9.315 C 17.828 8.980,17.648 8.579,17.453 8.286 C 17.350 8.132,17.267 7.996,17.267 7.984 C 17.267 7.972,17.334 7.867,17.417 7.751 C 18.041 6.876,18.159 5.700,17.718 4.745 C 17.356 3.962,16.660 3.379,15.750 3.096 C 15.558 3.036,15.332 3.034,10.100 3.038 C 7.102 3.040,4.545 3.054,4.416 3.067 M15.470 5.128 C 15.942 5.428,16.102 5.996,15.846 6.468 C 15.741 6.663,15.457 6.898,15.242 6.969 C 15.091 7.019,4.930 6.989,4.725 6.938 C 4.554 6.895,4.306 6.699,4.168 6.497 C 4.072 6.357,4.050 6.291,4.039 6.109 C 4.019 5.794,4.080 5.565,4.236 5.367 C 4.392 5.170,4.519 5.098,4.767 5.066 C 4.867 5.053,7.283 5.040,10.135 5.038 L 15.320 5.033 15.470 5.128 M15.430 9.095 C 15.573 9.177,15.804 9.411,15.878 9.549 C 15.936 9.658,15.950 9.740,15.950 9.983 C 15.950 10.254,15.940 10.301,15.850 10.464 C 15.740 10.663,15.457 10.898,15.242 10.969 C 15.091 11.019,4.930 10.989,4.725 10.938 C 4.554 10.895,4.306 10.699,4.168 10.497 C 4.072 10.357,4.050 10.291,4.039 10.109 C 4.019 9.794,4.080 9.565,4.236 9.367 C 4.407 9.150,4.495 9.096,4.726 9.066 C 4.831 9.052,7.264 9.043,10.133 9.045 C 14.468 9.049,15.363 9.058,15.430 9.095 M15.453 13.107 C 15.645 13.212,15.889 13.514,15.934 13.703 C 15.994 13.952,15.957 14.265,15.843 14.475 C 15.741 14.663,15.453 14.900,15.242 14.969 C 15.091 15.019,4.930 14.989,4.725 14.938 C 4.554 14.895,4.306 14.699,4.168 14.497 C 4.072 14.357,4.050 14.291,4.039 14.109 C 4.019 13.794,4.080 13.565,4.236 13.367 C 4.407 13.151,4.495 13.096,4.726 13.065 C 4.831 13.051,7.264 13.042,10.133 13.045 C 14.967 13.050,15.358 13.055,15.453 13.107 " fill="#1A1C1F" stroke="none" fill-rule="evenodd"></path></svg>