<svg width="14" height="14" viewBox="0 0 14 14" fill="none" xmlns="http://www.w3.org/2000/svg"><path d="M3.662 2.120 L 2.435 2.135 2.230 2.236 C 2.001 2.350,1.735 2.582,1.609 2.778 C 1.348 3.184,1.348 3.816,1.609 4.222 C 1.719 4.392,1.995 4.643,2.182 4.740 C 2.514 4.914,2.102 4.901,7.048 4.894 L 11.492 4.888 11.671 4.811 C 11.900 4.712,12.025 4.629,12.182 4.469 C 12.342 4.305,12.472 4.092,12.533 3.891 C 12.574 3.757,12.580 3.687,12.572 3.436 C 12.564 3.161,12.557 3.124,12.484 2.954 C 12.423 2.810,12.369 2.730,12.241 2.595 C 11.948 2.287,11.751 2.179,11.417 2.146 C 11.140 2.119,5.397 2.099,3.662 2.120 M3.148 2.918 C 3.387 3.045,3.496 3.270,3.471 3.583 C 3.457 3.758,3.387 3.893,3.242 4.023 C 3.108 4.144,3.004 4.183,2.812 4.184 C 2.596 4.186,2.438 4.117,2.300 3.963 C 1.987 3.615,2.097 3.067,2.520 2.870 C 2.606 2.831,2.660 2.823,2.812 2.830 C 2.971 2.836,3.021 2.850,3.148 2.918 M3.662 5.620 L 2.435 5.635 2.230 5.736 C 2.001 5.850,1.735 6.082,1.609 6.278 C 1.348 6.684,1.348 7.316,1.609 7.722 C 1.719 7.892,1.995 8.143,2.182 8.240 C 2.514 8.414,2.102 8.401,7.048 8.394 L 11.492 8.388 11.671 8.311 C 11.900 8.212,12.025 8.129,12.182 7.969 C 12.342 7.805,12.472 7.592,12.533 7.391 C 12.574 7.257,12.580 7.187,12.572 6.936 C 12.564 6.661,12.557 6.624,12.484 6.454 C 12.423 6.310,12.369 6.230,12.241 6.095 C 11.948 5.787,11.751 5.679,11.417 5.646 C 11.140 5.619,5.397 5.599,3.662 5.620 M3.152 6.420 C 3.334 6.520,3.441 6.675,3.467 6.876 C 3.524 7.339,3.246 7.683,2.812 7.685 C 2.619 7.686,2.482 7.633,2.338 7.503 C 2.190 7.369,2.123 7.214,2.124 7.001 C 2.124 6.790,2.185 6.638,2.325 6.505 C 2.474 6.363,2.593 6.320,2.813 6.330 C 2.976 6.337,3.022 6.349,3.152 6.420 M3.662 9.120 L 2.435 9.135 2.230 9.236 C 2.001 9.350,1.735 9.582,1.609 9.778 C 1.348 10.184,1.348 10.816,1.609 11.222 C 1.719 11.392,1.995 11.643,2.182 11.740 C 2.514 11.914,2.102 11.901,7.048 11.894 L 11.492 11.888 11.671 11.811 C 11.900 11.712,12.025 11.629,12.182 11.469 C 12.342 11.305,12.472 11.092,12.533 10.891 C 12.574 10.757,12.580 10.687,12.572 10.436 C 12.564 10.161,12.557 10.124,12.484 9.954 C 12.423 9.810,12.369 9.730,12.241 9.595 C 11.948 9.287,11.751 9.179,11.417 9.146 C 11.140 9.119,5.397 9.099,3.662 9.120 M3.152 9.920 C 3.334 10.020,3.441 10.175,3.467 10.376 C 3.524 10.839,3.246 11.183,2.812 11.185 C 2.619 11.186,2.482 11.133,2.338 11.003 C 2.190 10.869,2.123 10.714,2.124 10.501 C 2.124 10.290,2.185 10.138,2.325 10.005 C 2.474 9.863,2.593 9.820,2.813 9.830 C 2.976 9.837,3.022 9.849,3.152 9.920 " fill="#1A1C1F" stroke="none" fill-rule="evenodd"></path></svg>