<svg width="16" height="16" viewBox="0 0 16 16" fill="none" xmlns="http://www.w3.org/2000/svg"><path d="M4.171 2.423 L 2.783 2.440 2.545 2.557 C 2.352 2.652,2.263 2.718,2.077 2.904 C 1.808 3.173,1.707 3.359,1.637 3.714 C 1.539 4.214,1.703 4.728,2.085 5.114 C 2.271 5.302,2.472 5.426,2.751 5.525 L 2.964 5.600 8.000 5.600 L 13.036 5.600 13.249 5.525 C 13.366 5.483,13.530 5.408,13.614 5.358 C 13.810 5.239,14.098 4.936,14.204 4.733 C 14.349 4.459,14.380 4.305,14.368 3.924 C 14.358 3.611,14.351 3.571,14.266 3.373 C 14.195 3.209,14.131 3.115,13.987 2.964 C 13.655 2.614,13.429 2.491,13.048 2.453 C 12.732 2.421,6.147 2.399,4.171 2.423 M3.598 3.334 C 3.799 3.442,3.901 3.580,3.949 3.809 C 4.015 4.131,3.935 4.390,3.705 4.598 C 3.552 4.736,3.433 4.781,3.213 4.782 C 2.967 4.783,2.786 4.705,2.628 4.530 C 2.270 4.131,2.396 3.505,2.880 3.280 C 2.978 3.235,3.040 3.226,3.213 3.234 C 3.395 3.242,3.452 3.257,3.598 3.334 M4.171 6.423 L 2.783 6.440 2.545 6.557 C 2.352 6.652,2.263 6.718,2.077 6.904 C 1.808 7.173,1.707 7.359,1.637 7.714 C 1.539 8.214,1.703 8.728,2.085 9.114 C 2.271 9.302,2.472 9.426,2.751 9.525 L 2.964 9.600 8.000 9.600 L 13.036 9.600 13.249 9.525 C 13.366 9.483,13.530 9.408,13.614 9.358 C 13.810 9.239,14.098 8.936,14.204 8.733 C 14.349 8.459,14.380 8.305,14.368 7.924 C 14.358 7.611,14.351 7.571,14.266 7.373 C 14.195 7.209,14.131 7.115,13.987 6.964 C 13.655 6.614,13.429 6.491,13.048 6.453 C 12.732 6.421,6.147 6.399,4.171 6.423 M3.598 7.334 C 3.722 7.400,3.789 7.458,3.843 7.543 C 3.993 7.779,4.012 8.165,3.885 8.380 C 3.615 8.836,3.058 8.923,2.666 8.570 C 2.500 8.420,2.427 8.247,2.427 8.000 C 2.427 7.760,2.498 7.587,2.657 7.435 C 2.827 7.273,2.964 7.223,3.213 7.234 C 3.395 7.242,3.452 7.257,3.598 7.334 M4.171 10.423 L 2.783 10.440 2.545 10.557 C 2.352 10.652,2.263 10.718,2.077 10.904 C 1.808 11.173,1.707 11.359,1.637 11.714 C 1.539 12.214,1.703 12.728,2.085 13.114 C 2.271 13.302,2.472 13.426,2.751 13.525 L 2.964 13.600 8.000 13.600 L 13.036 13.600 13.249 13.525 C 13.366 13.483,13.530 13.408,13.614 13.358 C 13.810 13.239,14.098 12.936,14.204 12.733 C 14.349 12.459,14.380 12.305,14.368 11.924 C 14.358 11.611,14.351 11.571,14.266 11.373 C 14.195 11.209,14.131 11.115,13.987 10.964 C 13.655 10.614,13.429 10.491,13.048 10.453 C 12.732 10.421,6.147 10.399,4.171 10.423 M3.598 11.334 C 3.722 11.400,3.789 11.458,3.843 11.543 C 3.993 11.779,4.012 12.165,3.885 12.380 C 3.615 12.836,3.058 12.923,2.666 12.570 C 2.500 12.420,2.427 12.247,2.427 12.000 C 2.427 11.760,2.498 11.587,2.657 11.435 C 2.827 11.273,2.964 11.223,3.213 11.234 C 3.395 11.242,3.452 11.257,3.598 11.334 " fill="#1A1C1F" stroke="none" fill-rule="evenodd"></path></svg>