<svg width="12" height="12" viewBox="0 0 12 12" fill="none" xmlns="http://www.w3.org/2000/svg"><path d="M2.160 1.839 C 1.961 1.860,1.769 1.968,1.559 2.179 C 1.366 2.373,1.302 2.487,1.240 2.744 C 1.190 2.953,1.190 3.073,1.240 3.268 C 1.295 3.484,1.386 3.645,1.555 3.822 C 1.712 3.987,1.846 4.070,2.084 4.151 L 2.227 4.200 5.998 4.200 L 9.770 4.200 9.923 4.149 C 10.334 4.012,10.635 3.707,10.751 3.309 C 10.806 3.122,10.799 2.830,10.733 2.630 C 10.705 2.542,10.655 2.429,10.624 2.380 C 10.496 2.181,10.236 1.970,10.003 1.876 L 9.890 1.830 6.090 1.827 C 4.000 1.826,2.232 1.831,2.160 1.839 M2.698 2.501 C 2.849 2.581,2.926 2.685,2.961 2.857 C 3.012 3.098,2.952 3.293,2.779 3.449 C 2.669 3.548,2.576 3.585,2.430 3.588 C 2.192 3.592,2.005 3.488,1.887 3.286 C 1.817 3.167,1.800 2.951,1.849 2.804 C 1.892 2.673,2.022 2.527,2.149 2.466 C 2.235 2.425,2.273 2.419,2.410 2.425 C 2.546 2.431,2.589 2.443,2.698 2.501 M2.160 4.839 C 1.961 4.860,1.769 4.968,1.559 5.179 C 1.366 5.373,1.302 5.487,1.240 5.744 C 1.190 5.953,1.190 6.073,1.240 6.268 C 1.295 6.484,1.386 6.645,1.555 6.822 C 1.712 6.987,1.846 7.070,2.084 7.151 L 2.227 7.200 5.998 7.200 L 9.770 7.200 9.923 7.149 C 10.334 7.012,10.635 6.707,10.751 6.309 C 10.806 6.122,10.799 5.830,10.733 5.630 C 10.705 5.542,10.655 5.430,10.624 5.380 C 10.496 5.181,10.236 4.970,10.003 4.876 L 9.890 4.830 6.090 4.827 C 4.000 4.826,2.232 4.831,2.160 4.839 M2.698 5.501 C 2.849 5.581,2.926 5.685,2.961 5.857 C 2.990 5.993,2.976 6.171,2.931 6.258 C 2.876 6.364,2.759 6.480,2.651 6.535 C 2.518 6.603,2.314 6.608,2.178 6.546 C 2.050 6.489,1.932 6.376,1.871 6.255 C 1.800 6.113,1.799 5.895,1.868 5.750 C 1.925 5.629,2.038 5.517,2.160 5.460 C 2.233 5.426,2.280 5.420,2.410 5.425 C 2.546 5.431,2.589 5.443,2.698 5.501 M2.160 7.839 C 1.961 7.860,1.769 7.968,1.559 8.179 C 1.366 8.373,1.302 8.487,1.240 8.744 C 1.190 8.953,1.190 9.073,1.240 9.268 C 1.295 9.484,1.386 9.645,1.555 9.822 C 1.712 9.987,1.846 10.070,2.084 10.151 L 2.227 10.200 5.998 10.200 L 9.770 10.200 9.923 10.149 C 10.334 10.012,10.635 9.707,10.751 9.309 C 10.806 9.122,10.799 8.830,10.733 8.630 C 10.705 8.542,10.655 8.430,10.624 8.380 C 10.496 8.181,10.236 7.970,10.003 7.876 L 9.890 7.830 6.090 7.827 C 4.000 7.826,2.232 7.831,2.160 7.839 M2.698 8.501 C 2.849 8.581,2.926 8.685,2.961 8.857 C 2.990 8.993,2.976 9.171,2.931 9.258 C 2.876 9.364,2.759 9.480,2.651 9.535 C 2.518 9.603,2.314 9.608,2.178 9.546 C 2.050 9.489,1.932 9.376,1.871 9.255 C 1.800 9.113,1.799 8.895,1.868 8.750 C 1.925 8.629,2.038 8.517,2.160 8.460 C 2.233 8.426,2.280 8.420,2.410 8.425 C 2.546 8.431,2.589 8.443,2.698 8.501 " fill="#1A1C1F" stroke="none" fill-rule="evenodd"></path></svg>