<svg width="32" height="32" viewBox="0 0 32 32" fill="none" xmlns="http://www.w3.org/2000/svg"><path d="M4.773 3.090 C 4.101 3.121,4.068 3.128,3.680 3.328 C 2.861 3.751,2.216 4.600,2.072 5.444 C 2.037 5.651,2.011 6.716,2.007 8.133 L 2.000 10.480 2.151 10.891 C 2.234 11.117,2.398 11.460,2.514 11.652 L 2.726 12.003 2.483 12.393 C 2.336 12.629,2.195 12.948,2.124 13.204 C 2.013 13.608,2.008 13.733,2.004 16.053 L 2.000 18.480 2.151 18.891 C 2.234 19.117,2.398 19.460,2.514 19.653 L 2.726 20.005 2.505 20.356 C 2.010 21.139,1.946 21.641,1.990 24.375 C 2.009 25.540,2.048 26.498,2.084 26.668 C 2.181 27.132,2.487 27.656,2.910 28.085 C 3.216 28.395,3.390 28.519,3.818 28.728 L 4.347 28.987 15.867 28.981 C 24.352 28.977,27.461 28.960,27.671 28.914 C 28.577 28.718,29.430 27.949,29.821 26.978 L 30.000 26.533 30.000 23.973 L 30.000 21.413 29.827 21.014 C 29.731 20.795,29.568 20.478,29.464 20.309 L 29.275 20.002 29.486 19.652 C 29.603 19.459,29.766 19.117,29.849 18.891 L 30.000 18.480 29.998 16.080 C 29.996 14.006,29.983 13.631,29.905 13.320 C 29.812 12.950,29.636 12.559,29.403 12.207 L 29.271 12.008 29.485 11.655 C 29.602 11.461,29.766 11.117,29.849 10.891 L 30.000 10.480 29.993 8.133 C 29.988 6.723,29.962 5.648,29.927 5.440 C 29.857 5.019,29.575 4.437,29.274 4.090 C 28.999 3.771,28.406 3.350,28.007 3.188 L 27.707 3.067 16.587 3.062 C 10.471 3.059,5.155 3.072,4.773 3.090 M27.478 5.163 C 27.587 5.231,27.737 5.358,27.811 5.447 L 27.947 5.608 27.947 8.002 L 27.947 10.396 27.783 10.583 C 27.693 10.685,27.537 10.820,27.436 10.883 L 27.252 10.996 16.013 10.976 C 3.520 10.955,4.574 10.989,4.226 10.593 L 4.053 10.396 4.053 8.003 L 4.053 5.610 4.287 5.352 L 4.521 5.093 7.634 5.064 C 9.346 5.048,14.467 5.036,19.013 5.037 L 27.280 5.040 27.478 5.163 M6.674 7.078 C 6.477 7.116,6.092 7.533,6.051 7.756 C 5.926 8.420,6.359 8.960,7.017 8.960 C 7.491 8.960,7.826 8.687,7.948 8.204 C 8.028 7.887,7.954 7.641,7.695 7.354 C 7.449 7.082,7.122 6.993,6.674 7.078 M20.723 7.079 C 20.499 7.136,20.213 7.380,20.102 7.610 C 19.888 8.051,20.053 8.540,20.522 8.854 L 20.773 9.023 22.987 9.000 C 24.567 8.984,25.246 8.959,25.360 8.912 C 25.856 8.709,26.111 8.067,25.886 7.591 C 25.837 7.490,25.690 7.324,25.558 7.223 L 25.318 7.040 23.072 7.046 C 21.837 7.050,20.780 7.064,20.723 7.079 M27.333 13.118 C 27.474 13.151,27.615 13.241,27.747 13.382 L 27.947 13.596 27.947 15.988 L 27.947 18.381 27.759 18.600 C 27.656 18.720,27.482 18.851,27.372 18.889 C 27.080 18.993,4.923 18.994,4.630 18.890 C 4.522 18.852,4.348 18.726,4.244 18.610 L 4.053 18.400 4.053 16.007 C 4.053 13.678,4.056 13.611,4.162 13.476 C 4.416 13.153,4.566 13.096,5.253 13.059 C 6.262 13.005,27.089 13.060,27.333 13.118 M6.587 15.138 C 6.076 15.381,5.892 15.886,6.127 16.402 C 6.308 16.801,6.778 17.065,7.164 16.985 C 7.565 16.902,8.000 16.389,8.000 16.000 C 8.000 15.772,7.744 15.322,7.544 15.198 C 7.283 15.037,6.854 15.010,6.587 15.138 M20.723 15.079 C 20.499 15.136,20.213 15.380,20.102 15.610 C 19.888 16.051,20.053 16.540,20.522 16.854 L 20.773 17.023 22.987 17.000 C 24.567 16.984,25.246 16.959,25.360 16.912 C 25.856 16.709,26.111 16.067,25.886 15.591 C 25.837 15.490,25.690 15.324,25.558 15.223 L 25.318 15.040 23.072 15.046 C 21.837 15.050,20.780 15.064,20.723 15.079 M27.478 21.163 C 27.587 21.231,27.738 21.360,27.814 21.450 L 27.952 21.614 27.936 23.994 C 27.924 25.793,27.904 26.402,27.852 26.492 C 27.815 26.557,27.674 26.695,27.538 26.798 L 27.291 26.987 16.539 26.983 C 10.625 26.980,5.505 26.961,5.160 26.940 L 4.533 26.902 4.293 26.667 L 4.053 26.431 4.053 24.023 C 4.053 21.678,4.056 21.611,4.162 21.476 C 4.425 21.142,4.556 21.096,5.333 21.062 C 5.729 21.046,10.829 21.034,16.667 21.036 L 27.280 21.040 27.478 21.163 M6.587 23.138 C 6.076 23.381,5.892 23.886,6.127 24.402 C 6.308 24.801,6.778 25.065,7.164 24.985 C 7.565 24.902,8.000 24.389,8.000 24.000 C 8.000 23.772,7.744 23.322,7.544 23.198 C 7.283 23.037,6.854 23.010,6.587 23.138 M20.546 23.153 C 20.276 23.286,20.134 23.471,20.046 23.800 C 19.990 24.007,19.994 24.077,20.074 24.284 C 20.125 24.418,20.217 24.591,20.279 24.670 C 20.503 24.955,20.625 24.973,22.507 24.999 C 23.460 25.012,24.494 25.001,24.806 24.974 C 25.297 24.931,25.396 24.905,25.562 24.779 C 25.852 24.557,25.942 24.387,25.944 24.053 C 25.947 23.614,25.892 23.490,25.594 23.254 L 25.324 23.040 23.049 23.040 C 20.842 23.040,20.767 23.043,20.546 23.153 " fill="#1A1C1F" stroke="none" fill-rule="evenodd"></path></svg>