<svg width="20" height="20" viewBox="0 0 20 20" fill="none" xmlns="http://www.w3.org/2000/svg"><path d="M9.100 2.080 C 7.327 2.395,5.869 3.493,5.051 5.129 C 4.888 5.456,4.678 6.091,4.595 6.510 C 4.496 7.007,4.497 8.107,4.596 8.586 C 4.815 9.646,5.061 10.181,5.968 11.567 C 6.548 12.455,6.642 12.632,6.754 13.060 C 6.886 13.559,7.014 13.738,7.372 13.920 L 7.535 14.002 10.026 13.993 C 12.394 13.984,12.522 13.980,12.633 13.920 C 12.988 13.729,13.118 13.545,13.248 13.051 C 13.356 12.641,13.480 12.409,14.066 11.517 C 14.319 11.132,14.609 10.667,14.712 10.483 C 15.288 9.450,15.573 8.180,15.472 7.089 C 15.399 6.295,15.252 5.770,14.899 5.050 C 14.176 3.575,12.783 2.497,11.126 2.130 C 10.726 2.041,9.491 2.011,9.100 2.080 M10.582 4.072 C 11.410 4.198,12.247 4.705,12.774 5.400 C 12.984 5.676,13.240 6.198,13.356 6.583 C 13.439 6.862,13.446 6.928,13.448 7.517 C 13.450 8.106,13.443 8.176,13.356 8.517 C 13.241 8.966,13.006 9.460,12.624 10.050 C 11.833 11.275,11.691 11.504,11.576 11.742 L 11.451 12.000 10.000 12.000 L 8.549 12.000 8.424 11.742 C 8.356 11.600,8.160 11.266,7.989 11.000 C 7.817 10.734,7.537 10.299,7.366 10.033 C 6.765 9.099,6.574 8.556,6.542 7.691 C 6.522 7.144,6.558 6.837,6.688 6.438 C 6.852 5.936,7.104 5.512,7.473 5.117 C 7.769 4.799,8.072 4.574,8.450 4.387 C 9.151 4.041,9.773 3.949,10.582 4.072 M9.174 5.167 C 8.872 5.230,8.358 5.589,8.075 5.936 C 7.787 6.290,7.567 6.806,7.567 7.129 C 7.567 7.180,7.589 7.297,7.616 7.389 C 7.736 7.792,8.108 8.067,8.534 8.067 C 8.964 8.067,9.185 7.930,9.444 7.505 C 9.572 7.295,9.683 7.165,9.874 7.002 C 10.272 6.662,10.400 6.451,10.400 6.132 C 10.400 5.759,10.161 5.377,9.843 5.241 C 9.650 5.158,9.367 5.127,9.174 5.167 M7.662 15.086 C 7.463 15.147,7.197 15.386,7.098 15.591 C 6.919 15.964,7.030 16.441,7.364 16.742 C 7.568 16.925,7.697 16.966,8.142 16.990 C 8.459 17.007,8.500 17.016,8.500 17.070 C 8.500 17.201,8.649 17.519,8.775 17.655 C 8.848 17.734,8.992 17.840,9.095 17.891 L 9.283 17.983 10.017 17.983 C 10.861 17.983,10.893 17.975,11.187 17.683 C 11.350 17.521,11.500 17.228,11.500 17.070 C 11.500 17.016,11.541 17.007,11.858 16.990 C 12.303 16.966,12.432 16.925,12.636 16.742 C 13.172 16.260,13.085 15.494,12.454 15.132 L 12.283 15.034 10.050 15.036 C 8.213 15.038,7.789 15.046,7.662 15.086 " fill="#1A1C1F" stroke="none" fill-rule="evenodd"></path></svg>