<svg width="12" height="12" viewBox="0 0 12 12" fill="none" xmlns="http://www.w3.org/2000/svg"><path d="M5.460 1.248 C 4.407 1.434,3.522 2.097,3.040 3.060 C 2.931 3.277,2.793 3.696,2.751 3.940 C 2.653 4.502,2.705 5.103,2.900 5.669 C 3.048 6.097,3.170 6.324,3.611 6.990 C 3.926 7.467,3.985 7.580,4.052 7.836 C 4.130 8.129,4.191 8.218,4.397 8.339 L 4.504 8.401 6.007 8.396 C 7.436 8.390,7.513 8.388,7.580 8.352 C 7.793 8.237,7.871 8.127,7.949 7.830 C 8.013 7.585,8.082 7.457,8.436 6.915 C 8.788 6.378,8.877 6.223,8.989 5.953 C 9.239 5.357,9.318 4.893,9.279 4.261 C 9.232 3.508,8.919 2.796,8.391 2.244 C 7.900 1.733,7.359 1.432,6.637 1.269 C 6.437 1.224,5.673 1.211,5.460 1.248 M6.400 2.453 C 7.184 2.611,7.801 3.185,8.016 3.956 C 8.065 4.135,8.070 4.179,8.070 4.520 C 8.070 4.862,8.066 4.907,8.013 5.110 C 7.924 5.456,7.798 5.700,7.399 6.300 C 7.211 6.583,6.961 7.001,6.911 7.115 L 6.874 7.200 5.999 7.200 L 5.125 7.200 5.080 7.096 C 5.022 6.960,4.916 6.785,4.573 6.260 C 4.141 5.598,4.022 5.343,3.948 4.919 C 3.904 4.665,3.918 4.197,3.977 3.977 C 4.110 3.477,4.433 3.033,4.874 2.746 C 5.337 2.444,5.859 2.344,6.400 2.453 M5.503 3.101 C 5.456 3.110,5.361 3.150,5.293 3.188 C 4.943 3.385,4.658 3.734,4.570 4.074 C 4.506 4.320,4.549 4.492,4.717 4.660 C 4.929 4.872,5.221 4.905,5.464 4.745 C 5.553 4.686,5.611 4.613,5.701 4.443 C 5.754 4.341,5.797 4.295,5.910 4.211 C 6.143 4.038,6.240 3.883,6.240 3.680 C 6.240 3.455,6.097 3.226,5.906 3.145 C 5.790 3.095,5.620 3.076,5.503 3.101 M4.640 9.039 C 4.365 9.123,4.176 9.387,4.207 9.646 C 4.224 9.791,4.306 9.944,4.423 10.049 C 4.546 10.159,4.610 10.179,4.885 10.194 C 5.075 10.204,5.100 10.210,5.100 10.242 C 5.100 10.319,5.185 10.500,5.261 10.587 C 5.306 10.638,5.391 10.702,5.456 10.734 L 5.570 10.790 6.010 10.790 C 6.517 10.790,6.536 10.785,6.712 10.610 C 6.810 10.513,6.900 10.337,6.900 10.242 C 6.900 10.210,6.925 10.204,7.115 10.194 C 7.382 10.180,7.459 10.155,7.581 10.045 C 7.782 9.865,7.848 9.578,7.742 9.356 C 7.690 9.249,7.562 9.122,7.443 9.061 C 7.363 9.021,7.339 9.020,6.026 9.022 C 5.291 9.023,4.668 9.030,4.640 9.039 " fill="#1A1C1F" stroke="none" fill-rule="evenodd"></path></svg>