<svg width="28" height="28" viewBox="0 0 28 28" fill="none" xmlns="http://www.w3.org/2000/svg"><path d="M13.113 1.823 C 11.598 1.949,10.018 2.594,8.682 3.630 C 6.498 5.325,5.217 8.261,5.453 11.029 C 5.485 11.392,5.550 11.874,5.600 12.100 C 5.721 12.651,6.023 13.542,6.224 13.941 C 6.478 14.446,6.991 15.178,7.557 15.843 C 8.903 17.425,9.060 17.658,9.265 18.365 C 9.507 19.199,9.433 19.174,11.852 19.234 C 12.892 19.259,14.699 19.273,15.867 19.264 C 18.225 19.246,18.187 19.250,18.467 18.931 C 18.568 18.815,18.660 18.618,18.757 18.306 C 18.939 17.717,19.126 17.408,19.746 16.676 C 21.088 15.090,21.426 14.621,21.818 13.796 C 22.579 12.197,22.775 10.429,22.393 8.633 C 21.815 5.926,20.112 3.769,17.617 2.587 C 16.228 1.928,14.787 1.684,13.113 1.823 M15.493 3.681 C 16.064 3.811,16.428 3.942,17.012 4.229 C 18.710 5.062,20.062 6.725,20.599 8.642 L 20.726 9.094 20.710 10.485 L 20.693 11.877 20.542 12.317 C 20.227 13.233,19.777 13.937,18.732 15.147 C 17.998 15.998,17.595 16.548,17.330 17.060 L 17.103 17.499 15.995 17.499 L 14.887 17.500 14.887 16.321 L 14.887 15.142 15.328 14.536 C 16.148 13.410,16.251 13.152,16.044 12.750 C 15.889 12.448,15.660 12.322,15.266 12.321 C 14.874 12.320,14.735 12.409,14.345 12.908 C 14.177 13.123,14.020 13.300,13.997 13.300 C 13.974 13.300,13.828 13.137,13.673 12.938 C 13.209 12.343,12.936 12.200,12.496 12.322 C 12.166 12.414,11.857 12.795,11.854 13.113 C 11.853 13.317,12.108 13.770,12.618 14.467 L 13.113 15.143 13.113 16.322 L 13.113 17.500 12.005 17.499 L 10.897 17.499 10.670 17.060 C 10.416 16.569,10.007 16.005,9.391 15.294 C 8.162 13.878,7.654 13.057,7.388 12.063 C 7.268 11.613,7.264 11.552,7.264 10.360 C 7.264 9.181,7.269 9.103,7.383 8.680 C 7.891 6.789,9.072 5.280,10.767 4.357 C 11.503 3.955,12.335 3.676,13.043 3.591 C 13.598 3.525,15.041 3.578,15.493 3.681 M11.667 5.177 C 11.020 5.375,9.815 6.383,9.294 7.161 C 8.956 7.667,8.717 8.174,8.691 8.439 C 8.635 9.022,9.196 9.530,9.730 9.380 C 10.006 9.303,10.165 9.133,10.504 8.553 C 10.857 7.950,11.331 7.438,11.947 6.997 C 12.514 6.591,12.677 6.420,12.732 6.172 C 12.788 5.923,12.724 5.617,12.585 5.465 C 12.457 5.326,12.054 5.133,11.900 5.138 C 11.836 5.140,11.731 5.157,11.667 5.177 M10.290 20.203 C 10.021 20.249,9.911 20.323,9.782 20.546 C 9.551 20.943,9.590 21.268,9.907 21.599 C 10.200 21.904,9.950 21.887,14.005 21.887 L 17.702 21.887 17.903 21.769 C 18.474 21.434,18.504 20.638,17.960 20.277 L 17.782 20.160 14.129 20.166 C 12.120 20.169,10.393 20.186,10.290 20.203 M10.023 22.934 C 9.502 23.332,9.513 23.998,10.047 24.351 C 10.230 24.473,10.261 24.477,11.022 24.493 L 11.807 24.509 11.807 24.960 C 11.807 25.516,11.860 25.716,12.070 25.947 C 12.333 26.239,12.405 26.250,14.000 26.250 C 15.595 26.250,15.667 26.239,15.930 25.947 C 16.140 25.716,16.193 25.516,16.193 24.960 L 16.193 24.509 16.978 24.493 C 17.739 24.477,17.770 24.473,17.953 24.351 C 18.514 23.980,18.505 23.336,17.933 22.902 L 17.763 22.773 13.998 22.773 L 10.233 22.773 10.023 22.934 " fill="#1A1C1F" stroke="none" fill-rule="evenodd"></path></svg>