<svg width="16" height="16" viewBox="0 0 16 16" fill="none" xmlns="http://www.w3.org/2000/svg"><path d="M7.280 1.664 C 5.671 1.949,4.346 3.083,3.840 4.610 C 3.486 5.675,3.531 6.767,3.973 7.853 C 4.129 8.236,4.279 8.501,4.721 9.173 C 5.217 9.928,5.314 10.109,5.401 10.441 C 5.506 10.836,5.609 10.983,5.893 11.136 C 5.982 11.184,6.078 11.187,8.000 11.187 C 9.922 11.187,10.018 11.184,10.107 11.136 C 10.391 10.983,10.495 10.836,10.599 10.440 C 10.688 10.102,10.712 10.052,11.056 9.520 C 11.521 8.801,11.643 8.606,11.774 8.370 C 12.539 6.991,12.597 5.377,11.928 4.042 C 11.710 3.606,11.481 3.294,11.107 2.918 C 10.480 2.288,9.771 1.898,8.901 1.703 C 8.583 1.632,7.595 1.609,7.280 1.664 M8.466 3.258 C 9.126 3.357,9.797 3.764,10.219 4.320 C 10.387 4.541,10.592 4.959,10.685 5.267 C 10.752 5.490,10.757 5.543,10.758 6.013 C 10.760 6.491,10.755 6.538,10.681 6.827 C 10.576 7.235,10.378 7.622,9.904 8.347 C 9.463 9.020,9.275 9.331,9.213 9.487 L 9.168 9.600 8.000 9.600 L 6.833 9.600 6.773 9.461 C 6.696 9.280,6.554 9.047,6.097 8.347 C 5.526 7.471,5.364 7.124,5.268 6.576 C 5.189 6.123,5.227 5.493,5.356 5.118 C 5.496 4.712,5.733 4.339,6.050 4.026 C 6.403 3.678,6.787 3.450,7.241 3.321 C 7.665 3.201,7.979 3.185,8.466 3.258 M7.337 4.134 C 6.974 4.209,6.459 4.653,6.231 5.090 C 6.035 5.463,6.007 5.753,6.141 6.015 C 6.447 6.613,7.244 6.604,7.560 6.000 C 7.664 5.802,7.738 5.715,7.914 5.587 C 8.182 5.393,8.314 5.173,8.318 4.918 C 8.324 4.494,8.027 4.165,7.600 4.124 C 7.519 4.117,7.401 4.121,7.337 4.134 M6.114 12.071 C 5.962 12.125,5.753 12.318,5.678 12.473 C 5.586 12.665,5.590 12.926,5.688 13.125 C 5.775 13.303,5.986 13.506,6.129 13.548 C 6.183 13.564,6.356 13.584,6.513 13.592 C 6.767 13.606,6.800 13.613,6.800 13.656 C 6.800 13.763,6.916 14.004,7.025 14.126 C 7.088 14.196,7.199 14.284,7.270 14.320 C 7.397 14.385,7.413 14.387,8.000 14.387 C 8.691 14.387,8.714 14.381,8.949 14.147 C 9.080 14.017,9.200 13.782,9.200 13.656 C 9.200 13.613,9.233 13.606,9.487 13.592 C 9.854 13.572,9.939 13.545,10.103 13.398 C 10.537 13.008,10.471 12.397,9.963 12.105 L 9.827 12.027 8.027 12.029 C 6.500 12.031,6.210 12.037,6.114 12.071 " fill="#1A1C1F" stroke="none" fill-rule="evenodd"></path></svg>