<svg width="32" height="32" viewBox="0 0 32 32" fill="none" xmlns="http://www.w3.org/2000/svg"><path d="M14.987 2.084 C 12.445 2.295,9.800 3.777,8.234 5.867 C 6.393 8.323,5.760 11.414,6.513 14.267 C 6.899 15.730,7.428 16.686,8.637 18.107 C 10.174 19.914,10.360 20.188,10.595 20.999 C 10.864 21.929,10.830 21.916,13.227 21.976 C 15.585 22.035,19.858 22.035,20.361 21.977 C 20.989 21.904,21.231 21.671,21.413 20.960 C 21.590 20.272,21.836 19.910,23.307 18.171 C 24.419 16.858,24.936 15.992,25.331 14.783 C 25.866 13.150,25.951 11.543,25.592 9.867 C 24.926 6.758,23.014 4.337,20.133 2.953 C 18.596 2.214,16.887 1.926,14.987 2.084 M17.707 4.207 C 19.133 4.535,20.400 5.250,21.495 6.345 C 22.192 7.042,22.525 7.513,23.010 8.490 C 23.546 9.568,23.733 10.427,23.733 11.813 C 23.733 13.108,23.558 13.994,23.117 14.925 C 22.790 15.619,22.338 16.242,21.275 17.467 C 20.573 18.275,20.077 18.960,19.798 19.506 L 19.547 20.000 18.280 20.000 L 17.013 20.000 17.013 18.653 L 17.013 17.305 17.518 16.613 C 18.455 15.326,18.573 15.031,18.337 14.572 C 18.158 14.225,17.897 14.082,17.440 14.081 C 16.987 14.080,16.852 14.166,16.402 14.742 C 16.205 14.994,16.024 15.200,15.999 15.200 C 15.973 15.200,15.794 15.002,15.599 14.760 C 15.054 14.081,14.785 13.943,14.282 14.082 C 13.904 14.187,13.551 14.623,13.548 14.987 C 13.546 15.220,13.838 15.737,14.420 16.533 L 14.986 17.307 14.986 18.653 L 14.987 20.000 13.712 20.000 L 12.437 20.000 12.195 19.507 C 11.929 18.965,11.558 18.454,10.694 17.440 C 8.891 15.322,8.444 14.457,8.314 12.840 C 8.227 11.755,8.281 10.560,8.444 9.920 C 9.057 7.524,10.744 5.585,13.063 4.610 C 13.616 4.378,14.400 4.162,14.907 4.104 C 15.555 4.028,17.193 4.089,17.707 4.207 M13.333 5.917 C 12.597 6.142,11.214 7.299,10.620 8.187 C 10.259 8.727,9.965 9.346,9.932 9.635 C 9.856 10.311,10.500 10.894,11.129 10.717 C 11.420 10.636,11.632 10.406,12.018 9.752 C 12.488 8.956,12.884 8.538,13.741 7.932 C 14.487 7.404,14.666 7.111,14.551 6.600 C 14.487 6.316,14.340 6.154,14.000 5.993 C 13.726 5.864,13.565 5.846,13.333 5.917 M11.760 23.090 C 11.452 23.142,11.327 23.226,11.179 23.481 C 10.915 23.935,10.960 24.306,11.323 24.685 C 11.657 25.033,11.371 25.013,16.006 25.013 L 20.231 25.013 20.461 24.879 C 21.113 24.496,21.148 23.586,20.525 23.174 L 20.322 23.040 16.148 23.047 C 13.852 23.050,11.877 23.070,11.760 23.090 M11.455 26.210 C 10.859 26.665,10.872 27.426,11.483 27.830 C 11.692 27.969,11.727 27.974,12.596 27.992 L 13.493 28.011 13.494 28.525 C 13.494 29.161,13.555 29.390,13.794 29.654 C 14.095 29.987,14.177 30.000,16.000 30.000 C 17.823 30.000,17.905 29.987,18.206 29.654 C 18.445 29.390,18.506 29.161,18.506 28.525 L 18.507 28.011 19.404 27.992 C 20.273 27.974,20.308 27.969,20.517 27.830 C 20.769 27.664,20.936 27.416,20.988 27.133 C 21.040 26.854,20.820 26.409,20.520 26.189 L 20.299 26.027 15.997 26.027 L 11.695 26.027 11.455 26.210 " fill="#1A1C1F" stroke="none" fill-rule="evenodd"></path></svg>