<svg width="24" height="24" viewBox="0 0 24 24" fill="none" xmlns="http://www.w3.org/2000/svg"><path d="M11.440 2.042 C 9.781 2.164,8.149 2.948,6.938 4.206 C 6.081 5.094,5.528 6.113,5.201 7.405 C 4.908 8.564,4.953 9.957,5.322 11.087 C 5.625 12.012,5.957 12.509,7.342 14.100 C 7.533 14.320,7.751 14.591,7.825 14.702 L 7.960 14.903 7.997 15.815 C 8.032 16.680,8.040 16.739,8.139 16.942 C 8.263 17.195,8.537 17.416,8.803 17.477 C 8.915 17.503,10.122 17.518,12.092 17.519 C 15.601 17.520,15.287 17.549,15.668 17.189 C 15.804 17.060,15.894 16.936,15.919 16.842 C 15.941 16.762,15.977 16.293,15.998 15.799 L 16.038 14.903 16.218 14.641 C 16.317 14.498,16.661 14.083,16.982 13.720 C 17.911 12.671,18.178 12.287,18.496 11.548 C 18.853 10.716,18.975 10.088,18.976 9.080 C 18.977 8.050,18.843 7.319,18.494 6.440 C 17.618 4.236,15.699 2.637,13.359 2.160 C 13.021 2.091,12.052 1.989,11.900 2.007 C 11.878 2.009,11.671 2.025,11.440 2.042 M12.420 4.076 C 13.001 4.106,13.099 4.122,13.486 4.252 C 14.294 4.523,14.878 4.878,15.474 5.457 C 16.802 6.746,17.311 8.748,16.754 10.480 C 16.559 11.086,16.307 11.461,15.427 12.450 C 15.115 12.801,14.768 13.211,14.654 13.361 C 14.297 13.835,14.100 14.331,14.036 14.920 C 13.967 15.549,14.015 15.498,13.473 15.511 L 13.008 15.522 12.991 14.131 C 12.981 13.233,12.959 12.703,12.930 12.634 C 12.861 12.470,12.643 12.243,12.472 12.156 C 12.387 12.112,12.201 12.066,12.060 12.053 C 11.835 12.032,11.777 12.042,11.585 12.136 C 11.329 12.261,11.143 12.456,11.078 12.669 C 11.049 12.764,11.024 13.319,11.011 14.170 L 10.990 15.520 10.537 15.520 C 10.001 15.520,10.023 15.539,9.986 15.035 C 9.956 14.633,9.849 14.254,9.653 13.860 C 9.472 13.497,9.303 13.275,8.647 12.543 C 7.702 11.487,7.471 11.150,7.248 10.498 C 6.863 9.372,6.980 7.919,7.545 6.786 C 7.795 6.287,8.003 5.995,8.410 5.574 C 9.301 4.653,10.527 4.073,11.640 4.047 C 11.717 4.046,12.068 4.059,12.420 4.076 M10.695 5.240 C 9.986 5.387,8.780 6.441,8.439 7.214 C 8.209 7.732,8.252 8.052,8.596 8.403 C 8.791 8.603,8.850 8.638,9.050 8.679 C 9.225 8.714,9.334 8.715,9.504 8.679 C 9.779 8.622,9.950 8.477,10.280 8.020 C 10.573 7.614,10.727 7.474,11.181 7.200 C 11.769 6.844,11.960 6.591,11.960 6.167 C 11.960 5.577,11.323 5.110,10.695 5.240 M9.600 18.556 C 8.671 18.580,8.658 18.581,8.477 18.688 C 8.165 18.871,7.963 19.285,8.012 19.645 C 8.040 19.853,8.276 20.210,8.474 20.340 C 8.648 20.456,9.063 20.519,9.644 20.520 L 9.989 20.520 10.009 20.872 C 10.034 21.304,10.123 21.521,10.370 21.747 C 10.611 21.968,10.696 21.980,12.080 21.980 C 13.364 21.980,13.411 21.972,13.677 21.709 C 13.924 21.465,13.965 21.360,13.990 20.920 L 14.011 20.532 14.582 20.509 C 15.292 20.480,15.446 20.436,15.688 20.195 C 16.032 19.852,16.084 19.366,15.818 18.965 C 15.759 18.876,15.628 18.750,15.526 18.686 L 15.340 18.569 12.940 18.551 C 11.620 18.541,10.117 18.543,9.600 18.556 " fill="#1A1C1F" stroke="none" fill-rule="evenodd"></path></svg>