<svg width="14" height="14" viewBox="0 0 14 14" fill="none" xmlns="http://www.w3.org/2000/svg"><path d="M6.358 1.458 C 5.970 1.527,5.551 1.672,5.203 1.860 C 4.032 2.491,3.272 3.643,3.173 4.941 C 3.132 5.473,3.174 5.901,3.318 6.405 C 3.477 6.961,3.634 7.270,4.176 8.097 C 4.583 8.716,4.649 8.841,4.728 9.142 C 4.818 9.484,4.889 9.588,5.130 9.728 L 5.254 9.801 7.008 9.795 L 8.762 9.788 8.863 9.734 C 9.007 9.658,9.157 9.499,9.200 9.378 C 9.220 9.321,9.264 9.175,9.298 9.053 C 9.362 8.822,9.461 8.640,9.800 8.132 C 10.279 7.414,10.523 6.949,10.661 6.492 C 11.019 5.300,10.849 4.104,10.177 3.092 C 9.958 2.762,9.498 2.303,9.161 2.079 C 8.730 1.794,8.279 1.600,7.788 1.490 C 7.503 1.427,6.646 1.408,6.358 1.458 M7.408 2.849 C 8.195 2.981,8.845 3.480,9.205 4.227 C 9.359 4.547,9.406 4.752,9.420 5.168 C 9.434 5.572,9.399 5.828,9.284 6.171 C 9.187 6.461,9.047 6.718,8.665 7.303 C 8.265 7.916,8.141 8.120,8.073 8.278 L 8.021 8.400 7.000 8.400 L 5.979 8.400 5.927 8.278 C 5.859 8.120,5.735 7.916,5.335 7.303 C 4.831 6.531,4.693 6.234,4.607 5.739 C 4.555 5.443,4.571 4.896,4.639 4.640 C 4.929 3.550,5.980 2.757,7.058 2.814 C 7.174 2.821,7.331 2.836,7.408 2.849 M6.424 3.617 C 6.155 3.673,5.735 4.003,5.517 4.332 C 5.375 4.546,5.312 4.738,5.312 4.958 C 5.313 5.182,5.350 5.279,5.497 5.437 C 5.631 5.580,5.790 5.650,5.981 5.649 C 6.267 5.649,6.437 5.543,6.609 5.258 C 6.747 5.029,6.746 5.031,6.933 4.880 C 7.180 4.683,7.280 4.512,7.280 4.293 C 7.280 4.031,7.113 3.764,6.890 3.669 C 6.756 3.611,6.557 3.589,6.424 3.617 M5.350 10.561 C 5.217 10.609,5.034 10.778,4.969 10.914 C 4.888 11.082,4.891 11.310,4.977 11.485 C 5.053 11.640,5.238 11.817,5.363 11.854 C 5.410 11.868,5.561 11.886,5.699 11.893 C 5.921 11.905,5.950 11.911,5.950 11.949 C 5.950 12.041,6.054 12.263,6.142 12.358 C 6.193 12.414,6.294 12.488,6.367 12.524 L 6.498 12.588 7.012 12.588 C 7.603 12.588,7.625 12.583,7.831 12.378 C 7.945 12.265,8.050 12.059,8.050 11.949 C 8.050 11.911,8.079 11.905,8.301 11.893 C 8.639 11.875,8.710 11.848,8.879 11.679 C 9.038 11.521,9.081 11.417,9.081 11.197 C 9.081 10.928,8.954 10.713,8.722 10.588 L 8.622 10.535 7.035 10.531 C 5.668 10.527,5.435 10.531,5.350 10.561 " fill="#1A1C1F" stroke="none" fill-rule="evenodd"></path></svg>