<svg width="28" height="28" viewBox="0 0 28 28" fill="none" xmlns="http://www.w3.org/2000/svg"><path d="M3.617 1.864 C 3.241 1.956,2.675 2.358,2.325 2.781 C 2.104 3.048,2.014 3.218,1.849 3.678 L 1.727 4.019 1.727 11.393 L 1.727 18.768 1.865 19.114 C 2.219 19.998,2.753 20.538,3.608 20.879 L 3.926 21.005 7.738 20.991 L 11.550 20.977 11.781 20.860 C 12.323 20.586,12.368 19.808,11.864 19.424 L 11.697 19.297 7.937 19.273 L 4.177 19.250 3.955 19.120 C 3.598 18.910,3.585 18.859,3.535 17.500 C 3.475 15.866,3.526 4.283,3.594 4.047 C 3.622 3.951,3.718 3.798,3.807 3.709 L 3.970 3.547 11.237 3.547 C 16.005 3.547,18.562 3.563,18.674 3.595 C 18.771 3.622,18.913 3.718,19.004 3.819 L 19.165 3.997 19.196 4.782 C 19.213 5.215,19.227 6.914,19.227 8.559 L 19.228 11.550 19.333 11.734 C 19.390 11.836,19.531 11.991,19.646 12.078 C 19.845 12.230,19.870 12.237,20.149 12.214 C 20.500 12.186,20.744 12.039,20.899 11.763 L 21.002 11.581 20.989 7.692 L 20.977 3.803 20.786 3.407 C 20.457 2.722,19.923 2.202,19.254 1.915 C 19.034 1.821,18.983 1.820,11.394 1.825 C 7.194 1.827,3.694 1.845,3.617 1.864 M10.220 5.372 C 8.979 5.652,7.898 6.213,7.115 6.985 C 6.272 7.816,5.747 8.745,5.429 9.970 C 5.308 10.437,5.298 10.544,5.298 11.340 C 5.298 12.296,5.354 12.664,5.607 13.382 C 6.308 15.369,7.928 16.811,10.076 17.359 C 10.590 17.490,12.002 17.494,12.623 17.365 C 13.804 17.121,14.887 16.494,15.812 15.517 C 16.612 14.672,17.069 13.834,17.339 12.721 C 17.440 12.304,17.453 12.146,17.453 11.336 C 17.453 10.460,17.447 10.402,17.311 9.918 C 16.988 8.764,16.552 7.978,15.800 7.192 C 14.977 6.332,13.967 5.733,12.871 5.455 C 12.549 5.373,12.309 5.354,11.457 5.341 C 10.867 5.331,10.341 5.345,10.220 5.372 M12.483 7.159 C 12.637 7.201,13.015 7.359,13.323 7.511 C 13.973 7.830,14.379 8.170,14.846 8.787 C 15.535 9.698,15.815 10.736,15.681 11.877 C 15.454 13.809,13.951 15.392,12.063 15.687 C 11.610 15.758,10.649 15.709,10.266 15.596 C 9.475 15.362,8.967 15.070,8.385 14.516 C 7.741 13.902,7.285 13.083,7.114 12.231 C 7.007 11.696,7.041 10.666,7.182 10.197 C 7.644 8.658,8.950 7.426,10.448 7.114 C 10.868 7.027,12.100 7.054,12.483 7.159 M12.887 10.545 C 12.690 10.593,12.385 10.888,12.316 11.095 C 12.152 11.593,12.477 12.128,12.995 12.212 C 13.533 12.299,14.067 11.779,13.978 11.253 C 13.894 10.754,13.385 10.425,12.887 10.545 M9.082 10.734 C 8.943 10.862,8.860 10.987,8.820 11.131 C 8.703 11.549,8.840 11.891,9.212 12.110 C 9.632 12.356,10.141 12.201,10.375 11.757 C 10.541 11.441,10.528 11.186,10.330 10.908 C 10.145 10.646,9.937 10.547,9.578 10.547 C 9.300 10.547,9.274 10.557,9.082 10.734 M18.861 14.893 C 18.567 15.039,18.410 15.299,18.412 15.637 C 18.413 15.887,18.427 15.919,18.645 16.176 C 18.772 16.327,19.146 16.729,19.475 17.070 L 20.073 17.690 19.886 17.910 C 19.784 18.031,19.248 18.580,18.696 19.130 L 17.693 20.129 16.898 19.357 C 16.461 18.933,16.026 18.549,15.931 18.504 C 15.725 18.406,15.440 18.427,15.181 18.558 C 14.852 18.726,14.699 19.224,14.868 19.579 C 14.908 19.665,15.289 20.094,15.713 20.532 L 16.483 21.328 16.172 21.658 C 15.676 22.184,15.601 22.376,15.742 22.759 C 15.825 22.985,16.282 23.508,17.009 24.209 C 18.122 25.281,18.489 25.536,19.413 25.878 C 19.734 25.997,19.832 26.010,20.572 26.029 C 21.226 26.047,21.445 26.036,21.716 25.972 C 22.160 25.866,23.000 25.461,23.396 25.160 L 23.716 24.917 24.190 25.373 C 24.451 25.625,24.768 25.914,24.893 26.017 C 25.105 26.189,25.143 26.203,25.406 26.203 C 25.769 26.202,25.993 26.073,26.133 25.784 C 26.271 25.498,26.266 25.241,26.118 25.017 C 26.053 24.918,25.755 24.584,25.456 24.274 L 24.914 23.712 25.168 23.348 C 26.380 21.609,26.360 19.455,25.117 17.979 C 24.949 17.780,24.421 17.228,23.943 16.753 C 22.993 15.810,22.704 15.601,22.423 15.654 C 22.244 15.687,21.825 15.989,21.518 16.304 L 21.312 16.515 20.491 15.717 C 20.039 15.278,19.602 14.891,19.520 14.856 C 19.305 14.766,19.094 14.778,18.861 14.893 M23.826 19.111 C 24.070 19.454,24.234 19.807,24.307 20.151 C 24.423 20.693,24.332 21.406,24.082 21.910 C 23.823 22.433,22.431 23.851,21.922 24.109 C 21.594 24.275,21.213 24.360,20.790 24.360 C 20.319 24.360,19.964 24.271,19.476 24.033 C 19.147 23.872,18.999 23.753,18.402 23.173 L 17.710 22.500 20.113 20.090 L 22.517 17.681 23.068 18.251 C 23.371 18.564,23.712 18.952,23.826 19.111 " fill="#1A1C1F" stroke="none" fill-rule="evenodd"></path></svg>