<svg width="16" height="16" viewBox="0 0 16 16" fill="none" xmlns="http://www.w3.org/2000/svg"><path d="M2.372 1.651 C 2.146 1.662,2.045 1.679,1.994 1.713 C 1.870 1.794,1.735 1.951,1.663 2.098 L 1.593 2.241 1.607 7.994 C 1.619 12.965,1.626 13.766,1.660 13.889 C 1.707 14.057,1.834 14.199,2.034 14.308 L 2.170 14.382 4.364 14.395 L 6.558 14.407 6.708 14.331 C 7.041 14.163,7.182 13.940,7.180 13.585 C 7.179 13.288,7.082 13.119,6.803 12.925 L 6.680 12.840 5.880 12.823 C 5.440 12.813,4.657 12.804,4.140 12.802 L 3.200 12.800 3.200 8.000 L 3.200 3.200 8.000 3.200 L 12.800 3.200 12.800 4.488 L 12.800 5.776 12.867 5.911 C 12.950 6.077,13.124 6.256,13.267 6.323 C 13.392 6.381,13.709 6.391,13.874 6.341 C 14.013 6.300,14.246 6.085,14.325 5.926 L 14.387 5.800 14.396 4.010 L 14.404 2.220 14.338 2.090 C 14.267 1.949,14.047 1.726,13.927 1.673 C 13.870 1.648,12.607 1.640,8.267 1.638 C 5.194 1.636,2.541 1.642,2.372 1.651 M7.520 4.040 C 6.155 4.228,5.018 5.039,4.416 6.256 C 3.969 7.161,3.894 8.292,4.217 9.267 C 4.400 9.821,4.690 10.287,5.140 10.751 C 5.504 11.125,5.597 11.179,5.877 11.179 C 6.338 11.179,6.635 10.902,6.661 10.448 C 6.672 10.265,6.665 10.225,6.604 10.101 C 6.566 10.023,6.461 9.876,6.371 9.773 C 6.020 9.375,5.793 9.000,5.691 8.651 C 5.622 8.415,5.621 7.597,5.689 7.373 C 5.828 6.918,6.166 6.416,6.519 6.141 C 6.742 5.967,7.123 5.766,7.373 5.689 C 7.597 5.621,8.415 5.622,8.651 5.691 C 9.010 5.796,9.373 6.019,9.787 6.388 C 10.046 6.620,10.146 6.665,10.398 6.666 C 10.642 6.667,10.786 6.605,10.964 6.422 C 11.112 6.271,11.180 6.092,11.180 5.855 C 11.180 5.642,11.100 5.483,10.876 5.253 C 10.308 4.668,9.601 4.273,8.853 4.122 C 8.579 4.067,7.918 3.992,7.803 4.003 C 7.787 4.004,7.659 4.021,7.520 4.040 M7.049 7.230 C 6.884 7.260,6.746 7.340,6.610 7.486 C 6.461 7.645,6.416 7.769,6.418 8.013 C 6.420 8.217,6.448 8.309,6.549 8.456 C 6.695 8.668,7.046 8.825,7.291 8.788 C 7.821 8.709,8.139 8.138,7.911 7.673 C 7.756 7.357,7.389 7.168,7.049 7.230 M9.880 7.278 C 9.675 7.328,9.470 7.503,9.379 7.706 C 9.349 7.772,9.320 7.907,9.312 8.005 C 9.294 8.268,9.366 8.398,9.760 8.808 L 10.077 9.137 9.605 9.607 L 9.133 10.076 8.804 9.759 C 8.391 9.362,8.290 9.307,7.975 9.307 C 7.688 9.307,7.523 9.376,7.371 9.558 C 7.235 9.720,7.204 9.810,7.202 10.061 C 7.199 10.349,7.256 10.449,7.662 10.870 L 7.993 11.213 7.797 11.424 C 7.539 11.701,7.483 11.818,7.485 12.079 C 7.486 12.189,7.498 12.310,7.513 12.347 C 7.553 12.443,8.181 13.111,8.607 13.508 C 9.126 13.992,9.390 14.148,9.941 14.299 C 10.225 14.376,10.920 14.383,11.253 14.311 C 11.556 14.246,11.956 14.087,12.275 13.905 C 12.578 13.732,12.508 13.716,12.920 14.051 C 13.269 14.335,13.426 14.411,13.628 14.393 C 13.826 14.375,13.993 14.299,14.149 14.156 C 14.325 13.994,14.372 13.877,14.373 13.602 C 14.374 13.295,14.325 13.203,13.982 12.865 C 13.830 12.716,13.707 12.584,13.707 12.572 C 13.707 12.560,13.768 12.462,13.842 12.355 C 14.451 11.474,14.537 10.317,14.067 9.345 C 14.003 9.213,13.902 9.039,13.842 8.959 C 13.702 8.771,12.724 7.787,12.535 7.643 L 12.391 7.533 12.081 7.533 L 11.772 7.533 11.599 7.657 C 11.504 7.726,11.379 7.831,11.321 7.891 L 11.216 8.000 10.988 7.777 C 10.508 7.310,10.242 7.190,9.880 7.278 M12.574 9.958 C 12.705 10.158,12.758 10.366,12.758 10.680 C 12.758 11.185,12.659 11.362,12.018 12.003 C 11.531 12.490,11.371 12.621,11.169 12.697 C 10.988 12.766,10.625 12.790,10.388 12.749 C 10.100 12.699,9.957 12.611,9.565 12.242 L 9.383 12.070 10.725 10.727 L 12.067 9.384 12.276 9.603 C 12.391 9.723,12.525 9.883,12.574 9.958 " fill="#1A1C1F" stroke="none" fill-rule="evenodd"></path></svg>