<svg width="12" height="12" viewBox="0 0 12 12" fill="none" xmlns="http://www.w3.org/2000/svg"><path d="M1.789 1.238 C 1.610 1.247,1.535 1.259,1.495 1.285 C 1.405 1.344,1.303 1.461,1.251 1.566 L 1.200 1.668 1.201 5.649 C 1.202 9.691,1.211 10.351,1.265 10.481 C 1.300 10.565,1.432 10.684,1.564 10.752 L 1.659 10.800 3.295 10.800 L 4.932 10.800 5.035 10.749 C 5.169 10.682,5.294 10.559,5.345 10.444 C 5.407 10.303,5.402 10.051,5.334 9.934 C 5.274 9.833,5.123 9.688,5.045 9.658 C 4.948 9.620,4.397 9.602,3.385 9.601 L 2.400 9.600 2.400 6.000 L 2.400 2.400 6.000 2.400 L 9.600 2.400 9.600 3.365 C 9.601 4.274,9.603 4.335,9.639 4.415 C 9.691 4.528,9.851 4.697,9.950 4.742 C 10.044 4.786,10.283 4.793,10.405 4.756 C 10.513 4.724,10.685 4.563,10.749 4.435 L 10.800 4.332 10.800 2.995 C 10.800 1.678,10.799 1.657,10.758 1.576 C 10.702 1.467,10.555 1.312,10.464 1.267 C 10.393 1.231,10.225 1.230,6.210 1.228 C 3.911 1.227,1.922 1.231,1.789 1.238 M5.490 3.052 C 4.973 3.144,4.477 3.381,4.048 3.741 C 3.228 4.429,2.836 5.613,3.081 6.660 C 3.199 7.165,3.376 7.509,3.740 7.946 C 4.023 8.284,4.187 8.390,4.430 8.388 C 4.602 8.387,4.724 8.337,4.836 8.222 C 4.951 8.104,4.987 8.015,4.996 7.835 C 5.003 7.698,4.998 7.666,4.953 7.575 C 4.924 7.517,4.846 7.407,4.778 7.330 C 4.515 7.031,4.345 6.750,4.268 6.489 C 4.217 6.312,4.215 5.698,4.267 5.530 C 4.385 5.142,4.678 4.737,4.986 4.533 C 5.143 4.430,5.385 4.311,5.530 4.267 C 5.698 4.215,6.311 4.217,6.490 4.269 C 6.700 4.330,6.980 4.489,7.189 4.665 C 7.296 4.756,7.430 4.866,7.485 4.910 L 7.587 4.990 7.778 4.990 C 8.004 4.990,8.080 4.961,8.222 4.819 C 8.377 4.665,8.431 4.392,8.345 4.197 C 8.209 3.889,7.575 3.405,7.040 3.201 C 6.623 3.042,5.924 2.975,5.490 3.052 M5.283 5.423 C 5.108 5.455,4.892 5.633,4.839 5.792 C 4.807 5.887,4.806 6.128,4.839 6.210 C 4.908 6.388,5.065 6.521,5.261 6.572 C 5.407 6.609,5.508 6.599,5.650 6.532 C 5.944 6.393,6.073 6.040,5.933 5.755 C 5.816 5.516,5.542 5.376,5.283 5.423 M7.410 5.459 C 7.256 5.496,7.103 5.627,7.034 5.780 C 7.012 5.829,6.990 5.929,6.984 6.002 C 6.970 6.205,7.021 6.298,7.316 6.603 L 7.558 6.853 7.204 7.205 L 6.850 7.557 6.608 7.324 C 6.474 7.193,6.319 7.064,6.258 7.031 C 6.163 6.979,6.130 6.972,5.980 6.972 C 5.843 6.971,5.794 6.980,5.726 7.016 C 5.499 7.135,5.401 7.295,5.400 7.546 C 5.400 7.762,5.443 7.838,5.746 8.152 L 5.995 8.410 5.850 8.564 C 5.657 8.769,5.615 8.858,5.615 9.061 C 5.615 9.196,5.622 9.231,5.670 9.312 C 5.746 9.442,6.553 10.248,6.756 10.397 C 7.448 10.905,8.390 10.909,9.246 10.406 L 9.403 10.315 9.479 10.372 C 9.522 10.404,9.631 10.491,9.723 10.566 C 9.956 10.755,10.074 10.808,10.226 10.793 C 10.381 10.776,10.510 10.717,10.617 10.614 C 10.744 10.492,10.779 10.404,10.780 10.201 C 10.780 9.971,10.743 9.902,10.486 9.649 C 10.373 9.537,10.280 9.439,10.280 9.431 C 10.280 9.423,10.337 9.330,10.407 9.223 C 10.544 9.016,10.657 8.769,10.711 8.560 C 10.785 8.272,10.780 7.678,10.702 7.390 C 10.637 7.156,10.486 6.854,10.339 6.670 C 10.193 6.486,9.570 5.864,9.405 5.736 L 9.293 5.650 9.061 5.650 L 8.829 5.650 8.700 5.743 C 8.628 5.794,8.535 5.873,8.491 5.918 L 8.412 6.000 8.241 5.833 C 7.881 5.482,7.682 5.393,7.410 5.459 M9.423 7.454 C 9.601 7.713,9.626 8.150,9.480 8.452 C 9.409 8.597,9.035 9.012,8.733 9.282 C 8.559 9.436,8.512 9.466,8.362 9.522 C 8.216 9.577,8.163 9.586,8.010 9.586 C 7.700 9.587,7.514 9.500,7.203 9.209 L 7.037 9.053 8.043 8.046 L 9.050 7.038 9.204 7.200 C 9.289 7.288,9.388 7.403,9.423 7.454 " fill="#1A1C1F" stroke="none" fill-rule="evenodd"></path></svg>