<svg width="14" height="14" viewBox="0 0 14 14" fill="none" xmlns="http://www.w3.org/2000/svg"><path d="M2.064 1.444 C 1.877 1.454,1.789 1.469,1.745 1.499 C 1.639 1.568,1.520 1.705,1.459 1.828 L 1.400 1.946 1.401 6.590 C 1.402 11.306,1.412 12.076,1.476 12.228 C 1.517 12.326,1.670 12.465,1.825 12.544 L 1.935 12.600 3.845 12.600 L 5.754 12.600 5.874 12.540 C 6.031 12.462,6.176 12.319,6.236 12.184 C 6.308 12.020,6.302 11.726,6.222 11.590 C 6.153 11.471,5.977 11.302,5.886 11.267 C 5.771 11.223,5.143 11.202,3.961 11.201 L 2.800 11.200 2.800 7.000 L 2.800 2.800 6.998 2.800 L 11.196 2.800 11.205 3.938 C 11.215 5.142,11.214 5.129,11.330 5.299 C 11.470 5.502,11.774 5.627,12.010 5.580 C 12.191 5.543,12.280 5.494,12.402 5.364 C 12.598 5.154,12.586 5.272,12.595 3.509 L 12.604 1.943 12.553 1.843 C 12.486 1.712,12.316 1.532,12.208 1.478 C 12.125 1.437,11.928 1.435,7.222 1.433 C 4.527 1.431,2.206 1.437,2.064 1.444 M6.580 3.535 C 5.865 3.634,5.294 3.887,4.746 4.346 C 3.332 5.533,3.098 7.649,4.222 9.094 C 4.427 9.357,4.775 9.696,4.891 9.744 C 5.009 9.794,5.302 9.795,5.418 9.746 C 5.545 9.693,5.716 9.525,5.778 9.392 C 5.819 9.304,5.833 9.234,5.833 9.110 C 5.833 8.905,5.776 8.782,5.574 8.552 C 5.267 8.202,5.069 7.875,4.980 7.570 C 4.919 7.363,4.918 6.647,4.978 6.452 C 5.116 5.999,5.457 5.526,5.816 5.289 C 6.000 5.168,6.282 5.030,6.452 4.978 C 6.647 4.918,7.363 4.919,7.570 4.980 C 7.884 5.072,8.201 5.267,8.563 5.590 C 8.790 5.792,8.878 5.832,9.098 5.833 C 9.310 5.833,9.435 5.780,9.592 5.623 C 9.721 5.494,9.785 5.326,9.784 5.121 C 9.782 4.918,9.700 4.771,9.452 4.527 C 9.028 4.111,8.447 3.778,7.903 3.641 C 7.479 3.533,6.916 3.489,6.580 3.535 M6.168 6.326 C 6.024 6.352,5.902 6.423,5.790 6.544 C 5.653 6.692,5.615 6.791,5.617 6.988 C 5.620 7.349,5.798 7.580,6.138 7.667 C 6.308 7.711,6.426 7.699,6.592 7.621 C 6.934 7.459,7.085 7.046,6.922 6.714 C 6.787 6.437,6.465 6.272,6.168 6.326 M8.633 6.368 C 8.438 6.428,8.235 6.629,8.179 6.820 C 8.083 7.142,8.147 7.301,8.536 7.704 L 8.817 7.995 8.405 8.406 L 7.992 8.817 7.710 8.544 C 7.553 8.392,7.372 8.241,7.301 8.203 C 7.190 8.142,7.151 8.134,6.977 8.133 C 6.800 8.132,6.765 8.140,6.653 8.201 C 6.501 8.285,6.364 8.435,6.327 8.559 C 6.312 8.609,6.300 8.726,6.300 8.818 C 6.300 9.055,6.358 9.154,6.705 9.514 L 6.994 9.812 6.823 9.996 C 6.597 10.238,6.548 10.341,6.549 10.569 C 6.550 10.666,6.561 10.771,6.574 10.803 C 6.640 10.965,7.719 12.033,8.003 12.216 C 8.562 12.577,9.340 12.674,10.051 12.470 C 10.281 12.404,10.519 12.298,10.787 12.140 L 10.970 12.034 11.059 12.101 C 11.108 12.138,11.236 12.240,11.344 12.327 C 11.610 12.544,11.753 12.609,11.925 12.594 C 12.099 12.578,12.261 12.504,12.387 12.383 C 12.535 12.240,12.576 12.138,12.576 11.902 C 12.577 11.633,12.534 11.553,12.234 11.258 C 12.102 11.128,11.993 11.012,11.993 11.001 C 11.993 10.990,12.047 10.905,12.112 10.810 C 12.271 10.580,12.420 10.257,12.495 9.980 C 12.554 9.760,12.556 9.731,12.548 9.268 C 12.540 8.813,12.536 8.774,12.474 8.587 C 12.390 8.333,12.234 8.018,12.095 7.820 C 11.969 7.642,11.181 6.848,10.978 6.694 L 10.842 6.592 10.571 6.592 L 10.301 6.592 10.149 6.700 C 10.066 6.760,9.957 6.851,9.907 6.903 L 9.816 6.998 9.587 6.780 C 9.319 6.525,9.146 6.404,9.004 6.371 C 8.886 6.344,8.718 6.343,8.633 6.368 M10.913 8.593 C 11.072 8.786,11.148 8.981,11.168 9.247 C 11.185 9.483,11.152 9.673,11.061 9.858 C 10.979 10.027,10.535 10.520,10.191 10.826 C 9.986 11.009,9.931 11.044,9.756 11.109 C 9.585 11.173,9.523 11.184,9.345 11.184 C 8.984 11.185,8.767 11.083,8.404 10.744 L 8.209 10.562 9.383 9.388 L 10.557 8.214 10.670 8.325 C 10.732 8.385,10.842 8.506,10.913 8.593 " fill="#1A1C1F" stroke="none" fill-rule="evenodd"></path></svg>