<svg width="20" height="20" viewBox="0 0 20 20" fill="none" xmlns="http://www.w3.org/2000/svg"><path d="M2.998 2.064 C 2.682 2.079,2.559 2.097,2.492 2.141 C 2.341 2.240,2.172 2.435,2.084 2.611 L 2.000 2.780 2.002 9.415 C 2.003 16.152,2.018 17.252,2.109 17.469 C 2.167 17.608,2.386 17.807,2.607 17.920 L 2.764 18.000 5.492 18.000 L 8.220 18.000 8.392 17.915 C 8.615 17.803,8.823 17.599,8.909 17.405 C 9.015 17.168,9.006 16.757,8.891 16.559 C 8.790 16.388,8.539 16.147,8.408 16.096 C 8.247 16.034,7.328 16.003,5.642 16.001 L 4.000 16.000 4.000 10.000 L 4.000 4.000 10.000 4.000 L 16.000 4.000 16.001 5.608 C 16.001 7.123,16.005 7.225,16.065 7.358 C 16.151 7.547,16.419 7.829,16.583 7.904 C 16.741 7.976,17.138 7.988,17.342 7.927 C 17.517 7.874,17.808 7.606,17.906 7.407 L 17.983 7.250 17.995 5.039 C 18.001 3.823,17.997 2.794,17.987 2.752 C 17.953 2.615,17.704 2.279,17.568 2.184 C 17.437 2.094,17.424 2.092,16.743 2.065 C 15.979 2.034,3.667 2.034,2.998 2.064 M9.545 5.034 C 8.673 5.126,7.792 5.457,7.091 5.956 C 6.743 6.205,6.205 6.743,5.956 7.091 C 5.260 8.069,4.907 9.365,5.033 10.483 C 5.126 11.309,5.393 12.047,5.858 12.767 C 6.081 13.112,6.790 13.837,6.985 13.921 C 7.176 14.002,7.574 13.997,7.767 13.911 C 8.106 13.759,8.333 13.389,8.333 12.989 C 8.333 12.724,8.243 12.536,7.963 12.217 C 7.646 11.856,7.472 11.609,7.316 11.298 C 7.084 10.838,7.057 10.703,7.053 10.017 C 7.050 9.340,7.075 9.212,7.300 8.759 C 7.649 8.058,8.058 7.649,8.759 7.300 C 9.212 7.075,9.340 7.050,10.017 7.053 C 10.698 7.057,10.839 7.085,11.281 7.307 C 11.624 7.479,11.786 7.591,12.117 7.883 C 12.598 8.309,12.602 8.311,12.929 8.327 C 13.180 8.339,13.240 8.330,13.384 8.263 C 13.621 8.152,13.844 7.918,13.915 7.706 C 13.991 7.477,13.987 7.173,13.907 6.992 C 13.731 6.599,13.043 6.000,12.300 5.593 C 11.774 5.306,11.021 5.094,10.367 5.050 C 10.211 5.040,10.016 5.026,9.933 5.020 C 9.851 5.014,9.676 5.020,9.545 5.034 M8.805 9.038 C 8.415 9.109,8.082 9.467,8.015 9.888 C 7.964 10.208,8.142 10.611,8.418 10.801 C 8.599 10.926,8.929 11.013,9.113 10.986 C 9.778 10.886,10.174 10.174,9.889 9.592 C 9.694 9.194,9.236 8.960,8.805 9.038 M12.333 9.098 C 12.170 9.147,12.045 9.230,11.909 9.377 C 11.687 9.619,11.652 9.709,11.651 10.052 C 11.650 10.329,11.658 10.367,11.744 10.497 C 11.796 10.576,12.009 10.815,12.218 11.030 L 12.597 11.421 12.007 12.008 L 11.417 12.595 11.018 12.211 C 10.799 12.000,10.544 11.783,10.452 11.730 C 10.300 11.644,10.253 11.634,9.983 11.634 C 9.609 11.634,9.406 11.717,9.213 11.948 C 9.043 12.151,9.006 12.263,9.003 12.581 C 8.999 12.947,9.057 13.049,9.566 13.576 L 9.991 14.017 9.746 14.279 C 9.424 14.626,9.354 14.773,9.356 15.098 C 9.357 15.237,9.373 15.388,9.392 15.433 C 9.441 15.556,10.229 16.394,10.758 16.885 C 11.408 17.490,11.740 17.687,12.427 17.873 C 12.782 17.970,13.651 17.978,14.067 17.889 C 14.445 17.808,14.944 17.609,15.343 17.381 C 15.722 17.165,15.635 17.145,16.150 17.564 C 16.596 17.928,16.775 18.015,17.030 17.991 C 17.284 17.968,17.515 17.864,17.696 17.690 C 17.907 17.486,17.965 17.339,17.966 17.002 C 17.967 16.619,17.906 16.504,17.477 16.081 C 17.288 15.895,17.133 15.730,17.133 15.715 C 17.133 15.700,17.209 15.578,17.302 15.443 C 17.514 15.138,17.738 14.665,17.836 14.317 C 17.979 13.809,17.978 12.819,17.833 12.300 C 17.727 11.920,17.471 11.417,17.233 11.118 C 16.987 10.809,15.950 9.773,15.676 9.561 L 15.489 9.417 15.102 9.417 L 14.715 9.417 14.499 9.572 C 14.380 9.657,14.224 9.788,14.152 9.863 L 14.020 9.999 13.735 9.722 C 13.344 9.341,13.072 9.147,12.865 9.103 C 12.675 9.062,12.457 9.060,12.333 9.098 M15.719 12.447 C 15.851 12.646,15.967 13.060,15.966 13.330 C 15.965 13.594,15.885 13.941,15.781 14.132 C 15.665 14.345,14.986 15.085,14.559 15.466 C 14.265 15.727,14.188 15.777,13.937 15.870 C 13.693 15.961,13.605 15.977,13.350 15.977 C 12.833 15.978,12.517 15.830,12.006 15.349 L 11.728 15.088 13.406 13.409 L 15.083 11.730 15.345 12.004 C 15.489 12.154,15.657 12.354,15.719 12.447 " fill="#1A1C1F" stroke="none" fill-rule="evenodd"></path></svg>