<svg width="32" height="32" viewBox="0 0 32 32" fill="none" xmlns="http://www.w3.org/2000/svg"><path d="M4.133 2.130 C 3.704 2.236,3.057 2.695,2.657 3.178 C 2.405 3.484,2.302 3.678,2.113 4.203 L 1.973 4.593 1.973 13.021 L 1.973 21.449 2.132 21.845 C 2.536 22.855,3.146 23.472,4.124 23.862 L 4.488 24.007 8.844 23.990 L 13.200 23.973 13.464 23.840 C 14.084 23.527,14.135 22.638,13.559 22.199 L 13.368 22.053 9.071 22.027 L 4.773 22.000 4.520 21.851 C 4.112 21.611,4.097 21.553,4.040 20.000 C 3.972 18.136,4.030 4.895,4.108 4.626 C 4.139 4.515,4.249 4.341,4.351 4.239 L 4.537 4.053 12.842 4.054 C 18.292 4.054,21.214 4.073,21.341 4.108 C 21.452 4.139,21.615 4.249,21.719 4.365 L 21.903 4.568 21.938 5.417 C 21.957 5.884,21.973 7.827,21.974 9.733 L 21.975 13.200 22.095 13.411 C 22.160 13.527,22.321 13.704,22.453 13.804 C 22.679 13.977,22.709 13.985,23.027 13.959 C 23.421 13.927,23.655 13.791,23.863 13.470 L 24.002 13.256 23.988 8.801 L 23.973 4.347 23.755 3.893 C 23.379 3.110,22.769 2.516,22.005 2.189 C 21.753 2.081,21.695 2.080,13.022 2.085 C 8.221 2.088,4.221 2.109,4.133 2.130 M11.573 6.163 C 10.364 6.423,8.996 7.143,8.164 7.958 C 7.176 8.926,6.597 9.926,6.228 11.301 C 6.072 11.884,6.062 11.977,6.058 12.907 C 6.053 13.991,6.099 14.339,6.356 15.143 C 6.637 16.021,7.107 16.850,7.716 17.543 C 8.608 18.559,9.637 19.232,11.012 19.697 L 11.653 19.914 12.730 19.935 C 13.942 19.959,14.351 19.913,15.066 19.675 C 16.201 19.296,16.999 18.795,17.897 17.897 C 18.795 16.999,19.297 16.199,19.674 15.067 C 19.899 14.391,19.946 14.027,19.946 12.944 C 19.947 11.891,19.884 11.473,19.620 10.755 C 19.213 9.647,18.764 8.948,17.922 8.105 C 16.848 7.031,15.675 6.398,14.323 6.162 C 13.717 6.056,12.067 6.057,11.573 6.163 M14.347 8.211 C 16.017 8.697,17.366 10.083,17.824 11.782 C 17.968 12.315,17.981 13.547,17.848 14.107 C 17.595 15.176,16.923 16.225,16.036 16.934 C 15.536 17.335,15.039 17.591,14.373 17.793 C 13.934 17.927,13.820 17.939,13.013 17.939 C 12.207 17.939,12.093 17.927,11.653 17.793 C 11.042 17.608,10.693 17.448,10.242 17.148 C 9.196 16.453,8.382 15.230,8.130 13.979 C 7.993 13.293,8.043 12.179,8.239 11.573 C 8.719 10.092,9.789 8.924,11.177 8.369 C 11.824 8.109,12.186 8.055,13.120 8.076 C 13.772 8.090,14.031 8.119,14.347 8.211 M14.728 12.052 C 14.630 12.076,14.469 12.174,14.371 12.269 C 13.995 12.633,13.918 13.058,14.153 13.460 C 14.495 14.044,15.252 14.131,15.717 13.639 C 16.381 12.939,15.684 11.820,14.728 12.052 M10.379 12.267 C 10.220 12.414,10.126 12.557,10.080 12.721 C 9.946 13.199,10.102 13.590,10.528 13.840 C 11.008 14.121,11.590 13.944,11.857 13.436 C 12.047 13.075,12.032 12.784,11.806 12.466 C 11.594 12.167,11.357 12.053,10.946 12.053 C 10.629 12.053,10.598 12.065,10.379 12.267 M21.573 17.006 C 21.300 17.130,21.062 17.468,21.027 17.783 C 20.988 18.127,21.130 18.334,22.103 19.351 L 22.936 20.222 22.725 20.471 C 22.609 20.608,21.998 21.234,21.367 21.862 L 20.221 23.005 19.312 22.123 C 18.812 21.637,18.315 21.198,18.207 21.147 C 17.972 21.036,17.645 21.059,17.350 21.210 C 16.974 21.401,16.799 21.970,16.992 22.376 C 17.038 22.474,17.473 22.964,17.957 23.465 L 18.838 24.375 18.462 24.771 C 18.255 24.989,18.046 25.245,17.997 25.339 C 17.864 25.596,17.916 25.951,18.134 26.271 C 18.353 26.593,20.220 28.449,20.664 28.785 C 21.081 29.101,21.939 29.510,22.477 29.650 C 23.022 29.792,24.361 29.807,24.872 29.677 C 25.342 29.557,26.312 29.077,26.737 28.755 L 27.101 28.478 27.798 29.143 C 28.181 29.509,28.579 29.848,28.682 29.897 C 28.908 30.004,29.311 29.973,29.565 29.828 C 29.774 29.708,29.979 29.311,29.983 29.017 C 29.987 28.723,29.851 28.528,29.095 27.744 L 28.478 27.104 28.776 26.659 C 29.939 24.924,30.107 23.128,29.268 21.401 C 28.997 20.844,28.606 20.381,27.363 19.147 C 26.277 18.068,25.948 17.830,25.626 17.890 C 25.422 17.928,24.943 18.273,24.591 18.633 L 24.356 18.875 23.418 17.962 C 22.902 17.461,22.403 17.018,22.308 16.978 C 22.075 16.881,21.828 16.890,21.573 17.006 M27.230 21.842 C 27.509 22.233,27.696 22.637,27.780 23.029 C 27.912 23.649,27.808 24.463,27.523 25.040 C 27.225 25.642,25.641 27.254,25.054 27.552 C 24.679 27.743,24.244 27.840,23.760 27.840 C 23.222 27.840,22.816 27.739,22.258 27.466 C 21.883 27.282,21.713 27.146,21.031 26.483 L 20.240 25.714 22.987 22.960 L 25.733 20.207 26.363 20.858 C 26.710 21.216,27.100 21.659,27.230 21.842 " fill="#1A1C1F" stroke="none" fill-rule="evenodd"></path></svg>