<svg width="12" height="12" viewBox="0 0 12 12" fill="none" xmlns="http://www.w3.org/2000/svg"><path d="M2.044 1.242 C 1.829 1.278,1.566 1.456,1.420 1.664 C 1.205 1.970,1.193 2.068,1.204 3.464 C 1.213 4.514,1.214 4.532,1.258 4.646 C 1.393 4.990,1.656 5.238,2.017 5.362 C 2.119 5.398,2.204 5.400,3.303 5.400 L 4.479 5.400 4.612 5.350 C 4.988 5.208,5.219 4.977,5.353 4.608 L 5.401 4.476 5.395 3.263 L 5.390 2.050 5.296 1.858 C 5.167 1.595,5.036 1.462,4.766 1.324 L 4.563 1.220 3.357 1.222 C 2.693 1.224,2.102 1.233,2.044 1.242 M7.444 1.242 C 7.229 1.278,6.966 1.456,6.820 1.664 C 6.605 1.970,6.593 2.068,6.604 3.464 C 6.614 4.682,6.605 4.614,6.805 4.913 C 6.920 5.086,7.067 5.205,7.300 5.318 L 7.450 5.390 8.700 5.390 L 9.950 5.390 10.120 5.308 C 10.213 5.263,10.341 5.185,10.403 5.134 C 10.523 5.036,10.671 4.830,10.728 4.681 C 10.787 4.529,10.803 4.165,10.796 3.116 C 10.789 2.143,10.787 2.106,10.744 1.980 C 10.633 1.652,10.411 1.422,10.050 1.262 C 9.957 1.221,9.932 1.220,8.752 1.222 C 8.091 1.224,7.502 1.233,7.444 1.242 M4.200 3.300 L 4.200 4.200 3.300 4.200 L 2.400 4.200 2.400 3.300 L 2.400 2.400 3.300 2.400 L 4.200 2.400 4.200 3.300 M9.600 3.300 L 9.600 4.200 8.700 4.200 L 7.800 4.200 7.800 3.300 L 7.800 2.400 8.700 2.400 L 9.600 2.400 9.600 3.300 M2.044 6.642 C 1.829 6.678,1.566 6.856,1.420 7.064 C 1.205 7.370,1.193 7.468,1.204 8.864 C 1.213 9.914,1.214 9.932,1.258 10.046 C 1.393 10.390,1.656 10.638,2.017 10.762 C 2.119 10.798,2.204 10.800,3.318 10.800 L 4.510 10.800 4.667 10.731 C 4.975 10.596,5.154 10.429,5.297 10.142 L 5.390 9.954 5.390 8.742 C 5.390 7.543,5.390 7.528,5.345 7.390 C 5.239 7.057,5.017 6.824,4.650 6.662 C 4.557 6.621,4.532 6.620,3.352 6.622 C 2.691 6.624,2.102 6.633,2.044 6.642 M7.015 6.640 C 6.929 6.666,6.830 6.734,6.750 6.823 C 6.609 6.979,6.611 6.965,6.610 7.800 C 6.610 8.542,6.610 8.551,6.656 8.643 C 6.710 8.752,6.870 8.909,6.975 8.955 C 7.038 8.983,7.154 8.989,7.723 8.996 L 8.396 9.004 8.403 9.677 C 8.411 10.450,8.411 10.452,8.601 10.629 C 8.778 10.794,8.751 10.790,9.600 10.790 C 10.341 10.790,10.351 10.789,10.443 10.744 C 10.553 10.690,10.709 10.530,10.755 10.425 C 10.783 10.361,10.789 10.238,10.796 9.615 L 10.804 8.879 10.748 8.769 C 10.686 8.645,10.565 8.524,10.442 8.461 C 10.366 8.422,10.316 8.419,9.682 8.407 L 9.004 8.394 8.997 7.722 C 8.990 7.055,8.989 7.049,8.941 6.954 C 8.884 6.843,8.760 6.721,8.643 6.661 C 8.565 6.622,8.532 6.620,7.816 6.622 C 7.406 6.623,7.045 6.631,7.015 6.640 M4.200 8.700 L 4.200 9.600 3.300 9.600 L 2.400 9.600 2.400 8.700 L 2.400 7.800 3.300 7.800 L 4.200 7.800 4.200 8.700 " fill="#1A1C1F" stroke="none" fill-rule="evenodd"></path></svg>