<svg width="14" height="14" viewBox="0 0 14 14" fill="none" xmlns="http://www.w3.org/2000/svg"><path d="M2.385 1.449 C 2.237 1.474,2.091 1.546,1.899 1.687 C 1.720 1.818,1.538 2.083,1.464 2.318 C 1.412 2.483,1.412 2.499,1.412 3.838 C 1.412 5.060,1.416 5.206,1.453 5.341 C 1.572 5.773,1.889 6.096,2.348 6.254 C 2.474 6.298,2.552 6.300,3.853 6.300 L 5.225 6.300 5.410 6.233 C 5.630 6.152,5.729 6.088,5.911 5.909 C 6.071 5.752,6.189 5.553,6.247 5.343 C 6.284 5.206,6.288 5.066,6.288 3.850 C 6.288 2.650,6.284 2.493,6.248 2.363 C 6.198 2.183,6.146 2.080,6.021 1.912 C 5.902 1.751,5.762 1.642,5.514 1.519 L 5.322 1.423 3.915 1.426 C 3.142 1.428,2.453 1.438,2.385 1.449 M8.685 1.449 C 8.537 1.474,8.391 1.546,8.199 1.687 C 8.020 1.818,7.838 2.083,7.764 2.318 C 7.712 2.483,7.712 2.499,7.712 3.838 C 7.712 5.080,7.715 5.204,7.754 5.343 C 7.870 5.753,8.160 6.061,8.603 6.243 L 8.738 6.299 10.146 6.299 L 11.553 6.300 11.731 6.226 C 12.176 6.041,12.476 5.708,12.559 5.308 C 12.580 5.206,12.588 4.805,12.588 3.827 C 12.588 2.590,12.585 2.474,12.545 2.345 C 12.435 1.983,12.198 1.713,11.830 1.528 L 11.621 1.423 10.215 1.426 C 9.441 1.428,8.753 1.438,8.685 1.449 M4.900 3.850 L 4.900 4.900 3.850 4.900 L 2.800 4.900 2.800 3.850 L 2.800 2.800 3.850 2.800 L 4.900 2.800 4.900 3.850 M11.200 3.850 L 11.200 4.900 10.150 4.900 L 9.100 4.900 9.100 3.850 L 9.100 2.800 10.150 2.800 L 11.200 2.800 11.200 3.850 M2.385 7.749 C 2.033 7.808,1.634 8.159,1.494 8.531 C 1.416 8.739,1.400 9.015,1.401 10.127 C 1.402 11.410,1.415 11.609,1.511 11.812 C 1.678 12.166,1.957 12.419,2.307 12.534 C 2.456 12.583,2.505 12.585,3.675 12.595 C 4.951 12.605,5.212 12.592,5.449 12.508 C 5.764 12.398,6.014 12.166,6.179 11.830 L 6.288 11.608 6.288 10.197 C 6.288 8.893,6.285 8.774,6.245 8.645 C 6.135 8.283,5.898 8.013,5.530 7.828 L 5.321 7.723 3.915 7.726 C 3.141 7.728,2.453 7.738,2.385 7.749 M8.106 7.782 C 7.953 7.857,7.823 7.983,7.761 8.118 C 7.714 8.221,7.712 8.261,7.712 9.100 C 7.712 9.965,7.712 9.976,7.765 10.084 C 7.828 10.211,8.014 10.393,8.138 10.448 C 8.212 10.481,8.343 10.488,9.010 10.495 L 9.796 10.504 9.804 11.290 C 9.813 12.191,9.813 12.194,10.035 12.401 C 10.240 12.593,10.209 12.588,11.200 12.588 C 12.065 12.588,12.076 12.588,12.184 12.535 C 12.243 12.505,12.341 12.429,12.401 12.365 C 12.593 12.160,12.588 12.191,12.588 11.200 C 12.588 10.210,12.593 10.240,12.402 10.036 C 12.210 9.831,12.185 9.826,11.286 9.808 L 10.505 9.793 10.495 9.009 C 10.485 8.129,10.486 8.135,10.310 7.944 C 10.112 7.730,10.146 7.736,9.123 7.729 L 8.225 7.724 8.106 7.782 M4.900 10.150 L 4.900 11.200 3.850 11.200 L 2.800 11.200 2.800 10.150 L 2.800 9.100 3.850 9.100 L 4.900 9.100 4.900 10.150 " fill="#1A1C1F" stroke="none" fill-rule="evenodd"></path></svg>