<svg width="20" height="20" viewBox="0 0 20 20" fill="none" xmlns="http://www.w3.org/2000/svg"><path d="M4.450 2.068 C 3.556 2.186,2.609 2.956,2.231 3.872 C 1.990 4.457,1.993 4.434,2.005 5.914 C 2.017 7.238,2.017 7.251,2.094 7.400 C 2.432 8.050,3.231 8.182,3.712 7.668 C 3.996 7.364,3.988 7.410,4.011 6.009 C 4.030 4.837,4.035 4.759,4.102 4.602 C 4.183 4.414,4.389 4.208,4.604 4.098 C 4.742 4.028,4.793 4.024,5.999 4.008 C 7.412 3.989,7.363 3.998,7.668 3.712 C 8.174 3.239,8.072 2.486,7.454 2.132 L 7.283 2.034 5.967 2.038 C 5.242 2.040,4.560 2.054,4.450 2.068 M12.583 2.111 C 12.142 2.325,11.911 2.835,12.051 3.283 C 12.124 3.514,12.354 3.780,12.589 3.906 L 12.750 3.992 13.991 4.011 C 15.163 4.030,15.241 4.035,15.398 4.102 C 15.586 4.183,15.792 4.389,15.902 4.604 C 15.972 4.742,15.976 4.793,15.992 5.999 C 16.011 7.412,16.002 7.363,16.288 7.668 C 16.769 8.182,17.568 8.050,17.906 7.400 C 17.983 7.251,17.983 7.237,17.995 5.921 C 18.005 4.755,18.000 4.567,17.950 4.388 C 17.878 4.124,17.685 3.670,17.540 3.422 C 17.397 3.176,17.058 2.816,16.770 2.602 C 16.507 2.407,15.986 2.149,15.750 2.096 C 15.648 2.074,15.031 2.054,14.167 2.045 L 12.750 2.031 12.583 2.111 M6.577 6.118 C 6.359 6.226,6.176 6.406,6.088 6.598 C 6.021 6.742,6.017 6.804,6.018 7.717 C 6.020 8.881,6.023 8.900,6.312 9.188 C 6.599 9.476,6.623 9.480,7.750 9.480 C 8.877 9.480,8.901 9.476,9.188 9.188 C 9.476 8.901,9.480 8.879,9.482 7.733 C 9.484 6.631,9.473 6.575,9.203 6.323 C 8.890 6.030,8.907 6.033,7.758 6.033 L 6.746 6.033 6.577 6.118 M11.077 6.118 C 10.859 6.226,10.676 6.406,10.588 6.598 C 10.521 6.742,10.517 6.804,10.518 7.717 C 10.520 8.881,10.523 8.900,10.812 9.188 C 11.099 9.476,11.123 9.480,12.250 9.480 C 13.377 9.480,13.401 9.476,13.688 9.188 C 13.976 8.901,13.980 8.879,13.982 7.733 C 13.984 6.631,13.973 6.575,13.703 6.323 C 13.390 6.030,13.407 6.033,12.258 6.033 L 11.246 6.033 11.077 6.118 M11.230 10.530 C 10.949 10.561,10.741 10.680,10.604 10.888 L 10.500 11.045 10.500 11.774 L 10.500 12.503 10.708 12.715 C 10.933 12.944,11.056 12.999,11.342 13.000 L 11.500 13.000 11.500 13.158 C 11.501 13.444,11.556 13.567,11.785 13.792 L 11.997 14.000 12.752 14.000 L 13.508 14.000 13.754 13.754 L 14.000 13.508 14.000 12.785 C 14.000 11.984,13.997 11.970,13.778 11.762 C 13.601 11.594,13.467 11.534,13.216 11.511 L 13.000 11.490 13.000 11.343 C 13.000 11.100,12.937 10.919,12.805 10.783 C 12.602 10.572,12.464 10.531,11.923 10.517 C 11.663 10.510,11.351 10.516,11.230 10.530 M6.577 10.618 C 6.359 10.726,6.176 10.906,6.088 11.098 C 6.021 11.242,6.017 11.304,6.018 12.217 C 6.020 13.381,6.023 13.400,6.312 13.688 C 6.599 13.976,6.623 13.980,7.750 13.980 C 8.877 13.980,8.901 13.976,9.188 13.688 C 9.476 13.401,9.480 13.379,9.482 12.233 C 9.484 11.131,9.473 11.075,9.203 10.823 C 8.890 10.530,8.907 10.533,7.758 10.533 L 6.746 10.533 6.577 10.618 M2.550 12.129 C 2.327 12.260,2.171 12.419,2.087 12.600 C 2.020 12.743,2.016 12.811,2.006 14.117 L 1.995 15.484 2.111 15.802 C 2.333 16.416,2.568 16.800,2.938 17.152 C 3.304 17.500,3.673 17.712,4.242 17.899 L 4.567 18.006 5.909 17.995 C 7.238 17.983,7.251 17.983,7.400 17.906 C 8.179 17.502,8.176 16.498,7.395 16.097 C 7.254 16.025,7.213 16.022,6.000 16.007 C 4.594 15.990,4.641 15.998,4.344 15.724 C 4.174 15.568,4.077 15.398,4.050 15.211 C 4.040 15.141,4.018 14.573,4.001 13.950 C 3.964 12.613,3.952 12.550,3.701 12.324 C 3.458 12.105,3.330 12.053,3.000 12.041 C 2.737 12.031,2.705 12.037,2.550 12.129 M16.562 12.117 C 16.373 12.215,16.228 12.357,16.110 12.558 L 16.021 12.710 15.995 13.897 C 15.981 14.549,15.961 15.141,15.951 15.211 C 15.923 15.399,15.825 15.568,15.656 15.724 C 15.359 15.998,15.406 15.990,14.000 16.007 C 12.787 16.022,12.746 16.025,12.605 16.097 C 12.387 16.209,12.183 16.414,12.097 16.609 C 11.884 17.088,12.101 17.647,12.600 17.906 C 12.749 17.983,12.762 17.983,14.091 17.995 L 15.433 18.006 15.758 17.899 C 16.866 17.534,17.482 16.928,17.889 15.804 L 18.003 15.487 17.993 14.135 C 17.984 12.823,17.981 12.779,17.910 12.624 C 17.811 12.409,17.543 12.154,17.346 12.087 C 17.104 12.005,16.752 12.018,16.562 12.117 " fill="#1A1C1F" stroke="none" fill-rule="evenodd"></path></svg>