<svg width="28" height="28" viewBox="0 0 28 28" fill="none" xmlns="http://www.w3.org/2000/svg"><path d="M4.690 2.712 C 3.923 2.823,3.106 3.520,2.799 4.324 C 2.642 4.737,2.603 5.679,2.625 8.540 L 2.644 11.037 2.792 11.410 C 3.085 12.153,3.608 12.676,4.357 12.974 L 4.725 13.120 7.857 13.102 C 11.287 13.082,11.239 13.086,11.780 12.797 C 12.085 12.633,12.634 12.084,12.798 11.778 C 13.091 11.230,13.090 11.247,13.090 7.887 C 13.090 5.108,13.082 4.803,13.008 4.532 C 12.883 4.080,12.707 3.792,12.321 3.405 C 11.887 2.971,11.514 2.772,11.013 2.708 C 10.581 2.652,5.077 2.656,4.690 2.712 M17.078 2.706 C 16.740 2.733,16.627 2.766,16.333 2.920 C 15.821 3.189,15.375 3.654,15.099 4.206 L 14.882 4.639 14.896 7.861 L 14.910 11.083 15.037 11.400 C 15.202 11.811,15.456 12.191,15.711 12.405 C 16.012 12.658,16.441 12.907,16.766 13.017 C 17.043 13.111,17.140 13.113,20.143 13.113 L 23.235 13.113 23.623 12.973 C 24.394 12.694,24.993 12.074,25.249 11.293 L 25.363 10.943 25.363 7.863 L 25.362 4.783 25.254 4.480 C 25.045 3.892,24.738 3.467,24.293 3.152 C 23.819 2.816,23.655 2.753,23.133 2.706 C 22.591 2.657,17.684 2.657,17.078 2.706 M10.835 4.462 C 10.904 4.475,11.046 4.579,11.150 4.692 L 11.340 4.898 11.340 7.903 L 11.340 10.908 11.133 11.099 C 11.019 11.204,10.867 11.307,10.794 11.327 C 10.722 11.347,9.403 11.363,7.863 11.363 C 5.707 11.363,5.025 11.350,4.895 11.304 C 4.802 11.271,4.661 11.162,4.580 11.061 L 4.433 10.879 4.433 7.888 C 4.433 4.584,4.415 4.786,4.731 4.560 C 4.865 4.465,4.947 4.454,5.763 4.428 C 6.722 4.397,10.630 4.423,10.835 4.462 M23.305 4.585 C 23.422 4.687,23.493 4.798,23.522 4.923 C 23.545 5.026,23.565 6.407,23.566 7.993 C 23.567 11.221,23.591 10.987,23.223 11.254 L 23.039 11.387 20.295 11.387 C 18.473 11.387,17.471 11.369,17.311 11.335 C 17.133 11.297,17.019 11.234,16.866 11.087 L 16.660 10.889 16.660 7.896 L 16.660 4.903 16.811 4.731 C 17.079 4.426,16.949 4.437,20.187 4.435 L 23.131 4.433 23.305 4.585 M6.650 6.238 C 6.459 6.338,6.306 6.483,6.214 6.650 C 6.149 6.768,6.138 6.956,6.137 7.867 L 6.137 8.944 6.277 9.171 C 6.519 9.562,6.599 9.587,7.669 9.607 C 8.964 9.630,9.055 9.615,9.364 9.322 L 9.613 9.086 9.613 7.886 L 9.613 6.686 9.415 6.475 C 9.287 6.338,9.151 6.245,9.030 6.212 C 8.920 6.182,8.422 6.161,7.817 6.162 C 6.973 6.163,6.765 6.177,6.650 6.238 M18.853 6.265 C 18.520 6.442,18.448 6.590,18.408 7.175 C 18.360 7.872,18.414 9.020,18.502 9.191 C 18.603 9.386,18.778 9.506,19.044 9.563 C 19.365 9.632,21.009 9.628,21.242 9.558 C 21.364 9.522,21.503 9.419,21.656 9.251 L 21.887 8.999 21.887 7.879 L 21.887 6.759 21.740 6.555 C 21.488 6.204,21.412 6.185,20.160 6.169 C 19.080 6.154,19.060 6.156,18.853 6.265 M4.620 14.980 C 4.320 15.034,4.177 15.097,3.820 15.334 C 3.304 15.677,2.948 16.155,2.708 16.827 C 2.607 17.109,2.607 17.125,2.625 20.164 C 2.642 23.082,2.647 23.231,2.739 23.533 C 2.948 24.220,3.629 24.938,4.340 25.220 C 4.660 25.347,6.145 25.399,8.750 25.374 C 10.946 25.353,10.996 25.350,11.317 25.243 C 12.061 24.994,12.674 24.403,12.973 23.648 L 13.120 23.274 13.102 20.142 C 13.082 16.676,13.085 16.721,12.773 16.201 C 12.561 15.847,12.034 15.364,11.620 15.143 L 11.270 14.957 8.050 14.950 C 6.279 14.946,4.736 14.960,4.620 14.980 M16.153 14.987 C 15.784 15.093,15.276 15.539,15.025 15.977 L 14.888 16.217 14.887 17.910 L 14.887 19.603 15.003 19.833 C 15.167 20.156,15.615 20.618,15.965 20.825 L 16.261 21.000 17.744 21.000 L 19.227 21.000 19.228 22.108 C 19.229 23.447,19.277 24.008,19.412 24.287 C 19.533 24.538,19.900 24.917,20.237 25.141 C 20.483 25.304,20.503 25.309,21.106 25.345 C 21.446 25.365,22.225 25.383,22.839 25.384 L 23.954 25.387 24.244 25.225 C 24.618 25.016,25.018 24.613,25.231 24.233 L 25.399 23.933 25.375 22.245 C 25.347 20.313,25.340 20.274,24.964 19.863 C 24.840 19.727,24.614 19.549,24.463 19.469 L 24.187 19.322 22.593 19.290 L 21.000 19.258 21.000 17.758 L 21.000 16.258 20.834 15.981 C 20.622 15.627,20.250 15.247,19.944 15.071 L 19.705 14.933 18.008 14.938 C 17.068 14.940,16.240 14.962,16.153 14.987 M10.970 16.759 C 11.034 16.801,11.144 16.919,11.215 17.022 L 11.345 17.208 11.331 20.142 L 11.317 23.077 11.209 23.249 C 11.150 23.344,11.029 23.467,10.939 23.523 L 10.776 23.623 7.920 23.601 C 5.934 23.586,5.011 23.562,4.890 23.524 C 4.792 23.493,4.656 23.396,4.575 23.298 L 4.433 23.125 4.433 20.170 C 4.433 16.984,4.425 17.093,4.680 16.855 C 4.746 16.794,4.894 16.730,5.023 16.707 C 5.148 16.686,6.511 16.671,8.052 16.676 C 10.555 16.683,10.867 16.691,10.970 16.759 M19.120 16.767 C 19.195 16.842,19.203 16.953,19.203 17.863 C 19.203 18.421,19.187 18.935,19.167 19.007 C 19.145 19.084,19.080 19.158,19.004 19.189 C 18.815 19.267,17.351 19.297,17.047 19.229 C 16.653 19.140,16.641 19.105,16.639 18.019 C 16.636 16.982,16.662 16.790,16.813 16.715 C 16.881 16.681,17.278 16.667,17.977 16.674 C 18.924 16.682,19.046 16.692,19.120 16.767 M7.023 18.427 C 6.639 18.462,6.403 18.588,6.244 18.844 C 6.140 19.011,6.137 19.049,6.138 20.090 C 6.141 21.357,6.158 21.436,6.495 21.702 L 6.728 21.887 7.864 21.887 L 8.999 21.887 9.253 21.654 C 9.607 21.331,9.628 21.236,9.602 20.036 C 9.578 18.871,9.525 18.673,9.193 18.504 C 9.057 18.434,7.535 18.380,7.023 18.427 M23.436 21.098 C 23.482 21.123,23.535 21.200,23.554 21.270 C 23.612 21.474,23.588 23.393,23.527 23.507 C 23.450 23.651,23.113 23.707,22.307 23.707 C 21.498 23.707,21.165 23.652,21.082 23.504 C 21.016 23.388,20.999 21.723,21.061 21.366 C 21.103 21.117,21.140 21.091,21.537 21.043 C 21.897 20.998,23.327 21.040,23.436 21.098 " fill="#1A1C1F" stroke="none" fill-rule="evenodd"></path></svg>