<svg width="16" height="16" viewBox="0 0 16 16" fill="none" xmlns="http://www.w3.org/2000/svg"><path d="M2.726 1.656 C 2.322 1.725,1.867 2.124,1.708 2.550 C 1.619 2.788,1.600 3.102,1.601 4.373 C 1.603 5.840,1.617 6.068,1.727 6.299 C 1.860 6.580,2.032 6.787,2.254 6.932 C 2.645 7.188,2.749 7.200,4.562 7.200 C 5.885 7.200,5.974 7.197,6.116 7.148 C 6.629 6.972,6.972 6.629,7.148 6.116 C 7.197 5.973,7.200 5.883,7.200 4.395 L 7.200 2.825 7.118 2.613 C 6.955 2.190,6.744 1.954,6.350 1.754 L 6.126 1.640 4.497 1.636 C 3.600 1.634,2.803 1.643,2.726 1.656 M9.926 1.656 C 9.522 1.725,9.067 2.124,8.908 2.550 C 8.819 2.788,8.800 3.102,8.801 4.373 C 8.803 5.908,8.815 6.071,8.948 6.343 C 9.088 6.627,9.384 6.924,9.656 7.052 C 9.936 7.185,10.133 7.200,11.560 7.199 C 13.069 7.198,13.276 7.183,13.538 7.053 C 13.925 6.863,14.157 6.604,14.318 6.187 L 14.400 5.975 14.400 4.400 L 14.400 2.825 14.318 2.613 C 14.155 2.190,13.944 1.954,13.550 1.754 L 13.326 1.640 11.697 1.636 C 10.800 1.634,10.003 1.643,9.926 1.656 M5.600 4.400 L 5.600 5.600 4.400 5.600 L 3.200 5.600 3.200 4.400 L 3.200 3.200 4.400 3.200 L 5.600 3.200 5.600 4.400 M12.800 4.400 L 12.800 5.600 11.600 5.600 L 10.400 5.600 10.400 4.400 L 10.400 3.200 11.600 3.200 L 12.800 3.200 12.800 4.400 M2.726 8.856 C 2.322 8.925,1.867 9.324,1.708 9.750 C 1.619 9.988,1.600 10.302,1.601 11.573 C 1.603 13.040,1.617 13.268,1.727 13.499 C 1.860 13.780,2.032 13.987,2.254 14.132 C 2.645 14.388,2.749 14.400,4.562 14.400 C 5.885 14.400,5.974 14.397,6.116 14.348 C 6.629 14.172,6.972 13.829,7.148 13.316 C 7.197 13.173,7.200 13.083,7.200 11.595 L 7.200 10.025 7.118 9.813 C 6.955 9.390,6.744 9.154,6.350 8.954 L 6.126 8.840 4.497 8.836 C 3.600 8.834,2.803 8.843,2.726 8.856 M9.264 8.890 C 9.095 8.969,8.954 9.113,8.864 9.297 L 8.794 9.439 8.804 10.420 C 8.814 11.375,8.816 11.403,8.875 11.524 C 8.946 11.670,9.159 11.878,9.301 11.940 C 9.385 11.977,9.539 11.986,10.298 11.995 L 11.195 12.005 11.204 12.903 C 11.215 13.933,11.215 13.936,11.468 14.172 C 11.704 14.392,11.668 14.387,12.800 14.387 C 13.789 14.387,13.801 14.386,13.924 14.326 C 13.992 14.292,14.104 14.205,14.172 14.132 C 14.392 13.896,14.387 13.932,14.387 12.800 C 14.387 11.669,14.392 11.703,14.174 11.470 C 13.954 11.235,13.924 11.229,12.897 11.209 L 12.006 11.191 11.995 10.296 C 11.982 9.290,11.983 9.296,11.783 9.079 C 11.557 8.834,11.596 8.841,10.427 8.833 L 9.400 8.826 9.264 8.890 M5.600 11.600 L 5.600 12.800 4.400 12.800 L 3.200 12.800 3.200 11.600 L 3.200 10.400 4.400 10.400 L 5.600 10.400 5.600 11.600 " fill="#1A1C1F" stroke="none" fill-rule="evenodd"></path></svg>