<svg width="12" height="12" viewBox="0 0 12 12" fill="none" xmlns="http://www.w3.org/2000/svg"><path d="M2.670 1.240 C 2.511 1.262,2.385 1.306,2.179 1.412 C 1.800 1.607,1.500 1.937,1.333 2.343 C 1.194 2.681,1.195 2.668,1.204 3.553 C 1.213 4.452,1.208 4.425,1.370 4.597 C 1.610 4.854,1.989 4.856,2.227 4.601 C 2.398 4.418,2.393 4.446,2.406 3.607 C 2.417 2.901,2.419 2.859,2.461 2.762 C 2.510 2.649,2.633 2.525,2.763 2.459 C 2.847 2.416,2.875 2.414,3.600 2.405 C 4.447 2.394,4.417 2.399,4.601 2.227 C 4.855 1.990,4.856 1.604,4.603 1.375 C 4.435 1.224,4.481 1.230,3.590 1.227 C 3.150 1.225,2.736 1.231,2.670 1.240 M7.566 1.258 C 7.292 1.386,7.145 1.697,7.231 1.970 C 7.274 2.108,7.412 2.268,7.553 2.343 L 7.650 2.395 8.393 2.406 C 9.099 2.417,9.141 2.419,9.238 2.461 C 9.351 2.510,9.475 2.633,9.541 2.763 C 9.584 2.847,9.586 2.875,9.595 3.600 C 9.606 4.447,9.601 4.417,9.773 4.601 C 10.061 4.909,10.541 4.830,10.743 4.440 C 10.790 4.351,10.790 4.342,10.797 3.553 C 10.803 2.853,10.800 2.740,10.770 2.633 C 10.727 2.474,10.611 2.202,10.524 2.053 C 10.438 1.906,10.235 1.690,10.062 1.561 C 9.904 1.444,9.592 1.289,9.450 1.258 C 9.389 1.244,9.020 1.232,8.500 1.227 C 7.689 1.219,7.646 1.221,7.566 1.258 M3.965 3.659 C 3.841 3.716,3.688 3.868,3.646 3.977 C 3.614 4.059,3.610 4.138,3.611 4.640 C 3.612 5.327,3.614 5.341,3.787 5.513 C 3.959 5.685,3.974 5.688,4.650 5.688 C 5.326 5.688,5.341 5.685,5.513 5.513 C 5.686 5.341,5.688 5.329,5.689 4.630 C 5.690 4.052,5.690 4.050,5.641 3.954 C 5.582 3.839,5.450 3.711,5.334 3.659 C 5.257 3.624,5.197 3.621,4.650 3.621 C 4.101 3.621,4.043 3.624,3.965 3.659 M6.665 3.659 C 6.541 3.716,6.388 3.868,6.346 3.977 C 6.314 4.059,6.310 4.138,6.311 4.640 C 6.312 5.327,6.314 5.341,6.487 5.513 C 6.659 5.685,6.674 5.688,7.350 5.688 C 8.026 5.688,8.041 5.685,8.213 5.513 C 8.386 5.341,8.388 5.329,8.389 4.630 C 8.390 4.052,8.390 4.050,8.341 3.954 C 8.282 3.839,8.150 3.711,8.034 3.659 C 7.957 3.624,7.897 3.621,7.350 3.621 C 6.801 3.621,6.743 3.624,6.665 3.659 M6.740 6.317 C 6.574 6.334,6.446 6.407,6.362 6.533 L 6.300 6.627 6.300 7.064 L 6.300 7.502 6.425 7.629 C 6.560 7.766,6.634 7.800,6.805 7.800 L 6.900 7.800 6.900 7.895 C 6.900 8.066,6.934 8.140,7.071 8.275 L 7.198 8.400 7.651 8.400 L 8.105 8.400 8.252 8.252 L 8.400 8.105 8.400 7.671 C 8.400 7.191,8.398 7.182,8.267 7.057 C 8.160 6.956,8.080 6.920,7.929 6.906 L 7.800 6.894 7.800 6.806 C 7.800 6.593,7.705 6.436,7.528 6.357 C 7.435 6.316,6.977 6.292,6.740 6.317 M3.965 6.359 C 3.841 6.416,3.688 6.568,3.646 6.677 C 3.614 6.759,3.610 6.838,3.611 7.340 C 3.612 8.027,3.614 8.041,3.787 8.213 C 3.959 8.385,3.974 8.388,4.650 8.388 C 5.326 8.388,5.341 8.385,5.513 8.213 C 5.686 8.041,5.688 8.029,5.689 7.330 C 5.690 6.752,5.690 6.750,5.641 6.654 C 5.582 6.539,5.450 6.411,5.334 6.359 C 5.257 6.324,5.197 6.321,4.650 6.321 C 4.101 6.321,4.043 6.324,3.965 6.359 M1.678 7.219 C 1.522 7.249,1.315 7.417,1.246 7.570 C 1.214 7.642,1.210 7.736,1.204 8.470 L 1.197 9.290 1.261 9.470 C 1.500 10.145,1.879 10.520,2.545 10.740 L 2.740 10.804 3.545 10.797 C 4.343 10.790,4.351 10.790,4.440 10.743 C 4.907 10.501,4.906 9.900,4.437 9.658 C 4.352 9.614,4.329 9.613,3.600 9.604 C 2.757 9.594,2.785 9.599,2.606 9.434 C 2.457 9.297,2.435 9.234,2.418 8.890 C 2.410 8.725,2.402 8.446,2.401 8.270 C 2.399 7.894,2.372 7.601,2.331 7.523 C 2.231 7.328,1.905 7.177,1.678 7.219 M9.950 7.267 C 9.831 7.322,9.740 7.408,9.665 7.537 L 9.610 7.630 9.596 8.340 C 9.589 8.730,9.577 9.085,9.571 9.127 C 9.553 9.240,9.495 9.341,9.394 9.434 C 9.215 9.599,9.243 9.594,8.400 9.604 C 7.671 9.613,7.648 9.614,7.563 9.658 C 7.167 9.862,7.089 10.337,7.403 10.630 C 7.575 10.792,7.547 10.787,8.455 10.796 L 9.260 10.804 9.455 10.740 C 10.119 10.521,10.489 10.157,10.733 9.482 L 10.802 9.292 10.796 8.481 C 10.790 7.694,10.789 7.667,10.746 7.575 C 10.686 7.446,10.526 7.293,10.407 7.252 C 10.266 7.204,10.071 7.210,9.950 7.267 " fill="#1A1C1F" stroke="none" fill-rule="evenodd"></path></svg>