<svg width="24" height="24" viewBox="0 0 24 24" fill="none" xmlns="http://www.w3.org/2000/svg"><path d="M4.891 3.100 C 4.084 3.276,3.363 3.981,3.094 4.860 C 3.026 5.079,3.020 5.270,3.020 7.040 C 3.020 8.963,3.021 8.982,3.112 9.248 C 3.231 9.591,3.443 9.916,3.751 10.228 C 4.052 10.533,4.333 10.723,4.700 10.867 L 4.980 10.978 7.000 10.978 L 9.020 10.978 9.300 10.867 C 10.000 10.591,10.592 9.999,10.867 9.300 L 10.977 9.020 10.977 7.000 L 10.977 4.980 10.867 4.700 C 10.540 3.867,9.734 3.176,8.977 3.078 C 8.515 3.019,5.184 3.037,4.891 3.100 M14.891 3.100 C 14.084 3.276,13.363 3.981,13.094 4.860 C 13.026 5.079,13.020 5.270,13.020 7.040 C 13.020 8.963,13.021 8.982,13.112 9.248 C 13.231 9.591,13.443 9.916,13.751 10.228 C 14.052 10.533,14.333 10.723,14.700 10.867 L 14.980 10.978 17.000 10.978 L 19.020 10.978 19.300 10.867 C 20.000 10.591,20.592 9.999,20.867 9.300 L 20.977 9.020 20.977 7.000 L 20.977 4.980 20.867 4.700 C 20.540 3.867,19.734 3.176,18.977 3.078 C 18.515 3.019,15.184 3.037,14.891 3.100 M8.792 5.106 C 8.842 5.138,8.901 5.209,8.922 5.265 C 8.944 5.323,8.960 6.072,8.960 7.040 L 8.960 8.714 8.842 8.832 L 8.724 8.950 7.859 8.980 C 6.738 9.018,5.335 8.972,5.215 8.893 C 5.029 8.771,5.020 8.681,5.020 7.020 C 5.020 5.407,5.035 5.241,5.188 5.113 C 5.283 5.035,6.032 5.007,7.460 5.028 C 8.456 5.043,8.718 5.059,8.792 5.106 M18.792 5.106 C 18.842 5.138,18.901 5.209,18.922 5.265 C 18.944 5.323,18.960 6.072,18.960 7.040 L 18.960 8.714 18.842 8.832 L 18.724 8.950 17.859 8.980 C 16.738 9.018,15.335 8.972,15.215 8.893 C 15.029 8.771,15.020 8.681,15.020 7.020 C 15.020 5.407,15.035 5.241,15.188 5.113 C 15.283 5.035,16.032 5.007,17.460 5.028 C 18.456 5.043,18.718 5.059,18.792 5.106 M4.891 13.100 C 4.084 13.276,3.363 13.981,3.094 14.860 C 3.026 15.079,3.020 15.270,3.020 17.040 C 3.020 18.963,3.021 18.982,3.112 19.248 C 3.231 19.591,3.443 19.916,3.751 20.228 C 4.052 20.533,4.333 20.723,4.700 20.867 L 4.980 20.978 7.000 20.978 L 9.020 20.978 9.300 20.867 C 10.000 20.591,10.592 19.999,10.867 19.300 L 10.977 19.020 10.977 17.000 L 10.977 14.980 10.867 14.700 C 10.540 13.867,9.734 13.176,8.977 13.078 C 8.515 13.019,5.184 13.037,4.891 13.100 M13.693 13.078 C 13.502 13.124,13.270 13.328,13.138 13.567 L 13.020 13.780 13.020 15.480 C 13.020 16.784,13.032 17.215,13.073 17.329 C 13.136 17.507,13.445 17.826,13.640 17.913 C 13.753 17.964,13.994 17.979,14.890 17.992 L 16.000 18.008 16.000 19.126 C 16.000 20.149,16.006 20.256,16.077 20.392 C 16.172 20.576,16.460 20.859,16.620 20.925 C 16.707 20.962,17.204 20.980,18.455 20.991 C 20.430 21.010,20.379 21.017,20.712 20.664 C 20.874 20.494,20.920 20.413,20.947 20.256 C 20.989 20.008,20.991 16.818,20.949 16.668 C 20.903 16.504,20.607 16.200,20.408 16.111 C 20.256 16.043,20.101 16.031,19.118 16.011 L 18.000 15.988 18.000 14.884 L 17.999 13.780 17.882 13.575 C 17.713 13.281,17.481 13.110,17.203 13.075 C 16.903 13.037,13.853 13.040,13.693 13.078 M8.792 15.106 C 8.842 15.138,8.901 15.209,8.922 15.265 C 8.944 15.323,8.960 16.072,8.960 17.040 L 8.960 18.714 8.842 18.832 L 8.724 18.950 7.859 18.980 C 6.738 19.018,5.335 18.972,5.215 18.893 C 5.029 18.771,5.020 18.681,5.020 17.020 C 5.020 15.407,5.035 15.241,5.188 15.113 C 5.283 15.035,6.032 15.007,7.460 15.028 C 8.456 15.043,8.718 15.059,8.792 15.106 " fill="#1A1C1F" stroke="none" fill-rule="evenodd"></path></svg>