<svg width="32" height="32" viewBox="0 0 32 32" fill="none" xmlns="http://www.w3.org/2000/svg"><path d="M5.333 3.100 C 4.468 3.240,3.544 4.038,3.199 4.942 C 3.018 5.418,2.976 6.421,3.000 9.707 L 3.021 12.613 3.191 13.040 C 3.530 13.893,4.122 14.484,4.982 14.828 L 5.396 14.994 8.978 14.974 C 12.900 14.951,12.845 14.956,13.463 14.625 C 13.811 14.438,14.439 13.811,14.626 13.461 C 14.962 12.834,14.960 12.854,14.960 9.013 C 14.960 5.838,14.951 5.489,14.866 5.179 C 14.723 4.663,14.523 4.334,14.081 3.892 C 13.585 3.395,13.159 3.168,12.587 3.095 C 12.086 3.030,5.733 3.035,5.333 3.100 M19.573 3.090 C 19.042 3.129,18.673 3.279,18.190 3.650 C 17.758 3.983,17.538 4.255,17.252 4.809 L 17.008 5.281 17.024 8.974 L 17.040 12.667 17.185 13.028 C 17.373 13.499,17.664 13.932,17.955 14.177 C 18.300 14.467,18.790 14.751,19.161 14.876 C 19.478 14.983,19.589 14.987,23.021 14.987 L 26.554 14.987 26.998 14.826 C 27.865 14.512,28.555 13.807,28.850 12.933 C 28.975 12.563,28.976 12.534,28.999 9.733 C 29.012 8.179,29.000 6.535,28.973 6.080 C 28.928 5.338,28.906 5.213,28.759 4.863 C 28.548 4.364,28.219 3.937,27.813 3.638 C 27.271 3.238,27.043 3.147,26.437 3.093 C 25.840 3.039,20.298 3.037,19.573 3.090 M12.383 5.100 C 12.462 5.115,12.624 5.233,12.743 5.362 L 12.960 5.598 12.960 9.032 L 12.960 12.466 12.723 12.685 C 12.593 12.805,12.419 12.922,12.336 12.945 C 12.254 12.968,10.747 12.987,8.987 12.987 C 6.522 12.987,5.742 12.971,5.594 12.918 C 5.488 12.881,5.326 12.756,5.234 12.642 L 5.067 12.433 5.067 9.014 L 5.067 5.596 5.184 5.437 C 5.423 5.114,5.487 5.096,6.560 5.060 C 7.629 5.025,12.150 5.055,12.383 5.100 M26.599 5.208 C 26.694 5.279,26.802 5.391,26.839 5.456 C 26.891 5.546,26.910 6.360,26.922 8.999 C 26.939 12.841,26.967 12.552,26.541 12.861 L 26.331 13.013 23.195 13.013 C 21.112 13.013,19.967 12.994,19.785 12.955 C 19.580 12.911,19.451 12.838,19.275 12.670 L 19.040 12.445 19.040 9.024 L 19.040 5.604 19.207 5.413 C 19.299 5.308,19.425 5.194,19.487 5.158 C 19.646 5.067,21.011 5.036,23.947 5.059 L 26.427 5.078 26.599 5.208 M7.600 7.129 C 7.381 7.244,7.207 7.409,7.102 7.600 C 7.028 7.735,7.014 7.949,7.014 8.987 C 7.013 10.197,7.015 10.216,7.147 10.449 C 7.307 10.731,7.483 10.870,7.764 10.936 C 8.035 10.998,9.990 10.999,10.261 10.936 C 10.397 10.904,10.557 10.800,10.728 10.633 L 10.987 10.377 10.987 9.009 L 10.987 7.641 10.760 7.400 C 10.613 7.243,10.458 7.137,10.320 7.099 C 10.194 7.065,9.625 7.041,8.933 7.042 C 7.969 7.044,7.731 7.059,7.600 7.129 M21.547 7.161 C 21.166 7.363,21.083 7.531,21.038 8.200 C 20.983 8.997,21.044 10.309,21.145 10.504 C 21.260 10.726,21.461 10.864,21.765 10.929 C 22.104 11.002,24.016 11.004,24.276 10.932 C 24.406 10.896,24.563 10.777,24.743 10.581 L 25.013 10.285 25.013 9.004 L 25.013 7.724 24.846 7.491 C 24.558 7.090,24.471 7.069,23.040 7.050 C 21.805 7.033,21.783 7.035,21.547 7.161 M5.253 17.121 C 4.925 17.188,4.758 17.264,4.366 17.525 C 3.781 17.914,3.406 18.408,3.121 19.167 L 2.987 19.522 2.987 22.601 C 2.987 25.836,3.026 26.652,3.203 27.100 C 3.449 27.726,4.063 28.371,4.727 28.702 L 5.161 28.918 6.247 28.970 C 6.844 28.999,8.509 29.012,9.947 28.999 C 12.518 28.975,12.566 28.973,12.933 28.850 C 13.785 28.563,14.485 27.889,14.826 27.026 L 14.995 26.599 14.974 23.019 C 14.950 19.041,14.957 19.116,14.585 18.504 C 14.332 18.088,13.760 17.563,13.280 17.307 L 12.880 17.093 9.173 17.085 C 7.135 17.080,5.371 17.096,5.253 17.121 M18.461 17.128 C 18.039 17.249,17.459 17.758,17.172 18.259 L 17.014 18.533 17.014 20.473 L 17.013 22.412 17.176 22.717 C 17.374 23.089,17.838 23.556,18.264 23.810 L 18.580 24.000 20.270 24.000 L 21.959 24.000 21.988 25.640 C 22.010 26.919,22.035 27.339,22.100 27.547 C 22.254 28.038,22.948 28.731,23.440 28.887 C 23.652 28.954,24.078 28.977,25.529 28.999 L 27.351 29.027 27.695 28.835 C 28.133 28.590,28.590 28.134,28.835 27.696 L 29.026 27.353 29.000 25.423 C 28.969 23.215,28.962 23.172,28.530 22.700 C 28.388 22.545,28.129 22.342,27.954 22.248 L 27.636 22.079 25.818 22.044 L 24.000 22.009 24.000 20.295 L 24.000 18.580 23.810 18.264 C 23.568 17.859,23.143 17.425,22.794 17.224 L 22.520 17.067 20.580 17.071 C 19.506 17.074,18.560 17.099,18.461 17.128 M12.537 19.154 C 12.610 19.201,12.736 19.336,12.818 19.454 L 12.965 19.667 12.949 23.020 C 12.931 26.783,12.953 26.582,12.534 26.859 L 12.324 26.998 9.056 26.973 C 6.782 26.955,5.726 26.928,5.589 26.885 C 5.476 26.850,5.322 26.738,5.229 26.626 L 5.067 26.429 5.067 23.039 L 5.067 19.648 5.211 19.426 C 5.351 19.210,5.487 19.123,5.760 19.075 C 5.833 19.062,7.358 19.055,9.149 19.059 C 12.060 19.066,12.419 19.076,12.537 19.154 M21.845 19.152 C 21.938 19.255,21.947 19.358,21.947 20.419 C 21.947 21.054,21.928 21.640,21.905 21.722 C 21.880 21.811,21.805 21.895,21.719 21.930 C 21.502 22.019,19.829 22.053,19.482 21.976 C 19.030 21.874,19.015 21.831,19.014 20.590 C 19.013 19.406,19.043 19.188,19.214 19.105 C 19.288 19.069,19.794 19.046,20.538 19.044 C 21.698 19.040,21.747 19.044,21.845 19.152 M8.000 21.058 C 7.589 21.100,7.312 21.253,7.136 21.536 C 7.017 21.727,7.013 21.771,7.015 22.960 C 7.018 24.408,7.038 24.498,7.423 24.803 L 7.690 25.013 8.987 25.013 L 10.285 25.013 10.575 24.748 C 10.979 24.379,11.002 24.272,10.977 22.872 C 10.955 21.587,10.916 21.428,10.565 21.198 C 10.385 21.081,10.312 21.071,9.360 21.048 C 8.803 21.034,8.191 21.039,8.000 21.058 M26.784 24.112 C 26.938 24.195,26.960 24.392,26.955 25.601 C 26.950 26.840,26.927 26.956,26.678 27.026 C 26.490 27.079,24.497 27.079,24.308 27.026 C 24.050 26.954,24.027 26.840,24.027 25.653 C 24.027 24.473,24.059 24.193,24.201 24.129 C 24.479 24.005,26.559 23.992,26.784 24.112 " fill="#1A1C1F" stroke="none" fill-rule="evenodd"></path></svg>