<svg width="32" height="32" viewBox="0 0 32 32" fill="none" xmlns="http://www.w3.org/2000/svg"><path d="M5.547 2.078 C 4.945 2.124,4.646 2.217,4.066 2.540 C 3.172 3.038,2.461 3.922,2.163 4.907 C 2.032 5.340,1.940 7.109,2.014 7.785 C 2.083 8.421,2.143 8.560,2.443 8.770 C 2.882 9.078,3.470 8.962,3.825 8.497 L 3.967 8.310 4.012 6.892 L 4.058 5.473 4.222 5.165 C 4.426 4.782,4.870 4.355,5.240 4.186 C 5.505 4.065,5.598 4.055,6.901 4.020 L 8.281 3.983 8.496 3.818 C 8.793 3.591,8.975 3.239,8.944 2.950 C 8.908 2.612,8.743 2.338,8.489 2.196 C 8.281 2.080,8.199 2.071,7.187 2.054 C 6.593 2.043,5.855 2.054,5.547 2.078 M23.878 2.079 C 23.449 2.122,23.277 2.230,23.103 2.563 C 22.883 2.985,23.043 3.535,23.481 3.859 C 23.618 3.961,23.732 3.972,25.060 4.007 L 26.491 4.044 26.808 4.204 C 27.170 4.387,27.488 4.684,27.738 5.074 L 27.911 5.344 27.955 6.751 C 28.000 8.233,28.031 8.416,28.277 8.678 C 28.561 8.980,29.135 9.029,29.501 8.783 C 29.948 8.482,30.000 8.213,29.960 6.383 C 29.931 5.039,29.911 4.935,29.560 4.239 C 29.110 3.348,28.292 2.627,27.309 2.256 C 27.013 2.144,26.823 2.119,25.949 2.078 C 24.812 2.025,24.405 2.025,23.878 2.079 M9.428 7.036 C 8.869 7.072,8.766 7.095,8.455 7.252 C 7.687 7.643,7.164 8.332,7.042 9.120 C 6.974 9.550,6.971 12.386,7.037 12.843 C 7.165 13.726,7.870 14.558,8.747 14.859 C 9.013 14.951,9.216 14.960,10.987 14.960 C 12.757 14.960,12.960 14.951,13.227 14.859 C 14.103 14.558,14.808 13.726,14.936 12.843 C 14.963 12.658,14.985 11.823,14.985 10.987 C 14.985 10.151,14.963 9.315,14.936 9.130 C 14.865 8.640,14.618 8.157,14.255 7.794 C 13.582 7.122,13.296 7.043,11.440 7.016 C 10.677 7.004,9.772 7.013,9.428 7.036 M19.493 7.038 C 18.819 7.072,18.789 7.078,18.402 7.282 C 17.898 7.548,17.522 7.923,17.260 8.421 C 17.078 8.767,17.049 8.875,17.009 9.353 C 16.985 9.650,16.965 10.385,16.965 10.987 C 16.965 11.588,16.985 12.323,17.009 12.620 C 17.049 13.098,17.078 13.206,17.260 13.554 C 17.650 14.296,18.329 14.806,19.094 14.930 C 19.543 15.003,22.430 15.003,22.879 14.930 C 23.804 14.780,24.570 14.093,24.869 13.147 C 24.981 12.793,24.987 12.681,24.987 10.987 C 24.987 9.292,24.981 9.181,24.869 8.827 C 24.646 8.122,24.198 7.597,23.541 7.272 C 23.194 7.100,23.105 7.081,22.474 7.038 C 21.714 6.986,20.554 6.986,19.493 7.038 M12.838 9.135 C 12.926 9.223,12.933 9.371,12.933 10.949 C 12.932 12.221,12.914 12.697,12.865 12.784 C 12.825 12.855,12.719 12.919,12.599 12.944 C 12.340 12.999,9.633 12.999,9.374 12.944 C 9.043 12.874,9.040 12.859,9.040 10.952 C 9.040 9.328,9.045 9.232,9.144 9.123 C 9.247 9.009,9.263 9.008,10.995 9.024 C 12.591 9.039,12.751 9.048,12.838 9.135 M22.849 9.177 L 22.987 9.342 22.987 11.002 L 22.987 12.662 22.816 12.837 L 22.646 13.013 21.470 13.011 C 20.005 13.009,19.284 12.951,19.143 12.823 C 19.045 12.735,19.040 12.640,19.040 11.015 C 19.040 9.619,19.054 9.281,19.116 9.197 C 19.216 9.059,19.556 9.032,21.315 9.022 L 22.711 9.013 22.849 9.177 M18.080 17.061 C 17.507 17.098,17.327 17.185,17.111 17.534 C 16.990 17.729,16.987 17.768,16.968 19.417 C 16.949 21.024,16.953 21.111,17.056 21.311 C 17.231 21.650,17.504 21.877,17.798 21.925 C 17.938 21.948,18.491 21.968,19.027 21.970 L 20.000 21.973 20.000 22.957 C 20.000 24.123,20.053 24.437,20.290 24.674 C 20.575 24.959,20.756 24.983,22.593 24.984 L 24.252 24.984 24.472 24.838 C 24.593 24.758,24.759 24.592,24.840 24.470 L 24.987 24.248 25.003 23.010 C 25.021 21.691,24.961 20.740,24.845 20.502 C 24.805 20.422,24.688 20.288,24.583 20.204 L 24.394 20.051 23.189 20.017 L 21.985 19.983 21.962 18.858 C 21.937 17.577,21.900 17.425,21.564 17.209 C 21.364 17.080,21.336 17.077,19.973 17.053 C 19.211 17.040,18.359 17.043,18.080 17.061 M8.578 17.194 C 7.887 17.478,7.349 18.054,7.133 18.740 C 7.018 19.104,7.013 19.198,7.015 21.013 C 7.016 23.147,7.031 23.247,7.438 23.860 C 7.696 24.248,7.985 24.493,8.468 24.732 C 8.941 24.966,9.285 25.005,10.907 25.007 C 12.597 25.009,13.044 24.961,13.529 24.721 C 14.054 24.461,14.507 24.019,14.725 23.552 C 14.853 23.279,14.900 23.085,14.936 22.680 C 15.001 21.962,14.998 19.438,14.933 19.087 C 14.798 18.356,14.242 17.623,13.547 17.257 L 13.184 17.067 11.032 17.068 C 8.901 17.069,8.877 17.070,8.578 17.194 M12.796 19.125 L 12.960 19.263 12.960 20.987 L 12.960 22.711 12.796 22.849 L 12.632 22.987 11.156 22.984 C 9.595 22.982,9.249 22.949,9.136 22.795 C 9.030 22.650,9.036 19.316,9.142 19.170 C 9.241 19.036,9.601 19.007,11.316 18.995 L 12.632 18.987 12.796 19.125 M2.569 23.098 C 2.299 23.235,2.112 23.496,2.022 23.861 C 1.932 24.223,1.992 26.234,2.109 26.805 C 2.273 27.604,2.618 28.209,3.262 28.831 C 3.787 29.339,4.143 29.563,4.740 29.762 C 5.369 29.971,6.290 30.052,7.451 29.999 C 8.372 29.957,8.519 29.909,8.764 29.563 C 9.031 29.187,9.012 28.798,8.704 28.381 C 8.473 28.067,8.336 28.039,6.853 28.013 L 5.520 27.988 5.204 27.822 C 4.770 27.593,4.401 27.218,4.212 26.815 C 4.058 26.485,4.055 26.461,4.003 25.120 C 3.937 23.424,3.918 23.350,3.507 23.140 C 3.181 22.974,2.843 22.958,2.569 23.098 M28.718 23.041 C 28.462 23.119,28.118 23.445,28.055 23.669 C 28.025 23.778,28.000 24.227,27.999 24.667 C 27.995 25.861,27.924 26.524,27.761 26.855 C 27.597 27.191,27.105 27.672,26.732 27.860 C 26.465 27.996,26.426 28.000,25.455 28.004 C 24.904 28.006,24.239 28.026,23.978 28.049 C 23.512 28.090,23.498 28.095,23.302 28.306 C 22.830 28.811,22.937 29.569,23.521 29.867 C 23.994 30.109,26.426 30.056,27.233 29.787 C 28.539 29.352,29.503 28.300,29.871 26.907 C 29.970 26.532,29.985 26.317,29.992 25.147 C 30.000 23.883,29.994 23.800,29.885 23.564 C 29.692 23.146,29.159 22.908,28.718 23.041 " fill="#1A1C1F" stroke="none" fill-rule="evenodd"></path></svg>