<svg width="20" height="20" viewBox="0 0 20 20" fill="none" xmlns="http://www.w3.org/2000/svg"><path d="M3.407 2.070 C 2.906 2.154,2.334 2.655,2.136 3.185 C 2.021 3.490,2.000 3.855,2.002 5.466 C 2.004 7.471,2.013 7.585,2.199 7.953 C 2.436 8.419,2.797 8.732,3.318 8.921 L 3.536 9.000 5.496 9.000 C 7.369 9.000,7.465 8.997,7.650 8.933 C 8.262 8.723,8.705 8.292,8.913 7.704 C 8.975 7.528,8.980 7.410,8.993 5.756 C 9.011 3.461,8.992 3.297,8.647 2.792 C 8.468 2.531,8.211 2.325,7.849 2.153 L 7.597 2.033 5.590 2.037 C 4.487 2.039,3.504 2.054,3.407 2.070 M12.407 2.070 C 11.904 2.154,11.334 2.655,11.135 3.188 C 11.015 3.507,10.996 3.893,11.007 5.783 L 11.017 7.583 11.163 7.883 C 11.359 8.284,11.709 8.645,12.070 8.816 C 12.435 8.988,12.685 9.005,14.783 8.993 L 16.583 8.983 16.905 8.826 C 17.335 8.615,17.603 8.356,17.796 7.963 C 17.921 7.708,17.937 7.648,17.969 7.283 C 17.991 7.038,18.000 6.226,17.992 5.199 C 17.981 3.687,17.974 3.498,17.920 3.333 C 17.740 2.787,17.433 2.443,16.884 2.171 L 16.607 2.033 14.595 2.037 C 13.489 2.039,12.504 2.054,12.407 2.070 M7.000 5.500 L 7.000 7.000 5.500 7.000 L 4.000 7.000 4.000 5.500 L 4.000 4.000 5.500 4.000 L 7.000 4.000 7.000 5.500 M16.000 5.500 L 16.000 7.000 14.500 7.000 L 13.000 7.000 13.000 5.500 L 13.000 4.000 14.500 4.000 L 16.000 4.000 16.000 5.500 M3.407 11.070 C 2.906 11.154,2.334 11.655,2.136 12.185 C 2.021 12.490,2.000 12.855,2.002 14.466 C 2.004 16.471,2.013 16.585,2.199 16.953 C 2.432 17.410,2.808 17.740,3.296 17.913 C 3.472 17.975,3.591 17.980,5.200 17.993 C 6.863 18.006,7.437 17.985,7.735 17.901 C 8.025 17.818,8.490 17.455,8.704 17.144 C 8.757 17.067,8.846 16.890,8.902 16.750 L 9.004 16.496 8.992 14.506 C 8.982 12.691,8.975 12.501,8.920 12.333 C 8.739 11.786,8.433 11.443,7.884 11.171 L 7.607 11.033 5.595 11.037 C 4.489 11.039,3.504 11.054,3.407 11.070 M11.581 11.113 C 11.369 11.211,11.192 11.391,11.080 11.621 L 10.993 11.799 11.005 13.024 C 11.017 14.219,11.020 14.254,11.094 14.405 C 11.183 14.587,11.449 14.848,11.626 14.925 C 11.731 14.972,11.923 14.982,12.872 14.993 L 13.994 15.007 14.005 16.128 C 14.018 17.416,14.019 17.419,14.335 17.715 C 14.629 17.990,14.585 17.983,16.000 17.983 C 17.236 17.983,17.252 17.982,17.405 17.907 C 17.490 17.865,17.630 17.756,17.715 17.665 C 17.990 17.371,17.983 17.413,17.983 16.017 C 17.983 14.597,17.981 14.583,17.703 14.323 C 17.391 14.031,17.419 14.036,16.138 14.011 L 15.007 13.989 14.994 12.870 C 14.979 11.592,14.975 11.570,14.692 11.311 C 14.380 11.024,14.434 11.033,13.010 11.034 C 11.755 11.034,11.749 11.034,11.581 11.113 M7.000 14.500 L 7.000 16.000 5.500 16.000 L 4.000 16.000 4.000 14.500 L 4.000 13.000 5.500 13.000 L 7.000 13.000 7.000 14.500 " fill="#1A1C1F" stroke="none" fill-rule="evenodd"></path></svg>