<svg width="24" height="24" viewBox="0 0 24 24" fill="none" xmlns="http://www.w3.org/2000/svg"><path d="M5.286 2.082 C 4.587 2.176,3.818 2.580,3.207 3.175 C 2.840 3.533,2.595 3.873,2.380 4.326 C 2.064 4.991,1.986 5.605,2.007 7.240 C 2.021 8.374,2.022 8.375,2.307 8.646 C 2.499 8.828,2.650 8.905,2.887 8.940 C 3.167 8.982,3.462 8.882,3.676 8.672 C 3.968 8.385,3.971 8.369,4.005 7.000 C 4.047 5.327,4.094 5.144,4.619 4.619 C 5.143 4.096,5.325 4.049,7.000 4.004 C 7.793 3.983,8.262 3.955,8.340 3.923 C 8.749 3.757,9.028 3.234,8.944 2.789 C 8.905 2.577,8.693 2.291,8.486 2.169 L 8.300 2.060 6.920 2.054 C 6.161 2.051,5.426 2.063,5.286 2.082 M15.658 2.082 C 15.299 2.169,14.982 2.601,14.984 3.000 C 14.985 3.377,15.235 3.757,15.580 3.904 C 15.714 3.962,15.945 3.978,16.980 4.003 C 18.318 4.036,18.520 4.060,18.871 4.228 C 19.176 4.375,19.621 4.822,19.799 5.159 L 19.935 5.419 19.960 6.819 C 19.984 8.142,19.990 8.229,20.070 8.384 C 20.254 8.738,20.582 8.937,20.983 8.939 C 21.229 8.940,21.292 8.924,21.460 8.820 C 21.567 8.754,21.718 8.612,21.795 8.505 L 21.935 8.310 21.970 7.585 C 21.990 7.186,21.995 6.500,21.981 6.060 C 21.958 5.288,21.952 5.246,21.821 4.853 C 21.644 4.325,21.499 4.043,21.202 3.649 C 20.657 2.926,19.856 2.378,19.020 2.156 C 18.728 2.079,18.573 2.070,17.260 2.057 C 16.409 2.049,15.754 2.059,15.658 2.082 M14.325 6.042 C 14.011 6.068,13.902 6.096,13.655 6.219 C 13.257 6.415,12.894 6.779,12.696 7.180 L 12.548 7.479 12.508 8.264 C 12.480 8.804,12.481 9.198,12.510 9.529 C 12.548 9.971,12.565 10.037,12.719 10.347 C 12.928 10.770,13.218 11.066,13.614 11.261 C 14.091 11.495,14.363 11.532,15.400 11.505 C 16.388 11.479,16.579 11.446,16.941 11.240 C 17.203 11.089,17.542 10.771,17.692 10.533 C 17.931 10.154,17.972 9.940,17.990 8.960 C 17.999 8.465,17.989 7.921,17.967 7.750 C 17.885 7.107,17.487 6.558,16.871 6.238 L 16.550 6.071 15.885 6.037 C 15.118 5.999,14.845 6.000,14.325 6.042 M7.384 6.122 C 6.923 6.284,6.552 6.584,6.302 6.998 C 6.046 7.423,6.027 7.526,6.009 8.546 C 5.999 9.106,6.010 9.588,6.037 9.766 C 6.149 10.509,6.715 11.179,7.414 11.395 C 7.728 11.492,9.072 11.546,9.640 11.484 C 10.499 11.391,11.140 10.851,11.445 9.965 C 11.508 9.784,11.520 9.630,11.518 9.044 C 11.517 8.657,11.501 8.145,11.483 7.907 C 11.453 7.523,11.432 7.439,11.298 7.167 C 11.093 6.753,10.764 6.425,10.342 6.217 L 10.024 6.060 8.822 6.050 C 7.697 6.041,7.605 6.045,7.384 6.122 M9.480 8.760 L 9.480 9.520 8.740 9.520 L 8.000 9.520 8.000 8.760 L 8.000 8.000 8.740 8.000 L 9.480 8.000 9.480 8.760 M16.000 8.760 L 16.000 9.520 15.260 9.520 L 14.520 9.520 14.520 8.760 L 14.520 8.000 15.260 8.000 L 16.000 8.000 16.000 8.760 M7.773 12.559 C 7.471 12.582,7.357 12.610,7.136 12.719 C 6.573 12.996,6.132 13.605,6.037 14.234 C 6.010 14.413,5.999 14.890,6.010 15.454 C 6.025 16.280,6.036 16.406,6.113 16.617 C 6.363 17.297,6.981 17.833,7.657 17.957 C 7.958 18.012,9.456 18.013,9.800 17.958 C 10.127 17.906,10.564 17.701,10.807 17.484 C 11.066 17.254,11.304 16.883,11.410 16.545 C 11.493 16.280,11.499 16.186,11.497 15.220 C 11.496 14.274,11.488 14.157,11.412 13.930 C 11.242 13.422,10.823 12.951,10.334 12.717 C 10.119 12.615,9.992 12.584,9.664 12.557 C 9.200 12.519,8.309 12.520,7.773 12.559 M13.400 12.554 C 13.096 12.587,12.939 12.662,12.767 12.858 C 12.500 13.162,12.500 13.165,12.504 14.200 C 12.509 15.297,12.531 15.413,12.778 15.660 C 13.072 15.954,13.139 15.975,13.844 15.993 L 14.468 16.008 14.493 16.594 C 14.521 17.273,14.560 17.423,14.767 17.658 C 15.021 17.947,15.124 17.971,16.195 17.991 C 16.825 18.004,17.180 17.995,17.282 17.964 C 17.472 17.907,17.807 17.609,17.904 17.411 C 17.966 17.282,17.979 17.130,17.993 16.382 C 18.013 15.306,17.988 15.164,17.732 14.880 C 17.455 14.571,17.403 14.555,16.654 14.530 L 16.000 14.508 16.000 13.961 C 16.000 13.170,15.909 12.939,15.486 12.659 C 15.345 12.566,15.306 12.561,14.500 12.544 C 14.038 12.535,13.543 12.539,13.400 12.554 M9.480 15.260 L 9.480 16.000 8.740 16.000 L 8.000 16.000 8.000 15.260 L 8.000 14.520 8.740 14.520 L 9.480 14.520 9.480 15.260 M2.518 15.130 C 2.199 15.321,2.055 15.556,2.018 15.943 C 1.971 16.448,2.026 18.498,2.095 18.831 C 2.275 19.689,2.850 20.593,3.566 21.144 C 3.880 21.386,4.402 21.660,4.830 21.807 C 5.281 21.962,5.679 21.996,7.092 21.998 C 8.134 22.000,8.213 21.995,8.363 21.918 C 8.706 21.743,8.961 21.353,8.960 21.003 C 8.959 20.652,8.735 20.293,8.423 20.140 C 8.207 20.034,8.197 20.033,6.933 19.999 C 6.233 19.980,5.580 19.945,5.482 19.920 C 4.807 19.752,4.154 19.041,4.062 18.375 C 4.047 18.267,4.022 17.612,4.005 16.919 C 3.972 15.523,3.973 15.525,3.695 15.281 C 3.474 15.087,3.257 15.002,2.978 15.001 C 2.776 15.000,2.701 15.021,2.518 15.130 M20.540 15.114 C 20.295 15.258,20.147 15.415,20.081 15.600 C 20.048 15.692,20.020 16.164,19.998 16.980 C 19.966 18.241,19.933 18.534,19.791 18.820 C 19.558 19.287,19.053 19.739,18.600 19.885 C 18.369 19.959,18.194 19.972,17.046 20.002 C 15.761 20.035,15.750 20.036,15.536 20.140 C 15.145 20.331,14.964 20.681,15.013 21.152 C 15.038 21.400,15.171 21.618,15.416 21.817 C 15.546 21.923,15.600 21.937,15.970 21.965 C 16.574 22.010,17.873 22.006,18.400 21.957 C 19.324 21.872,20.072 21.521,20.774 20.843 C 21.307 20.328,21.678 19.684,21.870 18.940 C 21.973 18.541,22.015 17.529,21.975 16.409 L 21.947 15.630 21.824 15.446 C 21.636 15.168,21.373 15.024,21.024 15.009 C 20.770 14.998,20.719 15.009,20.540 15.114 " fill="#1A1C1F" stroke="none" fill-rule="evenodd"></path></svg>