<svg width="16" height="16" viewBox="0 0 16 16" fill="none" xmlns="http://www.w3.org/2000/svg"><path d="M10.346 1.627 C 10.114 1.649,9.976 1.712,9.835 1.858 C 9.683 2.015,9.614 2.191,9.617 2.413 C 9.618 2.524,9.637 2.641,9.664 2.701 C 9.724 2.837,9.879 3.004,10.040 3.107 L 10.173 3.192 11.179 3.208 C 12.131 3.223,12.192 3.227,12.318 3.282 C 12.469 3.347,12.634 3.511,12.722 3.684 C 12.779 3.796,12.781 3.833,12.794 4.800 C 12.809 5.930,12.802 5.890,13.030 6.134 C 13.415 6.546,14.055 6.440,14.324 5.920 C 14.386 5.801,14.387 5.790,14.396 4.727 L 14.405 3.654 14.320 3.394 C 14.130 2.815,13.852 2.407,13.431 2.091 C 13.227 1.938,12.850 1.746,12.646 1.692 C 12.390 1.625,10.830 1.580,10.346 1.627 M3.560 1.654 C 2.839 1.753,2.087 2.365,1.785 3.098 C 1.592 3.564,1.594 3.546,1.604 4.731 C 1.613 5.790,1.614 5.801,1.676 5.920 C 1.945 6.440,2.585 6.546,2.970 6.134 C 3.197 5.891,3.191 5.928,3.208 4.808 C 3.223 3.869,3.227 3.810,3.282 3.682 C 3.346 3.532,3.510 3.367,3.681 3.280 C 3.788 3.225,3.842 3.221,4.810 3.202 C 5.715 3.185,5.837 3.177,5.920 3.134 C 6.102 3.040,6.211 2.932,6.295 2.760 C 6.366 2.616,6.379 2.559,6.379 2.394 C 6.379 2.273,6.363 2.159,6.335 2.093 C 6.277 1.954,6.039 1.714,5.920 1.675 C 5.807 1.638,3.803 1.620,3.560 1.654 M5.264 4.890 C 5.095 4.970,4.954 5.113,4.863 5.299 L 4.793 5.442 4.805 6.221 C 4.820 7.124,4.825 7.146,5.072 7.378 C 5.285 7.578,5.324 7.585,6.200 7.585 C 7.101 7.585,7.121 7.581,7.351 7.351 C 7.582 7.120,7.585 7.104,7.585 6.173 C 7.586 5.301,7.586 5.299,7.383 5.079 C 7.162 4.840,7.169 4.841,6.227 4.833 C 5.403 4.826,5.400 4.826,5.264 4.890 M8.864 4.890 C 8.695 4.970,8.554 5.113,8.463 5.299 L 8.393 5.442 8.405 6.221 C 8.420 7.124,8.425 7.146,8.672 7.378 C 8.885 7.578,8.924 7.585,9.800 7.585 C 10.701 7.585,10.721 7.581,10.951 7.351 C 11.182 7.120,11.185 7.104,11.185 6.173 C 11.186 5.301,11.186 5.299,10.983 5.079 C 10.762 4.840,10.769 4.841,9.827 4.833 C 9.003 4.826,9.000 4.826,8.864 4.890 M8.944 8.422 C 8.747 8.444,8.597 8.539,8.480 8.715 L 8.400 8.836 8.400 9.419 L 8.400 10.003 8.567 10.172 C 8.747 10.355,8.845 10.400,9.073 10.400 L 9.200 10.400 9.200 10.522 C 9.200 10.764,9.246 10.867,9.431 11.040 L 9.602 11.200 10.204 11.200 L 10.806 11.200 11.003 11.003 L 11.200 10.806 11.200 10.213 L 11.200 9.620 11.108 9.495 C 10.986 9.329,10.801 9.230,10.575 9.209 L 10.400 9.192 10.400 9.075 C 10.400 8.880,10.349 8.730,10.246 8.624 C 10.084 8.457,9.979 8.427,9.515 8.415 C 9.291 8.409,9.034 8.412,8.944 8.422 M5.264 8.490 C 5.095 8.570,4.954 8.713,4.863 8.899 L 4.793 9.042 4.805 9.821 C 4.820 10.724,4.825 10.746,5.072 10.978 C 5.285 11.178,5.324 11.185,6.200 11.185 C 7.101 11.185,7.121 11.181,7.351 10.951 C 7.582 10.720,7.585 10.704,7.585 9.773 C 7.586 8.901,7.586 8.899,7.383 8.679 C 7.162 8.440,7.169 8.441,6.227 8.433 C 5.403 8.426,5.400 8.426,5.264 8.490 M2.200 9.636 C 1.951 9.718,1.779 9.864,1.667 10.089 L 1.600 10.224 1.600 11.297 L 1.600 12.370 1.683 12.618 C 1.981 13.508,2.501 14.025,3.394 14.319 L 3.654 14.405 4.727 14.396 C 5.790 14.387,5.801 14.386,5.920 14.324 C 6.543 14.001,6.541 13.200,5.916 12.877 C 5.803 12.819,5.773 12.817,4.800 12.805 C 3.675 12.792,3.713 12.799,3.475 12.579 C 3.339 12.454,3.261 12.318,3.240 12.169 C 3.232 12.113,3.214 11.659,3.201 11.160 C 3.171 10.103,3.161 10.042,2.971 9.868 C 2.746 9.660,2.423 9.563,2.200 9.636 M13.264 9.690 C 13.120 9.757,12.954 9.911,12.889 10.036 C 12.834 10.141,12.801 10.496,12.799 11.013 C 12.797 11.255,12.787 11.633,12.776 11.853 C 12.753 12.312,12.724 12.395,12.525 12.579 C 12.289 12.797,12.322 12.791,11.211 12.807 C 10.072 12.823,10.054 12.827,9.826 13.070 C 9.666 13.241,9.619 13.357,9.618 13.587 C 9.617 13.830,9.693 14.008,9.870 14.174 C 10.100 14.389,10.063 14.383,11.273 14.395 L 12.346 14.405 12.606 14.319 C 13.492 14.028,13.985 13.543,14.311 12.643 L 14.403 12.390 14.395 11.308 C 14.387 10.261,14.385 10.223,14.328 10.100 C 14.246 9.923,14.041 9.726,13.881 9.671 C 13.688 9.605,13.430 9.613,13.264 9.690 " fill="#1A1C1F" stroke="none" fill-rule="evenodd"></path></svg>