<svg width="28" height="28" viewBox="0 0 28 28" fill="none" xmlns="http://www.w3.org/2000/svg"><path d="M4.877 1.818 C 4.077 1.884,3.367 2.232,2.735 2.869 C 2.339 3.269,2.137 3.594,1.952 4.132 C 1.830 4.484,1.808 4.637,1.762 5.415 C 1.696 6.562,1.752 7.252,1.931 7.487 C 2.069 7.667,2.393 7.840,2.593 7.840 C 2.915 7.838,3.421 7.482,3.474 7.218 C 3.485 7.162,3.505 6.596,3.519 5.959 L 3.544 4.802 3.691 4.525 C 3.873 4.184,4.259 3.812,4.587 3.662 C 4.821 3.555,4.898 3.547,6.040 3.517 L 7.246 3.485 7.434 3.341 C 7.944 2.949,7.941 2.208,7.428 1.922 C 7.246 1.820,7.174 1.812,6.289 1.797 C 5.769 1.788,5.133 1.797,4.877 1.818 M20.893 1.817 C 20.518 1.857,20.367 1.952,20.215 2.243 C 20.023 2.612,20.163 3.093,20.546 3.377 C 20.667 3.467,20.764 3.476,21.926 3.505 L 23.175 3.536 23.455 3.677 C 23.762 3.832,24.048 4.094,24.261 4.416 C 24.425 4.664,24.439 4.779,24.474 6.171 C 24.505 7.401,24.574 7.596,25.045 7.776 C 25.453 7.931,26.001 7.688,26.142 7.289 C 26.187 7.163,26.203 6.773,26.203 5.833 C 26.203 4.399,26.198 4.366,25.847 3.684 C 25.367 2.751,24.359 1.984,23.462 1.869 C 22.998 1.810,21.281 1.775,20.893 1.817 M8.323 6.155 C 7.752 6.186,7.687 6.200,7.401 6.344 C 6.726 6.687,6.269 7.290,6.161 7.980 C 6.103 8.357,6.100 10.837,6.158 11.238 C 6.270 12.010,6.886 12.738,7.653 13.002 C 7.887 13.082,8.064 13.090,9.613 13.090 C 11.162 13.090,11.340 13.082,11.573 13.002 C 12.340 12.738,12.957 12.010,13.069 11.238 C 13.124 10.856,13.124 8.371,13.069 7.989 C 13.007 7.560,12.791 7.137,12.473 6.819 C 11.892 6.240,11.629 6.165,10.080 6.140 C 9.451 6.130,8.660 6.136,8.323 6.155 M17.057 6.159 C 16.466 6.188,16.441 6.193,16.102 6.372 C 15.660 6.604,15.332 6.933,15.102 7.370 C 14.939 7.680,14.917 7.762,14.883 8.208 C 14.862 8.481,14.845 9.113,14.845 9.613 C 14.845 10.114,14.862 10.746,14.883 11.018 C 14.917 11.465,14.939 11.547,15.102 11.858 C 15.444 12.509,16.038 12.955,16.708 13.064 C 17.100 13.127,19.627 13.127,20.019 13.064 C 20.704 12.952,21.305 12.497,21.627 11.845 C 21.855 11.383,21.901 10.908,21.876 9.266 C 21.853 7.828,21.815 7.626,21.462 7.098 C 21.230 6.750,20.976 6.536,20.566 6.344 C 20.293 6.217,20.180 6.193,19.659 6.158 C 18.999 6.112,17.982 6.113,17.057 6.159 M11.233 7.994 C 11.310 8.070,11.317 8.199,11.316 9.580 C 11.315 10.694,11.300 11.110,11.257 11.186 C 11.222 11.248,11.129 11.304,11.024 11.326 C 10.797 11.374,8.429 11.374,8.202 11.326 C 7.912 11.265,7.910 11.252,7.910 9.583 C 7.910 8.162,7.915 8.078,8.001 7.983 C 8.091 7.883,8.105 7.882,9.621 7.896 C 11.017 7.909,11.157 7.917,11.233 7.994 M19.993 8.030 L 20.113 8.174 20.113 9.626 L 20.113 11.079 19.964 11.233 L 19.815 11.387 18.786 11.385 C 17.504 11.383,16.873 11.332,16.750 11.220 C 16.665 11.143,16.660 11.060,16.660 9.638 C 16.660 8.417,16.672 8.121,16.726 8.047 C 16.814 7.927,17.112 7.903,18.651 7.894 L 19.872 7.887 19.993 8.030 M15.727 14.927 C 15.327 14.961,15.147 15.060,14.972 15.343 C 14.866 15.513,14.864 15.547,14.847 16.990 C 14.831 18.396,14.834 18.472,14.924 18.647 C 15.077 18.944,15.316 19.142,15.573 19.184 C 15.696 19.205,16.180 19.222,16.648 19.224 L 17.500 19.227 17.500 20.088 C 17.500 21.108,17.546 21.382,17.754 21.590 C 18.002 21.838,18.161 21.859,19.769 21.860 L 21.222 21.860 21.414 21.733 C 21.520 21.663,21.664 21.518,21.735 21.411 L 21.863 21.217 21.878 20.125 C 21.893 18.997,21.838 18.140,21.735 17.931 C 21.703 17.866,21.602 17.752,21.511 17.678 L 21.344 17.545 20.291 17.515 L 19.237 17.485 19.217 16.501 C 19.195 15.381,19.163 15.248,18.869 15.057 C 18.692 14.942,18.678 14.941,17.383 14.919 C 16.665 14.907,15.919 14.910,15.727 14.927 M7.375 15.102 C 6.722 15.429,6.254 16.081,6.153 16.802 C 6.125 17.008,6.113 17.751,6.124 18.620 C 6.141 20.026,6.147 20.102,6.251 20.370 C 6.588 21.236,7.276 21.767,8.161 21.845 C 8.678 21.890,10.332 21.891,10.975 21.846 C 11.419 21.815,11.510 21.793,11.829 21.635 C 12.544 21.282,12.972 20.671,13.071 19.862 C 13.101 19.615,13.114 18.892,13.102 18.044 C 13.084 16.739,13.075 16.616,12.980 16.357 C 12.792 15.841,12.398 15.410,11.819 15.086 L 11.550 14.934 9.631 14.934 L 7.713 14.933 7.375 15.102 M11.196 16.734 L 11.340 16.855 11.340 18.363 L 11.340 19.872 11.196 19.993 L 11.053 20.113 9.761 20.111 C 8.396 20.109,8.093 20.081,7.994 19.946 C 7.901 19.819,7.906 16.902,7.999 16.774 C 8.086 16.656,8.401 16.631,9.901 16.621 L 11.053 16.613 11.196 16.734 M2.345 20.163 C 2.106 20.236,1.880 20.497,1.791 20.802 C 1.724 21.031,1.717 21.216,1.741 22.076 C 1.770 23.130,1.840 23.627,2.018 24.057 C 2.359 24.875,3.302 25.782,4.074 26.036 C 4.566 26.197,4.977 26.239,6.090 26.241 C 7.312 26.244,7.416 26.221,7.658 25.887 C 7.895 25.559,7.881 25.181,7.619 24.833 C 7.410 24.556,7.293 24.533,5.997 24.511 L 4.830 24.490 4.554 24.344 C 4.186 24.150,3.867 23.832,3.690 23.480 L 3.545 23.193 3.501 21.991 C 3.458 20.821,3.424 20.551,3.307 20.409 C 3.137 20.205,2.632 20.076,2.345 20.163 M25.128 20.161 C 24.904 20.229,24.603 20.515,24.548 20.711 C 24.522 20.806,24.500 21.198,24.499 21.583 C 24.496 22.628,24.433 23.208,24.291 23.498 C 24.148 23.792,23.717 24.213,23.391 24.378 C 23.156 24.497,23.127 24.500,22.227 24.503 C 21.719 24.505,21.138 24.522,20.937 24.540 C 20.585 24.572,20.563 24.581,20.392 24.765 C 19.977 25.210,20.068 25.872,20.581 26.134 C 20.995 26.345,23.123 26.299,23.828 26.064 C 24.972 25.683,25.815 24.763,26.137 23.543 C 26.224 23.216,26.237 23.028,26.243 22.003 C 26.250 20.898,26.245 20.825,26.149 20.618 C 25.980 20.253,25.514 20.044,25.128 20.161 " fill="#1A1C1F" stroke="none" fill-rule="evenodd"></path></svg>