<svg width="14" height="14" viewBox="0 0 14 14" fill="none" xmlns="http://www.w3.org/2000/svg"><path d="M3.115 1.447 C 2.484 1.534,1.826 2.070,1.562 2.710 C 1.393 3.120,1.395 3.104,1.404 4.140 C 1.412 5.066,1.412 5.076,1.466 5.180 C 1.702 5.635,2.262 5.728,2.599 5.367 C 2.798 5.155,2.792 5.187,2.807 4.208 C 2.819 3.384,2.823 3.336,2.871 3.223 C 2.928 3.091,3.071 2.946,3.221 2.870 C 3.315 2.822,3.362 2.818,4.209 2.802 C 5.001 2.787,5.107 2.780,5.180 2.743 C 5.339 2.660,5.435 2.565,5.508 2.416 C 5.571 2.289,5.581 2.242,5.581 2.093 C 5.580 1.988,5.565 1.884,5.542 1.829 C 5.492 1.709,5.283 1.499,5.180 1.466 C 5.081 1.433,3.328 1.417,3.115 1.447 M8.808 1.478 C 8.504 1.625,8.341 1.978,8.432 2.291 C 8.476 2.443,8.613 2.610,8.784 2.718 L 8.902 2.793 9.780 2.806 C 10.616 2.819,10.664 2.822,10.777 2.871 C 10.910 2.928,11.054 3.071,11.132 3.223 C 11.182 3.321,11.184 3.354,11.195 4.200 C 11.207 5.188,11.201 5.154,11.401 5.367 C 11.738 5.728,12.298 5.635,12.534 5.180 C 12.588 5.076,12.588 5.067,12.596 4.137 L 12.604 3.198 12.541 3.005 C 12.506 2.899,12.451 2.749,12.420 2.673 C 12.241 2.243,11.844 1.833,11.398 1.619 C 11.026 1.440,11.031 1.440,9.917 1.430 L 8.925 1.422 8.808 1.478 M4.606 4.278 C 4.458 4.348,4.334 4.474,4.255 4.636 L 4.193 4.762 4.207 5.432 C 4.215 5.837,4.231 6.139,4.247 6.195 C 4.287 6.329,4.528 6.566,4.667 6.606 C 4.815 6.649,6.035 6.649,6.183 6.606 C 6.329 6.564,6.564 6.329,6.606 6.183 C 6.628 6.108,6.636 5.887,6.637 5.402 C 6.638 4.638,6.637 4.636,6.460 4.444 C 6.267 4.235,6.273 4.236,5.448 4.229 C 4.728 4.222,4.725 4.223,4.606 4.278 M7.756 4.278 C 7.608 4.348,7.484 4.474,7.405 4.636 L 7.343 4.762 7.357 5.432 C 7.365 5.837,7.381 6.139,7.397 6.195 C 7.437 6.329,7.678 6.566,7.817 6.606 C 7.965 6.649,9.185 6.649,9.333 6.606 C 9.479 6.564,9.714 6.329,9.756 6.183 C 9.778 6.108,9.786 5.887,9.787 5.402 C 9.788 4.638,9.787 4.636,9.610 4.444 C 9.417 4.235,9.423 4.236,8.598 4.229 C 7.878 4.222,7.875 4.223,7.756 4.278 M7.849 7.371 C 7.663 7.394,7.516 7.481,7.423 7.622 L 7.350 7.731 7.350 8.242 L 7.350 8.752 7.496 8.901 C 7.653 9.061,7.740 9.100,7.939 9.100 L 8.050 9.100 8.051 9.234 C 8.051 9.415,8.108 9.530,8.270 9.678 L 8.404 9.800 8.930 9.800 L 9.455 9.800 9.628 9.628 L 9.800 9.455 9.800 8.945 C 9.800 8.489,9.795 8.428,9.756 8.365 C 9.639 8.176,9.480 8.079,9.251 8.057 L 9.100 8.043 9.100 7.940 C 9.100 7.770,9.056 7.643,8.964 7.548 C 8.821 7.400,8.729 7.373,8.336 7.362 C 8.147 7.357,7.927 7.361,7.849 7.371 M4.606 7.428 C 4.458 7.498,4.334 7.624,4.255 7.786 L 4.193 7.912 4.207 8.582 C 4.215 8.987,4.231 9.289,4.247 9.345 C 4.287 9.479,4.528 9.716,4.667 9.756 C 4.815 9.799,6.035 9.799,6.183 9.756 C 6.329 9.714,6.564 9.479,6.606 9.333 C 6.628 9.258,6.636 9.037,6.637 8.552 C 6.638 7.788,6.637 7.786,6.460 7.594 C 6.267 7.385,6.273 7.386,5.448 7.379 C 4.728 7.372,4.725 7.373,4.606 7.428 M1.785 8.490 C 1.629 8.582,1.520 8.693,1.461 8.820 C 1.414 8.920,1.411 8.968,1.404 9.866 L 1.397 10.806 1.471 11.032 C 1.621 11.485,1.757 11.716,2.034 11.984 C 2.316 12.258,2.620 12.430,3.040 12.555 C 3.198 12.602,3.244 12.604,4.140 12.595 C 5.195 12.585,5.162 12.590,5.364 12.402 C 5.519 12.257,5.586 12.101,5.584 11.888 C 5.583 11.687,5.542 11.586,5.402 11.436 C 5.204 11.224,5.188 11.221,4.191 11.206 C 3.218 11.192,3.247 11.197,3.041 11.007 C 2.926 10.901,2.858 10.787,2.837 10.662 C 2.829 10.618,2.813 10.219,2.801 9.777 C 2.775 8.828,2.767 8.785,2.591 8.627 C 2.420 8.474,2.331 8.437,2.100 8.429 C 1.916 8.422,1.893 8.426,1.785 8.490 M11.606 8.479 C 11.481 8.537,11.334 8.672,11.278 8.780 C 11.229 8.875,11.201 9.174,11.198 9.625 C 11.197 9.843,11.189 10.179,11.179 10.372 C 11.159 10.773,11.134 10.846,10.959 11.007 C 10.753 11.197,10.782 11.192,9.809 11.206 C 8.812 11.221,8.796 11.224,8.598 11.436 C 8.458 11.586,8.417 11.687,8.416 11.888 C 8.414 12.101,8.481 12.257,8.636 12.402 C 8.838 12.590,8.805 12.585,9.863 12.595 L 10.802 12.604 11.030 12.529 C 11.809 12.271,12.237 11.851,12.522 11.063 L 12.602 10.841 12.595 9.895 C 12.589 8.976,12.587 8.945,12.537 8.837 C 12.467 8.686,12.280 8.508,12.142 8.461 C 11.976 8.404,11.750 8.412,11.606 8.479 " fill="#1A1C1F" stroke="none" fill-rule="evenodd"></path></svg>