<svg width="20" height="20" viewBox="0 0 20 20" fill="none" xmlns="http://www.w3.org/2000/svg"><path d="M9.367 3.034 C 7.959 3.179,6.678 3.621,5.617 4.328 C 5.090 4.679,4.825 4.893,4.387 5.326 C 3.469 6.230,2.824 7.271,2.420 8.500 C 2.079 9.537,1.970 10.390,2.033 11.542 C 2.133 13.383,3.007 15.323,4.310 16.592 C 4.645 16.919,4.761 16.975,5.100 16.975 C 5.411 16.975,5.564 16.914,5.779 16.707 C 5.996 16.497,6.070 16.327,6.071 16.032 C 6.072 15.649,6.024 15.551,5.601 15.067 C 4.275 13.549,3.767 11.724,4.137 9.805 C 4.583 7.493,6.470 5.613,8.827 5.129 C 9.317 5.029,10.318 5.007,10.944 5.083 C 11.482 5.149,11.723 5.141,11.908 5.052 C 12.084 4.968,12.282 4.766,12.389 4.559 C 12.512 4.324,12.518 3.994,12.403 3.759 C 12.309 3.565,12.113 3.358,11.940 3.270 C 11.601 3.097,10.093 2.959,9.367 3.034 M14.083 5.596 C 13.994 5.637,13.379 6.222,12.226 7.364 L 10.503 9.071 10.243 9.031 C 9.326 8.893,8.358 9.543,8.080 10.483 C 8.008 10.727,8.000 11.209,8.064 11.467 C 8.159 11.853,8.282 12.060,8.609 12.383 C 8.817 12.589,8.978 12.717,9.106 12.777 C 9.337 12.886,9.794 12.999,10.004 13.000 C 10.220 13.000,10.778 12.852,10.958 12.747 C 11.198 12.607,11.675 12.111,11.774 11.900 C 11.950 11.526,12.032 11.019,11.970 10.687 L 11.934 10.491 13.464 8.948 C 15.236 7.160,15.410 6.968,15.468 6.728 C 15.570 6.303,15.355 5.851,14.950 5.641 C 14.726 5.525,14.286 5.502,14.083 5.596 M16.498 8.443 C 16.313 8.513,16.072 8.693,15.985 8.827 C 15.941 8.895,15.880 9.036,15.850 9.141 C 15.798 9.324,15.799 9.354,15.868 9.775 C 15.959 10.329,15.988 11.134,15.936 11.636 C 15.804 12.918,15.360 13.916,14.431 15.017 C 14.010 15.516,13.926 15.682,13.928 16.017 C 13.929 16.325,14.001 16.494,14.221 16.707 C 14.436 16.914,14.589 16.975,14.900 16.975 C 15.231 16.975,15.353 16.919,15.658 16.625 C 16.340 15.969,16.958 15.054,17.348 14.124 C 17.857 12.909,18.059 11.718,17.971 10.458 C 17.879 9.135,17.681 8.646,17.169 8.472 C 16.983 8.408,16.631 8.393,16.498 8.443 " fill="#1A1C1F" stroke="none" fill-rule="evenodd"></path></svg>