<svg width="28" height="28" viewBox="0 0 28 28" fill="none" xmlns="http://www.w3.org/2000/svg"><path d="M13.277 3.533 C 10.781 3.704,8.559 4.540,6.557 6.061 C 5.989 6.492,4.751 7.716,4.328 8.265 C 2.682 10.402,1.773 12.990,1.773 15.543 C 1.773 17.225,1.960 18.369,2.480 19.873 C 3.174 21.880,4.903 24.354,5.702 24.483 C 6.206 24.565,6.743 24.006,6.647 23.499 C 6.628 23.397,6.450 23.121,6.158 22.741 C 4.494 20.577,3.814 19.018,3.589 16.852 C 3.520 16.182,3.559 14.649,3.661 14.047 C 4.157 11.123,5.780 8.625,8.241 7.000 C 9.086 6.442,10.158 5.945,11.097 5.676 C 12.036 5.406,12.370 5.361,13.588 5.334 C 15.283 5.296,16.018 5.394,17.500 5.858 C 17.872 5.974,18.262 6.082,18.367 6.097 C 18.863 6.167,19.356 5.561,19.218 5.049 C 19.118 4.678,18.737 4.425,17.850 4.140 C 16.436 3.686,14.598 3.442,13.277 3.533 M11.695 7.326 C 11.400 7.419,11.110 7.834,11.108 8.164 C 11.106 8.403,11.270 8.698,11.489 8.850 C 11.647 8.959,11.730 8.983,11.943 8.981 C 12.264 8.977,12.465 8.877,12.644 8.630 C 12.959 8.195,12.830 7.636,12.357 7.392 C 12.188 7.304,11.864 7.272,11.695 7.326 M15.778 7.339 C 15.408 7.460,15.118 7.920,15.186 8.279 C 15.254 8.636,15.585 8.936,15.970 8.989 C 16.516 9.064,16.981 8.533,16.873 7.958 C 16.839 7.773,16.619 7.496,16.431 7.400 C 16.251 7.308,15.958 7.281,15.778 7.339 M20.685 7.956 C 20.501 8.036,19.865 8.649,16.800 11.694 L 14.443 14.036 13.957 14.063 C 13.360 14.097,13.099 14.209,12.744 14.584 C 12.385 14.963,12.301 15.183,12.299 15.750 C 12.297 16.176,12.309 16.240,12.435 16.489 C 12.616 16.848,13.027 17.227,13.380 17.362 C 13.757 17.507,14.254 17.506,14.629 17.360 C 15.000 17.216,15.357 16.876,15.552 16.479 C 15.685 16.210,15.705 16.118,15.718 15.728 L 15.733 15.283 17.914 13.090 C 21.991 8.990,21.939 9.050,21.840 8.610 C 21.776 8.323,21.679 8.185,21.448 8.053 C 21.197 7.910,20.882 7.869,20.685 7.956 M8.177 9.386 C 7.798 9.475,7.513 9.909,7.576 10.302 C 7.668 10.870,8.351 11.206,8.844 10.926 C 9.074 10.796,9.175 10.662,9.246 10.397 C 9.421 9.745,8.870 9.224,8.177 9.386 M24.103 10.632 C 23.893 10.761,23.668 11.039,23.636 11.211 C 23.615 11.322,23.667 11.548,23.823 12.040 C 24.292 13.515,24.453 14.450,24.453 15.703 C 24.453 18.296,23.680 20.438,21.983 22.540 C 21.479 23.165,21.303 23.493,21.352 23.719 C 21.458 24.210,21.756 24.461,22.234 24.461 C 22.603 24.461,22.872 24.244,23.543 23.406 C 24.949 21.651,25.881 19.443,26.155 17.221 C 26.292 16.106,26.229 14.394,26.013 13.396 C 25.797 12.395,25.416 11.197,25.218 10.895 C 25.011 10.580,24.419 10.440,24.103 10.632 M6.131 12.884 C 5.933 12.941,5.618 13.295,5.554 13.530 C 5.390 14.142,6.093 14.741,6.705 14.510 C 6.922 14.429,7.137 14.185,7.211 13.937 C 7.343 13.491,7.104 13.065,6.631 12.904 C 6.400 12.825,6.342 12.823,6.131 12.884 M21.390 12.866 C 21.270 12.889,20.926 13.176,20.852 13.315 C 20.684 13.628,20.732 13.982,20.982 14.274 C 21.480 14.855,22.465 14.485,22.465 13.717 C 22.465 13.180,21.933 12.759,21.390 12.866 M6.096 17.008 C 5.743 17.135,5.540 17.438,5.545 17.831 C 5.555 18.533,6.434 18.908,6.941 18.425 C 7.246 18.135,7.325 17.699,7.134 17.360 C 6.956 17.043,6.464 16.876,6.096 17.008 M21.360 16.987 C 21.030 17.047,20.756 17.407,20.756 17.780 C 20.756 18.043,20.847 18.231,21.067 18.424 C 21.413 18.728,21.887 18.713,22.212 18.388 C 22.457 18.143,22.528 17.863,22.425 17.553 C 22.343 17.304,22.106 17.051,21.921 17.014 C 21.671 16.964,21.525 16.957,21.360 16.987 M8.169 20.501 C 8.080 20.529,7.932 20.628,7.839 20.721 C 7.414 21.146,7.520 21.817,8.053 22.075 C 8.653 22.365,9.339 21.890,9.276 21.228 C 9.247 20.933,9.065 20.696,8.755 20.552 C 8.495 20.431,8.412 20.423,8.169 20.501 M19.130 20.593 C 18.564 20.974,18.590 21.765,19.179 22.062 C 19.682 22.316,20.232 22.066,20.396 21.509 C 20.494 21.173,20.327 20.800,19.983 20.592 C 19.742 20.446,19.347 20.446,19.130 20.593 " fill="#1A1C1F" stroke="none" fill-rule="evenodd"></path></svg>