<svg width="12" height="12" viewBox="0 0 12 12" fill="none" xmlns="http://www.w3.org/2000/svg"><path d="M5.600 1.820 C 5.185 1.864,4.669 1.982,4.339 2.109 C 3.964 2.254,3.387 2.575,3.075 2.813 C 3.006 2.865,2.817 3.039,2.653 3.199 C 2.204 3.640,1.962 3.972,1.699 4.510 C 1.414 5.094,1.278 5.586,1.218 6.250 C 1.168 6.812,1.258 7.503,1.454 8.070 C 1.541 8.319,1.780 8.803,1.920 9.012 C 2.189 9.412,2.744 10.013,2.960 10.137 L 3.070 10.200 5.680 10.199 C 8.401 10.198,8.915 10.188,9.046 10.133 C 9.089 10.115,9.223 10.003,9.353 9.876 C 10.143 9.103,10.592 8.257,10.753 7.233 C 10.802 6.921,10.802 6.256,10.753 5.941 C 10.629 5.146,10.312 4.383,9.846 3.756 C 9.671 3.521,9.282 3.114,9.034 2.907 C 8.369 2.351,7.508 1.976,6.605 1.849 C 6.344 1.812,5.820 1.797,5.600 1.820 M8.280 3.943 C 8.381 3.973,8.525 4.074,8.580 4.154 C 8.667 4.281,8.704 4.523,8.660 4.681 C 8.630 4.791,8.461 4.979,7.783 5.664 L 7.155 6.299 7.170 6.374 C 7.194 6.503,7.183 6.779,7.149 6.897 C 7.092 7.096,6.981 7.279,6.820 7.442 C 6.582 7.684,6.333 7.787,5.980 7.787 C 5.647 7.787,5.386 7.668,5.134 7.401 C 4.919 7.173,4.820 6.917,4.820 6.590 C 4.820 6.269,4.914 6.033,5.133 5.800 C 5.255 5.671,5.450 5.539,5.616 5.473 C 5.759 5.417,5.979 5.395,6.154 5.419 L 6.309 5.441 6.849 4.904 C 7.661 4.099,7.794 3.980,7.935 3.928 C 8.013 3.899,8.151 3.906,8.280 3.943 " fill="#1A1C1F" stroke="none" fill-rule="evenodd"></path></svg>