<svg width="16" height="16" viewBox="0 0 16 16" fill="none" xmlns="http://www.w3.org/2000/svg"><path d="M7.497 2.428 C 6.966 2.478,6.274 2.631,5.800 2.802 C 5.259 2.998,4.495 3.440,3.975 3.858 C 2.079 5.381,1.200 7.943,1.787 10.242 C 2.077 11.379,2.712 12.422,3.631 13.272 C 3.960 13.577,3.831 13.555,5.427 13.579 C 6.189 13.591,7.967 13.597,9.377 13.593 L 11.941 13.587 12.129 13.458 C 12.346 13.310,12.930 12.719,13.153 12.422 C 13.797 11.565,14.175 10.670,14.338 9.622 C 14.403 9.203,14.402 8.342,14.336 7.920 C 14.033 5.963,12.916 4.309,11.220 3.302 C 10.644 2.960,10.157 2.758,9.561 2.611 C 8.932 2.457,8.035 2.378,7.497 2.428 M11.078 5.275 C 11.243 5.332,11.448 5.514,11.503 5.653 C 11.559 5.793,11.585 6.018,11.562 6.170 C 11.534 6.358,11.382 6.536,10.421 7.508 L 9.548 8.391 9.576 8.629 C 9.612 8.934,9.565 9.177,9.410 9.492 C 9.324 9.666,9.252 9.765,9.096 9.919 C 8.863 10.151,8.655 10.271,8.357 10.347 C 8.098 10.414,7.938 10.414,7.658 10.346 C 7.312 10.263,7.163 10.180,6.906 9.922 C 6.548 9.564,6.426 9.274,6.427 8.783 C 6.427 8.564,6.440 8.484,6.502 8.305 C 6.757 7.574,7.499 7.106,8.213 7.227 L 8.401 7.258 9.294 6.377 C 10.172 5.511,10.460 5.257,10.606 5.222 C 10.709 5.198,10.922 5.222,11.078 5.275 " fill="#1A1C1F" stroke="none" fill-rule="evenodd"></path></svg>