<svg width="32" height="32" viewBox="0 0 32 32" fill="none" xmlns="http://www.w3.org/2000/svg"><path d="M15.093 4.059 C 12.436 4.200,9.855 5.159,7.609 6.842 C 6.862 7.401,5.480 8.753,4.946 9.446 C 3.066 11.887,2.027 14.846,2.027 17.760 C 2.027 19.561,2.230 20.878,2.752 22.453 C 3.272 24.024,4.106 25.537,5.201 26.897 C 6.080 27.989,6.525 28.193,7.156 27.792 C 7.421 27.624,7.627 27.281,7.627 27.007 C 7.627 26.809,7.368 26.373,6.891 25.769 C 5.991 24.629,5.766 24.285,5.278 23.307 C 4.759 22.267,4.438 21.299,4.208 20.080 C 4.066 19.329,4.012 17.611,4.102 16.740 C 4.564 12.294,7.433 8.524,11.627 6.852 C 13.194 6.228,14.968 5.963,16.786 6.084 C 18.087 6.171,18.762 6.305,20.336 6.792 C 20.683 6.899,21.026 6.987,21.099 6.987 C 21.458 6.987,21.875 6.589,21.977 6.150 C 22.070 5.746,21.818 5.343,21.307 5.080 C 20.376 4.602,18.356 4.142,16.907 4.078 C 16.569 4.063,16.185 4.044,16.053 4.035 C 15.921 4.027,15.489 4.038,15.093 4.059 M13.396 8.371 C 13.046 8.458,12.697 8.935,12.695 9.330 C 12.693 9.603,12.880 9.941,13.131 10.114 C 13.311 10.239,13.405 10.266,13.649 10.264 C 14.016 10.260,14.246 10.145,14.450 9.863 C 14.995 9.111,14.310 8.143,13.396 8.371 M18.041 8.379 C 17.628 8.499,17.278 9.051,17.356 9.462 C 17.433 9.870,17.811 10.213,18.251 10.273 C 18.912 10.363,19.473 9.652,19.257 8.997 C 19.177 8.756,18.842 8.451,18.577 8.377 C 18.341 8.311,18.275 8.312,18.041 8.379 M23.644 9.090 C 23.436 9.182,22.585 10.000,19.173 13.391 L 16.507 16.041 15.951 16.072 C 15.268 16.110,14.970 16.238,14.565 16.667 C 14.154 17.101,14.058 17.352,14.056 18.000 C 14.054 18.487,14.067 18.560,14.211 18.844 C 14.629 19.669,15.589 20.139,16.422 19.925 C 17.091 19.754,17.495 19.428,17.781 18.827 C 17.923 18.529,17.949 18.409,17.964 17.973 L 17.981 17.467 20.474 14.960 C 25.133 10.275,25.073 10.343,24.960 9.840 C 24.886 9.511,24.776 9.354,24.512 9.204 C 24.228 9.041,23.865 8.994,23.644 9.090 M9.387 10.715 C 8.981 10.797,8.710 11.111,8.660 11.556 C 8.577 12.291,9.457 12.857,10.108 12.487 C 10.370 12.338,10.486 12.185,10.567 11.883 C 10.760 11.160,10.153 10.559,9.387 10.715 M27.799 12.054 C 27.339 12.158,26.937 12.654,27.013 13.026 C 27.033 13.122,27.141 13.488,27.254 13.840 C 27.762 15.428,27.946 16.513,27.946 17.931 C 27.947 20.907,27.065 23.354,25.124 25.760 C 24.547 26.474,24.347 26.849,24.402 27.107 C 24.505 27.581,24.773 27.862,25.203 27.942 C 25.637 28.023,25.968 27.856,26.430 27.322 C 27.969 25.545,29.008 23.574,29.573 21.362 C 29.902 20.075,29.947 19.661,29.944 17.973 C 29.942 16.746,29.923 16.351,29.845 15.921 C 29.626 14.715,29.196 13.200,28.911 12.630 C 28.697 12.201,28.227 11.958,27.799 12.054 M7.007 14.725 C 6.781 14.790,6.420 15.194,6.348 15.463 C 6.159 16.162,6.964 16.847,7.663 16.583 C 7.911 16.490,8.157 16.211,8.241 15.928 C 8.392 15.418,8.119 14.932,7.579 14.748 C 7.314 14.657,7.247 14.655,7.007 14.725 M24.446 14.703 C 24.309 14.730,23.916 15.058,23.831 15.217 C 23.639 15.575,23.694 15.979,23.980 16.313 C 24.549 16.978,25.674 16.555,25.674 15.677 C 25.674 15.063,25.067 14.582,24.446 14.703 M6.967 19.437 C 6.563 19.583,6.331 19.929,6.337 20.378 C 6.348 21.180,7.354 21.609,7.933 21.058 C 8.281 20.726,8.372 20.228,8.154 19.840 C 7.950 19.477,7.387 19.286,6.967 19.437 M24.373 19.422 C 23.990 19.531,23.733 19.903,23.733 20.350 C 23.733 20.666,23.853 20.917,24.090 21.098 C 24.477 21.392,24.985 21.376,25.319 21.058 C 25.668 20.726,25.758 20.228,25.540 19.840 C 25.345 19.493,24.804 19.299,24.373 19.422 M9.336 23.430 C 9.235 23.462,9.065 23.575,8.959 23.681 C 8.473 24.167,8.594 24.934,9.204 25.229 C 9.889 25.560,10.673 25.017,10.601 24.261 C 10.568 23.924,10.360 23.653,10.006 23.488 C 9.708 23.349,9.613 23.341,9.336 23.430 M21.889 23.514 C 21.390 23.818,21.252 24.430,21.572 24.915 C 21.925 25.448,22.783 25.463,23.135 24.942 C 23.488 24.420,23.369 23.855,22.838 23.534 C 22.582 23.379,22.126 23.369,21.889 23.514 " fill="#1A1C1F" stroke="none" fill-rule="evenodd"></path></svg>