<svg width="14" height="14" viewBox="0 0 14 14" fill="none" xmlns="http://www.w3.org/2000/svg"><path d="M6.557 2.123 C 5.082 2.270,3.865 2.868,2.863 3.940 C 2.351 4.487,1.954 5.170,1.695 5.951 C 1.456 6.668,1.379 7.271,1.423 8.079 C 1.493 9.369,2.112 10.737,3.028 11.626 C 3.254 11.845,3.336 11.884,3.570 11.884 C 3.785 11.884,3.880 11.846,4.038 11.698 C 4.209 11.538,4.250 11.445,4.250 11.221 C 4.250 10.976,4.194 10.860,3.921 10.547 C 3.544 10.112,3.249 9.630,3.071 9.156 C 2.982 8.920,2.879 8.497,2.846 8.230 C 2.804 7.893,2.829 7.172,2.893 6.872 C 3.249 5.207,4.508 3.947,6.172 3.593 C 6.503 3.522,7.250 3.504,7.646 3.556 C 8.121 3.619,8.244 3.606,8.440 3.472 C 8.564 3.388,8.664 3.244,8.713 3.081 C 8.759 2.923,8.759 2.864,8.713 2.707 C 8.671 2.566,8.492 2.358,8.351 2.286 C 8.122 2.169,7.062 2.073,6.557 2.123 M9.858 3.917 C 9.796 3.946,9.366 4.355,8.560 5.154 L 7.354 6.347 7.183 6.322 C 6.670 6.249,6.123 6.511,5.804 6.986 C 5.712 7.122,5.626 7.413,5.610 7.637 C 5.595 7.851,5.644 8.090,5.753 8.327 C 5.833 8.503,6.190 8.857,6.374 8.944 C 6.536 9.020,6.856 9.100,7.003 9.100 C 7.150 9.100,7.544 8.997,7.662 8.928 C 7.803 8.844,8.103 8.559,8.185 8.430 C 8.339 8.189,8.427 7.772,8.381 7.498 L 8.355 7.342 9.451 6.237 C 10.054 5.629,10.604 5.062,10.674 4.978 C 10.868 4.743,10.897 4.531,10.772 4.260 C 10.658 4.014,10.458 3.892,10.150 3.881 C 9.995 3.875,9.931 3.883,9.858 3.917 M11.549 5.910 C 11.419 5.959,11.251 6.085,11.189 6.179 C 11.158 6.226,11.116 6.325,11.095 6.399 C 11.059 6.527,11.059 6.548,11.108 6.842 C 11.171 7.230,11.192 7.794,11.156 8.145 C 11.063 9.043,10.752 9.741,10.102 10.512 C 9.807 10.861,9.749 10.977,9.749 11.212 C 9.750 11.428,9.800 11.546,9.955 11.695 C 10.105 11.840,10.213 11.883,10.430 11.883 C 10.667 11.883,10.748 11.843,10.983 11.614 C 12.241 10.390,12.851 8.384,12.496 6.643 C 12.412 6.232,12.311 6.068,12.074 5.959 C 11.927 5.891,11.665 5.867,11.549 5.910 " fill="#1A1C1F" stroke="none" fill-rule="evenodd"></path></svg>