<svg width="24" height="24" viewBox="0 0 24 24" fill="none" xmlns="http://www.w3.org/2000/svg"><path d="M10.740 3.601 C 10.177 3.654,9.212 3.892,8.467 4.162 C 7.949 4.350,7.001 4.832,6.520 5.153 C 4.763 6.326,3.392 8.016,2.700 9.860 C 2.143 11.346,1.943 12.653,2.037 14.190 C 2.118 15.499,2.491 16.845,3.105 18.046 C 3.704 19.218,4.561 20.304,4.987 20.431 C 5.351 20.540,5.685 20.466,5.940 20.217 C 6.188 19.977,6.256 19.827,6.258 19.520 C 6.260 19.203,6.202 19.081,5.759 18.481 C 4.885 17.297,4.448 16.355,4.173 15.060 C 4.069 14.570,4.063 14.480,4.061 13.500 C 4.060 12.510,4.065 12.434,4.172 11.926 C 4.561 10.079,5.629 8.334,7.038 7.246 C 8.590 6.047,10.461 5.441,12.320 5.536 C 13.000 5.571,13.538 5.655,14.317 5.847 C 15.054 6.029,15.213 6.030,15.508 5.857 C 15.868 5.647,16.060 5.199,15.966 4.791 C 15.846 4.274,15.443 4.041,14.140 3.738 C 13.764 3.650,13.551 3.630,12.680 3.600 C 11.516 3.559,11.190 3.559,10.740 3.601 M17.731 6.546 C 17.575 6.580,16.916 7.201,14.707 9.398 L 12.554 11.540 12.087 11.540 C 11.737 11.540,11.562 11.559,11.389 11.616 C 11.074 11.719,10.661 12.012,10.436 12.292 C 10.165 12.630,10.074 12.892,10.050 13.406 C 10.025 13.945,10.112 14.272,10.378 14.633 C 11.128 15.652,12.517 15.771,13.398 14.890 C 13.830 14.458,13.936 14.183,13.981 13.380 L 14.008 12.900 15.716 11.180 C 18.046 8.833,18.768 8.086,18.873 7.913 C 19.010 7.689,19.028 7.419,18.922 7.174 C 18.821 6.938,18.601 6.710,18.393 6.623 C 18.234 6.556,17.875 6.515,17.731 6.546 M20.169 9.610 C 20.010 9.661,19.699 9.927,19.620 10.080 C 19.473 10.364,19.476 10.499,19.640 11.138 C 19.884 12.088,19.925 12.359,19.949 13.164 C 20.011 15.258,19.534 16.742,18.241 18.480 C 17.805 19.066,17.740 19.201,17.742 19.520 C 17.745 20.031,18.086 20.407,18.601 20.468 C 19.050 20.521,19.397 20.283,19.961 19.536 C 20.940 18.239,21.578 16.737,21.885 15.010 C 21.997 14.379,22.006 12.729,21.901 12.080 C 21.694 10.798,21.398 9.955,21.082 9.746 C 20.814 9.569,20.461 9.516,20.169 9.610 " fill="#1A1C1F" stroke="none" fill-rule="evenodd"></path></svg>