<svg width="16" height="16" viewBox="0 0 16 16" fill="none" xmlns="http://www.w3.org/2000/svg"><path d="M7.493 2.427 C 5.788 2.603,4.419 3.277,3.272 4.502 C 2.687 5.128,2.224 5.926,1.933 6.809 C 1.663 7.631,1.574 8.331,1.626 9.237 C 1.710 10.718,2.427 12.292,3.474 13.300 C 3.715 13.533,3.817 13.581,4.067 13.582 C 4.319 13.582,4.438 13.537,4.610 13.376 C 4.800 13.197,4.856 13.068,4.856 12.812 C 4.856 12.548,4.789 12.403,4.528 12.107 C 3.862 11.350,3.487 10.622,3.303 9.733 C 3.247 9.459,3.240 9.359,3.241 8.787 C 3.242 8.224,3.249 8.113,3.302 7.867 C 3.674 6.149,4.859 4.804,6.477 4.266 C 6.986 4.097,7.251 4.052,7.844 4.035 C 8.255 4.023,8.452 4.030,8.755 4.067 C 9.190 4.119,9.378 4.113,9.532 4.039 C 9.675 3.971,9.823 3.818,9.912 3.648 C 10.010 3.459,10.014 3.195,9.923 3.007 C 9.847 2.852,9.690 2.687,9.552 2.616 C 9.281 2.478,8.074 2.367,7.493 2.427 M11.267 4.477 C 11.195 4.510,10.701 4.980,9.782 5.891 L 8.403 7.255 8.182 7.224 C 7.453 7.119,6.686 7.639,6.464 8.387 C 6.369 8.706,6.414 9.167,6.574 9.517 C 6.662 9.709,7.086 10.127,7.290 10.224 C 7.469 10.309,7.837 10.400,8.000 10.400 C 8.162 10.400,8.531 10.309,8.708 10.225 C 8.912 10.128,9.330 9.715,9.421 9.520 C 9.561 9.217,9.626 8.814,9.576 8.550 L 9.547 8.393 10.771 7.158 C 12.189 5.728,12.328 5.574,12.374 5.383 C 12.456 5.042,12.284 4.680,11.960 4.513 C 11.781 4.420,11.428 4.402,11.267 4.477 M13.199 6.754 C 12.936 6.853,12.748 7.064,12.676 7.338 C 12.647 7.450,12.650 7.515,12.699 7.820 C 12.768 8.247,12.782 9.208,12.725 9.560 C 12.573 10.492,12.233 11.196,11.533 12.027 C 11.208 12.413,11.141 12.547,11.142 12.813 C 11.143 13.067,11.201 13.198,11.390 13.376 C 11.562 13.537,11.681 13.582,11.933 13.582 C 12.183 13.581,12.285 13.533,12.526 13.300 C 13.449 12.412,14.136 11.046,14.331 9.707 C 14.476 8.718,14.356 7.414,14.086 7.040 C 14.005 6.926,13.864 6.821,13.735 6.777 C 13.586 6.727,13.305 6.715,13.199 6.754 " fill="#1A1C1F" stroke="none" fill-rule="evenodd"></path></svg>