<svg width="14" height="14" viewBox="0 0 14 14" fill="none" xmlns="http://www.w3.org/2000/svg"><path d="M6.541 2.124 C 6.067 2.170,5.454 2.310,5.062 2.461 C 4.624 2.630,3.950 3.005,3.587 3.282 C 3.387 3.435,2.876 3.936,2.671 4.180 C 2.450 4.445,2.225 4.788,2.042 5.141 C 1.021 7.110,1.234 9.322,2.608 11.012 C 2.797 11.244,3.264 11.706,3.394 11.790 L 3.510 11.865 4.363 11.880 C 5.737 11.904,9.900 11.902,10.203 11.877 C 10.354 11.864,10.511 11.839,10.553 11.822 C 10.651 11.781,11.150 11.301,11.380 11.028 C 12.260 9.981,12.707 8.552,12.577 7.207 C 12.478 6.186,12.065 5.133,11.452 4.336 C 11.231 4.049,10.779 3.588,10.488 3.353 C 9.682 2.702,8.677 2.274,7.655 2.148 C 7.368 2.112,6.788 2.100,6.541 2.124 M9.660 4.600 C 9.786 4.638,9.952 4.759,10.018 4.861 C 10.095 4.979,10.136 5.176,10.120 5.351 C 10.110 5.461,10.089 5.516,10.018 5.619 C 9.969 5.691,9.574 6.109,9.140 6.548 L 8.352 7.346 8.378 7.552 C 8.411 7.816,8.371 8.027,8.234 8.307 C 8.116 8.547,7.863 8.812,7.637 8.931 C 7.465 9.023,7.178 9.100,7.014 9.100 C 6.858 9.100,6.541 9.023,6.374 8.945 C 6.194 8.860,5.865 8.532,5.768 8.340 C 5.608 8.022,5.574 7.609,5.682 7.289 C 5.846 6.800,6.258 6.433,6.755 6.331 C 6.912 6.299,6.975 6.297,7.150 6.319 L 7.358 6.345 8.136 5.577 C 8.869 4.853,9.147 4.606,9.269 4.569 C 9.332 4.549,9.547 4.567,9.660 4.600 " fill="#1A1C1F" stroke="none" fill-rule="evenodd"></path></svg>