<svg width="12" height="12" viewBox="0 0 12 12" fill="none" xmlns="http://www.w3.org/2000/svg"><path d="M5.620 1.820 C 4.601 1.925,3.721 2.280,2.960 2.893 C 2.081 3.602,1.456 4.689,1.260 5.849 C 1.220 6.085,1.217 6.159,1.225 6.689 C 1.233 7.224,1.238 7.289,1.287 7.510 C 1.502 8.485,1.952 9.337,2.575 9.945 C 2.787 10.151,2.855 10.185,3.060 10.185 C 3.246 10.185,3.338 10.149,3.467 10.024 C 3.600 9.896,3.642 9.796,3.642 9.610 C 3.642 9.415,3.600 9.322,3.415 9.106 C 2.768 8.350,2.471 7.672,2.422 6.830 C 2.362 5.814,2.703 4.863,3.384 4.150 C 3.932 3.576,4.546 3.231,5.297 3.077 C 5.590 3.017,6.192 3.004,6.567 3.050 C 6.893 3.090,7.033 3.085,7.149 3.029 C 7.256 2.978,7.367 2.864,7.434 2.736 C 7.508 2.593,7.512 2.393,7.442 2.260 C 7.292 1.974,7.142 1.903,6.560 1.841 C 6.271 1.811,5.810 1.801,5.620 1.820 M8.450 3.358 C 8.397 3.382,8.025 3.737,7.337 4.417 L 6.304 5.440 6.145 5.418 C 5.583 5.343,5.015 5.724,4.848 6.290 C 4.805 6.436,4.800 6.725,4.838 6.880 C 4.896 7.113,4.969 7.236,5.165 7.429 C 5.286 7.547,5.389 7.629,5.464 7.665 C 5.600 7.731,5.875 7.800,6.000 7.800 C 6.102 7.800,6.371 7.739,6.490 7.689 C 6.674 7.612,6.981 7.317,7.067 7.135 C 7.171 6.915,7.222 6.588,7.182 6.402 L 7.159 6.295 8.098 5.349 C 8.615 4.828,9.087 4.342,9.147 4.269 C 9.312 4.069,9.339 3.890,9.239 3.663 C 9.186 3.543,9.096 3.450,8.970 3.385 C 8.835 3.315,8.571 3.301,8.450 3.358 M9.899 5.066 C 9.706 5.138,9.570 5.287,9.508 5.493 C 9.483 5.577,9.484 5.615,9.522 5.858 C 9.581 6.244,9.593 6.762,9.551 7.080 C 9.454 7.815,9.196 8.373,8.659 9.010 C 8.406 9.310,8.356 9.409,8.357 9.610 C 8.357 9.795,8.400 9.896,8.533 10.024 C 8.662 10.149,8.753 10.185,8.943 10.185 C 9.160 10.185,9.231 10.145,9.489 9.879 C 10.529 8.802,11.009 7.157,10.711 5.694 C 10.639 5.342,10.552 5.201,10.349 5.107 C 10.223 5.049,9.999 5.028,9.899 5.066 " fill="#1A1C1F" stroke="none" fill-rule="evenodd"></path></svg>