<svg width="20" height="20" viewBox="0 0 20 20" fill="none" xmlns="http://www.w3.org/2000/svg"><path d="M9.483 3.037 C 8.199 3.106,6.928 3.523,5.759 4.258 C 4.005 5.360,2.723 7.135,2.233 9.140 C 2.067 9.819,2.020 10.218,2.019 10.967 C 2.018 11.708,2.051 12.014,2.201 12.650 C 2.540 14.088,3.187 15.230,4.293 16.343 C 4.508 16.560,4.758 16.785,4.849 16.843 L 5.015 16.950 6.232 16.971 C 8.196 17.006,14.144 17.002,14.575 16.966 C 14.791 16.949,15.021 16.911,15.087 16.884 C 15.238 16.821,16.107 15.953,16.408 15.565 C 17.497 14.159,18.058 12.437,17.989 10.716 C 17.920 9.011,17.247 7.242,16.185 5.972 C 15.842 5.562,15.101 4.852,14.760 4.606 C 13.145 3.444,11.426 2.933,9.483 3.037 M13.800 6.572 C 13.968 6.622,14.209 6.791,14.299 6.923 C 14.445 7.136,14.507 7.538,14.433 7.801 C 14.382 7.986,14.101 8.302,12.975 9.438 L 11.930 10.492 11.967 10.774 C 12.011 11.104,11.977 11.360,11.843 11.700 C 11.541 12.464,10.778 12.997,9.980 12.999 C 9.763 13.000,9.357 12.896,9.110 12.777 C 8.852 12.652,8.383 12.187,8.243 11.917 C 8.013 11.474,7.963 10.872,8.117 10.413 C 8.429 9.482,9.365 8.881,10.266 9.033 L 10.501 9.073 11.618 7.972 C 12.715 6.888,13.075 6.572,13.258 6.528 C 13.367 6.502,13.636 6.524,13.800 6.572 " fill="#1A1C1F" stroke="none" fill-rule="evenodd"></path></svg>