<svg width="16" height="16" viewBox="0 0 16 16" fill="none" xmlns="http://www.w3.org/2000/svg"><path d="M7.173 2.445 C 5.566 2.615,4.384 3.024,3.187 3.824 C 2.514 4.274,1.846 4.866,1.695 5.147 C 1.629 5.268,1.615 5.325,1.615 5.480 C 1.613 5.797,1.759 6.050,2.030 6.201 C 2.156 6.270,2.200 6.280,2.389 6.280 C 2.592 6.280,2.613 6.274,2.749 6.184 C 2.828 6.131,3.024 5.978,3.183 5.843 C 3.961 5.185,4.616 4.777,5.373 4.481 C 6.236 4.144,6.961 4.017,8.027 4.016 C 8.945 4.015,9.501 4.099,10.263 4.352 C 11.130 4.640,11.959 5.139,12.840 5.904 C 13.202 6.219,13.305 6.272,13.574 6.288 C 13.819 6.302,13.957 6.252,14.142 6.081 C 14.311 5.926,14.382 5.765,14.384 5.533 C 14.388 5.208,14.257 5.015,13.720 4.545 C 12.336 3.337,10.556 2.584,8.773 2.453 C 8.436 2.428,7.381 2.423,7.173 2.445 M7.320 6.443 C 7.291 6.450,7.171 6.474,7.053 6.496 C 6.383 6.624,5.645 6.993,5.043 7.503 C 4.664 7.823,4.541 8.035,4.567 8.320 C 4.612 8.810,5.042 9.157,5.491 9.065 C 5.691 9.023,5.759 8.986,6.040 8.761 C 6.344 8.517,6.474 8.430,6.707 8.314 C 7.137 8.099,7.498 8.018,8.027 8.018 C 8.800 8.018,9.370 8.222,10.014 8.730 C 10.383 9.022,10.501 9.079,10.733 9.078 C 11.048 9.076,11.295 8.925,11.428 8.653 C 11.570 8.363,11.536 8.024,11.340 7.783 C 10.932 7.278,9.854 6.681,9.013 6.493 C 8.861 6.459,8.643 6.446,8.093 6.439 C 7.697 6.434,7.349 6.436,7.320 6.443 M7.714 10.438 C 7.241 10.528,6.747 10.905,6.559 11.320 C 6.356 11.770,6.358 12.245,6.564 12.667 C 6.764 13.076,7.201 13.445,7.600 13.541 C 8.145 13.672,8.714 13.519,9.096 13.138 C 9.296 12.938,9.417 12.746,9.513 12.476 C 9.603 12.220,9.614 11.801,9.536 11.573 C 9.407 11.197,9.170 10.882,8.860 10.676 C 8.535 10.461,8.086 10.368,7.714 10.438 " fill="#1A1C1F" stroke="none" fill-rule="evenodd"></path></svg>