<svg width="12" height="12" viewBox="0 0 12 12" fill="none" xmlns="http://www.w3.org/2000/svg"><path d="M5.610 1.813 C 5.203 1.854,4.935 1.888,4.748 1.921 C 3.868 2.078,3.136 2.370,2.421 2.847 C 1.905 3.192,1.351 3.681,1.263 3.869 C 1.129 4.154,1.249 4.506,1.529 4.650 C 1.630 4.701,1.669 4.710,1.800 4.710 C 1.943 4.710,1.961 4.705,2.062 4.638 C 2.121 4.599,2.268 4.483,2.388 4.382 C 3.329 3.585,4.172 3.193,5.251 3.050 C 5.591 3.005,6.195 2.990,6.520 3.018 C 7.641 3.116,8.677 3.583,9.610 4.410 C 9.901 4.667,10.006 4.720,10.230 4.719 C 10.376 4.719,10.485 4.673,10.607 4.561 C 10.736 4.441,10.786 4.325,10.787 4.139 C 10.788 3.919,10.748 3.851,10.450 3.563 C 9.435 2.582,7.964 1.930,6.570 1.841 C 6.161 1.816,5.713 1.802,5.610 1.813 M5.290 4.869 C 4.690 4.996,4.128 5.297,3.683 5.728 C 3.428 5.975,3.378 6.118,3.453 6.385 C 3.492 6.523,3.619 6.678,3.748 6.744 C 3.848 6.795,4.074 6.814,4.195 6.781 C 4.242 6.769,4.341 6.712,4.415 6.655 C 4.489 6.599,4.613 6.504,4.690 6.446 C 5.121 6.118,5.699 5.962,6.268 6.020 C 6.706 6.064,7.110 6.233,7.490 6.532 C 7.792 6.769,7.874 6.809,8.050 6.808 C 8.224 6.807,8.344 6.757,8.460 6.638 C 8.597 6.496,8.629 6.416,8.630 6.220 C 8.630 6.010,8.587 5.912,8.426 5.750 C 7.980 5.304,7.167 4.910,6.552 4.841 C 6.447 4.830,6.170 4.821,5.936 4.821 C 5.570 4.822,5.479 4.829,5.290 4.869 M5.840 7.821 C 5.593 7.850,5.347 7.978,5.144 8.185 C 4.942 8.389,4.857 8.564,4.818 8.858 C 4.736 9.467,5.157 10.039,5.785 10.173 C 5.968 10.212,6.159 10.198,6.366 10.131 C 6.563 10.066,6.658 10.007,6.826 9.843 C 6.995 9.678,7.063 9.573,7.129 9.376 C 7.232 9.067,7.212 8.777,7.067 8.480 C 6.964 8.268,6.727 8.033,6.520 7.935 C 6.294 7.829,6.079 7.792,5.840 7.821 " fill="#1A1C1F" stroke="none" fill-rule="evenodd"></path></svg>