<svg width="20" height="20" viewBox="0 0 20 20" fill="none" xmlns="http://www.w3.org/2000/svg"><path d="M9.020 3.050 C 7.835 3.168,6.859 3.385,6.000 3.723 C 5.475 3.930,4.658 4.347,4.184 4.650 C 3.206 5.276,2.242 6.121,2.077 6.498 C 1.995 6.686,2.002 7.084,2.092 7.267 C 2.207 7.503,2.352 7.655,2.559 7.756 C 2.718 7.834,2.793 7.850,3.005 7.850 C 3.255 7.850,3.263 7.847,3.488 7.690 C 3.614 7.602,3.934 7.350,4.200 7.129 C 5.976 5.656,7.786 5.002,10.086 5.000 C 11.431 4.999,12.553 5.251,13.717 5.813 C 14.539 6.211,15.258 6.690,15.996 7.331 C 16.534 7.799,16.668 7.867,17.050 7.866 C 17.294 7.865,17.475 7.789,17.678 7.601 C 17.894 7.402,17.977 7.208,17.978 6.898 C 17.979 6.532,17.913 6.418,17.417 5.939 C 15.721 4.300,13.276 3.215,10.950 3.071 C 9.929 3.007,9.497 3.003,9.020 3.050 M8.871 8.101 C 7.835 8.309,6.763 8.892,6.048 9.638 C 5.743 9.957,5.678 10.106,5.709 10.415 C 5.772 11.020,6.308 11.445,6.863 11.331 C 7.114 11.279,7.199 11.232,7.550 10.951 C 8.202 10.428,8.665 10.201,9.314 10.085 C 10.495 9.874,11.526 10.135,12.483 10.886 C 12.988 11.283,13.122 11.348,13.422 11.348 C 13.876 11.347,14.229 11.068,14.353 10.611 C 14.459 10.217,14.359 9.882,14.043 9.578 C 13.251 8.817,11.978 8.200,10.927 8.068 C 10.456 8.009,9.234 8.029,8.871 8.101 M9.750 13.038 C 9.335 13.075,8.911 13.296,8.553 13.661 C 8.241 13.979,8.100 14.271,8.030 14.747 C 7.937 15.370,8.159 15.964,8.675 16.473 C 9.141 16.931,9.905 17.107,10.550 16.904 C 10.955 16.776,11.088 16.696,11.393 16.393 C 11.753 16.036,11.903 15.735,11.970 15.237 C 12.047 14.669,11.868 14.117,11.469 13.691 C 10.997 13.186,10.442 12.975,9.750 13.038 " fill="#1A1C1F" stroke="none" fill-rule="evenodd"></path></svg>