<svg width="14" height="14" viewBox="0 0 14 14" fill="none" xmlns="http://www.w3.org/2000/svg"><path d="M6.662 2.135 C 6.636 2.140,6.500 2.156,6.358 2.171 C 5.453 2.266,4.491 2.568,3.705 3.002 C 3.004 3.389,2.112 4.082,1.894 4.410 C 1.762 4.608,1.729 4.767,1.780 4.963 C 1.874 5.319,2.179 5.540,2.521 5.499 C 2.683 5.480,2.732 5.449,3.155 5.096 C 3.807 4.551,4.200 4.298,4.816 4.025 C 5.393 3.769,5.949 3.615,6.557 3.544 C 6.911 3.502,7.877 3.509,8.237 3.555 C 8.576 3.600,8.927 3.676,9.264 3.780 L 9.504 3.854 8.631 4.727 L 7.759 5.600 7.560 5.600 C 7.289 5.601,6.715 5.641,6.545 5.672 C 5.989 5.772,5.243 6.150,4.733 6.590 C 4.426 6.853,4.324 7.036,4.346 7.280 C 4.394 7.806,4.924 8.101,5.393 7.862 C 5.445 7.835,5.493 7.818,5.499 7.824 C 5.505 7.830,5.018 8.332,4.417 8.940 C 2.883 10.491,2.557 10.832,2.509 10.933 C 2.454 11.050,2.452 11.339,2.506 11.468 C 2.560 11.597,2.737 11.770,2.880 11.834 C 3.060 11.914,3.290 11.908,3.442 11.819 C 3.515 11.777,4.192 11.124,5.273 10.055 C 7.459 7.893,11.602 3.736,11.929 3.377 C 12.141 3.143,12.185 3.082,12.217 2.971 C 12.283 2.744,12.228 2.526,12.058 2.341 C 11.927 2.199,11.812 2.145,11.611 2.130 C 11.313 2.108,11.211 2.163,10.776 2.585 L 10.551 2.803 10.438 2.746 C 10.001 2.526,9.047 2.262,8.391 2.180 C 8.133 2.148,6.784 2.113,6.662 2.135 M7.106 10.203 C 6.601 10.706,6.176 11.141,6.162 11.170 C 6.140 11.215,6.149 11.235,6.236 11.333 C 6.588 11.731,6.904 11.885,7.373 11.886 C 7.878 11.888,8.346 11.594,8.589 11.122 C 8.676 10.954,8.750 10.672,8.750 10.514 C 8.749 10.218,8.614 9.852,8.418 9.612 C 8.321 9.494,8.081 9.287,8.040 9.287 C 8.031 9.287,7.611 9.699,7.106 10.203 " fill="#1A1C1F" stroke="none" fill-rule="evenodd"></path></svg>