<svg width="24" height="24" viewBox="0 0 24 24" fill="none" xmlns="http://www.w3.org/2000/svg"><path d="M10.820 4.064 C 9.065 4.315,7.999 4.624,6.700 5.261 C 5.374 5.910,4.437 6.599,3.320 7.745 C 2.185 8.910,1.859 9.489,2.071 9.968 C 2.255 10.386,2.614 10.640,3.017 10.640 C 3.417 10.640,3.487 10.584,4.376 9.546 C 5.292 8.478,6.269 7.726,7.580 7.082 C 9.239 6.267,10.305 6.047,12.379 6.091 C 14.131 6.129,15.079 6.349,16.480 7.044 C 17.826 7.711,18.729 8.447,19.840 9.777 C 20.532 10.607,20.585 10.646,21.009 10.647 C 21.432 10.648,21.803 10.371,21.943 9.950 C 22.071 9.566,21.985 9.316,21.508 8.680 C 21.122 8.166,19.844 6.890,19.321 6.498 C 17.622 5.223,15.797 4.455,13.700 4.134 C 13.316 4.076,11.116 4.022,10.820 4.064 M10.860 8.025 C 10.279 8.107,9.313 8.353,8.840 8.540 C 8.007 8.870,7.186 9.346,6.460 9.920 C 6.052 10.242,5.243 11.056,4.969 11.420 C 4.636 11.863,4.540 12.088,4.540 12.426 C 4.540 12.682,4.553 12.730,4.664 12.886 C 4.815 13.097,5.148 13.307,5.387 13.343 C 5.493 13.359,5.638 13.349,5.752 13.317 C 5.965 13.257,6.219 13.022,6.814 12.331 C 7.725 11.274,9.094 10.446,10.440 10.136 C 11.081 9.989,11.885 9.933,12.530 9.992 C 13.429 10.074,14.084 10.262,14.940 10.683 C 15.865 11.138,16.609 11.741,17.378 12.659 C 17.793 13.154,17.992 13.304,18.289 13.345 C 18.531 13.378,18.844 13.272,19.048 13.088 C 19.411 12.760,19.482 12.333,19.246 11.895 C 18.969 11.380,18.186 10.520,17.475 9.950 C 16.411 9.096,14.988 8.409,13.778 8.164 C 12.862 7.979,11.614 7.920,10.860 8.025 M11.073 12.000 C 9.768 12.207,8.477 12.953,7.658 13.974 C 7.158 14.596,7.044 14.911,7.175 15.306 C 7.314 15.722,7.636 15.960,8.063 15.960 C 8.540 15.959,8.602 15.918,9.299 15.142 C 9.948 14.419,10.608 14.072,11.550 13.957 C 11.864 13.919,12.035 13.919,12.345 13.958 C 13.337 14.080,14.050 14.490,14.798 15.367 C 15.228 15.871,15.402 15.979,15.780 15.977 C 16.208 15.976,16.577 15.688,16.702 15.260 C 16.814 14.874,16.705 14.579,16.226 13.979 C 15.517 13.090,14.258 12.310,13.120 12.053 C 12.809 11.983,11.409 11.947,11.073 12.000 M11.560 16.054 C 11.215 16.134,10.924 16.307,10.617 16.616 C 9.977 17.257,9.835 18.049,10.220 18.828 C 10.485 19.364,11.082 19.840,11.632 19.956 C 12.268 20.089,12.936 19.867,13.410 19.365 C 13.690 19.067,13.843 18.796,13.939 18.422 C 14.049 17.994,13.994 17.574,13.769 17.121 C 13.636 16.853,13.250 16.454,12.980 16.305 C 12.528 16.055,11.975 15.957,11.560 16.054 " fill="#1A1C1F" stroke="none" fill-rule="evenodd"></path></svg>