<svg width="32" height="32" viewBox="0 0 32 32" fill="none" xmlns="http://www.w3.org/2000/svg"><path d="M26.628 4.109 C 26.492 4.178,25.746 4.869,24.724 5.875 L 23.044 7.527 22.282 7.234 C 21.031 6.753,19.931 6.450,18.533 6.202 C 18.085 6.123,17.681 6.108,16.000 6.109 C 14.148 6.109,13.951 6.118,13.333 6.231 C 11.450 6.576,10.132 7.013,8.485 7.838 C 6.383 8.890,4.752 10.159,3.131 12.000 C 2.135 13.132,1.940 13.505,2.077 14.015 C 2.204 14.488,2.598 14.756,3.096 14.708 C 3.430 14.676,3.562 14.563,4.389 13.600 C 5.150 12.715,6.073 11.796,6.693 11.308 C 8.342 10.008,10.314 9.015,12.249 8.510 C 13.643 8.147,13.692 8.141,15.707 8.119 C 17.742 8.096,18.136 8.125,19.209 8.371 C 19.925 8.536,21.366 8.990,21.412 9.065 C 21.428 9.091,20.931 9.632,20.307 10.267 L 19.173 11.423 18.427 11.284 C 17.389 11.090,16.498 11.022,15.467 11.057 C 14.515 11.090,13.956 11.171,13.037 11.410 C 11.433 11.828,9.782 12.664,8.400 13.760 C 7.537 14.444,6.178 15.924,5.914 16.468 C 5.853 16.593,5.790 16.789,5.775 16.904 C 5.715 17.353,6.148 17.876,6.642 17.950 C 7.046 18.010,7.270 17.855,7.984 17.022 C 8.328 16.621,8.754 16.149,8.932 15.973 C 10.238 14.678,11.999 13.711,13.883 13.252 C 14.324 13.145,14.605 13.119,15.673 13.088 C 16.932 13.051,17.333 13.074,17.333 13.181 C 17.333 13.258,16.089 14.523,15.143 15.407 C 14.402 16.100,14.348 16.139,13.970 16.259 C 12.406 16.756,11.042 17.689,10.014 18.964 C 9.482 19.624,9.387 19.985,9.624 20.453 C 9.722 20.647,9.741 20.735,9.702 20.810 C 9.672 20.864,8.447 22.126,6.978 23.614 C 5.509 25.102,4.245 26.413,4.169 26.527 C 3.864 26.981,4.046 27.567,4.583 27.859 C 5.074 28.127,5.156 28.087,6.327 27.005 C 7.349 26.062,16.955 16.481,22.938 10.440 C 28.231 5.095,28.062 5.282,27.979 4.838 C 27.927 4.560,27.736 4.315,27.464 4.175 C 27.107 3.991,26.894 3.974,26.628 4.109 M25.820 10.420 L 25.113 11.128 25.423 11.388 C 25.935 11.817,26.913 12.792,27.401 13.360 C 28.031 14.093,28.480 14.554,28.651 14.644 C 28.847 14.748,29.156 14.738,29.418 14.619 C 29.799 14.446,30.009 14.057,29.959 13.615 C 29.927 13.333,29.666 12.932,28.994 12.133 C 28.534 11.586,26.982 10.034,26.689 9.828 L 26.526 9.713 25.820 10.420 M22.205 14.037 C 21.843 14.395,21.548 14.701,21.549 14.717 C 21.550 14.733,21.696 14.855,21.874 14.987 C 22.513 15.461,23.208 16.143,24.290 17.359 C 24.724 17.846,25.008 18.005,25.351 17.950 C 25.839 17.872,26.187 17.468,26.187 16.979 C 26.187 16.770,26.147 16.647,25.998 16.400 C 25.413 15.429,23.383 13.387,23.003 13.387 C 22.895 13.387,22.710 13.538,22.205 14.037 M18.691 17.555 C 18.296 17.940,17.973 18.274,17.973 18.296 C 17.973 18.317,18.214 18.472,18.509 18.639 C 19.223 19.043,19.724 19.456,20.341 20.147 C 20.622 20.462,20.931 20.774,21.028 20.839 C 21.412 21.099,21.768 21.045,22.156 20.668 C 22.442 20.390,22.548 20.082,22.459 19.785 C 22.307 19.278,21.310 18.162,20.427 17.510 C 19.918 17.135,19.495 16.853,19.439 16.853 C 19.423 16.853,19.086 17.169,18.691 17.555 M15.426 21.070 C 14.878 21.167,14.062 21.687,13.650 22.203 C 13.266 22.683,13.016 23.392,13.014 24.005 C 13.013 24.387,13.183 25.051,13.372 25.404 C 13.562 25.759,14.241 26.438,14.596 26.628 C 14.949 26.817,15.613 26.987,15.995 26.986 C 17.198 26.983,18.378 26.134,18.812 24.960 C 19.011 24.423,19.020 23.678,18.835 23.137 C 18.529 22.240,17.767 21.479,16.880 21.182 C 16.496 21.054,15.813 21.001,15.426 21.070 M16.410 23.144 C 16.748 23.297,16.931 23.608,16.932 24.030 C 16.933 24.323,16.914 24.388,16.770 24.564 C 16.418 25.001,15.880 25.113,15.477 24.834 C 14.989 24.495,14.904 23.817,15.293 23.355 C 15.560 23.037,15.994 22.955,16.410 23.144 " fill="#1A1C1F" stroke="none" fill-rule="evenodd"></path></svg>