<svg width="24" height="24" viewBox="0 0 24 24" fill="none" xmlns="http://www.w3.org/2000/svg"><path d="M19.814 3.039 C 19.722 3.053,19.575 3.112,19.486 3.171 C 19.398 3.230,18.876 3.719,18.328 4.259 L 17.330 5.240 17.035 5.104 C 16.034 4.646,14.764 4.285,13.540 4.111 C 13.054 4.043,11.035 4.043,10.480 4.112 C 9.526 4.231,8.568 4.475,7.680 4.827 C 6.619 5.247,5.331 5.986,4.480 6.664 C 4.293 6.813,3.824 7.251,3.438 7.637 C 1.968 9.110,1.725 9.679,2.298 10.313 C 2.499 10.535,2.729 10.640,3.017 10.640 C 3.417 10.640,3.487 10.584,4.376 9.546 C 5.292 8.478,6.271 7.725,7.580 7.083 C 8.542 6.611,9.337 6.344,10.280 6.177 C 11.118 6.028,13.466 6.074,14.242 6.254 C 14.806 6.385,15.663 6.639,15.746 6.700 C 15.805 6.742,15.720 6.842,15.056 7.512 L 14.300 8.276 13.880 8.177 C 13.222 8.021,12.467 7.978,11.340 8.030 C 10.438 8.072,10.348 8.084,9.845 8.219 C 7.951 8.728,6.274 9.808,5.093 11.280 C 4.409 12.131,4.331 12.568,4.782 13.019 C 5.062 13.299,5.420 13.409,5.750 13.317 C 5.964 13.258,6.225 13.017,6.792 12.356 C 7.719 11.276,9.142 10.416,10.484 10.125 C 10.956 10.023,11.604 9.960,12.180 9.960 L 12.619 9.960 11.561 11.019 C 10.503 12.078,10.502 12.078,10.181 12.206 C 9.147 12.616,8.332 13.175,7.716 13.894 C 7.316 14.361,7.183 14.648,7.167 15.079 L 7.154 15.420 5.624 16.960 C 4.783 17.807,3.867 18.739,3.590 19.031 C 3.124 19.521,3.082 19.578,3.041 19.774 C 2.994 20.003,3.031 20.269,3.138 20.477 C 3.234 20.661,3.501 20.871,3.725 20.938 C 4.195 21.077,4.268 21.041,5.130 20.229 C 6.099 19.315,13.822 11.616,17.696 7.700 C 20.938 4.423,21.000 4.354,21.000 4.014 C 21.000 3.787,20.850 3.458,20.674 3.299 C 20.420 3.070,20.150 2.989,19.814 3.039 M19.895 8.325 L 19.209 9.010 19.722 9.638 C 20.471 10.555,20.587 10.647,21.000 10.647 C 21.298 10.648,21.530 10.546,21.718 10.332 C 22.018 9.992,22.067 9.609,21.863 9.207 C 21.708 8.900,20.698 7.640,20.607 7.640 C 20.592 7.640,20.271 7.948,19.895 8.325 M17.212 11.010 L 16.525 11.700 16.753 11.942 C 16.879 12.074,17.157 12.393,17.370 12.650 C 17.780 13.141,17.981 13.297,18.265 13.342 C 18.676 13.408,19.207 13.079,19.341 12.676 C 19.459 12.322,19.349 11.975,18.952 11.449 C 18.722 11.143,17.974 10.320,17.927 10.320 C 17.912 10.320,17.590 10.630,17.212 11.010 M14.507 13.713 L 13.799 14.421 14.081 14.641 C 14.236 14.761,14.543 15.070,14.762 15.327 C 15.231 15.876,15.380 15.970,15.778 15.967 C 16.223 15.965,16.576 15.694,16.703 15.255 C 16.825 14.836,16.703 14.547,16.112 13.850 C 15.837 13.527,15.536 13.234,15.321 13.081 L 15.214 13.005 14.507 13.713 M11.560 16.054 C 11.215 16.134,10.924 16.307,10.617 16.616 C 9.977 17.257,9.835 18.049,10.220 18.828 C 10.485 19.364,11.082 19.840,11.632 19.956 C 12.268 20.089,12.936 19.867,13.410 19.365 C 13.690 19.067,13.843 18.796,13.939 18.422 C 14.049 17.994,13.994 17.574,13.769 17.121 C 13.636 16.853,13.250 16.454,12.980 16.305 C 12.528 16.055,11.975 15.957,11.560 16.054 " fill="#1A1C1F" stroke="none" fill-rule="evenodd"></path></svg>