<svg width="28" height="28" viewBox="0 0 28 28" fill="none" xmlns="http://www.w3.org/2000/svg"><path d="M22.857 3.952 C 22.619 4.175,21.917 4.859,21.298 5.473 L 20.173 6.590 19.502 6.331 C 18.402 5.909,17.441 5.644,16.217 5.427 C 15.824 5.358,15.471 5.344,14.000 5.345 C 12.109 5.346,11.905 5.365,10.613 5.670 C 9.237 5.994,7.681 6.644,6.259 7.489 C 4.940 8.272,3.436 9.608,2.350 10.964 C 1.903 11.522,1.773 11.760,1.774 12.020 C 1.776 12.228,1.903 12.538,2.037 12.657 C 2.176 12.780,2.451 12.880,2.651 12.880 C 2.928 12.880,3.144 12.701,3.808 11.923 C 4.538 11.067,5.083 10.528,5.787 9.964 C 7.351 8.710,8.940 7.906,10.820 7.418 C 11.933 7.129,12.276 7.093,13.971 7.094 C 15.624 7.094,16.003 7.127,16.929 7.350 C 17.496 7.486,18.700 7.874,18.735 7.931 C 18.749 7.953,18.314 8.426,17.768 8.983 L 16.777 9.995 16.143 9.877 C 14.434 9.559,12.761 9.606,11.247 10.015 C 10.005 10.350,8.589 11.080,7.420 11.986 C 6.647 12.586,5.414 13.921,5.157 14.437 C 5.093 14.566,5.040 14.745,5.040 14.834 C 5.040 15.228,5.408 15.646,5.809 15.706 C 6.145 15.756,6.370 15.621,6.795 15.113 C 8.142 13.507,9.336 12.590,10.835 12.011 C 11.973 11.572,12.389 11.491,13.716 11.452 C 14.816 11.420,15.167 11.439,15.167 11.533 C 15.167 11.601,14.076 12.709,13.250 13.481 L 12.569 14.117 12.083 14.275 C 10.766 14.703,9.533 15.586,8.642 16.738 C 8.279 17.207,8.224 17.603,8.469 17.974 L 8.597 18.166 6.570 20.202 C 4.064 22.718,3.616 23.192,3.546 23.407 C 3.391 23.874,3.865 24.500,4.373 24.500 C 4.705 24.500,5.001 24.216,13.526 15.707 C 20.286 8.960,23.956 5.242,24.283 4.806 C 24.527 4.481,24.551 4.339,24.412 4.037 C 24.261 3.707,23.978 3.547,23.547 3.547 L 23.291 3.547 22.857 3.952 M22.581 9.134 L 21.971 9.729 22.244 9.961 C 22.716 10.364,23.559 11.205,23.976 11.690 C 24.527 12.331,24.920 12.734,25.069 12.813 C 25.241 12.904,25.512 12.895,25.740 12.792 C 26.073 12.640,26.258 12.299,26.214 11.916 C 26.189 11.687,26.036 11.434,25.570 10.850 C 25.034 10.176,23.377 8.540,23.231 8.540 C 23.209 8.540,22.916 8.807,22.581 9.134 M19.429 12.283 C 19.112 12.596,18.854 12.863,18.855 12.878 C 18.857 12.892,18.998 13.008,19.169 13.137 C 19.702 13.536,20.275 14.100,21.288 15.223 C 21.582 15.548,21.685 15.630,21.855 15.678 C 22.559 15.875,23.163 15.097,22.814 14.443 C 22.412 13.688,20.468 11.713,20.127 11.713 C 20.033 11.713,19.871 11.846,19.429 12.283 M16.332 15.383 L 15.682 16.018 16.195 16.311 C 16.849 16.684,17.250 17.014,17.803 17.634 C 18.277 18.165,18.468 18.321,18.699 18.367 C 19.199 18.468,19.809 17.781,19.649 17.298 C 19.501 16.847,18.634 15.883,17.873 15.322 C 17.427 14.992,17.058 14.747,17.009 14.747 C 16.994 14.747,16.690 15.033,16.332 15.383 M13.498 18.436 C 12.804 18.559,11.934 19.254,11.632 19.927 C 11.172 20.954,11.374 22.026,12.178 22.824 C 13.407 24.043,15.238 23.819,16.213 22.330 C 16.676 21.624,16.731 20.714,16.357 19.935 C 16.180 19.564,15.707 19.034,15.351 18.805 C 14.860 18.490,14.075 18.334,13.498 18.436 M14.359 20.251 C 14.654 20.385,14.815 20.657,14.816 21.026 C 14.817 21.282,14.799 21.339,14.674 21.494 C 14.366 21.876,13.895 21.974,13.543 21.730 C 13.115 21.434,13.041 20.839,13.381 20.435 C 13.615 20.157,13.995 20.086,14.359 20.251 " fill="#1A1C1F" stroke="none" fill-rule="evenodd"></path></svg>