<svg width="28" height="28" viewBox="0 0 28 28" fill="none" xmlns="http://www.w3.org/2000/svg"><path d="M12.670 4.883 C 10.133 5.142,7.767 6.008,5.647 7.455 C 4.793 8.037,4.459 8.322,3.498 9.284 C 2.258 10.526,1.775 11.161,1.774 11.550 C 1.773 11.972,1.984 12.279,2.353 12.395 C 2.821 12.542,3.024 12.429,3.658 11.667 C 4.162 11.060,5.384 9.832,5.885 9.428 C 9.240 6.723,13.921 5.876,18.013 7.233 C 19.532 7.737,21.155 8.629,22.307 9.592 C 22.712 9.932,23.796 11.027,24.196 11.503 C 24.909 12.350,25.115 12.497,25.503 12.439 C 25.903 12.379,26.165 12.086,26.215 11.644 C 26.244 11.389,26.099 11.091,25.694 10.575 C 23.548 7.837,20.387 5.845,17.141 5.184 C 15.951 4.941,15.475 4.893,14.117 4.878 C 13.424 4.870,12.773 4.872,12.670 4.883 M13.277 9.226 C 11.241 9.361,9.246 10.148,7.467 11.518 C 6.927 11.934,5.880 12.993,5.477 13.533 C 5.137 13.988,5.040 14.188,5.040 14.436 C 5.040 14.643,5.212 14.964,5.399 15.107 C 5.537 15.212,5.611 15.232,5.873 15.234 C 6.270 15.237,6.410 15.153,6.812 14.668 C 7.872 13.389,8.729 12.644,9.847 12.030 C 12.502 10.569,15.746 10.634,18.407 12.200 C 19.312 12.733,19.968 13.304,20.926 14.393 C 21.305 14.823,21.618 15.137,21.715 15.183 C 21.927 15.284,22.190 15.279,22.429 15.171 C 22.884 14.964,23.043 14.434,22.789 13.967 C 22.460 13.364,21.446 12.263,20.603 11.594 C 18.819 10.178,16.828 9.389,14.668 9.242 C 13.996 9.196,13.762 9.193,13.277 9.226 M12.971 13.631 C 11.388 13.836,9.468 15.076,8.504 16.516 C 8.351 16.746,8.330 16.810,8.331 17.057 C 8.333 17.489,8.550 17.767,8.973 17.881 C 9.320 17.973,9.529 17.883,9.893 17.483 C 10.768 16.523,11.362 16.044,12.092 15.708 C 12.753 15.405,12.782 15.400,13.976 15.400 C 15.037 15.400,15.077 15.403,15.409 15.522 C 16.362 15.865,17.099 16.390,17.890 17.290 C 18.277 17.731,18.441 17.862,18.656 17.902 C 19.214 18.007,19.813 17.357,19.638 16.837 C 19.497 16.416,18.610 15.422,17.923 14.915 C 16.900 14.158,15.841 13.725,14.770 13.626 C 14.211 13.575,13.392 13.577,12.971 13.631 M12.997 18.167 C 12.606 18.358,12.161 18.689,11.975 18.926 C 11.308 19.776,11.213 20.974,11.740 21.873 C 11.890 22.129,12.318 22.566,12.619 22.771 C 13.389 23.297,14.535 23.299,15.351 22.775 C 15.677 22.566,16.194 22.002,16.345 21.691 C 16.967 20.407,16.442 18.931,15.120 18.247 L 14.723 18.042 14.023 18.024 L 13.323 18.007 12.997 18.167 M14.197 19.742 C 14.544 19.839,14.838 20.213,14.852 20.578 C 14.863 20.838,14.641 21.179,14.373 21.318 C 14.204 21.405,14.115 21.422,13.915 21.403 C 13.627 21.376,13.497 21.302,13.315 21.063 C 13.201 20.914,13.183 20.848,13.183 20.580 C 13.184 20.195,13.326 19.946,13.635 19.793 C 13.862 19.681,13.948 19.673,14.197 19.742 " fill="#1A1C1F" stroke="none" fill-rule="evenodd"></path></svg>