<svg width="14" height="14" viewBox="0 0 14 14" fill="none" xmlns="http://www.w3.org/2000/svg"><path d="M6.545 2.116 C 4.704 2.276,3.530 2.725,2.217 3.771 C 1.507 4.337,1.332 4.606,1.433 4.978 C 1.515 5.280,1.749 5.476,2.059 5.500 C 2.271 5.517,2.352 5.474,2.780 5.117 C 3.507 4.510,4.038 4.180,4.723 3.909 C 5.894 3.447,7.505 3.371,8.712 3.722 C 9.575 3.972,10.403 4.442,11.197 5.132 C 11.574 5.459,11.668 5.507,11.935 5.506 C 12.106 5.506,12.232 5.452,12.375 5.321 C 12.526 5.181,12.584 5.045,12.584 4.830 C 12.584 4.719,12.570 4.622,12.545 4.564 C 12.492 4.441,12.114 4.059,11.769 3.780 C 10.839 3.031,9.704 2.497,8.535 2.262 C 8.158 2.186,7.919 2.160,7.245 2.124 C 6.810 2.101,6.732 2.100,6.545 2.116 M6.172 5.679 C 5.445 5.837,4.736 6.225,4.245 6.735 C 4.031 6.956,3.977 7.073,3.996 7.277 C 4.035 7.709,4.410 8.013,4.804 7.932 C 4.969 7.898,5.070 7.846,5.203 7.729 C 5.759 7.239,6.336 7.014,7.035 7.015 C 7.701 7.016,8.203 7.198,8.762 7.639 C 9.085 7.894,9.188 7.944,9.392 7.943 C 9.757 7.941,10.035 7.686,10.073 7.319 C 10.101 7.048,9.991 6.831,9.702 6.589 C 9.207 6.173,8.537 5.837,7.910 5.689 C 7.744 5.649,7.609 5.640,7.070 5.633 C 6.462 5.624,6.415 5.627,6.172 5.679 M6.789 9.125 C 6.513 9.165,6.229 9.318,6.002 9.548 C 5.818 9.734,5.757 9.833,5.679 10.068 C 5.589 10.337,5.589 10.668,5.678 10.928 C 5.828 11.364,6.170 11.696,6.615 11.837 C 6.951 11.943,7.426 11.880,7.725 11.689 C 7.848 11.610,8.135 11.320,8.207 11.200 C 8.234 11.155,8.284 11.037,8.317 10.939 C 8.490 10.423,8.368 9.927,7.971 9.529 C 7.751 9.310,7.544 9.196,7.252 9.137 C 7.058 9.097,6.989 9.095,6.789 9.125 " fill="#1A1C1F" stroke="none" fill-rule="evenodd"></path></svg>