<svg width="16" height="16" viewBox="0 0 16 16" fill="none" xmlns="http://www.w3.org/2000/svg"><path d="M7.347 2.469 C 5.635 2.666,4.274 3.231,2.947 4.296 C 2.469 4.680,2.173 4.978,2.087 5.164 C 1.900 5.565,2.056 6.005,2.461 6.219 C 2.550 6.267,2.618 6.279,2.787 6.280 C 3.051 6.280,3.071 6.268,3.608 5.821 C 4.202 5.325,4.454 5.146,4.907 4.895 C 5.718 4.445,6.607 4.154,7.493 4.050 C 7.898 4.002,9.002 4.010,9.413 4.063 C 9.802 4.114,10.202 4.201,10.588 4.320 L 10.862 4.405 9.864 5.402 L 8.867 6.400 8.640 6.400 C 8.330 6.401,7.675 6.447,7.480 6.482 C 7.023 6.565,6.386 6.839,5.907 7.158 C 5.378 7.512,5.066 7.819,4.987 8.064 C 4.913 8.292,5.007 8.642,5.195 8.836 C 5.317 8.962,5.436 9.025,5.632 9.065 C 5.807 9.101,5.929 9.084,6.131 8.996 C 6.210 8.961,6.280 8.938,6.286 8.943 C 6.292 8.949,5.741 9.517,5.061 10.204 C 3.335 11.950,2.921 12.383,2.867 12.497 C 2.804 12.629,2.803 12.960,2.865 13.107 C 2.926 13.254,3.128 13.452,3.291 13.524 C 3.497 13.616,3.760 13.610,3.934 13.508 C 4.017 13.459,4.783 12.721,5.999 11.518 C 8.461 9.085,13.259 4.271,13.633 3.859 C 13.928 3.534,14.000 3.403,14.000 3.187 C 14.000 2.937,13.826 2.659,13.577 2.513 C 13.466 2.447,13.428 2.440,13.200 2.440 C 12.971 2.440,12.935 2.447,12.820 2.514 C 12.751 2.555,12.551 2.727,12.375 2.896 L 12.057 3.203 11.947 3.147 C 11.319 2.826,10.097 2.520,9.186 2.454 C 8.676 2.417,7.734 2.425,7.347 2.469 M8.121 11.660 C 7.544 12.236,7.059 12.733,7.043 12.765 C 7.017 12.815,7.027 12.840,7.117 12.943 C 7.508 13.396,7.890 13.582,8.427 13.584 C 9.004 13.587,9.538 13.250,9.817 12.710 C 9.916 12.518,10.000 12.197,10.000 12.016 C 9.998 11.677,9.845 11.259,9.621 10.986 C 9.510 10.850,9.235 10.613,9.189 10.613 C 9.178 10.613,8.698 11.084,8.121 11.660 " fill="#1A1C1F" stroke="none" fill-rule="evenodd"></path></svg>