<svg width="32" height="32" viewBox="0 0 32 32" fill="none" xmlns="http://www.w3.org/2000/svg"><path d="M15.307 5.528 C 12.649 5.709,10.681 6.228,8.480 7.328 C 6.634 8.251,5.333 9.217,3.776 10.820 C 2.535 12.096,2.028 12.787,2.027 13.200 C 2.027 13.682,2.267 14.033,2.689 14.166 C 3.224 14.334,3.456 14.205,4.180 13.333 C 4.756 12.640,6.153 11.237,6.726 10.775 C 10.560 7.684,15.919 6.714,20.587 8.266 C 22.326 8.845,24.177 9.862,25.493 10.963 C 25.957 11.350,27.195 12.603,27.653 13.147 C 28.467 14.114,28.703 14.283,29.147 14.216 C 29.603 14.148,29.903 13.813,29.960 13.307 C 30.005 12.908,29.714 12.449,28.648 11.238 C 27.329 9.740,25.536 8.347,23.717 7.410 C 21.884 6.466,20.170 5.932,18.187 5.686 C 17.469 5.597,15.991 5.487,15.716 5.503 C 15.623 5.508,15.439 5.519,15.307 5.528 M14.899 10.561 C 13.604 10.687,12.119 11.115,10.856 11.725 C 9.438 12.411,8.344 13.199,7.272 14.307 C 6.225 15.389,5.762 16.054,5.761 16.476 C 5.760 16.732,5.949 17.096,6.171 17.265 C 6.328 17.385,6.413 17.408,6.712 17.410 C 7.165 17.414,7.326 17.317,7.785 16.763 C 8.997 15.302,9.976 14.451,11.253 13.748 C 13.962 12.258,17.270 12.150,20.121 13.458 C 21.531 14.105,22.667 15.001,23.920 16.455 C 24.629 17.277,24.774 17.395,25.119 17.428 C 25.596 17.474,26.027 17.171,26.184 16.680 C 26.316 16.268,26.001 15.718,25.016 14.639 C 23.014 12.448,20.435 11.056,17.601 10.639 C 16.910 10.537,15.550 10.498,14.899 10.561 M14.275 15.678 C 12.620 16.129,11.052 17.150,10.053 18.427 C 9.571 19.042,9.472 19.252,9.511 19.578 C 9.564 20.029,9.814 20.317,10.255 20.435 C 10.651 20.541,10.887 20.438,11.304 19.981 C 12.316 18.872,12.986 18.334,13.843 17.943 C 14.593 17.602,14.773 17.572,16.053 17.581 C 17.346 17.590,17.378 17.596,18.270 18.027 C 19.133 18.443,19.594 18.825,20.712 20.047 C 21.096 20.467,21.400 20.565,21.802 20.397 C 22.163 20.246,22.406 19.948,22.472 19.573 C 22.533 19.230,22.166 18.633,21.425 17.871 C 20.473 16.892,19.262 16.157,17.925 15.748 C 17.486 15.613,17.407 15.607,16.053 15.593 C 14.811 15.580,14.596 15.590,14.275 15.678 M14.773 20.805 C 13.711 21.330,13.013 22.406,13.013 23.520 C 13.013 24.254,13.309 24.974,13.828 25.507 C 14.509 26.206,15.092 26.467,15.973 26.469 C 16.582 26.470,16.990 26.358,17.499 26.049 C 17.895 25.810,18.497 25.167,18.680 24.790 C 19.391 23.323,18.791 21.635,17.280 20.853 L 16.827 20.619 16.027 20.600 L 15.227 20.581 14.773 20.805 M16.225 22.562 C 16.620 22.672,16.957 23.101,16.974 23.514 C 16.984 23.766,16.750 24.181,16.518 24.322 C 16.137 24.553,15.642 24.502,15.321 24.198 C 15.097 23.986,15.020 23.743,15.064 23.392 C 15.111 23.017,15.251 22.804,15.558 22.645 C 15.845 22.495,15.941 22.483,16.225 22.562 " fill="#1A1C1F" stroke="none" fill-rule="evenodd"></path></svg>