<svg width="12" height="12" viewBox="0 0 12 12" fill="none" xmlns="http://www.w3.org/2000/svg"><path d="M5.900 1.814 C 5.161 1.869,4.443 2.020,3.904 2.232 C 3.586 2.358,3.096 2.607,2.811 2.790 C 2.236 3.157,1.643 3.676,1.548 3.896 C 1.497 4.012,1.501 4.249,1.555 4.360 C 1.624 4.502,1.711 4.593,1.835 4.654 C 1.930 4.700,1.976 4.710,2.100 4.710 C 2.287 4.710,2.306 4.699,2.720 4.354 C 3.247 3.915,3.564 3.708,4.070 3.475 C 4.873 3.105,5.720 2.957,6.687 3.019 C 7.188 3.051,7.499 3.106,7.948 3.243 L 8.146 3.304 7.398 4.052 L 6.650 4.800 6.480 4.800 C 6.247 4.801,5.756 4.835,5.610 4.862 C 5.134 4.948,4.494 5.271,4.057 5.648 C 3.794 5.874,3.706 6.031,3.725 6.240 C 3.766 6.691,4.221 6.944,4.623 6.739 C 4.667 6.716,4.708 6.701,4.713 6.706 C 4.718 6.712,4.305 7.137,3.796 7.653 C 2.501 8.962,2.191 9.287,2.150 9.373 C 2.103 9.471,2.102 9.720,2.148 9.830 C 2.195 9.940,2.346 10.089,2.468 10.143 C 2.542 10.176,2.609 10.189,2.710 10.189 C 2.830 10.190,2.865 10.181,2.950 10.131 C 3.014 10.094,3.573 9.555,4.490 8.649 C 6.423 6.737,9.981 3.166,10.236 2.882 C 10.447 2.646,10.500 2.547,10.500 2.390 C 10.500 2.202,10.369 1.994,10.183 1.885 C 10.099 1.835,10.071 1.830,9.900 1.830 C 9.728 1.830,9.701 1.835,9.615 1.886 C 9.563 1.916,9.414 2.045,9.283 2.171 L 9.045 2.400 8.891 2.329 C 8.695 2.238,8.279 2.099,7.970 2.021 C 7.427 1.885,7.237 1.858,6.510 1.820 C 6.138 1.801,6.082 1.800,5.900 1.814 M6.091 8.745 C 5.658 9.177,5.294 9.550,5.282 9.574 C 5.263 9.612,5.271 9.630,5.343 9.714 C 5.625 10.041,5.912 10.184,6.300 10.187 C 6.639 10.190,6.876 10.087,7.140 9.821 C 7.334 9.626,7.423 9.470,7.473 9.236 C 7.536 8.937,7.456 8.570,7.271 8.311 C 7.186 8.191,6.938 7.960,6.895 7.960 C 6.885 7.960,6.523 8.313,6.091 8.745 " fill="#1A1C1F" stroke="none" fill-rule="evenodd"></path></svg>