<svg width="20" height="20" viewBox="0 0 20 20" fill="none" xmlns="http://www.w3.org/2000/svg"><path d="M9.217 3.084 C 7.052 3.336,5.321 4.050,3.689 5.365 C 3.196 5.763,2.660 6.304,2.588 6.477 C 2.390 6.952,2.595 7.517,3.049 7.749 C 3.216 7.835,3.283 7.850,3.498 7.850 C 3.812 7.850,3.843 7.833,4.533 7.256 C 5.411 6.524,5.940 6.180,6.783 5.792 C 7.591 5.420,8.497 5.164,9.367 5.063 C 9.887 5.002,11.258 5.012,11.767 5.080 C 12.265 5.146,12.767 5.256,13.234 5.400 L 13.577 5.506 12.330 6.753 L 11.084 8.000 10.800 8.000 C 10.412 8.001,9.593 8.059,9.350 8.103 C 8.779 8.206,7.982 8.549,7.384 8.948 C 6.722 9.390,6.333 9.774,6.234 10.080 C 6.141 10.365,6.259 10.802,6.493 11.044 C 6.646 11.203,6.795 11.281,7.040 11.331 C 7.259 11.377,7.411 11.355,7.663 11.245 C 7.763 11.201,7.850 11.172,7.857 11.179 C 7.865 11.187,7.168 11.903,6.310 12.771 C 4.119 14.988,3.653 15.475,3.584 15.619 C 3.505 15.786,3.503 16.198,3.581 16.383 C 3.658 16.567,3.910 16.815,4.114 16.905 C 4.236 16.960,4.348 16.981,4.517 16.982 C 4.716 16.983,4.774 16.969,4.916 16.886 C 5.022 16.824,5.989 15.891,7.566 14.331 C 10.838 11.095,16.628 5.284,17.059 4.803 C 17.411 4.410,17.500 4.246,17.500 3.983 C 17.500 3.671,17.282 3.324,16.972 3.141 C 16.832 3.059,16.785 3.050,16.500 3.050 C 16.214 3.050,16.168 3.059,16.025 3.143 C 15.939 3.194,15.688 3.408,15.469 3.620 L 15.071 4.004 14.934 3.933 C 14.148 3.533,12.621 3.150,11.483 3.068 C 10.859 3.023,9.670 3.031,9.217 3.084 M10.312 14.408 C 8.987 15.718,8.751 15.975,8.796 16.060 C 8.845 16.151,9.270 16.564,9.427 16.673 C 9.617 16.805,10.032 16.952,10.291 16.981 C 10.545 17.008,10.983 16.952,11.209 16.863 C 11.741 16.653,12.230 16.123,12.402 15.568 C 12.595 14.947,12.453 14.254,12.026 13.732 C 11.890 13.567,11.544 13.267,11.489 13.267 C 11.477 13.267,10.948 13.780,10.312 14.408 " fill="#1A1C1F" stroke="none" fill-rule="evenodd"></path></svg>