<svg width="16" height="16" viewBox="0 0 16 16" fill="none" xmlns="http://www.w3.org/2000/svg"><path d="M5.453 2.642 C 4.982 2.756,4.757 2.893,4.683 3.111 C 4.625 3.279,4.628 3.307,4.717 3.531 C 4.843 3.844,5.639 5.350,5.754 5.493 L 5.803 5.553 6.468 5.349 C 7.298 5.094,8.293 4.774,8.293 4.763 C 8.293 4.753,6.749 3.296,6.453 3.027 C 6.344 2.927,6.188 2.796,6.109 2.736 C 5.972 2.632,5.954 2.626,5.762 2.621 C 5.651 2.618,5.512 2.628,5.453 2.642 M10.680 5.159 C 10.277 5.234,10.046 5.303,6.640 6.359 C 5.489 6.716,4.422 7.047,4.270 7.093 L 3.993 7.178 3.843 7.036 C 3.761 6.958,3.525 6.731,3.320 6.532 C 2.632 5.864,2.500 5.767,2.329 5.799 C 2.170 5.829,1.797 6.000,1.723 6.077 C 1.596 6.209,1.603 6.281,1.801 6.882 C 2.223 8.165,2.844 9.894,2.947 10.069 C 3.118 10.361,3.444 10.656,3.768 10.811 C 4.036 10.939,4.266 10.994,4.533 10.993 C 4.797 10.992,4.930 10.960,6.051 10.627 C 6.480 10.500,6.862 10.394,6.902 10.391 L 6.973 10.387 6.993 11.213 C 7.003 11.668,7.023 12.282,7.035 12.579 C 7.058 13.102,7.060 13.120,7.128 13.209 C 7.235 13.349,7.408 13.422,7.580 13.400 C 7.769 13.376,8.010 13.311,8.178 13.238 C 8.390 13.146,8.343 13.223,9.717 10.709 L 10.531 9.218 11.459 8.928 C 13.441 8.308,13.671 8.217,13.977 7.926 C 14.193 7.721,14.268 7.596,14.336 7.332 C 14.390 7.121,14.375 6.863,14.295 6.591 L 14.238 6.400 14.125 6.400 C 13.980 6.400,13.826 6.444,12.769 6.783 C 12.289 6.937,11.813 7.086,11.710 7.115 L 11.523 7.168 11.438 6.937 C 11.295 6.548,11.150 6.096,11.162 6.076 C 11.169 6.066,11.582 5.922,12.080 5.758 C 12.579 5.593,12.987 5.449,12.987 5.439 C 12.987 5.410,12.752 5.315,12.531 5.255 C 12.084 5.133,11.099 5.082,10.680 5.159 M10.041 6.759 C 10.198 6.878,10.276 7.023,10.288 7.212 C 10.301 7.415,10.242 7.548,10.077 7.689 C 9.777 7.946,9.366 7.849,9.185 7.478 C 9.125 7.356,9.115 7.309,9.129 7.196 C 9.157 6.956,9.313 6.765,9.540 6.692 C 9.581 6.679,9.688 6.672,9.780 6.678 C 9.911 6.685,9.967 6.703,10.041 6.759 M7.972 7.332 C 8.105 7.401,8.261 7.585,8.283 7.699 C 8.355 8.086,8.127 8.408,7.755 8.444 C 7.568 8.462,7.356 8.359,7.242 8.193 C 7.046 7.910,7.170 7.453,7.480 7.317 C 7.603 7.263,7.851 7.271,7.972 7.332 M6.004 7.950 C 6.307 8.101,6.401 8.501,6.203 8.794 C 5.957 9.158,5.415 9.114,5.215 8.713 C 5.043 8.368,5.235 7.965,5.603 7.897 C 5.749 7.870,5.879 7.887,6.004 7.950 " fill="#1A1C1F" stroke="none" fill-rule="evenodd"></path></svg>