<svg width="28" height="28" viewBox="0 0 28 28" fill="none" xmlns="http://www.w3.org/2000/svg"><path d="M9.710 3.737 C 9.120 3.854,8.493 4.159,8.211 4.465 C 7.967 4.729,7.758 5.174,7.719 5.514 C 7.681 5.839,7.782 6.199,8.125 6.961 C 8.786 8.435,9.155 8.989,9.542 9.094 C 9.876 9.185,10.275 8.995,10.488 8.643 C 10.673 8.338,10.634 8.189,10.023 6.860 C 9.511 5.745,9.479 5.655,9.568 5.599 C 9.666 5.538,10.013 5.491,10.138 5.523 C 10.196 5.537,10.779 6.067,11.433 6.699 C 12.088 7.332,12.714 7.903,12.824 7.967 C 12.980 8.059,13.068 8.080,13.223 8.063 C 13.502 8.031,13.751 7.901,13.898 7.709 C 14.005 7.568,14.023 7.499,14.023 7.232 C 14.023 6.927,14.019 6.915,13.791 6.645 C 13.664 6.494,13.076 5.884,12.485 5.291 C 11.410 4.211,10.996 3.872,10.644 3.784 C 10.370 3.715,9.931 3.693,9.710 3.737 M19.811 7.609 C 19.010 7.693,18.514 7.834,13.043 9.535 C 11.272 10.086,9.387 10.667,8.853 10.827 L 7.883 11.116 7.710 11.002 C 7.615 10.938,7.180 10.608,6.743 10.267 C 5.761 9.499,5.196 9.122,4.887 9.031 C 4.150 8.812,2.881 9.132,2.289 9.686 C 2.146 9.820,1.993 10.028,1.901 10.214 C 1.773 10.475,1.750 10.571,1.753 10.849 C 1.756 11.224,1.926 11.755,2.985 14.700 C 4.105 17.816,4.242 18.106,4.897 18.764 C 5.345 19.213,5.733 19.492,6.224 19.717 C 6.767 19.965,7.098 20.025,7.948 20.030 C 8.793 20.034,8.561 20.085,10.747 19.419 C 11.178 19.287,11.568 19.180,11.615 19.180 C 11.690 19.180,11.702 19.245,11.729 19.817 C 11.746 20.168,11.761 20.761,11.763 21.136 C 11.764 21.510,11.782 22.101,11.801 22.449 C 11.834 23.023,11.849 23.103,11.973 23.331 C 12.260 23.858,12.714 24.184,13.271 24.263 C 13.860 24.346,14.648 24.164,15.097 23.842 C 15.447 23.590,15.517 23.476,17.243 20.323 C 18.981 17.148,19.128 16.895,19.294 16.794 C 19.372 16.746,20.434 16.379,21.653 15.978 C 24.037 15.195,24.309 15.090,24.693 14.805 C 25.685 14.067,26.240 13.000,26.240 11.830 C 26.240 9.744,24.562 8.089,22.027 7.677 C 21.469 7.586,20.360 7.552,19.811 7.609 M22.120 9.490 C 22.685 9.622,23.067 9.756,23.073 9.823 C 23.075 9.849,22.772 9.976,22.400 10.106 C 21.211 10.519,21.023 10.668,21.023 11.195 C 21.023 11.467,21.041 11.534,21.151 11.678 C 21.331 11.915,21.568 12.048,21.805 12.047 C 22.002 12.046,22.145 12.008,23.497 11.599 C 23.882 11.482,24.258 11.387,24.332 11.387 L 24.467 11.387 24.436 11.786 C 24.406 12.188,24.281 12.644,24.140 12.873 C 23.999 13.101,23.685 13.400,23.473 13.508 C 23.206 13.644,22.557 13.865,20.440 14.539 C 18.083 15.290,18.058 15.300,17.859 15.601 C 17.658 15.904,17.170 16.781,15.478 19.880 C 14.742 21.228,14.122 22.357,14.101 22.391 C 14.079 22.424,13.953 22.480,13.821 22.515 L 13.580 22.578 13.577 22.407 C 13.576 22.314,13.558 21.207,13.538 19.949 C 13.496 17.346,13.506 17.411,13.123 17.186 C 12.762 16.975,12.719 16.983,10.407 17.688 C 8.587 18.243,8.381 18.293,7.934 18.293 C 7.701 18.293,7.423 18.262,7.277 18.219 C 6.625 18.027,5.974 17.523,5.726 17.017 C 5.520 16.596,4.442 13.640,3.827 11.812 C 3.597 11.128,3.551 10.946,3.601 10.913 C 3.635 10.891,3.807 10.828,3.984 10.773 C 4.278 10.683,4.316 10.680,4.452 10.745 C 4.585 10.809,4.872 11.027,6.595 12.378 C 6.881 12.603,7.221 12.842,7.349 12.909 L 7.584 13.032 7.957 12.931 C 8.453 12.796,9.307 12.533,13.826 11.125 C 17.981 9.830,19.253 9.453,19.703 9.384 C 19.865 9.359,20.364 9.347,20.813 9.356 C 21.473 9.371,21.724 9.397,22.120 9.490 M17.090 11.457 C 16.843 11.564,16.492 11.959,16.402 12.231 C 16.220 12.779,16.507 13.378,17.098 13.684 C 17.361 13.820,17.825 13.821,18.083 13.686 C 18.298 13.573,18.578 13.294,18.681 13.088 C 18.863 12.726,18.812 12.225,18.558 11.887 C 18.341 11.599,17.902 11.386,17.528 11.388 C 17.371 11.389,17.174 11.420,17.090 11.457 M13.463 12.641 C 13.110 12.733,12.766 13.034,12.604 13.393 C 12.490 13.644,12.484 13.812,12.575 14.120 C 12.844 15.025,13.863 15.316,14.550 14.683 C 14.847 14.409,14.953 14.180,14.953 13.813 C 14.953 13.166,14.510 12.698,13.833 12.629 C 13.707 12.616,13.540 12.621,13.463 12.641 M9.308 13.996 C 9.044 14.147,8.865 14.380,8.754 14.713 C 8.661 14.995,8.661 15.098,8.759 15.399 C 8.904 15.849,9.476 16.287,9.917 16.285 C 10.476 16.283,11.068 15.720,11.138 15.122 C 11.162 14.920,11.146 14.845,11.018 14.585 C 10.852 14.248,10.573 13.978,10.316 13.907 C 10.225 13.881,10.014 13.861,9.847 13.861 C 9.598 13.861,9.501 13.885,9.308 13.996 " fill="#1A1C1F" stroke="none" fill-rule="evenodd"></path></svg>