<svg width="14" height="14" viewBox="0 0 14 14" fill="none" xmlns="http://www.w3.org/2000/svg"><path d="M5.157 2.163 C 5.012 2.180,4.753 2.266,4.590 2.350 C 4.312 2.496,4.116 2.766,4.028 3.128 C 3.948 3.452,3.950 3.459,4.642 4.921 C 4.795 5.245,4.849 5.381,4.831 5.399 C 4.817 5.412,4.614 5.484,4.380 5.557 L 3.955 5.691 3.617 5.358 C 3.239 4.988,3.117 4.884,2.963 4.804 C 2.868 4.755,2.828 4.749,2.532 4.749 L 2.205 4.748 2.030 4.842 C 1.920 4.900,1.793 4.996,1.689 5.098 C 1.547 5.239,1.516 5.284,1.469 5.425 C 1.428 5.545,1.413 5.640,1.413 5.787 C 1.413 5.965,1.425 6.020,1.533 6.335 C 1.747 6.955,2.307 8.514,2.395 8.735 C 2.596 9.240,3.005 9.661,3.496 9.870 C 3.783 9.992,4.035 10.042,4.363 10.041 C 4.672 10.041,4.618 10.051,5.408 9.835 C 5.539 9.799,5.652 9.775,5.659 9.782 C 5.666 9.789,5.682 10.052,5.693 10.368 C 5.705 10.683,5.726 10.986,5.741 11.041 C 5.819 11.335,6.052 11.611,6.342 11.754 C 6.518 11.841,6.522 11.842,6.801 11.841 C 7.057 11.839,7.098 11.833,7.273 11.767 C 7.641 11.627,7.792 11.490,8.035 11.076 C 8.160 10.864,8.874 9.569,9.230 8.909 L 9.415 8.567 9.812 8.445 C 10.523 8.227,11.349 7.953,11.496 7.886 C 11.785 7.756,12.051 7.541,12.248 7.279 C 12.504 6.939,12.628 6.502,12.577 6.120 C 12.482 5.404,11.954 4.806,11.085 4.432 C 10.624 4.233,10.205 4.154,9.613 4.154 C 9.127 4.153,8.898 4.181,8.447 4.296 L 8.086 4.388 7.327 3.633 C 6.130 2.442,5.911 2.249,5.697 2.196 C 5.594 2.170,5.269 2.151,5.157 2.163 M10.367 5.655 C 10.962 5.859,11.249 6.142,11.139 6.416 C 11.075 6.577,11.125 6.556,9.459 7.091 C 8.720 7.328,8.487 7.425,8.412 7.523 C 8.342 7.614,8.119 8.006,7.660 8.843 C 7.467 9.196,7.267 9.557,7.216 9.644 L 7.124 9.803 7.109 9.623 C 7.100 9.524,7.093 9.316,7.093 9.161 C 7.092 8.827,7.062 8.567,7.013 8.473 C 6.955 8.361,6.834 8.256,6.677 8.183 C 6.453 8.078,6.288 8.096,5.635 8.296 C 4.587 8.616,4.502 8.638,4.327 8.639 C 4.022 8.639,3.840 8.515,3.704 8.216 C 3.593 7.971,3.259 7.047,3.276 7.030 C 3.281 7.025,3.347 7.053,3.423 7.093 C 3.506 7.137,3.611 7.171,3.688 7.178 C 3.826 7.192,4.003 7.141,6.137 6.475 C 8.513 5.732,8.820 5.639,8.995 5.610 C 9.123 5.589,9.340 5.581,9.683 5.585 C 10.157 5.592,10.195 5.596,10.367 5.655 " fill="#1A1C1F" stroke="none" fill-rule="evenodd"></path></svg>