<svg width="24" height="24" viewBox="0 0 24 24" fill="none" xmlns="http://www.w3.org/2000/svg"><path d="M8.608 3.246 C 8.056 3.325,7.509 3.610,7.125 4.021 C 6.811 4.357,6.697 4.683,6.731 5.155 C 6.764 5.616,7.077 6.392,7.620 7.360 C 7.998 8.034,8.202 8.204,8.640 8.214 C 9.158 8.226,9.640 7.772,9.640 7.272 C 9.640 7.093,9.477 6.646,9.170 5.980 C 9.018 5.650,8.880 5.344,8.864 5.300 C 8.834 5.216,8.961 5.332,9.900 6.243 C 10.965 7.276,11.103 7.374,11.485 7.370 C 11.921 7.367,12.295 7.088,12.418 6.675 C 12.549 6.234,12.490 6.072,12.000 5.529 C 11.532 5.009,10.409 3.920,10.008 3.596 C 9.605 3.271,9.181 3.165,8.608 3.246 M15.940 7.004 C 15.287 7.072,15.045 7.141,10.211 8.645 L 7.122 9.606 6.491 9.108 C 5.268 8.142,5.031 7.998,4.529 7.916 C 3.828 7.801,2.828 8.132,2.343 8.640 C 1.965 9.037,1.788 9.542,1.880 9.958 C 1.946 10.254,2.416 11.630,3.022 13.304 C 3.627 14.975,3.815 15.453,3.948 15.660 C 4.573 16.629,5.529 17.233,6.642 17.362 C 7.306 17.439,7.567 17.402,8.756 17.061 C 9.336 16.894,9.817 16.764,9.824 16.771 C 9.836 16.782,9.892 18.046,9.932 19.202 C 9.943 19.513,9.958 19.568,10.099 19.822 C 10.475 20.495,11.107 20.850,11.813 20.784 C 12.314 20.738,12.885 20.494,13.209 20.188 C 13.430 19.980,13.742 19.440,15.540 16.152 L 16.340 14.689 17.120 14.442 C 18.378 14.044,19.837 13.559,20.159 13.432 C 20.545 13.279,20.732 13.139,21.221 12.634 C 21.820 12.015,22.063 11.486,22.107 10.700 C 22.137 10.180,22.078 9.821,21.901 9.448 C 21.347 8.281,20.081 7.428,18.450 7.122 C 17.637 6.969,16.701 6.925,15.940 7.004 M17.484 9.121 C 17.177 9.545,17.239 10.140,17.625 10.479 C 17.979 10.790,18.195 10.788,19.181 10.470 C 20.168 10.151,20.066 10.152,20.099 10.464 C 20.125 10.710,20.119 10.743,19.994 10.988 C 19.840 11.288,19.668 11.454,19.382 11.580 C 19.271 11.629,18.265 11.970,17.147 12.338 C 15.201 12.977,15.108 13.013,14.967 13.159 C 14.813 13.319,14.413 14.018,13.099 16.420 C 12.666 17.212,12.237 17.986,12.147 18.140 L 11.982 18.420 11.954 18.240 C 11.939 18.141,11.924 17.655,11.923 17.160 C 11.919 16.163,11.863 15.227,11.794 14.995 C 11.707 14.707,11.382 14.466,11.016 14.419 C 10.749 14.386,10.481 14.449,9.000 14.893 C 7.473 15.351,7.185 15.419,6.895 15.385 C 6.448 15.332,5.978 15.063,5.745 14.727 C 5.619 14.545,5.405 14.002,4.773 12.260 C 4.209 10.706,3.961 9.972,3.990 9.944 C 4.043 9.890,4.256 9.926,4.374 10.008 C 4.443 10.056,4.851 10.368,5.280 10.701 C 6.171 11.393,6.478 11.606,6.689 11.682 C 6.827 11.732,6.880 11.724,7.389 11.584 C 7.692 11.501,9.362 10.995,11.100 10.460 C 14.369 9.454,15.358 9.157,15.700 9.077 C 15.974 9.014,16.482 8.973,17.090 8.966 L 17.601 8.960 17.484 9.121 M14.505 9.921 C 14.239 10.001,13.950 10.285,13.842 10.573 C 13.698 10.956,13.908 11.473,14.303 11.704 C 14.706 11.940,15.089 11.901,15.429 11.588 C 15.731 11.309,15.841 10.955,15.736 10.598 C 15.591 10.104,14.993 9.775,14.505 9.921 M11.388 10.918 C 11.211 10.953,10.916 11.217,10.798 11.446 C 10.605 11.819,10.680 12.244,10.992 12.555 C 11.381 12.943,11.940 12.948,12.333 12.568 C 12.561 12.348,12.654 12.144,12.654 11.860 C 12.654 11.234,12.053 10.788,11.388 10.918 M8.360 11.917 C 7.903 12.011,7.513 12.526,7.571 12.959 C 7.659 13.619,8.401 14.040,8.981 13.759 C 9.422 13.546,9.676 12.955,9.504 12.543 C 9.428 12.361,9.177 12.090,9.003 12.002 C 8.830 11.915,8.550 11.878,8.360 11.917 " fill="#1A1C1F" stroke="none" fill-rule="evenodd"></path></svg>