<svg width="14" height="14" viewBox="0 0 14 14" fill="none" xmlns="http://www.w3.org/2000/svg"><path d="M4.833 2.298 C 4.633 2.343,4.468 2.398,4.336 2.465 C 4.154 2.555,4.047 2.744,4.075 2.922 C 4.092 3.028,4.411 3.684,4.748 4.305 C 5.054 4.870,5.043 4.855,5.151 4.826 C 5.466 4.742,7.049 4.251,7.194 4.192 L 7.260 4.165 6.704 3.639 C 5.668 2.658,5.357 2.377,5.245 2.319 C 5.147 2.269,4.998 2.261,4.833 2.298 M9.520 4.491 C 9.119 4.542,8.941 4.593,5.973 5.514 C 4.838 5.867,3.815 6.184,3.701 6.218 L 3.494 6.281 3.363 6.155 C 3.291 6.086,3.058 5.862,2.847 5.657 C 2.635 5.451,2.399 5.237,2.323 5.179 C 2.147 5.046,2.058 5.044,1.771 5.166 C 1.537 5.266,1.448 5.347,1.431 5.476 C 1.416 5.582,1.591 6.122,2.088 7.513 C 2.460 8.556,2.530 8.731,2.633 8.890 C 2.881 9.269,3.302 9.530,3.798 9.613 C 4.056 9.656,4.113 9.644,5.386 9.271 C 5.770 9.158,6.078 9.080,6.088 9.091 C 6.099 9.102,6.120 9.616,6.135 10.232 C 6.151 10.848,6.169 11.387,6.176 11.431 C 6.194 11.535,6.339 11.679,6.465 11.717 C 6.548 11.741,6.594 11.740,6.763 11.705 C 7.057 11.644,7.280 11.534,7.367 11.407 C 7.452 11.283,7.732 10.780,8.572 9.242 L 9.215 8.066 10.027 7.812 C 11.761 7.270,11.962 7.190,12.230 6.935 C 12.491 6.687,12.595 6.427,12.569 6.090 C 12.554 5.901,12.478 5.644,12.423 5.598 C 12.379 5.562,12.220 5.601,11.597 5.800 C 10.476 6.159,10.096 6.277,10.087 6.268 C 10.073 6.254,9.834 5.584,9.792 5.443 C 9.759 5.329,9.759 5.319,9.795 5.300 C 9.817 5.289,10.179 5.166,10.600 5.028 C 11.021 4.890,11.362 4.766,11.357 4.754 C 11.353 4.741,11.299 4.711,11.238 4.687 C 10.824 4.524,10.001 4.430,9.520 4.491 M8.746 5.894 C 8.950 5.995,9.047 6.233,8.985 6.480 C 8.947 6.631,8.868 6.727,8.723 6.799 C 8.519 6.901,8.315 6.865,8.148 6.698 C 8.036 6.586,7.995 6.491,7.993 6.347 C 7.989 5.957,8.389 5.716,8.746 5.894 M7.040 6.454 C 7.200 6.554,7.262 6.684,7.252 6.899 C 7.242 7.116,7.165 7.237,6.977 7.334 C 6.868 7.390,6.829 7.398,6.723 7.388 C 6.232 7.341,6.081 6.700,6.496 6.427 C 6.570 6.379,6.736 6.353,6.843 6.372 C 6.891 6.380,6.980 6.417,7.040 6.454 M5.240 6.951 C 5.431 7.037,5.549 7.265,5.516 7.483 C 5.482 7.716,5.259 7.914,5.033 7.914 C 4.846 7.914,4.645 7.790,4.558 7.623 C 4.508 7.527,4.493 7.347,4.526 7.246 C 4.559 7.146,4.671 7.011,4.772 6.950 C 4.867 6.892,5.111 6.892,5.240 6.951 " fill="#1A1C1F" stroke="none" fill-rule="evenodd"></path></svg>