<svg width="20" height="20" viewBox="0 0 20 20" fill="none" xmlns="http://www.w3.org/2000/svg"><path d="M6.993 3.271 C 6.906 3.284,6.684 3.341,6.500 3.398 C 6.228 3.483,6.140 3.527,6.036 3.630 C 5.879 3.788,5.784 4.021,5.813 4.177 C 5.853 4.391,6.989 6.609,7.182 6.852 L 7.253 6.941 8.085 6.686 C 8.542 6.545,9.247 6.324,9.650 6.194 L 10.383 5.958 10.083 5.674 C 8.200 3.891,7.702 3.439,7.517 3.341 C 7.381 3.270,7.183 3.243,6.993 3.271 M13.683 6.402 C 13.128 6.463,12.812 6.551,9.717 7.512 C 8.507 7.887,6.948 8.369,6.254 8.583 L 4.991 8.972 4.837 8.825 C 4.753 8.744,4.417 8.422,4.092 8.110 C 3.767 7.798,3.416 7.477,3.312 7.396 C 3.147 7.269,3.102 7.251,2.969 7.254 C 2.775 7.259,2.275 7.469,2.152 7.597 C 1.988 7.769,1.999 7.867,2.277 8.700 C 2.549 9.516,3.329 11.716,3.532 12.238 C 3.730 12.749,4.071 13.157,4.518 13.419 C 4.731 13.544,5.152 13.688,5.441 13.734 C 5.804 13.793,5.920 13.767,7.744 13.230 C 8.236 13.085,8.651 12.967,8.666 12.967 C 8.721 12.967,8.737 13.241,8.766 14.717 C 8.784 15.675,8.809 16.265,8.834 16.350 C 8.885 16.523,9.008 16.652,9.193 16.722 C 9.321 16.771,9.373 16.773,9.562 16.741 C 9.838 16.693,10.182 16.582,10.325 16.494 C 10.505 16.384,10.547 16.312,12.246 13.203 L 13.164 11.523 14.324 11.159 C 15.962 10.646,16.738 10.382,17.012 10.244 C 17.304 10.097,17.717 9.698,17.831 9.451 C 17.983 9.122,17.994 8.644,17.861 8.208 L 17.797 8.000 17.653 8.000 C 17.490 8.000,17.185 8.086,15.950 8.482 C 15.473 8.635,14.948 8.801,14.783 8.851 C 14.618 8.901,14.466 8.949,14.446 8.956 C 14.406 8.971,14.288 8.675,14.065 8.001 C 13.995 7.791,13.945 7.608,13.953 7.595 C 13.962 7.581,14.478 7.404,15.101 7.200 C 15.724 6.996,16.233 6.814,16.233 6.796 C 16.233 6.712,15.557 6.524,15.000 6.454 C 14.462 6.386,13.995 6.368,13.683 6.402 M12.383 8.370 C 12.569 8.421,12.816 8.679,12.844 8.853 C 12.884 9.091,12.868 9.220,12.775 9.402 C 12.579 9.789,12.132 9.906,11.757 9.668 C 11.500 9.505,11.370 9.200,11.434 8.913 C 11.532 8.479,11.935 8.248,12.383 8.370 M9.960 9.164 C 10.106 9.239,10.237 9.374,10.316 9.530 C 10.404 9.704,10.375 10.050,10.258 10.227 C 9.954 10.686,9.280 10.655,9.026 10.171 C 8.763 9.667,9.087 9.106,9.643 9.101 C 9.770 9.101,9.878 9.122,9.960 9.164 M7.428 9.907 C 7.573 9.951,7.765 10.121,7.822 10.257 C 7.846 10.316,7.867 10.470,7.867 10.600 C 7.867 10.875,7.785 11.032,7.560 11.188 C 7.367 11.322,7.046 11.339,6.833 11.226 C 6.460 11.028,6.327 10.525,6.556 10.178 C 6.761 9.867,7.027 9.785,7.428 9.907 " fill="#1A1C1F" stroke="none" fill-rule="evenodd"></path></svg>