<svg width="12" height="12" viewBox="0 0 12 12" fill="none" xmlns="http://www.w3.org/2000/svg"><path d="M4.390 1.860 C 4.052 1.911,3.749 2.087,3.601 2.319 C 3.527 2.433,3.444 2.670,3.427 2.812 C 3.408 2.976,3.476 3.156,3.889 4.027 C 4.038 4.342,4.160 4.604,4.160 4.609 C 4.160 4.631,4.057 4.670,3.733 4.771 L 3.391 4.878 3.101 4.594 C 2.774 4.274,2.670 4.186,2.540 4.118 C 2.458 4.075,2.425 4.071,2.178 4.070 L 1.907 4.070 1.757 4.146 C 1.394 4.330,1.235 4.554,1.207 4.920 C 1.196 5.060,1.201 5.088,1.287 5.342 C 1.540 6.099,2.061 7.523,2.141 7.680 C 2.337 8.065,2.780 8.415,3.242 8.549 C 3.402 8.595,3.724 8.619,3.921 8.599 C 4.014 8.589,4.250 8.536,4.445 8.481 C 4.641 8.425,4.813 8.380,4.827 8.380 C 4.860 8.380,4.880 8.580,4.881 8.938 C 4.882 9.322,4.904 9.459,4.990 9.633 C 5.087 9.830,5.232 9.974,5.433 10.073 C 5.587 10.150,5.589 10.150,5.829 10.149 C 6.049 10.148,6.084 10.143,6.234 10.086 C 6.447 10.005,6.607 9.897,6.708 9.767 C 6.813 9.631,7.019 9.272,7.600 8.206 L 8.070 7.345 8.660 7.160 C 9.420 6.923,9.873 6.761,10.014 6.677 C 10.159 6.590,10.440 6.325,10.550 6.171 C 10.598 6.104,10.666 5.978,10.702 5.890 C 10.763 5.741,10.768 5.711,10.776 5.453 C 10.785 5.130,10.771 5.059,10.650 4.810 C 10.339 4.171,9.604 3.707,8.700 3.580 C 8.457 3.546,7.952 3.551,7.690 3.590 C 7.569 3.608,7.349 3.654,7.201 3.692 L 6.931 3.761 6.271 3.104 C 5.254 2.093,5.067 1.928,4.883 1.882 C 4.774 1.855,4.504 1.843,4.390 1.860 M8.827 4.828 C 8.978 4.870,9.208 4.977,9.349 5.070 C 9.541 5.198,9.622 5.412,9.532 5.551 C 9.479 5.631,9.318 5.694,8.579 5.927 C 7.386 6.303,7.279 6.346,7.184 6.485 C 7.120 6.579,6.872 7.019,6.505 7.690 C 6.373 7.932,6.229 8.191,6.185 8.266 L 6.106 8.402 6.093 8.248 C 6.086 8.163,6.080 7.985,6.079 7.852 C 6.079 7.566,6.053 7.343,6.011 7.262 C 5.964 7.170,5.865 7.083,5.733 7.017 C 5.535 6.917,5.430 6.932,4.610 7.176 C 4.236 7.288,3.882 7.389,3.823 7.402 C 3.560 7.457,3.311 7.324,3.187 7.061 C 3.092 6.862,2.791 6.042,2.807 6.026 C 2.811 6.023,2.867 6.047,2.932 6.080 C 3.113 6.173,3.214 6.177,3.472 6.100 C 3.812 6.000,4.688 5.729,5.900 5.350 C 7.230 4.935,7.523 4.846,7.686 4.809 C 7.862 4.769,8.661 4.782,8.827 4.828 " fill="#1A1C1F" stroke="none" fill-rule="evenodd"></path></svg>