<svg width="20" height="20" viewBox="0 0 20 20" fill="none" xmlns="http://www.w3.org/2000/svg"><path d="M7.317 3.100 C 7.104 3.132,6.777 3.244,6.534 3.366 C 6.159 3.556,5.854 3.997,5.743 4.512 C 5.690 4.758,5.690 4.788,5.743 4.989 C 5.826 5.307,5.944 5.583,6.463 6.674 C 6.721 7.219,6.933 7.672,6.933 7.681 C 6.933 7.716,6.784 7.773,6.229 7.948 L 5.653 8.131 5.168 7.656 C 4.302 6.810,4.261 6.786,3.631 6.785 L 3.178 6.783 2.929 6.909 C 2.323 7.217,2.059 7.588,2.011 8.203 C 1.992 8.444,1.999 8.478,2.166 8.969 C 2.687 10.499,3.428 12.522,3.570 12.806 C 3.906 13.474,4.664 14.050,5.500 14.269 C 5.712 14.325,5.884 14.345,6.183 14.347 C 6.612 14.350,6.651 14.343,7.475 14.113 C 7.764 14.033,8.021 13.967,8.046 13.967 C 8.100 13.967,8.133 14.300,8.134 14.847 C 8.135 15.476,8.181 15.782,8.315 16.054 C 8.473 16.372,8.733 16.630,9.060 16.792 C 9.311 16.916,9.317 16.917,9.715 16.915 C 10.082 16.914,10.141 16.904,10.390 16.810 C 10.915 16.610,11.131 16.415,11.478 15.823 C 11.664 15.506,12.450 14.083,13.085 12.911 L 13.450 12.239 14.017 12.065 C 14.836 11.814,16.111 11.387,16.389 11.272 C 17.202 10.935,17.877 10.090,17.967 9.297 C 18.138 7.802,16.875 6.466,14.884 6.035 C 13.992 5.842,13.008 5.887,11.936 6.170 L 11.555 6.271 10.452 5.175 C 8.757 3.488,8.445 3.214,8.139 3.137 C 7.957 3.092,7.506 3.071,7.317 3.100 M14.810 8.078 C 15.546 8.330,15.939 8.654,15.947 9.013 C 15.953 9.308,15.828 9.389,14.900 9.686 C 12.178 10.555,12.134 10.572,11.976 10.804 C 11.867 10.965,11.458 11.690,10.842 12.817 C 10.360 13.698,10.168 14.028,10.166 13.983 C 10.165 13.965,10.151 13.580,10.135 13.128 C 10.102 12.203,10.082 12.118,9.846 11.895 C 9.649 11.708,9.450 11.620,9.197 11.605 C 8.936 11.591,8.816 11.620,7.500 12.015 C 6.321 12.370,6.177 12.397,5.912 12.314 C 5.647 12.231,5.431 12.026,5.284 11.719 C 5.166 11.470,4.656 10.066,4.677 10.045 C 4.684 10.038,4.778 10.079,4.887 10.135 C 5.005 10.195,5.159 10.244,5.267 10.255 C 5.474 10.275,5.505 10.266,9.767 8.939 C 12.792 7.996,12.665 8.034,12.908 8.000 C 13.023 7.984,13.439 7.975,13.833 7.980 C 14.511 7.989,14.564 7.994,14.810 8.078 " fill="#1A1C1F" stroke="none" fill-rule="evenodd"></path></svg>