<svg width="12" height="12" viewBox="0 0 12 12" fill="none" xmlns="http://www.w3.org/2000/svg"><path d="M3.984 2.011 C 3.671 2.104,3.553 2.192,3.499 2.374 C 3.478 2.445,3.480 2.473,3.509 2.564 C 3.565 2.739,4.210 3.982,4.310 4.108 L 4.350 4.159 4.659 4.068 C 5.042 3.956,6.159 3.603,6.196 3.582 C 6.215 3.571,6.002 3.359,5.486 2.875 C 4.707 2.143,4.589 2.038,4.488 1.990 C 4.392 1.945,4.179 1.954,3.984 2.011 M7.999 3.871 C 7.766 3.913,7.242 4.068,5.250 4.686 C 4.238 4.999,3.317 5.285,3.202 5.320 L 2.995 5.383 2.892 5.286 C 2.836 5.233,2.641 5.045,2.460 4.868 C 2.104 4.523,1.962 4.402,1.861 4.360 C 1.805 4.337,1.781 4.339,1.683 4.369 C 1.621 4.388,1.506 4.434,1.429 4.469 C 1.279 4.538,1.220 4.611,1.220 4.729 C 1.220 4.819,1.911 6.827,2.131 7.376 C 2.242 7.653,2.456 7.902,2.711 8.051 C 2.839 8.126,3.091 8.213,3.265 8.241 C 3.483 8.276,3.552 8.260,4.649 7.937 C 4.945 7.850,5.198 7.783,5.212 7.788 C 5.229 7.794,5.239 7.990,5.249 8.513 C 5.257 8.908,5.270 9.367,5.278 9.534 C 5.293 9.820,5.296 9.842,5.346 9.907 C 5.375 9.945,5.441 9.996,5.492 10.021 C 5.579 10.063,5.596 10.065,5.728 10.044 C 5.885 10.020,6.136 9.941,6.210 9.892 C 6.298 9.834,6.350 9.744,7.311 7.990 C 7.540 7.572,7.768 7.159,7.819 7.071 L 7.910 6.912 8.770 6.641 C 9.698 6.348,10.045 6.228,10.226 6.137 C 10.369 6.065,10.617 5.833,10.675 5.716 C 10.790 5.485,10.806 5.228,10.721 4.943 L 10.678 4.800 10.590 4.800 C 10.496 4.800,10.301 4.855,9.570 5.090 C 8.826 5.328,8.654 5.380,8.646 5.372 C 8.634 5.361,8.428 4.785,8.393 4.665 C 8.365 4.568,8.365 4.559,8.396 4.543 C 8.415 4.533,8.725 4.428,9.085 4.310 C 9.445 4.191,9.740 4.088,9.740 4.080 C 9.740 4.058,9.566 3.987,9.398 3.941 C 9.059 3.848,8.327 3.812,7.999 3.871 M7.524 5.065 C 7.726 5.184,7.780 5.513,7.629 5.713 C 7.566 5.796,7.395 5.880,7.291 5.880 C 7.140 5.879,6.966 5.764,6.885 5.613 C 6.840 5.528,6.842 5.350,6.889 5.254 C 6.934 5.160,7.028 5.064,7.109 5.027 C 7.204 4.983,7.418 5.003,7.524 5.065 M6.001 5.513 C 6.140 5.588,6.206 5.693,6.216 5.850 C 6.221 5.919,6.214 6.009,6.200 6.049 C 6.149 6.206,5.999 6.315,5.812 6.333 C 5.727 6.341,5.691 6.334,5.600 6.287 C 5.450 6.209,5.375 6.100,5.364 5.939 C 5.350 5.741,5.438 5.581,5.610 5.491 C 5.708 5.441,5.887 5.451,6.001 5.513 M4.476 5.951 C 4.650 6.024,4.759 6.221,4.731 6.411 C 4.713 6.533,4.610 6.677,4.500 6.735 C 4.427 6.774,4.387 6.782,4.287 6.776 C 3.840 6.749,3.706 6.191,4.090 5.957 C 4.166 5.911,4.371 5.907,4.476 5.951 " fill="#1A1C1F" stroke="none" fill-rule="evenodd"></path></svg>