<svg width="16" height="16" viewBox="0 0 16 16" fill="none" xmlns="http://www.w3.org/2000/svg"><path d="M5.880 2.472 C 5.715 2.495,5.421 2.595,5.246 2.686 C 5.031 2.799,4.838 2.998,4.724 3.227 C 4.621 3.433,4.548 3.755,4.571 3.899 C 4.602 4.091,4.766 4.486,5.161 5.320 C 5.374 5.769,5.541 6.147,5.533 6.161 C 5.524 6.175,5.294 6.258,5.021 6.346 L 4.524 6.506 4.135 6.126 C 3.698 5.698,3.560 5.581,3.387 5.490 C 3.278 5.433,3.233 5.427,2.904 5.427 L 2.542 5.427 2.343 5.528 C 1.834 5.786,1.626 6.095,1.621 6.600 C 1.618 6.886,1.605 6.842,2.174 8.441 C 2.784 10.154,2.836 10.275,3.089 10.591 C 3.424 11.006,3.881 11.287,4.453 11.429 C 4.689 11.488,5.224 11.496,5.413 11.445 C 6.186 11.234,6.455 11.166,6.468 11.179 C 6.477 11.188,6.494 11.489,6.507 11.849 C 6.520 12.208,6.544 12.554,6.561 12.618 C 6.651 12.955,6.918 13.272,7.250 13.434 C 7.451 13.532,7.457 13.533,7.773 13.532 C 8.065 13.531,8.113 13.523,8.312 13.448 C 8.709 13.297,8.884 13.148,9.121 12.760 C 9.267 12.521,9.817 11.531,10.347 10.554 L 10.760 9.792 11.253 9.639 C 12.143 9.364,12.970 9.089,13.143 9.011 C 13.362 8.912,13.598 8.741,13.809 8.530 C 14.017 8.321,14.154 8.119,14.269 7.848 C 14.354 7.650,14.359 7.622,14.368 7.253 C 14.377 6.891,14.373 6.853,14.308 6.667 C 14.009 5.809,13.206 5.161,12.080 4.869 C 11.684 4.766,11.436 4.738,10.947 4.740 C 10.445 4.742,10.088 4.792,9.548 4.935 L 9.244 5.017 8.362 4.140 C 7.005 2.791,6.756 2.571,6.511 2.510 C 6.393 2.480,5.991 2.456,5.880 2.472 M11.848 6.463 C 12.263 6.605,12.580 6.800,12.685 6.979 C 12.769 7.123,12.781 7.291,12.713 7.394 C 12.629 7.522,12.670 7.507,10.760 8.121 C 9.861 8.409,9.688 8.486,9.581 8.643 C 9.494 8.772,9.166 9.352,8.673 10.253 C 8.288 10.958,8.135 11.222,8.133 11.187 C 8.132 11.172,8.121 10.865,8.108 10.505 C 8.091 10.023,8.074 9.825,8.045 9.753 C 7.983 9.606,7.798 9.423,7.632 9.344 C 7.378 9.224,7.198 9.251,6.143 9.569 C 5.657 9.715,5.190 9.849,5.105 9.867 C 4.729 9.945,4.415 9.769,4.227 9.373 C 4.132 9.176,3.725 8.053,3.742 8.036 C 3.747 8.031,3.823 8.063,3.910 8.108 C 4.003 8.156,4.127 8.195,4.214 8.204 C 4.383 8.221,4.378 8.222,7.387 7.284 C 10.038 6.457,10.153 6.422,10.305 6.398 C 10.379 6.386,10.710 6.380,11.040 6.384 C 11.610 6.391,11.650 6.395,11.848 6.463 " fill="#1A1C1F" stroke="none" fill-rule="evenodd"></path></svg>