<svg width="32" height="32" viewBox="0 0 32 32" fill="none" xmlns="http://www.w3.org/2000/svg"><path d="M11.134 4.268 C 10.722 4.338,10.055 4.580,9.791 4.755 C 9.455 4.977,9.190 5.295,8.997 5.707 C 8.862 5.995,8.834 6.121,8.833 6.453 C 8.830 6.943,8.958 7.293,9.688 8.789 C 10.247 9.934,10.515 10.287,10.905 10.394 C 11.287 10.498,11.743 10.280,11.986 9.878 C 12.197 9.530,12.153 9.359,11.455 7.840 C 10.870 6.566,10.833 6.462,10.935 6.399 C 11.048 6.328,11.445 6.276,11.586 6.313 C 11.652 6.330,12.307 6.921,13.040 7.627 C 13.773 8.332,14.467 8.975,14.582 9.055 C 14.989 9.338,15.599 9.213,15.906 8.783 C 16.002 8.648,16.027 8.542,16.027 8.261 C 16.027 7.917,16.021 7.902,15.762 7.595 C 15.616 7.422,14.920 6.704,14.215 6.000 C 12.798 4.584,12.490 4.352,11.953 4.293 C 11.788 4.275,11.593 4.252,11.520 4.242 C 11.447 4.233,11.273 4.244,11.134 4.268 M22.624 8.702 C 21.753 8.784,20.939 9.019,13.680 11.279 C 12.683 11.590,11.223 12.037,10.437 12.274 L 9.007 12.704 8.810 12.573 C 8.702 12.501,8.205 12.123,7.707 11.733 C 6.584 10.855,5.938 10.425,5.585 10.321 C 4.743 10.070,3.293 10.436,2.616 11.070 C 2.452 11.223,2.278 11.461,2.173 11.673 C 2.025 11.973,2.001 12.079,2.004 12.399 C 2.009 12.831,2.151 13.280,3.304 16.507 C 4.190 18.985,4.645 20.144,4.906 20.587 C 5.343 21.327,6.185 22.085,7.006 22.476 C 7.728 22.819,8.084 22.891,9.093 22.894 C 10.046 22.897,9.778 22.956,12.282 22.193 C 12.775 22.043,13.221 21.920,13.274 21.920 C 13.360 21.920,13.374 21.995,13.405 22.648 C 13.424 23.049,13.441 23.727,13.443 24.155 C 13.445 24.583,13.465 25.258,13.487 25.655 C 13.524 26.311,13.542 26.404,13.684 26.666 C 13.883 27.033,14.265 27.417,14.580 27.565 C 15.296 27.901,16.519 27.759,17.253 27.253 C 17.634 26.992,17.808 26.705,19.839 22.987 C 21.665 19.646,21.862 19.308,22.050 19.193 C 22.140 19.138,23.274 18.745,24.570 18.319 C 27.369 17.401,27.696 17.279,28.098 17.011 C 28.519 16.730,29.040 16.203,29.310 15.787 C 30.239 14.353,30.222 12.628,29.265 11.162 C 28.931 10.651,28.645 10.345,28.152 9.974 C 26.791 8.948,24.815 8.493,22.624 8.702 M25.280 10.845 C 25.926 10.997,26.362 11.150,26.369 11.227 C 26.371 11.256,26.025 11.401,25.600 11.549 C 24.351 11.984,24.068 12.181,24.015 12.654 C 23.959 13.151,24.245 13.595,24.710 13.733 C 25.022 13.826,24.885 13.855,26.603 13.329 C 27.169 13.155,27.707 13.013,27.797 13.013 L 27.962 13.013 27.928 13.455 C 27.870 14.215,27.702 14.642,27.285 15.086 C 26.992 15.399,26.638 15.559,25.253 16.003 C 20.782 17.438,20.790 17.435,20.560 17.675 C 20.318 17.928,19.856 18.741,17.679 22.747 C 16.834 24.301,16.126 25.593,16.106 25.616 C 16.086 25.640,15.946 25.691,15.795 25.731 L 15.520 25.804 15.517 25.609 C 15.515 25.501,15.495 24.237,15.472 22.799 C 15.425 19.824,15.436 19.898,14.998 19.641 C 14.585 19.400,14.537 19.409,11.893 20.215 C 9.842 20.841,9.574 20.907,9.095 20.907 C 8.857 20.907,8.522 20.870,8.349 20.825 C 7.611 20.633,6.834 20.040,6.544 19.448 C 6.309 18.967,5.076 15.589,4.374 13.499 C 4.111 12.718,4.059 12.509,4.115 12.472 C 4.155 12.447,4.354 12.374,4.559 12.311 L 4.931 12.196 5.157 12.324 C 5.282 12.395,5.961 12.909,6.666 13.467 C 8.210 14.686,8.538 14.900,8.795 14.852 C 9.089 14.798,10.314 14.425,15.387 12.844 C 20.568 11.229,21.997 10.805,22.518 10.724 C 22.703 10.696,23.273 10.682,23.787 10.693 C 24.541 10.710,24.828 10.739,25.280 10.845 M19.535 13.092 C 19.308 13.191,18.930 13.575,18.799 13.840 C 18.636 14.170,18.657 14.621,18.853 14.978 C 19.132 15.487,19.561 15.753,20.107 15.753 C 20.514 15.753,20.779 15.636,21.074 15.325 C 21.434 14.945,21.541 14.592,21.441 14.111 C 21.354 13.691,21.121 13.401,20.698 13.187 C 20.421 13.046,20.295 13.014,20.032 13.015 C 19.853 13.017,19.630 13.051,19.535 13.092 M15.387 14.447 C 14.983 14.552,14.590 14.896,14.404 15.307 C 14.274 15.594,14.267 15.785,14.372 16.137 C 14.679 17.172,15.844 17.504,16.628 16.781 C 16.967 16.468,17.089 16.206,17.091 15.787 C 17.093 15.229,16.772 14.752,16.249 14.534 C 16.019 14.437,15.590 14.395,15.387 14.447 M10.681 15.976 C 10.360 16.136,10.162 16.377,10.021 16.775 C 9.897 17.130,9.895 17.245,10.010 17.599 C 10.176 18.113,10.828 18.612,11.333 18.612 C 11.612 18.612,12.040 18.410,12.292 18.158 C 12.543 17.907,12.746 17.479,12.746 17.200 C 12.746 16.957,12.564 16.534,12.354 16.284 C 11.983 15.845,11.225 15.705,10.681 15.976 " fill="#1A1C1F" stroke="none" fill-rule="evenodd"></path></svg>