<svg width="16" height="16" viewBox="0 0 16 16" fill="none" xmlns="http://www.w3.org/2000/svg"><path d="M2.893 3.957 C 2.582 4.056,2.241 4.298,2.047 4.557 C 1.816 4.864,1.767 5.089,1.678 6.253 C 1.599 7.278,1.599 7.987,1.677 8.573 C 1.842 9.818,1.910 9.982,2.318 10.135 C 2.471 10.193,2.918 10.265,3.123 10.266 C 3.191 10.266,3.259 10.282,3.274 10.300 C 3.289 10.318,3.309 10.398,3.320 10.478 C 3.433 11.319,4.202 12.039,5.050 12.098 C 5.960 12.162,6.749 11.609,7.029 10.713 L 7.077 10.559 7.718 10.579 C 8.071 10.591,8.654 10.600,9.013 10.600 C 10.029 10.600,9.933 10.688,10.832 8.939 L 11.206 8.211 11.188 8.032 C 11.153 7.683,11.088 7.569,10.697 7.176 C 10.128 6.604,9.057 5.792,8.165 5.255 C 7.726 4.992,7.549 4.913,7.101 4.785 C 6.569 4.632,4.337 4.078,3.890 3.988 C 3.515 3.912,3.078 3.899,2.893 3.957 M4.718 5.492 C 6.027 5.756,6.938 5.961,7.082 6.025 C 7.230 6.090,8.132 6.689,8.359 6.873 C 8.601 7.068,8.640 7.139,8.640 7.391 C 8.640 7.621,8.607 7.727,8.494 7.861 C 8.388 7.987,8.229 8.059,8.027 8.073 C 7.812 8.088,7.749 8.057,7.040 7.589 L 6.540 7.260 5.570 7.056 C 5.037 6.945,4.579 6.853,4.554 6.853 C 4.500 6.853,4.489 6.895,4.467 7.187 C 4.440 7.545,4.300 7.757,4.024 7.854 C 3.711 7.965,3.415 7.852,3.222 7.548 L 3.147 7.430 3.147 6.604 L 3.147 5.778 3.227 5.652 C 3.338 5.480,3.595 5.313,3.758 5.308 C 3.779 5.307,4.211 5.390,4.718 5.492 M13.155 8.705 C 12.556 8.847,11.742 9.075,11.626 9.134 C 11.302 9.298,11.143 9.703,11.256 10.078 C 11.304 10.237,11.538 10.489,11.695 10.549 C 11.892 10.624,12.210 10.589,12.893 10.418 C 13.862 10.174,14.079 10.095,14.198 9.939 C 14.451 9.607,14.451 9.192,14.199 8.912 C 13.958 8.643,13.664 8.585,13.155 8.705 " fill="#1A1C1F" stroke="none" fill-rule="evenodd"></path></svg>