<svg width="16" height="16" viewBox="0 0 16 16" fill="none" xmlns="http://www.w3.org/2000/svg"><path d="M10.773 3.614 C 10.279 3.717,10.015 3.791,9.927 3.854 C 9.894 3.877,9.835 3.952,9.795 4.020 C 9.684 4.208,9.695 4.347,9.864 4.945 C 10.000 5.425,10.004 5.451,9.958 5.485 C 9.903 5.525,9.705 5.588,8.347 5.997 C 7.165 6.353,6.809 6.453,6.732 6.453 C 6.682 6.453,6.652 6.408,6.548 6.170 C 6.480 6.013,6.417 5.851,6.409 5.810 C 6.395 5.742,6.404 5.729,6.489 5.693 C 6.669 5.618,6.846 5.392,6.892 5.180 C 6.928 5.015,6.779 4.724,6.604 4.616 C 6.517 4.562,6.482 4.560,5.489 4.560 L 4.464 4.560 4.376 4.624 C 4.066 4.853,4.021 5.237,4.271 5.508 C 4.399 5.647,4.527 5.699,4.823 5.731 C 4.945 5.744,5.056 5.765,5.069 5.779 C 5.083 5.792,5.237 6.155,5.413 6.584 L 5.733 7.366 5.334 7.866 L 4.935 8.365 4.677 8.276 C 4.339 8.158,4.011 8.121,3.654 8.160 C 3.313 8.197,3.163 8.242,2.867 8.396 C 2.548 8.561,2.143 8.954,1.990 9.247 C 1.638 9.925,1.622 10.624,1.943 11.293 C 2.241 11.915,2.912 12.406,3.571 12.484 C 4.240 12.563,4.830 12.397,5.301 11.997 C 5.753 11.614,6.035 11.069,6.094 10.463 C 6.117 10.226,6.056 9.868,5.930 9.503 L 5.835 9.228 5.896 9.127 C 5.930 9.072,6.017 8.945,6.089 8.845 C 6.198 8.694,6.227 8.669,6.255 8.698 C 6.274 8.717,6.393 8.985,6.521 9.293 C 6.904 10.222,6.969 10.323,7.268 10.458 C 7.434 10.532,7.730 10.540,7.858 10.472 C 8.033 10.380,8.314 10.107,9.393 8.982 C 10.567 7.758,10.686 7.637,10.703 7.655 C 10.709 7.661,10.768 7.837,10.834 8.045 L 10.954 8.423 10.745 8.601 C 10.419 8.880,10.206 9.159,10.073 9.481 C 9.951 9.779,9.933 9.885,9.933 10.333 C 9.933 10.709,9.941 10.782,9.996 10.947 C 10.287 11.819,11.033 12.431,11.880 12.494 C 12.570 12.544,13.124 12.356,13.593 11.910 C 13.905 11.615,14.077 11.334,14.204 10.915 C 14.266 10.710,14.275 10.634,14.275 10.320 C 14.275 10.004,14.266 9.930,14.203 9.720 C 14.080 9.317,13.944 9.091,13.640 8.787 C 13.423 8.569,13.329 8.497,13.133 8.395 C 12.883 8.265,12.600 8.175,12.341 8.145 C 12.257 8.135,12.172 8.114,12.151 8.097 C 12.078 8.039,11.104 4.941,11.125 4.833 C 11.132 4.800,11.208 4.768,11.408 4.714 C 11.755 4.621,11.874 4.559,11.974 4.422 C 12.133 4.202,12.139 3.987,11.991 3.767 C 11.804 3.488,11.542 3.455,10.773 3.614 M9.704 6.873 C 9.568 7.050,7.749 8.964,7.716 8.965 C 7.682 8.965,7.173 7.718,7.173 7.635 C 7.173 7.622,7.338 7.561,7.540 7.498 C 8.288 7.264,9.694 6.833,9.717 6.830 C 9.729 6.828,9.724 6.848,9.704 6.873 M4.045 9.362 C 4.387 9.409,4.629 9.582,4.785 9.890 C 4.846 10.011,4.853 10.056,4.853 10.320 C 4.853 10.585,4.846 10.629,4.784 10.752 C 4.695 10.927,4.477 11.145,4.307 11.228 C 4.192 11.283,4.136 11.292,3.907 11.292 C 3.691 11.291,3.616 11.280,3.513 11.233 C 3.348 11.159,3.095 10.917,3.012 10.754 C 2.954 10.641,2.947 10.593,2.947 10.320 C 2.947 10.056,2.955 9.996,3.007 9.892 C 3.127 9.647,3.438 9.401,3.676 9.361 C 3.744 9.349,3.808 9.338,3.818 9.336 C 3.828 9.335,3.930 9.346,4.045 9.362 M12.231 9.362 C 12.505 9.399,12.633 9.464,12.807 9.652 C 13.016 9.877,13.051 9.963,13.062 10.285 C 13.071 10.533,13.065 10.570,12.999 10.717 C 12.913 10.909,12.677 11.148,12.487 11.233 C 12.298 11.319,11.878 11.318,11.701 11.231 C 11.516 11.141,11.328 10.959,11.231 10.778 C 11.151 10.627,11.147 10.605,11.147 10.323 C 11.147 10.076,11.156 10.006,11.203 9.906 C 11.341 9.613,11.694 9.353,11.978 9.336 C 12.003 9.335,12.117 9.346,12.231 9.362 " fill="#1A1C1F" stroke="none" fill-rule="evenodd"></path></svg>