<svg width="12" height="12" viewBox="0 0 12 12" fill="none" xmlns="http://www.w3.org/2000/svg"><path d="M2.195 2.960 C 2.083 2.989,1.885 3.094,1.754 3.195 C 1.537 3.361,1.404 3.572,1.350 3.833 C 1.288 4.139,1.216 5.109,1.213 5.700 C 1.211 6.121,1.232 6.327,1.342 7.000 C 1.426 7.506,1.572 7.625,2.177 7.683 C 2.316 7.696,2.440 7.714,2.452 7.724 C 2.465 7.733,2.481 7.786,2.488 7.842 C 2.529 8.149,2.688 8.449,2.932 8.681 C 3.342 9.071,3.862 9.177,4.401 8.981 C 4.824 8.827,5.125 8.498,5.272 8.032 L 5.309 7.914 5.570 7.927 C 6.228 7.958,7.131 7.966,7.235 7.941 C 7.389 7.904,7.506 7.817,7.607 7.663 C 7.692 7.534,8.027 6.906,8.279 6.401 C 8.404 6.153,8.404 6.153,8.391 6.021 C 8.365 5.760,8.317 5.678,8.015 5.378 C 7.571 4.936,6.872 4.402,6.178 3.974 C 5.701 3.680,5.587 3.641,4.172 3.290 C 2.870 2.967,2.827 2.958,2.530 2.949 C 2.387 2.945,2.236 2.950,2.195 2.960 M3.590 4.129 C 4.516 4.316,5.205 4.472,5.307 4.517 C 5.508 4.605,6.273 5.135,6.400 5.273 L 6.480 5.359 6.480 5.547 C 6.480 5.726,6.477 5.740,6.415 5.832 C 6.310 5.988,6.173 6.060,5.977 6.060 C 5.857 6.060,5.758 6.008,5.279 5.691 L 4.904 5.444 4.177 5.292 C 3.777 5.208,3.434 5.140,3.415 5.140 C 3.375 5.140,3.367 5.172,3.350 5.390 C 3.330 5.659,3.225 5.818,3.018 5.891 C 2.783 5.974,2.561 5.889,2.416 5.661 L 2.360 5.572 2.360 4.951 L 2.360 4.329 2.430 4.225 C 2.529 4.079,2.668 4.000,2.830 4.000 C 2.899 4.000,3.222 4.055,3.590 4.129 M9.780 6.551 C 9.309 6.663,8.820 6.799,8.732 6.843 C 8.574 6.923,8.485 7.032,8.429 7.217 C 8.390 7.345,8.393 7.420,8.443 7.553 C 8.497 7.699,8.629 7.841,8.766 7.902 C 8.932 7.976,9.070 7.964,9.631 7.823 C 10.509 7.603,10.611 7.557,10.717 7.336 C 10.799 7.166,10.812 7.056,10.769 6.903 C 10.724 6.741,10.613 6.614,10.451 6.537 C 10.288 6.460,10.153 6.463,9.780 6.551 " fill="#1A1C1F" stroke="none" fill-rule="evenodd"></path></svg>