<svg width="14" height="14" viewBox="0 0 14 14" fill="none" xmlns="http://www.w3.org/2000/svg"><path d="M2.558 3.456 C 2.258 3.526,1.857 3.841,1.708 4.123 C 1.562 4.400,1.524 4.626,1.456 5.635 C 1.383 6.698,1.404 7.226,1.553 8.092 C 1.632 8.550,1.672 8.642,1.858 8.784 C 1.981 8.878,2.153 8.922,2.543 8.961 C 2.691 8.976,2.827 8.996,2.846 9.005 C 2.867 9.016,2.892 9.088,2.909 9.184 C 3.017 9.808,3.456 10.319,4.053 10.514 C 4.237 10.575,4.289 10.581,4.550 10.580 C 4.815 10.579,4.862 10.572,5.063 10.503 C 5.613 10.315,5.971 9.942,6.151 9.371 L 6.194 9.233 6.504 9.248 C 7.246 9.284,8.295 9.293,8.427 9.265 C 8.614 9.226,8.753 9.125,8.875 8.941 C 8.974 8.789,9.370 8.046,9.654 7.478 L 9.794 7.198 9.778 7.000 C 9.769 6.891,9.743 6.763,9.721 6.716 C 9.529 6.314,8.261 5.272,7.144 4.599 C 6.762 4.369,6.606 4.299,6.220 4.189 C 5.755 4.055,3.787 3.567,3.404 3.489 C 3.096 3.427,2.740 3.413,2.558 3.456 M4.130 4.806 C 5.276 5.037,6.071 5.216,6.196 5.272 C 6.324 5.328,7.115 5.853,7.315 6.014 C 7.526 6.184,7.560 6.247,7.560 6.468 C 7.560 6.669,7.531 6.761,7.432 6.879 C 7.339 6.989,7.200 7.052,7.023 7.064 C 6.835 7.077,6.780 7.050,6.159 6.640 L 5.720 6.351 4.873 6.174 C 4.406 6.076,4.007 5.997,3.985 5.997 C 3.937 5.997,3.928 6.034,3.909 6.288 C 3.885 6.602,3.762 6.787,3.521 6.873 C 3.247 6.969,2.988 6.870,2.819 6.605 L 2.753 6.501 2.753 5.778 L 2.753 5.056 2.823 4.948 C 2.920 4.795,3.145 4.645,3.279 4.644 C 3.304 4.644,3.688 4.716,4.130 4.806 M11.510 7.618 C 11.018 7.732,10.276 7.939,10.173 7.992 C 9.955 8.102,9.821 8.330,9.819 8.593 C 9.817 8.781,9.866 8.905,9.997 9.049 C 10.255 9.330,10.444 9.334,11.457 9.073 C 12.249 8.870,12.386 8.802,12.503 8.559 C 12.599 8.361,12.614 8.233,12.564 8.053 C 12.511 7.865,12.382 7.716,12.193 7.627 C 12.015 7.543,11.846 7.541,11.510 7.618 " fill="#1A1C1F" stroke="none" fill-rule="evenodd"></path></svg>