<svg width="28" height="28" viewBox="0 0 28 28" fill="none" xmlns="http://www.w3.org/2000/svg"><path d="M19.647 6.206 C 19.026 6.324,18.262 6.523,18.013 6.633 C 17.609 6.811,17.412 7.113,17.476 7.458 C 17.493 7.553,17.590 7.923,17.691 8.281 C 17.839 8.805,17.863 8.943,17.816 8.990 C 17.744 9.060,17.329 9.165,15.097 9.679 C 11.958 10.402,11.932 10.407,11.863 10.320 C 11.777 10.210,11.380 8.957,11.396 8.845 C 11.409 8.758,11.453 8.748,11.900 8.724 C 12.507 8.691,12.769 8.588,12.952 8.312 C 13.215 7.915,13.128 7.454,12.733 7.151 L 12.536 7.000 10.500 7.000 L 8.464 7.000 8.267 7.151 C 7.875 7.453,7.785 7.915,8.044 8.307 C 8.221 8.573,8.475 8.687,8.958 8.715 C 9.223 8.731,9.384 8.763,9.439 8.811 C 9.517 8.879,9.826 9.789,10.105 10.770 C 10.221 11.179,10.223 11.211,10.152 11.321 C 10.079 11.431,9.297 12.405,9.020 12.729 L 8.890 12.881 8.499 12.711 C 7.852 12.431,7.713 12.405,6.693 12.380 C 5.851 12.359,5.716 12.366,5.374 12.453 C 4.387 12.702,3.357 13.390,2.740 14.213 C 2.079 15.093,1.773 16.008,1.774 17.096 C 1.777 19.267,3.155 21.081,5.297 21.730 C 5.687 21.849,5.776 21.858,6.557 21.858 C 7.337 21.858,7.427 21.849,7.817 21.731 C 9.746 21.147,10.996 19.710,11.324 17.699 C 11.392 17.279,11.396 17.138,11.350 16.735 C 11.250 15.855,11.024 15.192,10.565 14.432 L 10.302 13.998 10.423 13.824 C 10.490 13.728,10.627 13.550,10.728 13.428 L 10.912 13.206 11.435 14.781 C 12.035 16.586,12.335 17.405,12.486 17.644 C 12.639 17.887,12.815 17.943,13.417 17.943 C 14.045 17.943,14.307 17.873,14.581 17.632 C 14.855 17.392,14.968 17.233,16.994 14.244 C 17.947 12.839,18.732 11.683,18.739 11.675 C 18.750 11.661,18.828 11.902,19.062 12.673 L 19.119 12.863 18.656 13.208 C 17.733 13.893,17.171 14.689,16.810 15.820 C 16.690 16.195,16.683 16.265,16.683 17.127 L 16.683 18.037 16.866 18.567 C 17.300 19.829,18.167 20.821,19.343 21.400 C 20.133 21.788,20.445 21.858,21.397 21.861 C 22.076 21.863,22.244 21.848,22.567 21.760 C 23.336 21.549,24.055 21.174,24.632 20.681 C 25.256 20.149,25.827 19.211,26.073 18.317 C 26.190 17.894,26.202 17.777,26.201 17.080 C 26.200 16.436,26.183 16.249,26.098 15.936 C 25.784 14.778,25.119 13.829,24.159 13.168 C 23.283 12.565,22.437 12.320,21.231 12.320 L 20.784 12.320 20.137 10.219 C 19.746 8.947,19.508 8.101,19.534 8.076 C 19.557 8.053,19.776 7.977,20.020 7.909 C 20.750 7.703,21.003 7.500,21.073 7.062 C 21.131 6.696,20.857 6.304,20.445 6.166 C 20.246 6.100,20.192 6.103,19.647 6.206 M16.935 11.165 C 16.821 11.383,14.355 15.002,13.898 15.622 C 13.798 15.756,13.698 15.867,13.676 15.867 C 13.653 15.867,13.392 15.126,13.096 14.222 C 12.534 12.504,12.428 12.150,12.462 12.116 C 12.491 12.089,16.801 11.068,16.907 11.064 C 16.978 11.061,16.982 11.075,16.935 11.165 M22.011 14.116 C 22.904 14.285,23.717 14.913,24.139 15.758 C 24.256 15.994,24.377 16.309,24.408 16.457 C 24.492 16.860,24.445 17.685,24.317 18.060 C 23.896 19.296,22.775 20.117,21.490 20.130 C 20.941 20.136,20.644 20.072,20.137 19.835 C 19.535 19.555,19.100 19.131,18.746 18.480 C 18.502 18.031,18.433 17.745,18.433 17.171 C 18.433 16.539,18.488 16.255,18.691 15.826 C 18.954 15.272,19.562 14.566,19.654 14.709 C 19.676 14.742,19.869 15.306,20.084 15.960 C 20.527 17.310,20.631 17.557,20.814 17.687 C 21.197 17.960,21.889 17.811,22.072 17.417 C 22.251 17.031,22.245 16.987,21.777 15.470 C 21.406 14.267,21.370 14.136,21.401 14.086 C 21.436 14.029,21.595 14.037,22.011 14.116 M7.228 14.138 C 7.393 14.162,7.547 14.202,7.573 14.227 C 7.665 14.320,7.549 14.507,6.886 15.341 C 5.848 16.646,5.755 16.804,5.832 17.145 C 5.925 17.554,6.258 17.831,6.661 17.833 C 7.082 17.835,7.113 17.808,8.344 16.343 C 8.737 15.876,9.078 15.493,9.102 15.493 C 9.164 15.493,9.429 16.033,9.503 16.310 C 9.577 16.585,9.585 17.525,9.517 17.822 C 9.445 18.134,9.186 18.657,8.947 18.972 C 8.562 19.480,7.891 19.910,7.233 20.071 C 6.304 20.299,5.131 19.971,4.451 19.292 C 3.878 18.721,3.593 18.065,3.558 17.242 C 3.530 16.593,3.589 16.305,3.861 15.758 C 4.237 15.005,4.987 14.371,5.746 14.167 C 6.033 14.090,6.790 14.075,7.228 14.138 " fill="#1A1C1F" stroke="none" fill-rule="evenodd"></path></svg>