<svg width="12" height="12" viewBox="0 0 12 12" fill="none" xmlns="http://www.w3.org/2000/svg"><path d="M3.047 3.001 C 2.807 3.043,2.423 3.218,2.203 3.387 C 2.030 3.521,1.832 3.742,1.730 3.915 C 1.623 4.098,1.519 4.407,1.391 4.920 C 1.265 5.429,1.246 5.593,1.276 5.925 C 1.306 6.253,1.371 6.710,1.411 6.870 C 1.485 7.165,1.665 7.284,2.082 7.314 L 2.235 7.325 2.330 7.178 C 2.459 6.978,2.734 6.713,2.932 6.598 C 3.269 6.401,3.511 6.347,3.980 6.366 C 4.264 6.377,4.379 6.408,4.670 6.554 C 5.117 6.778,5.461 7.209,5.571 7.685 L 5.607 7.840 6.374 7.840 C 7.096 7.840,7.146 7.838,7.218 7.801 C 7.381 7.718,7.459 7.596,7.828 6.854 C 8.172 6.162,8.260 5.956,8.260 5.846 C 8.259 5.717,8.165 5.578,7.904 5.320 C 7.393 4.817,6.751 4.328,6.029 3.894 C 5.350 3.485,4.156 3.046,3.630 3.011 C 3.255 2.986,3.147 2.984,3.047 3.001 M3.183 3.769 C 3.617 3.835,4.209 3.984,4.547 4.113 C 4.943 4.264,5.614 4.623,6.110 4.950 C 6.362 5.116,6.417 5.189,6.434 5.376 C 6.447 5.521,6.416 5.636,6.334 5.743 C 6.253 5.850,6.177 5.895,6.032 5.921 C 5.865 5.952,5.771 5.917,5.310 5.648 C 4.498 5.174,4.227 5.051,3.706 4.918 C 3.272 4.808,3.299 4.801,3.220 5.025 C 3.097 5.371,3.008 5.503,2.840 5.590 C 2.679 5.674,2.452 5.636,2.313 5.503 C 2.221 5.415,2.187 5.353,2.159 5.226 C 2.134 5.106,2.184 4.899,2.352 4.426 C 2.495 4.022,2.548 3.911,2.627 3.851 C 2.786 3.730,2.854 3.720,3.183 3.769 M9.950 6.549 C 9.717 6.597,9.027 6.778,8.866 6.832 C 8.610 6.919,8.509 7.010,8.459 7.200 C 8.412 7.380,8.474 7.559,8.632 7.698 C 8.757 7.808,8.883 7.845,9.036 7.818 C 9.420 7.748,10.428 7.471,10.525 7.408 C 10.756 7.258,10.807 6.892,10.625 6.680 C 10.535 6.575,10.382 6.500,10.260 6.502 C 10.210 6.502,10.071 6.523,9.950 6.549 M3.566 7.288 C 3.341 7.361,3.150 7.533,3.042 7.760 C 2.973 7.904,2.970 7.919,2.970 8.130 C 2.970 8.336,2.974 8.358,3.034 8.486 C 3.164 8.759,3.440 8.971,3.735 9.022 C 3.892 9.050,4.087 9.011,4.266 8.915 C 4.714 8.677,4.871 8.114,4.613 7.673 C 4.543 7.553,4.368 7.398,4.227 7.330 C 4.123 7.280,4.084 7.273,3.880 7.267 C 3.722 7.262,3.623 7.269,3.566 7.288 " fill="#1A1C1F" stroke="none" fill-rule="evenodd"></path></svg>