<svg width="28" height="28" viewBox="0 0 28 28" fill="none" xmlns="http://www.w3.org/2000/svg"><path d="M19.973 6.308 C 19.265 6.460,18.209 6.733,18.044 6.807 C 17.937 6.855,17.797 6.951,17.733 7.021 C 17.562 7.207,17.585 7.488,17.848 8.392 C 17.969 8.811,18.061 9.160,18.053 9.168 C 18.021 9.197,11.796 10.599,11.780 10.581 C 11.775 10.575,11.642 10.176,11.485 9.694 C 11.234 8.921,11.170 8.684,11.212 8.679 C 11.218 8.678,11.479 8.659,11.791 8.636 C 12.696 8.570,12.947 8.400,12.942 7.853 C 12.939 7.574,12.852 7.412,12.632 7.278 C 12.491 7.192,12.383 7.187,10.469 7.187 L 8.454 7.187 8.304 7.313 C 8.029 7.544,7.962 7.856,8.116 8.194 C 8.258 8.508,8.460 8.600,9.061 8.624 L 9.567 8.645 9.990 9.949 C 10.256 10.771,10.398 11.273,10.372 11.308 C 10.349 11.339,10.038 11.719,9.680 12.153 C 9.323 12.588,9.019 12.960,9.005 12.981 C 8.990 13.001,8.746 12.923,8.460 12.807 C 8.175 12.692,7.788 12.563,7.599 12.521 C 7.117 12.415,5.968 12.416,5.530 12.523 C 3.902 12.919,2.659 14.057,2.122 15.639 C 1.948 16.152,1.941 16.196,1.923 16.922 C 1.906 17.582,1.917 17.724,2.007 18.085 C 2.459 19.890,3.815 21.221,5.623 21.636 C 6.183 21.764,7.082 21.753,7.627 21.612 C 9.003 21.253,10.076 20.410,10.695 19.200 C 11.505 17.616,11.403 15.995,10.391 14.375 C 10.271 14.183,10.173 13.990,10.173 13.946 C 10.173 13.844,10.922 13.050,10.971 13.099 C 10.992 13.120,11.315 14.049,11.690 15.163 C 12.429 17.359,12.539 17.636,12.725 17.758 C 12.978 17.923,14.004 17.884,14.371 17.694 C 14.584 17.584,14.805 17.274,16.980 14.023 C 17.942 12.586,18.736 11.401,18.744 11.391 C 18.779 11.348,18.822 11.451,19.065 12.150 L 19.317 12.877 18.906 13.158 C 17.661 14.011,16.912 15.238,16.806 16.597 C 16.705 17.882,16.984 18.884,17.708 19.841 C 18.414 20.775,19.202 21.300,20.324 21.585 C 21.256 21.821,21.949 21.787,22.953 21.456 C 23.712 21.206,24.091 20.958,24.782 20.260 C 25.271 19.767,25.343 19.671,25.562 19.226 C 25.965 18.410,26.177 17.466,26.113 16.781 C 25.975 15.314,25.220 13.999,24.065 13.211 C 23.763 13.005,23.049 12.677,22.703 12.585 C 22.256 12.466,21.574 12.400,21.133 12.435 L 20.730 12.466 20.612 12.101 C 19.580 8.918,19.315 8.059,19.354 8.021 C 19.374 8.001,19.628 7.921,19.919 7.842 C 20.676 7.636,20.837 7.532,20.951 7.175 C 21.057 6.845,20.879 6.508,20.512 6.341 C 20.302 6.246,20.273 6.244,19.973 6.308 M17.220 10.933 C 17.220 11.019,13.927 15.893,13.704 16.137 L 13.606 16.245 13.498 15.927 C 13.094 14.743,12.279 12.110,12.308 12.083 C 12.327 12.065,12.469 12.014,12.623 11.970 C 12.875 11.898,17.100 10.885,17.185 10.877 C 17.204 10.875,17.220 10.900,17.220 10.933 M22.120 13.985 C 23.062 14.173,23.851 14.811,24.328 15.770 L 24.523 16.163 24.523 17.053 L 24.523 17.943 24.371 18.265 C 24.021 19.005,23.422 19.639,22.798 19.931 C 22.250 20.188,22.081 20.218,21.319 20.197 C 20.715 20.180,20.619 20.166,20.334 20.047 C 19.438 19.675,18.740 18.955,18.426 18.079 C 18.302 17.732,18.253 16.776,18.338 16.365 C 18.413 16.005,18.746 15.353,19.039 14.993 C 19.256 14.727,19.657 14.373,19.742 14.373 C 19.762 14.373,20.003 15.047,20.279 15.871 C 20.620 16.891,20.818 17.414,20.900 17.511 C 21.236 17.911,21.834 17.844,22.080 17.380 C 22.186 17.180,22.186 17.179,22.105 16.838 C 22.060 16.650,21.857 15.961,21.654 15.307 C 21.451 14.652,21.271 14.057,21.253 13.984 L 21.221 13.852 21.496 13.884 C 21.647 13.901,21.928 13.947,22.120 13.985 M7.580 14.053 C 7.757 14.115,7.910 14.186,7.918 14.212 C 7.927 14.237,7.537 14.734,7.053 15.314 C 5.995 16.581,5.874 16.751,5.845 17.008 C 5.786 17.530,6.332 17.924,6.826 17.717 C 7.010 17.640,7.325 17.306,8.241 16.215 C 9.055 15.246,9.078 15.223,9.186 15.291 C 9.298 15.361,9.610 16.098,9.662 16.414 C 9.724 16.792,9.715 17.320,9.639 17.747 C 9.452 18.794,8.590 19.737,7.480 20.109 C 7.104 20.236,6.086 20.248,5.690 20.132 C 5.187 19.984,4.807 19.746,4.362 19.300 C 3.643 18.578,3.359 17.852,3.421 16.891 C 3.483 15.921,3.799 15.310,4.607 14.601 C 5.186 14.093,5.810 13.898,6.767 13.927 C 7.132 13.938,7.339 13.970,7.580 14.053 " fill="#1A1C1F" stroke="none" fill-rule="evenodd"></path></svg>