<svg width="20" height="20" viewBox="0 0 20 20" fill="none" xmlns="http://www.w3.org/2000/svg"><path d="M13.467 4.518 C 12.517 4.715,12.364 4.780,12.226 5.045 C 12.110 5.269,12.128 5.467,12.330 6.181 C 12.500 6.782,12.505 6.814,12.447 6.856 C 12.378 6.907,12.132 6.985,10.433 7.496 C 8.957 7.941,8.511 8.067,8.414 8.067 C 8.352 8.067,8.315 8.009,8.185 7.712 C 8.100 7.517,8.021 7.314,8.011 7.262 C 7.994 7.177,8.005 7.161,8.111 7.117 C 8.336 7.023,8.558 6.740,8.615 6.475 C 8.660 6.269,8.473 5.905,8.255 5.770 C 8.146 5.702,8.102 5.700,6.861 5.700 L 5.580 5.700 5.470 5.781 C 5.083 6.066,5.026 6.546,5.338 6.885 C 5.499 7.059,5.659 7.124,6.028 7.163 C 6.181 7.180,6.320 7.207,6.337 7.223 C 6.353 7.240,6.547 7.693,6.767 8.231 L 7.167 9.208 6.667 9.832 L 6.168 10.457 5.847 10.345 C 5.130 10.095,4.297 10.132,3.683 10.442 C 2.965 10.804,2.429 11.447,2.227 12.191 C 2.172 12.392,2.157 12.546,2.157 12.883 C 2.157 13.408,2.224 13.697,2.455 14.166 C 2.587 14.435,2.658 14.529,2.930 14.802 C 3.563 15.435,4.209 15.676,5.122 15.619 C 6.415 15.539,7.483 14.452,7.618 13.079 C 7.647 12.782,7.570 12.334,7.412 11.877 L 7.293 11.532 7.405 11.347 C 7.560 11.091,7.786 10.842,7.825 10.883 C 7.843 10.902,8.012 11.284,8.201 11.733 C 8.390 12.183,8.578 12.602,8.619 12.667 C 8.730 12.842,8.898 12.988,9.080 13.069 C 9.290 13.161,9.667 13.172,9.823 13.090 C 10.042 12.974,10.396 12.631,11.724 11.243 C 12.475 10.459,13.155 9.757,13.236 9.685 L 13.382 9.553 13.537 10.035 L 13.692 10.517 13.521 10.664 C 13.093 11.033,12.766 11.439,12.617 11.783 C 12.464 12.137,12.427 12.316,12.410 12.783 C 12.389 13.378,12.438 13.630,12.664 14.083 C 13.014 14.789,13.548 15.254,14.317 15.521 C 14.565 15.607,14.621 15.614,15.117 15.615 C 15.634 15.616,15.659 15.613,15.967 15.506 C 16.423 15.348,16.702 15.172,17.050 14.820 C 17.359 14.507,17.516 14.279,17.653 13.939 C 17.808 13.555,17.849 13.339,17.849 12.900 C 17.849 12.148,17.620 11.572,17.105 11.028 C 16.653 10.550,16.178 10.300,15.533 10.200 C 15.396 10.179,15.259 10.155,15.228 10.146 C 15.139 10.121,15.039 9.831,14.355 7.615 C 13.930 6.235,13.887 6.082,13.910 6.023 C 13.920 5.997,14.058 5.944,14.221 5.903 C 14.757 5.768,14.939 5.655,15.052 5.383 C 15.114 5.237,15.124 4.965,15.073 4.831 C 15.022 4.698,14.871 4.537,14.730 4.465 C 14.531 4.363,14.131 4.380,13.467 4.518 M12.143 8.580 C 12.083 8.687,9.704 11.185,9.651 11.198 C 9.605 11.209,8.967 9.662,8.967 9.541 C 8.967 9.525,9.390 9.381,9.908 9.223 C 10.426 9.064,11.135 8.845,11.483 8.737 C 12.212 8.511,12.178 8.519,12.143 8.580 M5.145 11.715 C 5.466 11.751,5.804 12.012,5.981 12.363 C 6.058 12.513,6.067 12.570,6.067 12.900 C 6.067 13.231,6.058 13.286,5.980 13.440 C 5.869 13.659,5.596 13.931,5.383 14.034 C 5.241 14.104,5.168 14.116,4.883 14.116 C 4.587 14.116,4.529 14.106,4.363 14.025 C 4.129 13.910,3.857 13.626,3.744 13.380 C 3.665 13.208,3.660 13.164,3.673 12.852 C 3.692 12.431,3.759 12.276,4.031 12.024 C 4.253 11.819,4.420 11.728,4.633 11.699 C 4.782 11.679,4.834 11.681,5.145 11.715 M15.558 11.753 C 15.803 11.821,16.123 12.123,16.249 12.403 C 16.334 12.593,16.340 12.633,16.327 12.946 C 16.316 13.215,16.298 13.313,16.236 13.431 C 16.122 13.650,15.849 13.921,15.637 14.025 C 15.471 14.106,15.413 14.116,15.117 14.116 C 14.837 14.116,14.758 14.103,14.626 14.038 C 14.395 13.926,14.160 13.699,14.039 13.472 C 13.938 13.283,13.933 13.256,13.933 12.900 C 13.933 12.566,13.942 12.508,14.019 12.355 C 14.163 12.066,14.431 11.834,14.761 11.711 C 14.906 11.658,15.291 11.678,15.558 11.753 " fill="#1A1C1F" stroke="none" fill-rule="evenodd"></path></svg>