<svg width="32" height="32" viewBox="0 0 32 32" fill="none" xmlns="http://www.w3.org/2000/svg"><path d="M22.541 7.072 C 22.028 7.165,21.151 7.381,20.716 7.524 C 20.507 7.592,20.328 7.695,20.213 7.814 C 19.943 8.093,19.934 8.428,20.175 9.313 C 20.458 10.351,20.451 10.274,20.265 10.339 C 20.060 10.411,17.361 11.048,15.253 11.523 C 13.742 11.863,13.622 11.883,13.558 11.798 C 13.458 11.665,13.006 10.236,13.025 10.108 C 13.039 10.010,13.090 9.997,13.600 9.970 C 14.294 9.933,14.593 9.815,14.803 9.499 C 15.103 9.046,15.003 8.519,14.552 8.172 L 14.327 8.000 12.000 8.000 L 9.673 8.000 9.448 8.172 C 8.999 8.517,8.898 9.046,9.194 9.493 C 9.379 9.773,9.694 9.928,10.132 9.956 C 10.813 10.000,10.808 9.997,10.929 10.321 C 11.123 10.838,11.634 12.587,11.638 12.747 C 11.641 12.840,11.582 12.983,11.490 13.104 C 11.343 13.300,10.342 14.519,10.218 14.653 C 10.171 14.705,10.062 14.678,9.712 14.526 C 8.973 14.206,8.814 14.177,7.649 14.148 C 6.411 14.117,6.058 14.177,5.255 14.553 C 3.708 15.278,2.625 16.557,2.178 18.187 C 2.021 18.759,1.985 19.871,2.103 20.497 C 2.514 22.682,4.043 24.294,6.267 24.887 C 6.566 24.967,6.821 24.986,7.547 24.982 C 8.368 24.979,8.498 24.965,8.933 24.835 C 11.221 24.153,12.754 22.274,12.989 19.861 C 13.052 19.207,12.857 18.142,12.530 17.362 C 12.444 17.158,12.239 16.767,12.074 16.494 L 11.774 15.998 11.912 15.799 C 11.988 15.690,12.145 15.486,12.261 15.346 L 12.471 15.093 13.069 16.893 C 13.726 18.873,14.086 19.860,14.251 20.140 C 14.415 20.418,14.616 20.497,15.219 20.523 C 15.936 20.554,16.333 20.447,16.692 20.125 C 16.994 19.853,17.011 19.829,19.068 16.800 C 19.915 15.553,20.792 14.263,21.018 13.932 L 21.430 13.331 21.617 13.932 C 21.721 14.263,21.813 14.571,21.823 14.618 C 21.834 14.673,21.652 14.845,21.300 15.110 C 20.250 15.901,19.622 16.794,19.211 18.080 C 19.074 18.511,19.067 18.584,19.070 19.573 C 19.073 20.562,19.081 20.636,19.222 21.067 C 19.632 22.321,20.407 23.371,21.460 24.098 C 22.313 24.688,23.144 24.960,24.220 25.000 C 25.020 25.029,25.413 24.980,26.098 24.765 C 28.159 24.120,29.615 22.429,29.922 20.326 C 30.010 19.730,29.963 18.757,29.822 18.212 C 29.401 16.594,28.299 15.280,26.759 14.560 C 26.047 14.228,25.280 14.080,24.265 14.080 L 23.753 14.080 23.020 11.700 C 22.617 10.392,22.298 9.292,22.312 9.256 C 22.325 9.220,22.573 9.125,22.862 9.044 C 23.150 8.963,23.487 8.839,23.609 8.769 C 24.013 8.536,24.196 8.051,24.030 7.653 C 23.910 7.366,23.804 7.259,23.493 7.113 C 23.190 6.970,23.120 6.967,22.541 7.072 M19.354 12.760 C 19.320 12.826,18.919 13.432,18.463 14.107 C 16.660 16.777,15.706 18.133,15.632 18.133 C 15.609 18.133,15.311 17.287,14.971 16.253 C 14.330 14.309,14.202 13.887,14.243 13.847 C 14.274 13.816,19.198 12.650,19.322 12.644 C 19.404 12.641,19.408 12.657,19.354 12.760 M25.155 16.132 C 26.176 16.325,27.105 17.043,27.587 18.010 C 27.900 18.637,27.967 18.967,27.934 19.707 C 27.866 21.217,26.997 22.353,25.520 22.861 C 25.154 22.986,25.010 23.007,24.507 23.006 C 24.017 23.005,23.849 22.981,23.493 22.864 C 22.436 22.514,21.672 21.793,21.238 20.735 C 21.124 20.457,21.097 20.292,21.078 19.760 C 21.051 18.986,21.115 18.605,21.361 18.087 C 21.632 17.515,22.319 16.690,22.454 16.774 C 22.478 16.789,22.719 17.479,22.988 18.307 C 23.258 19.136,23.512 19.878,23.553 19.958 C 23.735 20.311,24.404 20.498,24.783 20.302 C 24.998 20.191,25.255 19.892,25.329 19.665 C 25.406 19.434,25.381 19.321,24.927 17.827 C 24.484 16.371,24.425 16.153,24.459 16.098 C 24.498 16.034,24.681 16.043,25.155 16.132 M8.257 16.158 C 8.714 16.224,8.779 16.283,8.646 16.508 C 8.590 16.604,8.187 17.129,7.752 17.676 C 6.814 18.854,6.649 19.120,6.653 19.443 C 6.661 19.951,7.097 20.378,7.610 20.381 C 8.093 20.383,8.118 20.362,9.514 18.707 C 9.978 18.157,10.379 17.707,10.405 17.707 C 10.473 17.707,10.777 18.329,10.861 18.640 C 10.955 18.993,10.953 20.054,10.857 20.414 C 10.529 21.647,9.518 22.632,8.267 22.939 C 7.209 23.198,5.872 22.825,5.089 22.053 C 4.440 21.413,4.106 20.647,4.066 19.705 C 4.034 18.964,4.102 18.635,4.413 18.010 C 4.842 17.148,5.700 16.424,6.567 16.191 C 6.894 16.103,7.760 16.086,8.257 16.158 " fill="#1A1C1F" stroke="none" fill-rule="evenodd"></path></svg>