<svg width="28" height="28" viewBox="0 0 28 28" fill="none" xmlns="http://www.w3.org/2000/svg"><path d="M6.614 6.253 C 5.364 6.477,4.059 7.454,3.527 8.563 C 3.246 9.150,3.057 9.882,2.452 12.735 L 2.240 13.734 2.240 15.377 L 2.240 17.021 2.412 17.365 C 2.801 18.147,3.676 18.676,4.261 18.483 C 4.509 18.401,4.793 18.069,4.830 17.817 C 4.885 17.451,4.708 17.155,4.266 16.870 C 4.030 16.718,4.027 16.714,3.997 16.425 C 3.980 16.264,3.967 15.676,3.967 15.117 L 3.967 14.100 4.322 12.452 C 4.970 9.439,5.040 9.223,5.521 8.756 C 6.118 8.178,6.583 7.984,7.380 7.982 C 8.018 7.980,8.147 8.014,9.375 8.500 C 11.793 9.460,13.406 10.493,15.167 12.208 C 16.092 13.109,17.209 14.254,17.590 14.691 L 17.888 15.032 17.807 15.415 C 17.613 16.339,17.415 16.811,17.057 17.210 L 16.838 17.453 15.874 17.456 C 14.496 17.459,13.709 17.512,13.558 17.612 C 13.408 17.710,13.269 17.930,13.202 18.173 C 13.134 18.422,13.220 18.711,13.425 18.922 C 13.739 19.246,13.694 19.239,15.489 19.216 C 16.969 19.198,17.123 19.188,17.341 19.102 C 18.029 18.830,18.790 18.029,19.083 17.269 C 19.372 16.519,19.693 15.223,19.693 14.806 C 19.693 14.713,19.651 14.550,19.600 14.444 C 19.303 13.830,16.865 11.302,15.143 9.821 C 13.943 8.789,12.720 8.044,10.873 7.220 C 9.931 6.800,8.866 6.398,8.499 6.323 C 8.110 6.245,6.910 6.199,6.614 6.253 M7.414 9.644 C 7.210 9.679,6.803 9.951,6.648 10.155 C 6.483 10.372,6.304 10.992,6.069 12.157 C 5.912 12.935,5.896 13.184,5.991 13.410 C 6.119 13.717,6.602 13.993,6.893 13.926 C 7.157 13.865,7.408 13.680,7.507 13.476 C 7.560 13.366,7.690 12.913,7.797 12.468 C 7.903 12.024,8.017 11.650,8.049 11.637 C 8.130 11.606,9.310 12.117,10.173 12.558 C 10.988 12.974,11.462 13.307,12.193 13.980 C 13.300 14.998,13.453 15.093,13.811 14.986 C 14.033 14.920,14.263 14.700,14.379 14.444 C 14.577 14.008,14.453 13.749,13.675 12.972 C 13.057 12.354,12.352 11.796,11.706 11.411 C 10.866 10.911,8.904 9.985,8.148 9.733 C 7.892 9.647,7.599 9.612,7.414 9.644 M8.257 15.776 C 7.589 15.875,6.875 16.312,6.392 16.919 C 5.662 17.836,5.544 19.021,6.075 20.111 C 6.338 20.652,6.912 21.237,7.420 21.483 C 7.907 21.719,8.298 21.812,8.797 21.811 C 9.632 21.810,10.307 21.523,10.921 20.908 C 11.540 20.289,11.819 19.625,11.821 18.760 C 11.824 17.977,11.561 17.316,11.019 16.741 C 10.457 16.146,9.904 15.865,9.116 15.775 C 8.657 15.722,8.625 15.722,8.257 15.776 M24.197 16.054 C 23.860 16.100,23.654 16.179,22.563 16.681 C 21.582 17.133,21.519 17.155,21.013 17.217 C 20.557 17.272,20.299 17.392,20.165 17.609 C 20.027 17.832,19.999 18.027,20.068 18.275 C 20.202 18.753,20.641 18.980,21.348 18.935 C 21.818 18.905,22.199 18.778,23.242 18.303 C 24.092 17.915,24.324 17.834,24.943 17.706 C 25.258 17.641,25.342 17.602,25.487 17.458 C 25.882 17.063,25.799 16.352,25.332 16.136 C 25.137 16.045,24.564 16.004,24.197 16.054 M9.383 17.652 C 10.372 18.166,10.248 19.647,9.188 19.990 C 8.875 20.091,8.641 20.087,8.351 19.977 C 8.020 19.851,7.835 19.696,7.684 19.418 C 7.444 18.978,7.470 18.439,7.749 18.033 C 7.999 17.670,8.325 17.505,8.804 17.502 C 9.040 17.500,9.144 17.527,9.383 17.652 " fill="#1A1C1F" stroke="none" fill-rule="evenodd"></path></svg>