<svg width="24" height="24" viewBox="0 0 24 24" fill="none" xmlns="http://www.w3.org/2000/svg"><path d="M16.406 5.104 C 15.846 5.171,15.030 5.305,14.835 5.360 C 14.636 5.416,14.494 5.537,14.394 5.732 C 14.271 5.974,14.311 6.350,14.538 7.098 C 14.645 7.449,14.706 7.710,14.685 7.731 C 14.642 7.774,13.727 8.117,12.000 8.738 C 10.572 9.252,10.350 9.323,10.289 9.286 C 10.250 9.261,9.683 8.007,9.626 7.820 C 9.606 7.754,9.639 7.722,9.809 7.640 C 9.936 7.579,10.067 7.473,10.147 7.368 C 10.436 6.989,10.409 6.651,10.060 6.291 L 9.855 6.080 8.286 6.080 C 6.554 6.080,6.599 6.074,6.368 6.337 C 6.057 6.691,6.117 7.251,6.497 7.540 C 6.627 7.640,6.872 7.690,7.480 7.742 L 7.740 7.764 8.306 9.081 L 8.872 10.397 8.382 10.969 C 8.113 11.283,7.862 11.566,7.824 11.597 C 7.764 11.647,7.691 11.634,7.228 11.497 L 6.700 11.340 5.980 11.343 C 5.318 11.346,5.232 11.355,4.908 11.453 C 4.018 11.725,3.291 12.275,2.768 13.070 C 1.953 14.312,1.968 16.012,2.805 17.247 C 3.330 18.021,4.187 18.628,5.065 18.848 C 5.534 18.965,6.388 18.974,6.849 18.867 C 7.697 18.669,8.322 18.277,8.962 17.540 C 10.012 16.330,10.121 14.426,9.221 13.019 L 9.076 12.793 9.214 12.626 C 9.290 12.535,9.413 12.390,9.487 12.305 L 9.623 12.149 9.917 12.845 C 10.738 14.782,10.891 14.978,11.580 14.979 C 11.815 14.979,11.936 14.959,12.036 14.905 C 12.237 14.797,12.699 14.320,13.922 12.960 C 15.261 11.472,15.724 10.988,15.767 11.031 C 15.785 11.049,15.854 11.224,15.920 11.420 C 16.016 11.703,16.030 11.786,15.990 11.821 C 15.963 11.845,15.784 11.995,15.594 12.153 C 14.881 12.748,14.510 13.327,14.271 14.219 C 14.155 14.651,14.148 15.510,14.256 15.980 C 14.347 16.374,14.570 16.901,14.781 17.219 C 14.982 17.522,15.601 18.139,15.906 18.342 C 16.198 18.536,16.652 18.734,17.064 18.847 C 17.478 18.960,18.434 18.972,18.849 18.868 C 19.590 18.684,20.176 18.355,20.703 17.825 C 21.235 17.290,21.565 16.705,21.749 15.969 C 21.842 15.600,21.841 14.647,21.747 14.268 C 21.583 13.602,21.231 12.954,20.793 12.511 C 20.015 11.723,19.223 11.369,18.081 11.296 L 17.655 11.270 16.989 9.165 C 16.623 8.007,16.312 7.014,16.299 6.959 C 16.276 6.858,16.280 6.857,16.744 6.768 C 17.336 6.655,17.521 6.573,17.676 6.359 C 17.831 6.145,17.864 5.969,17.801 5.685 C 17.737 5.399,17.506 5.156,17.228 5.086 C 17.012 5.032,16.995 5.032,16.406 5.104 M14.474 9.790 C 14.396 9.873,13.847 10.480,13.253 11.140 C 12.660 11.800,12.085 12.437,11.976 12.555 L 11.777 12.771 11.586 12.365 C 11.309 11.776,11.000 11.047,11.000 10.982 C 11.000 10.920,11.155 10.858,12.800 10.262 C 13.427 10.035,14.066 9.803,14.220 9.746 C 14.604 9.607,14.642 9.613,14.474 9.790 M18.900 13.219 C 19.437 13.482,19.813 13.891,20.007 14.422 C 20.133 14.767,20.132 15.520,20.006 15.845 C 19.792 16.392,19.271 16.927,18.760 17.125 C 17.978 17.426,17.118 17.241,16.518 16.641 C 15.931 16.054,15.746 15.253,16.004 14.418 C 16.083 14.159,16.322 13.761,16.489 13.608 L 16.589 13.517 16.894 14.454 C 17.238 15.508,17.353 15.726,17.638 15.870 C 18.089 16.097,18.660 15.839,18.798 15.346 C 18.865 15.109,18.844 15.010,18.496 13.880 C 18.355 13.422,18.240 13.035,18.240 13.020 C 18.240 12.956,18.561 13.053,18.900 13.219 M6.520 13.093 C 6.520 13.122,6.247 13.486,5.914 13.902 C 5.154 14.851,5.091 14.980,5.206 15.363 C 5.364 15.891,5.996 16.127,6.435 15.823 C 6.524 15.762,6.772 15.511,6.987 15.266 C 7.812 14.322,7.891 14.237,7.933 14.251 C 8.053 14.291,8.147 15.089,8.081 15.497 C 8.022 15.859,7.906 16.122,7.680 16.404 C 7.335 16.834,6.922 17.104,6.430 17.220 C 6.092 17.300,5.871 17.295,5.500 17.200 C 4.964 17.063,4.563 16.776,4.245 16.300 C 3.962 15.877,3.903 15.674,3.901 15.120 C 3.900 14.735,3.915 14.621,3.991 14.420 C 4.143 14.022,4.426 13.647,4.753 13.412 C 5.196 13.094,5.361 13.045,5.990 13.042 C 6.405 13.040,6.520 13.052,6.520 13.093 " fill="#1A1C1F" stroke="none" fill-rule="evenodd"></path></svg>