<svg width="20" height="20" viewBox="0 0 20 20" fill="none" xmlns="http://www.w3.org/2000/svg"><path d="M5.215 5.000 C 4.231 5.086,3.157 5.871,2.734 6.814 C 2.622 7.065,2.426 7.736,2.244 8.495 C 2.126 8.984,2.119 9.048,2.121 9.517 C 2.124 10.033,2.243 11.037,2.351 11.450 C 2.479 11.943,2.776 12.140,3.468 12.190 L 3.720 12.209 3.868 11.979 C 4.081 11.651,4.565 11.183,4.886 10.996 C 5.452 10.666,5.838 10.580,6.633 10.608 C 7.135 10.626,7.258 10.660,7.817 10.942 C 8.532 11.303,9.105 12.030,9.286 12.808 L 9.346 13.067 10.624 13.067 C 11.826 13.067,11.910 13.063,12.030 13.002 C 12.298 12.865,12.433 12.658,13.013 11.490 C 13.823 9.859,13.839 9.813,13.686 9.480 C 13.617 9.329,13.504 9.194,13.173 8.868 C 12.328 8.035,11.276 7.233,10.067 6.500 C 8.956 5.827,6.918 5.074,6.050 5.016 C 5.903 5.006,5.716 4.993,5.633 4.987 C 5.551 4.981,5.363 4.987,5.215 5.000 M5.683 6.350 C 7.194 6.655,8.065 6.982,9.317 7.716 C 10.626 8.483,10.770 8.629,10.723 9.145 C 10.690 9.515,10.428 9.801,10.059 9.868 C 9.736 9.927,9.763 9.939,8.229 9.059 C 7.833 8.832,7.349 8.583,7.155 8.505 C 6.686 8.318,5.588 8.037,5.513 8.084 C 5.483 8.103,5.410 8.254,5.350 8.420 C 5.124 9.043,4.958 9.262,4.639 9.355 C 4.340 9.442,4.073 9.375,3.839 9.155 C 3.552 8.885,3.522 8.609,3.714 7.988 C 3.900 7.385,4.187 6.640,4.281 6.517 C 4.327 6.456,4.444 6.367,4.541 6.317 C 4.701 6.236,4.741 6.229,4.983 6.245 C 5.130 6.255,5.445 6.302,5.683 6.350 M16.717 10.887 C 16.396 10.944,15.047 11.298,14.708 11.414 C 14.393 11.521,14.301 11.590,14.183 11.806 C 14.105 11.949,14.087 12.025,14.086 12.200 C 14.085 12.459,14.162 12.628,14.362 12.809 C 14.697 13.112,14.796 13.109,16.140 12.770 C 17.311 12.474,17.517 12.406,17.641 12.275 C 17.880 12.021,17.960 11.635,17.834 11.341 C 17.744 11.133,17.522 10.918,17.345 10.869 C 17.182 10.824,17.049 10.828,16.717 10.887 M5.888 12.167 C 5.210 12.451,4.810 13.142,4.946 13.794 C 5.077 14.419,5.503 14.860,6.132 15.019 C 6.414 15.091,6.722 15.046,7.050 14.884 C 7.842 14.496,8.132 13.546,7.688 12.789 C 7.571 12.589,7.281 12.331,7.045 12.217 C 6.871 12.132,6.808 12.121,6.450 12.111 C 6.107 12.101,6.027 12.109,5.888 12.167 " fill="#1A1C1F" stroke="none" fill-rule="evenodd"></path></svg>