<svg width="24" height="24" viewBox="0 0 24 24" fill="none" xmlns="http://www.w3.org/2000/svg"><path d="M5.600 5.638 C 4.772 5.815,4.011 6.227,3.421 6.817 C 2.774 7.464,2.441 8.179,2.134 9.580 C 2.032 10.047,2.029 10.106,2.011 11.782 C 1.984 14.318,2.029 14.595,2.557 15.123 C 2.897 15.464,3.239 15.620,3.643 15.620 C 3.911 15.620,3.969 15.606,4.142 15.499 C 4.249 15.433,4.392 15.301,4.459 15.206 C 4.564 15.056,4.582 14.992,4.594 14.715 C 4.613 14.309,4.572 14.215,4.250 13.919 L 3.990 13.682 4.020 11.871 L 4.049 10.060 4.185 9.580 C 4.467 8.590,4.810 8.101,5.441 7.792 C 6.250 7.395,6.965 7.497,8.788 8.268 C 10.996 9.203,12.700 10.392,14.354 12.153 L 14.847 12.678 14.387 13.569 L 13.927 14.460 12.890 14.487 C 12.310 14.501,11.776 14.534,11.677 14.560 C 11.346 14.649,11.040 15.087,11.040 15.472 C 11.040 15.842,11.284 16.198,11.663 16.383 L 11.883 16.491 13.272 16.468 C 14.151 16.453,14.723 16.428,14.831 16.397 C 15.062 16.333,15.291 16.072,15.667 15.441 C 16.066 14.775,16.717 13.457,16.856 13.037 C 16.986 12.645,17.007 12.247,16.909 12.058 C 16.767 11.783,15.746 10.681,14.842 9.826 C 13.621 8.672,12.164 7.657,10.700 6.941 C 9.573 6.390,7.875 5.758,7.155 5.621 C 6.722 5.539,6.028 5.547,5.600 5.638 M6.350 8.721 C 5.871 8.841,5.424 9.228,5.286 9.641 C 5.195 9.918,5.110 10.431,5.040 11.134 C 4.989 11.645,5.034 11.845,5.260 12.109 C 5.462 12.345,5.745 12.455,6.088 12.430 C 6.658 12.389,6.948 12.001,7.063 11.130 C 7.080 11.001,7.110 10.920,7.141 10.920 C 7.229 10.920,8.836 11.594,9.214 11.790 C 9.556 11.966,9.879 12.203,10.797 12.950 C 11.019 13.131,11.278 13.318,11.371 13.365 C 11.710 13.539,12.153 13.444,12.448 13.135 C 12.643 12.931,12.727 12.719,12.725 12.435 C 12.723 12.056,12.609 11.905,11.805 11.213 C 10.569 10.149,10.495 10.106,8.592 9.337 C 7.114 8.740,6.715 8.630,6.350 8.721 M7.220 13.506 C 6.526 13.632,6.199 13.791,5.752 14.223 C 5.470 14.494,5.259 14.834,5.134 15.217 C 4.995 15.641,4.984 16.284,5.109 16.667 C 5.361 17.439,6.001 18.090,6.760 18.346 C 7.103 18.461,7.929 18.451,8.288 18.328 C 8.996 18.083,9.601 17.466,9.871 16.713 C 9.960 16.464,9.976 16.354,9.976 15.980 C 9.976 15.592,9.962 15.499,9.856 15.198 C 9.702 14.763,9.506 14.468,9.150 14.139 C 8.826 13.839,8.425 13.628,8.060 13.565 C 7.779 13.517,7.334 13.486,7.220 13.506 M20.446 13.522 C 20.164 13.573,19.819 13.712,19.140 14.051 C 18.445 14.398,18.334 14.439,17.962 14.483 C 17.398 14.549,17.077 14.873,17.046 15.407 C 17.026 15.769,17.108 15.988,17.343 16.194 C 17.581 16.404,17.786 16.455,18.290 16.431 C 18.796 16.406,18.996 16.341,19.924 15.898 C 20.409 15.667,20.739 15.536,20.984 15.479 C 21.416 15.378,21.639 15.254,21.797 15.025 C 22.146 14.517,21.996 13.881,21.467 13.622 C 21.217 13.499,20.803 13.459,20.446 13.522 M7.747 15.558 C 7.922 15.665,7.972 15.776,7.950 16.007 C 7.930 16.222,7.829 16.362,7.637 16.441 C 7.489 16.503,7.351 16.467,7.195 16.327 C 7.093 16.236,7.066 16.176,7.050 16.008 C 7.026 15.764,7.087 15.646,7.287 15.548 C 7.463 15.461,7.593 15.464,7.747 15.558 " fill="#1A1C1F" stroke="none" fill-rule="evenodd"></path></svg>