<svg width="20" height="20" viewBox="0 0 20 20" fill="none" xmlns="http://www.w3.org/2000/svg"><path d="M3.658 4.936 C 3.334 5.013,2.855 5.329,2.611 5.629 C 2.263 6.056,2.197 6.353,2.086 7.983 C 1.974 9.642,1.980 9.896,2.167 11.200 C 2.279 11.983,2.327 12.168,2.465 12.359 C 2.656 12.623,2.968 12.741,3.650 12.806 C 3.870 12.828,4.069 12.859,4.092 12.877 C 4.115 12.894,4.133 12.948,4.133 12.997 C 4.133 13.116,4.218 13.436,4.311 13.665 C 4.596 14.371,5.315 14.951,6.094 15.102 C 6.394 15.160,6.887 15.124,7.217 15.020 C 7.963 14.784,8.534 14.190,8.787 13.387 L 8.849 13.190 9.316 13.211 C 10.464 13.263,11.852 13.276,12.039 13.236 C 12.306 13.180,12.505 13.036,12.678 12.772 C 12.825 12.549,13.366 11.535,13.781 10.706 L 14.003 10.261 13.970 9.961 C 13.925 9.564,13.860 9.466,13.240 8.861 C 12.468 8.108,11.641 7.475,10.448 6.723 C 9.795 6.311,9.488 6.160,9.011 6.016 C 8.515 5.865,5.424 5.097,4.862 4.984 C 4.425 4.897,3.913 4.876,3.658 4.936 M5.901 6.866 C 7.537 7.196,8.674 7.452,8.845 7.528 C 9.179 7.676,10.455 8.558,10.667 8.788 L 10.800 8.932 10.800 9.241 C 10.800 9.572,10.764 9.673,10.574 9.875 C 10.463 9.993,10.175 10.100,9.969 10.100 C 9.761 10.100,9.604 10.017,8.800 9.487 L 8.176 9.075 6.963 8.821 C 6.296 8.680,5.724 8.566,5.692 8.566 C 5.625 8.567,5.611 8.620,5.584 8.983 C 5.550 9.435,5.379 9.695,5.035 9.816 C 4.639 9.956,4.270 9.817,4.027 9.435 L 3.933 9.287 3.933 8.249 L 3.933 7.211 4.031 7.063 C 4.173 6.849,4.498 6.636,4.685 6.634 C 4.722 6.634,5.270 6.738,5.901 6.866 M16.733 10.822 C 16.093 10.950,14.816 11.294,14.583 11.400 C 13.971 11.680,13.825 12.422,14.283 12.928 C 14.530 13.202,14.773 13.283,15.180 13.227 C 15.627 13.166,17.235 12.743,17.464 12.626 C 17.702 12.504,17.870 12.302,17.937 12.055 C 17.990 11.857,17.958 11.478,17.874 11.314 C 17.797 11.163,17.595 10.967,17.427 10.880 C 17.316 10.822,16.905 10.788,16.733 10.822 " fill="#1A1C1F" stroke="none" fill-rule="evenodd"></path></svg>