<svg width="28" height="28" viewBox="0 0 28 28" fill="none" xmlns="http://www.w3.org/2000/svg"><path d="M5.553 6.954 C 4.897 7.091,4.068 7.733,3.816 8.299 C 3.633 8.708,3.399 9.654,2.547 13.419 L 2.240 14.774 2.241 16.196 C 2.242 17.726,2.276 18.126,2.435 18.464 C 2.571 18.754,3.035 19.243,3.290 19.367 C 3.458 19.448,4.679 19.787,4.804 19.787 C 4.824 19.787,4.864 19.550,4.893 19.262 C 4.955 18.654,5.080 18.163,5.269 17.788 C 5.813 16.713,6.900 16.000,8.106 15.926 C 9.592 15.835,10.891 16.616,11.532 17.986 C 11.724 18.398,11.805 18.835,11.807 19.483 C 11.807 19.791,11.824 20.067,11.842 20.095 C 11.886 20.162,13.206 20.206,15.400 20.215 C 17.522 20.224,17.551 20.216,18.342 19.419 C 18.955 18.801,19.105 18.479,19.484 16.981 C 19.764 15.869,19.761 15.689,19.453 15.257 C 18.734 14.250,16.284 11.771,14.959 10.710 C 14.092 10.016,12.881 9.281,11.774 8.778 C 10.819 8.344,8.167 7.377,7.142 7.090 C 6.605 6.939,5.911 6.880,5.553 6.954 M7.793 9.113 C 10.071 9.873,11.623 10.524,12.460 11.068 C 12.968 11.398,13.575 11.871,14.155 12.388 C 14.857 13.014,14.998 13.259,14.889 13.664 C 14.756 14.159,14.171 14.466,13.764 14.255 C 13.688 14.216,13.243 13.876,12.775 13.500 C 11.144 12.191,10.730 11.979,7.845 10.983 C 7.296 10.793,6.841 10.643,6.834 10.650 C 6.828 10.658,6.714 11.102,6.582 11.638 C 6.267 12.919,6.194 13.058,5.772 13.183 C 5.455 13.278,5.193 13.209,4.952 12.968 C 4.619 12.634,4.622 12.489,4.998 10.803 C 5.280 9.537,5.371 9.309,5.701 9.031 C 5.963 8.810,6.100 8.769,6.510 8.790 C 6.814 8.805,7.052 8.865,7.793 9.113 M24.290 17.081 C 23.883 17.136,23.653 17.224,22.563 17.742 C 21.588 18.205,21.581 18.208,21.103 18.251 C 20.510 18.304,20.297 18.400,20.152 18.679 C 19.997 18.978,20.009 19.310,20.186 19.561 C 20.399 19.864,20.572 19.943,21.073 19.965 C 21.743 19.995,21.963 19.928,23.440 19.254 C 24.029 18.985,24.351 18.868,24.736 18.783 C 25.327 18.652,25.372 18.632,25.562 18.415 C 25.731 18.224,25.781 18.034,25.738 17.749 C 25.700 17.498,25.457 17.202,25.232 17.133 C 25.000 17.062,24.597 17.040,24.290 17.081 M7.966 17.691 C 7.681 17.736,7.350 17.949,7.032 18.292 C 6.730 18.619,6.649 18.856,6.652 19.413 C 6.655 20.038,6.894 20.470,7.430 20.816 C 7.814 21.064,8.244 21.172,8.573 21.103 C 9.379 20.934,9.928 20.388,10.085 19.597 C 10.245 18.789,9.514 17.797,8.691 17.707 C 8.242 17.658,8.186 17.657,7.966 17.691 " fill="#1A1C1F" stroke="none" fill-rule="evenodd"></path></svg>