<svg width="16" height="16" viewBox="0 0 16 16" fill="none" xmlns="http://www.w3.org/2000/svg"><path d="M4.160 4.001 C 3.653 4.046,3.046 4.361,2.636 4.792 C 2.245 5.203,2.080 5.599,1.798 6.794 C 1.649 7.427,1.652 7.775,1.817 8.810 C 1.900 9.333,1.969 9.480,2.198 9.613 C 2.324 9.687,2.649 9.760,2.854 9.760 L 2.984 9.760 3.109 9.567 C 3.281 9.301,3.646 8.949,3.908 8.797 C 4.362 8.533,4.671 8.464,5.307 8.487 C 5.708 8.501,5.806 8.528,6.253 8.754 C 6.826 9.042,7.284 9.624,7.428 10.247 L 7.476 10.453 8.499 10.453 C 9.461 10.453,9.528 10.450,9.624 10.401 C 9.838 10.292,9.946 10.126,10.410 9.192 C 10.652 8.705,10.881 8.231,10.919 8.139 C 11.088 7.729,11.037 7.591,10.536 7.093 C 9.862 6.425,8.998 5.768,8.032 5.189 C 7.131 4.649,5.531 4.059,4.840 4.012 C 4.723 4.005,4.573 3.994,4.507 3.990 C 4.441 3.985,4.285 3.990,4.160 4.001 M4.667 5.107 C 5.229 5.220,5.742 5.359,6.067 5.486 C 6.601 5.695,7.524 6.189,8.147 6.600 C 8.519 6.846,8.573 6.927,8.573 7.240 C 8.573 7.425,8.564 7.470,8.499 7.579 C 8.413 7.726,8.296 7.823,8.135 7.879 C 7.875 7.971,7.817 7.949,6.762 7.347 C 6.001 6.912,5.865 6.846,5.493 6.721 C 5.190 6.620,4.540 6.453,4.446 6.453 C 4.387 6.453,4.371 6.478,4.292 6.700 C 4.106 7.225,3.969 7.409,3.711 7.484 C 3.472 7.553,3.259 7.500,3.071 7.324 C 2.841 7.108,2.818 6.887,2.971 6.391 C 3.120 5.908,3.350 5.312,3.425 5.213 C 3.462 5.165,3.555 5.093,3.633 5.054 C 3.762 4.988,3.791 4.984,3.987 4.998 C 4.104 5.006,4.410 5.056,4.667 5.107 M13.373 8.710 C 13.115 8.756,12.217 8.988,11.867 9.098 C 11.541 9.201,11.445 9.265,11.348 9.443 C 11.285 9.559,11.269 9.620,11.268 9.760 C 11.267 10.002,11.364 10.176,11.581 10.321 C 11.817 10.479,11.896 10.473,12.912 10.216 C 13.849 9.979,14.014 9.925,14.113 9.820 C 14.304 9.617,14.368 9.308,14.267 9.073 C 14.195 8.906,14.017 8.735,13.876 8.696 C 13.745 8.659,13.638 8.662,13.373 8.710 M4.691 9.741 C 4.185 9.954,3.917 10.393,3.954 10.943 C 3.978 11.293,4.175 11.620,4.496 11.841 C 4.801 12.052,5.264 12.088,5.607 11.927 C 5.810 11.832,6.051 11.620,6.152 11.446 C 6.365 11.084,6.370 10.633,6.167 10.260 C 6.074 10.089,5.834 9.869,5.637 9.774 C 5.497 9.706,5.446 9.697,5.160 9.688 C 4.871 9.679,4.826 9.684,4.691 9.741 " fill="#1A1C1F" stroke="none" fill-rule="evenodd"></path></svg>