<svg width="14" height="14" viewBox="0 0 14 14" fill="none" xmlns="http://www.w3.org/2000/svg"><path d="M3.554 3.503 C 3.390 3.529,3.088 3.642,2.878 3.756 C 2.381 4.023,2.011 4.455,1.838 4.966 C 1.732 5.279,1.518 6.147,1.488 6.387 C 1.467 6.553,1.467 6.674,1.489 6.912 C 1.523 7.295,1.600 7.829,1.647 8.015 C 1.733 8.359,1.942 8.498,2.428 8.533 L 2.605 8.546 2.736 8.351 C 2.948 8.033,3.255 7.768,3.623 7.586 C 3.878 7.460,3.982 7.443,4.539 7.443 C 4.996 7.443,5.015 7.445,5.148 7.504 C 5.568 7.689,5.712 7.780,5.947 8.010 C 6.229 8.286,6.396 8.571,6.492 8.943 L 6.545 9.147 7.438 9.147 C 8.278 9.147,8.337 9.144,8.421 9.101 C 8.611 9.004,8.702 8.862,9.133 7.996 C 9.535 7.187,9.637 6.949,9.637 6.819 C 9.637 6.676,9.521 6.507,9.218 6.207 C 8.516 5.509,7.425 4.717,6.589 4.298 C 5.954 3.979,4.931 3.616,4.445 3.538 C 4.184 3.495,3.715 3.477,3.554 3.503 M3.713 4.397 C 4.220 4.474,4.911 4.648,5.305 4.798 C 5.766 4.974,6.549 5.394,7.128 5.775 C 7.422 5.969,7.487 6.054,7.507 6.272 C 7.522 6.441,7.485 6.575,7.390 6.700 C 7.296 6.823,7.208 6.876,7.042 6.909 C 6.848 6.948,6.734 6.903,6.113 6.543 C 5.206 6.016,4.933 5.893,4.323 5.738 C 3.938 5.640,3.868 5.631,3.833 5.676 C 3.821 5.692,3.782 5.789,3.745 5.892 C 3.595 6.317,3.469 6.484,3.247 6.548 C 2.915 6.645,2.573 6.430,2.511 6.085 C 2.491 5.979,2.532 5.799,2.668 5.388 C 2.850 4.835,2.943 4.617,3.033 4.527 C 3.202 4.358,3.313 4.337,3.713 4.397 M11.702 7.621 C 11.403 7.674,10.290 7.976,10.157 8.040 C 9.959 8.136,9.826 8.386,9.855 8.604 C 9.888 8.839,10.050 9.027,10.295 9.114 C 10.418 9.157,10.510 9.141,11.352 8.925 C 12.115 8.730,12.236 8.691,12.327 8.611 C 12.431 8.520,12.509 8.354,12.523 8.194 C 12.539 8.021,12.471 7.854,12.331 7.726 C 12.174 7.581,12.047 7.559,11.702 7.621 M4.164 8.501 C 3.820 8.614,3.525 8.959,3.453 9.333 C 3.419 9.508,3.460 9.737,3.560 9.937 C 3.827 10.470,4.435 10.678,4.956 10.414 C 5.098 10.341,5.305 10.149,5.383 10.015 C 5.569 9.698,5.574 9.304,5.396 8.977 C 5.315 8.828,5.105 8.636,4.932 8.552 C 4.810 8.493,4.765 8.485,4.527 8.478 C 4.347 8.473,4.227 8.481,4.164 8.501 " fill="#1A1C1F" stroke="none" fill-rule="evenodd"></path></svg>