<svg width="32" height="32" viewBox="0 0 32 32" fill="none" xmlns="http://www.w3.org/2000/svg"><path d="M7.653 7.128 C 6.992 7.229,6.159 7.578,5.629 7.974 C 4.803 8.591,4.407 9.037,4.055 9.747 C 3.714 10.434,3.513 11.206,2.802 14.555 L 2.560 15.696 2.560 17.574 L 2.560 19.452 2.756 19.846 C 3.081 20.499,3.712 21.019,4.355 21.163 C 5.052 21.320,5.736 20.556,5.469 19.917 C 5.358 19.652,5.216 19.499,4.875 19.280 C 4.606 19.107,4.603 19.102,4.568 18.771 C 4.549 18.588,4.533 17.915,4.533 17.276 L 4.533 16.114 4.939 14.231 C 5.680 10.787,5.760 10.541,6.310 10.007 C 6.995 9.342,7.522 9.124,8.449 9.122 C 9.037 9.120,9.124 9.134,9.629 9.306 C 11.377 9.903,13.345 10.841,14.560 11.655 C 15.993 12.615,18.256 14.711,20.075 16.762 L 20.444 17.178 20.352 17.616 C 20.130 18.667,19.903 19.213,19.501 19.660 L 19.259 19.930 17.517 19.962 C 15.523 20.000,15.506 20.004,15.229 20.450 C 15.003 20.815,15.004 21.183,15.234 21.501 C 15.539 21.925,15.565 21.931,17.084 21.960 C 18.723 21.990,19.678 21.924,20.009 21.756 C 20.654 21.430,21.365 20.683,21.707 19.973 C 22.005 19.353,22.504 17.465,22.506 16.945 C 22.507 16.649,22.406 16.451,21.978 15.918 C 20.703 14.328,17.794 11.517,16.227 10.358 C 15.023 9.469,12.947 8.403,10.860 7.603 C 10.424 7.435,9.908 7.266,9.714 7.227 C 9.348 7.153,7.935 7.085,7.653 7.128 M8.377 11.046 C 8.113 11.126,7.751 11.390,7.578 11.629 C 7.407 11.864,7.189 12.636,6.930 13.920 C 6.686 15.133,6.730 15.393,7.245 15.757 C 7.543 15.968,7.882 15.973,8.226 15.771 C 8.549 15.582,8.639 15.382,8.907 14.267 C 9.026 13.769,9.145 13.341,9.170 13.316 C 9.239 13.247,10.085 13.599,11.333 14.215 C 12.569 14.825,13.003 15.119,13.935 15.977 C 15.200 17.141,15.375 17.250,15.784 17.127 C 16.037 17.051,16.301 16.800,16.434 16.508 C 16.660 16.009,16.518 15.713,15.629 14.825 C 14.922 14.119,14.117 13.481,13.379 13.042 C 12.416 12.468,10.178 11.413,9.307 11.121 C 8.960 11.005,8.606 10.976,8.377 11.046 M9.354 18.049 C 8.071 18.292,6.914 19.432,6.640 20.725 C 6.408 21.820,6.734 22.961,7.521 23.803 C 8.127 24.453,8.698 24.756,9.596 24.907 C 11.099 25.158,12.734 24.169,13.299 22.667 C 13.649 21.735,13.590 20.755,13.131 19.867 C 12.867 19.354,12.164 18.652,11.647 18.385 C 10.997 18.048,10.073 17.913,9.354 18.049 M27.733 18.349 C 27.294 18.389,26.963 18.513,25.627 19.135 C 24.681 19.575,24.587 19.607,24.014 19.677 C 23.773 19.706,23.478 19.780,23.359 19.841 C 22.982 20.033,22.813 20.450,22.935 20.887 C 23.090 21.438,23.588 21.690,24.424 21.639 C 24.968 21.606,25.317 21.488,26.587 20.907 C 27.494 20.492,27.933 20.320,28.085 20.320 C 28.129 20.320,28.334 20.282,28.540 20.235 C 28.987 20.133,29.231 19.944,29.363 19.598 C 29.522 19.185,29.331 18.616,28.974 18.436 C 28.784 18.340,28.240 18.302,27.733 18.349 M10.688 20.132 C 11.187 20.374,11.487 20.866,11.486 21.440 C 11.485 22.101,11.099 22.652,10.503 22.844 C 10.163 22.954,9.963 22.956,9.618 22.854 C 9.243 22.742,8.959 22.518,8.783 22.195 C 8.344 21.389,8.704 20.382,9.541 20.071 C 9.807 19.972,10.426 20.005,10.688 20.132 " fill="#1A1C1F" stroke="none" fill-rule="evenodd"></path></svg>