<svg width="14" height="14" viewBox="0 0 14 14" fill="none" xmlns="http://www.w3.org/2000/svg"><path d="M9.543 3.138 C 9.121 3.223,8.799 3.308,8.719 3.354 C 8.579 3.436,8.475 3.660,8.502 3.822 C 8.509 3.866,8.569 4.096,8.635 4.335 C 8.750 4.748,8.754 4.770,8.713 4.799 C 8.665 4.835,8.492 4.890,7.303 5.247 C 6.270 5.559,5.958 5.647,5.890 5.647 C 5.847 5.647,5.821 5.607,5.730 5.398 C 5.670 5.262,5.615 5.120,5.608 5.083 C 5.596 5.024,5.603 5.013,5.678 4.982 C 5.839 4.914,6.042 4.641,6.043 4.489 C 6.044 4.352,5.906 4.118,5.778 4.039 C 5.702 3.992,5.672 3.990,4.798 3.990 L 3.896 3.990 3.792 4.085 C 3.643 4.223,3.584 4.357,3.601 4.520 C 3.630 4.804,3.835 4.981,4.165 5.007 C 4.255 5.014,4.351 5.024,4.378 5.030 C 4.434 5.041,4.500 5.182,4.830 5.987 L 5.018 6.444 4.668 6.882 L 4.318 7.320 4.092 7.241 C 3.801 7.140,3.517 7.108,3.191 7.142 C 2.723 7.190,2.416 7.338,2.062 7.689 C 1.850 7.899,1.814 7.947,1.707 8.167 C 1.546 8.497,1.507 8.667,1.509 9.030 C 1.510 9.371,1.559 9.587,1.700 9.882 C 1.964 10.432,2.550 10.857,3.137 10.924 C 3.717 10.990,4.175 10.867,4.596 10.530 C 5.117 10.113,5.410 9.427,5.320 8.832 C 5.305 8.729,5.257 8.534,5.213 8.398 C 5.169 8.262,5.133 8.119,5.133 8.081 C 5.133 8.034,5.172 7.957,5.249 7.849 C 5.438 7.585,5.448 7.575,5.477 7.611 C 5.491 7.628,5.594 7.862,5.705 8.132 C 6.042 8.946,6.098 9.033,6.360 9.150 C 6.505 9.216,6.764 9.222,6.876 9.163 C 7.029 9.082,7.278 8.841,8.184 7.893 C 9.086 6.950,9.351 6.683,9.367 6.700 C 9.372 6.705,9.422 6.857,9.480 7.040 L 9.585 7.371 9.409 7.518 C 9.096 7.778,8.873 8.104,8.746 8.484 C 8.698 8.626,8.692 8.690,8.692 9.030 C 8.692 9.371,8.698 9.434,8.746 9.578 C 9.000 10.340,9.657 10.881,10.389 10.932 C 11.002 10.975,11.483 10.812,11.894 10.422 C 12.167 10.163,12.317 9.918,12.428 9.551 C 12.483 9.371,12.491 9.305,12.491 9.030 C 12.491 8.754,12.483 8.689,12.427 8.505 C 12.321 8.153,12.201 7.955,11.935 7.687 C 11.742 7.493,11.665 7.434,11.491 7.344 C 11.257 7.224,11.026 7.153,10.795 7.128 C 10.710 7.119,10.631 7.099,10.619 7.084 C 10.555 7.008,9.719 4.309,9.734 4.230 C 9.740 4.200,9.804 4.173,9.987 4.123 C 10.367 4.021,10.490 3.928,10.562 3.691 C 10.626 3.476,10.518 3.231,10.312 3.126 C 10.188 3.063,9.892 3.067,9.543 3.138 M8.491 6.014 C 8.422 6.104,7.758 6.813,7.077 7.522 L 6.744 7.869 6.694 7.755 C 6.530 7.381,6.260 6.682,6.274 6.667 C 6.286 6.655,8.448 5.986,8.514 5.975 C 8.518 5.974,8.508 5.992,8.491 6.014 M3.539 8.192 C 3.839 8.233,4.050 8.384,4.187 8.654 C 4.240 8.759,4.247 8.799,4.247 9.030 C 4.247 9.262,4.240 9.300,4.186 9.408 C 4.108 9.562,3.917 9.751,3.768 9.824 C 3.669 9.873,3.618 9.881,3.418 9.881 C 3.211 9.881,3.171 9.874,3.054 9.817 C 2.907 9.745,2.716 9.557,2.633 9.402 C 2.585 9.310,2.578 9.268,2.579 9.030 C 2.580 8.716,2.604 8.645,2.766 8.471 C 2.941 8.284,3.119 8.189,3.329 8.169 C 3.344 8.168,3.439 8.178,3.539 8.192 M10.891 8.227 C 11.041 8.269,11.278 8.479,11.364 8.649 C 11.415 8.750,11.422 8.791,11.422 9.030 C 11.422 9.267,11.415 9.310,11.367 9.402 C 11.284 9.557,11.093 9.745,10.946 9.817 C 10.829 9.874,10.789 9.881,10.582 9.881 C 10.386 9.881,10.331 9.872,10.238 9.827 C 10.076 9.748,9.912 9.589,9.827 9.431 C 9.757 9.299,9.753 9.279,9.753 9.032 C 9.753 8.800,9.760 8.759,9.812 8.655 C 9.920 8.442,10.100 8.284,10.333 8.198 C 10.434 8.161,10.704 8.175,10.891 8.227 " fill="#1A1C1F" stroke="none" fill-rule="evenodd"></path></svg>