<svg width="12" height="12" viewBox="0 0 12 12" fill="none" xmlns="http://www.w3.org/2000/svg"><path d="M8.400 2.649 C 8.137 2.692,7.662 2.800,7.549 2.842 C 7.438 2.884,7.385 2.932,7.329 3.040 C 7.267 3.160,7.280 3.294,7.397 3.707 C 7.465 3.945,7.497 4.091,7.485 4.103 C 7.456 4.132,7.247 4.200,6.350 4.470 C 5.382 4.762,5.109 4.840,5.049 4.840 C 5.011 4.840,4.989 4.806,4.911 4.627 C 4.860 4.510,4.813 4.389,4.806 4.357 C 4.796 4.306,4.803 4.297,4.867 4.270 C 5.005 4.212,5.179 3.978,5.180 3.848 C 5.180 3.730,5.062 3.529,4.953 3.462 C 4.887 3.421,4.861 3.420,4.112 3.420 L 3.339 3.420 3.251 3.502 C 3.123 3.620,3.072 3.735,3.086 3.875 C 3.113 4.132,3.291 4.275,3.611 4.295 L 3.785 4.306 3.852 4.450 C 3.889 4.530,4.005 4.804,4.110 5.059 L 4.301 5.523 4.002 5.898 L 3.702 6.273 3.506 6.207 C 3.151 6.089,2.710 6.082,2.386 6.190 C 2.173 6.261,1.984 6.378,1.805 6.547 C 1.571 6.769,1.442 6.979,1.347 7.294 C 1.276 7.530,1.271 7.903,1.337 8.150 C 1.457 8.603,1.785 9.011,2.189 9.208 C 2.477 9.349,2.556 9.367,2.910 9.368 C 3.189 9.368,3.249 9.363,3.380 9.322 C 4.040 9.120,4.502 8.547,4.571 7.847 C 4.588 7.669,4.542 7.401,4.447 7.126 L 4.376 6.919 4.443 6.808 C 4.480 6.747,4.551 6.652,4.600 6.596 L 4.690 6.496 4.753 6.643 C 4.787 6.724,4.884 6.953,4.968 7.151 C 5.167 7.623,5.221 7.712,5.358 7.794 C 5.539 7.902,5.756 7.924,5.904 7.848 C 6.017 7.790,6.233 7.582,6.830 6.957 C 7.561 6.192,8.003 5.740,8.021 5.740 C 8.028 5.740,8.073 5.867,8.120 6.022 L 8.205 6.303 7.987 6.517 C 7.735 6.763,7.605 6.955,7.513 7.217 C 7.454 7.383,7.452 7.403,7.451 7.730 C 7.450 8.035,7.455 8.085,7.497 8.210 C 7.642 8.645,7.939 9.002,8.320 9.198 C 8.628 9.356,8.888 9.401,9.286 9.362 C 10.290 9.264,10.961 8.192,10.629 7.216 C 10.580 7.073,10.469 6.854,10.397 6.760 C 10.308 6.644,10.101 6.451,9.978 6.369 C 9.769 6.230,9.585 6.159,9.330 6.121 C 9.103 6.087,9.109 6.090,9.063 5.975 C 9.011 5.843,8.881 5.438,8.613 4.569 C 8.359 3.743,8.332 3.649,8.346 3.614 C 8.351 3.599,8.453 3.562,8.571 3.530 C 8.848 3.457,8.950 3.391,9.029 3.233 C 9.085 3.121,9.086 3.110,9.064 3.004 C 9.018 2.786,8.872 2.644,8.677 2.630 C 8.618 2.625,8.494 2.634,8.400 2.649 M7.262 5.175 C 7.156 5.319,5.793 6.741,5.776 6.724 C 5.736 6.682,5.364 5.729,5.382 5.711 C 5.386 5.707,5.719 5.603,6.120 5.480 C 6.521 5.357,6.945 5.227,7.060 5.190 C 7.319 5.108,7.311 5.109,7.262 5.175 M3.037 7.020 C 3.283 7.052,3.473 7.189,3.589 7.418 C 3.635 7.508,3.640 7.542,3.640 7.740 C 3.640 7.939,3.635 7.972,3.588 8.064 C 3.521 8.196,3.358 8.358,3.230 8.421 C 3.144 8.462,3.102 8.469,2.930 8.469 C 2.769 8.468,2.712 8.460,2.635 8.425 C 2.500 8.364,2.332 8.197,2.260 8.054 C 2.208 7.950,2.200 7.912,2.200 7.771 C 2.200 7.682,2.212 7.562,2.227 7.506 C 2.283 7.288,2.541 7.057,2.770 7.018 C 2.884 6.999,2.876 6.999,3.037 7.020 M9.173 7.022 C 9.381 7.051,9.440 7.078,9.577 7.209 C 9.748 7.372,9.789 7.465,9.797 7.714 C 9.803 7.899,9.799 7.929,9.753 8.029 C 9.686 8.176,9.522 8.346,9.382 8.415 C 9.282 8.464,9.248 8.470,9.070 8.470 C 8.902 8.469,8.855 8.462,8.775 8.423 C 8.637 8.355,8.496 8.219,8.423 8.083 C 8.363 7.970,8.360 7.954,8.360 7.742 C 8.360 7.542,8.365 7.508,8.411 7.418 C 8.525 7.194,8.771 7.015,8.984 7.002 C 9.002 7.001,9.087 7.010,9.173 7.022 " fill="#1A1C1F" stroke="none" fill-rule="evenodd"></path></svg>