<svg width="20" height="20" viewBox="0 0 20 20" fill="none" xmlns="http://www.w3.org/2000/svg"><path d="M9.633 4.055 C 9.459 4.081,8.859 4.170,8.300 4.253 C 7.741 4.336,6.933 4.463,6.506 4.534 C 5.586 4.688,5.432 4.744,5.263 4.988 L 5.150 5.150 5.155 5.569 C 5.158 5.800,5.178 6.235,5.200 6.536 C 5.259 7.345,5.181 7.880,4.974 8.076 C 4.904 8.141,4.792 8.181,4.483 8.248 C 3.154 8.537,3.053 8.576,2.674 8.953 C 2.482 9.144,2.404 9.253,2.296 9.483 C 2.127 9.845,2.102 10.063,2.101 11.226 C 2.100 12.166,2.108 12.206,2.345 12.443 C 2.599 12.697,2.998 12.764,3.497 12.638 C 4.004 12.510,4.342 12.299,4.929 11.747 C 5.154 11.535,5.252 11.463,5.284 11.486 C 5.308 11.503,5.441 11.610,5.581 11.724 C 6.175 12.209,6.846 12.477,7.467 12.476 C 8.111 12.475,8.686 12.220,9.569 11.544 C 9.744 11.410,9.896 11.300,9.908 11.300 C 9.919 11.300,10.061 11.414,10.222 11.554 C 10.828 12.077,11.316 12.337,11.918 12.455 C 12.193 12.509,12.229 12.509,12.475 12.458 C 13.003 12.349,13.371 12.095,13.921 11.459 C 14.093 11.261,14.237 11.125,14.290 11.112 C 14.337 11.100,14.505 11.115,14.663 11.145 C 15.113 11.232,15.231 11.175,15.595 10.690 C 15.947 10.222,17.755 7.389,17.833 7.185 C 17.887 7.043,17.872 6.731,17.804 6.583 C 17.733 6.426,17.509 6.214,17.338 6.143 C 17.156 6.066,16.872 6.098,15.187 6.382 C 14.364 6.521,13.686 6.631,13.681 6.626 C 13.677 6.621,13.564 6.437,13.431 6.217 C 13.080 5.636,12.868 5.361,12.470 4.965 C 11.647 4.146,10.812 3.879,9.633 4.055 M10.783 5.815 C 10.875 5.855,11.043 5.966,11.156 6.060 C 11.425 6.284,11.909 6.902,11.857 6.954 C 11.840 6.971,10.469 7.216,8.417 7.569 C 7.665 7.698,7.020 7.811,6.983 7.820 C 6.917 7.836,6.916 7.825,6.928 7.010 C 6.935 6.555,6.943 6.181,6.945 6.179 C 6.960 6.166,9.910 5.734,10.050 5.724 C 10.342 5.705,10.612 5.738,10.783 5.815 M5.067 12.991 C 4.964 13.010,4.832 13.108,4.485 13.426 C 3.863 13.995,3.482 14.223,2.970 14.333 C 2.604 14.411,2.518 14.453,2.344 14.642 C 2.173 14.828,2.120 14.985,2.141 15.247 C 2.162 15.506,2.264 15.707,2.437 15.832 C 2.647 15.985,2.769 16.011,3.164 15.991 C 3.730 15.962,4.126 15.805,4.874 15.312 C 5.107 15.159,5.308 15.033,5.319 15.033 C 5.331 15.033,5.503 15.145,5.701 15.282 C 6.114 15.568,6.471 15.756,6.850 15.887 C 7.094 15.972,7.159 15.980,7.617 15.981 C 8.368 15.983,8.704 15.865,9.542 15.304 L 10.000 14.997 10.225 15.176 C 11.118 15.888,12.061 16.154,12.917 15.936 C 13.324 15.833,13.699 15.652,14.205 15.316 C 14.439 15.160,14.639 15.033,14.650 15.033 C 14.660 15.033,14.822 15.137,15.009 15.265 C 15.420 15.544,15.852 15.763,16.263 15.901 C 16.865 16.102,17.239 16.064,17.531 15.772 C 17.874 15.430,17.889 14.928,17.568 14.607 C 17.418 14.457,17.317 14.410,16.959 14.328 C 16.789 14.289,16.575 14.224,16.483 14.184 C 16.274 14.091,15.872 13.789,15.483 13.434 C 15.018 13.008,14.972 12.983,14.650 12.983 C 14.330 12.983,14.282 13.009,13.833 13.414 C 13.160 14.023,12.685 14.306,12.339 14.304 C 11.888 14.302,11.650 14.158,10.615 13.258 C 10.323 13.004,10.185 12.950,9.891 12.976 C 9.657 12.998,9.599 13.033,9.149 13.433 C 8.681 13.849,8.469 14.006,8.170 14.158 C 7.944 14.272,7.899 14.283,7.651 14.283 C 7.405 14.283,7.357 14.272,7.132 14.159 C 6.836 14.011,6.628 13.857,6.153 13.433 C 5.708 13.036,5.583 12.965,5.336 12.971 C 5.234 12.974,5.112 12.983,5.067 12.991 " fill="#1A1C1F" stroke="none" fill-rule="evenodd"></path></svg>