<svg width="16" height="16" viewBox="0 0 16 16" fill="none" xmlns="http://www.w3.org/2000/svg"><path d="M7.440 3.280 C 6.536 3.412,5.010 3.654,4.734 3.710 C 4.422 3.773,4.324 3.826,4.206 3.996 L 4.120 4.120 4.125 4.467 C 4.127 4.657,4.142 5.000,4.158 5.228 C 4.204 5.885,4.138 6.324,3.971 6.464 C 3.920 6.508,3.811 6.548,3.647 6.584 C 3.511 6.615,3.238 6.676,3.040 6.720 C 2.573 6.824,2.387 6.915,2.145 7.158 C 1.942 7.362,1.852 7.503,1.758 7.766 C 1.703 7.922,1.698 7.989,1.686 8.788 C 1.674 9.624,1.675 9.645,1.731 9.756 C 1.812 9.914,1.980 10.068,2.126 10.118 C 2.294 10.175,2.562 10.171,2.816 10.107 C 3.204 10.008,3.477 9.836,3.943 9.397 C 4.123 9.228,4.201 9.170,4.227 9.188 C 4.246 9.202,4.353 9.288,4.465 9.379 C 4.941 9.768,5.473 9.980,5.973 9.980 C 6.491 9.979,6.948 9.777,7.655 9.235 C 7.795 9.128,7.917 9.040,7.926 9.040 C 7.935 9.040,8.048 9.132,8.178 9.243 C 9.001 9.955,9.756 10.153,10.402 9.826 C 10.583 9.734,10.839 9.505,11.131 9.173 C 11.422 8.843,11.408 8.848,11.747 8.919 C 12.078 8.988,12.200 8.926,12.482 8.546 C 12.773 8.154,14.207 5.904,14.267 5.745 C 14.309 5.634,14.297 5.384,14.244 5.267 C 14.186 5.141,14.007 4.971,13.870 4.914 C 13.725 4.853,13.499 4.878,12.149 5.106 C 11.491 5.217,10.949 5.305,10.945 5.301 C 10.941 5.297,10.851 5.149,10.745 4.973 C 10.464 4.509,10.295 4.289,9.976 3.972 C 9.669 3.666,9.416 3.492,9.093 3.364 C 8.632 3.180,8.258 3.161,7.440 3.280 M8.611 4.644 C 8.752 4.704,8.888 4.813,9.116 5.047 C 9.274 5.209,9.493 5.500,9.493 5.548 C 9.493 5.560,9.460 5.576,9.420 5.584 C 9.198 5.631,5.535 6.266,5.533 6.258 C 5.532 6.256,5.538 5.960,5.546 5.601 L 5.560 4.949 5.653 4.930 C 5.855 4.888,7.759 4.606,7.960 4.588 C 8.243 4.563,8.467 4.582,8.611 4.644 M4.036 10.392 C 4.004 10.398,3.896 10.474,3.796 10.561 C 2.930 11.310,2.809 11.383,2.260 11.493 C 1.943 11.557,1.742 11.773,1.714 12.081 C 1.687 12.370,1.803 12.603,2.036 12.727 C 2.133 12.779,2.187 12.787,2.467 12.786 C 2.729 12.786,2.821 12.775,2.973 12.725 C 3.259 12.630,3.554 12.479,3.913 12.242 C 4.092 12.124,4.246 12.027,4.255 12.027 C 4.264 12.027,4.399 12.115,4.556 12.224 C 4.883 12.450,5.176 12.605,5.480 12.710 C 5.675 12.777,5.727 12.784,6.093 12.785 C 6.694 12.787,6.963 12.692,7.633 12.244 L 7.999 11.998 8.196 12.155 C 8.737 12.585,9.289 12.800,9.850 12.800 C 10.347 12.799,10.768 12.650,11.336 12.274 C 11.492 12.170,11.644 12.072,11.675 12.056 C 11.725 12.029,11.768 12.050,12.023 12.222 C 12.508 12.549,13.060 12.784,13.422 12.818 C 13.961 12.868,14.368 12.397,14.199 11.919 C 14.106 11.655,13.967 11.554,13.567 11.463 C 13.431 11.432,13.260 11.379,13.187 11.347 C 13.019 11.273,12.698 11.032,12.387 10.747 C 12.056 10.444,11.981 10.398,11.795 10.381 C 11.559 10.360,11.449 10.403,11.213 10.607 C 10.546 11.183,10.329 11.334,10.037 11.426 C 9.910 11.467,9.866 11.469,9.749 11.443 C 9.433 11.372,9.113 11.168,8.653 10.746 C 8.286 10.409,8.245 10.387,7.988 10.387 C 7.729 10.387,7.717 10.393,7.319 10.747 C 6.944 11.079,6.775 11.204,6.536 11.326 C 6.355 11.418,6.319 11.427,6.121 11.427 C 5.924 11.427,5.886 11.418,5.705 11.327 C 5.469 11.209,5.302 11.086,4.923 10.747 C 4.560 10.423,4.468 10.372,4.256 10.377 C 4.166 10.379,4.067 10.386,4.036 10.392 " fill="#1A1C1F" stroke="none" fill-rule="evenodd"></path></svg>