<svg width="24" height="24" viewBox="0 0 24 24" fill="none" xmlns="http://www.w3.org/2000/svg"><path d="M10.199 4.578 C 9.624 4.660,8.299 4.900,7.180 5.125 C 6.019 5.358,5.853 5.425,5.661 5.737 L 5.540 5.934 5.535 6.957 C 5.532 7.536,5.508 8.119,5.481 8.299 C 5.379 8.963,5.178 9.419,4.935 9.534 C 4.864 9.568,4.449 9.671,4.013 9.762 C 2.933 9.989,2.683 10.098,2.219 10.546 C 1.963 10.792,1.798 11.032,1.659 11.361 C 1.566 11.580,1.543 11.710,1.511 12.200 C 1.467 12.863,1.499 14.631,1.559 14.838 C 1.618 15.042,1.936 15.346,2.173 15.424 C 2.692 15.597,3.281 15.293,3.443 14.769 C 3.470 14.681,3.501 14.105,3.519 13.360 C 3.539 12.485,3.564 12.068,3.599 11.994 C 3.634 11.920,3.700 11.874,3.815 11.843 C 3.985 11.797,7.300 11.173,13.900 9.945 C 19.081 8.981,19.477 8.910,19.542 8.935 C 19.576 8.948,19.589 8.985,19.574 9.028 C 19.510 9.214,18.794 10.635,18.743 10.677 C 18.712 10.703,16.961 11.039,14.853 11.423 C 7.472 12.768,7.816 12.695,7.584 12.967 C 7.393 13.189,7.346 13.352,7.369 13.708 C 7.392 14.067,7.515 14.272,7.819 14.459 C 8.160 14.669,7.999 14.691,13.463 13.705 C 16.956 13.074,17.547 12.974,17.580 13.007 C 17.592 13.019,17.581 13.124,17.556 13.240 C 17.453 13.721,17.645 14.152,18.060 14.372 C 18.179 14.436,18.292 14.458,18.500 14.459 C 18.855 14.460,19.048 14.368,19.245 14.105 C 19.398 13.901,20.992 10.767,21.936 8.814 C 22.408 7.838,22.480 7.662,22.480 7.492 C 22.480 7.215,22.321 6.915,22.071 6.717 C 21.882 6.567,21.860 6.560,21.584 6.560 C 21.251 6.560,20.438 6.689,18.460 7.057 C 16.440 7.433,15.484 7.600,15.359 7.600 C 15.264 7.600,15.217 7.549,15.012 7.230 C 13.792 5.330,11.967 4.324,10.199 4.578 M11.232 6.604 C 11.767 6.731,12.497 7.219,12.920 7.734 C 13.095 7.947,13.117 8.023,13.010 8.056 C 12.695 8.152,7.492 9.105,7.459 9.072 C 7.446 9.059,7.454 8.944,7.477 8.817 C 7.501 8.691,7.539 8.297,7.563 7.943 C 7.587 7.590,7.614 7.245,7.624 7.178 L 7.641 7.055 8.790 6.847 C 9.423 6.732,10.048 6.623,10.180 6.604 C 10.532 6.554,11.018 6.554,11.232 6.604 M5.169 15.584 C 5.038 15.632,4.823 15.822,4.269 16.375 C 3.431 17.212,3.307 17.293,2.577 17.484 C 2.107 17.607,1.897 17.707,1.732 17.886 C 1.427 18.216,1.455 18.824,1.792 19.175 C 2.007 19.399,2.204 19.478,2.552 19.479 C 3.317 19.481,4.042 19.167,5.012 18.413 C 5.281 18.203,5.509 18.053,5.535 18.069 C 5.560 18.084,5.752 18.233,5.963 18.401 C 6.445 18.784,6.868 19.049,7.268 19.217 C 7.750 19.419,7.964 19.460,8.540 19.459 C 9.031 19.458,9.082 19.450,9.466 19.315 C 9.994 19.131,10.362 18.917,10.984 18.434 C 11.268 18.214,11.509 18.053,11.534 18.069 C 11.559 18.084,11.784 18.255,12.034 18.449 C 12.777 19.025,13.268 19.281,13.901 19.422 C 14.315 19.514,14.987 19.486,15.355 19.362 C 15.892 19.181,16.507 18.817,17.178 18.284 C 17.356 18.142,17.506 18.051,17.533 18.067 C 17.559 18.083,17.715 18.206,17.880 18.340 C 18.673 18.986,19.258 19.299,19.907 19.423 C 20.690 19.572,21.129 19.416,21.383 18.897 C 21.474 18.711,21.488 18.642,21.470 18.446 C 21.445 18.171,21.331 17.930,21.157 17.784 C 20.996 17.648,20.865 17.595,20.425 17.485 C 20.230 17.437,20.003 17.362,19.920 17.320 C 19.698 17.207,19.253 16.838,18.620 16.243 C 17.955 15.618,17.751 15.497,17.417 15.532 C 17.094 15.565,16.891 15.706,16.493 16.171 C 15.613 17.199,15.205 17.460,14.480 17.460 C 14.134 17.459,14.075 17.448,13.823 17.329 C 13.437 17.146,13.074 16.835,12.593 16.275 C 12.114 15.718,11.926 15.577,11.613 15.537 C 11.204 15.486,11.139 15.527,10.353 16.319 C 9.343 17.337,9.148 17.459,8.520 17.453 C 7.871 17.447,7.492 17.232,6.793 16.470 C 6.272 15.903,6.049 15.687,5.911 15.615 C 5.740 15.527,5.367 15.512,5.169 15.584 " fill="#1A1C1F" stroke="none" fill-rule="evenodd"></path></svg>