<svg width="32" height="32" viewBox="0 0 32 32" fill="none" xmlns="http://www.w3.org/2000/svg"><path d="M15.700 7.576 C 15.271 7.628,11.497 8.258,10.409 8.458 C 9.657 8.596,9.357 8.712,9.185 8.931 C 9.088 9.054,9.078 9.172,9.056 10.412 L 9.032 11.760 8.860 12.188 C 8.591 12.858,8.477 13.031,8.261 13.102 C 8.156 13.137,7.281 13.312,6.315 13.492 C 4.011 13.922,3.869 13.956,3.494 14.152 C 3.088 14.366,2.563 14.879,2.379 15.242 C 2.006 15.979,1.973 16.152,1.976 17.366 C 1.981 19.022,2.039 19.888,2.158 20.070 C 2.278 20.252,2.626 20.460,2.894 20.509 C 3.145 20.555,3.621 20.339,3.789 20.104 C 3.929 19.907,3.980 19.395,4.024 17.757 C 4.042 17.096,4.086 16.436,4.122 16.290 C 4.184 16.038,4.198 16.023,4.453 15.939 C 4.911 15.789,8.432 15.150,18.640 13.365 C 21.573 12.851,24.549 12.334,25.253 12.216 C 25.957 12.097,26.599 11.988,26.680 11.974 C 26.765 11.960,26.827 11.974,26.827 12.007 C 26.827 12.117,26.113 13.255,25.924 13.446 C 25.767 13.603,25.671 13.649,25.387 13.700 C 25.196 13.734,21.917 14.301,18.099 14.960 C 9.047 16.523,8.484 16.630,8.256 16.836 C 8.206 16.882,8.125 17.037,8.078 17.180 C 7.930 17.625,8.063 18.026,8.458 18.327 C 8.640 18.465,8.695 18.479,9.024 18.467 C 9.225 18.461,11.170 18.155,13.348 17.788 C 15.525 17.421,18.783 16.872,20.587 16.568 C 24.368 15.930,24.320 15.937,24.320 16.014 C 24.320 16.046,24.066 16.501,23.756 17.026 C 23.057 18.206,22.971 18.395,23.017 18.638 C 23.135 19.270,23.795 19.674,24.337 19.448 C 24.710 19.292,24.790 19.176,27.321 15.093 C 29.505 11.571,29.998 10.727,29.998 10.504 C 29.998 10.199,29.735 9.814,29.420 9.658 L 29.161 9.529 28.087 9.703 C 27.002 9.878,21.824 10.755,21.627 10.797 C 21.544 10.815,21.455 10.729,21.227 10.411 C 20.775 9.781,19.687 8.717,19.102 8.333 C 18.560 7.977,17.960 7.704,17.561 7.631 C 17.152 7.556,16.112 7.526,15.700 7.576 M17.548 9.746 C 17.994 9.961,18.495 10.343,18.932 10.801 C 19.345 11.233,19.407 11.183,18.172 11.410 C 17.237 11.582,10.905 12.693,10.862 12.693 C 10.848 12.693,10.870 12.567,10.912 12.413 C 11.041 11.935,11.146 11.192,11.146 10.760 C 11.147 10.533,11.160 10.347,11.176 10.347 C 11.193 10.347,12.003 10.213,12.976 10.050 C 15.698 9.593,16.023 9.550,16.640 9.565 C 17.145 9.576,17.234 9.594,17.548 9.746 M5.881 20.627 C 5.787 20.678,5.499 20.902,5.242 21.125 C 4.307 21.933,3.671 22.320,2.902 22.551 C 2.459 22.684,2.276 22.813,2.132 23.096 C 1.766 23.814,2.412 24.616,3.275 24.514 C 3.914 24.439,4.926 23.973,5.777 23.362 L 6.247 23.025 6.577 23.253 C 7.365 23.800,7.514 23.894,7.871 24.073 C 8.500 24.388,8.993 24.497,9.651 24.467 C 10.538 24.426,11.235 24.127,12.282 23.338 L 12.750 22.985 13.108 23.273 C 14.179 24.133,15.006 24.478,16.000 24.478 C 16.994 24.478,17.821 24.133,18.893 23.272 L 19.252 22.983 19.673 23.304 C 20.771 24.142,21.613 24.485,22.581 24.489 C 23.372 24.493,24.188 24.155,25.194 23.408 L 25.761 22.987 26.052 23.223 C 27.035 24.024,28.082 24.492,28.907 24.499 C 29.379 24.503,29.656 24.348,29.840 23.980 C 29.993 23.672,30.008 23.439,29.891 23.159 C 29.755 22.834,29.612 22.727,29.123 22.581 C 28.253 22.323,28.162 22.285,27.822 22.036 C 27.634 21.899,27.224 21.559,26.912 21.280 C 26.283 20.718,25.990 20.533,25.728 20.533 C 25.511 20.533,25.100 20.816,24.427 21.429 C 23.652 22.136,23.000 22.507,22.534 22.507 C 22.275 22.507,21.687 22.281,21.366 22.059 C 21.216 21.954,20.805 21.616,20.453 21.308 C 19.808 20.742,19.485 20.533,19.253 20.533 C 19.024 20.533,18.696 20.739,18.184 21.202 C 17.505 21.818,17.103 22.119,16.719 22.300 C 16.256 22.519,15.980 22.544,15.532 22.407 C 15.065 22.265,14.682 22.007,13.973 21.353 C 12.823 20.292,12.682 20.286,11.627 21.252 C 9.919 22.816,9.224 22.867,7.732 21.539 C 6.601 20.531,6.315 20.390,5.881 20.627 " fill="#1A1C1F" stroke="none" fill-rule="evenodd"></path></svg>