<svg width="20" height="20" viewBox="0 0 20 20" fill="none" xmlns="http://www.w3.org/2000/svg"><path d="M8.700 3.656 C 8.282 3.697,6.273 4.080,5.838 4.201 C 5.168 4.387,5.111 4.495,4.868 6.050 C 4.793 6.527,4.686 7.211,4.628 7.571 L 4.524 8.226 4.254 8.282 C 3.716 8.394,3.225 8.534,3.016 8.633 C 2.604 8.830,2.234 9.258,2.098 9.698 C 2.040 9.884,2.026 10.041,2.010 10.750 L 1.990 11.583 2.080 11.761 C 2.189 11.975,2.401 12.194,2.583 12.282 C 2.765 12.369,3.230 12.372,3.406 12.287 C 3.563 12.212,3.854 11.905,3.923 11.742 C 3.964 11.647,3.981 11.463,3.993 10.992 C 4.002 10.648,4.020 10.367,4.033 10.367 C 4.046 10.367,6.201 9.963,8.820 9.469 C 14.692 8.363,14.930 8.319,14.953 8.342 C 14.976 8.365,14.883 8.545,14.486 9.250 C 14.090 9.952,14.023 10.117,14.024 10.400 C 14.024 10.681,14.119 10.883,14.348 11.092 C 14.628 11.348,14.976 11.426,15.331 11.311 C 15.659 11.205,15.817 10.978,17.008 8.900 C 18.024 7.127,18.063 7.034,17.954 6.657 C 17.858 6.327,17.587 6.053,17.269 5.963 C 17.078 5.909,16.705 5.950,15.733 6.129 C 15.339 6.202,14.726 6.316,14.370 6.382 C 14.014 6.447,13.698 6.493,13.666 6.483 C 13.635 6.473,13.311 6.179,12.946 5.830 C 12.150 5.066,11.764 4.737,11.304 4.429 C 10.630 3.977,10.012 3.736,9.352 3.670 C 8.994 3.634,8.932 3.633,8.700 3.656 M9.703 5.821 C 9.860 5.896,10.102 6.033,10.239 6.126 C 10.699 6.436,11.319 6.967,11.222 6.967 C 11.216 6.967,10.987 7.012,10.714 7.068 C 10.149 7.182,7.099 7.749,6.858 7.785 L 6.700 7.808 6.700 7.698 C 6.700 7.598,6.931 6.028,6.949 6.008 C 6.962 5.993,7.742 5.835,8.230 5.749 C 8.566 5.689,8.778 5.671,9.050 5.677 C 9.401 5.685,9.429 5.692,9.703 5.821 M5.027 12.444 C 4.742 12.525,4.689 12.582,4.016 13.550 C 3.807 13.850,3.483 14.190,3.332 14.267 C 3.267 14.300,3.080 14.359,2.916 14.398 C 2.471 14.504,2.258 14.651,2.096 14.965 C 1.989 15.173,1.989 15.586,2.095 15.793 C 2.339 16.264,2.812 16.452,3.414 16.318 C 4.031 16.181,4.476 15.911,5.139 15.273 L 5.328 15.091 5.608 15.347 C 6.010 15.715,6.339 15.951,6.686 16.120 C 7.074 16.310,7.393 16.379,7.767 16.355 C 8.410 16.315,8.930 16.051,9.677 15.385 L 10.004 15.094 10.297 15.377 C 10.792 15.854,11.177 16.102,11.687 16.273 C 11.876 16.336,11.984 16.350,12.300 16.348 C 13.066 16.343,13.615 16.086,14.359 15.384 L 14.668 15.092 14.963 15.376 C 15.125 15.532,15.353 15.731,15.470 15.818 C 16.100 16.285,16.992 16.492,17.423 16.272 C 17.585 16.189,17.855 15.903,17.922 15.743 C 17.999 15.559,17.988 15.174,17.901 14.977 C 17.761 14.662,17.554 14.518,17.051 14.385 C 16.868 14.337,16.656 14.261,16.579 14.216 C 16.418 14.122,16.154 13.817,15.859 13.383 C 15.269 12.518,15.146 12.416,14.683 12.417 C 14.190 12.418,13.984 12.579,13.550 13.303 C 13.204 13.879,12.872 14.233,12.602 14.313 C 12.281 14.408,12.064 14.373,11.794 14.181 C 11.616 14.055,11.451 13.841,11.100 13.283 C 10.644 12.558,10.466 12.417,10.000 12.417 C 9.773 12.417,9.690 12.432,9.583 12.489 C 9.373 12.603,9.165 12.845,8.818 13.380 C 8.438 13.966,8.218 14.196,7.943 14.300 C 7.703 14.391,7.501 14.374,7.262 14.244 C 7.039 14.123,6.887 13.947,6.505 13.367 C 6.136 12.806,5.939 12.582,5.743 12.494 C 5.558 12.411,5.225 12.388,5.027 12.444 " fill="#1A1C1F" stroke="none" fill-rule="evenodd"></path></svg>