<svg width="16" height="16" viewBox="0 0 16 16" fill="none" xmlns="http://www.w3.org/2000/svg"><path d="M6.933 2.924 C 6.897 2.929,6.777 2.947,6.667 2.963 C 6.338 3.010,4.744 3.330,4.600 3.377 C 4.400 3.442,4.243 3.543,4.172 3.651 C 4.081 3.788,4.018 4.058,3.894 4.846 C 3.835 5.224,3.748 5.769,3.703 6.057 L 3.620 6.580 3.403 6.626 C 2.973 6.716,2.580 6.827,2.413 6.907 C 2.084 7.064,1.789 7.404,1.677 7.758 C 1.628 7.910,1.619 8.022,1.607 8.601 L 1.593 9.268 1.665 9.410 C 1.749 9.575,1.927 9.758,2.072 9.828 C 2.212 9.895,2.587 9.896,2.725 9.830 C 2.851 9.769,3.083 9.523,3.138 9.394 C 3.168 9.321,3.185 9.158,3.198 8.808 C 3.208 8.541,3.222 8.316,3.231 8.307 C 3.245 8.293,5.237 7.915,10.073 7.009 C 11.103 6.815,11.953 6.664,11.962 6.673 C 11.981 6.692,11.906 6.839,11.589 7.400 C 11.272 7.960,11.219 8.093,11.219 8.320 C 11.220 8.545,11.295 8.706,11.479 8.875 C 11.794 9.162,12.255 9.162,12.523 8.876 C 12.693 8.694,13.038 8.127,13.812 6.760 C 14.412 5.701,14.446 5.612,14.363 5.326 C 14.286 5.062,14.069 4.842,13.815 4.770 C 13.659 4.726,13.338 4.763,12.493 4.921 C 10.928 5.213,10.962 5.208,10.895 5.163 C 10.861 5.141,10.642 4.939,10.409 4.715 C 9.912 4.236,9.569 3.927,9.347 3.757 C 8.909 3.421,8.399 3.147,8.000 3.031 C 7.681 2.939,7.175 2.888,6.933 2.924 M7.448 4.546 C 7.638 4.586,7.966 4.737,8.174 4.880 C 8.335 4.991,8.788 5.354,8.907 5.467 L 9.000 5.556 8.867 5.590 C 8.615 5.654,5.492 6.240,5.400 6.240 C 5.374 6.240,5.360 6.214,5.359 6.167 C 5.359 6.100,5.547 4.822,5.559 4.807 C 5.580 4.781,7.054 4.511,7.187 4.509 C 7.231 4.508,7.348 4.525,7.448 4.546 M4.025 9.955 C 3.797 10.019,3.703 10.117,3.305 10.706 C 3.079 11.041,2.807 11.342,2.667 11.413 C 2.614 11.440,2.464 11.487,2.333 11.519 C 1.978 11.603,1.806 11.721,1.678 11.969 C 1.599 12.122,1.592 12.472,1.665 12.613 C 1.871 13.013,2.237 13.165,2.731 13.055 C 3.225 12.945,3.581 12.729,4.112 12.218 L 4.263 12.072 4.463 12.258 C 5.003 12.762,5.492 13.035,5.935 13.078 C 6.538 13.137,7.055 12.919,7.728 12.320 L 8.002 12.076 8.270 12.332 C 8.846 12.879,9.370 13.118,9.920 13.084 C 10.501 13.048,10.924 12.838,11.487 12.307 L 11.734 12.074 11.980 12.309 C 12.399 12.707,12.687 12.890,13.093 13.016 C 13.379 13.104,13.749 13.105,13.926 13.018 C 14.066 12.949,14.281 12.727,14.337 12.594 C 14.391 12.467,14.383 12.117,14.324 11.987 C 14.206 11.730,14.040 11.613,13.641 11.508 C 13.494 11.470,13.325 11.409,13.263 11.373 C 13.134 11.297,12.948 11.082,12.701 10.722 C 12.213 10.012,12.117 9.933,11.747 9.933 C 11.567 9.933,11.509 9.945,11.380 10.008 C 11.197 10.098,11.115 10.195,10.840 10.639 C 10.569 11.075,10.442 11.240,10.302 11.336 C 10.078 11.490,9.879 11.527,9.645 11.456 C 9.404 11.384,9.255 11.222,8.876 10.621 C 8.506 10.035,8.377 9.934,8.000 9.934 C 7.623 9.934,7.481 10.049,7.055 10.700 C 6.680 11.275,6.475 11.459,6.183 11.488 C 5.857 11.519,5.626 11.332,5.209 10.702 C 4.918 10.261,4.758 10.074,4.605 9.996 C 4.474 9.929,4.187 9.909,4.025 9.955 " fill="#1A1C1F" stroke="none" fill-rule="evenodd"></path></svg>