<svg width="28" height="28" viewBox="0 0 28 28" fill="none" xmlns="http://www.w3.org/2000/svg"><path d="M11.573 7.113 C 10.149 7.354,8.836 7.588,8.657 7.634 C 8.077 7.781,7.990 7.965,8.065 8.884 C 8.140 9.808,8.020 10.490,7.663 11.172 C 7.448 11.583,7.393 11.607,6.160 11.828 C 3.579 12.291,3.201 12.391,2.787 12.718 C 2.431 12.998,2.125 13.422,2.000 13.806 C 1.907 14.093,1.897 14.236,1.878 15.690 C 1.857 17.231,1.859 17.267,1.958 17.473 C 2.078 17.721,2.415 17.967,2.635 17.967 C 3.042 17.967,3.896 17.613,4.345 17.259 C 4.484 17.150,4.791 16.873,5.028 16.644 L 5.459 16.227 5.807 16.558 C 7.725 18.380,8.876 18.396,10.735 16.627 L 11.152 16.230 11.561 16.615 C 12.573 17.566,13.256 17.931,14.019 17.928 C 14.761 17.925,15.476 17.530,16.499 16.559 L 16.845 16.230 17.278 16.639 C 18.509 17.803,19.485 18.183,20.361 17.840 C 20.987 17.596,21.172 17.340,23.986 12.833 C 25.770 9.976,26.109 9.392,26.103 9.182 C 26.097 8.957,25.917 8.683,25.699 8.565 C 25.534 8.476,25.526 8.476,24.841 8.577 C 24.461 8.633,22.985 8.880,21.560 9.125 C 18.870 9.588,18.911 9.581,18.823 9.572 C 18.793 9.569,18.576 9.326,18.342 9.032 C 17.337 7.773,16.244 6.987,15.235 6.796 C 14.390 6.637,14.382 6.638,11.573 7.113 M15.372 8.389 C 15.549 8.473,15.827 8.637,15.990 8.753 C 16.326 8.993,16.917 9.574,17.013 9.760 C 17.076 9.882,17.075 9.884,16.875 9.934 C 16.682 9.983,12.505 10.724,10.393 11.084 C 9.834 11.180,9.364 11.246,9.349 11.231 C 9.334 11.216,9.365 11.030,9.419 10.817 C 9.546 10.308,9.613 9.789,9.613 9.316 L 9.613 8.933 11.142 8.684 C 13.881 8.238,14.041 8.217,14.560 8.227 C 15.006 8.236,15.079 8.250,15.372 8.389 M22.090 11.171 C 22.400 11.300,22.549 11.658,22.449 12.031 C 22.383 12.275,22.187 12.438,21.876 12.505 C 20.616 12.780,8.238 14.700,7.733 14.700 C 7.344 14.699,7.093 14.413,7.094 13.970 C 7.094 13.734,7.189 13.536,7.359 13.417 C 7.499 13.318,11.426 12.673,18.153 11.643 C 22.127 11.034,21.844 11.068,22.090 11.171 M22.517 18.153 C 22.465 18.175,22.192 18.396,21.910 18.645 C 21.102 19.356,20.647 19.635,20.079 19.768 C 19.332 19.943,18.634 19.699,17.663 18.921 C 17.245 18.587,16.927 18.387,16.810 18.387 C 16.690 18.387,16.371 18.582,15.858 18.970 C 14.343 20.117,13.653 20.101,11.993 18.877 C 11.416 18.451,11.226 18.364,11.017 18.428 C 10.925 18.457,10.574 18.687,10.237 18.939 C 9.200 19.714,8.639 19.917,7.942 19.769 C 7.575 19.692,7.072 19.467,6.697 19.214 C 6.568 19.127,6.258 18.916,6.007 18.745 C 5.353 18.298,5.261 18.309,4.482 18.923 C 3.923 19.364,3.643 19.512,2.930 19.743 C 2.227 19.972,2.043 20.086,1.938 20.360 C 1.830 20.643,1.897 20.886,2.144 21.109 C 2.354 21.299,2.559 21.352,2.908 21.307 C 3.566 21.221,4.143 20.985,4.858 20.509 C 5.108 20.343,5.345 20.207,5.385 20.207 C 5.425 20.207,5.599 20.299,5.774 20.411 C 6.725 21.024,7.812 21.378,8.538 21.310 C 9.188 21.248,9.930 20.960,10.662 20.483 L 11.164 20.157 11.634 20.463 C 12.396 20.961,12.959 21.194,13.636 21.293 C 14.372 21.400,15.192 21.164,16.207 20.552 L 16.790 20.201 17.313 20.529 C 18.191 21.079,18.868 21.298,19.693 21.300 C 20.125 21.301,20.299 21.280,20.580 21.193 C 21.039 21.052,21.714 20.697,22.237 20.322 C 22.468 20.156,22.674 20.021,22.695 20.020 C 22.716 20.020,22.958 20.195,23.232 20.410 C 23.506 20.624,23.825 20.854,23.940 20.920 C 24.218 21.080,24.803 21.267,25.145 21.306 C 25.485 21.345,25.779 21.231,25.963 20.990 C 26.144 20.753,26.164 20.579,26.040 20.324 C 25.923 20.081,25.797 20.003,25.163 19.779 C 24.565 19.569,24.399 19.455,23.730 18.800 C 23.396 18.474,23.064 18.184,22.992 18.157 C 22.838 18.098,22.648 18.096,22.517 18.153 " fill="#1A1C1F" stroke="none" fill-rule="evenodd"></path></svg>