<svg width="14" height="14" viewBox="0 0 14 14" fill="none" xmlns="http://www.w3.org/2000/svg"><path d="M5.985 2.570 C 5.615 2.617,4.257 2.884,4.036 2.954 C 3.739 3.047,3.627 3.161,3.549 3.449 C 3.523 3.548,3.444 3.996,3.374 4.445 C 3.304 4.894,3.229 5.373,3.207 5.510 L 3.168 5.758 2.978 5.797 C 2.601 5.876,2.258 5.974,2.112 6.043 C 1.823 6.181,1.564 6.481,1.468 6.788 C 1.428 6.919,1.419 7.029,1.407 7.525 L 1.393 8.108 1.457 8.233 C 1.530 8.378,1.686 8.538,1.813 8.600 C 1.935 8.658,2.263 8.659,2.384 8.601 C 2.494 8.548,2.697 8.334,2.747 8.219 C 2.776 8.152,2.787 8.028,2.795 7.694 C 2.801 7.454,2.813 7.257,2.823 7.257 C 2.832 7.257,4.230 6.995,5.929 6.675 C 10.068 5.895,10.452 5.824,10.467 5.839 C 10.483 5.855,10.418 5.981,10.140 6.475 C 9.863 6.966,9.816 7.082,9.817 7.280 C 9.817 7.477,9.883 7.618,10.043 7.764 C 10.240 7.944,10.483 7.998,10.732 7.918 C 10.959 7.844,11.072 7.683,11.872 6.289 C 12.424 5.327,12.572 5.039,12.591 4.898 C 12.630 4.606,12.392 4.254,12.101 4.173 C 11.960 4.134,11.644 4.175,10.633 4.362 C 10.155 4.450,9.721 4.529,9.668 4.538 C 9.553 4.556,9.572 4.571,8.983 4.004 C 8.321 3.366,7.905 3.050,7.430 2.823 C 7.128 2.678,6.870 2.603,6.562 2.569 C 6.292 2.540,6.219 2.540,5.985 2.570 M6.513 3.977 C 6.689 4.014,6.937 4.133,7.177 4.295 C 7.378 4.431,7.863 4.824,7.863 4.851 C 7.863 4.879,4.876 5.460,4.735 5.460 C 4.700 5.460,4.690 5.444,4.690 5.386 C 4.690 5.321,4.852 4.221,4.864 4.206 C 4.882 4.183,6.172 3.947,6.288 3.945 C 6.327 3.945,6.428 3.959,6.513 3.977 M3.522 8.710 C 3.322 8.767,3.240 8.852,2.892 9.368 C 2.693 9.661,2.456 9.925,2.335 9.985 C 2.289 10.008,2.157 10.050,2.042 10.078 C 1.726 10.155,1.580 10.257,1.467 10.475 C 1.392 10.621,1.392 10.910,1.467 11.055 C 1.533 11.182,1.673 11.323,1.802 11.391 C 1.886 11.436,1.938 11.444,2.135 11.444 C 2.601 11.444,3.015 11.239,3.541 10.746 L 3.734 10.566 3.911 10.731 C 4.266 11.063,4.628 11.297,4.935 11.393 C 5.226 11.485,5.642 11.462,5.941 11.338 C 6.179 11.238,6.465 11.044,6.762 10.780 L 7.002 10.567 7.228 10.781 C 7.745 11.270,8.115 11.445,8.633 11.443 C 8.874 11.443,8.925 11.435,9.123 11.367 C 9.475 11.246,9.746 11.067,10.108 10.714 L 10.264 10.562 10.481 10.769 C 10.849 11.119,11.100 11.278,11.457 11.389 C 11.700 11.464,12.055 11.467,12.192 11.394 C 12.311 11.331,12.498 11.132,12.545 11.020 C 12.599 10.891,12.591 10.622,12.530 10.484 C 12.433 10.263,12.288 10.162,11.936 10.070 C 11.808 10.036,11.659 9.983,11.605 9.951 C 11.488 9.882,11.305 9.668,11.078 9.333 C 10.811 8.940,10.719 8.832,10.587 8.759 C 10.481 8.700,10.441 8.692,10.278 8.692 C 9.933 8.693,9.789 8.805,9.485 9.312 C 9.243 9.715,9.010 9.963,8.822 10.019 C 8.559 10.097,8.369 10.048,8.173 9.852 C 8.057 9.736,7.974 9.618,7.656 9.120 C 7.534 8.927,7.423 8.812,7.296 8.744 C 7.216 8.701,7.162 8.692,7.000 8.693 C 6.667 8.694,6.542 8.796,6.172 9.366 C 5.908 9.773,5.752 9.938,5.565 10.008 C 5.397 10.071,5.290 10.069,5.143 10.001 C 4.970 9.920,4.807 9.741,4.531 9.324 C 4.257 8.911,4.169 8.811,4.022 8.746 C 3.892 8.689,3.658 8.672,3.522 8.710 " fill="#1A1C1F" stroke="none" fill-rule="evenodd"></path></svg>