<svg width="12" height="12" viewBox="0 0 12 12" fill="none" xmlns="http://www.w3.org/2000/svg"><path d="M5.210 2.194 C 5.089 2.205,4.821 2.251,4.290 2.352 C 3.449 2.512,3.312 2.553,3.183 2.682 C 3.049 2.816,3.044 2.837,2.829 4.210 C 2.767 4.606,2.714 4.932,2.712 4.935 C 2.709 4.937,2.618 4.958,2.509 4.980 C 2.191 5.045,1.944 5.116,1.808 5.181 C 1.564 5.297,1.349 5.546,1.257 5.816 C 1.215 5.941,1.212 5.984,1.211 6.470 C 1.210 6.943,1.213 6.996,1.248 7.060 C 1.315 7.186,1.394 7.269,1.512 7.340 C 1.622 7.406,1.638 7.410,1.799 7.409 C 1.932 7.408,1.988 7.398,2.051 7.365 C 2.149 7.315,2.286 7.184,2.329 7.102 C 2.375 7.013,2.399 6.804,2.400 6.495 C 2.400 6.344,2.408 6.220,2.418 6.220 C 2.428 6.220,3.704 5.981,5.253 5.689 C 9.263 4.933,8.980 4.985,8.980 5.016 C 8.980 5.025,8.902 5.171,8.807 5.341 C 8.410 6.048,8.374 6.146,8.428 6.359 C 8.467 6.509,8.537 6.617,8.646 6.693 C 8.810 6.808,8.960 6.840,9.149 6.800 C 9.302 6.768,9.396 6.681,9.576 6.404 C 9.848 5.985,10.696 4.493,10.765 4.312 C 10.869 4.039,10.682 3.679,10.388 3.587 C 10.292 3.557,10.256 3.556,10.066 3.578 C 9.948 3.591,9.608 3.648,9.311 3.703 C 8.187 3.911,8.221 3.906,8.173 3.874 C 8.149 3.858,7.958 3.681,7.750 3.481 C 7.119 2.875,6.786 2.619,6.369 2.419 C 6.104 2.292,5.884 2.229,5.611 2.202 C 5.396 2.180,5.367 2.180,5.210 2.194 M5.825 3.494 C 5.922 3.541,6.061 3.618,6.135 3.666 C 6.283 3.761,6.740 4.135,6.740 4.161 C 6.740 4.181,6.704 4.189,5.700 4.380 C 4.717 4.567,4.097 4.680,4.052 4.680 C 4.029 4.680,4.020 4.662,4.020 4.617 C 4.020 4.559,4.159 3.617,4.170 3.605 C 4.177 3.596,4.644 3.501,4.938 3.449 C 5.137 3.414,5.269 3.402,5.430 3.406 C 5.643 3.410,5.655 3.413,5.825 3.494 M3.019 7.466 C 2.848 7.515,2.778 7.588,2.479 8.030 C 2.309 8.281,2.105 8.507,2.001 8.559 C 1.962 8.578,1.849 8.614,1.750 8.638 C 1.472 8.707,1.343 8.798,1.257 8.990 C 1.197 9.125,1.195 9.332,1.254 9.463 C 1.305 9.575,1.427 9.702,1.544 9.763 C 1.616 9.801,1.661 9.808,1.820 9.807 C 2.242 9.805,2.582 9.638,3.035 9.212 L 3.199 9.057 3.366 9.209 C 3.606 9.429,3.804 9.571,4.012 9.672 C 4.245 9.786,4.436 9.827,4.660 9.813 C 5.046 9.789,5.358 9.631,5.806 9.231 L 6.002 9.057 6.190 9.237 C 6.423 9.459,6.588 9.578,6.803 9.678 C 7.032 9.785,7.242 9.829,7.451 9.814 C 7.877 9.784,8.201 9.621,8.616 9.230 L 8.801 9.055 8.978 9.226 C 9.370 9.603,9.718 9.785,10.109 9.814 C 10.330 9.831,10.457 9.786,10.604 9.640 C 10.751 9.492,10.780 9.424,10.780 9.226 C 10.780 9.039,10.726 8.905,10.613 8.805 C 10.511 8.716,10.459 8.692,10.231 8.632 C 10.121 8.602,9.993 8.557,9.948 8.530 C 9.850 8.473,9.711 8.311,9.525 8.042 C 9.160 7.509,9.088 7.450,8.810 7.450 C 8.675 7.450,8.632 7.459,8.535 7.506 C 8.396 7.575,8.337 7.645,8.119 8.000 C 7.907 8.344,7.721 8.540,7.561 8.588 C 7.424 8.629,7.332 8.628,7.212 8.588 C 7.045 8.531,6.898 8.360,6.594 7.870 C 6.467 7.664,6.368 7.556,6.251 7.494 C 6.135 7.432,5.865 7.432,5.750 7.494 C 5.624 7.562,5.499 7.707,5.291 8.028 C 5.064 8.377,4.931 8.518,4.770 8.578 C 4.625 8.632,4.534 8.631,4.407 8.572 C 4.245 8.496,4.150 8.393,3.923 8.050 C 3.680 7.683,3.565 7.550,3.446 7.496 C 3.336 7.447,3.135 7.433,3.019 7.466 " fill="#1A1C1F" stroke="none" fill-rule="evenodd"></path></svg>