<svg width="14" height="14" viewBox="0 0 14 14" fill="none" xmlns="http://www.w3.org/2000/svg"><path d="M6.825 2.827 C 6.748 2.838,6.328 2.901,5.892 2.965 C 4.525 3.168,4.018 3.259,3.880 3.326 C 3.732 3.399,3.628 3.536,3.606 3.688 C 3.597 3.745,3.607 4.054,3.626 4.375 C 3.665 4.996,3.654 5.266,3.581 5.485 C 3.527 5.648,3.448 5.704,3.191 5.761 C 3.072 5.788,2.835 5.841,2.663 5.879 C 2.491 5.918,2.292 5.976,2.221 6.009 C 1.943 6.136,1.738 6.352,1.587 6.678 C 1.479 6.911,1.445 7.441,1.486 8.248 L 1.501 8.550 1.643 8.695 C 1.803 8.858,1.883 8.890,2.123 8.889 C 2.575 8.889,2.936 8.707,3.450 8.223 C 3.607 8.076,3.676 8.024,3.698 8.040 C 3.714 8.052,3.802 8.123,3.892 8.197 C 4.131 8.394,4.397 8.545,4.658 8.633 C 4.848 8.697,4.934 8.712,5.152 8.722 C 5.473 8.735,5.657 8.697,5.966 8.552 C 6.217 8.434,6.364 8.339,6.684 8.091 C 6.811 7.991,6.924 7.910,6.933 7.910 C 6.943 7.910,7.037 7.985,7.143 8.076 C 7.421 8.315,7.565 8.417,7.784 8.529 C 8.268 8.776,8.705 8.798,9.102 8.597 C 9.257 8.519,9.510 8.291,9.754 8.011 C 9.992 7.738,9.982 7.742,10.285 7.806 C 10.519 7.854,10.610 7.828,10.768 7.667 C 10.904 7.527,11.265 6.990,11.930 5.936 C 12.510 5.016,12.507 5.023,12.506 4.844 C 12.506 4.665,12.452 4.543,12.321 4.425 C 12.192 4.309,12.095 4.270,11.935 4.270 C 11.864 4.270,11.306 4.354,10.695 4.457 C 10.083 4.560,9.580 4.641,9.577 4.638 C 9.574 4.634,9.485 4.490,9.380 4.318 C 8.944 3.599,8.480 3.152,7.957 2.943 C 7.622 2.810,7.214 2.768,6.825 2.827 M7.548 4.070 C 7.613 4.099,7.730 4.176,7.809 4.242 C 7.997 4.399,8.336 4.831,8.300 4.868 C 8.288 4.880,7.340 5.049,5.892 5.298 C 5.365 5.389,4.914 5.468,4.888 5.474 C 4.842 5.485,4.842 5.476,4.850 4.919 C 4.854 4.607,4.865 4.344,4.874 4.334 C 4.891 4.317,6.814 4.022,7.000 4.009 C 7.216 3.994,7.431 4.018,7.548 4.070 M3.535 9.093 C 3.473 9.109,3.366 9.191,3.140 9.398 C 2.704 9.796,2.437 9.956,2.079 10.033 C 1.831 10.086,1.767 10.116,1.652 10.236 C 1.541 10.350,1.493 10.467,1.493 10.622 C 1.494 10.804,1.530 10.905,1.634 11.009 C 1.848 11.222,2.095 11.260,2.532 11.145 C 2.831 11.066,3.074 10.949,3.426 10.713 C 3.581 10.609,3.715 10.523,3.722 10.523 C 3.729 10.523,3.858 10.606,4.008 10.708 C 4.320 10.919,4.531 11.029,4.796 11.121 C 4.966 11.180,5.012 11.186,5.332 11.187 C 5.857 11.188,6.093 11.106,6.679 10.713 L 6.999 10.499 7.175 10.639 C 7.643 11.010,8.131 11.200,8.619 11.200 C 9.065 11.200,9.412 11.074,9.944 10.721 C 10.107 10.612,10.247 10.523,10.255 10.523 C 10.262 10.523,10.375 10.596,10.507 10.685 C 10.793 10.880,11.093 11.032,11.390 11.134 C 11.683 11.234,11.947 11.241,12.119 11.154 C 12.482 10.968,12.572 10.499,12.298 10.225 C 12.193 10.120,12.122 10.087,11.872 10.030 C 11.752 10.003,11.603 9.957,11.538 9.929 C 11.392 9.863,11.110 9.653,10.838 9.404 C 10.512 9.106,10.480 9.088,10.255 9.088 C 10.031 9.088,9.997 9.106,9.683 9.390 C 9.212 9.816,8.879 10.014,8.637 10.013 C 8.321 10.012,8.155 9.911,7.431 9.281 C 7.226 9.103,7.129 9.065,6.924 9.084 C 6.760 9.098,6.720 9.123,6.404 9.403 C 6.073 9.698,5.927 9.805,5.717 9.911 C 5.558 9.990,5.524 9.998,5.354 9.998 C 5.184 9.998,5.150 9.990,4.992 9.911 C 4.785 9.808,4.640 9.700,4.307 9.403 C 3.991 9.121,3.910 9.076,3.724 9.079 C 3.646 9.081,3.561 9.087,3.535 9.093 " fill="#1A1C1F" stroke="none" fill-rule="evenodd"></path></svg>