<svg width="28" height="28" viewBox="0 0 28 28" fill="none" xmlns="http://www.w3.org/2000/svg"><path d="M13.737 6.631 C 13.554 6.652,12.578 6.808,11.567 6.978 C 8.335 7.520,8.253 7.540,8.031 7.822 C 7.939 7.938,7.933 8.004,7.932 8.885 C 7.930 10.093,7.896 10.338,7.658 10.879 C 7.552 11.120,7.447 11.345,7.425 11.380 C 7.386 11.442,6.474 11.634,4.410 12.014 C 3.281 12.223,2.952 12.359,2.499 12.803 C 2.186 13.109,1.997 13.436,1.821 13.970 C 1.718 14.283,1.716 14.327,1.741 15.720 C 1.771 17.406,1.792 17.538,2.070 17.729 C 2.353 17.923,2.598 17.987,2.825 17.926 C 3.101 17.851,3.338 17.634,3.401 17.397 C 3.431 17.287,3.476 16.598,3.502 15.867 C 3.528 15.135,3.571 14.425,3.599 14.288 C 3.660 13.978,3.682 13.968,4.667 13.773 C 6.599 13.389,22.362 10.615,23.322 10.489 C 23.405 10.478,23.473 10.489,23.473 10.513 C 23.473 10.576,22.882 11.548,22.742 11.714 C 22.677 11.792,22.586 11.876,22.540 11.900 C 22.454 11.946,21.042 12.195,14.350 13.347 C 7.918 14.454,7.504 14.536,7.259 14.751 C 7.081 14.907,6.974 15.224,7.019 15.463 C 7.061 15.689,7.293 15.988,7.513 16.100 C 7.782 16.237,6.880 16.375,18.013 14.496 C 21.282 13.945,21.280 13.945,21.280 14.009 C 21.280 14.035,21.059 14.431,20.788 14.889 C 20.178 15.922,20.099 16.095,20.139 16.309 C 20.243 16.861,20.824 17.217,21.293 17.015 C 21.624 16.873,21.770 16.661,23.882 13.247 C 25.872 10.032,26.248 9.387,26.248 9.191 C 26.248 8.923,26.018 8.588,25.740 8.450 L 25.511 8.336 23.617 8.651 C 22.576 8.824,21.078 9.077,20.289 9.213 L 18.854 9.460 18.412 8.914 C 17.263 7.493,16.113 6.730,14.967 6.626 C 14.415 6.576,14.197 6.577,13.737 6.631 M15.280 8.487 C 15.406 8.544,15.648 8.682,15.816 8.794 C 16.164 9.026,16.800 9.631,16.800 9.730 C 16.800 9.810,16.650 9.851,15.797 10.005 C 14.894 10.168,9.531 11.107,9.504 11.107 C 9.492 11.107,9.512 10.996,9.548 10.862 C 9.653 10.476,9.753 9.762,9.753 9.392 C 9.753 9.206,9.763 9.053,9.776 9.053 C 9.788 9.053,10.612 8.919,11.607 8.754 C 12.602 8.590,13.553 8.434,13.720 8.408 C 13.887 8.382,14.254 8.366,14.537 8.372 C 14.948 8.382,15.096 8.405,15.280 8.487 M5.146 18.048 C 5.064 18.093,4.812 18.290,4.587 18.485 C 3.769 19.192,3.200 19.540,2.538 19.735 C 2.149 19.850,1.992 19.961,1.865 20.209 C 1.545 20.837,2.110 21.539,2.865 21.450 C 3.425 21.384,4.310 20.977,5.055 20.442 L 5.466 20.146 5.755 20.347 C 6.445 20.825,6.574 20.907,6.887 21.064 C 7.438 21.340,7.869 21.435,8.445 21.409 C 9.221 21.373,9.831 21.111,10.746 20.421 L 11.156 20.111 11.470 20.362 C 12.430 21.129,13.126 21.420,14.000 21.420 C 14.875 21.420,15.554 21.136,16.530 20.361 L 16.844 20.112 17.277 20.440 C 17.755 20.802,18.690 21.289,19.075 21.374 C 19.486 21.466,20.139 21.445,20.487 21.329 C 20.986 21.162,21.519 20.872,22.045 20.482 L 22.541 20.113 22.795 20.320 C 23.916 21.233,25.205 21.667,25.795 21.329 C 26.161 21.120,26.330 20.577,26.145 20.208 C 26.011 19.940,25.853 19.858,24.986 19.605 C 24.600 19.492,24.281 19.274,23.548 18.620 C 23.001 18.132,22.741 17.967,22.518 17.967 C 22.337 17.967,22.006 18.172,21.658 18.500 C 20.884 19.228,20.269 19.627,19.840 19.678 C 19.358 19.735,18.805 19.452,18.013 18.743 C 17.166 17.984,16.904 17.861,16.540 18.053 C 16.439 18.106,16.091 18.386,15.765 18.676 C 15.137 19.237,14.790 19.474,14.403 19.608 C 14.092 19.715,13.935 19.714,13.566 19.600 C 13.178 19.479,12.837 19.247,12.227 18.684 C 11.220 17.755,11.097 17.750,10.173 18.595 C 9.424 19.281,8.892 19.613,8.441 19.675 C 7.963 19.740,7.410 19.441,6.533 18.644 C 5.829 18.003,5.492 17.859,5.146 18.048 " fill="#1A1C1F" stroke="none" fill-rule="evenodd"></path></svg>