<svg width="14" height="14" viewBox="0 0 14 14" fill="none" xmlns="http://www.w3.org/2000/svg"><path d="M3.975 1.447 C 3.858 1.457,3.701 1.483,3.626 1.505 C 3.149 1.643,2.661 2.004,2.431 2.387 C 2.283 2.633,2.206 2.864,2.122 3.319 C 2.105 3.408,2.082 3.461,2.053 3.477 C 2.029 3.490,1.873 3.500,1.705 3.500 L 1.400 3.500 1.400 4.900 L 1.400 6.300 1.750 6.300 L 2.099 6.300 2.105 8.534 L 2.112 10.768 2.190 10.963 C 2.296 11.227,2.432 11.418,2.632 11.585 L 2.800 11.725 2.800 12.162 L 2.800 12.600 3.675 12.600 L 4.550 12.600 4.550 12.250 L 4.550 11.900 7.000 11.900 L 9.450 11.900 9.450 12.250 L 9.450 12.600 10.325 12.600 L 11.200 12.600 11.200 12.171 L 11.200 11.742 11.389 11.558 C 11.623 11.330,11.734 11.166,11.827 10.909 L 11.900 10.708 11.900 8.504 L 11.900 6.300 12.250 6.300 L 12.600 6.300 12.600 4.900 L 12.600 3.500 12.289 3.500 C 12.077 3.500,11.967 3.491,11.941 3.471 C 11.916 3.452,11.882 3.341,11.846 3.158 C 11.748 2.673,11.577 2.338,11.270 2.030 C 11.057 1.818,10.917 1.724,10.620 1.596 C 10.234 1.429,10.441 1.439,7.152 1.433 C 5.522 1.431,4.093 1.437,3.975 1.447 M10.083 2.885 C 10.231 2.954,10.395 3.117,10.430 3.232 C 10.466 3.349,10.495 4.722,10.498 6.349 L 10.500 7.531 10.319 7.546 C 9.471 7.615,7.909 7.677,6.988 7.676 C 6.056 7.676,4.532 7.616,3.681 7.546 L 3.500 7.531 3.502 6.373 C 3.503 5.736,3.511 4.785,3.520 4.258 L 3.536 3.302 3.604 3.177 C 3.721 2.966,3.876 2.868,4.130 2.845 C 4.226 2.836,5.581 2.830,7.140 2.832 L 9.975 2.835 10.083 2.885 M4.900 4.095 L 4.900 4.690 7.000 4.690 L 9.100 4.690 9.100 4.095 L 9.100 3.500 7.000 3.500 L 4.900 3.500 4.900 4.095 M4.527 9.462 L 4.527 9.987 4.013 9.987 L 3.500 9.987 3.500 9.462 L 3.500 8.937 4.013 8.937 L 4.527 8.937 4.527 9.462 M10.570 9.234 C 10.570 9.398,10.563 9.634,10.555 9.759 L 10.540 9.987 10.030 9.987 L 9.520 9.987 9.520 9.462 L 9.520 8.937 10.045 8.937 L 10.570 8.937 10.570 9.234 " fill="#1A1C1F" stroke="none" fill-rule="evenodd"></path></svg>