<svg width="12" height="12" viewBox="0 0 12 12" fill="none" xmlns="http://www.w3.org/2000/svg"><path d="M3.410 1.241 C 2.881 1.282,2.346 1.609,2.082 2.055 C 1.971 2.240,1.884 2.487,1.838 2.740 C 1.812 2.880,1.788 2.958,1.766 2.975 C 1.743 2.992,1.648 3.000,1.466 3.000 L 1.200 3.000 1.200 4.200 L 1.200 5.400 1.500 5.400 L 1.800 5.400 1.800 7.295 L 1.800 9.191 1.859 9.345 C 1.975 9.645,2.082 9.799,2.281 9.954 L 2.400 10.046 2.400 10.423 L 2.400 10.800 3.150 10.800 L 3.900 10.800 3.900 10.500 L 3.900 10.200 6.000 10.200 L 8.100 10.200 8.100 10.500 L 8.100 10.800 8.850 10.800 L 9.600 10.800 9.600 10.435 L 9.600 10.070 9.797 9.868 C 10.001 9.661,10.071 9.548,10.161 9.286 C 10.199 9.178,10.200 9.102,10.200 7.287 L 10.200 5.400 10.500 5.400 L 10.800 5.400 10.800 4.200 L 10.800 3.000 10.534 3.000 C 10.352 3.000,10.257 2.992,10.234 2.975 C 10.213 2.959,10.186 2.874,10.159 2.732 C 10.075 2.295,9.927 2.004,9.650 1.730 C 9.473 1.556,9.350 1.474,9.103 1.368 C 8.772 1.225,8.948 1.233,6.140 1.229 C 4.748 1.227,3.520 1.232,3.410 1.241 M8.642 2.473 C 8.770 2.532,8.910 2.672,8.940 2.770 C 8.971 2.872,8.996 4.032,8.998 5.422 L 9.000 6.455 8.845 6.468 C 7.217 6.603,5.374 6.611,3.517 6.490 C 3.268 6.473,3.050 6.460,3.032 6.460 C 3.003 6.460,3.000 6.366,3.002 5.445 C 3.003 4.887,3.010 4.070,3.017 3.630 C 3.029 2.906,3.034 2.823,3.068 2.760 C 3.180 2.547,3.310 2.458,3.539 2.438 C 3.622 2.431,4.784 2.426,6.120 2.427 L 8.550 2.430 8.642 2.473 M4.200 3.510 L 4.200 4.020 6.000 4.020 L 7.800 4.020 7.800 3.510 L 7.800 3.000 6.000 3.000 L 4.200 3.000 4.200 3.510 M3.880 8.110 L 3.880 8.560 3.440 8.560 L 3.000 8.560 3.000 8.110 L 3.000 7.660 3.440 7.660 L 3.880 7.660 3.880 8.110 M9.060 7.915 C 9.060 8.055,9.054 8.258,9.047 8.365 L 9.034 8.560 8.597 8.560 L 8.160 8.560 8.160 8.110 L 8.160 7.660 8.610 7.660 L 9.060 7.660 9.060 7.915 " fill="#1A1C1F" stroke="none" fill-rule="evenodd"></path></svg>