<svg width="16" height="16" viewBox="0 0 16 16" fill="none" xmlns="http://www.w3.org/2000/svg"><path d="M4.535 1.654 C 3.849 1.712,3.124 2.156,2.778 2.729 C 2.610 3.008,2.522 3.273,2.425 3.793 C 2.406 3.895,2.380 3.956,2.347 3.973 C 2.319 3.988,2.140 4.000,1.948 4.000 L 1.600 4.000 1.600 5.600 L 1.600 7.200 2.000 7.200 L 2.400 7.200 2.400 9.727 L 2.400 12.255 2.482 12.467 C 2.631 12.856,2.806 13.102,3.067 13.294 L 3.200 13.391 3.200 13.896 L 3.200 14.400 4.200 14.400 L 5.200 14.400 5.200 14.000 L 5.200 13.600 8.000 13.600 L 10.800 13.600 10.800 14.000 L 10.800 14.400 11.800 14.400 L 12.800 14.400 12.800 13.909 L 12.800 13.418 12.991 13.236 C 13.255 12.983,13.390 12.791,13.503 12.508 L 13.600 12.266 13.600 9.733 L 13.600 7.200 14.000 7.200 L 14.400 7.200 14.400 5.600 L 14.400 4.000 14.045 4.000 C 13.803 4.000,13.676 3.989,13.646 3.967 C 13.617 3.945,13.582 3.832,13.546 3.643 C 13.434 3.060,13.237 2.672,12.866 2.307 C 12.631 2.075,12.467 1.966,12.137 1.824 C 11.696 1.633,11.933 1.644,8.173 1.638 C 6.311 1.635,4.673 1.643,4.535 1.654 M11.520 3.296 C 11.691 3.376,11.881 3.565,11.920 3.693 C 11.960 3.826,11.995 5.409,11.998 7.270 L 12.000 8.606 11.793 8.623 C 10.833 8.702,9.043 8.773,8.000 8.773 C 6.950 8.773,5.209 8.704,4.207 8.622 L 4.000 8.606 4.003 7.269 C 4.004 6.535,4.013 5.447,4.023 4.853 L 4.040 3.773 4.119 3.631 C 4.255 3.385,4.431 3.277,4.733 3.251 C 4.851 3.241,6.399 3.235,8.173 3.237 C 11.396 3.240,11.400 3.240,11.520 3.296 M5.600 4.680 L 5.600 5.360 8.000 5.360 L 10.400 5.360 10.400 4.680 L 10.400 4.000 8.000 4.000 L 5.600 4.000 5.600 4.680 M5.173 10.813 L 5.173 11.413 4.587 11.413 L 4.000 11.413 4.000 10.813 L 4.000 10.213 4.587 10.213 L 5.173 10.213 5.173 10.813 M12.080 10.569 C 12.080 10.765,12.072 11.035,12.063 11.169 L 12.045 11.413 11.463 11.413 L 10.880 11.413 10.880 10.813 L 10.880 10.213 11.480 10.213 L 12.080 10.213 12.080 10.569 " fill="#1A1C1F" stroke="none" fill-rule="evenodd"></path></svg>