<svg width="20" height="20" viewBox="0 0 20 20" fill="none" xmlns="http://www.w3.org/2000/svg"><path d="M6.800 2.102 C 5.384 2.132,5.260 2.152,4.716 2.425 C 4.081 2.744,3.622 3.246,3.382 3.884 C 3.278 4.158,3.168 4.632,3.167 4.808 L 3.167 4.933 2.683 4.933 L 2.200 4.933 2.200 6.933 L 2.200 8.933 2.662 8.933 L 3.124 8.933 3.143 11.975 C 3.155 13.871,3.176 15.105,3.198 15.250 C 3.251 15.598,3.415 15.902,3.732 16.241 L 4.000 16.527 4.000 17.230 L 4.000 17.933 5.250 17.933 L 6.500 17.933 6.500 17.350 L 6.500 16.767 10.000 16.767 L 13.500 16.767 13.500 17.350 L 13.500 17.933 14.750 17.933 L 16.000 17.933 16.000 17.222 L 16.000 16.510 16.259 16.247 C 16.569 15.932,16.745 15.606,16.801 15.249 C 16.824 15.102,16.844 13.896,16.857 11.975 L 16.876 8.933 17.338 8.933 L 17.800 8.933 17.800 6.933 L 17.800 4.933 17.321 4.933 L 16.843 4.933 16.822 4.732 C 16.774 4.273,16.576 3.693,16.352 3.356 C 16.215 3.148,15.840 2.771,15.632 2.630 C 15.392 2.467,15.001 2.280,14.744 2.203 C 14.511 2.134,14.424 2.131,11.494 2.100 C 9.838 2.083,8.356 2.070,8.200 2.073 C 8.044 2.076,7.414 2.089,6.800 2.102 M13.000 3.917 L 13.000 4.667 10.000 4.667 L 7.000 4.667 7.000 3.917 L 7.000 3.167 10.000 3.167 L 13.000 3.167 13.000 3.917 M15.123 8.605 C 15.111 10.221,15.095 11.549,15.088 11.556 C 15.044 11.601,13.284 11.800,12.283 11.873 C 11.528 11.929,8.472 11.929,7.717 11.873 C 6.711 11.799,4.956 11.601,4.911 11.556 C 4.904 11.549,4.889 10.221,4.877 8.605 L 4.856 5.667 10.000 5.667 L 15.144 5.667 15.123 8.605 M6.233 13.286 C 6.462 13.392,6.614 13.535,6.726 13.750 C 6.797 13.887,6.813 13.962,6.813 14.167 C 6.812 14.450,6.743 14.632,6.548 14.860 C 6.371 15.066,6.188 15.140,5.850 15.140 C 5.511 15.140,5.329 15.066,5.147 14.855 C 4.939 14.614,4.900 14.505,4.900 14.166 C 4.900 13.950,4.916 13.833,4.955 13.757 C 5.206 13.271,5.761 13.067,6.233 13.286 M14.474 13.298 C 14.836 13.481,14.974 13.711,14.993 14.167 L 15.006 14.483 14.876 14.683 C 14.683 14.979,14.363 15.167,14.051 15.167 C 13.742 15.167,13.410 14.977,13.218 14.693 C 13.103 14.523,13.100 14.509,13.100 14.200 C 13.101 13.938,13.114 13.854,13.179 13.715 C 13.286 13.484,13.517 13.299,13.783 13.229 C 13.972 13.180,14.306 13.214,14.474 13.298 " fill="#1A1C1F" stroke="none" fill-rule="evenodd"></path></svg>