<svg width="14" height="14" viewBox="0 0 14 14" fill="none" xmlns="http://www.w3.org/2000/svg"><path d="M4.032 1.494 C 3.731 1.517,3.579 1.558,3.312 1.692 C 2.859 1.920,2.536 2.271,2.367 2.719 C 2.295 2.911,2.218 3.242,2.217 3.366 L 2.217 3.453 1.878 3.453 L 1.540 3.453 1.540 4.853 L 1.540 6.253 1.864 6.253 L 2.187 6.253 2.200 8.383 C 2.208 9.716,2.223 10.573,2.238 10.675 C 2.276 10.918,2.391 11.131,2.612 11.368 L 2.800 11.569 2.800 12.061 L 2.800 12.553 3.675 12.553 L 4.550 12.553 4.550 12.145 L 4.550 11.737 7.000 11.737 L 9.450 11.737 9.450 12.145 L 9.450 12.553 10.325 12.553 L 11.200 12.553 11.200 12.055 L 11.200 11.557 11.381 11.373 C 11.598 11.152,11.722 10.925,11.761 10.675 C 11.777 10.571,11.791 9.733,11.800 8.383 L 11.813 6.253 12.137 6.253 L 12.460 6.253 12.460 4.853 L 12.460 3.453 12.124 3.453 L 11.789 3.453 11.772 3.301 C 11.748 3.068,11.653 2.746,11.546 2.527 C 11.474 2.380,11.402 2.278,11.262 2.130 C 11.048 1.905,10.880 1.783,10.608 1.656 C 10.227 1.478,10.412 1.487,7.175 1.481 C 5.584 1.477,4.169 1.483,4.032 1.494 M9.100 2.742 L 9.100 3.267 7.000 3.267 L 4.900 3.267 4.900 2.742 L 4.900 2.217 7.000 2.217 L 9.100 2.217 9.100 2.742 M10.586 6.024 C 10.578 7.155,10.567 8.084,10.562 8.089 C 10.531 8.120,9.284 8.261,8.598 8.311 C 8.036 8.352,5.964 8.352,5.402 8.311 C 4.713 8.261,3.469 8.120,3.437 8.088 C 3.433 8.084,3.422 7.154,3.414 6.023 L 3.399 3.967 7.000 3.967 L 10.601 3.967 10.586 6.024 M4.363 9.300 C 4.523 9.374,4.630 9.475,4.708 9.625 C 4.791 9.783,4.794 10.039,4.716 10.200 C 4.641 10.356,4.519 10.488,4.396 10.548 C 4.245 10.621,3.944 10.621,3.793 10.547 C 3.678 10.492,3.546 10.354,3.475 10.215 C 3.415 10.099,3.411 9.741,3.469 9.630 C 3.644 9.290,4.033 9.147,4.363 9.300 M10.132 9.309 C 10.375 9.431,10.479 9.598,10.495 9.888 C 10.509 10.132,10.471 10.239,10.314 10.399 C 10.152 10.565,10.060 10.605,9.847 10.603 C 9.578 10.602,9.392 10.501,9.242 10.274 C 9.174 10.172,9.170 10.153,9.170 9.942 C 9.170 9.757,9.180 9.698,9.225 9.601 C 9.301 9.439,9.462 9.309,9.648 9.261 C 9.781 9.226,10.014 9.250,10.132 9.309 " fill="#1A1C1F" stroke="none" fill-rule="evenodd"></path></svg>