<svg width="28" height="28" viewBox="0 0 28 28" fill="none" xmlns="http://www.w3.org/2000/svg"><path d="M7.723 1.865 C 6.869 1.899,6.774 1.921,6.216 2.216 C 5.562 2.561,5.094 3.048,4.774 3.717 C 4.369 4.563,4.370 4.531,4.404 13.720 C 4.421 18.477,4.449 21.481,4.478 21.618 C 4.542 21.927,4.722 22.289,4.987 22.644 L 5.213 22.946 5.240 23.851 C 5.271 24.887,5.332 25.193,5.581 25.557 C 5.915 26.045,6.392 26.214,7.560 26.258 C 8.380 26.289,8.976 26.231,9.429 26.079 C 9.665 25.999,9.787 25.920,9.994 25.713 C 10.349 25.359,10.454 25.037,10.488 24.208 L 10.512 23.613 13.999 23.613 L 17.486 23.613 17.514 24.232 C 17.550 25.035,17.659 25.408,17.937 25.687 C 18.395 26.145,19.022 26.297,20.300 26.261 C 21.310 26.232,21.683 26.155,22.041 25.898 C 22.321 25.698,22.561 25.374,22.636 25.096 C 22.718 24.792,22.773 24.178,22.773 23.557 L 22.773 22.964 23.006 22.653 C 23.310 22.246,23.461 21.920,23.525 21.529 C 23.562 21.305,23.584 18.755,23.600 13.020 L 23.622 4.830 23.472 4.363 C 23.121 3.271,22.632 2.663,21.719 2.183 C 21.048 1.831,21.546 1.855,14.677 1.843 C 11.289 1.837,8.160 1.847,7.723 1.865 M18.248 3.539 L 20.559 3.570 20.875 3.726 C 21.269 3.920,21.447 4.095,21.643 4.483 L 21.796 4.785 21.847 9.404 C 21.874 11.945,21.882 14.426,21.863 14.918 L 21.830 15.812 21.543 15.861 C 21.163 15.927,20.281 16.034,18.970 16.174 C 16.659 16.420,11.560 16.431,9.193 16.195 C 8.005 16.076,6.781 15.928,6.434 15.861 L 6.171 15.810 6.135 13.727 C 6.095 11.373,6.141 5.918,6.206 5.191 C 6.276 4.420,6.458 4.109,7.032 3.779 L 7.397 3.570 9.847 3.545 C 13.522 3.507,15.689 3.506,18.248 3.539 M10.445 5.318 C 9.329 5.342,9.238 5.350,9.118 5.440 C 8.913 5.592,8.812 5.760,8.786 5.986 C 8.756 6.250,8.836 6.495,9.019 6.703 C 9.297 7.020,8.953 7.000,14.025 7.000 L 18.628 7.000 18.832 6.854 C 19.027 6.713,19.183 6.467,19.253 6.188 C 19.290 6.040,19.103 5.629,18.921 5.457 L 18.799 5.343 17.251 5.313 C 15.471 5.279,12.192 5.281,10.445 5.318 M2.287 6.232 C 2.085 6.323,1.927 6.467,1.831 6.650 C 1.768 6.769,1.753 7.072,1.736 8.661 C 1.713 10.713,1.715 10.734,1.984 11.048 C 2.298 11.415,2.743 11.472,3.126 11.195 C 3.479 10.939,3.476 10.962,3.476 8.750 C 3.477 6.803,3.476 6.789,3.371 6.592 C 3.191 6.255,2.642 6.073,2.287 6.232 M25.108 6.213 C 24.884 6.280,24.699 6.421,24.607 6.595 C 24.539 6.725,24.527 6.989,24.509 8.751 L 24.489 10.758 24.647 10.965 C 24.863 11.248,25.069 11.361,25.364 11.357 C 25.676 11.352,25.927 11.228,26.075 11.005 C 26.245 10.747,26.286 10.159,26.263 8.303 C 26.244 6.812,26.242 6.779,26.136 6.608 C 25.929 6.272,25.483 6.101,25.108 6.213 M7.607 17.779 C 9.769 18.044,10.246 18.069,13.509 18.094 C 17.297 18.122,18.533 18.061,20.852 17.732 C 21.203 17.682,21.569 17.641,21.665 17.641 L 21.840 17.640 21.840 19.453 L 21.840 21.266 21.704 21.453 C 21.630 21.556,21.488 21.690,21.389 21.752 L 21.210 21.863 13.992 21.863 L 6.775 21.863 6.575 21.723 C 6.461 21.643,6.328 21.492,6.267 21.373 C 6.162 21.169,6.159 21.118,6.131 19.507 C 6.099 17.673,6.111 17.566,6.335 17.613 C 6.406 17.628,6.978 17.703,7.607 17.779 M8.493 18.945 C 8.141 19.133,7.887 19.534,7.887 19.901 C 7.887 20.346,8.224 20.800,8.654 20.935 C 9.639 21.246,10.435 20.074,9.811 19.233 C 9.557 18.893,8.872 18.742,8.493 18.945 M18.479 19.005 C 18.060 19.255,17.877 19.743,18.016 20.239 C 18.127 20.635,18.618 21.000,19.040 21.000 C 19.582 21.000,20.115 20.441,20.113 19.875 C 20.112 19.653,19.923 19.271,19.735 19.113 C 19.509 18.922,19.315 18.853,19.004 18.853 C 18.781 18.853,18.687 18.880,18.479 19.005 M8.727 24.057 L 8.727 24.500 7.863 24.500 L 7.000 24.500 7.000 24.057 L 7.000 23.613 7.863 23.613 L 8.727 23.613 8.727 24.057 M21.000 24.057 L 21.000 24.500 20.137 24.500 L 19.273 24.500 19.273 24.057 L 19.273 23.613 20.137 23.613 L 21.000 23.613 21.000 24.057 " fill="#1A1C1F" stroke="none" fill-rule="evenodd"></path></svg>