<svg width="12" height="12" viewBox="0 0 12 12" fill="none" xmlns="http://www.w3.org/2000/svg"><path d="M4.030 1.261 C 3.239 1.280,3.153 1.293,2.839 1.450 C 2.452 1.643,2.175 1.945,2.029 2.330 C 1.967 2.495,1.901 2.779,1.900 2.885 L 1.900 2.960 1.610 2.960 L 1.320 2.960 1.320 4.160 L 1.320 5.360 1.597 5.360 L 1.875 5.360 1.886 7.185 C 1.893 8.347,1.905 9.060,1.919 9.149 C 1.952 9.360,2.050 9.542,2.239 9.744 L 2.400 9.916 2.400 10.338 L 2.400 10.760 3.150 10.760 L 3.900 10.760 3.900 10.410 L 3.900 10.060 6.000 10.060 L 8.100 10.060 8.100 10.410 L 8.100 10.760 8.850 10.760 L 9.600 10.760 9.600 10.333 L 9.600 9.906 9.755 9.748 C 9.941 9.559,10.047 9.364,10.081 9.150 C 10.094 9.061,10.107 8.338,10.114 7.185 L 10.126 5.360 10.403 5.360 L 10.680 5.360 10.680 4.160 L 10.680 2.960 10.393 2.960 L 10.106 2.960 10.093 2.835 C 10.073 2.643,9.988 2.353,9.896 2.162 C 9.825 2.016,9.781 1.959,9.601 1.779 C 9.418 1.595,9.364 1.554,9.190 1.466 C 8.802 1.268,8.948 1.282,6.946 1.260 C 5.053 1.239,4.963 1.240,4.030 1.261 M7.800 2.350 L 7.800 2.800 6.000 2.800 L 4.200 2.800 4.200 2.350 L 4.200 1.900 6.000 1.900 L 7.800 1.900 7.800 2.350 M9.074 5.163 C 9.067 6.132,9.058 6.929,9.054 6.933 C 9.026 6.960,7.962 7.081,7.370 7.124 C 6.888 7.158,5.112 7.158,4.630 7.124 C 4.041 7.081,2.974 6.960,2.946 6.933 C 2.942 6.929,2.933 6.133,2.926 5.163 L 2.913 3.400 6.000 3.400 L 9.087 3.400 9.074 5.163 M3.740 7.971 C 4.032 8.107,4.159 8.406,4.054 8.710 C 4.010 8.838,3.884 8.985,3.772 9.039 C 3.646 9.100,3.374 9.100,3.248 9.039 C 3.153 8.993,3.039 8.874,2.978 8.756 C 2.927 8.656,2.924 8.349,2.973 8.254 C 3.124 7.962,3.456 7.840,3.740 7.971 M8.681 7.976 C 8.794 8.030,8.890 8.123,8.945 8.229 C 9.004 8.342,9.018 8.608,8.972 8.729 C 8.933 8.831,8.776 8.999,8.674 9.047 C 8.425 9.165,8.107 9.068,7.935 8.822 C 7.861 8.714,7.860 8.711,7.860 8.522 C 7.860 8.363,7.868 8.313,7.907 8.229 C 7.974 8.085,8.118 7.973,8.280 7.938 C 8.403 7.911,8.584 7.928,8.681 7.976 " fill="#1A1C1F" stroke="none" fill-rule="evenodd"></path></svg>