<svg width="16" height="16" viewBox="0 0 16 16" fill="none" xmlns="http://www.w3.org/2000/svg"><path d="M5.413 1.682 C 4.307 1.706,4.206 1.722,3.772 1.940 C 3.265 2.195,2.898 2.597,2.705 3.107 C 2.622 3.327,2.535 3.705,2.534 3.847 L 2.533 3.947 2.147 3.947 L 1.760 3.947 1.760 5.547 L 1.760 7.147 2.130 7.147 L 2.500 7.147 2.515 9.580 C 2.524 11.112,2.540 12.083,2.558 12.200 C 2.601 12.478,2.732 12.722,2.986 12.992 L 3.200 13.222 3.200 13.784 L 3.200 14.347 4.200 14.347 L 5.200 14.347 5.200 13.880 L 5.200 13.413 8.000 13.413 L 10.800 13.413 10.800 13.880 L 10.800 14.347 11.800 14.347 L 12.800 14.347 12.800 13.777 L 12.800 13.208 13.011 12.994 C 13.259 12.743,13.396 12.489,13.441 12.198 C 13.459 12.081,13.476 11.122,13.485 9.580 L 13.501 7.147 13.870 7.147 L 14.240 7.147 14.240 5.547 L 14.240 3.947 13.856 3.947 L 13.473 3.947 13.454 3.772 C 13.427 3.521,13.323 3.153,13.213 2.921 C 13.024 2.523,12.678 2.178,12.240 1.950 C 11.744 1.692,11.937 1.709,9.195 1.680 C 7.871 1.666,6.673 1.656,6.533 1.658 C 6.394 1.661,5.890 1.671,5.413 1.682 M10.400 3.133 L 10.400 3.733 8.000 3.733 L 5.600 3.733 5.600 3.133 L 5.600 2.533 8.000 2.533 L 10.400 2.533 10.400 3.133 M12.098 6.884 C 12.089 8.177,12.077 9.238,12.072 9.243 C 12.037 9.278,10.770 9.426,10.000 9.485 C 9.149 9.550,6.851 9.550,6.000 9.485 C 5.226 9.426,3.963 9.278,3.927 9.243 C 3.922 9.238,3.911 8.176,3.901 6.884 L 3.885 4.533 8.000 4.533 L 12.115 4.533 12.098 6.884 M4.987 10.629 C 5.170 10.713,5.291 10.828,5.381 11.000 C 5.475 11.180,5.479 11.473,5.390 11.657 C 5.304 11.836,5.165 11.987,5.024 12.055 C 4.851 12.138,4.508 12.138,4.334 12.054 C 4.204 11.991,4.053 11.833,3.971 11.674 C 3.903 11.542,3.898 11.132,3.964 11.005 C 4.165 10.617,4.609 10.453,4.987 10.629 M11.575 10.634 C 11.858 10.772,11.978 10.969,11.995 11.327 C 12.006 11.569,12.005 11.577,11.917 11.723 C 11.584 12.278,10.826 12.253,10.532 11.678 C 10.465 11.546,10.437 11.276,10.477 11.132 C 10.543 10.886,10.778 10.644,11.005 10.588 C 11.173 10.546,11.439 10.568,11.575 10.634 " fill="#1A1C1F" stroke="none" fill-rule="evenodd"></path></svg>