<svg width="20" height="20" viewBox="0 0 20 20" fill="none" xmlns="http://www.w3.org/2000/svg"><path d="M5.689 2.069 C 5.509 2.084,5.277 2.121,5.173 2.152 C 4.499 2.348,3.800 2.865,3.472 3.411 C 3.261 3.762,3.152 4.092,3.031 4.742 C 3.007 4.869,2.974 4.945,2.933 4.967 C 2.899 4.985,2.675 5.000,2.436 5.000 L 2.000 5.000 2.000 7.000 L 2.000 9.000 2.500 9.000 L 2.999 9.000 3.008 12.192 L 3.017 15.383 3.129 15.662 C 3.281 16.039,3.474 16.311,3.760 16.550 L 4.000 16.750 4.000 17.375 L 4.000 18.000 5.250 18.000 L 6.500 18.000 6.500 17.500 L 6.500 17.000 10.000 17.000 L 13.500 17.000 13.500 17.500 L 13.500 18.000 14.750 18.000 L 16.000 18.000 16.000 17.387 L 16.000 16.774 16.269 16.512 C 16.605 16.186,16.763 15.951,16.896 15.584 L 17.000 15.297 17.000 12.148 L 17.000 9.000 17.500 9.000 L 18.000 9.000 18.000 7.000 L 18.000 5.000 17.556 5.000 C 17.253 5.000,17.095 4.987,17.057 4.958 C 17.021 4.931,16.977 4.790,16.932 4.553 C 16.792 3.825,16.546 3.340,16.083 2.883 C 15.789 2.594,15.583 2.457,15.171 2.279 C 14.621 2.042,14.913 2.055,10.233 2.048 C 7.914 2.044,5.869 2.053,5.689 2.069 M14.404 4.121 C 14.616 4.219,14.851 4.453,14.900 4.617 C 14.952 4.789,14.994 6.657,14.997 8.987 L 15.000 10.757 14.725 10.779 C 11.612 11.020,8.388 11.020,5.275 10.779 L 5.000 10.757 5.003 9.070 C 5.005 8.143,5.017 6.783,5.029 6.050 L 5.051 4.717 5.149 4.539 C 5.321 4.227,5.539 4.095,5.933 4.064 C 6.089 4.052,8.024 4.044,10.233 4.046 L 14.250 4.050 14.404 4.121 M7.000 5.850 L 7.000 6.700 10.000 6.700 L 13.000 6.700 13.000 5.850 L 13.000 5.000 10.000 5.000 L 7.000 5.000 7.000 5.850 M6.467 13.517 L 6.467 14.267 5.733 14.267 L 5.000 14.267 5.000 13.517 L 5.000 12.767 5.733 12.767 L 6.467 12.767 6.467 13.517 M15.100 13.161 C 15.100 13.379,15.090 13.716,15.078 13.911 L 15.057 14.267 14.328 14.267 L 13.600 14.267 13.600 13.517 L 13.600 12.767 14.350 12.767 L 15.100 12.767 15.100 13.161 " fill="#1A1C1F" stroke="none" fill-rule="evenodd"></path></svg>