<svg width="24" height="24" viewBox="0 0 24 24" fill="none" xmlns="http://www.w3.org/2000/svg"><path d="M6.500 2.080 C 6.193 2.117,5.689 2.314,5.374 2.520 C 5.004 2.762,4.509 3.306,4.343 3.652 C 4.110 4.136,4.069 4.365,3.976 5.733 L 3.952 6.086 3.786 6.057 C 3.340 5.980,2.962 6.099,2.718 6.395 C 2.519 6.637,2.502 6.798,2.502 8.500 C 2.501 10.349,2.508 10.396,2.812 10.688 C 3.078 10.943,3.323 11.023,3.672 10.970 C 3.810 10.950,3.932 10.947,3.942 10.964 C 3.953 10.981,3.979 12.657,3.999 14.688 C 4.021 16.824,4.054 18.468,4.077 18.588 C 4.159 19.013,4.497 19.673,4.813 20.024 L 4.990 20.221 5.006 20.765 C 5.021 21.287,5.027 21.318,5.142 21.504 C 5.321 21.793,5.528 21.921,5.885 21.962 C 6.301 22.010,6.960 22.008,7.197 21.957 C 7.307 21.933,7.455 21.875,7.527 21.827 C 7.708 21.704,7.915 21.421,7.968 21.221 L 8.013 21.052 8.517 21.026 C 8.794 21.012,10.588 21.000,12.506 21.000 L 15.991 21.000 16.019 21.150 C 16.034 21.233,16.094 21.388,16.152 21.495 C 16.379 21.913,16.702 22.020,17.640 21.990 C 18.340 21.968,18.458 21.934,18.688 21.695 C 18.917 21.456,18.969 21.289,18.991 20.720 L 19.011 20.220 19.180 20.032 C 19.396 19.791,19.646 19.369,19.807 18.973 C 19.935 18.660,19.935 18.659,19.964 17.680 C 19.980 17.141,19.995 15.575,19.997 14.200 C 19.999 12.825,20.012 11.523,20.026 11.308 L 20.052 10.915 20.216 10.948 C 20.486 11.001,20.728 10.978,20.920 10.882 C 21.487 10.596,21.541 10.354,21.510 8.236 C 21.487 6.659,21.478 6.604,21.209 6.335 C 20.998 6.124,20.821 6.061,20.424 6.055 C 20.168 6.051,20.060 6.034,20.039 5.995 C 20.023 5.965,20.000 5.652,19.988 5.300 C 19.970 4.802,19.943 4.574,19.865 4.271 C 19.701 3.632,19.567 3.396,19.122 2.960 C 18.498 2.348,18.076 2.145,17.286 2.080 C 16.750 2.035,6.871 2.035,6.500 2.080 M17.420 4.113 C 17.570 4.178,17.739 4.338,17.853 4.520 L 17.940 4.660 17.952 8.690 C 17.960 11.514,17.951 12.720,17.921 12.720 C 17.898 12.720,17.497 12.765,17.029 12.819 C 14.949 13.061,13.973 13.120,12.000 13.120 C 10.027 13.120,9.051 13.061,6.971 12.819 C 6.503 12.765,6.103 12.720,6.081 12.720 C 6.053 12.720,6.040 11.398,6.040 8.730 L 6.041 4.740 6.160 4.533 C 6.342 4.214,6.508 4.109,6.875 4.077 C 7.043 4.062,9.457 4.053,12.240 4.055 C 16.323 4.059,17.323 4.070,17.420 4.113 M9.500 5.037 C 8.714 5.059,8.650 5.066,8.512 5.152 C 8.188 5.353,8.028 5.636,8.030 5.999 C 8.031 6.324,8.073 6.431,8.289 6.666 C 8.587 6.990,8.348 6.969,11.981 6.991 C 15.552 7.013,15.289 7.029,15.624 6.774 C 15.769 6.664,15.942 6.362,15.981 6.151 C 16.044 5.811,15.818 5.332,15.514 5.161 C 15.354 5.072,15.288 5.064,14.462 5.036 C 13.469 5.002,10.770 5.003,9.500 5.037 M7.020 14.838 C 9.178 15.075,10.200 15.136,12.000 15.136 C 13.493 15.136,14.221 15.104,15.600 14.978 C 16.335 14.910,17.616 14.773,17.857 14.735 L 18.013 14.711 17.986 16.446 C 17.971 17.400,17.941 18.245,17.920 18.323 C 17.898 18.401,17.815 18.541,17.736 18.634 C 17.475 18.939,17.505 18.933,15.960 18.965 C 13.896 19.006,7.556 19.003,7.114 18.960 C 6.633 18.914,6.436 18.836,6.273 18.631 C 6.060 18.362,6.044 18.225,6.014 16.389 L 5.987 14.711 6.143 14.735 C 6.230 14.749,6.624 14.795,7.020 14.838 M7.789 16.044 C 7.317 16.153,7.026 16.519,7.026 17.000 C 7.026 17.452,7.302 17.814,7.743 17.943 C 8.125 18.054,8.468 17.947,8.737 17.632 C 9.002 17.323,9.057 16.908,8.879 16.560 C 8.688 16.186,8.191 15.951,7.789 16.044 M15.617 16.095 C 15.432 16.178,15.206 16.392,15.109 16.576 C 14.998 16.787,14.992 17.195,15.097 17.400 C 15.196 17.594,15.390 17.791,15.580 17.892 C 15.803 18.011,16.198 18.010,16.426 17.890 C 16.788 17.699,17.038 17.234,16.982 16.857 C 16.948 16.633,16.748 16.336,16.527 16.181 C 16.376 16.076,16.314 16.059,16.047 16.050 C 15.849 16.043,15.696 16.059,15.617 16.095 " fill="#1A1C1F" stroke="none" fill-rule="evenodd"></path></svg>