<svg width="28" height="28" viewBox="0 0 28 28" fill="none" xmlns="http://www.w3.org/2000/svg"><path d="M7.397 2.798 C 6.437 2.867,5.426 3.557,4.956 4.467 C 4.636 5.084,4.576 5.400,4.520 6.767 C 4.455 8.369,4.495 21.214,4.567 21.691 C 4.631 22.117,4.735 22.353,5.003 22.681 L 5.214 22.938 5.239 23.731 C 5.268 24.624,5.312 24.828,5.525 25.041 C 5.747 25.263,6.037 25.306,7.181 25.285 C 7.954 25.271,8.171 25.252,8.283 25.192 C 8.614 25.013,8.724 24.735,8.760 23.975 L 8.787 23.427 14.000 23.427 L 19.214 23.427 19.239 23.975 C 19.273 24.732,19.383 25.012,19.717 25.192 C 19.829 25.252,20.046 25.271,20.819 25.285 C 21.963 25.306,22.253 25.263,22.475 25.041 C 22.688 24.828,22.732 24.624,22.761 23.731 L 22.786 22.938 22.997 22.681 C 23.280 22.335,23.365 22.127,23.436 21.605 C 23.516 21.026,23.513 6.310,23.433 5.706 C 23.266 4.434,22.505 3.443,21.316 2.948 C 21.025 2.827,21.012 2.826,19.367 2.795 C 17.302 2.755,7.966 2.758,7.397 2.798 M18.637 3.671 C 18.786 3.695,18.841 3.737,18.952 3.913 C 19.111 4.164,19.123 4.372,18.994 4.657 C 18.819 5.041,19.155 5.017,13.977 5.014 C 8.794 5.010,9.177 5.039,8.998 4.635 C 8.855 4.312,8.910 4.051,9.176 3.785 L 9.383 3.578 13.920 3.609 C 16.415 3.627,18.538 3.654,18.637 3.671 M21.966 11.766 C 21.950 14.413,21.929 16.587,21.920 16.596 C 21.895 16.621,20.728 16.787,20.020 16.866 C 15.958 17.321,12.080 17.328,8.173 16.890 C 7.246 16.786,6.112 16.627,6.081 16.597 C 6.071 16.587,6.050 14.412,6.034 11.766 L 6.005 6.953 14.000 6.953 L 21.995 6.953 21.966 11.766 M2.288 8.082 C 1.894 8.286,1.890 8.303,1.890 9.987 C 1.890 11.363,1.896 11.468,1.983 11.643 C 2.228 12.132,2.970 12.170,3.243 11.708 C 3.332 11.559,3.337 11.466,3.337 10.033 C 3.337 8.716,3.326 8.494,3.259 8.345 C 3.112 8.023,2.647 7.896,2.288 8.082 M25.023 8.071 C 24.672 8.234,24.663 8.282,24.663 10.033 C 24.663 11.397,24.672 11.565,24.746 11.701 C 24.989 12.146,25.689 12.146,25.984 11.700 L 26.110 11.510 26.110 10.037 C 26.110 8.656,26.104 8.552,26.017 8.378 C 25.847 8.040,25.393 7.900,25.023 8.071 M7.879 19.129 C 8.319 19.354,8.622 19.901,8.572 20.382 C 8.502 21.062,7.996 21.547,7.347 21.556 C 6.573 21.568,6.061 21.065,6.061 20.292 C 6.061 19.642,6.334 19.250,6.922 19.058 C 7.177 18.974,7.643 19.009,7.879 19.129 M21.335 19.166 C 21.754 19.394,21.939 19.737,21.939 20.287 C 21.939 20.892,21.635 21.338,21.120 21.491 C 20.476 21.684,19.883 21.456,19.574 20.898 C 19.456 20.684,19.437 20.602,19.438 20.300 C 19.439 19.897,19.565 19.598,19.849 19.326 C 20.214 18.975,20.857 18.906,21.335 19.166 " fill="#1A1C1F" stroke="none" fill-rule="evenodd"></path></svg>