<svg width="32" height="32" viewBox="0 0 32 32" fill="none" xmlns="http://www.w3.org/2000/svg"><path d="M8.800 2.131 C 7.853 2.171,7.737 2.198,7.104 2.532 C 6.356 2.926,5.821 3.483,5.456 4.248 C 4.993 5.216,4.994 5.179,5.033 15.680 C 5.053 21.104,5.085 24.550,5.117 24.706 C 5.191 25.062,5.397 25.473,5.707 25.889 L 5.973 26.245 5.974 26.949 C 5.974 27.772,6.043 28.447,6.162 28.807 C 6.262 29.109,6.651 29.563,6.931 29.705 C 7.405 29.947,7.753 29.997,8.960 29.997 C 10.486 29.997,10.969 29.880,11.421 29.405 C 11.817 28.988,11.997 28.395,11.999 27.507 L 12.000 26.987 15.992 26.987 L 19.984 26.987 20.015 27.693 C 20.055 28.609,20.180 29.036,20.500 29.356 C 21.023 29.880,21.739 30.054,23.200 30.012 C 24.354 29.980,24.781 29.891,25.190 29.598 C 25.510 29.369,25.784 28.999,25.870 28.681 C 25.963 28.334,26.026 27.632,26.026 26.923 L 26.027 26.246 26.287 25.902 C 26.627 25.452,26.812 25.051,26.886 24.604 C 26.928 24.349,26.953 21.434,26.971 14.880 L 26.996 5.520 26.825 4.987 C 26.424 3.738,25.865 3.043,24.821 2.495 C 24.054 2.092,24.627 2.119,16.747 2.106 C 12.860 2.099,9.284 2.111,8.800 2.131 M20.908 4.045 L 23.496 4.080 23.858 4.258 C 24.307 4.479,24.511 4.680,24.735 5.122 L 24.909 5.467 24.967 10.534 C 25.017 14.907,25.006 17.999,24.939 18.065 C 24.904 18.101,22.965 18.350,21.680 18.483 C 18.951 18.768,13.299 18.781,10.507 18.510 C 9.366 18.399,7.940 18.225,7.380 18.128 L 7.053 18.071 7.012 15.476 C 6.966 12.554,7.014 6.834,7.092 5.955 C 7.173 5.037,7.382 4.689,8.092 4.285 L 8.453 4.080 11.253 4.051 C 15.469 4.008,18.046 4.006,20.908 4.045 M11.884 6.078 C 10.663 6.105,10.557 6.115,10.420 6.217 C 10.187 6.391,10.070 6.583,10.041 6.841 C 10.007 7.142,10.098 7.423,10.307 7.661 C 10.625 8.023,10.230 8.000,16.043 8.000 L 21.318 8.000 21.573 7.776 C 22.009 7.392,22.098 6.937,21.822 6.504 C 21.558 6.088,21.665 6.111,19.792 6.072 C 17.855 6.033,13.811 6.035,11.884 6.078 M2.614 7.122 C 2.382 7.226,2.202 7.391,2.093 7.600 C 2.023 7.733,2.005 8.058,1.986 9.520 C 1.958 11.594,2.005 12.284,2.191 12.556 C 2.493 12.996,3.106 13.120,3.529 12.826 C 3.979 12.512,3.973 12.548,3.973 10.000 C 3.973 7.775,3.973 7.758,3.853 7.534 C 3.647 7.149,3.020 6.940,2.614 7.122 M28.695 7.100 C 28.439 7.177,28.228 7.338,28.122 7.538 C 28.044 7.686,28.030 7.988,28.010 10.001 L 27.987 12.295 28.168 12.532 C 28.414 12.855,28.650 12.984,28.987 12.979 C 29.344 12.974,29.631 12.832,29.800 12.577 C 29.994 12.282,30.041 11.610,30.014 9.479 L 29.993 7.732 29.836 7.511 C 29.582 7.151,29.103 6.978,28.695 7.100 M8.693 20.319 C 11.165 20.622,11.710 20.651,15.439 20.679 C 19.768 20.711,21.181 20.642,23.831 20.265 C 24.232 20.208,24.650 20.161,24.760 20.161 L 24.960 20.160 24.960 22.232 L 24.960 24.304 24.805 24.518 C 24.720 24.635,24.558 24.789,24.445 24.859 L 24.240 24.987 15.991 24.987 L 7.743 24.987 7.514 24.826 C 7.384 24.735,7.233 24.562,7.162 24.426 C 7.043 24.193,7.038 24.135,7.007 22.293 C 6.971 20.197,6.984 20.075,7.240 20.129 C 7.321 20.146,7.975 20.231,8.693 20.319 M9.707 21.651 C 9.308 21.864,9.013 22.324,9.013 22.734 C 9.013 23.210,9.406 23.764,9.850 23.915 C 10.146 24.016,10.321 24.022,10.565 23.938 C 11.466 23.631,11.760 22.585,11.131 21.929 C 11.037 21.831,10.871 21.705,10.762 21.649 C 10.498 21.512,9.964 21.514,9.707 21.651 M21.118 21.720 C 20.446 22.120,20.330 23.052,20.883 23.605 C 21.103 23.826,21.490 24.000,21.760 24.000 C 22.363 24.000,22.987 23.363,22.987 22.747 C 22.987 22.492,22.870 22.194,22.685 21.978 C 22.286 21.511,21.645 21.406,21.118 21.720 M9.973 27.493 L 9.973 28.000 8.987 28.000 L 8.000 28.000 8.000 27.493 L 8.000 26.987 8.987 26.987 L 9.973 26.987 9.973 27.493 M24.000 27.493 L 24.000 28.000 23.013 28.000 L 22.027 28.000 22.027 27.493 L 22.027 26.987 23.013 26.987 L 24.000 26.987 24.000 27.493 " fill="#1A1C1F" stroke="none" fill-rule="evenodd"></path></svg>