<svg width="12" height="12" viewBox="0 0 12 12" fill="none" xmlns="http://www.w3.org/2000/svg"><path d="M3.669 2.118 C 3.413 2.135,3.270 2.209,3.030 2.450 C 2.802 2.677,2.746 2.787,2.641 3.210 C 2.576 3.475,2.220 5.047,2.220 5.072 C 2.220 5.077,1.991 5.080,1.710 5.080 L 1.200 5.080 1.200 5.680 L 1.200 6.280 1.527 6.280 L 1.854 6.280 1.888 6.585 C 1.965 7.259,2.042 7.836,2.071 7.950 C 2.109 8.103,2.220 8.337,2.313 8.465 L 2.386 8.564 2.396 9.242 L 2.406 9.920 3.153 9.920 L 3.900 9.920 3.900 9.555 C 3.900 9.354,3.908 9.179,3.917 9.165 C 3.929 9.145,4.001 9.148,4.271 9.179 C 4.874 9.249,5.216 9.267,6.000 9.267 C 6.784 9.267,7.126 9.249,7.729 9.179 C 7.999 9.148,8.071 9.145,8.083 9.165 C 8.092 9.179,8.100 9.354,8.100 9.555 L 8.100 9.920 8.849 9.920 L 9.597 9.920 9.604 9.245 L 9.610 8.570 9.683 8.470 C 9.779 8.338,9.866 8.161,9.917 7.994 C 9.944 7.907,9.992 7.581,10.050 7.094 C 10.099 6.674,10.140 6.319,10.140 6.305 C 10.140 6.286,10.220 6.280,10.470 6.280 L 10.800 6.280 10.800 5.680 L 10.800 5.080 10.292 5.080 L 9.784 5.080 9.750 4.925 C 9.615 4.301,9.351 3.158,9.309 3.011 C 9.230 2.741,9.156 2.611,8.982 2.440 C 8.877 2.336,8.784 2.266,8.679 2.214 C 8.539 2.143,8.510 2.136,8.279 2.119 C 8.009 2.100,3.966 2.099,3.669 2.118 M8.369 3.122 C 8.378 3.132,8.713 4.836,8.734 4.983 L 8.745 5.057 8.637 5.069 C 8.482 5.088,3.286 5.073,3.267 5.054 C 3.259 5.045,3.284 4.870,3.325 4.664 C 3.365 4.458,3.449 4.027,3.511 3.705 L 3.625 3.121 4.097 3.114 C 4.788 3.103,8.357 3.110,8.369 3.122 M3.113 6.541 C 3.458 6.611,3.802 6.701,3.908 6.748 C 4.154 6.857,4.234 7.137,4.088 7.374 C 3.945 7.604,3.824 7.617,3.170 7.468 C 2.751 7.373,2.616 7.325,2.547 7.248 C 2.455 7.146,2.420 7.059,2.420 6.937 C 2.421 6.696,2.596 6.500,2.811 6.500 C 2.868 6.500,3.004 6.518,3.113 6.541 M9.396 6.569 C 9.591 6.700,9.646 6.944,9.529 7.159 C 9.454 7.296,9.378 7.333,8.947 7.440 C 8.290 7.603,8.136 7.608,7.995 7.471 C 7.826 7.307,7.798 7.067,7.926 6.878 C 8.008 6.756,8.122 6.712,8.738 6.569 C 9.109 6.482,9.267 6.482,9.396 6.569 M7.003 6.971 C 7.099 7.033,7.165 7.171,7.242 7.471 C 7.307 7.729,7.334 7.951,7.312 8.068 C 7.272 8.279,6.966 8.434,6.750 8.351 C 6.592 8.291,6.491 8.142,6.420 7.865 L 6.398 7.780 6.000 7.780 L 5.602 7.780 5.581 7.855 C 5.570 7.896,5.560 7.940,5.560 7.952 C 5.560 7.964,5.533 8.028,5.499 8.096 C 5.408 8.278,5.198 8.403,5.033 8.372 C 4.925 8.352,4.777 8.242,4.720 8.140 C 4.652 8.017,4.659 7.866,4.749 7.510 C 4.828 7.200,4.902 7.032,4.986 6.971 C 5.064 6.915,5.344 6.902,6.220 6.914 C 6.925 6.923,6.930 6.924,7.003 6.971 " fill="#1A1C1F" stroke="none" fill-rule="evenodd"></path></svg>