<svg width="20" height="20" viewBox="0 0 20 20" fill="none" xmlns="http://www.w3.org/2000/svg"><path d="M6.100 3.533 C 5.944 3.545,5.761 3.579,5.693 3.608 C 5.508 3.689,5.194 3.911,5.020 4.085 C 4.720 4.385,4.592 4.622,4.452 5.143 C 4.376 5.422,3.827 7.818,3.734 8.275 L 3.695 8.467 2.848 8.467 L 2.000 8.467 2.000 9.467 L 2.000 10.467 2.545 10.467 L 3.090 10.467 3.147 10.975 C 3.275 12.102,3.403 13.061,3.451 13.250 C 3.517 13.507,3.665 13.824,3.839 14.079 L 3.977 14.281 3.993 15.407 L 4.009 16.533 5.255 16.533 L 6.500 16.533 6.501 15.925 C 6.501 15.590,6.513 15.297,6.529 15.273 C 6.551 15.238,6.658 15.242,7.103 15.297 C 8.052 15.414,8.471 15.433,10.000 15.433 C 11.529 15.433,11.948 15.414,12.897 15.297 C 13.342 15.242,13.449 15.238,13.471 15.273 C 13.487 15.297,13.499 15.590,13.499 15.925 L 13.500 16.533 14.748 16.533 L 15.996 16.533 16.006 15.408 L 16.017 14.283 16.138 14.117 C 16.306 13.885,16.485 13.517,16.549 13.270 C 16.592 13.106,16.900 10.679,16.900 10.509 C 16.900 10.477,17.030 10.467,17.450 10.467 L 18.000 10.467 18.000 9.467 L 18.000 8.467 17.153 8.467 L 16.307 8.467 16.251 8.208 C 16.025 7.168,15.586 5.264,15.515 5.019 C 15.384 4.568,15.260 4.351,14.971 4.066 C 14.794 3.893,14.640 3.777,14.464 3.689 C 14.227 3.569,14.186 3.560,13.781 3.532 C 13.291 3.498,6.533 3.499,6.100 3.533 M14.261 6.775 C 14.431 7.641,14.569 8.368,14.568 8.389 C 14.567 8.411,14.491 8.438,14.392 8.449 C 14.140 8.479,5.477 8.455,5.447 8.424 C 5.428 8.405,5.899 5.833,6.024 5.275 L 6.041 5.200 9.997 5.200 L 13.953 5.200 14.261 6.775 M5.550 10.980 C 6.412 11.181,6.617 11.254,6.754 11.405 C 6.879 11.542,6.913 11.644,6.915 11.883 C 6.916 12.080,6.902 12.141,6.824 12.274 C 6.723 12.446,6.529 12.581,6.329 12.617 C 6.199 12.641,5.763 12.564,5.083 12.396 C 4.320 12.208,4.288 12.191,4.130 11.917 C 4.012 11.712,4.000 11.455,4.099 11.250 C 4.183 11.075,4.225 11.027,4.384 10.917 C 4.509 10.832,4.533 10.827,4.783 10.845 C 4.930 10.855,5.275 10.915,5.550 10.980 M15.660 10.948 C 15.985 11.166,16.076 11.573,15.881 11.931 C 15.757 12.160,15.629 12.222,14.911 12.400 C 14.119 12.597,13.790 12.647,13.603 12.600 C 13.305 12.525,13.127 12.302,13.081 11.946 C 13.064 11.811,13.074 11.743,13.131 11.614 C 13.272 11.296,13.379 11.238,14.200 11.039 C 15.034 10.837,15.034 10.837,15.283 10.845 C 15.478 10.851,15.541 10.868,15.660 10.948 M11.672 11.618 C 11.831 11.721,11.938 11.944,12.068 12.450 C 12.179 12.879,12.223 13.250,12.186 13.447 C 12.142 13.684,11.857 13.913,11.554 13.955 C 11.274 13.993,11.000 13.830,10.852 13.536 C 10.773 13.379,10.764 13.352,10.701 13.108 L 10.664 12.967 10.000 12.967 L 9.336 12.967 9.302 13.092 C 9.283 13.160,9.267 13.233,9.267 13.253 C 9.267 13.273,9.221 13.381,9.165 13.493 C 9.090 13.643,9.023 13.722,8.908 13.799 C 8.712 13.929,8.538 13.981,8.392 13.954 C 8.223 13.922,7.982 13.755,7.878 13.597 C 7.796 13.475,7.786 13.429,7.791 13.221 C 7.797 12.929,7.996 12.125,8.125 11.868 C 8.266 11.587,8.331 11.555,8.810 11.530 C 9.034 11.518,9.742 11.515,10.383 11.524 C 11.539 11.539,11.551 11.540,11.672 11.618 " fill="#1A1C1F" stroke="none" fill-rule="evenodd"></path></svg>