<svg width="12" height="12" viewBox="0 0 12 12" fill="none" xmlns="http://www.w3.org/2000/svg"><path d="M3.695 2.139 C 3.553 2.151,3.493 2.168,3.375 2.226 C 3.126 2.349,2.834 2.639,2.758 2.840 C 2.700 2.991,2.533 3.662,2.359 4.445 L 2.213 5.100 1.706 5.100 L 1.200 5.100 1.200 5.700 L 1.200 6.300 1.505 6.300 C 1.673 6.300,1.820 6.307,1.832 6.315 C 1.845 6.323,1.860 6.380,1.867 6.440 C 1.961 7.259,2.048 7.896,2.082 8.010 C 2.128 8.165,2.250 8.406,2.341 8.521 L 2.400 8.596 2.400 9.248 L 2.400 9.900 3.150 9.900 L 3.900 9.900 3.900 9.539 C 3.900 9.243,3.905 9.177,3.929 9.168 C 3.945 9.162,4.073 9.171,4.214 9.188 C 5.327 9.326,6.664 9.326,7.797 9.187 C 8.024 9.159,8.067 9.159,8.082 9.182 C 8.091 9.198,8.100 9.365,8.100 9.555 L 8.100 9.900 8.850 9.900 L 9.600 9.900 9.600 9.251 L 9.600 8.602 9.695 8.476 C 9.907 8.197,9.964 7.952,10.090 6.791 C 10.118 6.538,10.140 6.324,10.140 6.316 C 10.140 6.307,10.288 6.300,10.470 6.300 L 10.800 6.300 10.800 5.700 L 10.800 5.100 10.293 5.100 L 9.787 5.100 9.742 4.895 C 9.457 3.603,9.281 2.900,9.201 2.744 C 9.103 2.551,8.822 2.304,8.564 2.184 L 8.450 2.130 6.160 2.127 C 4.901 2.125,3.791 2.131,3.695 2.139 M8.557 4.085 C 8.658 4.605,8.741 5.041,8.741 5.054 C 8.740 5.067,8.694 5.083,8.635 5.090 C 8.481 5.108,3.286 5.093,3.267 5.074 C 3.259 5.065,3.284 4.890,3.325 4.684 C 3.365 4.478,3.449 4.047,3.511 3.725 L 3.625 3.140 5.998 3.140 L 8.372 3.140 8.557 4.085 M3.077 6.551 C 3.402 6.616,3.849 6.735,3.942 6.782 C 4.241 6.931,4.228 7.388,3.920 7.547 C 3.787 7.615,3.740 7.612,3.274 7.508 C 2.846 7.413,2.618 7.345,2.568 7.298 C 2.513 7.247,2.428 7.089,2.411 7.007 C 2.379 6.854,2.503 6.632,2.665 6.551 C 2.722 6.523,2.781 6.500,2.796 6.500 C 2.812 6.500,2.939 6.523,3.077 6.551 M9.267 6.522 C 9.354 6.546,9.507 6.677,9.555 6.769 C 9.635 6.923,9.564 7.198,9.421 7.295 C 9.331 7.356,9.116 7.422,8.721 7.510 C 8.326 7.598,8.176 7.606,8.074 7.543 C 7.971 7.479,7.885 7.373,7.859 7.277 C 7.821 7.134,7.875 6.925,7.974 6.836 C 8.060 6.758,8.352 6.669,8.910 6.550 C 9.171 6.494,9.169 6.494,9.267 6.522 M6.612 6.918 C 7.069 6.942,7.113 6.985,7.250 7.540 C 7.322 7.834,7.340 8.027,7.303 8.123 C 7.242 8.281,7.026 8.414,6.866 8.393 C 6.628 8.360,6.505 8.220,6.420 7.885 L 6.398 7.800 6.000 7.800 L 5.602 7.800 5.581 7.875 C 5.570 7.916,5.560 7.960,5.560 7.972 C 5.560 7.985,5.528 8.059,5.489 8.137 C 5.396 8.322,5.293 8.390,5.110 8.389 C 4.910 8.388,4.719 8.251,4.688 8.088 C 4.666 7.971,4.693 7.749,4.758 7.491 C 4.841 7.166,4.898 7.055,5.016 6.985 C 5.102 6.935,5.132 6.929,5.380 6.919 C 5.793 6.901,6.299 6.901,6.612 6.918 " fill="#1A1C1F" stroke="none" fill-rule="evenodd"></path></svg>