<svg width="32" height="32" viewBox="0 0 32 32" fill="none" xmlns="http://www.w3.org/2000/svg"><path d="M13.467 5.068 C 11.828 5.114,10.596 5.192,9.653 5.310 C 9.114 5.378,8.979 5.417,8.533 5.635 C 8.136 5.830,7.945 5.965,7.648 6.262 C 7.320 6.590,7.247 6.700,7.096 7.093 C 6.872 7.676,6.588 8.680,5.967 11.080 L 5.467 13.013 4.453 13.018 C 3.896 13.021,3.232 13.039,2.977 13.058 C 2.563 13.090,2.496 13.110,2.353 13.248 C 2.055 13.533,2.001 13.717,2.006 14.427 C 2.011 15.199,2.082 15.486,2.324 15.714 C 2.546 15.923,2.869 16.000,3.523 16.000 L 4.000 16.000 4.000 16.440 C 4.001 17.111,4.210 19.412,4.402 20.853 C 4.493 21.533,4.582 21.855,4.804 22.298 L 4.953 22.596 4.999 24.191 C 5.052 26.007,5.041 25.961,5.525 26.434 C 5.708 26.613,5.918 26.753,6.118 26.831 C 6.414 26.947,6.493 26.952,8.027 26.955 C 9.571 26.957,9.637 26.953,9.932 26.835 C 10.302 26.687,10.652 26.360,10.823 26.000 C 10.929 25.777,10.953 25.624,10.975 25.067 L 11.000 24.400 16.000 24.400 L 21.000 24.400 21.027 24.960 C 21.070 25.813,21.133 25.994,21.520 26.382 C 21.804 26.667,21.901 26.728,22.244 26.836 C 22.620 26.954,22.714 26.960,24.107 26.957 C 25.502 26.953,25.588 26.947,25.882 26.832 C 26.240 26.691,26.698 26.276,26.873 25.933 C 26.981 25.722,26.987 25.635,26.987 24.236 L 26.987 22.762 27.173 22.381 C 27.505 21.703,27.627 21.041,27.839 18.747 C 27.899 18.101,27.963 17.219,27.982 16.787 L 28.017 16.000 28.486 16.000 C 29.131 16.000,29.455 15.922,29.676 15.714 C 29.919 15.485,29.990 15.195,29.992 14.427 C 29.994 13.698,29.925 13.477,29.621 13.245 C 29.444 13.110,29.439 13.110,27.990 13.075 L 26.537 13.040 26.472 12.800 C 26.437 12.668,26.178 11.684,25.898 10.613 C 24.923 6.885,24.892 6.798,24.307 6.218 C 23.664 5.581,23.062 5.353,21.707 5.232 C 20.046 5.084,15.872 5.001,13.467 5.068 M18.960 7.097 C 21.464 7.184,22.393 7.276,22.711 7.469 C 23.017 7.655,23.156 8.050,23.832 10.640 C 24.271 12.321,24.398 12.904,24.339 12.962 C 24.310 12.991,23.805 12.985,23.065 12.947 C 21.473 12.864,11.008 12.862,9.126 12.945 C 8.381 12.978,7.737 12.991,7.695 12.975 C 7.600 12.938,7.610 12.879,7.922 11.600 C 8.242 10.293,8.668 8.702,8.834 8.196 C 9.114 7.345,9.321 7.270,11.733 7.145 C 14.746 6.988,15.626 6.982,18.960 7.097 M23.680 14.982 C 25.754 15.108,25.864 15.169,25.948 16.250 L 25.986 16.735 25.833 16.766 C 25.749 16.783,25.296 16.847,24.827 16.908 C 23.836 17.037,23.605 17.090,23.394 17.241 C 23.178 17.394,22.965 17.875,23.005 18.119 C 23.048 18.386,23.285 18.703,23.562 18.865 L 23.798 19.003 24.552 18.940 C 24.967 18.905,25.409 18.863,25.533 18.846 L 25.760 18.815 25.760 19.010 C 25.760 19.304,25.603 20.616,25.518 21.040 C 25.395 21.645,25.289 21.709,24.007 21.948 C 22.370 22.254,20.941 22.376,18.064 22.459 C 13.022 22.605,7.944 22.232,6.869 21.639 C 6.600 21.490,6.519 21.291,6.402 20.493 C 6.248 19.437,6.210 18.827,6.300 18.826 C 6.340 18.826,6.771 18.866,7.257 18.915 L 8.141 19.005 8.385 18.887 C 8.645 18.761,8.876 18.480,8.960 18.185 C 9.060 17.839,8.806 17.318,8.459 17.153 C 8.356 17.104,7.787 16.993,7.193 16.907 C 6.539 16.812,6.096 16.723,6.068 16.682 C 5.994 16.575,6.064 15.757,6.165 15.543 C 6.264 15.334,6.405 15.222,6.658 15.149 C 6.833 15.099,8.057 15.006,9.493 14.934 C 10.773 14.870,22.485 14.910,23.680 14.982 M13.493 17.547 C 12.167 17.569,11.895 17.587,11.760 17.661 C 11.414 17.851,11.305 18.094,11.144 19.032 C 11.001 19.862,11.006 20.254,11.161 20.483 C 11.492 20.975,12.019 21.115,12.494 20.837 C 12.783 20.668,12.941 20.381,13.029 19.867 L 13.088 19.520 16.000 19.520 L 18.912 19.520 18.976 19.896 C 19.088 20.551,19.301 20.826,19.800 20.963 C 20.095 21.043,20.393 20.944,20.684 20.669 C 20.916 20.450,20.928 20.424,20.949 20.094 C 20.962 19.904,20.931 19.489,20.881 19.171 C 20.686 17.931,20.500 17.634,19.883 17.580 C 19.394 17.537,15.327 17.516,13.493 17.547 M8.000 24.027 C 8.425 24.103,8.827 24.201,8.893 24.244 C 8.997 24.312,9.013 24.368,9.013 24.668 L 9.013 25.013 8.000 25.013 L 6.987 25.013 6.987 24.511 C 6.987 23.944,7.015 23.826,7.140 23.862 C 7.188 23.876,7.575 23.950,8.000 24.027 M24.979 24.120 C 24.997 24.274,25.013 24.538,25.013 24.707 L 25.013 25.013 24.000 25.013 L 22.987 25.013 22.987 24.648 C 22.987 24.368,23.008 24.264,23.080 24.198 C 23.169 24.118,24.406 23.862,24.779 23.847 C 24.941 23.840,24.946 23.847,24.979 24.120 " fill="#1A1C1F" stroke="none" fill-rule="evenodd"></path></svg>