<svg width="28" height="28" viewBox="0 0 28 28" fill="none" xmlns="http://www.w3.org/2000/svg"><path d="M11.783 4.434 C 10.359 4.473,9.281 4.542,8.447 4.646 C 7.975 4.706,7.857 4.740,7.467 4.931 C 7.119 5.101,6.952 5.219,6.692 5.479 C 6.406 5.766,6.341 5.863,6.210 6.205 C 6.010 6.723,5.753 7.631,5.220 9.695 L 4.784 11.387 3.873 11.390 C 3.373 11.392,2.791 11.408,2.581 11.426 C 2.245 11.454,2.181 11.474,2.058 11.592 C 1.798 11.841,1.751 12.003,1.755 12.623 C 1.760 13.299,1.822 13.550,2.034 13.750 C 2.227 13.933,2.510 14.000,3.082 14.000 L 3.500 14.000 3.500 14.385 C 3.501 14.973,3.684 16.985,3.852 18.247 C 3.931 18.842,4.009 19.123,4.203 19.511 L 4.334 19.771 4.374 21.167 C 4.420 22.756,4.411 22.716,4.834 23.130 C 4.995 23.286,5.178 23.409,5.353 23.477 C 5.612 23.579,5.682 23.583,7.023 23.585 C 8.374 23.587,8.433 23.584,8.690 23.481 C 9.015 23.351,9.320 23.065,9.470 22.750 C 9.563 22.555,9.584 22.421,9.603 21.933 L 9.625 21.350 14.000 21.350 L 18.375 21.350 18.399 21.840 C 18.436 22.587,18.491 22.745,18.830 23.085 C 19.078 23.334,19.164 23.387,19.464 23.481 C 19.792 23.585,19.875 23.590,21.093 23.587 C 22.314 23.584,22.390 23.579,22.647 23.478 C 22.960 23.355,23.361 22.991,23.514 22.692 C 23.608 22.507,23.613 22.431,23.613 21.207 L 23.613 19.916 23.777 19.583 C 24.067 18.991,24.174 18.411,24.359 16.403 C 24.412 15.839,24.468 15.069,24.484 14.694 L 24.514 14.011 25.055 13.991 C 25.872 13.960,26.090 13.818,26.211 13.236 C 26.373 12.466,26.209 11.713,25.841 11.536 C 25.754 11.494,25.332 11.466,24.466 11.443 L 23.217 11.410 23.139 11.107 C 22.738 9.550,21.962 6.674,21.870 6.404 C 21.722 5.966,21.526 5.665,21.181 5.346 C 20.676 4.878,20.102 4.677,18.993 4.578 C 17.544 4.449,13.900 4.376,11.783 4.434 M17.733 6.251 C 19.762 6.361,19.998 6.430,20.202 6.974 C 20.382 7.456,21.398 11.331,21.356 11.373 C 21.345 11.384,20.877 11.369,20.316 11.340 C 18.595 11.251,12.227 11.225,9.567 11.296 C 8.271 11.331,7.095 11.360,6.953 11.361 L 6.697 11.363 6.707 11.190 C 6.728 10.817,7.686 7.163,7.842 6.857 C 8.072 6.406,8.376 6.344,11.037 6.208 C 12.040 6.157,16.529 6.186,17.733 6.251 M20.743 13.110 C 22.136 13.193,22.447 13.270,22.584 13.567 C 22.652 13.716,22.760 14.589,22.715 14.634 C 22.699 14.650,22.312 14.713,21.855 14.774 C 20.868 14.906,20.655 14.953,20.472 15.084 C 20.281 15.219,20.095 15.639,20.129 15.854 C 20.167 16.087,20.374 16.365,20.617 16.507 L 20.823 16.628 21.483 16.573 C 21.846 16.542,22.233 16.505,22.342 16.490 L 22.540 16.463 22.540 16.634 C 22.540 16.891,22.403 18.039,22.328 18.410 C 22.221 18.939,22.128 18.995,21.006 19.205 C 19.570 19.472,18.324 19.579,15.784 19.653 C 12.559 19.746,9.050 19.589,7.233 19.270 C 6.257 19.098,5.891 18.952,5.763 18.682 C 5.681 18.511,5.534 17.577,5.481 16.905 C 5.450 16.505,5.454 16.473,5.534 16.473 C 5.581 16.473,5.942 16.508,6.336 16.550 C 7.155 16.637,7.305 16.615,7.553 16.372 C 7.892 16.041,7.947 15.691,7.719 15.324 C 7.642 15.199,7.512 15.068,7.417 15.019 C 7.313 14.965,6.892 14.881,6.300 14.795 C 5.723 14.710,5.334 14.633,5.309 14.596 C 5.244 14.503,5.306 13.787,5.395 13.600 C 5.481 13.417,5.604 13.319,5.826 13.256 C 5.979 13.212,7.049 13.130,8.307 13.067 C 9.395 13.013,19.715 13.048,20.743 13.110 M10.391 15.421 C 10.126 15.516,9.995 15.664,9.897 15.983 C 9.766 16.405,9.647 17.238,9.669 17.576 C 9.685 17.838,9.707 17.893,9.849 18.042 C 10.069 18.274,10.367 18.404,10.586 18.364 C 11.048 18.280,11.298 17.978,11.400 17.383 L 11.452 17.080 14.000 17.080 L 16.548 17.080 16.604 17.409 C 16.702 17.982,16.889 18.223,17.325 18.342 C 17.583 18.413,17.844 18.326,18.099 18.085 C 18.302 17.894,18.312 17.871,18.331 17.582 C 18.353 17.239,18.234 16.408,18.104 15.984 C 17.996 15.637,17.817 15.450,17.538 15.396 C 17.427 15.375,15.814 15.357,13.953 15.357 C 11.206 15.357,10.536 15.369,10.391 15.421 M7.000 21.024 C 7.867 21.182,7.887 21.195,7.887 21.584 L 7.887 21.887 7.000 21.887 L 6.113 21.887 6.113 21.447 C 6.113 20.951,6.138 20.848,6.247 20.879 C 6.289 20.891,6.628 20.957,7.000 21.024 M21.856 21.105 C 21.873 21.240,21.886 21.471,21.886 21.618 L 21.887 21.887 21.000 21.887 L 20.113 21.887 20.113 21.567 C 20.113 21.322,20.132 21.231,20.195 21.174 C 20.273 21.104,21.355 20.880,21.682 20.866 C 21.823 20.860,21.828 20.867,21.856 21.105 " fill="#1A1C1F" stroke="none" fill-rule="evenodd"></path></svg>