<svg width="28" height="28" viewBox="0 0 28 28" fill="none" xmlns="http://www.w3.org/2000/svg"><path d="M12.063 4.881 C 11.884 4.889,11.254 4.919,10.663 4.948 C 9.340 5.011,8.084 5.112,7.745 5.184 C 7.223 5.294,6.646 5.680,6.393 6.091 C 6.169 6.452,5.891 7.346,5.274 9.683 C 4.860 11.249,4.724 11.701,4.653 11.745 C 4.622 11.765,4.093 11.797,3.478 11.818 C 2.565 11.848,2.330 11.870,2.198 11.936 C 1.867 12.101,1.776 12.354,1.775 13.113 C 1.773 14.196,2.002 14.420,3.112 14.420 L 3.640 14.420 3.640 14.836 C 3.640 15.706,3.961 19.065,4.089 19.530 C 4.131 19.684,4.194 19.912,4.228 20.037 C 4.263 20.162,4.313 20.754,4.341 21.364 C 4.398 22.631,4.435 22.774,4.757 22.987 C 4.917 23.093,5.028 23.121,5.426 23.157 C 6.036 23.213,7.230 23.169,7.435 23.083 C 7.629 23.002,7.822 22.774,7.886 22.550 C 7.914 22.455,7.949 22.159,7.965 21.892 L 7.995 21.408 8.606 21.439 C 11.706 21.595,16.003 21.595,19.425 21.439 L 20.113 21.408 20.113 21.749 C 20.113 22.528,20.259 22.883,20.662 23.083 C 20.817 23.160,20.957 23.170,21.933 23.170 C 22.963 23.169,23.041 23.163,23.217 23.070 C 23.636 22.846,23.660 22.762,23.710 21.327 C 23.743 20.416,23.774 20.042,23.846 19.734 C 24.029 18.949,24.290 16.561,24.345 15.178 L 24.375 14.420 24.916 14.420 C 25.567 14.419,25.781 14.367,25.978 14.158 C 26.183 13.941,26.243 13.634,26.219 12.942 C 26.197 12.334,26.139 12.164,25.890 11.978 C 25.736 11.864,25.186 11.813,24.055 11.809 L 23.306 11.807 22.940 10.278 C 22.459 8.264,22.005 6.567,21.877 6.304 C 21.727 5.993,21.223 5.514,20.832 5.309 C 20.184 4.970,19.288 4.901,15.260 4.880 C 13.682 4.872,12.243 4.872,12.063 4.881 M16.105 6.347 C 18.596 6.417,19.801 6.482,20.065 6.561 C 20.340 6.642,20.492 6.817,20.630 7.208 C 20.782 7.642,21.700 11.510,21.700 11.719 C 21.700 11.819,21.698 11.819,20.848 11.790 C 19.048 11.728,14.369 11.711,10.453 11.751 C 8.207 11.774,6.353 11.778,6.331 11.759 C 6.293 11.725,6.574 10.591,7.168 8.377 C 7.500 7.141,7.608 6.902,7.915 6.733 C 8.144 6.606,8.505 6.564,10.207 6.462 C 12.861 6.303,13.869 6.284,16.105 6.347 M7.005 15.237 C 7.925 15.328,8.197 15.382,8.407 15.518 C 8.625 15.659,8.696 15.868,8.671 16.298 C 8.653 16.619,8.647 16.632,8.452 16.806 C 8.336 16.908,8.178 16.998,8.080 17.017 C 7.706 17.088,5.599 16.870,5.303 16.730 C 4.800 16.491,4.707 15.721,5.134 15.335 L 5.320 15.167 5.804 15.167 C 6.069 15.167,6.610 15.198,7.005 15.237 M22.747 15.232 C 22.971 15.326,23.165 15.670,23.161 15.966 C 23.156 16.278,22.976 16.575,22.716 16.701 C 22.479 16.815,21.844 16.915,20.877 16.990 C 19.797 17.075,19.622 17.022,19.386 16.539 C 19.266 16.295,19.263 16.268,19.317 16.027 C 19.385 15.723,19.535 15.529,19.778 15.432 C 19.876 15.393,20.228 15.328,20.560 15.288 C 20.892 15.248,21.226 15.207,21.303 15.198 C 21.704 15.149,22.599 15.171,22.747 15.232 M16.002 15.804 L 17.234 15.835 17.386 15.968 C 17.585 16.143,17.671 16.372,17.782 17.020 C 17.890 17.654,17.900 18.154,17.807 18.331 C 17.546 18.831,16.890 18.940,16.498 18.549 C 16.346 18.396,16.147 17.909,16.147 17.687 C 16.147 17.641,16.100 17.590,16.042 17.573 C 15.984 17.557,15.032 17.530,13.927 17.514 L 11.918 17.486 11.858 17.761 C 11.728 18.355,11.518 18.665,11.180 18.759 C 10.847 18.852,10.407 18.677,10.216 18.375 C 10.131 18.240,10.123 18.172,10.143 17.757 C 10.170 17.223,10.323 16.434,10.446 16.196 C 10.573 15.952,10.746 15.847,11.075 15.815 C 11.492 15.775,14.561 15.768,16.002 15.804 " fill="#1A1C1F" stroke="none" fill-rule="evenodd"></path></svg>