<svg width="24" height="24" viewBox="0 0 24 24" fill="none" xmlns="http://www.w3.org/2000/svg"><path d="M7.002 4.084 C 6.634 4.131,6.299 4.311,5.929 4.659 C 5.541 5.024,5.423 5.192,5.294 5.561 C 5.184 5.877,4.868 7.138,4.477 8.820 C 4.339 9.414,4.209 9.922,4.188 9.950 C 4.161 9.986,3.990 10.000,3.585 10.000 C 2.859 10.001,2.372 10.056,2.240 10.153 C 2.084 10.268,2.004 10.560,2.002 11.020 C 2.001 11.363,2.015 11.450,2.099 11.632 C 2.232 11.916,2.356 11.968,2.970 11.992 L 3.440 12.010 3.440 12.319 C 3.440 12.679,3.520 13.552,3.663 14.760 C 3.809 15.992,3.888 16.411,4.052 16.820 L 4.195 17.180 4.230 18.224 C 4.264 19.251,4.267 19.270,4.371 19.448 C 4.486 19.644,4.714 19.865,4.859 19.920 C 4.999 19.973,5.951 20.014,6.294 19.982 C 6.547 19.958,6.634 19.930,6.786 19.825 C 7.041 19.650,7.203 19.355,7.230 19.018 L 7.251 18.760 12.000 18.760 L 16.749 18.760 16.770 19.018 C 16.797 19.355,16.959 19.650,17.214 19.825 C 17.366 19.930,17.453 19.958,17.706 19.982 C 18.049 20.014,19.001 19.973,19.141 19.920 C 19.286 19.865,19.514 19.644,19.629 19.448 C 19.734 19.270,19.736 19.252,19.769 18.224 C 19.801 17.253,19.810 17.165,19.898 16.960 C 20.030 16.656,20.108 16.367,20.181 15.907 C 20.286 15.245,20.520 13.091,20.546 12.535 L 20.572 12.009 21.036 11.992 C 21.624 11.970,21.756 11.915,21.898 11.628 C 21.987 11.449,22.000 11.375,21.998 11.022 C 21.996 10.560,21.916 10.268,21.760 10.153 C 21.628 10.056,21.141 10.001,20.415 10.000 C 20.011 10.000,19.839 9.986,19.810 9.950 C 19.789 9.922,19.641 9.342,19.482 8.660 C 18.886 6.104,18.708 5.459,18.514 5.153 C 18.323 4.851,17.847 4.427,17.514 4.263 C 17.280 4.147,17.144 4.109,16.859 4.079 C 16.416 4.033,7.365 4.037,7.002 4.084 M16.736 6.116 C 16.832 6.221,16.918 6.524,17.237 7.880 C 17.573 9.305,17.701 9.912,17.672 9.941 C 17.631 9.983,11.239 10.011,8.790 9.981 C 6.327 9.950,6.320 9.950,6.320 9.867 C 6.320 9.631,7.079 6.436,7.182 6.236 C 7.218 6.166,7.291 6.107,7.371 6.085 C 7.447 6.062,9.371 6.046,12.084 6.044 C 16.534 6.040,16.670 6.042,16.736 6.116 M18.241 12.076 C 18.477 12.148,18.584 12.427,18.536 12.847 L 18.510 13.074 18.225 13.120 C 17.557 13.228,17.060 13.360,16.900 13.472 C 16.681 13.625,16.555 13.867,16.530 14.182 C 16.512 14.403,16.524 14.467,16.617 14.658 C 16.748 14.926,16.981 15.133,17.229 15.202 C 17.375 15.243,17.499 15.245,17.816 15.210 C 18.038 15.185,18.224 15.171,18.232 15.178 C 18.253 15.199,18.161 15.847,18.117 15.984 C 18.019 16.293,17.700 16.567,17.360 16.635 C 16.575 16.790,13.531 16.999,12.052 17.000 C 10.413 17.000,7.002 16.751,6.468 16.591 C 6.276 16.534,6.015 16.284,5.919 16.066 C 5.826 15.854,5.732 15.252,5.784 15.200 C 5.808 15.176,5.925 15.179,6.100 15.206 C 6.613 15.286,6.989 15.187,7.221 14.912 C 7.561 14.509,7.566 14.000,7.234 13.622 C 7.150 13.527,7.005 13.414,6.911 13.370 C 6.764 13.302,6.223 13.185,5.655 13.100 L 5.491 13.075 5.466 12.827 C 5.432 12.476,5.506 12.194,5.655 12.109 C 5.777 12.039,8.550 12.009,13.780 12.022 C 16.733 12.029,18.145 12.046,18.241 12.076 M9.698 13.485 C 9.377 13.557,9.058 13.944,8.687 14.711 C 8.454 15.193,8.440 15.410,8.622 15.704 C 8.912 16.173,9.482 16.367,9.913 16.143 C 10.081 16.057,10.389 15.738,10.482 15.555 L 10.562 15.400 12.000 15.400 L 13.438 15.400 13.497 15.513 C 13.633 15.778,13.879 16.033,14.099 16.141 C 14.290 16.234,14.358 16.248,14.554 16.230 C 15.239 16.168,15.648 15.524,15.407 14.888 C 15.308 14.629,14.922 13.981,14.744 13.774 C 14.664 13.682,14.522 13.569,14.427 13.524 C 14.258 13.442,14.208 13.440,12.057 13.444 C 10.849 13.447,9.787 13.465,9.698 13.485 " fill="#1A1C1F" stroke="none" fill-rule="evenodd"></path></svg>