<svg width="16" height="16" viewBox="0 0 16 16" fill="none" xmlns="http://www.w3.org/2000/svg"><path d="M6.200 2.828 C 4.910 2.843,4.803 2.848,4.663 2.897 C 4.441 2.975,4.229 3.112,4.035 3.304 C 3.811 3.525,3.698 3.699,3.617 3.949 C 3.556 4.137,3.335 5.072,3.064 6.287 L 2.949 6.800 2.275 6.800 L 1.600 6.800 1.600 7.600 L 1.600 8.400 2.037 8.400 L 2.473 8.400 2.492 8.593 C 2.539 9.077,2.695 10.255,2.746 10.505 C 2.818 10.857,2.900 11.057,3.067 11.285 L 3.200 11.468 3.200 12.334 L 3.200 13.200 4.199 13.200 L 5.199 13.200 5.206 12.700 C 5.211 12.371,5.223 12.202,5.241 12.205 C 5.383 12.229,6.289 12.324,6.627 12.350 C 7.177 12.391,8.823 12.391,9.373 12.350 C 9.827 12.315,10.719 12.217,10.749 12.198 C 10.789 12.174,10.800 12.289,10.800 12.736 L 10.800 13.200 11.800 13.200 L 12.800 13.200 12.800 12.335 L 12.800 11.470 12.942 11.271 C 13.205 10.905,13.277 10.615,13.425 9.315 C 13.477 8.857,13.520 8.464,13.520 8.441 C 13.520 8.406,13.581 8.400,13.960 8.400 L 14.400 8.400 14.400 7.600 L 14.400 6.800 13.722 6.800 L 13.044 6.800 13.013 6.647 C 12.995 6.562,12.886 6.073,12.770 5.560 C 12.340 3.668,12.329 3.636,11.967 3.291 C 11.816 3.147,11.675 3.043,11.524 2.964 L 11.303 2.848 10.698 2.837 C 9.499 2.817,7.560 2.813,6.200 2.828 M11.409 5.447 C 11.545 6.140,11.655 6.721,11.654 6.738 C 11.654 6.756,11.593 6.777,11.513 6.786 C 11.312 6.810,4.382 6.791,4.357 6.766 C 4.342 6.751,4.719 4.693,4.819 4.247 L 4.832 4.187 7.997 4.187 L 11.162 4.187 11.409 5.447 M12.497 8.761 C 12.558 8.796,12.645 8.882,12.690 8.951 C 12.763 9.061,12.773 9.098,12.773 9.262 C 12.773 9.568,12.647 9.730,12.320 9.840 C 12.098 9.915,11.654 10.018,11.284 10.082 C 10.907 10.146,10.824 10.129,10.641 9.952 C 10.494 9.810,10.438 9.659,10.463 9.474 C 10.483 9.329,10.565 9.167,10.655 9.097 C 10.783 8.996,11.131 8.892,11.867 8.734 C 12.213 8.659,12.332 8.664,12.497 8.761 M4.564 8.837 C 4.838 8.903,5.123 8.983,5.198 9.015 C 5.445 9.121,5.566 9.326,5.538 9.592 C 5.519 9.782,5.416 9.954,5.273 10.037 C 5.053 10.165,4.982 10.159,4.067 9.941 C 3.571 9.823,3.444 9.772,3.366 9.661 C 3.163 9.373,3.167 9.141,3.378 8.863 C 3.538 8.653,3.776 8.648,4.564 8.837 M9.162 9.242 C 9.266 9.257,9.454 9.416,9.517 9.543 C 9.567 9.640,9.718 10.231,9.760 10.489 C 9.807 10.779,9.685 11.017,9.429 11.137 C 9.269 11.211,9.193 11.215,9.021 11.157 C 8.866 11.106,8.761 11.012,8.681 10.853 C 8.619 10.730,8.611 10.708,8.561 10.513 L 8.531 10.400 8.000 10.400 L 7.469 10.400 7.440 10.513 C 7.318 10.996,7.140 11.186,6.813 11.185 C 6.547 11.184,6.292 11.002,6.251 10.784 C 6.222 10.629,6.257 10.331,6.344 9.988 C 6.455 9.554,6.531 9.406,6.689 9.313 C 6.801 9.248,6.847 9.239,7.147 9.225 C 7.500 9.208,9.023 9.221,9.162 9.242 " fill="#1A1C1F" stroke="none" fill-rule="evenodd"></path></svg>