<svg width="14" height="14" viewBox="0 0 14 14" fill="none" xmlns="http://www.w3.org/2000/svg"><path d="M4.311 2.495 C 3.999 2.522,3.812 2.623,3.510 2.926 C 3.315 3.121,3.265 3.186,3.221 3.302 C 3.150 3.490,2.959 4.256,2.752 5.186 L 2.582 5.950 1.991 5.950 L 1.400 5.950 1.400 6.650 L 1.400 7.350 1.733 7.350 C 2.168 7.351,2.162 7.349,2.179 7.498 C 2.394 9.357,2.414 9.456,2.665 9.840 L 2.783 10.022 2.795 10.786 L 2.807 11.550 3.678 11.550 L 4.549 11.550 4.555 11.113 C 4.560 10.824,4.570 10.676,4.586 10.679 C 4.716 10.702,5.504 10.785,5.798 10.806 C 6.280 10.842,7.720 10.842,8.202 10.806 C 8.496 10.785,9.284 10.702,9.414 10.679 C 9.430 10.676,9.440 10.824,9.445 11.113 L 9.451 11.550 10.326 11.550 L 11.200 11.550 11.200 10.783 C 11.200 10.149,11.206 10.011,11.233 9.988 C 11.298 9.934,11.455 9.669,11.512 9.518 C 11.598 9.290,11.654 8.962,11.747 8.150 C 11.793 7.750,11.830 7.406,11.830 7.386 C 11.830 7.355,11.883 7.350,12.215 7.350 L 12.600 7.350 12.600 6.650 L 12.600 5.950 12.007 5.950 L 11.413 5.950 11.386 5.816 C 11.308 5.435,10.933 3.805,10.873 3.587 C 10.835 3.449,10.772 3.273,10.733 3.196 C 10.615 2.963,10.308 2.694,9.991 2.548 L 9.858 2.487 7.187 2.483 C 5.717 2.480,4.423 2.486,4.311 2.495 M9.983 4.766 C 10.101 5.372,10.198 5.881,10.198 5.896 C 10.197 5.911,10.144 5.930,10.074 5.938 C 9.897 5.959,3.834 5.942,3.812 5.920 C 3.799 5.907,4.133 4.084,4.217 3.716 L 4.228 3.663 6.998 3.663 L 9.767 3.663 9.983 4.766 M3.590 7.643 C 3.929 7.711,4.367 7.825,4.542 7.890 C 4.774 7.977,4.884 8.174,4.843 8.430 C 4.824 8.553,4.734 8.709,4.647 8.771 C 4.501 8.874,4.397 8.881,4.056 8.811 C 3.573 8.711,3.170 8.608,3.076 8.561 C 2.932 8.488,2.817 8.287,2.817 8.108 C 2.817 7.991,2.854 7.892,2.949 7.761 C 2.996 7.697,3.196 7.584,3.264 7.584 C 3.281 7.583,3.428 7.610,3.590 7.643 M10.801 7.606 C 11.066 7.682,11.233 7.950,11.176 8.207 C 11.120 8.460,10.985 8.563,10.573 8.668 C 9.868 8.846,9.572 8.884,9.437 8.814 C 9.328 8.757,9.199 8.601,9.169 8.490 C 9.124 8.323,9.187 8.079,9.303 7.975 C 9.404 7.884,9.759 7.775,10.383 7.643 C 10.698 7.577,10.698 7.577,10.801 7.606 M8.024 8.088 C 8.079 8.096,8.140 8.137,8.225 8.222 L 8.347 8.344 8.433 8.698 C 8.549 9.172,8.564 9.277,8.537 9.407 C 8.490 9.630,8.228 9.821,8.010 9.791 C 7.816 9.765,7.678 9.664,7.589 9.485 C 7.541 9.389,7.534 9.368,7.490 9.199 L 7.465 9.100 7.000 9.100 L 6.536 9.100 6.511 9.188 C 6.498 9.236,6.487 9.287,6.487 9.301 C 6.487 9.315,6.449 9.402,6.403 9.493 C 6.296 9.709,6.176 9.789,5.962 9.787 C 5.729 9.786,5.505 9.626,5.470 9.436 C 5.444 9.300,5.475 9.040,5.551 8.739 C 5.648 8.360,5.714 8.230,5.853 8.149 C 5.954 8.090,5.985 8.084,6.288 8.073 C 6.667 8.059,7.908 8.070,8.024 8.088 " fill="#1A1C1F" stroke="none" fill-rule="evenodd"></path></svg>