<svg width="16" height="16" viewBox="0 0 16 16" fill="none" xmlns="http://www.w3.org/2000/svg"><path d="M4.878 2.825 C 4.550 2.848,4.355 2.951,4.039 3.266 C 3.764 3.542,3.671 3.705,3.563 4.107 C 3.507 4.315,3.192 5.692,3.000 6.567 L 2.955 6.773 2.277 6.773 L 1.600 6.773 1.600 7.573 L 1.600 8.373 2.036 8.373 L 2.472 8.373 2.517 8.767 C 2.630 9.750,2.724 10.457,2.761 10.602 C 2.814 10.807,2.933 11.061,3.072 11.264 L 3.183 11.426 3.195 12.326 L 3.207 13.227 4.204 13.227 L 5.200 13.227 5.200 12.740 C 5.201 12.472,5.210 12.239,5.221 12.221 C 5.237 12.196,5.343 12.200,5.694 12.240 C 6.490 12.330,6.976 12.355,8.000 12.354 C 9.026 12.354,9.515 12.330,10.306 12.240 C 10.657 12.200,10.763 12.196,10.779 12.221 C 10.790 12.239,10.799 12.472,10.800 12.740 L 10.800 13.227 11.798 13.227 L 12.797 13.227 12.805 12.327 L 12.813 11.427 12.914 11.290 C 13.032 11.128,13.207 10.759,13.251 10.579 C 13.277 10.471,13.520 8.509,13.520 8.407 C 13.520 8.381,13.621 8.373,13.960 8.373 L 14.400 8.373 14.400 7.573 L 14.400 6.773 13.723 6.773 L 13.045 6.773 13.001 6.567 C 12.820 5.734,12.468 4.211,12.412 4.015 C 12.374 3.884,12.306 3.704,12.261 3.615 C 12.151 3.397,11.832 3.085,11.581 2.952 C 11.402 2.858,11.370 2.850,11.049 2.827 C 10.680 2.800,5.256 2.798,4.878 2.825 M11.158 4.163 C 11.186 4.190,11.662 6.721,11.643 6.739 C 11.615 6.767,4.384 6.766,4.357 6.739 C 4.345 6.727,4.379 6.493,4.433 6.219 C 4.487 5.944,4.599 5.369,4.682 4.940 L 4.833 4.161 5.450 4.151 C 6.292 4.139,11.144 4.148,11.158 4.163 M4.150 8.721 C 4.611 8.815,5.069 8.935,5.211 8.998 C 5.287 9.031,5.380 9.096,5.419 9.142 C 5.687 9.461,5.495 10.026,5.098 10.090 C 4.868 10.126,3.565 9.830,3.430 9.711 C 3.403 9.687,3.346 9.607,3.304 9.533 C 3.091 9.164,3.346 8.667,3.747 8.667 C 3.824 8.667,4.006 8.691,4.150 8.721 M12.528 8.759 C 12.779 8.927,12.860 9.256,12.720 9.534 C 12.630 9.712,12.477 9.786,11.930 9.921 C 11.300 10.076,11.022 10.118,10.880 10.080 C 10.644 10.017,10.501 9.836,10.465 9.558 C 10.451 9.450,10.460 9.395,10.507 9.284 C 10.616 9.033,10.731 8.975,11.467 8.805 C 11.723 8.746,11.957 8.691,11.987 8.684 C 12.016 8.676,12.124 8.673,12.227 8.676 C 12.383 8.681,12.432 8.694,12.528 8.759 M9.337 9.295 C 9.466 9.377,9.553 9.561,9.656 9.961 C 9.743 10.305,9.778 10.602,9.749 10.757 C 9.714 10.941,9.493 11.125,9.261 11.162 C 8.930 11.215,8.687 10.980,8.560 10.487 L 8.531 10.373 8.000 10.373 L 7.469 10.373 7.440 10.487 C 7.330 10.923,7.102 11.157,6.787 11.157 C 6.553 11.157,6.366 11.023,6.255 10.777 C 6.208 10.672,6.206 10.646,6.238 10.458 C 6.288 10.158,6.420 9.660,6.491 9.504 C 6.592 9.284,6.683 9.243,7.120 9.225 C 7.318 9.216,7.876 9.215,8.360 9.221 C 9.227 9.232,9.241 9.233,9.337 9.295 " fill="#1A1C1F" stroke="none" fill-rule="evenodd"></path></svg>