<svg width="14" height="14" viewBox="0 0 14 14" fill="none" xmlns="http://www.w3.org/2000/svg"><path d="M4.256 2.472 C 4.009 2.491,3.814 2.587,3.579 2.807 C 3.361 3.011,3.234 3.204,3.159 3.449 C 3.111 3.607,2.814 4.882,2.625 5.746 L 2.585 5.927 1.993 5.927 L 1.400 5.927 1.400 6.627 L 1.400 7.327 1.781 7.327 L 2.163 7.327 2.202 7.671 C 2.301 8.531,2.383 9.149,2.416 9.277 C 2.462 9.456,2.567 9.679,2.687 9.855 L 2.784 9.997 2.795 10.785 L 2.807 11.573 3.678 11.573 L 4.550 11.573 4.550 11.148 C 4.551 10.913,4.559 10.708,4.569 10.692 C 4.584 10.669,4.668 10.672,4.983 10.709 C 5.653 10.788,6.091 10.809,7.000 10.809 C 7.909 10.809,8.347 10.788,9.017 10.709 C 9.332 10.672,9.416 10.669,9.431 10.692 C 9.441 10.708,9.449 10.913,9.450 11.148 L 9.450 11.573 10.325 11.573 L 11.200 11.573 11.200 10.791 L 11.200 10.008 11.291 9.886 C 11.408 9.729,11.510 9.524,11.571 9.321 C 11.610 9.193,11.830 7.522,11.830 7.356 C 11.830 7.333,11.918 7.327,12.215 7.327 L 12.600 7.327 12.600 6.627 L 12.600 5.927 12.007 5.927 L 11.415 5.927 11.375 5.746 C 11.218 5.018,10.910 3.685,10.860 3.513 C 10.769 3.197,10.682 3.046,10.480 2.847 C 10.356 2.725,10.248 2.644,10.125 2.582 C 9.959 2.498,9.930 2.492,9.647 2.472 C 9.311 2.449,4.554 2.449,4.256 2.472 M9.983 4.743 C 10.101 5.349,10.198 5.857,10.198 5.872 C 10.197 5.888,10.144 5.906,10.074 5.915 C 9.898 5.935,3.834 5.919,3.813 5.897 C 3.799 5.884,4.129 4.083,4.217 3.693 L 4.228 3.640 6.998 3.640 L 9.767 3.640 9.983 4.743 M3.632 7.631 C 4.303 7.769,4.629 7.873,4.730 7.983 C 4.903 8.172,4.889 8.500,4.700 8.688 C 4.507 8.879,4.372 8.878,3.558 8.677 C 3.024 8.545,3.001 8.534,2.891 8.342 C 2.705 8.018,2.927 7.583,3.279 7.583 C 3.346 7.583,3.505 7.605,3.632 7.631 M10.965 7.664 C 11.190 7.820,11.253 8.102,11.117 8.352 C 11.060 8.456,11.028 8.487,10.928 8.533 C 10.776 8.603,10.145 8.761,9.818 8.811 L 9.568 8.850 9.438 8.786 C 9.175 8.657,9.079 8.343,9.218 8.070 C 9.309 7.893,9.440 7.838,10.185 7.665 C 10.631 7.562,10.817 7.561,10.965 7.664 M8.170 8.133 C 8.282 8.205,8.356 8.361,8.448 8.715 C 8.525 9.015,8.556 9.275,8.530 9.413 C 8.511 9.516,8.401 9.647,8.282 9.707 C 8.014 9.844,7.734 9.749,7.597 9.475 C 7.541 9.366,7.535 9.347,7.490 9.176 L 7.465 9.077 7.000 9.077 L 6.535 9.077 6.510 9.176 C 6.414 9.557,6.214 9.762,5.938 9.762 C 5.740 9.762,5.587 9.657,5.483 9.450 C 5.433 9.352,5.432 9.335,5.457 9.169 C 5.496 8.913,5.616 8.456,5.679 8.317 C 5.770 8.119,5.844 8.088,6.265 8.071 C 6.458 8.063,6.946 8.061,7.350 8.067 C 8.074 8.078,8.086 8.079,8.170 8.133 " fill="#1A1C1F" stroke="none" fill-rule="evenodd"></path></svg>