<svg width="20" height="20" viewBox="0 0 20 20" fill="none" xmlns="http://www.w3.org/2000/svg"><path d="M6.176 3.565 C 5.919 3.585,5.829 3.609,5.625 3.709 C 5.211 3.914,4.724 4.398,4.595 4.733 C 4.502 4.976,4.232 6.062,3.931 7.408 L 3.687 8.500 2.843 8.500 L 2.000 8.500 2.000 9.500 L 2.000 10.500 2.546 10.500 L 3.091 10.500 3.114 10.742 C 3.169 11.318,3.369 12.820,3.433 13.133 C 3.523 13.571,3.625 13.821,3.833 14.106 L 4.000 14.335 4.000 15.417 L 4.000 16.500 5.250 16.500 L 6.500 16.500 6.500 15.889 C 6.500 15.553,6.507 15.271,6.516 15.262 C 6.524 15.253,6.660 15.265,6.816 15.288 C 7.922 15.449,9.600 15.523,10.935 15.470 C 11.850 15.433,12.616 15.371,13.182 15.288 C 13.419 15.253,13.468 15.254,13.482 15.293 C 13.492 15.318,13.500 15.600,13.500 15.919 L 13.500 16.500 14.750 16.500 L 16.000 16.500 16.000 15.402 C 16.000 14.640,16.011 14.297,16.037 14.281 C 16.057 14.269,16.145 14.149,16.232 14.016 C 16.405 13.751,16.533 13.388,16.616 12.933 C 16.661 12.681,16.900 10.682,16.900 10.552 C 16.900 10.507,16.974 10.500,17.450 10.500 L 18.000 10.500 18.000 9.500 L 18.000 8.500 17.153 8.500 L 16.307 8.500 16.250 8.242 C 15.721 5.818,15.500 4.924,15.353 4.613 C 15.178 4.243,14.756 3.863,14.272 3.640 L 14.083 3.553 10.283 3.547 C 8.193 3.543,6.345 3.551,6.176 3.565 M14.261 6.808 C 14.431 7.675,14.569 8.401,14.568 8.423 C 14.567 8.445,14.491 8.471,14.392 8.483 C 14.139 8.513,5.477 8.488,5.446 8.457 C 5.427 8.438,5.904 5.835,6.024 5.308 L 6.041 5.233 9.997 5.233 L 13.953 5.233 14.261 6.808 M15.621 10.951 C 15.697 10.996,15.806 11.102,15.863 11.188 C 15.955 11.327,15.967 11.372,15.967 11.583 C 15.967 11.888,15.862 12.071,15.608 12.209 C 15.413 12.315,14.718 12.498,14.129 12.598 C 13.631 12.683,13.532 12.664,13.301 12.440 C 13.052 12.198,13.003 11.887,13.165 11.570 C 13.285 11.335,13.460 11.245,14.117 11.084 C 15.209 10.815,15.366 10.801,15.621 10.951 M5.705 11.046 C 6.047 11.128,6.403 11.228,6.497 11.269 C 6.806 11.402,6.957 11.657,6.923 11.990 C 6.889 12.316,6.702 12.545,6.389 12.640 C 6.240 12.685,5.993 12.645,5.083 12.427 C 4.463 12.279,4.305 12.215,4.207 12.076 C 3.954 11.716,3.959 11.426,4.223 11.079 C 4.422 10.817,4.720 10.810,5.705 11.046 M11.591 11.619 C 11.832 11.737,11.909 11.882,12.069 12.518 C 12.222 13.125,12.241 13.448,12.136 13.621 C 12.023 13.807,11.708 14.000,11.519 14.000 C 11.380 14.000,11.122 13.899,11.022 13.805 C 10.970 13.756,10.893 13.649,10.851 13.567 C 10.773 13.413,10.764 13.386,10.701 13.142 L 10.664 13.000 10.002 13.000 L 9.340 13.000 9.267 13.242 C 9.175 13.547,9.046 13.786,8.929 13.869 C 8.795 13.965,8.531 14.006,8.328 13.962 C 8.132 13.920,7.938 13.764,7.849 13.577 C 7.768 13.407,7.799 12.994,7.930 12.485 C 8.069 11.942,8.163 11.758,8.361 11.642 C 8.503 11.558,8.556 11.548,8.967 11.529 C 9.214 11.517,9.867 11.513,10.416 11.520 C 11.410 11.533,11.417 11.534,11.591 11.619 " fill="#1A1C1F" stroke="none" fill-rule="evenodd"></path></svg>