<svg width="28" height="28" viewBox="0 0 28 28" fill="none" xmlns="http://www.w3.org/2000/svg"><path d="M22.773 4.646 C 21.194 4.976,20.921 5.078,20.488 5.501 C 20.179 5.804,19.960 6.202,19.874 6.618 C 19.823 6.865,19.826 6.992,19.896 7.502 C 19.971 8.043,21.018 13.879,21.071 14.049 C 21.103 14.152,20.931 14.297,20.183 14.793 C 19.263 15.405,18.861 15.720,18.256 16.306 C 17.451 17.086,17.143 17.546,16.876 18.363 C 16.736 18.792,16.613 19.462,16.613 19.793 L 16.613 20.020 12.237 20.020 L 7.861 20.020 7.736 19.612 C 7.576 19.092,7.333 18.680,6.972 18.321 C 6.178 17.529,5.048 17.246,3.898 17.552 C 3.231 17.729,2.442 18.407,2.104 19.093 C 1.672 19.969,1.665 20.941,2.084 21.793 C 2.344 22.320,2.969 22.936,3.501 23.188 C 4.407 23.618,5.288 23.609,6.198 23.161 C 6.613 22.956,7.163 22.458,7.403 22.069 L 7.573 21.793 12.152 21.791 C 14.670 21.790,16.952 21.771,17.222 21.751 C 17.817 21.705,18.109 21.594,18.225 21.370 C 18.302 21.221,18.332 20.961,18.430 19.611 C 18.466 19.107,18.497 18.942,18.594 18.730 C 18.749 18.391,19.056 17.968,19.398 17.620 C 19.935 17.074,21.334 16.038,21.415 16.126 C 21.447 16.161,21.636 17.087,21.723 17.640 C 21.739 17.740,21.688 17.796,21.374 18.026 C 20.738 18.492,20.321 19.177,20.176 19.995 C 19.915 21.463,20.935 23.010,22.423 23.403 C 22.802 23.503,23.645 23.502,23.987 23.401 C 24.921 23.123,25.797 22.270,26.116 21.327 C 26.240 20.961,26.240 19.964,26.116 19.600 C 25.936 19.073,25.707 18.702,25.319 18.314 C 24.893 17.888,24.498 17.665,23.867 17.497 L 23.490 17.396 23.266 16.200 C 21.842 8.572,21.578 7.075,21.623 6.893 C 21.663 6.735,21.947 6.623,22.773 6.439 C 23.562 6.264,24.006 6.133,24.161 6.032 C 24.285 5.951,24.425 5.701,24.474 5.475 C 24.518 5.270,24.421 4.979,24.248 4.802 C 24.100 4.651,23.761 4.478,23.621 4.483 C 23.578 4.484,23.197 4.558,22.773 4.646 M3.005 14.084 C 2.604 14.378,2.515 14.845,2.786 15.230 C 3.009 15.548,3.115 15.584,4.046 15.659 C 6.374 15.847,7.047 16.176,7.842 17.516 C 8.007 17.795,8.202 18.066,8.277 18.119 C 8.628 18.369,9.262 18.207,9.497 17.807 C 9.645 17.554,9.643 17.425,9.479 16.954 C 9.125 15.939,8.267 15.021,7.220 14.537 C 6.398 14.157,5.577 14.002,4.200 13.968 L 3.197 13.943 3.005 14.084 M5.391 19.308 C 5.968 19.605,6.241 20.290,6.018 20.882 C 5.732 21.639,4.898 21.959,4.200 21.579 C 3.270 21.073,3.337 19.724,4.314 19.265 C 4.567 19.146,5.119 19.168,5.391 19.308 M23.686 19.268 C 24.517 19.645,24.719 20.688,24.089 21.342 C 23.471 21.983,22.449 21.830,22.054 21.037 C 21.954 20.837,21.933 20.730,21.933 20.417 C 21.933 20.082,21.948 20.015,22.065 19.831 C 22.218 19.590,22.494 19.336,22.700 19.246 C 22.915 19.153,23.459 19.165,23.686 19.268 " fill="#1A1C1F" stroke="none" fill-rule="evenodd"></path></svg>