<svg width="28" height="28" viewBox="0 0 28 28" fill="none" xmlns="http://www.w3.org/2000/svg"><path d="M10.150 4.486 C 8.788 4.531,7.917 4.602,7.615 4.692 C 7.305 4.784,6.735 5.168,6.469 5.463 C 6.126 5.845,5.936 6.444,5.081 9.835 L 4.690 11.386 3.827 11.390 C 3.352 11.392,2.790 11.408,2.578 11.426 C 2.220 11.456,2.182 11.469,2.032 11.621 C 1.748 11.907,1.639 12.665,1.796 13.268 C 1.883 13.601,1.970 13.737,2.182 13.867 C 2.325 13.956,2.433 13.973,2.965 13.991 L 3.582 14.012 3.614 14.484 C 3.683 15.518,3.875 17.696,3.947 18.247 C 3.988 18.568,4.082 19.062,4.155 19.346 C 4.263 19.769,4.296 20.034,4.338 20.816 C 4.400 21.973,4.443 22.215,4.624 22.421 C 4.876 22.708,5.012 22.743,5.978 22.765 C 6.999 22.788,7.267 22.737,7.535 22.468 C 7.803 22.200,7.854 22.057,7.877 21.502 C 7.891 21.174,7.917 21.000,7.951 21.001 C 7.980 21.001,8.192 21.021,8.423 21.045 C 9.420 21.149,13.624 21.326,15.101 21.327 L 15.758 21.327 15.816 21.582 C 15.906 21.984,16.134 22.387,16.476 22.746 C 16.827 23.114,17.164 23.337,17.619 23.503 L 17.924 23.613 20.556 23.613 L 23.188 23.613 23.529 23.491 C 24.243 23.236,24.797 22.736,25.132 22.045 C 25.221 21.863,25.314 21.603,25.340 21.467 C 25.368 21.319,25.389 19.949,25.392 18.042 C 25.394 16.294,25.410 14.675,25.427 14.445 L 25.457 14.027 25.635 13.934 C 25.892 13.799,26.165 13.483,26.229 13.246 C 26.260 13.130,26.276 12.845,26.266 12.576 C 26.243 11.969,26.137 11.767,25.692 11.488 C 25.483 11.357,25.387 11.268,25.387 11.204 C 25.387 11.045,25.151 10.349,25.000 10.065 C 24.695 9.487,23.945 8.978,23.182 8.829 L 22.777 8.750 22.700 8.547 C 22.595 8.275,22.387 8.045,22.176 7.973 C 22.051 7.929,21.612 7.912,20.580 7.911 C 18.936 7.910,18.817 7.931,18.570 8.272 C 18.495 8.376,18.433 8.485,18.433 8.515 C 18.433 8.654,18.291 8.735,17.862 8.842 C 17.263 8.990,16.893 9.190,16.520 9.566 C 16.177 9.913,15.956 10.316,15.824 10.836 C 15.764 11.071,15.713 11.180,15.651 11.202 C 15.603 11.220,14.041 11.258,12.180 11.287 C 10.319 11.316,8.235 11.351,7.548 11.365 L 6.300 11.391 6.300 11.269 C 6.300 11.201,6.488 10.408,6.717 9.505 C 7.488 6.469,7.493 6.454,7.840 6.243 C 8.098 6.086,8.406 6.040,9.590 5.977 C 12.517 5.821,19.170 5.910,19.932 6.115 C 20.025 6.140,20.239 6.262,20.408 6.387 C 20.795 6.673,20.954 6.739,21.161 6.700 C 21.516 6.634,21.829 6.191,21.765 5.845 C 21.740 5.711,21.654 5.593,21.401 5.343 C 20.762 4.711,20.362 4.588,18.737 4.527 C 17.204 4.469,11.467 4.442,10.150 4.486 M23.433 10.534 C 23.813 10.890,23.814 10.891,23.852 12.133 C 23.929 14.684,23.861 21.069,23.751 21.443 C 23.675 21.706,23.360 21.997,23.075 22.069 C 22.780 22.143,19.633 22.189,18.703 22.133 C 18.041 22.093,18.008 22.086,17.816 21.949 C 17.706 21.870,17.536 21.693,17.437 21.555 L 17.258 21.303 17.277 16.170 L 17.295 11.037 17.397 10.841 C 17.508 10.628,17.745 10.423,17.952 10.361 C 18.024 10.339,19.234 10.320,20.640 10.317 L 23.197 10.313 23.433 10.534 M20.676 13.028 C 20.486 13.157,20.086 13.870,19.481 15.155 C 19.012 16.152,18.983 16.267,19.139 16.496 C 19.281 16.705,19.492 16.805,19.851 16.831 C 20.408 16.872,20.396 16.796,19.976 17.634 C 19.773 18.040,19.571 18.480,19.528 18.611 C 19.453 18.843,19.453 18.856,19.551 19.058 C 19.671 19.307,19.809 19.405,20.088 19.444 C 20.241 19.465,20.329 19.452,20.413 19.397 C 20.579 19.288,20.942 18.677,21.442 17.663 C 22.116 16.299,22.174 16.101,21.976 15.849 C 21.828 15.661,21.646 15.588,21.246 15.559 C 21.047 15.544,20.858 15.524,20.827 15.515 C 20.791 15.504,20.911 15.208,21.160 14.691 C 21.644 13.688,21.678 13.586,21.606 13.368 C 21.540 13.169,21.272 12.976,21.015 12.942 C 20.879 12.924,20.799 12.944,20.676 13.028 M6.603 15.002 C 8.176 15.186,8.352 15.238,8.498 15.560 C 8.651 15.896,8.584 16.209,8.312 16.439 C 8.095 16.621,7.901 16.638,7.047 16.547 C 5.528 16.385,5.160 16.273,5.048 15.937 C 4.954 15.655,5.000 15.330,5.156 15.167 C 5.266 15.052,5.524 14.890,5.600 14.888 C 5.613 14.888,6.064 14.939,6.603 15.002 M11.179 15.674 C 11.465 15.804,11.599 15.997,11.694 16.413 C 11.739 16.613,11.808 16.803,11.847 16.835 C 11.901 16.880,12.368 16.893,13.822 16.893 L 15.727 16.893 15.727 17.643 L 15.727 18.392 13.327 18.378 C 10.992 18.364,10.923 18.361,10.795 18.268 C 10.723 18.215,10.616 18.077,10.557 17.961 C 10.424 17.695,10.263 16.886,10.252 16.427 C 10.242 16.010,10.332 15.843,10.651 15.685 C 10.892 15.566,10.938 15.565,11.179 15.674 " fill="#1A1C1F" stroke="none" fill-rule="evenodd"></path></svg>