<svg width="12" height="12" viewBox="0 0 12 12" fill="none" xmlns="http://www.w3.org/2000/svg"><path d="M8.663 1.402 C 8.526 1.425,7.888 1.638,7.730 1.712 C 7.504 1.819,7.334 2.049,7.276 2.326 C 7.249 2.454,7.225 2.335,7.821 5.088 C 7.986 5.846,8.120 6.481,8.120 6.498 C 8.120 6.519,8.037 6.572,7.890 6.646 C 7.409 6.890,7.061 7.198,6.761 7.647 C 6.627 7.846,6.427 8.265,6.327 8.555 L 6.250 8.780 4.978 8.780 L 3.705 8.780 3.602 8.641 C 3.473 8.468,3.333 8.347,3.140 8.243 C 2.942 8.136,2.794 8.100,2.561 8.100 C 2.177 8.101,1.905 8.216,1.642 8.490 C 1.378 8.765,1.293 8.981,1.295 9.370 C 1.296 9.562,1.305 9.636,1.340 9.740 C 1.407 9.941,1.494 10.076,1.659 10.241 C 1.893 10.474,2.155 10.594,2.472 10.614 C 2.704 10.629,2.902 10.587,3.126 10.475 C 3.334 10.372,3.577 10.137,3.679 9.937 L 3.748 9.805 5.219 9.794 C 6.148 9.787,6.727 9.775,6.790 9.761 C 6.930 9.731,7.039 9.646,7.105 9.517 C 7.135 9.458,7.195 9.275,7.239 9.110 C 7.376 8.590,7.502 8.322,7.760 8.002 C 7.901 7.828,8.326 7.526,8.359 7.578 C 8.366 7.590,8.416 7.789,8.468 8.018 L 8.564 8.436 8.472 8.549 C 8.366 8.679,8.301 8.800,8.239 8.982 C 8.204 9.086,8.195 9.156,8.195 9.350 C 8.195 9.621,8.213 9.707,8.314 9.918 C 8.367 10.030,8.424 10.106,8.547 10.229 C 8.734 10.417,8.910 10.519,9.152 10.581 C 9.750 10.734,10.396 10.400,10.634 9.814 C 10.696 9.662,10.722 9.394,10.699 9.163 C 10.686 9.032,10.665 8.963,10.599 8.824 C 10.529 8.678,10.485 8.621,10.333 8.470 C 10.122 8.262,9.983 8.182,9.713 8.116 C 9.616 8.092,9.532 8.063,9.528 8.051 C 9.520 8.029,8.869 5.049,8.528 3.473 C 8.424 2.990,8.342 2.592,8.346 2.588 C 8.350 2.584,8.494 2.527,8.667 2.461 C 9.048 2.315,9.081 2.298,9.149 2.218 C 9.286 2.055,9.328 1.846,9.252 1.700 C 9.121 1.449,8.935 1.355,8.663 1.402 M2.290 6.239 C 2.122 6.253,2.051 6.289,1.944 6.411 C 1.815 6.557,1.790 6.781,1.881 6.960 C 1.934 7.063,2.059 7.174,2.150 7.197 C 2.194 7.209,2.408 7.228,2.626 7.239 C 3.168 7.268,3.259 7.302,3.709 7.640 C 3.937 7.810,4.037 7.852,4.169 7.831 C 4.291 7.812,4.450 7.727,4.510 7.648 C 4.584 7.551,4.646 7.367,4.633 7.284 C 4.582 6.968,4.049 6.541,3.430 6.320 C 3.267 6.262,3.218 6.255,2.910 6.239 C 2.540 6.221,2.498 6.221,2.290 6.239 " fill="#1A1C1F" stroke="none" fill-rule="evenodd"></path></svg>