<svg width="16" height="16" viewBox="0 0 16 16" fill="none" xmlns="http://www.w3.org/2000/svg"><path d="M4.741 2.052 C 4.550 2.078,4.281 2.233,4.074 2.436 C 3.768 2.737,3.642 2.992,3.494 3.609 C 3.403 3.988,3.076 5.425,2.985 5.847 L 2.952 6.000 2.276 6.000 L 1.600 6.000 1.600 6.800 L 1.600 7.600 1.967 7.600 C 2.396 7.601,2.443 7.610,2.465 7.697 C 2.474 7.733,2.535 8.185,2.600 8.701 C 2.761 9.973,2.801 10.125,3.077 10.500 L 3.200 10.667 3.200 11.533 L 3.200 12.400 4.200 12.400 L 5.200 12.400 5.200 11.903 L 5.200 11.406 5.353 11.423 C 6.362 11.538,7.186 11.600,7.702 11.600 L 7.992 11.600 8.007 12.167 C 8.020 12.689,8.026 12.747,8.089 12.912 C 8.201 13.206,8.392 13.467,8.640 13.660 C 8.785 13.773,8.926 13.846,9.170 13.934 L 9.353 14.000 11.203 14.000 L 13.053 14.000 13.262 13.922 C 13.560 13.811,13.739 13.694,13.943 13.479 C 14.137 13.274,14.228 13.124,14.332 12.835 L 14.401 12.645 14.394 9.156 L 14.387 5.667 14.298 5.464 C 14.073 4.949,13.627 4.582,13.061 4.443 L 12.816 4.383 12.783 4.256 C 12.726 4.030,12.518 3.782,12.295 3.674 C 12.181 3.619,12.142 3.617,11.228 3.615 C 10.114 3.613,10.068 3.620,9.863 3.832 C 9.725 3.975,9.660 4.089,9.614 4.267 L 9.583 4.387 9.363 4.432 C 8.747 4.560,8.266 4.966,8.082 5.514 C 8.051 5.606,8.018 5.753,8.009 5.841 L 7.992 6.000 6.153 6.000 L 4.314 6.000 4.329 5.940 C 4.337 5.907,4.453 5.322,4.587 4.640 C 4.722 3.958,4.835 3.397,4.838 3.393 C 4.842 3.389,5.712 3.374,6.770 3.359 C 8.929 3.329,8.827 3.339,9.010 3.131 C 9.136 2.988,9.183 2.830,9.169 2.602 C 9.155 2.388,9.063 2.241,8.868 2.121 L 8.738 2.040 6.815 2.036 C 5.758 2.034,4.825 2.041,4.741 2.052 M12.930 5.837 C 12.950 5.850,12.978 5.913,12.992 5.977 C 13.007 6.046,13.023 7.390,13.032 9.289 L 13.046 12.484 12.971 12.562 L 12.897 12.640 11.197 12.640 L 9.498 12.640 9.425 12.553 L 9.352 12.467 9.367 9.240 C 9.379 6.918,9.392 5.989,9.414 5.928 C 9.432 5.876,9.466 5.839,9.502 5.832 C 9.616 5.810,12.894 5.815,12.930 5.837 M11.213 6.868 C 10.990 6.984,10.860 7.214,10.283 8.515 C 10.039 9.064,10.010 9.165,10.052 9.317 C 10.127 9.581,10.357 9.769,10.658 9.809 C 10.773 9.824,10.811 9.839,10.805 9.868 C 10.801 9.889,10.715 10.081,10.614 10.293 C 10.357 10.838,10.306 10.996,10.347 11.133 C 10.411 11.345,10.594 11.529,10.811 11.600 C 10.893 11.627,10.944 11.627,11.061 11.601 C 11.330 11.541,11.460 11.352,11.954 10.307 C 12.370 9.426,12.429 9.251,12.375 9.058 C 12.334 8.912,12.183 8.727,12.065 8.678 C 12.018 8.658,11.900 8.634,11.801 8.624 C 11.703 8.614,11.617 8.591,11.610 8.574 C 11.603 8.556,11.688 8.337,11.798 8.086 C 12.092 7.418,12.105 7.327,11.945 7.086 C 11.797 6.862,11.434 6.754,11.213 6.868 M4.453 8.011 C 5.063 8.155,5.277 8.230,5.390 8.344 C 5.615 8.569,5.582 9.016,5.327 9.209 C 5.177 9.323,5.048 9.342,4.755 9.292 C 4.434 9.237,3.611 9.034,3.505 8.984 C 3.410 8.938,3.265 8.729,3.225 8.580 C 3.157 8.329,3.341 8.001,3.598 7.917 C 3.714 7.879,4.048 7.916,4.453 8.011 M7.070 8.509 C 7.215 8.582,7.320 8.727,7.386 8.943 C 7.418 9.047,7.449 9.148,7.454 9.167 C 7.462 9.190,7.542 9.200,7.732 9.200 L 8.000 9.200 8.000 9.800 L 8.000 10.400 7.412 10.400 C 6.763 10.400,6.738 10.395,6.593 10.230 C 6.495 10.118,6.421 9.926,6.319 9.520 C 6.200 9.045,6.194 8.941,6.273 8.767 C 6.343 8.616,6.470 8.495,6.605 8.453 C 6.709 8.420,6.954 8.449,7.070 8.509 " fill="#1A1C1F" stroke="none" fill-rule="evenodd"></path></svg>