<svg width="12" height="12" viewBox="0 0 12 12" fill="none" xmlns="http://www.w3.org/2000/svg"><path d="M9.169 1.301 C 8.965 1.341,8.014 1.636,7.814 1.721 C 7.542 1.837,7.390 2.000,7.299 2.273 C 7.223 2.502,7.207 2.398,7.630 4.550 C 7.898 5.915,7.925 6.071,7.910 6.119 C 7.904 6.139,7.780 6.245,7.634 6.355 C 7.203 6.683,6.825 7.041,6.584 7.353 C 6.381 7.615,6.195 8.014,6.100 8.390 L 6.044 8.610 5.056 8.615 L 4.068 8.620 4.027 8.535 C 3.880 8.235,3.545 7.950,3.175 7.811 C 3.049 7.764,3.014 7.760,2.703 7.760 C 2.327 7.760,2.248 7.777,2.001 7.913 C 1.567 8.151,1.294 8.541,1.220 9.030 C 1.112 9.742,1.608 10.482,2.320 10.671 C 2.409 10.694,2.531 10.705,2.710 10.706 C 2.950 10.707,2.983 10.703,3.142 10.647 C 3.236 10.614,3.376 10.552,3.452 10.510 C 3.627 10.414,3.902 10.139,4.007 9.956 L 4.084 9.823 5.417 9.816 L 6.750 9.810 6.861 9.758 C 6.991 9.697,7.106 9.569,7.150 9.437 C 7.165 9.389,7.196 9.206,7.218 9.029 C 7.296 8.410,7.420 8.161,7.863 7.728 C 8.085 7.511,8.171 7.444,8.196 7.469 C 8.202 7.476,8.237 7.613,8.273 7.775 L 8.339 8.069 8.262 8.150 C 8.051 8.371,7.909 8.617,7.848 8.871 C 7.798 9.076,7.802 9.406,7.858 9.609 C 7.996 10.108,8.431 10.545,8.913 10.669 C 9.079 10.711,9.520 10.711,9.687 10.669 C 10.087 10.567,10.453 10.255,10.650 9.850 C 10.756 9.630,10.786 9.493,10.786 9.220 C 10.787 8.870,10.687 8.581,10.471 8.305 C 10.288 8.070,10.041 7.906,9.699 7.792 L 9.490 7.722 9.385 7.196 C 9.014 5.349,8.519 2.811,8.524 2.784 C 8.532 2.743,8.600 2.717,9.154 2.541 C 9.584 2.404,9.601 2.397,9.695 2.305 C 9.826 2.176,9.867 2.084,9.876 1.894 C 9.886 1.702,9.853 1.602,9.739 1.484 C 9.647 1.388,9.571 1.345,9.430 1.307 C 9.319 1.278,9.288 1.277,9.169 1.301 M2.340 5.939 C 2.131 5.970,1.935 6.110,1.861 6.281 C 1.830 6.355,1.818 6.423,1.818 6.531 C 1.818 6.710,1.860 6.817,1.981 6.948 C 2.101 7.079,2.181 7.098,2.701 7.118 C 3.085 7.133,3.142 7.140,3.218 7.179 C 3.366 7.255,3.564 7.381,3.723 7.502 C 3.975 7.694,3.998 7.704,4.185 7.705 C 4.400 7.706,4.489 7.669,4.627 7.520 C 4.748 7.389,4.790 7.278,4.786 7.094 C 4.782 6.872,4.656 6.703,4.287 6.426 C 3.944 6.167,3.495 5.978,3.137 5.940 C 2.931 5.919,2.481 5.918,2.340 5.939 M2.813 8.961 C 2.921 9.014,2.980 9.106,2.980 9.224 C 2.980 9.394,2.832 9.532,2.672 9.513 C 2.567 9.500,2.500 9.447,2.444 9.336 C 2.404 9.256,2.400 9.233,2.418 9.166 C 2.441 9.083,2.511 9.005,2.610 8.953 C 2.689 8.911,2.712 8.912,2.813 8.961 M9.413 8.961 C 9.521 9.014,9.580 9.106,9.580 9.224 C 9.580 9.394,9.432 9.532,9.272 9.513 C 9.167 9.500,9.100 9.447,9.044 9.336 C 9.004 9.256,9.000 9.233,9.018 9.166 C 9.041 9.083,9.111 9.005,9.210 8.953 C 9.289 8.911,9.312 8.912,9.413 8.961 " fill="#1A1C1F" stroke="none" fill-rule="evenodd"></path></svg>