<svg width="14" height="14" viewBox="0 0 14 14" fill="none" xmlns="http://www.w3.org/2000/svg"><path d="M10.504 1.565 C 10.194 1.649,9.348 1.915,9.170 1.986 C 8.822 2.124,8.644 2.301,8.527 2.623 C 8.428 2.895,8.429 2.904,8.785 4.713 C 9.134 6.484,9.243 7.078,9.230 7.131 C 9.223 7.160,9.091 7.275,8.919 7.403 C 7.874 8.184,7.346 8.883,7.116 9.788 L 7.051 10.045 5.899 10.051 L 4.746 10.057 4.698 9.958 C 4.527 9.607,4.136 9.275,3.704 9.113 C 3.557 9.058,3.517 9.053,3.153 9.053 C 2.716 9.053,2.637 9.070,2.337 9.228 C 1.711 9.557,1.332 10.276,1.421 10.966 C 1.450 11.197,1.544 11.484,1.640 11.635 C 2.277 12.645,3.610 12.797,4.412 11.953 C 4.507 11.852,4.625 11.701,4.675 11.615 L 4.764 11.460 6.320 11.452 L 7.875 11.445 8.005 11.384 C 8.152 11.315,8.287 11.168,8.340 11.019 C 8.358 10.966,8.390 10.781,8.410 10.609 C 8.485 9.959,8.575 9.711,8.867 9.345 C 8.994 9.187,9.383 8.802,9.478 8.740 C 9.555 8.690,9.580 8.703,9.597 8.802 C 9.605 8.844,9.637 8.998,9.669 9.145 L 9.727 9.412 9.596 9.554 C 9.423 9.740,9.305 9.926,9.212 10.158 C 9.135 10.348,9.135 10.349,9.136 10.757 C 9.136 11.141,9.140 11.175,9.197 11.324 C 9.342 11.699,9.623 12.052,9.920 12.232 C 10.267 12.442,10.618 12.521,11.039 12.483 C 11.430 12.448,11.717 12.322,12.006 12.057 C 12.407 11.690,12.582 11.286,12.583 10.722 C 12.584 10.494,12.576 10.441,12.510 10.247 C 12.310 9.658,11.933 9.293,11.314 9.091 L 11.073 9.012 10.996 8.630 C 10.603 6.679,9.939 3.278,9.945 3.248 C 9.954 3.201,10.026 3.173,10.685 2.962 C 11.198 2.797,11.210 2.792,11.322 2.680 C 11.470 2.532,11.530 2.396,11.531 2.206 C 11.533 1.887,11.375 1.652,11.090 1.550 C 10.964 1.505,10.703 1.512,10.504 1.565 M2.726 6.930 C 2.506 6.958,2.260 7.129,2.169 7.318 C 2.105 7.449,2.099 7.736,2.157 7.875 C 2.217 8.019,2.347 8.158,2.481 8.224 C 2.599 8.282,2.634 8.286,3.131 8.305 C 3.600 8.324,3.668 8.331,3.756 8.376 C 3.931 8.466,4.143 8.602,4.384 8.782 C 4.639 8.972,4.701 8.995,4.947 8.992 C 5.130 8.989,5.242 8.938,5.383 8.793 C 5.593 8.576,5.647 8.276,5.522 8.020 C 5.358 7.685,4.541 7.131,4.002 6.989 C 3.718 6.914,3.077 6.885,2.726 6.930 M3.313 10.473 C 3.468 10.556,3.535 10.807,3.437 10.938 C 3.354 11.050,3.271 11.095,3.150 11.095 C 2.808 11.095,2.687 10.619,2.992 10.469 C 3.093 10.419,3.214 10.420,3.313 10.473 M11.012 10.473 C 11.214 10.581,11.233 10.887,11.046 11.034 C 10.915 11.137,10.728 11.118,10.605 10.989 C 10.516 10.897,10.497 10.690,10.566 10.580 C 10.654 10.440,10.859 10.391,11.012 10.473 " fill="#1A1C1F" stroke="none" fill-rule="evenodd"></path></svg>