<svg width="12" height="12" viewBox="0 0 12 12" fill="none" xmlns="http://www.w3.org/2000/svg"><path d="M3.559 1.539 C 3.352 1.567,3.046 1.788,2.880 2.030 C 2.771 2.188,2.701 2.371,2.620 2.707 C 2.552 2.991,2.307 4.069,2.238 4.385 L 2.214 4.500 1.707 4.500 L 1.200 4.500 1.200 5.099 L 1.200 5.697 1.508 5.704 C 1.678 5.707,1.823 5.716,1.831 5.724 C 1.847 5.741,1.896 6.082,1.970 6.697 C 2.057 7.419,2.111 7.608,2.308 7.875 L 2.400 8.000 2.400 8.650 L 2.400 9.300 3.150 9.300 L 3.900 9.300 3.900 8.927 L 3.900 8.554 4.015 8.567 C 4.771 8.653,5.389 8.700,5.776 8.700 L 5.994 8.700 6.005 9.115 C 6.019 9.606,6.044 9.713,6.202 9.950 C 6.361 10.187,6.581 10.348,6.888 10.453 L 7.027 10.500 8.410 10.500 C 9.707 10.500,9.800 10.498,9.902 10.463 C 10.330 10.315,10.615 10.030,10.763 9.602 C 10.798 9.499,10.800 9.378,10.800 6.892 L 10.799 4.290 10.731 4.125 C 10.654 3.938,10.571 3.816,10.416 3.667 C 10.224 3.480,10.033 3.378,9.772 3.323 L 9.614 3.290 9.591 3.199 C 9.579 3.149,9.548 3.075,9.523 3.035 C 9.452 2.920,9.269 2.764,9.174 2.738 C 9.118 2.722,8.856 2.714,8.400 2.712 C 7.588 2.710,7.551 2.716,7.397 2.874 C 7.294 2.981,7.245 3.066,7.211 3.199 L 7.188 3.287 7.029 3.322 C 6.712 3.390,6.525 3.494,6.322 3.711 C 6.139 3.907,6.000 4.222,6.000 4.441 L 6.000 4.500 4.618 4.500 L 3.236 4.500 3.247 4.455 C 3.253 4.430,3.340 3.991,3.441 3.480 C 3.541 2.969,3.626 2.547,3.629 2.544 C 3.632 2.541,4.277 2.530,5.062 2.519 C 5.950 2.507,6.519 2.491,6.569 2.478 C 6.681 2.448,6.824 2.298,6.859 2.174 C 6.875 2.116,6.881 2.028,6.875 1.947 C 6.862 1.786,6.796 1.680,6.651 1.590 L 6.553 1.530 5.112 1.527 C 4.319 1.525,3.620 1.530,3.559 1.539 M9.697 4.378 C 9.712 4.387,9.733 4.434,9.744 4.483 C 9.755 4.535,9.768 5.536,9.774 6.967 L 9.784 9.363 9.729 9.422 L 9.673 9.480 8.398 9.480 L 7.124 9.480 7.069 9.415 L 7.014 9.350 7.026 6.930 C 7.034 5.196,7.044 4.492,7.060 4.446 C 7.074 4.407,7.100 4.379,7.127 4.374 C 7.212 4.357,9.671 4.361,9.697 4.378 M8.410 5.151 C 8.272 5.223,8.207 5.317,8.020 5.714 C 7.606 6.595,7.509 6.843,7.530 6.958 C 7.571 7.176,7.711 7.298,7.977 7.349 C 8.072 7.367,8.108 7.382,8.104 7.402 C 8.101 7.417,8.036 7.561,7.960 7.721 C 7.884 7.881,7.802 8.073,7.778 8.146 C 7.735 8.277,7.735 8.282,7.770 8.375 C 7.817 8.498,7.962 8.644,8.086 8.690 C 8.170 8.722,8.195 8.723,8.293 8.701 C 8.493 8.656,8.590 8.520,8.923 7.817 C 9.161 7.313,9.276 7.039,9.292 6.939 C 9.330 6.705,9.119 6.485,8.839 6.465 C 8.743 6.458,8.700 6.447,8.700 6.429 C 8.700 6.414,8.767 6.250,8.849 6.063 C 9.069 5.564,9.079 5.495,8.959 5.314 C 8.848 5.147,8.575 5.066,8.410 5.151 M3.332 6.008 C 3.721 6.097,3.904 6.153,3.984 6.207 C 4.244 6.382,4.205 6.804,3.915 6.949 C 3.858 6.977,3.786 7.000,3.754 7.000 C 3.673 7.000,2.960 6.845,2.778 6.788 C 2.592 6.729,2.534 6.686,2.465 6.553 C 2.403 6.433,2.394 6.267,2.445 6.170 C 2.485 6.095,2.614 5.969,2.680 5.941 C 2.760 5.907,3.006 5.932,3.332 6.008 M5.285 6.374 C 5.397 6.419,5.488 6.537,5.539 6.706 C 5.563 6.785,5.586 6.861,5.591 6.875 C 5.596 6.893,5.656 6.900,5.799 6.900 L 6.000 6.900 6.000 7.350 L 6.000 7.800 5.559 7.800 C 5.072 7.800,5.053 7.796,4.945 7.673 C 4.870 7.587,4.815 7.442,4.740 7.135 C 4.657 6.797,4.647 6.683,4.691 6.590 C 4.736 6.497,4.844 6.385,4.928 6.348 C 5.001 6.315,5.168 6.327,5.285 6.374 " fill="#1A1C1F" stroke="none" fill-rule="evenodd"></path></svg>