<svg width="16" height="16" viewBox="0 0 16 16" fill="none" xmlns="http://www.w3.org/2000/svg"><path d="M12.147 1.751 C 11.785 1.831,10.641 2.199,10.337 2.333 C 9.965 2.497,9.680 2.931,9.680 3.332 C 9.680 3.526,9.746 3.897,10.118 5.787 C 10.508 7.769,10.567 8.096,10.547 8.158 C 10.538 8.186,10.379 8.322,10.192 8.462 C 9.612 8.895,9.036 9.449,8.743 9.853 C 8.470 10.231,8.256 10.699,8.133 11.187 L 8.058 11.480 6.743 11.487 L 5.427 11.494 5.353 11.353 C 5.169 11.001,4.846 10.706,4.400 10.485 L 4.147 10.360 3.613 10.360 L 3.080 10.360 2.867 10.454 C 2.162 10.765,1.727 11.331,1.624 12.071 C 1.534 12.723,1.825 13.417,2.377 13.864 C 2.741 14.158,3.091 14.273,3.627 14.275 C 3.966 14.276,3.999 14.271,4.209 14.192 C 4.331 14.146,4.511 14.065,4.609 14.010 C 4.836 13.885,5.204 13.515,5.344 13.273 L 5.447 13.093 7.037 13.093 C 7.911 13.093,8.732 13.081,8.862 13.068 C 9.134 13.039,9.280 12.969,9.411 12.803 C 9.529 12.654,9.564 12.534,9.612 12.115 C 9.714 11.238,9.882 10.892,10.498 10.291 C 10.794 10.002,10.897 9.925,10.932 9.964 C 10.943 9.977,10.989 10.161,11.035 10.373 L 11.118 10.760 11.002 10.880 C 10.442 11.460,10.271 12.203,10.523 12.957 C 10.612 13.223,10.774 13.466,11.046 13.737 C 11.295 13.986,11.568 14.145,11.884 14.225 C 12.095 14.279,12.641 14.279,12.893 14.227 C 13.407 14.119,13.928 13.690,14.188 13.160 C 14.339 12.853,14.373 12.688,14.373 12.274 C 14.373 11.985,14.363 11.887,14.318 11.752 C 14.140 11.220,13.819 10.823,13.359 10.564 C 13.278 10.519,13.086 10.441,12.933 10.390 L 12.654 10.299 12.500 9.530 C 11.976 6.919,11.358 3.751,11.365 3.713 C 11.376 3.658,11.460 3.625,12.200 3.388 C 12.638 3.247,12.811 3.179,12.884 3.119 C 13.361 2.726,13.244 1.975,12.675 1.772 C 12.579 1.738,12.264 1.725,12.147 1.751 M3.133 7.917 C 2.714 7.969,2.417 8.295,2.416 8.707 C 2.415 8.926,2.475 9.073,2.643 9.264 C 2.797 9.438,2.904 9.464,3.602 9.491 C 4.114 9.511,4.189 9.520,4.291 9.572 C 4.493 9.675,4.734 9.831,5.011 10.037 C 5.296 10.249,5.371 10.278,5.632 10.276 C 5.857 10.275,6.001 10.208,6.166 10.029 C 6.331 9.852,6.373 9.738,6.373 9.475 C 6.373 9.233,6.292 9.068,6.074 8.865 C 5.506 8.339,4.797 7.985,4.183 7.921 C 3.915 7.892,3.350 7.891,3.133 7.917 M3.751 11.949 C 3.955 12.048,4.032 12.282,3.930 12.497 C 3.853 12.659,3.608 12.734,3.441 12.648 C 3.156 12.501,3.156 12.104,3.440 11.954 C 3.581 11.880,3.607 11.879,3.751 11.949 M12.551 11.949 C 12.755 12.048,12.832 12.282,12.730 12.497 C 12.653 12.659,12.408 12.734,12.241 12.648 C 11.956 12.501,11.956 12.104,12.240 11.954 C 12.381 11.880,12.407 11.879,12.551 11.949 " fill="#1A1C1F" stroke="none" fill-rule="evenodd"></path></svg>