<svg width="20" height="20" viewBox="0 0 20 20" fill="none" xmlns="http://www.w3.org/2000/svg"><path d="M14.459 2.333 C 14.234 2.373,13.687 2.546,13.171 2.742 C 12.781 2.890,12.703 2.933,12.552 3.081 C 12.354 3.274,12.144 3.666,12.113 3.900 C 12.099 4.007,12.128 4.216,12.213 4.625 C 12.448 5.751,12.809 7.442,13.170 9.113 C 13.372 10.046,13.530 10.827,13.521 10.850 C 13.513 10.872,13.355 10.968,13.171 11.063 C 11.881 11.726,11.087 12.692,10.546 14.258 L 10.417 14.633 8.296 14.633 L 6.176 14.633 6.003 14.400 C 5.722 14.024,5.241 13.684,4.802 13.554 C 4.572 13.485,4.024 13.484,3.742 13.550 C 3.035 13.717,2.422 14.306,2.215 15.018 C 2.137 15.285,2.139 15.948,2.218 16.185 C 2.343 16.556,2.480 16.780,2.750 17.051 C 3.165 17.469,3.584 17.660,4.150 17.689 C 4.706 17.719,5.143 17.575,5.569 17.223 C 5.800 17.031,6.063 16.709,6.176 16.478 L 6.244 16.340 8.730 16.324 C 10.315 16.314,11.264 16.296,11.347 16.273 C 11.552 16.218,11.740 16.062,11.841 15.862 C 11.891 15.764,11.994 15.451,12.069 15.167 C 12.310 14.252,12.573 13.734,13.047 13.240 C 13.318 12.958,13.756 12.633,13.867 12.633 C 13.942 12.633,13.957 12.677,14.135 13.459 L 14.274 14.067 14.155 14.199 C 13.772 14.623,13.608 15.177,13.667 15.845 C 13.773 17.035,14.996 17.915,16.179 17.652 C 16.593 17.560,16.938 17.367,17.253 17.053 C 17.641 16.665,17.812 16.277,17.856 15.680 C 17.930 14.684,17.176 13.737,16.132 13.512 L 15.878 13.458 15.836 13.254 C 15.813 13.142,15.443 11.438,15.012 9.467 C 14.582 7.496,14.162 5.568,14.080 5.183 C 13.998 4.798,13.922 4.451,13.912 4.411 C 13.890 4.321,13.984 4.269,14.530 4.069 C 14.739 3.992,14.966 3.901,15.034 3.866 C 15.390 3.685,15.587 3.156,15.419 2.833 C 15.205 2.422,14.890 2.257,14.459 2.333 M3.833 10.397 C 3.538 10.421,3.421 10.478,3.239 10.684 C 3.025 10.928,2.983 11.301,3.135 11.600 C 3.223 11.773,3.431 11.956,3.583 11.995 C 3.657 12.014,4.020 12.045,4.390 12.065 C 5.282 12.111,5.425 12.164,6.182 12.733 C 6.593 13.041,6.731 13.093,6.995 13.039 C 7.360 12.964,7.615 12.721,7.700 12.367 C 7.733 12.231,7.730 12.172,7.685 12.017 C 7.515 11.434,6.077 10.497,5.232 10.419 C 4.910 10.389,4.091 10.376,3.833 10.397 " fill="#1A1C1F" stroke="none" fill-rule="evenodd"></path></svg>