<svg width="32" height="32" viewBox="0 0 32 32" fill="none" xmlns="http://www.w3.org/2000/svg"><path d="M12.507 4.590 C 10.320 4.653,9.137 4.813,8.515 5.129 C 8.153 5.313,7.710 5.631,7.529 5.838 C 7.177 6.239,6.949 6.871,6.371 9.049 C 5.766 11.326,5.487 12.339,5.437 12.432 C 5.395 12.511,5.235 12.524,4.041 12.543 C 2.597 12.566,2.514 12.581,2.260 12.862 C 2.027 13.118,2.004 13.223,2.004 14.000 C 2.005 14.841,2.043 14.967,2.379 15.244 C 2.602 15.428,3.012 15.520,3.609 15.520 L 3.983 15.520 4.018 16.467 C 4.069 17.886,4.273 19.883,4.459 20.800 C 4.504 21.020,4.627 21.392,4.732 21.627 C 4.903 22.009,4.927 22.120,4.963 22.693 C 4.985 23.045,5.006 23.719,5.008 24.191 C 5.013 25.031,5.017 25.057,5.171 25.365 C 5.480 25.983,5.998 26.358,6.680 26.456 C 7.137 26.522,8.909 26.518,9.333 26.450 C 10.034 26.337,10.516 25.999,10.799 25.419 C 10.928 25.157,10.951 25.033,10.975 24.500 L 11.002 23.883 11.159 23.914 C 11.245 23.932,12.811 23.962,14.637 23.982 L 17.959 24.017 17.990 24.426 C 18.029 24.928,18.226 25.566,18.450 25.915 C 18.743 26.371,19.397 26.947,19.913 27.203 C 20.500 27.494,20.732 27.514,23.387 27.516 C 25.928 27.517,26.621 27.470,27.061 27.264 C 27.721 26.955,28.569 26.072,28.801 25.452 C 28.983 24.965,29.011 24.223,29.012 19.724 L 29.013 15.528 29.192 15.469 C 29.419 15.394,29.789 15.080,29.906 14.861 C 30.034 14.623,30.037 13.381,29.910 13.147 C 29.796 12.935,29.597 12.755,29.297 12.589 C 29.063 12.459,29.048 12.436,28.957 12.073 C 28.657 10.877,27.674 9.903,26.433 9.572 L 26.013 9.460 25.916 9.204 C 25.804 8.908,25.691 8.770,25.467 8.651 C 25.330 8.579,25.039 8.566,23.493 8.563 C 21.869 8.560,21.662 8.570,21.511 8.653 C 21.314 8.760,21.130 9.001,21.036 9.274 C 20.975 9.452,20.944 9.474,20.632 9.556 C 19.980 9.728,19.295 10.108,18.858 10.540 C 18.440 10.953,18.027 11.759,18.027 12.162 L 18.027 12.303 15.480 12.338 C 14.079 12.357,11.751 12.400,10.305 12.434 C 8.860 12.467,7.662 12.480,7.643 12.461 C 7.563 12.381,8.721 7.840,8.941 7.376 C 9.180 6.870,9.383 6.808,11.280 6.663 C 12.448 6.574,17.998 6.537,19.573 6.608 C 21.091 6.676,22.063 6.754,22.353 6.830 C 22.459 6.858,22.747 7.012,22.993 7.173 C 23.239 7.333,23.519 7.480,23.616 7.499 C 24.018 7.577,24.571 7.174,24.696 6.712 C 24.791 6.356,24.694 6.123,24.274 5.703 C 23.861 5.289,23.365 5.017,22.792 4.887 C 21.496 4.595,16.944 4.463,12.507 4.590 M26.468 11.646 C 26.520 11.672,26.658 11.826,26.775 11.988 L 26.987 12.284 26.983 16.902 C 26.980 19.442,26.961 22.291,26.940 23.232 C 26.898 25.143,26.906 25.102,26.508 25.366 L 26.298 25.505 23.455 25.484 C 21.382 25.469,20.582 25.446,20.499 25.400 C 20.436 25.365,20.310 25.223,20.219 25.085 L 20.053 24.835 20.053 18.562 L 20.053 12.289 20.173 12.054 C 20.259 11.885,20.361 11.783,20.533 11.693 L 20.772 11.569 23.573 11.584 C 25.113 11.593,26.416 11.621,26.468 11.646 M17.373 14.328 L 17.973 14.363 17.973 16.435 L 17.973 18.507 15.545 18.507 C 13.648 18.507,13.113 18.492,13.098 18.440 C 13.088 18.403,13.038 18.185,12.987 17.954 C 12.910 17.606,12.862 17.502,12.699 17.339 C 12.469 17.109,12.129 16.991,11.837 17.041 C 11.583 17.083,11.232 17.330,11.122 17.543 C 11.005 17.770,11.021 18.309,11.170 19.105 C 11.322 19.920,11.451 20.184,11.787 20.373 L 12.027 20.507 15.000 20.525 L 17.973 20.543 17.973 21.251 L 17.973 21.958 17.693 21.992 C 17.279 22.042,14.816 22.032,12.960 21.973 C 9.426 21.861,6.997 21.453,6.603 20.907 C 6.502 20.767,6.329 19.705,6.260 18.808 L 6.224 18.347 6.379 18.347 C 6.464 18.347,6.869 18.382,7.279 18.426 C 8.157 18.518,8.356 18.485,8.653 18.199 C 8.987 17.876,9.066 17.403,8.850 17.019 C 8.697 16.747,8.445 16.613,7.893 16.512 C 7.504 16.440,6.207 16.267,6.060 16.267 C 5.978 16.267,6.073 15.249,6.175 15.040 C 6.320 14.745,6.622 14.612,7.268 14.558 C 8.044 14.494,13.835 14.322,15.920 14.302 C 16.389 14.298,17.043 14.309,17.373 14.328 M23.618 14.614 C 23.511 14.671,23.348 14.808,23.256 14.919 C 23.052 15.164,21.712 17.828,21.581 18.248 C 21.454 18.656,21.519 18.898,21.833 19.188 C 22.053 19.390,22.225 19.457,22.732 19.533 C 22.810 19.545,22.779 19.643,22.525 20.187 C 21.972 21.371,21.920 21.650,22.183 22.013 C 22.596 22.583,23.196 22.645,23.653 22.166 C 24.015 21.788,25.392 19.063,25.471 18.570 C 25.519 18.272,25.350 17.912,25.085 17.746 C 24.820 17.581,24.563 17.493,24.339 17.493 C 24.240 17.493,24.160 17.481,24.160 17.466 C 24.160 17.451,24.303 17.153,24.477 16.805 C 25.070 15.623,25.114 15.318,24.753 14.917 C 24.404 14.531,23.987 14.419,23.618 14.614 M8.070 23.543 C 8.476 23.618,8.854 23.680,8.910 23.680 C 9.003 23.680,9.013 23.720,9.013 24.080 L 9.013 24.480 8.000 24.480 L 6.987 24.480 6.987 23.913 L 6.987 23.346 7.160 23.376 C 7.255 23.392,7.665 23.467,8.070 23.543 " fill="#1A1C1F" stroke="none" fill-rule="evenodd"></path></svg>