<svg width="14" height="14" viewBox="0 0 14 14" fill="none" xmlns="http://www.w3.org/2000/svg"><path d="M4.152 1.796 C 3.807 1.841,3.381 2.230,3.200 2.667 C 3.142 2.808,2.796 4.244,2.624 5.058 L 2.583 5.250 1.992 5.250 L 1.400 5.250 1.400 5.950 L 1.400 6.650 1.721 6.650 C 2.090 6.651,2.137 6.659,2.156 6.728 C 2.163 6.756,2.196 6.999,2.229 7.268 C 2.406 8.721,2.434 8.836,2.693 9.188 L 2.800 9.333 2.800 10.092 L 2.800 10.850 3.675 10.850 L 4.550 10.850 4.550 10.418 L 4.550 9.987 4.603 9.987 C 4.633 9.987,4.777 10.002,4.924 10.021 C 5.376 10.079,5.985 10.126,6.501 10.142 L 6.993 10.157 7.006 10.649 C 7.017 11.103,7.023 11.154,7.078 11.298 C 7.245 11.738,7.559 12.033,8.036 12.195 L 8.198 12.250 9.817 12.250 L 11.435 12.250 11.618 12.179 C 12.061 12.009,12.359 11.710,12.530 11.266 L 12.600 11.085 12.600 8.049 L 12.600 5.013 12.530 4.838 C 12.435 4.600,12.327 4.445,12.124 4.252 C 11.920 4.058,11.725 3.955,11.429 3.886 L 11.218 3.837 11.176 3.703 C 11.106 3.476,10.889 3.247,10.694 3.192 C 10.640 3.178,10.285 3.167,9.800 3.165 C 8.852 3.161,8.809 3.168,8.630 3.353 C 8.510 3.477,8.452 3.578,8.413 3.732 L 8.386 3.835 8.201 3.875 C 7.831 3.955,7.612 4.076,7.375 4.330 C 7.162 4.558,7.000 4.926,7.000 5.181 L 7.000 5.250 5.387 5.250 L 3.775 5.250 3.788 5.198 C 3.794 5.169,3.896 4.657,4.014 4.060 C 4.132 3.463,4.231 2.972,4.234 2.969 C 4.237 2.965,4.997 2.952,5.924 2.939 C 7.812 2.913,7.723 2.922,7.884 2.739 C 7.996 2.612,8.037 2.473,8.021 2.276 C 8.007 2.100,7.951 1.996,7.811 1.885 C 7.717 1.811,7.707 1.809,7.421 1.793 C 7.034 1.772,4.318 1.775,4.152 1.796 M11.313 5.108 C 11.331 5.119,11.355 5.174,11.368 5.230 C 11.382 5.291,11.396 6.443,11.403 8.128 L 11.415 10.924 11.350 10.992 L 11.285 11.060 9.798 11.060 L 8.311 11.060 8.247 10.984 L 8.183 10.908 8.197 8.085 C 8.206 6.053,8.218 5.241,8.237 5.187 C 8.253 5.141,8.283 5.109,8.314 5.103 C 8.414 5.083,11.282 5.088,11.313 5.108 M9.805 6.012 C 9.624 6.101,9.502 6.319,9.003 7.438 C 8.757 7.990,8.740 8.080,8.844 8.283 C 8.924 8.442,9.095 8.545,9.336 8.582 C 9.427 8.596,9.460 8.610,9.455 8.635 C 9.451 8.653,9.376 8.821,9.288 9.007 C 9.062 9.483,9.018 9.622,9.054 9.741 C 9.138 10.022,9.428 10.214,9.674 10.152 C 9.907 10.093,9.992 9.981,10.338 9.271 C 10.602 8.729,10.758 8.376,10.817 8.183 C 10.853 8.066,10.855 8.033,10.830 7.938 C 10.765 7.692,10.595 7.566,10.296 7.542 C 10.194 7.534,10.150 7.521,10.150 7.499 C 10.150 7.481,10.228 7.289,10.324 7.072 C 10.580 6.491,10.592 6.411,10.452 6.200 C 10.321 6.002,10.009 5.912,9.805 6.012 M3.572 6.944 C 3.835 6.989,4.355 7.120,4.535 7.187 C 4.612 7.216,4.692 7.268,4.734 7.316 C 4.927 7.535,4.870 7.912,4.618 8.087 C 4.531 8.147,4.500 8.155,4.365 8.152 C 4.191 8.148,3.401 7.979,3.178 7.898 C 3.097 7.869,3.009 7.825,2.983 7.802 C 2.925 7.749,2.835 7.576,2.813 7.474 C 2.777 7.307,2.916 7.040,3.083 6.957 C 3.205 6.897,3.282 6.895,3.572 6.944 M6.187 7.445 C 6.313 7.509,6.405 7.637,6.462 7.825 C 6.490 7.917,6.517 8.005,6.523 8.021 C 6.529 8.042,6.599 8.050,6.766 8.050 L 7.000 8.050 7.000 8.575 L 7.000 9.100 6.486 9.100 C 5.917 9.100,5.896 9.096,5.769 8.951 C 5.681 8.852,5.617 8.683,5.528 8.319 C 5.424 7.894,5.420 7.823,5.489 7.671 C 5.549 7.540,5.648 7.447,5.775 7.400 C 5.867 7.367,6.079 7.390,6.187 7.445 " fill="#1A1C1F" stroke="none" fill-rule="evenodd"></path></svg>