<svg width="32" height="32" viewBox="0 0 32 32" fill="none" xmlns="http://www.w3.org/2000/svg"><path d="M26.027 5.310 C 24.220 5.687,23.905 5.805,23.421 6.287 C 23.087 6.618,22.853 7.013,22.741 7.432 C 22.647 7.786,22.648 7.994,22.750 8.686 C 22.835 9.269,24.035 15.908,24.081 16.056 C 24.118 16.174,23.921 16.339,23.067 16.907 C 22.014 17.606,21.555 17.966,20.864 18.636 C 19.944 19.526,19.592 20.052,19.287 20.987 C 19.127 21.477,18.987 22.242,18.987 22.620 L 18.987 22.880 13.986 22.880 L 8.984 22.880 8.841 22.413 C 8.419 21.040,7.346 20.137,5.907 19.946 C 5.065 19.833,4.313 20.010,3.600 20.487 C 2.058 21.518,1.569 23.531,2.479 25.100 C 2.562 25.243,2.836 25.565,3.088 25.816 C 3.820 26.543,4.521 26.844,5.493 26.845 C 6.092 26.846,6.530 26.743,7.083 26.470 C 7.558 26.236,8.187 25.666,8.461 25.221 L 8.655 24.907 13.888 24.904 C 16.765 24.902,19.373 24.882,19.683 24.858 C 20.363 24.805,20.696 24.679,20.828 24.423 C 20.916 24.254,20.938 24.069,21.065 22.405 C 21.109 21.833,21.147 21.630,21.254 21.398 C 21.569 20.709,22.323 19.899,23.387 19.107 C 23.951 18.687,24.465 18.367,24.508 18.410 C 24.527 18.429,24.850 20.292,24.834 20.295 C 24.830 20.296,24.641 20.436,24.414 20.607 C 23.078 21.611,22.636 23.419,23.371 24.876 C 23.913 25.951,24.879 26.651,26.067 26.832 C 27.155 26.997,28.206 26.591,29.062 25.674 C 29.732 24.957,30.008 24.185,29.957 23.173 C 29.880 21.634,28.774 20.340,27.223 19.975 L 26.847 19.887 26.566 18.383 C 25.028 10.166,24.661 8.084,24.713 7.878 C 24.758 7.697,25.082 7.569,26.027 7.359 C 26.928 7.159,27.435 7.010,27.613 6.893 C 27.754 6.801,27.915 6.515,27.970 6.257 C 28.021 6.023,27.909 5.690,27.712 5.488 C 27.543 5.315,27.156 5.118,26.996 5.123 C 26.947 5.125,26.511 5.209,26.027 5.310 M3.434 16.096 C 2.976 16.432,2.874 16.966,3.184 17.406 C 3.436 17.765,3.560 17.808,4.595 17.896 C 6.849 18.086,7.535 18.309,8.287 19.093 C 8.472 19.287,8.771 19.695,8.962 20.019 C 9.151 20.337,9.369 20.643,9.448 20.699 C 9.746 20.911,10.325 20.878,10.640 20.631 C 10.815 20.493,10.984 20.143,10.984 19.920 C 10.984 19.683,10.757 19.082,10.509 18.665 C 9.825 17.513,8.917 16.798,7.571 16.353 C 6.733 16.076,6.159 15.994,4.827 15.963 L 3.653 15.935 3.434 16.096 M6.179 22.084 C 6.574 22.282,6.788 22.562,6.911 23.040 C 7.226 24.269,5.921 25.272,4.800 24.661 C 4.308 24.394,4.053 23.942,4.053 23.337 C 4.053 22.258,5.188 21.589,6.179 22.084 M27.070 22.021 C 27.601 22.262,27.893 22.683,27.935 23.267 C 27.968 23.726,27.855 24.038,27.532 24.383 C 26.838 25.125,25.658 24.952,25.205 24.043 C 25.090 23.813,25.067 23.692,25.067 23.333 C 25.067 22.950,25.084 22.874,25.217 22.664 C 25.392 22.389,25.708 22.098,25.943 21.996 C 26.188 21.889,26.810 21.903,27.070 22.021 " fill="#1A1C1F" stroke="none" fill-rule="evenodd"></path></svg>