<svg width="20" height="20" viewBox="0 0 20 20" fill="none" xmlns="http://www.w3.org/2000/svg"><path d="M15.006 2.234 C 14.514 2.370,13.343 2.741,13.100 2.837 C 12.587 3.041,12.325 3.307,12.166 3.785 C 12.041 4.160,12.042 4.163,12.599 6.983 C 13.131 9.674,13.213 10.127,13.181 10.211 C 13.170 10.238,12.964 10.411,12.723 10.594 C 11.214 11.737,10.493 12.692,10.166 13.983 L 10.073 14.350 8.427 14.359 L 6.780 14.367 6.711 14.225 C 6.607 14.013,6.352 13.688,6.165 13.532 C 5.926 13.331,5.496 13.082,5.250 13.000 C 5.059 12.936,4.977 12.930,4.443 12.940 L 3.850 12.950 3.583 13.068 C 2.691 13.462,2.152 14.173,2.025 15.124 C 1.914 15.954,2.309 16.832,3.043 17.386 C 3.482 17.718,3.888 17.842,4.533 17.843 C 4.956 17.843,5.000 17.837,5.261 17.740 C 5.414 17.683,5.639 17.581,5.761 17.513 C 6.045 17.356,6.505 16.894,6.679 16.592 L 6.809 16.367 8.796 16.366 C 9.889 16.366,10.916 16.352,11.077 16.335 C 11.417 16.299,11.600 16.211,11.764 16.003 C 11.912 15.816,11.956 15.665,12.016 15.127 C 12.131 14.095,12.320 13.688,13.010 12.977 C 13.398 12.579,13.617 12.403,13.665 12.453 C 13.681 12.470,13.739 12.701,13.795 12.967 L 13.897 13.450 13.752 13.600 C 13.055 14.324,12.838 15.257,13.150 16.187 C 13.265 16.529,13.466 16.830,13.808 17.172 C 14.119 17.483,14.459 17.681,14.855 17.781 C 15.127 17.850,15.869 17.852,16.132 17.784 C 16.381 17.719,16.671 17.590,16.863 17.458 C 17.086 17.305,17.455 16.917,17.621 16.663 C 17.978 16.113,18.088 15.265,17.882 14.647 C 17.606 13.821,17.057 13.287,16.187 12.996 L 15.818 12.872 15.608 11.828 C 14.957 8.585,14.197 4.688,14.207 4.640 C 14.220 4.572,14.331 4.529,15.257 4.235 C 15.973 4.007,16.001 3.994,16.158 3.841 C 16.246 3.754,16.348 3.623,16.383 3.550 C 16.461 3.389,16.490 2.977,16.437 2.799 C 16.389 2.639,16.131 2.351,15.954 2.259 C 15.755 2.156,15.330 2.145,15.006 2.234 M3.876 9.900 C 3.573 9.945,3.225 10.193,3.098 10.454 C 2.999 10.659,2.998 11.060,3.095 11.281 C 3.187 11.487,3.453 11.742,3.633 11.796 C 3.713 11.820,4.089 11.850,4.497 11.865 C 5.144 11.889,5.235 11.899,5.363 11.965 C 5.616 12.094,5.917 12.288,6.265 12.547 C 6.641 12.827,6.687 12.846,7.002 12.846 C 7.315 12.847,7.493 12.769,7.708 12.537 C 7.914 12.315,7.967 12.173,7.967 11.844 C 7.967 11.541,7.865 11.334,7.592 11.081 C 6.873 10.416,5.985 9.976,5.209 9.900 C 4.832 9.863,4.128 9.864,3.876 9.900 M4.688 14.936 C 4.941 15.058,5.040 15.353,4.916 15.613 C 4.823 15.809,4.537 15.911,4.326 15.823 C 3.941 15.662,3.930 15.124,4.309 14.936 C 4.484 14.850,4.511 14.850,4.688 14.936 M15.688 14.936 C 15.941 15.058,16.040 15.353,15.916 15.613 C 15.823 15.809,15.537 15.911,15.326 15.823 C 14.941 15.662,14.930 15.124,15.309 14.936 C 15.484 14.850,15.511 14.850,15.688 14.936 " fill="#1A1C1F" stroke="none" fill-rule="evenodd"></path></svg>