<svg width="20" height="20" viewBox="0 0 20 20" fill="none" xmlns="http://www.w3.org/2000/svg"><path d="M6.783 2.031 L 5.917 2.050 5.620 2.198 C 5.080 2.467,4.682 2.925,4.502 3.483 C 4.429 3.710,3.878 6.103,3.718 6.886 L 3.697 6.990 3.081 7.010 C 2.365 7.034,2.231 7.072,2.098 7.287 C 2.028 7.400,2.017 7.464,2.005 7.846 C 1.988 8.387,2.028 8.583,2.187 8.747 C 2.366 8.931,2.482 8.977,2.808 8.993 C 2.994 9.003,3.100 9.022,3.100 9.046 C 3.100 9.132,3.340 11.088,3.405 11.533 C 3.466 11.951,3.478 12.220,3.492 13.508 L 3.508 15.000 4.754 15.000 L 6.000 15.000 6.001 14.392 C 6.001 14.057,6.014 13.764,6.029 13.740 C 6.051 13.704,6.197 13.711,6.820 13.781 C 7.474 13.853,8.919 14.000,8.980 14.000 C 8.991 14.000,9.001 14.536,9.002 15.192 C 9.005 16.601,9.025 16.892,9.133 17.119 C 9.244 17.350,9.667 17.765,9.917 17.886 L 10.117 17.983 13.093 17.993 C 16.387 18.003,16.788 17.989,17.086 17.853 C 17.465 17.679,17.783 17.336,17.911 16.959 L 17.983 16.750 17.993 11.951 L 18.003 7.152 17.893 6.935 C 17.755 6.660,17.416 6.315,17.167 6.195 C 16.949 6.091,16.698 6.035,16.309 6.005 L 16.023 5.983 15.969 5.815 C 15.860 5.483,15.654 5.246,15.326 5.079 L 15.150 4.990 13.450 5.012 C 12.484 5.024,11.698 5.048,11.630 5.067 C 11.334 5.149,11.058 5.504,11.010 5.863 L 10.991 6.000 10.754 6.000 C 10.402 6.001,10.108 6.057,9.883 6.166 C 9.651 6.279,9.277 6.635,9.161 6.855 L 9.083 7.000 7.412 7.000 L 5.740 7.000 5.772 6.858 C 6.081 5.451,6.415 4.043,6.443 4.030 C 6.447 4.029,7.522 4.016,8.833 4.003 C 10.973 3.981,11.230 3.973,11.348 3.921 C 11.661 3.786,11.870 3.532,11.956 3.184 C 12.006 2.981,12.006 2.951,11.952 2.752 C 11.874 2.466,11.740 2.294,11.470 2.133 L 11.246 2.000 9.448 2.006 C 8.459 2.010,7.260 2.021,6.783 2.031 M16.000 12.000 L 16.000 16.000 13.500 16.000 L 11.000 16.000 11.000 12.000 L 11.000 8.000 13.500 8.000 L 16.000 8.000 16.000 12.000 M13.741 9.038 C 13.445 9.090,13.349 9.215,12.811 10.238 C 12.367 11.084,12.122 11.598,12.055 11.825 C 12.012 11.972,12.010 12.025,12.045 12.160 C 12.131 12.491,12.379 12.692,12.739 12.725 C 12.846 12.735,12.933 12.757,12.933 12.774 C 12.933 12.792,12.818 13.011,12.676 13.261 C 12.262 13.995,12.195 14.231,12.318 14.526 C 12.487 14.931,12.943 15.099,13.334 14.900 C 13.515 14.807,13.863 14.263,14.596 12.921 C 15.048 12.095,15.068 12.030,14.966 11.756 C 14.852 11.450,14.525 11.233,14.179 11.233 C 14.119 11.233,14.063 11.221,14.054 11.206 C 14.045 11.191,14.168 10.910,14.327 10.581 C 14.612 9.993,14.617 9.979,14.617 9.733 C 14.617 9.525,14.604 9.465,14.539 9.375 C 14.362 9.126,14.032 8.987,13.741 9.038 M6.238 9.098 C 6.765 9.206,7.379 9.359,7.528 9.418 C 7.619 9.455,7.712 9.530,7.785 9.626 C 7.897 9.772,7.900 9.785,7.900 10.082 C 7.900 10.354,7.891 10.399,7.818 10.498 C 7.586 10.813,7.329 10.861,6.650 10.719 C 6.124 10.608,5.451 10.416,5.317 10.338 C 5.262 10.306,5.179 10.213,5.133 10.132 C 5.065 10.010,5.050 9.938,5.050 9.733 C 5.050 9.427,5.115 9.298,5.347 9.142 C 5.486 9.048,5.536 9.033,5.717 9.033 C 5.832 9.033,6.066 9.062,6.238 9.098 " fill="#1A1C1F" stroke="none" fill-rule="evenodd"></path></svg>