<svg width="24" height="24" viewBox="0 0 24 24" fill="none" xmlns="http://www.w3.org/2000/svg"><path d="M6.963 3.087 C 6.389 3.169,5.714 3.695,5.423 4.288 C 5.232 4.674,5.129 5.053,4.639 7.140 C 4.412 8.108,4.212 8.920,4.193 8.944 C 4.173 8.972,3.863 8.997,3.350 9.012 C 2.465 9.039,2.284 9.072,2.164 9.224 C 1.977 9.462,1.947 10.279,2.113 10.653 C 2.228 10.913,2.367 10.968,2.970 10.992 L 3.440 11.010 3.440 11.279 C 3.440 11.775,3.696 14.196,3.838 15.040 C 3.878 15.282,3.969 15.614,4.052 15.820 L 4.195 16.180 4.230 17.224 C 4.265 18.254,4.266 18.270,4.372 18.450 C 4.511 18.686,4.774 18.911,4.957 18.948 C 5.035 18.964,5.424 18.977,5.820 18.978 C 6.539 18.980,6.540 18.980,6.732 18.867 C 7.057 18.676,7.240 18.328,7.240 17.898 L 7.240 17.760 7.433 17.760 C 7.539 17.760,8.102 17.795,8.683 17.838 C 10.175 17.949,11.291 18.000,12.203 18.000 L 12.990 18.000 13.011 18.650 C 13.042 19.619,13.139 19.860,13.726 20.420 C 14.197 20.870,14.336 20.924,15.137 20.964 C 15.966 21.005,19.304 21.005,19.980 20.964 C 20.456 20.935,20.522 20.921,20.760 20.801 C 21.157 20.600,21.632 20.106,21.838 19.679 L 22.000 19.344 21.999 14.322 C 21.998 11.560,21.981 9.123,21.962 8.906 C 21.916 8.397,21.779 8.104,21.394 7.699 C 21.080 7.369,20.702 7.146,20.283 7.043 C 20.026 6.981,20.023 6.978,19.955 6.788 C 19.858 6.516,19.636 6.264,19.390 6.143 C 19.103 6.004,18.700 5.982,17.030 6.019 L 15.680 6.049 15.508 6.163 C 15.308 6.296,15.121 6.542,15.023 6.804 C 14.957 6.980,14.943 6.991,14.742 7.036 C 13.926 7.219,13.178 7.969,13.032 8.750 L 12.986 9.000 9.716 9.000 C 7.918 9.000,6.418 8.989,6.383 8.976 C 6.348 8.962,6.320 8.910,6.320 8.859 C 6.320 8.711,7.078 5.532,7.167 5.308 C 7.191 5.247,7.246 5.152,7.288 5.098 L 7.366 5.000 11.170 5.000 C 14.930 5.000,14.977 4.999,15.145 4.918 C 15.506 4.743,15.718 4.417,15.719 4.036 C 15.721 3.636,15.574 3.365,15.246 3.158 L 15.060 3.042 11.140 3.046 C 8.984 3.048,7.104 3.066,6.963 3.087 M19.768 9.106 C 19.839 9.141,19.891 9.212,19.918 9.310 C 19.976 9.518,19.976 18.482,19.918 18.690 C 19.834 18.991,19.924 18.980,17.542 18.980 C 16.375 18.980,15.371 18.966,15.311 18.949 C 15.250 18.933,15.169 18.870,15.131 18.811 C 15.066 18.713,15.057 18.505,15.028 16.502 C 15.011 15.291,15.003 13.211,15.011 11.880 C 15.026 9.305,15.028 9.280,15.220 9.120 C 15.315 9.041,16.401 9.011,18.280 9.034 C 19.338 9.047,19.685 9.064,19.768 9.106 M13.000 12.000 L 13.000 13.000 11.735 13.000 L 10.470 13.000 10.257 12.779 C 10.004 12.516,9.842 12.440,9.531 12.440 C 8.990 12.441,8.511 12.874,8.511 13.360 C 8.511 13.593,8.685 14.017,8.937 14.396 C 9.151 14.717,9.357 14.904,9.560 14.961 C 9.640 14.983,10.403 15.000,11.350 15.000 L 13.000 15.000 13.000 15.500 L 13.000 16.000 12.270 16.000 C 10.497 16.000,7.101 15.761,6.548 15.597 C 6.070 15.456,5.854 15.127,5.779 14.423 L 5.749 14.148 5.845 14.173 C 6.108 14.244,6.550 14.249,6.772 14.184 C 7.307 14.028,7.585 13.503,7.425 12.951 C 7.355 12.709,7.118 12.450,6.873 12.348 C 6.755 12.299,6.131 12.172,5.650 12.099 L 5.480 12.073 5.480 11.692 L 5.480 11.311 5.635 11.155 L 5.791 11.000 9.395 11.000 L 13.000 11.000 13.000 12.000 M17.743 11.060 C 17.657 11.090,17.528 11.175,17.456 11.248 C 17.301 11.406,16.837 12.210,16.366 13.134 C 16.062 13.732,16.023 13.833,16.023 14.023 C 16.023 14.196,16.046 14.270,16.142 14.409 C 16.275 14.600,16.548 14.760,16.742 14.760 C 16.810 14.760,16.878 14.771,16.891 14.785 C 16.905 14.798,16.782 15.076,16.619 15.402 C 16.280 16.080,16.239 16.240,16.338 16.500 C 16.419 16.713,16.676 16.948,16.867 16.984 C 17.237 17.053,17.479 16.873,17.857 16.245 C 18.229 15.625,18.784 14.581,18.906 14.271 C 19.011 14.004,19.011 14.001,18.941 13.818 C 18.903 13.717,18.810 13.573,18.736 13.498 C 18.613 13.376,18.530 13.340,18.190 13.263 C 18.130 13.250,18.080 13.221,18.080 13.199 C 18.080 13.177,18.176 12.965,18.294 12.729 C 18.769 11.779,18.797 11.610,18.531 11.315 C 18.290 11.048,18.020 10.961,17.743 11.060 " fill="#1A1C1F" stroke="none" fill-rule="evenodd"></path></svg>