<svg width="28" height="28" viewBox="0 0 28 28" fill="none" xmlns="http://www.w3.org/2000/svg"><path d="M10.943 4.012 C 8.322 4.097,7.461 4.295,6.733 4.979 C 6.253 5.430,6.150 5.716,5.273 9.053 C 5.013 10.042,4.780 10.871,4.755 10.896 C 4.728 10.923,4.204 10.954,3.500 10.968 L 2.290 10.994 2.114 11.135 C 1.804 11.382,1.750 11.551,1.753 12.273 C 1.755 12.983,1.791 13.099,2.082 13.339 C 2.277 13.500,2.635 13.580,3.158 13.580 L 3.485 13.580 3.515 14.408 C 3.561 15.650,3.739 17.397,3.902 18.200 C 3.941 18.392,4.048 18.718,4.140 18.923 C 4.290 19.258,4.312 19.355,4.343 19.857 C 4.362 20.165,4.380 20.755,4.382 21.168 C 4.387 21.907,4.389 21.923,4.529 22.203 C 4.715 22.575,5.134 22.967,5.469 23.083 C 5.685 23.157,5.877 23.169,6.953 23.169 C 8.118 23.170,8.210 23.164,8.535 23.062 C 8.819 22.972,8.922 22.911,9.122 22.710 C 9.455 22.378,9.569 22.067,9.602 21.404 L 9.627 20.898 9.764 20.925 C 9.840 20.940,11.209 20.967,12.808 20.984 L 15.714 21.015 15.742 21.372 C 15.775 21.812,15.948 22.370,16.144 22.676 C 16.400 23.075,16.973 23.579,17.425 23.803 C 17.791 23.984,17.875 24.007,18.306 24.039 C 18.987 24.090,22.130 24.086,22.807 24.034 C 23.273 23.997,23.430 23.965,23.670 23.856 C 24.248 23.594,24.995 22.819,25.201 22.271 C 25.360 21.845,25.384 21.195,25.386 17.259 L 25.387 13.587 25.543 13.536 C 25.742 13.470,26.066 13.195,26.168 13.004 C 26.280 12.795,26.282 11.709,26.171 11.503 C 26.071 11.318,25.898 11.160,25.635 11.015 C 25.430 10.902,25.417 10.882,25.337 10.564 C 25.075 9.518,24.215 8.665,23.129 8.376 L 22.762 8.277 22.677 8.054 C 22.578 7.795,22.480 7.673,22.283 7.570 C 22.164 7.507,21.909 7.496,20.557 7.493 C 19.135 7.490,18.955 7.498,18.822 7.571 C 18.650 7.665,18.489 7.876,18.407 8.115 C 18.353 8.272,18.326 8.290,18.006 8.382 C 17.554 8.513,17.352 8.604,16.987 8.842 C 16.604 9.092,16.368 9.324,16.144 9.670 C 15.953 9.966,15.773 10.440,15.773 10.649 L 15.773 10.780 14.712 10.781 C 13.673 10.782,10.628 10.837,7.986 10.901 L 6.663 10.934 6.696 10.729 C 6.734 10.497,7.504 7.433,7.651 6.930 C 7.919 6.014,8.001 5.973,9.870 5.830 C 10.887 5.752,15.746 5.720,17.127 5.782 C 18.454 5.842,19.305 5.910,19.559 5.976 C 19.652 6.000,19.904 6.135,20.119 6.276 C 20.334 6.417,20.579 6.545,20.664 6.561 C 21.016 6.630,21.500 6.277,21.609 5.873 C 21.692 5.561,21.607 5.358,21.240 4.990 C 20.411 4.162,19.535 4.028,14.700 3.993 C 13.276 3.983,11.585 3.991,10.943 4.012 M23.064 10.175 C 23.196 10.212,23.282 10.286,23.425 10.486 L 23.613 10.749 23.610 14.766 C 23.608 16.976,23.591 19.468,23.573 20.305 C 23.536 22.004,23.544 21.963,23.192 22.197 L 23.006 22.320 20.507 22.297 C 18.098 22.275,18.003 22.271,17.882 22.180 C 17.609 21.976,17.582 21.868,17.535 20.773 C 17.510 20.212,17.502 17.763,17.516 15.267 L 17.541 10.771 17.649 10.555 C 17.728 10.398,17.812 10.311,17.962 10.233 L 18.168 10.127 20.529 10.127 C 22.011 10.127,22.955 10.145,23.064 10.175 M15.342 12.537 L 15.727 12.567 15.727 14.380 L 15.727 16.193 13.602 16.193 C 11.942 16.193,11.474 16.181,11.461 16.135 C 11.452 16.103,11.408 15.912,11.364 15.710 C 11.297 15.405,11.254 15.314,11.112 15.172 C 10.793 14.853,10.350 14.816,9.990 15.076 C 9.630 15.337,9.586 15.628,9.755 16.631 C 9.877 17.358,10.020 17.663,10.313 17.827 L 10.523 17.943 13.125 17.959 L 15.727 17.975 15.727 18.594 L 15.727 19.214 15.482 19.243 C 15.119 19.287,12.964 19.278,11.340 19.226 C 8.248 19.128,6.122 18.772,5.777 18.293 C 5.690 18.172,5.538 17.242,5.477 16.457 L 5.446 16.053 5.581 16.053 C 5.656 16.053,6.010 16.084,6.369 16.122 C 7.138 16.203,7.311 16.175,7.571 15.924 C 7.979 15.531,7.926 14.871,7.467 14.612 C 7.286 14.511,6.627 14.383,5.745 14.279 L 5.260 14.221 5.291 13.779 C 5.350 12.950,5.474 12.829,6.357 12.744 C 7.549 12.628,14.466 12.469,15.342 12.537 M20.666 12.788 C 20.572 12.837,20.430 12.957,20.350 13.054 C 20.170 13.270,18.996 15.603,18.883 15.967 C 18.772 16.324,18.829 16.536,19.104 16.790 C 19.296 16.967,19.447 17.025,19.891 17.091 C 19.959 17.101,19.932 17.188,19.710 17.663 C 19.226 18.699,19.180 18.944,19.410 19.261 C 19.771 19.760,20.296 19.815,20.697 19.396 C 21.013 19.064,22.218 16.680,22.287 16.249 C 22.363 15.778,21.867 15.307,21.297 15.307 C 21.211 15.307,21.140 15.298,21.140 15.288 C 21.140 15.278,21.277 14.989,21.444 14.646 C 21.947 13.618,21.976 13.404,21.660 13.054 C 21.354 12.714,20.990 12.617,20.666 12.788 M7.061 20.600 C 7.416 20.666,7.747 20.720,7.796 20.720 C 7.878 20.720,7.887 20.755,7.887 21.070 L 7.887 21.420 7.000 21.420 L 6.113 21.420 6.113 20.924 L 6.113 20.428 6.265 20.454 C 6.348 20.468,6.707 20.534,7.061 20.600 " fill="#1A1C1F" stroke="none" fill-rule="evenodd"></path></svg>