<svg width="24" height="24" viewBox="0 0 24 24" fill="none" xmlns="http://www.w3.org/2000/svg"><path d="M18.660 3.305 C 17.852 3.422,16.543 3.726,16.291 3.855 C 15.887 4.062,15.572 4.534,15.532 4.992 C 15.509 5.252,15.600 5.835,16.079 8.500 C 16.516 10.927,16.564 11.223,16.536 11.295 C 16.523 11.330,16.248 11.573,15.926 11.835 C 15.237 12.396,14.335 13.303,14.071 13.702 C 13.683 14.288,13.331 15.223,13.145 16.161 C 13.076 16.506,13.025 16.672,12.975 16.708 C 12.919 16.749,12.379 16.760,10.372 16.760 L 7.839 16.760 7.740 16.535 C 7.469 15.922,6.963 15.423,6.250 15.065 C 5.859 14.868,5.547 14.801,5.017 14.801 C 4.462 14.800,4.177 14.852,3.813 15.020 C 2.352 15.693,1.674 17.233,2.181 18.724 C 2.327 19.152,2.503 19.425,2.892 19.828 C 3.181 20.127,3.313 20.229,3.594 20.374 C 3.784 20.472,4.072 20.592,4.233 20.641 C 4.495 20.720,4.588 20.728,5.093 20.710 C 5.566 20.693,5.709 20.672,5.952 20.586 C 6.678 20.330,7.294 19.788,7.651 19.091 L 7.820 18.762 11.040 18.751 L 14.260 18.740 14.445 18.632 C 14.680 18.493,14.864 18.283,14.918 18.091 C 14.942 18.008,14.989 17.688,15.023 17.380 C 15.221 15.571,15.494 14.937,16.494 13.970 C 16.874 13.602,16.932 13.563,16.980 13.640 C 17.011 13.690,17.280 15.069,17.280 15.176 C 17.280 15.218,17.122 15.416,16.929 15.616 C 16.377 16.188,16.136 16.663,16.036 17.379 C 15.974 17.821,16.017 18.230,16.176 18.690 C 16.483 19.583,17.229 20.311,18.160 20.624 C 18.339 20.685,18.498 20.698,19.020 20.696 C 19.600 20.693,19.685 20.684,19.922 20.594 C 20.909 20.223,21.655 19.430,21.896 18.494 C 21.971 18.206,21.983 17.395,21.917 17.072 C 21.893 16.955,21.784 16.673,21.674 16.445 C 21.504 16.094,21.424 15.980,21.147 15.701 C 20.669 15.220,20.024 14.880,19.400 14.782 L 19.260 14.760 18.726 11.810 C 17.875 7.115,17.680 5.994,17.669 5.762 L 17.660 5.544 17.900 5.492 C 18.575 5.348,19.081 5.222,19.266 5.154 C 19.705 4.991,19.974 4.511,19.880 4.059 C 19.768 3.518,19.277 3.215,18.660 3.305 M3.695 10.817 C 3.339 10.928,3.059 11.279,3.015 11.669 C 2.978 11.998,3.161 12.361,3.471 12.572 C 3.624 12.677,3.758 12.707,4.560 12.821 C 5.364 12.936,6.091 13.231,6.572 13.638 C 6.688 13.736,6.924 13.986,7.097 14.193 C 7.475 14.645,7.576 14.700,8.027 14.700 C 8.325 14.700,8.368 14.690,8.527 14.579 C 8.890 14.325,9.056 13.920,8.960 13.521 C 8.816 12.918,7.835 11.953,6.856 11.450 C 6.164 11.095,5.443 10.893,4.543 10.803 C 4.005 10.750,3.904 10.752,3.695 10.817 M5.407 16.882 C 5.785 17.072,5.960 17.337,5.960 17.720 C 5.960 18.152,5.771 18.450,5.376 18.645 C 5.071 18.795,4.874 18.787,4.551 18.611 C 4.212 18.427,4.040 18.126,4.040 17.720 C 4.040 17.422,4.132 17.224,4.364 17.026 C 4.683 16.753,5.048 16.702,5.407 16.882 M19.407 16.882 C 19.785 17.072,19.960 17.337,19.960 17.720 C 19.960 18.152,19.771 18.450,19.376 18.645 C 19.071 18.795,18.874 18.787,18.551 18.611 C 18.212 18.427,18.040 18.126,18.040 17.720 C 18.040 17.422,18.132 17.224,18.364 17.026 C 18.683 16.753,19.048 16.702,19.407 16.882 " fill="#1A1C1F" stroke="none" fill-rule="evenodd"></path></svg>