<svg width="14" height="14" viewBox="0 0 14 14" fill="none" xmlns="http://www.w3.org/2000/svg"><path d="M4.737 1.423 C 4.161 1.437,4.137 1.440,4.009 1.499 C 3.559 1.705,3.260 2.056,3.119 2.544 C 3.088 2.653,2.954 3.227,2.822 3.821 L 2.582 4.900 2.335 4.901 C 1.961 4.902,1.649 4.935,1.578 4.982 C 1.446 5.068,1.414 5.163,1.404 5.492 C 1.392 5.874,1.419 6.004,1.533 6.122 C 1.661 6.253,1.737 6.284,1.963 6.295 L 2.165 6.305 2.179 6.425 C 2.247 7.015,2.344 7.794,2.383 8.062 C 2.423 8.337,2.432 8.555,2.443 9.444 L 2.456 10.500 3.328 10.500 L 4.200 10.500 4.200 10.045 C 4.200 9.656,4.205 9.590,4.235 9.590 C 4.254 9.590,4.451 9.611,4.673 9.636 C 5.071 9.681,6.232 9.800,6.277 9.800 C 6.292 9.800,6.301 10.098,6.302 10.634 C 6.303 11.093,6.311 11.559,6.321 11.670 C 6.343 11.922,6.417 12.079,6.601 12.260 C 6.754 12.412,6.850 12.479,7.016 12.549 L 7.137 12.600 9.233 12.599 C 10.385 12.598,11.440 12.589,11.576 12.578 C 11.767 12.564,11.856 12.545,11.960 12.497 C 12.226 12.376,12.448 12.135,12.538 11.872 L 12.588 11.725 12.595 8.366 L 12.602 5.007 12.525 4.855 C 12.421 4.649,12.205 4.431,12.016 4.341 C 11.844 4.260,11.711 4.229,11.424 4.206 L 11.216 4.188 11.178 4.071 C 11.102 3.838,10.958 3.672,10.728 3.556 L 10.605 3.493 9.415 3.508 C 8.736 3.517,8.189 3.534,8.140 3.547 C 7.947 3.601,7.700 3.924,7.700 4.124 L 7.700 4.200 7.531 4.200 C 7.282 4.200,7.076 4.239,6.918 4.316 C 6.756 4.395,6.494 4.645,6.412 4.798 L 6.358 4.900 5.188 4.900 L 4.018 4.900 4.040 4.801 C 4.160 4.257,4.440 3.042,4.468 2.949 L 4.503 2.831 4.787 2.815 C 4.943 2.807,5.544 2.799,6.123 2.798 C 7.429 2.796,7.893 2.777,7.996 2.723 C 8.102 2.667,8.291 2.472,8.341 2.367 C 8.401 2.241,8.398 1.957,8.336 1.817 C 8.276 1.682,8.143 1.553,7.975 1.468 L 7.841 1.400 6.586 1.404 C 5.896 1.407,5.064 1.415,4.737 1.423 M11.200 8.400 L 11.200 11.200 9.450 11.200 L 7.700 11.200 7.700 8.400 L 7.700 5.600 9.450 5.600 L 11.200 5.600 11.200 8.400 M9.618 6.327 C 9.420 6.362,9.346 6.453,9.029 7.047 C 8.737 7.596,8.497 8.092,8.448 8.251 C 8.412 8.365,8.408 8.414,8.426 8.496 C 8.482 8.745,8.694 8.913,8.952 8.913 C 9.010 8.913,9.053 8.924,9.053 8.939 C 9.053 8.953,8.972 9.108,8.873 9.283 C 8.583 9.797,8.537 9.962,8.623 10.168 C 8.708 10.373,8.952 10.522,9.149 10.491 C 9.332 10.461,9.400 10.409,9.555 10.174 C 9.832 9.754,10.399 8.751,10.466 8.562 C 10.535 8.365,10.500 8.190,10.363 8.042 C 10.276 7.949,10.188 7.908,10.000 7.875 C 9.881 7.855,9.837 7.838,9.842 7.814 C 9.846 7.796,9.935 7.603,10.040 7.385 C 10.228 6.997,10.232 6.985,10.232 6.813 C 10.232 6.668,10.223 6.626,10.178 6.563 C 10.053 6.388,9.822 6.291,9.618 6.327 M4.439 6.383 C 4.819 6.463,5.162 6.550,5.276 6.595 C 5.333 6.618,5.400 6.674,5.450 6.738 C 5.528 6.840,5.530 6.849,5.530 7.057 C 5.530 7.248,5.524 7.279,5.473 7.349 C 5.310 7.569,5.131 7.603,4.655 7.503 C 4.287 7.426,3.816 7.291,3.722 7.237 C 3.616 7.175,3.542 7.022,3.530 6.840 C 3.517 6.637,3.579 6.508,3.742 6.399 C 3.840 6.333,3.875 6.323,4.004 6.323 C 4.086 6.323,4.281 6.350,4.439 6.383 " fill="#1A1C1F" stroke="none" fill-rule="evenodd"></path></svg>