<svg width="16" height="16" viewBox="0 0 16 16" fill="none" xmlns="http://www.w3.org/2000/svg"><path d="M5.400 1.626 C 4.755 1.642,4.729 1.645,4.582 1.712 C 4.212 1.883,3.864 2.203,3.715 2.510 C 3.593 2.763,3.531 2.994,3.226 4.363 L 2.952 5.592 2.463 5.608 C 1.892 5.627,1.785 5.658,1.678 5.829 C 1.622 5.920,1.614 5.971,1.604 6.277 C 1.591 6.710,1.622 6.867,1.749 6.997 C 1.892 7.144,1.985 7.182,2.244 7.195 L 2.475 7.206 2.490 7.343 C 2.569 8.024,2.679 8.907,2.724 9.213 C 2.770 9.529,2.780 9.773,2.792 10.793 L 2.806 12.000 3.803 12.000 L 4.800 12.000 4.800 11.513 C 4.801 11.246,4.811 11.011,4.823 10.992 C 4.841 10.963,4.931 10.966,5.323 11.011 C 5.707 11.055,7.135 11.200,7.182 11.200 C 7.189 11.200,7.200 11.713,7.206 12.340 C 7.220 13.585,7.220 13.584,7.384 13.823 C 7.581 14.110,7.889 14.331,8.149 14.374 C 8.344 14.406,12.861 14.407,13.244 14.375 C 13.446 14.358,13.555 14.335,13.669 14.282 C 13.972 14.144,14.226 13.868,14.329 13.568 L 14.386 13.400 14.394 9.561 L 14.402 5.722 14.315 5.548 C 14.204 5.328,13.933 5.052,13.733 4.956 C 13.566 4.875,13.365 4.831,13.043 4.805 L 12.819 4.787 12.775 4.652 C 12.688 4.386,12.523 4.197,12.261 4.064 L 12.120 3.992 10.760 4.009 C 9.990 4.019,9.358 4.039,9.303 4.054 C 9.082 4.115,8.800 4.485,8.800 4.713 L 8.800 4.800 8.607 4.800 C 8.321 4.800,8.088 4.846,7.899 4.939 C 7.702 5.036,7.428 5.295,7.333 5.476 L 7.267 5.600 5.929 5.600 C 4.669 5.600,4.592 5.597,4.603 5.553 C 4.609 5.528,4.691 5.165,4.785 4.747 C 5.018 3.710,5.117 3.300,5.146 3.255 C 5.166 3.222,5.455 3.213,7.074 3.198 C 9.242 3.177,9.097 3.193,9.350 2.940 C 9.535 2.756,9.581 2.649,9.580 2.402 C 9.578 2.060,9.438 1.841,9.114 1.677 L 8.962 1.600 7.514 1.605 C 6.718 1.608,5.767 1.617,5.400 1.626 M12.800 9.600 L 12.800 12.800 10.800 12.800 L 8.800 12.800 8.800 9.600 L 8.800 6.400 10.800 6.400 L 12.800 6.400 12.800 9.600 M5.071 7.295 C 5.595 7.406,5.897 7.489,6.053 7.567 C 6.177 7.629,6.212 7.663,6.275 7.787 C 6.341 7.913,6.349 7.956,6.339 8.097 C 6.315 8.420,6.128 8.616,5.826 8.635 C 5.634 8.647,5.172 8.559,4.658 8.411 C 4.264 8.297,4.192 8.258,4.107 8.105 C 4.052 8.008,4.040 7.951,4.040 7.787 C 4.040 7.542,4.092 7.438,4.277 7.313 C 4.389 7.238,4.428 7.227,4.576 7.227 C 4.669 7.227,4.892 7.258,5.071 7.295 M10.859 7.269 C 10.749 7.325,10.657 7.443,10.483 7.747 C 10.239 8.171,9.681 9.315,9.644 9.465 C 9.555 9.826,9.797 10.144,10.187 10.180 C 10.275 10.188,10.347 10.205,10.347 10.219 C 10.347 10.232,10.253 10.413,10.138 10.622 C 10.024 10.830,9.904 11.062,9.872 11.138 C 9.734 11.465,9.845 11.788,10.144 11.930 C 10.384 12.044,10.590 12.007,10.774 11.818 C 10.907 11.680,11.180 11.236,11.605 10.467 C 12.040 9.680,12.057 9.631,11.973 9.405 C 11.881 9.160,11.620 8.987,11.343 8.987 C 11.296 8.987,11.250 8.977,11.243 8.965 C 11.235 8.952,11.334 8.728,11.461 8.465 C 11.690 7.994,11.693 7.985,11.693 7.787 C 11.693 7.552,11.648 7.467,11.445 7.327 C 11.338 7.253,11.293 7.240,11.133 7.233 C 10.999 7.227,10.922 7.238,10.859 7.269 " fill="#1A1C1F" stroke="none" fill-rule="evenodd"></path></svg>