<svg width="28" height="28" viewBox="0 0 28 28" fill="none" xmlns="http://www.w3.org/2000/svg"><path d="M23.028 4.665 C 22.222 4.810,21.361 5.036,21.066 5.180 C 20.701 5.358,20.340 5.738,20.149 6.146 C 20.033 6.394,19.998 6.537,19.984 6.835 C 19.963 7.250,19.967 7.274,20.533 10.430 C 21.013 13.106,21.187 14.121,21.187 14.256 C 21.187 14.342,21.121 14.406,20.895 14.541 C 19.486 15.383,18.011 16.639,17.476 17.452 C 17.093 18.032,16.816 18.926,16.727 19.868 L 16.695 20.207 12.222 20.207 L 7.750 20.207 7.700 20.008 C 7.526 19.318,7.327 18.946,6.908 18.525 C 6.537 18.155,6.164 17.921,5.670 17.753 C 5.358 17.647,5.216 17.626,4.807 17.626 C 4.383 17.625,4.263 17.644,3.918 17.764 C 3.018 18.076,2.312 18.786,2.022 19.670 C 1.624 20.880,2.156 22.255,3.311 23.001 C 4.110 23.518,5.223 23.562,6.125 23.112 C 6.522 22.914,7.187 22.280,7.373 21.923 L 7.489 21.702 12.623 21.690 L 17.757 21.677 17.909 21.568 C 18.173 21.380,18.209 21.251,18.256 20.325 C 18.306 19.348,18.378 18.941,18.573 18.543 C 18.761 18.161,19.240 17.617,19.810 17.137 C 20.408 16.634,21.453 15.927,21.511 15.986 C 21.559 16.033,21.767 17.110,21.819 17.574 L 21.850 17.859 21.499 18.146 C 20.625 18.861,20.300 19.510,20.300 20.543 C 20.300 21.422,20.513 21.923,21.160 22.564 C 21.740 23.139,22.239 23.361,23.053 23.410 C 23.905 23.461,24.599 23.192,25.228 22.566 C 25.814 21.982,26.085 21.355,26.086 20.577 C 26.087 19.715,25.881 19.183,25.313 18.578 C 24.875 18.112,24.562 17.919,23.901 17.706 L 23.385 17.540 23.312 17.205 C 23.272 17.021,22.862 14.799,22.400 12.268 C 21.938 9.736,21.529 7.501,21.491 7.300 C 21.426 6.963,21.427 6.923,21.502 6.771 C 21.547 6.680,21.646 6.570,21.723 6.527 C 21.800 6.484,22.241 6.362,22.703 6.256 C 24.051 5.948,24.204 5.874,24.312 5.486 C 24.412 5.132,24.262 4.817,23.921 4.662 C 23.691 4.558,23.627 4.558,23.028 4.665 M3.095 14.231 C 2.721 14.459,2.674 15.001,2.998 15.340 C 3.170 15.519,3.379 15.568,4.153 15.611 C 5.833 15.704,6.645 15.972,7.327 16.658 C 7.575 16.908,7.751 17.144,7.933 17.470 C 8.075 17.723,8.248 17.980,8.320 18.040 C 8.697 18.358,9.361 18.107,9.454 17.611 C 9.494 17.397,9.424 17.159,9.168 16.635 C 8.863 16.013,8.170 15.270,7.577 14.930 C 6.676 14.413,5.430 14.140,3.976 14.140 C 3.333 14.140,3.225 14.151,3.095 14.231 M5.420 19.239 C 5.693 19.354,5.949 19.620,6.089 19.933 C 6.203 20.186,6.215 20.262,6.197 20.576 C 6.150 21.384,5.591 21.933,4.814 21.933 C 4.262 21.933,3.824 21.660,3.568 21.157 C 3.447 20.917,3.430 20.835,3.431 20.487 C 3.431 20.033,3.495 19.862,3.769 19.579 C 4.017 19.323,4.247 19.183,4.484 19.143 C 4.743 19.098,5.198 19.145,5.420 19.239 M23.766 19.221 C 23.953 19.295,24.353 19.683,24.467 19.902 C 24.543 20.048,24.565 20.178,24.567 20.487 C 24.570 20.837,24.554 20.915,24.432 21.157 C 24.156 21.701,23.677 21.967,23.057 21.923 C 22.533 21.885,22.146 21.601,21.908 21.079 C 21.682 20.584,21.788 19.934,22.159 19.538 C 22.336 19.349,22.637 19.183,22.873 19.142 C 23.104 19.103,23.573 19.144,23.766 19.221 " fill="#1A1C1F" stroke="none" fill-rule="evenodd"></path></svg>