<svg width="16" height="16" viewBox="0 0 16 16" fill="none" xmlns="http://www.w3.org/2000/svg"><path d="M11.568 1.866 C 11.387 1.898,10.950 2.037,10.537 2.194 C 10.222 2.313,10.163 2.345,10.036 2.469 C 9.877 2.625,9.751 2.861,9.701 3.100 C 9.665 3.272,9.613 3.005,10.349 6.413 C 10.612 7.631,10.827 8.645,10.827 8.667 C 10.827 8.692,10.726 8.758,10.567 8.837 C 10.180 9.028,9.890 9.232,9.582 9.529 C 9.040 10.050,8.678 10.651,8.411 11.473 L 8.336 11.707 6.638 11.707 L 4.941 11.707 4.802 11.520 C 4.578 11.219,4.193 10.947,3.842 10.843 C 3.658 10.788,3.219 10.787,2.993 10.840 C 2.431 10.973,1.937 11.448,1.772 12.015 C 1.717 12.203,1.710 12.721,1.760 12.907 C 1.901 13.433,2.341 13.887,2.899 14.083 C 3.236 14.202,3.733 14.175,4.083 14.018 C 4.396 13.879,4.774 13.516,4.926 13.210 L 4.995 13.073 6.957 13.058 C 8.197 13.049,8.969 13.033,9.053 13.015 C 9.358 12.949,9.488 12.769,9.637 12.200 C 9.763 11.723,9.826 11.548,9.977 11.251 C 10.140 10.930,10.246 10.781,10.473 10.551 C 10.668 10.354,11.014 10.107,11.094 10.107 C 11.152 10.107,11.154 10.113,11.310 10.779 L 11.420 11.251 11.307 11.379 C 11.176 11.528,11.037 11.790,10.972 12.015 C 10.917 12.203,10.910 12.721,10.960 12.907 C 11.104 13.443,11.555 13.900,12.133 14.097 C 12.245 14.135,12.356 14.146,12.600 14.146 C 12.879 14.145,12.947 14.136,13.127 14.072 C 13.968 13.778,14.454 12.903,14.241 12.069 C 14.083 11.452,13.601 10.988,12.944 10.820 L 12.707 10.760 12.168 8.293 C 11.078 3.312,11.114 3.484,11.164 3.447 C 11.189 3.429,11.324 3.370,11.465 3.317 C 12.138 3.060,12.190 3.026,12.324 2.766 C 12.397 2.624,12.401 2.398,12.334 2.267 C 12.168 1.939,11.912 1.806,11.568 1.866 M3.067 8.318 C 2.830 8.337,2.737 8.382,2.592 8.547 C 2.420 8.742,2.386 9.041,2.508 9.280 C 2.578 9.418,2.745 9.565,2.867 9.597 C 2.925 9.612,3.217 9.637,3.514 9.653 C 4.230 9.691,4.341 9.732,4.946 10.186 C 5.275 10.433,5.385 10.474,5.596 10.431 C 5.893 10.370,6.097 10.172,6.162 9.881 C 6.202 9.702,6.155 9.548,6.001 9.348 C 5.669 8.917,4.713 8.384,4.185 8.335 C 3.928 8.311,3.272 8.301,3.067 8.318 " fill="#1A1C1F" stroke="none" fill-rule="evenodd"></path></svg>