<svg width="20" height="20" viewBox="0 0 20 20" fill="none" xmlns="http://www.w3.org/2000/svg"><path d="M5.949 2.564 C 5.440 2.625,4.814 3.200,4.556 3.843 C 4.482 4.029,4.123 5.527,3.797 7.008 L 3.688 7.500 2.844 7.500 L 2.000 7.500 2.000 8.500 L 2.000 9.500 2.458 9.500 C 2.986 9.501,3.053 9.513,3.080 9.611 C 3.090 9.651,3.137 9.998,3.185 10.383 C 3.441 12.474,3.477 12.623,3.846 13.125 L 4.000 13.334 4.000 14.417 L 4.000 15.500 5.250 15.500 L 6.500 15.500 6.500 14.883 L 6.500 14.267 6.576 14.267 C 6.618 14.267,6.825 14.289,7.035 14.316 C 7.680 14.399,8.550 14.466,9.287 14.489 L 9.990 14.510 10.008 15.213 C 10.025 15.859,10.033 15.935,10.110 16.137 C 10.349 16.768,10.799 17.190,11.481 17.421 L 11.712 17.500 14.007 17.500 C 16.238 17.500,16.308 17.498,16.506 17.431 C 17.223 17.190,17.690 16.724,17.938 16.003 C 17.997 15.831,18.000 15.629,18.000 11.517 C 18.000 7.404,17.997 7.202,17.938 7.030 C 17.670 6.250,17.122 5.749,16.326 5.553 L 16.020 5.478 15.979 5.320 C 15.914 5.065,15.727 4.818,15.469 4.648 C 15.333 4.558,15.308 4.554,14.706 4.525 C 13.905 4.486,12.874 4.514,12.650 4.581 C 12.373 4.664,12.108 4.978,12.018 5.331 L 11.980 5.479 11.715 5.536 C 11.187 5.650,10.874 5.823,10.537 6.184 C 10.239 6.503,10.000 7.041,10.000 7.390 L 10.000 7.500 7.696 7.500 L 5.393 7.500 5.411 7.425 C 5.421 7.384,5.566 6.652,5.734 5.800 C 5.902 4.948,6.044 4.246,6.048 4.241 C 6.053 4.236,7.140 4.217,8.463 4.198 C 11.161 4.161,11.033 4.174,11.263 3.913 C 11.420 3.735,11.479 3.538,11.461 3.252 C 11.444 2.985,11.329 2.802,11.085 2.651 L 10.922 2.550 8.536 2.545 C 7.224 2.543,6.060 2.551,5.949 2.564 M16.162 7.296 C 16.187 7.312,16.222 7.391,16.240 7.471 C 16.259 7.558,16.279 9.226,16.290 11.611 L 16.307 15.605 16.214 15.703 L 16.121 15.800 13.997 15.800 L 11.873 15.800 11.781 15.692 L 11.690 15.583 11.709 11.550 C 11.723 8.647,11.739 7.487,11.767 7.410 C 11.790 7.345,11.833 7.299,11.878 7.290 C 12.021 7.262,16.118 7.268,16.162 7.296 M14.017 8.586 C 13.738 8.730,13.572 9.024,12.845 10.659 C 12.491 11.455,12.473 11.614,12.699 11.927 C 12.820 12.094,13.002 12.192,13.296 12.248 C 13.453 12.278,13.514 12.303,13.507 12.337 C 13.501 12.362,13.394 12.601,13.268 12.867 C 13.142 13.133,13.007 13.447,12.967 13.565 C 12.867 13.862,12.910 14.014,13.165 14.269 C 13.408 14.512,13.589 14.570,13.849 14.488 C 14.087 14.413,14.170 14.341,14.349 14.054 C 14.637 13.591,15.446 11.823,15.487 11.565 C 15.550 11.175,15.198 10.808,14.731 10.774 C 14.567 10.762,14.500 10.745,14.500 10.712 C 14.500 10.688,14.612 10.413,14.749 10.102 C 15.114 9.274,15.131 9.159,14.931 8.857 C 14.746 8.578,14.292 8.443,14.017 8.586 M5.567 10.014 C 6.329 10.193,6.596 10.288,6.738 10.430 C 6.956 10.648,6.990 11.024,6.818 11.318 C 6.656 11.594,6.415 11.691,6.043 11.633 C 5.353 11.524,4.394 11.268,4.279 11.162 C 4.142 11.035,4.019 10.761,4.020 10.583 C 4.021 10.298,4.236 9.975,4.475 9.902 C 4.645 9.850,5.041 9.890,5.567 10.014 M8.801 10.621 C 8.995 10.698,9.145 10.892,9.231 11.176 C 9.272 11.308,9.311 11.435,9.318 11.458 C 9.327 11.488,9.427 11.500,9.666 11.500 L 10.000 11.500 10.000 12.250 L 10.000 13.000 9.265 13.000 C 8.453 13.000,8.422 12.994,8.242 12.788 C 8.117 12.646,8.024 12.404,7.901 11.897 C 7.776 11.385,7.750 11.168,7.798 11.021 C 7.845 10.881,8.064 10.647,8.211 10.580 C 8.337 10.523,8.602 10.541,8.801 10.621 " fill="#1A1C1F" stroke="none" fill-rule="evenodd"></path></svg>