<svg width="12" height="12" viewBox="0 0 12 12" fill="none" xmlns="http://www.w3.org/2000/svg"><path d="M4.050 1.220 C 3.567 1.232,3.546 1.234,3.437 1.285 C 3.026 1.472,2.771 1.790,2.652 2.260 C 2.612 2.419,2.272 3.932,2.231 4.132 L 2.218 4.194 1.849 4.206 C 1.419 4.220,1.338 4.243,1.259 4.372 C 1.217 4.440,1.210 4.478,1.203 4.708 C 1.193 5.032,1.217 5.150,1.312 5.248 C 1.419 5.359,1.489 5.386,1.685 5.396 C 1.796 5.402,1.860 5.413,1.860 5.427 C 1.860 5.480,2.004 6.654,2.043 6.920 C 2.080 7.171,2.087 7.329,2.095 8.105 L 2.105 9.000 2.852 9.000 L 3.600 9.000 3.600 8.635 C 3.600 8.434,3.608 8.258,3.617 8.244 C 3.631 8.222,3.699 8.225,3.992 8.258 C 4.297 8.293,5.343 8.400,5.383 8.400 C 5.391 8.400,5.400 8.776,5.405 9.235 C 5.414 10.151,5.419 10.194,5.541 10.371 C 5.628 10.498,5.825 10.669,5.962 10.738 L 6.086 10.800 7.918 10.799 C 8.935 10.799,9.838 10.790,9.948 10.780 C 10.170 10.758,10.312 10.704,10.455 10.587 C 10.581 10.484,10.697 10.320,10.747 10.176 L 10.790 10.050 10.796 7.171 L 10.802 4.291 10.736 4.161 C 10.652 3.994,10.447 3.785,10.299 3.715 C 10.174 3.656,10.022 3.623,9.782 3.604 L 9.614 3.590 9.581 3.489 C 9.517 3.291,9.392 3.147,9.201 3.051 L 9.101 3.000 8.446 3.001 C 7.494 3.003,6.986 3.025,6.907 3.066 C 6.762 3.142,6.629 3.342,6.605 3.521 L 6.595 3.600 6.452 3.600 C 6.245 3.600,6.067 3.634,5.930 3.700 C 5.791 3.767,5.567 3.980,5.496 4.113 L 5.450 4.200 4.447 4.200 L 3.444 4.200 3.463 4.115 C 3.565 3.649,3.806 2.607,3.830 2.528 L 3.860 2.426 4.085 2.413 C 4.209 2.406,4.724 2.399,5.230 2.398 C 6.368 2.396,6.766 2.380,6.854 2.334 C 6.944 2.286,7.106 2.119,7.148 2.031 C 7.198 1.926,7.196 1.680,7.143 1.557 C 7.094 1.443,6.971 1.322,6.833 1.253 L 6.729 1.200 5.640 1.204 C 5.040 1.206,4.325 1.213,4.050 1.220 M9.600 7.200 L 9.600 9.600 8.100 9.600 L 6.600 9.600 6.600 7.200 L 6.600 4.800 8.100 4.800 L 9.600 4.800 9.600 7.200 M3.940 5.499 C 4.493 5.626,4.643 5.691,4.711 5.834 C 4.800 6.020,4.753 6.249,4.599 6.389 C 4.479 6.497,4.397 6.510,4.143 6.461 C 3.794 6.394,3.303 6.265,3.214 6.215 C 3.084 6.144,3.030 6.029,3.030 5.827 C 3.030 5.636,3.054 5.590,3.211 5.483 C 3.309 5.416,3.311 5.416,3.490 5.426 C 3.589 5.432,3.791 5.465,3.940 5.499 M8.145 5.452 C 8.021 5.515,7.936 5.652,7.550 6.410 C 7.179 7.138,7.153 7.238,7.290 7.437 C 7.371 7.555,7.487 7.621,7.641 7.635 C 7.706 7.641,7.760 7.654,7.760 7.664 C 7.760 7.674,7.687 7.812,7.599 7.970 C 7.510 8.128,7.419 8.305,7.397 8.364 C 7.277 8.678,7.479 8.992,7.800 8.989 C 7.922 8.988,8.011 8.949,8.090 8.865 C 8.241 8.704,8.974 7.400,9.009 7.228 C 9.029 7.130,8.954 6.955,8.855 6.870 C 8.768 6.796,8.619 6.740,8.508 6.740 C 8.472 6.740,8.438 6.733,8.432 6.723 C 8.426 6.714,8.500 6.546,8.596 6.349 C 8.768 5.996,8.770 5.989,8.770 5.840 C 8.770 5.664,8.736 5.600,8.584 5.495 C 8.503 5.440,8.470 5.430,8.350 5.425 C 8.249 5.420,8.192 5.428,8.145 5.452 " fill="#1A1C1F" stroke="none" fill-rule="evenodd"></path></svg>