<svg width="14" height="14" viewBox="0 0 14 14" fill="none" xmlns="http://www.w3.org/2000/svg"><path d="M10.124 1.633 C 9.833 1.685,9.029 1.973,8.871 2.082 C 8.697 2.201,8.509 2.513,8.480 2.731 C 8.463 2.852,8.461 2.841,9.047 5.565 C 9.273 6.617,9.459 7.509,9.460 7.546 C 9.462 7.610,9.443 7.625,9.175 7.768 C 8.283 8.246,7.740 8.921,7.372 10.007 L 7.292 10.243 5.808 10.243 L 4.323 10.243 4.201 10.079 C 3.986 9.790,3.669 9.571,3.343 9.487 C 3.163 9.440,2.811 9.440,2.615 9.486 C 2.128 9.601,1.699 10.011,1.554 10.498 C 1.510 10.648,1.502 11.159,1.543 11.305 C 1.605 11.531,1.735 11.746,1.925 11.936 C 2.207 12.220,2.507 12.359,2.884 12.383 C 3.154 12.400,3.385 12.351,3.647 12.221 C 3.890 12.100,4.173 11.826,4.293 11.594 L 4.372 11.439 6.089 11.426 C 7.172 11.418,7.848 11.404,7.921 11.388 C 8.069 11.356,8.201 11.264,8.272 11.143 C 8.302 11.091,8.355 10.949,8.388 10.827 C 8.567 10.174,8.724 9.788,8.923 9.508 C 9.112 9.244,9.584 8.843,9.708 8.843 C 9.759 8.843,9.762 8.853,9.895 9.430 L 9.991 9.842 9.880 9.978 C 9.489 10.458,9.443 11.160,9.767 11.693 C 9.876 11.872,10.128 12.104,10.325 12.206 C 10.607 12.352,10.712 12.378,11.025 12.378 C 11.269 12.377,11.328 12.369,11.486 12.313 C 12.083 12.105,12.449 11.619,12.499 10.970 C 12.551 10.289,12.022 9.621,11.304 9.461 C 11.206 9.439,11.122 9.409,11.117 9.395 C 11.107 9.369,10.339 5.854,9.927 3.946 C 9.817 3.441,9.732 3.024,9.737 3.018 C 9.742 3.013,9.908 2.948,10.106 2.873 C 10.541 2.709,10.594 2.682,10.673 2.588 C 10.833 2.397,10.881 2.157,10.793 1.983 C 10.646 1.696,10.423 1.579,10.124 1.633 M2.683 7.278 C 2.477 7.295,2.395 7.334,2.268 7.479 C 2.119 7.647,2.089 7.912,2.195 8.120 C 2.256 8.240,2.402 8.369,2.508 8.397 C 2.560 8.410,2.808 8.432,3.061 8.445 C 3.691 8.477,3.801 8.518,4.328 8.913 C 4.593 9.112,4.710 9.161,4.863 9.136 C 5.269 9.071,5.512 8.667,5.348 8.328 C 5.172 7.964,4.316 7.409,3.772 7.306 C 3.621 7.278,2.917 7.260,2.683 7.278 " fill="#1A1C1F" stroke="none" fill-rule="evenodd"></path></svg>