<svg width="16" height="16" viewBox="0 0 16 16" fill="none" xmlns="http://www.w3.org/2000/svg"><path d="M10.947 2.453 C 10.808 2.498,10.610 2.672,10.523 2.827 C 10.448 2.959,10.440 2.996,10.440 3.200 C 10.441 3.383,10.452 3.448,10.500 3.539 C 10.648 3.817,10.806 3.919,11.210 4.001 C 11.629 4.085,11.856 4.224,11.930 4.442 C 11.991 4.620,12.084 5.207,12.281 6.653 C 12.522 8.423,12.697 9.815,12.688 9.889 C 12.681 9.941,12.596 9.997,12.200 10.206 C 11.429 10.615,11.305 10.718,11.237 11.007 C 11.210 11.119,11.208 11.198,11.226 11.301 C 11.303 11.725,11.549 11.942,12.008 11.989 L 12.178 12.006 13.002 11.590 C 13.918 11.128,14.130 11.002,14.241 10.848 C 14.392 10.639,14.414 10.536,14.377 10.203 C 14.311 9.600,13.867 6.376,13.651 4.920 C 13.530 4.105,13.466 3.878,13.266 3.557 C 13.110 3.307,12.846 3.022,12.623 2.863 C 12.425 2.722,12.067 2.550,11.856 2.495 C 11.668 2.446,11.057 2.418,10.947 2.453 M2.184 5.651 C 1.896 5.708,1.642 6.018,1.609 6.355 C 1.578 6.664,1.821 7.023,2.142 7.143 C 2.226 7.174,2.317 7.200,2.344 7.200 C 2.390 7.200,2.394 7.258,2.407 8.300 C 2.419 9.235,2.428 9.422,2.467 9.547 C 2.610 10.006,2.828 10.211,3.314 10.343 C 3.517 10.399,3.558 10.400,5.754 10.398 C 6.982 10.397,8.323 10.387,8.733 10.375 C 9.394 10.356,9.498 10.347,9.639 10.297 C 9.981 10.175,10.170 9.990,10.295 9.657 C 10.362 9.476,10.390 9.099,10.415 8.007 C 10.430 7.361,10.441 7.200,10.469 7.200 C 10.565 7.200,10.811 7.078,10.928 6.973 C 11.339 6.604,11.259 5.990,10.763 5.705 L 10.627 5.627 6.453 5.630 C 4.158 5.632,2.237 5.641,2.184 5.651 M8.800 8.000 L 8.800 8.800 6.400 8.800 L 4.000 8.800 4.000 8.000 L 4.000 7.200 6.400 7.200 L 8.800 7.200 8.800 8.000 M3.280 11.250 C 2.985 11.348,2.663 11.616,2.536 11.870 C 2.311 12.320,2.386 12.821,2.733 13.195 C 2.924 13.400,3.118 13.512,3.372 13.564 C 3.775 13.646,4.121 13.536,4.428 13.229 C 4.611 13.046,4.700 12.895,4.762 12.660 C 4.899 12.148,4.627 11.595,4.114 11.341 C 3.930 11.250,3.899 11.243,3.632 11.236 C 3.475 11.232,3.317 11.238,3.280 11.250 M8.880 11.250 C 8.585 11.348,8.263 11.616,8.136 11.870 C 7.911 12.320,7.986 12.821,8.333 13.195 C 8.524 13.400,8.718 13.512,8.972 13.564 C 9.375 13.646,9.721 13.536,10.028 13.229 C 10.211 13.046,10.300 12.895,10.362 12.660 C 10.499 12.148,10.227 11.595,9.714 11.341 C 9.530 11.250,9.499 11.243,9.232 11.236 C 9.075 11.232,8.917 11.238,8.880 11.250 M5.931 11.837 C 5.709 11.859,5.574 11.951,5.479 12.146 C 5.345 12.420,5.423 12.715,5.676 12.891 C 5.823 12.993,5.937 13.011,6.432 13.012 C 7.052 13.014,7.229 12.962,7.386 12.734 C 7.601 12.422,7.540 12.123,7.218 11.906 L 7.081 11.813 6.587 11.817 C 6.315 11.820,6.020 11.829,5.931 11.837 " fill="#1A1C1F" stroke="none" fill-rule="evenodd"></path></svg>