<svg width="32" height="32" viewBox="0 0 32 32" fill="none" xmlns="http://www.w3.org/2000/svg"><path d="M24.437 4.691 C 24.257 4.804,24.001 5.259,24.001 5.467 C 24.000 5.955,24.296 6.284,24.911 6.478 C 25.479 6.657,25.647 6.750,25.712 6.920 C 25.855 7.297,27.880 20.585,27.812 20.696 C 27.780 20.748,27.284 20.895,26.213 21.172 C 24.658 21.574,24.520 21.624,24.280 21.885 C 23.913 22.283,23.923 22.789,24.306 23.155 C 24.702 23.534,24.832 23.544,25.962 23.283 C 28.342 22.732,29.285 22.462,29.581 22.247 C 29.932 21.993,29.990 21.808,29.919 21.160 C 29.758 19.671,28.019 8.080,27.782 6.911 C 27.652 6.270,27.472 5.887,27.125 5.507 C 26.837 5.191,26.550 4.978,26.122 4.762 C 25.876 4.637,25.762 4.617,25.227 4.600 C 24.677 4.582,24.595 4.592,24.437 4.691 M2.521 12.666 C 2.264 12.778,2.027 13.181,2.027 13.506 C 2.027 13.801,2.110 13.991,2.329 14.194 C 2.501 14.354,2.782 14.507,2.904 14.507 C 2.976 14.507,2.987 14.660,2.988 15.720 C 2.989 17.320,3.047 18.003,3.224 18.480 C 3.487 19.190,4.145 19.899,4.845 20.229 C 5.146 20.370,5.269 20.394,5.939 20.437 C 7.068 20.510,21.396 20.459,21.733 20.381 C 22.219 20.268,22.565 20.059,23.015 19.605 C 23.347 19.270,23.493 19.072,23.666 18.720 C 23.789 18.471,23.913 18.159,23.943 18.027 C 23.973 17.893,23.998 17.064,23.999 16.159 L 24.000 14.532 24.260 14.439 C 24.578 14.326,24.878 14.012,24.960 13.706 C 25.044 13.396,24.916 13.029,24.637 12.777 L 24.426 12.587 13.560 12.589 C 4.338 12.591,2.667 12.602,2.521 12.666 M21.963 16.126 C 21.935 17.921,21.941 17.890,21.547 18.267 L 21.380 18.427 20.490 18.462 C 20.000 18.481,16.507 18.499,12.726 18.502 L 5.852 18.507 5.592 18.308 C 5.449 18.199,5.272 18.024,5.198 17.918 C 5.065 17.726,5.065 17.720,5.031 16.116 L 4.996 14.507 13.492 14.507 L 21.988 14.507 21.963 16.126 M6.427 21.572 C 6.397 21.582,6.241 21.630,6.080 21.680 C 4.982 22.017,4.116 23.126,4.018 24.320 C 3.885 25.941,5.296 27.462,6.933 27.465 C 7.824 27.466,8.453 27.213,9.061 26.611 C 9.657 26.021,9.906 25.481,9.957 24.667 C 10.047 23.230,9.035 21.895,7.637 21.605 C 7.382 21.552,6.558 21.530,6.427 21.572 M19.303 21.597 C 18.577 21.731,17.626 22.513,17.297 23.246 C 16.761 24.445,16.996 25.680,17.940 26.618 C 18.576 27.250,19.288 27.512,20.204 27.451 C 21.194 27.384,21.951 26.933,22.500 26.084 C 22.906 25.456,23.077 24.610,22.936 23.931 C 22.854 23.539,22.519 22.873,22.243 22.553 C 21.969 22.236,21.392 21.844,20.997 21.706 C 20.647 21.583,19.706 21.522,19.303 21.597 M12.720 22.155 C 11.542 22.428,10.858 23.059,11.034 23.709 C 11.142 24.110,11.565 24.480,11.916 24.480 C 11.992 24.480,12.315 24.396,12.633 24.293 C 13.402 24.044,13.685 24.045,14.380 24.298 C 14.778 24.443,14.962 24.483,15.134 24.465 C 15.778 24.394,16.165 23.652,15.863 23.067 C 15.717 22.782,15.235 22.461,14.681 22.278 C 14.135 22.097,13.217 22.040,12.720 22.155 M7.393 23.622 C 7.808 23.811,8.000 24.207,7.923 24.719 C 7.846 25.231,7.273 25.587,6.759 25.443 C 6.330 25.323,6.061 24.963,6.059 24.507 C 6.055 23.786,6.745 23.328,7.393 23.622 M20.463 23.662 C 20.759 23.802,20.933 24.114,20.933 24.503 C 20.933 25.043,20.622 25.401,20.091 25.473 C 19.900 25.500,19.795 25.481,19.600 25.387 C 18.964 25.079,18.858 24.183,19.403 23.734 C 19.574 23.593,19.638 23.573,19.937 23.573 C 20.143 23.573,20.351 23.608,20.463 23.662 " fill="#1A1C1F" stroke="none" fill-rule="evenodd"></path></svg>