<svg width="20" height="20" viewBox="0 0 20 20" fill="none" xmlns="http://www.w3.org/2000/svg"><path d="M13.767 3.122 C 13.609 3.155,13.369 3.370,13.265 3.572 C 13.166 3.762,13.152 3.933,13.216 4.154 C 13.318 4.506,13.580 4.683,14.174 4.800 C 14.421 4.849,14.741 5.010,14.851 5.140 C 14.986 5.301,15.087 5.528,15.146 5.800 C 15.210 6.094,15.346 7.058,15.666 9.466 C 16.010 12.054,16.062 12.450,16.056 12.454 C 16.053 12.455,15.735 12.617,15.350 12.812 C 14.367 13.311,14.202 13.447,14.174 13.780 C 14.139 14.202,14.269 14.466,14.604 14.650 C 14.751 14.731,14.822 14.749,15.000 14.749 C 15.203 14.748,15.255 14.730,15.833 14.455 C 16.797 13.998,17.502 13.613,17.623 13.479 C 17.744 13.344,17.833 13.112,17.833 12.932 C 17.833 12.544,16.962 6.168,16.800 5.367 C 16.717 4.959,16.603 4.682,16.384 4.350 C 16.004 3.778,15.413 3.360,14.737 3.184 C 14.522 3.128,13.920 3.090,13.767 3.122 M2.591 8.052 C 2.285 8.240,2.144 8.519,2.176 8.872 C 2.208 9.221,2.381 9.432,2.763 9.587 C 2.941 9.659,2.951 9.670,2.973 9.806 C 2.985 9.885,2.997 10.250,2.999 10.617 C 3.005 11.599,3.039 11.960,3.146 12.179 C 3.297 12.487,3.597 12.722,4.029 12.871 C 4.202 12.931,4.380 12.933,7.980 12.933 C 10.268 12.933,11.828 12.920,11.948 12.900 C 12.353 12.834,12.702 12.583,12.856 12.246 C 12.961 12.016,12.998 11.559,12.999 10.445 L 13.000 9.639 13.131 9.617 C 13.341 9.582,13.601 9.405,13.715 9.221 C 13.794 9.092,13.818 9.011,13.828 8.832 C 13.849 8.453,13.695 8.199,13.334 8.016 C 13.224 7.960,12.910 7.956,8.000 7.945 L 2.783 7.933 2.591 8.052 M4.167 13.979 C 3.581 14.107,3.061 14.695,3.011 15.284 C 2.960 15.895,3.295 16.480,3.850 16.751 C 4.385 17.013,4.954 16.949,5.415 16.575 C 5.974 16.123,6.148 15.415,5.855 14.783 C 5.750 14.558,5.406 14.223,5.153 14.100 C 4.963 14.008,4.623 13.931,4.433 13.936 C 4.388 13.938,4.268 13.957,4.167 13.979 M11.167 13.979 C 10.581 14.107,10.061 14.695,10.011 15.284 C 9.960 15.895,10.295 16.480,10.850 16.751 C 11.385 17.013,11.954 16.949,12.415 16.575 C 12.974 16.123,13.148 15.415,12.855 14.783 C 12.750 14.558,12.406 14.223,12.153 14.100 C 11.963 14.008,11.623 13.931,11.433 13.936 C 11.387 13.938,11.267 13.957,11.167 13.979 M7.206 14.642 C 7.145 14.662,7.021 14.744,6.931 14.825 C 6.801 14.942,6.755 15.012,6.713 15.159 C 6.583 15.604,6.794 16.065,7.191 16.205 C 7.281 16.237,7.521 16.250,8.033 16.250 C 8.709 16.250,8.758 16.246,8.887 16.176 C 9.235 15.991,9.408 15.569,9.298 15.176 C 9.236 14.954,8.975 14.693,8.760 14.639 C 8.565 14.590,7.361 14.592,7.206 14.642 " fill="#1A1C1F" stroke="none" fill-rule="evenodd"></path></svg>