<svg width="14" height="14" viewBox="0 0 14 14" fill="none" xmlns="http://www.w3.org/2000/svg"><path d="M9.648 2.186 C 9.504 2.210,9.317 2.397,9.250 2.583 C 9.206 2.708,9.209 2.802,9.265 2.950 C 9.347 3.170,9.529 3.283,9.928 3.361 C 10.331 3.440,10.519 3.649,10.614 4.121 C 10.670 4.400,11.255 8.707,11.239 8.717 C 11.237 8.719,11.014 8.832,10.743 8.970 C 10.053 9.321,9.941 9.413,9.922 9.646 C 9.897 9.942,9.988 10.126,10.223 10.255 C 10.326 10.312,10.375 10.324,10.500 10.324 C 10.641 10.323,10.681 10.309,11.060 10.130 C 11.722 9.817,12.253 9.528,12.336 9.435 C 12.417 9.345,12.483 9.179,12.483 9.067 C 12.483 8.845,11.899 4.498,11.782 3.847 C 11.695 3.367,11.542 3.065,11.228 2.760 C 10.833 2.377,10.446 2.201,9.952 2.183 C 9.823 2.178,9.687 2.179,9.648 2.186 M1.797 5.650 C 1.594 5.787,1.528 5.912,1.528 6.160 C 1.528 6.438,1.640 6.590,1.934 6.709 C 2.059 6.760,2.066 6.767,2.081 6.864 C 2.089 6.919,2.098 7.175,2.099 7.432 C 2.105 8.328,2.136 8.499,2.336 8.715 C 2.449 8.838,2.567 8.913,2.779 8.996 L 2.926 9.053 5.647 9.053 L 8.369 9.053 8.517 8.993 C 8.788 8.883,8.925 8.757,9.019 8.530 C 9.071 8.405,9.098 7.992,9.099 7.312 L 9.100 6.749 9.186 6.732 C 9.574 6.660,9.792 6.243,9.627 5.889 C 9.572 5.769,9.486 5.688,9.334 5.611 C 9.257 5.572,9.035 5.569,5.600 5.559 L 1.948 5.549 1.797 5.650 M2.709 9.860 C 2.166 10.133,1.960 10.720,2.218 11.260 C 2.397 11.637,2.877 11.894,3.278 11.830 C 3.764 11.752,4.141 11.361,4.193 10.880 C 4.236 10.486,3.986 10.055,3.606 9.868 C 3.452 9.793,3.427 9.788,3.162 9.781 L 2.882 9.773 2.709 9.860 M7.609 9.860 C 7.066 10.133,6.860 10.720,7.118 11.260 C 7.297 11.637,7.777 11.894,8.178 11.830 C 8.664 11.752,9.041 11.361,9.093 10.880 C 9.136 10.486,8.886 10.055,8.506 9.868 C 8.352 9.793,8.327 9.788,8.062 9.781 L 7.782 9.773 7.609 9.860 M5.005 10.274 C 4.838 10.353,4.725 10.488,4.688 10.652 C 4.616 10.975,4.804 11.292,5.110 11.362 C 5.246 11.393,5.930 11.394,6.092 11.363 C 6.326 11.319,6.511 11.101,6.529 10.847 C 6.546 10.617,6.448 10.426,6.244 10.294 C 6.149 10.232,6.146 10.232,5.635 10.225 C 5.137 10.219,5.118 10.220,5.005 10.274 " fill="#1A1C1F" stroke="none" fill-rule="evenodd"></path></svg>