<svg width="16" height="16" viewBox="0 0 16 16" fill="none" xmlns="http://www.w3.org/2000/svg"><path d="M11.013 2.498 C 10.925 2.516,10.740 2.659,10.667 2.766 C 10.527 2.968,10.504 3.147,10.588 3.372 C 10.681 3.620,10.886 3.749,11.331 3.839 C 11.746 3.923,11.997 4.148,12.092 4.521 C 12.152 4.759,12.236 5.345,12.545 7.680 C 12.699 8.846,12.831 9.836,12.837 9.880 C 12.848 9.960,12.845 9.962,12.283 10.248 C 11.490 10.652,11.361 10.758,11.339 11.024 C 11.311 11.362,11.415 11.573,11.683 11.720 C 11.801 11.785,11.857 11.799,12.000 11.799 C 12.158 11.798,12.208 11.782,12.560 11.617 C 13.281 11.279,13.982 10.902,14.084 10.797 C 14.225 10.652,14.278 10.471,14.255 10.216 C 14.231 9.942,14.010 8.242,13.798 6.693 C 13.472 4.307,13.416 4.009,13.237 3.682 C 12.934 3.131,12.429 2.726,11.839 2.561 C 11.642 2.506,11.152 2.468,11.013 2.498 M2.068 6.446 C 1.961 6.514,1.882 6.590,1.828 6.678 C 1.755 6.796,1.747 6.831,1.747 7.025 C 1.747 7.212,1.756 7.256,1.820 7.365 C 1.905 7.510,2.002 7.585,2.210 7.670 C 2.353 7.728,2.361 7.736,2.378 7.845 C 2.388 7.908,2.398 8.200,2.399 8.493 C 2.404 9.279,2.432 9.568,2.517 9.743 C 2.639 9.991,2.896 10.190,3.242 10.304 C 3.367 10.344,3.646 10.348,6.496 10.341 L 9.613 10.333 9.757 10.272 C 10.055 10.145,10.215 9.985,10.325 9.703 C 10.377 9.571,10.382 9.492,10.394 8.635 L 10.407 7.710 10.508 7.693 C 10.673 7.665,10.881 7.523,10.972 7.377 C 11.035 7.273,11.054 7.209,11.062 7.065 C 11.079 6.762,10.956 6.559,10.667 6.412 C 10.579 6.368,10.328 6.365,6.400 6.355 L 2.227 6.346 2.068 6.446 M3.097 11.268 C 2.601 11.517,2.327 12.035,2.425 12.539 C 2.524 13.046,2.930 13.440,3.434 13.518 C 4.078 13.618,4.720 13.105,4.792 12.434 C 4.841 11.983,4.546 11.476,4.115 11.273 C 3.947 11.194,3.909 11.186,3.613 11.178 L 3.293 11.169 3.097 11.268 M8.697 11.268 C 8.201 11.517,7.927 12.035,8.025 12.539 C 8.124 13.046,8.530 13.440,9.034 13.518 C 9.678 13.618,10.320 13.105,10.392 12.434 C 10.441 11.983,10.146 11.476,9.715 11.273 C 9.547 11.194,9.509 11.186,9.213 11.178 L 8.893 11.169 8.697 11.268 M5.720 11.742 C 5.529 11.832,5.400 11.986,5.358 12.174 C 5.275 12.543,5.491 12.905,5.840 12.985 C 5.996 13.020,6.778 13.021,6.963 12.986 C 7.230 12.935,7.441 12.686,7.462 12.397 C 7.481 12.133,7.369 11.916,7.136 11.764 C 7.027 11.694,7.024 11.693,6.440 11.686 C 5.870 11.679,5.849 11.680,5.720 11.742 " fill="#1A1C1F" stroke="none" fill-rule="evenodd"></path></svg>