<svg width="12" height="12" viewBox="0 0 12 12" fill="none" xmlns="http://www.w3.org/2000/svg"><path d="M8.210 1.840 C 8.177 1.851,8.105 1.894,8.050 1.935 C 7.871 2.072,7.780 2.337,7.838 2.553 C 7.893 2.756,8.089 2.939,8.295 2.980 C 8.584 3.037,8.666 3.063,8.767 3.127 C 8.911 3.219,8.949 3.290,8.998 3.550 C 9.063 3.891,9.374 6.148,9.482 7.065 C 9.526 7.434,9.526 7.441,9.489 7.468 C 9.468 7.484,9.316 7.567,9.151 7.653 C 8.518 7.985,8.416 8.086,8.415 8.380 C 8.415 8.732,8.629 8.953,9.005 8.992 L 9.133 9.005 9.734 8.702 C 10.432 8.351,10.617 8.238,10.696 8.113 C 10.797 7.953,10.810 7.885,10.782 7.644 C 10.725 7.145,10.394 4.737,10.238 3.690 C 10.147 3.078,10.099 2.908,9.949 2.668 C 9.833 2.481,9.634 2.267,9.467 2.147 C 9.318 2.041,9.050 1.912,8.889 1.870 C 8.746 1.833,8.294 1.813,8.210 1.840 M1.638 4.239 C 1.422 4.281,1.232 4.514,1.206 4.767 C 1.183 4.999,1.365 5.268,1.606 5.357 C 1.669 5.381,1.738 5.400,1.758 5.400 C 1.793 5.400,1.795 5.443,1.805 6.225 C 1.814 6.926,1.821 7.066,1.850 7.160 C 1.958 7.505,2.118 7.656,2.490 7.760 L 2.650 7.805 4.790 7.794 C 6.181 7.787,6.979 7.775,7.069 7.761 C 7.235 7.735,7.395 7.666,7.513 7.569 C 7.618 7.482,7.733 7.260,7.760 7.089 C 7.779 6.970,7.819 5.966,7.820 5.597 L 7.820 5.404 7.894 5.391 C 8.149 5.343,8.362 5.109,8.394 4.841 C 8.418 4.632,8.287 4.402,8.072 4.279 L 7.970 4.220 4.840 4.222 C 3.118 4.224,1.678 4.231,1.638 4.239 M6.600 6.000 L 6.600 6.600 4.800 6.600 L 3.000 6.600 3.000 6.000 L 3.000 5.400 4.800 5.400 L 6.600 5.400 6.600 6.000 M2.460 8.438 C 2.237 8.511,1.995 8.715,1.899 8.909 C 1.771 9.169,1.781 9.497,1.924 9.735 C 2.008 9.874,2.201 10.053,2.330 10.112 C 2.563 10.218,2.853 10.217,3.074 10.109 C 3.213 10.041,3.392 9.874,3.476 9.735 C 3.569 9.580,3.611 9.362,3.584 9.176 C 3.541 8.892,3.353 8.638,3.087 8.507 C 2.947 8.438,2.924 8.433,2.724 8.427 C 2.606 8.424,2.488 8.428,2.460 8.438 M6.660 8.438 C 6.437 8.511,6.195 8.715,6.099 8.909 C 5.971 9.169,5.981 9.497,6.124 9.735 C 6.208 9.874,6.401 10.053,6.530 10.112 C 6.763 10.218,7.053 10.217,7.274 10.109 C 7.413 10.041,7.592 9.874,7.676 9.735 C 7.769 9.580,7.811 9.362,7.784 9.176 C 7.741 8.892,7.553 8.638,7.287 8.507 C 7.147 8.438,7.124 8.433,6.924 8.427 C 6.806 8.424,6.688 8.428,6.660 8.438 M4.458 8.878 C 4.281 8.894,4.183 8.960,4.109 9.110 C 4.009 9.315,4.067 9.536,4.257 9.668 C 4.367 9.744,4.452 9.758,4.824 9.759 C 5.289 9.760,5.422 9.722,5.540 9.550 C 5.701 9.316,5.655 9.092,5.413 8.929 L 5.311 8.860 4.950 8.863 C 4.752 8.865,4.531 8.872,4.458 8.878 " fill="#1A1C1F" stroke="none" fill-rule="evenodd"></path></svg>