<svg width="28" height="28" viewBox="0 0 28 28" fill="none" xmlns="http://www.w3.org/2000/svg"><path d="M21.564 4.184 C 21.370 4.280,21.297 4.349,21.229 4.499 C 21.122 4.735,21.119 4.846,21.215 5.086 C 21.310 5.324,21.452 5.424,21.868 5.548 C 22.279 5.670,22.493 5.810,22.595 6.021 C 22.692 6.222,22.890 7.388,23.401 10.780 C 23.840 13.698,24.500 18.138,24.500 18.179 C 24.500 18.236,24.104 18.363,23.193 18.597 C 21.509 19.029,21.355 19.090,21.218 19.380 C 21.083 19.665,21.138 19.939,21.394 20.242 C 21.502 20.370,21.553 20.393,21.727 20.393 C 21.984 20.393,22.789 20.225,24.080 19.900 C 25.709 19.490,25.921 19.408,26.060 19.140 C 26.126 19.012,26.108 18.839,25.784 16.583 C 24.975 10.936,24.245 6.231,24.109 5.787 C 23.852 4.946,23.225 4.366,22.323 4.134 C 21.936 4.034,21.852 4.040,21.564 4.184 M4.775 11.851 L 2.293 11.877 2.155 12.008 C 2.080 12.081,1.980 12.223,1.935 12.324 C 1.863 12.484,1.860 12.533,1.911 12.705 C 1.980 12.937,2.266 13.231,2.464 13.275 L 2.599 13.304 2.626 14.527 C 2.649 15.583,2.666 15.792,2.749 16.057 C 3.019 16.917,3.955 17.759,4.777 17.881 C 5.208 17.944,13.627 17.979,16.450 17.929 C 19.213 17.879,19.182 17.883,19.673 17.543 C 20.268 17.130,20.707 16.601,20.864 16.107 C 20.951 15.834,20.966 15.646,20.988 14.552 L 21.013 13.308 21.159 13.281 C 21.448 13.226,21.715 12.864,21.715 12.525 C 21.716 12.294,21.586 12.092,21.337 11.938 L 21.163 11.830 14.210 11.828 C 10.386 11.826,6.140 11.837,4.775 11.851 M17.103 18.993 C 16.753 19.051,16.498 19.157,16.145 19.391 C 15.577 19.769,15.247 20.234,15.098 20.868 C 14.900 21.706,15.122 22.534,15.703 23.126 C 16.326 23.760,17.231 24.060,17.967 23.875 C 19.101 23.590,19.880 22.703,19.959 21.607 C 20.025 20.687,19.586 19.860,18.753 19.334 C 18.301 19.049,17.618 18.908,17.103 18.993 M5.348 19.091 C 4.076 19.529,3.330 20.978,3.755 22.185 C 4.093 23.140,4.944 23.821,5.930 23.924 C 6.540 23.988,7.359 23.669,7.854 23.175 C 8.454 22.574,8.720 21.782,8.567 21.047 C 8.358 20.048,7.625 19.253,6.719 19.044 C 6.357 18.960,5.658 18.985,5.348 19.091 M11.270 19.490 C 10.591 19.592,9.899 20.024,9.795 20.411 C 9.701 20.760,9.959 21.170,10.338 21.274 C 10.531 21.328,10.747 21.277,11.083 21.100 C 11.290 20.992,11.370 20.978,11.783 20.977 C 12.192 20.977,12.290 20.993,12.577 21.112 C 12.756 21.186,12.989 21.256,13.094 21.268 C 13.742 21.343,14.106 20.447,13.598 20.028 C 13.401 19.866,12.929 19.629,12.669 19.561 C 12.460 19.508,11.485 19.458,11.270 19.490 M17.850 20.528 C 18.242 20.707,18.452 21.025,18.455 21.443 C 18.461 22.414,17.247 22.787,16.685 21.988 C 16.559 21.807,16.543 21.749,16.545 21.451 C 16.546 21.063,16.624 20.881,16.870 20.694 C 17.201 20.441,17.537 20.384,17.850 20.528 M6.694 20.645 C 6.948 20.839,7.114 21.218,7.077 21.523 C 7.021 22.003,6.648 22.383,6.182 22.435 C 5.879 22.469,5.495 22.272,5.317 21.992 C 5.066 21.596,5.086 21.190,5.373 20.843 C 5.625 20.539,5.759 20.480,6.164 20.496 C 6.470 20.508,6.541 20.528,6.694 20.645 " fill="#1A1C1F" stroke="none" fill-rule="evenodd"></path></svg>