<svg width="20" height="20" viewBox="0 0 20 20" fill="none" xmlns="http://www.w3.org/2000/svg"><path d="M13.683 3.067 C 13.492 3.128,13.257 3.341,13.151 3.549 C 13.063 3.720,13.050 3.780,13.051 4.015 C 13.052 4.333,13.120 4.492,13.353 4.718 C 13.525 4.885,13.678 4.949,14.059 5.014 C 14.388 5.071,14.600 5.167,14.771 5.337 C 14.917 5.484,14.940 5.555,15.050 6.224 C 15.234 7.334,15.878 12.216,15.860 12.362 C 15.852 12.426,15.745 12.496,15.250 12.758 C 14.170 13.330,14.026 13.472,14.026 13.967 C 14.025 14.550,14.384 14.922,15.010 14.986 L 15.223 15.008 16.253 14.488 C 17.398 13.910,17.662 13.752,17.801 13.559 C 17.990 13.299,18.017 13.170,17.971 12.754 C 17.888 12.000,17.334 7.970,17.064 6.150 C 16.912 5.131,16.832 4.847,16.582 4.446 C 16.388 4.134,16.057 3.778,15.779 3.579 C 15.532 3.402,15.084 3.188,14.819 3.119 C 14.585 3.058,13.821 3.023,13.683 3.067 M2.731 7.064 C 2.583 7.093,2.417 7.194,2.277 7.339 C 2.002 7.625,1.932 8.096,2.116 8.429 C 2.170 8.527,2.280 8.665,2.361 8.736 C 2.501 8.860,2.804 9.000,2.930 9.000 C 2.988 9.000,2.992 9.072,3.009 10.375 C 3.024 11.544,3.035 11.777,3.084 11.933 C 3.264 12.513,3.536 12.765,4.162 12.934 L 4.440 13.009 7.978 12.990 C 10.072 12.978,11.614 12.957,11.754 12.937 C 12.037 12.896,12.325 12.776,12.521 12.615 C 12.691 12.476,12.884 12.109,12.933 11.833 C 12.965 11.654,13.032 9.967,13.033 9.329 L 13.033 9.007 13.156 8.984 C 13.349 8.948,13.576 8.818,13.714 8.665 C 14.168 8.163,14.051 7.474,13.454 7.132 L 13.283 7.034 8.067 7.037 C 5.197 7.039,2.796 7.052,2.731 7.064 M11.000 10.000 L 11.000 11.000 8.000 11.000 L 5.000 11.000 5.000 10.000 L 5.000 9.000 8.000 9.000 L 11.000 9.000 11.000 10.000 M4.200 14.046 C 3.789 14.138,3.352 14.474,3.170 14.837 C 2.889 15.400,2.982 16.026,3.416 16.493 C 3.655 16.750,3.898 16.890,4.214 16.955 C 4.696 17.053,5.119 16.930,5.492 16.585 C 5.866 16.239,6.061 15.699,5.971 15.259 C 5.845 14.643,5.384 14.178,4.771 14.048 C 4.510 13.993,4.443 13.992,4.200 14.046 M11.200 14.046 C 10.789 14.138,10.352 14.474,10.170 14.837 C 9.889 15.400,9.982 16.026,10.416 16.493 C 10.655 16.750,10.898 16.890,11.214 16.955 C 11.696 17.053,12.119 16.930,12.492 16.585 C 12.866 16.239,13.061 15.699,12.971 15.259 C 12.845 14.643,12.384 14.178,11.771 14.048 C 11.510 13.993,11.443 13.992,11.200 14.046 M7.414 14.797 C 7.137 14.824,6.968 14.939,6.849 15.183 C 6.681 15.525,6.779 15.894,7.095 16.113 C 7.279 16.241,7.421 16.263,8.040 16.265 C 8.816 16.267,9.036 16.203,9.233 15.917 C 9.501 15.527,9.425 15.154,9.022 14.882 L 8.851 14.767 8.234 14.772 C 7.894 14.775,7.526 14.786,7.414 14.797 " fill="#1A1C1F" stroke="none" fill-rule="evenodd"></path></svg>