<svg width="14" height="14" viewBox="0 0 14 14" fill="none" xmlns="http://www.w3.org/2000/svg"><path d="M9.578 2.148 C 9.461 2.183,9.284 2.337,9.210 2.468 C 9.121 2.628,9.101 2.829,9.157 3.021 C 9.215 3.219,9.386 3.385,9.601 3.451 C 9.687 3.478,9.776 3.500,9.798 3.500 C 9.892 3.500,10.124 3.578,10.228 3.645 C 10.290 3.685,10.366 3.755,10.396 3.801 C 10.486 3.939,10.545 4.309,10.883 6.848 C 11.089 8.397,11.120 8.676,11.092 8.702 C 11.081 8.713,10.888 8.819,10.663 8.937 C 10.002 9.287,9.892 9.379,9.832 9.631 C 9.809 9.729,9.807 9.798,9.823 9.889 C 9.890 10.260,10.106 10.449,10.507 10.490 L 10.656 10.506 11.377 10.142 C 12.179 9.737,12.363 9.626,12.461 9.492 C 12.593 9.309,12.612 9.219,12.580 8.928 C 12.522 8.400,12.134 5.579,11.945 4.305 C 11.881 3.876,11.830 3.614,11.785 3.484 C 11.550 2.797,10.842 2.220,10.145 2.147 C 9.885 2.120,9.673 2.120,9.578 2.148 M1.911 4.945 C 1.808 4.965,1.692 5.036,1.594 5.138 C 1.401 5.337,1.352 5.667,1.481 5.900 C 1.519 5.969,1.596 6.065,1.652 6.115 C 1.751 6.202,1.963 6.300,2.051 6.300 C 2.091 6.300,2.094 6.351,2.106 7.263 C 2.117 8.081,2.125 8.244,2.159 8.353 C 2.283 8.755,2.474 8.934,2.899 9.051 C 3.077 9.099,3.115 9.100,4.976 9.099 C 7.251 9.097,8.241 9.074,8.416 9.020 C 8.610 8.960,8.820 8.805,8.908 8.657 C 9.061 8.400,9.085 8.208,9.113 6.996 L 9.129 6.304 9.213 6.288 C 9.418 6.250,9.646 6.068,9.732 5.874 C 9.799 5.724,9.805 5.474,9.744 5.336 C 9.688 5.210,9.530 5.046,9.399 4.980 L 9.288 4.923 5.642 4.926 C 3.636 4.927,1.957 4.936,1.911 4.945 M7.700 7.000 L 7.700 7.700 5.600 7.700 L 3.500 7.700 3.500 7.000 L 3.500 6.300 5.600 6.300 L 7.700 6.300 7.700 7.000 M2.940 9.832 C 2.648 9.898,2.340 10.137,2.217 10.394 C 2.018 10.811,2.085 11.218,2.408 11.563 C 2.805 11.988,3.417 12.007,3.845 11.609 C 4.141 11.334,4.259 10.969,4.166 10.620 C 4.111 10.414,4.021 10.258,3.878 10.121 C 3.716 9.967,3.550 9.878,3.340 9.834 C 3.157 9.795,3.110 9.795,2.940 9.832 M7.840 9.832 C 7.548 9.898,7.240 10.137,7.117 10.394 C 6.918 10.811,6.985 11.218,7.308 11.563 C 7.705 11.988,8.317 12.007,8.745 11.609 C 9.041 11.334,9.159 10.969,9.066 10.620 C 9.011 10.414,8.921 10.258,8.778 10.121 C 8.616 9.967,8.450 9.878,8.240 9.834 C 8.057 9.795,8.010 9.795,7.840 9.832 M5.202 10.358 C 4.995 10.376,4.880 10.453,4.794 10.628 C 4.677 10.868,4.745 11.126,4.967 11.279 C 5.095 11.368,5.195 11.384,5.628 11.386 C 6.171 11.387,6.325 11.342,6.463 11.142 C 6.651 10.869,6.598 10.607,6.316 10.417 L 6.196 10.337 5.775 10.340 C 5.544 10.342,5.286 10.350,5.202 10.358 " fill="#1A1C1F" stroke="none" fill-rule="evenodd"></path></svg>