<svg width="12" height="12" viewBox="0 0 12 12" fill="none" xmlns="http://www.w3.org/2000/svg"><path d="M8.266 1.873 C 8.185 1.885,8.013 2.037,7.958 2.144 C 7.895 2.267,7.889 2.391,7.939 2.525 C 8.012 2.717,8.165 2.813,8.504 2.880 C 8.652 2.909,8.844 3.006,8.910 3.084 C 8.989 3.177,9.052 3.315,9.087 3.470 C 9.122 3.628,9.294 4.859,9.489 6.350 C 9.560 6.900,9.623 7.377,9.628 7.410 C 9.636 7.470,9.634 7.471,9.213 7.685 C 8.620 7.986,8.521 8.068,8.504 8.268 C 8.483 8.521,8.561 8.679,8.762 8.790 C 8.851 8.839,8.893 8.849,9.000 8.849 C 9.121 8.849,9.154 8.838,9.480 8.683 C 10.044 8.417,10.502 8.167,10.574 8.087 C 10.647 8.005,10.700 7.867,10.700 7.756 C 10.700 7.555,10.208 3.923,10.091 3.266 C 10.034 2.943,9.932 2.720,9.725 2.469 C 9.524 2.224,9.189 2.007,8.879 1.921 C 8.732 1.880,8.397 1.854,8.266 1.873 M1.551 4.835 C 1.360 4.955,1.286 5.104,1.306 5.325 C 1.324 5.527,1.463 5.690,1.681 5.763 C 1.719 5.775,1.759 5.793,1.769 5.803 C 1.780 5.813,1.795 6.093,1.803 6.445 C 1.811 6.789,1.827 7.117,1.840 7.174 C 1.872 7.318,1.993 7.498,2.110 7.576 C 2.262 7.677,2.407 7.721,2.650 7.741 C 2.951 7.766,7.016 7.765,7.169 7.740 C 7.411 7.701,7.621 7.549,7.715 7.345 C 7.777 7.210,7.799 6.931,7.799 6.267 L 7.800 5.784 7.878 5.770 C 8.005 5.749,8.160 5.643,8.229 5.532 C 8.276 5.455,8.291 5.407,8.297 5.299 C 8.309 5.072,8.217 4.919,8.000 4.809 C 7.934 4.776,7.746 4.774,4.800 4.767 L 1.670 4.759 1.551 4.835 M2.520 8.381 C 2.179 8.452,1.876 8.768,1.817 9.116 C 1.772 9.376,1.869 9.679,2.060 9.875 C 2.184 10.001,2.399 10.111,2.575 10.138 C 2.845 10.180,3.123 10.082,3.330 9.871 C 3.579 9.618,3.654 9.311,3.551 8.969 C 3.486 8.752,3.246 8.510,3.008 8.421 C 2.878 8.372,2.649 8.354,2.520 8.381 M6.720 8.381 C 6.379 8.452,6.076 8.768,6.017 9.116 C 5.972 9.376,6.069 9.679,6.260 9.875 C 6.384 10.001,6.599 10.111,6.775 10.138 C 7.045 10.180,7.323 10.082,7.530 9.871 C 7.779 9.618,7.854 9.311,7.751 8.969 C 7.686 8.752,7.446 8.510,7.208 8.421 C 7.078 8.372,6.849 8.354,6.720 8.381 M4.290 8.807 C 4.010 8.938,3.917 9.275,4.090 9.537 C 4.218 9.730,4.353 9.767,4.877 9.756 C 5.212 9.749,5.259 9.744,5.332 9.705 C 5.572 9.579,5.667 9.280,5.545 9.039 C 5.485 8.919,5.337 8.792,5.235 8.772 C 5.202 8.765,4.998 8.760,4.782 8.760 C 4.413 8.760,4.384 8.763,4.290 8.807 " fill="#1A1C1F" stroke="none" fill-rule="evenodd"></path></svg>