<svg width="24" height="24" viewBox="0 0 24 24" fill="none" xmlns="http://www.w3.org/2000/svg"><path d="M17.813 4.038 C 17.481 4.117,17.174 4.397,17.058 4.724 C 16.984 4.936,16.985 5.033,17.065 5.269 C 17.200 5.668,17.444 5.876,17.904 5.985 C 18.276 6.073,18.370 6.160,18.453 6.491 C 18.546 6.865,19.393 11.600,19.763 13.813 C 19.846 14.311,19.846 14.327,19.774 14.379 C 19.733 14.409,19.403 14.555,19.040 14.703 C 18.163 15.060,17.878 15.206,17.729 15.376 C 17.563 15.565,17.461 15.894,17.496 16.129 C 17.570 16.619,18.113 17.056,18.551 16.976 C 18.770 16.936,19.405 16.711,20.200 16.391 C 21.623 15.819,21.825 15.693,21.940 15.305 C 21.991 15.135,21.991 15.057,21.938 14.665 C 21.840 13.951,21.477 11.846,21.000 9.222 C 20.316 5.467,20.315 5.464,19.966 5.000 C 19.614 4.535,19.024 4.174,18.426 4.060 C 18.087 3.995,18.007 3.992,17.813 4.038 M4.577 9.036 L 2.613 9.060 2.450 9.173 C 1.761 9.651,1.917 10.665,2.722 10.947 C 2.848 10.992,2.941 11.051,2.959 11.100 C 2.976 11.144,2.999 11.621,3.011 12.160 C 3.036 13.270,3.067 13.422,3.369 13.889 C 3.561 14.186,4.042 14.678,4.240 14.780 C 4.633 14.983,4.405 14.975,9.982 14.990 L 15.183 15.004 15.514 14.838 C 16.133 14.529,16.572 14.060,16.804 13.462 C 16.943 13.104,16.960 12.969,16.993 11.884 L 17.020 11.028 17.229 10.960 C 17.633 10.828,17.881 10.574,17.967 10.203 C 18.007 10.030,18.004 9.965,17.947 9.784 C 17.873 9.552,17.639 9.254,17.429 9.127 C 17.303 9.051,17.166 9.049,11.920 9.031 C 8.961 9.020,5.656 9.023,4.577 9.036 M14.972 11.592 C 15.009 12.494,14.938 12.826,14.688 12.927 C 14.560 12.979,5.551 12.999,5.310 12.948 C 5.054 12.894,5.027 12.793,5.007 11.830 L 4.991 11.000 9.969 11.000 L 14.948 11.000 14.972 11.592 M4.660 16.046 C 4.306 16.094,3.877 16.321,3.584 16.615 C 2.466 17.738,3.046 19.614,4.615 19.947 C 5.908 20.221,7.139 19.055,6.957 17.730 C 6.810 16.666,5.759 15.895,4.660 16.046 M14.660 16.046 C 14.306 16.094,13.877 16.321,13.584 16.615 C 12.466 17.738,13.046 19.614,14.615 19.947 C 15.908 20.221,17.139 19.055,16.957 17.730 C 16.810 16.666,15.759 15.895,14.660 16.046 M9.560 16.307 C 8.876 16.395,8.298 16.692,8.115 17.050 C 7.922 17.429,7.984 17.842,8.282 18.152 C 8.604 18.487,8.894 18.550,9.420 18.400 C 9.775 18.298,10.173 18.298,10.560 18.400 C 11.098 18.541,11.351 18.491,11.663 18.181 C 11.861 17.984,12.000 17.704,12.000 17.500 C 12.000 17.338,11.876 17.049,11.736 16.886 C 11.561 16.682,11.120 16.459,10.740 16.382 C 10.432 16.320,9.780 16.279,9.560 16.307 " fill="#1A1C1F" stroke="none" fill-rule="evenodd"></path></svg>