<svg width="28" height="28" viewBox="0 0 28 28" fill="none" xmlns="http://www.w3.org/2000/svg"><path d="M21.382 4.105 C 21.225 4.204,21.001 4.602,21.001 4.783 C 21.000 4.994,21.113 5.257,21.264 5.400 C 21.371 5.501,21.548 5.590,21.802 5.670 C 22.256 5.813,22.422 5.906,22.489 6.051 C 22.552 6.191,22.680 6.955,23.143 9.963 C 23.984 15.420,24.368 18.072,24.324 18.112 C 24.268 18.161,23.728 18.323,22.937 18.526 C 21.582 18.874,21.456 18.921,21.245 19.150 C 20.924 19.498,20.933 19.941,21.267 20.261 C 21.498 20.481,21.607 20.533,21.840 20.533 C 22.254 20.533,25.470 19.716,25.788 19.530 C 26.003 19.404,26.156 19.220,26.203 19.033 C 26.255 18.829,26.042 17.297,25.056 10.780 C 24.502 7.117,24.298 5.882,24.194 5.575 C 23.998 4.997,23.533 4.508,22.857 4.167 C 22.641 4.058,22.542 4.040,22.073 4.025 C 21.593 4.009,21.521 4.018,21.382 4.105 M2.241 11.065 C 1.861 11.217,1.649 11.805,1.841 12.175 C 1.940 12.367,2.211 12.588,2.426 12.652 L 2.613 12.708 2.614 13.739 C 2.616 15.144,2.668 15.760,2.821 16.170 C 3.051 16.788,3.630 17.412,4.241 17.701 C 4.514 17.830,4.601 17.845,5.268 17.883 C 5.669 17.906,8.884 17.918,12.413 17.909 C 18.361 17.893,18.850 17.886,19.110 17.810 C 19.827 17.601,20.446 16.996,20.828 16.134 L 20.977 15.797 20.991 14.245 C 21.004 12.913,21.015 12.693,21.075 12.693 C 21.202 12.693,21.498 12.514,21.644 12.347 C 21.958 11.989,21.932 11.571,21.574 11.212 L 21.376 11.013 11.866 11.016 C 5.711 11.018,2.316 11.036,2.241 11.065 M19.217 14.112 C 19.191 15.684,19.196 15.656,18.854 15.983 L 18.707 16.123 17.579 16.162 C 16.958 16.183,13.889 16.189,10.760 16.176 L 5.069 16.152 4.881 16.020 C 4.777 15.947,4.629 15.784,4.551 15.659 L 4.410 15.431 4.395 14.062 L 4.380 12.693 11.810 12.693 L 19.240 12.693 19.217 14.112 M5.490 18.905 C 5.171 18.980,4.584 19.320,4.301 19.594 C 3.968 19.915,3.828 20.131,3.669 20.572 C 3.368 21.407,3.514 22.295,4.073 23.030 C 4.957 24.195,6.690 24.377,7.806 23.422 C 8.120 23.153,8.437 22.687,8.575 22.293 C 9.079 20.849,8.246 19.317,6.744 18.925 C 6.444 18.847,5.782 18.836,5.490 18.905 M16.890 18.897 C 16.255 19.014,15.422 19.699,15.135 20.340 C 14.666 21.389,14.872 22.470,15.697 23.291 C 16.253 23.843,16.899 24.077,17.707 24.019 C 18.350 23.972,18.832 23.759,19.270 23.328 C 20.300 22.314,20.389 20.882,19.491 19.780 C 19.238 19.470,18.745 19.123,18.373 18.992 C 18.066 18.885,17.242 18.832,16.890 18.897 M11.198 19.364 C 10.937 19.412,10.394 19.625,10.173 19.766 C 9.757 20.031,9.561 20.400,9.654 20.745 C 9.749 21.094,10.119 21.420,10.422 21.420 C 10.486 21.420,10.773 21.347,11.060 21.257 C 11.404 21.149,11.673 21.093,11.852 21.093 C 12.044 21.093,12.253 21.141,12.573 21.257 C 13.087 21.443,13.202 21.452,13.463 21.332 C 13.961 21.101,14.128 20.574,13.849 20.119 C 13.717 19.905,13.293 19.641,12.841 19.491 C 12.427 19.355,11.596 19.290,11.198 19.364 M6.370 20.632 C 6.626 20.703,6.888 20.985,6.930 21.234 C 7.014 21.728,6.814 22.097,6.387 22.239 C 5.996 22.369,5.625 22.236,5.425 21.894 C 5.172 21.463,5.314 20.910,5.736 20.688 C 5.965 20.568,6.095 20.556,6.370 20.632 M17.905 20.704 C 18.164 20.827,18.317 21.100,18.316 21.440 C 18.316 21.772,18.194 22.012,17.947 22.164 C 17.397 22.504,16.743 22.161,16.674 21.498 C 16.651 21.275,16.664 21.211,16.770 21.031 C 16.956 20.713,17.096 20.630,17.446 20.628 C 17.628 20.627,17.805 20.656,17.905 20.704 " fill="#1A1C1F" stroke="none" fill-rule="evenodd"></path></svg>