<svg width="20" height="20" viewBox="0 0 20 20" fill="none" xmlns="http://www.w3.org/2000/svg"><path d="M9.917 2.445 C 9.227 2.618,8.773 3.289,8.896 3.955 C 8.953 4.265,9.045 4.449,9.250 4.663 C 9.789 5.229,10.601 5.237,11.157 4.681 C 11.407 4.431,11.509 4.195,11.527 3.830 C 11.551 3.342,11.400 2.999,11.036 2.712 C 10.737 2.476,10.252 2.360,9.917 2.445 M9.733 6.233 C 9.540 6.292,7.751 7.121,7.092 7.455 C 6.859 7.574,6.638 7.710,6.600 7.757 C 6.494 7.893,6.411 8.218,6.263 9.083 C 6.099 10.045,6.081 10.417,6.189 10.619 C 6.365 10.946,6.750 11.145,7.061 11.068 C 7.255 11.021,7.545 10.827,7.630 10.688 C 7.722 10.537,7.785 10.294,7.901 9.633 C 7.957 9.313,8.011 9.017,8.021 8.976 C 8.035 8.922,8.159 8.843,8.504 8.668 C 8.759 8.539,8.992 8.433,9.020 8.433 C 9.062 8.433,9.069 8.459,9.054 8.558 C 9.043 8.627,8.987 9.283,8.929 10.017 L 8.824 11.350 7.767 13.467 C 7.185 14.631,6.592 15.830,6.450 16.130 L 6.191 16.678 6.229 16.843 C 6.326 17.262,6.579 17.519,6.957 17.582 C 7.144 17.613,7.433 17.528,7.581 17.397 C 7.743 17.255,7.855 17.052,8.925 14.958 C 9.447 13.936,9.885 13.100,9.898 13.100 C 9.912 13.100,10.208 13.370,10.557 13.701 L 11.192 14.302 11.368 14.792 C 12.239 17.224,12.219 17.174,12.373 17.313 C 12.592 17.511,12.837 17.613,13.038 17.589 C 13.394 17.547,13.685 17.294,13.789 16.936 C 13.837 16.770,13.837 16.740,13.785 16.553 C 13.724 16.335,13.146 14.701,12.847 13.902 L 12.665 13.417 12.191 12.939 C 11.665 12.409,10.809 11.594,10.643 11.466 L 10.536 11.383 10.651 10.083 C 10.714 9.368,10.766 8.750,10.766 8.708 C 10.767 8.667,10.779 8.633,10.794 8.633 C 10.810 8.633,11.179 8.852,11.616 9.119 C 12.696 9.779,12.832 9.847,13.083 9.847 C 13.566 9.847,13.954 9.393,13.887 8.907 C 13.840 8.564,13.776 8.492,13.153 8.084 C 12.556 7.693,10.861 6.629,10.514 6.427 C 10.215 6.253,9.912 6.177,9.733 6.233 " fill="#1A1C1F" stroke="none" fill-rule="evenodd"></path></svg>