<svg width="24" height="24" viewBox="0 0 24 24" fill="none" xmlns="http://www.w3.org/2000/svg"><path d="M11.339 2.110 C 11.017 2.225,10.790 2.378,10.531 2.654 C 9.742 3.498,9.776 4.637,10.613 5.426 C 11.435 6.202,12.537 6.183,13.340 5.380 C 13.858 4.862,14.062 4.209,13.900 3.585 C 13.743 2.985,13.341 2.491,12.786 2.218 C 12.485 2.070,12.454 2.064,12.006 2.051 C 11.634 2.040,11.499 2.052,11.339 2.110 M11.035 7.480 C 10.605 7.588,8.050 8.676,7.696 8.901 C 7.415 9.080,7.338 9.225,7.243 9.751 C 7.132 10.367,6.920 11.883,6.920 12.059 C 6.920 12.255,7.004 12.440,7.183 12.638 C 7.505 12.994,7.938 13.079,8.366 12.869 C 8.778 12.667,8.848 12.503,9.040 11.300 C 9.106 10.882,9.169 10.503,9.179 10.458 C 9.193 10.397,9.331 10.317,9.716 10.148 C 10.001 10.023,10.255 9.920,10.280 9.920 C 10.330 9.920,10.330 9.902,10.219 11.740 C 10.135 13.121,10.103 14.089,10.137 14.223 C 10.157 14.304,10.627 14.802,11.660 15.840 L 13.154 17.340 13.581 19.040 C 14.044 20.880,14.164 21.301,14.290 21.527 C 14.395 21.716,14.654 21.902,14.897 21.963 C 15.280 22.060,15.729 21.863,15.937 21.508 C 16.079 21.266,16.100 21.043,16.022 20.625 C 15.936 20.167,15.324 17.721,15.095 16.920 L 14.918 16.300 13.535 14.916 L 12.152 13.531 12.280 11.496 C 12.350 10.376,12.411 9.172,12.414 8.820 C 12.420 8.229,12.413 8.167,12.331 8.014 C 12.220 7.806,11.967 7.587,11.770 7.528 C 11.548 7.461,11.200 7.439,11.035 7.480 M14.061 9.662 C 13.866 9.736,13.661 9.927,13.548 10.140 C 13.438 10.348,13.428 10.874,13.530 11.065 C 13.642 11.275,13.932 11.494,14.489 11.792 C 15.336 12.245,15.884 12.480,16.094 12.480 C 16.417 12.480,16.959 12.094,17.039 11.807 C 17.101 11.583,17.086 11.278,17.005 11.100 C 16.891 10.849,16.673 10.687,15.920 10.292 C 14.679 9.642,14.381 9.541,14.061 9.662 M9.360 16.075 C 9.045 16.178,8.912 16.301,8.706 16.680 C 8.463 17.129,7.209 20.045,7.014 20.617 C 6.853 21.092,6.905 21.387,7.205 21.688 C 7.534 22.019,7.950 22.075,8.375 21.847 C 8.703 21.670,8.711 21.656,9.747 19.243 C 10.541 17.393,10.608 17.218,10.606 16.999 C 10.603 16.653,10.396 16.301,10.109 16.154 C 9.929 16.062,9.527 16.020,9.360 16.075 " fill="#1A1C1F" stroke="none" fill-rule="evenodd"></path></svg>