<svg width="16" height="16" viewBox="0 0 16 16" fill="none" xmlns="http://www.w3.org/2000/svg"><path d="M7.933 1.956 C 7.655 2.026,7.337 2.264,7.224 2.486 C 7.140 2.651,7.086 2.928,7.106 3.102 C 7.171 3.687,7.706 4.129,8.276 4.070 C 8.623 4.034,8.993 3.767,9.140 3.447 C 9.231 3.249,9.254 2.907,9.191 2.690 C 9.043 2.183,8.435 1.828,7.933 1.956 M7.760 4.997 C 7.479 5.100,5.711 5.928,5.485 6.064 C 5.192 6.238,5.178 6.277,4.998 7.360 C 4.879 8.076,4.868 8.338,4.951 8.493 C 5.079 8.730,5.281 8.854,5.539 8.853 C 5.776 8.852,6.028 8.712,6.122 8.529 C 6.174 8.429,6.249 8.121,6.319 7.720 C 6.350 7.544,6.388 7.337,6.403 7.261 L 6.430 7.122 6.805 6.934 C 7.012 6.831,7.198 6.747,7.219 6.747 C 7.249 6.747,7.254 6.770,7.243 6.847 C 7.235 6.902,7.190 7.427,7.144 8.013 L 7.060 9.080 6.213 10.773 C 5.249 12.703,4.960 13.304,4.960 13.380 C 4.960 13.497,5.055 13.716,5.154 13.829 C 5.428 14.140,5.822 14.156,6.105 13.869 C 6.230 13.742,6.212 13.776,7.369 11.530 C 7.862 10.571,7.906 10.496,7.963 10.528 C 7.986 10.541,8.217 10.750,8.477 10.993 L 8.949 11.434 9.264 12.310 C 9.750 13.663,9.777 13.725,9.929 13.872 C 10.150 14.085,10.410 14.131,10.665 14.001 C 10.820 13.922,10.951 13.773,11.015 13.603 C 11.063 13.476,11.067 13.433,11.044 13.319 C 11.015 13.170,10.764 12.447,10.384 11.414 L 10.134 10.734 9.740 10.338 C 9.326 9.922,8.695 9.321,8.528 9.186 L 8.430 9.106 8.525 8.013 C 8.577 7.412,8.623 6.916,8.628 6.911 C 8.640 6.897,8.720 6.944,9.336 7.322 C 10.137 7.813,10.267 7.877,10.467 7.877 C 10.720 7.878,10.958 7.721,11.069 7.480 C 11.171 7.262,11.111 6.933,10.941 6.769 C 10.736 6.571,8.370 5.083,8.160 5.020 C 7.996 4.970,7.856 4.962,7.760 4.997 " fill="#1A1C1F" stroke="none" fill-rule="evenodd"></path></svg>