<svg width="12" height="12" viewBox="0 0 12 12" fill="none" xmlns="http://www.w3.org/2000/svg"><path d="M5.860 1.396 C 5.578 1.490,5.341 1.730,5.257 2.007 C 5.207 2.169,5.213 2.392,5.271 2.540 C 5.363 2.777,5.578 2.991,5.814 3.081 C 6.332 3.279,6.898 2.936,7.001 2.362 C 7.023 2.241,7.022 2.203,6.993 2.087 C 6.908 1.745,6.703 1.507,6.415 1.417 C 6.234 1.360,5.994 1.351,5.860 1.396 M5.790 3.689 C 5.651 3.728,4.812 4.105,4.308 4.354 C 4.029 4.492,3.901 4.576,3.851 4.651 C 3.783 4.755,3.638 5.472,3.579 6.000 C 3.556 6.200,3.558 6.216,3.600 6.330 C 3.660 6.491,3.829 6.660,3.979 6.710 C 4.199 6.783,4.460 6.709,4.613 6.531 C 4.716 6.411,4.772 6.178,4.855 5.531 L 4.870 5.412 5.088 5.315 C 5.208 5.261,5.312 5.225,5.321 5.234 C 5.329 5.243,5.324 5.385,5.310 5.550 C 5.295 5.715,5.268 6.065,5.248 6.328 L 5.212 6.807 4.685 7.848 C 4.038 9.127,3.689 9.844,3.657 9.965 C 3.589 10.219,3.807 10.551,4.088 10.622 C 4.212 10.653,4.397 10.635,4.510 10.580 C 4.664 10.505,4.742 10.369,5.438 8.953 C 5.687 8.445,5.902 8.012,5.914 7.990 C 5.935 7.953,5.965 7.978,6.287 8.297 L 6.636 8.645 6.721 8.877 C 6.943 9.491,7.182 10.124,7.238 10.249 C 7.323 10.436,7.376 10.500,7.503 10.570 C 7.600 10.625,7.626 10.630,7.790 10.628 C 8.004 10.626,8.074 10.599,8.211 10.464 C 8.339 10.338,8.379 10.244,8.380 10.069 C 8.380 9.904,8.344 9.772,8.151 9.230 C 7.839 8.354,7.694 7.992,7.624 7.913 C 7.605 7.891,7.351 7.656,7.060 7.390 C 6.769 7.123,6.509 6.883,6.484 6.855 L 6.437 6.805 6.479 6.237 C 6.550 5.269,6.542 5.336,6.578 5.345 C 6.596 5.350,6.795 5.471,7.020 5.614 C 7.590 5.977,7.656 6.009,7.830 6.009 C 8.011 6.008,8.147 5.950,8.268 5.820 C 8.420 5.658,8.469 5.471,8.413 5.276 C 8.368 5.124,8.310 5.046,8.149 4.924 C 7.884 4.723,6.536 3.869,6.283 3.741 C 6.130 3.664,5.945 3.644,5.790 3.689 " fill="#1A1C1F" stroke="none" fill-rule="evenodd"></path></svg>