<svg width="14" height="14" viewBox="0 0 14 14" fill="none" xmlns="http://www.w3.org/2000/svg"><path d="M6.894 1.608 C 6.786 1.634,6.558 1.763,6.438 1.865 C 5.952 2.282,5.984 3.037,6.504 3.434 C 6.723 3.601,6.872 3.650,7.153 3.651 C 7.377 3.652,7.395 3.648,7.563 3.565 C 7.790 3.453,7.956 3.288,8.067 3.062 C 8.143 2.907,8.154 2.864,8.163 2.671 C 8.170 2.494,8.163 2.427,8.122 2.304 C 7.990 1.908,7.717 1.679,7.298 1.611 C 7.133 1.584,6.999 1.583,6.894 1.608 M6.697 4.325 C 6.407 4.429,4.989 5.080,4.752 5.217 C 4.462 5.386,4.437 5.439,4.306 6.160 C 4.184 6.824,4.144 7.182,4.177 7.306 C 4.236 7.532,4.425 7.751,4.627 7.828 C 4.710 7.860,4.778 7.867,4.913 7.858 C 5.073 7.848,5.103 7.838,5.223 7.754 C 5.384 7.641,5.495 7.484,5.529 7.319 C 5.543 7.252,5.584 6.997,5.619 6.755 L 5.684 6.313 5.937 6.200 C 6.076 6.138,6.198 6.096,6.207 6.106 C 6.217 6.116,6.211 6.283,6.195 6.475 C 6.178 6.668,6.146 7.076,6.123 7.382 L 6.081 7.939 5.442 9.202 C 4.694 10.679,4.305 11.481,4.266 11.628 C 4.188 11.920,4.446 12.315,4.763 12.391 C 4.919 12.428,5.129 12.408,5.264 12.342 C 5.350 12.301,5.396 12.253,5.489 12.112 C 5.583 11.969,6.476 10.198,6.825 9.464 C 6.896 9.314,6.915 9.290,6.949 9.308 C 6.970 9.320,7.158 9.502,7.366 9.711 L 7.743 10.092 8.004 10.803 C 8.487 12.121,8.521 12.192,8.723 12.313 C 9.024 12.492,9.426 12.419,9.644 12.145 C 9.744 12.020,9.777 11.918,9.777 11.736 C 9.777 11.542,9.714 11.335,9.344 10.313 C 9.065 9.545,8.975 9.319,8.919 9.255 C 8.896 9.230,8.595 8.950,8.248 8.633 C 7.902 8.316,7.594 8.030,7.564 7.997 L 7.509 7.937 7.559 7.265 C 7.587 6.894,7.615 6.510,7.623 6.411 C 7.632 6.295,7.647 6.230,7.665 6.230 C 7.680 6.230,7.886 6.354,8.122 6.506 C 8.887 6.997,8.989 7.045,9.207 7.015 C 9.457 6.981,9.731 6.775,9.801 6.568 C 9.875 6.349,9.818 6.057,9.665 5.879 C 9.490 5.674,7.385 4.347,7.148 4.292 C 7.000 4.257,6.857 4.268,6.697 4.325 " fill="#1A1C1F" stroke="none" fill-rule="evenodd"></path></svg>