<svg width="16" height="16" viewBox="0 0 16 16" fill="none" xmlns="http://www.w3.org/2000/svg"><path d="M7.879 1.837 C 7.722 1.877,7.453 2.042,7.305 2.187 C 6.950 2.536,6.867 3.034,7.087 3.500 C 7.435 4.241,8.396 4.418,8.974 3.849 C 9.145 3.681,9.295 3.389,9.331 3.153 C 9.416 2.604,9.060 2.036,8.534 1.882 C 8.363 1.832,7.995 1.806,7.879 1.837 M7.717 4.920 C 7.565 4.961,6.312 5.524,5.760 5.799 C 5.358 5.999,5.201 6.100,5.135 6.201 C 5.025 6.369,4.807 7.524,4.781 8.072 C 4.766 8.386,4.768 8.402,4.837 8.543 C 4.963 8.801,5.202 8.960,5.493 8.980 C 5.774 9.000,5.878 8.958,6.097 8.737 L 6.286 8.544 6.332 8.291 C 6.357 8.151,6.405 7.852,6.438 7.625 L 6.497 7.214 6.786 7.085 C 6.944 7.015,7.083 6.966,7.095 6.978 C 7.106 6.990,7.093 7.258,7.066 7.573 C 7.040 7.889,7.002 8.356,6.984 8.612 L 6.950 9.076 6.218 10.518 C 5.387 12.155,4.922 13.116,4.875 13.290 C 4.786 13.622,5.081 14.074,5.444 14.161 C 5.621 14.203,5.862 14.180,6.016 14.105 C 6.114 14.058,6.167 14.004,6.273 13.843 C 6.374 13.689,7.545 11.368,7.852 10.714 C 7.889 10.634,7.908 10.619,7.943 10.639 C 7.967 10.652,8.181 10.859,8.418 11.098 L 8.850 11.533 9.213 12.520 C 9.646 13.699,9.745 13.916,9.899 14.028 C 10.129 14.194,10.502 14.232,10.734 14.112 C 10.872 14.041,11.080 13.826,11.132 13.701 C 11.156 13.643,11.173 13.523,11.173 13.414 C 11.173 13.195,11.117 13.007,10.727 11.920 C 10.416 11.053,10.280 10.706,10.209 10.607 C 10.179 10.565,9.829 10.233,9.431 9.869 C 9.032 9.505,8.679 9.177,8.645 9.140 L 8.583 9.073 8.638 8.316 C 8.728 7.097,8.725 7.120,8.759 7.120 C 8.777 7.120,9.012 7.262,9.282 7.435 C 10.157 7.997,10.273 8.051,10.522 8.017 C 10.808 7.978,11.121 7.743,11.201 7.506 C 11.286 7.256,11.220 6.922,11.046 6.718 C 10.868 6.511,8.556 5.038,8.219 4.918 C 8.092 4.872,7.890 4.873,7.717 4.920 " fill="#1A1C1F" stroke="none" fill-rule="evenodd"></path></svg>