<svg width="32" height="32" viewBox="0 0 32 32" fill="none" xmlns="http://www.w3.org/2000/svg"><path d="M15.419 2.187 C 14.455 2.534,13.681 3.432,13.467 4.453 C 13.369 4.919,13.369 5.054,13.467 5.520 C 13.715 6.709,14.662 7.677,15.813 7.919 C 16.488 8.062,17.048 7.986,17.704 7.665 C 18.120 7.461,18.787 6.828,19.008 6.427 C 19.383 5.744,19.488 4.922,19.285 4.240 C 18.984 3.225,18.181 2.404,17.253 2.162 C 16.785 2.040,15.790 2.054,15.419 2.187 M16.840 4.166 C 17.636 4.552,17.500 5.742,16.634 5.975 C 15.900 6.173,15.246 5.377,15.549 4.654 C 15.659 4.389,15.773 4.270,16.027 4.154 C 16.308 4.024,16.555 4.028,16.840 4.166 M14.880 9.823 C 14.398 10.024,11.481 11.496,10.781 11.891 C 10.350 12.135,10.268 12.204,10.183 12.396 C 9.989 12.834,9.577 15.424,9.609 15.999 C 9.626 16.302,9.654 16.386,9.801 16.571 C 10.115 16.967,10.556 17.066,10.992 16.836 C 11.121 16.768,11.277 16.638,11.338 16.547 C 11.463 16.362,11.600 15.760,11.816 14.446 L 11.961 13.558 13.189 12.876 C 13.865 12.500,14.468 12.192,14.529 12.190 C 14.616 12.187,14.637 12.216,14.628 12.320 C 14.622 12.393,14.521 13.461,14.403 14.693 C 14.069 18.209,14.052 18.468,14.125 18.712 C 14.201 18.966,14.621 19.424,16.651 21.469 L 18.083 22.910 18.830 25.869 C 19.743 29.482,19.757 29.529,19.947 29.707 C 20.229 29.971,20.680 30.039,21.040 29.872 C 21.362 29.723,21.554 29.490,21.586 29.211 C 21.626 28.851,21.365 27.693,20.259 23.333 L 19.934 22.053 19.634 21.710 C 19.469 21.521,18.607 20.630,17.720 19.730 L 16.107 18.093 16.346 15.620 C 16.674 12.220,16.746 11.354,16.746 10.824 C 16.747 10.412,16.732 10.344,16.593 10.125 C 16.275 9.624,15.630 9.511,14.880 9.823 M18.115 11.971 C 17.573 12.164,17.345 12.728,17.598 13.250 C 17.656 13.369,17.968 13.746,18.291 14.088 L 18.879 14.709 19.879 15.212 C 21.314 15.934,21.678 16.041,22.060 15.860 C 22.477 15.662,22.716 15.177,22.609 14.750 C 22.517 14.387,22.238 14.171,21.132 13.604 C 20.213 13.134,20.124 13.074,19.585 12.572 C 19.271 12.278,18.936 12.006,18.842 11.966 C 18.627 11.875,18.379 11.877,18.115 11.971 M13.245 20.803 C 12.856 20.920,12.726 21.166,10.998 25.069 C 9.380 28.721,9.278 28.994,9.410 29.303 C 9.540 29.607,9.821 29.869,10.075 29.925 C 10.419 30.002,10.753 29.935,10.968 29.746 C 11.179 29.561,11.323 29.269,12.411 26.832 C 14.180 22.867,14.560 21.954,14.560 21.669 C 14.560 21.378,14.331 21.041,14.026 20.881 C 13.838 20.782,13.445 20.743,13.245 20.803 " fill="#1A1C1F" stroke="none" fill-rule="evenodd"></path></svg>