<svg width="14" height="14" viewBox="0 0 14 14" fill="none" xmlns="http://www.w3.org/2000/svg"><path d="M6.942 1.712 C 6.678 1.776,6.420 1.979,6.313 2.205 C 6.137 2.575,6.199 2.975,6.475 3.265 C 6.701 3.502,7.042 3.614,7.330 3.546 C 7.616 3.479,7.866 3.281,7.993 3.022 C 8.056 2.893,8.062 2.862,8.062 2.625 C 8.062 2.395,8.055 2.354,7.999 2.234 C 7.877 1.974,7.618 1.780,7.306 1.714 C 7.124 1.675,7.096 1.675,6.942 1.712 M6.825 4.363 C 6.731 4.385,6.241 4.607,5.425 4.996 C 4.606 5.388,4.583 5.406,4.507 5.730 C 4.409 6.149,4.287 6.918,4.284 7.128 C 4.281 7.360,4.308 7.438,4.442 7.580 C 4.672 7.825,5.006 7.816,5.271 7.560 C 5.388 7.446,5.432 7.306,5.531 6.743 C 5.570 6.519,5.608 6.312,5.615 6.283 C 5.625 6.244,5.709 6.190,5.956 6.067 C 6.136 5.977,6.298 5.903,6.317 5.903 C 6.343 5.903,6.348 5.924,6.338 5.991 C 6.330 6.039,6.291 6.498,6.251 7.012 L 6.177 7.945 5.425 9.450 C 4.578 11.144,4.340 11.640,4.340 11.710 C 4.340 11.802,4.439 12.023,4.522 12.115 C 4.771 12.390,5.170 12.372,5.394 12.076 C 5.440 12.014,5.628 11.674,5.811 11.319 C 6.978 9.057,6.911 9.180,6.968 9.212 C 6.988 9.223,7.190 9.406,7.418 9.619 L 7.831 10.005 8.107 10.772 C 8.552 12.012,8.552 12.012,8.684 12.138 C 8.880 12.324,9.109 12.364,9.332 12.251 C 9.468 12.181,9.583 12.051,9.638 11.903 C 9.680 11.791,9.684 11.754,9.664 11.654 C 9.638 11.524,9.418 10.891,9.086 9.987 L 8.867 9.393 8.558 9.081 C 8.201 8.721,7.560 8.111,7.450 8.026 L 7.376 7.968 7.459 7.012 C 7.505 6.486,7.546 6.052,7.549 6.047 C 7.560 6.035,7.630 6.076,8.169 6.406 C 8.870 6.837,8.984 6.893,9.158 6.893 C 9.583 6.893,9.854 6.428,9.660 6.033 C 9.601 5.913,9.515 5.851,8.658 5.306 C 7.204 4.382,7.062 4.309,6.825 4.363 " fill="#1A1C1F" stroke="none" fill-rule="evenodd"></path></svg>