<svg width="12" height="12" viewBox="0 0 12 12" fill="none" xmlns="http://www.w3.org/2000/svg"><path d="M5.950 1.468 C 5.812 1.501,5.657 1.589,5.549 1.696 C 5.441 1.803,5.395 1.887,5.349 2.061 C 5.240 2.480,5.508 2.915,5.950 3.033 C 6.299 3.126,6.693 2.929,6.858 2.580 C 6.904 2.482,6.910 2.445,6.910 2.250 C 6.910 2.053,6.904 2.018,6.856 1.915 C 6.752 1.692,6.530 1.525,6.263 1.469 C 6.107 1.436,6.082 1.436,5.950 1.468 M5.850 3.740 C 5.772 3.758,5.303 3.970,4.634 4.290 C 4.039 4.575,3.943 4.640,3.892 4.795 C 3.814 5.039,3.650 6.076,3.668 6.215 C 3.690 6.382,3.814 6.546,3.964 6.609 C 4.176 6.697,4.491 6.591,4.592 6.397 C 4.631 6.321,4.687 6.091,4.739 5.790 C 4.763 5.658,4.791 5.503,4.802 5.446 L 4.823 5.342 5.104 5.201 C 5.259 5.123,5.399 5.060,5.415 5.060 C 5.437 5.060,5.441 5.078,5.432 5.135 C 5.426 5.176,5.392 5.570,5.358 6.010 L 5.295 6.810 4.660 8.080 C 4.311 8.779,3.955 9.498,3.870 9.678 L 3.715 10.007 3.738 10.106 C 3.768 10.240,3.810 10.322,3.885 10.399 C 4.098 10.617,4.438 10.596,4.621 10.353 C 4.703 10.246,4.963 9.754,5.535 8.626 L 5.932 7.842 6.231 8.123 C 6.772 8.631,6.683 8.491,6.967 9.280 C 7.334 10.302,7.330 10.293,7.445 10.403 C 7.658 10.608,7.932 10.605,8.138 10.397 C 8.241 10.292,8.288 10.186,8.287 10.060 C 8.285 9.947,8.119 9.451,7.749 8.454 L 7.599 8.050 7.325 7.773 C 7.026 7.472,6.514 6.985,6.396 6.889 L 6.322 6.829 6.391 6.050 C 6.429 5.621,6.460 5.250,6.460 5.225 C 6.460 5.200,6.467 5.180,6.477 5.180 C 6.486 5.180,6.709 5.312,6.972 5.473 C 7.631 5.876,7.701 5.910,7.850 5.909 C 8.191 5.906,8.424 5.564,8.309 5.238 C 8.292 5.190,8.259 5.130,8.234 5.104 C 8.155 5.019,7.138 4.354,6.473 3.952 C 6.151 3.757,5.999 3.706,5.850 3.740 " fill="#1A1C1F" stroke="none" fill-rule="evenodd"></path></svg>