<svg width="20" height="20" viewBox="0 0 20 20" fill="none" xmlns="http://www.w3.org/2000/svg"><path d="M9.783 2.324 C 9.044 2.590,8.606 3.262,8.724 3.951 C 8.894 4.947,9.928 5.511,10.813 5.090 C 11.398 4.812,11.761 4.144,11.663 3.525 C 11.575 2.969,11.179 2.502,10.668 2.353 C 10.372 2.266,9.980 2.254,9.783 2.324 M9.600 6.162 C 9.309 6.261,7.867 6.916,7.167 7.266 C 6.656 7.523,6.494 7.632,6.401 7.782 C 6.273 7.988,5.965 9.678,5.956 10.217 C 5.952 10.438,5.965 10.512,6.033 10.649 C 6.206 11.001,6.554 11.232,6.913 11.233 C 7.236 11.234,7.357 11.180,7.620 10.918 L 7.858 10.683 7.914 10.367 C 7.946 10.192,8.004 9.818,8.045 9.535 L 8.118 9.019 8.480 8.858 C 8.679 8.769,8.854 8.708,8.869 8.723 C 8.884 8.738,8.875 8.975,8.851 9.250 C 8.826 9.525,8.780 10.102,8.749 10.533 L 8.691 11.317 7.433 13.833 C 6.741 15.217,6.148 16.437,6.114 16.543 C 6.062 16.709,6.059 16.762,6.093 16.922 C 6.170 17.291,6.472 17.621,6.805 17.701 C 7.025 17.754,7.327 17.725,7.517 17.633 C 7.774 17.509,7.903 17.282,9.063 14.921 C 9.479 14.075,9.836 13.353,9.857 13.317 C 9.892 13.255,9.942 13.296,10.478 13.829 L 11.061 14.408 11.201 14.796 C 11.579 15.842,12.019 17.005,12.106 17.190 C 12.279 17.557,12.546 17.713,13.000 17.712 C 13.338 17.711,13.458 17.663,13.685 17.439 C 13.902 17.226,13.965 17.075,13.966 16.767 C 13.966 16.549,13.940 16.440,13.770 15.933 C 13.344 14.667,12.872 13.414,12.761 13.259 C 12.724 13.207,12.286 12.791,11.788 12.336 C 11.291 11.881,10.848 11.471,10.805 11.424 L 10.727 11.339 10.799 10.378 C 10.838 9.849,10.879 9.300,10.890 9.158 C 10.903 8.987,10.924 8.900,10.951 8.900 C 10.974 8.900,11.215 9.044,11.488 9.221 C 12.163 9.657,12.589 9.911,12.759 9.978 C 13.062 10.096,13.444 10.010,13.716 9.761 C 13.955 9.543,14.045 9.349,14.047 9.049 C 14.049 8.741,13.935 8.500,13.684 8.276 C 13.429 8.049,10.968 6.491,10.470 6.242 C 10.166 6.090,9.889 6.064,9.600 6.162 " fill="#1A1C1F" stroke="none" fill-rule="evenodd"></path></svg>