<svg width="28" height="28" viewBox="0 0 28 28" fill="none" xmlns="http://www.w3.org/2000/svg"><path d="M13.777 1.963 C 13.219 2.073,12.438 2.710,12.156 3.285 C 11.802 4.006,11.813 4.811,12.185 5.510 C 12.353 5.824,12.833 6.317,13.148 6.498 C 13.687 6.808,14.335 6.922,14.840 6.795 C 15.958 6.514,16.748 5.624,16.832 4.550 C 16.926 3.343,16.009 2.153,14.839 1.963 C 14.490 1.906,14.064 1.906,13.777 1.963 M14.784 3.495 C 14.879 3.544,15.003 3.634,15.059 3.694 C 15.198 3.844,15.351 4.194,15.351 4.363 C 15.351 4.564,15.189 4.895,14.990 5.099 C 14.588 5.513,13.900 5.420,13.576 4.910 C 13.267 4.422,13.394 3.842,13.879 3.527 C 14.115 3.375,14.520 3.360,14.784 3.495 M13.161 8.611 C 12.368 9.002,9.617 10.469,9.303 10.668 C 9.090 10.802,9.054 10.849,8.991 11.068 C 8.820 11.670,8.493 13.541,8.493 13.918 C 8.493 14.345,8.700 14.608,9.094 14.683 C 9.299 14.721,9.608 14.575,9.769 14.364 C 9.889 14.207,10.014 13.683,10.266 12.287 L 10.369 11.718 11.620 11.086 C 12.308 10.738,12.894 10.453,12.922 10.453 C 12.955 10.453,12.964 10.546,12.948 10.722 C 12.934 10.869,12.831 11.967,12.717 13.160 C 12.436 16.112,12.434 16.136,12.518 16.334 C 12.631 16.605,13.016 17.032,14.502 18.532 L 15.917 19.961 16.477 22.149 C 17.009 24.223,17.341 25.446,17.446 25.720 C 17.502 25.864,17.689 26.005,17.926 26.082 C 18.146 26.153,18.419 26.051,18.619 25.824 C 18.813 25.603,18.805 25.428,18.547 24.319 C 18.292 23.222,17.608 20.491,17.400 19.740 L 17.252 19.203 15.601 17.543 L 13.951 15.882 14.161 13.880 C 14.515 10.502,14.607 9.525,14.607 9.116 C 14.607 8.758,14.596 8.712,14.490 8.605 C 14.355 8.471,14.023 8.309,13.878 8.308 C 13.823 8.307,13.501 8.444,13.161 8.611 M15.778 10.551 C 15.571 10.677,15.467 10.809,15.401 11.030 C 15.353 11.190,15.359 11.234,15.467 11.450 C 15.532 11.582,15.794 11.921,16.048 12.203 L 16.509 12.717 17.506 13.217 C 18.629 13.779,18.832 13.848,19.135 13.766 C 19.486 13.672,19.737 13.291,19.673 12.949 C 19.627 12.703,19.327 12.482,18.382 11.996 C 17.565 11.577,17.500 11.534,17.049 11.101 C 16.378 10.457,16.117 10.344,15.778 10.551 M11.573 18.379 C 11.269 18.539,11.188 18.700,9.499 22.540 C 8.361 25.126,8.290 25.305,8.326 25.500 C 8.369 25.726,8.592 25.970,8.843 26.066 C 9.241 26.218,9.519 26.039,9.819 25.442 C 10.084 24.912,11.980 20.645,12.310 19.833 C 12.634 19.037,12.655 18.800,12.422 18.559 C 12.276 18.408,12.018 18.293,11.824 18.293 C 11.775 18.293,11.662 18.332,11.573 18.379 " fill="#1A1C1F" stroke="none" fill-rule="evenodd"></path></svg>