<svg width="28" height="28" viewBox="0 0 28 28" fill="none" xmlns="http://www.w3.org/2000/svg"><path d="M13.505 1.909 C 12.644 2.219,11.973 2.994,11.784 3.897 C 11.698 4.304,11.698 4.422,11.783 4.830 C 12.001 5.870,12.829 6.717,13.837 6.929 C 14.252 7.017,14.507 7.017,14.884 6.928 C 15.659 6.745,16.360 6.179,16.703 5.457 C 17.080 4.665,17.056 3.935,16.627 3.115 C 16.339 2.565,15.689 2.046,15.096 1.892 C 14.696 1.788,13.816 1.797,13.505 1.909 M14.751 3.655 C 15.000 3.786,15.152 3.998,15.192 4.269 C 15.237 4.569,15.180 4.745,14.964 4.969 C 14.618 5.329,14.147 5.351,13.810 5.023 C 13.537 4.758,13.463 4.412,13.605 4.072 C 13.702 3.840,13.801 3.736,14.023 3.634 C 14.276 3.519,14.504 3.525,14.751 3.655 M13.183 8.529 C 12.918 8.617,10.095 10.028,9.433 10.404 C 9.057 10.617,8.984 10.679,8.910 10.846 C 8.740 11.230,8.379 13.496,8.408 13.999 C 8.423 14.264,8.447 14.337,8.576 14.499 C 8.851 14.846,9.237 14.932,9.618 14.732 C 9.731 14.672,9.867 14.558,9.921 14.479 C 10.031 14.317,10.150 13.790,10.339 12.640 L 10.466 11.863 11.523 11.276 C 12.104 10.953,12.631 10.683,12.694 10.676 C 12.832 10.661,12.840 10.431,12.626 12.623 C 12.377 15.165,12.303 16.111,12.338 16.300 C 12.385 16.548,12.637 16.832,14.335 18.551 L 15.828 20.062 16.472 22.619 C 17.282 25.834,17.294 25.876,17.463 26.017 C 17.825 26.322,18.387 26.275,18.730 25.909 C 19.012 25.609,18.994 25.498,18.076 21.819 L 17.448 19.301 17.189 19.006 C 17.047 18.844,16.293 18.064,15.513 17.272 L 14.096 15.833 14.302 13.668 C 14.719 9.287,14.723 9.204,14.532 8.878 C 14.305 8.491,13.741 8.345,13.183 8.529 M15.851 10.475 C 15.346 10.655,15.153 11.219,15.441 11.673 C 15.635 11.979,16.374 12.708,16.716 12.930 C 17.164 13.222,18.451 13.847,18.733 13.910 C 19.091 13.990,19.291 13.938,19.525 13.704 C 19.895 13.334,19.912 12.865,19.568 12.530 C 19.469 12.434,19.034 12.181,18.523 11.922 C 17.689 11.498,17.625 11.455,17.143 11.005 C 16.864 10.746,16.569 10.505,16.486 10.470 C 16.298 10.391,16.082 10.392,15.851 10.475 M11.628 18.203 C 11.263 18.282,11.168 18.454,9.800 21.537 C 8.755 23.891,8.333 24.884,8.237 25.217 C 8.149 25.519,8.192 25.666,8.453 25.961 C 8.635 26.167,8.899 26.248,9.229 26.199 C 9.536 26.153,9.709 25.973,9.977 25.420 C 10.344 24.667,12.580 19.610,12.698 19.269 L 12.805 18.961 12.676 18.697 C 12.579 18.500,12.497 18.405,12.352 18.322 C 12.133 18.197,11.860 18.152,11.628 18.203 " fill="#1A1C1F" stroke="none" fill-rule="evenodd"></path></svg>