<svg width="12" height="12" viewBox="0 0 12 12" fill="none" xmlns="http://www.w3.org/2000/svg"><path d="M7.627 2.440 C 7.407 2.486,7.275 2.635,7.218 2.899 C 7.174 3.106,7.290 3.360,7.490 3.493 C 7.623 3.581,7.708 3.592,8.389 3.610 C 8.663 3.617,8.903 3.631,8.921 3.641 C 8.969 3.666,8.977 3.760,8.992 4.494 L 9.006 5.138 7.979 6.179 L 6.952 7.220 6.709 7.220 L 6.466 7.220 6.381 6.895 C 6.027 5.540,5.677 4.257,5.536 3.800 L 5.452 3.530 5.271 3.350 C 5.136 3.215,5.055 3.153,4.951 3.103 C 4.816 3.038,4.799 3.035,4.451 3.014 C 3.949 2.985,2.816 3.018,2.730 3.064 C 2.652 3.106,2.466 3.302,2.437 3.374 C 2.403 3.457,2.409 3.736,2.446 3.824 C 2.489 3.926,2.630 4.073,2.750 4.142 L 2.850 4.200 3.432 4.200 C 3.752 4.200,4.108 4.206,4.223 4.213 L 4.433 4.226 4.496 4.478 C 4.531 4.617,4.560 4.744,4.560 4.762 C 4.560 4.805,4.436 4.819,4.070 4.821 C 3.916 4.821,3.596 4.829,3.359 4.839 C 2.954 4.855,2.916 4.860,2.744 4.918 C 1.894 5.202,1.289 5.944,1.219 6.786 C 1.209 6.909,1.201 7.217,1.200 7.471 C 1.200 7.926,1.201 7.934,1.251 8.035 C 1.317 8.168,1.429 8.281,1.550 8.340 C 1.639 8.383,1.680 8.388,2.021 8.396 L 2.395 8.405 2.407 8.506 C 2.425 8.659,2.514 8.904,2.598 9.034 C 2.848 9.419,3.351 9.652,3.776 9.581 C 4.033 9.537,4.362 9.339,4.537 9.121 C 4.660 8.968,4.800 8.622,4.800 8.471 L 4.800 8.405 6.095 8.396 C 7.266 8.387,7.396 8.383,7.456 8.352 C 7.587 8.284,9.904 5.952,10.105 5.686 L 10.190 5.573 10.188 4.541 L 10.187 3.510 10.124 3.350 C 9.962 2.940,9.641 2.620,9.250 2.478 C 9.137 2.437,9.091 2.434,8.420 2.428 C 8.030 2.425,7.672 2.430,7.627 2.440 M4.481 6.013 L 4.912 6.026 5.062 6.608 C 5.209 7.175,5.212 7.190,5.172 7.203 C 5.149 7.210,4.516 7.217,3.765 7.218 L 2.400 7.220 2.401 7.115 C 2.402 6.900,2.438 6.720,2.504 6.593 C 2.600 6.410,2.814 6.204,3.007 6.109 C 3.150 6.039,3.184 6.031,3.377 6.019 C 3.693 6.000,4.000 5.999,4.481 6.013 M9.210 7.270 C 8.919 7.373,8.658 7.610,8.528 7.890 C 8.460 8.037,8.400 8.285,8.400 8.414 C 8.401 8.546,8.457 8.764,8.531 8.919 C 8.621 9.109,8.888 9.383,9.064 9.466 C 9.385 9.618,9.815 9.618,10.136 9.466 C 10.312 9.383,10.579 9.109,10.669 8.919 C 10.840 8.558,10.838 8.226,10.661 7.868 C 10.517 7.576,10.219 7.331,9.909 7.251 C 9.837 7.232,9.706 7.220,9.571 7.220 C 9.388 7.221,9.326 7.229,9.210 7.270 " fill="#1A1C1F" stroke="none" fill-rule="evenodd"></path></svg>