<svg width="20" height="20" viewBox="0 0 20 20" fill="none" xmlns="http://www.w3.org/2000/svg"><path d="M12.847 4.064 C 12.630 4.080,12.551 4.101,12.442 4.174 C 11.809 4.593,11.911 5.557,12.625 5.904 C 12.754 5.967,12.861 5.976,13.775 6.004 C 14.330 6.021,14.815 6.048,14.853 6.064 C 14.950 6.105,14.960 6.202,14.987 7.474 L 15.010 8.562 13.299 10.298 L 11.587 12.033 11.182 12.033 L 10.777 12.033 10.636 11.492 C 10.070 9.324,9.458 7.084,9.226 6.333 L 9.087 5.883 8.802 5.598 C 8.290 5.086,8.145 5.038,7.033 5.012 C 6.055 4.990,4.683 5.038,4.567 5.098 C 4.521 5.122,4.397 5.225,4.291 5.329 C 4.082 5.532,4.000 5.718,4.000 5.988 C 4.000 6.327,4.243 6.709,4.583 6.903 L 4.750 6.999 5.720 7.000 C 6.253 7.000,6.847 7.010,7.040 7.021 L 7.390 7.043 7.495 7.463 C 7.553 7.694,7.600 7.908,7.600 7.939 C 7.600 8.013,7.436 8.026,6.200 8.052 C 5.026 8.076,4.826 8.097,4.438 8.243 C 3.439 8.618,2.628 9.403,2.263 10.349 C 2.045 10.913,2.030 11.021,2.009 12.156 L 1.990 13.196 2.079 13.378 C 2.193 13.611,2.397 13.821,2.595 13.909 C 2.729 13.968,2.836 13.980,3.371 13.993 L 3.992 14.009 4.012 14.176 C 4.042 14.431,4.189 14.840,4.329 15.056 C 4.576 15.438,5.003 15.756,5.483 15.916 C 5.681 15.982,6.207 15.990,6.452 15.931 C 6.975 15.805,7.511 15.371,7.766 14.867 C 7.882 14.637,8.000 14.261,8.000 14.118 L 8.000 14.009 10.158 13.993 C 12.141 13.979,12.326 13.972,12.433 13.918 C 12.559 13.854,16.003 10.421,16.547 9.817 C 17.047 9.262,17.010 9.449,16.991 7.537 C 16.974 5.770,16.971 5.737,16.771 5.341 C 16.528 4.862,16.133 4.470,15.647 4.229 C 15.414 4.113,15.334 4.091,15.047 4.065 C 14.690 4.033,13.285 4.033,12.847 4.064 M7.468 10.022 L 8.187 10.044 8.437 11.013 C 8.682 11.958,8.687 11.984,8.619 12.005 C 8.581 12.017,7.526 12.028,6.275 12.030 L 4.000 12.033 4.000 11.891 C 4.000 11.549,4.070 11.186,4.176 10.984 C 4.328 10.693,4.697 10.338,5.005 10.186 C 5.223 10.078,5.298 10.059,5.602 10.036 C 6.073 10.000,6.611 9.996,7.468 10.022 M15.672 12.037 C 14.936 12.149,14.310 12.718,14.080 13.485 C 13.997 13.760,13.998 14.286,14.081 14.533 C 14.192 14.865,14.332 15.098,14.564 15.343 C 14.980 15.779,15.393 15.965,15.950 15.965 C 16.583 15.966,16.950 15.818,17.387 15.385 C 17.716 15.057,17.911 14.697,17.970 14.303 C 18.116 13.330,17.495 12.369,16.540 12.088 C 16.305 12.019,15.933 11.997,15.672 12.037 " fill="#1A1C1F" stroke="none" fill-rule="evenodd"></path></svg>