<svg width="20" height="20" viewBox="0 0 20 20" fill="none" xmlns="http://www.w3.org/2000/svg"><path d="M12.767 4.130 C 12.622 4.143,12.517 4.174,12.450 4.222 C 11.971 4.567,11.899 5.091,12.271 5.514 C 12.476 5.746,12.572 5.765,13.752 5.800 C 14.303 5.817,14.794 5.845,14.842 5.864 C 15.027 5.934,15.036 5.992,15.055 7.344 L 15.074 8.583 13.311 10.343 L 11.548 12.102 11.051 12.093 L 10.553 12.083 9.979 10.183 C 9.663 9.138,9.289 7.933,9.149 7.506 L 8.893 6.728 8.691 6.512 C 8.578 6.391,8.372 6.225,8.221 6.132 L 7.953 5.967 6.279 5.967 L 4.605 5.967 4.461 6.076 C 4.293 6.204,4.114 6.484,4.083 6.668 C 4.049 6.871,4.141 7.131,4.316 7.325 C 4.583 7.623,4.528 7.613,6.074 7.628 L 7.430 7.640 7.464 7.745 C 7.515 7.906,7.867 9.072,7.867 9.081 C 7.867 9.086,7.218 9.100,6.425 9.112 C 5.396 9.128,4.920 9.148,4.762 9.182 C 3.873 9.369,2.899 10.159,2.457 11.050 C 2.231 11.506,2.113 11.976,2.079 12.550 C 2.048 13.085,2.090 13.249,2.322 13.500 C 2.439 13.626,2.550 13.712,2.628 13.736 C 2.695 13.757,3.084 13.782,3.492 13.791 L 4.233 13.808 4.233 14.114 C 4.233 14.659,4.391 15.053,4.747 15.394 C 5.088 15.722,5.523 15.900,5.984 15.900 C 6.448 15.900,6.860 15.715,7.236 15.337 C 7.616 14.956,7.731 14.671,7.733 14.108 L 7.733 13.800 9.858 13.799 C 11.027 13.799,12.040 13.785,12.109 13.769 C 12.193 13.750,12.322 13.663,12.492 13.512 C 12.972 13.085,16.551 9.484,16.659 9.319 L 16.767 9.155 16.767 7.529 L 16.767 5.902 16.667 5.630 C 16.476 5.105,16.221 4.747,15.851 4.483 C 15.452 4.198,15.343 4.166,14.675 4.132 C 14.034 4.099,13.113 4.099,12.767 4.130 M15.833 12.469 C 15.513 12.526,15.251 12.674,14.963 12.963 C 14.647 13.278,14.518 13.525,14.459 13.927 C 14.364 14.581,14.662 15.247,15.212 15.612 C 15.468 15.782,15.843 15.900,16.125 15.900 C 16.673 15.900,16.994 15.771,17.370 15.400 C 17.668 15.106,17.807 14.849,17.892 14.441 C 17.945 14.184,17.945 14.150,17.893 13.897 C 17.755 13.233,17.363 12.769,16.748 12.546 C 16.500 12.456,16.100 12.422,15.833 12.469 " fill="#1A1C1F" stroke="none" fill-rule="evenodd"></path></svg>