<svg width="16" height="16" viewBox="0 0 16 16" fill="none" xmlns="http://www.w3.org/2000/svg"><path d="M10.183 3.251 C 9.771 3.309,9.506 3.827,9.665 4.265 C 9.745 4.486,9.952 4.689,10.157 4.747 C 10.210 4.762,10.595 4.786,11.013 4.801 C 11.431 4.816,11.811 4.841,11.857 4.855 C 11.909 4.872,11.947 4.905,11.956 4.941 C 11.964 4.974,11.979 5.416,11.989 5.925 L 12.008 6.850 10.639 8.238 L 9.269 9.627 8.942 9.627 L 8.615 9.627 8.590 9.527 C 8.256 8.225,7.482 5.351,7.385 5.053 C 7.302 4.796,7.259 4.706,7.168 4.599 C 6.995 4.396,6.780 4.220,6.588 4.126 L 6.415 4.040 5.108 4.032 C 3.621 4.023,3.672 4.017,3.447 4.239 C 3.261 4.422,3.217 4.527,3.218 4.787 C 3.219 4.917,3.236 5.038,3.261 5.098 C 3.319 5.234,3.506 5.431,3.666 5.523 L 3.800 5.599 4.616 5.600 C 5.065 5.600,5.540 5.608,5.672 5.617 L 5.912 5.634 5.996 5.970 C 6.042 6.155,6.080 6.326,6.080 6.350 C 6.080 6.408,5.929 6.426,5.430 6.428 C 5.208 6.428,4.774 6.439,4.464 6.452 C 3.937 6.474,3.886 6.481,3.651 6.559 C 2.529 6.934,1.718 7.931,1.626 9.048 C 1.612 9.212,1.601 9.623,1.600 9.961 C 1.600 10.568,1.601 10.578,1.668 10.713 C 1.757 10.890,1.905 11.042,2.067 11.120 C 2.185 11.177,2.240 11.184,2.695 11.195 L 3.193 11.207 3.209 11.341 C 3.218 11.415,3.256 11.569,3.294 11.683 C 3.511 12.334,4.134 12.785,4.813 12.783 C 5.502 12.781,6.123 12.287,6.344 11.564 C 6.375 11.463,6.400 11.342,6.400 11.294 L 6.400 11.208 8.127 11.194 C 9.707 11.182,9.862 11.177,9.947 11.134 C 10.046 11.084,12.725 8.414,13.207 7.885 C 13.365 7.711,13.515 7.532,13.540 7.485 C 13.582 7.409,13.588 7.287,13.595 6.333 C 13.605 5.105,13.579 4.674,13.482 4.417 C 13.253 3.808,12.651 3.314,12.062 3.252 C 11.801 3.225,10.377 3.224,10.183 3.251 M6.030 8.017 L 6.550 8.035 6.750 8.811 C 6.944 9.564,6.948 9.587,6.895 9.604 C 6.865 9.614,6.021 9.623,5.020 9.624 L 3.200 9.627 3.200 9.513 C 3.200 9.239,3.256 8.948,3.341 8.787 C 3.462 8.555,3.757 8.271,4.003 8.149 C 4.181 8.061,4.231 8.049,4.507 8.030 C 4.916 8.000,5.402 7.996,6.030 8.017 M12.288 9.689 C 11.566 9.950,11.112 10.697,11.224 11.441 C 11.273 11.765,11.425 12.045,11.704 12.320 C 12.046 12.658,12.325 12.773,12.800 12.773 C 13.252 12.773,13.544 12.659,13.865 12.356 C 14.087 12.147,14.212 11.961,14.314 11.686 C 14.369 11.539,14.381 11.456,14.383 11.227 C 14.389 10.569,14.067 10.063,13.443 9.752 L 13.218 9.641 12.843 9.633 C 12.501 9.626,12.451 9.631,12.288 9.689 " fill="#1A1C1F" stroke="none" fill-rule="evenodd"></path></svg>