<svg width="16" height="16" viewBox="0 0 16 16" fill="none" xmlns="http://www.w3.org/2000/svg"><path d="M10.208 3.306 C 10.004 3.327,9.878 3.397,9.770 3.552 C 9.568 3.841,9.584 4.148,9.813 4.409 C 9.983 4.602,10.022 4.610,11.000 4.639 C 11.440 4.652,11.834 4.676,11.875 4.691 C 12.019 4.746,12.029 4.817,12.045 5.890 L 12.059 6.867 10.649 8.274 L 9.238 9.681 8.841 9.674 L 8.443 9.667 7.983 8.147 C 7.730 7.311,7.431 6.347,7.319 6.005 L 7.114 5.382 6.953 5.210 C 6.862 5.113,6.698 4.980,6.577 4.905 L 6.362 4.773 5.040 4.773 L 3.717 4.773 3.593 4.852 C 3.525 4.895,3.433 4.980,3.389 5.041 C 3.196 5.307,3.227 5.624,3.472 5.883 C 3.552 5.968,3.647 6.039,3.704 6.056 C 3.766 6.076,4.183 6.091,4.872 6.100 L 5.944 6.112 6.024 6.370 C 6.198 6.930,6.276 7.226,6.256 7.246 C 6.245 7.257,5.808 7.275,5.284 7.284 C 4.018 7.308,3.852 7.319,3.604 7.402 C 2.667 7.715,1.929 8.559,1.717 9.560 C 1.658 9.835,1.639 10.334,1.679 10.504 C 1.721 10.679,1.951 10.942,2.102 10.989 C 2.156 11.006,2.467 11.025,2.793 11.033 L 3.387 11.046 3.387 11.291 C 3.387 11.727,3.513 12.042,3.797 12.315 C 4.071 12.578,4.419 12.720,4.787 12.720 C 5.158 12.720,5.488 12.572,5.789 12.270 C 6.093 11.965,6.185 11.736,6.186 11.287 L 6.187 11.040 7.887 11.039 C 8.822 11.039,9.632 11.028,9.687 11.015 C 9.754 11.000,9.857 10.930,9.993 10.809 C 10.378 10.468,13.241 7.587,13.327 7.455 L 13.413 7.324 13.413 6.023 L 13.413 4.722 13.334 4.504 C 13.181 4.084,12.977 3.798,12.681 3.586 C 12.362 3.359,12.275 3.333,11.740 3.306 C 11.205 3.278,10.475 3.279,10.208 3.306 M12.667 9.975 C 12.301 10.038,11.868 10.374,11.693 10.730 C 11.443 11.238,11.541 11.872,11.932 12.272 C 12.210 12.558,12.474 12.685,12.845 12.713 C 13.377 12.753,13.931 12.454,14.158 12.004 C 14.249 11.824,14.347 11.476,14.347 11.333 C 14.347 11.217,14.255 10.857,14.186 10.699 C 14.124 10.559,13.878 10.296,13.701 10.183 C 13.413 9.998,13.006 9.916,12.667 9.975 " fill="#1A1C1F" stroke="none" fill-rule="evenodd"></path></svg>