<svg width="32" height="32" viewBox="0 0 32 32" fill="none" xmlns="http://www.w3.org/2000/svg"><path d="M19.537 6.664 C 19.230 6.803,18.972 7.235,19.004 7.556 C 19.031 7.829,19.202 8.116,19.453 8.307 C 19.663 8.467,19.616 8.463,22.373 8.574 C 23.544 8.622,23.654 8.652,23.821 8.974 C 23.947 9.218,23.997 9.964,23.999 11.616 L 24.000 13.126 21.267 16.323 L 18.533 19.519 17.143 19.520 L 15.752 19.520 15.606 19.027 C 14.825 16.390,13.163 11.018,13.010 10.635 C 12.881 10.314,12.575 10.000,12.136 9.737 L 11.820 9.547 9.295 9.547 C 6.497 9.547,6.544 9.541,6.254 9.893 C 5.907 10.314,5.948 10.861,6.355 11.235 C 6.580 11.442,6.839 11.469,9.064 11.522 C 10.251 11.551,11.239 11.592,11.260 11.614 C 11.308 11.664,11.787 13.243,11.787 13.352 C 11.787 13.473,11.584 13.486,8.987 13.520 C 7.696 13.538,6.425 13.576,6.162 13.604 C 4.973 13.735,3.606 14.626,2.848 15.766 C 2.155 16.808,1.944 17.769,1.981 19.719 L 2.000 20.728 2.160 20.986 C 2.399 21.371,2.606 21.457,3.364 21.484 L 3.986 21.506 4.016 21.860 C 4.051 22.277,4.306 23.035,4.572 23.515 C 4.798 23.923,5.507 24.639,5.945 24.903 C 6.358 25.151,7.000 25.370,7.542 25.448 C 8.356 25.566,9.427 25.334,10.080 24.899 C 10.253 24.783,10.597 24.486,10.845 24.238 C 11.477 23.605,11.834 22.870,11.963 21.933 L 12.024 21.493 15.685 21.493 L 19.346 21.493 19.741 21.080 C 20.538 20.245,23.882 16.371,25.246 14.701 C 25.555 14.324,25.850 13.928,25.903 13.821 C 25.992 13.642,26.000 13.442,25.999 11.360 C 25.998 9.174,25.994 9.080,25.881 8.720 C 25.553 7.677,24.628 6.789,23.686 6.614 C 23.528 6.584,22.580 6.561,21.579 6.561 C 19.907 6.562,19.742 6.571,19.537 6.664 M13.037 17.466 C 13.357 18.536,13.601 19.430,13.578 19.453 C 13.556 19.475,11.392 19.501,8.769 19.509 L 4.000 19.525 4.001 19.163 C 4.004 18.591,4.094 17.800,4.190 17.518 C 4.453 16.743,5.191 15.992,5.975 15.702 C 6.297 15.582,7.332 15.540,10.161 15.529 L 12.455 15.520 13.037 17.466 M25.067 17.619 C 23.667 18.046,22.787 18.832,22.279 20.109 C 22.069 20.638,22.006 21.055,22.044 21.675 C 22.082 22.288,22.274 23.035,22.491 23.413 C 23.303 24.827,24.968 25.667,26.515 25.442 C 29.025 25.078,30.551 22.631,29.757 20.246 C 29.490 19.443,28.970 18.722,28.355 18.299 C 28.033 18.079,27.431 17.785,27.096 17.686 C 26.687 17.564,25.387 17.522,25.067 17.619 M26.760 19.691 C 27.156 19.837,27.573 20.236,27.765 20.651 C 27.904 20.951,27.920 21.043,27.919 21.520 C 27.919 22.178,27.812 22.432,27.336 22.911 C 26.931 23.318,26.552 23.480,26.000 23.480 C 25.469 23.480,25.092 23.324,24.670 22.928 C 24.200 22.489,24.092 22.224,24.085 21.493 C 24.081 21.004,24.096 20.901,24.208 20.673 C 24.357 20.371,24.852 19.845,25.115 19.709 C 25.513 19.504,26.234 19.496,26.760 19.691 M9.973 21.589 C 9.973 21.808,9.797 22.337,9.644 22.575 C 9.231 23.219,8.382 23.606,7.695 23.465 C 6.840 23.288,6.171 22.589,6.051 21.747 L 6.015 21.493 7.994 21.493 C 9.860 21.493,9.973 21.499,9.973 21.589 " fill="#1A1C1F" stroke="none" fill-rule="evenodd"></path></svg>