<svg width="14" height="14" viewBox="0 0 14 14" fill="none" xmlns="http://www.w3.org/2000/svg"><path d="M8.934 2.891 C 8.772 2.906,8.751 2.917,8.593 3.066 C 8.345 3.299,8.380 3.716,8.664 3.923 C 8.718 3.963,8.788 4.005,8.820 4.018 C 8.852 4.030,9.204 4.049,9.602 4.060 C 10.000 4.071,10.353 4.091,10.388 4.104 C 10.519 4.154,10.525 4.193,10.539 5.141 L 10.552 6.008 9.318 7.240 L 8.084 8.471 7.735 8.465 L 7.387 8.458 6.985 7.128 C 6.517 5.583,6.293 4.884,6.218 4.737 C 6.146 4.596,5.954 4.414,5.741 4.283 L 5.567 4.177 4.451 4.177 C 3.706 4.177,3.300 4.185,3.231 4.203 C 3.114 4.232,2.998 4.344,2.914 4.508 C 2.855 4.624,2.846 4.797,2.892 4.934 C 2.934 5.057,3.133 5.266,3.241 5.299 C 3.295 5.316,3.660 5.330,4.263 5.337 L 5.201 5.348 5.271 5.573 C 5.423 6.064,5.492 6.323,5.474 6.340 C 5.464 6.350,5.076 6.365,4.612 6.374 C 3.519 6.394,3.370 6.404,3.152 6.477 C 2.334 6.750,1.688 7.490,1.502 8.365 C 1.451 8.606,1.434 9.042,1.469 9.191 C 1.506 9.345,1.707 9.575,1.840 9.615 C 1.887 9.629,2.159 9.647,2.444 9.654 L 2.963 9.666 2.964 9.867 C 2.964 10.260,3.075 10.538,3.326 10.779 C 3.561 11.005,3.873 11.130,4.200 11.129 C 4.522 11.129,4.841 10.978,5.098 10.707 C 5.329 10.462,5.413 10.235,5.413 9.857 L 5.413 9.660 6.901 9.659 C 7.719 9.659,8.428 9.650,8.476 9.638 C 8.535 9.625,8.625 9.564,8.744 9.458 C 9.081 9.159,11.586 6.639,11.661 6.523 L 11.737 6.409 11.737 5.270 L 11.737 4.131 11.667 3.941 C 11.494 3.468,11.223 3.159,10.816 2.972 C 10.698 2.918,10.640 2.909,10.294 2.892 C 9.863 2.870,9.172 2.870,8.934 2.891 M11.083 8.729 C 10.859 8.768,10.676 8.872,10.474 9.074 C 10.257 9.290,10.165 9.464,10.123 9.736 C 10.052 10.195,10.262 10.672,10.649 10.929 C 10.822 11.044,11.091 11.130,11.274 11.130 C 11.670 11.129,11.895 11.040,12.159 10.780 C 12.359 10.583,12.459 10.405,12.520 10.138 C 12.624 9.687,12.405 9.184,11.986 8.911 C 11.736 8.748,11.380 8.677,11.083 8.729 " fill="#1A1C1F" stroke="none" fill-rule="evenodd"></path></svg>