<svg width="24" height="24" viewBox="0 0 24 24" fill="none" xmlns="http://www.w3.org/2000/svg"><path d="M14.740 5.038 C 14.321 5.071,14.110 5.162,13.924 5.388 C 13.495 5.909,13.665 6.607,14.300 6.929 C 14.397 6.978,14.656 6.994,15.633 7.010 C 16.420 7.022,16.860 7.044,16.888 7.072 C 16.957 7.141,16.995 7.707,16.997 8.700 L 17.000 9.620 15.016 11.800 L 13.032 13.980 12.542 13.991 C 12.180 13.999,12.041 13.989,12.012 13.951 C 11.990 13.923,11.860 13.486,11.723 12.980 C 10.910 9.976,10.364 8.084,10.240 7.839 C 10.143 7.651,9.815 7.360,9.519 7.203 L 9.293 7.082 7.528 7.055 L 5.763 7.027 5.592 7.139 C 5.225 7.377,5.060 7.605,5.014 7.936 C 4.970 8.262,5.245 8.716,5.591 8.887 C 5.776 8.978,5.807 8.980,7.204 8.993 L 8.629 9.005 8.713 9.313 C 8.759 9.482,8.808 9.694,8.822 9.784 L 8.848 9.948 8.598 9.974 C 8.461 9.988,8.031 10.001,7.644 10.002 C 7.257 10.002,6.489 10.019,5.937 10.039 C 4.808 10.079,4.606 10.115,4.098 10.366 C 3.227 10.797,2.537 11.565,2.216 12.462 C 2.054 12.915,2.002 13.399,2.001 14.443 C 2.000 15.285,2.040 15.441,2.324 15.696 C 2.602 15.946,2.804 16.000,3.462 16.000 L 3.989 16.000 4.009 16.250 C 4.036 16.582,4.245 17.194,4.447 17.535 C 4.640 17.862,5.046 18.282,5.380 18.501 C 5.680 18.697,6.207 18.896,6.599 18.961 C 7.789 19.157,9.120 18.453,9.659 17.340 C 9.830 16.989,10.000 16.406,10.000 16.176 L 10.000 16.000 11.690 15.998 C 12.620 15.997,13.515 15.981,13.680 15.962 L 13.980 15.927 14.420 15.474 C 15.096 14.777,18.744 10.664,18.909 10.412 C 18.974 10.312,18.980 10.167,18.980 8.642 C 18.980 7.029,18.977 6.972,18.890 6.693 C 18.780 6.343,18.469 5.867,18.195 5.627 C 17.929 5.394,17.439 5.116,17.228 5.079 C 16.980 5.035,15.158 5.005,14.740 5.038 M9.447 12.072 C 9.462 12.088,9.589 12.514,9.730 13.020 C 9.980 13.917,9.984 13.941,9.903 13.966 C 9.857 13.980,8.511 13.994,6.910 13.996 L 4.000 14.000 4.000 13.805 C 4.000 13.099,4.364 12.481,4.950 12.192 C 5.178 12.080,5.261 12.063,5.693 12.036 C 6.263 12.002,9.407 12.032,9.447 12.072 M18.380 13.080 C 17.728 13.177,16.826 13.818,16.446 14.453 C 15.991 15.214,15.890 16.054,16.156 16.879 C 16.481 17.892,17.254 18.628,18.282 18.903 C 18.631 18.996,19.371 18.999,19.712 18.908 C 20.552 18.684,21.310 18.064,21.678 17.300 C 22.422 15.756,21.786 14.044,20.181 13.274 C 19.895 13.137,19.789 13.108,19.453 13.078 C 18.997 13.037,18.662 13.038,18.380 13.080 M19.427 15.124 C 20.131 15.464,20.130 16.520,19.425 16.890 C 19.198 17.010,18.803 17.010,18.580 16.892 C 18.223 16.702,18.040 16.400,18.040 16.000 C 18.040 15.718,18.101 15.550,18.276 15.351 C 18.547 15.042,19.052 14.942,19.427 15.124 M7.981 16.148 C 7.879 16.693,7.329 17.078,6.816 16.963 C 6.461 16.883,6.185 16.633,6.059 16.278 C 5.955 15.981,5.891 16.000,7.004 16.000 L 8.009 16.000 7.981 16.148 " fill="#1A1C1F" stroke="none" fill-rule="evenodd"></path></svg>