<svg width="12" height="12" viewBox="0 0 12 12" fill="none" xmlns="http://www.w3.org/2000/svg"><path d="M7.667 2.479 C 7.515 2.493,7.500 2.501,7.364 2.629 C 7.169 2.813,7.174 3.114,7.374 3.314 C 7.520 3.460,7.533 3.463,8.228 3.481 C 8.581 3.490,8.874 3.506,8.906 3.518 C 9.015 3.560,9.023 3.614,9.034 4.419 L 9.044 5.150 7.986 6.206 L 6.929 7.261 6.630 7.256 L 6.332 7.250 6.175 6.730 C 5.839 5.617,5.592 4.813,5.466 4.430 L 5.334 4.030 5.182 3.880 C 5.098 3.797,4.978 3.700,4.914 3.662 L 4.799 3.595 4.424 3.575 C 3.984 3.553,2.883 3.570,2.774 3.601 C 2.609 3.648,2.455 3.862,2.453 4.048 C 2.453 4.104,2.465 4.186,2.479 4.229 C 2.515 4.334,2.685 4.513,2.778 4.543 C 2.825 4.557,3.132 4.569,3.654 4.575 L 4.458 4.584 4.478 4.647 C 4.509 4.744,4.720 5.443,4.720 5.449 C 4.720 5.451,4.331 5.460,3.855 5.467 C 3.240 5.477,2.952 5.489,2.857 5.509 C 2.444 5.596,1.974 5.913,1.679 6.304 C 1.412 6.658,1.272 7.057,1.246 7.530 C 1.229 7.852,1.255 7.950,1.393 8.100 C 1.463 8.176,1.530 8.227,1.577 8.242 C 1.617 8.254,1.850 8.269,2.095 8.275 L 2.540 8.285 2.540 8.468 C 2.540 8.795,2.635 9.032,2.848 9.237 C 3.287 9.658,3.931 9.639,4.357 9.191 C 4.571 8.966,4.639 8.791,4.640 8.465 L 4.640 8.280 5.915 8.280 C 6.616 8.279,7.224 8.271,7.266 8.262 C 7.316 8.250,7.393 8.198,7.495 8.107 C 7.781 7.854,9.930 5.691,9.995 5.592 L 10.060 5.493 10.060 4.517 L 10.060 3.541 10.000 3.378 C 9.853 2.973,9.620 2.708,9.272 2.548 C 9.171 2.502,9.123 2.495,8.795 2.479 C 8.385 2.459,7.882 2.459,7.667 2.479 M9.465 7.489 C 9.396 7.505,9.293 7.543,9.235 7.573 C 9.095 7.648,8.839 7.903,8.773 8.035 C 8.569 8.437,8.650 8.911,8.978 9.236 C 9.304 9.558,9.750 9.629,10.174 9.428 C 10.353 9.343,10.546 9.157,10.626 8.993 C 10.691 8.860,10.760 8.606,10.760 8.500 C 10.760 8.409,10.695 8.149,10.642 8.029 C 10.593 7.919,10.410 7.724,10.276 7.637 C 10.046 7.490,9.722 7.430,9.465 7.489 " fill="#1A1C1F" stroke="none" fill-rule="evenodd"></path></svg>