<svg width="14" height="14" viewBox="0 0 14 14" fill="none" xmlns="http://www.w3.org/2000/svg"><path d="M8.993 2.845 C 8.841 2.856,8.786 2.871,8.709 2.922 C 8.266 3.215,8.338 3.890,8.838 4.133 C 8.928 4.177,9.003 4.183,9.643 4.203 C 10.031 4.215,10.370 4.234,10.398 4.245 C 10.467 4.274,10.472 4.333,10.491 5.219 L 10.507 5.994 9.309 7.208 L 8.112 8.423 7.827 8.423 L 7.543 8.423 7.436 8.021 C 6.546 4.672,6.456 4.346,6.369 4.163 C 6.309 4.038,6.032 3.766,5.855 3.659 C 5.777 3.612,5.661 3.562,5.597 3.548 C 5.524 3.533,5.078 3.524,4.391 3.524 C 3.384 3.524,3.295 3.528,3.208 3.567 C 3.103 3.616,2.883 3.837,2.843 3.936 C 2.804 4.033,2.810 4.359,2.853 4.461 C 2.904 4.580,3.068 4.752,3.208 4.832 L 3.325 4.900 4.004 4.900 C 4.377 4.900,4.793 4.907,4.927 4.915 L 5.171 4.930 5.246 5.224 C 5.287 5.386,5.320 5.535,5.320 5.556 C 5.320 5.607,5.188 5.623,4.751 5.624 C 4.557 5.625,4.177 5.634,3.906 5.645 C 3.445 5.665,3.400 5.671,3.194 5.739 C 2.207 6.069,1.498 6.945,1.422 7.930 C 1.411 8.079,1.401 8.438,1.401 8.728 C 1.400 9.246,1.401 9.256,1.460 9.374 C 1.537 9.530,1.667 9.661,1.810 9.731 C 1.916 9.782,1.960 9.787,2.360 9.796 L 2.794 9.805 2.808 9.923 C 2.830 10.107,2.935 10.394,3.037 10.546 C 3.229 10.834,3.568 11.076,3.883 11.152 C 4.029 11.187,4.372 11.187,4.518 11.151 C 5.026 11.029,5.500 10.509,5.582 9.984 L 5.609 9.807 7.116 9.795 C 8.449 9.785,8.631 9.779,8.696 9.746 C 8.849 9.666,11.554 6.945,11.789 6.634 L 11.888 6.502 11.895 5.623 C 11.899 5.139,11.893 4.582,11.881 4.384 C 11.863 4.064,11.853 4.007,11.791 3.860 C 11.627 3.471,11.332 3.148,10.983 2.974 C 10.788 2.878,10.742 2.864,10.534 2.846 C 10.283 2.823,9.300 2.823,8.993 2.845 M5.228 7.015 L 5.731 7.030 5.906 7.709 C 6.076 8.368,6.079 8.389,6.033 8.404 C 6.007 8.412,5.268 8.420,4.393 8.421 L 2.800 8.423 2.800 8.324 C 2.800 8.269,2.811 8.135,2.825 8.027 C 2.855 7.782,2.938 7.619,3.141 7.398 C 3.286 7.242,3.508 7.101,3.675 7.058 C 3.873 7.008,4.456 6.992,5.228 7.015 M11.002 8.426 C 10.498 8.474,10.019 8.892,9.863 9.418 C 9.765 9.747,9.792 10.072,9.943 10.383 C 10.022 10.544,10.078 10.619,10.241 10.780 C 10.538 11.073,10.788 11.177,11.200 11.177 C 11.612 11.177,11.862 11.073,12.161 10.779 C 12.322 10.622,12.382 10.544,12.447 10.405 C 12.646 9.986,12.644 9.597,12.439 9.182 C 12.371 9.044,12.302 8.950,12.177 8.825 C 11.857 8.505,11.486 8.379,11.002 8.426 " fill="#1A1C1F" stroke="none" fill-rule="evenodd"></path></svg>