<svg width="28" height="28" viewBox="0 0 28 28" fill="none" xmlns="http://www.w3.org/2000/svg"><path d="M17.383 5.873 C 17.119 5.922,16.960 6.043,16.844 6.282 C 16.727 6.524,16.745 6.717,16.907 6.960 C 17.120 7.281,17.209 7.297,18.877 7.330 C 20.525 7.362,20.571 7.370,20.852 7.665 C 20.937 7.755,21.027 7.910,21.050 8.009 C 21.074 8.109,21.107 8.937,21.124 9.850 L 21.155 11.510 18.709 14.364 L 16.263 17.219 14.977 17.219 L 13.690 17.220 13.444 16.392 C 12.879 14.491,11.289 9.368,11.228 9.249 C 11.136 9.071,10.739 8.709,10.507 8.590 C 10.321 8.495,10.246 8.492,8.226 8.481 C 7.077 8.475,6.057 8.487,5.961 8.507 C 5.738 8.554,5.481 8.778,5.414 8.983 C 5.350 9.174,5.412 9.446,5.561 9.636 C 5.769 9.900,5.824 9.907,7.969 9.941 C 9.054 9.958,9.949 9.981,9.958 9.991 C 9.986 10.023,10.501 11.780,10.500 11.842 C 10.500 11.874,10.495 11.902,10.488 11.904 C 10.482 11.907,9.322 11.936,7.910 11.970 C 6.340 12.007,5.244 12.052,5.087 12.086 C 4.946 12.117,4.662 12.222,4.457 12.321 C 3.774 12.648,3.281 13.014,2.840 13.523 C 2.573 13.831,2.139 14.679,2.033 15.101 C 1.910 15.587,1.857 16.297,1.874 17.236 C 1.890 18.136,1.890 18.139,2.020 18.326 C 2.210 18.600,2.319 18.636,3.022 18.657 L 3.640 18.676 3.640 18.944 C 3.640 19.091,3.680 19.367,3.729 19.558 C 4.045 20.783,4.910 21.681,6.138 22.057 C 6.519 22.173,7.414 22.173,7.840 22.056 C 8.407 21.901,8.784 21.683,9.247 21.244 C 9.483 21.020,9.756 20.712,9.855 20.561 C 10.087 20.204,10.315 19.494,10.348 19.028 L 10.373 18.667 13.412 18.663 C 15.083 18.661,16.561 18.644,16.696 18.625 C 16.884 18.598,16.981 18.552,17.111 18.430 C 17.630 17.937,22.157 12.662,22.484 12.168 L 22.610 11.977 22.610 9.990 C 22.610 7.828,22.599 7.718,22.330 7.187 C 22.056 6.647,21.390 6.106,20.796 5.943 C 20.526 5.869,17.714 5.811,17.383 5.873 M22.470 15.478 C 21.666 15.538,20.902 15.914,20.317 16.536 C 19.782 17.104,19.496 17.704,19.414 18.424 C 19.231 20.051,20.225 21.530,21.840 22.034 C 22.335 22.189,23.156 22.188,23.660 22.034 C 24.826 21.675,25.706 20.768,25.994 19.628 C 26.108 19.173,26.118 18.436,26.015 18.035 C 25.935 17.722,25.688 17.175,25.507 16.909 C 24.887 15.996,23.608 15.393,22.470 15.478 M23.335 17.062 C 23.798 17.199,24.157 17.524,24.436 18.060 C 24.559 18.295,24.570 18.358,24.570 18.808 C 24.570 19.268,24.560 19.318,24.418 19.607 C 23.725 21.015,21.767 21.014,21.083 19.607 C 20.944 19.321,20.932 19.260,20.931 18.830 C 20.930 18.404,20.943 18.337,21.075 18.058 C 21.303 17.577,21.675 17.217,22.109 17.057 C 22.353 16.968,23.027 16.970,23.335 17.062 M8.867 18.777 C 8.867 19.274,8.618 19.844,8.255 20.181 C 7.878 20.529,7.573 20.643,7.000 20.647 C 6.430 20.651,6.152 20.558,5.817 20.252 C 5.450 19.916,5.133 19.243,5.133 18.797 L 5.133 18.667 7.000 18.667 L 8.867 18.667 8.867 18.777 " fill="#1A1C1F" stroke="none" fill-rule="evenodd"></path></svg>