<svg width="28" height="28" viewBox="0 0 28 28" fill="none" xmlns="http://www.w3.org/2000/svg"><path d="M17.095 5.831 C 16.826 5.953,16.600 6.330,16.628 6.611 C 16.652 6.851,16.802 7.101,17.022 7.269 C 17.205 7.409,17.108 7.400,19.577 7.504 C 20.123 7.527,20.552 7.566,20.612 7.598 C 20.668 7.629,20.759 7.717,20.815 7.796 C 20.953 7.990,20.995 8.541,20.998 10.188 L 21.000 11.485 18.608 14.282 L 16.217 17.079 15.000 17.080 L 13.784 17.080 13.467 16.018 C 12.859 13.981,11.672 10.146,11.490 9.629 C 11.246 8.938,11.116 8.779,10.563 8.498 L 10.278 8.353 8.101 8.353 C 6.359 8.353,5.893 8.366,5.770 8.418 C 5.439 8.556,5.189 9.031,5.278 9.353 C 5.332 9.547,5.494 9.788,5.647 9.902 C 5.807 10.020,6.462 10.075,7.817 10.084 C 8.407 10.088,9.110 10.105,9.379 10.121 L 9.868 10.150 10.090 10.873 C 10.212 11.271,10.312 11.632,10.313 11.675 C 10.314 11.791,10.170 11.800,7.863 11.831 C 6.734 11.846,5.622 11.879,5.392 11.904 C 4.351 12.018,3.155 12.798,2.492 13.795 C 1.885 14.707,1.701 15.548,1.733 17.254 L 1.750 18.137 1.891 18.367 C 2.096 18.702,2.274 18.774,2.952 18.799 L 3.500 18.818 3.500 19.017 C 3.500 19.302,3.705 19.978,3.931 20.436 C 4.085 20.750,4.204 20.908,4.528 21.229 C 5.006 21.703,5.375 21.932,5.958 22.120 C 6.722 22.365,7.398 22.353,8.192 22.080 C 8.673 21.915,9.021 21.682,9.496 21.206 C 10.037 20.665,10.356 20.005,10.468 19.192 L 10.521 18.807 13.720 18.807 L 16.919 18.807 17.226 18.492 C 18.186 17.508,22.465 12.492,22.671 12.110 C 22.736 11.987,22.746 11.715,22.748 9.917 L 22.750 7.863 22.628 7.549 C 22.443 7.075,22.224 6.743,21.880 6.417 C 21.535 6.091,21.109 5.858,20.725 5.787 C 20.587 5.761,19.758 5.740,18.882 5.741 C 17.419 5.742,17.274 5.749,17.095 5.831 M11.408 15.283 C 11.688 16.219,11.901 17.002,11.881 17.021 C 11.862 17.041,9.968 17.063,7.673 17.071 L 3.500 17.085 3.500 16.791 C 3.500 16.629,3.521 16.266,3.547 15.983 C 3.588 15.530,3.616 15.426,3.779 15.097 C 4.088 14.472,4.597 13.983,5.170 13.763 C 5.514 13.630,6.201 13.598,8.891 13.588 L 10.898 13.580 11.408 15.283 M21.933 15.417 C 21.259 15.623,20.821 15.866,20.385 16.278 C 20.013 16.629,19.860 16.835,19.623 17.308 C 19.223 18.104,19.168 19.048,19.466 19.973 C 19.736 20.812,20.398 21.536,21.257 21.934 C 21.858 22.213,22.159 22.280,22.797 22.278 C 23.303 22.277,23.399 22.263,23.800 22.126 C 24.422 21.915,24.788 21.683,25.225 21.224 C 25.656 20.772,25.899 20.381,26.074 19.857 C 26.185 19.523,26.198 19.413,26.198 18.830 C 26.198 18.241,26.185 18.137,26.068 17.780 C 25.845 17.099,25.496 16.570,24.997 16.157 C 24.713 15.922,24.068 15.580,23.707 15.473 C 23.347 15.367,22.215 15.331,21.933 15.417 M23.415 17.229 C 23.762 17.358,24.127 17.706,24.294 18.070 C 24.415 18.332,24.430 18.413,24.430 18.830 C 24.430 19.254,24.417 19.321,24.292 19.569 C 24.111 19.926,23.700 20.306,23.347 20.443 C 22.735 20.680,22.100 20.543,21.586 20.062 C 21.175 19.678,21.080 19.446,21.075 18.807 C 21.071 18.378,21.084 18.288,21.182 18.089 C 21.312 17.825,21.745 17.365,21.975 17.246 C 22.324 17.066,22.955 17.059,23.415 17.229 M8.727 18.890 C 8.727 18.936,8.694 19.099,8.654 19.251 C 8.482 19.915,7.971 20.380,7.242 20.536 C 6.813 20.628,6.266 20.454,5.846 20.092 C 5.615 19.892,5.339 19.361,5.293 19.028 L 5.263 18.807 6.995 18.807 C 8.628 18.807,8.727 18.811,8.727 18.890 " fill="#1A1C1F" stroke="none" fill-rule="evenodd"></path></svg>