<svg width="16" height="16" viewBox="0 0 16 16" fill="none" xmlns="http://www.w3.org/2000/svg"><path d="M2.156 2.024 C 1.996 2.047,1.828 2.165,1.738 2.318 L 1.667 2.440 1.647 3.987 C 1.635 4.837,1.629 6.691,1.633 8.107 C 1.641 11.007,1.621 10.742,1.853 10.974 C 2.050 11.171,2.304 11.216,2.677 11.121 C 2.950 11.051,3.208 10.912,3.454 10.702 L 3.655 10.530 3.781 10.634 C 4.165 10.951,4.552 11.127,4.941 11.162 C 5.329 11.196,5.681 11.079,6.103 10.776 C 6.248 10.672,6.376 10.587,6.388 10.587 C 6.400 10.587,6.508 10.653,6.628 10.733 C 6.874 10.899,7.285 11.099,7.472 11.143 C 7.923 11.251,8.490 11.077,8.994 10.674 C 9.128 10.567,9.247 10.480,9.258 10.480 C 9.270 10.480,9.426 10.557,9.606 10.650 C 10.107 10.911,10.234 10.947,10.667 10.946 C 11.004 10.945,11.043 10.940,11.280 10.858 C 11.632 10.736,11.811 10.628,12.120 10.354 C 12.583 9.941,12.848 9.625,13.226 9.032 C 13.824 8.091,14.353 6.977,14.354 6.653 C 14.355 6.435,14.223 6.223,13.996 6.077 L 13.855 5.987 12.749 5.973 L 11.642 5.960 11.510 5.424 L 11.377 4.888 10.602 4.871 C 10.175 4.861,8.833 4.853,7.619 4.853 C 5.461 4.853,5.409 4.852,5.306 4.800 C 5.053 4.671,4.897 4.420,4.899 4.146 C 4.900 3.902,5.002 3.731,5.235 3.579 L 5.347 3.507 8.152 3.493 C 10.014 3.484,10.967 3.471,10.985 3.453 C 11.014 3.424,10.886 2.887,10.758 2.502 C 10.685 2.281,10.630 2.207,10.453 2.090 L 10.337 2.013 6.309 2.010 C 4.093 2.008,2.224 2.014,2.156 2.024 M4.283 6.344 C 4.425 6.409,4.570 6.556,4.653 6.720 C 4.705 6.821,4.720 6.893,4.720 7.029 C 4.720 7.279,4.676 7.399,4.524 7.565 C 4.330 7.777,4.223 7.826,3.947 7.826 C 3.745 7.827,3.704 7.818,3.577 7.748 C 3.419 7.660,3.307 7.539,3.223 7.365 C 3.175 7.267,3.169 7.214,3.178 7.012 C 3.189 6.787,3.195 6.766,3.295 6.620 C 3.366 6.518,3.449 6.438,3.546 6.380 C 3.681 6.299,3.707 6.293,3.932 6.294 C 4.109 6.294,4.202 6.308,4.283 6.344 M7.483 6.344 C 7.625 6.409,7.770 6.556,7.853 6.720 C 7.905 6.821,7.920 6.893,7.920 7.029 C 7.920 7.279,7.876 7.399,7.724 7.565 C 7.530 7.777,7.423 7.826,7.147 7.826 C 6.945 7.827,6.904 7.818,6.777 7.748 C 6.619 7.660,6.507 7.539,6.423 7.365 C 6.375 7.267,6.369 7.214,6.378 7.012 C 6.389 6.787,6.395 6.766,6.495 6.620 C 6.566 6.518,6.649 6.438,6.746 6.380 C 6.881 6.299,6.907 6.293,7.132 6.294 C 7.309 6.294,7.402 6.308,7.483 6.344 M10.683 6.344 C 10.825 6.409,10.970 6.556,11.053 6.720 C 11.105 6.821,11.120 6.893,11.120 7.029 C 11.120 7.279,11.076 7.399,10.924 7.565 C 10.730 7.777,10.623 7.826,10.347 7.826 C 10.145 7.827,10.104 7.818,9.977 7.748 C 9.819 7.660,9.707 7.539,9.623 7.365 C 9.575 7.267,9.569 7.214,9.578 7.012 C 9.589 6.787,9.595 6.766,9.695 6.620 C 9.766 6.518,9.849 6.438,9.946 6.380 C 10.081 6.299,10.107 6.293,10.332 6.294 C 10.509 6.294,10.602 6.308,10.683 6.344 M3.177 12.002 C 3.098 12.062,2.958 12.175,2.865 12.254 C 2.652 12.435,2.580 12.471,2.284 12.551 C 1.823 12.674,1.654 12.861,1.653 13.248 C 1.653 13.428,1.699 13.533,1.836 13.670 C 2.015 13.848,2.105 13.880,2.413 13.877 C 2.643 13.874,2.714 13.862,2.920 13.787 C 3.182 13.693,3.350 13.612,3.493 13.512 L 3.586 13.447 3.733 13.546 C 4.187 13.854,4.826 14.056,5.207 14.013 C 5.526 13.976,5.762 13.885,6.149 13.649 L 6.366 13.518 6.728 13.702 C 7.176 13.930,7.445 14.009,7.773 14.009 C 8.163 14.010,8.608 13.855,9.051 13.566 L 9.234 13.446 9.357 13.541 C 9.519 13.665,10.022 13.905,10.240 13.962 C 10.469 14.022,10.892 14.022,11.117 13.962 C 11.366 13.896,11.725 13.734,11.942 13.590 L 12.132 13.464 12.272 13.570 C 12.677 13.874,13.313 14.076,13.638 14.003 C 13.930 13.937,14.152 13.687,14.179 13.393 C 14.198 13.188,14.155 13.063,14.016 12.911 C 13.892 12.776,13.752 12.705,13.528 12.664 C 13.317 12.625,13.100 12.504,12.857 12.290 C 12.488 11.964,12.395 11.910,12.187 11.898 C 12.087 11.892,11.964 11.901,11.914 11.918 C 11.864 11.934,11.674 12.067,11.492 12.214 C 11.077 12.547,10.889 12.651,10.704 12.651 C 10.523 12.652,10.294 12.537,10.003 12.301 C 9.548 11.932,9.511 11.910,9.320 11.898 C 9.036 11.880,8.990 11.899,8.580 12.209 C 8.150 12.532,7.994 12.616,7.792 12.634 C 7.669 12.645,7.626 12.634,7.459 12.550 C 7.353 12.497,7.141 12.352,6.987 12.227 C 6.628 11.935,6.542 11.893,6.303 11.893 C 6.076 11.893,6.006 11.934,5.615 12.291 C 5.345 12.538,5.139 12.667,5.014 12.667 C 4.886 12.667,4.575 12.489,4.227 12.217 C 4.036 12.068,3.838 11.935,3.787 11.920 C 3.735 11.906,3.609 11.894,3.507 11.894 C 3.330 11.894,3.313 11.899,3.177 12.002 " fill="#1A1C1F" stroke="none" fill-rule="evenodd"></path></svg>