<svg width="32" height="32" viewBox="0 0 32 32" fill="none" xmlns="http://www.w3.org/2000/svg"><path d="M5.360 3.572 C 4.227 3.593,3.605 3.624,3.508 3.666 C 3.324 3.747,3.053 4.119,3.009 4.352 C 2.949 4.672,3.203 5.162,3.532 5.361 C 3.703 5.464,3.858 5.467,10.640 5.502 C 14.617 5.522,17.653 5.559,17.761 5.587 C 18.197 5.702,18.294 5.829,18.585 6.667 C 18.751 7.144,19.147 8.445,19.147 8.512 C 19.147 8.524,16.729 8.535,13.773 8.538 C 10.818 8.541,7.759 8.559,6.976 8.579 C 5.363 8.619,5.362 8.619,5.133 9.068 C 4.917 9.491,5.032 9.979,5.417 10.273 C 5.614 10.423,5.637 10.427,6.476 10.462 C 6.947 10.481,10.130 10.499,13.549 10.502 L 19.764 10.507 20.147 11.800 C 20.358 12.511,20.546 13.167,20.564 13.258 L 20.597 13.423 19.383 13.458 C 18.716 13.477,15.719 13.496,12.725 13.499 C 9.730 13.503,6.464 13.521,5.467 13.540 C 3.407 13.579,3.418 13.577,3.166 14.008 C 2.958 14.362,2.961 14.690,3.175 14.995 C 3.264 15.121,3.412 15.275,3.503 15.337 C 3.667 15.448,3.724 15.450,7.715 15.484 C 9.940 15.504,13.634 15.520,15.925 15.520 C 18.215 15.520,21.608 15.536,23.464 15.555 L 26.838 15.591 26.803 15.853 C 26.752 16.237,26.427 17.334,26.182 17.947 C 25.719 19.104,25.108 19.989,23.924 21.216 C 23.138 22.029,22.987 22.235,22.987 22.487 C 22.987 22.851,23.368 23.318,23.779 23.458 C 24.188 23.596,24.752 23.260,25.577 22.385 C 27.115 20.753,28.032 19.174,28.561 17.244 C 28.797 16.384,28.973 15.338,28.980 14.747 C 28.986 14.311,28.973 14.243,28.838 14.013 C 28.755 13.873,28.628 13.720,28.554 13.671 C 28.374 13.553,27.210 13.500,24.693 13.496 L 22.745 13.493 21.951 10.840 C 20.430 5.757,20.229 5.158,19.892 4.712 C 19.630 4.365,19.150 3.992,18.681 3.773 L 18.320 3.604 16.267 3.566 C 13.937 3.523,7.914 3.527,5.360 3.572 M10.267 17.548 C 9.596 17.646,9.013 18.327,9.013 19.013 C 9.013 19.614,9.479 20.235,10.055 20.403 C 10.867 20.639,11.690 20.185,11.927 19.370 C 12.210 18.400,11.297 17.398,10.267 17.548 M4.866 17.684 C 4.216 18.008,3.883 18.718,4.074 19.375 C 4.451 20.670,6.151 20.864,6.792 19.685 C 7.101 19.118,7.019 18.494,6.573 18.018 C 6.135 17.550,5.417 17.409,4.866 17.684 M14.838 17.684 C 14.234 17.985,13.897 18.738,14.074 19.392 C 14.210 19.893,14.571 20.243,15.119 20.402 C 15.498 20.512,15.809 20.479,16.199 20.289 C 16.687 20.051,16.960 19.587,16.960 18.997 C 16.960 18.386,16.711 17.990,16.150 17.710 C 15.711 17.491,15.245 17.481,14.838 17.684 M19.987 17.620 C 18.987 17.992,18.701 19.284,19.451 20.034 C 20.006 20.590,20.873 20.618,21.460 20.101 C 21.771 19.827,21.924 19.536,21.959 19.151 C 22.036 18.290,21.438 17.608,20.568 17.564 C 20.327 17.552,20.113 17.572,19.987 17.620 M5.940 24.570 C 5.878 24.582,5.578 24.823,5.273 25.105 C 4.297 26.011,3.910 26.253,3.062 26.488 C 2.624 26.610,2.507 26.666,2.316 26.850 C 2.133 27.025,2.083 27.116,2.051 27.325 C 2.028 27.480,2.037 27.665,2.073 27.785 C 2.398 28.870,4.032 28.663,5.809 27.310 C 6.043 27.132,6.251 26.987,6.271 26.987 C 6.292 26.987,6.431 27.091,6.581 27.218 C 7.193 27.739,7.914 28.142,8.613 28.354 C 9.101 28.502,9.994 28.490,10.478 28.329 C 11.071 28.131,11.591 27.848,12.189 27.399 L 12.747 26.981 13.306 27.400 C 14.493 28.292,15.454 28.599,16.533 28.431 C 17.220 28.324,18.298 27.783,18.910 27.237 C 19.093 27.073,19.223 26.994,19.266 27.020 C 19.303 27.043,19.552 27.223,19.818 27.420 C 20.385 27.840,20.845 28.101,21.348 28.291 C 21.673 28.413,21.784 28.427,22.473 28.427 C 23.090 28.427,23.294 28.407,23.537 28.323 C 24.224 28.087,24.874 27.708,25.429 27.219 L 25.741 26.944 26.120 27.246 C 27.426 28.287,28.967 28.751,29.581 28.289 C 29.792 28.131,29.973 27.763,29.973 27.493 C 29.973 27.215,29.790 26.854,29.583 26.726 C 29.490 26.669,29.209 26.570,28.960 26.507 C 28.280 26.336,27.815 26.047,26.940 25.254 C 26.376 24.743,26.156 24.597,25.893 24.557 C 25.481 24.495,25.326 24.590,24.538 25.385 C 23.779 26.151,23.602 26.271,23.000 26.428 C 22.616 26.528,22.396 26.527,21.998 26.425 C 21.393 26.270,21.165 26.117,20.511 25.431 C 19.412 24.278,19.055 24.249,18.192 25.244 C 17.496 26.046,17.073 26.328,16.374 26.454 C 15.789 26.559,15.175 26.423,14.644 26.072 C 14.506 25.980,14.162 25.645,13.879 25.326 C 12.956 24.284,12.542 24.265,11.705 25.226 C 11.048 25.980,10.646 26.270,10.044 26.427 C 9.630 26.535,9.304 26.527,8.895 26.401 C 8.378 26.241,7.980 25.950,7.336 25.263 C 6.666 24.546,6.495 24.461,5.940 24.570 " fill="#1A1C1F" stroke="none" fill-rule="evenodd"></path></svg>