<svg width="16" height="16" viewBox="0 0 16 16" fill="none" xmlns="http://www.w3.org/2000/svg"><path d="M2.973 1.626 C 2.072 1.643,2.052 1.647,1.843 1.848 C 1.681 2.004,1.621 2.150,1.621 2.384 C 1.621 2.496,1.638 2.615,1.662 2.674 C 1.720 2.812,1.961 3.060,2.112 3.136 L 2.238 3.200 5.619 3.200 L 9.000 3.200 9.170 3.633 C 9.779 5.179,9.921 5.554,9.906 5.570 C 9.897 5.579,8.159 5.594,6.044 5.602 L 2.200 5.618 2.084 5.678 C 1.575 5.939,1.460 6.496,1.830 6.908 C 1.887 6.971,1.996 7.062,2.072 7.111 L 2.211 7.200 7.454 7.200 L 12.698 7.200 12.679 7.287 C 12.646 7.441,12.476 7.926,12.354 8.213 C 12.129 8.742,11.944 9.018,11.451 9.560 C 11.035 10.018,10.990 10.080,10.960 10.242 C 10.927 10.412,10.966 10.666,11.042 10.790 C 11.115 10.908,11.312 11.083,11.432 11.136 C 11.585 11.205,11.901 11.199,12.054 11.125 C 12.287 11.012,12.836 10.449,13.222 9.926 C 13.829 9.102,14.292 7.832,14.372 6.773 C 14.404 6.357,14.381 6.160,14.285 6.008 C 14.204 5.880,14.061 5.752,13.913 5.676 C 13.804 5.620,13.761 5.617,12.698 5.602 L 11.596 5.587 11.042 4.053 C 10.272 1.923,10.294 1.977,10.120 1.818 C 10.041 1.746,9.943 1.678,9.902 1.668 C 9.684 1.614,5.070 1.586,2.973 1.626 M2.888 8.079 C 2.733 8.149,2.547 8.327,2.475 8.476 C 2.428 8.572,2.415 8.645,2.416 8.800 C 2.417 9.048,2.483 9.199,2.666 9.370 C 2.838 9.531,2.959 9.581,3.188 9.583 C 3.500 9.587,3.764 9.419,3.925 9.115 C 4.007 8.957,4.009 8.678,3.928 8.500 C 3.847 8.323,3.641 8.126,3.481 8.071 C 3.304 8.011,3.030 8.014,2.888 8.079 M6.088 8.079 C 5.933 8.149,5.747 8.327,5.675 8.476 C 5.628 8.572,5.615 8.645,5.616 8.800 C 5.617 9.048,5.683 9.199,5.866 9.370 C 6.038 9.531,6.159 9.581,6.388 9.583 C 6.700 9.587,6.964 9.419,7.125 9.115 C 7.207 8.957,7.209 8.678,7.128 8.500 C 7.047 8.323,6.841 8.126,6.681 8.071 C 6.504 8.011,6.230 8.014,6.088 8.079 M9.288 8.079 C 9.133 8.149,8.947 8.327,8.875 8.476 C 8.828 8.572,8.815 8.645,8.816 8.800 C 8.817 9.048,8.883 9.199,9.066 9.370 C 9.238 9.531,9.359 9.581,9.588 9.583 C 9.900 9.587,10.164 9.419,10.325 9.115 C 10.407 8.957,10.409 8.678,10.328 8.500 C 10.247 8.323,10.041 8.126,9.881 8.071 C 9.704 8.011,9.430 8.014,9.288 8.079 M3.453 12.103 C 3.380 12.147,3.210 12.277,3.076 12.392 C 2.784 12.643,2.642 12.725,2.359 12.802 C 2.242 12.834,2.099 12.884,2.040 12.913 C 1.786 13.039,1.624 13.286,1.617 13.558 C 1.611 13.824,1.666 13.963,1.853 14.151 C 2.097 14.396,2.312 14.446,2.739 14.358 C 3.008 14.302,3.297 14.186,3.568 14.023 C 3.690 13.950,3.798 13.894,3.808 13.898 C 3.819 13.903,3.950 13.977,4.099 14.062 C 4.907 14.524,5.560 14.503,6.441 13.989 L 6.601 13.895 6.861 14.043 C 7.358 14.325,7.768 14.427,8.195 14.374 C 8.555 14.329,8.959 14.175,9.265 13.966 L 9.396 13.876 9.618 14.016 C 10.009 14.261,10.564 14.422,10.908 14.390 C 11.255 14.358,11.716 14.189,12.063 13.967 C 12.173 13.897,12.200 13.889,12.244 13.916 C 12.444 14.041,12.827 14.224,13.040 14.296 C 13.252 14.368,13.335 14.383,13.547 14.385 C 13.831 14.387,13.936 14.348,14.134 14.170 C 14.433 13.899,14.467 13.401,14.205 13.104 C 14.071 12.951,13.906 12.868,13.604 12.802 C 13.472 12.773,13.329 12.732,13.287 12.710 C 13.244 12.688,13.073 12.548,12.905 12.399 C 12.508 12.047,12.495 12.040,12.200 12.040 C 11.906 12.040,11.835 12.076,11.465 12.412 C 11.158 12.691,11.006 12.773,10.800 12.773 C 10.594 12.773,10.442 12.691,10.133 12.412 C 9.760 12.074,9.693 12.040,9.400 12.040 C 9.106 12.040,9.035 12.076,8.665 12.412 C 8.358 12.691,8.206 12.773,8.000 12.773 C 7.794 12.773,7.642 12.691,7.333 12.412 C 6.960 12.074,6.893 12.040,6.600 12.040 C 6.304 12.040,6.239 12.074,5.853 12.425 C 5.540 12.710,5.406 12.784,5.200 12.786 C 4.996 12.787,4.865 12.715,4.547 12.426 C 4.171 12.084,4.097 12.045,3.815 12.033 C 3.601 12.024,3.578 12.029,3.453 12.103 " fill="#1A1C1F" stroke="none" fill-rule="evenodd"></path></svg>