<svg width="24" height="24" viewBox="0 0 24 24" fill="none" xmlns="http://www.w3.org/2000/svg"><path d="M4.280 2.038 C 2.494 2.062,2.551 2.054,2.294 2.327 C 1.950 2.693,1.916 3.125,2.197 3.569 C 2.373 3.847,2.547 3.919,3.135 3.962 C 3.402 3.982,5.791 3.998,8.444 3.999 L 13.269 4.000 13.533 4.870 C 13.678 5.349,13.808 5.787,13.822 5.845 L 13.846 5.951 13.033 5.974 C 12.586 5.987,10.591 6.007,8.600 6.019 C 6.609 6.031,4.885 6.052,4.768 6.066 C 4.591 6.087,4.523 6.121,4.356 6.271 C 4.246 6.370,4.128 6.506,4.093 6.573 C 4.008 6.739,4.007 7.260,4.092 7.422 C 4.176 7.582,4.473 7.865,4.620 7.923 C 4.710 7.959,5.956 7.976,9.628 7.991 L 14.517 8.010 14.577 8.195 C 14.730 8.667,15.080 9.853,15.080 9.899 C 15.080 9.928,15.052 9.962,15.017 9.976 C 14.982 9.989,12.772 10.001,10.107 10.003 C 7.441 10.005,4.672 10.019,3.954 10.035 L 2.649 10.063 2.459 10.182 C 1.778 10.606,1.923 11.716,2.686 11.926 C 2.818 11.962,4.919 11.977,11.371 11.989 L 19.883 12.005 19.856 12.152 C 19.841 12.234,19.757 12.516,19.670 12.780 C 19.236 14.086,18.802 14.783,17.735 15.884 C 17.423 16.206,17.136 16.530,17.097 16.605 C 16.993 16.803,16.998 17.214,17.108 17.420 C 17.208 17.609,17.405 17.802,17.600 17.904 C 17.790 18.004,18.205 18.003,18.420 17.903 C 18.518 17.857,18.868 17.540,19.322 17.084 C 19.969 16.436,20.113 16.268,20.434 15.782 C 21.322 14.442,21.866 12.889,21.983 11.359 C 22.013 10.974,21.940 10.598,21.798 10.406 C 21.753 10.345,21.618 10.235,21.498 10.162 L 21.281 10.031 19.255 10.005 L 17.228 9.980 16.660 8.160 C 15.429 4.215,15.034 3.045,14.857 2.813 C 14.720 2.633,14.363 2.354,14.061 2.191 L 13.820 2.062 12.100 2.035 C 10.153 2.004,6.687 2.006,4.280 2.038 M2.954 13.798 C 2.650 13.857,2.279 14.170,2.101 14.516 C 1.996 14.721,2.001 15.244,2.110 15.488 C 2.211 15.715,2.489 16.002,2.726 16.124 C 2.974 16.252,3.458 16.253,3.744 16.126 C 4.300 15.879,4.597 15.222,4.422 14.621 C 4.332 14.312,3.997 13.964,3.700 13.870 C 3.448 13.790,3.143 13.761,2.954 13.798 M6.954 13.798 C 6.650 13.857,6.279 14.170,6.101 14.516 C 5.996 14.721,6.001 15.244,6.110 15.488 C 6.211 15.715,6.489 16.002,6.726 16.124 C 6.974 16.252,7.458 16.253,7.744 16.126 C 8.300 15.879,8.597 15.222,8.422 14.621 C 8.332 14.312,7.997 13.964,7.700 13.870 C 7.448 13.790,7.143 13.761,6.954 13.798 M10.954 13.798 C 10.650 13.857,10.279 14.170,10.101 14.516 C 9.996 14.721,10.001 15.244,10.110 15.488 C 10.211 15.715,10.489 16.002,10.726 16.124 C 10.974 16.252,11.458 16.253,11.744 16.126 C 12.300 15.879,12.597 15.222,12.422 14.621 C 12.332 14.312,11.997 13.964,11.700 13.870 C 11.448 13.790,11.143 13.761,10.954 13.798 M14.954 13.798 C 14.650 13.857,14.279 14.170,14.101 14.516 C 13.996 14.721,14.001 15.244,14.110 15.488 C 14.211 15.715,14.489 16.002,14.726 16.124 C 14.974 16.252,15.458 16.253,15.744 16.126 C 16.300 15.879,16.597 15.222,16.422 14.621 C 16.332 14.312,15.997 13.964,15.700 13.870 C 15.448 13.790,15.143 13.761,14.954 13.798 M9.412 19.098 C 9.298 19.151,9.005 19.322,8.762 19.479 C 8.050 19.937,7.677 20.057,7.257 19.963 C 6.915 19.886,6.741 19.801,6.134 19.413 C 5.591 19.065,5.581 19.061,5.298 19.046 C 4.966 19.030,4.950 19.036,4.300 19.454 C 3.785 19.785,3.531 19.895,3.043 19.999 C 2.364 20.145,2.084 20.388,2.014 20.896 C 1.975 21.185,2.063 21.424,2.298 21.665 C 2.611 21.986,2.958 22.063,3.540 21.939 C 3.972 21.848,4.400 21.694,4.858 21.464 L 5.276 21.254 5.488 21.385 C 5.741 21.542,6.406 21.813,6.762 21.904 C 6.964 21.955,7.147 21.965,7.639 21.950 C 8.191 21.934,8.293 21.920,8.560 21.821 C 8.847 21.716,9.444 21.435,9.627 21.320 C 9.705 21.270,9.759 21.286,10.187 21.488 C 11.609 22.159,12.390 22.156,13.840 21.474 L 14.259 21.276 14.700 21.495 C 15.437 21.862,15.682 21.928,16.380 21.951 C 16.855 21.966,17.033 21.956,17.237 21.904 C 17.592 21.813,18.258 21.542,18.510 21.387 L 18.719 21.257 19.146 21.468 C 19.787 21.783,20.497 21.998,20.905 21.999 C 21.351 22.001,21.798 21.697,21.933 21.301 C 22.016 21.059,22.017 20.944,21.939 20.715 C 21.806 20.324,21.491 20.090,20.981 20.002 C 20.570 19.932,20.181 19.766,19.724 19.467 C 19.087 19.049,19.033 19.027,18.693 19.049 C 18.424 19.066,18.377 19.084,18.071 19.281 C 17.889 19.397,17.632 19.559,17.500 19.640 C 16.660 20.156,16.063 20.083,15.017 19.336 C 14.681 19.097,14.528 19.040,14.217 19.040 C 13.953 19.040,13.948 19.042,13.447 19.362 C 12.173 20.176,11.825 20.182,10.619 19.411 C 10.188 19.136,9.886 19.000,9.709 19.000 C 9.660 19.001,9.526 19.044,9.412 19.098 " fill="#1A1C1F" stroke="none" fill-rule="evenodd"></path></svg>