<svg width="14" height="14" viewBox="0 0 14 14" fill="none" xmlns="http://www.w3.org/2000/svg"><path d="M2.940 1.749 C 2.046 1.759,1.820 1.768,1.773 1.795 C 1.648 1.865,1.580 1.929,1.520 2.030 L 1.458 2.135 1.443 3.208 C 1.435 3.799,1.427 5.413,1.426 6.797 C 1.423 9.300,1.424 9.312,1.472 9.407 C 1.545 9.551,1.709 9.697,1.847 9.743 C 2.160 9.847,2.622 9.698,3.017 9.367 L 3.199 9.214 3.309 9.305 C 3.771 9.686,4.247 9.838,4.686 9.745 C 4.918 9.695,5.076 9.619,5.344 9.426 C 5.468 9.337,5.580 9.263,5.591 9.263 C 5.603 9.263,5.691 9.317,5.787 9.383 C 5.990 9.522,6.380 9.713,6.538 9.751 C 6.961 9.851,7.448 9.686,7.968 9.265 C 8.033 9.213,8.098 9.170,8.115 9.170 C 8.131 9.170,8.184 9.195,8.233 9.226 C 8.380 9.319,8.659 9.453,8.832 9.514 C 9.050 9.592,9.437 9.611,9.668 9.557 C 10.173 9.439,10.514 9.208,11.031 8.635 C 11.616 7.987,12.558 6.252,12.560 5.819 C 12.560 5.618,12.405 5.393,12.180 5.271 C 12.135 5.247,11.906 5.237,11.155 5.227 L 10.188 5.215 10.072 4.748 C 10.008 4.492,9.953 4.277,9.948 4.271 C 9.943 4.266,8.761 4.255,7.320 4.248 C 4.360 4.233,4.645 4.254,4.448 4.035 C 4.191 3.749,4.234 3.360,4.546 3.154 L 4.670 3.071 7.136 3.055 C 8.492 3.045,9.606 3.037,9.611 3.036 C 9.648 3.026,9.435 2.183,9.356 2.028 C 9.331 1.981,9.260 1.904,9.197 1.857 L 9.081 1.773 8.618 1.762 C 7.868 1.743,4.142 1.735,2.940 1.749 M3.773 5.568 C 3.915 5.636,3.998 5.726,4.080 5.903 C 4.225 6.220,4.092 6.606,3.778 6.777 C 3.438 6.962,3.000 6.817,2.828 6.461 C 2.771 6.343,2.758 6.099,2.801 5.945 C 2.828 5.846,3.028 5.616,3.136 5.559 C 3.301 5.472,3.578 5.476,3.773 5.568 M6.573 5.568 C 6.715 5.636,6.798 5.726,6.880 5.903 C 7.025 6.220,6.892 6.606,6.578 6.777 C 6.238 6.962,5.800 6.817,5.628 6.461 C 5.571 6.343,5.558 6.099,5.601 5.945 C 5.628 5.846,5.828 5.616,5.936 5.559 C 6.101 5.472,6.378 5.476,6.573 5.568 M9.373 5.568 C 9.515 5.636,9.598 5.726,9.680 5.903 C 9.825 6.220,9.692 6.606,9.378 6.777 C 9.038 6.962,8.600 6.817,8.428 6.461 C 8.371 6.343,8.358 6.099,8.401 5.945 C 8.428 5.846,8.628 5.616,8.736 5.559 C 8.901 5.472,9.178 5.476,9.373 5.568 M5.361 10.417 C 5.255 10.455,5.185 10.507,4.905 10.765 C 4.650 10.999,4.475 11.096,4.351 11.073 C 4.213 11.047,3.975 10.908,3.703 10.694 C 3.362 10.425,3.323 10.407,3.096 10.407 C 2.886 10.407,2.892 10.404,2.555 10.683 C 2.316 10.880,2.236 10.922,1.966 10.992 C 1.629 11.079,1.473 11.241,1.452 11.523 C 1.438 11.728,1.469 11.821,1.599 11.952 C 1.761 12.117,1.838 12.145,2.112 12.142 C 2.312 12.140,2.374 12.129,2.555 12.064 C 2.784 11.981,2.931 11.911,3.056 11.823 L 3.136 11.767 3.294 11.869 C 3.683 12.121,4.065 12.253,4.422 12.258 C 4.751 12.262,5.007 12.178,5.389 11.939 C 5.485 11.879,5.572 11.830,5.582 11.830 C 5.591 11.830,5.691 11.883,5.804 11.947 C 6.194 12.171,6.608 12.291,6.894 12.263 C 7.204 12.233,7.611 12.077,7.919 11.871 L 8.079 11.764 8.220 11.868 C 8.378 11.985,8.619 12.106,8.837 12.178 C 9.333 12.344,9.873 12.252,10.417 11.910 L 10.618 11.784 10.760 11.889 C 11.113 12.149,11.651 12.316,11.933 12.253 C 12.189 12.195,12.383 11.977,12.407 11.719 C 12.423 11.540,12.386 11.430,12.264 11.298 C 12.158 11.181,12.036 11.118,11.851 11.083 C 11.649 11.045,11.507 10.963,11.200 10.710 C 11.040 10.578,10.875 10.455,10.833 10.438 C 10.736 10.398,10.496 10.398,10.400 10.438 C 10.359 10.456,10.199 10.571,10.045 10.694 C 9.549 11.092,9.392 11.142,9.098 10.996 C 9.016 10.955,8.860 10.851,8.753 10.764 C 8.355 10.441,8.322 10.422,8.155 10.411 C 7.906 10.395,7.867 10.412,7.507 10.682 C 7.142 10.958,6.996 11.038,6.834 11.055 C 6.646 11.073,6.485 10.991,6.075 10.667 C 5.742 10.404,5.567 10.343,5.361 10.417 " fill="#1A1C1F" stroke="none" fill-rule="evenodd"></path></svg>