<svg width="12" height="12" viewBox="0 0 12 12" fill="none" xmlns="http://www.w3.org/2000/svg"><path d="M2.210 1.219 C 1.556 1.233,1.538 1.236,1.383 1.386 C 1.261 1.503,1.216 1.612,1.216 1.788 C 1.216 1.872,1.228 1.961,1.247 2.005 C 1.289 2.106,1.449 2.273,1.570 2.342 L 1.670 2.400 4.211 2.400 L 6.751 2.400 6.784 2.485 C 6.802 2.532,6.957 2.929,7.129 3.367 C 7.302 3.805,7.437 4.170,7.430 4.177 C 7.422 4.184,6.119 4.195,4.533 4.202 L 1.650 4.214 1.563 4.259 C 1.439 4.322,1.309 4.448,1.257 4.556 C 1.125 4.828,1.276 5.196,1.583 5.352 L 1.679 5.400 5.599 5.400 C 8.247 5.400,9.520 5.407,9.520 5.420 C 9.520 5.461,9.375 5.890,9.287 6.107 C 9.117 6.531,8.972 6.747,8.549 7.210 C 8.253 7.535,8.210 7.610,8.212 7.810 C 8.213 7.986,8.274 8.115,8.418 8.245 C 8.609 8.416,8.869 8.440,9.098 8.307 C 9.290 8.195,9.765 7.676,10.010 7.310 C 10.137 7.121,10.391 6.618,10.489 6.364 C 10.705 5.805,10.852 4.910,10.773 4.637 C 10.732 4.498,10.607 4.352,10.457 4.270 L 10.350 4.212 9.524 4.201 L 8.697 4.190 8.279 3.030 C 7.716 1.470,7.721 1.483,7.589 1.363 C 7.530 1.309,7.457 1.259,7.426 1.251 C 7.260 1.210,3.754 1.189,2.210 1.219 M2.259 6.028 C 2.140 6.059,2.041 6.121,1.950 6.223 C 1.843 6.341,1.812 6.425,1.813 6.600 C 1.814 6.783,1.847 6.866,1.970 6.997 C 2.276 7.325,2.800 7.211,2.961 6.783 C 3.065 6.508,2.926 6.200,2.640 6.073 C 2.502 6.012,2.376 5.997,2.259 6.028 M4.659 6.028 C 4.540 6.059,4.441 6.121,4.350 6.223 C 4.243 6.341,4.212 6.425,4.213 6.600 C 4.214 6.783,4.247 6.866,4.370 6.997 C 4.676 7.325,5.200 7.211,5.361 6.783 C 5.465 6.508,5.326 6.200,5.040 6.073 C 4.902 6.012,4.776 5.997,4.659 6.028 M7.059 6.028 C 6.940 6.059,6.841 6.121,6.750 6.223 C 6.643 6.341,6.612 6.425,6.613 6.600 C 6.614 6.783,6.647 6.866,6.770 6.997 C 7.076 7.325,7.600 7.211,7.761 6.783 C 7.865 6.508,7.726 6.200,7.440 6.073 C 7.302 6.012,7.176 5.997,7.059 6.028 M2.590 9.077 C 2.535 9.110,2.408 9.208,2.307 9.294 C 2.088 9.482,1.981 9.543,1.769 9.601 C 1.559 9.659,1.444 9.719,1.354 9.818 C 1.256 9.927,1.216 10.026,1.213 10.170 C 1.208 10.368,1.250 10.472,1.390 10.613 C 1.573 10.797,1.734 10.835,2.054 10.769 C 2.234 10.731,2.443 10.651,2.610 10.555 C 2.676 10.517,2.757 10.470,2.790 10.451 L 2.850 10.417 3.073 10.545 C 3.652 10.878,4.096 10.879,4.712 10.550 C 4.826 10.490,4.934 10.440,4.952 10.440 C 4.970 10.440,5.065 10.486,5.162 10.541 C 5.516 10.743,5.830 10.820,6.149 10.780 C 6.419 10.747,6.740 10.620,6.979 10.454 L 7.048 10.406 7.195 10.502 C 7.467 10.679,7.811 10.788,8.100 10.788 C 8.386 10.788,8.686 10.694,8.991 10.509 C 9.123 10.429,9.152 10.418,9.184 10.438 C 9.333 10.531,9.621 10.668,9.780 10.722 C 9.939 10.776,10.001 10.787,10.160 10.788 C 10.322 10.790,10.363 10.783,10.436 10.744 C 10.665 10.622,10.784 10.434,10.784 10.195 C 10.784 10.021,10.747 9.920,10.644 9.813 C 10.543 9.709,10.417 9.649,10.203 9.602 C 9.974 9.552,9.946 9.537,9.733 9.347 C 9.378 9.031,9.333 9.008,9.096 9.025 C 8.929 9.037,8.852 9.081,8.600 9.309 C 8.369 9.518,8.255 9.580,8.100 9.580 C 7.945 9.580,7.831 9.518,7.600 9.309 C 7.320 9.055,7.270 9.030,7.050 9.030 C 6.830 9.030,6.780 9.055,6.500 9.309 C 6.269 9.518,6.155 9.580,6.000 9.580 C 5.845 9.580,5.731 9.518,5.500 9.309 C 5.220 9.055,5.170 9.030,4.950 9.030 C 4.728 9.030,4.679 9.055,4.390 9.319 C 4.155 9.533,4.055 9.588,3.900 9.589 C 3.747 9.590,3.648 9.536,3.410 9.319 C 3.131 9.064,3.074 9.034,2.861 9.025 C 2.701 9.018,2.684 9.022,2.590 9.077 " fill="#1A1C1F" stroke="none" fill-rule="evenodd"></path></svg>