<svg width="20" height="20" viewBox="0 0 20 20" fill="none" xmlns="http://www.w3.org/2000/svg"><path d="M2.696 2.530 C 2.495 2.559,2.285 2.706,2.173 2.898 L 2.083 3.050 2.062 4.617 C 2.050 5.478,2.039 7.785,2.037 9.743 C 2.033 13.264,2.034 13.304,2.101 13.436 C 2.257 13.741,2.592 13.967,2.886 13.966 C 3.392 13.964,3.930 13.733,4.392 13.317 L 4.567 13.160 4.725 13.291 C 5.390 13.840,6.063 14.055,6.694 13.921 C 7.026 13.851,7.251 13.742,7.634 13.466 C 7.812 13.338,7.971 13.233,7.988 13.233 C 8.004 13.233,8.130 13.310,8.267 13.404 C 8.557 13.603,9.114 13.876,9.340 13.929 C 9.905 14.064,10.612 13.846,11.243 13.342 C 11.410 13.209,11.559 13.100,11.573 13.100 C 11.588 13.100,11.771 13.190,11.978 13.300 C 12.536 13.595,12.776 13.671,13.217 13.690 C 13.629 13.709,13.859 13.668,14.296 13.500 C 14.939 13.251,15.754 12.472,16.412 11.474 C 17.187 10.300,17.941 8.744,17.942 8.316 C 17.943 8.043,17.779 7.779,17.494 7.596 L 17.318 7.483 15.936 7.467 L 14.554 7.450 14.389 6.783 C 14.298 6.417,14.218 6.110,14.211 6.102 C 14.205 6.094,12.516 6.079,10.458 6.069 C 6.251 6.048,6.639 6.075,6.371 5.784 C 6.187 5.584,6.123 5.431,6.122 5.183 C 6.121 4.879,6.289 4.615,6.583 4.455 L 6.717 4.383 10.207 4.367 C 12.544 4.356,13.708 4.339,13.731 4.316 C 13.788 4.259,13.461 3.065,13.328 2.845 C 13.293 2.787,13.187 2.689,13.091 2.628 L 12.918 2.517 7.884 2.512 C 5.115 2.510,2.781 2.518,2.696 2.530 M5.350 7.932 C 5.555 8.020,5.686 8.150,5.798 8.373 C 6.110 8.997,5.705 9.737,5.021 9.791 C 4.639 9.822,4.323 9.667,4.110 9.346 C 3.996 9.175,3.982 9.131,3.972 8.902 C 3.965 8.762,3.977 8.585,3.998 8.509 C 4.040 8.352,4.315 8.029,4.480 7.942 C 4.697 7.827,5.096 7.823,5.350 7.932 M9.350 7.932 C 9.555 8.020,9.686 8.150,9.798 8.373 C 10.110 8.997,9.705 9.737,9.021 9.791 C 8.639 9.822,8.323 9.667,8.110 9.346 C 7.996 9.175,7.982 9.131,7.972 8.902 C 7.965 8.762,7.977 8.585,7.998 8.509 C 8.040 8.352,8.315 8.029,8.480 7.942 C 8.697 7.827,9.096 7.823,9.350 7.932 M13.350 7.932 C 13.555 8.020,13.686 8.150,13.798 8.373 C 14.110 8.997,13.705 9.737,13.021 9.791 C 12.639 9.822,12.323 9.667,12.110 9.346 C 11.996 9.175,11.982 9.131,11.972 8.902 C 11.965 8.762,11.977 8.585,11.998 8.509 C 12.040 8.352,12.315 8.029,12.480 7.942 C 12.697 7.827,13.096 7.823,13.350 7.932 M7.658 14.881 C 7.507 14.935,7.408 15.010,7.007 15.379 C 6.836 15.535,6.613 15.704,6.511 15.754 C 6.338 15.839,6.315 15.842,6.171 15.804 C 5.943 15.743,5.664 15.573,5.233 15.235 C 5.022 15.069,4.798 14.918,4.733 14.900 C 4.669 14.882,4.514 14.867,4.388 14.867 C 4.128 14.867,4.121 14.870,3.658 15.256 C 3.304 15.550,3.237 15.586,2.852 15.689 C 2.520 15.778,2.348 15.874,2.224 16.040 C 2.113 16.189,2.067 16.342,2.067 16.556 C 2.067 16.786,2.123 16.916,2.295 17.088 C 2.518 17.310,2.631 17.351,3.017 17.347 C 3.304 17.344,3.391 17.328,3.650 17.234 C 3.978 17.115,4.188 17.015,4.366 16.890 L 4.483 16.808 4.666 16.933 C 5.075 17.210,5.654 17.439,6.108 17.504 C 6.588 17.572,7.055 17.444,7.654 17.082 L 7.969 16.891 8.159 16.998 C 9.250 17.607,9.903 17.665,10.817 17.237 C 10.965 17.168,11.188 17.042,11.313 16.958 L 11.541 16.806 11.732 16.946 C 11.954 17.110,12.329 17.300,12.624 17.398 C 13.354 17.640,14.125 17.502,14.936 16.982 L 15.167 16.834 15.371 16.984 C 15.876 17.356,16.644 17.594,17.047 17.504 C 17.413 17.422,17.690 17.109,17.724 16.741 C 17.747 16.486,17.694 16.328,17.522 16.142 C 17.358 15.964,17.210 15.884,16.958 15.838 C 16.642 15.779,16.452 15.674,16.042 15.330 C 15.534 14.903,15.437 14.856,15.119 14.872 C 14.842 14.886,14.778 14.922,14.233 15.371 C 13.877 15.664,13.576 15.818,13.362 15.814 C 13.150 15.811,12.853 15.660,12.504 15.376 C 11.935 14.915,11.889 14.888,11.651 14.873 C 11.295 14.850,11.238 14.874,10.725 15.261 C 10.202 15.654,9.995 15.769,9.762 15.792 C 9.494 15.819,9.264 15.701,8.678 15.239 C 8.202 14.863,7.953 14.776,7.658 14.881 " fill="#1A1C1F" stroke="none" fill-rule="evenodd"></path></svg>