<svg width="20" height="20" viewBox="0 0 20 20" fill="none" xmlns="http://www.w3.org/2000/svg"><path d="M3.717 2.032 C 2.590 2.054,2.565 2.059,2.304 2.310 C 2.102 2.504,2.026 2.688,2.025 2.980 C 2.024 3.123,2.045 3.266,2.077 3.341 C 2.149 3.511,2.415 3.788,2.617 3.904 L 2.783 3.999 7.018 4.000 L 11.252 4.000 11.306 4.142 C 11.336 4.220,11.595 4.881,11.882 5.612 C 12.169 6.342,12.394 6.950,12.383 6.962 C 12.371 6.974,10.198 6.993,7.555 7.004 L 2.748 7.024 2.604 7.098 C 2.232 7.288,2.019 7.604,2.020 7.966 C 2.022 8.338,2.246 8.691,2.616 8.903 L 2.783 8.999 9.328 9.000 L 15.872 9.000 15.849 9.108 C 15.808 9.301,15.595 9.908,15.442 10.267 C 15.167 10.915,14.926 11.267,14.236 12.033 C 13.997 12.299,13.776 12.568,13.746 12.630 C 13.678 12.772,13.671 13.100,13.731 13.311 C 13.789 13.515,14.041 13.798,14.258 13.902 C 14.500 14.019,14.824 14.011,15.085 13.884 C 15.433 13.714,16.229 12.865,16.683 12.181 C 17.448 11.026,17.958 9.443,17.976 8.167 C 17.981 7.785,17.975 7.737,17.900 7.589 C 17.806 7.402,17.600 7.202,17.395 7.097 C 17.254 7.026,17.209 7.023,15.872 7.003 L 14.495 6.983 13.802 5.067 C 12.838 2.400,12.868 2.472,12.650 2.273 C 12.551 2.182,12.428 2.098,12.377 2.085 C 12.099 2.017,6.348 1.982,3.717 2.032 M3.707 10.062 C 3.116 10.270,2.847 10.897,3.118 11.433 C 3.433 12.054,4.273 12.165,4.731 11.645 C 5.183 11.131,5.024 10.401,4.400 10.121 C 4.139 10.004,3.924 9.986,3.707 10.062 M7.707 10.062 C 7.116 10.270,6.847 10.897,7.118 11.433 C 7.433 12.054,8.273 12.165,8.731 11.645 C 9.183 11.131,9.024 10.401,8.400 10.121 C 8.139 10.004,7.924 9.986,7.707 10.062 M11.707 10.062 C 11.116 10.270,10.847 10.897,11.118 11.433 C 11.433 12.054,12.273 12.165,12.731 11.645 C 13.183 11.131,13.024 10.401,12.400 10.121 C 12.139 10.004,11.924 9.986,11.707 10.062 M4.317 15.129 C 4.225 15.183,4.013 15.346,3.845 15.490 C 3.480 15.804,3.302 15.906,2.949 16.002 C 2.478 16.131,2.266 16.278,2.108 16.583 C 1.990 16.812,1.986 17.177,2.097 17.408 C 2.263 17.750,2.654 18.000,3.024 18.000 C 3.411 18.000,3.993 17.809,4.460 17.529 C 4.613 17.437,4.748 17.367,4.761 17.373 C 4.773 17.379,4.937 17.471,5.124 17.578 C 6.092 18.131,6.807 18.132,7.853 17.582 L 8.255 17.371 8.569 17.552 C 9.174 17.900,9.711 18.034,10.243 17.968 C 10.692 17.912,11.121 17.752,11.525 17.491 L 11.752 17.344 11.918 17.458 C 12.873 18.120,13.958 18.138,14.993 17.510 C 15.205 17.381,15.254 17.363,15.307 17.397 C 15.556 17.552,16.034 17.780,16.300 17.870 C 16.565 17.960,16.669 17.978,16.933 17.981 C 17.203 17.983,17.271 17.972,17.393 17.907 C 17.763 17.710,17.968 17.397,17.971 17.027 C 17.973 16.736,17.914 16.559,17.757 16.380 C 17.588 16.189,17.382 16.085,17.005 16.003 C 16.623 15.920,16.577 15.894,16.221 15.578 C 15.629 15.051,15.555 15.014,15.161 15.042 C 14.881 15.061,14.753 15.135,14.333 15.515 C 13.948 15.864,13.758 15.967,13.500 15.967 C 13.242 15.967,13.052 15.864,12.667 15.515 C 12.200 15.092,12.117 15.050,11.750 15.050 C 11.383 15.050,11.300 15.092,10.833 15.515 C 10.448 15.864,10.258 15.967,10.000 15.967 C 9.742 15.967,9.552 15.864,9.167 15.515 C 8.700 15.092,8.617 15.050,8.250 15.050 C 7.880 15.050,7.798 15.092,7.317 15.531 C 6.925 15.888,6.758 15.981,6.500 15.982 C 6.245 15.984,6.080 15.893,5.683 15.531 C 5.218 15.107,5.123 15.056,4.769 15.042 C 4.501 15.031,4.473 15.036,4.317 15.129 " fill="#1A1C1F" stroke="none" fill-rule="evenodd"></path></svg>