<svg width="14" height="14" viewBox="0 0 14 14" fill="none" xmlns="http://www.w3.org/2000/svg"><path d="M2.578 1.422 C 1.816 1.437,1.796 1.441,1.613 1.617 C 1.471 1.753,1.418 1.881,1.418 2.086 C 1.418 2.184,1.433 2.288,1.454 2.339 C 1.504 2.457,1.690 2.651,1.832 2.733 L 1.948 2.800 4.912 2.800 L 7.875 2.800 8.071 3.296 C 8.535 4.474,8.682 4.860,8.668 4.873 C 8.660 4.881,7.137 4.896,5.283 4.905 L 1.912 4.923 1.797 4.982 C 1.354 5.206,1.279 5.742,1.643 6.086 C 1.710 6.150,1.809 6.224,1.862 6.251 L 1.958 6.300 6.534 6.300 L 11.110 6.300 11.094 6.376 C 11.039 6.633,10.834 7.156,10.649 7.513 C 10.492 7.816,10.378 7.970,9.986 8.400 C 9.618 8.805,9.582 8.866,9.581 9.088 C 9.580 9.299,9.647 9.457,9.800 9.600 C 9.950 9.740,10.056 9.783,10.256 9.785 C 10.389 9.787,10.444 9.775,10.549 9.724 C 10.869 9.568,11.520 8.830,11.844 8.258 C 12.294 7.463,12.571 6.508,12.583 5.717 C 12.586 5.450,12.582 5.415,12.530 5.313 C 12.461 5.175,12.306 5.028,12.162 4.965 C 12.062 4.921,11.992 4.916,11.100 4.903 L 10.146 4.888 9.798 3.920 C 9.307 2.558,9.081 1.947,9.013 1.803 C 8.947 1.665,8.764 1.485,8.663 1.460 C 8.471 1.412,4.416 1.387,2.578 1.422 M2.527 7.068 C 2.390 7.132,2.230 7.286,2.168 7.415 C 2.013 7.737,2.185 8.186,2.520 8.337 C 2.664 8.402,2.913 8.402,3.057 8.337 C 3.286 8.233,3.465 8.001,3.492 7.775 C 3.522 7.523,3.354 7.221,3.115 7.096 C 2.957 7.013,2.673 7.000,2.527 7.068 M5.327 7.068 C 5.190 7.132,5.030 7.286,4.968 7.415 C 4.813 7.737,4.985 8.186,5.320 8.337 C 5.464 8.402,5.713 8.402,5.857 8.337 C 6.086 8.233,6.265 8.001,6.292 7.775 C 6.322 7.523,6.154 7.221,5.915 7.096 C 5.757 7.013,5.473 7.000,5.327 7.068 M8.127 7.068 C 7.990 7.132,7.830 7.286,7.768 7.415 C 7.613 7.737,7.785 8.186,8.120 8.337 C 8.264 8.402,8.513 8.402,8.657 8.337 C 8.886 8.233,9.065 8.001,9.092 7.775 C 9.122 7.523,8.954 7.221,8.715 7.096 C 8.557 7.013,8.273 7.000,8.127 7.068 M3.022 10.590 C 2.958 10.628,2.809 10.742,2.691 10.843 C 2.436 11.063,2.311 11.134,2.064 11.201 C 1.962 11.229,1.831 11.276,1.773 11.306 C 1.482 11.454,1.349 11.786,1.445 12.122 C 1.471 12.211,1.512 12.272,1.620 12.379 C 1.837 12.595,2.026 12.640,2.396 12.563 C 2.632 12.515,2.885 12.412,3.122 12.270 C 3.229 12.206,3.323 12.157,3.332 12.161 C 3.341 12.165,3.456 12.230,3.587 12.305 C 4.258 12.688,4.767 12.692,5.477 12.318 C 5.622 12.242,5.756 12.180,5.775 12.180 C 5.794 12.180,5.903 12.232,6.015 12.297 C 6.429 12.532,6.803 12.623,7.170 12.577 C 7.484 12.538,7.785 12.426,8.068 12.244 L 8.227 12.141 8.342 12.221 C 8.525 12.347,8.814 12.479,9.028 12.533 C 9.288 12.598,9.704 12.587,9.952 12.507 C 10.132 12.450,10.381 12.331,10.555 12.221 C 10.651 12.160,10.675 12.153,10.714 12.177 C 10.889 12.287,11.223 12.446,11.404 12.506 C 11.701 12.605,11.937 12.622,12.113 12.555 C 12.396 12.448,12.577 12.200,12.580 11.919 C 12.581 11.715,12.540 11.591,12.430 11.466 C 12.312 11.332,12.167 11.260,11.904 11.202 C 11.788 11.177,11.663 11.141,11.627 11.122 C 11.591 11.103,11.441 10.981,11.293 10.850 C 11.146 10.719,10.993 10.595,10.955 10.574 C 10.905 10.546,10.826 10.535,10.675 10.535 C 10.417 10.535,10.354 10.567,10.031 10.861 C 9.765 11.104,9.631 11.177,9.450 11.177 C 9.269 11.177,9.137 11.105,8.867 10.860 C 8.540 10.565,8.482 10.535,8.225 10.535 C 7.967 10.535,7.903 10.567,7.581 10.861 C 7.315 11.104,7.181 11.177,7.000 11.177 C 6.819 11.177,6.687 11.105,6.417 10.860 C 6.090 10.565,6.032 10.535,5.775 10.535 C 5.516 10.535,5.459 10.565,5.122 10.872 C 4.848 11.122,4.730 11.186,4.550 11.188 C 4.371 11.189,4.256 11.125,3.978 10.872 C 3.652 10.575,3.586 10.539,3.338 10.529 C 3.151 10.521,3.131 10.525,3.022 10.590 " fill="#1A1C1F" stroke="none" fill-rule="evenodd"></path></svg>