<svg width="12" height="12" viewBox="0 0 12 12" fill="none" xmlns="http://www.w3.org/2000/svg"><path d="M1.616 1.518 C 1.490 1.536,1.363 1.630,1.300 1.752 L 1.250 1.849 1.237 2.879 C 1.231 3.446,1.224 4.833,1.222 5.962 L 1.220 8.014 1.282 8.102 C 1.363 8.217,1.428 8.273,1.550 8.332 C 1.666 8.387,1.770 8.392,1.968 8.350 C 2.203 8.300,2.422 8.182,2.635 7.990 L 2.740 7.896 2.835 7.975 C 3.316 8.371,3.784 8.473,4.245 8.280 C 4.319 8.249,4.469 8.160,4.577 8.082 C 4.686 8.004,4.782 7.940,4.791 7.940 C 4.800 7.940,4.881 7.989,4.971 8.050 C 5.156 8.174,5.464 8.324,5.604 8.358 C 5.966 8.444,6.384 8.302,6.830 7.941 C 6.885 7.897,6.940 7.860,6.953 7.860 C 6.965 7.860,7.057 7.908,7.157 7.967 C 7.657 8.263,8.176 8.299,8.649 8.071 C 9.014 7.895,9.477 7.441,9.827 6.917 C 10.294 6.214,10.765 5.249,10.765 4.990 C 10.766 4.826,10.667 4.667,10.497 4.558 L 10.391 4.490 9.561 4.480 L 8.732 4.470 8.632 4.068 L 8.533 3.666 7.951 3.653 C 7.632 3.646,6.645 3.640,5.760 3.639 C 4.875 3.639,4.111 3.631,4.064 3.622 C 3.902 3.590,3.720 3.397,3.679 3.213 C 3.632 3.002,3.733 2.798,3.949 2.672 L 4.037 2.620 6.097 2.620 C 7.400 2.620,8.176 2.613,8.209 2.600 C 8.269 2.578,8.274 2.614,8.156 2.180 C 8.034 1.733,8.011 1.685,7.873 1.590 L 7.756 1.510 4.733 1.507 C 3.070 1.506,1.668 1.511,1.616 1.518 M3.210 4.759 C 3.333 4.812,3.412 4.890,3.479 5.024 C 3.666 5.398,3.423 5.842,3.013 5.875 C 2.784 5.893,2.594 5.800,2.466 5.608 C 2.398 5.505,2.389 5.478,2.383 5.341 C 2.379 5.257,2.386 5.151,2.399 5.105 C 2.424 5.011,2.589 4.818,2.688 4.765 C 2.818 4.696,3.058 4.694,3.210 4.759 M5.610 4.759 C 5.733 4.812,5.812 4.890,5.879 5.024 C 6.066 5.398,5.823 5.842,5.413 5.875 C 5.184 5.893,4.994 5.800,4.866 5.608 C 4.798 5.505,4.789 5.478,4.783 5.341 C 4.779 5.257,4.786 5.151,4.799 5.105 C 4.824 5.011,4.989 4.818,5.088 4.765 C 5.218 4.696,5.458 4.694,5.610 4.759 M8.010 4.759 C 8.133 4.812,8.212 4.890,8.279 5.024 C 8.466 5.398,8.223 5.842,7.813 5.875 C 7.584 5.893,7.394 5.800,7.266 5.608 C 7.198 5.505,7.189 5.478,7.183 5.341 C 7.179 5.257,7.186 5.151,7.199 5.105 C 7.224 5.011,7.389 4.818,7.488 4.765 C 7.618 4.696,7.858 4.694,8.010 4.759 M4.595 8.927 C 4.501 8.962,4.438 9.011,4.205 9.226 C 4.101 9.322,3.970 9.421,3.908 9.452 C 3.803 9.503,3.789 9.505,3.703 9.482 C 3.566 9.446,3.398 9.344,3.140 9.141 C 3.014 9.041,2.879 8.951,2.840 8.940 C 2.801 8.929,2.708 8.920,2.633 8.920 C 2.478 8.920,2.470 8.924,2.206 9.143 C 1.990 9.323,1.946 9.348,1.712 9.412 C 1.471 9.479,1.372 9.547,1.295 9.699 C 1.229 9.829,1.220 10.002,1.275 10.117 C 1.361 10.299,1.559 10.420,1.769 10.420 C 1.992 10.419,2.358 10.302,2.574 10.163 L 2.691 10.086 2.791 10.155 C 2.953 10.268,3.278 10.415,3.460 10.459 C 3.668 10.509,3.954 10.513,4.125 10.469 C 4.272 10.431,4.383 10.378,4.610 10.239 L 4.784 10.132 4.847 10.169 C 5.316 10.445,5.671 10.549,5.981 10.501 C 6.247 10.460,6.514 10.352,6.788 10.174 L 6.926 10.085 7.046 10.173 C 7.178 10.270,7.388 10.375,7.576 10.439 C 8.010 10.585,8.475 10.501,8.962 10.189 L 9.100 10.100 9.222 10.190 C 9.526 10.413,9.986 10.556,10.228 10.502 C 10.448 10.453,10.614 10.266,10.634 10.045 C 10.648 9.892,10.616 9.797,10.513 9.685 C 10.414 9.578,10.326 9.531,10.171 9.502 C 9.986 9.468,9.868 9.401,9.600 9.180 C 9.463 9.067,9.321 8.962,9.286 8.947 C 9.203 8.912,8.997 8.912,8.914 8.947 C 8.879 8.962,8.742 9.060,8.610 9.166 C 8.184 9.507,8.050 9.550,7.798 9.425 C 7.728 9.390,7.595 9.301,7.502 9.226 C 7.161 8.949,7.133 8.933,6.990 8.924 C 6.777 8.910,6.743 8.924,6.435 9.156 C 6.121 9.392,5.997 9.461,5.857 9.475 C 5.697 9.491,5.560 9.422,5.208 9.145 C 5.110 9.068,4.991 8.985,4.944 8.961 C 4.833 8.905,4.691 8.892,4.595 8.927 " fill="#1A1C1F" stroke="none" fill-rule="evenodd"></path></svg>