<svg width="28" height="28" viewBox="0 0 28 28" fill="none" xmlns="http://www.w3.org/2000/svg"><path d="M4.373 3.111 L 3.123 3.128 2.918 3.333 C 2.663 3.588,2.578 3.850,2.660 4.128 C 2.730 4.366,2.894 4.584,3.091 4.704 C 3.240 4.794,3.369 4.797,9.263 4.824 C 12.574 4.840,15.398 4.870,15.537 4.892 C 15.863 4.943,15.998 5.097,16.195 5.643 C 16.318 5.981,16.753 7.390,16.753 7.448 C 16.753 7.458,14.638 7.469,12.052 7.471 C 9.466 7.473,6.789 7.489,6.104 7.506 C 4.951 7.535,4.849 7.545,4.728 7.633 C 4.558 7.757,4.386 8.095,4.388 8.305 C 4.390 8.631,4.622 8.980,4.923 9.106 C 5.033 9.152,6.399 9.169,11.180 9.183 L 17.296 9.202 17.630 10.329 C 17.814 10.949,17.977 11.522,17.993 11.601 L 18.022 11.745 17.003 11.776 C 16.442 11.793,13.810 11.809,11.153 11.812 C 8.497 11.815,5.620 11.831,4.760 11.847 C 2.984 11.882,2.991 11.881,2.770 12.257 C 2.588 12.567,2.591 12.854,2.778 13.120 C 2.856 13.231,2.986 13.366,3.066 13.420 C 3.209 13.517,3.257 13.518,6.793 13.549 C 8.763 13.566,12.006 13.580,14.000 13.580 C 15.994 13.580,18.947 13.594,20.564 13.611 L 23.503 13.642 23.466 13.883 C 23.418 14.187,23.138 15.115,22.953 15.582 C 22.718 16.175,22.273 16.993,21.952 17.421 C 21.784 17.644,21.336 18.148,20.956 18.541 C 20.247 19.274,20.113 19.454,20.113 19.676 C 20.113 19.994,20.447 20.403,20.807 20.525 C 21.164 20.647,21.656 20.353,22.381 19.587 C 23.453 18.453,24.164 17.363,24.662 16.089 C 25.184 14.752,25.514 12.768,25.284 12.343 C 25.185 12.159,24.976 11.965,24.811 11.903 C 24.728 11.871,23.797 11.841,22.289 11.822 L 19.899 11.792 19.065 9.011 C 17.896 5.116,17.719 4.580,17.480 4.230 C 17.263 3.913,16.810 3.521,16.450 3.340 C 16.322 3.275,16.070 3.201,15.890 3.175 C 15.558 3.126,6.797 3.078,4.373 3.111 M4.382 15.417 C 3.990 15.558,3.634 15.961,3.539 16.376 C 3.366 17.123,4.021 17.919,4.810 17.920 C 5.662 17.921,6.308 17.038,6.042 16.237 C 5.823 15.578,5.030 15.186,4.382 15.417 M8.648 15.453 C 8.224 15.659,7.887 16.183,7.887 16.637 C 7.887 17.162,8.294 17.706,8.798 17.852 C 9.511 18.060,10.228 17.666,10.435 16.954 C 10.603 16.376,10.323 15.785,9.744 15.496 C 9.388 15.318,8.960 15.301,8.648 15.453 M12.984 15.474 C 12.455 15.737,12.160 16.396,12.315 16.968 C 12.433 17.407,12.750 17.712,13.229 17.852 C 13.560 17.948,13.833 17.920,14.174 17.753 C 14.601 17.545,14.840 17.139,14.840 16.622 C 14.840 16.088,14.622 15.741,14.132 15.497 C 13.747 15.304,13.340 15.296,12.984 15.474 M17.488 15.420 C 16.983 15.600,16.648 16.087,16.650 16.637 C 16.654 17.735,17.952 18.315,18.778 17.589 C 19.107 17.299,19.202 17.087,19.203 16.637 C 19.203 16.308,19.186 16.233,19.063 16.010 C 18.764 15.470,18.073 15.211,17.488 15.420 M5.197 21.496 C 5.143 21.508,4.880 21.720,4.614 21.967 C 3.731 22.786,3.549 22.902,2.772 23.141 C 2.058 23.361,1.825 23.558,1.785 23.976 C 1.738 24.459,2.075 24.862,2.564 24.909 C 3.244 24.975,4.139 24.615,5.083 23.896 C 5.287 23.741,5.469 23.613,5.487 23.613 C 5.505 23.613,5.627 23.704,5.758 23.816 C 6.294 24.271,6.925 24.624,7.537 24.810 C 7.964 24.939,8.745 24.929,9.168 24.787 C 9.683 24.616,10.132 24.372,10.666 23.976 L 11.162 23.608 11.519 23.884 C 12.633 24.745,13.563 25.054,14.504 24.875 C 15.098 24.763,16.044 24.280,16.544 23.834 L 16.802 23.604 17.296 23.962 C 17.868 24.377,18.235 24.587,18.679 24.754 C 18.964 24.862,19.061 24.873,19.664 24.873 C 20.204 24.873,20.383 24.856,20.595 24.783 C 21.196 24.576,21.764 24.244,22.250 23.816 L 22.523 23.576 22.855 23.841 C 23.312 24.205,23.846 24.514,24.360 24.713 C 24.741 24.860,24.849 24.881,25.247 24.887 C 25.673 24.894,25.710 24.887,25.865 24.769 C 26.067 24.615,26.227 24.300,26.227 24.057 C 26.227 23.810,26.065 23.497,25.879 23.382 C 25.795 23.329,25.549 23.243,25.334 23.190 C 24.748 23.045,24.338 22.791,23.572 22.097 C 23.079 21.650,22.886 21.522,22.656 21.488 C 22.296 21.433,22.160 21.516,21.471 22.213 C 20.807 22.883,20.653 22.988,20.139 23.121 C 19.789 23.212,19.599 23.212,19.248 23.122 C 18.719 22.986,18.519 22.852,17.947 22.252 C 16.986 21.243,16.673 21.218,15.918 22.088 C 15.336 22.760,15.000 22.995,14.434 23.128 C 14.074 23.212,13.682 23.191,13.318 23.068 C 12.897 22.926,12.709 22.774,11.983 21.992 C 11.626 21.606,11.424 21.467,11.223 21.467 C 10.898 21.466,10.774 21.549,10.084 22.227 C 9.375 22.923,9.199 23.042,8.736 23.141 C 8.379 23.217,8.124 23.206,7.783 23.101 C 7.331 22.961,6.982 22.707,6.422 22.108 C 6.143 21.809,5.884 21.554,5.847 21.539 C 5.744 21.500,5.310 21.471,5.197 21.496 " fill="#1A1C1F" stroke="none" fill-rule="evenodd"></path></svg>