<svg width="28" height="28" viewBox="0 0 28 28" fill="none" xmlns="http://www.w3.org/2000/svg"><path d="M5.150 4.105 C 1.953 4.133,2.228 4.101,1.993 4.477 C 1.890 4.643,1.890 4.653,1.876 7.191 L 1.862 9.739 9.506 9.769 C 13.710 9.785,17.208 9.812,17.279 9.828 C 17.469 9.872,17.669 10.081,17.736 10.305 C 17.810 10.550,17.742 10.810,17.548 11.027 L 17.414 11.177 16.512 11.207 C 16.016 11.224,12.516 11.240,8.734 11.242 L 1.859 11.247 1.874 15.552 C 1.890 19.790,1.891 19.860,1.986 20.043 C 2.197 20.452,2.685 20.535,3.406 20.284 C 3.869 20.122,4.272 19.839,4.923 19.217 L 5.463 18.702 5.916 19.140 C 6.748 19.944,7.220 20.237,7.922 20.382 C 8.262 20.452,8.320 20.452,8.674 20.382 C 9.405 20.238,9.970 19.894,10.678 19.161 L 11.112 18.712 11.594 19.160 C 12.398 19.907,12.860 20.199,13.509 20.368 C 13.859 20.459,14.094 20.459,14.445 20.368 C 15.085 20.203,15.502 19.940,16.334 19.177 L 16.824 18.727 17.304 19.182 C 17.815 19.668,18.340 20.057,18.678 20.202 C 18.792 20.250,19.045 20.326,19.240 20.369 C 19.668 20.465,20.073 20.418,20.600 20.214 C 21.091 20.023,21.388 19.805,21.961 19.216 C 23.680 17.449,24.894 14.898,25.202 12.403 C 25.233 12.154,25.244 11.859,25.227 11.747 C 25.188 11.486,24.972 11.220,24.743 11.151 C 24.631 11.118,23.734 11.090,22.202 11.073 L 19.833 11.047 19.789 10.879 C 19.764 10.786,19.605 10.152,19.435 9.469 L 19.125 8.228 17.624 8.198 C 16.799 8.181,14.180 8.167,11.804 8.167 L 7.484 8.167 7.364 8.038 C 6.979 7.627,7.015 7.023,7.437 6.821 C 7.543 6.770,8.616 6.751,13.097 6.722 C 16.434 6.701,18.643 6.669,18.669 6.643 C 18.745 6.567,18.195 4.525,18.048 4.336 C 17.895 4.140,17.828 4.132,15.890 4.101 C 13.792 4.066,9.415 4.068,5.150 4.105 M5.689 13.630 C 6.171 13.734,6.532 14.171,6.532 14.653 C 6.532 15.095,6.180 15.574,5.776 15.683 C 5.312 15.808,4.841 15.637,4.585 15.251 C 4.479 15.090,4.454 14.997,4.442 14.703 C 4.430 14.408,4.445 14.316,4.535 14.141 C 4.654 13.910,4.939 13.685,5.186 13.627 C 5.409 13.574,5.429 13.574,5.689 13.630 M10.356 13.718 C 10.571 13.828,10.798 14.139,10.877 14.433 C 10.995 14.873,10.752 15.377,10.313 15.602 C 10.095 15.714,10.013 15.731,9.766 15.716 C 9.407 15.695,9.147 15.530,8.938 15.192 C 8.670 14.759,8.776 14.134,9.169 13.834 C 9.526 13.562,9.966 13.519,10.356 13.718 M14.723 13.731 C 15.025 13.891,15.235 14.212,15.285 14.588 C 15.311 14.789,15.296 14.853,15.159 15.118 C 15.036 15.355,14.953 15.451,14.773 15.562 C 14.573 15.685,14.501 15.703,14.206 15.703 C 13.905 15.703,13.846 15.688,13.667 15.562 C 13.336 15.330,13.189 15.078,13.169 14.710 C 13.154 14.436,13.169 14.364,13.287 14.140 C 13.387 13.948,13.474 13.854,13.629 13.768 C 13.970 13.580,14.409 13.564,14.723 13.731 M19.120 13.726 C 19.208 13.781,19.366 13.933,19.470 14.064 L 19.658 14.303 19.633 14.669 C 19.603 15.118,19.445 15.412,19.146 15.577 C 18.401 15.988,17.546 15.489,17.547 14.644 C 17.547 14.404,17.573 14.306,17.686 14.109 C 17.813 13.887,17.982 13.725,18.153 13.660 C 18.192 13.646,18.389 13.632,18.591 13.630 C 18.889 13.627,18.989 13.645,19.120 13.726 M5.157 20.805 C 5.080 20.855,4.828 21.068,4.597 21.280 C 3.746 22.057,3.374 22.286,2.711 22.440 C 2.279 22.541,2.032 22.702,1.928 22.950 C 1.796 23.267,1.971 23.651,2.334 23.838 C 2.507 23.928,2.587 23.942,2.800 23.918 C 3.541 23.837,4.323 23.461,5.174 22.779 L 5.471 22.541 5.687 22.719 C 6.329 23.249,6.866 23.570,7.441 23.765 C 7.803 23.888,7.930 23.909,8.330 23.908 C 8.726 23.907,8.859 23.885,9.207 23.765 C 9.691 23.599,10.212 23.293,10.759 22.857 L 11.155 22.541 11.510 22.823 C 12.259 23.418,12.751 23.691,13.312 23.823 C 13.660 23.905,14.339 23.914,14.644 23.841 C 15.153 23.718,15.983 23.247,16.624 22.716 L 16.844 22.534 17.160 22.786 C 17.636 23.167,18.031 23.419,18.451 23.613 C 18.948 23.842,19.177 23.893,19.712 23.893 C 20.465 23.893,21.073 23.640,22.049 22.921 C 22.299 22.737,22.516 22.587,22.533 22.588 C 22.550 22.589,22.784 22.757,23.053 22.962 C 23.831 23.554,24.655 23.911,25.250 23.915 C 25.645 23.917,25.907 23.762,26.049 23.440 C 26.132 23.252,26.137 23.203,26.087 23.035 C 26.014 22.791,25.764 22.556,25.513 22.495 C 24.727 22.303,24.295 22.068,23.614 21.459 C 22.921 20.840,22.743 20.720,22.520 20.720 C 22.281 20.720,22.128 20.822,21.504 21.397 C 20.904 21.950,20.399 22.285,20.016 22.385 C 19.724 22.460,19.692 22.460,19.401 22.381 C 18.946 22.258,18.479 21.959,17.835 21.378 C 17.212 20.816,17.068 20.720,16.847 20.720 C 16.618 20.720,16.393 20.867,15.843 21.373 C 15.089 22.068,14.635 22.342,14.097 22.428 C 13.661 22.498,12.983 22.127,12.101 21.337 C 11.451 20.754,11.401 20.720,11.211 20.720 C 10.970 20.720,10.783 20.822,10.429 21.144 C 9.621 21.883,9.180 22.193,8.716 22.349 C 8.352 22.473,8.263 22.471,7.864 22.330 C 7.473 22.192,7.061 21.917,6.556 21.457 C 5.870 20.832,5.758 20.754,5.517 20.734 C 5.354 20.720,5.260 20.739,5.157 20.805 " fill="#1A1C1F" stroke="none" fill-rule="evenodd"></path></svg>