<svg width="12" height="12" viewBox="0 0 12 12" fill="none" xmlns="http://www.w3.org/2000/svg"><path d="M4.200 1.947 L 4.200 2.395 3.965 2.409 C 3.539 2.434,3.367 2.491,3.123 2.688 C 2.914 2.855,2.790 3.031,2.720 3.257 C 2.648 3.490,2.529 3.982,2.348 4.795 L 2.213 5.400 1.706 5.400 L 1.200 5.400 1.200 6.000 L 1.200 6.600 1.505 6.600 C 1.673 6.600,1.820 6.607,1.832 6.615 C 1.845 6.624,1.882 6.867,1.918 7.190 C 2.043 8.294,2.096 8.503,2.330 8.808 L 2.400 8.900 2.400 9.700 L 2.400 10.500 3.150 10.500 L 3.900 10.500 3.900 10.002 C 3.900 9.728,3.905 9.491,3.911 9.476 C 3.919 9.453,3.949 9.452,4.096 9.473 C 5.204 9.630,6.796 9.630,7.904 9.473 C 8.051 9.452,8.081 9.453,8.089 9.476 C 8.095 9.491,8.100 9.728,8.100 10.002 L 8.100 10.500 8.850 10.500 L 9.600 10.500 9.600 9.701 L 9.600 8.902 9.695 8.776 C 9.907 8.497,9.964 8.252,10.090 7.091 C 10.118 6.838,10.140 6.624,10.140 6.616 C 10.140 6.607,10.288 6.600,10.470 6.600 L 10.800 6.600 10.800 6.000 L 10.800 5.400 10.291 5.400 L 9.783 5.400 9.760 5.285 C 9.643 4.706,9.377 3.561,9.297 3.290 C 9.218 3.024,9.113 2.873,8.874 2.684 C 8.630 2.490,8.454 2.432,8.045 2.408 L 7.800 2.394 7.800 1.947 L 7.800 1.500 6.000 1.500 L 4.200 1.500 4.200 1.947 M8.343 3.455 C 8.364 3.477,8.723 5.364,8.709 5.378 C 8.690 5.396,3.326 5.392,3.307 5.374 C 3.298 5.365,3.312 5.235,3.337 5.084 C 3.418 4.603,3.642 3.492,3.663 3.466 C 3.678 3.449,3.782 3.439,4.007 3.433 C 4.549 3.420,8.328 3.440,8.343 3.455 M4.200 7.210 L 4.200 7.720 3.600 7.720 L 3.000 7.720 3.000 7.210 L 3.000 6.700 3.600 6.700 L 4.200 6.700 4.200 7.210 M7.200 7.210 L 7.200 7.720 6.000 7.720 L 4.800 7.720 4.800 7.210 L 4.800 6.700 6.000 6.700 L 7.200 6.700 7.200 7.210 M9.000 7.210 L 9.000 7.720 8.400 7.720 L 7.800 7.720 7.800 7.210 L 7.800 6.700 8.400 6.700 L 9.000 6.700 9.000 7.210 " fill="#1A1C1F" stroke="none" fill-rule="evenodd"></path></svg>