<svg width="28" height="28" viewBox="0 0 28 28" fill="none" xmlns="http://www.w3.org/2000/svg"><path d="M10.986 2.747 C 10.346 3.043,10.358 3.937,11.007 4.257 L 11.223 4.363 13.977 4.363 C 15.491 4.363,16.789 4.347,16.861 4.327 C 16.933 4.307,17.085 4.204,17.199 4.099 C 17.532 3.793,17.581 3.402,17.334 3.023 C 17.102 2.668,17.259 2.685,14.047 2.671 C 11.319 2.660,11.167 2.663,10.986 2.747 M9.660 5.318 L 7.583 5.343 7.239 5.530 C 7.050 5.633,6.750 5.850,6.574 6.013 C 6.033 6.512,5.940 6.776,5.059 10.285 L 4.564 12.259 3.397 12.290 C 2.306 12.318,2.221 12.327,2.090 12.420 C 1.868 12.579,1.806 12.785,1.783 13.446 C 1.761 14.091,1.799 14.290,1.995 14.553 C 2.164 14.780,2.373 14.849,2.968 14.876 L 3.486 14.899 3.515 15.651 C 3.546 16.483,3.727 18.367,3.876 19.410 C 3.977 20.122,4.089 20.523,4.274 20.839 C 4.385 21.028,4.387 21.053,4.388 22.147 C 4.390 23.506,4.441 24.148,4.568 24.396 C 4.618 24.495,4.798 24.705,4.966 24.863 C 5.395 25.264,5.656 25.343,6.650 25.374 C 7.407 25.397,8.236 25.339,8.548 25.241 C 8.793 25.163,9.146 24.883,9.315 24.632 C 9.540 24.297,9.621 23.893,9.649 22.966 L 9.673 22.156 10.075 22.186 C 12.128 22.343,15.752 22.343,17.949 22.187 L 18.375 22.156 18.399 23.083 C 18.425 24.110,18.460 24.271,18.736 24.648 C 18.935 24.920,19.217 25.116,19.604 25.253 C 19.879 25.349,19.987 25.358,20.930 25.361 C 21.761 25.363,22.025 25.347,22.314 25.280 C 22.839 25.156,23.247 24.850,23.447 24.430 C 23.572 24.166,23.623 23.648,23.658 22.260 L 23.694 20.883 23.861 20.487 C 23.994 20.170,24.047 19.949,24.123 19.390 C 24.290 18.163,24.500 15.839,24.500 15.216 L 24.500 14.900 25.025 14.876 C 25.626 14.849,25.814 14.787,26.025 14.547 C 26.206 14.340,26.255 13.994,26.207 13.257 C 26.172 12.702,26.106 12.541,25.855 12.394 C 25.714 12.312,25.580 12.299,24.576 12.276 L 23.455 12.250 22.936 10.220 C 22.379 8.039,22.143 7.186,21.977 6.743 C 21.828 6.348,21.248 5.775,20.744 5.526 L 20.384 5.348 18.720 5.314 C 16.890 5.277,12.884 5.279,9.660 5.318 M17.827 7.041 C 20.300 7.074,20.160 7.049,20.367 7.487 C 20.535 7.843,21.560 11.831,21.560 12.130 C 21.560 12.211,21.478 12.218,20.195 12.249 C 18.575 12.288,6.461 12.263,6.418 12.221 C 6.362 12.164,7.513 7.749,7.661 7.454 C 7.710 7.358,7.836 7.216,7.942 7.139 L 8.134 7.000 11.895 7.006 C 13.964 7.009,16.633 7.024,17.827 7.041 M22.294 14.175 C 22.403 14.233,22.521 14.338,22.557 14.409 C 22.640 14.569,22.727 15.121,22.727 15.483 L 22.727 15.759 21.718 15.791 C 20.604 15.827,20.534 15.844,20.317 16.128 C 20.028 16.507,20.179 17.171,20.603 17.383 C 20.765 17.464,20.904 17.479,21.645 17.493 C 22.282 17.505,22.506 17.524,22.523 17.568 C 22.552 17.645,22.365 19.420,22.300 19.676 C 22.200 20.075,21.984 20.146,20.487 20.273 C 17.576 20.520,14.630 20.616,12.265 20.542 C 9.790 20.464,7.208 20.287,6.323 20.135 C 5.712 20.030,5.685 19.972,5.531 18.433 C 5.491 18.036,5.448 17.665,5.436 17.610 C 5.414 17.511,5.422 17.510,6.335 17.492 C 7.341 17.472,7.437 17.449,7.664 17.180 C 7.915 16.882,7.928 16.481,7.700 16.109 C 7.542 15.852,7.386 15.817,6.264 15.786 L 5.260 15.758 5.286 15.207 C 5.328 14.288,5.456 14.139,6.242 14.091 C 6.518 14.074,10.198 14.062,14.420 14.065 L 22.097 14.070 22.294 14.175 M10.188 16.691 C 10.031 16.724,9.717 17.093,9.680 17.289 C 9.636 17.526,9.683 17.820,9.789 17.963 C 9.839 18.029,9.966 18.145,10.073 18.221 L 10.268 18.358 13.989 18.361 C 18.076 18.364,17.788 18.384,18.119 18.067 C 18.420 17.780,18.456 17.385,18.217 17.018 C 17.988 16.667,18.201 16.684,14.023 16.677 C 11.970 16.673,10.244 16.679,10.188 16.691 M7.140 21.983 C 7.773 22.047,7.826 22.061,7.858 22.182 C 7.873 22.238,7.886 22.583,7.886 22.948 L 7.887 23.613 7.023 23.613 L 6.160 23.613 6.160 22.840 C 6.160 22.384,6.180 22.029,6.210 21.975 C 6.251 21.897,6.292 21.886,6.455 21.908 C 6.562 21.922,6.870 21.956,7.140 21.983 M21.887 22.750 L 21.887 23.613 21.020 23.613 L 20.154 23.613 20.168 22.865 C 20.180 22.284,20.198 22.107,20.249 22.076 C 20.285 22.054,20.516 22.012,20.762 21.985 C 21.009 21.957,21.273 21.926,21.350 21.917 C 21.427 21.908,21.579 21.898,21.688 21.894 L 21.887 21.887 21.887 22.750 " fill="#1A1C1F" stroke="none" fill-rule="evenodd"></path></svg>