<svg width="32" height="32" viewBox="0 0 32 32" fill="none" xmlns="http://www.w3.org/2000/svg"><path d="M12.550 3.142 C 12.275 3.269,12.050 3.592,12.014 3.914 C 11.979 4.227,12.188 4.618,12.516 4.854 L 12.753 5.025 15.990 5.004 C 19.530 4.982,19.325 5.001,19.694 4.648 C 20.036 4.322,20.080 3.868,19.810 3.455 C 19.545 3.049,19.725 3.068,16.053 3.053 C 12.908 3.039,12.764 3.043,12.550 3.142 M11.040 6.073 L 8.667 6.107 8.273 6.320 C 8.057 6.437,7.715 6.686,7.513 6.872 C 6.895 7.442,6.788 7.744,5.782 11.755 L 5.216 14.010 3.886 14.044 L 2.555 14.078 2.370 14.219 C 2.093 14.431,2.012 14.773,2.035 15.627 C 2.053 16.287,2.059 16.319,2.214 16.542 C 2.452 16.883,2.673 16.970,3.385 17.001 L 3.984 17.027 4.017 17.887 C 4.053 18.835,4.266 21.064,4.428 22.189 C 4.550 23.032,4.649 23.402,4.843 23.733 L 4.983 23.973 5.019 25.707 C 5.059 27.618,5.075 27.717,5.409 28.146 C 5.681 28.494,6.015 28.736,6.400 28.860 C 7.020 29.061,9.115 29.053,9.769 28.846 C 10.045 28.759,10.441 28.444,10.641 28.152 C 10.902 27.772,10.995 27.312,11.027 26.248 L 11.055 25.322 11.487 25.356 C 13.726 25.534,18.174 25.533,20.540 25.355 L 20.999 25.321 21.026 26.380 C 21.056 27.531,21.091 27.704,21.383 28.129 C 21.595 28.436,21.972 28.708,22.400 28.860 C 22.725 28.976,22.826 28.984,24.000 28.985 C 25.158 28.987,25.283 28.977,25.640 28.865 C 26.362 28.638,26.815 28.121,26.936 27.387 C 26.970 27.181,27.016 26.305,27.038 25.440 L 27.079 23.867 27.270 23.413 C 27.422 23.051,27.482 22.799,27.569 22.160 C 27.760 20.758,28.000 18.102,28.000 17.390 L 28.000 17.028 28.600 17.001 C 29.286 16.970,29.502 16.899,29.743 16.625 C 29.950 16.389,30.006 15.993,29.951 15.151 C 29.910 14.517,29.835 14.332,29.549 14.165 C 29.387 14.071,29.235 14.056,28.088 14.030 L 26.807 14.000 26.554 13.013 C 25.306 8.146,25.190 7.744,24.907 7.335 C 24.703 7.039,24.185 6.556,23.882 6.379 C 23.391 6.092,23.219 6.083,18.107 6.061 C 15.525 6.049,12.345 6.055,11.040 6.073 M20.373 8.046 C 23.199 8.085,23.040 8.057,23.275 8.555 C 23.467 8.959,24.640 13.522,24.640 13.862 C 24.640 13.956,24.554 13.963,23.080 13.999 C 21.254 14.042,7.384 14.015,7.337 13.968 C 7.272 13.903,8.586 8.857,8.756 8.519 C 8.811 8.409,8.955 8.247,9.076 8.159 L 9.296 8.000 13.595 8.006 C 15.959 8.010,19.009 8.028,20.373 8.046 M25.479 16.201 C 25.603 16.267,25.738 16.387,25.780 16.467 C 25.874 16.650,25.973 17.281,25.973 17.695 L 25.973 18.010 24.825 18.042 C 23.530 18.078,23.433 18.105,23.163 18.512 C 23.046 18.689,23.030 18.762,23.050 19.034 C 23.066 19.261,23.113 19.412,23.216 19.567 C 23.453 19.925,23.572 19.960,24.702 19.995 C 25.250 20.013,25.714 20.043,25.734 20.063 C 25.777 20.106,25.567 22.166,25.486 22.486 C 25.402 22.820,25.255 22.928,24.767 23.012 C 23.203 23.282,17.689 23.557,14.987 23.500 C 11.682 23.430,8.101 23.197,7.055 22.983 C 6.548 22.880,6.492 22.737,6.322 21.093 C 6.277 20.653,6.229 20.230,6.216 20.152 L 6.192 20.011 7.242 19.990 C 8.405 19.967,8.519 19.939,8.765 19.613 C 9.039 19.251,9.049 18.749,8.790 18.386 C 8.596 18.114,8.417 18.076,7.159 18.041 L 6.012 18.010 6.041 17.380 C 6.089 16.339,6.237 16.161,7.106 16.104 C 7.407 16.084,11.613 16.071,16.453 16.074 L 25.253 16.080 25.479 16.201 M11.680 19.077 C 11.607 19.091,11.470 19.176,11.375 19.266 C 10.954 19.670,10.921 20.261,11.297 20.658 C 11.627 21.007,11.335 20.987,15.947 20.987 C 18.249 20.987,20.201 20.968,20.283 20.945 C 20.366 20.922,20.539 20.805,20.670 20.685 C 21.052 20.333,21.106 19.888,20.820 19.449 C 20.558 19.048,20.798 19.068,16.053 19.059 C 13.721 19.055,11.753 19.063,11.680 19.077 M8.160 25.123 C 8.884 25.196,8.944 25.213,8.981 25.351 C 8.998 25.415,9.012 25.809,9.013 26.227 L 9.013 26.987 8.027 26.987 L 7.040 26.987 7.040 26.103 C 7.040 25.581,7.063 25.176,7.097 25.114 C 7.144 25.026,7.191 25.013,7.377 25.037 C 7.500 25.053,7.852 25.092,8.160 25.123 M25.013 26.000 L 25.013 26.987 24.023 26.987 L 23.033 26.987 23.050 26.131 C 23.063 25.467,23.083 25.266,23.142 25.230 C 23.183 25.204,23.447 25.157,23.728 25.125 C 24.010 25.093,24.312 25.059,24.400 25.048 C 24.488 25.038,24.662 25.026,24.787 25.021 L 25.013 25.013 25.013 26.000 " fill="#1A1C1F" stroke="none" fill-rule="evenodd"></path></svg>