<svg width="14" height="14" viewBox="0 0 14 14" fill="none" xmlns="http://www.w3.org/2000/svg"><path d="M4.900 2.272 L 4.900 2.794 4.626 2.810 C 4.129 2.840,3.928 2.906,3.643 3.135 C 3.400 3.331,3.255 3.536,3.174 3.800 C 3.090 4.071,2.951 4.646,2.739 5.594 L 2.582 6.300 1.991 6.300 L 1.400 6.300 1.400 7.000 L 1.400 7.700 1.756 7.700 C 1.952 7.701,2.123 7.708,2.138 7.718 C 2.153 7.728,2.195 8.013,2.238 8.388 C 2.383 9.671,2.454 9.950,2.722 10.282 L 2.800 10.380 2.800 11.315 L 2.800 12.250 3.675 12.250 L 4.550 12.250 4.550 11.669 C 4.550 11.349,4.556 11.073,4.562 11.055 C 4.573 11.028,4.607 11.027,4.778 11.052 C 6.076 11.236,7.924 11.236,9.222 11.052 C 9.393 11.027,9.427 11.028,9.438 11.055 C 9.444 11.073,9.450 11.349,9.450 11.669 L 9.450 12.250 10.325 12.250 L 11.200 12.250 11.200 11.308 C 11.200 10.523,11.206 10.361,11.233 10.338 C 11.298 10.284,11.455 10.019,11.512 9.868 C 11.598 9.640,11.654 9.312,11.747 8.500 C 11.793 8.100,11.830 7.756,11.830 7.736 C 11.830 7.705,11.883 7.700,12.215 7.700 L 12.600 7.700 12.600 7.000 L 12.600 6.300 12.007 6.300 L 11.413 6.300 11.386 6.166 C 11.301 5.744,11.020 4.503,10.930 4.153 C 10.791 3.612,10.732 3.489,10.503 3.268 C 10.166 2.942,9.959 2.854,9.444 2.816 L 9.100 2.790 9.100 2.270 L 9.100 1.750 7.000 1.750 L 4.900 1.750 4.900 2.272 M8.762 4.011 L 9.742 4.025 9.795 4.293 C 10.003 5.352,10.171 6.263,10.160 6.275 C 10.152 6.282,8.724 6.291,6.986 6.295 C 4.032 6.301,3.827 6.299,3.827 6.262 C 3.827 6.209,4.250 4.052,4.263 4.037 C 4.296 3.999,6.933 3.984,8.762 4.011 M4.900 8.412 L 4.900 9.007 4.200 9.007 L 3.500 9.007 3.500 8.412 L 3.500 7.817 4.200 7.817 L 4.900 7.817 4.900 8.412 M8.400 8.412 L 8.400 9.007 7.000 9.007 L 5.600 9.007 5.600 8.412 L 5.600 7.817 7.000 7.817 L 8.400 7.817 8.400 8.412 M10.500 8.412 L 10.500 9.007 9.800 9.007 L 9.100 9.007 9.100 8.412 L 9.100 7.817 9.800 7.817 L 10.500 7.817 10.500 8.412 " fill="#1A1C1F" stroke="none" fill-rule="evenodd"></path></svg>