<svg width="24" height="24" viewBox="0 0 24 24" fill="none" xmlns="http://www.w3.org/2000/svg"><path d="M10.280 2.039 C 9.887 2.054,9.623 2.083,9.560 2.116 C 9.416 2.193,9.163 2.441,9.093 2.575 C 9.008 2.737,9.007 3.262,9.092 3.425 C 9.183 3.599,9.534 3.905,9.711 3.964 C 9.824 4.001,10.383 4.007,12.074 3.989 L 14.290 3.965 14.474 3.852 C 14.864 3.611,15.047 3.199,14.957 2.765 C 14.918 2.578,14.877 2.510,14.683 2.316 L 14.455 2.088 14.157 2.066 C 13.695 2.030,10.971 2.012,10.280 2.039 M7.019 5.079 C 6.639 5.122,6.251 5.348,5.816 5.779 C 5.470 6.122,5.445 6.158,5.323 6.499 C 5.166 6.939,4.988 7.632,4.557 9.480 C 4.375 10.261,4.209 10.922,4.188 10.950 C 4.161 10.986,3.990 11.000,3.585 11.000 C 2.859 11.001,2.372 11.056,2.240 11.153 C 2.084 11.268,2.004 11.560,2.002 12.020 C 2.001 12.363,2.015 12.450,2.099 12.632 C 2.232 12.916,2.356 12.968,2.970 12.992 L 3.440 13.010 3.440 13.255 C 3.441 14.014,3.806 17.109,3.946 17.540 C 4.104 18.026,4.474 18.607,4.818 18.910 L 4.991 19.063 5.007 20.181 C 5.024 21.431,5.024 21.428,5.315 21.691 C 5.628 21.973,5.655 21.980,6.500 21.974 C 6.939 21.971,7.306 21.951,7.370 21.926 C 7.528 21.863,7.821 21.580,7.900 21.415 C 7.949 21.312,7.972 21.126,7.985 20.727 C 7.995 20.426,8.013 20.104,8.024 20.010 L 8.045 19.840 8.276 19.840 C 8.404 19.840,8.884 19.871,9.344 19.908 C 10.518 20.003,13.482 20.003,14.656 19.908 C 15.671 19.825,15.959 19.821,15.962 19.890 C 16.025 21.378,16.030 21.409,16.283 21.697 C 16.480 21.921,16.708 21.975,17.480 21.977 C 17.843 21.979,18.210 21.965,18.295 21.947 C 18.496 21.905,18.861 21.566,18.924 21.365 C 18.950 21.282,18.978 20.770,18.989 20.163 L 19.010 19.105 19.305 18.773 C 20.015 17.975,20.123 17.642,20.357 15.540 C 20.436 14.833,20.494 14.160,20.542 13.395 L 20.567 13.010 21.033 12.992 C 21.624 12.970,21.755 12.915,21.898 12.628 C 21.987 12.449,22.000 12.375,21.998 12.022 C 21.996 11.560,21.916 11.268,21.760 11.153 C 21.628 11.056,21.141 11.001,20.415 11.000 C 20.011 11.000,19.839 10.986,19.810 10.950 C 19.789 10.922,19.641 10.342,19.482 9.660 C 18.886 7.104,18.708 6.459,18.514 6.153 C 18.322 5.850,17.847 5.428,17.512 5.262 C 17.268 5.142,17.147 5.109,16.837 5.079 C 16.405 5.037,7.384 5.037,7.019 5.079 M15.249 7.040 L 16.724 7.040 16.784 7.183 C 16.950 7.580,17.732 10.879,17.674 10.940 C 17.628 10.988,9.443 11.019,7.570 10.978 C 6.360 10.952,6.320 10.948,6.320 10.872 C 6.320 10.758,6.605 9.511,6.903 8.320 C 7.222 7.043,7.196 7.131,7.274 7.095 C 7.385 7.043,9.589 7.008,11.737 7.025 C 12.857 7.033,14.437 7.040,15.249 7.040 M18.253 13.083 C 18.491 13.149,18.545 13.287,18.527 13.784 L 18.520 13.988 18.134 14.013 C 17.676 14.043,17.467 14.129,17.259 14.372 C 16.843 14.858,16.972 15.570,17.528 15.854 C 17.681 15.932,17.836 15.975,18.019 15.990 L 18.285 16.011 18.260 16.176 C 18.155 16.861,18.106 17.052,17.985 17.231 C 17.739 17.599,17.450 17.673,15.700 17.819 C 13.062 18.038,11.223 18.048,8.740 17.858 C 7.192 17.739,6.582 17.654,6.316 17.518 C 6.026 17.370,5.871 17.060,5.778 16.445 C 5.747 16.233,5.720 16.047,5.720 16.030 C 5.720 16.014,5.798 16.000,5.893 16.000 C 6.511 16.000,6.972 15.574,6.976 15.000 C 6.978 14.703,6.892 14.501,6.674 14.292 C 6.482 14.108,6.299 14.046,5.864 14.015 L 5.480 13.988 5.480 13.651 C 5.480 13.466,5.498 13.280,5.521 13.238 C 5.611 13.071,5.687 13.061,7.100 13.035 C 9.213 12.997,18.080 13.035,18.253 13.083 M10.392 14.039 L 9.644 14.062 9.472 14.182 C 9.252 14.336,9.052 14.634,9.018 14.857 C 8.955 15.279,9.280 15.811,9.669 15.924 C 9.934 16.002,14.093 16.005,14.348 15.929 C 14.651 15.837,15.000 15.338,15.000 14.994 C 15.000 14.765,14.844 14.451,14.637 14.265 C 14.444 14.091,14.431 14.087,14.110 14.065 C 13.595 14.030,11.221 14.014,10.392 14.039 " fill="#1A1C1F" stroke="none" fill-rule="evenodd"></path></svg>