<svg width="28" height="28" viewBox="0 0 28 28" fill="none" xmlns="http://www.w3.org/2000/svg"><path d="M11.014 3.254 C 10.786 3.370,10.631 3.654,10.656 3.909 C 10.679 4.149,10.876 4.463,11.050 4.538 C 11.140 4.577,11.987 4.598,13.992 4.610 L 16.806 4.628 16.959 4.523 C 17.318 4.277,17.434 3.916,17.267 3.571 C 17.074 3.172,17.289 3.198,14.049 3.184 C 11.375 3.172,11.165 3.177,11.014 3.254 M8.090 5.829 C 7.450 5.873,7.136 6.026,6.603 6.553 C 6.228 6.924,6.213 6.947,6.076 7.376 C 5.888 7.963,5.596 9.061,5.108 11.018 L 4.705 12.632 3.468 12.663 C 2.318 12.692,2.221 12.701,2.095 12.791 C 1.832 12.978,1.797 13.109,1.797 13.907 C 1.797 14.779,1.848 14.928,2.216 15.118 C 2.410 15.217,2.518 15.235,3.014 15.252 L 3.587 15.271 3.610 15.557 C 3.622 15.715,3.677 16.412,3.730 17.108 C 3.910 19.442,4.058 20.477,4.278 20.939 C 4.391 21.179,4.890 21.695,5.170 21.863 L 5.403 22.002 5.421 23.100 C 5.440 24.341,5.452 24.388,5.821 24.669 C 6.007 24.811,6.038 24.818,6.612 24.852 C 6.960 24.872,7.382 24.867,7.620 24.840 C 8.069 24.788,8.264 24.680,8.482 24.360 C 8.582 24.213,8.587 24.165,8.587 23.251 L 8.587 22.295 8.728 22.323 C 9.588 22.495,14.795 22.604,16.917 22.494 C 18.031 22.436,19.119 22.359,19.280 22.326 L 19.402 22.302 19.421 23.226 C 19.443 24.284,19.478 24.412,19.819 24.669 C 20.007 24.811,20.038 24.818,20.612 24.852 C 20.960 24.872,21.382 24.867,21.620 24.840 C 22.069 24.788,22.264 24.680,22.482 24.360 C 22.583 24.211,22.587 24.171,22.587 23.077 L 22.587 21.948 22.781 21.860 C 22.888 21.812,23.110 21.640,23.274 21.478 C 23.622 21.135,23.809 20.777,23.915 20.253 C 24.053 19.565,24.359 16.402,24.360 15.650 L 24.360 15.271 25.006 15.253 C 25.612 15.236,25.664 15.227,25.839 15.112 C 26.148 14.907,26.197 14.744,26.200 13.907 C 26.202 13.261,26.192 13.166,26.108 13.022 C 25.919 12.698,25.840 12.680,24.508 12.650 L 23.317 12.623 22.749 10.405 C 22.066 7.737,21.965 7.375,21.813 7.061 C 21.650 6.724,21.107 6.227,20.647 5.994 L 20.285 5.810 14.424 5.803 C 11.201 5.800,8.351 5.812,8.090 5.829 M20.057 7.346 C 20.127 7.382,20.254 7.485,20.339 7.574 C 20.529 7.772,20.641 8.139,21.207 10.430 C 21.682 12.348,21.725 12.544,21.680 12.589 C 21.626 12.642,6.253 12.665,6.253 12.611 C 6.253 12.496,7.223 8.782,7.446 8.042 C 7.543 7.719,7.591 7.634,7.753 7.496 C 7.858 7.406,8.010 7.323,8.090 7.313 C 8.171 7.303,10.868 7.292,14.084 7.287 C 19.045 7.281,19.950 7.290,20.057 7.346 M8.295 16.257 C 8.489 16.358,8.667 16.628,8.707 16.882 C 8.772 17.291,8.458 17.754,8.065 17.830 C 7.765 17.888,6.121 17.881,5.903 17.821 C 5.534 17.719,5.217 17.212,5.291 16.841 C 5.330 16.644,5.490 16.393,5.638 16.296 C 5.813 16.181,6.158 16.153,7.210 16.166 C 7.979 16.176,8.170 16.192,8.295 16.257 M22.295 16.257 C 22.489 16.358,22.667 16.628,22.707 16.882 C 22.772 17.291,22.458 17.754,22.065 17.830 C 21.765 17.888,20.121 17.881,19.903 17.821 C 19.534 17.719,19.217 17.212,19.291 16.841 C 19.330 16.644,19.490 16.393,19.638 16.296 C 19.813 16.181,20.158 16.153,21.210 16.166 C 21.979 16.176,22.170 16.192,22.295 16.257 M16.927 17.086 C 17.010 17.112,17.162 17.229,17.266 17.346 C 17.445 17.550,17.453 17.574,17.453 17.872 C 17.453 18.162,17.442 18.197,17.285 18.379 C 16.964 18.755,17.132 18.734,14.288 18.752 C 11.077 18.773,10.877 18.749,10.654 18.325 C 10.540 18.106,10.545 17.613,10.663 17.412 C 10.856 17.085,10.932 17.060,11.822 17.027 C 12.954 16.985,16.744 17.029,16.927 17.086 " fill="#1A1C1F" stroke="none" fill-rule="evenodd"></path></svg>