<svg width="20" height="20" viewBox="0 0 20 20" fill="none" xmlns="http://www.w3.org/2000/svg"><path d="M7.000 3.245 L 7.000 3.991 6.608 4.014 C 5.898 4.057,5.612 4.151,5.204 4.479 C 4.857 4.759,4.650 5.051,4.534 5.429 C 4.416 5.810,4.222 6.611,3.912 7.992 L 3.686 9.000 2.843 9.000 L 2.000 9.000 2.000 10.000 L 2.000 11.000 2.508 11.001 C 2.788 11.001,3.033 11.012,3.054 11.026 C 3.075 11.040,3.136 11.446,3.197 11.983 C 3.401 13.797,3.509 14.218,3.888 14.689 L 4.000 14.828 4.000 16.164 L 4.000 17.500 5.250 17.500 L 6.500 17.500 6.500 16.669 C 6.500 16.213,6.508 15.818,6.518 15.793 C 6.532 15.754,6.581 15.753,6.818 15.788 C 7.922 15.949,9.601 16.023,10.935 15.970 C 11.850 15.933,12.616 15.871,13.182 15.788 C 13.419 15.753,13.468 15.754,13.482 15.793 C 13.492 15.818,13.500 16.213,13.500 16.669 L 13.500 17.500 14.750 17.500 L 16.000 17.500 16.000 16.152 C 16.000 15.209,16.011 14.797,16.037 14.781 C 16.057 14.769,16.145 14.649,16.232 14.516 C 16.405 14.251,16.533 13.888,16.616 13.433 C 16.661 13.181,16.900 11.182,16.900 11.052 C 16.900 11.007,16.974 11.000,17.450 11.000 L 18.000 11.000 18.000 10.000 L 18.000 9.000 17.156 9.000 L 16.311 9.000 16.236 8.642 C 16.088 7.936,15.600 5.844,15.515 5.552 C 15.391 5.127,15.299 4.967,15.013 4.681 C 14.535 4.203,14.255 4.082,13.494 4.024 L 13.000 3.987 13.000 3.243 L 13.000 2.500 10.000 2.500 L 7.000 2.500 7.000 3.245 M12.567 5.730 L 13.917 5.750 13.992 6.133 C 14.277 7.571,14.530 8.947,14.514 8.964 C 14.503 8.975,12.463 8.987,9.981 8.992 C 5.718 9.001,5.467 8.998,5.467 8.944 C 5.467 8.868,6.071 5.788,6.091 5.767 C 6.138 5.713,10.030 5.691,12.567 5.730 M7.000 12.017 L 7.000 12.867 6.000 12.867 L 5.000 12.867 5.000 12.017 L 5.000 11.167 6.000 11.167 L 7.000 11.167 7.000 12.017 M12.000 12.017 L 12.000 12.867 10.000 12.867 L 8.000 12.867 8.000 12.017 L 8.000 11.167 10.000 11.167 L 12.000 11.167 12.000 12.017 M15.000 12.017 L 15.000 12.867 14.000 12.867 L 13.000 12.867 13.000 12.017 L 13.000 11.167 14.000 11.167 L 15.000 11.167 15.000 12.017 " fill="#1A1C1F" stroke="none" fill-rule="evenodd"></path></svg>