<svg width="16" height="16" viewBox="0 0 16 16" fill="none" xmlns="http://www.w3.org/2000/svg"><path d="M5.600 2.596 L 5.600 3.193 5.287 3.211 C 4.718 3.245,4.490 3.321,4.163 3.583 C 3.912 3.786,3.725 4.038,3.643 4.287 C 3.560 4.537,3.372 5.307,3.130 6.393 L 2.950 7.200 2.275 7.200 L 1.600 7.200 1.600 8.000 L 1.600 8.800 2.007 8.800 C 2.230 8.801,2.427 8.810,2.443 8.820 C 2.460 8.832,2.504 9.115,2.545 9.480 C 2.720 11.040,2.797 11.356,3.094 11.731 L 3.200 11.865 3.200 12.933 L 3.200 14.000 4.200 14.000 L 5.200 14.000 5.200 13.336 C 5.200 12.703,5.209 12.573,5.251 12.598 C 5.281 12.617,6.173 12.715,6.627 12.750 C 7.177 12.791,8.823 12.791,9.373 12.750 C 9.827 12.715,10.719 12.617,10.749 12.598 C 10.791 12.573,10.800 12.703,10.800 13.336 L 10.800 14.000 11.800 14.000 L 12.800 14.000 12.800 12.935 L 12.800 11.870 12.942 11.671 C 13.205 11.305,13.277 11.015,13.425 9.715 C 13.477 9.257,13.520 8.864,13.520 8.841 C 13.520 8.806,13.581 8.800,13.960 8.800 L 14.400 8.800 14.400 8.000 L 14.400 7.200 13.724 7.200 L 13.049 7.200 12.989 6.913 C 12.870 6.349,12.480 4.676,12.412 4.442 C 12.311 4.094,12.236 3.968,11.985 3.719 C 11.811 3.546,11.710 3.471,11.540 3.387 C 11.296 3.267,11.170 3.240,10.712 3.212 L 10.400 3.193 10.400 2.596 L 10.400 2.000 8.000 2.000 L 5.600 2.000 5.600 2.596 M11.124 4.607 C 11.152 4.636,11.630 7.152,11.612 7.170 C 11.603 7.179,9.965 7.190,7.972 7.194 C 5.045 7.200,4.350 7.195,4.359 7.167 C 4.366 7.149,4.481 6.569,4.616 5.880 C 4.750 5.191,4.866 4.621,4.872 4.613 C 4.903 4.579,6.022 4.567,8.453 4.577 C 9.912 4.583,11.114 4.597,11.124 4.607 M5.600 9.613 L 5.600 10.293 4.800 10.293 L 4.000 10.293 4.000 9.613 L 4.000 8.933 4.800 8.933 L 5.600 8.933 5.600 9.613 M9.600 9.613 L 9.600 10.293 8.000 10.293 L 6.400 10.293 6.400 9.613 L 6.400 8.933 8.000 8.933 L 9.600 8.933 9.600 9.613 M12.000 9.613 L 12.000 10.293 11.200 10.293 L 10.400 10.293 10.400 9.613 L 10.400 8.933 11.200 8.933 L 12.000 8.933 12.000 9.613 " fill="#1A1C1F" stroke="none" fill-rule="evenodd"></path></svg>