<svg width="14" height="14" viewBox="0 0 14 14" fill="none" xmlns="http://www.w3.org/2000/svg"><path d="M4.900 2.272 L 4.900 2.794 4.626 2.810 C 4.129 2.840,3.928 2.906,3.643 3.135 C 3.400 3.331,3.255 3.536,3.174 3.800 C 3.090 4.071,2.951 4.646,2.739 5.594 L 2.582 6.300 1.991 6.300 L 1.400 6.300 1.400 7.000 L 1.400 7.700 1.756 7.700 C 1.952 7.701,2.124 7.708,2.138 7.718 C 2.152 7.727,2.182 7.893,2.203 8.085 C 2.293 8.887,2.381 9.519,2.426 9.678 C 2.486 9.892,2.594 10.121,2.700 10.260 L 2.782 10.367 2.795 11.309 L 2.807 12.250 3.678 12.250 L 4.550 12.250 4.550 11.669 C 4.550 11.349,4.556 11.073,4.562 11.055 C 4.573 11.028,4.607 11.027,4.778 11.052 C 6.076 11.236,7.924 11.236,9.222 11.052 C 9.393 11.027,9.427 11.028,9.438 11.055 C 9.444 11.073,9.450 11.349,9.450 11.669 L 9.450 12.250 10.325 12.250 L 11.200 12.250 11.200 11.318 L 11.200 10.386 11.302 10.239 C 11.561 9.866,11.604 9.695,11.747 8.478 C 11.793 8.091,11.830 7.758,11.830 7.737 C 11.830 7.705,11.878 7.700,12.215 7.700 L 12.600 7.700 12.600 7.000 L 12.600 6.300 12.011 6.300 L 11.422 6.300 11.297 5.734 C 10.852 3.708,10.810 3.582,10.475 3.249 C 10.155 2.930,9.931 2.839,9.393 2.809 L 9.100 2.793 9.100 2.272 L 9.100 1.750 7.000 1.750 L 4.900 1.750 4.900 2.272 M8.762 4.011 L 9.742 4.025 9.795 4.293 C 10.003 5.352,10.171 6.263,10.160 6.275 C 10.152 6.282,8.724 6.291,6.986 6.295 C 4.032 6.301,3.827 6.299,3.827 6.262 C 3.827 6.209,4.250 4.052,4.263 4.037 C 4.296 3.999,6.933 3.984,8.762 4.011 M4.713 8.412 L 4.713 9.007 4.107 9.007 L 3.500 9.007 3.500 8.412 L 3.500 7.817 4.107 7.817 L 4.713 7.817 4.713 8.412 M8.400 8.412 L 8.400 9.007 7.000 9.007 L 5.600 9.007 5.600 8.412 L 5.600 7.817 7.000 7.817 L 8.400 7.817 8.400 8.412 M10.500 8.412 L 10.500 9.007 9.893 9.007 L 9.287 9.007 9.287 8.412 L 9.287 7.817 9.893 7.817 L 10.500 7.817 10.500 8.412 " fill="#1A1C1F" stroke="none" fill-rule="evenodd"></path></svg>