<svg width="12" height="12" viewBox="0 0 12 12" fill="none" xmlns="http://www.w3.org/2000/svg"><path d="M4.200 1.947 L 4.200 2.395 3.965 2.409 C 3.539 2.434,3.367 2.491,3.123 2.688 C 2.914 2.855,2.790 3.031,2.720 3.257 C 2.648 3.490,2.529 3.982,2.348 4.795 L 2.213 5.400 1.706 5.400 L 1.200 5.400 1.200 6.000 L 1.200 6.600 1.505 6.600 C 1.673 6.600,1.820 6.607,1.833 6.615 C 1.845 6.623,1.870 6.765,1.889 6.930 C 1.966 7.617,2.041 8.159,2.080 8.295 C 2.131 8.480,2.220 8.669,2.313 8.790 L 2.386 8.885 2.396 9.693 L 2.406 10.500 3.153 10.500 L 3.900 10.500 3.900 10.002 C 3.900 9.728,3.905 9.491,3.911 9.476 C 3.919 9.453,3.949 9.452,4.096 9.473 C 5.204 9.630,6.796 9.630,7.904 9.473 C 8.051 9.452,8.081 9.453,8.089 9.476 C 8.095 9.491,8.100 9.728,8.100 10.002 L 8.100 10.500 8.850 10.500 L 9.600 10.500 9.600 9.701 L 9.600 8.902 9.688 8.776 C 9.910 8.455,9.949 8.303,10.069 7.258 C 10.108 6.921,10.140 6.636,10.140 6.623 C 10.140 6.607,10.235 6.600,10.470 6.600 L 10.800 6.600 10.800 6.000 L 10.800 5.400 10.290 5.400 C 10.010 5.400,9.780 5.396,9.780 5.391 C 9.780 5.315,9.455 3.885,9.341 3.460 C 9.233 3.057,9.094 2.838,8.828 2.648 C 8.583 2.473,8.312 2.400,7.908 2.400 L 7.800 2.400 7.800 1.950 L 7.800 1.500 6.000 1.500 L 4.200 1.500 4.200 1.947 M8.343 3.455 C 8.364 3.477,8.723 5.364,8.709 5.378 C 8.690 5.396,3.326 5.392,3.307 5.374 C 3.298 5.365,3.312 5.235,3.337 5.084 C 3.418 4.603,3.642 3.492,3.663 3.466 C 3.678 3.449,3.782 3.439,4.007 3.433 C 4.549 3.420,8.328 3.440,8.343 3.455 M4.040 7.210 L 4.040 7.720 3.520 7.720 L 3.000 7.720 3.000 7.210 L 3.000 6.700 3.520 6.700 L 4.040 6.700 4.040 7.210 M7.200 7.210 L 7.200 7.720 6.000 7.720 L 4.800 7.720 4.800 7.210 L 4.800 6.700 6.000 6.700 L 7.200 6.700 7.200 7.210 M9.000 7.210 L 9.000 7.720 8.480 7.720 L 7.960 7.720 7.960 7.210 L 7.960 6.700 8.480 6.700 L 9.000 6.700 9.000 7.210 " fill="#1A1C1F" stroke="none" fill-rule="evenodd"></path></svg>