<svg width="28" height="28" viewBox="0 0 28 28" fill="none" xmlns="http://www.w3.org/2000/svg"><path d="M11.395 1.870 C 9.180 2.141,7.518 3.410,6.360 5.714 C 5.717 6.993,5.429 8.121,5.321 9.777 C 5.261 10.694,5.260 14.440,5.320 15.097 C 5.394 15.906,5.425 15.993,5.869 16.627 C 7.094 18.375,7.756 19.141,8.809 20.022 C 9.678 20.749,10.894 21.581,11.306 21.729 C 11.693 21.869,14.136 21.931,15.732 21.843 C 16.611 21.794,16.768 21.741,17.548 21.225 C 18.726 20.447,19.727 19.629,20.336 18.947 C 21.184 17.998,22.501 16.219,22.583 15.913 C 22.608 15.824,22.653 15.388,22.683 14.946 C 22.748 14.014,22.717 10.285,22.635 9.310 C 22.497 7.655,21.949 6.054,21.073 4.745 C 20.027 3.184,18.811 2.317,17.127 1.934 C 16.825 1.866,16.431 1.853,14.257 1.841 C 12.871 1.834,11.583 1.847,11.395 1.870 M14.607 4.434 C 15.809 4.491,16.236 4.540,16.810 4.686 C 18.159 5.028,18.999 5.615,19.521 6.580 C 20.012 7.486,20.046 8.429,19.645 10.025 C 19.258 11.571,18.713 12.252,17.640 12.530 C 15.766 13.017,12.825 13.046,10.642 12.600 C 9.999 12.469,9.610 12.262,9.205 11.835 C 8.789 11.398,8.642 11.092,8.404 10.170 C 8.154 9.203,8.074 8.705,8.073 8.118 C 8.073 7.547,8.148 7.211,8.379 6.743 C 8.967 5.549,9.999 4.891,11.782 4.572 C 12.798 4.390,13.225 4.369,14.607 4.434 M10.515 15.374 C 10.880 15.505,10.947 15.621,11.339 16.799 C 11.640 17.708,11.853 18.490,11.853 18.689 C 11.853 18.899,11.681 19.168,11.465 19.294 C 11.165 19.470,10.898 19.491,10.640 19.358 C 10.362 19.215,10.227 18.942,9.793 17.640 C 9.500 16.763,9.456 16.583,9.437 16.213 L 9.416 15.789 9.572 15.611 C 9.831 15.316,10.137 15.240,10.515 15.374 M18.110 15.449 C 18.630 15.714,18.606 16.211,17.988 18.013 C 17.592 19.170,17.456 19.375,17.039 19.441 C 16.768 19.484,16.469 19.362,16.265 19.122 C 16.041 18.861,16.020 18.697,16.146 18.184 C 16.278 17.647,16.809 16.029,16.932 15.789 C 17.027 15.604,17.191 15.431,17.313 15.386 C 17.489 15.322,17.930 15.356,18.110 15.449 M6.325 20.442 C 6.482 21.032,6.799 21.984,6.955 22.332 C 7.252 22.996,7.899 23.918,8.362 24.337 C 8.577 24.531,8.924 24.773,9.450 25.093 C 9.563 25.162,9.595 25.221,9.621 25.403 C 9.662 25.686,9.836 25.954,10.089 26.121 L 10.283 26.250 14.000 26.250 L 17.717 26.250 17.911 26.121 C 18.164 25.954,18.338 25.686,18.379 25.403 C 18.408 25.196,18.428 25.169,18.620 25.067 C 19.427 24.638,19.922 24.171,20.510 23.285 C 20.886 22.717,21.150 22.196,21.299 21.723 C 21.488 21.124,21.705 20.290,21.690 20.218 C 21.682 20.177,21.520 20.295,21.257 20.536 C 19.550 22.096,17.856 23.249,16.975 23.449 C 16.298 23.603,13.521 23.668,12.039 23.564 C 10.851 23.480,10.463 23.342,9.400 22.627 C 8.233 21.841,7.429 21.197,6.592 20.377 L 6.208 20.000 6.325 20.442 " fill="#1A1C1F" stroke="none" fill-rule="evenodd"></path></svg>