<svg width="28" height="28" viewBox="0 0 28 28" fill="none" xmlns="http://www.w3.org/2000/svg"><path d="M7.887 1.869 C 6.913 1.986,5.925 2.356,5.180 2.883 C 3.852 3.821,2.679 5.613,2.172 7.479 C 1.871 8.589,1.821 9.163,1.788 11.877 C 1.762 14.034,1.807 15.424,1.916 15.828 C 1.973 16.040,2.573 16.945,3.282 17.888 C 4.077 18.945,4.923 19.765,6.176 20.695 C 7.258 21.498,7.797 21.770,8.488 21.863 L 8.740 21.897 8.706 21.507 C 8.675 21.148,8.602 20.669,8.575 20.648 C 8.568 20.644,8.347 20.500,8.083 20.330 C 7.515 19.964,7.034 19.494,6.830 19.108 C 6.601 18.675,6.017 16.825,5.906 16.184 C 5.875 15.999,5.961 15.731,6.103 15.570 C 6.220 15.439,6.530 15.309,6.729 15.308 C 7.195 15.305,7.442 15.569,7.697 16.343 L 7.799 16.655 8.023 16.495 C 8.324 16.278,8.691 16.118,9.037 16.052 L 9.324 15.996 9.426 15.546 C 9.482 15.299,9.647 14.608,9.794 14.012 L 10.060 12.927 9.752 12.927 C 9.358 12.927,8.120 12.773,7.321 12.626 C 6.492 12.473,6.152 12.306,5.705 11.835 C 5.334 11.445,5.157 11.117,4.974 10.476 C 4.743 9.672,4.617 8.959,4.589 8.307 C 4.559 7.582,4.611 7.303,4.882 6.747 C 5.491 5.499,6.587 4.820,8.447 4.539 C 9.216 4.423,11.779 4.424,12.553 4.540 C 14.088 4.772,15.028 5.224,15.679 6.043 C 16.476 7.044,16.608 8.188,16.146 10.077 C 16.068 10.397,16.015 10.687,16.028 10.723 C 16.049 10.776,16.290 10.784,17.442 10.770 C 18.356 10.759,18.873 10.734,18.956 10.699 C 19.121 10.627,19.179 10.409,19.180 9.861 C 19.180 8.650,18.815 7.131,18.228 5.903 C 17.187 3.727,15.645 2.379,13.703 1.950 C 13.310 1.863,13.082 1.854,10.757 1.841 C 9.371 1.834,8.079 1.846,7.887 1.869 M12.704 12.354 C 12.493 12.380,12.011 12.720,11.775 13.010 C 11.536 13.302,11.357 13.832,11.037 15.190 C 10.619 16.959,10.506 17.417,10.476 17.447 C 10.459 17.463,10.159 17.489,9.808 17.505 C 9.444 17.521,9.116 17.559,9.044 17.593 C 8.768 17.724,8.645 18.369,8.808 18.828 C 8.922 19.151,9.088 19.240,9.622 19.265 L 10.033 19.285 10.033 19.623 C 10.033 20.142,10.274 22.397,10.404 23.088 C 10.427 23.210,10.458 23.720,10.474 24.220 C 10.520 25.686,10.523 25.702,10.750 25.929 C 10.969 26.147,11.306 26.273,11.673 26.273 C 11.943 26.273,12.361 26.125,12.496 25.981 C 12.634 25.834,12.784 25.484,12.786 25.308 C 12.786 25.226,12.807 25.146,12.831 25.131 C 12.856 25.116,13.344 25.151,13.916 25.209 C 14.855 25.303,15.205 25.313,17.500 25.313 C 19.795 25.313,20.145 25.303,21.084 25.209 C 21.656 25.151,22.142 25.115,22.163 25.128 C 22.184 25.141,22.212 25.258,22.224 25.389 C 22.270 25.862,22.674 26.210,23.237 26.261 C 23.727 26.305,24.251 26.066,24.426 25.718 C 24.468 25.634,24.496 25.254,24.517 24.477 C 24.533 23.861,24.577 23.168,24.614 22.937 C 24.713 22.329,24.861 21.115,24.920 20.440 C 24.947 20.119,24.981 19.728,24.995 19.571 L 25.020 19.285 25.401 19.263 C 25.857 19.236,26.008 19.173,26.146 18.950 C 26.232 18.812,26.250 18.716,26.250 18.387 C 26.250 17.925,26.177 17.712,25.987 17.613 C 25.902 17.570,25.610 17.529,25.193 17.503 C 24.796 17.478,24.521 17.441,24.501 17.409 C 24.483 17.380,24.316 16.701,24.129 15.900 C 23.725 14.168,23.509 13.392,23.358 13.135 C 23.219 12.897,22.844 12.545,22.595 12.418 C 22.404 12.320,22.389 12.320,17.630 12.327 C 15.005 12.332,12.788 12.343,12.704 12.354 M21.066 13.798 C 21.969 13.828,21.989 13.831,22.060 13.939 C 22.122 14.033,22.836 16.806,22.932 17.325 L 22.964 17.500 17.498 17.500 L 12.033 17.500 12.063 17.348 C 12.179 16.775,12.895 13.969,12.939 13.915 C 12.969 13.879,13.036 13.832,13.088 13.811 C 13.202 13.765,19.758 13.754,21.066 13.798 M2.753 20.129 C 2.753 20.201,3.149 21.561,3.241 21.807 C 3.533 22.581,4.133 23.575,4.629 24.105 C 4.953 24.452,5.245 24.679,5.708 24.943 C 6.065 25.148,6.078 25.164,6.157 25.503 C 6.224 25.790,6.410 26.034,6.653 26.155 C 6.812 26.234,6.963 26.248,7.795 26.265 L 8.754 26.285 8.910 26.107 L 9.066 25.929 9.037 25.553 C 9.020 25.346,9.007 24.818,9.007 24.379 L 9.007 23.581 8.412 23.551 C 7.707 23.515,7.330 23.433,6.879 23.216 C 6.029 22.807,4.281 21.513,3.218 20.506 C 2.847 20.154,2.753 20.078,2.753 20.129 M12.092 20.181 C 13.378 20.427,13.583 20.533,13.719 21.021 C 13.839 21.447,13.579 21.914,13.159 22.027 C 12.918 22.092,12.602 22.065,12.046 21.932 C 11.198 21.730,11.013 21.568,11.013 21.033 C 11.013 20.559,11.119 20.381,11.503 20.202 C 11.729 20.097,11.665 20.100,12.092 20.181 M23.692 20.330 C 23.930 20.522,24.056 20.826,24.014 21.107 C 23.975 21.364,23.828 21.595,23.630 21.711 C 23.384 21.854,22.598 22.035,22.187 22.043 C 21.857 22.049,21.790 22.036,21.641 21.934 C 21.186 21.623,21.129 20.909,21.534 20.591 C 21.699 20.461,21.846 20.408,22.400 20.277 C 23.076 20.118,23.449 20.133,23.692 20.330 M18.982 20.860 L 19.647 20.860 19.831 21.044 C 19.944 21.157,20.036 21.306,20.069 21.428 C 20.184 21.857,20.256 22.252,20.284 22.613 C 20.311 22.962,20.304 23.002,20.193 23.179 C 19.980 23.515,19.557 23.683,19.211 23.569 C 18.968 23.489,18.728 23.197,18.638 22.873 L 18.562 22.600 18.140 22.570 C 17.909 22.553,17.431 22.540,17.078 22.540 L 16.437 22.540 16.405 22.712 C 16.373 22.883,16.205 23.240,16.089 23.384 C 15.976 23.525,15.797 23.584,15.490 23.582 C 15.141 23.580,14.990 23.505,14.838 23.260 C 14.630 22.924,14.631 22.682,14.846 21.751 C 15.030 20.949,15.096 20.900,16.053 20.854 C 16.426 20.837,17.087 20.831,17.523 20.841 C 17.960 20.851,18.616 20.860,18.982 20.860 " fill="#1A1C1F" stroke="none" fill-rule="evenodd"></path></svg>