<svg width="14" height="14" viewBox="0 0 14 14" fill="none" xmlns="http://www.w3.org/2000/svg"><path d="M6.627 1.418 C 6.569 1.421,6.406 1.440,6.265 1.460 C 4.912 1.650,3.978 2.375,3.492 3.611 C 3.393 3.861,3.257 4.367,3.221 4.620 C 3.152 5.102,3.123 6.847,3.174 7.420 C 3.201 7.715,3.348 8.707,3.387 8.855 C 3.420 8.982,3.522 9.075,4.112 9.516 C 5.083 10.242,5.514 10.522,5.787 10.604 C 5.980 10.663,7.026 10.699,7.633 10.669 C 8.271 10.637,8.310 10.622,8.995 10.163 C 9.377 9.907,9.907 9.515,10.421 9.106 C 10.721 8.868,10.752 8.837,10.764 8.757 C 10.826 8.362,10.863 6.450,10.828 5.460 C 10.809 4.918,10.797 4.774,10.746 4.530 C 10.672 4.179,10.493 3.629,10.364 3.359 C 9.838 2.256,8.811 1.564,7.529 1.447 C 7.269 1.424,6.793 1.408,6.627 1.418 M7.421 2.824 C 8.649 2.920,9.161 3.194,9.541 3.958 C 9.743 4.364,9.762 4.666,9.623 5.297 C 9.537 5.684,9.435 6.028,9.365 6.166 C 9.276 6.343,9.071 6.546,8.900 6.627 C 8.338 6.896,6.828 6.981,5.787 6.804 C 5.206 6.705,5.022 6.631,4.815 6.411 C 4.611 6.196,4.539 6.012,4.402 5.354 C 4.293 4.828,4.262 4.538,4.293 4.320 C 4.348 3.931,4.609 3.514,4.939 3.287 C 5.456 2.932,6.440 2.748,7.421 2.824 M5.528 7.614 C 5.638 7.687,5.728 7.858,5.865 8.253 C 6.017 8.693,6.095 8.995,6.096 9.150 C 6.097 9.262,6.086 9.302,6.031 9.381 C 5.995 9.433,5.917 9.504,5.858 9.539 C 5.770 9.591,5.724 9.602,5.587 9.602 C 5.273 9.602,5.183 9.487,4.949 8.783 C 4.791 8.308,4.730 8.043,4.752 7.929 C 4.772 7.831,4.863 7.691,4.943 7.639 C 5.117 7.525,5.376 7.514,5.528 7.614 M8.897 7.562 C 8.990 7.587,9.153 7.718,9.198 7.802 C 9.285 7.964,9.260 8.150,9.076 8.706 C 8.814 9.496,8.738 9.597,8.399 9.600 C 8.248 9.601,8.209 9.593,8.139 9.545 C 8.040 9.477,7.916 9.303,7.897 9.204 C 7.879 9.115,7.943 8.843,8.086 8.400 C 8.280 7.800,8.377 7.630,8.558 7.574 C 8.693 7.532,8.781 7.529,8.897 7.562 M9.810 10.879 C 8.933 11.493,8.649 11.627,8.090 11.692 C 7.736 11.733,5.826 11.707,5.632 11.658 C 5.264 11.565,4.947 11.398,4.288 10.949 C 4.073 10.803,3.897 10.696,3.897 10.712 C 3.897 10.764,4.132 11.185,4.266 11.371 C 4.338 11.472,4.513 11.677,4.655 11.826 C 4.797 11.976,4.941 12.146,4.975 12.205 C 5.052 12.338,5.223 12.497,5.351 12.555 C 5.444 12.597,5.524 12.599,7.000 12.598 C 8.660 12.598,8.632 12.600,8.810 12.480 C 8.855 12.450,8.930 12.367,8.976 12.297 C 9.023 12.226,9.220 12.011,9.415 11.818 C 9.664 11.572,9.811 11.405,9.911 11.254 C 10.138 10.910,10.318 10.570,10.271 10.570 C 10.261 10.570,10.053 10.709,9.810 10.879 " fill="#1A1C1F" stroke="none" fill-rule="evenodd"></path></svg>