<svg width="14" height="14" viewBox="0 0 14 14" fill="none" xmlns="http://www.w3.org/2000/svg"><path d="M4.489 1.458 C 4.072 1.522,3.704 1.634,3.348 1.807 C 2.412 2.263,1.801 3.108,1.531 4.323 C 1.435 4.750,1.422 4.914,1.408 5.868 C 1.394 6.809,1.415 7.404,1.483 7.918 C 1.533 8.303,1.652 8.965,1.673 8.983 C 2.056 9.308,3.166 10.118,3.582 10.375 C 3.934 10.593,4.143 10.654,4.625 10.679 L 4.921 10.694 4.928 9.786 C 4.935 8.902,4.936 8.876,4.986 8.782 C 5.049 8.665,5.248 8.482,5.350 8.448 C 5.424 8.424,5.427 8.418,5.540 8.009 C 5.603 7.781,5.701 7.450,5.757 7.272 C 5.814 7.094,5.853 6.942,5.845 6.934 C 5.837 6.926,5.578 6.912,5.269 6.903 C 4.628 6.883,4.270 6.853,3.920 6.787 C 3.435 6.696,3.253 6.616,3.061 6.405 C 2.904 6.234,2.815 6.045,2.729 5.705 C 2.536 4.940,2.491 4.392,2.597 4.082 C 2.676 3.849,2.792 3.673,3.010 3.453 C 3.173 3.288,3.244 3.235,3.409 3.156 C 3.857 2.941,4.245 2.860,5.063 2.811 C 5.340 2.794,5.875 2.829,6.207 2.885 C 6.753 2.976,7.154 3.147,7.388 3.388 C 7.644 3.650,7.885 4.061,7.933 4.316 C 7.988 4.603,7.958 4.934,7.826 5.513 C 7.780 5.716,7.748 5.897,7.755 5.916 C 7.767 5.945,7.871 5.950,8.438 5.950 L 9.107 5.950 9.093 5.536 C 9.069 4.852,8.992 4.383,8.821 3.872 C 8.630 3.300,8.382 2.881,7.996 2.480 C 7.459 1.924,6.910 1.639,6.062 1.478 C 5.790 1.427,4.780 1.414,4.489 1.458 M7.175 6.695 C 7.037 6.718,6.844 6.831,6.696 6.977 C 6.589 7.081,6.551 7.141,6.493 7.292 C 6.426 7.466,6.216 8.167,6.038 8.808 L 5.960 9.088 5.780 9.095 L 5.600 9.102 5.600 9.801 L 5.600 10.500 5.689 10.500 C 5.805 10.500,5.854 10.539,5.881 10.652 C 5.909 10.770,5.949 11.670,5.950 12.197 L 5.950 12.600 6.647 12.600 L 7.343 12.600 7.356 12.307 C 7.363 12.146,7.374 12.008,7.381 12.002 C 7.387 11.995,7.522 12.006,7.680 12.026 C 8.548 12.136,9.652 12.136,10.520 12.026 C 10.678 12.006,10.812 11.995,10.818 12.001 C 10.824 12.007,10.836 12.144,10.843 12.306 L 10.857 12.600 11.550 12.600 L 12.243 12.600 12.259 11.929 C 12.274 11.289,12.312 10.547,12.330 10.529 C 12.335 10.524,12.397 10.514,12.469 10.507 L 12.600 10.493 12.600 9.798 L 12.600 9.102 12.420 9.095 L 12.239 9.088 12.174 8.843 C 11.906 7.835,11.773 7.398,11.666 7.187 C 11.585 7.026,11.391 6.840,11.204 6.746 L 11.061 6.673 9.165 6.676 C 8.122 6.678,7.226 6.686,7.175 6.695 M3.760 7.597 C 3.859 7.648,3.948 7.802,4.068 8.129 C 4.233 8.576,4.343 8.976,4.346 9.140 C 4.348 9.260,4.338 9.300,4.292 9.365 C 4.088 9.649,3.750 9.698,3.518 9.478 C 3.395 9.361,3.209 8.893,3.052 8.307 C 2.989 8.070,2.984 8.027,3.007 7.939 C 3.059 7.742,3.191 7.603,3.370 7.557 C 3.468 7.532,3.676 7.553,3.760 7.597 M10.847 7.928 C 11.067 8.640,11.183 9.055,11.167 9.070 C 11.158 9.080,10.217 9.091,9.078 9.095 L 7.006 9.101 7.167 8.558 C 7.256 8.259,7.349 7.944,7.375 7.857 L 7.422 7.700 9.099 7.700 L 10.776 7.700 10.847 7.928 M11.316 9.753 C 11.501 9.847,11.571 10.042,11.482 10.215 C 11.455 10.269,11.404 10.327,11.369 10.345 C 11.268 10.397,10.953 10.491,10.695 10.546 C 10.427 10.603,10.376 10.593,10.261 10.456 C 10.150 10.324,10.159 10.084,10.279 9.990 C 10.359 9.927,11.049 9.712,11.183 9.708 C 11.206 9.707,11.266 9.727,11.316 9.753 M7.381 9.799 C 7.917 9.937,8.015 10.005,8.012 10.234 C 8.010 10.380,7.967 10.454,7.838 10.542 C 7.747 10.604,7.719 10.602,7.315 10.500 C 6.915 10.400,6.790 10.343,6.727 10.232 C 6.698 10.180,6.674 10.109,6.674 10.073 C 6.673 9.977,6.758 9.828,6.843 9.776 C 6.947 9.713,7.067 9.718,7.381 9.799 M2.250 10.933 C 2.429 11.273,2.595 11.499,2.905 11.826 C 3.047 11.976,3.191 12.146,3.225 12.205 C 3.259 12.263,3.335 12.356,3.395 12.411 C 3.586 12.587,3.578 12.586,4.463 12.595 L 5.250 12.604 5.250 12.162 L 5.250 11.719 4.661 11.707 C 4.018 11.693,3.857 11.670,3.547 11.547 C 3.329 11.460,2.959 11.240,2.524 10.939 C 2.340 10.811,2.173 10.701,2.152 10.693 C 2.128 10.684,2.164 10.771,2.250 10.933 " fill="#1A1C1F" stroke="none" fill-rule="evenodd"></path></svg>