<svg width="28" height="28" viewBox="0 0 28 28" fill="none" xmlns="http://www.w3.org/2000/svg"><path d="M8.120 1.866 C 7.522 1.904,7.311 1.946,6.688 2.151 C 5.765 2.455,5.091 2.883,4.340 3.639 C 3.716 4.268,3.307 4.842,2.878 5.695 C 2.351 6.741,2.003 7.927,1.864 9.147 C 1.785 9.838,1.782 15.017,1.860 15.680 C 2.003 16.902,2.360 18.646,2.829 20.417 C 3.322 22.279,3.658 22.989,4.501 23.953 C 4.901 24.411,5.226 24.679,5.700 24.943 C 6.065 25.147,6.077 25.162,6.157 25.503 C 6.224 25.791,6.407 26.026,6.673 26.167 C 6.855 26.263,6.935 26.273,7.509 26.271 C 8.514 26.267,8.825 26.221,9.047 26.045 C 9.324 25.826,9.404 25.575,9.399 24.943 C 9.394 24.345,9.329 24.068,9.155 23.907 C 8.900 23.670,8.812 23.651,7.819 23.617 C 6.899 23.585,6.877 23.582,6.627 23.447 C 6.263 23.251,5.793 22.789,5.482 22.323 C 5.194 21.889,4.789 21.073,4.736 20.821 C 4.697 20.633,4.621 20.600,5.670 21.225 C 6.862 21.934,7.532 22.224,7.981 22.226 C 8.358 22.227,8.753 21.869,8.805 21.481 C 8.870 21.000,8.584 20.651,7.922 20.400 C 7.710 20.320,7.272 20.102,6.948 19.915 C 5.391 19.019,4.274 18.354,4.180 18.269 C 4.057 18.155,3.923 17.577,3.753 16.427 C 3.568 15.166,3.532 14.328,3.566 12.046 C 3.602 9.667,3.642 8.977,3.782 8.331 C 4.128 6.736,5.098 5.103,6.144 4.356 C 6.523 4.086,7.032 3.855,7.593 3.698 L 8.050 3.570 10.500 3.570 C 13.130 3.570,13.143 3.571,13.880 3.825 C 14.520 4.046,15.190 4.515,15.608 5.035 C 16.169 5.732,16.760 6.781,17.006 7.517 C 17.113 7.838,17.216 8.318,17.428 9.490 C 17.521 9.999,17.632 10.225,17.859 10.365 C 18.364 10.678,19.041 10.327,19.153 9.694 C 19.218 9.333,19.015 8.040,18.778 7.303 C 18.340 5.938,17.662 4.699,16.887 3.849 C 15.990 2.866,15.109 2.325,13.860 1.993 L 13.323 1.850 10.990 1.841 C 9.707 1.836,8.415 1.847,8.120 1.866 M8.820 5.387 C 7.131 5.689,5.913 6.482,5.490 7.554 C 5.261 8.135,5.322 9.328,5.649 10.663 C 5.915 11.752,6.635 12.498,7.677 12.763 C 8.421 12.953,9.978 13.152,10.279 13.095 C 10.663 13.023,11.001 12.539,10.947 12.139 C 10.932 12.027,10.876 11.863,10.822 11.776 C 10.642 11.485,10.570 11.465,8.597 11.157 C 7.916 11.051,7.723 10.962,7.545 10.677 C 7.393 10.432,7.227 9.687,7.133 8.837 C 7.075 8.306,7.076 8.296,7.185 8.091 C 7.542 7.416,8.717 7.046,10.499 7.047 C 12.068 7.047,13.069 7.305,13.619 7.849 C 13.902 8.129,13.922 8.247,13.832 9.126 C 13.756 9.865,13.756 9.879,13.850 10.091 C 13.958 10.335,14.248 10.574,14.493 10.620 C 14.722 10.663,15.088 10.526,15.257 10.333 C 15.424 10.143,15.511 9.860,15.608 9.187 C 15.766 8.095,15.653 7.536,15.145 6.900 C 14.750 6.407,13.959 5.898,13.207 5.654 C 12.346 5.375,12.208 5.358,10.640 5.340 C 9.552 5.328,9.079 5.340,8.820 5.387 M13.118 12.471 C 12.927 12.581,12.672 12.766,12.550 12.884 C 12.147 13.275,12.026 13.611,11.529 15.727 C 11.346 16.509,11.175 17.226,11.151 17.318 L 11.107 17.486 10.591 17.515 C 9.747 17.564,9.636 17.663,9.637 18.368 C 9.638 18.732,9.653 18.822,9.733 18.929 C 9.881 19.127,10.046 19.231,10.259 19.260 L 10.453 19.286 10.453 19.552 C 10.453 19.888,10.564 21.070,10.690 22.073 C 10.760 22.627,10.832 22.980,10.947 23.330 C 11.099 23.791,11.110 23.867,11.147 24.736 C 11.190 25.756,11.228 25.888,11.541 26.081 C 11.885 26.294,12.845 26.329,13.263 26.144 C 13.566 26.010,13.767 25.678,13.767 25.310 L 13.767 25.153 17.911 25.153 L 22.055 25.153 22.111 25.427 C 22.187 25.793,22.328 25.992,22.610 26.133 C 22.818 26.237,22.901 26.250,23.380 26.250 C 23.967 26.250,24.182 26.199,24.414 26.003 C 24.648 25.806,24.689 25.642,24.740 24.675 C 24.780 23.914,24.806 23.727,24.921 23.352 C 24.995 23.112,25.088 22.700,25.127 22.436 C 25.197 21.962,25.419 19.908,25.444 19.512 C 25.456 19.309,25.460 19.306,25.674 19.252 C 26.127 19.137,26.247 18.946,26.249 18.340 C 26.251 17.661,26.116 17.544,25.291 17.510 L 24.753 17.488 24.479 16.292 C 24.101 14.645,23.815 13.598,23.670 13.331 C 23.514 13.044,23.105 12.665,22.748 12.476 L 22.470 12.330 17.967 12.301 L 13.463 12.272 13.118 12.471 M22.067 14.118 C 22.154 14.200,22.289 14.681,22.637 16.157 C 22.799 16.843,22.916 17.420,22.895 17.440 C 22.853 17.483,13.351 17.517,13.120 17.475 C 12.964 17.447,12.963 17.445,12.993 17.252 C 13.039 16.962,13.573 14.668,13.660 14.387 C 13.702 14.253,13.769 14.127,13.810 14.107 C 13.923 14.051,16.347 14.022,19.320 14.040 C 21.439 14.053,22.017 14.070,22.067 14.118 M6.493 14.896 C 6.247 14.963,6.075 15.118,5.941 15.391 C 5.824 15.630,5.821 15.654,5.879 15.883 C 6.026 16.463,6.726 18.507,6.832 18.668 C 6.919 18.800,7.015 18.870,7.207 18.942 C 7.666 19.113,8.047 18.951,8.284 18.483 C 8.344 18.364,8.358 18.256,8.339 18.063 C 8.313 17.790,7.876 16.402,7.568 15.610 C 7.401 15.182,7.370 15.133,7.182 15.020 C 6.944 14.877,6.715 14.836,6.493 14.896 M23.548 19.391 C 23.635 19.524,23.686 19.865,23.643 20.035 C 23.608 20.172,23.571 20.188,23.026 20.301 C 22.271 20.456,22.039 20.606,21.931 21.010 C 21.829 21.387,21.988 21.758,22.337 21.963 C 22.533 22.078,22.574 22.084,22.984 22.063 L 23.422 22.040 23.397 22.185 C 23.339 22.530,23.179 22.978,23.080 23.078 C 22.950 23.207,22.754 23.267,22.167 23.356 C 19.992 23.687,15.698 23.673,13.510 23.329 C 12.847 23.224,12.655 23.055,12.529 22.462 C 12.425 21.968,12.409 21.993,12.789 22.046 C 13.329 22.120,13.660 21.992,13.867 21.630 C 14.089 21.240,13.947 20.704,13.569 20.502 C 13.485 20.457,13.154 20.366,12.833 20.299 L 12.250 20.177 12.237 19.853 C 12.215 19.329,12.174 19.348,13.378 19.317 C 13.938 19.303,16.438 19.287,18.934 19.282 L 23.471 19.273 23.548 19.391 M16.240 20.530 C 16.009 20.545,15.798 20.586,15.736 20.627 C 15.591 20.721,15.299 21.112,15.092 21.490 C 14.949 21.749,14.921 21.846,14.919 22.088 C 14.918 22.272,14.946 22.431,14.996 22.528 C 15.087 22.701,15.498 22.959,15.685 22.960 C 15.996 22.961,16.348 22.747,16.581 22.417 L 16.725 22.213 17.945 22.213 L 19.164 22.213 19.334 22.458 C 19.627 22.880,19.943 23.022,20.347 22.913 C 20.614 22.841,20.880 22.577,20.951 22.314 C 20.995 22.153,20.991 22.068,20.934 21.872 C 20.841 21.557,20.565 21.091,20.295 20.796 C 20.080 20.560,20.080 20.560,19.712 20.527 C 19.285 20.488,16.824 20.490,16.240 20.530 " fill="#1A1C1F" stroke="none" fill-rule="evenodd"></path></svg>