<svg width="32" height="32" viewBox="0 0 32 32" fill="none" xmlns="http://www.w3.org/2000/svg"><path d="M13.253 2.131 C 11.742 2.224,10.258 2.891,9.100 3.997 C 7.556 5.473,6.489 7.727,6.157 10.213 C 6.079 10.803,6.064 11.393,6.061 14.160 C 6.058 16.554,6.075 17.554,6.126 17.947 C 6.339 19.574,6.702 21.358,7.202 23.227 C 7.684 25.031,7.956 25.734,8.463 26.488 C 9.104 27.439,9.704 28.028,10.532 28.521 C 10.937 28.761,10.960 28.785,10.997 29.003 C 11.053 29.338,11.247 29.652,11.511 29.838 L 11.743 30.000 15.995 30.000 L 20.248 30.000 20.470 29.853 C 20.758 29.663,20.958 29.356,21.004 29.035 L 21.040 28.780 21.517 28.510 C 22.748 27.813,23.823 26.371,24.365 24.690 C 24.769 23.439,25.370 20.972,25.623 19.531 C 25.927 17.800,25.947 17.452,25.943 14.107 C 25.938 10.909,25.913 10.412,25.703 9.387 C 25.486 8.327,25.073 7.167,24.604 6.293 C 23.418 4.087,21.935 2.837,19.840 2.278 L 19.227 2.114 16.560 2.103 C 15.093 2.097,13.605 2.110,13.253 2.131 M19.200 4.177 C 20.557 4.508,21.376 5.082,22.276 6.331 C 22.667 6.873,23.246 8.004,23.435 8.594 C 23.841 9.865,23.901 10.588,23.909 14.320 C 23.915 16.870,23.902 17.412,23.823 18.027 C 23.627 19.553,23.428 20.554,23.276 20.786 C 23.178 20.937,22.999 21.051,21.179 22.132 C 19.508 23.125,19.199 23.280,18.688 23.384 C 17.893 23.548,14.154 23.529,13.255 23.358 C 12.843 23.279,12.741 23.226,10.529 21.938 L 8.657 20.849 8.489 19.931 C 8.096 17.795,8.030 16.834,8.070 13.813 C 8.122 9.906,8.234 9.143,8.986 7.604 C 9.893 5.747,10.974 4.731,12.538 4.265 C 13.167 4.078,13.470 4.062,16.213 4.077 C 18.410 4.089,18.912 4.106,19.200 4.177 M14.226 6.138 C 11.950 6.471,10.348 7.677,10.127 9.223 C 9.997 10.127,10.382 12.302,10.825 13.170 C 10.968 13.451,11.405 13.925,11.720 14.142 C 12.023 14.351,13.042 14.680,13.910 14.849 C 15.643 15.187,18.709 14.915,19.994 14.308 C 20.387 14.123,21.041 13.464,21.242 13.052 C 21.572 12.372,21.871 10.767,21.878 9.627 C 21.884 8.804,21.809 8.553,21.389 7.996 C 20.679 7.052,19.340 6.364,17.813 6.158 C 17.193 6.074,14.755 6.061,14.226 6.138 M16.800 8.104 C 17.711 8.143,17.896 8.166,18.293 8.294 C 19.108 8.555,19.504 8.799,19.725 9.173 C 19.847 9.380,19.866 9.468,19.859 9.813 C 19.851 10.244,19.668 11.413,19.544 11.832 C 19.440 12.182,19.265 12.424,19.029 12.546 C 18.788 12.670,17.698 12.876,16.827 12.962 C 15.908 13.052,14.518 12.934,13.345 12.666 C 12.673 12.513,12.517 12.277,12.299 11.087 C 12.117 10.095,12.082 9.675,12.160 9.386 C 12.275 8.958,12.821 8.573,13.704 8.296 C 14.459 8.060,14.996 8.026,16.800 8.104 M11.409 17.009 C 11.005 17.138,10.698 17.555,10.701 17.969 C 10.703 18.225,11.448 20.524,11.734 21.156 C 11.916 21.558,12.150 21.707,12.603 21.707 C 13.054 21.707,13.402 21.409,13.557 20.893 C 13.617 20.693,13.596 20.610,13.121 19.196 C 12.846 18.378,12.570 17.607,12.507 17.483 C 12.331 17.132,11.773 16.892,11.409 17.009 M19.873 17.066 C 19.488 17.188,19.324 17.494,18.828 19.013 C 18.371 20.414,18.288 20.750,18.349 20.969 C 18.414 21.206,18.674 21.513,18.900 21.620 C 19.280 21.800,19.838 21.690,20.049 21.392 C 20.246 21.116,21.079 18.609,21.153 18.070 C 21.198 17.738,21.039 17.387,20.760 17.202 C 20.528 17.049,20.122 16.986,19.873 17.066 M9.751 23.807 C 9.917 23.906,10.430 24.215,10.891 24.495 C 12.131 25.248,12.494 25.364,13.840 25.440 C 15.688 25.544,18.753 25.473,19.361 25.312 C 19.944 25.158,20.271 25.000,21.415 24.319 C 22.055 23.938,22.588 23.637,22.601 23.650 C 22.690 23.739,22.087 25.014,21.633 25.697 C 21.320 26.168,20.808 26.644,20.428 26.818 L 20.134 26.953 16.047 26.977 L 11.961 27.001 11.647 26.832 C 11.117 26.547,10.855 26.321,10.485 25.831 C 9.993 25.179,9.239 23.627,9.413 23.627 C 9.433 23.627,9.585 23.708,9.751 23.807 " fill="#1A1C1F" stroke="none" fill-rule="evenodd"></path></svg>