<svg width="24" height="24" viewBox="0 0 24 24" fill="none" xmlns="http://www.w3.org/2000/svg"><path d="M7.500 2.039 C 6.869 2.077,6.465 2.151,5.940 2.325 C 4.364 2.849,3.111 4.277,2.423 6.333 C 2.102 7.292,2.027 8.091,2.023 10.560 C 2.020 12.496,2.048 12.993,2.223 14.115 C 2.462 15.646,3.044 17.868,3.404 18.627 C 3.754 19.363,4.403 20.162,4.964 20.545 L 5.239 20.734 5.216 21.057 C 5.193 21.371,5.196 21.385,5.318 21.568 C 5.388 21.671,5.528 21.810,5.629 21.878 L 5.814 22.000 7.097 22.000 C 7.834 22.000,8.442 21.982,8.525 21.959 C 8.722 21.905,9.023 21.632,9.087 21.449 C 9.123 21.348,9.140 21.081,9.140 20.620 C 9.140 19.954,9.138 19.936,9.033 19.757 C 8.973 19.657,8.850 19.522,8.758 19.458 L 8.591 19.343 7.382 19.299 L 6.174 19.256 5.977 19.140 C 5.607 18.924,5.269 18.507,4.960 17.889 C 4.778 17.525,4.589 16.985,4.638 16.968 C 4.656 16.962,4.860 17.072,5.090 17.215 C 6.134 17.860,6.861 18.092,7.372 17.944 C 7.783 17.825,8.068 17.357,7.963 16.975 C 7.862 16.607,7.628 16.423,7.059 16.265 C 6.556 16.125,6.430 16.058,5.533 15.456 C 4.551 14.796,4.043 14.412,3.999 14.297 C 3.979 14.245,3.924 13.946,3.875 13.632 C 3.796 13.117,3.786 12.864,3.771 11.100 C 3.753 9.051,3.792 7.952,3.903 7.410 C 4.162 6.137,5.023 4.741,5.862 4.231 C 6.599 3.783,6.933 3.741,9.480 3.772 C 11.462 3.797,11.375 3.786,12.000 4.099 C 12.559 4.380,13.278 5.197,13.691 6.020 C 14.072 6.782,14.320 7.916,14.320 8.900 C 14.320 9.549,14.665 9.963,15.205 9.959 C 15.495 9.957,15.918 9.639,15.985 9.374 C 16.028 9.204,15.968 7.739,15.902 7.340 C 15.665 5.903,14.934 4.456,13.940 3.459 C 13.111 2.626,12.309 2.244,11.093 2.100 C 10.502 2.031,8.283 1.993,7.500 2.039 M8.080 5.080 C 7.136 5.163,6.503 5.411,6.005 5.892 C 5.571 6.311,5.305 6.879,5.255 7.495 C 5.215 7.980,5.516 9.468,5.760 9.992 C 5.923 10.342,6.272 10.682,6.648 10.859 C 7.233 11.134,8.396 11.266,9.644 11.198 C 10.948 11.128,11.513 10.938,12.013 10.404 C 12.258 10.142,12.413 9.808,12.557 9.235 C 12.791 8.303,12.859 7.568,12.756 7.072 C 12.646 6.538,12.237 5.963,11.729 5.626 C 11.107 5.214,10.546 5.082,9.320 5.061 C 8.847 5.053,8.289 5.061,8.080 5.080 M10.396 6.859 C 10.679 6.948,10.899 7.097,11.010 7.275 C 11.082 7.390,11.099 7.473,11.094 7.680 C 11.088 7.967,10.966 8.603,10.838 9.018 C 10.767 9.248,10.737 9.294,10.627 9.340 C 10.456 9.411,10.113 9.470,9.574 9.519 C 8.806 9.591,7.522 9.460,7.357 9.294 C 7.263 9.201,7.108 8.606,7.015 7.985 C 6.957 7.596,6.954 7.510,7.000 7.399 C 7.132 7.081,7.392 6.905,7.859 6.816 C 8.281 6.735,10.101 6.766,10.396 6.859 M12.200 11.077 C 11.866 11.142,11.415 11.484,11.216 11.823 C 11.059 12.091,10.984 12.358,10.604 14.006 C 10.124 16.083,10.197 15.865,9.969 15.899 C 9.699 15.940,9.522 16.023,9.352 16.188 C 9.051 16.482,8.928 17.013,9.059 17.463 C 9.170 17.846,9.386 18.093,9.723 18.223 C 9.820 18.261,9.923 18.313,9.951 18.338 C 10.033 18.413,10.074 18.784,10.139 20.015 C 10.207 21.303,10.225 21.384,10.505 21.658 C 10.709 21.859,10.875 21.924,11.241 21.950 C 11.689 21.980,11.962 21.891,12.225 21.626 C 12.373 21.477,12.455 21.350,12.522 21.166 L 12.614 20.912 12.797 20.936 C 14.480 21.156,16.443 21.172,17.994 20.979 C 18.250 20.947,18.479 20.920,18.503 20.920 C 18.526 20.920,18.605 21.055,18.677 21.219 C 18.910 21.750,19.196 21.932,19.803 21.937 C 20.153 21.940,20.206 21.930,20.423 21.819 C 20.605 21.726,20.696 21.645,20.816 21.470 C 20.999 21.205,21.009 21.132,21.082 19.540 C 21.139 18.286,21.135 18.307,21.304 18.226 C 21.497 18.134,21.791 17.852,21.893 17.662 C 21.965 17.529,21.980 17.433,21.980 17.120 C 21.980 16.899,21.957 16.674,21.925 16.583 C 21.822 16.292,21.467 15.981,21.151 15.905 C 21.091 15.891,21.025 15.847,21.004 15.808 C 20.948 15.702,20.830 15.221,20.498 13.744 C 20.103 11.990,20.057 11.856,19.745 11.544 C 19.610 11.410,19.389 11.242,19.254 11.170 L 19.009 11.040 15.674 11.045 C 13.840 11.047,12.277 11.062,12.200 11.077 M18.991 13.750 C 19.373 15.416,19.453 15.800,19.427 15.826 C 19.387 15.866,15.136 15.891,13.425 15.861 L 11.710 15.830 11.735 15.649 C 11.759 15.479,12.321 12.920,12.393 12.660 L 12.426 12.540 13.223 12.519 C 13.661 12.507,15.073 12.494,16.360 12.489 L 18.700 12.480 18.991 13.750 M6.134 12.780 C 5.948 12.892,5.734 13.185,5.698 13.378 C 5.683 13.459,5.706 13.599,5.761 13.762 C 5.891 14.151,6.277 14.878,6.454 15.070 C 6.853 15.504,7.520 15.395,7.785 14.854 C 7.926 14.566,7.904 14.408,7.644 13.833 C 7.352 13.186,7.168 12.919,6.926 12.787 C 6.661 12.643,6.367 12.640,6.134 12.780 M12.645 17.096 C 13.416 17.316,13.535 17.365,13.626 17.504 C 13.724 17.653,13.725 18.026,13.627 18.175 C 13.437 18.466,13.157 18.503,12.514 18.322 C 11.897 18.149,11.669 18.054,11.537 17.917 C 11.438 17.814,11.420 17.762,11.420 17.587 C 11.420 17.268,11.498 17.126,11.737 17.015 C 11.849 16.963,11.959 16.921,11.982 16.920 C 12.006 16.920,12.304 16.999,12.645 17.096 M19.437 17.030 C 19.648 17.138,19.735 17.285,19.738 17.537 C 19.740 17.803,19.651 17.943,19.398 18.068 C 19.125 18.204,18.412 18.400,18.099 18.427 C 17.834 18.449,17.811 18.444,17.688 18.340 C 17.521 18.200,17.440 18.042,17.440 17.858 C 17.440 17.486,17.656 17.321,18.400 17.125 C 19.111 16.939,19.236 16.927,19.437 17.030 M16.242 18.720 C 16.401 18.764,16.574 18.925,16.634 19.085 C 16.691 19.234,16.626 19.472,16.493 19.605 C 16.361 19.737,16.037 19.799,15.480 19.798 C 14.885 19.798,14.676 19.707,14.544 19.390 C 14.469 19.210,14.469 19.207,14.553 19.034 C 14.654 18.827,14.758 18.753,15.000 18.717 C 15.287 18.675,16.087 18.677,16.242 18.720 " fill="#1A1C1F" stroke="none" fill-rule="evenodd"></path></svg>