<svg width="16" height="16" viewBox="0 0 16 16" fill="none" xmlns="http://www.w3.org/2000/svg"><path d="M7.560 1.619 C 6.411 1.714,5.557 2.071,4.891 2.733 C 4.354 3.267,4.012 3.898,3.792 4.760 C 3.627 5.409,3.588 5.985,3.608 7.507 C 3.621 8.501,3.629 8.642,3.692 9.067 C 3.793 9.747,3.866 10.135,3.909 10.217 C 3.988 10.371,5.370 11.406,6.119 11.873 C 6.544 12.138,6.634 12.160,7.387 12.191 C 8.069 12.220,9.062 12.200,9.253 12.155 C 9.419 12.116,9.814 11.928,10.053 11.774 C 10.376 11.566,11.068 11.062,11.613 10.638 C 12.356 10.060,12.289 10.133,12.320 9.867 C 12.370 9.442,12.406 7.220,12.377 6.333 C 12.353 5.614,12.341 5.464,12.281 5.177 C 12.197 4.777,11.992 4.147,11.845 3.839 C 11.243 2.578,10.068 1.786,8.604 1.654 C 8.286 1.626,7.712 1.606,7.560 1.619 M8.892 3.270 C 9.528 3.352,10.017 3.517,10.320 3.750 C 10.600 3.966,10.981 4.580,11.070 4.960 C 11.148 5.295,11.089 5.759,10.866 6.572 C 10.754 6.982,10.653 7.182,10.468 7.357 C 10.128 7.678,9.617 7.809,8.484 7.868 C 7.650 7.911,6.845 7.850,6.167 7.693 C 5.755 7.597,5.457 7.371,5.294 7.028 C 5.151 6.730,4.928 5.742,4.890 5.240 C 4.869 4.965,4.917 4.767,5.094 4.408 C 5.361 3.865,5.779 3.568,6.547 3.378 C 7.264 3.200,8.063 3.163,8.892 3.270 M6.317 8.702 C 6.443 8.785,6.547 8.981,6.702 9.432 C 6.877 9.936,6.965 10.280,6.967 10.459 C 6.968 10.591,6.956 10.633,6.890 10.728 C 6.770 10.898,6.615 10.973,6.385 10.973 C 6.023 10.973,5.917 10.834,5.641 9.994 C 5.476 9.493,5.403 9.173,5.429 9.057 C 5.452 8.949,5.561 8.787,5.649 8.730 C 5.848 8.599,6.144 8.587,6.317 8.702 M10.173 8.643 C 10.320 8.684,10.518 8.885,10.558 9.034 C 10.601 9.191,10.564 9.369,10.372 9.950 C 10.105 10.753,10.011 10.905,9.745 10.960 C 9.568 10.997,9.403 10.975,9.290 10.899 C 9.194 10.835,9.051 10.634,9.025 10.527 C 9.000 10.424,9.075 10.114,9.255 9.568 C 9.485 8.870,9.572 8.720,9.781 8.656 C 9.936 8.608,10.035 8.605,10.173 8.643 M11.211 12.433 C 10.401 13.000,10.114 13.160,9.681 13.284 C 9.357 13.376,8.989 13.395,7.763 13.380 C 6.710 13.367,6.581 13.360,6.398 13.312 C 5.980 13.200,5.650 13.025,4.900 12.514 C 4.654 12.347,4.453 12.223,4.453 12.239 C 4.453 12.279,4.561 12.488,4.722 12.761 C 4.861 12.996,5.034 13.211,5.389 13.587 C 5.500 13.706,5.633 13.868,5.685 13.948 C 5.799 14.126,5.969 14.283,6.122 14.350 C 6.233 14.399,6.314 14.401,8.045 14.394 C 9.837 14.387,9.854 14.386,9.960 14.329 C 10.095 14.257,10.196 14.157,10.306 13.987 C 10.353 13.913,10.508 13.746,10.651 13.616 C 10.998 13.297,11.323 12.903,11.518 12.561 C 11.693 12.253,11.773 12.080,11.739 12.080 C 11.726 12.080,11.489 12.239,11.211 12.433 " fill="#1A1C1F" stroke="none" fill-rule="evenodd"></path></svg>