<svg width="12" height="12" viewBox="0 0 12 12" fill="none" xmlns="http://www.w3.org/2000/svg"><path d="M3.790 1.260 C 3.064 1.391,2.531 1.660,2.097 2.116 C 1.721 2.511,1.459 3.040,1.313 3.700 C 1.230 4.072,1.219 4.209,1.207 5.040 C 1.191 6.071,1.219 6.526,1.341 7.245 C 1.399 7.586,1.419 7.663,1.468 7.717 C 1.529 7.786,2.567 8.563,2.860 8.759 C 3.312 9.062,3.503 9.130,3.965 9.153 L 4.220 9.166 4.220 8.402 C 4.220 7.669,4.222 7.635,4.261 7.557 C 4.323 7.437,4.445 7.314,4.554 7.263 L 4.651 7.218 4.767 6.801 C 4.831 6.572,4.916 6.285,4.957 6.163 C 5.016 5.987,5.026 5.939,5.004 5.931 C 4.989 5.925,4.826 5.920,4.641 5.920 C 3.951 5.920,3.271 5.833,2.916 5.700 C 2.692 5.617,2.482 5.368,2.391 5.080 C 2.364 4.995,2.309 4.774,2.269 4.588 C 2.208 4.312,2.193 4.196,2.185 3.957 C 2.176 3.699,2.180 3.647,2.217 3.527 C 2.279 3.324,2.390 3.151,2.580 2.959 C 2.719 2.818,2.781 2.773,2.922 2.705 C 3.304 2.522,3.604 2.459,4.330 2.409 C 4.559 2.393,5.073 2.429,5.358 2.481 C 6.075 2.610,6.412 2.848,6.698 3.427 C 6.861 3.756,6.864 4.040,6.708 4.727 C 6.669 4.901,6.642 5.056,6.648 5.072 C 6.657 5.095,6.755 5.100,7.233 5.100 L 7.806 5.100 7.794 4.745 C 7.761 3.812,7.568 3.114,7.180 2.520 C 7.026 2.285,6.638 1.891,6.411 1.740 C 6.071 1.512,5.678 1.356,5.250 1.279 C 4.894 1.214,4.103 1.204,3.790 1.260 M6.150 5.738 C 5.952 5.771,5.694 5.973,5.602 6.167 C 5.545 6.286,5.374 6.839,5.195 7.480 L 5.109 7.790 4.955 7.796 L 4.800 7.802 4.800 8.401 L 4.800 9.000 4.876 9.000 C 4.976 9.000,5.018 9.033,5.041 9.131 C 5.065 9.231,5.099 10.003,5.100 10.455 L 5.100 10.800 5.697 10.800 L 6.294 10.800 6.305 10.549 C 6.311 10.411,6.321 10.293,6.326 10.287 C 6.332 10.282,6.447 10.291,6.583 10.308 C 7.339 10.404,8.213 10.404,9.007 10.308 C 9.148 10.291,9.268 10.281,9.273 10.286 C 9.278 10.291,9.288 10.409,9.294 10.548 L 9.306 10.800 9.900 10.800 L 10.494 10.800 10.508 10.215 C 10.521 9.670,10.553 9.041,10.569 9.025 C 10.573 9.021,10.626 9.012,10.688 9.006 L 10.800 8.994 10.800 8.398 L 10.800 7.802 10.645 7.796 L 10.490 7.790 10.424 7.540 C 10.286 7.016,10.140 6.520,10.067 6.320 C 10.001 6.142,9.973 6.093,9.875 5.988 C 9.801 5.909,9.711 5.839,9.622 5.793 L 9.484 5.720 7.857 5.723 C 6.962 5.724,6.194 5.731,6.150 5.738 M3.223 6.511 C 3.307 6.555,3.384 6.687,3.487 6.967 C 3.698 7.540,3.768 7.893,3.694 8.007 C 3.585 8.173,3.420 8.255,3.238 8.234 C 3.072 8.214,3.011 8.162,2.910 7.953 C 2.805 7.737,2.610 7.155,2.581 6.975 C 2.542 6.730,2.662 6.536,2.887 6.478 C 2.972 6.456,3.150 6.474,3.223 6.511 M9.286 6.755 C 9.476 7.374,9.585 7.762,9.572 7.775 C 9.564 7.783,8.758 7.792,7.781 7.795 L 6.006 7.801 6.143 7.335 C 6.218 7.079,6.298 6.809,6.320 6.735 L 6.361 6.600 7.800 6.600 L 9.238 6.600 9.286 6.755 M9.710 8.366 C 9.800 8.417,9.879 8.540,9.879 8.630 C 9.879 8.663,9.859 8.726,9.834 8.770 C 9.780 8.865,9.685 8.909,9.336 8.998 C 8.986 9.087,8.960 9.090,8.881 9.036 C 8.788 8.973,8.733 8.874,8.733 8.767 C 8.733 8.651,8.783 8.584,8.921 8.515 C 9.018 8.467,9.523 8.322,9.600 8.321 C 9.617 8.321,9.666 8.341,9.710 8.366 M6.290 8.390 C 6.555 8.459,6.718 8.516,6.782 8.561 C 6.853 8.612,6.887 8.743,6.857 8.851 C 6.832 8.942,6.700 9.080,6.638 9.080 C 6.562 9.080,6.016 8.938,5.907 8.890 C 5.814 8.848,5.793 8.828,5.757 8.749 C 5.693 8.603,5.737 8.458,5.869 8.377 C 5.951 8.327,6.059 8.330,6.290 8.390 M1.919 9.351 C 2.115 9.718,2.186 9.813,2.561 10.210 C 2.634 10.287,2.725 10.400,2.763 10.460 C 2.802 10.521,2.872 10.605,2.919 10.647 C 3.075 10.788,3.074 10.787,3.825 10.796 L 4.500 10.804 4.500 10.425 L 4.500 10.045 3.985 10.035 C 3.519 10.026,3.452 10.020,3.279 9.974 C 2.969 9.893,2.687 9.740,2.113 9.342 C 1.983 9.251,1.862 9.172,1.845 9.165 C 1.824 9.157,1.850 9.223,1.919 9.351 " fill="#1A1C1F" stroke="none" fill-rule="evenodd"></path></svg>