<svg width="12" height="12" viewBox="0 0 12 12" fill="none" xmlns="http://www.w3.org/2000/svg"><path d="M5.690 1.213 C 5.125 1.259,4.656 1.387,4.260 1.604 C 4.022 1.734,3.865 1.854,3.649 2.069 C 3.259 2.459,2.994 2.957,2.832 3.611 C 2.730 4.024,2.700 4.430,2.700 5.440 C 2.700 6.218,2.713 6.399,2.812 7.050 C 2.902 7.641,2.905 7.652,3.012 7.754 C 3.237 7.971,4.492 8.871,4.750 9.001 C 5.007 9.130,5.123 9.144,6.030 9.147 C 6.905 9.150,6.916 9.149,7.210 9.011 C 7.506 8.872,7.989 8.540,8.710 7.978 C 9.267 7.545,9.217 7.600,9.240 7.400 C 9.278 7.078,9.305 5.414,9.283 4.750 C 9.260 4.037,9.231 3.855,9.062 3.342 C 8.675 2.169,7.888 1.479,6.694 1.269 C 6.507 1.236,5.855 1.200,5.690 1.213 M6.832 2.471 C 7.090 2.515,7.348 2.592,7.520 2.676 C 7.856 2.841,8.183 3.267,8.290 3.679 C 8.356 3.935,8.331 4.207,8.187 4.800 C 8.103 5.146,8.017 5.342,7.889 5.479 C 7.694 5.688,7.495 5.771,7.026 5.839 C 6.343 5.938,5.705 5.942,5.095 5.851 C 4.494 5.762,4.354 5.713,4.158 5.526 C 3.966 5.343,3.864 5.076,3.741 4.434 C 3.634 3.873,3.643 3.675,3.789 3.366 C 3.999 2.924,4.296 2.696,4.866 2.540 C 5.181 2.453,5.284 2.444,5.982 2.442 C 6.502 2.440,6.695 2.447,6.832 2.471 M4.741 6.528 C 4.841 6.594,4.927 6.771,5.069 7.204 C 5.255 7.767,5.269 7.916,5.151 8.071 C 5.068 8.179,4.956 8.229,4.789 8.229 C 4.520 8.231,4.443 8.132,4.242 7.529 C 4.108 7.125,4.052 6.883,4.072 6.792 C 4.089 6.712,4.171 6.590,4.237 6.548 C 4.388 6.448,4.608 6.440,4.741 6.528 M7.626 6.481 C 7.714 6.506,7.848 6.619,7.894 6.708 C 7.943 6.803,7.930 6.964,7.850 7.237 C 7.697 7.764,7.541 8.111,7.428 8.182 C 7.287 8.268,7.058 8.251,6.930 8.144 C 6.813 8.047,6.773 7.971,6.775 7.844 C 6.777 7.598,7.052 6.770,7.191 6.586 C 7.271 6.483,7.463 6.436,7.626 6.481 M8.498 9.264 C 8.148 9.511,7.789 9.744,7.640 9.819 C 7.473 9.904,7.171 9.994,6.970 10.018 C 6.752 10.044,5.519 10.046,5.130 10.021 C 4.660 9.990,4.436 9.896,3.766 9.446 C 3.309 9.139,3.309 9.139,3.415 9.349 C 3.565 9.648,3.706 9.836,4.061 10.210 C 4.134 10.287,4.225 10.400,4.263 10.460 C 4.349 10.594,4.476 10.712,4.592 10.763 C 4.675 10.799,4.735 10.801,6.034 10.796 C 7.378 10.790,7.391 10.790,7.470 10.747 C 7.568 10.695,7.649 10.617,7.715 10.510 C 7.743 10.466,7.893 10.304,8.049 10.150 C 8.205 9.996,8.382 9.803,8.443 9.720 C 8.616 9.486,8.849 9.060,8.803 9.060 C 8.793 9.060,8.656 9.152,8.498 9.264 " fill="#1A1C1F" stroke="none" fill-rule="evenodd"></path></svg>