<svg width="28" height="28" viewBox="0 0 28 28" fill="none" xmlns="http://www.w3.org/2000/svg"><path d="M11.620 1.866 C 11.325 1.884,10.978 1.924,10.850 1.955 C 8.438 2.523,6.716 4.300,5.749 7.219 C 5.489 8.004,5.396 8.631,5.315 10.145 C 5.253 11.298,5.287 14.876,5.368 15.657 C 5.492 16.865,5.821 18.496,6.307 20.323 C 6.731 21.917,6.963 22.518,7.406 23.177 C 7.965 24.008,8.491 24.525,9.216 24.955 C 9.571 25.167,9.590 25.186,9.623 25.381 C 9.703 25.859,10.032 26.197,10.464 26.249 C 10.599 26.265,12.287 26.272,14.213 26.264 L 17.717 26.250 17.911 26.121 C 18.163 25.955,18.338 25.686,18.378 25.406 L 18.410 25.182 18.827 24.946 C 19.595 24.511,20.405 23.619,20.894 22.668 C 21.398 21.689,22.311 18.156,22.561 16.217 C 22.726 14.931,22.772 12.659,22.681 10.236 C 22.630 8.884,22.552 8.282,22.329 7.520 C 21.843 5.856,21.166 4.648,20.138 3.610 C 19.276 2.739,18.527 2.303,17.360 1.993 L 16.823 1.850 14.490 1.841 C 13.207 1.836,11.915 1.847,11.620 1.866 M16.800 3.654 C 17.987 3.945,18.704 4.447,19.492 5.540 C 19.832 6.012,20.335 6.994,20.513 7.532 C 20.873 8.628,20.920 9.299,20.895 12.973 C 20.874 16.006,20.879 15.942,20.597 17.360 C 20.461 18.050,20.347 18.272,20.033 18.467 C 19.451 18.828,17.262 20.115,17.041 20.227 C 16.595 20.452,16.189 20.525,15.206 20.558 C 14.202 20.591,12.031 20.520,11.597 20.439 C 11.264 20.377,10.892 20.184,9.287 19.241 C 8.632 18.857,7.980 18.476,7.836 18.396 L 7.576 18.249 7.428 17.443 C 7.078 15.538,7.027 14.783,7.062 12.087 C 7.100 9.199,7.160 8.569,7.495 7.563 C 7.950 6.194,8.834 4.897,9.707 4.317 C 10.248 3.957,10.974 3.678,11.590 3.594 C 11.747 3.573,12.916 3.561,14.187 3.568 C 16.108 3.578,16.548 3.593,16.800 3.654 M12.448 5.371 C 10.681 5.629,9.359 6.497,8.953 7.663 C 8.747 8.257,8.874 9.763,9.227 10.897 C 9.557 11.958,10.137 12.482,11.340 12.803 C 12.487 13.109,12.663 13.130,13.907 13.099 C 15.617 13.057,16.713 12.893,17.354 12.584 C 17.869 12.335,18.361 11.866,18.590 11.406 C 18.825 10.934,19.059 9.831,19.132 8.856 C 19.204 7.884,19.123 7.533,18.692 6.964 C 18.058 6.126,16.863 5.538,15.448 5.368 C 14.983 5.312,12.836 5.314,12.448 5.371 M14.700 7.091 C 15.497 7.125,15.659 7.146,16.007 7.257 C 16.719 7.485,17.066 7.699,17.260 8.027 C 17.366 8.208,17.382 8.285,17.377 8.587 C 17.369 8.964,17.210 9.987,17.101 10.353 C 17.011 10.657,16.858 10.871,16.655 10.976 C 16.459 11.077,15.772 11.216,15.077 11.296 C 14.096 11.408,12.239 11.281,11.527 11.053 C 11.086 10.912,10.934 10.643,10.762 9.707 C 10.602 8.832,10.572 8.466,10.640 8.213 C 10.741 7.838,11.218 7.501,11.991 7.259 C 12.652 7.052,13.122 7.023,14.700 7.091 M9.983 14.883 C 9.630 14.996,9.361 15.360,9.364 15.723 C 9.366 15.967,10.043 18.033,10.283 18.525 C 10.398 18.760,10.469 18.846,10.607 18.915 C 10.939 19.082,11.366 19.013,11.603 18.753 C 11.738 18.604,11.900 18.274,11.900 18.145 C 11.900 18.013,11.086 15.589,10.948 15.308 C 10.791 14.991,10.308 14.778,9.983 14.883 M17.383 14.943 C 17.039 15.063,16.910 15.304,16.475 16.637 C 16.064 17.894,16.002 18.154,16.060 18.365 C 16.125 18.600,16.464 18.932,16.682 18.973 C 16.935 19.020,17.240 18.972,17.397 18.860 C 17.579 18.731,17.669 18.529,18.032 17.446 C 18.601 15.748,18.629 15.503,18.293 15.166 C 18.039 14.913,17.705 14.830,17.383 14.943 M9.190 21.229 C 10.377 21.960,10.721 22.112,11.410 22.213 C 11.933 22.289,14.617 22.323,15.703 22.267 C 17.124 22.194,17.294 22.138,18.738 21.279 C 19.298 20.946,19.765 20.683,19.776 20.694 C 19.854 20.772,19.326 21.888,18.929 22.485 C 18.655 22.897,18.207 23.314,17.874 23.466 L 17.617 23.585 14.045 23.605 L 10.473 23.625 10.265 23.519 C 9.673 23.219,9.321 22.875,8.874 22.163 C 8.639 21.787,8.281 21.034,8.236 20.818 C 8.193 20.611,8.177 20.604,9.190 21.229 " fill="#1A1C1F" stroke="none" fill-rule="evenodd"></path></svg>