<svg width="24" height="24" viewBox="0 0 24 24" fill="none" xmlns="http://www.w3.org/2000/svg"><path d="M10.062 2.082 C 8.775 2.227,7.789 2.709,6.936 3.611 C 6.013 4.585,5.308 6.121,5.100 7.612 C 4.949 8.692,4.924 11.956,5.058 13.177 C 5.172 14.221,5.462 15.650,5.842 17.052 C 6.209 18.400,6.443 18.918,7.021 19.660 C 7.343 20.073,7.686 20.397,7.972 20.559 L 8.200 20.688 8.200 21.072 C 8.200 21.421,8.209 21.469,8.305 21.608 C 8.363 21.691,8.492 21.814,8.592 21.880 L 8.774 22.000 12.000 22.000 L 15.226 22.000 15.408 21.880 C 15.508 21.814,15.639 21.687,15.700 21.599 C 15.797 21.460,15.814 21.392,15.831 21.062 L 15.851 20.685 16.077 20.545 C 16.550 20.253,17.220 19.442,17.573 18.737 C 17.998 17.885,18.494 15.995,18.838 13.921 L 19.000 12.941 18.999 11.241 C 18.997 9.016,18.949 7.784,18.844 7.248 C 18.546 5.725,17.799 4.298,16.807 3.353 C 16.261 2.833,15.761 2.533,15.060 2.305 C 14.405 2.092,14.205 2.075,12.220 2.060 C 11.208 2.052,10.237 2.062,10.062 2.082 M14.420 3.877 C 15.190 4.131,15.729 4.560,16.258 5.337 C 16.660 5.929,17.050 6.885,17.156 7.540 C 17.243 8.076,17.279 8.991,17.279 10.700 C 17.280 12.413,17.256 12.922,17.138 13.720 C 17.047 14.331,17.028 14.374,16.752 14.586 C 16.364 14.885,14.711 15.979,14.475 16.094 C 14.001 16.324,13.430 16.398,12.140 16.399 C 10.845 16.400,10.120 16.320,9.580 16.117 C 9.349 16.031,8.370 15.394,7.465 14.741 C 7.162 14.523,7.015 14.389,6.977 14.300 C 6.948 14.229,6.882 13.903,6.832 13.575 C 6.744 13.005,6.740 12.882,6.741 10.660 C 6.742 7.810,6.780 7.396,7.122 6.536 C 7.583 5.375,8.272 4.509,9.063 4.097 C 9.661 3.785,9.855 3.765,12.180 3.775 C 14.110 3.784,14.144 3.786,14.420 3.877 M10.360 5.180 C 9.241 5.443,8.465 6.176,8.254 7.170 C 8.177 7.534,8.202 7.888,8.364 8.711 C 8.573 9.778,8.678 10.040,9.056 10.433 C 9.423 10.817,9.647 10.930,10.360 11.091 C 10.703 11.168,10.860 11.177,11.980 11.178 C 13.294 11.180,13.525 11.156,14.148 10.955 C 14.811 10.741,15.255 10.233,15.473 9.440 C 15.588 9.023,15.750 8.159,15.781 7.800 C 15.863 6.858,15.275 5.877,14.358 5.425 C 13.768 5.134,13.621 5.112,12.100 5.096 C 10.811 5.082,10.770 5.084,10.360 5.180 M12.960 6.801 C 13.413 6.848,13.779 7.005,13.945 7.224 C 14.048 7.359,14.051 7.374,14.028 7.771 C 14.005 8.165,13.893 8.792,13.790 9.108 C 13.732 9.284,13.640 9.338,13.250 9.424 C 12.822 9.518,11.595 9.542,11.027 9.466 C 10.444 9.389,10.278 9.316,10.210 9.108 C 10.135 8.877,10.009 8.226,9.958 7.807 C 9.914 7.438,9.914 7.432,10.017 7.277 C 10.276 6.886,10.695 6.765,11.800 6.763 C 12.229 6.762,12.751 6.779,12.960 6.801 M9.187 12.738 C 8.999 12.805,8.899 12.893,8.778 13.100 C 8.605 13.395,8.610 13.532,8.811 13.988 C 9.155 14.769,9.418 15.161,9.668 15.266 C 10.023 15.414,10.487 15.278,10.684 14.967 C 10.830 14.737,10.865 14.550,10.804 14.322 C 10.741 14.087,10.320 13.227,10.160 13.006 C 9.948 12.714,9.557 12.606,9.187 12.738 M14.128 12.747 C 13.951 12.834,13.719 13.165,13.459 13.700 C 13.112 14.413,13.090 14.610,13.316 14.967 C 13.463 15.200,13.719 15.331,14.019 15.329 C 14.421 15.325,14.624 15.132,14.997 14.397 C 15.302 13.796,15.379 13.541,15.322 13.328 C 15.260 13.097,15.033 12.822,14.841 12.745 C 14.634 12.662,14.298 12.663,14.128 12.747 M8.075 17.227 C 8.849 17.713,9.194 17.856,9.888 17.977 C 10.803 18.136,12.937 18.159,13.859 18.019 C 14.691 17.893,15.120 17.728,15.948 17.216 C 16.176 17.075,16.379 16.960,16.400 16.960 C 16.463 16.960,16.207 17.632,15.968 18.094 C 15.682 18.646,15.344 19.027,14.983 19.198 L 14.733 19.318 11.977 19.294 C 8.825 19.267,9.058 19.295,8.634 18.892 C 8.262 18.538,7.968 18.066,7.730 17.441 C 7.583 17.055,7.559 16.960,7.608 16.960 C 7.631 16.960,7.841 17.080,8.075 17.227 " fill="#1A1C1F" stroke="none" fill-rule="evenodd"></path></svg>