<svg width="16" height="16" viewBox="0 0 16 16" fill="none" xmlns="http://www.w3.org/2000/svg"><path d="M5.127 1.668 C 4.134 1.828,3.391 2.194,2.804 2.813 C 2.296 3.350,1.946 4.055,1.749 4.939 C 1.641 5.427,1.626 5.613,1.609 6.707 C 1.593 7.782,1.617 8.460,1.694 9.049 C 1.752 9.489,1.887 10.245,1.912 10.266 C 2.349 10.637,3.619 11.564,4.093 11.858 C 4.496 12.107,4.734 12.176,5.285 12.204 L 5.623 12.221 5.632 11.184 L 5.640 10.147 5.713 10.023 C 5.800 9.875,5.998 9.694,6.116 9.655 C 6.199 9.627,6.202 9.621,6.355 9.070 C 6.441 8.764,6.555 8.379,6.610 8.216 C 6.707 7.926,6.708 7.918,6.655 7.907 C 6.625 7.901,6.294 7.890,5.920 7.883 C 5.223 7.871,4.910 7.837,4.267 7.708 C 3.941 7.642,3.764 7.564,3.585 7.407 C 3.308 7.163,3.198 6.910,3.025 6.117 C 2.943 5.744,2.924 5.598,2.913 5.266 C 2.901 4.889,2.904 4.855,2.968 4.671 C 3.068 4.384,3.186 4.203,3.440 3.945 C 3.625 3.758,3.708 3.696,3.893 3.607 C 4.401 3.363,4.853 3.269,5.787 3.212 C 6.102 3.193,6.714 3.233,7.093 3.297 C 7.707 3.400,8.179 3.598,8.438 3.862 C 8.633 4.062,8.793 4.291,8.931 4.569 C 9.148 5.008,9.151 5.387,8.945 6.302 C 8.892 6.534,8.856 6.741,8.864 6.762 C 8.876 6.794,9.007 6.800,9.643 6.800 L 10.408 6.800 10.392 6.340 C 10.373 5.825,10.318 5.339,10.238 4.976 C 10.101 4.357,9.823 3.708,9.504 3.262 C 9.296 2.972,8.840 2.521,8.559 2.329 C 8.118 2.027,7.566 1.806,6.997 1.703 C 6.577 1.628,5.506 1.608,5.127 1.668 M8.200 7.651 C 8.043 7.677,7.822 7.807,7.652 7.973 C 7.459 8.162,7.409 8.291,7.071 9.476 L 6.811 10.387 6.605 10.394 L 6.400 10.402 6.400 11.201 L 6.400 12.000 6.513 12.000 C 6.662 12.001,6.692 12.024,6.722 12.157 C 6.753 12.294,6.799 13.354,6.799 13.953 L 6.800 14.400 7.596 14.400 L 8.392 14.400 8.407 14.065 C 8.415 13.881,8.427 13.724,8.435 13.716 C 8.442 13.709,8.597 13.721,8.778 13.744 C 9.786 13.872,11.014 13.872,12.022 13.744 C 12.203 13.721,12.357 13.708,12.364 13.715 C 12.371 13.722,12.383 13.879,12.392 14.064 L 12.408 14.400 13.200 14.400 L 13.992 14.400 14.011 13.593 C 14.031 12.706,14.067 12.127,14.109 12.050 C 14.129 12.011,14.166 12.000,14.268 12.000 L 14.400 12.000 14.400 11.201 L 14.400 10.402 14.195 10.394 L 13.991 10.387 13.797 9.674 C 13.595 8.931,13.433 8.417,13.334 8.208 C 13.258 8.046,13.012 7.813,12.806 7.710 L 12.642 7.627 10.474 7.630 C 9.282 7.632,8.259 7.641,8.200 7.651 M4.297 8.682 C 4.410 8.740,4.512 8.916,4.649 9.290 C 4.932 10.056,5.026 10.522,4.928 10.671 C 4.780 10.897,4.561 11.007,4.318 10.978 C 4.097 10.952,4.015 10.882,3.880 10.604 C 3.741 10.316,3.479 9.540,3.441 9.300 C 3.389 8.974,3.549 8.714,3.850 8.637 C 3.963 8.608,4.200 8.632,4.297 8.682 M12.368 8.967 C 12.395 9.058,12.500 9.406,12.601 9.739 C 12.701 10.073,12.774 10.355,12.763 10.366 C 12.752 10.377,11.677 10.390,10.375 10.394 L 8.008 10.401 8.190 9.780 C 8.291 9.439,8.397 9.079,8.427 8.980 L 8.482 8.800 10.400 8.800 L 12.317 8.800 12.368 8.967 M12.946 11.154 C 13.064 11.221,13.172 11.386,13.173 11.501 C 13.174 11.608,13.078 11.779,12.993 11.823 C 12.878 11.882,12.518 11.990,12.223 12.053 C 11.917 12.118,11.858 12.106,11.727 11.950 C 11.600 11.799,11.611 11.525,11.747 11.418 C 11.842 11.343,12.632 11.098,12.787 11.095 C 12.816 11.095,12.888 11.121,12.946 11.154 M8.435 11.199 C 9.048 11.357,9.160 11.434,9.156 11.696 C 9.154 11.862,9.106 11.948,8.958 12.048 C 8.854 12.119,8.822 12.116,8.360 12.000 C 7.903 11.886,7.760 11.820,7.688 11.693 C 7.655 11.635,7.627 11.553,7.627 11.512 C 7.626 11.402,7.724 11.232,7.821 11.172 C 7.939 11.100,8.077 11.106,8.435 11.199 M2.504 12.368 C 2.747 12.850,2.925 13.095,3.389 13.587 C 3.500 13.706,3.633 13.868,3.685 13.948 C 3.736 14.028,3.829 14.139,3.892 14.196 C 4.100 14.383,4.098 14.383,5.100 14.395 L 6.000 14.405 6.000 13.899 L 6.000 13.393 5.327 13.379 C 4.592 13.364,4.408 13.337,4.053 13.196 C 3.806 13.098,3.386 12.848,2.884 12.501 C 2.674 12.356,2.484 12.230,2.462 12.221 C 2.434 12.211,2.447 12.256,2.504 12.368 " fill="#1A1C1F" stroke="none" fill-rule="evenodd"></path></svg>