<svg width="20" height="20" viewBox="0 0 20 20" fill="none" xmlns="http://www.w3.org/2000/svg"><path d="M9.117 2.056 C 7.838 2.221,6.859 2.670,6.083 3.449 C 5.425 4.109,5.030 4.838,4.753 5.905 C 4.528 6.769,4.520 6.876,4.522 8.917 L 4.523 10.750 4.631 11.432 C 4.811 12.578,4.860 12.811,4.931 12.867 C 6.551 14.144,7.791 14.998,8.230 15.137 C 8.407 15.193,8.597 15.213,9.200 15.240 C 10.030 15.276,11.327 15.252,11.564 15.195 C 11.774 15.145,12.266 14.910,12.567 14.717 C 12.970 14.458,13.835 13.828,14.517 13.297 C 15.444 12.575,15.361 12.666,15.400 12.333 C 15.462 11.815,15.506 9.028,15.471 7.917 C 15.442 7.012,15.427 6.832,15.351 6.472 C 15.246 5.969,14.989 5.183,14.806 4.798 C 14.060 3.236,12.627 2.260,10.792 2.067 C 10.499 2.036,9.330 2.029,9.117 2.056 M11.100 4.086 C 12.529 4.272,13.121 4.645,13.641 5.683 C 13.930 6.261,13.948 6.657,13.731 7.633 C 13.606 8.195,13.484 8.601,13.376 8.815 C 13.251 9.061,12.956 9.352,12.715 9.468 C 11.931 9.842,9.787 9.972,8.338 9.733 C 7.471 9.591,7.185 9.480,6.894 9.175 C 6.587 8.853,6.487 8.601,6.289 7.648 C 6.069 6.589,6.060 6.184,6.249 5.735 C 6.480 5.187,6.804 4.818,7.300 4.540 C 7.714 4.307,8.518 4.106,9.323 4.034 C 9.741 3.996,10.607 4.022,11.100 4.086 M7.897 10.877 C 8.068 10.991,8.195 11.247,8.430 11.952 C 8.759 12.943,8.785 13.189,8.585 13.451 C 8.446 13.632,8.259 13.715,7.981 13.716 C 7.530 13.718,7.398 13.544,7.050 12.491 C 6.951 12.191,6.845 11.816,6.813 11.658 L 6.757 11.370 6.847 11.186 C 6.897 11.085,6.983 10.969,7.038 10.930 C 7.289 10.751,7.671 10.728,7.897 10.877 M12.711 10.802 C 12.857 10.843,13.080 11.032,13.157 11.180 C 13.187 11.239,13.208 11.358,13.206 11.466 C 13.201 11.799,12.776 13.108,12.566 13.434 C 12.431 13.644,12.287 13.713,11.980 13.714 C 11.695 13.715,11.571 13.646,11.396 13.389 C 11.238 13.157,11.247 12.999,11.463 12.295 C 11.759 11.325,11.918 10.978,12.110 10.878 C 12.316 10.771,12.509 10.746,12.711 10.802 M14.212 15.406 C 13.183 16.139,12.616 16.465,12.133 16.598 C 11.695 16.719,11.222 16.743,9.667 16.725 C 8.235 16.707,8.213 16.706,7.933 16.622 C 7.407 16.465,7.035 16.262,6.080 15.611 C 5.797 15.419,5.567 15.281,5.567 15.303 C 5.567 15.378,5.903 15.978,6.094 16.245 C 6.198 16.389,6.448 16.681,6.650 16.895 C 6.852 17.109,7.058 17.352,7.107 17.435 C 7.220 17.630,7.464 17.854,7.651 17.937 C 7.791 17.999,7.883 18.001,10.057 17.993 C 12.297 17.983,12.318 17.983,12.450 17.912 C 12.613 17.825,12.748 17.694,12.859 17.517 C 12.905 17.443,13.155 17.173,13.414 16.917 C 13.674 16.660,13.970 16.337,14.072 16.200 C 14.362 15.808,14.748 15.100,14.671 15.100 C 14.654 15.100,14.448 15.238,14.212 15.406 " fill="#1A1C1F" stroke="none" fill-rule="evenodd"></path></svg>