<svg width="20" height="20" viewBox="0 0 20 20" fill="none" xmlns="http://www.w3.org/2000/svg"><path d="M6.617 2.054 C 5.331 2.245,4.413 2.648,3.676 3.346 C 3.063 3.927,2.668 4.582,2.369 5.518 C 2.072 6.447,2.001 7.087,2.001 8.867 C 2.000 10.347,2.055 11.050,2.266 12.254 C 2.344 12.695,2.379 12.826,2.430 12.866 C 2.466 12.894,2.650 13.039,2.839 13.187 C 3.768 13.918,5.151 14.886,5.466 15.025 C 5.784 15.166,6.123 15.236,6.590 15.257 L 7.029 15.276 7.040 13.980 C 7.050 12.718,7.052 12.680,7.123 12.546 C 7.213 12.378,7.498 12.117,7.643 12.069 C 7.749 12.034,7.752 12.026,7.914 11.442 C 8.004 11.116,8.144 10.642,8.224 10.388 C 8.305 10.134,8.362 9.917,8.350 9.906 C 8.338 9.894,7.949 9.874,7.485 9.862 C 6.113 9.824,5.114 9.666,4.683 9.417 C 4.500 9.311,4.225 9.013,4.120 8.807 C 3.880 8.334,3.560 6.730,3.617 6.288 C 3.728 5.428,4.246 4.764,5.085 4.409 C 6.150 3.958,8.089 3.887,9.450 4.248 C 10.197 4.447,10.614 4.764,11.016 5.440 C 11.270 5.866,11.339 6.069,11.358 6.450 C 11.379 6.852,11.334 7.215,11.178 7.893 C 11.114 8.175,11.070 8.426,11.080 8.452 C 11.095 8.492,11.256 8.500,12.054 8.500 L 13.010 8.500 12.990 7.892 C 12.925 5.977,12.422 4.581,11.423 3.545 C 10.656 2.748,9.867 2.339,8.660 2.112 C 8.391 2.062,6.859 2.018,6.617 2.054 M10.250 9.564 C 10.051 9.597,9.773 9.760,9.564 9.967 C 9.324 10.203,9.258 10.374,8.835 11.849 L 8.510 12.983 8.255 12.993 L 8.000 13.003 8.000 14.001 L 8.000 15.000 8.127 15.000 C 8.293 15.000,8.363 15.056,8.401 15.218 C 8.440 15.380,8.498 16.720,8.499 17.458 L 8.500 18.000 9.495 18.000 L 10.490 18.000 10.508 17.581 C 10.518 17.351,10.534 17.155,10.544 17.145 C 10.553 17.136,10.746 17.152,10.972 17.180 C 12.232 17.339,13.689 17.339,15.011 17.180 C 15.247 17.152,15.446 17.135,15.455 17.144 C 15.463 17.152,15.479 17.348,15.490 17.580 L 15.510 18.000 16.500 18.000 L 17.490 18.000 17.513 17.042 C 17.535 16.127,17.588 15.067,17.614 15.041 C 17.621 15.035,17.710 15.021,17.813 15.010 L 18.000 14.991 18.000 13.995 L 18.000 13.000 17.775 12.999 C 17.651 12.999,17.533 12.988,17.512 12.974 C 17.491 12.961,17.411 12.710,17.334 12.417 C 17.039 11.287,16.814 10.564,16.666 10.267 C 16.551 10.037,16.273 9.771,16.006 9.637 L 15.802 9.533 13.093 9.538 C 11.603 9.540,10.323 9.552,10.250 9.564 M5.371 10.852 C 5.512 10.925,5.640 11.145,5.812 11.612 C 6.046 12.249,6.204 12.823,6.208 13.057 C 6.211 13.230,6.197 13.284,6.122 13.392 C 5.856 13.776,5.359 13.850,5.037 13.554 C 4.893 13.421,4.774 13.161,4.552 12.489 C 4.296 11.716,4.242 11.464,4.299 11.307 C 4.399 11.029,4.571 10.859,4.814 10.796 C 4.954 10.760,5.251 10.790,5.371 10.852 M15.460 11.208 C 15.494 11.323,15.625 11.758,15.751 12.174 C 15.877 12.591,15.968 12.943,15.954 12.958 C 15.939 12.972,14.596 12.987,12.968 12.992 L 10.009 13.001 10.239 12.226 C 10.366 11.799,10.499 11.349,10.536 11.225 L 10.603 11.000 13.000 11.000 L 15.397 11.000 15.460 11.208 M16.183 13.943 C 16.330 14.027,16.465 14.233,16.466 14.376 C 16.467 14.512,16.347 14.724,16.238 14.781 C 16.108 14.848,15.540 15.014,15.210 15.081 C 14.899 15.145,14.814 15.122,14.658 14.937 C 14.509 14.760,14.511 14.424,14.662 14.287 C 14.765 14.194,15.781 13.872,15.983 13.869 C 16.020 13.868,16.110 13.902,16.183 13.943 M10.600 14.019 C 11.186 14.174,11.369 14.270,11.427 14.455 C 11.502 14.693,11.385 14.970,11.161 15.086 C 11.068 15.134,11.034 15.133,10.737 15.069 C 10.204 14.955,9.767 14.806,9.664 14.702 C 9.389 14.427,9.619 13.900,10.013 13.900 C 10.088 13.900,10.352 13.954,10.600 14.019 M3.214 15.619 C 3.470 16.104,3.707 16.428,4.150 16.895 C 4.352 17.109,4.558 17.352,4.607 17.435 C 4.655 17.519,4.765 17.651,4.850 17.729 C 5.122 17.980,5.112 17.979,6.375 17.993 L 7.500 18.007 7.500 17.374 L 7.500 16.741 6.658 16.724 C 5.740 16.705,5.510 16.672,5.067 16.495 C 4.755 16.371,4.227 16.058,3.606 15.627 C 3.343 15.445,3.104 15.287,3.075 15.275 C 3.041 15.262,3.091 15.387,3.214 15.619 " fill="#1A1C1F" stroke="none" fill-rule="evenodd"></path></svg>