<svg width="32" height="32" viewBox="0 0 32 32" fill="none" xmlns="http://www.w3.org/2000/svg"><path d="M9.280 2.132 C 8.596 2.175,8.355 2.224,7.644 2.458 C 6.589 2.806,5.818 3.294,4.960 4.159 C 3.567 5.562,2.650 7.427,2.233 9.701 C 2.033 10.792,1.969 16.383,2.138 17.973 C 2.273 19.235,2.682 21.251,3.205 23.227 C 3.796 25.459,4.171 26.262,5.143 27.374 C 5.601 27.898,5.972 28.204,6.514 28.507 C 6.932 28.740,6.945 28.757,7.036 29.147 C 7.113 29.475,7.322 29.744,7.626 29.905 C 7.835 30.015,7.926 30.026,8.582 30.024 C 9.688 30.019,10.081 29.965,10.317 29.785 C 10.666 29.519,10.744 29.295,10.743 28.560 C 10.741 27.832,10.669 27.513,10.463 27.322 C 10.168 27.048,10.066 27.026,8.934 26.990 C 7.751 26.953,7.723 26.945,7.165 26.525 C 6.719 26.189,6.178 25.470,5.787 24.693 C 5.597 24.317,5.387 23.777,5.387 23.667 C 5.387 23.609,5.729 23.797,6.944 24.522 C 7.875 25.078,8.676 25.401,9.121 25.401 C 9.360 25.401,9.756 25.189,9.885 24.991 C 10.023 24.781,10.100 24.418,10.057 24.185 C 9.998 23.866,9.619 23.525,9.117 23.340 C 8.644 23.166,8.311 22.986,6.693 22.038 C 4.564 20.789,4.721 20.902,4.622 20.547 C 4.502 20.113,4.283 18.891,4.187 18.122 C 4.124 17.607,4.107 16.815,4.107 14.348 C 4.108 11.228,4.142 10.373,4.298 9.607 C 4.426 8.978,4.710 8.179,5.042 7.513 C 6.107 5.379,7.419 4.343,9.360 4.105 C 10.115 4.012,13.885 4.007,14.587 4.098 C 15.311 4.192,15.887 4.339,16.298 4.536 C 16.772 4.762,17.432 5.271,17.765 5.668 C 18.417 6.445,19.142 7.713,19.435 8.591 C 19.558 8.958,19.675 9.506,19.918 10.846 C 19.965 11.106,20.050 11.409,20.107 11.520 C 20.426 12.146,21.388 12.110,21.761 11.459 C 21.877 11.255,21.892 11.169,21.885 10.747 C 21.851 8.721,20.730 5.964,19.304 4.404 C 18.271 3.273,17.269 2.658,15.840 2.278 L 15.227 2.114 12.560 2.104 C 11.093 2.098,9.617 2.111,9.280 2.132 M10.800 6.082 C 8.521 6.244,6.739 7.289,6.234 8.758 C 6.023 9.372,6.115 10.803,6.455 12.187 C 6.761 13.432,7.583 14.283,8.773 14.587 C 9.624 14.804,11.403 15.030,11.748 14.966 C 12.186 14.884,12.573 14.330,12.511 13.873 C 12.494 13.745,12.430 13.558,12.368 13.458 C 12.164 13.128,11.998 13.080,9.981 12.774 C 8.992 12.624,8.824 12.551,8.608 12.182 C 8.448 11.909,8.253 11.019,8.152 10.099 C 8.086 9.493,8.087 9.481,8.211 9.247 C 8.436 8.822,9.035 8.476,9.973 8.228 C 10.410 8.112,10.630 8.090,11.573 8.067 C 12.203 8.052,12.893 8.065,13.200 8.099 C 14.614 8.253,15.673 8.767,15.838 9.378 C 15.880 9.536,15.873 9.791,15.811 10.391 C 15.710 11.355,15.744 11.551,16.059 11.851 C 16.357 12.135,16.620 12.203,16.984 12.088 C 17.510 11.922,17.677 11.612,17.838 10.500 C 18.015 9.275,17.904 8.678,17.364 7.962 C 16.640 7.002,15.170 6.292,13.591 6.139 C 12.788 6.061,11.475 6.035,10.800 6.082 M15.021 14.251 C 14.790 14.373,14.486 14.584,14.346 14.721 C 13.882 15.173,13.745 15.553,13.176 17.973 C 12.966 18.868,12.772 19.686,12.744 19.792 L 12.694 19.984 12.104 20.017 C 11.214 20.068,11.047 20.183,11.000 20.778 C 10.939 21.528,11.265 22.027,11.817 22.027 C 11.941 22.027,11.947 22.042,11.947 22.366 C 11.947 22.762,12.062 23.977,12.218 25.227 C 12.297 25.859,12.379 26.262,12.510 26.659 C 12.680 27.174,12.695 27.280,12.740 28.232 C 12.773 28.937,12.813 29.314,12.869 29.450 C 12.967 29.683,13.261 29.892,13.600 29.969 C 14.151 30.095,15.052 29.992,15.356 29.769 C 15.538 29.636,15.692 29.314,15.722 29.007 L 15.747 28.747 20.476 28.747 L 25.205 28.747 25.270 29.060 C 25.356 29.477,25.517 29.705,25.840 29.867 C 26.078 29.986,26.172 30.000,26.720 30.000 C 27.391 30.000,27.636 29.941,27.902 29.718 C 28.170 29.493,28.215 29.305,28.274 28.200 C 28.320 27.330,28.350 27.116,28.482 26.688 C 28.566 26.413,28.672 25.942,28.716 25.641 C 28.797 25.094,29.051 22.745,29.079 22.295 C 29.093 22.060,29.097 22.056,29.321 22.011 C 29.472 21.982,29.618 21.900,29.754 21.770 C 29.943 21.588,29.960 21.546,29.989 21.200 C 30.028 20.728,29.966 20.342,29.830 20.207 C 29.709 20.085,29.241 20.003,28.664 20.001 L 28.287 20.000 28.137 19.320 C 27.887 18.186,27.273 15.779,27.153 15.464 C 27.009 15.086,26.614 14.642,26.152 14.342 L 25.792 14.107 23.549 14.072 C 22.316 14.052,19.987 14.035,18.373 14.033 L 15.440 14.030 15.021 14.251 M25.220 16.135 C 25.319 16.228,25.473 16.778,25.871 18.465 C 26.057 19.249,26.189 19.909,26.166 19.932 C 26.143 19.955,23.568 19.980,20.444 19.988 L 14.764 20.002 14.801 19.828 C 14.877 19.465,15.475 16.969,15.580 16.577 C 15.647 16.328,15.724 16.152,15.778 16.127 C 15.972 16.039,17.320 16.017,21.147 16.041 C 24.314 16.061,25.162 16.080,25.220 16.135 M7.421 17.012 C 7.197 17.067,6.794 17.456,6.716 17.692 C 6.672 17.826,6.674 17.941,6.723 18.149 C 6.849 18.681,7.669 21.117,7.786 21.306 C 8.012 21.672,8.609 21.836,8.990 21.638 C 9.310 21.472,9.547 21.097,9.547 20.757 C 9.547 20.477,8.727 17.869,8.500 17.429 C 8.349 17.134,7.794 16.920,7.421 17.012 M26.912 22.161 C 27.012 22.313,27.069 22.703,27.020 22.898 C 26.981 23.054,26.939 23.072,26.315 23.201 C 25.453 23.379,25.188 23.550,25.064 24.011 C 24.948 24.442,25.129 24.867,25.528 25.101 C 25.752 25.232,25.799 25.239,26.267 25.215 L 26.768 25.188 26.739 25.354 C 26.690 25.637,26.553 26.098,26.471 26.257 C 26.363 26.467,26.052 26.590,25.387 26.688 C 22.769 27.071,17.966 27.059,15.440 26.661 C 14.682 26.542,14.463 26.348,14.319 25.670 C 14.199 25.107,14.182 25.135,14.616 25.195 C 15.233 25.280,15.612 25.134,15.848 24.720 C 16.089 24.296,15.951 23.700,15.550 23.438 C 15.479 23.391,15.101 23.286,14.710 23.205 L 14.000 23.058 14.000 22.652 C 14.000 22.390,14.025 22.221,14.069 22.176 C 14.169 22.076,15.625 22.049,21.665 22.037 L 26.824 22.027 26.912 22.161 M18.560 23.463 C 18.263 23.483,18.061 23.525,17.973 23.585 C 17.793 23.707,17.495 24.106,17.252 24.550 C 17.085 24.856,17.053 24.965,17.051 25.243 C 17.049 25.454,17.081 25.636,17.139 25.746 C 17.242 25.944,17.712 26.239,17.925 26.239 C 18.281 26.241,18.684 25.997,18.950 25.619 L 19.114 25.387 20.508 25.387 L 21.902 25.387 22.096 25.667 C 22.431 26.150,22.791 26.311,23.255 26.186 C 23.717 26.062,24.055 25.519,23.952 25.067 C 23.869 24.701,23.421 23.961,23.096 23.654 C 22.947 23.513,22.877 23.490,22.490 23.458 C 21.974 23.415,19.211 23.418,18.560 23.463 " fill="#1A1C1F" stroke="none" fill-rule="evenodd"></path></svg>