<svg id="icon" height="32" viewBox="0 0 32 32" width="32" xmlns="http://www.w3.org/2000/svg"><path d="m 27.170036,6.2001451 a 2.79,2.79 0 0 1 2.83,2.77 V 22.970145 a 2.84,2.84 0 0 1 -2.83,2.83 H 4.8000357 a 2.81,2.81 0 0 1 -2.8,-2.83 V 8.9701451 a 2.76,2.76 0 0 1 2.8,-2.77 z m -22.3700003,2 a 0.74,0.74 0 0 0 -0.8,0.77 V 22.970145 a 0.75,0.75 0 0 0 0.8,0.79 H 27.210036 a 0.77,0.77 0 0 0 0.79,-0.79 l -0.04,-13.9899999 a 0.76,0.76 0 0 0 -0.79,-0.78 z m 17.6400003,1.38 c 2.26,0 3.64,1.2299999 3.64,3.1099999 a 3.2,3.2 0 0 1 -2.24,3 3.07,3.07 0 0 1 2.69,3.11 c 0,2.55 -1.74,3.61 -4.93,3.61 h -4.54 V 9.5801451 Z m -11.87,-0.02 c 3.3,0 5.15,2.0999999 5.15,6.3599999 0,3.72 -1.26,6.46 -5.15,6.49 H 5.8400357 V 9.5601451 Z m 10.89,7.4799999 h -1.34 v 3.27 h 1.317 c 0.53,-0.002 2.013,-0.06 2.023,-1.65 0,-0.7 -0.4,-1.62 -2,-1.62 z m -11.8500003,-5.44 h -0.69 v 8.71 h 1.0800003 c 1.66,0 2.61,-1.29 2.61,-4.11 0,-2.58 -0.28,-4.6 -3.0000003,-4.6 z m 11.4600003,-0.05 h -0.95 v 3.11 h 1.2 a 1.53,1.53 0 0 0 1.68,-1.57 c 0,-1.07 -0.53,-1.54 -1.93,-1.54 z" fill="#282d37" style="var(--db-icon-color, currentColor)" fill-rule="evenodd" /></svg>
