<svg id="icon" height="24" viewBox="0 0 24 24" width="24" xmlns="http://www.w3.org/2000/svg"><path d="m 19.978006,5.0000608 a 2,2 0 0 1 2.022,1.986 V 16.986061 a 2.03,2.03 0 0 1 -2.022,2.014 H 4.0000061 a 2.007,2.007 0 0 1 -2,-2.014 V 6.9860608 a 1.978,1.978 0 0 1 2,-1.956 H 19.978006 Z m 0,1.424 H 4.0000061 a 0.532,0.532 0 0 0 -0.54,0.562 V 17.016061 a 0.532,0.532 0 0 0 0.54,0.561 H 19.978006 a 0.547,0.547 0 0 0 0.561,-0.562 V 6.9850608 a 0.547,0.547 0 0 0 -0.561,-0.561 z m -11.8579999,0.981 c 2.3599999,0 3.6779999,1.498 3.6779999,4.5400002 0,2.658 -0.9,4.621 -3.6779999,4.636 v 0.03 h -3.378 V 7.4050608 Z m 8.4799999,0.022 c 1.617,0 2.599,0.907 2.599,2.248 a 2.247,2.247 0 0 1 -1.596,2.1420002 l 0.06,-0.02 0.097,0.015 a 2.173,2.173 0 0 1 1.752,2.033 l 0.001,0.16 c 0,1.827 -1.273,2.576 -3.52,2.576 h -3.244 V 7.4270608 Z m -9.1999999,1.469 h -0.464 v 6.2170002 h 0.802 c 1.16,-0.03 1.843,-0.951 1.843,-2.966 v 0.03 c 0,-1.843 -0.203,-3.2810002 -2.18,-3.2810002 z m 8.5029999,3.8420002 h -0.967 v 2.345 h 0.957 c 0.388,-0.003 1.425,-0.054 1.425,-1.184 0,-0.502 -0.277,-1.16 -1.415,-1.16 z m -0.285,-3.9170002 h -0.682 v 2.2240002 h 0.862 a 1.101,1.101 0 0 0 1.206,-1.1230002 c 0,-0.757 -0.382,-1.101 -1.386,-1.101 z" fill="#282d37" style="var(--db-icon-color, currentColor)" fill-rule="evenodd" /></svg>
