<svg id="icon" height="48" viewBox="0 0 48 48" width="48" xmlns="http://www.w3.org/2000/svg"><path d="m 41.553055,8.6002271 a 4.384,4.384 0 0 1 4.447,4.3529999 v 22 a 4.463,4.463 0 0 1 -4.447,4.447 H 6.4000545 a 4.416,4.416 0 0 1 -4.4,-4.447 v -22 a 4.338,4.338 0 0 1 4.4,-4.3529999 z M 6.4000545,11.743227 a 1.163,1.163 0 0 0 -1.257,1.21 v 22.144 a 1.179,1.179 0 0 0 1.257,1.098 H 41.616055 a 1.21,1.21 0 0 0 1.241,-1.242 l -0.063,-21.984 a 1.194,1.194 0 0 0 -1.241,-1.226 z m 27.7200005,2.169 c 3.551,0 5.72,1.933 5.72,4.887 a 5.029,5.029 0 0 1 -3.52,4.714 4.824,4.824 0 0 1 4.227,4.887 c 0,4.007 -2.734,5.673 -7.747,5.673 h -7.134 v -20.161 z m -18.653,-0.032 c 5.186,0 8.093,3.3 8.093,9.995 0,5.845 -1.98,10.151 -8.093,10.198 H 8.0340545 v -20.193 z m 17.113,11.755 h -2.106 v 5.138 h 2.05 c 0.815,-0.002 3.184,-0.076 3.199,-2.593 0,-1.1 -0.629,-2.545 -3.143,-2.545 z m -18.621,-8.549 h -1.085 v 13.687 h 1.697 c 2.609,0 4.102,-2.027 4.102,-6.458 0,-4.055 -0.44,-7.229 -4.714,-7.229 z m 18.008,-0.078 h -1.493 v 4.887 h 1.886 a 2.404,2.404 0 0 0 2.64,-2.467 c 0,-1.682 -0.833,-2.42 -3.033,-2.42 z" fill="#282d37" fill-rule="evenodd" style="var(--db-icon-color, currentColor)"/></svg>
