<svg id="icon" height="64" viewBox="0 0 64 64" width="64" xmlns="http://www.w3.org/2000/svg"><path d="m 55.936077,11.000306 a 5.979,5.979 0 0 1 6.064,5.936 v 30 a 6.086,6.086 0 0 1 -6.064,6.064 H 8.0000769 a 6.021,6.021 0 0 1 -6,-6.064 v -30 a 5.915,5.915 0 0 1 6,-5.936 z m -47.9360001,4.286 a 1.586,1.586 0 0 0 -1.714,1.65 v 30 a 1.607,1.607 0 0 0 1.714,1.693 H 56.021077 a 1.65,1.65 0 0 0 1.693,-1.693 l -0.085,-29.978 a 1.629,1.629 0 0 0 -1.693,-1.672 z m 37.8000001,2.957 c 4.843,0 7.8,2.636 7.8,6.664 a 6.857,6.857 0 0 1 -4.8,6.429 6.579,6.579 0 0 1 5.764,6.664 c 0,5.465 -3.728,7.736 -10.564,7.736 h -9.728 v -27.493 z m -25.436,-0.043 c 7.072,0 11.036,4.5 11.036,13.629 0,7.971 -2.7,13.843 -11.036,13.907 h -10.134 v -27.536 h 10.135 z m 23.336,16.03 h -2.87 v 7.007 h 2.77 c 1.089,-0.002 4.364,-0.08 4.385,-3.536 0,-1.5 -0.857,-3.471 -4.286,-3.471 z m -25.393,-11.658 h -1.477 v 18.664 h 2.314 c 3.557,0 5.593,-2.764 5.593,-8.807 0,-5.529 -0.6,-9.857 -6.429,-9.857 z m 24.557,-0.107 h -2.034 v 6.664 h 2.57 a 3.279,3.279 0 0 0 3.6,-3.364 c 0,-2.293 -1.136,-3.3 -4.136,-3.3 z" fill="#282d37" fill-rule="evenodd" style="var(--db-icon-color, currentColor)"/></svg>
