<svg id="icon" height="20" viewBox="0 0 20 20" width="20" xmlns="http://www.w3.org/2000/svg"><path d="m 16.388021,4.4000985 a 1.587,1.587 0 0 1 1.612,1.581 v 7.9940005 a 1.619,1.619 0 0 1 -1.612,1.625 H 3.6000208 a 1.612,1.612 0 0 1 -1.6,-1.625 V 5.9810985 a 1.581,1.581 0 0 1 1.6,-1.58 z m 0,1.138 H 3.6000208 a 0.419,0.419 0 0 0 -0.431,0.443 v 7.9940005 a 0.425,0.425 0 0 0 0.431,0.45 H 16.394021 a 0.437,0.437 0 0 0 0.45,-0.45 l -0.006,-7.9940005 a 0.438,0.438 0 0 0 -0.45,-0.443 z m -2.688,0.806 c 1.294,0 2.081,0.706 2.081,1.775 a 1.831,1.831 0 0 1 -1.28,1.712 l 0.004,-0.002 0.122,0.021 a 1.744,1.744 0 0 1 1.37,1.6030005 l 0.003,0.147 c 0,1.438 -0.994,2.063 -2.819,2.063 h -2.587 V 6.3430985 Z m -6.8000002,-0.025 c 1.875,0 2.944,1.2 2.944,3.631 0,2.1500005 -0.719,3.7000005 -2.944,3.7130005 h -2.706 V 6.3190985 Z m -0.55,1.169 h -0.394 v 5.0000005 h 0.625 c 0.944,-0.025 1.513,-0.763 1.513,-2.375 0,-1.4750005 -0.163,-2.6250005 -1.744,-2.6250005 z m 6.7750002,3.1000005 h -0.769 v 1.875 h 0.785 c 0.301,-0.003 1.115,-0.053 1.115,-0.95 0,-0.4 -0.218,-0.925 -1.13,-0.925 z m -0.206,-3.1250005 h -0.544 v 1.775 h 0.688 a 0.869,0.869 0 0 0 0.956,-0.894 c 0,-0.613 -0.3,-0.881 -1.1,-0.881 z" fill="#282d37" style="var(--db-icon-color, currentColor)" fill-rule="evenodd"/></svg>
