<svg width="12" height="12" viewBox="0 0 12 12" fill="none" xmlns="http://www.w3.org/2000/svg"><path d="M4.780 1.306 C 4.498 1.422,4.277 1.650,4.195 1.908 C 4.164 2.005,4.154 2.112,4.145 2.426 L 4.134 2.822 4.061 2.859 L 3.989 2.896 3.699 2.728 C 3.350 2.525,3.248 2.485,3.046 2.469 C 2.680 2.439,2.392 2.577,2.158 2.893 C 2.061 3.024,1.518 3.927,1.384 4.180 C 1.193 4.540,1.159 4.761,1.251 5.034 C 1.314 5.222,1.409 5.367,1.540 5.478 C 1.654 5.574,1.905 5.734,2.106 5.840 L 2.240 5.910 2.240 6.021 L 2.240 6.133 2.011 6.269 C 1.457 6.599,1.289 6.807,1.249 7.214 C 1.221 7.509,1.264 7.616,1.730 8.400 C 2.054 8.944,2.194 9.149,2.327 9.275 C 2.455 9.396,2.548 9.446,2.752 9.502 C 3.048 9.583,3.321 9.501,3.832 9.180 L 4.015 9.065 4.107 9.122 L 4.200 9.180 4.201 9.485 C 4.201 9.653,4.209 9.852,4.219 9.928 C 4.258 10.229,4.479 10.529,4.766 10.669 C 4.971 10.769,5.182 10.785,6.193 10.777 L 7.010 10.770 7.183 10.685 C 7.470 10.545,7.648 10.352,7.742 10.080 C 7.780 9.968,7.788 9.897,7.796 9.564 L 7.805 9.177 7.895 9.121 L 7.984 9.065 8.177 9.186 C 8.738 9.539,8.971 9.598,9.334 9.478 C 9.527 9.415,9.678 9.306,9.793 9.148 C 10.001 8.861,10.488 8.051,10.631 7.754 C 10.750 7.508,10.775 7.385,10.746 7.185 C 10.686 6.774,10.558 6.621,9.985 6.269 L 9.760 6.130 9.760 6.020 L 9.760 5.910 9.943 5.810 C 10.514 5.498,10.683 5.324,10.770 4.956 C 10.851 4.612,10.788 4.442,10.251 3.550 C 9.905 2.975,9.809 2.833,9.688 2.713 C 9.507 2.535,9.221 2.441,8.937 2.468 C 8.753 2.485,8.641 2.531,8.301 2.728 L 8.011 2.896 7.936 2.858 L 7.860 2.819 7.860 2.525 C 7.860 2.055,7.821 1.885,7.666 1.664 C 7.565 1.522,7.425 1.403,7.257 1.318 L 7.141 1.260 6.016 1.260 C 4.891 1.261,4.890 1.261,4.780 1.306 M6.665 2.955 L 6.670 3.490 7.070 3.735 C 7.724 4.136,7.921 4.247,7.981 4.247 C 8.013 4.247,8.158 4.180,8.323 4.089 C 8.708 3.877,8.927 3.761,8.944 3.761 C 8.968 3.760,9.142 4.029,9.330 4.356 C 9.479 4.616,9.501 4.667,9.478 4.689 C 9.446 4.719,9.188 4.869,8.818 5.070 L 8.566 5.208 8.553 5.657 C 8.546 5.904,8.540 6.263,8.540 6.454 L 8.540 6.802 8.715 6.913 C 8.811 6.973,9.016 7.098,9.169 7.189 C 9.322 7.280,9.451 7.362,9.454 7.372 C 9.460 7.391,9.162 7.925,9.031 8.129 C 8.976 8.216,8.950 8.240,8.924 8.231 C 8.905 8.224,8.691 8.101,8.448 7.959 L 8.006 7.700 7.303 8.084 L 6.600 8.469 6.600 9.024 L 6.600 9.580 6.000 9.580 L 5.400 9.580 5.400 9.024 L 5.400 8.469 4.687 8.084 L 3.975 7.699 3.572 7.938 C 3.121 8.206,3.075 8.230,3.034 8.214 C 3.008 8.204,2.821 7.894,2.611 7.512 L 2.535 7.374 2.582 7.338 C 2.609 7.318,2.812 7.192,3.035 7.059 L 3.440 6.818 3.440 6.014 L 3.440 5.210 3.185 5.071 C 2.816 4.871,2.554 4.720,2.522 4.689 C 2.497 4.666,2.518 4.618,2.670 4.356 C 2.844 4.053,3.032 3.760,3.051 3.760 C 3.073 3.760,3.280 3.871,3.520 4.010 C 3.658 4.090,3.822 4.181,3.886 4.213 L 4.002 4.269 4.113 4.210 C 4.174 4.177,4.473 4.001,4.777 3.819 L 5.330 3.488 5.335 2.954 L 5.341 2.420 6.000 2.420 L 6.659 2.420 6.665 2.955 M5.781 4.831 C 5.368 4.905,4.999 5.228,4.866 5.630 C 4.768 5.927,4.796 6.281,4.940 6.559 C 5.028 6.729,5.292 6.983,5.468 7.066 C 5.645 7.150,5.910 7.207,6.070 7.194 C 6.246 7.180,6.504 7.099,6.623 7.021 C 6.865 6.860,7.068 6.587,7.152 6.310 C 7.205 6.131,7.203 5.830,7.146 5.649 C 7.017 5.242,6.633 4.905,6.210 4.830 C 6.018 4.796,5.974 4.796,5.781 4.831 " fill="#1A1C1F" stroke="none" fill-rule="evenodd"></path></svg>