<svg width="28" height="28" viewBox="0 0 28 28" fill="none" xmlns="http://www.w3.org/2000/svg"><path d="M11.877 1.889 C 11.851 1.897,11.673 1.939,11.480 1.983 C 10.749 2.148,10.215 2.505,10.146 2.875 C 10.128 2.969,10.138 3.498,10.167 4.051 C 10.196 4.604,10.214 5.061,10.208 5.066 C 10.202 5.071,9.729 5.342,9.158 5.668 L 8.119 6.261 7.291 5.727 C 6.326 5.104,6.209 5.040,6.034 5.040 C 5.499 5.042,4.637 5.926,3.679 7.455 C 2.997 8.544,2.320 10.016,2.159 10.761 C 2.097 11.043,2.095 11.132,2.144 11.309 C 2.248 11.680,2.504 11.869,3.722 12.478 L 4.340 12.787 4.340 14.000 L 4.340 15.212 3.867 15.450 C 2.239 16.267,2.028 16.472,2.146 17.121 C 2.285 17.889,2.934 19.340,3.682 20.557 C 4.076 21.198,4.707 22.008,5.141 22.430 C 5.533 22.812,5.780 22.960,6.022 22.960 C 6.199 22.960,6.609 22.739,7.432 22.200 L 8.122 21.749 9.172 22.343 L 10.222 22.937 10.194 23.240 C 10.179 23.407,10.162 23.925,10.158 24.391 C 10.151 25.185,10.156 25.247,10.248 25.371 C 10.504 25.718,11.047 25.963,11.883 26.111 C 12.463 26.213,14.766 26.258,15.537 26.183 C 16.569 26.082,17.254 25.852,17.674 25.466 L 17.885 25.270 17.855 24.337 C 17.838 23.823,17.813 23.298,17.799 23.170 L 17.775 22.937 18.827 22.343 L 19.878 21.749 20.568 22.200 C 21.399 22.744,21.801 22.960,21.984 22.960 C 22.580 22.960,23.686 21.682,24.773 19.735 C 25.661 18.143,26.057 16.866,25.779 16.489 C 25.610 16.259,25.251 16.023,24.443 15.609 L 23.660 15.207 23.660 13.999 L 23.660 12.790 24.348 12.440 C 25.518 11.845,25.835 11.590,25.887 11.200 C 25.975 10.543,24.851 8.075,23.783 6.580 C 23.432 6.088,22.675 5.318,22.416 5.187 C 22.125 5.040,21.884 5.015,21.695 5.111 C 21.608 5.156,21.163 5.433,20.707 5.728 L 19.877 6.263 19.286 5.926 C 18.386 5.413,17.878 5.090,17.835 5.002 C 17.799 4.928,17.821 4.309,17.896 3.312 L 17.930 2.867 17.771 2.658 C 17.500 2.301,16.930 2.030,16.202 1.911 C 15.965 1.872,11.992 1.852,11.877 1.889 M15.213 3.597 C 15.508 3.621,15.818 3.654,15.901 3.669 L 16.052 3.697 16.022 4.615 C 16.006 5.120,16.007 5.612,16.025 5.708 C 16.076 5.976,16.286 6.171,16.979 6.595 C 18.017 7.229,19.419 8.012,19.676 8.102 C 19.985 8.209,20.051 8.184,20.967 7.613 C 21.904 7.029,21.872 7.041,22.013 7.212 C 22.215 7.454,22.942 8.564,23.216 9.047 C 23.567 9.668,23.902 10.437,23.884 10.583 C 23.872 10.682,23.767 10.755,23.217 11.049 C 22.857 11.241,22.452 11.471,22.317 11.561 C 21.897 11.839,21.912 11.757,21.895 13.850 C 21.878 15.976,21.893 16.112,22.165 16.344 C 22.263 16.428,22.582 16.620,22.874 16.771 C 23.601 17.149,23.843 17.306,23.873 17.424 C 23.944 17.707,23.025 19.424,22.233 20.488 L 21.889 20.951 21.260 20.556 C 20.473 20.063,20.043 19.833,19.904 19.833 C 19.766 19.833,18.903 20.278,17.697 20.969 C 16.380 21.724,16.205 21.849,16.088 22.113 C 15.998 22.316,15.994 22.388,16.021 23.318 L 16.050 24.307 15.783 24.369 C 15.398 24.457,12.641 24.455,12.239 24.365 L 11.948 24.301 11.976 23.339 C 12.013 22.108,12.000 22.053,11.596 21.756 C 11.255 21.506,9.451 20.467,8.684 20.080 C 8.260 19.865,8.147 19.827,8.016 19.851 C 7.876 19.877,7.631 20.015,6.580 20.658 C 6.112 20.945,6.149 20.950,5.829 20.547 C 5.451 20.072,5.160 19.634,4.829 19.040 C 4.505 18.461,4.108 17.605,4.107 17.486 C 4.106 17.348,4.306 17.203,4.998 16.841 C 5.360 16.652,5.737 16.428,5.835 16.344 C 6.107 16.112,6.122 15.976,6.105 13.850 C 6.088 11.752,6.105 11.840,5.673 11.554 C 5.532 11.460,5.127 11.232,4.773 11.047 C 4.389 10.845,4.125 10.678,4.116 10.632 C 4.081 10.450,4.640 9.263,5.156 8.419 C 5.484 7.884,5.946 7.221,6.054 7.131 C 6.137 7.063,6.267 7.125,6.938 7.552 C 7.222 7.734,7.595 7.951,7.765 8.035 L 8.076 8.188 8.319 8.103 C 8.581 8.013,9.978 7.233,11.021 6.595 C 11.714 6.171,11.924 5.976,11.975 5.708 C 11.993 5.612,11.994 5.128,11.978 4.631 C 11.956 3.942,11.963 3.724,12.006 3.708 C 12.038 3.696,12.326 3.646,12.647 3.596 C 13.266 3.499,14.043 3.499,15.213 3.597 M13.276 9.703 C 11.750 9.949,10.378 11.128,9.866 12.634 C 9.483 13.762,9.551 14.808,10.079 15.890 C 10.601 16.961,11.437 17.698,12.636 18.145 L 13.090 18.314 14.000 18.314 L 14.910 18.314 15.364 18.145 C 16.899 17.573,17.850 16.524,18.276 14.933 C 18.407 14.444,18.387 13.538,18.232 12.956 C 17.811 11.374,16.639 10.194,15.097 9.799 C 14.681 9.692,13.671 9.639,13.276 9.703 M14.504 11.460 C 15.200 11.603,15.753 11.973,16.155 12.565 C 16.518 13.101,16.542 13.190,16.542 14.000 L 16.542 14.723 16.356 15.096 C 16.100 15.611,15.603 16.115,15.120 16.350 C 14.418 16.692,13.565 16.686,12.850 16.334 C 12.375 16.100,11.920 15.636,11.652 15.112 L 11.474 14.764 11.489 13.947 L 11.503 13.130 11.737 12.743 C 12.137 12.079,12.770 11.606,13.459 11.456 C 13.844 11.372,14.078 11.373,14.504 11.460 " fill="#1A1C1F" stroke="none" fill-rule="evenodd"></path></svg>