<svg width="14" height="14" viewBox="0 0 14 14" fill="none" xmlns="http://www.w3.org/2000/svg"><path d="M5.610 1.513 C 5.284 1.625,4.994 1.914,4.894 2.226 C 4.857 2.340,4.846 2.461,4.836 2.830 L 4.824 3.292 4.738 3.336 L 4.653 3.379 4.316 3.183 C 4.130 3.075,3.924 2.966,3.857 2.941 C 3.600 2.843,3.222 2.859,2.972 2.977 C 2.693 3.109,2.536 3.309,1.982 4.235 C 1.515 5.017,1.400 5.276,1.400 5.550 C 1.400 5.800,1.540 6.138,1.717 6.315 C 1.829 6.427,2.206 6.680,2.458 6.813 L 2.613 6.895 2.613 7.027 L 2.613 7.159 2.479 7.234 C 2.244 7.367,1.859 7.638,1.743 7.752 C 1.520 7.973,1.407 8.363,1.468 8.701 C 1.503 8.900,1.610 9.116,1.983 9.742 C 2.500 10.610,2.695 10.865,2.934 10.987 C 3.111 11.077,3.377 11.137,3.527 11.120 C 3.773 11.092,4.067 10.964,4.471 10.710 L 4.684 10.575 4.792 10.643 L 4.900 10.710 4.901 11.054 C 4.902 11.549,4.926 11.708,5.025 11.910 C 5.151 12.165,5.429 12.421,5.667 12.503 C 5.838 12.561,6.287 12.581,7.227 12.573 L 8.178 12.565 8.380 12.466 C 8.715 12.303,8.923 12.078,9.032 11.760 C 9.077 11.629,9.086 11.546,9.095 11.158 L 9.106 10.707 9.196 10.650 C 9.245 10.619,9.297 10.593,9.311 10.593 C 9.326 10.593,9.469 10.674,9.631 10.772 C 9.979 10.982,10.109 11.045,10.313 11.097 C 10.580 11.165,10.912 11.095,11.183 10.912 C 11.356 10.796,11.529 10.554,11.993 9.777 C 12.505 8.922,12.585 8.715,12.536 8.382 C 12.467 7.903,12.332 7.740,11.667 7.326 L 11.387 7.152 11.387 7.023 L 11.387 6.895 11.603 6.778 C 12.085 6.517,12.351 6.303,12.460 6.090 C 12.524 5.965,12.600 5.667,12.600 5.543 C 12.600 5.392,12.539 5.187,12.426 4.958 C 12.320 4.743,11.682 3.669,11.511 3.418 C 11.239 3.019,10.889 2.843,10.438 2.879 C 10.216 2.897,10.087 2.949,9.684 3.183 L 9.347 3.379 9.258 3.334 L 9.170 3.289 9.170 2.945 C 9.170 2.398,9.125 2.199,8.943 1.942 C 8.826 1.775,8.663 1.637,8.466 1.538 L 8.331 1.470 7.030 1.471 C 5.850 1.471,5.717 1.475,5.610 1.513 M7.775 3.448 L 7.782 4.072 8.248 4.358 C 9.011 4.826,9.241 4.954,9.311 4.954 C 9.348 4.954,9.517 4.877,9.710 4.770 C 10.169 4.518,10.415 4.388,10.437 4.387 C 10.461 4.386,10.712 4.779,10.919 5.141 C 11.062 5.393,11.084 5.446,11.057 5.471 C 11.021 5.506,10.717 5.681,10.288 5.915 L 9.994 6.076 9.979 6.579 C 9.970 6.855,9.963 7.274,9.963 7.508 L 9.963 7.934 10.156 8.058 C 10.262 8.126,10.480 8.258,10.641 8.351 C 10.802 8.444,10.958 8.540,10.989 8.563 L 11.045 8.605 10.897 8.870 C 10.694 9.234,10.468 9.597,10.440 9.606 C 10.427 9.611,10.173 9.472,9.877 9.299 L 9.338 8.985 8.519 9.433 L 7.700 9.881 7.700 10.529 L 7.700 11.177 7.000 11.177 L 6.300 11.177 6.300 10.529 L 6.300 9.882 5.469 9.432 L 4.637 8.982 4.168 9.260 C 3.630 9.578,3.609 9.590,3.562 9.590 C 3.543 9.590,3.486 9.524,3.436 9.444 C 3.259 9.163,2.961 8.610,2.974 8.588 C 2.982 8.576,3.195 8.443,3.448 8.293 C 3.701 8.143,3.932 8.006,3.961 7.988 L 4.013 7.956 4.013 7.017 L 4.013 6.078 3.716 5.917 C 3.293 5.687,2.980 5.507,2.944 5.472 C 2.918 5.447,2.919 5.429,2.953 5.364 C 3.005 5.263,3.486 4.458,3.527 4.404 C 3.556 4.366,3.591 4.381,3.990 4.611 C 4.227 4.748,4.478 4.886,4.546 4.918 L 4.671 4.975 4.838 4.889 C 4.930 4.842,5.278 4.638,5.612 4.437 L 6.218 4.071 6.225 3.447 L 6.231 2.823 7.000 2.823 L 7.769 2.823 7.775 3.448 M6.748 5.635 C 6.429 5.693,6.153 5.861,5.911 6.143 C 5.627 6.476,5.530 6.989,5.672 7.420 C 5.739 7.626,5.787 7.713,5.912 7.858 C 6.157 8.144,6.367 8.273,6.717 8.357 C 6.964 8.416,7.164 8.406,7.433 8.321 C 7.661 8.248,7.784 8.169,7.990 7.963 C 8.434 7.517,8.522 6.792,8.192 6.283 C 7.972 5.942,7.621 5.702,7.245 5.635 C 7.021 5.595,6.969 5.595,6.748 5.635 " fill="#1A1C1F" stroke="none" fill-rule="evenodd"></path></svg>