<svg width="16" height="16" viewBox="0 0 16 16" fill="none" xmlns="http://www.w3.org/2000/svg"><path d="M6.373 1.742 C 6.179 1.821,6.015 1.937,5.866 2.097 C 5.590 2.393,5.547 2.537,5.527 3.235 L 5.512 3.763 5.416 3.812 L 5.319 3.861 4.973 3.661 C 4.783 3.551,4.550 3.425,4.455 3.381 C 4.287 3.303,4.276 3.302,3.922 3.311 C 3.589 3.319,3.548 3.326,3.407 3.395 C 3.077 3.557,2.886 3.800,2.270 4.834 C 1.606 5.950,1.525 6.180,1.641 6.626 C 1.761 7.086,2.054 7.382,2.767 7.763 L 2.987 7.880 2.987 8.028 L 2.987 8.177 2.681 8.359 C 1.943 8.798,1.719 9.076,1.666 9.619 C 1.628 10.007,1.693 10.170,2.270 11.139 C 2.908 12.212,3.108 12.459,3.448 12.595 C 3.733 12.709,3.937 12.733,4.171 12.681 C 4.403 12.630,4.745 12.469,5.100 12.245 L 5.353 12.086 5.476 12.163 L 5.600 12.240 5.601 12.633 C 5.602 12.850,5.613 13.115,5.625 13.223 C 5.673 13.634,5.965 14.035,6.355 14.225 C 6.513 14.302,6.595 14.324,6.823 14.346 C 7.145 14.378,8.643 14.380,9.101 14.349 C 9.386 14.329,9.432 14.319,9.613 14.230 C 9.963 14.057,10.215 13.775,10.327 13.433 C 10.371 13.297,10.383 13.173,10.394 12.755 L 10.406 12.243 10.509 12.175 C 10.566 12.137,10.625 12.107,10.642 12.107 C 10.658 12.107,10.822 12.198,11.007 12.310 C 11.404 12.551,11.554 12.622,11.786 12.682 C 12.091 12.760,12.470 12.680,12.781 12.471 C 12.977 12.339,13.171 12.067,13.706 11.173 C 14.290 10.198,14.383 9.961,14.327 9.580 C 14.248 9.032,14.094 8.845,13.333 8.372 L 13.013 8.173 13.014 8.027 L 13.014 7.880 13.259 7.747 C 14.028 7.330,14.254 7.089,14.367 6.570 C 14.460 6.141,14.375 5.913,13.709 4.805 C 13.069 3.739,12.936 3.563,12.666 3.426 C 12.335 3.259,11.881 3.241,11.548 3.383 C 11.452 3.424,11.218 3.549,11.028 3.660 L 10.682 3.862 10.581 3.811 L 10.480 3.759 10.480 3.366 C 10.479 2.740,10.428 2.513,10.221 2.219 C 10.087 2.029,9.900 1.871,9.675 1.758 L 9.522 1.680 8.021 1.681 C 6.522 1.681,6.520 1.681,6.373 1.742 M8.886 3.940 L 8.893 4.653 9.427 4.980 C 10.299 5.515,10.561 5.662,10.641 5.662 C 10.684 5.662,10.877 5.573,11.098 5.452 C 11.611 5.169,11.903 5.015,11.926 5.014 C 11.957 5.013,12.190 5.372,12.440 5.809 C 12.639 6.155,12.669 6.223,12.637 6.252 C 12.596 6.292,12.271 6.479,11.757 6.760 L 11.422 6.943 11.404 7.558 C 11.395 7.897,11.387 8.375,11.387 8.621 L 11.387 9.068 11.607 9.209 C 11.728 9.287,11.977 9.438,12.161 9.544 C 12.345 9.651,12.524 9.759,12.558 9.785 L 12.621 9.833 12.445 10.150 C 12.138 10.703,11.962 10.974,11.913 10.970 C 11.888 10.968,11.599 10.809,11.271 10.616 L 10.674 10.267 9.737 10.779 L 8.800 11.292 8.800 12.033 L 8.800 12.773 8.000 12.773 L 7.200 12.773 7.200 12.033 L 7.200 11.293 6.250 10.779 L 5.299 10.265 4.763 10.583 C 4.149 10.946,4.124 10.960,4.071 10.960 C 4.024 10.960,3.900 10.768,3.600 10.228 L 3.377 9.829 3.450 9.775 C 3.490 9.745,3.759 9.580,4.048 9.409 L 4.573 9.099 4.580 8.023 L 4.586 6.947 4.020 6.632 C 3.708 6.460,3.424 6.296,3.389 6.269 L 3.325 6.220 3.505 5.903 C 3.806 5.374,4.037 5.013,4.075 5.013 C 4.095 5.013,4.334 5.141,4.606 5.296 C 4.878 5.452,5.154 5.603,5.220 5.632 L 5.340 5.685 5.530 5.587 C 5.634 5.533,6.032 5.301,6.413 5.071 L 7.107 4.653 7.114 3.940 L 7.121 3.227 8.000 3.227 L 8.879 3.227 8.886 3.940 M7.800 6.417 C 7.188 6.510,6.670 6.940,6.493 7.499 C 6.356 7.933,6.384 8.301,6.584 8.707 C 6.778 9.098,7.084 9.365,7.507 9.510 C 7.686 9.572,7.764 9.583,8.000 9.583 C 8.236 9.583,8.314 9.572,8.493 9.510 C 8.756 9.420,8.951 9.295,9.163 9.079 C 9.444 8.794,9.582 8.421,9.582 7.947 C 9.582 7.710,9.571 7.639,9.513 7.490 C 9.310 6.964,8.891 6.586,8.370 6.458 C 8.225 6.422,7.913 6.400,7.800 6.417 " fill="#1A1C1F" stroke="none" fill-rule="evenodd"></path></svg>