<svg width="20" height="20" viewBox="0 0 20 20" fill="none" xmlns="http://www.w3.org/2000/svg"><path d="M7.990 2.169 C 7.640 2.311,7.311 2.578,7.148 2.853 C 6.956 3.175,6.924 3.335,6.908 4.043 L 6.893 4.702 6.770 4.765 L 6.648 4.827 6.165 4.547 C 5.900 4.393,5.604 4.237,5.507 4.200 C 5.136 4.060,4.608 4.082,4.244 4.254 C 3.848 4.442,3.634 4.711,2.882 5.967 C 2.162 7.170,2.000 7.531,2.000 7.928 C 2.000 8.286,2.200 8.768,2.453 9.021 C 2.613 9.181,3.151 9.543,3.511 9.733 L 3.733 9.850 3.733 10.033 L 3.733 10.217 3.347 10.450 C 2.417 11.011,2.148 11.346,2.082 12.024 C 2.050 12.359,2.111 12.632,2.298 12.983 C 2.522 13.404,3.163 14.479,3.452 14.919 C 3.853 15.530,4.179 15.770,4.739 15.867 C 5.142 15.937,5.650 15.764,6.374 15.308 L 6.692 15.107 6.846 15.208 L 7.000 15.308 7.001 15.796 C 7.004 16.498,7.037 16.727,7.178 17.013 C 7.361 17.383,7.751 17.743,8.096 17.861 C 8.339 17.944,8.978 17.973,10.322 17.961 L 11.683 17.950 11.972 17.809 C 12.450 17.575,12.747 17.254,12.903 16.800 C 12.967 16.613,12.980 16.494,12.993 15.939 L 13.008 15.295 13.158 15.202 L 13.308 15.109 13.695 15.350 C 14.229 15.682,14.469 15.797,14.746 15.856 C 15.327 15.979,15.971 15.730,16.321 15.246 C 16.670 14.765,17.476 13.426,17.714 12.933 C 17.917 12.514,17.958 12.310,17.909 11.974 C 17.809 11.290,17.617 11.056,16.667 10.465 L 16.267 10.217 16.267 10.033 L 16.267 9.850 16.574 9.683 C 17.055 9.422,17.438 9.159,17.592 8.985 C 17.966 8.560,18.092 7.903,17.898 7.385 C 17.787 7.088,16.765 5.339,16.417 4.849 C 16.111 4.419,15.794 4.204,15.353 4.130 C 14.851 4.046,14.539 4.134,13.785 4.575 L 13.353 4.828 13.231 4.765 L 13.109 4.703 13.092 4.060 C 13.079 3.510,13.066 3.386,13.003 3.203 C 12.865 2.803,12.537 2.431,12.136 2.221 L 11.907 2.100 10.028 2.102 C 8.245 2.104,8.142 2.107,7.990 2.169 M11.108 4.924 L 11.117 5.815 11.783 6.225 C 12.843 6.877,13.200 7.078,13.300 7.078 C 13.354 7.078,13.645 6.939,14.005 6.743 C 14.640 6.395,14.885 6.267,14.914 6.267 C 14.948 6.267,15.262 6.758,15.550 7.261 C 15.798 7.694,15.836 7.778,15.796 7.816 C 15.744 7.866,15.313 8.114,14.697 8.450 L 14.277 8.679 14.255 9.428 C 14.243 9.840,14.233 10.438,14.233 10.757 L 14.233 11.336 14.525 11.521 C 14.685 11.622,15.011 11.820,15.248 11.961 C 15.485 12.102,15.694 12.242,15.713 12.272 C 15.751 12.335,15.690 12.459,15.231 13.250 C 15.071 13.525,14.922 13.746,14.900 13.741 C 14.878 13.735,14.519 13.529,14.102 13.282 L 13.344 12.832 12.172 13.474 L 11.000 14.115 11.000 15.041 L 11.000 15.967 10.000 15.967 L 9.000 15.967 9.000 15.042 L 9.000 14.117 7.812 13.474 L 6.625 12.831 5.954 13.228 C 5.186 13.683,5.155 13.700,5.089 13.700 C 5.030 13.700,4.875 13.460,4.499 12.785 L 4.222 12.287 4.313 12.218 C 4.363 12.181,4.699 11.975,5.060 11.762 L 5.717 11.374 5.725 10.028 L 5.733 8.683 5.025 8.290 C 4.635 8.074,4.280 7.870,4.236 7.836 L 4.155 7.775 4.449 7.262 C 4.737 6.760,5.052 6.267,5.085 6.267 C 5.121 6.267,5.501 6.469,5.867 6.683 C 6.397 6.993,6.632 7.108,6.701 7.090 C 6.765 7.073,7.757 6.498,8.450 6.075 L 8.883 5.811 8.892 4.922 L 8.901 4.033 10.000 4.033 L 11.099 4.033 11.108 4.924 M9.640 8.050 C 9.185 8.133,8.771 8.384,8.440 8.779 C 7.959 9.354,7.875 10.238,8.234 10.933 C 8.382 11.220,8.822 11.640,9.125 11.783 C 9.418 11.922,9.843 12.010,10.117 11.990 C 10.409 11.968,10.839 11.833,11.038 11.701 C 11.658 11.290,12.038 10.553,11.988 9.858 C 11.923 8.971,11.242 8.217,10.355 8.049 C 10.048 7.991,9.964 7.991,9.640 8.050 " fill="#1A1C1F" stroke="none" fill-rule="evenodd"></path></svg>