<svg width="32" height="32" viewBox="0 0 32 32" fill="none" xmlns="http://www.w3.org/2000/svg"><path d="M13.182 2.243 C 12.646 2.364,12.219 2.552,11.914 2.802 C 11.578 3.078,11.545 3.283,11.620 4.667 C 11.653 5.278,11.674 5.783,11.667 5.790 C 11.659 5.796,11.120 6.107,10.467 6.480 L 9.281 7.159 8.462 6.624 C 7.477 5.981,7.072 5.760,6.886 5.761 C 6.217 5.767,4.952 7.158,3.848 9.102 C 3.145 10.340,2.402 12.163,2.401 12.655 C 2.399 13.185,2.704 13.466,3.997 14.127 L 4.960 14.620 4.960 15.999 L 4.960 17.378 4.082 17.832 C 2.759 18.516,2.489 18.732,2.427 19.160 C 2.311 19.968,3.598 22.755,4.890 24.490 C 5.692 25.568,6.454 26.240,6.874 26.240 C 7.085 26.240,7.543 25.994,8.495 25.371 L 9.282 24.856 10.468 25.528 C 11.120 25.898,11.657 26.203,11.662 26.207 C 11.667 26.210,11.647 26.693,11.617 27.279 C 11.552 28.590,11.578 28.847,11.800 29.100 C 12.321 29.694,13.658 29.971,16.000 29.971 C 18.362 29.971,19.516 29.733,20.198 29.104 L 20.440 28.880 20.405 27.814 C 20.386 27.227,20.358 26.627,20.342 26.480 L 20.314 26.213 21.516 25.535 L 22.718 24.856 23.506 25.372 C 24.457 25.994,24.915 26.240,25.126 26.240 C 25.810 26.240,27.141 24.682,28.397 22.410 C 28.949 21.412,29.479 20.095,29.578 19.475 C 29.622 19.199,29.522 18.897,29.314 18.676 C 29.133 18.484,28.583 18.160,27.640 17.687 L 27.040 17.386 27.040 16.001 L 27.040 14.617 27.827 14.217 C 29.164 13.537,29.526 13.246,29.585 12.800 C 29.686 12.049,28.401 9.228,27.181 7.520 C 26.779 6.958,25.915 6.077,25.618 5.928 C 25.285 5.760,25.010 5.731,24.795 5.841 C 24.695 5.892,24.187 6.209,23.665 6.546 L 22.717 7.157 21.985 6.742 C 21.583 6.514,21.052 6.198,20.805 6.040 L 20.357 5.752 20.392 4.916 C 20.411 4.456,20.441 3.900,20.460 3.680 C 20.493 3.284,20.491 3.276,20.311 3.040 C 20.000 2.630,19.350 2.320,18.516 2.184 C 18.350 2.156,17.181 2.136,15.920 2.138 C 13.878 2.142,13.578 2.153,13.182 2.243 M17.387 4.111 C 17.724 4.139,18.078 4.176,18.172 4.193 L 18.345 4.225 18.311 5.274 C 18.292 5.851,18.294 6.413,18.315 6.523 C 18.372 6.829,18.612 7.053,19.405 7.537 C 20.556 8.240,22.084 9.102,22.400 9.227 C 22.846 9.402,22.784 9.427,24.398 8.434 C 24.690 8.254,24.960 8.107,24.998 8.107 C 25.135 8.107,26.185 9.669,26.700 10.640 C 27.038 11.277,27.314 11.951,27.296 12.098 C 27.283 12.207,27.153 12.297,26.533 12.628 C 26.123 12.847,25.660 13.110,25.505 13.213 C 25.025 13.531,25.042 13.436,25.023 15.832 C 25.006 18.059,25.031 18.378,25.242 18.604 C 25.370 18.741,25.706 18.942,26.685 19.468 C 27.430 19.868,27.411 19.798,27.019 20.693 C 26.584 21.684,25.734 23.081,25.159 23.746 L 24.987 23.946 24.400 23.566 C 23.505 22.986,22.926 22.667,22.768 22.667 C 22.591 22.667,21.745 23.099,20.320 23.917 C 18.863 24.754,18.502 24.998,18.382 25.227 C 18.293 25.397,18.287 25.520,18.313 26.597 L 18.341 27.780 18.037 27.850 C 17.610 27.948,14.390 27.948,13.962 27.850 L 13.658 27.780 13.690 26.623 C 13.726 25.286,13.704 25.181,13.325 24.907 C 12.722 24.470,9.618 22.738,9.347 22.687 C 9.134 22.647,8.846 22.780,8.051 23.284 C 7.744 23.479,7.385 23.696,7.253 23.768 L 7.013 23.897 6.813 23.669 C 6.522 23.336,6.060 22.686,5.755 22.177 C 5.407 21.597,4.757 20.278,4.714 20.066 C 4.668 19.834,4.803 19.723,5.713 19.247 C 6.126 19.030,6.556 18.775,6.669 18.679 C 6.979 18.414,6.996 18.259,6.977 15.829 C 6.958 13.431,6.977 13.532,6.484 13.205 C 6.322 13.097,5.859 12.837,5.455 12.625 C 5.016 12.395,4.714 12.204,4.704 12.150 C 4.665 11.943,5.302 10.586,5.893 9.622 C 6.267 9.010,6.795 8.252,6.919 8.150 C 7.014 8.071,7.162 8.142,7.944 8.640 C 8.277 8.853,8.706 9.100,8.897 9.189 L 9.245 9.352 9.516 9.258 C 9.808 9.157,11.414 8.259,12.595 7.537 C 13.388 7.053,13.628 6.829,13.685 6.523 C 13.706 6.413,13.708 5.851,13.689 5.273 L 13.655 4.222 13.870 4.186 C 14.957 4.002,15.839 3.984,17.387 4.111 M15.147 11.097 C 14.291 11.202,13.296 11.717,12.542 12.447 C 11.420 13.534,10.880 15.017,11.041 16.574 C 11.221 18.307,12.384 19.847,14.081 20.596 C 14.725 20.880,15.140 20.958,16.000 20.958 C 16.860 20.958,17.275 20.880,17.919 20.596 C 19.614 19.848,20.694 18.427,20.962 16.592 C 21.161 15.233,20.602 13.597,19.583 12.552 C 18.734 11.682,17.721 11.200,16.513 11.093 C 15.849 11.035,15.647 11.035,15.147 11.097 M16.891 13.179 C 17.547 13.379,18.055 13.761,18.465 14.364 C 18.880 14.974,18.907 15.075,18.906 16.000 L 18.905 16.827 18.695 17.253 C 18.409 17.835,17.840 18.411,17.278 18.687 C 16.546 19.047,15.481 19.051,14.733 18.695 C 14.191 18.438,13.599 17.847,13.314 17.277 L 13.113 16.875 13.130 15.941 L 13.147 15.006 13.413 14.564 C 13.870 13.807,14.586 13.271,15.382 13.089 C 15.793 12.996,16.409 13.032,16.891 13.179 " fill="#1A1C1F" stroke="none" fill-rule="evenodd"></path></svg>