<svg width="32" height="32" viewBox="0 0 32 32" fill="none" xmlns="http://www.w3.org/2000/svg"><path d="M18.782 4.168 C 18.220 4.446,18.093 5.147,18.517 5.631 C 18.874 6.037,18.795 6.026,21.531 6.029 C 24.200 6.032,25.618 6.082,25.800 6.180 C 25.865 6.214,25.978 6.332,26.052 6.440 L 26.187 6.638 26.187 16.012 L 26.187 25.386 25.990 25.604 C 25.591 26.046,25.747 26.026,22.602 26.032 C 21.068 26.035,19.581 26.053,19.297 26.072 C 18.818 26.104,18.768 26.118,18.612 26.267 C 18.378 26.489,18.281 26.697,18.277 26.988 C 18.272 27.303,18.480 27.675,18.757 27.846 L 18.954 27.968 21.597 27.989 C 23.051 28.001,24.656 27.987,25.164 27.958 C 26.079 27.906,26.092 27.904,26.497 27.704 C 27.243 27.338,27.861 26.598,28.155 25.722 C 28.267 25.390,28.267 25.377,28.267 15.973 L 28.267 6.557 28.105 6.137 C 27.689 5.059,26.824 4.257,25.918 4.110 C 25.704 4.075,24.326 4.054,22.293 4.054 C 19.047 4.053,19.011 4.055,18.782 4.168 M13.902 9.089 C 13.470 9.247,13.248 9.638,13.291 10.163 L 13.316 10.462 15.569 12.716 L 17.822 14.969 11.182 15.001 C 4.660 15.033,4.538 15.035,4.331 15.141 C 3.595 15.516,3.573 16.412,4.288 16.875 L 4.501 17.013 11.162 17.013 L 17.823 17.013 15.552 19.315 L 13.280 21.618 13.280 21.889 C 13.281 22.456,13.499 22.785,13.969 22.926 C 14.454 23.071,14.587 22.991,15.846 21.799 C 17.230 20.487,21.016 16.632,21.133 16.415 C 21.246 16.206,21.253 15.901,21.153 15.659 C 21.021 15.344,15.208 9.474,14.712 9.155 C 14.522 9.034,14.139 9.002,13.902 9.089 " fill="#1A1C1F" stroke="none" fill-rule="evenodd"></path></svg>