<svg width="28" height="28" viewBox="0 0 28 28" fill="none" xmlns="http://www.w3.org/2000/svg"><path d="M6.650 3.551 C 5.607 3.572,5.246 3.595,5.075 3.651 C 4.352 3.889,3.733 4.527,3.408 5.370 L 3.267 5.737 3.267 13.991 C 3.267 21.929,3.270 22.255,3.354 22.499 C 3.672 23.423,4.230 24.021,5.077 24.346 L 5.390 24.466 7.793 24.487 C 10.401 24.511,11.445 24.471,11.644 24.340 C 11.791 24.244,11.931 24.023,11.996 23.788 C 12.064 23.540,11.979 23.271,11.761 23.037 L 11.581 22.844 10.866 22.813 C 10.472 22.795,9.167 22.779,7.966 22.777 C 5.504 22.773,5.605 22.787,5.258 22.403 L 5.087 22.213 5.087 14.011 L 5.087 5.808 5.204 5.635 C 5.269 5.540,5.368 5.438,5.425 5.407 C 5.584 5.322,6.825 5.278,9.160 5.276 C 11.554 5.273,11.485 5.282,11.797 4.927 C 12.117 4.563,12.098 4.129,11.748 3.779 C 11.645 3.676,11.517 3.583,11.462 3.572 C 11.289 3.537,8.052 3.522,6.650 3.551 M18.300 7.936 C 17.829 8.127,17.594 8.694,17.810 9.114 C 17.853 9.196,18.728 10.108,19.755 11.141 C 20.782 12.174,21.607 13.035,21.588 13.055 C 21.568 13.074,18.961 13.102,15.795 13.117 L 10.037 13.145 9.841 13.281 C 9.251 13.689,9.305 14.469,9.945 14.796 C 10.118 14.884,10.274 14.887,15.917 14.887 L 21.711 14.887 20.061 16.558 C 19.153 17.477,18.263 18.393,18.083 18.594 L 17.757 18.960 17.757 19.250 C 17.758 19.484,17.782 19.575,17.883 19.727 C 18.144 20.121,18.713 20.231,19.048 19.952 C 19.403 19.656,21.977 17.118,23.257 15.802 C 24.740 14.276,24.776 14.226,24.689 13.847 C 24.667 13.747,24.556 13.562,24.432 13.416 C 23.982 12.890,19.220 8.167,19.029 8.057 C 18.802 7.927,18.462 7.871,18.300 7.936 " fill="#1A1C1F" stroke="none" fill-rule="evenodd"></path></svg>