<svg width="24" height="24" viewBox="0 0 24 24" fill="none" xmlns="http://www.w3.org/2000/svg"><path d="M13.835 3.035 C 13.413 3.060,13.353 3.073,13.179 3.181 C 12.811 3.410,12.649 3.901,12.797 4.335 C 12.863 4.528,13.082 4.775,13.297 4.898 L 13.460 4.991 15.639 5.013 L 17.817 5.036 18.037 5.149 C 18.201 5.233,18.288 5.311,18.379 5.457 L 18.500 5.654 18.513 11.951 C 18.520 15.415,18.516 18.290,18.504 18.340 C 18.471 18.471,18.134 18.832,17.965 18.917 C 17.831 18.984,17.646 18.991,15.610 19.009 L 13.401 19.028 13.184 19.172 C 13.018 19.283,12.943 19.367,12.857 19.542 C 12.604 20.059,12.783 20.596,13.310 20.907 L 13.480 21.008 15.750 20.989 C 18.292 20.968,18.278 20.970,18.839 20.678 C 19.415 20.379,19.880 19.915,20.160 19.360 C 20.221 19.239,20.327 18.961,20.395 18.742 L 20.520 18.343 20.520 11.993 L 20.520 5.642 20.365 5.171 C 20.128 4.450,19.885 4.085,19.364 3.671 C 19.202 3.541,18.926 3.363,18.751 3.275 C 18.461 3.130,18.392 3.112,17.986 3.081 C 17.386 3.035,14.416 3.002,13.835 3.035 M9.940 7.106 C 9.594 7.288,9.384 7.619,9.383 7.980 C 9.383 8.432,9.532 8.629,11.032 10.165 L 11.838 10.989 8.109 11.013 C 5.740 11.028,4.308 11.052,4.182 11.078 C 3.675 11.186,3.375 11.867,3.601 12.393 C 3.700 12.624,3.973 12.894,4.150 12.938 C 4.211 12.953,5.939 12.979,7.991 12.996 C 10.043 13.014,11.732 13.039,11.746 13.053 C 11.759 13.066,11.393 13.469,10.931 13.948 C 9.686 15.241,9.491 15.465,9.415 15.694 C 9.261 16.159,9.516 16.715,9.979 16.925 C 10.180 17.016,10.331 17.018,10.583 16.934 C 10.758 16.875,10.930 16.718,12.101 15.544 C 13.546 14.096,14.873 12.704,15.028 12.473 C 15.112 12.347,15.126 12.281,15.126 12.000 C 15.126 11.719,15.113 11.653,15.027 11.527 C 14.721 11.072,10.911 7.202,10.671 7.102 C 10.481 7.022,10.095 7.025,9.940 7.106 " fill="#1A1C1F" stroke="none" fill-rule="evenodd"></path></svg>