<svg width="24" height="24" viewBox="0 0 24 24" fill="none" xmlns="http://www.w3.org/2000/svg"><path d="M5.620 3.083 C 5.305 3.129,4.652 3.454,4.348 3.717 C 3.880 4.121,3.575 4.559,3.398 5.080 C 3.314 5.328,3.308 5.435,3.272 7.340 C 3.251 8.440,3.243 11.365,3.255 13.841 C 3.273 17.780,3.284 18.381,3.340 18.656 C 3.457 19.219,3.708 19.660,4.171 20.116 C 4.580 20.518,4.868 20.689,5.497 20.905 L 5.774 21.000 8.137 21.000 L 10.500 20.999 10.711 20.878 C 10.971 20.729,11.140 20.502,11.204 20.216 C 11.325 19.676,10.977 19.136,10.460 19.061 C 10.372 19.048,9.346 19.021,8.180 19.000 C 6.842 18.977,6.001 18.946,5.900 18.918 C 5.712 18.865,5.562 18.733,5.398 18.477 L 5.280 18.293 5.280 12.000 L 5.280 5.707 5.398 5.523 C 5.595 5.216,5.718 5.123,5.983 5.079 C 6.113 5.058,7.021 5.030,8.000 5.017 C 10.300 4.986,10.586 4.967,10.797 4.826 C 10.989 4.699,11.187 4.373,11.225 4.121 C 11.279 3.762,11.082 3.355,10.763 3.168 L 10.580 3.060 8.220 3.054 C 6.922 3.050,5.752 3.063,5.620 3.083 M15.440 7.069 C 15.290 7.126,15.045 7.328,14.938 7.483 C 14.830 7.639,14.820 7.681,14.820 8.000 C 14.820 8.343,14.821 8.348,14.984 8.563 C 15.074 8.682,15.635 9.277,16.232 9.884 L 17.316 10.987 13.376 11.011 L 9.435 11.035 9.242 11.159 C 8.564 11.594,8.632 12.544,9.368 12.924 C 9.511 12.997,9.640 13.000,12.432 13.000 C 14.035 13.000,15.781 13.012,16.311 13.026 L 17.275 13.053 16.138 14.213 C 15.321 15.046,14.973 15.430,14.900 15.574 C 14.733 15.910,14.775 16.297,15.013 16.609 C 15.228 16.890,15.365 16.960,15.703 16.960 C 15.864 16.960,16.036 16.944,16.087 16.925 C 16.399 16.806,20.460 12.783,20.668 12.387 C 20.758 12.216,20.757 11.783,20.667 11.612 C 20.571 11.428,19.426 10.230,18.176 9.004 C 16.810 7.663,16.272 7.169,16.099 7.097 C 15.966 7.041,15.559 7.024,15.440 7.069 " fill="#1A1C1F" stroke="none" fill-rule="evenodd"></path></svg>