<svg width="20" height="20" viewBox="0 0 20 20" fill="none" xmlns="http://www.w3.org/2000/svg"><path d="M5.417 3.036 C 4.849 3.065,4.632 3.113,4.243 3.299 C 3.868 3.477,3.623 3.651,3.365 3.921 C 3.012 4.290,2.805 4.641,2.604 5.211 L 2.500 5.505 2.500 10.000 L 2.500 14.495 2.604 14.789 C 2.996 15.902,3.632 16.532,4.731 16.896 L 5.045 17.000 6.384 17.000 L 7.723 17.000 7.887 16.914 C 8.274 16.710,8.470 16.400,8.474 15.984 C 8.477 15.695,8.401 15.509,8.196 15.304 C 7.928 15.035,7.938 15.037,6.532 15.013 C 5.297 14.992,5.282 14.991,5.117 14.910 C 4.912 14.811,4.676 14.589,4.610 14.436 C 4.517 14.220,4.495 12.963,4.518 9.250 C 4.533 6.926,4.552 5.660,4.575 5.617 C 4.712 5.348,5.043 5.083,5.279 5.051 C 5.355 5.041,5.943 5.019,6.587 5.003 C 7.908 4.970,7.940 4.964,8.193 4.703 C 8.372 4.519,8.444 4.358,8.461 4.103 C 8.482 3.785,8.422 3.567,8.262 3.385 C 8.033 3.126,7.897 3.067,7.444 3.032 C 6.994 2.997,6.146 2.999,5.417 3.036 M13.112 6.095 C 12.913 6.189,12.708 6.387,12.609 6.581 C 12.539 6.718,12.522 6.797,12.522 7.001 C 12.521 7.377,12.593 7.485,13.395 8.306 L 14.074 9.000 12.312 9.003 C 11.343 9.005,10.008 9.017,9.346 9.028 L 8.142 9.050 7.971 9.167 C 7.422 9.541,7.359 10.270,7.838 10.717 C 8.141 11.001,7.886 10.980,11.160 10.994 L 14.070 11.006 13.443 11.645 C 12.638 12.467,12.576 12.544,12.532 12.770 C 12.440 13.248,12.637 13.666,13.050 13.869 C 13.227 13.956,13.304 13.974,13.506 13.977 C 13.827 13.981,13.913 13.936,14.356 13.535 C 14.888 13.055,17.092 10.817,17.275 10.573 C 17.539 10.219,17.566 9.912,17.365 9.534 C 17.179 9.187,14.363 6.372,13.969 6.140 C 13.766 6.021,13.320 5.998,13.112 6.095 " fill="#1A1C1F" stroke="none" fill-rule="evenodd"></path></svg>