<svg width="12" height="12" viewBox="0 0 12 12" fill="none" xmlns="http://www.w3.org/2000/svg"><path d="M7.245 1.870 C 7.108 1.940,6.974 2.090,6.939 2.214 C 6.924 2.267,6.913 2.366,6.914 2.434 C 6.920 2.650,7.017 2.804,7.229 2.930 L 7.348 3.000 7.809 3.002 C 8.062 3.002,8.410 3.010,8.581 3.017 C 8.870 3.031,8.899 3.036,8.985 3.086 C 9.078 3.141,9.202 3.269,9.249 3.360 C 9.284 3.426,9.312 7.441,9.283 8.133 C 9.261 8.662,9.254 8.688,9.098 8.828 C 8.917 8.990,8.941 8.986,8.110 9.004 C 7.703 9.012,7.337 9.029,7.296 9.040 C 7.198 9.068,7.014 9.238,6.958 9.354 C 6.925 9.422,6.913 9.483,6.913 9.588 C 6.913 9.773,6.970 9.906,7.103 10.030 C 7.275 10.192,7.247 10.187,8.155 10.196 L 8.960 10.204 9.155 10.139 C 9.561 10.006,9.707 9.913,10.000 9.606 C 10.222 9.374,10.288 9.269,10.405 8.970 L 10.490 8.750 10.490 6.000 L 10.490 3.250 10.405 3.032 C 10.359 2.912,10.281 2.750,10.232 2.672 C 10.001 2.302,9.634 2.017,9.210 1.878 C 9.075 1.834,9.040 1.833,8.210 1.825 L 7.350 1.818 7.245 1.870 M4.866 3.658 C 4.749 3.713,4.610 3.846,4.556 3.957 C 4.521 4.029,4.511 4.084,4.511 4.200 C 4.512 4.435,4.547 4.485,5.085 5.032 L 5.440 5.393 3.677 5.407 L 1.914 5.420 1.831 5.468 C 1.726 5.530,1.586 5.680,1.546 5.776 C 1.498 5.889,1.504 6.107,1.559 6.234 C 1.611 6.355,1.760 6.504,1.885 6.561 C 1.967 6.598,2.037 6.599,3.708 6.600 L 5.445 6.600 5.068 6.985 C 4.583 7.481,4.545 7.527,4.519 7.662 C 4.450 8.021,4.660 8.324,5.019 8.381 C 5.183 8.408,5.303 8.378,5.440 8.275 C 5.573 8.175,6.763 7.000,7.123 6.612 C 7.265 6.459,7.405 6.295,7.433 6.247 C 7.543 6.060,7.507 5.813,7.338 5.600 C 7.221 5.452,6.267 4.487,5.840 4.085 C 5.385 3.657,5.350 3.634,5.121 3.625 C 4.983 3.620,4.934 3.626,4.866 3.658 " fill="#1A1C1F" stroke="none" fill-rule="evenodd"></path></svg>