<svg width="28" height="28" viewBox="0 0 28 28" fill="none" xmlns="http://www.w3.org/2000/svg"><path d="M16.435 3.647 C 15.912 3.905,15.819 4.584,16.251 4.975 C 16.589 5.280,16.531 5.273,18.887 5.275 C 21.197 5.278,22.415 5.321,22.576 5.408 C 22.632 5.438,22.731 5.540,22.796 5.635 L 22.913 5.808 22.913 14.011 L 22.913 22.213 22.742 22.403 C 22.395 22.787,22.499 22.773,20.010 22.777 C 18.796 22.779,17.492 22.795,17.111 22.813 L 16.418 22.845 16.239 23.037 C 15.935 23.363,15.903 23.721,16.144 24.112 C 16.301 24.368,16.425 24.417,17.024 24.457 C 17.753 24.506,21.370 24.506,22.183 24.456 C 22.798 24.419,22.846 24.408,23.186 24.241 C 23.838 23.920,24.379 23.273,24.636 22.506 C 24.733 22.217,24.733 22.205,24.733 14.000 C 24.733 5.795,24.733 5.783,24.636 5.494 C 24.467 4.991,24.264 4.661,23.895 4.292 C 23.484 3.881,23.108 3.666,22.678 3.596 C 22.491 3.566,21.285 3.547,19.507 3.547 C 16.666 3.547,16.635 3.548,16.435 3.647 M12.232 7.932 C 12.004 7.988,11.845 8.120,11.722 8.356 C 11.634 8.524,11.617 8.619,11.631 8.857 L 11.648 9.151 13.622 11.125 L 15.595 13.099 9.979 13.129 C 6.890 13.145,4.219 13.178,4.043 13.202 C 3.776 13.238,3.696 13.271,3.566 13.398 C 3.347 13.609,3.238 13.952,3.310 14.195 C 3.372 14.402,3.637 14.719,3.833 14.820 C 3.943 14.877,4.816 14.887,9.779 14.887 L 15.595 14.887 13.608 16.901 L 11.620 18.915 11.621 19.176 C 11.622 19.520,11.750 19.795,11.980 19.946 C 12.213 20.101,12.527 20.145,12.744 20.054 C 12.835 20.016,13.286 19.629,13.746 19.194 C 14.989 18.019,18.417 14.526,18.501 14.349 C 18.591 14.159,18.594 13.906,18.508 13.701 C 18.392 13.424,13.300 8.283,12.872 8.011 C 12.730 7.921,12.431 7.884,12.232 7.932 " fill="#1A1C1F" stroke="none" fill-rule="evenodd"></path></svg>