<svg width="14" height="14" viewBox="0 0 14 14" fill="none" xmlns="http://www.w3.org/2000/svg"><path d="M8.703 2.122 C 8.505 2.143,8.417 2.181,8.280 2.304 C 8.132 2.437,8.066 2.591,8.065 2.800 C 8.063 3.082,8.171 3.262,8.434 3.418 L 8.572 3.500 9.122 3.502 C 9.424 3.503,9.830 3.511,10.023 3.520 C 10.347 3.536,10.384 3.542,10.482 3.600 C 10.591 3.664,10.735 3.813,10.791 3.920 C 10.816 3.966,10.825 4.481,10.838 6.452 C 10.854 9.027,10.838 9.952,10.774 10.106 C 10.734 10.200,10.540 10.382,10.413 10.443 C 10.335 10.481,10.225 10.488,9.438 10.506 C 8.442 10.528,8.449 10.527,8.263 10.713 C 8.118 10.857,8.066 10.986,8.068 11.194 C 8.071 11.502,8.216 11.722,8.505 11.856 C 8.591 11.896,8.672 11.899,9.536 11.899 L 10.474 11.900 10.767 11.798 C 10.928 11.741,11.121 11.660,11.194 11.617 C 11.365 11.517,11.865 11.019,11.964 10.850 C 12.005 10.779,12.084 10.606,12.139 10.465 L 12.238 10.208 12.244 7.032 L 12.250 3.855 12.178 3.648 C 12.081 3.375,11.966 3.149,11.829 2.962 C 11.502 2.519,10.984 2.200,10.507 2.148 C 10.229 2.118,8.921 2.099,8.703 2.122 M5.677 4.269 C 5.541 4.330,5.379 4.486,5.316 4.616 C 5.275 4.700,5.263 4.765,5.263 4.900 C 5.263 5.162,5.315 5.239,5.877 5.814 L 6.352 6.300 5.153 6.302 C 4.494 6.303,3.560 6.311,3.077 6.320 L 2.200 6.335 2.080 6.417 C 1.695 6.678,1.651 7.189,1.986 7.502 C 2.199 7.701,2.020 7.686,4.312 7.696 L 6.350 7.704 5.934 8.128 C 5.363 8.710,5.302 8.784,5.272 8.939 C 5.191 9.358,5.436 9.711,5.855 9.778 C 6.047 9.809,6.186 9.774,6.346 9.654 C 6.502 9.538,7.945 8.112,8.335 7.690 C 8.488 7.524,8.639 7.343,8.671 7.288 C 8.788 7.089,8.764 6.816,8.610 6.592 C 8.519 6.459,7.315 5.236,6.791 4.744 C 6.286 4.269,6.211 4.223,5.951 4.224 C 5.829 4.224,5.745 4.238,5.677 4.269 " fill="#1A1C1F" stroke="none" fill-rule="evenodd"></path></svg>