<svg width="16" height="16" viewBox="0 0 16 16" fill="none" xmlns="http://www.w3.org/2000/svg"><path d="M4.347 2.427 C 3.899 2.449,3.698 2.494,3.395 2.639 C 3.095 2.782,2.898 2.921,2.692 3.137 C 2.410 3.432,2.244 3.713,2.083 4.169 L 2.000 4.404 2.000 8.000 L 2.000 11.596 2.083 11.831 C 2.397 12.722,2.906 13.225,3.785 13.517 L 4.036 13.600 5.107 13.600 L 6.179 13.600 6.309 13.531 C 6.489 13.437,6.653 13.271,6.719 13.115 C 6.789 12.953,6.795 12.693,6.733 12.507 C 6.686 12.363,6.511 12.165,6.364 12.087 C 6.265 12.036,5.705 12.005,4.804 12.002 C 4.248 12.000,4.231 11.998,4.097 11.932 C 3.929 11.848,3.741 11.671,3.688 11.549 C 3.613 11.374,3.594 10.331,3.612 7.375 C 3.624 5.457,3.639 4.532,3.659 4.495 C 3.771 4.278,4.033 4.067,4.223 4.040 C 4.284 4.032,4.753 4.015,5.267 4.002 C 6.295 3.977,6.308 3.975,6.523 3.799 C 6.845 3.535,6.873 2.977,6.579 2.671 C 6.410 2.496,6.301 2.452,5.955 2.426 C 5.600 2.398,4.924 2.399,4.347 2.427 M10.488 4.877 C 10.332 4.950,10.156 5.120,10.081 5.271 C 10.031 5.370,10.017 5.442,10.016 5.599 C 10.014 5.899,10.073 5.986,10.716 6.645 L 11.259 7.200 9.850 7.203 C 9.074 7.204,8.007 7.213,7.477 7.223 L 6.514 7.240 6.377 7.333 C 5.938 7.632,5.887 8.216,6.270 8.574 C 6.513 8.801,6.309 8.784,8.929 8.795 L 11.257 8.805 10.782 9.289 C 10.129 9.954,10.060 10.039,10.026 10.216 C 9.932 10.698,10.213 11.098,10.699 11.176 C 10.919 11.212,11.065 11.174,11.253 11.033 C 11.431 10.901,13.080 9.271,13.525 8.788 C 13.700 8.599,13.874 8.392,13.910 8.330 C 14.044 8.102,14.016 7.789,13.839 7.533 C 13.737 7.384,12.312 5.935,11.747 5.406 C 11.182 4.878,11.131 4.846,10.829 4.834 C 10.644 4.826,10.578 4.835,10.488 4.877 " fill="#1A1C1F" stroke="none" fill-rule="evenodd"></path></svg>