<svg width="32" height="32" viewBox="0 0 32 32" fill="none" xmlns="http://www.w3.org/2000/svg"><path d="M7.627 4.057 C 6.410 4.082,5.996 4.108,5.801 4.173 C 4.973 4.445,4.266 5.174,3.895 6.137 L 3.733 6.557 3.733 16.000 L 3.733 25.443 3.895 25.863 C 4.220 26.706,4.783 27.348,5.516 27.710 C 5.896 27.898,5.946 27.908,6.676 27.950 C 7.656 28.007,11.607 28.008,12.490 27.952 C 13.233 27.905,13.367 27.855,13.550 27.557 C 13.825 27.110,13.789 26.701,13.441 26.328 L 13.236 26.109 12.445 26.072 C 12.009 26.052,10.518 26.033,9.131 26.031 C 6.287 26.026,6.406 26.042,6.010 25.604 L 5.813 25.386 5.813 16.012 L 5.813 6.638 5.948 6.440 C 6.022 6.332,6.135 6.214,6.200 6.180 C 6.382 6.082,7.800 6.032,10.469 6.029 C 13.205 6.026,13.126 6.037,13.483 5.631 C 13.896 5.160,13.804 4.549,13.265 4.185 C 13.098 4.072,13.037 4.068,11.147 4.047 C 10.076 4.036,8.492 4.040,7.627 4.057 M20.914 9.070 C 20.376 9.288,20.107 9.935,20.355 10.416 C 20.403 10.510,21.403 11.553,22.577 12.733 C 23.751 13.913,24.694 14.897,24.672 14.920 C 24.649 14.942,21.670 14.974,18.052 14.991 L 11.472 15.022 11.247 15.178 C 10.572 15.645,10.634 16.536,11.366 16.910 C 11.564 17.011,11.741 17.013,18.191 17.013 L 24.813 17.013 22.927 18.923 C 21.889 19.973,20.872 21.021,20.667 21.251 L 20.293 21.669 20.294 22.000 C 20.295 22.268,20.322 22.371,20.437 22.545 C 20.735 22.996,21.386 23.121,21.769 22.802 C 22.172 22.468,25.105 19.576,26.574 18.064 C 28.274 16.315,28.315 16.259,28.217 15.825 C 28.190 15.710,28.064 15.499,27.922 15.333 C 27.409 14.732,21.966 9.334,21.747 9.208 C 21.488 9.060,21.099 8.995,20.914 9.070 " fill="#1A1C1F" stroke="none" fill-rule="evenodd"></path></svg>