<svg width="14" height="14" viewBox="0 0 14 14" fill="none" xmlns="http://www.w3.org/2000/svg"><path d="M3.779 2.124 C 3.298 2.150,2.976 2.257,2.625 2.508 C 2.260 2.768,2.019 3.109,1.829 3.635 L 1.750 3.852 1.750 6.999 L 1.750 10.146 1.823 10.352 C 2.097 11.130,2.541 11.570,3.309 11.827 L 3.526 11.900 4.464 11.899 C 5.529 11.899,5.498 11.904,5.714 11.702 C 5.919 11.510,5.985 11.226,5.891 10.942 C 5.848 10.811,5.703 10.648,5.568 10.576 C 5.481 10.530,5.019 10.505,4.227 10.502 C 3.715 10.500,3.703 10.499,3.585 10.440 C 3.438 10.367,3.273 10.213,3.227 10.106 C 3.161 9.952,3.145 9.076,3.162 6.475 C 3.172 4.823,3.186 3.963,3.202 3.932 C 3.300 3.743,3.530 3.558,3.696 3.535 C 3.748 3.528,4.162 3.513,4.614 3.502 C 5.547 3.478,5.549 3.478,5.750 3.276 C 5.945 3.081,5.990 2.738,5.856 2.472 C 5.808 2.378,5.662 2.238,5.553 2.181 C 5.411 2.108,4.575 2.081,3.779 2.124 M9.177 4.269 C 9.041 4.330,8.879 4.486,8.816 4.616 C 8.775 4.700,8.763 4.765,8.763 4.900 C 8.763 5.162,8.815 5.239,9.377 5.814 L 9.852 6.300 8.653 6.302 C 7.994 6.303,7.060 6.311,6.577 6.320 L 5.700 6.335 5.580 6.417 C 5.195 6.678,5.151 7.189,5.486 7.502 C 5.699 7.701,5.520 7.686,7.812 7.696 L 9.850 7.704 9.434 8.128 C 8.863 8.710,8.802 8.784,8.772 8.939 C 8.691 9.358,8.936 9.711,9.355 9.778 C 9.547 9.809,9.686 9.774,9.846 9.654 C 10.002 9.538,11.445 8.112,11.835 7.690 C 11.988 7.524,12.139 7.343,12.171 7.288 C 12.288 7.089,12.264 6.816,12.110 6.592 C 12.019 6.459,10.815 5.236,10.291 4.744 C 9.786 4.269,9.711 4.223,9.451 4.224 C 9.329 4.224,9.245 4.238,9.177 4.269 " fill="#1A1C1F" stroke="none" fill-rule="evenodd"></path></svg>