<svg width="16" height="16" viewBox="0 0 16 16" fill="none" xmlns="http://www.w3.org/2000/svg"><path d="M9.688 2.477 C 9.184 2.712,9.051 3.373,9.431 3.751 C 9.488 3.807,9.594 3.885,9.667 3.923 L 9.800 3.993 10.773 4.010 C 11.315 4.019,11.791 4.039,11.846 4.054 C 11.988 4.094,12.158 4.232,12.272 4.401 L 12.370 4.547 12.387 7.347 C 12.405 10.287,12.386 11.377,12.312 11.548 C 12.259 11.671,12.070 11.848,11.907 11.928 C 11.775 11.993,11.762 11.994,10.773 12.011 C 9.648 12.031,9.657 12.029,9.443 12.243 C 9.290 12.396,9.220 12.556,9.218 12.757 C 9.215 13.092,9.344 13.331,9.615 13.493 L 9.771 13.587 10.864 13.594 L 11.956 13.602 12.212 13.518 C 12.747 13.341,12.944 13.216,13.334 12.808 C 13.629 12.498,13.718 12.359,13.873 11.960 L 13.987 11.667 13.994 8.041 L 14.001 4.415 13.943 4.241 C 13.773 3.726,13.604 3.440,13.282 3.118 C 12.982 2.818,12.685 2.637,12.280 2.505 C 12.100 2.446,12.055 2.443,10.947 2.435 C 9.855 2.426,9.795 2.428,9.688 2.477 M6.488 4.877 C 6.332 4.950,6.156 5.120,6.081 5.271 C 6.031 5.370,6.017 5.442,6.016 5.599 C 6.014 5.899,6.073 5.986,6.716 6.645 L 7.259 7.200 5.850 7.203 C 5.074 7.204,4.007 7.213,3.477 7.223 L 2.514 7.240 2.377 7.333 C 1.938 7.632,1.887 8.216,2.270 8.574 C 2.513 8.801,2.309 8.784,4.929 8.795 L 7.257 8.805 6.782 9.289 C 6.129 9.954,6.060 10.039,6.026 10.216 C 5.932 10.698,6.213 11.098,6.699 11.176 C 6.919 11.212,7.065 11.174,7.253 11.033 C 7.431 10.901,9.080 9.271,9.525 8.788 C 9.700 8.599,9.874 8.392,9.910 8.330 C 10.044 8.102,10.016 7.789,9.839 7.533 C 9.737 7.384,8.312 5.935,7.747 5.406 C 7.182 4.878,7.131 4.846,6.829 4.834 C 6.644 4.826,6.578 4.835,6.488 4.877 " fill="#1A1C1F" stroke="none" fill-rule="evenodd"></path></svg>