<svg width="20" height="20" viewBox="0 0 20 20" fill="none" xmlns="http://www.w3.org/2000/svg"><path d="M12.110 3.097 C 11.917 3.186,11.696 3.399,11.604 3.582 C 11.499 3.792,11.493 4.184,11.590 4.400 C 11.675 4.586,11.895 4.809,12.088 4.902 C 12.223 4.968,12.316 4.975,13.458 5.005 C 14.132 5.023,14.739 5.052,14.807 5.069 C 14.977 5.114,15.193 5.287,15.337 5.493 L 15.459 5.666 15.481 9.208 C 15.505 12.912,15.483 14.220,15.390 14.436 C 15.324 14.589,15.089 14.810,14.878 14.914 C 14.710 14.998,14.692 15.000,13.962 15.003 C 12.829 15.007,12.170 15.043,12.046 15.109 C 11.850 15.212,11.646 15.444,11.582 15.636 C 11.410 16.153,11.618 16.653,12.113 16.914 L 12.277 17.000 13.616 17.000 L 14.955 17.000 15.269 16.896 C 15.937 16.674,16.181 16.519,16.667 16.010 C 17.036 15.623,17.147 15.448,17.341 14.950 L 17.483 14.583 17.492 10.051 C 17.502 5.022,17.522 5.501,17.277 4.902 C 16.934 4.063,16.232 3.418,15.350 3.131 C 15.124 3.057,15.069 3.054,13.683 3.043 C 12.319 3.032,12.243 3.035,12.110 3.097 M8.112 6.095 C 7.913 6.189,7.708 6.387,7.609 6.581 C 7.539 6.718,7.522 6.797,7.522 7.001 C 7.521 7.377,7.593 7.485,8.395 8.306 L 9.074 9.000 7.312 9.003 C 6.343 9.005,5.008 9.017,4.346 9.028 L 3.142 9.050 2.971 9.167 C 2.422 9.541,2.359 10.270,2.838 10.717 C 3.141 11.001,2.886 10.980,6.160 10.994 L 9.070 11.006 8.443 11.645 C 7.638 12.467,7.576 12.544,7.532 12.770 C 7.440 13.248,7.637 13.666,8.050 13.869 C 8.227 13.956,8.304 13.974,8.506 13.977 C 8.827 13.981,8.913 13.936,9.356 13.535 C 9.888 13.055,12.092 10.817,12.275 10.573 C 12.539 10.219,12.566 9.912,12.365 9.534 C 12.179 9.187,9.363 6.372,8.969 6.140 C 8.766 6.021,8.320 5.998,8.112 6.095 " fill="#1A1C1F" stroke="none" fill-rule="evenodd"></path></svg>