<svg width="12" height="12" viewBox="0 0 12 12" fill="none" xmlns="http://www.w3.org/2000/svg"><path d="M3.250 1.822 C 2.910 1.839,2.779 1.868,2.546 1.979 C 2.321 2.086,2.174 2.191,2.019 2.353 C 1.807 2.574,1.683 2.785,1.562 3.127 L 1.500 3.303 1.500 6.000 L 1.500 8.697 1.562 8.873 C 1.799 9.545,2.178 9.918,2.846 10.139 L 3.041 10.204 3.846 10.196 C 4.753 10.187,4.725 10.192,4.897 10.030 C 5.029 9.908,5.086 9.774,5.086 9.590 C 5.086 9.417,5.051 9.332,4.929 9.201 C 4.759 9.019,4.775 9.023,3.919 9.008 C 3.178 8.995,3.169 8.994,3.070 8.946 C 2.948 8.886,2.806 8.754,2.766 8.662 C 2.710 8.530,2.696 7.780,2.710 5.550 C 2.719 4.139,2.731 3.397,2.745 3.370 C 2.789 3.284,2.911 3.152,2.996 3.098 C 3.109 3.026,3.148 3.023,3.972 3.001 C 4.740 2.981,4.735 2.982,4.903 2.826 C 5.037 2.701,5.079 2.608,5.080 2.434 C 5.080 2.239,5.048 2.135,4.956 2.030 C 4.820 1.876,4.738 1.840,4.466 1.819 C 4.196 1.798,3.688 1.799,3.250 1.822 M7.866 3.658 C 7.749 3.713,7.610 3.846,7.556 3.957 C 7.521 4.029,7.511 4.084,7.511 4.200 C 7.512 4.435,7.547 4.485,8.085 5.032 L 8.440 5.393 6.677 5.407 L 4.914 5.420 4.831 5.468 C 4.726 5.530,4.586 5.680,4.546 5.776 C 4.498 5.889,4.504 6.107,4.559 6.234 C 4.611 6.355,4.760 6.504,4.885 6.561 C 4.967 6.598,5.037 6.599,6.708 6.600 L 8.445 6.600 8.068 6.985 C 7.583 7.481,7.545 7.527,7.519 7.662 C 7.450 8.021,7.660 8.324,8.019 8.381 C 8.183 8.408,8.303 8.378,8.440 8.275 C 8.573 8.175,9.763 7.000,10.123 6.612 C 10.265 6.459,10.405 6.295,10.433 6.247 C 10.543 6.060,10.507 5.813,10.338 5.600 C 10.221 5.452,9.267 4.487,8.840 4.085 C 8.385 3.657,8.350 3.634,8.121 3.625 C 7.983 3.620,7.934 3.626,7.866 3.658 " fill="#1A1C1F" stroke="none" fill-rule="evenodd"></path></svg>