<svg width="14" height="14" viewBox="0 0 14 14" fill="none" xmlns="http://www.w3.org/2000/svg"><path d="M5.679 1.448 C 5.297 1.485,4.668 1.667,4.239 1.865 C 3.044 2.415,2.065 3.509,1.660 4.748 C 1.435 5.436,1.361 6.068,1.424 6.766 C 1.491 7.513,1.773 8.312,2.204 8.972 C 2.918 10.067,4.044 10.833,5.320 11.094 C 6.605 11.356,7.894 11.102,9.053 10.359 L 9.243 10.237 10.262 11.251 C 11.261 12.244,11.500 12.467,11.650 12.546 C 11.744 12.594,11.966 12.599,12.119 12.555 C 12.270 12.512,12.488 12.312,12.544 12.165 C 12.599 12.022,12.600 11.728,12.547 11.629 C 12.496 11.532,12.095 11.113,11.076 10.088 L 10.236 9.244 10.368 9.036 C 10.739 8.448,11.009 7.755,11.135 7.070 C 11.203 6.702,11.207 5.912,11.144 5.565 C 11.051 5.052,10.915 4.616,10.718 4.200 C 10.140 2.979,9.070 2.051,7.758 1.634 C 7.334 1.498,7.162 1.470,6.627 1.447 C 6.057 1.422,5.944 1.422,5.679 1.448 M7.140 2.923 C 7.550 3.033,8.101 3.291,8.393 3.510 C 8.591 3.659,9.047 4.137,9.176 4.331 C 9.419 4.698,9.617 5.149,9.710 5.552 C 9.780 5.850,9.796 6.540,9.742 6.863 C 9.587 7.795,9.002 8.696,8.213 9.220 C 7.856 9.457,7.334 9.667,6.910 9.744 C 6.594 9.801,5.881 9.795,5.612 9.733 C 4.710 9.527,3.995 9.056,3.469 8.323 C 3.276 8.054,3.021 7.525,2.952 7.252 C 2.836 6.790,2.802 6.069,2.877 5.682 C 3.034 4.884,3.441 4.164,4.016 3.673 C 4.471 3.283,5.004 3.017,5.577 2.891 C 5.748 2.853,5.854 2.848,6.347 2.856 C 6.869 2.863,6.937 2.869,7.140 2.923 " fill="#1A1C1F" stroke="none" fill-rule="evenodd"></path></svg>