<svg width="32" height="32" viewBox="0 0 32 32" fill="none" xmlns="http://www.w3.org/2000/svg"><path d="M11.561 3.125 C 8.719 3.569,6.255 5.124,4.685 7.467 C 3.503 9.231,2.846 11.714,3.030 13.724 C 3.219 15.785,3.934 17.624,5.148 19.173 C 5.512 19.638,6.306 20.439,6.776 20.817 C 8.001 21.802,9.674 22.545,11.382 22.863 C 12.052 22.988,13.900 22.989,14.613 22.865 C 16.096 22.607,17.643 21.957,18.880 21.073 L 19.325 20.755 23.317 24.718 C 25.513 26.897,27.409 28.750,27.530 28.834 C 28.342 29.396,29.392 28.335,28.829 27.523 C 28.744 27.400,26.892 25.506,24.714 23.313 L 20.755 19.325 21.073 18.880 C 23.037 16.133,23.517 12.662,22.364 9.547 C 21.357 6.827,19.252 4.721,16.465 3.645 C 15.120 3.125,12.999 2.900,11.561 3.125 M13.467 5.070 C 14.385 5.139,15.083 5.272,15.687 5.491 C 16.735 5.873,17.622 6.433,18.472 7.253 C 19.613 8.353,20.281 9.465,20.727 11.006 C 20.858 11.457,20.870 11.588,20.893 12.781 C 20.920 14.204,20.878 14.563,20.577 15.491 C 19.925 17.504,18.259 19.366,16.308 20.262 C 14.076 21.287,11.548 21.218,9.333 20.072 C 7.288 19.014,5.699 16.947,5.198 14.695 C 5.124 14.358,5.103 14.005,5.099 12.988 C 5.095 11.810,5.104 11.666,5.220 11.200 C 5.593 9.699,6.388 8.322,7.501 7.249 C 8.666 6.124,10.238 5.349,11.867 5.098 C 12.477 5.004,12.565 5.002,13.467 5.070 " fill="#1A1C1F" stroke="none" fill-rule="evenodd"></path></svg>