<svg width="16" height="16" viewBox="0 0 16 16" fill="none" xmlns="http://www.w3.org/2000/svg"><path d="M6.480 1.656 C 6.355 1.669,6.091 1.720,5.893 1.769 C 4.711 2.066,3.671 2.708,2.916 3.609 C 1.088 5.786,1.188 8.982,3.148 11.050 C 4.316 12.282,5.944 12.906,7.653 12.775 C 8.544 12.707,9.490 12.384,10.288 11.875 L 10.562 11.701 11.795 12.924 C 12.472 13.596,13.094 14.193,13.177 14.249 C 13.259 14.305,13.377 14.362,13.438 14.376 C 13.553 14.402,13.788 14.376,13.928 14.322 C 14.052 14.275,14.286 14.033,14.337 13.901 C 14.398 13.740,14.400 13.403,14.340 13.290 C 14.281 13.180,13.823 12.700,12.658 11.529 L 11.699 10.566 11.865 10.303 C 12.269 9.662,12.597 8.822,12.721 8.109 C 13.023 6.377,12.385 4.429,11.116 3.210 C 10.364 2.488,9.390 1.963,8.373 1.732 C 8.006 1.648,6.975 1.607,6.480 1.656 M7.823 3.281 C 8.275 3.333,8.958 3.598,9.425 3.904 C 10.094 4.342,10.683 5.101,10.959 5.880 C 11.121 6.338,11.175 6.674,11.175 7.207 C 11.174 7.790,11.073 8.281,10.848 8.795 C 10.448 9.708,9.643 10.503,8.730 10.884 C 8.147 11.128,7.505 11.223,6.797 11.173 C 6.202 11.130,5.513 10.879,4.947 10.498 C 4.728 10.351,4.189 9.820,3.997 9.563 C 3.668 9.122,3.345 8.353,3.278 7.850 C 3.257 7.695,3.251 7.415,3.261 7.040 C 3.274 6.536,3.284 6.435,3.345 6.203 C 3.646 5.066,4.419 4.128,5.480 3.612 C 5.765 3.474,6.149 3.345,6.426 3.294 C 6.668 3.251,7.490 3.243,7.823 3.281 " fill="#1A1C1F" stroke="none" fill-rule="evenodd"></path></svg>