<svg width="28" height="28" viewBox="0 0 28 28" fill="none" xmlns="http://www.w3.org/2000/svg"><path d="M10.158 2.733 C 7.769 3.105,5.833 4.247,4.378 6.144 C 3.391 7.431,2.816 8.981,2.652 10.801 C 2.471 12.797,3.182 15.090,4.505 16.777 C 4.823 17.183,5.518 17.884,5.929 18.215 C 7.001 19.077,8.465 19.727,9.959 20.005 C 10.546 20.115,12.163 20.116,12.787 20.007 C 14.086 19.781,15.440 19.212,16.524 18.436 L 16.917 18.155 19.553 20.781 C 23.753 24.963,24.077 25.275,24.301 25.342 C 24.578 25.425,24.866 25.336,25.107 25.095 C 25.441 24.761,25.458 24.377,25.155 23.995 C 25.060 23.875,23.447 22.232,21.571 20.343 L 18.160 16.910 18.438 16.521 C 20.157 14.116,20.577 11.079,19.568 8.353 C 18.689 5.980,16.837 4.124,14.420 3.195 C 13.222 2.735,11.409 2.538,10.158 2.733 M12.291 4.484 C 12.544 4.511,12.948 4.582,13.188 4.643 C 15.209 5.156,17.039 6.786,17.846 8.790 C 18.216 9.709,18.257 9.935,18.281 11.183 C 18.299 12.126,18.290 12.377,18.222 12.723 C 17.985 13.930,17.471 14.964,16.629 15.925 C 15.485 17.230,14.172 17.976,12.483 18.279 C 11.974 18.371,10.910 18.379,10.383 18.296 C 9.796 18.203,8.934 17.937,8.404 17.684 C 6.478 16.764,5.007 14.925,4.549 12.860 C 4.484 12.569,4.466 12.253,4.462 11.367 C 4.457 10.331,4.465 10.209,4.567 9.800 C 5.255 7.043,7.449 4.989,10.251 4.480 C 10.788 4.383,11.327 4.384,12.291 4.484 " fill="#1A1C1F" stroke="none" fill-rule="evenodd"></path></svg>