<svg width="12" height="12" viewBox="0 0 12 12" fill="none" xmlns="http://www.w3.org/2000/svg"><path d="M4.870 1.241 C 4.452 1.283,3.884 1.461,3.460 1.684 C 1.946 2.479,1.067 4.096,1.220 5.799 C 1.278 6.440,1.520 7.124,1.889 7.690 C 2.501 8.629,3.466 9.285,4.560 9.509 C 5.476 9.696,6.407 9.575,7.250 9.160 C 7.404 9.084,7.618 8.967,7.726 8.899 L 7.923 8.775 8.796 9.644 C 9.652 10.495,9.857 10.686,9.986 10.753 C 10.066 10.795,10.256 10.799,10.387 10.761 C 10.519 10.724,10.704 10.553,10.753 10.424 C 10.800 10.301,10.801 10.055,10.755 9.968 C 10.711 9.885,10.368 9.526,9.494 8.647 L 8.774 7.924 8.898 7.727 C 9.505 6.758,9.730 5.630,9.519 4.607 C 9.370 3.883,9.068 3.248,8.613 2.706 C 8.031 2.013,7.195 1.508,6.278 1.298 C 6.015 1.238,5.226 1.206,4.870 1.241 M6.150 2.515 C 6.740 2.692,7.139 2.922,7.519 3.301 C 7.908 3.690,8.167 4.149,8.313 4.710 C 8.368 4.921,8.370 4.948,8.370 5.390 C 8.370 5.807,8.365 5.868,8.322 6.040 C 8.229 6.413,8.083 6.748,7.879 7.060 C 7.728 7.290,7.281 7.746,7.068 7.886 C 6.481 8.271,5.843 8.434,5.130 8.380 C 3.993 8.293,2.972 7.491,2.584 6.380 C 2.467 6.044,2.450 5.919,2.450 5.370 C 2.450 4.887,2.452 4.863,2.505 4.662 C 2.655 4.101,2.918 3.659,3.344 3.250 C 3.682 2.925,4.061 2.694,4.471 2.563 C 4.813 2.455,4.936 2.440,5.470 2.448 C 5.936 2.455,5.956 2.457,6.150 2.515 " fill="#1A1C1F" stroke="none" fill-rule="evenodd"></path></svg>