<svg width="24" height="24" viewBox="0 0 24 24" fill="none" xmlns="http://www.w3.org/2000/svg"><path d="M8.900 2.044 C 7.965 2.120,7.103 2.363,6.220 2.799 C 3.858 3.965,2.310 6.187,2.042 8.799 C 1.819 10.976,2.635 13.227,4.224 14.816 C 5.367 15.959,6.762 16.660,8.460 16.945 C 8.998 17.035,10.042 17.035,10.580 16.945 C 11.723 16.753,12.848 16.324,13.756 15.732 L 14.093 15.513 15.036 16.447 C 15.555 16.960,16.826 18.218,17.860 19.242 C 18.894 20.266,19.916 21.271,20.130 21.474 C 20.675 21.991,20.892 22.076,21.309 21.936 C 21.589 21.842,21.756 21.698,21.869 21.452 C 21.954 21.267,21.966 21.189,21.954 20.923 L 21.940 20.611 21.635 20.276 C 21.467 20.091,20.022 18.623,18.424 17.013 L 15.518 14.086 15.743 13.740 C 16.233 12.989,16.693 11.878,16.879 11.000 C 17.139 9.769,17.063 8.477,16.654 7.202 C 16.470 6.627,16.001 5.691,15.661 5.220 C 14.332 3.375,12.339 2.237,10.100 2.042 C 9.569 1.996,9.479 1.997,8.900 2.044 M9.794 4.040 C 10.659 4.099,11.272 4.258,11.971 4.603 C 12.575 4.901,13.181 5.375,13.683 5.940 C 14.262 6.592,14.708 7.491,14.904 8.400 C 15.007 8.876,15.008 10.113,14.906 10.600 C 14.690 11.629,14.201 12.550,13.470 13.306 C 12.707 14.095,11.921 14.557,10.840 14.852 C 10.389 14.974,10.363 14.977,9.500 14.976 C 8.676 14.975,8.596 14.968,8.240 14.870 C 6.270 14.328,4.930 13.071,4.267 11.144 L 4.100 10.660 4.100 9.500 L 4.100 8.340 4.247 7.914 C 4.736 6.497,5.530 5.499,6.751 4.766 C 7.425 4.360,8.293 4.093,9.220 4.007 C 9.242 4.005,9.501 4.019,9.794 4.040 " fill="#1A1C1F" stroke="none" fill-rule="evenodd"></path></svg>