<svg width="12" height="12" viewBox="0 0 12 12" fill="none" xmlns="http://www.w3.org/2000/svg"><path d="M2.339 2.439 C 2.131 2.451,2.095 2.466,1.969 2.595 C 1.857 2.708,1.815 2.820,1.815 2.999 C 1.815 3.089,1.827 3.179,1.846 3.223 C 1.887 3.322,2.009 3.453,2.134 3.533 L 2.238 3.600 6.000 3.600 L 9.762 3.600 9.866 3.533 C 9.991 3.453,10.113 3.322,10.154 3.223 C 10.200 3.114,10.194 2.845,10.143 2.747 C 10.099 2.661,9.991 2.552,9.870 2.473 L 9.791 2.420 6.160 2.424 C 4.164 2.426,2.444 2.432,2.339 2.439 M2.219 5.438 C 2.044 5.473,1.861 5.671,1.819 5.873 C 1.763 6.143,1.922 6.441,2.185 6.561 C 2.268 6.598,2.351 6.599,5.016 6.600 L 7.761 6.600 7.856 6.552 C 8.090 6.432,8.204 6.266,8.217 6.026 C 8.223 5.906,8.216 5.866,8.175 5.776 C 8.110 5.634,8.035 5.550,7.912 5.479 L 7.810 5.420 5.050 5.422 C 3.532 5.424,2.258 5.431,2.219 5.438 M2.339 8.439 C 2.131 8.451,2.095 8.466,1.969 8.595 C 1.857 8.708,1.815 8.820,1.815 8.999 C 1.815 9.089,1.827 9.179,1.846 9.223 C 1.887 9.322,2.009 9.453,2.134 9.533 L 2.238 9.600 6.000 9.600 L 9.762 9.600 9.866 9.533 C 9.991 9.453,10.113 9.322,10.154 9.223 C 10.200 9.114,10.194 8.845,10.143 8.747 C 10.099 8.661,9.991 8.552,9.870 8.473 L 9.791 8.420 6.160 8.424 C 4.164 8.426,2.444 8.432,2.339 8.439 " fill="#1A1C1F" stroke="none" fill-rule="evenodd"></path></svg>