<svg width="16" height="16" viewBox="0 0 16 16" fill="none" xmlns="http://www.w3.org/2000/svg"><path d="M3.145 3.251 C 2.839 3.268,2.796 3.285,2.625 3.459 C 2.476 3.611,2.420 3.759,2.420 4.003 C 2.420 4.160,2.433 4.237,2.478 4.329 C 2.556 4.490,2.714 4.649,2.878 4.732 L 3.012 4.800 8.000 4.800 L 12.988 4.800 13.122 4.732 C 13.286 4.649,13.444 4.490,13.522 4.330 C 13.601 4.165,13.602 3.814,13.524 3.663 C 13.464 3.546,13.286 3.369,13.144 3.284 L 13.047 3.227 8.237 3.231 C 5.591 3.234,3.300 3.243,3.145 3.251 M2.959 7.251 C 2.830 7.276,2.637 7.414,2.557 7.538 C 2.447 7.706,2.413 7.817,2.416 8.000 C 2.419 8.312,2.589 8.572,2.891 8.731 L 3.021 8.800 6.688 8.800 L 10.354 8.800 10.475 8.740 C 10.629 8.664,10.827 8.471,10.893 8.333 C 10.924 8.270,10.949 8.150,10.955 8.035 C 10.964 7.874,10.955 7.821,10.900 7.702 C 10.813 7.512,10.714 7.399,10.550 7.305 L 10.413 7.227 6.733 7.230 C 4.709 7.232,3.011 7.241,2.959 7.251 M3.145 11.251 C 2.839 11.268,2.796 11.285,2.625 11.459 C 2.476 11.611,2.420 11.759,2.420 12.003 C 2.420 12.160,2.433 12.237,2.478 12.329 C 2.556 12.490,2.714 12.649,2.878 12.732 L 3.012 12.800 8.000 12.800 L 12.988 12.800 13.122 12.732 C 13.286 12.649,13.444 12.490,13.522 12.330 C 13.601 12.165,13.602 11.814,13.524 11.663 C 13.464 11.546,13.286 11.369,13.144 11.284 L 13.047 11.227 8.237 11.231 C 5.591 11.234,3.300 11.243,3.145 11.251 " fill="#1A1C1F" stroke="none" fill-rule="evenodd"></path></svg>