<svg width="20" height="20" viewBox="0 0 20 20" fill="none" xmlns="http://www.w3.org/2000/svg"><path d="M3.933 4.064 C 3.741 4.075,3.556 4.099,3.523 4.119 C 3.386 4.200,3.152 4.460,3.089 4.600 C 2.993 4.815,2.995 5.200,3.095 5.405 C 3.182 5.586,3.395 5.804,3.595 5.918 L 3.740 6.000 9.988 6.000 L 16.236 6.000 16.393 5.920 C 16.594 5.818,16.877 5.519,16.934 5.349 C 16.993 5.169,16.988 4.779,16.925 4.629 C 16.856 4.467,16.666 4.262,16.470 4.136 L 16.311 4.033 10.297 4.039 C 6.990 4.043,4.126 4.054,3.933 4.064 M3.699 9.064 C 3.538 9.096,3.297 9.267,3.196 9.422 C 3.059 9.632,3.017 9.772,3.019 10.000 C 3.024 10.390,3.236 10.715,3.613 10.914 L 3.777 11.000 8.356 11.000 L 12.936 11.000 13.104 10.915 C 13.309 10.811,13.529 10.597,13.616 10.417 C 13.655 10.336,13.686 10.188,13.694 10.044 C 13.705 9.843,13.694 9.776,13.626 9.627 C 13.516 9.390,13.392 9.249,13.187 9.132 L 13.017 9.034 8.417 9.037 C 5.887 9.039,3.764 9.051,3.699 9.064 M3.933 14.064 C 3.741 14.075,3.556 14.099,3.523 14.119 C 3.386 14.200,3.152 14.460,3.089 14.600 C 2.993 14.815,2.995 15.200,3.095 15.405 C 3.182 15.586,3.395 15.804,3.595 15.918 L 3.740 16.000 9.988 16.000 L 16.236 16.000 16.393 15.920 C 16.594 15.818,16.877 15.519,16.934 15.349 C 16.993 15.169,16.988 14.779,16.925 14.629 C 16.856 14.467,16.666 14.262,16.470 14.136 L 16.311 14.033 10.297 14.039 C 6.990 14.043,4.126 14.054,3.933 14.064 " fill="#1A1C1F" stroke="none" fill-rule="evenodd"></path></svg>