<svg width="24" height="24" viewBox="0 0 24 24" fill="none" xmlns="http://www.w3.org/2000/svg"><path d="M4.752 5.077 C 4.521 5.109,4.308 5.271,4.140 5.541 C 3.900 5.927,4.007 6.451,4.389 6.751 C 4.739 7.026,4.024 7.003,12.030 6.991 C 18.964 6.980,19.266 6.977,19.395 6.906 C 19.469 6.866,19.609 6.752,19.705 6.653 C 20.145 6.200,20.061 5.552,19.513 5.183 L 19.301 5.040 12.121 5.045 C 8.171 5.048,4.855 5.063,4.752 5.077 M4.734 11.075 C 4.409 11.132,4.089 11.495,4.019 11.887 C 3.955 12.238,4.210 12.684,4.593 12.892 L 4.795 13.002 10.287 12.991 C 16.459 12.979,15.875 13.010,16.199 12.676 C 16.628 12.234,16.548 11.532,16.026 11.170 L 15.867 11.060 10.383 11.053 C 7.368 11.049,4.825 11.059,4.734 11.075 M4.776 17.076 C 4.287 17.136,3.904 17.734,4.037 18.228 C 4.101 18.467,4.357 18.772,4.587 18.884 L 4.780 18.979 12.000 18.979 L 19.220 18.979 19.410 18.886 C 19.653 18.767,19.866 18.518,19.941 18.264 C 20.026 17.977,20.016 17.877,19.869 17.594 C 19.770 17.403,19.686 17.306,19.522 17.191 L 19.306 17.040 12.143 17.046 C 8.203 17.049,4.888 17.062,4.776 17.076 " fill="#1A1C1F" stroke="none" fill-rule="evenodd"></path></svg>