<svg width="32" height="32" viewBox="0 0 32 32" fill="none" xmlns="http://www.w3.org/2000/svg"><path d="M9.467 8.051 C 6.761 8.074,5.585 8.102,5.486 8.145 C 5.207 8.266,4.979 8.758,5.029 9.130 C 5.070 9.434,5.285 9.727,5.568 9.864 L 5.809 9.981 12.331 10.007 C 15.918 10.021,20.545 10.014,22.613 9.990 C 26.244 9.948,26.380 9.943,26.556 9.839 C 26.788 9.703,26.987 9.334,26.987 9.040 C 26.987 8.737,26.789 8.382,26.511 8.187 L 26.284 8.027 19.795 8.023 C 16.227 8.021,11.579 8.034,9.467 8.051 M8.636 15.038 L 5.565 15.067 5.370 15.216 C 5.100 15.421,5.046 15.545,5.049 15.955 C 5.052 16.394,5.155 16.588,5.516 16.837 L 5.778 17.018 13.996 17.002 L 22.213 16.987 22.477 16.853 C 22.934 16.622,23.113 16.042,22.870 15.576 C 22.660 15.173,22.571 15.137,21.670 15.090 C 20.612 15.035,12.464 15.003,8.636 15.038 M5.558 22.133 C 5.461 22.155,5.337 22.215,5.281 22.266 C 5.165 22.371,5.013 22.779,5.013 22.986 C 5.013 23.207,5.262 23.647,5.491 23.832 L 5.700 24.000 16.007 24.000 L 26.314 24.000 26.517 23.859 C 27.065 23.480,27.132 22.759,26.664 22.291 L 26.453 22.080 16.093 22.085 C 10.395 22.088,5.654 22.110,5.558 22.133 " fill="#1A1C1F" stroke="none" fill-rule="evenodd"></path></svg>