<svg width="14" height="14" viewBox="0 0 14 14" fill="none" xmlns="http://www.w3.org/2000/svg"><path d="M2.742 2.845 C 2.613 2.852,2.487 2.871,2.462 2.886 C 2.372 2.938,2.195 3.139,2.156 3.232 C 2.106 3.353,2.104 3.644,2.154 3.761 C 2.204 3.880,2.368 4.052,2.508 4.132 L 2.625 4.200 7.000 4.200 L 11.375 4.200 11.492 4.132 C 11.632 4.052,11.797 3.880,11.846 3.761 C 11.900 3.633,11.893 3.320,11.834 3.205 C 11.782 3.105,11.656 2.978,11.515 2.885 L 11.423 2.823 7.199 2.828 C 4.876 2.830,2.870 2.838,2.742 2.845 M2.590 6.345 C 2.486 6.366,2.328 6.470,2.253 6.568 C 2.042 6.845,2.070 7.245,2.317 7.485 C 2.371 7.537,2.466 7.607,2.529 7.640 L 2.644 7.700 5.856 7.700 L 9.068 7.700 9.218 7.610 C 9.383 7.511,9.522 7.351,9.564 7.211 C 9.657 6.898,9.519 6.557,9.231 6.392 L 9.112 6.324 5.892 6.326 C 4.121 6.328,2.635 6.336,2.590 6.345 M2.742 9.845 C 2.613 9.852,2.487 9.871,2.462 9.886 C 2.372 9.938,2.195 10.139,2.156 10.232 C 2.106 10.353,2.104 10.644,2.154 10.761 C 2.204 10.880,2.368 11.052,2.508 11.132 L 2.625 11.200 7.000 11.200 L 11.375 11.200 11.492 11.132 C 11.632 11.052,11.797 10.880,11.846 10.761 C 11.900 10.633,11.893 10.320,11.834 10.205 C 11.782 10.105,11.656 9.978,11.515 9.885 L 11.423 9.823 7.199 9.828 C 4.876 9.830,2.870 9.838,2.742 9.845 " fill="#1A1C1F" stroke="none" fill-rule="evenodd"></path></svg>