<svg width="28" height="28" viewBox="0 0 28 28" fill="none" xmlns="http://www.w3.org/2000/svg"><path d="M8.260 7.045 C 5.899 7.064,4.887 7.088,4.800 7.126 C 4.556 7.233,4.357 7.663,4.401 7.989 C 4.436 8.255,4.624 8.511,4.871 8.631 L 5.082 8.733 10.836 8.756 C 14.001 8.768,18.060 8.762,19.857 8.741 L 23.123 8.703 23.271 8.598 C 23.755 8.252,23.697 7.467,23.161 7.134 L 22.983 7.023 17.290 7.020 C 14.159 7.018,10.095 7.029,8.260 7.045 M7.743 13.158 L 4.869 13.183 4.699 13.314 C 4.462 13.494,4.415 13.602,4.418 13.961 C 4.420 14.345,4.510 14.515,4.827 14.733 L 5.058 14.892 12.247 14.878 L 19.437 14.863 19.668 14.747 C 20.068 14.545,20.224 14.037,20.011 13.629 C 19.832 13.285,19.743 13.247,19.033 13.205 C 18.190 13.155,11.289 13.126,7.743 13.158 M6.718 19.318 C 4.989 19.341,4.814 19.351,4.696 19.429 C 4.553 19.522,4.435 19.761,4.398 20.031 C 4.367 20.265,4.559 20.656,4.803 20.852 L 4.988 21.000 14.006 21.000 L 23.025 21.000 23.203 20.877 C 23.583 20.613,23.705 20.123,23.492 19.717 C 23.301 19.352,23.290 19.350,21.445 19.313 C 19.604 19.277,9.613 19.280,6.718 19.318 " fill="#1A1C1F" stroke="none" fill-rule="evenodd"></path></svg>