<svg width="24" height="24" viewBox="0 0 24 24" fill="none" xmlns="http://www.w3.org/2000/svg"><path d="M11.720 3.042 C 10.679 3.173,9.858 4.265,10.033 5.286 C 10.107 5.719,10.284 6.052,10.616 6.383 C 10.920 6.686,11.181 6.837,11.578 6.939 C 12.215 7.102,12.863 6.902,13.384 6.383 C 13.864 5.904,14.070 5.314,13.967 4.714 C 13.784 3.647,12.791 2.908,11.720 3.042 M11.682 10.046 C 11.300 10.092,10.956 10.277,10.619 10.617 C 10.465 10.773,10.290 10.991,10.231 11.103 C 9.833 11.850,9.967 12.704,10.585 13.359 C 11.377 14.198,12.556 14.209,13.384 13.383 C 14.177 12.591,14.197 11.476,13.433 10.659 C 13.157 10.364,12.690 10.101,12.370 10.061 C 12.008 10.016,11.939 10.015,11.682 10.046 M11.720 17.042 C 10.679 17.173,9.858 18.265,10.033 19.286 C 10.107 19.719,10.284 20.052,10.616 20.383 C 10.920 20.686,11.181 20.837,11.578 20.939 C 12.215 21.102,12.863 20.902,13.384 20.383 C 13.864 19.904,14.070 19.314,13.967 18.714 C 13.784 17.647,12.791 16.908,11.720 17.042 " fill="#1A1C1F" stroke="none" fill-rule="evenodd"></path></svg>