<svg width="14" height="14" viewBox="0 0 14 14" fill="none" xmlns="http://www.w3.org/2000/svg"><path d="M6.632 3.416 C 6.472 3.493,6.302 3.665,6.217 3.839 C 6.156 3.963,6.148 4.002,6.148 4.200 C 6.148 4.404,6.155 4.435,6.224 4.577 C 6.314 4.760,6.461 4.903,6.646 4.989 C 6.759 5.041,6.811 5.050,7.000 5.051 C 7.198 5.051,7.236 5.044,7.361 4.983 C 7.539 4.896,7.696 4.739,7.783 4.561 C 7.844 4.437,7.851 4.398,7.851 4.200 C 7.851 4.006,7.843 3.962,7.788 3.849 C 7.697 3.663,7.584 3.543,7.416 3.452 C 7.278 3.378,7.252 3.372,7.012 3.365 C 6.778 3.359,6.744 3.363,6.632 3.416 M6.632 6.216 C 6.472 6.293,6.302 6.465,6.217 6.639 C 6.156 6.763,6.148 6.802,6.148 7.000 C 6.148 7.204,6.155 7.235,6.224 7.377 C 6.314 7.560,6.461 7.703,6.646 7.789 C 6.759 7.841,6.811 7.850,7.000 7.851 C 7.198 7.851,7.236 7.844,7.361 7.783 C 7.539 7.696,7.696 7.539,7.783 7.361 C 7.844 7.237,7.851 7.198,7.851 7.000 C 7.851 6.806,7.843 6.762,7.788 6.649 C 7.697 6.463,7.584 6.343,7.416 6.252 C 7.278 6.178,7.252 6.172,7.012 6.165 C 6.778 6.159,6.744 6.163,6.632 6.216 M6.632 9.016 C 6.472 9.093,6.302 9.265,6.217 9.439 C 6.156 9.563,6.148 9.602,6.148 9.800 C 6.148 10.004,6.155 10.035,6.224 10.177 C 6.314 10.360,6.461 10.503,6.646 10.589 C 6.759 10.641,6.811 10.650,7.000 10.651 C 7.198 10.651,7.236 10.644,7.361 10.583 C 7.539 10.496,7.696 10.339,7.783 10.161 C 7.844 10.037,7.851 9.998,7.851 9.800 C 7.851 9.606,7.843 9.562,7.788 9.449 C 7.697 9.263,7.584 9.143,7.416 9.052 C 7.278 8.978,7.252 8.972,7.012 8.965 C 6.778 8.959,6.744 8.963,6.632 9.016 " fill="#1A1C1F" stroke="none" fill-rule="evenodd"></path></svg>