<svg width="32" height="32" viewBox="0 0 32 32" fill="none" xmlns="http://www.w3.org/2000/svg"><path d="M7.538 14.080 C 7.008 14.190,6.478 14.629,6.204 15.186 C 6.071 15.458,6.053 15.552,6.053 16.001 C 6.053 16.466,6.068 16.538,6.227 16.861 C 6.433 17.280,6.768 17.607,7.191 17.803 C 7.449 17.923,7.567 17.943,8.000 17.944 C 8.454 17.945,8.540 17.929,8.826 17.789 C 9.233 17.590,9.590 17.233,9.789 16.826 C 9.929 16.540,9.945 16.454,9.944 16.000 C 9.942 15.594,9.918 15.441,9.823 15.231 C 9.586 14.705,9.094 14.263,8.613 14.142 C 8.282 14.059,7.782 14.030,7.538 14.080 M15.538 14.080 C 15.008 14.190,14.478 14.629,14.204 15.186 C 14.071 15.458,14.053 15.552,14.053 16.001 C 14.053 16.466,14.068 16.538,14.227 16.861 C 14.433 17.280,14.768 17.607,15.191 17.803 C 15.449 17.923,15.567 17.943,16.000 17.944 C 16.454 17.945,16.540 17.929,16.826 17.789 C 17.233 17.590,17.590 17.233,17.789 16.826 C 17.929 16.540,17.945 16.454,17.944 16.000 C 17.942 15.594,17.918 15.441,17.823 15.231 C 17.586 14.705,17.094 14.263,16.613 14.142 C 16.282 14.059,15.782 14.030,15.538 14.080 M23.538 14.080 C 23.008 14.190,22.478 14.629,22.204 15.186 C 22.071 15.458,22.053 15.552,22.053 16.001 C 22.053 16.466,22.068 16.538,22.227 16.861 C 22.433 17.280,22.768 17.607,23.191 17.803 C 23.449 17.923,23.567 17.943,24.000 17.944 C 24.454 17.945,24.540 17.929,24.826 17.789 C 25.233 17.590,25.590 17.233,25.789 16.826 C 25.929 16.540,25.945 16.454,25.944 16.000 C 25.942 15.594,25.918 15.441,25.823 15.231 C 25.586 14.705,25.094 14.263,24.613 14.142 C 24.282 14.059,23.782 14.030,23.538 14.080 " fill="#1A1C1F" stroke="none" fill-rule="evenodd"></path></svg>