<svg width="16" height="16" viewBox="0 0 16 16" fill="none" xmlns="http://www.w3.org/2000/svg"><path d="M4.564 7.041 C 4.403 7.074,4.225 7.184,4.061 7.352 C 3.825 7.593,3.753 7.960,3.869 8.336 C 3.917 8.489,3.950 8.542,4.080 8.669 C 4.165 8.752,4.305 8.854,4.391 8.896 C 4.529 8.964,4.575 8.973,4.800 8.973 C 5.026 8.973,5.071 8.964,5.213 8.895 C 5.416 8.795,5.595 8.616,5.695 8.413 C 5.765 8.270,5.773 8.227,5.772 8.000 C 5.771 7.797,5.759 7.721,5.712 7.615 C 5.593 7.353,5.347 7.131,5.107 7.071 C 4.939 7.029,4.691 7.015,4.564 7.041 M7.764 7.041 C 7.603 7.074,7.425 7.184,7.261 7.352 C 7.025 7.593,6.953 7.960,7.069 8.336 C 7.117 8.489,7.150 8.542,7.280 8.669 C 7.365 8.752,7.505 8.854,7.591 8.896 C 7.729 8.964,7.775 8.973,8.000 8.973 C 8.226 8.973,8.271 8.964,8.413 8.895 C 8.616 8.795,8.795 8.616,8.895 8.413 C 8.965 8.270,8.973 8.227,8.972 8.000 C 8.971 7.797,8.959 7.721,8.912 7.615 C 8.793 7.353,8.547 7.131,8.307 7.071 C 8.139 7.029,7.891 7.015,7.764 7.041 M10.964 7.041 C 10.803 7.074,10.625 7.184,10.461 7.352 C 10.225 7.593,10.153 7.960,10.269 8.336 C 10.317 8.489,10.350 8.542,10.480 8.669 C 10.565 8.752,10.705 8.854,10.791 8.896 C 10.929 8.964,10.975 8.973,11.200 8.973 C 11.426 8.973,11.471 8.964,11.613 8.895 C 11.816 8.795,11.995 8.616,12.095 8.413 C 12.165 8.270,12.173 8.227,12.172 8.000 C 12.171 7.797,12.159 7.721,12.112 7.615 C 11.993 7.353,11.747 7.131,11.507 7.071 C 11.339 7.029,11.091 7.015,10.964 7.041 " fill="#1A1C1F" stroke="none" fill-rule="evenodd"></path></svg>