<svg width="12" height="12" viewBox="0 0 12 12" fill="none" xmlns="http://www.w3.org/2000/svg"><path d="M5.827 2.880 C 5.485 2.951,5.239 3.295,5.265 3.664 C 5.284 3.926,5.450 4.162,5.696 4.276 C 5.793 4.321,5.838 4.329,6.000 4.329 C 6.170 4.330,6.203 4.323,6.310 4.271 C 6.459 4.198,6.599 4.057,6.673 3.905 C 6.723 3.803,6.729 3.769,6.729 3.600 C 6.728 3.448,6.719 3.390,6.684 3.312 C 6.595 3.114,6.410 2.949,6.230 2.903 C 6.106 2.872,5.918 2.861,5.827 2.880 M5.827 5.280 C 5.485 5.351,5.239 5.695,5.265 6.064 C 5.284 6.326,5.450 6.562,5.696 6.676 C 5.793 6.721,5.838 6.729,6.000 6.729 C 6.170 6.730,6.203 6.723,6.310 6.671 C 6.459 6.598,6.599 6.457,6.673 6.305 C 6.723 6.203,6.729 6.169,6.729 6.000 C 6.728 5.848,6.719 5.790,6.684 5.712 C 6.595 5.514,6.410 5.349,6.230 5.303 C 6.106 5.272,5.918 5.261,5.827 5.280 M5.827 7.680 C 5.485 7.751,5.239 8.095,5.265 8.464 C 5.284 8.726,5.450 8.962,5.696 9.076 C 5.793 9.121,5.838 9.129,6.000 9.129 C 6.170 9.130,6.203 9.123,6.310 9.071 C 6.459 8.998,6.599 8.857,6.673 8.705 C 6.723 8.603,6.729 8.569,6.729 8.400 C 6.728 8.248,6.719 8.190,6.684 8.112 C 6.595 7.914,6.410 7.749,6.230 7.703 C 6.106 7.672,5.918 7.661,5.827 7.680 " fill="#1A1C1F" stroke="none" fill-rule="evenodd"></path></svg>