<svg width="32" height="32" viewBox="0 0 32 32" fill="none" xmlns="http://www.w3.org/2000/svg"><path d="M15.538 6.080 C 15.008 6.190,14.478 6.629,14.204 7.186 C 14.071 7.458,14.053 7.552,14.053 8.001 C 14.053 8.466,14.068 8.538,14.227 8.861 C 14.433 9.280,14.768 9.607,15.191 9.803 C 15.449 9.923,15.567 9.943,16.000 9.944 C 16.454 9.945,16.540 9.929,16.826 9.789 C 17.233 9.590,17.590 9.233,17.789 8.826 C 17.929 8.540,17.945 8.454,17.944 8.000 C 17.942 7.594,17.918 7.441,17.823 7.231 C 17.586 6.705,17.094 6.263,16.613 6.142 C 16.282 6.059,15.782 6.030,15.538 6.080 M15.538 14.080 C 15.008 14.190,14.478 14.629,14.204 15.186 C 14.071 15.458,14.053 15.552,14.053 16.001 C 14.053 16.466,14.068 16.538,14.227 16.861 C 14.433 17.280,14.768 17.607,15.191 17.803 C 15.449 17.923,15.567 17.943,16.000 17.944 C 16.454 17.945,16.540 17.929,16.826 17.789 C 17.233 17.590,17.590 17.233,17.789 16.826 C 17.929 16.540,17.945 16.454,17.944 16.000 C 17.942 15.594,17.918 15.441,17.823 15.231 C 17.586 14.705,17.094 14.263,16.613 14.142 C 16.282 14.059,15.782 14.030,15.538 14.080 M15.538 22.080 C 15.008 22.190,14.478 22.629,14.204 23.186 C 14.071 23.458,14.053 23.552,14.053 24.001 C 14.053 24.466,14.068 24.538,14.227 24.861 C 14.433 25.280,14.768 25.607,15.191 25.803 C 15.449 25.923,15.567 25.943,16.000 25.944 C 16.454 25.945,16.540 25.929,16.826 25.789 C 17.233 25.590,17.590 25.233,17.789 24.826 C 17.929 24.540,17.945 24.454,17.944 24.000 C 17.942 23.594,17.918 23.441,17.823 23.231 C 17.586 22.705,17.094 22.263,16.613 22.142 C 16.282 22.059,15.782 22.030,15.538 22.080 " fill="#1A1C1F" stroke="none" fill-rule="evenodd"></path></svg>