<svg width="28" height="28" viewBox="0 0 28 28" fill="none" xmlns="http://www.w3.org/2000/svg"><path d="M13.584 5.322 C 13.126 5.416,12.667 5.802,12.423 6.299 C 12.312 6.524,12.297 6.612,12.297 7.001 C 12.297 7.409,12.309 7.471,12.450 7.757 C 12.628 8.119,12.921 8.402,13.300 8.580 C 13.519 8.682,13.623 8.700,14.000 8.701 C 14.397 8.702,14.473 8.688,14.723 8.566 C 15.079 8.392,15.392 8.079,15.566 7.723 C 15.688 7.472,15.702 7.398,15.701 7.000 C 15.699 6.645,15.678 6.511,15.595 6.327 C 15.388 5.867,14.958 5.480,14.537 5.374 C 14.242 5.300,13.808 5.277,13.584 5.322 M13.584 12.322 C 13.126 12.416,12.667 12.802,12.423 13.299 C 12.312 13.524,12.297 13.612,12.297 14.001 C 12.297 14.409,12.309 14.471,12.450 14.757 C 12.628 15.119,12.921 15.402,13.300 15.580 C 13.519 15.682,13.623 15.700,14.000 15.701 C 14.397 15.702,14.473 15.688,14.723 15.566 C 15.079 15.392,15.392 15.079,15.566 14.723 C 15.688 14.472,15.702 14.398,15.701 14.000 C 15.699 13.645,15.678 13.511,15.595 13.327 C 15.388 12.867,14.958 12.480,14.537 12.374 C 14.242 12.300,13.808 12.277,13.584 12.322 M13.584 19.322 C 13.126 19.416,12.667 19.802,12.423 20.299 C 12.312 20.524,12.297 20.612,12.297 21.001 C 12.297 21.409,12.309 21.471,12.450 21.757 C 12.628 22.119,12.921 22.402,13.300 22.580 C 13.519 22.682,13.623 22.700,14.000 22.701 C 14.397 22.702,14.473 22.688,14.723 22.566 C 15.079 22.392,15.392 22.079,15.566 21.723 C 15.688 21.472,15.702 21.398,15.701 21.000 C 15.699 20.645,15.678 20.511,15.595 20.327 C 15.388 19.867,14.958 19.480,14.537 19.374 C 14.242 19.300,13.808 19.277,13.584 19.322 " fill="#1A1C1F" stroke="none" fill-rule="evenodd"></path></svg>