<svg width="20" height="20" viewBox="0 0 20 20" fill="none" xmlns="http://www.w3.org/2000/svg"><path d="M9.711 4.800 C 9.026 4.941,8.615 5.689,8.831 6.401 C 8.894 6.608,8.933 6.672,9.094 6.832 C 9.199 6.937,9.372 7.064,9.483 7.118 C 9.662 7.205,9.718 7.216,10.000 7.216 C 10.283 7.216,10.338 7.205,10.516 7.118 C 10.770 6.994,10.994 6.770,11.118 6.516 C 11.206 6.337,11.216 6.284,11.215 6.000 C 11.214 5.746,11.199 5.651,11.139 5.519 C 10.991 5.191,10.684 4.914,10.383 4.839 C 10.176 4.787,9.864 4.769,9.711 4.800 M9.711 8.800 C 9.026 8.941,8.615 9.689,8.831 10.401 C 8.894 10.608,8.933 10.672,9.094 10.832 C 9.199 10.937,9.372 11.064,9.483 11.118 C 9.662 11.205,9.718 11.216,10.000 11.216 C 10.283 11.216,10.338 11.205,10.516 11.118 C 10.770 10.994,10.994 10.770,11.118 10.516 C 11.206 10.337,11.216 10.284,11.215 10.000 C 11.214 9.746,11.199 9.651,11.139 9.519 C 10.991 9.191,10.684 8.914,10.383 8.839 C 10.176 8.787,9.864 8.769,9.711 8.800 M9.711 12.800 C 9.026 12.941,8.615 13.689,8.831 14.401 C 8.894 14.608,8.933 14.672,9.094 14.832 C 9.199 14.937,9.372 15.064,9.483 15.118 C 9.662 15.205,9.718 15.216,10.000 15.216 C 10.283 15.216,10.338 15.205,10.516 15.118 C 10.770 14.994,10.994 14.770,11.118 14.516 C 11.206 14.337,11.216 14.284,11.215 14.000 C 11.214 13.746,11.199 13.651,11.139 13.519 C 10.991 13.191,10.684 12.914,10.383 12.839 C 10.176 12.787,9.864 12.769,9.711 12.800 " fill="#1A1C1F" stroke="none" fill-rule="evenodd"></path></svg>