<svg width="28" height="28" viewBox="0 0 28 28" fill="none" xmlns="http://www.w3.org/2000/svg"><path d="M6.584 12.322 C 6.126 12.416,5.667 12.802,5.423 13.299 C 5.312 13.524,5.297 13.612,5.297 14.001 C 5.297 14.409,5.309 14.471,5.450 14.757 C 5.628 15.119,5.921 15.402,6.300 15.580 C 6.519 15.682,6.623 15.700,7.000 15.701 C 7.397 15.702,7.473 15.688,7.723 15.566 C 8.079 15.392,8.392 15.079,8.566 14.723 C 8.688 14.472,8.702 14.398,8.701 14.000 C 8.699 13.645,8.678 13.511,8.595 13.327 C 8.388 12.867,7.958 12.480,7.537 12.374 C 7.242 12.300,6.808 12.277,6.584 12.322 M13.584 12.322 C 13.126 12.416,12.667 12.802,12.423 13.299 C 12.312 13.524,12.297 13.612,12.297 14.001 C 12.297 14.409,12.309 14.471,12.450 14.757 C 12.628 15.119,12.921 15.402,13.300 15.580 C 13.519 15.682,13.623 15.700,14.000 15.701 C 14.397 15.702,14.473 15.688,14.723 15.566 C 15.079 15.392,15.392 15.079,15.566 14.723 C 15.688 14.472,15.702 14.398,15.701 14.000 C 15.699 13.645,15.678 13.511,15.595 13.327 C 15.388 12.867,14.958 12.480,14.537 12.374 C 14.242 12.300,13.808 12.277,13.584 12.322 M20.584 12.322 C 20.126 12.416,19.667 12.802,19.423 13.299 C 19.312 13.524,19.297 13.612,19.297 14.001 C 19.297 14.409,19.309 14.471,19.450 14.757 C 19.628 15.119,19.921 15.402,20.300 15.580 C 20.519 15.682,20.623 15.700,21.000 15.701 C 21.397 15.702,21.473 15.688,21.723 15.566 C 22.079 15.392,22.392 15.079,22.566 14.723 C 22.688 14.472,22.702 14.398,22.701 14.000 C 22.699 13.645,22.678 13.511,22.595 13.327 C 22.388 12.867,21.958 12.480,21.537 12.374 C 21.242 12.300,20.808 12.277,20.584 12.322 " fill="#1A1C1F" stroke="none" fill-rule="evenodd"></path></svg>