<svg width="12" height="12" viewBox="0 0 12 12" fill="none" xmlns="http://www.w3.org/2000/svg"><path d="M3.427 5.280 C 3.085 5.351,2.839 5.695,2.865 6.064 C 2.884 6.326,3.050 6.562,3.296 6.676 C 3.393 6.721,3.438 6.729,3.600 6.729 C 3.770 6.730,3.803 6.723,3.910 6.671 C 4.059 6.598,4.199 6.457,4.273 6.305 C 4.323 6.203,4.329 6.169,4.329 6.000 C 4.328 5.848,4.319 5.790,4.284 5.712 C 4.195 5.514,4.010 5.349,3.830 5.303 C 3.706 5.272,3.518 5.261,3.427 5.280 M5.827 5.280 C 5.485 5.351,5.239 5.695,5.265 6.064 C 5.284 6.326,5.450 6.562,5.696 6.676 C 5.793 6.721,5.838 6.729,6.000 6.729 C 6.170 6.730,6.203 6.723,6.310 6.671 C 6.459 6.598,6.599 6.457,6.673 6.305 C 6.723 6.203,6.729 6.169,6.729 6.000 C 6.728 5.848,6.719 5.790,6.684 5.712 C 6.595 5.514,6.410 5.349,6.230 5.303 C 6.106 5.272,5.918 5.261,5.827 5.280 M8.227 5.280 C 7.885 5.351,7.639 5.695,7.665 6.064 C 7.684 6.326,7.850 6.562,8.096 6.676 C 8.193 6.721,8.238 6.729,8.400 6.729 C 8.570 6.730,8.603 6.723,8.710 6.671 C 8.859 6.598,8.999 6.457,9.073 6.305 C 9.123 6.203,9.129 6.169,9.129 6.000 C 9.128 5.848,9.119 5.790,9.084 5.712 C 8.995 5.514,8.810 5.349,8.630 5.303 C 8.506 5.272,8.318 5.261,8.227 5.280 " fill="#1A1C1F" stroke="none" fill-rule="evenodd"></path></svg>