<svg width="24" height="24" viewBox="0 0 24 24" fill="none" xmlns="http://www.w3.org/2000/svg"><path d="M4.720 10.027 C 4.665 10.036,4.512 10.081,4.380 10.127 C 3.469 10.447,2.879 11.391,3.033 12.286 C 3.107 12.718,3.284 13.051,3.616 13.384 C 4.432 14.199,5.570 14.199,6.383 13.384 C 7.206 12.559,7.206 11.435,6.383 10.619 C 5.918 10.157,5.295 9.935,4.720 10.027 M11.682 10.046 C 11.300 10.092,10.956 10.277,10.619 10.617 C 10.465 10.773,10.290 10.991,10.231 11.103 C 9.833 11.850,9.967 12.704,10.585 13.359 C 11.377 14.198,12.556 14.209,13.384 13.383 C 14.177 12.591,14.197 11.476,13.433 10.659 C 13.157 10.364,12.690 10.101,12.370 10.061 C 12.008 10.016,11.939 10.015,11.682 10.046 M18.682 10.046 C 18.300 10.092,17.956 10.277,17.619 10.617 C 17.465 10.773,17.290 10.991,17.231 11.103 C 16.833 11.850,16.967 12.704,17.585 13.359 C 18.377 14.198,19.556 14.209,20.384 13.383 C 21.177 12.591,21.197 11.476,20.433 10.659 C 20.157 10.364,19.690 10.101,19.370 10.061 C 19.008 10.016,18.939 10.015,18.682 10.046 " fill="#1A1C1F" stroke="none" fill-rule="evenodd"></path></svg>