<svg width="14" height="14" viewBox="0 0 14 14" fill="none" xmlns="http://www.w3.org/2000/svg"><path d="M3.832 6.216 C 3.672 6.293,3.502 6.465,3.417 6.639 C 3.356 6.763,3.348 6.802,3.348 7.000 C 3.348 7.204,3.355 7.235,3.424 7.377 C 3.514 7.560,3.661 7.703,3.846 7.789 C 3.959 7.841,4.011 7.850,4.200 7.851 C 4.398 7.851,4.436 7.844,4.561 7.783 C 4.739 7.696,4.896 7.539,4.983 7.361 C 5.044 7.237,5.051 7.198,5.051 7.000 C 5.051 6.806,5.043 6.762,4.988 6.649 C 4.897 6.463,4.784 6.343,4.616 6.252 C 4.478 6.178,4.452 6.172,4.212 6.165 C 3.978 6.159,3.944 6.163,3.832 6.216 M6.632 6.216 C 6.472 6.293,6.302 6.465,6.217 6.639 C 6.156 6.763,6.148 6.802,6.148 7.000 C 6.148 7.204,6.155 7.235,6.224 7.377 C 6.314 7.560,6.461 7.703,6.646 7.789 C 6.759 7.841,6.811 7.850,7.000 7.851 C 7.198 7.851,7.236 7.844,7.361 7.783 C 7.539 7.696,7.696 7.539,7.783 7.361 C 7.844 7.237,7.851 7.198,7.851 7.000 C 7.851 6.806,7.843 6.762,7.788 6.649 C 7.697 6.463,7.584 6.343,7.416 6.252 C 7.278 6.178,7.252 6.172,7.012 6.165 C 6.778 6.159,6.744 6.163,6.632 6.216 M9.432 6.216 C 9.272 6.293,9.102 6.465,9.017 6.639 C 8.956 6.763,8.948 6.802,8.948 7.000 C 8.948 7.204,8.955 7.235,9.024 7.377 C 9.114 7.560,9.261 7.703,9.446 7.789 C 9.559 7.841,9.611 7.850,9.800 7.851 C 9.998 7.851,10.036 7.844,10.161 7.783 C 10.339 7.696,10.496 7.539,10.583 7.361 C 10.644 7.237,10.651 7.198,10.651 7.000 C 10.651 6.806,10.643 6.762,10.588 6.649 C 10.497 6.463,10.384 6.343,10.216 6.252 C 10.078 6.178,10.052 6.172,9.812 6.165 C 9.578 6.159,9.544 6.163,9.432 6.216 " fill="#1A1C1F" stroke="none" fill-rule="evenodd"></path></svg>