<svg width="16" height="16" viewBox="0 0 16 16" fill="none" xmlns="http://www.w3.org/2000/svg"><path d="M7.764 3.841 C 7.603 3.874,7.425 3.984,7.261 4.152 C 7.025 4.393,6.953 4.760,7.069 5.136 C 7.117 5.289,7.150 5.342,7.280 5.469 C 7.365 5.552,7.505 5.654,7.591 5.696 C 7.729 5.764,7.775 5.773,8.000 5.773 C 8.226 5.773,8.271 5.764,8.413 5.695 C 8.616 5.595,8.795 5.416,8.895 5.213 C 8.965 5.070,8.973 5.027,8.972 4.800 C 8.971 4.597,8.959 4.521,8.912 4.415 C 8.793 4.153,8.547 3.931,8.307 3.871 C 8.139 3.829,7.891 3.815,7.764 3.841 M7.764 7.041 C 7.603 7.074,7.425 7.184,7.261 7.352 C 7.025 7.593,6.953 7.960,7.069 8.336 C 7.117 8.489,7.150 8.542,7.280 8.669 C 7.365 8.752,7.505 8.854,7.591 8.896 C 7.729 8.964,7.775 8.973,8.000 8.973 C 8.226 8.973,8.271 8.964,8.413 8.895 C 8.616 8.795,8.795 8.616,8.895 8.413 C 8.965 8.270,8.973 8.227,8.972 8.000 C 8.971 7.797,8.959 7.721,8.912 7.615 C 8.793 7.353,8.547 7.131,8.307 7.071 C 8.139 7.029,7.891 7.015,7.764 7.041 M7.764 10.241 C 7.603 10.274,7.425 10.384,7.261 10.552 C 7.025 10.793,6.953 11.160,7.069 11.536 C 7.117 11.689,7.150 11.742,7.280 11.869 C 7.365 11.952,7.505 12.054,7.591 12.096 C 7.729 12.164,7.775 12.173,8.000 12.173 C 8.226 12.173,8.271 12.164,8.413 12.095 C 8.616 11.995,8.795 11.816,8.895 11.613 C 8.965 11.470,8.973 11.427,8.972 11.200 C 8.971 10.997,8.959 10.921,8.912 10.815 C 8.793 10.553,8.547 10.331,8.307 10.271 C 8.139 10.229,7.891 10.215,7.764 10.241 " fill="#1A1C1F" stroke="none" fill-rule="evenodd"></path></svg>