<svg width="20" height="20" viewBox="0 0 20 20" fill="none" xmlns="http://www.w3.org/2000/svg"><path d="M5.711 8.800 C 5.026 8.941,4.615 9.689,4.831 10.401 C 4.894 10.608,4.933 10.672,5.094 10.832 C 5.199 10.937,5.372 11.064,5.483 11.118 C 5.662 11.205,5.718 11.216,6.000 11.216 C 6.283 11.216,6.338 11.205,6.516 11.118 C 6.770 10.994,6.994 10.770,7.118 10.516 C 7.206 10.337,7.216 10.284,7.215 10.000 C 7.214 9.746,7.199 9.651,7.139 9.519 C 6.991 9.191,6.684 8.914,6.383 8.839 C 6.176 8.787,5.864 8.769,5.711 8.800 M9.711 8.800 C 9.026 8.941,8.615 9.689,8.831 10.401 C 8.894 10.608,8.933 10.672,9.094 10.832 C 9.199 10.937,9.372 11.064,9.483 11.118 C 9.662 11.205,9.718 11.216,10.000 11.216 C 10.283 11.216,10.338 11.205,10.516 11.118 C 10.770 10.994,10.994 10.770,11.118 10.516 C 11.206 10.337,11.216 10.284,11.215 10.000 C 11.214 9.746,11.199 9.651,11.139 9.519 C 10.991 9.191,10.684 8.914,10.383 8.839 C 10.176 8.787,9.864 8.769,9.711 8.800 M13.711 8.800 C 13.026 8.941,12.615 9.689,12.831 10.401 C 12.894 10.608,12.933 10.672,13.094 10.832 C 13.199 10.937,13.372 11.064,13.483 11.118 C 13.662 11.205,13.718 11.216,14.000 11.216 C 14.283 11.216,14.338 11.205,14.516 11.118 C 14.770 10.994,14.994 10.770,15.118 10.516 C 15.206 10.337,15.216 10.284,15.215 10.000 C 15.214 9.746,15.199 9.651,15.139 9.519 C 14.991 9.191,14.684 8.914,14.383 8.839 C 14.176 8.787,13.864 8.769,13.711 8.800 " fill="#1A1C1F" stroke="none" fill-rule="evenodd"></path></svg>