<svg width="20" height="20" viewBox="0 0 20 20" fill="none" xmlns="http://www.w3.org/2000/svg"><path d="M3.283 2.029 C 3.018 2.099,2.788 2.296,2.644 2.576 C 2.464 2.927,2.535 3.291,2.868 3.734 C 3.087 4.025,3.175 4.223,3.192 4.467 C 3.212 4.760,3.169 4.867,2.804 5.428 C 2.473 5.936,2.247 6.385,2.146 6.733 C 2.054 7.054,2.063 7.879,2.162 8.250 C 2.307 8.789,2.766 9.598,3.050 9.815 C 3.492 10.152,4.018 10.124,4.387 9.745 C 4.775 9.345,4.779 8.947,4.399 8.332 C 4.144 7.919,4.100 7.789,4.100 7.449 C 4.100 7.130,4.130 7.059,4.530 6.450 C 4.827 5.998,5.002 5.641,5.120 5.250 C 5.244 4.838,5.251 4.255,5.139 3.833 C 4.949 3.120,4.413 2.331,3.961 2.098 C 3.823 2.027,3.439 1.988,3.283 2.029 M16.400 2.307 C 15.854 2.784,12.808 5.799,8.033 10.588 C 3.058 15.577,2.125 16.534,2.041 16.733 C 1.977 16.886,2.005 17.248,2.095 17.422 C 2.175 17.577,2.440 17.838,2.600 17.918 C 2.782 18.011,3.156 18.023,3.338 17.942 C 3.509 17.866,4.294 17.131,5.566 15.853 L 6.383 15.033 11.633 15.032 C 14.521 15.032,16.987 15.018,17.114 15.001 C 17.398 14.965,17.665 14.797,17.809 14.563 C 17.980 14.286,18.042 13.658,17.966 12.989 C 17.917 12.562,17.779 12.341,17.437 12.140 L 17.285 12.052 13.351 12.034 L 9.417 12.017 13.183 8.233 C 17.059 4.340,17.878 3.495,17.955 3.309 C 18.015 3.167,18.012 2.985,17.946 2.765 C 17.876 2.528,17.740 2.344,17.530 2.201 C 17.368 2.090,17.343 2.084,17.021 2.072 L 16.683 2.060 16.400 2.307 M3.067 12.065 C 2.807 12.080,2.645 12.105,2.564 12.145 C 2.422 12.213,2.180 12.445,2.111 12.578 C 1.979 12.833,1.969 14.128,2.097 14.418 C 2.218 14.691,2.195 14.708,3.610 13.301 L 4.883 12.035 4.167 12.040 C 3.772 12.042,3.277 12.054,3.067 12.065 " fill="#1A1C1F" stroke="none" fill-rule="evenodd"></path></svg>