<svg width="16" height="16" viewBox="0 0 16 16" fill="none" xmlns="http://www.w3.org/2000/svg"><path d="M2.627 1.623 C 2.487 1.660,2.389 1.725,2.258 1.865 C 2.098 2.035,2.047 2.156,2.046 2.360 C 2.046 2.566,2.117 2.749,2.288 2.980 C 2.508 3.277,2.547 3.371,2.546 3.600 C 2.546 3.710,2.530 3.845,2.511 3.899 C 2.492 3.954,2.376 4.147,2.254 4.329 C 1.740 5.091,1.592 5.595,1.678 6.292 C 1.717 6.606,1.804 6.865,1.991 7.227 C 2.252 7.731,2.483 7.955,2.820 8.030 C 3.082 8.089,3.409 7.951,3.583 7.709 C 3.821 7.378,3.804 7.120,3.511 6.653 C 3.320 6.350,3.280 6.228,3.280 5.962 C 3.280 5.703,3.303 5.649,3.624 5.160 C 3.865 4.792,4.006 4.507,4.097 4.200 C 4.193 3.877,4.199 3.380,4.110 3.053 C 3.959 2.495,3.525 1.862,3.168 1.678 C 3.059 1.622,2.751 1.590,2.627 1.623 M13.148 1.814 C 12.776 2.134,10.141 4.744,6.288 8.610 C 4.151 10.753,2.234 12.688,2.029 12.908 C 1.614 13.353,1.582 13.413,1.610 13.687 C 1.619 13.772,1.649 13.886,1.677 13.940 C 1.740 14.062,1.953 14.271,2.079 14.334 C 2.198 14.394,2.462 14.414,2.606 14.375 C 2.771 14.331,2.928 14.189,4.078 13.051 L 5.113 12.027 9.443 12.020 L 13.773 12.013 13.929 11.934 C 14.241 11.777,14.365 11.525,14.392 11.000 C 14.410 10.637,14.365 10.193,14.296 10.059 C 14.229 9.930,14.100 9.801,13.949 9.712 L 13.828 9.641 10.687 9.631 C 8.960 9.625,7.547 9.614,7.547 9.606 C 7.547 9.599,8.900 8.235,10.553 6.576 C 13.638 3.481,14.302 2.797,14.364 2.648 C 14.412 2.534,14.409 2.388,14.357 2.212 C 14.301 2.022,14.192 1.875,14.024 1.761 C 13.894 1.672,13.875 1.667,13.615 1.658 L 13.341 1.648 13.148 1.814 M2.453 9.654 C 2.285 9.664,2.113 9.686,2.072 9.702 C 1.944 9.755,1.713 9.995,1.661 10.129 C 1.621 10.235,1.613 10.340,1.613 10.827 C 1.613 11.393,1.614 11.402,1.683 11.532 C 1.721 11.605,1.764 11.668,1.779 11.673 C 1.823 11.688,2.260 11.278,3.106 10.429 L 3.906 9.627 3.333 9.631 C 3.018 9.633,2.622 9.644,2.453 9.654 " fill="#1A1C1F" stroke="none" fill-rule="evenodd"></path></svg>