<svg width="28" height="28" viewBox="0 0 28 28" fill="none" xmlns="http://www.w3.org/2000/svg"><path d="M23.395 3.545 C 23.339 3.569,22.783 4.077,22.160 4.676 C 20.502 6.267,10.436 16.306,6.761 20.034 C 3.387 23.456,3.447 23.387,3.518 23.767 C 3.594 24.170,4.063 24.537,4.440 24.486 C 4.543 24.473,4.713 24.402,4.818 24.329 C 4.923 24.256,5.539 23.677,6.186 23.042 L 7.363 21.887 13.773 21.882 C 17.299 21.879,21.181 21.862,22.400 21.843 C 24.423 21.813,24.636 21.803,24.839 21.722 C 25.340 21.521,25.817 21.043,26.093 20.463 C 26.226 20.184,26.227 20.181,26.227 19.245 L 26.227 18.306 26.059 17.971 C 25.834 17.520,25.482 17.151,25.032 16.894 L 24.667 16.685 21.538 16.653 C 19.818 16.636,17.111 16.620,15.524 16.618 L 12.637 16.613 18.426 10.801 C 21.610 7.604,24.279 4.891,24.357 4.773 C 24.522 4.525,24.535 4.352,24.412 4.081 C 24.238 3.697,23.705 3.416,23.395 3.545 M3.555 4.465 C 3.167 4.603,2.883 5.048,2.960 5.399 C 2.976 5.473,3.156 5.780,3.358 6.082 C 3.854 6.818,3.902 6.953,3.841 7.417 C 3.774 7.928,3.643 8.176,2.970 9.067 C 2.351 9.888,2.137 10.256,1.928 10.860 C 1.814 11.188,1.802 11.288,1.801 11.900 C 1.799 12.521,1.810 12.609,1.931 12.973 C 2.291 14.051,2.870 14.802,3.396 14.872 C 3.883 14.938,4.440 14.351,4.323 13.895 C 4.308 13.837,4.166 13.559,4.008 13.277 C 3.562 12.482,3.470 12.078,3.599 11.471 C 3.677 11.104,3.818 10.859,4.375 10.118 C 5.364 8.806,5.627 8.201,5.618 7.257 C 5.609 6.342,5.294 5.591,4.622 4.883 C 4.366 4.613,4.001 4.383,3.840 4.390 C 3.794 4.392,3.666 4.426,3.555 4.465 M4.570 16.662 C 3.991 16.680,3.445 16.711,3.357 16.730 C 2.934 16.822,2.316 17.297,2.066 17.723 C 1.823 18.138,1.773 18.415,1.773 19.342 L 1.773 20.196 1.960 20.570 C 2.163 20.975,2.633 21.513,2.784 21.513 C 2.834 21.513,3.164 21.220,3.564 20.820 L 4.256 20.126 4.009 20.102 C 3.816 20.084,3.739 20.051,3.654 19.953 C 3.559 19.842,3.547 19.780,3.547 19.394 C 3.547 19.155,3.560 18.864,3.576 18.748 C 3.620 18.428,3.666 18.416,4.927 18.396 L 6.005 18.379 6.887 17.496 L 7.769 16.613 6.696 16.621 C 6.106 16.625,5.149 16.643,4.570 16.662 M24.372 18.530 C 24.440 18.614,24.453 18.729,24.453 19.246 C 24.453 19.665,24.435 19.888,24.395 19.942 C 24.360 19.989,24.224 20.040,24.057 20.067 C 23.882 20.096,21.016 20.113,16.450 20.113 L 9.124 20.113 9.987 19.245 L 10.850 18.376 17.570 18.403 L 24.290 18.429 24.372 18.530 " fill="#1A1C1F" stroke="none" fill-rule="evenodd"></path></svg>