<svg width="12" height="12" viewBox="0 0 12 12" fill="none" xmlns="http://www.w3.org/2000/svg"><path d="M1.970 1.217 C 1.866 1.245,1.792 1.293,1.693 1.399 C 1.574 1.527,1.535 1.617,1.535 1.770 C 1.536 1.925,1.589 2.061,1.718 2.240 C 1.890 2.475,1.910 2.526,1.910 2.720 L 1.910 2.890 1.791 3.080 C 1.295 3.876,1.226 4.059,1.246 4.540 C 1.258 4.835,1.313 5.050,1.449 5.334 C 1.673 5.801,1.921 6.027,2.210 6.029 C 2.481 6.030,2.714 5.844,2.792 5.564 C 2.824 5.448,2.824 5.434,2.791 5.311 C 2.770 5.232,2.712 5.113,2.644 5.006 C 2.491 4.764,2.460 4.675,2.460 4.472 C 2.460 4.277,2.478 4.236,2.718 3.870 C 2.896 3.599,3.001 3.385,3.072 3.150 C 3.146 2.903,3.151 2.553,3.083 2.300 C 2.969 1.872,2.648 1.398,2.376 1.259 C 2.294 1.216,2.063 1.193,1.970 1.217 M9.862 1.360 C 9.341 1.808,1.427 9.729,1.270 9.959 C 1.215 10.039,1.210 10.061,1.211 10.208 C 1.213 10.410,1.251 10.490,1.417 10.644 C 1.501 10.722,1.563 10.761,1.627 10.777 C 1.760 10.811,1.918 10.804,2.012 10.762 C 2.104 10.720,2.635 10.220,3.360 9.492 L 3.830 9.020 7.063 9.020 L 10.297 9.020 10.443 8.945 C 10.611 8.858,10.702 8.754,10.750 8.594 C 10.823 8.354,10.805 7.706,10.722 7.544 C 10.672 7.447,10.575 7.350,10.462 7.284 L 10.371 7.231 8.016 7.223 C 6.720 7.219,5.660 7.210,5.660 7.205 C 5.660 7.199,6.675 6.176,7.915 4.932 C 10.229 2.610,10.726 2.098,10.773 1.986 C 10.809 1.900,10.807 1.791,10.768 1.659 C 10.726 1.517,10.644 1.406,10.518 1.320 C 10.421 1.254,10.406 1.250,10.211 1.243 L 10.006 1.236 9.862 1.360 M1.840 7.240 C 1.714 7.248,1.585 7.264,1.554 7.277 C 1.458 7.316,1.285 7.496,1.246 7.597 C 1.215 7.676,1.210 7.754,1.210 8.120 C 1.211 8.518,1.214 8.557,1.254 8.645 C 1.332 8.815,1.312 8.829,2.166 7.981 L 2.930 7.221 2.500 7.224 C 2.264 7.225,1.967 7.233,1.840 7.240 " fill="#1A1C1F" stroke="none" fill-rule="evenodd"></path></svg>