<svg width="24" height="24" viewBox="0 0 24 24" fill="none" xmlns="http://www.w3.org/2000/svg"><path d="M2.754 2.063 C 2.501 2.141,2.238 2.433,2.140 2.745 C 2.054 3.019,2.089 3.213,2.283 3.540 C 2.856 4.505,2.872 4.818,2.395 5.703 C 2.063 6.320,1.755 6.953,1.655 7.224 C 1.597 7.382,1.580 7.573,1.569 8.205 L 1.554 8.991 1.679 9.365 C 1.959 10.207,2.329 10.775,2.712 10.951 C 3.023 11.093,3.219 11.085,3.549 10.917 C 3.912 10.732,4.053 10.513,4.073 10.103 C 4.088 9.821,4.085 9.813,3.834 9.319 L 3.580 8.820 3.580 8.300 C 3.580 7.706,3.580 7.706,4.014 6.948 C 4.810 5.556,4.949 4.600,4.517 3.480 C 4.251 2.788,3.722 2.140,3.346 2.046 C 3.115 1.988,2.986 1.991,2.754 2.063 M19.904 2.302 C 19.399 2.734,1.912 20.236,1.708 20.514 C 1.479 20.824,1.449 20.964,1.544 21.269 C 1.708 21.790,2.258 22.100,2.768 21.958 C 2.994 21.896,3.197 21.716,4.603 20.329 L 5.906 19.045 13.023 19.029 C 20.742 19.011,20.336 19.023,20.940 18.798 C 21.655 18.531,22.189 17.932,22.379 17.183 C 22.575 16.411,22.558 15.419,22.335 14.714 C 22.086 13.923,21.250 13.206,20.474 13.119 C 20.312 13.101,18.452 13.074,16.340 13.058 C 14.228 13.043,12.392 13.019,12.260 13.004 L 12.020 12.979 12.858 12.119 C 13.319 11.647,14.905 10.045,16.381 8.560 C 19.994 4.927,21.347 3.541,21.422 3.396 C 21.504 3.238,21.503 2.854,21.421 2.656 C 21.272 2.298,20.936 2.077,20.500 2.050 L 20.220 2.032 19.904 2.302 M4.080 13.080 C 3.379 13.110,3.138 13.166,2.782 13.380 C 2.225 13.716,1.851 14.165,1.665 14.722 C 1.405 15.502,1.452 16.892,1.763 17.596 L 1.843 17.776 2.677 16.943 L 3.511 16.110 3.528 15.765 C 3.557 15.188,3.656 15.089,4.245 15.051 L 4.592 15.029 5.586 14.034 L 6.579 13.040 5.640 13.047 C 5.123 13.050,4.421 13.065,4.080 13.080 M20.226 15.120 C 20.426 15.191,20.460 15.329,20.457 16.040 C 20.454 16.730,20.421 16.860,20.221 16.956 C 20.121 17.004,19.202 17.016,14.299 17.032 C 11.107 17.042,8.393 17.038,8.268 17.023 C 8.142 17.007,8.040 16.977,8.040 16.955 C 8.040 16.934,8.459 16.491,8.970 15.973 L 9.900 15.029 15.000 15.052 C 18.620 15.069,20.137 15.088,20.226 15.120 " fill="#1A1C1F" stroke="none" fill-rule="evenodd"></path></svg>