<svg width="32" height="32" viewBox="0 0 32 32" fill="none" xmlns="http://www.w3.org/2000/svg"><path d="M26.737 4.052 C 26.674 4.078,26.063 4.636,25.379 5.290 C 23.563 7.030,12.157 18.405,7.834 22.789 C 3.863 26.814,3.939 26.726,4.021 27.162 C 4.108 27.623,4.644 28.042,5.074 27.984 C 5.192 27.969,5.384 27.889,5.502 27.808 C 5.619 27.726,6.323 27.064,7.066 26.336 L 8.416 25.013 15.768 25.008 C 19.812 25.004,24.248 24.985,25.627 24.964 C 27.912 24.930,28.156 24.917,28.387 24.825 C 28.960 24.596,29.505 24.049,29.821 23.387 C 29.973 23.067,29.973 23.064,29.973 21.994 L 29.973 20.921 29.777 20.527 C 29.522 20.014,29.017 19.506,28.511 19.253 L 28.143 19.069 24.618 19.032 C 22.679 19.012,19.597 18.994,17.768 18.991 L 14.442 18.987 21.058 12.344 C 24.697 8.690,27.747 5.590,27.837 5.454 C 28.025 5.171,28.040 4.974,27.900 4.664 C 27.700 4.225,27.091 3.904,26.737 4.052 M4.065 5.102 C 3.570 5.278,3.278 5.757,3.406 6.184 C 3.441 6.300,3.646 6.658,3.862 6.980 C 4.400 7.781,4.459 7.950,4.390 8.476 C 4.313 9.061,4.163 9.344,3.395 10.363 C 2.687 11.300,2.442 11.722,2.203 12.412 C 2.073 12.787,2.059 12.901,2.058 13.600 C 2.056 14.310,2.068 14.411,2.207 14.827 C 2.618 16.059,3.280 16.916,3.881 16.997 C 4.438 17.072,5.075 16.401,4.941 15.880 C 4.924 15.814,4.755 15.482,4.566 15.143 C 4.125 14.351,4.031 14.036,4.067 13.458 C 4.104 12.863,4.260 12.550,5.034 11.520 C 5.638 10.717,6.083 9.956,6.264 9.417 C 6.502 8.706,6.473 7.732,6.190 7.005 C 5.870 6.182,5.237 5.369,4.729 5.130 C 4.443 4.995,4.376 4.993,4.065 5.102 M5.220 19.042 C 3.905 19.084,3.761 19.104,3.392 19.291 C 3.067 19.456,2.543 19.946,2.362 20.255 C 2.084 20.729,2.027 21.045,2.027 22.105 L 2.027 23.081 2.238 23.503 C 2.473 23.973,3.004 24.587,3.175 24.587 C 3.241 24.587,3.583 24.285,4.073 23.794 L 4.864 23.001 4.582 22.974 C 4.361 22.953,4.273 22.916,4.176 22.804 C 4.067 22.677,4.053 22.606,4.053 22.164 C 4.053 21.892,4.068 21.559,4.086 21.426 C 4.137 21.060,4.189 21.047,5.631 21.024 L 6.863 21.005 7.871 19.996 L 8.879 18.987 7.626 18.995 C 6.937 19.000,5.854 19.021,5.220 19.042 M27.853 21.176 C 27.932 21.273,27.947 21.404,27.947 21.996 C 27.947 22.475,27.925 22.728,27.880 22.789 C 27.843 22.839,27.684 22.903,27.526 22.933 C 27.340 22.968,24.273 22.987,18.833 22.987 L 10.428 22.987 11.414 21.994 L 12.400 21.002 20.080 21.031 L 27.760 21.061 27.853 21.176 " fill="#1A1C1F" stroke="none" fill-rule="evenodd"></path></svg>