<svg width="14" height="14" viewBox="0 0 14 14" fill="none" xmlns="http://www.w3.org/2000/svg"><path d="M2.279 1.424 C 2.152 1.456,1.997 1.574,1.901 1.714 C 1.793 1.871,1.762 2.047,1.810 2.230 C 1.852 2.391,1.868 2.424,2.007 2.613 C 2.171 2.838,2.222 2.954,2.234 3.127 C 2.248 3.332,2.218 3.407,1.962 3.800 C 1.554 4.427,1.458 4.700,1.460 5.227 C 1.462 5.669,1.521 5.901,1.740 6.323 C 2.035 6.893,2.348 7.113,2.726 7.015 C 3.044 6.933,3.277 6.655,3.277 6.358 C 3.277 6.207,3.219 6.057,3.072 5.822 C 2.905 5.556,2.870 5.450,2.870 5.217 C 2.870 4.990,2.891 4.942,3.171 4.515 C 3.657 3.775,3.769 3.204,3.557 2.556 C 3.401 2.081,3.059 1.611,2.769 1.472 C 2.642 1.411,2.419 1.389,2.279 1.424 M11.530 1.563 C 11.024 1.983,1.667 11.347,1.483 11.617 C 1.333 11.836,1.388 12.157,1.616 12.388 C 1.766 12.541,1.850 12.578,2.077 12.594 C 2.225 12.604,2.269 12.598,2.348 12.558 C 2.459 12.501,3.115 11.882,3.908 11.086 L 4.468 10.523 7.630 10.522 C 11.192 10.521,12.051 10.505,12.208 10.435 C 12.320 10.386,12.435 10.266,12.508 10.124 C 12.613 9.918,12.621 9.027,12.519 8.813 C 12.467 8.703,12.345 8.580,12.209 8.500 L 12.098 8.435 9.347 8.423 L 6.596 8.412 9.229 5.763 C 11.959 3.017,12.514 2.444,12.568 2.317 C 12.663 2.094,12.536 1.732,12.304 1.565 C 12.176 1.472,12.082 1.447,11.863 1.447 L 11.669 1.447 11.530 1.563 M2.147 8.446 C 1.837 8.464,1.758 8.492,1.613 8.636 C 1.427 8.821,1.415 8.874,1.413 9.462 C 1.412 9.971,1.412 9.976,1.472 10.091 C 1.506 10.154,1.544 10.210,1.557 10.214 C 1.595 10.227,1.978 9.868,2.718 9.126 L 3.418 8.423 2.917 8.427 C 2.641 8.429,2.294 8.438,2.147 8.446 " fill="#1A1C1F" stroke="none" fill-rule="evenodd"></path></svg>