<svg width="24" height="24" viewBox="0 0 24 24" fill="none" xmlns="http://www.w3.org/2000/svg"><path d="M11.640 5.040 C 11.279 5.079,11.069 5.142,10.714 5.319 C 9.975 5.687,9.442 6.241,9.142 6.955 C 8.930 7.460,8.975 7.838,9.286 8.152 C 9.879 8.751,10.576 8.565,11.015 7.691 C 11.134 7.456,11.339 7.234,11.530 7.135 C 11.700 7.047,12.147 7.016,12.338 7.079 C 12.638 7.178,12.873 7.470,12.958 7.850 C 13.042 8.227,12.903 8.432,12.213 8.948 C 11.682 9.345,11.460 9.581,11.287 9.932 C 11.129 10.253,11.000 10.743,11.000 11.024 C 11.000 11.157,10.978 11.256,10.940 11.294 C 10.875 11.360,9.914 11.745,6.780 12.961 C 3.214 14.345,3.148 14.374,2.725 14.821 C 2.090 15.488,1.893 16.366,2.177 17.263 C 2.399 17.965,2.924 18.527,3.640 18.827 C 3.899 18.935,3.904 18.936,5.200 18.964 C 5.915 18.979,9.521 18.994,13.213 18.996 L 19.927 19.000 20.231 18.878 C 21.207 18.487,21.756 17.826,21.920 16.842 C 22.074 15.920,21.639 14.963,20.826 14.435 C 20.587 14.279,19.264 13.742,16.460 12.661 C 14.350 11.847,13.109 11.355,13.050 11.309 C 12.992 11.264,12.984 11.047,13.036 10.909 C 13.056 10.857,13.271 10.666,13.513 10.486 C 14.295 9.902,14.684 9.413,14.887 8.760 C 14.963 8.514,14.980 8.374,14.978 7.980 C 14.976 7.546,14.964 7.464,14.846 7.122 C 14.631 6.495,14.307 6.032,13.830 5.666 C 13.193 5.178,12.414 4.955,11.640 5.040 M12.640 13.356 C 13.161 13.532,16.110 14.662,18.002 15.411 C 19.335 15.939,19.772 16.138,19.895 16.275 C 20.001 16.392,19.962 16.645,19.809 16.835 L 19.691 16.980 12.000 16.980 L 4.309 16.980 4.191 16.835 C 4.122 16.749,4.065 16.622,4.052 16.524 C 4.031 16.374,4.042 16.347,4.173 16.224 C 4.389 16.020,5.381 15.617,10.200 13.775 C 11.968 13.100,11.909 13.110,12.640 13.356 " fill="#1A1C1F" stroke="none" fill-rule="evenodd"></path></svg>