<svg width="14" height="14" viewBox="0 0 14 14" fill="none" xmlns="http://www.w3.org/2000/svg"><path d="M6.613 2.496 C 6.437 2.521,6.089 2.650,5.920 2.752 C 5.583 2.957,5.233 3.330,5.073 3.654 C 4.850 4.109,4.858 4.407,5.104 4.671 C 5.255 4.833,5.375 4.884,5.611 4.884 C 5.916 4.884,6.079 4.764,6.275 4.395 C 6.480 4.010,6.638 3.894,6.978 3.878 C 7.149 3.869,7.193 3.875,7.277 3.918 C 7.424 3.994,7.543 4.112,7.616 4.257 C 7.674 4.370,7.681 4.406,7.673 4.555 C 7.661 4.795,7.593 4.885,7.204 5.175 C 6.645 5.592,6.448 5.862,6.335 6.361 C 6.296 6.533,6.263 6.627,6.233 6.652 C 6.208 6.672,5.854 6.834,5.445 7.011 C 4.458 7.439,2.660 8.237,2.368 8.377 C 2.081 8.515,1.956 8.611,1.785 8.825 C 1.630 9.020,1.542 9.187,1.466 9.427 C 1.422 9.570,1.412 9.650,1.413 9.870 C 1.415 10.108,1.424 10.163,1.491 10.360 C 1.577 10.615,1.641 10.734,1.802 10.937 C 1.986 11.171,2.337 11.405,2.612 11.480 C 2.830 11.538,3.529 11.549,7.285 11.549 L 11.175 11.550 11.400 11.469 C 11.692 11.365,11.846 11.273,12.057 11.074 C 12.251 10.891,12.403 10.661,12.496 10.407 C 12.552 10.256,12.562 10.187,12.571 9.913 C 12.583 9.548,12.555 9.420,12.388 9.099 C 12.208 8.753,11.959 8.517,11.597 8.347 C 11.410 8.259,9.673 7.497,8.313 6.906 C 7.976 6.759,7.700 6.632,7.700 6.623 C 7.700 6.580,7.843 6.447,8.081 6.269 C 8.710 5.795,8.985 5.404,9.068 4.865 C 9.128 4.468,9.089 4.137,8.936 3.771 C 8.696 3.193,8.158 2.706,7.582 2.544 C 7.384 2.488,6.854 2.462,6.613 2.496 M7.303 8.004 C 7.658 8.135,10.556 9.407,10.941 9.601 C 11.173 9.718,11.222 9.811,11.145 9.995 C 11.081 10.148,11.355 10.138,7.000 10.138 C 2.693 10.138,2.929 10.146,2.857 10.008 C 2.813 9.922,2.814 9.800,2.860 9.735 C 2.880 9.706,2.989 9.636,3.101 9.579 C 3.526 9.366,6.523 8.055,6.811 7.957 C 6.966 7.904,7.053 7.912,7.303 8.004 " fill="#1A1C1F" stroke="none" fill-rule="evenodd"></path></svg>