<svg width="20" height="20" viewBox="0 0 20 20" fill="none" xmlns="http://www.w3.org/2000/svg"><path d="M9.451 3.568 C 8.332 3.744,7.246 4.755,7.030 5.821 C 6.993 6.000,6.996 6.054,7.049 6.249 C 7.098 6.432,7.142 6.508,7.288 6.666 C 7.515 6.911,7.665 6.975,8.017 6.976 C 8.222 6.976,8.315 6.961,8.418 6.908 C 8.610 6.810,8.797 6.593,8.969 6.270 C 9.254 5.732,9.482 5.564,9.958 5.539 C 10.204 5.526,10.251 5.534,10.415 5.614 C 10.781 5.794,10.986 6.146,10.961 6.552 C 10.942 6.847,10.838 6.978,10.313 7.374 C 9.711 7.827,9.443 8.114,9.255 8.505 C 9.111 8.806,9.000 9.192,9.000 9.393 C 9.000 9.489,8.984 9.497,7.558 10.116 C 3.829 11.735,3.056 12.096,2.768 12.355 C 2.553 12.549,2.293 12.944,2.168 13.269 C 1.801 14.220,2.128 15.369,2.940 15.985 C 3.189 16.173,3.610 16.378,3.867 16.436 C 4.007 16.467,5.436 16.480,10.002 16.490 L 15.955 16.503 16.282 16.386 C 16.702 16.236,16.922 16.104,17.224 15.820 C 17.501 15.560,17.717 15.233,17.854 14.867 C 17.942 14.632,17.947 14.585,17.948 14.083 C 17.949 13.569,17.946 13.542,17.853 13.317 C 17.753 13.078,17.608 12.815,17.495 12.667 C 17.362 12.494,17.049 12.195,16.902 12.101 C 16.740 11.997,15.303 11.356,12.642 10.198 C 11.739 9.806,11.000 9.474,11.000 9.461 C 11.000 9.402,11.209 9.203,11.482 9.001 C 12.143 8.513,12.492 8.141,12.718 7.683 C 12.932 7.252,12.978 7.038,12.976 6.500 C 12.973 5.949,12.906 5.664,12.667 5.183 C 12.293 4.434,11.604 3.853,10.827 3.632 C 10.545 3.552,9.781 3.516,9.451 3.568 M10.550 11.483 C 11.147 11.714,15.115 13.456,15.602 13.701 C 15.903 13.852,15.936 13.888,15.958 14.082 C 15.974 14.218,15.965 14.242,15.861 14.346 C 15.758 14.448,15.722 14.462,15.498 14.483 C 15.362 14.496,12.790 14.500,9.783 14.493 C 5.272 14.483,4.301 14.473,4.227 14.436 C 4.105 14.375,4.021 14.191,4.045 14.039 C 4.083 13.810,4.000 13.853,6.500 12.751 C 8.372 11.926,9.734 11.343,9.834 11.325 C 9.987 11.298,10.181 11.340,10.550 11.483 " fill="#1A1C1F" stroke="none" fill-rule="evenodd"></path></svg>