<svg width="28" height="28" viewBox="0 0 28 28" fill="none" xmlns="http://www.w3.org/2000/svg"><path d="M13.390 6.206 C 11.838 6.454,10.546 7.930,10.528 9.477 C 10.524 9.847,10.534 9.892,10.660 10.075 C 10.911 10.438,11.394 10.574,11.773 10.388 C 12.025 10.264,12.118 10.105,12.267 9.535 C 12.493 8.677,12.734 8.326,13.277 8.067 C 13.524 7.949,13.608 7.933,14.000 7.933 C 14.391 7.933,14.476 7.949,14.723 8.067 C 15.048 8.221,15.382 8.556,15.559 8.906 C 15.664 9.112,15.680 9.202,15.680 9.590 C 15.680 9.940,15.660 10.075,15.590 10.210 C 15.465 10.453,15.048 10.841,14.420 11.302 C 14.125 11.518,13.795 11.796,13.687 11.919 C 13.365 12.285,13.187 12.879,13.131 13.770 L 13.100 14.263 12.885 14.338 C 12.767 14.380,11.239 14.908,9.489 15.513 C 5.541 16.877,3.676 17.536,3.211 17.730 C 2.914 17.854,2.800 17.935,2.554 18.196 C 2.228 18.541,2.096 18.775,1.985 19.201 C 1.857 19.695,1.912 20.131,2.168 20.653 C 2.382 21.090,2.767 21.458,3.253 21.690 L 3.617 21.863 13.883 21.863 C 23.766 21.863,24.162 21.860,24.466 21.776 C 25.591 21.466,26.323 20.235,26.012 19.177 C 25.801 18.459,25.390 17.982,24.751 17.714 C 24.290 17.520,22.255 16.804,17.832 15.279 L 14.875 14.258 14.907 13.796 C 14.952 13.143,15.004 13.058,15.670 12.567 C 16.569 11.903,17.004 11.400,17.305 10.676 C 17.410 10.423,17.429 10.301,17.445 9.768 C 17.464 9.097,17.425 8.837,17.236 8.360 C 16.844 7.374,15.922 6.543,14.918 6.271 C 14.615 6.189,13.734 6.151,13.390 6.206 M15.493 16.332 C 17.982 17.158,23.344 19.036,23.835 19.253 C 24.312 19.464,24.412 19.648,24.221 19.962 L 24.128 20.113 14.759 20.113 C 9.606 20.113,5.055 20.099,4.645 20.082 C 3.953 20.053,3.893 20.044,3.794 19.944 C 3.646 19.797,3.652 19.581,3.809 19.436 C 3.876 19.374,4.145 19.239,4.408 19.136 C 5.249 18.807,12.283 16.380,13.417 16.028 C 13.777 15.915,13.979 15.876,14.093 15.895 C 14.183 15.910,14.813 16.107,15.493 16.332 " fill="#1A1C1F" stroke="none" fill-rule="evenodd"></path></svg>