<svg width="16" height="16" viewBox="0 0 16 16" fill="none" xmlns="http://www.w3.org/2000/svg"><path d="M7.573 2.851 C 7.276 2.893,6.854 3.075,6.545 3.295 C 6.315 3.457,6.007 3.796,5.871 4.034 C 5.643 4.434,5.572 4.766,5.652 5.050 C 5.699 5.215,5.927 5.468,6.087 5.534 C 6.254 5.602,6.594 5.598,6.735 5.526 C 6.888 5.448,7.038 5.274,7.175 5.016 C 7.406 4.581,7.585 4.450,7.977 4.432 C 8.189 4.421,8.219 4.426,8.342 4.493 C 8.615 4.642,8.773 4.888,8.773 5.165 C 8.773 5.468,8.695 5.573,8.182 5.954 C 7.571 6.408,7.295 6.815,7.219 7.374 L 7.189 7.596 6.961 7.694 C 4.193 8.891,2.607 9.605,2.389 9.753 C 2.065 9.973,1.771 10.408,1.664 10.827 C 1.604 11.059,1.605 11.505,1.665 11.733 C 1.770 12.133,2.046 12.555,2.353 12.788 C 2.565 12.949,2.901 13.110,3.107 13.150 C 3.224 13.173,4.529 13.184,8.015 13.192 L 12.764 13.203 13.025 13.109 C 13.365 12.988,13.539 12.883,13.785 12.649 C 14.010 12.437,14.169 12.193,14.281 11.891 C 14.343 11.725,14.357 11.639,14.367 11.360 C 14.381 10.955,14.341 10.753,14.182 10.431 C 14.059 10.181,13.745 9.824,13.526 9.684 C 13.393 9.598,12.275 9.099,10.113 8.159 C 9.391 7.845,8.800 7.580,8.800 7.569 C 8.800 7.520,8.970 7.362,9.238 7.161 C 9.772 6.760,10.121 6.345,10.282 5.920 C 10.355 5.727,10.358 5.703,10.359 5.227 C 10.360 4.782,10.354 4.714,10.298 4.535 C 10.051 3.751,9.417 3.119,8.662 2.906 C 8.444 2.845,7.834 2.814,7.573 2.851 M8.507 9.215 C 9.062 9.434,12.085 10.762,12.485 10.963 C 12.597 11.019,12.708 11.092,12.731 11.125 C 12.822 11.255,12.756 11.487,12.610 11.549 C 12.477 11.605,3.525 11.606,3.392 11.550 C 3.241 11.486,3.175 11.259,3.269 11.125 C 3.292 11.092,3.416 11.012,3.544 10.948 C 4.022 10.708,7.459 9.205,7.781 9.094 C 7.981 9.026,8.066 9.040,8.507 9.215 " fill="#1A1C1F" stroke="none" fill-rule="evenodd"></path></svg>