<svg width="12" height="12" viewBox="0 0 12 12" fill="none" xmlns="http://www.w3.org/2000/svg"><path d="M5.671 2.141 C 5.118 2.228,4.558 2.661,4.320 3.187 C 4.199 3.454,4.177 3.658,4.250 3.833 C 4.291 3.931,4.458 4.100,4.556 4.144 C 4.678 4.199,4.945 4.198,5.053 4.143 C 5.166 4.086,5.279 3.954,5.381 3.762 C 5.554 3.436,5.689 3.338,5.983 3.324 C 6.143 3.316,6.164 3.319,6.260 3.372 C 6.477 3.490,6.592 3.692,6.576 3.931 C 6.565 4.108,6.503 4.187,6.188 4.424 C 5.827 4.696,5.666 4.868,5.553 5.103 C 5.466 5.284,5.400 5.515,5.400 5.637 C 5.400 5.691,5.388 5.700,5.225 5.770 C 4.767 5.966,2.647 6.897,2.310 7.050 C 1.778 7.292,1.724 7.328,1.538 7.557 C 1.352 7.786,1.262 7.989,1.218 8.279 C 1.162 8.641,1.300 9.088,1.564 9.404 C 1.736 9.611,2.082 9.813,2.350 9.864 C 2.555 9.902,9.444 9.903,9.648 9.864 C 10.106 9.777,10.549 9.386,10.711 8.924 C 10.755 8.798,10.767 8.724,10.774 8.520 C 10.786 8.217,10.756 8.065,10.636 7.823 C 10.544 7.636,10.309 7.368,10.144 7.263 C 10.044 7.199,9.196 6.819,7.585 6.119 C 7.043 5.883,6.600 5.684,6.600 5.677 C 6.600 5.640,6.723 5.526,6.926 5.373 C 7.197 5.169,7.431 4.939,7.552 4.756 C 7.792 4.396,7.861 3.881,7.731 3.434 C 7.556 2.834,7.073 2.343,6.496 2.179 C 6.327 2.131,5.869 2.110,5.671 2.141 M6.330 6.890 C 6.690 7.030,8.783 7.946,9.252 8.169 C 9.526 8.300,9.580 8.346,9.580 8.449 C 9.580 8.523,9.519 8.628,9.456 8.664 C 9.419 8.685,8.792 8.691,6.130 8.697 C 4.326 8.701,2.783 8.697,2.701 8.690 C 2.567 8.677,2.545 8.669,2.483 8.607 C 2.421 8.545,2.416 8.531,2.425 8.447 C 2.432 8.387,2.452 8.339,2.483 8.308 C 2.546 8.245,3.962 7.609,5.400 6.999 C 5.986 6.750,5.972 6.751,6.330 6.890 " fill="#1A1C1F" stroke="none" fill-rule="evenodd"></path></svg>