<svg width="32" height="32" viewBox="0 0 32 32" fill="none" xmlns="http://www.w3.org/2000/svg"><path d="M15.467 7.070 C 14.466 7.244,13.814 7.578,13.151 8.257 C 12.518 8.904,12.166 9.645,12.044 10.587 C 11.973 11.142,12.042 11.421,12.318 11.684 C 12.674 12.023,13.173 12.080,13.551 11.825 C 13.799 11.658,13.906 11.448,14.029 10.883 C 14.220 10.009,14.590 9.483,15.215 9.198 C 15.497 9.070,15.572 9.059,16.069 9.075 C 16.519 9.090,16.658 9.116,16.869 9.224 C 17.188 9.387,17.599 9.816,17.781 10.176 C 17.902 10.414,17.920 10.516,17.920 10.960 C 17.920 11.360,17.898 11.514,17.818 11.669 C 17.674 11.946,17.198 12.390,16.480 12.917 C 16.143 13.164,15.765 13.481,15.642 13.622 C 15.274 14.040,15.070 14.719,15.007 15.740 L 14.971 16.307 13.926 16.666 C 8.123 18.657,3.807 20.176,3.461 20.351 C 3.150 20.507,2.602 21.100,2.428 21.469 C 1.846 22.700,2.416 24.166,3.718 24.788 L 4.133 24.987 15.867 24.987 C 27.161 24.987,27.614 24.983,27.962 24.887 C 29.165 24.555,29.974 23.317,29.769 22.120 C 29.664 21.511,29.282 20.850,28.855 20.541 C 28.740 20.457,28.338 20.268,27.963 20.120 C 27.337 19.874,23.406 18.499,18.833 16.927 L 17.000 16.297 17.036 15.762 C 17.059 15.421,17.106 15.159,17.166 15.040 C 17.228 14.916,17.473 14.693,17.896 14.376 C 18.948 13.588,19.434 13.027,19.777 12.202 C 19.898 11.912,19.919 11.772,19.937 11.163 C 19.959 10.396,19.915 10.100,19.698 9.554 C 19.250 8.427,18.197 7.478,17.049 7.167 C 16.772 7.091,15.715 7.027,15.467 7.070 M17.060 18.455 C 19.698 19.305,26.942 21.839,27.397 22.072 C 27.712 22.232,27.806 22.362,27.765 22.581 C 27.746 22.682,27.689 22.817,27.638 22.879 L 27.547 22.992 16.051 22.976 C 5.176 22.961,4.548 22.955,4.412 22.866 C 4.111 22.669,4.182 22.259,4.549 22.072 C 4.839 21.924,5.289 21.762,8.933 20.496 C 13.973 18.745,15.669 18.188,15.967 18.187 C 16.135 18.187,16.522 18.282,17.060 18.455 " fill="#1A1C1F" stroke="none" fill-rule="evenodd"></path></svg>