<svg width="14" height="14" viewBox="0 0 14 14" fill="none" xmlns="http://www.w3.org/2000/svg"><path d="M2.464 1.435 C 2.238 1.521,2.085 1.744,2.105 1.958 C 2.119 2.102,2.216 2.271,2.329 2.344 C 2.561 2.497,2.778 2.474,2.976 2.276 C 3.174 2.079,3.200 1.849,3.048 1.650 C 2.897 1.453,2.654 1.363,2.464 1.435 M5.910 1.462 C 5.737 1.546,5.600 1.761,5.600 1.947 C 5.600 2.125,5.811 2.371,6.011 2.428 C 6.299 2.508,6.619 2.267,6.645 1.951 C 6.667 1.674,6.420 1.423,6.126 1.424 C 6.045 1.424,5.953 1.440,5.910 1.462 M4.238 1.609 C 4.124 1.646,3.990 1.754,3.927 1.860 C 3.778 2.115,3.915 2.482,4.196 2.577 C 4.416 2.652,4.610 2.603,4.764 2.432 C 4.936 2.241,4.942 1.985,4.778 1.786 C 4.654 1.636,4.408 1.555,4.238 1.609 M2.105 3.179 C 1.995 3.215,1.828 3.370,1.796 3.468 C 1.781 3.513,1.772 3.623,1.777 3.711 C 1.785 3.847,1.797 3.884,1.858 3.960 C 2.072 4.224,2.444 4.245,2.654 4.004 C 2.853 3.779,2.846 3.522,2.637 3.313 C 2.487 3.163,2.302 3.116,2.105 3.179 M6.373 3.175 C 6.182 3.217,5.979 3.446,5.956 3.646 C 5.933 3.851,6.133 4.114,6.361 4.178 C 6.616 4.249,6.921 4.053,6.989 3.774 C 7.069 3.451,6.708 3.101,6.373 3.175 M4.160 3.562 C 3.987 3.646,3.850 3.861,3.850 4.047 C 3.850 4.225,4.061 4.471,4.261 4.528 C 4.544 4.607,4.865 4.370,4.895 4.062 C 4.914 3.855,4.781 3.642,4.579 3.557 C 4.472 3.513,4.254 3.515,4.160 3.562 M1.810 4.903 C 1.633 4.944,1.441 5.146,1.411 5.323 C 1.385 5.477,1.438 5.618,1.574 5.753 C 1.772 5.951,1.989 5.974,2.221 5.821 C 2.333 5.748,2.431 5.579,2.445 5.436 C 2.467 5.207,2.275 4.947,2.056 4.910 C 2.010 4.902,1.956 4.893,1.937 4.889 C 1.917 4.885,1.860 4.891,1.810 4.903 M6.723 4.925 C 6.532 4.967,6.329 5.196,6.306 5.396 C 6.283 5.601,6.483 5.864,6.711 5.928 C 6.966 5.999,7.271 5.803,7.339 5.524 C 7.419 5.201,7.058 4.851,6.723 4.925 M4.238 5.459 C 4.124 5.496,3.990 5.604,3.927 5.710 C 3.778 5.965,3.915 6.332,4.196 6.427 C 4.416 6.502,4.610 6.453,4.764 6.282 C 4.936 6.091,4.942 5.835,4.778 5.636 C 4.654 5.486,4.408 5.405,4.238 5.459 M7.548 7.023 C 7.186 7.047,6.949 7.122,6.675 7.297 C 6.323 7.522,5.996 7.924,5.892 8.258 C 5.882 8.289,5.860 8.349,5.843 8.391 L 5.811 8.467 5.594 8.408 C 5.476 8.376,5.137 8.278,4.841 8.190 C 3.930 7.918,3.971 7.926,3.501 7.940 C 3.247 7.948,3.046 7.965,2.972 7.987 C 2.778 8.042,2.443 8.199,2.259 8.320 C 2.038 8.466,1.716 8.793,1.604 8.984 C 1.459 9.232,1.419 9.393,1.418 9.730 C 1.418 9.985,1.426 10.045,1.480 10.207 C 1.602 10.568,1.880 10.891,2.213 11.058 C 2.510 11.207,4.795 12.085,5.436 12.296 C 5.863 12.437,6.237 12.521,6.594 12.556 C 6.785 12.575,7.685 12.584,9.473 12.586 L 12.075 12.588 12.185 12.534 C 12.436 12.410,12.585 12.180,12.585 11.912 C 12.586 11.719,12.533 11.581,12.402 11.437 C 12.217 11.232,12.243 11.238,11.375 11.220 C 10.952 11.211,9.933 11.203,9.112 11.201 C 7.356 11.198,6.738 11.177,6.392 11.107 C 5.986 11.025,5.071 10.698,3.570 10.100 C 2.729 9.765,2.731 9.767,2.894 9.601 C 2.951 9.542,3.071 9.458,3.159 9.414 C 3.314 9.336,3.329 9.333,3.585 9.333 L 3.851 9.333 4.766 9.623 C 6.068 10.036,6.581 10.192,6.848 10.256 C 7.157 10.330,8.219 10.447,8.960 10.489 C 9.199 10.502,9.243 10.498,9.362 10.454 C 9.621 10.357,9.790 10.087,9.784 9.777 C 9.781 9.583,9.717 9.435,9.582 9.303 C 9.424 9.149,9.384 9.141,8.178 9.019 C 7.729 8.973,7.330 8.927,7.292 8.917 C 7.149 8.879,7.202 8.643,7.383 8.505 C 7.493 8.421,7.736 8.394,8.377 8.393 C 9.184 8.393,9.672 8.470,10.142 8.672 C 10.401 8.783,10.826 9.067,11.104 9.314 C 11.587 9.743,11.663 9.786,11.925 9.783 C 12.118 9.781,12.232 9.733,12.375 9.595 C 12.535 9.440,12.576 9.341,12.576 9.102 C 12.577 8.829,12.535 8.751,12.219 8.440 C 11.414 7.646,10.326 7.132,9.274 7.049 C 8.884 7.018,7.856 7.002,7.548 7.023 " fill="#1A1C1F" stroke="none" fill-rule="evenodd"></path></svg>