<svg width="32" height="32" viewBox="0 0 32 32" fill="none" xmlns="http://www.w3.org/2000/svg"><path d="M2.530 2.680 C 2.178 2.919,2.067 3.088,2.041 3.424 C 2.004 3.914,2.292 4.322,2.751 4.430 C 2.866 4.457,4.829 4.502,7.113 4.530 L 11.266 4.582 11.619 4.793 C 12.288 5.191,12.774 5.826,12.909 6.480 C 12.939 6.627,12.978 7.365,12.996 8.120 L 13.028 9.493 11.021 9.493 L 9.013 9.493 9.013 9.209 C 9.013 8.822,8.839 8.168,8.633 7.781 C 8.425 7.392,7.953 6.943,7.536 6.738 L 7.227 6.587 4.939 6.571 L 2.652 6.556 2.448 6.697 C 1.792 7.152,1.933 8.128,2.700 8.431 C 2.796 8.470,3.541 8.508,4.693 8.535 C 5.847 8.561,6.596 8.600,6.702 8.639 C 6.912 8.716,6.969 8.861,7.010 9.421 C 7.080 10.384,7.462 10.991,8.201 11.319 C 8.504 11.452,9.501 11.515,11.333 11.514 C 12.937 11.514,13.509 11.466,13.842 11.307 C 14.194 11.137,14.616 10.698,14.821 10.289 L 14.987 9.956 14.987 8.108 L 14.987 6.260 14.834 5.810 C 14.324 4.302,13.402 3.325,11.939 2.741 C 11.603 2.607,11.582 2.606,9.333 2.559 C 8.087 2.533,6.103 2.510,4.926 2.509 L 2.785 2.507 2.530 2.680 M7.598 12.634 C 6.914 12.944,6.807 13.862,7.404 14.286 C 7.807 14.573,8.252 14.550,8.622 14.225 C 8.858 14.018,8.960 13.789,8.960 13.466 C 8.960 13.051,8.690 12.703,8.278 12.589 C 7.998 12.511,7.845 12.521,7.598 12.634 M13.556 12.648 C 12.843 13.001,12.868 14.017,13.599 14.387 C 13.895 14.537,14.088 14.538,14.388 14.393 C 15.205 13.997,15.150 12.879,14.299 12.594 C 14.030 12.504,13.814 12.520,13.556 12.648 M10.787 13.547 C 10.527 13.606,10.240 13.853,10.121 14.122 C 9.905 14.610,10.097 15.125,10.590 15.383 C 11.293 15.750,12.192 15.010,11.946 14.266 C 11.781 13.765,11.259 13.441,10.787 13.547 M6.894 15.846 C 6.627 15.923,6.370 16.215,6.296 16.523 C 6.212 16.871,6.297 17.163,6.561 17.435 C 7.179 18.072,8.213 17.629,8.213 16.727 C 8.213 16.073,7.578 15.649,6.894 15.846 M14.293 15.886 C 14.190 15.940,14.035 16.085,13.949 16.207 C 13.729 16.517,13.721 16.948,13.930 17.264 C 14.083 17.496,14.529 17.760,14.767 17.760 C 14.989 17.760,15.361 17.544,15.522 17.322 C 15.811 16.923,15.783 16.439,15.452 16.119 C 15.115 15.793,14.645 15.698,14.293 15.886 M10.706 16.579 C 10.497 16.628,10.218 16.866,10.115 17.084 C 9.918 17.498,10.083 18.031,10.498 18.319 C 11.200 18.807,12.132 18.130,11.939 17.272 C 11.842 16.842,11.582 16.627,11.093 16.572 C 10.961 16.557,10.787 16.560,10.706 16.579 M18.086 18.666 C 17.482 18.829,17.052 19.096,16.506 19.648 C 15.995 20.164,15.780 20.507,15.576 21.133 C 15.511 21.331,15.428 21.493,15.391 21.493 C 15.353 21.493,14.682 21.253,13.899 20.959 C 11.818 20.179,11.848 20.186,10.667 20.192 C 9.573 20.198,9.296 20.246,8.590 20.552 C 7.662 20.954,6.950 21.539,6.676 22.122 C 6.545 22.401,6.533 22.482,6.533 23.093 C 6.533 23.720,6.543 23.779,6.687 24.072 C 6.898 24.503,7.357 24.956,7.787 25.157 C 8.203 25.353,9.263 25.751,12.461 26.910 C 15.444 27.992,16.172 28.235,16.745 28.344 C 17.315 28.451,18.948 28.519,21.973 28.560 L 24.347 28.592 26.507 29.023 C 27.695 29.259,28.812 29.456,28.990 29.460 C 29.259 29.466,29.351 29.442,29.530 29.324 C 30.095 28.950,30.111 28.069,29.559 27.711 C 29.350 27.576,28.660 27.416,25.862 26.853 L 24.443 26.568 22.048 26.534 C 18.661 26.486,17.299 26.425,16.773 26.297 C 15.774 26.053,8.827 23.484,8.573 23.264 C 8.437 23.147,8.458 23.017,8.643 22.832 C 8.969 22.506,9.737 22.222,10.474 22.155 C 11.244 22.086,11.561 22.182,14.747 23.455 C 17.378 24.507,17.099 24.431,18.560 24.491 C 19.249 24.519,20.349 24.530,21.005 24.514 C 22.077 24.488,22.219 24.474,22.431 24.371 C 22.839 24.174,23.035 23.733,22.928 23.253 C 22.875 23.020,22.649 22.721,22.436 22.605 C 22.381 22.575,21.388 22.533,20.109 22.508 C 18.725 22.480,17.839 22.442,17.773 22.407 C 17.607 22.318,17.477 21.992,17.510 21.748 C 17.550 21.447,17.868 20.998,18.199 20.775 L 18.479 20.587 20.853 20.588 C 22.158 20.588,23.393 20.613,23.597 20.642 C 23.801 20.672,24.221 20.781,24.530 20.884 C 25.417 21.181,26.014 21.531,27.520 22.641 C 28.538 23.391,28.702 23.484,28.993 23.480 C 29.467 23.473,29.906 23.071,29.959 22.594 C 30.011 22.134,29.784 21.831,28.858 21.126 C 27.094 19.782,25.638 19.024,24.224 18.715 C 23.745 18.610,23.512 18.600,21.093 18.581 C 18.615 18.561,18.460 18.565,18.086 18.666 " fill="#1A1C1F" stroke="none" fill-rule="evenodd"></path></svg>