<svg width="24" height="24" viewBox="0 0 24 24" fill="none" xmlns="http://www.w3.org/2000/svg"><path d="M2.800 2.075 C 2.249 2.140,1.911 2.739,2.089 3.335 C 2.156 3.559,2.453 3.860,2.662 3.916 C 2.767 3.944,4.130 3.973,6.522 3.999 C 8.556 4.021,10.278 4.056,10.350 4.077 C 10.662 4.167,10.904 4.474,10.947 4.834 L 10.971 5.035 8.835 5.048 L 6.700 5.060 6.511 5.171 C 6.175 5.369,5.975 5.737,6.015 6.088 C 6.053 6.430,6.294 6.782,6.587 6.924 L 6.773 7.013 9.849 7.032 C 11.615 7.043,12.940 7.036,12.960 7.016 C 12.980 6.995,12.981 6.427,12.962 5.680 C 12.924 4.239,12.914 4.174,12.637 3.640 C 12.330 3.048,11.904 2.634,11.277 2.319 C 11.110 2.235,10.876 2.145,10.757 2.118 C 10.520 2.065,3.216 2.026,2.800 2.075 M6.112 8.318 C 5.829 8.408,5.599 8.716,5.601 9.003 C 5.603 9.320,5.854 9.638,6.170 9.723 C 6.623 9.845,7.123 9.408,7.070 8.937 C 7.046 8.725,6.885 8.465,6.726 8.383 C 6.581 8.308,6.252 8.273,6.112 8.318 M11.913 8.440 C 11.700 8.615,11.583 8.879,11.615 9.111 C 11.698 9.714,12.431 9.966,12.859 9.539 C 13.328 9.069,12.985 8.323,12.299 8.321 C 12.090 8.320,12.039 8.336,11.913 8.440 M9.007 8.886 C 8.472 9.150,8.491 9.913,9.039 10.190 C 9.261 10.302,9.406 10.304,9.631 10.195 C 9.984 10.024,10.156 9.612,10.022 9.259 C 9.870 8.862,9.403 8.690,9.007 8.886 M5.515 10.838 C 5.049 11.092,4.961 11.626,5.323 11.999 C 5.583 12.267,5.907 12.302,6.224 12.096 C 6.565 11.875,6.672 11.516,6.496 11.180 C 6.314 10.831,5.834 10.664,5.515 10.838 M12.629 10.840 C 12.344 10.892,12.111 11.200,12.111 11.523 C 12.111 11.997,12.579 12.367,13.026 12.245 C 13.244 12.185,13.505 11.923,13.564 11.706 C 13.650 11.385,13.400 10.922,13.109 10.863 C 12.895 10.820,12.770 10.814,12.629 10.840 M9.055 11.597 C 8.789 11.712,8.563 12.130,8.615 12.408 C 8.677 12.734,9.001 13.005,9.335 13.010 C 9.729 13.016,10.059 12.681,10.059 12.276 C 10.059 12.015,9.921 11.764,9.721 11.661 C 9.576 11.585,9.171 11.547,9.055 11.597 M13.894 13.721 C 13.296 13.748,13.285 13.751,12.975 13.904 C 12.274 14.250,11.725 14.826,11.456 15.499 C 11.398 15.643,11.337 15.770,11.319 15.781 C 11.301 15.792,10.921 15.672,10.473 15.516 C 9.014 15.004,8.964 14.991,8.373 14.970 C 7.742 14.947,7.413 14.997,6.996 15.177 C 6.174 15.533,5.546 16.177,5.296 16.920 C 5.185 17.249,5.193 17.857,5.313 18.208 C 5.521 18.813,5.905 19.236,6.548 19.569 C 7.748 20.189,10.196 21.279,10.971 21.537 C 11.912 21.851,12.356 21.925,13.500 21.962 C 14.886 22.006,21.025 22.006,21.216 21.962 C 21.435 21.911,21.679 21.723,21.820 21.498 C 21.926 21.328,21.940 21.271,21.939 21.003 C 21.938 20.793,21.916 20.660,21.868 20.571 C 21.749 20.350,21.560 20.164,21.407 20.118 C 21.218 20.061,19.230 20.006,17.140 20.000 C 16.238 19.997,14.843 19.980,14.040 19.961 C 12.584 19.927,12.579 19.927,12.140 19.806 C 11.383 19.596,10.849 19.381,9.200 18.621 C 7.431 17.805,7.200 17.678,7.200 17.517 C 7.200 17.446,7.495 17.155,7.670 17.052 C 7.841 16.952,7.861 16.949,8.293 16.975 L 8.738 17.003 10.307 17.580 C 12.193 18.275,12.770 18.470,13.140 18.540 C 13.588 18.625,14.549 18.688,15.479 18.694 L 16.341 18.700 16.520 18.569 C 17.063 18.171,17.133 17.529,16.682 17.078 C 16.419 16.816,16.262 16.779,15.080 16.700 C 13.852 16.619,13.446 16.575,13.376 16.516 C 13.345 16.491,13.320 16.404,13.320 16.323 C 13.320 16.150,13.447 15.958,13.664 15.804 L 13.811 15.700 15.155 15.707 C 15.895 15.711,16.656 15.732,16.846 15.755 C 17.663 15.851,18.464 16.251,19.523 17.093 C 20.479 17.852,20.619 17.948,20.815 17.977 C 21.398 18.065,21.961 17.585,21.959 17.002 C 21.957 16.586,21.791 16.378,20.800 15.553 C 20.109 14.977,19.756 14.739,19.148 14.438 C 18.215 13.977,17.510 13.783,16.526 13.720 C 15.875 13.677,14.817 13.678,13.894 13.721 " fill="#1A1C1F" stroke="none" fill-rule="evenodd"></path></svg>