<svg width="16" height="16" viewBox="0 0 16 16" fill="none" xmlns="http://www.w3.org/2000/svg"><path d="M2.833 1.638 C 2.585 1.718,2.401 1.959,2.400 2.202 C 2.400 2.369,2.521 2.583,2.673 2.684 C 2.928 2.855,3.176 2.827,3.401 2.601 C 3.605 2.396,3.645 2.217,3.537 1.986 C 3.404 1.701,3.101 1.551,2.833 1.638 M6.752 1.671 C 6.574 1.759,6.401 2.018,6.400 2.197 C 6.399 2.418,6.633 2.708,6.864 2.773 C 7.199 2.866,7.565 2.594,7.594 2.229 C 7.619 1.913,7.337 1.626,7.001 1.627 C 6.907 1.628,6.803 1.646,6.752 1.671 M4.840 1.831 C 4.739 1.858,4.515 2.049,4.468 2.147 C 4.407 2.276,4.407 2.524,4.467 2.651 C 4.561 2.848,4.795 2.987,5.030 2.986 C 5.316 2.984,5.599 2.694,5.600 2.403 C 5.600 2.207,5.459 1.985,5.274 1.890 C 5.166 1.835,4.939 1.804,4.840 1.831 M2.406 3.636 C 2.291 3.678,2.141 3.799,2.078 3.903 C 2.020 3.998,2.007 4.291,2.055 4.418 C 2.153 4.675,2.542 4.839,2.811 4.735 C 2.942 4.686,3.105 4.523,3.163 4.385 C 3.245 4.188,3.188 3.960,3.014 3.786 C 2.842 3.613,2.619 3.558,2.406 3.636 M7.160 3.669 C 6.969 3.768,6.801 4.022,6.800 4.212 C 6.800 4.428,7.034 4.708,7.270 4.774 C 7.599 4.866,7.965 4.591,7.994 4.229 C 8.019 3.913,7.737 3.626,7.401 3.627 C 7.308 3.627,7.206 3.644,7.160 3.669 M4.868 4.030 C 4.666 4.077,4.447 4.308,4.413 4.510 C 4.383 4.686,4.444 4.847,4.599 5.001 C 4.825 5.228,5.073 5.254,5.339 5.079 C 5.466 4.995,5.578 4.802,5.594 4.640 C 5.619 4.377,5.400 4.080,5.150 4.038 C 5.097 4.029,5.035 4.018,5.013 4.014 C 4.991 4.010,4.926 4.017,4.868 4.030 M2.057 5.605 C 1.973 5.624,1.903 5.669,1.800 5.769 C 1.657 5.908,1.600 6.030,1.600 6.198 C 1.600 6.402,1.841 6.683,2.070 6.748 C 2.387 6.836,2.754 6.572,2.793 6.228 C 2.837 5.842,2.453 5.517,2.057 5.605 M7.560 5.669 C 7.369 5.768,7.201 6.022,7.200 6.212 C 7.200 6.428,7.434 6.708,7.670 6.774 C 7.999 6.866,8.365 6.591,8.394 6.229 C 8.419 5.913,8.137 5.626,7.801 5.627 C 7.708 5.627,7.606 5.644,7.560 5.669 M4.840 6.231 C 4.739 6.258,4.515 6.449,4.468 6.547 C 4.407 6.676,4.407 6.924,4.467 7.051 C 4.561 7.248,4.795 7.387,5.030 7.386 C 5.316 7.384,5.599 7.094,5.600 6.803 C 5.600 6.607,5.459 6.385,5.274 6.290 C 5.166 6.235,4.939 6.204,4.840 6.231 M8.627 8.026 C 8.213 8.054,7.942 8.139,7.628 8.340 C 7.227 8.596,6.852 9.056,6.734 9.438 C 6.723 9.473,6.697 9.541,6.677 9.589 L 6.641 9.676 6.394 9.609 C 6.258 9.573,5.871 9.460,5.533 9.360 C 4.491 9.049,4.538 9.058,4.001 9.074 C 3.478 9.090,3.341 9.118,2.996 9.279 C 2.564 9.481,2.260 9.714,1.994 10.050 C 1.709 10.408,1.617 10.669,1.617 11.120 C 1.616 11.579,1.740 11.923,2.016 12.234 C 2.310 12.564,2.450 12.636,3.823 13.164 C 6.022 14.010,6.452 14.157,7.147 14.296 C 7.535 14.373,8.865 14.404,11.507 14.395 L 13.800 14.387 13.926 14.324 C 14.425 14.076,14.543 13.448,14.165 13.058 C 13.949 12.835,13.986 12.843,13.000 12.823 C 12.516 12.813,11.358 12.803,10.427 12.802 C 7.770 12.798,7.446 12.773,6.653 12.515 C 5.933 12.280,3.341 11.266,3.248 11.182 C 3.222 11.158,3.200 11.124,3.200 11.106 C 3.200 11.046,3.466 10.825,3.633 10.745 C 3.787 10.673,3.823 10.667,4.098 10.667 L 4.396 10.667 5.498 11.015 C 7.963 11.794,7.900 11.779,9.227 11.905 C 10.336 12.010,10.473 12.016,10.651 11.959 C 10.850 11.897,11.039 11.729,11.121 11.541 C 11.286 11.165,11.127 10.687,10.777 10.508 C 10.650 10.444,10.467 10.418,9.347 10.306 C 8.834 10.255,8.375 10.200,8.327 10.185 C 8.249 10.159,8.240 10.145,8.240 10.053 C 8.240 9.924,8.368 9.748,8.520 9.669 C 8.620 9.617,8.677 9.613,9.426 9.605 C 9.922 9.599,10.326 9.608,10.492 9.627 C 10.845 9.668,11.295 9.783,11.584 9.908 C 11.901 10.044,12.374 10.363,12.747 10.693 C 13.264 11.150,13.421 11.226,13.743 11.174 C 13.932 11.143,14.012 11.099,14.165 10.942 C 14.333 10.770,14.373 10.664,14.373 10.396 C 14.373 10.091,14.323 9.999,13.965 9.646 C 13.038 8.733,11.798 8.150,10.575 8.054 C 10.147 8.020,8.968 8.003,8.627 8.026 " fill="#1A1C1F" stroke="none" fill-rule="evenodd"></path></svg>