<svg width="28" height="28" viewBox="0 0 28 28" fill="none" xmlns="http://www.w3.org/2000/svg"><path d="M2.214 2.345 C 1.921 2.544,1.815 2.695,1.785 2.959 C 1.738 3.380,1.987 3.768,2.373 3.871 C 2.477 3.899,4.041 3.937,6.203 3.964 L 9.859 4.010 10.172 4.196 C 10.730 4.527,11.176 5.117,11.297 5.682 C 11.323 5.804,11.357 6.444,11.372 7.105 L 11.399 8.307 9.643 8.307 L 7.887 8.307 7.886 8.085 C 7.885 7.731,7.761 7.237,7.584 6.877 C 7.389 6.480,7.001 6.096,6.594 5.896 L 6.323 5.763 4.322 5.750 L 2.321 5.736 2.142 5.860 C 1.568 6.258,1.691 7.111,2.362 7.378 C 2.447 7.412,3.088 7.444,4.107 7.466 C 5.406 7.493,5.750 7.514,5.889 7.573 C 6.078 7.653,6.084 7.671,6.137 8.283 C 6.207 9.106,6.538 9.621,7.175 9.903 C 7.442 10.021,8.304 10.076,9.893 10.075 C 11.321 10.075,11.820 10.034,12.112 9.893 C 12.420 9.745,12.789 9.361,12.968 9.003 L 13.113 8.712 13.113 7.095 L 13.113 5.478 12.980 5.084 C 12.533 3.764,11.727 2.909,10.447 2.399 C 10.152 2.281,10.135 2.280,8.167 2.239 C 7.076 2.216,5.340 2.196,4.310 2.195 L 2.437 2.193 2.214 2.345 M6.648 11.054 C 6.412 11.161,6.224 11.381,6.158 11.626 C 5.973 12.313,6.753 12.899,7.404 12.562 C 7.918 12.297,8.018 11.606,7.599 11.214 C 7.338 10.970,6.970 10.908,6.648 11.054 M11.861 11.067 C 11.409 11.291,11.263 11.867,11.552 12.283 C 11.707 12.506,12.026 12.693,12.250 12.693 C 12.470 12.693,12.793 12.506,12.941 12.293 C 13.277 11.808,13.075 11.208,12.511 11.020 C 12.276 10.941,12.087 10.955,11.861 11.067 M9.439 11.854 C 9.211 11.905,8.960 12.122,8.856 12.357 C 8.667 12.784,8.835 13.234,9.266 13.460 C 9.883 13.782,10.669 13.137,10.454 12.484 C 10.308 12.044,9.852 11.761,9.439 11.854 M6.032 13.865 C 5.808 13.930,5.576 14.186,5.513 14.438 C 5.315 15.222,6.216 15.822,6.868 15.340 C 7.147 15.134,7.276 14.589,7.118 14.283 C 6.929 13.917,6.467 13.740,6.032 13.865 M12.623 13.844 C 12.451 13.891,12.237 14.089,12.138 14.293 C 11.957 14.668,12.030 14.971,12.379 15.292 C 12.625 15.518,12.846 15.579,13.121 15.497 C 13.350 15.428,13.644 15.141,13.719 14.912 C 13.834 14.563,13.671 14.123,13.360 13.941 C 13.208 13.852,12.794 13.798,12.623 13.844 M9.240 14.553 C 8.537 14.931,8.667 15.915,9.452 16.147 C 9.915 16.283,10.373 15.947,10.477 15.394 C 10.512 15.205,10.416 14.930,10.253 14.753 C 10.007 14.485,9.539 14.393,9.240 14.553 M15.825 16.333 C 15.355 16.460,14.941 16.702,14.531 17.092 C 14.102 17.499,13.864 17.852,13.669 18.368 C 13.586 18.589,13.494 18.778,13.465 18.789 C 13.436 18.800,12.878 18.608,12.225 18.361 C 10.346 17.653,10.403 17.667,9.357 17.670 C 8.374 17.673,8.141 17.712,7.517 17.983 C 6.704 18.335,6.081 18.846,5.842 19.356 C 5.727 19.601,5.717 19.671,5.717 20.207 C 5.717 20.747,5.726 20.809,5.843 21.047 C 6.023 21.411,6.341 21.753,6.658 21.921 C 7.064 22.138,7.546 22.324,10.080 23.248 C 13.697 24.566,14.345 24.775,15.104 24.869 C 15.313 24.895,16.794 24.939,18.394 24.968 L 21.303 25.019 23.193 25.396 C 24.233 25.603,25.211 25.775,25.366 25.778 C 25.601 25.782,25.682 25.762,25.839 25.658 C 26.333 25.332,26.347 24.560,25.864 24.247 C 25.687 24.132,24.606 23.885,22.307 23.432 L 21.350 23.244 18.433 23.194 C 15.537 23.144,15.088 23.120,14.571 22.986 C 13.698 22.760,7.701 20.529,7.502 20.356 C 7.305 20.186,7.512 19.927,8.055 19.666 C 8.761 19.327,9.555 19.290,10.395 19.560 C 10.645 19.640,11.627 20.015,12.577 20.394 C 15.262 21.465,14.951 21.377,16.240 21.430 C 16.843 21.455,17.806 21.463,18.379 21.450 C 19.317 21.427,19.442 21.415,19.627 21.325 C 19.871 21.207,20.000 21.041,20.062 20.763 C 20.137 20.431,20.053 20.156,19.808 19.930 C 19.695 19.825,19.554 19.739,19.496 19.738 C 16.349 19.679,15.624 19.651,15.519 19.582 C 15.138 19.333,15.365 18.534,15.922 18.166 L 16.117 18.037 18.407 18.037 C 20.649 18.037,20.704 18.039,21.062 18.143 C 22.002 18.415,22.638 18.754,23.753 19.575 C 25.149 20.604,25.264 20.659,25.649 20.489 C 25.936 20.362,26.033 20.274,26.139 20.043 C 26.309 19.672,26.208 19.298,25.849 18.969 C 24.916 18.114,23.087 16.980,22.059 16.619 C 21.133 16.293,20.986 16.278,18.457 16.258 C 16.288 16.241,16.152 16.245,15.825 16.333 " fill="#1A1C1F" stroke="none" fill-rule="evenodd"></path></svg>