<svg width="12" height="12" viewBox="0 0 12 12" fill="none" xmlns="http://www.w3.org/2000/svg"><path d="M2.115 1.227 C 1.917 1.301,1.784 1.496,1.806 1.681 C 1.813 1.734,1.832 1.804,1.848 1.837 C 1.920 1.974,2.101 2.099,2.232 2.100 C 2.426 2.101,2.628 1.938,2.682 1.737 C 2.762 1.441,2.405 1.120,2.115 1.227 M5.132 1.224 C 5.024 1.254,4.851 1.425,4.822 1.530 C 4.790 1.647,4.795 1.717,4.842 1.813 C 4.892 1.917,5.036 2.049,5.134 2.081 C 5.368 2.159,5.665 1.953,5.695 1.693 C 5.727 1.407,5.414 1.146,5.132 1.224 M3.630 1.374 C 3.553 1.395,3.416 1.510,3.366 1.596 C 3.309 1.692,3.299 1.825,3.340 1.953 C 3.392 2.116,3.578 2.241,3.769 2.240 C 3.987 2.238,4.199 2.023,4.200 1.802 C 4.200 1.655,4.094 1.488,3.956 1.418 C 3.874 1.376,3.703 1.353,3.630 1.374 M1.769 2.748 C 1.577 2.837,1.482 3.017,1.520 3.218 C 1.543 3.339,1.579 3.399,1.671 3.470 C 1.879 3.628,2.117 3.613,2.275 3.432 C 2.445 3.239,2.440 3.019,2.261 2.839 C 2.116 2.695,1.949 2.664,1.769 2.748 M5.431 2.725 C 5.315 2.756,5.156 2.922,5.121 3.048 C 5.071 3.224,5.150 3.396,5.339 3.530 C 5.411 3.581,5.442 3.590,5.548 3.590 C 5.652 3.590,5.689 3.580,5.771 3.529 C 5.888 3.457,5.981 3.318,5.995 3.193 C 6.027 2.907,5.715 2.648,5.431 2.725 M3.632 3.025 C 3.524 3.053,3.351 3.224,3.322 3.330 C 3.290 3.447,3.295 3.517,3.341 3.612 C 3.418 3.771,3.601 3.900,3.750 3.900 C 3.971 3.900,4.200 3.671,4.200 3.450 C 4.200 3.266,4.044 3.076,3.850 3.022 C 3.757 2.997,3.737 2.997,3.632 3.025 M1.532 4.205 C 1.424 4.233,1.251 4.404,1.222 4.510 C 1.190 4.627,1.195 4.697,1.241 4.792 C 1.318 4.951,1.501 5.080,1.650 5.080 C 1.871 5.080,2.100 4.851,2.100 4.630 C 2.100 4.446,1.944 4.256,1.750 4.202 C 1.657 4.177,1.637 4.177,1.532 4.205 M5.731 4.225 C 5.615 4.256,5.456 4.422,5.421 4.548 C 5.371 4.724,5.450 4.896,5.639 5.030 C 5.711 5.081,5.742 5.090,5.848 5.090 C 5.952 5.090,5.989 5.080,6.071 5.029 C 6.188 4.957,6.281 4.818,6.295 4.693 C 6.327 4.407,6.015 4.148,5.731 4.225 M3.630 4.674 C 3.553 4.695,3.416 4.810,3.366 4.896 C 3.309 4.992,3.299 5.125,3.340 5.253 C 3.392 5.416,3.578 5.541,3.769 5.540 C 3.987 5.538,4.199 5.323,4.200 5.102 C 4.200 4.955,4.094 4.788,3.956 4.718 C 3.874 4.676,3.703 4.653,3.630 4.674 M6.470 6.020 C 6.231 6.036,6.134 6.057,5.951 6.134 C 5.537 6.307,5.229 6.634,5.047 7.089 C 4.991 7.231,4.978 7.249,4.937 7.243 C 4.875 7.234,4.442 7.109,3.910 6.948 L 3.470 6.815 3.158 6.805 C 2.711 6.792,2.545 6.822,2.203 6.982 C 1.981 7.085,1.806 7.212,1.596 7.424 C 1.323 7.699,1.213 7.968,1.212 8.360 C 1.211 8.699,1.304 8.946,1.528 9.193 C 1.753 9.441,1.847 9.486,3.320 10.046 C 4.599 10.533,4.878 10.625,5.360 10.722 C 5.648 10.780,6.689 10.803,8.660 10.796 L 10.350 10.790 10.448 10.741 C 10.808 10.563,10.905 10.108,10.645 9.819 C 10.509 9.668,10.449 9.644,10.158 9.630 C 10.022 9.624,9.014 9.610,7.920 9.599 C 6.825 9.589,5.840 9.571,5.730 9.559 C 5.364 9.521,5.006 9.409,3.890 8.980 C 2.573 8.475,2.400 8.400,2.400 8.331 C 2.400 8.285,2.597 8.119,2.725 8.059 C 2.840 8.005,2.868 8.000,3.073 8.000 L 3.296 8.000 4.123 8.261 C 5.445 8.679,5.857 8.800,6.060 8.830 C 6.558 8.905,7.780 9.010,7.919 8.990 C 8.153 8.956,8.352 8.740,8.390 8.477 C 8.423 8.256,8.301 8.004,8.110 7.898 C 7.992 7.833,7.953 7.827,7.010 7.731 C 6.625 7.691,6.283 7.652,6.250 7.643 C 6.128 7.611,6.173 7.408,6.328 7.290 C 6.422 7.218,6.614 7.197,7.170 7.196 C 7.873 7.194,8.287 7.259,8.694 7.433 C 8.926 7.533,9.282 7.774,9.560 8.020 C 9.846 8.273,9.963 8.352,10.090 8.380 C 10.336 8.435,10.624 8.289,10.740 8.051 C 10.770 7.987,10.780 7.927,10.780 7.800 C 10.780 7.570,10.742 7.499,10.486 7.247 C 9.842 6.613,9.077 6.219,8.202 6.070 C 8.091 6.051,7.790 6.030,7.472 6.019 C 6.875 5.999,6.792 6.000,6.470 6.020 " fill="#1A1C1F" stroke="none" fill-rule="evenodd"></path></svg>