<svg width="20" height="20" viewBox="0 0 20 20" fill="none" xmlns="http://www.w3.org/2000/svg"><path d="M3.525 2.046 C 3.192 2.169,2.974 2.493,3.011 2.807 C 3.050 3.135,3.272 3.383,3.605 3.471 C 3.955 3.564,4.364 3.292,4.470 2.896 C 4.603 2.401,4.008 1.867,3.525 2.046 M8.572 2.043 C 8.463 2.065,8.382 2.115,8.250 2.244 C 7.886 2.598,7.928 3.027,8.359 3.355 C 8.710 3.623,9.228 3.470,9.425 3.042 C 9.673 2.499,9.180 1.921,8.572 2.043 M6.050 2.291 C 5.927 2.322,5.694 2.515,5.617 2.650 C 5.511 2.837,5.495 2.966,5.551 3.190 C 5.634 3.516,5.932 3.733,6.297 3.733 C 6.642 3.733,7.000 3.357,7.000 2.994 C 7.000 2.547,6.501 2.178,6.050 2.291 M2.943 4.570 C 2.688 4.696,2.501 4.971,2.500 5.221 C 2.500 5.331,2.593 5.568,2.683 5.686 C 2.795 5.833,3.074 5.967,3.267 5.967 C 3.731 5.967,4.091 5.496,3.967 5.052 C 3.848 4.626,3.326 4.380,2.943 4.570 M8.950 4.586 C 8.678 4.726,8.479 5.061,8.509 5.327 C 8.539 5.593,8.860 5.937,9.125 5.987 C 9.415 6.041,9.763 5.856,9.908 5.569 C 10.028 5.332,10.028 5.161,9.907 4.929 C 9.776 4.678,9.537 4.533,9.251 4.534 C 9.135 4.534,9.008 4.556,8.950 4.586 M5.942 5.088 C 5.883 5.117,5.775 5.205,5.703 5.284 C 5.392 5.621,5.454 6.046,5.859 6.355 C 6.204 6.618,6.705 6.479,6.913 6.061 C 7.021 5.844,7.024 5.669,6.921 5.447 C 6.792 5.172,6.562 5.033,6.238 5.034 C 6.134 5.035,6.002 5.059,5.942 5.088 M2.570 7.007 C 2.461 7.031,2.378 7.084,2.248 7.214 C 2.072 7.391,2.001 7.544,2.000 7.748 C 2.000 8.002,2.301 8.354,2.588 8.435 C 2.984 8.545,3.443 8.216,3.492 7.785 C 3.546 7.302,3.066 6.896,2.570 7.007 M9.450 7.086 C 9.178 7.226,8.979 7.561,9.009 7.827 C 9.039 8.093,9.360 8.437,9.625 8.487 C 9.915 8.541,10.263 8.356,10.408 8.069 C 10.528 7.832,10.528 7.661,10.407 7.429 C 10.276 7.178,10.037 7.033,9.751 7.034 C 9.635 7.034,9.508 7.056,9.450 7.086 M6.050 7.791 C 5.927 7.822,5.694 8.015,5.617 8.150 C 5.511 8.337,5.495 8.466,5.551 8.690 C 5.634 9.016,5.932 9.233,6.297 9.233 C 6.642 9.233,7.000 8.857,7.000 8.494 C 7.000 8.047,6.501 7.678,6.050 7.791 M10.783 10.033 C 10.266 10.068,9.927 10.174,9.535 10.425 C 9.033 10.745,8.565 11.320,8.417 11.797 C 8.403 11.841,8.372 11.927,8.347 11.987 L 8.301 12.096 7.992 12.012 C 7.822 11.966,7.338 11.825,6.917 11.700 C 5.681 11.332,5.687 11.333,5.126 11.333 C 4.547 11.333,4.260 11.383,3.852 11.554 C 3.334 11.771,2.896 12.088,2.529 12.511 C 2.305 12.770,2.235 12.894,2.119 13.241 C 1.863 14.002,2.057 14.822,2.629 15.401 C 2.950 15.726,3.098 15.801,4.467 16.333 C 7.678 17.582,8.512 17.850,9.462 17.940 C 9.717 17.965,11.120 17.978,13.550 17.980 L 17.250 17.983 17.415 17.901 C 18.032 17.596,18.177 16.808,17.707 16.323 C 17.435 16.043,17.481 16.053,16.267 16.028 C 15.671 16.017,14.231 16.005,13.067 16.003 C 9.726 15.997,9.303 15.965,8.317 15.644 C 7.417 15.351,4.176 14.082,4.060 13.978 C 4.027 13.948,4.000 13.905,4.000 13.883 C 4.000 13.808,4.333 13.531,4.542 13.432 C 4.734 13.341,4.779 13.333,5.121 13.333 L 5.492 13.333 6.854 13.764 C 8.564 14.304,9.485 14.582,9.840 14.666 C 10.305 14.775,12.224 14.972,12.900 14.979 C 13.367 14.984,13.444 14.960,13.678 14.738 C 13.842 14.582,13.919 14.431,13.966 14.171 C 14.040 13.760,13.860 13.355,13.517 13.164 C 13.320 13.054,13.255 13.044,11.683 12.884 C 11.042 12.819,10.472 12.754,10.417 12.739 C 10.329 12.716,10.315 12.696,10.307 12.578 C 10.298 12.468,10.317 12.417,10.407 12.299 C 10.587 12.065,10.666 12.040,11.372 12.000 C 12.366 11.943,13.346 12.023,14.007 12.215 C 14.621 12.393,15.253 12.767,15.900 13.336 C 16.440 13.811,16.558 13.896,16.758 13.954 C 17.187 14.078,17.695 13.840,17.899 13.419 C 17.997 13.216,17.994 12.779,17.894 12.569 C 17.800 12.373,17.198 11.778,16.762 11.450 C 15.732 10.674,14.434 10.164,13.249 10.070 C 12.689 10.025,11.221 10.003,10.783 10.033 " fill="#1A1C1F" stroke="none" fill-rule="evenodd"></path></svg>