<svg width="32" height="32" viewBox="0 0 32 32" fill="none" xmlns="http://www.w3.org/2000/svg"><path d="M15.200 2.080 C 13.682 2.230,12.229 2.934,11.071 4.080 C 10.130 5.012,9.561 6.019,9.194 7.405 C 9.072 7.865,9.057 8.028,9.051 8.933 C 9.045 10.040,9.074 10.244,9.364 11.147 C 9.688 12.154,10.172 12.968,10.921 13.763 C 11.938 14.844,13.298 15.601,14.703 15.870 C 15.238 15.973,16.764 15.972,17.301 15.869 C 18.591 15.623,19.859 14.958,20.830 14.018 C 21.811 13.069,22.448 11.950,22.833 10.499 C 22.936 10.110,22.951 9.921,22.950 9.013 C 22.949 8.135,22.931 7.900,22.835 7.503 C 22.313 5.357,20.889 3.591,18.951 2.685 C 18.072 2.274,17.348 2.114,16.133 2.063 C 15.840 2.050,15.420 2.058,15.200 2.080 M17.280 4.189 C 17.756 4.311,18.520 4.680,18.912 4.977 C 19.327 5.292,19.899 5.897,20.146 6.282 C 20.445 6.750,20.785 7.515,20.855 7.874 C 20.896 8.085,20.911 8.562,20.897 9.208 L 20.876 10.213 20.681 10.684 C 20.030 12.256,18.885 13.328,17.357 13.793 C 16.924 13.925,16.802 13.938,16.027 13.939 C 15.019 13.940,14.616 13.853,13.828 13.466 C 12.787 12.953,12.004 12.138,11.463 11.005 C 11.139 10.326,11.093 10.081,11.094 9.015 C 11.095 7.973,11.147 7.660,11.416 7.067 C 12.067 5.635,13.279 4.581,14.732 4.186 C 15.190 4.061,15.289 4.053,16.080 4.076 C 16.623 4.092,17.059 4.133,17.280 4.189 M9.653 16.568 C 8.799 16.649,7.693 17.056,6.887 17.587 C 6.388 17.916,5.621 18.698,5.249 19.257 C 4.864 19.835,4.622 20.333,4.373 21.065 C 4.059 21.984,4.053 22.065,4.020 25.813 L 3.988 29.253 4.157 29.503 C 4.573 30.120,5.410 30.120,5.839 29.502 L 6.000 29.271 6.034 26.275 C 6.071 23.138,6.103 22.265,6.199 21.867 C 6.361 21.197,6.887 20.250,7.343 19.806 C 8.004 19.165,9.032 18.669,9.886 18.582 C 10.195 18.550,10.261 18.563,10.698 18.748 C 11.500 19.087,12.950 19.558,13.680 19.716 C 14.355 19.863,14.415 19.867,16.000 19.867 C 17.594 19.867,17.641 19.864,18.320 19.714 C 19.183 19.523,20.274 19.175,21.041 18.845 C 21.562 18.621,21.671 18.593,22.027 18.591 C 22.502 18.588,22.939 18.721,23.653 19.084 C 24.534 19.532,25.334 20.477,25.684 21.484 C 25.874 22.032,25.919 22.788,25.964 26.213 C 25.998 28.867,26.014 29.274,26.090 29.413 C 26.362 29.916,26.964 30.108,27.468 29.853 C 27.858 29.657,27.930 29.495,27.975 28.718 C 28.031 27.735,27.968 22.614,27.893 22.133 C 27.747 21.192,27.193 19.845,26.654 19.120 C 25.479 17.539,23.681 16.586,21.840 16.567 L 21.200 16.560 20.427 16.915 C 18.585 17.760,17.386 18.019,15.600 17.956 C 14.100 17.903,13.162 17.653,11.352 16.825 C 10.733 16.542,10.701 16.534,10.277 16.542 C 10.037 16.547,9.756 16.558,9.653 16.568 " fill="#1A1C1F" stroke="none" fill-rule="evenodd"></path></svg>