<svg width="24" height="24" viewBox="0 0 24 24" fill="none" xmlns="http://www.w3.org/2000/svg"><path d="M7.480 3.079 C 7.155 3.113,6.669 3.273,6.260 3.483 C 5.155 4.048,4.417 4.957,4.111 6.131 C 3.990 6.596,3.990 7.404,4.111 7.869 C 4.407 9.007,5.127 9.917,6.178 10.484 C 6.849 10.846,7.392 10.970,8.300 10.970 C 9.557 10.969,10.212 10.600,10.269 9.861 C 10.285 9.652,10.272 9.591,10.173 9.402 C 10.097 9.258,9.991 9.136,9.862 9.043 C 9.615 8.865,9.348 8.842,8.710 8.940 C 8.420 8.985,8.167 9.001,8.000 8.985 C 7.199 8.908,6.546 8.459,6.183 7.734 C 6.088 7.544,6.080 7.488,6.080 7.000 C 6.080 6.512,6.088 6.456,6.183 6.266 C 6.432 5.768,6.826 5.404,7.360 5.179 C 7.739 5.018,8.220 5.001,8.914 5.122 C 9.424 5.211,9.449 5.212,9.658 5.146 C 9.941 5.057,10.197 4.782,10.299 4.458 C 10.360 4.263,10.364 4.200,10.323 4.018 C 10.188 3.414,9.692 3.137,8.640 3.078 C 7.981 3.040,7.844 3.040,7.480 3.079 M15.200 3.098 C 14.176 3.318,13.218 3.974,12.661 4.835 C 12.410 5.222,12.263 5.556,12.134 6.029 C 12.041 6.369,12.027 6.495,12.027 7.000 C 12.027 7.495,12.042 7.636,12.129 7.960 C 12.560 9.574,13.880 10.749,15.500 10.963 C 16.338 11.073,17.353 10.847,18.096 10.384 C 19.095 9.761,19.735 8.792,19.946 7.581 C 20.172 6.288,19.583 4.764,18.534 3.926 C 18.156 3.625,17.459 3.270,17.020 3.155 C 16.603 3.047,15.589 3.015,15.200 3.098 M16.379 5.061 C 16.999 5.192,17.483 5.571,17.771 6.152 L 17.940 6.494 17.940 7.000 L 17.940 7.506 17.771 7.848 C 17.428 8.539,16.714 9.000,15.985 9.000 C 15.742 9.000,15.278 8.870,15.052 8.738 C 14.710 8.538,14.412 8.216,14.231 7.851 C 14.075 7.536,14.065 7.495,14.049 7.089 C 14.034 6.726,14.045 6.621,14.117 6.407 C 14.323 5.799,14.777 5.338,15.380 5.127 C 15.777 4.988,15.973 4.975,16.379 5.061 M5.860 13.041 C 4.867 13.103,4.233 13.303,3.545 13.770 C 2.773 14.294,2.198 15.234,2.074 16.173 C 2.049 16.361,2.029 17.301,2.025 18.380 C 2.020 20.240,2.021 20.262,2.107 20.423 C 2.319 20.818,2.768 21.048,3.163 20.963 C 3.274 20.939,3.413 20.894,3.472 20.863 C 3.640 20.775,3.877 20.510,3.923 20.358 C 3.946 20.282,3.980 19.509,4.000 18.640 C 4.044 16.709,4.066 16.359,4.159 16.114 C 4.327 15.671,4.698 15.329,5.190 15.163 C 5.380 15.099,5.617 15.071,6.228 15.038 C 7.447 14.973,7.621 14.948,7.812 14.809 C 7.902 14.745,8.030 14.594,8.098 14.476 C 8.333 14.060,8.241 13.580,7.862 13.247 C 7.785 13.179,7.653 13.106,7.571 13.086 C 7.351 13.030,6.414 13.006,5.860 13.041 M13.320 13.079 C 12.057 13.188,10.977 13.916,10.438 15.020 C 10.170 15.571,10.087 15.905,10.036 16.634 C 9.980 17.431,10.006 20.217,10.071 20.370 C 10.225 20.732,10.715 21.029,11.087 20.986 C 11.452 20.944,11.830 20.650,11.918 20.340 C 11.945 20.245,11.979 19.527,12.002 18.580 C 12.052 16.526,12.078 16.200,12.220 15.920 C 12.359 15.647,12.705 15.300,12.947 15.193 C 13.073 15.137,13.277 15.098,13.558 15.077 C 14.089 15.036,16.724 15.035,17.940 15.076 C 18.734 15.102,18.885 15.117,19.040 15.187 C 19.303 15.305,19.607 15.600,19.758 15.882 C 19.925 16.195,19.947 16.457,19.994 18.660 C 20.018 19.732,20.045 20.300,20.077 20.380 C 20.103 20.446,20.191 20.569,20.272 20.653 C 20.678 21.075,21.218 21.101,21.652 20.719 C 21.982 20.428,21.977 20.455,21.993 18.790 C 22.009 17.111,21.962 16.166,21.839 15.720 C 21.724 15.304,21.405 14.669,21.159 14.368 C 20.752 13.870,20.159 13.467,19.471 13.221 L 19.094 13.086 16.397 13.066 C 14.914 13.055,13.529 13.061,13.320 13.079 " fill="#1A1C1F" stroke="none" fill-rule="evenodd"></path></svg>