<svg width="12" height="12" viewBox="0 0 12 12" fill="none" xmlns="http://www.w3.org/2000/svg"><path d="M5.540 1.250 C 5.237 1.310,4.874 1.469,4.610 1.655 C 4.186 1.956,3.829 2.470,3.686 2.990 C 3.633 3.180,3.631 3.212,3.631 3.610 C 3.632 4.010,3.635 4.038,3.687 4.210 C 3.961 5.104,4.612 5.731,5.483 5.940 C 5.618 5.972,5.719 5.980,6.012 5.980 C 6.351 5.980,6.386 5.976,6.582 5.921 C 6.824 5.853,7.060 5.755,7.230 5.653 C 8.219 5.055,8.639 3.868,8.252 2.763 C 8.114 2.367,7.806 1.967,7.417 1.679 C 7.220 1.533,6.867 1.357,6.660 1.301 C 6.360 1.221,5.811 1.196,5.540 1.250 M3.260 7.241 C 3.062 7.264,2.778 7.388,2.549 7.550 C 2.207 7.793,1.910 8.249,1.839 8.640 C 1.825 8.717,1.811 9.084,1.805 9.543 L 1.796 10.317 1.845 10.425 C 1.904 10.554,2.004 10.658,2.146 10.740 L 2.250 10.800 5.996 10.800 L 9.741 10.800 9.841 10.749 C 9.969 10.685,10.085 10.569,10.149 10.441 L 10.200 10.341 10.200 9.542 L 10.200 8.742 10.129 8.526 C 10.006 8.149,9.867 7.922,9.622 7.695 C 9.476 7.560,9.229 7.405,9.022 7.317 C 8.872 7.254,8.863 7.253,8.440 7.238 C 7.877 7.218,3.428 7.221,3.260 7.241 " fill="#1A1C1F" stroke="none" fill-rule="evenodd"></path></svg>