<svg width="12" height="12" viewBox="0 0 12 12" fill="none" xmlns="http://www.w3.org/2000/svg"><path d="M3.850 1.840 C 3.529 1.890,3.127 2.122,2.867 2.408 C 2.719 2.572,2.576 2.808,2.498 3.018 C 2.438 3.179,2.434 3.210,2.425 3.526 C 2.417 3.799,2.421 3.887,2.449 4.002 C 2.531 4.340,2.692 4.618,2.958 4.881 C 3.210 5.131,3.535 5.307,3.847 5.361 C 4.030 5.393,4.535 5.376,4.670 5.333 C 4.893 5.262,5.032 5.114,5.091 4.884 C 5.142 4.683,5.083 4.486,4.927 4.337 C 4.778 4.195,4.722 4.180,4.357 4.180 C 3.977 4.180,3.919 4.162,3.772 3.998 C 3.665 3.879,3.620 3.756,3.620 3.581 C 3.621 3.303,3.822 3.071,4.108 3.019 C 4.157 3.010,4.268 3.015,4.387 3.033 C 4.568 3.060,4.593 3.059,4.693 3.028 C 4.917 2.958,5.069 2.811,5.123 2.610 C 5.178 2.404,5.096 2.123,4.946 2.009 C 4.795 1.893,4.669 1.854,4.391 1.838 C 4.082 1.819,3.984 1.820,3.850 1.840 M7.480 1.838 C 7.141 1.886,6.741 2.109,6.477 2.397 C 6.325 2.562,6.190 2.782,6.100 3.013 L 6.020 3.217 6.021 3.503 C 6.021 3.874,6.044 4.038,6.121 4.232 C 6.217 4.475,6.348 4.670,6.550 4.870 C 6.762 5.080,6.975 5.215,7.234 5.305 C 7.392 5.360,7.441 5.367,7.712 5.376 C 8.070 5.387,8.222 5.365,8.458 5.267 C 9.007 5.040,9.413 4.570,9.551 4.002 C 9.579 3.887,9.583 3.799,9.575 3.526 C 9.566 3.211,9.562 3.179,9.503 3.021 C 9.300 2.476,8.831 2.031,8.300 1.880 C 8.134 1.833,7.680 1.810,7.480 1.838 M8.098 3.101 C 8.249 3.181,8.326 3.285,8.361 3.457 C 8.412 3.698,8.352 3.893,8.179 4.049 C 8.069 4.148,7.976 4.185,7.830 4.188 C 7.592 4.192,7.405 4.088,7.287 3.886 C 7.217 3.767,7.200 3.551,7.249 3.404 C 7.292 3.273,7.422 3.127,7.549 3.066 C 7.635 3.025,7.673 3.019,7.810 3.025 C 7.946 3.031,7.989 3.043,8.098 3.101 M2.930 6.032 C 2.429 6.100,2.084 6.262,1.764 6.579 C 1.551 6.791,1.426 6.996,1.319 7.314 C 1.224 7.593,1.216 7.715,1.213 8.770 L 1.210 9.750 1.257 9.845 C 1.305 9.943,1.458 10.089,1.576 10.149 C 1.821 10.273,2.170 10.140,2.325 9.864 L 2.385 9.758 2.402 8.894 C 2.412 8.419,2.428 7.952,2.439 7.857 C 2.470 7.574,2.592 7.387,2.814 7.286 C 2.909 7.242,2.970 7.234,3.375 7.209 C 3.625 7.194,3.866 7.176,3.910 7.169 C 4.068 7.144,4.259 6.963,4.312 6.788 C 4.392 6.520,4.298 6.264,4.057 6.100 L 3.955 6.030 3.472 6.027 C 3.207 6.025,2.963 6.028,2.930 6.032 M6.590 6.040 C 6.435 6.048,6.258 6.069,6.193 6.087 C 5.665 6.237,5.242 6.593,5.009 7.086 C 4.870 7.378,4.838 7.529,4.819 7.970 C 4.810 8.190,4.802 8.676,4.802 9.050 C 4.801 9.679,4.804 9.736,4.839 9.815 C 4.892 9.932,5.044 10.088,5.156 10.141 C 5.274 10.197,5.511 10.204,5.624 10.155 C 5.727 10.110,5.874 9.970,5.942 9.850 L 6.000 9.750 6.000 9.160 C 6.002 8.371,6.029 7.776,6.069 7.660 C 6.115 7.529,6.235 7.382,6.350 7.318 C 6.526 7.219,6.651 7.210,7.780 7.212 C 8.925 7.213,9.083 7.224,9.248 7.317 C 9.365 7.382,9.485 7.528,9.531 7.660 C 9.571 7.774,9.598 8.378,9.599 9.170 L 9.600 9.750 9.658 9.850 C 9.726 9.970,9.873 10.110,9.976 10.155 C 10.089 10.204,10.326 10.197,10.444 10.141 C 10.556 10.088,10.708 9.932,10.761 9.815 C 10.795 9.739,10.799 9.682,10.798 9.300 C 10.798 9.064,10.790 8.582,10.781 8.230 C 10.766 7.671,10.758 7.570,10.720 7.430 C 10.668 7.237,10.554 6.988,10.445 6.828 C 10.354 6.695,10.095 6.438,9.960 6.346 C 9.735 6.194,9.414 6.067,9.212 6.051 C 9.001 6.034,6.883 6.025,6.590 6.040 " fill="#1A1C1F" stroke="none" fill-rule="evenodd"></path></svg>