<svg width="20" height="20" viewBox="0 0 20 20" fill="none" xmlns="http://www.w3.org/2000/svg"><path d="M9.333 2.067 C 8.203 2.268,7.166 2.974,6.587 3.937 C 6.443 4.177,6.258 4.616,6.146 4.983 C 6.058 5.270,6.054 5.315,6.054 6.000 C 6.053 6.689,6.056 6.728,6.145 7.017 C 6.376 7.770,6.659 8.253,7.183 8.785 C 7.385 8.990,7.642 9.219,7.754 9.293 C 8.203 9.593,8.836 9.856,9.297 9.933 C 9.708 10.002,10.497 9.986,10.848 9.903 C 11.738 9.690,12.509 9.217,13.070 8.540 C 13.470 8.057,13.718 7.563,13.889 6.907 C 13.963 6.623,13.974 6.513,13.976 6.000 C 13.978 5.470,13.969 5.384,13.886 5.055 C 13.769 4.590,13.622 4.246,13.394 3.896 C 12.720 2.864,11.680 2.193,10.565 2.072 C 9.933 2.003,9.698 2.002,9.333 2.067 M5.433 12.068 C 5.204 12.095,4.998 12.166,4.658 12.337 C 4.013 12.660,3.478 13.248,3.203 13.936 C 3.037 14.352,3.019 14.555,3.018 15.983 C 3.017 17.275,3.017 17.284,3.093 17.426 C 3.196 17.620,3.396 17.813,3.598 17.916 L 3.764 18.000 10.000 18.000 L 16.236 18.000 16.393 17.919 C 16.617 17.804,16.748 17.679,16.883 17.452 L 17.000 17.254 17.000 15.912 L 17.000 14.570 16.886 14.221 C 16.749 13.804,16.616 13.527,16.419 13.251 C 16.119 12.830,15.593 12.429,15.036 12.195 C 14.785 12.090,14.779 12.089,14.000 12.063 C 12.991 12.030,5.718 12.034,5.433 12.068 " fill="#1A1C1F" stroke="none" fill-rule="evenodd"></path></svg>