<svg width="14" height="14" viewBox="0 0 14 14" fill="none" xmlns="http://www.w3.org/2000/svg"><path d="M6.440 1.458 C 5.462 1.677,4.624 2.430,4.344 3.341 C 4.220 3.743,4.183 4.314,4.256 4.692 C 4.324 5.047,4.481 5.436,4.679 5.741 C 4.824 5.965,5.235 6.376,5.459 6.521 C 6.192 6.997,7.075 7.116,7.882 6.846 C 8.810 6.536,9.476 5.801,9.724 4.814 C 9.780 4.589,9.787 4.519,9.786 4.177 C 9.785 3.749,9.752 3.564,9.607 3.179 C 9.308 2.384,8.597 1.758,7.700 1.499 C 7.527 1.449,7.444 1.441,7.047 1.433 C 6.706 1.426,6.554 1.433,6.440 1.458 M7.360 2.859 C 7.721 2.953,8.054 3.222,8.230 3.561 C 8.351 3.794,8.384 3.963,8.373 4.297 C 8.365 4.536,8.357 4.577,8.290 4.719 C 8.087 5.149,7.823 5.397,7.436 5.519 C 6.939 5.676,6.448 5.569,6.079 5.223 C 5.779 4.943,5.649 4.668,5.630 4.270 C 5.609 3.860,5.720 3.555,5.998 3.259 C 6.174 3.071,6.337 2.964,6.572 2.881 C 6.767 2.812,7.140 2.802,7.360 2.859 M3.838 8.446 C 3.651 8.468,3.484 8.524,3.232 8.652 C 3.050 8.745,2.984 8.796,2.742 9.040 C 2.426 9.357,2.343 9.484,2.229 9.814 C 2.110 10.159,2.094 10.341,2.104 11.276 C 2.112 12.061,2.115 12.103,2.162 12.192 C 2.235 12.328,2.373 12.458,2.520 12.527 C 2.674 12.600,2.919 12.608,3.063 12.544 C 3.182 12.492,3.328 12.357,3.419 12.215 L 3.494 12.098 3.504 11.197 L 3.514 10.296 3.594 10.161 C 3.681 10.017,3.797 9.917,3.967 9.840 C 4.071 9.793,4.087 9.793,7.045 9.808 L 10.019 9.824 10.115 9.880 C 10.237 9.952,10.400 10.128,10.446 10.238 C 10.474 10.307,10.484 10.490,10.494 11.210 L 10.507 12.098 10.581 12.215 C 10.671 12.356,10.824 12.498,10.940 12.548 C 10.991 12.570,11.095 12.585,11.200 12.586 C 11.411 12.588,11.556 12.523,11.706 12.360 C 11.898 12.152,11.888 12.215,11.888 11.153 C 11.888 10.307,11.884 10.191,11.845 10.045 C 11.641 9.275,11.145 8.747,10.385 8.490 L 10.188 8.423 7.083 8.427 C 5.375 8.428,3.915 8.437,3.838 8.446 " fill="#1A1C1F" stroke="none" fill-rule="evenodd"></path></svg>