<svg width="14" height="14" viewBox="0 0 14 14" fill="none" xmlns="http://www.w3.org/2000/svg"><path d="M6.417 1.469 C 5.882 1.583,5.382 1.869,4.980 2.290 C 4.764 2.516,4.639 2.692,4.505 2.956 C 4.299 3.365,4.224 3.712,4.224 4.247 C 4.224 4.581,4.251 4.754,4.352 5.056 C 4.503 5.511,4.697 5.820,5.049 6.175 C 5.333 6.459,5.630 6.659,5.966 6.791 C 6.367 6.947,6.556 6.982,7.012 6.981 C 7.454 6.981,7.622 6.950,8.015 6.798 C 9.134 6.367,9.866 5.229,9.790 4.037 C 9.772 3.755,9.706 3.426,9.622 3.201 C 9.337 2.440,8.599 1.759,7.809 1.530 C 7.423 1.418,6.785 1.390,6.417 1.469 M3.803 8.447 C 3.643 8.467,3.499 8.517,3.261 8.636 C 2.809 8.862,2.435 9.274,2.242 9.755 C 2.126 10.047,2.113 10.189,2.112 11.188 L 2.112 12.098 2.174 12.205 C 2.250 12.333,2.411 12.486,2.540 12.552 L 2.635 12.600 7.000 12.600 L 11.365 12.600 11.460 12.552 C 11.594 12.483,11.754 12.329,11.832 12.192 L 11.900 12.075 11.900 11.137 L 11.900 10.199 11.820 9.955 C 11.724 9.663,11.631 9.469,11.493 9.276 C 11.283 8.981,10.916 8.701,10.525 8.537 C 10.353 8.464,10.336 8.462,9.870 8.444 C 9.249 8.421,4.001 8.424,3.803 8.447 " fill="#1A1C1F" stroke="none" fill-rule="evenodd"></path></svg>