<svg width="20" height="20" viewBox="0 0 20 20" fill="none" xmlns="http://www.w3.org/2000/svg"><path d="M6.417 3.067 C 5.891 3.148,5.220 3.532,4.794 3.995 C 4.542 4.270,4.317 4.637,4.166 5.022 L 4.033 5.362 4.033 6.000 L 4.033 6.638 4.166 6.978 C 4.496 7.820,5.122 8.466,5.919 8.787 C 6.281 8.933,6.643 8.981,7.217 8.957 C 7.770 8.934,7.964 8.868,8.216 8.616 C 8.483 8.349,8.574 7.973,8.463 7.600 C 8.408 7.418,8.167 7.151,7.963 7.048 C 7.812 6.972,7.769 6.967,7.262 6.967 C 6.629 6.967,6.532 6.937,6.287 6.664 C 6.108 6.464,6.033 6.260,6.033 5.967 C 6.033 5.690,6.140 5.458,6.355 5.269 C 6.617 5.039,6.906 4.983,7.406 5.068 C 7.592 5.099,7.661 5.097,7.807 5.054 C 8.177 4.946,8.447 4.686,8.538 4.351 C 8.631 4.007,8.493 3.538,8.244 3.348 C 7.995 3.158,7.782 3.091,7.336 3.063 C 6.841 3.032,6.642 3.033,6.417 3.067 M12.447 3.066 C 12.152 3.108,11.685 3.294,11.399 3.484 C 10.845 3.851,10.415 4.388,10.166 5.022 L 10.033 5.362 10.033 6.000 L 10.033 6.638 10.166 6.978 C 10.496 7.819,11.122 8.466,11.917 8.786 C 12.513 9.027,13.463 9.032,14.054 8.799 C 14.459 8.639,14.784 8.420,15.117 8.084 C 15.466 7.731,15.692 7.375,15.842 6.944 C 15.936 6.673,15.945 6.608,15.959 6.100 C 15.970 5.673,15.962 5.500,15.920 5.323 C 15.681 4.304,14.835 3.419,13.827 3.132 C 13.550 3.053,12.794 3.017,12.447 3.066 M13.497 5.168 C 13.838 5.349,13.994 5.672,13.958 6.119 C 13.938 6.369,13.838 6.561,13.631 6.748 C 13.440 6.920,13.292 6.976,13.017 6.978 C 12.709 6.979,12.483 6.882,12.285 6.662 C 11.838 6.164,11.996 5.382,12.600 5.101 C 12.722 5.044,12.799 5.033,13.017 5.042 C 13.244 5.052,13.315 5.071,13.497 5.168 M4.749 10.066 C 3.725 10.209,2.841 10.828,2.392 11.717 C 2.228 12.041,2.104 12.456,2.061 12.823 C 2.033 13.062,2.019 13.700,2.018 14.717 L 2.017 16.250 2.094 16.400 C 2.287 16.771,2.618 16.980,3.017 16.982 C 3.213 16.983,3.278 16.968,3.426 16.886 C 3.522 16.832,3.667 16.718,3.747 16.633 C 3.974 16.390,3.987 16.282,4.032 14.227 L 4.062 12.872 4.155 12.683 C 4.275 12.436,4.463 12.247,4.687 12.144 C 4.849 12.070,4.946 12.056,5.626 12.015 C 6.042 11.989,6.443 11.959,6.517 11.948 C 6.780 11.907,7.098 11.605,7.186 11.313 C 7.321 10.866,7.163 10.439,6.762 10.167 L 6.591 10.050 5.770 10.044 C 5.319 10.041,4.860 10.051,4.749 10.066 M10.967 10.068 C 10.355 10.099,10.050 10.189,9.519 10.497 C 9.210 10.676,8.806 11.057,8.601 11.363 C 8.420 11.633,8.227 12.046,8.134 12.367 C 8.045 12.670,8.006 13.508,8.003 15.150 C 8.002 16.133,8.006 16.228,8.065 16.358 C 8.154 16.553,8.407 16.813,8.594 16.902 C 8.787 16.995,9.182 17.006,9.373 16.924 C 9.544 16.851,9.789 16.617,9.903 16.417 L 9.999 16.250 10.001 15.267 C 10.003 13.943,10.048 12.960,10.116 12.767 C 10.243 12.407,10.530 12.159,10.915 12.076 C 11.197 12.015,12.957 11.987,14.158 12.025 L 15.134 12.055 15.357 12.169 C 15.607 12.297,15.795 12.509,15.885 12.767 C 15.951 12.955,15.997 13.974,15.999 15.300 L 16.001 16.250 16.097 16.417 C 16.211 16.617,16.456 16.851,16.627 16.924 C 16.794 16.996,17.209 16.993,17.378 16.919 C 17.557 16.841,17.804 16.601,17.902 16.410 L 17.983 16.250 17.982 14.717 C 17.981 13.038,17.953 12.634,17.811 12.208 C 17.479 11.214,16.807 10.540,15.783 10.174 C 15.556 10.092,15.519 10.089,14.283 10.065 C 12.785 10.035,11.589 10.036,10.967 10.068 " fill="#1A1C1F" stroke="none" fill-rule="evenodd"></path></svg>