<svg width="16" height="16" viewBox="0 0 16 16" fill="none" xmlns="http://www.w3.org/2000/svg"><path d="M7.360 1.668 C 6.670 1.816,5.962 2.246,5.542 2.771 C 4.879 3.600,4.659 4.605,4.922 5.600 C 5.078 6.191,5.307 6.586,5.747 7.026 C 6.193 7.473,6.586 7.707,7.180 7.878 C 8.231 8.181,9.432 7.863,10.236 7.071 C 11.317 6.005,11.507 4.318,10.688 3.077 C 10.471 2.748,10.100 2.361,9.840 2.190 C 9.452 1.936,8.887 1.708,8.510 1.653 C 8.250 1.616,7.563 1.624,7.360 1.668 M8.412 3.267 C 8.945 3.406,9.432 3.904,9.547 4.428 C 9.596 4.652,9.570 5.148,9.499 5.344 C 9.420 5.559,9.248 5.815,9.077 5.972 C 8.459 6.536,7.541 6.529,6.933 5.956 C 6.594 5.636,6.456 5.339,6.434 4.880 C 6.411 4.400,6.553 4.032,6.892 3.692 C 7.227 3.357,7.527 3.228,7.974 3.227 C 8.142 3.227,8.318 3.243,8.412 3.267 M4.439 9.652 C 3.733 9.717,2.977 10.264,2.656 10.944 C 2.548 11.172,2.458 11.477,2.425 11.723 C 2.405 11.871,2.398 12.279,2.405 12.889 C 2.415 13.781,2.418 13.832,2.472 13.933 C 2.554 14.088,2.712 14.237,2.880 14.317 C 3.056 14.400,3.336 14.409,3.501 14.336 C 3.637 14.276,3.804 14.121,3.907 13.960 L 3.992 13.827 4.008 12.810 C 4.020 11.997,4.031 11.774,4.063 11.698 C 4.112 11.582,4.293 11.381,4.423 11.300 L 4.520 11.240 8.000 11.240 L 11.480 11.240 11.577 11.300 C 11.708 11.382,11.888 11.582,11.939 11.702 C 11.973 11.782,11.982 11.981,11.994 12.813 L 12.008 13.827 12.093 13.961 C 12.260 14.223,12.539 14.400,12.785 14.400 C 13.002 14.400,13.272 14.270,13.419 14.093 C 13.592 13.886,13.587 13.932,13.587 12.747 C 13.587 11.717,13.584 11.657,13.528 11.453 C 13.373 10.889,13.177 10.583,12.696 10.154 C 12.501 9.980,12.027 9.727,11.800 9.676 C 11.646 9.641,4.800 9.619,4.439 9.652 " fill="#1A1C1F" stroke="none" fill-rule="evenodd"></path></svg>