<svg width="28" height="28" viewBox="0 0 28 28" fill="none" xmlns="http://www.w3.org/2000/svg"><path d="M8.337 3.592 C 7.645 3.718,6.873 4.065,6.262 4.526 C 4.366 5.955,3.835 8.656,5.042 10.733 C 5.417 11.378,6.243 12.182,6.860 12.503 C 7.322 12.743,8.059 12.996,8.509 13.069 C 9.018 13.151,9.801 13.102,10.383 12.953 C 10.925 12.814,11.719 12.438,11.956 12.207 C 12.382 11.794,12.269 11.084,11.737 10.827 C 11.457 10.691,11.318 10.715,10.632 11.009 C 10.337 11.135,9.964 11.265,9.804 11.296 C 9.441 11.368,8.617 11.328,8.260 11.222 C 7.667 11.046,6.956 10.482,6.616 9.916 C 6.246 9.301,6.086 8.462,6.205 7.758 C 6.272 7.361,6.574 6.707,6.835 6.393 C 7.450 5.654,8.457 5.221,9.403 5.289 C 9.802 5.317,10.031 5.385,10.733 5.683 C 11.365 5.951,11.435 5.960,11.742 5.810 C 12.329 5.522,12.432 4.894,11.966 4.446 C 11.701 4.192,10.924 3.812,10.407 3.685 C 9.961 3.575,8.734 3.520,8.337 3.592 M17.891 3.595 C 17.542 3.657,17.020 3.853,16.554 4.097 C 15.570 4.612,14.783 5.479,14.373 6.503 C 14.090 7.211,14.033 7.513,14.032 8.307 C 14.032 8.941,14.047 9.087,14.156 9.493 C 14.701 11.543,16.467 12.983,18.577 13.099 C 19.746 13.164,21.011 12.743,21.840 12.015 C 22.443 11.485,22.798 11.044,23.080 10.477 C 24.154 8.318,23.536 5.802,21.594 4.416 C 21.179 4.120,20.375 3.744,19.989 3.665 C 19.590 3.584,18.211 3.537,17.891 3.595 M19.320 5.321 C 19.765 5.389,20.586 5.804,20.912 6.125 C 21.581 6.783,21.889 7.602,21.824 8.543 C 21.763 9.404,21.419 10.066,20.727 10.654 C 20.426 10.910,19.928 11.171,19.553 11.271 C 19.048 11.405,18.150 11.344,17.663 11.141 C 16.925 10.834,16.159 9.999,15.920 9.240 C 15.759 8.729,15.777 7.826,15.960 7.276 C 16.229 6.466,17.065 5.675,17.943 5.398 C 18.345 5.271,18.824 5.244,19.320 5.321 M6.463 14.937 C 5.189 14.980,4.805 15.062,4.060 15.451 C 3.129 15.937,2.519 16.618,2.130 17.601 C 1.813 18.403,1.773 18.805,1.741 21.492 C 1.716 23.681,1.718 23.739,1.810 23.919 C 2.009 24.306,2.383 24.531,2.738 24.478 C 3.015 24.436,3.319 24.198,3.399 23.961 C 3.443 23.830,3.472 23.247,3.501 21.933 C 3.572 18.695,3.597 18.445,3.902 17.936 C 4.210 17.422,4.721 17.000,5.227 16.843 C 5.585 16.732,6.341 16.668,7.924 16.616 C 9.444 16.565,9.510 16.550,9.705 16.193 C 9.932 15.778,9.829 15.324,9.448 15.067 C 9.266 14.944,9.248 14.942,8.353 14.923 C 7.853 14.913,7.002 14.919,6.463 14.937 M16.380 14.932 C 15.056 14.971,14.718 15.017,14.157 15.240 C 13.548 15.481,13.115 15.765,12.668 16.213 C 12.189 16.694,11.972 17.024,11.742 17.621 C 11.437 18.411,11.428 18.503,11.400 20.985 C 11.372 23.483,11.390 23.862,11.542 24.086 C 11.907 24.623,12.703 24.581,13.011 24.010 C 13.076 23.890,13.091 23.575,13.118 21.793 C 13.162 18.878,13.189 18.595,13.480 18.037 C 13.721 17.574,14.123 17.186,14.612 16.944 C 14.955 16.776,15.067 16.745,15.517 16.698 C 16.116 16.636,21.245 16.635,22.052 16.697 C 22.520 16.733,22.605 16.754,22.966 16.929 C 23.639 17.255,24.116 17.784,24.316 18.426 C 24.404 18.712,24.417 18.943,24.475 21.290 C 24.546 24.197,24.529 24.084,24.934 24.333 C 25.337 24.580,25.829 24.489,26.072 24.122 C 26.259 23.839,26.285 23.430,26.256 21.233 C 26.224 18.775,26.185 18.412,25.856 17.561 C 25.420 16.434,24.310 15.438,23.137 15.123 C 22.950 15.072,22.593 15.009,22.344 14.982 C 21.748 14.918,17.945 14.886,16.380 14.932 " fill="#1A1C1F" stroke="none" fill-rule="evenodd"></path></svg>