<svg width="24" height="24" viewBox="0 0 24 24" fill="none" xmlns="http://www.w3.org/2000/svg"><path d="M11.217 2.077 C 9.336 2.411,7.851 3.692,7.248 5.501 C 7.051 6.092,7.029 6.277,7.050 7.148 C 7.067 7.853,7.080 7.978,7.173 8.287 C 7.444 9.187,7.824 9.827,8.478 10.484 C 9.102 11.112,9.712 11.489,10.594 11.791 L 11.020 11.937 12.000 11.937 L 12.980 11.937 13.414 11.788 C 14.769 11.324,15.790 10.479,16.395 9.321 C 16.617 8.896,16.763 8.517,16.881 8.056 C 17.029 7.476,16.973 6.112,16.777 5.527 C 16.507 4.722,16.141 4.134,15.524 3.515 C 14.895 2.884,14.186 2.455,13.394 2.225 C 12.720 2.030,11.827 1.969,11.217 2.077 M12.880 4.152 C 13.705 4.441,14.313 4.976,14.680 5.735 C 14.915 6.222,14.972 6.518,14.948 7.140 C 14.922 7.851,14.760 8.286,14.305 8.866 C 13.722 9.611,12.975 9.961,11.959 9.966 C 11.522 9.968,11.420 9.955,11.147 9.864 C 10.285 9.574,9.717 9.071,9.297 8.225 C 9.081 7.790,9.018 7.411,9.051 6.740 C 9.073 6.282,9.193 5.919,9.480 5.435 C 9.861 4.794,10.684 4.205,11.370 4.082 C 11.716 4.019,12.623 4.061,12.880 4.152 M15.821 13.084 C 15.711 13.107,15.369 13.231,15.060 13.360 C 14.068 13.775,13.306 13.946,12.260 13.987 C 11.570 14.014,10.990 13.963,10.333 13.817 C 9.791 13.696,9.494 13.596,8.840 13.315 L 8.340 13.100 7.620 13.100 C 6.756 13.100,6.469 13.162,5.778 13.498 C 4.420 14.159,3.531 15.304,3.133 16.902 L 3.025 17.340 3.022 19.320 C 3.020 21.291,3.020 21.301,3.109 21.466 C 3.283 21.791,3.587 21.960,4.000 21.960 C 4.421 21.960,4.720 21.791,4.879 21.462 C 4.961 21.293,4.967 21.200,5.001 19.732 C 5.048 17.678,5.069 17.323,5.168 17.004 C 5.327 16.487,5.667 15.947,5.997 15.686 C 6.259 15.479,6.769 15.220,7.066 15.143 C 7.522 15.026,7.768 15.053,8.409 15.296 C 9.798 15.822,10.611 15.975,12.020 15.975 C 13.283 15.976,14.232 15.804,15.420 15.361 C 16.286 15.037,16.326 15.029,16.687 15.097 C 17.293 15.211,17.789 15.473,18.180 15.887 C 18.630 16.362,18.903 16.986,18.942 17.628 C 18.954 17.822,18.979 18.722,18.998 19.629 C 19.031 21.207,19.036 21.286,19.120 21.459 C 19.280 21.791,19.578 21.960,20.000 21.960 C 20.413 21.960,20.717 21.791,20.891 21.466 C 20.980 21.301,20.980 21.292,20.976 19.360 C 20.972 17.216,20.954 17.011,20.717 16.336 C 20.272 15.070,19.399 14.070,18.260 13.522 C 17.917 13.357,17.401 13.190,17.034 13.124 C 16.678 13.061,16.039 13.040,15.821 13.084 " fill="#1A1C1F" stroke="none" fill-rule="evenodd"></path></svg>