<svg width="16" height="16" viewBox="0 0 16 16" fill="none" xmlns="http://www.w3.org/2000/svg"><path d="M7.333 1.679 C 6.762 1.801,6.167 2.127,5.746 2.547 C 5.352 2.941,5.105 3.370,4.917 3.987 C 4.847 4.216,4.843 4.252,4.843 4.800 C 4.842 5.351,4.845 5.383,4.916 5.613 C 5.101 6.215,5.327 6.601,5.747 7.029 C 6.206 7.498,6.681 7.767,7.325 7.924 C 7.663 8.006,8.336 8.006,8.679 7.923 C 9.130 7.814,9.540 7.626,9.880 7.373 C 10.917 6.602,11.391 5.349,11.119 4.095 C 10.987 3.484,10.731 3.027,10.260 2.559 C 9.740 2.043,9.111 1.730,8.444 1.655 C 8.062 1.613,7.597 1.623,7.333 1.679 M4.398 9.654 C 4.158 9.676,4.050 9.709,3.800 9.834 C 3.174 10.146,2.763 10.598,2.530 11.230 C 2.454 11.436,2.446 11.491,2.425 11.947 C 2.413 12.218,2.402 12.753,2.401 13.135 L 2.400 13.830 2.476 13.948 C 2.564 14.086,2.782 14.295,2.901 14.357 C 2.976 14.396,3.446 14.400,8.007 14.400 L 13.031 14.400 13.149 14.322 C 13.287 14.230,13.433 14.082,13.531 13.936 L 13.600 13.833 13.600 12.746 C 13.600 11.544,13.606 11.592,13.408 11.093 C 13.180 10.518,12.673 10.026,12.029 9.757 C 11.832 9.674,11.811 9.671,11.280 9.651 C 10.601 9.625,4.674 9.627,4.398 9.654 " fill="#1A1C1F" stroke="none" fill-rule="evenodd"></path></svg>