<svg width="14" height="14" viewBox="0 0 14 14" fill="none" xmlns="http://www.w3.org/2000/svg"><path d="M4.480 2.147 C 4.264 2.185,3.940 2.325,3.713 2.478 C 3.533 2.599,3.213 2.939,3.108 3.119 C 2.985 3.329,2.876 3.599,2.843 3.774 C 2.828 3.854,2.823 4.063,2.830 4.293 C 2.840 4.652,2.846 4.692,2.915 4.879 C 3.150 5.520,3.724 6.059,4.343 6.219 C 4.674 6.305,5.164 6.305,5.453 6.219 C 5.740 6.133,5.956 5.844,5.956 5.546 C 5.956 5.286,5.811 5.056,5.572 4.933 C 5.469 4.880,5.437 4.877,5.087 4.877 C 4.657 4.877,4.596 4.861,4.437 4.706 C 4.287 4.561,4.240 4.455,4.228 4.233 C 4.220 4.079,4.227 4.024,4.265 3.938 C 4.358 3.727,4.573 3.558,4.804 3.515 C 4.847 3.507,4.986 3.516,5.113 3.537 C 5.321 3.570,5.356 3.570,5.466 3.538 C 5.724 3.462,5.913 3.280,5.977 3.045 C 6.041 2.805,5.945 2.476,5.771 2.343 C 5.602 2.215,5.446 2.164,5.158 2.145 C 4.828 2.122,4.618 2.123,4.480 2.147 M8.726 2.144 C 8.484 2.179,8.157 2.313,7.913 2.478 C 7.733 2.599,7.413 2.939,7.308 3.119 C 7.185 3.329,7.076 3.599,7.043 3.774 C 7.028 3.854,7.023 4.063,7.030 4.293 C 7.040 4.652,7.046 4.692,7.115 4.879 C 7.332 5.470,7.805 5.945,8.413 6.183 L 8.653 6.277 9.100 6.277 L 9.547 6.277 9.784 6.184 C 10.397 5.943,10.844 5.497,11.083 4.887 L 11.177 4.647 11.177 4.201 L 11.177 3.755 11.094 3.540 C 10.839 2.877,10.309 2.372,9.683 2.193 C 9.489 2.138,8.960 2.111,8.726 2.144 M9.448 3.618 C 9.687 3.745,9.796 3.970,9.771 4.283 C 9.757 4.458,9.687 4.593,9.542 4.723 C 9.408 4.844,9.304 4.883,9.112 4.884 C 8.896 4.886,8.738 4.817,8.600 4.663 C 8.287 4.315,8.397 3.767,8.820 3.570 C 8.906 3.531,8.960 3.523,9.112 3.530 C 9.271 3.536,9.321 3.550,9.448 3.618 M3.327 7.048 C 2.591 7.161,2.005 7.568,1.681 8.191 C 1.441 8.652,1.413 8.870,1.412 10.290 L 1.412 11.375 1.466 11.480 C 1.651 11.837,2.051 11.986,2.385 11.823 C 2.542 11.746,2.717 11.565,2.753 11.442 C 2.769 11.387,2.788 10.972,2.801 10.383 C 2.828 9.243,2.846 9.006,2.918 8.864 C 3.008 8.686,3.099 8.592,3.253 8.516 C 3.397 8.445,3.415 8.442,3.934 8.411 C 4.228 8.393,4.510 8.371,4.562 8.364 C 4.746 8.335,4.969 8.124,5.030 7.919 C 5.124 7.606,5.014 7.308,4.734 7.117 L 4.614 7.035 4.039 7.031 C 3.723 7.029,3.403 7.036,3.327 7.048 M7.677 7.048 C 7.503 7.057,7.302 7.081,7.228 7.102 C 6.377 7.339,5.762 8.052,5.642 8.943 C 5.622 9.090,5.612 9.513,5.612 10.267 C 5.612 11.519,5.603 11.456,5.798 11.664 C 5.950 11.827,6.081 11.884,6.300 11.884 C 6.407 11.884,6.508 11.870,6.561 11.847 C 6.681 11.796,6.852 11.632,6.932 11.492 L 7.000 11.375 7.001 10.687 C 7.002 9.760,7.033 9.072,7.081 8.937 C 7.170 8.685,7.371 8.511,7.640 8.453 C 7.839 8.411,9.025 8.392,9.887 8.417 L 10.593 8.438 10.750 8.518 C 10.925 8.608,11.057 8.756,11.120 8.937 C 11.166 9.068,11.198 9.782,11.199 10.710 L 11.200 11.375 11.268 11.492 C 11.347 11.631,11.519 11.795,11.639 11.848 C 11.694 11.872,11.789 11.885,11.900 11.885 C 12.119 11.884,12.251 11.826,12.402 11.664 C 12.596 11.456,12.588 11.515,12.588 10.302 C 12.587 9.136,12.567 8.847,12.471 8.551 C 12.245 7.859,11.790 7.400,11.060 7.127 L 10.885 7.062 9.917 7.045 C 8.752 7.024,8.099 7.025,7.677 7.048 " fill="#1A1C1F" stroke="none" fill-rule="evenodd"></path></svg>