<svg width="28" height="28" viewBox="0 0 28 28" fill="none" xmlns="http://www.w3.org/2000/svg"><path d="M13.300 1.825 C 11.767 1.934,10.098 2.897,9.064 4.272 C 8.634 4.844,8.268 5.637,8.045 6.480 C 7.939 6.881,7.925 7.027,7.919 7.817 C 7.913 8.785,7.937 8.955,8.194 9.753 C 8.477 10.635,8.901 11.347,9.556 12.043 C 10.446 12.988,11.636 13.651,12.865 13.886 C 13.334 13.976,14.669 13.976,15.138 13.886 C 16.925 13.544,18.521 12.357,19.390 10.723 C 19.971 9.631,20.179 8.578,20.071 7.278 C 19.872 4.879,18.088 2.707,15.763 2.035 C 15.099 1.843,14.167 1.763,13.300 1.825 M15.173 3.680 C 15.873 3.864,16.573 4.294,17.132 4.888 C 17.503 5.282,17.731 5.623,17.990 6.174 C 18.269 6.765,18.307 7.010,18.285 8.057 L 18.266 8.937 18.096 9.348 C 17.632 10.469,16.884 11.298,15.900 11.782 C 15.219 12.118,14.856 12.197,14.000 12.197 C 13.144 12.197,12.781 12.118,12.100 11.782 C 11.188 11.334,10.503 10.621,10.030 9.629 C 9.746 9.035,9.707 8.821,9.707 7.889 C 9.708 6.978,9.753 6.704,9.989 6.183 C 10.431 5.204,11.339 4.278,12.250 3.877 C 12.378 3.820,12.672 3.722,12.903 3.659 C 13.289 3.554,13.384 3.546,14.070 3.566 C 14.610 3.581,14.915 3.613,15.173 3.680 M8.447 14.497 C 7.695 14.568,6.737 14.920,6.033 15.384 C 5.590 15.676,4.920 16.358,4.593 16.850 C 4.256 17.355,4.045 17.791,3.826 18.432 C 3.551 19.240,3.546 19.306,3.517 22.587 L 3.490 25.597 3.637 25.815 C 4.001 26.355,4.734 26.355,5.109 25.814 L 5.250 25.612 5.280 23.014 C 5.312 20.284,5.342 19.479,5.425 19.133 C 5.565 18.549,6.026 17.719,6.425 17.331 C 7.059 16.715,8.038 16.272,8.772 16.270 C 9.083 16.269,9.166 16.289,9.494 16.444 C 10.253 16.803,11.724 17.239,12.578 17.357 C 13.138 17.435,15.076 17.420,15.569 17.334 C 16.507 17.171,17.600 16.843,18.457 16.469 C 18.884 16.282,18.955 16.266,19.297 16.269 C 19.696 16.272,20.083 16.387,20.647 16.671 C 21.467 17.083,22.156 17.885,22.474 18.799 C 22.640 19.277,22.679 19.935,22.718 22.937 C 22.749 25.257,22.763 25.615,22.829 25.737 C 23.066 26.176,23.594 26.345,24.035 26.122 C 24.382 25.946,24.438 25.814,24.478 25.080 C 24.527 24.164,24.472 19.791,24.407 19.367 C 24.280 18.550,23.791 17.361,23.322 16.730 C 22.429 15.528,21.142 14.753,19.670 14.530 C 18.882 14.411,18.659 14.445,17.873 14.803 C 16.251 15.542,15.227 15.764,13.679 15.712 C 12.337 15.666,11.530 15.453,9.933 14.722 C 9.391 14.474,9.364 14.467,8.992 14.474 C 8.782 14.478,8.537 14.489,8.447 14.497 " fill="#1A1C1F" stroke="none" fill-rule="evenodd"></path></svg>