<svg width="16" height="16" viewBox="0 0 16 16" fill="none" xmlns="http://www.w3.org/2000/svg"><path d="M5.187 2.452 C 4.988 2.475,4.788 2.540,4.547 2.660 C 3.975 2.944,3.571 3.403,3.330 4.043 L 3.220 4.333 3.233 4.840 C 3.246 5.328,3.249 5.355,3.331 5.576 C 3.620 6.360,4.311 6.973,5.086 7.134 C 5.362 7.191,5.873 7.191,6.127 7.133 C 6.793 6.981,7.038 6.233,6.569 5.781 C 6.382 5.601,6.283 5.575,5.806 5.574 C 5.329 5.573,5.269 5.558,5.087 5.390 C 4.917 5.234,4.843 5.070,4.831 4.823 C 4.823 4.663,4.832 4.595,4.874 4.500 C 4.982 4.256,5.215 4.073,5.477 4.025 C 5.543 4.013,5.690 4.020,5.848 4.044 C 6.080 4.078,6.126 4.078,6.248 4.042 C 6.541 3.957,6.758 3.748,6.830 3.480 C 6.846 3.422,6.854 3.294,6.847 3.197 C 6.816 2.762,6.511 2.508,5.957 2.454 C 5.663 2.425,5.426 2.425,5.187 2.452 M9.973 2.451 C 9.779 2.478,9.576 2.546,9.347 2.660 C 8.796 2.934,8.402 3.370,8.153 3.979 L 8.042 4.253 8.032 4.673 C 8.025 4.924,8.034 5.165,8.052 5.272 C 8.181 6.008,8.811 6.755,9.541 7.036 C 9.864 7.160,10.029 7.182,10.515 7.167 C 10.915 7.154,10.964 7.146,11.176 7.068 C 11.851 6.821,12.394 6.280,12.666 5.585 L 12.773 5.311 12.773 4.800 L 12.773 4.289 12.667 4.017 C 12.377 3.275,11.774 2.706,11.067 2.507 C 10.844 2.445,10.236 2.413,9.973 2.451 M10.798 4.134 C 10.999 4.242,11.101 4.380,11.149 4.609 C 11.215 4.931,11.135 5.190,10.905 5.398 C 10.752 5.536,10.633 5.581,10.413 5.582 C 10.167 5.583,9.986 5.505,9.828 5.330 C 9.470 4.931,9.596 4.305,10.080 4.080 C 10.178 4.035,10.240 4.026,10.413 4.034 C 10.595 4.042,10.652 4.057,10.798 4.134 M3.791 8.055 C 2.688 8.191,1.785 9.100,1.648 10.213 C 1.628 10.373,1.616 10.936,1.615 11.733 L 1.613 13.000 1.676 13.120 C 1.830 13.417,2.095 13.584,2.413 13.585 C 2.571 13.586,2.622 13.574,2.741 13.509 C 2.818 13.466,2.934 13.375,2.998 13.306 C 3.179 13.112,3.190 13.020,3.226 11.370 L 3.249 10.299 3.323 10.147 C 3.420 9.950,3.570 9.798,3.745 9.717 C 3.864 9.663,3.954 9.649,4.323 9.626 C 5.167 9.573,5.307 9.554,5.420 9.475 C 5.734 9.258,5.863 8.868,5.734 8.527 C 5.668 8.353,5.506 8.171,5.347 8.094 C 5.251 8.047,5.173 8.041,4.613 8.036 C 4.269 8.033,3.899 8.042,3.791 8.055 M8.800 8.054 C 8.100 8.090,7.696 8.261,7.205 8.732 C 6.847 9.075,6.599 9.502,6.493 9.958 C 6.426 10.247,6.395 10.964,6.405 12.000 C 6.416 13.129,6.411 13.100,6.627 13.331 C 6.799 13.515,6.950 13.581,7.200 13.582 C 7.327 13.583,7.436 13.568,7.498 13.540 C 7.636 13.480,7.832 13.293,7.923 13.134 L 7.999 13.000 8.001 12.213 C 8.002 11.161,8.038 10.368,8.092 10.213 C 8.153 10.039,8.314 9.843,8.467 9.757 C 8.701 9.626,8.867 9.614,10.387 9.615 C 11.916 9.616,12.107 9.630,12.332 9.756 C 12.486 9.843,12.647 10.038,12.708 10.213 C 12.760 10.362,12.797 11.189,12.799 12.253 L 12.801 13.000 12.877 13.134 C 12.968 13.293,13.164 13.480,13.302 13.540 C 13.364 13.568,13.473 13.583,13.600 13.582 C 13.850 13.581,14.001 13.515,14.173 13.331 C 14.387 13.102,14.384 13.121,14.395 12.069 C 14.406 10.989,14.371 10.251,14.291 9.920 C 14.170 9.414,13.821 8.869,13.427 8.568 C 13.091 8.312,12.605 8.097,12.303 8.069 C 12.039 8.045,9.210 8.033,8.800 8.054 " fill="#1A1C1F" stroke="none" fill-rule="evenodd"></path></svg>