<svg width="32" height="32" viewBox="0 0 32 32" fill="none" xmlns="http://www.w3.org/2000/svg"><path d="M9.393 4.132 C 8.580 4.317,7.828 4.666,7.156 5.172 C 6.158 5.925,5.510 6.926,5.168 8.246 C 4.994 8.916,4.991 10.058,5.162 10.738 C 5.476 11.988,5.998 12.825,7.026 13.722 C 7.513 14.148,8.121 14.471,8.974 14.755 C 9.571 14.954,9.577 14.955,10.453 14.954 C 11.236 14.952,11.392 14.936,11.865 14.809 C 12.503 14.638,13.393 14.216,13.658 13.958 C 14.150 13.479,14.025 12.670,13.414 12.373 C 13.095 12.219,12.935 12.245,12.155 12.579 C 11.419 12.894,11.130 12.960,10.491 12.959 C 9.652 12.958,8.990 12.734,8.358 12.238 C 7.390 11.478,6.880 10.120,7.091 8.866 C 7.169 8.404,7.517 7.665,7.832 7.291 C 8.545 6.446,9.664 5.967,10.747 6.044 C 11.202 6.077,11.464 6.154,12.267 6.495 C 12.989 6.801,13.068 6.811,13.419 6.640 C 14.090 6.311,14.208 5.594,13.675 5.081 C 13.374 4.792,12.487 4.358,11.893 4.210 C 11.294 4.061,9.899 4.018,9.393 4.132 M20.447 4.108 C 20.048 4.180,19.451 4.404,18.919 4.682 C 17.794 5.270,16.895 6.262,16.427 7.432 C 16.103 8.241,16.037 8.587,16.037 9.493 C 16.037 10.218,16.054 10.385,16.178 10.850 C 17.088 14.270,20.843 15.961,24.004 14.375 C 24.466 14.143,24.608 14.045,25.037 13.665 C 25.659 13.112,26.068 12.597,26.378 11.973 C 27.604 9.507,26.899 6.631,24.679 5.047 C 24.205 4.708,23.286 4.279,22.845 4.188 C 22.389 4.096,20.812 4.043,20.447 4.108 M22.080 6.082 C 22.481 6.145,23.306 6.520,23.694 6.816 C 24.162 7.173,24.677 7.956,24.859 8.587 C 24.899 8.724,24.929 9.111,24.930 9.493 C 24.931 10.034,24.910 10.230,24.815 10.533 C 24.540 11.409,23.859 12.197,23.013 12.617 C 22.500 12.873,22.137 12.959,21.570 12.959 C 20.461 12.961,19.750 12.663,19.009 11.886 C 18.266 11.107,17.959 10.206,18.077 9.148 C 18.183 8.197,18.436 7.680,19.120 7.011 C 19.931 6.218,20.936 5.902,22.080 6.082 M18.293 17.069 C 17.703 17.091,17.135 17.143,16.880 17.198 C 16.088 17.368,15.411 17.708,14.773 18.253 C 14.111 18.819,13.741 19.337,13.415 20.154 C 13.080 20.994,13.062 21.177,13.029 24.012 C 12.997 26.841,13.017 27.272,13.191 27.527 C 13.406 27.843,13.565 27.920,14.000 27.920 C 14.421 27.920,14.574 27.850,14.789 27.562 C 14.955 27.341,14.982 27.047,14.985 25.440 C 14.989 23.480,15.072 21.608,15.173 21.213 C 15.377 20.414,16.003 19.684,16.808 19.308 C 17.351 19.053,17.876 19.022,21.440 19.030 C 23.156 19.034,24.837 19.058,25.175 19.082 C 25.742 19.123,25.826 19.144,26.246 19.347 C 27.016 19.720,27.561 20.324,27.789 21.059 C 27.891 21.384,27.906 21.653,27.973 24.267 C 28.019 26.051,28.069 27.200,28.108 27.333 C 28.192 27.622,28.392 27.820,28.706 27.924 C 29.162 28.076,29.659 27.860,29.881 27.413 C 29.999 27.175,30.000 27.155,29.998 24.693 C 29.996 21.597,29.948 21.101,29.548 20.067 C 29.321 19.479,29.013 19.031,28.457 18.480 C 27.768 17.797,26.948 17.352,26.083 17.194 C 25.305 17.051,20.704 16.977,18.293 17.069 M6.269 17.128 C 5.175 17.268,3.911 17.935,3.261 18.715 C 2.586 19.527,2.209 20.453,2.071 21.644 C 1.995 22.289,1.972 26.883,2.043 27.214 C 2.137 27.660,2.681 28.042,3.126 27.975 C 3.445 27.927,3.793 27.656,3.884 27.384 C 3.935 27.234,3.968 26.568,4.001 25.067 C 4.058 22.487,4.097 21.600,4.169 21.253 C 4.352 20.375,5.126 19.513,5.970 19.250 C 6.389 19.120,7.239 19.047,9.020 18.990 C 10.702 18.935,10.828 18.911,11.044 18.607 C 11.139 18.474,11.176 18.340,11.191 18.076 C 11.215 17.647,11.130 17.452,10.817 17.226 L 10.597 17.067 8.619 17.073 C 7.530 17.077,6.473 17.102,6.269 17.128 " fill="#1A1C1F" stroke="none" fill-rule="evenodd"></path></svg>