<svg width="20" height="20" viewBox="0 0 20 20" fill="none" xmlns="http://www.w3.org/2000/svg"><path d="M9.567 2.033 C 8.275 2.167,7.070 2.997,6.470 4.167 C 6.147 4.796,6.030 5.276,6.030 5.969 C 6.029 7.095,6.435 8.069,7.224 8.837 C 8.004 9.597,8.948 9.983,10.017 9.979 C 12.087 9.971,13.739 8.459,13.973 6.358 C 14.088 5.329,13.747 4.239,13.058 3.433 C 12.595 2.892,11.918 2.440,11.217 2.205 C 10.794 2.064,10.036 1.985,9.567 2.033 M10.473 4.070 C 11.123 4.207,11.788 4.873,11.934 5.535 C 11.995 5.815,11.963 6.436,11.873 6.680 C 11.662 7.258,11.177 7.717,10.585 7.898 C 9.853 8.122,9.172 7.944,8.616 7.385 C 8.213 6.981,8.034 6.555,8.034 6.000 C 8.034 5.479,8.209 5.039,8.569 4.655 C 8.973 4.224,9.395 4.035,9.957 4.034 C 10.144 4.034,10.376 4.050,10.473 4.070 M5.483 12.066 C 4.975 12.124,4.384 12.424,3.938 12.848 C 3.542 13.225,3.251 13.726,3.094 14.300 C 3.019 14.575,3.017 14.625,3.017 15.933 C 3.017 17.252,3.018 17.286,3.088 17.417 C 3.347 17.897,3.953 18.121,4.406 17.903 C 4.585 17.817,4.830 17.570,4.926 17.380 C 4.986 17.260,4.992 17.151,5.010 15.990 C 5.028 14.804,5.034 14.721,5.099 14.586 C 5.182 14.415,5.366 14.223,5.556 14.112 L 5.694 14.030 10.022 14.040 L 14.350 14.050 14.471 14.125 C 14.635 14.227,14.861 14.477,14.923 14.626 C 14.964 14.726,14.977 14.980,14.991 15.999 C 15.011 17.412,15.002 17.363,15.288 17.669 C 15.500 17.895,15.690 17.978,16.000 17.980 C 16.302 17.982,16.508 17.890,16.724 17.657 C 16.997 17.360,16.983 17.450,16.983 15.933 C 16.983 14.646,16.980 14.571,16.910 14.317 C 16.759 13.766,16.600 13.461,16.266 13.079 C 15.872 12.630,15.462 12.352,14.869 12.136 L 14.587 12.033 10.135 12.038 C 7.687 12.040,5.593 12.053,5.483 12.066 " fill="#1A1C1F" stroke="none" fill-rule="evenodd"></path></svg>