<svg width="12" height="12" viewBox="0 0 12 12" fill="none" xmlns="http://www.w3.org/2000/svg"><path d="M5.740 1.220 C 4.836 1.314,4.022 1.971,3.733 2.840 C 3.642 3.112,3.614 3.290,3.615 3.590 C 3.616 4.227,3.837 4.785,4.270 5.238 C 4.741 5.732,5.338 5.989,6.010 5.987 C 6.657 5.984,7.233 5.744,7.692 5.286 C 8.168 4.810,8.427 4.149,8.393 3.491 C 8.348 2.604,7.854 1.856,7.046 1.452 C 6.676 1.268,6.162 1.176,5.740 1.220 M6.262 2.440 C 6.572 2.497,6.898 2.748,7.053 3.050 C 7.163 3.263,7.187 3.381,7.176 3.661 C 7.165 3.926,7.136 4.025,7.008 4.233 C 6.855 4.480,6.630 4.653,6.351 4.739 C 5.920 4.870,5.506 4.765,5.179 4.442 C 4.937 4.203,4.821 3.929,4.821 3.600 C 4.821 3.288,4.926 3.023,5.141 2.793 C 5.380 2.538,5.638 2.421,5.962 2.420 C 6.068 2.420,6.203 2.429,6.262 2.440 M3.310 7.241 C 2.805 7.289,2.265 7.677,2.013 8.172 C 1.821 8.548,1.793 8.748,1.804 9.666 C 1.811 10.345,1.813 10.373,1.856 10.454 C 1.917 10.571,2.030 10.676,2.160 10.738 C 2.292 10.800,2.502 10.807,2.625 10.752 C 2.727 10.707,2.853 10.591,2.931 10.470 L 2.995 10.370 3.003 9.598 L 3.011 8.827 3.081 8.710 C 3.155 8.586,3.255 8.500,3.400 8.435 C 3.489 8.396,3.515 8.395,6.040 8.409 L 8.590 8.422 8.671 8.470 C 8.775 8.530,8.914 8.681,8.954 8.776 C 8.979 8.836,8.986 8.989,8.995 9.610 L 9.006 10.370 9.070 10.470 C 9.147 10.591,9.272 10.707,9.375 10.752 C 9.421 10.773,9.507 10.786,9.600 10.788 C 9.781 10.790,9.905 10.735,10.034 10.594 C 10.198 10.416,10.190 10.470,10.190 9.560 C 10.190 8.668,10.188 8.647,10.054 8.320 C 9.855 7.831,9.437 7.453,8.892 7.270 L 8.743 7.220 6.106 7.223 C 4.656 7.224,3.398 7.233,3.310 7.241 " fill="#1A1C1F" stroke="none" fill-rule="evenodd"></path></svg>