<svg width="16" height="16" viewBox="0 0 16 16" fill="none" xmlns="http://www.w3.org/2000/svg"><path d="M12.740 1.628 C 12.387 1.687,12.062 1.854,11.811 2.105 C 11.672 2.243,11.606 2.340,11.497 2.560 C 11.262 3.038,11.243 3.145,11.241 4.000 C 11.240 4.840,11.257 4.943,11.482 5.408 C 11.770 6.001,12.285 6.335,12.960 6.366 C 13.394 6.386,14.013 6.260,14.213 6.111 C 14.469 5.920,14.435 5.446,14.153 5.259 C 14.020 5.171,13.863 5.169,13.493 5.253 C 13.024 5.358,12.762 5.321,12.566 5.118 C 12.361 4.908,12.294 4.634,12.294 4.016 C 12.293 3.399,12.365 3.114,12.582 2.874 C 12.709 2.733,12.784 2.699,13.016 2.679 C 13.186 2.664,13.261 2.673,13.558 2.747 C 13.856 2.821,13.916 2.828,14.003 2.802 C 14.214 2.739,14.378 2.512,14.378 2.283 C 14.378 1.922,13.978 1.686,13.267 1.627 C 12.911 1.598,12.917 1.598,12.740 1.628 M6.350 1.653 C 6.101 1.712,5.903 1.966,5.934 2.187 C 5.965 2.403,6.744 5.476,6.892 5.962 C 6.952 6.162,7.036 6.268,7.200 6.354 C 7.381 6.449,7.517 6.442,7.701 6.329 C 7.860 6.230,7.908 6.120,8.146 5.293 C 8.416 4.359,8.453 4.240,8.476 4.240 C 8.488 4.240,8.601 4.597,8.727 5.033 C 8.969 5.872,9.034 6.067,9.119 6.206 C 9.238 6.400,9.565 6.467,9.789 6.344 C 9.985 6.235,9.980 6.249,10.389 4.723 C 10.740 3.413,11.005 2.355,11.025 2.184 C 11.047 2.004,10.994 1.891,10.832 1.768 C 10.671 1.646,10.531 1.613,10.348 1.654 C 10.067 1.716,10.056 1.744,9.746 3.111 C 9.634 3.607,9.533 4.023,9.521 4.035 C 9.509 4.048,9.437 3.796,9.361 3.475 C 9.149 2.583,9.019 2.090,8.953 1.926 C 8.875 1.731,8.790 1.680,8.510 1.661 C 8.308 1.647,8.295 1.649,8.180 1.729 C 8.034 1.829,8.018 1.868,7.857 2.493 C 7.449 4.079,7.456 4.053,7.430 4.024 C 7.424 4.018,7.328 3.605,7.217 3.106 C 6.989 2.083,6.931 1.884,6.834 1.781 C 6.767 1.711,6.566 1.624,6.482 1.629 C 6.459 1.631,6.399 1.642,6.350 1.653 M4.172 5.065 C 3.942 5.120,3.663 5.346,3.562 5.559 C 3.448 5.801,3.454 6.116,3.579 6.366 C 3.662 6.532,3.887 6.731,4.060 6.791 C 4.265 6.862,4.619 6.858,4.760 6.782 C 4.914 6.700,5.111 6.519,5.185 6.391 C 5.319 6.157,5.333 5.832,5.220 5.566 C 5.161 5.426,4.944 5.210,4.789 5.136 C 4.621 5.056,4.342 5.024,4.172 5.065 M4.596 7.651 C 4.345 7.715,4.112 7.948,4.036 8.210 C 3.999 8.336,3.998 8.385,4.025 8.532 C 4.064 8.744,4.500 10.067,4.691 10.552 L 4.830 10.903 5.067 11.130 C 5.470 11.513,5.701 11.590,6.551 11.623 C 6.834 11.634,7.071 11.649,7.078 11.655 C 7.084 11.662,7.275 12.100,7.502 12.627 C 8.061 13.931,8.085 13.979,8.226 14.130 C 8.562 14.489,9.131 14.474,9.416 14.097 C 9.539 13.934,9.573 13.818,9.573 13.569 C 9.573 13.371,9.571 13.364,9.164 12.425 C 8.423 10.716,8.376 10.626,8.122 10.422 C 7.929 10.266,7.593 10.088,7.450 10.065 C 7.392 10.056,7.082 10.040,6.762 10.031 L 6.181 10.013 5.894 9.173 C 5.531 8.111,5.507 8.049,5.403 7.913 C 5.245 7.705,4.865 7.581,4.596 7.651 M2.596 9.651 C 2.331 9.719,2.107 9.944,1.919 10.333 C 1.628 10.934,1.550 11.378,1.628 12.001 C 1.705 12.611,2.062 13.268,2.555 13.703 C 3.016 14.111,3.497 14.323,4.076 14.373 C 4.531 14.413,4.920 14.373,5.284 14.249 C 5.858 14.053,6.230 13.784,6.345 13.480 C 6.462 13.169,6.371 12.803,6.127 12.606 C 5.935 12.450,5.847 12.416,5.636 12.417 C 5.458 12.418,5.421 12.429,5.102 12.581 C 4.711 12.767,4.605 12.800,4.399 12.800 C 3.800 12.800,3.316 12.370,3.225 11.757 C 3.186 11.495,3.218 11.335,3.376 11.011 C 3.549 10.655,3.607 10.468,3.585 10.336 C 3.543 10.078,3.355 9.814,3.133 9.700 C 3.016 9.640,2.737 9.614,2.596 9.651 " fill="#1A1C1F" stroke="none" fill-rule="evenodd"></path></svg>