<svg width="12" height="12" viewBox="0 0 12 12" fill="none" xmlns="http://www.w3.org/2000/svg"><path d="M9.510 1.230 C 8.990 1.345,8.688 1.644,8.500 2.230 C 8.446 2.397,8.434 2.475,8.422 2.704 C 8.403 3.090,8.427 3.513,8.480 3.710 C 8.578 4.081,8.801 4.411,9.068 4.584 C 9.407 4.803,9.965 4.839,10.455 4.673 C 10.710 4.587,10.788 4.498,10.789 4.290 C 10.790 4.194,10.779 4.151,10.735 4.077 C 10.622 3.884,10.479 3.853,10.120 3.942 C 9.740 4.036,9.542 3.998,9.394 3.803 C 9.247 3.608,9.210 3.417,9.225 2.916 C 9.236 2.527,9.270 2.379,9.385 2.208 C 9.525 2.001,9.754 1.962,10.196 2.070 C 10.392 2.118,10.432 2.123,10.500 2.102 C 10.661 2.054,10.783 1.885,10.783 1.712 C 10.783 1.444,10.486 1.266,9.960 1.220 C 9.684 1.196,9.663 1.197,9.510 1.230 M4.735 1.249 C 4.618 1.290,4.519 1.377,4.476 1.475 C 4.425 1.590,4.416 1.545,4.740 2.830 C 5.151 4.462,5.197 4.617,5.293 4.704 C 5.351 4.756,5.503 4.819,5.571 4.820 C 5.653 4.820,5.831 4.729,5.877 4.663 C 5.923 4.597,5.977 4.432,6.170 3.762 C 6.253 3.472,6.331 3.216,6.343 3.194 C 6.362 3.159,6.393 3.249,6.541 3.761 C 6.788 4.618,6.817 4.687,6.961 4.761 C 7.119 4.841,7.362 4.798,7.449 4.675 C 7.514 4.584,7.771 3.666,8.113 2.305 C 8.236 1.814,8.281 1.602,8.272 1.555 C 8.253 1.454,8.189 1.365,8.090 1.302 C 7.926 1.198,7.744 1.205,7.613 1.320 C 7.530 1.393,7.504 1.479,7.332 2.230 C 7.261 2.538,7.188 2.853,7.168 2.929 L 7.133 3.068 6.938 2.275 C 6.830 1.839,6.723 1.446,6.701 1.402 C 6.647 1.296,6.569 1.258,6.377 1.245 C 6.229 1.235,6.216 1.237,6.139 1.291 C 6.094 1.322,6.045 1.372,6.029 1.402 C 6.002 1.453,5.934 1.707,5.702 2.608 C 5.604 2.991,5.589 3.037,5.572 3.018 C 5.568 3.014,5.496 2.704,5.413 2.330 C 5.241 1.562,5.198 1.413,5.125 1.336 C 5.073 1.281,4.927 1.219,4.851 1.221 C 4.829 1.221,4.776 1.234,4.735 1.249 M3.140 3.799 C 2.968 3.834,2.782 3.975,2.693 4.137 C 2.542 4.415,2.596 4.737,2.831 4.959 C 2.913 5.037,2.965 5.066,3.079 5.101 C 3.255 5.154,3.447 5.148,3.570 5.085 C 3.686 5.025,3.833 4.890,3.895 4.783 C 3.946 4.696,3.950 4.675,3.950 4.460 C 3.950 4.189,3.924 4.121,3.762 3.975 C 3.640 3.866,3.555 3.824,3.405 3.799 C 3.277 3.778,3.242 3.778,3.140 3.799 M3.418 5.746 C 3.222 5.820,3.082 5.967,3.027 6.158 C 3.000 6.251,2.998 6.288,3.018 6.397 C 3.048 6.556,3.377 7.555,3.518 7.914 L 3.622 8.178 3.800 8.347 C 4.103 8.635,4.275 8.692,4.913 8.717 C 5.125 8.725,5.303 8.736,5.308 8.741 C 5.312 8.746,5.458 9.079,5.631 9.480 C 5.804 9.882,5.979 10.282,6.020 10.370 C 6.178 10.707,6.462 10.860,6.765 10.772 C 7.002 10.703,7.143 10.526,7.183 10.248 L 7.206 10.090 7.060 9.750 C 6.545 8.546,6.341 8.103,6.239 7.962 C 6.129 7.810,5.760 7.576,5.586 7.549 C 5.544 7.542,5.313 7.531,5.073 7.523 L 4.635 7.510 4.420 6.880 C 4.129 6.031,4.138 6.054,4.069 5.956 C 3.944 5.779,3.614 5.673,3.418 5.746 M1.919 7.243 C 1.668 7.310,1.402 7.692,1.267 8.180 C 1.226 8.329,1.220 8.393,1.220 8.713 C 1.220 9.041,1.225 9.092,1.271 9.253 C 1.376 9.621,1.548 9.913,1.818 10.181 C 2.098 10.458,2.411 10.637,2.805 10.745 C 3.035 10.808,3.550 10.807,3.784 10.744 C 4.240 10.620,4.626 10.384,4.742 10.157 C 4.766 10.109,4.790 10.017,4.795 9.949 C 4.815 9.700,4.701 9.492,4.477 9.370 C 4.386 9.320,4.349 9.312,4.227 9.312 C 4.094 9.313,4.065 9.322,3.827 9.436 C 3.533 9.575,3.454 9.600,3.299 9.600 C 2.846 9.600,2.484 9.275,2.418 8.809 C 2.389 8.609,2.419 8.479,2.560 8.187 C 2.689 7.919,2.708 7.843,2.681 7.718 C 2.650 7.571,2.594 7.477,2.479 7.373 C 2.327 7.236,2.123 7.189,1.919 7.243 " fill="#1A1C1F" stroke="none" fill-rule="evenodd"></path></svg>