<svg width="28" height="28" viewBox="0 0 28 28" fill="none" xmlns="http://www.w3.org/2000/svg"><path d="M12.526 3.216 C 12.410 3.268,12.292 3.371,12.228 3.475 C 12.137 3.622,12.125 3.687,12.150 3.912 C 12.208 4.446,13.158 8.276,13.488 9.306 C 13.623 9.729,13.641 9.758,13.835 9.872 C 14.125 10.041,14.319 10.063,14.541 9.950 C 14.891 9.771,14.926 9.695,15.402 8.062 C 15.727 6.951,15.754 6.871,15.793 6.911 C 15.804 6.921,15.960 7.424,16.141 8.027 C 16.575 9.478,16.640 9.657,16.787 9.811 C 17.113 10.151,17.736 10.043,17.967 9.606 C 18.094 9.366,18.766 6.822,19.298 4.563 C 19.517 3.634,19.489 3.451,19.098 3.249 C 18.913 3.154,18.429 3.149,18.251 3.241 C 18.052 3.344,17.989 3.547,17.572 5.432 C 17.430 6.072,17.305 6.604,17.294 6.615 C 17.282 6.627,17.252 6.555,17.227 6.456 C 17.201 6.358,17.064 5.815,16.921 5.250 C 16.411 3.227,16.437 3.287,16.023 3.171 C 15.612 3.056,15.182 3.266,15.085 3.628 C 15.059 3.724,14.888 4.381,14.704 5.087 C 14.312 6.597,14.330 6.533,14.285 6.533 C 14.265 6.533,14.128 5.996,13.980 5.340 C 13.530 3.345,13.512 3.298,13.121 3.181 C 12.873 3.107,12.749 3.114,12.526 3.216 M21.614 3.220 C 21.115 3.399,20.608 3.826,20.331 4.298 C 19.906 5.025,19.727 6.366,19.901 7.513 C 20.110 8.881,20.780 9.700,21.913 9.967 C 22.687 10.150,24.068 9.889,24.335 9.509 C 24.568 9.177,24.513 8.790,24.190 8.492 C 24.012 8.328,23.962 8.307,23.757 8.307 C 23.630 8.307,23.383 8.340,23.208 8.382 C 22.761 8.487,22.237 8.485,22.011 8.378 C 21.623 8.192,21.414 7.582,21.412 6.625 C 21.411 5.683,21.545 5.191,21.889 4.881 C 22.209 4.591,22.550 4.565,23.354 4.767 C 23.832 4.887,23.973 4.860,24.212 4.600 C 24.517 4.270,24.533 3.843,24.251 3.578 C 23.910 3.257,23.391 3.126,22.473 3.128 C 21.992 3.130,21.811 3.149,21.614 3.220 M7.933 7.511 C 7.490 7.600,6.986 8.017,6.756 8.484 C 6.617 8.766,6.603 8.833,6.604 9.216 C 6.605 9.574,6.623 9.677,6.731 9.908 C 6.879 10.225,7.259 10.612,7.590 10.781 C 7.791 10.883,7.876 10.897,8.330 10.897 C 8.935 10.897,9.104 10.831,9.512 10.437 C 9.898 10.064,10.001 9.827,10.024 9.251 C 10.043 8.801,10.036 8.757,9.913 8.505 C 9.652 7.971,9.142 7.599,8.553 7.514 C 8.201 7.463,8.167 7.463,7.933 7.511 M7.228 12.755 C 6.982 12.847,6.776 13.007,6.687 13.175 C 6.569 13.398,6.580 13.798,6.711 14.010 C 6.893 14.303,7.072 14.379,7.688 14.425 C 8.548 14.489,8.494 14.447,8.743 15.227 C 8.860 15.592,9.144 16.509,9.375 17.267 C 9.606 18.024,9.840 18.790,9.896 18.970 C 9.978 19.236,10.037 19.334,10.213 19.495 L 10.428 19.693 12.135 19.693 L 13.843 19.693 14.488 21.198 C 15.379 23.274,15.681 23.901,15.848 24.020 C 16.447 24.446,17.278 24.030,17.209 23.338 C 17.184 23.088,16.891 22.332,16.109 20.504 C 15.330 18.684,15.109 18.225,14.961 18.128 C 14.794 18.019,14.102 17.973,12.595 17.969 L 11.399 17.967 11.184 17.232 C 10.862 16.131,10.851 16.260,11.274 16.224 C 11.472 16.207,12.090 16.193,12.648 16.193 L 13.662 16.193 13.850 16.006 C 14.095 15.760,14.251 15.431,14.217 15.225 C 14.184 15.019,14.027 14.772,13.838 14.628 L 13.684 14.510 12.018 14.477 L 10.352 14.443 10.209 14.070 C 10.088 13.755,10.018 13.649,9.757 13.393 C 9.260 12.904,8.895 12.769,7.933 12.719 C 7.538 12.699,7.352 12.708,7.228 12.755 M5.050 16.312 C 4.593 16.543,4.096 17.308,3.747 18.319 L 3.571 18.830 3.571 19.833 L 3.571 20.837 3.743 21.335 C 4.055 22.238,4.425 22.855,4.995 23.425 C 6.625 25.057,9.082 25.402,11.099 24.285 C 11.931 23.824,12.973 22.728,12.973 22.314 C 12.973 22.147,12.866 21.909,12.722 21.755 C 12.551 21.572,12.451 21.512,12.228 21.461 C 11.923 21.392,11.759 21.480,11.126 22.053 C 10.479 22.638,10.162 22.840,9.590 23.033 C 9.266 23.142,9.142 23.158,8.657 23.158 C 7.661 23.157,7.034 22.925,6.390 22.318 C 5.974 21.927,5.675 21.503,5.478 21.023 C 5.347 20.706,5.343 20.674,5.344 19.880 C 5.345 18.937,5.397 18.725,5.776 18.107 C 6.213 17.394,6.264 17.269,6.237 16.989 C 6.208 16.702,6.116 16.554,5.852 16.370 C 5.577 16.178,5.349 16.161,5.050 16.312 " fill="#1A1C1F" stroke="none" fill-rule="evenodd"></path></svg>