<svg width="20" height="20" viewBox="0 0 20 20" fill="none" xmlns="http://www.w3.org/2000/svg"><path d="M7.892 2.081 C 7.697 2.150,7.532 2.295,7.459 2.459 C 7.376 2.648,7.367 2.602,7.822 4.414 C 8.331 6.441,8.627 7.531,8.710 7.682 C 8.816 7.873,9.058 8.014,9.280 8.014 C 9.542 8.014,9.749 7.881,9.854 7.645 C 9.918 7.500,10.190 6.605,10.507 5.500 C 10.593 5.200,10.594 5.202,10.905 6.280 C 11.336 7.776,11.404 7.913,11.761 7.999 C 12.043 8.066,12.344 7.940,12.464 7.704 C 12.617 7.405,13.773 2.973,13.779 2.661 C 13.784 2.436,13.725 2.337,13.488 2.177 C 13.287 2.040,13.079 2.007,12.888 2.080 C 12.572 2.201,12.546 2.267,12.168 3.950 C 12.036 4.537,11.916 5.029,11.901 5.044 C 11.887 5.059,11.797 4.744,11.701 4.344 C 11.436 3.229,11.273 2.612,11.191 2.407 C 11.094 2.163,10.988 2.100,10.633 2.075 C 10.381 2.058,10.360 2.062,10.231 2.151 C 10.157 2.203,10.073 2.288,10.046 2.341 C 10.019 2.393,9.855 2.987,9.683 3.660 C 9.309 5.114,9.331 5.033,9.303 5.033 C 9.290 5.033,9.165 4.519,9.024 3.890 C 8.734 2.598,8.664 2.355,8.542 2.226 C 8.456 2.135,8.211 2.032,8.086 2.035 C 8.048 2.036,7.960 2.056,7.892 2.081 M15.667 2.082 C 15.423 2.152,15.334 2.195,15.091 2.356 C 14.491 2.755,14.094 3.562,14.037 4.497 C 14.001 5.100,14.042 5.822,14.134 6.167 C 14.495 7.534,15.464 8.148,16.894 7.916 C 17.451 7.826,17.813 7.668,17.915 7.470 C 18.103 7.106,17.902 6.599,17.528 6.499 C 17.410 6.467,17.324 6.475,16.953 6.552 C 16.432 6.661,16.097 6.674,15.943 6.591 C 15.663 6.439,15.467 6.116,15.399 5.694 C 15.335 5.293,15.372 4.344,15.463 4.062 C 15.559 3.761,15.716 3.538,15.897 3.444 C 16.108 3.333,16.521 3.337,17.010 3.454 C 17.419 3.552,17.542 3.539,17.729 3.382 C 17.940 3.204,18.035 2.827,17.922 2.612 C 17.804 2.385,17.440 2.174,17.014 2.083 C 16.724 2.022,15.880 2.021,15.667 2.082 M5.215 6.331 C 4.928 6.400,4.579 6.683,4.453 6.949 C 4.309 7.251,4.318 7.645,4.474 7.958 C 4.577 8.165,4.859 8.414,5.075 8.489 C 5.332 8.578,5.773 8.572,5.950 8.478 C 6.143 8.375,6.388 8.149,6.484 7.986 C 6.639 7.721,6.648 7.189,6.502 6.904 C 6.426 6.754,6.154 6.500,5.984 6.419 C 5.776 6.321,5.426 6.281,5.215 6.331 M5.744 9.563 C 5.431 9.644,5.140 9.935,5.045 10.263 C 4.999 10.420,4.997 10.481,5.031 10.665 C 5.080 10.930,5.625 12.584,5.864 13.190 L 6.037 13.629 6.334 13.912 C 6.838 14.391,7.126 14.487,8.189 14.529 C 8.542 14.542,8.838 14.560,8.846 14.569 C 8.854 14.577,9.126 15.198,9.450 15.950 C 9.775 16.702,10.068 17.369,10.101 17.433 C 10.181 17.588,10.414 17.808,10.600 17.904 C 10.718 17.965,10.803 17.982,11.000 17.982 C 11.299 17.982,11.495 17.905,11.689 17.711 C 11.868 17.532,11.940 17.362,11.969 17.050 L 11.994 16.783 11.659 16.000 C 11.079 14.643,10.585 13.557,10.458 13.360 C 10.391 13.255,10.249 13.102,10.143 13.018 C 9.901 12.827,9.486 12.609,9.314 12.582 C 9.242 12.571,8.855 12.551,8.455 12.539 L 7.726 12.517 7.351 11.413 C 6.839 9.905,6.794 9.817,6.455 9.651 C 6.265 9.558,5.927 9.516,5.744 9.563 M3.214 12.065 C 2.863 12.149,2.456 12.644,2.233 13.260 C 1.950 14.043,1.931 14.800,2.174 15.567 C 2.362 16.157,2.590 16.527,3.048 16.985 C 3.503 17.440,3.996 17.734,4.555 17.885 C 4.818 17.956,5.438 17.994,5.867 17.966 C 6.489 17.926,7.286 17.597,7.682 17.216 C 8.203 16.716,8.067 15.928,7.400 15.581 C 7.318 15.538,7.212 15.521,7.045 15.521 C 6.822 15.522,6.776 15.537,6.378 15.726 C 5.888 15.958,5.756 16.000,5.499 16.000 C 4.750 16.001,4.144 15.463,4.031 14.695 C 3.981 14.361,4.018 14.191,4.249 13.700 C 4.490 13.186,4.519 13.063,4.456 12.822 C 4.357 12.445,4.128 12.194,3.770 12.072 C 3.646 12.030,3.375 12.026,3.214 12.065 " fill="#1A1C1F" stroke="none" fill-rule="evenodd"></path></svg>