<svg width="24" height="24" viewBox="0 0 24 24" fill="none" xmlns="http://www.w3.org/2000/svg"><path d="M19.718 2.560 C 18.583 2.741,17.824 3.729,17.707 5.176 C 17.646 5.942,17.715 6.776,17.883 7.292 C 18.152 8.118,18.660 8.643,19.420 8.880 C 20.036 9.071,21.134 8.960,21.674 8.651 C 21.895 8.525,22.021 8.270,21.983 8.031 C 21.950 7.821,21.827 7.587,21.697 7.485 C 21.525 7.349,21.365 7.344,20.798 7.456 C 20.508 7.513,20.213 7.560,20.142 7.560 C 19.680 7.560,19.309 7.186,19.195 6.605 C 19.130 6.274,19.131 5.305,19.197 4.963 C 19.263 4.617,19.398 4.364,19.622 4.167 C 19.753 4.052,19.857 3.996,19.979 3.978 C 20.180 3.948,20.619 4.009,21.034 4.125 C 21.196 4.170,21.369 4.196,21.418 4.184 C 21.564 4.147,21.871 3.850,21.922 3.694 C 21.989 3.492,21.949 3.226,21.829 3.068 C 21.706 2.907,21.339 2.705,21.017 2.620 C 20.728 2.544,20.020 2.511,19.718 2.560 M11.020 2.594 C 10.976 2.608,10.886 2.653,10.820 2.693 C 10.430 2.932,10.438 3.134,10.914 5.020 C 11.296 6.532,11.751 8.218,11.858 8.517 C 11.939 8.744,11.986 8.797,12.180 8.885 C 12.457 9.012,12.816 8.957,12.999 8.761 C 13.107 8.646,13.271 8.162,13.663 6.814 C 13.846 6.182,13.898 6.043,13.933 6.081 C 13.943 6.092,14.086 6.568,14.252 7.140 C 14.705 8.703,14.761 8.821,15.103 8.916 C 15.334 8.980,15.474 8.970,15.669 8.876 C 15.945 8.742,15.931 8.781,16.616 6.180 C 17.337 3.435,17.377 3.257,17.306 3.064 C 17.239 2.880,17.156 2.779,16.996 2.684 C 16.642 2.475,16.201 2.565,16.041 2.878 C 15.970 3.018,15.664 4.271,15.418 5.430 C 15.380 5.611,15.336 5.760,15.322 5.760 C 15.307 5.760,15.145 5.170,14.962 4.450 C 14.778 3.729,14.602 3.072,14.570 2.990 C 14.449 2.681,14.109 2.513,13.776 2.597 C 13.512 2.663,13.384 2.766,13.289 2.989 C 13.227 3.135,12.798 4.796,12.575 5.760 C 12.553 5.854,12.550 5.855,12.520 5.779 C 12.503 5.735,12.361 5.129,12.204 4.433 C 12.046 3.737,11.890 3.085,11.855 2.984 C 11.779 2.761,11.639 2.653,11.358 2.600 C 11.130 2.556,11.135 2.556,11.020 2.594 M6.474 5.564 C 6.093 5.622,5.659 5.970,5.457 6.382 C 5.351 6.598,5.341 6.657,5.342 7.020 C 5.344 7.378,5.355 7.443,5.456 7.637 C 5.598 7.912,5.922 8.236,6.180 8.361 C 6.351 8.444,6.439 8.459,6.781 8.459 C 7.153 8.460,7.201 8.451,7.446 8.330 C 7.768 8.171,8.005 7.924,8.169 7.574 C 8.391 7.098,8.326 6.595,7.983 6.128 C 7.789 5.865,7.505 5.665,7.240 5.605 C 6.986 5.547,6.691 5.532,6.474 5.564 M6.842 10.589 C 6.444 10.730,6.155 11.182,6.217 11.569 C 6.279 11.959,7.222 15.230,7.441 15.812 C 7.545 16.092,7.740 16.298,8.017 16.421 C 8.213 16.509,8.272 16.512,9.674 16.532 C 10.473 16.542,11.143 16.567,11.163 16.587 C 11.183 16.607,11.543 17.469,11.963 18.502 C 13.056 21.189,13.060 21.195,13.460 21.385 C 14.078 21.677,14.816 21.227,14.815 20.560 C 14.815 20.282,14.709 19.978,13.981 18.160 C 12.871 15.386,12.716 15.069,12.331 14.775 C 12.077 14.581,11.869 14.553,10.528 14.530 C 9.622 14.515,9.302 14.497,9.264 14.459 C 9.202 14.396,9.045 13.949,8.518 12.332 C 8.291 11.634,8.071 11.029,8.019 10.959 C 7.887 10.780,7.692 10.647,7.463 10.579 C 7.218 10.506,7.071 10.508,6.842 10.589 M3.244 13.872 C 2.730 14.401,2.358 15.096,2.132 15.951 C 2.045 16.280,2.029 16.433,2.025 16.940 C 2.019 17.628,2.080 17.969,2.322 18.609 C 2.745 19.728,3.732 20.719,4.860 21.157 C 5.512 21.410,5.800 21.460,6.580 21.457 C 7.184 21.455,7.304 21.443,7.651 21.349 C 8.672 21.074,9.770 20.317,9.919 19.785 C 10.083 19.198,9.684 18.591,9.072 18.500 C 8.811 18.461,8.678 18.515,8.107 18.898 C 7.387 19.380,7.006 19.503,6.340 19.470 C 5.719 19.440,5.201 19.200,4.729 18.724 C 4.234 18.225,4.042 17.791,4.010 17.100 C 3.979 16.417,4.116 16.010,4.606 15.331 C 4.902 14.921,4.960 14.783,4.960 14.491 C 4.959 14.243,4.836 13.917,4.695 13.792 C 4.516 13.634,4.270 13.562,3.904 13.561 L 3.548 13.560 3.244 13.872 " fill="#1A1C1F" stroke="none" fill-rule="evenodd"></path></svg>