<svg width="32" height="32" viewBox="0 0 32 32" fill="none" xmlns="http://www.w3.org/2000/svg"><path d="M14.298 3.684 C 14.073 3.822,13.940 3.978,13.868 4.190 C 13.821 4.325,13.853 4.532,14.054 5.390 C 14.503 7.315,15.376 10.612,15.539 11.004 C 15.595 11.137,15.690 11.222,15.898 11.326 C 16.234 11.493,16.365 11.500,16.629 11.366 C 17.017 11.168,17.061 11.071,17.603 9.214 C 17.973 7.944,18.004 7.853,18.049 7.898 C 18.061 7.910,18.240 8.484,18.446 9.173 C 18.943 10.832,19.017 11.036,19.185 11.212 C 19.556 11.599,20.284 11.476,20.535 10.983 C 20.752 10.558,22.200 4.837,22.208 4.373 C 22.214 4.034,22.105 3.846,21.825 3.711 C 21.601 3.603,21.058 3.601,20.853 3.707 C 20.648 3.813,20.532 4.184,20.109 6.083 C 19.929 6.888,19.776 7.570,19.768 7.598 C 19.759 7.626,19.651 7.242,19.528 6.745 C 19.098 5.012,18.815 3.973,18.743 3.858 C 18.703 3.795,18.548 3.703,18.398 3.653 C 18.037 3.533,17.709 3.581,17.472 3.789 C 17.311 3.931,17.272 4.030,17.044 4.892 C 16.906 5.414,16.698 6.199,16.582 6.637 C 16.377 7.409,16.343 7.509,16.299 7.462 C 16.288 7.450,16.143 6.840,15.978 6.107 C 15.457 3.796,15.439 3.753,14.962 3.633 C 14.628 3.549,14.505 3.558,14.298 3.684 M24.701 3.680 C 23.589 4.080,22.833 5.220,22.721 6.667 C 22.653 7.543,22.732 8.859,22.877 9.280 C 23.405 10.814,24.444 11.536,26.000 11.447 C 26.845 11.399,27.609 11.155,27.811 10.868 C 28.078 10.488,28.015 10.045,27.646 9.705 C 27.442 9.518,27.385 9.493,27.151 9.493 C 27.006 9.493,26.723 9.532,26.523 9.579 C 26.013 9.699,25.413 9.697,25.155 9.574 C 24.712 9.363,24.475 8.668,24.472 7.570 C 24.470 6.493,24.622 5.933,25.015 5.578 C 25.382 5.247,25.772 5.217,26.691 5.448 C 27.237 5.585,27.397 5.554,27.671 5.257 C 28.019 4.880,28.038 4.392,27.716 4.089 C 27.325 3.722,26.733 3.572,25.684 3.575 C 25.134 3.577,24.926 3.599,24.701 3.680 M8.656 8.745 C 8.277 8.937,7.862 9.359,7.673 9.745 C 7.568 9.960,7.549 10.083,7.549 10.533 C 7.549 11.214,7.644 11.424,8.187 11.940 C 8.660 12.389,8.833 12.454,9.573 12.453 C 10.201 12.452,10.398 12.372,10.869 11.928 C 11.300 11.519,11.429 11.232,11.455 10.613 C 11.473 10.194,11.457 10.056,11.366 9.813 C 11.216 9.415,10.857 9.020,10.444 8.798 C 10.133 8.630,10.064 8.615,9.547 8.597 C 9.007 8.579,8.974 8.585,8.656 8.745 M8.253 14.579 C 7.886 14.717,7.690 14.911,7.598 15.226 C 7.501 15.560,7.532 15.817,7.700 16.063 C 7.884 16.334,8.141 16.432,8.814 16.486 C 9.770 16.563,9.708 16.514,9.992 17.402 C 10.125 17.819,10.450 18.868,10.714 19.733 C 10.978 20.599,11.246 21.475,11.310 21.680 C 11.404 21.984,11.471 22.096,11.671 22.280 L 11.918 22.507 13.869 22.507 L 15.820 22.507 16.526 24.147 C 16.914 25.049,17.392 26.134,17.589 26.557 C 17.903 27.235,17.974 27.348,18.175 27.489 C 18.801 27.929,19.742 27.416,19.668 26.675 C 19.639 26.386,19.306 25.526,18.410 23.433 C 17.519 21.349,17.267 20.829,17.097 20.717 C 16.909 20.594,16.105 20.541,14.367 20.537 L 13.028 20.533 12.782 19.693 C 12.414 18.435,12.401 18.582,12.884 18.541 C 13.111 18.522,13.817 18.507,14.454 18.507 L 15.611 18.507 15.882 18.221 C 16.198 17.886,16.300 17.603,16.217 17.293 C 16.140 17.009,15.873 16.707,15.637 16.638 C 15.527 16.606,14.645 16.565,13.636 16.544 L 11.831 16.507 11.667 16.080 C 11.529 15.720,11.449 15.599,11.151 15.307 C 10.583 14.747,10.165 14.593,9.067 14.536 C 8.606 14.513,8.403 14.523,8.253 14.579 M5.768 18.646 C 5.251 18.904,4.681 19.782,4.283 20.935 L 4.081 21.520 4.081 22.667 L 4.081 23.813 4.283 24.400 C 4.653 25.470,5.073 26.138,5.847 26.884 C 7.343 28.326,9.404 28.851,11.352 28.286 C 12.423 27.976,13.096 27.587,13.899 26.814 C 14.593 26.145,14.796 25.841,14.796 25.469 C 14.796 24.954,14.350 24.518,13.815 24.510 C 13.509 24.506,13.398 24.579,12.588 25.317 C 11.642 26.178,10.929 26.475,9.813 26.475 C 8.718 26.475,8.009 26.191,7.266 25.451 C 6.729 24.917,6.432 24.494,6.248 24.001 C 6.139 23.709,6.114 23.530,6.094 22.880 C 6.059 21.765,6.193 21.291,6.819 20.324 C 7.100 19.891,7.171 19.656,7.122 19.325 C 7.091 19.115,7.040 19.025,6.851 18.843 C 6.641 18.641,6.354 18.508,6.130 18.507 C 6.085 18.507,5.922 18.569,5.768 18.646 " fill="#1A1C1F" stroke="none" fill-rule="evenodd"></path></svg>