<svg width="14" height="14" viewBox="0 0 14 14" fill="none" xmlns="http://www.w3.org/2000/svg"><path d="M5.524 1.457 C 5.388 1.505,5.272 1.607,5.221 1.721 C 5.180 1.815,5.178 1.841,5.203 1.969 C 5.260 2.268,5.922 4.862,6.030 5.215 C 6.083 5.388,6.144 5.472,6.268 5.545 C 6.505 5.684,6.789 5.597,6.897 5.353 C 6.941 5.254,7.183 4.460,7.355 3.850 C 7.415 3.639,7.416 3.642,7.631 4.388 C 7.920 5.391,7.953 5.468,8.124 5.555 C 8.346 5.668,8.638 5.583,8.729 5.380 C 8.833 5.143,9.609 2.227,9.650 1.915 C 9.688 1.628,9.369 1.377,9.054 1.447 C 8.813 1.501,8.797 1.540,8.554 2.602 C 8.471 2.961,8.385 3.329,8.362 3.418 C 8.324 3.570,8.319 3.577,8.303 3.512 C 8.293 3.473,8.190 3.056,8.075 2.585 C 7.959 2.113,7.843 1.686,7.817 1.634 C 7.754 1.511,7.659 1.465,7.441 1.452 C 7.277 1.442,7.257 1.446,7.166 1.506 C 7.111 1.542,7.051 1.602,7.032 1.638 C 7.013 1.675,6.899 2.091,6.778 2.562 C 6.516 3.582,6.532 3.523,6.511 3.523 C 6.502 3.523,6.415 3.164,6.316 2.724 C 6.115 1.823,6.065 1.649,5.980 1.559 C 5.919 1.494,5.748 1.422,5.660 1.424 C 5.633 1.425,5.572 1.439,5.524 1.457 M10.973 1.459 C 10.308 1.638,9.894 2.259,9.820 3.187 C 9.753 4.032,9.926 4.711,10.312 5.117 C 10.500 5.314,10.652 5.411,10.908 5.497 C 11.247 5.610,11.779 5.594,12.187 5.458 C 12.486 5.359,12.586 5.246,12.587 5.005 C 12.589 4.774,12.445 4.584,12.235 4.540 C 12.189 4.530,12.032 4.551,11.806 4.598 C 11.303 4.701,11.148 4.673,10.965 4.445 C 10.791 4.228,10.745 3.990,10.763 3.402 C 10.771 3.149,10.789 2.952,10.811 2.875 C 10.864 2.690,10.971 2.517,11.082 2.438 C 11.172 2.374,11.199 2.368,11.408 2.360 C 11.593 2.354,11.683 2.364,11.899 2.416 C 12.194 2.486,12.278 2.478,12.410 2.367 C 12.558 2.243,12.624 1.979,12.546 1.828 C 12.463 1.670,12.208 1.522,11.910 1.458 C 11.699 1.414,11.140 1.414,10.973 1.459 M3.652 4.432 C 3.613 4.441,3.537 4.472,3.481 4.501 C 2.988 4.754,2.893 5.402,3.296 5.778 C 3.468 5.939,3.585 5.983,3.850 5.983 C 4.018 5.983,4.093 5.973,4.160 5.940 C 4.282 5.881,4.470 5.707,4.539 5.590 C 4.647 5.405,4.653 5.032,4.551 4.833 C 4.498 4.728,4.308 4.550,4.189 4.493 C 4.043 4.424,3.797 4.396,3.652 4.432 M4.021 6.694 C 3.802 6.751,3.598 6.954,3.531 7.184 C 3.500 7.293,3.498 7.337,3.521 7.464 C 3.556 7.649,3.940 8.814,4.105 9.233 L 4.226 9.540 4.434 9.738 C 4.787 10.075,4.983 10.141,5.716 10.169 C 5.972 10.179,6.187 10.192,6.192 10.198 C 6.198 10.204,6.388 10.639,6.615 11.165 C 6.842 11.691,7.047 12.158,7.071 12.203 C 7.126 12.311,7.290 12.465,7.420 12.533 C 7.503 12.576,7.562 12.587,7.700 12.587 C 7.909 12.587,8.047 12.533,8.183 12.397 C 8.322 12.258,8.363 12.154,8.372 11.912 L 8.380 11.702 8.020 10.873 C 7.365 9.366,7.325 9.290,7.100 9.113 C 6.930 8.979,6.640 8.826,6.520 8.807 C 6.470 8.800,6.199 8.786,5.918 8.777 L 5.408 8.762 5.157 8.027 C 4.840 7.098,4.819 7.043,4.728 6.924 C 4.589 6.742,4.256 6.634,4.021 6.694 M2.239 8.450 C 1.946 8.529,1.636 8.974,1.478 9.543 C 1.430 9.718,1.423 9.792,1.423 10.165 C 1.423 10.548,1.429 10.608,1.482 10.795 C 1.552 11.039,1.685 11.328,1.822 11.531 C 1.954 11.728,2.282 12.050,2.493 12.189 C 3.113 12.600,3.881 12.708,4.583 12.483 C 5.018 12.343,5.397 12.097,5.516 11.878 C 5.761 11.425,5.429 10.859,4.921 10.863 C 4.782 10.864,4.738 10.878,4.466 11.007 C 4.122 11.171,4.030 11.200,3.849 11.200 C 3.325 11.200,2.904 10.826,2.820 10.286 C 2.785 10.058,2.821 9.899,2.984 9.561 C 3.135 9.249,3.160 9.152,3.128 9.004 C 3.092 8.833,3.027 8.723,2.892 8.602 C 2.714 8.442,2.477 8.387,2.239 8.450 " fill="#1A1C1F" stroke="none" fill-rule="evenodd"></path></svg>