<svg width="28" height="28" viewBox="0 0 28 28" fill="none" xmlns="http://www.w3.org/2000/svg"><path d="M20.239 1.841 C 20.012 1.922,19.886 2.034,19.793 2.240 C 19.733 2.372,19.716 2.636,19.702 3.623 L 19.685 4.843 19.164 4.923 C 17.794 5.131,16.544 5.562,16.337 5.898 C 16.124 6.241,16.177 6.657,16.470 6.950 C 16.762 7.242,16.901 7.255,17.635 7.062 C 19.092 6.678,19.140 6.670,20.137 6.641 C 21.561 6.600,22.033 6.665,23.749 7.138 C 24.169 7.253,24.375 7.211,24.644 6.955 C 24.948 6.665,24.994 6.231,24.759 5.876 C 24.534 5.536,23.652 5.222,22.218 4.972 C 21.848 4.907,21.535 4.844,21.522 4.831 C 21.510 4.818,21.481 4.269,21.458 3.610 C 21.414 2.296,21.391 2.187,21.122 1.987 C 20.837 1.776,20.553 1.729,20.239 1.841 M17.650 8.824 C 17.429 8.891,17.146 9.191,17.107 9.399 C 17.023 9.848,17.210 10.211,17.627 10.407 C 18.003 10.584,18.431 10.437,18.671 10.050 C 18.887 9.700,18.762 9.131,18.423 8.921 C 18.238 8.807,17.861 8.760,17.650 8.824 M22.841 8.858 C 22.319 9.103,22.175 9.702,22.527 10.167 C 22.661 10.344,22.961 10.498,23.170 10.498 C 23.473 10.498,23.874 10.215,23.984 9.925 C 24.243 9.240,23.502 8.549,22.841 8.858 M7.553 9.708 C 6.899 9.786,5.917 10.298,5.292 10.887 C 4.743 11.405,4.391 11.974,4.103 12.810 C 4.000 13.109,3.991 13.207,3.993 13.977 C 3.995 14.714,4.009 14.859,4.102 15.164 C 4.498 16.458,5.414 17.501,6.589 17.996 C 7.223 18.264,7.595 18.340,8.271 18.340 C 9.000 18.340,9.448 18.256,9.995 18.016 C 10.960 17.593,11.757 16.857,12.194 15.983 C 13.065 14.246,12.724 12.231,11.330 10.871 C 10.790 10.344,9.909 9.862,9.302 9.760 C 8.910 9.694,7.915 9.664,7.553 9.708 M20.180 9.746 C 19.948 9.854,19.804 10.029,19.736 10.283 C 19.605 10.769,19.911 11.228,20.453 11.358 C 20.938 11.475,21.504 10.872,21.397 10.353 C 21.351 10.130,21.165 9.862,20.995 9.774 C 20.763 9.654,20.402 9.641,20.180 9.746 M8.960 11.489 C 9.615 11.643,10.345 12.234,10.635 12.845 C 11.138 13.904,10.952 14.995,10.127 15.821 C 9.561 16.387,8.892 16.649,8.143 16.597 C 7.462 16.550,6.919 16.296,6.461 15.811 C 5.961 15.281,5.740 14.725,5.740 14.000 C 5.740 13.306,5.958 12.735,6.416 12.234 C 7.061 11.526,7.977 11.258,8.960 11.489 M16.765 11.437 C 16.518 11.511,16.303 11.765,16.237 12.059 C 16.187 12.282,16.190 12.344,16.259 12.526 C 16.352 12.769,16.578 12.986,16.824 13.067 C 17.184 13.186,17.642 12.997,17.808 12.662 C 17.919 12.437,17.921 12.027,17.812 11.820 C 17.658 11.528,17.119 11.331,16.765 11.437 M23.810 11.437 C 23.490 11.534,23.194 11.956,23.194 12.317 C 23.193 12.485,23.361 12.802,23.508 12.910 C 24.014 13.281,24.667 13.106,24.852 12.549 C 24.905 12.387,24.920 12.249,24.898 12.105 C 24.828 11.633,24.278 11.296,23.810 11.437 M20.230 12.359 C 19.660 12.632,19.534 13.280,19.967 13.714 C 20.401 14.148,21.059 14.050,21.308 13.514 C 21.442 13.228,21.448 13.015,21.329 12.755 C 21.152 12.365,20.619 12.173,20.230 12.359 M15.740 14.158 C 15.530 14.306,15.418 14.461,15.357 14.688 C 15.295 14.917,15.323 15.071,15.475 15.337 C 15.679 15.696,16.151 15.823,16.553 15.629 C 16.850 15.485,17.001 15.263,17.022 14.940 C 17.057 14.403,16.707 14.044,16.151 14.049 C 15.957 14.051,15.851 14.079,15.740 14.158 M24.523 14.131 C 24.335 14.251,24.238 14.366,24.152 14.572 C 23.856 15.279,24.617 15.972,25.317 15.633 C 25.624 15.485,25.782 15.231,25.780 14.891 C 25.778 14.578,25.683 14.380,25.450 14.202 C 25.224 14.030,24.741 13.992,24.523 14.131 M20.265 14.937 C 20.018 15.011,19.803 15.265,19.737 15.559 C 19.687 15.782,19.690 15.844,19.759 16.026 C 19.903 16.402,20.302 16.650,20.682 16.599 C 20.933 16.566,21.200 16.379,21.308 16.162 C 21.419 15.937,21.421 15.527,21.312 15.320 C 21.158 15.028,20.619 14.831,20.265 14.937 M4.774 20.209 C 4.417 20.256,4.137 20.377,3.757 20.648 C 3.233 21.022,3.060 21.416,2.664 23.138 C 2.283 24.792,2.179 25.393,2.236 25.605 C 2.290 25.806,2.563 26.100,2.768 26.177 C 3.096 26.301,3.566 26.161,3.747 25.885 C 3.856 25.718,3.983 25.258,4.295 23.893 C 4.682 22.205,4.734 22.036,4.891 21.969 C 5.035 21.907,11.208 21.889,11.581 21.949 C 11.764 21.979,11.809 22.008,11.868 22.134 C 11.933 22.274,12.073 22.826,12.552 24.831 C 12.660 25.282,12.794 25.733,12.849 25.834 C 13.066 26.226,13.641 26.337,14.050 26.066 C 14.433 25.813,14.479 25.519,14.281 24.570 C 14.019 23.312,13.581 21.589,13.461 21.342 C 13.297 21.006,12.827 20.579,12.379 20.360 L 12.017 20.183 8.540 20.177 C 6.628 20.174,4.933 20.188,4.774 20.209 " fill="#1A1C1F" stroke="none" fill-rule="evenodd"></path></svg>