<svg width="24" height="24" viewBox="0 0 24 24" fill="none" xmlns="http://www.w3.org/2000/svg"><path d="M16.568 2.125 C 16.368 2.224,16.187 2.395,16.090 2.574 C 16.032 2.682,16.018 2.894,15.995 4.080 C 15.980 4.839,15.966 5.480,15.964 5.505 C 15.962 5.532,15.816 5.560,15.590 5.577 C 14.773 5.639,13.409 5.867,12.850 6.037 C 12.458 6.156,12.273 6.283,12.139 6.527 C 11.867 7.020,12.059 7.615,12.580 7.892 C 12.807 8.013,13.121 7.999,13.960 7.827 C 14.968 7.622,15.260 7.600,17.000 7.600 C 18.740 7.600,19.032 7.622,20.040 7.827 C 21.114 8.047,21.378 8.022,21.706 7.674 C 21.907 7.459,21.975 7.290,21.975 7.000 C 21.974 6.545,21.702 6.190,21.254 6.060 C 20.688 5.895,19.129 5.629,18.425 5.577 L 18.040 5.549 18.039 5.345 C 18.038 5.232,18.021 4.596,18.001 3.931 C 17.971 2.931,17.953 2.697,17.897 2.579 C 17.819 2.415,17.560 2.189,17.348 2.101 C 17.134 2.011,16.775 2.023,16.568 2.125 M6.580 7.072 C 5.610 7.359,4.764 8.078,4.335 8.982 C 4.090 9.496,4.029 9.790,4.028 10.460 C 4.027 10.997,4.033 11.037,4.170 11.440 C 4.587 12.672,5.479 13.511,6.703 13.822 C 7.484 14.020,8.262 13.933,9.020 13.562 C 9.870 13.146,10.531 12.388,10.824 11.493 C 10.935 11.156,10.940 11.108,10.939 10.420 C 10.937 9.615,10.904 9.445,10.651 8.942 C 10.200 8.046,9.540 7.467,8.560 7.108 C 8.240 6.991,6.935 6.967,6.580 7.072 M8.052 9.066 C 8.323 9.153,8.684 9.498,8.844 9.822 C 8.964 10.066,8.969 10.094,8.952 10.468 C 8.938 10.797,8.917 10.894,8.824 11.075 C 8.670 11.374,8.392 11.659,8.125 11.789 C 7.924 11.888,7.858 11.899,7.500 11.898 C 7.142 11.896,7.077 11.884,6.884 11.784 C 6.619 11.647,6.340 11.367,6.180 11.077 C 6.067 10.873,6.060 10.834,6.060 10.420 C 6.060 10.033,6.072 9.957,6.157 9.791 C 6.348 9.417,6.778 9.083,7.174 9.000 C 7.387 8.955,7.806 8.987,8.052 9.066 M13.580 9.113 C 13.225 9.279,12.958 9.760,13.017 10.129 C 13.148 10.948,14.118 11.268,14.687 10.680 C 15.149 10.203,15.066 9.528,14.504 9.182 C 14.250 9.026,13.832 8.994,13.580 9.113 M19.580 9.113 C 19.225 9.279,18.958 9.760,19.017 10.129 C 19.148 10.948,20.118 11.268,20.687 10.680 C 21.149 10.203,21.066 9.528,20.504 9.182 C 20.250 9.026,19.832 8.994,19.580 9.113 M16.729 9.557 C 16.524 9.609,16.294 9.791,16.151 10.014 C 16.036 10.193,16.020 10.251,16.022 10.479 C 16.024 10.796,16.116 10.992,16.372 11.229 C 16.728 11.556,17.258 11.561,17.647 11.240 C 18.013 10.939,18.072 10.294,17.772 9.889 C 17.583 9.634,17.069 9.471,16.729 9.557 M12.580 12.113 C 12.225 12.279,11.958 12.760,12.017 13.129 C 12.148 13.948,13.118 14.268,13.687 13.680 C 14.149 13.203,14.066 12.528,13.504 12.182 C 13.250 12.026,12.832 11.994,12.580 12.113 M20.580 12.113 C 20.225 12.279,19.958 12.760,20.017 13.129 C 20.148 13.948,21.118 14.268,21.687 13.680 C 22.149 13.203,22.066 12.528,21.504 12.182 C 21.250 12.026,20.832 11.994,20.580 12.113 M16.729 12.557 C 16.524 12.609,16.294 12.791,16.151 13.014 C 16.036 13.193,16.020 13.251,16.022 13.479 C 16.024 13.796,16.116 13.992,16.372 14.229 C 16.728 14.556,17.258 14.561,17.647 14.240 C 18.013 13.939,18.072 13.294,17.772 12.889 C 17.583 12.634,17.069 12.471,16.729 12.557 M4.660 16.076 C 4.287 16.101,4.174 16.126,3.920 16.238 C 3.472 16.436,3.213 16.616,2.880 16.960 C 2.528 17.325,2.359 17.591,2.163 18.093 L 2.020 18.460 2.009 19.869 C 1.996 21.429,1.988 21.377,2.260 21.648 C 2.525 21.911,2.930 22.043,3.228 21.963 C 3.442 21.906,3.720 21.712,3.835 21.541 C 3.938 21.388,3.929 21.494,4.034 19.360 C 4.071 18.597,4.093 18.515,4.327 18.292 C 4.576 18.054,4.460 18.063,7.515 18.048 L 10.329 18.035 10.543 18.177 C 10.926 18.431,10.962 18.579,10.997 20.060 C 11.029 21.368,11.047 21.457,11.340 21.715 C 11.549 21.898,11.730 21.967,12.003 21.965 C 12.394 21.963,12.708 21.771,12.890 21.420 C 12.966 21.273,12.974 21.175,12.990 20.220 C 13.012 18.904,12.971 18.409,12.805 17.980 C 12.494 17.175,11.861 16.539,11.034 16.197 L 10.751 16.081 7.925 16.064 C 6.371 16.055,4.902 16.060,4.660 16.076 " fill="#1A1C1F" stroke="none" fill-rule="evenodd"></path></svg>