<svg width="14" height="14" viewBox="0 0 14 14" fill="none" xmlns="http://www.w3.org/2000/svg"><path d="M9.682 1.481 C 9.544 1.553,9.396 1.702,9.332 1.834 C 9.287 1.928,9.279 1.997,9.261 2.478 C 9.250 2.774,9.238 3.019,9.235 3.023 C 9.231 3.026,9.017 3.062,8.758 3.102 C 8.152 3.196,8.074 3.220,7.927 3.356 C 7.769 3.503,7.715 3.628,7.715 3.850 C 7.716 3.992,7.727 4.047,7.776 4.143 C 7.844 4.276,7.976 4.406,8.125 4.484 C 8.254 4.553,8.430 4.552,8.995 4.477 C 9.591 4.398,10.359 4.398,10.955 4.477 C 11.522 4.552,11.696 4.553,11.826 4.484 C 12.090 4.344,12.234 4.120,12.236 3.848 C 12.237 3.637,12.182 3.507,12.031 3.364 C 11.877 3.219,11.808 3.197,11.192 3.102 C 10.933 3.062,10.719 3.026,10.716 3.023 C 10.713 3.021,10.699 2.783,10.686 2.495 C 10.672 2.207,10.652 1.936,10.640 1.893 C 10.591 1.713,10.406 1.532,10.194 1.457 C 10.043 1.404,9.809 1.415,9.682 1.481 M4.095 4.793 C 3.758 4.871,3.475 5.031,3.206 5.297 C 2.695 5.802,2.510 6.540,2.727 7.210 C 2.831 7.532,2.937 7.697,3.232 7.995 C 3.515 8.282,3.648 8.364,4.013 8.481 C 4.656 8.687,5.406 8.496,5.901 8.001 C 6.482 7.420,6.634 6.532,6.277 5.798 C 6.064 5.359,5.602 4.964,5.133 4.818 C 4.957 4.763,4.293 4.747,4.095 4.793 M8.148 5.149 C 8.010 5.217,7.887 5.426,7.887 5.591 C 7.887 5.735,7.939 5.863,8.038 5.962 C 8.240 6.164,8.561 6.163,8.763 5.961 C 9.000 5.725,8.945 5.308,8.657 5.163 C 8.528 5.097,8.267 5.090,8.148 5.149 M11.298 5.149 C 11.160 5.217,11.037 5.426,11.037 5.591 C 11.037 5.735,11.089 5.863,11.188 5.962 C 11.390 6.164,11.711 6.163,11.913 5.961 C 12.150 5.725,12.095 5.308,11.807 5.163 C 11.678 5.097,11.417 5.090,11.298 5.149 M9.764 5.421 C 9.670 5.464,9.506 5.652,9.472 5.756 C 9.406 5.954,9.515 6.209,9.717 6.334 C 9.957 6.483,10.261 6.403,10.418 6.150 C 10.556 5.925,10.487 5.641,10.254 5.477 C 10.139 5.397,9.882 5.367,9.764 5.421 M7.742 6.667 C 7.655 6.680,7.446 6.873,7.394 6.988 C 7.305 7.183,7.360 7.389,7.544 7.551 C 7.644 7.639,7.779 7.700,7.875 7.700 C 7.971 7.700,8.106 7.639,8.206 7.551 C 8.455 7.332,8.462 7.062,8.226 6.823 C 8.079 6.675,7.952 6.635,7.742 6.667 M11.818 6.730 C 11.665 6.822,11.549 7.023,11.551 7.195 C 11.552 7.368,11.749 7.615,11.934 7.676 C 12.281 7.791,12.676 7.414,12.578 7.061 C 12.542 6.933,12.390 6.751,12.281 6.705 C 12.154 6.652,11.927 6.664,11.818 6.730 M9.786 7.032 C 9.681 7.080,9.527 7.249,9.482 7.366 C 9.376 7.645,9.615 7.996,9.928 8.022 C 10.186 8.043,10.392 7.897,10.467 7.637 C 10.514 7.478,10.490 7.344,10.393 7.217 C 10.262 7.045,9.959 6.953,9.786 7.032 M2.870 9.849 C 2.663 9.882,2.421 10.020,2.199 10.230 C 2.018 10.401,1.991 10.439,1.866 10.697 C 1.703 11.036,1.465 11.631,1.424 11.801 C 1.390 11.945,1.406 12.054,1.482 12.202 C 1.693 12.615,2.231 12.711,2.542 12.391 C 2.657 12.273,2.811 11.990,3.010 11.535 C 3.122 11.278,3.140 11.250,3.203 11.237 C 3.241 11.230,3.872 11.217,4.605 11.208 L 5.938 11.193 6.030 11.412 C 6.156 11.717,6.349 12.107,6.436 12.233 C 6.584 12.447,6.836 12.600,7.042 12.600 C 7.234 12.599,7.537 12.379,7.646 12.161 C 7.704 12.043,7.698 11.835,7.631 11.643 C 7.523 11.339,7.195 10.601,7.108 10.471 C 6.906 10.167,6.518 9.896,6.215 9.846 C 6.044 9.818,3.047 9.821,2.870 9.849 " fill="#1A1C1F" stroke="none" fill-rule="evenodd"></path></svg>