<svg width="12" height="12" viewBox="0 0 12 12" fill="none" xmlns="http://www.w3.org/2000/svg"><path d="M8.299 1.269 C 8.181 1.331,8.054 1.459,7.999 1.572 C 7.960 1.653,7.953 1.711,7.938 2.124 C 7.929 2.378,7.918 2.588,7.915 2.591 C 7.912 2.595,7.752 2.621,7.560 2.649 C 6.957 2.739,6.834 2.783,6.724 2.945 C 6.637 3.075,6.610 3.158,6.611 3.300 C 6.612 3.531,6.738 3.724,6.963 3.843 C 7.075 3.903,7.224 3.902,7.710 3.838 C 8.221 3.770,8.879 3.770,9.390 3.838 C 9.874 3.901,10.025 3.903,10.136 3.844 C 10.330 3.741,10.465 3.557,10.492 3.358 C 10.518 3.171,10.391 2.903,10.232 2.810 C 10.128 2.749,9.983 2.715,9.540 2.649 C 9.348 2.621,9.188 2.595,9.185 2.592 C 9.182 2.589,9.171 2.386,9.160 2.140 C 9.137 1.640,9.134 1.623,9.068 1.507 C 8.928 1.262,8.542 1.142,8.299 1.269 M3.660 4.081 C 3.474 4.102,3.372 4.133,3.190 4.222 C 2.769 4.427,2.449 4.811,2.316 5.273 C 2.256 5.481,2.252 5.879,2.308 6.090 C 2.392 6.407,2.530 6.629,2.815 6.904 C 3.580 7.640,4.857 7.416,5.349 6.460 C 5.574 6.021,5.608 5.623,5.458 5.170 C 5.372 4.913,5.263 4.738,5.062 4.540 C 4.765 4.248,4.491 4.120,4.080 4.081 C 3.954 4.070,3.837 4.061,3.820 4.063 C 3.804 4.064,3.732 4.072,3.660 4.081 M7.068 4.379 C 7.033 4.387,6.973 4.419,6.933 4.449 C 6.722 4.610,6.701 4.923,6.889 5.110 C 7.190 5.410,7.684 5.162,7.633 4.735 C 7.618 4.606,7.539 4.486,7.429 4.427 C 7.341 4.380,7.164 4.357,7.068 4.379 M9.768 4.379 C 9.733 4.387,9.673 4.419,9.633 4.449 C 9.422 4.610,9.401 4.923,9.589 5.110 C 9.890 5.410,10.384 5.162,10.333 4.735 C 10.318 4.606,10.239 4.486,10.129 4.427 C 10.041 4.380,9.864 4.357,9.768 4.379 M8.369 4.656 C 8.186 4.743,8.069 4.972,8.118 5.152 C 8.167 5.335,8.368 5.501,8.539 5.499 C 8.784 5.496,9.020 5.255,8.995 5.034 C 8.980 4.893,8.900 4.758,8.795 4.693 C 8.671 4.617,8.487 4.601,8.369 4.656 M6.633 5.714 C 6.548 5.728,6.350 5.930,6.319 6.033 C 6.252 6.262,6.411 6.515,6.666 6.583 C 6.829 6.627,7.038 6.529,7.136 6.362 C 7.200 6.253,7.209 6.069,7.156 5.970 C 7.058 5.786,6.839 5.679,6.633 5.714 M10.128 5.769 C 9.981 5.858,9.878 6.068,9.907 6.223 C 9.935 6.372,10.089 6.537,10.243 6.583 C 10.535 6.671,10.863 6.347,10.781 6.053 C 10.750 5.944,10.631 5.799,10.533 5.753 C 10.424 5.701,10.228 5.709,10.128 5.769 M8.388 6.027 C 8.245 6.093,8.101 6.299,8.101 6.440 C 8.101 6.585,8.230 6.779,8.369 6.842 C 8.616 6.954,8.893 6.818,8.972 6.545 C 9.013 6.406,8.990 6.291,8.902 6.180 C 8.787 6.035,8.535 5.960,8.388 6.027 M2.487 8.442 C 2.143 8.499,1.808 8.760,1.626 9.112 C 1.533 9.291,1.364 9.688,1.274 9.940 C 1.168 10.235,1.197 10.417,1.377 10.607 C 1.538 10.776,1.752 10.828,1.975 10.753 C 2.182 10.682,2.285 10.539,2.540 9.970 L 2.693 9.630 3.071 9.618 C 3.280 9.611,3.819 9.604,4.271 9.603 L 5.092 9.600 5.169 9.785 C 5.274 10.035,5.448 10.385,5.520 10.490 C 5.702 10.755,5.995 10.860,6.232 10.748 C 6.329 10.702,6.486 10.546,6.538 10.443 C 6.610 10.303,6.612 10.205,6.550 10.016 C 6.463 9.750,6.187 9.123,6.097 8.985 C 5.922 8.716,5.592 8.483,5.327 8.439 C 5.182 8.416,2.631 8.418,2.487 8.442 " fill="#1A1C1F" stroke="none" fill-rule="evenodd"></path></svg>