<svg width="20" height="20" viewBox="0 0 20 20" fill="none" xmlns="http://www.w3.org/2000/svg"><path d="M13.832 2.113 C 13.633 2.220,13.422 2.433,13.332 2.620 C 13.267 2.755,13.256 2.852,13.230 3.540 C 13.215 3.963,13.198 4.313,13.192 4.318 C 13.187 4.323,12.881 4.374,12.511 4.431 C 11.645 4.565,11.534 4.599,11.324 4.794 C 11.098 5.004,11.022 5.183,11.022 5.500 C 11.022 5.703,11.038 5.782,11.109 5.919 C 11.206 6.109,11.395 6.294,11.607 6.406 C 11.792 6.505,12.043 6.502,12.850 6.396 C 13.702 6.283,14.798 6.283,15.650 6.396 C 16.457 6.502,16.708 6.505,16.893 6.406 C 17.105 6.294,17.294 6.109,17.391 5.919 C 17.462 5.782,17.478 5.703,17.478 5.498 C 17.479 5.186,17.400 5.005,17.169 4.789 C 16.967 4.600,16.850 4.565,15.989 4.431 C 15.619 4.374,15.313 4.323,15.309 4.319 C 15.304 4.315,15.285 3.975,15.265 3.564 C 15.246 3.153,15.216 2.763,15.199 2.696 C 15.151 2.516,14.965 2.297,14.750 2.168 C 14.577 2.065,14.530 2.052,14.271 2.043 C 14.018 2.034,13.965 2.042,13.832 2.113 M5.817 6.847 C 5.224 6.983,4.546 7.479,4.187 8.042 C 3.668 8.855,3.635 9.970,4.106 10.794 C 4.331 11.187,4.774 11.649,5.128 11.857 C 6.119 12.444,7.383 12.329,8.291 11.571 C 8.521 11.380,8.797 11.010,8.954 10.683 C 9.263 10.041,9.322 9.448,9.146 8.750 C 8.943 7.945,8.230 7.192,7.403 6.910 C 7.177 6.832,7.089 6.822,6.583 6.812 C 6.186 6.804,5.957 6.815,5.817 6.847 M16.275 7.299 C 15.980 7.369,15.743 7.726,15.776 8.050 C 15.796 8.237,15.887 8.448,15.989 8.540 C 16.023 8.571,16.118 8.627,16.201 8.664 C 16.699 8.890,17.234 8.535,17.233 7.979 C 17.233 7.784,17.095 7.520,16.941 7.418 C 16.838 7.349,16.487 7.254,16.400 7.270 C 16.391 7.272,16.335 7.285,16.275 7.299 M11.639 7.356 C 11.443 7.453,11.267 7.751,11.267 7.987 C 11.267 8.193,11.341 8.376,11.483 8.517 C 11.771 8.805,12.229 8.805,12.519 8.516 C 12.857 8.178,12.779 7.583,12.367 7.375 C 12.183 7.282,11.810 7.272,11.639 7.356 M13.946 7.748 C 13.674 7.866,13.464 8.246,13.516 8.528 C 13.592 8.943,14.054 9.251,14.431 9.138 C 14.723 9.051,15.000 8.716,15.000 8.452 C 15.000 8.289,14.892 8.029,14.775 7.911 C 14.592 7.728,14.180 7.646,13.946 7.748 M11.060 9.524 C 10.936 9.543,10.637 9.819,10.562 9.983 C 10.435 10.262,10.514 10.556,10.777 10.787 C 10.919 10.913,11.113 11.000,11.250 11.000 C 11.387 11.000,11.581 10.913,11.723 10.787 C 12.079 10.474,12.089 10.088,11.751 9.748 C 11.541 9.536,11.361 9.478,11.060 9.524 M16.883 9.614 C 16.664 9.746,16.499 10.032,16.501 10.279 C 16.502 10.523,16.727 10.823,16.997 10.943 C 17.498 11.164,18.117 10.619,17.968 10.088 C 17.916 9.904,17.700 9.644,17.544 9.579 C 17.363 9.503,17.039 9.521,16.883 9.614 M13.980 10.046 C 13.830 10.114,13.609 10.356,13.546 10.523 C 13.394 10.921,13.735 11.423,14.183 11.460 C 14.552 11.490,14.846 11.281,14.953 10.910 C 15.019 10.683,14.985 10.491,14.847 10.310 C 14.660 10.065,14.227 9.933,13.980 10.046 M4.113 14.070 C 3.759 14.129,3.384 14.352,3.046 14.706 C 2.822 14.940,2.726 15.111,2.417 15.833 C 1.986 16.839,1.937 17.091,2.107 17.417 C 2.349 17.878,2.822 18.078,3.299 17.918 C 3.640 17.803,3.861 17.485,4.300 16.478 C 4.461 16.109,4.486 16.071,4.577 16.053 C 4.632 16.042,5.534 16.023,6.580 16.011 L 8.483 15.990 8.614 16.303 C 8.795 16.739,9.070 17.295,9.195 17.476 C 9.502 17.923,9.987 18.103,10.381 17.916 C 10.542 17.839,10.837 17.544,10.921 17.375 C 11.006 17.204,10.998 16.908,10.901 16.633 C 10.742 16.184,10.293 15.178,10.161 14.975 C 9.869 14.527,9.321 14.138,8.878 14.066 C 8.637 14.026,4.352 14.030,4.113 14.070 " fill="#1A1C1F" stroke="none" fill-rule="evenodd"></path></svg>