<svg width="28" height="28" viewBox="0 0 28 28" fill="none" xmlns="http://www.w3.org/2000/svg"><path d="M20.263 1.804 C 20.122 1.834,19.840 2.120,19.758 2.315 C 19.709 2.434,19.693 2.750,19.693 3.655 L 19.693 4.840 19.192 4.921 C 18.096 5.097,16.963 5.414,16.599 5.645 C 16.246 5.870,16.106 6.280,16.257 6.643 C 16.338 6.836,16.675 7.127,16.891 7.190 C 17.034 7.232,17.158 7.210,17.802 7.026 C 19.043 6.671,19.182 6.652,20.580 6.651 C 21.939 6.650,22.051 6.664,23.164 6.985 C 23.475 7.074,23.856 7.158,24.010 7.171 C 24.262 7.192,24.311 7.181,24.505 7.056 C 24.903 6.799,25.024 6.313,24.790 5.907 C 24.591 5.563,23.502 5.180,22.038 4.940 L 21.420 4.839 21.420 3.593 L 21.420 2.347 21.285 2.162 C 21.211 2.059,21.075 1.940,20.982 1.896 C 20.804 1.811,20.443 1.765,20.263 1.804 M17.556 8.870 C 17.169 9.066,16.988 9.497,17.122 9.902 C 17.252 10.297,17.746 10.565,18.142 10.457 C 18.848 10.264,19.023 9.293,18.416 8.938 C 18.128 8.770,17.804 8.744,17.556 8.870 M22.884 8.824 C 22.694 8.879,22.420 9.184,22.350 9.419 C 22.278 9.661,22.323 9.884,22.493 10.119 C 22.654 10.340,22.830 10.444,23.114 10.483 C 23.487 10.534,23.907 10.221,24.010 9.814 C 24.076 9.555,24.043 9.400,23.868 9.135 C 23.669 8.834,23.277 8.710,22.884 8.824 M20.221 9.725 C 19.580 10.029,19.534 10.849,20.137 11.223 C 20.523 11.463,20.945 11.376,21.254 10.994 C 21.382 10.836,21.396 10.786,21.394 10.507 C 21.391 10.134,21.319 10.005,21.000 9.800 C 20.689 9.600,20.518 9.584,20.221 9.725 M7.549 9.706 C 7.179 9.772,6.721 9.940,6.230 10.187 C 5.827 10.391,5.700 10.487,5.294 10.893 C 4.773 11.415,4.535 11.749,4.307 12.277 C 4.050 12.870,3.967 13.283,3.967 13.958 C 3.967 15.390,4.437 16.383,5.592 17.384 C 6.407 18.092,7.606 18.462,8.687 18.339 C 10.004 18.190,10.935 17.671,11.771 16.619 C 12.434 15.784,12.775 14.602,12.652 13.559 C 12.538 12.592,12.150 11.757,11.487 11.053 C 10.593 10.104,9.782 9.750,8.369 9.691 C 8.040 9.677,7.670 9.684,7.549 9.706 M8.890 11.486 C 9.568 11.604,10.212 12.096,10.606 12.798 L 10.827 13.191 10.827 13.981 L 10.828 14.770 10.652 15.119 C 10.406 15.609,9.896 16.121,9.427 16.350 C 8.751 16.680,7.861 16.680,7.187 16.350 C 6.718 16.120,6.204 15.608,5.960 15.127 L 5.787 14.784 5.787 14.000 L 5.787 13.216 5.960 12.873 C 6.299 12.204,7.104 11.560,7.753 11.439 C 7.987 11.395,8.484 11.416,8.890 11.486 M16.728 11.474 C 16.388 11.629,16.155 12.019,16.208 12.346 C 16.271 12.735,16.486 12.974,16.863 13.075 C 17.430 13.226,18.012 12.664,17.901 12.072 C 17.839 11.741,17.404 11.389,17.057 11.389 C 16.980 11.389,16.832 11.427,16.728 11.474 M23.728 11.474 C 23.388 11.629,23.155 12.019,23.208 12.346 C 23.271 12.735,23.486 12.974,23.863 13.075 C 24.430 13.226,25.012 12.664,24.901 12.072 C 24.839 11.741,24.404 11.389,24.057 11.389 C 23.980 11.389,23.832 11.427,23.728 11.474 M20.156 12.382 C 19.681 12.632,19.558 13.175,19.877 13.615 C 20.024 13.818,20.345 14.000,20.557 14.000 C 20.901 14.000,21.334 13.625,21.401 13.269 C 21.440 13.064,21.343 12.720,21.199 12.549 C 21.084 12.412,20.725 12.273,20.486 12.273 C 20.417 12.273,20.269 12.322,20.156 12.382 M15.811 14.129 C 15.413 14.361,15.270 14.665,15.360 15.085 C 15.421 15.368,15.639 15.591,15.956 15.693 C 16.340 15.817,16.737 15.641,16.928 15.261 C 17.172 14.778,16.928 14.235,16.385 14.053 C 16.150 13.974,16.053 13.987,15.811 14.129 M24.694 14.046 C 24.344 14.129,24.046 14.601,24.091 15.002 C 24.121 15.261,24.216 15.412,24.448 15.565 C 24.788 15.790,25.182 15.775,25.465 15.526 C 25.704 15.317,25.824 15.027,25.784 14.760 C 25.740 14.466,25.459 14.165,25.139 14.070 C 25.009 14.032,24.891 14.002,24.877 14.005 C 24.862 14.007,24.780 14.026,24.694 14.046 M20.228 14.974 C 19.888 15.129,19.655 15.519,19.708 15.846 C 19.771 16.235,19.986 16.474,20.363 16.575 C 20.930 16.726,21.512 16.164,21.401 15.572 C 21.339 15.241,20.904 14.889,20.557 14.889 C 20.480 14.889,20.332 14.927,20.228 14.974 M4.830 20.280 C 3.975 20.449,3.012 21.234,2.563 22.128 C 2.285 22.681,2.242 22.927,2.209 24.198 C 2.175 25.483,2.204 25.704,2.442 25.948 C 2.721 26.236,3.080 26.303,3.431 26.133 C 3.668 26.018,3.796 25.882,3.869 25.667 C 3.901 25.573,3.943 24.991,3.967 24.299 L 4.010 23.095 4.149 22.852 C 4.338 22.523,4.637 22.242,4.954 22.098 C 5.368 21.908,6.140 21.872,8.960 21.910 L 11.363 21.941 11.641 22.089 C 11.996 22.277,12.323 22.605,12.483 22.933 C 12.591 23.153,12.615 23.280,12.649 23.810 C 12.671 24.151,12.690 24.703,12.691 25.038 C 12.693 25.605,12.701 25.656,12.808 25.814 C 12.961 26.039,13.195 26.178,13.480 26.211 C 13.784 26.247,14.092 26.104,14.289 25.835 L 14.429 25.643 14.407 24.267 C 14.387 23.026,14.375 22.864,14.288 22.621 C 14.038 21.926,13.586 21.308,13.025 20.893 C 12.630 20.601,12.013 20.312,11.667 20.256 C 11.180 20.178,5.243 20.198,4.830 20.280 " fill="#1A1C1F" stroke="none" fill-rule="evenodd"></path></svg>