<svg width="32" height="32" viewBox="0 0 32 32" fill="none" xmlns="http://www.w3.org/2000/svg"><path d="M23.165 2.061 C 23.007 2.096,22.669 2.434,22.580 2.647 C 22.524 2.781,22.507 3.147,22.507 4.177 L 22.507 5.531 21.933 5.624 C 20.681 5.826,19.386 6.188,18.970 6.452 C 18.567 6.708,18.407 7.177,18.580 7.592 C 18.672 7.813,19.057 8.145,19.304 8.218 C 19.468 8.265,19.609 8.240,20.345 8.029 C 21.764 7.624,21.923 7.602,23.520 7.601 C 25.088 7.600,25.204 7.615,26.560 8.006 C 27.440 8.260,27.679 8.269,28.009 8.059 C 28.623 7.670,28.627 6.840,28.016 6.452 C 27.601 6.188,26.306 5.826,25.053 5.624 L 24.480 5.531 24.480 4.111 L 24.480 2.691 24.345 2.493 C 24.126 2.170,23.578 1.970,23.165 2.061 M20.080 10.125 C 19.603 10.351,19.394 10.858,19.577 11.343 C 19.702 11.675,20.161 11.998,20.507 11.998 C 20.746 11.998,21.088 11.821,21.242 11.619 C 21.618 11.125,21.509 10.439,21.013 10.186 C 20.704 10.029,20.333 10.004,20.080 10.125 M26.153 10.085 C 25.936 10.148,25.623 10.496,25.543 10.765 C 25.460 11.041,25.512 11.297,25.707 11.565 C 25.989 11.954,26.479 12.099,26.857 11.904 C 27.452 11.598,27.638 11.011,27.306 10.488 C 27.058 10.096,26.629 9.947,26.153 10.085 M23.110 11.114 C 22.377 11.462,22.324 12.398,23.014 12.827 C 23.455 13.101,23.937 13.002,24.290 12.565 C 24.437 12.384,24.453 12.327,24.450 12.008 C 24.447 11.581,24.364 11.434,24.000 11.200 C 23.645 10.972,23.449 10.953,23.110 11.114 M8.627 11.092 C 8.204 11.169,7.681 11.360,7.120 11.643 C 6.659 11.875,6.514 11.985,6.050 12.449 C 5.267 13.234,4.890 13.878,4.638 14.858 C 4.503 15.385,4.488 16.508,4.609 17.029 C 4.874 18.174,5.380 18.985,6.364 19.844 C 7.789 21.087,9.932 21.334,11.707 20.458 C 12.547 20.044,13.484 19.128,13.910 18.304 C 14.797 16.590,14.638 14.585,13.495 13.063 C 12.745 12.063,11.590 11.312,10.558 11.153 C 10.053 11.075,8.919 11.039,8.627 11.092 M10.160 13.126 C 10.937 13.263,11.671 13.825,12.121 14.626 L 12.373 15.076 12.374 15.978 L 12.375 16.880 12.174 17.280 C 11.894 17.839,11.313 18.421,10.773 18.685 C 10.010 19.059,8.998 19.062,8.220 18.692 C 7.689 18.440,7.096 17.846,6.812 17.280 L 6.612 16.880 6.613 15.992 L 6.613 15.104 6.812 14.712 C 7.208 13.930,8.160 13.181,8.893 13.074 C 9.204 13.029,9.733 13.051,10.160 13.126 M19.120 13.114 C 18.478 13.412,18.318 14.202,18.804 14.678 C 19.116 14.983,19.496 15.057,19.867 14.886 C 20.295 14.687,20.541 14.235,20.459 13.797 C 20.388 13.418,19.890 13.016,19.493 13.016 C 19.405 13.016,19.237 13.060,19.120 13.114 M27.120 13.114 C 26.478 13.412,26.318 14.202,26.804 14.678 C 27.116 14.983,27.496 15.057,27.867 14.886 C 28.295 14.687,28.541 14.235,28.459 13.797 C 28.388 13.418,27.890 13.016,27.493 13.016 C 27.405 13.016,27.237 13.060,27.120 13.114 M23.049 14.138 C 22.581 14.376,22.390 14.925,22.614 15.388 C 22.748 15.665,23.067 15.927,23.331 15.976 C 23.759 16.057,24.298 15.702,24.433 15.252 C 24.555 14.844,24.353 14.353,23.988 14.171 C 23.672 14.014,23.318 14.001,23.049 14.138 M18.213 16.065 C 17.931 16.165,17.770 16.315,17.624 16.614 C 17.432 17.006,17.470 17.301,17.751 17.612 C 18.080 17.978,18.523 18.076,18.922 17.872 C 19.723 17.463,19.603 16.355,18.725 16.061 C 18.511 15.989,18.427 15.989,18.213 16.065 M28.222 16.054 C 27.867 16.136,27.524 16.615,27.521 17.032 C 27.519 17.448,27.858 17.849,28.317 17.972 C 28.892 18.127,29.560 17.486,29.468 16.868 C 29.389 16.347,28.755 15.932,28.222 16.054 M23.055 17.149 C 22.746 17.303,22.638 17.440,22.564 17.768 C 22.346 18.738,23.459 19.374,24.168 18.685 C 24.655 18.211,24.540 17.452,23.934 17.150 C 23.588 16.978,23.399 16.978,23.055 17.149 M5.520 23.177 C 4.805 23.318,4.011 23.841,3.378 24.587 C 3.091 24.924,2.706 25.705,2.615 26.133 C 2.520 26.579,2.476 28.877,2.556 29.210 C 2.705 29.832,3.351 30.142,3.921 29.866 C 4.192 29.735,4.338 29.579,4.422 29.333 C 4.459 29.226,4.506 28.561,4.534 27.770 L 4.582 26.394 4.741 26.117 C 4.958 25.740,5.300 25.420,5.662 25.254 C 6.135 25.038,7.016 24.997,10.240 25.040 L 12.987 25.076 13.304 25.244 C 13.709 25.460,14.084 25.835,14.267 26.209 C 14.390 26.460,14.417 26.606,14.456 27.211 C 14.481 27.601,14.503 28.234,14.504 28.619 C 14.507 29.304,14.510 29.321,14.662 29.532 C 14.845 29.785,15.203 29.973,15.499 29.973 C 15.778 29.973,16.157 29.777,16.303 29.557 C 16.470 29.305,16.498 28.952,16.467 27.472 C 16.440 26.215,16.433 26.144,16.296 25.770 C 16.018 25.013,15.521 24.347,14.882 23.875 C 14.434 23.544,13.728 23.214,13.333 23.150 C 12.777 23.060,5.992 23.084,5.520 23.177 " fill="#1A1C1F" stroke="none" fill-rule="evenodd"></path></svg>