<svg width="16" height="16" viewBox="0 0 16 16" fill="none" xmlns="http://www.w3.org/2000/svg"><path d="M11.031 1.711 C 10.862 1.804,10.719 1.958,10.652 2.118 C 10.621 2.192,10.604 2.381,10.585 2.834 C 10.571 3.172,10.557 3.452,10.553 3.455 C 10.550 3.459,10.301 3.499,10.000 3.545 C 9.699 3.591,9.403 3.646,9.341 3.666 C 9.065 3.756,8.891 3.961,8.828 4.269 C 8.759 4.608,8.945 4.962,9.275 5.123 C 9.438 5.203,9.697 5.201,10.293 5.117 C 10.904 5.030,11.889 5.029,12.520 5.113 C 13.248 5.211,13.274 5.212,13.445 5.147 C 13.782 5.021,13.984 4.735,13.983 4.384 C 13.982 4.148,13.916 4.000,13.736 3.831 C 13.574 3.680,13.480 3.652,12.791 3.545 C 12.495 3.499,12.251 3.459,12.247 3.456 C 12.244 3.453,12.228 3.170,12.213 2.828 C 12.194 2.414,12.172 2.177,12.147 2.117 C 12.096 1.995,11.878 1.767,11.747 1.699 C 11.670 1.659,11.577 1.641,11.413 1.634 C 11.199 1.625,11.178 1.630,11.031 1.711 M4.653 5.470 C 4.466 5.512,3.969 5.778,3.798 5.926 C 3.464 6.217,3.256 6.524,3.116 6.930 C 3.032 7.176,3.028 7.203,3.029 7.587 C 3.029 7.952,3.036 8.006,3.104 8.213 C 3.239 8.623,3.340 8.782,3.679 9.121 C 4.023 9.466,4.237 9.599,4.628 9.712 C 4.927 9.798,5.466 9.798,5.768 9.712 C 6.027 9.638,6.336 9.484,6.553 9.321 C 7.116 8.898,7.479 8.040,7.386 7.351 C 7.278 6.555,6.834 5.951,6.095 5.596 C 5.891 5.499,5.828 5.481,5.604 5.463 C 5.265 5.436,4.787 5.439,4.653 5.470 M9.455 5.832 C 9.345 5.850,9.162 5.981,9.094 6.092 C 9.013 6.224,8.994 6.448,9.052 6.599 C 9.136 6.821,9.391 6.988,9.643 6.986 C 9.961 6.984,10.223 6.664,10.177 6.333 C 10.159 6.198,10.084 6.036,10.009 5.968 C 9.898 5.868,9.634 5.803,9.455 5.832 M13.038 5.837 C 12.744 5.897,12.552 6.258,12.642 6.579 C 12.769 7.035,13.411 7.124,13.692 6.725 C 13.765 6.620,13.773 6.590,13.773 6.400 C 13.773 6.210,13.765 6.180,13.692 6.075 C 13.556 5.882,13.292 5.786,13.038 5.837 M11.190 6.199 C 11.059 6.246,10.922 6.378,10.850 6.527 C 10.666 6.907,11.049 7.386,11.484 7.321 C 11.660 7.294,11.840 7.159,11.927 6.989 C 12.012 6.820,12.018 6.729,11.953 6.548 C 11.891 6.372,11.767 6.252,11.595 6.201 C 11.427 6.151,11.326 6.151,11.190 6.199 M8.834 7.617 C 8.743 7.637,8.504 7.866,8.450 7.986 C 8.352 8.202,8.400 8.404,8.596 8.599 C 8.769 8.772,8.929 8.826,9.117 8.776 C 9.441 8.689,9.655 8.357,9.573 8.065 C 9.531 7.916,9.395 7.752,9.252 7.680 C 9.150 7.627,8.936 7.596,8.834 7.617 M13.415 7.780 C 13.172 8.018,13.136 8.266,13.308 8.504 C 13.561 8.854,13.949 8.889,14.221 8.587 C 14.451 8.332,14.455 8.077,14.234 7.826 C 14.094 7.667,13.998 7.627,13.760 7.627 L 13.571 7.627 13.415 7.780 M11.153 8.054 C 10.939 8.164,10.784 8.423,10.807 8.632 C 10.824 8.784,10.946 8.978,11.086 9.077 C 11.290 9.220,11.586 9.201,11.777 9.033 C 12.022 8.818,12.059 8.468,11.862 8.230 C 11.695 8.027,11.367 7.945,11.153 8.054 M3.293 11.254 C 2.941 11.280,2.698 11.385,2.367 11.651 C 2.111 11.857,1.942 12.065,1.813 12.332 C 1.670 12.627,1.628 12.809,1.610 13.213 C 1.591 13.646,1.623 13.854,1.736 14.030 C 1.886 14.265,2.118 14.382,2.431 14.380 C 2.663 14.378,2.808 14.310,2.980 14.122 C 3.137 13.951,3.169 13.853,3.201 13.445 C 3.215 13.274,3.233 13.101,3.242 13.061 C 3.260 12.976,3.411 12.835,3.512 12.810 C 3.639 12.778,6.884 12.820,6.981 12.855 C 7.125 12.906,7.157 13.002,7.200 13.504 C 7.232 13.872,7.279 14.001,7.439 14.156 C 7.613 14.325,7.763 14.386,8.002 14.384 C 8.255 14.383,8.396 14.319,8.581 14.123 C 8.746 13.949,8.774 13.861,8.792 13.453 C 8.815 12.939,8.726 12.547,8.503 12.166 C 8.382 11.960,8.050 11.637,7.825 11.505 C 7.478 11.303,7.383 11.274,6.987 11.251 C 6.552 11.225,3.631 11.228,3.293 11.254 " fill="#1A1C1F" stroke="none" fill-rule="evenodd"></path></svg>