<svg width="16" height="16" viewBox="0 0 16 16" fill="none" xmlns="http://www.w3.org/2000/svg"><path d="M11.065 1.691 C 10.906 1.776,10.738 1.947,10.665 2.096 C 10.613 2.204,10.605 2.282,10.584 2.832 C 10.572 3.171,10.558 3.451,10.554 3.455 C 10.550 3.458,10.305 3.499,10.009 3.545 C 9.306 3.654,9.227 3.679,9.051 3.845 C 8.873 4.013,8.812 4.159,8.816 4.413 C 8.818 4.558,8.834 4.631,8.888 4.737 C 8.977 4.911,9.164 5.076,9.356 5.148 C 9.525 5.211,9.570 5.209,10.280 5.115 C 10.909 5.031,11.690 5.022,12.280 5.091 C 13.319 5.213,13.276 5.211,13.445 5.148 C 13.782 5.021,13.984 4.734,13.983 4.384 C 13.982 4.148,13.916 4.000,13.736 3.831 C 13.574 3.680,13.480 3.652,12.791 3.545 C 12.495 3.499,12.250 3.459,12.247 3.455 C 12.243 3.452,12.228 3.180,12.212 2.851 C 12.197 2.522,12.173 2.210,12.159 2.157 C 12.121 2.013,11.972 1.838,11.800 1.735 C 11.662 1.652,11.624 1.642,11.417 1.634 C 11.215 1.627,11.172 1.634,11.065 1.691 M4.653 5.470 C 4.595 5.483,4.409 5.562,4.240 5.645 C 3.965 5.781,3.907 5.824,3.677 6.052 C 3.247 6.480,3.045 6.919,3.020 7.481 C 2.987 8.208,3.245 8.768,3.867 9.316 C 4.185 9.597,4.729 9.787,5.216 9.787 C 5.841 9.787,6.473 9.492,6.867 9.018 C 7.250 8.557,7.459 7.886,7.386 7.353 C 7.278 6.566,6.854 5.976,6.141 5.621 C 5.890 5.495,5.848 5.483,5.608 5.464 C 5.266 5.436,4.788 5.439,4.653 5.470 M9.306 5.889 C 9.182 5.954,9.048 6.157,9.024 6.313 C 8.959 6.746,9.349 7.079,9.779 6.958 C 10.253 6.826,10.330 6.121,9.894 5.900 C 9.739 5.822,9.444 5.816,9.306 5.889 M12.906 5.889 C 12.782 5.954,12.648 6.157,12.624 6.313 C 12.559 6.746,12.949 7.079,13.379 6.958 C 13.853 6.826,13.930 6.121,13.494 5.900 C 13.339 5.822,13.044 5.816,12.906 5.889 M11.118 6.222 C 10.914 6.330,10.770 6.616,10.810 6.833 C 10.862 7.109,11.164 7.348,11.432 7.327 C 11.701 7.305,11.957 7.067,11.992 6.804 C 12.011 6.661,11.932 6.441,11.820 6.329 C 11.656 6.164,11.323 6.113,11.118 6.222 M8.844 7.618 C 8.731 7.637,8.466 7.906,8.426 8.044 C 8.308 8.444,8.735 8.892,9.124 8.775 C 9.293 8.725,9.459 8.599,9.526 8.472 C 9.598 8.334,9.606 8.080,9.541 7.959 C 9.412 7.717,9.118 7.574,8.844 7.618 M13.533 7.676 C 13.345 7.791,13.201 8.021,13.200 8.206 C 13.200 8.329,13.309 8.558,13.407 8.639 C 13.506 8.720,13.699 8.800,13.798 8.800 C 14.070 8.799,14.397 8.489,14.399 8.230 C 14.401 8.022,14.220 7.740,14.035 7.663 C 13.906 7.609,13.631 7.616,13.533 7.676 M11.153 8.054 C 10.935 8.166,10.782 8.425,10.810 8.635 C 10.828 8.767,10.919 8.940,11.018 9.032 C 11.169 9.173,11.442 9.214,11.640 9.124 C 11.879 9.015,12.040 8.694,11.976 8.454 C 11.883 8.107,11.457 7.900,11.153 8.054 M3.347 11.245 C 2.922 11.302,2.396 11.692,2.186 12.108 C 2.067 12.344,1.784 13.007,1.692 13.267 C 1.555 13.654,1.597 13.895,1.846 14.152 C 2.138 14.452,2.619 14.456,2.906 14.161 C 3.037 14.026,3.213 13.703,3.440 13.182 C 3.544 12.944,3.597 12.853,3.638 12.842 C 3.668 12.833,4.389 12.819,5.240 12.809 L 6.787 12.792 6.891 13.043 C 7.036 13.391,7.256 13.836,7.356 13.981 C 7.602 14.338,7.990 14.482,8.305 14.333 C 8.438 14.269,8.667 14.041,8.735 13.905 C 8.805 13.763,8.800 13.530,8.721 13.307 C 8.594 12.947,8.235 12.142,8.129 11.980 C 7.896 11.622,7.457 11.310,7.103 11.253 C 6.955 11.228,3.524 11.222,3.347 11.245 " fill="#1A1C1F" stroke="none" fill-rule="evenodd"></path></svg>