<svg width="16" height="16" viewBox="0 0 16 16" fill="none" xmlns="http://www.w3.org/2000/svg"><path d="M10.997 1.681 C 10.824 1.767,10.676 1.909,10.600 2.063 C 10.535 2.198,10.530 2.238,10.506 2.814 C 10.492 3.149,10.472 3.432,10.461 3.443 C 10.449 3.454,10.266 3.489,10.053 3.520 C 9.573 3.592,9.227 3.665,9.128 3.716 C 9.014 3.776,8.861 3.941,8.795 4.077 C 8.712 4.248,8.714 4.520,8.799 4.714 C 8.883 4.906,9.094 5.096,9.292 5.158 C 9.461 5.212,9.463 5.212,10.347 5.102 C 10.989 5.022,11.567 5.014,12.080 5.079 C 13.091 5.206,13.152 5.210,13.310 5.164 C 13.588 5.083,13.803 4.869,13.883 4.592 C 13.991 4.222,13.749 3.775,13.383 3.668 C 13.251 3.630,12.617 3.523,12.264 3.480 L 12.114 3.461 12.101 2.817 C 12.091 2.331,12.078 2.151,12.048 2.080 C 11.991 1.946,11.825 1.793,11.640 1.704 C 11.436 1.606,11.169 1.596,10.997 1.681 M4.537 5.481 C 4.021 5.625,3.518 6.013,3.229 6.492 C 3.106 6.697,2.966 7.119,2.939 7.366 C 2.844 8.258,3.354 9.165,4.173 9.560 C 4.519 9.726,4.717 9.769,5.147 9.772 C 5.452 9.773,5.537 9.764,5.707 9.711 C 6.470 9.473,7.076 8.847,7.252 8.113 C 7.271 8.035,7.287 7.790,7.289 7.566 C 7.291 7.206,7.285 7.139,7.229 6.973 C 7.027 6.371,6.617 5.889,6.097 5.643 C 5.728 5.468,5.681 5.459,5.160 5.449 C 4.794 5.443,4.646 5.450,4.537 5.481 M9.317 5.841 C 9.208 5.874,9.020 6.058,8.968 6.182 C 8.851 6.461,8.986 6.799,9.266 6.930 C 9.617 7.095,10.038 6.870,10.096 6.486 C 10.118 6.339,10.055 6.118,9.959 6.004 C 9.843 5.866,9.509 5.782,9.317 5.841 M12.926 5.847 C 12.616 5.948,12.443 6.318,12.566 6.614 C 12.616 6.733,12.748 6.866,12.890 6.939 C 13.310 7.156,13.810 6.718,13.678 6.248 C 13.593 5.943,13.229 5.749,12.926 5.847 M11.140 6.187 C 10.838 6.277,10.663 6.596,10.748 6.899 C 10.796 7.070,10.985 7.264,11.146 7.307 C 11.474 7.394,11.804 7.196,11.893 6.858 C 11.917 6.765,11.915 6.716,11.880 6.596 C 11.787 6.277,11.454 6.092,11.140 6.187 M8.767 7.626 C 8.511 7.706,8.320 7.963,8.320 8.228 C 8.320 8.346,8.441 8.571,8.548 8.653 C 8.832 8.870,9.117 8.843,9.351 8.577 C 9.547 8.354,9.564 8.105,9.398 7.864 C 9.277 7.689,8.954 7.567,8.767 7.626 M13.544 7.636 C 13.226 7.753,13.054 8.082,13.159 8.372 C 13.221 8.545,13.314 8.652,13.471 8.731 C 13.700 8.844,13.889 8.816,14.093 8.637 C 14.203 8.540,14.319 8.322,14.320 8.211 C 14.320 8.014,14.173 7.786,13.987 7.694 C 13.816 7.610,13.666 7.590,13.544 7.636 M11.131 8.038 C 10.970 8.088,10.861 8.181,10.786 8.330 C 10.678 8.549,10.709 8.768,10.876 8.964 C 11.089 9.212,11.439 9.242,11.693 9.034 C 11.982 8.795,11.972 8.342,11.674 8.139 C 11.469 8.000,11.333 7.974,11.131 8.038 M3.413 11.225 L 2.573 11.241 2.428 11.315 C 2.054 11.507,1.822 11.767,1.723 12.105 C 1.667 12.296,1.669 12.401,1.735 12.653 C 1.814 12.954,2.096 13.715,2.208 13.930 C 2.330 14.164,2.489 14.295,2.731 14.360 C 2.895 14.405,2.918 14.405,3.080 14.365 C 3.248 14.323,3.430 14.221,3.526 14.115 C 3.604 14.029,3.680 13.826,3.697 13.656 C 3.712 13.515,3.701 13.454,3.612 13.174 C 3.557 12.998,3.517 12.848,3.524 12.840 C 3.550 12.814,6.652 12.795,6.688 12.820 C 6.716 12.840,6.706 12.896,6.640 13.096 C 6.595 13.234,6.551 13.432,6.542 13.536 C 6.528 13.704,6.534 13.742,6.600 13.889 C 6.861 14.470,7.604 14.541,7.963 14.020 C 8.061 13.877,8.338 13.190,8.441 12.834 C 8.536 12.507,8.549 12.341,8.495 12.133 C 8.427 11.866,8.353 11.735,8.159 11.543 C 7.880 11.267,7.820 11.251,6.973 11.225 C 6.215 11.201,4.727 11.201,3.413 11.225 " fill="#1A1C1F" stroke="none" fill-rule="evenodd"></path></svg>