<svg width="24" height="24" viewBox="0 0 24 24" fill="none" xmlns="http://www.w3.org/2000/svg"><path d="M16.567 2.128 C 16.368 2.224,16.187 2.394,16.090 2.574 C 16.032 2.682,16.019 2.895,15.998 4.092 C 15.984 4.857,15.956 5.498,15.936 5.516 C 15.916 5.534,15.607 5.578,15.249 5.615 C 14.141 5.728,12.933 5.960,12.569 6.130 C 12.164 6.319,11.938 6.773,12.038 7.194 C 12.101 7.454,12.285 7.732,12.473 7.848 C 12.695 7.987,13.268 7.972,14.080 7.809 C 15.085 7.606,15.273 7.592,16.980 7.586 C 18.702 7.580,18.675 7.577,20.012 7.822 C 21.100 8.021,21.365 8.003,21.674 7.708 C 22.176 7.226,22.063 6.456,21.443 6.142 C 21.124 5.980,19.943 5.747,18.728 5.606 C 18.370 5.564,18.068 5.522,18.058 5.512 C 18.048 5.501,18.023 4.869,18.002 4.107 C 17.959 2.548,17.960 2.553,17.655 2.284 C 17.370 2.033,16.901 1.966,16.567 2.128 M6.580 7.076 C 5.973 7.242,5.412 7.584,4.974 8.054 C 3.747 9.374,3.695 11.306,4.850 12.677 C 5.474 13.419,6.354 13.854,7.340 13.908 C 8.195 13.955,8.969 13.707,9.646 13.168 C 10.280 12.665,10.686 12.027,10.901 11.198 C 11.000 10.814,10.988 9.912,10.878 9.520 C 10.571 8.423,9.723 7.521,8.635 7.133 C 8.365 7.037,8.277 7.027,7.600 7.014 C 6.967 7.002,6.820 7.011,6.580 7.076 M7.800 9.003 C 8.110 9.053,8.314 9.166,8.567 9.427 C 8.882 9.753,8.940 9.907,8.940 10.420 C 8.940 10.844,8.935 10.869,8.804 11.110 C 8.215 12.198,6.788 12.174,6.175 11.067 C 6.068 10.874,6.060 10.829,6.060 10.420 C 6.060 10.032,6.072 9.957,6.158 9.788 C 6.347 9.417,6.811 9.066,7.197 9.000 C 7.461 8.956,7.511 8.956,7.800 9.003 M13.789 9.046 C 13.281 9.157,12.932 9.675,13.037 10.163 C 13.095 10.434,13.165 10.559,13.356 10.731 C 13.582 10.936,13.902 11.026,14.181 10.963 C 14.835 10.817,15.177 10.139,14.884 9.570 C 14.686 9.185,14.206 8.955,13.789 9.046 M19.690 9.075 C 19.401 9.175,19.267 9.292,19.112 9.580 C 18.993 9.800,18.993 10.196,19.110 10.423 C 19.298 10.787,19.762 11.042,20.129 10.983 C 20.500 10.924,20.831 10.634,20.938 10.275 C 21.015 10.016,21.015 9.984,20.938 9.727 C 20.784 9.207,20.195 8.899,19.690 9.075 M16.662 9.577 C 16.439 9.660,16.316 9.761,16.192 9.964 C 16.053 10.190,15.981 10.465,16.014 10.644 C 16.060 10.888,16.281 11.205,16.497 11.339 C 16.671 11.446,16.728 11.460,16.997 11.459 C 17.205 11.459,17.339 11.437,17.426 11.390 C 17.770 11.204,18.026 10.769,17.987 10.438 C 17.948 10.104,17.719 9.764,17.435 9.617 C 17.262 9.528,16.852 9.507,16.662 9.577 M12.789 12.046 C 12.281 12.157,11.932 12.675,12.037 13.163 C 12.095 13.434,12.165 13.559,12.356 13.731 C 12.582 13.936,12.902 14.026,13.181 13.963 C 13.835 13.817,14.177 13.139,13.884 12.570 C 13.686 12.185,13.206 11.955,12.789 12.046 M20.753 12.058 C 20.019 12.247,19.772 13.118,20.294 13.674 C 20.841 14.254,21.785 13.979,21.962 13.188 C 22.113 12.513,21.437 11.882,20.753 12.058 M16.662 12.577 C 16.439 12.660,16.316 12.761,16.192 12.964 C 16.053 13.190,15.981 13.465,16.014 13.644 C 16.060 13.888,16.281 14.205,16.497 14.339 C 16.671 14.446,16.728 14.460,16.997 14.459 C 17.205 14.459,17.339 14.437,17.426 14.390 C 17.770 14.204,18.026 13.769,17.987 13.438 C 17.948 13.104,17.719 12.764,17.435 12.617 C 17.262 12.528,16.852 12.507,16.662 12.577 M4.374 16.079 C 3.769 16.170,3.053 16.744,2.838 17.310 C 2.716 17.633,2.524 18.407,2.263 19.631 C 1.967 21.019,1.959 21.096,2.097 21.378 C 2.431 22.060,3.257 22.193,3.730 21.641 C 3.896 21.447,3.951 21.257,4.361 19.440 C 4.570 18.517,4.667 18.159,4.724 18.100 C 4.801 18.022,4.855 18.020,7.491 18.020 C 9.484 18.020,10.201 18.032,10.262 18.067 C 10.331 18.107,10.393 18.334,10.657 19.507 C 11.010 21.081,11.119 21.465,11.263 21.636 C 11.409 21.810,11.758 21.969,11.994 21.969 C 12.405 21.969,12.818 21.662,12.944 21.264 C 13.014 21.042,13.014 21.040,12.885 20.371 C 12.696 19.390,12.336 17.780,12.238 17.480 C 12.064 16.945,11.670 16.518,11.083 16.227 L 10.746 16.060 7.663 16.054 C 5.967 16.051,4.487 16.062,4.374 16.079 " fill="#1A1C1F" stroke="none" fill-rule="evenodd"></path></svg>