<svg width="32" height="32" viewBox="0 0 32 32" fill="none" xmlns="http://www.w3.org/2000/svg"><path d="M23.124 2.108 C 22.856 2.210,22.727 2.326,22.621 2.560 C 22.552 2.711,22.533 3.013,22.517 4.139 L 22.498 5.532 21.796 5.646 C 20.549 5.850,19.421 6.183,18.901 6.501 C 18.705 6.621,18.507 6.999,18.507 7.253 C 18.507 7.500,18.696 7.871,18.899 8.021 C 19.244 8.277,19.352 8.282,20.123 8.077 C 21.978 7.585,21.852 7.603,23.413 7.603 C 25.040 7.603,25.312 7.636,26.507 7.985 C 27.538 8.286,27.700 8.295,28.008 8.072 C 28.622 7.627,28.626 6.839,28.017 6.453 C 27.645 6.217,26.727 5.938,25.594 5.717 L 24.601 5.523 24.567 5.095 C 24.549 4.859,24.532 4.415,24.530 4.107 C 24.523 3.148,24.461 2.651,24.325 2.460 C 24.084 2.123,23.521 1.957,23.124 2.108 M20.064 10.137 C 19.629 10.358,19.467 10.716,19.573 11.224 C 19.622 11.463,19.673 11.552,19.846 11.699 C 20.287 12.077,20.766 12.074,21.168 11.691 C 21.636 11.245,21.546 10.429,21.000 10.170 C 20.682 10.019,20.322 10.006,20.064 10.137 M26.038 10.162 C 25.705 10.331,25.531 10.611,25.526 10.987 C 25.517 11.654,26.218 12.167,26.804 11.922 C 27.223 11.747,27.467 11.413,27.467 11.014 C 27.467 10.508,27.097 10.105,26.582 10.048 C 26.367 10.024,26.269 10.045,26.038 10.162 M8.473 11.121 C 7.573 11.323,6.687 11.824,5.975 12.533 C 5.394 13.113,5.085 13.598,4.768 14.427 L 4.565 14.960 4.565 15.947 C 4.566 16.822,4.579 16.978,4.688 17.331 C 5.140 18.805,6.170 19.981,7.519 20.566 C 8.216 20.868,8.668 20.960,9.451 20.960 C 10.555 20.960,11.375 20.725,12.197 20.174 C 13.310 19.427,14.035 18.410,14.353 17.147 C 14.524 16.471,14.523 15.525,14.352 14.853 C 13.897 13.069,12.630 11.756,10.851 11.223 C 10.450 11.103,10.249 11.077,9.600 11.061 C 9.050 11.048,8.725 11.065,8.473 11.121 M23.067 11.137 C 22.804 11.262,22.678 11.399,22.584 11.663 C 22.481 11.952,22.490 12.145,22.619 12.412 C 22.743 12.668,23.013 12.880,23.320 12.963 C 23.907 13.122,24.550 12.521,24.465 11.890 C 24.428 11.615,24.210 11.282,23.994 11.170 C 23.729 11.033,23.316 11.019,23.067 11.137 M10.339 13.154 C 10.768 13.266,11.124 13.476,11.533 13.861 C 12.178 14.467,12.541 15.417,12.452 16.266 C 12.370 17.048,12.051 17.671,11.461 18.206 C 10.282 19.273,8.549 19.236,7.446 18.120 C 6.830 17.497,6.560 16.851,6.560 16.000 C 6.560 14.984,7.040 14.071,7.861 13.526 C 8.587 13.044,9.431 12.917,10.339 13.154 M19.253 13.062 C 18.828 13.195,18.659 13.370,18.555 13.786 C 18.344 14.621,19.321 15.291,20.049 14.809 C 20.315 14.633,20.453 14.345,20.451 13.972 C 20.450 13.602,20.310 13.348,20.024 13.192 C 19.779 13.059,19.444 13.002,19.253 13.062 M27.214 13.070 C 26.959 13.148,26.637 13.481,26.556 13.751 C 26.426 14.187,26.644 14.675,27.057 14.875 C 27.471 15.076,27.922 14.971,28.249 14.599 C 28.860 13.903,28.112 12.799,27.214 13.070 M23.114 14.125 C 22.390 14.464,22.313 15.374,22.973 15.811 C 23.605 16.229,24.352 15.864,24.459 15.084 C 24.557 14.373,23.776 13.816,23.114 14.125 M17.988 16.180 C 17.748 16.350,17.620 16.527,17.550 16.787 C 17.480 17.048,17.512 17.224,17.686 17.528 C 17.919 17.938,18.458 18.084,18.918 17.861 C 19.257 17.697,19.430 17.444,19.454 17.075 C 19.494 16.460,19.094 16.050,18.458 16.056 C 18.237 16.058,18.116 16.090,17.988 16.180 M27.920 16.221 C 27.392 16.684,27.403 17.433,27.944 17.791 C 28.553 18.194,29.358 17.854,29.469 17.147 C 29.517 16.840,29.360 16.454,29.103 16.246 C 28.925 16.103,28.850 16.079,28.511 16.062 C 28.135 16.043,28.116 16.048,27.920 16.221 M23.187 17.088 C 22.760 17.243,22.592 17.458,22.527 17.933 C 22.471 18.340,22.785 18.788,23.231 18.935 C 23.639 19.069,24.162 18.853,24.351 18.471 C 24.489 18.194,24.485 17.736,24.342 17.492 C 24.141 17.145,23.574 16.947,23.187 17.088 M5.893 23.039 L 4.080 23.071 3.791 23.221 C 3.362 23.444,2.965 23.870,2.731 24.358 C 2.541 24.756,2.534 24.795,2.540 25.307 C 2.550 26.100,2.965 29.036,3.120 29.404 C 3.265 29.749,3.623 29.973,4.029 29.973 C 4.119 29.973,4.316 29.912,4.466 29.837 C 4.683 29.729,4.765 29.649,4.858 29.457 C 4.963 29.240,4.972 29.161,4.943 28.701 C 4.925 28.418,4.863 27.851,4.805 27.440 C 4.589 25.902,4.526 25.220,4.591 25.141 C 4.643 25.078,5.414 25.067,9.469 25.067 C 12.118 25.067,14.323 25.081,14.369 25.099 C 14.490 25.146,14.479 25.347,14.266 26.915 C 13.955 29.204,13.958 29.382,14.322 29.702 C 14.813 30.132,15.603 30.015,15.841 29.476 C 15.960 29.207,16.109 28.397,16.288 27.040 C 16.526 25.239,16.520 24.891,16.240 24.279 C 16.073 23.913,15.575 23.421,15.174 23.225 L 14.870 23.076 13.075 23.035 C 11.086 22.989,8.642 22.990,5.893 23.039 " fill="#1A1C1F" stroke="none" fill-rule="evenodd"></path></svg>