<svg width="14" height="14" viewBox="0 0 14 14" fill="none" xmlns="http://www.w3.org/2000/svg"><path d="M9.664 1.495 C 9.510 1.572,9.383 1.705,9.321 1.853 C 9.294 1.918,9.278 2.083,9.262 2.480 C 9.250 2.776,9.237 3.020,9.234 3.023 C 9.231 3.026,9.016 3.062,8.757 3.102 C 8.498 3.142,8.237 3.190,8.177 3.207 C 7.950 3.276,7.806 3.428,7.734 3.675 C 7.638 4.006,7.834 4.372,8.175 4.500 C 8.343 4.563,8.347 4.563,8.905 4.487 C 9.305 4.432,9.449 4.423,9.963 4.423 C 10.465 4.422,10.623 4.430,10.967 4.477 C 11.515 4.552,11.695 4.554,11.826 4.484 C 12.090 4.344,12.234 4.120,12.236 3.848 C 12.237 3.637,12.182 3.507,12.031 3.364 C 11.877 3.219,11.808 3.197,11.192 3.102 C 10.933 3.062,10.719 3.026,10.715 3.023 C 10.712 3.019,10.699 2.782,10.687 2.494 C 10.675 2.207,10.653 1.935,10.638 1.890 C 10.597 1.773,10.484 1.621,10.386 1.554 C 10.246 1.457,10.138 1.423,9.968 1.423 C 9.835 1.423,9.782 1.436,9.664 1.495 M4.074 4.797 C 3.517 4.921,2.996 5.385,2.766 5.961 C 2.568 6.456,2.606 7.054,2.866 7.548 C 2.988 7.781,3.425 8.218,3.652 8.335 C 4.166 8.600,4.735 8.633,5.247 8.429 C 5.715 8.243,6.063 7.916,6.275 7.464 C 6.730 6.493,6.357 5.410,5.402 4.929 C 5.151 4.803,5.038 4.780,4.620 4.770 C 4.330 4.763,4.195 4.770,4.074 4.797 M8.217 5.112 C 8.101 5.148,7.948 5.313,7.911 5.443 C 7.828 5.742,7.984 6.015,8.284 6.093 C 8.509 6.151,8.747 6.048,8.853 5.845 C 8.925 5.708,8.920 5.482,8.843 5.344 C 8.735 5.151,8.444 5.043,8.217 5.112 M11.265 5.169 C 11.004 5.346,10.966 5.741,11.188 5.962 C 11.412 6.187,11.795 6.149,11.980 5.884 C 12.045 5.793,12.051 5.767,12.051 5.600 C 12.051 5.433,12.045 5.407,11.980 5.316 C 11.872 5.162,11.763 5.111,11.538 5.110 C 11.376 5.110,11.339 5.118,11.265 5.169 M9.794 5.423 C 9.599 5.493,9.451 5.694,9.451 5.892 C 9.450 6.096,9.625 6.331,9.822 6.390 C 10.070 6.465,10.332 6.344,10.444 6.104 C 10.511 5.961,10.514 5.883,10.459 5.730 C 10.402 5.569,10.304 5.473,10.151 5.428 C 10.000 5.383,9.911 5.382,9.794 5.423 M7.730 6.665 C 7.650 6.682,7.441 6.883,7.394 6.988 C 7.317 7.156,7.350 7.334,7.487 7.493 C 7.572 7.593,7.764 7.699,7.861 7.700 C 8.113 7.701,8.400 7.419,8.400 7.169 C 8.400 7.012,8.259 6.804,8.094 6.719 C 8.006 6.674,7.819 6.646,7.730 6.665 M11.759 6.784 C 11.507 7.010,11.485 7.263,11.694 7.501 C 11.917 7.754,12.189 7.763,12.426 7.526 C 12.645 7.306,12.655 7.076,12.455 6.848 C 12.333 6.709,12.248 6.673,12.043 6.673 C 11.883 6.673,11.880 6.675,11.759 6.784 M9.786 7.032 C 9.681 7.080,9.527 7.249,9.482 7.366 C 9.432 7.496,9.450 7.627,9.536 7.766 C 9.711 8.049,10.067 8.113,10.305 7.904 C 10.590 7.654,10.538 7.230,10.203 7.061 C 10.095 7.006,9.875 6.991,9.786 7.032 M2.877 9.846 C 2.672 9.861,2.613 9.876,2.459 9.949 C 1.997 10.169,1.681 10.509,1.504 10.978 C 1.422 11.194,1.380 11.668,1.415 11.956 C 1.435 12.114,1.455 12.177,1.516 12.273 C 1.649 12.480,1.852 12.584,2.122 12.583 C 2.321 12.583,2.461 12.517,2.608 12.356 C 2.747 12.204,2.771 12.129,2.802 11.748 C 2.828 11.423,2.854 11.347,2.971 11.261 C 3.037 11.212,3.047 11.212,4.524 11.214 C 5.632 11.216,6.032 11.224,6.097 11.245 C 6.235 11.291,6.262 11.366,6.300 11.816 C 6.328 12.134,6.368 12.248,6.504 12.384 C 6.649 12.529,6.792 12.587,7.002 12.586 C 7.134 12.585,7.204 12.572,7.285 12.533 C 7.431 12.463,7.619 12.259,7.657 12.131 C 7.705 11.970,7.698 11.370,7.646 11.147 C 7.531 10.658,7.178 10.224,6.702 9.987 C 6.397 9.835,6.467 9.841,4.713 9.834 C 3.834 9.831,3.008 9.836,2.877 9.846 " fill="#1A1C1F" stroke="none" fill-rule="evenodd"></path></svg>