<svg width="14" height="14" viewBox="0 0 14 14" fill="none" xmlns="http://www.w3.org/2000/svg"><path d="M9.622 1.471 C 9.471 1.546,9.341 1.671,9.275 1.806 C 9.218 1.923,9.213 1.959,9.193 2.462 C 9.181 2.755,9.163 3.003,9.153 3.012 C 9.143 3.022,8.957 3.057,8.738 3.091 C 8.042 3.199,7.931 3.239,7.773 3.437 C 7.515 3.763,7.652 4.296,8.040 4.478 C 8.208 4.557,8.309 4.559,8.820 4.489 C 9.478 4.399,10.259 4.394,10.873 4.476 C 11.460 4.555,11.599 4.554,11.764 4.473 C 12.214 4.252,12.306 3.687,11.947 3.351 C 11.870 3.279,11.795 3.235,11.710 3.210 C 11.595 3.176,11.040 3.083,10.730 3.045 L 10.599 3.029 10.587 2.477 C 10.581 2.171,10.564 1.889,10.550 1.845 C 10.513 1.729,10.347 1.569,10.185 1.491 C 10.006 1.405,9.772 1.397,9.622 1.471 M4.165 4.759 C 3.980 4.781,3.878 4.815,3.640 4.938 C 3.092 5.220,2.754 5.638,2.614 6.211 C 2.361 7.242,3.054 8.302,4.131 8.531 C 4.408 8.590,4.783 8.566,5.063 8.472 C 5.706 8.255,6.149 7.784,6.327 7.128 C 6.367 6.980,6.377 6.876,6.377 6.627 C 6.378 6.350,6.370 6.286,6.314 6.103 C 6.211 5.761,6.087 5.551,5.846 5.306 C 5.495 4.952,5.160 4.800,4.636 4.760 C 4.467 4.747,4.323 4.738,4.317 4.740 C 4.310 4.742,4.242 4.750,4.165 4.759 M8.152 5.111 C 8.057 5.140,7.892 5.301,7.847 5.409 C 7.766 5.602,7.831 5.858,7.995 5.993 C 8.302 6.246,8.775 6.067,8.834 5.675 C 8.853 5.547,8.798 5.353,8.714 5.253 C 8.613 5.133,8.321 5.059,8.152 5.111 M11.336 5.107 C 11.222 5.133,11.070 5.261,11.014 5.377 C 10.938 5.533,10.953 5.746,11.050 5.885 C 11.138 6.013,11.328 6.114,11.478 6.113 C 11.739 6.112,11.991 5.873,11.993 5.626 C 11.994 5.436,11.879 5.240,11.717 5.159 C 11.621 5.111,11.430 5.085,11.336 5.107 M9.748 5.413 C 9.567 5.468,9.425 5.627,9.391 5.815 C 9.332 6.137,9.647 6.458,9.969 6.407 C 10.176 6.374,10.345 6.219,10.407 6.006 C 10.431 5.926,10.429 5.888,10.396 5.777 C 10.314 5.492,10.024 5.330,9.748 5.413 M7.647 6.682 C 7.385 6.779,7.224 7.076,7.304 7.316 C 7.364 7.498,7.612 7.698,7.779 7.699 C 8.046 7.702,8.329 7.430,8.330 7.172 C 8.330 7.099,8.270 6.942,8.212 6.863 C 8.098 6.709,7.818 6.619,7.647 6.682 M11.745 6.732 C 11.634 6.798,11.511 6.969,11.489 7.086 C 11.441 7.344,11.653 7.641,11.921 7.692 C 12.255 7.754,12.606 7.367,12.508 7.043 C 12.473 6.925,12.335 6.772,12.215 6.717 C 12.074 6.653,11.866 6.659,11.745 6.732 M9.740 7.033 C 9.599 7.077,9.503 7.158,9.438 7.289 C 9.343 7.480,9.370 7.672,9.517 7.843 C 9.703 8.061,10.009 8.087,10.231 7.904 C 10.484 7.696,10.475 7.299,10.214 7.122 C 10.035 7.000,9.916 6.978,9.740 7.033 M3.010 9.820 L 2.252 9.836 2.125 9.901 C 1.837 10.048,1.686 10.197,1.565 10.454 C 1.428 10.743,1.443 10.892,1.673 11.550 C 1.852 12.061,1.981 12.319,2.107 12.423 C 2.385 12.650,2.780 12.638,3.029 12.394 C 3.189 12.237,3.232 12.136,3.229 11.923 C 3.227 11.791,3.206 11.687,3.144 11.499 L 3.062 11.249 3.194 11.233 C 3.356 11.212,5.847 11.206,5.867 11.226 C 5.875 11.234,5.849 11.344,5.808 11.470 C 5.673 11.893,5.694 12.119,5.892 12.339 C 6.089 12.558,6.295 12.618,6.593 12.541 C 6.862 12.471,6.977 12.326,7.185 11.795 C 7.443 11.138,7.499 10.872,7.433 10.615 C 7.375 10.389,7.309 10.269,7.153 10.114 C 6.992 9.952,6.855 9.878,6.659 9.846 C 6.486 9.817,4.016 9.800,3.010 9.820 " fill="#1A1C1F" stroke="none" fill-rule="evenodd"></path></svg>