<svg width="28" height="28" viewBox="0 0 28 28" fill="none" xmlns="http://www.w3.org/2000/svg"><path d="M20.233 1.845 C 19.999 1.934,19.886 2.035,19.793 2.240 C 19.733 2.372,19.716 2.636,19.702 3.623 L 19.685 4.843 19.164 4.923 C 17.794 5.131,16.544 5.562,16.337 5.898 C 16.124 6.241,16.177 6.657,16.470 6.950 C 16.762 7.242,16.901 7.255,17.635 7.062 C 19.279 6.628,19.064 6.659,20.510 6.656 C 21.962 6.654,22.142 6.678,23.341 7.029 C 24.022 7.228,24.181 7.240,24.430 7.111 C 24.832 6.904,25.035 6.337,24.838 5.973 C 24.630 5.590,23.877 5.291,22.394 5.002 L 21.526 4.833 21.496 4.458 C 21.480 4.252,21.466 3.884,21.465 3.640 C 21.464 3.396,21.445 2.991,21.423 2.740 C 21.389 2.361,21.362 2.257,21.263 2.128 C 21.041 1.836,20.585 1.711,20.233 1.845 M17.556 8.870 C 17.176 9.063,17.034 9.377,17.126 9.821 C 17.170 10.030,17.214 10.108,17.365 10.237 C 17.751 10.567,18.170 10.565,18.522 10.230 C 18.932 9.840,18.853 9.125,18.375 8.899 C 18.097 8.767,17.782 8.756,17.556 8.870 M22.794 8.886 C 22.063 9.257,22.255 10.356,23.072 10.478 C 23.399 10.527,23.796 10.305,23.967 9.977 C 24.135 9.657,23.988 9.148,23.666 8.935 C 23.395 8.756,23.086 8.738,22.794 8.886 M7.414 9.731 C 6.644 9.904,5.857 10.344,5.248 10.943 C 4.740 11.444,4.445 11.900,4.183 12.594 L 3.995 13.090 3.995 13.953 C 3.995 14.720,4.007 14.856,4.102 15.164 C 4.499 16.460,5.414 17.501,6.591 17.997 C 7.301 18.297,7.622 18.354,8.444 18.327 C 9.260 18.300,9.526 18.242,10.104 17.966 C 11.365 17.365,12.226 16.326,12.559 15.003 C 12.708 14.412,12.708 13.584,12.558 12.997 C 12.159 11.433,11.054 10.287,9.494 9.820 C 9.144 9.715,8.968 9.692,8.400 9.678 C 7.919 9.667,7.634 9.682,7.414 9.731 M20.183 9.745 C 19.954 9.854,19.843 9.974,19.761 10.205 C 19.671 10.458,19.679 10.627,19.792 10.860 C 19.900 11.084,20.136 11.270,20.405 11.343 C 20.919 11.482,21.481 10.955,21.407 10.404 C 21.375 10.163,21.184 9.872,20.995 9.774 C 20.763 9.654,20.402 9.641,20.183 9.745 M8.959 11.486 C 9.596 11.625,10.330 12.220,10.632 12.844 C 11.150 13.911,10.931 15.090,10.066 15.897 C 9.704 16.234,9.401 16.401,8.933 16.521 C 8.028 16.752,7.175 16.515,6.505 15.847 C 5.980 15.323,5.740 14.731,5.740 13.961 C 5.740 13.261,5.985 12.672,6.482 12.175 C 7.148 11.509,7.989 11.275,8.959 11.486 M16.765 11.437 C 16.518 11.511,16.303 11.765,16.237 12.059 C 16.187 12.282,16.190 12.344,16.259 12.526 C 16.352 12.769,16.578 12.986,16.824 13.067 C 17.184 13.186,17.642 12.997,17.808 12.662 C 17.919 12.437,17.921 12.027,17.812 11.820 C 17.658 11.528,17.119 11.331,16.765 11.437 M23.832 11.432 C 23.609 11.502,23.373 11.717,23.276 11.937 C 23.097 12.340,23.275 12.822,23.672 13.014 C 24.037 13.191,24.431 13.101,24.718 12.774 C 25.155 12.276,24.827 11.500,24.143 11.413 C 24.044 11.401,23.904 11.409,23.832 11.432 M20.230 12.359 C 19.660 12.632,19.534 13.280,19.967 13.714 C 20.401 14.148,21.059 14.050,21.308 13.514 C 21.442 13.228,21.448 13.015,21.329 12.755 C 21.152 12.365,20.619 12.173,20.230 12.359 M15.740 14.158 C 15.530 14.306,15.418 14.461,15.357 14.688 C 15.295 14.917,15.323 15.071,15.475 15.337 C 15.679 15.696,16.151 15.823,16.553 15.629 C 16.850 15.485,17.001 15.263,17.022 14.940 C 17.057 14.403,16.707 14.044,16.151 14.049 C 15.957 14.051,15.851 14.079,15.740 14.158 M24.523 14.131 C 24.335 14.251,24.238 14.366,24.152 14.572 C 23.856 15.279,24.617 15.972,25.317 15.633 C 25.624 15.485,25.782 15.231,25.780 14.891 C 25.778 14.578,25.683 14.380,25.450 14.202 C 25.224 14.030,24.741 13.992,24.523 14.131 M20.265 14.937 C 20.018 15.011,19.803 15.265,19.737 15.559 C 19.687 15.782,19.690 15.844,19.759 16.026 C 19.903 16.402,20.302 16.650,20.682 16.599 C 20.933 16.566,21.200 16.379,21.308 16.162 C 21.419 15.937,21.421 15.527,21.312 15.320 C 21.158 15.028,20.619 14.831,20.265 14.937 M5.180 20.159 L 3.570 20.187 3.334 20.310 C 3.059 20.453,2.612 20.883,2.449 21.160 C 2.260 21.483,2.179 21.893,2.215 22.350 C 2.262 22.962,2.602 25.283,2.688 25.581 C 2.736 25.748,2.818 25.897,2.910 25.987 C 3.312 26.375,4.069 26.248,4.265 25.760 C 4.370 25.496,4.362 25.308,4.174 23.782 C 4.083 23.040,4.015 22.326,4.023 22.195 L 4.037 21.957 4.830 21.919 C 5.706 21.877,12.447 21.913,12.570 21.960 C 12.679 22.003,12.671 22.163,12.483 23.548 C 12.211 25.564,12.214 25.710,12.532 25.989 C 12.961 26.366,13.653 26.263,13.861 25.792 C 13.965 25.556,14.096 24.845,14.252 23.660 C 14.462 22.063,14.455 21.717,14.200 21.213 C 14.043 20.903,13.609 20.484,13.277 20.321 L 13.011 20.191 11.417 20.155 C 9.651 20.116,7.616 20.117,5.180 20.159 " fill="#1A1C1F" stroke="none" fill-rule="evenodd"></path></svg>