<svg width="32" height="32" viewBox="0 0 32 32" fill="none" xmlns="http://www.w3.org/2000/svg"><path d="M23.124 2.111 C 22.858 2.208,22.727 2.325,22.621 2.560 C 22.552 2.711,22.533 3.013,22.517 4.139 L 22.498 5.532 21.796 5.646 C 20.549 5.850,19.421 6.183,18.901 6.501 C 18.705 6.621,18.507 6.999,18.507 7.253 C 18.507 7.500,18.696 7.871,18.899 8.021 C 19.244 8.277,19.352 8.282,20.123 8.077 C 21.780 7.638,21.874 7.622,23.013 7.590 C 24.641 7.543,25.180 7.617,27.142 8.157 C 27.621 8.289,27.857 8.241,28.164 7.949 C 28.512 7.618,28.565 7.121,28.296 6.715 C 28.039 6.326,27.031 5.968,25.390 5.682 C 24.967 5.608,24.603 5.520,24.583 5.487 C 24.562 5.454,24.533 4.860,24.519 4.167 C 24.503 3.398,24.467 2.824,24.427 2.694 C 24.345 2.429,24.082 2.175,23.801 2.091 C 23.532 2.010,23.387 2.014,23.124 2.111 M20.171 10.084 C 19.919 10.161,19.596 10.504,19.551 10.742 C 19.455 11.255,19.668 11.669,20.145 11.893 C 20.575 12.095,21.065 11.928,21.338 11.485 C 21.585 11.086,21.442 10.435,21.054 10.196 C 20.844 10.065,20.413 10.011,20.171 10.084 M26.133 10.109 C 25.688 10.309,25.437 10.790,25.552 11.222 C 25.667 11.656,26.076 11.998,26.480 11.998 C 26.826 11.998,27.285 11.675,27.410 11.343 C 27.561 10.943,27.402 10.447,27.047 10.212 C 26.786 10.039,26.388 9.994,26.133 10.109 M8.570 11.098 C 7.843 11.205,6.735 11.795,6.048 12.442 C 5.420 13.034,5.018 13.685,4.689 14.640 C 4.571 14.982,4.561 15.094,4.563 15.973 C 4.566 16.816,4.581 16.982,4.688 17.331 C 5.139 18.803,6.169 19.981,7.519 20.566 C 8.216 20.868,8.668 20.960,9.451 20.960 C 10.286 20.960,10.797 20.864,11.422 20.590 C 12.825 19.975,13.815 18.882,14.260 17.454 C 15.048 14.933,13.641 12.166,11.132 11.302 C 10.449 11.067,9.372 10.981,8.570 11.098 M23.062 11.138 C 22.798 11.262,22.633 11.462,22.555 11.752 C 22.405 12.307,22.755 12.831,23.375 12.981 C 23.930 13.114,24.577 12.425,24.454 11.832 C 24.401 11.577,24.188 11.271,23.994 11.170 C 23.729 11.033,23.316 11.019,23.062 11.138 M10.343 13.155 C 11.256 13.392,12.047 14.194,12.358 15.200 C 12.503 15.670,12.479 16.462,12.304 16.957 C 11.885 18.142,10.719 18.983,9.489 18.986 C 9.106 18.987,8.442 18.817,8.091 18.628 C 7.663 18.397,7.135 17.868,6.915 17.448 C 6.660 16.964,6.560 16.554,6.560 16.000 C 6.560 15.207,6.809 14.555,7.332 13.981 C 8.092 13.149,9.175 12.851,10.343 13.155 M19.253 13.062 C 18.828 13.195,18.659 13.370,18.555 13.786 C 18.344 14.621,19.321 15.291,20.049 14.809 C 20.315 14.633,20.453 14.345,20.451 13.972 C 20.450 13.602,20.310 13.348,20.024 13.192 C 19.779 13.059,19.444 13.002,19.253 13.062 M27.211 13.071 C 26.846 13.181,26.508 13.664,26.507 14.076 C 26.507 14.269,26.699 14.631,26.867 14.754 C 27.445 15.178,28.190 14.978,28.402 14.341 C 28.463 14.156,28.480 13.998,28.455 13.834 C 28.374 13.295,27.746 12.910,27.211 13.071 M23.114 14.125 C 22.390 14.464,22.313 15.374,22.973 15.811 C 23.605 16.229,24.352 15.864,24.459 15.084 C 24.557 14.373,23.776 13.816,23.114 14.125 M17.988 16.180 C 17.748 16.350,17.620 16.527,17.550 16.787 C 17.480 17.048,17.512 17.224,17.686 17.528 C 17.919 17.938,18.458 18.084,18.918 17.861 C 19.257 17.697,19.430 17.444,19.454 17.075 C 19.494 16.460,19.094 16.050,18.458 16.056 C 18.237 16.058,18.116 16.090,17.988 16.180 M27.920 16.221 C 27.392 16.684,27.403 17.433,27.944 17.791 C 28.553 18.194,29.358 17.854,29.469 17.147 C 29.517 16.840,29.360 16.454,29.103 16.246 C 28.925 16.103,28.850 16.079,28.511 16.062 C 28.135 16.043,28.116 16.048,27.920 16.221 M23.187 17.088 C 22.760 17.243,22.592 17.458,22.527 17.933 C 22.471 18.340,22.785 18.788,23.231 18.935 C 23.639 19.069,24.162 18.853,24.351 18.471 C 24.489 18.194,24.485 17.736,24.342 17.492 C 24.141 17.145,23.574 16.947,23.187 17.088 M5.443 23.098 C 4.844 23.176,4.071 23.641,3.782 24.096 C 3.694 24.234,3.540 24.607,3.439 24.925 C 3.176 25.755,2.547 28.602,2.539 28.995 C 2.534 29.286,2.552 29.346,2.696 29.525 C 2.936 29.821,3.105 29.928,3.381 29.960 C 3.705 29.996,4.068 29.858,4.234 29.635 C 4.411 29.398,4.481 29.156,4.929 27.221 C 5.147 26.279,5.361 25.423,5.405 25.318 C 5.470 25.162,5.523 25.118,5.689 25.083 C 5.942 25.030,12.893 25.032,13.235 25.086 C 13.446 25.119,13.496 25.151,13.563 25.296 C 13.638 25.456,13.798 26.086,14.345 28.378 C 14.468 28.894,14.621 29.410,14.685 29.525 C 14.933 29.972,15.590 30.099,16.058 29.790 C 16.555 29.461,16.566 29.096,16.140 27.242 C 15.774 25.654,15.499 24.636,15.357 24.342 C 15.184 23.983,14.697 23.547,14.188 23.293 L 13.733 23.067 9.760 23.060 C 7.575 23.056,5.632 23.073,5.443 23.098 " fill="#1A1C1F" stroke="none" fill-rule="evenodd"></path></svg>