<svg width="12" height="12" viewBox="0 0 12 12" fill="none" xmlns="http://www.w3.org/2000/svg"><path d="M8.285 1.280 C 8.153 1.347,8.065 1.437,7.998 1.575 C 7.962 1.648,7.954 1.719,7.939 2.123 C 7.929 2.378,7.918 2.589,7.915 2.592 C 7.912 2.595,7.752 2.621,7.560 2.649 C 6.959 2.739,6.859 2.775,6.723 2.946 C 6.641 3.050,6.611 3.145,6.612 3.300 C 6.614 3.473,6.675 3.611,6.803 3.730 C 6.991 3.906,7.102 3.920,7.700 3.838 C 8.201 3.769,8.898 3.769,9.400 3.838 C 9.869 3.902,10.024 3.903,10.136 3.844 C 10.330 3.741,10.465 3.557,10.492 3.358 C 10.518 3.171,10.391 2.903,10.232 2.810 C 10.128 2.749,9.983 2.715,9.540 2.649 C 9.348 2.621,9.188 2.595,9.185 2.591 C 9.181 2.588,9.171 2.377,9.160 2.121 C 9.140 1.601,9.129 1.556,8.980 1.402 C 8.861 1.279,8.757 1.234,8.570 1.225 C 8.422 1.217,8.401 1.221,8.285 1.280 M3.646 4.081 C 3.043 4.155,2.496 4.642,2.320 5.263 C 2.206 5.664,2.269 6.152,2.482 6.513 C 2.587 6.694,2.962 7.061,3.120 7.141 C 3.551 7.356,3.991 7.397,4.406 7.259 C 4.833 7.118,5.148 6.851,5.349 6.460 C 5.572 6.025,5.607 5.619,5.458 5.173 C 5.313 4.735,5.013 4.404,4.577 4.201 C 4.346 4.094,3.956 4.043,3.646 4.081 M7.091 4.374 C 7.009 4.387,6.872 4.486,6.820 4.569 C 6.760 4.668,6.745 4.836,6.789 4.949 C 6.849 5.108,7.043 5.240,7.212 5.240 C 7.401 5.240,7.576 5.103,7.620 4.922 C 7.671 4.706,7.588 4.504,7.410 4.415 C 7.342 4.381,7.180 4.360,7.091 4.374 M9.767 4.378 C 9.619 4.415,9.491 4.572,9.467 4.746 C 9.407 5.189,9.980 5.420,10.254 5.063 C 10.408 4.862,10.337 4.528,10.117 4.425 C 10.016 4.377,9.858 4.356,9.767 4.378 M8.392 4.649 C 8.244 4.702,8.100 4.894,8.100 5.039 C 8.100 5.234,8.234 5.413,8.422 5.469 C 8.563 5.511,8.612 5.508,8.731 5.452 C 8.888 5.379,9.000 5.216,9.000 5.058 C 9.000 4.972,8.931 4.813,8.865 4.747 C 8.797 4.679,8.640 4.619,8.531 4.621 C 8.498 4.621,8.435 4.634,8.392 4.649 M6.626 5.713 C 6.558 5.728,6.378 5.900,6.337 5.990 C 6.292 6.089,6.291 6.166,6.332 6.286 C 6.373 6.407,6.522 6.544,6.652 6.580 C 6.945 6.663,7.262 6.343,7.180 6.049 C 7.148 5.937,7.046 5.814,6.939 5.760 C 6.863 5.721,6.702 5.697,6.626 5.713 M10.061 5.835 C 9.879 6.013,9.852 6.200,9.981 6.378 C 10.169 6.638,10.436 6.667,10.651 6.451 C 10.839 6.262,10.847 6.065,10.676 5.870 C 10.571 5.750,10.498 5.720,10.320 5.720 L 10.179 5.720 10.061 5.835 M8.388 6.027 C 8.247 6.091,8.101 6.298,8.100 6.436 C 8.099 6.587,8.218 6.762,8.368 6.832 C 8.639 6.958,8.924 6.808,8.989 6.504 C 9.023 6.347,8.915 6.139,8.758 6.059 C 8.655 6.006,8.469 5.990,8.388 6.027 M2.620 8.439 C 2.295 8.450,2.288 8.451,2.127 8.523 C 1.909 8.620,1.799 8.697,1.618 8.881 C 1.499 9.002,1.446 9.077,1.373 9.223 C 1.323 9.326,1.268 9.463,1.251 9.528 C 1.210 9.687,1.190 10.137,1.217 10.297 C 1.268 10.599,1.502 10.788,1.823 10.787 C 1.993 10.786,2.107 10.732,2.235 10.591 C 2.352 10.463,2.377 10.389,2.401 10.084 C 2.411 9.955,2.425 9.826,2.431 9.796 C 2.445 9.732,2.558 9.626,2.634 9.607 C 2.729 9.583,5.163 9.615,5.236 9.641 C 5.344 9.680,5.368 9.752,5.400 10.128 C 5.424 10.401,5.459 10.499,5.575 10.615 C 5.699 10.739,5.822 10.789,6.000 10.788 C 6.190 10.786,6.300 10.736,6.437 10.591 C 6.571 10.450,6.589 10.379,6.590 10.010 C 6.590 9.653,6.555 9.475,6.440 9.244 C 6.285 8.936,6.050 8.712,5.705 8.545 C 5.533 8.461,5.505 8.454,5.295 8.439 C 5.049 8.421,3.148 8.421,2.620 8.439 " fill="#1A1C1F" stroke="none" fill-rule="evenodd"></path></svg>