<svg width="20" height="20" viewBox="0 0 20 20" fill="none" xmlns="http://www.w3.org/2000/svg"><path d="M13.733 2.108 C 13.536 2.205,13.311 2.433,13.229 2.619 C 13.174 2.744,13.158 2.888,13.132 3.523 C 13.115 3.939,13.090 4.290,13.076 4.303 C 13.062 4.317,12.795 4.367,12.483 4.415 C 11.532 4.562,11.409 4.601,11.192 4.818 C 10.999 5.012,10.919 5.208,10.919 5.483 C 10.920 5.990,11.288 6.421,11.776 6.487 C 11.856 6.498,12.220 6.465,12.617 6.411 C 13.571 6.282,14.648 6.277,15.533 6.397 C 16.314 6.503,16.569 6.505,16.783 6.406 C 17.311 6.165,17.530 5.549,17.269 5.038 C 17.173 4.850,16.921 4.641,16.720 4.583 C 16.562 4.537,15.762 4.403,15.329 4.350 L 15.141 4.327 15.125 3.538 C 15.115 3.101,15.092 2.699,15.071 2.635 C 15.018 2.470,14.782 2.241,14.550 2.129 C 14.288 2.004,13.961 1.995,13.733 2.108 M5.671 6.851 C 5.176 6.989,4.542 7.417,4.244 7.815 C 3.889 8.290,3.701 8.784,3.675 9.310 C 3.637 10.100,3.859 10.751,4.353 11.295 C 4.713 11.692,5.246 12.026,5.717 12.150 C 6.046 12.237,6.640 12.253,6.952 12.184 C 7.652 12.030,8.277 11.596,8.684 10.983 C 9.018 10.480,9.105 10.164,9.110 9.437 C 9.114 9.009,9.105 8.922,9.036 8.717 C 8.785 7.964,8.272 7.361,7.622 7.054 C 7.160 6.836,7.101 6.823,6.450 6.812 C 5.992 6.803,5.808 6.813,5.671 6.851 M11.646 7.301 C 11.510 7.343,11.275 7.573,11.210 7.728 C 11.054 8.101,11.269 8.561,11.663 8.695 C 12.085 8.838,12.553 8.551,12.620 8.107 C 12.647 7.924,12.569 7.647,12.449 7.505 C 12.304 7.333,11.887 7.227,11.646 7.301 M16.175 7.297 C 16.047 7.330,15.854 7.471,15.777 7.588 C 15.672 7.748,15.632 7.982,15.679 8.162 C 15.778 8.541,16.201 8.821,16.542 8.732 C 17.229 8.552,17.334 7.668,16.707 7.352 C 16.574 7.285,16.324 7.260,16.175 7.297 M13.925 7.733 C 13.548 7.847,13.329 8.244,13.435 8.623 C 13.495 8.838,13.732 9.080,13.933 9.134 C 14.339 9.242,14.745 9.001,14.868 8.580 C 14.901 8.466,14.898 8.411,14.852 8.252 C 14.734 7.846,14.320 7.614,13.925 7.733 M10.979 9.530 C 10.655 9.612,10.400 9.945,10.400 10.285 C 10.400 10.432,10.551 10.714,10.685 10.816 C 11.041 11.087,11.396 11.054,11.689 10.722 C 11.934 10.443,11.955 10.131,11.747 9.830 C 11.596 9.610,11.229 9.467,10.979 9.530 M16.817 9.589 C 16.402 9.807,16.289 10.311,16.567 10.696 C 16.704 10.884,16.981 11.013,17.203 10.992 C 17.497 10.964,17.835 10.653,17.884 10.365 C 17.933 10.075,17.747 9.744,17.456 9.603 C 17.281 9.518,16.964 9.511,16.817 9.589 M13.894 10.053 C 13.552 10.158,13.347 10.520,13.429 10.874 C 13.509 11.222,13.740 11.425,14.094 11.457 C 14.309 11.477,14.454 11.430,14.626 11.284 C 15.054 10.924,14.917 10.237,14.380 10.054 C 14.190 9.989,14.101 9.989,13.894 10.053 M4.317 14.029 L 3.217 14.051 3.035 14.144 C 2.692 14.320,2.479 14.509,2.292 14.805 C 2.206 14.941,2.100 15.284,2.100 15.426 C 2.100 15.612,2.210 16.002,2.439 16.631 C 2.686 17.310,2.835 17.601,3.013 17.753 C 3.182 17.898,3.546 18.017,3.726 17.985 C 4.118 17.916,4.386 17.737,4.531 17.448 C 4.654 17.202,4.643 16.811,4.504 16.435 C 4.447 16.281,4.400 16.129,4.400 16.099 C 4.400 16.050,4.514 16.042,5.555 16.022 C 7.113 15.992,8.307 15.995,8.360 16.029 C 8.394 16.050,8.382 16.121,8.300 16.370 C 8.244 16.542,8.189 16.790,8.178 16.919 C 8.160 17.130,8.168 17.178,8.250 17.361 C 8.576 18.087,9.506 18.176,9.953 17.524 C 10.166 17.215,10.613 15.966,10.655 15.566 C 10.695 15.188,10.525 14.755,10.219 14.448 C 9.989 14.218,9.793 14.112,9.512 14.065 C 9.267 14.024,5.785 14.000,4.317 14.029 " fill="#1A1C1F" stroke="none" fill-rule="evenodd"></path></svg>