<svg width="12" height="12" viewBox="0 0 12 12" fill="none" xmlns="http://www.w3.org/2000/svg"><path d="M8.374 1.223 C 8.200 1.249,8.004 1.411,7.929 1.590 C 7.906 1.644,7.893 1.789,7.879 2.116 C 7.869 2.364,7.854 2.574,7.845 2.582 C 7.837 2.590,7.677 2.620,7.490 2.649 C 6.919 2.737,6.846 2.760,6.715 2.891 C 6.600 3.007,6.551 3.125,6.552 3.290 C 6.552 3.598,6.770 3.853,7.066 3.892 C 7.112 3.898,7.339 3.880,7.570 3.851 C 8.394 3.748,8.630 3.747,9.301 3.840 C 9.700 3.896,9.946 3.896,10.079 3.838 C 10.284 3.750,10.429 3.517,10.427 3.280 C 10.425 3.047,10.253 2.814,10.037 2.751 C 9.938 2.723,9.463 2.643,9.197 2.610 L 9.084 2.596 9.076 2.113 C 9.070 1.688,9.064 1.621,9.031 1.552 C 8.922 1.329,8.634 1.184,8.374 1.223 M3.570 4.079 C 3.420 4.097,3.328 4.127,3.150 4.215 C 2.657 4.462,2.374 4.801,2.248 5.296 C 2.025 6.175,2.590 7.087,3.490 7.302 C 3.755 7.365,4.078 7.350,4.337 7.263 C 4.615 7.169,4.781 7.064,5.001 6.842 C 5.169 6.673,5.204 6.625,5.295 6.440 C 5.436 6.149,5.469 6.009,5.469 5.690 C 5.469 5.416,5.446 5.290,5.352 5.057 C 5.178 4.626,4.809 4.287,4.358 4.141 C 4.251 4.107,3.825 4.055,3.720 4.063 C 3.704 4.064,3.636 4.072,3.570 4.079 M6.990 4.385 C 6.848 4.444,6.753 4.549,6.701 4.705 C 6.624 4.941,6.864 5.239,7.131 5.240 C 7.349 5.240,7.540 5.077,7.572 4.864 C 7.588 4.755,7.541 4.588,7.469 4.503 C 7.380 4.397,7.119 4.333,6.990 4.385 M9.692 4.384 C 9.516 4.432,9.357 4.688,9.391 4.868 C 9.413 4.986,9.507 5.112,9.624 5.180 C 9.717 5.234,9.745 5.241,9.853 5.235 C 10.052 5.224,10.210 5.093,10.263 4.895 C 10.346 4.586,10.020 4.295,9.692 4.384 M8.355 4.640 C 8.129 4.708,7.997 4.947,8.061 5.174 C 8.097 5.303,8.239 5.448,8.360 5.480 C 8.677 5.565,8.995 5.275,8.918 4.971 C 8.855 4.720,8.596 4.568,8.355 4.640 M6.555 5.727 C 6.320 5.814,6.187 6.075,6.268 6.288 C 6.330 6.450,6.522 6.599,6.672 6.600 C 6.874 6.601,7.101 6.408,7.131 6.210 C 7.176 5.911,6.833 5.624,6.555 5.727 M10.187 5.719 C 10.022 5.758,9.874 5.921,9.849 6.090 C 9.822 6.269,9.929 6.461,10.103 6.548 C 10.291 6.641,10.464 6.602,10.612 6.434 C 10.689 6.347,10.740 6.232,10.740 6.148 C 10.739 5.896,10.435 5.660,10.187 5.719 M8.336 6.032 C 8.131 6.095,8.008 6.312,8.057 6.525 C 8.105 6.733,8.244 6.855,8.456 6.874 C 8.585 6.886,8.672 6.858,8.776 6.771 C 9.032 6.554,8.950 6.142,8.628 6.032 C 8.514 5.994,8.460 5.993,8.336 6.032 M2.600 8.417 L 1.930 8.430 1.821 8.486 C 1.574 8.613,1.435 8.755,1.326 8.993 C 1.250 9.157,1.251 9.344,1.328 9.589 C 1.406 9.834,1.584 10.310,1.639 10.420 C 1.741 10.623,1.845 10.711,2.049 10.771 C 2.299 10.843,2.599 10.708,2.719 10.469 C 2.792 10.321,2.786 10.087,2.703 9.861 C 2.668 9.768,2.640 9.678,2.640 9.659 C 2.640 9.630,2.708 9.625,3.333 9.613 C 4.268 9.595,4.984 9.597,5.016 9.617 C 5.037 9.630,5.029 9.673,4.980 9.822 C 4.946 9.925,4.913 10.074,4.907 10.152 C 4.896 10.278,4.901 10.307,4.951 10.418 C 5.027 10.587,5.156 10.702,5.323 10.749 C 5.620 10.833,5.887 10.704,6.038 10.404 C 6.149 10.185,6.378 9.503,6.393 9.350 C 6.416 9.116,6.311 8.847,6.123 8.660 C 5.990 8.528,5.878 8.470,5.700 8.441 C 5.538 8.415,3.510 8.400,2.600 8.417 " fill="#1A1C1F" stroke="none" fill-rule="evenodd"></path></svg>