<svg width="20" height="20" viewBox="0 0 20 20" fill="none" xmlns="http://www.w3.org/2000/svg"><path d="M13.917 2.072 C 13.731 2.142,13.531 2.304,13.415 2.480 C 13.275 2.690,13.234 2.902,13.233 3.417 C 13.233 3.618,13.223 3.906,13.212 4.055 L 13.191 4.327 12.820 4.382 C 11.617 4.561,11.411 4.627,11.216 4.895 C 10.818 5.444,11.043 6.191,11.678 6.428 C 11.919 6.518,11.924 6.518,12.721 6.410 C 13.292 6.332,13.501 6.320,14.233 6.318 C 14.949 6.317,15.175 6.329,15.667 6.396 C 16.449 6.503,16.707 6.505,16.893 6.406 C 17.105 6.294,17.294 6.109,17.391 5.919 C 17.462 5.782,17.478 5.703,17.478 5.498 C 17.479 5.186,17.400 5.005,17.169 4.789 C 16.967 4.600,16.850 4.565,15.989 4.431 C 15.619 4.374,15.313 4.324,15.309 4.320 C 15.305 4.316,15.286 3.963,15.266 3.535 C 15.242 3.018,15.215 2.721,15.184 2.646 C 15.120 2.494,14.847 2.209,14.684 2.124 C 14.527 2.043,14.076 2.012,13.917 2.072 M5.883 6.832 C 5.641 6.884,5.360 6.997,5.120 7.138 C 4.811 7.320,4.320 7.811,4.141 8.117 C 3.632 8.985,3.651 10.117,4.188 10.937 C 4.407 11.271,4.930 11.756,5.254 11.925 C 5.686 12.149,5.971 12.216,6.500 12.216 C 6.869 12.216,6.998 12.202,7.217 12.140 C 8.005 11.914,8.613 11.404,8.952 10.683 C 9.459 9.607,9.290 8.448,8.505 7.623 C 8.189 7.292,7.746 7.012,7.333 6.884 C 7.124 6.819,6.112 6.782,5.883 6.832 M11.836 7.292 C 11.688 7.309,11.459 7.467,11.367 7.616 C 11.266 7.780,11.242 8.060,11.315 8.249 C 11.415 8.513,11.738 8.734,12.021 8.733 C 12.335 8.733,12.627 8.504,12.699 8.203 C 12.764 7.934,12.683 7.615,12.511 7.460 C 12.376 7.337,12.078 7.263,11.836 7.292 M16.315 7.298 C 15.792 7.380,15.589 8.124,15.982 8.518 C 16.303 8.838,16.849 8.784,17.115 8.406 C 17.206 8.275,17.216 8.238,17.216 8.000 C 17.216 7.762,17.206 7.725,17.115 7.594 C 16.946 7.353,16.653 7.245,16.315 7.298 M13.987 7.749 C 13.740 7.837,13.500 8.157,13.500 8.398 C 13.500 8.723,13.724 9.022,14.036 9.114 C 14.272 9.184,14.353 9.180,14.552 9.087 C 14.814 8.965,15.000 8.693,15.000 8.429 C 15.000 8.287,14.886 8.022,14.775 7.911 C 14.662 7.798,14.400 7.699,14.219 7.701 C 14.163 7.702,14.059 7.724,13.987 7.749 M11.060 9.524 C 10.936 9.543,10.637 9.819,10.562 9.983 C 10.439 10.254,10.500 10.512,10.746 10.752 C 11.113 11.110,11.552 11.062,11.866 10.629 C 12.070 10.348,12.028 10.024,11.752 9.748 C 11.541 9.536,11.360 9.478,11.060 9.524 M16.788 9.701 C 16.385 10.070,16.412 10.514,16.858 10.854 C 17.142 11.071,17.471 11.034,17.751 10.752 C 18.065 10.437,18.079 10.108,17.793 9.783 C 17.618 9.585,17.497 9.533,17.204 9.533 L 16.972 9.533 16.788 9.701 M13.980 10.045 C 13.741 10.154,13.501 10.499,13.501 10.733 C 13.501 10.990,13.737 11.324,13.985 11.419 C 14.169 11.489,14.433 11.469,14.629 11.369 C 14.785 11.289,14.949 11.039,14.985 10.824 C 15.031 10.550,14.859 10.232,14.591 10.095 C 14.418 10.007,14.118 9.983,13.980 10.045 M4.074 14.068 C 3.819 14.089,3.720 14.115,3.510 14.214 C 2.853 14.527,2.401 15.014,2.148 15.683 C 2.032 15.991,1.971 16.669,2.022 17.080 C 2.050 17.306,2.078 17.396,2.166 17.532 C 2.357 17.830,2.644 17.976,3.036 17.976 C 3.322 17.976,3.510 17.888,3.725 17.653 C 3.924 17.435,3.958 17.328,4.003 16.785 C 4.023 16.542,4.059 16.313,4.087 16.260 C 4.113 16.209,4.195 16.127,4.269 16.078 L 4.402 15.990 6.509 16.009 C 7.993 16.023,8.649 16.041,8.726 16.068 C 8.905 16.132,8.944 16.246,9.000 16.867 C 9.044 17.348,9.099 17.501,9.299 17.695 C 9.516 17.906,9.704 17.982,10.002 17.980 C 10.319 17.978,10.495 17.899,10.727 17.654 C 10.933 17.436,10.967 17.327,10.990 16.817 C 11.037 15.748,10.650 14.942,9.839 14.418 C 9.443 14.162,9.247 14.097,8.767 14.064 C 8.260 14.030,4.506 14.033,4.074 14.068 " fill="#1A1C1F" stroke="none" fill-rule="evenodd"></path></svg>