<svg width="32" height="32" viewBox="0 0 32 32" fill="none" xmlns="http://www.w3.org/2000/svg"><path d="M19.806 2.558 C 19.448 2.643,19.271 2.808,19.102 3.215 C 18.896 3.709,18.135 5.930,16.910 9.613 L 15.938 12.533 13.682 12.533 L 11.427 12.533 10.636 11.293 C 9.248 9.115,8.317 7.726,8.068 7.460 C 7.800 7.172,7.254 6.807,6.914 6.686 C 6.599 6.574,5.021 6.491,3.749 6.519 C 2.730 6.541,2.662 6.549,2.491 6.666 C 2.179 6.881,2.053 7.119,2.053 7.498 C 2.053 7.782,2.077 7.864,2.213 8.057 C 2.504 8.468,2.520 8.472,4.557 8.532 C 6.312 8.583,6.368 8.588,6.490 8.703 C 6.721 8.920,8.499 11.620,8.797 12.207 C 8.885 12.381,8.900 12.451,8.852 12.481 C 8.817 12.503,8.136 12.530,7.338 12.542 C 5.723 12.567,5.653 12.582,5.401 12.956 C 5.185 13.277,5.190 13.440,5.440 14.317 C 5.816 15.635,6.653 18.119,6.837 18.464 C 7.189 19.124,8.068 19.913,8.791 20.217 C 9.465 20.500,9.680 20.507,17.547 20.502 C 25.025 20.498,25.463 20.486,26.031 20.270 C 26.723 20.007,27.481 19.419,27.919 18.804 C 28.173 18.448,28.375 17.988,28.879 16.616 C 29.694 14.400,29.908 13.587,29.956 12.533 C 30.053 10.371,29.496 8.234,28.416 6.618 C 27.243 4.865,25.356 3.530,23.253 2.967 C 21.969 2.623,20.341 2.430,19.806 2.558 M22.027 4.727 C 23.615 5.041,24.860 5.659,25.860 6.631 C 27.245 7.978,27.942 9.775,27.946 12.013 L 27.947 12.533 23.013 12.533 C 20.300 12.533,18.080 12.521,18.080 12.505 C 18.080 12.472,19.035 9.560,20.009 6.622 L 20.705 4.524 21.033 4.560 C 21.213 4.579,21.660 4.654,22.027 4.727 M27.285 15.160 C 26.435 17.551,26.239 17.910,25.589 18.270 L 25.307 18.427 23.627 18.461 C 21.386 18.507,12.756 18.506,11.013 18.460 C 9.706 18.425,9.613 18.416,9.393 18.300 C 8.960 18.073,8.685 17.736,8.470 17.173 C 8.266 16.635,7.797 15.254,7.661 14.787 L 7.579 14.507 17.548 14.507 L 27.518 14.507 27.285 15.160 M11.387 21.581 C 10.106 21.787,9.038 22.567,8.476 23.707 C 7.462 25.765,8.254 28.077,10.320 29.087 C 10.944 29.392,11.256 29.463,11.973 29.463 C 12.967 29.462,13.767 29.192,14.455 28.624 C 15.161 28.042,15.629 27.334,15.851 26.514 C 15.994 25.984,16.006 25.035,15.876 24.533 C 15.537 23.228,14.430 22.083,13.120 21.682 C 12.827 21.593,11.717 21.528,11.387 21.581 M22.200 21.600 C 21.788 21.658,21.007 22.021,20.553 22.365 C 19.935 22.833,19.320 23.759,19.125 24.514 C 19.014 24.944,19.011 25.998,19.121 26.429 C 19.398 27.522,20.305 28.636,21.288 29.090 C 21.917 29.380,22.290 29.460,23.013 29.461 C 23.739 29.462,24.188 29.355,24.800 29.035 C 26.190 28.308,27.068 26.778,26.966 25.262 C 26.871 23.858,26.040 22.611,24.774 21.971 C 24.539 21.853,24.215 21.721,24.053 21.678 C 23.688 21.581,22.644 21.537,22.200 21.600 M12.696 23.653 C 13.047 23.773,13.491 24.149,13.707 24.510 C 13.886 24.810,13.894 24.845,13.911 25.428 C 13.928 25.991,13.920 26.053,13.791 26.316 C 13.490 26.931,12.946 27.345,12.278 27.465 C 11.478 27.609,10.609 27.118,10.226 26.305 C 10.077 25.988,10.069 25.939,10.089 25.425 C 10.106 24.979,10.134 24.832,10.242 24.618 C 10.485 24.134,11.019 23.711,11.560 23.575 C 11.818 23.510,12.390 23.549,12.696 23.653 M23.665 23.658 C 24.003 23.752,24.517 24.202,24.751 24.610 C 24.897 24.864,24.906 24.915,24.906 25.486 C 24.907 26.065,24.899 26.106,24.737 26.409 C 24.545 26.771,24.168 27.134,23.799 27.315 C 23.587 27.418,23.461 27.438,23.013 27.439 C 22.536 27.439,22.448 27.424,22.175 27.290 C 21.811 27.111,21.460 26.783,21.248 26.423 C 21.101 26.172,21.093 26.130,21.093 25.520 C 21.093 24.943,21.106 24.854,21.227 24.618 C 21.482 24.116,22.043 23.683,22.579 23.574 C 22.846 23.520,23.288 23.554,23.665 23.658 " fill="#1A1C1F" stroke="none" fill-rule="evenodd"></path></svg>