<svg width="24" height="24" viewBox="0 0 24 24" fill="none" xmlns="http://www.w3.org/2000/svg"><path d="M13.979 2.122 C 13.584 2.327,13.548 2.428,12.502 6.280 C 12.092 7.787,11.748 9.052,11.736 9.090 C 11.716 9.155,11.605 9.160,10.147 9.160 L 8.580 9.159 8.100 8.372 C 7.470 7.339,6.883 6.444,6.618 6.115 C 6.212 5.611,5.611 5.254,4.929 5.112 C 4.645 5.054,4.367 5.030,3.900 5.026 C 3.185 5.019,3.093 5.043,2.823 5.305 C 2.625 5.497,2.553 5.655,2.529 5.947 C 2.512 6.162,2.524 6.228,2.616 6.416 C 2.742 6.674,2.939 6.859,3.149 6.918 C 3.232 6.942,3.579 6.980,3.920 7.003 C 4.904 7.069,4.973 7.120,5.719 8.319 C 6.181 9.061,6.200 9.100,6.112 9.123 C 6.061 9.136,5.611 9.159,5.111 9.174 C 4.611 9.189,4.159 9.218,4.105 9.238 C 3.850 9.335,3.561 9.719,3.501 10.043 C 3.472 10.197,3.632 10.754,4.126 12.216 C 4.616 13.668,4.747 13.910,5.269 14.325 C 5.609 14.594,6.010 14.797,6.443 14.916 C 6.742 14.999,6.798 15.000,11.663 14.999 C 16.837 14.999,18.104 14.972,18.582 14.850 C 18.970 14.751,19.445 14.473,19.762 14.159 C 20.158 13.766,20.475 13.079,21.054 11.360 C 21.436 10.228,21.501 9.818,21.468 8.760 C 21.443 7.966,21.378 7.482,21.216 6.883 C 20.572 4.503,18.639 2.693,16.220 2.204 C 15.727 2.104,15.069 2.040,14.539 2.040 C 14.213 2.040,14.109 2.055,13.979 2.122 M16.051 4.222 C 16.503 4.336,17.133 4.618,17.525 4.882 C 17.874 5.117,18.399 5.635,18.635 5.977 C 19.174 6.759,19.417 7.541,19.504 8.770 L 19.531 9.160 16.733 9.160 C 14.555 9.160,13.921 9.149,13.872 9.110 C 13.815 9.065,13.839 8.947,14.105 7.960 C 14.423 6.783,15.050 4.481,15.123 4.225 L 15.167 4.069 15.404 4.094 C 15.534 4.108,15.825 4.165,16.051 4.222 M18.905 11.370 C 18.494 12.504,18.357 12.738,17.992 12.924 C 17.848 12.998,17.668 13.000,12.392 13.000 L 6.940 13.000 6.800 12.916 C 6.461 12.712,6.340 12.503,6.057 11.636 C 5.954 11.319,5.862 11.047,5.852 11.030 C 5.843 11.013,8.806 11.000,12.437 11.000 L 19.039 11.000 18.905 11.370 M7.920 16.065 C 7.392 16.168,6.873 16.453,6.442 16.877 C 6.009 17.302,5.825 17.576,5.670 18.028 C 5.568 18.323,5.545 18.460,5.529 18.872 C 5.506 19.476,5.568 19.777,5.827 20.317 C 5.981 20.637,6.063 20.748,6.374 21.061 C 6.945 21.634,7.424 21.875,8.171 21.963 C 9.426 22.111,10.623 21.449,11.199 20.289 C 11.397 19.889,11.453 19.601,11.451 18.980 C 11.450 18.488,11.438 18.381,11.346 18.100 C 11.193 17.628,10.988 17.306,10.581 16.899 C 10.199 16.516,9.818 16.280,9.360 16.141 C 9.142 16.075,8.140 16.022,7.920 16.065 M15.920 16.065 C 15.392 16.168,14.873 16.453,14.442 16.877 C 14.009 17.302,13.825 17.576,13.670 18.028 C 13.568 18.323,13.545 18.460,13.529 18.872 C 13.506 19.476,13.568 19.777,13.827 20.317 C 13.981 20.637,14.063 20.748,14.374 21.061 C 14.945 21.634,15.424 21.875,16.171 21.963 C 17.426 22.111,18.623 21.449,19.199 20.289 C 19.397 19.889,19.453 19.601,19.451 18.980 C 19.450 18.488,19.438 18.381,19.346 18.100 C 19.193 17.628,18.988 17.306,18.581 16.899 C 18.199 16.516,17.818 16.280,17.360 16.141 C 17.142 16.075,16.140 16.022,15.920 16.065 M9.033 18.170 C 9.124 18.231,9.249 18.356,9.310 18.447 C 9.403 18.588,9.422 18.665,9.434 18.941 C 9.445 19.209,9.433 19.297,9.367 19.426 C 8.982 20.180,8.004 20.157,7.612 19.385 C 7.523 19.208,7.514 19.153,7.537 18.927 C 7.598 18.332,7.954 18.026,8.563 18.049 C 8.816 18.058,8.894 18.078,9.033 18.170 M17.033 18.170 C 17.124 18.231,17.249 18.356,17.310 18.447 C 17.403 18.588,17.422 18.665,17.434 18.941 C 17.445 19.209,17.433 19.297,17.367 19.426 C 16.982 20.180,16.004 20.157,15.612 19.385 C 15.523 19.208,15.514 19.153,15.537 18.927 C 15.598 18.332,15.954 18.026,16.563 18.049 C 16.816 18.058,16.894 18.078,17.033 18.170 " fill="#1A1C1F" stroke="none" fill-rule="evenodd"></path></svg>