<svg width="28" height="28" viewBox="0 0 28 28" fill="none" xmlns="http://www.w3.org/2000/svg"><path d="M17.049 2.357 C 16.887 2.454,16.832 2.529,16.715 2.812 C 16.534 3.245,15.869 5.186,14.796 8.412 L 13.946 10.967 11.972 10.967 L 9.999 10.967 9.098 9.555 C 7.885 7.654,7.300 6.787,7.054 6.522 C 6.825 6.276,6.346 5.955,6.050 5.851 C 5.771 5.752,4.386 5.679,3.278 5.705 C 2.390 5.726,2.324 5.734,2.178 5.835 C 1.906 6.021,1.797 6.230,1.797 6.561 C 1.797 6.809,1.817 6.881,1.937 7.050 C 2.191 7.411,2.205 7.413,3.987 7.465 C 5.526 7.509,5.570 7.512,5.678 7.614 C 5.880 7.804,7.435 10.166,7.698 10.681 C 7.775 10.833,7.787 10.895,7.746 10.921 C 7.715 10.940,7.119 10.964,6.421 10.975 C 5.005 10.996,4.947 11.008,4.724 11.340 C 4.500 11.671,4.516 11.786,4.998 13.313 C 5.892 16.151,6.024 16.439,6.716 17.053 C 7.287 17.561,7.790 17.796,8.475 17.876 C 9.108 17.950,17.309 17.986,20.113 17.927 C 21.872 17.890,22.336 17.867,22.563 17.805 C 23.363 17.587,24.253 16.849,24.649 16.077 C 24.973 15.446,25.853 12.972,26.100 11.998 C 26.190 11.644,26.202 11.476,26.201 10.570 C 26.199 9.488,26.159 9.115,25.963 8.330 C 25.120 4.964,22.478 2.732,18.808 2.288 C 18.590 2.262,18.149 2.240,17.828 2.240 C 17.288 2.241,17.228 2.250,17.049 2.357 M18.749 4.040 C 21.147 4.396,22.809 5.484,23.741 7.309 C 24.226 8.259,24.450 9.271,24.453 10.517 L 24.453 10.977 20.187 10.960 C 17.841 10.951,15.905 10.928,15.886 10.908 C 15.841 10.864,16.040 10.231,17.181 6.778 C 17.889 4.635,18.128 3.967,18.184 3.967 C 18.225 3.967,18.479 3.999,18.749 4.040 M23.875 13.265 C 23.130 15.358,22.959 15.671,22.390 15.987 L 22.143 16.123 20.417 16.153 C 18.143 16.193,12.117 16.192,10.057 16.152 C 8.476 16.122,8.417 16.117,8.221 16.014 C 7.933 15.862,7.617 15.529,7.493 15.246 C 7.377 14.982,6.673 12.878,6.673 12.794 C 6.673 12.717,7.000 12.714,15.901 12.703 L 24.078 12.693 23.875 13.265 M10.033 18.880 C 9.096 19.043,8.376 19.432,7.864 20.053 C 7.251 20.796,6.917 21.871,7.040 22.700 C 7.242 24.059,8.052 25.074,9.347 25.591 C 10.442 26.029,11.934 25.731,12.827 24.897 C 13.361 24.398,13.724 23.806,13.885 23.170 C 13.995 22.737,13.998 21.884,13.891 21.467 C 13.598 20.328,12.620 19.316,11.480 18.973 C 11.231 18.898,10.279 18.837,10.033 18.880 M19.425 18.900 C 19.062 18.951,18.380 19.269,17.976 19.576 C 17.599 19.861,17.272 20.266,17.013 20.767 C 16.732 21.311,16.660 21.621,16.660 22.292 C 16.660 22.961,16.727 23.254,17.008 23.823 C 17.342 24.499,17.921 25.099,18.544 25.417 C 19.061 25.680,19.484 25.774,20.160 25.774 C 20.688 25.774,20.785 25.760,21.187 25.628 C 22.944 25.049,23.971 23.141,23.470 21.385 C 23.280 20.718,22.865 20.081,22.338 19.648 C 22.018 19.385,21.323 19.022,21.000 18.949 C 20.699 18.880,19.767 18.851,19.425 18.900 M11.109 20.697 C 11.416 20.801,11.805 21.131,11.993 21.446 C 12.150 21.709,12.157 21.739,12.172 22.249 C 12.187 22.742,12.180 22.796,12.067 23.027 C 11.804 23.565,11.327 23.927,10.744 24.032 C 10.043 24.158,9.283 23.728,8.948 23.017 C 8.817 22.739,8.811 22.697,8.828 22.247 C 8.843 21.857,8.867 21.728,8.962 21.541 C 9.174 21.117,9.642 20.747,10.115 20.628 C 10.341 20.571,10.842 20.606,11.109 20.697 M20.707 20.701 C 21.003 20.783,21.452 21.177,21.657 21.534 C 21.785 21.756,21.792 21.801,21.793 22.300 C 21.793 22.807,21.787 22.843,21.645 23.108 C 21.477 23.425,21.147 23.743,20.824 23.900 C 20.639 23.991,20.529 24.008,20.137 24.009 C 19.714 24.010,19.643 23.997,19.390 23.872 C 19.048 23.705,18.734 23.392,18.556 23.039 C 18.429 22.788,18.424 22.750,18.441 22.272 C 18.462 21.686,18.556 21.446,18.894 21.107 C 19.372 20.628,19.964 20.496,20.707 20.701 " fill="#1A1C1F" stroke="none" fill-rule="evenodd"></path></svg>