<svg width="14" height="14" viewBox="0 0 14 14" fill="none" xmlns="http://www.w3.org/2000/svg"><path d="M8.031 1.471 C 7.880 1.549,7.734 1.708,7.678 1.856 C 7.637 1.967,7.463 2.585,6.946 4.457 L 6.821 4.912 6.075 4.918 L 5.329 4.924 4.942 4.346 C 4.249 3.313,4.141 3.192,3.745 2.996 C 3.450 2.850,3.320 2.825,2.880 2.824 C 2.611 2.823,2.595 2.826,2.495 2.889 C 2.276 3.028,2.123 3.273,2.123 3.485 C 2.123 3.644,2.198 3.828,2.313 3.954 C 2.458 4.112,2.587 4.168,2.883 4.197 L 3.115 4.221 3.210 4.325 C 3.375 4.505,3.625 4.887,3.588 4.902 C 3.584 4.904,3.359 4.912,3.087 4.921 L 2.591 4.938 2.464 5.026 C 2.328 5.119,2.192 5.299,2.146 5.445 C 2.110 5.561,2.131 5.671,2.314 6.323 C 2.569 7.233,2.801 7.965,2.893 8.155 C 3.105 8.592,3.617 8.980,4.083 9.058 C 4.340 9.100,9.551 9.101,9.797 9.058 C 10.103 9.005,10.388 8.856,10.645 8.614 C 10.865 8.406,10.999 8.213,11.110 7.939 C 11.223 7.664,11.606 6.539,11.752 6.055 C 11.849 5.733,11.858 5.679,11.870 5.377 C 11.905 4.496,11.705 3.756,11.249 3.075 C 10.864 2.502,10.404 2.099,9.780 1.786 C 9.345 1.569,8.924 1.460,8.407 1.434 C 8.153 1.421,8.124 1.424,8.031 1.471 M9.133 3.043 C 9.714 3.323,10.089 3.720,10.300 4.278 C 10.366 4.454,10.462 4.876,10.440 4.897 C 10.420 4.918,8.337 4.915,8.317 4.895 C 8.307 4.885,8.343 4.706,8.396 4.497 C 8.497 4.102,8.788 3.022,8.809 2.966 C 8.826 2.921,8.932 2.946,9.133 3.043 M9.913 6.315 L 10.177 6.331 10.161 6.415 C 10.134 6.561,9.900 7.357,9.852 7.467 C 9.779 7.633,9.714 7.679,9.516 7.701 C 9.422 7.712,8.246 7.722,6.903 7.722 L 4.460 7.723 4.388 7.651 C 4.348 7.611,4.301 7.551,4.284 7.517 C 4.235 7.421,3.893 6.366,3.906 6.352 C 3.913 6.346,5.034 6.333,6.398 6.324 C 7.762 6.315,9.052 6.306,9.263 6.304 C 9.475 6.302,9.767 6.307,9.913 6.315 M4.537 9.855 C 4.336 9.921,4.140 10.046,3.965 10.219 C 3.510 10.672,3.407 11.240,3.677 11.801 C 3.792 12.041,4.073 12.326,4.299 12.434 C 4.670 12.611,4.987 12.637,5.352 12.521 C 5.585 12.447,5.723 12.356,5.931 12.138 C 6.127 11.931,6.209 11.782,6.279 11.504 C 6.341 11.259,6.331 11.038,6.244 10.768 C 6.173 10.546,6.094 10.422,5.898 10.225 C 5.599 9.923,5.403 9.842,4.947 9.831 C 4.730 9.826,4.602 9.834,4.537 9.855 M8.737 9.855 C 8.536 9.921,8.340 10.046,8.165 10.219 C 7.710 10.672,7.607 11.240,7.877 11.801 C 7.992 12.041,8.273 12.326,8.499 12.434 C 8.870 12.611,9.187 12.637,9.552 12.521 C 9.785 12.447,9.923 12.356,10.131 12.138 C 10.327 11.931,10.409 11.782,10.479 11.504 C 10.541 11.259,10.531 11.038,10.444 10.768 C 10.373 10.546,10.294 10.422,10.098 10.225 C 9.799 9.923,9.603 9.842,9.147 9.831 C 8.930 9.826,8.802 9.834,8.737 9.855 " fill="#1A1C1F" stroke="none" fill-rule="evenodd"></path></svg>