<svg width="20" height="20" viewBox="0 0 20 20" fill="none" xmlns="http://www.w3.org/2000/svg"><path d="M11.421 2.139 C 11.308 2.202,11.179 2.309,11.113 2.395 C 10.977 2.573,10.932 2.712,10.497 4.293 C 10.311 4.966,10.066 5.854,9.952 6.267 L 9.745 7.017 8.679 7.025 L 7.612 7.034 7.092 6.256 C 6.106 4.783,5.890 4.539,5.327 4.267 C 4.929 4.074,4.724 4.035,4.115 4.034 C 3.731 4.033,3.707 4.037,3.564 4.128 C 3.251 4.326,3.033 4.675,3.033 4.979 C 3.033 5.205,3.140 5.468,3.305 5.649 C 3.511 5.875,3.696 5.954,4.119 5.996 L 4.450 6.030 4.586 6.178 C 4.821 6.436,5.179 6.983,5.125 7.003 C 5.120 7.005,4.798 7.018,4.409 7.031 C 3.723 7.056,3.698 7.059,3.571 7.143 C 3.251 7.355,3.052 7.673,3.056 7.967 C 3.059 8.187,3.113 8.400,3.499 9.708 C 4.047 11.566,4.124 11.760,4.471 12.144 C 4.841 12.553,5.370 12.862,5.833 12.940 C 6.200 13.001,13.645 13.002,13.996 12.941 C 14.433 12.865,14.840 12.651,15.208 12.305 C 15.533 11.999,15.739 11.691,15.902 11.271 C 16.080 10.811,16.595 9.290,16.789 8.650 C 16.929 8.186,16.941 8.116,16.958 7.681 C 17.013 6.206,16.582 4.933,15.654 3.836 C 14.768 2.788,13.369 2.096,12.033 2.046 L 11.617 2.030 11.421 2.139 M13.149 4.401 C 13.878 4.763,14.334 5.243,14.663 5.991 C 14.761 6.216,14.876 6.620,14.917 6.892 L 14.939 7.033 13.445 7.033 C 12.623 7.033,11.930 7.019,11.905 7.004 C 11.868 6.981,11.882 6.887,11.978 6.496 C 12.079 6.082,12.540 4.369,12.585 4.238 C 12.610 4.167,12.772 4.214,13.149 4.401 M14.131 9.022 L 14.539 9.044 14.516 9.164 C 14.477 9.372,14.142 10.510,14.074 10.667 C 13.970 10.904,13.877 10.969,13.594 11.002 C 13.460 11.018,11.780 11.031,9.861 11.032 L 6.372 11.033 6.268 10.930 C 6.211 10.873,6.144 10.787,6.120 10.738 C 6.049 10.601,5.561 9.094,5.581 9.075 C 5.590 9.065,7.230 9.047,9.224 9.034 C 11.218 9.022,13.046 9.009,13.286 9.006 C 13.526 9.003,13.906 9.010,14.131 9.022 M6.767 14.035 C 6.339 14.085,5.929 14.302,5.598 14.653 C 5.226 15.047,5.056 15.464,5.056 15.983 C 5.056 16.562,5.268 17.046,5.692 17.438 C 6.098 17.812,6.527 17.984,7.050 17.980 C 7.623 17.977,8.042 17.789,8.471 17.343 C 8.732 17.072,8.836 16.899,8.938 16.567 C 9.086 16.088,9.032 15.524,8.793 15.052 C 8.689 14.846,8.151 14.327,7.933 14.223 C 7.592 14.059,7.157 13.989,6.767 14.035 M12.767 14.035 C 12.214 14.099,11.711 14.431,11.364 14.959 C 11.128 15.318,11.053 15.572,11.056 16.000 C 11.060 16.577,11.232 16.972,11.667 17.404 C 12.220 17.954,12.933 18.125,13.656 17.882 C 13.975 17.775,14.195 17.630,14.471 17.343 C 14.732 17.072,14.836 16.899,14.938 16.567 C 15.086 16.088,15.032 15.524,14.793 15.052 C 14.689 14.846,14.151 14.327,13.933 14.223 C 13.592 14.059,13.157 13.989,12.767 14.035 " fill="#1A1C1F" stroke="none" fill-rule="evenodd"></path></svg>