<svg width="12" height="12" viewBox="0 0 12 12" fill="none" xmlns="http://www.w3.org/2000/svg"><path d="M6.887 1.267 C 6.751 1.332,6.631 1.458,6.583 1.587 C 6.540 1.701,6.390 2.231,6.064 3.420 L 5.847 4.210 5.208 4.215 L 4.568 4.221 4.236 3.725 C 3.640 2.837,3.550 2.736,3.210 2.568 C 2.957 2.443,2.845 2.421,2.474 2.420 C 2.255 2.420,2.230 2.424,2.149 2.472 C 2.100 2.500,2.020 2.569,1.971 2.624 C 1.769 2.848,1.774 3.161,1.983 3.389 C 2.107 3.525,2.218 3.572,2.471 3.598 L 2.670 3.618 2.751 3.707 C 2.893 3.862,3.107 4.189,3.075 4.202 C 3.072 4.203,2.879 4.210,2.646 4.218 L 2.221 4.233 2.114 4.306 C 1.986 4.394,1.896 4.513,1.850 4.654 C 1.819 4.750,1.819 4.767,1.851 4.923 C 1.925 5.287,2.371 6.756,2.479 6.988 C 2.592 7.232,2.879 7.511,3.151 7.641 C 3.475 7.795,3.294 7.785,5.920 7.788 C 8.453 7.790,8.426 7.791,8.670 7.685 C 8.982 7.550,9.288 7.270,9.435 6.987 C 9.568 6.731,10.088 5.234,10.143 4.950 C 10.183 4.742,10.177 4.104,10.132 3.850 C 10.007 3.138,9.607 2.435,9.070 1.984 C 8.513 1.516,7.882 1.258,7.220 1.228 C 7.005 1.218,6.983 1.221,6.887 1.267 M7.825 2.608 C 8.458 2.908,8.825 3.403,8.948 4.122 L 8.961 4.194 8.705 4.207 C 8.565 4.214,8.155 4.220,7.794 4.220 C 7.251 4.220,7.137 4.215,7.128 4.192 C 7.122 4.177,7.167 3.972,7.228 3.737 C 7.343 3.293,7.533 2.590,7.550 2.543 C 7.565 2.504,7.647 2.524,7.825 2.608 M8.478 5.413 L 8.723 5.426 8.710 5.496 C 8.703 5.534,8.653 5.720,8.600 5.909 C 8.422 6.535,8.398 6.573,8.157 6.601 C 8.076 6.611,7.068 6.619,5.918 6.619 L 3.825 6.620 3.744 6.532 C 3.671 6.453,3.648 6.398,3.501 5.950 C 3.411 5.678,3.343 5.451,3.348 5.445 C 3.354 5.439,4.315 5.428,5.484 5.421 C 6.654 5.413,7.750 5.405,7.922 5.403 C 8.093 5.402,8.344 5.406,8.478 5.413 M3.880 8.458 C 3.695 8.518,3.567 8.595,3.420 8.733 C 3.019 9.111,2.918 9.630,3.152 10.115 C 3.249 10.318,3.489 10.561,3.684 10.656 C 3.888 10.756,4.119 10.808,4.292 10.793 C 4.473 10.778,4.711 10.703,4.838 10.621 C 4.978 10.531,5.224 10.267,5.286 10.139 C 5.357 9.994,5.420 9.740,5.420 9.600 C 5.420 9.460,5.357 9.207,5.286 9.060 C 5.210 8.901,4.910 8.607,4.740 8.525 C 4.563 8.440,4.467 8.421,4.210 8.422 C 4.055 8.422,3.958 8.433,3.880 8.458 M7.480 8.458 C 7.295 8.518,7.167 8.595,7.020 8.733 C 6.619 9.111,6.518 9.630,6.752 10.115 C 6.849 10.318,7.089 10.561,7.284 10.656 C 7.488 10.756,7.719 10.808,7.892 10.793 C 8.073 10.778,8.311 10.703,8.438 10.621 C 8.578 10.531,8.824 10.267,8.886 10.139 C 8.957 9.994,9.020 9.740,9.020 9.600 C 9.020 9.460,8.957 9.207,8.886 9.060 C 8.810 8.901,8.510 8.607,8.340 8.525 C 8.163 8.440,8.067 8.421,7.810 8.422 C 7.655 8.422,7.558 8.433,7.480 8.458 " fill="#1A1C1F" stroke="none" fill-rule="evenodd"></path></svg>