<svg width="16" height="16" viewBox="0 0 16 16" fill="none" xmlns="http://www.w3.org/2000/svg"><path d="M9.289 1.650 C 9.157 1.673,8.989 1.784,8.892 1.911 C 8.793 2.041,8.736 2.223,8.239 4.013 L 7.795 5.613 6.942 5.620 L 6.090 5.627 5.648 4.967 C 4.833 3.750,4.684 3.589,4.170 3.364 C 3.939 3.263,3.715 3.228,3.298 3.227 C 3.007 3.227,2.974 3.232,2.865 3.296 C 2.800 3.334,2.693 3.425,2.627 3.498 C 2.359 3.797,2.365 4.215,2.644 4.519 C 2.809 4.700,2.957 4.763,3.295 4.797 L 3.560 4.824 3.669 4.943 C 3.857 5.149,4.142 5.586,4.100 5.603 C 4.096 5.604,3.841 5.614,3.533 5.624 C 3.153 5.637,2.952 5.655,2.908 5.679 C 2.786 5.745,2.581 5.959,2.512 6.093 C 2.386 6.336,2.399 6.409,2.799 7.767 C 3.238 9.253,3.299 9.408,3.577 9.715 C 3.862 10.032,4.291 10.287,4.640 10.349 C 4.760 10.370,5.680 10.383,7.627 10.393 C 10.749 10.407,11.141 10.396,11.466 10.279 C 11.736 10.181,11.948 10.049,12.166 9.844 C 12.426 9.599,12.591 9.353,12.722 9.017 C 12.865 8.645,13.277 7.427,13.430 6.920 C 13.543 6.546,13.552 6.494,13.566 6.130 C 13.615 4.844,13.177 3.704,12.302 2.839 C 11.735 2.278,10.957 1.856,10.218 1.709 C 9.927 1.651,9.456 1.621,9.289 1.650 M10.520 3.521 C 11.102 3.811,11.467 4.194,11.730 4.793 C 11.809 4.973,11.901 5.296,11.934 5.513 L 11.951 5.627 10.756 5.626 C 10.098 5.626,9.544 5.616,9.524 5.603 C 9.495 5.585,9.504 5.518,9.570 5.245 C 9.642 4.951,10.034 3.489,10.068 3.390 C 10.088 3.333,10.218 3.371,10.520 3.521 M11.619 7.237 C 11.636 7.254,11.582 7.479,11.438 7.983 C 11.290 8.502,11.233 8.633,11.111 8.731 L 11.008 8.813 8.042 8.821 L 5.075 8.828 4.977 8.703 C 4.899 8.602,4.838 8.452,4.665 7.926 C 4.547 7.567,4.457 7.268,4.465 7.260 C 4.483 7.242,9.878 7.203,10.849 7.214 C 11.265 7.219,11.611 7.229,11.619 7.237 M5.148 11.281 C 4.915 11.365,4.722 11.493,4.507 11.707 C 4.182 12.030,4.043 12.356,4.047 12.787 C 4.050 13.085,4.084 13.240,4.203 13.487 C 4.379 13.855,4.746 14.172,5.160 14.313 C 5.576 14.455,6.087 14.391,6.462 14.150 C 6.652 14.028,6.964 13.692,7.049 13.517 C 7.141 13.328,7.227 12.987,7.227 12.808 C 7.227 12.608,7.156 12.313,7.060 12.107 C 6.999 11.977,6.917 11.872,6.736 11.691 C 6.370 11.324,6.124 11.226,5.579 11.228 C 5.365 11.228,5.257 11.242,5.148 11.281 M9.948 11.281 C 9.715 11.365,9.522 11.493,9.307 11.707 C 8.982 12.030,8.843 12.356,8.847 12.787 C 8.850 13.085,8.884 13.240,9.003 13.487 C 9.179 13.855,9.546 14.172,9.960 14.313 C 10.376 14.455,10.887 14.391,11.262 14.150 C 11.452 14.028,11.764 13.692,11.849 13.517 C 11.941 13.328,12.027 12.987,12.027 12.808 C 12.027 12.608,11.956 12.313,11.860 12.107 C 11.799 11.977,11.717 11.872,11.536 11.691 C 11.170 11.324,10.924 11.226,10.379 11.228 C 10.165 11.228,10.057 11.242,9.948 11.281 " fill="#1A1C1F" stroke="none" fill-rule="evenodd"></path></svg>