<svg width="16" height="16" viewBox="0 0 16 16" fill="none" xmlns="http://www.w3.org/2000/svg"><path d="M7.715 1.640 C 7.349 1.706,6.998 1.929,6.759 2.247 C 6.599 2.459,6.547 2.564,6.481 2.803 C 6.413 3.048,6.412 3.242,6.478 3.500 C 6.786 4.705,8.217 5.119,9.081 4.255 C 9.468 3.868,9.626 3.338,9.506 2.829 C 9.436 2.532,9.321 2.332,9.083 2.092 C 8.836 1.843,8.591 1.705,8.280 1.640 C 8.058 1.594,7.969 1.593,7.715 1.640 M6.973 5.626 C 6.494 5.642,6.493 5.642,6.307 5.734 C 6.182 5.796,6.058 5.888,5.932 6.013 C 5.759 6.184,5.738 6.217,5.685 6.400 C 5.599 6.696,5.438 7.427,5.211 8.554 C 5.031 9.443,5.008 9.592,5.004 9.878 C 5.000 10.195,5.002 10.204,5.091 10.387 C 5.250 10.711,5.579 10.995,5.911 11.094 L 6.022 11.127 6.031 12.463 C 6.042 13.979,6.034 13.923,6.268 14.155 C 6.451 14.338,6.563 14.385,6.813 14.384 C 7.080 14.382,7.188 14.332,7.394 14.109 C 7.515 13.978,7.547 13.923,7.564 13.820 C 7.576 13.750,7.586 12.889,7.586 11.907 L 7.587 10.120 7.525 9.994 C 7.432 9.805,7.196 9.635,6.960 9.588 C 6.707 9.537,6.667 9.519,6.666 9.459 C 6.666 9.427,6.765 8.898,6.886 8.285 L 7.105 7.170 8.004 7.178 C 8.498 7.183,8.909 7.194,8.918 7.202 C 8.929 7.214,9.221 8.728,9.344 9.418 C 9.364 9.529,9.369 9.526,9.101 9.573 C 9.010 9.589,8.892 9.620,8.840 9.642 C 8.711 9.696,8.545 9.850,8.459 9.998 L 8.387 10.120 8.379 11.954 L 8.371 13.789 8.444 13.924 C 8.625 14.255,8.983 14.445,9.300 14.379 C 9.560 14.324,9.831 14.107,9.895 13.901 C 9.917 13.831,9.931 13.386,9.940 12.462 L 9.952 11.123 10.036 11.105 C 10.307 11.046,10.741 10.701,10.865 10.444 C 10.950 10.269,11.013 10.023,11.013 9.868 C 11.013 9.524,10.406 6.488,10.293 6.266 C 10.209 6.102,9.930 5.848,9.717 5.743 C 9.527 5.648,9.519 5.647,9.062 5.625 C 8.549 5.600,7.704 5.601,6.973 5.626 " fill="#1A1C1F" stroke="none" fill-rule="evenodd"></path></svg>