<svg width="24" height="24" viewBox="0 0 24 24" fill="none" xmlns="http://www.w3.org/2000/svg"><path d="M5.844 2.103 C 5.073 2.311,4.431 3.006,4.260 3.820 C 4.187 4.171,4.186 4.349,4.259 4.691 C 4.350 5.120,4.538 5.458,4.880 5.805 C 5.345 6.277,5.830 6.478,6.513 6.479 C 7.630 6.482,8.682 5.430,8.679 4.313 C 8.678 3.643,8.476 3.145,8.024 2.698 C 7.709 2.387,7.314 2.157,6.968 2.084 C 6.677 2.024,6.105 2.033,5.844 2.103 M16.908 2.100 C 16.531 2.204,16.269 2.364,15.936 2.697 C 15.555 3.078,15.388 3.382,15.291 3.875 C 15.232 4.178,15.232 4.234,15.290 4.566 C 15.384 5.094,15.571 5.461,15.930 5.818 C 16.495 6.381,17.239 6.597,17.996 6.418 C 18.819 6.225,19.490 5.565,19.684 4.760 C 19.810 4.234,19.690 3.534,19.393 3.070 C 19.119 2.641,18.496 2.189,18.032 2.082 C 17.791 2.026,17.138 2.037,16.908 2.100 M15.398 7.797 L 14.337 7.820 14.104 7.960 C 13.821 8.130,13.483 8.486,13.358 8.745 C 13.169 9.135,13.187 9.415,13.583 12.120 C 13.983 14.850,14.069 15.298,14.255 15.591 C 14.378 15.786,14.693 16.077,14.931 16.217 L 15.120 16.328 15.120 18.817 L 15.120 21.306 15.245 21.494 C 15.398 21.726,15.652 21.906,15.910 21.965 C 16.315 22.059,16.869 21.753,16.968 21.380 C 16.995 21.277,17.017 20.134,17.028 18.160 L 17.046 15.100 16.900 14.930 C 16.707 14.706,16.472 14.572,16.158 14.509 L 15.903 14.457 15.564 12.109 C 15.378 10.818,15.238 9.749,15.254 9.733 C 15.270 9.717,16.301 9.696,17.546 9.687 L 19.809 9.670 19.785 9.785 C 19.771 9.848,19.661 10.629,19.539 11.520 C 19.417 12.411,19.276 13.436,19.226 13.799 L 19.136 14.457 18.889 14.507 C 18.472 14.592,18.257 14.736,18.095 15.040 C 18.024 15.173,18.020 15.328,18.020 18.200 L 18.020 21.220 18.115 21.413 C 18.226 21.638,18.529 21.895,18.766 21.967 C 19.120 22.073,19.617 21.849,19.829 21.489 L 19.940 21.300 19.954 18.813 L 19.967 16.327 20.201 16.183 C 20.467 16.019,20.719 15.751,20.837 15.506 C 20.954 15.264,21.052 14.742,21.299 13.042 C 21.633 10.734,21.760 9.741,21.760 9.422 C 21.760 8.764,21.416 8.233,20.802 7.945 C 20.550 7.827,20.512 7.821,19.820 7.794 C 19.005 7.762,16.979 7.764,15.398 7.797 M4.220 7.836 C 3.972 7.881,3.804 7.987,3.494 8.298 C 3.239 8.552,3.198 8.615,3.124 8.862 C 3.022 9.203,2.855 10.122,2.475 12.433 L 2.183 14.207 2.247 14.513 C 2.377 15.145,2.630 15.472,3.206 15.757 C 3.450 15.879,3.615 15.933,3.790 15.948 L 4.034 15.971 4.050 18.595 C 4.062 20.476,4.080 21.262,4.115 21.367 C 4.169 21.536,4.505 21.860,4.720 21.950 C 5.050 22.089,5.591 21.893,5.825 21.549 L 5.950 21.365 5.980 19.626 C 5.996 18.670,5.996 17.161,5.980 16.274 C 5.947 14.468,5.951 14.490,5.651 14.243 C 5.460 14.085,5.329 14.051,4.760 14.012 C 4.306 13.980,4.300 13.979,4.288 13.877 C 4.277 13.781,4.620 11.417,4.813 10.260 L 4.900 9.740 5.380 9.715 C 5.644 9.702,6.340 9.688,6.926 9.685 L 7.992 9.680 8.055 10.030 C 8.163 10.628,8.595 13.406,8.624 13.688 C 8.655 14.001,8.708 13.970,8.032 14.033 C 7.542 14.078,7.346 14.162,7.144 14.414 L 7.020 14.567 6.987 15.714 C 6.970 16.344,6.965 17.865,6.978 19.093 C 7.000 21.205,7.005 21.334,7.079 21.479 C 7.187 21.690,7.418 21.871,7.677 21.946 C 8.078 22.063,8.495 21.888,8.757 21.492 L 8.880 21.306 8.880 18.633 L 8.880 15.960 9.033 15.960 C 9.398 15.960,9.900 15.737,10.194 15.443 C 10.729 14.908,10.753 14.513,10.396 12.160 C 10.066 9.986,9.859 8.916,9.711 8.624 C 9.610 8.424,9.311 8.138,9.015 7.960 L 8.783 7.820 6.582 7.814 C 5.371 7.810,4.308 7.820,4.220 7.836 " fill="#1A1C1F" stroke="none" fill-rule="evenodd"></path></svg>