<svg width="12" height="12" viewBox="0 0 12 12" fill="none" xmlns="http://www.w3.org/2000/svg"><path d="M5.740 1.234 C 5.713 1.239,5.607 1.283,5.505 1.332 C 5.191 1.483,4.961 1.755,4.880 2.069 C 4.806 2.358,4.837 2.665,4.965 2.908 C 5.060 3.089,5.294 3.316,5.480 3.407 C 5.824 3.575,6.177 3.579,6.515 3.418 C 6.612 3.371,6.694 3.309,6.811 3.192 C 7.056 2.946,7.159 2.707,7.160 2.383 C 7.160 2.019,7.016 1.714,6.730 1.478 C 6.577 1.351,6.405 1.268,6.240 1.241 C 6.113 1.221,5.840 1.217,5.740 1.234 M4.930 4.219 C 4.477 4.230,4.421 4.235,4.336 4.274 C 3.951 4.449,3.694 4.837,3.731 5.190 C 3.762 5.492,4.259 7.876,4.320 8.014 C 4.340 8.061,4.398 8.143,4.449 8.196 L 4.540 8.294 4.542 8.992 C 4.542 9.376,4.549 9.852,4.557 10.050 L 4.571 10.410 4.636 10.504 C 4.700 10.597,4.827 10.712,4.916 10.759 C 4.973 10.788,5.210 10.790,5.316 10.761 C 5.359 10.750,5.432 10.713,5.478 10.679 C 5.560 10.620,5.711 10.412,5.732 10.331 C 5.737 10.308,5.739 9.691,5.736 8.960 L 5.730 7.630 5.683 7.542 C 5.657 7.494,5.569 7.390,5.486 7.311 C 5.340 7.171,5.335 7.164,5.299 7.011 C 5.209 6.634,4.974 5.420,4.988 5.405 C 4.996 5.397,5.463 5.387,6.024 5.384 L 7.045 5.379 7.033 5.424 C 7.027 5.449,6.958 5.799,6.881 6.200 C 6.678 7.248,6.710 7.144,6.532 7.311 C 6.448 7.390,6.367 7.486,6.350 7.527 C 6.294 7.660,6.281 7.971,6.281 9.161 L 6.280 10.332 6.351 10.451 C 6.447 10.610,6.508 10.671,6.636 10.734 C 6.775 10.802,6.983 10.807,7.120 10.746 C 7.231 10.697,7.367 10.552,7.431 10.414 L 7.480 10.310 7.480 9.303 L 7.480 8.296 7.582 8.184 C 7.639 8.122,7.697 8.044,7.712 8.011 C 7.740 7.950,8.187 5.718,8.252 5.316 C 8.293 5.059,8.277 4.946,8.170 4.726 C 8.084 4.552,7.922 4.396,7.726 4.300 L 7.594 4.234 7.142 4.218 C 6.642 4.200,5.698 4.201,4.930 4.219 " fill="#1A1C1F" stroke="none" fill-rule="evenodd"></path></svg>