<svg width="28" height="28" viewBox="0 0 28 28" fill="none" xmlns="http://www.w3.org/2000/svg"><path d="M13.487 1.823 C 13.139 1.883,12.615 2.147,12.323 2.410 C 11.189 3.429,11.080 5.014,12.067 6.105 C 12.894 7.018,14.036 7.235,15.166 6.694 C 16.000 6.294,16.612 5.318,16.612 4.387 C 16.612 3.329,15.859 2.285,14.840 1.930 C 14.478 1.805,13.871 1.756,13.487 1.823 M14.467 3.705 C 14.798 3.924,14.925 4.414,14.747 4.783 C 14.544 5.202,14.058 5.378,13.650 5.180 C 12.975 4.853,13.018 3.893,13.721 3.596 C 13.898 3.521,14.272 3.576,14.467 3.705 M11.853 8.384 C 11.789 8.394,11.670 8.413,11.587 8.426 C 11.387 8.458,10.932 8.807,10.739 9.075 C 10.654 9.195,10.554 9.401,10.518 9.535 C 10.373 10.079,9.464 14.828,9.168 16.590 C 9.021 17.468,9.027 17.876,9.192 18.198 C 9.351 18.508,9.760 18.912,10.068 19.063 C 10.303 19.178,10.405 19.197,10.882 19.217 L 11.428 19.239 11.442 22.418 C 11.458 25.975,11.444 25.830,11.791 26.058 C 12.147 26.293,12.569 26.261,12.872 25.976 C 13.172 25.695,13.160 25.809,13.160 23.184 C 13.160 21.867,13.146 20.174,13.129 19.421 C 13.094 17.861,13.091 17.848,12.693 17.654 C 12.514 17.566,12.364 17.546,11.657 17.512 C 11.203 17.491,10.820 17.462,10.805 17.448 C 10.778 17.420,10.874 16.864,11.631 12.675 L 12.110 10.019 13.972 10.047 C 14.996 10.063,15.849 10.092,15.868 10.113 C 15.916 10.165,17.228 17.414,17.196 17.446 C 17.182 17.460,16.840 17.488,16.437 17.508 C 15.472 17.555,15.257 17.601,15.079 17.804 C 14.990 17.906,14.926 18.043,14.901 18.186 C 14.881 18.309,14.863 20.027,14.863 22.003 C 14.863 25.422,14.868 25.605,14.951 25.773 C 15.057 25.986,15.224 26.112,15.503 26.186 C 15.814 26.269,16.110 26.175,16.367 25.910 L 16.567 25.705 16.567 22.472 L 16.567 19.240 17.092 19.214 C 17.392 19.200,17.704 19.157,17.820 19.115 C 18.274 18.949,18.731 18.485,18.885 18.033 C 19.025 17.622,18.959 17.155,18.149 12.833 C 17.708 10.479,17.496 9.538,17.332 9.202 C 17.200 8.934,16.897 8.661,16.513 8.466 L 16.290 8.353 14.130 8.360 C 12.942 8.363,11.918 8.374,11.853 8.384 " fill="#1A1C1F" stroke="none" fill-rule="evenodd"></path></svg>