<svg width="24" height="24" viewBox="0 0 24 24" fill="none" xmlns="http://www.w3.org/2000/svg"><path d="M11.378 2.096 C 10.836 2.266,10.230 2.773,10.007 3.244 C 9.682 3.929,9.682 4.567,10.007 5.240 C 10.170 5.577,10.683 6.096,11.007 6.251 C 12.128 6.787,13.454 6.333,14.002 5.224 C 14.350 4.520,14.276 3.583,13.824 2.970 C 13.509 2.542,13.055 2.225,12.578 2.101 C 12.294 2.027,11.608 2.024,11.378 2.096 M9.639 7.797 C 8.905 7.820,8.896 7.821,8.635 7.950 C 8.307 8.111,8.035 8.394,7.867 8.752 C 7.750 8.999,7.741 9.050,7.746 9.400 C 7.750 9.627,7.876 10.640,8.059 11.920 C 8.445 14.621,8.534 15.146,8.646 15.384 C 8.761 15.629,9.186 16.080,9.416 16.203 L 9.595 16.297 9.609 18.738 C 9.626 21.477,9.620 21.420,9.920 21.720 C 10.126 21.926,10.504 22.031,10.794 21.961 C 11.023 21.906,11.304 21.706,11.415 21.517 C 11.529 21.325,11.555 20.615,11.557 17.740 L 11.559 15.220 11.442 15.015 C 11.298 14.764,11.037 14.582,10.726 14.516 C 10.602 14.489,10.476 14.446,10.447 14.419 C 10.417 14.392,10.351 14.094,10.296 13.736 C 10.160 12.853,9.760 9.925,9.760 9.812 L 9.760 9.720 12.000 9.720 L 14.240 9.720 14.240 9.841 C 14.240 10.082,13.659 14.394,13.621 14.432 C 13.614 14.439,13.503 14.473,13.374 14.506 C 13.014 14.599,12.793 14.737,12.648 14.960 L 12.520 15.155 12.521 18.008 C 12.522 19.576,12.538 20.983,12.558 21.133 C 12.599 21.451,12.722 21.658,12.967 21.820 C 13.469 22.152,14.053 21.977,14.350 21.405 L 14.480 21.153 14.480 18.724 L 14.480 16.295 14.629 16.224 C 15.001 16.047,15.315 15.662,15.446 15.223 C 15.519 14.982,16.154 10.635,16.244 9.765 C 16.297 9.249,16.264 9.014,16.094 8.691 C 15.951 8.419,15.620 8.094,15.340 7.951 C 15.104 7.830,15.085 7.827,14.300 7.796 C 13.416 7.761,10.794 7.762,9.639 7.797 " fill="#1A1C1F" stroke="none" fill-rule="evenodd"></path></svg>