<svg width="14" height="14" viewBox="0 0 14 14" fill="none" xmlns="http://www.w3.org/2000/svg"><path d="M3.782 1.434 C 3.509 1.486,3.288 1.608,3.066 1.829 C 2.706 2.190,2.585 2.614,2.706 3.089 C 2.772 3.346,2.876 3.526,3.074 3.724 C 3.493 4.142,4.079 4.243,4.611 3.986 C 4.831 3.880,5.140 3.574,5.242 3.360 C 5.342 3.150,5.369 3.020,5.369 2.743 C 5.369 2.280,5.163 1.913,4.745 1.634 C 4.453 1.439,4.122 1.370,3.782 1.434 M9.752 1.424 C 9.243 1.501,8.820 1.884,8.645 2.425 C 8.585 2.608,8.591 2.963,8.656 3.159 C 8.813 3.630,9.218 3.995,9.695 4.095 C 10.014 4.162,10.251 4.129,10.570 3.974 C 10.802 3.862,11.075 3.594,11.175 3.382 C 11.432 2.839,11.328 2.220,10.910 1.808 C 10.612 1.515,10.155 1.363,9.752 1.424 M3.138 4.922 C 2.677 4.942,2.650 4.948,2.386 5.115 C 2.200 5.233,2.072 5.391,2.009 5.582 C 1.946 5.773,1.839 6.254,1.623 7.323 C 1.421 8.324,1.371 8.660,1.400 8.834 C 1.460 9.201,1.825 9.594,2.209 9.707 L 2.305 9.736 2.316 10.906 C 2.324 11.731,2.335 12.101,2.355 12.165 C 2.395 12.290,2.547 12.447,2.703 12.524 C 2.886 12.613,3.110 12.614,3.278 12.525 C 3.415 12.453,3.539 12.329,3.628 12.174 L 3.691 12.063 3.682 10.471 C 3.672 8.689,3.683 8.800,3.500 8.601 C 3.380 8.470,3.245 8.404,3.027 8.366 L 2.858 8.338 2.866 8.246 C 2.872 8.170,3.195 6.497,3.236 6.329 C 3.248 6.277,3.250 6.277,3.718 6.277 C 3.977 6.277,4.336 6.284,4.517 6.292 L 4.845 6.307 5.002 7.149 C 5.185 8.132,5.209 8.281,5.194 8.319 C 5.188 8.335,5.120 8.356,5.043 8.365 C 4.777 8.396,4.507 8.570,4.418 8.768 C 4.382 8.847,4.378 9.008,4.377 10.418 C 4.377 11.278,4.385 12.032,4.395 12.093 C 4.421 12.252,4.637 12.483,4.826 12.555 C 5.139 12.673,5.518 12.501,5.691 12.161 C 5.739 12.068,5.740 12.036,5.740 10.902 L 5.740 9.739 5.865 9.699 C 6.134 9.614,6.425 9.363,6.544 9.112 C 6.576 9.043,6.621 8.911,6.643 8.819 C 6.683 8.653,6.683 8.649,6.619 8.263 C 6.534 7.758,6.274 6.435,6.168 5.973 C 6.123 5.774,6.055 5.547,6.017 5.467 C 5.945 5.314,5.800 5.172,5.600 5.056 C 5.389 4.935,5.284 4.922,4.387 4.913 C 3.931 4.908,3.369 4.912,3.138 4.922 M8.587 4.922 L 8.132 4.937 7.969 5.017 C 7.762 5.120,7.512 5.352,7.433 5.515 C 7.401 5.581,7.356 5.705,7.334 5.790 C 7.286 5.977,7.279 5.928,7.529 7.198 C 7.753 8.340,7.921 9.121,7.982 9.303 C 8.018 9.412,8.058 9.474,8.145 9.559 L 8.260 9.670 8.260 10.873 L 8.260 12.076 8.348 12.225 C 8.491 12.470,8.694 12.584,8.983 12.584 C 9.213 12.584,9.471 12.414,9.588 12.183 C 9.635 12.091,9.637 12.058,9.635 10.868 C 9.633 10.197,9.626 9.453,9.617 9.214 L 9.602 8.781 9.511 8.670 C 9.461 8.610,9.364 8.522,9.295 8.477 C 9.226 8.431,9.170 8.379,9.170 8.362 C 9.170 8.334,8.789 6.452,8.758 6.329 L 8.745 6.277 9.838 6.277 C 10.440 6.277,10.985 6.283,11.050 6.291 L 11.167 6.305 11.022 7.055 C 10.778 8.313,10.758 8.398,10.692 8.442 C 10.542 8.544,10.408 8.689,10.359 8.803 C 10.307 8.925,10.307 8.930,10.296 10.488 L 10.286 12.052 10.371 12.192 C 10.486 12.381,10.557 12.450,10.708 12.524 C 10.812 12.575,10.869 12.587,11.001 12.586 C 11.097 12.585,11.200 12.569,11.251 12.548 C 11.366 12.498,11.543 12.332,11.599 12.222 C 11.667 12.089,11.689 11.699,11.689 10.619 L 11.690 9.677 11.797 9.562 C 11.855 9.500,11.923 9.404,11.947 9.349 C 11.994 9.244,12.525 6.632,12.588 6.199 C 12.633 5.892,12.614 5.758,12.495 5.515 C 12.394 5.310,12.210 5.132,11.980 5.019 L 11.818 4.939 11.317 4.921 C 10.744 4.901,9.261 4.901,8.587 4.922 " fill="#1A1C1F" stroke="none" fill-rule="evenodd"></path></svg>