<svg width="28" height="28" viewBox="0 0 28 28" fill="none" xmlns="http://www.w3.org/2000/svg"><path d="M12.992 1.906 C 12.244 2.184,11.622 2.831,11.369 3.593 C 11.143 4.275,11.175 4.846,11.473 5.484 C 11.631 5.820,12.119 6.361,12.466 6.584 C 13.649 7.343,15.223 6.988,16.023 5.783 C 16.568 4.962,16.580 3.819,16.051 3.021 C 15.815 2.666,15.304 2.220,14.905 2.023 C 14.543 1.844,14.543 1.844,13.887 1.831 C 13.336 1.820,13.192 1.832,12.992 1.906 M14.269 3.675 C 14.914 4.007,14.789 5.025,14.078 5.224 C 13.807 5.300,13.594 5.261,13.359 5.090 C 12.949 4.793,12.910 4.173,13.279 3.804 C 13.548 3.536,13.908 3.489,14.269 3.675 M10.218 8.417 C 10.101 8.448,9.931 8.520,9.839 8.577 C 9.596 8.727,9.252 9.114,9.135 9.368 C 8.984 9.696,9.000 10.426,9.189 11.783 C 9.554 14.408,10.136 18.381,10.183 18.567 C 10.280 18.956,10.710 19.227,11.229 19.227 L 11.429 19.227 11.443 22.435 C 11.458 26.026,11.439 25.827,11.796 26.060 C 12.181 26.311,12.614 26.257,12.925 25.920 C 13.027 25.809,13.122 25.670,13.137 25.611 C 13.152 25.552,13.158 23.830,13.150 21.785 C 13.137 18.093,13.136 18.066,13.039 17.935 C 12.848 17.678,12.562 17.546,12.129 17.515 L 11.736 17.488 11.252 13.889 C 10.987 11.909,10.759 10.232,10.745 10.162 L 10.722 10.033 14.021 10.033 C 17.141 10.033,17.318 10.038,17.295 10.115 C 17.282 10.160,17.037 11.824,16.751 13.812 C 16.466 15.801,16.224 17.441,16.214 17.457 C 16.204 17.473,16.043 17.501,15.857 17.518 C 15.438 17.557,15.168 17.682,15.009 17.912 L 14.887 18.088 14.887 21.874 L 14.887 25.659 15.038 25.857 C 15.122 25.965,15.264 26.094,15.353 26.143 C 15.675 26.319,16.263 26.168,16.441 25.863 C 16.582 25.622,16.612 25.013,16.613 22.325 C 16.613 20.911,16.627 19.628,16.643 19.474 L 16.672 19.194 16.913 19.075 C 17.211 18.929,17.650 18.535,17.751 18.323 C 17.901 18.006,18.020 17.324,18.430 14.441 C 18.925 10.961,18.954 10.718,18.961 10.078 C 18.966 9.631,18.955 9.562,18.840 9.326 C 18.689 9.018,18.310 8.644,17.976 8.475 L 17.736 8.353 14.083 8.356 C 11.352 8.359,10.376 8.374,10.218 8.417 " fill="#1A1C1F" stroke="none" fill-rule="evenodd"></path></svg>