<svg width="16" height="16" viewBox="0 0 16 16" fill="none" xmlns="http://www.w3.org/2000/svg"><path d="M7.653 1.644 C 7.617 1.651,7.476 1.710,7.341 1.775 C 6.919 1.978,6.615 2.337,6.507 2.758 C 6.409 3.143,6.450 3.553,6.620 3.878 C 6.743 4.113,7.058 4.420,7.300 4.540 C 8.051 4.914,8.859 4.678,9.331 3.947 C 9.490 3.701,9.533 3.532,9.533 3.160 C 9.532 2.896,9.521 2.810,9.471 2.667 C 9.322 2.243,8.935 1.852,8.519 1.703 C 8.398 1.660,8.284 1.644,8.040 1.638 C 7.864 1.634,7.690 1.636,7.653 1.644 M6.587 5.626 C 5.968 5.640,5.895 5.647,5.781 5.699 C 5.481 5.835,5.241 6.059,5.107 6.326 C 4.967 6.606,4.947 6.748,5.000 7.088 C 5.108 7.777,5.687 10.520,5.760 10.686 C 5.787 10.748,5.863 10.856,5.928 10.926 L 6.047 11.053 6.061 12.400 C 6.071 13.349,6.085 13.781,6.108 13.862 C 6.150 14.009,6.362 14.243,6.523 14.321 C 6.626 14.371,6.677 14.378,6.877 14.369 C 7.217 14.352,7.363 14.260,7.558 13.935 L 7.653 13.776 7.653 12.002 L 7.653 10.227 7.590 10.092 C 7.551 10.008,7.445 9.875,7.314 9.745 L 7.101 9.533 7.017 9.133 C 6.971 8.913,6.863 8.389,6.778 7.968 L 6.623 7.202 6.731 7.186 C 6.860 7.167,9.350 7.181,9.368 7.200 C 9.381 7.214,8.989 9.263,8.936 9.459 C 8.912 9.546,8.864 9.608,8.719 9.738 C 8.616 9.830,8.508 9.955,8.479 10.016 C 8.393 10.194,8.375 10.564,8.374 12.228 L 8.373 13.776 8.468 13.935 C 8.596 14.147,8.678 14.228,8.849 14.312 C 9.032 14.402,9.309 14.408,9.493 14.327 C 9.642 14.262,9.823 14.069,9.908 13.885 L 9.973 13.747 9.973 12.404 L 9.973 11.061 10.110 10.912 C 10.185 10.830,10.263 10.726,10.283 10.681 C 10.320 10.599,10.917 7.616,11.003 7.084 C 11.059 6.738,11.039 6.599,10.894 6.303 C 10.778 6.068,10.566 5.863,10.308 5.736 L 10.126 5.646 9.536 5.624 C 8.888 5.600,7.641 5.601,6.587 5.626 " fill="#1A1C1F" stroke="none" fill-rule="evenodd"></path></svg>