<svg width="14" height="14" viewBox="0 0 14 14" fill="none" xmlns="http://www.w3.org/2000/svg"><path d="M6.697 1.438 C 6.665 1.445,6.541 1.496,6.423 1.553 C 6.056 1.730,5.787 2.047,5.694 2.413 C 5.567 2.909,5.688 3.361,6.041 3.711 C 6.478 4.144,7.058 4.246,7.604 3.986 C 7.826 3.880,8.109 3.592,8.220 3.359 C 8.331 3.125,8.361 2.969,8.348 2.704 C 8.330 2.340,8.206 2.063,7.949 1.813 C 7.664 1.535,7.443 1.444,7.035 1.434 C 6.881 1.430,6.729 1.432,6.697 1.438 M5.763 4.920 L 5.168 4.936 5.005 5.017 C 4.796 5.121,4.566 5.336,4.480 5.507 C 4.381 5.702,4.332 5.913,4.350 6.067 C 4.380 6.323,4.897 8.846,4.997 9.221 C 5.037 9.373,5.063 9.421,5.168 9.536 L 5.291 9.673 5.303 10.851 C 5.312 11.679,5.324 12.058,5.344 12.129 C 5.380 12.256,5.566 12.463,5.701 12.528 C 5.852 12.601,6.134 12.597,6.291 12.519 C 6.432 12.448,6.504 12.376,6.614 12.192 L 6.698 12.052 6.691 10.477 L 6.685 8.902 6.633 8.804 C 6.604 8.751,6.498 8.625,6.397 8.524 L 6.214 8.342 6.140 7.992 C 6.100 7.799,6.005 7.340,5.931 6.972 L 5.795 6.302 5.913 6.288 C 6.051 6.271,8.181 6.283,8.197 6.300 C 8.207 6.310,8.059 7.098,7.873 8.027 L 7.810 8.342 7.626 8.521 C 7.525 8.619,7.426 8.738,7.407 8.785 C 7.344 8.936,7.328 9.314,7.327 10.700 L 7.327 12.054 7.410 12.193 C 7.521 12.379,7.593 12.450,7.742 12.523 C 7.903 12.602,8.146 12.607,8.307 12.536 C 8.437 12.479,8.595 12.310,8.670 12.150 L 8.726 12.028 8.726 10.853 L 8.727 9.678 8.846 9.548 C 8.912 9.476,8.980 9.385,8.997 9.346 C 9.030 9.274,9.552 6.664,9.628 6.198 C 9.661 5.989,9.664 5.922,9.641 5.815 C 9.577 5.509,9.384 5.233,9.124 5.075 C 8.881 4.928,8.843 4.924,7.537 4.914 C 6.889 4.909,6.091 4.912,5.763 4.920 " fill="#1A1C1F" stroke="none" fill-rule="evenodd"></path></svg>