<svg width="20" height="20" viewBox="0 0 20 20" fill="none" xmlns="http://www.w3.org/2000/svg"><path d="M9.567 2.057 C 9.521 2.065,9.345 2.138,9.176 2.219 C 8.652 2.472,8.268 2.925,8.134 3.448 C 7.953 4.154,8.125 4.798,8.630 5.304 C 9.039 5.713,9.441 5.883,10.000 5.882 C 10.623 5.880,11.092 5.654,11.509 5.153 C 12.065 4.485,12.080 3.501,11.544 2.795 C 11.272 2.438,10.813 2.141,10.419 2.069 C 10.228 2.035,9.738 2.027,9.567 2.057 M8.250 7.029 C 7.410 7.051,7.378 7.054,7.200 7.137 C 6.813 7.320,6.535 7.588,6.363 7.948 C 6.208 8.274,6.186 8.447,6.250 8.860 C 6.348 9.488,6.998 12.643,7.138 13.173 C 7.196 13.390,7.233 13.458,7.382 13.623 L 7.558 13.818 7.576 15.501 C 7.589 16.685,7.606 17.226,7.635 17.327 C 7.687 17.511,7.952 17.804,8.153 17.902 C 8.283 17.964,8.346 17.973,8.596 17.961 C 9.022 17.940,9.204 17.824,9.448 17.419 L 9.567 17.221 9.566 15.002 L 9.566 12.783 9.487 12.615 C 9.439 12.510,9.307 12.344,9.143 12.181 L 8.877 11.917 8.771 11.417 C 8.714 11.142,8.579 10.486,8.472 9.960 L 8.278 9.003 8.448 8.983 C 8.644 8.959,11.687 8.975,11.710 9.000 C 11.724 9.015,11.508 10.166,11.247 11.467 L 11.157 11.917 10.895 12.172 C 10.750 12.313,10.610 12.482,10.582 12.549 C 10.490 12.767,10.468 13.293,10.468 15.269 L 10.467 17.221 10.586 17.419 C 10.745 17.684,10.847 17.786,11.061 17.890 C 11.292 18.003,11.639 18.012,11.867 17.911 C 12.052 17.828,12.279 17.586,12.385 17.356 L 12.466 17.183 12.466 15.505 L 12.467 13.826 12.637 13.639 C 12.731 13.537,12.828 13.407,12.853 13.351 C 12.900 13.249,13.646 9.520,13.754 8.854 C 13.824 8.422,13.799 8.249,13.616 7.877 C 13.420 7.477,12.991 7.147,12.567 7.066 C 12.341 7.024,9.444 6.999,8.250 7.029 " fill="#1A1C1F" stroke="none" fill-rule="evenodd"></path></svg>