<svg width="16" height="16" viewBox="0 0 16 16" fill="none" xmlns="http://www.w3.org/2000/svg"><path d="M4.440 1.617 C 4.411 1.622,4.321 1.641,4.240 1.657 C 3.716 1.763,3.210 2.280,3.077 2.847 C 3.027 3.058,3.039 3.406,3.104 3.614 C 3.238 4.047,3.695 4.505,4.131 4.643 C 4.696 4.821,5.235 4.685,5.670 4.254 C 6.002 3.925,6.142 3.606,6.144 3.173 C 6.146 2.411,5.602 1.770,4.843 1.640 C 4.608 1.600,4.543 1.596,4.440 1.617 M10.987 1.663 C 10.301 1.864,9.833 2.476,9.833 3.173 C 9.833 3.589,9.972 3.917,10.291 4.248 C 10.651 4.623,11.243 4.801,11.721 4.680 C 12.133 4.575,12.567 4.253,12.743 3.922 C 12.917 3.596,12.973 3.190,12.894 2.820 C 12.793 2.342,12.378 1.873,11.906 1.702 C 11.707 1.631,11.176 1.608,10.987 1.663 M3.600 5.625 C 3.051 5.648,3.018 5.656,2.715 5.857 C 2.519 5.987,2.399 6.121,2.321 6.298 C 2.259 6.439,2.093 7.186,1.830 8.507 C 1.560 9.858,1.557 9.878,1.596 10.069 C 1.688 10.529,2.056 10.949,2.484 11.081 L 2.635 11.128 2.647 12.464 C 2.656 13.407,2.669 13.830,2.692 13.903 C 2.763 14.130,3.071 14.357,3.352 14.391 C 3.645 14.425,3.956 14.243,4.135 13.931 L 4.218 13.785 4.209 11.966 L 4.200 10.147 4.138 10.021 C 4.010 9.762,3.762 9.604,3.408 9.557 C 3.335 9.547,3.270 9.525,3.264 9.508 C 3.254 9.484,3.633 7.498,3.698 7.233 C 3.712 7.174,3.717 7.173,4.185 7.173 C 4.445 7.173,4.856 7.181,5.098 7.191 L 5.538 7.208 5.626 7.677 C 5.872 9.000,5.945 9.405,5.946 9.458 C 5.947 9.522,5.946 9.522,5.649 9.586 C 5.405 9.638,5.246 9.736,5.120 9.911 L 5.029 10.038 5.006 10.639 C 4.982 11.254,5.001 13.739,5.031 13.876 C 5.040 13.918,5.119 14.029,5.206 14.122 C 5.468 14.403,5.739 14.464,6.075 14.319 C 6.228 14.254,6.418 14.067,6.504 13.898 C 6.559 13.792,6.560 13.756,6.560 12.459 L 6.560 11.130 6.703 11.085 C 7.009 10.988,7.343 10.700,7.476 10.418 C 7.553 10.257,7.627 9.988,7.627 9.871 C 7.627 9.737,7.505 9.066,7.267 7.880 C 6.953 6.316,6.905 6.168,6.647 5.954 C 6.459 5.798,6.300 5.714,6.106 5.668 C 5.899 5.618,4.397 5.593,3.600 5.625 M9.800 5.624 L 9.293 5.642 9.107 5.733 C 8.872 5.848,8.573 6.137,8.471 6.347 C 8.358 6.581,8.330 6.761,8.370 7.006 C 8.418 7.301,8.893 9.676,8.990 10.107 C 9.117 10.674,9.143 10.739,9.300 10.909 L 9.440 11.060 9.440 12.430 L 9.441 13.800 9.520 13.939 C 9.673 14.206,9.844 14.328,10.124 14.374 C 10.463 14.429,10.795 14.243,10.970 13.901 C 11.009 13.825,11.013 13.663,11.011 12.421 C 11.010 11.654,11.001 10.804,10.991 10.531 L 10.973 10.035 10.870 9.909 C 10.813 9.839,10.702 9.740,10.623 9.688 C 10.544 9.635,10.480 9.576,10.480 9.557 C 10.480 9.525,10.044 7.374,10.009 7.233 L 9.994 7.173 11.260 7.173 C 11.956 7.173,12.579 7.181,12.644 7.190 L 12.762 7.206 12.597 8.063 C 12.506 8.534,12.398 9.074,12.358 9.262 C 12.285 9.602,12.285 9.603,12.176 9.679 C 12.012 9.793,11.903 9.918,11.837 10.067 C 11.779 10.199,11.778 10.214,11.767 11.987 L 11.755 13.773 11.853 13.933 C 11.984 14.149,12.065 14.229,12.238 14.313 C 12.356 14.371,12.421 14.385,12.572 14.384 C 12.683 14.383,12.801 14.365,12.858 14.340 C 12.989 14.283,13.192 14.094,13.256 13.968 C 13.334 13.816,13.359 13.370,13.359 12.132 L 13.360 11.050 13.443 10.972 C 13.648 10.777,13.667 10.726,13.837 9.903 C 14.084 8.711,14.338 7.403,14.386 7.084 C 14.432 6.773,14.420 6.626,14.331 6.399 C 14.191 6.042,13.821 5.729,13.450 5.653 C 13.291 5.621,10.506 5.598,9.800 5.624 " fill="#1A1C1F" stroke="none" fill-rule="evenodd"></path></svg>