<svg width="32" height="32" viewBox="0 0 32 32" fill="none" xmlns="http://www.w3.org/2000/svg"><path d="M15.413 2.086 C 14.997 2.153,14.399 2.464,14.033 2.803 C 12.724 4.014,12.676 5.840,13.920 7.098 C 14.554 7.740,15.300 8.039,16.133 7.986 C 17.655 7.888,18.883 6.672,18.973 5.173 C 19.024 4.317,18.730 3.573,18.085 2.928 C 17.609 2.452,17.164 2.214,16.541 2.103 C 16.083 2.021,15.839 2.018,15.413 2.086 M16.533 4.234 C 16.912 4.484,17.058 5.045,16.853 5.467 C 16.622 5.945,16.067 6.146,15.600 5.920 C 14.829 5.547,14.878 4.449,15.682 4.110 C 15.884 4.024,16.311 4.086,16.533 4.234 M13.547 9.582 C 13.473 9.593,13.337 9.614,13.243 9.630 C 13.014 9.666,12.494 10.065,12.274 10.372 C 12.175 10.508,12.062 10.744,12.021 10.897 C 11.853 11.523,10.728 17.411,10.449 19.120 C 10.313 19.960,10.329 20.454,10.505 20.798 C 10.686 21.152,11.155 21.614,11.506 21.786 C 11.775 21.918,11.891 21.940,12.437 21.962 L 13.061 21.988 13.077 25.621 C 13.093 29.129,13.097 29.261,13.200 29.466 C 13.476 30.017,14.241 30.129,14.711 29.687 C 15.053 29.366,15.040 29.488,15.040 26.576 C 15.040 25.115,15.024 23.180,15.005 22.275 C 14.971 20.728,14.963 20.620,14.858 20.462 C 14.647 20.143,14.380 20.065,13.323 20.015 C 12.804 19.990,12.365 19.957,12.349 19.940 C 12.317 19.909,12.423 19.299,13.288 14.520 L 13.840 11.467 15.360 11.474 C 16.196 11.478,17.168 11.496,17.520 11.514 L 18.160 11.547 18.921 15.727 C 19.340 18.027,19.669 19.922,19.653 19.938 C 19.636 19.955,19.246 19.987,18.785 20.009 C 17.682 20.062,17.436 20.116,17.233 20.348 C 17.131 20.463,17.058 20.621,17.030 20.784 C 17.006 20.925,16.987 22.888,16.987 25.147 C 16.987 29.054,16.992 29.263,17.087 29.454 C 17.208 29.699,17.399 29.842,17.718 29.927 C 18.073 30.022,18.412 29.914,18.705 29.611 L 18.933 29.377 18.933 25.683 L 18.933 21.988 19.533 21.959 C 19.876 21.943,20.233 21.894,20.366 21.845 C 20.885 21.656,21.407 21.126,21.583 20.609 C 21.743 20.139,21.668 19.606,20.742 14.667 C 20.237 11.976,19.995 10.901,19.808 10.517 C 19.657 10.210,19.311 9.898,18.872 9.676 L 18.617 9.547 16.148 9.554 C 14.791 9.558,13.620 9.570,13.547 9.582 " fill="#1A1C1F" stroke="none" fill-rule="evenodd"></path></svg>