<svg width="32" height="32" viewBox="0 0 32 32" fill="none" xmlns="http://www.w3.org/2000/svg"><path d="M7.611 2.207 C 6.794 2.551,6.277 3.027,5.903 3.783 L 5.680 4.232 5.680 5.013 L 5.680 5.795 5.914 6.266 C 6.546 7.542,7.978 8.250,9.254 7.918 C 10.629 7.559,11.573 6.366,11.573 4.987 C 11.573 4.193,11.288 3.542,10.667 2.921 C 10.350 2.604,10.157 2.462,9.834 2.308 C 9.418 2.110,9.405 2.108,8.667 2.092 C 7.975 2.078,7.897 2.086,7.611 2.207 M22.161 2.211 C 21.474 2.499,20.865 3.019,20.537 3.595 C 20.272 4.061,20.203 4.403,20.222 5.140 C 20.240 5.791,20.242 5.799,20.470 6.259 C 20.751 6.825,21.307 7.422,21.760 7.642 C 22.127 7.821,22.820 8.000,23.142 8.000 C 23.509 7.999,24.242 7.806,24.598 7.616 C 25.001 7.401,25.574 6.793,25.827 6.310 C 26.042 5.899,26.133 5.489,26.133 4.933 C 26.133 3.830,25.400 2.771,24.275 2.250 C 24.003 2.124,23.900 2.108,23.227 2.093 C 22.529 2.078,22.459 2.085,22.161 2.211 M8.948 4.136 C 9.356 4.307,9.562 4.615,9.558 5.051 C 9.554 5.507,9.296 5.831,8.825 5.972 C 8.290 6.132,7.626 5.638,7.627 5.082 C 7.628 4.364,8.315 3.872,8.948 4.136 M23.705 4.212 C 23.933 4.353,24.091 4.603,24.138 4.897 C 24.216 5.383,23.819 5.930,23.335 6.003 C 22.270 6.162,21.819 4.633,22.785 4.139 C 23.012 4.023,23.455 4.058,23.705 4.212 M6.747 9.545 C 5.941 9.577,5.878 9.587,5.613 9.731 C 5.191 9.961,4.779 10.420,4.677 10.775 C 4.391 11.773,3.040 18.900,2.959 19.843 C 2.900 20.524,3.165 21.119,3.714 21.541 C 4.083 21.824,4.433 21.932,5.077 21.961 L 5.647 21.987 5.664 25.593 C 5.680 29.171,5.681 29.202,5.796 29.452 C 6.080 30.066,6.899 30.149,7.400 29.614 L 7.627 29.372 7.622 25.659 C 7.619 23.617,7.601 21.630,7.581 21.242 L 7.545 20.537 7.365 20.352 C 7.267 20.250,7.123 20.142,7.046 20.112 C 6.970 20.082,6.482 20.037,5.963 20.013 C 5.443 19.989,5.003 19.954,4.983 19.935 C 4.964 19.915,5.012 19.508,5.091 19.030 C 5.226 18.206,6.283 12.343,6.404 11.747 L 6.461 11.467 7.910 11.473 C 8.708 11.476,9.671 11.494,10.051 11.513 L 10.743 11.547 10.808 11.867 C 11.071 13.159,12.272 19.856,12.250 19.912 C 12.230 19.966,11.987 19.991,11.261 20.016 C 10.175 20.054,10.015 20.096,9.780 20.403 L 9.627 20.605 9.592 21.836 C 9.573 22.513,9.555 24.448,9.552 26.136 L 9.547 29.206 9.700 29.448 C 9.941 29.827,10.141 29.942,10.557 29.941 C 10.749 29.941,10.960 29.911,11.024 29.876 C 11.250 29.753,11.418 29.464,11.469 29.110 C 11.496 28.925,11.518 27.243,11.519 25.373 L 11.520 21.973 11.907 21.973 C 12.736 21.972,13.270 21.803,13.669 21.414 C 13.956 21.135,14.123 20.848,14.220 20.471 C 14.322 20.071,14.288 19.800,13.785 17.040 C 13.100 13.277,12.589 10.824,12.427 10.509 C 12.279 10.223,11.904 9.889,11.549 9.727 C 11.280 9.604,11.125 9.576,10.536 9.541 C 9.743 9.493,8.003 9.495,6.747 9.545 M20.267 9.544 L 19.013 9.576 18.725 9.734 C 18.317 9.958,17.994 10.293,17.811 10.680 C 17.676 10.965,17.653 11.077,17.653 11.454 C 17.653 11.927,17.909 13.900,18.508 18.053 C 18.935 21.019,18.992 21.329,19.144 21.544 C 19.298 21.759,19.678 21.928,20.083 21.960 L 20.427 21.988 20.427 25.666 L 20.427 29.345 20.593 29.554 C 21.084 30.175,21.936 30.082,22.302 29.369 C 22.404 29.170,22.406 29.053,22.388 24.996 C 22.368 20.334,22.384 20.524,22.000 20.256 C 21.837 20.142,21.670 20.089,21.291 20.033 C 21.019 19.993,20.789 19.951,20.780 19.940 C 20.760 19.916,20.715 19.590,20.108 15.097 C 19.844 13.148,19.642 11.540,19.659 11.523 C 19.675 11.507,21.355 11.485,23.391 11.476 C 27.082 11.458,27.093 11.459,27.093 11.567 C 27.093 11.626,26.840 13.422,26.531 15.557 C 26.222 17.693,25.955 19.554,25.937 19.694 C 25.901 19.977,25.913 19.970,25.362 20.025 C 24.923 20.069,24.631 20.248,24.472 20.573 L 24.347 20.827 24.347 25.049 L 24.347 29.271 24.509 29.502 C 24.948 30.126,25.719 30.126,26.158 29.502 L 26.320 29.271 26.335 25.609 L 26.351 21.947 26.679 21.793 C 27.087 21.602,27.535 21.164,27.706 20.788 C 27.846 20.480,28.008 19.499,28.477 16.131 C 28.876 13.259,29.022 12.029,29.031 11.467 C 29.038 11.013,29.023 10.928,28.892 10.661 C 28.716 10.300,28.257 9.850,27.907 9.695 C 27.682 9.596,27.505 9.578,26.347 9.542 C 24.882 9.495,22.157 9.496,20.267 9.544 " fill="#1A1C1F" stroke="none" fill-rule="evenodd"></path></svg>