<svg width="20" height="20" viewBox="0 0 20 20" fill="none" xmlns="http://www.w3.org/2000/svg"><path d="M9.617 2.054 C 9.135 2.154,8.645 2.491,8.353 2.926 C 8.101 3.300,7.981 3.922,8.079 4.342 C 8.177 4.756,8.477 5.239,8.779 5.466 C 9.002 5.635,9.393 5.815,9.650 5.867 C 9.883 5.915,10.270 5.891,10.537 5.813 C 11.324 5.582,11.935 4.781,11.933 3.985 C 11.931 3.449,11.746 3.014,11.350 2.613 C 11.045 2.304,10.739 2.132,10.350 2.050 C 10.065 1.990,9.919 1.991,9.617 2.054 M8.733 7.032 L 8.117 7.053 7.884 7.168 C 7.561 7.328,7.230 7.655,7.140 7.903 C 7.052 8.142,6.797 9.280,6.502 10.744 C 6.318 11.661,6.265 11.994,6.249 12.327 L 6.228 12.750 6.388 13.028 C 6.631 13.452,6.980 13.745,7.388 13.867 L 7.527 13.909 7.539 15.579 C 7.553 17.474,7.544 17.405,7.835 17.694 C 8.064 17.922,8.204 17.981,8.517 17.979 C 8.850 17.978,8.984 17.914,9.242 17.636 C 9.394 17.472,9.434 17.404,9.455 17.275 C 9.470 17.188,9.481 16.112,9.481 14.883 L 9.481 12.650 9.403 12.491 C 9.288 12.255,8.995 12.044,8.700 11.985 C 8.383 11.921,8.333 11.899,8.333 11.824 C 8.333 11.783,8.456 11.123,8.607 10.356 L 8.881 8.962 10.005 8.973 C 10.622 8.979,11.136 8.992,11.147 9.002 C 11.171 9.026,11.658 11.603,11.673 11.783 L 11.683 11.915 11.432 11.954 C 11.294 11.975,11.127 12.016,11.061 12.043 C 10.898 12.112,10.682 12.312,10.573 12.497 L 10.483 12.650 10.474 14.943 L 10.464 17.236 10.556 17.404 C 10.781 17.819,11.228 18.057,11.625 17.974 C 11.950 17.905,12.288 17.634,12.369 17.376 C 12.396 17.289,12.414 16.734,12.424 15.582 L 12.440 13.914 12.660 13.837 C 12.781 13.795,12.942 13.718,13.018 13.666 C 13.210 13.534,13.511 13.200,13.594 13.028 C 13.690 12.829,13.767 12.518,13.767 12.328 C 13.767 11.905,13.006 8.106,12.866 7.832 C 12.761 7.627,12.412 7.310,12.146 7.178 C 11.906 7.059,11.900 7.058,11.310 7.031 C 10.650 7.001,9.668 7.001,8.733 7.032 " fill="#1A1C1F" stroke="none" fill-rule="evenodd"></path></svg>