<svg width="12" height="12" viewBox="0 0 12 12" fill="none" xmlns="http://www.w3.org/2000/svg"><path d="M3.099 1.266 C 2.907 1.331,2.754 1.432,2.601 1.592 C 2.294 1.914,2.206 2.322,2.349 2.751 C 2.474 3.126,2.815 3.426,3.212 3.510 C 3.385 3.547,3.513 3.547,3.682 3.511 C 3.908 3.463,4.069 3.371,4.260 3.180 C 4.518 2.922,4.599 2.728,4.600 2.369 C 4.600 2.028,4.506 1.801,4.262 1.558 C 4.096 1.392,3.904 1.283,3.704 1.242 C 3.522 1.204,3.248 1.215,3.099 1.266 M8.230 1.247 C 7.708 1.419,7.375 1.861,7.375 2.380 C 7.374 2.703,7.497 2.977,7.748 3.214 C 8.028 3.480,8.445 3.598,8.791 3.510 C 9.099 3.431,9.425 3.190,9.558 2.941 C 9.689 2.695,9.732 2.369,9.669 2.102 C 9.587 1.754,9.303 1.429,8.953 1.285 C 8.848 1.241,8.793 1.233,8.570 1.227 C 8.391 1.222,8.285 1.228,8.230 1.247 M2.690 4.219 C 2.292 4.236,2.266 4.243,2.039 4.389 C 1.896 4.482,1.800 4.589,1.741 4.723 C 1.694 4.830,1.570 5.389,1.372 6.380 C 1.170 7.394,1.168 7.408,1.197 7.551 C 1.268 7.905,1.553 8.220,1.893 8.321 L 1.976 8.345 1.985 9.348 C 1.992 10.050,2.002 10.373,2.019 10.427 C 2.072 10.597,2.303 10.768,2.514 10.793 C 2.734 10.819,2.967 10.682,3.101 10.448 L 3.164 10.338 3.157 8.974 L 3.150 7.610 3.103 7.515 C 3.008 7.321,2.821 7.203,2.556 7.168 C 2.501 7.160,2.453 7.144,2.448 7.132 C 2.441 7.114,2.727 5.616,2.773 5.425 C 2.784 5.380,2.787 5.380,3.169 5.380 C 3.381 5.380,3.688 5.386,3.853 5.393 L 4.153 5.406 4.307 6.228 C 4.391 6.680,4.460 7.070,4.460 7.094 C 4.460 7.141,4.446 7.148,4.274 7.178 C 4.111 7.207,3.997 7.263,3.904 7.358 C 3.741 7.526,3.751 7.424,3.751 8.930 C 3.751 9.667,3.758 10.313,3.767 10.366 C 3.789 10.502,3.975 10.700,4.136 10.761 C 4.405 10.862,4.730 10.715,4.878 10.424 C 4.919 10.344,4.920 10.317,4.920 9.344 L 4.920 8.347 5.027 8.314 C 5.258 8.241,5.507 8.025,5.609 7.810 C 5.637 7.751,5.675 7.639,5.694 7.561 C 5.727 7.423,5.727 7.411,5.682 7.134 C 5.623 6.766,5.378 5.518,5.287 5.120 C 5.199 4.734,5.135 4.592,4.995 4.474 C 4.714 4.237,4.642 4.222,3.750 4.212 C 3.365 4.207,2.888 4.211,2.690 4.219 M7.360 4.218 L 6.970 4.231 6.830 4.300 C 6.650 4.388,6.429 4.604,6.354 4.764 C 6.282 4.917,6.253 5.064,6.268 5.197 C 6.302 5.483,6.800 7.892,6.850 8.013 C 6.865 8.050,6.924 8.128,6.979 8.187 L 7.080 8.294 7.080 9.322 L 7.080 10.350 7.141 10.456 C 7.273 10.686,7.443 10.786,7.703 10.786 C 7.821 10.786,7.853 10.777,7.951 10.718 C 8.067 10.649,8.170 10.540,8.228 10.426 C 8.256 10.369,8.260 10.242,8.258 9.286 C 8.257 8.694,8.250 8.056,8.243 7.868 L 8.230 7.526 8.154 7.433 C 8.112 7.382,8.035 7.311,7.984 7.276 C 7.867 7.197,7.869 7.200,7.840 7.052 C 7.805 6.866,7.520 5.476,7.507 5.425 L 7.496 5.380 8.465 5.380 C 8.999 5.380,9.463 5.386,9.498 5.393 C 9.538 5.401,9.560 5.417,9.560 5.439 C 9.560 5.497,9.240 7.107,9.217 7.166 C 9.204 7.196,9.176 7.231,9.154 7.243 C 9.078 7.284,8.936 7.429,8.895 7.509 C 8.838 7.617,8.824 7.985,8.822 9.321 L 8.820 10.332 8.890 10.451 C 9.027 10.682,9.196 10.787,9.430 10.786 C 9.512 10.786,9.601 10.773,9.644 10.754 C 9.741 10.713,9.894 10.571,9.942 10.476 C 10.000 10.362,10.019 10.028,10.020 9.102 L 10.020 8.294 10.111 8.196 C 10.162 8.143,10.220 8.060,10.241 8.013 C 10.280 7.924,10.736 5.684,10.790 5.313 C 10.824 5.080,10.815 4.969,10.748 4.799 C 10.643 4.532,10.365 4.296,10.088 4.240 C 9.968 4.216,7.902 4.199,7.360 4.218 " fill="#1A1C1F" stroke="none" fill-rule="evenodd"></path></svg>