<svg width="20" height="20" viewBox="0 0 20 20" fill="none" xmlns="http://www.w3.org/2000/svg"><path d="M13.932 2.035 C 13.205 2.145,12.601 2.691,12.350 3.464 C 12.265 3.725,12.272 4.233,12.365 4.513 C 12.530 5.008,12.906 5.449,13.350 5.669 C 14.153 6.067,14.968 5.933,15.600 5.300 C 15.884 5.016,15.999 4.824,16.098 4.467 C 16.424 3.291,15.574 2.114,14.333 2.022 C 14.214 2.014,14.033 2.019,13.932 2.035 M5.165 2.108 C 4.560 2.319,4.071 2.807,3.891 3.382 C 3.793 3.691,3.788 4.227,3.880 4.500 C 3.989 4.823,4.141 5.069,4.387 5.317 C 5.129 6.066,6.278 6.090,7.040 5.372 C 7.488 4.950,7.670 4.539,7.670 3.951 C 7.671 3.271,7.365 2.712,6.786 2.335 C 6.449 2.115,6.245 2.056,5.783 2.043 C 5.434 2.033,5.355 2.041,5.165 2.108 M4.467 7.032 C 3.818 7.060,3.768 7.073,3.393 7.322 C 3.167 7.472,3.022 7.626,2.919 7.828 C 2.839 7.984,2.652 8.808,2.321 10.467 C 1.947 12.339,1.946 12.345,1.995 12.586 C 2.053 12.876,2.207 13.177,2.407 13.388 C 2.636 13.631,2.803 13.743,3.073 13.837 L 3.293 13.914 3.309 15.582 C 3.320 16.759,3.336 17.288,3.365 17.378 C 3.454 17.663,3.839 17.947,4.190 17.988 C 4.556 18.032,4.946 17.803,5.169 17.413 L 5.273 17.231 5.262 14.957 L 5.250 12.683 5.172 12.526 C 5.015 12.207,4.684 11.993,4.273 11.944 C 4.174 11.933,4.088 11.907,4.080 11.886 C 4.068 11.856,4.545 9.358,4.622 9.042 C 4.640 8.967,4.643 8.967,5.312 8.967 C 5.681 8.967,6.194 8.977,6.453 8.988 L 6.922 9.010 7.146 10.213 C 7.407 11.617,7.442 11.829,7.421 11.885 C 7.412 11.908,7.315 11.937,7.204 11.949 C 6.824 11.994,6.439 12.242,6.311 12.526 C 6.260 12.638,6.254 12.864,6.253 14.883 C 6.252 16.112,6.263 17.188,6.278 17.276 C 6.316 17.503,6.625 17.833,6.894 17.935 C 7.342 18.104,7.883 17.858,8.130 17.373 C 8.198 17.239,8.200 17.195,8.200 15.574 L 8.200 13.912 8.378 13.856 C 8.764 13.735,9.179 13.375,9.348 13.017 C 9.395 12.919,9.459 12.731,9.490 12.601 C 9.545 12.371,9.545 12.351,9.471 11.891 C 9.357 11.175,8.816 8.492,8.716 8.150 C 8.668 7.985,8.593 7.788,8.548 7.711 C 8.391 7.441,7.997 7.172,7.631 7.084 C 7.376 7.022,5.422 6.990,4.467 7.032 M12.300 7.029 L 11.617 7.052 11.384 7.168 C 11.104 7.307,10.771 7.609,10.635 7.848 C 10.496 8.090,10.421 8.403,10.445 8.637 C 10.483 8.996,11.266 12.850,11.384 13.257 C 11.420 13.382,11.486 13.487,11.617 13.628 L 11.800 13.826 11.800 15.538 L 11.801 17.250 11.902 17.427 C 12.118 17.803,12.400 17.973,12.815 17.977 C 13.162 17.980,13.525 17.743,13.701 17.398 L 13.774 17.256 13.761 14.953 C 13.748 12.682,13.746 12.648,13.677 12.517 C 13.596 12.364,13.442 12.211,13.252 12.093 L 13.121 12.012 12.832 10.598 C 12.673 9.820,12.532 9.135,12.519 9.075 L 12.495 8.967 14.076 8.967 C 14.946 8.967,15.724 8.976,15.805 8.987 L 15.953 9.007 15.746 10.079 C 15.403 11.852,15.369 11.996,15.274 12.061 C 15.090 12.187,14.890 12.388,14.824 12.515 C 14.731 12.693,14.706 13.316,14.703 15.552 L 14.700 17.221 14.819 17.419 C 14.979 17.685,15.081 17.786,15.298 17.892 C 15.445 17.964,15.526 17.981,15.715 17.980 C 15.853 17.979,16.001 17.956,16.073 17.925 C 16.237 17.854,16.490 17.617,16.570 17.460 C 16.667 17.270,16.698 16.713,16.699 15.170 L 16.700 13.824 16.852 13.661 C 16.936 13.571,17.033 13.434,17.068 13.356 C 17.134 13.206,17.893 9.474,17.983 8.855 C 18.039 8.466,18.024 8.282,17.913 7.998 C 17.739 7.552,17.274 7.159,16.813 7.067 C 16.611 7.027,13.232 6.998,12.300 7.029 " fill="#1A1C1F" stroke="none" fill-rule="evenodd"></path></svg>