<svg width="14" height="14" viewBox="0 0 14 14" fill="none" xmlns="http://www.w3.org/2000/svg"><path d="M6.746 1.435 C 6.368 1.504,5.980 1.798,5.778 2.169 C 5.700 2.313,5.623 2.607,5.623 2.765 C 5.623 2.924,5.697 3.205,5.783 3.375 C 6.026 3.855,6.545 4.159,7.059 4.121 C 7.428 4.094,7.694 3.974,7.945 3.721 C 8.135 3.530,8.243 3.342,8.307 3.089 C 8.427 2.621,8.304 2.192,7.945 1.829 C 7.731 1.613,7.517 1.492,7.245 1.435 C 7.050 1.394,6.973 1.394,6.746 1.435 M6.113 4.922 C 5.683 4.937,5.681 4.937,5.524 5.015 C 5.312 5.120,5.084 5.331,5.019 5.482 C 4.883 5.799,4.399 8.152,4.374 8.622 L 4.359 8.902 4.447 9.077 C 4.597 9.374,4.878 9.619,5.172 9.707 L 5.269 9.736 5.277 10.906 C 5.286 12.031,5.288 12.079,5.334 12.180 C 5.392 12.306,5.550 12.468,5.680 12.537 C 5.806 12.603,6.108 12.606,6.229 12.543 C 6.347 12.481,6.558 12.274,6.598 12.180 C 6.628 12.111,6.635 11.856,6.645 10.500 L 6.656 8.901 6.597 8.785 C 6.492 8.579,6.305 8.433,6.090 8.389 C 5.868 8.345,5.833 8.329,5.833 8.277 C 5.833 8.248,5.919 7.786,6.025 7.249 L 6.217 6.273 7.003 6.281 C 7.436 6.285,7.795 6.294,7.803 6.302 C 7.824 6.323,8.193 8.306,8.180 8.328 C 8.173 8.339,8.107 8.355,8.033 8.364 C 7.735 8.398,7.536 8.519,7.402 8.746 L 7.338 8.855 7.332 10.460 L 7.325 12.065 7.389 12.183 C 7.547 12.473,7.860 12.640,8.137 12.582 C 8.365 12.534,8.602 12.344,8.658 12.163 C 8.678 12.102,8.690 11.713,8.697 10.904 L 8.708 9.733 8.782 9.717 C 9.023 9.664,9.408 9.350,9.516 9.117 C 9.587 8.964,9.637 8.762,9.637 8.630 C 9.637 8.328,9.106 5.678,9.007 5.483 C 8.919 5.311,8.634 5.066,8.423 4.983 C 8.240 4.910,7.255 4.885,6.113 4.922 " fill="#1A1C1F" stroke="none" fill-rule="evenodd"></path></svg>