<svg width="12" height="12" viewBox="0 0 12 12" fill="none" xmlns="http://www.w3.org/2000/svg"><path d="M5.682 1.252 C 5.431 1.319,5.140 1.540,5.004 1.766 C 4.850 2.021,4.788 2.353,4.848 2.605 C 4.942 3.006,5.225 3.323,5.620 3.471 C 5.749 3.519,5.800 3.527,5.990 3.528 C 6.155 3.529,6.237 3.521,6.320 3.492 C 6.518 3.425,6.667 3.334,6.812 3.189 C 7.170 2.833,7.257 2.326,7.038 1.865 C 6.909 1.593,6.546 1.301,6.264 1.242 C 6.118 1.212,5.812 1.217,5.682 1.252 M5.240 4.219 C 4.871 4.231,4.870 4.232,4.735 4.299 C 4.578 4.376,4.360 4.567,4.312 4.669 C 4.258 4.783,4.171 5.143,4.000 5.970 C 3.735 7.244,3.711 7.420,3.771 7.651 C 3.850 7.952,4.123 8.229,4.433 8.321 L 4.517 8.345 4.523 9.348 C 4.530 10.348,4.530 10.350,4.576 10.444 C 4.634 10.562,4.753 10.685,4.864 10.743 C 4.933 10.779,4.982 10.788,5.110 10.788 C 5.310 10.787,5.391 10.749,5.545 10.582 C 5.636 10.483,5.660 10.442,5.673 10.365 C 5.682 10.313,5.689 9.681,5.689 8.960 C 5.690 7.537,5.689 7.529,5.579 7.396 C 5.517 7.320,5.328 7.212,5.220 7.191 C 5.032 7.154,5.000 7.139,5.000 7.094 C 5.000 7.070,5.074 6.674,5.164 6.214 L 5.329 5.377 6.003 5.384 C 6.373 5.387,6.682 5.395,6.688 5.402 C 6.706 5.419,7.021 7.107,7.012 7.132 C 7.007 7.145,6.951 7.161,6.887 7.169 C 6.630 7.199,6.459 7.302,6.345 7.497 L 6.290 7.590 6.284 8.966 L 6.278 10.342 6.333 10.443 C 6.469 10.691,6.737 10.834,6.975 10.784 C 7.170 10.743,7.373 10.580,7.422 10.426 C 7.438 10.373,7.448 10.040,7.455 9.349 L 7.464 8.348 7.596 8.302 C 7.669 8.277,7.765 8.231,7.811 8.200 C 7.926 8.120,8.107 7.920,8.157 7.817 C 8.214 7.698,8.260 7.511,8.260 7.397 C 8.260 7.145,7.804 4.864,7.721 4.701 C 7.644 4.551,7.385 4.329,7.215 4.268 C 7.054 4.209,6.186 4.188,5.240 4.219 " fill="#1A1C1F" stroke="none" fill-rule="evenodd"></path></svg>