<svg width="32" height="32" viewBox="0 0 32 32" fill="none" xmlns="http://www.w3.org/2000/svg"><path d="M14.848 2.179 C 13.999 2.494,13.280 3.241,12.993 4.107 C 12.732 4.896,12.773 5.567,13.126 6.285 C 13.319 6.678,13.859 7.276,14.247 7.524 C 14.875 7.927,15.711 8.086,16.380 7.928 C 17.836 7.585,18.805 6.391,18.791 4.957 C 18.780 3.796,18.087 2.792,16.927 2.255 C 16.641 2.123,16.548 2.109,15.867 2.094 C 15.239 2.080,15.077 2.094,14.848 2.179 M16.291 4.189 C 16.673 4.370,16.892 4.921,16.751 5.347 C 16.614 5.762,16.080 6.085,15.672 6.001 C 14.910 5.843,14.622 4.902,15.168 4.356 C 15.472 4.051,15.875 3.991,16.291 4.189 M11.677 9.619 C 11.339 9.710,11.091 9.876,10.777 10.220 C 10.395 10.638,10.265 11.072,10.312 11.781 C 10.363 12.560,11.505 20.693,11.637 21.219 C 11.749 21.664,12.240 21.973,12.834 21.973 L 13.061 21.973 13.077 25.640 C 13.095 29.744,13.073 29.517,13.481 29.783 C 13.921 30.070,14.416 30.008,14.771 29.623 C 14.888 29.497,14.997 29.338,15.014 29.270 C 15.030 29.202,15.037 27.234,15.029 24.897 C 15.013 20.678,15.013 20.647,14.902 20.497 C 14.840 20.414,14.679 20.278,14.545 20.194 C 14.343 20.069,14.222 20.037,13.857 20.014 L 13.413 19.987 12.860 15.873 C 12.556 13.611,12.295 11.694,12.280 11.613 L 12.253 11.467 16.024 11.467 C 19.589 11.467,19.792 11.472,19.766 11.560 C 19.750 11.611,19.471 13.512,19.145 15.784 C 18.819 18.056,18.543 19.931,18.531 19.950 C 18.520 19.969,18.335 20.001,18.122 20.020 C 17.643 20.065,17.335 20.208,17.153 20.471 L 17.013 20.672 17.013 25.011 L 17.013 29.349 17.200 29.577 C 17.649 30.125,18.417 30.082,18.811 29.486 L 18.960 29.261 18.987 25.622 C 19.001 23.620,19.025 21.971,19.040 21.957 C 19.055 21.944,19.189 21.871,19.339 21.796 C 19.743 21.593,20.178 21.172,20.317 20.848 C 20.483 20.462,20.583 19.898,21.009 16.933 C 21.505 13.473,21.661 12.196,21.669 11.517 C 21.676 11.006,21.663 10.928,21.531 10.658 C 21.359 10.306,20.925 9.879,20.544 9.685 L 20.270 9.547 16.095 9.550 C 12.974 9.553,11.859 9.570,11.677 9.619 " fill="#1A1C1F" stroke="none" fill-rule="evenodd"></path></svg>