<svg width="24" height="24" viewBox="0 0 24 24" fill="none" xmlns="http://www.w3.org/2000/svg"><path d="M11.378 2.096 C 10.710 2.305,10.086 2.905,9.887 3.529 C 9.773 3.885,9.751 4.146,9.800 4.549 C 9.864 5.072,10.034 5.405,10.451 5.819 C 10.924 6.290,11.369 6.480,12.000 6.480 C 12.625 6.480,13.070 6.290,13.545 5.821 C 14.052 5.319,14.222 4.904,14.215 4.180 C 14.209 3.574,14.017 3.132,13.562 2.679 C 13.274 2.392,12.939 2.195,12.578 2.101 C 12.294 2.027,11.608 2.024,11.378 2.096 M9.663 7.884 C 9.045 8.097,8.715 8.520,8.557 9.303 C 8.457 9.800,7.952 12.855,7.836 13.659 C 7.740 14.331,7.761 14.605,7.936 14.984 C 8.048 15.226,8.481 15.667,8.702 15.765 C 8.921 15.862,9.307 15.960,9.468 15.960 L 9.600 15.960 9.600 18.602 C 9.600 21.124,9.603 21.250,9.676 21.392 C 9.919 21.863,10.477 22.111,10.885 21.931 C 11.117 21.828,11.338 21.632,11.464 21.417 L 11.564 21.246 11.552 17.993 C 11.540 14.743,11.540 14.740,11.453 14.578 C 11.348 14.382,11.153 14.184,10.984 14.105 C 10.913 14.071,10.662 14.034,10.394 14.018 C 10.138 14.002,9.905 13.975,9.877 13.958 C 9.836 13.933,9.848 13.758,9.936 13.093 C 10.083 11.983,10.425 9.776,10.458 9.723 C 10.484 9.681,13.560 9.656,13.560 9.698 C 13.560 9.731,14.200 13.780,14.222 13.884 L 14.244 13.988 13.717 14.016 C 13.122 14.047,12.979 14.096,12.761 14.345 C 12.496 14.647,12.510 14.461,12.489 17.969 L 12.469 21.157 12.576 21.375 C 12.634 21.495,12.753 21.657,12.840 21.735 C 13.031 21.907,13.373 22.018,13.598 21.980 C 13.850 21.938,14.161 21.726,14.299 21.503 L 14.420 21.306 14.434 18.633 L 14.447 15.960 14.574 15.960 C 14.736 15.959,15.048 15.876,15.290 15.768 C 15.705 15.585,16.090 15.085,16.202 14.584 C 16.263 14.315,16.239 14.101,15.897 11.880 C 15.491 9.250,15.413 8.864,15.218 8.560 C 15.086 8.355,14.813 8.105,14.542 7.942 L 14.305 7.800 12.102 7.801 C 9.993 7.803,9.890 7.806,9.663 7.884 " fill="#1A1C1F" stroke="none" fill-rule="evenodd"></path></svg>