<svg width="28" height="28" viewBox="0 0 28 28" fill="none" xmlns="http://www.w3.org/2000/svg"><path d="M6.659 1.931 C 5.940 2.234,5.496 2.641,5.170 3.299 L 4.970 3.703 4.970 4.387 L 4.970 5.070 5.174 5.483 C 6.009 7.168,8.100 7.499,9.422 6.156 C 9.696 5.877,9.993 5.311,10.076 4.909 C 10.314 3.750,9.714 2.571,8.607 2.024 C 8.243 1.844,8.243 1.844,7.587 1.831 C 6.979 1.818,6.910 1.825,6.659 1.931 M19.413 1.920 C 18.696 2.201,18.063 2.825,17.806 3.506 C 17.702 3.784,17.655 4.315,17.695 4.758 C 17.742 5.266,18.012 5.790,18.452 6.230 C 18.827 6.605,19.117 6.766,19.666 6.906 C 20.129 7.024,20.361 7.024,20.855 6.905 C 21.406 6.773,21.739 6.581,22.115 6.179 C 22.653 5.603,22.867 5.073,22.867 4.317 C 22.867 3.351,22.225 2.424,21.241 1.969 C 21.002 1.858,20.914 1.845,20.323 1.833 C 19.746 1.821,19.640 1.831,19.413 1.920 M7.829 3.619 C 8.187 3.768,8.367 4.038,8.363 4.419 C 8.357 5.151,7.523 5.514,6.969 5.027 C 6.265 4.408,6.967 3.259,7.829 3.619 M20.712 3.675 C 20.896 3.761,21.075 4.015,21.117 4.251 C 21.185 4.623,20.900 5.113,20.549 5.229 C 20.069 5.388,19.550 5.044,19.478 4.521 C 19.423 4.114,19.639 3.730,19.997 3.601 C 20.165 3.540,20.499 3.574,20.712 3.675 M5.927 8.352 C 5.195 8.380,5.145 8.388,4.912 8.515 C 4.530 8.723,4.182 9.117,4.085 9.451 C 3.847 10.268,2.659 16.554,2.589 17.362 C 2.537 17.958,2.769 18.479,3.250 18.848 C 3.572 19.096,3.879 19.190,4.442 19.216 L 4.941 19.238 4.956 22.394 C 4.970 25.524,4.971 25.552,5.072 25.770 C 5.320 26.308,6.036 26.380,6.475 25.912 L 6.673 25.700 6.669 22.452 C 6.667 20.665,6.651 18.926,6.633 18.587 L 6.602 17.970 6.445 17.808 C 6.358 17.719,6.233 17.625,6.166 17.598 C 6.098 17.571,5.672 17.533,5.217 17.512 C 4.763 17.491,4.378 17.460,4.362 17.444 C 4.327 17.409,4.407 16.888,4.695 15.260 C 4.903 14.090,5.575 10.413,5.627 10.162 L 5.654 10.033 6.922 10.039 C 7.619 10.042,8.462 10.057,8.795 10.074 L 9.400 10.103 9.457 10.383 C 9.690 11.525,10.738 17.373,10.719 17.423 C 10.701 17.470,10.493 17.492,9.853 17.514 C 8.903 17.547,8.763 17.584,8.558 17.853 L 8.423 18.029 8.393 19.130 C 8.376 19.735,8.361 21.428,8.358 22.893 L 8.353 25.555 8.488 25.767 C 8.698 26.099,8.873 26.199,9.237 26.198 C 9.406 26.198,9.590 26.172,9.646 26.142 C 9.844 26.034,9.991 25.781,10.035 25.472 C 10.059 25.309,10.079 23.838,10.079 22.202 L 10.080 19.227 10.418 19.226 C 11.144 19.226,11.611 19.078,11.960 18.737 C 12.211 18.493,12.358 18.242,12.442 17.912 C 12.532 17.562,12.502 17.325,12.062 14.910 C 11.462 11.618,11.016 9.471,10.873 9.195 C 10.744 8.945,10.416 8.653,10.105 8.511 C 9.870 8.404,9.734 8.379,9.219 8.348 C 8.528 8.307,7.066 8.308,5.927 8.352 M17.733 8.351 L 16.637 8.379 16.384 8.518 C 16.028 8.713,15.745 9.006,15.585 9.345 C 15.354 9.832,15.365 9.962,16.034 14.677 C 16.543 18.273,16.602 18.620,16.729 18.813 C 16.875 19.034,17.191 19.185,17.573 19.215 L 17.873 19.239 17.873 22.458 L 17.873 25.677 18.019 25.860 C 18.448 26.403,19.194 26.322,19.514 25.698 C 19.603 25.524,19.605 25.423,19.588 21.871 C 19.575 19.152,19.556 18.179,19.513 18.049 C 19.409 17.733,18.943 17.503,18.401 17.501 C 18.294 17.500,18.195 17.483,18.183 17.463 C 18.134 17.384,17.168 10.116,17.202 10.083 C 17.216 10.068,18.685 10.050,20.467 10.041 C 23.697 10.026,23.707 10.026,23.707 10.121 C 23.707 10.173,23.485 11.744,23.215 13.613 C 22.944 15.481,22.710 17.110,22.695 17.232 C 22.664 17.479,22.674 17.474,22.191 17.522 C 21.808 17.560,21.552 17.717,21.413 18.001 L 21.303 18.223 21.303 21.918 L 21.303 25.612 21.445 25.814 C 21.829 26.361,22.504 26.361,22.888 25.814 L 23.030 25.612 23.043 22.408 L 23.057 19.203 23.334 19.074 C 23.657 18.923,24.071 18.539,24.214 18.258 C 24.355 17.981,24.415 17.658,24.706 15.606 C 25.326 11.228,25.463 10.044,25.391 9.705 C 25.284 9.207,24.914 8.729,24.466 8.510 C 24.216 8.387,24.184 8.384,22.990 8.348 C 21.629 8.308,19.396 8.309,17.733 8.351 " fill="#1A1C1F" stroke="none" fill-rule="evenodd"></path></svg>