<svg width="16" height="16" viewBox="0 0 16 16" fill="none" xmlns="http://www.w3.org/2000/svg"><path d="M4.292 1.668 C 3.857 1.747,3.309 1.990,2.927 2.273 C 2.263 2.765,1.838 3.451,1.650 4.333 C 1.598 4.576,1.605 5.246,1.663 5.514 C 1.772 6.020,1.972 6.467,2.281 6.893 C 2.427 7.094,2.453 7.146,2.442 7.213 C 2.407 7.417,2.395 8.295,2.424 8.529 L 2.455 8.778 2.325 8.929 C 2.043 9.257,1.868 9.569,1.739 9.973 C 1.426 10.959,1.684 12.020,2.416 12.756 C 2.676 13.018,2.888 13.170,3.210 13.322 C 4.120 13.753,5.116 13.667,6.014 13.082 L 6.242 12.933 6.381 13.004 C 6.638 13.133,7.166 13.439,7.196 13.475 C 7.212 13.495,7.268 13.596,7.320 13.700 C 7.491 14.042,7.844 14.311,8.210 14.379 C 8.818 14.492,9.458 14.025,9.576 13.381 C 9.662 12.911,9.404 12.397,8.966 12.167 C 8.739 12.048,8.569 12.017,8.242 12.034 L 7.960 12.050 7.587 11.840 C 7.381 11.725,7.191 11.601,7.163 11.565 C 7.118 11.505,7.116 11.482,7.145 11.329 C 7.162 11.236,7.183 10.990,7.192 10.783 L 7.208 10.407 7.330 10.391 C 7.398 10.383,7.579 10.340,7.732 10.295 L 8.012 10.215 8.264 10.295 C 8.694 10.433,8.957 10.427,9.267 10.273 C 9.537 10.138,9.719 9.943,9.788 9.713 C 9.815 9.623,9.815 9.577,9.789 9.487 C 9.744 9.333,9.635 9.180,9.513 9.099 C 9.416 9.035,9.401 9.033,9.096 9.047 C 8.687 9.066,8.669 9.057,8.611 8.813 C 8.549 8.549,8.523 8.496,8.398 8.375 C 8.218 8.200,7.953 8.168,7.712 8.291 C 7.551 8.373,7.479 8.478,7.412 8.733 C 7.328 9.051,7.329 9.050,7.077 9.045 C 6.634 9.035,6.592 9.023,6.406 8.850 C 5.975 8.448,5.441 8.165,4.893 8.050 C 4.804 8.031,4.570 8.017,4.367 8.018 L 4.000 8.020 4.001 7.923 C 4.002 7.764,4.048 7.452,4.137 6.990 L 4.221 6.553 4.064 6.418 C 3.669 6.080,3.387 5.718,3.292 5.424 C 3.215 5.186,3.219 4.554,3.299 4.340 C 3.439 3.964,3.795 3.573,4.163 3.388 C 4.436 3.252,4.613 3.217,4.960 3.233 C 5.271 3.248,5.483 3.311,5.751 3.470 C 5.948 3.587,6.268 3.888,6.419 4.100 C 6.484 4.192,6.548 4.267,6.560 4.267 C 6.572 4.267,6.728 4.225,6.906 4.173 C 7.607 3.972,8.304 3.975,9.126 4.184 L 9.518 4.284 9.616 4.141 C 9.822 3.842,10.323 3.433,10.641 3.305 C 10.823 3.232,11.255 3.205,11.500 3.252 C 11.723 3.295,12.061 3.462,12.234 3.614 C 12.420 3.779,12.597 4.032,12.684 4.257 C 12.738 4.399,12.757 4.503,12.767 4.722 C 12.782 5.062,12.751 5.225,12.620 5.493 C 12.519 5.700,12.290 5.954,11.897 6.293 L 11.727 6.440 11.823 6.840 C 11.951 7.377,11.983 7.684,11.961 8.173 C 11.931 8.825,11.861 9.140,11.638 9.620 C 11.420 10.090,11.260 10.319,10.716 10.945 C 10.468 11.229,10.440 11.295,10.440 11.587 C 10.440 11.800,10.448 11.840,10.513 11.951 C 10.672 12.221,11.005 12.396,11.295 12.360 C 11.547 12.330,11.871 12.079,12.269 11.606 C 13.052 10.674,13.512 9.536,13.576 8.373 C 13.598 7.966,13.573 7.225,13.532 7.078 C 13.520 7.037,13.572 6.949,13.731 6.738 C 14.268 6.025,14.488 5.188,14.361 4.347 C 14.204 3.304,13.562 2.420,12.618 1.948 C 11.508 1.393,10.080 1.565,9.126 2.367 L 8.985 2.486 8.619 2.455 C 8.418 2.438,8.217 2.420,8.173 2.414 C 8.129 2.409,7.876 2.417,7.611 2.432 L 7.129 2.459 6.891 2.283 C 6.441 1.950,5.848 1.703,5.377 1.653 C 5.039 1.618,4.532 1.624,4.292 1.668 M5.688 6.079 C 5.533 6.149,5.347 6.327,5.275 6.476 C 5.228 6.572,5.215 6.645,5.216 6.800 C 5.217 7.048,5.283 7.199,5.466 7.370 C 5.638 7.531,5.759 7.581,5.988 7.583 C 6.300 7.587,6.564 7.419,6.725 7.115 C 6.807 6.957,6.809 6.678,6.728 6.500 C 6.647 6.323,6.441 6.126,6.281 6.071 C 6.104 6.011,5.830 6.014,5.688 6.079 M9.688 6.079 C 9.533 6.149,9.347 6.327,9.275 6.476 C 9.228 6.572,9.215 6.645,9.216 6.800 C 9.217 7.048,9.283 7.199,9.466 7.370 C 9.638 7.531,9.759 7.581,9.988 7.583 C 10.300 7.587,10.564 7.419,10.725 7.115 C 10.807 6.957,10.809 6.678,10.728 6.500 C 10.647 6.323,10.441 6.126,10.281 6.071 C 10.104 6.011,9.830 6.014,9.688 6.079 M4.586 9.628 C 4.955 9.688,5.293 9.949,5.472 10.313 C 5.556 10.484,5.560 10.506,5.560 10.801 C 5.560 11.104,5.558 11.113,5.460 11.312 C 5.209 11.819,4.645 12.096,4.137 11.961 C 3.779 11.866,3.483 11.621,3.326 11.288 C 3.245 11.116,3.240 11.090,3.240 10.799 C 3.240 10.496,3.242 10.487,3.340 10.288 C 3.507 9.950,3.847 9.687,4.192 9.630 C 4.389 9.597,4.393 9.597,4.586 9.628 " fill="#1A1C1F" stroke="none" fill-rule="evenodd"></path></svg>