<svg width="24" height="24" viewBox="0 0 24 24" fill="none" xmlns="http://www.w3.org/2000/svg"><path d="M7.912 2.153 C 6.483 2.534,5.364 3.520,4.821 4.877 C 4.594 5.444,4.547 5.723,4.543 6.520 C 4.540 7.170,4.548 7.248,4.652 7.620 C 4.788 8.107,5.165 8.887,5.435 9.242 L 5.635 9.505 5.590 9.797 C 5.565 9.957,5.525 10.094,5.502 10.100 C 5.479 10.106,5.280 10.167,5.060 10.234 C 3.390 10.746,2.097 12.099,1.651 13.800 C 1.513 14.327,1.481 15.218,1.578 15.800 C 1.758 16.874,2.211 17.746,2.994 18.522 C 3.990 19.508,5.121 19.978,6.500 19.978 C 7.605 19.978,8.438 19.704,9.525 18.986 L 9.631 18.917 10.075 19.283 L 10.520 19.650 10.520 19.949 C 10.520 20.492,10.720 21.021,11.053 21.360 C 11.861 22.183,13.096 22.191,13.909 21.378 C 14.401 20.886,14.583 20.223,14.418 19.523 C 14.288 18.970,13.890 18.488,13.338 18.215 L 13.024 18.060 12.377 18.059 L 11.731 18.059 11.555 17.912 C 11.459 17.831,11.283 17.677,11.165 17.571 L 10.949 17.378 11.152 16.779 C 11.354 16.179,11.480 15.639,11.480 15.366 L 11.480 15.220 11.996 15.234 C 12.591 15.250,12.822 15.201,13.235 14.970 L 13.490 14.827 13.815 14.990 C 13.994 15.079,14.221 15.174,14.319 15.200 C 14.579 15.269,15.112 15.259,15.386 15.180 C 15.942 15.020,16.563 14.571,16.699 14.231 C 16.835 13.891,16.666 13.521,16.300 13.355 C 16.034 13.234,15.879 13.257,15.443 13.484 C 14.977 13.727,14.765 13.765,14.567 13.641 C 14.409 13.542,14.298 13.308,14.260 12.996 L 14.232 12.772 14.451 12.749 C 14.923 12.701,15.240 12.384,15.240 11.960 C 15.240 11.803,15.083 11.541,14.904 11.402 L 14.749 11.280 13.507 11.280 L 12.264 11.280 12.112 11.386 C 11.883 11.544,11.781 11.735,11.781 12.007 C 11.781 12.417,12.087 12.714,12.550 12.753 L 12.768 12.771 12.741 12.995 C 12.662 13.643,12.288 13.889,11.778 13.630 C 11.434 13.455,11.199 13.208,10.968 12.780 C 10.636 12.164,10.492 11.968,10.042 11.519 C 9.434 10.913,8.819 10.530,7.980 10.236 L 7.592 10.100 7.615 9.897 C 7.628 9.785,7.689 9.494,7.750 9.251 L 7.862 8.808 7.608 8.596 C 7.274 8.318,6.915 7.867,6.743 7.509 C 6.490 6.984,6.459 6.211,6.669 5.682 C 6.926 5.037,7.293 4.607,7.826 4.330 C 8.318 4.074,8.559 4.025,9.180 4.054 C 9.697 4.079,9.702 4.080,10.080 4.265 C 10.417 4.431,10.511 4.503,10.907 4.901 L 11.355 5.350 11.747 5.255 C 13.028 4.946,13.908 4.948,15.253 5.266 L 15.686 5.369 15.750 5.278 C 15.985 4.943,16.532 4.467,16.912 4.267 C 17.117 4.159,17.266 4.114,17.520 4.082 C 18.260 3.990,18.626 4.044,19.175 4.330 C 20.053 4.787,20.575 5.789,20.448 6.774 C 20.365 7.411,20.136 7.830,19.528 8.450 L 19.146 8.839 19.250 9.290 C 19.308 9.537,19.378 9.857,19.405 10.000 C 19.473 10.358,19.461 11.522,19.384 12.032 C 19.218 13.125,18.630 14.272,17.785 15.150 C 17.240 15.716,16.826 16.017,16.022 16.430 C 15.649 16.622,15.285 16.837,15.214 16.909 C 15.082 17.040,14.960 17.355,14.960 17.561 C 14.960 17.734,15.066 18.034,15.179 18.182 C 15.305 18.347,15.612 18.512,15.856 18.546 C 16.252 18.600,17.404 18.060,18.268 17.415 C 18.653 17.127,19.373 16.435,19.676 16.060 C 20.328 15.256,20.784 14.416,21.098 13.440 C 21.460 12.320,21.559 11.335,21.442 10.037 L 21.393 9.494 21.653 9.097 C 21.972 8.610,22.165 8.227,22.277 7.862 C 22.764 6.274,22.367 4.567,21.242 3.417 C 20.831 2.996,20.490 2.750,19.940 2.479 C 19.317 2.171,18.944 2.079,18.212 2.051 C 17.084 2.009,16.355 2.225,15.330 2.906 L 15.001 3.125 14.510 3.077 C 14.004 3.028,12.557 3.050,12.195 3.114 C 12.017 3.145,12.000 3.139,11.755 2.960 C 11.226 2.575,10.690 2.310,10.125 2.156 C 9.883 2.090,9.667 2.069,9.080 2.056 C 8.366 2.039,8.325 2.043,7.912 2.153 M10.097 8.102 C 10.030 8.136,9.910 8.216,9.831 8.281 C 9.273 8.742,9.503 9.719,10.224 9.947 C 10.916 10.165,11.599 9.531,11.449 8.810 C 11.348 8.328,10.986 8.039,10.485 8.041 C 10.331 8.041,10.169 8.067,10.097 8.102 M16.097 8.102 C 16.030 8.136,15.910 8.216,15.831 8.281 C 15.273 8.742,15.503 9.719,16.224 9.947 C 16.916 10.165,17.599 9.531,17.449 8.810 C 17.348 8.328,16.986 8.039,16.485 8.041 C 16.331 8.041,16.169 8.067,16.097 8.102 M7.380 12.160 C 8.367 12.470,9.104 13.250,9.384 14.282 C 9.484 14.653,9.476 15.360,9.366 15.771 C 9.149 16.582,8.558 17.307,7.811 17.677 C 6.649 18.254,5.266 18.009,4.370 17.066 C 4.051 16.730,3.804 16.336,3.682 15.971 C 3.509 15.449,3.497 14.541,3.658 14.084 C 3.758 13.801,4.030 13.310,4.203 13.102 C 4.548 12.684,5.176 12.280,5.740 12.112 C 6.086 12.009,6.983 12.035,7.380 12.160 " fill="#1A1C1F" stroke="none" fill-rule="evenodd"></path></svg>