<svg width="28" height="28" viewBox="0 0 28 28" fill="none" xmlns="http://www.w3.org/2000/svg"><path d="M8.237 1.808 C 6.493 1.893,4.661 3.213,3.987 4.870 C 3.114 7.013,3.447 8.945,4.980 10.632 L 5.317 11.003 5.277 11.574 C 5.237 12.154,5.280 13.238,5.364 13.733 C 5.389 13.882,5.398 14.034,5.384 14.070 C 5.369 14.107,5.187 14.202,4.977 14.282 C 2.778 15.122,1.529 17.180,1.815 19.493 C 1.967 20.719,2.718 21.957,3.757 22.691 C 4.696 23.355,5.727 23.659,6.833 23.598 C 7.412 23.566,7.832 23.468,8.474 23.214 C 8.713 23.119,8.937 23.053,8.972 23.066 C 9.006 23.079,9.187 23.269,9.373 23.488 L 9.710 23.886 9.654 24.191 C 9.520 24.921,9.962 25.745,10.674 26.090 C 10.860 26.180,10.974 26.198,11.363 26.200 C 11.788 26.203,11.855 26.190,12.109 26.066 C 12.464 25.892,12.778 25.579,12.950 25.227 C 13.069 24.985,13.085 24.901,13.087 24.505 C 13.089 24.099,13.076 24.031,12.953 23.787 C 12.878 23.639,12.705 23.413,12.569 23.283 C 12.234 22.967,11.925 22.832,11.442 22.792 L 11.055 22.759 10.707 22.350 C 10.516 22.125,10.360 21.917,10.360 21.888 C 10.360 21.859,10.454 21.673,10.569 21.474 C 11.375 20.075,11.562 18.859,11.176 17.526 C 10.920 16.642,10.573 16.066,9.896 15.400 C 9.264 14.779,8.521 14.369,7.590 14.128 L 7.192 14.025 7.134 13.698 C 7.046 13.197,7.059 11.186,7.154 10.690 C 7.195 10.474,7.214 10.272,7.196 10.242 C 7.178 10.212,6.969 10.026,6.731 9.828 C 6.035 9.252,5.553 8.576,5.389 7.947 C 5.285 7.548,5.296 6.594,5.410 6.149 C 5.697 5.026,6.678 3.990,7.770 3.656 C 7.994 3.588,8.205 3.571,8.820 3.571 C 9.533 3.571,9.615 3.580,9.925 3.693 C 10.358 3.851,10.800 4.147,11.303 4.618 L 11.707 4.996 12.246 4.832 C 13.436 4.471,14.542 4.336,15.560 4.427 C 16.230 4.486,16.683 4.582,17.509 4.838 L 18.056 5.007 18.438 4.647 C 19.363 3.777,20.046 3.509,21.207 3.559 C 21.830 3.587,22.107 3.662,22.630 3.949 C 23.264 4.295,23.756 4.795,24.075 5.413 C 24.607 6.443,24.599 7.690,24.055 8.657 C 23.751 9.197,23.174 9.807,22.672 10.117 C 22.510 10.217,22.503 10.232,22.546 10.373 C 22.617 10.610,22.692 12.328,22.661 12.997 C 22.629 13.682,22.565 14.028,22.355 14.658 C 21.785 16.365,20.623 17.872,19.112 18.865 C 18.563 19.226,17.987 19.500,17.281 19.735 C 16.428 20.020,16.073 20.068,14.588 20.100 L 13.286 20.128 13.109 20.305 C 12.898 20.515,12.810 20.773,12.852 21.055 C 12.939 21.635,13.300 21.807,14.559 21.870 C 15.861 21.934,17.527 21.597,18.847 21.001 C 19.894 20.528,20.796 19.899,21.657 19.041 C 22.479 18.222,22.989 17.508,23.499 16.460 C 24.236 14.948,24.555 13.386,24.483 11.649 L 24.453 10.955 24.754 10.636 C 25.872 9.451,26.328 8.123,26.189 6.460 C 26.064 4.970,25.294 3.654,24.016 2.745 C 23.597 2.447,22.751 2.040,22.351 1.944 C 21.453 1.728,20.201 1.749,19.437 1.992 C 19.097 2.100,18.430 2.439,17.979 2.733 L 17.587 2.989 16.995 2.874 C 15.528 2.590,14.142 2.589,12.751 2.873 L 12.150 2.996 11.765 2.733 C 11.042 2.241,10.365 1.956,9.717 1.871 C 9.330 1.820,8.615 1.790,8.237 1.808 M10.912 9.237 C 10.718 9.275,10.581 9.357,10.391 9.548 C 9.889 10.052,10.035 10.942,10.670 11.250 C 11.265 11.538,12.002 11.205,12.181 10.567 C 12.396 9.799,11.713 9.082,10.912 9.237 M18.502 9.353 C 18.260 9.499,18.027 9.825,17.962 10.111 C 17.918 10.307,17.924 10.371,18.010 10.600 C 18.380 11.581,19.660 11.614,20.020 10.652 C 20.144 10.321,20.138 10.100,19.995 9.814 C 19.805 9.432,19.464 9.240,18.979 9.240 C 18.757 9.241,18.646 9.267,18.502 9.353 M13.535 13.263 C 13.380 13.342,13.297 13.427,13.214 13.590 C 13.074 13.865,13.103 14.072,13.313 14.311 C 13.491 14.513,13.694 14.607,13.957 14.607 L 14.150 14.607 14.133 14.979 C 14.113 15.420,14.044 15.518,13.687 15.611 C 13.370 15.693,13.257 15.660,12.942 15.391 C 12.566 15.069,12.426 15.007,12.162 15.047 C 11.809 15.100,11.527 15.405,11.527 15.733 C 11.527 16.055,11.872 16.526,12.315 16.807 C 12.625 17.004,13.065 17.127,13.457 17.126 C 13.841 17.126,14.025 17.084,14.523 16.883 L 14.882 16.738 15.223 16.880 C 15.859 17.145,16.386 17.194,16.900 17.035 C 17.625 16.811,18.310 16.102,18.227 15.660 C 18.180 15.410,18.010 15.202,17.773 15.103 C 17.472 14.978,17.286 15.025,16.929 15.314 C 16.504 15.659,16.384 15.701,16.085 15.614 C 15.661 15.490,15.633 15.453,15.633 15.007 L 15.633 14.619 15.866 14.596 C 16.618 14.524,16.863 13.724,16.269 13.280 C 16.148 13.189,16.068 13.183,14.942 13.170 C 13.771 13.156,13.739 13.159,13.535 13.263 M7.356 15.893 C 7.513 15.927,7.759 16.008,7.903 16.072 L 8.164 16.187 8.090 16.365 C 7.786 17.094,7.448 17.611,6.909 18.170 C 6.222 18.883,5.524 19.353,4.574 19.745 C 3.890 20.027,3.782 20.041,3.694 19.861 C 3.602 19.673,3.552 18.920,3.595 18.369 C 3.627 17.962,3.653 17.862,3.819 17.529 C 4.190 16.783,4.800 16.236,5.623 15.911 C 5.970 15.774,6.780 15.766,7.356 15.893 M9.519 18.080 C 9.598 18.460,9.586 19.255,9.496 19.604 C 9.367 20.104,9.122 20.515,8.706 20.933 C 8.284 21.357,7.987 21.543,7.445 21.724 C 7.102 21.839,7.028 21.847,6.465 21.830 C 5.926 21.814,5.817 21.796,5.510 21.674 C 5.319 21.599,5.164 21.516,5.164 21.490 C 5.165 21.464,5.420 21.314,5.731 21.156 C 7.225 20.395,8.452 19.318,9.192 18.119 C 9.305 17.936,9.414 17.795,9.433 17.807 C 9.452 17.819,9.491 17.942,9.519 18.080 " fill="#1A1C1F" stroke="none" fill-rule="evenodd"></path></svg>