<svg width="32" height="32" viewBox="0 0 32 32" fill="none" xmlns="http://www.w3.org/2000/svg"><path d="M9.280 2.087 C 8.569 2.140,8.062 2.286,7.360 2.640 C 5.417 3.618,4.286 5.323,4.041 7.640 C 3.872 9.235,4.431 10.764,5.691 12.151 L 6.076 12.575 6.031 13.228 C 5.985 13.891,6.034 15.130,6.130 15.695 C 6.158 15.865,6.169 16.037,6.153 16.078 C 6.138 16.119,5.905 16.240,5.636 16.347 C 3.875 17.048,2.730 18.295,2.210 20.080 C 1.965 20.924,1.981 22.286,2.247 23.107 C 2.802 24.818,4.138 26.156,5.871 26.735 C 6.420 26.918,7.198 27.010,7.861 26.969 C 8.525 26.928,8.929 26.833,9.635 26.552 C 9.936 26.432,10.215 26.346,10.254 26.361 C 10.293 26.376,10.498 26.592,10.710 26.841 L 11.094 27.294 11.031 27.696 C 10.977 28.047,10.981 28.145,11.065 28.453 C 11.220 29.028,11.626 29.510,12.213 29.817 C 12.417 29.923,12.533 29.942,12.987 29.944 C 13.467 29.946,13.551 29.931,13.829 29.795 C 14.223 29.602,14.614 29.211,14.805 28.821 C 14.935 28.555,14.954 28.454,14.956 28.005 C 14.959 27.542,14.944 27.464,14.804 27.186 C 14.718 27.016,14.520 26.757,14.364 26.609 C 13.982 26.248,13.629 26.094,13.077 26.048 L 12.634 26.011 12.237 25.543 C 12.019 25.286,11.840 25.045,11.840 25.009 C 11.840 24.973,11.947 24.760,12.078 24.538 C 12.996 22.971,13.213 21.561,12.773 20.024 C 12.347 18.540,11.363 17.337,10.027 16.667 C 9.506 16.407,8.960 16.203,8.524 16.105 L 8.220 16.038 8.155 15.659 C 8.054 15.079,8.068 12.783,8.176 12.217 C 8.223 11.970,8.245 11.739,8.224 11.703 C 8.203 11.667,7.995 11.482,7.760 11.292 C 6.414 10.199,5.935 9.160,6.086 7.661 C 6.192 6.604,6.557 5.868,7.348 5.111 C 7.822 4.659,8.117 4.468,8.631 4.281 C 9.083 4.117,9.919 3.990,10.293 4.029 C 11.440 4.147,12.097 4.474,13.044 5.396 L 13.369 5.712 13.978 5.528 C 15.366 5.109,16.612 4.954,17.773 5.058 C 18.580 5.131,18.883 5.194,19.905 5.501 L 20.637 5.721 21.073 5.310 C 22.129 4.317,22.911 4.010,24.236 4.068 C 24.949 4.099,25.265 4.185,25.863 4.513 C 26.587 4.909,27.150 5.480,27.515 6.187 C 28.124 7.368,28.116 8.785,27.492 9.893 C 27.145 10.511,26.484 11.208,25.911 11.563 C 25.726 11.677,25.718 11.693,25.767 11.855 C 25.848 12.126,25.934 14.090,25.898 14.853 C 25.862 15.637,25.789 16.032,25.548 16.752 C 24.895 18.709,23.576 20.421,21.843 21.560 C 21.215 21.972,20.556 22.286,19.750 22.555 C 18.774 22.880,18.369 22.935,16.672 22.972 L 15.183 23.003 14.981 23.205 C 14.740 23.446,14.640 23.741,14.688 24.063 C 14.787 24.722,15.195 24.919,16.607 24.993 C 18.108 25.070,20.025 24.685,21.539 24.001 C 22.734 23.462,23.763 22.744,24.752 21.762 C 26.195 20.327,27.165 18.595,27.680 16.533 C 27.927 15.542,27.963 15.203,27.971 13.805 L 27.977 12.491 28.309 12.137 C 29.571 10.788,30.080 9.303,29.929 7.407 C 29.870 6.655,29.745 6.191,29.399 5.431 C 29.006 4.567,28.251 3.689,27.398 3.103 C 26.884 2.750,26.006 2.333,25.538 2.220 C 24.537 1.979,23.072 2.003,22.213 2.277 C 21.826 2.400,21.063 2.788,20.547 3.124 L 20.099 3.416 19.423 3.285 C 17.746 2.960,16.162 2.959,14.573 3.283 L 13.886 3.424 13.445 3.124 C 12.620 2.561,11.847 2.236,11.105 2.138 C 10.560 2.065,9.838 2.045,9.280 2.087 M12.441 10.558 C 12.237 10.607,12.081 10.705,11.875 10.912 C 11.629 11.159,11.551 11.355,11.549 11.733 C 11.541 12.882,12.795 13.406,13.608 12.594 C 14.100 12.102,14.093 11.381,13.590 10.878 C 13.495 10.783,13.344 10.675,13.255 10.639 C 13.029 10.547,12.645 10.509,12.441 10.558 M21.145 10.690 C 20.868 10.856,20.603 11.228,20.528 11.555 C 20.477 11.779,20.485 11.853,20.583 12.114 C 21.006 13.235,22.469 13.273,22.880 12.174 C 23.022 11.795,23.014 11.543,22.852 11.217 C 22.634 10.780,22.244 10.560,21.690 10.561 C 21.437 10.561,21.310 10.591,21.145 10.690 M15.468 15.158 C 15.161 15.315,14.955 15.682,15.010 15.975 C 15.085 16.375,15.520 16.692,15.994 16.693 L 16.174 16.693 16.149 17.123 C 16.119 17.635,16.046 17.736,15.627 17.845 C 15.285 17.933,15.103 17.872,14.729 17.541 C 14.370 17.223,14.197 17.152,13.893 17.197 C 13.706 17.225,13.585 17.287,13.430 17.431 C 13.046 17.789,13.102 18.293,13.580 18.793 C 14.073 19.307,14.687 19.574,15.379 19.573 C 15.806 19.573,15.994 19.531,16.622 19.295 L 17.056 19.132 17.288 19.242 C 18.314 19.730,19.297 19.667,20.099 19.064 C 20.444 18.805,20.779 18.361,20.832 18.096 C 20.878 17.862,20.687 17.478,20.452 17.332 C 20.066 17.094,19.751 17.146,19.307 17.520 C 19.002 17.777,18.649 17.938,18.492 17.890 C 18.427 17.871,18.259 17.806,18.120 17.747 L 17.867 17.640 17.867 17.174 L 17.867 16.707 18.132 16.681 C 18.992 16.599,19.272 15.684,18.593 15.177 C 18.455 15.073,18.363 15.066,17.076 15.051 C 15.738 15.036,15.701 15.038,15.468 15.158 M8.406 18.163 C 8.586 18.203,8.868 18.295,9.034 18.368 L 9.334 18.501 9.198 18.811 C 8.535 20.311,7.318 21.575,5.840 22.294 C 5.298 22.558,4.381 22.891,4.313 22.849 C 4.144 22.745,4.044 21.829,4.109 20.993 C 4.145 20.528,4.175 20.414,4.365 20.033 C 4.788 19.181,5.485 18.555,6.427 18.184 C 6.828 18.025,7.743 18.016,8.406 18.163 M10.876 20.643 C 10.960 21.037,10.948 22.056,10.854 22.415 C 10.575 23.487,9.644 24.449,8.524 24.823 C 8.180 24.938,8.017 24.960,7.507 24.960 C 6.910 24.960,6.617 24.907,6.120 24.708 C 6.010 24.664,5.920 24.597,5.920 24.559 C 5.920 24.520,6.190 24.351,6.520 24.182 C 7.298 23.784,7.705 23.535,8.293 23.092 C 9.160 22.440,9.986 21.550,10.505 20.708 C 10.635 20.498,10.758 20.337,10.779 20.350 C 10.801 20.364,10.844 20.495,10.876 20.643 " fill="#1A1C1F" stroke="none" fill-rule="evenodd"></path></svg>