<svg width="20" height="20" viewBox="0 0 20 20" fill="none" xmlns="http://www.w3.org/2000/svg"><path d="M5.471 2.069 C 5.121 2.109,4.686 2.253,4.265 2.469 C 2.823 3.210,1.919 4.751,2.010 6.313 C 2.057 7.122,2.365 7.966,2.849 8.615 L 3.071 8.912 3.036 9.241 C 2.990 9.658,2.990 10.338,3.035 10.695 L 3.069 10.971 2.906 11.161 C 2.553 11.571,2.335 11.961,2.174 12.467 C 1.783 13.699,2.105 15.025,3.020 15.945 C 3.341 16.269,3.601 16.455,4.002 16.648 C 5.127 17.191,6.394 17.085,7.517 16.352 L 7.802 16.167 7.976 16.254 C 8.314 16.425,8.958 16.799,8.999 16.849 C 9.022 16.877,9.085 16.992,9.138 17.105 C 9.260 17.362,9.615 17.720,9.873 17.846 C 10.439 18.123,11.117 17.992,11.558 17.520 C 11.781 17.282,11.872 17.116,11.953 16.800 C 12.123 16.132,11.727 15.403,11.041 15.128 C 10.874 15.060,10.791 15.050,10.383 15.049 L 9.917 15.047 9.467 14.793 C 9.219 14.653,8.989 14.502,8.954 14.456 C 8.898 14.381,8.895 14.353,8.931 14.162 C 8.953 14.045,8.979 13.736,8.990 13.475 L 9.010 13.000 9.092 13.000 C 9.188 13.000,9.500 12.924,9.790 12.830 L 9.996 12.762 10.323 12.871 C 10.596 12.961,10.702 12.979,10.967 12.981 C 11.257 12.983,11.302 12.974,11.512 12.875 C 11.908 12.687,12.143 12.449,12.235 12.141 C 12.269 12.028,12.269 11.972,12.236 11.858 C 12.180 11.666,12.044 11.474,11.892 11.374 C 11.770 11.293,11.751 11.291,11.370 11.308 C 10.859 11.332,10.836 11.321,10.764 11.016 C 10.686 10.687,10.654 10.620,10.498 10.469 C 10.213 10.192,9.774 10.198,9.481 10.482 C 9.361 10.598,9.332 10.657,9.266 10.909 C 9.224 11.070,9.172 11.225,9.151 11.254 C 9.120 11.296,9.051 11.307,8.814 11.304 C 8.296 11.298,8.243 11.282,8.007 11.062 C 7.532 10.619,6.904 10.267,6.311 10.112 C 6.032 10.038,5.910 10.025,5.492 10.024 L 5.000 10.022 5.001 9.903 C 5.002 9.726,5.088 9.144,5.189 8.638 L 5.278 8.192 5.080 8.024 C 4.332 7.384,4.085 6.960,4.043 6.249 C 4.004 5.570,4.173 5.123,4.648 4.649 C 5.014 4.284,5.355 4.110,5.861 4.032 C 6.271 3.968,6.798 4.101,7.245 4.379 C 7.514 4.547,7.941 4.971,8.081 5.210 L 8.170 5.362 8.310 5.312 C 9.260 4.973,10.290 4.945,11.406 5.230 L 11.897 5.355 12.020 5.176 C 12.278 4.802,12.904 4.291,13.301 4.131 C 13.529 4.039,14.069 4.006,14.375 4.065 C 14.728 4.132,15.105 4.338,15.380 4.611 C 15.781 5.010,15.979 5.478,15.975 6.017 C 15.972 6.603,15.738 7.080,15.232 7.537 C 15.081 7.672,14.891 7.844,14.810 7.918 L 14.661 8.052 14.780 8.551 C 14.935 9.205,14.980 9.633,14.956 10.237 C 14.924 11.042,14.774 11.610,14.413 12.296 C 14.202 12.697,14.004 12.983,13.709 13.314 C 13.109 13.987,13.033 14.120,13.033 14.506 C 13.033 15.038,13.473 15.443,14.049 15.440 C 14.326 15.438,14.512 15.342,14.844 15.032 C 16.074 13.884,16.875 12.159,16.968 10.458 C 16.996 9.941,16.966 9.033,16.915 8.848 C 16.900 8.797,16.965 8.687,17.164 8.422 C 17.483 7.999,17.732 7.505,17.849 7.067 C 18.350 5.188,17.494 3.302,15.742 2.421 C 14.397 1.744,12.584 1.969,11.407 2.959 L 11.231 3.107 10.774 3.069 C 10.522 3.048,10.264 3.024,10.200 3.016 C 10.136 3.008,9.819 3.018,9.496 3.038 L 8.909 3.075 8.663 2.891 C 8.184 2.535,7.637 2.266,7.118 2.134 C 6.822 2.058,5.893 2.022,5.471 2.069 M7.207 7.562 C 6.616 7.770,6.347 8.397,6.618 8.933 C 6.933 9.554,7.773 9.665,8.231 9.145 C 8.683 8.631,8.524 7.901,7.900 7.621 C 7.639 7.504,7.424 7.486,7.207 7.562 M12.207 7.562 C 11.616 7.770,11.347 8.397,11.618 8.933 C 11.933 9.554,12.773 9.665,13.231 9.145 C 13.683 8.631,13.524 7.901,12.900 7.621 C 12.639 7.504,12.424 7.486,12.207 7.562 M5.776 12.049 C 6.245 12.148,6.638 12.459,6.843 12.891 C 6.944 13.104,6.950 13.138,6.950 13.502 C 6.950 13.879,6.948 13.891,6.825 14.140 C 6.512 14.774,5.806 15.121,5.171 14.952 C 4.723 14.832,4.354 14.526,4.157 14.110 C 4.056 13.896,4.050 13.862,4.050 13.500 C 4.050 13.141,4.056 13.103,4.153 12.900 C 4.301 12.588,4.554 12.327,4.845 12.183 C 5.210 12.003,5.418 11.973,5.776 12.049 " fill="#1A1C1F" stroke="none" fill-rule="evenodd"></path></svg>