<svg width="14" height="14" viewBox="0 0 14 14" fill="none" xmlns="http://www.w3.org/2000/svg"><path d="M3.768 1.456 C 3.160 1.576,2.627 1.870,2.193 2.324 C 1.881 2.650,1.696 2.959,1.552 3.391 C 1.254 4.285,1.413 5.228,1.996 6.032 C 2.131 6.217,2.147 6.251,2.137 6.323 C 2.105 6.541,2.095 7.237,2.121 7.451 L 2.148 7.681 2.034 7.813 C 1.498 8.436,1.283 9.269,1.471 10.002 C 1.666 10.764,2.116 11.324,2.801 11.654 C 3.589 12.034,4.476 11.959,5.262 11.447 L 5.462 11.317 5.583 11.378 C 5.808 11.492,6.270 11.759,6.296 11.791 C 6.311 11.808,6.360 11.896,6.405 11.987 C 6.500 12.176,6.717 12.397,6.892 12.482 C 7.316 12.687,7.739 12.615,8.070 12.280 C 8.330 12.016,8.437 11.708,8.379 11.393 C 8.315 11.046,8.112 10.778,7.795 10.621 L 7.621 10.535 7.281 10.534 L 6.942 10.532 6.627 10.355 C 6.453 10.257,6.292 10.151,6.268 10.119 C 6.228 10.067,6.227 10.047,6.251 9.913 C 6.266 9.832,6.285 9.615,6.293 9.433 L 6.307 9.100 6.364 9.100 C 6.432 9.100,6.650 9.047,6.852 8.981 L 6.996 8.934 7.237 9.011 C 7.532 9.105,7.800 9.116,7.995 9.044 C 8.262 8.945,8.505 8.713,8.564 8.501 C 8.618 8.311,8.492 8.051,8.299 7.953 C 8.213 7.909,8.176 7.905,7.943 7.916 C 7.631 7.932,7.582 7.915,7.553 7.781 C 7.470 7.390,7.341 7.232,7.076 7.197 C 6.902 7.174,6.758 7.220,6.638 7.337 C 6.555 7.417,6.532 7.461,6.488 7.628 C 6.428 7.854,6.403 7.902,6.336 7.920 C 6.310 7.927,6.168 7.921,6.020 7.908 L 5.752 7.883 5.624 7.761 C 5.285 7.438,4.827 7.175,4.445 7.084 C 4.224 7.032,3.857 7.000,3.661 7.017 L 3.500 7.030 3.501 6.939 C 3.502 6.794,3.540 6.526,3.620 6.117 L 3.693 5.735 3.544 5.605 C 3.024 5.152,2.860 4.872,2.831 4.387 C 2.802 3.905,2.920 3.587,3.254 3.254 C 3.578 2.930,3.880 2.811,4.328 2.829 C 4.546 2.838,4.614 2.851,4.772 2.913 C 5.096 3.040,5.363 3.252,5.604 3.576 C 5.668 3.662,5.730 3.733,5.740 3.733 C 5.751 3.733,5.887 3.697,6.042 3.652 C 6.421 3.543,6.675 3.515,7.117 3.532 C 7.491 3.546,7.658 3.572,8.071 3.679 L 8.314 3.742 8.396 3.639 C 8.526 3.475,8.881 3.137,9.026 3.041 C 9.239 2.900,9.424 2.842,9.707 2.830 C 10.146 2.810,10.469 2.932,10.771 3.231 C 11.046 3.503,11.177 3.819,11.177 4.212 C 11.177 4.708,11.012 4.986,10.410 5.507 L 10.261 5.635 10.345 5.985 C 10.456 6.446,10.486 6.743,10.468 7.163 C 10.443 7.720,10.367 8.030,10.138 8.505 C 9.980 8.831,9.828 9.060,9.598 9.318 C 9.176 9.791,9.123 9.884,9.123 10.154 C 9.123 10.527,9.431 10.809,9.836 10.809 C 10.050 10.809,10.162 10.745,10.441 10.465 C 11.207 9.695,11.653 8.833,11.842 7.758 C 11.889 7.492,11.897 6.555,11.855 6.307 L 11.826 6.139 11.952 5.980 C 12.338 5.493,12.515 5.068,12.579 4.468 C 12.640 3.893,12.497 3.264,12.188 2.755 C 11.773 2.071,11.057 1.585,10.276 1.457 C 9.943 1.402,9.447 1.422,9.142 1.501 C 8.706 1.615,8.298 1.812,8.011 2.049 L 7.859 2.175 7.540 2.148 C 7.365 2.133,7.185 2.117,7.140 2.111 C 7.095 2.106,6.874 2.113,6.649 2.127 L 6.240 2.152 6.055 2.019 C 5.667 1.741,5.275 1.553,4.935 1.481 C 4.679 1.428,3.989 1.413,3.768 1.456 M4.977 5.318 C 4.840 5.382,4.680 5.536,4.618 5.665 C 4.463 5.987,4.635 6.436,4.970 6.587 C 5.114 6.652,5.363 6.652,5.507 6.587 C 5.736 6.483,5.915 6.251,5.942 6.025 C 5.972 5.773,5.804 5.471,5.565 5.346 C 5.407 5.263,5.123 5.250,4.977 5.318 M8.477 5.318 C 8.340 5.382,8.180 5.536,8.118 5.665 C 7.963 5.987,8.135 6.436,8.470 6.587 C 8.614 6.652,8.863 6.652,9.007 6.587 C 9.236 6.483,9.415 6.251,9.442 6.025 C 9.472 5.773,9.304 5.471,9.065 5.346 C 8.907 5.263,8.623 5.250,8.477 5.318 M4.176 8.464 C 4.430 8.549,4.657 8.757,4.790 9.027 C 4.861 9.173,4.865 9.193,4.865 9.451 C 4.865 9.716,4.863 9.724,4.777 9.898 C 4.633 10.189,4.395 10.380,4.073 10.464 C 3.839 10.524,3.637 10.500,3.389 10.381 C 3.223 10.301,3.000 10.067,2.910 9.878 C 2.839 9.727,2.835 9.704,2.835 9.449 C 2.835 9.184,2.837 9.176,2.923 9.002 C 3.156 8.529,3.690 8.300,4.176 8.464 " fill="#1A1C1F" stroke="none" fill-rule="evenodd"></path></svg>