<svg width="12" height="12" viewBox="0 0 12 12" fill="none" xmlns="http://www.w3.org/2000/svg"><path d="M3.284 1.241 C 2.990 1.278,2.542 1.460,2.247 1.664 C 2.058 1.794,1.725 2.138,1.600 2.333 C 1.038 3.211,1.081 4.301,1.711 5.170 C 1.820 5.321,1.840 5.360,1.831 5.410 C 1.805 5.562,1.796 6.221,1.818 6.395 L 1.841 6.579 1.712 6.733 C 1.323 7.197,1.140 7.824,1.227 8.390 C 1.365 9.284,2.007 9.968,2.880 10.153 C 3.113 10.202,3.515 10.202,3.728 10.153 C 4.016 10.086,4.235 9.990,4.516 9.808 L 4.681 9.700 4.786 9.753 C 4.988 9.855,5.375 10.080,5.400 10.109 C 5.413 10.126,5.451 10.195,5.483 10.263 C 5.556 10.417,5.769 10.632,5.924 10.708 C 6.146 10.817,6.437 10.819,6.666 10.714 C 6.890 10.612,7.104 10.349,7.172 10.093 C 7.280 9.689,7.039 9.243,6.624 9.076 C 6.525 9.036,6.474 9.030,6.230 9.029 L 5.950 9.028 5.653 8.859 L 5.356 8.690 5.368 8.520 C 5.374 8.427,5.385 8.226,5.393 8.075 L 5.406 7.800 5.455 7.800 C 5.513 7.800,5.700 7.754,5.874 7.698 L 5.998 7.658 6.162 7.709 C 6.426 7.793,6.578 7.812,6.725 7.782 C 6.961 7.734,7.222 7.549,7.311 7.367 C 7.396 7.194,7.318 6.950,7.140 6.835 C 7.051 6.777,7.048 6.776,6.817 6.786 C 6.514 6.799,6.506 6.795,6.451 6.590 C 6.427 6.502,6.393 6.402,6.375 6.367 C 6.248 6.128,5.892 6.087,5.691 6.288 C 5.618 6.361,5.599 6.398,5.560 6.547 C 5.496 6.789,5.497 6.788,5.308 6.784 C 4.974 6.776,4.945 6.768,4.796 6.630 C 4.626 6.473,4.410 6.323,4.208 6.223 C 3.898 6.069,3.664 6.017,3.275 6.015 L 3.000 6.014 3.001 5.942 C 3.002 5.823,3.036 5.589,3.102 5.243 L 3.166 4.916 3.038 4.804 C 2.742 4.546,2.567 4.325,2.482 4.100 C 2.439 3.984,2.433 3.938,2.432 3.670 C 2.431 3.410,2.437 3.355,2.474 3.255 C 2.579 2.973,2.846 2.680,3.123 2.541 C 3.327 2.439,3.460 2.413,3.720 2.425 C 3.953 2.436,4.113 2.483,4.314 2.602 C 4.462 2.690,4.697 2.912,4.811 3.073 C 4.861 3.143,4.910 3.200,4.919 3.200 C 4.929 3.200,5.046 3.169,5.180 3.130 C 5.706 2.979,6.228 2.981,6.845 3.138 L 7.139 3.213 7.193 3.132 C 7.272 3.011,7.492 2.790,7.640 2.681 C 7.902 2.488,8.088 2.421,8.364 2.420 C 8.592 2.420,8.715 2.447,8.910 2.540 C 9.186 2.672,9.421 2.929,9.524 3.212 C 9.583 3.374,9.597 3.704,9.552 3.880 C 9.476 4.174,9.333 4.365,8.923 4.720 L 8.796 4.830 8.867 5.130 C 8.961 5.520,8.988 5.780,8.973 6.130 C 8.953 6.612,8.886 6.884,8.690 7.290 C 8.555 7.568,8.423 7.768,8.224 7.993 C 7.862 8.403,7.818 8.475,7.814 8.660 C 7.809 8.894,7.942 9.109,8.155 9.213 C 8.315 9.292,8.507 9.292,8.650 9.214 C 8.787 9.139,9.009 8.934,9.203 8.703 C 9.653 8.168,9.952 7.556,10.109 6.851 C 10.196 6.460,10.218 5.795,10.157 5.396 L 10.137 5.262 10.245 5.126 C 10.399 4.931,10.464 4.831,10.555 4.650 C 10.907 3.943,10.869 3.074,10.455 2.368 C 10.376 2.234,10.291 2.130,10.110 1.948 C 9.743 1.579,9.447 1.402,9.001 1.286 C 8.744 1.219,8.277 1.200,8.007 1.247 C 7.579 1.322,7.153 1.515,6.844 1.776 L 6.738 1.865 6.474 1.842 C 6.329 1.829,6.176 1.814,6.133 1.809 C 6.091 1.803,5.897 1.809,5.702 1.822 L 5.347 1.845 5.198 1.736 C 4.921 1.531,4.569 1.358,4.267 1.278 C 4.086 1.230,3.537 1.209,3.284 1.241 M4.359 4.528 C 4.240 4.559,4.141 4.621,4.050 4.723 C 3.943 4.841,3.912 4.925,3.913 5.100 C 3.914 5.283,3.947 5.366,4.070 5.497 C 4.376 5.825,4.900 5.711,5.061 5.283 C 5.165 5.008,5.026 4.700,4.740 4.573 C 4.602 4.512,4.476 4.497,4.359 4.528 M7.359 4.528 C 7.240 4.559,7.141 4.621,7.050 4.723 C 6.943 4.841,6.912 4.925,6.913 5.100 C 6.914 5.283,6.947 5.366,7.070 5.497 C 7.376 5.825,7.900 5.711,8.061 5.283 C 8.165 5.008,8.026 4.700,7.740 4.573 C 7.602 4.512,7.476 4.497,7.359 4.528 M3.465 7.229 C 3.935 7.329,4.237 7.757,4.177 8.237 C 4.136 8.567,3.823 8.899,3.478 8.979 C 3.102 9.065,2.689 8.855,2.505 8.484 C 2.431 8.335,2.430 8.328,2.430 8.100 C 2.430 7.873,2.431 7.865,2.504 7.718 C 2.595 7.533,2.747 7.383,2.927 7.298 C 3.135 7.201,3.258 7.185,3.465 7.229 " fill="#1A1C1F" stroke="none" fill-rule="evenodd"></path></svg>