<svg width="12" height="12" viewBox="0 0 12 12" fill="none" xmlns="http://www.w3.org/2000/svg"><path d="M9.010 3.314 C 8.421 3.389,7.950 3.679,7.627 4.164 C 7.427 4.465,7.266 4.956,7.220 5.403 C 7.185 5.742,7.204 6.700,7.250 6.900 C 7.344 7.315,7.511 7.706,7.702 7.960 C 8.216 8.641,9.032 8.852,10.105 8.580 C 10.411 8.503,10.536 8.443,10.649 8.317 C 10.859 8.083,10.843 7.772,10.609 7.521 C 10.419 7.318,10.285 7.299,9.836 7.412 C 9.586 7.476,9.517 7.485,9.290 7.487 C 9.044 7.490,9.024 7.487,8.918 7.435 C 8.780 7.367,8.634 7.215,8.568 7.071 C 8.336 6.564,8.336 5.476,8.568 4.987 C 8.647 4.821,8.806 4.639,8.930 4.573 C 8.999 4.537,9.051 4.530,9.300 4.524 L 9.590 4.517 9.850 4.600 C 10.226 4.720,10.355 4.711,10.552 4.549 C 10.681 4.444,10.760 4.270,10.760 4.094 C 10.760 4.017,10.749 3.918,10.736 3.872 C 10.679 3.681,10.395 3.501,9.992 3.400 C 9.666 3.318,9.256 3.282,9.010 3.314 M1.636 3.368 C 1.378 3.437,1.172 3.716,1.209 3.947 C 1.233 4.102,1.361 4.628,1.672 5.850 C 2.178 7.836,2.298 8.283,2.351 8.373 C 2.472 8.580,2.691 8.694,2.930 8.675 C 3.086 8.663,3.186 8.615,3.300 8.501 C 3.406 8.394,3.415 8.370,3.791 7.060 C 3.919 6.615,4.032 6.236,4.041 6.220 C 4.062 6.182,4.027 6.071,4.359 7.223 C 4.513 7.759,4.658 8.248,4.682 8.310 C 4.767 8.537,4.982 8.680,5.238 8.680 C 5.520 8.680,5.711 8.531,5.801 8.242 C 5.911 7.890,6.687 4.923,6.851 4.230 C 6.929 3.896,6.929 3.816,6.850 3.661 C 6.791 3.546,6.695 3.454,6.580 3.402 C 6.450 3.343,6.148 3.343,6.026 3.402 C 5.903 3.461,5.806 3.585,5.759 3.740 C 5.737 3.811,5.630 4.275,5.521 4.770 C 5.264 5.941,5.236 6.060,5.219 6.060 C 5.202 6.060,5.196 6.036,4.908 4.842 C 4.616 3.628,4.619 3.638,4.510 3.529 C 4.368 3.387,4.280 3.351,4.070 3.351 C 3.876 3.351,3.796 3.379,3.662 3.491 C 3.536 3.597,3.513 3.668,3.210 4.880 C 3.049 5.524,2.910 6.058,2.901 6.067 C 2.891 6.077,2.873 6.032,2.860 5.967 C 2.787 5.604,2.391 3.857,2.359 3.753 C 2.306 3.584,2.256 3.509,2.148 3.441 C 1.997 3.345,1.816 3.319,1.636 3.368 " fill="#1A1C1F" stroke="none" fill-rule="evenodd"></path></svg>