<svg width="24" height="24" viewBox="0 0 24 24" fill="none" xmlns="http://www.w3.org/2000/svg"><path d="M18.220 6.324 C 17.314 6.420,16.436 6.842,15.778 7.499 C 14.896 8.380,14.440 9.542,14.317 11.223 C 14.262 11.972,14.290 13.105,14.377 13.620 C 14.557 14.685,14.959 15.650,15.478 16.260 C 16.461 17.414,17.869 17.876,19.798 17.678 C 20.589 17.597,21.450 17.310,21.725 17.035 C 22.022 16.738,22.066 16.288,21.835 15.885 C 21.562 15.407,21.173 15.333,20.258 15.586 C 19.702 15.739,19.698 15.740,18.960 15.738 C 17.932 15.736,17.713 15.665,17.186 15.163 C 16.548 14.556,16.312 13.720,16.308 12.060 C 16.305 11.148,16.344 10.742,16.486 10.180 C 16.692 9.367,17.190 8.687,17.780 8.416 C 18.350 8.154,19.362 8.188,20.360 8.503 C 20.938 8.685,21.160 8.695,21.406 8.551 C 22.028 8.186,22.093 7.287,21.522 6.922 C 21.109 6.657,20.247 6.394,19.558 6.321 C 19.122 6.275,18.676 6.276,18.220 6.324 M2.573 6.420 C 2.322 6.546,2.100 6.782,2.045 6.979 C 2.019 7.073,2.018 7.207,2.042 7.356 C 2.106 7.753,2.744 10.271,3.761 14.140 C 4.572 17.225,4.593 17.289,4.865 17.514 C 5.158 17.755,5.556 17.765,5.943 17.540 C 6.285 17.341,6.287 17.335,7.159 14.000 C 7.671 12.041,8.084 10.507,8.105 10.483 C 8.113 10.474,8.128 10.475,8.138 10.485 C 8.149 10.495,8.456 11.664,8.820 13.082 C 9.886 17.223,9.883 17.212,10.052 17.393 C 10.211 17.564,10.518 17.692,10.766 17.693 C 11.054 17.693,11.401 17.534,11.514 17.348 C 11.682 17.071,11.903 16.281,13.000 12.040 C 14.244 7.233,14.257 7.172,14.107 6.891 C 13.775 6.264,12.862 6.120,12.489 6.634 C 12.404 6.752,12.322 6.983,12.187 7.488 C 12.050 8.001,10.934 12.560,10.771 13.270 C 10.754 13.344,10.680 13.403,10.680 13.343 C 10.680 13.312,9.562 8.922,9.294 7.900 C 9.150 7.350,9.008 6.855,8.980 6.800 C 8.844 6.540,8.503 6.362,8.136 6.361 C 7.707 6.359,7.408 6.520,7.278 6.824 C 7.179 7.055,6.960 7.853,6.260 10.540 C 5.599 13.071,5.519 13.360,5.479 13.360 C 5.442 13.360,5.437 13.340,4.760 10.460 C 4.075 7.543,3.904 6.869,3.809 6.706 C 3.769 6.637,3.649 6.527,3.542 6.461 C 3.383 6.363,3.296 6.339,3.064 6.328 C 2.821 6.317,2.750 6.330,2.573 6.420 " fill="#1A1C1F" stroke="none" fill-rule="evenodd"></path></svg>