<svg width="28" height="28" viewBox="0 0 28 28" fill="none" xmlns="http://www.w3.org/2000/svg"><path d="M2.362 7.162 C 2.122 7.248,1.876 7.493,1.819 7.704 C 1.750 7.960,1.845 8.421,2.518 11.083 C 3.783 16.083,4.905 20.295,5.015 20.451 C 5.258 20.799,5.920 20.845,6.249 20.538 C 6.429 20.369,6.556 19.967,7.910 15.260 C 8.519 13.143,9.034 11.379,9.055 11.340 C 9.105 11.249,9.019 10.965,9.942 14.257 C 11.536 19.948,11.651 20.324,11.857 20.530 C 11.985 20.658,12.240 20.766,12.413 20.766 C 12.569 20.766,12.838 20.663,12.968 20.554 C 13.181 20.375,13.283 20.033,14.438 15.633 C 15.230 12.614,16.067 9.349,16.243 8.587 C 16.461 7.641,16.417 7.474,15.877 7.210 C 15.631 7.089,15.596 7.084,15.401 7.136 C 15.285 7.166,15.113 7.242,15.020 7.303 C 14.775 7.464,14.853 7.202,13.304 13.049 C 12.841 14.797,12.443 16.277,12.420 16.339 C 12.368 16.479,12.433 16.698,11.153 12.133 C 10.226 8.827,9.932 7.826,9.798 7.523 C 9.681 7.256,9.396 7.121,9.009 7.149 C 8.694 7.172,8.485 7.301,8.358 7.552 C 8.265 7.738,7.976 8.708,6.649 13.298 C 6.171 14.953,5.762 16.339,5.740 16.378 C 5.687 16.473,5.757 16.725,4.951 13.557 C 4.285 10.939,3.600 8.314,3.432 7.738 C 3.343 7.432,3.140 7.221,2.860 7.143 C 2.636 7.081,2.584 7.083,2.362 7.162 M22.035 7.145 C 20.248 7.353,18.842 8.293,18.093 9.780 C 17.742 10.478,17.434 11.573,17.307 12.577 C 17.220 13.260,17.234 15.013,17.331 15.703 C 17.540 17.178,17.995 18.377,18.629 19.121 C 19.471 20.111,20.495 20.651,21.887 20.839 C 22.955 20.983,23.981 20.871,25.189 20.477 C 25.666 20.321,25.799 20.256,25.983 20.090 C 26.202 19.891,26.203 19.889,26.202 19.593 C 26.200 19.243,26.076 18.982,25.830 18.813 C 25.563 18.630,25.395 18.638,24.477 18.878 L 23.637 19.098 22.773 19.104 C 22.077 19.109,21.851 19.094,21.607 19.027 C 20.319 18.675,19.514 17.691,19.182 16.062 C 18.970 15.025,18.961 13.362,19.160 12.180 C 19.437 10.534,20.208 9.450,21.404 9.028 C 21.695 8.925,21.797 8.915,22.546 8.914 C 23.450 8.913,23.934 8.977,24.500 9.170 C 25.399 9.477,25.556 9.475,25.870 9.153 C 26.206 8.809,26.242 8.318,25.954 8.011 C 25.600 7.632,24.454 7.265,23.247 7.142 C 22.706 7.087,22.528 7.088,22.035 7.145 " fill="#1A1C1F" stroke="none" fill-rule="evenodd"></path></svg>