<svg width="32" height="32" viewBox="0 0 32 32" fill="none" xmlns="http://www.w3.org/2000/svg"><path d="M17.478 8.186 C 17.366 8.228,17.206 8.312,17.122 8.372 C 16.893 8.535,16.917 8.457,15.521 13.733 C 14.458 17.749,14.181 18.736,14.129 18.684 C 14.106 18.660,13.724 17.344,13.281 15.760 C 12.011 11.224,11.260 8.647,11.165 8.501 C 10.853 8.025,9.881 8.062,9.593 8.560 C 9.463 8.786,9.190 9.688,7.787 14.533 C 7.107 16.880,6.541 18.810,6.529 18.822 C 6.517 18.834,6.507 18.828,6.507 18.807 C 6.507 18.760,4.550 11.135,4.260 10.053 C 3.999 9.077,3.861 8.619,3.786 8.480 C 3.640 8.207,2.985 8.070,2.597 8.232 C 2.365 8.329,2.093 8.649,2.051 8.876 C 1.993 9.182,2.112 9.691,3.554 15.307 C 5.356 22.328,5.615 23.260,5.819 23.464 C 6.137 23.782,6.805 23.786,7.143 23.470 C 7.347 23.279,7.493 22.815,9.039 17.440 C 9.735 15.020,10.325 13.004,10.349 12.960 C 10.406 12.856,10.307 12.531,11.362 16.293 C 12.917 21.844,13.206 22.831,13.398 23.239 C 13.574 23.614,14.010 23.799,14.442 23.683 C 14.817 23.582,14.960 23.414,15.140 22.865 C 15.425 21.995,16.801 16.793,18.170 11.413 C 18.853 8.733,18.855 8.593,18.221 8.276 C 17.906 8.119,17.717 8.096,17.478 8.186 M25.236 8.166 C 24.577 8.224,23.826 8.429,23.211 8.721 C 21.496 9.533,20.485 10.946,19.982 13.233 C 19.781 14.145,19.711 14.894,19.712 16.133 C 19.713 18.136,19.992 19.522,20.667 20.880 C 21.274 22.101,22.369 23.065,23.643 23.499 C 25.243 24.044,26.976 24.006,28.851 23.383 C 29.330 23.224,29.495 23.141,29.696 22.958 C 29.945 22.733,29.947 22.729,29.945 22.393 C 29.943 21.986,29.801 21.693,29.508 21.492 C 29.238 21.308,28.831 21.320,28.107 21.533 C 27.200 21.800,26.968 21.832,25.947 21.836 C 25.082 21.840,24.947 21.828,24.589 21.715 C 23.699 21.436,23.085 20.964,22.613 20.198 C 21.816 18.903,21.540 16.789,21.845 14.320 C 21.980 13.228,22.261 12.362,22.687 11.720 C 23.159 11.009,24.012 10.395,24.736 10.245 C 25.127 10.164,26.660 10.175,27.149 10.262 C 27.371 10.302,27.856 10.433,28.227 10.554 C 28.992 10.803,29.009 10.805,29.243 10.687 C 29.863 10.375,30.087 9.617,29.689 9.180 C 29.089 8.523,26.891 8.022,25.236 8.166 " fill="#1A1C1F" stroke="none" fill-rule="evenodd"></path></svg>