<svg width="20" height="20" viewBox="0 0 20 20" fill="none" xmlns="http://www.w3.org/2000/svg"><path d="M14.543 5.616 C 13.559 5.870,12.759 6.599,12.385 7.582 C 12.134 8.241,12.050 8.664,11.994 9.546 C 11.895 11.088,12.196 12.415,12.834 13.263 C 13.690 14.399,15.053 14.753,16.836 14.302 C 17.340 14.175,17.565 14.066,17.751 13.859 C 18.168 13.395,18.025 12.704,17.435 12.328 C 17.228 12.196,17.017 12.202,16.386 12.358 C 15.940 12.469,15.836 12.483,15.467 12.483 C 14.984 12.483,14.845 12.438,14.583 12.197 C 14.187 11.831,13.992 11.142,13.990 10.100 C 13.988 8.761,14.295 7.925,14.899 7.624 C 15.069 7.539,15.107 7.533,15.538 7.533 C 15.983 7.533,16.010 7.538,16.423 7.669 C 16.914 7.826,17.115 7.841,17.343 7.740 C 17.531 7.657,17.768 7.420,17.867 7.217 C 17.951 7.042,17.965 6.697,17.897 6.470 C 17.800 6.145,17.396 5.866,16.763 5.686 C 16.347 5.568,16.033 5.533,15.406 5.535 C 14.932 5.536,14.805 5.548,14.543 5.616 M2.772 5.602 C 2.332 5.691,1.961 6.164,2.014 6.567 C 2.045 6.801,2.344 8.021,2.983 10.517 C 3.903 14.108,3.872 14.012,4.140 14.229 C 4.516 14.535,5.011 14.548,5.391 14.263 C 5.662 14.059,5.655 14.078,6.300 11.833 C 6.524 11.054,6.720 10.394,6.735 10.367 C 6.769 10.303,6.722 10.155,7.184 11.767 C 7.397 12.509,7.638 13.324,7.721 13.576 C 7.890 14.094,7.973 14.217,8.247 14.359 C 8.393 14.435,8.459 14.447,8.717 14.449 C 8.969 14.450,9.040 14.438,9.167 14.371 C 9.504 14.194,9.574 14.077,9.781 13.344 C 10.148 12.042,11.411 7.146,11.501 6.679 C 11.534 6.507,11.532 6.445,11.487 6.290 C 11.416 6.047,11.257 5.842,11.033 5.708 C 10.862 5.605,10.836 5.600,10.520 5.600 C 10.127 5.600,9.968 5.659,9.782 5.877 C 9.629 6.056,9.591 6.190,9.266 7.667 C 8.859 9.524,8.724 10.100,8.698 10.100 C 8.670 10.100,8.659 10.059,8.180 8.070 C 7.971 7.201,7.770 6.390,7.734 6.268 C 7.652 5.992,7.494 5.801,7.250 5.682 C 7.099 5.608,7.022 5.593,6.791 5.592 C 6.381 5.590,6.098 5.737,5.918 6.045 C 5.864 6.138,5.678 6.822,5.350 8.133 C 5.082 9.205,4.856 10.089,4.849 10.096 C 4.820 10.125,4.762 9.903,4.550 8.944 C 3.903 6.019,3.884 5.952,3.620 5.761 C 3.418 5.615,3.048 5.545,2.772 5.602 " fill="#1A1C1F" stroke="none" fill-rule="evenodd"></path></svg>