<svg width="14" height="14" viewBox="0 0 14 14" fill="none" xmlns="http://www.w3.org/2000/svg"><path d="M10.477 3.872 C 9.621 3.983,8.943 4.540,8.644 5.377 C 8.361 6.167,8.301 7.181,8.482 8.087 C 8.689 9.120,9.221 9.773,10.071 10.041 C 10.629 10.217,11.453 10.165,12.112 9.914 C 12.420 9.796,12.587 9.572,12.587 9.275 C 12.587 9.015,12.452 8.787,12.205 8.629 C 12.058 8.536,11.896 8.540,11.473 8.648 C 11.180 8.723,11.107 8.733,10.838 8.735 C 10.487 8.737,10.393 8.708,10.208 8.538 C 9.931 8.282,9.795 7.800,9.793 7.070 C 9.792 6.496,9.864 6.094,10.025 5.765 C 10.125 5.561,10.255 5.423,10.429 5.336 C 10.548 5.277,10.575 5.273,10.877 5.273 C 11.188 5.273,11.207 5.276,11.496 5.368 C 11.846 5.480,11.987 5.490,12.142 5.415 C 12.592 5.197,12.712 4.583,12.363 4.284 C 12.176 4.124,11.806 3.977,11.416 3.909 C 11.165 3.865,10.680 3.846,10.477 3.872 M1.944 3.920 C 1.724 3.965,1.531 4.134,1.447 4.354 C 1.398 4.482,1.396 4.504,1.423 4.667 C 1.484 5.049,2.656 9.609,2.730 9.754 C 2.836 9.962,3.051 10.101,3.297 10.120 C 3.477 10.135,3.604 10.101,3.749 10.002 C 3.896 9.901,3.949 9.819,4.034 9.560 C 4.089 9.394,4.430 8.230,4.695 7.306 C 4.707 7.263,4.725 7.237,4.735 7.248 C 4.745 7.259,4.818 7.499,4.897 7.782 C 5.150 8.677,5.464 9.715,5.509 9.804 C 5.567 9.918,5.736 10.053,5.871 10.094 C 6.008 10.135,6.237 10.135,6.353 10.093 C 6.467 10.052,6.591 9.956,6.671 9.847 C 6.739 9.752,6.832 9.433,7.234 7.910 C 7.501 6.897,8.014 4.865,8.051 4.675 C 8.074 4.555,8.072 4.512,8.041 4.403 C 7.991 4.233,7.880 4.090,7.723 3.996 C 7.603 3.924,7.585 3.920,7.364 3.920 C 7.089 3.920,6.978 3.962,6.848 4.114 C 6.738 4.242,6.713 4.331,6.454 5.512 C 6.159 6.852,6.108 7.070,6.088 7.070 C 6.072 7.070,5.988 6.735,5.554 4.942 C 5.391 4.265,5.385 4.247,5.295 4.145 C 5.244 4.088,5.148 4.013,5.082 3.980 C 4.978 3.928,4.930 3.920,4.743 3.920 C 4.508 3.920,4.421 3.948,4.273 4.073 C 4.126 4.197,4.099 4.280,3.745 5.693 C 3.557 6.444,3.399 7.062,3.394 7.067 C 3.374 7.087,3.335 6.936,3.186 6.262 C 2.732 4.214,2.719 4.166,2.534 4.033 C 2.394 3.931,2.134 3.882,1.944 3.920 " fill="#1A1C1F" stroke="none" fill-rule="evenodd"></path></svg>