<svg width="16" height="16" viewBox="0 0 16 16" fill="none" xmlns="http://www.w3.org/2000/svg"><path d="M11.973 4.428 C 11.172 4.525,10.484 4.987,10.072 5.707 C 9.888 6.028,9.717 6.583,9.636 7.120 C 9.571 7.553,9.571 8.513,9.636 8.933 C 9.849 10.320,10.457 11.146,11.507 11.474 C 12.151 11.676,13.087 11.618,13.843 11.330 C 14.194 11.196,14.385 10.939,14.385 10.600 C 14.385 10.303,14.231 10.042,13.948 9.862 C 13.782 9.756,13.613 9.761,13.109 9.886 C 12.753 9.975,12.668 9.986,12.373 9.986 C 12.063 9.987,12.030 9.982,11.890 9.913 C 11.595 9.768,11.394 9.471,11.277 9.006 C 11.232 8.830,11.218 8.673,11.207 8.211 C 11.188 7.407,11.243 7.040,11.445 6.617 C 11.568 6.359,11.711 6.202,11.919 6.099 C 12.055 6.031,12.085 6.027,12.431 6.027 C 12.786 6.027,12.808 6.030,13.139 6.135 C 13.532 6.260,13.692 6.273,13.874 6.192 C 14.016 6.129,14.212 5.940,14.277 5.803 C 14.403 5.537,14.387 5.221,14.238 5.014 C 13.942 4.606,12.848 4.322,11.973 4.428 M2.222 4.481 C 1.971 4.531,1.750 4.724,1.654 4.976 C 1.598 5.123,1.596 5.147,1.626 5.333 C 1.669 5.600,2.498 8.893,2.938 10.547 C 3.012 10.825,3.094 11.096,3.120 11.147 C 3.147 11.199,3.228 11.297,3.301 11.366 C 3.619 11.663,4.155 11.633,4.438 11.302 C 4.539 11.184,4.597 11.007,5.055 9.413 C 5.226 8.819,5.376 8.315,5.388 8.293 C 5.416 8.243,5.374 8.113,5.772 9.499 C 6.285 11.288,6.280 11.276,6.524 11.437 C 6.690 11.547,6.829 11.582,7.040 11.567 C 7.311 11.548,7.547 11.406,7.653 11.199 C 7.713 11.084,7.801 10.780,8.077 9.747 C 8.611 7.740,9.148 5.628,9.202 5.321 C 9.242 5.091,9.191 4.911,9.035 4.734 C 8.866 4.542,8.712 4.481,8.402 4.480 C 8.201 4.480,8.127 4.491,8.035 4.536 C 7.875 4.613,7.742 4.779,7.681 4.977 C 7.653 5.069,7.496 5.753,7.333 6.498 C 6.986 8.084,6.987 8.080,6.959 8.080 C 6.939 8.080,6.861 7.768,6.348 5.648 C 6.160 4.873,6.154 4.854,6.051 4.737 C 5.991 4.669,5.877 4.583,5.792 4.541 C 5.661 4.477,5.609 4.467,5.413 4.468 C 5.231 4.469,5.164 4.481,5.072 4.529 C 4.920 4.609,4.762 4.754,4.711 4.861 C 4.689 4.908,4.494 5.652,4.278 6.513 C 4.063 7.375,3.877 8.080,3.866 8.080 C 3.855 8.080,3.840 8.053,3.833 8.020 C 3.756 7.666,3.430 6.208,3.303 5.653 C 3.101 4.768,3.039 4.644,2.745 4.524 C 2.624 4.475,2.361 4.453,2.222 4.481 " fill="#1A1C1F" stroke="none" fill-rule="evenodd"></path></svg>