<svg width="32" height="32" viewBox="0 0 32 32" fill="none" xmlns="http://www.w3.org/2000/svg"><path d="M13.733 2.208 C 11.262 2.655,9.104 3.628,7.200 5.154 C 6.618 5.620,5.566 6.672,5.101 7.253 C 3.480 9.277,2.456 11.693,2.107 14.321 C 2.015 15.009,2.002 16.654,2.082 17.448 C 2.399 20.589,3.961 23.797,6.247 26.003 C 8.470 28.148,11.204 29.473,14.240 29.877 C 14.910 29.966,17.163 29.966,17.787 29.877 C 19.818 29.587,21.634 28.940,23.280 27.922 C 26.914 25.675,29.279 22.031,29.875 17.760 C 29.919 17.444,29.945 16.730,29.945 15.867 C 29.944 14.347,29.878 13.792,29.539 12.485 C 29.080 10.718,28.100 8.759,26.960 7.333 C 25.047 4.940,22.314 3.175,19.413 2.459 C 18.136 2.144,17.963 2.125,16.133 2.103 C 14.522 2.083,14.388 2.089,13.733 2.208 M14.923 4.117 C 14.960 4.155,14.987 4.337,14.987 4.561 C 14.987 5.253,15.189 5.687,15.596 5.872 C 15.871 5.997,16.128 5.998,16.402 5.873 C 16.848 5.670,17.013 5.293,17.013 4.477 C 17.013 4.244,17.031 4.053,17.053 4.053 C 17.199 4.053,18.466 4.287,18.907 4.395 C 20.478 4.781,21.889 5.463,23.349 6.543 L 23.738 6.831 23.362 7.239 C 22.893 7.749,22.747 8.030,22.796 8.334 C 22.868 8.782,23.219 9.134,23.663 9.204 C 23.971 9.253,24.250 9.108,24.761 8.638 L 25.169 8.262 25.457 8.651 C 26.330 9.831,26.926 10.946,27.323 12.140 C 27.541 12.796,27.820 14.012,27.919 14.733 L 27.953 14.987 27.613 14.987 C 26.806 14.987,26.313 15.187,26.130 15.590 C 26.007 15.862,26.000 16.100,26.109 16.360 C 26.301 16.821,26.594 16.969,27.376 17.003 L 27.951 17.027 27.918 17.274 C 27.899 17.409,27.813 17.880,27.727 18.320 C 27.364 20.164,26.660 21.721,25.456 23.349 L 25.168 23.739 24.784 23.383 C 24.088 22.738,23.712 22.645,23.246 23.002 C 22.588 23.507,22.619 23.969,23.366 24.769 L 23.736 25.165 23.428 25.400 C 22.266 26.288,21.088 26.917,19.743 27.367 C 18.744 27.702,17.217 28.011,17.107 27.901 C 17.076 27.871,17.031 27.600,17.005 27.299 C 16.950 26.650,16.858 26.435,16.543 26.215 C 16.351 26.082,16.262 26.055,16.000 26.055 C 15.738 26.055,15.649 26.082,15.457 26.215 C 15.137 26.438,15.038 26.669,15.001 27.280 C 14.959 27.995,14.966 27.989,14.286 27.872 C 12.171 27.506,10.402 26.763,8.788 25.562 L 8.253 25.164 8.547 24.862 C 9.145 24.248,9.286 23.950,9.172 23.542 C 9.048 23.099,8.458 22.711,8.047 22.801 C 7.861 22.842,7.494 23.108,7.113 23.478 L 6.840 23.743 6.601 23.431 C 5.559 22.075,4.782 20.481,4.395 18.907 C 4.287 18.466,4.053 17.199,4.053 17.053 C 4.053 17.031,4.253 17.013,4.497 17.013 C 5.254 17.013,5.682 16.824,5.872 16.404 C 5.998 16.127,5.997 15.872,5.870 15.590 C 5.687 15.188,5.194 14.987,4.390 14.987 C 4.205 14.987,4.053 14.969,4.053 14.947 C 4.053 14.801,4.287 13.534,4.395 13.093 C 4.782 11.520,5.559 9.925,6.598 8.572 L 6.835 8.264 7.231 8.634 C 7.642 9.018,7.991 9.227,8.220 9.227 C 8.418 9.227,8.870 8.982,9.002 8.803 C 9.066 8.717,9.147 8.541,9.181 8.413 C 9.238 8.202,9.231 8.152,9.110 7.890 C 9.036 7.730,8.815 7.427,8.619 7.216 L 8.261 6.832 8.651 6.545 C 10.434 5.234,12.268 4.450,14.287 4.135 C 14.883 4.042,14.849 4.043,14.923 4.117 M19.707 8.028 C 19.389 8.185,15.727 11.120,15.189 11.648 C 14.860 11.971,14.790 12.152,14.843 12.543 C 14.901 12.977,15.471 13.438,15.860 13.365 C 16.110 13.318,16.661 12.948,17.680 12.142 C 18.466 11.521,18.667 11.392,18.667 11.511 C 18.667 11.535,18.583 12.129,18.480 12.830 C 18.262 14.322,18.255 14.501,18.406 14.813 C 18.573 15.157,18.854 15.325,19.274 15.329 C 19.564 15.333,19.635 15.313,19.810 15.179 C 20.175 14.901,20.237 14.667,20.643 12.027 C 20.983 9.815,21.091 8.921,21.047 8.683 C 20.996 8.414,20.827 8.221,20.511 8.074 C 20.201 7.929,19.937 7.914,19.707 8.028 M15.706 14.823 C 15.439 14.887,15.095 15.151,14.944 15.409 C 14.755 15.730,14.745 16.234,14.920 16.568 C 15.507 17.685,17.228 17.272,17.226 16.015 C 17.225 15.467,16.877 15.010,16.334 14.847 C 16.070 14.767,15.955 14.763,15.706 14.823 M12.347 16.738 C 12.099 16.856,11.924 17.031,11.844 17.242 C 11.723 17.561,10.933 22.681,10.933 23.145 C 10.933 23.910,11.776 24.357,12.417 23.932 C 12.906 23.609,15.594 21.451,16.564 20.602 C 16.887 20.320,17.058 20.126,17.132 19.959 C 17.481 19.170,16.577 18.370,15.791 18.771 C 15.679 18.828,15.148 19.221,14.612 19.644 C 14.076 20.067,13.568 20.454,13.484 20.504 L 13.331 20.594 13.360 20.390 C 13.376 20.278,13.463 19.707,13.553 19.120 C 13.643 18.533,13.721 17.884,13.725 17.676 C 13.732 17.342,13.717 17.278,13.588 17.108 C 13.277 16.699,12.755 16.543,12.347 16.738 " fill="#1A1C1F" stroke="none" fill-rule="evenodd"></path></svg>