<svg width="28" height="28" viewBox="0 0 28 28" fill="none" xmlns="http://www.w3.org/2000/svg"><path d="M12.110 1.914 C 10.244 2.249,8.822 2.800,7.350 3.756 C 4.765 5.437,2.919 7.995,2.147 10.967 C 1.846 12.128,1.797 12.544,1.797 13.977 C 1.797 15.431,1.836 15.779,2.131 16.958 C 2.551 18.629,3.376 20.292,4.462 21.653 C 4.863 22.156,5.831 23.123,6.347 23.536 C 8.089 24.931,10.106 25.806,12.297 26.117 C 13.037 26.222,14.905 26.236,15.563 26.142 C 17.740 25.831,19.623 25.059,21.334 23.776 C 23.955 21.809,25.680 18.854,26.140 15.540 C 26.178 15.270,26.202 14.632,26.202 13.907 C 26.203 12.643,26.161 12.237,25.923 11.223 C 24.885 6.805,21.370 3.237,16.987 2.152 C 15.879 1.878,15.718 1.861,14.117 1.841 C 12.782 1.824,12.569 1.832,12.110 1.914 M13.085 3.620 C 13.101 3.661,13.113 3.836,13.113 4.009 C 13.113 4.596,13.294 4.978,13.646 5.138 C 13.887 5.248,14.112 5.248,14.352 5.139 C 14.742 4.962,14.887 4.632,14.887 3.918 C 14.887 3.714,14.902 3.547,14.922 3.547 C 15.049 3.547,16.158 3.751,16.543 3.846 C 17.918 4.184,19.153 4.781,20.430 5.725 L 20.771 5.977 20.442 6.334 C 20.027 6.784,19.905 7.022,19.947 7.301 C 20.005 7.685,20.326 7.991,20.743 8.059 C 20.970 8.096,21.243 7.947,21.666 7.558 L 22.023 7.229 22.275 7.570 C 23.038 8.602,23.560 9.578,23.907 10.623 C 24.098 11.197,24.343 12.261,24.429 12.892 L 24.459 13.113 24.161 13.113 C 23.455 13.113,23.024 13.289,22.864 13.641 C 22.752 13.888,22.752 14.111,22.862 14.354 C 23.029 14.721,23.403 14.887,24.068 14.887 L 24.459 14.887 24.429 15.108 C 24.412 15.230,24.336 15.645,24.261 16.030 C 23.943 17.642,23.328 19.006,22.282 20.420 L 22.022 20.771 21.686 20.460 C 21.077 19.895,20.748 19.814,20.340 20.127 C 20.076 20.330,19.971 20.482,19.941 20.709 C 19.905 20.974,20.038 21.227,20.440 21.664 L 20.767 22.019 20.592 22.156 C 19.608 22.927,18.530 23.514,17.369 23.912 C 16.441 24.230,15.071 24.516,14.968 24.414 C 14.942 24.387,14.902 24.150,14.880 23.887 C 14.832 23.320,14.751 23.130,14.477 22.939 C 14.311 22.824,14.229 22.800,14.002 22.798 C 13.772 22.797,13.696 22.819,13.526 22.938 C 13.245 23.133,13.158 23.335,13.126 23.870 C 13.089 24.496,13.095 24.491,12.501 24.388 C 10.649 24.068,9.102 23.417,7.689 22.366 L 7.221 22.018 7.478 21.754 C 8.002 21.217,8.125 20.956,8.025 20.599 C 7.917 20.212,7.401 19.872,7.041 19.951 C 6.878 19.987,6.557 20.220,6.223 20.544 L 5.982 20.778 5.728 20.434 C 4.780 19.153,4.184 17.919,3.846 16.543 C 3.751 16.158,3.547 15.049,3.547 14.922 C 3.547 14.902,3.721 14.887,3.935 14.887 C 4.597 14.887,4.971 14.721,5.138 14.354 C 5.248 14.111,5.248 13.888,5.136 13.641 C 4.976 13.289,4.545 13.113,3.841 13.113 C 3.679 13.113,3.547 13.098,3.547 13.078 C 3.547 12.951,3.751 11.842,3.846 11.457 C 4.184 10.082,4.781 8.847,5.726 7.569 L 5.978 7.228 6.326 7.554 C 6.687 7.890,6.992 8.073,7.192 8.073 C 7.366 8.073,7.761 7.859,7.877 7.703 C 7.933 7.627,8.004 7.473,8.034 7.361 C 8.083 7.177,8.077 7.133,7.971 6.904 C 7.907 6.764,7.713 6.499,7.541 6.314 L 7.228 5.977 7.662 5.656 C 9.064 4.619,10.632 3.946,12.358 3.642 C 12.985 3.532,13.050 3.530,13.085 3.620 M17.243 7.022 C 16.954 7.171,13.751 9.740,13.290 10.192 C 13.003 10.474,12.941 10.633,12.987 10.971 C 13.033 11.319,13.419 11.675,13.759 11.683 C 14.067 11.690,14.208 11.600,15.801 10.371 C 16.076 10.159,16.309 9.994,16.320 10.005 C 16.331 10.015,16.272 10.483,16.188 11.044 C 16.105 11.604,16.036 12.243,16.034 12.463 C 16.030 12.821,16.043 12.882,16.154 13.051 C 16.310 13.287,16.558 13.407,16.897 13.412 C 17.117 13.415,17.187 13.394,17.335 13.281 C 17.653 13.039,17.707 12.833,18.063 10.523 C 18.474 7.849,18.494 7.569,18.288 7.307 C 18.072 7.033,17.517 6.881,17.243 7.022 M13.731 12.971 C 13.494 13.030,13.213 13.249,13.075 13.483 C 12.973 13.657,12.950 13.753,12.952 14.000 C 12.958 15.158,14.455 15.483,14.991 14.444 C 15.168 14.101,15.099 13.643,14.823 13.315 C 14.593 13.043,14.084 12.883,13.731 12.971 M10.827 14.634 C 10.609 14.729,10.419 14.916,10.362 15.093 C 10.249 15.440,9.567 19.851,9.567 20.233 C 9.567 20.514,9.664 20.730,9.853 20.871 C 10.174 21.109,10.516 21.154,10.780 20.993 C 11.222 20.724,14.078 18.425,14.731 17.813 C 14.921 17.635,14.984 17.538,15.027 17.359 C 15.156 16.820,14.762 16.333,14.196 16.333 C 13.909 16.333,13.679 16.477,12.604 17.326 C 11.651 18.079,11.715 18.031,11.691 18.007 C 11.681 17.996,11.755 17.421,11.857 16.729 C 12.077 15.236,12.074 15.136,11.789 14.862 C 11.494 14.579,11.145 14.496,10.827 14.634 " fill="#1A1C1F" stroke="none" fill-rule="evenodd"></path></svg>