<svg width="24" height="24" viewBox="0 0 24 24" fill="none" xmlns="http://www.w3.org/2000/svg"><path d="M10.500 1.120 C 8.544 1.417,6.766 2.172,5.245 3.351 C 4.791 3.703,3.729 4.762,3.350 5.240 C 1.688 7.340,0.873 9.956,1.037 12.661 C 1.101 13.716,1.233 14.408,1.564 15.427 C 1.893 16.442,2.250 17.176,2.844 18.059 C 3.302 18.738,3.741 19.255,4.426 19.921 C 5.599 21.061,6.800 21.810,8.320 22.349 C 11.152 23.353,14.126 23.182,16.820 21.861 C 19.565 20.514,21.585 18.156,22.496 15.236 C 22.885 13.990,22.985 13.168,22.948 11.520 C 22.928 10.629,22.915 10.488,22.804 9.964 C 22.416 8.132,21.829 6.811,20.783 5.422 C 20.360 4.860,19.514 3.977,18.952 3.510 C 17.352 2.181,15.132 1.263,13.080 1.081 C 12.345 1.016,11.058 1.035,10.500 1.120 M11.000 3.350 C 11.000 3.684,11.048 3.860,11.195 4.080 C 11.605 4.689,12.491 4.653,12.849 4.013 C 12.939 3.851,12.971 3.731,12.992 3.473 L 13.020 3.140 13.212 3.128 C 13.448 3.113,13.917 3.205,14.507 3.383 C 17.211 4.200,19.347 6.153,20.353 8.728 C 20.632 9.442,20.880 10.407,20.880 10.781 C 20.880 10.975,20.895 10.967,20.394 11.036 C 20.248 11.056,20.086 11.095,20.034 11.121 C 19.568 11.362,19.374 11.836,19.541 12.325 C 19.683 12.742,19.988 12.948,20.528 12.992 L 20.860 13.020 20.872 13.191 C 20.899 13.564,20.633 14.589,20.294 15.420 C 19.901 16.383,19.324 17.285,18.617 18.041 C 17.447 19.292,16.234 20.079,14.740 20.558 C 14.225 20.723,13.093 20.973,13.032 20.935 C 13.014 20.924,13.000 20.802,13.000 20.664 C 13.000 20.139,12.817 19.794,12.436 19.604 C 12.105 19.439,11.895 19.439,11.564 19.604 C 11.178 19.797,11.000 20.138,11.000 20.686 C 11.000 20.837,10.991 20.960,10.980 20.960 C 10.969 20.960,10.706 20.906,10.395 20.840 C 8.735 20.488,7.560 19.952,6.401 19.016 C 4.647 17.600,3.453 15.542,3.122 13.365 C 3.098 13.202,3.088 13.058,3.101 13.045 C 3.114 13.032,3.273 13.010,3.454 12.996 C 3.819 12.968,4.034 12.880,4.237 12.677 C 4.496 12.418,4.584 12.045,4.466 11.699 C 4.324 11.284,4.086 11.108,3.572 11.037 C 3.400 11.014,3.218 10.978,3.166 10.957 C 3.079 10.921,3.075 10.904,3.101 10.709 C 3.148 10.357,3.436 9.257,3.581 8.877 C 4.122 7.460,5.193 5.956,6.297 5.063 C 7.190 4.340,8.374 3.709,9.420 3.398 C 9.906 3.254,10.674 3.087,10.870 3.083 L 11.000 3.080 11.000 3.350 M14.653 6.042 C 14.478 6.079,14.181 6.298,12.680 7.497 C 11.165 8.706,10.710 9.131,10.639 9.400 C 10.521 9.849,10.780 10.359,11.219 10.542 C 11.450 10.639,11.783 10.631,11.990 10.525 C 12.084 10.477,12.433 10.231,12.766 9.979 C 13.288 9.584,13.480 9.465,13.480 9.537 C 13.480 9.546,13.435 9.880,13.380 10.280 C 13.269 11.088,13.261 11.268,13.324 11.496 C 13.380 11.697,13.697 12.009,13.939 12.102 C 14.419 12.285,15.042 11.983,15.181 11.500 C 15.256 11.239,15.475 9.939,15.675 8.560 C 15.865 7.251,15.899 6.932,15.863 6.744 C 15.826 6.543,15.547 6.207,15.346 6.120 C 15.156 6.039,14.839 6.003,14.653 6.042 M9.433 11.877 C 9.277 11.927,9.064 12.101,8.948 12.271 C 8.822 12.459,8.765 12.716,8.521 14.213 C 8.206 16.154,8.145 16.597,8.143 17.003 C 8.140 17.356,8.149 17.398,8.251 17.553 C 8.465 17.877,8.911 18.088,9.247 18.025 C 9.463 17.985,9.896 17.673,11.306 16.544 C 13.262 14.978,13.400 14.833,13.400 14.340 C 13.400 13.912,13.121 13.543,12.704 13.419 C 12.425 13.336,12.333 13.344,12.060 13.475 C 11.850 13.575,11.642 13.723,10.745 14.413 C 10.638 14.496,10.543 14.556,10.534 14.547 C 10.525 14.538,10.565 14.227,10.622 13.855 C 10.751 13.025,10.766 12.588,10.673 12.420 C 10.577 12.245,10.368 12.046,10.183 11.951 C 10.006 11.861,9.605 11.821,9.433 11.877 " fill="#1A1C1F" stroke="none" fill-rule="evenodd"></path></svg>