<svg width="12" height="12" viewBox="0 0 12 12" fill="none" xmlns="http://www.w3.org/2000/svg"><path d="M5.500 0.491 C 5.473 0.496,5.369 0.510,5.270 0.522 C 3.750 0.706,2.306 1.601,1.416 2.910 C 0.550 4.183,0.255 5.780,0.613 7.260 C 0.979 8.774,1.930 10.041,3.287 10.819 C 3.859 11.148,4.555 11.388,5.196 11.479 C 5.275 11.491,5.505 11.509,5.707 11.520 C 6.459 11.561,7.104 11.470,7.820 11.222 C 9.296 10.712,10.523 9.546,11.126 8.079 C 11.753 6.556,11.649 4.797,10.847 3.335 C 10.021 1.831,8.463 0.754,6.789 0.530 C 6.563 0.499,5.615 0.471,5.500 0.491 M6.380 1.721 C 7.179 1.794,7.965 2.099,8.604 2.583 C 8.818 2.745,9.187 3.104,9.346 3.305 C 9.773 3.847,10.063 4.462,10.211 5.141 C 10.259 5.359,10.267 5.447,10.275 5.843 C 10.293 6.672,10.186 7.198,9.870 7.850 C 9.324 8.974,8.460 9.722,7.263 10.108 C 6.783 10.263,6.771 10.265,6.100 10.275 C 5.411 10.285,5.296 10.273,4.861 10.147 C 4.111 9.930,3.529 9.592,2.993 9.064 C 2.624 8.700,2.362 8.332,2.129 7.850 C 1.969 7.519,1.885 7.282,1.810 6.950 C 1.730 6.598,1.715 6.402,1.725 5.875 C 1.733 5.443,1.740 5.363,1.789 5.140 C 2.040 3.988,2.724 2.994,3.690 2.377 C 4.491 1.865,5.435 1.635,6.380 1.721 M6.920 3.349 C 6.610 3.560,5.043 4.820,4.788 5.065 C 4.597 5.248,4.595 5.254,4.501 5.800 C 4.435 6.182,4.196 7.738,4.157 8.035 C 4.125 8.283,4.156 8.390,4.311 8.557 C 4.484 8.744,4.695 8.814,4.902 8.753 C 5.034 8.713,5.128 8.644,6.227 7.765 C 7.147 7.029,7.329 6.869,7.382 6.750 C 7.428 6.645,7.496 6.287,7.608 5.560 C 7.852 3.985,7.872 3.790,7.811 3.629 C 7.790 3.574,7.731 3.492,7.668 3.429 C 7.540 3.301,7.426 3.260,7.201 3.261 C 7.056 3.261,7.045 3.265,6.920 3.349 M6.325 5.762 L 6.270 6.135 6.110 6.272 C 5.902 6.451,5.642 6.649,5.630 6.637 C 5.619 6.626,5.714 6.033,5.743 5.936 C 5.756 5.896,5.791 5.831,5.822 5.794 C 5.891 5.710,6.366 5.348,6.374 5.372 C 6.377 5.382,6.355 5.558,6.325 5.762 " fill="#1A1C1F" stroke="none" fill-rule="evenodd"></path></svg>