<svg width="16" height="16" viewBox="0 0 16 16" fill="none" xmlns="http://www.w3.org/2000/svg"><path d="M7.240 0.751 C 7.062 0.761,6.773 0.800,6.588 0.840 C 5.095 1.160,3.920 1.782,2.897 2.794 C 1.710 3.969,1.026 5.299,0.768 6.937 C 0.689 7.442,0.683 8.504,0.756 8.987 C 0.963 10.343,1.490 11.564,2.310 12.587 C 2.726 13.105,3.363 13.681,3.957 14.077 C 4.882 14.693,5.891 15.077,7.027 15.245 C 7.476 15.311,8.554 15.311,8.987 15.245 C 10.996 14.935,12.665 13.947,13.849 12.365 C 14.686 11.247,15.152 10.026,15.281 8.614 C 15.320 8.186,15.301 7.394,15.242 6.992 C 14.964 5.117,14.027 3.484,12.542 2.287 C 11.585 1.515,10.141 0.892,9.040 0.775 C 8.725 0.742,7.668 0.727,7.240 0.751 M9.147 2.438 C 9.626 2.541,10.001 2.673,10.476 2.907 C 11.146 3.238,11.605 3.571,12.089 4.081 C 12.790 4.816,13.263 5.656,13.494 6.573 C 13.716 7.455,13.723 8.445,13.515 9.347 C 13.208 10.675,12.306 11.946,11.093 12.758 C 10.422 13.208,9.459 13.557,8.626 13.652 C 8.122 13.710,7.341 13.674,6.859 13.570 C 5.262 13.226,3.946 12.277,3.102 10.858 C 2.592 10.000,2.340 9.064,2.340 8.027 C 2.339 7.075,2.489 6.390,2.869 5.602 C 3.177 4.963,3.468 4.540,3.925 4.065 C 4.771 3.187,5.824 2.625,7.051 2.398 C 7.283 2.355,7.424 2.350,8.067 2.358 C 8.754 2.367,8.840 2.373,9.147 2.438 M9.333 4.434 C 9.267 4.467,9.135 4.553,9.040 4.626 C 8.446 5.081,6.897 6.322,6.533 6.634 C 6.169 6.946,6.155 6.977,6.013 7.800 C 5.890 8.510,5.612 10.315,5.571 10.670 C 5.539 10.943,5.540 10.960,5.599 11.118 C 5.704 11.397,5.964 11.607,6.275 11.664 C 6.409 11.689,6.639 11.621,6.815 11.505 C 7.093 11.320,9.541 9.337,9.737 9.137 C 9.860 9.012,9.932 8.668,10.185 7.013 C 10.464 5.188,10.476 5.052,10.377 4.849 C 10.287 4.663,10.171 4.543,9.995 4.455 C 9.784 4.350,9.522 4.341,9.333 4.434 M8.429 7.678 L 8.360 8.160 8.187 8.316 C 7.927 8.550,7.541 8.853,7.521 8.840 C 7.486 8.819,7.654 7.857,7.704 7.787 C 7.786 7.672,8.444 7.165,8.482 7.188 C 8.490 7.193,8.466 7.414,8.429 7.678 " fill="#1A1C1F" stroke="none" fill-rule="evenodd"></path></svg>