<svg width="20" height="20" viewBox="0 0 20 20" fill="none" xmlns="http://www.w3.org/2000/svg"><path d="M9.721 2.054 C 9.428 2.144,9.235 2.310,9.082 2.600 C 9.030 2.699,9.018 2.817,9.006 3.371 L 8.992 4.025 8.638 4.117 C 7.053 4.527,5.794 5.424,4.909 6.774 C 4.552 7.319,4.219 8.122,4.066 8.808 L 4.023 9.000 3.570 9.001 C 2.761 9.002,2.526 9.067,2.259 9.363 C 2.084 9.558,2.019 9.751,2.022 10.067 C 2.024 10.374,2.152 10.600,2.441 10.813 C 2.636 10.956,2.874 10.999,3.486 10.999 L 4.023 11.000 4.065 11.190 C 4.419 12.770,5.394 14.195,6.700 15.040 C 7.240 15.389,8.114 15.754,8.727 15.886 L 8.992 15.943 9.007 16.613 C 9.024 17.373,9.039 17.431,9.306 17.699 C 9.512 17.906,9.685 17.974,10.001 17.972 C 10.321 17.970,10.465 17.914,10.679 17.707 C 10.951 17.444,10.976 17.354,10.993 16.596 L 11.008 15.943 11.279 15.886 C 13.147 15.491,14.807 14.113,15.561 12.333 C 15.694 12.020,15.906 11.363,15.950 11.128 L 15.973 11.007 16.628 10.995 C 17.269 10.984,17.287 10.981,17.436 10.894 C 17.742 10.714,17.942 10.423,17.987 10.094 C 18.031 9.777,17.813 9.334,17.526 9.156 C 17.392 9.073,17.328 9.059,16.962 9.032 C 16.736 9.016,16.420 9.002,16.262 9.001 L 15.973 9.000 15.916 8.742 C 15.762 8.050,15.425 7.280,14.990 6.625 C 14.659 6.126,13.987 5.434,13.500 5.092 C 12.900 4.669,12.109 4.308,11.363 4.116 L 11.008 4.025 10.993 3.371 C 10.976 2.640,10.958 2.572,10.718 2.325 C 10.563 2.166,10.400 2.082,10.151 2.036 C 9.915 1.993,9.924 1.992,9.721 2.054 M10.623 6.069 C 10.960 6.116,11.513 6.296,11.850 6.468 C 12.524 6.813,13.154 7.430,13.481 8.066 C 13.824 8.733,13.933 9.124,13.958 9.784 C 13.979 10.342,13.932 10.792,13.815 11.153 C 13.705 11.491,13.446 12.037,13.275 12.288 C 13.093 12.555,12.468 13.152,12.152 13.359 C 10.980 14.128,9.464 14.202,8.190 13.552 C 7.261 13.078,6.514 12.199,6.188 11.194 C 6.050 10.771,5.994 9.890,6.069 9.345 C 6.138 8.852,6.413 8.170,6.734 7.700 C 7.296 6.875,8.360 6.219,9.400 6.056 C 9.584 6.027,10.378 6.036,10.623 6.069 M9.400 8.109 C 9.100 8.212,8.900 8.337,8.639 8.583 C 8.377 8.831,8.235 9.055,8.119 9.404 C 7.946 9.924,7.980 10.377,8.231 10.883 C 8.616 11.663,9.559 12.134,10.373 11.953 C 11.110 11.789,11.730 11.210,11.919 10.509 C 11.987 10.257,11.986 9.741,11.918 9.486 C 11.745 8.845,11.142 8.256,10.482 8.084 C 10.181 8.006,9.667 8.018,9.400 8.109 " fill="#1A1C1F" stroke="none" fill-rule="evenodd"></path></svg>