<svg width="16" height="16" viewBox="0 0 16 16" fill="none" xmlns="http://www.w3.org/2000/svg"><path d="M7.693 1.616 C 6.590 1.726,5.802 2.082,5.083 2.793 C 4.576 3.294,4.304 3.756,4.105 4.453 C 4.033 4.703,4.003 5.487,4.051 5.846 C 4.148 6.579,4.324 6.943,5.386 8.613 C 6.506 10.375,7.287 11.548,7.478 11.756 C 7.670 11.964,7.913 12.039,8.190 11.973 C 8.483 11.903,8.694 11.617,10.246 9.187 C 11.481 7.253,11.639 6.979,11.812 6.461 C 11.926 6.122,11.973 5.771,11.973 5.267 C 11.973 4.770,11.928 4.507,11.774 4.093 C 11.574 3.558,11.337 3.194,10.922 2.787 C 10.340 2.215,9.562 1.818,8.753 1.679 C 8.457 1.628,7.901 1.595,7.693 1.616 M8.352 4.056 C 8.618 4.110,8.874 4.259,9.107 4.492 C 9.435 4.823,9.572 5.155,9.573 5.628 C 9.574 6.073,9.444 6.370,9.094 6.722 C 8.837 6.980,8.690 7.063,8.342 7.146 C 8.063 7.213,7.937 7.213,7.658 7.146 C 7.306 7.062,7.162 6.981,6.906 6.723 C 6.613 6.426,6.495 6.201,6.450 5.854 C 6.377 5.273,6.526 4.826,6.917 4.461 C 7.230 4.167,7.566 4.028,7.965 4.027 C 8.100 4.027,8.274 4.040,8.352 4.056 M4.675 12.852 C 4.450 12.873,4.330 12.943,4.183 13.140 C 4.054 13.313,4.017 13.420,4.017 13.611 C 4.017 13.810,4.083 13.965,4.242 14.144 C 4.415 14.338,4.461 14.350,5.133 14.375 C 5.897 14.404,10.140 14.404,10.880 14.375 C 11.538 14.350,11.587 14.337,11.757 14.144 C 11.935 13.942,11.978 13.838,11.980 13.601 C 11.983 13.364,11.921 13.203,11.769 13.051 C 11.609 12.891,11.572 12.878,11.222 12.852 C 10.849 12.825,4.969 12.825,4.675 12.852 " fill="#1A1C1F" stroke="none" fill-rule="evenodd"></path></svg>