<svg width="12" height="12" viewBox="0 0 12 12" fill="none" xmlns="http://www.w3.org/2000/svg"><path d="M5.734 1.131 C 5.608 1.198,5.486 1.322,5.434 1.437 C 5.393 1.526,5.391 1.562,5.391 2.200 C 5.390 2.847,5.391 2.873,5.434 2.964 C 5.494 3.095,5.637 3.228,5.776 3.283 C 6.078 3.403,6.414 3.264,6.558 2.960 L 6.610 2.850 6.610 2.220 C 6.609 1.481,6.600 1.428,6.450 1.275 C 6.314 1.138,6.205 1.091,6.000 1.085 C 5.851 1.080,5.818 1.086,5.734 1.131 M5.783 4.180 C 5.650 4.237,5.585 4.317,5.489 4.544 C 5.381 4.800,4.977 5.839,4.256 7.710 C 3.403 9.928,3.240 10.378,3.240 10.523 C 3.240 10.641,3.370 10.816,3.510 10.885 C 3.604 10.932,3.724 10.945,3.829 10.918 C 3.940 10.890,4.078 10.761,5.305 9.541 L 6.000 8.850 6.775 9.621 C 7.726 10.567,8.019 10.848,8.096 10.888 C 8.189 10.936,8.310 10.948,8.411 10.920 C 8.532 10.886,8.687 10.746,8.731 10.629 C 8.775 10.515,8.764 10.433,8.664 10.140 C 8.548 9.802,7.638 7.422,6.920 5.580 C 6.742 5.123,6.569 4.681,6.537 4.596 C 6.468 4.419,6.394 4.308,6.289 4.228 C 6.221 4.176,6.198 4.171,6.022 4.166 C 5.917 4.163,5.809 4.169,5.783 4.180 " fill="#1A1C1F" stroke="none" fill-rule="evenodd"></path></svg>