<svg width="12" height="12" viewBox="0 0 12 12" fill="none" xmlns="http://www.w3.org/2000/svg"><path d="M5.725 1.151 C 5.603 1.212,5.491 1.330,5.435 1.458 C 5.400 1.536,5.392 1.608,5.382 1.920 C 5.375 2.123,5.363 2.301,5.355 2.313 C 5.346 2.326,5.279 2.351,5.204 2.368 C 5.130 2.385,4.964 2.435,4.835 2.479 C 3.881 2.808,3.119 3.466,2.680 4.340 C 2.539 4.621,2.450 4.873,2.341 5.292 L 2.320 5.374 1.937 5.386 C 1.579 5.397,1.547 5.402,1.449 5.450 C 1.211 5.566,1.091 5.751,1.090 6.000 C 1.090 6.247,1.192 6.411,1.434 6.554 C 1.528 6.609,1.538 6.610,1.915 6.621 C 2.126 6.626,2.307 6.640,2.316 6.651 C 2.326 6.661,2.358 6.769,2.389 6.890 C 2.627 7.841,3.249 8.668,4.125 9.197 C 4.407 9.368,4.909 9.562,5.220 9.621 C 5.292 9.635,5.353 9.648,5.356 9.650 C 5.359 9.653,5.370 9.825,5.380 10.032 C 5.402 10.473,5.427 10.577,5.541 10.706 C 5.661 10.843,5.812 10.910,6.000 10.910 C 6.183 10.909,6.299 10.862,6.425 10.736 C 6.582 10.579,6.601 10.516,6.621 10.067 C 6.631 9.850,6.646 9.667,6.654 9.659 C 6.663 9.651,6.742 9.629,6.830 9.610 C 7.046 9.563,7.402 9.438,7.626 9.331 C 8.067 9.121,8.510 8.767,8.876 8.330 C 9.232 7.906,9.451 7.474,9.611 6.880 C 9.642 6.765,9.673 6.663,9.680 6.655 C 9.687 6.647,9.858 6.631,10.061 6.621 C 10.264 6.610,10.464 6.592,10.504 6.580 C 10.600 6.552,10.731 6.452,10.813 6.345 C 10.983 6.122,10.932 5.738,10.707 5.540 C 10.565 5.415,10.502 5.400,10.071 5.386 L 9.680 5.374 9.659 5.292 C 9.389 4.240,8.923 3.531,8.130 2.967 C 7.801 2.733,7.267 2.486,6.874 2.388 C 6.762 2.360,6.661 2.328,6.651 2.318 C 6.640 2.308,6.626 2.130,6.618 1.923 C 6.602 1.482,6.583 1.419,6.420 1.260 C 6.299 1.142,6.180 1.100,5.970 1.100 C 5.858 1.100,5.806 1.111,5.725 1.151 M6.155 3.561 C 6.509 3.586,6.760 3.649,7.035 3.780 C 7.765 4.128,8.258 4.766,8.409 5.559 C 8.448 5.768,8.450 6.215,8.412 6.430 C 8.256 7.305,7.625 8.046,6.804 8.319 C 6.497 8.421,6.339 8.446,5.990 8.447 C 5.635 8.447,5.456 8.417,5.138 8.301 C 4.360 8.018,3.748 7.289,3.590 6.454 C 3.551 6.248,3.551 5.778,3.590 5.555 C 3.716 4.829,4.208 4.169,4.881 3.821 C 5.122 3.696,5.323 3.629,5.595 3.581 C 5.859 3.535,5.813 3.536,6.155 3.561 M5.760 4.801 C 5.700 4.811,5.574 4.857,5.480 4.903 C 5.256 5.012,4.998 5.263,4.904 5.462 C 4.782 5.718,4.747 6.035,4.812 6.287 C 4.908 6.660,5.233 7.019,5.600 7.157 C 5.715 7.201,5.761 7.206,6.000 7.206 C 6.226 7.206,6.289 7.199,6.389 7.163 C 6.724 7.041,7.048 6.712,7.161 6.378 C 7.220 6.202,7.234 5.913,7.192 5.735 C 7.094 5.318,6.783 4.982,6.363 4.841 C 6.217 4.792,5.925 4.772,5.760 4.801 " fill="#1A1C1F" stroke="none" fill-rule="evenodd"></path></svg>