<svg width="32" height="32" viewBox="0 0 32 32" fill="none" xmlns="http://www.w3.org/2000/svg"><path d="M26.773 3.726 C 25.702 4.190,13.336 9.794,8.133 12.174 C 3.607 14.244,3.606 14.244,3.403 14.656 C 3.234 15.001,3.230 15.660,3.396 15.973 C 3.554 16.271,3.989 16.685,4.213 16.749 C 4.328 16.782,6.477 16.823,9.782 16.855 C 12.742 16.883,15.174 16.916,15.187 16.929 C 15.199 16.942,15.226 19.324,15.246 22.223 L 15.283 27.493 15.402 27.719 C 15.706 28.295,16.207 28.615,16.800 28.612 C 17.377 28.608,17.795 28.346,18.113 27.786 C 18.441 27.209,28.121 6.014,28.553 4.927 C 28.777 4.364,28.788 4.226,28.635 3.909 C 28.482 3.594,28.171 3.413,27.782 3.414 C 27.548 3.414,27.356 3.474,26.773 3.726 M25.691 6.467 C 25.676 6.503,23.796 10.613,21.512 15.600 L 17.360 24.667 17.327 23.253 C 17.309 22.476,17.291 20.661,17.287 19.220 L 17.280 16.601 17.095 16.232 C 16.867 15.775,16.434 15.329,15.988 15.090 L 15.653 14.912 13.920 14.873 C 12.967 14.852,11.102 14.833,9.776 14.831 C 8.432 14.829,7.353 14.806,7.337 14.779 C 7.321 14.753,10.613 13.231,14.654 11.396 C 18.694 9.561,22.816 7.688,23.813 7.234 C 24.811 6.780,25.647 6.406,25.672 6.404 C 25.698 6.402,25.706 6.430,25.691 6.467 " fill="#1A1C1F" stroke="none" fill-rule="evenodd"></path></svg>