<svg width="24" height="24" viewBox="0 0 24 24" fill="none" xmlns="http://www.w3.org/2000/svg"><path d="M11.695 2.036 C 11.467 2.094,11.224 2.324,11.066 2.628 C 11.009 2.739,11.000 2.923,11.000 4.031 C 11.000 5.496,11.017 5.608,11.280 5.871 C 11.784 6.374,12.525 6.281,12.880 5.671 L 13.003 5.460 12.991 4.080 C 12.980 2.863,12.970 2.681,12.908 2.541 C 12.812 2.327,12.735 2.249,12.501 2.130 C 12.287 2.022,11.918 1.978,11.695 2.036 M11.520 7.763 C 11.093 8.061,11.151 7.940,9.961 11.000 C 7.201 18.095,6.159 20.860,6.161 21.084 C 6.162 21.207,6.294 21.498,6.428 21.674 C 6.658 21.975,7.211 22.098,7.554 21.923 C 7.757 21.819,8.305 21.298,10.367 19.245 L 11.994 17.626 14.007 19.619 C 15.114 20.715,16.111 21.681,16.222 21.765 C 16.728 22.147,17.152 22.107,17.574 21.639 C 17.740 21.453,17.839 21.245,17.840 21.078 C 17.840 20.915,17.472 19.922,15.467 14.680 C 13.813 10.354,13.096 8.508,12.983 8.287 C 12.752 7.831,12.515 7.674,12.020 7.652 C 11.715 7.638,11.691 7.643,11.520 7.763 M12.259 11.954 C 12.497 12.531,13.950 16.297,14.057 16.615 C 14.093 16.723,14.114 16.819,14.104 16.829 C 14.094 16.840,13.615 16.384,13.041 15.817 L 11.997 14.785 10.959 15.820 C 10.389 16.389,9.911 16.845,9.899 16.832 C 9.882 16.815,11.072 13.669,11.942 11.427 C 11.985 11.318,12.020 11.376,12.259 11.954 " fill="#1A1C1F" stroke="none" fill-rule="evenodd"></path></svg>