<svg width="28" height="28" viewBox="0 0 28 28" fill="none" xmlns="http://www.w3.org/2000/svg"><path d="M23.427 3.260 C 22.240 3.773,9.671 9.476,6.184 11.083 C 3.370 12.379,3.201 12.466,3.060 12.682 C 2.821 13.047,2.787 13.608,2.981 13.988 C 3.117 14.255,3.473 14.594,3.677 14.653 C 3.789 14.685,5.519 14.718,8.559 14.748 C 11.150 14.773,13.278 14.802,13.288 14.813 C 13.299 14.824,13.322 16.908,13.340 19.444 L 13.372 24.057 13.476 24.254 C 13.743 24.758,14.181 25.038,14.700 25.035 C 15.205 25.032,15.571 24.803,15.849 24.313 C 16.136 23.808,24.606 5.262,24.984 4.311 C 25.180 3.819,25.190 3.698,25.056 3.421 C 24.922 3.145,24.649 2.987,24.309 2.987 C 24.105 2.987,23.936 3.040,23.427 3.260 " fill="#1A1C1F" stroke="none" fill-rule="evenodd"></path></svg>