<svg width="16" height="16" viewBox="0 0 16 16" fill="none" xmlns="http://www.w3.org/2000/svg"><path d="M7.026 1.611 C 6.153 1.818,5.350 2.298,4.818 2.931 C 4.471 3.343,4.287 3.669,4.123 4.160 C 3.983 4.579,3.938 4.896,3.955 5.360 C 3.987 6.232,4.200 6.815,4.887 7.907 C 5.789 9.341,7.321 11.666,7.471 11.829 C 7.609 11.978,7.771 12.041,8.013 12.038 C 8.233 12.035,8.351 11.990,8.508 11.849 C 8.658 11.714,9.299 10.745,10.955 8.147 C 11.630 7.089,11.846 6.640,11.976 6.026 C 12.055 5.649,12.064 4.898,11.992 4.566 C 11.748 3.434,10.991 2.484,9.907 1.950 C 9.551 1.775,9.350 1.701,9.013 1.621 C 8.822 1.576,8.671 1.566,8.040 1.558 C 7.327 1.548,7.281 1.550,7.026 1.611 M8.515 3.186 C 9.515 3.361,10.278 4.089,10.400 4.987 C 10.452 5.366,10.389 5.753,10.215 6.115 C 10.085 6.387,9.739 6.948,9.017 8.058 C 8.340 9.100,8.050 9.526,8.009 9.539 C 7.974 9.551,7.781 9.273,7.077 8.200 C 5.673 6.060,5.631 5.977,5.607 5.318 C 5.591 4.874,5.615 4.736,5.760 4.440 C 6.083 3.777,6.696 3.323,7.449 3.186 C 7.712 3.138,8.240 3.139,8.515 3.186 M7.633 4.840 C 7.005 5.159,7.079 6.140,7.746 6.323 C 7.898 6.365,8.216 6.358,8.330 6.310 C 8.484 6.245,8.677 6.033,8.745 5.852 C 8.793 5.726,8.803 5.655,8.794 5.507 C 8.780 5.286,8.720 5.147,8.578 5.005 C 8.427 4.854,8.269 4.792,8.000 4.780 C 7.796 4.770,7.759 4.776,7.633 4.840 M4.598 12.931 C 4.479 12.942,4.405 12.968,4.322 13.026 C 4.205 13.106,4.061 13.268,3.999 13.386 C 3.949 13.484,3.954 13.883,4.007 14.007 C 4.063 14.136,4.293 14.365,4.420 14.418 C 4.578 14.484,5.412 14.504,8.000 14.504 C 10.585 14.504,11.422 14.484,11.579 14.418 C 11.700 14.368,11.903 14.164,11.977 14.019 C 12.048 13.881,12.068 13.667,12.028 13.498 C 11.978 13.292,11.864 13.134,11.676 13.013 L 11.512 12.907 8.136 12.911 C 6.279 12.913,4.687 12.922,4.598 12.931 " fill="#1A1C1F" stroke="none" fill-rule="evenodd"></path></svg>