<svg width="24" height="24" viewBox="0 0 24 24" fill="none" xmlns="http://www.w3.org/2000/svg"><path d="M10.900 2.102 C 9.918 2.285,8.981 2.691,8.216 3.265 C 7.830 3.554,7.186 4.232,6.928 4.621 C 6.554 5.182,6.236 5.935,6.098 6.587 C 6.007 7.015,6.006 8.217,6.096 8.640 C 6.185 9.057,6.419 9.759,6.597 10.140 C 6.834 10.647,7.680 12.037,9.581 15.043 C 10.646 16.727,11.189 17.537,11.393 17.748 C 11.707 18.072,12.222 18.081,12.568 17.768 C 12.781 17.575,13.828 15.991,15.279 13.663 C 17.240 10.519,17.426 10.192,17.695 9.412 C 17.921 8.758,17.960 8.496,17.960 7.644 C 17.960 6.832,17.927 6.587,17.738 6.020 C 17.449 5.149,17.025 4.465,16.361 3.796 C 15.516 2.947,14.538 2.418,13.326 2.157 C 12.805 2.044,11.381 2.012,10.900 2.102 M12.507 4.043 C 14.147 4.226,15.471 5.290,15.865 6.742 C 15.925 6.964,15.939 7.152,15.937 7.680 C 15.935 8.278,15.924 8.373,15.827 8.692 C 15.682 9.164,15.565 9.388,14.919 10.422 C 13.983 11.921,12.076 14.853,12.012 14.892 C 11.957 14.927,10.697 12.994,9.162 10.520 C 8.217 8.997,8.088 8.677,8.051 7.777 C 8.035 7.382,8.046 7.174,8.095 6.932 C 8.361 5.618,9.379 4.592,10.822 4.182 C 11.422 4.011,11.883 3.973,12.507 4.043 M11.351 6.134 C 10.689 6.413,10.246 6.892,10.073 7.514 C 9.887 8.188,10.077 8.837,10.620 9.380 C 11.446 10.206,12.561 10.207,13.380 9.382 C 13.675 9.085,13.845 8.798,13.942 8.435 C 14.166 7.592,13.689 6.644,12.826 6.219 C 12.525 6.070,12.494 6.064,12.046 6.051 C 11.626 6.038,11.558 6.046,11.351 6.134 M6.736 20.077 C 6.275 20.152,5.897 20.777,6.040 21.225 C 6.106 21.430,6.383 21.789,6.536 21.868 C 6.749 21.978,8.257 22.008,12.860 21.990 C 16.650 21.976,17.238 21.966,17.360 21.913 C 17.438 21.879,17.595 21.750,17.709 21.624 C 17.995 21.312,18.060 21.059,17.941 20.722 C 17.855 20.480,17.740 20.336,17.507 20.179 L 17.301 20.040 12.101 20.045 C 9.240 20.048,6.826 20.062,6.736 20.077 " fill="#1A1C1F" stroke="none" fill-rule="evenodd"></path></svg>