<svg width="14" height="14" viewBox="0 0 14 14" fill="none" xmlns="http://www.w3.org/2000/svg"><path d="M6.642 1.425 C 6.064 1.476,5.435 1.697,4.948 2.020 C 4.752 2.149,4.427 2.439,4.242 2.648 C 3.713 3.248,3.450 4.077,3.524 4.914 C 3.571 5.457,3.703 5.865,3.993 6.372 C 4.463 7.193,6.299 10.014,6.530 10.271 C 6.707 10.468,6.917 10.535,7.167 10.476 C 7.423 10.415,7.602 10.173,8.941 8.073 C 10.205 6.094,10.230 6.047,10.419 5.355 C 10.480 5.132,10.494 4.318,10.442 4.060 C 10.146 2.612,8.882 1.556,7.287 1.424 C 6.982 1.398,6.940 1.398,6.642 1.425 M7.339 3.559 C 7.768 3.668,8.140 4.009,8.306 4.445 C 8.372 4.619,8.397 5.003,8.354 5.200 C 8.274 5.573,7.952 5.979,7.606 6.144 C 7.275 6.303,7.030 6.332,6.701 6.253 C 6.395 6.180,6.267 6.108,6.041 5.882 C 5.770 5.611,5.681 5.432,5.642 5.083 C 5.604 4.743,5.634 4.560,5.772 4.282 C 5.944 3.936,6.191 3.720,6.568 3.589 C 6.722 3.536,6.795 3.524,6.978 3.524 C 7.101 3.523,7.262 3.539,7.339 3.559 M4.037 11.244 C 3.754 11.285,3.467 11.679,3.507 11.973 C 3.533 12.166,3.738 12.458,3.895 12.524 C 4.024 12.579,4.811 12.597,7.012 12.597 C 9.195 12.598,9.975 12.579,10.104 12.525 C 10.197 12.485,10.365 12.306,10.432 12.175 C 10.488 12.067,10.494 11.753,10.443 11.631 C 10.397 11.522,10.247 11.344,10.164 11.301 C 10.123 11.279,9.984 11.258,9.802 11.245 C 9.468 11.222,4.197 11.222,4.037 11.244 " fill="#1A1C1F" stroke="none" fill-rule="evenodd"></path></svg>