<svg width="32" height="32" viewBox="0 0 32 32" fill="none" xmlns="http://www.w3.org/2000/svg"><path d="M15.596 2.125 C 15.476 2.181,15.290 2.334,15.182 2.466 L 14.987 2.704 14.987 4.893 L 14.987 7.081 14.564 7.143 C 12.297 7.474,9.887 9.021,8.575 10.987 C 7.904 11.991,7.463 13.034,7.200 14.233 C 7.140 14.508,7.067 14.776,7.039 14.829 C 6.968 14.962,6.748 14.978,4.630 15.007 C 2.633 15.035,2.525 15.053,2.227 15.407 C 1.845 15.861,2.053 16.718,2.589 16.898 C 2.739 16.948,3.411 16.983,4.903 17.018 C 6.059 17.045,7.015 17.077,7.027 17.090 C 7.040 17.102,7.107 17.384,7.178 17.716 C 7.556 19.503,8.299 20.920,9.515 22.175 C 10.868 23.572,12.319 24.376,14.287 24.818 C 14.620 24.893,14.904 24.966,14.919 24.981 C 14.933 24.996,14.958 25.981,14.974 27.170 L 15.003 29.333 15.192 29.554 C 15.659 30.100,16.341 30.100,16.809 29.553 L 16.998 29.332 17.025 27.171 C 17.041 25.982,17.065 24.997,17.080 24.982 C 17.096 24.967,17.380 24.893,17.713 24.818 C 19.340 24.452,20.546 23.866,21.748 22.858 C 23.324 21.535,24.366 19.792,24.802 17.750 C 24.868 17.436,24.939 17.154,24.959 17.122 C 24.983 17.082,25.682 17.049,27.098 17.019 C 29.380 16.971,29.432 16.964,29.717 16.660 C 30.206 16.137,29.972 15.278,29.291 15.097 C 29.182 15.068,28.187 15.024,27.080 15.000 C 25.744 14.970,25.047 14.935,25.008 14.896 C 24.976 14.864,24.870 14.517,24.772 14.125 C 24.454 12.848,24.083 11.965,23.475 11.042 C 22.172 9.062,19.991 7.620,17.648 7.188 L 17.013 7.071 17.012 5.042 C 17.011 2.921,16.985 2.624,16.783 2.408 C 16.483 2.086,15.951 1.959,15.596 2.125 M17.740 9.228 C 19.827 9.762,21.680 11.411,22.502 13.467 C 22.864 14.373,22.880 14.481,22.880 15.974 C 22.880 17.164,22.867 17.363,22.767 17.762 C 22.462 18.965,21.778 20.098,20.778 21.054 C 19.957 21.839,19.232 22.274,18.078 22.673 L 17.413 22.904 16.187 22.923 C 14.782 22.944,14.547 22.912,13.623 22.564 C 12.617 22.186,11.753 21.622,10.981 20.840 C 10.460 20.312,10.094 19.780,9.733 19.027 C 9.202 17.918,9.068 17.306,9.068 16.000 C 9.068 14.680,9.234 13.954,9.788 12.853 C 10.472 11.495,11.414 10.537,12.750 9.843 C 13.340 9.536,14.233 9.211,14.724 9.124 C 15.198 9.039,17.284 9.112,17.740 9.228 M15.057 13.168 C 14.097 13.496,13.304 14.395,13.091 15.400 C 12.995 15.857,12.995 16.145,13.094 16.613 C 13.209 17.161,13.445 17.595,13.856 18.019 C 14.530 18.712,15.091 18.958,16.000 18.958 C 16.904 18.958,17.471 18.712,18.133 18.029 C 18.550 17.600,18.741 17.265,18.881 16.715 C 19.152 15.655,18.886 14.721,18.082 13.919 C 17.421 13.259,16.925 13.064,15.922 13.070 C 15.507 13.073,15.252 13.102,15.057 13.168 " fill="#1A1C1F" stroke="none" fill-rule="evenodd"></path></svg>