<svg width="24" height="24" viewBox="0 0 24 24" fill="none" xmlns="http://www.w3.org/2000/svg"><path d="M11.782 2.046 C 11.431 2.126,11.111 2.428,11.037 2.748 C 11.018 2.832,11.001 3.378,11.001 3.963 L 11.000 5.026 10.677 5.096 C 9.885 5.266,8.773 5.740,8.100 6.193 C 6.938 6.975,6.015 8.142,5.499 9.477 C 5.419 9.684,5.293 10.095,5.219 10.391 C 5.146 10.686,5.074 10.940,5.059 10.954 C 5.045 10.968,4.571 10.993,4.007 11.008 C 2.681 11.044,2.599 11.055,2.393 11.213 C 2.174 11.381,2.066 11.598,2.047 11.911 C 2.017 12.376,2.186 12.709,2.538 12.879 C 2.701 12.958,2.815 12.969,3.886 13.004 C 4.530 13.026,5.064 13.050,5.072 13.059 C 5.081 13.068,5.139 13.279,5.201 13.527 C 5.568 15.002,6.195 16.100,7.230 17.083 C 7.645 17.476,8.025 17.772,8.427 18.014 C 9.051 18.389,9.938 18.734,10.627 18.868 L 10.994 18.940 11.007 20.080 C 11.022 21.375,11.036 21.444,11.352 21.728 C 11.750 22.087,12.328 22.065,12.717 21.677 C 12.995 21.399,13.000 21.370,13.000 20.092 L 13.000 18.940 13.354 18.871 C 14.022 18.742,14.930 18.390,15.553 18.019 C 17.240 17.016,18.413 15.383,18.858 13.420 L 18.948 13.020 20.124 12.997 C 21.226 12.976,21.310 12.969,21.466 12.889 C 21.669 12.783,21.853 12.567,21.914 12.363 C 21.976 12.156,21.972 11.746,21.906 11.589 C 21.835 11.419,21.530 11.143,21.349 11.083 C 21.260 11.054,20.767 11.024,20.075 11.008 L 18.946 10.980 18.856 10.580 C 18.580 9.356,18.054 8.288,17.308 7.436 C 16.305 6.289,15.018 5.507,13.550 5.153 L 13.000 5.020 13.000 3.992 C 13.000 3.420,12.981 2.876,12.958 2.766 C 12.855 2.290,12.273 1.933,11.782 2.046 M12.865 7.102 C 14.887 7.455,16.545 9.113,16.898 11.135 C 17.020 11.834,16.956 12.897,16.756 13.493 C 16.625 13.883,16.346 14.437,16.076 14.840 C 15.389 15.867,14.304 16.583,13.013 16.863 C 12.576 16.958,11.424 16.958,10.987 16.863 C 10.606 16.781,10.064 16.593,9.740 16.431 C 9.033 16.078,8.319 15.459,7.926 14.860 C 7.681 14.485,7.360 13.843,7.244 13.493 C 7.044 12.894,6.980 11.833,7.102 11.135 C 7.445 9.166,9.020 7.544,11.000 7.119 C 11.442 7.024,12.368 7.015,12.865 7.102 M11.351 10.134 C 10.689 10.413,10.246 10.892,10.073 11.514 C 9.887 12.188,10.077 12.837,10.620 13.380 C 11.446 14.206,12.561 14.207,13.380 13.382 C 13.675 13.085,13.845 12.798,13.942 12.435 C 14.166 11.592,13.689 10.644,12.826 10.219 C 12.525 10.070,12.494 10.064,12.046 10.051 C 11.626 10.038,11.558 10.046,11.351 10.134 " fill="#1A1C1F" stroke="none" fill-rule="evenodd"></path></svg>