<svg width="28" height="28" viewBox="0 0 28 28" fill="none" xmlns="http://www.w3.org/2000/svg"><path d="M13.646 1.862 C 13.541 1.909,13.379 2.042,13.285 2.157 L 13.113 2.366 13.113 4.282 L 13.113 6.198 12.868 6.229 C 12.240 6.310,11.143 6.654,10.525 6.965 C 9.268 7.597,8.173 8.577,7.409 9.753 C 6.912 10.519,6.622 11.209,6.344 12.292 C 6.245 12.674,6.142 13.010,6.115 13.037 C 6.083 13.069,5.428 13.099,4.248 13.122 C 2.580 13.153,2.416 13.164,2.254 13.247 C 1.929 13.413,1.770 13.661,1.777 13.991 C 1.784 14.336,2.008 14.694,2.283 14.802 C 2.350 14.828,3.234 14.868,4.267 14.891 C 5.532 14.920,6.141 14.950,6.163 14.984 C 6.180 15.013,6.218 15.176,6.246 15.347 C 6.313 15.755,6.529 16.496,6.716 16.963 C 7.067 17.840,7.610 18.663,8.330 19.407 C 9.494 20.611,10.813 21.345,12.460 21.703 C 12.729 21.762,12.979 21.836,13.014 21.868 C 13.066 21.914,13.083 22.291,13.103 23.795 L 13.127 25.666 13.289 25.855 C 13.710 26.347,14.290 26.347,14.711 25.855 L 14.873 25.666 14.897 23.795 C 14.917 22.291,14.934 21.914,14.986 21.868 C 15.021 21.836,15.270 21.762,15.540 21.703 C 16.899 21.407,17.986 20.876,19.030 20.000 C 20.409 18.843,21.320 17.318,21.701 15.531 C 21.760 15.257,21.822 15.010,21.839 14.982 C 21.859 14.949,22.489 14.919,23.710 14.893 C 25.707 14.850,25.753 14.843,26.002 14.577 C 26.399 14.153,26.276 13.519,25.745 13.246 C 25.582 13.162,25.424 13.153,23.752 13.122 C 22.498 13.099,21.921 13.073,21.884 13.036 C 21.855 13.007,21.761 12.702,21.676 12.360 C 21.398 11.242,21.073 10.469,20.541 9.662 C 19.401 7.929,17.492 6.667,15.442 6.290 L 14.887 6.187 14.886 4.412 C 14.885 3.357,14.865 2.551,14.836 2.427 C 14.776 2.166,14.650 2.026,14.350 1.884 C 14.070 1.752,13.900 1.747,13.646 1.862 M15.540 8.088 C 16.134 8.258,16.548 8.426,16.963 8.665 C 18.097 9.317,19.150 10.483,19.620 11.605 C 19.941 12.371,20.025 12.794,20.053 13.790 C 20.082 14.816,20.041 15.161,19.811 15.850 C 19.361 17.196,18.520 18.320,17.394 19.079 C 16.921 19.398,16.492 19.606,15.818 19.841 L 15.237 20.043 14.000 20.043 L 12.763 20.042 12.250 19.863 C 11.057 19.447,10.412 19.046,9.600 18.214 C 8.862 17.459,8.355 16.554,8.062 15.472 C 7.972 15.137,7.960 14.979,7.960 14.000 C 7.959 12.999,7.968 12.869,8.066 12.507 C 8.624 10.448,10.094 8.880,12.101 8.206 C 12.821 7.964,13.076 7.933,14.163 7.955 C 15.022 7.973,15.192 7.989,15.540 8.088 M13.092 11.557 C 12.493 11.814,11.974 12.268,11.701 12.774 C 11.535 13.080,11.387 13.660,11.387 14.000 C 11.387 14.340,11.535 14.919,11.701 15.227 C 11.893 15.584,12.481 16.152,12.839 16.327 C 14.074 16.928,15.427 16.537,16.208 15.353 C 16.441 15.000,16.567 14.609,16.599 14.140 C 16.649 13.391,16.395 12.747,15.824 12.176 C 15.248 11.600,14.803 11.432,13.865 11.435 C 13.440 11.437,13.331 11.454,13.092 11.557 " fill="#1A1C1F" stroke="none" fill-rule="evenodd"></path></svg>