<svg width="24" height="24" viewBox="0 0 24 24" fill="none" xmlns="http://www.w3.org/2000/svg"><path d="M20.040 3.078 C 19.343 3.362,8.255 8.199,5.483 9.427 C 3.203 10.438,3.080 10.503,2.956 10.776 C 2.866 10.975,2.855 11.422,2.935 11.614 C 3.015 11.805,3.237 12.043,3.399 12.111 C 3.636 12.210,4.673 12.236,8.389 12.238 L 11.918 12.240 11.929 16.290 C 11.941 20.856,11.910 20.444,12.265 20.756 C 12.700 21.139,13.245 21.107,13.613 20.678 C 13.697 20.579,13.916 20.161,14.153 19.646 C 15.583 16.535,20.862 4.562,21.069 3.960 L 21.172 3.660 21.079 3.444 C 20.905 3.042,20.487 2.895,20.040 3.078 M17.909 6.250 C 17.898 6.277,17.030 8.298,15.980 10.740 C 14.931 13.182,14.055 15.223,14.035 15.276 C 14.014 15.328,13.988 15.361,13.975 15.348 C 13.963 15.336,13.938 14.366,13.920 13.193 C 13.898 11.759,13.872 11.008,13.840 10.900 C 13.789 10.726,13.579 10.484,13.364 10.350 C 13.230 10.268,13.177 10.265,10.995 10.241 C 9.767 10.227,8.753 10.206,8.741 10.195 C 8.713 10.166,9.968 9.613,13.960 7.893 C 15.819 7.093,17.457 6.386,17.600 6.322 C 17.898 6.190,17.936 6.181,17.909 6.250 " fill="#1A1C1F" stroke="none" fill-rule="evenodd"></path></svg>