<svg width="12" height="12" viewBox="0 0 12 12" fill="none" xmlns="http://www.w3.org/2000/svg"><path d="M5.681 1.220 C 5.016 1.290,4.409 1.552,3.935 1.974 C 3.443 2.412,3.186 2.849,3.058 3.466 C 2.974 3.870,3.009 4.437,3.142 4.845 C 3.278 5.262,3.437 5.530,4.786 7.620 C 5.638 8.940,5.680 8.987,6.000 8.988 C 6.185 8.990,6.273 8.948,6.410 8.796 C 6.512 8.683,7.149 7.732,7.674 6.910 C 8.579 5.492,8.745 5.202,8.857 4.843 C 8.961 4.511,8.970 4.443,8.969 3.960 C 8.968 3.454,8.956 3.383,8.799 2.993 C 8.602 2.502,8.289 2.113,7.818 1.776 C 7.614 1.630,7.238 1.443,6.980 1.359 C 6.609 1.239,6.062 1.181,5.681 1.220 M6.264 3.042 C 6.673 3.126,7.073 3.533,7.161 3.954 C 7.199 4.139,7.177 4.464,7.115 4.613 C 7.007 4.876,6.756 5.158,6.536 5.265 C 6.401 5.330,6.126 5.400,6.000 5.400 C 5.878 5.400,5.602 5.332,5.464 5.267 C 5.385 5.230,5.297 5.160,5.180 5.042 C 4.967 4.827,4.871 4.649,4.838 4.410 C 4.778 3.975,4.899 3.611,5.195 3.338 C 5.426 3.124,5.679 3.021,5.974 3.021 C 6.075 3.020,6.206 3.030,6.264 3.042 M3.507 9.639 C 3.338 9.655,3.247 9.707,3.138 9.855 C 3.041 9.984,3.015 10.058,3.014 10.205 C 3.013 10.369,3.067 10.490,3.206 10.628 C 3.296 10.719,3.332 10.740,3.432 10.763 C 3.606 10.803,8.394 10.803,8.568 10.763 C 8.668 10.740,8.704 10.719,8.791 10.631 C 8.944 10.479,8.980 10.396,8.980 10.200 C 8.980 10.014,8.954 9.939,8.846 9.808 C 8.736 9.676,8.690 9.658,8.402 9.639 C 8.112 9.619,3.722 9.619,3.507 9.639 " fill="#1A1C1F" stroke="none" fill-rule="evenodd"></path></svg>