<svg width="20" height="20" viewBox="0 0 20 20" fill="none" xmlns="http://www.w3.org/2000/svg"><path d="M9.500 2.035 C 8.715 2.100,7.731 2.441,7.095 2.869 C 6.375 3.353,5.757 4.045,5.449 4.712 C 5.135 5.392,5.028 5.887,5.028 6.667 C 5.027 7.536,5.158 8.035,5.613 8.917 C 5.919 9.507,7.187 11.513,8.510 13.500 C 9.487 14.967,9.470 14.950,10.000 14.950 C 10.441 14.950,10.538 14.890,10.874 14.410 C 11.446 13.594,13.381 10.616,14.026 9.560 C 14.492 8.797,14.795 8.101,14.917 7.510 C 14.998 7.118,14.991 6.179,14.905 5.766 C 14.571 4.173,13.393 2.877,11.760 2.305 C 11.143 2.088,10.206 1.976,9.500 2.035 M10.589 4.069 C 11.376 4.176,12.130 4.630,12.531 5.237 C 12.828 5.689,12.935 5.993,12.957 6.449 C 12.967 6.656,12.959 6.926,12.937 7.067 C 12.867 7.528,12.547 8.095,11.189 10.167 C 10.264 11.579,10.036 11.906,9.988 11.891 C 9.946 11.878,9.202 10.777,8.485 9.667 C 7.481 8.112,7.221 7.655,7.114 7.264 C 7.043 7.004,7.018 6.461,7.063 6.167 C 7.104 5.900,7.280 5.488,7.471 5.211 C 7.825 4.695,8.554 4.236,9.250 4.088 C 9.528 4.029,10.224 4.019,10.589 4.069 M9.625 6.079 C 9.106 6.272,8.861 6.912,9.108 7.431 C 9.191 7.606,9.395 7.812,9.582 7.910 C 9.771 8.009,10.187 8.009,10.405 7.910 C 10.603 7.821,10.820 7.604,10.911 7.405 C 11.012 7.184,11.009 6.808,10.905 6.594 C 10.804 6.388,10.623 6.207,10.436 6.123 C 10.241 6.036,9.804 6.012,9.625 6.079 M5.844 16.065 C 5.663 16.082,5.574 16.109,5.477 16.176 C 5.332 16.277,5.133 16.528,5.068 16.692 C 5.007 16.847,5.012 17.191,5.079 17.347 C 5.159 17.534,5.426 17.833,5.565 17.892 C 5.751 17.970,6.860 17.997,10.017 17.997 C 13.149 17.997,14.248 17.971,14.435 17.892 C 14.567 17.836,14.807 17.581,14.903 17.393 C 14.982 17.238,14.991 16.790,14.918 16.616 C 14.854 16.461,14.639 16.206,14.521 16.144 C 14.464 16.114,14.262 16.082,14.021 16.065 C 13.560 16.031,6.208 16.032,5.844 16.065 " fill="#1A1C1F" stroke="none" fill-rule="evenodd"></path></svg>