<svg width="20" height="20" viewBox="0 0 20 20" fill="none" xmlns="http://www.w3.org/2000/svg"><path d="M9.489 2.033 C 8.386 2.139,7.352 2.583,6.558 3.290 C 5.915 3.863,5.537 4.401,5.285 5.100 C 4.913 6.133,4.930 7.316,5.332 8.342 C 5.504 8.783,5.770 9.247,6.627 10.600 C 8.013 12.789,9.102 14.428,9.347 14.694 C 9.588 14.956,9.892 15.048,10.238 14.966 C 10.604 14.879,10.860 14.532,12.773 11.533 C 14.584 8.696,14.610 8.648,14.885 7.650 C 14.958 7.386,14.992 6.203,14.935 5.880 C 14.879 5.557,14.715 5.063,14.550 4.717 C 14.251 4.090,13.663 3.407,13.049 2.972 C 12.689 2.717,12.066 2.406,11.633 2.266 C 11.018 2.066,10.138 1.971,9.489 2.033 M10.440 5.070 C 11.040 5.193,11.626 5.719,11.866 6.350 C 11.961 6.599,11.996 7.147,11.935 7.428 C 11.861 7.771,11.678 8.090,11.384 8.388 C 10.971 8.806,10.565 8.980,10.000 8.980 C 9.433 8.980,8.989 8.787,8.588 8.368 C 8.159 7.918,7.998 7.456,8.047 6.809 C 8.083 6.325,8.290 5.903,8.658 5.563 C 9.043 5.207,9.464 5.036,9.957 5.034 C 10.125 5.034,10.343 5.050,10.440 5.070 M5.844 16.065 C 5.663 16.082,5.574 16.109,5.477 16.176 C 5.332 16.277,5.133 16.528,5.068 16.692 C 5.007 16.847,5.012 17.191,5.079 17.347 C 5.159 17.534,5.426 17.833,5.565 17.892 C 5.751 17.970,6.860 17.997,10.017 17.997 C 13.149 17.997,14.248 17.971,14.435 17.892 C 14.567 17.836,14.807 17.581,14.903 17.393 C 14.982 17.238,14.991 16.790,14.918 16.616 C 14.854 16.461,14.639 16.206,14.521 16.144 C 14.464 16.114,14.262 16.082,14.021 16.065 C 13.560 16.031,6.208 16.032,5.844 16.065 " fill="#1A1C1F" stroke="none" fill-rule="evenodd"></path></svg>