<svg width="32" height="32" viewBox="0 0 32 32" fill="none" xmlns="http://www.w3.org/2000/svg"><path d="M14.480 2.166 C 13.474 2.347,12.433 2.777,11.497 3.399 C 10.845 3.832,9.913 4.742,9.466 5.383 C 9.046 5.984,8.590 6.896,8.383 7.548 C 8.098 8.447,8.039 8.941,8.067 10.213 C 8.089 11.257,8.102 11.376,8.258 11.959 C 8.583 13.178,8.892 13.845,10.157 16.047 C 11.234 17.925,14.709 23.801,15.074 24.363 C 15.417 24.892,15.574 24.983,16.088 24.950 C 16.498 24.924,16.554 24.878,16.987 24.213 C 17.762 23.024,22.548 14.841,23.047 13.853 C 23.381 13.191,23.688 12.259,23.868 11.360 C 24.009 10.660,23.996 9.038,23.845 8.400 C 23.582 7.288,23.201 6.387,22.630 5.524 C 22.160 4.815,21.221 3.871,20.533 3.418 C 19.549 2.770,18.256 2.252,17.331 2.136 C 16.689 2.056,14.996 2.073,14.480 2.166 M17.559 4.206 C 19.504 4.725,20.976 6.119,21.621 8.053 C 21.863 8.780,21.919 9.150,21.919 10.027 C 21.919 11.211,21.745 11.943,21.204 13.040 C 20.642 14.178,16.150 21.808,16.016 21.852 C 15.938 21.878,14.130 18.854,11.721 14.667 C 10.204 12.030,10.039 11.527,10.094 9.690 C 10.125 8.638,10.213 8.222,10.556 7.488 C 11.370 5.753,12.857 4.558,14.706 4.156 C 15.358 4.014,16.943 4.042,17.559 4.206 M15.490 8.100 C 14.767 8.289,14.180 8.952,14.028 9.751 C 13.884 10.512,14.389 11.404,15.186 11.797 C 15.499 11.951,15.585 11.969,15.995 11.969 C 16.377 11.968,16.504 11.945,16.760 11.827 C 17.160 11.643,17.596 11.226,17.791 10.841 C 17.932 10.561,17.946 10.485,17.946 10.000 C 17.945 9.368,17.852 9.128,17.431 8.667 C 17.056 8.257,16.722 8.106,16.127 8.079 C 15.866 8.067,15.580 8.076,15.490 8.100 M9.811 28.047 C 8.423 28.083,8.383 28.093,8.166 28.444 C 7.862 28.935,8.033 29.568,8.551 29.871 L 8.827 30.032 16.027 30.015 C 23.078 29.998,23.231 29.996,23.439 29.892 C 23.743 29.741,23.967 29.360,23.971 28.987 C 23.973 28.755,23.944 28.662,23.813 28.476 C 23.488 28.016,24.160 28.061,17.227 28.036 C 13.839 28.024,10.502 28.029,9.811 28.047 " fill="#1A1C1F" stroke="none" fill-rule="evenodd"></path></svg>