<svg width="28" height="28" viewBox="0 0 28 28" fill="none" xmlns="http://www.w3.org/2000/svg"><path d="M23.427 3.260 C 22.240 3.773,9.671 9.476,6.184 11.083 C 3.370 12.379,3.201 12.466,3.060 12.682 C 2.821 13.047,2.787 13.608,2.981 13.988 C 3.117 14.255,3.473 14.594,3.677 14.653 C 3.789 14.685,5.519 14.718,8.559 14.748 C 11.150 14.773,13.278 14.802,13.288 14.813 C 13.299 14.824,13.322 16.908,13.340 19.444 L 13.372 24.057 13.476 24.254 C 13.743 24.758,14.181 25.038,14.700 25.035 C 15.205 25.032,15.571 24.803,15.849 24.313 C 16.136 23.808,24.606 5.262,24.984 4.311 C 25.180 3.819,25.190 3.698,25.056 3.421 C 24.922 3.145,24.649 2.987,24.309 2.987 C 24.105 2.987,23.936 3.040,23.427 3.260 M22.480 5.658 C 22.403 5.846,15.776 20.302,15.511 20.859 L 15.190 21.534 15.161 20.672 C 15.145 20.198,15.129 18.621,15.126 17.168 L 15.120 14.526 14.958 14.203 C 14.758 13.803,14.380 13.413,13.989 13.204 L 13.697 13.048 12.203 13.014 C 11.382 12.996,9.750 12.979,8.578 12.977 C 7.387 12.975,6.434 12.955,6.420 12.932 C 6.406 12.909,9.287 11.577,12.822 9.971 C 16.357 8.366,19.964 6.727,20.837 6.330 C 21.709 5.932,22.441 5.605,22.463 5.604 C 22.485 5.602,22.493 5.626,22.480 5.658 " fill="#1A1C1F" stroke="none" fill-rule="evenodd"></path></svg>