<svg width="14" height="14" viewBox="0 0 14 14" fill="none" xmlns="http://www.w3.org/2000/svg"><path d="M6.312 1.321 C 5.027 1.550,3.966 2.438,3.573 3.613 C 3.287 4.466,3.397 5.429,3.878 6.288 C 4.048 6.591,4.550 7.391,5.351 8.633 C 6.476 10.379,6.485 10.392,6.683 10.495 C 6.784 10.549,6.831 10.558,7.000 10.558 C 7.177 10.558,7.212 10.551,7.325 10.488 C 7.396 10.449,7.492 10.368,7.545 10.302 C 7.658 10.160,8.056 9.555,8.844 8.330 C 10.136 6.320,10.230 6.157,10.405 5.632 C 10.533 5.251,10.577 4.980,10.578 4.585 C 10.578 3.497,10.042 2.525,9.090 1.886 C 8.606 1.562,8.084 1.368,7.532 1.308 C 7.213 1.273,6.538 1.280,6.312 1.321 M7.210 2.730 C 7.715 2.767,8.058 2.891,8.420 3.168 C 8.887 3.525,9.124 3.991,9.130 4.562 C 9.135 5.122,9.065 5.261,7.822 7.175 C 7.247 8.060,7.030 8.377,6.999 8.377 C 6.975 8.377,6.450 7.597,5.845 6.662 C 5.147 5.583,5.041 5.398,4.943 5.086 C 4.895 4.934,4.888 4.865,4.889 4.550 C 4.889 4.207,4.893 4.178,4.960 3.989 C 5.052 3.731,5.169 3.555,5.403 3.325 C 5.784 2.950,6.266 2.745,6.848 2.710 C 6.874 2.708,7.037 2.717,7.210 2.730 M6.802 4.163 C 6.480 4.264,6.291 4.515,6.291 4.842 C 6.290 5.123,6.431 5.359,6.669 5.476 C 6.783 5.533,6.829 5.542,7.000 5.541 C 7.241 5.540,7.368 5.490,7.522 5.336 C 7.645 5.213,7.700 5.060,7.700 4.842 C 7.700 4.460,7.497 4.230,7.094 4.154 C 6.942 4.125,6.919 4.125,6.802 4.163 M4.013 11.336 C 3.814 11.360,3.590 11.540,3.472 11.769 C 3.367 11.973,3.434 12.311,3.617 12.502 C 3.743 12.633,3.863 12.690,4.066 12.717 C 4.163 12.729,5.464 12.739,7.128 12.739 L 10.021 12.740 10.146 12.677 C 10.419 12.539,10.569 12.311,10.570 12.034 C 10.570 11.757,10.458 11.548,10.239 11.418 L 10.115 11.344 7.128 11.332 C 5.486 11.326,4.084 11.328,4.013 11.336 " fill="#1A1C1F" stroke="none" fill-rule="evenodd"></path></svg>