<svg width="14" height="14" viewBox="0 0 14 14" fill="none" xmlns="http://www.w3.org/2000/svg"><path d="M11.457 1.875 C 11.274 1.942,10.920 2.095,9.613 2.672 C 7.692 3.519,2.794 5.704,2.333 5.919 C 1.966 6.090,1.843 6.248,1.825 6.569 C 1.812 6.813,1.866 6.948,2.044 7.117 C 2.270 7.330,2.062 7.313,4.509 7.322 L 6.673 7.330 6.674 9.143 C 6.675 10.925,6.692 11.564,6.744 11.748 C 6.781 11.879,6.985 12.069,7.158 12.134 C 7.263 12.174,7.326 12.182,7.455 12.174 C 7.661 12.161,7.774 12.105,7.926 11.939 C 8.055 11.797,8.079 11.745,10.664 5.915 C 12.208 2.433,12.166 2.533,12.167 2.318 C 12.168 2.169,12.161 2.140,12.098 2.051 C 12.018 1.937,11.869 1.852,11.713 1.832 C 11.635 1.823,11.569 1.834,11.457 1.875 " fill="#1A1C1F" stroke="none" fill-rule="evenodd"></path></svg>