<svg width="20" height="20" viewBox="0 0 20 20" fill="none" xmlns="http://www.w3.org/2000/svg"><path d="M9.607 2.064 C 9.397 2.163,9.114 2.460,9.062 2.637 C 9.030 2.744,9.018 3.077,9.018 3.867 C 9.017 4.933,9.018 4.952,9.093 5.093 C 9.280 5.444,9.601 5.644,9.980 5.645 C 10.296 5.647,10.446 5.590,10.661 5.387 C 10.991 5.075,10.983 5.114,10.983 3.850 C 10.983 3.017,10.973 2.719,10.939 2.624 C 10.883 2.466,10.623 2.197,10.431 2.098 C 10.219 1.989,9.805 1.972,9.607 2.064 M9.655 7.047 C 9.469 7.116,9.344 7.251,9.218 7.517 C 9.103 7.760,8.352 9.684,7.117 12.900 C 6.057 15.657,5.605 16.873,5.548 17.118 C 5.478 17.420,5.519 17.557,5.748 17.786 C 5.945 17.983,6.046 18.017,6.365 17.994 C 6.548 17.980,6.576 17.966,6.772 17.794 C 6.888 17.692,7.662 16.937,8.492 16.118 L 10.000 14.627 11.542 16.151 C 12.390 16.989,13.164 17.745,13.263 17.829 L 13.443 17.983 13.733 17.983 C 13.999 17.983,14.032 17.976,14.147 17.888 C 14.512 17.609,14.550 17.367,14.331 16.722 C 14.185 16.294,13.374 14.164,12.134 10.950 C 11.071 8.197,10.776 7.457,10.690 7.332 C 10.650 7.273,10.557 7.182,10.483 7.130 C 10.369 7.048,10.309 7.032,10.067 7.016 C 9.863 7.004,9.747 7.012,9.655 7.047 " fill="#1A1C1F" stroke="none" fill-rule="evenodd"></path></svg>