<svg width="28" height="28" viewBox="0 0 28 28" fill="none" xmlns="http://www.w3.org/2000/svg"><path d="M12.577 1.912 C 11.242 2.180,10.040 2.832,9.052 3.823 C 8.237 4.640,7.752 5.418,7.376 6.507 C 7.078 7.371,7.036 7.687,7.057 8.884 C 7.075 9.869,7.083 9.942,7.225 10.469 C 7.410 11.154,7.676 11.842,8.002 12.475 C 8.378 13.204,12.855 20.835,13.249 21.416 C 13.456 21.722,13.677 21.850,13.997 21.847 C 14.298 21.845,14.478 21.747,14.676 21.477 C 15.027 20.996,18.684 14.791,19.852 12.694 C 20.396 11.717,20.644 11.065,20.865 10.033 C 21.005 9.377,21.005 7.944,20.864 7.350 C 20.515 5.875,19.937 4.811,18.950 3.823 C 18.349 3.222,17.806 2.835,17.057 2.474 C 16.458 2.186,15.664 1.932,15.165 1.869 C 14.526 1.789,13.069 1.813,12.577 1.912 M15.364 3.681 C 17.066 4.134,18.354 5.354,18.918 7.047 C 19.130 7.683,19.179 8.006,19.179 8.773 C 19.179 9.835,19.027 10.455,18.514 11.480 C 17.912 12.684,14.114 19.110,14.004 19.110 C 13.918 19.110,12.586 16.881,10.489 13.230 C 9.483 11.479,9.161 10.842,8.977 10.243 C 8.851 9.836,8.847 9.791,8.848 8.750 C 8.848 7.499,8.894 7.260,9.284 6.460 C 10.012 4.969,11.320 3.955,12.956 3.616 C 13.446 3.515,14.887 3.553,15.364 3.681 M13.463 7.101 C 12.853 7.333,12.398 7.880,12.275 8.532 C 12.149 9.198,12.590 9.979,13.288 10.322 C 13.562 10.457,13.637 10.473,13.996 10.473 C 14.330 10.472,14.441 10.452,14.665 10.349 C 15.015 10.187,15.396 9.823,15.567 9.486 C 15.690 9.242,15.703 9.173,15.703 8.750 C 15.703 8.327,15.690 8.258,15.567 8.014 C 15.407 7.698,15.017 7.312,14.730 7.185 C 14.478 7.073,13.675 7.020,13.463 7.101 M8.750 24.543 C 8.037 24.562,7.486 24.597,7.414 24.628 C 7.251 24.697,7.105 24.891,7.043 25.120 C 6.936 25.517,7.131 25.944,7.514 26.152 L 7.755 26.284 14.039 26.266 C 20.190 26.248,20.327 26.246,20.509 26.156 C 20.775 26.024,20.971 25.690,20.974 25.363 C 20.976 25.160,20.951 25.079,20.837 24.917 C 20.551 24.513,21.124 24.552,15.213 24.530 C 12.326 24.519,9.417 24.525,8.750 24.543 " fill="#1A1C1F" stroke="none" fill-rule="evenodd"></path></svg>