<svg width="16" height="16" viewBox="0 0 16 16" fill="none" xmlns="http://www.w3.org/2000/svg"><path d="M13.027 2.190 C 12.715 2.297,3.210 6.540,2.639 6.827 C 2.266 7.015,2.135 7.202,2.134 7.548 C 2.133 7.711,2.146 7.775,2.201 7.885 C 2.285 8.053,2.517 8.277,2.656 8.323 C 2.737 8.350,3.293 8.360,5.203 8.367 L 7.647 8.376 7.659 10.834 C 7.670 12.950,7.677 13.306,7.712 13.387 C 7.762 13.503,8.002 13.742,8.131 13.804 C 8.261 13.866,8.583 13.866,8.765 13.804 C 8.936 13.746,9.082 13.594,9.209 13.341 C 9.356 13.050,10.884 9.627,12.646 5.640 C 13.892 2.821,13.909 2.781,13.876 2.643 C 13.823 2.422,13.628 2.213,13.427 2.163 C 13.267 2.123,13.212 2.126,13.027 2.190 " fill="#1A1C1F" stroke="none" fill-rule="evenodd"></path></svg>