<svg width="16" height="16" viewBox="0 0 16 16" fill="none" xmlns="http://www.w3.org/2000/svg"><path d="M7.655 1.591 C 7.575 1.630,7.460 1.712,7.400 1.772 C 7.249 1.922,7.208 2.089,7.175 2.664 C 7.160 2.920,7.139 3.138,7.128 3.149 C 7.116 3.160,6.983 3.200,6.832 3.238 C 5.923 3.466,5.124 3.928,4.494 4.591 C 4.050 5.057,3.799 5.418,3.555 5.940 C 3.428 6.211,3.230 6.783,3.172 7.047 L 3.138 7.200 2.613 7.200 L 2.088 7.200 1.930 7.302 C 1.645 7.486,1.519 7.694,1.517 7.982 C 1.516 8.075,1.531 8.203,1.550 8.266 C 1.591 8.404,1.806 8.648,1.950 8.722 C 2.072 8.784,2.428 8.826,2.844 8.826 L 3.141 8.827 3.188 9.020 C 3.504 10.326,4.209 11.342,5.314 12.085 C 5.775 12.395,6.438 12.678,6.926 12.774 C 7.018 12.792,7.105 12.822,7.121 12.841 C 7.136 12.860,7.160 13.074,7.173 13.316 C 7.209 13.971,7.232 14.053,7.444 14.259 C 7.766 14.571,8.234 14.571,8.556 14.259 C 8.768 14.052,8.790 13.978,8.825 13.318 C 8.844 12.963,8.858 12.862,8.891 12.839 C 8.913 12.822,9.061 12.775,9.219 12.734 C 10.432 12.423,11.517 11.623,12.194 10.543 C 12.422 10.181,12.658 9.602,12.800 9.060 L 12.861 8.827 13.157 8.826 C 13.825 8.824,14.057 8.770,14.251 8.570 C 14.408 8.409,14.480 8.233,14.480 8.013 C 14.480 7.754,14.419 7.590,14.269 7.440 C 14.069 7.242,14.029 7.231,13.408 7.210 L 12.860 7.192 12.827 7.043 C 12.717 6.550,12.442 5.868,12.188 5.454 C 11.796 4.817,11.237 4.254,10.600 3.854 C 10.136 3.563,9.539 3.312,9.073 3.211 L 8.860 3.166 8.843 3.046 C 8.834 2.980,8.826 2.841,8.826 2.736 C 8.825 2.421,8.778 2.059,8.722 1.953 C 8.656 1.824,8.498 1.675,8.347 1.598 C 8.259 1.554,8.168 1.535,8.013 1.528 C 7.825 1.520,7.783 1.527,7.655 1.591 M8.338 4.799 C 8.663 4.820,8.758 4.837,9.005 4.920 C 10.072 5.276,10.876 6.147,11.153 7.246 C 11.204 7.447,11.212 7.550,11.211 7.973 C 11.209 8.650,11.141 8.967,10.892 9.454 C 10.433 10.355,9.620 10.973,8.613 11.189 C 8.302 11.256,7.698 11.256,7.388 11.189 C 7.102 11.128,6.805 11.029,6.600 10.927 C 6.163 10.709,5.693 10.322,5.411 9.948 C 5.243 9.725,5.013 9.278,4.901 8.957 L 4.813 8.707 4.813 8.000 C 4.813 7.295,4.813 7.293,4.889 7.067 C 5.080 6.496,5.321 6.109,5.744 5.693 C 6.074 5.370,6.354 5.179,6.739 5.015 C 7.264 4.791,7.573 4.750,8.338 4.799 M7.511 6.465 C 7.187 6.580,6.833 6.853,6.632 7.145 C 6.587 7.210,6.517 7.360,6.475 7.479 C 6.411 7.663,6.401 7.735,6.400 7.988 C 6.400 8.506,6.494 8.735,6.866 9.110 C 7.181 9.428,7.416 9.551,7.807 9.601 C 8.821 9.730,9.742 8.805,9.601 7.798 C 9.530 7.288,9.176 6.793,8.712 6.556 C 8.392 6.393,7.836 6.351,7.511 6.465 " fill="#1A1C1F" stroke="none" fill-rule="evenodd"></path></svg>