<svg width="14" height="14" viewBox="0 0 14 14" fill="none" xmlns="http://www.w3.org/2000/svg"><path d="M6.664 1.335 C 6.513 1.418,6.370 1.578,6.319 1.721 C 6.296 1.787,6.288 1.991,6.288 2.543 C 6.288 2.948,6.296 3.316,6.306 3.362 C 6.331 3.479,6.448 3.648,6.562 3.732 C 6.614 3.770,6.726 3.825,6.810 3.853 C 6.950 3.899,6.976 3.901,7.103 3.875 C 7.180 3.859,7.280 3.827,7.325 3.803 C 7.444 3.742,7.596 3.577,7.658 3.442 C 7.710 3.328,7.712 3.308,7.711 2.590 C 7.711 1.727,7.699 1.660,7.525 1.486 C 7.367 1.328,7.237 1.273,7.000 1.265 C 6.814 1.259,6.793 1.264,6.664 1.335 M6.767 4.869 C 6.629 4.927,6.524 5.031,6.457 5.177 C 6.341 5.433,4.424 10.375,4.113 11.223 C 3.824 12.010,3.746 12.307,3.802 12.412 C 3.854 12.508,3.998 12.650,4.093 12.698 C 4.222 12.764,4.469 12.768,4.564 12.706 C 4.648 12.651,5.135 12.178,6.187 11.133 L 6.996 10.329 8.159 11.478 C 8.798 12.110,9.369 12.655,9.426 12.689 C 9.689 12.844,10.073 12.698,10.188 12.398 C 10.267 12.191,10.297 12.277,8.699 8.122 C 7.501 5.007,7.511 5.030,7.331 4.919 C 7.261 4.875,7.207 4.865,7.024 4.860 C 6.902 4.857,6.786 4.861,6.767 4.869 " fill="#1A1C1F" stroke="none" fill-rule="evenodd"></path></svg>