<svg width="20" height="20" viewBox="0 0 20 20" fill="none" xmlns="http://www.w3.org/2000/svg"><path d="M16.017 2.923 C 15.870 2.989,14.985 3.379,14.050 3.791 C 10.784 5.230,3.715 8.375,3.460 8.503 C 3.134 8.667,2.991 8.794,2.884 9.013 C 2.641 9.509,2.821 10.039,3.336 10.342 L 3.548 10.467 6.555 10.467 L 9.561 10.467 9.572 13.475 C 9.583 16.454,9.584 16.485,9.654 16.636 C 9.880 17.125,10.504 17.353,10.981 17.119 C 11.222 17.001,11.359 16.829,11.570 16.380 C 12.327 14.768,16.722 4.867,17.066 4.000 C 17.226 3.597,17.246 3.503,17.202 3.341 C 17.113 3.011,16.832 2.801,16.483 2.803 C 16.328 2.804,16.224 2.831,16.017 2.923 M13.990 6.042 C 13.959 6.119,11.695 11.215,11.640 11.333 C 11.586 11.449,11.585 11.444,11.564 10.933 C 11.552 10.649,11.540 9.985,11.538 9.458 L 11.533 8.500 10.125 8.500 C 9.350 8.499,8.682 8.490,8.640 8.479 C 8.569 8.459,8.568 8.456,8.624 8.416 C 8.700 8.363,9.836 7.845,11.800 6.968 C 12.652 6.587,13.485 6.215,13.650 6.141 C 13.983 5.991,14.015 5.981,13.990 6.042 " fill="#1A1C1F" stroke="none" fill-rule="evenodd"></path></svg>