<svg width="12" height="12" viewBox="0 0 12 12" fill="none" xmlns="http://www.w3.org/2000/svg"><path d="M5.552 1.110 C 4.527 1.256,3.654 1.859,3.220 2.720 C 2.865 3.425,2.833 4.176,3.123 4.959 C 3.256 5.316,3.363 5.495,4.476 7.230 C 5.187 8.337,5.469 8.759,5.583 8.888 C 5.720 9.044,5.960 9.099,6.196 9.029 C 6.396 8.970,6.471 8.869,7.504 7.260 C 8.496 5.715,8.695 5.389,8.811 5.118 C 9.168 4.285,9.157 3.473,8.780 2.717 C 8.421 1.998,7.710 1.424,6.912 1.208 C 6.550 1.111,5.885 1.062,5.552 1.110 M6.420 2.363 C 6.695 2.400,7.069 2.576,7.293 2.772 C 7.655 3.090,7.820 3.447,7.820 3.908 C 7.819 4.394,7.784 4.469,6.994 5.700 C 6.393 6.636,6.015 7.199,5.996 7.187 C 5.975 7.175,5.551 6.542,5.147 5.920 C 4.219 4.495,4.190 4.432,4.191 3.890 C 4.191 3.608,4.195 3.580,4.252 3.419 C 4.285 3.325,4.348 3.195,4.391 3.129 C 4.504 2.956,4.768 2.705,4.957 2.592 C 5.156 2.473,5.456 2.368,5.670 2.343 C 5.846 2.322,6.188 2.331,6.420 2.363 M5.746 3.599 C 5.557 3.685,5.422 3.869,5.390 4.082 C 5.363 4.265,5.470 4.526,5.616 4.634 C 5.748 4.731,5.805 4.749,5.990 4.749 C 6.148 4.750,6.184 4.743,6.284 4.694 C 6.510 4.583,6.613 4.388,6.596 4.101 C 6.576 3.757,6.353 3.559,5.985 3.560 C 5.876 3.561,5.805 3.572,5.746 3.599 M3.439 9.717 C 3.269 9.737,3.077 9.891,2.976 10.088 C 2.850 10.331,3.003 10.722,3.274 10.851 C 3.390 10.906,3.909 10.917,6.402 10.919 L 8.594 10.920 8.692 10.868 C 8.927 10.745,9.059 10.546,9.060 10.316 C 9.060 10.073,8.957 9.889,8.755 9.772 L 8.670 9.724 6.110 9.713 C 4.702 9.708,3.500 9.709,3.439 9.717 " fill="#1A1C1F" stroke="none" fill-rule="evenodd"></path></svg>