<svg width="32" height="32" viewBox="0 0 32 32" fill="none" xmlns="http://www.w3.org/2000/svg"><path d="M15.813 2.612 C 15.565 2.668,15.442 2.751,15.200 3.026 L 14.975 3.280 14.997 4.853 C 15.022 6.608,15.020 6.598,15.404 6.945 C 15.781 7.286,16.294 7.265,16.648 6.894 C 16.984 6.543,16.980 6.569,17.003 4.853 L 17.025 3.280 16.800 3.025 C 16.477 2.660,16.169 2.530,15.813 2.612 M15.535 8.742 C 15.211 8.945,15.203 8.964,13.787 12.667 C 12.097 17.088,8.481 26.772,8.132 27.811 C 7.975 28.279,7.984 28.482,8.177 28.828 C 8.394 29.216,9.019 29.517,9.407 29.420 C 9.685 29.350,10.296 28.791,12.922 26.201 C 14.424 24.719,15.731 23.447,15.827 23.374 L 16.000 23.241 16.173 23.375 C 16.269 23.448,17.547 24.691,19.013 26.136 C 22.168 29.245,22.302 29.365,22.642 29.416 C 23.130 29.490,23.623 29.216,23.859 28.741 C 23.937 28.586,24.000 28.407,24.000 28.343 C 24.000 28.112,23.337 26.285,20.826 19.600 C 17.988 12.043,16.895 9.202,16.759 9.019 C 16.568 8.764,16.390 8.673,16.039 8.653 C 15.776 8.638,15.671 8.656,15.535 8.742 M16.107 12.840 C 16.265 13.196,17.612 16.739,19.012 20.480 C 20.525 24.524,20.605 24.746,20.574 24.777 C 20.559 24.792,19.926 24.197,19.166 23.455 C 16.492 20.847,16.500 20.853,16.000 20.853 C 15.500 20.853,15.500 20.853,12.857 23.432 C 12.079 24.190,11.435 24.786,11.426 24.757 C 11.402 24.686,11.863 23.427,13.340 19.531 C 14.015 17.750,14.883 15.459,15.267 14.440 C 15.652 13.421,15.974 12.587,15.981 12.587 C 15.989 12.587,16.046 12.701,16.107 12.840 " fill="#1A1C1F" stroke="none" fill-rule="evenodd"></path></svg>