<svg width="16" height="16" viewBox="0 0 16 16" fill="none" xmlns="http://www.w3.org/2000/svg"><path d="M13.067 2.177 C 12.799 2.272,9.769 3.614,5.533 5.514 C 2.531 6.861,2.427 6.910,2.302 7.044 C 2.230 7.121,2.146 7.314,2.122 7.455 C 2.072 7.759,2.359 8.224,2.658 8.324 C 2.737 8.350,3.316 8.360,5.203 8.367 L 7.647 8.376 7.659 10.834 C 7.670 12.950,7.677 13.306,7.712 13.387 C 7.762 13.503,8.002 13.742,8.130 13.803 C 8.250 13.860,8.554 13.866,8.728 13.816 C 8.806 13.794,8.906 13.734,8.984 13.664 C 9.101 13.559,9.142 13.484,9.439 12.834 C 10.420 10.690,13.523 3.690,13.785 3.031 C 13.898 2.746,13.886 2.543,13.745 2.356 C 13.615 2.184,13.289 2.098,13.067 2.177 M11.249 4.770 C 11.185 4.939,9.289 9.173,9.278 9.173 C 9.256 9.173,9.227 8.171,9.227 7.409 L 9.227 6.773 8.047 6.773 C 7.398 6.773,6.851 6.763,6.832 6.750 C 6.797 6.728,7.258 6.516,10.053 5.268 C 10.691 4.984,11.223 4.750,11.236 4.749 C 11.248 4.748,11.254 4.757,11.249 4.770 " fill="#1A1C1F" stroke="none" fill-rule="evenodd"></path></svg>