<svg width="28" height="28" viewBox="0 0 28 28" fill="none" xmlns="http://www.w3.org/2000/svg"><path d="M13.837 2.285 C 13.619 2.335,13.512 2.407,13.300 2.647 L 13.103 2.870 13.122 4.247 C 13.144 5.782,13.142 5.773,13.478 6.077 C 13.809 6.375,14.257 6.357,14.567 6.033 C 14.859 5.727,14.856 5.747,14.877 4.247 L 14.897 2.870 14.700 2.647 C 14.417 2.327,14.148 2.214,13.837 2.285 M13.617 7.632 C 13.276 7.817,13.355 7.621,9.777 17.150 C 6.897 24.821,6.979 24.584,7.055 24.939 C 7.167 25.464,7.667 25.818,8.188 25.739 C 8.485 25.695,8.598 25.592,11.363 22.869 C 12.647 21.604,13.765 20.517,13.848 20.453 L 14.000 20.336 14.152 20.453 C 14.235 20.517,15.382 21.633,16.701 22.932 C 19.011 25.209,19.528 25.682,19.769 25.742 C 20.109 25.827,20.634 25.574,20.837 25.227 C 21.012 24.929,21.024 24.784,20.906 24.422 C 20.540 23.305,16.152 11.589,14.957 8.540 C 14.798 8.135,14.647 7.822,14.579 7.761 C 14.367 7.567,13.862 7.499,13.617 7.632 M14.094 11.235 C 14.232 11.547,15.410 14.646,16.635 17.920 C 17.959 21.459,18.030 21.652,18.002 21.680 C 17.990 21.693,17.435 21.172,16.770 20.523 C 14.431 18.241,14.438 18.247,14.000 18.247 C 13.563 18.247,13.570 18.241,11.249 20.502 C 10.569 21.165,10.006 21.687,9.997 21.661 C 9.977 21.600,10.385 20.486,11.673 17.089 C 12.263 15.531,13.022 13.527,13.359 12.635 C 13.696 11.743,13.977 11.013,13.984 11.013 C 13.990 11.013,14.040 11.113,14.094 11.235 " fill="#1A1C1F" stroke="none" fill-rule="evenodd"></path></svg>