<svg width="12" height="12" viewBox="0 0 12 12" fill="none" xmlns="http://www.w3.org/2000/svg"><path d="M9.870 1.587 C 9.677 1.651,7.357 2.673,4.192 4.089 C 1.766 5.175,1.783 5.167,1.666 5.300 C 1.568 5.411,1.529 5.682,1.584 5.866 C 1.616 5.971,1.794 6.164,1.916 6.224 L 2.010 6.270 3.865 6.277 L 5.720 6.283 5.721 7.817 C 5.721 9.318,5.737 9.915,5.780 10.064 C 5.810 10.167,5.974 10.330,6.112 10.393 C 6.331 10.494,6.650 10.425,6.798 10.247 C 6.882 10.144,6.965 9.965,7.866 7.940 C 9.855 3.470,10.330 2.387,10.410 2.143 C 10.457 1.997,10.443 1.862,10.368 1.755 C 10.265 1.609,10.037 1.532,9.870 1.587 M8.442 3.585 C 8.416 3.653,7.019 6.803,6.991 6.857 C 6.970 6.897,6.964 6.847,6.953 6.539 C 6.946 6.338,6.940 5.928,6.940 5.627 L 6.940 5.080 6.010 5.080 C 5.497 5.080,5.080 5.072,5.080 5.063 C 5.080 5.053,5.343 4.927,5.665 4.783 C 7.372 4.016,8.432 3.543,8.445 3.542 C 8.452 3.541,8.451 3.560,8.442 3.585 " fill="#1A1C1F" stroke="none" fill-rule="evenodd"></path></svg>