<svg width="12" height="12" viewBox="0 0 12 12" fill="none" xmlns="http://www.w3.org/2000/svg"><path d="M9.870 1.587 C 9.677 1.651,7.357 2.673,4.192 4.089 C 1.766 5.175,1.783 5.167,1.666 5.300 C 1.568 5.411,1.529 5.682,1.584 5.866 C 1.616 5.971,1.794 6.164,1.916 6.224 L 2.010 6.270 3.865 6.277 L 5.720 6.283 5.720 7.797 C 5.721 9.284,5.738 9.917,5.780 10.064 C 5.810 10.167,5.974 10.330,6.112 10.393 C 6.331 10.494,6.650 10.425,6.798 10.247 C 6.882 10.144,6.965 9.965,7.866 7.940 C 9.855 3.470,10.330 2.387,10.410 2.143 C 10.457 1.997,10.443 1.862,10.368 1.755 C 10.265 1.609,10.037 1.532,9.870 1.587 " fill="#1A1C1F" stroke="none" fill-rule="evenodd"></path></svg>