<svg width="14" height="14" viewBox="0 0 14 14" fill="none" xmlns="http://www.w3.org/2000/svg"><path d="M6.708 1.328 C 6.563 1.395,6.425 1.529,6.356 1.671 C 6.296 1.793,6.292 1.823,6.282 2.213 C 6.275 2.439,6.262 2.647,6.252 2.675 C 6.238 2.711,6.199 2.732,6.109 2.753 C 5.925 2.794,5.498 2.936,5.288 3.026 C 4.718 3.269,4.153 3.680,3.738 4.153 C 3.267 4.691,2.954 5.319,2.732 6.174 L 2.707 6.269 2.260 6.284 C 1.837 6.297,1.806 6.301,1.685 6.361 C 1.411 6.495,1.273 6.708,1.272 7.000 C 1.271 7.288,1.391 7.480,1.673 7.646 C 1.783 7.710,1.794 7.712,2.235 7.724 C 2.593 7.734,2.690 7.743,2.707 7.770 C 2.718 7.789,2.745 7.878,2.767 7.968 C 2.828 8.221,2.972 8.609,3.112 8.899 C 3.436 9.568,3.950 10.154,4.585 10.580 C 5.011 10.866,5.418 11.047,5.979 11.201 C 6.185 11.257,6.253 11.285,6.254 11.314 C 6.256 11.567,6.308 12.173,6.336 12.269 C 6.382 12.428,6.518 12.578,6.693 12.664 C 6.804 12.718,6.853 12.728,7.000 12.726 C 7.215 12.723,7.354 12.667,7.497 12.525 C 7.679 12.342,7.701 12.268,7.725 11.745 C 7.736 11.493,7.749 11.284,7.752 11.280 C 7.756 11.276,7.880 11.240,8.027 11.200 C 8.392 11.101,8.605 11.026,8.862 10.907 C 9.569 10.578,10.338 9.868,10.761 9.153 C 10.946 8.841,11.154 8.300,11.265 7.840 C 11.284 7.760,11.288 7.758,11.423 7.743 C 11.499 7.735,11.651 7.727,11.760 7.725 C 12.203 7.719,12.389 7.659,12.563 7.465 C 12.683 7.333,12.723 7.228,12.725 7.035 C 12.729 6.730,12.587 6.482,12.337 6.360 C 12.223 6.304,12.184 6.299,11.754 6.285 L 11.293 6.269 11.269 6.174 C 11.049 5.319,10.749 4.715,10.263 4.155 C 9.712 3.520,8.795 2.964,7.987 2.776 C 7.874 2.749,7.772 2.718,7.759 2.705 C 7.747 2.693,7.730 2.484,7.721 2.241 C 7.707 1.846,7.699 1.786,7.651 1.687 C 7.572 1.523,7.397 1.362,7.252 1.319 C 7.084 1.269,6.825 1.273,6.708 1.328 M7.172 4.154 C 7.643 4.188,7.907 4.257,8.283 4.446 C 9.097 4.854,9.658 5.614,9.815 6.519 C 9.872 6.850,9.849 7.428,9.767 7.735 C 9.638 8.214,9.373 8.667,9.008 9.032 C 8.541 9.499,8.030 9.748,7.350 9.839 C 6.465 9.958,5.555 9.633,4.931 8.976 C 4.646 8.676,4.411 8.285,4.286 7.898 C 4.096 7.315,4.100 6.632,4.295 6.076 C 4.657 5.046,5.513 4.335,6.594 4.167 C 6.708 4.149,6.812 4.134,6.825 4.132 C 6.838 4.131,6.994 4.141,7.172 4.154 M6.720 5.601 C 6.649 5.613,6.503 5.667,6.394 5.720 C 6.133 5.849,5.829 6.142,5.721 6.372 C 5.407 7.036,5.623 7.783,6.250 8.199 C 6.460 8.339,6.658 8.402,6.930 8.417 C 7.355 8.439,7.680 8.310,7.993 7.994 C 8.280 7.704,8.392 7.459,8.415 7.070 C 8.448 6.518,8.183 6.047,7.677 5.757 C 7.425 5.613,7.028 5.548,6.720 5.601 " fill="#1A1C1F" stroke="none" fill-rule="evenodd"></path></svg>