<svg width="16" height="16" viewBox="0 0 16 16" fill="none" xmlns="http://www.w3.org/2000/svg"><path d="M7.227 1.564 C 5.191 1.874,3.690 3.275,3.243 5.283 C 2.971 6.510,3.174 7.666,3.903 9.027 C 4.108 9.409,4.314 9.731,4.995 10.733 C 6.427 12.843,7.431 14.264,7.553 14.355 C 7.780 14.525,8.202 14.530,8.434 14.368 C 8.532 14.299,8.720 14.048,9.311 13.200 C 10.414 11.616,11.805 9.537,12.039 9.123 C 12.401 8.483,12.703 7.667,12.811 7.038 C 13.041 5.705,12.585 4.127,11.674 3.102 C 11.048 2.397,10.168 1.877,9.223 1.654 C 8.661 1.522,7.769 1.481,7.227 1.564 M8.333 3.173 C 8.704 3.192,8.868 3.213,9.053 3.263 C 10.056 3.538,10.776 4.215,11.075 5.164 C 11.239 5.682,11.272 6.509,11.149 7.005 C 11.034 7.469,10.771 8.032,10.382 8.646 C 10.088 9.110,8.332 11.611,8.087 11.914 L 7.995 12.028 7.908 11.914 C 7.589 11.494,6.204 9.520,5.760 8.852 C 4.902 7.561,4.708 6.956,4.796 5.853 C 4.879 4.808,5.438 3.949,6.320 3.508 C 6.732 3.302,7.090 3.202,7.520 3.174 C 7.674 3.163,7.812 3.154,7.827 3.152 C 7.841 3.150,8.069 3.160,8.333 3.173 M7.630 4.803 C 7.290 4.860,6.846 5.185,6.635 5.534 C 6.509 5.740,6.400 6.066,6.382 6.290 C 6.364 6.513,6.445 6.872,6.566 7.104 C 6.695 7.350,7.055 7.700,7.307 7.823 C 7.593 7.964,7.893 8.019,8.160 7.980 C 8.605 7.915,8.858 7.784,9.166 7.458 C 9.437 7.172,9.548 6.943,9.600 6.560 C 9.643 6.246,9.602 5.992,9.463 5.707 C 9.249 5.268,8.764 4.879,8.335 4.802 C 8.151 4.769,7.835 4.769,7.630 4.803 " fill="#1A1C1F" stroke="none" fill-rule="evenodd"></path></svg>