<svg width="16" height="16" viewBox="0 0 16 16" fill="none" xmlns="http://www.w3.org/2000/svg"><path d="M4.987 1.686 C 4.506 1.907,2.236 3.047,1.933 3.220 C 1.714 3.344,1.682 3.373,1.593 3.524 L 1.493 3.692 1.494 8.799 L 1.494 13.907 1.572 14.043 C 1.733 14.323,2.012 14.489,2.320 14.488 C 2.534 14.488,2.719 14.405,4.252 13.625 L 5.610 12.934 7.852 13.678 C 9.085 14.088,10.188 14.442,10.303 14.466 C 10.496 14.505,10.526 14.505,10.663 14.466 C 10.802 14.426,12.947 13.354,13.796 12.900 C 14.240 12.663,14.323 12.599,14.427 12.419 L 14.506 12.280 14.505 7.760 C 14.504 3.332,14.487 2.068,14.428 1.906 C 14.400 1.830,14.199 1.651,14.053 1.573 C 14.014 1.552,13.865 1.532,13.693 1.525 L 13.399 1.514 11.893 2.267 L 10.387 3.020 10.187 2.954 C 8.733 2.471,6.325 1.686,6.076 1.613 C 5.833 1.543,5.706 1.520,5.551 1.520 C 5.357 1.520,5.328 1.529,4.987 1.686 M8.063 3.967 L 9.634 4.493 9.619 8.480 C 9.612 10.673,9.597 12.487,9.587 12.511 C 9.571 12.550,9.364 12.487,7.971 12.018 L 6.374 11.480 6.374 8.024 C 6.373 4.134,6.385 3.440,6.451 3.440 C 6.474 3.440,7.200 3.677,8.063 3.967 M12.868 5.053 C 12.878 5.801,12.878 7.575,12.867 8.995 L 12.847 11.576 12.050 11.975 L 11.253 12.374 11.253 8.393 L 11.253 4.413 12.033 4.023 C 12.546 3.767,12.819 3.643,12.831 3.663 C 12.840 3.680,12.857 4.305,12.868 5.053 M4.723 4.669 C 4.732 5.218,4.741 6.993,4.743 8.614 L 4.747 11.560 3.962 11.952 C 3.290 12.288,3.175 12.338,3.159 12.299 C 3.149 12.274,3.134 10.493,3.127 8.342 L 3.112 4.431 3.883 4.043 C 4.307 3.831,4.665 3.660,4.680 3.664 C 4.697 3.668,4.713 4.040,4.723 4.669 " fill="#1A1C1F" stroke="none" fill-rule="evenodd"></path></svg>