<svg width="14" height="14" viewBox="0 0 14 14" fill="none" xmlns="http://www.w3.org/2000/svg"><path d="M6.335 1.310 C 5.739 1.384,5.056 1.646,4.524 2.004 C 3.560 2.653,2.943 3.656,2.743 4.900 C 2.695 5.197,2.695 5.875,2.743 6.150 C 2.864 6.846,3.206 7.674,3.691 8.444 C 3.948 8.852,5.529 11.154,6.191 12.085 C 6.617 12.683,6.673 12.727,7.000 12.726 C 7.332 12.725,7.383 12.682,7.856 12.017 C 9.091 10.279,10.438 8.276,10.655 7.852 C 11.305 6.584,11.451 5.575,11.152 4.417 C 10.836 3.191,10.084 2.260,8.972 1.716 C 8.496 1.483,8.075 1.362,7.557 1.307 C 7.295 1.280,6.563 1.281,6.335 1.310 M7.474 4.222 C 7.898 4.386,8.259 4.770,8.365 5.170 C 8.410 5.337,8.417 5.750,8.378 5.915 C 8.292 6.280,7.927 6.716,7.583 6.865 C 7.526 6.890,7.389 6.932,7.280 6.958 C 7.027 7.018,6.820 7.005,6.549 6.912 C 6.199 6.791,5.939 6.564,5.727 6.192 L 5.623 6.009 5.624 5.589 C 5.625 5.298,5.635 5.141,5.657 5.080 C 5.793 4.699,6.182 4.335,6.603 4.196 C 6.793 4.133,7.283 4.148,7.474 4.222 " fill="#1A1C1F" stroke="none" fill-rule="evenodd"></path></svg>