<svg width="20" height="20" viewBox="0 0 20 20" fill="none" xmlns="http://www.w3.org/2000/svg"><path d="M9.440 2.038 C 7.021 2.236,5.057 3.769,4.320 6.033 C 3.974 7.095,3.913 8.012,4.120 9.032 C 4.289 9.865,4.687 10.841,5.207 11.700 C 5.740 12.580,8.180 16.144,9.095 17.380 C 9.380 17.765,9.432 17.818,9.598 17.896 C 9.847 18.013,10.143 18.016,10.394 17.903 C 10.545 17.835,10.609 17.775,10.813 17.503 C 11.507 16.583,14.187 12.690,14.709 11.844 C 15.471 10.608,15.863 9.543,15.969 8.417 C 16.096 7.068,15.647 5.453,14.852 4.396 C 13.810 3.011,12.308 2.187,10.550 2.035 C 10.102 1.996,9.935 1.997,9.440 2.038 M10.440 6.070 C 10.899 6.164,11.406 6.535,11.679 6.977 C 11.889 7.316,11.942 7.492,11.959 7.902 C 11.985 8.524,11.822 8.945,11.383 9.384 C 11.082 9.686,10.835 9.826,10.414 9.934 C 10.102 10.014,9.938 10.017,9.623 9.947 C 8.909 9.788,8.351 9.282,8.113 8.576 C 7.900 7.945,8.063 7.221,8.539 6.687 C 8.798 6.396,9.197 6.148,9.533 6.068 C 9.706 6.027,10.237 6.028,10.440 6.070 " fill="#1A1C1F" stroke="none" fill-rule="evenodd"></path></svg>