<svg width="14" height="14" viewBox="0 0 14 14" fill="none" xmlns="http://www.w3.org/2000/svg"><path d="M6.580 1.286 C 5.357 1.392,4.277 1.975,3.558 2.917 C 3.196 3.391,2.911 4.041,2.775 4.703 C 2.706 5.038,2.688 5.731,2.739 6.081 C 2.844 6.790,3.145 7.554,3.635 8.353 C 3.878 8.749,5.442 11.032,6.191 12.085 C 6.617 12.683,6.672 12.727,7.000 12.727 C 7.236 12.727,7.341 12.682,7.483 12.521 C 7.690 12.285,9.611 9.509,10.269 8.493 C 11.001 7.364,11.380 6.159,11.294 5.241 C 11.215 4.406,10.952 3.646,10.532 3.039 C 10.333 2.751,9.841 2.258,9.543 2.047 C 9.271 1.855,8.743 1.587,8.451 1.493 C 7.920 1.323,7.145 1.237,6.580 1.286 M7.420 2.741 C 7.725 2.755,8.022 2.825,8.316 2.952 C 9.154 3.313,9.672 3.997,9.814 4.927 C 9.864 5.253,9.847 5.858,9.780 6.125 C 9.639 6.690,9.359 7.222,8.713 8.155 C 8.010 9.170,7.031 10.523,7.000 10.523 C 6.968 10.523,6.850 10.368,6.331 9.637 C 4.709 7.352,4.517 7.046,4.305 6.407 C 4.195 6.077,4.153 5.809,4.153 5.422 C 4.153 4.790,4.304 4.271,4.627 3.792 C 5.093 3.101,6.027 2.678,6.988 2.722 C 7.078 2.726,7.272 2.734,7.420 2.741 M6.630 4.190 C 6.320 4.273,5.994 4.517,5.801 4.809 C 5.476 5.301,5.514 5.994,5.888 6.434 C 6.223 6.826,6.544 6.983,7.010 6.983 C 7.396 6.983,7.714 6.847,8.006 6.558 C 8.290 6.276,8.423 5.945,8.423 5.521 C 8.423 5.061,8.105 4.547,7.680 4.320 C 7.385 4.163,6.936 4.108,6.630 4.190 " fill="#1A1C1F" stroke="none" fill-rule="evenodd"></path></svg>