<svg width="12" height="12" viewBox="0 0 12 12" fill="none" xmlns="http://www.w3.org/2000/svg"><path d="M5.500 1.114 C 5.111 1.155,4.678 1.286,4.290 1.480 C 3.146 2.054,2.466 3.085,2.318 4.470 C 2.275 4.879,2.337 5.347,2.503 5.858 C 2.673 6.380,2.853 6.744,3.225 7.320 C 3.640 7.960,4.796 9.649,5.307 10.360 C 5.671 10.867,5.723 10.907,6.000 10.907 C 6.292 10.907,6.324 10.879,6.803 10.200 C 7.938 8.591,8.847 7.244,9.064 6.850 C 9.533 5.999,9.746 5.183,9.680 4.494 C 9.581 3.460,9.165 2.588,8.488 1.996 C 7.945 1.521,7.293 1.231,6.540 1.129 C 6.349 1.103,5.692 1.094,5.500 1.114 M6.389 3.617 C 6.725 3.739,7.011 4.013,7.139 4.337 C 7.200 4.492,7.230 4.805,7.200 4.982 C 7.163 5.201,7.030 5.449,6.853 5.627 C 6.688 5.793,6.585 5.858,6.375 5.929 C 6.076 6.029,5.799 6.016,5.524 5.889 C 5.255 5.765,5.046 5.565,4.894 5.286 L 4.810 5.130 4.810 4.800 C 4.810 4.413,4.828 4.341,4.983 4.109 C 5.147 3.864,5.377 3.690,5.659 3.596 C 5.818 3.544,6.220 3.555,6.389 3.617 " fill="#1A1C1F" stroke="none" fill-rule="evenodd"></path></svg>