<svg width="12" height="12" viewBox="0 0 12 12" fill="none" xmlns="http://www.w3.org/2000/svg"><path d="M5.640 1.101 C 5.143 1.144,4.728 1.261,4.290 1.480 C 3.146 2.054,2.466 3.085,2.318 4.470 C 2.275 4.879,2.337 5.347,2.503 5.858 C 2.673 6.380,2.853 6.744,3.225 7.320 C 3.640 7.960,4.796 9.649,5.307 10.360 C 5.671 10.866,5.722 10.907,6.000 10.908 C 6.203 10.909,6.292 10.871,6.414 10.732 C 6.592 10.530,8.309 8.047,8.822 7.250 C 9.299 6.510,9.609 5.690,9.683 4.979 C 9.738 4.442,9.576 3.632,9.301 3.070 C 8.853 2.152,7.998 1.466,6.980 1.207 C 6.629 1.117,6.015 1.069,5.640 1.101 M6.540 2.360 C 6.850 2.404,7.260 2.563,7.518 2.738 C 8.112 3.142,8.445 3.837,8.443 4.670 C 8.442 4.969,8.405 5.210,8.318 5.470 C 8.244 5.692,8.065 6.067,7.911 6.320 C 7.671 6.715,6.036 9.038,5.997 9.039 C 5.978 9.040,4.699 7.239,4.257 6.590 C 3.949 6.136,3.738 5.706,3.636 5.322 C 3.582 5.117,3.574 5.049,3.565 4.740 C 3.558 4.475,3.563 4.346,3.587 4.207 C 3.648 3.859,3.778 3.530,3.966 3.250 C 4.082 3.077,4.345 2.824,4.526 2.712 C 4.782 2.552,5.173 2.402,5.460 2.354 C 5.561 2.337,6.414 2.341,6.540 2.360 M5.682 3.592 C 5.308 3.692,4.962 4.024,4.839 4.401 C 4.772 4.606,4.770 4.925,4.834 5.131 C 4.917 5.393,5.164 5.700,5.402 5.835 C 5.597 5.946,5.733 5.980,5.986 5.980 C 6.242 5.980,6.352 5.955,6.570 5.845 C 6.770 5.745,6.996 5.515,7.090 5.317 C 7.240 5.002,7.261 4.621,7.145 4.346 C 6.935 3.846,6.506 3.558,5.980 3.561 C 5.876 3.562,5.742 3.576,5.682 3.592 " fill="#1A1C1F" stroke="none" fill-rule="evenodd"></path></svg>