<svg width="12" height="12" viewBox="0 0 12 12" fill="none" xmlns="http://www.w3.org/2000/svg"><path d="M3.720 1.217 C 3.364 1.384,1.630 2.256,1.381 2.394 C 1.180 2.505,1.170 2.514,1.144 2.600 C 1.095 2.764,1.082 3.653,1.081 7.089 C 1.080 10.430,1.080 10.468,1.120 10.550 C 1.229 10.776,1.407 10.893,1.673 10.913 L 1.835 10.926 3.014 10.330 L 4.194 9.735 5.552 10.186 C 7.209 10.737,7.786 10.920,7.863 10.920 C 7.895 10.920,7.973 10.903,8.036 10.881 C 8.327 10.783,10.518 9.667,10.735 9.506 C 10.771 9.479,10.827 9.411,10.860 9.354 L 10.920 9.250 10.920 5.359 L 10.920 1.468 10.863 1.378 C 10.796 1.273,10.667 1.165,10.563 1.128 C 10.522 1.113,10.401 1.101,10.285 1.101 L 10.080 1.100 9.205 1.537 C 8.010 2.135,7.851 2.207,7.760 2.195 C 7.720 2.189,6.999 1.959,6.159 1.683 C 5.318 1.407,4.554 1.163,4.460 1.141 C 4.363 1.118,4.221 1.100,4.130 1.100 C 3.977 1.100,3.959 1.105,3.720 1.217 M7.212 3.340 C 7.217 3.340,7.220 4.717,7.220 6.399 L 7.220 9.459 6.005 9.049 C 5.337 8.824,4.788 8.640,4.785 8.640 C 4.782 8.640,4.780 7.263,4.780 5.581 L 4.780 2.522 5.992 2.931 C 6.659 3.156,7.208 3.340,7.212 3.340 M9.680 5.690 L 9.680 8.700 9.083 8.998 L 8.486 9.297 8.473 9.014 C 8.466 8.858,8.460 7.506,8.460 6.010 L 8.460 3.290 9.065 2.986 C 9.398 2.819,9.672 2.682,9.675 2.681 C 9.678 2.681,9.680 4.034,9.680 5.690 M3.522 3.472 C 3.529 3.889,3.536 5.234,3.537 6.460 L 3.540 8.690 2.930 8.995 L 2.320 9.300 2.320 6.290 L 2.320 3.280 2.895 2.991 C 3.211 2.832,3.479 2.705,3.490 2.708 C 3.503 2.711,3.515 2.994,3.522 3.472 " fill="#1A1C1F" stroke="none" fill-rule="evenodd"></path></svg>