<svg width="28" height="28" viewBox="0 0 28 28" fill="none" xmlns="http://www.w3.org/2000/svg"><path d="M25.200 4.010 C 24.949 4.048,24.974 4.037,21.726 5.540 C 18.905 6.845,17.925 7.280,17.806 7.280 C 17.652 7.280,17.231 7.091,13.230 5.227 C 10.900 4.141,10.694 4.060,10.268 4.060 C 9.884 4.060,9.699 4.126,8.121 4.830 C 5.165 6.148,2.081 7.630,1.913 7.813 L 1.797 7.941 1.767 9.559 C 1.751 10.449,1.736 13.907,1.733 17.243 C 1.729 23.060,1.732 23.318,1.815 23.497 C 1.980 23.852,2.350 24.111,2.605 24.050 C 2.834 23.995,4.288 23.356,7.249 22.008 C 8.862 21.274,10.188 20.673,10.197 20.673 C 10.206 20.673,11.470 21.242,13.005 21.938 C 16.248 23.407,17.296 23.864,17.608 23.948 C 17.813 24.002,17.860 23.998,18.145 23.899 C 18.569 23.752,20.012 23.109,22.614 21.909 C 25.634 20.516,26.047 20.308,26.128 20.139 C 26.167 20.057,26.208 19.735,26.230 19.323 C 26.282 18.379,26.280 5.304,26.229 4.766 C 26.186 4.324,26.116 4.174,25.900 4.062 C 25.786 4.002,25.426 3.976,25.200 4.010 M9.292 7.867 C 9.307 8.738,9.323 11.625,9.327 14.284 L 9.333 19.119 6.452 20.453 L 3.570 21.788 3.540 21.196 C 3.499 20.375,3.494 14.762,3.531 11.522 L 3.562 8.833 6.366 7.545 C 7.908 6.837,9.191 6.264,9.217 6.271 C 9.246 6.279,9.274 6.877,9.292 7.867 M12.658 6.923 C 13.460 7.292,14.739 7.881,15.500 8.233 L 16.883 8.874 16.918 10.305 C 16.963 12.179,16.920 21.694,16.865 21.743 C 16.842 21.763,15.527 21.181,13.942 20.448 L 11.060 19.116 11.060 13.672 C 11.060 8.247,11.087 6.253,11.160 6.253 C 11.181 6.253,11.855 6.555,12.658 6.923 M24.458 7.844 C 24.474 8.702,24.490 11.590,24.493 14.262 L 24.500 19.121 22.155 20.209 C 20.865 20.807,19.569 21.406,19.273 21.540 L 18.737 21.785 18.708 21.031 C 18.667 19.952,18.661 14.674,18.698 11.523 L 18.728 8.835 21.533 7.547 C 23.075 6.839,24.358 6.265,24.383 6.272 C 24.413 6.280,24.441 6.868,24.458 7.844 " fill="#1A1C1F" stroke="none" fill-rule="evenodd"></path></svg>