<svg width="14" height="14" viewBox="0 0 14 14" fill="none" xmlns="http://www.w3.org/2000/svg"><path d="M4.340 1.418 C 3.877 1.636,1.733 2.719,1.537 2.834 C 1.369 2.932,1.358 2.944,1.330 3.050 C 1.277 3.257,1.263 4.355,1.262 8.295 C 1.261 12.067,1.263 12.219,1.304 12.308 C 1.423 12.564,1.643 12.708,1.952 12.732 L 2.141 12.746 3.517 12.052 L 4.893 11.358 6.477 11.884 C 8.410 12.526,9.084 12.740,9.173 12.740 C 9.211 12.740,9.304 12.719,9.380 12.693 C 9.720 12.579,12.269 11.279,12.525 11.090 C 12.566 11.059,12.632 10.979,12.670 10.913 L 12.740 10.792 12.740 6.250 L 12.740 1.709 12.664 1.597 C 12.622 1.536,12.527 1.442,12.453 1.390 L 12.317 1.295 12.043 1.287 L 11.769 1.279 10.744 1.791 C 9.349 2.488,9.160 2.575,9.055 2.560 C 9.008 2.554,8.168 2.286,7.186 1.964 C 6.205 1.642,5.339 1.361,5.262 1.340 C 5.185 1.319,5.011 1.297,4.877 1.291 L 4.632 1.281 4.340 1.418 M8.415 3.897 C 8.420 3.897,8.423 5.503,8.423 7.466 L 8.423 11.035 7.007 10.558 C 6.228 10.295,5.588 10.080,5.584 10.080 C 5.580 10.080,5.577 8.474,5.577 6.511 L 5.577 2.942 6.992 3.419 C 7.770 3.682,8.410 3.897,8.415 3.897 M11.293 6.638 L 11.293 10.150 10.597 10.498 L 9.900 10.847 9.885 10.600 C 9.877 10.464,9.870 8.887,9.870 7.095 L 9.870 3.838 10.576 3.484 C 10.964 3.289,11.284 3.129,11.287 3.128 C 11.291 3.127,11.293 4.707,11.293 6.638 M4.109 3.992 C 4.117 4.446,4.125 6.015,4.127 7.479 L 4.130 10.139 3.418 10.494 L 2.707 10.850 2.707 7.338 L 2.707 3.827 3.377 3.490 C 3.746 3.304,4.059 3.156,4.072 3.159 C 4.086 3.163,4.100 3.473,4.109 3.992 " fill="#1A1C1F" stroke="none" fill-rule="evenodd"></path></svg>