<svg width="28" height="28" viewBox="0 0 28 28" fill="none" xmlns="http://www.w3.org/2000/svg"><path d="M13.253 1.805 C 12.380 1.868,11.452 2.131,10.562 2.566 C 7.829 3.904,6.152 6.533,6.142 9.497 C 6.138 10.911,6.432 11.871,7.653 14.420 C 8.770 16.755,13.160 25.519,13.356 25.807 C 13.595 26.158,13.702 26.225,14.023 26.226 C 14.321 26.226,14.518 26.109,14.705 25.818 C 14.994 25.369,19.529 16.214,20.721 13.673 C 21.671 11.649,21.989 10.306,21.843 8.937 C 21.539 6.094,19.986 3.833,17.477 2.578 C 16.529 2.103,15.764 1.905,14.568 1.823 C 13.875 1.775,13.699 1.773,13.253 1.805 M15.423 3.696 C 15.552 3.724,15.817 3.805,16.014 3.877 C 17.869 4.556,19.230 5.975,19.829 7.855 C 20.040 8.517,20.082 8.901,20.049 9.847 C 19.997 11.326,19.998 11.323,17.138 17.220 C 14.897 21.841,14.223 23.220,14.130 23.372 L 14.034 23.528 13.709 22.905 C 13.032 21.612,10.050 15.503,9.054 13.370 C 8.091 11.307,7.924 10.751,7.919 9.590 C 7.914 8.443,8.174 7.531,8.811 6.463 C 9.515 5.282,10.779 4.294,12.191 3.821 C 12.494 3.719,12.759 3.667,13.110 3.642 C 13.726 3.597,15.112 3.629,15.423 3.696 M13.552 7.049 C 13.124 7.123,12.536 7.436,12.162 7.786 C 11.772 8.154,11.480 8.751,11.413 9.321 C 11.363 9.739,11.463 10.340,11.646 10.729 C 11.847 11.155,12.433 11.762,12.833 11.958 C 13.566 12.317,14.434 12.317,15.167 11.958 C 15.560 11.765,16.138 11.166,16.349 10.733 C 16.944 9.512,16.440 7.982,15.230 7.340 C 14.759 7.089,14.041 6.965,13.552 7.049 " fill="#1A1C1F" stroke="none" fill-rule="evenodd"></path></svg>