<svg width="20" height="20" viewBox="0 0 20 20" fill="none" xmlns="http://www.w3.org/2000/svg"><path d="M4.543 3.096 C 3.366 3.685,2.349 4.213,2.283 4.272 C 2.217 4.330,2.124 4.453,2.077 4.546 L 1.991 4.716 2.009 10.983 C 2.023 15.594,2.038 17.284,2.066 17.378 C 2.088 17.449,2.166 17.573,2.239 17.653 C 2.425 17.854,2.658 17.961,2.967 17.987 L 3.217 18.008 5.155 17.039 L 7.094 16.070 9.372 16.832 C 11.991 17.709,12.904 18.000,13.037 18.000 C 13.205 18.000,13.539 17.850,15.008 17.116 C 16.755 16.243,17.522 15.831,17.715 15.661 C 17.796 15.590,17.895 15.463,17.936 15.378 L 18.010 15.224 17.992 8.933 C 17.970 1.893,17.997 2.560,17.725 2.296 C 17.506 2.083,17.427 2.055,17.017 2.039 L 16.650 2.025 14.800 2.950 L 12.950 3.874 10.450 3.056 C 9.075 2.606,7.823 2.198,7.667 2.148 C 7.461 2.083,7.287 2.054,7.033 2.042 L 6.683 2.027 4.543 3.096 M10.258 5.102 L 12.000 5.683 12.000 10.657 L 12.000 15.631 10.000 14.957 L 8.000 14.283 8.000 9.800 C 8.000 7.334,8.010 5.105,8.022 4.846 L 8.043 4.375 8.280 4.448 C 8.410 4.489,9.300 4.783,10.258 5.102 M6.000 9.492 L 6.000 14.384 5.022 14.873 L 4.043 15.362 4.022 15.009 C 4.010 14.815,4.000 12.619,4.000 10.128 L 4.000 5.600 4.992 5.102 C 5.537 4.828,5.987 4.603,5.992 4.602 C 5.996 4.601,6.000 6.801,6.000 9.492 M16.000 9.492 L 16.000 14.384 15.022 14.873 L 14.043 15.362 14.022 15.009 C 14.010 14.815,14.000 12.619,14.000 10.128 L 14.000 5.600 14.992 5.102 C 15.537 4.828,15.987 4.603,15.992 4.602 C 15.996 4.601,16.000 6.801,16.000 9.492 " fill="#1A1C1F" stroke="none" fill-rule="evenodd"></path></svg>