<svg width="16" height="16" viewBox="0 0 16 16" fill="none" xmlns="http://www.w3.org/2000/svg"><path d="M7.227 1.564 C 5.191 1.874,3.690 3.275,3.243 5.283 C 2.971 6.510,3.174 7.666,3.903 9.027 C 4.108 9.409,4.314 9.731,4.995 10.733 C 6.427 12.843,7.431 14.264,7.553 14.355 C 7.781 14.526,8.202 14.530,8.437 14.366 C 8.536 14.296,8.816 13.916,9.551 12.853 C 11.176 10.506,11.985 9.277,12.214 8.813 C 12.721 7.783,12.948 6.743,12.855 5.880 C 12.733 4.742,12.260 3.695,11.530 2.945 C 10.793 2.187,9.806 1.706,8.698 1.563 C 8.292 1.510,7.575 1.511,7.227 1.564 M8.320 4.802 C 8.826 4.883,9.364 5.370,9.545 5.912 C 9.608 6.102,9.620 6.487,9.571 6.725 C 9.519 6.977,9.377 7.231,9.160 7.462 C 8.921 7.716,8.776 7.813,8.502 7.905 C 8.332 7.962,8.248 7.973,8.003 7.973 C 7.490 7.973,7.184 7.835,6.813 7.437 C 6.527 7.130,6.401 6.807,6.400 6.381 C 6.400 6.094,6.437 5.923,6.555 5.680 C 6.742 5.293,7.267 4.861,7.621 4.801 C 7.806 4.770,8.123 4.770,8.320 4.802 " fill="#1A1C1F" stroke="none" fill-rule="evenodd"></path></svg>