<svg width="20" height="20" viewBox="0 0 20 20" fill="none" xmlns="http://www.w3.org/2000/svg"><path d="M9.440 2.038 C 7.021 2.236,5.057 3.769,4.320 6.033 C 3.974 7.095,3.913 8.012,4.120 9.032 C 4.289 9.865,4.687 10.841,5.207 11.700 C 5.740 12.580,8.180 16.144,9.095 17.380 C 9.380 17.765,9.432 17.818,9.598 17.896 C 9.855 18.017,10.145 18.017,10.403 17.896 C 10.567 17.819,10.624 17.762,10.874 17.429 C 11.488 16.610,14.232 12.604,14.713 11.825 C 15.672 10.270,16.111 8.723,15.969 7.396 C 15.799 5.804,15.119 4.453,13.989 3.463 C 13.592 3.115,13.282 2.911,12.750 2.647 C 12.042 2.295,11.359 2.105,10.550 2.035 C 10.102 1.996,9.935 1.997,9.440 2.038 M10.664 4.071 C 11.302 4.129,11.781 4.286,12.343 4.624 C 13.220 5.150,13.813 6.136,13.932 7.267 C 14.096 8.823,13.782 9.611,11.964 12.205 C 11.117 13.414,10.159 14.751,10.009 14.933 C 9.990 14.955,9.960 14.915,9.105 13.717 C 7.388 11.312,6.879 10.553,6.563 9.924 C 6.116 9.037,6.059 8.795,6.056 7.800 C 6.054 7.123,6.059 7.065,6.143 6.760 C 6.500 5.466,7.286 4.626,8.500 4.241 C 8.770 4.156,8.967 4.114,9.533 4.021 C 9.640 4.003,10.175 4.027,10.664 4.071 M9.400 6.109 C 9.100 6.212,8.900 6.337,8.639 6.583 C 8.377 6.831,8.235 7.055,8.119 7.404 C 7.946 7.924,7.980 8.377,8.231 8.883 C 8.616 9.663,9.559 10.134,10.373 9.953 C 11.110 9.789,11.730 9.210,11.919 8.509 C 11.987 8.257,11.986 7.741,11.918 7.486 C 11.745 6.845,11.142 6.256,10.482 6.084 C 10.181 6.006,9.667 6.018,9.400 6.109 " fill="#1A1C1F" stroke="none" fill-rule="evenodd"></path></svg>