<svg width="32" height="32" viewBox="0 0 32 32" fill="none" xmlns="http://www.w3.org/2000/svg"><path d="M14.960 2.085 C 13.238 2.245,11.463 3.034,10.029 4.276 C 8.861 5.289,7.926 6.707,7.452 8.187 C 6.777 10.290,6.886 12.188,7.812 14.453 C 8.136 15.247,9.236 17.510,12.156 23.387 C 14.725 28.559,15.203 29.482,15.465 29.775 C 15.584 29.908,15.659 29.941,15.899 29.960 C 16.285 29.992,16.535 29.884,16.748 29.591 C 17.029 29.205,22.146 18.899,23.681 15.627 C 24.664 13.533,24.983 12.363,24.977 10.880 C 24.974 9.902,24.851 9.124,24.561 8.240 C 23.774 5.838,22.132 3.979,19.825 2.881 C 18.711 2.350,18.000 2.171,16.668 2.083 C 15.730 2.021,15.656 2.021,14.960 2.085 M17.733 4.263 C 19.610 4.760,21.151 5.955,22.099 7.649 C 22.704 8.730,22.932 9.655,22.933 11.041 C 22.934 11.872,22.847 12.433,22.610 13.134 C 22.279 14.112,22.101 14.493,19.106 20.667 C 16.404 26.238,16.113 26.827,16.059 26.827 C 15.986 26.827,15.342 25.572,13.759 22.347 C 9.800 14.279,9.395 13.390,9.162 12.267 C 9.016 11.563,9.050 9.952,9.224 9.314 C 9.376 8.760,9.739 7.942,10.111 7.320 C 10.448 6.755,11.254 5.875,11.836 5.437 C 12.260 5.118,13.409 4.543,14.013 4.347 C 14.626 4.149,15.014 4.111,16.240 4.132 C 17.117 4.146,17.383 4.170,17.733 4.263 M15.101 8.160 C 14.448 8.395,13.800 8.908,13.440 9.474 C 12.955 10.240,12.899 11.400,13.307 12.258 C 13.540 12.749,14.210 13.442,14.667 13.666 C 15.496 14.072,16.487 14.072,17.323 13.666 C 17.682 13.492,18.272 12.952,18.511 12.580 C 19.065 11.716,19.121 10.636,18.662 9.667 C 18.345 8.999,17.520 8.330,16.775 8.136 C 16.317 8.017,15.465 8.029,15.101 8.160 " fill="#1A1C1F" stroke="none" fill-rule="evenodd"></path></svg>