<svg width="32" height="32" viewBox="0 0 32 32" fill="none" xmlns="http://www.w3.org/2000/svg"><path d="M28.773 4.587 C 28.516 4.631,28.463 4.654,24.507 6.478 C 21.090 8.054,20.489 8.320,20.351 8.320 C 20.175 8.320,19.687 8.102,15.480 6.143 C 14.153 5.524,12.850 4.932,12.585 4.826 C 12.011 4.596,11.600 4.565,11.147 4.716 C 10.379 4.973,3.423 8.188,2.527 8.701 C 2.166 8.907,2.134 8.940,2.074 9.168 C 2.025 9.353,2.004 11.515,1.988 17.998 C 1.965 27.644,1.931 26.840,2.375 27.249 C 2.828 27.666,2.536 27.770,8.240 25.173 C 10.059 24.345,11.573 23.657,11.605 23.645 C 11.637 23.632,13.101 24.273,14.858 25.069 C 18.560 26.747,19.766 27.273,20.123 27.369 C 20.357 27.431,20.412 27.426,20.737 27.313 C 21.221 27.145,22.871 26.411,25.845 25.039 C 29.290 23.449,29.768 23.208,29.860 23.017 C 29.998 22.729,30.021 21.386,30.024 13.248 L 30.027 5.136 29.907 4.959 C 29.841 4.862,29.727 4.741,29.653 4.690 C 29.500 4.583,29.084 4.534,28.773 4.587 M10.619 8.884 C 10.637 9.821,10.655 13.121,10.659 16.218 L 10.667 21.850 7.373 23.375 L 4.080 24.901 4.046 24.197 C 3.999 23.217,3.993 16.854,4.035 13.167 L 4.071 10.094 7.275 8.623 C 9.038 7.814,10.504 7.158,10.533 7.167 C 10.567 7.176,10.599 7.824,10.619 8.884 M16.052 8.644 L 19.295 10.141 19.335 11.884 C 19.386 14.138,19.337 24.793,19.274 24.849 C 19.248 24.873,17.745 24.207,15.933 23.370 L 12.640 21.848 12.640 15.657 C 12.640 9.351,12.671 7.147,12.760 7.147 C 12.787 7.147,14.268 7.820,16.052 8.644 M27.952 9.018 C 27.970 10.027,27.988 13.328,27.992 16.353 L 28.000 21.852 24.745 23.361 C 22.685 24.316,21.470 24.852,21.438 24.820 C 21.358 24.739,21.314 18.825,21.359 14.236 L 21.399 10.099 24.606 8.626 C 26.370 7.816,27.837 7.160,27.867 7.168 C 27.900 7.177,27.932 7.867,27.952 9.018 " fill="#1A1C1F" stroke="none" fill-rule="evenodd"></path></svg>