<svg width="24" height="24" viewBox="0 0 24 24" fill="none" xmlns="http://www.w3.org/2000/svg"><path d="M11.371 2.043 C 10.812 2.086,10.193 2.214,9.620 2.404 C 7.823 3.002,6.364 4.232,5.621 5.775 C 4.765 7.554,4.807 9.317,5.757 11.444 C 6.104 12.223,10.203 19.874,10.961 21.160 C 11.290 21.717,11.424 21.860,11.692 21.940 C 11.947 22.016,12.015 22.015,12.281 21.936 C 12.643 21.829,12.687 21.766,13.710 19.920 C 15.419 16.834,17.833 12.353,18.224 11.540 C 19.321 9.257,19.228 6.940,17.964 5.060 C 16.989 3.609,15.359 2.547,13.540 2.179 C 13.122 2.095,12.104 1.990,11.860 2.006 C 11.816 2.009,11.596 2.026,11.371 2.043 M12.820 4.085 C 14.480 4.324,15.898 5.309,16.575 6.692 C 16.822 7.197,16.921 7.589,16.948 8.180 C 16.984 8.951,16.870 9.585,16.560 10.344 C 16.385 10.773,15.651 12.183,13.975 15.303 C 12.368 18.297,12.062 18.853,12.013 18.869 C 11.988 18.877,11.878 18.726,11.769 18.532 C 11.067 17.285,8.702 12.873,7.978 11.460 C 7.193 9.925,7.073 9.517,7.067 8.360 C 7.064 7.707,7.071 7.636,7.172 7.308 C 7.387 6.612,7.758 6.010,8.290 5.494 C 8.703 5.094,9.037 4.857,9.543 4.605 C 10.576 4.090,11.663 3.918,12.820 4.085 M11.351 7.134 C 10.689 7.413,10.246 7.892,10.073 8.514 C 9.887 9.188,10.077 9.837,10.620 10.380 C 11.446 11.206,12.561 11.207,13.380 10.382 C 13.675 10.085,13.845 9.798,13.942 9.435 C 14.166 8.592,13.689 7.644,12.826 7.219 C 12.525 7.070,12.494 7.064,12.046 7.051 C 11.626 7.038,11.558 7.046,11.351 7.134 " fill="#1A1C1F" stroke="none" fill-rule="evenodd"></path></svg>