<svg width="24" height="24" viewBox="0 0 24 24" fill="none" xmlns="http://www.w3.org/2000/svg"><path d="M8.700 2.589 C 8.475 2.667,3.249 5.282,2.716 5.585 C 2.236 5.857,2.167 5.916,2.089 6.121 C 2.025 6.287,2.019 6.808,2.008 13.258 C 2.000 17.595,2.011 20.364,2.035 20.607 C 2.068 20.933,2.092 21.021,2.180 21.137 C 2.325 21.327,2.643 21.480,2.892 21.480 C 3.205 21.480,3.730 21.246,6.493 19.871 L 9.045 18.601 11.653 19.915 C 14.233 21.216,14.804 21.480,15.037 21.480 C 15.103 21.480,15.261 21.442,15.388 21.395 C 15.630 21.306,20.493 18.868,21.260 18.451 C 21.859 18.126,21.943 18.016,21.979 17.512 C 21.994 17.307,21.999 14.017,21.991 10.200 C 21.978 4.817,21.964 3.226,21.925 3.109 C 21.863 2.921,21.678 2.705,21.522 2.641 C 21.448 2.610,21.267 2.598,21.032 2.607 C 20.579 2.625,20.813 2.522,17.487 4.165 L 14.994 5.397 13.167 4.484 C 10.186 2.995,9.278 2.563,9.079 2.541 C 8.966 2.528,8.827 2.546,8.700 2.589 M8.023 7.402 C 8.038 8.578,8.037 11.188,8.021 13.202 L 7.990 16.864 5.995 17.875 L 4.000 18.886 4.000 15.170 C 4.000 13.126,4.012 10.483,4.026 9.296 L 4.053 7.140 5.996 6.155 C 7.307 5.490,7.949 5.185,7.967 5.216 C 7.982 5.242,8.007 6.225,8.023 7.402 M13.360 6.840 L 13.940 7.140 13.972 9.880 C 14.005 12.799,13.992 18.782,13.951 18.822 C 13.938 18.835,13.053 18.399,11.984 17.853 L 10.040 16.860 10.040 11.940 C 10.040 9.234,10.052 6.602,10.066 6.091 L 10.093 5.163 11.436 5.851 C 12.175 6.230,13.041 6.675,13.360 6.840 M19.995 9.240 C 19.997 10.967,19.988 13.391,19.973 14.627 L 19.947 16.875 18.011 17.862 C 16.947 18.405,16.063 18.836,16.048 18.821 C 16.033 18.806,16.023 16.183,16.026 12.992 C 16.031 8.188,16.042 7.182,16.086 7.139 C 16.116 7.110,16.995 6.654,18.040 6.125 L 19.940 5.163 19.965 5.631 C 19.978 5.889,19.992 7.513,19.995 9.240 " fill="#1A1C1F" stroke="none" fill-rule="evenodd"></path></svg>