<svg width="24" height="24" viewBox="0 0 24 24" fill="none" xmlns="http://www.w3.org/2000/svg"><path d="M9.320 3.067 C 8.408 3.215,7.457 3.612,6.754 4.140 C 6.337 4.453,5.748 5.063,5.481 5.458 C 5.047 6.102,4.680 7.001,4.557 7.720 C 4.485 8.139,4.484 12.064,4.555 12.312 C 4.646 12.631,5.052 12.942,5.436 12.987 C 5.745 13.024,6.180 12.791,6.367 12.489 C 6.464 12.331,6.473 12.182,6.557 9.120 C 6.580 8.294,6.616 7.633,6.642 7.540 C 6.706 7.318,7.011 6.718,7.197 6.446 C 7.596 5.865,8.311 5.368,9.047 5.159 C 9.424 5.051,10.155 5.013,10.592 5.076 C 11.209 5.167,11.824 5.435,12.285 5.815 C 12.753 6.201,13.199 6.892,13.397 7.538 C 13.481 7.813,13.483 7.868,13.507 12.698 L 13.532 17.580 12.502 16.569 C 11.156 15.246,10.977 15.094,10.739 15.058 C 10.478 15.019,10.130 15.067,9.972 15.165 C 9.591 15.400,9.418 15.951,9.598 16.348 C 9.735 16.650,13.771 20.719,14.104 20.892 C 14.391 21.040,14.723 21.012,15.008 20.814 C 15.223 20.666,17.961 17.964,18.752 17.120 C 19.093 16.757,19.396 16.402,19.426 16.331 C 19.611 15.893,19.296 15.206,18.854 15.083 C 18.661 15.030,18.344 15.028,18.157 15.080 C 17.993 15.126,17.512 15.562,16.314 16.751 L 15.529 17.531 15.509 12.635 C 15.495 9.292,15.475 7.653,15.444 7.465 C 15.343 6.850,14.963 5.957,14.566 5.401 C 14.276 4.997,13.688 4.393,13.300 4.103 C 12.511 3.512,11.695 3.186,10.752 3.083 C 10.381 3.042,9.532 3.033,9.320 3.067 " fill="#1A1C1F" stroke="none" fill-rule="evenodd"></path></svg>