<svg width="16" height="16" viewBox="0 0 16 16" fill="none" xmlns="http://www.w3.org/2000/svg"><path d="M6.360 1.524 C 5.437 1.582,4.425 2.164,3.815 2.986 C 3.523 3.381,3.253 3.996,3.162 4.479 C 3.111 4.747,3.079 7.063,3.112 8.120 C 3.134 8.836,3.135 8.842,3.206 8.963 C 3.353 9.214,3.655 9.398,3.920 9.398 C 4.205 9.398,4.597 9.129,4.666 8.886 C 4.684 8.825,4.704 8.132,4.719 7.080 C 4.746 5.271,4.761 4.841,4.805 4.627 C 4.843 4.444,5.064 4.021,5.226 3.821 C 5.433 3.566,5.793 3.332,6.182 3.202 C 6.317 3.156,6.412 3.147,6.740 3.147 C 7.192 3.147,7.341 3.176,7.633 3.323 C 7.890 3.452,8.024 3.546,8.189 3.714 C 8.432 3.960,8.644 4.331,8.720 4.642 C 8.736 4.709,8.759 5.294,8.773 6.000 C 8.801 7.392,8.803 11.234,8.777 11.480 L 8.760 11.640 8.313 11.207 C 7.605 10.521,7.513 10.463,7.167 10.485 C 7.060 10.492,6.930 10.519,6.876 10.544 C 6.517 10.715,6.328 11.121,6.442 11.481 C 6.486 11.623,6.536 11.682,7.092 12.262 C 8.008 13.217,9.215 14.377,9.371 14.452 C 9.536 14.532,9.756 14.535,9.928 14.458 C 10.013 14.421,10.224 14.238,10.618 13.859 C 11.328 13.177,12.475 12.017,12.665 11.787 C 12.859 11.553,12.889 11.473,12.874 11.226 C 12.850 10.797,12.576 10.520,12.144 10.487 C 11.789 10.460,11.693 10.523,10.927 11.276 L 10.427 11.768 10.427 8.235 L 10.427 4.702 10.335 4.368 C 10.100 3.510,9.833 3.048,9.250 2.493 C 8.707 1.976,7.992 1.620,7.347 1.546 C 7.050 1.512,6.675 1.504,6.360 1.524 " fill="#1A1C1F" stroke="none" fill-rule="evenodd"></path></svg>