<svg width="28" height="28" viewBox="0 0 28 28" fill="none" xmlns="http://www.w3.org/2000/svg"><path d="M15.135 3.707 C 14.724 3.898,14.513 4.352,14.665 4.717 C 14.748 4.913,15.178 5.381,16.540 6.755 L 17.569 7.793 16.356 7.795 C 14.195 7.799,12.535 7.870,12.110 7.975 C 11.432 8.144,10.491 8.590,9.936 9.006 C 9.547 9.297,8.710 10.163,8.477 10.516 C 8.228 10.891,7.924 11.517,7.751 12.011 C 7.462 12.832,7.467 12.729,7.436 18.480 L 7.408 23.730 7.565 23.960 C 7.764 24.249,8.012 24.384,8.337 24.381 C 8.602 24.378,8.895 24.223,9.033 24.012 C 9.148 23.836,9.189 22.775,9.195 19.787 C 9.198 18.337,9.217 16.216,9.238 15.073 C 9.273 13.107,9.281 12.979,9.380 12.670 C 9.859 11.173,11.100 10.005,12.553 9.684 C 12.843 9.620,13.303 9.602,15.212 9.580 L 17.521 9.554 16.106 10.995 C 15.328 11.788,14.640 12.523,14.578 12.630 C 14.369 12.984,14.438 13.363,14.767 13.666 C 15.014 13.893,15.288 13.955,15.556 13.843 C 15.778 13.750,17.345 12.243,19.109 10.427 C 20.282 9.218,20.478 8.996,20.521 8.826 C 20.615 8.454,20.568 8.383,19.459 7.237 C 17.532 5.244,16.074 3.840,15.769 3.684 C 15.537 3.566,15.429 3.570,15.135 3.707 " fill="#1A1C1F" stroke="none" fill-rule="evenodd"></path></svg>