<svg width="12" height="12" viewBox="0 0 12 12" fill="none" xmlns="http://www.w3.org/2000/svg"><path d="M5.843 1.742 C 5.806 1.753,5.739 1.785,5.694 1.813 C 5.596 1.876,3.319 4.146,3.135 4.366 C 3.063 4.452,2.987 4.555,2.967 4.596 C 2.919 4.693,2.921 4.859,2.971 4.998 C 3.095 5.342,3.518 5.494,3.833 5.309 C 3.880 5.282,4.234 4.948,4.618 4.569 C 5.224 3.970,5.319 3.884,5.330 3.921 C 5.338 3.944,5.351 5.274,5.359 6.877 C 5.377 10.177,5.365 9.944,5.533 10.098 C 5.803 10.343,6.115 10.350,6.371 10.115 C 6.433 10.059,6.504 9.970,6.531 9.918 L 6.580 9.821 6.580 7.866 C 6.580 5.636,6.599 3.840,6.623 3.840 C 6.631 3.840,6.916 4.112,7.254 4.445 C 8.235 5.409,8.207 5.387,8.461 5.385 C 8.719 5.383,8.891 5.275,9.004 5.045 C 9.060 4.930,9.070 4.890,9.069 4.770 C 9.068 4.678,9.056 4.607,9.033 4.565 C 8.976 4.456,8.517 3.981,7.417 2.890 C 6.650 2.130,6.339 1.834,6.261 1.793 C 6.143 1.728,5.959 1.706,5.843 1.742 " fill="#1A1C1F" stroke="none" fill-rule="evenodd"></path></svg>