<svg width="14" height="14" viewBox="0 0 14 14" fill="none" xmlns="http://www.w3.org/2000/svg"><path d="M5.635 1.253 C 4.800 1.362,4.179 1.656,3.626 2.205 C 3.182 2.645,2.904 3.143,2.751 3.768 C 2.687 4.031,2.661 4.766,2.661 6.356 L 2.660 7.661 2.742 7.806 C 2.841 7.984,3.017 8.147,3.153 8.189 C 3.313 8.237,3.570 8.226,3.688 8.166 C 3.819 8.099,3.991 7.924,4.055 7.792 C 4.106 7.688,4.107 7.665,4.107 6.777 C 4.108 5.565,4.145 4.119,4.178 4.003 C 4.223 3.845,4.382 3.534,4.492 3.388 C 4.727 3.075,5.177 2.784,5.507 2.731 C 5.705 2.700,6.172 2.700,6.328 2.732 C 6.505 2.768,6.848 2.941,7.017 3.079 C 7.277 3.292,7.480 3.586,7.617 3.948 L 7.673 4.097 7.689 7.188 L 7.706 10.278 7.277 9.857 C 6.623 9.215,6.569 9.180,6.256 9.198 C 5.900 9.220,5.664 9.431,5.598 9.788 C 5.566 9.959,5.614 10.128,5.736 10.282 C 5.866 10.446,7.398 11.995,7.780 12.349 C 7.958 12.514,8.143 12.669,8.191 12.694 C 8.322 12.761,8.489 12.775,8.639 12.731 C 8.757 12.697,8.810 12.653,9.336 12.149 C 10.092 11.424,11.031 10.469,11.162 10.292 C 11.293 10.113,11.326 10.016,11.310 9.846 C 11.288 9.596,11.161 9.396,10.946 9.269 C 10.866 9.222,10.803 9.206,10.660 9.198 C 10.333 9.179,10.257 9.228,9.584 9.890 L 9.147 10.321 9.147 7.231 L 9.147 4.142 9.079 3.873 C 8.988 3.513,8.929 3.346,8.797 3.066 C 8.647 2.748,8.478 2.504,8.229 2.247 C 7.993 2.003,7.868 1.901,7.578 1.719 C 7.161 1.458,6.750 1.327,6.174 1.272 C 5.804 1.237,5.768 1.235,5.635 1.253 " fill="#1A1C1F" stroke="none" fill-rule="evenodd"></path></svg>