<svg width="12" height="12" viewBox="0 0 12 12" fill="none" xmlns="http://www.w3.org/2000/svg"><path d="M5.768 1.140 C 5.735 1.151,5.636 1.220,5.548 1.294 C 5.186 1.602,3.100 3.710,2.984 3.886 C 2.937 3.956,2.930 3.986,2.932 4.118 C 2.934 4.307,2.950 4.340,3.173 4.592 C 3.404 4.854,5.367 6.817,5.566 6.985 C 5.775 7.162,5.835 7.188,6.017 7.185 C 6.198 7.182,6.345 7.118,6.449 6.995 C 6.598 6.821,6.648 6.543,6.564 6.355 C 6.517 6.248,6.379 6.099,5.571 5.285 L 5.030 4.740 5.940 4.741 C 6.882 4.741,7.386 4.760,7.490 4.800 C 7.567 4.829,7.685 4.944,7.762 5.064 L 7.823 5.158 7.841 7.735 C 7.852 9.257,7.868 10.355,7.879 10.416 C 7.890 10.473,7.912 10.546,7.929 10.577 C 7.975 10.667,8.150 10.813,8.254 10.848 C 8.373 10.889,8.547 10.889,8.667 10.848 C 8.791 10.806,8.957 10.652,9.026 10.517 L 9.080 10.409 9.080 7.759 L 9.080 5.108 9.018 4.909 C 8.951 4.695,8.841 4.458,8.730 4.292 C 8.544 4.011,8.098 3.689,7.760 3.592 C 7.602 3.547,7.091 3.522,5.996 3.507 L 5.042 3.494 5.724 2.802 C 6.100 2.421,6.432 2.071,6.462 2.023 C 6.547 1.890,6.570 1.749,6.531 1.599 C 6.480 1.400,6.351 1.244,6.175 1.171 C 6.084 1.133,5.850 1.115,5.768 1.140 " fill="#1A1C1F" stroke="none" fill-rule="evenodd"></path></svg>