<svg width="12" height="12" viewBox="0 0 12 12" fill="none" xmlns="http://www.w3.org/2000/svg"><path d="M5.907 1.138 C 5.805 1.164,5.669 1.253,5.591 1.344 C 5.498 1.453,5.433 1.655,5.450 1.780 C 5.479 1.986,5.515 2.031,6.256 2.782 L 6.958 3.494 6.004 3.507 C 4.911 3.522,4.397 3.547,4.241 3.592 C 4.106 3.631,3.849 3.759,3.690 3.867 C 3.363 4.088,3.115 4.454,2.970 4.929 L 2.918 5.100 2.925 7.745 C 2.933 10.774,2.916 10.514,3.115 10.704 C 3.309 10.888,3.544 10.937,3.761 10.837 C 3.968 10.742,4.085 10.606,4.120 10.419 C 4.132 10.355,4.148 9.296,4.159 7.736 L 4.177 5.158 4.238 5.064 C 4.315 4.944,4.433 4.829,4.510 4.800 C 4.614 4.760,5.118 4.741,6.060 4.741 L 6.970 4.740 6.419 5.295 C 5.398 6.324,5.392 6.331,5.394 6.570 C 5.397 6.812,5.529 7.033,5.729 7.131 C 5.817 7.173,5.867 7.184,5.994 7.185 C 6.188 7.187,6.216 7.173,6.472 6.948 C 6.727 6.723,8.645 4.804,8.844 4.575 C 9.037 4.352,9.068 4.289,9.068 4.108 C 9.069 3.988,9.061 3.953,9.017 3.887 C 8.863 3.655,6.549 1.339,6.318 1.186 C 6.238 1.133,6.023 1.108,5.907 1.138 " fill="#1A1C1F" stroke="none" fill-rule="evenodd"></path></svg>