<svg width="16" height="16" viewBox="0 0 16 16" fill="none" xmlns="http://www.w3.org/2000/svg"><path d="M7.732 1.626 C 7.597 1.697,7.427 1.875,7.355 2.021 C 7.305 2.122,7.294 2.189,7.295 2.360 C 7.298 2.709,7.258 2.657,8.500 3.929 C 8.885 4.324,9.200 4.656,9.200 4.667 C 9.200 4.699,8.778 4.716,7.240 4.744 C 5.698 4.772,5.711 4.770,5.373 4.939 C 4.678 5.287,4.219 5.824,4.025 6.519 C 3.939 6.825,3.921 7.448,3.922 10.027 C 3.923 12.659,3.946 13.785,4.001 13.968 C 4.042 14.104,4.242 14.299,4.427 14.383 C 4.605 14.464,4.903 14.460,5.079 14.374 C 5.253 14.289,5.414 14.125,5.500 13.945 L 5.569 13.800 5.580 10.339 L 5.591 6.878 5.696 6.726 C 5.821 6.544,6.003 6.414,6.164 6.392 C 6.229 6.383,6.953 6.368,7.774 6.358 L 9.267 6.341 8.491 7.124 C 7.205 8.423,7.214 8.411,7.214 8.773 C 7.214 9.043,7.255 9.146,7.441 9.332 C 7.627 9.518,7.730 9.560,8.002 9.560 C 8.205 9.560,8.242 9.552,8.339 9.489 C 8.571 9.335,11.168 6.767,11.718 6.147 C 12.015 5.812,12.066 5.707,12.045 5.464 C 12.037 5.365,12.010 5.246,11.986 5.199 C 11.923 5.078,11.127 4.252,9.890 3.026 C 8.801 1.947,8.475 1.644,8.356 1.598 C 8.235 1.553,7.837 1.570,7.732 1.626 " fill="#1A1C1F" stroke="none" fill-rule="evenodd"></path></svg>