<svg width="24" height="24" viewBox="0 0 24 24" fill="none" xmlns="http://www.w3.org/2000/svg"><path d="M10.510 3.177 C 10.296 3.253,10.045 3.478,8.785 4.720 C 7.187 6.295,6.167 7.375,6.070 7.593 C 5.970 7.819,5.995 8.097,6.135 8.334 C 6.367 8.725,10.350 12.665,10.653 12.803 C 11.129 13.018,11.749 12.735,11.930 12.220 C 12.062 11.845,12.005 11.587,11.714 11.237 C 11.603 11.103,11.053 10.527,10.491 9.957 L 9.470 8.920 11.045 8.920 C 13.519 8.921,13.916 8.970,14.530 9.349 C 15.111 9.708,15.500 10.179,15.806 10.894 L 15.962 11.258 15.986 15.699 C 16.010 19.878,16.015 20.149,16.084 20.285 C 16.344 20.805,16.889 21.015,17.380 20.786 C 17.605 20.680,17.901 20.382,17.949 20.212 C 18.001 20.025,17.978 11.337,17.925 11.029 C 17.816 10.405,17.455 9.574,17.037 8.987 C 16.423 8.126,15.411 7.416,14.340 7.097 C 14.004 6.997,13.907 6.988,12.880 6.958 C 12.275 6.940,11.251 6.925,10.605 6.923 L 9.431 6.920 10.418 5.915 C 11.558 4.754,11.704 4.576,11.767 4.275 C 11.914 3.569,11.188 2.935,10.510 3.177 " fill="#1A1C1F" stroke="none" fill-rule="evenodd"></path></svg>