<svg width="16" height="16" viewBox="0 0 16 16" fill="none" xmlns="http://www.w3.org/2000/svg"><path d="M7.448 1.740 C 7.211 1.929,5.214 3.900,4.518 4.631 C 4.265 4.898,4.036 5.156,4.010 5.204 C 3.975 5.269,3.962 5.356,3.961 5.522 C 3.960 5.726,3.968 5.762,4.031 5.858 C 4.186 6.092,6.835 8.770,7.400 9.265 C 7.706 9.532,7.818 9.584,8.052 9.567 C 8.343 9.546,8.563 9.404,8.708 9.143 C 8.778 9.015,8.787 8.976,8.785 8.773 C 8.783 8.405,8.810 8.440,7.495 7.110 L 6.733 6.341 8.224 6.358 C 9.044 6.368,9.769 6.383,9.834 6.392 C 9.994 6.414,10.173 6.541,10.302 6.725 L 10.408 6.876 10.420 10.338 L 10.432 13.800 10.494 13.939 C 10.570 14.110,10.746 14.289,10.921 14.374 C 11.098 14.460,11.396 14.464,11.573 14.381 C 11.749 14.300,11.957 14.104,11.996 13.983 C 12.052 13.813,12.077 12.549,12.078 10.000 C 12.078 7.560,12.061 6.888,11.990 6.585 C 11.814 5.833,11.254 5.198,10.483 4.877 C 10.220 4.768,10.044 4.755,8.520 4.735 C 7.246 4.718,6.800 4.700,6.800 4.667 C 6.800 4.656,7.151 4.287,7.580 3.849 C 8.715 2.688,8.705 2.702,8.705 2.347 C 8.705 2.079,8.653 1.956,8.465 1.773 C 8.314 1.626,8.158 1.573,7.877 1.573 L 7.656 1.573 7.448 1.740 " fill="#1A1C1F" stroke="none" fill-rule="evenodd"></path></svg>