<svg width="20" height="20" viewBox="0 0 20 20" fill="none" xmlns="http://www.w3.org/2000/svg"><path d="M9.760 3.078 C 9.674 3.102,9.540 3.164,9.463 3.215 C 9.293 3.328,5.744 6.866,5.392 7.274 C 5.068 7.651,5.020 7.752,5.025 8.054 C 5.029 8.330,5.079 8.463,5.249 8.659 C 5.455 8.895,5.631 8.978,5.967 8.994 C 6.210 9.005,6.275 8.997,6.391 8.938 C 6.563 8.850,6.891 8.545,8.025 7.419 L 8.933 6.517 8.933 11.352 L 8.933 16.187 9.052 16.385 C 9.212 16.652,9.314 16.752,9.532 16.859 C 9.682 16.933,9.761 16.950,9.950 16.948 C 10.365 16.944,10.650 16.758,10.849 16.360 L 10.967 16.124 10.967 11.271 L 10.967 6.417 11.925 7.369 C 13.108 8.545,13.435 8.849,13.609 8.938 C 13.725 8.997,13.790 9.005,14.033 8.994 C 14.270 8.983,14.349 8.964,14.473 8.891 C 14.802 8.698,14.983 8.387,14.980 8.017 C 14.978 7.708,14.917 7.596,14.513 7.164 C 13.432 6.008,10.610 3.241,10.407 3.137 C 10.231 3.047,9.959 3.022,9.760 3.078 " fill="#1A1C1F" stroke="none" fill-rule="evenodd"></path></svg>