<svg width="28" height="28" viewBox="0 0 28 28" fill="none" xmlns="http://www.w3.org/2000/svg"><path d="M10.942 3.594 C 10.051 3.707,8.936 4.285,8.147 5.041 C 7.416 5.744,6.930 6.607,6.690 7.635 C 6.610 7.974,6.603 8.251,6.603 11.133 L 6.603 14.264 6.729 14.454 C 6.895 14.704,7.299 14.911,7.544 14.871 C 7.747 14.838,8.042 14.652,8.148 14.489 C 8.252 14.330,8.300 13.623,8.305 12.180 C 8.308 11.551,8.329 10.361,8.352 9.535 C 8.393 8.098,8.400 8.019,8.518 7.669 C 8.839 6.711,9.475 6.013,10.424 5.575 C 10.900 5.356,11.221 5.306,12.001 5.330 C 12.617 5.348,12.700 5.362,13.043 5.497 C 13.955 5.858,14.662 6.570,15.078 7.546 L 15.233 7.910 15.265 11.317 C 15.283 13.190,15.299 16.243,15.302 18.100 L 15.307 21.476 13.848 20.041 C 13.046 19.251,12.327 18.567,12.250 18.520 C 12.151 18.459,12.019 18.434,11.799 18.434 C 11.527 18.433,11.467 18.450,11.332 18.562 C 10.917 18.905,10.850 19.196,11.082 19.645 C 11.169 19.812,14.890 23.554,15.526 24.112 C 15.972 24.505,16.125 24.556,16.464 24.428 C 16.650 24.357,17.031 23.995,18.975 22.046 C 20.263 20.753,21.300 19.676,21.343 19.585 C 21.507 19.239,21.379 18.780,21.054 18.555 C 20.909 18.455,20.826 18.433,20.577 18.434 C 20.367 18.434,20.234 18.460,20.137 18.520 C 20.060 18.567,19.340 19.251,18.538 20.041 L 17.080 21.476 17.078 16.117 C 17.075 9.700,17.038 7.926,16.897 7.433 C 16.369 5.589,14.944 4.172,13.127 3.685 C 12.709 3.573,11.504 3.523,10.942 3.594 " fill="#1A1C1F" stroke="none" fill-rule="evenodd"></path></svg>