<svg width="32" height="32" viewBox="0 0 32 32" fill="none" xmlns="http://www.w3.org/2000/svg"><path d="M15.747 4.060 C 15.628 4.094,15.136 4.532,14.174 5.459 C 12.557 7.018,8.374 11.259,8.167 11.550 C 8.058 11.704,8.027 11.808,8.029 12.023 C 8.036 12.765,8.875 13.243,9.473 12.846 C 9.587 12.771,10.874 11.527,12.333 10.082 L 14.987 7.456 14.991 16.248 C 14.994 21.084,15.012 25.569,15.031 26.215 C 15.071 27.525,15.073 27.532,15.504 27.838 C 15.913 28.129,16.624 27.923,16.873 27.441 C 16.983 27.230,16.983 27.193,17.005 17.341 L 17.026 7.454 18.953 9.369 C 22.051 12.449,22.447 12.822,22.736 12.932 C 22.955 13.016,23.021 13.020,23.210 12.963 C 23.529 12.868,23.875 12.513,23.957 12.197 C 24.019 11.959,24.014 11.924,23.893 11.695 C 23.717 11.364,21.567 9.140,18.786 6.413 C 16.276 3.951,16.234 3.919,15.747 4.060 " fill="#1A1C1F" stroke="none" fill-rule="evenodd"></path></svg>