<svg width="12" height="12" viewBox="0 0 12 12" fill="none" xmlns="http://www.w3.org/2000/svg"><path d="M4.830 1.074 C 4.297 1.143,3.894 1.292,3.493 1.566 C 2.924 1.955,2.544 2.506,2.368 3.195 C 2.302 3.456,2.281 3.978,2.281 5.448 L 2.280 6.566 2.350 6.691 C 2.566 7.078,2.973 7.171,3.295 6.907 C 3.343 6.868,3.406 6.798,3.434 6.753 C 3.502 6.646,3.517 6.441,3.520 5.610 C 3.523 4.680,3.555 3.522,3.581 3.430 C 3.620 3.293,3.755 3.036,3.865 2.891 C 4.003 2.707,4.184 2.564,4.433 2.441 L 4.636 2.340 5.065 2.340 L 5.493 2.340 5.682 2.435 C 6.104 2.647,6.359 2.933,6.529 3.384 L 6.576 3.511 6.591 6.161 L 6.606 8.810 6.231 8.444 C 5.665 7.891,5.624 7.865,5.348 7.886 C 5.180 7.898,5.071 7.948,4.961 8.061 C 4.836 8.190,4.810 8.262,4.810 8.482 L 4.810 8.673 4.900 8.791 C 5.008 8.932,6.233 10.176,6.634 10.551 C 6.998 10.892,7.061 10.930,7.260 10.928 C 7.355 10.927,7.432 10.915,7.470 10.895 C 7.599 10.828,9.252 9.202,9.519 8.880 C 9.668 8.699,9.707 8.605,9.695 8.450 C 9.669 8.130,9.453 7.904,9.153 7.885 C 8.866 7.866,8.794 7.911,8.247 8.446 L 7.840 8.845 7.840 6.199 L 7.840 3.554 7.779 3.305 C 7.632 2.709,7.418 2.303,7.042 1.914 C 6.687 1.546,6.261 1.293,5.790 1.171 C 5.691 1.145,5.472 1.109,5.304 1.092 C 5.004 1.060,4.949 1.058,4.830 1.074 " fill="#1A1C1F" stroke="none" fill-rule="evenodd"></path></svg>