<svg width="14" height="14" viewBox="0 0 14 14" fill="none" xmlns="http://www.w3.org/2000/svg"><path d="M6.860 1.343 C 6.716 1.389,6.544 1.521,6.463 1.649 C 6.332 1.856,6.323 2.104,6.438 2.330 C 6.463 2.378,6.851 2.791,7.300 3.247 L 8.117 4.076 6.993 4.091 C 5.728 4.108,5.135 4.137,4.948 4.191 C 4.654 4.275,4.237 4.530,4.008 4.766 C 3.780 5.000,3.585 5.352,3.466 5.745 L 3.404 5.949 3.412 9.024 C 3.422 12.528,3.405 12.258,3.619 12.474 C 3.839 12.697,4.132 12.762,4.388 12.643 C 4.630 12.531,4.767 12.372,4.807 12.153 C 4.821 12.079,4.839 10.812,4.851 9.024 L 4.872 6.019 4.943 5.909 C 5.034 5.768,5.172 5.634,5.262 5.600 C 5.382 5.554,5.971 5.531,7.067 5.531 L 8.125 5.530 7.325 6.341 C 6.885 6.787,6.485 7.202,6.436 7.265 C 6.387 7.327,6.330 7.436,6.309 7.508 C 6.274 7.629,6.274 7.654,6.307 7.810 C 6.386 8.172,6.639 8.384,6.988 8.382 C 7.195 8.381,7.252 8.358,7.454 8.195 C 7.661 8.028,10.058 5.637,10.301 5.355 C 10.541 5.076,10.579 5.001,10.580 4.792 C 10.580 4.652,10.571 4.612,10.520 4.535 C 10.377 4.319,7.758 1.679,7.460 1.450 C 7.272 1.306,7.083 1.272,6.860 1.343 " fill="#1A1C1F" stroke="none" fill-rule="evenodd"></path></svg>