<svg width="24" height="24" viewBox="0 0 24 24" fill="none" xmlns="http://www.w3.org/2000/svg"><path d="M12.934 3.156 C 12.313 3.314,12.012 4.082,12.364 4.613 C 12.429 4.711,12.951 5.271,13.525 5.856 L 14.568 6.920 13.334 6.924 C 12.655 6.926,11.632 6.941,11.060 6.957 C 10.099 6.985,9.993 6.995,9.660 7.094 C 9.179 7.236,8.414 7.618,8.019 7.912 C 7.085 8.609,6.393 9.671,6.113 10.837 C 6.032 11.172,6.030 11.282,6.025 15.680 L 6.020 20.180 6.131 20.369 C 6.531 21.049,7.483 21.043,7.874 20.357 L 7.987 20.160 8.014 15.827 C 8.030 13.387,8.059 11.391,8.080 11.258 C 8.130 10.951,8.461 10.289,8.710 9.996 C 9.125 9.509,9.823 9.077,10.318 9.001 C 10.460 8.980,11.468 8.950,12.558 8.935 L 14.540 8.907 13.413 10.055 C 12.793 10.686,12.232 11.284,12.166 11.383 C 11.951 11.708,11.953 12.039,12.173 12.405 C 12.342 12.686,12.601 12.849,12.917 12.872 C 13.320 12.901,13.383 12.855,14.761 11.517 C 16.271 10.050,17.747 8.535,17.873 8.322 C 18.008 8.092,18.031 7.778,17.926 7.573 C 17.746 7.219,13.987 3.439,13.629 3.251 C 13.439 3.152,13.123 3.108,12.934 3.156 " fill="#1A1C1F" stroke="none" fill-rule="evenodd"></path></svg>