<svg width="14" height="14" viewBox="0 0 14 14" fill="none" xmlns="http://www.w3.org/2000/svg"><path d="M6.802 2.034 C 6.763 2.049,6.692 2.086,6.642 2.117 C 6.531 2.187,3.865 4.845,3.655 5.095 C 3.571 5.196,3.478 5.326,3.450 5.385 C 3.402 5.484,3.400 5.502,3.427 5.654 C 3.475 5.937,3.606 6.116,3.850 6.236 C 3.988 6.303,4.265 6.307,4.387 6.243 C 4.527 6.170,4.703 6.008,5.463 5.255 C 5.930 4.792,6.208 4.533,6.218 4.550 C 6.228 4.565,6.243 6.117,6.253 7.999 C 6.273 11.897,6.256 11.601,6.466 11.789 C 6.700 12.000,6.911 12.050,7.181 11.960 C 7.338 11.908,7.530 11.735,7.613 11.569 L 7.677 11.444 7.677 9.191 C 7.677 6.607,7.699 4.480,7.726 4.480 C 7.737 4.480,8.068 4.798,8.463 5.186 C 9.607 6.310,9.575 6.285,9.872 6.283 C 10.063 6.281,10.171 6.247,10.303 6.145 C 10.555 5.953,10.665 5.536,10.524 5.304 C 10.441 5.167,9.890 4.598,8.665 3.383 C 7.756 2.483,7.396 2.140,7.304 2.091 C 7.164 2.015,6.924 1.988,6.802 2.034 " fill="#1A1C1F" stroke="none" fill-rule="evenodd"></path></svg>