<svg width="28" height="28" viewBox="0 0 28 28" fill="none" xmlns="http://www.w3.org/2000/svg"><path d="M12.191 3.683 C 12.050 3.749,11.366 4.402,9.855 5.913 C 8.680 7.088,7.657 8.143,7.581 8.256 C 7.377 8.562,7.391 8.833,7.628 9.132 C 7.885 9.455,11.890 13.432,12.200 13.671 C 12.530 13.926,12.760 13.960,13.067 13.800 C 13.418 13.616,13.592 13.229,13.513 12.808 C 13.478 12.621,13.206 12.322,11.506 10.601 L 10.477 9.558 12.787 9.582 C 14.702 9.602,15.156 9.620,15.447 9.684 C 16.873 9.999,18.096 11.139,18.601 12.623 L 18.728 12.997 18.764 15.097 C 18.784 16.252,18.802 18.677,18.805 20.487 L 18.809 23.777 18.942 23.952 C 19.126 24.196,19.273 24.301,19.519 24.367 C 19.700 24.415,19.760 24.412,19.951 24.339 C 20.308 24.202,20.434 24.058,20.500 23.707 C 20.581 23.273,20.577 13.650,20.495 13.031 C 20.431 12.546,20.191 11.768,19.953 11.273 C 19.230 9.770,17.858 8.602,16.170 8.050 C 15.658 7.883,15.157 7.849,12.608 7.811 L 10.446 7.778 11.468 6.747 C 13.524 4.673,13.539 4.651,13.271 4.113 C 13.053 3.675,12.597 3.494,12.191 3.683 " fill="#1A1C1F" stroke="none" fill-rule="evenodd"></path></svg>