<svg width="20" height="20" viewBox="0 0 20 20" fill="none" xmlns="http://www.w3.org/2000/svg"><path d="M7.883 2.033 C 7.026 2.114,6.084 2.570,5.376 3.246 C 4.775 3.820,4.428 4.389,4.155 5.250 C 3.990 5.770,3.988 5.795,3.987 8.417 C 3.985 11.235,3.974 11.111,4.263 11.399 C 4.497 11.632,4.628 11.683,4.983 11.683 C 5.337 11.682,5.473 11.626,5.691 11.389 C 5.975 11.081,5.955 11.266,5.982 8.733 C 5.995 7.496,6.018 6.331,6.032 6.144 C 6.057 5.832,6.073 5.776,6.225 5.460 C 6.433 5.027,6.638 4.756,6.924 4.535 C 7.398 4.169,7.840 4.021,8.467 4.019 C 8.954 4.017,9.182 4.068,9.584 4.265 C 10.109 4.522,10.555 5.007,10.805 5.594 L 10.914 5.850 10.937 8.033 C 10.950 9.234,10.961 11.190,10.963 12.380 L 10.967 14.543 10.388 13.975 C 9.705 13.304,9.469 13.120,9.227 13.068 C 8.535 12.920,7.883 13.587,8.064 14.258 C 8.117 14.455,8.311 14.677,9.350 15.729 C 10.527 16.923,11.496 17.847,11.656 17.927 C 11.854 18.026,12.004 18.040,12.272 17.984 L 12.516 17.934 13.361 17.092 C 14.589 15.868,15.855 14.553,15.914 14.439 C 16.014 14.246,16.034 14.063,15.983 13.818 C 15.922 13.531,15.836 13.403,15.583 13.225 C 15.389 13.087,15.375 13.083,15.081 13.072 C 14.871 13.064,14.744 13.075,14.664 13.109 C 14.498 13.178,14.199 13.436,13.546 14.075 L 12.971 14.638 12.958 10.261 C 12.945 5.958,12.944 5.878,12.875 5.574 C 12.598 4.351,11.970 3.431,10.938 2.735 C 10.692 2.570,10.143 2.302,9.844 2.203 C 9.405 2.057,8.482 1.977,7.883 2.033 " fill="#1A1C1F" stroke="none" fill-rule="evenodd"></path></svg>