<svg width="24" height="24" viewBox="0 0 24 24" fill="none" xmlns="http://www.w3.org/2000/svg"><path d="M11.516 3.167 C 11.299 3.324,8.028 6.568,6.990 7.657 C 6.182 8.504,6.000 8.740,6.000 8.941 C 6.000 9.127,6.100 9.427,6.219 9.598 C 6.420 9.889,6.885 10.056,7.233 9.962 C 7.461 9.900,7.769 9.622,9.557 7.856 L 10.996 6.435 11.012 13.268 C 11.023 18.276,11.040 20.153,11.074 20.298 C 11.127 20.525,11.284 20.710,11.560 20.873 C 11.798 21.014,12.179 21.021,12.420 20.890 C 12.609 20.786,12.814 20.603,12.882 20.476 C 12.972 20.307,12.996 18.685,12.998 12.526 L 13.000 6.431 14.488 7.900 C 16.625 10.010,16.669 10.045,17.110 9.985 C 17.568 9.922,17.906 9.568,17.980 9.075 C 18.030 8.740,17.957 8.642,16.695 7.342 C 15.100 5.701,12.492 3.161,12.333 3.095 C 12.261 3.065,12.088 3.040,11.947 3.040 C 11.724 3.040,11.670 3.056,11.516 3.167 " fill="#1A1C1F" stroke="none" fill-rule="evenodd"></path></svg>