<svg width="20" height="20" viewBox="0 0 20 20" fill="none" xmlns="http://www.w3.org/2000/svg"><path d="M9.836 2.104 C 9.548 2.159,9.285 2.414,9.160 2.760 C 9.039 3.092,9.106 3.373,9.387 3.713 C 9.488 3.836,10.022 4.393,10.573 4.951 L 11.575 5.967 10.046 5.968 C 8.035 5.969,7.392 6.001,7.044 6.118 C 6.112 6.430,5.372 7.233,5.068 8.260 L 4.996 8.503 5.009 12.810 C 5.020 16.159,5.032 17.153,5.065 17.280 C 5.096 17.400,5.151 17.487,5.266 17.602 C 5.486 17.823,5.666 17.907,5.955 17.926 C 6.158 17.939,6.219 17.930,6.375 17.858 C 6.600 17.755,6.827 17.555,6.894 17.400 C 6.958 17.255,6.991 15.787,7.000 12.767 C 7.004 11.639,7.016 10.242,7.028 9.661 L 7.050 8.606 7.183 8.413 C 7.265 8.294,7.380 8.180,7.481 8.118 L 7.645 8.017 8.581 7.995 C 9.095 7.983,9.974 7.972,10.533 7.970 L 11.550 7.967 10.664 8.858 C 9.301 10.232,9.152 10.396,9.067 10.622 C 8.936 10.969,9.032 11.367,9.316 11.651 C 9.494 11.828,9.673 11.910,9.922 11.927 C 10.181 11.944,10.314 11.900,10.575 11.708 C 11.022 11.379,14.769 7.589,14.903 7.330 C 15.014 7.115,15.013 6.771,14.900 6.557 C 14.852 6.467,14.560 6.134,14.218 5.778 C 13.252 4.777,10.596 2.195,10.485 2.150 C 10.345 2.093,10.014 2.070,9.836 2.104 " fill="#1A1C1F" stroke="none" fill-rule="evenodd"></path></svg>