<svg width="28" height="28" viewBox="0 0 28 28" fill="none" xmlns="http://www.w3.org/2000/svg"><path d="M13.779 3.552 C 13.675 3.582,13.244 3.966,12.402 4.777 C 10.993 6.135,7.325 9.854,7.145 10.108 C 7.050 10.241,7.024 10.333,7.026 10.520 C 7.032 11.170,7.765 11.588,8.289 11.240 C 8.389 11.174,9.515 10.086,10.792 8.822 L 13.113 6.524 13.117 14.217 C 13.120 18.448,13.135 22.373,13.152 22.938 C 13.187 24.084,13.189 24.090,13.566 24.358 C 13.924 24.613,14.546 24.433,14.764 24.011 C 14.859 23.827,14.860 23.789,14.879 15.174 L 14.898 6.522 16.561 8.175 C 19.293 10.891,19.641 11.219,19.894 11.315 C 20.085 11.389,20.143 11.393,20.308 11.343 C 20.588 11.259,20.891 10.949,20.963 10.673 C 21.017 10.465,21.012 10.433,20.906 10.233 C 20.753 9.944,18.871 7.997,16.438 5.611 C 14.241 3.457,14.205 3.429,13.779 3.552 " fill="#1A1C1F" stroke="none" fill-rule="evenodd"></path></svg>