<svg width="16" height="16" viewBox="0 0 16 16" fill="none" xmlns="http://www.w3.org/2000/svg"><path d="M7.808 2.370 C 7.754 2.382,7.664 2.426,7.608 2.468 C 7.351 2.664,5.510 4.484,4.462 5.578 C 4.049 6.009,3.947 6.167,3.947 6.374 C 3.947 6.592,4.014 6.757,4.175 6.931 C 4.359 7.129,4.494 7.186,4.773 7.185 C 5.108 7.183,5.123 7.171,6.380 5.922 L 7.147 5.160 7.147 9.101 L 7.147 13.042 7.203 13.154 C 7.275 13.299,7.477 13.508,7.613 13.581 C 7.773 13.665,8.128 13.664,8.290 13.577 C 8.446 13.494,8.642 13.295,8.714 13.145 L 8.773 13.023 8.773 9.052 L 8.773 5.080 9.580 5.882 C 10.900 7.194,10.889 7.185,11.253 7.184 C 11.519 7.183,11.629 7.138,11.812 6.955 C 12.006 6.762,12.083 6.501,12.028 6.216 C 12.003 6.089,11.974 6.045,11.767 5.819 C 11.397 5.416,9.364 3.367,8.888 2.917 C 8.650 2.692,8.410 2.479,8.354 2.442 C 8.242 2.368,7.982 2.334,7.808 2.370 " fill="#1A1C1F" stroke="none" fill-rule="evenodd"></path></svg>