<svg width="14" height="14" viewBox="0 0 14 14" fill="none" xmlns="http://www.w3.org/2000/svg"><path d="M6.749 1.329 C 6.708 1.339,6.614 1.393,6.540 1.450 C 6.242 1.679,3.625 4.316,3.481 4.533 C 3.427 4.615,3.419 4.651,3.420 4.804 C 3.421 5.024,3.439 5.059,3.701 5.357 C 3.963 5.655,6.200 7.891,6.474 8.129 C 6.748 8.366,6.785 8.385,7.003 8.385 C 7.149 8.385,7.203 8.374,7.311 8.321 C 7.549 8.205,7.703 7.949,7.706 7.665 C 7.710 7.387,7.704 7.380,6.500 6.166 L 5.869 5.530 6.930 5.531 C 8.010 5.531,8.618 5.554,8.731 5.597 C 8.822 5.632,8.969 5.771,9.054 5.904 L 9.127 6.018 9.148 9.024 C 9.161 10.861,9.179 12.079,9.193 12.155 C 9.244 12.424,9.465 12.629,9.777 12.695 C 10.039 12.752,10.391 12.553,10.533 12.268 L 10.593 12.148 10.593 9.056 L 10.593 5.964 10.533 5.765 C 10.401 5.331,10.247 5.048,10.007 4.795 C 9.754 4.528,9.359 4.278,9.053 4.191 C 8.865 4.137,8.274 4.108,7.007 4.091 L 5.882 4.076 6.679 3.269 C 7.116 2.825,7.504 2.416,7.540 2.360 C 7.638 2.205,7.665 2.040,7.620 1.866 C 7.520 1.475,7.135 1.238,6.749 1.329 " fill="#1A1C1F" stroke="none" fill-rule="evenodd"></path></svg>