<svg width="32" height="32" viewBox="0 0 32 32" fill="none" xmlns="http://www.w3.org/2000/svg"><path d="M17.389 4.176 C 17.140 4.256,16.820 4.587,16.743 4.845 C 16.592 5.348,16.682 5.471,18.672 7.490 L 20.050 8.890 17.585 8.927 C 14.556 8.972,14.091 9.006,13.431 9.227 C 12.376 9.580,11.323 10.238,10.507 11.054 C 9.763 11.798,9.233 12.657,8.858 13.727 C 8.529 14.665,8.534 14.549,8.498 21.120 L 8.466 27.120 8.646 27.383 C 8.873 27.713,9.156 27.868,9.528 27.864 C 9.831 27.861,10.165 27.684,10.323 27.442 C 10.455 27.241,10.502 26.030,10.509 22.587 C 10.513 20.915,10.534 18.491,10.557 17.200 C 10.597 14.975,10.605 14.834,10.719 14.480 C 11.268 12.771,12.690 11.434,14.347 11.067 C 14.677 10.994,15.204 10.974,17.385 10.949 L 20.024 10.919 18.407 12.566 C 17.518 13.472,16.732 14.313,16.660 14.434 C 16.422 14.839,16.501 15.271,16.877 15.618 C 17.186 15.903,17.490 15.956,17.838 15.788 C 18.012 15.703,18.792 14.960,20.629 13.129 C 22.032 11.731,23.250 10.481,23.336 10.351 C 23.574 9.994,23.555 9.753,23.256 9.356 C 22.972 8.978,20.013 5.977,18.964 5.003 C 18.010 4.116,17.847 4.030,17.389 4.176 " fill="#1A1C1F" stroke="none" fill-rule="evenodd"></path></svg>