<svg width="20" height="20" viewBox="0 0 20 20" fill="none" xmlns="http://www.w3.org/2000/svg"><path d="M9.650 2.097 C 9.595 2.111,9.498 2.149,9.433 2.181 C 9.369 2.214,8.386 3.172,7.248 4.312 C 5.646 5.917,5.162 6.422,5.099 6.550 C 4.986 6.779,4.985 7.120,5.096 7.330 C 5.234 7.591,8.982 11.382,9.425 11.708 C 9.686 11.900,9.819 11.944,10.078 11.927 C 10.327 11.910,10.506 11.828,10.684 11.651 C 10.968 11.367,11.064 10.969,10.933 10.622 C 10.848 10.397,10.714 10.249,9.335 8.855 L 8.450 7.959 10.267 7.981 C 11.266 7.992,12.163 8.011,12.261 8.023 C 12.414 8.040,12.464 8.066,12.621 8.209 C 12.721 8.301,12.840 8.439,12.885 8.517 L 12.968 8.659 13.001 12.838 C 13.019 15.136,13.048 17.102,13.065 17.207 C 13.104 17.444,13.129 17.492,13.302 17.648 C 13.735 18.039,14.270 18.032,14.711 17.630 C 14.998 17.369,14.978 17.707,14.992 12.806 L 15.004 8.496 14.913 8.223 C 14.606 7.299,14.086 6.656,13.350 6.290 C 12.765 5.998,12.473 5.970,10.005 5.968 L 8.426 5.967 9.435 4.942 C 10.566 3.794,10.774 3.558,10.848 3.339 C 10.914 3.148,10.913 3.035,10.847 2.799 C 10.731 2.386,10.403 2.121,9.967 2.088 C 9.848 2.079,9.705 2.083,9.650 2.097 " fill="#1A1C1F" stroke="none" fill-rule="evenodd"></path></svg>