<svg width="32" height="32" viewBox="0 0 32 32" fill="none" xmlns="http://www.w3.org/2000/svg"><path d="M13.920 4.222 C 13.645 4.361,8.926 9.041,8.663 9.436 C 8.430 9.786,8.447 10.095,8.718 10.436 C 9.009 10.803,13.594 15.355,13.947 15.627 C 14.320 15.915,14.584 15.953,14.933 15.771 C 15.065 15.702,15.226 15.567,15.291 15.472 C 15.427 15.271,15.494 14.908,15.444 14.642 C 15.405 14.432,15.019 14.008,13.124 12.088 L 11.973 10.924 14.613 10.951 C 16.802 10.974,17.322 10.994,17.653 11.067 C 19.312 11.434,20.733 12.772,21.280 14.480 C 21.394 14.834,21.402 14.978,21.443 17.253 C 21.466 18.573,21.488 21.345,21.491 23.413 L 21.496 27.173 21.652 27.379 C 22.010 27.852,22.407 27.985,22.867 27.787 C 23.242 27.626,23.352 27.489,23.428 27.088 C 23.521 26.600,23.517 15.600,23.423 14.893 C 23.245 13.545,22.466 12.009,21.442 10.985 C 20.671 10.214,19.450 9.487,18.453 9.206 C 17.686 8.989,17.168 8.952,14.488 8.922 L 11.935 8.892 13.105 7.713 C 15.456 5.341,15.473 5.316,15.167 4.700 C 14.911 4.188,14.387 3.986,13.920 4.222 " fill="#1A1C1F" stroke="none" fill-rule="evenodd"></path></svg>