<svg width="32" height="32" viewBox="0 0 32 32" fill="none" xmlns="http://www.w3.org/2000/svg"><path d="M12.347 4.134 C 11.614 4.272,10.578 4.739,9.918 5.228 C 9.476 5.555,8.837 6.219,8.535 6.664 C 8.206 7.148,7.857 7.917,7.692 8.519 L 7.548 9.040 7.548 12.671 L 7.547 16.301 7.691 16.519 C 7.880 16.805,8.341 17.041,8.622 16.996 C 8.854 16.958,9.190 16.745,9.313 16.559 C 9.430 16.379,9.486 15.572,9.492 13.947 C 9.495 13.243,9.519 11.881,9.545 10.921 C 9.594 9.191,9.595 9.171,9.750 8.724 C 9.935 8.186,10.307 7.569,10.655 7.225 C 11.140 6.743,11.864 6.327,12.505 6.162 C 12.934 6.051,14.106 6.051,14.535 6.162 C 15.691 6.460,16.704 7.385,17.232 8.625 L 17.409 9.040 17.446 12.907 C 17.466 15.033,17.485 18.522,17.488 20.659 L 17.493 24.544 15.827 22.904 C 14.910 22.002,14.088 21.219,14.000 21.165 C 13.753 21.014,13.193 21.028,12.971 21.192 C 12.498 21.541,12.401 21.940,12.665 22.451 C 12.765 22.643,17.164 27.064,17.801 27.612 C 18.417 28.142,18.612 28.135,19.268 27.557 C 19.508 27.346,20.751 26.129,22.031 24.852 C 24.544 22.344,24.517 22.378,24.467 21.856 C 24.436 21.538,24.307 21.349,24.002 21.179 C 23.661 20.989,23.280 20.997,22.982 21.202 C 22.856 21.289,22.025 22.077,21.136 22.953 L 19.520 24.546 19.516 18.580 C 19.513 15.298,19.493 11.773,19.471 10.747 L 19.430 8.880 19.236 8.293 C 18.580 6.309,17.237 4.946,15.296 4.298 C 14.595 4.063,13.145 3.983,12.347 4.134 " fill="#1A1C1F" stroke="none" fill-rule="evenodd"></path></svg>