<svg width="16" height="16" viewBox="0 0 16 16" fill="none" xmlns="http://www.w3.org/2000/svg"><path d="M2.893 1.652 C 2.653 1.675,2.376 1.817,2.136 2.040 C 1.928 2.234,1.789 2.443,1.681 2.722 L 1.600 2.932 1.600 7.992 L 1.600 13.053 1.678 13.262 C 1.879 13.799,2.244 14.157,2.769 14.332 L 2.974 14.400 8.005 14.400 L 13.036 14.400 13.249 14.325 C 13.531 14.225,13.724 14.105,13.918 13.908 C 14.115 13.708,14.243 13.497,14.336 13.220 L 14.407 13.006 14.393 7.963 C 14.380 2.933,14.380 2.920,14.324 2.747 C 14.141 2.178,13.603 1.707,13.075 1.651 C 12.830 1.626,3.167 1.626,2.893 1.652 M8.853 4.854 C 8.978 4.869,9.168 4.906,9.275 4.935 C 9.861 5.093,10.337 5.538,10.514 6.093 C 10.568 6.262,10.573 6.331,10.570 6.800 C 10.567 7.262,10.560 7.339,10.508 7.493 C 10.405 7.795,10.293 7.976,10.068 8.203 C 9.816 8.457,9.566 8.593,9.133 8.709 C 8.889 8.775,8.816 8.782,8.253 8.793 C 7.916 8.799,7.571 8.793,7.487 8.780 L 7.334 8.755 7.322 8.837 C 7.315 8.883,7.301 9.316,7.292 9.800 C 7.275 10.675,7.275 10.680,7.208 10.793 C 7.119 10.946,6.935 11.103,6.798 11.144 C 6.737 11.163,6.617 11.177,6.532 11.177 C 6.258 11.176,6.058 11.054,5.908 10.798 L 5.813 10.637 5.813 7.936 L 5.813 5.236 5.913 5.093 C 6.060 4.883,6.141 4.845,6.492 4.823 C 6.894 4.798,8.574 4.820,8.853 4.854 M7.307 6.656 C 7.307 7.051,7.315 7.472,7.324 7.593 L 7.341 7.813 7.919 7.813 C 8.599 7.813,8.684 7.795,8.881 7.603 C 9.070 7.418,9.129 7.240,9.132 6.851 C 9.133 6.548,9.131 6.537,9.040 6.358 C 8.967 6.215,8.920 6.159,8.825 6.101 C 8.667 6.003,8.525 5.982,7.859 5.959 L 7.307 5.939 7.307 6.656 " fill="#1A1C1F" stroke="none" fill-rule="evenodd"></path></svg>