<svg width="28" height="28" viewBox="0 0 28 28" fill="none" xmlns="http://www.w3.org/2000/svg"><path d="M6.347 1.822 C 4.446 1.842,3.613 1.867,3.489 1.907 C 3.232 1.991,2.645 2.399,2.428 2.646 C 2.184 2.923,2.001 3.249,1.848 3.678 L 1.727 4.019 1.727 13.995 C 1.727 23.714,1.729 23.979,1.816 24.233 C 2.169 25.258,2.740 25.830,3.761 26.182 C 4.023 26.272,4.206 26.273,14.000 26.273 C 23.794 26.273,23.977 26.272,24.239 26.182 C 25.258 25.831,25.832 25.254,26.186 24.224 C 26.270 23.981,26.273 23.602,26.273 14.000 C 26.273 4.239,26.271 4.022,26.182 3.764 C 25.913 2.981,25.458 2.419,24.803 2.059 L 24.430 1.854 21.653 1.817 C 18.516 1.776,10.380 1.778,6.347 1.822 M24.130 3.718 C 24.234 3.812,24.350 3.948,24.386 4.019 C 24.444 4.131,24.453 5.537,24.453 14.037 L 24.453 23.925 24.327 24.088 C 24.049 24.444,24.145 24.426,22.330 24.467 C 21.432 24.488,16.980 24.498,12.437 24.489 C 4.337 24.474,4.173 24.472,3.991 24.382 C 3.733 24.255,3.608 24.047,3.562 23.670 C 3.541 23.498,3.523 19.031,3.524 13.743 L 3.524 4.130 3.634 3.953 C 3.770 3.734,3.895 3.649,4.159 3.597 C 4.271 3.575,8.768 3.555,14.152 3.552 L 23.940 3.547 24.130 3.718 M11.479 7.464 C 11.012 7.488,10.914 7.508,10.732 7.615 C 10.465 7.771,10.237 8.088,10.162 8.407 C 10.117 8.600,10.104 9.864,10.104 13.953 L 10.103 19.250 10.232 19.468 C 10.568 20.040,11.244 20.260,11.797 19.978 C 12.035 19.857,12.346 19.511,12.417 19.290 C 12.457 19.163,12.480 18.497,12.495 17.041 L 12.515 14.971 12.616 14.999 C 12.864 15.066,14.125 15.128,14.692 15.101 C 16.802 14.999,18.070 14.375,18.681 13.139 C 18.983 12.530,19.040 12.210,19.040 11.142 C 19.040 10.271,19.033 10.191,18.921 9.859 C 18.708 9.225,18.577 9.009,18.131 8.559 C 17.775 8.201,17.642 8.102,17.267 7.917 C 16.652 7.614,16.167 7.517,15.003 7.465 C 13.991 7.419,12.337 7.419,11.479 7.464 M14.549 9.195 C 15.414 9.245,15.656 9.300,16.015 9.527 C 16.456 9.807,16.658 10.340,16.658 11.223 C 16.658 12.491,16.229 13.110,15.196 13.333 C 14.834 13.411,13.492 13.434,12.897 13.373 L 12.565 13.338 12.536 13.126 C 12.520 13.009,12.507 12.066,12.507 11.030 L 12.507 9.147 13.125 9.147 C 13.465 9.148,14.106 9.169,14.549 9.195 " fill="#1A1C1F" stroke="none" fill-rule="evenodd"></path></svg>