<svg width="14" height="14" viewBox="0 0 14 14" fill="none" xmlns="http://www.w3.org/2000/svg"><path d="M4.023 1.421 L 2.435 1.435 2.227 1.538 C 2.060 1.620,1.981 1.678,1.831 1.829 C 1.634 2.027,1.534 2.188,1.449 2.443 C 1.400 2.588,1.400 2.590,1.400 6.995 C 1.400 11.890,1.387 11.478,1.557 11.818 C 1.615 11.933,1.696 12.038,1.829 12.171 C 2.026 12.368,2.177 12.461,2.446 12.552 C 2.588 12.600,2.607 12.600,7.000 12.600 C 11.393 12.600,11.412 12.600,11.554 12.552 C 11.800 12.469,11.965 12.371,12.140 12.205 C 12.336 12.019,12.442 11.853,12.534 11.593 L 12.600 11.407 12.600 6.998 C 12.600 2.590,12.600 2.588,12.551 2.443 C 12.465 2.187,12.366 2.027,12.169 1.831 C 12.038 1.699,11.930 1.616,11.809 1.554 C 11.654 1.473,11.613 1.462,11.386 1.446 C 11.041 1.420,5.971 1.403,4.023 1.421 M7.735 4.247 C 7.851 4.260,8.022 4.292,8.115 4.317 C 8.630 4.457,9.045 4.846,9.200 5.332 C 9.247 5.479,9.251 5.539,9.249 5.950 C 9.246 6.354,9.240 6.422,9.194 6.557 C 9.105 6.820,9.006 6.979,8.809 7.178 C 8.590 7.399,8.374 7.516,7.992 7.622 C 7.762 7.686,7.748 7.687,7.086 7.688 C 6.434 7.688,6.414 7.690,6.405 7.735 C 6.400 7.761,6.390 8.133,6.382 8.563 L 6.367 9.345 6.287 9.468 C 6.188 9.618,6.052 9.719,5.884 9.768 C 5.724 9.815,5.587 9.798,5.432 9.714 C 5.299 9.641,5.225 9.561,5.144 9.401 L 5.087 9.288 5.087 6.935 L 5.087 4.581 5.174 4.456 C 5.301 4.275,5.374 4.240,5.669 4.220 C 5.999 4.198,7.472 4.217,7.735 4.247 M6.393 5.980 C 6.393 6.626,6.399 6.769,6.426 6.796 C 6.473 6.843,6.971 6.867,7.276 6.837 C 7.559 6.810,7.680 6.763,7.796 6.633 C 7.938 6.476,7.988 6.310,7.990 5.994 C 7.992 5.730,7.990 5.720,7.910 5.564 C 7.846 5.439,7.805 5.389,7.722 5.338 C 7.584 5.252,7.453 5.233,6.874 5.213 L 6.393 5.196 6.393 5.980 " fill="#1A1C1F" stroke="none" fill-rule="evenodd"></path></svg>