<svg width="20" height="20" viewBox="0 0 20 20" fill="none" xmlns="http://www.w3.org/2000/svg"><path d="M5.847 2.030 L 3.478 2.050 3.181 2.197 C 2.943 2.314,2.830 2.397,2.615 2.613 C 2.335 2.896,2.192 3.126,2.070 3.491 C 2.000 3.698,2.000 3.700,2.000 10.000 C 2.000 16.300,2.000 16.302,2.070 16.509 C 2.192 16.876,2.335 17.104,2.615 17.385 C 2.896 17.665,3.124 17.808,3.491 17.930 C 3.698 18.000,3.700 18.000,10.000 18.000 C 16.300 18.000,16.302 18.000,16.509 17.930 C 16.876 17.808,17.104 17.665,17.385 17.385 C 17.665 17.104,17.808 16.876,17.930 16.509 C 18.000 16.302,18.000 16.300,18.000 10.007 L 18.000 3.711 17.930 3.497 C 17.810 3.128,17.668 2.899,17.385 2.615 C 17.197 2.428,17.042 2.308,16.870 2.219 C 16.642 2.101,16.595 2.089,16.237 2.065 C 15.699 2.029,8.715 2.005,5.847 2.030 M16.000 10.000 L 16.000 16.000 10.000 16.000 L 4.000 16.000 4.000 10.000 L 4.000 4.000 10.000 4.000 L 16.000 4.000 16.000 10.000 M7.975 6.364 C 7.757 6.388,7.605 6.502,7.467 6.743 L 7.367 6.917 7.367 9.960 C 7.367 13.357,7.346 13.071,7.610 13.357 C 7.808 13.572,7.970 13.648,8.233 13.648 C 8.481 13.648,8.660 13.571,8.843 13.388 C 9.076 13.155,9.081 13.131,9.094 11.990 C 9.105 11.056,9.111 10.966,9.162 10.979 C 9.300 11.018,10.362 11.033,10.767 11.003 C 11.420 10.954,11.917 10.759,12.317 10.392 C 12.581 10.150,12.745 9.905,12.874 9.557 C 12.964 9.312,12.977 9.233,12.992 8.797 C 13.013 8.179,12.974 7.940,12.785 7.550 C 12.536 7.037,12.103 6.680,11.471 6.468 C 11.290 6.407,11.136 6.393,10.388 6.366 C 9.455 6.333,8.261 6.332,7.975 6.364 M10.878 7.710 C 11.159 7.863,11.262 8.016,11.308 8.346 C 11.360 8.715,11.302 9.217,11.185 9.417 C 10.985 9.758,10.650 9.878,9.900 9.876 C 9.616 9.876,9.320 9.865,9.242 9.851 L 9.100 9.827 9.100 8.692 L 9.100 7.556 9.886 7.577 L 10.673 7.597 10.878 7.710 " fill="#1A1C1F" stroke="none" fill-rule="evenodd"></path></svg>