<svg width="12" height="12" viewBox="0 0 12 12" fill="none" xmlns="http://www.w3.org/2000/svg"><path d="M3.488 1.218 L 2.087 1.230 1.918 1.314 C 1.575 1.484,1.365 1.730,1.242 2.102 L 1.199 2.234 1.205 6.002 C 1.211 9.475,1.214 9.780,1.246 9.895 C 1.304 10.110,1.392 10.256,1.568 10.432 C 1.738 10.603,1.850 10.672,2.089 10.753 L 2.227 10.800 6.000 10.800 L 9.773 10.800 9.917 10.751 C 10.130 10.678,10.253 10.605,10.410 10.457 C 10.573 10.302,10.665 10.159,10.743 9.937 L 10.800 9.777 10.800 6.002 L 10.800 2.227 10.751 2.083 C 10.681 1.876,10.606 1.749,10.471 1.604 C 10.343 1.467,10.239 1.388,10.081 1.309 C 10.002 1.269,9.932 1.254,9.755 1.240 C 9.460 1.217,5.277 1.202,3.488 1.218 M6.640 3.641 C 7.032 3.689,7.291 3.801,7.532 4.026 C 7.697 4.180,7.819 4.366,7.886 4.564 C 7.923 4.674,7.928 4.736,7.928 5.060 C 7.928 5.489,7.912 5.583,7.795 5.820 C 7.730 5.951,7.675 6.027,7.551 6.152 C 7.362 6.343,7.175 6.444,6.850 6.532 C 6.667 6.582,6.612 6.587,6.190 6.595 C 5.937 6.599,5.679 6.595,5.616 6.585 C 5.503 6.567,5.502 6.567,5.492 6.618 C 5.487 6.647,5.477 6.971,5.469 7.340 C 5.457 7.998,5.456 8.012,5.409 8.092 C 5.254 8.360,4.916 8.468,4.663 8.330 C 4.542 8.264,4.479 8.197,4.409 8.058 L 4.360 7.961 4.360 5.944 L 4.360 3.927 4.435 3.820 C 4.543 3.664,4.606 3.634,4.859 3.617 C 5.147 3.598,6.430 3.615,6.640 3.641 M5.480 5.004 C 5.480 5.307,5.486 5.623,5.493 5.707 L 5.506 5.860 5.939 5.860 C 6.449 5.860,6.513 5.846,6.660 5.702 C 6.802 5.564,6.846 5.431,6.848 5.138 C 6.850 4.911,6.849 4.903,6.780 4.769 C 6.725 4.662,6.690 4.619,6.619 4.575 C 6.500 4.502,6.394 4.487,5.894 4.469 L 5.480 4.454 5.480 5.004 " fill="#1A1C1F" stroke="none" fill-rule="evenodd"></path></svg>