<svg width="16" height="16" viewBox="0 0 16 16" fill="none" xmlns="http://www.w3.org/2000/svg"><path d="M3.253 1.545 L 2.653 1.560 2.474 1.647 C 2.030 1.865,1.709 2.231,1.547 2.705 C 1.494 2.862,1.493 2.911,1.493 8.012 L 1.493 13.160 1.549 13.307 C 1.655 13.586,1.800 13.826,1.960 13.988 C 2.174 14.205,2.325 14.303,2.612 14.414 L 2.852 14.507 8.033 14.500 L 13.213 14.493 13.400 14.416 C 13.654 14.311,13.824 14.198,14.011 14.011 C 14.198 13.824,14.311 13.654,14.416 13.400 L 14.493 13.213 14.501 8.040 L 14.508 2.867 14.451 2.707 C 14.284 2.237,14.028 1.928,13.611 1.693 L 13.374 1.560 11.614 1.544 C 9.487 1.524,4.088 1.525,3.253 1.545 M12.880 8.000 L 12.880 12.880 8.000 12.880 L 3.120 12.880 3.120 8.000 L 3.120 3.120 8.000 3.120 L 12.880 3.120 12.880 8.000 M6.453 5.036 C 6.205 5.058,6.092 5.123,5.962 5.319 L 5.867 5.462 5.869 7.165 C 5.873 9.563,5.896 10.496,5.953 10.604 C 6.019 10.727,6.220 10.892,6.352 10.932 C 6.519 10.982,6.722 10.974,6.843 10.911 C 6.970 10.846,7.159 10.655,7.203 10.547 C 7.226 10.491,7.239 10.208,7.247 9.632 L 7.259 8.798 7.409 8.812 C 8.067 8.871,8.737 8.840,9.101 8.734 C 9.456 8.631,9.679 8.507,9.918 8.278 C 10.295 7.918,10.432 7.556,10.436 6.907 C 10.439 6.471,10.407 6.303,10.256 5.985 C 10.033 5.511,9.504 5.159,8.880 5.068 C 8.650 5.035,6.753 5.009,6.453 5.036 M8.595 6.078 C 8.767 6.118,8.898 6.230,8.989 6.415 L 9.072 6.582 9.062 6.978 C 9.054 7.357,9.050 7.379,8.978 7.500 C 8.889 7.647,8.745 7.769,8.582 7.833 C 8.486 7.871,8.371 7.879,7.889 7.879 C 7.571 7.880,7.301 7.870,7.289 7.858 C 7.277 7.846,7.263 7.427,7.259 6.927 L 7.251 6.018 7.872 6.037 C 8.214 6.047,8.539 6.066,8.595 6.078 " fill="#1A1C1F" stroke="none" fill-rule="evenodd"></path></svg>