<svg width="32" height="32" viewBox="0 0 32 32" fill="none" xmlns="http://www.w3.org/2000/svg"><path d="M7.360 2.082 C 5.099 2.105,4.130 2.134,3.988 2.180 C 3.692 2.276,3.023 2.743,2.771 3.029 C 2.475 3.364,2.322 3.634,2.132 4.155 L 1.973 4.590 1.973 15.993 C 1.973 27.193,1.975 27.402,2.078 27.701 C 2.480 28.869,3.131 29.520,4.299 29.922 C 4.598 30.025,4.807 30.027,16.000 30.027 C 27.193 30.027,27.402 30.025,27.701 29.922 C 28.862 29.523,29.451 28.939,29.900 27.746 L 30.027 27.411 30.027 16.000 L 30.027 4.589 29.894 4.237 C 29.548 3.318,29.092 2.763,28.346 2.353 L 27.920 2.119 24.613 2.077 C 20.891 2.029,12.143 2.032,7.360 2.082 M27.577 4.249 C 27.696 4.357,27.828 4.512,27.870 4.593 C 27.936 4.721,27.947 6.328,27.947 16.042 L 27.947 27.343 27.802 27.529 C 27.483 27.938,27.607 27.915,25.413 27.963 C 24.328 27.986,19.240 27.997,14.107 27.987 C 4.966 27.969,4.769 27.967,4.561 27.864 C 4.267 27.720,4.124 27.483,4.071 27.051 C 4.046 26.854,4.027 21.747,4.027 15.701 L 4.028 4.709 4.183 4.485 C 4.357 4.235,4.435 4.181,4.730 4.112 C 4.846 4.085,9.744 4.062,16.147 4.059 L 27.360 4.053 27.577 4.249 M13.146 8.530 C 12.575 8.558,12.479 8.577,12.255 8.709 C 11.946 8.889,11.702 9.232,11.614 9.609 C 11.563 9.827,11.547 11.297,11.547 15.947 L 11.547 22.000 11.693 22.249 C 12.077 22.903,12.851 23.155,13.483 22.832 C 13.754 22.693,14.110 22.298,14.191 22.046 C 14.237 21.901,14.263 21.140,14.280 19.475 L 14.303 17.110 14.418 17.143 C 14.481 17.161,14.951 17.203,15.461 17.238 C 17.360 17.365,19.114 17.065,20.034 16.455 C 20.405 16.209,21.000 15.595,21.219 15.233 C 21.679 14.470,21.778 13.964,21.749 12.515 C 21.729 11.503,21.727 11.489,21.550 11.040 C 21.312 10.436,21.085 10.104,20.603 9.654 C 20.095 9.179,19.444 8.846,18.720 8.688 C 17.903 8.510,15.129 8.431,13.146 8.530 M16.598 10.508 C 17.614 10.564,17.888 10.625,18.301 10.887 C 18.793 11.199,18.981 11.641,19.025 12.591 C 19.099 14.175,18.633 14.942,17.428 15.226 C 17.077 15.309,15.140 15.340,14.573 15.272 L 14.293 15.238 14.293 12.846 L 14.293 10.453 14.973 10.454 C 15.347 10.455,16.079 10.479,16.598 10.508 " fill="#1A1C1F" stroke="none" fill-rule="evenodd"></path></svg>