<svg width="20" height="20" viewBox="0 0 20 20" fill="none" xmlns="http://www.w3.org/2000/svg"><path d="M5.847 2.030 L 3.478 2.050 3.181 2.197 C 2.943 2.314,2.830 2.397,2.615 2.613 C 2.335 2.896,2.192 3.126,2.070 3.491 C 2.000 3.698,2.000 3.700,2.000 10.000 C 2.000 16.300,2.000 16.302,2.070 16.509 C 2.192 16.876,2.335 17.104,2.615 17.385 C 2.896 17.665,3.124 17.808,3.491 17.930 C 3.698 18.000,3.700 18.000,10.000 18.000 C 16.300 18.000,16.302 18.000,16.509 17.930 C 16.876 17.808,17.104 17.665,17.385 17.385 C 17.665 17.104,17.808 16.876,17.930 16.509 C 18.000 16.302,18.000 16.300,18.000 10.007 L 18.000 3.711 17.930 3.497 C 17.810 3.128,17.668 2.899,17.385 2.615 C 17.197 2.428,17.042 2.308,16.870 2.219 C 16.642 2.101,16.595 2.089,16.237 2.065 C 15.699 2.029,8.715 2.005,5.847 2.030 M11.050 6.068 C 11.713 6.143,12.151 6.331,12.562 6.719 C 12.851 6.990,13.034 7.274,13.143 7.617 C 13.208 7.823,13.216 7.920,13.215 8.450 C 13.214 8.796,13.196 9.127,13.172 9.233 C 13.044 9.807,12.566 10.405,12.029 10.663 C 11.871 10.739,11.593 10.841,11.412 10.889 C 11.114 10.968,11.012 10.978,10.317 10.991 C 9.895 10.999,9.464 10.991,9.359 10.974 L 9.168 10.944 9.152 11.047 C 9.143 11.104,9.127 11.645,9.116 12.250 L 9.096 13.350 8.981 13.525 C 8.840 13.740,8.646 13.885,8.405 13.955 C 8.177 14.021,7.982 13.997,7.760 13.877 C 7.570 13.773,7.464 13.658,7.348 13.430 L 7.267 13.269 7.267 9.916 C 7.267 7.462,7.277 6.543,7.305 6.489 C 7.381 6.344,7.543 6.163,7.645 6.109 C 7.711 6.075,7.881 6.045,8.100 6.030 C 8.564 5.997,10.670 6.024,11.050 6.068 M9.133 8.543 C 9.133 9.463,9.142 9.670,9.180 9.709 C 9.299 9.828,10.589 9.801,10.876 9.673 C 11.064 9.590,11.241 9.386,11.335 9.146 C 11.399 8.983,11.413 8.885,11.415 8.563 C 11.417 8.185,11.414 8.172,11.300 7.948 C 11.091 7.537,10.944 7.488,9.798 7.447 L 9.133 7.424 9.133 8.543 " fill="#1A1C1F" stroke="none" fill-rule="evenodd"></path></svg>