<svg width="14" height="14" viewBox="0 0 14 14" fill="none" xmlns="http://www.w3.org/2000/svg"><path d="M2.396 1.307 C 2.173 1.335,1.887 1.491,1.687 1.693 C 1.550 1.832,1.496 1.910,1.395 2.116 L 1.272 2.368 1.272 7.000 L 1.272 11.632 1.394 11.885 C 1.496 12.097,1.544 12.166,1.689 12.311 C 1.834 12.456,1.903 12.504,2.115 12.606 L 2.368 12.728 7.000 12.728 L 11.632 12.728 11.888 12.603 C 12.099 12.499,12.175 12.447,12.311 12.311 C 12.447 12.175,12.499 12.099,12.603 11.888 L 12.728 11.632 12.728 7.000 L 12.728 2.368 12.604 2.114 C 12.501 1.905,12.450 1.832,12.312 1.694 C 12.140 1.523,11.957 1.410,11.722 1.329 C 11.592 1.284,11.498 1.283,7.061 1.286 C 4.570 1.288,2.470 1.297,2.396 1.307 M11.293 7.012 L 11.293 11.317 7.000 11.317 L 2.707 11.317 2.707 7.012 L 2.707 2.707 7.000 2.707 L 11.293 2.707 11.293 7.012 M5.348 4.469 C 5.280 4.529,5.199 4.630,5.167 4.692 L 5.110 4.805 5.111 6.667 C 5.111 8.578,5.128 9.149,5.186 9.289 C 5.205 9.333,5.258 9.403,5.306 9.444 C 5.585 9.689,5.893 9.690,6.151 9.445 C 6.225 9.375,6.287 9.293,6.303 9.243 C 6.319 9.192,6.333 8.873,6.340 8.435 L 6.352 7.712 7.078 7.712 L 7.805 7.711 8.003 7.645 C 8.331 7.535,8.508 7.431,8.718 7.223 C 8.995 6.948,9.110 6.696,9.147 6.283 C 9.175 5.970,9.143 5.604,9.069 5.392 C 8.952 5.056,8.687 4.753,8.369 4.593 C 8.009 4.411,7.877 4.396,6.463 4.374 L 5.472 4.359 5.348 4.469 M7.428 5.290 C 7.590 5.306,7.746 5.402,7.845 5.544 C 7.926 5.659,7.966 5.907,7.951 6.195 C 7.931 6.586,7.751 6.801,7.378 6.880 C 7.247 6.908,6.582 6.916,6.434 6.892 L 6.347 6.877 6.347 6.060 L 6.347 5.243 6.819 5.259 C 7.079 5.268,7.353 5.282,7.428 5.290 " fill="#1A1C1F" stroke="none" fill-rule="evenodd"></path></svg>