<svg width="12" height="12" viewBox="0 0 12 12" fill="none" xmlns="http://www.w3.org/2000/svg"><path d="M2.057 1.121 C 1.861 1.144,1.630 1.269,1.447 1.452 C 1.329 1.570,1.284 1.633,1.197 1.812 L 1.090 2.030 1.085 5.976 L 1.080 9.922 1.143 10.074 C 1.243 10.315,1.298 10.400,1.449 10.551 C 1.600 10.702,1.685 10.757,1.926 10.857 L 2.078 10.920 6.024 10.915 L 9.970 10.910 10.187 10.805 C 10.369 10.718,10.428 10.677,10.552 10.552 C 10.677 10.428,10.718 10.369,10.805 10.187 L 10.910 9.970 10.910 6.000 L 10.910 2.030 10.803 1.812 C 10.715 1.633,10.672 1.570,10.553 1.452 C 10.405 1.305,10.249 1.209,10.047 1.139 C 9.936 1.101,9.855 1.100,6.062 1.103 C 3.932 1.104,2.130 1.112,2.057 1.121 M9.680 6.010 L 9.680 9.700 6.000 9.700 L 2.320 9.700 2.320 6.010 L 2.320 2.320 6.000 2.320 L 9.680 2.320 9.680 6.010 M4.584 3.832 C 4.526 3.883,4.456 3.968,4.429 4.022 L 4.380 4.119 4.381 5.704 C 4.381 7.348,4.395 7.843,4.445 7.962 C 4.461 8.000,4.507 8.060,4.548 8.095 C 4.787 8.305,5.051 8.305,5.272 8.096 C 5.336 8.036,5.389 7.965,5.402 7.922 C 5.416 7.878,5.429 7.604,5.435 7.224 L 5.445 6.597 5.517 6.608 C 5.695 6.634,6.134 6.642,6.394 6.622 C 6.740 6.597,6.874 6.565,7.118 6.447 C 7.271 6.373,7.335 6.327,7.470 6.193 C 7.719 5.947,7.821 5.707,7.851 5.296 C 7.889 4.773,7.712 4.320,7.368 4.060 C 7.235 3.960,7.013 3.853,6.850 3.810 C 6.726 3.777,5.809 3.742,5.040 3.741 L 4.689 3.740 4.584 3.832 M6.357 4.533 C 6.506 4.548,6.636 4.625,6.727 4.754 C 6.795 4.851,6.828 5.064,6.814 5.322 C 6.804 5.522,6.743 5.660,6.618 5.767 C 6.482 5.883,6.389 5.906,6.003 5.915 C 5.812 5.920,5.607 5.918,5.548 5.911 L 5.440 5.897 5.440 5.195 L 5.440 4.494 5.835 4.507 C 6.052 4.515,6.287 4.527,6.357 4.533 " fill="#1A1C1F" stroke="none" fill-rule="evenodd"></path></svg>