<svg width="16" height="16" viewBox="0 0 16 16" fill="none" xmlns="http://www.w3.org/2000/svg"><path d="M3.408 1.546 C 3.137 1.562,3.111 1.569,2.862 1.692 C 2.638 1.802,2.565 1.856,2.359 2.064 C 2.165 2.260,2.097 2.351,2.007 2.533 C 1.946 2.658,1.882 2.826,1.865 2.907 C 1.842 3.012,1.830 3.767,1.821 5.618 L 1.810 8.182 1.896 8.388 C 2.136 8.965,2.537 9.341,3.142 9.557 L 3.337 9.627 5.002 9.627 L 6.667 9.627 6.667 11.253 L 6.667 12.880 5.860 12.883 C 4.575 12.887,3.978 12.913,3.870 12.970 C 3.431 13.204,3.317 13.826,3.642 14.211 C 3.684 14.262,3.790 14.349,3.877 14.405 L 4.035 14.507 7.485 14.507 C 10.934 14.507,10.936 14.507,11.045 14.451 C 11.193 14.376,11.406 14.172,11.475 14.041 C 11.555 13.887,11.556 13.530,11.477 13.358 C 11.408 13.210,11.272 13.073,11.097 12.978 L 10.967 12.907 9.644 12.889 L 8.320 12.871 8.320 11.249 L 8.320 9.627 9.706 9.627 L 11.092 9.627 11.338 9.521 C 11.657 9.383,11.839 9.256,12.025 9.040 C 12.338 8.676,13.339 7.332,13.802 6.654 C 14.067 6.266,14.154 6.044,14.179 5.692 C 14.209 5.263,14.094 4.893,13.792 4.443 C 13.367 3.811,12.572 2.725,12.158 2.211 C 11.938 1.939,11.769 1.809,11.430 1.651 C 11.248 1.566,11.240 1.565,10.696 1.544 C 10.048 1.520,3.823 1.521,3.408 1.546 M11.610 4.294 C 12.092 4.939,12.492 5.492,12.499 5.521 C 12.521 5.603,12.429 5.735,11.313 7.233 L 10.742 8.000 7.091 8.000 L 3.440 8.000 3.440 5.560 L 3.440 3.120 7.088 3.120 L 10.735 3.120 11.610 4.294 " fill="#1A1C1F" stroke="none" fill-rule="evenodd"></path></svg>