<svg width="20" height="20" viewBox="0 0 20 20" fill="none" xmlns="http://www.w3.org/2000/svg"><path d="M5.633 2.034 C 3.930 2.059,3.974 2.053,3.525 2.317 C 3.052 2.595,2.717 2.997,2.501 3.550 L 2.383 3.850 2.385 6.917 C 2.385 9.241,2.396 10.039,2.428 10.212 C 2.494 10.574,2.727 11.002,3.013 11.286 C 3.326 11.598,3.554 11.744,3.946 11.884 L 4.269 12.000 6.318 12.000 L 8.367 12.000 8.367 13.995 L 8.367 15.989 6.758 16.011 C 5.819 16.024,5.099 16.047,5.026 16.068 C 4.958 16.087,4.821 16.177,4.720 16.269 C 4.483 16.486,4.417 16.654,4.417 17.033 C 4.417 17.369,4.458 17.462,4.715 17.719 C 4.860 17.865,4.921 17.900,5.086 17.938 C 5.377 18.005,13.433 18.005,13.692 17.938 C 14.165 17.817,14.468 17.233,14.321 16.726 C 14.255 16.500,14.045 16.253,13.808 16.124 L 13.643 16.034 12.005 16.012 L 10.367 15.989 10.367 13.995 L 10.367 12.000 11.708 11.998 C 13.347 11.996,13.877 11.968,14.141 11.868 C 14.437 11.756,14.714 11.551,14.972 11.255 C 15.227 10.962,16.196 9.676,16.876 8.730 C 17.519 7.835,17.583 7.678,17.583 7.000 C 17.583 6.290,17.526 6.168,16.526 4.768 C 15.677 3.579,15.136 2.868,14.900 2.629 C 14.726 2.453,14.612 2.375,14.332 2.238 L 13.982 2.067 13.333 2.050 C 12.216 2.022,7.221 2.012,5.633 2.034 M13.686 4.408 C 13.852 4.633,14.288 5.222,14.655 5.717 C 15.022 6.212,15.379 6.703,15.449 6.808 L 15.576 7.000 15.449 7.192 C 15.380 7.297,14.977 7.848,14.555 8.417 C 14.134 8.985,13.698 9.574,13.587 9.725 L 13.386 10.000 8.876 10.000 L 4.367 10.000 4.367 7.000 L 4.367 4.000 8.875 4.000 L 13.384 4.000 13.686 4.408 " fill="#1A1C1F" stroke="none" fill-rule="evenodd"></path></svg>