<svg width="32" height="32" viewBox="0 0 32 32" fill="none" xmlns="http://www.w3.org/2000/svg"><path d="M8.640 2.078 L 5.147 2.107 4.720 2.343 C 4.081 2.697,3.603 3.199,3.275 3.862 L 3.013 4.390 2.999 7.207 C 2.991 8.757,3.004 10.444,3.030 10.957 L 3.075 11.889 3.278 12.301 C 3.604 12.959,4.338 13.611,5.026 13.851 C 5.372 13.972,6.968 14.021,10.707 14.024 L 14.027 14.027 14.027 21.010 L 14.027 27.993 11.773 28.010 C 9.274 28.029,9.357 28.017,9.027 28.393 C 8.605 28.874,8.693 29.475,9.239 29.829 L 9.442 29.961 12.521 30.000 C 14.214 30.022,16.644 30.023,17.920 30.003 C 20.555 29.960,20.471 29.974,20.800 29.517 C 21.048 29.171,21.056 28.877,20.827 28.507 C 20.539 28.044,20.578 28.052,18.164 28.015 L 16.053 27.983 16.053 21.005 L 16.053 14.027 19.861 14.027 L 23.669 14.027 24.141 13.790 C 24.525 13.598,24.749 13.429,25.333 12.892 C 26.140 12.150,28.290 9.903,28.570 9.510 C 28.767 9.233,28.934 8.731,28.985 8.267 C 29.022 7.923,28.914 7.251,28.752 6.823 C 28.611 6.450,28.424 6.230,26.968 4.724 C 25.556 3.262,24.797 2.576,24.293 2.306 L 23.920 2.107 20.693 2.073 C 17.083 2.035,13.803 2.037,8.640 2.078 M23.569 4.215 C 23.719 4.333,24.542 5.121,25.397 5.966 L 26.953 7.501 26.956 7.901 C 26.960 8.259,26.943 8.326,26.802 8.537 C 26.623 8.804,23.961 11.475,23.551 11.800 L 23.283 12.011 14.482 11.989 C 7.211 11.971,5.654 11.954,5.532 11.894 C 5.451 11.855,5.313 11.714,5.226 11.582 L 5.067 11.342 5.067 8.003 C 5.067 4.243,5.049 4.411,5.472 4.189 C 5.670 4.085,5.794 4.079,8.000 4.051 C 9.276 4.036,13.240 4.018,16.809 4.011 L 23.297 4.000 23.569 4.215 " fill="#1A1C1F" stroke="none" fill-rule="evenodd"></path></svg>