<svg width="24" height="24" viewBox="0 0 24 24" fill="none" xmlns="http://www.w3.org/2000/svg"><path d="M5.860 2.561 C 4.806 2.577,4.090 2.604,4.012 2.630 C 3.766 2.713,3.395 2.934,3.129 3.157 C 2.808 3.425,2.575 3.758,2.394 4.208 L 2.260 4.540 2.249 7.446 L 2.238 10.352 2.363 10.695 C 2.684 11.584,3.386 12.233,4.233 12.426 C 4.453 12.476,5.003 12.491,7.370 12.509 L 10.240 12.530 10.240 16.025 L 10.240 19.520 8.469 19.520 L 6.699 19.520 6.489 19.661 C 6.098 19.925,5.948 20.297,6.060 20.732 C 6.132 21.014,6.261 21.200,6.487 21.350 C 6.635 21.447,6.697 21.459,7.234 21.490 C 8.057 21.538,15.241 21.499,15.517 21.445 C 15.681 21.413,15.771 21.366,15.888 21.253 C 16.125 21.020,16.208 20.813,16.207 20.452 C 16.206 20.182,16.192 20.128,16.093 19.987 C 16.031 19.899,15.911 19.772,15.827 19.704 C 15.675 19.582,15.667 19.580,15.067 19.554 C 14.733 19.539,13.972 19.525,13.376 19.523 L 12.293 19.520 12.267 17.990 C 12.252 17.148,12.240 15.573,12.240 14.490 L 12.240 12.520 14.578 12.520 L 16.916 12.520 17.256 12.397 C 17.446 12.328,17.717 12.189,17.868 12.082 C 18.241 11.818,19.145 10.976,20.361 9.761 C 21.455 8.666,21.530 8.567,21.663 8.043 C 21.743 7.726,21.752 7.214,21.681 6.920 C 21.553 6.384,21.523 6.346,20.228 5.057 C 18.356 3.193,17.830 2.743,17.408 2.640 C 16.994 2.539,10.382 2.494,5.860 2.561 M17.070 4.632 C 17.403 4.821,19.307 6.646,19.572 7.029 C 19.728 7.254,19.757 7.539,19.646 7.768 C 19.498 8.074,17.881 9.751,17.264 10.237 C 16.918 10.511,17.248 10.495,11.600 10.510 C 8.795 10.518,6.112 10.508,5.639 10.489 C 4.678 10.449,4.658 10.444,4.440 10.148 L 4.320 9.984 4.320 7.501 L 4.320 5.019 4.421 4.870 C 4.545 4.687,4.644 4.631,4.900 4.596 C 5.010 4.581,7.773 4.572,11.040 4.575 C 15.813 4.579,16.998 4.590,17.070 4.632 " fill="#1A1C1F" stroke="none" fill-rule="evenodd"></path></svg>