<svg width="12" height="12" viewBox="0 0 12 12" fill="none" xmlns="http://www.w3.org/2000/svg"><path d="M2.410 1.120 C 2.194 1.145,1.815 1.370,1.651 1.570 C 1.528 1.720,1.442 1.879,1.376 2.080 L 1.314 2.270 1.305 3.830 C 1.295 5.466,1.312 6.057,1.371 6.260 C 1.428 6.454,1.535 6.619,1.728 6.811 C 1.921 7.004,2.126 7.130,2.326 7.178 C 2.503 7.221,3.004 7.239,4.005 7.240 L 5.000 7.240 5.000 8.467 L 5.000 9.693 4.005 9.707 C 3.421 9.714,2.979 9.728,2.936 9.741 C 2.837 9.768,2.654 9.938,2.598 10.054 C 2.564 10.125,2.553 10.184,2.552 10.299 C 2.551 10.480,2.592 10.579,2.735 10.738 C 2.898 10.920,2.680 10.906,5.645 10.915 L 8.239 10.923 8.342 10.867 C 8.487 10.788,8.613 10.641,8.653 10.504 C 8.694 10.363,8.681 10.160,8.625 10.050 C 8.567 9.937,8.383 9.768,8.288 9.742 C 8.239 9.728,7.838 9.715,7.225 9.707 L 6.240 9.693 6.240 8.470 L 6.240 7.246 7.225 7.234 C 7.767 7.227,8.273 7.212,8.350 7.200 C 8.611 7.161,8.834 7.025,9.063 6.766 C 9.178 6.636,10.125 5.376,10.376 5.019 C 10.616 4.678,10.697 4.421,10.675 4.067 C 10.660 3.817,10.587 3.605,10.438 3.378 C 10.192 3.004,9.485 2.032,9.156 1.616 C 9.006 1.427,8.878 1.329,8.622 1.206 C 8.479 1.138,8.453 1.133,8.200 1.118 C 7.866 1.099,2.576 1.100,2.410 1.120 M8.590 2.993 C 9.214 3.834,9.419 4.121,9.419 4.161 C 9.420 4.195,9.340 4.306,8.595 5.305 L 8.076 6.000 5.308 6.000 L 2.540 6.000 2.540 4.160 L 2.540 2.320 5.315 2.320 L 8.090 2.320 8.590 2.993 " fill="#1A1C1F" stroke="none" fill-rule="evenodd"></path></svg>