<svg width="14" height="14" viewBox="0 0 14 14" fill="none" xmlns="http://www.w3.org/2000/svg"><path d="M2.812 1.306 C 2.647 1.328,2.500 1.390,2.277 1.534 C 1.973 1.729,1.714 2.065,1.608 2.403 C 1.530 2.648,1.510 3.386,1.525 5.343 C 1.540 7.219,1.540 7.208,1.682 7.505 C 1.861 7.880,2.246 8.222,2.637 8.354 C 2.833 8.420,3.419 8.444,4.824 8.446 L 5.833 8.447 5.833 9.878 L 5.833 11.309 4.641 11.325 L 3.449 11.341 3.346 11.401 C 3.096 11.547,2.942 11.822,2.971 12.069 C 3.004 12.343,3.227 12.638,3.444 12.694 C 3.533 12.717,4.236 12.726,6.586 12.733 L 9.614 12.743 9.740 12.671 C 9.976 12.536,10.095 12.356,10.119 12.097 C 10.146 11.816,10.021 11.569,9.777 11.419 L 9.648 11.340 8.464 11.325 L 7.280 11.309 7.280 9.878 L 7.280 8.447 7.998 8.445 C 8.392 8.444,8.957 8.435,9.252 8.424 C 9.704 8.408,9.810 8.398,9.924 8.356 C 10.304 8.221,10.481 8.043,11.228 7.046 C 12.023 5.985,12.290 5.605,12.346 5.460 C 12.462 5.152,12.491 4.798,12.422 4.497 C 12.348 4.170,12.304 4.099,11.475 2.949 C 10.703 1.877,10.662 1.822,10.543 1.713 C 10.420 1.600,10.174 1.450,9.963 1.360 L 9.812 1.295 6.382 1.292 C 4.495 1.290,2.889 1.296,2.812 1.306 M10.022 3.492 C 10.759 4.485,10.989 4.808,10.989 4.857 C 10.990 4.890,10.411 5.684,9.627 6.726 L 9.421 7.000 6.192 7.000 L 2.963 7.000 2.963 4.853 L 2.963 2.707 6.201 2.707 L 9.438 2.707 10.022 3.492 " fill="#1A1C1F" stroke="none" fill-rule="evenodd"></path></svg>