<svg width="28" height="28" viewBox="0 0 28 28" fill="none" xmlns="http://www.w3.org/2000/svg"><path d="M7.373 1.819 L 4.503 1.843 4.130 2.050 C 3.571 2.360,3.153 2.799,2.866 3.379 L 2.637 3.841 2.624 6.306 C 2.617 7.662,2.629 9.139,2.651 9.587 C 2.690 10.398,2.692 10.405,2.861 10.743 C 3.077 11.177,3.335 11.474,3.745 11.762 C 4.281 12.138,4.453 12.183,5.530 12.229 C 6.043 12.251,7.771 12.270,9.368 12.271 L 12.273 12.273 12.273 18.383 L 12.273 24.494 10.302 24.508 C 8.112 24.525,8.188 24.514,7.896 24.847 C 7.593 25.191,7.587 25.587,7.878 25.910 C 8.190 26.256,7.993 26.239,11.737 26.261 C 13.585 26.272,15.711 26.261,16.462 26.238 L 17.827 26.196 17.999 26.057 C 18.354 25.770,18.449 25.336,18.239 24.960 C 18.051 24.623,17.968 24.589,17.237 24.544 C 16.881 24.522,16.018 24.504,15.318 24.502 L 14.047 24.500 14.047 18.387 L 14.047 12.273 17.379 12.273 L 20.711 12.273 21.124 12.066 C 21.620 11.817,22.325 11.191,23.518 9.940 C 25.098 8.283,25.150 8.215,25.293 7.612 C 25.371 7.283,25.372 6.716,25.295 6.393 C 25.157 5.814,25.001 5.601,23.807 4.360 C 22.415 2.913,21.668 2.218,21.276 2.005 L 20.977 1.843 18.363 1.813 C 15.426 1.780,11.629 1.782,7.373 1.819 M20.563 3.633 C 20.664 3.706,21.385 4.395,22.165 5.164 L 23.584 6.562 23.587 6.913 C 23.590 7.227,23.576 7.286,23.452 7.470 C 23.295 7.704,20.966 10.041,20.607 10.324 L 20.373 10.509 12.672 10.490 C 6.318 10.475,4.948 10.460,4.842 10.408 C 4.771 10.374,4.650 10.247,4.573 10.127 L 4.433 9.908 4.433 6.995 C 4.433 3.714,4.418 3.860,4.788 3.666 C 4.961 3.575,5.070 3.569,6.977 3.545 C 8.080 3.531,11.547 3.516,14.681 3.510 L 20.379 3.500 20.563 3.633 " fill="#1A1C1F" stroke="none" fill-rule="evenodd"></path></svg>