<svg width="32" height="32" viewBox="0 0 32 32" fill="none" xmlns="http://www.w3.org/2000/svg"><path d="M14.427 2.133 C 12.830 2.256,11.287 2.732,9.525 3.643 C 5.384 5.784,2.621 9.814,2.077 14.506 C 1.980 15.348,2.039 17.449,2.182 18.248 C 2.614 20.653,3.525 22.734,4.950 24.569 C 5.447 25.209,6.458 26.254,7.093 26.785 C 9.195 28.542,12.102 29.728,14.792 29.927 C 18.530 30.204,21.946 29.158,24.800 26.863 C 25.357 26.415,26.572 25.183,26.993 24.640 C 28.508 22.687,29.424 20.556,29.849 18.000 C 29.984 17.187,29.982 14.872,29.846 13.973 C 29.577 12.208,28.936 10.391,28.059 8.915 C 26.008 5.460,22.502 3.003,18.568 2.261 C 17.926 2.141,17.672 2.122,16.427 2.106 C 15.649 2.096,14.749 2.109,14.427 2.133 M17.200 4.112 C 19.742 4.296,22.326 5.489,24.334 7.407 C 25.723 8.733,26.825 10.538,27.436 12.485 C 27.883 13.914,27.997 14.947,27.906 16.751 C 27.859 17.670,27.815 18.078,27.714 18.512 C 26.501 23.727,22.338 27.418,17.074 27.945 C 13.475 28.305,9.696 26.833,7.180 24.092 C 5.842 22.633,4.784 20.660,4.347 18.804 C 4.135 17.906,4.082 17.335,4.084 15.973 C 4.086 14.191,4.232 13.282,4.725 11.961 C 4.999 11.229,5.628 9.995,6.064 9.333 C 7.949 6.477,11.052 4.570,14.560 4.111 C 15.363 4.005,15.735 4.006,17.200 4.112 M10.850 8.603 C 10.481 8.780,10.217 9.023,10.072 9.322 L 9.950 9.573 9.948 15.760 C 9.946 22.738,9.905 22.067,10.372 22.535 C 10.723 22.885,10.887 22.951,11.420 22.951 C 11.822 22.951,11.911 22.933,12.122 22.810 C 12.372 22.663,12.605 22.404,12.779 22.080 C 12.872 21.906,12.880 21.713,12.897 19.293 L 12.916 16.693 16.005 16.693 L 19.093 16.693 19.093 19.263 C 19.093 21.792,19.095 21.837,19.209 22.072 C 19.446 22.561,19.951 22.915,20.491 22.969 C 21.049 23.025,21.685 22.644,21.971 22.085 L 22.083 21.866 22.068 15.693 L 22.053 9.520 21.907 9.272 C 21.616 8.776,21.186 8.533,20.600 8.533 C 20.256 8.533,20.131 8.558,19.904 8.671 C 19.587 8.829,19.281 9.159,19.192 9.437 C 19.153 9.561,19.124 10.457,19.107 12.040 L 19.083 14.453 15.995 14.453 L 12.907 14.453 12.906 12.040 L 12.906 9.627 12.750 9.356 C 12.339 8.639,11.484 8.300,10.850 8.603 " fill="#1A1C1F" stroke="none" fill-rule="evenodd"></path></svg>