<svg width="20" height="20" viewBox="0 0 20 20" fill="none" xmlns="http://www.w3.org/2000/svg"><path d="M8.836 2.102 C 5.304 2.636,2.578 5.387,2.083 8.917 C 1.739 11.364,2.587 13.877,4.354 15.647 C 5.452 16.747,6.914 17.528,8.472 17.847 C 9.298 18.017,10.650 18.026,11.436 17.867 C 12.760 17.599,14.004 17.029,15.000 16.232 C 15.328 15.970,16.005 15.288,16.274 14.950 C 16.569 14.577,16.877 14.084,17.127 13.583 C 17.420 12.996,17.562 12.631,17.712 12.083 C 17.940 11.252,17.950 11.162,17.949 9.983 C 17.949 8.947,17.946 8.905,17.857 8.491 C 17.698 7.749,17.357 6.814,17.009 6.167 C 16.830 5.833,16.529 5.377,16.273 5.050 C 15.988 4.686,15.186 3.908,14.800 3.620 C 13.624 2.745,12.219 2.195,10.833 2.069 C 10.234 2.014,9.316 2.029,8.836 2.102 M11.183 4.132 C 11.915 4.289,12.722 4.626,13.333 5.029 C 14.613 5.874,15.523 7.238,15.873 8.837 C 15.940 9.144,15.948 9.275,15.948 10.000 C 15.948 10.725,15.940 10.856,15.872 11.167 C 15.401 13.337,13.932 14.992,11.864 15.681 C 9.857 16.350,7.702 15.918,6.065 14.517 C 5.130 13.716,4.370 12.403,4.133 11.176 C 3.825 9.577,4.149 7.989,5.062 6.630 C 5.629 5.787,6.344 5.156,7.267 4.686 C 7.850 4.389,8.351 4.220,9.017 4.096 C 9.493 4.008,10.696 4.028,11.183 4.132 M7.532 6.407 C 7.386 6.444,7.110 6.648,7.015 6.789 C 6.948 6.889,6.943 6.949,6.922 8.022 C 6.910 8.642,6.900 10.038,6.900 11.123 L 6.900 13.096 7.083 13.294 C 7.481 13.723,7.947 13.738,8.314 13.332 C 8.535 13.087,8.533 13.100,8.533 11.751 L 8.533 10.533 10.000 10.533 L 11.467 10.533 11.467 11.751 C 11.467 13.100,11.465 13.087,11.686 13.332 C 12.019 13.701,12.463 13.723,12.826 13.388 C 13.123 13.114,13.100 13.399,13.100 9.992 L 13.100 6.980 12.992 6.800 C 12.875 6.605,12.729 6.487,12.537 6.434 C 12.129 6.320,11.729 6.497,11.554 6.867 C 11.487 7.009,11.483 7.076,11.472 8.158 L 11.461 9.300 10.000 9.300 L 8.539 9.300 8.527 8.158 C 8.513 6.899,8.508 6.865,8.294 6.644 C 8.113 6.457,7.764 6.348,7.532 6.407 " fill="#1A1C1F" stroke="none" fill-rule="evenodd"></path></svg>