<svg width="16" height="16" viewBox="0 0 16 16" fill="none" xmlns="http://www.w3.org/2000/svg"><path d="M7.214 1.657 C 5.837 1.834,4.556 2.452,3.550 3.426 C 2.696 4.253,2.128 5.228,1.804 6.427 C 1.649 6.999,1.640 7.082,1.640 8.013 C 1.640 8.851,1.641 8.873,1.716 9.213 C 2.288 11.837,4.163 13.712,6.787 14.284 C 7.128 14.359,7.147 14.360,8.000 14.360 C 8.851 14.360,8.873 14.359,9.208 14.285 C 9.831 14.148,10.521 13.900,11.013 13.636 C 12.535 12.818,13.659 11.423,14.147 9.747 C 14.325 9.136,14.352 8.945,14.366 8.181 C 14.384 7.248,14.345 6.909,14.144 6.245 C 13.891 5.413,13.512 4.669,13.019 4.040 C 12.798 3.759,12.154 3.130,11.863 2.913 C 10.884 2.181,9.812 1.764,8.627 1.654 C 8.279 1.622,7.477 1.624,7.214 1.657 M6.281 4.880 C 6.414 4.945,6.568 5.094,6.655 5.240 C 6.716 5.345,6.718 5.361,6.736 6.353 L 6.755 7.360 8.004 7.360 L 9.253 7.360 9.255 6.860 C 9.257 6.144,9.295 5.333,9.332 5.240 C 9.373 5.135,9.535 4.968,9.658 4.905 C 9.806 4.828,10.094 4.809,10.262 4.865 C 10.420 4.918,10.601 5.080,10.681 5.240 C 10.732 5.344,10.734 5.419,10.742 7.978 L 10.750 10.609 10.691 10.725 C 10.597 10.910,10.494 11.024,10.342 11.108 C 10.155 11.211,9.889 11.218,9.712 11.125 C 9.554 11.041,9.401 10.898,9.345 10.779 C 9.292 10.668,9.258 10.009,9.255 9.020 L 9.253 8.480 8.000 8.480 L 6.747 8.480 6.744 9.033 C 6.743 9.338,6.734 9.833,6.724 10.133 C 6.707 10.668,6.705 10.683,6.632 10.806 C 6.489 11.051,6.172 11.222,5.918 11.191 C 5.670 11.162,5.446 10.995,5.320 10.747 L 5.253 10.615 5.253 8.000 C 5.253 5.479,5.255 5.381,5.304 5.286 C 5.472 4.960,5.669 4.827,5.983 4.827 C 6.116 4.827,6.202 4.842,6.281 4.880 " fill="#1A1C1F" stroke="none" fill-rule="evenodd"></path></svg>