<svg width="12" height="12" viewBox="0 0 12 12" fill="none" xmlns="http://www.w3.org/2000/svg"><path d="M5.294 1.261 C 4.664 1.361,4.090 1.565,3.570 1.873 C 2.376 2.581,1.596 3.682,1.286 5.094 C 1.231 5.345,1.230 5.362,1.230 6.000 C 1.230 6.641,1.231 6.654,1.287 6.910 C 1.422 7.526,1.692 8.184,1.992 8.630 C 2.612 9.552,3.465 10.204,4.500 10.547 C 4.921 10.687,5.248 10.753,5.650 10.780 C 6.835 10.860,7.957 10.526,8.900 9.814 C 9.122 9.645,9.511 9.274,9.692 9.058 C 10.007 8.681,10.326 8.124,10.506 7.640 C 10.593 7.405,10.730 6.864,10.761 6.631 C 10.776 6.518,10.781 6.261,10.775 5.894 C 10.766 5.383,10.760 5.308,10.714 5.100 C 10.458 3.950,9.916 3.032,9.080 2.332 C 8.348 1.719,7.434 1.331,6.512 1.241 C 6.167 1.208,5.570 1.218,5.294 1.261 M4.713 3.661 C 4.823 3.715,4.993 3.900,5.019 3.996 C 5.031 4.037,5.046 4.396,5.053 4.795 L 5.066 5.520 6.000 5.520 L 6.934 5.520 6.947 4.810 C 6.955 4.419,6.970 4.053,6.983 3.997 C 6.998 3.923,7.027 3.869,7.086 3.805 C 7.190 3.693,7.282 3.646,7.435 3.629 C 7.683 3.601,7.865 3.690,7.988 3.900 L 8.060 4.022 8.060 5.992 L 8.060 7.961 8.011 8.058 C 7.941 8.196,7.878 8.264,7.757 8.331 C 7.610 8.412,7.418 8.414,7.270 8.336 C 7.154 8.275,7.032 8.156,6.999 8.070 C 6.970 7.997,6.943 7.384,6.941 6.795 L 6.940 6.360 6.000 6.360 L 5.060 6.360 5.059 6.785 C 5.058 7.019,5.051 7.390,5.042 7.610 C 5.024 8.059,5.009 8.116,4.867 8.240 C 4.699 8.387,4.439 8.433,4.270 8.346 C 4.165 8.291,4.051 8.178,3.995 8.074 L 3.950 7.990 3.952 5.997 L 3.955 4.004 3.999 3.913 C 4.050 3.808,4.152 3.711,4.269 3.658 C 4.384 3.605,4.601 3.607,4.713 3.661 " fill="#1A1C1F" stroke="none" fill-rule="evenodd"></path></svg>