<svg width="14" height="14" viewBox="0 0 14 14" fill="none" xmlns="http://www.w3.org/2000/svg"><path d="M6.185 1.471 C 4.990 1.652,3.882 2.210,3.034 3.058 C 2.609 3.483,2.293 3.923,2.006 4.492 C 1.728 5.041,1.551 5.597,1.455 6.230 C 1.399 6.595,1.398 7.372,1.454 7.748 C 1.697 9.394,2.585 10.793,3.955 11.689 C 4.497 12.044,5.236 12.346,5.938 12.499 C 6.237 12.564,6.254 12.565,7.000 12.565 C 7.704 12.565,7.776 12.561,8.003 12.511 C 9.184 12.253,10.101 11.777,10.882 11.015 C 11.227 10.678,11.408 10.462,11.653 10.096 C 12.071 9.470,12.362 8.758,12.506 8.011 C 12.598 7.535,12.610 6.630,12.530 6.125 C 12.394 5.256,11.945 4.234,11.394 3.540 C 11.194 3.288,10.774 2.865,10.523 2.663 C 9.676 1.979,8.640 1.550,7.597 1.448 C 7.197 1.409,6.522 1.420,6.185 1.471 M5.471 4.257 C 5.577 4.301,5.753 4.466,5.824 4.587 C 5.881 4.685,5.881 4.685,5.896 5.562 L 5.911 6.440 7.000 6.440 L 8.089 6.440 8.105 5.610 C 8.114 5.153,8.133 4.726,8.147 4.661 C 8.165 4.577,8.199 4.514,8.267 4.440 C 8.389 4.308,8.495 4.254,8.674 4.234 C 8.964 4.201,9.176 4.305,9.320 4.550 L 9.403 4.693 9.403 6.990 L 9.403 9.288 9.346 9.401 C 9.265 9.562,9.191 9.641,9.049 9.719 C 8.886 9.810,8.653 9.816,8.498 9.734 C 8.358 9.660,8.213 9.523,8.171 9.427 C 8.132 9.333,8.100 8.687,8.098 7.904 L 8.097 7.420 7.000 7.420 L 5.903 7.420 5.902 7.893 C 5.899 8.680,5.868 9.334,5.829 9.427 C 5.788 9.523,5.640 9.662,5.508 9.729 C 5.371 9.799,5.233 9.812,5.083 9.768 C 4.904 9.716,4.778 9.616,4.680 9.450 L 4.597 9.307 4.597 7.009 L 4.597 4.711 4.646 4.613 C 4.783 4.344,4.964 4.223,5.232 4.223 C 5.320 4.223,5.427 4.238,5.471 4.257 " fill="#1A1C1F" stroke="none" fill-rule="evenodd"></path></svg>