<svg width="24" height="24" viewBox="0 0 24 24" fill="none" xmlns="http://www.w3.org/2000/svg"><path d="M11.240 2.042 C 9.367 2.180,7.521 2.880,5.982 4.037 C 5.471 4.421,4.645 5.223,4.228 5.740 C 3.404 6.761,2.727 8.056,2.409 9.220 C 2.084 10.407,2.023 10.843,2.022 12.000 C 2.020 13.020,2.076 13.488,2.308 14.419 C 2.736 16.132,3.570 17.626,4.818 18.916 C 6.412 20.563,8.309 21.540,10.620 21.903 C 11.235 21.999,12.853 22.001,13.420 21.905 C 15.080 21.625,16.640 20.981,17.908 20.053 C 18.570 19.569,19.650 18.477,20.116 17.820 C 21.040 16.520,21.673 14.945,21.908 13.362 C 22.003 12.722,22.001 11.321,21.905 10.660 C 21.683 9.139,21.155 7.742,20.340 6.520 C 19.901 5.863,19.651 5.554,19.114 5.009 C 18.282 4.164,17.451 3.565,16.380 3.039 C 15.091 2.405,13.984 2.128,12.388 2.040 C 12.009 2.019,11.691 2.004,11.680 2.007 C 11.669 2.009,11.471 2.025,11.240 2.042 M13.591 4.177 C 15.692 4.623,17.517 5.861,18.660 7.615 C 19.116 8.315,19.608 9.453,19.780 10.211 C 19.958 10.989,20.019 12.196,19.921 12.980 C 19.700 14.745,18.892 16.387,17.619 17.659 C 16.289 18.990,14.449 19.838,12.622 19.963 C 11.121 20.067,9.919 19.836,8.535 19.179 C 7.004 18.453,5.776 17.274,4.962 15.752 C 4.496 14.879,4.201 13.951,4.080 12.978 C 4.015 12.460,4.026 11.416,4.101 10.883 C 4.569 7.554,7.109 4.856,10.407 4.185 C 11.093 4.045,11.070 4.047,12.140 4.060 C 12.994 4.071,13.154 4.084,13.591 4.177 M8.480 6.915 C 8.169 7.017,7.890 7.273,7.795 7.545 C 7.718 7.766,7.718 16.089,7.795 16.355 C 7.871 16.617,8.170 16.897,8.463 16.983 C 9.002 17.139,9.502 16.919,9.756 16.412 C 9.838 16.248,9.840 16.194,9.840 14.442 L 9.840 12.640 12.000 12.640 L 14.160 12.640 14.160 14.441 L 14.160 16.243 14.257 16.434 C 14.438 16.792,14.832 17.040,15.220 17.040 C 15.599 17.040,16.000 16.789,16.165 16.450 L 16.258 16.260 16.259 12.000 C 16.260 8.730,16.249 7.702,16.211 7.578 C 16.149 7.375,15.917 7.101,15.725 7.002 C 15.228 6.749,14.549 6.943,14.278 7.415 L 14.161 7.620 14.160 9.330 L 14.160 11.040 12.000 11.040 L 9.840 11.040 9.840 9.610 C 9.839 7.757,9.825 7.566,9.664 7.326 C 9.498 7.079,9.184 6.917,8.834 6.897 C 8.694 6.889,8.535 6.897,8.480 6.915 " fill="#1A1C1F" stroke="none" fill-rule="evenodd"></path></svg>