<svg width="20" height="20" viewBox="0 0 20 20" fill="none" xmlns="http://www.w3.org/2000/svg"><path d="M8.836 2.102 C 5.304 2.636,2.578 5.387,2.083 8.917 C 1.739 11.364,2.587 13.877,4.354 15.647 C 5.452 16.747,6.914 17.528,8.472 17.847 C 9.298 18.017,10.650 18.026,11.436 17.867 C 12.760 17.599,14.004 17.029,15.000 16.232 C 15.328 15.970,16.005 15.288,16.274 14.950 C 16.569 14.577,16.877 14.084,17.127 13.583 C 17.420 12.996,17.562 12.631,17.712 12.083 C 17.940 11.252,17.950 11.162,17.949 9.983 C 17.949 8.947,17.946 8.905,17.857 8.491 C 17.698 7.749,17.357 6.814,17.009 6.167 C 16.830 5.833,16.529 5.377,16.273 5.050 C 15.988 4.686,15.186 3.908,14.800 3.620 C 13.624 2.745,12.219 2.195,10.833 2.069 C 10.234 2.014,9.316 2.029,8.836 2.102 M7.964 6.167 C 8.064 6.234,8.190 6.363,8.263 6.471 L 8.389 6.658 8.411 7.268 C 8.423 7.603,8.433 8.175,8.433 8.539 L 8.433 9.200 9.995 9.200 L 11.556 9.200 11.578 8.016 C 11.591 7.365,11.617 6.755,11.638 6.661 C 11.664 6.538,11.712 6.449,11.811 6.342 C 11.984 6.154,12.136 6.077,12.391 6.048 C 12.805 6.001,13.109 6.150,13.314 6.500 L 13.433 6.704 13.433 9.986 L 13.433 13.269 13.352 13.430 C 13.235 13.660,13.130 13.773,12.928 13.885 C 12.694 14.014,12.362 14.023,12.140 13.906 C 11.940 13.800,11.732 13.605,11.674 13.467 C 11.615 13.329,11.571 12.429,11.568 11.325 L 11.567 10.600 10.000 10.600 L 8.433 10.600 8.430 11.292 C 8.428 11.672,8.417 12.291,8.405 12.667 C 8.384 13.333,8.381 13.354,8.292 13.506 C 8.175 13.705,7.999 13.850,7.767 13.937 C 7.343 14.097,6.881 13.889,6.650 13.433 L 6.567 13.269 6.567 10.000 L 6.567 6.731 6.638 6.590 C 6.756 6.357,6.892 6.210,7.076 6.117 C 7.229 6.040,7.282 6.030,7.520 6.040 C 7.766 6.049,7.807 6.061,7.964 6.167 " fill="#1A1C1F" stroke="none" fill-rule="evenodd"></path></svg>