<svg width="12" height="12" viewBox="0 0 12 12" fill="none" xmlns="http://www.w3.org/2000/svg"><path d="M5.710 1.093 C 4.971 1.146,4.365 1.316,3.728 1.648 C 2.524 2.276,1.651 3.341,1.282 4.630 C 1.126 5.173,1.095 5.401,1.094 6.010 C 1.094 6.555,1.110 6.699,1.222 7.158 C 1.394 7.859,1.713 8.510,2.153 9.060 C 2.340 9.293,2.709 9.660,2.950 9.851 C 3.885 10.593,5.012 10.959,6.210 10.910 C 6.731 10.889,7.062 10.827,7.570 10.657 C 8.305 10.411,8.907 10.035,9.470 9.471 C 9.994 8.946,10.369 8.363,10.616 7.690 C 11.002 6.635,11.016 5.453,10.655 4.410 C 10.102 2.810,8.723 1.570,7.100 1.213 C 6.702 1.126,6.042 1.068,5.710 1.093 M6.547 2.361 C 7.008 2.414,7.597 2.639,8.034 2.928 C 8.517 3.247,8.925 3.691,9.217 4.216 C 9.439 4.615,9.570 4.991,9.628 5.400 C 9.780 6.471,9.558 7.376,8.940 8.210 C 8.311 9.059,7.374 9.574,6.263 9.683 C 5.707 9.737,4.991 9.599,4.420 9.327 C 3.391 8.838,2.609 7.847,2.401 6.772 C 2.281 6.149,2.316 5.409,2.491 4.866 C 2.546 4.696,2.758 4.246,2.874 4.052 C 3.116 3.648,3.554 3.200,3.975 2.925 C 4.177 2.793,4.656 2.560,4.862 2.493 C 5.044 2.434,5.376 2.365,5.592 2.342 C 5.768 2.322,6.306 2.334,6.547 2.361 M4.402 3.814 C 4.292 3.869,4.144 4.030,4.118 4.125 C 4.090 4.225,4.079 7.635,4.106 7.824 C 4.127 7.969,4.216 8.089,4.362 8.170 C 4.499 8.245,4.664 8.250,4.796 8.182 C 4.911 8.123,5.034 7.993,5.061 7.903 C 5.073 7.861,5.087 7.510,5.094 7.075 L 5.106 6.320 6.001 6.320 L 6.896 6.320 6.905 7.075 C 6.912 7.590,6.922 7.855,6.939 7.908 C 6.972 8.012,7.127 8.164,7.232 8.196 C 7.488 8.272,7.782 8.157,7.860 7.950 C 7.902 7.840,7.919 7.201,7.919 5.670 L 7.920 4.150 7.854 4.040 C 7.642 3.688,7.132 3.697,6.957 4.055 C 6.912 4.148,6.911 4.166,6.903 4.855 L 6.896 5.560 6.000 5.560 L 5.104 5.560 5.097 4.855 C 5.090 4.209,5.086 4.143,5.051 4.072 C 5.000 3.969,4.893 3.864,4.792 3.818 C 4.687 3.771,4.495 3.769,4.402 3.814 " fill="#1A1C1F" stroke="none" fill-rule="evenodd"></path></svg>