<svg width="16" height="16" viewBox="0 0 16 16" fill="none" xmlns="http://www.w3.org/2000/svg"><path d="M7.533 1.523 C 6.677 1.596,5.921 1.802,5.160 2.171 C 3.503 2.974,2.253 4.466,1.749 6.243 C 1.553 6.935,1.533 7.094,1.533 8.000 C 1.533 8.785,1.536 8.826,1.608 9.182 C 1.886 10.558,2.475 11.653,3.456 12.620 C 3.982 13.139,4.484 13.500,5.120 13.816 C 5.892 14.200,6.767 14.436,7.579 14.479 C 8.809 14.545,9.861 14.327,10.939 13.782 C 11.575 13.461,12.088 13.089,12.587 12.588 C 13.520 11.652,14.097 10.563,14.392 9.187 C 14.464 8.849,14.466 8.818,14.465 8.000 C 14.465 7.190,14.462 7.148,14.394 6.827 C 14.248 6.148,14.072 5.634,13.799 5.089 C 13.159 3.812,12.159 2.822,10.867 2.188 C 10.016 1.771,9.404 1.608,8.360 1.521 C 8.002 1.491,7.914 1.491,7.533 1.523 M8.919 3.225 C 10.196 3.482,11.321 4.219,12.013 5.253 C 12.214 5.553,12.535 6.198,12.625 6.480 C 12.850 7.191,12.913 8.122,12.785 8.853 C 12.550 10.205,11.684 11.469,10.516 12.169 C 9.660 12.682,8.579 12.940,7.637 12.856 C 5.881 12.700,4.418 11.714,3.656 10.173 C 3.279 9.410,3.127 8.703,3.155 7.840 C 3.187 6.885,3.453 6.046,3.969 5.279 C 4.643 4.274,5.734 3.530,6.933 3.255 C 7.335 3.163,7.498 3.150,8.080 3.158 C 8.512 3.165,8.688 3.179,8.919 3.225 M5.873 5.134 C 5.722 5.211,5.603 5.337,5.519 5.508 C 5.468 5.614,5.467 5.682,5.467 8.023 C 5.467 10.670,5.455 10.474,5.628 10.695 C 5.713 10.802,5.913 10.920,6.058 10.947 C 6.205 10.974,6.423 10.900,6.566 10.775 C 6.785 10.582,6.781 10.602,6.795 9.447 L 6.807 8.427 8.001 8.427 L 9.195 8.427 9.205 9.447 C 9.214 10.299,9.223 10.482,9.258 10.561 C 9.317 10.695,9.529 10.873,9.685 10.919 C 10.004 11.014,10.394 10.806,10.486 10.493 C 10.533 10.335,10.531 5.659,10.484 5.499 C 10.418 5.274,10.125 5.067,9.871 5.067 C 9.629 5.067,9.454 5.162,9.292 5.383 L 9.201 5.507 9.201 6.473 L 9.200 7.440 8.003 7.440 L 6.805 7.440 6.794 6.487 C 6.787 5.867,6.773 5.509,6.753 5.463 C 6.706 5.352,6.562 5.202,6.443 5.142 C 6.384 5.111,6.263 5.081,6.174 5.074 C 6.038 5.064,5.992 5.074,5.873 5.134 " fill="#1A1C1F" stroke="none" fill-rule="evenodd"></path></svg>