<svg width="28" height="28" viewBox="0 0 28 28" fill="none" xmlns="http://www.w3.org/2000/svg"><path d="M12.623 1.867 C 11.226 1.974,9.876 2.390,8.334 3.188 C 5.305 4.754,3.092 7.488,2.195 10.776 C 1.879 11.932,1.774 12.724,1.774 13.960 C 1.773 14.983,1.827 15.581,1.990 16.380 C 2.466 18.711,3.552 20.777,5.193 22.476 C 6.207 23.526,7.183 24.254,8.400 24.870 C 10.400 25.883,12.224 26.284,14.513 26.213 C 17.061 26.134,19.606 25.181,21.653 23.540 C 22.182 23.117,23.238 22.053,23.619 21.560 C 24.946 19.847,25.746 17.986,26.118 15.750 C 26.236 15.039,26.235 13.013,26.115 12.227 C 26.008 11.526,25.726 10.427,25.479 9.753 C 24.025 5.781,20.450 2.771,16.247 1.979 C 15.686 1.873,15.463 1.857,14.373 1.843 C 13.693 1.834,12.906 1.845,12.623 1.867 M14.397 3.548 C 15.485 3.613,15.863 3.664,16.587 3.847 C 18.640 4.364,20.644 5.620,22.009 7.246 C 23.317 8.804,24.201 10.865,24.412 12.845 C 24.476 13.443,24.427 15.221,24.332 15.773 C 23.842 18.623,22.111 21.230,19.647 22.833 C 18.493 23.583,16.994 24.142,15.470 24.391 C 14.759 24.507,13.146 24.506,12.483 24.389 C 11.309 24.182,10.397 23.890,9.403 23.405 C 7.290 22.373,5.696 20.783,4.629 18.643 C 4.077 17.537,3.760 16.550,3.633 15.539 C 3.553 14.905,3.553 13.095,3.633 12.461 C 3.849 10.744,4.774 8.696,5.984 7.254 C 7.629 5.294,10.043 3.965,12.577 3.624 C 12.885 3.582,13.189 3.540,13.253 3.530 C 13.464 3.498,13.595 3.500,14.397 3.548 M9.523 7.513 C 9.207 7.661,8.934 7.908,8.814 8.155 L 8.706 8.377 8.705 13.790 C 8.703 19.896,8.666 19.309,9.075 19.718 C 9.382 20.025,9.526 20.082,9.993 20.082 C 10.344 20.082,10.422 20.067,10.607 19.958 C 10.825 19.830,11.030 19.603,11.181 19.320 C 11.263 19.168,11.270 18.999,11.285 16.882 L 11.302 14.607 14.004 14.607 L 16.707 14.607 16.707 16.855 C 16.707 19.068,16.708 19.107,16.808 19.313 C 17.015 19.741,17.457 20.050,17.930 20.098 C 18.418 20.147,18.975 19.814,19.225 19.324 L 19.322 19.133 19.309 13.731 C 19.295 7.669,19.329 8.223,18.946 7.839 C 18.657 7.551,18.450 7.467,18.024 7.467 C 17.724 7.467,17.615 7.488,17.416 7.587 C 17.139 7.726,16.871 8.014,16.793 8.257 C 16.759 8.366,16.733 9.150,16.719 10.535 L 16.697 12.647 13.995 12.647 L 11.293 12.647 11.293 10.535 L 11.292 8.423 11.157 8.186 C 10.807 7.577,10.052 7.266,9.523 7.513 " fill="#1A1C1F" stroke="none" fill-rule="evenodd"></path></svg>